# vtk DataFile Version 5.1
vtk output
ASCII
DATASET POLYDATA
POINTS 100 float
0.131762 0.0297923 0.674275 0.131561 0.0300201 0.674213 0.131081 0.0305851 0.673845 
0.13034 0.0314581 0.673141 0.129365 0.0325922 0.672059 0.128194 0.0339275 0.670537 
0.126873 0.0353953 0.668497 0.125453 0.0369243 0.66585 0.123983 0.0384458 0.662494 
0.122511 0.0398983 0.658326 0.121075 0.0412309 0.653245 0.119698 0.0424059 0.647164 
0.118381 0.0433986 0.640016 0.117104 0.0441968 0.631768 0.115821 0.044798 0.622423 
0.114458 0.0452068 0.612027 0.112924 0.0454311 0.600667 0.11111 0.045479 0.58847 
0.108899 0.0453569 0.575593 0.106181 0.0450675 0.562212 0.102857 0.0446106 0.548504 
0.0988546 0.0439841 0.534637 0.094133 0.0431868 0.520752 0.0886884 0.0422217 0.506949 
0.0825548 0.0410996 0.493285 0.075801 0.0398425 0.479762 0.0685225 0.0384858 0.466339 
0.0608309 0.0370797 0.452932 0.0528408 0.0356876 0.439431 0.0446572 0.0343846 0.42571 
0.0363633 0.0332522 0.41165 0.0280118 0.032373 0.397145 0.0196213 0.0318239 0.38212 
0.011177 0.0316693 0.366535 0.00263719 0.0319551 0.350387 -0.00605512 0.0327037 0.333706 
-0.0149576 0.0339108 0.316545 -0.024112 0.0355456 0.29897 -0.0335285 0.0375523 0.281045 
-0.0431725 0.0398549 0.262816 -0.0529567 0.0423636 0.244306 -0.0627385 0.0449832 0.225504 
-0.0723256 0.0476219 0.206366 -0.0814876 0.050199 0.186822 -0.0899733 0.052653 0.166784 
-0.0975321 0.0549463 0.146159 -0.103937 0.0570679 0.124872 -0.109006 0.0590328 0.102872 
-0.112621 0.0608793 0.0801544 -0.114735 0.0626624 0.0567635 -0.115381 0.0644461 0.0327967 
-0.114667 0.0662941 0.00839931 -0.112761 0.0682609 -0.0162462 -0.109872 0.0703823 -0.0409372 
-0.106233 0.0726696 -0.0654699 -0.10207 0.0751046 -0.0896595 -0.0975803 0.0776386 -0.113358 
-0.0929182 0.0801941 -0.13647 -0.0881779 0.0826698 -0.158955 -0.0833909 0.084948 -0.180832 
-0.0785297 0.0869036 -0.202167 -0.073519 0.0884143 -0.223066 -0.0682525 0.0893699 -0.243645 
-0.062614 0.0896814 -0.264021 -0.0564985 0.0892872 -0.284283 -0.0498314 0.088157 -0.30448 
-0.0425835 0.086293 -0.324609 -0.0347784 0.0837277 -0.344615 -0.026494 0.0805198 -0.364391 
-0.0178554 0.0767469 -0.383796 -0.00902212 0.0724988 -0.40267 -0.000171106 0.0678686 -0.420855 
0.00852237 0.0629456 -0.438217 0.0169027 0.0578096 -0.454663 0.0248485 0.0525263 -0.470156 
0.032282 0.0471455 -0.484716 0.0391714 0.0417022 -0.49842 0.0455267 0.0362184 -0.511388 
0.0513892 0.0307078 -0.523762 0.0568171 0.0251806 -0.535688 0.0618682 0.0196486 -0.54729 
0.0665844 0.0141302 -0.558646 0.0709779 0.0086533 -0.569776 0.0750245 0.00325705 -0.580631 
0.0786619 -0.00200845 -0.591096 0.0817963 -0.00708449 -0.601002 0.0843151 -0.0119076 -0.610142 
0.0861044 -0.0164147 -0.618302 0.0870692 -0.0205484 -0.625288 0.0871532 -0.0242622 -0.630953 
0.0863552 -0.027525 -0.635221 0.0847396 -0.0303236 -0.638105 0.0824397 -0.0326635 -0.639708 
0.0796521 -0.0345677 -0.640221 0.0766224 -0.0360733 -0.639901 0.0736245 -0.0372268 -0.639052 
0.0709351 -0.038078 -0.637987 0.0688062 -0.038674 -0.636995 0.0674393 -0.0390528 -0.636309 
0.0669647 -0.0392394 -0.63608 
LINES 2 100
OFFSETS vtktypeint64
0 100 
CONNECTIVITY vtktypeint64
0 1 2 3 4 5 6 7 8 
9 10 11 12 13 14 15 16 17 
18 19 20 21 22 23 24 25 26 
27 28 29 30 31 32 33 34 35 
36 37 38 39 40 41 42 43 44 
45 46 47 48 49 50 51 52 53 
54 55 56 57 58 59 60 61 62 
63 64 65 66 67 68 69 70 71 
72 73 74 75 76 77 78 79 80 
81 82 83 84 85 86 87 88 89 
90 91 92 93 94 95 96 97 98 
99 
POINT_DATA 100
FIELD FieldData 3
_theta 1 100 double
0 0.031733259127 0.063466518254 0.095199777382 0.12693303651 0.15866629564 0.19039955476 0.22213281389 0.25386607302 
0.28559933214 0.31733259127 0.3490658504 0.38079910953 0.41253236865 0.44426562778 0.47599888691 0.50773214603 0.53946540516 
0.57119866429 0.60293192342 0.63466518254 0.66639844167 0.6981317008 0.72986495992 0.76159821905 0.79333147818 0.82506473731 
0.85679799643 0.88853125556 0.92026451469 0.95199777382 0.98373103294 1.0154642921 1.0471975512 1.0789308103 1.1106640695 
1.1423973286 1.1741305877 1.2058638468 1.237597106 1.2693303651 1.3010636242 1.3327968833 1.3645301425 1.3962634016 
1.4279966607 1.4597299198 1.491463179 1.5231964381 1.5549296972 1.5866629564 1.6183962155 1.6501294746 1.6818627337 
1.7135959929 1.745329252 1.7770625111 1.8087957702 1.8405290294 1.8722622885 1.9039955476 1.9357288068 1.9674620659 
1.999195325 2.0309285841 2.0626618433 2.0943951024 2.1261283615 2.1578616206 2.1895948798 2.2213281389 2.253061398 
2.2847946572 2.3165279163 2.3482611754 2.3799944345 2.4117276937 2.4434609528 2.4751942119 2.506927471 2.5386607302 
2.5703939893 2.6021272484 2.6338605076 2.6655937667 2.6973270258 2.7290602849 2.7607935441 2.7925268032 2.8242600623 
2.8559933214 2.8877265806 2.9194598397 2.9511930988 2.982926358 3.0146596171 3.0463928762 3.0781261353 3.1098593945 
3.1415926536 
_radius 1 100 double
7.8780896266e-16 0.015698869413 0.031195977477 0.046302509225 0.060856853188 0.074733093159 0.08784444537 0.10014169561 0.11160775336 
0.1222502314 0.13209420563 0.14117686343 0.14954471859 0.15725284084 0.1643646233 0.17095036662 0.17708348923 0.18283431481 
0.18826277883 0.19341245026 0.19830826517 0.20295900066 0.20736343287 0.21151757448 0.21542016488 0.21907457636 0.22248686525 
0.22566113094 0.2285941163 0.23127089509 0.23366274021 0.23572729867 0.2374104725 0.23864918719 0.23937452656 0.23951530893 
0.23900272441 0.23777681696 0.23579521217 0.23304365841 0.22954695996 0.22537807681 0.22066279515 0.21557758937 0.21033923576 
0.20518649693 0.20035656433 0.19606108493 0.19246723121 0.18968764395 0.18777976066 0.18675161829 0.18656928606 0.18716161866 
0.18842098085 0.19020254931 0.19232724723 0.19459239772 0.19679030458 0.19873088257 0.20026271882 0.20128801709 0.20176937636 
0.20172866456 0.20123959029 0.20041597088 0.19939748597 0.19833423184 0.19737090329 0.19663114001 0.19620268783 0.19612460427 
0.19637848922 0.19688600043 0.19751414888 0.19808812154 0.1984094244 0.19827593273 0.19750044647 0.19592535681 0.19343240083 
0.18994758889 0.18544190915 0.1799284006 0.17345595498 0.16610010087 0.15795123966 0.14910134732 0.13963085424 0.12959796704 
0.1190327594 0.10793771142 0.096295067987 0.084079775475 0.071275360596 0.0578893783 0.043965157658 0.029587410173 0.014880550701 
8.6554959852e-16 
_area 1 100 double
0 0.00058230017748 0.0023009903912 0.005076511275 0.0087914305747 0.013307938867 0.0184842111 0.02418557123 0.030288654508 
0.036679400922 0.043247919933 0.04988423342 0.056478380784 0.062926663933 0.069143304187 0.075074317647 0.080709121436 0.086085451435 
0.091283995275 0.096410780369 0.10156996884 0.10683868588 0.11225667608 0.11782682084 0.12351425671 0.1292444961 0.13490925067 
0.14038294688 0.14554438135 0.15029467792 0.1545640043 0.15830303792 0.1614614824 0.16396448562 0.16570108877 0.16653128969 
0.16630843483 0.16490990971 0.16226889201 0.15840003345 0.15341279053 0.14750842921 0.14096027617 0.13408102546 0.12718500074 
0.12055556751 0.11442576832 0.10897190779 0.10431010394 0.10049085402 0.097505577702 0.09530903182 0.093836054417 0.093004652895 
0.092714696355 0.092849632865 0.093285502182 0.093901206633 0.094570961677 0.095142351059 0.095439543383 0.095303187915 0.094635464711 
0.093426390694 0.091757636159 0.089786020994 0.087710533322 0.085738688442 0.084073816558 0.082908422418 0.082401622687 0.082645880829 
0.083636347912 0.085259931871 0.087311320298 0.089529763559 0.091636058313 0.093358737573 0.094452306669 0.094711500761 0.093982931641 
0.092173990304 0.089258189192 0.085275453073 0.080325627746 0.07455467096 0.068135736995 0.061250155603 0.054073896501 0.046772551613 
0.03950362107 0.032421751779 0.025682370103 0.019441361115 0.013851075452 0.0090543864683 0.0051784845729 0.0023292735548 0.00058654274913 
3.1092125622e-17 
