# vtk DataFile Version 5.1
vtk output
ASCII
DATASET POLYDATA
POINTS 100 float
0.109171 0.048249 0.670228 0.109086 0.0483746 0.670139 0.108976 0.0485901 0.669718 
0.108826 0.0489034 0.668956 0.10862 0.0493252 0.667838 0.108333 0.0498661 0.66634 
0.107943 0.0505332 0.664427 0.107429 0.0513259 0.662055 0.106775 0.0522331 0.659164 
0.105973 0.0532305 0.655687 0.105023 0.0542791 0.651549 0.103928 0.0553254 0.64667 
0.102697 0.0563031 0.640978 0.101335 0.0571368 0.634407 0.0998451 0.0577463 0.626914 
0.0982188 0.0580531 0.618477 0.096437 0.0579859 0.609104 0.0944664 0.0574879 0.598834 
0.0922611 0.056522 0.587737 0.0897642 0.0550752 0.575907 0.0869132 0.0531617 0.56346 
0.0836455 0.0508239 0.550522 0.0799057 0.0481303 0.537221 0.0756521 0.0451727 0.523674 
0.0708631 0.0420607 0.509983 0.0655411 0.0389147 0.496221 0.0597145 0.0358589 0.482431 
0.0534362 0.033013 0.468625 0.0467802 0.0304854 0.454783 0.0398344 0.0283673 0.440857 
0.032693 0.0267278 0.426781 0.0254461 0.0256121 0.412474 0.0181718 0.0250406 0.397852 
0.0109276 0.0250112 0.382836 0.00374554 0.0255021 0.367356 -0.0033696 0.0264767 0.351356 
-0.0104389 0.0278889 0.334797 -0.0175034 0.0296881 0.317657 -0.0246159 0.0318241 0.299928 
-0.0318292 0.0342508 0.281616 -0.0391845 0.0369284 0.262731 -0.0466985 0.0398237 0.24329 
-0.0543542 0.0429097 0.223309 -0.0620925 0.0461632 0.202805 -0.06981 0.0495616 0.181795 
-0.0773597 0.0530797 0.160297 -0.0845583 0.0566864 0.138329 -0.0911964 0.0603423 0.115918 
-0.0970528 0.063998 0.0930992 -0.101912 0.0675945 0.0699162 -0.105579 0.0710646 0.046425 
-0.107898 0.0743356 0.0226911 -0.108763 0.0773338 -0.00121202 -0.10813 0.0799885 -0.0252072 
-0.106016 0.0822372 -0.0492176 -0.102503 0.0840295 -0.0731716 -0.0977256 0.0853306 -0.0970066 
-0.0918635 0.0861226 -0.120672 -0.0851242 0.0864053 -0.144131 -0.077727 0.0861944 -0.167359 
-0.0698846 0.0855182 -0.19034 -0.0617884 0.0844142 -0.213065 -0.053595 0.0829236 -0.235525 
-0.0454178 0.0810873 -0.257706 -0.0373234 0.0789407 -0.279587 -0.0293327 0.0765117 -0.301134 
-0.0214275 0.0738179 -0.322302 -0.01356 0.0708672 -0.343037 -0.00566575 0.0676593 -0.363278 
0.00232271 0.0641883 -0.382966 0.0104625 0.0604476 -0.402048 0.0187891 0.0564335 -0.420487 
0.0273076 0.0521507 -0.438264 0.0359891 0.0476152 -0.455383 0.0447697 0.0428577 -0.471874 
0.0535554 0.0379241 -0.487783 0.0622295 0.0328753 -0.503173 0.0706631 0.0277844 -0.518108 
0.0787266 0.0227332 -0.532647 0.0863023 0.0178072 -0.546829 0.093294 0.0130898 -0.560666 
0.0996361 0.00865734 -0.574133 0.105298 0.00457396 -0.587166 0.110285 0.000887929 -0.599664 
0.114637 -0.0023707 -0.611493 0.118421 -0.00519078 -0.622501 0.121722 -0.00757919 -0.632532 
0.124637 -0.00955856 -0.641439 0.127258 -0.011164 -0.649107 0.129668 -0.012439 -0.655466 
0.131928 -0.0134317 -0.6605 0.134076 -0.0141905 -0.664257 0.136122 -0.0147614 -0.666847 
0.138051 -0.0151856 -0.668431 0.139823 -0.0154982 -0.669215 0.141387 -0.0157276 -0.669425 
0.142683 -0.0158961 -0.669288 0.143651 -0.0160207 -0.669012 0.144244 -0.0161137 -0.668762 
0.144431 -0.0161837 -0.668644 
LINES 2 100
OFFSETS vtktypeint64
0 100 
CONNECTIVITY vtktypeint64
0 1 2 3 4 5 6 7 8 
9 10 11 12 13 14 15 16 17 
18 19 20 21 22 23 24 25 26 
27 28 29 30 31 32 33 34 35 
36 37 38 39 40 41 42 43 44 
45 46 47 48 49 50 51 52 53 
54 55 56 57 58 59 60 61 62 
63 64 65 66 67 68 69 70 71 
72 73 74 75 76 77 78 79 80 
81 82 83 84 85 86 87 88 89 
90 91 92 93 94 95 96 97 98 
99 
POINT_DATA 100
FIELD FieldData 3
_theta 1 100 double
0 0.031733259127 0.063466518254 0.095199777382 0.12693303651 0.15866629564 0.19039955476 0.22213281389 0.25386607302 
0.28559933214 0.31733259127 0.3490658504 0.38079910953 0.41253236865 0.44426562778 0.47599888691 0.50773214603 0.53946540516 
0.57119866429 0.60293192342 0.63466518254 0.66639844167 0.6981317008 0.72986495992 0.76159821905 0.79333147818 0.82506473731 
0.85679799643 0.88853125556 0.92026451469 0.95199777382 0.98373103294 1.0154642921 1.0471975512 1.0789308103 1.1106640695 
1.1423973286 1.1741305877 1.2058638468 1.237597106 1.2693303651 1.3010636242 1.3327968833 1.3645301425 1.3962634016 
1.4279966607 1.4597299198 1.491463179 1.5231964381 1.5549296972 1.5866629564 1.6183962155 1.6501294746 1.6818627337 
1.7135959929 1.745329252 1.7770625111 1.8087957702 1.8405290294 1.8722622885 1.9039955476 1.9357288068 1.9674620659 
1.999195325 2.0309285841 2.0626618433 2.0943951024 2.1261283615 2.1578616206 2.1895948798 2.2213281389 2.253061398 
2.2847946572 2.3165279163 2.3482611754 2.3799944345 2.4117276937 2.4434609528 2.4751942119 2.506927471 2.5386607302 
2.5703939893 2.6021272484 2.6338605076 2.6655937667 2.6973270258 2.7290602849 2.7607935441 2.7925268032 2.8242600623 
2.8559933214 2.8877265806 2.9194598397 2.9511930988 2.982926358 3.0146596171 3.0463928762 3.0781261353 3.1098593945 
3.1415926536 
_radius 1 100 double
3.3766115072e-16 0.015193160084 0.030229988427 0.044963223031 0.05926997212 0.07305982927 0.086278470884 0.098906115367 0.11095098201 
0.12243875281 0.13339985057 0.14385686552 0.15381448061 0.16325370914 0.17213132675 0.18038434638 0.18793853358 0.19471945788 
0.20066444678 0.20573395335 0.20992109282 0.21325827978 0.21581993015 0.21772018392 0.21910481847 0.22013725326 0.22097986963 
0.22177343077 0.22261846832 0.22356245719 0.22459534223 0.22565403989 0.226634656 0.22740985978 0.22784830621 0.22783312867 
0.22727714332 0.2261332831 0.22439966386 0.22211937376 0.2193754794 0.21628192312 0.2129711486 0.20957966247 0.20623335767 
0.20303492532 0.20005549486 0.19733166012 0.19486791032 0.19264378522 0.1906246238 0.18877410094 0.18706594314 0.1854919362 
0.18406411504 0.18281079849 0.18176824788 0.18097118158 0.18044524686 0.18020278795 0.18024111238 0.18054150621 0.18106786231 
0.18176516901 0.18255935846 0.18336051664 0.18407071779 0.18459584617 0.18485879376 0.18481061038 0.18443682214 0.18375769347 
0.18282297971 0.18170301316 0.18047819111 0.1792279652 0.17801901632 0.17689184017 0.17584638704 0.17482983272 0.17373071199 
0.17238229606 0.17057549419 0.16807951998 0.16466744338 0.16014301581 0.15436464813 0.14726249738 0.13884559029 0.12919769831 
0.11846285864 0.10682348149 0.094475422997 0.08160488184 0.068371298861 0.054898685227 0.041275443398 0.027560567211 0.013792873899 
5.6135646238e-16 
_area 1 100 double
0 0.00058492354149 0.0023178180245 0.0051372182874 0.0089535514605 0.013665044074 0.019173752385 0.025396949017 0.032270032462 
0.039739566399 0.047748435587 0.056218084075 0.065033841394 0.07403797037 0.083032461632 0.091791338928 0.10008076822 0.10768403683 
0.11442723714 0.12020087215 0.12497340541 0.12879503268 0.13179258293 0.13415755485 0.1361271414 0.13795433489 0.13986551901 
0.14201653379 0.14446592681 0.14717267512 0.15001128756 0.15279543944 0.15530454615 0.15731029936 0.15860518285 0.15903547176 
0.15852903044 0.15710259634 0.15484619165 0.15189614961 0.14840926082 0.14454354262 0.14044600542 0.13624550701 0.13204892054 
0.12794074039 0.1239854793 0.12022895218 0.11669479318 0.11337869503 0.11024909521 0.10726061007 0.10437528695 0.10157731131 
0.098865440839 0.09622367858 0.093611458611 0.091005346302 0.088436523324 0.086006002078 0.083859371623 0.082144823284 0.08095878466 
0.080318211973 0.080175832444 0.080421448948 0.080839524072 0.081145997983 0.081100029669 0.080562978828 0.07951901511 0.078083592951 
0.076498413743 0.075071309673 0.074070604579 0.073661445446 0.073892933931 0.074704594218 0.075940897937 0.077368874598 0.078698600911 
0.07960896581 0.079778812009 0.078920860089 0.07681482857 0.07333607123 0.068476112458 0.062351706294 0.055199766998 0.047356957054 
0.039224965564 0.031225355594 0.023750650181 0.017120087224 0.01154836256 0.0071335460766 0.003866875613 0.0016631859771 0.00040645674047 
5.6926968426e-17 
