# vtk DataFile Version 5.1
vtk output
ASCII
DATASET POLYDATA
POINTS 100 float
0.0606689 -0.0434381 -0.677068 0.0603777 -0.0433777 -0.676968 0.059499 -0.0430338 -0.6767 
0.0580355 -0.0423954 -0.676183 0.055992 -0.041446 -0.675292 0.0533757 -0.0401641 -0.673872 
0.0501964 -0.0385254 -0.67176 0.0464669 -0.0365043 -0.668803 0.0422026 -0.0340768 -0.664878 
0.0374221 -0.0312223 -0.659902 0.0321463 -0.0279258 -0.653845 0.0263986 -0.0241808 -0.646729 
0.0202049 -0.0199901 -0.638622 0.0135934 -0.0153675 -0.629629 0.00659538 -0.0103386 -0.619875 
-0.000754447 -0.00494057 -0.609486 -0.00841659 0.000777979 -0.598576 -0.0163458 0.0067585 -0.587226 
-0.02449 0.0129339 -0.575479 -0.0327898 0.0192307 -0.56333 -0.0411784 0.025571 -0.550736 
-0.0495828 0.0318751 -0.537615 -0.057926 0.0380633 -0.523866 -0.0661308 0.0440583 -0.509378 
-0.0741237 0.0497864 -0.494051 -0.0818407 0.0551792 -0.477811 -0.089232 0.0601741 -0.460618 
-0.0962671 0.064715 -0.442473 -0.102938 0.0687527 -0.423421 -0.10926 0.0722449 -0.403544 
-0.115272 0.0751566 -0.382953 -0.121031 0.0774597 -0.361774 -0.126604 0.0791342 -0.340134 
-0.132062 0.0801682 -0.318146 -0.137465 0.0805585 -0.295901 -0.142853 0.080312 -0.273459 
-0.148236 0.079446 -0.250849 -0.15358 0.0779889 -0.228069 -0.15881 0.0759808 -0.205097 
-0.163803 0.0734732 -0.181901 -0.168393 0.0705282 -0.158451 -0.172384 0.0672175 -0.13473 
-0.17556 0.0636199 -0.110747 -0.177706 0.0598195 -0.0865429 -0.178623 0.0559023 -0.0621899 
-0.17815 0.0519532 -0.0377918 -0.176181 0.0480534 -0.0134753 -0.172676 0.0442773 0.0106198 
-0.167669 0.0406902 0.0343531 -0.161268 0.0373474 0.0575962 -0.153649 0.034293 0.0802428 
-0.145044 0.0315606 0.102217 -0.135721 0.0291739 0.123477 -0.125962 0.0271484 0.144015 
-0.116043 0.0254934 0.163849 -0.106207 0.0242141 0.183022 -0.0966518 0.0233132 0.201584 
-0.0875134 0.0227929 0.219588 -0.0788606 0.022655 0.23708 -0.0706966 0.0229013 0.25409 
-0.0629672 0.0235327 0.270632 -0.0555751 0.0245476 0.286708 -0.0483975 0.0259398 0.302304 
-0.0413071 0.0276962 0.317408 -0.0341907 0.0297948 0.332012 -0.0269665 0.032202 0.346122 
-0.0195955 0.0348723 0.359765 -0.0120872 0.0377477 0.372994 -0.00449893 0.0407584 0.385886 
0.00307162 0.0438251 0.398535 0.0104986 0.046862 0.41105 0.017644 0.0497811 0.423536 
0.0243746 0.0524965 0.436086 0.030578 0.0549293 0.448765 0.0361761 0.0570125 0.461599 
0.0411333 0.0586948 0.474571 0.0454592 0.0599439 0.487616 0.0492054 0.0607483 0.500622 
0.0524575 0.0611178 0.513442 0.0553221 0.0610827 0.525904 0.0579122 0.0606912 0.537826 
0.0603323 0.0600061 0.549034 0.0626649 0.0591004 0.559376 0.0649612 0.0580522 0.568738 
0.0672358 0.0569394 0.577048 0.0694677 0.0558356 0.584285 0.0716059 0.0548048 0.590477 
0.0735793 0.0538988 0.595692 0.0753093 0.0531542 0.60003 0.076724 0.0525921 0.603612 
0.0777707 0.0522174 0.606562 0.0784255 0.0520204 0.609 0.0786995 0.0519792 0.611027 
0.0786387 0.0520622 0.612725 0.0783201 0.0522321 0.614147 0.0778421 0.0524492 0.615324 
0.0773125 0.0526752 0.616266 0.0768347 0.052877 0.616972 0.0764939 0.0530285 0.617433 
0.0763461 0.053114 0.61764 
LINES 2 100
OFFSETS vtktypeint64
0 100 
CONNECTIVITY vtktypeint64
0 1 2 3 4 5 6 7 8 
9 10 11 12 13 14 15 16 17 
18 19 20 21 22 23 24 25 26 
27 28 29 30 31 32 33 34 35 
36 37 38 39 40 41 42 43 44 
45 46 47 48 49 50 51 52 53 
54 55 56 57 58 59 60 61 62 
63 64 65 66 67 68 69 70 71 
72 73 74 75 76 77 78 79 80 
81 82 83 84 85 86 87 88 89 
90 91 92 93 94 95 96 97 98 
99 
POINT_DATA 100
FIELD FieldData 3
_theta 1 100 double
0 0.031733259127 0.063466518254 0.095199777382 0.12693303651 0.15866629564 0.19039955476 0.22213281389 0.25386607302 
0.28559933214 0.31733259127 0.3490658504 0.38079910953 0.41253236865 0.44426562778 0.47599888691 0.50773214603 0.53946540516 
0.57119866429 0.60293192342 0.63466518254 0.66639844167 0.6981317008 0.72986495992 0.76159821905 0.79333147818 0.82506473731 
0.85679799643 0.88853125556 0.92026451469 0.95199777382 0.98373103294 1.0154642921 1.0471975512 1.0789308103 1.1106640695 
1.1423973286 1.1741305877 1.2058638468 1.237597106 1.2693303651 1.3010636242 1.3327968833 1.3645301425 1.3962634016 
1.4279966607 1.4597299198 1.491463179 1.5231964381 1.5549296972 1.5866629564 1.6183962155 1.6501294746 1.6818627337 
1.7135959929 1.745329252 1.7770625111 1.8087957702 1.8405290294 1.8722622885 1.9039955476 1.9357288068 1.9674620659 
1.999195325 2.0309285841 2.0626618433 2.0943951024 2.1261283615 2.1578616206 2.1895948798 2.2213281389 2.253061398 
2.2847946572 2.3165279163 2.3482611754 2.3799944345 2.4117276937 2.4434609528 2.4751942119 2.506927471 2.5386607302 
2.5703939893 2.6021272484 2.6338605076 2.6655937667 2.6973270258 2.7290602849 2.7607935441 2.7925268032 2.8242600623 
2.8559933214 2.8877265806 2.9194598397 2.9511930988 2.982926358 3.0146596171 3.0463928762 3.0781261353 3.1098593945 
3.1415926536 
_radius 1 100 double
3.3794621717e-16 0.014207874983 0.028258769276 0.04199685005 0.055275804286 0.067963027653 0.079942841727 0.091118492438 0.10141286636 
0.11076812229 0.1191446888 0.1265202046 0.13288889371 0.138261585 0.14266622061 0.14614840814 0.14877147832 0.15061564211 
0.15177613015 0.15236051266 0.15248558589 0.1522741511 0.15185168959 0.1513425106 0.15086473776 0.1505237972 0.15040488574 
0.15056584009 0.15103232042 0.15179688752 0.15282247913 0.15404943696 0.15540408858 0.15680627001 0.15817367333 0.15942368783 
0.16047735795 0.16126924486 0.16176041854 0.16194853332 0.16187160127 0.16160518301 0.16125404257 0.16093988247 0.16078724664 
0.16090999896 0.16140072998 0.16232482085 0.16371961914 0.16559746167 0.1679498926 0.17075047162 0.17395526862 0.17750215985 
0.18131075703 0.18528401815 0.18931145503 0.19327346352 0.19704671546 0.20051098654 0.20355756207 0.20609854676 0.20807564373 
0.20946672061 0.21028870721 0.2105958191 0.21047264916 0.21002236495 0.20935119378 0.20855156841 0.20768742525 0.20678545186 
0.20583478813 0.20479482769 0.20360762155 0.20220973808 0.20053919601 0.19853573388 0.19613584017 0.19326633249 0.18984099666 
0.18576355323 0.18093740468 0.17527950733 0.16873390933 0.16128081182 0.15293895204 0.14376148241 0.13382733232 0.12323084329 
0.11207225421 0.10045063115 0.088459537395 0.076184670723 0.063702288046 0.051077579509 0.038362946235 0.025596882585 0.012804448416 
6.210494803e-16 
_area 1 100 double
0 0.00050726412396 0.0020174845954 0.0044935939248 0.0078672356313 0.012032682093 0.016843879371 0.022116648135 0.027636247057 
0.033169472027 0.038480268487 0.043347669832 0.047584194772 0.051051945325 0.053673384053 0.055434729331 0.056381879684 0.056610795207 
0.056255241307 0.055474369143 0.054441613555 0.053336914183 0.052348363186 0.051667435601 0.051386967136 0.051483911509 0.051953286663 
0.05277590303 0.053841276267 0.055040572641 0.056262501985 0.057403353669 0.058391760305 0.059227843794 0.059963428634 0.060651994834 
0.061309711275 0.061988700258 0.06266801695 0.063282732237 0.063803490357 0.064260240516 0.064736772074 0.065347986985 0.06620523648 
0.067385960543 0.068925107991 0.0708293356 0.07309928599 0.075745026998 0.078783942487 0.0822224889 0.086046606177 0.090238705229 
0.094810561066 0.099874541049 0.10577274736 0.11256287398 0.11970068866 0.12660292856 0.13276505641 0.13778045509 0.1413605071 
0.14334587534 0.14370756663 0.14254189433 0.14006331537 0.13659084642 0.13252194632 0.12829975974 0.12436680251 0.12107448199 
0.11856114895 0.11670536692 0.11521382305 0.11372055676 0.11188201011 0.10948327374 0.10645386801 0.10280800092 0.098582167019 
0.093798626301 0.088458261264 0.082557194026 0.076114241142 0.069194135676 0.061915995119 0.054443933102 0.046964569706 0.039661533938 
0.032696679045 0.026202498181 0.020284023044 0.015024789294 0.010491643921 0.0067362406966 0.0037945036738 0.0016869233953 0.00042165743548 
4.3503165513e-17 
