# vtk DataFile Version 5.1
vtk output
ASCII
DATASET POLYDATA
POINTS 100 float
0.128352 0.06339 0.688018 0.128457 0.0635198 0.6879 0.12885 0.0637024 0.687392 
0.129479 0.0639254 0.686472 0.130261 0.0641709 0.685109 0.131092 0.0644175 0.683257 
0.131855 0.0646424 0.680865 0.132428 0.0648237 0.677871 0.132699 0.0649421 0.674217 
0.132572 0.0649825 0.669842 0.13197 0.0649343 0.664692 0.130844 0.064791 0.658725 
0.12917 0.0645494 0.651913 0.126947 0.0642077 0.644244 0.124192 0.0637642 0.635729 
0.120934 0.0632151 0.626399 0.117207 0.0625538 0.616306 0.113046 0.0617706 0.605522 
0.108475 0.0608528 0.59413 0.103514 0.0597868 0.582228 0.0981678 0.0585598 0.569915 
0.0924367 0.0571635 0.557287 0.086314 0.0555963 0.544431 0.0797931 0.0538668 0.531423 
0.0728734 0.0519955 0.518316 0.0655642 0.0500158 0.505144 0.0578898 0.0479738 0.491917 
0.0498909 0.0459261 0.478625 0.0416246 0.043937 0.465239 0.0331621 0.0420738 0.451712 
0.024584 0.0404024 0.437989 0.0159743 0.038982 0.424008 0.00741391 0.0378604 0.409703 
-0.00102615 0.037071 0.395012 -0.00928971 0.0366301 0.379878 -0.017339 0.0365371 0.364248 
-0.0251552 0.0367751 0.348076 -0.0327371 0.0373148 0.331325 -0.040096 0.0381179 0.313958 
-0.0472497 0.0391426 0.295948 -0.0542144 0.0403482 0.277267 -0.0609967 0.0417 0.257894 
-0.0675861 0.043173 0.237809 -0.0739497 0.0447535 0.217002 -0.0800291 0.0464395 0.19547 
-0.0857406 0.0482396 0.173222 -0.0909792 0.0501695 0.150282 -0.0956247 0.052248 0.126693 
-0.0995513 0.0544923 0.102514 -0.102638 0.0569127 0.0778257 -0.104779 0.0595087 0.0527233 
-0.105897 0.0622657 0.027317 -0.105947 0.0651531 0.0017252 -0.104924 0.0681247 -0.0239317 
-0.102866 0.0711203 -0.0495379 -0.0998494 0.0740692 -0.0749886 -0.0959848 0.0768942 -0.100196 
-0.091408 0.0795174 -0.125094 -0.0862688 0.0818643 -0.149639 -0.0807193 0.0838691 -0.17381 
-0.0749016 0.085478 -0.197606 -0.0689377 0.0866515 -0.221043 -0.0629209 0.0873647 -0.244145 
-0.0569119 0.0876074 -0.266938 -0.0509365 0.0873815 -0.289442 -0.0449887 0.0866984 -0.311667 
-0.0390359 0.0855756 -0.333607 -0.0330273 0.0840337 -0.355236 -0.0269037 0.0820932 -0.37651 
-0.0206078 0.0797728 -0.397369 -0.0140939 0.077088 -0.41774 -0.00733621 0.0740517 -0.437545 
-0.000334461 0.0706746 -0.456704 0.00688311 0.0669675 -0.475146 0.01426 0.0629432 -0.49281 
0.0217148 0.0586192 -0.509653 0.0291467 0.0540193 -0.525651 0.0364431 0.0491752 -0.540797 
0.0434885 0.0441274 -0.555103 0.0501729 0.0389245 -0.568591 0.0563999 0.0336221 -0.581292 
0.0620932 0.028281 -0.593241 0.0672008 0.0229642 -0.604469 0.0716977 0.0177349 -0.615 
0.0755847 0.012653 -0.624851 0.0788868 0.00777284 -0.634027 0.0816484 0.00314169 -0.642526 
0.0839278 -0.00120182 -0.65034 0.0857916 -0.00522809 -0.657456 0.087308 -0.00891628 -0.663865 
0.0885418 -0.0122535 -0.669561 0.0895504 -0.0152337 -0.674548 0.0903805 -0.017856 -0.678837 
0.0910671 -0.0201232 -0.682452 0.0916335 -0.0220407 -0.685425 0.0920931 -0.0236144 -0.687791 
0.0924515 -0.0248506 -0.689589 0.0927093 -0.0257548 -0.690854 0.0928647 -0.026331 -0.691614 
0.0929161 -0.0265818 -0.691885 
LINES 2 100
OFFSETS vtktypeint64
0 100 
CONNECTIVITY vtktypeint64
0 1 2 3 4 5 6 7 8 
9 10 11 12 13 14 15 16 17 
18 19 20 21 22 23 24 25 26 
27 28 29 30 31 32 33 34 35 
36 37 38 39 40 41 42 43 44 
45 46 47 48 49 50 51 52 53 
54 55 56 57 58 59 60 61 62 
63 64 65 66 67 68 69 70 71 
72 73 74 75 76 77 78 79 80 
81 82 83 84 85 86 87 88 89 
90 91 92 93 94 95 96 97 98 
99 
POINT_DATA 100
FIELD FieldData 3
_theta 1 100 double
0 0.031733259127 0.063466518254 0.095199777382 0.12693303651 0.15866629564 0.19039955476 0.22213281389 0.25386607302 
0.28559933214 0.31733259127 0.3490658504 0.38079910953 0.41253236865 0.44426562778 0.47599888691 0.50773214603 0.53946540516 
0.57119866429 0.60293192342 0.63466518254 0.66639844167 0.6981317008 0.72986495992 0.76159821905 0.79333147818 0.82506473731 
0.85679799643 0.88853125556 0.92026451469 0.95199777382 0.98373103294 1.0154642921 1.0471975512 1.0789308103 1.1106640695 
1.1423973286 1.1741305877 1.2058638468 1.237597106 1.2693303651 1.3010636242 1.3327968833 1.3645301425 1.3962634016 
1.4279966607 1.4597299198 1.491463179 1.5231964381 1.5549296972 1.5866629564 1.6183962155 1.6501294746 1.6818627337 
1.7135959929 1.745329252 1.7770625111 1.8087957702 1.8405290294 1.8722622885 1.9039955476 1.9357288068 1.9674620659 
1.999195325 2.0309285841 2.0626618433 2.0943951024 2.1261283615 2.1578616206 2.1895948798 2.2213281389 2.253061398 
2.2847946572 2.3165279163 2.3482611754 2.3799944345 2.4117276937 2.4434609528 2.4751942119 2.506927471 2.5386607302 
2.5703939893 2.6021272484 2.6338605076 2.6655937667 2.6973270258 2.7290602849 2.7607935441 2.7925268032 2.8242600623 
2.8559933214 2.8877265806 2.9194598397 2.9511930988 2.982926358 3.0146596171 3.0463928762 3.0781261353 3.1098593945 
3.1415926536 
_radius 1 100 double
6.9735020682e-16 0.014749955931 0.029363938611 0.043708748457 0.057671805788 0.07116641895 0.084132488438 0.096533518565 0.10835160446 
0.11958213703 0.13022941941 0.14030355728 0.1498182667 0.15878891426 0.16723023731 0.17515366667 0.18256473814 0.18946145749 
0.19583448578 0.20166961148 0.2069523243 0.21167365515 0.21583603618 0.21945787501 0.22257579033 0.22524388201 0.22752986774 
0.22950833924 0.2312517828 0.2328204047 0.23425218032 0.2355547947 0.23670109779 0.23762925489 0.2382479803 0.23844631181 
0.23810659281 0.23711888941 0.23539505131 0.23288094213 0.2295658353 0.22548839473 0.22073889681 0.21545738634 0.20982740438 
0.20406497481 0.19840289707 0.1930712133 0.1882759966 0.18418002604 0.18088966254 0.17845124512 0.17685722624 0.17605837872 
0.17597623547 0.17651114419 0.17754523982 0.17894353622 0.18055751587 0.18223366529 0.18382637377 0.18521253927 0.18630461189 
0.1870592183 0.18747953024 0.18761088139 0.18753048749 0.18733317673 0.18711559615 0.18696139883 0.18692951964 0.18704691179 
0.18730613126 0.18766710133 0.18806161093 0.18839893183 0.18857140344 0.18845958768 0.18793719748 0.18687621609 0.18515250216 
0.18265192569 0.17927684442 0.17495250334 0.16963265526 0.16330339276 0.1559840272 0.14772405999 0.1385959669 0.12868456914 
0.11807492381 0.10684152267 0.09504171707 0.082715445052 0.069891650742 0.056599759511 0.042882868059 0.028808516206 0.014473384711 
1.4894172171e-15 
_area 1 100 double
0 0.00061749379937 0.0024490611071 0.0054329860588 0.0094700085785 0.014429229678 0.020156971728 0.026488341455 0.033260366242 
0.040324751241 0.047557958895 0.054866637812 0.062187308381 0.069480403073 0.076720023079 0.083881831442 0.090932070241 0.097820621187 
0.10448031359 0.11083332596 0.11680362633 0.12233236862 0.12739176029 0.13199289209 0.1361846693 0.14004389457 0.14365955601 
0.14711585855 0.150477595 0.15377910971 0.15701651297 0.16014285937 0.16306676684 0.16565534149 0.16774217002 0.1691408021 
0.16966337874 0.16914258459 0.16745358203 0.16453235121 0.16038823323 0.15511031624 0.14886821389 0.14190728321 0.13453712766 
0.12711155138 0.11999858964 0.11354021895 0.10800249191 0.10352210349 0.1000709727 0.097475170056 0.095499506968 0.093942624326 
0.092684815219 0.0916835295 0.090932857182 0.090430082213 0.090190663757 0.090230159907 0.090379961858 0.090389898341 0.09009738418 
0.089434331988 0.088407499884 0.087075632055 0.085527887381 0.083869045925 0.082211556993 0.080670879204 0.079361952009 0.078396176478 
0.077874359284 0.077860933104 0.078336183394 0.079191588593 0.080286737649 0.08147638525 0.082597210626 0.083453585897 0.083820399654 
0.083463478441 0.082170731621 0.079785378523 0.076233687682 0.071541378512 0.06583474468 0.059325415416 0.052281528175 0.044991702099 
0.037730271425 0.030732058922 0.024182001367 0.018219419028 0.012951325483 0.0084675324521 0.0048522180164 0.0021883404518 0.00055227727661 
5.9434602882e-17 
