# vtk DataFile Version 5.1
vtk output
ASCII
DATASET POLYDATA
POINTS 100 float
0.102889 0.0339404 0.634445 0.102962 0.0342753 0.63422 0.103229 0.0351167 0.63345 
0.103637 0.0364013 0.632173 0.104104 0.0380326 0.630443 0.104533 0.039891 0.628318 
0.104818 0.0418467 0.625853 0.104863 0.0437733 0.623081 0.104589 0.0455602 0.620011 
0.103947 0.0471231 0.616614 0.102921 0.048411 0.612827 0.101526 0.0494086 0.608554 
0.0998106 0.0501345 0.603681 0.0978411 0.0506352 0.598082 0.0956959 0.0509762 0.591643 
0.093451 0.0512304 0.584269 0.0911687 0.0514665 0.575909 0.0888875 0.0517385 0.566556 
0.086616 0.0520773 0.556256 0.08433 0.0524852 0.545109 0.081975 0.052936 0.533256 
0.0794722 0.053377 0.520868 0.0767283 0.0537364 0.50813 0.0736468 0.0539327 0.495221 
0.0701397 0.0538856 0.482298 0.0661383 0.0535274 0.469478 0.061601 0.0528129 0.456831 
0.0565176 0.0517267 0.444373 0.0509091 0.0502878 0.432068 0.0448244 0.0485496 0.419838 
0.0383323 0.0465965 0.407573 0.0315121 0.0445372 0.395147 0.0244436 0.042495 0.382431 
0.017197 0.0405972 0.369312 0.00982589 0.0389644 0.3557 0.00236334 0.0377 0.341537 
-0.00517837 0.0368827 0.326799 -0.0128035 0.0365616 0.311488 -0.0205255 0.036754 0.29563 
-0.0283568 0.037447 0.279261 -0.0362978 0.0386015 0.262418 -0.0443268 0.0401583 0.245129 
-0.0523914 0.0420455 0.227402 -0.0604044 0.0441863 0.209227 -0.068243 0.0465054 0.190573 
-0.075754 0.0489348 0.171396 -0.0827625 0.0514174 0.151648 -0.0890847 0.0539084 0.131284 
-0.0945429 0.0563746 0.110281 -0.0989806 0.0587927 0.0886402 -0.102277 0.0611458 0.0664003 
-0.104358 0.0634197 0.0436361 -0.105204 0.0655999 0.0204575 -0.104848 0.0676689 -0.00299732 
-0.103379 0.0696046 -0.0265735 -0.100926 0.0713804 -0.0501129 -0.097649 0.0729663 -0.0734679 
-0.0937251 0.0743311 -0.0965151 -0.089329 0.0754449 -0.119164 -0.0846197 0.0762819 -0.141364 
-0.079727 0.0768225 -0.163103 -0.0747424 0.0770552 -0.184403 -0.0697147 0.0769757 -0.205311 
-0.0646499 0.0765872 -0.225887 -0.0595164 0.0758971 -0.246188 -0.0542533 0.0749149 -0.266259 
-0.0487821 0.0736485 -0.286119 -0.0430187 0.0721011 -0.305755 -0.0368866 0.0702692 -0.325126 
-0.0303273 0.068141 -0.344158 -0.023309 0.0656966 -0.362761 -0.0158323 0.0629102 -0.380834 
-0.00793162 0.0597531 -0.398283 0.000325976 0.0561978 -0.41503 0.00884494 0.0522238 -0.431022 
0.0175077 0.0478222 -0.446241 0.0261824 0.043001 -0.460701 0.0347307 0.0377879 -0.474443 
0.0430156 0.0322331 -0.48753 0.0509081 0.0264091 -0.50003 0.0582928 0.0204085 -0.512001 
0.0650712 0.0143404 -0.523483 0.071165 0.0083247 -0.534484 0.0765166 0.00248534 -0.544973 
0.0810903 -0.00305716 -0.554884 0.0848717 -0.00819308 -0.564118 0.0878674 -0.0128303 -0.572556 
0.0901043 -0.0168999 -0.580075 0.0916288 -0.0203599 -0.586565 0.0925053 -0.0231973 -0.591949 
0.0928151 -0.025428 -0.596194 0.0926539 -0.0270944 -0.599325 0.0921283 -0.0282615 -0.601426 
0.0913522 -0.0290112 -0.602635 0.0904416 -0.0294356 -0.603136 0.0895091 -0.0296295 -0.603139 
0.0886578 -0.0296837 -0.60286 0.0879755 -0.0296772 -0.602498 0.0875295 -0.0296717 -0.602211 
0.0873621 -0.0297069 -0.602104 
LINES 2 100
OFFSETS vtktypeint64
0 100 
CONNECTIVITY vtktypeint64
0 1 2 3 4 5 6 7 8 
9 10 11 12 13 14 15 16 17 
18 19 20 21 22 23 24 25 26 
27 28 29 30 31 32 33 34 35 
36 37 38 39 40 41 42 43 44 
45 46 47 48 49 50 51 52 53 
54 55 56 57 58 59 60 61 62 
63 64 65 66 67 68 69 70 71 
72 73 74 75 76 77 78 79 80 
81 82 83 84 85 86 87 88 89 
90 91 92 93 94 95 96 97 98 
99 
POINT_DATA 100
FIELD FieldData 3
_theta 1 100 double
0 0.031733259127 0.063466518254 0.095199777382 0.12693303651 0.15866629564 0.19039955476 0.22213281389 0.25386607302 
0.28559933214 0.31733259127 0.3490658504 0.38079910953 0.41253236865 0.44426562778 0.47599888691 0.50773214603 0.53946540516 
0.57119866429 0.60293192342 0.63466518254 0.66639844167 0.6981317008 0.72986495992 0.76159821905 0.79333147818 0.82506473731 
0.85679799643 0.88853125556 0.92026451469 0.95199777382 0.98373103294 1.0154642921 1.0471975512 1.0789308103 1.1106640695 
1.1423973286 1.1741305877 1.2058638468 1.237597106 1.2693303651 1.3010636242 1.3327968833 1.3645301425 1.3962634016 
1.4279966607 1.4597299198 1.491463179 1.5231964381 1.5549296972 1.5866629564 1.6183962155 1.6501294746 1.6818627337 
1.7135959929 1.745329252 1.7770625111 1.8087957702 1.8405290294 1.8722622885 1.9039955476 1.9357288068 1.9674620659 
1.999195325 2.0309285841 2.0626618433 2.0943951024 2.1261283615 2.1578616206 2.1895948798 2.2213281389 2.253061398 
2.2847946572 2.3165279163 2.3482611754 2.3799944345 2.4117276937 2.4434609528 2.4751942119 2.506927471 2.5386607302 
2.5703939893 2.6021272484 2.6338605076 2.6655937667 2.6973270258 2.7290602849 2.7607935441 2.7925268032 2.8242600623 
2.8559933214 2.8877265806 2.9194598397 2.9511930988 2.982926358 3.0146596171 3.0463928762 3.0781261353 3.1098593945 
3.1415926536 
_radius 1 100 double
1.0127219972e-15 0.014055412884 0.027970188005 0.041606748075 0.054840877535 0.067567675002 0.079706168646 0.091201973006 0.10202737797 
0.11217847693 0.12166942455 0.13052460095 0.13877014186 0.14642669787 0.1535051791 0.16000654449 0.16592555159 0.17125717321 
0.17600359108 0.18017963748 0.18381527179 0.18695480108 0.18965358138 0.19197348986 0.1939784298 0.19573063871 0.19728783294 
0.19870052854 0.20000859101 0.2012364686 0.20238757898 0.20343942091 0.20434149837 0.20501772265 0.20537379328 0.20530870756 
0.20472854954 0.20356031601 0.20176369884 0.19933923552 0.19633183692 0.19282926935 0.18895569015 0.18486086632 0.18070628651 
0.17664994635 0.17283194868 0.16936300683 0.16631746312 0.16373176209 0.16160860317 0.15992607163 0.15864972124 0.15774422717 
0.15718078874 0.15693773432 0.15699466844 0.15732371944 0.1578829224 0.15861518343 0.15945272134 0.16032416463 0.16116121006 
0.16190319623 0.16249955353 0.16291096737 0.16311016437 0.16308281462 0.16282851555 0.16236146117 0.16171029499 0.1609167193 
0.16003257349 0.15911525552 0.15822156069 0.1574002328 0.15668368727 0.15607946361 0.15556216863 0.15506714823 0.15448765737 
0.15367730254 0.15245864622 0.15063739121 0.14802021978 0.14443366359 0.13974136252 0.13385748896 0.12675473621 0.11846599474 
0.10907963124 0.098729089613 0.087578245893 0.075804449432 0.063581391751 0.051063881744 0.038376381196 0.025606866575 0.012807154252 
9.8664968049e-16 
_area 1 100 double
0 0.00046965720571 0.0018630198214 0.0041333023826 0.0072035902851 0.010970924322 0.015314840773 0.02010962993 0.025237151565 
0.030595913324 0.036103134982 0.041689288863 0.047287734757 0.052824159007 0.058210980547 0.063350731598 0.068149780125 0.072539967336 
0.076501770671 0.08007993065 0.083382445065 0.086557491213 0.089750900573 0.093058013338 0.096491597232 0.099982343489 0.10341003041 
0.10664708958 0.10959524617 0.11220581632 0.11448268076 0.11646798111 0.11820991535 0.11972070795 0.1209458771 0.12176182659 
0.12200040962 0.1214888379 0.12009324589 0.11775581227 0.11451715594 0.11051910189 0.10598732409 0.10119739674 0.096430907993 
0.091931140264 0.08787007078 0.084336585712 0.081346476683 0.078862509047 0.07680945086 0.075083601004 0.073576765742 0.072211135961 
0.070943311799 0.069760715035 0.068689166904 0.06777617902 0.067063445785 0.066558571783 0.066210463078 0.065916462063 0.065562826052 
0.065059507982 0.064353956609 0.063432336407 0.062314795963 0.06104692009 0.059688599473 0.058302146834 0.056944016583 0.055669445566 
0.054563413857 0.053649278239 0.053010936747 0.052670959898 0.052691888597 0.053099421969 0.053860965792 0.054874350372 0.055971170591 
0.056932155419 0.057512273036 0.057470166681 0.056596323188 0.054737903477 0.051820041429 0.047862053185 0.042984808559 0.037405021649 
0.031414302112 0.025344738037 0.019526862854 0.014248366583 0.0097219600594 0.0060687122329 0.0033200854901 0.001438628389 0.00035331431592 
2.1819043422e-17 
