# vtk DataFile Version 5.1
vtk output
ASCII
DATASET POLYDATA
POINTS 100 float
0.0806727 0.0622786 0.710421 0.0808942 0.0622218 0.710075 0.0814813 0.0622193 0.709214 
0.0823829 0.0622626 0.707827 0.0835203 0.0623385 0.705891 0.0847947 0.0624309 0.703373 
0.0860965 0.0625231 0.700236 0.0873157 0.0626 0.696436 0.088351 0.0626497 0.691928 
0.0891177 0.0626641 0.686669 0.0895527 0.0626394 0.680624 0.0896167 0.062574 0.673765 
0.0892935 0.0624671 0.666081 0.0885858 0.0623159 0.657577 0.0875098 0.0621131 0.648276 
0.0860884 0.0618442 0.638221 0.0843437 0.0614872 0.627474 0.0822919 0.0610117 0.616109 
0.0799383 0.0603809 0.604211 0.0772765 0.0595546 0.591866 0.0742885 0.0584937 0.57916 
0.0709485 0.0571649 0.566166 0.0672282 0.0555463 0.552943 0.0631024 0.0536324 0.539531 
0.0585559 0.0514381 0.525946 0.0535883 0.049 0.512185 0.0482176 0.0463772 0.498227 
0.0424808 0.0436488 0.484035 0.0364326 0.0409093 0.469564 0.0301401 0.0382624 0.45477 
0.0236772 0.0358143 0.439609 0.0171161 0.0336652 0.424052 0.0105199 0.031903 0.408079 
0.00393508 0.0305963 0.391685 -0.00261271 0.029791 0.374878 -0.00912124 0.0295079 0.357673 
-0.0156102 0.0297431 0.340088 -0.0221168 0.0304709 0.32214 -0.0286876 0.0316481 0.303836 
-0.0353695 0.0332192 0.285168 -0.0421983 0.0351231 0.266115 -0.0491881 0.0372981 0.246638 
-0.0563226 0.0396871 0.226684 -0.0635486 0.0422407 0.206194 -0.070773 0.0449181 0.18511 
-0.0778648 0.0476876 0.163384 -0.0846605 0.0505237 0.140984 -0.0909733 0.0534046 0.117909 
-0.0966057 0.0563085 0.0941884 -0.101363 0.0592101 0.0698882 -0.105069 0.0620781 0.0451074 
-0.107575 0.0648736 0.0199741 -0.108778 0.0675502 -0.00536354 -0.108617 0.0700554 -0.0307481 
-0.107088 0.0723337 -0.0560252 -0.104234 0.0743306 -0.0810556 -0.100144 0.075996 -0.105726 
-0.0949418 0.0772886 -0.129954 -0.0887771 0.0781788 -0.153695 -0.0818125 0.0786499 -0.176939 
-0.0742106 0.0786988 -0.199707 -0.0661237 0.0783335 -0.22204 -0.0576845 0.0775706 -0.243991 
-0.0489999 0.0764311 -0.265611 -0.0401488 0.0749356 -0.28694 -0.0311819 0.0731006 -0.307995 
-0.0221254 0.0709345 -0.328769 -0.012986 0.0684361 -0.349223 -0.00375802 0.0655945 -0.369295 
0.00556923 0.0623905 -0.388904 0.0150042 0.0588007 -0.407959 0.0245472 0.0548015 -0.426371 
0.0341853 0.0503754 -0.444063 0.0438902 0.0455161 -0.460983 0.0536173 0.0402331 -0.477105 
0.0633064 0.0345555 -0.492435 0.0728849 0.0285331 -0.507009 0.0822713 0.0222358 -0.520885 
0.0913794 0.0157508 -0.534134 0.100124 0.00917763 -0.546829 0.108423 0.00262248 -0.559032 
0.116205 -0.00380882 -0.570781 0.123408 -0.0100174 -0.582087 0.129987 -0.0159171 -0.592923 
0.135909 -0.0214392 -0.60323 0.14116 -0.0265346 -0.612921 0.14574 -0.0311748 -0.621892 
0.149666 -0.0353505 -0.630034 0.152966 -0.0390687 -0.637247 0.155682 -0.0423482 -0.643458 
0.157865 -0.0452158 -0.648631 0.159576 -0.0477007 -0.652771 0.160876 -0.0498315 -0.655935 
0.161834 -0.0516327 -0.65822 0.162513 -0.0531232 -0.659761 0.162975 -0.0543157 -0.660714 
0.163275 -0.0552177 -0.661241 0.16346 -0.0558328 -0.661492 0.163563 -0.0561621 -0.661587 
0.163606 -0.0562063 -0.661606 
LINES 2 100
OFFSETS vtktypeint64
0 100 
CONNECTIVITY vtktypeint64
0 1 2 3 4 5 6 7 8 
9 10 11 12 13 14 15 16 17 
18 19 20 21 22 23 24 25 26 
27 28 29 30 31 32 33 34 35 
36 37 38 39 40 41 42 43 44 
45 46 47 48 49 50 51 52 53 
54 55 56 57 58 59 60 61 62 
63 64 65 66 67 68 69 70 71 
72 73 74 75 76 77 78 79 80 
81 82 83 84 85 86 87 88 89 
90 91 92 93 94 95 96 97 98 
99 
POINT_DATA 100
FIELD FieldData 3
_theta 1 100 double
0 0.031733259127 0.063466518254 0.095199777382 0.12693303651 0.15866629564 0.19039955476 0.22213281389 0.25386607302 
0.28559933214 0.31733259127 0.3490658504 0.38079910953 0.41253236865 0.44426562778 0.47599888691 0.50773214603 0.53946540516 
0.57119866429 0.60293192342 0.63466518254 0.66639844167 0.6981317008 0.72986495992 0.76159821905 0.79333147818 0.82506473731 
0.85679799643 0.88853125556 0.92026451469 0.95199777382 0.98373103294 1.0154642921 1.0471975512 1.0789308103 1.1106640695 
1.1423973286 1.1741305877 1.2058638468 1.237597106 1.2693303651 1.3010636242 1.3327968833 1.3645301425 1.3962634016 
1.4279966607 1.4597299198 1.491463179 1.5231964381 1.5549296972 1.5866629564 1.6183962155 1.6501294746 1.6818627337 
1.7135959929 1.745329252 1.7770625111 1.8087957702 1.8405290294 1.8722622885 1.9039955476 1.9357288068 1.9674620659 
1.999195325 2.0309285841 2.0626618433 2.0943951024 2.1261283615 2.1578616206 2.1895948798 2.2213281389 2.253061398 
2.2847946572 2.3165279163 2.3482611754 2.3799944345 2.4117276937 2.4434609528 2.4751942119 2.506927471 2.5386607302 
2.5703939893 2.6021272484 2.6338605076 2.6655937667 2.6973270258 2.7290602849 2.7607935441 2.7925268032 2.8242600623 
2.8559933214 2.8877265806 2.9194598397 2.9511930988 2.982926358 3.0146596171 3.0463928762 3.0781261353 3.1098593945 
3.1415926536 
_radius 1 100 double
1.3383973406e-15 0.014510265001 0.028920154071 0.043140091271 0.057085848463 0.070680493999 0.08385594924 0.096553953779 0.10872624739 
0.1203338972 0.13134592668 0.14173767107 0.15148947607 0.1605863379 0.1690187698 0.1767846302 0.18389109992 0.19035576795 
0.19620606445 0.20147697861 0.20620777896 0.21043891909 0.21421022522 0.21756086337 0.22053074313 0.22316229884 0.22550130018 
0.22759562002 0.22949163527 0.23122884911 0.23283399167 0.23431598742 0.23566278728 0.23684046532 0.23779454025 0.23845335895 
0.23873346092 0.23854689736 0.23781033403 0.23645540283 0.23443929841 0.23175422442 0.22843414493 0.22455748162 0.22024491446 
0.21565219502 0.21095870416 0.20635318488 0.20201848453 0.19811714586 0.1947793167 0.19209388514 0.19010330895 0.18880250204 
0.1881421445 0.18803636006 0.1883736571 0.18902893893 0.18987420389 0.19078663257 0.19165437878 0.1923813269 0.19289176435 
0.19313488192 0.19308823641 0.19275921107 0.19218378495 0.19142214269 0.19055081824 0.18965157624 0.18879829696 0.18804425974 
0.1874125965 0.18689191436 0.18643749606 0.18597688324 0.18541777791 0.18465630246 0.18358439976 0.18209596625 0.18009179619 
0.17748349431 0.17419633848 0.17017086971 0.16536294083 0.1597421535 0.15328902831 0.14599173844 0.13784356286 0.12884215343 
0.11899117834 0.10830405401 0.09680865206 0.084551436856 0.071599648666 0.058040828606 0.043979885492 0.029534656732 0.014831222357 
9.9295195109e-16 
_area 1 100 double
0 0.00059016678314 0.0023408045317 0.0051929821967 0.0090512229818 0.013789128096 0.019258978332 0.025304748698 0.03177612712 
0.038539963372 0.045485988718 0.052525842214 0.059587493416 0.066609107675 0.073535726036 0.08031945922 0.086921421509 0.093312776626 
0.099472797542 0.10538301368 0.11101839792 0.11633964894 0.1212932745 0.12582403459 0.12989698803 0.13352026396 0.13675886891 
0.13973248828 0.14259456759 0.14549636261 0.14854672242 0.15178096607 0.15514718912 0.15851026594 0.16166948162 0.16438503217 
0.1664075278 0.16750616832 0.16749770992 0.1662757085 0.16382999242 0.16024947949 0.15570943698 0.1504469818 0.14472955366 
0.13882262811 0.13296399461 0.1273513947 0.12214687153 0.1174924051 0.11351803882 0.11031946804 0.10791595347 0.10623392756 
0.10512952042 0.10442495974 0.10392748269 0.10343569783 0.10275562885 0.10172918419 0.10026572681 0.098366191245 0.096127340577 
0.093717180639 0.091314418606 0.089007542956 0.08675407657 0.08448153316 0.08217033 0.07986279479 0.077648354344 0.075654941108 
0.074063813029 0.073024007391 0.07260288829 0.07255888479 0.072789122148 0.073201656853 0.073628718265 0.07386310283 0.073742879382 
0.073147682628 0.07197842944 0.070150583513 0.067598684583 0.06428637878 0.060216239132 0.05543523359 0.050034391704 0.044143984722 
0.037927027074 0.031573074257 0.025291749951 0.019303746653 0.013828063817 0.009066956872 0.0051921272269 0.0023357485756 0.00058802116718 
5.5832705428e-17 
