# vtk DataFile Version 5.1
vtk output
ASCII
DATASET POLYDATA
POINTS 100 float
0.0452645 0.0197592 -0.678761 0.0452866 0.019865 -0.678546 0.045364 0.0203254 -0.677937 
0.0454761 0.0211022 -0.676874 0.0455914 0.022137 -0.675265 0.045671 0.0233574 -0.672999 
0.045674 0.0246848 -0.669958 0.0455609 0.0260432 -0.666036 0.0452975 0.0273668 -0.66115 
0.0448568 0.028607 -0.65525 0.0442191 0.0297373 -0.648328 0.0433702 0.0307558 -0.640421 
0.0422989 0.0316843 -0.631601 0.0409926 0.0325659 -0.621971 0.0394335 0.0334597 -0.611654 
0.0375964 0.034434 -0.600772 0.0354466 0.035559 -0.589439 0.0329414 0.036899 -0.577742 
0.030033 0.0385057 -0.565738 0.0266744 0.040413 -0.553441 0.0228257 0.0426333 -0.540829 
0.018462 0.0451564 -0.527845 0.0135799 0.0479499 -0.514408 0.00820262 0.0509619 -0.500425 
0.00238257 0.0541249 -0.485803 -0.00380019 0.0573603 -0.470466 -0.0102425 0.0605843 -0.45436 
-0.0168263 0.0637124 -0.437469 -0.0234294 0.0666636 -0.419809 -0.029937 0.0693648 -0.401434 
-0.0362537 0.0717528 -0.382424 -0.0423126 0.0737761 -0.362882 -0.0480819 0.0753955 -0.342912 
-0.0535667 0.0765847 -0.322619 -0.0588055 0.0773295 -0.302085 -0.0638622 0.0776279 -0.281367 
-0.0688136 0.0774888 -0.260492 -0.073735 0.076932 -0.23945 -0.0786841 0.0759873 -0.218202 
-0.0836868 0.0746937 -0.196688 -0.0887254 0.0730987 -0.174831 -0.093733 0.0712565 -0.152558 
-0.0985925 0.0692262 -0.129806 -0.103143 0.0670693 -0.106535 -0.107192 0.064847 -0.0827363 
-0.110531 0.0626166 -0.0584393 -0.112956 0.0604286 -0.0337098 -0.11429 0.0583238 -0.00864866 
-0.114395 0.0563312 0.0166156 -0.113194 0.0544664 0.0419361 -0.110673 0.0527323 0.0671579 
-0.106887 0.0511201 0.0921299 -0.101953 0.0496119 0.116714 -0.0960361 0.0481847 0.140793 
-0.0893357 0.0468145 0.164276 -0.0820637 0.0454809 0.187101 -0.0744243 0.0441714 0.209232 
-0.0665956 0.0428843 0.230657 -0.0587152 0.0416311 0.251379 -0.0508715 0.0404364 0.271416 
-0.0431014 0.0393367 0.290788 -0.0353953 0.038377 0.309518 -0.0277068 0.0376066 0.327622 
-0.0199672 0.0370737 0.345111 -0.0121019 0.0368197 0.361993 -0.00404632 0.0368741 0.37827 
0.00424048 0.0372503 0.393946 0.0127663 0.0379427 0.40903 0.0215017 0.0389262 0.423539 
0.0303819 0.0401568 0.437498 0.0393136 0.0415745 0.450949 0.048186 0.0431082 0.463941 
0.0568843 0.0446804 0.476535 0.0653031 0.0462135 0.488796 0.0733588 0.0476351 0.50079 
0.0809973 0.0488831 0.512575 0.0881987 0.0499092 0.524199 0.0949751 0.0506807 0.535692 
0.101365 0.0511813 0.547065 0.107421 0.0514096 0.558304 0.113201 0.0513769 0.569375 
0.118753 0.0511043 0.580224 0.124105 0.0506187 0.590781 0.129254 0.0499496 0.600965 
0.134168 0.0491269 0.610691 0.138787 0.0481782 0.619878 0.143027 0.0471287 0.62845 
0.146795 0.0460006 0.636346 0.150004 0.044815 0.643521 0.152582 0.0435922 0.649947 
0.15449 0.0423544 0.655618 0.15573 0.0411262 0.660542 0.156349 0.0399356 0.664746 
0.156438 0.0388142 0.668264 0.156123 0.0377961 0.671142 0.155553 0.0369162 0.673425 
0.154887 0.0362078 0.67516 0.15427 0.0357005 0.676387 0.153824 0.0354171 0.677134 
0.153626 0.0353717 0.677423 
LINES 2 100
OFFSETS vtktypeint64
0 100 
CONNECTIVITY vtktypeint64
0 1 2 3 4 5 6 7 8 
9 10 11 12 13 14 15 16 17 
18 19 20 21 22 23 24 25 26 
27 28 29 30 31 32 33 34 35 
36 37 38 39 40 41 42 43 44 
45 46 47 48 49 50 51 52 53 
54 55 56 57 58 59 60 61 62 
63 64 65 66 67 68 69 70 71 
72 73 74 75 76 77 78 79 80 
81 82 83 84 85 86 87 88 89 
90 91 92 93 94 95 96 97 98 
99 
POINT_DATA 100
FIELD FieldData 3
_theta 1 100 double
0 0.031733259127 0.063466518254 0.095199777382 0.12693303651 0.15866629564 0.19039955476 0.22213281389 0.25386607302 
0.28559933214 0.31733259127 0.3490658504 0.38079910953 0.41253236865 0.44426562778 0.47599888691 0.50773214603 0.53946540516 
0.57119866429 0.60293192342 0.63466518254 0.66639844167 0.6981317008 0.72986495992 0.76159821905 0.79333147818 0.82506473731 
0.85679799643 0.88853125556 0.92026451469 0.95199777382 0.98373103294 1.0154642921 1.0471975512 1.0789308103 1.1106640695 
1.1423973286 1.1741305877 1.2058638468 1.237597106 1.2693303651 1.3010636242 1.3327968833 1.3645301425 1.3962634016 
1.4279966607 1.4597299198 1.491463179 1.5231964381 1.5549296972 1.5866629564 1.6183962155 1.6501294746 1.6818627337 
1.7135959929 1.745329252 1.7770625111 1.8087957702 1.8405290294 1.8722622885 1.9039955476 1.9357288068 1.9674620659 
1.999195325 2.0309285841 2.0626618433 2.0943951024 2.1261283615 2.1578616206 2.1895948798 2.2213281389 2.253061398 
2.2847946572 2.3165279163 2.3482611754 2.3799944345 2.4117276937 2.4434609528 2.4751942119 2.506927471 2.5386607302 
2.5703939893 2.6021272484 2.6338605076 2.6655937667 2.6973270258 2.7290602849 2.7607935441 2.7925268032 2.8242600623 
2.8559933214 2.8877265806 2.9194598397 2.9511930988 2.982926358 3.0146596171 3.0463928762 3.0781261353 3.1098593945 
3.1415926536 
_radius 1 100 double
4.4500982746e-16 0.015135662129 0.030143054231 0.044903571533 0.059317472307 0.073309103575 0.086828185452 0.09984718971 0.11235550013 
0.12435146642 0.13583364699 0.14679254438 0.15720404662 0.1670256222 0.17619604173 0.18463897904 0.19227029521 0.19900821701 
0.20478510182 0.20955913126 0.21332415622 0.21611605467 0.21801436145 0.21913855087 0.21963912959 0.21968452993 0.21944554777 
0.21907955587 0.21871672406 0.21844990515 0.21832890899 0.21835904823 0.21850347943 0.21868898235 0.21881506149 0.21876621821 
0.21842678741 0.21769702599 0.21650850011 0.21483652415 0.21270761249 0.21020063817 0.20744154776 0.20459280039 0.20183975016 
0.19937645022 0.19739251685 0.19606110168 0.19552676005 0.19589221941 0.19720492989 0.19944663142 0.20253014055 0.20630605776 
0.21057884787 0.21512877069 0.21973500121 0.22419599443 0.22834471928 0.23205788198 0.23525930433 0.23791823456 0.24004367597 
0.2416759092 0.24287630011 0.24371629202 0.24426629746 0.24458515939 0.24471097929 0.24465429524 0.24439463357 0.24388119566 
0.24303787138 0.24177204477 0.2399859928 0.23758923803 0.23451005165 0.23070438296 0.22616078752 0.22090044577 0.21497210502 
0.20844265498 0.20138488277 0.19386453011 0.18592891827 0.17759905766 0.16886641291 0.15969456788 0.15002517344 0.13978695317 
0.12890627834 0.11731789799 0.10497472497 0.09185596657 0.077973181594 0.063373966144 0.048142972655 0.032399985594 0.016294929676 
3.5471039653e-16 
_area 1 100 double
0 0.00054174841009 0.0021617356363 0.0048429082832 0.0085532707457 0.01324251979 0.018840080925 0.025255308702 0.03237951372 
0.040088651538 0.048245187909 0.056697904956 0.065279272796 0.073801435934 0.082053486268 0.089803735052 0.096810312057 0.10284131428 
0.10770247571 0.11126715659 0.11350165667 0.11447928024 0.11437930066 0.11347129974 0.11208966904 0.11060366696 0.10938047607 
0.10873012642 0.10884009875 0.10973867305 0.11130919469 0.11333736894 0.11556297053 0.1177207946 0.11956996229 0.12091544972 
0.12162416426 0.12163517854 0.12096207029 0.11968516444 0.11793297743 0.11585637966 0.11360685825 0.11133503118 0.10924177099 
0.10757364213 0.10625826426 0.10535117409 0.10505379302 0.1056038437 0.1072156222 0.11001915734 0.11401737714 0.11907936683 
0.12496515199 0.13136446136 0.13793674128 0.14434806999 0.15030349741 0.15557230495 0.16000281364 0.16352456568 0.16613862074 
0.16789980437 0.16889623959 0.16923045696 0.16900365269 0.16830244638 0.16718750336 0.16568517901 0.16378470468 0.16144277203 
0.15859511522 0.15517235893 0.15111621724 0.14639255152 0.14099961999 0.13497203243 0.12838140038 0.12133248661 0.113951826 
0.10636841856 0.098692012428 0.090997917115 0.083324585341 0.075683539357 0.068075910315 0.060508920509 0.053007845894 0.045621796503 
0.038423761689 0.031506642509 0.024977524443 0.018952245207 0.013551413676 0.0088976206811 0.0051121225304 0.0023086284371 0.00058293307189 
9.3391094213e-17 
