# vtk DataFile Version 5.1
vtk output
ASCII
DATASET POLYDATA
POINTS 100 float
0.0628559 0.00587166 -0.577466 0.0627507 0.00577804 -0.577363 0.0624841 0.00568544 -0.577063 
0.062048 0.00563522 -0.576535 0.0614305 0.00568991 -0.575734 0.0606169 0.00592572 -0.574595 
0.0595919 0.00642348 -0.573042 0.0583406 0.00725905 -0.570993 0.0568504 0.00849423 -0.568359 
0.055111 0.0101694 -0.565054 0.0531147 0.0122986 -0.560993 0.0508553 0.0148676 -0.556105 
0.048327 0.0178349 -0.550327 0.0455231 0.0211362 -0.543616 0.0424344 0.02469 -0.535944 
0.0390492 0.028406 -0.527301 0.0353529 0.0321926 -0.517698 0.0313297 0.035965 -0.507163 
0.0269645 0.0396509 -0.495739 0.0222458 0.0431948 -0.483484 0.0171688 0.0465599 -0.470462 
0.0117388 0.0497271 -0.456746 0.00597325 0.0526927 -0.442407 -9.67745e-05 0.055464 -0.427514 
-0.00642713 0.0580544 -0.412128 -0.0129624 0.0604786 -0.396301 -0.0196395 0.0627485 -0.380071 
-0.0263922 0.0648699 -0.363459 -0.0331564 0.0668415 -0.346476 -0.0398755 0.0686551 -0.329115 
-0.046504 0.0702967 -0.311358 -0.0530102 0.0717498 -0.29318 -0.0593763 0.0729976 -0.274547 
-0.0655963 0.0740262 -0.255429 -0.0716712 0.0748263 -0.235797 -0.0776027 0.0753941 -0.215631 
-0.0833856 0.0757311 -0.194925 -0.0890002 0.0758424 -0.173685 -0.0944055 0.0757342 -0.151937 
-0.0995355 0.0754112 -0.129723 -0.104297 0.0748738 -0.107104 -0.108573 0.0741164 -0.084155 
-0.112226 0.0731266 -0.060963 -0.115112 0.0718867 -0.0376252 -0.117088 0.0703758 -0.0142433 
-0.118025 0.0685744 0.00908025 -0.117822 0.066469 0.0322456 -0.116417 0.0640577 0.055159 
-0.113794 0.061355 0.0777351 -0.109984 0.0583953 0.0998984 -0.105068 0.0552348 0.121584 
-0.0991664 0.0519507 0.142737 -0.0924312 0.048638 0.163312 -0.085032 0.0454041 0.183274 
-0.0771409 0.0423611 0.202592 -0.0689183 0.0396177 0.221244 -0.0605003 0.0372698 0.239214 
-0.0519901 0.035393 0.256493 -0.0434532 0.034036 0.273078 -0.034919 0.0332165 0.288975 
-0.0263856 0.0329207 0.3042 -0.0178301 0.0331047 0.31878 -0.00922078 0.0336996 0.332756 
-0.000530059 0.0346187 0.34618 0.00825289 0.0357651 0.359117 0.0171128 0.0370417 0.371643 
0.026003 0.0383584 0.383841 0.0348447 0.0396395 0.395797 0.043532 0.0408283 0.407597 
0.0519414 0.0418888 0.419316 0.0599438 0.0428056 0.431021 0.0674198 0.0435807 0.442757 
0.0742734 0.0442288 0.454548 0.0804442 0.0447716 0.466395 0.0859157 0.0452315 0.478272 
0.0907181 0.0456267 0.490126 0.0949256 0.0459669 0.501885 0.0986485 0.0462512 0.513458 
0.10202 0.0464678 0.524745 0.105181 0.0465958 0.53564 0.108263 0.0466089 0.546039 
0.111372 0.0464793 0.555848 0.114578 0.0461826 0.564988 0.117903 0.0457021 0.573401 
0.121325 0.0450324 0.581049 0.124777 0.0441809 0.587918 0.128158 0.0431685 0.594016 
0.131351 0.0420276 0.599369 0.134233 0.0407999 0.60402 0.136697 0.0395323 0.608022 
0.138664 0.0382729 0.611435 0.140095 0.037067 0.61432 0.140998 0.035954 0.616736 
0.141424 0.0349648 0.618737 0.141464 0.0341217 0.620369 0.141236 0.0334379 0.621669 
0.140869 0.0329198 0.622667 0.140488 0.0325687 0.623385 0.140195 0.0323831 0.623837 
0.140057 0.0323612 0.62403 
LINES 2 100
OFFSETS vtktypeint64
0 100 
CONNECTIVITY vtktypeint64
0 1 2 3 4 5 6 7 8 
9 10 11 12 13 14 15 16 17 
18 19 20 21 22 23 24 25 26 
27 28 29 30 31 32 33 34 35 
36 37 38 39 40 41 42 43 44 
45 46 47 48 49 50 51 52 53 
54 55 56 57 58 59 60 61 62 
63 64 65 66 67 68 69 70 71 
72 73 74 75 76 77 78 79 80 
81 82 83 84 85 86 87 88 89 
90 91 92 93 94 95 96 97 98 
99 
POINT_DATA 100
FIELD FieldData 3
_theta 1 100 double
0 0.031733259127 0.063466518254 0.095199777382 0.12693303651 0.15866629564 0.19039955476 0.22213281389 0.25386607302 
0.28559933214 0.31733259127 0.3490658504 0.38079910953 0.41253236865 0.44426562778 0.47599888691 0.50773214603 0.53946540516 
0.57119866429 0.60293192342 0.63466518254 0.66639844167 0.6981317008 0.72986495992 0.76159821905 0.79333147818 0.82506473731 
0.85679799643 0.88853125556 0.92026451469 0.95199777382 0.98373103294 1.0154642921 1.0471975512 1.0789308103 1.1106640695 
1.1423973286 1.1741305877 1.2058638468 1.237597106 1.2693303651 1.3010636242 1.3327968833 1.3645301425 1.3962634016 
1.4279966607 1.4597299198 1.491463179 1.5231964381 1.5549296972 1.5866629564 1.6183962155 1.6501294746 1.6818627337 
1.7135959929 1.745329252 1.7770625111 1.8087957702 1.8405290294 1.8722622885 1.9039955476 1.9357288068 1.9674620659 
1.999195325 2.0309285841 2.0626618433 2.0943951024 2.1261283615 2.1578616206 2.1895948798 2.2213281389 2.253061398 
2.2847946572 2.3165279163 2.3482611754 2.3799944345 2.4117276937 2.4434609528 2.4751942119 2.506927471 2.5386607302 
2.5703939893 2.6021272484 2.6338605076 2.6655937667 2.6973270258 2.7290602849 2.7607935441 2.7925268032 2.8242600623 
2.8559933214 2.8877265806 2.9194598397 2.9511930988 2.982926358 3.0146596171 3.0463928762 3.0781261353 3.1098593945 
3.1415926536 
_radius 1 100 double
7.7729743789e-16 0.013774175568 0.027513198315 0.041170350625 0.05468544782 0.067980270641 0.080956388942 0.093495988254 0.10546594456 
0.11672491234 0.12713273041 0.136561123 0.14490452718 0.15208989619 0.15808446352 0.16290065609 0.1665975787 0.16927873963 
0.17108595435 0.17218967826 0.1727764086 0.17303424947 0.17313816818 0.17323672793 0.17344198238 0.17382367952 0.17440806543 
0.17518073056 0.17609245381 0.17706700701 0.178010211 0.17881986715 0.17939630253 0.17965314083 0.17952765425 0.17898979056 
0.17804878554 0.17675621185 0.17520442658 0.17351975448 0.17185053081 0.1703514408 0.16916719417 0.16841954166 0.16820073526 
0.16857359822 0.16957520191 0.17122004411 0.17350013467 0.17638210235 0.17980352072 0.1836711858 0.18786327629 0.19223598002 
0.19663390806 0.20090268004 0.20490154942 0.20851395948 0.2116544908 0.21427156838 0.21634620945 0.21788773174 0.21892759724 
0.21951249291 0.21969750394 0.2195399805 0.21909452292 0.21840938863 0.21752445805 0.21647061748 0.21527006706 0.21393679367 
0.21247642927 0.2108850196 0.20914677826 0.2072314819 0.20509252591 0.20266666149 0.19987609816 0.19663312473 0.19284682771 
0.18843098101 0.18331184771 0.17743457724 0.17076714694 0.16330133042 0.15505084048 0.1460474162 0.13633601979 0.12597032673 
0.11500930763 0.10351508602 0.091551719397 0.079184326392 0.066478098557 0.053497047759 0.040302667347 0.026952891849 0.013501758031 
1.0795812026e-15 
_area 1 100 double
0 0.00048121035566 0.0019183492882 0.0042913193517 0.0075638279029 0.011677731943 0.016544758111 0.022038210824 0.027988402291 
0.03418505195 0.040388195504 0.04634681965 0.051822130392 0.056610785891 0.060563309529 0.06359465228 0.065686904771 0.066886547664 
0.067298522261 0.067077388135 0.066414554974 0.065521383365 0.064609553963 0.06387065188 0.06345585423 0.063455282511 0.063881063559 
0.064671402574 0.065722543891 0.066923469369 0.068176136784 0.069402817227 0.070544258383 0.071553229308 0.072389738666 0.073022886583 
0.073438198965 0.073644764924 0.073683185694 0.073624497763 0.073557959351 0.073580822226 0.073797725475 0.074325286706 0.075284166461 
0.076768549643 0.078828448385 0.081493715037 0.084795640597 0.088750499865 0.093320382496 0.098395007267 0.10380887499 0.1093659727 
0.11485624816 0.12006958111 0.12481389939 0.12893700148 0.13234569926 0.13501322961 0.13696861558 0.13827174913 0.13898823423 
0.13917564383 0.13888151736 0.13814696715 0.1370098546 0.13550456776 0.13366019037 0.13150209238 0.12905957615 0.12637527775 
0.12350759972 0.12052090835 0.11746720485 0.11436930303 0.11121305507 0.10794855503 0.10449643428 0.10075726863 0.096624726243 
0.092002712851 0.086824119 0.081066755872 0.074762327832 0.067996162346 0.060897812513 0.053625081576 0.046345918102 0.03922300701 
0.032404134345 0.026018355295 0.020175662236 0.014967609466 0.010467672543 0.0067315098871 0.0037978818723 0.0016908183083 0.00042305040827 
6.3757642088e-17 
