# vtk DataFile Version 5.1
vtk output
ASCII
DATASET POLYDATA
POINTS 100 float
0.0984309 0.0100446 -0.634527 0.0983064 0.00988697 -0.634339 0.0979357 0.00954899 -0.63386 
0.0973193 0.00904954 -0.633045 0.0964596 0.00842027 -0.631818 0.095361 0.00770457 -0.630087 
0.094031 0.00695603 -0.627752 0.0924797 0.00623638 -0.624715 0.0907196 0.00561296 -0.620891 
0.0887633 0.00515576 -0.616218 0.0866211 0.00493412 -0.610661 0.0842979 0.00501337 -0.604215 
0.0817899 0.00545138 -0.596903 0.0790816 0.00629544 -0.588772 0.0761448 0.00757952 -0.579887 
0.0729384 0.00932222 -0.570319 0.0694107 0.0115254 -0.560138 0.0655042 0.0141737 -0.549402 
0.0611621 0.017235 -0.538152 0.0563359 0.0206617 -0.526402 0.050994 0.0243926 -0.514145 
0.0451287 0.0283553 -0.501349 0.0387629 0.0324696 -0.487963 0.0319521 0.03665 -0.473923 
0.024784 0.0408095 -0.459163 0.0173743 0.0448621 -0.443622 0.00985773 0.0487255 -0.42725 
0.00237718 0.0523243 -0.410018 -0.00492954 0.0555911 -0.39192 -0.011943 0.0584692 -0.372977 
-0.0185738 0.0609136 -0.353234 -0.0247716 0.0628927 -0.332755 -0.0305289 0.0643886 -0.311624 
-0.0358802 0.0653985 -0.289931 -0.0408953 0.0659343 -0.267771 -0.0456674 0.0660227 -0.245236 
-0.050298 0.0657043 -0.222409 -0.054879 0.0650316 -0.199363 -0.0594758 0.0640672 -0.176158 
-0.0641124 0.0628805 -0.152842 -0.0687606 0.0615439 -0.129452 -0.073336 0.0601289 -0.10602 
-0.0777005 0.058702 -0.0825729 -0.0816718 0.0573201 -0.0591382 -0.0850397 0.0560278 -0.0357473 
-0.0875858 0.0548547 -0.0124368 -0.0891069 0.0538144 0.0107502 -0.0894369 0.0529049 0.0337639 
-0.0884663 0.0521108 0.0565498 -0.0861559 0.0514067 0.0790497 -0.0825437 0.0507616 0.101205 
-0.0777434 0.0501444 0.122959 -0.0719346 0.0495295 0.144259 -0.0653466 0.0489008 0.165057 
-0.0582361 0.0482562 0.185316 -0.0508627 0.0476089 0.205003 -0.0434645 0.0469878 0.224096 
-0.0362368 0.0464346 0.242581 -0.0293155 0.0460003 0.260452 -0.0227689 0.0457386 0.277711 
-0.0165966 0.0457 0.294368 -0.0107369 0.0459239 0.310444 -0.00508084 0.0464332 0.325967 
0.000508726 0.0472288 0.340975 0.00617542 0.0482878 0.355515 0.0120481 0.0495628 0.369643 
0.0182223 0.0509853 0.383422 0.0247469 0.0524711 0.39692 0.0316174 0.0539279 0.410206 
0.0387758 0.0552636 0.423346 0.0461183 0.0563963 0.436399 0.0535073 0.0572619 0.449412 
0.0607883 0.057821 0.462415 0.0678075 0.0580628 0.475418 0.0744286 0.0580056 0.48841 
0.0805464 0.0576945 0.501358 0.086096 0.0571955 0.514207 0.0910554 0.0565871 0.526887 
0.0954434 0.0559507 0.539315 0.0993115 0.0553603 0.551402 0.102732 0.054873 0.563062 
0.105786 0.0545219 0.574213 0.108549 0.0543114 0.584786 0.111078 0.0542164 0.59473 
0.113408 0.0541855 0.604013 0.115547 0.0541476 0.612618 0.117478 0.0540207 0.62055 
0.119165 0.0537235 0.627824 0.120564 0.0531865 0.634466 0.121633 0.0523626 0.640505 
0.122343 0.0512352 0.645968 0.122689 0.0498233 0.650877 0.122693 0.048182 0.655247 
0.122407 0.0463991 0.659082 0.121908 0.0445879 0.662376 0.121291 0.0428764 0.665115 
0.120661 0.0413945 0.667283 0.120114 0.0402611 0.668859 0.11973 0.0395715 0.669827 
0.119565 0.0393873 0.670175 
LINES 2 100
OFFSETS vtktypeint64
0 100 
CONNECTIVITY vtktypeint64
0 1 2 3 4 5 6 7 8 
9 10 11 12 13 14 15 16 17 
18 19 20 21 22 23 24 25 26 
27 28 29 30 31 32 33 34 35 
36 37 38 39 40 41 42 43 44 
45 46 47 48 49 50 51 52 53 
54 55 56 57 58 59 60 61 62 
63 64 65 66 67 68 69 70 71 
72 73 74 75 76 77 78 79 80 
81 82 83 84 85 86 87 88 89 
90 91 92 93 94 95 96 97 98 
99 
POINT_DATA 100
FIELD FieldData 3
_theta 1 100 double
0 0.031733259127 0.063466518254 0.095199777382 0.12693303651 0.15866629564 0.19039955476 0.22213281389 0.25386607302 
0.28559933214 0.31733259127 0.3490658504 0.38079910953 0.41253236865 0.44426562778 0.47599888691 0.50773214603 0.53946540516 
0.57119866429 0.60293192342 0.63466518254 0.66639844167 0.6981317008 0.72986495992 0.76159821905 0.79333147818 0.82506473731 
0.85679799643 0.88853125556 0.92026451469 0.95199777382 0.98373103294 1.0154642921 1.0471975512 1.0789308103 1.1106640695 
1.1423973286 1.1741305877 1.2058638468 1.237597106 1.2693303651 1.3010636242 1.3327968833 1.3645301425 1.3962634016 
1.4279966607 1.4597299198 1.491463179 1.5231964381 1.5549296972 1.5866629564 1.6183962155 1.6501294746 1.6818627337 
1.7135959929 1.745329252 1.7770625111 1.8087957702 1.8405290294 1.8722622885 1.9039955476 1.9357288068 1.9674620659 
1.999195325 2.0309285841 2.0626618433 2.0943951024 2.1261283615 2.1578616206 2.1895948798 2.2213281389 2.253061398 
2.2847946572 2.3165279163 2.3482611754 2.3799944345 2.4117276937 2.4434609528 2.4751942119 2.506927471 2.5386607302 
2.5703939893 2.6021272484 2.6338605076 2.6655937667 2.6973270258 2.7290602849 2.7607935441 2.7925268032 2.8242600623 
2.8559933214 2.8877265806 2.9194598397 2.9511930988 2.982926358 3.0146596171 3.0463928762 3.0781261353 3.1098593945 
3.1415926536 
_radius 1 100 double
1.3916764352e-16 0.013102606375 0.02619975337 0.039284599562 0.052338449548 0.065324181779 0.078180485188 0.090818316378 0.10312091991 
0.11494813829 0.12614487071 0.13655277431 0.14602382611 0.15443417104 0.1616966762 0.16777071943 0.17266794694 0.17645306689 
0.17923923763 0.18117825436 0.1824464694 0.18322806587 0.1836977886 0.18400541235 0.18426407529 0.18454411069 0.18487304319 
0.18524099021 0.18560944125 0.18592115736 0.18610975878 0.18610855503 0.18585864885 0.18531640428 0.18446032926 0.18329731316 
0.18186781433 0.18024903857 0.17855466926 0.17692954421 0.17553796251 0.1745454776 0.1740966842 0.17429493881 0.17519109281 
0.17678452003 0.17903332279 0.18186713938 0.18519745518 0.18892395356 0.19293811169 0.19712610061 0.20137264303 0.20556646463 
0.20960678969 0.21340943232 0.21691083292 0.22006896563 0.2228610534 0.22527895465 0.22732354807 0.22899936299 0.23031028096 
0.23125666886 0.23183399853 0.23203287522 0.23184033773 0.23124221427 0.23022619578 0.22878515403 0.22692013908 0.22464248426 
0.22197453704 0.21894869233 0.2156045915 0.21198454609 0.20812747485 0.20406195194 0.19979934924 0.19532839812 0.19061257416 
0.18559133399 0.18018542256 0.1743054913 0.16786249959 0.16077806798 0.1529931367 0.14447379733 0.13521379498 0.12523377173 
0.11457775756 0.10330771909 0.091497170465 0.07922490766 0.066569786473 0.053607121892 0.04040685009 0.027033224051 0.013545617935 
1.4182561016e-15 
_area 1 100 double
0 0.00044530114054 0.0017848664014 0.0040266555698 0.0071743823294 0.011215092997 0.016105577352 0.021760914584 0.028048002067 
0.034785322223 0.04174832143 0.048678978609 0.055299111036 0.061328643702 0.066510216923 0.070638997846 0.07359285097 0.07535573563 
0.076027675287 0.075817237115 0.075015691929 0.073955071287 0.072955697267 0.072273339578 0.07206015361 0.072351164023 0.073077616067 
0.074098594926 0.075239818515 0.076330255093 0.07722945616 0.077842201123 0.078121465754 0.078063234362 0.077696704461 0.077073178868 
0.076262870453 0.075372600997 0.074574302958 0.074111767318 0.07426508052 0.075275095228 0.077258999843 0.080169581026 0.083823954637 
0.087978247828 0.092406227611 0.096949717613 0.10153261164 0.10614884128 0.1108369563 0.11564907125 0.12061929525 0.12573768124 
0.13093632728 0.13609188943 0.14104373185 0.1456210167 0.14966892396 0.15306602885 0.15573007539 0.15761549382 0.15870683926 
0.15901055243 0.15854782088 0.1573489885 0.1554486406 0.15288324723 0.14969425297 0.14593634304 0.14168623391 0.13704531928 
0.1321317188 0.1270632608 0.12193961872 0.11683326496 0.11179088222 0.10683646094 0.10196776276 0.09714848302 0.092305813966 
0.087340423702 0.08214772589 0.076643029908 0.070782236937 0.064572930554 0.058074720189 0.051390461937 0.044651476357 0.038000744043 
0.031578232526 0.025511330075 0.019910898742 0.014871247862 0.010471801387 0.0067789726312 0.0038475281196 0.0017211207894 0.00043197033273 
8.607720209e-17 
