# vtk DataFile Version 5.1
vtk output
ASCII
DATASET POLYDATA
POINTS 100 float
0.140104 0.0400517 0.681083 0.140083 0.0403101 0.680988 0.140144 0.0409091 0.68054 
0.140247 0.0418125 0.679711 0.14033 0.0429641 0.67846 0.140317 0.0442926 0.676729 
0.140121 0.0457178 0.674451 0.139657 0.0471569 0.671554 0.138848 0.0485309 0.667963 
0.137634 0.0497698 0.66361 0.135971 0.0508166 0.658436 0.133841 0.0516298 0.652399 
0.131241 0.0521836 0.645477 0.128188 0.0524673 0.637673 0.124707 0.0524828 0.629016 
0.12083 0.0522413 0.619562 0.116586 0.0517604 0.609388 0.111997 0.0510607 0.59859 
0.107076 0.0501632 0.587277 0.101824 0.0490884 0.575558 0.0962317 0.0478553 0.563539 
0.0902861 0.0464826 0.551312 0.0839724 0.0449894 0.538946 0.0772827 0.0433973 0.526484 
0.0702218 0.0417318 0.513939 0.062812 0.0400237 0.501294 0.0550966 0.0383095 0.488505 
0.0471395 0.0366307 0.475505 0.039023 0.0350329 0.462217 0.0308413 0.0335631 0.448556 
0.0226932 0.0322672 0.434441 0.0146719 0.0311876 0.419806 0.00685547 0.0303598 0.404598 
-0.000701626 0.0298115 0.388791 -0.00797544 0.0295608 0.372378 -0.0149755 0.0296167 0.355372 
-0.0217438 0.0299804 0.337804 -0.0283505 0.0306466 0.319711 -0.0348843 0.0316063 0.301136 
-0.0414415 0.0328493 0.282112 -0.0481115 0.0343658 0.262667 -0.0549636 0.0361483 0.242811 
-0.0620336 0.0381912 0.22254 -0.0693145 0.0404905 0.20184 -0.0767499 0.0430418 0.180687 
-0.0842336 0.0458375 0.159055 -0.0916135 0.0488643 0.136926 -0.0987012 0.0520997 0.114297 
-0.105285 0.0555107 0.0911824 -0.111148 0.0590524 0.0676248 -0.116082 0.0626682 0.0436915 
-0.11991 0.0662925 0.0194745 -0.122498 0.069853 -0.00491463 -0.123765 0.0732757 -0.0293525 
-0.123695 0.0764898 -0.0537132 -0.122331 0.0794322 -0.0778782 -0.119776 0.0820517 -0.101746 
-0.116178 0.0843118 -0.125239 -0.111722 0.0861918 -0.148309 -0.106607 0.0876857 -0.170938 
-0.101033 0.0888002 -0.193135 -0.0951851 0.0895498 -0.214934 -0.0892146 0.0899523 -0.236383 
-0.0832334 0.090023 -0.257532 -0.0773067 0.089771 -0.278431 -0.0714529 0.0891947 -0.299114 
-0.0656476 0.0882812 -0.319596 -0.0598332 0.0870068 -0.339869 -0.0539305 0.0853397 -0.359901 
-0.0478526 0.0832454 -0.37964 -0.041519 0.0806926 -0.399022 -0.0348683 0.0776604 -0.417972 
-0.0278692 0.0741445 -0.436423 -0.0205268 0.0701629 -0.454314 -0.0128857 0.0657585 -0.471603 
-0.00502852 0.0610001 -0.48827 0.00292933 0.0559801 -0.504314 0.0108484 0.0508089 -0.519756 
0.0185757 0.0456082 -0.534628 0.0259571 0.0405016 -0.54897 0.0328483 0.0356055 -0.562819 
0.0391262 0.0310199 -0.576199 0.0446963 0.0268215 -0.589119 0.0494988 0.0230588 -0.601563 
0.0535104 0.0197498 -0.613493 0.0567433 0.0168836 -0.624849 0.0592418 0.0144245 -0.635555 
0.061076 0.0123186 -0.645527 0.0623346 0.0105018 -0.654681 0.0631166 0.00890861 -0.662946 
0.0635237 0.00747989 -0.67027 0.0636533 0.00616976 -0.676628 0.0635937 0.00494961 -0.682021 
0.06342 0.00380971 -0.686481 0.0631927 0.00275802 -0.690063 0.0629578 0.0018165 -0.69284 
0.0627482 0.00101575 -0.694891 0.0625859 0.00038861 -0.696291 0.0624844 -3.60862e-05 -0.697103 
0.062451 -0.000238762 -0.697367 
LINES 2 100
OFFSETS vtktypeint64
0 100 
CONNECTIVITY vtktypeint64
0 1 2 3 4 5 6 7 8 
9 10 11 12 13 14 15 16 17 
18 19 20 21 22 23 24 25 26 
27 28 29 30 31 32 33 34 35 
36 37 38 39 40 41 42 43 44 
45 46 47 48 49 50 51 52 53 
54 55 56 57 58 59 60 61 62 
63 64 65 66 67 68 69 70 71 
72 73 74 75 76 77 78 79 80 
81 82 83 84 85 86 87 88 89 
90 91 92 93 94 95 96 97 98 
99 
POINT_DATA 100
FIELD FieldData 3
_theta 1 100 double
0 0.031733259127 0.063466518254 0.095199777382 0.12693303651 0.15866629564 0.19039955476 0.22213281389 0.25386607302 
0.28559933214 0.31733259127 0.3490658504 0.38079910953 0.41253236865 0.44426562778 0.47599888691 0.50773214603 0.53946540516 
0.57119866429 0.60293192342 0.63466518254 0.66639844167 0.6981317008 0.72986495992 0.76159821905 0.79333147818 0.82506473731 
0.85679799643 0.88853125556 0.92026451469 0.95199777382 0.98373103294 1.0154642921 1.0471975512 1.0789308103 1.1106640695 
1.1423973286 1.1741305877 1.2058638468 1.237597106 1.2693303651 1.3010636242 1.3327968833 1.3645301425 1.3962634016 
1.4279966607 1.4597299198 1.491463179 1.5231964381 1.5549296972 1.5866629564 1.6183962155 1.6501294746 1.6818627337 
1.7135959929 1.745329252 1.7770625111 1.8087957702 1.8405290294 1.8722622885 1.9039955476 1.9357288068 1.9674620659 
1.999195325 2.0309285841 2.0626618433 2.0943951024 2.1261283615 2.1578616206 2.1895948798 2.2213281389 2.253061398 
2.2847946572 2.3165279163 2.3482611754 2.3799944345 2.4117276937 2.4434609528 2.4751942119 2.506927471 2.5386607302 
2.5703939893 2.6021272484 2.6338605076 2.6655937667 2.6973270258 2.7290602849 2.7607935441 2.7925268032 2.8242600623 
2.8559933214 2.8877265806 2.9194598397 2.9511930988 2.982926358 3.0146596171 3.0463928762 3.0781261353 3.1098593945 
3.1415926536 
_radius 1 100 double
4.4022346672e-16 0.015927270986 0.031624681154 0.046877528992 0.061507860429 0.075386480878 0.088438441518 0.10064180839 0.11202068294 
0.12263428256 0.13256420253 0.14190173529 0.15073649269 0.15914687383 0.16719245364 0.17490830145 0.18230150639 0.18935052668 
0.19600807285 0.2022078892 0.20787505687 0.21293855567 0.21734411268 0.22106507922 0.22410930462 0.22652065307 0.22837477252 
0.22976975879 0.2308132466 0.23160801768 0.2322383457 0.2327590266 0.23318851639 0.23350697981 0.23365943213 0.23356355563 
0.23312123399 0.23223244906 0.23080997594 0.22879327703 0.2261600975 0.22293448728 0.21919030431 0.21504965213 0.21067611813 
0.2062630923 0.20201790839 0.19814313957 0.19481710277 0.19217628883 0.19030263109 0.18921783518 0.18888538241 0.18921890715 
0.19009440434 0.19136371503 0.19286762824 0.19444784791 0.1959574468 0.19726944738 0.19828328861 0.19892922791 0.19917084079 
0.19900551082 0.1984624422 0.19759776523 0.19648686891 0.1952148605 0.19386658758 0.19251772618 0.19122805164 0.19003735314 
0.18896379556 0.1880040976 0.18713475726 0.18631363658 0.18548140808 0.18456264106 0.18346670152 0.18208910098 0.18031421503 
0.17802010066 0.17508540689 0.17139744912 0.16685995619 0.16139910315 0.15496706209 0.14754303617 0.13913226225 0.12976366113 
0.11948674174 0.1083681589 0.096488120657 0.083936733371 0.070810388718 0.05720839746 0.043230171754 0.028973266598 0.014532478264 
2.2392656365e-16 
_area 1 100 double
0 0.00061866626957 0.0024504529879 0.0054256328967 0.0094370020468 0.014351303656 0.020021867776 0.026300430817 0.033046569465 
0.040133846075 0.047452546635 0.05490963634 0.062426993916 0.069938941873 0.077389679557 0.084730778185 0.091918663931 0.098911974218 
0.10566869848 0.11214323778 0.11828423851 0.12403499325 0.12933815306 0.13414459269 0.13842357029 0.14217010228 0.14540686785 
0.14818087225 0.15055712238 0.15261090452 0.15441784401 0.15603999925 0.15750860933 0.15880805119 0.15986763603 0.16056602864 
0.16074838059 0.1602518814 0.1589336468 0.156695744 0.15350415462 0.14939972352 0.14449948219 0.13898783088 0.13309942366 
0.1270976762 0.1212531062 0.11582381666 0.111036762 0.10706494391 0.10399922491 0.10183032178 0.1004613988 0.099739048485 
0.099476920707 0.099475180512 0.099545876502 0.099492907782 0.099117946629 0.098318304007 0.097094560613 0.095520639698 0.093709028658 
0.091776726364 0.089818351253 0.087856291989 0.085888251414 0.083937280449 0.082054697579 0.08031664032 0.078811503723 0.077620579845 
0.076811926822 0.076437499093 0.076480609342 0.076832821969 0.077351383079 0.077903389059 0.078370258398 0.078630695155 0.0785271015 
0.077863857827 0.076457449216 0.074180531337 0.070977529274 0.06686468021 0.061921831149 0.056279299388 0.050103259314 0.04358263306 
0.036918751961 0.030317161938 0.023980015522 0.018098012013 0.012842288159 0.0083578198311 0.0047598178748 0.0021334466845 0.00053598815369 
2.7157942273e-20 
