# vtk DataFile Version 5.1
vtk output
ASCII
DATASET POLYDATA
POINTS 100 float
-0.028398 0.0135393 -0.638518 -0.0284029 0.0136651 -0.638221 -0.0284513 0.0142396 -0.637335 
-0.0285588 0.0152133 -0.635869 -0.028748 0.0165103 -0.63383 -0.0290466 0.0180372 -0.631225 
-0.0294843 0.0196951 -0.628054 -0.0300898 0.0213916 -0.624306 -0.030888 0.0230514 -0.619957 
-0.0318989 0.0246256 -0.614966 -0.0331365 0.026096 -0.609279 -0.034609 0.027477 -0.602831 
-0.0363196 0.0288111 -0.595552 -0.0382683 0.0301629 -0.587373 -0.0404534 0.0316083 -0.578235 
-0.0428726 0.0332236 -0.568097 -0.0455238 0.0350731 -0.556938 -0.0484049 0.0371998 -0.544768 
-0.0515126 0.0396169 -0.531622 -0.0548408 0.0423046 -0.517561 -0.0583776 0.04521 -0.502668 
-0.0621037 0.0482511 -0.487041 -0.06599 0.0513247 -0.470781 -0.0699971 0.0543167 -0.453988 
-0.0740755 0.0571127 -0.436749 -0.0781677 0.05961 -0.419132 -0.0822118 0.0617264 -0.401186 
-0.0861461 0.0634074 -0.382933 -0.0899142 0.0646295 -0.364377 -0.0934701 0.0654 -0.345505 
-0.0967827 0.0657531 -0.326292 -0.0998383 0.0657433 -0.306712 -0.102641 0.0654368 -0.286742 
-0.10521 0.0649019 -0.26637 -0.107576 0.0642006 -0.245597 -0.109775 0.063381 -0.22444 
-0.111839 0.062473 -0.20293 -0.113789 0.061486 -0.181109 -0.115626 0.0604109 -0.159025 
-0.117327 0.0592236 -0.136728 -0.118843 0.0578919 -0.114263 -0.120096 0.0563825 -0.09167 
-0.120985 0.0546688 -0.0689757 -0.121395 0.0527374 -0.0462004 -0.121207 0.0505931 -0.0233579 
-0.120307 0.0482614 -0.000461561 -0.118602 0.0457883 0.02247 -0.116026 0.0432377 0.0454061 
-0.112553 0.0406863 0.0682988 -0.108198 0.0382173 0.0910793 -0.103019 0.035913 0.113657 
-0.0971109 0.0338486 0.135924 -0.0905991 0.0320853 0.157756 -0.0836252 0.0306668 0.179029 
-0.0763355 0.0296168 0.199622 -0.0688669 0.0289387 0.219434 -0.0613343 0.0286178 0.238391 
-0.0538225 0.0286246 0.256458 -0.0463801 0.0289192 0.273642 -0.0390201 0.0294561 0.289992 
-0.0317234 0.0301887 0.3056 -0.0244477 0.0310734 0.320589 -0.0171382 0.032072 0.335105 
-0.00974069 0.0331529 0.349304 -0.00221359 0.0342915 0.363334 0.00546181 0.0354694 0.377327 
0.0132743 0.0366728 0.391386 0.0211803 0.0378908 0.405577 0.0291054 0.0391138 0.419926 
0.0369515 0.0403327 0.434418 0.0446059 0.0415381 0.449009 0.0519537 0.042721 0.463625 
0.0588904 0.0438735 0.47818 0.0653329 0.04499 0.492583 0.0712284 0.0460683 0.50675 
0.0765586 0.0471109 0.520608 0.0813404 0.0481254 0.534104 0.0856207 0.0491234 0.547206 
0.0894685 0.0501204 0.559898 0.0929635 0.0511331 0.572174 0.0961839 0.0521772 0.584038 
0.0991946 0.053265 0.595486 0.102037 0.0544033 0.606508 0.104725 0.0555913 0.61708 
0.107242 0.05682 0.62716 0.109542 0.0580723 0.636691 0.111562 0.0593248 0.645604 
0.113231 0.0605494 0.653828 0.114482 0.0617167 0.661292 0.115264 0.0627989 0.667941 
0.115556 0.0637729 0.673739 0.115373 0.0646227 0.678678 0.114769 0.0653409 0.682777 
0.113834 0.0659289 0.686086 0.112691 0.066396 0.688676 0.111478 0.0667575 0.690636 
0.110341 0.0670321 0.692059 0.109411 0.0672386 0.693032 0.108797 0.0673928 0.693627 
0.108567 0.0675051 0.693891 
LINES 2 100
OFFSETS vtktypeint64
0 100 
CONNECTIVITY vtktypeint64
0 1 2 3 4 5 6 7 8 
9 10 11 12 13 14 15 16 17 
18 19 20 21 22 23 24 25 26 
27 28 29 30 31 32 33 34 35 
36 37 38 39 40 41 42 43 44 
45 46 47 48 49 50 51 52 53 
54 55 56 57 58 59 60 61 62 
63 64 65 66 67 68 69 70 71 
72 73 74 75 76 77 78 79 80 
81 82 83 84 85 86 87 88 89 
90 91 92 93 94 95 96 97 98 
99 
POINT_DATA 100
FIELD FieldData 3
_theta 1 100 double
0 0.031733259127 0.063466518254 0.095199777382 0.12693303651 0.15866629564 0.19039955476 0.22213281389 0.25386607302 
0.28559933214 0.31733259127 0.3490658504 0.38079910953 0.41253236865 0.44426562778 0.47599888691 0.50773214603 0.53946540516 
0.57119866429 0.60293192342 0.63466518254 0.66639844167 0.6981317008 0.72986495992 0.76159821905 0.79333147818 0.82506473731 
0.85679799643 0.88853125556 0.92026451469 0.95199777382 0.98373103294 1.0154642921 1.0471975512 1.0789308103 1.1106640695 
1.1423973286 1.1741305877 1.2058638468 1.237597106 1.2693303651 1.3010636242 1.3327968833 1.3645301425 1.3962634016 
1.4279966607 1.4597299198 1.491463179 1.5231964381 1.5549296972 1.5866629564 1.6183962155 1.6501294746 1.6818627337 
1.7135959929 1.745329252 1.7770625111 1.8087957702 1.8405290294 1.8722622885 1.9039955476 1.9357288068 1.9674620659 
1.999195325 2.0309285841 2.0626618433 2.0943951024 2.1261283615 2.1578616206 2.1895948798 2.2213281389 2.253061398 
2.2847946572 2.3165279163 2.3482611754 2.3799944345 2.4117276937 2.4434609528 2.4751942119 2.506927471 2.5386607302 
2.5703939893 2.6021272484 2.6338605076 2.6655937667 2.6973270258 2.7290602849 2.7607935441 2.7925268032 2.8242600623 
2.8559933214 2.8877265806 2.9194598397 2.9511930988 2.982926358 3.0146596171 3.0463928762 3.0781261353 3.1098593945 
3.1415926536 
_radius 1 100 double
1.1108841911e-15 0.013525789541 0.026992119287 0.040331235448 0.053466707665 0.066311008346 0.078765076371 0.090720234759 0.10206253598 
0.11267924438 0.12246679291 0.1313392502 0.13923617563 0.14612876188 0.15202336609 0.15696188164 0.16101884996 0.16429568537 
0.16691279226 0.16900059519 0.17069051089 0.17210667543 0.17335890752 0.17453711147 0.17570724197 0.17690906499 0.17815607356 
0.17943782928 0.18072464038 0.18197398734 0.18313764897 0.18416825573 0.18502421794 0.1856726567 0.18609075634 0.18626638767 
0.18619872491 0.18589907701 0.18539164165 0.18471364063 0.18391438369 0.18305316686 0.18219642718 0.1814150679 0.1807829957 
0.18037729217 0.18027911766 0.18057322395 0.18134391165 0.18266673824 0.18459742841 0.18716089963 0.19034321956 0.19408789634 
0.19829631655 0.20283148437 0.20752462633 0.21218491464 0.21661262036 0.22061517809 0.22402440636 0.22671222747 0.22860213798 
0.22967440891 0.22996422505 0.22955329589 0.22855654302 0.2271060883 0.22533488422 0.22336201345 0.22128108715 0.21915247997 
0.21699955853 0.21480872348 0.21253296534 0.21009853937 0.20741411569 0.20438136994 0.20090564753 0.1969052691 0.19231829967 
0.18710608734 0.1812534428 0.17476584861 0.16766446729 0.15997991055 0.15174573785 0.14299251347 0.1337430497 0.12400929643 
0.11379127518 0.10307848616 0.091854187616 0.08010261975 0.067818485039 0.055017006914 0.04174220042 0.028071079019 0.014112418881 
6.7049905699e-16 
_area 1 100 double
0 0.00051376905215 0.0020498157903 0.0045904289398 0.0080999686307 0.012517014982 0.017746434586 0.023654287518 0.03006787554 
0.036781463586 0.043566457384 0.050184487499 0.056402902356 0.062012635977 0.066846908921 0.070797134119 0.073821964903 0.075947132008 
0.077256535424 0.077877666092 0.077965710355 0.077689874753 0.077222825754 0.076731618378 0.076368302969 0.076260040983 0.076499036972 
0.077130525072 0.078137446866 0.07943311975 0.080880605346 0.082329993145 0.083647006917 0.084726435243 0.085500391113 0.085951789555 
0.086142141574 0.086268876389 0.086632773973 0.087275798857 0.088156632974 0.089268912986 0.090558264692 0.091917216533 0.093229217583 
0.094423711318 0.09551605509 0.096619782685 0.097929097251 0.099674333801 0.10205934191 0.10520443566 0.10912331865 0.11373634878 
0.11889951174 0.12443157671 0.13013099671 0.13578673716 0.14119154923 0.14614984843 0.15047265267 0.15393945018 0.15632083314 
0.1574982049 0.15755567311 0.15660723759 0.15479417877 0.15232265273 0.14940361567 0.14622782051 0.14294744978 0.1396671002 
0.13644208636 0.13327997492 0.13014248222 0.12694863685 0.12358412174 0.11992005967 0.1158367188 0.11124333475 0.10608899583 
0.10036502412 0.094101647517 0.087361715426 0.080233479745 0.072823649176 0.06525108994 0.05764084057 0.050117860171 0.042800396025 
0.035793944264 0.02918789493 0.023057108562 0.017469083019 0.012494419523 0.0082157231417 0.0047297415279 0.0021399745326 0.00054105858199 
5.0414980781e-17 
