# vtk DataFile Version 5.1
vtk output
ASCII
DATASET POLYDATA
POINTS 100 float
0.149543 0.0183218 0.675795 0.149525 0.018604 0.67575 0.149545 0.0192824 0.675435 
0.149567 0.0203071 0.674801 0.149533 0.0216027 0.673772 0.149373 0.0230773 0.672254 
0.149013 0.0246342 0.670141 0.148385 0.0261832 0.66733 0.147435 0.027651 0.663727 
0.146128 0.0289885 0.659259 0.144451 0.0301747 0.65388 0.142408 0.0312161 0.647575 
0.140021 0.0321418 0.640363 0.13732 0.0329959 0.632292 0.134334 0.0338266 0.623441 
0.131085 0.0346759 0.613905 0.127579 0.0355695 0.603793 0.123805 0.0365093 0.593215 
0.119733 0.0374703 0.582277 0.115315 0.0384008 0.571069 0.110497 0.0392279 0.559665 
0.10522 0.0398661 0.548115 0.0994395 0.0402294 0.536447 0.0931271 0.0402435 0.524668 
0.0862822 0.0398581 0.512765 0.0789354 0.0390566 0.500717 0.0711487 0.0378619 0.488494 
0.063011 0.0363377 0.476064 0.05463 0.034585 0.463401 0.0461211 0.0327335 0.450482 
0.0375937 0.0309299 0.437296 0.0291391 0.0293235 0.423835 0.0208201 0.0280517 0.410097 
0.0126632 0.0272267 0.396079 0.00465764 0.0269256 0.381774 -0.00324169 0.0271841 0.367165 
-0.0111055 0.0279959 0.35222 -0.019017 0.0293171 0.336895 -0.0270565 0.0310738 0.321125 
-0.0352848 0.033175 0.304834 -0.0437288 0.0355245 0.287934 -0.0523696 0.038035 0.270333 
-0.0611373 0.0406383 0.251946 -0.0699103 0.0432932 0.232697 -0.0785222 0.0459887 0.212536 
-0.0867745 0.0487422 0.191439 -0.0944527 0.0515931 0.169417 -0.101346 0.0545937 0.146519 
-0.107267 0.0577967 0.122833 -0.112066 0.0612431 0.0984782 -0.11565 0.0649506 0.073603 
-0.117982 0.0689052 0.0483745 -0.119088 0.0730567 0.0229688 -0.119044 0.0773189 -0.00244008 
-0.117971 0.0815744 -0.0276907 -0.116015 0.085683 -0.0526431 -0.113328 0.0894946 -0.0771852 
-0.110056 0.0928618 -0.101238 -0.106316 0.095654 -0.124753 -0.102194 0.0977686 -0.147716 
-0.0977353 0.0991394 -0.170135 -0.0929458 0.0997414 -0.192037 -0.0878018 0.0995904 -0.213462 
-0.0822599 0.0987384 -0.234449 -0.0762715 0.0972655 -0.25503 -0.0697982 0.095269 -0.275227 
-0.0628254 0.0928518 -0.295044 -0.0553721 0.0901106 -0.314465 -0.0474966 0.0871262 -0.333459 
-0.0392963 0.083957 -0.351979 -0.0309026 0.0806353 -0.369966 -0.0224706 0.0771681 -0.387361 
-0.0141657 0.0735409 -0.404105 -0.00614975 0.0697246 -0.420147 0.00143372 0.0656841 -0.435449 
0.00847036 0.0613868 -0.44999 0.0148828 0.0568116 -0.463766 0.0206337 0.0519548 -0.476786 
0.0257232 0.0468347 -0.489078 0.0301831 0.0414921 -0.500673 0.0340666 0.0359893 -0.511611 
0.0374375 0.030405 -0.521931 0.0403585 0.0248288 -0.531665 0.042882 0.0193541 -0.540839 
0.0450436 0.0140704 -0.549467 0.0468593 0.00905765 -0.557556 0.0483278 0.00438099 -0.565098 
0.0494356 8.78781e-05 -0.572083 0.0501652 -0.00379283 -0.578495 0.0505046 -0.00724993 -0.584318 
0.0504567 -0.0102873 -0.589539 0.0500463 -0.0129206 -0.594153 0.0493243 -0.0151729 -0.59816 
0.048368 -0.0170713 -0.601569 0.0472765 -0.018643 -0.604399 0.0461631 -0.0199132 -0.606669 
0.0451445 -0.0209029 -0.608406 0.0443285 -0.0216285 -0.609632 0.0438026 -0.022101 -0.610365 
0.0436236 -0.0223263 -0.610617 
LINES 2 100
OFFSETS vtktypeint64
0 100 
CONNECTIVITY vtktypeint64
0 1 2 3 4 5 6 7 8 
9 10 11 12 13 14 15 16 17 
18 19 20 21 22 23 24 25 26 
27 28 29 30 31 32 33 34 35 
36 37 38 39 40 41 42 43 44 
45 46 47 48 49 50 51 52 53 
54 55 56 57 58 59 60 61 62 
63 64 65 66 67 68 69 70 71 
72 73 74 75 76 77 78 79 80 
81 82 83 84 85 86 87 88 89 
90 91 92 93 94 95 96 97 98 
99 
POINT_DATA 100
FIELD FieldData 3
_theta 1 100 double
0 0.031733259127 0.063466518254 0.095199777382 0.12693303651 0.15866629564 0.19039955476 0.22213281389 0.25386607302 
0.28559933214 0.31733259127 0.3490658504 0.38079910953 0.41253236865 0.44426562778 0.47599888691 0.50773214603 0.53946540516 
0.57119866429 0.60293192342 0.63466518254 0.66639844167 0.6981317008 0.72986495992 0.76159821905 0.79333147818 0.82506473731 
0.85679799643 0.88853125556 0.92026451469 0.95199777382 0.98373103294 1.0154642921 1.0471975512 1.0789308103 1.1106640695 
1.1423973286 1.1741305877 1.2058638468 1.237597106 1.2693303651 1.3010636242 1.3327968833 1.3645301425 1.3962634016 
1.4279966607 1.4597299198 1.491463179 1.5231964381 1.5549296972 1.5866629564 1.6183962155 1.6501294746 1.6818627337 
1.7135959929 1.745329252 1.7770625111 1.8087957702 1.8405290294 1.8722622885 1.9039955476 1.9357288068 1.9674620659 
1.999195325 2.0309285841 2.0626618433 2.0943951024 2.1261283615 2.1578616206 2.1895948798 2.2213281389 2.253061398 
2.2847946572 2.3165279163 2.3482611754 2.3799944345 2.4117276937 2.4434609528 2.4751942119 2.506927471 2.5386607302 
2.5703939893 2.6021272484 2.6338605076 2.6655937667 2.6973270258 2.7290602849 2.7607935441 2.7925268032 2.8242600623 
2.8559933214 2.8877265806 2.9194598397 2.9511930988 2.982926358 3.0146596171 3.0463928762 3.0781261353 3.1098593945 
3.1415926536 
_radius 1 100 double
4.4518561111e-16 0.015389268341 0.030638162069 0.045611990638 0.060194512723 0.074293612296 0.087843665729 0.10080490563 0.11316048873 
0.12491204464 0.1360743649 0.1466697469 0.15672241542 0.16625341843 0.17527641485 0.1837948166 0.19180077165 0.19927640366 
0.20619746207 0.21253904593 0.21828244469 0.22342164536 0.2279679654 0.23195168677 0.23542031785 0.23843385962 0.24105792469 
0.24335568748 0.24537954937 0.24716327903 0.24871540601 0.25001484909 0.25100996307 0.25162205239 0.25175372474 0.25130140022 
0.25017028532 0.24828956323 0.24562557518 0.24219124313 0.23805068277 0.23331869548 0.2281554985 0.22275756014 0.21734561742 
0.21215076535 0.20739904601 0.20329471016 0.20000285122 0.19763345363 0.19623012592 0.19576661973 0.19615236182 0.19724578776 
0.19887264102 0.20084594053 0.2029846205 0.20512859288 0.20714897837 0.20895321214 0.21048547072 0.21172339099 0.21267237488 
0.21335880981 0.21382322621 0.21411389792 0.21428096245 0.21437098959 0.21442198975 0.21445891583 0.21448967803 0.21450168953 
0.21445919382 0.21430205516 0.21394693452 0.21329145469 0.21222117032 0.21061837041 0.20837135106 0.20538287365 0.20157689711 
0.19690311694 0.19133919774 0.18489077792 0.17758936339 0.16948817764 0.16065600826 0.15116921126 0.14110240066 0.13051895497 
0.11946313635 0.10795599197 0.095996898478 0.083571430119 0.070664417873 0.057275280861 0.043431728342 0.029198191917 0.014676721372 
2.8700746885e-16 
_area 1 100 double
0 0.00060436535125 0.002401790566 0.0053445711209 0.0093516477679 0.014308670925 0.020071922649 0.026477755256 0.033357174018 
0.040552758016 0.04793354435 0.055403817273 0.062903982308 0.070404565572 0.077895996758 0.085376600804 0.092840500855 0.10026741992 
0.10761731729 0.11483269411 0.1218489326 0.12860876508 0.13507378023 0.14122677187 0.14706361322 0.15257929457 0.15775696785 
0.16256826543 0.16698553336 0.17099668678 0.17461010938 0.17784231679 0.18068967894 0.18309148036 0.18489646549 0.18586083257 
0.18569657191 0.18413015561 0.18095935161 0.17611363273 0.16969575285 0.16198846372 0.15342348365 0.14451717316 0.13578561948 
0.12766274365 0.12044948624 0.11430716841 0.10928332356 0.10534766247 0.102421898 0.10039784957 0.099160530099 0.098564453226 
0.098412588814 0.098521074445 0.09871040917 0.098827491022 0.098769063324 0.098492619818 0.098009657844 0.097361295121 0.096585990913 
0.095702047277 0.094716985257 0.09365141913 0.09256081986 0.091544663421 0.090759254575 0.090383083778 0.090482076599 0.091112622332 
0.092251045691 0.093779745953 0.095506079961 0.09719291253 0.098592045316 0.09947286814 0.099641130864 0.09894884968 0.097298706569 
0.094645287486 0.090994061112 0.086398303598 0.080953933881 0.074792164481 0.068070088338 0.060959840368 0.05363754382 0.046273564977 
0.039025551559 0.032035399579 0.025430690793 0.0193301103 0.013850845325 0.0091144712588 0.0052474019287 0.0023735258346 0.00059992698936 
1.9303879628e-17 
