# vtk DataFile Version 5.1
vtk output
ASCII
DATASET POLYDATA
POINTS 100 float
0.0178538 -0.000537933 -0.659343 0.0180287 -0.000349901 -0.659355 0.0185048 6.00294e-05 -0.659364 
0.0192216 0.00068395 -0.659301 0.0200857 0.0015113 -0.659056 0.0209811 0.00253225 -0.658488 
0.0217816 0.00374156 -0.657439 0.0223636 0.00514205 -0.655749 0.0226181 0.00674698 -0.653266 
0.0224595 0.00858067 -0.649857 0.0218312 0.010677 -0.645423 0.0207068 0.0130759 -0.639898 
0.019087 0.0158174 -0.63325 0.0169942 0.0189354 -0.625483 0.0144641 0.0224502 -0.616628 
0.0115367 0.0263619 -0.606735 0.00824911 0.0306459 -0.595865 0.0046291 0.0352502 -0.584081 
0.000692946 0.040096 -0.571442 -0.00355404 0.0450812 -0.557997 -0.00811366 0.0500875 -0.543781 
-0.0129886 0.0549888 -0.528819 -0.0181753 0.0596615 -0.513126 -0.0236567 0.0639945 -0.49671 
-0.0293974 0.0678986 -0.47958 -0.0353413 0.0713131 -0.46175 -0.0414127 0.0742094 -0.443241 
-0.0475222 0.0765914 -0.424086 -0.0535741 0.0784923 -0.404327 -0.0594777 0.0799674 -0.384014 
-0.0651577 0.0810862 -0.363204 -0.0705642 0.0819216 -0.341949 -0.0756795 0.0825408 -0.320296 
-0.08052 0.0829964 -0.29828 -0.0851338 0.0833206 -0.275919 -0.0895926 0.083522 -0.253215 
-0.0939785 0.0835866 -0.230152 -0.0983685 0.0834815 -0.206699 -0.102818 0.0831612 -0.182819 
-0.107343 0.0825759 -0.158475 -0.111912 0.0816806 -0.133638 -0.116433 0.0804429 -0.108293 
-0.120759 0.0788495 -0.0824523 -0.124695 0.0769103 -0.0561537 -0.128007 0.0746585 -0.0294683 
-0.130451 0.0721488 -0.00249733 -0.131786 0.069452 0.0246301 -0.131809 0.0666479 0.0517634 
-0.130368 0.0638177 0.0787385 -0.127383 0.0610356 0.105387 -0.122858 0.0583628 0.131546 
-0.116876 0.0558425 0.157066 -0.109599 0.0534988 0.181818 -0.101249 0.0513375 0.205701 
-0.092083 0.0493493 0.228642 -0.0823758 0.0475163 0.2506 -0.0723875 0.0458179 0.27156 
-0.062343 0.0442374 0.291536 -0.052413 0.0427682 0.310563 -0.0427035 0.0414165 0.328694 
-0.0332535 0.040203 0.345997 -0.0240409 0.0391612 0.36255 -0.0149965 0.0383331 0.378438 
-0.00602291 0.0377633 0.393752 0.00298367 0.0374917 0.408585 0.0121115 0.0375463 0.423033 
0.0214149 0.0379371 0.437192 0.0309009 0.0386514 0.451156 0.0405235 0.0396527 0.465014 
0.0501854 0.0408812 0.478846 0.0597469 0.0422583 0.492718 0.0690414 0.0436924 0.50668 
0.077894 0.0450874 0.52076 0.0861414 0.0463507 0.534961 0.0936506 0.0474012 0.549257 
0.100333 0.048176 0.563593 0.106152 0.0486343 0.577889 0.111127 0.0487592 0.592041 
0.115324 0.0485563 0.605926 0.118848 0.04805 0.619413 0.121825 0.047278 0.632366 
0.124386 0.0462849 0.64466 0.126649 0.0451155 0.65618 0.128706 0.0438096 0.666835 
0.130613 0.0423978 0.67656 0.13239 0.0409002 0.68532 0.134018 0.039327 0.693108 
0.135453 0.0376811 0.699945 0.136638 0.0359628 0.705875 0.137514 0.0341746 0.710959 
0.138039 0.0323263 0.71527 0.138197 0.0304392 0.718885 0.138006 0.0285481 0.721881 
0.13752 0.0267018 0.72433 0.136826 0.0249605 0.726293 0.136033 0.0233917 0.727823 
0.135261 0.0220644 0.728961 0.134626 0.0210424 0.729737 0.134222 0.0203776 0.73017 
0.134112 0.0201046 0.730273 
LINES 2 100
OFFSETS vtktypeint64
0 100 
CONNECTIVITY vtktypeint64
0 1 2 3 4 5 6 7 8 
9 10 11 12 13 14 15 16 17 
18 19 20 21 22 23 24 25 26 
27 28 29 30 31 32 33 34 35 
36 37 38 39 40 41 42 43 44 
45 46 47 48 49 50 51 52 53 
54 55 56 57 58 59 60 61 62 
63 64 65 66 67 68 69 70 71 
72 73 74 75 76 77 78 79 80 
81 82 83 84 85 86 87 88 89 
90 91 92 93 94 95 96 97 98 
99 
POINT_DATA 100
FIELD FieldData 3
_theta 1 100 double
0 0.031733259127 0.063466518254 0.095199777382 0.12693303651 0.15866629564 0.19039955476 0.22213281389 0.25386607302 
0.28559933214 0.31733259127 0.3490658504 0.38079910953 0.41253236865 0.44426562778 0.47599888691 0.50773214603 0.53946540516 
0.57119866429 0.60293192342 0.63466518254 0.66639844167 0.6981317008 0.72986495992 0.76159821905 0.79333147818 0.82506473731 
0.85679799643 0.88853125556 0.92026451469 0.95199777382 0.98373103294 1.0154642921 1.0471975512 1.0789308103 1.1106640695 
1.1423973286 1.1741305877 1.2058638468 1.237597106 1.2693303651 1.3010636242 1.3327968833 1.3645301425 1.3962634016 
1.4279966607 1.4597299198 1.491463179 1.5231964381 1.5549296972 1.5866629564 1.6183962155 1.6501294746 1.6818627337 
1.7135959929 1.745329252 1.7770625111 1.8087957702 1.8405290294 1.8722622885 1.9039955476 1.9357288068 1.9674620659 
1.999195325 2.0309285841 2.0626618433 2.0943951024 2.1261283615 2.1578616206 2.1895948798 2.2213281389 2.253061398 
2.2847946572 2.3165279163 2.3482611754 2.3799944345 2.4117276937 2.4434609528 2.4751942119 2.506927471 2.5386607302 
2.5703939893 2.6021272484 2.6338605076 2.6655937667 2.6973270258 2.7290602849 2.7607935441 2.7925268032 2.8242600623 
2.8559933214 2.8877265806 2.9194598397 2.9511930988 2.982926358 3.0146596171 3.0463928762 3.0781261353 3.1098593945 
3.1415926536 
_radius 1 100 double
5.5550236512e-16 0.015550197875 0.030985714549 0.046193910739 0.061061412273 0.07547389471 0.089316404325 0.10247466287 0.1148376998 
0.12630191085 0.13677634543 0.14618873229 0.15449149102 0.16166678458 0.16772962676 0.1727282584 0.17674148108 0.17987329873 
0.18224585262 0.18399196314 0.18524841145 0.18615043424 0.18682707752 0.18739652976 0.18796066065 0.18859868923 0.18936079723 
0.19026311185 0.19128552273 0.19237329141 0.19344262421 0.1943896399 0.19510169176 0.19546983375 0.19540127622 0.19483086334 
0.19373082504 0.19211817859 0.19005903746 0.18766871603 0.18510616647 0.18256164303 0.18023841944 0.17833256134 0.17701641706 
0.17642901132 0.17667188904 0.17780671948 0.1798522104 0.18278024528 0.1865127848 0.19092164629 0.19583299701 0.20103748721 
0.20630569078 0.21140728292 0.21613152566 0.22030632122 0.22381322579 0.22659622209 0.22866271633 0.23007623985 0.23094170134 
0.23138556039 0.23153455127 0.23149701839 0.2313501631 0.23113474308 0.23085676708 0.23049430295 0.23000699227 0.22934599316 
0.22846243379 0.227312928 0.22586146887 0.22407809082 0.22193560899 0.21940594899 0.21645704974 0.21305063156 0.20914083177 
0.20467387289 0.19958917653 0.19382231393 0.18730981692 0.17999534878 0.17183627264 0.16280933231 0.15291399281 0.14217217877 
0.1306240215 0.11832075956 0.10531747268 0.091668815787 0.077429694748 0.06266037878 0.047433382569 0.031838831522 0.015985959233 
6.4897319697e-16 
_area 1 100 double
0 0.00052446418151 0.0021055144616 0.0047585119305 0.0084865208147 0.013255002503 0.018969380298 0.025461977775 0.032491883348 
0.039758301599 0.046925473932 0.053655424682 0.059643595057 0.064651817091 0.068533091203 0.071243437047 0.072837910822 0.073450951708 
0.073265572091 0.07248040765 0.071285435876 0.06985416345 0.068352322158 0.066952462226 0.065842670717 0.065226506284 0.065356362098 
0.066287786316 0.067871572762 0.069908729538 0.072163843783 0.074419415387 0.076510806592 0.078337575457 0.079854009137 0.081043150743 
0.081897754307 0.082423891149 0.082657065916 0.082675115819 0.082591719388 0.082523870169 0.082560395475 0.082761685342 0.083179949218 
0.083885136517 0.084992702986 0.086678667322 0.089154560149 0.092596091708 0.097073523506 0.10252783823 0.10877587429 0.11552220022 
0.12239114025 0.12898556432 0.13494812585 0.14000842807 0.14402097158 0.14699500256 0.14908523417 0.15050980441 0.15144650321 
0.15198921907 0.15216131096 0.15194861919 0.15133001169 0.15029091487 0.14882194178 0.14690975429 0.14453334861 0.14167504616 
0.13833965285 0.13456816697 0.13043937951 0.12605265024 0.12148053611 0.11672471701 0.11175155962 0.10655930114 0.10118102829 
0.095649974673 0.089977946802 0.084153108329 0.078146608369 0.07192403339 0.065460999913 0.058760266314 0.05186549033 0.044866499233 
0.037893357374 0.031100782815 0.024648835584 0.018687722208 0.01335192891 0.008762950779 0.0050346701404 0.0022742067768 0.00057440066492 
4.7825221919e-17 
