# vtk DataFile Version 5.1
vtk output
ASCII
DATASET POLYDATA
POINTS 100 float
0.0480713 -0.0248176 -0.653555 0.0481319 -0.0247568 -0.653655 0.0483395 -0.0243893 -0.65392 
0.0486667 -0.0237232 -0.65425 0.0490709 -0.0227707 -0.654488 0.0494976 -0.0215464 -0.654439 
0.0498855 -0.0200643 -0.653887 0.0501716 -0.0183358 -0.652619 0.0502958 -0.0163674 -0.650441 
0.0502046 -0.0141591 -0.647198 0.0498534 -0.0117042 -0.642786 0.0492079 -0.00898922 -0.637154 
0.0482432 -0.00599603 -0.630312 0.0469421 -0.00270428 -0.622316 0.0452929 0.00090506 -0.613263 
0.0432866 0.00484574 -0.603272 0.0409145 0.0091221 -0.592472 0.0381671 0.0137254 -0.58098 
0.0350339 0.0186306 -0.568896 0.031504 0.0237951 -0.556285 0.0275692 0.0291577 -0.543178 
0.0232267 0.0346402 -0.529571 0.0184832 0.0401503 -0.515431 0.0133577 0.0455856 -0.500704 
0.00788455 0.0508392 -0.48533 0.00211399 0.0558059 -0.46925 -0.0038884 0.0603879 -0.452424 
-0.0100446 0.0645014 -0.434835 -0.0162688 0.0680807 -0.416499 -0.0224731 0.0710825 -0.397461 
-0.0285746 0.073487 -0.377796 -0.0345017 0.075298 -0.357601 -0.0401992 0.076541 -0.336983 
-0.0456329 0.0772595 -0.31605 -0.0507899 0.0775096 -0.294902 -0.0556777 0.0773549 -0.273614 
-0.0603194 0.0768596 -0.252238 -0.0647476 0.0760838 -0.230794 -0.0689954 0.075078 -0.209274 
-0.0730875 0.0738804 -0.187642 -0.0770318 0.0725148 -0.16585 -0.080812 0.0709915 -0.143839 
-0.0843829 0.0693085 -0.121557 -0.0876696 0.0674555 -0.0989634 -0.0905696 0.0654179 -0.0760426 
-0.0929589 0.0631821 -0.0528063 -0.0947015 0.0607404 -0.0292968 -0.0956605 0.0580949 -0.00558574 
-0.0957117 0.0552609 0.0182305 -0.0947551 0.0522685 0.0420383 -0.0927267 0.0491629 0.0657157 
-0.0896063 0.0460027 0.089142 -0.0854218 0.0428569 0.112206 -0.0802497 0.039801 0.134816 
-0.0742105 0.0369128 0.156899 -0.0674606 0.0342671 0.178411 -0.0601806 0.0319317 0.19933 
-0.052562 0.0299642 0.219656 -0.0447923 0.0284091 0.239404 -0.0370418 0.0272968 0.258603 
-0.0294514 0.0266438 0.277284 -0.0221244 0.0264537 0.295477 -0.0151216 0.026719 0.313211 
-0.00846032 0.0274233 0.330504 -0.0021181 0.0285436 0.347369 0.00396057 0.0300523 0.363812 
0.00985465 0.0319182 0.379838 0.0156554 0.0341075 0.39545 0.021455 0.0365832 0.410658 
0.0273357 0.0393049 0.425477 0.0333608 0.0422271 0.439931 0.0395684 0.045299 0.454054 
0.045968 0.0484632 0.467885 0.0525398 0.0516565 0.481469 0.0592379 0.0548105 0.494849 
0.0659948 0.0578541 0.508061 0.0727278 0.0607167 0.521128 0.079347 0.0633318 0.534059 
0.0857627 0.065642 0.546839 0.0918921 0.0676028 0.559431 0.0976648 0.0691868 0.571777 
0.103027 0.0703858 0.583797 0.107943 0.0712125 0.595396 0.112397 0.0716996 0.606471 
0.116389 0.0718976 0.616913 0.119934 0.0718704 0.626625 0.123059 0.07169 0.635517 
0.125796 0.0714305 0.643523 0.128184 0.0711613 0.650602 0.130258 0.0709414 0.656738 
0.132053 0.0708144 0.661947 0.133599 0.0708056 0.666271 0.134921 0.0709207 0.669774 
0.136035 0.0711471 0.672542 0.136956 0.0714567 0.674669 0.137692 0.0718106 0.676253 
0.138247 0.0721648 0.677387 0.138626 0.0724766 0.678154 0.138829 0.0727104 0.678616 
0.138859 0.0728421 0.678813 
LINES 2 100
OFFSETS vtktypeint64
0 100 
CONNECTIVITY vtktypeint64
0 1 2 3 4 5 6 7 8 
9 10 11 12 13 14 15 16 17 
18 19 20 21 22 23 24 25 26 
27 28 29 30 31 32 33 34 35 
36 37 38 39 40 41 42 43 44 
45 46 47 48 49 50 51 52 53 
54 55 56 57 58 59 60 61 62 
63 64 65 66 67 68 69 70 71 
72 73 74 75 76 77 78 79 80 
81 82 83 84 85 86 87 88 89 
90 91 92 93 94 95 96 97 98 
99 
POINT_DATA 100
FIELD FieldData 3
_theta 1 100 double
0 0.031733259127 0.063466518254 0.095199777382 0.12693303651 0.15866629564 0.19039955476 0.22213281389 0.25386607302 
0.28559933214 0.31733259127 0.3490658504 0.38079910953 0.41253236865 0.44426562778 0.47599888691 0.50773214603 0.53946540516 
0.57119866429 0.60293192342 0.63466518254 0.66639844167 0.6981317008 0.72986495992 0.76159821905 0.79333147818 0.82506473731 
0.85679799643 0.88853125556 0.92026451469 0.95199777382 0.98373103294 1.0154642921 1.0471975512 1.0789308103 1.1106640695 
1.1423973286 1.1741305877 1.2058638468 1.237597106 1.2693303651 1.3010636242 1.3327968833 1.3645301425 1.3962634016 
1.4279966607 1.4597299198 1.491463179 1.5231964381 1.5549296972 1.5866629564 1.6183962155 1.6501294746 1.6818627337 
1.7135959929 1.745329252 1.7770625111 1.8087957702 1.8405290294 1.8722622885 1.9039955476 1.9357288068 1.9674620659 
1.999195325 2.0309285841 2.0626618433 2.0943951024 2.1261283615 2.1578616206 2.1895948798 2.2213281389 2.253061398 
2.2847946572 2.3165279163 2.3482611754 2.3799944345 2.4117276937 2.4434609528 2.4751942119 2.506927471 2.5386607302 
2.5703939893 2.6021272484 2.6338605076 2.6655937667 2.6973270258 2.7290602849 2.7607935441 2.7925268032 2.8242600623 
2.8559933214 2.8877265806 2.9194598397 2.9511930988 2.982926358 3.0146596171 3.0463928762 3.0781261353 3.1098593945 
3.1415926536 
_radius 1 100 double
1.2432050436e-16 0.013966244015 0.027886421421 0.041706502766 0.055363650116 0.068782832112 0.081874906268 0.09453683649 0.10665449829 
0.11810811896 0.12877991757 0.13856307974 0.1473709226 0.15514502447 0.16186120989 0.16753256034 0.17220901582 0.1759735893 
0.17893567756 0.18122235233 0.1829687842 0.18430902371 0.18536819814 0.18625677928 0.18706700249 0.18787095777 0.18871962081 
0.18964232902 0.19064674607 0.19171973249 0.19282947948 0.193928953 0.19496047686 0.19586124925 0.1965695655 0.19703135817 
0.19720641076 0.19707343498 0.1966332653 0.19590971799 0.19494808199 0.19381165234 0.19257710659 0.1913297611 0.19015968063 
0.18915913179 0.18842101743 0.18803702866 0.18809384605 0.18866624197 0.18980731264 0.19153766723 0.19383641088 0.19663670091 
0.1998276284 0.20326266533 0.20677343673 0.21018649503 0.21334033543 0.21610016874 0.21836876063 0.22009255194 0.22126295078 
0.22191304365 0.22211014002 0.22194475333 0.2215169716 0.22092167467 0.22023453717 0.2195009454 0.21872962106 0.21789186695 
0.21692619681 0.21574711992 0.21425634655 0.21235467821 0.20995310871 0.20698194963 0.20339704069 0.1991823866 0.19434895252 
0.18892983549 0.18297251291 0.17652924699 0.16964694145 0.16235780512 0.15467210107 0.14657405852 0.13802168687 0.1289507591 
0.11928268212 0.10893544438 0.097836418087 0.085935529977 0.073217194336 0.059709427047 0.045488765635 0.03068004325 0.015450692031 
4.0180308071e-16 
_area 1 100 double
0 0.00052913570332 0.0021149864728 0.0047496628469 0.0084100334631 0.013045365535 0.018564935864 0.02482936315 0.031648579421 
0.038787671672 0.045979979935 0.052945441507 0.059411509034 0.065134025077 0.069915947344 0.073622386373 0.076190736944 0.077634809674 
0.078042205323 0.077565123273 0.076406332016 0.074803564499 0.073016352755 0.071319081797 0.07000273587 0.069372942682 0.069664599679 
0.070862262149 0.072728863612 0.075007647456 0.077490183606 0.080010245167 0.08244210852 0.084697976302 0.086721935494 0.088488115905 
0.089998877748 0.091277122208 0.092355374396 0.093266424958 0.09403836631 0.094695234602 0.095260582508 0.095759344978 0.096217852165 
0.096667893021 0.097157443478 0.09776074288 0.098583481976 0.099759947904 0.10143847865 0.10375750488 0.10681072647 0.1106068667 
0.11504584795 0.11993062123 0.12500577729 0.12999961729 0.13465783057 0.13876836615 0.1421784979 0.14480287108 0.1466210083 
0.1476650914 0.14800247461 0.14772011241 0.14691534425 0.14569034224 0.14414492201 0.142365852 0.14041446141 0.13831594859 
0.13605404486 0.13357370485 0.13079220267 0.12761628605 0.12396118469 0.11976692509 0.11500847763 0.10969839194 0.10388301865 
0.097635014465 0.091044763801 0.084211963532 0.077237276928 0.070213903026 0.063220043796 0.056314325321 0.049536130738 0.042911509009 
0.036463632969 0.030225514929 0.02425213788 0.018629091676 0.013475097262 0.0089367987159 0.0051759508941 0.0023509194451 0.00059564787409 
8.4904777497e-17 
