# vtk DataFile Version 5.1
vtk output
ASCII
DATASET POLYDATA
POINTS 100 float
0.107963 0.0479243 0.609133 0.107925 0.0478286 0.609314 0.107864 0.0474402 0.609676 
0.107766 0.046799 0.610133 0.10761 0.0459679 0.61055 0.107369 0.0450261 0.610759 
0.107014 0.0440624 0.610573 0.106515 0.043167 0.609805 0.105846 0.0424236 0.608285 
0.104988 0.0419022 0.605873 0.103926 0.0416531 0.602475 0.102653 0.0417034 0.598042 
0.101171 0.0420551 0.592575 0.0994833 0.0426859 0.586121 0.0976 0.0435515 0.578762 
0.09553 0.0445906 0.570605 0.0932806 0.04573 0.561766 0.0908548 0.0468912 0.552363 
0.0882495 0.0479964 0.542499 0.0854551 0.048974 0.532256 0.0824548 0.0497639 0.521693 
0.0792264 0.0503199 0.510842 0.0757435 0.0506123 0.499712 0.0719785 0.0506281 0.488297 
0.0679045 0.0503701 0.476581 0.0634985 0.0498554 0.464546 0.0587434 0.0491127 0.452183 
0.0536297 0.0481801 0.439493 0.0481563 0.047102 0.426491 0.0423305 0.0459271 0.413205 
0.0361676 0.0447065 0.399674 0.0296894 0.0434923 0.385937 0.022923 0.0423364 0.372035 
0.0158991 0.0412901 0.357991 0.00865103 0.0404031 0.343815 0.00121406 0.039723 0.329491 
-0.00637456 0.0392942 0.314978 -0.0140748 0.0391569 0.300214 -0.0218426 0.0393453 0.285116 
-0.0296277 0.0398857 0.269588 -0.0373725 0.0407948 0.253535 -0.0450097 0.042078 0.236868 
-0.0524621 0.0437279 0.219516 -0.0596422 0.0457233 0.201436 -0.0664538 0.04803 0.182615 
-0.0727943 0.050601 0.163074 -0.0785589 0.0533789 0.14287 -0.0836449 0.0562985 0.122086 
-0.0879576 0.0592904 0.100828 -0.0914158 0.0622842 0.079214 -0.0939566 0.065213 0.0573627 
-0.0955402 0.0680165 0.0353862 -0.0961523 0.0706436 0.0133806 -0.0958052 0.073055 -0.0085802 
-0.094537 0.0752231 -0.0304469 -0.0924091 0.0771325 -0.0521947 -0.0895007 0.0787781 -0.0738198 
-0.085904 0.0801627 -0.0953339 -0.081717 0.0812942 -0.116756 -0.0770367 0.0821825 -0.138107 
-0.0719532 0.0828353 -0.159398 -0.0665444 0.0832565 -0.180627 -0.0608725 0.0834426 -0.201774 
-0.0549827 0.0833827 -0.222799 -0.0489038 0.0830572 -0.243642 -0.0426504 0.0824392 -0.264228 
-0.0362274 0.0814963 -0.28447 -0.0296352 0.0801929 -0.304278 -0.0228755 0.0784936 -0.323564 
-0.015957 0.0763665 -0.342249 -0.00890007 0.0737867 -0.360266 -0.00174034 0.0707391 -0.37757 
0.00546982 0.0672211 -0.394132 0.0126617 0.0632439 -0.409946 0.0197527 0.0588335 -0.425021 
0.0266507 0.0540306 -0.439382 0.0332599 0.048889 -0.453065 0.0394868 0.0434743 -0.466108 
0.0452478 0.037861 -0.478553 0.0504743 0.0321298 -0.490437 0.0551184 0.0263641 -0.501791 
0.0591563 0.0206468 -0.512637 0.0625891 0.0150576 -0.522988 0.0654425 0.00966928 -0.532849 
0.0677638 0.00454632 -0.542215 0.0696172 -0.000257625 -0.551077 0.0710786 -0.00470072 -0.559419 
0.0722281 -0.00875357 -0.567226 0.0731446 -0.0123992 -0.574478 0.0738988 -0.0156326 -0.581159 
0.0745494 -0.0184591 -0.587252 0.0751392 -0.0208935 -0.592741 0.0756941 -0.0229575 -0.597615 
0.0762236 -0.0246775 -0.601862 0.0767227 -0.0260827 -0.605472 0.0771759 -0.0272021 -0.608438 
0.0775613 -0.0280628 -0.610753 0.0778554 -0.0286878 -0.61241 0.0780377 -0.029094 -0.613407 
0.0780941 -0.0292917 -0.613739 
LINES 2 100
OFFSETS vtktypeint64
0 100 
CONNECTIVITY vtktypeint64
0 1 2 3 4 5 6 7 8 
9 10 11 12 13 14 15 16 17 
18 19 20 21 22 23 24 25 26 
27 28 29 30 31 32 33 34 35 
36 37 38 39 40 41 42 43 44 
45 46 47 48 49 50 51 52 53 
54 55 56 57 58 59 60 61 62 
63 64 65 66 67 68 69 70 71 
72 73 74 75 76 77 78 79 80 
81 82 83 84 85 86 87 88 89 
90 91 92 93 94 95 96 97 98 
99 
POINT_DATA 100
FIELD FieldData 3
_theta 1 100 double
0 0.031733259127 0.063466518254 0.095199777382 0.12693303651 0.15866629564 0.19039955476 0.22213281389 0.25386607302 
0.28559933214 0.31733259127 0.3490658504 0.38079910953 0.41253236865 0.44426562778 0.47599888691 0.50773214603 0.53946540516 
0.57119866429 0.60293192342 0.63466518254 0.66639844167 0.6981317008 0.72986495992 0.76159821905 0.79333147818 0.82506473731 
0.85679799643 0.88853125556 0.92026451469 0.95199777382 0.98373103294 1.0154642921 1.0471975512 1.0789308103 1.1106640695 
1.1423973286 1.1741305877 1.2058638468 1.237597106 1.2693303651 1.3010636242 1.3327968833 1.3645301425 1.3962634016 
1.4279966607 1.4597299198 1.491463179 1.5231964381 1.5549296972 1.5866629564 1.6183962155 1.6501294746 1.6818627337 
1.7135959929 1.745329252 1.7770625111 1.8087957702 1.8405290294 1.8722622885 1.9039955476 1.9357288068 1.9674620659 
1.999195325 2.0309285841 2.0626618433 2.0943951024 2.1261283615 2.1578616206 2.1895948798 2.2213281389 2.253061398 
2.2847946572 2.3165279163 2.3482611754 2.3799944345 2.4117276937 2.4434609528 2.4751942119 2.506927471 2.5386607302 
2.5703939893 2.6021272484 2.6338605076 2.6655937667 2.6973270258 2.7290602849 2.7607935441 2.7925268032 2.8242600623 
2.8559933214 2.8877265806 2.9194598397 2.9511930988 2.982926358 3.0146596171 3.0463928762 3.0781261353 3.1098593945 
3.1415926536 
_radius 1 100 double
1.2283214231e-15 0.014105013682 0.028071737741 0.041768658097 0.055084048318 0.06793315224 0.080262204902 0.092048717261 0.10329787159 
0.11403538181 0.12429771276 0.13412102858 0.14353053321 0.15253188025 0.16110604209 0.16920850254 0.17677298941 0.18371931047 
0.18996428415 0.19543432526 0.20007800751 0.20387691499 0.20685330692 0.20907348773 0.21064620107 0.2117157887 0.21245029074 
0.21302519527 0.21360424293 0.21431950394 0.21525362271 0.21642728253 0.21779428324 0.21924524675 0.22061939602 0.22172268719 
0.22235002367 0.222309142 0.22144376803 0.21965372764 0.21690992989 0.21326256903 0.20884147547 0.20384820931 0.19854018523 
0.1932078371 0.18814659885 0.18362632804 0.17986175794 0.17698854181 0.17504996941 0.17399842405 0.17371213847 0.1740226242 
0.17474439557 0.17569896845 0.17672904863 0.17770358699 0.17851768993 0.17909216354 0.17937556603 0.17934826688 0.17902556316 
0.17845685411 0.17771955441 0.17690831855 0.17612138619 0.17544633865 0.17494744793 0.17465629281 0.17456661471 0.17463370466 
0.17477810122 0.17489304143 0.17485482673 0.17453494582 0.17381246823 0.17258502874 0.17077681342 0.16834239334 0.16526597663 
0.16155650463 0.15723979212 0.15234939458 0.14691794531 0.14097033892 0.13451949659 0.12756477991 0.12009266241 0.1120791451 
0.10349356475 0.094303697635 0.08448216321 0.074013925826 0.062904212085 0.051185637827 0.038923065273 0.026214870412 0.013189873971 
3.7690980966e-16 
_area 1 100 double
0 0.00051362109594 0.0020332258283 0.0044982479728 0.0078175796816 0.011881697364 0.016575500048 0.021789540369 0.027427929858 
0.033411761124 0.039677660584 0.046172366361 0.052845370551 0.059641526625 0.06649438234 0.073320542686 0.080016312679 0.086459050036 
0.092515460042 0.098056976538 0.10297937019 0.1072215665 0.11077863625 0.11370597058 0.11611447729 0.11815867282 0.12001992215 
0.12188609756 0.12392795047 0.12627306694 0.12898101227 0.13202649962 0.13529669128 0.1386021231 0.14169483098 0.14428917377 
0.14608717342 0.1468118922 0.14624661926 0.14427099063 0.14088437301 0.13621128978 0.13048921507 0.12404302693 0.11725177257 
0.11051210773 0.10420002749 0.098631259728 0.09402424359 0.090475617695 0.087957397381 0.086336654038 0.085410708652 0.084947560432 
0.084723246209 0.084550381201 0.084293411744 0.083869579623 0.083240295847 0.082401053715 0.08137495488 0.080204356472 0.078932539975 
0.077586614101 0.076182036873 0.074741524952 0.07330655224 0.071936503351 0.070701353004 0.069671981966 0.068909181094 0.068451836889 
0.06830598547 0.068437749027 0.068772931064 0.069203577951 0.069599523676 0.069823617399 0.069748988156 0.069272731158 0.068320577957 
0.066843013758 0.064808493379 0.062200024958 0.05901736963 0.055282208653 0.051042119511 0.046370958955 0.041365550136 0.036139950571 
0.030819070626 0.025533281853 0.020414979842 0.015597017431 0.011211932144 0.0073903942611 0.0042574448812 0.0019258017537 0.00048668469366 
2.9468962673e-17 
