# vtk DataFile Version 5.1
vtk output
ASCII
DATASET POLYDATA
POINTS 100 float
0.10911 0.0524431 0.627293 0.109155 0.0526796 0.627243 0.109374 0.053211 0.626951 
0.10972 0.054004 0.6264 0.11012 0.0550068 0.625558 0.110483 0.0561522 0.62438 
0.110708 0.0573629 0.622814 0.1107 0.0585568 0.620801 0.110374 0.0596531 0.618278 
0.109664 0.0605774 0.615178 0.10853 0.0612676 0.611442 0.10696 0.0616772 0.607014 
0.104964 0.061778 0.60185 0.102574 0.0615617 0.595917 0.0998357 0.061039 0.589198 
0.0967976 0.0602376 0.581694 0.093507 0.0591985 0.573421 0.0900002 0.0579719 0.564414 
0.086298 0.0566118 0.554719 0.0824032 0.0551712 0.544396 0.0783008 0.0536972 0.533511 
0.0739609 0.0522276 0.522134 0.0693433 0.0507883 0.510334 0.064404 0.0493928 0.498177 
0.0591014 0.0480429 0.485719 0.0534024 0.0467312 0.473008 0.0472867 0.045445 0.460077 
0.0407493 0.0441703 0.446948 0.0338012 0.0428971 0.433629 0.0264679 0.0416232 0.420116 
0.0187864 0.0403578 0.406397 0.0108017 0.0391235 0.392447 0.00256302 0.037956 0.378236 
-0.00587881 0.036903 0.363727 -0.0144732 0.0360202 0.34888 -0.0231693 0.0353665 0.333651 
-0.0319146 0.0349979 0.317992 -0.0406516 0.0349617 0.301857 -0.0493141 0.0352904 0.285197 
-0.057824 0.035997 0.267967 -0.0660886 0.037073 0.250125 -0.0740002 0.038487 0.231634 
-0.0814381 0.0401869 0.21247 -0.088273 0.0421043 0.192617 -0.0943741 0.04416 0.172078 
-0.0996183 0.0462718 0.150873 -0.1039 0.0483626 0.129042 -0.107139 0.0503673 0.106647 
-0.109295 0.0522402 0.0837683 -0.110363 0.0539586 0.0605037 -0.110385 0.0555251 0.0369646 
-0.109444 0.0569666 0.0132703 -0.107657 0.0583305 -0.0104585 -0.105168 0.0596785 -0.0341063 
-0.102134 0.0610782 -0.0575687 -0.098712 0.0625941 -0.0807584 -0.095047 0.0642786 -0.103609 
-0.0912584 0.0661631 -0.126077 -0.0874321 0.0682524 -0.148142 -0.0836163 0.0705203 -0.169803 
-0.0798207 0.0729092 -0.191076 -0.0760211 0.075333 -0.211987 -0.0721673 0.0776822 -0.232567 
-0.0681935 0.0798326 -0.252844 -0.0640306 0.081655 -0.272837 -0.0596179 0.0830261 -0.292553 
-0.0549135 0.0838389 -0.311983 -0.049901 0.0840123 -0.331105 -0.0445936 0.0834977 -0.34988 
-0.0390336 0.0822838 -0.36826 -0.0332884 0.0803973 -0.386192 -0.0274433 0.0779011 -0.403625 
-0.0215927 0.0748891 -0.42051 -0.0158308 0.0714788 -0.436813 -0.0102428 0.0678017 -0.452512 
-0.00489806 0.0639939 -0.467601 0.000153494 0.060186 -0.482088 0.0048823 0.056494 -0.495992 
0.00927673 0.0530126 -0.509342 0.0133382 0.0498104 -0.522167 0.0170746 0.0469273 -0.534492 
0.0204936 0.044375 -0.546334 0.0235965 0.0421399 -0.557695 0.0263742 0.0401873 -0.568563 
0.0288054 0.0384681 -0.57891 0.0308589 0.0369248 -0.588696 0.0324973 0.035499 -0.59787 
0.0336847 0.0341376 -0.606376 0.0343942 0.0327976 -0.614164 0.0346166 0.0314507 -0.62119 
0.0343672 0.0300845 -0.627425 0.0336904 0.0287037 -0.632856 0.032661 0.0273281 -0.637491 
0.0313812 0.0259905 -0.641355 0.0299745 0.0247326 -0.644489 0.0285759 0.0236007 -0.646945 
0.02732 0.0226409 -0.648776 0.0263285 0.0218946 -0.650035 0.0256981 0.0213947 -0.650763 
0.025491 0.0211623 -0.650989 
LINES 2 100
OFFSETS vtktypeint64
0 100 
CONNECTIVITY vtktypeint64
0 1 2 3 4 5 6 7 8 
9 10 11 12 13 14 15 16 17 
18 19 20 21 22 23 24 25 26 
27 28 29 30 31 32 33 34 35 
36 37 38 39 40 41 42 43 44 
45 46 47 48 49 50 51 52 53 
54 55 56 57 58 59 60 61 62 
63 64 65 66 67 68 69 70 71 
72 73 74 75 76 77 78 79 80 
81 82 83 84 85 86 87 88 89 
90 91 92 93 94 95 96 97 98 
99 
POINT_DATA 100
FIELD FieldData 3
_theta 1 100 double
0 0.031733259127 0.063466518254 0.095199777382 0.12693303651 0.15866629564 0.19039955476 0.22213281389 0.25386607302 
0.28559933214 0.31733259127 0.3490658504 0.38079910953 0.41253236865 0.44426562778 0.47599888691 0.50773214603 0.53946540516 
0.57119866429 0.60293192342 0.63466518254 0.66639844167 0.6981317008 0.72986495992 0.76159821905 0.79333147818 0.82506473731 
0.85679799643 0.88853125556 0.92026451469 0.95199777382 0.98373103294 1.0154642921 1.0471975512 1.0789308103 1.1106640695 
1.1423973286 1.1741305877 1.2058638468 1.237597106 1.2693303651 1.3010636242 1.3327968833 1.3645301425 1.3962634016 
1.4279966607 1.4597299198 1.491463179 1.5231964381 1.5549296972 1.5866629564 1.6183962155 1.6501294746 1.6818627337 
1.7135959929 1.745329252 1.7770625111 1.8087957702 1.8405290294 1.8722622885 1.9039955476 1.9357288068 1.9674620659 
1.999195325 2.0309285841 2.0626618433 2.0943951024 2.1261283615 2.1578616206 2.1895948798 2.2213281389 2.253061398 
2.2847946572 2.3165279163 2.3482611754 2.3799944345 2.4117276937 2.4434609528 2.4751942119 2.506927471 2.5386607302 
2.5703939893 2.6021272484 2.6338605076 2.6655937667 2.6973270258 2.7290602849 2.7607935441 2.7925268032 2.8242600623 
2.8559933214 2.8877265806 2.9194598397 2.9511930988 2.982926358 3.0146596171 3.0463928762 3.0781261353 3.1098593945 
3.1415926536 
_radius 1 100 double
9.9929709104e-16 0.014512586564 0.028928260391 0.043154023801 0.057112038382 0.070742736792 0.084004002932 0.0968671256 0.10931099795 
0.12131621842 0.13286037219 0.1439150995 0.15444493627 0.16440759028 0.1737553422 0.18243748899 0.19040394352 0.19761007896 
0.20402262066 0.20962595861 0.21442786624 0.21846341378 0.22179591861 0.22451408299 0.22672502244 0.22854364897 0.2300797193 
0.23142453726 0.23263952648 0.23374852418 0.23473483387 0.23554316787 0.23608594644 0.23625311668 0.23592460865 0.23498456003 
0.23333636906 0.23091743957 0.22771222717 0.22376199792 0.21916968502 0.21409844309 0.20876296886 0.20341338477 0.19831252262 
0.19370888982 0.18980937583 0.18675724426 0.18462091079 0.18339636602 0.18302142463 0.18339573146 0.18439914475 0.18590324191 
0.18777485647 0.18987487038 0.19205803018 0.19417854683 0.19610190276 0.19771893688 0.19895715135 0.19978608497 0.20021618022 
0.20029228342 0.20008365413 0.19967253913 0.19914322849 0.19857303313 0.19802581048 0.1975478071 0.19716511457 0.19688211629 
0.19668068803 0.19652021452 0.19633852411 0.1960537491 0.19556708817 0.1947665193 0.19353156067 0.19173908519 0.18926996111 
0.18601602775 0.18188674051 0.17681479787 0.170760185 0.16371228161 0.15568992038 0.14673949501 0.13693137781 0.12635500923 
0.1151130756 0.10331520575 0.091071610771 0.078487084895 0.065655796577 0.052657317554 0.039554322642 0.026392292307 0.013201340197 
6.4983025149e-16 
_area 1 100 double
0 0.00054902479929 0.0021842431144 0.0048704296856 0.0085502784129 0.013147185763 0.018569858664 0.024718439802 0.031491159887 
0.038790089955 0.046524415389 0.054609783215 0.062962904929 0.071492011848 0.080085784052 0.088605150251 0.096882837625 0.10473421465 
0.11198000609 0.11847746388 0.12415231285 0.12902034213 0.13318693995 0.13681859031 0.14009395418 0.14315593072 0.14608562246 
0.14890316675 0.15158513232 0.15408458484 0.1563443366 0.15829958267 0.15987083629 0.16095221195 0.16140329992 0.1610532734 
0.15972220637 0.15725801336 0.15358059779 0.14872024849 0.14283720043 0.13621440079 0.12922393289 0.12227538362 0.11575842444 
0.10999098813 0.10518062148 0.10140420591 0.098612952346 0.096676853379 0.095481695677 0.094885472723 0.09470903175 0.094836528447 
0.095190493488 0.095716874682 0.096376973741 0.097131689818 0.097888963813 0.09848681112 0.098771392152 0.098660202601 0.098151257549 
0.097307746205 0.096234772049 0.095054576563 0.093885365393 0.092828475792 0.091965185411 0.091359417288 0.091059665596 0.091093346273 
0.091454036252 0.092086506494 0.092889082284 0.093735868059 0.094492979796 0.095020746815 0.095170071315 0.094780993811 0.093688611713 
0.091738139662 0.08880675238 0.08482648207 0.079801488747 0.073814775903 0.067022791546 0.059639717383 0.051915412112 0.04411158623 
0.036480158646 0.029246440436 0.022598312025 0.01668126944 0.011598370056 0.0074138610392 0.004159556585 0.0018434362262 0.00045986516592 
1.5836197499e-17 
