# vtk DataFile Version 5.1
vtk output
ASCII
DATASET POLYDATA
POINTS 100 float
0.082871 0.0576393 0.645475 0.0828339 0.0577399 0.645333 0.0827734 0.0578778 0.644744 
0.0826821 0.0580265 0.64371 0.0825474 0.0581455 0.642241 0.0823531 0.058186 0.640339 
0.0820798 0.0580979 0.638002 0.0817061 0.0578365 0.635217 0.0812098 0.0573691 0.631954 
0.0805691 0.0566799 0.628171 0.079764 0.0557723 0.623813 0.0787767 0.0546688 0.618816 
0.0775928 0.0534089 0.613113 0.0762008 0.0520438 0.606644 0.0745925 0.0506304 0.599363 
0.0727615 0.0492239 0.591245 0.0707029 0.0478716 0.582293 0.0684111 0.0466068 0.572543 
0.0658795 0.0454455 0.562061 0.0630987 0.0443852 0.550941 0.0600564 0.0434058 0.539295 
0.0567378 0.0424737 0.52725 0.0531261 0.0415473 0.514928 0.0492051 0.0405834 0.502441 
0.0449611 0.0395443 0.489881 0.0403865 0.0384037 0.477306 0.0354821 0.0371517 0.464742 
0.0302604 0.0357971 0.45218 0.0247466 0.0343676 0.43958 0.0189795 0.0329081 0.426878 
0.0130098 0.0314763 0.413997 0.00689733 0.0301373 0.400854 0.000706725 0.0289573 0.387377 
-0.00549835 0.0279975 0.373509 -0.0116612 0.0273093 0.359217 -0.0177382 0.0269299 0.344495 
-0.0237031 0.0268806 0.329359 -0.0295507 0.027167 0.313846 -0.0352964 0.0277804 0.298002 
-0.0409743 0.0287008 0.281875 -0.0466309 0.0299011 0.265502 -0.0523175 0.0313504 0.248899 
-0.0580792 0.0330183 0.232056 -0.0639444 0.0348769 0.214934 -0.0699135 0.0369029 0.197461 
-0.0759502 0.0390771 0.179545 -0.0819755 0.041384 0.161079 -0.0878658 0.0438099 0.141955 
-0.0934564 0.0463409 0.122076 -0.0985491 0.0489606 0.101373 -0.102925 0.0516489 0.0798166 
-0.106363 0.0543815 0.0574219 -0.108653 0.0571296 0.0342567 -0.10962 0.0598615 0.0104386 
-0.109138 0.0625445 -0.0138711 -0.107146 0.0651465 -0.038478 -0.103654 0.067638 -0.0631693 
-0.0987452 0.0699933 -0.0877293 -0.0925712 0.0721909 -0.111957 -0.0853415 0.0742122 -0.135678 
-0.0773055 0.0760402 -0.158761 -0.0687317 0.0776563 -0.181122 -0.0598851 0.0790379 -0.202727 
-0.0510046 0.0801552 -0.22359 -0.0422839 0.0809702 -0.243768 -0.0338566 0.081436 -0.26335 
-0.0257884 0.0814987 -0.282441 -0.018076 0.0811011 -0.301153 -0.0106533 0.0801879 -0.319589 
-0.00340421 0.0787128 -0.337833 0.00381971 0.0766455 -0.355943 0.0111787 0.0739786 -0.373946 
0.0188235 0.0707334 -0.391833 0.0268764 0.0669628 -0.409569 0.0354152 0.0627517 -0.427092 
0.0444636 0.058214 -0.444325 0.0539876 0.0534857 -0.46118 0.0638985 0.048716 -0.477568 
0.0740617 0.0440557 -0.493407 0.0843105 0.0396448 -0.508626 0.0944631 0.0356014 -0.523167 
0.104339 0.0320111 -0.536991 0.113777 0.0289208 -0.550073 0.122644 0.0263355 -0.562399 
0.130851 0.02422 -0.573969 0.138349 0.0225046 -0.584787 0.14513 0.0210946 -0.59486 
0.151223 0.0198827 -0.604196 0.15668 0.018762 -0.612802 0.161566 0.0176389 -0.620681 
0.165949 0.0164446 -0.627831 0.169884 0.0151427 -0.634249 0.173411 0.0137325 -0.639929 
0.176547 0.0122488 -0.644866 0.179286 0.0107559 -0.64905 0.181604 0.00933874 -0.652477 
0.183465 0.00809142 -0.65514 0.18483 0.00710419 -0.657036 0.185661 0.00645154 -0.658163 
0.185933 0.00618222 -0.65852 
LINES 2 100
OFFSETS vtktypeint64
0 100 
CONNECTIVITY vtktypeint64
0 1 2 3 4 5 6 7 8 
9 10 11 12 13 14 15 16 17 
18 19 20 21 22 23 24 25 26 
27 28 29 30 31 32 33 34 35 
36 37 38 39 40 41 42 43 44 
45 46 47 48 49 50 51 52 53 
54 55 56 57 58 59 60 61 62 
63 64 65 66 67 68 69 70 71 
72 73 74 75 76 77 78 79 80 
81 82 83 84 85 86 87 88 89 
90 91 92 93 94 95 96 97 98 
99 
POINT_DATA 100
FIELD FieldData 3
_theta 1 100 double
0 0.031733259127 0.063466518254 0.095199777382 0.12693303651 0.15866629564 0.19039955476 0.22213281389 0.25386607302 
0.28559933214 0.31733259127 0.3490658504 0.38079910953 0.41253236865 0.44426562778 0.47599888691 0.50773214603 0.53946540516 
0.57119866429 0.60293192342 0.63466518254 0.66639844167 0.6981317008 0.72986495992 0.76159821905 0.79333147818 0.82506473731 
0.85679799643 0.88853125556 0.92026451469 0.95199777382 0.98373103294 1.0154642921 1.0471975512 1.0789308103 1.1106640695 
1.1423973286 1.1741305877 1.2058638468 1.237597106 1.2693303651 1.3010636242 1.3327968833 1.3645301425 1.3962634016 
1.4279966607 1.4597299198 1.491463179 1.5231964381 1.5549296972 1.5866629564 1.6183962155 1.6501294746 1.6818627337 
1.7135959929 1.745329252 1.7770625111 1.8087957702 1.8405290294 1.8722622885 1.9039955476 1.9357288068 1.9674620659 
1.999195325 2.0309285841 2.0626618433 2.0943951024 2.1261283615 2.1578616206 2.1895948798 2.2213281389 2.253061398 
2.2847946572 2.3165279163 2.3482611754 2.3799944345 2.4117276937 2.4434609528 2.4751942119 2.506927471 2.5386607302 
2.5703939893 2.6021272484 2.6338605076 2.6655937667 2.6973270258 2.7290602849 2.7607935441 2.7925268032 2.8242600623 
2.8559933214 2.8877265806 2.9194598397 2.9511930988 2.982926358 3.0146596171 3.0463928762 3.0781261353 3.1098593945 
3.1415926536 
_radius 1 100 double
5.6016259799e-16 0.013982841688 0.027984761685 0.042004501868 0.056020006577 0.069983054425 0.08381846021 0.097427956066 0.11069805784 
0.12351058998 0.13575418833 0.14733506374 0.1581855573 0.16826946703 0.17758366461 0.18615604187 0.1940402477 0.20130795889 
0.20803958281 0.21431436352 0.22020090354 0.22574914339 0.23098482186 0.23590729593 0.24049124898 0.24469224669 0.24845540276 
0.2517257705 0.25445868038 0.25662822114 0.25823242531 0.25929436661 0.2598591346 0.25998732576 0.25974611915 0.25919914484 
0.2583963244 0.25736488687 0.25610294991 0.25457720821 0.2527260116 0.25046827366 0.24771747804 0.24439896395 0.24046793979 
0.23592536444 0.23082894053 0.22529697986 0.21950381966 0.21366673992 0.20802581619 0.20281958609 0.19826049416 0.19451444271 
0.19168791967 0.18982379325 0.18890381817 0.18885423667 0.18955182975 0.19083038365 0.19248963296 0.19430880955 0.19606493924 
0.19755343278 0.19860714315 0.19911055931 0.1990074179 0.19830164411 0.19705255893 0.19536561524 0.19337977524 0.19125236134 
0.18914206314 0.18719090814 0.18550647995 0.18414636596 0.18310727271 0.18232093975 0.18165782301 0.18093797591 0.17994730782 
0.17845684493 0.17624270059 0.17310484852 0.16888316952 0.16346949745 0.15681459503 0.14892930201 0.13987963174 0.12977635571 
0.11876049004 0.10698687572 0.094608479004 0.081763923379 0.068570023441 0.055119851436 0.041485479115 0.027723473818 0.01388088917 
1.3459104466e-15 
_area 1 100 double
0 0.00057041257742 0.0022768942578 0.0051045779738 0.0090264888776 0.013999809105 0.019960546309 0.026817819116 0.034450085423 
0.042705967144 0.051411340408 0.060382318211 0.069441585095 0.078434266745 0.087239669879 0.095776671015 0.10400260323 0.11190733681 
0.11950518221 0.126826984 0.13391355275 0.14080997633 0.14755894554 0.15419061235 0.16070790325 0.16707101538 0.1731908756 
0.17894175672 0.18419400197 0.18884911222 0.19283702991 0.19605008747 0.19849558392 0.20020825865 0.20096219786 0.20081590335 
0.19983109202 0.19806769689 0.1955887732 0.19245086841 0.18878630257 0.18467924669 0.18023312841 0.17503121751 0.16897339301 
0.16207859432 0.15450152461 0.14651550313 0.13848259366 0.13080881376 0.1238808849 0.11798506623 0.1132296713 0.1095281813 
0.10667769624 0.104476732 0.10279893159 0.10160124512 0.10089091628 0.10067395134 0.10089856166 0.10141597341 0.10201359323 
0.10243605894 0.10242130049 0.10190025369 0.10076025552 0.099057890801 0.09687607228 0.094242499436 0.091270016971 0.088138365203 
0.085081055586 0.082348297611 0.080167867296 0.07872009807 0.078111496222 0.078305493581 0.079000604835 0.079788862451 0.080313738608 
0.080263372468 0.079370709575 0.077430193586 0.074318439895 0.070011217508 0.064590600272 0.058238331572 0.051215122131 0.043829487862 
0.036402349756 0.029234186893 0.022580129963 0.016635766565 0.011533699552 0.0073489817549 0.0041107570323 0.0018174128133 0.00045267255146 
8.5146609726e-17 
