# vtk DataFile Version 5.1
vtk output
ASCII
DATASET POLYDATA
POINTS 100 float
0.111154 0.042839 0.666875 0.111475 0.0431029 0.666786 0.112452 0.0437385 0.666377 
0.113971 0.0447091 0.665633 0.115856 0.0459571 0.664525 0.117889 0.047409 0.663014 
0.119833 0.0489815 0.661054 0.121458 0.0505877 0.658588 0.122564 0.0521441 0.655554 
0.122999 0.0535761 0.651886 0.122671 0.0548233 0.647522 0.121555 0.0558421 0.642405 
0.119684 0.0566073 0.63649 0.117142 0.0571113 0.629746 0.114045 0.0573618 0.622164 
0.110523 0.0573783 0.613754 0.1067 0.0571874 0.60455 0.102674 0.0568178 0.594602 
0.0985082 0.0562964 0.583979 0.0942234 0.0556441 0.57276 0.0897973 0.054874 0.561028 
0.0851729 0.0539905 0.548865 0.0802695 0.0529905 0.536342 0.0749982 0.0518656 0.523519 
0.0692773 0.0506062 0.510441 0.0630466 0.0492055 0.497135 0.0562778 0.0476637 0.483613 
0.0489792 0.0459923 0.469874 0.0411956 0.0442167 0.455913 0.0330014 0.0423767 0.441718 
0.0244909 0.0405267 0.427285 0.0157642 0.0387322 0.41261 0.00691399 0.0370663 0.397699 
-0.00198647 0.0356037 0.382565 -0.0108913 0.0344145 0.367219 -0.0197852 0.0335585 0.351675 
-0.02868 0.0330792 0.335932 -0.0376069 0.0330004 0.319977 -0.0466037 0.0333236 0.303775 
-0.0556991 0.034029 0.287266 -0.064898 0.0350772 0.270366 -0.0741676 0.0364144 0.252972 
-0.0834295 0.0379783 0.234965 -0.0925559 0.0397051 0.216225 -0.101374 0.0415364 0.196642 
-0.109678 0.0434259 0.17613 -0.117242 0.0453436 0.154639 -0.123845 0.0472786 0.132166 
-0.129285 0.0492389 0.108761 -0.133409 0.0512487 0.0845297 -0.13612 0.0533433 0.0596259 
-0.137393 0.0555626 0.034245 -0.137274 0.0579427 0.00860825 -0.13588 0.0605086 -0.0170546 
-0.133381 0.0632665 -0.0425234 -0.129986 0.0661991 -0.0676058 -0.125923 0.0692626 -0.0921516 
-0.121413 0.072387 -0.116063 -0.116649 0.0754794 -0.139299 -0.111784 0.0784297 -0.161874 
-0.106919 0.0811192 -0.183845 -0.102095 0.0834297 -0.205305 -0.097304 0.0852537 -0.226364 
-0.0924945 0.0865029 -0.247127 -0.0875871 0.0871159 -0.267683 -0.0824926 0.0870626 -0.288088 
-0.0771293 0.0863457 -0.308358 -0.0714384 0.0849993 -0.328465 -0.065396 0.0830841 -0.348341 
-0.0590186 0.0806802 -0.367885 -0.052364 0.0778785 -0.386979 -0.0455258 0.0747717 -0.405503 
-0.0386242 0.0714455 -0.423349 -0.0317931 0.0679714 -0.440436 -0.0251666 0.0644022 -0.45672 
-0.0188667 0.0607696 -0.472197 -0.012993 0.0570855 -0.486902 -0.00761651 0.0533458 -0.500902 
-0.00277817 0.0495358 -0.514283 0.00150929 0.0456377 -0.527132 0.00525525 0.0416382 -0.539528 
0.00848334 0.0375346 -0.551518 0.0112227 0.0333404 -0.563113 0.0135004 0.0290879 -0.574279 
0.0153356 0.0248279 -0.584938 0.0167375 0.0206273 -0.594977 0.017706 0.016564 -0.604258 
0.0182367 0.0127192 -0.612639 0.0183267 0.0091706 -0.619991 0.0179831 0.00598385 -0.626217 
0.0172304 0.00320651 -0.631268 0.0161161 0.000863367 -0.635153 0.0147136 -0.00104548 -0.637945 
0.0131211 -0.00254357 -0.639771 0.0114572 -0.00367432 -0.640807 0.00985142 -0.00449484 -0.641256 
0.00843425 -0.00506816 -0.641331 0.00732416 -0.00545482 -0.641224 0.00661602 -0.00570488 -0.641094 
0.0063712 -0.0058513 -0.641042 
LINES 2 100
OFFSETS vtktypeint64
0 100 
CONNECTIVITY vtktypeint64
0 1 2 3 4 5 6 7 8 
9 10 11 12 13 14 15 16 17 
18 19 20 21 22 23 24 25 26 
27 28 29 30 31 32 33 34 35 
36 37 38 39 40 41 42 43 44 
45 46 47 48 49 50 51 52 53 
54 55 56 57 58 59 60 61 62 
63 64 65 66 67 68 69 70 71 
72 73 74 75 76 77 78 79 80 
81 82 83 84 85 86 87 88 89 
90 91 92 93 94 95 96 97 98 
99 
POINT_DATA 100
FIELD FieldData 3
_theta 1 100 double
0 0.031733259127 0.063466518254 0.095199777382 0.12693303651 0.15866629564 0.19039955476 0.22213281389 0.25386607302 
0.28559933214 0.31733259127 0.3490658504 0.38079910953 0.41253236865 0.44426562778 0.47599888691 0.50773214603 0.53946540516 
0.57119866429 0.60293192342 0.63466518254 0.66639844167 0.6981317008 0.72986495992 0.76159821905 0.79333147818 0.82506473731 
0.85679799643 0.88853125556 0.92026451469 0.95199777382 0.98373103294 1.0154642921 1.0471975512 1.0789308103 1.1106640695 
1.1423973286 1.1741305877 1.2058638468 1.237597106 1.2693303651 1.3010636242 1.3327968833 1.3645301425 1.3962634016 
1.4279966607 1.4597299198 1.491463179 1.5231964381 1.5549296972 1.5866629564 1.6183962155 1.6501294746 1.6818627337 
1.7135959929 1.745329252 1.7770625111 1.8087957702 1.8405290294 1.8722622885 1.9039955476 1.9357288068 1.9674620659 
1.999195325 2.0309285841 2.0626618433 2.0943951024 2.1261283615 2.1578616206 2.1895948798 2.2213281389 2.253061398 
2.2847946572 2.3165279163 2.3482611754 2.3799944345 2.4117276937 2.4434609528 2.4751942119 2.506927471 2.5386607302 
2.5703939893 2.6021272484 2.6338605076 2.6655937667 2.6973270258 2.7290602849 2.7607935441 2.7925268032 2.8242600623 
2.8559933214 2.8877265806 2.9194598397 2.9511930988 2.982926358 3.0146596171 3.0463928762 3.0781261353 3.1098593945 
3.1415926536 
_radius 1 100 double
1.4497473395e-15 0.014910290849 0.02969311929 0.044228468336 0.058417953906 0.072188448044 0.085489328426 0.098284890694 0.11054506026 
0.12223789792 0.13332630442 0.14376933601 0.15352664545 0.16256361615 0.17085503759 0.17838634134 0.18515281572 0.19115819713 
0.19641422557 0.20094214821 0.20477606929 0.20796695739 0.2105854853 0.21272195577 0.21448233548 0.21598059961 0.21732873757 
0.21862641415 0.2199521038 0.22135659885 0.22285871054 0.22444247816 0.22605560037 0.22760970892 0.22898374706 0.23003156687 
0.23059397668 0.23051433461 0.22965591646 0.2279189385 0.22525523302 0.22167894815 0.21727208008 0.21218405213 0.20662492409 
0.20085220339 0.1951517522 0.18981407355 0.18510832652 0.18125746573 0.17841830696 0.17666953952 0.17600882328 0.1763579818 
0.17757401995 0.17946378317 0.1818010699 0.18434576785 0.18686433628 0.18915002539 0.19104052393 0.19243075683 0.19327918362 
0.19360685154 0.19348944308 0.19304354268 0.19240920801 0.19173144132 0.19114306157 0.19075070459 0.1906245229 0.19079123871 
0.19123006855 0.19187166975 0.19260098396 0.19326485683 0.19368436294 0.19367041386 0.19304028768 0.19163260696 0.18931887884 
0.18601060274 0.18166180805 0.17626752371 0.16985904591 0.16249696565 0.15426280547 0.1452499186 0.13555419131 0.12526519447 
0.11445873969 0.10319210526 0.091503186529 0.079414260385 0.066939973007 0.054097904597 0.040919114247 0.027455822722 0.013784005923 
8.6312861855e-16 
_area 1 100 double
0 0.00055306801653 0.0021924090355 0.0048628158326 0.0084848597923 0.012967737775 0.01821837496 0.024143535785 0.030645259345 
0.037612899799 0.044916142821 0.052402628058 0.059902092189 0.067237018442 0.074237998828 0.080760638436 0.086700225782 0.092000902022 
0.096657648461 0.1007114889 0.10424004704 0.10734641868 0.11014880864 0.11277137083 0.11533438073 0.1179417039 0.1206665415 
0.12354070682 0.12655398187 0.12966542645 0.13282078311 0.13596588176 0.13904771905 0.14200065929 0.14472357402 0.14706101 
0.14880041512 0.14969071269 0.14948112178 0.14797058486 0.14505226247 0.14074097835 0.13517938072 0.12862448394 0.12141926938 
0.1139551822 0.10663112593 0.099813412056 0.093800236935 0.088794858887 0.084893480433 0.082093850998 0.08032409386 0.0794807893 
0.079464326305 0.080201648817 0.081611009188 0.083486780417 0.085500851672 0.087326589159 0.088706885489 0.089476502569 0.089570294287 
0.089022019613 0.087952609948 0.086547530051 0.085025330768 0.083603718273 0.082473541319 0.08178681189 0.081653087241 0.082134793971 
0.083236777864 0.084894740601 0.086973227218 0.089275653894 0.091560976878 0.093562109773 0.095005276415 0.095631185546 0.09521815214 
0.093605447191 0.090713188954 0.086554144351 0.081233718769 0.074937016518 0.067905103405 0.060405278124 0.052701487053 0.045030792274 
0.037590145733 0.030534859604 0.023986642275 0.018046202738 0.012804793057 0.0083508975162 0.0047710004758 0.002145304985 0.00054021976583 
6.0784937103e-18 
