# vtk DataFile Version 5.1
vtk output
ASCII
DATASET POLYDATA
POINTS 100 float
0.195595 -0.00888486 -0.601671 0.19525 -0.00869331 -0.601618 0.194178 -0.00827953 -0.601417 
0.192441 -0.00766521 -0.601016 0.190131 -0.00688193 -0.600331 0.187361 -0.00596465 -0.59926 
0.184251 -0.00494404 -0.597692 0.18091 -0.00383894 -0.595519 0.177422 -0.00265033 -0.59265 
0.173837 -0.0013579 -0.589015 0.170163 8.00795e-05 -0.584575 0.166366 0.00172318 -0.579321 
0.162369 0.00364199 -0.573273 0.15807 0.00590865 -0.566473 0.153348 0.00858604 -0.558978 
0.148079 0.0117171 -0.55085 0.142158 0.0153159 -0.542144 0.135505 0.0193611 -0.532903 
0.128083 0.0237945 -0.523151 0.1199 0.0285229 -0.512887 0.111013 0.0334249 -0.502093 
0.101523 0.0383613 -0.490728 0.0915637 0.0431879 -0.478744 0.0812902 0.0477693 -0.466086 
0.0708641 0.0519916 -0.452703 0.0604371 0.0557727 -0.438557 0.0501377 0.0590693 -0.423622 
0.0400603 0.0618782 -0.407894 0.0302592 0.0642336 -0.391384 0.0207486 0.0661992 -0.374118 
0.0115059 0.0678571 -0.356133 0.00248188 0.0692944 -0.337469 -0.00638704 0.0705893 -0.318163 
-0.0151643 0.0717992 -0.298246 -0.0238985 0.0729509 -0.27774 -0.0326104 0.0740364 -0.256656 
-0.0412834 0.0750123 -0.234999 -0.0498581 0.0758052 -0.21277 -0.0582326 0.0763213 -0.18998 
-0.0662671 0.0764586 -0.166649 -0.0737937 0.0761213 -0.14282 -0.0806297 0.0752339 -0.118562 
-0.0865923 0.0737526 -0.093976 -0.0915144 0.071674 -0.0691898 -0.0952589 0.0690388 -0.0443582 
-0.09773 0.06593 -0.019654 -0.098881 0.062467 0.00474279 -0.0987174 0.0587951 0.0286563 
-0.0972951 0.0550719 0.0519278 -0.094715 0.0514528 0.0744265 -0.0911132 0.0480773 0.0960591 
-0.0866495 0.0450569 0.116775 -0.0814949 0.0424667 0.136566 -0.0758186 0.0403415 0.155469 
-0.0697777 0.0386766 0.173551 -0.0635086 0.0374324 0.190907 -0.0571219 0.0365431 0.207644 
-0.0506999 0.0359276 0.223874 -0.0442984 0.0355011 0.239697 -0.0379496 0.0351863 0.255198 
-0.0316681 0.034922 0.270439 -0.0254572 0.0346696 0.285457 -0.0193151 0.0344154 0.300268 
-0.0132405 0.0341693 0.314868 -0.00723697 0.0339608 0.329239 -0.00131496 0.0338318 0.343361 
0.00450746 0.0338288 0.357212 0.010206 0.0339942 0.370782 0.0157525 0.0343594 0.384066 
0.0211187 0.0349395 0.397075 0.0262793 0.0357299 0.409828 0.0312156 0.0367068 0.422351 
0.0359173 0.0378299 0.434671 0.0403839 0.0390464 0.446812 0.0446244 0.0402979 0.458787 
0.0486558 0.0415264 0.470599 0.0525004 0.0426801 0.482234 0.0561827 0.0437189 0.493668 
0.0597257 0.0446165 0.504864 0.0631477 0.0453618 0.515781 0.0664597 0.0459579 0.526379 
0.0696639 0.0464188 0.536624 0.0727529 0.0467662 0.546493 0.0757105 0.0470249 0.555977 
0.0785136 0.0472186 0.565083 0.081135 0.047367 0.57383 0.0835463 0.0474837 0.582242 
0.0857218 0.0475754 0.590346 0.0876411 0.0476426 0.598163 0.0892923 0.0476818 0.605694 
0.0906729 0.0476875 0.612922 0.0917915 0.0476549 0.619804 0.0926663 0.0475822 0.626267 
0.0933243 0.0474719 0.632216 0.0937986 0.0473312 0.637537 0.0941252 0.0471716 0.642103 
0.0943398 0.0470075 0.645793 0.0944745 0.0468534 0.648495 0.0945544 0.0467227 0.650121 
0.0945957 0.0466245 0.650616 
LINES 2 100
OFFSETS vtktypeint64
0 100 
CONNECTIVITY vtktypeint64
0 1 2 3 4 5 6 7 8 
9 10 11 12 13 14 15 16 17 
18 19 20 21 22 23 24 25 26 
27 28 29 30 31 32 33 34 35 
36 37 38 39 40 41 42 43 44 
45 46 47 48 49 50 51 52 53 
54 55 56 57 58 59 60 61 62 
63 64 65 66 67 68 69 70 71 
72 73 74 75 76 77 78 79 80 
81 82 83 84 85 86 87 88 89 
90 91 92 93 94 95 96 97 98 
99 
POINT_DATA 100
FIELD FieldData 3
_theta 1 100 double
0 0.031733259127 0.063466518254 0.095199777382 0.12693303651 0.15866629564 0.19039955476 0.22213281389 0.25386607302 
0.28559933214 0.31733259127 0.3490658504 0.38079910953 0.41253236865 0.44426562778 0.47599888691 0.50773214603 0.53946540516 
0.57119866429 0.60293192342 0.63466518254 0.66639844167 0.6981317008 0.72986495992 0.76159821905 0.79333147818 0.82506473731 
0.85679799643 0.88853125556 0.92026451469 0.95199777382 0.98373103294 1.0154642921 1.0471975512 1.0789308103 1.1106640695 
1.1423973286 1.1741305877 1.2058638468 1.237597106 1.2693303651 1.3010636242 1.3327968833 1.3645301425 1.3962634016 
1.4279966607 1.4597299198 1.491463179 1.5231964381 1.5549296972 1.5866629564 1.6183962155 1.6501294746 1.6818627337 
1.7135959929 1.745329252 1.7770625111 1.8087957702 1.8405290294 1.8722622885 1.9039955476 1.9357288068 1.9674620659 
1.999195325 2.0309285841 2.0626618433 2.0943951024 2.1261283615 2.1578616206 2.1895948798 2.2213281389 2.253061398 
2.2847946572 2.3165279163 2.3482611754 2.3799944345 2.4117276937 2.4434609528 2.4751942119 2.506927471 2.5386607302 
2.5703939893 2.6021272484 2.6338605076 2.6655937667 2.6973270258 2.7290602849 2.7607935441 2.7925268032 2.8242600623 
2.8559933214 2.8877265806 2.9194598397 2.9511930988 2.982926358 3.0146596171 3.0463928762 3.0781261353 3.1098593945 
3.1415926536 
_radius 1 100 double
1.5565883605e-15 0.016581623949 0.032959696736 0.048946603016 0.064382657473 0.079143194288 0.093139241485 0.10631237187 0.11862572812 
0.13005402886 0.14057532642 0.15016643451 0.15880260095 0.16646067115 0.1731241349 0.17878829473 0.18346424871 0.1871811289 
0.18998672632 0.19194701886 0.19314511493 0.19367978487 0.19366325407 0.19321755948 0.19246880901 0.1915392287 0.19053774286 
0.1895506206 0.18863407331 0.18781044294 0.1870688886 0.18637057406 0.18565763693 0.18486488593 0.18393315846 0.18282328112 
0.18152928901 0.18008889831 0.17858852163 0.17716006816 0.17596815192 0.17518939864 0.17498911284 0.17550187144 0.17681983385 
0.17898796854 0.18200321917 0.1858158387 0.19033314117 0.19542640152 0.20094052414 0.20670492659 0.21254409446 0.21828729116 
0.2237778214 0.22888218784 0.23349855328 0.23756295028 0.24105143801 0.24397705611 0.24638161436 0.24832364502 0.24986489865 
0.25105819272 0.25193878099 0.25251990141 0.25279189766 0.25272407519 0.25226883068 0.25136781858 0.24995971562 0.2479886682 
0.2454120695 0.24220619861 0.23836859639 0.23391676725 0.22888364274 0.22331095568 0.21724205596 0.21071567179 0.20376171117 
0.19639954198 0.18863849248 0.18047980838 0.17191916113 0.16294905365 0.15356096291 0.14374749498 0.13350492376 0.12283616016 
0.1117536733 0.10028152728 0.08845574952 0.076322680598 0.063935541984 0.051349955321 0.038619419935 0.025791775874 0.012907467119 
8.6590002875e-16 
_area 1 100 double
0 0.00056915404295 0.0022707844391 0.0050846590687 0.0089691007729 0.013852560287 0.01962704645 0.026145466046 0.033223095363 
0.040642140974 0.048158355522 0.055509704772 0.062428173923 0.068655984031 0.073966400926 0.078187338892 0.081223890364 0.083074560951 
0.083835907869 0.083691414986 0.082881991769 0.081660354073 0.08024946487 0.078830339425 0.077546807144 0.076508941508 0.075789609327 
0.075407712427 0.075380716338 0.075700698598 0.076186274202 0.076801824884 0.077547169508 0.078408949973 0.079324859897 0.080202041987 
0.080957532041 0.081559115138 0.082055918954 0.082582524628 0.083323490782 0.08444518685 0.086041304934 0.088129207259 0.090683834383 
0.09368648563 0.097169227094 0.10123534602 0.10603224344 0.11161870645 0.11790857267 0.12475223732 0.13195569405 0.13928816515 
0.14650843882 0.15341163125 0.1598568684 0.1658356443 0.1710918956 0.17572102869 0.17948386982 0.18245324133 0.18465471152 
0.18604396127 0.18659857846 0.18633213528 0.1851997519 0.1832061452 0.18044665399 0.17705590075 0.17314638513 0.16876214408 
0.16390119314 0.15856169413 0.15275137591 0.14648250222 0.13977205661 0.13264744412 0.12515330394 0.11735562924 0.10934146118 
0.10121403305 0.093083699423 0.085055197059 0.077212865113 0.069607536545 0.062250696558 0.055120950846 0.048183278655 0.041414858933 
0.034827480424 0.028478558373 0.022468321723 0.016925870131 0.011989625485 0.0077882351363 0.0044267707469 0.0019806714705 0.00049699036368 
3.9325911053e-17 
