# vtk DataFile Version 5.1
vtk output
ASCII
DATASET POLYDATA
POINTS 100 float
0.0795707 0.036016 -0.642936 0.0794893 0.0359995 -0.643079 0.0792506 0.0361321 -0.643535 
0.0788538 0.0363986 -0.644167 0.0782973 0.0367764 -0.644764 0.0775781 0.0372382 -0.645062 
0.0766917 0.0377571 -0.644776 0.0756318 0.0383101 -0.643624 0.0743891 0.0388826 -0.641364 
0.0729511 0.0394712 -0.63781 0.0713003 0.040085 -0.632853 0.0694133 0.0407461 -0.626466 
0.0672603 0.041487 -0.618701 0.0648045 0.0423481 -0.609677 0.062003 0.0433727 -0.599563 
0.0588082 0.0446018 -0.588551 0.0551706 0.0460689 -0.576833 0.0510429 0.0477952 -0.564582 
0.0463841 0.0497858 -0.551926 0.0411647 0.0520277 -0.538943 0.0353714 0.054489 -0.525654 
0.0290109 0.057121 -0.512029 0.0221127 0.0598606 -0.497999 0.0147293 0.0626355 -0.483469 
0.00693467 0.0653693 -0.468341 -0.00117929 0.0679872 -0.452528 -0.00950924 0.0704213 -0.435974 
-0.0179476 0.0726154 -0.418662 -0.0263908 0.0745279 -0.400618 -0.0347475 0.0761336 -0.381908 
-0.0429455 0.0774232 -0.362633 -0.050936 0.078402 -0.342908 -0.0586962 0.0790868 -0.322856 
-0.0662276 0.0795019 -0.302583 -0.0735512 0.0796748 -0.282165 -0.0807003 0.0796324 -0.261644 
-0.0877101 0.0793972 -0.241016 -0.0946075 0.0789851 -0.220239 -0.1014 0.0784041 -0.199239 
-0.108068 0.0776543 -0.177923 -0.114555 0.0767297 -0.156197 -0.120771 0.0756199 -0.133981 
-0.126591 0.0743137 -0.111226 -0.131859 0.0728016 -0.0879293 -0.136406 0.0710789 -0.0641348 
-0.140055 0.0691479 -0.039939 -0.142642 0.0670194 -0.0154828 -0.144029 0.0647126 0.00905993 
-0.144115 0.0622546 0.0334976 -0.142852 0.0596784 0.057639 -0.140247 0.0570208 0.0813114 
-0.136361 0.0543195 0.104376 -0.131313 0.0516109 0.126737 -0.12526 0.0489273 0.148353 
-0.118395 0.0462961 0.169229 -0.110924 0.0437388 0.189416 -0.103053 0.0412717 0.209001 
-0.0949733 0.0389072 0.228085 -0.0868464 0.0366559 0.246777 -0.078797 0.0345286 0.265174 
-0.0709075 0.0325393 0.283349 -0.0632175 0.0307063 0.301346 -0.0557287 0.0290545 0.31917 
-0.0484127 0.0276145 0.336799 -0.0412212 0.0264228 0.354178 -0.034098 0.0255187 0.371241 
-0.0269894 0.024942 0.38791 -0.0198542 0.0247289 0.404118 -0.0126701 0.024908 0.419811 
-0.00543755 0.0254963 0.434959 0.00182062 0.0264955 0.449561 0.0090618 0.02789 0.463641 
0.0162291 0.0296456 0.477246 0.0232582 0.0317093 0.490439 0.0300843 0.0340119 0.503286 
0.0366487 0.0364708 0.515853 0.0429036 0.0389948 0.528188 0.0488151 0.0414891 0.54032 
0.054363 0.0438612 0.552251 0.05954 0.0460262 0.563955 0.0643473 0.0479121 0.575382 
0.0687914 0.0494635 0.586462 0.0728785 0.0506445 0.597111 0.0766121 0.0514395 0.607242 
0.0799897 0.0518535 0.616769 0.083003 0.0519097 0.625622 0.0856394 0.0516472 0.633745 
0.0878847 0.0511168 0.641103 0.0897281 0.0503771 0.647686 0.0911665 0.0494903 0.6535 
0.092209 0.0485179 0.658572 0.0928804 0.0475177 0.66294 0.0932219 0.0465412 0.666652 
0.0932908 0.0456319 0.669758 0.0931568 0.044825 0.672306 0.0928969 0.0441473 0.674342 
0.0925887 0.0436182 0.675903 0.0923031 0.0432506 0.677019 0.0920969 0.0430527 0.677711 
0.0920072 0.0430284 0.67799 
LINES 2 100
OFFSETS vtktypeint64
0 100 
CONNECTIVITY vtktypeint64
0 1 2 3 4 5 6 7 8 
9 10 11 12 13 14 15 16 17 
18 19 20 21 22 23 24 25 26 
27 28 29 30 31 32 33 34 35 
36 37 38 39 40 41 42 43 44 
45 46 47 48 49 50 51 52 53 
54 55 56 57 58 59 60 61 62 
63 64 65 66 67 68 69 70 71 
72 73 74 75 76 77 78 79 80 
81 82 83 84 85 86 87 88 89 
90 91 92 93 94 95 96 97 98 
99 
POINT_DATA 100
FIELD FieldData 3
_theta 1 100 double
0 0.031733259127 0.063466518254 0.095199777382 0.12693303651 0.15866629564 0.19039955476 0.22213281389 0.25386607302 
0.28559933214 0.31733259127 0.3490658504 0.38079910953 0.41253236865 0.44426562778 0.47599888691 0.50773214603 0.53946540516 
0.57119866429 0.60293192342 0.63466518254 0.66639844167 0.6981317008 0.72986495992 0.76159821905 0.79333147818 0.82506473731 
0.85679799643 0.88853125556 0.92026451469 0.95199777382 0.98373103294 1.0154642921 1.0471975512 1.0789308103 1.1106640695 
1.1423973286 1.1741305877 1.2058638468 1.237597106 1.2693303651 1.3010636242 1.3327968833 1.3645301425 1.3962634016 
1.4279966607 1.4597299198 1.491463179 1.5231964381 1.5549296972 1.5866629564 1.6183962155 1.6501294746 1.6818627337 
1.7135959929 1.745329252 1.7770625111 1.8087957702 1.8405290294 1.8722622885 1.9039955476 1.9357288068 1.9674620659 
1.999195325 2.0309285841 2.0626618433 2.0943951024 2.1261283615 2.1578616206 2.1895948798 2.2213281389 2.253061398 
2.2847946572 2.3165279163 2.3482611754 2.3799944345 2.4117276937 2.4434609528 2.4751942119 2.506927471 2.5386607302 
2.5703939893 2.6021272484 2.6338605076 2.6655937667 2.6973270258 2.7290602849 2.7607935441 2.7925268032 2.8242600623 
2.8559933214 2.8877265806 2.9194598397 2.9511930988 2.982926358 3.0146596171 3.0463928762 3.0781261353 3.1098593945 
3.1415926536 
_radius 1 100 double
7.8274291026e-16 0.014652584432 0.029192989697 0.043513414171 0.057513741556 0.071104203724 0.084206925641 0.09675626364 0.10869793359 
0.11998700346 0.13058497526 0.14045643868 0.14956607834 0.15787700989 0.16535135811 0.17195360745 0.17765661218 0.1824494119 
0.18634535779 0.18938869248 0.19165775561 0.19326343945 0.19434234168 0.19504513043 0.19552177313 0.19590624503 0.19630375742 
0.19678299035 0.19737416413 0.19807174539 0.19883943997 0.19961561507 0.2003188613 0.2008547718 0.20112530627 0.20104132262 
0.20053752431 0.19958773712 0.19821749538 0.19651066273 0.19460738874 0.19269211547 0.19097246279 0.18965235778 0.18890517541 
0.18885380254 0.18956281204 0.19104283048 0.19326147459 0.19615344598 0.1996258235 0.20355986624 0.20781349909 0.21222783578 
0.21663833378 0.22088877977 0.22484529926 0.22840772265 0.23151634204 0.23415299672 0.23633639023 0.23811247937 0.23954158276 
0.24068441013 0.24158939986 0.24228349413 0.24276778326 0.24301842976 0.24299217852 0.24263486983 0.24189092045 0.24071178218 
0.23906183465 0.23692087487 0.23428319238 0.23115401635 0.22754467813 0.2234679196 0.21893431021 0.21394994718 0.20851498754 
0.20262247937 0.19625738772 0.1893962552 0.18200817315 0.17405748745 0.16550804032 0.15632808403 0.14649465045 0.13599632607 
0.12483400732 0.11302001948 0.10057662605 0.087535158322 0.07393665087 0.059834083387 0.045295410245 0.030405912211 0.015268350007 
8.4425845464e-16 
_area 1 100 double
0 0.00058575382195 0.0023312699085 0.0052009662774 0.009134031183 0.014041770987 0.019804936024 0.026273469975 0.033270515399 
0.040600486481 0.048059224813 0.055443662027 0.062558965209 0.069222389209 0.075264570466 0.080530359679 0.084882056756 0.088207618969 
0.090434772673 0.09154922125 0.091612370877 0.090772780064 0.089267098519 0.08741007039 0.085572122476 0.084118339525 0.083295492661 
0.083190595706 0.083783829304 0.084985776401 0.086648649121 0.088576925015 0.090547955928 0.092338069607 0.093746594809 0.094615303677 
0.094842975678 0.094394425315 0.093305133893 0.091685305383 0.089723071696 0.087682858685 0.085901262582 0.084751905647 0.084579889982 
0.08541394936 0.087033025083 0.089289718019 0.092179824087 0.09578766824 0.10015311007 0.1051867182 0.11069966035 0.11645792396 
0.12222141652 0.12777172982 0.13293015328 0.13756707954 0.14160457087 0.14501427152 0.14781431141 0.15006828266 0.15187811967 
0.15336108996 0.15461658466 0.15569815051 0.15661067493 0.15728316211 0.15753457245 0.15714562362 0.15593217613 0.15378725706 
0.15070175131 0.14676823177 0.14216312674 0.137107547 0.13181315499 0.12642596844 0.12099151893 0.11546702639 0.1097736634 
0.10384621918 0.097652065056 0.091185146981 0.084452673438 0.077467228863 0.070248586088 0.062832680912 0.055281706912 0.047689586817 
0.040180130378 0.03289883184 0.02600160073 0.019644035165 0.01397351742 0.0091244190503 0.0052151109037 0.0023449875289 0.00059042713239 
1.9949319974e-17 
