# vtk DataFile Version 5.1
vtk output
ASCII
DATASET POLYDATA
POINTS 100 float
0.103639 0.0329151 0.691105 0.103766 0.0331461 0.690606 0.104194 0.0336954 0.689015 
0.104852 0.0345158 0.686422 0.105634 0.035536 0.682963 0.106414 0.0366711 0.678805 
0.107064 0.0378334 0.674127 0.107471 0.0389453 0.669101 0.107554 0.0399487 0.663869 
0.107276 0.0408136 0.65853 0.106652 0.0415411 0.653126 0.105741 0.0421629 0.647643 
0.104643 0.0427357 0.642007 0.10348 0.0433323 0.636099 0.102381 0.0440299 0.629768 
0.101456 0.0448973 0.62285 0.100782 0.0459831 0.61519 0.100383 0.0473056 0.606657 
0.100223 0.0488474 0.597167 0.100202 0.0505535 0.586689 0.100163 0.0523348 0.575254 
0.0999076 0.0540758 0.562955 0.0992102 0.0556463 0.549933 0.097846 0.0569148 0.53637 
0.0956131 0.057763 0.522472 0.0923551 0.0580982 0.508445 0.0879793 0.0578645 0.494479 
0.0824669 0.0570484 0.48073 0.0758762 0.0556815 0.467308 0.0683374 0.0538371 0.454267 
0.0600393 0.0516235 0.441605 0.0512104 0.0491735 0.429264 0.0420956 0.0466321 0.417137 
0.0329332 0.0441438 0.405085 0.0239324 0.0418404 0.392946 0.015256 0.0398317 0.38055 
0.00700848 0.038199 0.367735 -0.000767563 0.0369918 0.354354 -0.00808845 0.0362288 0.340287 
-0.0150191 0.0359015 0.325443 -0.0216579 0.0359803 0.30976 -0.0281177 0.0364215 0.293205 
-0.034507 0.0371743 0.275765 -0.0409119 0.0381877 0.257445 -0.0473821 0.0394146 0.238259 
-0.0539223 0.0408148 0.218226 -0.0604887 0.0423552 0.197364 -0.0669922 0.0440086 0.175692 
-0.0733074 0.0457512 0.153228 -0.0792837 0.0475598 0.129993 -0.0847611 0.0494087 0.106015 
-0.0895844 0.0512685 0.0813324 -0.093617 0.0531055 0.056 -0.0967516 0.0548832 0.0300911 
-0.098917 0.0565651 0.00369953 -0.100081 0.0581183 -0.0230613 -0.100248 0.0595173 -0.0500621 
-0.0994544 0.0607476 -0.0771622 -0.0977615 0.0618079 -0.104218 -0.0952457 0.0627101 -0.131088 
-0.0919904 0.0634779 -0.157645 -0.0880781 0.0641427 -0.183779 -0.0835851 0.0647376 -0.209405 
-0.0785778 0.0652913 -0.234466 -0.0731124 0.0658207 -0.25893 -0.0672356 0.066325 -0.282794 
-0.0609878 0.0667819 -0.306074 -0.0544063 0.0671455 -0.328801 -0.0475285 0.0673484 -0.351013 
-0.0403948 0.0673059 -0.372748 -0.0330499 0.0669232 -0.394034 -0.025543 0.0661053 -0.414888 
-0.0179269 0.0647669 -0.435308 -0.0102558 0.0628425 -0.455271 -0.00258312 0.0602947 -0.474737 
0.0050406 0.0571208 -0.493648 0.0125691 0.0533547 -0.511935 0.0199609 0.0490665 -0.529522 
0.0271786 0.0443574 -0.546333 0.0341871 0.039352 -0.562299 0.0409515 0.0341885 -0.57736 
0.0474344 0.0290075 -0.591474 0.0535945 0.0239413 -0.604615 0.0593852 0.0191044 -0.616775 
0.0647559 0.0145867 -0.627966 0.0696536 0.0104493 -0.638213 0.0740274 0.00672401 -0.647554 
0.0778337 0.00341555 -0.656033 0.081041 0.000506886 -0.663698 0.0836363 -0.00203427 -0.670597 
0.0856287 -0.00424804 -0.676771 0.0870522 -0.00617532 -0.682255 0.0879653 -0.00785199 -0.687076 
0.0884486 -0.00930496 -0.69125 0.088599 -0.0105505 -0.694786 0.0885221 -0.0115944 -0.697685 
0.0883229 -0.0124347 -0.699943 0.0880962 -0.0130642 -0.701555 0.0879176 -0.0134748 -0.702515 
0.0878361 -0.0136605 -0.702816 
LINES 2 100
OFFSETS vtktypeint64
0 100 
CONNECTIVITY vtktypeint64
0 1 2 3 4 5 6 7 8 
9 10 11 12 13 14 15 16 17 
18 19 20 21 22 23 24 25 26 
27 28 29 30 31 32 33 34 35 
36 37 38 39 40 41 42 43 44 
45 46 47 48 49 50 51 52 53 
54 55 56 57 58 59 60 61 62 
63 64 65 66 67 68 69 70 71 
72 73 74 75 76 77 78 79 80 
81 82 83 84 85 86 87 88 89 
90 91 92 93 94 95 96 97 98 
99 
POINT_DATA 100
FIELD FieldData 3
_theta 1 100 double
0 0.031733259127 0.063466518254 0.095199777382 0.12693303651 0.15866629564 0.19039955476 0.22213281389 0.25386607302 
0.28559933214 0.31733259127 0.3490658504 0.38079910953 0.41253236865 0.44426562778 0.47599888691 0.50773214603 0.53946540516 
0.57119866429 0.60293192342 0.63466518254 0.66639844167 0.6981317008 0.72986495992 0.76159821905 0.79333147818 0.82506473731 
0.85679799643 0.88853125556 0.92026451469 0.95199777382 0.98373103294 1.0154642921 1.0471975512 1.0789308103 1.1106640695 
1.1423973286 1.1741305877 1.2058638468 1.237597106 1.2693303651 1.3010636242 1.3327968833 1.3645301425 1.3962634016 
1.4279966607 1.4597299198 1.491463179 1.5231964381 1.5549296972 1.5866629564 1.6183962155 1.6501294746 1.6818627337 
1.7135959929 1.745329252 1.7770625111 1.8087957702 1.8405290294 1.8722622885 1.9039955476 1.9357288068 1.9674620659 
1.999195325 2.0309285841 2.0626618433 2.0943951024 2.1261283615 2.1578616206 2.1895948798 2.2213281389 2.253061398 
2.2847946572 2.3165279163 2.3482611754 2.3799944345 2.4117276937 2.4434609528 2.4751942119 2.506927471 2.5386607302 
2.5703939893 2.6021272484 2.6338605076 2.6655937667 2.6973270258 2.7290602849 2.7607935441 2.7925268032 2.8242600623 
2.8559933214 2.8877265806 2.9194598397 2.9511930988 2.982926358 3.0146596171 3.0463928762 3.0781261353 3.1098593945 
3.1415926536 
_radius 1 100 double
6.716404851e-16 0.011853195473 0.02388091066 0.036225003276 0.048976766229 0.062161559198 0.075732359862 0.08957185518 0.10350167362 
0.11729711577 0.13070589426 0.1434694276 0.1553449483 0.16612635459 0.17566171452 0.18386567787 0.19072557074 0.19630049097 
0.20071329092 0.20413597213 0.20676973623 0.20882176018 0.21048171586 0.21190193691 0.2131853155 0.21438373046 0.21550701938 
0.21653932401 0.21745762293 0.21824722465 0.2189105792 0.2194680147 0.21995096653 0.22038936959 0.22079537231 0.22114655108 
0.22137385681 0.22136042533 0.22095421337 0.21999147539 0.21832417067 0.2158447211 0.21250418565 0.20832233935 0.20338951057 
0.19786069598 0.19194292018 0.18587725631 0.17991738719 0.17430703495 0.16925902386 0.16493907105 0.16145716516 0.15886789138 
0.15717821748 0.15635832628 0.15634994523 0.15706834071 0.1583984469 0.16019076464 0.16226502635 0.16442578651 0.16648628222 
0.16829212043 0.16973775818 0.17077308789 0.1714008607 0.17166722283 0.17164804559 0.17143374124 0.17111510419 0.17077222553 
0.17046747125 0.17024205187 0.17011452846 0.17007939397 0.17010474709 0.1701295073 0.17006178984 0.16978030899 0.16913988729 
0.16798083559 0.16614089057 0.16346797762 0.159832198 0.1551357748 0.14932000563 0.14236855678 0.13430678081 0.12519719737 
0.11513180433 0.10422237465 0.092590213626 0.080356897034 0.067637240995 0.054535216437 0.041142842077 0.027541456914 0.013804385229 
3.8778805778e-16 
_area 1 100 double
0 0.00037524351742 0.0015216601114 0.0034959364092 0.0063763309971 0.010243106907 0.015157534512 0.021141499995 0.028159022872 
0.03610243131 0.044788071252 0.053966189479 0.063345403579 0.072625856653 0.08153120965 0.089831561753 0.097356205392 0.10400073971 
0.10973200657 0.11458887348 0.11867400298 0.12213385789 0.12512879241 0.1277999949 0.13024422633 0.13250733533 0.13459973967 
0.1365257641 0.13831120664 0.14001166911 0.14169182827 0.1433854037 0.14506330375 0.14663298728 0.14796835763 0.14894698727 
0.14946540999 0.14942366743 0.14870179432 0.14715673295 0.144646688 0.14107002363 0.13640045775 0.13070664033 0.12415395282 
0.11699111807 0.10952467733 0.1020862673 0.094999157926 0.088547327244 0.082945335137 0.078306503383 0.074621437615 0.071782516622 
0.069653643966 0.068121069042 0.067107801072 0.066574089667 0.066498183218 0.066843960084 0.067536020979 0.068452049049 0.069432757726 
0.070306662127 0.070920052315 0.071158623924 0.070956417267 0.070298768576 0.069224229528 0.067823867846 0.06623627727 0.064637288453 
0.063221526797 0.062174705377 0.06164192414 0.061698736178 0.062333617653 0.063448376913 0.064871508943 0.066377998713 0.067713125811 
0.068616825197 0.068845049871 0.068187954849 0.066487461562 0.063655668686 0.059691339052 0.054688523361 0.048832493672 0.042382138204 
0.035641750683 0.028927466605 0.022534457566 0.016710523479 0.011640150127 0.0074408473543 0.0041710714244 0.0018465913743 0.00046029411086 
3.024721504e-17 
