# vtk DataFile Version 5.1
vtk output
ASCII
DATASET POLYDATA
POINTS 100 float
0.0789834 0.0474992 0.60305 0.0790517 0.047673 0.602897 0.0792752 0.0480615 0.602287 
0.0796127 0.0486235 0.601209 0.0800015 0.0492965 0.599651 0.0803647 0.0500038 0.597594 
0.0806197 0.050665 0.595014 0.0806882 0.0512054 0.591883 0.0805036 0.0515654 0.588172 
0.0800183 0.0517066 0.583846 0.0792064 0.0516161 0.578875 0.0780649 0.0513059 0.573231 
0.0766106 0.0508098 0.566893 0.0748751 0.0501766 0.559852 0.0728977 0.0494626 0.552112 
0.0707176 0.0487217 0.543691 0.0683666 0.0479979 0.534625 0.0658635 0.0473184 0.524965 
0.0632106 0.0466902 0.514773 0.0603933 0.0461002 0.504125 0.0573824 0.0455178 0.493099 
0.0541395 0.0449014 0.481772 0.0506234 0.0442063 0.470219 0.0467978 0.0433934 0.458499 
0.0426388 0.0424376 0.446662 0.03814 0.0413343 0.434737 0.0333166 0.0401033 0.422737 
0.028205 0.0387886 0.410658 0.0228604 0.0374557 0.398484 0.0173511 0.0361853 0.386184 
0.0117508 0.0350646 0.373724 0.00613011 0.0341778 0.361067 0.000547652 0.0335966 0.348178 
-0.00495666 0.0333727 0.335023 -0.0103662 0.033532 0.321577 -0.0156889 0.0340733 0.307819 
-0.0209548 0.0349696 0.293731 -0.0262102 0.0361729 0.279298 -0.031509 0.0376221 0.264503 
-0.0369023 0.0392513 0.249327 -0.0424274 0.0409989 0.233747 -0.048098 0.0428158 0.217733 
-0.0538964 0.0446703 0.201254 -0.0597697 0.0465505 0.184274 -0.0656289 0.0484635 0.166765 
-0.0713534 0.0504306 0.148701 -0.0767989 0.052481 0.130074 -0.0818087 0.0546427 0.110889 
-0.0862257 0.0569343 0.0911738 -0.0899069 0.0593572 0.0709754 -0.0927347 0.0618908 0.0503632 
-0.0946273 0.0644899 0.0294235 -0.0955444 0.0670867 0.00825541 -0.0954899 0.0695959 -0.0130365 
-0.0945092 0.071922 -0.0343494 -0.0926831 0.0739695 -0.0555898 -0.0901186 0.075653 -0.0766798 
-0.0869374 0.0769063 -0.0975617 -0.0832635 0.0776892 -0.1182 -0.0792126 0.0779918 -0.138583 
-0.0748823 0.077834 -0.158714 -0.0703458 0.0772617 -0.178611 -0.0656487 0.0763397 -0.198299 
-0.0608101 0.0751424 -0.217797 -0.0558262 0.0737429 -0.237117 -0.0506767 0.072203 -0.256253 
-0.0453331 0.0705654 -0.275179 -0.0397674 0.068848 -0.293848 -0.0339598 0.0670428 -0.312192 
-0.0279057 0.065118 -0.330129 -0.0216196 0.0630247 -0.347567 -0.0151373 0.0607051 -0.364417 
-0.00851477 0.0581033 -0.380597 -0.00182485 0.0551752 -0.396042 0.0048474 0.0518978 -0.410709 
0.0114109 0.0482752 -0.424583 0.017775 0.044341 -0.437673 0.0238549 0.040157 -0.450016 
0.0295771 0.0358077 -0.461663 0.0348824 0.0313923 -0.47268 0.0397277 0.0270139 -0.483131 
0.0440863 0.0227687 -0.493078 0.0479468 0.0187365 -0.502566 0.0513112 0.0149725 -0.511623 
0.0541925 0.0115035 -0.520254 0.0566122 0.00832756 -0.528444 0.0585978 0.00541759 -0.536159 
0.0601817 0.00272836 -0.543353 0.0613994 0.000205913 -0.549975 0.0622896 -0.0022021 -0.555978 
0.0628932 -0.00453655 -0.561324 0.0632539 -0.00681883 -0.56599 0.0634169 -0.00904601 -0.569975 
0.0634291 -0.0111896 -0.573293 0.0633373 -0.0131982 -0.57598 0.0631866 -0.015004 -0.578081 
0.0630184 -0.016531 -0.579648 0.0628683 -0.0177058 -0.580732 0.0627634 -0.0184669 -0.581374 
0.0627212 -0.0187737 -0.5816 
LINES 2 100
OFFSETS vtktypeint64
0 100 
CONNECTIVITY vtktypeint64
0 1 2 3 4 5 6 7 8 
9 10 11 12 13 14 15 16 17 
18 19 20 21 22 23 24 25 26 
27 28 29 30 31 32 33 34 35 
36 37 38 39 40 41 42 43 44 
45 46 47 48 49 50 51 52 53 
54 55 56 57 58 59 60 61 62 
63 64 65 66 67 68 69 70 71 
72 73 74 75 76 77 78 79 80 
81 82 83 84 85 86 87 88 89 
90 91 92 93 94 95 96 97 98 
99 
POINT_DATA 100
FIELD FieldData 3
_theta 1 100 double
0 0.031733259127 0.063466518254 0.095199777382 0.12693303651 0.15866629564 0.19039955476 0.22213281389 0.25386607302 
0.28559933214 0.31733259127 0.3490658504 0.38079910953 0.41253236865 0.44426562778 0.47599888691 0.50773214603 0.53946540516 
0.57119866429 0.60293192342 0.63466518254 0.66639844167 0.6981317008 0.72986495992 0.76159821905 0.79333147818 0.82506473731 
0.85679799643 0.88853125556 0.92026451469 0.95199777382 0.98373103294 1.0154642921 1.0471975512 1.0789308103 1.1106640695 
1.1423973286 1.1741305877 1.2058638468 1.237597106 1.2693303651 1.3010636242 1.3327968833 1.3645301425 1.3962634016 
1.4279966607 1.4597299198 1.491463179 1.5231964381 1.5549296972 1.5866629564 1.6183962155 1.6501294746 1.6818627337 
1.7135959929 1.745329252 1.7770625111 1.8087957702 1.8405290294 1.8722622885 1.9039955476 1.9357288068 1.9674620659 
1.999195325 2.0309285841 2.0626618433 2.0943951024 2.1261283615 2.1578616206 2.1895948798 2.2213281389 2.253061398 
2.2847946572 2.3165279163 2.3482611754 2.3799944345 2.4117276937 2.4434609528 2.4751942119 2.506927471 2.5386607302 
2.5703939893 2.6021272484 2.6338605076 2.6655937667 2.6973270258 2.7290602849 2.7607935441 2.7925268032 2.8242600623 
2.8559933214 2.8877265806 2.9194598397 2.9511930988 2.982926358 3.0146596171 3.0463928762 3.0781261353 3.1098593945 
3.1415926536 
_radius 1 100 double
4.477603234e-16 0.011408233349 0.022784329792 0.034092164341 0.045296930606 0.056362806797 0.067248789051 0.077904464682 0.08826790567 
0.098267285356 0.10782654169 0.11687401046 0.12535198361 0.13322489404 0.14048425915 0.14714938694 0.15326385262 0.15888862798 
0.16409332143 0.16894718423 0.17351135208 0.17783329689 0.18194381926 0.18585633494 0.18956788996 0.19306135573 0.19630850594 
0.19927391855 0.2019196288 0.20421012442 0.2061168434 0.2076211598 0.2087151123 0.2093997387 0.20968154144 0.20956807557 
0.20906381521 0.20816734325 0.20687061697 0.20516069051 0.2030238908 0.20045206243 0.19745010684 0.19404364921 0.19028534331 
0.18625821136 0.18207468244 0.1778707293 0.17379561606 0.16999892954 0.16661731996 0.16376336241 0.16151811949 0.15992764539 
0.15900237607 0.15871769848 0.15901440157 0.15979913339 0.16094668163 0.16230663606 0.16371592422 0.16501623944 0.16607304549 
0.16679202913 0.16712970394 0.16709649674 0.16675223062 0.16619509771 0.16554596755 0.16493027761 0.16445986432 0.16421693093 
0.16424190004 0.16452621567 0.16501043741 0.16558743422 0.16611017875 0.16640338935 0.166277922 0.16554644271 0.16403871552 
0.16161494695 0.15817599013 0.15366967223 0.14809292335 0.14148970033 0.13394495398 0.12557515732 0.11651624966 0.10691025134 
0.096892183153 0.086579129377 0.076063130503 0.065408966032 0.054656855373 0.04382894244 0.032937531047 0.021992737052 0.011007639813 
1.41902881e-16 
_area 1 100 double
0 0.00037771316812 0.0015031193593 0.0033533422836 0.0058909218429 0.0090637605245 0.012804092153 0.017027383113 0.021633283227 
0.026510755897 0.031547775033 0.036643176864 0.041716350581 0.04671136367 0.051595344394 0.056353318665 0.060981463522 0.065479802268 
0.069845755378 0.074070964383 0.078143459589 0.08205498059 0.085810501824 0.089435294201 0.092974551961 0.096482303294 0.10000124686 
0.10354153179 0.10706828386 0.11050274163 0.11373552441 0.11664676156 0.11912632963 0.12108827206 0.12247650152 0.1232624093 
0.12343728813 0.12300308978 0.12196456726 0.12032497766 0.11808657217 0.11525604828 0.1118538678 0.107924978 0.10354754554 
0.098836490135 0.093940082395 0.089030022913 0.084287137562 0.079885347579 0.075976130472 0.07267521777 0.070053239888 0.06813192787 
0.066886400782 0.066251468251 0.066128262653 0.066389710251 0.06688678739 0.067458566373 0.067947304975 0.068216731928 0.068169600229 
0.067761273402 0.067007996841 0.06598854346 0.064836266731 0.063715499336 0.062780183846 0.062143203267 0.061883772281 0.062045603555 
0.062604253791 0.063494023897 0.064632277229 0.065913575422 0.067204215833 0.068343597277 0.06915265035 0.069448051125 0.069059809174 
0.067849539492 0.06572724518 0.06266488553 0.058704739006 0.053960112623 0.04860639258 0.042862293019 0.036963939623 0.031136982543 
0.02557312298 0.02041652611 0.015762501556 0.011666549676 0.0081585369174 0.0052562262625 0.0029743810524 0.00132835511 0.00033314026176 
4.3368086899e-19 
