# vtk DataFile Version 5.1
vtk output
ASCII
DATASET POLYDATA
POINTS 100 float
0.143515 0.029906 0.615607 0.143483 0.0300784 0.615496 0.143454 0.030432 0.615045 
0.143395 0.0309594 0.614253 0.143256 0.03165 0.613111 0.142976 0.03249 0.611606 
0.142491 0.0334625 0.609715 0.14174 0.034548 0.607404 0.140675 0.0357237 0.604622 
0.139261 0.0369638 0.601312 0.137486 0.0382394 0.597405 0.135352 0.039518 0.592833 
0.132876 0.0407637 0.587533 0.130085 0.0419378 0.581458 0.127007 0.0429991 0.574581 
0.123664 0.0439054 0.566905 0.120069 0.0446152 0.558466 0.116219 0.0450898 0.54933 
0.112094 0.0452959 0.539591 0.107661 0.0452082 0.529364 0.102878 0.0448123 0.51877 
0.0977016 0.0441069 0.507929 0.0920936 0.0431052 0.496941 0.0860311 0.0418361 0.485881 
0.0795126 0.0403436 0.474785 0.072563 0.0386857 0.463648 0.0652343 0.0369312 0.452427 
0.0576036 0.0351571 0.441043 0.0497668 0.0334435 0.429391 0.0418297 0.0318694 0.417356 
0.0338971 0.030508 0.404825 0.0260622 0.0294224 0.391702 0.0183959 0.0286627 0.377918 
0.0109402 0.028263 0.363439 0.00370407 0.0282415 0.34827 -0.00333574 0.0286001 0.332451 
-0.0102291 0.0293267 0.31605 -0.0170433 0.0303978 0.29915 -0.0238511 0.031782 0.281839 
-0.0307163 0.0334436 0.264192 -0.0376808 0.0353466 0.24626 -0.0447528 0.0374573 0.228064 
-0.0518993 0.039747 0.209587 -0.0590421 0.0421926 0.19078 -0.0660604 0.0447769 0.171564 
-0.0727981 0.0474872 0.151849 -0.0790747 0.0503134 0.131542 -0.0847012 0.0532455 0.110565 
-0.0894955 0.0562702 0.0888709 -0.0932988 0.0593689 0.0664536 -0.0959896 0.0625155 0.0433539 
-0.097493 0.0656749 0.0196609 -0.0977866 0.0688029 -0.0044934 -0.0968998 0.0718472 -0.0289449 
-0.0949086 0.0747491 -0.0535118 -0.0919256 0.077446 -0.0780112 -0.0880875 0.0798749 -0.102275 
-0.0835401 0.0819751 -0.126166 -0.0784242 0.0836915 -0.149583 -0.0728632 0.0849774 -0.172472 
-0.066954 0.0857955 -0.194817 -0.0607619 0.0861197 -0.216641 -0.0543198 0.0859344 -0.237986 
-0.0476323 0.085234 -0.258907 -0.0406826 0.0840214 -0.279451 -0.033442 0.0823065 -0.299651 
-0.0258803 0.0801041 -0.319509 -0.0179764 0.0774323 -0.338999 -0.00972609 0.0743112 -0.358062 
-0.00114796 0.0707626 -0.376621 0.00771407 0.0668094 -0.394582 0.0167917 0.0624762 -0.411857 
0.0259962 0.0577905 -0.428372 0.0352244 0.0527832 -0.44408 0.044366 0.04749 -0.458974 
0.0533116 0.0419524 -0.47308 0.0619595 0.0362174 -0.486464 0.0702208 0.0303382 -0.499216 
0.0780232 0.0243725 -0.511438 0.085312 0.0183818 -0.523227 0.0920492 0.0124291 -0.534657 
0.0982112 0.00657691 -0.545763 0.103786 0.000884626 -0.556532 0.108768 -0.00459329 -0.566896 
0.11316 -0.00980935 -0.57674 0.116965 -0.0147243 -0.585908 0.120192 -0.0193081 -0.594222 
0.122851 -0.0235396 -0.601506 0.124962 -0.0274065 -0.607607 0.126552 -0.0309041 -0.612422 
0.127658 -0.034034 -0.615913 0.128333 -0.0368028 -0.618118 0.12864 -0.0392202 -0.619159 
0.128654 -0.0412977 -0.61923 0.128461 -0.0430472 -0.618582 0.128145 -0.0444803 -0.617503 
0.127792 -0.0456068 -0.616285 0.127476 -0.046435 -0.615195 0.127256 -0.0469709 -0.614448 
0.127168 -0.0472176 -0.614184 
LINES 2 100
OFFSETS vtktypeint64
0 100 
CONNECTIVITY vtktypeint64
0 1 2 3 4 5 6 7 8 
9 10 11 12 13 14 15 16 17 
18 19 20 21 22 23 24 25 26 
27 28 29 30 31 32 33 34 35 
36 37 38 39 40 41 42 43 44 
45 46 47 48 49 50 51 52 53 
54 55 56 57 58 59 60 61 62 
63 64 65 66 67 68 69 70 71 
72 73 74 75 76 77 78 79 80 
81 82 83 84 85 86 87 88 89 
90 91 92 93 94 95 96 97 98 
99 
POINT_DATA 100
FIELD FieldData 3
_theta 1 100 double
0 0.031733259127 0.063466518254 0.095199777382 0.12693303651 0.15866629564 0.19039955476 0.22213281389 0.25386607302 
0.28559933214 0.31733259127 0.3490658504 0.38079910953 0.41253236865 0.44426562778 0.47599888691 0.50773214603 0.53946540516 
0.57119866429 0.60293192342 0.63466518254 0.66639844167 0.6981317008 0.72986495992 0.76159821905 0.79333147818 0.82506473731 
0.85679799643 0.88853125556 0.92026451469 0.95199777382 0.98373103294 1.0154642921 1.0471975512 1.0789308103 1.1106640695 
1.1423973286 1.1741305877 1.2058638468 1.237597106 1.2693303651 1.3010636242 1.3327968833 1.3645301425 1.3962634016 
1.4279966607 1.4597299198 1.491463179 1.5231964381 1.5549296972 1.5866629564 1.6183962155 1.6501294746 1.6818627337 
1.7135959929 1.745329252 1.7770625111 1.8087957702 1.8405290294 1.8722622885 1.9039955476 1.9357288068 1.9674620659 
1.999195325 2.0309285841 2.0626618433 2.0943951024 2.1261283615 2.1578616206 2.1895948798 2.2213281389 2.253061398 
2.2847946572 2.3165279163 2.3482611754 2.3799944345 2.4117276937 2.4434609528 2.4751942119 2.506927471 2.5386607302 
2.5703939893 2.6021272484 2.6338605076 2.6655937667 2.6973270258 2.7290602849 2.7607935441 2.7925268032 2.8242600623 
2.8559933214 2.8877265806 2.9194598397 2.9511930988 2.982926358 3.0146596171 3.0463928762 3.0781261353 3.1098593945 
3.1415926536 
_radius 1 100 double
1.470918671e-15 0.016004583963 0.031866989513 0.047451632169 0.062639205181 0.077332917093 0.091462454832 0.10498518144 0.11788437211 
0.13016468324 0.14184549247 0.15295315054 0.16351342165 0.17354534574 0.18305740609 0.19204632725 0.20049825429 0.20839166747 
0.21570125858 0.22240209899 0.22847363912 0.23390326309 0.2386891955 0.24284250363 0.24638780737 0.24936220483 0.2518119852 
0.2537870526 0.25533363053 0.25648655656 0.25726294457 0.25765885979 0.25764989344 0.2571954748 0.25624589764 0.25475067597 
0.25266699073 0.24996743561 0.24664674126 0.24272742568 0.23826426633 0.23334714323 0.22810133661 0.22268404592 0.21727601137 
0.21206787044 0.20724229168 0.20295468414 0.19931666923 0.19638664801 0.19417021016 0.19263013948 0.19170251902 0.19131341146 
0.19139080186 0.19186881022 0.19268448855 0.19377044514 0.19504801284 0.19642512804 0.19780074576 0.19907465365 0.20015944356 
0.20099096539 0.20153461537 0.20178650137 0.2017700776 0.20152975474 0.20112314486 0.20061318765 0.20006078717 0.19951810038 
0.19902243371 0.19859081489 0.19821558313 0.19786158298 0.19746557018 0.19693815656 0.1961681422 0.19502866038 0.19338440944 
0.19109934815 0.18804439241 0.1841047111 0.17918618609 0.17322057114 0.16616892518 0.15802301898 0.14880460104 0.13856263386 
0.12736884396 0.11531213308 0.10249253643 0.089015454511 0.074986806513 0.060509556989 0.045681789229 0.030596211679 0.0153407746 
5.5452185633e-16 
_area 1 100 double
0 0.00063363573367 0.0025076699362 0.0055448011944 0.0096267434293 0.014608333678 0.020334098256 0.026654680533 0.03344057344 
0.04059102692 0.048036696488 0.055735523675 0.063662579782 0.071796144376 0.08010367306 0.088531668536 0.097002165866 0.10541596938 
0.11366044508 0.12161915239 0.12918203507 0.13625655941 0.14278003975 0.14873114088 0.15413585729 0.15906236894 0.16360183186 
0.16783849777 0.17181902853 0.17553183676 0.17890194795 0.1818006707 0.18406600165 0.18552829175 0.18603521 0.18547090846 
0.18376678264 0.18090457488 0.17691532329 0.17187835786 0.16592271864 0.15923007653 0.15203532906 0.14461991736 0.13729406863 
0.13036758495 0.1241138759 0.11873639143 0.11434591085 0.11094923915 0.10844453136 0.10663258278 0.10526849812 0.10413821159 
0.10310284215 0.10209330532 0.10108063707 0.10004849558 0.098983658129 0.097887894625 0.096796391681 0.095771729579 0.094849399013 
0.09396803366 0.092975771383 0.091719140832 0.090119890299 0.088195033015 0.086042676545 0.083821191492 0.081728347183 0.080007452302 
0.078862910095 0.078419091336 0.078648512092 0.079415067167 0.080528599268 0.081791794724 0.083015759321 0.084018448481 0.084620156051 
0.084642089646 0.083911070626 0.082271763951 0.079605109061 0.075848406828 0.07101096419 0.065180565436 0.058519275016 0.051250086796 
0.043637560257 0.035965929587 0.028517811302 0.02155600763 0.015310165519 0.0099691795633 0.0056791905049 0.0025459660584 0.00063968601667 
2.602085214e-17 
