# vtk DataFile Version 5.1
vtk output
ASCII
DATASET POLYDATA
POINTS 100 float
0.0948042 0.00939279 -0.723973 0.0946504 0.00928846 -0.723314 0.0941889 0.0091278 -0.721474 
0.093403 0.00893742 -0.718465 0.0922661 0.00875964 -0.714312 0.090743 0.00865015 -0.709047 
0.0887918 0.00867493 -0.702715 0.0863664 0.00890618 -0.69537 0.08342 0.00941757 -0.68708 
0.0799095 0.010279 -0.677917 0.0758004 0.011551 -0.66796 0.0710717 0.0132792 -0.657287 
0.0657212 0.0154895 -0.645966 0.0597693 0.0181841 -0.634057 0.0532617 0.0213388 -0.621599 
0.0462699 0.0249026 -0.608612 0.0388893 0.0287987 -0.595095 0.0312348 0.0329282 -0.581027 
0.0234338 0.0371755 -0.566375 0.0156172 0.041415 -0.551097 0.00790899 0.0455198 -0.535155 
0.000415928 0.0493698 -0.518524 -0.00678224 0.0528604 -0.501194 -0.0136405 0.0559091 -0.483185 
-0.0201531 0.0584609 -0.464541 -0.0263544 0.0604912 -0.445335 -0.0323157 0.0620059 -0.425658 
-0.0381373 0.0630388 -0.405611 -0.0439373 0.0636465 -0.385295 -0.0498381 0.0639015 -0.364793 
-0.0559507 0.0638837 -0.344161 -0.0623598 0.0636722 -0.323418 -0.0691104 0.0633369 -0.302537 
-0.0761976 0.0629323 -0.281446 -0.083561 0.0624928 -0.260037 -0.0910841 0.0620314 -0.238171 
-0.0985989 0.06154 -0.2157 -0.105896 0.0609936 -0.192487 -0.11274 0.0603557 -0.168422 
-0.118882 0.0595852 -0.143446 -0.124083 0.0586444 -0.117565 -0.12813 0.0575063 -0.090857 
-0.130849 0.0561601 -0.0634785 -0.132119 0.0546156 -0.0356551 -0.13188 0.0529044 -0.00766826 
-0.130133 0.0510788 0.0201649 -0.126937 0.0492075 0.0475169 -0.122404 0.0473702 0.0740765 
-0.116684 0.0456499 0.0995748 -0.109954 0.0441247 0.123806 -0.102403 0.0428603 0.146646 
-0.0942153 0.0419035 0.168055 -0.0855643 0.0412775 0.18808 -0.0765989 0.04098 0.206847 
-0.0674404 0.0409839 0.224537 -0.0581807 0.0412402 0.241374 -0.048884 0.0416838 0.257593 
-0.0395919 0.0422402 0.273417 -0.0303292 0.0428338 0.28904 -0.021112 0.043395 0.304609 
-0.0119538 0.0438675 0.320211 -0.00287162 0.0442133 0.335879 0.00611035 0.0444156 0.351592 
0.0149591 0.0444793 0.367288 0.0236338 0.0444293 0.382881 0.0320883 0.0443064 0.398276 
0.040275 0.0441617 0.413386 0.0481504 0.0440497 0.428147 0.055679 0.0440224 0.442525 
0.0628374 0.0441222 0.456524 0.0696168 0.0443778 0.470175 0.0760237 0.0448005 0.483538 
0.0820781 0.0453837 0.496685 0.0878112 0.0461032 0.509686 0.0932605 0.0469205 0.522601 
0.0984649 0.0477871 0.535461 0.103459 0.0486496 0.548266 0.108271 0.0494559 0.56098 
0.112912 0.05016 0.573531 0.117385 0.050727 0.585818 0.121672 0.0511363 0.597723 
0.125748 0.0513831 0.609122 0.129573 0.0514783 0.619898 0.133102 0.051447 0.629953 
0.136292 0.0513251 0.639216 0.139102 0.0511553 0.64765 0.1415 0.0509827 0.655252 
0.143467 0.0508493 0.662051 0.145001 0.0507905 0.668097 0.146117 0.0508311 0.673458 
0.146846 0.0509834 0.678203 0.147236 0.0512461 0.682398 0.147344 0.0516049 0.686097 
0.14724 0.0520343 0.689333 0.146993 0.0525007 0.692123 0.146677 0.0529658 0.694464 
0.146354 0.0533911 0.696342 0.14608 0.0537413 0.697733 0.145898 0.0539888 0.698616 
0.145833 0.0541159 0.698973 
LINES 2 100
OFFSETS vtktypeint64
0 100 
CONNECTIVITY vtktypeint64
0 1 2 3 4 5 6 7 8 
9 10 11 12 13 14 15 16 17 
18 19 20 21 22 23 24 25 26 
27 28 29 30 31 32 33 34 35 
36 37 38 39 40 41 42 43 44 
45 46 47 48 49 50 51 52 53 
54 55 56 57 58 59 60 61 62 
63 64 65 66 67 68 69 70 71 
72 73 74 75 76 77 78 79 80 
81 82 83 84 85 86 87 88 89 
90 91 92 93 94 95 96 97 98 
99 
POINT_DATA 100
FIELD FieldData 3
_theta 1 100 double
0 0.031733259127 0.063466518254 0.095199777382 0.12693303651 0.15866629564 0.19039955476 0.22213281389 0.25386607302 
0.28559933214 0.31733259127 0.3490658504 0.38079910953 0.41253236865 0.44426562778 0.47599888691 0.50773214603 0.53946540516 
0.57119866429 0.60293192342 0.63466518254 0.66639844167 0.6981317008 0.72986495992 0.76159821905 0.79333147818 0.82506473731 
0.85679799643 0.88853125556 0.92026451469 0.95199777382 0.98373103294 1.0154642921 1.0471975512 1.0789308103 1.1106640695 
1.1423973286 1.1741305877 1.2058638468 1.237597106 1.2693303651 1.3010636242 1.3327968833 1.3645301425 1.3962634016 
1.4279966607 1.4597299198 1.491463179 1.5231964381 1.5549296972 1.5866629564 1.6183962155 1.6501294746 1.6818627337 
1.7135959929 1.745329252 1.7770625111 1.8087957702 1.8405290294 1.8722622885 1.9039955476 1.9357288068 1.9674620659 
1.999195325 2.0309285841 2.0626618433 2.0943951024 2.1261283615 2.1578616206 2.1895948798 2.2213281389 2.253061398 
2.2847946572 2.3165279163 2.3482611754 2.3799944345 2.4117276937 2.4434609528 2.4751942119 2.506927471 2.5386607302 
2.5703939893 2.6021272484 2.6338605076 2.6655937667 2.6973270258 2.7290602849 2.7607935441 2.7925268032 2.8242600623 
2.8559933214 2.8877265806 2.9194598397 2.9511930988 2.982926358 3.0146596171 3.0463928762 3.0781261353 3.1098593945 
3.1415926536 
_radius 1 100 double
1.5709546995e-16 0.013265760973 0.026348143532 0.039087191244 0.051352728542 0.063051936968 0.074130210753 0.084565407544 0.094357204213 
0.10351450091 0.11204412777 0.11994331418 0.12719693844 0.13377927095 0.13965925577 0.14480828012 0.1492094626 0.1528673898 
0.15581685563 0.15812871758 0.15991086243 0.16130280222 0.1624636572 0.16355491787 0.16472083914 0.16607001525 0.16766134573 
0.16949651488 0.17151989972 0.17362571504 0.17567077839 0.17748997743 0.17891205382 0.1797756248 0.17994682854 0.17933893336 
0.17793163498 0.17578554498 0.17304693305 0.16993958414 0.16674424038 0.1637699876 0.16132391376 0.15968422497 0.15907870614 
0.15966723363 0.16152647264 0.16463811214 0.16888589174 0.17406549086 0.17990559162 0.18609493495 0.1923111109 0.19824859198 
0.20364400516 0.20829646882 0.2120809704 0.21495353564 0.21694813979 0.21816650193 0.21876263288 0.21892405361 0.21885117518 
0.21873594719 0.21874092837 0.21898041498 0.21950592049 0.22029875346 0.22127213243 0.22228366094 0.22315624717 0.2237030138 
0.22375089982 0.22315878874 0.22182813234 0.21970603841 0.21678209501 0.21308078677 0.20865142177 0.2035572531 0.19786512925 
0.19163665989 0.18492159491 0.17775386935 0.17015049313 0.1621130966 0.15363150204 0.14468832981 0.13526356393 0.1253382952 
0.11489742916 0.10393172256 0.092439802232 0.080430680735 0.067926804208 0.054967119262 0.041609302571 0.027930291756 0.014024553844 
7.6192971699e-16 
_area 1 100 double
0 0.00049268546527 0.0019417209729 0.0042644949162 0.0073370524482 0.011011029586 0.015130873627 0.019547042986 0.024122820761 
0.028735510711 0.033275101208 0.037643410304 0.041754972497 0.045539434768 0.048944891931 0.051941798715 0.054526879661 0.056725642583 
0.058591415324 0.060199096189 0.061633796937 0.062978724399 0.06430894498 0.065692472028 0.067192956735 0.068867133292 0.070754192963 
0.072859484246 0.075138532422 0.077490921242 0.079773587344 0.081829494911 0.083516611545 0.084728516933 0.085405876353 0.08554086897 
0.085177387581 0.084407240541 0.083359817694 0.082183171119 0.081020877948 0.079998144314 0.079233281874 0.07888603553 0.079232189034 
0.080482656088 0.082644120405 0.085755561484 0.089841263755 0.094837575175 0.10058062391 0.10683574959 0.11333172074 0.11977624811 
0.12586108365 0.13128350614 0.13578956818 0.13921993558 0.1415350866 0.14281012232 0.14320698175 0.14294052942 0.14223953397 
0.1413099382 0.14033144107 0.13946837314 0.13885950891 0.13858523258 0.13863348773 0.13888656622 0.13913970825 0.13914397352 
0.13865498975 0.13747181789 0.13545895549 0.1325523064 0.12875386077 0.12412010661 0.11874769097 0.11275827421 0.10628370275 
0.099452651953 0.092380311319 0.085162745131 0.077876666764 0.070583630571 0.063336035099 0.056182029969 0.049167860169 0.042338555432 
0.03573949622 0.029420884283 0.02344479294 0.017892133381 0.012866128973 0.008489817077 0.0048969272625 0.0022174542801 0.00056078589973 
6.0928875878e-17 
