# vtk DataFile Version 5.1
vtk output
ASCII
DATASET POLYDATA
POINTS 100 float
0.0349436 -0.0233878 -0.664796 0.0350202 -0.0236329 -0.664402 0.0352325 -0.0242087 -0.663331 
0.0355436 -0.0250261 -0.661602 0.0358964 -0.0259463 -0.659243 0.0362189 -0.0267954 -0.656289 
0.0364315 -0.0273837 -0.652775 0.0364538 -0.0275252 -0.648727 0.036212 -0.0270574 -0.644166 
0.0356443 -0.0258573 -0.639093 0.0347052 -0.0238532 -0.633494 0.0333674 -0.0210299 -0.627341 
0.0316216 -0.0174289 -0.620586 0.0294746 -0.0131411 -0.613173 0.0269459 -0.00829608 -0.605038 
0.0240634 -0.00304729 -0.596115 0.0208592 0.00244392 -0.586345 0.0173656 0.00802357 -0.57568 
0.0136132 0.0135579 -0.564086 0.009629 0.0189427 -0.551548 0.00543705 0.0241075 -0.538071 
0.00106017 0.0290157 -0.52368 -0.00347763 0.0336598 -0.508418 -0.00814829 0.0380537 -0.492342 
-0.0129171 0.042223 -0.475519 -0.0177411 0.0461945 -0.458024 -0.0225688 0.0499879 -0.439931 
-0.0273416 0.053609 -0.421316 -0.0319965 0.0570461 -0.402245 -0.0364707 0.0602707 -0.382776 
-0.0407065 0.0632408 -0.362959 -0.0446561 0.0659073 -0.34283 -0.0482867 0.0682216 -0.322411 
-0.0515831 0.0701437 -0.301714 -0.0545487 0.0716496 -0.280738 -0.0572048 0.0727358 -0.259472 
-0.0595862 0.0734222 -0.237895 -0.0617362 0.0737506 -0.21598 -0.0636989 0.0737812 -0.193698 
-0.0655118 0.0735862 -0.171022 -0.0671978 0.0732418 -0.147931 -0.0687594 0.0728203 -0.124416 
-0.0701739 0.0723824 -0.100487 -0.071393 0.0719714 -0.076175 -0.0723437 0.0716102 -0.0515398 
-0.0729333 0.0713007 -0.0266702 -0.073057 0.0710263 -0.00168524 -0.072607 0.0707566 0.0232688 
-0.0714825 0.0704534 0.0480231 -0.0695996 0.0700781 0.0723949 -0.0668996 0.0695973 0.0961979 
-0.0633553 0.0689889 0.119254 -0.0589739 0.0682444 0.141406 -0.0537966 0.0673701 0.162531 
-0.0478954 0.0663854 0.182548 -0.0413658 0.0653193 0.201426 -0.034319 0.0642059 0.219188 
-0.0268714 0.0630786 0.235908 -0.0191356 0.0619657 0.251707 -0.0112114 0.0608866 0.266739 
-0.0031794 0.05985 0.281182 0.00490281 0.0588538 0.295218 0.0130011 0.0578875 0.309019 
0.0211028 0.0569353 0.322734 0.029211 0.0559809 0.336477 0.0373383 0.0550118 0.350315 
0.0454985 0.054023 0.364273 0.0536984 0.0530194 0.37833 0.0619309 0.052016 0.392432 
0.07017 0.0510361 0.406499 0.0783677 0.050108 0.420442 0.086454 0.0492596 0.434175 
0.0943397 0.0485131 0.447628 0.101921 0.0478793 0.460759 0.109088 0.0473541 0.47356 
0.115729 0.0469155 0.486054 0.121743 0.0465246 0.498296 0.127043 0.0461279 0.510358 
0.131566 0.0456631 0.522322 0.135273 0.0450656 0.534263 0.138156 0.0442767 0.546234 
0.140233 0.0432512 0.558256 0.141549 0.0419643 0.570307 0.14217 0.0404156 0.582321 
0.14218 0.0386306 0.594187 0.141674 0.0366595 0.605758 0.140753 0.0345725 0.616865 
0.139518 0.0324526 0.627329 0.138066 0.0303874 0.636983 0.136487 0.0284593 0.645684 
0.134861 0.0267379 0.653327 0.133255 0.025273 0.659858 0.131726 0.0240906 0.665276 
0.130321 0.0231922 0.669629 0.129077 0.0225572 0.673008 0.12802 0.0221482 0.675531 
0.127171 0.0219179 0.67733 0.126546 0.0218179 0.678531 0.126154 0.0218066 0.679237 
0.126001 0.0218557 0.679517 
LINES 2 100
OFFSETS vtktypeint64
0 100 
CONNECTIVITY vtktypeint64
0 1 2 3 4 5 6 7 8 
9 10 11 12 13 14 15 16 17 
18 19 20 21 22 23 24 25 26 
27 28 29 30 31 32 33 34 35 
36 37 38 39 40 41 42 43 44 
45 46 47 48 49 50 51 52 53 
54 55 56 57 58 59 60 61 62 
63 64 65 66 67 68 69 70 71 
72 73 74 75 76 77 78 79 80 
81 82 83 84 85 86 87 88 89 
90 91 92 93 94 95 96 97 98 
99 
POINT_DATA 100
FIELD FieldData 3
_theta 1 100 double
0 0.031733259127 0.063466518254 0.095199777382 0.12693303651 0.15866629564 0.19039955476 0.22213281389 0.25386607302 
0.28559933214 0.31733259127 0.3490658504 0.38079910953 0.41253236865 0.44426562778 0.47599888691 0.50773214603 0.53946540516 
0.57119866429 0.60293192342 0.63466518254 0.66639844167 0.6981317008 0.72986495992 0.76159821905 0.79333147818 0.82506473731 
0.85679799643 0.88853125556 0.92026451469 0.95199777382 0.98373103294 1.0154642921 1.0471975512 1.0789308103 1.1106640695 
1.1423973286 1.1741305877 1.2058638468 1.237597106 1.2693303651 1.3010636242 1.3327968833 1.3645301425 1.3962634016 
1.4279966607 1.4597299198 1.491463179 1.5231964381 1.5549296972 1.5866629564 1.6183962155 1.6501294746 1.6818627337 
1.7135959929 1.745329252 1.7770625111 1.8087957702 1.8405290294 1.8722622885 1.9039955476 1.9357288068 1.9674620659 
1.999195325 2.0309285841 2.0626618433 2.0943951024 2.1261283615 2.1578616206 2.1895948798 2.2213281389 2.253061398 
2.2847946572 2.3165279163 2.3482611754 2.3799944345 2.4117276937 2.4434609528 2.4751942119 2.506927471 2.5386607302 
2.5703939893 2.6021272484 2.6338605076 2.6655937667 2.6973270258 2.7290602849 2.7607935441 2.7925268032 2.8242600623 
2.8559933214 2.8877265806 2.9194598397 2.9511930988 2.982926358 3.0146596171 3.0463928762 3.0781261353 3.1098593945 
3.1415926536 
_radius 1 100 double
7.7941417277e-16 0.011759467485 0.02356085352 0.035433234935 0.047378909598 0.059362550171 0.071304136245 0.083077241377 0.094513782395 
0.10541541216 0.11557059894 0.12477539884 0.13285523242 0.13968473339 0.14520294246 0.14942170698 0.15242601797 0.15436606719 
0.15544192283 0.15588277722 0.15592356079 0.15578216754 0.15564044837 0.15563145279 0.15583424248 0.15627617989 0.15694118769 
0.1577814336 0.15872962804 0.15970982123 0.16064590668 0.16146813606 0.16211816233 0.1625526628 0.16274526665 0.16268676195 
0.16238409922 0.16185903101 0.16114706375 0.16029681307 0.15936915465 0.15843520034 0.15757250573 0.1568600441 0.15637373598 
0.15618471078 0.15636141535 0.1569744929 0.15810103326 0.15982362589 0.16222077273 0.16534886761 0.16922056362 0.17378691953 
0.17892932274 0.18446320176 0.19015198303 0.19572809932 0.2009176202 0.20546532595 0.20915738578 0.2118392624 0.21342712461 
0.21391185083 0.21335550963 0.21188090916 0.20965540387 0.20687069409 0.20372090032 0.20038165024 0.19699299413 0.19364835894 
0.19039052911 0.18721434052 0.1840749252 0.18089999722 0.1776044928 0.17410563051 0.1703362601 0.16625454504 0.16184873703 
0.15713679509 0.15216133789 0.14698049751 0.14165486042 0.1362306797 0.13072085013 0.12508766204 0.11923325803 0.11300264074 
0.10619997126 0.09861459589 0.090051267877 0.080359336988 0.069456908654 0.057347238906 0.04412574874 0.029977082141 0.015162642968 
2.7044329321e-16 
_area 1 100 double
0 0.00038217197838 0.0015406895252 0.0035079748571 0.0063260376711 0.01002856068 0.014617384054 0.020037194416 0.026154600987 
0.032748730702 0.039518922302 0.046111103046 0.05215921527 0.057333463632 0.061384849326 0.064176282656 0.065694225472 0.066040032124 
0.065405166106 0.064037664332 0.062207772744 0.060178858824 0.058186665664 0.056427272594 0.055053880185 0.054184450809 0.053886352328 
0.054091515106 0.054644815257 0.055391230412 0.056199277003 0.056976100301 0.057696840907 0.058449185555 0.05918862573 0.059831149202 
0.060338324104 0.060815672417 0.061115200623 0.06124037403 0.061282869648 0.061352466005 0.061549566675 0.061952300982 0.062622863865 
0.063611184781 0.064956678397 0.066699201573 0.068892567669 0.071602622147 0.074911765989 0.07892623195 0.083737080427 0.089352273584 
0.095676156567 0.10253491975 0.10968678748 0.11681656137 0.12354338937 0.12945545794 0.13416703774 0.13738317312 0.13895523809 
0.13891233981 0.13745767436 0.13492364953 0.13167983543 0.12801408741 0.12407844821 0.11993144036 0.11559450018 0.11108726887 
0.10644690856 0.10173229018 0.097014885752 0.092361212075 0.087814005768 0.083381473327 0.079041067489 0.074754306223 0.070483319456 
0.066203063036 0.061907377031 0.057609125836 0.053335706607 0.049121193093 0.044995996298 0.040975120138 0.037047012275 0.03316715116 
0.029263986349 0.02526395813 0.021129999192 0.016895546816 0.012680043018 0.008683366976 0.0051618965407 0.0023899498541 0.00061268426291 
3.469446952e-18 
