# vtk DataFile Version 5.1
vtk output
ASCII
DATASET POLYDATA
POINTS 100 float
0.107194 0.0571201 0.683867 0.107319 0.0572543 0.683905 0.107759 0.0575156 0.683842 
0.108447 0.0578992 0.683635 0.109281 0.0583968 0.683213 0.110134 0.0589958 0.682484 
0.110866 0.0596785 0.681339 0.111341 0.0604213 0.679662 0.111436 0.061195 0.677337 
0.111058 0.0619644 0.674254 0.110147 0.0626892 0.670318 0.10868 0.0633255 0.665457 
0.106671 0.0638276 0.659624 0.104161 0.0641505 0.652801 0.101212 0.0642524 0.645003 
0.0978963 0.064098 0.636271 0.0942812 0.0636603 0.626674 0.0904219 0.0629235 0.616299 
0.0863518 0.0618841 0.60525 0.082079 0.0605517 0.593632 0.0775857 0.0589492 0.581554 
0.0728318 0.0571115 0.569109 0.0677624 0.0550838 0.556379 0.0623168 0.0529196 0.543424 
0.0564393 0.0506774 0.530279 0.0500894 0.0484182 0.516956 0.04325 0.0462024 0.503444 
0.0359331 0.0440874 0.489713 0.0281814 0.0421251 0.475715 0.0200665 0.0403607 0.461396 
0.011684 0.0388316 0.446696 0.00314471 0.0375667 0.431554 -0.00543405 0.0365873 0.415918 
-0.0139389 0.0359067 0.399741 -0.0222688 0.0355319 0.382989 -0.0303417 0.0354639 0.365637 
-0.0380978 0.0356988 0.34767 -0.0454997 0.0362288 0.329079 -0.052529 0.0370426 0.309863 
-0.0591805 0.0381256 0.290023 -0.0654539 0.0394606 0.269563 -0.071346 0.0410277 0.248489 
-0.0768424 0.0428042 0.226807 -0.081912 0.0447646 0.204529 -0.0865041 0.0468812 0.181671 
-0.0905487 0.0491237 0.158258 -0.0939605 0.0514604 0.134329 -0.0966458 0.053858 0.109933 
-0.0985118 0.0562832 0.0851352 -0.0994768 0.058703 0.0600148 -0.0994807 0.0610858 0.0346633 
-0.0984933 0.0634022 0.00918074 -0.0965204 0.0656256 -0.0163293 -0.0936065 0.0677331 -0.0417655 
-0.0898329 0.0697051 -0.067035 -0.0853131 0.071526 -0.092059 -0.0801839 0.0731838 -0.116778 
-0.0745947 0.0746693 -0.141153 -0.0686957 0.0759762 -0.16517 -0.0626258 0.0770998 -0.188832 
-0.0565026 0.0780362 -0.212164 -0.0504145 0.078782 -0.235197 -0.0444167 0.0793329 -0.257969 
-0.0385308 0.0796835 -0.280516 -0.0327473 0.0798262 -0.302861 -0.0270331 0.0797515 -0.32501 
-0.0213395 0.0794473 -0.346952 -0.0156125 0.078899 -0.368649 -0.00980294 0.0780903 -0.390045 
-0.00387549 0.077003 -0.411063 0.00218439 0.075619 -0.431615 0.00836636 0.0739203 -0.451606 
0.0146342 0.0718916 -0.470943 0.0209278 0.0695211 -0.489545 0.0271685 0.0668025 -0.507343 
0.0332656 0.0637372 -0.524293 0.0391248 0.0603351 -0.540373 0.0446567 0.0566164 -0.555585 
0.0497846 0.0526122 -0.569953 0.0544509 0.0483649 -0.583519 0.0586212 0.0439274 -0.596336 
0.0622862 0.0393621 -0.608464 0.0654613 0.0347385 -0.619959 0.0681832 0.030131 -0.630871 
0.0705058 0.0256153 -0.641239 0.0724935 0.0212648 -0.651086 0.0742153 0.0171471 -0.660419 
0.0757382 0.0133206 -0.669229 0.0771213 0.00983157 -0.677495 0.0784117 0.00671226 -0.685188 
0.0796411 0.00397958 -0.69227 0.0808252 0.00163537 -0.698704 0.0819638 -0.000332451 -0.704455 
0.0830428 -0.00194758 -0.70949 0.0840375 -0.00324207 -0.713784 0.0849166 -0.00425255 -0.717318 
0.0856462 -0.00501608 -0.720079 0.0861949 -0.00556609 -0.722058 0.0865366 -0.00592883 -0.723249 
0.0866545 -0.00612054 -0.72365 
LINES 2 100
OFFSETS vtktypeint64
0 100 
CONNECTIVITY vtktypeint64
0 1 2 3 4 5 6 7 8 
9 10 11 12 13 14 15 16 17 
18 19 20 21 22 23 24 25 26 
27 28 29 30 31 32 33 34 35 
36 37 38 39 40 41 42 43 44 
45 46 47 48 49 50 51 52 53 
54 55 56 57 58 59 60 61 62 
63 64 65 66 67 68 69 70 71 
72 73 74 75 76 77 78 79 80 
81 82 83 84 85 86 87 88 89 
90 91 92 93 94 95 96 97 98 
99 
POINT_DATA 100
FIELD FieldData 3
_theta 1 100 double
0 0.031733259127 0.063466518254 0.095199777382 0.12693303651 0.15866629564 0.19039955476 0.22213281389 0.25386607302 
0.28559933214 0.31733259127 0.3490658504 0.38079910953 0.41253236865 0.44426562778 0.47599888691 0.50773214603 0.53946540516 
0.57119866429 0.60293192342 0.63466518254 0.66639844167 0.6981317008 0.72986495992 0.76159821905 0.79333147818 0.82506473731 
0.85679799643 0.88853125556 0.92026451469 0.95199777382 0.98373103294 1.0154642921 1.0471975512 1.0789308103 1.1106640695 
1.1423973286 1.1741305877 1.2058638468 1.237597106 1.2693303651 1.3010636242 1.3327968833 1.3645301425 1.3962634016 
1.4279966607 1.4597299198 1.491463179 1.5231964381 1.5549296972 1.5866629564 1.6183962155 1.6501294746 1.6818627337 
1.7135959929 1.745329252 1.7770625111 1.8087957702 1.8405290294 1.8722622885 1.9039955476 1.9357288068 1.9674620659 
1.999195325 2.0309285841 2.0626618433 2.0943951024 2.1261283615 2.1578616206 2.1895948798 2.2213281389 2.253061398 
2.2847946572 2.3165279163 2.3482611754 2.3799944345 2.4117276937 2.4434609528 2.4751942119 2.506927471 2.5386607302 
2.5703939893 2.6021272484 2.6338605076 2.6655937667 2.6973270258 2.7290602849 2.7607935441 2.7925268032 2.8242600623 
2.8559933214 2.8877265806 2.9194598397 2.9511930988 2.982926358 3.0146596171 3.0463928762 3.0781261353 3.1098593945 
3.1415926536 
_radius 1 100 double
3.4506610789e-16 0.016385054732 0.032649635098 0.048674181006 0.064350276355 0.07958455622 0.094300740578 0.10843969153 0.12195773106 
0.13482376719 0.14701598568 0.15851888633 0.16932123515 0.17941513632 0.18879606313 0.19746347175 0.20542159568 0.21268011992 
0.21925457457 0.22516640136 0.230442708 0.23511573983 0.23922209269 0.24280168923 0.24589654409 0.24854932922 0.25080170612 
0.25269234809 0.25425458752 0.25551371842 0.25648412728 0.25716656587 0.2575460086 0.25759068153 0.25725298822 0.25647307431 
0.25518552098 0.25332907951 0.25085856483 0.24775725003 0.24404760603 0.23979817729 0.23512481798 0.23018535945 0.22516790069 
0.2202741174 0.21570003584 0.21161736256 0.20815851032 0.20540782213 0.20340014691 0.20212599125 0.20154050689 0.20157252631 
0.20213051427 0.20310462381 0.2043670044 0.20577439176 0.20717633854 0.20842939751 0.20941422163 0.21005100188 0.21030929249 
0.21021008502 0.20981995698 0.20923871117 0.20858295271 0.20796844917 0.20749388006 0.20722783889 0.2072000132 0.20739671205 
0.20776055186 0.20819405794 0.20856689921 0.20872623118 0.20850919054 0.2077561559 0.20632317033 0.20409202435 0.2009769084 
0.19692714318 0.19192611648 0.18598704816 0.17914649406 0.17145659772 0.16297706963 0.1537677858 0.14388278797 0.13336634038 
0.12225152193 0.11056157264 0.098313848868 0.085525805307 0.072221999577 0.058440825947 0.044239631013 0.02969709239 0.014912222905 
1.0265869563e-15 
_area 1 100 double
0 0.00067045940116 0.0026584777078 0.0058979962914 0.010291164726 0.015723008288 0.022075574921 0.029237100206 0.037102717625 
0.045565970422 0.054504959657 0.063771018153 0.073187308282 0.082559374973 0.091694095925 0.10042126736 0.10861271338 0.11619535136 
0.12315608494 0.12953786689 0.1354282211 0.1409432737 0.14620988992 0.15134564086 0.15643544839 0.16150892312 0.16652862673 
0.17139670321 0.17597701934 0.18012382751 0.1837090045 0.1866420888 0.18887790134 0.19040791629 0.19123617441 0.19134765214 
0.19068284142 0.18913232107 0.18655761099 0.18283323778 0.17789640898 0.17178903154 0.164680736 0.15686724037 0.14874325694 
0.14075313551 0.13332639087 0.12680629829 0.12137477038 0.11700840694 0.11354032279 0.11078403365 0.10856042625 0.10684972132 
0.10574467268 0.10527678883 0.10532396551 0.10579657092 0.1065342961 0.1073055442 0.10784791029 0.10792910554 0.10740916957 
0.10626266966 0.10456481045 0.10246249125 0.10014335005 0.097810135352 0.095661375027 0.093873573113 0.09258619779 0.091900493613 
0.09188753714 0.092586258763 0.093957726129 0.095783995973 0.097703315881 0.099352821145 0.10041866978 0.10064735666 0.099854472633 
0.097929135462 0.094833617073 0.090599720553 0.08532229414 0.079148849591 0.072264711677 0.064875174531 0.057188039716 0.04940028542 
0.041691289476 0.034222774312 0.02714353421 0.020595832585 0.014720330099 0.00965723881 0.0055426512377 0.002500364119 0.0006308418888 
5.5567425151e-17 
