# vtk DataFile Version 5.1
vtk output
ASCII
DATASET POLYDATA
POINTS 100 float
0.0804235 0.0589429 0.656103 0.0806128 0.0589073 0.655905 0.081062 0.0589722 0.655462 
0.0817268 0.0591312 0.654718 0.0825398 0.059373 0.653585 0.0834176 0.0596805 0.651955 
0.0842698 0.0600308 0.649708 0.0850074 0.0603953 0.646722 0.0855515 0.0607402 0.642889 
0.0858392 0.0610272 0.638124 0.0858276 0.0612155 0.632372 0.0854944 0.0612637 0.625614 
0.084836 0.0611325 0.617869 0.0838632 0.0607874 0.609193 0.0825949 0.0602018 0.599672 
0.0810513 0.059359 0.589416 0.079248 0.0582542 0.57855 0.0771909 0.0568954 0.5672 
0.0748734 0.0553037 0.555488 0.0722758 0.0535116 0.54352 0.069368 0.051562 0.531379 
0.0661131 0.0495049 0.519122 0.0624731 0.0473945 0.506779 0.0584151 0.0452864 0.494353 
0.0539165 0.0432343 0.481826 0.0489694 0.0412878 0.469161 0.0435822 0.0394904 0.456315 
0.0377798 0.0378787 0.443238 0.0316005 0.036482 0.429887 0.025092 0.0353229 0.416224 
0.0183055 0.0344182 0.402221 0.01129 0.0337796 0.387862 0.00408773 0.0334149 0.373139 
-0.00326911 0.0333289 0.358047 -0.010759 0.0335231 0.342586 -0.0183688 0.0339962 0.326748 
-0.0260895 0.0347427 0.310519 -0.0339095 0.0357527 0.293872 -0.0418067 0.0370106 0.276768 
-0.0497418 0.0384944 0.259158 -0.0576511 0.040176 0.240984 -0.0654436 0.0420213 0.222188 
-0.0730008 0.0439916 0.202715 -0.0801795 0.0460458 0.182525 -0.0868196 0.0481433 0.161597 
-0.0927544 0.0502467 0.13994 -0.097823 0.0523251 0.117591 -0.101884 0.0543568 0.0946204 
-0.104826 0.0563308 0.0711314 -0.106583 0.0582479 0.0472512 -0.107135 0.0601195 0.0231264 
-0.106512 0.0619662 -0.00108805 -0.104795 0.0638137 -0.0252393 -0.102104 0.0656894 -0.0491875 
-0.0985895 0.0676167 -0.072815 -0.0944168 0.069611 -0.0960342 -0.0897532 0.0716751 -0.118791 
-0.0847523 0.073796 -0.141068 -0.0795423 0.0759435 -0.162876 -0.0742175 0.0780699 -0.184253 
-0.0688333 0.0801122 -0.205255 -0.0634073 0.081995 -0.225943 -0.0579236 0.0836354 -0.246371 
-0.0523409 0.0849485 -0.266584 -0.0466035 0.0858526 -0.2866 -0.0406527 0.0862746 -0.306414 
-0.0344378 0.0861546 -0.325991 -0.0279254 0.0854485 -0.34527 -0.0211057 0.0841298 -0.364172 
-0.0139948 0.0821896 -0.382605 -0.00663433 0.0796353 -0.400474 0.000912643 0.0764882 -0.417693 
0.00856834 0.0727812 -0.434194 0.0162478 0.0685549 -0.449932 0.0238666 0.063856 -0.464889 
0.031348 0.0587346 -0.479079 0.0386275 0.053244 -0.492539 0.0456553 0.0474398 -0.505329 
0.0523964 0.0413813 -0.517519 0.0588277 0.0351323 -0.529181 0.0649338 0.0287623 -0.54038 
0.0707025 0.0223476 -0.551164 0.0761195 0.0159709 -0.561559 0.0811654 0.0097204 -0.571563 
0.0858135 0.00368743 -0.581147 0.0900309 -0.00203742 -0.590263 0.0937812 -0.00736869 -0.59884 
0.0970294 -0.0122312 -0.606804 0.0997481 -0.0165651 -0.614081 0.101924 -0.0203302 -0.620607 
0.103562 -0.0235092 -0.626338 0.104692 -0.0261087 -0.631257 0.105366 -0.0281586 -0.635372 
0.105658 -0.029709 -0.638718 0.105661 -0.0308252 -0.641356 0.105476 -0.0315813 -0.643357 
0.105205 -0.0320523 -0.644802 0.104941 -0.0323068 -0.645767 0.104755 -0.0323998 -0.646315 
0.104696 -0.0323669 -0.646488 
LINES 2 100
OFFSETS vtktypeint64
0 100 
CONNECTIVITY vtktypeint64
0 1 2 3 4 5 6 7 8 
9 10 11 12 13 14 15 16 17 
18 19 20 21 22 23 24 25 26 
27 28 29 30 31 32 33 34 35 
36 37 38 39 40 41 42 43 44 
45 46 47 48 49 50 51 52 53 
54 55 56 57 58 59 60 61 62 
63 64 65 66 67 68 69 70 71 
72 73 74 75 76 77 78 79 80 
81 82 83 84 85 86 87 88 89 
90 91 92 93 94 95 96 97 98 
99 
POINT_DATA 100
FIELD FieldData 3
_theta 1 100 double
0 0.031733259127 0.063466518254 0.095199777382 0.12693303651 0.15866629564 0.19039955476 0.22213281389 0.25386607302 
0.28559933214 0.31733259127 0.3490658504 0.38079910953 0.41253236865 0.44426562778 0.47599888691 0.50773214603 0.53946540516 
0.57119866429 0.60293192342 0.63466518254 0.66639844167 0.6981317008 0.72986495992 0.76159821905 0.79333147818 0.82506473731 
0.85679799643 0.88853125556 0.92026451469 0.95199777382 0.98373103294 1.0154642921 1.0471975512 1.0789308103 1.1106640695 
1.1423973286 1.1741305877 1.2058638468 1.237597106 1.2693303651 1.3010636242 1.3327968833 1.3645301425 1.3962634016 
1.4279966607 1.4597299198 1.491463179 1.5231964381 1.5549296972 1.5866629564 1.6183962155 1.6501294746 1.6818627337 
1.7135959929 1.745329252 1.7770625111 1.8087957702 1.8405290294 1.8722622885 1.9039955476 1.9357288068 1.9674620659 
1.999195325 2.0309285841 2.0626618433 2.0943951024 2.1261283615 2.1578616206 2.1895948798 2.2213281389 2.253061398 
2.2847946572 2.3165279163 2.3482611754 2.3799944345 2.4117276937 2.4434609528 2.4751942119 2.506927471 2.5386607302 
2.5703939893 2.6021272484 2.6338605076 2.6655937667 2.6973270258 2.7290602849 2.7607935441 2.7925268032 2.8242600623 
2.8559933214 2.8877265806 2.9194598397 2.9511930988 2.982926358 3.0146596171 3.0463928762 3.0781261353 3.1098593945 
3.1415926536 
_radius 1 100 double
1.4456898615e-15 0.013410724701 0.026723029673 0.039853447073 0.05272733901 0.065280457263 0.077458478585 0.089215062679 0.10050938874 
0.11130417015 0.12156484608 0.13126014727 0.14036373997 0.14885635538 0.15672779695 0.16397843237 0.17062008106 0.17667645377 
0.18218338432 0.18718895421 0.19175325031 0.19594703479 0.19984834235 0.20353632323 0.20708263967 0.21054193905 0.21394352506 
0.21728590527 0.22053488214 0.22362505693 0.22646430725 0.22894076204 0.23093178666 0.23231443479 0.23297673292 0.2328290478 
0.23181465536 0.22991851762 0.22717323805 0.22366126736 0.21951270922 0.21489853305 0.2100195928 0.20509247382 0.2003336945 
0.1959440271 0.19209460366 0.18891610306 0.18649183521 0.18485507752 0.1839905838 0.18383972321 0.18430825154 0.18527543653 
0.1866033429 0.18814557118 0.18975542597 0.19129395445 0.19263820574 0.19368944691 0.19438034384 0.19467974781 0.19459390815 
0.19416353874 0.19345696311 0.19256031933 0.19156631578 0.19056315063 0.18962493468 0.18880445825 0.18812866884 0.18759692689 
0.18718192782 0.18683297196 0.18648099279 0.18604451786 0.18543564882 0.18456523683 0.18334667826 0.1816981229 0.17954329839 
0.17681149321 0.17343739272 0.16936137929 0.16453062201 0.15890089161 0.15243867971 0.14512300902 0.13694638228 0.12791462258 
0.11804579636 0.10736880328 0.095922394405 0.083755243852 0.070927274656 0.057511866189 0.043598064127 0.029291681736 0.014714338655 
1.2085766592e-15 
_area 1 100 double
0 0.00051262527555 0.0020409048652 0.004555916139 0.0080090873122 0.01233184847 0.017435439148 0.023211162221 0.029531651251 
0.036253995972 0.043225474338 0.050291899141 0.057307366297 0.064143171255 0.070693701558 0.076878525414 0.082641925458 0.087952458096 
0.09280493289 0.097225631778 0.10127930206 0.10507408212 0.1087585164 0.11250438981 0.11647325495 0.12077502202 0.12543629895 
0.13039153463 0.13549524271 0.14054536529 0.1453093567 0.14954816633 0.15303554116 0.15557193408 0.15699440299 0.15718527319 
0.15608184286 0.15368708888 0.15007864746 0.14541197934 0.1399142045 0.13386721114 0.12758153765 0.12136515802 0.11549237559 
0.1101773426 0.1055566705 0.10168621885 0.098551666443 0.096085431334 0.094186842669 0.092747933779 0.091682150035 0.090945907839 
0.090537887514 0.090459707371 0.090670225876 0.091084044814 0.091585403533 0.09203533348 0.092286373139 0.092207678768 0.091704065408 
0.090734037174 0.089319925606 0.087543941724 0.085534001123 0.083443900454 0.081431037855 0.079633818905 0.078151477013 0.077038410137 
0.076283054704 0.07580495068 0.075564682775 0.075502652095 0.075649986079 0.075744901103 0.075675005074 0.075351585321 0.074686123575 
0.073587125614 0.071962128273 0.069725025574 0.066807826483 0.063174191756 0.058830953285 0.053834198541 0.048288326969 0.042338706504 
0.03616017447 0.029944231126 0.023887351549 0.018181655648 0.013007865211 0.0085297518098 0.0048893279155 0.0022024726359 0.00055507915889 
8.4141065373e-17 
