# vtk DataFile Version 5.1
vtk output
ASCII
DATASET POLYDATA
POINTS 100 float
0.0786408 0.0517252 0.651021 0.0789495 0.0516268 0.650959 0.0797702 0.0515093 0.650888 
0.0810249 0.051376 0.650743 0.0825942 0.0512313 0.650424 0.08433 0.0510803 0.649799 
0.0860713 0.0509283 0.648722 0.0876601 0.0507805 0.64704 0.0889573 0.0506412 0.644607 
0.0898543 0.0505128 0.641296 0.090281 0.0503957 0.637013 0.090208 0.0502875 0.631697 
0.0896442 0.0501823 0.625334 0.0886286 0.0500708 0.61795 0.0872197 0.0499407 0.609612 
0.0854821 0.0497769 0.600422 0.0834739 0.0495624 0.590506 0.0812352 0.0492797 0.580005 
0.0787807 0.0489123 0.569061 0.0760959 0.0484463 0.557805 0.073139 0.0478717 0.546351 
0.0698465 0.0471842 0.534779 0.0661428 0.0463858 0.52314 0.0619523 0.0454852 0.511446 
0.0572112 0.044498 0.499675 0.0518789 0.0434458 0.487776 0.0459462 0.042355 0.475676 
0.0394396 0.0412549 0.463288 0.0324207 0.0401764 0.450522 0.0249818 0.0391495 0.437292 
0.017237 0.0382023 0.423526 0.00931068 0.0373595 0.40917 0.00132521 0.0366416 0.394191 
-0.00661082 0.0360658 0.378576 -0.0144122 0.0356456 0.362328 -0.0220228 0.0353927 0.345462 
-0.0294173 0.0353178 0.327997 -0.0365976 0.0354326 0.309952 -0.0435857 0.0357505 0.291336 
-0.0504131 0.0362871 0.272144 -0.0571081 0.0370607 0.25236 -0.0636839 0.0380905 0.231951 
-0.0701275 0.0393957 0.210876 -0.0763929 0.0409922 0.189091 -0.0823975 0.0428906 0.166555 
-0.0880246 0.0450926 0.143242 -0.0931295 0.0475884 0.119148 -0.0975508 0.0503551 0.0942969 
-0.101124 0.0533555 0.0687467 -0.103696 0.0565382 0.0425889 -0.10514 0.0598397 0.0159464 
-0.105367 0.0631868 -0.0110325 -0.104334 0.0665008 -0.0381832 -0.10205 0.069702 -0.0653354 
-0.0985714 0.0727148 -0.0923253 -0.0939975 0.0754718 -0.119006 -0.0884609 0.0779177 -0.145258 
-0.082114 0.0800117 -0.170993 -0.0751151 0.0817285 -0.196158 -0.0676149 0.0830573 -0.220735 
-0.0597445 0.0839996 -0.244733 -0.0516076 0.0845658 -0.268181 -0.0432754 0.08477 -0.291119 
-0.0347867 0.084626 -0.313586 -0.0261516 0.0841422 -0.335607 -0.0173586 0.0833182 -0.357191 
-0.00838376 0.0821423 -0.378319 0.000799173 0.0805913 -0.398947 0.0102091 0.0786317 -0.419007 
0.0198493 0.0762227 -0.438412 0.029702 0.073321 -0.457066 0.0397258 0.0698866 -0.474877 
0.049856 0.0658883 -0.491762 0.0600081 0.0613103 -0.507662 0.0700838 0.0561568 -0.522546 
0.0799775 0.0504551 -0.536419 0.0895843 0.0442579 -0.549319 0.0988071 0.0376424 -0.561314 
0.107562 0.0307073 -0.572497 0.115784 0.0235689 -0.582973 0.123425 0.0163551 -0.592852 
0.130461 0.00919777 -0.602234 0.136883 0.0022264 -0.611202 0.142699 -0.0044393 -0.619813 
0.147929 -0.0106952 -0.628096 0.1526 -0.0164574 -0.636048 0.156746 -0.0216651 -0.643641 
0.160399 -0.0262818 -0.650825 0.163596 -0.030295 -0.657541 0.166369 -0.0337137 -0.663723 
0.168751 -0.0365654 -0.669315 0.170771 -0.0388919 -0.674271 0.172461 -0.0407449 -0.678567 
0.173849 -0.0421814 -0.682196 0.174963 -0.0432596 -0.685174 0.17583 -0.0440347 -0.687528 
0.176473 -0.0445566 -0.6893 0.176915 -0.0448664 -0.690529 0.177169 -0.0449954 -0.691253 
0.177248 -0.0449636 -0.691495 
LINES 2 100
OFFSETS vtktypeint64
0 100 
CONNECTIVITY vtktypeint64
0 1 2 3 4 5 6 7 8 
9 10 11 12 13 14 15 16 17 
18 19 20 21 22 23 24 25 26 
27 28 29 30 31 32 33 34 35 
36 37 38 39 40 41 42 43 44 
45 46 47 48 49 50 51 52 53 
54 55 56 57 58 59 60 61 62 
63 64 65 66 67 68 69 70 71 
72 73 74 75 76 77 78 79 80 
81 82 83 84 85 86 87 88 89 
90 91 92 93 94 95 96 97 98 
99 
POINT_DATA 100
FIELD FieldData 3
_theta 1 100 double
0 0.031733259127 0.063466518254 0.095199777382 0.12693303651 0.15866629564 0.19039955476 0.22213281389 0.25386607302 
0.28559933214 0.31733259127 0.3490658504 0.38079910953 0.41253236865 0.44426562778 0.47599888691 0.50773214603 0.53946540516 
0.57119866429 0.60293192342 0.63466518254 0.66639844167 0.6981317008 0.72986495992 0.76159821905 0.79333147818 0.82506473731 
0.85679799643 0.88853125556 0.92026451469 0.95199777382 0.98373103294 1.0154642921 1.0471975512 1.0789308103 1.1106640695 
1.1423973286 1.1741305877 1.2058638468 1.237597106 1.2693303651 1.3010636242 1.3327968833 1.3645301425 1.3962634016 
1.4279966607 1.4597299198 1.491463179 1.5231964381 1.5549296972 1.5866629564 1.6183962155 1.6501294746 1.6818627337 
1.7135959929 1.745329252 1.7770625111 1.8087957702 1.8405290294 1.8722622885 1.9039955476 1.9357288068 1.9674620659 
1.999195325 2.0309285841 2.0626618433 2.0943951024 2.1261283615 2.1578616206 2.1895948798 2.2213281389 2.253061398 
2.2847946572 2.3165279163 2.3482611754 2.3799944345 2.4117276937 2.4434609528 2.4751942119 2.506927471 2.5386607302 
2.5703939893 2.6021272484 2.6338605076 2.6655937667 2.6973270258 2.7290602849 2.7607935441 2.7925268032 2.8242600623 
2.8559933214 2.8877265806 2.9194598397 2.9511930988 2.982926358 3.0146596171 3.0463928762 3.0781261353 3.1098593945 
3.1415926536 
_radius 1 100 double
2.37549463e-16 0.016019067906 0.031922375431 0.047603757589 0.062966286812 0.077925568826 0.092411913035 0.1063712884 0.11976503522 
0.13256836393 0.14476782117 0.1563581465 0.16733916643 0.17771340254 0.18748481036 0.19665858864 0.20524151991 0.21324205519 
0.22066946918 0.22753186739 0.2338334677 0.23957215061 0.24473849083 0.24931716281 0.25329081275 0.25664553316 0.25937639041 
0.26149132986 0.26301223716 0.26397276707 0.26441345543 0.26437531354 0.26389337528 0.2629915058 0.2616793368 0.2599517031 
0.25779060197 0.25516952476 0.25205992862 0.24843949048 0.24430152743 0.23966458783 0.23458081357 0.22914140427 0.22347755951 
0.21775578144 0.21216740457 0.20691347127 0.2021871672 0.19815652735 0.19494981741 0.19264508042 0.19126433138 0.19077229624 
0.19107952516 0.19204983464 0.19351197303 0.19527499596 0.19714609799 0.19894883097 0.20053920553 0.20181744062 0.20273400581 
0.20328970241 0.20353044363 0.20353788846 0.20341717022 0.2032828328 0.20324398265 0.20338971975 0.20377609942 0.2044160358 
0.20527349851 0.20626298791 0.20725465152 0.20808463468 0.20856946424 0.20852259402 0.20777088027 0.20616882207 0.20360886389 
0.20002674976 0.1954016531 0.18975146174 0.18312413865 0.17558651119 0.16721215651 0.15807019992 0.14821675007 0.13769029925 
0.12651173521 0.11468876118 0.10222370652 0.089123132039 0.075407410538 0.061118595629 0.046325293003 0.031123798957 0.015635364599 
5.8959864153e-16 
_area 1 100 double
0 0.00064345599272 0.0025627657979 0.0057228149074 0.010059881012 0.015477585562 0.021846658948 0.029010371002 0.03679520063 
0.045024324409 0.053530629883 0.062166547309 0.07080979384 0.079366157787 0.087771263853 0.09599202027 0.10402602046 0.11189579105 
0.11963624122 0.12727721306 0.13482564352 0.14225209868 0.14948567416 0.15641972512 0.162927405 0.16888180544 0.17417443827 
0.17872914506 0.18251121126 0.1855290421 0.1878236626 0.18944639736 0.19043328392 0.19078737398 0.19047518568 0.18943601994 
0.1875976071 0.18489077074 0.18125935053 0.17666717026 0.17110736815 0.16461772303 0.15729945124 0.14933114692 0.14096879629 
0.13252783719 0.12435072906 0.11676766482 0.11005604498 0.10440338187 0.099886406911 0.096482879222 0.094111365864 0.092674334335 
0.092167985852 0.092480166298 0.093245873155 0.094245574839 0.09526839759 0.096111612325 0.09660412091 0.096634265605 0.096165249306 
0.095236642773 0.093956825358 0.092485260739 0.091005105456 0.089771944535 0.088914794077 0.088555314216 0.088816327744 0.089653137234 
0.091017820408 0.092796997088 0.094818546139 0.096860374244 0.09867075745 0.099997697739 0.10061898711 0.10036576705 0.099135087685 
0.096890133241 0.093650342835 0.089476448802 0.08445599538 0.078693050488 0.07230293918 0.065410597885 0.058150486755 0.050666688675 
0.043112851056 0.035651986254 0.028455749739 0.021702481585 0.015573544054 0.010247848835 0.0058944420257 0.0026629671548 0.00067243672969 
4.0430547561e-17 
