# vtk DataFile Version 5.1
vtk output
ASCII
DATASET POLYDATA
POINTS 100 float
0.0103531 -0.0100199 -0.722158 0.0101453 -0.0100996 -0.721581 0.00955089 -0.0101738 -0.719962 
0.0086145 -0.0102307 -0.717334 0.00740406 -0.0102503 -0.713746 0.00600242 -0.0102028 -0.709265 
0.00449706 -0.010048 -0.703961 0.00296905 -0.00973516 -0.697913 0.00148273 -0.00920367 -0.691197 
7.72742e-05 -0.00838542 -0.683878 -0.0012388 -0.00720845 -0.676015 -0.00248946 -0.00560201 -0.667648 
-0.00372918 -0.00350259 -0.658801 -0.00503718 -0.000860362 -0.64948 -0.0065087 0.00235474 -0.639677 
-0.00824417 0.00614797 -0.629366 -0.0103376 0.0104965 -0.618513 -0.0128653 0.0153483 -0.607075 
-0.0158771 0.020624 -0.595007 -0.0193895 0.0262209 -0.582264 -0.0233832 0.0320192 -0.568808 
-0.0278046 0.0378899 -0.55461 -0.0325706 0.043704 -0.539653 -0.0375776 0.0493404 -0.523932 
-0.0427117 0.0546937 -0.507461 -0.047861 0.0596795 -0.490265 -0.0529266 0.064238 -0.472385 
-0.0578333 0.0683336 -0.453874 -0.0625357 0.0719532 -0.434792 -0.0670224 0.0751018 -0.415205 
-0.0713149 0.0777965 -0.395181 -0.0754633 0.0800604 -0.374782 -0.0795379 0.0819162 -0.354063 
-0.0836183 0.0833816 -0.333065 -0.0877819 0.0844667 -0.311814 -0.0920907 0.0851725 -0.290315 
-0.0965813 0.0854932 -0.268556 -0.101256 0.0854196 -0.246506 -0.106079 0.0849435 -0.224118 
-0.110973 0.0840638 -0.201337 -0.115827 0.0827911 -0.178101 -0.120497 0.0811518 -0.154356 
-0.124824 0.0791898 -0.13006 -0.12864 0.0769666 -0.105192 -0.131781 0.0745579 -0.0797606 
-0.134102 0.0720493 -0.0538093 -0.135486 0.0695295 -0.0274193 -0.13585 0.0670832 -0.000709861 
-0.135149 0.0647842 0.0261654 -0.133378 0.0626894 0.0530249 -0.130565 0.0608352 0.0796688 
-0.12677 0.0592358 0.105891 -0.122072 0.0578846 0.131491 -0.116562 0.0567576 0.156289 
-0.110334 0.0558196 0.180135 -0.103478 0.0550304 0.202923 -0.0960727 0.0543524 0.22459 
-0.0881832 0.0537566 0.245125 -0.0798609 0.0532271 0.264565 -0.0711453 0.0527637 0.282988 
-0.0620679 0.0523813 0.300506 -0.0526578 0.052107 0.317253 -0.0429467 0.0519754 0.333372 
-0.0329738 0.0520213 0.349003 -0.0227896 0.0522737 0.364274 -0.0124565 0.0527482 0.37929 
-0.00204816 0.0534431 0.394128 0.00835354 0.0543359 0.408839 0.0186639 0.0553837 0.423445 
0.0288013 0.056526 0.437947 0.0386941 0.0576897 0.45233 0.0482857 0.0587966 0.466572 
0.0575397 0.059771 0.480649 0.0664414 0.0605483 0.494543 0.0749973 0.061081 0.508245 
0.0832318 0.0613436 0.521756 0.0911815 0.0613352 0.535082 0.0988876 0.0610777 0.548235 
0.106387 0.0606129 0.561219 0.113706 0.0599963 0.574031 0.12085 0.0592898 0.586645 
0.127801 0.0585538 0.599014 0.134515 0.0578403 0.611066 0.140926 0.0571869 0.622702 
0.146946 0.0566139 0.633804 0.152478 0.056123 0.644239 0.157424 0.0557 0.653875 
0.161696 0.0553181 0.66259 0.165228 0.0549449 0.670283 0.167984 0.054548 0.676889 
0.169966 0.0541023 0.682387 0.171216 0.0535945 0.686798 0.171817 0.0530266 0.690194 
0.171886 0.0524166 0.692685 0.171562 0.0517972 0.694413 0.171002 0.0512113 0.695539 
0.170357 0.0507065 0.696223 0.169765 0.0503291 0.696613 0.169338 0.050117 0.696826 
0.169145 0.050095 0.696938 
LINES 2 100
OFFSETS vtktypeint64
0 100 
CONNECTIVITY vtktypeint64
0 1 2 3 4 5 6 7 8 
9 10 11 12 13 14 15 16 17 
18 19 20 21 22 23 24 25 26 
27 28 29 30 31 32 33 34 35 
36 37 38 39 40 41 42 43 44 
45 46 47 48 49 50 51 52 53 
54 55 56 57 58 59 60 61 62 
63 64 65 66 67 68 69 70 71 
72 73 74 75 76 77 78 79 80 
81 82 83 84 85 86 87 88 89 
90 91 92 93 94 95 96 97 98 
99 
POINT_DATA 100
FIELD FieldData 3
_theta 1 100 double
0 0.031733259127 0.063466518254 0.095199777382 0.12693303651 0.15866629564 0.19039955476 0.22213281389 0.25386607302 
0.28559933214 0.31733259127 0.3490658504 0.38079910953 0.41253236865 0.44426562778 0.47599888691 0.50773214603 0.53946540516 
0.57119866429 0.60293192342 0.63466518254 0.66639844167 0.6981317008 0.72986495992 0.76159821905 0.79333147818 0.82506473731 
0.85679799643 0.88853125556 0.92026451469 0.95199777382 0.98373103294 1.0154642921 1.0471975512 1.0789308103 1.1106640695 
1.1423973286 1.1741305877 1.2058638468 1.237597106 1.2693303651 1.3010636242 1.3327968833 1.3645301425 1.3962634016 
1.4279966607 1.4597299198 1.491463179 1.5231964381 1.5549296972 1.5866629564 1.6183962155 1.6501294746 1.6818627337 
1.7135959929 1.745329252 1.7770625111 1.8087957702 1.8405290294 1.8722622885 1.9039955476 1.9357288068 1.9674620659 
1.999195325 2.0309285841 2.0626618433 2.0943951024 2.1261283615 2.1578616206 2.1895948798 2.2213281389 2.253061398 
2.2847946572 2.3165279163 2.3482611754 2.3799944345 2.4117276937 2.4434609528 2.4751942119 2.506927471 2.5386607302 
2.5703939893 2.6021272484 2.6338605076 2.6655937667 2.6973270258 2.7290602849 2.7607935441 2.7925268032 2.8242600623 
2.8559933214 2.8877265806 2.9194598397 2.9511930988 2.982926358 3.0146596171 3.0463928762 3.0781261353 3.1098593945 
3.1415926536 
_radius 1 100 double
1.1189974935e-16 0.012140900919 0.024242366094 0.036265774428 0.048167837494 0.059896085512 0.071383819395 0.082546316435 0.093280319659 
0.10346821409 0.11298705151 0.12172123012 0.12957662289 0.13649350908 0.14245580439 0.14749468946 0.15168567037 0.15513926186 
0.15798676056 0.16036374716 0.16239460638 0.1641810388 0.16579623592 0.16728471048 0.16866652586 0.16994419436 0.17111058778 
0.17215644445 0.17307628281 0.17387177829 0.17455201969 0.17513056571 0.17561984172 0.17602406501 0.17633242479 0.17651448881 
0.17651960978 0.1762814229 0.17572748779 0.17479298844 0.17343645396 0.17165489631 0.16949559047 0.16706185757 0.16451077053 
0.16204217162 0.15988095782 0.15825690271 0.15738594258 0.15745366634 0.15859906172 0.16089722856 0.1643427845 0.16883820474 
0.17419164722 0.18012698682 0.18630591851 0.1923593341 0.19792351838 0.20267623115 0.20636818353 0.20884636654 0.2100668257 
0.21009564596 0.20909807782 0.20731688194 0.20504207792 0.20257533056 0.20019312849 0.1981135162 0.1964710946 0.19530398984 
0.1945544873 0.19408250718 0.19368888008 0.19314415646 0.19221856506 0.19070930264 0.18846211835 0.18538497777 0.18145253321 
0.17670126749 0.17121644539 0.16511317145 0.15851463649 0.15153082792 0.14424055969 0.13667885383 0.12883083587 0.12063267379 
0.11197968818 0.10274127959 0.092781451214 0.081982517144 0.070268552806 0.057624783344 0.044109602899 0.029857092372 0.015069414516 
4.0144182949e-16 
_area 1 100 double
0 0.00042644225721 0.0016996804376 0.0038019268262 0.0067042060893 0.010364755428 0.014723561836 0.019693324299 0.02514961469 
0.030924396324 0.036806701051 0.042552605313 0.047904456743 0.052617173159 0.056487764005 0.059383271952 0.061262136265 0.062184355614 
0.06230665379 0.061860284023 0.061110856207 0.060303840227 0.059618826984 0.059162858469 0.059070832584 0.059270758602 0.059688249684 
0.060260789918 0.06093237104 0.06164899088 0.062374855965 0.063094547906 0.063824304315 0.064536377944 0.065187198697 0.065742990512 
0.066173472389 0.066485858 0.066657888307 0.066646935862 0.066438567573 0.066080795907 0.065667744475 0.065282028873 0.064969192256 
0.064767774466 0.064747162891 0.065024539731 0.065759731868 0.067131865529 0.06930716522 0.072422453509 0.076578484814 0.081818238775 
0.088094332458 0.095241839836 0.10296307943 0.11083330783 0.11833885141 0.12494581468 0.13018217184 0.13371186729 0.13538431293 
0.135250467 0.13354457775 0.1306375757 0.12697319912 0.1230002209 0.11911250343 0.11560323045 0.1126344097 0.11022461565 
0.10826534348 0.10656803288 0.10492032453 0.10312767832 0.10103441804 0.098529333981 0.095542956407 0.092042996016 0.088031328869 
0.083541424699 0.078633296983 0.073384959184 0.067882068127 0.062208294405 0.056438067064 0.050632300855 0.044837520757 0.039089010349 
0.03341825511 0.027863768077 0.02248297907 0.017361980338 0.012619899551 0.0084055238416 0.0048854011745 0.0022247455802 0.00056458139114 
4.705108807e-17 
