# vtk DataFile Version 5.1
vtk output
ASCII
DATASET POLYDATA
POINTS 100 float
0.13627 -0.00542472 -0.683905 0.136039 -0.00543189 -0.683851 0.135362 -0.00529979 -0.683709 
0.134244 -0.00504302 -0.683387 0.132694 -0.00468172 -0.682744 0.130724 -0.00423621 -0.681605 
0.128347 -0.00372072 -0.679782 0.125575 -0.00313735 -0.677097 0.122422 -0.00247127 -0.673397 
0.118898 -0.00168804 -0.668575 0.115013 -0.000733726 -0.662579 0.110773 0.000462006 -0.655415 
0.106185 0.00197998 -0.647146 0.101252 0.00390339 -0.63788 0.0959818 0.00630836 -0.627756 
0.0903814 0.0092544 -0.61693 0.0844624 0.0127758 -0.605552 0.0782411 0.0168754 -0.593751 
0.0717396 0.0215208 -0.581623 0.0649856 0.0266446 -0.569223 0.0580124 0.0321477 -0.556561 
0.0508577 0.0379059 -0.543605 0.0435614 0.0437783 -0.530295 0.0361633 0.0496177 -0.516549 
0.028701 0.0552808 -0.502279 0.0212062 0.0606368 -0.487409 0.0137032 0.0655749 -0.471878 
0.00620682 0.0700086 -0.455657 -0.00127837 0.0738775 -0.438745 -0.0087574 0.0771457 -0.42117 
-0.0162432 0.0797989 -0.402984 -0.0237537 0.0818393 -0.38425 -0.0313072 0.08328 -0.365034 
-0.038918 0.0841404 -0.345391 -0.0465906 0.084442 -0.325356 -0.0543146 0.0842068 -0.304937 
-0.0620602 0.0834567 -0.284114 -0.0697749 0.0822155 -0.262843 -0.077382 0.0805117 -0.241058 
-0.0847808 0.0783821 -0.218688 -0.09185 0.0758752 -0.195666 -0.0984515 0.073053 -0.171942 
-0.104438 0.0699917 -0.1475 -0.109662 0.0667796 -0.122363 -0.113982 0.063513 -0.0965981 
-0.117274 0.0602902 -0.0703207 -0.119443 0.0572044 -0.0436855 -0.120421 0.0543355 -0.0168796 
-0.120183 0.0517439 0.00989086 -0.118741 0.0494646 0.0364153 -0.11615 0.0475052 0.0624934 
-0.112497 0.0458457 0.087949 -0.107905 0.0444429 0.112641 -0.102517 0.0432365 0.136468 
-0.0964896 0.0421581 0.159377 -0.0899826 0.041141 0.181353 -0.0831493 0.04013 0.202421 
-0.0761272 0.0390898 0.222635 -0.0690303 0.0380108 0.242068 -0.0619449 0.0369116 0.260802 
-0.0549265 0.0358375 0.27892 -0.0480004 0.0348559 0.296498 -0.0411647 0.0340482 0.313602 
-0.034395 0.0334994 0.330285 -0.0276513 0.0332873 0.346588 -0.0208854 0.0334721 0.362542 
-0.0140484 0.0340877 0.378174 -0.00709817 0.0351361 0.393509 -4.94818e-06 0.0365855 0.408571 
0.00724395 0.0383726 0.42339 0.0146419 0.0404077 0.437997 0.0221625 0.042584 0.452428 
0.0297611 0.0447874 0.466713 0.0373777 0.0469077 0.480879 0.0449415 0.0488486 0.494941 
0.0523758 0.0505358 0.508902 0.0596032 0.0519218 0.522747 0.0665506 0.0529878 0.536443 
0.0731536 0.0537412 0.549944 0.0793596 0.0542113 0.563187 0.0851299 0.0544417 0.576103 
0.0904405 0.0544825 0.58862 0.095282 0.0543816 0.600667 0.0996582 0.0541789 0.612182 
0.103584 0.0539008 0.623116 0.107082 0.0535588 0.633432 0.110182 0.0531509 0.643107 
0.112917 0.0526646 0.65213 0.115318 0.0520832 0.660502 0.117418 0.0513917 0.668224 
0.119246 0.0505838 0.675301 0.120826 0.0496663 0.681731 0.122181 0.0486629 0.687506 
0.123325 0.0476142 0.692611 0.124273 0.0465752 0.697021 0.125034 0.045611 0.700706 
0.125613 0.0447897 0.703631 0.126016 0.0441745 0.705765 0.126245 0.043817 0.70708 
0.126301 0.04375 0.707559 
LINES 2 100
OFFSETS vtktypeint64
0 100 
CONNECTIVITY vtktypeint64
0 1 2 3 4 5 6 7 8 
9 10 11 12 13 14 15 16 17 
18 19 20 21 22 23 24 25 26 
27 28 29 30 31 32 33 34 35 
36 37 38 39 40 41 42 43 44 
45 46 47 48 49 50 51 52 53 
54 55 56 57 58 59 60 61 62 
63 64 65 66 67 68 69 70 71 
72 73 74 75 76 77 78 79 80 
81 82 83 84 85 86 87 88 89 
90 91 92 93 94 95 96 97 98 
99 
POINT_DATA 100
FIELD FieldData 3
_theta 1 100 double
0 0.031733259127 0.063466518254 0.095199777382 0.12693303651 0.15866629564 0.19039955476 0.22213281389 0.25386607302 
0.28559933214 0.31733259127 0.3490658504 0.38079910953 0.41253236865 0.44426562778 0.47599888691 0.50773214603 0.53946540516 
0.57119866429 0.60293192342 0.63466518254 0.66639844167 0.6981317008 0.72986495992 0.76159821905 0.79333147818 0.82506473731 
0.85679799643 0.88853125556 0.92026451469 0.95199777382 0.98373103294 1.0154642921 1.0471975512 1.0789308103 1.1106640695 
1.1423973286 1.1741305877 1.2058638468 1.237597106 1.2693303651 1.3010636242 1.3327968833 1.3645301425 1.3962634016 
1.4279966607 1.4597299198 1.491463179 1.5231964381 1.5549296972 1.5866629564 1.6183962155 1.6501294746 1.6818627337 
1.7135959929 1.745329252 1.7770625111 1.8087957702 1.8405290294 1.8722622885 1.9039955476 1.9357288068 1.9674620659 
1.999195325 2.0309285841 2.0626618433 2.0943951024 2.1261283615 2.1578616206 2.1895948798 2.2213281389 2.253061398 
2.2847946572 2.3165279163 2.3482611754 2.3799944345 2.4117276937 2.4434609528 2.4751942119 2.506927471 2.5386607302 
2.5703939893 2.6021272484 2.6338605076 2.6655937667 2.6973270258 2.7290602849 2.7607935441 2.7925268032 2.8242600623 
2.8559933214 2.8877265806 2.9194598397 2.9511930988 2.982926358 3.0146596171 3.0463928762 3.0781261353 3.1098593945 
3.1415926536 
_radius 1 100 double
1.481222517e-15 0.014941613713 0.029743460599 0.044270997302 0.05840092859 0.072025012028 0.085052071651 0.097408205671 0.10903551834 
0.11988996721 0.12993903577 0.13915989189 0.14753848487 0.15506971093 0.1617584185 0.16762072704 0.17268499393 0.17699184569 
0.18059298983 0.18354894874 0.1859262304 0.18779459222 0.18922488184 0.1902875359 0.19105138235 0.19158213627 0.19194003086 
0.19217639956 0.19232962021 0.19242142562 0.19245486218 0.192414885 0.19227178048 0.19198676131 0.19151869345 0.1908310961 
0.18989898851 0.18871544113 0.18729762152 0.18569171944 0.18397556138 0.1822573428 0.18066920586 0.17935564298 0.17845860919 
0.17810281392 0.17838473486 0.17936700859 0.18107710377 0.18350752775 0.18661535708 0.19032096166 0.19450771917 0.1990250166 
0.2036958852 0.20832907875 0.21273411531 0.21673708126 0.22019481891 0.22300541694 0.22511366673 0.22651123424 0.22723239461 
0.22734676394 0.22695024698 0.2261547898 0.22507721981 0.22382770807 0.22249881114 0.22115626162 0.21983259816 0.21852443017 
0.21719368808 0.21577267595 0.21417220429 0.21229163895 0.2100294507 0.20729284471 0.20400528893 0.2001111901 0.19557748193 
0.19039236892 0.18456181294 0.17810451583 0.17104617017 0.16341368921 0.15523005095 0.1465103238 0.13725936508 0.12747156986 
0.11713287417 0.10622497967 0.094731470055 0.082645151114 0.069975618801 0.056755833097 0.043046454218 0.028936945008 0.014542937788 
1.1061789635e-15 
_area 1 100 double
0 0.00053354745672 0.0021333282639 0.0047904610651 0.0084726286692 0.013107421314 0.018571779093 0.024691259051 0.031249087507 
0.038002588993 0.044703783446 0.051121148617 0.057059870089 0.06237762781 0.066992338484 0.070879038595 0.074056881356 0.076571796065 
0.078481353536 0.079847096266 0.080739855695 0.081259389688 0.081538280974 0.081686420917 0.081789779555 0.081954253285 0.08235886982 
0.083090646441 0.084011731572 0.084980420461 0.085868456747 0.086558836295 0.086962365538 0.087036150753 0.086795302023 0.086313029438 
0.085707550455 0.085116995556 0.084664820331 0.084427246744 0.084421983812 0.084629703854 0.08503353075 0.085644274721 0.086499591241 
0.087719882857 0.089320354023 0.091338493043 0.093886966962 0.097043646091 0.10081610495 0.10517924154 0.11007992292 0.1154269226 
0.12108594383 0.12688336489 0.13262957386 0.13824079877 0.14385285162 0.14903517973 0.1534021795 0.15666487502 0.1585911614 
0.15915801502 0.15846071853 0.15668170626 0.15405488647 0.15083487163 0.14727387919 0.14360227632 0.14000918067 0.13662146873 
0.13348140692 0.13053118886 0.12762511285 0.1245762478 0.1212058706 0.1173714435 0.11298012405 0.10799652322 0.10244374183 
0.096394863897 0.089956043814 0.083246017991 0.076377739195 0.069446220893 0.062523963318 0.055662952779 0.04890110629 0.042271119556 
0.035810145533 0.029568904272 0.02361874772 0.018055272361 0.01299743848 0.0085817082521 0.0049514055427 0.0022423857155 0.0005671092871 
3.6016018331e-17 
