# vtk DataFile Version 5.1
vtk output
ASCII
DATASET POLYDATA
POINTS 100 float
0.0528778 -0.00204115 -0.615311 0.0527947 -0.00195857 -0.615011 0.0525289 -0.00158682 -0.614136 
0.0520872 -0.00094744 -0.61268 0.05148 -7.18552e-05 -0.610636 0.0507175 0.0010028 -0.607991 
0.049807 0.00223859 -0.604733 0.0487496 0.00360181 -0.600844 0.0475369 0.0050674 -0.596304 
0.04615 0.00662229 -0.591089 0.0445585 0.00826705 -0.585172 0.042722 0.0100156 -0.578525 
0.0405927 0.0118931 -0.571113 0.0381192 0.0139322 -0.562906 0.0352508 0.016168 -0.55387 
0.031943 0.0186321 -0.543977 0.0281616 0.0213475 -0.533203 0.0238864 0.0243235 -0.521533 
0.0191132 0.0275521 -0.508964 0.0138547 0.0310067 -0.495503 0.00813926 0.0346423 -0.481173 
0.00200842 0.0383978 -0.466013 -0.00448702 0.0422007 -0.450076 -0.0112912 0.0459722 -0.433427 
-0.0183475 0.0496335 -0.416142 -0.0256022 0.0531122 -0.398302 -0.0330072 0.0563477 -0.379989 
-0.0405204 0.0592957 -0.361282 -0.0481056 0.0619303 -0.34225 -0.0557299 0.0642448 -0.322951 
-0.0633596 0.06625 -0.303427 -0.0709566 0.0679711 -0.283702 -0.0784735 0.0694424 -0.263786 
-0.0858496 0.0707025 -0.243674 -0.0930085 0.0717878 -0.223349 -0.0998577 0.0727272 -0.202794 
-0.10629 0.0735378 -0.18199 -0.112186 0.0742219 -0.160926 -0.117422 0.0747655 -0.139602 
-0.121875 0.0751391 -0.118037 -0.125435 0.0752998 -0.0962674 -0.128006 0.0751953 -0.0743478 
-0.129521 0.0747687 -0.0523511 -0.129943 0.0739641 -0.0303631 -0.129269 0.0727321 -0.00847824 
-0.127533 0.0710356 0.013207 -0.124801 0.0688535 0.0346001 -0.121165 0.0661847 0.0556179 
-0.11674 0.06305 0.0761915 -0.111652 0.0594921 0.0962689 -0.106029 0.0555755 0.115816 
-0.0999929 0.0513833 0.134815 -0.0936508 0.0470146 0.153262 -0.0870889 0.0425793 0.171165 
-0.0803691 0.0381939 0.188536 -0.0735288 0.0339753 0.20539 -0.0665821 0.0300359 0.221737 
-0.0595247 0.0264784 0.237587 -0.0523396 0.0233905 0.252944 -0.0450044 0.0208416 0.267806 
-0.0374985 0.0188789 0.282176 -0.0298097 0.0175262 0.296055 -0.0219395 0.0167824 0.309456 
-0.0139067 0.0166224 0.322404 -0.00574774 0.0169992 0.334936 0.00248362 0.0178464 0.347111 
0.0107201 0.0190829 0.358998 0.0188854 0.0206177 0.370684 0.0269002 0.0223555 0.38226 
0.0346884 0.0242025 0.393817 0.0421826 0.0260718 0.40544 0.0493287 0.0278882 0.417196 
0.0560897 0.0295919 0.429127 0.0624461 0.0311405 0.441247 0.0683963 0.0325105 0.453537 
0.0739535 0.0336959 0.465943 0.0791425 0.0347063 0.478384 0.0839947 0.0355634 0.490752 
0.0885435 0.0362964 0.502924 0.092819 0.0369379 0.514772 0.0968446 0.0375187 0.526173 
0.100634 0.0380643 0.537017 0.104189 0.0385919 0.547215 0.107503 0.0391087 0.556707 
0.110558 0.0396117 0.565464 0.113332 0.0400894 0.573482 0.1158 0.0405234 0.580787 
0.117942 0.0408929 0.587418 0.119741 0.0411774 0.59343 0.121194 0.0413611 0.598878 
0.122308 0.0414358 0.603812 0.123105 0.0414027 0.608269 0.123618 0.041274 0.612273 
0.123895 0.0410714 0.615828 0.123987 0.0408249 0.618925 0.123953 0.0405695 0.621538 
0.123847 0.0403416 0.623637 0.12372 0.0401748 0.625189 0.123611 0.040096 0.626165 
0.123545 0.0401225 0.626547 
LINES 2 100
OFFSETS vtktypeint64
0 100 
CONNECTIVITY vtktypeint64
0 1 2 3 4 5 6 7 8 
9 10 11 12 13 14 15 16 17 
18 19 20 21 22 23 24 25 26 
27 28 29 30 31 32 33 34 35 
36 37 38 39 40 41 42 43 44 
45 46 47 48 49 50 51 52 53 
54 55 56 57 58 59 60 61 62 
63 64 65 66 67 68 69 70 71 
72 73 74 75 76 77 78 79 80 
81 82 83 84 85 86 87 88 89 
90 91 92 93 94 95 96 97 98 
99 
POINT_DATA 100
FIELD FieldData 3
_theta 1 100 double
0 0.031733259127 0.063466518254 0.095199777382 0.12693303651 0.15866629564 0.19039955476 0.22213281389 0.25386607302 
0.28559933214 0.31733259127 0.3490658504 0.38079910953 0.41253236865 0.44426562778 0.47599888691 0.50773214603 0.53946540516 
0.57119866429 0.60293192342 0.63466518254 0.66639844167 0.6981317008 0.72986495992 0.76159821905 0.79333147818 0.82506473731 
0.85679799643 0.88853125556 0.92026451469 0.95199777382 0.98373103294 1.0154642921 1.0471975512 1.0789308103 1.1106640695 
1.1423973286 1.1741305877 1.2058638468 1.237597106 1.2693303651 1.3010636242 1.3327968833 1.3645301425 1.3962634016 
1.4279966607 1.4597299198 1.491463179 1.5231964381 1.5549296972 1.5866629564 1.6183962155 1.6501294746 1.6818627337 
1.7135959929 1.745329252 1.7770625111 1.8087957702 1.8405290294 1.8722622885 1.9039955476 1.9357288068 1.9674620659 
1.999195325 2.0309285841 2.0626618433 2.0943951024 2.1261283615 2.1578616206 2.1895948798 2.2213281389 2.253061398 
2.2847946572 2.3165279163 2.3482611754 2.3799944345 2.4117276937 2.4434609528 2.4751942119 2.506927471 2.5386607302 
2.5703939893 2.6021272484 2.6338605076 2.6655937667 2.6973270258 2.7290602849 2.7607935441 2.7925268032 2.8242600623 
2.8559933214 2.8877265806 2.9194598397 2.9511930988 2.982926358 3.0146596171 3.0463928762 3.0781261353 3.1098593945 
3.1415926536 
_radius 1 100 double
1.0046079493e-15 0.012452034941 0.024897408114 0.037326257652 0.049721997807 0.062055328103 0.074277363229 0.086313780366 0.098062115197 
0.10939378079 0.1201612901 0.13020992908 0.13939212669 0.14758223737 0.15468945514 0.1606670384 0.16551677574 0.16928846849 
0.17207496155 0.1740037839 0.1752266941 0.17590836285 0.17621513257 0.17630440293 0.17631488008 0.17635786751 0.17651004307 
0.17680863652 0.17725027323 0.17779461125 0.17837311281 0.17890208199 0.1792979857 0.17949252279 0.1794450156 0.17915023217 
0.17864047075 0.17798169111 0.1772648108 0.17659469212 0.17607986092 0.17582495113 0.17592600058 0.17646748679 0.17751987486 
0.17913684438 0.18135171802 0.18417298366 0.18757940674 0.19151596418 0.19589227205 0.20058497342 0.2054447032 0.2103071016 
0.21500634778 0.21938913958 0.22332704568 0.22672560152 0.22952919473 0.23172146668 0.23332150939 0.23437655174 0.23495217488 
0.23512142047 0.2349543664 0.23450963576 0.23382878449 0.23293381768 0.2318275835 0.23049660194 0.22891580174 0.22705444306 
0.22488219888 0.22237416674 0.21951371031 0.21629254069 0.21270816945 0.20875953224 0.20444197242 0.19974281057 0.19463846568 
0.18909368917 0.183063079 0.1764947401 0.16933572988 0.16153870742 0.15306896378 0.14391080877 0.13407223293 0.12358692885 
0.11251313865 0.10092931642 0.088927150016 0.076602967643 0.064048865253 0.051344957251 0.038553956748 0.025718884214 0.012864184777 
1.394721771e-15 
_area 1 100 double
0 0.00036316618753 0.0014741080177 0.0033897859549 0.0061828998933 0.0099154337582 0.014612060217 0.020238754265 0.026690009515 
0.03378614353 0.041280690464 0.048876903387 0.056251754907 0.063085228043 0.069091957111 0.074051516065 0.077833149444 0.080410800231 
0.081865136194 0.082371039116 0.082171636502 0.081543001935 0.08075626656 0.080044885976 0.079583082518 0.079477071861 0.079765934887 
0.080427176853 0.081384030757 0.082515152516 0.083669382183 0.084687364593 0.085428876699 0.085801230415 0.085781625357 0.085426500861 
0.084862667742 0.084245812029 0.083704955365 0.083350439872 0.083295807681 0.083650142865 0.084507884323 0.085945782457 0.08801790899 
0.090748434631 0.094139431732 0.098187831276 0.10288540004 0.10819814502 0.11404358771 0.12028523798 0.12674443674 0.13321772855 
0.13949321195 0.14536582527 0.15065259498 0.1552081442 0.15894166519 0.16184121878 0.16401735759 0.16561402535 0.1665649212 
0.16685749833 0.16647479362 0.16543310882 0.1637852031 0.16160286507 0.15897454193 0.15600600919 0.15281368078 0.14950460958 
0.14614554787 0.14273464939 0.13919765217 0.13542070618 0.13130110113 0.12678130279 0.12185193825 0.11653349495 0.11085246401 
0.10482335527 0.098442322199 0.091693200763 0.084562853618 0.077060184801 0.069232430466 0.061173515459 0.053022020066 0.044949580941 
0.03714315017 0.029785722697 0.02303983681 0.017036747915 0.011872276976 0.0076085846245 0.0042800515556 0.0019012188847 0.00047503513334 
6.7454595118e-17 
