# vtk DataFile Version 5.1
vtk output
ASCII
DATASET POLYDATA
POINTS 100 float
0.102362 0.0122152 -0.648836 0.102249 0.012213 -0.649056 0.101933 0.0123654 -0.649703 
0.101395 0.0126557 -0.650631 0.100612 0.0130593 -0.651616 0.0995551 0.0135495 -0.652375 
0.0981968 0.0141024 -0.652603 0.0965162 0.0147026 -0.651998 0.094502 0.0153478 -0.650297 
0.0921545 0.0160518 -0.647296 0.0894851 0.0168452 -0.642874 0.0865134 0.0177736 -0.636994 
0.0832631 0.0188939 -0.629704 0.079756 0.0202681 -0.621128 0.0760064 0.0219564 -0.611439 
0.0720166 0.0240094 -0.600842 0.0677735 0.0264616 -0.589545 0.0632488 0.0293252 -0.577734 
0.0584016 0.0325869 -0.565555 0.0531834 0.0362073 -0.553098 0.0475463 0.040122 -0.540396 
0.0414511 0.0442459 -0.527423 0.0348761 0.0484795 -0.514108 0.0278241 0.0527158 -0.500348 
0.0203268 0.056848 -0.48603 0.0124456 0.0607768 -0.471046 0.00426823 0.0644156 -0.455312 
-0.00409769 0.0676952 -0.43878 -0.0125351 0.0705652 -0.421442 -0.0209288 0.0729939 -0.403333 
-0.0291777 0.0749665 -0.384518 -0.0372049 0.0764816 -0.36509 -0.0449649 0.0775471 -0.345146 
-0.0524465 0.0781765 -0.324777 -0.0596708 0.0783858 -0.304057 -0.0666834 0.0781908 -0.283025 
-0.0735434 0.0776066 -0.261691 -0.0803085 0.0766483 -0.240031 -0.0870199 0.0753324 -0.217993 
-0.0936872 0.0736792 -0.195514 -0.100277 0.071715 -0.172532 -0.106708 0.0694741 -0.148999 
-0.112848 0.0669997 -0.124899 -0.118521 0.0643431 -0.100257 -0.123522 0.061562 -0.0751449 
-0.127629 0.0587166 -0.049681 -0.130629 0.0558654 -0.0240247 -0.132335 0.0530605 0.0016343 
-0.132607 0.0503428 0.0270917 -0.131365 0.0477383 0.0521449 -0.1286 0.0452564 0.0766098 
-0.124377 0.0428899 0.100335 -0.118825 0.0406171 0.123214 -0.112127 0.0384065 0.145187 
-0.104505 0.0362224 0.166247 -0.0961953 0.0340327 0.186428 -0.0874303 0.0318153 0.205801 
-0.0784174 0.0295649 0.22446 -0.0693248 0.0272979 0.242509 -0.0602721 0.0250541 0.260046 
-0.051328 0.0228972 0.277158 -0.042514 0.0209104 0.293912 -0.0338148 0.0191911 0.31035 
-0.0251915 0.0178424 0.326492 -0.0165984 0.0169636 0.342342 -0.00799756 0.0166409 0.35789 
0.000627957 0.0169379 0.373125 0.00926576 0.0178893 0.388042 0.0178712 0.0194954 0.402643 
0.0263702 0.0217215 0.416946 0.0346671 0.0244985 0.430984 0.0426565 0.0277286 0.444798 
0.0502364 0.0312915 0.458434 0.0573224 0.0350536 0.471935 0.0638579 0.0388771 0.485333 
0.0698211 0.0426297 0.498639 0.0752272 0.0461926 0.51184 0.0801241 0.0494669 0.524895 
0.0845836 0.0523775 0.537735 0.0886892 0.0548754 0.550266 0.0925211 0.0569365 0.56238 
0.0961426 0.0585596 0.573959 0.0995884 0.0597621 0.584886 0.102857 0.0605755 0.59506 
0.10591 0.0610404 0.604396 0.108676 0.0612026 0.612838 0.111061 0.061109 0.620362 
0.112963 0.0608054 0.626971 0.114288 0.0603353 0.632698 0.114969 0.0597395 0.637598 
0.114981 0.059056 0.641741 0.114349 0.0583216 0.645207 0.113153 0.0575716 0.648076 
0.111526 0.0568409 0.650425 0.109642 0.0561635 0.652321 0.107701 0.0555719 0.65382 
0.105909 0.0550957 0.654965 0.104458 0.0547606 0.655786 0.1035 0.054586 0.656306 
0.103135 0.0545842 0.656534 
LINES 2 100
OFFSETS vtktypeint64
0 100 
CONNECTIVITY vtktypeint64
0 1 2 3 4 5 6 7 8 
9 10 11 12 13 14 15 16 17 
18 19 20 21 22 23 24 25 26 
27 28 29 30 31 32 33 34 35 
36 37 38 39 40 41 42 43 44 
45 46 47 48 49 50 51 52 53 
54 55 56 57 58 59 60 61 62 
63 64 65 66 67 68 69 70 71 
72 73 74 75 76 77 78 79 80 
81 82 83 84 85 86 87 88 89 
90 91 92 93 94 95 96 97 98 
99 
POINT_DATA 100
FIELD FieldData 3
_theta 1 100 double
0 0.031733259127 0.063466518254 0.095199777382 0.12693303651 0.15866629564 0.19039955476 0.22213281389 0.25386607302 
0.28559933214 0.31733259127 0.3490658504 0.38079910953 0.41253236865 0.44426562778 0.47599888691 0.50773214603 0.53946540516 
0.57119866429 0.60293192342 0.63466518254 0.66639844167 0.6981317008 0.72986495992 0.76159821905 0.79333147818 0.82506473731 
0.85679799643 0.88853125556 0.92026451469 0.95199777382 0.98373103294 1.0154642921 1.0471975512 1.0789308103 1.1106640695 
1.1423973286 1.1741305877 1.2058638468 1.237597106 1.2693303651 1.3010636242 1.3327968833 1.3645301425 1.3962634016 
1.4279966607 1.4597299198 1.491463179 1.5231964381 1.5549296972 1.5866629564 1.6183962155 1.6501294746 1.6818627337 
1.7135959929 1.745329252 1.7770625111 1.8087957702 1.8405290294 1.8722622885 1.9039955476 1.9357288068 1.9674620659 
1.999195325 2.0309285841 2.0626618433 2.0943951024 2.1261283615 2.1578616206 2.1895948798 2.2213281389 2.253061398 
2.2847946572 2.3165279163 2.3482611754 2.3799944345 2.4117276937 2.4434609528 2.4751942119 2.506927471 2.5386607302 
2.5703939893 2.6021272484 2.6338605076 2.6655937667 2.6973270258 2.7290602849 2.7607935441 2.7925268032 2.8242600623 
2.8559933214 2.8877265806 2.9194598397 2.9511930988 2.982926358 3.0146596171 3.0463928762 3.0781261353 3.1098593945 
3.1415926536 
_radius 1 100 double
2.5018537766e-17 0.015201433277 0.030298657087 0.045183559657 0.059747145908 0.073880490105 0.08747668172 0.10043357588 0.11265707609 
0.12406467666 0.13458898329 0.14418086848 0.15281183835 0.16047518005 0.16718559692 0.17297731917 0.17790100349 0.18201997371 
0.18540641436 0.18813800857 0.19029527383 0.19195956302 0.19321142424 0.19412883058 0.19478482086 0.19524441382 0.19556117319 
0.19577422869 0.19590661839 0.19596546561 0.19594394207 0.19582449739 0.19558265475 0.19519082719 0.19462201588 0.19385374743 
0.19287288928 0.19168165255 0.19030405516 0.18879099033 0.18722171805 0.18570036469 0.18434750225 0.18328854439 0.18264195247 
0.18251030075 0.18297557793 0.18409744437 0.18591148206 0.1884251922 0.1916120497 0.19540629381 0.1997015943 0.20435521895 
0.20919726959 0.21404331877 0.21870853274 0.22302153024 0.22683645677 0.2300420962 0.23256734621 0.23438293233 0.235499675 
0.23596388612 0.2358505639 0.23525502545 0.23428352615 0.23304333575 0.23163273522 0.23013150534 0.22859268508 0.22703659657 
0.22544820249 0.22377860879 0.22195087865 0.21986940301 0.21743119591 0.21453703471 0.21110056249 0.2070541982 0.20235159723 
0.1969671167 0.19089310484 0.18413590381 0.17671136731 0.16864055679 0.15994612226 0.15064969285 0.14077041785 0.13032465923 
0.11932676579 0.10779082766 0.095733262613 0.083175996053 0.070149874027 0.056697827487 0.042877214562 0.028760748423 0.014435530405 
7.3738932295e-16 
_area 1 100 double
0 0.00055346481053 0.002220946674 0.005015313096 0.0089339526152 0.013933788946 0.019911649508 0.026695473102 0.034047861594 
0.041680899259 0.049279964418 0.056533568153 0.063165348496 0.068963111284 0.073798735037 0.077632941855 0.080502167343 0.082492230957 
0.083711672686 0.084277667328 0.084316800044 0.083972292378 0.083408055772 0.082807402347 0.082379867586 0.082363205438 0.082808972751 
0.083552363809 0.084419926705 0.085263673806 0.085970506501 0.086473030724 0.086749059708 0.086810269667 0.086687366459 0.086421314743 
0.086063372195 0.085675803406 0.085326644706 0.085085444929 0.085030547035 0.085261665467 0.085898371574 0.087052848179 0.088779529614 
0.091023660923 0.093649584312 0.096541644447 0.099667096013 0.10308992783 0.10693222103 0.1112992378 0.11622637479 0.12167433643 
0.12753719 0.13364529491 0.1397769121 0.14568185121 0.15110806384 0.15582583043 0.15964815739 0.1624461633 0.16415789622 
0.16478958605 0.1644095769 0.16313652393 0.16112438319 0.15854685968 0.15558303843 0.15240422353 0.14916087499 0.14596930639 
0.14289962959 0.13996678527 0.13712555752 0.13427140056 0.13125125257 0.12788699985 0.12400768121 0.11948105549 0.114235594 
0.10826848441 0.10163991819 0.094457057115 0.086852771667 0.078964872972 0.070921024618 0.062832538776 0.054797064787 0.046906991838 
0.039258830255 0.031959505735 0.025127515827 0.018888975376 0.013370046854 0.0086880146277 0.0049433496524 0.002214526121 0.00055620019031 
9.3059665971e-17 
