# vtk DataFile Version 5.1
vtk output
ASCII
DATASET POLYDATA
POINTS 100 float
0.0281333 -0.00819422 -0.73032 0.0279615 -0.00801368 -0.729962 0.0274982 -0.00732959 -0.728974 
0.0268006 -0.00619844 -0.727347 0.0259542 -0.00470552 -0.72507 0.0250584 -0.00295301 -0.722126 
0.0242094 -0.00104588 -0.718495 0.0234828 0.000922716 -0.714153 0.0229185 0.00288429 -0.709075 
0.0225093 0.00480441 -0.703231 0.0221961 0.00668738 -0.696592 0.0218701 0.00857533 -0.689125 
0.021381 0.010542 -0.680795 0.0205527 0.012682 -0.671568 0.0192017 0.0150964 -0.661406 
0.0171588 0.0178774 -0.650277 0.0142896 0.0210939 -0.638148 0.010511 0.0247788 -0.624995 
0.00580361 0.0289215 -0.610803 0.000215909 0.0334652 -0.595568 -0.00613869 0.0383097 -0.579303 
-0.0130924 0.0433197 -0.562037 -0.0204401 0.0483375 -0.543817 -0.0279596 0.0531975 -0.524706 
-0.0354354 0.0577419 -0.504785 -0.0426791 0.0618355 -0.484142 -0.0495482 0.0653765 -0.462874 
-0.0559573 0.0683036 -0.441073 -0.0618831 0.0705979 -0.418827 -0.0673609 0.0722799 -0.396204 
-0.0724737 0.0734015 -0.373257 -0.0773354 0.0740354 -0.350013 -0.0820701 0.0742628 -0.326472 
-0.0867893 0.0741609 -0.302615 -0.0915714 0.0737923 -0.278402 -0.0964447 0.073198 -0.253781 
-0.101376 0.0723944 -0.228698 -0.106269 0.0713741 -0.203107 -0.110966 0.0701113 -0.176979 
-0.115262 0.06857 -0.150313 -0.118922 0.0667145 -0.123139 -0.121706 0.0645188 -0.0955274 
-0.123387 0.0619765 -0.0675859 -0.12378 0.0591063 -0.0394564 -0.122756 0.055955 -0.0113088 
-0.12026 0.0525962 0.0166698 -0.116315 0.049125 0.0442866 -0.111019 0.04565 0.0713563 
-0.104541 0.042283 0.0977136 -0.0971031 0.0391285 0.123224 -0.0889603 0.0362738 0.147794 
-0.0803816 0.0337819 0.17137 -0.0716261 0.0316869 0.193946 -0.062924 0.0299934 0.215557 
-0.0544609 0.0286803 0.236272 -0.0463672 0.0277063 0.256185 -0.0387139 0.0270189 0.275407 
-0.0315144 0.0265638 0.294049 -0.0247316 0.0262937 0.312217 -0.0182889 0.0261755 0.330001 
-0.0120847 0.0261951 0.34747 -0.00600682 0.0263588 0.364669 5.29305e-05 0.0266907 0.381618 
0.0061866 0.0272282 0.398317 0.0124611 0.0280144 0.414751 0.0189131 0.0290899 0.430898 
0.0255472 0.0304846 0.446732 0.0323386 0.0322109 0.462235 0.0392381 0.034259 0.477398 
0.0461786 0.0365959 0.492225 0.0530839 0.0391662 0.506735 0.0598759 0.0418972 0.520958 
0.0664819 0.0447055 0.534933 0.0728399 0.0475046 0.5487 0.0789018 0.0502133 0.562297 
0.0846352 0.0527628 0.57575 0.0900223 0.0551017 0.589072 0.0950587 0.0571988 0.602258 
0.0997496 0.0590429 0.615278 0.104107 0.0606405 0.628087 0.108146 0.0620106 0.640618 
0.111883 0.0631791 0.652793 0.115332 0.0641727 0.664525 0.118504 0.0650133 0.675726 
0.121406 0.0657145 0.686311 0.124046 0.0662798 0.696206 0.126426 0.0667032 0.70535 
0.12855 0.0669727 0.713702 0.130424 0.0670741 0.721238 0.132054 0.0669968 0.727953 
0.133449 0.0667389 0.73386 0.134623 0.0663115 0.738986 0.135591 0.0657412 0.743366 
0.136372 0.06507 0.747046 0.136986 0.0643534 0.750073 0.137451 0.0636552 0.752491 
0.137788 0.0630418 0.754344 0.13801 0.062575 0.755665 0.13813 0.0623046 0.756482 
0.138156 0.0622634 0.756809 
LINES 2 100
OFFSETS vtktypeint64
0 100 
CONNECTIVITY vtktypeint64
0 1 2 3 4 5 6 7 8 
9 10 11 12 13 14 15 16 17 
18 19 20 21 22 23 24 25 26 
27 28 29 30 31 32 33 34 35 
36 37 38 39 40 41 42 43 44 
45 46 47 48 49 50 51 52 53 
54 55 56 57 58 59 60 61 62 
63 64 65 66 67 68 69 70 71 
72 73 74 75 76 77 78 79 80 
81 82 83 84 85 86 87 88 89 
90 91 92 93 94 95 96 97 98 
99 
POINT_DATA 100
FIELD FieldData 3
_theta 1 100 double
0 0.031733259127 0.063466518254 0.095199777382 0.12693303651 0.15866629564 0.19039955476 0.22213281389 0.25386607302 
0.28559933214 0.31733259127 0.3490658504 0.38079910953 0.41253236865 0.44426562778 0.47599888691 0.50773214603 0.53946540516 
0.57119866429 0.60293192342 0.63466518254 0.66639844167 0.6981317008 0.72986495992 0.76159821905 0.79333147818 0.82506473731 
0.85679799643 0.88853125556 0.92026451469 0.95199777382 0.98373103294 1.0154642921 1.0471975512 1.0789308103 1.1106640695 
1.1423973286 1.1741305877 1.2058638468 1.237597106 1.2693303651 1.3010636242 1.3327968833 1.3645301425 1.3962634016 
1.4279966607 1.4597299198 1.491463179 1.5231964381 1.5549296972 1.5866629564 1.6183962155 1.6501294746 1.6818627337 
1.7135959929 1.745329252 1.7770625111 1.8087957702 1.8405290294 1.8722622885 1.9039955476 1.9357288068 1.9674620659 
1.999195325 2.0309285841 2.0626618433 2.0943951024 2.1261283615 2.1578616206 2.1895948798 2.2213281389 2.253061398 
2.2847946572 2.3165279163 2.3482611754 2.3799944345 2.4117276937 2.4434609528 2.4751942119 2.506927471 2.5386607302 
2.5703939893 2.6021272484 2.6338605076 2.6655937667 2.6973270258 2.7290602849 2.7607935441 2.7925268032 2.8242600623 
2.8559933214 2.8877265806 2.9194598397 2.9511930988 2.982926358 3.0146596171 3.0463928762 3.0781261353 3.1098593945 
3.1415926536 
_radius 1 100 double
6.6909073792e-16 0.015105156102 0.030139447032 0.045027131025 0.059680800258 0.07399618848 0.087848919908 0.10109469838 0.11357403037 
0.12512165282 0.13557977547 0.14481340826 0.15272560235 0.15927037943 0.16446136218 0.16837456545 0.17114445362 0.17295325227 
0.17401461256 0.17455388164 0.17478805554 0.17490857913 0.1750693505 0.17538080325 0.17590929412 0.17667984505 0.17768011332 
0.17886439011 0.18015787053 0.18146244433 0.18266523195 0.18365019055 0.18431196141 0.18457027001 0.1843827948 0.18375438299 
0.18274074809 0.18144546528 0.18001031876 0.1786006965 0.17738921812 0.17654118832 0.17620407886 0.17650060869 0.17752299101 
0.1793261365 0.18191987481 0.1852628867 0.189262079 0.19377968443 0.19864729961 0.20368344745 0.20871060195 0.21356882559 
0.21812500458 0.22227800287 0.22596052343 0.22913832606 0.23180718227 0.23398788783 0.23571982308 0.23705372179 0.23804427793 
0.23874307303 0.23919229621 0.23941987343 0.23943664872 0.23923598641 0.23879569317 0.23808171672 0.23705281382 0.23566533494 
0.23387742549 0.23165223086 0.22896001277 0.22577931689 0.22209740107 0.21791005121 0.21322077494 0.2080392843 0.20237922249 
0.19625524077 0.18967971909 0.18265957316 0.17519365412 0.1672712209 0.15887186081 0.14996706107 0.14052339786 0.13050703832 
0.11988900602 0.1086505168 0.096787694473 0.084315110846 0.071267809559 0.057701703461 0.043692435245 0.029332932881 0.014729964081 
9.0483199253e-16 
_area 1 100 double
0 0.00058621230029 0.0023416705196 0.0052517625352 0.0092766570423 0.014333026795 0.020277587238 0.026899132639 0.033923723634 
0.041033637713 0.047896198032 0.054195711274 0.059661846913 0.064090542828 0.067356991142 0.069422318175 0.070335456882 0.070230311226 
0.069317111624 0.067866745602 0.066188133546 0.064602814002 0.063441497456 0.063094204779 0.063659577251 0.065031021413 0.067050266521 
0.0694885835 0.072095957289 0.074645876697 0.076964206651 0.078942094053 0.080535216123 0.081746212594 0.082588221555 0.083057861187 
0.083152490473 0.082911178374 0.082441428611 0.081918744894 0.081562154323 0.081594785361 0.082202462278 0.083506865741 0.085569594836 
0.088420257335 0.092072830824 0.096514181637 0.10168750547 0.10749050318 0.11378328307 0.12039732924 0.1271448628 0.13383024267 
0.14026363448 0.14627716263 0.1517479668 0.15664146714 0.16100557992 0.16477257883 0.16783857423 0.17014737365 0.17169741225 
0.17252729984 0.17269784721 0.17228417976 0.17136865628 0.17003058694 0.16833327869 0.16631253918 0.16397074587 0.1612781141 
0.15818120568 0.15461718231 0.15052976184 0.14588191043 0.1406626039 0.1348880952 0.12859953665 0.1218585988 0.11474204063 
0.10733565033 0.099727719208 0.092002305644 0.084233047251 0.076478914116 0.068783424198 0.061178045256 0.053689148127 0.046346818215 
0.039193603373 0.032291653464 0.025727131917 0.019611019181 0.014075684193 0.0092670997418 0.0053333068127 0.0024105156528 0.00060884995315 
3.469446952e-18 
