# vtk DataFile Version 5.1
vtk output
ASCII
DATASET POLYDATA
POINTS 100 float
0.126526 0.0442424 0.748909 0.126567 0.0444859 0.748781 0.126807 0.045056 0.748271 
0.127195 0.045925 0.747353 0.127657 0.0470506 0.745985 0.128096 0.04838 0.744114 
0.128408 0.0498549 0.741673 0.128494 0.051416 0.73859 0.128264 0.0530081 0.734785 
0.127653 0.0545824 0.730184 0.126622 0.0560994 0.724715 0.125162 0.0575279 0.718324 
0.123291 0.0588444 0.710972 0.121054 0.0600305 0.702647 0.118506 0.0610698 0.693362 
0.115712 0.0619448 0.683162 0.112732 0.0626354 0.672117 0.109613 0.063117 0.660323 
0.10638 0.063362 0.647895 0.103034 0.0633412 0.634955 0.0995502 0.0630279 0.62163 
0.0958794 0.0624022 0.608033 0.0919551 0.0614553 0.59426 0.0877007 0.0601942 0.580381 
0.0830399 0.0586442 0.56643 0.0779059 0.0568503 0.552411 0.0722502 0.0548762 0.538289 
0.0660497 0.0528009 0.524005 0.0593099 0.0507141 0.509475 0.0520652 0.048709 0.494603 
0.0443761 0.0468757 0.479289 0.0363229 0.0452942 0.463443 0.0279974 0.0440286 0.446988 
0.0194939 0.0431227 0.429871 0.0109002 0.042599 0.412061 0.00228988 0.0424586 0.393553 
-0.00628287 0.042685 0.374363 -0.014785 0.0432481 0.354523 -0.0232032 0.0441109 0.334072 
-0.0315389 0.0452348 0.313048 -0.0398008 0.046585 0.291484 -0.0479953 0.0481347 0.269402 
-0.0561163 0.0498659 0.246808 -0.0641367 0.0517697 0.223696 -0.0720004 0.0538427 0.200048 
-0.0796189 0.0560829 0.175845 -0.0868712 0.0584841 0.151069 -0.0936076 0.0610304 0.125717 
-0.0996578 0.0636918 0.0998059 -0.104842 0.0664213 0.0733781 -0.108985 0.0691549 0.0465059 
-0.11193 0.0718137 0.0192903 -0.113552 0.0743089 -0.00814242 -0.113768 0.0765486 -0.0356487 
-0.112549 0.0784462 -0.0630768 -0.109919 0.0799281 -0.0902783 -0.105955 0.0809413 -0.117119 
-0.100785 0.0814579 -0.14349 -0.0945719 0.081478 -0.169312 -0.087506 0.0810281 -0.194542 
-0.0797871 0.080157 -0.219173 -0.0716105 0.0789289 -0.243228 -0.063153 0.0774143 -0.266754 
-0.054562 0.0756804 -0.28981 -0.0459477 0.0737821 -0.31246 -0.03738 0.071755 -0.334758 
-0.0288898 0.069611 -0.356738 -0.0204743 0.0673374 -0.378413 -0.0121057 0.0649001 -0.399766 
-0.00374221 0.0622499 -0.420752 0.00466001 0.0593314 -0.441307 0.0131357 0.0560932 -0.461347 
0.0217008 0.0524983 -0.480788 0.0303457 0.0485328 -0.499547 0.0390318 0.0442118 -0.517555 
0.0476924 0.0395822 -0.534767 0.0562363 0.0347202 -0.551164 0.0645558 0.0297261 -0.566756 
0.0725351 0.024715 -0.581577 0.0800613 0.0198051 -0.595685 0.0870343 0.0151059 -0.609149 
0.0933756 0.0107067 -0.622043 0.0990349 0.0066678 -0.634436 0.103994 0.00301471 -0.646382 
0.108265 -0.000262668 -0.657914 0.111891 -0.00320673 -0.669044 0.114939 -0.00588457 -0.679755 
0.117488 -0.00837727 -0.690008 0.119628 -0.0107674 -0.699747 0.121445 -0.0131262 -0.708901 
0.123015 -0.0155027 -0.717394 0.1244 -0.0179156 -0.725154 0.12564 -0.0203488 -0.732113 
0.126759 -0.0227528 -0.738215 0.127757 -0.0250494 -0.743418 0.128623 -0.0271412 -0.747693 
0.129334 -0.0289234 -0.751023 0.129865 -0.0302971 -0.7534 0.130193 -0.0311813 -0.754821 
0.130302 -0.0315237 -0.755286 
LINES 2 100
OFFSETS vtktypeint64
0 100 
CONNECTIVITY vtktypeint64
0 1 2 3 4 5 6 7 8 
9 10 11 12 13 14 15 16 17 
18 19 20 21 22 23 24 25 26 
27 28 29 30 31 32 33 34 35 
36 37 38 39 40 41 42 43 44 
45 46 47 48 49 50 51 52 53 
54 55 56 57 58 59 60 61 62 
63 64 65 66 67 68 69 70 71 
72 73 74 75 76 77 78 79 80 
81 82 83 84 85 86 87 88 89 
90 91 92 93 94 95 96 97 98 
99 
POINT_DATA 100
FIELD FieldData 3
_theta 1 100 double
0 0.031733259127 0.063466518254 0.095199777382 0.12693303651 0.15866629564 0.19039955476 0.22213281389 0.25386607302 
0.28559933214 0.31733259127 0.3490658504 0.38079910953 0.41253236865 0.44426562778 0.47599888691 0.50773214603 0.53946540516 
0.57119866429 0.60293192342 0.63466518254 0.66639844167 0.6981317008 0.72986495992 0.76159821905 0.79333147818 0.82506473731 
0.85679799643 0.88853125556 0.92026451469 0.95199777382 0.98373103294 1.0154642921 1.0471975512 1.0789308103 1.1106640695 
1.1423973286 1.1741305877 1.2058638468 1.237597106 1.2693303651 1.3010636242 1.3327968833 1.3645301425 1.3962634016 
1.4279966607 1.4597299198 1.491463179 1.5231964381 1.5549296972 1.5866629564 1.6183962155 1.6501294746 1.6818627337 
1.7135959929 1.745329252 1.7770625111 1.8087957702 1.8405290294 1.8722622885 1.9039955476 1.9357288068 1.9674620659 
1.999195325 2.0309285841 2.0626618433 2.0943951024 2.1261283615 2.1578616206 2.1895948798 2.2213281389 2.253061398 
2.2847946572 2.3165279163 2.3482611754 2.3799944345 2.4117276937 2.4434609528 2.4751942119 2.506927471 2.5386607302 
2.5703939893 2.6021272484 2.6338605076 2.6655937667 2.6973270258 2.7290602849 2.7607935441 2.7925268032 2.8242600623 
2.8559933214 2.8877265806 2.9194598397 2.9511930988 2.982926358 3.0146596171 3.0463928762 3.0781261353 3.1098593945 
3.1415926536 
_radius 1 100 double
1.1335697856e-15 0.017128366563 0.034019288099 0.05044870059 0.066224275967 0.081196280995 0.095263446076 0.10837388678 0.12052185724 
0.1317414091 0.14209788534 0.15167781461 0.16057751111 0.16889077898 0.17669661086 0.1840484337 0.19096688842 0.19743795733 
0.20341736195 0.20884078332 0.21363808326 0.21774880071 0.22113602225 0.22379626626 0.22576403869 0.22711086577 0.22793954224 
0.22837482258 0.22855180254 0.22860298562 0.22864484096 0.22876480996 0.22901020467 0.22938092955 0.2298279684 0.23025881634 
0.23054961933 0.23056222204 0.23016324721 0.22924212902 0.22772565936 0.22558768166 0.22285360459 0.21960010137 0.21595064138 
0.21206745404 0.20814029198 0.20437212148 0.20096189173 0.19808516682 0.19587482715 0.19440576891 0.19368813444 0.19367166046 
0.19425960449 0.19532700019 0.19673731617 0.19835413032 0.2000480244 0.20170110422 0.20321140629 0.20449778751 0.20550429439 
0.20620257641 0.20659168732 0.20669566641 0.20655944854 0.20624293539 0.20581283273 0.20533278204 0.20485340279 0.20440407985 
0.20398770104 0.20357866038 0.2031237675 0.20254540718 0.20174629528 0.20061530826 0.19903399061 0.19688340996 0.19405103106 
0.19043723898 0.18596110641 0.18056501304 0.17421778943 0.16691613653 0.15868413952 0.14957077584 0.13964546974 0.12899201089 
0.11770149908 0.10586529694 0.09356912267 0.080889281865 0.067891593683 0.054632902882 0.041164379708 0.027535337478 0.013796241331 
9.0178055459e-16 
_area 1 100 double
0 0.00065578460591 0.0025887896705 0.0057021178124 0.0098527390212 0.014873053272 0.020591652084 0.026848816618 0.033505162028 
0.040444620582 0.047574239125 0.054822579225 0.062136769686 0.069477210907 0.076809689178 0.084096557996 0.091289799482 0.098328058848 
0.10513791115 0.11163846294 0.11774877095 0.12339808576 0.12853701686 0.1331434992 0.13721664523 0.14076026643 0.14377075057 
0.14624443342 0.14820204194 0.14971214174 0.15089798466 0.15192211677 0.15294875173 0.15408989087 0.15535456411 0.15662892353 
0.1576990215 0.15830342996 0.15819426224 0.15718894735 0.1552021938 0.15225523086 0.14846533823 0.14402185059 0.13915596443 
0.13411147539 0.12912195719 0.12439675446 0.12011426566 0.11641765277 0.11340615327 0.11111703645 0.10950714836 0.10846100207 
0.10783221213 0.10748541287 0.10731312162 0.10723059335 0.10716007122 0.1070172218 0.10671519238 0.10618873869 0.10541444803 
0.10440850327 0.10320936456 0.10186131305 0.10040971212 0.098906204668 0.097413643167 0.09600433122 0.094753955427 0.09373616237 
0.093018749102 0.092657656051 0.092681379273 0.093059496143 0.093673447855 0.094324415122 0.094768380717 0.094747073055 0.094012170654 
0.092349336279 0.089601701434 0.085688648393 0.08061626166 0.074477996316 0.067446234056 0.059756685893 0.051687976959 0.043538570403 
0.035602922266 0.028148726967 0.021397338221 0.015509682512 0.010579881038 0.0066381357399 0.0036631563968 0.0016024737003 0.00039646761166 
9.0259778023e-17 
