# vtk DataFile Version 5.1
vtk output
ASCII
DATASET POLYDATA
POINTS 100 float
0.0826306 0.0643758 0.686871 0.0828902 0.0643935 0.68655 0.0835781 0.0645846 0.685714 
0.0846244 0.0649345 0.684353 0.0859206 0.0654195 0.682451 0.0873313 0.066009 0.679982 
0.0887078 0.0666663 0.676917 0.0899031 0.0673511 0.673223 0.0907855 0.0680211 0.668864 
0.0912501 0.0686333 0.663805 0.0912264 0.0691455 0.658018 0.0906813 0.0695172 0.651481 
0.0896176 0.0697102 0.644186 0.0880685 0.0696889 0.636138 0.086089 0.0694213 0.627362 
0.0837451 0.0688793 0.617896 0.0811035 0.0680398 0.607799 0.0782217 0.0668857 0.597141 
0.0751413 0.0654077 0.585998 0.0718842 0.0636063 0.574452 0.0684524 0.0614931 0.562579 
0.064831 0.0590931 0.550442 0.0609948 0.0564454 0.538088 0.0569147 0.0536035 0.525543 
0.052566 0.050635 0.512807 0.0479344 0.0476192 0.49986 0.0430211 0.0446445 0.486659 
0.037844 0.041804 0.473148 0.032436 0.0391906 0.45926 0.0268414 0.0368915 0.444931 
0.0211089 0.0349829 0.4301 0.0152846 0.0335251 0.414724 0.00940457 0.0325589 0.398775 
0.00348949 0.0321026 0.382245 -0.00245844 0.0321522 0.365147 -0.00845517 0.0326814 0.347507 
-0.014531 0.0336455 0.329364 -0.0207234 0.0349846 0.310759 -0.027068 0.0366298 0.29173 
-0.0335874 0.0385084 0.272305 -0.0402815 0.0405497 0.252496 -0.0471188 0.0426904 0.232301 
-0.0540313 0.0448783 0.211702 -0.0609131 0.0470746 0.190671 -0.067624 0.0492552 0.169174 
-0.0739973 0.0514096 0.147182 -0.0798516 0.0535386 0.124675 -0.0850047 0.055651 0.101656 
-0.0892889 0.0577595 0.0781546 -0.092565 0.0598764 0.0542268 -0.0947347 0.0620096 0.0299592 
-0.0957481 0.0641595 0.00546299 -0.0956076 0.0663172 -0.0191331 -0.0943654 0.0684627 -0.0436922 
-0.0921177 0.0705661 -0.0680806 -0.0889933 0.0725885 -0.0921782 -0.0851407 0.0744841 -0.115888 
-0.0807133 0.0762034 -0.139144 -0.0758558 0.0776954 -0.161912 -0.070692 0.0789108 -0.184189 
-0.0653167 0.079804 -0.206001 -0.0597912 0.0803345 -0.22739 -0.0541439 0.0804683 -0.248407 
-0.0483737 0.080178 -0.269102 -0.0424585 0.0794428 -0.28951 -0.0363641 0.0782481 -0.309643 
-0.0300549 0.076585 -0.32949 -0.0235038 0.0744505 -0.349011 -0.0166998 0.0718472 -0.368143 
-0.00965405 0.0687838 -0.386807 -0.00240128 0.0652759 -0.404919 0.00500062 0.0613466 -0.422396 
0.0124745 0.0570277 -0.439175 0.0199296 0.0523598 -0.455214 0.0272681 0.0473927 -0.470501 
0.0343922 0.0421848 -0.485057 0.0412097 0.0368012 -0.498928 0.0476387 0.0313122 -0.512181 
0.05361 0.0257904 -0.524892 0.0590678 0.020307 -0.537131 0.0639688 0.0149293 -0.548953 
0.0682804 0.00971709 -0.560386 0.0719784 0.00472037 -0.571419 0.0750453 -2.23594e-05 -0.582005 
0.0774691 -0.00448473 -0.592061 0.0792445 -0.00865202 -0.601474 0.080374 -0.0125197 -0.610118 
0.0808714 -0.0160911 -0.617865 0.0807654 -0.0193744 -0.624604 0.0801031 -0.0223797 -0.630258 
0.0789527 -0.0251161 -0.634795 0.0774045 -0.0275893 -0.638237 0.0755695 -0.0297999 -0.640662 
0.0735762 -0.0317434 -0.642198 0.0715636 -0.0334097 -0.643015 0.0696737 -0.0347853 -0.643306 
0.0680414 -0.0358548 -0.643268 0.0667846 -0.0366031 -0.643084 0.0659956 -0.037018 -0.6429 
0.0657325 -0.0370918 -0.642812 
LINES 2 100
OFFSETS vtktypeint64
0 100 
CONNECTIVITY vtktypeint64
0 1 2 3 4 5 6 7 8 
9 10 11 12 13 14 15 16 17 
18 19 20 21 22 23 24 25 26 
27 28 29 30 31 32 33 34 35 
36 37 38 39 40 41 42 43 44 
45 46 47 48 49 50 51 52 53 
54 55 56 57 58 59 60 61 62 
63 64 65 66 67 68 69 70 71 
72 73 74 75 76 77 78 79 80 
81 82 83 84 85 86 87 88 89 
90 91 92 93 94 95 96 97 98 
99 
POINT_DATA 100
FIELD FieldData 3
_theta 1 100 double
0 0.031733259127 0.063466518254 0.095199777382 0.12693303651 0.15866629564 0.19039955476 0.22213281389 0.25386607302 
0.28559933214 0.31733259127 0.3490658504 0.38079910953 0.41253236865 0.44426562778 0.47599888691 0.50773214603 0.53946540516 
0.57119866429 0.60293192342 0.63466518254 0.66639844167 0.6981317008 0.72986495992 0.76159821905 0.79333147818 0.82506473731 
0.85679799643 0.88853125556 0.92026451469 0.95199777382 0.98373103294 1.0154642921 1.0471975512 1.0789308103 1.1106640695 
1.1423973286 1.1741305877 1.2058638468 1.237597106 1.2693303651 1.3010636242 1.3327968833 1.3645301425 1.3962634016 
1.4279966607 1.4597299198 1.491463179 1.5231964381 1.5549296972 1.5866629564 1.6183962155 1.6501294746 1.6818627337 
1.7135959929 1.745329252 1.7770625111 1.8087957702 1.8405290294 1.8722622885 1.9039955476 1.9357288068 1.9674620659 
1.999195325 2.0309285841 2.0626618433 2.0943951024 2.1261283615 2.1578616206 2.1895948798 2.2213281389 2.253061398 
2.2847946572 2.3165279163 2.3482611754 2.3799944345 2.4117276937 2.4434609528 2.4751942119 2.506927471 2.5386607302 
2.5703939893 2.6021272484 2.6338605076 2.6655937667 2.6973270258 2.7290602849 2.7607935441 2.7925268032 2.8242600623 
2.8559933214 2.8877265806 2.9194598397 2.9511930988 2.982926358 3.0146596171 3.0463928762 3.0781261353 3.1098593945 
3.1415926536 
_radius 1 100 double
6.8396519173e-16 0.014143854008 0.028165819765 0.041956236207 0.055420038685 0.068480321589 0.081078589758 0.093172001124 0.10472873797 
0.11572321337 0.12613284314 0.13593746791 0.14512141242 0.15367713591 0.16160893264 0.16893525992 0.17568870526 0.18191308428 
0.18765771068 0.1929696167 0.19788529735 0.20242402497 0.20658459485 0.21034649632 0.21367527965 0.21653080624 0.21887651619 
0.22068790651 0.22195886964 0.22270509098 0.22296417089 0.22279253589 0.22225960722 0.22144009258 0.22040555555 0.21921650779 
0.21791616601 0.21652679234 0.21504924727 0.21346602833 0.2117476236 0.2098614902 0.20778244084 0.20550279146 0.20304042151 
0.20044305377 0.19778764341 0.19517473407 0.19271877879 0.19053635151 0.18873448474 0.18740092237 0.18659714975 0.18635413159 
0.18667010794 0.18750973759 0.18880435924 0.19045394598 0.19233194924 0.19429411552 0.19619132047 0.19788489856 0.19926166779 
0.20024555828 0.20080356033 0.20094515625 0.20071586264 0.20018653846 0.19944055178 0.19856081974 0.19761833268 0.19666323988 
0.19571905747 0.19478012779 0.19381212195 0.19275511273 0.19152855711 0.19003744679 0.18817893615 0.18584891897 0.18294822872 
0.1793882839 0.17509602527 0.17001790631 0.16412258162 0.15740188946 0.14986981245 0.14155934545 0.13251757588 0.12279971016 
0.11246313226 0.10156270719 0.090148343503 0.078265318407 0.065957180254 0.053270361287 0.040259133421 0.026989362902 0.013539762477 
9.708715598e-16 
_area 1 100 double
0 0.0005185436637 0.0020591143463 0.0045780978722 0.0080076485115 0.012261702502 0.017242209335 0.022844227346 0.028959227605 
0.035476879809 0.042286142623 0.049276260486 0.056337707662 0.063363345734 0.070251393396 0.076912427235 0.083280570551 0.089325456826 
0.095059425195 0.10053485565 0.10582906276 0.11101830042 0.11614736545 0.1212046154 0.12611129938 0.13072916248 0.13488430407 
0.13840080817 0.14113569544 0.14300728805 0.14401122655 0.144220959 0.14377218958 0.14283389283 0.14157209598 0.14011564663 
0.13853373344 0.13683164587 0.13496493878 0.13286592198 0.13047344707 0.12775795287 0.12473655493 0.12147548175 0.11807923304 
0.1146684548 0.11135188726 0.10820107773 0.10523865928 0.10244846044 0.099804986977 0.097307100847 0.094998865111 0.092970649531 
0.091344544206 0.090251883164 0.089805733896 0.09004879172 0.090851137401 0.091929113884 0.093000647805 0.093840036177 0.094278037162 
0.09420219718 0.093562315797 0.092377141541 0.090736206401 0.088791021141 0.086732994274 0.084760039078 0.08303953709 0.081680895122 
0.08072804597 0.080170101204 0.079959134447 0.080022955911 0.080266704382 0.080568238881 0.080778806851 0.080733140189 0.080262979099 
0.07920884776 0.077430912186 0.074821751391 0.071321371412 0.066931054592 0.061720632343 0.055825012861 0.04942974051 0.042749713674 
0.036007365116 0.029415513512 0.023166860305 0.017429124733 0.012343768506 0.0080268933543 0.0045715157855 0.002050022169 0.00051528603652 
3.3823547232e-17 
