# vtk DataFile Version 5.1
vtk output
ASCII
DATASET POLYDATA
POINTS 100 float
0.148146 -0.0474087 -0.606149 0.147907 -0.047362 -0.605906 0.147223 -0.0470574 -0.605202 
0.146122 -0.046482 -0.604035 0.144648 -0.0456155 -0.602401 0.142854 -0.0444306 -0.600291 
0.140794 -0.0428945 -0.597693 0.138516 -0.0409707 -0.59459 0.136053 -0.038621 -0.590961 
0.133421 -0.0358091 -0.586775 0.130612 -0.0325034 -0.582 0.127591 -0.0286809 -0.576596 
0.124306 -0.0243312 -0.570523 0.120685 -0.0194601 -0.563738 0.116646 -0.0140919 -0.556199 
0.112109 -0.0082723 -0.547871 0.107 -0.00206799 -0.538723 0.101266 0.0044337 -0.528733 
0.094878 0.0111277 -0.517889 0.0878384 0.0178956 -0.506188 0.0801832 0.0246112 -0.493641 
0.0719803 0.0311476 -0.480265 0.0633254 0.0373845 -0.466087 0.0543341 0.043215 -0.451139 
0.0451332 0.048553 -0.435459 0.0358491 0.0533374 -0.419086 0.0265988 0.0575358 -0.402058 
0.0174798 0.0611455 -0.384414 0.00856449 0.0641914 -0.366193 -0.00010368 0.0667226 -0.34743 
-0.00850929 0.0688061 -0.32816 -0.016661 0.0705191 -0.308421 -0.024584 0.0719409 -0.288252 
-0.0323105 0.0731443 -0.267695 -0.0398682 0.0741881 -0.246796 -0.0472698 0.0751109 -0.22561 
-0.0545032 0.0759276 -0.204194 -0.0615255 0.0766283 -0.182612 -0.0682594 0.0771795 -0.16093 
-0.0745947 0.077529 -0.139216 -0.0803946 0.0776121 -0.117535 -0.0855047 0.0773594 -0.0959496 
-0.0897656 0.0767059 -0.074514 -0.0930278 0.0755993 -0.0532736 -0.0951656 0.0740074 -0.0322631 
-0.0960899 0.0719236 -0.0115062 -0.0957587 0.06937 0.00898433 -0.0941828 0.0663973 0.0292047 
-0.0914264 0.0630825 0.0491582 -0.0876036 0.0595235 0.0688518 -0.0828691 0.0558317 0.0882934 
-0.0774061 0.0521243 0.107489 -0.0714107 0.0485147 0.126438 -0.0650766 0.0451048 0.145135 
-0.05858 0.0419784 0.163566 -0.0520668 0.0391961 0.181711 -0.0456447 0.0367936 0.199544 
-0.0393786 0.034782 0.217035 -0.0332922 0.0331507 0.234156 -0.0273737 0.0318725 0.250882 
-0.0215855 0.0309098 0.267197 -0.0158761 0.0302213 0.283096 -0.0101942 0.0297687 0.298585 
-0.00450015 0.0295215 0.313686 0.00122301 0.0294611 0.328434 0.00696343 0.0295814 0.342875 
0.0126781 0.0298883 0.357064 0.0182951 0.0303966 0.37106 0.0237207 0.0311249 0.384921 
0.028849 0.0320901 0.398699 0.0335743 0.0333018 0.412433 0.0378036 0.0347565 0.42615 
0.041468 0.0364345 0.439855 0.0445312 0.0382978 0.453536 0.0469943 0.0402911 0.467161 
0.0488959 0.0423445 0.480678 0.0503079 0.0443794 0.494023 0.0513268 0.0463147 0.507119 
0.0520619 0.0480748 0.519888 0.0526228 0.0495975 0.532248 0.0531058 0.0508399 0.544125 
0.0535828 0.051784 0.555453 0.0540937 0.0524381 0.566181 0.0546422 0.0528371 0.57627 
0.0551973 0.0530383 0.585699 0.0556992 0.053116 0.594459 0.056069 0.053153 0.602556 
0.0562219 0.0532319 0.610001 0.0560803 0.0534259 0.616816 0.0555876 0.0537902 0.62302 
0.0547189 0.0543563 0.628633 0.0534881 0.0551277 0.633672 0.0519503 0.0560796 0.638147 
0.0501986 0.0571613 0.642061 0.0483566 0.0583017 0.645413 0.0465663 0.0594173 0.648194 
0.0449738 0.0604212 0.650396 0.0437134 0.0612328 0.652006 0.0428933 0.061787 0.653014 
0.0425838 0.0620411 0.653413 
LINES 2 100
OFFSETS vtktypeint64
0 100 
CONNECTIVITY vtktypeint64
0 1 2 3 4 5 6 7 8 
9 10 11 12 13 14 15 16 17 
18 19 20 21 22 23 24 25 26 
27 28 29 30 31 32 33 34 35 
36 37 38 39 40 41 42 43 44 
45 46 47 48 49 50 51 52 53 
54 55 56 57 58 59 60 61 62 
63 64 65 66 67 68 69 70 71 
72 73 74 75 76 77 78 79 80 
81 82 83 84 85 86 87 88 89 
90 91 92 93 94 95 96 97 98 
99 
POINT_DATA 100
FIELD FieldData 3
_theta 1 100 double
0 0.031733259127 0.063466518254 0.095199777382 0.12693303651 0.15866629564 0.19039955476 0.22213281389 0.25386607302 
0.28559933214 0.31733259127 0.3490658504 0.38079910953 0.41253236865 0.44426562778 0.47599888691 0.50773214603 0.53946540516 
0.57119866429 0.60293192342 0.63466518254 0.66639844167 0.6981317008 0.72986495992 0.76159821905 0.79333147818 0.82506473731 
0.85679799643 0.88853125556 0.92026451469 0.95199777382 0.98373103294 1.0154642921 1.0471975512 1.0789308103 1.1106640695 
1.1423973286 1.1741305877 1.2058638468 1.237597106 1.2693303651 1.3010636242 1.3327968833 1.3645301425 1.3962634016 
1.4279966607 1.4597299198 1.491463179 1.5231964381 1.5549296972 1.5866629564 1.6183962155 1.6501294746 1.6818627337 
1.7135959929 1.745329252 1.7770625111 1.8087957702 1.8405290294 1.8722622885 1.9039955476 1.9357288068 1.9674620659 
1.999195325 2.0309285841 2.0626618433 2.0943951024 2.1261283615 2.1578616206 2.1895948798 2.2213281389 2.253061398 
2.2847946572 2.3165279163 2.3482611754 2.3799944345 2.4117276937 2.4434609528 2.4751942119 2.506927471 2.5386607302 
2.5703939893 2.6021272484 2.6338605076 2.6655937667 2.6973270258 2.7290602849 2.7607935441 2.7925268032 2.8242600623 
2.8559933214 2.8877265806 2.9194598397 2.9511930988 2.982926358 3.0146596171 3.0463928762 3.0781261353 3.1098593945 
3.1415926536 
_radius 1 100 double
1.5553651028e-15 0.015348014859 0.030555460303 0.04548484557 0.060007734216 0.0740079977 0.087383829938 0.10004846663 0.11192974186 
0.12296878749 0.13311832655 0.14234109938 0.15060895302 0.1579029948 0.16421497754 0.16954979609 0.17392870464 0.17739266385 
0.18000512046 0.18185350295 0.18304877241 0.18372250353 0.18402120638 0.18409795871 0.18410188248 0.18416650012 0.18439842325 
0.18486802507 0.18560363171 0.18659033497 0.18777387491 0.18906931413 0.19037356249 0.19158029353 0.19259545446 0.19335140407 
0.19381771892 0.19400694478 0.19397422341 0.19381099101 0.19363461615 0.19357695253 0.19377425444 0.19435894895 0.19545194928 
0.19715381705 0.19953413691 0.20262021614 0.2063878018 0.21075709065 0.21559639585 0.22073371714 0.22597416042 0.23111974696 
0.23598806298 0.24042708223 0.24432469981 0.2476125838 0.25026474152 0.25229173835 0.2537318433 0.25464051946 0.25507964422 
0.25510768038 0.25477179091 0.25410264288 0.25311237394 0.25179585683 0.25013496465 0.24810504673 0.24568237448 0.2428510433 
0.23960783388 0.23596389409 0.23194276255 0.22757508695 0.22289119155 0.21791319057 0.21264845047 0.20708583139 0.201195408 
0.19493152855 0.18823838373 0.18105690136 0.17333179626 0.16501788586 0.15608515492 0.14652234837 0.13633900409 0.12556583004 
0.11425328345 0.10246824436 0.09028886747 0.077798039391 0.065076266434 0.052195114859 0.03921237184 0.026169826952 0.01309405695 
5.7120089332e-16 
_area 1 100 double
0 0.00054506941583 0.0021721023685 0.004853944339 0.0085380620801 0.013139765059 0.018538225331 0.024576902858 0.031068367798 
0.037802556233 0.044557238592 0.051109652204 0.057248530396 0.062785916104 0.067568108108 0.071484935186 0.07447643879 0.076536113806 
0.077710207553 0.078093202166 0.077820336321 0.077058583415 0.075997630635 0.074841795766 0.073802071281 0.073084811323 0.072872828173 
0.073300534493 0.074432102012 0.076247716556 0.078640266474 0.081431787869 0.084409231255 0.08736227277 0.090115459908 0.092559568487 
0.094674877204 0.096523606255 0.098197066945 0.099754135739 0.10121868297 0.10262726035 0.10406707843 0.10568698228 0.10770658059 
0.11043998827 0.11418549383 0.11877425387 0.12416359815 0.13031215213 0.13711473828 0.14439190667 0.15189641828 0.15933894751 
0.16642712662 0.17290526489 0.17858315717 0.18334779499 0.18715773144 0.19002472274 0.19199011455 0.19310369821 0.19341062369 
0.19294823318 0.19175068154 0.18985657715 0.18731472894 0.18418514243 0.18053522174 0.17643330513 0.1719426617 0.16711885047 
0.16201158775 0.15666915043 0.15114093321 0.14547456188 0.13970736042 0.13385517823 0.12790336561 0.12180507965 0.11549022246 
0.10888378161 0.10192754423 0.094597517467 0.086911855153 0.078928639724 0.070736820928 0.062445368778 0.054174916385 0.046053565791 
0.038215601122 0.030800130716 0.023946909171 0.017788470847 0.01244015605 0.0079913155525 0.0045010636942 0.0020003814142 0.00049985852561 
1.734723476e-17 
