# vtk DataFile Version 5.1
vtk output
ASCII
DATASET POLYDATA
POINTS 100 float
0.13301 0.0192471 -0.621744 0.132968 0.0192079 -0.621552 0.132825 0.0192364 -0.620997 
0.132539 0.0193394 -0.620019 0.132046 0.0195282 -0.618531 0.131268 0.0198185 -0.616424 
0.130119 0.0202304 -0.613591 0.128514 0.0207874 -0.609935 0.12638 0.0215158 -0.605385 
0.12366 0.0224439 -0.599908 0.120319 0.0236002 -0.593513 0.116346 0.0250123 -0.58625 
0.111749 0.0267046 -0.578204 0.106559 0.0286967 -0.569484 0.100818 0.0310016 -0.560211 
0.0945766 0.0336236 -0.550499 0.0878878 0.0365568 -0.540444 0.0808027 0.0397846 -0.530112 
0.0733671 0.0432787 -0.519527 0.0656205 0.0469994 -0.508677 0.0575969 0.0508964 -0.49751 
0.0493272 0.0549105 -0.485947 0.0408424 0.0589753 -0.473893 0.032177 0.0630202 -0.461254 
0.0233718 0.0669725 -0.447946 0.014475 0.0707614 -0.43391 0.00554194 0.0743198 -0.419124 
-0.00336722 0.0775879 -0.403599 -0.0121918 0.0805148 -0.387385 -0.0208754 0.0830601 -0.370556 
-0.0293717 0.0851953 -0.353207 -0.0376487 0.0869037 -0.335434 -0.0456922 0.0881798 -0.317322 
-0.053506 0.0890286 -0.298936 -0.0611101 0.0894639 -0.280303 -0.0685356 0.0895062 -0.261419 
-0.0758169 0.0891806 -0.242242 -0.0829826 0.0885148 -0.222699 -0.090046 0.087537 -0.202702 
-0.0969958 0.0862741 -0.182161 -0.103789 0.0847506 -0.160994 -0.11035 0.0829878 -0.139152 
-0.116566 0.0810037 -0.116624 -0.122298 0.078813 -0.0934459 -0.127385 0.0764284 -0.0697065 
-0.131659 0.0738615 -0.0455404 -0.134959 0.0711244 -0.0211205 -0.137147 0.0682311 0.00335567 
-0.138116 0.0651991 0.0276822 -0.137811 0.0620509 0.0516616 -0.136225 0.0588143 0.0751212 
-0.133406 0.0555234 0.0979249 -0.129454 0.052218 0.119982 -0.124509 0.048943 0.141251 
-0.11874 0.0457468 0.161736 -0.112332 0.04268 0.181479 -0.105466 0.0397923 0.200552 
-0.0983083 0.0371307 0.219041 -0.0909985 0.034737 0.237037 -0.0836398 0.0326452 0.254619 
-0.076298 0.0308803 0.271852 -0.0690031 0.0294567 0.288775 -0.061756 0.0283777 0.305407 
-0.0545384 0.0276364 0.321744 -0.0473245 0.027216 0.33777 -0.040093 0.0270923 0.35346 
-0.0328374 0.0272357 0.368793 -0.0255735 0.0276136 0.383757 -0.0183433 0.0281936 0.398352 
-0.0112141 0.0289452 0.412597 -0.00427365 0.0298422 0.426526 0.00237774 0.0308637 0.440185 
0.00863778 0.0319942 0.453624 0.0144132 0.0332234 0.466889 0.0196297 0.0345444 0.480018 
0.0242406 0.0359518 0.493027 0.0282307 0.037439 0.505911 0.0316174 0.0389956 0.51864 
0.0344477 0.0406051 0.531159 0.0367915 0.042243 0.543395 0.0387323 0.0438755 0.55526 
0.0403573 0.0454606 0.566665 0.0417473 0.0469488 0.577522 0.0429683 0.0482859 0.58776 
0.044066 0.049417 0.597322 0.0450633 0.0502908 0.606177 0.0459616 0.0508644 0.614314 
0.0467452 0.0511079 0.621745 0.0473884 0.0510084 0.628495 0.0478631 0.0505733 0.634601 
0.0481474 0.0498309 0.640101 0.0482323 0.048831 0.645029 0.0481262 0.0476421 0.649411 
0.0478566 0.0463473 0.65326 0.0474684 0.0450396 0.656576 0.0470192 0.0438145 0.659348 
0.0465728 0.0427634 0.661557 0.0461904 0.0419664 0.66318 0.0459236 0.0414861 0.664198 
0.0458064 0.0413626 0.664596 
LINES 2 100
OFFSETS vtktypeint64
0 100 
CONNECTIVITY vtktypeint64
0 1 2 3 4 5 6 7 8 
9 10 11 12 13 14 15 16 17 
18 19 20 21 22 23 24 25 26 
27 28 29 30 31 32 33 34 35 
36 37 38 39 40 41 42 43 44 
45 46 47 48 49 50 51 52 53 
54 55 56 57 58 59 60 61 62 
63 64 65 66 67 68 69 70 71 
72 73 74 75 76 77 78 79 80 
81 82 83 84 85 86 87 88 89 
90 91 92 93 94 95 96 97 98 
99 
POINT_DATA 100
FIELD FieldData 3
_theta 1 100 double
0 0.031733259127 0.063466518254 0.095199777382 0.12693303651 0.15866629564 0.19039955476 0.22213281389 0.25386607302 
0.28559933214 0.31733259127 0.3490658504 0.38079910953 0.41253236865 0.44426562778 0.47599888691 0.50773214603 0.53946540516 
0.57119866429 0.60293192342 0.63466518254 0.66639844167 0.6981317008 0.72986495992 0.76159821905 0.79333147818 0.82506473731 
0.85679799643 0.88853125556 0.92026451469 0.95199777382 0.98373103294 1.0154642921 1.0471975512 1.0789308103 1.1106640695 
1.1423973286 1.1741305877 1.2058638468 1.237597106 1.2693303651 1.3010636242 1.3327968833 1.3645301425 1.3962634016 
1.4279966607 1.4597299198 1.491463179 1.5231964381 1.5549296972 1.5866629564 1.6183962155 1.6501294746 1.6818627337 
1.7135959929 1.745329252 1.7770625111 1.8087957702 1.8405290294 1.8722622885 1.9039955476 1.9357288068 1.9674620659 
1.999195325 2.0309285841 2.0626618433 2.0943951024 2.1261283615 2.1578616206 2.1895948798 2.2213281389 2.253061398 
2.2847946572 2.3165279163 2.3482611754 2.3799944345 2.4117276937 2.4434609528 2.4751942119 2.506927471 2.5386607302 
2.5703939893 2.6021272484 2.6338605076 2.6655937667 2.6973270258 2.7290602849 2.7607935441 2.7925268032 2.8242600623 
2.8559933214 2.8877265806 2.9194598397 2.9511930988 2.982926358 3.0146596171 3.0463928762 3.0781261353 3.1098593945 
3.1415926536 
_radius 1 100 double
1.2293450551e-15 0.014590051331 0.029017498957 0.043129546707 0.05679153766 0.069894080804 0.082357703379 0.094134199851 0.10520423351 
0.11557139767 0.12525369625 0.13427401237 0.14265137349 0.15039459846 0.15749930927 0.16394853228 0.1697164508 0.17477446446 
0.17909856613 0.18267705087 0.18551759065 0.18765270529 0.189142708 0.19007539776 0.1905621287 0.1907303401 0.19071310309 
0.19063670075 0.19060770526 0.19070139808 0.19095354109 0.19135723823 0.19186580849 0.19240136838 0.19286762763 0.19316471826 
0.19320388934 0.19292040529 0.19228360786 0.19130357016 0.19003399982 0.18857110036 0.18704812763 0.18562559083 0.18447760388 
0.18377573373 0.18367245918 0.18428657309 0.18569233194 0.1879131841 0.19092005512 0.19463374901 0.19893091007 0.20365291487 
0.20861696259 0.21362859291 0.21849488867 0.22303758306 0.22710510496 0.2305823612 0.23339700403 0.23552123685 0.23696885444 
0.23778799668 0.23805076703 0.2378412584 0.23724360361 0.23633149285 0.23516026877 0.23376228757 0.23214575923 0.23029679692 
0.22818399102 0.22576456175 0.22299107327 0.21981777408 0.2162057847 0.21212654401 0.20756317389 0.20250975731 0.19696889753 
0.1909482134 0.1844565256 0.1775004013 0.17008154571 0.16219535477 0.15383080389 0.14497170368 0.13559917075 0.12569496435 
0.11524520141 0.1042439465 0.092696282788 0.08062064372 0.068050334776 0.05503423881 0.041636673884 0.027936315845 0.014024087195 
1.5550598756e-15 
_area 1 100 double
0 0.00047894822897 0.0019099271213 0.0042730140206 0.0075284725793 0.011610605928 0.016424576223 0.021848268403 0.027739088361 
0.033943543005 0.040306495541 0.046677554318 0.052913833958 0.058880387236 0.064450838422 0.069510491406 0.073962600003 0.077736402695 
0.080793861897 0.083131518863 0.084775658564 0.085774317966 0.086194040897 0.086123889355 0.085680392068 0.085007743306 0.084273616784 
0.083687058758 0.083454350208 0.083543293063 0.083925576676 0.084590837779 0.085370645062 0.08611059205 0.08669930595 0.087071963928 
0.087223910636 0.087208557483 0.08710932728 0.087000037457 0.086933135099 0.086954142624 0.087113763051 0.087470327346 0.088087275236 
0.089029997112 0.090364582065 0.092158821789 0.094482943481 0.097405897727 0.10098386056 0.1052407891 0.11014662299 0.1156030947 
0.12144385782 0.1274486183 0.13336751717 0.13895096022 0.14397863037 0.14828089593 0.15174851415 0.15433212575 0.156036619 
0.15691220581 0.15704020733 0.15651501469 0.15542790507 0.15385675994 0.15186216164 0.14948852907 0.14676825763 0.14372619262 
0.14038152304 0.13674574196 0.13281930838 0.12859269392 0.12405437277 0.1192011102 0.11404322898 0.10860198272 0.10290241676 
0.096967650474 0.090817864083 0.084472521998 0.077952348965 0.071279627717 0.064478579345 0.057578627715 0.050621353202 0.043668692081 
0.036808342986 0.030153622509 0.023837668836 0.018003848168 0.012794815827 0.0083423947659 0.0047597765599 0.0021367009778 0.00053734897519 
3.0016482127e-17 
