# vtk DataFile Version 5.1
vtk output
ASCII
DATASET POLYDATA
POINTS 100 float
0.212732 -0.0397747 -0.685216 0.212384 -0.0396916 -0.685037 0.211355 -0.0392874 -0.684505 
0.209672 -0.0385672 -0.683562 0.207376 -0.0375381 -0.682115 0.204519 -0.0362071 -0.680054 
0.201156 -0.0345782 -0.677266 0.197344 -0.0326509 -0.673653 0.193131 -0.0304177 -0.669143 
0.188551 -0.0278643 -0.663702 0.183621 -0.0249699 -0.657342 0.178337 -0.0217095 -0.650113 
0.172671 -0.0180575 -0.642099 0.166575 -0.0139918 -0.633409 0.159984 -0.00949835 -0.624154 
0.152825 -0.00457617 -0.614436 0.145023 0.00075935 -0.604331 0.136516 0.00647381 -0.593874 
0.127261 0.0125131 -0.583056 0.11725 0.0188045 -0.571823 0.106512 0.0252596 -0.56008 
0.0951258 0.0317793 -0.547704 0.0832126 0.0382585 -0.534562 0.070938 0.0445933 -0.520527 
0.0585003 0.0506861 -0.5055 0.0461183 0.056451 -0.489423 0.0340139 0.0618175 -0.472289 
0.0223946 0.0667325 -0.454151 0.0114346 0.0711602 -0.435118 0.00125905 0.0750808 -0.41534 
-0.00806802 0.0784871 -0.395001 -0.01655 0.0813808 -0.374294 -0.0242573 0.0837679 -0.353402 
-0.0313194 0.0856554 -0.332479 -0.0379103 0.0870476 -0.311631 -0.0442291 0.0879449 -0.290908 
-0.0504758 0.0883434 -0.270298 -0.0568268 0.0882365 -0.249731 -0.0634118 0.0876178 -0.229092 
-0.0702949 0.0864843 -0.208232 -0.0774617 0.084841 -0.186994 -0.0848149 0.0827043 -0.165228 
-0.0921789 0.0801048 -0.142815 -0.0993125 0.0770891 -0.119682 -0.105929 0.0737197 -0.0958141 
-0.111724 0.0700731 -0.0712548 -0.116399 0.0662367 -0.0461083 -0.119695 0.0623036 -0.0205281 
-0.121416 0.058368 0.00529606 -0.121443 0.0545194 0.0311554 -0.119751 0.0508372 0.0568402 
-0.116409 0.0473876 0.0821565 -0.111569 0.0442201 0.10694 -0.105453 0.0413673 0.131068 
-0.0983338 0.0388452 0.154459 -0.0905025 0.0366555 0.177078 -0.0822478 0.034789 0.198926 
-0.0738286 0.0332291 0.220035 -0.0654552 0.0319562 0.240456 -0.0572762 0.0309511 0.260248 
-0.0493725 0.0301977 0.279467 -0.0417609 0.0296843 0.298162 -0.0344031 0.0294044 0.316366 
-0.0272212 0.0293553 0.334101 -0.0201161 0.0295372 0.351376 -0.0129866 0.0299499 0.368192 
-0.0057473 0.0305911 0.384552 0.00165791 0.0314541 0.400463 0.0092474 0.0325258 0.415944 
0.0169991 0.0337864 0.431026 0.0248542 0.0352097 0.445754 0.032725 0.0367636 0.460185 
0.0405071 0.0384128 0.474382 0.0480926 0.0401203 0.488404 0.055383 0.0418501 0.502303 
0.0622995 0.0435695 0.516115 0.0687902 0.0452501 0.529849 0.074832 0.0468692 0.543489 
0.0804289 0.0484094 0.556991 0.0856052 0.0498583 0.570284 0.0903973 0.051207 0.583274 
0.0948429 0.0524487 0.595853 0.0989717 0.0535774 0.60791 0.102798 0.0545864 0.619332 
0.106316 0.0554682 0.630023 0.109501 0.0562145 0.639903 0.112312 0.0568171 0.648917 
0.114701 0.057269 0.657034 0.11662 0.0575668 0.664251 0.118034 0.0577125 0.670588 
0.118932 0.0577146 0.676084 0.11933 0.0575897 0.680791 0.11928 0.057362 0.684769 
0.118863 0.0570632 0.68808 0.11819 0.0567299 0.690783 0.117385 0.0564014 0.692934 
0.11658 0.0561161 0.694576 0.115896 0.0559083 0.695745 0.115431 0.0558048 0.696465 
0.115248 0.0558222 0.696751 
LINES 2 100
OFFSETS vtktypeint64
0 100 
CONNECTIVITY vtktypeint64
0 1 2 3 4 5 6 7 8 
9 10 11 12 13 14 15 16 17 
18 19 20 21 22 23 24 25 26 
27 28 29 30 31 32 33 34 35 
36 37 38 39 40 41 42 43 44 
45 46 47 48 49 50 51 52 53 
54 55 56 57 58 59 60 61 62 
63 64 65 66 67 68 69 70 71 
72 73 74 75 76 77 78 79 80 
81 82 83 84 85 86 87 88 89 
90 91 92 93 94 95 96 97 98 
99 
POINT_DATA 100
FIELD FieldData 3
_theta 1 100 double
0 0.031733259127 0.063466518254 0.095199777382 0.12693303651 0.15866629564 0.19039955476 0.22213281389 0.25386607302 
0.28559933214 0.31733259127 0.3490658504 0.38079910953 0.41253236865 0.44426562778 0.47599888691 0.50773214603 0.53946540516 
0.57119866429 0.60293192342 0.63466518254 0.66639844167 0.6981317008 0.72986495992 0.76159821905 0.79333147818 0.82506473731 
0.85679799643 0.88853125556 0.92026451469 0.95199777382 0.98373103294 1.0154642921 1.0471975512 1.0789308103 1.1106640695 
1.1423973286 1.1741305877 1.2058638468 1.237597106 1.2693303651 1.3010636242 1.3327968833 1.3645301425 1.3962634016 
1.4279966607 1.4597299198 1.491463179 1.5231964381 1.5549296972 1.5866629564 1.6183962155 1.6501294746 1.6818627337 
1.7135959929 1.745329252 1.7770625111 1.8087957702 1.8405290294 1.8722622885 1.9039955476 1.9357288068 1.9674620659 
1.999195325 2.0309285841 2.0626618433 2.0943951024 2.1261283615 2.1578616206 2.1895948798 2.2213281389 2.253061398 
2.2847946572 2.3165279163 2.3482611754 2.3799944345 2.4117276937 2.4434609528 2.4751942119 2.506927471 2.5386607302 
2.5703939893 2.6021272484 2.6338605076 2.6655937667 2.6973270258 2.7290602849 2.7607935441 2.7925268032 2.8242600623 
2.8559933214 2.8877265806 2.9194598397 2.9511930988 2.982926358 3.0146596171 3.0463928762 3.0781261353 3.1098593945 
3.1415926536 
_radius 1 100 double
1.456903357e-15 0.016544320457 0.032887394294 0.04883849787 0.064233019883 0.078941016403 0.092870712273 0.10596636037 0.11820095707 
0.12956547136 0.14005711071 0.14966937056 0.15838605795 0.16618032145 0.17301838635 0.1788666478 0.18370029655 0.18751175826 
0.19031772407 0.19216416523 0.19312922216 0.19332410377 0.19289209014 0.19200543676 0.19085957052 0.18966371085 0.18862728075 
0.1879423911 0.18776415137 0.18819206805 0.18925660074 0.19091439944 0.19305370556 0.19550858177 0.19807847644 0.20054934978 
0.20271407202 0.20439163183 0.20544541201 0.20579993505 0.2054537064 0.20448438017 0.20304262557 0.20133334911 0.19958705672 
0.19802848844 0.19685126888 0.19620420285 0.19618880507 0.19686312607 0.19824655269 0.20032287996 0.20304180938 0.20632042776 
0.21004625711 0.21408296611 0.2182791459 0.22247960123 0.22653758133 0.23032576768 0.23374396961 0.23672231336 0.23921998384 
0.24122085935 0.2427280242 0.24375865704 0.24433955558 0.24450271222 0.24428053422 0.24370103384 0.24278383916 0.24153788738 
0.23996124617 0.23804288803 0.23576566713 0.23310943779 0.23005332358 0.22657656279 0.22265794876 0.21827441489 0.21339957947 
0.20800298353 0.20205040525 0.19550520003 0.18833028882 0.18049031716 0.17195364099 0.16269405988 0.15269244673 0.14193847761 
0.13043252613 0.118187563 0.10523075076 0.091604439507 0.077366422456 0.062589485573 0.047360366587 0.031778196726 0.015952401843 
6.6396807267e-16 
_area 1 100 double
0 0.00058510786461 0.0023258693125 0.0051761972716 0.0090532884857 0.013834286176 0.019359053504 0.025440417665 0.031879783101 
0.038483833396 0.045077854886 0.051512613222 0.057663851628 0.063425702159 0.068701272001 0.073395061707 0.077412032505 0.08066618903 
0.083097419489 0.084690723791 0.085489238459 0.085593128806 0.085142446797 0.084294708217 0.083214037589 0.082073637247 0.081060344669 
0.080374135753 0.080216274214 0.080811053887 0.082285232345 0.084466863506 0.087136934697 0.090046038707 0.092936667472 0.095574213804 
0.097767829125 0.09939706181 0.10044360455 0.10102106098 0.10139263245 0.10191255938 0.10272328994 0.10391943593 0.10546101374 
0.10718991374 0.10889501163 0.11040802516 0.1116769765 0.11279830383 0.11401703875 0.11583843934 0.11841020993 0.1217515946 
0.12586874578 0.13065656175 0.13592132327 0.14142014838 0.14692689756 0.15213937349 0.15689401989 0.16067730657 0.16344665112 
0.1651449725 0.16581009139 0.16554759132 0.16450063695 0.16283166365 0.16086186654 0.15866148634 0.15617560469 0.15326833337 
0.14993183744 0.14619592861 0.14209028643 0.13763712314 0.13285629218 0.12777383402 0.12242653898 0.11685897499 0.11111378237 
0.10521936148 0.099180463686 0.092976284592 0.08656788419 0.079913008893 0.072983360791 0.065779025579 0.058337149941 0.050734815448 
0.043087422907 0.035543725401 0.028278007379 0.021479679745 0.015340956606 0.010043983569 0.0057492476423 0.0025868714437 0.00065146192046 
9.8093112301e-17 
