# vtk DataFile Version 5.1
vtk output
ASCII
DATASET POLYDATA
POINTS 100 float
0.0413021 0.033792 -0.618099 0.0410238 0.0337771 -0.61766 0.0402328 0.0338776 -0.616416 
0.0389855 0.0340809 -0.61439 0.0373667 0.0343689 -0.611619 0.0354784 0.0347224 -0.608144 
0.0334249 0.0351251 -0.60401 0.0312985 0.0355689 -0.599257 0.0291657 0.0360567 -0.593913 
0.027058 0.0366054 -0.587993 0.024966 0.0372461 -0.581492 0.0228407 0.0380218 -0.574387 
0.020599 0.0389846 -0.566637 0.0181345 0.0401893 -0.558188 0.015332 0.0416874 -0.548977 
0.0120828 0.0435205 -0.538937 0.00830046 0.0457133 -0.52801 0.00393345 0.0482692 -0.516146 
-0.00102654 0.0511671 -0.503318 -0.00654124 0.0543602 -0.489519 -0.0125285 0.0577782 -0.474765 
-0.0188705 0.061331 -0.459101 -0.0254265 0.0649144 -0.442591 -0.0320481 0.0684173 -0.425315 
-0.0385956 0.0717288 -0.407365 -0.0449534 0.0747454 -0.388834 -0.0510409 0.0773773 -0.369811 
-0.0568202 0.0795526 -0.350373 -0.0622965 0.0812198 -0.330577 -0.0675135 0.0823487 -0.310461 
-0.072543 0.0829289 -0.29004 -0.0774704 0.0829675 -0.269309 -0.0823781 0.0824856 -0.248247 
-0.0873287 0.0815148 -0.226824 -0.0923502 0.0800933 -0.205007 -0.0974251 0.0782639 -0.182771 
-0.102485 0.0760715 -0.160104 -0.107413 0.0735629 -0.137016 -0.112049 0.0707871 -0.113544 
-0.116202 0.0677953 -0.0897506 -0.119669 0.0646425 -0.0657282 -0.122256 0.061388 -0.0415923 
-0.12379 0.0580949 -0.0174766 -0.124144 0.0548293 0.00647524 -0.123247 0.0516583 0.0301183 
-0.121088 0.0486463 0.0533163 -0.117724 0.0458518 0.0759496 -0.11327 0.0433227 0.0979233 
-0.107888 0.0410929 0.119171 -0.101776 0.0391792 0.13966 -0.0951456 0.0375798 0.159385 
-0.0882045 0.0362747 0.178374 -0.0811409 0.0352273 0.196673 -0.0741074 0.0343891 0.214346 
-0.0672119 0.0337042 0.231467 -0.0605128 0.0331161 0.248107 -0.0540199 0.0325741 0.264331 
-0.0476999 0.0320389 0.280195 -0.0414865 0.0314874 0.295735 -0.0352927 0.0309154 0.310972 
-0.0290242 0.0303383 0.325911 -0.0225924 0.0297888 0.340543 -0.0159258 0.0293136 0.354852 
-0.00897802 0.0289668 0.368817 -0.00173254 0.028804 0.38242 0.00579649 0.0288744 0.395649 
0.0135669 0.0292148 0.408505 0.0215138 0.0298439 0.421001 0.0295574 0.0307595 0.433162 
0.0376107 0.0319367 0.445027 0.0455878 0.0333299 0.456641 0.0534107 0.0348757 0.468056 
0.061014 0.0364988 0.47932 0.0683479 0.0381177 0.490475 0.0753785 0.0396521 0.501553 
0.0820857 0.0410294 0.512567 0.0884608 0.0421899 0.523517 0.0945013 0.0430907 0.534378 
0.100207 0.0437084 0.545113 0.105577 0.0440384 0.555667 0.110603 0.0440939 0.565973 
0.115274 0.0439025 0.575959 0.119571 0.0435024 0.585552 0.123468 0.0429373 0.59468 
0.126942 0.0422529 0.603282 0.129968 0.0414925 0.611308 0.132528 0.0406947 0.618718 
0.134614 0.0398913 0.62549 0.136229 0.0391072 0.631616 0.137393 0.0383606 0.637098 
0.138141 0.037664 0.641951 0.138522 0.037026 0.646197 0.1386 0.036453 0.649862 
0.138445 0.0359499 0.652975 0.138136 0.0355219 0.655564 0.13775 0.0351742 0.657656 
0.13736 0.0349122 0.659273 0.137027 0.0347409 0.660432 0.136802 0.0346645 0.661145 
0.136713 0.0346854 0.661419 
LINES 2 100
OFFSETS vtktypeint64
0 100 
CONNECTIVITY vtktypeint64
0 1 2 3 4 5 6 7 8 
9 10 11 12 13 14 15 16 17 
18 19 20 21 22 23 24 25 26 
27 28 29 30 31 32 33 34 35 
36 37 38 39 40 41 42 43 44 
45 46 47 48 49 50 51 52 53 
54 55 56 57 58 59 60 61 62 
63 64 65 66 67 68 69 70 71 
72 73 74 75 76 77 78 79 80 
81 82 83 84 85 86 87 88 89 
90 91 92 93 94 95 96 97 98 
99 
POINT_DATA 100
FIELD FieldData 3
_theta 1 100 double
0 0.031733259127 0.063466518254 0.095199777382 0.12693303651 0.15866629564 0.19039955476 0.22213281389 0.25386607302 
0.28559933214 0.31733259127 0.3490658504 0.38079910953 0.41253236865 0.44426562778 0.47599888691 0.50773214603 0.53946540516 
0.57119866429 0.60293192342 0.63466518254 0.66639844167 0.6981317008 0.72986495992 0.76159821905 0.79333147818 0.82506473731 
0.85679799643 0.88853125556 0.92026451469 0.95199777382 0.98373103294 1.0154642921 1.0471975512 1.0789308103 1.1106640695 
1.1423973286 1.1741305877 1.2058638468 1.237597106 1.2693303651 1.3010636242 1.3327968833 1.3645301425 1.3962634016 
1.4279966607 1.4597299198 1.491463179 1.5231964381 1.5549296972 1.5866629564 1.6183962155 1.6501294746 1.6818627337 
1.7135959929 1.745329252 1.7770625111 1.8087957702 1.8405290294 1.8722622885 1.9039955476 1.9357288068 1.9674620659 
1.999195325 2.0309285841 2.0626618433 2.0943951024 2.1261283615 2.1578616206 2.1895948798 2.2213281389 2.253061398 
2.2847946572 2.3165279163 2.3482611754 2.3799944345 2.4117276937 2.4434609528 2.4751942119 2.506927471 2.5386607302 
2.5703939893 2.6021272484 2.6338605076 2.6655937667 2.6973270258 2.7290602849 2.7607935441 2.7925268032 2.8242600623 
2.8559933214 2.8877265806 2.9194598397 2.9511930988 2.982926358 3.0146596171 3.0463928762 3.0781261353 3.1098593945 
3.1415926536 
_radius 1 100 double
1.0024960814e-15 0.01370944585 0.027363660346 0.040912027038 0.054306218605 0.067494888452 0.080414532171 0.092979559541 0.10507558005 
0.11655920717 0.12726574365 0.13702383998 0.14567446041 0.15309065397 0.15919469604 0.16396989221 0.16746542298 0.16979380359 
0.17112164735 0.17165530468 0.17162347526 0.17125896986 0.17078143379 0.17038219315 0.17021176553 0.17037034063 0.1709017953 
0.17179223632 0.17297407698 0.17433592766 0.17573741682 0.17702712916 0.17806158767 0.17872348644 0.17893771956 0.17868379218 
0.17800299784 0.17699870122 0.17582862357 0.17468938328 0.17379544691 0.1733563303 0.17355630258 0.17453940119 0.17640006314 
0.1791779846 0.18285600819 0.18736106674 0.19256891795 0.19831299305 0.20439676157 0.21060838906 0.21673635472 0.22258479207 
0.22798728957 0.23281774714 0.23699691626 0.24049369727 0.2433210827 0.24552754525 0.24718536932 0.24837772629 0.24918617929 
0.24967992229 0.2499076397 0.24989257655 0.24963121412 0.24909569878 0.24823974424 0.24700714889 0.2453415284 0.24319558236 
0.24053831772 0.23735910408 0.23366808031 0.22949309337 0.22487389776 0.21985471293 0.21447639991 0.20876947242 0.20274892625 
0.19641151623 0.18973571885 0.18268425777 0.17520875805 0.16725582764 0.15877366653 0.14971823825 0.14005817093 0.12977787977 
0.11887882575 0.10737919371 0.095312468729 0.082725392065 0.069675665328 0.056229646292 0.042460195805 0.028444786722 0.014263940883 
1.1883199913e-15 
_area 1 100 double
0 0.00046360766991 0.0018553916381 0.0041761711596 0.0074203531473 0.011565562691 0.016559232178 0.022304674066 0.028650396992 
0.035386638121 0.042251944673 0.048950456782 0.055178024105 0.060653143929 0.065147480351 0.068510724891 0.070685786121 0.07171237703 
0.071719392748 0.070908477102 0.069532580901 0.067874067205 0.066226528619 0.064879569569 0.064089185604 0.064011580751 0.06465485569 
0.065915561915 0.067635560868 0.069632562283 0.07171672178 0.073706560368 0.075446731501 0.076826518265 0.0777975997 0.07838940489 
0.078714980876 0.078945987608 0.079240125416 0.079670987731 0.080247636136 0.080993368489 0.081990243527 0.083380115493 0.085345242283 
0.088074460656 0.091717436506 0.096343525365 0.1019267279 0.10835577433 0.11545206561 0.12298536616 0.13068999788 0.13828573294 
0.14550029196 0.15209007921 0.15785899179 0.16267358785 0.16647045715 0.16925309497 0.1710803926 0.17205315202 0.1723257345 
0.17202250685 0.17119649342 0.16989389405 0.16814992284 0.16598413212 0.16339512662 0.16036162564 0.1568507727 0.1528323401 
0.14829548994 0.14326284127 0.13779621441 0.13199052098 0.12595650493 0.11979767778 0.11358927683 0.10736609133 0.10112244315 
0.094823292011 0.088421952718 0.081878528682 0.075174271813 0.068319531261 0.061355109346 0.05434810444 0.047384056112 0.040557758939 
0.033965336272 0.027699676099 0.021849969087 0.016504262307 0.011752537341 0.0076876210812 0.0044023099254 0.0019827736011 0.00049977465195 
1.7560788979e-17 
