# vtk DataFile Version 5.1
vtk output
ASCII
DATASET POLYDATA
POINTS 100 float
0.0599388 0.0596417 0.677005 0.0599938 0.0598377 0.676683 0.0602084 0.0602445 0.675573 
0.0605645 0.0608371 0.673703 0.0610338 0.061575 0.67112 0.0615796 0.0624049 0.667879 
0.0621594 0.0632643 0.664037 0.0627274 0.0640852 0.65965 0.0632384 0.064799 0.654761 
0.0636501 0.0653405 0.649399 0.063926 0.0656522 0.643576 0.0640377 0.0656881 0.637287 
0.063966 0.0654161 0.630513 0.0637012 0.0648204 0.623228 0.0632421 0.0639017 0.615402 
0.0625941 0.0626773 0.607011 0.0617663 0.06118 0.598038 0.0607683 0.0594555 0.588485 
0.0596059 0.0575596 0.578368 0.0582781 0.0555547 0.567721 0.0567743 0.0535061 0.55659 
0.0550728 0.0514777 0.54503 0.0531411 0.0495287 0.5331 0.0509372 0.0477096 0.520855 
0.0484135 0.0460599 0.508339 0.0455212 0.0446059 0.495584 0.0422161 0.043359 0.482603 
0.0384647 0.0423166 0.469396 0.0342486 0.041462 0.455949 0.0295692 0.0407665 0.442238 
0.0244491 0.0401928 0.428237 0.018932 0.0396975 0.413923 0.0130794 0.0392362 0.39928 
0.00696514 0.0387671 0.384305 0.000668843 0.0382555 0.369007 -0.00573271 0.0376779 0.353404 
-0.0121734 0.0370248 0.337525 -0.0186044 0.0363028 0.321394 -0.0249992 0.035536 0.305035 
-0.0313546 0.0347646 0.288455 -0.0376888 0.0340437 0.271642 -0.0440357 0.0334392 0.254561 
-0.0504361 0.0330237 0.237154 -0.0569263 0.0328711 0.219341 -0.0635262 0.0330506 0.201027 
-0.0702272 0.033621 0.182112 -0.0769827 0.0346256 0.1625 -0.0837023 0.0360881 0.14211 
-0.0902498 0.0380098 0.120889 -0.0964472 0.0403685 0.0988194 -0.102084 0.0431194 0.0759234 
-0.106929 0.0461974 0.0522657 -0.110751 0.0495218 0.0279496 -0.113334 0.053001 0.00311049 
-0.114498 0.0565388 -0.0220941 -0.114112 0.0600409 -0.0474966 -0.112112 0.0634205 -0.0729318 
-0.108499 0.0666029 -0.0982484 -0.103347 0.0695295 -0.123318 -0.0967905 0.072159 -0.148043 
-0.0890149 0.0744676 -0.172353 -0.0802375 0.076447 -0.196212 -0.0706886 0.0781009 -0.219603 
-0.0605902 0.0794404 -0.242527 -0.0501381 0.0804791 -0.264993 -0.0394865 0.0812274 -0.287005 
-0.0287397 0.0816883 -0.308558 -0.0179487 0.0818537 -0.329633 -0.00711568 0.0817025 -0.35019 
0.00379572 0.0812007 -0.370178 0.0148458 0.0803028 -0.389532 0.0261009 0.0789558 -0.408182 
0.0376156 0.0771039 -0.426064 0.0494161 0.0746943 -0.443123 0.0614879 0.0716841 -0.459325 
0.0737686 0.0680459 -0.474657 0.0861475 0.0637737 -0.489131 0.0984708 0.0588861 -0.502779 
0.110553 0.053429 -0.515653 0.122194 0.0474756 -0.527811 0.133192 0.0411239 -0.539312 
0.14337 0.0344929 -0.550206 0.152583 0.0277171 -0.560526 0.160735 0.0209387 -0.570286 
0.167785 0.0143004 -0.579474 0.173748 0.00793742 -0.588057 0.17869 0.00197015 -0.595986 
0.182716 -0.0035021 -0.603205 0.18596 -0.00840568 -0.609659 0.188566 -0.0126954 -0.615304 
0.190677 -0.016355 -0.620118 0.192417 -0.0193961 -0.624106 0.193886 -0.0218545 -0.627301 
0.19515 -0.0237851 -0.629768 0.196245 -0.0252559 -0.631594 0.197179 -0.0263408 -0.632882 
0.197939 -0.0271125 -0.633739 0.1985 -0.0276358 -0.634266 0.198837 -0.0279612 -0.634543 
0.198931 -0.028121 -0.634623 
LINES 2 100
OFFSETS vtktypeint64
0 100 
CONNECTIVITY vtktypeint64
0 1 2 3 4 5 6 7 8 
9 10 11 12 13 14 15 16 17 
18 19 20 21 22 23 24 25 26 
27 28 29 30 31 32 33 34 35 
36 37 38 39 40 41 42 43 44 
45 46 47 48 49 50 51 52 53 
54 55 56 57 58 59 60 61 62 
63 64 65 66 67 68 69 70 71 
72 73 74 75 76 77 78 79 80 
81 82 83 84 85 86 87 88 89 
90 91 92 93 94 95 96 97 98 
99 
POINT_DATA 100
FIELD FieldData 3
_theta 1 100 double
0 0.031733259127 0.063466518254 0.095199777382 0.12693303651 0.15866629564 0.19039955476 0.22213281389 0.25386607302 
0.28559933214 0.31733259127 0.3490658504 0.38079910953 0.41253236865 0.44426562778 0.47599888691 0.50773214603 0.53946540516 
0.57119866429 0.60293192342 0.63466518254 0.66639844167 0.6981317008 0.72986495992 0.76159821905 0.79333147818 0.82506473731 
0.85679799643 0.88853125556 0.92026451469 0.95199777382 0.98373103294 1.0154642921 1.0471975512 1.0789308103 1.1106640695 
1.1423973286 1.1741305877 1.2058638468 1.237597106 1.2693303651 1.3010636242 1.3327968833 1.3645301425 1.3962634016 
1.4279966607 1.4597299198 1.491463179 1.5231964381 1.5549296972 1.5866629564 1.6183962155 1.6501294746 1.6818627337 
1.7135959929 1.745329252 1.7770625111 1.8087957702 1.8405290294 1.8722622885 1.9039955476 1.9357288068 1.9674620659 
1.999195325 2.0309285841 2.0626618433 2.0943951024 2.1261283615 2.1578616206 2.1895948798 2.2213281389 2.253061398 
2.2847946572 2.3165279163 2.3482611754 2.3799944345 2.4117276937 2.4434609528 2.4751942119 2.506927471 2.5386607302 
2.5703939893 2.6021272484 2.6338605076 2.6655937667 2.6973270258 2.7290602849 2.7607935441 2.7925268032 2.8242600623 
2.8559933214 2.8877265806 2.9194598397 2.9511930988 2.982926358 3.0146596171 3.0463928762 3.0781261353 3.1098593945 
3.1415926536 
_radius 1 100 double
3.4722214002e-16 0.013329784132 0.026758501793 0.040359554844 0.054171694282 0.068189059864 0.082358001308 0.096580628467 0.11072404152 
0.12463356032 0.13814799794 0.1511150498 0.16340513239 0.17492242633 0.18561233882 0.19546495763 0.20451424576 0.21283281046 
0.2205222859 0.22769986613 0.23448228033 0.24096928784 0.24722926408 0.25328937475 0.25913210275 0.26469867831 0.26989864334 
0.27462372722 0.2787636274 0.28222119335 0.2849248276 0.2868365302 0.28795479507 0.28831238078 0.28796969077 0.28700500993 
0.28550311258 0.28354380608 0.28119187402 0.27848971971 0.27545380762 0.27207567657 0.26832773861 0.26417330868 0.25957954285 
0.25453141051 0.24904456348 0.24317497633 0.23702350907 0.23073410621 0.22448520831 0.21847506956 0.21290289484 0.20794875308 
0.20375574264 0.20041755266 0.19797321457 0.1964087191 0.19566316031 0.1956363147 0.19619566163 0.19718319788 0.19842435106 
0.19974119263 0.20096977745 0.20197851056 0.20268307697 0.203054271 0.20311712945 0.20294195569 0.20262943541 0.20229278877 
0.2020397485 0.20195637153 0.20209378877 0.20245839747 0.20300581112 0.20363893453 0.2042105765 0.20453086572 0.2043793227 
0.20352079541 0.20172374337 0.1987788025 0.19451540932 0.18881457733 0.18161658196 0.17292310393 0.16279410249 0.15134022092 
0.13871183061 0.12508592241 0.11065202325 0.095598240221 0.080098494993 0.064302032718 0.04832631562 0.032254314778 0.016136856193 
1.4938807587e-15 
_area 1 100 double
0 0.00050617161953 0.0020314131322 0.0045915033311 0.0081994694924 0.012850181948 0.018506384342 0.025090813904 0.032487208723 
0.040550299785 0.049122006613 0.058048427104 0.067190667009 0.076424755856 0.085634384017 0.094708665487 0.10355309921 0.11210880842 
0.12036854515 0.1283807842 0.13623880011 0.14405621302 0.15193398254 0.15992665595 0.16801735145 0.17611012861 0.18404405316 
0.19162589761 0.19866972035 0.20502377204 0.21056582161 0.21517303514 0.21870805045 0.22104627503 0.22211776493 0.22193344271 
0.22059447605 0.21829704721 0.21526214454 0.21158947953 0.20722695751 0.20220368171 0.19659881448 0.19052113592 0.1840994559 
0.17746181425 0.17042014373 0.16301342122 0.15538186466 0.14773529946 0.14032111665 0.13338965442 0.12725152183 0.12216353134 
0.11784369495 0.11413113211 0.11088486809 0.10800103438 0.10546846852 0.10329304415 0.10149924367 0.10012485608 0.099178262237 
0.098595037589 0.098193273674 0.097791646205 0.097249759811 0.096487149302 0.095486007032 0.094276060057 0.092921448102 0.091523075081 
0.090191987943 0.088984381473 0.087939206909 0.087076628108 0.086398932678 0.085889957163 0.085577598197 0.085486851752 0.085554078908 
0.085550870454 0.085052835834 0.083690917042 0.081238853624 0.077578812845 0.072694910804 0.06667360929 0.059697491053 0.052029623318 
0.043989197102 0.035921030175 0.028163026829 0.021016481316 0.01472387704 0.0094576286791 0.0053212300467 0.0023617068422 0.00058952965703 
4.2062917597e-17 
