# vtk DataFile Version 5.1
vtk output
ASCII
DATASET POLYDATA
POINTS 100 float
0.106024 0.0518899 0.672291 0.106229 0.0518963 0.672298 0.106948 0.0517378 0.672105 
0.108092 0.0514234 0.671684 0.109523 0.0509677 0.670989 0.111072 0.0503914 0.669957 
0.112556 0.0497198 0.668511 0.113795 0.0489826 0.666562 0.114637 0.0482126 0.664016 
0.114966 0.0474436 0.660777 0.114715 0.0467094 0.656752 0.113868 0.0460409 0.651864 
0.112456 0.0454645 0.646052 0.110543 0.0449999 0.639284 0.108218 0.0446582 0.631555 
0.105576 0.0444406 0.622898 0.102699 0.0443378 0.613378 0.0996479 0.0443302 0.603089 
0.0964475 0.0443887 0.592153 0.0930862 0.0444763 0.580707 0.0895176 0.0445514 0.568894 
0.0856685 0.0445703 0.55685 0.0814519 0.0444907 0.544697 0.0767827 0.0442758 0.532526 
0.0715933 0.0438971 0.520397 0.0658476 0.0433374 0.508329 0.0595514 0.0425926 0.496303 
0.052757 0.0416731 0.484263 0.0455615 0.0406032 0.472123 0.0380987 0.0394205 0.459781 
0.0305263 0.0381735 0.447122 0.0230088 0.0369185 0.434035 0.015699 0.0357169 0.420425 
0.00872103 0.0346304 0.406214 0.00215559 0.0337185 0.391354 -0.00396859 0.0330343 0.375825 
-0.00967751 0.0326223 0.359634 -0.0150474 0.032516 0.342812 -0.0201941 0.0327371 0.325404 
-0.0252563 0.0332951 0.307464 -0.0303771 0.0341876 0.289048 -0.0356828 0.0354018 0.2702 
-0.0412645 0.0369156 0.250957 -0.0471633 0.0387003 0.231335 -0.0533609 0.0407218 0.211338 
-0.0597774 0.0429432 0.190956 -0.066276 0.0453261 0.170173 -0.0726743 0.047832 0.148969 
-0.0787608 0.0504233 0.127328 -0.0843145 0.053064 0.105245 -0.0891258 0.0557198 0.0827307 
-0.0930153 0.058358 0.0598097 -0.0958495 0.0609479 0.0365246 -0.0975512 0.0634595 0.0129319 
-0.0981035 0.0658642 -0.0109018 -0.0975475 0.0681339 -0.0349049 -0.0959739 0.0702412 -0.0590056 
-0.0935108 0.072159 -0.0831372 -0.0903074 0.0738609 -0.107241 -0.0865178 0.075321 -0.131267 
-0.0822858 0.076514 -0.155175 -0.0777318 0.0774158 -0.178932 -0.0729452 0.0780033 -0.202507 
-0.0679804 0.0782548 -0.225869 -0.0628587 0.0781504 -0.248981 -0.0575744 0.0776724 -0.271801 
-0.0521037 0.0768052 -0.294276 -0.0464169 0.0755369 -0.316346 -0.040489 0.073859 -0.33795 
-0.034311 0.0717679 -0.359024 -0.0278976 0.0692655 -0.379514 -0.0212914 0.0663601 -0.399377 
-0.014564 0.0630678 -0.418588 -0.00781283 0.0594125 -0.437146 -0.0011543 0.0554271 -0.455069 
0.00528451 0.0511532 -0.472393 0.0113762 0.0466414 -0.489168 0.0170029 0.0419498 -0.505447 
0.0220656 0.0371436 -0.521279 0.0264909 0.0322926 -0.536692 0.0302356 0.0274698 -0.55169 
0.0332881 0.0227481 -0.566243 0.035667 0.018198 -0.580285 0.0374175 0.0138849 -0.593713 
0.038606 0.00986622 -0.606398 0.0393131 0.00618919 -0.61819 0.0396268 0.00288892 -0.628938 
0.0396361 -1.28915e-05 -0.638503 0.0394253 -0.00250852 -0.646776 0.0390699 -0.00460407 -0.65369 
0.0386336 -0.00631857 -0.659237 0.0381674 -0.00768233 -0.663465 0.0377092 -0.00873468 -0.666484 
0.0372856 -0.00952122 -0.668456 0.0369133 -0.0100907 -0.669583 0.0366014 -0.0104918 -0.670088 
0.0363536 -0.0107697 -0.670193 0.0361708 -0.0109635 -0.670099 0.0360522 -0.011103 -0.669966 
0.0359974 -0.0112073 -0.669898 
LINES 2 100
OFFSETS vtktypeint64
0 100 
CONNECTIVITY vtktypeint64
0 1 2 3 4 5 6 7 8 
9 10 11 12 13 14 15 16 17 
18 19 20 21 22 23 24 25 26 
27 28 29 30 31 32 33 34 35 
36 37 38 39 40 41 42 43 44 
45 46 47 48 49 50 51 52 53 
54 55 56 57 58 59 60 61 62 
63 64 65 66 67 68 69 70 71 
72 73 74 75 76 77 78 79 80 
81 82 83 84 85 86 87 88 89 
90 91 92 93 94 95 96 97 98 
99 
POINT_DATA 100
FIELD FieldData 3
_theta 1 100 double
0 0.031733259127 0.063466518254 0.095199777382 0.12693303651 0.15866629564 0.19039955476 0.22213281389 0.25386607302 
0.28559933214 0.31733259127 0.3490658504 0.38079910953 0.41253236865 0.44426562778 0.47599888691 0.50773214603 0.53946540516 
0.57119866429 0.60293192342 0.63466518254 0.66639844167 0.6981317008 0.72986495992 0.76159821905 0.79333147818 0.82506473731 
0.85679799643 0.88853125556 0.92026451469 0.95199777382 0.98373103294 1.0154642921 1.0471975512 1.0789308103 1.1106640695 
1.1423973286 1.1741305877 1.2058638468 1.237597106 1.2693303651 1.3010636242 1.3327968833 1.3645301425 1.3962634016 
1.4279966607 1.4597299198 1.491463179 1.5231964381 1.5549296972 1.5866629564 1.6183962155 1.6501294746 1.6818627337 
1.7135959929 1.745329252 1.7770625111 1.8087957702 1.8405290294 1.8722622885 1.9039955476 1.9357288068 1.9674620659 
1.999195325 2.0309285841 2.0626618433 2.0943951024 2.1261283615 2.1578616206 2.1895948798 2.2213281389 2.253061398 
2.2847946572 2.3165279163 2.3482611754 2.3799944345 2.4117276937 2.4434609528 2.4751942119 2.506927471 2.5386607302 
2.5703939893 2.6021272484 2.6338605076 2.6655937667 2.6973270258 2.7290602849 2.7607935441 2.7925268032 2.8242600623 
2.8559933214 2.8877265806 2.9194598397 2.9511930988 2.982926358 3.0146596171 3.0463928762 3.0781261353 3.1098593945 
3.1415926536 
_radius 1 100 double
7.9567664347e-16 0.015508307594 0.030941385126 0.046212687675 0.061233024411 0.075910924272 0.090154297097 0.10387350019 0.11698562578 
0.1294195079 0.1411207141 0.15205572671 0.16221464685 0.17161200693 0.18028554761 0.188293024 0.19570724371 0.20260965931 
0.20908300172 0.21520365562 0.22103466705 0.22662031028 0.23198293647 0.23712240232 0.24201787349 0.24663138879 0.25091237721 
0.25480236057 0.2582392954 0.26116131049 0.26350987266 0.26523256295 0.26628562698 0.26663630888 0.2662647937 0.26516548959 
0.26334745926 0.26083405317 0.25766210767 0.25388129087 0.24955416021 0.24475718246 0.2395824416 0.23413920375 0.22855412445 
0.22296882024 0.21753386945 0.21239907824 0.20770098746 0.20354988356 0.20001954187 0.1971429194 0.19491553599 0.19330553694 
0.1922665534 0.19174806223 0.19169902243 0.19206385466 0.19277384576 0.19373974569 0.19485100191 0.19598365414 0.19701446397 
0.19783622638 0.19836960873 0.19856917491 0.19842363718 0.19795180389 0.19719608911 0.19621516063 0.19507666601 0.1938502544 
0.19260056899 0.19137980331 0.19021993068 0.18912559785 0.18806930879 0.18699032876 0.18579773385 0.18437686111 0.18259773383 
0.18032400809 0.17742138929 0.17376501301 0.16924575206 0.16377564098 0.15729253057 0.14976378141 0.1411884918 0.13159765704 
0.12105186083 0.10963652905 0.097455256716 0.084622092406 0.071253839964 0.057463404852 0.043355005962 0.029021748478 0.014545670204 
5.9558661354e-16 
_area 1 100 double
0 0.00065509462495 0.0026022095984 0.00578822092 0.010128870712 0.015514203184 0.021814581048 0.028886346654 0.03657654334 
0.044726644815 0.053175912169 0.061765646874 0.070345799148 0.078784665054 0.086980822232 0.094874728548 0.10245640929 0.10976588169 
0.11688443322 0.12391725656 0.13097059603 0.13812849001 0.14543439257 0.15288113071 0.16040974203 0.16791531408 0.17525693855 
0.1822691723 0.18877344216 0.19458907551 0.19954442378 0.2034883529 0.20630121425 0.20790293378 0.20825534998 0.20735782184 
0.20523901895 0.20194990305 0.19756051704 0.19216001847 0.18585921693 0.17879533983 0.1711372218 0.16308703954 0.15487461591 
0.14674285073 0.13892684127 0.13163271438 0.12502274834 0.11920873186 0.1142453694 0.11011126407 0.10669704374 0.1038565007 
0.10150120997 0.099632673906 0.098264051677 0.097332621997 0.096707427642 0.096239787194 0.095792946384 0.095257328492 0.09456645614 
0.093699709811 0.092670973318 0.091507358573 0.090228172834 0.088839062711 0.087345416397 0.085772569576 0.084185010314 0.082699948278 
0.081485756552 0.080732377182 0.080582865853 0.081058506206 0.08204620628 0.083342260192 0.084695691912 0.085835845311 0.086494431636 
0.086427984711 0.085438985968 0.083390986366 0.080215320624 0.075911182472 0.070542862388 0.064236711691 0.057177540066 0.049601979649 
0.041786186254 0.034026971564 0.026618003017 0.019824896071 0.013864090417 0.0088900806031 0.0049939487056 0.002213494316 0.00055203464618 
2.2553521093e-17 
