# vtk DataFile Version 5.1
vtk output
ASCII
DATASET POLYDATA
POINTS 100 float
0.124404 0.0522053 0.627447 0.124542 0.052255 0.627378 0.125026 0.0522715 0.626988 
0.125785 0.052266 0.626273 0.126713 0.0522552 0.625226 0.127675 0.0522588 0.62383 
0.128528 0.052297 0.622061 0.129133 0.0523874 0.61988 0.129367 0.052542 0.617235 
0.12914 0.0527642 0.614063 0.128398 0.053047 0.610289 0.127127 0.0533717 0.605838 
0.125345 0.0537075 0.600638 0.123101 0.054013 0.594633 0.12046 0.0542378 0.587787 
0.117488 0.0543265 0.580092 0.114245 0.0542223 0.571575 0.110772 0.053872 0.562294 
0.10708 0.0532309 0.552339 0.103155 0.052267 0.541823 0.0989536 0.050965 0.530872 
0.0944136 0.0493288 0.519612 0.0894619 0.0473827 0.508159 0.0840267 0.0451712 0.496606 
0.0780504 0.0427564 0.485014 0.0714989 0.0402153 0.473404 0.06437 0.0376347 0.461761 
0.056696 0.0351056 0.450034 0.0485423 0.0327184 0.438145 0.0400012 0.0305565 0.426001 
0.0311824 0.0286924 0.413503 0.0222005 0.027184 0.400564 0.0131623 0.0260726 0.387116 
0.00415518 0.0253819 0.373116 -0.00476139 0.0251193 0.358553 -0.0135607 0.0252776 0.343447 
-0.0222479 0.0258376 0.327838 -0.0308549 0.0267716 0.311781 -0.0394297 0.0280458 0.295331 
-0.0480239 0.0296238 0.278535 -0.0566774 0.0314675 0.261418 -0.0654045 0.0335389 0.243978 
-0.0741818 0.0357995 0.22618 -0.0829409 0.0382104 0.207964 -0.0915661 0.0407307 0.189245 
-0.0998976 0.0433173 0.169931 -0.107741 0.0459238 0.14993 -0.114882 0.0485012 0.129174 
-0.121104 0.0509986 0.107625 -0.126203 0.0533656 0.0852893 -0.130015 0.0555556 0.0622229 
-0.132419 0.0575285 0.0385322 -0.133359 0.0592554 0.0143675 -0.132842 0.0607205 -0.0100876 
-0.13094 0.0619243 -0.0346317 -0.127781 0.0628831 -0.0590631 -0.123539 0.0636283 -0.0831973 
-0.118415 0.0642029 -0.106883 -0.112621 0.0646565 -0.130012 -0.10636 0.0650389 -0.152529 
-0.0998113 0.0653934 -0.174428 -0.0931199 0.0657498 -0.195745 -0.0863853 0.0661187 -0.216551 
-0.0796612 0.0664883 -0.236936 -0.0729587 0.0668227 -0.256988 -0.0662528 0.0670643 -0.276784 
-0.0594941 0.0671386 -0.296372 -0.0526215 0.0669615 -0.315766 -0.045575 0.0664494 -0.334942 
-0.0383081 0.0655292 -0.35384 -0.0307971 0.0641488 -0.372376 -0.0230476 0.0622858 -0.390449 
-0.0150961 0.0599531 -0.407959 -0.00700922 0.057202 -0.424821 0.0011217 0.0541198 -0.440978 
0.00918765 0.0508241 -0.456405 0.017071 0.0474534 -0.471118 0.0246547 0.0441546 -0.485167 
0.0318313 0.0410689 -0.498632 0.0385096 0.038318 -0.511607 0.0446204 0.035992 -0.52419 
0.0501187 0.0341399 -0.536465 0.0549847 0.0327647 -0.548486 0.0592219 0.0318233 -0.560274 
0.0628536 0.031232 -0.571806 0.0659191 0.0308753 -0.583019 0.0684687 0.0306198 -0.593814 
0.0705591 0.0303295 -0.604068 0.0722493 0.0298815 -0.613649 0.0735973 0.0291806 -0.622431 
0.0746577 0.0281707 -0.630306 0.0754803 0.0268417 -0.637201 0.0761089 0.0252311 -0.64308 
0.0765815 0.0234207 -0.64795 0.0769301 0.0215268 -0.651853 0.0771814 0.0196879 -0.654862 
0.0773565 0.0180485 -0.657063 0.0774717 0.0167429 -0.658546 0.0775383 0.0158798 -0.659386 
0.077563 0.0155296 -0.659636 
LINES 2 100
OFFSETS vtktypeint64
0 100 
CONNECTIVITY vtktypeint64
0 1 2 3 4 5 6 7 8 
9 10 11 12 13 14 15 16 17 
18 19 20 21 22 23 24 25 26 
27 28 29 30 31 32 33 34 35 
36 37 38 39 40 41 42 43 44 
45 46 47 48 49 50 51 52 53 
54 55 56 57 58 59 60 61 62 
63 64 65 66 67 68 69 70 71 
72 73 74 75 76 77 78 79 80 
81 82 83 84 85 86 87 88 89 
90 91 92 93 94 95 96 97 98 
99 
POINT_DATA 100
FIELD FieldData 3
_theta 1 100 double
0 0.031733259127 0.063466518254 0.095199777382 0.12693303651 0.15866629564 0.19039955476 0.22213281389 0.25386607302 
0.28559933214 0.31733259127 0.3490658504 0.38079910953 0.41253236865 0.44426562778 0.47599888691 0.50773214603 0.53946540516 
0.57119866429 0.60293192342 0.63466518254 0.66639844167 0.6981317008 0.72986495992 0.76159821905 0.79333147818 0.82506473731 
0.85679799643 0.88853125556 0.92026451469 0.95199777382 0.98373103294 1.0154642921 1.0471975512 1.0789308103 1.1106640695 
1.1423973286 1.1741305877 1.2058638468 1.237597106 1.2693303651 1.3010636242 1.3327968833 1.3645301425 1.3962634016 
1.4279966607 1.4597299198 1.491463179 1.5231964381 1.5549296972 1.5866629564 1.6183962155 1.6501294746 1.6818627337 
1.7135959929 1.745329252 1.7770625111 1.8087957702 1.8405290294 1.8722622885 1.9039955476 1.9357288068 1.9674620659 
1.999195325 2.0309285841 2.0626618433 2.0943951024 2.1261283615 2.1578616206 2.1895948798 2.2213281389 2.253061398 
2.2847946572 2.3165279163 2.3482611754 2.3799944345 2.4117276937 2.4434609528 2.4751942119 2.506927471 2.5386607302 
2.5703939893 2.6021272484 2.6338605076 2.6655937667 2.6973270258 2.7290602849 2.7607935441 2.7925268032 2.8242600623 
2.8559933214 2.8877265806 2.9194598397 2.9511930988 2.982926358 3.0146596171 3.0463928762 3.0781261353 3.1098593945 
3.1415926536 
_radius 1 100 double
1.2422170582e-15 0.013325760315 0.026648222745 0.039953440099 0.053220607091 0.066418488053 0.079502097765 0.092410519873 0.10506675752 
0.11738016057 0.12925142385 0.14057960839 0.15127024506 0.16124338615 0.1704404647 0.17882898205 0.18640435741 0.19318871671 
0.19922691495 0.20458056479 0.20932114066 0.21352323049 0.21725872017 0.22059227121 0.22357810608 0.22625797938 0.22866024008 
0.23079993341 0.23267985397 0.23429236968 0.23562176273 0.23664680742 0.23734331204 0.23768638186 0.23765222253 0.23721941481 
0.23636975149 0.23508891138 0.23336739699 0.23120220382 0.22859954898 0.22557864647 0.22217604676 0.21844961559 0.21448099804 
0.21037552677 0.20625895972 0.20227098173 0.19855585506 0.19525092529 0.19247406275 0.19031163732 0.18880900296 0.18796526227 
0.18773320715 0.18802424082 0.18871736341 0.1896711426 0.19073766774 0.19177734552 0.19267296632 0.19334112908 0.19373926429 
0.19386722504 0.19376347626 0.19349684055 0.19315513111 0.19283185599 0.1926120242 0.19255827115 0.19269885543 0.19301920726 
0.19345847153 0.19391187996 0.19423888234 0.19427597478 0.19385239567 0.19280653599 0.19100101068 0.18833467903 0.18475032092 
0.18023713518 0.17482777261 0.16859027062 0.16161596374 0.15400507768 0.14585213717 0.13723342028 0.12819841948 0.1187666339 
0.10893010937 0.098661132815 0.087923593643 0.076685946754 0.064933558873 0.052678478272 0.039965225194 0.026871903502 0.013506643248 
2.5858285486e-16 
_area 1 100 double
0 0.00048074197051 0.0019219336882 0.0043199440343 0.0076668620722 0.011947407159 0.017134171739 0.023181292887 0.030017437706 
0.03753990998 0.045612199523 0.054066971173 0.062715301345 0.071361298 0.07981962246 0.087932347297 0.095581442491 0.10269428249 
0.10924181146 0.11523160568 0.12069968132 0.12570429847 0.13032212612 0.13464357779 0.1387626568 0.14275935127 0.14667845455 
0.15051311183 0.15420058947 0.15763272384 0.16067788895 0.16320744523 0.16511833252 0.16634525157 0.16686023444 0.16666233646 
0.16576351896 0.16417741599 0.16191548814 0.15899107723 0.15542840837 0.15127257381 0.14659752736 0.14151018117 0.13614898827 
0.13067652608 0.12526892944 0.12010560218 0.115355956 0.11115853426 0.10760116564 0.10471674764 0.10249162191 0.1008708746 
0.099758627483 0.099027717536 0.09854482583 0.098198604294 0.097921845002 0.097692953459 0.097441199511 0.097014874994 0.096316509565 
0.095355063514 0.094212867974 0.092996468217 0.091802458868 0.090709754998 0.089791942859 0.089131017334 0.088819641743 0.088947119017 
0.089564965601 0.090637620437 0.092011094373 0.093429540771 0.094587569318 0.095188635702 0.094986978309 0.09380942741 0.091564485111 
0.088243462492 0.083914770789 0.078711236255 0.072810828087 0.066413216302 0.059716639003 0.052899857442 0.046112301702 0.039472963363 
0.03307633759 0.027002353929 0.02132686509 0.016129741221 0.011498670243 0.007528042565 0.0043134821612 0.0019434671833 0.00048995792684 
1.3877787808e-17 
