# vtk DataFile Version 5.1
vtk output
ASCII
DATASET POLYDATA
POINTS 100 float
0.125325 0.0709707 0.684293 0.125475 0.0708343 0.684072 0.125837 0.0705706 0.683573 
0.126361 0.0701929 0.682741 0.126968 0.0697217 0.68149 0.127561 0.0691835 0.679708 
0.128035 0.0686096 0.677274 0.128287 0.0680334 0.674064 0.12823 0.0674882 0.669963 
0.127794 0.0670043 0.66488 0.126937 0.0666057 0.658753 0.125639 0.0663069 0.651556 
0.123906 0.0661104 0.643301 0.121758 0.0660047 0.634041 0.119225 0.0659634 0.623859 
0.116336 0.0659454 0.612869 0.113115 0.0658972 0.6012 0.10957 0.0657562 0.588992 
0.105696 0.0654557 0.576386 0.101473 0.0649306 0.563509 0.0968706 0.0641242 0.550473 
0.0918529 0.062994 0.537364 0.0863894 0.0615176 0.524243 0.0804616 0.0596967 0.51114 
0.074071 0.0575594 0.498059 0.0672437 0.0551595 0.484976 0.0600318 0.0525746 0.471849 
0.0525114 0.0499008 0.458617 0.0447766 0.0472463 0.445209 0.0369307 0.0447234 0.431548 
0.0290753 0.04244 0.417554 0.0212997 0.0404921 0.403149 0.013671 0.0389566 0.388262 
0.00622771 0.0378868 0.372829 -0.00102383 0.0373099 0.356794 -0.00810722 0.0372269 0.340112 
-0.01507 0.0376149 0.32275 -0.0219734 0.0384323 0.304687 -0.0288797 0.0396236 0.285912 
-0.0358376 0.0411271 0.266429 -0.0428698 0.0428802 0.246254 -0.0499618 0.0448259 0.225416 
-0.0570557 0.0469156 0.203955 -0.0640486 0.0491123 0.181924 -0.0707972 0.0513898 0.159384 
-0.0771271 0.053731 0.136406 -0.0828467 0.0561248 0.113067 -0.0877639 0.0585623 0.0894445 
-0.0917033 0.0610318 0.065618 -0.0945227 0.0635161 0.0416638 -0.0961257 0.0659892 0.017653 
-0.0964706 0.0684158 -0.00635051 -0.095573 0.0707519 -0.0302911 -0.0935025 0.0729472 -0.054122 
-0.0903749 0.0749487 -0.077805 -0.0863386 0.0767046 -0.101309 -0.0815599 0.0781692 -0.124608 
-0.0762066 0.0793062 -0.147679 -0.0704327 0.0800915 -0.170502 -0.0643669 0.0805137 -0.193054 
-0.0581037 0.080574 -0.215309 -0.051701 0.0802827 -0.237239 -0.0451817 0.0796564 -0.258811 
-0.0385399 0.0787127 -0.279986 -0.0317498 0.0774659 -0.300725 -0.0247778 0.075923 -0.320985 
-0.017593 0.0740807 -0.340725 -0.0101773 0.0719248 -0.359905 -0.00253282 0.0694312 -0.37849 
0.00531439 0.0665689 -0.396448 0.0133146 0.0633043 -0.413755 0.0213975 0.0596078 -0.430394 
0.0294788 0.0554589 -0.446356 0.0374681 0.0508523 -0.461636 0.0452766 0.0458022 -0.476237 
0.0528251 0.0403443 -0.490165 0.060049 0.0345362 -0.503432 0.0669014 0.0284553 -0.516051 
0.0733527 0.0221936 -0.528037 0.0793882 0.0158524 -0.539405 0.0850035 0.00953464 -0.550172 
0.0901989 0.0033376 -0.560351 0.0949738 -0.00265334 -0.569959 0.0993226 -0.00836996 -0.579008 
0.103232 -0.0137641 -0.587511 0.106682 -0.0188081 -0.595477 0.109646 -0.0234934 -0.602916 
0.112102 -0.0278265 -0.609834 0.11403 -0.0318235 -0.616234 0.115426 -0.0355046 -0.622116 
0.116305 -0.0388881 -0.627478 0.116706 -0.0419852 -0.632314 0.116693 -0.044797 -0.636614 
0.116352 -0.047313 -0.64037 0.115787 -0.0495116 -0.643568 0.115114 -0.051363 -0.646197 
0.114447 -0.052833 -0.648246 0.113889 -0.0538876 -0.649706 0.113522 -0.0544984 -0.650569 
0.1134 -0.0546465 -0.650834 
LINES 2 100
OFFSETS vtktypeint64
0 100 
CONNECTIVITY vtktypeint64
0 1 2 3 4 5 6 7 8 
9 10 11 12 13 14 15 16 17 
18 19 20 21 22 23 24 25 26 
27 28 29 30 31 32 33 34 35 
36 37 38 39 40 41 42 43 44 
45 46 47 48 49 50 51 52 53 
54 55 56 57 58 59 60 61 62 
63 64 65 66 67 68 69 70 71 
72 73 74 75 76 77 78 79 80 
81 82 83 84 85 86 87 88 89 
90 91 92 93 94 95 96 97 98 
99 
POINT_DATA 100
FIELD FieldData 3
_theta 1 100 double
0 0.031733259127 0.063466518254 0.095199777382 0.12693303651 0.15866629564 0.19039955476 0.22213281389 0.25386607302 
0.28559933214 0.31733259127 0.3490658504 0.38079910953 0.41253236865 0.44426562778 0.47599888691 0.50773214603 0.53946540516 
0.57119866429 0.60293192342 0.63466518254 0.66639844167 0.6981317008 0.72986495992 0.76159821905 0.79333147818 0.82506473731 
0.85679799643 0.88853125556 0.92026451469 0.95199777382 0.98373103294 1.0154642921 1.0471975512 1.0789308103 1.1106640695 
1.1423973286 1.1741305877 1.2058638468 1.237597106 1.2693303651 1.3010636242 1.3327968833 1.3645301425 1.3962634016 
1.4279966607 1.4597299198 1.491463179 1.5231964381 1.5549296972 1.5866629564 1.6183962155 1.6501294746 1.6818627337 
1.7135959929 1.745329252 1.7770625111 1.8087957702 1.8405290294 1.8722622885 1.9039955476 1.9357288068 1.9674620659 
1.999195325 2.0309285841 2.0626618433 2.0943951024 2.1261283615 2.1578616206 2.1895948798 2.2213281389 2.253061398 
2.2847946572 2.3165279163 2.3482611754 2.3799944345 2.4117276937 2.4434609528 2.4751942119 2.506927471 2.5386607302 
2.5703939893 2.6021272484 2.6338605076 2.6655937667 2.6973270258 2.7290602849 2.7607935441 2.7925268032 2.8242600623 
2.8559933214 2.8877265806 2.9194598397 2.9511930988 2.982926358 3.0146596171 3.0463928762 3.0781261353 3.1098593945 
3.1415926536 
_radius 1 100 double
1.4634981008e-15 0.013849293623 0.027582095461 0.04109397828 0.054292829767 0.067102291123 0.079462966704 0.091331560447 0.10267841521 
0.11348406877 0.12373545029 0.13342229788 0.14253431411 0.15105947665 0.15898376393 0.16629234573 0.1729720564 0.17901475108 
0.18442098288 0.18920336891 0.19338906183 0.19702089082 0.20015691537 0.20286826499 0.20523517757 0.20734113737 0.20926508503 
0.21107201023 0.21280295232 0.21446636828 0.21603343479 0.217439432 0.21859174452 0.21938300985 0.2197066874 0.21947225839 
0.21861799146 0.21712009568 0.21499776575 0.21231402835 0.20917250052 0.20571029319 0.20208744491 0.19847352763 0.19503246975 
0.1919071884 0.18920621435 0.18699485667 0.18529315346 0.18408152734 0.18331285638 0.18292747251 0.18286661405 0.18308072569 
0.18353129062 0.18418744172 0.18502030515 0.18599828548 0.18708531812 0.18824213579 0.18942901004 0.19060818342 0.1917451101 
0.19280869406 0.19377125797 0.19460894101 0.19530281837 0.19584045442 0.19621707966 0.19643539595 0.19650331883 0.19642967781 
0.19621871063 0.1958647173 0.19534818986 0.19463409087 0.19367205149 0.19239762501 0.19073375683 0.18859229349 0.18587620283 
0.18248363953 0.17831472223 0.17328096419 0.16731612364 0.16038630601 0.15249682361 0.14369373246 0.13405904028 0.1237000736 
0.11273504848 0.1012780658 0.089427096063 0.077257757728 0.064823952305 0.052164290147 0.039311537855 0.026301659989 0.013179556034 
1.086151086e-15 
_area 1 100 double
0 0.0005418857071 0.0021472863511 0.0047574190483 0.0082806376168 0.012600940652 0.017588116284 0.023108097043 0.029032030567 
0.035242741383 0.041637769725 0.048128949546 0.054639269618 0.061098368407 0.067438422949 0.073592304081 0.079495475595 0.085092130907 
0.090344548113 0.095242678409 0.099808987889 0.10409320787 0.10815574517 0.11204691657 0.11579386178 0.11940058126 0.12285596435 
0.12614102049 0.12922989158 0.13208440329 0.13464615212 0.13683208828 0.13853834786 0.13965375828 0.14008269922 0.13977065066 
0.13867660354 0.13672932567 0.13390977886 0.13030799328 0.12610675424 0.12154791677 0.11689496971 0.112396368 0.10825614302 
0.10461583192 0.10154619773 0.099041103603 0.097016093206 0.095338247082 0.093861800201 0.092481154129 0.091133782363 0.089783005507 
0.088418213559 0.087023904886 0.085625815151 0.084278947122 0.083085774242 0.082195370154 0.081730809049 0.081650322834 0.081776693737 
0.081924499494 0.081945934904 0.081743677001 0.081281815321 0.080589980203 0.079751153113 0.078876359797 0.07808507612 0.077491741108 
0.077184365003 0.077199836425 0.077516446524 0.078066255405 0.078753128647 0.079462886574 0.080062725557 0.080396940762 0.080287409134 
0.079543740864 0.077984135778 0.075464069592 0.071905936629 0.06732071612 0.061814333923 0.055576050803 0.048851782279 0.041909722334 
0.035007669146 0.028370218088 0.02217953438 0.016577622573 0.01167422688 0.0075547290021 0.0042853539146 0.0019158116401 0.00048061597254 
9.5197997276e-17 
