# vtk DataFile Version 5.1
vtk output
ASCII
DATASET POLYDATA
POINTS 100 float
0.157679 -0.0218649 -0.618854 0.157506 -0.021901 -0.618743 0.157049 -0.0218314 -0.618466 
0.156301 -0.0216446 -0.617977 0.155255 -0.0213201 -0.617209 0.153897 -0.0208285 -0.616075 
0.15221 -0.0201309 -0.614478 0.15017 -0.019179 -0.612321 0.14775 -0.0179175 -0.609516 
0.144922 -0.0162863 -0.605985 0.141653 -0.0142256 -0.601672 0.137911 -0.0116814 -0.596538 
0.133669 -0.00861153 -0.590562 0.128903 -0.00499251 -0.583736 0.123599 -0.000824653 -0.576062 
0.117757 0.0038639 -0.567546 0.111386 0.00901567 -0.558192 0.104514 0.0145451 -0.548 
0.0971805 0.0203425 -0.536964 0.08944 0.0262811 -0.525073 0.0813573 0.0322255 -0.512314 
0.0730046 0.0380419 -0.498677 0.0644567 0.0436075 -0.484158 0.0557863 0.0488198 -0.468767 
0.0470592 0.0536023 -0.45253 0.0383302 0.0579087 -0.435488 0.0296404 0.0617223 -0.4177 
0.0210154 0.0650527 -0.399236 0.0124662 0.0679292 -0.380176 0.00399139 0.070392 -0.360594 
-0.00441845 0.0724831 -0.340559 -0.0127752 0.0742367 -0.320123 -0.0210867 0.0756716 -0.299318 
-0.0293497 0.0767871 -0.278151 -0.0375439 0.077561 -0.256609 -0.0456271 0.0779529 -0.234664 
-0.0535319 0.0779095 -0.212279 -0.0611662 0.0773741 -0.189419 -0.0684151 0.0762963 -0.166065 
-0.0751461 0.0746428 -0.142223 -0.0812175 0.0724066 -0.117934 -0.086487 0.0696137 -0.0932769 
-0.0908234 0.0663258 -0.068373 -0.0941161 0.0626394 -0.0433787 -0.096285 0.0586803 -0.018478 
-0.0972882 0.0545946 0.00613071 -0.0971259 0.0505368 0.0302497 -0.0958416 0.0466574 0.0536981 
-0.0935197 0.0430902 0.0763268 -0.0902789 0.039941 0.0980305 -0.0862636 0.0372807 0.118755 
-0.081632 0.0351413 0.1385 -0.0765441 0.0335165 0.157316 -0.0711499 0.0323663 0.175294 
-0.065578 0.0316257 0.192555 -0.0599279 0.0312145 0.209235 -0.0542652 0.0310489 0.225468 
-0.0486197 0.0310518 0.241371 -0.0429889 0.0311612 0.257036 -0.0373433 0.0313362 0.272518 
-0.0316358 0.0315581 0.287838 -0.0258118 0.0318291 0.302983 -0.0198198 0.032167 0.317914 
-0.0136224 0.0325983 0.332579 -0.00720349 0.0331495 0.346919 -0.000574182 0.0338396 0.360888 
0.00622538 0.0346734 0.374458 0.0131276 0.0356379 0.387624 0.0200424 0.0367018 0.400411 
0.0268647 0.0378182 0.412867 0.0334837 0.0389301 0.425058 0.0397926 0.0399778 0.43706 
0.0456982 0.040908 0.448944 0.0511281 0.0416808 0.460766 0.056036 0.0422763 0.472558 
0.0604034 0.0426981 0.484322 0.0642388 0.0429728 0.496024 0.0675731 0.0431464 0.507601 
0.0704535 0.0432779 0.518963 0.0729353 0.0434303 0.530006 0.0750739 0.0436602 0.540623 
0.0769175 0.0440091 0.550717 0.078501 0.0444953 0.560209 0.0798429 0.0451098 0.569054 
0.080945 0.0458155 0.577234 0.0817949 0.046551 0.584767 0.0823708 0.0472377 0.5917 
0.0826484 0.04779 0.598097 0.0826084 0.0481272 0.60403 0.0822439 0.0481854 0.609567 
0.0815666 0.0479274 0.61476 0.0806102 0.0473503 0.619638 0.079432 0.0464879 0.624196 
0.0781104 0.0454096 0.628402 0.0767398 0.0442136 0.632193 0.0754238 0.0430168 0.635487 
0.074265 0.0419418 0.638193 0.0733565 0.041103 0.640225 0.072772 0.040593 0.641507 
0.0725589 0.0404718 0.641992 
LINES 2 100
OFFSETS vtktypeint64
0 100 
CONNECTIVITY vtktypeint64
0 1 2 3 4 5 6 7 8 
9 10 11 12 13 14 15 16 17 
18 19 20 21 22 23 24 25 26 
27 28 29 30 31 32 33 34 35 
36 37 38 39 40 41 42 43 44 
45 46 47 48 49 50 51 52 53 
54 55 56 57 58 59 60 61 62 
63 64 65 66 67 68 69 70 71 
72 73 74 75 76 77 78 79 80 
81 82 83 84 85 86 87 88 89 
90 91 92 93 94 95 96 97 98 
99 
POINT_DATA 100
FIELD FieldData 3
_theta 1 100 double
0 0.031733259127 0.063466518254 0.095199777382 0.12693303651 0.15866629564 0.19039955476 0.22213281389 0.25386607302 
0.28559933214 0.31733259127 0.3490658504 0.38079910953 0.41253236865 0.44426562778 0.47599888691 0.50773214603 0.53946540516 
0.57119866429 0.60293192342 0.63466518254 0.66639844167 0.6981317008 0.72986495992 0.76159821905 0.79333147818 0.82506473731 
0.85679799643 0.88853125556 0.92026451469 0.95199777382 0.98373103294 1.0154642921 1.0471975512 1.0789308103 1.1106640695 
1.1423973286 1.1741305877 1.2058638468 1.237597106 1.2693303651 1.3010636242 1.3327968833 1.3645301425 1.3962634016 
1.4279966607 1.4597299198 1.491463179 1.5231964381 1.5549296972 1.5866629564 1.6183962155 1.6501294746 1.6818627337 
1.7135959929 1.745329252 1.7770625111 1.8087957702 1.8405290294 1.8722622885 1.9039955476 1.9357288068 1.9674620659 
1.999195325 2.0309285841 2.0626618433 2.0943951024 2.1261283615 2.1578616206 2.1895948798 2.2213281389 2.253061398 
2.2847946572 2.3165279163 2.3482611754 2.3799944345 2.4117276937 2.4434609528 2.4751942119 2.506927471 2.5386607302 
2.5703939893 2.6021272484 2.6338605076 2.6655937667 2.6973270258 2.7290602849 2.7607935441 2.7925268032 2.8242600623 
2.8559933214 2.8877265806 2.9194598397 2.9511930988 2.982926358 3.0146596171 3.0463928762 3.0781261353 3.1098593945 
3.1415926536 
_radius 1 100 double
5.661048867e-16 0.014629682103 0.029174146937 0.043546181239 0.057653992172 0.07139843092 0.084670619155 0.097350988557 0.10931079947 
0.12041685493 0.13053946688 0.13956295761 0.14739730106 0.15398909044 0.15932995308 0.16346084272 0.16647127775 0.1684934535 
0.16969206641 0.17025142681 0.17036177926 0.1702065566 0.16995162632 0.16973675131 0.16966892806 0.16981730951 0.17021000853 
0.17083373738 0.17163739038 0.17254008733 0.17344315213 0.17424454124 0.17485371498 0.17520487684 0.17526675254 0.1750475725 
0.17459470662 0.17398950579 0.17333913148 0.17276797743 0.17241102875 0.17240988515 0.17290985855 0.1740549191 0.17597739384 
0.17878134852 0.18252189249 0.18718607082 0.19268262925 0.19884590777 0.20545386773 0.21225503523 0.21899708556 0.22545113563 
0.23142863265 0.23679024962 0.24144777316 0.24536069403 0.24852935621 0.25098630284 0.25278704024 0.2540009762 0.25470291443 
0.25496530187 0.25485146043 0.25441022802 0.2536726309 0.25265120549 0.25134224332 0.24973057859 0.24779580074 0.24551827342 
0.24288332512 0.23988250382 0.23651170291 0.23276696134 0.22863947408 0.22411155844 0.21915494033 0.21373190535 0.20779892564 
0.20131167688 0.19423014662 0.18652283481 0.17816966387 0.16916380448 0.15951288082 0.14923986306 0.13838356585 0.12699833844 
0.1151524439 0.10292479624 0.090400058764 0.077662498108 0.064789351019 0.051844724091 0.038875130529 0.02590760844 0.012950951825 
2.2600113378e-16 
_area 1 100 double
0 0.00054526346003 0.0021803376716 0.0048988135846 0.0086769976127 0.013458237372 0.019137610166 0.025551449053 0.032475137828 
0.039630914504 0.046705554119 0.053376079252 0.05934024532 0.06434757521 0.068226270916 0.070901512022 0.072401568287 0.072849891283 
0.07244389036 0.0714241353 0.070040471349 0.068522803304 0.067063064347 0.065810871351 0.064879665366 0.064355473913 0.06430007534 
0.064745406484 0.065683371509 0.067058446523 0.068767330414 0.070667862064 0.072601506646 0.074426686375 0.076047190829 0.077422237547 
0.078559140879 0.079499883359 0.080312031149 0.08108550326 0.081930492459 0.082973472151 0.084352320943 0.086212577069 0.088704653093 
0.091981904155 0.096199051252 0.10149414568 0.10793572446 0.11546381795 0.12387313925 0.13284804955 0.14202031654 0.15102101842 
0.15951605804 0.16722523298 0.17392926369 0.17947157759 0.18376047909 0.18677260873 0.18855406581 0.18921472021 0.18891374386 
0.18783747637 0.18617274799 0.18407999801 0.18167115118 0.17899698734 0.17604778819 0.17276869404 0.16908649307 0.16493953993 
0.16030089534 0.15518759909 0.14965436069 0.14377550212 0.13762284767 0.13124814088 0.12467605653 0.11790897065 0.110939726 
0.10376601658 0.096400467827 0.088873234543 0.081227661174 0.073512774812 0.065777643027 0.05807132133 0.050448944685 0.042980886287 
0.035759623481 0.028899694395 0.022529636008 0.016778622355 0.011762433613 0.007572995512 0.0042739375618 0.0019024575406 0.00047588024823 
3.2057587211e-17 
