# vtk DataFile Version 5.1
vtk output
ASCII
DATASET POLYDATA
POINTS 100 float
0.149921 0.0197481 0.650345 0.150097 0.0197729 0.650173 0.150496 0.0199969 0.649775 
0.151059 0.0204257 0.649122 0.151689 0.0210655 0.648166 0.15227 0.0219196 0.646844 
0.152672 0.022984 0.645081 0.152769 0.0242445 0.642795 0.152449 0.0256736 0.639902 
0.151625 0.0272299 0.636321 0.150244 0.0288593 0.631978 0.148289 0.0304981 0.626815 
0.145776 0.0320783 0.62079 0.142753 0.0335339 0.613882 0.139291 0.0348071 0.606093 
0.135469 0.0358546 0.597449 0.131367 0.0366525 0.587997 0.127056 0.037198 0.577806 
0.122582 0.0375097 0.566957 0.117968 0.0376247 0.555545 0.113206 0.0375932 0.543666 
0.10826 0.0374717 0.531419 0.103068 0.0373153 0.518895 0.0975564 0.0371705 0.506173 
0.0916417 0.0370693 0.493319 0.085246 0.0370254 0.480385 0.0783052 0.0370338 0.467402 
0.0707777 0.0370729 0.454389 0.0626498 0.0371094 0.441349 0.053939 0.0371061 0.428271 
0.0446929 0.0370298 0.415136 0.0349863 0.0368594 0.401915 0.024915 0.0365934 0.388574 
0.0145888 0.0362536 0.375073 0.00412348 0.0358869 0.361365 -0.00636617 0.0355626 0.347397 
-0.0167722 0.0353665 0.333112 -0.0269972 0.0353925 0.318442 -0.0369556 0.0357315 0.303316 
-0.0465728 0.0364606 0.287653 -0.0557825 0.0376331 0.271373 -0.0645223 0.0392701 0.254396 
-0.0727294 0.0413565 0.236645 -0.0803368 0.0438401 0.218058 -0.0872704 0.0466358 0.198591 
-0.0934486 0.0496329 0.178222 -0.0987837 0.0527062 0.15696 -0.103186 0.0557281 0.134843 
-0.106569 0.0585813 0.111943 -0.108859 0.0611702 0.0883591 -0.109997 0.0634293 0.0642182 
-0.109953 0.0653281 0.0396628 -0.108727 0.0668718 0.0148444 -0.106352 0.068097 -0.0100865 
-0.102897 0.0690648 -0.0349903 -0.0984626 0.0698497 -0.0597463 -0.0931749 0.0705286 -0.0842594 
-0.0871782 0.0711687 -0.108463 -0.0806248 0.0718177 -0.13232 -0.0736644 0.0724968 -0.155819 
-0.0664339 0.0731967 -0.178969 -0.0590491 0.073879 -0.201792 -0.0515987 0.0744801 -0.224313 
-0.0441408 0.0749191 -0.246554 -0.0367038 0.0751075 -0.268524 -0.0292898 0.07496 -0.290216 
-0.021881 0.0744044 -0.311603 -0.0144485 0.0733899 -0.332639 -0.00696182 0.0718924 -0.353265 
0.0006021 0.0699167 -0.373414 0.00825021 0.0674952 -0.393018 0.0159676 0.0646834 -0.412016 
0.0237142 0.0615532 -0.43036 0.0314252 0.0581851 -0.448024 0.0390141 0.0546601 -0.465001 
0.0463792 0.0510526 -0.481304 0.053412 0.0474258 -0.496963 0.0600069 0.0438281 -0.512014 
0.066071 0.0402942 -0.526494 0.071533 0.0368465 -0.540426 0.0763502 0.0334997 -0.553818 
0.0805124 0.0302656 -0.566646 0.0840433 0.0271579 -0.578861 0.086998 0.024196 -0.590384 
0.0894572 0.0214075 -0.601113 0.0915201 0.0188275 -0.610932 0.0932941 0.0164969 -0.619723 
0.0948846 0.0144574 -0.627385 0.0963853 0.0127466 -0.633839 0.0978698 0.0113914 -0.639052 
0.0993852 0.010403 -0.643038 0.100949 0.00977276 -0.645865 0.102549 0.0094705 -0.647654 
0.104146 0.00944569 -0.648576 0.10568 0.00963115 -0.64883 0.107079 0.0099492 -0.648636 
0.108266 0.0103196 -0.648212 0.10917 0.010668 -0.647752 0.109734 0.0109343 -0.647411 
0.109921 0.0110794 -0.647289 
LINES 2 100
OFFSETS vtktypeint64
0 100 
CONNECTIVITY vtktypeint64
0 1 2 3 4 5 6 7 8 
9 10 11 12 13 14 15 16 17 
18 19 20 21 22 23 24 25 26 
27 28 29 30 31 32 33 34 35 
36 37 38 39 40 41 42 43 44 
45 46 47 48 49 50 51 52 53 
54 55 56 57 58 59 60 61 62 
63 64 65 66 67 68 69 70 71 
72 73 74 75 76 77 78 79 80 
81 82 83 84 85 86 87 88 89 
90 91 92 93 94 95 96 97 98 
99 
POINT_DATA 100
FIELD FieldData 3
_theta 1 100 double
0 0.031733259127 0.063466518254 0.095199777382 0.12693303651 0.15866629564 0.19039955476 0.22213281389 0.25386607302 
0.28559933214 0.31733259127 0.3490658504 0.38079910953 0.41253236865 0.44426562778 0.47599888691 0.50773214603 0.53946540516 
0.57119866429 0.60293192342 0.63466518254 0.66639844167 0.6981317008 0.72986495992 0.76159821905 0.79333147818 0.82506473731 
0.85679799643 0.88853125556 0.92026451469 0.95199777382 0.98373103294 1.0154642921 1.0471975512 1.0789308103 1.1106640695 
1.1423973286 1.1741305877 1.2058638468 1.237597106 1.2693303651 1.3010636242 1.3327968833 1.3645301425 1.3962634016 
1.4279966607 1.4597299198 1.491463179 1.5231964381 1.5549296972 1.5866629564 1.6183962155 1.6501294746 1.6818627337 
1.7135959929 1.745329252 1.7770625111 1.8087957702 1.8405290294 1.8722622885 1.9039955476 1.9357288068 1.9674620659 
1.999195325 2.0309285841 2.0626618433 2.0943951024 2.1261283615 2.1578616206 2.1895948798 2.2213281389 2.253061398 
2.2847946572 2.3165279163 2.3482611754 2.3799944345 2.4117276937 2.4434609528 2.4751942119 2.506927471 2.5386607302 
2.5703939893 2.6021272484 2.6338605076 2.6655937667 2.6973270258 2.7290602849 2.7607935441 2.7925268032 2.8242600623 
2.8559933214 2.8877265806 2.9194598397 2.9511930988 2.982926358 3.0146596171 3.0463928762 3.0781261353 3.1098593945 
3.1415926536 
_radius 1 100 double
5.556425174e-16 0.016620643157 0.033002409421 0.048930777966 0.064228369671 0.078767031975 0.092473485271 0.10532795936 0.11735640819 
0.1286180305 0.13919061465 0.14915634249 0.15859004191 0.16755076608 0.1760765617 0.18418183716 0.19185692865 0.19906995961 
0.20577142936 0.21190184295 0.21740210982 0.22222563847 0.22635034621 0.22978840222 0.23259152285 0.23485007123 0.23668510557 
0.23823384805 0.23963061972 0.24098666257 0.24237285605 0.24380872951 0.24525951497 0.2466409829 0.24783030573 0.24868065606 
0.24903753101 0.24875539149 0.2477136357 0.2458309975 0.24307728428 0.23948120145 0.23513306814 0.2301815923 0.224824497 
0.21929355766 0.21383537877 0.20868986597 0.2040687677 0.20013692944 0.19699904268 0.19469435991 0.1932004929 0.19244492903 
0.19232037533 0.19269917798 0.19344369944 0.19441272216 0.19546652139 0.19647347006 0.19731902632 0.19791551545 0.19820998664 
0.19818790424 0.19787172922 0.19731471991 0.19659115768 0.19578464964 0.19497625941 0.19423406331 0.19360539824 0.19311254623 
0.19275180477 0.19249489872 0.19229100493 0.19206793802 0.19173229649 0.19116974024 0.19024712176 0.18881769561 0.18672955118 
0.18383639223 0.18000920167 0.17514721329 0.16918680659 0.16210728657 0.15393292299 0.14473106596 0.13460659028 0.12369329318 
0.11214313221 0.10011433188 0.087759444667 0.075214469631 0.0625901215 0.049966244785 0.03739006979 0.024878438806 0.012423399754 
6.0040244609e-16 
_area 1 100 double
0 0.00061175857817 0.0024221775554 0.0053604762521 0.0093203560697 0.014174392812 0.019788944646 0.026036196907 0.032800891 
0.03998094129 0.047483165063 0.055216985846 0.063089433533 0.071003831674 0.078862806104 0.086574565481 0.094060322823 0.10126028125 
0.10813575114 0.11466589466 0.12083954249 0.12664526957 0.1320654341 0.13708033172 0.14168496276 0.14591301645 0.14985380744 
0.15364402397 0.15742591498 0.16129014583 0.16523975733 0.169191728 0.17300106041 0.17648633691 0.17944665041 0.18167119508 
0.18295003277 0.18309349201 0.18195873743 0.17947463283 0.17565646723 0.17060756549 0.16450975408 0.15760631627 0.15018056281 
0.14253268668 0.13495742518 0.12772474708 0.12106506284 0.11515919589 0.11013244188 0.10605090697 0.10291495341 0.10064871422 
0.099108785391 0.098127068464 0.097546826104 0.09722325004 0.09700945286 0.096755051901 0.096324202223 0.095618318201 0.094584400333 
0.093208252097 0.091511312807 0.089558377002 0.087458202047 0.085345096333 0.083352108748 0.081592656157 0.080156536 0.079115671904 
0.078534192737 0.078478802995 0.079011798753 0.080124726465 0.081693245359 0.083499112357 0.085246677111 0.086593897045 0.08719594119 
0.086751499317 0.085044082641 0.081970273184 0.07754967325 0.071916095736 0.065293904942 0.057966210005 0.050242228549 0.042429455054 
0.034813069183 0.027641902166 0.021118818429 0.015394074955 0.010562126129 0.0066637226179 0.0036948490069 0.0016221665655 0.0004022225459 
5.8367314752e-17 
