# vtk DataFile Version 5.1
vtk output
ASCII
DATASET POLYDATA
POINTS 100 float
0.121206 0.038175 0.736287 0.121328 0.0383968 0.736027 0.121742 0.0388888 0.735074 
0.122412 0.0396067 0.733401 0.123279 0.0404844 0.730969 0.12427 0.0414431 0.727729 
0.125302 0.0424021 0.723634 0.126291 0.0432906 0.718636 0.127157 0.0440567 0.712703 
0.127831 0.0446748 0.705816 0.128251 0.0451481 0.697979 0.128371 0.0455075 0.689221 
0.128151 0.0458053 0.679596 0.127557 0.0461068 0.669182 0.126558 0.0464789 0.658077 
0.12512 0.0469786 0.646393 0.123203 0.0476422 0.63425 0.120763 0.0484782 0.621766 
0.117754 0.0494633 0.609048 0.11413 0.0505432 0.596187 0.109852 0.0516381 0.583249 
0.104898 0.0526519 0.570271 0.0992666 0.053484 0.557263 0.0929868 0.0540424 0.544206 
0.0861185 0.0542557 0.531057 0.0787541 0.0540835 0.517756 0.071014 0.0535221 0.504234 
0.0630392 0.0526062 0.490424 0.0549797 0.0514061 0.476264 0.0469812 0.0500197 0.461708 
0.0391716 0.0485618 0.446727 0.0316475 0.0471514 0.431316 0.0244644 0.0458984 0.415487 
0.0176312 0.0448928 0.399265 0.0111096 0.0441957 0.382685 0.00481992 0.0438357 0.365779 
-0.00134826 0.0438085 0.34857 -0.00752073 0.0440822 0.331065 -0.0138205 0.044605 0.313246 
-0.0203492 0.0453158 0.295072 -0.0271696 0.0461555 0.276479 -0.0342921 0.0470771 0.257384 
-0.0416667 0.0480537 0.237693 -0.0491818 0.0490821 0.217317 -0.056669 0.0501834 0.196177 
-0.063916 0.0513989 0.174223 -0.0706837 0.0527819 0.151437 -0.0767275 0.0543887 0.127848 
-0.0818193 0.0562668 0.103524 -0.0857688 0.0584458 0.0785807 -0.0884406 0.0609287 0.0531647 
-0.0897662 0.0636883 0.0274469 -0.0897488 0.0666664 0.00160597 -0.0884618 0.0697776 -0.024187 
-0.0860387 0.0729172 -0.0497839 -0.0826593 0.0759709 -0.0750728 -0.0785298 0.0788261 -0.0999859 
-0.0738634 0.081383 -0.124503 -0.0688592 0.0835631 -0.148649 -0.0636856 0.0853154 -0.172484 
-0.0584675 0.0866174 -0.196094 -0.0532794 0.0874735 -0.219568 -0.0481443 0.0879082 -0.242987 
-0.0430394 0.0879574 -0.266403 -0.0379057 0.0876582 -0.289825 -0.0326615 0.0870381 -0.313216 
-0.0272181 0.0861071 -0.336484 -0.0214938 0.0848523 -0.359489 -0.0154274 0.0832358 -0.382057 
-0.00898703 0.0811983 -0.403991 -0.00217596 0.0786657 -0.425093 0.00496721 0.0755588 -0.445184 
0.0123718 0.0718053 -0.464124 0.0199422 0.0673517 -0.481824 0.0275665 0.0621733 -0.498258 
0.0351271 0.0562821 -0.513465 0.0425097 0.0497298 -0.527543 0.0496117 0.0426067 -0.540638 
0.0563478 0.0350358 -0.552926 0.0626529 0.0271638 -0.564593 0.0684825 0.019148 -0.575815 
0.0738108 0.0111442 -0.586733 0.0786272 0.00329367 -0.597443 0.0829323 -0.00428703 -0.607985 
0.0867337 -0.0115127 -0.618338 0.0900431 -0.0183318 -0.628427 0.0928741 -0.0247251 -0.638134 
0.0952422 -0.030699 -0.647313 0.0971656 -0.0362775 -0.655811 0.0986669 -0.041491 -0.663491 
0.0997754 -0.0463662 -0.670241 0.100529 -0.050917 -0.675997 0.100975 -0.0551383 -0.680744 
0.101169 -0.0590032 -0.684518 0.101175 -0.0624644 -0.687401 0.101058 -0.065459 -0.689507 
0.100883 -0.0679159 -0.690963 0.100709 -0.0697654 -0.691897 0.100581 -0.0709483 -0.692414 
0.10053 -0.071424 -0.692582 
LINES 2 100
OFFSETS vtktypeint64
0 100 
CONNECTIVITY vtktypeint64
0 1 2 3 4 5 6 7 8 
9 10 11 12 13 14 15 16 17 
18 19 20 21 22 23 24 25 26 
27 28 29 30 31 32 33 34 35 
36 37 38 39 40 41 42 43 44 
45 46 47 48 49 50 51 52 53 
54 55 56 57 58 59 60 61 62 
63 64 65 66 67 68 69 70 71 
72 73 74 75 76 77 78 79 80 
81 82 83 84 85 86 87 88 89 
90 91 92 93 94 95 96 97 98 
99 
POINT_DATA 100
FIELD FieldData 3
_theta 1 100 double
0 0.031733259127 0.063466518254 0.095199777382 0.12693303651 0.15866629564 0.19039955476 0.22213281389 0.25386607302 
0.28559933214 0.31733259127 0.3490658504 0.38079910953 0.41253236865 0.44426562778 0.47599888691 0.50773214603 0.53946540516 
0.57119866429 0.60293192342 0.63466518254 0.66639844167 0.6981317008 0.72986495992 0.76159821905 0.79333147818 0.82506473731 
0.85679799643 0.88853125556 0.92026451469 0.95199777382 0.98373103294 1.0154642921 1.0471975512 1.0789308103 1.1106640695 
1.1423973286 1.1741305877 1.2058638468 1.237597106 1.2693303651 1.3010636242 1.3327968833 1.3645301425 1.3962634016 
1.4279966607 1.4597299198 1.491463179 1.5231964381 1.5549296972 1.5866629564 1.6183962155 1.6501294746 1.6818627337 
1.7135959929 1.745329252 1.7770625111 1.8087957702 1.8405290294 1.8722622885 1.9039955476 1.9357288068 1.9674620659 
1.999195325 2.0309285841 2.0626618433 2.0943951024 2.1261283615 2.1578616206 2.1895948798 2.2213281389 2.253061398 
2.2847946572 2.3165279163 2.3482611754 2.3799944345 2.4117276937 2.4434609528 2.4751942119 2.506927471 2.5386607302 
2.5703939893 2.6021272484 2.6338605076 2.6655937667 2.6973270258 2.7290602849 2.7607935441 2.7925268032 2.8242600623 
2.8559933214 2.8877265806 2.9194598397 2.9511930988 2.982926358 3.0146596171 3.0463928762 3.0781261353 3.1098593945 
3.1415926536 
_radius 1 100 double
1.3755821205e-16 0.016084261031 0.031939970358 0.047353407973 0.062146459649 0.076189163204 0.08940654902 0.10177920299 0.11333787464 
0.12415325495 0.13432260582 0.14395514318 0.15315795906 0.1620239099 0.17062244538 0.17899392757 0.187147637 0.1950633564 
0.20269612965 0.20998351935 0.21685447258 0.2232387841 0.22907612459 0.23432365812 0.23896139203 0.24299457913 0.24645273625 
0.24938516264 0.25185324065 0.25392027976 0.25564018768 0.25704670999 0.25814518476 0.25890853298 0.25927852339 0.25917239536 
0.25849400434 0.25714802422 0.25505548038 0.25216889835 0.24848546661 0.24405671078 0.23899326025 0.23346343816 0.22768471257 
0.22190761159 0.21639270863 0.21138294356 0.20707574319 0.20360116534 0.20101191991 0.19928763465 0.19835043769 0.19808490979 
0.19835507301 0.19901424858 0.19990843914 0.20087802353 0.20176376117 0.20242010806 0.20273331202 0.20263796704 0.20212620142 
0.20124692759 0.20009583162 0.19879878296 0.19749216514 0.19630356785 0.1953355528 0.19465408235 0.19428205416 0.19419754381 
0.194335977 0.19459550558 0.19484513836 0.19493530924 0.19471027098 0.19402110066 0.19273763348 0.19075765239 0.18801214917 
0.18446618685 0.1801155801 0.17498015076 0.16909470436 0.16249912388 0.15522904877 0.14730846441 0.13874521407 0.12953006421 
0.11963955316 0.10904240301 0.097708760817 0.085621027866 0.072784662118 0.059237209407 0.045053984656 0.030349267925 0.0152725344 
5.4607235126e-16 
_area 1 100 double
0 0.00064489185679 0.0025389441797 0.0055673448402 0.0095604218003 0.014320385235 0.019649299737 0.025372663802 0.031354771225 
0.037504139654 0.043769437473 0.050128928392 0.056578586694 0.063123111386 0.069770481809 0.076528623884 0.083403478121 0.090398442468 
0.097513720271 0.10474162745 0.11205448032 0.11938892458 0.12663902534 0.13366797086 0.14033595464 0.14653264456 0.15220150502 
0.15734705852 0.16202262767 0.16630426272 0.17026210254 0.17393751853 0.17732681098 0.18036960805 0.18294292259 0.1848646738 
0.18591179891 0.18585504731 0.18450145986 0.18172817252 0.17750267735 0.17190183459 0.16512543535 0.15748535723 0.14937365037 
0.14122005662 0.13344443148 0.12640308826 0.12033187766 0.11531271272 0.11128849338 0.10810875775 0.10558392128 0.10354034975 
0.10185923983 0.10048182271 0.099380477082 0.098513669679 0.097789608713 0.097055209914 0.096129104256 0.094871518775 0.093235940014 
0.0912776726 0.089129468512 0.086959631933 0.084929952048 0.08316767583 0.081756417715 0.080742027244 0.080144697222 0.079967390386 
0.080195292436 0.080792874345 0.081710798159 0.082854286394 0.083960595606 0.084695709398 0.084819099572 0.08420367645 0.082816511343 
0.080692170528 0.077901485504 0.074522651556 0.070623175238 0.066255460937 0.061461570313 0.056280850315 0.050756862974 0.044943441754 
0.038911506843 0.032757388949 0.026610555453 0.020636812581 0.015034329275 0.010022566086 0.0058256972204 0.0026522266587 0.00067287028653 
5.1872583214e-17 
