# vtk DataFile Version 5.1
vtk output
ASCII
DATASET POLYDATA
POINTS 100 float
0.11074 0.0555693 0.626915 0.110604 0.0555763 0.62688 0.110282 0.0554749 0.626561 
0.109793 0.0552718 0.625922 0.109166 0.0549785 0.624903 0.108438 0.054611 0.623428 
0.10765 0.0541889 0.621409 0.10684 0.0537352 0.618754 0.106041 0.0532752 0.615372 
0.105273 0.0528353 0.61118 0.10454 0.0524412 0.606112 0.103826 0.0521167 0.600123 
0.103092 0.0518812 0.593194 0.102278 0.0517487 0.585336 0.101302 0.0517252 0.576588 
0.100067 0.0518081 0.567018 0.0984659 0.0519849 0.556716 0.0963918 0.0522331 0.545792 
0.093746 0.0525212 0.534366 0.090449 0.0528096 0.522559 0.0864492 0.0530532 0.510485 
0.0817308 0.0532045 0.498247 0.0763176 0.0532169 0.485924 0.0702747 0.0530489 0.473574 
0.0637048 0.0526678 0.461228 0.0567415 0.0520534 0.448895 0.0495386 0.0512007 0.436561 
0.0422566 0.0501219 0.424199 0.0350484 0.0488472 0.411774 0.0280448 0.0474236 0.39925 
0.0213417 0.0459131 0.386594 0.0149906 0.0443893 0.373783 0.00899384 0.0429322 0.360806 
0.00330506 0.0416239 0.34766 -0.00216526 0.0405422 0.334351 -0.00753884 0.0397554 0.320885 
-0.0129547 0.0393178 0.307265 -0.0185519 0.0392659 0.29348 -0.0244512 0.0396161 0.279502 
-0.0307384 0.0403642 0.265279 -0.0374508 0.0414865 0.250738 -0.0445684 0.0429424 0.235782 
-0.0520103 0.0446784 0.220299 -0.0596387 0.0466332 0.204169 -0.0672678 0.0487423 0.187279 
-0.0746777 0.0509438 0.169528 -0.0816328 0.0531825 0.150848 -0.0879012 0.0554133 0.131207 
-0.0932734 0.0576032 0.11062 -0.0975794 0.0597319 0.0891538 -0.100701 0.0617906 0.0669206 
-0.10258 0.0637797 0.0440762 -0.103217 0.0657052 0.0208069 -0.10267 0.0675754 -0.00268308 
-0.101044 0.069396 -0.0261881 -0.098475 0.0711676 -0.0495162 -0.0951201 0.0728823 -0.0725032 
-0.091137 0.0745225 -0.0950236 -0.086672 0.0760606 -0.116997 -0.081849 0.0774604 -0.13839 
-0.0767618 0.0786789 -0.159211 -0.0714718 0.0796696 -0.179505 -0.0660096 0.080386 -0.199337 
-0.0603804 0.0807848 -0.218786 -0.0545718 0.0808291 -0.237925 -0.0485634 0.0804905 -0.25681 
-0.0423354 0.0797499 -0.275476 -0.0358771 0.078598 -0.293926 -0.0291912 0.0770341 -0.312133 
-0.0222972 0.0750642 -0.330043 -0.01523 0.072699 -0.347583 -0.00803718 0.0699514 -0.364672 
-0.00077351 0.0668349 -0.381228 0.00650505 0.0633626 -0.397181 0.0137472 0.0595468 -0.412482 
0.0209112 0.0553999 -0.427103 0.0279671 0.0509367 -0.441045 0.0348978 0.0461766 -0.454326 
0.0416964 0.0411469 -0.466985 0.0483626 0.0358854 -0.479062 0.0548967 0.0304427 -0.490599 
0.0612946 0.0248832 -0.50162 0.0675422 0.0192846 -0.512134 0.0736121 0.0137355 -0.52212 
0.079462 0.00833226 -0.531536 0.0850369 0.00317319 -0.540317 0.0902722 -0.00164736 -0.548385 
0.0951001 -0.00604554 -0.555658 0.0994572 -0.0099543 -0.562065 0.103292 -0.0133285 -0.567553 
0.10657 -0.0161484 -0.572102 0.109283 -0.0184213 -0.575728 0.111447 -0.0201799 -0.578488 
0.113102 -0.0214796 -0.580472 0.114309 -0.0223919 -0.581804 0.115143 -0.0229981 -0.582622 
0.115685 -0.0233799 -0.58307 0.11601 -0.023612 -0.58328 0.11618 -0.0237536 -0.583357 
0.116234 -0.0238426 -0.583368 
LINES 2 100
OFFSETS vtktypeint64
0 100 
CONNECTIVITY vtktypeint64
0 1 2 3 4 5 6 7 8 
9 10 11 12 13 14 15 16 17 
18 19 20 21 22 23 24 25 26 
27 28 29 30 31 32 33 34 35 
36 37 38 39 40 41 42 43 44 
45 46 47 48 49 50 51 52 53 
54 55 56 57 58 59 60 61 62 
63 64 65 66 67 68 69 70 71 
72 73 74 75 76 77 78 79 80 
81 82 83 84 85 86 87 88 89 
90 91 92 93 94 95 96 97 98 
99 
POINT_DATA 100
FIELD FieldData 3
_theta 1 100 double
0 0.031733259127 0.063466518254 0.095199777382 0.12693303651 0.15866629564 0.19039955476 0.22213281389 0.25386607302 
0.28559933214 0.31733259127 0.3490658504 0.38079910953 0.41253236865 0.44426562778 0.47599888691 0.50773214603 0.53946540516 
0.57119866429 0.60293192342 0.63466518254 0.66639844167 0.6981317008 0.72986495992 0.76159821905 0.79333147818 0.82506473731 
0.85679799643 0.88853125556 0.92026451469 0.95199777382 0.98373103294 1.0154642921 1.0471975512 1.0789308103 1.1106640695 
1.1423973286 1.1741305877 1.2058638468 1.237597106 1.2693303651 1.3010636242 1.3327968833 1.3645301425 1.3962634016 
1.4279966607 1.4597299198 1.491463179 1.5231964381 1.5549296972 1.5866629564 1.6183962155 1.6501294746 1.6818627337 
1.7135959929 1.745329252 1.7770625111 1.8087957702 1.8405290294 1.8722622885 1.9039955476 1.9357288068 1.9674620659 
1.999195325 2.0309285841 2.0626618433 2.0943951024 2.1261283615 2.1578616206 2.1895948798 2.2213281389 2.253061398 
2.2847946572 2.3165279163 2.3482611754 2.3799944345 2.4117276937 2.4434609528 2.4751942119 2.506927471 2.5386607302 
2.5703939893 2.6021272484 2.6338605076 2.6655937667 2.6973270258 2.7290602849 2.7607935441 2.7925268032 2.8242600623 
2.8559933214 2.8877265806 2.9194598397 2.9511930988 2.982926358 3.0146596171 3.0463928762 3.0781261353 3.1098593945 
3.1415926536 
_radius 1 100 double
7.813576597e-16 0.012850805012 0.025564728602 0.038009691836 0.050071712331 0.061661335637 0.07271700603 0.08320501964 0.093116194612 
0.10245990773 0.11125661111 0.11953024185 0.12730195136 0.13458625375 0.14139009237 0.14771462162 0.15355890754 0.1589244297 
0.16381928659 0.16826131016 0.17227972535 0.17591536512 0.17921964261 0.18225246424 0.18507910642 0.18776589317 0.19037443 
0.19295428118 0.19553438601 0.19811417885 0.20065614417 0.2030820501 0.20527492488 0.20708777234 0.20835838832 0.20892813544 
0.20866172597 0.2074650704 0.2052988317 0.20218617181 0.19821406742 0.19352837955 0.18832347412 0.18282749853 0.17728440315 
0.17193370494 0.16698936421 0.16262041309 0.15893765555 0.15599107224 0.15377959152 0.1522690835 0.15140980404 0.15114547758 
0.15141241132 0.15213339841 0.15321335879 0.15454137229 0.155999442 0.15747481841 0.15887158658 0.16011828 0.16117030035 
0.16200772578 0.16263013466 0.16305032346 0.16328845153 0.16336746231 0.16330988969 0.16313564444 0.16286029798 0.1624937106 
0.16203925968 0.16149400945 0.16084981167 0.16009480044 0.1592144274 0.15819127774 0.15700335259 0.15562109285 0.15400393678 
0.15209749368 0.14983240054 0.14712560392 0.14388424278 0.14001164641 0.13541442916 0.13000946929 0.1237297597 0.11652857608 
0.10838190365 0.099289431969 0.089274603108 0.078384183429 0.066687662397 0.054276522266 0.041263153577 0.027779009442 0.013971583574 
6.9793752857e-16 
_area 1 100 double
0 0.00046456909385 0.0018421970794 0.0040853350575 0.0071172635777 0.010836546681 0.015124076152 0.01985251732 0.024897003211 
0.03014503606 0.035503263945 0.040899481244 0.046279800506 0.051602801409 0.056833525739 0.061939699892 0.066890784021 0.07165863369 
0.076218063377 0.080546686996 0.084624962255 0.088437947491 0.091979664476 0.095260281824 0.098315957404 0.10121901806 0.10408099599 
0.10703803085 0.11021557423 0.11368386236 0.1174211269 0.12129534748 0.12506909969 0.12842743251 0.13102201288 0.13251908866 
0.13264351305 0.13122149254 0.12821695784 0.12374832329 0.1180797859 0.11158463088 0.10468137678 0.097761124408 0.091141172521 
0.085058201866 0.079675074366 0.075080614545 0.071299229929 0.068288760795 0.06590051904 0.063949628809 0.062353438712 0.061075441084 
0.060073196677 0.059331690272 0.0588321652 0.058542896146 0.058408859575 0.058352649733 0.058309611697 0.058270945849 0.058288409482 
0.058406240501 0.058592128728 0.058773891031 0.058878373273 0.058845360494 0.058639002819 0.058257181293 0.057735415037 0.057138213053 
0.056533058899 0.056000885695 0.055542954337 0.055134145731 0.054777099936 0.054465148556 0.054175688561 0.053865745601 0.053550451848 
0.053169444541 0.052576533799 0.051591132634 0.050085747043 0.047977304837 0.045225165582 0.041835895975 0.037866629581 0.033424320125 
0.0286597368 0.023756043704 0.018912983921 0.014328932063 0.010183951705 0.0066270490559 0.0037698614351 0.0016872669685 0.00042340166121 
3.2253772838e-17 
