# vtk DataFile Version 5.1
vtk output
ASCII
DATASET POLYDATA
POINTS 100 float
0.0673123 0.00435266 -0.629496 0.0672878 0.00429806 -0.629375 0.0672528 0.00429329 -0.629039 
0.0671841 0.00436342 -0.628429 0.0670454 0.00454688 -0.627457 0.0667914 0.00489163 -0.62601 
0.0663718 0.00545038 -0.623966 0.0657356 0.00627527 -0.621204 0.064835 0.00741244 -0.617613 
0.0636287 0.00889718 -0.613107 0.0620826 0.0107499 -0.607625 0.0601712 0.0129733 -0.601139 
0.057876 0.0155519 -0.593649 0.0551839 0.018452 -0.585182 0.052086 0.0216245 -0.575785 
0.0485748 0.0250086 -0.565514 0.0446445 0.0285366 -0.55443 0.0402902 0.0321392 -0.542592 
0.0355103 0.0357512 -0.530046 0.0303083 0.0393155 -0.516829 0.0246966 0.0427873 -0.502965 
0.0186997 0.0461356 -0.488468 0.0123573 0.0493433 -0.473346 0.00572609 0.0524051 -0.457605 
-0.00112063 0.0553243 -0.441256 -0.00809479 0.0581082 -0.424314 -0.0150981 0.0607622 -0.406806 
-0.0220283 0.0632852 -0.388765 -0.0287865 0.0656646 -0.370233 -0.0352853 0.0678744 -0.351252 
-0.0414557 0.0698737 -0.331864 -0.0472528 0.0716088 -0.312101 -0.0526588 0.0730169 -0.291987 
-0.0576823 0.0740326 -0.271526 -0.0623556 0.0745948 -0.250712 -0.0667271 0.0746553 -0.229525 
-0.0708525 0.0741856 -0.207937 -0.0747846 0.0731838 -0.18592 -0.0785622 0.071678 -0.163456 
-0.0822011 0.0697272 -0.140541 -0.0856877 0.0674188 -0.117193 -0.0889753 0.0648628 -0.0934631 
-0.0919859 0.0621834 -0.0694281 -0.094615 0.0595083 -0.045196 -0.0967408 0.0569571 -0.0208983 
-0.0982361 0.0546308 0.00331742 -0.0989807 0.0526024 0.0272969 -0.0988746 0.0509105 0.0508906 
-0.0978485 0.0495568 0.0739635 -0.0958715 0.0485078 0.0964041 -0.0929546 0.0477003 0.118131 
-0.0891491 0.0470506 0.139094 -0.0845413 0.0464666 0.159276 -0.0792429 0.0458599 0.178687 
-0.0733792 0.0451589 0.197359 -0.0670764 0.0443192 0.215338 -0.06045 0.0433303 0.232677 
-0.0535947 0.0422194 0.249427 -0.0465791 0.0410489 0.265635 -0.0394438 0.0399104 0.28134 
-0.032204 0.0389141 0.296574 -0.0248568 0.0381759 0.311365 -0.0173899 0.037803 0.325745 
-0.00979329 0.0378799 0.339748 -0.00206902 0.0384569 0.353424 0.00575977 0.0395421 0.366836 
0.0136439 0.0410984 0.380062 0.0215073 0.0430449 0.393196 0.0292505 0.0452645 0.406334 
0.0367585 0.047615 0.419575 0.0439116 0.0499435 0.432999 0.0505984 0.0521016 0.446667 
0.0567277 0.053961 0.460602 0.0622399 0.0554258 0.474785 0.0671134 0.0564416 0.489153 
0.0713673 0.0569994 0.503597 0.0750588 0.0571344 0.51797 0.0782755 0.0569199 0.532099 
0.0811233 0.0564562 0.545799 0.0837123 0.0558578 0.558888 0.0861419 0.0552386 0.571209 
0.0884867 0.054698 0.58264 0.0907864 0.0543096 0.593107 0.0930404 0.0541132 0.602592 
0.0952074 0.0541125 0.611128 0.097212 0.0542763 0.618798 0.0989553 0.0545455 0.62572 
0.100331 0.0548432 0.63203 0.10124 0.0550867 0.637869 0.101611 0.055201 0.643359 
0.10141 0.0551296 0.648588 0.100653 0.0548437 0.653605 0.0994087 0.0543469 0.658406 
0.0977941 0.0536755 0.662939 0.0959664 0.0528942 0.667113 0.0941072 0.0520875 0.670806 
0.092404 0.0513488 0.673883 0.0910303 0.050768 0.676218 0.0901261 0.0504194 0.677702 
0.0897827 0.0503518 0.678266 
LINES 2 100
OFFSETS vtktypeint64
0 100 
CONNECTIVITY vtktypeint64
0 1 2 3 4 5 6 7 8 
9 10 11 12 13 14 15 16 17 
18 19 20 21 22 23 24 25 26 
27 28 29 30 31 32 33 34 35 
36 37 38 39 40 41 42 43 44 
45 46 47 48 49 50 51 52 53 
54 55 56 57 58 59 60 61 62 
63 64 65 66 67 68 69 70 71 
72 73 74 75 76 77 78 79 80 
81 82 83 84 85 86 87 88 89 
90 91 92 93 94 95 96 97 98 
99 
POINT_DATA 100
FIELD FieldData 3
_theta 1 100 double
0 0.031733259127 0.063466518254 0.095199777382 0.12693303651 0.15866629564 0.19039955476 0.22213281389 0.25386607302 
0.28559933214 0.31733259127 0.3490658504 0.38079910953 0.41253236865 0.44426562778 0.47599888691 0.50773214603 0.53946540516 
0.57119866429 0.60293192342 0.63466518254 0.66639844167 0.6981317008 0.72986495992 0.76159821905 0.79333147818 0.82506473731 
0.85679799643 0.88853125556 0.92026451469 0.95199777382 0.98373103294 1.0154642921 1.0471975512 1.0789308103 1.1106640695 
1.1423973286 1.1741305877 1.2058638468 1.237597106 1.2693303651 1.3010636242 1.3327968833 1.3645301425 1.3962634016 
1.4279966607 1.4597299198 1.491463179 1.5231964381 1.5549296972 1.5866629564 1.6183962155 1.6501294746 1.6818627337 
1.7135959929 1.745329252 1.7770625111 1.8087957702 1.8405290294 1.8722622885 1.9039955476 1.9357288068 1.9674620659 
1.999195325 2.0309285841 2.0626618433 2.0943951024 2.1261283615 2.1578616206 2.1895948798 2.2213281389 2.253061398 
2.2847946572 2.3165279163 2.3482611754 2.3799944345 2.4117276937 2.4434609528 2.4751942119 2.506927471 2.5386607302 
2.5703939893 2.6021272484 2.6338605076 2.6655937667 2.6973270258 2.7290602849 2.7607935441 2.7925268032 2.8242600623 
2.8559933214 2.8877265806 2.9194598397 2.9511930988 2.982926358 3.0146596171 3.0463928762 3.0781261353 3.1098593945 
3.1415926536 
_radius 1 100 double
4.5776982755e-16 0.013953170132 0.027833515374 0.04156319836 0.055061517426 0.068243748705 0.081020618354 0.093298878505 0.10498328642 
0.11597995596 0.12620070752 0.1355678097 0.14401844113 0.15150830488 0.15801405425 0.16353446146 0.16809048746 0.17172452093 
0.17449902533 0.17649470348 0.17780813158 0.17854870009 0.17883466941 0.17878822897 0.17852966099 0.17817104732 0.17781029451 
0.17752630667 0.17737568707 0.17739064692 0.17757751531 0.177915743 0.17835815647 0.17883373199 0.17925397892 0.17952323898 
0.17955210883 0.17927210749 0.17864898713 0.17769205975 0.17645775274 0.17504707157 0.17359803284 0.17227479845 0.17125521093 
0.17071814869 0.1708317697 0.17174307433 0.17356809339 0.17638102046 0.1802012667 0.18498003064 0.19059053981 0.19682661018 
0.20341244566 0.21002377808 0.21631776205 0.2219672728 0.22669458452 0.23029961011 0.23267867981 0.23383105863 0.23385201115 
0.23291323203 0.23123379246 0.22904700978 0.22656999753 0.22398210287 0.22141557748 0.21895749403 0.21665800338 0.2145383772 
0.2125937141 0.21078918733 0.20905349835 0.20727605033 0.20531311008 0.20300354743 0.20019001848 0.19673954694 0.19255842837 
0.18759869753 0.18185584041 0.17535948208 0.16816014488 0.16031558805 0.15187968246 0.14289556134 0.13339340598 0.12339208051 
0.11290314295 0.10193561703 0.09050029312 0.078613081115 0.06629771247 0.0535884143 0.040532772763 0.027194109545 0.013652031772 
5.1576981187e-16 
_area 1 100 double
0 0.00046205578078 0.0018463244574 0.0041445103338 0.0073346713005 0.011371001697 0.01617326421 0.021618950124 0.027541059707 
0.03373344602 0.03996401439 0.045994049096 0.051600125963 0.05659411912 0.060837200878 0.064245511127 0.066787811505 0.068477914376 
0.069365836649 0.069530906465 0.069078050442 0.068136594546 0.066859968814 0.065424256251 0.064022680536 0.062852425769 0.062092939728 
0.061882921184 0.062299469257 0.06332511235 0.064814042061 0.066564037038 0.068461311783 0.070428467686 0.072485487125 0.074528036078 
0.07633642672 0.077747712651 0.078653853151 0.079015534377 0.078870164515 0.078329879592 0.077572719712 0.076831428504 0.076380234703 
0.076512820248 0.077497742567 0.079518790818 0.082655409024 0.086918220259 0.092286356976 0.098723987929 0.10616463455 0.11445157396 
0.12328494107 0.13223388573 0.14079093133 0.14843364402 0.15469115396 0.15921472513 0.161839606 0.16261996218 0.16182165714 
0.15986547767 0.15722375053 0.15429092315 0.15127975498 0.14820711927 0.14497394382 0.14147006973 0.13764515991 0.13353739803 
0.129271434 0.12502973272 0.12099132587 0.11724402632 0.11372136453 0.110224887 0.10651547452 0.1024038702 0.097796528506 
0.092694772748 0.08716468624 0.081297291889 0.075175453356 0.068857791581 0.062380864835 0.055773267672 0.049072887127 0.042340605445 
0.035667313752 0.029173743438 0.02300369931 0.017311946431 0.01224925228 0.0079482213204 0.0045134367493 0.0020179667802 0.00050611145552 
4.6563825059e-17 
