# vtk DataFile Version 5.1
vtk output
ASCII
DATASET POLYDATA
POINTS 100 float
0.199625 -0.0248603 -0.683459 0.199368 -0.0250522 -0.683432 0.198663 -0.0254232 -0.683374 
0.197509 -0.0259255 -0.683194 0.195908 -0.0264833 -0.682746 0.193858 -0.0269973 -0.681856 
0.191362 -0.0273506 -0.680336 0.188421 -0.0274166 -0.678012 0.185038 -0.0270666 -0.674743 
0.181219 -0.0261794 -0.670434 0.176966 -0.0246501 -0.66505 0.172283 -0.0223985 -0.658611 
0.167171 -0.0193766 -0.65119 0.161631 -0.0155734 -0.642897 0.155659 -0.0110184 -0.633862 
0.149251 -0.00578084 -0.624213 0.142402 3.30954e-05 -0.614058 0.135109 0.00628677 -0.603468 
0.127373 0.0128218 -0.59247 0.119205 0.0194687 -0.581038 0.110623 0.0260588 -0.569104 
0.101662 0.0324355 -0.556564 0.0923664 0.0384645 -0.543295 0.0827976 0.0440419 -0.529174 
0.0730266 0.0490992 -0.514097 0.063132 0.053604 -0.497992 0.0531943 0.0575581 -0.480834 
0.0432903 0.0609911 -0.462645 0.0334865 0.0639525 -0.443492 0.0238341 0.0665011 -0.423483 
0.0143652 0.0686952 -0.402744 0.0050915 0.0705824 -0.381411 -0.00399399 0.0721931 -0.359604 
-0.0129127 0.0735356 -0.337421 -0.0216931 0.074596 -0.314918 -0.0303618 0.0753407 -0.292111 
-0.0389332 0.0757232 -0.268972 -0.0473997 0.0756922 -0.245446 -0.0557233 0.0752022 -0.221456 
-0.0638308 0.0742231 -0.196924 -0.0716115 0.0727486 -0.171792 -0.0789209 0.070802 -0.146033 
-0.0855881 0.0684388 -0.119666 -0.0914273 0.0657446 -0.0927628 -0.0962526 0.0628304 -0.0654486 
-0.0998947 0.0598229 -0.0378921 -0.102216 0.0568547 -0.0102951 -0.103128 0.0540512 0.0171258 
-0.102596 0.0515201 0.0441572 -0.100652 0.0493417 0.0706077 -0.0973869 0.0475623 0.0963226 
-0.092951 0.0461918 0.121194 -0.0875377 0.0452053 0.145167 -0.0813692 0.0445489 0.168232 
-0.0746774 0.044148 0.190424 -0.0676846 0.0439188 0.211803 -0.0605857 0.0437789 0.232446 
-0.0535338 0.0436591 0.252426 -0.0466305 0.0435113 0.271804 -0.0399228 0.0433142 0.290619 
-0.0334055 0.0430751 0.308885 -0.0270298 0.0428272 0.32659 -0.0207163 0.0426243 0.34371 
-0.0143711 0.0425315 0.360213 -0.00790252 0.0426156 0.376075 -0.00123673 0.0429344 0.391289 
0.00566925 0.0435276 0.405878 0.0128195 0.0444099 0.419899 0.0201764 0.0455675 0.43344 
0.0276632 0.046958 0.446616 0.0351716 0.0485139 0.45956 0.0425736 0.0501496 0.472403 
0.0497349 0.0517702 0.485263 0.0565294 0.053281 0.498229 0.0628522 0.0545975 0.511344 
0.0686289 0.0556533 0.524603 0.0738219 0.0564061 0.537951 0.0784312 0.05684 0.551288 
0.0824907 0.0569653 0.56448 0.086061 0.056815 0.577375 0.0892185 0.0564387 0.589823 
0.0920448 0.0558956 0.601697 0.0946147 0.0552465 0.612901 0.0969876 0.0545469 0.623388 
0.0992012 0.0538416 0.63316 0.101269 0.0531608 0.642268 0.103182 0.0525199 0.650798 
0.104914 0.0519206 0.658858 0.106429 0.0513545 0.666559 0.107691 0.0508078 0.673992 
0.108672 0.0502666 0.681214 0.109359 0.0497217 0.688231 0.109761 0.0491718 0.694994 
0.109908 0.0486259 0.701399 0.10985 0.0481027 0.707295 0.109654 0.0476286 0.7125 
0.109391 0.0472346 0.716821 0.109131 0.0469512 0.720076 0.108931 0.0468044 0.722118 
0.108831 0.0468113 0.722849 
LINES 2 100
OFFSETS vtktypeint64
0 100 
CONNECTIVITY vtktypeint64
0 1 2 3 4 5 6 7 8 
9 10 11 12 13 14 15 16 17 
18 19 20 21 22 23 24 25 26 
27 28 29 30 31 32 33 34 35 
36 37 38 39 40 41 42 43 44 
45 46 47 48 49 50 51 52 53 
54 55 56 57 58 59 60 61 62 
63 64 65 66 67 68 69 70 71 
72 73 74 75 76 77 78 79 80 
81 82 83 84 85 86 87 88 89 
90 91 92 93 94 95 96 97 98 
99 
POINT_DATA 100
FIELD FieldData 3
_theta 1 100 double
0 0.031733259127 0.063466518254 0.095199777382 0.12693303651 0.15866629564 0.19039955476 0.22213281389 0.25386607302 
0.28559933214 0.31733259127 0.3490658504 0.38079910953 0.41253236865 0.44426562778 0.47599888691 0.50773214603 0.53946540516 
0.57119866429 0.60293192342 0.63466518254 0.66639844167 0.6981317008 0.72986495992 0.76159821905 0.79333147818 0.82506473731 
0.85679799643 0.88853125556 0.92026451469 0.95199777382 0.98373103294 1.0154642921 1.0471975512 1.0789308103 1.1106640695 
1.1423973286 1.1741305877 1.2058638468 1.237597106 1.2693303651 1.3010636242 1.3327968833 1.3645301425 1.3962634016 
1.4279966607 1.4597299198 1.491463179 1.5231964381 1.5549296972 1.5866629564 1.6183962155 1.6501294746 1.6818627337 
1.7135959929 1.745329252 1.7770625111 1.8087957702 1.8405290294 1.8722622885 1.9039955476 1.9357288068 1.9674620659 
1.999195325 2.0309285841 2.0626618433 2.0943951024 2.1261283615 2.1578616206 2.1895948798 2.2213281389 2.253061398 
2.2847946572 2.3165279163 2.3482611754 2.3799944345 2.4117276937 2.4434609528 2.4751942119 2.506927471 2.5386607302 
2.5703939893 2.6021272484 2.6338605076 2.6655937667 2.6973270258 2.7290602849 2.7607935441 2.7925268032 2.8242600623 
2.8559933214 2.8877265806 2.9194598397 2.9511930988 2.982926358 3.0146596171 3.0463928762 3.0781261353 3.1098593945 
3.1415926536 
_radius 1 100 double
7.4709205252e-16 0.016792072281 0.033380176581 0.049571511297 0.065198102052 0.080124689042 0.094252047747 0.10751552383 0.11987941927 
0.13132861518 0.14185927942 0.1514705614 0.16015881275 0.16791521386 0.17472693702 0.18058133661 0.18547224164 0.18940723874 
0.19241479994 0.19455013501 0.19589869252 0.19657633153 0.19672543005 0.19650667448 0.1960869934 0.19562494665 0.19525562026 
0.19507743189 0.19514302597 0.19545566786 0.19597150749 0.19660715429 0.19725144802 0.19778014801 0.1980723162 0.1980271797 
0.19758004047 0.19671539218 0.19547511871 0.19395988209 0.19232274963 0.1907556059 0.18947048592 0.18867900623 0.1885730164 
0.18930847265 0.19099310595 0.19367765648 0.19735060907 0.2019370429 0.20730264273 0.21326357299 0.21960178834 0.226083981 
0.23248144266 0.23858799749 0.24423371724 0.2492930288 0.25368680414 0.25737893209 0.26036860127 0.26267998013 0.26435110915 
0.26542364389 0.26593468906 0.26591145577 0.26536895608 0.26431050226 0.26273045786 0.26061851897 0.25796476412 0.25476473689 
0.25102385439 0.24676046013 0.24200692077 0.23680836709 0.2312190086 0.22529634496 0.21909397396 0.21265399804 0.20600022742 
0.19913342172 0.19202962754 0.18464220584 0.17690744284 0.16875287483 0.16010686859 0.15090777679 0.14111118651 0.13069430338 
0.11965718629 0.10802118654 0.095825422049 0.083122354904 0.069973510456 0.056446099316 0.042610862719 0.028541002382 0.014311741142 
1.9569359517e-15 
_area 1 100 double
0 0.00068441717116 0.0027118914801 0.0060068390401 0.010448769239 0.015879416492 0.022110940655 0.028934203073 0.036126613437 
0.043459644426 0.050706571401 0.057651073463 0.064096907254 0.069878043976 0.07486780732 0.07898515071 0.08219661425 0.084513660907 
0.085986502603 0.086696465325 0.086748926054 0.086268009072 0.085393255115 0.084278142242 0.083090697034 0.082014780759 0.08123609138 
0.080893210573 0.081051066942 0.081714297397 0.082831464929 0.084297558753 0.085967756484 0.087678512357 0.089269579324 0.09060390539 
0.091585181504 0.092174564293 0.092404509988 0.092381640646 0.092271476965 0.092266432424 0.092550804585 0.093288944924 0.094692050562 
0.096934807175 0.099871030776 0.10352550966 0.10799926956 0.11341627205 0.11988006909 0.12741582189 0.13591896239 0.14514181909 
0.15472490872 0.16425421048 0.17332342686 0.18158706823 0.18879584583 0.19480976799 0.19958567435 0.20313795151 0.20548877759 
0.20664564891 0.2066127702 0.20540418941 0.20304676188 0.19958369982 0.19508575894 0.18966627809 0.18349021993 0.17676699057 
0.16972001014 0.16253549266 0.15531544352 0.14807503988 0.14078810526 0.13343683148 0.12603365584 0.11861689617 0.11123338702 
0.1039187926 0.096682384108 0.089501044559 0.082325523716 0.075098011455 0.06777493142 0.060346768822 0.052849183779 0.045363809131 
0.03801033395 0.030933139146 0.024286156945 0.018219081327 0.012866917666 0.0083435816407 0.0047392381583 0.0021204775782 0.00053219231564 
6.9550939005e-17 
