# vtk DataFile Version 5.1
vtk output
ASCII
DATASET POLYDATA
POINTS 100 float
0.19123 0.0465303 0.70884 0.191182 0.0466603 0.708732 0.191132 0.0469004 0.708274 
0.191028 0.0472507 0.707461 0.190786 0.0477114 0.706279 0.19031 0.0482814 0.704707 
0.189502 0.0489565 0.70271 0.188277 0.0497277 0.70024 0.186575 0.05058 0.697232 
0.184373 0.0514912 0.693607 0.18168 0.0524317 0.689279 0.178541 0.0533641 0.684159 
0.175028 0.0542454 0.678161 0.171222 0.0550278 0.67122 0.167203 0.0556616 0.663292 
0.163035 0.0560978 0.65437 0.158747 0.0562915 0.644483 0.154333 0.0562042 0.633701 
0.149743 0.0558071 0.622128 0.144889 0.0550829 0.609902 0.139656 0.0540272 0.597176 
0.133916 0.0526498 0.584109 0.127545 0.0509743 0.570851 0.120447 0.0490376 0.557526 
0.112563 0.0468886 0.544224 0.10389 0.0445864 0.530988 0.0944851 0.0421982 0.517815 
0.0844602 0.0397966 0.504651 0.0739775 0.037457 0.491405 0.0632316 0.035255 0.477953 
0.0524292 0.0332635 0.464154 0.0417671 0.0315502 0.449867 0.0314105 0.0301751 0.434962 
0.0214755 0.0291879 0.419332 0.0120173 0.0286266 0.402907 0.00302731 0.0285151 0.38565 
-0.0055622 0.0288629 0.367564 -0.0138648 0.0296638 0.348682 -0.02202 0.030897 0.32906 
-0.03017 0.032527 0.308767 -0.0384345 0.0345064 0.287875 -0.0468881 0.0367775 0.266443 
-0.0555435 0.0392762 0.244517 -0.0643409 0.0419353 0.222122 -0.0731479 0.044688 0.19926 
-0.0817672 0.0474724 0.175919 -0.0899539 0.0502342 0.152075 -0.0974384 0.0529294 0.127705 
-0.103953 0.0555264 0.102794 -0.109259 0.0580059 0.0773465 -0.113171 0.0603603 0.0513917 
-0.115577 0.0625921 0.0249887 -0.116446 0.0647105 -0.00177421 -0.115831 0.0667279 -0.0287831 
-0.113862 0.0686558 -0.0559058 -0.110729 0.0705008 -0.0830007 -0.106659 0.0722611 -0.109928 
-0.101895 0.0739238 -0.136558 -0.0966644 0.0754637 -0.162783 -0.0911626 0.0768431 -0.188517 
-0.0855321 0.0780129 -0.213704 -0.0798538 0.0789157 -0.238314 -0.0741456 0.0794889 -0.262337 
-0.0683684 0.0796695 -0.285778 -0.0624393 0.0793987 -0.30865 -0.0562501 0.0786257 -0.330964 
-0.0496877 0.0773125 -0.352728 -0.0426545 0.0754358 -0.373935 -0.0350863 0.072989 -0.394571 
-0.0269649 0.0699828 -0.41461 -0.0183252 0.0664441 -0.434024 -0.00925521 0.0624139 -0.452785 
0.000110189 0.0579447 -0.470876 0.00960076 0.0530974 -0.488291 0.0190259 0.0479379 -0.505046 
0.0281915 0.0425341 -0.521172 0.0369158 0.0369533 -0.536719 0.0450436 0.0312603 -0.551744 
0.0524562 0.0255163 -0.566307 0.0590774 0.0197784 -0.580459 0.0648738 0.0140999 -0.594229 
0.0698521 0.00853024 -0.607619 0.0740518 0.00311588 -0.620596 0.0775368 -0.00209947 -0.633092 
0.0803855 -0.00707476 -0.645004 0.0826815 -0.011772 -0.656207 0.0845069 -0.0161571 -0.666561 
0.0859363 -0.0202007 -0.67593 0.0870341 -0.02388 -0.684197 0.0878547 -0.0271794 -0.691278 
0.0884428 -0.0300921 -0.697135 0.0888368 -0.0326199 -0.701785 0.0890708 -0.0347735 -0.7053 
0.0891774 -0.0365714 -0.707802 0.0891886 -0.0380378 -0.709454 0.0891365 -0.0392006 -0.710442 
0.0890518 -0.0400886 -0.710958 0.0889624 -0.0407281 -0.711177 0.0888908 -0.0411405 -0.711242 
0.0888521 -0.0413398 -0.711246 
LINES 2 100
OFFSETS vtktypeint64
0 100 
CONNECTIVITY vtktypeint64
0 1 2 3 4 5 6 7 8 
9 10 11 12 13 14 15 16 17 
18 19 20 21 22 23 24 25 26 
27 28 29 30 31 32 33 34 35 
36 37 38 39 40 41 42 43 44 
45 46 47 48 49 50 51 52 53 
54 55 56 57 58 59 60 61 62 
63 64 65 66 67 68 69 70 71 
72 73 74 75 76 77 78 79 80 
81 82 83 84 85 86 87 88 89 
90 91 92 93 94 95 96 97 98 
99 
POINT_DATA 100
FIELD FieldData 3
_theta 1 100 double
0 0.031733259127 0.063466518254 0.095199777382 0.12693303651 0.15866629564 0.19039955476 0.22213281389 0.25386607302 
0.28559933214 0.31733259127 0.3490658504 0.38079910953 0.41253236865 0.44426562778 0.47599888691 0.50773214603 0.53946540516 
0.57119866429 0.60293192342 0.63466518254 0.66639844167 0.6981317008 0.72986495992 0.76159821905 0.79333147818 0.82506473731 
0.85679799643 0.88853125556 0.92026451469 0.95199777382 0.98373103294 1.0154642921 1.0471975512 1.0789308103 1.1106640695 
1.1423973286 1.1741305877 1.2058638468 1.237597106 1.2693303651 1.3010636242 1.3327968833 1.3645301425 1.3962634016 
1.4279966607 1.4597299198 1.491463179 1.5231964381 1.5549296972 1.5866629564 1.6183962155 1.6501294746 1.6818627337 
1.7135959929 1.745329252 1.7770625111 1.8087957702 1.8405290294 1.8722622885 1.9039955476 1.9357288068 1.9674620659 
1.999195325 2.0309285841 2.0626618433 2.0943951024 2.1261283615 2.1578616206 2.1895948798 2.2213281389 2.253061398 
2.2847946572 2.3165279163 2.3482611754 2.3799944345 2.4117276937 2.4434609528 2.4751942119 2.506927471 2.5386607302 
2.5703939893 2.6021272484 2.6338605076 2.6655937667 2.6973270258 2.7290602849 2.7607935441 2.7925268032 2.8242600623 
2.8559933214 2.8877265806 2.9194598397 2.9511930988 2.982926358 3.0146596171 3.0463928762 3.0781261353 3.1098593945 
3.1415926536 
_radius 1 100 double
3.4583269011e-16 0.0164010195 0.032710885187 0.048835598203 0.064684398971 0.080171148414 0.095215150553 0.1097413875 0.12368019654 
0.13696648569 0.14953871512 0.16133806584 0.1723083784 0.18239743379 0.19155988239 0.19976165477 0.20698517526 0.21323434246 
0.21853817825 0.22295230305 0.22655787336 0.22945812872 0.23177304747 0.23363270915 0.23516984932 0.23651189276 0.23777259536 
0.23904343335 0.24038514088 0.24182030025 0.2433284414 0.24484536995 0.24626809598 0.24746569121 0.24829492661 0.24861818854 
0.24832050342 0.24732278776 0.24558952196 0.24313047913 0.23999745162 0.23627776893 0.23208660834 0.22755961871 0.22284636581 
0.21810398513 0.21348979996 0.20915200498 0.20521881711 0.20178812759 0.19892063701 0.19663891884 0.19493288976 0.19376977796 
0.19310515566 0.19289162307 0.19308310392 0.19363470278 0.19449986006 0.19562743322 0.1969609081 0.1984403307 0.20000566266 
0.2015993748 0.20316683935 0.20465494081 0.20601095006 0.20718379886 0.20812831538 0.20881103252 0.20921520781 0.20934289145 
0.20921273258 0.20885332025 0.20829302566 0.20754834275 0.20661331481 0.20545249583 0.20399897141 0.20215759531 0.19981238563 
0.1968364267 0.19310266996 0.18849441799 0.18291467324 0.17629376402 0.16859473838 0.1598160616 0.1499912901 0.13918568451 
0.1274901351 0.11501319404 0.10187231278 0.088185473325 0.074064259951 0.0596090915 0.044906916972 0.030031269889 0.015044269202 
5.911300294e-16 
_area 1 100 double
0 0.0006107734457 0.0024322943533 0.0054327531882 0.0095608488118 0.014747604947 0.020907700866 0.027939683062 0.03572489706 
0.044125705394 0.052984329479 0.062124077397 0.07135437082 0.080479794752 0.089311926642 0.097681842216 0.10545139302 0.11252218325 
0.11884180769 0.12440697115 0.12926287183 0.13349814839 0.13723517212 0.14061679162 0.14379215937 0.14690390266 0.1500755262 
0.15339560507 0.15690021587 0.16056259834 0.16429617091 0.16796627475 0.17140239387 0.1744080678 0.17677180953 0.17828355156 
0.17875728961 0.17805579501 0.17611184381 0.17294216054 0.16865225685 0.16343120508 0.15753584338 0.15126481467 0.14492437357 
0.13879017061 0.13307204047 0.12789054415 0.12327251096 0.11916768779 0.11548146983 0.11211309579 0.10898850143 0.10608159276 
0.10342221825 0.10109078608 0.099198370961 0.097846767158 0.097067552397 0.096782984995 0.096841354102 0.097086847137 0.097403745589 
0.097724538285 0.098011706135 0.098231316263 0.098335535798 0.098269711846 0.098004666375 0.097561648974 0.097012979717 0.096465480262 
0.096032157649 0.095798074064 0.095799850787 0.096022004383 0.096397885836 0.096812349469 0.097108876588 0.097101509805 0.096590119545 
0.095377729497 0.093289161021 0.09019011642 0.086005074246 0.080731449929 0.07444693682 0.067307409091 0.059534499108 0.051394490945 
0.043172497925 0.035147043106 0.027569700029 0.020652655307 0.014564699917 0.0094340468043 0.0053550138717 0.0023952658177 0.00060110763894 
6.7674845305e-17 
