# vtk DataFile Version 5.1
vtk output
ASCII
DATASET POLYDATA
POINTS 100 float
0.122795 0.0364774 0.649135 0.122859 0.0367511 0.649064 0.123073 0.0374171 0.6487 
0.123386 0.038433 0.648018 0.123722 0.0397338 0.646977 0.123986 0.0412376 0.645525 
0.124078 0.0428537 0.643596 0.123899 0.0444901 0.641119 0.123366 0.0460612 0.638021 
0.122418 0.0474939 0.634227 0.121019 0.0487316 0.629676 0.119163 0.0497357 0.624315 
0.116865 0.0504852 0.618114 0.11416 0.0509733 0.611065 0.111091 0.0512037 0.603184 
0.107702 0.0511853 0.594516 0.10403 0.050928 0.585131 0.100095 0.0504382 0.57512 
0.0959005 0.0497176 0.564589 0.0914309 0.0487624 0.55365 0.0866555 0.0475657 0.542416 
0.0815349 0.0461208 0.530988 0.0760293 0.0444261 0.519448 0.0701075 0.0424901 0.507857 
0.0637551 0.0403358 0.496243 0.0569809 0.0380043 0.484608 0.0498195 0.0355554 0.472925 
0.0423311 0.0330671 0.461144 0.0345964 0.0306312 0.4492 0.0267089 0.0283479 0.437019 
0.0187648 0.0263183 0.42453 0.0108515 0.0246363 0.411665 0.00303744 0.0233807 0.398374 
-0.00463611 0.0226083 0.38462 -0.0121599 0.0223496 0.370386 -0.0195569 0.0226067 0.355668 
-0.0268777 0.0233542 0.34047 -0.0341918 0.024543 0.324804 -0.0415757 0.0261062 0.308676 
-0.0490986 0.027967 0.292085 -0.0568081 0.030047 0.275017 -0.0647179 0.0322739 0.257443 
-0.072799 0.0345886 0.239323 -0.0809747 0.0369494 0.220604 -0.0891223 0.039334 0.201236 
-0.0970792 0.041739 0.18117 -0.104655 0.0441764 0.160376 -0.111647 0.0466685 0.138845 
-0.117855 0.0492411 0.116599 -0.123104 0.0519171 0.0936923 -0.127254 0.0547099 0.0702137 
-0.130215 0.0576185 0.0462799 -0.131952 0.060625 0.0220295 -0.132488 0.0636935 -0.00238757 
-0.131898 0.0667719 -0.0268215 -0.1303 0.0697954 -0.0511346 -0.12784 0.0726915 -0.0752119 
-0.12468 0.0753854 -0.0989683 -0.120978 0.0778061 -0.122353 -0.116875 0.0798905 -0.145349 
-0.112486 0.0815871 -0.167968 -0.107889 0.0828581 -0.190245 -0.103125 0.0836791 -0.212223 
-0.0981987 0.0840376 -0.233944 -0.0930872 0.083931 -0.25544 -0.0877485 0.0833628 -0.276719 
-0.0821328 0.0823404 -0.297761 -0.0761947 0.080872 -0.318517 -0.0699034 0.0789657 -0.338912 
-0.0632506 0.0766291 -0.358849 -0.0562557 0.0738708 -0.378223 -0.0489669 0.0707021 -0.396928 
-0.0414589 0.0671402 -0.414873 -0.0338279 0.0632105 -0.431991 -0.0261845 0.0589494 -0.448246 
-0.0186453 0.054405 -0.463639 -0.0113251 0.0496372 -0.478203 -0.00432937 0.0447158 -0.492 
0.00225106 0.0397174 -0.505113 0.00834348 0.0347207 -0.51763 0.0138947 0.0298021 -0.529635 
0.0188703 0.0250298 -0.541192 0.023253 0.0204601 -0.552337 0.0270395 0.0161337 -0.563074 
0.0302381 0.0120748 -0.573368 0.0328657 0.0082908 -0.583156 0.0349466 0.00477527 -0.592348 
0.0365113 0.00151127 -0.600845 0.0375969 -0.0015235 -0.608547 0.0382474 -0.00435148 -0.615371 
0.038515 -0.00699031 -0.621262 0.0384599 -0.00944886 -0.626201 0.0381504 -0.0117248 -0.630207 
0.0376611 -0.0138039 -0.633342 0.0370705 -0.0156615 -0.635698 0.0364569 -0.0172654 -0.637389 
0.0358943 -0.0185798 -0.638538 0.0354466 -0.0195705 -0.639262 0.0351636 -0.0202092 -0.639655 
0.0350769 -0.0204777 -0.639779 
LINES 2 100
OFFSETS vtktypeint64
0 100 
CONNECTIVITY vtktypeint64
0 1 2 3 4 5 6 7 8 
9 10 11 12 13 14 15 16 17 
18 19 20 21 22 23 24 25 26 
27 28 29 30 31 32 33 34 35 
36 37 38 39 40 41 42 43 44 
45 46 47 48 49 50 51 52 53 
54 55 56 57 58 59 60 61 62 
63 64 65 66 67 68 69 70 71 
72 73 74 75 76 77 78 79 80 
81 82 83 84 85 86 87 88 89 
90 91 92 93 94 95 96 97 98 
99 
POINT_DATA 100
FIELD FieldData 3
_theta 1 100 double
0 0.031733259127 0.063466518254 0.095199777382 0.12693303651 0.15866629564 0.19039955476 0.22213281389 0.25386607302 
0.28559933214 0.31733259127 0.3490658504 0.38079910953 0.41253236865 0.44426562778 0.47599888691 0.50773214603 0.53946540516 
0.57119866429 0.60293192342 0.63466518254 0.66639844167 0.6981317008 0.72986495992 0.76159821905 0.79333147818 0.82506473731 
0.85679799643 0.88853125556 0.92026451469 0.95199777382 0.98373103294 1.0154642921 1.0471975512 1.0789308103 1.1106640695 
1.1423973286 1.1741305877 1.2058638468 1.237597106 1.2693303651 1.3010636242 1.3327968833 1.3645301425 1.3962634016 
1.4279966607 1.4597299198 1.491463179 1.5231964381 1.5549296972 1.5866629564 1.6183962155 1.6501294746 1.6818627337 
1.7135959929 1.745329252 1.7770625111 1.8087957702 1.8405290294 1.8722622885 1.9039955476 1.9357288068 1.9674620659 
1.999195325 2.0309285841 2.0626618433 2.0943951024 2.1261283615 2.1578616206 2.1895948798 2.2213281389 2.253061398 
2.2847946572 2.3165279163 2.3482611754 2.3799944345 2.4117276937 2.4434609528 2.4751942119 2.506927471 2.5386607302 
2.5703939893 2.6021272484 2.6338605076 2.6655937667 2.6973270258 2.7290602849 2.7607935441 2.7925268032 2.8242600623 
2.8559933214 2.8877265806 2.9194598397 2.9511930988 2.982926358 3.0146596171 3.0463928762 3.0781261353 3.1098593945 
3.1415926536 
_radius 1 100 double
1.3399253869e-15 0.014238013576 0.028348431852 0.042205471036 0.055699304858 0.068742156644 0.081271799257 0.093251983688 0.1046696994 
0.11552965264 0.1258468665 0.13563871836 0.14491788084 0.15368744806 0.1619390687 0.16965431297 0.17680889966 0.18337887484 
0.18934743429 0.1947109487 0.19948301064 0.20369592445 0.20739971115 0.21065905021 0.21354850144 0.21614605791 0.21852497961 
0.22074423945 0.22283868859 0.22481077069 0.22662580401 0.2282123475 0.2294681844 0.23027135932 0.23049479219 0.2300224411 
0.22876486005 0.22667225268 0.22374363021 0.22003128193 0.21564032219 0.21072350485 0.20547177161 0.20010116137 0.19483684252 
0.18989524574 0.18546566758 0.18169330824 0.17866635734 0.1764099931 0.1748893241 0.17402105022 0.17369072916 0.17377073877 
0.17413460278 0.17466589903 0.17526270857 0.17583981826 0.17633037811 0.17668750011 0.17688549585 0.17692027966 0.17680848191 
0.17658480905 0.17629733365 0.17600085363 0.17574907308 0.17558682618 0.1755436756 0.17562993649 0.17583562073 0.17613212796 
0.17647588451 0.1768127035 0.17708155969 0.17721682057 0.17714867032 0.17680226168 0.17609671468 0.17494520786 0.17325701738 
0.170941608 0.1679140881 0.16410085259 0.15944423627 0.15390541602 0.14746538721 0.14012434158 0.13190004352 0.12282581347 
0.11294854601 0.1023269192 0.091029709373 0.079134001415 0.066723115864 0.053884232493 0.040705907849 0.027275877624 0.013679614397 
8.7106960523e-16 
_area 1 100 double
0 0.0005448286545 0.0021594485983 0.0047862035837 0.0083352245751 0.012692945484 0.017732489269 0.023324509131 0.02934675926 
0.035690664936 0.042263818771 0.048988528509 0.055797567224 0.062628654591 0.069419220498 0.07610307964 0.082610642646 0.088873610973 
0.094833301034 0.10044944738 0.10570549722 0.11060862903 0.11518668048 0.11948563382 0.123567728 0.1275047671 0.1313603475 
0.13516285594 0.1388831455 0.14243158918 0.14567432766 0.14845595529 0.1506178232 0.15200945917 0.15249493057 0.15195498725 
0.15029390646 0.14746479834 0.14350401105 0.13855256076 0.13285247371 0.12671823662 0.12048771282 0.11446611628 0.10888520069 
0.10389320075 0.099569748445 0.095946772485 0.093022032357 0.09076243961 0.089100013244 0.087930271865 0.087126208625 0.086561841388 
0.086124773932 0.085715093639 0.085241237139 0.084619338501 0.083781769246 0.082697323126 0.081390472138 0.079942526276 0.078471271424 
0.077098458124 0.075918469094 0.074982082663 0.074301336558 0.073873680314 0.073701351501 0.073768156372 0.073998228978 0.074354438443 
0.074830032886 0.075340970946 0.075863296862 0.07635907365 0.076774786773 0.077038644243 0.077059660101 0.076728304224 0.075921970697 
0.074520512083 0.072426912325 0.069582890614 0.06597597551 0.06163994653 0.05665114697 0.051122411148 0.045195812157 0.039035151654 
0.032818610984 0.026731174553 0.020955931202 0.015663814484 0.011002692755 0.0070881495394 0.0039988472589 0.0017785258021 0.0004445355651 
1.6142292305e-17 
