# vtk DataFile Version 5.1
vtk output
ASCII
DATASET POLYDATA
POINTS 100 float
0.0999209 0.0356912 0.664852 0.100185 0.0359373 0.664753 0.10104 0.0365185 0.664316 
0.102391 0.0373962 0.663529 0.104091 0.0385115 0.66237 0.105958 0.0397917 0.660808 
0.107793 0.0411572 0.658797 0.109403 0.0425296 0.656281 0.11062 0.0438389 0.653188 
0.111314 0.0450291 0.649437 0.111405 0.0460623 0.644943 0.110863 0.0469195 0.63962 
0.109708 0.0475998 0.633391 0.107994 0.0481165 0.626196 0.1058 0.0484924 0.618 
0.103211 0.0487532 0.608799 0.100302 0.048922 0.598626 0.0971281 0.049014 0.587549 
0.0937105 0.0490327 0.57567 0.0900388 0.0489685 0.56312 0.0860719 0.0487999 0.550048 
0.0817471 0.0484959 0.536612 0.0769925 0.0480211 0.522963 0.0717414 0.0473416 0.509237 
0.0659461 0.0464312 0.495545 0.0595893 0.045277 0.481964 0.0526904 0.0438842 0.468532 
0.0453068 0.0422786 0.455253 0.0375287 0.0405069 0.442097 0.0294686 0.0386348 0.429006 
0.0212474 0.0367434 0.41591 0.0129776 0.034923 0.402726 0.00474803 0.0332668 0.389379 
-0.00338894 0.0318643 0.375799 -0.0114249 0.0307941 0.361933 -0.0193965 0.0301194 0.347744 
-0.0273794 0.0298838 0.333209 -0.035476 0.0301093 0.318316 -0.0437975 0.0307966 0.303055 
-0.052443 0.0319266 0.287417 -0.0614789 0.0334631 0.271382 -0.0709202 0.0353567 0.254918 
-0.0807171 0.037549 0.237977 -0.0907489 0.0399763 0.220501 -0.100826 0.0425733 0.202421 
-0.110702 0.0452753 0.183668 -0.120089 0.0480211 0.164183 -0.128683 0.0507534 0.143926 
-0.136192 0.0534198 0.122884 -0.142361 0.0559735 0.101078 -0.146997 0.0583734 0.07857 
-0.149983 0.0605851 0.0554573 -0.151293 0.0625809 0.0318716 -0.150988 0.0643416 0.0079688 
-0.149212 0.0658569 -0.0160824 -0.146171 0.0671264 -0.0401133 -0.142114 0.06816 -0.0639689 
-0.137308 0.0689769 -0.0875188 -0.132008 0.0696049 -0.110667 -0.126438 0.070077 -0.133354 
-0.120772 0.0704289 -0.155561 -0.115118 0.0706943 -0.177301 -0.109522 0.0709005 -0.198615 
-0.103968 0.0710647 -0.219556 -0.0983872 0.0711901 -0.240179 -0.0926809 0.0712641 -0.260533 
-0.0867344 0.0712579 -0.280643 -0.0804391 0.0711281 -0.30051 -0.0737099 0.0708199 -0.320106 
-0.0664988 0.070272 -0.339374 -0.058804 0.0694232 -0.358238 -0.0506722 0.0682184 -0.376605 
-0.0421953 0.0666155 -0.394383 -0.0335024 0.0645901 -0.411484 -0.0247482 0.0621395 -0.427842 
-0.0160993 0.0592834 -0.443412 -0.00772052 0.0560638 -0.458179 0.000237383 0.0525407 -0.472156 
0.00764707 0.0487876 -0.485379 0.0144107 0.0448841 -0.4979 0.0204625 0.0409098 -0.50978 
0.0257673 0.0369365 -0.521075 0.0303175 0.0330234 -0.53183 0.0341278 0.0292134 -0.542072 
0.0372289 0.0255313 -0.551802 0.039663 0.0219852 -0.561001 0.0414791 0.0185697 -0.569628 
0.0427304 0.0152714 -0.577629 0.0434736 0.0120743 -0.584946 0.0437687 0.00896696 -0.591525 
0.0436804 0.00594763 -0.597327 0.043279 0.00302855 -0.602331 0.0426407 0.000237938 -0.606544 
0.0418473 -0.00238035 -0.609997 0.0409838 -0.0047696 -0.612743 0.0401347 -0.0068651 -0.61485 
0.0393797 -0.00860038 -0.616395 0.0387884 -0.00991412 -0.617449 0.0384146 -0.0107568 -0.618072 
0.0382928 -0.0110959 -0.6183 
LINES 2 100
OFFSETS vtktypeint64
0 100 
CONNECTIVITY vtktypeint64
0 1 2 3 4 5 6 7 8 
9 10 11 12 13 14 15 16 17 
18 19 20 21 22 23 24 25 26 
27 28 29 30 31 32 33 34 35 
36 37 38 39 40 41 42 43 44 
45 46 47 48 49 50 51 52 53 
54 55 56 57 58 59 60 61 62 
63 64 65 66 67 68 69 70 71 
72 73 74 75 76 77 78 79 80 
81 82 83 84 85 86 87 88 89 
90 91 92 93 94 95 96 97 98 
99 
POINT_DATA 100
FIELD FieldData 3
_theta 1 100 double
0 0.031733259127 0.063466518254 0.095199777382 0.12693303651 0.15866629564 0.19039955476 0.22213281389 0.25386607302 
0.28559933214 0.31733259127 0.3490658504 0.38079910953 0.41253236865 0.44426562778 0.47599888691 0.50773214603 0.53946540516 
0.57119866429 0.60293192342 0.63466518254 0.66639844167 0.6981317008 0.72986495992 0.76159821905 0.79333147818 0.82506473731 
0.85679799643 0.88853125556 0.92026451469 0.95199777382 0.98373103294 1.0154642921 1.0471975512 1.0789308103 1.1106640695 
1.1423973286 1.1741305877 1.2058638468 1.237597106 1.2693303651 1.3010636242 1.3327968833 1.3645301425 1.3962634016 
1.4279966607 1.4597299198 1.491463179 1.5231964381 1.5549296972 1.5866629564 1.6183962155 1.6501294746 1.6818627337 
1.7135959929 1.745329252 1.7770625111 1.8087957702 1.8405290294 1.8722622885 1.9039955476 1.9357288068 1.9674620659 
1.999195325 2.0309285841 2.0626618433 2.0943951024 2.1261283615 2.1578616206 2.1895948798 2.2213281389 2.253061398 
2.2847946572 2.3165279163 2.3482611754 2.3799944345 2.4117276937 2.4434609528 2.4751942119 2.506927471 2.5386607302 
2.5703939893 2.6021272484 2.6338605076 2.6655937667 2.6973270258 2.7290602849 2.7607935441 2.7925268032 2.8242600623 
2.8559933214 2.8877265806 2.9194598397 2.9511930988 2.982926358 3.0146596171 3.0463928762 3.0781261353 3.1098593945 
3.1415926536 
_radius 1 100 double
1.5281328665e-16 0.014342002872 0.028582519157 0.042620394086 0.056359082738 0.069707453347 0.082579480584 0.09489345048 0.1065715421 
0.11754052971 0.12773393804 0.13709548344 0.14558325401 0.15317392846 0.15986636738 0.16568400402 0.17067550571 0.17491317718 
0.17848868436 0.18150611618 0.18407322939 0.18629254781 0.18825417012 0.19003151251 0.19168025772 0.19323995394 0.19473710606 
0.19618827628 0.1976017999 0.19897731625 0.20030330426 0.20155384829 0.20268643973 0.20364236768 0.20435027109 0.20473235312 
0.20471225593 0.20422369738 0.20321914252 0.20167767701 0.19961110452 0.19706739541 0.19413084218 0.1909183768 0.18757154772 
0.18424402282 0.18108555139 0.17822502969 0.17575683315 0.17373450472 0.17217351765 0.17106124404 0.17036949508 0.17006434937 
0.1701096041 0.17046349457 0.17107193931 0.17186343411 0.17274955632 0.1736317984 0.17441254647 0.17500698521 0.17535323164 
0.17541902695 0.17520422524 0.17473903983 0.17407861947 0.17329498818 0.17246757801 0.17167351188 0.17097860881 0.17042992379 
0.17005046218 0.16983639874 0.16975666386 0.16975429827 0.16974874333 0.16963836554 0.16930301385 0.16860712669 0.16740450513 
0.16554591759 0.16288995544 0.1593162289 0.15473867826 0.14911608053 0.14245703681 0.13481775424 0.12629249919 0.11699830342 
0.10705694247 0.096578044835 0.085647211514 0.074322059179 0.062637103488 0.050615757739 0.038285373814 0.025690254675 0.012898398624 
7.8703445633e-16 
_area 1 100 double
0 0.00046212156091 0.0018432195041 0.0041260651686 0.0072773976828 0.011242004031 0.015936484419 0.02124488977 0.027018549132 
0.033081654335 0.039242585326 0.045309145009 0.051104756348 0.05648293553 0.06133880209 0.065617867628 0.069322595187 0.07251611897 
0.07532088607 0.077900829641 0.080389587232 0.082827763537 0.085215190239 0.087557448929 0.089876968076 0.092212708949 0.094610707704 
0.097105911904 0.099703728099 0.10237350482 0.10505726395 0.10768529442 0.11018857145 0.11250335184 0.11456339976 0.11627315088 
0.11750600233 0.11813214562 0.11804883445 0.11719743135 0.11557382427 0.11323841441 0.11031595252 0.10698559656 0.10346219678 
0.099972276795 0.09672780118 0.093896100803 0.091563086857 0.089708638315 0.088228683266 0.08698946156 0.085869813851 0.084781589905 
0.083683484022 0.082587759658 0.081537174928 0.080556341253 0.079617264874 0.078646693615 0.077560585627 0.076295967801 0.074826346092 
0.073162608472 0.071347555847 0.069450825232 0.067564145819 0.065791289771 0.064231091735 0.062968783638 0.062098568514 0.06156817279 
0.061319511743 0.06133296604 0.061615474533 0.062208614898 0.06309628081 0.064171327645 0.065300123831 0.066301196343 0.066953278224 
0.06701794409 0.066273609835 0.064553797127 0.061779556961 0.057976984809 0.053275230366 0.047885839689 0.042068828086 0.036093749588 
0.030204367664 0.024593697804 0.019393995745 0.014684246762 0.010513476764 0.0069301559061 0.0040020380732 0.0018159389978 0.00046004171497 
2.0324284901e-17 
