# vtk DataFile Version 5.1
vtk output
ASCII
DATASET POLYDATA
POINTS 100 float
0.134708 0.0417868 0.655915 0.13486 0.0417391 0.65567 0.135231 0.0417358 0.655058 
0.135776 0.0417775 0.654047 0.136422 0.0418649 0.652586 0.13708 0.0419995 0.650607 
0.137651 0.0421853 0.648036 0.138035 0.0424282 0.644796 0.138142 0.0427371 0.640817 
0.137899 0.0431225 0.636041 0.13725 0.0435952 0.630433 0.136164 0.0441638 0.623979 
0.134629 0.0448318 0.616693 0.13265 0.0455948 0.608617 0.130243 0.0464383 0.599818 
0.127428 0.0473355 0.590386 0.124224 0.0482474 0.580424 0.120644 0.049124 0.570044 
0.11669 0.0499068 0.559355 0.112353 0.0505336 0.548458 0.107618 0.0509435 0.537437 
0.102465 0.0510829 0.526352 0.0968755 0.0509111 0.515236 0.0908414 0.0504053 0.504094 
0.0843696 0.0495636 0.492903 0.0774875 0.0484063 0.481615 0.0702456 0.0469752 0.470167 
0.0627172 0.0453304 0.45848 0.0549951 0.0435455 0.446476 0.0471854 0.0417014 0.434079 
0.0393987 0.03988 0.421222 0.0317407 0.0381577 0.407856 0.024302 0.0366005 0.393947 
0.0171499 0.0352602 0.379482 0.010322 0.0341731 0.36446 0.00382335 0.033361 0.348894 
-0.00237244 0.0328328 0.332806 -0.00831856 0.0325892 0.316215 -0.0140866 0.0326266 0.299142 
-0.0197559 0.0329416 0.281596 -0.0254011 0.0335338 0.26358 -0.0310804 0.0344078 0.245085 
-0.0368247 0.0355727 0.226098 -0.04263 0.0370395 0.2066 -0.0484535 0.0388175 0.186574 
-0.0542136 0.0409086 0.166014 -0.0597952 0.0433019 0.144923 -0.0650578 0.0459694 0.123324 
-0.0698475 0.0488618 0.10126 -0.0740101 0.0519086 0.0787915 -0.0774049 0.0550195 0.0559974 
-0.0799171 0.058089 0.0329681 -0.0814674 0.0610045 0.00979949 -0.0820184 0.0636544 -0.0134147 
-0.0815769 0.0659391 -0.0365908 -0.0801909 0.0677795 -0.0596612 -0.0779442 0.0691252 -0.0825792 
-0.0749463 0.0699594 -0.10532 -0.0713215 0.0703002 -0.127882 -0.0671963 0.0701977 -0.150278 
-0.0626879 0.069728 -0.172533 -0.0578949 0.068983 -0.194674 -0.0528902 0.0680591 -0.216718 
-0.0477178 0.0670442 -0.238671 -0.042393 0.0660065 -0.260512 -0.0369069 0.0649848 -0.282198 
-0.0312322 0.0639826 -0.303658 -0.0253328 0.062967 -0.324796 -0.0191726 0.0618714 -0.345504 
-0.0127258 0.0606033 -0.365664 -0.0059839 0.0590554 -0.385161 0.00103739 0.0571188 -0.403898 
0.00829549 0.0546974 -0.421802 0.0157205 0.0517206 -0.438832 0.0232178 0.0481535 -0.454984 
0.0306736 0.044004 -0.47029 0.0379617 0.0393242 -0.484813 0.0449518 0.0342073 -0.49864 
0.0515184 0.0287806 -0.51187 0.0575485 0.0231935 -0.524599 0.0629487 0.0176047 -0.536911 
0.0676505 0.0121681 -0.548864 0.071613 0.00701954 -0.560483 0.0748241 0.00226636 -0.571756 
0.0772997 -0.00201934 -0.582634 0.0790804 -0.00580341 -0.593036 0.0802279 -0.00908791 -0.602861 
0.0808195 -0.0119054 -0.611995 0.0809432 -0.0143103 -0.620331 0.0806925 -0.0163689 -0.627777 
0.0801611 -0.0181485 -0.634271 0.0794394 -0.0197082 -0.639785 0.0786111 -0.021092 -0.644332 
0.0777508 -0.022325 -0.647964 0.0769231 -0.0234125 -0.650764 0.0761814 -0.0243427 -0.652835 
0.0755687 -0.0250923 -0.65429 0.0751169 -0.0256327 -0.655237 0.0748483 -0.0259371 -0.655764 
0.0747758 -0.0259866 -0.655929 
LINES 2 100
OFFSETS vtktypeint64
0 100 
CONNECTIVITY vtktypeint64
0 1 2 3 4 5 6 7 8 
9 10 11 12 13 14 15 16 17 
18 19 20 21 22 23 24 25 26 
27 28 29 30 31 32 33 34 35 
36 37 38 39 40 41 42 43 44 
45 46 47 48 49 50 51 52 53 
54 55 56 57 58 59 60 61 62 
63 64 65 66 67 68 69 70 71 
72 73 74 75 76 77 78 79 80 
81 82 83 84 85 86 87 88 89 
90 91 92 93 94 95 96 97 98 
99 
POINT_DATA 100
FIELD FieldData 3
_theta 1 100 double
0 0.031733259127 0.063466518254 0.095199777382 0.12693303651 0.15866629564 0.19039955476 0.22213281389 0.25386607302 
0.28559933214 0.31733259127 0.3490658504 0.38079910953 0.41253236865 0.44426562778 0.47599888691 0.50773214603 0.53946540516 
0.57119866429 0.60293192342 0.63466518254 0.66639844167 0.6981317008 0.72986495992 0.76159821905 0.79333147818 0.82506473731 
0.85679799643 0.88853125556 0.92026451469 0.95199777382 0.98373103294 1.0154642921 1.0471975512 1.0789308103 1.1106640695 
1.1423973286 1.1741305877 1.2058638468 1.237597106 1.2693303651 1.3010636242 1.3327968833 1.3645301425 1.3962634016 
1.4279966607 1.4597299198 1.491463179 1.5231964381 1.5549296972 1.5866629564 1.6183962155 1.6501294746 1.6818627337 
1.7135959929 1.745329252 1.7770625111 1.8087957702 1.8405290294 1.8722622885 1.9039955476 1.9357288068 1.9674620659 
1.999195325 2.0309285841 2.0626618433 2.0943951024 2.1261283615 2.1578616206 2.1895948798 2.2213281389 2.253061398 
2.2847946572 2.3165279163 2.3482611754 2.3799944345 2.4117276937 2.4434609528 2.4751942119 2.506927471 2.5386607302 
2.5703939893 2.6021272484 2.6338605076 2.6655937667 2.6973270258 2.7290602849 2.7607935441 2.7925268032 2.8242600623 
2.8559933214 2.8877265806 2.9194598397 2.9511930988 2.982926358 3.0146596171 3.0463928762 3.0781261353 3.1098593945 
3.1415926536 
_radius 1 100 double
9.239157427e-16 0.014267971136 0.028417106951 0.042338025661 0.055932772627 0.069118460742 0.081829204594 0.094016452212 0.10564808466 
0.11670679606 0.12718828278 0.13709965669 0.14645824417 0.15529057895 0.16363107162 0.17151971814 0.17899840332 0.18610583281 
0.19287173081 0.19931144242 0.20542227734 0.21118272433 0.21655509703 0.22149139446 0.22594137122 0.22986121266 0.23322097623 
0.23600920814 0.23823385941 0.23991961099 0.24110263474 0.24182432702 0.24212549469 0.24204196378 0.24160191972 0.24082478055 
0.23972120676 0.23829394564 0.23653946418 0.23445057315 0.23202032549 0.22924728251 0.22614179322 0.22273236656 0.21907075349 
0.21523420166 0.21132362288 0.20745713261 0.20375946499 0.20034886543 0.19732384399 0.19475234418 0.19266540741 0.19105645214 
0.18988599361 0.18909021851 0.18859083049 0.18830370765 0.18814531455 0.18803755164 0.18791242003 0.18771709709 0.18741871133 
0.18700746141 0.18649704326 0.18592212903 0.18533326473 0.18478975416 0.18435105085 0.18406722235 0.18396929384 0.18406058219 
0.18431034712 0.1846511255 0.18498084373 0.18517007522 0.18507368308 0.18454495764 0.18344973835 0.18167816181 0.17915242911 
0.17582989933 0.17170154134 0.16678626179 0.16112202739 0.15475512816 0.14772931852 0.14007674575 0.13181236531 0.12293290894 
0.11342054094 0.10325037101 0.092400278433 0.080861220901 0.06864634481 0.055797622522 0.042389221978 0.0285272438 0.014345829219 
1.0796635841e-15 
_area 1 100 double
0 0.00049733441084 0.0019706414068 0.0043669215861 0.0076071889827 0.011597475183 0.016239303877 0.021436880416 0.02709963516 
0.033140685154 0.039473735078 0.046012073867 0.052672584677 0.059384880501 0.066102180417 0.072808408523 0.079516606958 0.086257295235 
0.093060405595 0.099937482039 0.10686953536 0.11380246919 0.12065011885 0.12730475203 0.13365376274 0.13959834334 0.14506741017 
0.15002101511 0.1544423651 0.15832344781 0.16165211317 0.16440654907 0.1665581152 0.16807882197 0.16894795019 0.16915394584 
0.16869130993 0.1675553604 0.16573895963 0.16323461005 0.16004331883 0.15618871488 0.15173186884 0.14678056955 0.14148764731 
0.1360365829 0.13061816547 0.12540666256 0.12054408816 0.11613555548 0.11225161017 0.10893022942 0.10617236772 0.10393029822 
0.10210067533 0.10054107568 0.099106735139 0.097682019707 0.096191258246 0.094590050727 0.092847530969 0.090938946505 0.08885949441 
0.086643952837 0.08437118698 0.082150639843 0.080101246306 0.078334584531 0.076948237 0.076028016791 0.075653815346 0.075857245589 
0.076529312 0.077493470462 0.07857758768 0.079622033452 0.080476718021 0.080998159667 0.081048907999 0.080502289961 0.079254433414 
0.077240123472 0.074444603225 0.070905138115 0.06670154021 0.061939523057 0.056733084113 0.051191914561 0.045417333721 0.039506443583 
0.033560904076 0.027695383246 0.02204150062 0.01674522605 0.011958295958 0.0078263476693 0.004477369478 0.0020134229377 0.00050682749612 
3.5750649207e-17 
