# vtk DataFile Version 5.1
vtk output
ASCII
DATASET POLYDATA
POINTS 100 float
0.13364 -0.00981143 -0.594613 0.133359 -0.0100356 -0.594366 0.132556 -0.010513 -0.593709 
0.131253 -0.0111634 -0.592611 0.129487 -0.0118638 -0.591023 0.127298 -0.0124611 -0.588888 
0.12473 -0.0127897 -0.586144 0.121823 -0.012689 -0.582735 0.118605 -0.0120205 -0.578617 
0.115093 -0.0106825 -0.573761 0.111285 -0.0086205 -0.568159 0.107164 -0.00583213 -0.56182 
0.1027 -0.00236668 -0.554769 0.0978539 0.00168073 -0.547041 0.0925835 0.00617938 -0.538672 
0.0868511 0.0109763 -0.529697 0.0806312 0.0159111 -0.520138 0.0739158 0.0208301 -0.510004 
0.0667201 0.0255992 -0.499288 0.0590834 0.0301127 -0.487965 0.0510692 0.0342991 -0.475999 
0.0427611 0.0381215 -0.46335 0.0342563 0.0415751 -0.449976 0.0256579 0.0446809 -0.435844 
0.0170646 0.0474771 -0.420937 0.00856246 0.0500102 -0.405253 0.000216125 0.0523263 -0.388816 
-0.00793636 0.0544633 -0.371666 -0.0158861 0.0564462 -0.353859 -0.0236521 0.058285 -0.33546 
-0.0312759 0.0599746 -0.316533 -0.0388129 0.0614975 -0.297139 -0.0463215 0.0628284 -0.27732 
-0.0538497 0.0639388 -0.257101 -0.061423 0.0648022 -0.236487 -0.0690327 0.0653981 -0.215462 
-0.076628 0.0657144 -0.193997 -0.0841119 0.0657491 -0.17206 -0.0913423 0.065509 -0.149621 
-0.0981381 0.0650085 -0.12667 -0.10429 0.0642669 -0.103221 -0.109577 0.0633058 -0.0793246 
-0.113783 0.0621473 -0.0550699 -0.116715 0.0608122 -0.0305847 -0.118221 0.059321 -0.00603189 
-0.118207 0.0576947 0.0184005 -0.116643 0.0559571 0.0425111 -0.113569 0.0541375 0.0660998 
-0.109094 0.0522734 0.088983 -0.103387 0.0504115 0.111007 -0.0966607 0.0486083 0.13206 
-0.0891577 0.046928 0.152079 -0.0811269 0.0454388 0.17105 -0.0728046 0.0442079 0.18901 
-0.0643963 0.0432945 0.206036 -0.0560618 0.0427432 0.222237 -0.0479069 0.0425775 0.237741 
-0.0399804 0.0427951 0.252679 -0.0322779 0.0433656 0.267178 -0.0247519 0.0442306 0.281344 
-0.0173251 0.0453072 0.295263 -0.00990823 0.0464948 0.308992 -0.0024171 0.0476836 0.322564 
0.00521102 0.048765 0.335989 0.0130048 0.0496418 0.349264 0.0209508 0.0502379 0.36238 
0.028992 0.0505056 0.375326 0.0370315 0.0504299 0.388103 0.0449418 0.0500295 0.400718 
0.0525788 0.0493536 0.413193 0.0597976 0.0484756 0.425559 0.0664689 0.0474842 0.437851 
0.0724937 0.0464731 0.4501 0.077814 0.04553 0.46233 0.082419 0.044727 0.474543 
0.0863453 0.0441131 0.486721 0.089671 0.0437097 0.498817 0.0925052 0.04351 0.510758 
0.0949734 0.0434807 0.522447 0.0972012 0.0435687 0.53377 0.0992982 0.043708 0.544603 
0.101344 0.0438293 0.554824 0.103379 0.0438688 0.564324 0.1054 0.043776 0.573011 
0.10736 0.0435191 0.580825 0.10918 0.0430882 0.587734 0.110757 0.0424953 0.593742 
0.111981 0.0417709 0.59888 0.112756 0.0409595 0.603209 0.11301 0.0401125 0.606806 
0.112712 0.0392818 0.609761 0.11188 0.0385133 0.612165 0.110585 0.0378422 0.614106 
0.108942 0.03729 0.615662 0.107108 0.0368642 0.616899 0.10526 0.0365604 0.617867 
0.103579 0.036365 0.618603 0.102234 0.0362605 0.619131 0.101359 0.0362302 0.619467 
0.10104 0.036262 0.619616 
LINES 2 100
OFFSETS vtktypeint64
0 100 
CONNECTIVITY vtktypeint64
0 1 2 3 4 5 6 7 8 
9 10 11 12 13 14 15 16 17 
18 19 20 21 22 23 24 25 26 
27 28 29 30 31 32 33 34 35 
36 37 38 39 40 41 42 43 44 
45 46 47 48 49 50 51 52 53 
54 55 56 57 58 59 60 61 62 
63 64 65 66 67 68 69 70 71 
72 73 74 75 76 77 78 79 80 
81 82 83 84 85 86 87 88 89 
90 91 92 93 94 95 96 97 98 
99 
POINT_DATA 100
FIELD FieldData 3
_theta 1 100 double
0 0.031733259127 0.063466518254 0.095199777382 0.12693303651 0.15866629564 0.19039955476 0.22213281389 0.25386607302 
0.28559933214 0.31733259127 0.3490658504 0.38079910953 0.41253236865 0.44426562778 0.47599888691 0.50773214603 0.53946540516 
0.57119866429 0.60293192342 0.63466518254 0.66639844167 0.6981317008 0.72986495992 0.76159821905 0.79333147818 0.82506473731 
0.85679799643 0.88853125556 0.92026451469 0.95199777382 0.98373103294 1.0154642921 1.0471975512 1.0789308103 1.1106640695 
1.1423973286 1.1741305877 1.2058638468 1.237597106 1.2693303651 1.3010636242 1.3327968833 1.3645301425 1.3962634016 
1.4279966607 1.4597299198 1.491463179 1.5231964381 1.5549296972 1.5866629564 1.6183962155 1.6501294746 1.6818627337 
1.7135959929 1.745329252 1.7770625111 1.8087957702 1.8405290294 1.8722622885 1.9039955476 1.9357288068 1.9674620659 
1.999195325 2.0309285841 2.0626618433 2.0943951024 2.1261283615 2.1578616206 2.1895948798 2.2213281389 2.253061398 
2.2847946572 2.3165279163 2.3482611754 2.3799944345 2.4117276937 2.4434609528 2.4751942119 2.506927471 2.5386607302 
2.5703939893 2.6021272484 2.6338605076 2.6655937667 2.6973270258 2.7290602849 2.7607935441 2.7925268032 2.8242600623 
2.8559933214 2.8877265806 2.9194598397 2.9511930988 2.982926358 3.0146596171 3.0463928762 3.0781261353 3.1098593945 
3.1415926536 
_radius 1 100 double
1.3904866444e-16 0.01360579016 0.027024195673 0.040080696174 0.052619550717 0.064509932494 0.075649290013 0.08596406098 0.095408305821 
0.10396104251 0.11162303345 0.11841355354 0.1243673598 0.12953180769 0.13396391747 0.13772723489 0.14088852613 0.14351459932 
0.14566971181 0.1474139843 0.14880296897 0.14988811339 0.15071752327 0.15133635008 0.1517863771 0.15210483268 0.15232287416 
0.15246432906 0.15254509372 0.15257322963 0.15254952701 0.15246830058 0.15231843816 0.15208506197 0.15175234173 0.15130782674 
0.15074813025 0.1500851136 0.14935121436 0.14860251582 0.14791862911 0.14739927142 0.14715819412 0.14731543822 0.14798860165 
0.1492831608 0.15128153051 0.15403102341 0.15753208499 0.16172934897 0.16650836391 0.17170001766 0.17709295849 0.18245228683 
0.18754134613 0.19214316555 0.19607881237 0.19922093535 0.20150162383 0.20291430526 0.20350994873 0.20338847945 0.20268693289 
0.20156616325 0.20019763878 0.19875113167 0.19738331428 0.19622677277 0.19537905037 0.19489218685 0.19476452139 0.19493740973 
0.19529908163 0.19569603043 0.19595002925 0.19587737482 0.19530685222 0.19409386186 0.19212944965 0.18934410684 0.18570695208 
0.18122129469 0.17591771221 0.16984576857 0.16306540673 0.15563888228 0.14762387464 0.13906818592 0.13000630658 0.1204581193 
0.11043002469 0.099918631209 0.088916767862 0.077421050036 0.065439780073 0.052999784193 0.040150932386 0.026967491999 0.013546011464 
7.3030150024e-16 
_area 1 100 double
0 0.00050688546455 0.0020048021805 0.0044268779368 0.0076659144882 0.011580138696 0.016000492584 0.020739338308 0.025600500431 
0.030390293002 0.034928890416 0.039061320359 0.042667342485 0.045669305398 0.048036804084 0.049786906578 0.050979157089 0.051705515918 
0.052076681424 0.052207478076 0.052204366837 0.052156837184 0.052132692494 0.052178208554 0.052326666352 0.052612688018 0.053068581121 
0.053693182065 0.054448662135 0.055285395209 0.056154956379 0.05701245234 0.057815259748 0.058521464701 0.059094390797 0.059516574779 
0.059805730971 0.060022922898 0.060271557115 0.060686350517 0.061352189859 0.062212792831 0.063195551659 0.064289977673 0.065549660969 
0.067088835987 0.069067750635 0.071660203774 0.075010047409 0.079186465899 0.084142766677 0.089693154999 0.095531762405 0.10129278427 
0.10661953904 0.11121667034 0.11487868899 0.1174965457 0.11904765261 0.11957708797 0.11917696407 0.1179684226 0.11608890626 
0.11368547227 0.11091267593 0.1079336053 0.10492337991 0.10207137452 0.099574363665 0.097612392937 0.096305269772 0.095665064083 
0.095575714653 0.095815243808 0.096104484564 0.096157787282 0.095722048318 0.094601315008 0.092669028864 0.08987042232 0.086217398522 
0.081778379869 0.076665206127 0.071018517499 0.064992962651 0.058743782195 0.052416148656 0.046137938263 0.040015737192 0.034133456077 
0.028553376885 0.023320317049 0.018469570105 0.014037735652 0.010073474686 0.006644115019 0.0038346640994 0.0017382027667 0.00043996448386 
4.9446393675e-17 
