# vtk DataFile Version 5.1
vtk output
ASCII
DATASET POLYDATA
POINTS 100 float
0.0276512 -0.000785683 -0.662482 0.0274215 -0.000925686 -0.6622 0.0268087 -0.00116783 -0.661414 
0.0258478 -0.00144473 -0.660106 0.0245914 -0.00165292 -0.65825 0.023102 -0.00166522 -0.655812 
0.0214431 -0.00134604 -0.652753 0.0196698 -0.000567642 -0.649032 0.0178201 0.000774468 -0.64461 
0.015909 0.00274895 -0.639447 0.0139244 0.00538019 -0.63351 0.0118281 0.00864504 -0.626765 
0.00955886 0.0124748 -0.619182 0.00703954 0.0167625 -0.610734 0.00418664 0.0213734 -0.60139 
0.000920705 0.0261591 -0.591125 -0.00282295 0.0309714 -0.57991 -0.00708504 0.0356762 -0.567721 
-0.0118756 0.0401637 -0.554539 -0.0171708 0.0443561 -0.540353 -0.0229134 0.0482103 -0.525167 
-0.0290174 0.0517165 -0.508999 -0.0353757 0.0548924 -0.491889 -0.0418707 0.0577753 -0.473897 
-0.048386 0.0604118 -0.455101 -0.0548174 0.0628479 -0.4356 -0.0610828 0.0651201 -0.415502 
-0.0671293 0.0672489 -0.394922 -0.0729366 0.0692352 -0.373968 -0.0785155 0.071061 -0.352739 
-0.0839033 0.0726917 -0.33131 -0.0891548 0.0740823 -0.309731 -0.0943309 0.0751845 -0.288022 
-0.0994863 0.0759538 -0.266173 -0.104657 0.0763564 -0.244144 -0.109849 0.0763738 -0.221879 
-0.115032 0.0760052 -0.199311 -0.120135 0.075267 -0.176375 -0.125049 0.0741901 -0.153019 
-0.129627 0.0728148 -0.129219 -0.133704 0.0711852 -0.104984 -0.137099 0.0693426 -0.0803616 
-0.139637 0.0673214 -0.0554432 -0.14116 0.0651453 -0.0303558 -0.141542 0.0628268 -0.00525666 
-0.140702 0.0603696 0.0196785 -0.138604 0.057772 0.0442693 -0.135266 0.0550337 0.0683447 
-0.130756 0.052162 0.0917571 -0.125183 0.0491786 0.114393 -0.118689 0.0461243 0.136183 
-0.111435 0.0430618 0.1571 -0.10359 0.0400752 0.177164 -0.0953164 0.0372662 0.196432 
-0.0867583 0.0347478 0.214989 -0.0780355 0.0326344 0.232939 -0.0692385 0.0310319 0.25039 
-0.0604278 0.0300266 0.267443 -0.0516381 0.0296757 0.284181 -0.0428834 0.03 0.300665 
-0.0341662 0.0309801 0.316929 -0.0254863 0.0325559 0.332984 -0.0168489 0.0346311 0.348817 
-0.00827152 0.0370801 0.364407 0.000211509 0.0397584 0.379724 0.00854823 0.0425151 0.394746 
0.016671 0.0452045 0.409461 0.0245018 0.0476977 0.423873 0.0319588 0.0498923 0.438004 
0.0389657 0.0517178 0.451892 0.0454594 0.053139 0.465588 0.0513977 0.0541542 0.479143 
0.0567646 0.0547916 0.492605 0.0615721 0.0551019 0.506006 0.0658596 0.05515 0.519357 
0.0696894 0.055006 0.532639 0.0731392 0.0547366 0.545806 0.0762929 0.0543984 0.558781 
0.0792304 0.0540332 0.571466 0.082018 0.0536655 0.583745 0.0846996 0.0533031 0.595499 
0.087291 0.0529395 0.606613 0.0897781 0.0525581 0.61699 0.0921178 0.052137 0.626554 
0.0942438 0.0516542 0.635262 0.0960751 0.0510925 0.6431 0.0975265 0.0504423 0.650089 
0.098521 0.0497042 0.656272 0.0990014 0.0488888 0.661713 0.0989403 0.048016 0.666488 
0.0983473 0.0471129 0.670673 0.0972724 0.0462107 0.674336 0.0958049 0.0453422 0.677535 
0.0940682 0.044539 0.680311 0.0922101 0.0438291 0.682685 0.0903909 0.0432359 0.684664 
0.0887687 0.0427776 0.686244 0.0874856 0.0424669 0.687411 0.0866538 0.0423121 0.688151 
0.0863452 0.0423172 0.688455 
LINES 2 100
OFFSETS vtktypeint64
0 100 
CONNECTIVITY vtktypeint64
0 1 2 3 4 5 6 7 8 
9 10 11 12 13 14 15 16 17 
18 19 20 21 22 23 24 25 26 
27 28 29 30 31 32 33 34 35 
36 37 38 39 40 41 42 43 44 
45 46 47 48 49 50 51 52 53 
54 55 56 57 58 59 60 61 62 
63 64 65 66 67 68 69 70 71 
72 73 74 75 76 77 78 79 80 
81 82 83 84 85 86 87 88 89 
90 91 92 93 94 95 96 97 98 
99 
POINT_DATA 100
FIELD FieldData 3
_theta 1 100 double
0 0.031733259127 0.063466518254 0.095199777382 0.12693303651 0.15866629564 0.19039955476 0.22213281389 0.25386607302 
0.28559933214 0.31733259127 0.3490658504 0.38079910953 0.41253236865 0.44426562778 0.47599888691 0.50773214603 0.53946540516 
0.57119866429 0.60293192342 0.63466518254 0.66639844167 0.6981317008 0.72986495992 0.76159821905 0.79333147818 0.82506473731 
0.85679799643 0.88853125556 0.92026451469 0.95199777382 0.98373103294 1.0154642921 1.0471975512 1.0789308103 1.1106640695 
1.1423973286 1.1741305877 1.2058638468 1.237597106 1.2693303651 1.3010636242 1.3327968833 1.3645301425 1.3962634016 
1.4279966607 1.4597299198 1.491463179 1.5231964381 1.5549296972 1.5866629564 1.6183962155 1.6501294746 1.6818627337 
1.7135959929 1.745329252 1.7770625111 1.8087957702 1.8405290294 1.8722622885 1.9039955476 1.9357288068 1.9674620659 
1.999195325 2.0309285841 2.0626618433 2.0943951024 2.1261283615 2.1578616206 2.1895948798 2.2213281389 2.253061398 
2.2847946572 2.3165279163 2.3482611754 2.3799944345 2.4117276937 2.4434609528 2.4751942119 2.506927471 2.5386607302 
2.5703939893 2.6021272484 2.6338605076 2.6655937667 2.6973270258 2.7290602849 2.7607935441 2.7925268032 2.8242600623 
2.8559933214 2.8877265806 2.9194598397 2.9511930988 2.982926358 3.0146596171 3.0463928762 3.0781261353 3.1098593945 
3.1415926536 
_radius 1 100 double
8.9037164469e-16 0.013763567139 0.027478316285 0.041089240678 0.054532385628 0.06773017455 0.080587713735 0.092991534588 0.10481204308 
0.11591020573 0.12614797883 0.13540101261 0.14357151804 0.15059903939 0.15646726304 0.16120581413 0.16488704663 0.16761885675 
0.16953526337 0.17078667238 0.17153126847 0.17192796609 0.17213018884 0.17227907693 0.17249520256 0.17286957491 0.17345647359 
0.17427065672 0.17528951781 0.17645882483 0.17770033245 0.17892029971 0.18001867547 0.18089905756 0.18147953761 0.18170420005 
0.18155425745 0.18105660067 0.18028634369 0.17935989266 0.17841778926 0.17760204984 0.17703683983 0.17681931483 0.1770210927 
0.17769614136 0.1788897717 0.18064396989 0.18299565308 0.18596707033 0.18955111533 0.19369714694 0.19830337231 0.20321957446 
0.20826029672 0.21322547598 0.21792397339 0.22219531438 0.22592573358 0.22905605834 0.2315808225 0.23353983833 0.23500475725 
0.23606362509 0.23680613965 0.23731153434 0.23764005199 0.23782805465 0.23788612636 0.23779928083 0.23752868552 0.23701490906 
0.23618306013 0.23494992827 0.23323248292 0.23095635382 0.22806267837 0.22451207693 0.22028528989 0.21538084911 0.20981078062 
0.2035955881 0.19675963235 0.18932761589 0.1813223813 0.17276379903 0.16366826184 0.15404828549 0.14391195267 0.13326234683 
0.12209753 0.1104118369 0.098199139838 0.085458217139 0.072199551973 0.058452150158 0.044268677887 0.02972751224 0.014930995798 
6.1433628668e-16 
_area 1 100 double
0 0.00046414618728 0.0018652902925 0.0042228304108 0.0075487745417 0.011823885419 0.016975288739 0.022862176605 0.029274017753 
0.035942653699 0.042566441143 0.048841835526 0.054496170948 0.059315349813 0.063161780258 0.065980749691 0.067796527642 0.068701645137 
0.068843276658 0.068409713901 0.067618352518 0.066704783516 0.065910402152 0.06546396858 0.06555280878 0.066285870518 0.067666684985 
0.069600465851 0.071930437646 0.074474096496 0.07704497258 0.079464933411 0.081574933801 0.083247248549 0.084398773632 0.085004581842 
0.085110578942 0.08483970915 0.08437990496 0.083945307487 0.083722901226 0.083841270191 0.084459978649 0.085666986738 0.087317986861 
0.089338085653 0.091694123964 0.094453200141 0.097753066673 0.10174912402 0.10656826392 0.11226357443 0.11876182554 0.12583356434 
0.13312520256 0.14023342341 0.14677690049 0.1524499133 0.15705705033 0.16052540547 0.16289349775 0.16428622423 0.16488990583 
0.16493616295 0.16468016712 0.16427031683 0.16365297702 0.16275377786 0.1615495554 0.16004709715 0.15825649431 0.15616737868 
0.15373600645 0.15089048579 0.14755255301 0.14366398576 0.13920271946 0.13418104128 0.12863005089 0.12258211938 0.1160621074 
0.10909103675 0.10169840861 0.093935588747 0.085883420077 0.077650768103 0.069364663204 0.061155555791 0.053142596162 0.045423735181 
0.038073612078 0.031149270523 0.024701391569 0.01878766387 0.013484300357 0.0088914124813 0.0051290561629 0.0023236447944 0.00058790553717 
4.2506467379e-17 
