# vtk DataFile Version 5.1
vtk output
ASCII
DATASET POLYDATA
POINTS 100 float
0.0944225 0.0323134 0.640243 0.0945603 0.0325411 0.639976 0.0949984 0.0330353 0.63904 
0.095665 0.0337507 0.637426 0.0964502 0.0346205 0.635113 0.097219 0.0355647 0.632082 
0.0978288 0.0365007 0.628311 0.0981461 0.037354 0.623784 0.0980623 0.0380675 0.61849 
0.0975054 0.0386085 0.612429 0.0964464 0.0389716 0.605614 0.0949 0.0391782 0.598073 
0.0929184 0.0392724 0.589848 0.090581 0.0393125 0.580996 0.0879799 0.039362 0.571588 
0.0852039 0.0394791 0.561701 0.0823236 0.0397067 0.551422 0.0793795 0.0400655 0.540833 
0.0763746 0.0405495 0.530017 0.0732727 0.0411258 0.519043 0.0700033 0.041738 0.50797 
0.0664711 0.042313 0.496837 0.0625703 0.0427707 0.485668 0.0582002 0.0430343 0.474464 
0.0532814 0.0430403 0.463212 0.0477692 0.0427476 0.45188 0.0416622 0.0421426 0.440428 
0.0350063 0.0412422 0.428808 0.0278906 0.0400916 0.416969 0.0204396 0.0387599 0.404864 
0.0127984 0.037332 0.392451 0.00511615 0.0358998 0.379696 -0.00247148 0.0345524 0.366576 
-0.00985838 0.0333679 0.353077 -0.01698 0.0324069 0.339191 -0.0238201 0.0317094 0.324914 
-0.0304099 0.0312947 0.310245 -0.0368221 0.0311642 0.295178 -0.0431572 0.0313067 0.279705 
-0.0495269 0.0317052 0.263807 -0.0560339 0.0323437 0.247459 -0.062753 0.0332129 0.23063 
-0.0697145 0.0343144 0.213283 -0.0768924 0.0356612 0.195385 -0.0841993 0.037276 0.176904 
-0.0914884 0.0391867 0.157822 -0.0985629 0.0414192 0.138136 -0.105191 0.0439898 0.11786 
-0.111126 0.0468981 0.0970321 -0.116128 0.0501205 0.0757121 -0.119986 0.0536074 0.0539788 
-0.122533 0.0572826 0.0319274 -0.123668 0.0610477 0.00966307 -0.123354 0.0647883 -0.0127054 
-0.121624 0.068384 -0.0350729 -0.118575 0.0717193 -0.0573448 -0.114354 0.0746939 -0.0794423 
-0.109144 0.0772324 -0.101306 -0.103141 0.0792909 -0.122897 -0.0965434 0.0808592 -0.144197 
-0.0895267 0.0819594 -0.165203 -0.0822371 0.0826402 -0.185923 -0.0747812 0.0829677 -0.206372 
-0.0672232 0.0830142 -0.226562 -0.0595883 0.0828455 -0.246496 -0.0518693 0.0825102 -0.266166 
-0.0440366 0.0820306 -0.285548 -0.0360501 0.081398 -0.304601 -0.0278708 0.0805717 -0.32327 
-0.0194714 0.0794835 -0.341488 -0.0108436 0.0780462 -0.359182 -0.00200286 0.0761645 -0.37628 
0.00701052 0.0737492 -0.392715 0.0161335 0.0707298 -0.408432 0.025285 0.0670669 -0.423392 
0.0343722 0.0627599 -0.437573 0.0432971 0.0578518 -0.450969 0.0519638 0.0524283 -0.46359 
0.0602833 0.0466119 -0.475455 0.0681779 0.0405529 -0.486589 0.0755835 0.034416 -0.497018 
0.0824497 0.0283671 -0.506758 0.0887397 0.0225591 -0.515822 0.0944286 0.0171201 -0.524206 
0.0995017 0.0121449 -0.531899 0.103953 0.00769068 -0.538881 0.107787 0.00377647 -0.545128 
0.111012 0.000387391 -0.550617 0.113651 -0.00251809 -0.555337 0.115732 -0.00499875 -0.559288 
0.117298 -0.0071204 -0.562492 0.118401 -0.00894635 -0.564993 0.119106 -0.0105297 -0.566856 
0.119484 -0.0119084 -0.568167 0.119616 -0.0131033 -0.569025 0.119582 -0.0141195 -0.569538 
0.119458 -0.0149501 -0.569811 0.119313 -0.0155808 -0.569936 0.119198 -0.0159965 -0.569987 
0.119148 -0.0161856 -0.570012 
LINES 2 100
OFFSETS vtktypeint64
0 100 
CONNECTIVITY vtktypeint64
0 1 2 3 4 5 6 7 8 
9 10 11 12 13 14 15 16 17 
18 19 20 21 22 23 24 25 26 
27 28 29 30 31 32 33 34 35 
36 37 38 39 40 41 42 43 44 
45 46 47 48 49 50 51 52 53 
54 55 56 57 58 59 60 61 62 
63 64 65 66 67 68 69 70 71 
72 73 74 75 76 77 78 79 80 
81 82 83 84 85 86 87 88 89 
90 91 92 93 94 95 96 97 98 
99 
POINT_DATA 100
FIELD FieldData 3
_theta 1 100 double
0 0.031733259127 0.063466518254 0.095199777382 0.12693303651 0.15866629564 0.19039955476 0.22213281389 0.25386607302 
0.28559933214 0.31733259127 0.3490658504 0.38079910953 0.41253236865 0.44426562778 0.47599888691 0.50773214603 0.53946540516 
0.57119866429 0.60293192342 0.63466518254 0.66639844167 0.6981317008 0.72986495992 0.76159821905 0.79333147818 0.82506473731 
0.85679799643 0.88853125556 0.92026451469 0.95199777382 0.98373103294 1.0154642921 1.0471975512 1.0789308103 1.1106640695 
1.1423973286 1.1741305877 1.2058638468 1.237597106 1.2693303651 1.3010636242 1.3327968833 1.3645301425 1.3962634016 
1.4279966607 1.4597299198 1.491463179 1.5231964381 1.5549296972 1.5866629564 1.6183962155 1.6501294746 1.6818627337 
1.7135959929 1.745329252 1.7770625111 1.8087957702 1.8405290294 1.8722622885 1.9039955476 1.9357288068 1.9674620659 
1.999195325 2.0309285841 2.0626618433 2.0943951024 2.1261283615 2.1578616206 2.1895948798 2.2213281389 2.253061398 
2.2847946572 2.3165279163 2.3482611754 2.3799944345 2.4117276937 2.4434609528 2.4751942119 2.506927471 2.5386607302 
2.5703939893 2.6021272484 2.6338605076 2.6655937667 2.6973270258 2.7290602849 2.7607935441 2.7925268032 2.8242600623 
2.8559933214 2.8877265806 2.9194598397 2.9511930988 2.982926358 3.0146596171 3.0463928762 3.0781261353 3.1098593945 
3.1415926536 
_radius 1 100 double
7.1227669876e-16 0.014013117598 0.027911560168 0.041580941443 0.054915796468 0.067824449966 0.080233652167 0.092092329939 0.10337369557 
0.11407509602 0.12421536912 0.13383001418 0.14296501936 0.15167050137 0.15999522802 0.16798259713 0.17566796672 0.18307673829 
0.19022256493 0.19710548758 0.20371043177 0.21000696474 0.21595125458 0.22149071996 0.22657104518 0.23114434391 0.23517662072 
0.23865258294 0.24157641844 0.24396825768 0.2458573126 0.24727364015 0.248240741 0.24877072659 0.24886285068 0.2485052314 
0.24767892629 0.24636329891 0.24454175395 0.2422072278 0.23936710658 0.23604738451 0.23229585117 0.2281839579 0.22380684082 
0.2192808825 0.2147383324 0.21031898295 0.20615959106 0.20238232013 0.19908377885 0.19632639124 0.19413385257 0.19249187007 
0.19135399597 0.19065074401 0.19029940187 0.1902124839 0.19030411063 0.19049480501 0.19071560101 0.19091195002 0.19104718036 
0.19110480619 0.19108904139 0.19102322211 0.19094607636 0.19090582688 0.1909523039 0.19112779625 0.19145800093 0.19194466908 
0.19256122244 0.19325194993 0.19393469658 0.19450640052 0.1948504737 0.19484488285 0.19436986851 0.19331448863 0.19158148637 
0.18909025889 0.18577791078 0.18159854882 0.17652117264 0.17052673882 0.16360514961 0.15575294081 0.1469722641 0.13727141185 
0.12666671978 0.11518532573 0.10286805141 0.089771655923 0.075969883696 0.061553049938 0.046626277128 0.031306784958 0.015720732094 
1.2891205467e-15 
_area 1 100 double
0 0.00055485768273 0.0021942590063 0.004844240665 0.008387095004 0.012670726808 0.017522692237 0.022767991661 0.028248052981 
0.033837178404 0.0394527701 0.045057194834 0.050651741211 0.056265585972 0.06194375692 0.067737257826 0.073696290823 0.079865077783 
0.086275545357 0.092937798004 0.09982762465 0.10687475203 0.11395884706 0.12092026961 0.12758718749 0.13381274663 0.13951038339 
0.14467358365 0.14936808977 0.15369222652 0.15771839819 0.16144660191 0.16479463428 0.16762119966 0.16976155848 0.17106050921 
0.17139677555 0.17069666344 0.16893554537 0.16613297219 0.16235372935 0.15771132357 0.15236857675 0.14653137421 0.14043406918 
0.13432025648 0.12842388105 0.12295357277 0.1180789817 0.11391457716 0.11049805899 0.10777070453 0.10558081943 0.1037274326 
0.10203074522 0.10042575072 0.098878119988 0.097175975805 0.095268598656 0.093158309756 0.090871727693 0.088465747334 0.086025876554 
0.083642489184 0.081389432045 0.079321313258 0.077478704398 0.075900773132 0.074646208872 0.073790924764 0.073354557465 0.073332495673 
0.073725816955 0.074566649308 0.075763775286 0.077121140747 0.078481781193 0.079703713124 0.080646314749 0.081168433502 0.08113344607 
0.080419026141 0.078927248373 0.076591608971 0.073380411975 0.069298211423 0.064387394879 0.058730757817 0.052454046374 0.04572613138 
0.038754487 0.031774838124 0.025035411057 0.018777551708 0.013215541698 0.0085194118294 0.0048051151274 0.0021356238988 0.00053343282524 
4.6837533851e-17 
