# vtk DataFile Version 5.1
vtk output
ASCII
DATASET POLYDATA
POINTS 100 float
0.0447305 0.0303571 -0.636599 0.0446272 0.0302408 -0.636675 0.0443364 0.0300485 -0.636905 
0.043861 0.0298034 -0.637175 0.0432043 0.0295423 -0.637304 0.0423692 0.0293138 -0.637071 
0.0413566 0.0291747 -0.636231 0.0401641 0.0291855 -0.634547 0.0387842 0.0294069 -0.631811 
0.0372031 0.0298945 -0.627866 0.0354 0.0306955 -0.622614 0.0333467 0.0318449 -0.616029 
0.0310083 0.0333632 -0.608149 0.0283452 0.0352548 -0.599068 0.0253157 0.0375072 -0.588919 
0.0218799 0.0400927 -0.577855 0.0180043 0.042969 -0.56603 0.0136669 0.0460827 -0.553578 
0.00886122 0.0493719 -0.540599 0.00360107 0.0527697 -0.527153 -0.00207765 0.0562077 -0.513253 
-0.00811616 0.059619 -0.498871 -0.0144347 0.0629409 -0.48395 -0.0209369 0.0661165 -0.468415 
-0.0275163 0.0690961 -0.452189 -0.0340644 0.071837 -0.435208 -0.0404807 0.0743039 -0.417433 
-0.046681 0.0764676 -0.398859 -0.0526065 0.0783043 -0.379515 -0.0582287 0.0797945 -0.359465 
-0.0635528 0.0809218 -0.338799 -0.0686153 0.0816732 -0.31762 -0.0734792 0.0820382 -0.296034 
-0.0782245 0.0820098 -0.274137 -0.0829353 0.0815851 -0.252005 -0.0876857 0.0807664 -0.229686 
-0.0925253 0.079562 -0.207199 -0.0974657 0.0779874 -0.184536 -0.102471 0.0760656 -0.161673 
-0.107454 0.0738269 -0.138573 -0.112272 0.0713088 -0.115208 -0.116742 0.0685539 -0.0915622 
-0.120643 0.0656089 -0.0676474 -0.123744 0.0625221 -0.0435079 -0.125817 0.0593412 -0.0192229 
-0.12666 0.0561118 0.00509624 -0.126122 0.0528753 0.0293134 -0.124115 0.0496688 0.0532785 
-0.120629 0.0465245 0.0768402 -0.115734 0.0434708 0.0998594 -0.109578 0.0405336 0.122221 
-0.102375 0.0377385 0.143844 -0.0943888 0.035112 0.164683 -0.085911 0.0326841 0.184734 
-0.0772349 0.030489 0.204026 -0.068632 0.0285651 0.222614 -0.0603298 0.0269544 0.24057 
-0.0524952 0.0257003 0.257973 -0.045225 0.0248442 0.274894 -0.0385433 0.0244218 0.291391 
-0.0324074 0.0244588 0.307506 -0.0267201 0.0249665 0.323258 -0.0213474 0.0259383 0.33865 
-0.0161389 0.0273477 0.353672 -0.0109489 0.0291474 0.36831 -0.00565502 0.0312706 0.382553 
-0.000172859 0.0336343 0.396401 0.00553552 0.0361439 0.409871 0.0114594 0.0387001 0.422998 
0.0175441 0.041205 0.435835 0.0237008 0.0435703 0.448447 0.0298209 0.0457231 0.460905 
0.0357916 0.0476111 0.473277 0.0415119 0.0492059 0.485616 0.0469053 0.0505035 0.497956 
0.0519289 0.0515234 0.510301 0.0565764 0.0523038 0.522625 0.060876 0.0528965 0.534876 
0.0648835 0.0533596 0.546974 0.0686703 0.0537504 0.558828 0.0723102 0.0541181 0.570339 
0.0758657 0.0544987 0.581415 0.0793763 0.0549104 0.591979 0.0828503 0.0553527 0.601978 
0.0862618 0.0558072 0.611386 0.0895527 0.0562411 0.620206 0.0926401 0.0566124 0.628463 
0.0954283 0.0568766 0.636199 0.0978221 0.0569934 0.643461 0.0997421 0.0569338 0.650294 
0.101137 0.0566848 0.656726 0.101996 0.0562531 0.662762 0.102347 0.0556657 0.668381 
0.102263 0.0549685 0.673534 0.101852 0.054222 0.678145 0.101246 0.0534954 0.682124 
0.100584 0.0528594 0.685372 0.0999974 0.0523785 0.687795 0.0995954 0.0521038 0.689318 
0.0994484 0.0520675 0.689887 
LINES 2 100
OFFSETS vtktypeint64
0 100 
CONNECTIVITY vtktypeint64
0 1 2 3 4 5 6 7 8 
9 10 11 12 13 14 15 16 17 
18 19 20 21 22 23 24 25 26 
27 28 29 30 31 32 33 34 35 
36 37 38 39 40 41 42 43 44 
45 46 47 48 49 50 51 52 53 
54 55 56 57 58 59 60 61 62 
63 64 65 66 67 68 69 70 71 
72 73 74 75 76 77 78 79 80 
81 82 83 84 85 86 87 88 89 
90 91 92 93 94 95 96 97 98 
99 
POINT_DATA 100
FIELD FieldData 3
_theta 1 100 double
0 0.031733259127 0.063466518254 0.095199777382 0.12693303651 0.15866629564 0.19039955476 0.22213281389 0.25386607302 
0.28559933214 0.31733259127 0.3490658504 0.38079910953 0.41253236865 0.44426562778 0.47599888691 0.50773214603 0.53946540516 
0.57119866429 0.60293192342 0.63466518254 0.66639844167 0.6981317008 0.72986495992 0.76159821905 0.79333147818 0.82506473731 
0.85679799643 0.88853125556 0.92026451469 0.95199777382 0.98373103294 1.0154642921 1.0471975512 1.0789308103 1.1106640695 
1.1423973286 1.1741305877 1.2058638468 1.237597106 1.2693303651 1.3010636242 1.3327968833 1.3645301425 1.3962634016 
1.4279966607 1.4597299198 1.491463179 1.5231964381 1.5549296972 1.5866629564 1.6183962155 1.6501294746 1.6818627337 
1.7135959929 1.745329252 1.7770625111 1.8087957702 1.8405290294 1.8722622885 1.9039955476 1.9357288068 1.9674620659 
1.999195325 2.0309285841 2.0626618433 2.0943951024 2.1261283615 2.1578616206 2.1895948798 2.2213281389 2.253061398 
2.2847946572 2.3165279163 2.3482611754 2.3799944345 2.4117276937 2.4434609528 2.4751942119 2.506927471 2.5386607302 
2.5703939893 2.6021272484 2.6338605076 2.6655937667 2.6973270258 2.7290602849 2.7607935441 2.7925268032 2.8242600623 
2.8559933214 2.8877265806 2.9194598397 2.9511930988 2.982926358 3.0146596171 3.0463928762 3.0781261353 3.1098593945 
3.1415926536 
_radius 1 100 double
8.9159386584e-16 0.012840361833 0.025648700544 0.038383763074 0.050989911094 0.063394520443 0.075509244949 0.087234557185 0.098466393913 
0.10910348359 0.1190539806 0.12824035103 0.13660199477 0.14409573112 0.15069484796 0.15638773484 0.16117706568 0.16508008404 
0.16812995179 0.17037760256 0.17189326879 0.17276682054 0.17310616692 0.17303320886 0.1726772792 0.17216665784 0.1716193575 
0.17113459266 0.1707860392 0.17061739655 0.1706403103 0.170834723 0.17115212613 0.17152248359 0.17186521061 0.17210345742 
0.17217964971 0.17206947815 0.17179153037 0.17141024026 0.17103048119 0.17078318331 0.17080373196 0.17120897396 0.17208173547 
0.17346906315 0.17539213928 0.17785919712 0.18087291452 0.18442865626 0.188505212 0.19305295002 0.19798504787 0.20317595114 
0.20846829352 0.21368652027 0.21865365157 0.22320746552 0.22721341753 0.23057300797 0.23322745972 0.23515729672 0.23637878663 
0.23693828629 0.23690530713 0.23636469739 0.23540800291 0.23412411599 0.23258978068 0.23086111052 0.22896758909 0.22690978123 
0.22466118018 0.22217357495 0.21938454193 0.21622549584 0.21262914184 0.20853579487 0.20389847924 0.1986868107 0.19288946999 
0.18651482587 0.17958918839 0.17215241342 0.16425115214 0.15593079267 0.14722776999 0.13816406544 0.12874520271 0.11896205767 
0.10879578895 0.098224573633 0.087230723306 0.075807033321 0.063961651787 0.051721147562 0.039131705401 0.026258480717 0.013183180288 
9.2883639241e-16 
_area 1 100 double
0 0.00041856961481 0.0016923587179 0.003863808901 0.0069708524489 0.011015027722 0.015938366644 0.021614142589 0.027851329445 
0.034410119988 0.041024810021 0.047429665743 0.053383006325 0.058685336682 0.063189429454 0.066803169632 0.069488140272 0.071256984335 
0.072170635535 0.072334086485 0.07188823162 0.070996442284 0.069827525898 0.068540168936 0.067277248247 0.066186105018 0.065429826184 
0.065018341252 0.064897765944 0.065033126009 0.065386639379 0.065918299058 0.066585988848 0.067342557024 0.068143180526 0.068962431918 
0.069807506159 0.07072083562 0.071774754961 0.073060947141 0.074667470898 0.076641387592 0.078967299838 0.081583626155 0.084338850456 
0.087108887027 0.08979826604 0.092415673567 0.095096745851 0.098071951522 0.10160302003 0.10590171501 0.1110589385 0.11701404407 
0.12356918313 0.13042868738 0.13724552833 0.14367224183 0.14941909704 0.15430556696 0.15822792661 0.16105192475 0.16264274395 
0.16294578267 0.16200300711 0.15994450989 0.15697139176 0.15332911963 0.14927422922 0.14504040159 0.14081083769 0.13670149545 
0.13275415625 0.12893549701 0.1251454352 0.12124260996 0.11708091502 0.11254061204 0.10754735696 0.10208204132 0.096183444144 
0.08994221609 0.083484457448 0.076946445797 0.07044660171 0.064063277319 0.057825575183 0.051719961531 0.04571003008 0.039762619675 
0.033872204215 0.028077023994 0.022463555569 0.017159439024 0.012317985396 0.0080990547854 0.0046510679621 0.0020974831545 0.00052891439013 
6.1449114071e-17 
