# vtk DataFile Version 5.1
vtk output
ASCII
DATASET POLYDATA
POINTS 100 float
0.0269374 0.0214304 -0.703285 0.027086 0.021536 -0.703037 0.0275459 0.0219945 -0.702289 
0.0282696 0.0227746 -0.700991 0.0291822 0.0238286 -0.699062 0.030189 0.0250982 -0.696405 
0.0311833 0.0265217 -0.69292 0.032056 0.0280416 -0.688511 0.0327041 0.0296109 -0.683103 
0.0330378 0.0311984 -0.676652 0.0329854 0.0327916 -0.669142 0.0324965 0.0343968 -0.660598 
0.0315411 0.036037 -0.651072 0.0301087 0.0377476 -0.64064 0.0282034 0.0395698 -0.629394 
0.0258404 0.0415442 -0.617427 0.023041 0.0437037 -0.604825 0.0198291 0.0460678 -0.591657 
0.016229 0.0486384 -0.577968 0.0122647 0.0513981 -0.563778 0.00796026 0.0543102 -0.549086 
0.00334231 0.0573215 -0.533869 -0.00155774 0.0603666 -0.518098 -0.00670121 0.0633732 -0.501739 
-0.0120406 0.0662683 -0.484768 -0.0175193 0.0689831 -0.467179 -0.0230736 0.0714577 -0.448984 
-0.0286357 0.0736442 -0.430219 -0.0341387 0.0755077 -0.41094 -0.0395224 0.0770256 -0.391217 
-0.0447391 0.0781864 -0.371127 -0.0497583 0.0789868 -0.350742 -0.0545693 0.0794286 -0.330124 
-0.0591824 0.0795166 -0.309309 -0.0636257 0.0792563 -0.28831 -0.0679398 0.0786541 -0.26711 
-0.0721702 0.0777169 -0.245665 -0.076358 0.0764545 -0.22391 -0.0805297 0.0748819 -0.201771 
-0.0846887 0.0730216 -0.179173 -0.0888083 0.0709059 -0.156052 -0.0928285 0.068578 -0.132369 
-0.0966563 0.0660919 -0.108115 -0.100171 0.0635106 -0.0833167 -0.103232 0.0609025 -0.0580411 
-0.105691 0.058337 -0.0323879 -0.107405 0.0558789 -0.00648562 -0.108252 0.0535833 0.0195189 
-0.10814 0.0514908 0.0454711 -0.107018 0.0496242 0.0712198 -0.104884 0.0479875 0.0966274 
-0.101779 0.0465669 0.121577 -0.097789 0.0453343 0.145976 -0.0930343 0.0442528 0.169761 
-0.0876556 0.0432831 0.19289 -0.0818021 0.0423909 0.215342 -0.0756167 0.0415537 0.237111 
-0.0692235 0.040766 0.258196 -0.0627188 0.0400424 0.278601 -0.0561653 0.0394182 0.298327 
-0.0495919 0.0389464 0.317373 -0.0429977 0.038693 0.335734 -0.0363597 0.0387293 0.353411 
-0.0296434 0.0391229 0.370406 -0.0228148 0.0399294 0.386737 -0.0158515 0.0411835 0.402436 
-0.00875143 0.0428934 0.417555 -0.0015391 0.0450374 0.432169 0.00573318 0.0475631 0.446366 
0.0129879 0.050391 0.46025 0.0201291 0.0534203 0.473928 0.0270521 0.0565371 0.487502 
0.0336545 0.0596244 0.501057 0.0398475 0.0625718 0.514655 0.0455657 0.0652841 0.528323 
0.0507737 0.0676887 0.542055 0.0554689 0.0697395 0.555806 0.0596807 0.0714184 0.569498 
0.0634643 0.0727332 0.583029 0.0668929 0.0737134 0.596284 0.0700467 0.0744033 0.609142 
0.0730016 0.0748554 0.621493 0.0758193 0.0751223 0.633246 0.0785394 0.0752506 0.644339 
0.0811752 0.0752763 0.654739 0.0837133 0.0752227 0.664446 0.0861175 0.0751003 0.673484 
0.088336 0.074909 0.681898 0.0903104 0.0746425 0.689739 0.091987 0.0742933 0.697055 
0.0933256 0.0738571 0.703884 0.094308 0.0733381 0.710237 0.0949423 0.0727511 0.716102 
0.0952637 0.0721224 0.721438 0.0953312 0.071489 0.726182 0.0952205 0.0708952 0.730251 
0.0950152 0.0703878 0.733556 0.0947954 0.0700108 0.736012 0.0946276 0.0698004 0.737548 
0.0945556 0.0697796 0.738116 
LINES 2 100
OFFSETS vtktypeint64
0 100 
CONNECTIVITY vtktypeint64
0 1 2 3 4 5 6 7 8 
9 10 11 12 13 14 15 16 17 
18 19 20 21 22 23 24 25 26 
27 28 29 30 31 32 33 34 35 
36 37 38 39 40 41 42 43 44 
45 46 47 48 49 50 51 52 53 
54 55 56 57 58 59 60 61 62 
63 64 65 66 67 68 69 70 71 
72 73 74 75 76 77 78 79 80 
81 82 83 84 85 86 87 88 89 
90 91 92 93 94 95 96 97 98 
99 
POINT_DATA 100
FIELD FieldData 3
_theta 1 100 double
0 0.031733259127 0.063466518254 0.095199777382 0.12693303651 0.15866629564 0.19039955476 0.22213281389 0.25386607302 
0.28559933214 0.31733259127 0.3490658504 0.38079910953 0.41253236865 0.44426562778 0.47599888691 0.50773214603 0.53946540516 
0.57119866429 0.60293192342 0.63466518254 0.66639844167 0.6981317008 0.72986495992 0.76159821905 0.79333147818 0.82506473731 
0.85679799643 0.88853125556 0.92026451469 0.95199777382 0.98373103294 1.0154642921 1.0471975512 1.0789308103 1.1106640695 
1.1423973286 1.1741305877 1.2058638468 1.237597106 1.2693303651 1.3010636242 1.3327968833 1.3645301425 1.3962634016 
1.4279966607 1.4597299198 1.491463179 1.5231964381 1.5549296972 1.5866629564 1.6183962155 1.6501294746 1.6818627337 
1.7135959929 1.745329252 1.7770625111 1.8087957702 1.8405290294 1.8722622885 1.9039955476 1.9357288068 1.9674620659 
1.999195325 2.0309285841 2.0626618433 2.0943951024 2.1261283615 2.1578616206 2.1895948798 2.2213281389 2.253061398 
2.2847946572 2.3165279163 2.3482611754 2.3799944345 2.4117276937 2.4434609528 2.4751942119 2.506927471 2.5386607302 
2.5703939893 2.6021272484 2.6338605076 2.6655937667 2.6973270258 2.7290602849 2.7607935441 2.7925268032 2.8242600623 
2.8559933214 2.8877265806 2.9194598397 2.9511930988 2.982926358 3.0146596171 3.0463928762 3.0781261353 3.1098593945 
3.1415926536 
_radius 1 100 double
3.3981103165e-16 0.013556132216 0.027064627653 0.040469459742 0.053702977581 0.066682951689 0.079312401561 0.091482301229 0.10307679578 
0.11398020255 0.12408487031 0.13329894092 0.14155317408 0.14880620715 0.15504787216 0.16030043244 0.16461778911 0.16808281239 
0.17080296727 0.17290437222 0.17452445068 0.17580349463 0.17687573672 0.17786077332 0.17885623493 0.17993244453 0.18112954854 
0.18245732572 0.18389755971 0.18540850747 0.18693074326 0.18839366887 0.18972224079 0.19084374451 0.1916945243 0.19222643698 
0.19241256592 0.19225154462 0.19176981218 0.19102131825 0.19008456402 0.18905727424 0.18804935694 0.18717512493 0.18654596422 
0.18626451077 0.18642075699 0.18708956285 0.18832837002 0.19017403333 0.19263859992 0.19570501289 0.19932433559 0.20341579997 
0.20787002938 0.21255481931 0.2173224083 0.22201731613 0.22648426042 0.23057600639 0.2341610625 0.23713094391 0.23940644298 
0.24094213078 0.24172827845 0.24178959303 0.24118060795 0.23997816796 0.23827202718 0.23615492642 0.23371349132 0.23102091219 
0.22813180861 0.22507919858 0.22187327192 0.21850172807 0.21493161674 0.21111269408 0.20698218569 0.2024706152 0.19750814025 
0.19203069313 0.18598516397 0.17933293464 0.17205132284 0.16413291042 0.15558319331 0.14641734023 0.13665696184 0.12632765002 
0.11545771625 0.10407815636 0.092223517464 0.079933141303 0.067252248427 0.054232483709 0.040931782305 0.027413639358 0.013746000429 
4.6672176396e-16 
_area 1 100 double
0 0.00044652759219 0.0017924426368 0.004051318566 0.0072293109323 0.011305896765 0.016216330032 0.021841383534 0.028007266003 
0.034495519145 0.041060408837 0.047450260271 0.053429210872 0.058796505583 0.063401272835 0.067151514417 0.070016851335 0.072025332268 
0.073255165805 0.073822668127 0.073868446455 0.073545529841 0.073049464236 0.072874675599 0.072904446044 0.073126305987 0.073486180414 
0.07397650728 0.074600214388 0.075360335657 0.076284654182 0.077417016883 0.078662338448 0.079962655568 0.081247008419 0.082455212995 
0.083551819559 0.084525253983 0.085387740437 0.086148145566 0.086795155622 0.087351255539 0.087867214892 0.088402478756 0.089019399975 
0.089786454307 0.090785412674 0.092136997118 0.094108709015 0.096772979671 0.10019231665 0.10430348795 0.10906502719 0.11439396855 
0.12016522785 0.12623000186 0.1324327305 0.1386153029 0.14459883378 0.15016169091 0.15505284961 0.15902939624 0.1618903077 
0.16350131789 0.16380976055 0.16284665316 0.16071575225 0.15757370294 0.15360828312 0.14902082723 0.14401482549 0.13878845242 
0.13352651596 0.12838720344 0.12348182219 0.11885302301 0.11446457483 0.11021263452 0.10595450231 0.10154212144 0.096850572125 
0.091797564735 0.086352540086 0.080535011505 0.074403589412 0.068039497864 0.061529668559 0.054953936893 0.048379334618 0.041862812898 
0.035461292817 0.029244472539 0.023304011777 0.01775505225 0.012730396881 0.0083702797288 0.0048106555286 0.0021718005044 0.00054813886118 
7.978746203e-17 
