# vtk DataFile Version 5.1
vtk output
ASCII
DATASET POLYDATA
POINTS 100 float
0.0777225 0.062304 0.699149 0.0780216 0.0623592 0.698807 0.0789204 0.0623455 0.697637 
0.0803479 0.0622625 0.695643 0.0821928 0.0621109 0.692836 0.0843128 0.0618935 0.689229 
0.0865466 0.0616167 0.684838 0.0887263 0.0612906 0.679685 0.0906903 0.0609301 0.673791 
0.0922945 0.0605534 0.667183 0.093421 0.0601816 0.65989 0.0939835 0.0598362 0.651946 
0.0939295 0.0595361 0.643388 0.0932391 0.0592952 0.634259 0.0919203 0.0591189 0.624607 
0.0900033 0.0590021 0.614483 0.0875327 0.0589277 0.603944 0.0845602 0.0588666 0.593047 
0.081138 0.0587791 0.581849 0.0773136 0.0586177 0.570405 0.0731273 0.0583315 0.558762 
0.0686114 0.0578712 0.546959 0.0637914 0.0571944 0.53502 0.0586888 0.0562712 0.522958 
0.053325 0.0550884 0.510769 0.0477246 0.0536526 0.498438 0.0419182 0.0519909 0.485933 
0.0359443 0.0501506 0.473217 0.0298481 0.0481956 0.460243 0.0236802 0.0462021 0.446965 
0.0174924 0.0442521 0.433338 0.0113327 0.0424268 0.419324 0.00524085 0.0408 0.404892 
-0.000757008 0.0394319 0.390022 -0.00665124 0.0383648 0.374703 -0.0124501 0.0376206 0.358933 
-0.0181787 0.0372005 0.342714 -0.0238752 0.0370872 0.326051 -0.0295845 0.0372481 0.308948 
-0.0353508 0.0376417 0.291401 -0.0412085 0.0382227 0.273402 -0.0471735 0.0389492 0.254931 
-0.0532357 0.0397873 0.235963 -0.0593534 0.0407159 0.216466 -0.0654508 0.0417287 0.196404 
-0.071419 0.0428339 0.175749 -0.0771207 0.0440528 0.154478 -0.0823978 0.0454151 0.132585 
-0.0870818 0.0469544 0.110081 -0.0910065 0.0487013 0.0870017 -0.0940199 0.0506777 0.0634065 
-0.0959967 0.0528917 0.0393774 -0.0968482 0.0553337 0.0150163 -0.096529 0.057974 -0.00956032 
-0.095041 0.0607635 -0.0342289 -0.0924324 0.0636359 -0.0588661 -0.0887934 0.0665117 -0.083357 
-0.0842488 0.0693043 -0.107602 -0.078947 0.0719257 -0.131523 -0.0730482 0.0742938 -0.155066 
-0.0667124 0.0763376 -0.178203 -0.0600873 0.0780024 -0.200927 -0.0532987 0.079252 -0.223254 
-0.0464437 0.0800703 -0.245212 -0.0395864 0.0804599 -0.266836 -0.0327576 0.0804392 -0.288161 
-0.0259578 0.0800383 -0.309212 -0.0191622 0.0792941 -0.330004 -0.0123292 0.0782448 -0.350533 
-0.00540866 0.076925 -0.370775 0.00164855 0.075362 -0.390691 0.0088817 0.0735733 -0.410222 
0.016313 0.0715654 -0.429302 0.0239419 0.069335 -0.447856 0.0317424 0.0668711 -0.465809 
0.0396621 0.0641584 -0.483093 0.0476241 0.0611817 -0.499648 0.0555308 0.0579303 -0.51543 
0.0632696 0.0544022 -0.530407 0.0707197 0.0506072 -0.544565 0.0777592 0.0465696 -0.557903 
0.0842727 0.0423283 -0.57043 0.0901577 0.0379362 -0.582164 0.0953308 0.0334585 -0.593129 
0.0997322 0.0289683 -0.603346 0.103329 0.0245433 -0.612839 0.106115 0.0202605 -0.621627 
0.108115 0.0161916 -0.629723 0.109378 0.0123992 -0.637137 0.109978 0.00893314 -0.643878 
0.11001 0.00582834 -0.649949 0.109581 0.00310427 -0.655354 0.108811 0.00076529 -0.660098 
0.107822 -0.00119745 -0.664186 0.106737 -0.00280314 -0.667627 0.105669 -0.00407764 -0.670428 
0.10472 -0.00504947 -0.6726 0.103973 -0.00574577 -0.67415 0.103492 -0.00618869 -0.675085 
0.103316 -0.00639247 -0.67541 
LINES 2 100
OFFSETS vtktypeint64
0 100 
CONNECTIVITY vtktypeint64
0 1 2 3 4 5 6 7 8 
9 10 11 12 13 14 15 16 17 
18 19 20 21 22 23 24 25 26 
27 28 29 30 31 32 33 34 35 
36 37 38 39 40 41 42 43 44 
45 46 47 48 49 50 51 52 53 
54 55 56 57 58 59 60 61 62 
63 64 65 66 67 68 69 70 71 
72 73 74 75 76 77 78 79 80 
81 82 83 84 85 86 87 88 89 
90 91 92 93 94 95 96 97 98 
99 
POINT_DATA 100
FIELD FieldData 3
_theta 1 100 double
0 0.031733259127 0.063466518254 0.095199777382 0.12693303651 0.15866629564 0.19039955476 0.22213281389 0.25386607302 
0.28559933214 0.31733259127 0.3490658504 0.38079910953 0.41253236865 0.44426562778 0.47599888691 0.50773214603 0.53946540516 
0.57119866429 0.60293192342 0.63466518254 0.66639844167 0.6981317008 0.72986495992 0.76159821905 0.79333147818 0.82506473731 
0.85679799643 0.88853125556 0.92026451469 0.95199777382 0.98373103294 1.0154642921 1.0471975512 1.0789308103 1.1106640695 
1.1423973286 1.1741305877 1.2058638468 1.237597106 1.2693303651 1.3010636242 1.3327968833 1.3645301425 1.3962634016 
1.4279966607 1.4597299198 1.491463179 1.5231964381 1.5549296972 1.5866629564 1.6183962155 1.6501294746 1.6818627337 
1.7135959929 1.745329252 1.7770625111 1.8087957702 1.8405290294 1.8722622885 1.9039955476 1.9357288068 1.9674620659 
1.999195325 2.0309285841 2.0626618433 2.0943951024 2.1261283615 2.1578616206 2.1895948798 2.2213281389 2.253061398 
2.2847946572 2.3165279163 2.3482611754 2.3799944345 2.4117276937 2.4434609528 2.4751942119 2.506927471 2.5386607302 
2.5703939893 2.6021272484 2.6338605076 2.6655937667 2.6973270258 2.7290602849 2.7607935441 2.7925268032 2.8242600623 
2.8559933214 2.8877265806 2.9194598397 2.9511930988 2.982926358 3.0146596171 3.0463928762 3.0781261353 3.1098593945 
3.1415926536 
_radius 1 100 double
1.3344523127e-15 0.014491725493 0.028842079487 0.042911040341 0.056578400564 0.069751224802 0.082368167195 0.094400248154 0.10584817721 
0.1167367759 0.12710742377 0.13700966276 0.1464931229 0.15560078046 0.1643642679 0.17280158749 0.18091720495 0.18870416619 
0.19614761692 0.20322893942 0.20992969051 0.2162346633 0.2221336839 0.22762209584 0.23270013965 0.23737150621 0.24164125574 
0.24551319313 0.24898683392 0.25205433146 0.25469803862 0.25688951559 0.25859059959 0.25975665716 0.26034157171 0.26030362899 
0.25961136764 0.25824860999 0.25621815589 0.25354389746 0.25027134228 0.24646670178 0.24221480894 0.23761616966 0.23278341912 
0.22783736078 0.2229026506 0.2181031127 0.21355668359 0.2093700941 0.20563358711 0.20241618889 0.19976221672 0.1976896683 
0.19619074147 0.19523402201 0.19476726539 0.19471978327 0.19500442667 0.19552037369 0.19615823792 0.19680794797 0.19736823949 
0.1977557068 0.19791161735 0.19780557461 0.19743589393 0.19682693468 0.19602380336 0.19508506521 0.19407437555 0.19305209505 
0.1920678604 0.1911547214 0.19032492334 0.18956693889 0.18884322113 0.18808848212 0.18720893033 0.18608343935 0.18456770978 
0.18250201124 0.17972223842 0.17607313267 0.17142191677 0.16567040991 0.15876391783 0.15069572418 0.14150669955 0.13128025232 
0.12013344585 0.1082055266 0.095645326099 0.082599039496 0.069199768382 0.055559949459 0.041767373119 0.027884969109 0.013954010641 
4.9114378954e-16 
_area 1 100 double
0 0.00060730391791 0.0023992454167 0.0052899176947 0.0091486216245 0.013815730126 0.019119860654 0.024892878224 0.030980348481 
0.037247156148 0.043580175471 0.049890662723 0.056117809363 0.062232813821 0.068241553509 0.074183853488 0.080127687862 0.086156728615 
0.092350240931 0.098758593174 0.10538642563 0.11219638594 0.11912938688 0.1261240923 0.13312527155 0.14008257037 0.1469451444 
0.15365480269 0.16013733855 0.16629303977 0.17199093246 0.17707222447 0.18136485428 0.18470503701 0.18695778502 0.1880301437 
0.18787619365 0.18649667702 0.18393661879 0.18028292009 0.17566203648 0.17023619075 0.16419560608 0.1577449419 0.15108592031 
0.14440343151 0.13786135599 0.13160443984 0.12575634609 0.12040920735 0.11560860217 0.11134332279 0.10755142091 0.10414818494 
0.10106649353 0.098291719025 0.095889403619 0.094127493705 0.093037185746 0.092318705734 0.091809524006 0.091302802817 0.090669593578 
0.089812271061 0.088664859062 0.087198381944 0.085429289341 0.08342737651 0.081314890629 0.079248833123 0.077387971375 0.075861713968 
0.074755417564 0.074108614407 0.073923021062 0.074171216194 0.074797431336 0.075710248384 0.07677024311 0.077782756391 0.078505407045 
0.078671560177 0.078024458508 0.076354339617 0.073530867613 0.06952451053 0.064412750895 0.058370070184 0.051644133909 0.044523727892 
0.037305653705 0.03026711838 0.023647342451 0.017638738231 0.012385949998 0.0079906596202 0.0045200601004 0.0020164322555 0.00050519153642 
4.5159081822e-17 
