# vtk DataFile Version 5.1
vtk output
ASCII
DATASET POLYDATA
POINTS 100 float
0.113377 0.0424617 -0.636831 0.113284 0.0425964 -0.637151 0.113026 0.0430968 -0.638142 
0.112607 0.0438904 -0.639626 0.112031 0.0448687 -0.641327 0.111301 0.0459011 -0.642898 
0.110417 0.0468528 -0.643968 0.109375 0.0476027 -0.644172 0.108162 0.0480602 -0.643197 
0.106756 0.0481787 -0.640805 0.105122 0.047963 -0.63686 0.103216 0.0474721 -0.631329 
0.100978 0.0468139 -0.624282 0.0983414 0.0461349 -0.615872 0.0952325 0.0456057 -0.606308 
0.0915761 0.0454021 -0.595824 0.0873028 0.0456874 -0.584648 0.0823555 0.0465944 -0.572972 
0.0766974 0.0482117 -0.560928 0.0703181 0.0505746 -0.548581 0.0632388 0.0536613 -0.535921 
0.055515 0.0573952 -0.522879 0.047236 0.0616527 -0.509342 0.0385204 0.0662747 -0.495176 
0.0295091 0.0710812 -0.480256 0.0203546 0.0758867 -0.464487 0.0112079 0.0805141 -0.447824 
0.00220553 0.0848076 -0.430285 -0.00654397 0.0886407 -0.41195 -0.0149707 0.0919211 -0.392954 
-0.0230505 0.0945914 -0.373467 -0.0308074 0.0966255 -0.353677 -0.0383104 0.0980237 -0.333757 
-0.0456645 0.098805 -0.313844 -0.0529967 0.0990001 -0.29402 -0.0604385 0.0986444 -0.274297 
-0.068106 0.0977737 -0.254614 -0.07608 0.0964211 -0.234846 -0.084389 0.0946172 -0.214818 
-0.0929966 0.0923913 -0.19433 -0.101795 0.0897743 -0.173184 -0.110605 0.0868025 -0.151212 
-0.119188 0.0835201 -0.128301 -0.127258 0.079981 -0.104413 -0.134508 0.0762493 -0.0795939 
-0.140631 0.0723969 -0.0539743 -0.145349 0.0685 -0.0277583 -0.148441 0.0646341 -0.00120592 
-0.149756 0.0608685 0.0253917 -0.149234 0.0572607 0.0517406 -0.146909 0.0538525 0.0775708 
-0.142904 0.0506671 0.10266 -0.137421 0.0477098 0.126851 -0.130719 0.0449695 0.15006 
-0.123095 0.0424238 0.172274 -0.114851 0.0400447 0.193547 -0.106271 0.0378057 0.21398 
-0.097598 0.035688 0.2337 -0.0890134 0.033686 0.252843 -0.0806306 0.0318105 0.271527 
-0.072491 0.0300894 0.289843 -0.0645709 0.0285654 0.307838 -0.0567941 0.0272913 0.325515 
-0.0490503 0.0263235 0.342837 -0.0412157 0.0257139 0.359736 -0.0331737 0.0255024 0.376127 
-0.0248335 0.0257095 0.391924 -0.0161433 0.026332 0.407059 -0.00709833 0.0273402 0.42149 
0.00225791 0.0286795 0.435213 0.011839 0.0302734 0.448264 0.0215259 0.0320301 0.460717 
0.0311806 0.0338509 0.472673 0.0406618 0.0356381 0.484253 0.0498393 0.0373041 0.495578 
0.0586063 0.0387776 0.506758 0.0668874 0.0400088 0.517877 0.0746413 0.0409714 0.528987 
0.0818595 0.0416611 0.540103 0.0885599 0.042093 0.5512 0.0947771 0.0422958 0.562222 
0.100552 0.0423056 0.573088 0.105922 0.0421595 0.583703 0.110909 0.0418897 0.593972 
0.115519 0.0415198 0.603806 0.119738 0.0410631 0.613132 0.123534 0.0405227 0.621897 
0.126867 0.0398945 0.63007 0.129693 0.0391714 0.637637 0.13198 0.0383481 0.644599 
0.133714 0.0374264 0.650964 0.134907 0.0364189 0.656738 0.135599 0.0353518 0.661925 
0.135863 0.0342648 0.666518 0.135796 0.0332091 0.670498 0.13551 0.0322436 0.673839 
0.135123 0.0314291 0.676507 0.134745 0.0308219 0.678467 0.134465 0.0304673 0.67969 
0.134342 0.0303948 0.680154 
LINES 2 100
OFFSETS vtktypeint64
0 100 
CONNECTIVITY vtktypeint64
0 1 2 3 4 5 6 7 8 
9 10 11 12 13 14 15 16 17 
18 19 20 21 22 23 24 25 26 
27 28 29 30 31 32 33 34 35 
36 37 38 39 40 41 42 43 44 
45 46 47 48 49 50 51 52 53 
54 55 56 57 58 59 60 61 62 
63 64 65 66 67 68 69 70 71 
72 73 74 75 76 77 78 79 80 
81 82 83 84 85 86 87 88 89 
90 91 92 93 94 95 96 97 98 
99 
POINT_DATA 100
FIELD FieldData 3
_theta 1 100 double
0 0.031733259127 0.063466518254 0.095199777382 0.12693303651 0.15866629564 0.19039955476 0.22213281389 0.25386607302 
0.28559933214 0.31733259127 0.3490658504 0.38079910953 0.41253236865 0.44426562778 0.47599888691 0.50773214603 0.53946540516 
0.57119866429 0.60293192342 0.63466518254 0.66639844167 0.6981317008 0.72986495992 0.76159821905 0.79333147818 0.82506473731 
0.85679799643 0.88853125556 0.92026451469 0.95199777382 0.98373103294 1.0154642921 1.0471975512 1.0789308103 1.1106640695 
1.1423973286 1.1741305877 1.2058638468 1.237597106 1.2693303651 1.3010636242 1.3327968833 1.3645301425 1.3962634016 
1.4279966607 1.4597299198 1.491463179 1.5231964381 1.5549296972 1.5866629564 1.6183962155 1.6501294746 1.6818627337 
1.7135959929 1.745329252 1.7770625111 1.8087957702 1.8405290294 1.8722622885 1.9039955476 1.9357288068 1.9674620659 
1.999195325 2.0309285841 2.0626618433 2.0943951024 2.1261283615 2.1578616206 2.1895948798 2.2213281389 2.253061398 
2.2847946572 2.3165279163 2.3482611754 2.3799944345 2.4117276937 2.4434609528 2.4751942119 2.506927471 2.5386607302 
2.5703939893 2.6021272484 2.6338605076 2.6655937667 2.6973270258 2.7290602849 2.7607935441 2.7925268032 2.8242600623 
2.8559933214 2.8877265806 2.9194598397 2.9511930988 2.982926358 3.0146596171 3.0463928762 3.0781261353 3.1098593945 
3.1415926536 
_radius 1 100 double
9.1319640052e-16 0.017300430069 0.034419133103 0.051183896175 0.067448314208 0.083099042168 0.098057240211 0.11227408284 0.12572116872 
0.13837786396 0.15021863136 0.16120363597 0.17127514852 0.18036079007 0.18838302173 0.19527294774 0.20098569707 0.20551442516 
0.20890031803 0.21123683097 0.21266757143 0.21337837383 0.2135848101 0.21351652842 0.21339972507 0.2134391303 0.21380118831 
0.21460029864 0.2158896972 0.21765780039 0.21983004986 0.22227591706 0.22482073372 0.22726197354 0.22938916836 0.2310058661 
0.2319513347 0.23211948668 0.23147283284 0.23004986614 0.2279647133 0.22539820142 0.22258036319 0.21976648649 0.2172114625 
0.21514827417 0.21377422912 0.2132441009 0.21366628939 0.21509879796 0.21754502965 0.22095199619 0.22521353761 0.23017914405 
0.23566697491 0.24147893224 0.24741581128 0.25329079654 0.25893974552 0.26422714679 0.26904747847 0.27332264958 0.27699692512 
0.28003102593 0.28239694713 0.28407455018 0.28505031538 0.28531797847 0.28488027521 0.2837507691 0.2819547565 0.27952850467 
0.27651653084 0.27296718326 0.26892728387 0.26443683684 0.25952467066 0.254205447 0.24847803879 0.24232513431 0.23571408145 
0.22859920286 0.22092582399 0.21263597681 0.20367529029 0.19400016407 0.18358411866 0.17242228989 0.1605333443 0.14795853784 
0.13475812588 0.12100578282 0.10678203446 0.092167867233 0.077239589897 0.062065674893 0.046705780934 0.031211618832 0.01562895669 
1.2625723783e-15 
_area 1 100 double
0 0.00059146587928 0.002373485849 0.0053654744992 0.0095860259456 0.015029715902 0.021640122451 0.029290875846 0.037782097499 
0.046851801524 0.056197228531 0.065499775695 0.074447434284 0.082750375389 0.090149055895 0.096418792532 0.10137719849 0.10489891551 
0.10693637612 0.10753914962 0.10686297718 0.10527228788 0.10352201583 0.10140380209 0.099052334351 0.09675583348 0.094948116037 
0.094168863616 0.094716553198 0.096524401457 0.099428396131 0.10315488144 0.10735919307 0.11168402578 0.11580090948 0.11938477491 
0.12214620187 0.12389211111 0.12457106751 0.12422334459 0.12294267452 0.1209812347 0.11863785944 0.11627484142 0.11422424789 
0.11280117845 0.11238848625 0.11324643877 0.11499874861 0.11766147444 0.12135006444 0.12613186687 0.13200874326 0.13892920499 
0.14677631959 0.15534523553 0.16435152679 0.17346768318 0.18236258019 0.19073299658 0.19832699595 0.20495911951 0.21051526715 
0.21494550276 0.21824515482 0.22042765091 0.22149701667 0.22143206033 0.22019187365 0.21774108975 0.21408198013 0.20927770119 
0.20345584593 0.19678970345 0.18946437077 0.18164314904 0.17344961198 0.16496950732 0.15626373593 0.14738029324 0.13835895376 
0.12923009932 0.12001302717 0.11071827821 0.10135472062 0.091938422914 0.082499465187 0.073085002901 0.063759788926 0.054606452845 
0.045726579071 0.037241421673 0.029289859742 0.022021930089 0.015588431786 0.010129144608 0.0057628567735 0.0025814365663 0.00064831662754 
3.9778717975e-17 
