# vtk DataFile Version 5.1
vtk output
ASCII
DATASET POLYDATA
POINTS 100 float
0.172318 -0.0243432 -0.685314 0.172144 -0.0243993 -0.685199 0.171662 -0.0243603 -0.684883 
0.170847 -0.0242154 -0.684301 0.169662 -0.0239465 -0.683351 0.168063 -0.0235264 -0.681908 
0.166002 -0.0229169 -0.67984 0.163439 -0.0220681 -0.677023 0.160342 -0.0209188 -0.673353 
0.156694 -0.0193989 -0.668762 0.152493 -0.0174334 -0.663217 0.147757 -0.014949 -0.65673 
0.142512 -0.0118815 -0.649345 0.136801 -0.00818427 -0.641134 0.130667 -0.00383631 -0.632181 
0.124159 0.00115119 -0.622571 0.117321 0.0067306 -0.612372 0.110192 0.0128167 -0.601631 
0.102805 0.0192895 -0.590357 0.0951875 0.0259999 -0.578529 0.0873643 0.03278 -0.566091 
0.0793601 0.0394543 -0.552964 0.0712036 0.045853 -0.539057 0.0629308 0.0518246 -0.524283 
0.0545862 0.0572474 -0.508566 0.0462235 0.0620377 -0.491864 0.0379029 0.066154 -0.474167 
0.0296872 0.0695972 -0.455508 0.0216362 0.0724061 -0.43596 0.0138004 0.0746493 -0.415631 
0.00621484 0.076414 -0.394647 -0.00110553 0.0777937 -0.373149 -0.00816798 0.0788752 -0.351267 
-0.0150014 0.0797276 -0.329115 -0.0216519 0.0803942 -0.306773 -0.0281759 0.0808874 -0.284287 
-0.0346296 0.081189 -0.261659 -0.0410583 0.0812532 -0.238857 -0.0474845 0.0810147 -0.215819 
-0.0538981 0.0803982 -0.192468 -0.0602498 0.0793298 -0.168725 -0.066448 0.0777486 -0.144521 
-0.0723612 0.0756159 -0.119817 -0.0778251 0.0729228 -0.0946065 -0.0826548 0.0696938 -0.0689278 
-0.0866595 0.0659873 -0.0428606 -0.0896605 0.0618917 -0.0165237 -0.0915077 0.0575195 0.0099331 
-0.092095 0.0529986 0.0363411 -0.0913722 0.0484631 0.0625253 -0.0893505 0.0440436 0.0883179 
-0.086103 0.0398595 0.11357 -0.0817586 0.0360127 0.138161 -0.0764906 0.032584 0.162002 
-0.0705005 0.0296319 0.185041 -0.0640004 0.0271935 0.207258 -0.0571939 0.0252876 0.22866 
-0.0502593 0.0239183 0.249276 -0.0433369 0.0230789 0.269146 -0.0365204 0.0227551 0.288317 
-0.0298547 0.0229276 0.306837 -0.02334 0.023573 0.324747 -0.0169404 0.0246635 0.342085 
-0.0105965 0.0261652 0.358882 -0.00424055 0.0280368 0.375168 0.00218878 0.0302276 0.390972 
0.00873314 0.0326769 0.406329 0.0154049 0.0353143 0.421277 0.0221821 0.0380619 0.435861 
0.0290086 0.0408379 0.450134 0.035799 0.043562 0.464147 0.0424479 0.046161 0.47795 
0.0488415 0.048575 0.49158 0.0548706 0.0507627 0.505063 0.0604426 0.0527048 0.518401 
0.0654913 0.0544054 0.531575 0.0699829 0.055891 0.544539 0.073918 0.0572069 0.557226 
0.0773288 0.0584105 0.569552 0.080273 0.0595644 0.581423 0.082824 0.0607275 0.592744 
0.0850608 0.0619476 0.603428 0.0870571 0.0632544 0.613402 0.0888723 0.0646557 0.62262 
0.0905458 0.0661359 0.63106 0.0920941 0.0676577 0.638728 0.0935121 0.0691674 0.645656 
0.0947779 0.0706014 0.651893 0.0958603 0.0718949 0.657504 0.0967268 0.0729908 0.662555 
0.0973528 0.0738476 0.667107 0.0977286 0.074445 0.671209 0.0978643 0.0747873 0.674894 
0.0977907 0.074903 0.678173 0.097558 0.0748417 0.681041 0.0972301 0.0746676 0.683475 
0.096877 0.0744513 0.685443 0.0965661 0.0742606 0.686908 0.096353 0.0741518 0.687839 
0.0962744 0.0741619 0.688213 
LINES 2 100
OFFSETS vtktypeint64
0 100 
CONNECTIVITY vtktypeint64
0 1 2 3 4 5 6 7 8 
9 10 11 12 13 14 15 16 17 
18 19 20 21 22 23 24 25 26 
27 28 29 30 31 32 33 34 35 
36 37 38 39 40 41 42 43 44 
45 46 47 48 49 50 51 52 53 
54 55 56 57 58 59 60 61 62 
63 64 65 66 67 68 69 70 71 
72 73 74 75 76 77 78 79 80 
81 82 83 84 85 86 87 88 89 
90 91 92 93 94 95 96 97 98 
99 
POINT_DATA 100
FIELD FieldData 3
_theta 1 100 double
0 0.031733259127 0.063466518254 0.095199777382 0.12693303651 0.15866629564 0.19039955476 0.22213281389 0.25386607302 
0.28559933214 0.31733259127 0.3490658504 0.38079910953 0.41253236865 0.44426562778 0.47599888691 0.50773214603 0.53946540516 
0.57119866429 0.60293192342 0.63466518254 0.66639844167 0.6981317008 0.72986495992 0.76159821905 0.79333147818 0.82506473731 
0.85679799643 0.88853125556 0.92026451469 0.95199777382 0.98373103294 1.0154642921 1.0471975512 1.0789308103 1.1106640695 
1.1423973286 1.1741305877 1.2058638468 1.237597106 1.2693303651 1.3010636242 1.3327968833 1.3645301425 1.3962634016 
1.4279966607 1.4597299198 1.491463179 1.5231964381 1.5549296972 1.5866629564 1.6183962155 1.6501294746 1.6818627337 
1.7135959929 1.745329252 1.7770625111 1.8087957702 1.8405290294 1.8722622885 1.9039955476 1.9357288068 1.9674620659 
1.999195325 2.0309285841 2.0626618433 2.0943951024 2.1261283615 2.1578616206 2.1895948798 2.2213281389 2.253061398 
2.2847946572 2.3165279163 2.3482611754 2.3799944345 2.4117276937 2.4434609528 2.4751942119 2.506927471 2.5386607302 
2.5703939893 2.6021272484 2.6338605076 2.6655937667 2.6973270258 2.7290602849 2.7607935441 2.7925268032 2.8242600623 
2.8559933214 2.8877265806 2.9194598397 2.9511930988 2.982926358 3.0146596171 3.0463928762 3.0781261353 3.1098593945 
3.1415926536 
_radius 1 100 double
5.582684061e-16 0.016212079493 0.032196389826 0.047733679106 0.062629577191 0.076723540316 0.089894108567 0.10206028458 0.11317944113 
0.12324260245 0.13226812717 0.14029474253 0.14737463107 0.15356699907 0.15893239806 0.16352808483 0.1674048375 0.1706057509 
0.17316745269 0.17512382093 0.17651169876 0.17737747644 0.17778297562 0.17780899047 0.1775551631 0.17713554076 0.1766700536 
0.1762730791 0.17604099069 0.17604091392 0.17630274689 0.17681590381 0.17753131639 0.17836817659 0.17922414307 0.17998758878 
0.18055073062 0.18082265062 0.18074107593 0.18028151049 0.17946223952 0.1783441409 0.17702522181 0.17563111331 0.17430380702 
0.17319106877 0.17243803775 0.17218098858 0.17254188501 0.17362186549 0.17549250754 0.17818540522 0.18168243519 0.1859100661 
0.19074062499 0.19600170023 0.20149248045 0.20700378446 0.21233775125 0.21732385802 0.22182950321 0.2257649527 0.22908345552 
0.23177768051 0.2338734715 0.23542157204 0.23648776986 0.23714204772 0.23744771451 0.23745183195 0.23717827233 0.23662436112 
0.23576140387 0.23453869933 0.23289010771 0.23074198487 0.22802131178 0.2246630626 0.22061614623 0.21584752157 0.21034426895 
0.20411350846 0.19718014816 0.18958260029 0.18136687054 0.17257978085 0.16326242286 0.15344509414 0.14314480407 0.13236592469 
0.12110383536 0.10935071468 0.097102216753 0.084363744309 0.071155337961 0.057514651637 0.0434978895 0.029178840556 0.014646272291 
2.9614841021e-16 
_area 1 100 double
0 0.0006865069269 0.0027084017224 0.0059570815546 0.010264796107 0.015421400612 0.021192694572 0.027337417262 0.033621213272 
0.039827329552 0.045764802224 0.051275060701 0.056237259636 0.060571656832 0.06423961654 0.067238940859 0.069594486057 0.071346069188 
0.072537508641 0.073210902741 0.073408212842 0.073179020735 0.072591005901 0.071738545691 0.070744649738 0.069753025715 0.068909349099 
0.068334611465 0.06810414367 0.068247372948 0.068759644242 0.069609826279 0.070743746405 0.072088648764 0.073558779232 0.075060822249 
0.076499611225 0.07778527134 0.078842750297 0.079623569506 0.08011669213 0.080352023545 0.080390129452 0.080300198101 0.080142380328 
0.079971993518 0.079864292025 0.07994248829 0.080391228627 0.081437921036 0.08329522895 0.086099254177 0.08988950566 0.09462490799 
0.10020410388 0.10647685524 0.11324275387 0.12023713889 0.12714003576 0.13363183837 0.13944699605 0.14439415839 0.14834817421 
0.15123007983 0.15300672646 0.15371856939 0.15349818416 0.15255539885 0.15113517809 0.14946526343 0.14771195839 0.14595375804 
0.14417377991 0.14227174386 0.14009344796 0.13746791648 0.13424095291 0.13029976874 0.1255881728 0.12011260773 0.11393899377 
0.10718100601 0.099981851628 0.092492856119 0.084852726465 0.077171413998 0.069522291397 0.061945360211 0.054461249747 0.047091180123 
0.03987513543 0.032882167464 0.026211558505 0.019987581813 0.014351627943 0.0094539027084 0.0054445045347 0.0024624617785 0.00062228984641 
9.7703409664e-17 
