# vtk DataFile Version 5.1
vtk output
ASCII
DATASET POLYDATA
POINTS 100 float
0.113598 -0.00404467 -0.613979 0.113598 -0.00410829 -0.614018 0.113612 -0.00412119 -0.614124 
0.11361 -0.00406095 -0.61422 0.113546 -0.00389335 -0.614188 0.113361 -0.0035755 -0.613877 
0.112989 -0.00305984 -0.613123 0.112367 -0.00229864 -0.611764 0.111432 -0.00124842 -0.609652 
0.110136 0.000125847 -0.606669 0.108438 0.00184745 -0.602736 0.106314 0.00392556 -0.597815 
0.103749 0.00635421 -0.59191 0.100738 0.00911259 -0.58506 0.0972849 0.0121666 -0.577332 
0.0933933 0.0154716 -0.568806 0.0890688 0.0189759 -0.559568 0.0843145 0.0226247 -0.549695 
0.0791318 0.0263643 -0.539246 0.0735212 0.0301456 -0.528262 0.067485 0.0339267 -0.516756 
0.0610308 0.0376751 -0.504723 0.0541757 0.041368 -0.492141 0.0469498 0.0449914 -0.47898 
0.0393985 0.0485384 -0.465208 0.0315837 0.0520061 -0.450803 0.0235819 0.0553922 -0.435759 
0.0154817 0.0586917 -0.420085 0.00737755 0.0618935 -0.403812 -0.000635864 0.0649783 -0.386985 
-0.0084712 0.067917 -0.369662 -0.0160548 0.0706717 -0.351905 -0.0233321 0.0731966 -0.333773 
-0.0302704 0.0754413 -0.315313 -0.0368595 0.077355 -0.296556 -0.0431092 0.0788908 -0.277512 
-0.049044 0.0800103 -0.258174 -0.0546962 0.0806881 -0.238515 -0.060097 0.0809143 -0.218497 
-0.0652685 0.0806968 -0.198082 -0.0702156 0.0800611 -0.177233 -0.074921 0.079048 -0.155929 
-0.0793423 0.0777109 -0.13417 -0.0834128 0.0761109 -0.111981 -0.0870454 0.0743111 -0.0894137 
-0.0901394 0.0723715 -0.066547 -0.09259 0.0703438 -0.0434792 -0.0942977 0.0682678 -0.0203228 
-0.0951788 0.066169 0.00280451 -0.0951734 0.0640582 0.0257886 -0.094252 0.0619336 0.048527 
-0.0924177 0.059784 0.070935 -0.0897061 0.0575933 0.092949 -0.0861811 0.0553469 0.114528 
-0.0819285 0.0530363 0.135649 -0.0770468 0.050665 0.156307 -0.0716385 0.0482514 0.176505 
-0.0658009 0.0458308 0.196249 -0.0596188 0.0434548 0.215541 -0.0531598 0.0411888 0.234376 
-0.0464726 0.0391069 0.25274 -0.0395879 0.037286 0.270609 -0.0325227 0.0357987 0.287952 
-0.025286 0.034706 0.304736 -0.0178861 0.0340514 0.320934 -0.0103369 0.0338557 0.336528 
-0.00266454 0.034115 0.351521 0.0050898 0.0347994 0.365933 0.0128683 0.0358565 0.379809 
0.0205983 0.0372145 0.393216 0.028197 0.0387896 0.406237 0.0355772 0.0404923 0.418964 
0.0426551 0.0422353 0.431494 0.0493571 0.04394 0.443913 0.0556268 0.0455421 0.456289 
0.0614289 0.0469952 0.468665 0.0667509 0.0482723 0.481054 0.0716022 0.0493646 0.493434 
0.0760105 0.050279 0.50575 0.0800153 0.0510336 0.517919 0.0836616 0.0516524 0.529834 
0.086992 0.0521605 0.541378 0.09004 0.0525788 0.55243 0.0928261 0.0529212 0.562874 
0.0953548 0.0531923 0.572613 0.0976156 0.0533879 0.581569 0.0995864 0.0534964 0.589692 
0.101239 0.0535027 0.596958 0.102546 0.0533917 0.603373 0.10349 0.0531531 0.608964 
0.104066 0.0527852 0.613775 0.104291 0.0522978 0.617865 0.104204 0.0517137 0.621297 
0.103864 0.0510681 0.624137 0.10335 0.0504061 0.626444 0.102749 0.0497794 0.628273 
0.102152 0.0492405 0.629668 0.101643 0.0488381 0.630664 0.101289 0.0486111 0.631284 
0.101134 0.0485848 0.631541 
LINES 2 100
OFFSETS vtktypeint64
0 100 
CONNECTIVITY vtktypeint64
0 1 2 3 4 5 6 7 8 
9 10 11 12 13 14 15 16 17 
18 19 20 21 22 23 24 25 26 
27 28 29 30 31 32 33 34 35 
36 37 38 39 40 41 42 43 44 
45 46 47 48 49 50 51 52 53 
54 55 56 57 58 59 60 61 62 
63 64 65 66 67 68 69 70 71 
72 73 74 75 76 77 78 79 80 
81 82 83 84 85 86 87 88 89 
90 91 92 93 94 95 96 97 98 
99 
POINT_DATA 100
FIELD FieldData 3
_theta 1 100 double
0 0.031733259127 0.063466518254 0.095199777382 0.12693303651 0.15866629564 0.19039955476 0.22213281389 0.25386607302 
0.28559933214 0.31733259127 0.3490658504 0.38079910953 0.41253236865 0.44426562778 0.47599888691 0.50773214603 0.53946540516 
0.57119866429 0.60293192342 0.63466518254 0.66639844167 0.6981317008 0.72986495992 0.76159821905 0.79333147818 0.82506473731 
0.85679799643 0.88853125556 0.92026451469 0.95199777382 0.98373103294 1.0154642921 1.0471975512 1.0789308103 1.1106640695 
1.1423973286 1.1741305877 1.2058638468 1.237597106 1.2693303651 1.3010636242 1.3327968833 1.3645301425 1.3962634016 
1.4279966607 1.4597299198 1.491463179 1.5231964381 1.5549296972 1.5866629564 1.6183962155 1.6501294746 1.6818627337 
1.7135959929 1.745329252 1.7770625111 1.8087957702 1.8405290294 1.8722622885 1.9039955476 1.9357288068 1.9674620659 
1.999195325 2.0309285841 2.0626618433 2.0943951024 2.1261283615 2.1578616206 2.1895948798 2.2213281389 2.253061398 
2.2847946572 2.3165279163 2.3482611754 2.3799944345 2.4117276937 2.4434609528 2.4751942119 2.506927471 2.5386607302 
2.5703939893 2.6021272484 2.6338605076 2.6655937667 2.6973270258 2.7290602849 2.7607935441 2.7925268032 2.8242600623 
2.8559933214 2.8877265806 2.9194598397 2.9511930988 2.982926358 3.0146596171 3.0463928762 3.0781261353 3.1098593945 
3.1415926536 
_radius 1 100 double
7.8946691723e-16 0.01441517699 0.028703758306 0.042740705619 0.056415108759 0.069634614898 0.082327081794 0.094439493315 0.10593469865 
0.11678687246 0.12697667035 0.13648690307 0.14529928664 0.15339257165 0.16074218631 0.16732143477 0.1731042124 0.17806906912 
0.18220425132 0.18551312087 0.18801916087 0.18976969971 0.19083754424 0.19131989749 0.19133423484 0.19101123829 0.19048542773 
0.18988464973 0.1893198505 0.18887640095 0.18860777245 0.1885319503 0.18863091675 0.18885372027 0.18912360762 0.18934909812 
0.18943791599 0.18931187533 0.18892046842 0.18825102991 0.18733377402 0.18624063846 0.18507774595 0.18397246661 0.18305741376 
0.18245475215 0.18226420118 0.18255666555 0.18337308681 0.18472624071 0.18660289092 0.18896490396 0.19174963098 0.19487097075 
0.19822255168 0.20168366132 0.2051275206 0.20843074475 0.21148254555 0.21419235891 0.21649496855 0.2183526611 0.21975436972 
0.22071210345 0.22125523848 0.22142348195 0.22125948119 0.22080207797 0.22008105966 0.21911396504 0.2179051359 0.21644683593 
0.21472192344 0.21270730627 0.21037730324 0.20770615915 0.20466930902 0.2012434429 0.19740581315 0.19313341545 0.18840262628 
0.18318962798 0.17747158705 0.17122820018 0.16444303733 0.15710419074 0.14920406042 0.14073852658 0.13170608409 0.12210758918 
0.11194705529 0.10123352105 0.08998358952 0.078223986926 0.065993500197 0.053343872119 0.040339530709 0.02705627689 0.013579186669 
9.6305172012e-16 
_area 1 100 double
0 0.00051443337976 0.0020507984403 0.0045869916128 0.0080823129414 0.012473137432 0.017669236338 0.023552071827 0.029975789464 
0.036771006544 0.043750995903 0.05071938941 0.057478144554 0.063834698723 0.06960827934 0.074636727327 0.07878574671 0.081961381117 
0.084124153236 0.085301024931 0.085590334946 0.085155636884 0.084206632365 0.082968547582 0.081646378949 0.080399325405 0.079341505024 
0.078561051949 0.078130905953 0.078094829032 0.078457580539 0.079196561293 0.080266318766 0.081589809214 0.083050643123 0.084500665143 
0.085784542026 0.086774675987 0.087405032662 0.087692108661 0.087735962999 0.087701398073 0.087784748751 0.088171982582 0.088993105752 
0.090288090595 0.092010958602 0.094074525873 0.096404491803 0.098973621484 0.10180773404 0.10496705181 0.10851218659 0.11246961657 
0.11681023582 0.12144233454 0.12621317665 0.13091929979 0.13532961069 0.1392189048 0.14240241806 0.14476226058 0.14626057162 
0.14693736143 0.14689318081 0.14625981209 0.14516664461 0.14371334422 0.14195640232 0.13990963671 0.13755408025 0.13485359418 
0.13177458506 0.12830699704 0.12447948754 0.12035931806 0.11603234658 0.11157012248 0.10700129138 0.10230310802 0.097415298694 
0.092265588758 0.08679441086 0.080972063716 0.074806788798 0.068344436833 0.061661252181 0.054852297532 0.048019256996 0.041261841241 
0.0346756051 0.02835565961 0.022402460278 0.016924978382 0.012038556067 0.0078579184832 0.0044881071796 0.0020164536622 0.00050738145656 
5.4336584943e-17 
