# vtk DataFile Version 5.1
vtk output
ASCII
DATASET POLYDATA
POINTS 100 float
0.104494 0.0440364 0.738813 0.104476 0.0440985 0.738304 0.104448 0.0441048 0.736603 
0.104373 0.0440575 0.733756 0.104196 0.043962 0.729831 0.103852 0.0438256 0.724919 
0.103276 0.0436582 0.719118 0.102413 0.0434718 0.712525 0.101225 0.0432799 0.705231 
0.0997023 0.0430969 0.697314 0.0978562 0.0429373 0.688832 0.095723 0.0428145 0.679825 
0.0933551 0.0427394 0.670319 0.090812 0.0427192 0.660327 0.0881494 0.0427558 0.649859 
0.0854089 0.0428446 0.638927 0.0826089 0.0429736 0.627549 0.07974 0.0431228 0.615756 
0.0767629 0.0432644 0.603594 0.0736132 0.0433636 0.591119 0.0702084 0.0433806 0.578395 
0.0664596 0.0432729 0.565489 0.0622842 0.0429986 0.552459 0.057619 0.0425209 0.539353 
0.0524305 0.0418113 0.526196 0.0467223 0.0408544 0.512988 0.0405372 0.0396512 0.499704 
0.033954 0.0382219 0.486295 0.0270788 0.0366071 0.472691 0.0200326 0.0348678 0.458814 
0.0129361 0.0330834 0.444582 0.00589411 0.0313479 0.429923 -0.001018 0.0297648 0.41478 
-0.00776461 0.0284404 0.399121 -0.0143542 0.0274762 0.382939 -0.0208379 0.0269618 0.366256 
-0.0273009 0.0269678 0.349112 -0.0338494 0.0275398 0.331563 -0.0405929 0.0286943 0.313667 
-0.0476248 0.0304174 0.295477 -0.0550041 0.0326647 0.277028 -0.0627402 0.0353652 0.258331 
-0.0707826 0.0384257 0.239366 -0.0790185 0.0417387 0.220085 -0.0872766 0.0451901 0.200414 
-0.0953391 0.048668 0.180263 -0.102959 0.0520702 0.159535 -0.109882 0.0553117 0.138142 
-0.115869 0.058329 0.116015 -0.120717 0.0610826 0.0931187 -0.12428 0.0635579 0.0694602 
-0.126478 0.0657617 0.0450904 -0.127303 0.0677189 0.0201059 -0.126816 0.0694662 -0.00535773 
-0.125137 0.0710453 -0.0311353 -0.12243 0.0724967 -0.0570455 -0.118882 0.0738535 -0.0829052 
-0.114684 0.0751371 -0.108544 -0.110011 0.0763539 -0.133819 -0.105005 0.0774947 -0.15862 
-0.0997646 0.0785359 -0.182877 -0.0943435 0.0794416 -0.206564 -0.0887496 0.0801677 -0.229687 
-0.0829544 0.0806663 -0.252285 -0.0769054 0.0808895 -0.27441 -0.0705412 0.0807937 -0.296122 
-0.063806 0.0803414 -0.317475 -0.0566638 0.0795033 -0.338508 -0.0491076 0.0782584 -0.359235 
-0.0411645 0.0765921 -0.379647 -0.0328956 0.0744959 -0.399711 -0.0243908 0.0719644 -0.419371 
-0.0157594 0.0689942 -0.438559 -0.00711823 0.0655832 -0.457202 0.00142039 0.0617305 -0.475231 
0.00976069 0.0574386 -0.492586 0.017832 0.0527157 -0.509226 0.0255942 0.0475796 -0.525124 
0.0330379 0.0420616 -0.540275 0.0401817 0.0362103 -0.554687 0.0470644 0.0300941 -0.568378 
0.053736 0.0238021 -0.581367 0.0602467 0.0174436 -0.593672 0.0666373 0.0111436 -0.6053 
0.072931 0.00503752 -0.616246 0.0791284 -0.000737085 -0.626493 0.0852058 -0.00604973 -0.636011 
0.0911176 -0.0107869 -0.644763 0.0968013 -0.014861 -0.652711 0.102184 -0.0182186 -0.659824 
0.107193 -0.0208447 -0.666081 0.111758 -0.0227651 -0.67148 0.115826 -0.0240442 -0.676036 
0.119357 -0.0247794 -0.679788 0.122329 -0.0250922 -0.682789 0.124738 -0.0251168 -0.685106 
0.126589 -0.0249872 -0.686809 0.127898 -0.0248242 -0.687964 0.128677 -0.0247233 -0.688627 
0.128939 -0.0247456 -0.688833 
LINES 2 100
OFFSETS vtktypeint64
0 100 
CONNECTIVITY vtktypeint64
0 1 2 3 4 5 6 7 8 
9 10 11 12 13 14 15 16 17 
18 19 20 21 22 23 24 25 26 
27 28 29 30 31 32 33 34 35 
36 37 38 39 40 41 42 43 44 
45 46 47 48 49 50 51 52 53 
54 55 56 57 58 59 60 61 62 
63 64 65 66 67 68 69 70 71 
72 73 74 75 76 77 78 79 80 
81 82 83 84 85 86 87 88 89 
90 91 92 93 94 95 96 97 98 
99 
POINT_DATA 100
FIELD FieldData 3
_theta 1 100 double
0 0.031733259127 0.063466518254 0.095199777382 0.12693303651 0.15866629564 0.19039955476 0.22213281389 0.25386607302 
0.28559933214 0.31733259127 0.3490658504 0.38079910953 0.41253236865 0.44426562778 0.47599888691 0.50773214603 0.53946540516 
0.57119866429 0.60293192342 0.63466518254 0.66639844167 0.6981317008 0.72986495992 0.76159821905 0.79333147818 0.82506473731 
0.85679799643 0.88853125556 0.92026451469 0.95199777382 0.98373103294 1.0154642921 1.0471975512 1.0789308103 1.1106640695 
1.1423973286 1.1741305877 1.2058638468 1.237597106 1.2693303651 1.3010636242 1.3327968833 1.3645301425 1.3962634016 
1.4279966607 1.4597299198 1.491463179 1.5231964381 1.5549296972 1.5866629564 1.6183962155 1.6501294746 1.6818627337 
1.7135959929 1.745329252 1.7770625111 1.8087957702 1.8405290294 1.8722622885 1.9039955476 1.9357288068 1.9674620659 
1.999195325 2.0309285841 2.0626618433 2.0943951024 2.1261283615 2.1578616206 2.1895948798 2.2213281389 2.253061398 
2.2847946572 2.3165279163 2.3482611754 2.3799944345 2.4117276937 2.4434609528 2.4751942119 2.506927471 2.5386607302 
2.5703939893 2.6021272484 2.6338605076 2.6655937667 2.6973270258 2.7290602849 2.7607935441 2.7925268032 2.8242600623 
2.8559933214 2.8877265806 2.9194598397 2.9511930988 2.982926358 3.0146596171 3.0463928762 3.0781261353 3.1098593945 
3.1415926536 
_radius 1 100 double
7.816041059e-16 0.013609810462 0.027161170178 0.040586452972 0.053814080369 0.066769090341 0.079375755102 0.091561982167 0.10326471668 
0.1144352621 0.12504345055 0.13507988902 0.14455593767 0.15350147115 0.16196072706 0.1699866622 0.17763430531 0.18495370815 
0.19198326857 0.19874433768 0.20523799549 0.2114446103 0.21732633197 0.22283214211 0.22790464099 0.23248748691 0.23653235012 
0.24000438579 0.24288552442 0.24517526432 0.24688905052 0.24805465299 0.24870714358 0.24888311729 0.24861480172 0.24792477388 
0.24682218177 0.24530150564 0.24334475425 0.24092742998 0.23802770443 0.23463732385 0.23077214502 0.22648006922 0.22184448375 
0.21698203925 0.21203464133 0.20715690942 0.20250183374 0.19820825837 0.1943932686 0.19115039335 0.18855173802 0.18665025817 
0.18547843066 0.18504167785 0.18530817877 0.18619967425 0.18758894395 0.1893077491 0.19116472701 0.19296854397 0.19455022049 
0.19578015459 0.19657804435 0.19691588344 0.19681505605 0.19633870657 0.19558049292 0.19465081839 0.19366175379 0.19271207353 
0.19187402382 0.19118345295 0.19063460886 0.19018021365 0.1897365024 0.18919203839 0.18841855933 0.18728201307 0.18565227062 
0.18341059117 0.1804545417 0.17670056524 0.172084655 0.16656163735 0.16010348846 0.15269703677 0.14434142439 0.13504580614 
0.12482784789 0.11371351692 0.10173837662 0.08895016414 0.075411996204 0.061205279954 0.04643139753 0.031211474354 0.015683937556 
5.7930206286e-16 
_area 1 100 double
0 0.00056791566186 0.0022546720978 0.0050104511701 0.0087557282385 0.013385567328 0.018774387498 0.024781141002 0.031255497964 
0.038045631696 0.045007651151 0.052016306004 0.058976302411 0.065832791829 0.072578387195 0.079253350006 0.08593620744 0.092724110166 
0.099705181471 0.10692824001 0.11437795393 0.12196418446 0.12953097031 0.13688408392 0.14383024396 0.15021805401 0.1559693036 
0.16108822692 0.16563894698 0.16969575358 0.17329407286 0.17641245179 0.17898630882 0.18093338426 0.1821772869 0.18266012428 
0.18233628547 0.18115928998 0.17906976472 0.17601328889 0.17197430523 0.16699979744 0.16121036446 0.15479670361 0.14800207965 
0.14109522361 0.13433914451 0.12795884385 0.12210865346 0.11684661384 0.11213486261 0.10787422856 0.103957152 0.10031920257 
0.096971781115 0.094002009483 0.091537822366 0.08969029924 0.088500882079 0.087922533398 0.087836218733 0.088077915513 0.088458832421 
0.088787383074 0.088894775304 0.088654126156 0.087992978195 0.086900833386 0.085428624993 0.083679757325 0.081814019121 0.080041866133 
0.078595864002 0.077584363628 0.077002527445 0.076872231483 0.077159651792 0.077646360582 0.078175589152 0.078580981135 0.078699713455 
0.078375535427 0.077458460034 0.075808724048 0.073310475968 0.069891713345 0.06554155646 0.060318118428 0.054345434056 0.047802068806 
0.040905666715 0.033897005161 0.027025280466 0.020534751659 0.014652424329 0.0095771445627 0.0054714342825 0.0024575526293 0.00061814377058 
2.4746809527e-17 
