# vtk DataFile Version 5.1
vtk output
ASCII
DATASET POLYDATA
POINTS 100 float
0.0951148 0.0603222 0.74405 0.095207 0.0605227 0.743679 0.0955046 0.0609452 0.742371 
0.0959585 0.0615459 0.740161 0.0964931 0.0622581 0.737104 0.0970152 0.0630003 0.733266 
0.0974243 0.0636862 0.728722 0.0976233 0.0642357 0.723541 0.0975294 0.0645833 0.717782 
0.0970817 0.0646865 0.71149 0.096247 0.0645284 0.704691 0.095021 0.0641191 0.697394 
0.0934265 0.0634916 0.689592 0.0915082 0.0626955 0.681272 0.0893245 0.0617883 0.672416 
0.0869389 0.060826 0.663012 0.0844099 0.0598538 0.653057 0.0817833 0.058899 0.642565 
0.0790856 0.0579664 0.631562 0.0763211 0.0570378 0.62009 0.0734717 0.056074 0.608201 
0.0705005 0.0550215 0.59595 0.0673571 0.0538207 0.58339 0.0639859 0.0524159 0.570562 
0.0603334 0.0507649 0.557494 0.056357 0.0488478 0.544191 0.0520299 0.0466731 0.530642 
0.0473456 0.0442799 0.516814 0.0423177 0.0417372 0.502665 0.0369781 0.0391393 0.488143 
0.0313716 0.0365975 0.4732 0.0255491 0.0342308 0.457796 0.0195597 0.0321555 0.441907 
0.0134434 0.0304742 0.425526 0.00722503 0.0292686 0.408664 0.000910823 0.0285927 0.391349 
-0.00551192 0.0284712 0.373616 -0.0120719 0.0288999 0.355503 -0.018808 0.0298498 0.337039 
-0.0257605 0.0312737 0.318238 -0.0329611 0.0331133 0.299091 -0.0404232 0.0353074 0.279568 
-0.0481325 0.0377981 0.259611 -0.0560407 0.0405362 0.239148 -0.0640616 0.0434831 0.218095 
-0.0720723 0.0466108 0.196374 -0.0799171 0.0498987 0.173922 -0.0874165 0.053329 0.150704 
-0.0943781 0.0568809 0.126724 -0.10061 0.0605251 0.102031 -0.105934 0.0642193 0.0767193 
-0.110199 0.0679054 0.0509239 -0.11329 0.0715098 0.0248125 -0.115138 0.0749461 -0.00143035 
-0.115722 0.0781203 -0.0276188 -0.115066 0.0809383 -0.0535832 -0.11324 0.0833137 -0.0791861 
-0.110344 0.0851763 -0.104334 -0.106505 0.0864784 -0.128983 -0.101862 0.0871999 -0.153143 
-0.0965533 0.0873493 -0.176869 -0.0907091 0.0869623 -0.200251 -0.0844414 0.0860968 -0.223397 
-0.0778396 0.0848249 -0.246416 -0.0709682 0.0832242 -0.269402 -0.0638683 0.0813672 -0.292416 
-0.0565609 0.0793127 -0.315473 -0.0490536 0.0770976 -0.33854 -0.0413468 0.0747331 -0.361536 
-0.0334416 0.0722028 -0.384337 -0.025346 0.0694659 -0.406792 -0.0170801 0.0664624 -0.428736 
-0.0086796 0.0631218 -0.450007 -0.000196178 0.0593736 -0.470469 0.00830332 0.0551573 -0.490014 
0.0167403 0.0504327 -0.508582 0.025029 0.0451877 -0.526155 0.033082 0.0394429 -0.542756 
0.0408162 0.033254 -0.55844 0.0481577 0.0267091 -0.573279 0.0550464 0.0199239 -0.587348 
0.0614388 0.013034 -0.600707 0.0673098 0.00618503 -0.613391 0.0726518 -0.000477603 -0.6254 
0.0774737 -0.00681841 -0.636696 0.0817978 -0.0127206 -0.64721 0.0856564 -0.0180925 -0.656846 
0.0890878 -0.0228719 -0.665503 0.0921321 -0.0270267 -0.673084 0.0948284 -0.0305546 -0.679518 
0.0972114 -0.0334791 -0.684775 0.0993096 -0.0358448 -0.688874 0.101144 -0.0377116 -0.691886 
0.10273 -0.0391482 -0.693937 0.104074 -0.0402264 -0.695191 0.105178 -0.0410156 -0.695842 
0.10604 -0.0415782 -0.696085 0.106657 -0.041966 -0.696104 0.107024 -0.0422178 -0.696047 
0.107138 -0.0423574 -0.696009 
LINES 2 100
OFFSETS vtktypeint64
0 100 
CONNECTIVITY vtktypeint64
0 1 2 3 4 5 6 7 8 
9 10 11 12 13 14 15 16 17 
18 19 20 21 22 23 24 25 26 
27 28 29 30 31 32 33 34 35 
36 37 38 39 40 41 42 43 44 
45 46 47 48 49 50 51 52 53 
54 55 56 57 58 59 60 61 62 
63 64 65 66 67 68 69 70 71 
72 73 74 75 76 77 78 79 80 
81 82 83 84 85 86 87 88 89 
90 91 92 93 94 95 96 97 98 
99 
POINT_DATA 100
FIELD FieldData 3
_theta 1 100 double
0 0.031733259127 0.063466518254 0.095199777382 0.12693303651 0.15866629564 0.19039955476 0.22213281389 0.25386607302 
0.28559933214 0.31733259127 0.3490658504 0.38079910953 0.41253236865 0.44426562778 0.47599888691 0.50773214603 0.53946540516 
0.57119866429 0.60293192342 0.63466518254 0.66639844167 0.6981317008 0.72986495992 0.76159821905 0.79333147818 0.82506473731 
0.85679799643 0.88853125556 0.92026451469 0.95199777382 0.98373103294 1.0154642921 1.0471975512 1.0789308103 1.1106640695 
1.1423973286 1.1741305877 1.2058638468 1.237597106 1.2693303651 1.3010636242 1.3327968833 1.3645301425 1.3962634016 
1.4279966607 1.4597299198 1.491463179 1.5231964381 1.5549296972 1.5866629564 1.6183962155 1.6501294746 1.6818627337 
1.7135959929 1.745329252 1.7770625111 1.8087957702 1.8405290294 1.8722622885 1.9039955476 1.9357288068 1.9674620659 
1.999195325 2.0309285841 2.0626618433 2.0943951024 2.1261283615 2.1578616206 2.1895948798 2.2213281389 2.253061398 
2.2847946572 2.3165279163 2.3482611754 2.3799944345 2.4117276937 2.4434609528 2.4751942119 2.506927471 2.5386607302 
2.5703939893 2.6021272484 2.6338605076 2.6655937667 2.6973270258 2.7290602849 2.7607935441 2.7925268032 2.8242600623 
2.8559933214 2.8877265806 2.9194598397 2.9511930988 2.982926358 3.0146596171 3.0463928762 3.0781261353 3.1098593945 
3.1415926536 
_radius 1 100 double
2.6184557667e-16 0.013799334349 0.027534309126 0.04113694212 0.054548037228 0.067718671918 0.080609135442 0.093186071577 0.10541897821 
0.11727715416 0.1287278057 0.13973553772 0.15026303188 0.1602724702 0.16972723185 0.17859352618 0.18684181438 0.19444800754 
0.20139446276 0.20767076144 0.21327421974 0.21821010356 0.22249159584 0.22613963133 0.22918269968 0.2316565924 0.23360387974 
0.23507276404 0.23611497595 0.2367825904 0.23712397715 0.23717945982 0.2369775469 0.23653272697 0.23584566383 0.234906099 
0.23369796548 0.23220546424 0.23041853698 0.22833647183 0.22596916391 0.22333646561 0.2204667247 0.21739576567 0.21416715305 
0.21083372338 0.20745941427 0.20411976593 0.20089947727 0.19788620671 0.19516122855 0.19278902962 0.1908087126 0.18922967677 
0.1880326217 0.18717513018 0.1865996473 0.18624106393 0.18603162282 0.18590251494 0.18578368787 0.18560469645 0.18529881093 
0.18481049215 0.18410432784 0.18317265611 0.18203928927 0.18075758069 0.17940249863 0.17805831585 0.17680507449 0.17570684902 
0.17480333938 0.17410523457 0.17359357458 0.17322299558 0.17292775975 0.17262839596 0.17223648699 0.17165613993 0.17078266723 
0.16950084031 0.16768548371 0.16520589149 0.16193361123 0.15775182942 0.1525643318 0.14630246094 0.13892919311 0.13044014662 
0.12086190479 0.11024841416 0.098676351406 0.086240248569 0.073047914588 0.059216429466 0.044868820835 0.030131479404 0.015132363945 
1.909857663e-15 
_area 1 100 double
0 0.00052643230375 0.0020988608592 0.0046954844685 0.0082764210971 0.012779822922 0.01811897154 0.024182139733 0.030836541468 
0.037936706573 0.045336228163 0.052900326737 0.060515733003 0.068094928153 0.075573853317 0.082904479498 0.090045062523 0.096951679369 
0.10357456342 0.10986096924 0.11576321046 0.12124810236 0.12630376669 0.13094120937 0.13518992815 0.13908852815 0.14267332337 
0.14596951171 0.14898839638 0.15172998149 0.15418656819 0.15634237788 0.15816657351 0.15960249582 0.16056255338 0.16093791695 
0.1606217453 0.15953543143 0.15764819441 0.15498616174 0.15163118842 0.14771111933 0.14338362353 0.13881653736 0.1341688219 
0.12957617293 0.12514315595 0.12094118306 0.11701073841 0.1133667679 0.1100065468 0.10691861486 0.10408987489 0.10150825752 
0.099162690846 0.097044515323 0.095147361219 0.093457741243 0.091939890929 0.090530192695 0.089148315725 0.087715240239 0.086165517579 
0.084451677625 0.082547079103 0.080451100207 0.078193174339 0.075830399063 0.073438161204 0.071100310243 0.068906325842 0.066948471565 
0.065358479401 0.064077885792 0.063185864196 0.062824865005 0.062962287078 0.063550872244 0.064514040925 0.065716515081 0.066969788882 
0.068044268328 0.068686739481 0.068644550234 0.067694018331 0.065668761382 0.062483755206 0.058151215863 0.05278498616 0.046591772433 
0.039850248314 0.032881677182 0.026017195971 0.019566897242 0.013794836276 0.0089028720268 0.005025239415 0.0022346130434 0.00055832895586 
3.1385956949e-17 
