# vtk DataFile Version 5.1
vtk output
ASCII
DATASET POLYDATA
POINTS 100 float
0.135213 0.025797 -0.664714 0.134986 0.0254201 -0.664543 0.134372 0.0245116 -0.66408 
0.133397 0.0231772 -0.663282 0.132093 0.0215812 -0.66208 0.1305 0.0199294 -0.660392 
0.128655 0.0184479 -0.658123 0.126585 0.0173604 -0.655184 0.124301 0.0168648 -0.651492 
0.121798 0.0171141 -0.646981 0.119049 0.0182012 -0.641603 0.116011 0.0201499 -0.635334 
0.112627 0.0229142 -0.628165 0.108836 0.0263827 -0.620101 0.104578 0.0303918 -0.61116 
0.0998063 0.0347413 -0.601358 0.0944951 0.0392153 -0.590713 0.0886435 0.043602 -0.579236 
0.08228 0.0477135 -0.566931 0.075461 0.0514017 -0.5538 0.068267 0.0545689 -0.539841 
0.0607943 0.0571733 -0.525055 0.0531449 0.0592278 -0.509452 0.0454148 0.060793 -0.493056 
0.0376827 0.061966 -0.475904 0.03 0.0628655 -0.45805 0.0223848 0.0636151 -0.439565 
0.0148185 0.0643283 -0.420522 0.00724897 0.0650937 -0.400999 -0.00040305 0.065966 -0.381064 
-0.00823206 0.0669596 -0.360766 -0.0163334 0.0680485 -0.34013 -0.0247867 0.0691701 -0.319152 
-0.0336402 0.070234 -0.297796 -0.0428957 0.0711327 -0.276 -0.0524989 0.0717549 -0.253684 
-0.062334 0.0719985 -0.23076 -0.0722241 0.071782 -0.207153 -0.0819392 0.0710539 -0.182807 
-0.0912085 0.069798 -0.157708 -0.099739 0.0680357 -0.131892 -0.107237 0.0658234 -0.10545 
-0.113429 0.0632473 -0.078531 -0.118086 0.0604149 -0.0513333 -0.121039 0.0574455 -0.0240954 
-0.122196 0.0544591 0.00292295 -0.121545 0.0515671 0.0294607 -0.119158 0.0488637 0.0552768 
-0.115184 0.0464198 0.0801699 -0.109833 0.0442798 0.103994 -0.103361 0.042461 0.126671 
-0.0960491 0.0409559 0.14819 -0.0881782 0.0397364 0.168607 -0.0800108 0.0387598 0.188032 
-0.0717715 0.0379756 0.206617 -0.063634 0.0373321 0.224531 -0.0557132 0.0367825 0.24194 
-0.0480638 0.0362896 0.258992 -0.040685 0.0358292 0.275799 -0.03353 0.0353915 0.292424 
-0.0265196 0.0349805 0.308884 -0.0195578 0.0346127 0.325146 -0.0125475 0.0343136 0.341144 
-0.00540543 0.0341142 0.356785 0.00192661 0.0340471 0.371974 0.00947432 0.0341421 0.386624 
0.0172279 0.0344233 0.400674 0.0251439 0.0349061 0.414101 0.0331507 0.0355957 0.426921 
0.0411578 0.0364863 0.439192 0.0490659 0.0375612 0.451008 0.0567781 0.0387939 0.462481 
0.0642096 0.0401498 0.473736 0.0712952 0.0415883 0.484884 0.0779933 0.043065 0.496014 
0.0842874 0.0445343 0.507179 0.0901827 0.0459517 0.518387 0.0957008 0.0472757 0.529601 
0.100872 0.0484697 0.540738 0.105727 0.0495034 0.551684 0.110288 0.0503539 0.562302 
0.114563 0.0510061 0.572449 0.118542 0.0514531 0.581991 0.122193 0.051696 0.590816 
0.125471 0.0517435 0.598843 0.128318 0.0516111 0.606033 0.130672 0.0513198 0.612384 
0.13248 0.0508955 0.617931 0.133703 0.0503673 0.622736 0.13433 0.0497662 0.626881 
0.134378 0.0491236 0.630453 0.133904 0.0484706 0.633536 0.132995 0.0478363 0.6362 
0.13177 0.0472472 0.638496 0.130369 0.0467266 0.640456 0.128941 0.0462939 0.642092 
0.127637 0.0459645 0.643399 0.126588 0.0457496 0.644365 0.1259 0.0456566 0.644974 
0.12564 0.0456887 0.645214 
LINES 2 100
OFFSETS vtktypeint64
0 100 
CONNECTIVITY vtktypeint64
0 1 2 3 4 5 6 7 8 
9 10 11 12 13 14 15 16 17 
18 19 20 21 22 23 24 25 26 
27 28 29 30 31 32 33 34 35 
36 37 38 39 40 41 42 43 44 
45 46 47 48 49 50 51 52 53 
54 55 56 57 58 59 60 61 62 
63 64 65 66 67 68 69 70 71 
72 73 74 75 76 77 78 79 80 
81 82 83 84 85 86 87 88 89 
90 91 92 93 94 95 96 97 98 
99 
POINT_DATA 100
FIELD FieldData 3
_theta 1 100 double
0 0.031733259127 0.063466518254 0.095199777382 0.12693303651 0.15866629564 0.19039955476 0.22213281389 0.25386607302 
0.28559933214 0.31733259127 0.3490658504 0.38079910953 0.41253236865 0.44426562778 0.47599888691 0.50773214603 0.53946540516 
0.57119866429 0.60293192342 0.63466518254 0.66639844167 0.6981317008 0.72986495992 0.76159821905 0.79333147818 0.82506473731 
0.85679799643 0.88853125556 0.92026451469 0.95199777382 0.98373103294 1.0154642921 1.0471975512 1.0789308103 1.1106640695 
1.1423973286 1.1741305877 1.2058638468 1.237597106 1.2693303651 1.3010636242 1.3327968833 1.3645301425 1.3962634016 
1.4279966607 1.4597299198 1.491463179 1.5231964381 1.5549296972 1.5866629564 1.6183962155 1.6501294746 1.6818627337 
1.7135959929 1.745329252 1.7770625111 1.8087957702 1.8405290294 1.8722622885 1.9039955476 1.9357288068 1.9674620659 
1.999195325 2.0309285841 2.0626618433 2.0943951024 2.1261283615 2.1578616206 2.1895948798 2.2213281389 2.253061398 
2.2847946572 2.3165279163 2.3482611754 2.3799944345 2.4117276937 2.4434609528 2.4751942119 2.506927471 2.5386607302 
2.5703939893 2.6021272484 2.6338605076 2.6655937667 2.6973270258 2.7290602849 2.7607935441 2.7925268032 2.8242600623 
2.8559933214 2.8877265806 2.9194598397 2.9511930988 2.982926358 3.0146596171 3.0463928762 3.0781261353 3.1098593945 
3.1415926536 
_radius 1 100 double
7.8188126503e-16 0.014460772828 0.028843659775 0.043069163044 0.057053196579 0.070703897773 0.083918470502 0.096581199485 0.10856403162 
0.11973085615 0.12994584012 0.13908511241 0.14705008565 0.15378009383 0.15926200617 0.16353507022 0.16669026894 0.16886461338 
0.17023160659 0.17098922263 0.17134608522 0.17150567788 0.17164861109 0.17191508367 0.17239216137 0.17310982045 0.17404566581 
0.17513523196 0.17628484952 0.17738507872 0.17832317536 0.17899333796 0.1793041696 0.17918408345 0.17858696071 0.17750078357 
0.17595971145 0.17405633692 0.17194845811 0.16985458233 0.16803444512 0.16675569554 0.16625457224 0.16670244652 0.16818776026 
0.17071595333 0.17422351725 0.17859912001 0.18370442875 0.18938898408 0.19549701 0.20186818122 0.20833685646 0.21473393627 
0.2208932245 0.22666167861 0.23191128253 0.23654967173 0.24052693098 0.2438369395 0.24651295895 0.2486184607 0.25023506736 
0.25144968777 0.25234251421 0.2529768955 0.25339163612 0.25359617833 0.25356923053 0.25326136149 0.2526016473 0.25150766456 
0.24989724911 0.24769985087 0.24486528691 0.24136828997 0.23720830348 0.23240515989 0.22699222532 0.22100900741 0.21449499287 
0.20748571121 0.20001101105 0.19209467789 0.18375416214 0.17499946781 0.16583103807 0.15623739612 0.14619391566 0.13566409055 
0.12460401508 0.11296975684 0.10072636554 0.087856797242 0.074369148249 0.060301113207 0.045721221033 0.030726936729 0.015440057515 
9.5285227497e-16 
_area 1 100 double
0 0.00056226884276 0.0022450323143 0.0050320698793 0.008883982616 0.013723745827 0.01942352227 0.025797357487 0.032603003799 
0.039553959505 0.046340539922 0.052656930665 0.058229953296 0.062844808629 0.066363534602 0.068733525931 0.069986010871 0.070227003425 
0.069624949191 0.068399986238 0.066821291592 0.065222687603 0.063994242455 0.063389697436 0.063454229018 0.064147047351 0.065381253862 
0.06702363061 0.068889091174 0.070756685069 0.072417093984 0.073724586612 0.074623907192 0.075143986147 0.075362996758 0.075359126605 
0.075180189766 0.07485251377 0.074420178969 0.07399712494 0.073799830587 0.074192698637 0.075490826802 0.077540030928 0.0802097936 
0.083441897624 0.087234932541 0.091633437922 0.0966909084 0.10242829021 0.10883016419 0.11586986892 0.12350765036 0.13160800374 
0.13988974447 0.14799127932 0.15552943325 0.16215076502 0.16758716032 0.17169848976 0.17448868113 0.17609298935 0.17674249059 
0.17671449677 0.17627551858 0.1756212404 0.17482834898 0.1738487108 0.17254939845 0.17076366962 0.16833238532 0.16513662587 
0.16112294034 0.156319039 0.15083585099 0.14485087751 0.13856975775 0.13217194434 0.12575997301 0.11933721893 0.11282634727 
0.10611795248 0.099124254047 0.091814949597 0.084225800752 0.076444394695 0.068584884462 0.060763590017 0.053082873786 0.045625234423 
0.038455844173 0.031630623581 0.025207293078 0.019257016915 0.013873644499 0.0091769467215 0.0053069073045 0.0024085385168 0.00061004925873 
8.6736173799e-19 
