# vtk DataFile Version 5.1
vtk output
ASCII
DATASET POLYDATA
POINTS 100 float
0.0803457 -0.0222736 -0.616601 0.0803013 -0.0221951 -0.616321 0.0801804 -0.0217417 -0.615496 
0.0799993 -0.0208974 -0.614113 0.0797805 -0.0196388 -0.612155 0.0795453 -0.0179389 -0.6096 
0.0793063 -0.0157702 -0.606426 0.0790595 -0.0131097 -0.602616 0.0787781 -0.00994297 -0.598154 
0.078409 -0.00626811 -0.593031 0.0778728 -0.00209938 -0.587244 0.0770679 0.00253065 -0.580792 
0.075878 0.00757004 -0.573677 0.0741824 0.0129479 -0.5659 0.071869 0.0185763 -0.557456 
0.068846 0.0243534 -0.548336 0.0650542 0.0301682 -0.538524 0.0604748 0.0359054 -0.527997 
0.0551343 0.0414516 -0.51673 0.0491044 0.0467008 -0.504696 0.0424964 0.05156 -0.491872 
0.0354525 0.0559537 -0.478245 0.0281321 0.0598278 -0.463814 0.0206973 0.0631508 -0.448596 
0.0132975 0.0659153 -0.432627 0.00605603 0.0681361 -0.415957 -0.000940548 0.0698479 -0.398655 
-0.00764823 0.0711019 -0.380794 -0.0140665 0.0719607 -0.362453 -0.020234 0.0724929 -0.343703 
-0.0262189 0.0727688 -0.324601 -0.0321069 0.0728544 -0.305187 -0.0379855 0.0728078 -0.285476 
-0.0439293 0.0726762 -0.265458 -0.0499858 0.0724934 -0.245102 -0.0561654 0.0722794 -0.224361 
-0.062435 0.0720409 -0.203181 -0.0687166 0.0717731 -0.18151 -0.0748921 0.0714616 -0.159311 
-0.0808114 0.0710857 -0.136574 -0.0863057 0.0706214 -0.113319 -0.0912015 0.0700442 -0.0896074 
-0.095336 0.0693319 -0.0655402 -0.0985711 0.0684659 -0.0412554 -0.100805 0.0674329 -0.0169214 
-0.101977 0.0662249 0.00727433 -0.102076 0.0648392 0.0311381 -0.101131 0.0632771 0.0544841 
-0.0992123 0.0615432 0.0771477 -0.0964161 0.0596439 0.0989972 -0.0928568 0.0575868 0.119942 
-0.0886535 0.0553797 0.139935 -0.0839186 0.0530309 0.158974 -0.0787487 0.0505495 0.177097 
-0.0732185 0.0479464 0.194373 -0.0673777 0.0452361 0.21089 -0.061252 0.042438 0.226748 
-0.0548471 0.0395781 0.242041 -0.0481549 0.0366904 0.256856 -0.041162 0.0338174 0.271259 
-0.0338572 0.0310104 0.285298 -0.0262391 0.0283281 0.299 -0.0183219 0.0258347 0.312377 
-0.0101386 0.0235972 0.32543 -0.00174151 0.0216816 0.33816 0.00680002 0.0201489 0.35057 
0.0154037 0.0190508 0.362679 0.0239806 0.0184258 0.374516 0.0324414 0.0182952 0.386128 
0.0407038 0.0186614 0.397577 0.0486977 0.0195057 0.408929 0.0563698 0.0207884 0.420253 
0.0636853 0.0224503 0.431609 0.0706282 0.024415 0.443038 0.0771995 0.0265929 0.454557 
0.0834126 0.0288857 0.466154 0.0892896 0.0311916 0.477786 0.094855 0.0334106 0.489379 
0.100131 0.03545 0.500834 0.105134 0.0372287 0.512038 0.109871 0.038681 0.522871 
0.114337 0.0397595 0.533214 0.118519 0.0404363 0.542967 0.122394 0.0407035 0.552049 
0.125934 0.0405722 0.560407 0.129112 0.0400704 0.568021 0.131902 0.0392407 0.574895 
0.134288 0.0381367 0.581062 0.136262 0.0368199 0.586568 0.137831 0.0353556 0.591471 
0.139016 0.0338106 0.59583 0.139851 0.0322493 0.599696 0.140382 0.0307325 0.603111 
0.140666 0.0293149 0.606098 0.140762 0.0280443 0.608667 0.140732 0.0269613 0.610815 
0.140634 0.0260985 0.612527 0.140518 0.0254811 0.613787 0.140421 0.0251268 0.614575 
0.140368 0.0250464 0.614883 
LINES 2 100
OFFSETS vtktypeint64
0 100 
CONNECTIVITY vtktypeint64
0 1 2 3 4 5 6 7 8 
9 10 11 12 13 14 15 16 17 
18 19 20 21 22 23 24 25 26 
27 28 29 30 31 32 33 34 35 
36 37 38 39 40 41 42 43 44 
45 46 47 48 49 50 51 52 53 
54 55 56 57 58 59 60 61 62 
63 64 65 66 67 68 69 70 71 
72 73 74 75 76 77 78 79 80 
81 82 83 84 85 86 87 88 89 
90 91 92 93 94 95 96 97 98 
99 
POINT_DATA 100
FIELD FieldData 3
_theta 1 100 double
0 0.031733259127 0.063466518254 0.095199777382 0.12693303651 0.15866629564 0.19039955476 0.22213281389 0.25386607302 
0.28559933214 0.31733259127 0.3490658504 0.38079910953 0.41253236865 0.44426562778 0.47599888691 0.50773214603 0.53946540516 
0.57119866429 0.60293192342 0.63466518254 0.66639844167 0.6981317008 0.72986495992 0.76159821905 0.79333147818 0.82506473731 
0.85679799643 0.88853125556 0.92026451469 0.95199777382 0.98373103294 1.0154642921 1.0471975512 1.0789308103 1.1106640695 
1.1423973286 1.1741305877 1.2058638468 1.237597106 1.2693303651 1.3010636242 1.3327968833 1.3645301425 1.3962634016 
1.4279966607 1.4597299198 1.491463179 1.5231964381 1.5549296972 1.5866629564 1.6183962155 1.6501294746 1.6818627337 
1.7135959929 1.745329252 1.7770625111 1.8087957702 1.8405290294 1.8722622885 1.9039955476 1.9357288068 1.9674620659 
1.999195325 2.0309285841 2.0626618433 2.0943951024 2.1261283615 2.1578616206 2.1895948798 2.2213281389 2.253061398 
2.2847946572 2.3165279163 2.3482611754 2.3799944345 2.4117276937 2.4434609528 2.4751942119 2.506927471 2.5386607302 
2.5703939893 2.6021272484 2.6338605076 2.6655937667 2.6973270258 2.7290602849 2.7607935441 2.7925268032 2.8242600623 
2.8559933214 2.8877265806 2.9194598397 2.9511930988 2.982926358 3.0146596171 3.0463928762 3.0781261353 3.1098593945 
3.1415926536 
_radius 1 100 double
5.614933053e-16 0.014704779103 0.029227526549 0.043396166856 0.057060348271 0.070098089438 0.082418449065 0.093960334768 0.10468830315 
0.11458668766 0.12365352861 0.13189556379 0.13932504674 0.14595854127 0.15181728057 0.15692834685 0.16132591569 0.16505208489 
0.16815722096 0.17070008485 0.17274803691 0.17437728486 0.17567255972 0.17672513838 0.1776282105 0.17846943797 0.17932190518 
0.1802356707 0.18123197234 0.18230093964 0.18340251754 0.18446998479 0.18541575705 0.18613951856 0.18653879981 0.18652184832 
0.18602205055 0.18501233467 0.18351709064 0.18161849188 0.17945414861 0.17720438451 0.17507054458 0.17324980441 0.17191422407 
0.17119974978 0.17120551864 0.17199883579 0.17361925012 0.17607690649 0.17934492535 0.1833505079 0.18797157078 0.1930433134 
0.19837400687 0.20376524507 0.2090310698 0.21401208136 0.21858310142 0.2226549364 0.22617181845 0.22910621172 0.23145226495 
0.2332187735 0.2344223857 0.23508193092 0.23521487161 0.23483664198 0.23396290155 0.23261373504 0.23081805195 0.22861629058 
0.22606007748 0.22320841694 0.22012083508 0.21684841712 0.2134239427 0.20985260821 0.20610521317 0.20211584405 0.19778548912 
0.19299157163 0.1876017741 0.18148963659 0.1745495055 0.16670902948 0.15793799454 0.14825268809 0.13771531414 0.12642842087 
0.1145248878 0.10215466076 0.08946995998 0.076610964473 0.06369389615 0.050802981932 0.037987063181 0.025260841079 0.01261011237 
8.1253786229e-16 
_area 1 100 double
0 0.00060719747804 0.0023981467716 0.0052843152897 0.0091286291779 0.013758622276 0.018980771309 0.024593734548 0.03039891826 
0.036207520659 0.04184399073 0.047146956244 0.051969930398 0.056184500318 0.059687396849 0.062410471073 0.06433076393 0.065477499896 
0.06593373711 0.065831832759 0.065343272804 0.064664830796 0.064007131706 0.063674501688 0.064064275382 0.065008710398 0.066480296592 
0.068399656195 0.070633695035 0.073057216742 0.075538852321 0.077950092669 0.080166995431 0.082068067661 0.083535322211 0.084465536741 
0.084792317736 0.084510957054 0.08369492607 0.082497363432 0.081139119283 0.07988901434 0.079033280407 0.078817576008 0.079371225432 
0.080680737008 0.082648719795 0.085188769589 0.088298167637 0.092075365913 0.096662708685 0.10213116583 0.10839409645 0.11523396352 
0.12239265315 0.12958350859 0.13651957445 0.14298118361 0.14882476822 0.15397055386 0.15838782287 0.16207616965 0.16504671957 
0.16731862261 0.16892624532 0.16990258621 0.17024163674 0.16989879046 0.16881747626 0.16695027556 0.16428086049 0.16084535455 
0.15674160514 0.1521159407 0.14712899574 0.1419196371 0.1365863581 0.13118323508 0.12571737577 0.12014674048 0.11438563379 
0.10832140917 0.10183911478 0.09484777967 0.08730304646 0.079223032586 0.070695638531 0.061876125969 0.05297461845 0.044234710374 
0.035906314637 0.028217513378 0.021350777387 0.015428103016 0.010507520332 0.0065906968809 0.0036389022725 0.0015931776656 0.00039442961517 
2.1744206614e-17 
