# vtk DataFile Version 5.1
vtk output
ASCII
DATASET POLYDATA
POINTS 100 float
0.0737861 0.0579517 0.689019 0.0739519 0.0582908 0.688661 0.074506 0.0591009 0.687458 
0.0753996 0.0602922 0.685464 0.0765565 0.0617286 0.682759 0.0778812 0.0632449 0.67944 
0.079268 0.0646673 0.675606 0.0806118 0.0658351 0.671343 0.0818171 0.0666199 0.666708 
0.0828061 0.066941 0.661729 0.0835239 0.066774 0.656391 0.0839404 0.0661517 0.650644 
0.0840489 0.0651579 0.644407 0.0838617 0.0639148 0.637579 0.0834036 0.0625655 0.630055 
0.0827034 0.0612541 0.621743 0.081786 0.0601071 0.612575 0.0806649 0.0592163 0.602523 
0.0793368 0.0586286 0.591604 0.0777788 0.0583413 0.579883 0.0759492 0.0583045 0.567468 
0.0737904 0.0584302 0.554502 0.0712356 0.0586065 0.541149 0.0682164 0.0587148 0.527577 
0.0646715 0.0586475 0.513943 0.0605556 0.0583242 0.500375 0.055846 0.0577028 0.486961 
0.0505478 0.0567865 0.473742 0.0446951 0.0556229 0.46071 0.0383505 0.0542976 0.447809 
0.0315999 0.0529227 0.434946 0.0245461 0.0516209 0.421999 0.0173001 0.0505093 0.408831 
0.00997192 0.0496838 0.395306 0.00266233 0.0492062 0.381298 -0.00454461 0.0490973 0.366701 
-0.0115861 0.0493349 0.351435 -0.0184223 0.0498582 0.335448 -0.0250354 0.0505775 0.318711 
-0.0314254 0.0513873 0.301215 -0.0376036 0.052182 0.282964 -0.0435855 0.0528709 0.263967 
-0.0493822 0.0533903 0.244235 -0.0549932 0.0537124 0.223773 -0.0604005 0.0538483 0.202581 
-0.065565 0.0538455 0.180656 -0.070426 0.0537801 0.157998 -0.0749031 0.0537455 0.134615 
-0.0789012 0.0538381 0.110528 -0.0823171 0.0541435 0.085783 -0.0850482 0.0547238 0.0604523 
-0.0870007 0.0556086 0.0346371 -0.0880981 0.0567913 0.0084662 -0.0882879 0.0582293 -0.0179086 
-0.0875459 0.0598503 -0.0443208 -0.0858791 0.0615621 -0.0705995 -0.0833249 0.0632646 -0.0965805 
-0.0799487 0.064863 -0.122117 -0.0758383 0.0662795 -0.14709 -0.0710983 0.0674616 -0.171412 
-0.0658425 0.0683871 -0.195033 -0.0601871 0.0690638 -0.217935 -0.0542435 0.0695247 -0.240132 
-0.0481135 0.0698195 -0.261658 -0.0418855 0.0700038 -0.282561 -0.0356319 0.070127 -0.302893 
-0.029409 0.0702223 -0.322697 -0.0232584 0.0702985 -0.342005 -0.0172086 0.0703363 -0.360835 
-0.0112789 0.0702889 -0.379186 -0.00548203 0.0700872 -0.397043 0.000172085 0.0696494 -0.414382 
0.00567345 0.0688917 -0.431178 0.0110097 0.0677413 -0.447408 0.0161648 0.0661481 -0.46306 
0.0211178 0.0640929 -0.478131 0.0258436 0.061593 -0.492637 0.0303128 0.058702 -0.5066 
0.0344937 0.0555059 -0.520052 0.0383533 0.0521142 -0.533022 0.0418592 0.0486485 -0.545531 
0.0449816 0.0452296 -0.557582 0.0476948 0.0419648 -0.56916 0.0499793 0.0389376 -0.580222 
0.0518234 0.0362004 -0.590703 0.0532241 0.0337722 -0.600519 0.0541892 0.03164 -0.609576 
0.0547372 0.0297649 -0.617778 0.0548983 0.0280915 -0.625044 0.0547139 0.0265585 -0.631314 
0.054236 0.0251101 -0.636564 0.053526 0.0237052 -0.640808 0.0526523 0.0223243 -0.644101 
0.0516875 0.0209721 -0.64654 0.0507058 0.019677 -0.648248 0.0497786 0.0184855 -0.649371 
0.0489715 0.0174547 -0.650054 0.0483401 0.0166426 -0.650435 0.0479274 0.0160992 -0.650621 
0.0477607 0.0158575 -0.650683 
LINES 2 100
OFFSETS vtktypeint64
0 100 
CONNECTIVITY vtktypeint64
0 1 2 3 4 5 6 7 8 
9 10 11 12 13 14 15 16 17 
18 19 20 21 22 23 24 25 26 
27 28 29 30 31 32 33 34 35 
36 37 38 39 40 41 42 43 44 
45 46 47 48 49 50 51 52 53 
54 55 56 57 58 59 60 61 62 
63 64 65 66 67 68 69 70 71 
72 73 74 75 76 77 78 79 80 
81 82 83 84 85 86 87 88 89 
90 91 92 93 94 95 96 97 98 
99 
POINT_DATA 100
FIELD FieldData 3
_theta 1 100 double
0 0.031733259127 0.063466518254 0.095199777382 0.12693303651 0.15866629564 0.19039955476 0.22213281389 0.25386607302 
0.28559933214 0.31733259127 0.3490658504 0.38079910953 0.41253236865 0.44426562778 0.47599888691 0.50773214603 0.53946540516 
0.57119866429 0.60293192342 0.63466518254 0.66639844167 0.6981317008 0.72986495992 0.76159821905 0.79333147818 0.82506473731 
0.85679799643 0.88853125556 0.92026451469 0.95199777382 0.98373103294 1.0154642921 1.0471975512 1.0789308103 1.1106640695 
1.1423973286 1.1741305877 1.2058638468 1.237597106 1.2693303651 1.3010636242 1.3327968833 1.3645301425 1.3962634016 
1.4279966607 1.4597299198 1.491463179 1.5231964381 1.5549296972 1.5866629564 1.6183962155 1.6501294746 1.6818627337 
1.7135959929 1.745329252 1.7770625111 1.8087957702 1.8405290294 1.8722622885 1.9039955476 1.9357288068 1.9674620659 
1.999195325 2.0309285841 2.0626618433 2.0943951024 2.1261283615 2.1578616206 2.1895948798 2.2213281389 2.253061398 
2.2847946572 2.3165279163 2.3482611754 2.3799944345 2.4117276937 2.4434609528 2.4751942119 2.506927471 2.5386607302 
2.5703939893 2.6021272484 2.6338605076 2.6655937667 2.6973270258 2.7290602849 2.7607935441 2.7925268032 2.8242600623 
2.8559933214 2.8877265806 2.9194598397 2.9511930988 2.982926358 3.0146596171 3.0463928762 3.0781261353 3.1098593945 
3.1415926536 
_radius 1 100 double
6.6919867029e-16 0.013379075497 0.02668896936 0.039855191922 0.052804701746 0.065467142163 0.077776372655 0.089672268457 0.10110257367 
0.11202440365 0.12240492072 0.13222083421 0.14145668999 0.15010232024 0.15815018653 0.16559354196 0.17242626599 0.17864484156 
0.18425228736 0.18926309456 0.19370761958 0.19763424183 0.20110806082 0.20420589609 0.20700852632 0.20959197844 0.21201983807 
0.21433788953 0.21657123124 0.21872298578 0.22077342548 0.22267894055 0.22437141432 0.22575952335 0.22673361542 0.22717498129 
0.22696893029 0.2260197773 0.22426516358 0.22168720637 0.2183186395 0.21424309463 0.20958972147 0.20452325505 0.19923124944 
0.19391039384 0.18875356568 0.18393867396 0.17961970012 0.17591997127 0.17292768509 0.17069382052 0.16923252427 0.16852377564 
0.16851776768 0.16914021444 0.17029779103 0.17188313046 0.1737792329 0.17586366343 0.17801319874 0.18010934127 0.1820444465 
0.18372757194 0.18508898186 0.18608258352 0.18668617301 0.1868999168 0.18674377709 0.18625451432 0.18548251648 0.18448820462 
0.18333742974 0.18209533442 0.18081862622 0.17954689659 0.17829421044 0.17704244097 0.17573765238 0.17429033569 0.17257967587 
0.1704614647 0.1677788733 0.16437505392 0.16010639757 0.15485519855 0.14854047866 0.14112582754 0.13262333764 0.1230930584 
0.11263785287 0.10139406418 0.08951890406 0.077175876927 0.064519826851 0.051683399564 0.038766895251 0.025833469871 0.012910953875 
5.5992829168e-16 
_area 1 100 double
0 0.00046390896023 0.0018426059629 0.004098650053 0.0071747442359 0.011000028166 0.015496323867 0.020582388381 0.026174803589 
0.032185541109 0.038518043843 0.045064685976 0.051707666533 0.058323361364 0.064788756792 0.070988763695 0.076824236405 0.082221162501 
0.087141126245 0.091591875188 0.095635033747 0.099386191137 0.10300171758 0.1066491044 0.11046615336 0.11452548871 0.11882183756 
0.12328570838 0.12781296444 0.13229591228 0.13664330612 0.14077998718 0.14462513212 0.14806258827 0.15092541415 0.15300612906 
0.15408575707 0.15396871556 0.15251532055 0.14966792279 0.14546764595 0.14005892834 0.13368018779 0.1266408578 0.11928760638 
0.11196585342 0.10498499855 0.09859341545 0.092963510054 0.088184980722 0.084267148437 0.08115297011 0.078743987667 0.076929932283 
0.075616996172 0.074768718704 0.074382293362 0.074429637432 0.074844776738 0.075539709823 0.076403988426 0.077313616959 0.078143281527 
0.078778667625 0.079129507663 0.079143483264 0.078816941817 0.078193897622 0.077347585226 0.076355815396 0.075291116079 0.074226091433 
0.073237234235 0.072399978827 0.071808933685 0.07149254596 0.071558916152 0.071995999403 0.072540011697 0.073009744923 0.073230323776 
0.073023361215 0.072215191127 0.070647332889 0.068189685849 0.064757055625 0.060327464871 0.054958295179 0.048794978314 0.042067392843 
0.035071522184 0.028137791041 0.02159144119 0.015712798846 0.010705636833 0.0066804269297 0.0036568400096 0.0015863333235 0.00039001392406 
1.0516761073e-17 
