# vtk DataFile Version 5.1
vtk output
ASCII
DATASET POLYDATA
POINTS 100 float
0.124797 0.040642 0.611269 0.124644 0.0407721 0.611031 0.124284 0.0410287 0.610207 
0.123717 0.0413934 0.608805 0.122938 0.0418386 0.606842 0.121942 0.0423321 0.604334 
0.120727 0.0428415 0.601299 0.119286 0.0433394 0.597746 0.117618 0.0438067 0.593681 
0.11572 0.0442361 0.589097 0.113591 0.044632 0.583982 0.111229 0.0450099 0.578313 
0.10863 0.0453928 0.572069 0.105787 0.0458072 0.565228 0.102692 0.046277 0.557776 
0.099331 0.0468187 0.549711 0.0956855 0.0474365 0.541045 0.0917357 0.048119 0.531807 
0.0874605 0.0488382 0.522042 0.0828403 0.0495508 0.511807 0.0778602 0.0502015 0.501167 
0.0725126 0.0507282 0.49019 0.0668 0.0510689 0.478938 0.0607365 0.0511686 0.467461 
0.0543488 0.0509862 0.455796 0.0476747 0.0505001 0.443955 0.0407618 0.049712 0.431933 
0.0336632 0.0486479 0.419706 0.0264341 0.0473575 0.407233 0.0191263 0.0459103 0.394467 
0.0117843 0.0443907 0.381355 0.00444144 0.0428906 0.367849 -0.00288244 0.0415029 0.353912 
-0.0101812 0.0403141 0.339519 -0.0174606 0.0393985 0.32466 -0.0247349 0.0388135 0.309339 
-0.0320212 0.0385971 0.29357 -0.039333 0.0387672 0.277373 -0.0466728 0.0393221 0.26077 
-0.0540261 0.0402435 0.243774 -0.0613561 0.0414992 0.226391 -0.0686003 0.0430467 0.208614 
-0.0756701 0.0448371 0.190423 -0.0824537 0.0468177 0.171791 -0.0888212 0.0489346 0.152683 
-0.0946328 0.0511343 0.133071 -0.0997483 0.053365 0.112935 -0.104038 0.0555774 0.0922723 
-0.107392 0.0577253 0.0711067 -0.109733 0.0597669 0.0494875 -0.111017 0.0616661 0.027492 
-0.111243 0.0633945 0.00522194 -0.110448 0.0649331 -0.017203 -0.10871 0.0662747 -0.039654 
-0.106135 0.0674251 -0.0620035 -0.102851 0.068404 -0.0841351 -0.0989953 0.0692439 -0.105954 
-0.0947061 0.0699875 -0.127391 -0.0901083 0.0706843 -0.148409 -0.0853063 0.071384 -0.168999 
-0.0803766 0.0721304 -0.189179 -0.0753651 0.0729542 -0.208983 -0.070287 0.0738662 -0.228451 
-0.0651306 0.0748523 -0.247622 -0.0598631 0.0758709 -0.266518 -0.0544394 0.0768528 -0.285145 
-0.0488114 0.0777049 -0.303477 -0.0429373 0.0783169 -0.321468 -0.0367901 0.0785709 -0.339048 
-0.0303638 0.0783527 -0.356134 -0.0236774 0.0775648 -0.372639 -0.0167761 0.0761374 -0.388488 
-0.0097291 0.0740385 -0.403624 -0.00262531 0.0712801 -0.41802 0.00443298 0.0679204 -0.431684 
0.0113379 0.0640612 -0.44466 0.0179842 0.059841 -0.457024 0.0242768 0.0554233 -0.468876 
0.0301373 0.0509828 -0.480322 0.0355089 0.0466897 -0.49147 0.040359 0.0426944 -0.502402 
0.0446797 0.0391142 -0.513173 0.0484859 0.0360238 -0.523793 0.0518121 0.0334504 -0.534224 
0.0547073 0.0313736 -0.544386 0.0572299 0.0297309 -0.55416 0.0594413 0.0284282 -0.563399 
0.0614008 0.0273529 -0.571951 0.0631613 0.0263886 -0.57967 0.0647651 0.0254306 -0.586438 
0.0662425 0.0243984 -0.592176 0.0676105 0.0232453 -0.59686 0.0688738 0.0219634 -0.600518 
0.0700262 0.0205828 -0.603232 0.0710531 0.0191666 -0.605129 0.0719348 0.0178013 -0.606364 
0.0726493 0.0165842 -0.6071 0.0731759 0.0156098 -0.607493 0.0734977 0.0149566 -0.607672 
0.0736036 0.0146761 -0.607719 
LINES 2 100
OFFSETS vtktypeint64
0 100 
CONNECTIVITY vtktypeint64
0 1 2 3 4 5 6 7 8 
9 10 11 12 13 14 15 16 17 
18 19 20 21 22 23 24 25 26 
27 28 29 30 31 32 33 34 35 
36 37 38 39 40 41 42 43 44 
45 46 47 48 49 50 51 52 53 
54 55 56 57 58 59 60 61 62 
63 64 65 66 67 68 69 70 71 
72 73 74 75 76 77 78 79 80 
81 82 83 84 85 86 87 88 89 
90 91 92 93 94 95 96 97 98 
99 
POINT_DATA 100
FIELD FieldData 3
_theta 1 100 double
0 0.031733259127 0.063466518254 0.095199777382 0.12693303651 0.15866629564 0.19039955476 0.22213281389 0.25386607302 
0.28559933214 0.31733259127 0.3490658504 0.38079910953 0.41253236865 0.44426562778 0.47599888691 0.50773214603 0.53946540516 
0.57119866429 0.60293192342 0.63466518254 0.66639844167 0.6981317008 0.72986495992 0.76159821905 0.79333147818 0.82506473731 
0.85679799643 0.88853125556 0.92026451469 0.95199777382 0.98373103294 1.0154642921 1.0471975512 1.0789308103 1.1106640695 
1.1423973286 1.1741305877 1.2058638468 1.237597106 1.2693303651 1.3010636242 1.3327968833 1.3645301425 1.3962634016 
1.4279966607 1.4597299198 1.491463179 1.5231964381 1.5549296972 1.5866629564 1.6183962155 1.6501294746 1.6818627337 
1.7135959929 1.745329252 1.7770625111 1.8087957702 1.8405290294 1.8722622885 1.9039955476 1.9357288068 1.9674620659 
1.999195325 2.0309285841 2.0626618433 2.0943951024 2.1261283615 2.1578616206 2.1895948798 2.2213281389 2.253061398 
2.2847946572 2.3165279163 2.3482611754 2.3799944345 2.4117276937 2.4434609528 2.4751942119 2.506927471 2.5386607302 
2.5703939893 2.6021272484 2.6338605076 2.6655937667 2.6973270258 2.7290602849 2.7607935441 2.7925268032 2.8242600623 
2.8559933214 2.8877265806 2.9194598397 2.9511930988 2.982926358 3.0146596171 3.0463928762 3.0781261353 3.1098593945 
3.1415926536 
_radius 1 100 double
1.3381814758e-15 0.014000392831 0.02786397682 0.041460717035 0.054679198043 0.067433063452 0.079664436705 0.091344145976 0.10246898113 
0.11305649344 0.1231380239 0.13275076284 0.1419297364 0.15070066826 0.15907462669 0.16704519037 0.17458855473 0.18166660606 
0.18823258117 0.19423855436 0.19964368631 0.20442197262 0.20856820143 0.21210101929 0.21506242025 0.21751355631 0.21952740265 
0.22117935832 0.22253720835 0.22365196265 0.22455093525 0.22523408774 0.22567420111 0.22582092935 0.22560829362 0.22496475267 
0.22382467186 0.22213983323 0.21988959711 0.21708844541 0.2137898949 0.21008614139 0.20610324874 0.20199220312 0.1979166835 
0.19403891641 0.19050541017 0.18743458781 0.18490820543 0.18296781723 0.18161643636 0.18082426958 0.18053655343 0.18068152169 
0.18117729477 0.18193746805 0.1828758244 0.18391067575 0.18496900844 0.18599019536 0.18692878113 0.18775581541 0.18845838116 
0.18903727977 0.18950320831 0.1898720807 0.19016030251 0.19038075637 0.19054001207 0.19063691641 0.1906623387 0.19059955568 
0.19042465541 0.19010648286 0.18960600352 0.18887538227 0.18785737757 0.18648569801 0.18468674126 0.18238273544 0.17949591171 
0.17595311233 0.17169023729 0.16665609655 0.16081544681 0.15415114045 0.14666535157 0.13837979866 0.12933483763 0.11958732874 
0.1092073163 0.09827376819 0.086869826849 0.075078147843 0.062976899729 0.050636877298 0.038119983538 0.025479120751 0.012759344032 
2.0063618811e-16 
_area 1 100 double
0 0.00045775196959 0.001815161121 0.0040258948241 0.0070168455324 0.01069443337 0.014953177864 0.019685537577 0.024791471754 
0.030186102697 0.035804275737 0.041601440667 0.04755078823 0.053636924376 0.059846826286 0.066159608791 0.072537478466 0.078920536957 
0.085227405041 0.091362174695 0.097226521157 0.10273437105 0.10782556308 0.11247472697 0.11669256921 0.12051906318 0.12401083262 
0.12722645009 0.13021259005 0.1329924955 0.13555777426 0.13786475631 0.13983625377 0.14136847876 0.14234192193 0.14263467116 
0.14213679955 0.14076475242 0.13847494706 0.1352758801 0.13123762985 0.12649679858 0.12125432751 0.11576390422 0.11030973571 
0.10517360931 0.10059325819 0.096721382597 0.09360530473 0.091200438846 0.089404779938 0.088089330579 0.087116040967 0.086361140474 
0.085739835317 0.085207678306 0.084743855504 0.084335941634 0.083974782371 0.083656269568 0.083383137305 0.083163523799 0.083060375345 
0.083098020393 0.083202952641 0.083339311213 0.083427203282 0.083383597199 0.083162616445 0.082767546153 0.082311964571 0.081889178872 
0.081439557006 0.081019047406 0.080675189191 0.080416599876 0.080214784864 0.080011568265 0.079716189043 0.079203489349 0.078320612781 
0.076903618433 0.074801325577 0.07190059629 0.068146729948 0.063554734172 0.058210144991 0.052260335959 0.04589862138 0.039344184734 
0.032821139723 0.026539879138 0.020683235145 0.015398873092 0.01079794844 0.0069587337079 0.0039330832802 0.001753501362 0.00043914758046 
8.6736173799e-19 
