# vtk DataFile Version 5.1
vtk output
ASCII
DATASET POLYDATA
POINTS 100 float
0.133057 0.061498 0.714997 0.133141 0.0615063 0.71501 0.133471 0.0613811 0.714862 
0.134004 0.0611498 0.714484 0.134672 0.0608548 0.713766 0.135388 0.0605485 0.712569 
0.136051 0.0602862 0.710735 0.136558 0.06012 0.708101 0.136811 0.0600913 0.70451 
0.13672 0.0602251 0.699831 0.136213 0.0605252 0.693965 0.135233 0.0609722 0.686857 
0.133745 0.0615227 0.678502 0.131727 0.0621124 0.668946 0.129174 0.0626606 0.658287 
0.126088 0.0630764 0.646663 0.122476 0.0632674 0.634247 0.118348 0.0631476 0.621231 
0.113712 0.0626465 0.607814 0.108572 0.0617159 0.594181 0.102933 0.0603357 0.580497 
0.0968005 0.0585174 0.566888 0.0901832 0.0563043 0.553437 0.0830986 0.0537694 0.540176 
0.0755758 0.0510106 0.527089 0.0676578 0.0481432 0.514117 0.0594025 0.0452914 0.501161 
0.0508816 0.0425786 0.488099 0.0421775 0.0401182 0.4748 0.0333773 0.0380049 0.46113 
0.024567 0.0363082 0.446972 0.0158238 0.0350685 0.432233 0.0072095 0.0342951 0.416848 
-0.00123523 0.0339681 0.400786 -0.00949384 0.034042 0.384047 -0.0175744 0.0344528 0.366657 
-0.0255068 0.0351246 0.348658 -0.0333367 0.0359792 0.330099 -0.0411168 0.0369434 0.311029 
-0.0488965 0.037957 0.291483 -0.0567103 0.0389775 0.271478 -0.0645678 0.0399834 0.251013 
-0.0724443 0.0409748 0.230062 -0.0802759 0.0419717 0.208587 -0.0879573 0.0430091 0.186539 
-0.0953447 0.0441316 0.163871 -0.102263 0.0453865 0.140548 -0.108518 0.0468164 0.116559 
-0.113907 0.0484531 0.0919223 -0.11824 0.050312 0.0666923 -0.12135 0.0523889 0.0409615 
-0.123111 0.0546589 0.0148564 -0.123448 0.0570771 -0.0114696 -0.122342 0.0595817 -0.0378462 
-0.119838 0.0620984 -0.0640998 -0.116033 0.0645463 -0.0900661 -0.111078 0.0668435 -0.115604 
-0.105159 0.0689125 -0.140604 -0.098481 0.0706857 -0.164997 -0.0912585 0.072108 -0.188757 
-0.0836924 0.0731386 -0.211897 -0.0759583 0.0737515 -0.234463 -0.0681949 0.0739335 -0.256528 
-0.060497 0.0736818 -0.278174 -0.0529127 0.0730007 -0.299482 -0.0454468 0.0718981 -0.32052 
-0.0380669 0.0703822 -0.341335 -0.0307143 0.0684596 -0.361941 -0.0233163 0.0661341 -0.382321 
-0.0158 0.0634069 -0.402429 -0.00810412 0.0602782 -0.422191 -0.000190384 0.0567498 -0.44152 
0.00794965 0.0528282 -0.46032 0.0162909 0.0485282 -0.4785 0.0247751 0.0438759 -0.495984 
0.0333159 0.0389112 -0.512719 0.0418056 0.0336889 -0.528676 0.0501262 0.0282783 -0.543854 
0.0581597 0.0227619 -0.558278 0.0657993 0.0172317 -0.57199 0.0729592 0.0117854 -0.585044 
0.079581 0.00652091 -0.597496 0.0856382 0.00153129 -0.609397 0.0911363 -0.0031005 -0.620783 
0.0961099 -0.00730608 -0.63167 0.100616 -0.0110352 -0.642056 0.104728 -0.0142577 -0.651916 
0.108521 -0.0169644 -0.66121 0.112068 -0.0191664 -0.669886 0.115428 -0.0208931 -0.677889 
0.118638 -0.022189 -0.685166 0.121711 -0.0231104 -0.691673 0.124634 -0.0237208 -0.69738 
0.127369 -0.0240874 -0.702271 0.12986 -0.0242763 -0.706349 0.132036 -0.0243498 -0.709628 
0.133825 -0.0243627 -0.712129 0.135158 -0.0243601 -0.713879 0.135979 -0.0243757 -0.714901 
0.136252 -0.02443 -0.715212 
LINES 2 100
OFFSETS vtktypeint64
0 100 
CONNECTIVITY vtktypeint64
0 1 2 3 4 5 6 7 8 
9 10 11 12 13 14 15 16 17 
18 19 20 21 22 23 24 25 26 
27 28 29 30 31 32 33 34 35 
36 37 38 39 40 41 42 43 44 
45 46 47 48 49 50 51 52 53 
54 55 56 57 58 59 60 61 62 
63 64 65 66 67 68 69 70 71 
72 73 74 75 76 77 78 79 80 
81 82 83 84 85 86 87 88 89 
90 91 92 93 94 95 96 97 98 
99 
POINT_DATA 100
FIELD FieldData 3
_theta 1 100 double
0 0.031733259127 0.063466518254 0.095199777382 0.12693303651 0.15866629564 0.19039955476 0.22213281389 0.25386607302 
0.28559933214 0.31733259127 0.3490658504 0.38079910953 0.41253236865 0.44426562778 0.47599888691 0.50773214603 0.53946540516 
0.57119866429 0.60293192342 0.63466518254 0.66639844167 0.6981317008 0.72986495992 0.76159821905 0.79333147818 0.82506473731 
0.85679799643 0.88853125556 0.92026451469 0.95199777382 0.98373103294 1.0154642921 1.0471975512 1.0789308103 1.1106640695 
1.1423973286 1.1741305877 1.2058638468 1.237597106 1.2693303651 1.3010636242 1.3327968833 1.3645301425 1.3962634016 
1.4279966607 1.4597299198 1.491463179 1.5231964381 1.5549296972 1.5866629564 1.6183962155 1.6501294746 1.6818627337 
1.7135959929 1.745329252 1.7770625111 1.8087957702 1.8405290294 1.8722622885 1.9039955476 1.9357288068 1.9674620659 
1.999195325 2.0309285841 2.0626618433 2.0943951024 2.1261283615 2.1578616206 2.1895948798 2.2213281389 2.253061398 
2.2847946572 2.3165279163 2.3482611754 2.3799944345 2.4117276937 2.4434609528 2.4751942119 2.506927471 2.5386607302 
2.5703939893 2.6021272484 2.6338605076 2.6655937667 2.6973270258 2.7290602849 2.7607935441 2.7925268032 2.8242600623 
2.8559933214 2.8877265806 2.9194598397 2.9511930988 2.982926358 3.0146596171 3.0463928762 3.0781261353 3.1098593945 
3.1415926536 
_radius 1 100 double
3.1592929489e-16 0.015237940271 0.030362666582 0.045256678127 0.059809509442 0.073921226001 0.08750546305 0.10049186045 0.11282774072 
0.12447890408 0.13542950987 0.14568115852 0.15525139795 0.16417186034 0.17248606298 0.18024666793 0.18751185219 0.19434054376 
0.20078666891 0.20689311228 0.21268656782 0.21817459257 0.22334581931 0.22817350909 0.23262170163 0.23665250485 0.24023281848 
0.24333906959 0.24595919913 0.24809191443 0.24974386255 0.25092572861 0.25164829192 0.2519192508 0.25174128915 0.25111154734 
0.25002247883 0.24846403695 0.24642716839 0.24390856337 0.24091642582 0.23747667554 0.23363858983 0.22947861306 0.22510107651 
0.22063496864 0.21622665183 0.21202936809 0.20819120686 0.20484356114 0.20209178138 0.20000890712 0.19863242432 0.19796331127 
0.19796637123 0.19857113994 0.19967356768 0.20113982692 0.20281402647 0.20453056599 0.2061298232 0.20747427101 0.20846191832 
0.20903489454 0.20918223829 0.20893696183 0.20836814902 0.20756930716 0.20664451155 0.20569404698 0.20480121377 0.20402170564 
0.20337652712 0.20284890223 0.2023851432 0.20189906177 0.20127921277 0.20039803637 0.19912182141 0.19732040298 0.1948756684 
0.19168823074 0.18768192652 0.18280600939 0.17703503233 0.17036650473 0.16281656601 0.15441417719 0.14519466285 0.13519373168 
0.12444322732 0.11296968972 0.10079629776 0.08794798857 0.074458702853 0.060379049393 0.045782445347 0.030768064218 0.015459628158 
1.1811503659e-15 
_area 1 100 double
0 0.00064467944248 0.0025606360486 0.0056940542079 0.0099569960135 0.015230961064 0.021373021904 0.028224270837 0.035619032511 
0.043392605549 0.051386127676 0.059449241306 0.067442919331 0.075244645815 0.082756326841 0.08991314431 0.096690248313 0.10310438891 
0.10920947138 0.11508772175 0.12083938136 0.1265713428 0.1323803779 0.13832681038 0.14440538773 0.15053108213 0.15655019895 
0.1622696068 0.16749088589 0.17204068919 0.17579284325 0.17867943721 0.18068931004 0.18185409232 0.18222482138 0.1818460692 
0.18073716399 0.17888800414 0.17627074272 0.17286267597 0.16867263258 0.16376293768 0.15826091844 0.15235712888 0.14629084862 
0.14032564491 0.13471826864 0.12968329245 0.12535444845 0.12174979307 0.11877377479 0.11627409845 0.11410807945 0.11217061062 
0.11042041863 0.1089166844 0.10781387805 0.1074183389 0.10750604709 0.10785981016 0.10825597828 0.10847332392 0.10832866814 
0.10769398093 0.10650111337 0.10474793 0.10250613558 0.099918554739 0.097180572282 0.09451053466 0.092113115595 0.09014227328 
0.088687678752 0.087786539911 0.08743107316 0.087562263811 0.088056059379 0.088719699559 0.089313048041 0.089579784325 0.08927329046 
0.088179493488 0.086138513549 0.083061692884 0.07893970729 0.073839854297 0.067893939881 0.061280535937 0.054205955096 0.046887386263 
0.039540018977 0.032368414488 0.025561394098 0.019289464528 0.013703966583 0.0089371664929 0.0051022425787 0.0022921058209 0.00057675968046 
1.8248371102e-17 
