# vtk DataFile Version 5.1
vtk output
ASCII
DATASET POLYDATA
POINTS 100 float
0.123084 0.0454405 -0.664747 0.122819 0.0455628 -0.664711 0.122044 0.0460787 -0.66461 
0.120798 0.046932 -0.664339 0.119141 0.0480379 -0.663744 0.11714 0.0492943 -0.662631 
0.114859 0.0505962 -0.660793 0.112348 0.0518496 -0.658036 0.109629 0.0529847 -0.654194 
0.106695 0.0539655 -0.649153 0.103503 0.0547949 -0.642857 0.0999785 0.055515 -0.635308 
0.0960265 0.0562021 -0.626565 0.0915407 0.0569566 -0.616729 0.0864198 0.0578904 -0.605926 
0.0805836 0.0591125 -0.594284 0.0739867 0.0607146 -0.581923 0.06663 0.062759 -0.568931 
0.0585662 0.0652697 -0.555358 0.0498999 0.0682285 -0.541213 0.040781 0.0715753 -0.526468 
0.0313928 0.0752135 -0.511069 0.0219347 0.0790193 -0.494948 0.0126036 0.0828529 -0.478042 
0.00357359 0.0865712 -0.460311 -0.00502093 0.0900399 -0.441746 -0.0130991 0.0931429 -0.42238 
-0.0206406 0.09579 -0.402288 -0.0276864 0.0979194 -0.381581 -0.0343317 0.099498 -0.360396 
-0.040713 0.100518 -0.338874 -0.0469892 0.10099 -0.317146 -0.0533207 0.10094 -0.295312 
-0.0598469 0.100398 -0.27343 -0.0666663 0.0993967 -0.251499 -0.0738197 0.0979654 -0.229467 
-0.0812809 0.0961307 -0.207231 -0.0889528 0.0939167 -0.184652 -0.096672 0.0913482 -0.161574 
-0.10422 0.0884539 -0.137847 -0.111341 0.0852708 -0.113352 -0.117761 0.0818459 -0.0880179 
-0.123213 0.0782381 -0.0618397 -0.127455 0.0745156 -0.0348847 -0.130296 0.0707533 -0.00729195 
-0.131603 0.0670262 0.0207372 -0.131314 0.0634033 0.0489559 -0.12944 0.0599407 0.0770943 
-0.126063 0.0566758 0.104884 -0.12132 0.0536239 0.132085 -0.115397 0.0507777 0.1585 
-0.108509 0.0481098 0.183998 -0.100881 0.045579 0.208515 -0.0927368 0.0431389 0.232054 
-0.0842785 0.0407478 0.254679 -0.0756808 0.0383785 0.276495 -0.0670812 0.0360275 0.29763 
-0.0585783 0.0337206 0.318217 -0.0502324 0.0315146 0.338368 -0.0420695 0.0294946 0.358167 
-0.0340878 0.0277668 0.377653 -0.0262654 0.0264477 0.396822 -0.0185683 0.02565 0.415632 
-0.010958 0.0254683 0.434012 -0.00339784 0.0259653 0.451876 0.00414162 0.0271612 0.469147 
0.0116794 0.029027 0.485764 0.019222 0.0314839 0.501702 0.0267627 0.0344077 0.516975 
0.034282 0.0376394 0.531643 0.0417484 0.0409995 0.545802 0.0491203 0.044305 0.559576 
0.0563473 0.0473872 0.573104 0.0633728 0.0501075 0.586517 0.0701354 0.0523699 0.599926 
0.0765717 0.0541276 0.613404 0.082619 0.0553846 0.626978 0.0882175 0.0561903 0.640625 
0.0933141 0.0566291 0.654273 0.097865 0.0568058 0.667806 0.101839 0.0568296 0.681082 
0.105218 0.0567977 0.693947 0.108003 0.0567814 0.706249 0.110211 0.0568173 0.717855 
0.111876 0.056903 0.728664 0.113047 0.0569995 0.738612 0.113787 0.0570393 0.747675 
0.114165 0.0569386 0.755867 0.114256 0.0566127 0.763229 0.114134 0.055992 0.769823 
0.113871 0.0550359 0.775715 0.113526 0.0537433 0.780967 0.11315 0.0521575 0.785628 
0.112782 0.0503655 0.789726 0.112448 0.0484905 0.793269 0.112164 0.0466792 0.796243 
0.111937 0.0450862 0.798623 0.111768 0.0438554 0.800378 0.111656 0.0431038 0.801475 
0.111599 0.0429064 0.801895 
LINES 2 100
OFFSETS vtktypeint64
0 100 
CONNECTIVITY vtktypeint64
0 1 2 3 4 5 6 7 8 
9 10 11 12 13 14 15 16 17 
18 19 20 21 22 23 24 25 26 
27 28 29 30 31 32 33 34 35 
36 37 38 39 40 41 42 43 44 
45 46 47 48 49 50 51 52 53 
54 55 56 57 58 59 60 61 62 
63 64 65 66 67 68 69 70 71 
72 73 74 75 76 77 78 79 80 
81 82 83 84 85 86 87 88 89 
90 91 92 93 94 95 96 97 98 
99 
POINT_DATA 100
FIELD FieldData 3
_theta 1 100 double
0 0.031733259127 0.063466518254 0.095199777382 0.12693303651 0.15866629564 0.19039955476 0.22213281389 0.25386607302 
0.28559933214 0.31733259127 0.3490658504 0.38079910953 0.41253236865 0.44426562778 0.47599888691 0.50773214603 0.53946540516 
0.57119866429 0.60293192342 0.63466518254 0.66639844167 0.6981317008 0.72986495992 0.76159821905 0.79333147818 0.82506473731 
0.85679799643 0.88853125556 0.92026451469 0.95199777382 0.98373103294 1.0154642921 1.0471975512 1.0789308103 1.1106640695 
1.1423973286 1.1741305877 1.2058638468 1.237597106 1.2693303651 1.3010636242 1.3327968833 1.3645301425 1.3962634016 
1.4279966607 1.4597299198 1.491463179 1.5231964381 1.5549296972 1.5866629564 1.6183962155 1.6501294746 1.6818627337 
1.7135959929 1.745329252 1.7770625111 1.8087957702 1.8405290294 1.8722622885 1.9039955476 1.9357288068 1.9674620659 
1.999195325 2.0309285841 2.0626618433 2.0943951024 2.1261283615 2.1578616206 2.1895948798 2.2213281389 2.253061398 
2.2847946572 2.3165279163 2.3482611754 2.3799944345 2.4117276937 2.4434609528 2.4751942119 2.506927471 2.5386607302 
2.5703939893 2.6021272484 2.6338605076 2.6655937667 2.6973270258 2.7290602849 2.7607935441 2.7925268032 2.8242600623 
2.8559933214 2.8877265806 2.9194598397 2.9511930988 2.982926358 3.0146596171 3.0463928762 3.0781261353 3.1098593945 
3.1415926536 
_radius 1 100 double
1.1217210798e-15 0.017047006022 0.033909024589 0.050407960076 0.066382347855 0.081691769754 0.096217897914 0.10986285023 0.12254620626 
0.13420216272 0.14477791419 0.15423365023 0.16254388606 0.16969945814 0.17570951649 0.18060312527 0.18443040716 0.18726333127 
0.18919620144 0.19034573923 0.19085044425 0.19086863469 0.19057426136 0.19014950711 0.18977364942 0.18960873159 0.18978389867 
0.19038119293 0.19142561683 0.19288129093 0.19465415804 0.19660072564 0.19854206183 0.20028222064 0.20162991798 0.20242154721 
0.20254294036 0.20194707727 0.20066524587 0.19880964501 0.19656595463 0.1941753442 0.19190732681 0.19002780921 0.18876937574 
0.18831092216 0.18876984998 0.19020413204 0.19261789222 0.19596510359 0.20015024561 0.20502890125 0.2104126733 0.21608112769 
0.22180036743 0.227345195 0.23252058075 0.23717838282 0.24122656302 0.24462990937 0.2474029416 0.24959692855 0.25128370262 
0.25253919086 0.2534292721 0.25399978676 0.25427151137 0.25423998962 0.25387950292 0.25315015109 0.2520068333 0.25040873813 
0.24832778975 0.24575449125 0.2426998917 0.23919302856 0.23527407643 0.23098437653 0.22635527782 0.22139807336 0.21609715106 
0.21040783746 0.20425946435 0.19756316776 0.19022306326 0.18214889975 0.17326815275 0.16353576001 0.1529402214 0.14150543576 
0.12928830766 0.11637275269 0.10286119094 0.088864856268 0.0744942296 0.059850719603 0.0450205144 0.030071363344 0.015052815713 
3.6116259392e-16 
_area 1 100 double
0 0.00064801255228 0.0025920861383 0.0058245032054 0.010309960173 0.01596284685 0.022631390876 0.030094424732 0.038071408882 
0.046242898163 0.054277155645 0.061858282475 0.06871155132 0.074622630466 0.079449081211 0.083124406643 0.08565613699 0.087119494583 
0.087647863528 0.087422472576 0.086666379536 0.085631167403 0.08451696696 0.083418425599 0.082402379872 0.081564102224 0.081141513798 
0.081195551631 0.081662070233 0.082493027196 0.083607538284 0.084895631305 0.086225284168 0.087468537365 0.088553532375 0.089418510716 
0.09006496942 0.090521678293 0.090837288177 0.091079387581 0.091355119092 0.091714618052 0.092268588525 0.093072759688 0.094131338298 
0.095436185327 0.097024571191 0.099017087316 0.10161954307 0.10507341908 0.10955869311 0.11511047655 0.12160511054 0.12879415729 
0.13635183013 0.14392456259 0.15117219446 0.15779714554 0.16356678188 0.16832997812 0.17202304879 0.17466230894 0.17632550073 
0.17712422786 0.17716451055 0.17650502907 0.17515318748 0.17310471252 0.17038226892 0.16705137038 0.16321818632 0.15901600872 
0.15458430182 0.15004466262 0.14547977475 0.14092097272 0.13634727655 0.13169553267 0.12687805483 0.12180225769 0.11638733568 
0.11057492479 0.10433299396 0.097654715023 0.090555754126 0.083073066689 0.075265884984 0.067216912805 0.059031115231 0.050831665877 
0.042755379292 0.034949875893 0.027571644778 0.02078210693 0.014740142084 0.009592238504 0.005462988986 0.0024486475397 0.00061516462025 
6.6725732738e-17 
