# vtk DataFile Version 5.1
vtk output
ASCII
DATASET POLYDATA
POINTS 100 float
0.0532084 0.0352447 0.595099 0.0533482 0.0355003 0.594839 0.0538384 0.0360891 0.59397 
0.054616 0.0369677 0.592538 0.0555846 0.0380687 0.590606 0.0566259 0.0393088 0.588247 
0.0576143 0.040597 0.585531 0.058432 0.0418443 0.582506 0.0589823 0.0429732 0.579193 
0.0592002 0.043925 0.575579 0.0590584 0.0446648 0.571613 0.0585679 0.0451843 0.567211 
0.0577733 0.0455001 0.562269 0.0567441 0.0456505 0.556673 0.0555621 0.0456882 0.550316 
0.0543083 0.0456728 0.543117 0.0530492 0.0456613 0.53503 0.0518265 0.0457 0.526056 
0.0506493 0.045817 0.516244 0.0494921 0.0460183 0.505691 0.0482972 0.0462853 0.494528 
0.0469812 0.0465767 0.48291 0.0454462 0.0468328 0.470994 0.043591 0.0469826 0.458926 
0.0413248 0.0469526 0.44682 0.0385769 0.0466766 0.434751 0.0353053 0.0461043 0.422742 
0.0314999 0.0452095 0.410771 0.0271818 0.0439955 0.398773 0.0223983 0.0424972 0.386653 
0.0172143 0.0407804 0.374303 0.0117017 0.0389377 0.36162 0.00592867 0.0370813 0.348517 
-4.96845e-05 0.0353344 0.334944 -0.00619814 0.0338206 0.32089 -0.0125038 0.0326542 0.306384 
-0.0189744 0.0319305 0.291492 -0.0256318 0.0317189 0.276305 -0.0325028 0.0320582 0.260921 
-0.0396069 0.032955 0.245434 -0.0469445 0.0343846 0.229911 -0.0544859 0.0362956 0.214382 
-0.0621638 0.0386159 0.198834 -0.06987 0.0412602 0.183204 -0.0774575 0.0441377 0.167391 
-0.0847478 0.0471599 0.151262 -0.0915427 0.0502466 0.134672 -0.0976395 0.0533299 0.117482 
-0.102848 0.0563566 0.0995763 -0.107008 0.0592878 0.0808832 -0.110001 0.0620965 0.0613815 
-0.111762 0.0647644 0.041108 -0.112287 0.0672775 0.0201549 -0.111627 0.0696213 -0.00133945 
-0.109886 0.0717776 -0.0232049 -0.107206 0.0737216 -0.0452575 -0.103755 0.075422 -0.0673185 
-0.0997091 0.0768416 -0.0892314 -0.0952365 0.0779404 -0.110875 -0.0904826 0.0786795 -0.132173 
-0.0855593 0.0790264 -0.153089 -0.0805394 0.0789597 -0.173629 -0.0754547 0.0784729 -0.193824 
-0.0702999 0.0775771 -0.213716 -0.0650403 0.0763018 -0.233345 -0.0596222 0.0746931 -0.252732 
-0.0539844 0.0728106 -0.27187 -0.0480701 0.0707214 -0.290716 -0.0418364 0.0684936 -0.309194 
-0.0352618 0.0661896 -0.327202 -0.0283501 0.0638592 -0.344625 -0.0211306 0.0615344 -0.36135 
-0.0136562 0.0592264 -0.377285 -0.00599772 0.0569246 -0.39237 0.00176166 0.0545992 -0.406591 
0.00953329 0.0522057 -0.419985 0.0172287 0.0496917 -0.432632 0.0247644 0.0470059 -0.444652 
0.0320639 0.0441062 -0.456181 0.0390592 0.0409683 -0.467356 0.0456896 0.0375922 -0.478294 
0.0519004 0.0340064 -0.489067 0.0576406 0.0302687 -0.499691 0.0628619 0.0264637 -0.51012 
0.0675185 0.0226971 -0.520243 0.0715686 0.0190869 -0.529895 0.0749771 0.0157532 -0.538878 
0.07772 0.0128065 -0.546983 0.0797897 0.0103371 -0.554017 0.0811991 0.00840515 -0.55983 
0.0819861 0.0070347 -0.564337 0.0822147 0.00621002 -0.567536 0.0819749 0.00587677 -0.569509 
0.0813788 0.0059467 -0.570421 0.0805541 0.0063062 -0.570501 0.0796353 0.00682739 -0.570023 
0.0787531 0.00738097 -0.569271 0.0780241 0.00784931 -0.56851 0.0775396 0.00813848 -0.567956 
0.0773586 0.0081879 -0.567747 
LINES 2 100
OFFSETS vtktypeint64
0 100 
CONNECTIVITY vtktypeint64
0 1 2 3 4 5 6 7 8 
9 10 11 12 13 14 15 16 17 
18 19 20 21 22 23 24 25 26 
27 28 29 30 31 32 33 34 35 
36 37 38 39 40 41 42 43 44 
45 46 47 48 49 50 51 52 53 
54 55 56 57 58 59 60 61 62 
63 64 65 66 67 68 69 70 71 
72 73 74 75 76 77 78 79 80 
81 82 83 84 85 86 87 88 89 
90 91 92 93 94 95 96 97 98 
99 
POINT_DATA 100
FIELD FieldData 3
_theta 1 100 double
0 0.031733259127 0.063466518254 0.095199777382 0.12693303651 0.15866629564 0.19039955476 0.22213281389 0.25386607302 
0.28559933214 0.31733259127 0.3490658504 0.38079910953 0.41253236865 0.44426562778 0.47599888691 0.50773214603 0.53946540516 
0.57119866429 0.60293192342 0.63466518254 0.66639844167 0.6981317008 0.72986495992 0.76159821905 0.79333147818 0.82506473731 
0.85679799643 0.88853125556 0.92026451469 0.95199777382 0.98373103294 1.0154642921 1.0471975512 1.0789308103 1.1106640695 
1.1423973286 1.1741305877 1.2058638468 1.237597106 1.2693303651 1.3010636242 1.3327968833 1.3645301425 1.3962634016 
1.4279966607 1.4597299198 1.491463179 1.5231964381 1.5549296972 1.5866629564 1.6183962155 1.6501294746 1.6818627337 
1.7135959929 1.745329252 1.7770625111 1.8087957702 1.8405290294 1.8722622885 1.9039955476 1.9357288068 1.9674620659 
1.999195325 2.0309285841 2.0626618433 2.0943951024 2.1261283615 2.1578616206 2.1895948798 2.2213281389 2.253061398 
2.2847946572 2.3165279163 2.3482611754 2.3799944345 2.4117276937 2.4434609528 2.4751942119 2.506927471 2.5386607302 
2.5703939893 2.6021272484 2.6338605076 2.6655937667 2.6973270258 2.7290602849 2.7607935441 2.7925268032 2.8242600623 
2.8559933214 2.8877265806 2.9194598397 2.9511930988 2.982926358 3.0146596171 3.0463928762 3.0781261353 3.1098593945 
3.1415926536 
_radius 1 100 double
8.8863908616e-16 0.012258014207 0.024508590793 0.036733240846 0.048905051641 0.060985595174 0.072923090659 0.084652399387 0.09609721452 
0.10717436776 0.11779967007 0.1278943425 0.13739100609 0.14623838184 0.15440419348 0.16187613085 0.16866102309 0.17478255967 
0.18027800204 0.18519437968 0.189584668 0.19350438946 0.19700895358 0.20015186206 0.20298367696 0.20555142331 0.20789793405 
0.21006062406 0.21206935654 0.21394342736 0.21568813624 0.21729176985 0.21872393333 0.2199359699 0.22086377836 0.22143285994 
0.22156508534 0.22118654724 0.22023588286 0.21867246241 0.21648373262 0.21369079266 0.21035110523 0.20655730357 0.2024315092 
0.19811545051 0.19375776071 0.18950067486 0.18546848537 0.18175954688 0.17844283204 0.1755593739 0.1731281089 0.17115431678 
0.16963750894 0.16857534354 0.16796161981 0.16777924715 0.16799203677 0.16854049847 0.16934513813 0.17031659755 0.1713683553 
0.17242722582 0.17343902595 0.17436921884 0.17519974573 0.17592366962 0.17653915561 0.17704398684 0.17743137841 0.17768739494 
0.17778991052 0.17770883975 0.17740729779 0.17684333725 0.1759718922 0.17474652641 0.17312059495 0.1710475723 0.16848060835 
0.16537176473 0.16167168026 0.15733044302 0.15230013947 0.14653898437 0.14001630507 0.13271720652 0.12464568962 0.11582541038 
0.1062980144 0.096119731534 0.085357300947 0.074084150904 0.062377252325 0.050314594594 0.037973098768 0.025426984232 0.012746877062 
1.2839949721e-15 
_area 1 100 double
0 0.00040727949171 0.0016292755092 0.0036654496544 0.0065116210555 0.010155371466 0.014570364804 0.019710513564 0.025505249851 
0.031857166749 0.038642855044 0.045717080555 0.052919913182 0.060086221545 0.06705688363 0.073690768313 0.079875995956 0.085538646661 
0.090647380406 0.095213295846 0.099285331481 0.10294218595 0.10628199009 0.10941094856 0.11243200586 0.11543418555 0.11848266394 
0.12160973009 0.12480830773 0.12803089377 0.1311948642 0.13419178631 0.13689764732 0.13918252622 0.14091936376 0.14199138954 
0.14229778726 0.14175832575 0.14031918777 0.1379620986 0.1347161139 0.13066782739 0.12596441223 0.12080609518 0.1154286618 
0.1100794518 0.10499042479 0.10034933683 0.096267065379 0.092749321742 0.089704023509 0.086991836036 0.084479758471 0.082072627508 
0.07972512699 0.077440276592 0.075260715952 0.073260703286 0.071542380488 0.070220765182 0.069365716765 0.068939925957 0.068824315727 
0.06889639721 0.069081848762 0.069355203547 0.069711234409 0.070142041741 0.070636180618 0.071160707353 0.071663998536 0.072100141085 
0.072432150201 0.072633716805 0.072690220547 0.072596145329 0.072349132796 0.071944065898 0.071369459284 0.070603821464 0.06960749322 
0.068312070644 0.066618168873 0.064409912732 0.06158198015 0.058066984971 0.053854063679 0.048996135905 0.043606900328 0.037849808807 
0.031922040204 0.026036842055 0.020406664703 0.015227743637 0.010666148301 0.0068467088603 0.0038479122576 0.0017055634077 0.00042528772478 
1.6764213442e-17 
