# vtk DataFile Version 5.1
vtk output
ASCII
DATASET POLYDATA
POINTS 100 float
0.142071 0.0362349 0.677713 0.14224 0.0362821 0.677219 0.142662 0.0365318 0.675879 
0.14327 0.0369692 0.673715 0.143955 0.0375701 0.670761 0.144584 0.0383029 0.667059 
0.145015 0.0391302 0.662653 0.145106 0.0400107 0.657591 0.144737 0.0409017 0.651914 
0.143817 0.0417608 0.645657 0.14229 0.0425475 0.638849 0.140141 0.0432244 0.63151 
0.137393 0.0437587 0.623654 0.134098 0.0441222 0.615293 0.130329 0.0442922 0.606436 
0.126166 0.0442515 0.597098 0.121689 0.0439889 0.587295 0.116962 0.0434996 0.577056 
0.112029 0.0427856 0.566414 0.106911 0.0418563 0.555413 0.101602 0.0407288 0.5441 
0.0960786 0.0394287 0.532525 0.0903038 0.0379898 0.520736 0.0842369 0.0364541 0.508775 
0.077843 0.0348708 0.496673 0.0711008 0.033295 0.484445 0.0640087 0.031786 0.472093 
0.0565875 0.0304045 0.4596 0.0488798 0.0292104 0.446932 0.0409459 0.0282597 0.434042 
0.032857 0.0276023 0.420874 0.0246878 0.0272795 0.407362 0.0165079 0.0273227 0.393443 
0.00837537 0.0277522 0.379051 0.000331794 0.0285774 0.364129 -0.00759855 0.029797 0.348627 
-0.0154067 0.0313998 0.332505 -0.0230937 0.0333666 0.315735 -0.0306624 0.035671 0.298297 
-0.0381089 0.0382811 0.280183 -0.0454132 0.0411599 0.26139 -0.0525321 0.0442664 0.241928 
-0.0593946 0.0475556 0.22181 -0.065902 0.0509782 0.20106 -0.071931 0.0544806 0.179707 
-0.0773419 0.0580049 0.157791 -0.0819894 0.0614891 0.135361 -0.085736 0.0648687 0.112475 
-0.0884655 0.0680778 0.0892018 -0.0900952 0.0710523 0.0656165 -0.0905854 0.0737333 0.0418015 
-0.0899446 0.0760703 0.0178416 -0.0882301 0.078025 -0.00617997 -0.0855429 0.079575 -0.0301855 
-0.082019 0.0807151 -0.0541073 -0.0778159 0.0814589 -0.0778908 -0.073098 0.0818371 -0.101497 
-0.0680216 0.081895 -0.124902 -0.0627208 0.0816878 -0.148097 -0.0572971 0.0812742 -0.171083 
-0.0518133 0.0807102 -0.193869 -0.0462917 0.0800409 -0.216463 -0.0407177 0.0792952 -0.238865 
-0.0350475 0.0784802 -0.261065 -0.0292195 0.0775785 -0.283038 -0.0231665 0.0765482 -0.304736 
-0.0168291 0.0753257 -0.326095 -0.0101665 0.0738311 -0.347035 -0.00316538 0.0719763 -0.367464 
0.00415543 0.0696739 -0.387287 0.0117443 0.0668474 -0.406412 0.0195201 0.0634408 -0.424761 
0.0273788 0.0594259 -0.442275 0.0352026 0.0548082 -0.458921 0.0428694 0.0496285 -0.474694 
0.0502631 0.0439616 -0.489619 0.0572811 0.0379112 -0.503742 0.0638406 0.0316025 -0.517128 
0.0698812 0.0251713 -0.529853 0.0753653 0.0187538 -0.54199 0.0802756 0.0124749 -0.553601 
0.0846109 0.00643906 -0.564732 0.0883811 0.000723015 -0.5754 0.0916023 -0.00462781 -0.585597 
0.0942927 -0.00959963 -0.595288 0.0964707 -0.0142068 -0.604413 0.0981538 -0.0184854 -0.6129 
0.0993604 -0.0224841 -0.620669 0.100113 -0.0262546 -0.62765 0.10044 -0.0298411 -0.633784 
0.100382 -0.0332727 -0.639042 0.099991 -0.0365562 -0.643423 0.0993354 -0.0396741 -0.646961 
0.0984949 -0.0425845 -0.649718 0.0975593 -0.0452251 -0.651785 0.0966228 -0.0475204 -0.653265 
0.0957767 -0.0493899 -0.65427 0.0951027 -0.0507582 -0.654901 0.0946652 -0.0515638 -0.655243 
0.0945055 -0.0517671 -0.655348 
LINES 2 100
OFFSETS vtktypeint64
0 100 
CONNECTIVITY vtktypeint64
0 1 2 3 4 5 6 7 8 
9 10 11 12 13 14 15 16 17 
18 19 20 21 22 23 24 25 26 
27 28 29 30 31 32 33 34 35 
36 37 38 39 40 41 42 43 44 
45 46 47 48 49 50 51 52 53 
54 55 56 57 58 59 60 61 62 
63 64 65 66 67 68 69 70 71 
72 73 74 75 76 77 78 79 80 
81 82 83 84 85 86 87 88 89 
90 91 92 93 94 95 96 97 98 
99 
POINT_DATA 100
FIELD FieldData 3
_theta 1 100 double
0 0.031733259127 0.063466518254 0.095199777382 0.12693303651 0.15866629564 0.19039955476 0.22213281389 0.25386607302 
0.28559933214 0.31733259127 0.3490658504 0.38079910953 0.41253236865 0.44426562778 0.47599888691 0.50773214603 0.53946540516 
0.57119866429 0.60293192342 0.63466518254 0.66639844167 0.6981317008 0.72986495992 0.76159821905 0.79333147818 0.82506473731 
0.85679799643 0.88853125556 0.92026451469 0.95199777382 0.98373103294 1.0154642921 1.0471975512 1.0789308103 1.1106640695 
1.1423973286 1.1741305877 1.2058638468 1.237597106 1.2693303651 1.3010636242 1.3327968833 1.3645301425 1.3962634016 
1.4279966607 1.4597299198 1.491463179 1.5231964381 1.5549296972 1.5866629564 1.6183962155 1.6501294746 1.6818627337 
1.7135959929 1.745329252 1.7770625111 1.8087957702 1.8405290294 1.8722622885 1.9039955476 1.9357288068 1.9674620659 
1.999195325 2.0309285841 2.0626618433 2.0943951024 2.1261283615 2.1578616206 2.1895948798 2.2213281389 2.253061398 
2.2847946572 2.3165279163 2.3482611754 2.3799944345 2.4117276937 2.4434609528 2.4751942119 2.506927471 2.5386607302 
2.5703939893 2.6021272484 2.6338605076 2.6655937667 2.6973270258 2.7290602849 2.7607935441 2.7925268032 2.8242600623 
2.8559933214 2.8877265806 2.9194598397 2.9511930988 2.982926358 3.0146596171 3.0463928762 3.0781261353 3.1098593945 
3.1415926536 
_radius 1 100 double
8.9317877898e-16 0.014278422574 0.028456812575 0.042444470046 0.056161307442 0.069539853639 0.082524897985 0.095071574964 0.10714306492 
0.11870889472 0.12974422826 0.14022989526 0.15015254238 0.15950432676 0.16828191973 0.17648503282 0.18411500669 0.19117408517 
0.19766581539 0.20359664844 0.20897839105 0.21383080187 0.21818343451 0.22207585763 0.22555564121 0.22867396029 0.23147926205 
0.23401004158 0.23628817897 0.23831429943 0.24006616913 0.24150041663 0.24255719884 0.24316702363 0.24325879764 0.24276817817 
0.24164540003 0.23986191443 0.2374154176 0.23433311356 0.23067325522 0.2265250393 0.22200675601 0.21726178534 0.2124517933 
0.20774659553 0.20331085971 0.19928910018 0.19579183246 0.19288643749 0.19059541957 0.18890231471 0.1877626432 0.18711560188 
0.18689257699 0.18702070542 0.18742243253 0.18801398373 0.18870601163 0.18940832672 0.19003832842 0.19053072127 0.19084529061 
0.19097016457 0.19091963238 0.19072742392 0.19043765941 0.19009602502 0.1897430751 0.18941025583 0.18911792965 0.18887400993 
0.18867210126 0.18848904898 0.1882828649 0.1879924164 0.18753976774 0.18683496897 0.18578207591 0.18428482465 0.18225081167 
0.17959394492 0.17623581936 0.17210708858 0.16714967864 0.16131996771 0.15459220709 0.14696090456 0.13844091355 0.12906462002 
0.11887668298 0.10792785622 0.096270023266 0.083954362266 0.071033498727 0.057566976863 0.043628016941 0.029308899343 0.014722666696 
2.7906178167e-16 
_area 1 100 double
0 0.00049952085115 0.0019873204082 0.0044313933482 0.0077792302611 0.01195878238 0.016879621584 0.022434739296 0.028503858796 
0.034959123651 0.041673407115 0.048530451693 0.055434953784 0.06231986037 0.069147838777 0.075904752882 0.082585940793 0.089180598886 
0.09566190114 0.10198726802 0.10810724398 0.1139782674 0.11957493835 0.12489831552 0.12997701314 0.13485865747 0.13959202679 
0.14420442097 0.14868193216 0.15295986309 0.15692640024 0.16043715432 0.16333456429 0.16546619915 0.16669886106 0.16692863037 
0.16608842254 0.16415402029 0.16114855 0.15714518681 0.15226785037 0.14668893151 0.14062221189 0.13430923064 0.12799866887 
0.12192033025 0.11625779592 0.11112665798 0.10656624233 0.1025499105 0.099012284283 0.095882183445 0.09310775871 0.090682564007 
0.088883242721 0.08757935893 0.086555532323 0.085742552867 0.085106681766 0.084612578716 0.084192380692 0.083750360323 0.083199404994 
0.082494578751 0.08164236995 0.080691053782 0.079717049657 0.078800635299 0.077999302349 0.077367181471 0.076953497011 0.076793688735 
0.076904383413 0.077271988573 0.077849842492 0.078566386997 0.079330491931 0.080038575258 0.08058108058 0.080843746155 0.080704370941 
0.080030601046 0.078685037924 0.076540584223 0.073503402709 0.069536246017 0.064673767513 0.059024264592 0.052757426874 0.046082484377 
0.039223802835 0.032400808418 0.025816480903 0.019654694606 0.014083188494 0.009257436112 0.0053214147355 0.0024033361361 0.00060680290382 
3.2418483043e-17 
