# vtk DataFile Version 5.1
vtk output
ASCII
DATASET POLYDATA
POINTS 100 float
0.118497 -0.0124559 -0.644556 0.118311 -0.0123891 -0.644128 0.117745 -0.0120204 -0.642888 
0.116792 -0.0113628 -0.640845 0.115441 -0.0104362 -0.638014 0.113684 -0.00926338 -0.634415 
0.111516 -0.00786488 -0.630077 0.10894 -0.00625438 -0.625035 0.105969 -0.00443488 -0.619331 
0.102628 -0.00239663 -0.613011 0.0989523 -0.000117223 -0.606123 0.0949872 0.00243582 -0.59871 
0.0907844 0.00530035 -0.590811 0.0863975 0.00851312 -0.582453 0.0818767 0.0121023 -0.573647 
0.0772647 0.0160803 -0.564387 0.0725921 0.0204371 -0.554649 0.0678752 0.0251363 -0.544389 
0.0631148 0.0301129 -0.533553 0.0582975 0.0352752 -0.522074 0.0533982 0.0405091 -0.509888 
0.0483843 0.0456854 -0.496935 0.0432211 0.0506688 -0.483167 0.0378764 0.0553283 -0.468559 
0.0323258 0.0595471 -0.453111 0.0265557 0.0632317 -0.436846 0.0205658 0.0663179 -0.419815 
0.0143687 0.0687747 -0.40209 0.00798871 0.0706044 -0.383756 0.00145886 0.0718389 -0.364901 
-0.00518292 0.0725345 -0.345612 -0.0118976 0.0727629 -0.325959 -0.0186481 0.0726025 -0.30599 
-0.0254015 0.072129 -0.285726 -0.032129 0.0714077 -0.265159 -0.0388045 0.0704875 -0.244252 
-0.0454008 0.0693978 -0.222949 -0.0518852 0.0681485 -0.201182 -0.0582137 0.0667333 -0.178881 
-0.0643263 0.0651341 -0.155988 -0.070143 0.0633289 -0.132473 -0.075562 0.0612991 -0.108336 
-0.0804605 0.0590367 -0.0836232 -0.0846994 0.0565505 -0.0584235 -0.0881301 0.0538698 -0.032871 
-0.0906042 0.0510457 -0.00713736 -0.0919852 0.0481496 0.0185778 -0.0921608 0.0452689 0.0440598 
-0.0910541 0.0425014 0.0690943 -0.0886331 0.039947 0.0934815 -0.084917 0.0377005 0.11705 
-0.079978 0.0358438 0.13967 -0.0739392 0.0344398 0.161255 -0.0669675 0.0335284 0.181772 
-0.0592622 0.0331244 0.201235 -0.0510416 0.0332184 0.2197 -0.0425266 0.0337786 0.23726 
-0.0339252 0.0347562 0.254028 -0.0254177 0.0360901 0.270129 -0.0171459 0.0377128 0.285689 
-0.0092046 0.0395564 0.300822 -0.00163966 0.0415564 0.315626 0.0055503 0.0436558 0.330175 
0.012407 0.0458064 0.34452 0.0190021 0.0479691 0.35869 0.0254243 0.0501134 0.372697 
0.0317652 0.052215 0.386539 0.038106 0.0542539 0.400208 0.0445058 0.0562122 0.413692 
0.0509935 0.0580721 0.426983 0.0575633 0.059815 0.440078 0.0641744 0.0614215 0.452979 
0.0707557 0.0628716 0.46569 0.077213 0.0641468 0.478217 0.0834393 0.0652312 0.490562 
0.0893268 0.0661139 0.502718 0.0947784 0.0667902 0.514666 0.0997183 0.0672627 0.526372 
0.1041 0.0675417 0.537785 0.107911 0.0676446 0.548841 0.111176 0.0675942 0.559461 
0.113951 0.0674171 0.569556 0.116321 0.0671418 0.579038 0.118391 0.0667955 0.587822 
0.120275 0.0664031 0.595831 0.122087 0.0659854 0.603006 0.123926 0.0655583 0.609312 
0.125875 0.065133 0.614733 0.127987 0.0647168 0.619284 0.130282 0.0643138 0.623002 
0.132747 0.0639268 0.62595 0.135338 0.0635585 0.628205 0.137982 0.0632127 0.629864 
0.140585 0.062895 0.631026 0.14304 0.0626131 0.631798 0.145236 0.0623761 0.632278 
0.147065 0.0621938 0.632557 0.148435 0.0620757 0.632711 0.149273 0.0620294 0.632795 
0.149534 0.06206 0.632846 
LINES 2 100
OFFSETS vtktypeint64
0 100 
CONNECTIVITY vtktypeint64
0 1 2 3 4 5 6 7 8 
9 10 11 12 13 14 15 16 17 
18 19 20 21 22 23 24 25 26 
27 28 29 30 31 32 33 34 35 
36 37 38 39 40 41 42 43 44 
45 46 47 48 49 50 51 52 53 
54 55 56 57 58 59 60 61 62 
63 64 65 66 67 68 69 70 71 
72 73 74 75 76 77 78 79 80 
81 82 83 84 85 86 87 88 89 
90 91 92 93 94 95 96 97 98 
99 
POINT_DATA 100
FIELD FieldData 3
_theta 1 100 double
0 0.031733259127 0.063466518254 0.095199777382 0.12693303651 0.15866629564 0.19039955476 0.22213281389 0.25386607302 
0.28559933214 0.31733259127 0.3490658504 0.38079910953 0.41253236865 0.44426562778 0.47599888691 0.50773214603 0.53946540516 
0.57119866429 0.60293192342 0.63466518254 0.66639844167 0.6981317008 0.72986495992 0.76159821905 0.79333147818 0.82506473731 
0.85679799643 0.88853125556 0.92026451469 0.95199777382 0.98373103294 1.0154642921 1.0471975512 1.0789308103 1.1106640695 
1.1423973286 1.1741305877 1.2058638468 1.237597106 1.2693303651 1.3010636242 1.3327968833 1.3645301425 1.3962634016 
1.4279966607 1.4597299198 1.491463179 1.5231964381 1.5549296972 1.5866629564 1.6183962155 1.6501294746 1.6818627337 
1.7135959929 1.745329252 1.7770625111 1.8087957702 1.8405290294 1.8722622885 1.9039955476 1.9357288068 1.9674620659 
1.999195325 2.0309285841 2.0626618433 2.0943951024 2.1261283615 2.1578616206 2.1895948798 2.2213281389 2.253061398 
2.2847946572 2.3165279163 2.3482611754 2.3799944345 2.4117276937 2.4434609528 2.4751942119 2.506927471 2.5386607302 
2.5703939893 2.6021272484 2.6338605076 2.6655937667 2.6973270258 2.7290602849 2.7607935441 2.7925268032 2.8242600623 
2.8559933214 2.8877265806 2.9194598397 2.9511930988 2.982926358 3.0146596171 3.0463928762 3.0781261353 3.1098593945 
3.1415926536 
_radius 1 100 double
9.0919536708e-16 0.013387644517 0.026592977097 0.039454115131 0.051843719984 0.063676194744 0.074905879777 0.085517268708 0.095510414974 
0.10488585902 0.11363312615 0.12172530862 0.12912020458 0.13576679629 0.14161498793 0.14662643609 0.15078461923 0.1541026563 
0.15662771742 0.15844129427 0.15965518413 0.16040365407 0.16083269452 0.16108749227 0.16129936755 0.16157355278 0.16197933674 
0.16254409659 0.16325239114 0.16405051489 0.16485589093 0.16556979165 0.16609144039 0.16633163914 0.16622456542 0.16573704005 
0.16487500476 0.16368681709 0.16226229918 0.16072584279 0.15922234925 0.15789747706 0.15687808346 0.15626112031 0.1561154794 
0.15649342655 0.15744326991 0.15901572565 0.1612602439 0.16421152305 0.16787007992 0.17218367567 0.17703721055 0.182256377 
0.18762560684 0.19291577981 0.19791415655 0.20244924159 0.20640598516 0.20973005027 0.21242244911 0.21452735054 0.21611645904 
0.21727323247 0.21807944055 0.21860538369 0.21890390206 0.21900753866 0.21892806955 0.21865791749 0.21817333188 0.21743929276 
0.21641575687 0.21506425838 0.21335334458 0.21126123005 0.20877460355 0.20588365816 0.20257478532 0.19882344259 0.19458995419 
0.18982018381 0.18445135826 0.17842149953 0.17167973548 0.16419465264 0.1559587155 0.14698811304 0.13731867993 0.12699944637 
0.11608575373 0.10463370414 0.092697058153 0.080326785349 0.067572658035 0.05448584478 0.04112145501 0.027540250811 0.013809089876 
9.8017143611e-16 
_area 1 100 double
0 0.00047833766741 0.0018819661678 0.0041223562128 0.0070692721232 0.010572195401 0.014482687924 0.018672719363 0.023044887098 
0.027531780228 0.032084013071 0.036650758826 0.041161480129 0.045518056097 0.049600352176 0.053278025999 0.056413164248 0.058856773455 
0.060476095679 0.061207911686 0.061095027133 0.060296944809 0.059084197743 0.057816874527 0.05686988611 0.056430311644 0.056370579676 
0.056594405653 0.057068503454 0.057755261377 0.058597796451 0.059518295999 0.060430058763 0.061259417021 0.061968511458 0.062566998283 
0.063106210229 0.063657825414 0.064286805966 0.065026466354 0.065872104097 0.066808599315 0.06783528979 0.068950295305 0.070128379416 
0.071331814841 0.07254689901 0.073830905725 0.075353391526 0.077405879011 0.080322022079 0.084279483275 0.089205138838 0.094832717781 
0.10079747505 0.10672481906 0.11227589752 0.11716844326 0.12119365651 0.12422802599 0.12623463354 0.12725487919 0.12739587922 
0.12681717578 0.12571532813 0.12430181497 0.12276508999 0.12122195855 0.11971981 0.11826752903 0.11683571684 0.11535007819 
0.11370394545 0.11178863375 0.10952689201 0.1068937527 0.10391665574 0.10065596935 0.097172799527 0.093494513649 0.089592669707 
0.08538749145 0.080779494975 0.075691473773 0.070100346776 0.064048645141 0.057637138065 0.05100599105 0.044312525012 0.037711941974 
0.031344943104 0.025333263759 0.019781187853 0.014779358671 0.010407602986 0.0067354050903 0.0038206220278 0.0017079628707 0.00042844643071 
7.2665040339e-17 
