# vtk DataFile Version 5.1
vtk output
ASCII
DATASET POLYDATA
POINTS 100 float
0.0258532 0.0544175 0.653883 0.0260156 0.0545963 0.653584 0.0265434 0.0549751 0.652545 
0.0273824 0.0555267 0.65081 0.0284488 0.0562083 0.648447 0.0296394 0.056966 0.645536 
0.0308436 0.0577395 0.642155 0.0319559 0.0584676 0.638368 0.0328872 0.0590932 0.634213 
0.0335743 0.0595677 0.629697 0.0339847 0.0598543 0.624789 0.0341177 0.0599298 0.619429 
0.034001 0.059785 0.613529 0.0336836 0.0594233 0.606992 0.0332258 0.0588589 0.599719 
0.0326881 0.0581139 0.59163 0.0321202 0.0572148 0.582677 0.0315516 0.0561894 0.572848 
0.0309858 0.0550649 0.562177 0.0303981 0.0538654 0.550739 0.0297375 0.0526111 0.538648 
0.0289325 0.0513186 0.526041 0.0279006 0.0500009 0.513064 0.0265586 0.0486688 0.499858 
0.0248337 0.0473317 0.486544 0.0226739 0.0459989 0.473207 0.0200545 0.0446799 0.459894 
0.016982 0.0433851 0.446608 0.0134932 0.0421252 0.433314 0.00965012 0.0409114 0.419946 
0.00553194 0.0397543 0.406417 0.00122385 0.0386639 0.392638 -0.00319444 0.0376493 0.378529 
-0.00765956 0.0367196 0.364028 -0.0121331 0.0358842 0.349102 -0.0166064 0.035155 0.333749 
-0.021101 0.0345472 0.317993 -0.0256643 0.0340814 0.301878 -0.0303612 0.0337844 0.285458 
-0.0352615 0.0336895 0.268785 -0.0404267 0.0338354 0.251894 -0.0458955 0.0342643 0.234797 
-0.0516716 0.035018 0.217474 -0.0577143 0.0361337 0.199875 -0.0639342 0.0376389 0.181923 
-0.0701943 0.0395463 0.163523 -0.0763157 0.0418491 0.144579 -0.0820896 0.0445182 0.125003 
-0.0872924 0.0475007 0.104733 -0.0917028 0.0507215 0.0837463 -0.0951205 0.0540866 0.0620639 
-0.0973818 0.0574889 0.0397548 -0.0983734 0.0608166 0.016931 -0.0980404 0.0639616 -0.00626149 
-0.0963895 0.0668288 -0.0296572 -0.093486 0.0693444 -0.053088 -0.089446 0.0714623 -0.0763998 
-0.0844231 0.0731675 -0.0994683 -0.0785933 0.0744766 -0.12221 -0.0721383 0.0754347 -0.144585 
-0.0652289 0.0761087 -0.166602 -0.0580112 0.0765783 -0.188304 -0.0505961 0.0769249 -0.209758 
-0.0430535 0.0772201 -0.231042 -0.0354116 0.0775151 -0.252223 -0.0276603 0.0778314 -0.27334 
-0.0197593 0.0781562 -0.294396 -0.0116491 0.0784396 -0.315346 -0.00326336 0.0785976 -0.3361 
0.00545816 0.0785188 -0.356524 0.0145581 0.078074 -0.376456 0.0240523 0.0771292 -0.39572 
0.0339236 0.0755587 -0.414149 0.04412 0.073259 -0.431597 0.0545554 0.0701605 -0.44796 
0.0651147 0.0662364 -0.463184 0.0756612 0.0615073 -0.477272 0.086046 0.0560425 -0.49028 
0.0961173 0.049956 -0.502306 0.105731 0.0433992 -0.513481 0.11476 0.0365498 -0.523946 
0.123097 0.0295995 -0.533835 0.130668 0.0227404 -0.543259 0.137423 0.0161522 -0.55229 
0.143347 0.00999137 -0.560958 0.14845 0.0043821 -0.569245 0.152767 -0.000588418 -0.577095 
0.156353 -0.00487211 -0.584422 0.159277 -0.00845866 -0.591127 0.161615 -0.0113714 -0.597116 
0.163449 -0.0136613 -0.602312 0.164857 -0.0153993 -0.606674 0.165915 -0.0166692 -0.610201 
0.166691 -0.0175597 -0.612934 0.167244 -0.0181579 -0.614953 0.167626 -0.0185443 -0.616365 
0.167876 -0.0187886 -0.617293 0.168025 -0.0189469 -0.617853 0.168095 -0.0190601 -0.618145 
0.1681 -0.0191528 -0.618234 
LINES 2 100
OFFSETS vtktypeint64
0 100 
CONNECTIVITY vtktypeint64
0 1 2 3 4 5 6 7 8 
9 10 11 12 13 14 15 16 17 
18 19 20 21 22 23 24 25 26 
27 28 29 30 31 32 33 34 35 
36 37 38 39 40 41 42 43 44 
45 46 47 48 49 50 51 52 53 
54 55 56 57 58 59 60 61 62 
63 64 65 66 67 68 69 70 71 
72 73 74 75 76 77 78 79 80 
81 82 83 84 85 86 87 88 89 
90 91 92 93 94 95 96 97 98 
99 
POINT_DATA 100
FIELD FieldData 3
_theta 1 100 double
0 0.031733259127 0.063466518254 0.095199777382 0.12693303651 0.15866629564 0.19039955476 0.22213281389 0.25386607302 
0.28559933214 0.31733259127 0.3490658504 0.38079910953 0.41253236865 0.44426562778 0.47599888691 0.50773214603 0.53946540516 
0.57119866429 0.60293192342 0.63466518254 0.66639844167 0.6981317008 0.72986495992 0.76159821905 0.79333147818 0.82506473731 
0.85679799643 0.88853125556 0.92026451469 0.95199777382 0.98373103294 1.0154642921 1.0471975512 1.0789308103 1.1106640695 
1.1423973286 1.1741305877 1.2058638468 1.237597106 1.2693303651 1.3010636242 1.3327968833 1.3645301425 1.3962634016 
1.4279966607 1.4597299198 1.491463179 1.5231964381 1.5549296972 1.5866629564 1.6183962155 1.6501294746 1.6818627337 
1.7135959929 1.745329252 1.7770625111 1.8087957702 1.8405290294 1.8722622885 1.9039955476 1.9357288068 1.9674620659 
1.999195325 2.0309285841 2.0626618433 2.0943951024 2.1261283615 2.1578616206 2.1895948798 2.2213281389 2.253061398 
2.2847946572 2.3165279163 2.3482611754 2.3799944345 2.4117276937 2.4434609528 2.4751942119 2.506927471 2.5386607302 
2.5703939893 2.6021272484 2.6338605076 2.6655937667 2.6973270258 2.7290602849 2.7607935441 2.7925268032 2.8242600623 
2.8559933214 2.8877265806 2.9194598397 2.9511930988 2.982926358 3.0146596171 3.0463928762 3.0781261353 3.1098593945 
3.1415926536 
_radius 1 100 double
5.5740528189e-16 0.013182747682 0.026446767047 0.039849079862 0.053412453129 0.067115930711 0.080892297241 0.094632350405 0.10819484484 
0.12142035552 0.1341470763 0.1462266361 0.15753826388 0.16799995366 0.17757560032 0.18627738954 0.19416307583 0.20132822946 
0.2078941032 0.21399242497 0.21974904217 0.22526874627 0.23062360106 0.23584657611 0.24093129936 0.24583752747 0.25050084421 
0.25484445121 0.2587908392 0.262271516 0.26523359111 0.26764267633 0.26948216663 0.27074949518 0.2714503925 0.27159247795 
0.2711796258 0.27020845069 0.26866793335 0.26654265906 0.26381940719 0.26049602982 0.25659089965 0.25215094223 0.24725655839 
0.24202251332 0.23659472822 0.23114334441 0.22585228052 0.22090529609 0.21646913984 0.21267590523 0.20960830034 0.20729166435 
0.2056945355 0.20473643137 0.2042993321 0.20423954244 0.20439867999 0.20461467685 0.20473425758 0.2046271692 0.20420063472 
0.2034113413 0.2022721943 0.20085184585 0.19926629585 0.19766337228 0.19620230523 0.19503156936 0.19426839996 0.1939827927 
0.19418759087 0.19483497369 0.1958188499 0.19698247799 0.1981306711 0.19904568834 0.19950529214 0.19930084478 0.19825312061 
0.19622383075 0.19312156362 0.18890174248 0.18356111918 0.17712812755 0.16965101012 0.16118593022 0.15178722089 0.14150145586 
0.13036617978 0.11841305811 0.10567417564 0.092189543391 0.078013779736 0.063220417087 0.047903142903 0.032174184342 0.016160673546 
1.0714449131e-15 
_area 1 100 double
0 0.00050527105361 0.0020299547178 0.0045963762879 0.0082284666071 0.012935229194 0.018693716176 0.025435961276 0.033043263823 
0.041349171755 0.050150297419 0.059222565616 0.06833998763 0.077293353552 0.085906988214 0.094052720282 0.10166086006 0.10872699049 
0.11531071446 0.12152159877 0.12749242716 0.13334791173 0.13917964442 0.14503309505 0.15090685335 0.15676205284 0.16253847772 
0.16817154936 0.17360322693 0.17878223316 0.18365470368 0.18815211499 0.1921846415 0.19564353089 0.1984100142 0.20036571214 
0.2014009508 0.20142043959 0.20034824844 0.19813484258 0.19476774352 0.19028457299 0.18478409737 0.17842938786 0.17143909547 
0.16406818596 0.1565854145 0.14925641556 0.14233574901 0.13606202937 0.1306451162 0.12623420019 0.12285780485 0.12037495535 
0.11852804306 0.11705798586 0.11575665383 0.1144509817 0.11306085372 0.11147921522 0.10964014078 0.10754221822 0.1051652089 
0.10249068735 0.099531901693 0.096347545379 0.093052519442 0.089809074995 0.086804268104 0.084224514584 0.082236152951 0.080977961921 
0.080556435125 0.080977719997 0.082088553793 0.08366932193 0.085477517673 0.0872496973 0.088713105934 0.08960847979 0.089716399969 
0.088878372746 0.087006508749 0.084081199954 0.080140798776 0.075268326029 0.069578739417 0.063208870068 0.056311723088 0.049056003203 
0.041628986852 0.034237868758 0.027104887618 0.020455090228 0.014499513155 0.0094187275749 0.0053517703772 0.0023935511892 0.00060039795235 
4.6746849299e-17 
