# vtk DataFile Version 5.1
vtk output
ASCII
DATASET POLYDATA
POINTS 100 float
0.13258 0.0311255 0.594558 0.132631 0.0313087 0.59448 0.132836 0.031739 0.594092 
0.133145 0.0324066 0.593376 0.133476 0.0332943 0.592304 0.133729 0.0343783 0.590834 
0.133799 0.0356277 0.588917 0.133581 0.037005 0.586491 0.132987 0.0384667 0.583488 
0.13195 0.0399645 0.579837 0.130434 0.0414457 0.575472 0.128427 0.0428554 0.570332 
0.125947 0.0441381 0.564375 0.123026 0.0452396 0.557583 0.119712 0.0461097 0.549963 
0.116048 0.0467041 0.541556 0.112075 0.0469871 0.532432 0.107816 0.0469337 0.522691 
0.103274 0.0465316 0.512455 0.0984363 0.0457822 0.501857 0.0932716 0.0447018 0.491032 
0.0877391 0.0433217 0.480104 0.0817959 0.0416873 0.469173 0.0754061 0.0398567 0.458309 
0.0685491 0.0378986 0.44754 0.061226 0.0358897 0.436853 0.0534631 0.0339107 0.426194 
0.0453119 0.0320436 0.415477 0.0368454 0.0303671 0.40459 0.0281517 0.0289537 0.39341 
0.0193246 0.0278664 0.381813 0.0104549 0.0271559 0.369694 0.00162082 0.026859 0.356969 
-0.00711846 0.0269975 0.343588 -0.0157266 0.0275781 0.329533 -0.02419 0.0285929 0.314822 
-0.0325134 0.0300208 0.299497 -0.0407125 0.0318297 0.283616 -0.0488038 0.0339786 0.267241 
-0.0567936 0.0364202 0.25043 -0.0646676 0.0391033 0.233221 -0.0723824 0.0419753 0.215625 
-0.0798609 0.0449843 0.197629 -0.0869923 0.0480804 0.179188 -0.0936365 0.0512174 0.160241 
-0.0996334 0.054353 0.140714 -0.104816 0.0574495 0.120538 -0.109024 0.0604737 0.0996594 
-0.112121 0.0633968 0.0780536 -0.114007 0.0661934 0.0557371 -0.11463 0.0688417 0.0327717 
-0.113991 0.0713227 0.00926555 -0.112145 0.0736189 -0.0146318 -0.109197 0.0757148 -0.038739 
-0.105291 0.0775953 -0.0628574 -0.100598 0.0792453 -0.0867865 -0.0952991 0.0806494 -0.110341 
-0.0895685 0.0817906 -0.133366 -0.0835613 0.0826506 -0.155749 -0.0774002 0.0832085 -0.177424 
-0.0711691 0.0834415 -0.198375 -0.0649105 0.0833246 -0.218633 -0.0586287 0.0828311 -0.238262 
-0.0522965 0.0819345 -0.25735 -0.0458656 0.0806091 -0.275994 -0.0392785 0.0788327 -0.294281 
-0.0324804 0.0765889 -0.312282 -0.0254296 0.0738693 -0.330036 -0.0181053 0.0706765 -0.347551 
-0.0105113 0.0670259 -0.3648 -0.00267715 0.0629476 -0.381729 0.00534582 0.0584868 -0.398265 
0.0134901 0.053704 -0.414326 0.0216797 0.048673 -0.429835 0.0298382 0.043479 -0.444729 
0.0378961 0.0382145 -0.45897 0.045796 0.0329751 -0.472543 0.0534952 0.0278548 -0.485463 
0.0609657 0.0229403 -0.497769 0.0681918 0.0183073 -0.509512 0.0751651 0.0140156 -0.52075 
0.081879 0.0101069 -0.531535 0.0883229 0.00660318 -0.541903 0.0944785 0.00350687 -0.551867 
0.100316 0.000802325 -0.561414 0.105796 -0.00154106 -0.570504 0.110871 -0.00356483 -0.579073 
0.115488 -0.00531677 -0.587046 0.119602 -0.00684596 -0.594341 0.123173 -0.00819823 -0.600887 
0.126183 -0.00941224 -0.606629 0.128631 -0.0105167 -0.61154 0.130544 -0.0115291 -0.615622 
0.131969 -0.0124554 -0.61891 0.132973 -0.0132916 -0.621468 0.133636 -0.014026 -0.623378 
0.134042 -0.0146423 -0.624731 0.134268 -0.0151232 -0.625615 0.134378 -0.0154533 -0.626105 
0.134411 -0.0156221 -0.626248 
LINES 2 100
OFFSETS vtktypeint64
0 100 
CONNECTIVITY vtktypeint64
0 1 2 3 4 5 6 7 8 
9 10 11 12 13 14 15 16 17 
18 19 20 21 22 23 24 25 26 
27 28 29 30 31 32 33 34 35 
36 37 38 39 40 41 42 43 44 
45 46 47 48 49 50 51 52 53 
54 55 56 57 58 59 60 61 62 
63 64 65 66 67 68 69 70 71 
72 73 74 75 76 77 78 79 80 
81 82 83 84 85 86 87 88 89 
90 91 92 93 94 95 96 97 98 
99 
POINT_DATA 100
FIELD FieldData 3
_theta 1 100 double
0 0.031733259127 0.063466518254 0.095199777382 0.12693303651 0.15866629564 0.19039955476 0.22213281389 0.25386607302 
0.28559933214 0.31733259127 0.3490658504 0.38079910953 0.41253236865 0.44426562778 0.47599888691 0.50773214603 0.53946540516 
0.57119866429 0.60293192342 0.63466518254 0.66639844167 0.6981317008 0.72986495992 0.76159821905 0.79333147818 0.82506473731 
0.85679799643 0.88853125556 0.92026451469 0.95199777382 0.98373103294 1.0154642921 1.0471975512 1.0789308103 1.1106640695 
1.1423973286 1.1741305877 1.2058638468 1.237597106 1.2693303651 1.3010636242 1.3327968833 1.3645301425 1.3962634016 
1.4279966607 1.4597299198 1.491463179 1.5231964381 1.5549296972 1.5866629564 1.6183962155 1.6501294746 1.6818627337 
1.7135959929 1.745329252 1.7770625111 1.8087957702 1.8405290294 1.8722622885 1.9039955476 1.9357288068 1.9674620659 
1.999195325 2.0309285841 2.0626618433 2.0943951024 2.1261283615 2.1578616206 2.1895948798 2.2213281389 2.253061398 
2.2847946572 2.3165279163 2.3482611754 2.3799944345 2.4117276937 2.4434609528 2.4751942119 2.506927471 2.5386607302 
2.5703939893 2.6021272484 2.6338605076 2.6655937667 2.6973270258 2.7290602849 2.7607935441 2.7925268032 2.8242600623 
2.8559933214 2.8877265806 2.9194598397 2.9511930988 2.982926358 3.0146596171 3.0463928762 3.0781261353 3.1098593945 
3.1415926536 
_radius 1 100 double
8.1705291565e-16 0.0132689837 0.026475600217 0.039555102209 0.052444907197 0.065084997857 0.077417759074 0.089387560633 0.10094052588 
0.11202488588 0.12259213187 0.13259891931 0.14200943273 0.15079777145 0.15894990742 0.16646489408 0.17335520812 0.17964628571 
0.18537537922 0.1905897769 0.1953442538 0.19969749915 0.20370735764 0.20742510959 0.21088957923 0.2141222824 0.21712478424 
0.21987888084 0.22234942446 0.22448895759 0.22624304038 0.22755526923 0.22837137519 0.22864227971 0.22832640348 0.22739175302 
0.22581829866 0.22360091331 0.22075272288 0.21730825471 0.21332546029 0.2088857335 0.20409152595 0.19906192082 0.19392719272 
0.18882354886 0.18388878592 0.17925880342 0.17506432455 0.17142713821 0.16845554208 0.16623889647 0.16484095144 0.16429136845 
0.16457574544 0.16562684784 0.16732199676 0.16949085646 0.17193346817 0.17444346397 0.17682988908 0.17893334256 0.18063552068 
0.1818633759 0.18258951139 0.18282979204 0.18263832951 0.18209958814 0.18131756359 0.18040266706 0.17945775812 0.17856530684 
0.17777763086 0.17711151703 0.17654756737 0.17603367008 0.17549131959 0.17482319311 0.17392050437 0.17266922954 0.1709551649 
0.16866848396 0.16570852258 0.16198888097 0.15744213344 0.15202311625 0.14571007395 0.13850357419 0.13042367627 0.12150616217 
0.11179868781 0.10135754538 0.09024543265 0.078530289358 0.066284968668 0.0535873323 0.040520329796 0.02717173318 0.01363338544 
1.0896408366e-15 
_area 1 100 double
0 0.00046559730019 0.0018593921957 0.0041708708141 0.007377861273 0.011440978708 0.016298346147 0.021862270063 0.028019049527 
0.034632373403 0.041550122664 0.0486139668 0.055670825416 0.062584908998 0.069248644251 0.075590483335 0.081577621097 0.087212336426 
0.092522539405 0.097550041018 0.1023419378 0.1069484154 0.11142471769 0.11583020166 0.12021721846 0.12460904876 0.12897744788 
0.13323633598 0.13725848306 0.1409049965 0.14405135574 0.14660065251 0.14848368901 0.14965077603 0.15006187221 0.1496808667 
0.14847670695 0.1464303853 0.14354457879 0.13985251382 0.13542354054 0.13036400451 0.12481300139 0.11893372097 0.11290239686 
0.10689759791 0.10109122706 0.095638884078 0.090665861121 0.08625315484 0.082436672614 0.07922106108 0.076593271506 0.074528564181 
0.072996431683 0.071974808076 0.071471521939 0.071539979964 0.072253404194 0.073582500362 0.075283061148 0.077004609828 0.078434835203 
0.079338012836 0.079568296046 0.079083905503 0.077954034956 0.076370705096 0.074626026981 0.072954544161 0.071652065186 0.070861299488 
0.070527623718 0.07058758204 0.070956414284 0.07153747723 0.072223693696 0.07289433984 0.073412760215 0.073628669201 0.073386154555 
0.072537394046 0.070960792778 0.068579197214 0.065371815815 0.061375700122 0.056677580118 0.051400748405 0.045692436668 0.039714725406 
0.033638489755 0.027638132223 0.021885691274 0.016544512983 0.011763414141 0.0076721120402 0.0043782245209 0.0019657160457 0.00049439772363 
6.9388939039e-17 
