# vtk DataFile Version 5.1
vtk output
ASCII
DATASET POLYDATA
POINTS 100 float
0.0922682 0.0370833 0.58991 0.0922671 0.0371529 0.58977 0.0921964 0.0374869 0.589456 
0.0920456 0.0380534 0.588953 0.0917989 0.0388022 0.588233 0.0914377 0.0396707 0.587258 
0.0909425 0.0405904 0.585979 0.0902956 0.0414942 0.584335 0.0894825 0.0423225 0.582257 
0.0884939 0.0430287 0.579671 0.0873255 0.0435825 0.576503 0.0859776 0.0439711 0.572681 
0.0844537 0.0441976 0.568146 0.0827576 0.0442783 0.562856 0.0808913 0.0442377 0.556789 
0.0788522 0.0441035 0.549951 0.0766304 0.0439013 0.542371 0.0742079 0.0436501 0.534106 
0.071558 0.0433593 0.525234 0.0686462 0.0430282 0.515845 0.0654333 0.0426464 0.506038 
0.061878 0.0421969 0.495909 0.0579423 0.0416599 0.485542 0.053595 0.0410178 0.475001 
0.048817 0.04026 0.464326 0.0436045 0.0393869 0.453527 0.0379709 0.0384124 0.442585 
0.031948 0.0373648 0.431457 0.0255838 0.0362859 0.420082 0.0189399 0.0352276 0.408387 
0.0120867 0.0342478 0.396296 0.00509721 0.0334049 0.383739 -0.00195868 0.0327525 0.370663 
-0.0090203 0.0323345 0.357027 -0.0160408 0.0321813 0.342816 -0.0229902 0.0323077 0.32803 
-0.0298561 0.032713 0.312684 -0.0366418 0.0333828 0.296802 -0.0433624 0.0342918 0.28041 
-0.0500383 0.0354087 0.263526 -0.0566876 0.0367007 0.246158 -0.0633181 0.0381378 0.228301 
-0.0699192 0.0396967 0.209929 -0.0764552 0.0413622 0.19101 -0.0828618 0.0431283 0.171501 
-0.0890441 0.0449965 0.15136 -0.0948792 0.0469735 0.130558 -0.100221 0.0490671 0.109085 
-0.104911 0.0512821 0.0869564 -0.108787 0.0536169 0.0642219 -0.111694 0.0560601 0.0409645 
-0.113502 0.0585892 0.0172981 -0.114113 0.0611701 -0.00663784 -0.113473 0.0637593 -0.030689 
-0.111574 0.0663061 -0.0546971 -0.108461 0.0687573 -0.0785127 -0.104226 0.071061 -0.102007 
-0.0990018 0.0731708 -0.125079 -0.0929537 0.0750494 -0.147667 -0.0862649 0.0766701 -0.169741 
-0.0791232 0.0780175 -0.191309 -0.0717065 0.0790863 -0.212406 -0.0641702 0.0798787 -0.233081 
-0.0566369 0.0804008 -0.253394 -0.0491902 0.0806589 -0.273394 -0.0418727 0.080656 -0.293118 
-0.034688 0.080389 -0.312578 -0.0276075 0.0798478 -0.331759 -0.0205795 0.0790152 -0.35062 
-0.0135419 0.0778695 -0.369098 -0.00643416 0.0763879 -0.387118 0.000789946 0.0745509 -0.4046 
0.00815244 0.0723476 -0.421474 0.0156438 0.0697799 -0.437685 0.0232198 0.0668661 -0.453203 
0.0308019 0.0636424 -0.468026 0.0382828 0.060163 -0.48218 0.0455339 0.0564971 -0.49571 
0.052417 0.0527254 -0.508677 0.0587959 0.0489333 -0.521143 0.0645485 0.045205 -0.53316 
0.0695782 0.0416167 -0.54476 0.0738215 0.0382305 -0.555948 0.0772534 0.0350907 -0.566691 
0.0798885 0.032221 -0.576929 0.0817786 0.0296256 -0.586572 0.0830071 0.0272905 -0.595511 
0.0836798 0.0251889 -0.603635 0.0839157 0.0232864 -0.610842 0.0838362 0.0215473 -0.617056 
0.0835553 0.0199408 -0.622237 0.083172 0.0184457 -0.626388 0.0827649 0.0170538 -0.629562 
0.0823892 0.015771 -0.631857 0.0820779 0.0146161 -0.633405 0.0818442 0.0136177 -0.634361 
0.0816866 0.0128102 -0.634889 0.081595 0.0122278 -0.635137 0.0815567 0.0118998 -0.635228 
0.0815613 0.0118458 -0.635241 
LINES 2 100
OFFSETS vtktypeint64
0 100 
CONNECTIVITY vtktypeint64
0 1 2 3 4 5 6 7 8 
9 10 11 12 13 14 15 16 17 
18 19 20 21 22 23 24 25 26 
27 28 29 30 31 32 33 34 35 
36 37 38 39 40 41 42 43 44 
45 46 47 48 49 50 51 52 53 
54 55 56 57 58 59 60 61 62 
63 64 65 66 67 68 69 70 71 
72 73 74 75 76 77 78 79 80 
81 82 83 84 85 86 87 88 89 
90 91 92 93 94 95 96 97 98 
99 
POINT_DATA 100
FIELD FieldData 3
_theta 1 100 double
0 0.031733259127 0.063466518254 0.095199777382 0.12693303651 0.15866629564 0.19039955476 0.22213281389 0.25386607302 
0.28559933214 0.31733259127 0.3490658504 0.38079910953 0.41253236865 0.44426562778 0.47599888691 0.50773214603 0.53946540516 
0.57119866429 0.60293192342 0.63466518254 0.66639844167 0.6981317008 0.72986495992 0.76159821905 0.79333147818 0.82506473731 
0.85679799643 0.88853125556 0.92026451469 0.95199777382 0.98373103294 1.0154642921 1.0471975512 1.0789308103 1.1106640695 
1.1423973286 1.1741305877 1.2058638468 1.237597106 1.2693303651 1.3010636242 1.3327968833 1.3645301425 1.3962634016 
1.4279966607 1.4597299198 1.491463179 1.5231964381 1.5549296972 1.5866629564 1.6183962155 1.6501294746 1.6818627337 
1.7135959929 1.745329252 1.7770625111 1.8087957702 1.8405290294 1.8722622885 1.9039955476 1.9357288068 1.9674620659 
1.999195325 2.0309285841 2.0626618433 2.0943951024 2.1261283615 2.1578616206 2.1895948798 2.2213281389 2.253061398 
2.2847946572 2.3165279163 2.3482611754 2.3799944345 2.4117276937 2.4434609528 2.4751942119 2.506927471 2.5386607302 
2.5703939893 2.6021272484 2.6338605076 2.6655937667 2.6973270258 2.7290602849 2.7607935441 2.7925268032 2.8242600623 
2.8559933214 2.8877265806 2.9194598397 2.9511930988 2.982926358 3.0146596171 3.0463928762 3.0781261353 3.1098593945 
3.1415926536 
_radius 1 100 double
1.0008377311e-15 0.014869325189 0.029665363711 0.044318069303 0.058756944182 0.072911279666 0.086711075335 0.10008866303 0.11298091386 
0.12533177544 0.13709480093 0.14823530895 0.15873185645 0.1685767976 0.1777758096 0.18634636507 0.19431521577 0.20171504633 
0.20858057776 0.21494453745 0.22083401577 0.22626774531 0.23125473477 0.23579447374 0.23987863094 0.24349385337 0.24662501568 
0.24925815984 0.25138247738 0.25299101311 0.25408020207 0.25464871532 0.25469624694 0.25422279713 0.25322877857 0.25171601259 
0.24968947175 0.24715949665 0.24414417042 0.24067156103 0.23678161892 0.23252760466 0.22797697103 0.22321160235 0.21832722255 
0.21343167165 0.20864169965 0.20407802132 0.19985865849 0.19609103661 0.19286379299 0.19023962464 0.18825053141 0.18689629735 
0.18614607212 0.1859419763 0.18620342811 0.18683158183 0.18771433007 0.18873284845 0.18977017259 0.19072114064 0.19150202375 
0.19205788296 0.1923661472 0.19243575134 0.19230204801 0.19201841705 0.19164597417 0.19124298982 0.19085554036 0.19051052939 
0.19021161873 0.18993796552 0.18964519335 0.18926788518 0.1887230475 0.18791426968 0.18673648879 0.18508129467 0.18284261081 
0.17992242554 0.17623608873 0.17171661554 0.16631752672 0.16001401144 0.15280253217 0.14469926368 0.13573786388 0.12596699473 
0.11544781459 0.10425146014 0.092456422275 0.080145737704 0.06740404858 0.054314759249 0.040957660752 0.027407429246 0.013733300972 
9.7677444276e-16 
_area 1 100 double
0 0.00053080755432 0.0021092846424 0.0046945440979 0.008221559932 0.012605574746 0.017747477366 0.02353915653 0.029867865484 
0.03661924862 0.043679657074 0.050939099822 0.058296009386 0.065663774866 0.072977219877 0.080195909381 0.087301496879 0.094288834933 
0.10115423308 0.10788630861 0.11446328452 0.12085656601 0.12703708542 0.13297999116 0.13866462543 0.14406965598 0.14916639493 
0.15391443603 0.15826164498 0.16214753014 0.16550777291 0.16827804431 0.17039601057 0.17180154506 0.17243665795 0.17224746567 
0.17118961937 0.16923674686 0.16639016748 0.16268766192 0.15820882851 0.15307461446 0.14743976039 0.14147945866 0.13537424992 
0.12929765666 0.12340833185 0.117844935 0.11272070197 0.10811618547 0.10407106484 0.1005783066 0.09758740517 0.095022350734 
0.092795214985 0.090839535352 0.08915603391 0.087797254665 0.086817907733 0.08621950383 0.08592401563 0.085791345089 0.085659484732 
0.085380770655 0.084845362474 0.083995141268 0.082832565876 0.081427378965 0.079952015363 0.078665981901 0.077639658313 0.077024382377 
0.077008436462 0.077558905724 0.078340458696 0.079178241219 0.079914016468 0.080408584414 0.080541764546 0.080210319292 0.079323634738 
0.077801422767 0.075577553404 0.072609063188 0.068885319361 0.064433226166 0.059317789179 0.05363968141 0.047531564594 0.041153602819 
0.034687340534 0.028326939668 0.022267686685 0.016693011554 0.011762288074 0.0076019691851 0.0043020322579 0.0019184092231 0.00048035416775 
3.7358998683e-17 
