# vtk DataFile Version 5.1
vtk output
ASCII
DATASET POLYDATA
POINTS 100 float
0.191194 0.0502272 0.723409 0.191063 0.0503962 0.723386 0.190728 0.0507426 0.723159 
0.190176 0.0512625 0.722685 0.189385 0.0519486 0.721902 0.188329 0.0527895 0.720725 
0.186982 0.0537681 0.719059 0.185319 0.0548609 0.716798 0.183318 0.0560367 0.713839 
0.180964 0.0572569 0.710085 0.17825 0.0584757 0.705454 0.175172 0.0596419 0.699885 
0.17173 0.0607004 0.693347 0.167927 0.0615956 0.685837 0.163761 0.0622739 0.677388 
0.159227 0.0626878 0.668061 0.154312 0.0627979 0.657945 0.149 0.0625765 0.647149 
0.143267 0.0620093 0.635794 0.137089 0.061096 0.623999 0.130445 0.0598512 0.611876 
0.123319 0.0583031 0.599516 0.115712 0.0564924 0.586984 0.107639 0.0544694 0.574312 
0.0991354 0.0522922 0.561499 0.0902581 0.0500232 0.548512 0.0810814 0.0477267 0.535294 
0.0716939 0.0454658 0.521769 0.0621924 0.0433009 0.507853 0.0526731 0.0412869 0.493466 
0.0432244 0.0394725 0.478541 0.0339184 0.0378984 0.46303 0.0248053 0.036597 0.446911 
0.0159094 0.0355917 0.430187 0.00722937 0.0348967 0.412884 -0.00125967 0.0345168 0.395045 
-0.00959934 0.0344477 0.376719 -0.0178395 0.0346768 0.357954 -0.0260281 0.0351835 0.338783 
-0.0341999 0.0359409 0.319222 -0.0423673 0.0369173 0.29926 -0.0505128 0.0380784 0.27886 
-0.0585839 0.0393901 0.257965 -0.0664938 0.0408203 0.236499 -0.0741246 0.0423425 0.214386 
-0.0813347 0.0439376 0.191557 -0.0879705 0.0455956 0.167965 -0.0938781 0.0473167 0.143598 
-0.0989175 0.0491111 0.118484 -0.102975 0.0509974 0.0926982 -0.105971 0.0530006 0.0663601 
-0.107873 0.0551478 0.0396262 -0.10869 0.0574644 0.0126793 -0.108477 0.0599693 -0.0142869 
-0.107326 0.06267 -0.0410843 -0.105357 0.0655586 -0.0675471 -0.102707 0.0686088 -0.0935454 
-0.0995153 0.0717745 -0.118996 -0.0959145 0.0749896 -0.143865 -0.0920164 0.0781702 -0.168168 
-0.087906 0.0812184 -0.191963 -0.0836368 0.0840271 -0.215335 -0.0792304 0.0864866 -0.238382 
-0.0746799 0.0884911 -0.261199 -0.0699562 0.0899452 -0.283861 -0.065016 0.0907698 -0.306406 
-0.0598119 0.090907 -0.328834 -0.0543014 0.0903224 -0.351098 -0.0484551 0.0890071 -0.37311 
-0.0422632 0.0869763 -0.394753 -0.0357389 0.0842673 -0.415888 -0.0289193 0.0809352 -0.436377 
-0.0218642 0.0770491 -0.456096 -0.014652 0.0726863 -0.474949 -0.00737452 0.067928 -0.492881 
-0.000131094 0.0628547 -0.509879 0.00697728 0.0575434 -0.525975 0.0138533 0.0520651 -0.541235 
0.0204075 0.0464843 -0.55575 0.0265612 0.0408591 -0.569616 0.0322478 0.0352421 -0.582924 
0.0374139 0.0296819 -0.595735 0.042018 0.0242245 -0.608076 0.0460312 0.0189145 -0.61993 
0.0494355 0.0137961 -0.631236 0.0522244 0.0089122 -0.641895 0.0544031 0.00430418 -0.65178 
0.0559887 1.00962e-05 -0.660757 0.0570122 -0.00393716 -0.668702 0.0575185 -0.00751183 -0.675517 
0.0575671 -0.010697 -0.681151 0.057232 -0.0134858 -0.685605 0.0565994 -0.0158813 -0.688941 
0.0557652 -0.0178961 -0.691275 0.0548301 -0.0195507 -0.69277 0.0538946 -0.0208703 -0.693615 
0.0530528 -0.0218821 -0.694011 0.0523857 -0.0226117 -0.694141 0.051956 -0.02308 -0.694154 
0.0518034 -0.0233003 -0.694147 
LINES 2 100
OFFSETS vtktypeint64
0 100 
CONNECTIVITY vtktypeint64
0 1 2 3 4 5 6 7 8 
9 10 11 12 13 14 15 16 17 
18 19 20 21 22 23 24 25 26 
27 28 29 30 31 32 33 34 35 
36 37 38 39 40 41 42 43 44 
45 46 47 48 49 50 51 52 53 
54 55 56 57 58 59 60 61 62 
63 64 65 66 67 68 69 70 71 
72 73 74 75 76 77 78 79 80 
81 82 83 84 85 86 87 88 89 
90 91 92 93 94 95 96 97 98 
99 
POINT_DATA 100
FIELD FieldData 3
_theta 1 100 double
0 0.031733259127 0.063466518254 0.095199777382 0.12693303651 0.15866629564 0.19039955476 0.22213281389 0.25386607302 
0.28559933214 0.31733259127 0.3490658504 0.38079910953 0.41253236865 0.44426562778 0.47599888691 0.50773214603 0.53946540516 
0.57119866429 0.60293192342 0.63466518254 0.66639844167 0.6981317008 0.72986495992 0.76159821905 0.79333147818 0.82506473731 
0.85679799643 0.88853125556 0.92026451469 0.95199777382 0.98373103294 1.0154642921 1.0471975512 1.0789308103 1.1106640695 
1.1423973286 1.1741305877 1.2058638468 1.237597106 1.2693303651 1.3010636242 1.3327968833 1.3645301425 1.3962634016 
1.4279966607 1.4597299198 1.491463179 1.5231964381 1.5549296972 1.5866629564 1.6183962155 1.6501294746 1.6818627337 
1.7135959929 1.745329252 1.7770625111 1.8087957702 1.8405290294 1.8722622885 1.9039955476 1.9357288068 1.9674620659 
1.999195325 2.0309285841 2.0626618433 2.0943951024 2.1261283615 2.1578616206 2.1895948798 2.2213281389 2.253061398 
2.2847946572 2.3165279163 2.3482611754 2.3799944345 2.4117276937 2.4434609528 2.4751942119 2.506927471 2.5386607302 
2.5703939893 2.6021272484 2.6338605076 2.6655937667 2.6973270258 2.7290602849 2.7607935441 2.7925268032 2.8242600623 
2.8559933214 2.8877265806 2.9194598397 2.9511930988 2.982926358 3.0146596171 3.0463928762 3.0781261353 3.1098593945 
3.1415926536 
_radius 1 100 double
1.4502122256e-15 0.01524998913 0.030395268624 0.045335403913 0.059977022733 0.074237083052 0.088045458961 0.10134629852 0.11409767866 
0.12626943188 0.13783960856 0.14879065388 0.15910667534 0.16877287085 0.17777730902 0.18611420341 0.1937871143 0.2008104504 
0.20720822604 0.21301006116 0.21824557512 0.22293917663 0.22710729687 0.23075917512 0.23390083714 0.23654070946 0.23869488494 
0.24039034387 0.24166512792 0.24256529749 0.2431393037 0.24343100986 0.24347283608 0.24328032157 0.242848971 0.24215385448 
0.24115221303 0.23978918051 0.23800645356 0.23575320971 0.23299789462 0.22973894707 0.22601241254 0.22189487432 0.21750108132 
0.2129766928 0.20848731051 0.20420532961 0.20029627152 0.19690627933 0.19415223559 0.19211528696 0.19083747971 0.19032025291 
0.19052344196 0.19136451085 0.19271942794 0.19442777063 0.19630418917 0.19815614745 0.19980512175 0.20110685876 0.20196661567 
0.20234696827 0.20226766515 0.20179834692 0.20104561306 0.20013620244 0.19919827492 0.19834304891 0.19764924704 0.19715267833 
0.19684258948 0.1966650938 0.19653234708 0.19633481781 0.19595359112 0.19527031604 0.19417377897 0.19256347624 0.19035134953 
0.18746281847 0.18383763849 0.17943043021 0.17421038531 0.1681597585 0.16127113696 0.15354388383 0.14498043394 0.13558326544 
0.12535341652 0.11429132856 0.10240047564 0.089693632208 0.07620084028 0.061977429327 0.047110111037 0.031719387828 0.015957233331 
1.0899494292e-15 
_area 1 100 double
0 0.00061034911672 0.0024206411353 0.0053701998872 0.0093633987972 0.014278346909 0.019979071583 0.026329639752 0.03320687321 
0.040506981499 0.048142102414 0.056026811694 0.064061048245 0.072119813617 0.080057398589 0.087726709159 0.095007546349 0.10183382688 
0.10820868689 0.11419881588 0.11990656773 0.12542891039 0.13081981422 0.1360717523 0.14112339603 0.14588780582 0.15028501683 
0.15426328395 0.15780241412 0.1609024392 0.16356721034 0.1657929779 0.16756630586 0.16886846421 0.16968014637 0.16998164434 
0.16974725 0.16893696257 0.16749208275 0.16534123498 0.16241808643 0.1586849835 0.15415411942 0.14890098394 0.14306875105 
0.13686264438 0.13053215741 0.12434061403 0.11852631197 0.11326565063 0.10865369869 0.10471266087 0.10142068684 0.098745078593 
0.096667283355 0.095189498602 0.094320888257 0.094039326141 0.094240533827 0.094716097147 0.095190034237 0.09538820701 0.095102520078 
0.094235187862 0.092803107453 0.090913702899 0.088742030799 0.086477282578 0.084311375822 0.082407321545 0.080907694642 0.079922013833 
0.079516674051 0.079739376166 0.080612016475 0.081919744991 0.083418655057 0.084967130473 0.086400017805 0.08752108953 0.088111771683 
0.087951391812 0.086845044945 0.084652778896 0.081311863562 0.076845556368 0.071356932235 0.065011841043 0.05801772391 0.050604120437 
0.043007755269 0.035462250843 0.028191139495 0.021403016283 0.015288420885 0.01001819992 0.0057423520003 0.0025875948801 0.00065238119122 
5.879402219e-17 
