# vtk DataFile Version 5.1
vtk output
ASCII
DATASET POLYDATA
POINTS 100 float
0.0854152 0.00947427 -0.641769 0.0852527 0.00956764 -0.641688 0.084804 0.0100043 -0.641427 
0.0840949 0.0107508 -0.640926 0.0831641 0.0117565 -0.640095 0.082058 0.0129612 -0.638817 
0.0808244 0.0143029 -0.636969 0.0795056 0.0157265 -0.634429 0.0781314 0.0171914 -0.631089 
0.0767136 0.0186768 -0.626867 0.0752423 0.0201837 -0.621711 0.073684 0.0217351 -0.615603 
0.0719829 0.0233712 -0.608557 0.0700641 0.025143 -0.600617 0.0678399 0.027104 -0.59184 
0.0652174 0.0293009 -0.582296 0.0621075 0.0317651 -0.572053 0.0584341 0.0345058 -0.561164 
0.0541426 0.0375057 -0.549667 0.0492072 0.0407205 -0.537576 0.0436346 0.044081 -0.52488 
0.0374664 0.0474991 -0.511552 0.0307771 0.0508759 -0.497548 0.0236698 0.0541112 -0.482821 
0.0162681 0.0571133 -0.467328 0.00870723 0.0598079 -0.451039 0.00112313 0.0621445 -0.433947 
-0.00635805 0.0640998 -0.416072 -0.0136295 0.0656785 -0.39746 -0.0206109 0.06691 -0.378185 
-0.0272532 0.0678419 -0.358343 -0.0335395 0.0685326 -0.33804 -0.0394819 0.0690422 -0.317389 
-0.0451162 0.0694231 -0.296494 -0.0504929 0.0697133 -0.275442 -0.0556666 0.069931 -0.2543 
-0.0606851 0.0700725 -0.233105 -0.0655787 0.0701131 -0.211865 -0.0703523 0.0700115 -0.190563 
-0.0749789 0.0697159 -0.169164 -0.0793983 0.0691721 -0.147619 -0.0835187 0.0683318 -0.125879 
-0.0872227 0.0671602 -0.103903 -0.0903762 0.0656415 -0.0816687 -0.09284 0.0637834 -0.0591767 
-0.0944824 0.0616165 -0.0364578 -0.0951917 0.0591929 -0.0135712 -0.0948873 0.0565811 0.0093972 
-0.0935278 0.0538592 0.0323409 -0.0911157 0.0511075 0.0551412 -0.0876986 0.0484012 0.077676 
-0.0833651 0.0458035 0.09983 -0.0782379 0.0433612 0.121503 -0.072464 0.0411022 0.142617 
-0.0662026 0.0390363 0.16312 -0.0596125 0.0371571 0.182989 -0.0528409 0.0354472 0.202226 
-0.0460135 0.0338837 0.220855 -0.0392271 0.0324443 0.238919 -0.0325468 0.031113 0.256467 
-0.0260055 0.0298843 0.273554 -0.0196072 0.0287657 0.290227 -0.013333 0.027778 0.306526 
-0.00714823 0.026953 0.322478 -0.00101135 0.0263302 0.338095 0.00511867 0.0259511 0.35338 
0.0112755 0.0258542 0.368321 0.0174808 0.0260687 0.382904 0.0237418 0.0266103 0.397112 
0.0300516 0.0274778 0.410931 0.0363908 0.0286522 0.424355 0.0427312 0.0300967 0.437386 
0.0490403 0.0317597 0.450036 0.055285 0.0335788 0.462328 0.0614353 0.0354853 0.474291 
0.0674664 0.03741 0.485958 0.0733583 0.0392878 0.497361 0.0790955 0.0410617 0.508528 
0.0846631 0.0426863 0.51948 0.0900443 0.0441285 0.530224 0.0952158 0.0453684 0.540753 
0.100146 0.0463975 0.551047 0.104791 0.0472172 0.561072 0.109099 0.0478362 0.570783 
0.113008 0.0482682 0.580126 0.116455 0.0485292 0.589042 0.119378 0.0486368 0.597475 
0.121728 0.0486088 0.605368 0.123474 0.048463 0.612675 0.124606 0.0482179 0.619358 
0.125149 0.0478931 0.625389 0.125157 0.0475101 0.630754 0.124713 0.0470927 0.635448 
0.12393 0.0466664 0.639478 0.122936 0.0462586 0.642856 0.121869 0.0458964 0.6456 
0.120866 0.0456056 0.647728 0.120047 0.0454082 0.649259 0.119506 0.0453207 0.650206 
0.119304 0.0453529 0.650578 
LINES 2 100
OFFSETS vtktypeint64
0 100 
CONNECTIVITY vtktypeint64
0 1 2 3 4 5 6 7 8 
9 10 11 12 13 14 15 16 17 
18 19 20 21 22 23 24 25 26 
27 28 29 30 31 32 33 34 35 
36 37 38 39 40 41 42 43 44 
45 46 47 48 49 50 51 52 53 
54 55 56 57 58 59 60 61 62 
63 64 65 66 67 68 69 70 71 
72 73 74 75 76 77 78 79 80 
81 82 83 84 85 86 87 88 89 
90 91 92 93 94 95 96 97 98 
99 
POINT_DATA 100
FIELD FieldData 3
_theta 1 100 double
0 0.031733259127 0.063466518254 0.095199777382 0.12693303651 0.15866629564 0.19039955476 0.22213281389 0.25386607302 
0.28559933214 0.31733259127 0.3490658504 0.38079910953 0.41253236865 0.44426562778 0.47599888691 0.50773214603 0.53946540516 
0.57119866429 0.60293192342 0.63466518254 0.66639844167 0.6981317008 0.72986495992 0.76159821905 0.79333147818 0.82506473731 
0.85679799643 0.88853125556 0.92026451469 0.95199777382 0.98373103294 1.0154642921 1.0471975512 1.0789308103 1.1106640695 
1.1423973286 1.1741305877 1.2058638468 1.237597106 1.2693303651 1.3010636242 1.3327968833 1.3645301425 1.3962634016 
1.4279966607 1.4597299198 1.491463179 1.5231964381 1.5549296972 1.5866629564 1.6183962155 1.6501294746 1.6818627337 
1.7135959929 1.745329252 1.7770625111 1.8087957702 1.8405290294 1.8722622885 1.9039955476 1.9357288068 1.9674620659 
1.999195325 2.0309285841 2.0626618433 2.0943951024 2.1261283615 2.1578616206 2.1895948798 2.2213281389 2.253061398 
2.2847946572 2.3165279163 2.3482611754 2.3799944345 2.4117276937 2.4434609528 2.4751942119 2.506927471 2.5386607302 
2.5703939893 2.6021272484 2.6338605076 2.6655937667 2.6973270258 2.7290602849 2.7607935441 2.7925268032 2.8242600623 
2.8559933214 2.8877265806 2.9194598397 2.9511930988 2.982926358 3.0146596171 3.0463928762 3.0781261353 3.1098593945 
3.1415926536 
_radius 1 100 double
1.1248340829e-15 0.014385249051 0.028720911102 0.04295242005 0.057019108329 0.070853691387 0.084383723576 0.097534172401 0.11022980977 
0.12239629159 0.13395954321 0.14484406596 0.15497158397 0.16426168443 0.17263561893 0.18002337618 0.18637290134 0.1916594015 
0.19589240241 0.19911872673 0.2014206821 0.20291008289 0.20371977063 0.20399460932 0.20388339171 0.2035320215 0.20307734274 
0.20264061649 0.20232009711 0.20218323756 0.20226024089 0.20254131903 0.20297961351 0.20350026161 0.20401417308 0.2044336722 
0.20468693701 0.20472908549 0.20454910293 0.20417273065 0.20366158214 0.20310852025 0.20262950107 0.20235295293 0.20240852736 
0.20291659028 0.20397824692 0.20566472684 0.20800595938 0.21098048172 0.21451043311 0.21846483511 0.22267185028 0.22693779663 
0.23106893195 0.23489192387 0.2382699701 0.24111290503 0.2433807963 0.24508138356 0.24626235888 0.24700004197 0.24738637636 
0.24751609573 0.24747527062 0.24733164896 0.24712687967 0.24687098273 0.24653982266 0.24607635482 0.24539592978 0.24439517485 
0.24296323603 0.24099369838 0.23839541604 0.23510076483 0.23107039079 0.22629422481 0.22078919462 0.21459452175 0.20776563458 
0.20036756142 0.19246833817 0.18413270479 0.17541635025 0.16636114996 0.15699196089 0.14731537992 0.13732052889 0.12698170212 
0.11626271142 0.1051227868 0.093523727062 0.081437690508 0.068854771567 0.055789420951 0.042284778202 0.028414045933 0.014278225828 
1.3154760007e-15 
_area 1 100 double
0 0.00051259292536 0.0020561351438 0.0046442323722 0.0082862256321 0.012967901541 0.018633194646 0.025176243868 0.032445890518 
0.040257613067 0.048406119335 0.056673971129 0.064835297458 0.072657232321 0.079903812995 0.086346633309 0.091783567231 0.096062743572 
0.099105689955 0.10092270157 0.10161534167 0.10136461845 0.10040731568 0.099006160162 0.097422421921 0.095929153018 0.094990889623 
0.094591118983 0.09471040698 0.095344768891 0.096459631101 0.097982324576 0.099804402882 0.10178964199 0.10378743801 0.10564990914 
0.10725222315 0.10851924706 0.10946623466 0.11021398183 0.11086565092 0.11151965796 0.11230443129 0.11334292035 0.11473242799 
0.11653537164 0.11879990727 0.12156040496 0.12483948192 0.12867832042 0.13311026612 0.13812041826 0.14361942097 0.14943884301 
0.15534689943 0.16107667935 0.16636317972 0.17099465384 0.17487570301 0.17800228548 0.18033384495 0.18171924557 0.18219269443 
0.18191885327 0.18107822457 0.17981626272 0.17824983074 0.17646608866 0.1745158774 0.17240224586 0.17006885102 0.16740961279 
0.16430001651 0.16062440655 0.1562890736 0.15122889272 0.14541446774 0.13886028479 0.13163024091 0.12383649893 0.11562984605 
0.10718253751 0.098666716231 0.090232793127 0.081992563775 0.074010844412 0.06630716981 0.058866736139 0.051658027553 0.04465322895 
0.037846737198 0.031267634706 0.024984074069 0.019100161288 0.013747688748 0.0090751390037 0.0052351709323 0.0023706627589 0.00059953065287 
5.2240135702e-17 
