# vtk DataFile Version 5.1
vtk output
ASCII
DATASET POLYDATA
POINTS 100 float
0.100577 0.046735 0.623976 0.100664 0.0468417 0.623878 0.100972 0.0469994 0.623429 
0.101464 0.0471951 0.622613 0.102078 0.0474103 0.621406 0.102738 0.047624 0.619772 
0.103356 0.0478161 0.617672 0.103842 0.047971 0.615059 0.104107 0.0480796 0.611885 
0.104077 0.0481412 0.608103 0.103689 0.0481634 0.603668 0.1029 0.0481601 0.598545 
0.101688 0.0481488 0.59271 0.100046 0.0481468 0.586154 0.0979855 0.048167 0.578883 
0.0955304 0.0482142 0.570924 0.0927111 0.048282 0.562319 0.0895608 0.0483516 0.553125 
0.086111 0.0483926 0.543409 0.0823881 0.0483654 0.533245 0.0784115 0.0482247 0.522705 
0.0741929 0.047926 0.511856 0.069737 0.0474304 0.500753 0.0650443 0.0467109 0.489435 
0.0601132 0.0457567 0.477923 0.0549437 0.0445765 0.466219 0.0495406 0.0431989 0.454309 
0.0439154 0.0416713 0.442165 0.0380876 0.0400557 0.429752 0.0320847 0.0384242 0.417032 
0.0259406 0.0368515 0.40397 0.0196932 0.0354092 0.390537 0.0133804 0.0341593 0.376718 
0.00703725 0.0331497 0.362507 0.000691587 0.0324117 0.34791 -0.00563784 0.03196 0.332941 
-0.0119429 0.0317945 0.317616 -0.0182254 0.0319043 0.301949 -0.024495 0.032273 0.285944 
-0.0307653 0.0328846 0.269593 -0.0370483 0.0337283 0.252873 -0.0433486 0.0348026 0.235741 
-0.0496574 0.0361171 0.218143 -0.0559472 0.0376917 0.200015 -0.0621677 0.0395539 0.181289 
-0.0682448 0.0417334 0.161905 -0.0740806 0.0442551 0.141819 -0.0795577 0.0471324 0.121007 
-0.0845447 0.05036 0.0994808 -0.0889045 0.0539088 0.0772813 -0.0925036 0.0577225 0.0544858 
-0.095222 0.0617181 0.0312019 -0.0969623 0.0657885 0.00756143 -0.0976575 0.069809 -0.016289 
-0.0972761 0.0736459 -0.0401989 -0.0958245 0.0771661 -0.0640253 -0.0933458 0.0802482 -0.0876428 
-0.0899156 0.0827915 -0.110952 -0.0856347 0.0847242 -0.133884 -0.0806199 0.0860078 -0.156403 
-0.0749937 0.0866387 -0.1785 -0.0688739 0.086646 -0.200192 -0.0623641 0.0860856 -0.221508 
-0.0555466 0.0850327 -0.242481 -0.0484782 0.0835711 -0.263141 -0.0411891 0.0817839 -0.2835 
-0.0336856 0.0797432 -0.303549 -0.0259553 0.0775032 -0.323255 -0.0179753 0.0750951 -0.34256 
-0.00972167 0.0725257 -0.361389 -0.001179 0.069779 -0.379651 0.00765037 0.0668217 -0.397253 
0.0167396 0.06361 -0.414111 0.0260331 0.060098 -0.430156 0.0354458 0.0562472 -0.445341 
0.0448658 0.0520343 -0.459652 0.0541607 0.0474571 -0.473099 0.063186 0.0425388 -0.485725 
0.0717959 0.0373282 -0.497588 0.0798544 0.031898 -0.508763 0.087246 0.0263397 -0.519324 
0.0938842 0.0207574 -0.529339 0.0997181 0.0152592 -0.538861 0.104735 0.00995002 -0.547919 
0.10896 0.00492376 -0.556517 0.112452 0.000257614 -0.564635 0.115295 -0.00399185 -0.572234 
0.117592 -0.0077904 -0.579261 0.11945 -0.0111257 -0.585659 0.120976 -0.0140051 -0.591379 
0.122263 -0.0164515 -0.596383 0.123384 -0.0184995 -0.600658 0.124392 -0.0201899 -0.604212 
0.125311 -0.0215659 -0.607082 0.126147 -0.0226691 -0.609324 0.126886 -0.0235368 -0.611008 
0.127504 -0.0242 -0.612214 0.12797 -0.0246829 -0.613013 0.128259 -0.0250024 -0.613468 
0.128351 -0.0251678 -0.613618 
LINES 2 100
OFFSETS vtktypeint64
0 100 
CONNECTIVITY vtktypeint64
0 1 2 3 4 5 6 7 8 
9 10 11 12 13 14 15 16 17 
18 19 20 21 22 23 24 25 26 
27 28 29 30 31 32 33 34 35 
36 37 38 39 40 41 42 43 44 
45 46 47 48 49 50 51 52 53 
54 55 56 57 58 59 60 61 62 
63 64 65 66 67 68 69 70 71 
72 73 74 75 76 77 78 79 80 
81 82 83 84 85 86 87 88 89 
90 91 92 93 94 95 96 97 98 
99 
POINT_DATA 100
FIELD FieldData 3
_theta 1 100 double
0 0.031733259127 0.063466518254 0.095199777382 0.12693303651 0.15866629564 0.19039955476 0.22213281389 0.25386607302 
0.28559933214 0.31733259127 0.3490658504 0.38079910953 0.41253236865 0.44426562778 0.47599888691 0.50773214603 0.53946540516 
0.57119866429 0.60293192342 0.63466518254 0.66639844167 0.6981317008 0.72986495992 0.76159821905 0.79333147818 0.82506473731 
0.85679799643 0.88853125556 0.92026451469 0.95199777382 0.98373103294 1.0154642921 1.0471975512 1.0789308103 1.1106640695 
1.1423973286 1.1741305877 1.2058638468 1.237597106 1.2693303651 1.3010636242 1.3327968833 1.3645301425 1.3962634016 
1.4279966607 1.4597299198 1.491463179 1.5231964381 1.5549296972 1.5866629564 1.6183962155 1.6501294746 1.6818627337 
1.7135959929 1.745329252 1.7770625111 1.8087957702 1.8405290294 1.8722622885 1.9039955476 1.9357288068 1.9674620659 
1.999195325 2.0309285841 2.0626618433 2.0943951024 2.1261283615 2.1578616206 2.1895948798 2.2213281389 2.253061398 
2.2847946572 2.3165279163 2.3482611754 2.3799944345 2.4117276937 2.4434609528 2.4751942119 2.506927471 2.5386607302 
2.5703939893 2.6021272484 2.6338605076 2.6655937667 2.6973270258 2.7290602849 2.7607935441 2.7925268032 2.8242600623 
2.8559933214 2.8877265806 2.9194598397 2.9511930988 2.982926358 3.0146596171 3.0463928762 3.0781261353 3.1098593945 
3.1415926536 
_radius 1 100 double
7.8064869349e-16 0.013430345323 0.026805306579 0.040067747539 0.053166165987 0.066055970742 0.078699310316 0.091063832101 0.10312099338 
0.11484453213 0.12620949553 0.13719193082 0.14776908148 0.15791977701 0.16762467733 0.17686610212 0.1856272963 0.19389113875 
0.20163850382 0.20884672194 0.21548877762 0.22153390729 0.22695003347 0.23170801532 0.23578714157 0.23918082006 0.24190118426 
0.24398141588 0.24547495949 0.24645139035 0.2469893536 0.24716756442 0.24705521685 0.24670324143 0.24613771123 0.24535639774 
0.24432908508 0.24300180536 0.24130470169 0.23916280229 0.23650862475 0.23329524294 0.22950826273 0.2251751075 0.22037014618 
0.21521452667 0.20987011737 0.20452771444 0.19939062426 0.19465575554 0.19049513348 0.1870408193 0.18437529947 0.18252780193 
0.18147555369 0.18114850313 0.18143653789 0.18219903741 0.18327694909 0.1845072358 0.18573870666 0.18684730564 0.18774841233 
0.18840395214 0.18882299144 0.18905560728 0.18918089105 0.18929088247 0.18947297442 0.18979370998 0.1902866567 0.19094606556 
0.19172655581 0.19254771146 0.19330177515 0.19386270368 0.1940954209 0.19386473492 0.19304373631 0.19152145434 0.18920926404 
0.186045284 0.1819960183 0.17705483383 0.17123742407 0.16457500734 0.15710646971 0.14887087619 0.13990169677 0.13022374922 
0.11985332508 0.10880135644 0.097078928129 0.084704055224 0.071708480819 0.058143298041 0.044082417317 0.029623235089 0.014884272348 
6.44638146e-16 
_area 1 100 double
0 0.00050907588876 0.0020233725209 0.0045051314572 0.0078946651487 0.012114622932 0.017075131472 0.022679594639 0.028831245154 
0.035440496306 0.042432479998 0.049753002976 0.057370125861 0.065268635833 0.073436763144 0.081848519714 0.090448664563 0.09914679678 
0.10782197185 0.11633411952 0.12453741172 0.13229275862 0.1394788123 0.1460015283 0.15180151865 0.15685712186 0.16118077376 
0.16480826235 0.16778446508 0.17015189254 0.17194659115 0.17320115517 0.17395085101 0.17423778997 0.17410849914 0.17360002942 
0.17271007108 0.17136237553 0.16940761381 0.16667217833 0.16301422525 0.15836278849 0.15274146778 0.14627775959 0.13919592935 
0.13179273421 0.12439879887 0.1173321526 0.11085393186 0.10513817351 0.10026344117 0.096225144764 0.092964840022 0.090410313293 
0.088508843386 0.087235463417 0.086572967406 0.086468474677 0.086804517378 0.087349257205 0.087833684459 0.088039169933 0.087815417991 
0.087103242583 0.085927156963 0.084376759394 0.082584345243 0.08070221177 0.078882818607 0.077264011731 0.07596003862 0.075059577691 
0.074641301308 0.074791725256 0.075810600004 0.077356992739 0.079035280443 0.080608926214 0.081843592817 0.082514736796 0.082427094303 
0.081434562653 0.079454915638 0.076475922457 0.072551633142 0.067790059342 0.062335701238 0.05635154861 0.050004779554 0.043458558428 
0.036869918676 0.030391717536 0.024175746847 0.018374378139 0.013139225762 0.00861664369 0.0049409292198 0.0022266298738 0.00056133771289 
1.7508623292e-17 
