# vtk DataFile Version 5.1
vtk output
ASCII
DATASET POLYDATA
POINTS 100 float
0.073642 0.0559648 0.698146 0.073713 0.0560547 0.697889 0.0739399 0.0561427 0.696937 
0.0742988 0.0562141 0.695287 0.0747521 0.0562481 0.692933 0.075252 0.056221 0.689874 
0.0757446 0.0561101 0.68611 0.0761748 0.0558977 0.681649 0.07649 0.0555742 0.676508 
0.0766445 0.0551403 0.670709 0.076602 0.0546077 0.664287 0.0763374 0.0539976 0.657282 
0.0758368 0.0533389 0.649742 0.0750966 0.0526636 0.641718 0.0741208 0.0520031 0.633263 
0.0729185 0.0513833 0.624424 0.0714998 0.0508208 0.615242 0.0698728 0.0503205 0.60575 
0.0680407 0.0498739 0.595966 0.0659998 0.0494603 0.585896 0.0637389 0.0490486 0.575535 
0.0612404 0.0486016 0.564863 0.0584816 0.0480809 0.553855 0.0554384 0.0474516 0.542479 
0.0520888 0.0466874 0.530703 0.0484166 0.0457747 0.518499 0.0444151 0.0447148 0.505847 
0.0400898 0.0435246 0.492736 0.0354591 0.0422356 0.47917 0.0305545 0.0408911 0.465162 
0.0254182 0.039542 0.45074 0.0200999 0.038242 0.43594 0.0146517 0.0370433 0.4208 
0.0091228 0.0359916 0.40536 0.00355465 0.0351237 0.389655 -0.0020239 0.034465 0.373709 
-0.00759951 0.0340301 0.357532 -0.0131753 0.0338239 0.341118 -0.0187695 0.0338437 0.324443 
-0.0244118 0.0340831 0.307469 -0.0301377 0.0345347 0.290142 -0.0359805 0.0351935 0.272402 
-0.0419635 0.0360582 0.254185 -0.0480916 0.0371321 0.23543 -0.0543438 0.0384226 0.216086 
-0.0606688 0.0399382 0.196118 -0.0669818 0.0416862 0.17551 -0.0731663 0.0436688 0.154268 
-0.079078 0.0458794 0.13242 -0.0845527 0.0483002 0.110016 -0.0894169 0.0509003 0.0871228 
-0.0934997 0.0536357 0.0638202 -0.0966453 0.0564509 0.0401939 -0.0987257 0.0592825 0.0163301 
-0.0996499 0.0620631 -0.00769073 -0.0993714 0.0647271 -0.0317984 -0.0978915 0.0672154 -0.0559363 
-0.0952581 0.06948 -0.0800628 -0.0915608 0.0714876 -0.104151 -0.0869222 0.0732205 -0.128184 
-0.0814868 0.0746768 -0.152155 -0.0754081 0.0758673 -0.176057 -0.0688359 0.076812 -0.199882 
-0.0619047 0.0775345 -0.223612 -0.0547249 0.0780563 -0.247219 -0.0473773 0.078392 -0.270656 
-0.0399118 0.0785445 -0.293864 -0.0323495 0.0785027 -0.316766 -0.0246898 0.078241 -0.339276 
-0.0169184 0.077721 -0.361298 -0.00901844 0.0768952 -0.382735 -0.000980824 0.0757119 -0.403497 
0.00718617 0.0741222 -0.4235 0.01545 0.0720856 -0.442677 0.0237501 0.0695763 -0.46098 
0.0319986 0.0665874 -0.47838 0.0400842 0.0631337 -0.494868 0.0478799 0.0592516 -0.510452 
0.0552537 0.0549979 -0.525154 0.06208 0.0504456 -0.539007 0.0682513 0.0456788 -0.552046 
0.0736885 0.0407866 -0.564308 0.0783482 0.035857 -0.575824 0.0822269 0.0309712 -0.586615 
0.0853609 0.0261997 -0.596696 0.0878218 0.0215992 -0.606073 0.0897091 0.0172121 -0.614742 
0.0911392 0.0130674 -0.622695 0.0922345 0.00918285 -0.629924 0.0931106 0.00556826 -0.636422 
0.0938664 0.00222947 -0.642188 0.094576 -0.000828409 -0.647229 0.095284 -0.00359811 -0.651561 
0.0960049 -0.00606854 -0.65521 0.0967258 -0.00822435 -0.658206 0.0974132 -0.0100467 -0.660588 
0.0980206 -0.011515 -0.662393 0.0984989 -0.0126095 -0.663655 0.0988046 -0.0133135 -0.664402 
0.0989085 -0.0136159 -0.664651 
LINES 2 100
OFFSETS vtktypeint64
0 100 
CONNECTIVITY vtktypeint64
0 1 2 3 4 5 6 7 8 
9 10 11 12 13 14 15 16 17 
18 19 20 21 22 23 24 25 26 
27 28 29 30 31 32 33 34 35 
36 37 38 39 40 41 42 43 44 
45 46 47 48 49 50 51 52 53 
54 55 56 57 58 59 60 61 62 
63 64 65 66 67 68 69 70 71 
72 73 74 75 76 77 78 79 80 
81 82 83 84 85 86 87 88 89 
90 91 92 93 94 95 96 97 98 
99 
POINT_DATA 100
FIELD FieldData 3
_theta 1 100 double
0 0.031733259127 0.063466518254 0.095199777382 0.12693303651 0.15866629564 0.19039955476 0.22213281389 0.25386607302 
0.28559933214 0.31733259127 0.3490658504 0.38079910953 0.41253236865 0.44426562778 0.47599888691 0.50773214603 0.53946540516 
0.57119866429 0.60293192342 0.63466518254 0.66639844167 0.6981317008 0.72986495992 0.76159821905 0.79333147818 0.82506473731 
0.85679799643 0.88853125556 0.92026451469 0.95199777382 0.98373103294 1.0154642921 1.0471975512 1.0789308103 1.1106640695 
1.1423973286 1.1741305877 1.2058638468 1.237597106 1.2693303651 1.3010636242 1.3327968833 1.3645301425 1.3962634016 
1.4279966607 1.4597299198 1.491463179 1.5231964381 1.5549296972 1.5866629564 1.6183962155 1.6501294746 1.6818627337 
1.7135959929 1.745329252 1.7770625111 1.8087957702 1.8405290294 1.8722622885 1.9039955476 1.9357288068 1.9674620659 
1.999195325 2.0309285841 2.0626618433 2.0943951024 2.1261283615 2.1578616206 2.1895948798 2.2213281389 2.253061398 
2.2847946572 2.3165279163 2.3482611754 2.3799944345 2.4117276937 2.4434609528 2.4751942119 2.506927471 2.5386607302 
2.5703939893 2.6021272484 2.6338605076 2.6655937667 2.6973270258 2.7290602849 2.7607935441 2.7925268032 2.8242600623 
2.8559933214 2.8877265806 2.9194598397 2.9511930988 2.982926358 3.0146596171 3.0463928762 3.0781261353 3.1098593945 
3.1415926536 
_radius 1 100 double
1.1113500229e-15 0.014822902971 0.029543225357 0.044059647152 0.058281636798 0.072133870625 0.085559405861 0.098521392182 0.11100320861 
0.12300699286 0.13455061257 0.14566324472 0.15637989583 0.16673538983 0.17675851399 0.18646707258 0.19586449947 0.20493842731 
0.21366126735 0.22199252925 0.22988240393 0.23727608973 0.24411843763 0.25035864629 0.25595485409 0.2608784766 0.26511800684 
0.26868178926 0.2715991104 0.27391894188 0.27570589955 0.27703344772 0.2779749937 0.27859412582 0.27893564311 0.2790190327 
0.27883562424 0.27834991852 0.2775047988 0.27622972331 0.27445068413 0.27210069037 0.26912970467 0.26551322236 0.26125893543 
0.25641109677 0.25105226366 0.2453020764 0.23931269658 0.23326061277 0.22733484856 0.22172223559 0.21659123059 0.21207646984 
0.2082665533 0.20519727801 0.20285168183 0.20116690956 0.200046401 0.19937477131 0.19903244792 0.19890769779 0.19890483673 
0.19894871701 0.19898652655 0.19898806608 0.19894499686 0.19886866361 0.19878574644 0.19873146187 0.19874095297 0.19884025654 
0.19903838775 0.19932161978 0.19965026451 0.19995763162 0.2001506981 0.20011235425 0.19970554307 0.19877974326 0.19717987549 
0.19475700633 0.19137955131 0.18694335786 0.18137919821 0.17465672659 0.16678464511 0.15780746474 0.1477996953 0.1368584946 
0.12509577335 0.11263056147 0.099582186627 0.086064581599 0.072181882268 0.058025415832 0.043672181387 0.029184928688 0.014613881647 
8.8730515473e-16 
_area 1 100 double
0 0.00063046560902 0.0024992938791 0.0055403041808 0.0096484838361 0.014688409875 0.020506345543 0.026945138717 0.033859950882 
0.041132192886 0.048679331179 0.056459285452 0.064469158343 0.072738377991 0.081316225296 0.090254061606 0.099584119777 0.10929918605 
0.11933911338 0.12958872486 0.13988730445 0.15004542583 0.15986333714 0.16914694376 0.17772077541 0.18543980433 0.19220210747 
0.1979622467 0.20274215989 0.20663377723 0.20978689309 0.21237876781 0.21456975364 0.21645945697 0.21806229731 0.21931240005 
0.22009080169 0.22025789607 0.21967754448 0.2182293413 0.21581322726 0.21235284616 0.20780220002 0.20215681371 0.1954673639 
0.18785137442 0.17949780776 0.17066047586 0.16163873342 0.15274705352 0.14427822747 0.13646801064 0.12947104206 0.12335564369 
0.11811681087 0.11369754455 0.11000826894 0.10694337181 0.10440043549 0.10231088128 0.10073147341 0.099609947643 0.098545776209 
0.097328247397 0.095905884454 0.094320569701 0.092679702056 0.091124314578 0.089794609203 0.088797499342 0.088191145056 0.087997226896 
0.088229164666 0.088915743916 0.090072045123 0.09162441441 0.093397280531 0.095186534857 0.096762361942 0.09786535181 0.098223313345 
0.097582064055 0.095740278471 0.092579303116 0.088081144369 0.082331249833 0.075506577831 0.067852706587 0.059655509954 0.051213043028 
0.042812103433 0.034711991742 0.027135827659 0.020267990086 0.014255413232 0.0092107561294 0.0052163835607 0.0023288503959 0.00058369867216 
4.42371426e-17 
