# vtk DataFile Version 5.1
vtk output
ASCII
DATASET POLYDATA
POINTS 100 float
0.12935 0.0575671 0.711549 0.129443 0.0577112 0.7114 0.12978 0.0579739 0.710778 
0.130319 0.0583286 0.709649 0.130996 0.0587361 0.707959 0.131728 0.0591497 0.705643 
0.132422 0.0595225 0.702626 0.132984 0.0598141 0.698837 0.133325 0.059996 0.694209 
0.133366 0.0600562 0.68869 0.133042 0.06 0.682252 0.132305 0.0598494 0.674888 
0.131123 0.0596386 0.666624 0.129474 0.0594083 0.657513 0.127343 0.0591989 0.647635 
0.124723 0.0590423 0.637092 0.121603 0.0589562 0.626004 0.117973 0.0589392 0.614496 
0.113819 0.0589688 0.602693 0.109128 0.0590031 0.590708 0.10389 0.0589847 0.578633 
0.0981052 0.0588481 0.566535 0.0917852 0.0585278 0.554449 0.0849624 0.0579683 0.542378 
0.0776902 0.0571329 0.530294 0.0700446 0.0560104 0.518141 0.0621217 0.0546196 0.505848 
0.0540317 0.0530103 0.493329 0.0458912 0.05126 0.480501 0.0378129 0.0494678 0.467287 
0.0298948 0.0477448 0.453627 0.0222099 0.0462032 0.439479 0.0147987 0.044945 0.424827 
0.00766473 0.0440509 0.409675 0.000774023 0.0435725 0.394043 -0.00593993 0.0435269 0.377962 
-0.0125672 0.0438954 0.361463 -0.0192086 0.0446267 0.344571 -0.0259604 0.0456431 0.327293 
-0.0328984 0.0468502 0.309618 -0.0400632 0.0481483 0.291505 -0.0474488 0.0494443 0.272894 
-0.0549955 0.0506623 0.253703 -0.0625885 0.0517526 0.23384 -0.0700633 0.0526965 0.21321 
-0.077216 0.0535084 0.191731 -0.0838193 0.0542326 0.169345 -0.0896417 0.054938 0.146026 
-0.0944675 0.0557081 0.121789 -0.0981169 0.0566308 0.0966973 -0.100462 0.0577869 0.0708546 
-0.101438 0.0592393 0.044406 -0.10105 0.0610249 0.0175252 -0.0993721 0.0631485 -0.00959675 
-0.0965362 0.0655805 -0.0367659 -0.0927226 0.0682589 -0.0637998 -0.0881399 0.0710929 -0.0905395 
-0.0830057 0.0739711 -0.11686 -0.0775263 0.0767697 -0.142675 -0.0718784 0.0793623 -0.167939 
-0.0661956 0.0816291 -0.192643 -0.0605586 0.0834644 -0.216807 -0.0549929 0.0847828 -0.24047 
-0.0494716 0.0855217 -0.263679 -0.0439244 0.0856424 -0.286476 -0.0382499 0.0851284 -0.308888 
-0.0323316 0.083982 -0.330923 -0.0260545 0.0822193 -0.352565 -0.0193198 0.0798659 -0.373773 
-0.0120589 0.0769521 -0.394488 -0.00424187 0.0735095 -0.414641 0.00411725 0.0695686 -0.434161 
0.0129607 0.0651585 -0.452985 0.0221909 0.0603078 -0.471067 0.0316784 0.0550466 -0.488381 
0.0412721 0.049409 -0.504928 0.0508105 0.0434367 -0.52073 0.0601332 0.0371806 -0.535826 
0.0690911 0.0307032 -0.550265 0.077555 0.0240784 -0.564094 0.0854208 0.0173907 -0.57735 
0.0926131 0.0107324 -0.590046 0.0990852 0.00420027 -0.60217 0.104818 -0.00210949 -0.613679 
0.109816 -0.00810582 -0.624504 0.114104 -0.0137078 -0.634551 0.117723 -0.018849 -0.64372 
0.120722 -0.0234805 -0.651909 0.12316 -0.0275731 -0.659035 0.1251 -0.0311177 -0.665044 
0.126604 -0.0341249 -0.669923 0.127737 -0.0366219 -0.673706 0.128559 -0.0386501 -0.676475 
0.129131 -0.0402606 -0.678356 0.129507 -0.0415099 -0.679509 0.129738 -0.0424549 -0.680113 
0.129867 -0.0431491 -0.68035 0.12993 -0.0436378 -0.680386 0.129954 -0.0439557 -0.680352 
0.129956 -0.044124 -0.680335 
LINES 2 100
OFFSETS vtktypeint64
0 100 
CONNECTIVITY vtktypeint64
0 1 2 3 4 5 6 7 8 
9 10 11 12 13 14 15 16 17 
18 19 20 21 22 23 24 25 26 
27 28 29 30 31 32 33 34 35 
36 37 38 39 40 41 42 43 44 
45 46 47 48 49 50 51 52 53 
54 55 56 57 58 59 60 61 62 
63 64 65 66 67 68 69 70 71 
72 73 74 75 76 77 78 79 80 
81 82 83 84 85 86 87 88 89 
90 91 92 93 94 95 96 97 98 
99 
POINT_DATA 100
FIELD FieldData 3
_theta 1 100 double
0 0.031733259127 0.063466518254 0.095199777382 0.12693303651 0.15866629564 0.19039955476 0.22213281389 0.25386607302 
0.28559933214 0.31733259127 0.3490658504 0.38079910953 0.41253236865 0.44426562778 0.47599888691 0.50773214603 0.53946540516 
0.57119866429 0.60293192342 0.63466518254 0.66639844167 0.6981317008 0.72986495992 0.76159821905 0.79333147818 0.82506473731 
0.85679799643 0.88853125556 0.92026451469 0.95199777382 0.98373103294 1.0154642921 1.0471975512 1.0789308103 1.1106640695 
1.1423973286 1.1741305877 1.2058638468 1.237597106 1.2693303651 1.3010636242 1.3327968833 1.3645301425 1.3962634016 
1.4279966607 1.4597299198 1.491463179 1.5231964381 1.5549296972 1.5866629564 1.6183962155 1.6501294746 1.6818627337 
1.7135959929 1.745329252 1.7770625111 1.8087957702 1.8405290294 1.8722622885 1.9039955476 1.9357288068 1.9674620659 
1.999195325 2.0309285841 2.0626618433 2.0943951024 2.1261283615 2.1578616206 2.1895948798 2.2213281389 2.253061398 
2.2847946572 2.3165279163 2.3482611754 2.3799944345 2.4117276937 2.4434609528 2.4751942119 2.506927471 2.5386607302 
2.5703939893 2.6021272484 2.6338605076 2.6655937667 2.6973270258 2.7290602849 2.7607935441 2.7925268032 2.8242600623 
2.8559933214 2.8877265806 2.9194598397 2.9511930988 2.982926358 3.0146596171 3.0463928762 3.0781261353 3.1098593945 
3.1415926536 
_radius 1 100 double
1.3356064026e-15 0.015419669216 0.030640624541 0.04547508062 0.059765071291 0.073393064147 0.086287895999 0.098425577574 0.10982518705 
0.12054065042 0.13064963073 0.14024098457 0.14940228405 0.15820876022 0.16671474703 0.17494835069 0.18290968669 0.19057264205 
0.19788975393 0.20479947887 0.21123489849 0.217132798 0.22244206499 0.22713046362 0.23118900522 0.23463333779 0.23750182634 
0.23985033111 0.24174414094 0.24324804221 0.24441596825 0.24528189561 0.2458535161 0.24610975649 0.24600260537 0.24546310202 
0.24441081754 0.2427657226 0.24046101734 0.23745536142 0.23374303919 0.22936090216 0.22439134087 0.21896091736 0.21323456601 
0.20740549914 0.20168131052 0.19626743237 0.19135002868 0.18708115769 0.18356888857 0.18087360429 0.17900947437 0.177948329 
0.17762308535 0.17792970917 0.17872948909 0.17985525558 0.1811243301 0.18235763296 0.18340094965 0.18414316758 0.18452741015 
0.1845530151 0.18426830836 0.18375618338 0.18311647825 0.1824497311 0.18184509986 0.18137255845 0.18107816642 0.18098135559 
0.18107364514 0.18131851122 0.18165244604 0.18198756541 0.18221620976 0.18221763497 0.18186624267 0.18104021997 0.17962923107 
0.17753998537 0.17469898819 0.17105239778 0.16656350721 0.16120880931 0.1549737973 0.14784956976 0.13983098533 0.13091665823 
0.12111064342 0.11042535142 0.09888510002 0.086529712389 0.073417629291 0.059628059062 0.045261744535 0.030440020114 0.015302002048 
1.2136241829e-15 
_area 1 100 double
0 0.00061309390735 0.0024242819476 0.0053520379715 0.0092693775643 0.014016209759 0.019414751503 0.025286320976 0.031467582712 
0.037824243554 0.044260351972 0.050721781428 0.057193214307 0.063689022728 0.07023982997 0.076877877977 0.083624826174 0.090484532406 
0.097440977385 0.10445926118 0.11148717089 0.11845650299 0.12528549561 0.13188426405 0.13816360266 0.14404518675 0.14946979024 
0.15440096966 0.1588242335 0.16274355787 0.16617662752 0.16914793497 0.17167570759 0.17374664586 0.17528286029 0.17613023385 
0.17608767479 0.1749553964 0.17257952267 0.16888717105 0.1639093171 0.15778809534 0.15076774336 0.14317109967 0.1353637472 
0.12770990913 0.12052525799 0.11403459164 0.1083464123 0.10345530952 0.099272690251 0.095673536325 0.0925421995 0.089804988925 
0.087445981624 0.085508597489 0.084153374529 0.08370593395 0.083630702316 0.083746657221 0.08388286926 0.083881943636 0.083629954112 
0.083074155248 0.082221289516 0.081123081634 0.0798579479 0.078514247448 0.077182996575 0.075962789619 0.07496342284 0.074296961406 
0.074051102327 0.074263892814 0.07490333181 0.075873270812 0.077043251499 0.078262217455 0.079360299634 0.080153885316 0.080458080321 
0.080103620927 0.078953450325 0.076915001644 0.073946282053 0.070056196623 0.065301214942 0.059780690082 0.053632015563 0.047025395759 
0.040157319678 0.033242093651 0.02650160338 0.020154319609 0.014405031818 0.0094366330613 0.0054044903811 0.0024329401247 0.00061291608081 
4.069942999e-17 
