# vtk DataFile Version 5.1
vtk output
ASCII
DATASET POLYDATA
POINTS 100 float
0.0773907 0.0561227 -0.474698 0.0768998 0.0559721 -0.474588 0.0754326 0.0554566 -0.474097 
0.0730963 0.0545883 -0.473261 0.0700583 0.0533883 -0.472141 0.0665309 0.0518867 -0.470815 
0.062752 0.0501237 -0.469372 0.0589637 0.0481494 -0.467903 0.0553915 0.0460235 -0.466492 
0.0522241 0.0438136 -0.46521 0.0495988 0.0415933 -0.464099 0.0475905 0.0394385 -0.463173 
0.0462077 0.037424 -0.462403 0.0453941 0.035619 -0.461719 0.0450361 0.0340827 -0.461009 
0.0449751 0.0328612 -0.460123 0.0450233 0.0319841 -0.458881 0.0449809 0.0314635 -0.457084 
0.0446539 0.0312937 -0.454528 0.0438699 0.0314531 -0.451019 0.0424907 0.0319067 -0.446388 
0.040422 0.0326107 -0.440508 0.0376173 0.033517 -0.433298 0.0340782 0.0345779 -0.424737 
0.0298499 0.035751 -0.414858 0.025014 0.0370026 -0.403748 0.0196779 0.0383096 -0.391534 
0.0139641 0.0396609 -0.378374 0.00799826 0.0410561 -0.364434 0.00189946 0.0425036 -0.349874 
-0.00422879 0.0440169 -0.334829 -0.0103044 0.0456113 -0.319399 -0.0162698 0.0472991 -0.303635 
-0.0220929 0.0490866 -0.287542 -0.0277644 0.0509707 -0.271079 -0.0332938 0.0529379 -0.25417 
-0.0387038 0.0549635 -0.236718 -0.0440232 0.0570129 -0.218622 -0.0492803 0.0590439 -0.199796 
-0.0544957 0.0610092 -0.180188 -0.0596773 0.0628606 -0.159786 -0.0648148 0.0645518 -0.138635 
-0.0698776 0.0660419 -0.116833 -0.0748127 0.0672972 -0.094528 -0.0795461 0.0682931 -0.0719058 
-0.0839841 0.0690138 -0.049177 -0.088018 0.0694523 -0.0265577 -0.0915285 0.0696093 -0.00425171 
-0.0943926 0.0694911 0.0175658 -0.0964897 0.0691086 0.0387599 -0.0977092 0.0684758 0.0592428 
-0.0979568 0.0676092 0.0789742 -0.0971608 0.0665273 0.0979559 -0.0952767 0.0652515 0.116221 
-0.0922899 0.0638065 0.13382 -0.0882173 0.0622218 0.150808 -0.0831062 0.0605322 0.167225 
-0.0770309 0.0587782 0.183094 -0.0700879 0.0570061 0.198408 -0.0623899 0.0552663 0.213133 
-0.0540577 0.053611 0.227215 -0.045213 0.0520916 0.240588 -0.0359717 0.050754 0.253191 
-0.0264372 0.0496357 0.264982 -0.0166972 0.0487611 0.275953 -0.00682135 0.0481391 0.286138 
0.00313791 0.047761 0.295624 0.0131424 0.0475998 0.304544 0.0231635 0.0476119 0.313072 
0.0331757 0.0477394 0.321405 0.04315 0.0479145 0.329751 0.0530476 0.0480644 0.338299 
0.0628147 0.0481172 0.347204 0.0723795 0.0480072 0.356567 0.0816522 0.0476799 0.366421 
0.0905265 0.0470955 0.376732 0.0988858 0.0462313 0.387394 0.10661 0.0450818 0.398247 
0.113583 0.0436585 0.409093 0.119708 0.0419862 0.419716 0.124907 0.0401004 0.42991 
0.129139 0.0380428 0.439499 0.132397 0.0358572 0.448358 0.134713 0.033586 0.456425 
0.136157 0.0312674 0.463701 0.136833 0.028934 0.470253 0.136868 0.026612 0.476192 
0.136405 0.0243224 0.481663 0.135592 0.0220828 0.486815 0.134569 0.0199088 0.491782 
0.133463 0.017817 0.496661 0.132376 0.0158267 0.501494 0.131384 0.0139606 0.506265 
0.130534 0.0122459 0.510893 0.129848 0.0107129 0.515246 0.129327 0.00939371 0.519157 
0.128956 0.00831962 0.522442 0.128715 0.00751864 0.524925 0.128583 0.00701273 0.526461 
0.128546 0.00681558 0.526955 
LINES 2 100
OFFSETS vtktypeint64
0 100 
CONNECTIVITY vtktypeint64
0 1 2 3 4 5 6 7 8 
9 10 11 12 13 14 15 16 17 
18 19 20 21 22 23 24 25 26 
27 28 29 30 31 32 33 34 35 
36 37 38 39 40 41 42 43 44 
45 46 47 48 49 50 51 52 53 
54 55 56 57 58 59 60 61 62 
63 64 65 66 67 68 69 70 71 
72 73 74 75 76 77 78 79 80 
81 82 83 84 85 86 87 88 89 
90 91 92 93 94 95 96 97 98 
99 
POINT_DATA 100
FIELD FieldData 3
_theta 1 100 double
0 0.031733259127 0.063466518254 0.095199777382 0.12693303651 0.15866629564 0.19039955476 0.22213281389 0.25386607302 
0.28559933214 0.31733259127 0.3490658504 0.38079910953 0.41253236865 0.44426562778 0.47599888691 0.50773214603 0.53946540516 
0.57119866429 0.60293192342 0.63466518254 0.66639844167 0.6981317008 0.72986495992 0.76159821905 0.79333147818 0.82506473731 
0.85679799643 0.88853125556 0.92026451469 0.95199777382 0.98373103294 1.0154642921 1.0471975512 1.0789308103 1.1106640695 
1.1423973286 1.1741305877 1.2058638468 1.237597106 1.2693303651 1.3010636242 1.3327968833 1.3645301425 1.3962634016 
1.4279966607 1.4597299198 1.491463179 1.5231964381 1.5549296972 1.5866629564 1.6183962155 1.6501294746 1.6818627337 
1.7135959929 1.745329252 1.7770625111 1.8087957702 1.8405290294 1.8722622885 1.9039955476 1.9357288068 1.9674620659 
1.999195325 2.0309285841 2.0626618433 2.0943951024 2.1261283615 2.1578616206 2.1895948798 2.2213281389 2.253061398 
2.2847946572 2.3165279163 2.3482611754 2.3799944345 2.4117276937 2.4434609528 2.4751942119 2.506927471 2.5386607302 
2.5703939893 2.6021272484 2.6338605076 2.6655937667 2.6973270258 2.7290602849 2.7607935441 2.7925268032 2.8242600623 
2.8559933214 2.8877265806 2.9194598397 2.9511930988 2.982926358 3.0146596171 3.0463928762 3.0781261353 3.1098593945 
3.1415926536 
_radius 1 100 double
1.0027842102e-15 0.012892894204 0.02570240185 0.038338096725 0.050702618848 0.062691278204 0.074194978304 0.085106943658 0.095332894075 
0.10480307098 0.11348323693 0.12138112997 0.12854549477 0.13505669123 0.14101004902 0.14649461418 0.15157100174 0.15625378573 
0.16050555939 0.16424806542 0.16738857202 0.16985143184 0.17160264184 0.17266009582 0.17308905488 0.17298711298 0.17246489439 
0.17162852842 0.1705681539 0.16935385385 0.16803746082 0.16665681514 0.16523912896 0.16380203719 0.16235350192 0.1608929741 
0.15941507426 0.1579149911 0.15639385188 0.15486269191 0.15334447806 0.15187436546 0.15049870654 0.14927309858 0.14825913534 
0.14751936176 0.14711129115 0.14708362233 0.14747754656 0.14833154277 0.14968405931 0.15156976967 0.15400962258 0.15699839022 
0.16049434606 0.16441453505 0.1686368825 0.17300838059 0.17735758465 0.18150954879 0.1853015351 0.18859786924 0.19130211213 
0.19336452184 0.19478296091 0.19559624849 0.19587052073 0.19568115526 0.19509453495 0.1941544117 0.19287623847 0.19124997918 
0.18924903506 0.18684147846 0.18400012253 0.180709399 0.1769685873 0.17279198695 0.16820700296 0.16325103465 0.15796782403 
0.152403735 0.14660426281 0.14061067391 0.13445611423 0.12816052413 0.12172471617 0.11512526736 0.10831231308 0.10121161696 
0.093731074959 0.085770854386 0.077235925504 0.068049623624 0.058166827558 0.047585236492 0.036353092324 0.024571675738 0.012391245695 
3.0034931393e-16 
_area 1 100 double
0 0.00040514118807 0.0016113606722 0.0035907164606 0.0062957019127 0.0096580464313 0.013586703688 0.017964790572 0.022648379771 
0.027474661772 0.032286469582 0.03697364207 0.041524492455 0.046058244865 0.050765553218 0.05577277832 0.061087288393 0.066611640725 
0.072143823563 0.077362076197 0.08187608097 0.085313862534 0.087398393949 0.088003882875 0.087178742672 0.085139289683 0.082246287791 
0.078948806012 0.075649188039 0.072599069732 0.069987747987 0.068024071517 0.066589208591 0.065516395337 0.064675202478 0.063930133726 
0.063180839115 0.062383547597 0.061544600361 0.060704508781 0.059919741509 0.05924301549 0.058709260958 0.05833693615 0.058141033431 
0.058149617753 0.058411945782 0.058996373706 0.059988783043 0.061500029153 0.063644804909 0.066444756327 0.069907519337 0.074081773837 
0.079028463534 0.084745311752 0.091094951679 0.097794872821 0.10446423441 0.11068125354 0.11603753969 0.1201898719 0.12290521061 
0.12409351752 0.12381961247 0.12228606463 0.11978760732 0.11664965063 0.11317023328 0.10957867474 0.10601119042 0.10250209791 
0.099003745253 0.09544126127 0.091765921649 0.087971156447 0.084074002804 0.080082871527 0.075980901433 0.071738723363 0.067337084413 
0.062779824894 0.058095875234 0.053333741202 0.048552837977 0.043815321355 0.039176167708 0.034671665634 0.030314294968 0.026099864104 
0.022023942005 0.018099037155 0.014364888016 0.010888822935 0.0077573675278 0.0050624985413 0.0028870883198 0.0012944610281 0.00032515606084 
2.513762134e-18 
