# vtk DataFile Version 5.1
vtk output
ASCII
DATASET POLYDATA
POINTS 100 float
0.150421 0.0517776 0.690115 0.150568 0.0517955 0.690123 0.151053 0.0517045 0.689981 
0.151797 0.0515418 0.689649 0.152681 0.0513635 0.689066 0.153553 0.0512367 0.688153 
0.154251 0.0512295 0.686815 0.154612 0.0514007 0.68495 0.154492 0.05179 0.682459 
0.153778 0.0524108 0.679247 0.152394 0.0532452 0.675234 0.15031 0.0542436 0.670361 
0.147531 0.055327 0.664592 0.144097 0.0563934 0.657922 0.140074 0.0573274 0.650369 
0.135534 0.0580103 0.641983 0.130552 0.0583322 0.632832 0.125191 0.0582028 0.623004 
0.119498 0.05756 0.612594 0.113495 0.0563764 0.601699 0.107189 0.0546618 0.59041 
0.100569 0.0524628 0.578802 0.0936168 0.0498582 0.566933 0.0863182 0.0469523 0.554834 
0.078668 0.0438658 0.542512 0.0706794 0.0407263 0.529951 0.0623874 0.0376581 0.517113 
0.0538494 0.0347745 0.503948 0.0451409 0.0321703 0.490395 0.0363489 0.0299184 0.476396 
0.0275617 0.0280677 0.461896 0.0188583 0.0266445 0.446853 0.010298 0.0256548 0.431239 
0.00191313 0.0250891 0.415042 -0.00629523 0.024927 0.398266 -0.0143565 0.0251425 0.380922 
-0.0223252 0.0257079 0.363031 -0.0302705 0.0265969 0.344612 -0.0382636 0.0277863 0.325678 
-0.0463622 0.0292564 0.306233 -0.0545959 0.0309897 0.286269 -0.062954 0.032969 0.265763 
-0.0713773 0.0351759 0.244684 -0.079755 0.0375882 0.222993 -0.0879284 0.0401784 0.200656 
-0.0957 0.0429135 0.177644 -0.102848 0.0457554 0.153946 -0.109146 0.048662 0.129577 
-0.114381 0.0515899 0.104578 -0.118372 0.0544963 0.0790201 -0.120989 0.0573426 0.0530042 
-0.122163 0.0600957 0.0266546 -0.121893 0.0627301 0.000111454 -0.120243 0.0652282 -0.0264791 
-0.117336 0.0675797 -0.0529759 -0.113341 0.0697798 -0.0792537 -0.108455 0.071827 -0.105212 
-0.102887 0.07372 -0.130783 -0.0968368 0.0754551 -0.155932 -0.0904809 0.0770233 -0.18066 
-0.0839597 0.0784091 -0.204996 -0.0773716 0.0795892 -0.228992 -0.0707707 0.0805335 -0.252712 
-0.0641722 0.0812066 -0.276217 -0.0575601 0.08157 -0.299561 -0.0508994 0.0815858 -0.322776 
-0.0441491 0.0812198 -0.345868 -0.0372743 0.080445 -0.368814 -0.0302568 0.0792438 -0.391562 
-0.0231026 0.0776104 -0.414034 -0.0158446 0.0755513 -0.436136 -0.00854245 0.073085 -0.457766 
-0.00127719 0.0702409 -0.478823 0.00585535 0.0670572 -0.499216 0.0127537 0.0635782 -0.518872 
0.0193196 0.059852 -0.53774 0.0254664 0.0559279 -0.555791 0.0311249 0.0518545 -0.573016 
0.0362469 0.0476782 -0.589422 0.0408058 0.0434424 -0.605024 0.0447947 0.0391875 -0.619836 
0.048223 0.0349514 -0.633865 0.0511108 0.0307699 -0.647103 0.0534845 0.0266771 -0.659527 
0.0553722 0.0227066 -0.671096 0.0568013 0.0188907 -0.681757 0.0577971 0.0152607 -0.691451 
0.0583843 0.011846 -0.700119 0.0585889 0.00867276 -0.707716 0.0584417 0.0057632 -0.71422 
0.0579819 0.00313408 -0.719636 0.0572597 0.000796058 -0.724004 0.0563374 -0.00124669 -0.727398 
0.055289 -0.00299619 -0.729926 0.0541971 -0.00445981 -0.731718 0.0531484 -0.00564874 -0.732917 
0.0522272 -0.00657614 -0.733668 0.0515089 -0.00725505 -0.7341 0.0510531 -0.00769642 -0.734316 
0.0508979 -0.00790737 -0.734384 
LINES 2 100
OFFSETS vtktypeint64
0 100 
CONNECTIVITY vtktypeint64
0 1 2 3 4 5 6 7 8 
9 10 11 12 13 14 15 16 17 
18 19 20 21 22 23 24 25 26 
27 28 29 30 31 32 33 34 35 
36 37 38 39 40 41 42 43 44 
45 46 47 48 49 50 51 52 53 
54 55 56 57 58 59 60 61 62 
63 64 65 66 67 68 69 70 71 
72 73 74 75 76 77 78 79 80 
81 82 83 84 85 86 87 88 89 
90 91 92 93 94 95 96 97 98 
99 
POINT_DATA 100
FIELD FieldData 3
_theta 1 100 double
0 0.031733259127 0.063466518254 0.095199777382 0.12693303651 0.15866629564 0.19039955476 0.22213281389 0.25386607302 
0.28559933214 0.31733259127 0.3490658504 0.38079910953 0.41253236865 0.44426562778 0.47599888691 0.50773214603 0.53946540516 
0.57119866429 0.60293192342 0.63466518254 0.66639844167 0.6981317008 0.72986495992 0.76159821905 0.79333147818 0.82506473731 
0.85679799643 0.88853125556 0.92026451469 0.95199777382 0.98373103294 1.0154642921 1.0471975512 1.0789308103 1.1106640695 
1.1423973286 1.1741305877 1.2058638468 1.237597106 1.2693303651 1.3010636242 1.3327968833 1.3645301425 1.3962634016 
1.4279966607 1.4597299198 1.491463179 1.5231964381 1.5549296972 1.5866629564 1.6183962155 1.6501294746 1.6818627337 
1.7135959929 1.745329252 1.7770625111 1.8087957702 1.8405290294 1.8722622885 1.9039955476 1.9357288068 1.9674620659 
1.999195325 2.0309285841 2.0626618433 2.0943951024 2.1261283615 2.1578616206 2.1895948798 2.2213281389 2.253061398 
2.2847946572 2.3165279163 2.3482611754 2.3799944345 2.4117276937 2.4434609528 2.4751942119 2.506927471 2.5386607302 
2.5703939893 2.6021272484 2.6338605076 2.6655937667 2.6973270258 2.7290602849 2.7607935441 2.7925268032 2.8242600623 
2.8559933214 2.8877265806 2.9194598397 2.9511930988 2.982926358 3.0146596171 3.0463928762 3.0781261353 3.1098593945 
3.1415926536 
_radius 1 100 double
4.2644569994e-16 0.015316063324 0.030562872692 0.045672362316 0.060587035673 0.075260338737 0.089652949435 0.10372628135 0.11743556237 
0.13072501358 0.14352683793 0.15576430899 0.16735786178 0.17823227726 0.18832303318 0.19758051735 0.20597170039 0.2134796759 
0.22010196514 0.22584859857 0.23074079185 0.23481063576 0.23810172262 0.2406701473 0.24258498006 0.2439272531 0.24478680272 
0.24525689313 0.24542719588 0.24537615745 0.24516391838 0.24482679334 0.24437402983 0.24378726437 0.2430228341 0.24201687278 
0.24069290197 0.23897141348 0.23678072634 0.23406820166 0.23081073481 0.22702334501 0.22276467583 0.21813833641 0.21328928714 
0.20839494828 0.20365142519 0.19925620889 0.19538982102 0.19219977125 0.1897901592 0.18821849356 0.18749802062 0.18760112407 
0.18845979291 0.18996297448 0.19195488683 0.19423962118 0.1965947851 0.19879273248 0.20062499672 0.20192503225 0.20258551515 
0.20256802967 0.20190432119 0.20068936168 0.19906737435 0.19721275866 0.19530847709 0.19352475012 0.19200068105 0.19083067184 
0.19005645025 0.18966463227 0.18958923129 0.18971827753 0.18990352572 0.18997210772 0.18973902327 0.1890195103 0.18764048255 
0.1854503432 0.18232662501 0.17818109021 0.17296212354 0.16665444231 0.15927632288 0.15087471456 0.14151878795 0.13129263455 
0.1202879627 0.10859766892 0.096311056977 0.083511206186 0.070274584672 0.056672539047 0.042773891071 0.02864766447 0.014365040917 
3.5669838584e-16 
_area 1 100 double
0 0.00060470104608 0.002412624312 0.0054050418255 0.009549939597 0.014800428197 0.021092255298 0.028340788108 0.03643816681 
0.045251563156 0.05462362384 0.064376085536 0.074317046895 0.084251531442 0.093994045552 0.1033810893 0.1122811739 0.12059998597 
0.1282791016 0.13528823953 0.14161341644 0.14724591017 0.15217797402 0.15640867625 0.15995695449 0.1628728846 0.16523829901 
0.16715545335 0.16872923783 0.17004754822 0.17116211878 0.17207460202 0.17273428338 0.17304935266 0.17290686845 0.17219318158 
0.17080830581 0.16867313461 0.16573384985 0.16196849951 0.15739662142 0.15208956865 0.14617903968 0.13986125687 0.13339146429 
0.12705806326 0.12112712776 0.11577672632 0.11107451273 0.10701525817 0.10357373895 0.10073879693 0.098524125947 0.096957735269 
0.096057964838 0.095806862596 0.096126485006 0.096868989383 0.097828904139 0.098764101431 0.099400731631 0.099441963323 0.098640006182 
0.096887689083 0.094251026474 0.090951472215 0.087323161304 0.083751760097 0.080587314063 0.078054022162 0.076246864701 0.075199871905 
0.074929854999 0.075455317485 0.076779026708 0.078694150698 0.080930729636 0.08325120114 0.08540745848 0.08713578865 0.08817041816 
0.08826656507 0.087226893386 0.084925505007 0.081324663427 0.076480947835 0.070539465431 0.063717163605 0.056278695388 0.048509817465 
0.040693269892 0.03309056502 0.025930867662 0.019406162401 0.013670873199 0.0088441376085 0.0050135649069 0.002239839875 0.00056162273315 
2.8676937342e-17 
