# vtk DataFile Version 5.1
vtk output
ASCII
DATASET POLYDATA
POINTS 100 float
-0.0406763 0.0229796 -0.69452 -0.0405572 0.0230188 -0.694352 -0.0402009 0.0233311 -0.693849 
-0.0396312 0.0239253 -0.692959 -0.0388874 0.0248148 -0.6916 -0.0380247 0.0260166 -0.689671 
-0.037113 0.0275493 -0.687066 -0.0362357 0.0294311 -0.683679 -0.0354876 0.0316773 -0.67942 
-0.034971 0.0342975 -0.674219 -0.0347913 0.0372935 -0.668034 -0.0350515 0.0406559 -0.660845 
-0.0358461 0.044363 -0.652655 -0.0372539 0.0483787 -0.643483 -0.0393326 0.0526521 -0.633357 
-0.0421127 0.057118 -0.622304 -0.0455939 0.0616981 -0.610342 -0.0497436 0.0663033 -0.597479 
-0.0544969 0.0708374 -0.583711 -0.0597606 0.0752012 -0.569018 -0.0654183 0.0792968 -0.55338 
-0.0713387 0.0830326 -0.536772 -0.0773847 0.0863281 -0.519186 -0.0834234 0.0891175 -0.500627 
-0.0893363 0.0913531 -0.481129 -0.0950276 0.093007 -0.460753 -0.100431 0.094072 -0.439588 
-0.105512 0.0945607 -0.417747 -0.110271 0.0945037 -0.395359 -0.114737 0.093946 -0.372553 
-0.118963 0.0929434 -0.349452 -0.123019 0.0915579 -0.326156 -0.126975 0.0898532 -0.302735 
-0.130895 0.0878905 -0.279217 -0.134826 0.0857248 -0.255595 -0.138784 0.0834019 -0.231824 
-0.14275 0.0809575 -0.207831 -0.146668 0.0784156 -0.18353 -0.150443 0.07579 -0.158837 
-0.153944 0.0730852 -0.133683 -0.157019 0.0702989 -0.108032 -0.159497 0.0674246 -0.0818877 
-0.161209 0.0644545 -0.0553039 -0.161995 0.0613823 -0.0283805 -0.161722 0.0582059 -0.00125852 
-0.160293 0.0549292 0.0258909 -0.157652 0.0515636 0.0528826 -0.153795 0.048129 0.0795343 
-0.148764 0.0446536 0.105684 -0.142647 0.0411737 0.131204 -0.135567 0.0377328 0.156011 
-0.127677 0.0343803 0.180071 -0.119143 0.0311696 0.203399 -0.110132 0.028157 0.226049 
-0.100804 0.0253989 0.248103 -0.0912978 0.0229507 0.269656 -0.0817265 0.0208645 0.290799 
-0.0721721 0.0191869 0.311606 -0.0626863 0.0179582 0.332122 -0.0532923 0.0172096 0.352354 
-0.0439918 0.0169627 0.372273 -0.0347716 0.017228 0.391819 -0.0256126 0.0180045 0.410908 
-0.0164986 0.0192791 0.429449 -0.00742291 0.0210273 0.447356 0.00160561 0.0232135 0.464564 
0.0105602 0.0257931 0.481038 0.0193957 0.0287136 0.496784 0.0280514 0.0319173 0.511846 
0.0364555 0.0353433 0.526307 0.0445316 0.0389301 0.540272 0.0522052 0.0426178 0.553864 
0.059411 0.0463495 0.567202 0.0660981 0.0500732 0.580388 0.0722344 0.0537419 0.593495 
0.077808 0.0573138 0.606555 0.0828274 0.0607521 0.619558 0.0873181 0.0640236 0.632454 
0.0913189 0.0670978 0.645159 0.0948763 0.0699457 0.657566 0.0980381 0.0725392 0.669563 
0.100849 0.0748501 0.681045 0.103345 0.0768511 0.691928 0.105552 0.0785166 0.702159 
0.107483 0.0798241 0.711723 0.109142 0.0807568 0.72064 0.110525 0.0813061 0.72896 
0.111625 0.0814742 0.736754 0.112436 0.0812765 0.744098 0.112959 0.0807428 0.751058 
0.113204 0.0799185 0.75768 0.113198 0.0788635 0.763975 0.112978 0.0776502 0.769918 
0.112595 0.0763608 0.775442 0.112111 0.0750823 0.780448 0.111592 0.0739019 0.784814 
0.111104 0.0729009 0.788409 0.110705 0.0721497 0.791108 0.110444 0.0717025 0.79281 
0.110348 0.0715937 0.793449 
LINES 2 100
OFFSETS vtktypeint64
0 100 
CONNECTIVITY vtktypeint64
0 1 2 3 4 5 6 7 8 
9 10 11 12 13 14 15 16 17 
18 19 20 21 22 23 24 25 26 
27 28 29 30 31 32 33 34 35 
36 37 38 39 40 41 42 43 44 
45 46 47 48 49 50 51 52 53 
54 55 56 57 58 59 60 61 62 
63 64 65 66 67 68 69 70 71 
72 73 74 75 76 77 78 79 80 
81 82 83 84 85 86 87 88 89 
90 91 92 93 94 95 96 97 98 
99 
POINT_DATA 100
FIELD FieldData 3
_theta 1 100 double
0 0.031733259127 0.063466518254 0.095199777382 0.12693303651 0.15866629564 0.19039955476 0.22213281389 0.25386607302 
0.28559933214 0.31733259127 0.3490658504 0.38079910953 0.41253236865 0.44426562778 0.47599888691 0.50773214603 0.53946540516 
0.57119866429 0.60293192342 0.63466518254 0.66639844167 0.6981317008 0.72986495992 0.76159821905 0.79333147818 0.82506473731 
0.85679799643 0.88853125556 0.92026451469 0.95199777382 0.98373103294 1.0154642921 1.0471975512 1.0789308103 1.1106640695 
1.1423973286 1.1741305877 1.2058638468 1.237597106 1.2693303651 1.3010636242 1.3327968833 1.3645301425 1.3962634016 
1.4279966607 1.4597299198 1.491463179 1.5231964381 1.5549296972 1.5866629564 1.6183962155 1.6501294746 1.6818627337 
1.7135959929 1.745329252 1.7770625111 1.8087957702 1.8405290294 1.8722622885 1.9039955476 1.9357288068 1.9674620659 
1.999195325 2.0309285841 2.0626618433 2.0943951024 2.1261283615 2.1578616206 2.1895948798 2.2213281389 2.253061398 
2.2847946572 2.3165279163 2.3482611754 2.3799944345 2.4117276937 2.4434609528 2.4751942119 2.506927471 2.5386607302 
2.5703939893 2.6021272484 2.6338605076 2.6655937667 2.6973270258 2.7290602849 2.7607935441 2.7925268032 2.8242600623 
2.8559933214 2.8877265806 2.9194598397 2.9511930988 2.982926358 3.0146596171 3.0463928762 3.0781261353 3.1098593945 
3.1415926536 
_radius 1 100 double
1.1122432237e-15 0.015882890523 0.031627178803 0.047096576416 0.062164118315 0.076714069216 0.090641647623 0.10385131488 0.11625479261 
0.12776996154 0.13832142427 0.14784294492 0.15628140276 0.16360147756 0.16979011766 0.1748599429 0.17885105035 0.18183111852 
0.18389410414 0.18515803289 0.18576227133 0.18586422563 0.18563483218 0.18525183747 0.18489004301 0.18470851762 0.18483601233 
0.18535693754 0.18630075316 0.18763724263 0.18927905702 0.19109154233 0.19290862832 0.19455274217 0.19585638962 0.19668309449 
0.19694556928 0.19661910717 0.19574821944 0.19444473359 0.19287640272 0.19124702827 0.18977197319 0.18865516678 0.18807297584 
0.18816624268 0.18903727133 0.19074700295 0.19330967466 0.19668598145 0.20077871174 0.20543529945 0.21045957674 0.2156317137 
0.22073269935 0.22556860074 0.22999019505 0.2339049753 0.23728034604 0.24013845354 0.24254424368 0.2445890044 0.24637192882 
0.24798221157 0.24948391424 0.25090535136 0.25223410914 0.25341807537 0.25437208758 0.25498906368 0.25515386306 0.25475775163 
0.25371128427 0.25195367831 0.24945730287 0.24622671662 0.2422926584 0.23770233134 0.23250796927 0.22675585102 0.22047762134 
0.21368513673 0.20636931488 0.19850282841 0.1900460305 0.180955199 0.17119195614 0.16073253424 0.14957546872 0.13774641087 
0.12529912713 0.11231235687 0.098882915402 0.085116094011 0.07111489508 0.056969874716 0.042751324431 0.028505202703 0.014253636047 
4.1115623018e-16 
_area 1 100 double
0 0.00063890265203 0.0025435819136 0.005676121198 0.0099672671964 0.01530866255 0.021546335535 0.028479545622 0.035866889264 
0.043438522187 0.050911524181 0.058005557861 0.064457545119 0.070035746484 0.074554020432 0.07788595644 0.079977119773 0.080853067809 
0.080621455597 0.079468061326 0.077648935405 0.075485770554 0.073363742031 0.071644456529 0.070579396623 0.070341575217 0.071010013467 
0.072553982669 0.074845104507 0.077683892163 0.080828690631 0.084023896861 0.087027327663 0.089636694312 0.091711735554 0.093184963799 
0.09405616743 0.094376598224 0.094242774255 0.093806683935 0.093267447514 0.092828128835 0.092652688138 0.092857221524 0.093529202044 
0.094752932017 0.096627490444 0.099267107111 0.1027805973 0.1072376026 0.11263140403 0.11885233709 0.12568790923 0.13284771359 
0.1400011172 0.14682051691 0.15302472968 0.15841496772 0.1628954616 0.16647412004 0.16924416355 0.17135244443 0.17296219905 
0.17421781334 0.17521849714 0.17600607485 0.17656741077 0.17684614811 0.17675643523 0.17619440756 0.17504805948 0.17320896168 
0.17058827264 0.16713526959 0.16285188672 0.15779541089 0.1520659481 0.14578318395 0.13906227844 0.1319974236 0.1246556204 
0.11707810037 0.10928563607 0.10128559801 0.093080506738 0.084678486276 0.076105113337 0.067414334886 0.058694960668 0.050070085845 
0.041689292857 0.033715912156 0.026312741604 0.019629386038 0.013793340729 0.008905648614 0.0050407839234 0.0022495882523 0.000563706864 
5.9837260795e-17 
