# vtk DataFile Version 5.1
vtk output
ASCII
DATASET POLYDATA
POINTS 100 float
0.16734 0.0316738 0.619652 0.167396 0.0317864 0.619475 0.167628 0.0320025 0.618837 
0.167953 0.0323304 0.617741 0.168246 0.0327812 0.616191 0.168358 0.0333659 0.614187 
0.168138 0.03409 0.61172 0.167449 0.0349503 0.608769 0.166195 0.0359314 0.605301 
0.164327 0.0370044 0.601265 0.161851 0.0381279 0.596601 0.158828 0.039251 0.591241 
0.155361 0.0403173 0.585118 0.151577 0.0412719 0.578176 0.14761 0.042067 0.570374 
0.143578 0.0426683 0.561701 0.139562 0.0430595 0.552176 0.135594 0.0432443 0.541852 
0.131649 0.0432467 0.530817 0.127649 0.0431079 0.519185 0.123468 0.0428809 0.507089 
0.118954 0.0426242 0.494672 0.113945 0.0423935 0.482073 0.108298 0.0422349 0.469414 
0.101906 0.0421789 0.456792 0.0947149 0.0422364 0.444272 0.0867357 0.0423978 0.431882 
0.0780424 0.0426355 0.419614 0.0687651 0.0429084 0.40743 0.0590739 0.0431686 0.395268 
0.0491576 0.0433699 0.383054 0.0391992 0.0434753 0.370711 0.0293535 0.0434643 0.358167 
0.0197274 0.0433369 0.345364 0.0103683 0.0431161 0.332261 0.0012613 0.0428457 0.318834 
-0.00766421 0.0425864 0.305073 -0.0165191 0.0424081 0.290973 -0.025432 0.0423821 0.27653 
-0.0345226 0.0425716 0.261728 -0.0438747 0.043024 0.246537 -0.053513 0.0437648 0.230904 
-0.0633859 0.0447946 0.214756 -0.0733578 0.0460889 0.198001 -0.0832122 0.0476019 0.180537 
-0.0926646 0.0492722 0.162264 -0.101386 0.0510313 0.143094 -0.10903 0.0528117 0.122968 
-0.115269 0.0545557 0.101865 -0.119822 0.0562211 0.0798112 -0.122482 0.0577854 0.0568857 
-0.12314 0.0592458 0.0332173 -0.121787 0.0606167 0.0089786 -0.11852 0.0619237 -0.0156256 
-0.113526 0.0631961 -0.0403741 -0.107061 0.0644584 -0.0650456 -0.0994276 0.0657223 -0.0894365 
-0.0909397 0.0669805 -0.113375 -0.0818983 0.0682033 -0.136734 -0.0725651 0.0693385 -0.159433 
-0.0631453 0.070315 -0.181443 -0.0537778 0.0710496 -0.202776 -0.044535 0.0714554 -0.223479 
-0.0354304 0.0714519 -0.24362 -0.0264324 0.0709747 -0.263269 -0.0174822 0.0699824 -0.282492 
-0.00851311 0.0684621 -0.30133 0.000532385 0.0664299 -0.319801 0.00968909 0.063928 -0.337891 
0.0189612 0.0610184 -0.355558 0.0283208 0.0577738 -0.372741 0.0377119 0.0542669 -0.389367 
0.0470589 0.0505606 -0.405365 0.0562788 0.0466993 -0.420675 0.065293 0.0427037 -0.435259 
0.0740376 0.0385698 -0.449106 0.082471 0.034272 -0.462232 0.0905764 0.0297703 -0.474676 
0.0983594 0.0250211 -0.486494 0.105842 0.0199894 -0.497746 0.113051 0.0146612 -0.508487 
0.120009 0.00905398 -0.518749 0.126723 0.0032232 -0.528538 0.133177 -0.00273528 -0.537829 
0.139327 -0.00868899 -0.546561 0.145102 -0.0144778 -0.554646 0.150413 -0.0199273 -0.561983 
0.155162 -0.0248661 -0.568463 0.159256 -0.0291431 -0.573994 0.162621 -0.0326449 -0.578514 
0.165217 -0.0353087 -0.582 0.167046 -0.0371313 -0.584484 0.168159 -0.0381705 -0.586049 
0.16865 -0.0385404 -0.586831 0.168656 -0.0383997 -0.587002 0.168335 -0.0379347 -0.586761 
0.167855 -0.0373385 -0.58631 0.167373 -0.03679 -0.585834 0.167016 -0.036433 -0.585482 
0.166867 -0.0363599 -0.585351 
LINES 2 100
OFFSETS vtktypeint64
0 100 
CONNECTIVITY vtktypeint64
0 1 2 3 4 5 6 7 8 
9 10 11 12 13 14 15 16 17 
18 19 20 21 22 23 24 25 26 
27 28 29 30 31 32 33 34 35 
36 37 38 39 40 41 42 43 44 
45 46 47 48 49 50 51 52 53 
54 55 56 57 58 59 60 61 62 
63 64 65 66 67 68 69 70 71 
72 73 74 75 76 77 78 79 80 
81 82 83 84 85 86 87 88 89 
90 91 92 93 94 95 96 97 98 
99 
POINT_DATA 100
FIELD FieldData 3
_theta 1 100 double
0 0.031733259127 0.063466518254 0.095199777382 0.12693303651 0.15866629564 0.19039955476 0.22213281389 0.25386607302 
0.28559933214 0.31733259127 0.3490658504 0.38079910953 0.41253236865 0.44426562778 0.47599888691 0.50773214603 0.53946540516 
0.57119866429 0.60293192342 0.63466518254 0.66639844167 0.6981317008 0.72986495992 0.76159821905 0.79333147818 0.82506473731 
0.85679799643 0.88853125556 0.92026451469 0.95199777382 0.98373103294 1.0154642921 1.0471975512 1.0789308103 1.1106640695 
1.1423973286 1.1741305877 1.2058638468 1.237597106 1.2693303651 1.3010636242 1.3327968833 1.3645301425 1.3962634016 
1.4279966607 1.4597299198 1.491463179 1.5231964381 1.5549296972 1.5866629564 1.6183962155 1.6501294746 1.6818627337 
1.7135959929 1.745329252 1.7770625111 1.8087957702 1.8405290294 1.8722622885 1.9039955476 1.9357288068 1.9674620659 
1.999195325 2.0309285841 2.0626618433 2.0943951024 2.1261283615 2.1578616206 2.1895948798 2.2213281389 2.253061398 
2.2847946572 2.3165279163 2.3482611754 2.3799944345 2.4117276937 2.4434609528 2.4751942119 2.506927471 2.5386607302 
2.5703939893 2.6021272484 2.6338605076 2.6655937667 2.6973270258 2.7290602849 2.7607935441 2.7925268032 2.8242600623 
2.8559933214 2.8877265806 2.9194598397 2.9511930988 2.982926358 3.0146596171 3.0463928762 3.0781261353 3.1098593945 
3.1415926536 
_radius 1 100 double
5.1253960278e-16 0.014627525032 0.029103845077 0.043282677126 0.057032537803 0.070242584078 0.082826609464 0.094724935326 0.10590421523 
0.11635543239 0.12609053707 0.13513817685 0.14353882832 0.15133945894 0.15858779579 0.16532644677 0.17158746379 0.17738828559 
0.1827301279 0.18759963119 0.19197392971 0.19582847551 0.19914625099 0.20192666408 0.20419247604 0.20599344691 0.20740586641 
0.20852770391 0.20946973989 0.21034368076 0.2112487764 0.21225868765 0.21341020994 0.21469507188 0.21605566513 0.21738542435 
0.21853457594 0.21932178263 0.21955155024 0.21903619219 0.21762002694 0.21520271225 0.2117584032 0.20734774634 0.2021204617 
0.19630729861 0.19020144452 0.18413106092 0.17842645986 0.17338702949 0.16925342181 0.16618913444 0.16427303857 0.16350175325 
0.16379872771 0.16502618016 0.16699743592 0.1694899383 0.17226070446 0.17506475022 0.17767471047 0.17989915169 0.18159796239 
0.1826937315 0.18317740443 0.1831061438 0.18259249701 0.18178612416 0.18085111734 0.17994267702 0.17918667289 0.17866467011 
0.1784056778 0.17838468327 0.17852736449 0.17872008637 0.17882393318 0.17869094692 0.17818019987 0.17717120306 0.17557259746 
0.1733249841 0.17039788237 0.16678190786 0.16247811241 0.15748685263 0.15179845202 0.14538734239 0.138210534 0.1302104647 
0.12132171331 0.11148072466 0.1006374522 0.088767580926 0.075883773225 0.062044298173 0.047357569611 0.031981563392 0.016117755106 
7.4612237803e-16 
_area 1 100 double
0 0.00047742741835 0.0018913034094 0.0041900528472 0.0072983957307 0.011128853683 0.015590765532 0.02059353691 0.026043776558 
0.031839288455 0.037864827904 0.043993893452 0.050097963271 0.056061142015 0.061795765098 0.067253739694 0.072429123218 0.077349375869 
0.082055969829 0.086579709752 0.090920536727 0.095041366071 0.098878628065 0.10236412823 0.10544969614 0.10812680809 0.11043492015 
0.1124553086 0.11429316572 0.11605679049 0.11784292305 0.11973076515 0.12178063393 0.12403024932 0.12648166541 0.12907577007 
0.13166107889 0.13397681719 0.13567342942 0.13637401315 0.13575463096 0.13361642371 0.12993293358 0.12486531405 0.11874299679 
0.11201120222 0.10515245603 0.098600143079 0.092673317891 0.087555108484 0.083312499836 0.079938113186 0.077387570243 0.075593405116 
0.074471562618 0.073940649279 0.073928523543 0.074349287656 0.075070245828 0.075906205664 0.07666705111 0.077228335559 0.077515539715 
0.077387432364 0.076697562489 0.075405701269 0.073594438531 0.071448284528 0.06921288374 0.067137532626 0.065415317321 0.064145171668 
0.063328352849 0.06289277282 0.06273176017 0.062742725706 0.062850556206 0.063002631911 0.063130677256 0.063118765448 0.062833591058 
0.062166272941 0.061042186805 0.059416695022 0.057268810286 0.054595064867 0.051404810383 0.047718239491 0.043567664027 0.039001627948 
0.034090874107 0.028934853448 0.023666990796 0.018456406283 0.01350380859 0.0090303090082 0.005259806165 0.0023975541193 0.00060864007237 
1.6906981459e-17 
