# vtk DataFile Version 5.1
vtk output
ASCII
DATASET POLYDATA
POINTS 100 float
0.100951 0.0220661 0.614755 0.100912 0.0223482 0.614376 0.100845 0.0230418 0.613095 
0.100728 0.0241101 0.610945 0.100532 0.025495 0.607983 0.100222 0.0271222 0.604276 
0.0997621 0.0289067 0.599898 0.0991227 0.0307601 0.594921 0.0982835 0.0325965 0.589408 
0.0972363 0.034339 0.583411 0.0959855 0.0359237 0.576964 0.0945468 0.0373037 0.570085 
0.0929424 0.0384492 0.562781 0.0911964 0.0393477 0.555049 0.0893284 0.0400017 0.546887 
0.0873474 0.0404247 0.538293 0.0852474 0.0406376 0.529277 0.0830044 0.0406643 0.519858 
0.0805765 0.0405278 0.51007 0.0779069 0.0402477 0.499954 0.074929 0.0398383 0.489557 
0.071574 0.0393093 0.478926 0.0677794 0.0386664 0.468101 0.0634982 0.0379147 0.457105 
0.0587059 0.0370617 0.445945 0.0534059 0.0361211 0.434605 0.0476317 0.0351157 0.423049 
0.0414455 0.0340802 0.411226 0.0349329 0.0330618 0.399073 0.0281948 0.0321193 0.38653 
0.0213374 0.0313207 0.373541 0.0144601 0.0307388 0.360073 0.00764521 0.0304459 0.346114 
0.000948974 0.0305076 0.331682 -0.00560451 0.0309766 0.316823 -0.0120247 0.0318877 0.301606 
-0.0183521 0.033253 0.286116 -0.0246506 0.0350606 0.270444 -0.0309971 0.0372744 0.25467 
-0.0374679 0.0398366 0.238856 -0.0441245 0.0426724 0.223032 -0.0509999 0.0456963 0.20719 
-0.0580874 0.048819 0.191284 -0.0653336 0.0519555 0.175227 -0.0726359 0.055031 0.158906 
-0.0798457 0.0579872 0.142191 -0.0867769 0.0607847 0.12495 -0.0932186 0.0634044 0.107064 
-0.0989519 0.0658458 0.0884459 -0.103768 0.0681227 0.0690518 -0.107485 0.070258 0.048888 
-0.109964 0.0722766 0.0280153 -0.111122 0.0741986 0.00654469 -0.110937 0.0760335 -0.0153706 
-0.109451 0.0777755 -0.0375491 -0.106763 0.0794014 -0.059797 -0.103019 0.080871 -0.0819255 
-0.0984032 0.0821302 -0.103767 -0.0931125 0.0831168 -0.125188 -0.0873456 0.0837668 -0.146099 
-0.0812838 0.0840232 -0.166454 -0.0750775 0.0838428 -0.186253 -0.0688359 0.0832035 -0.205532 
-0.0626226 0.0821077 -0.22435 -0.0564556 0.080584 -0.242778 -0.0503123 0.0786854 -0.260886 
-0.0441396 0.0764841 -0.278728 -0.0378657 0.0740639 -0.296331 -0.0314146 0.0715109 -0.313698 
-0.0247197 0.0689025 -0.330799 -0.0177363 0.0662985 -0.34758 -0.0104512 0.0637321 -0.363967 
-0.00288786 0.0612054 -0.379883 0.0048914 0.0586873 -0.39525 0.0127889 0.056116 -0.410007 
0.020678 0.0534054 -0.424111 0.0284129 0.0504544 -0.437544 0.03584 0.0471594 -0.450314 
0.0428104 0.0434273 -0.462446 0.0491913 0.0391884 -0.473981 0.0548759 0.0344069 -0.484961 
0.0597909 0.0290895 -0.495425 0.0639005 0.0232881 -0.505393 0.0672068 0.0170994 -0.514865 
0.0697478 0.0106583 -0.523819 0.071592 0.00412876 -0.532209 0.0728306 -0.00231022 -0.539972 
0.0735691 -0.00847925 -0.547036 0.0739186 -0.0142138 -0.553335 0.0739869 -0.0193778 -0.558813 
0.0738719 -0.0238747 -0.563442 0.0736559 -0.0276532 -0.567224 0.0734031 -0.0307096 -0.570197 
0.0731581 -0.0330839 -0.572431 0.0729481 -0.0348514 -0.574027 0.0727848 -0.0361116 -0.575103 
0.0726694 -0.0369731 -0.575782 0.0725962 -0.0375395 -0.57618 0.0725578 -0.0378953 -0.576389 
0.0725481 -0.0380948 -0.576469 
LINES 2 100
OFFSETS vtktypeint64
0 100 
CONNECTIVITY vtktypeint64
0 1 2 3 4 5 6 7 8 
9 10 11 12 13 14 15 16 17 
18 19 20 21 22 23 24 25 26 
27 28 29 30 31 32 33 34 35 
36 37 38 39 40 41 42 43 44 
45 46 47 48 49 50 51 52 53 
54 55 56 57 58 59 60 61 62 
63 64 65 66 67 68 69 70 71 
72 73 74 75 76 77 78 79 80 
81 82 83 84 85 86 87 88 89 
90 91 92 93 94 95 96 97 98 
99 
POINT_DATA 100
FIELD FieldData 3
_theta 1 100 double
0 0.031733259127 0.063466518254 0.095199777382 0.12693303651 0.15866629564 0.19039955476 0.22213281389 0.25386607302 
0.28559933214 0.31733259127 0.3490658504 0.38079910953 0.41253236865 0.44426562778 0.47599888691 0.50773214603 0.53946540516 
0.57119866429 0.60293192342 0.63466518254 0.66639844167 0.6981317008 0.72986495992 0.76159821905 0.79333147818 0.82506473731 
0.85679799643 0.88853125556 0.92026451469 0.95199777382 0.98373103294 1.0154642921 1.0471975512 1.0789308103 1.1106640695 
1.1423973286 1.1741305877 1.2058638468 1.237597106 1.2693303651 1.3010636242 1.3327968833 1.3645301425 1.3962634016 
1.4279966607 1.4597299198 1.491463179 1.5231964381 1.5549296972 1.5866629564 1.6183962155 1.6501294746 1.6818627337 
1.7135959929 1.745329252 1.7770625111 1.8087957702 1.8405290294 1.8722622885 1.9039955476 1.9357288068 1.9674620659 
1.999195325 2.0309285841 2.0626618433 2.0943951024 2.1261283615 2.1578616206 2.1895948798 2.2213281389 2.253061398 
2.2847946572 2.3165279163 2.3482611754 2.3799944345 2.4117276937 2.4434609528 2.4751942119 2.506927471 2.5386607302 
2.5703939893 2.6021272484 2.6338605076 2.6655937667 2.6973270258 2.7290602849 2.7607935441 2.7925268032 2.8242600623 
2.8559933214 2.8877265806 2.9194598397 2.9511930988 2.982926358 3.0146596171 3.0463928762 3.0781261353 3.1098593945 
3.1415926536 
_radius 1 100 double
1.2220532833e-15 0.013675115771 0.027247229924 0.040615291325 0.053686706708 0.066380394099 0.078628798182 0.090379019844 0.10159335201 
0.11224949697 0.12234059511 0.13187499622 0.14087553418 0.14937798475 0.15742842116 0.16507933487 0.17238464817 0.17939407627 
0.18614761859 0.19267113171 0.19897381698 0.20504801733 0.21087112304 0.21640891719 0.22161955513 0.22645756779 0.23087761357 
0.23483794066 0.238303535 0.24124875952 0.24365910034 0.24553157984 0.24687353413 0.24769974376 0.24802826888 0.24787569024 
0.24725271341 0.24616117512 0.24459334282 0.24253403158 0.23996555421 0.23687498906 0.23326280272 0.22915157752 0.22459349237 
0.21967527114 0.21451949296 0.20928141588 0.20414083795 0.19928915703 0.19491285671 0.19117601587 0.18820539983 0.18608120204 
0.18483427445 0.1844479902 0.18486179311 0.18597489343 0.18765112439 0.1897272524 0.19202586055 0.19437140134 0.19660621857 
0.19860333101 0.20027404985 0.20156998376 0.20248001001 0.20302328 0.20323947908 0.20317759002 0.20288444693 0.20239441686 
0.2017215157 0.20085503564 0.1997592876 0.19837740574 0.19663847435 0.1944666885 0.1917909535 0.18855327764 0.18471450092 
0.18025633529 0.17517937307 0.16949757959 0.16323063408 0.15639603739 0.14900291508 0.1410488632 0.13252025728 0.12339557142 
0.11365073477 0.10326543831 0.092229462311 0.080548341548 0.068247891848 0.055377237498 0.042010027152 0.028243575431 0.014195792609 
1.2924979816e-15 
_area 1 100 double
0 0.0005258949773 0.0020868735253 0.0046337100064 0.0080873419909 0.012343334921 0.017278061377 0.022756366182 0.028640247022 
0.034797895565 0.041112470806 0.047490184416 0.053867386563 0.060216050068 0.066546380525 0.072904657955 0.079364404902 0.086009917385 
0.092913236005 0.10010887863 0.10757413736 0.11522332933 0.12291975349 0.13050191257 0.13781560491 0.14474209478 0.15121328479 
0.15720734716 0.16272475874 0.16775583542 0.17225885551 0.17616108638 0.17937753726 0.1818319886 0.18346849249 0.1842509433 
0.18415546418 0.18316284326 0.18125669995 0.17842925955 0.17469265674 0.17009108973 0.1647087023 0.15866997832 0.15213290922 
0.14527833288 0.13829959248 0.13139439795 0.12475706059 0.11856714187 0.11297320991 0.10808096605 0.10406508164 0.10080287714 
0.09818994437 0.096191519616 0.094858289846 0.094165784076 0.094031336935 0.09436122086 0.095004654472 0.095759955263 0.096410107933 
0.096770326108 0.096745961291 0.096286690577 0.095343500426 0.094004563484 0.092483285223 0.091131044388 0.08992598596 0.089008982374 
0.088475857326 0.088346716489 0.088546148146 0.088912280534 0.089231006614 0.089281334602 0.08887413282 0.08787301144 0.08619816705 
0.083821050545 0.080755568436 0.077046466346 0.072755136114 0.067946479025 0.062682060844 0.057022073292 0.051033612007 0.044799634083 
0.038424132062 0.032032886018 0.025771811805 0.019804565363 0.014309010479 0.0094707926001 0.0054727510182 0.0024806757065 0.00062764882405 
1.8599940954e-17 
