# vtk DataFile Version 5.1
vtk output
ASCII
DATASET POLYDATA
POINTS 100 float
0.109607 0.072769 0.711562 0.109722 0.0728038 0.711293 0.109947 0.0730649 0.710655 
0.110253 0.0735143 0.709615 0.110591 0.0740943 0.708124 0.110907 0.0747341 0.706118 
0.111142 0.0753591 0.703529 0.111241 0.0758994 0.700283 0.111161 0.0762975 0.696315 
0.110873 0.0765135 0.69157 0.110363 0.0765276 0.686011 0.109632 0.0763392 0.679616 
0.108693 0.0759632 0.672389 0.107564 0.0754233 0.66435 0.10626 0.0747453 0.655539 
0.10479 0.0739495 0.646012 0.103147 0.0730446 0.635833 0.101307 0.0720246 0.625076 
0.0992281 0.070868 0.613813 0.0968508 0.0695412 0.602115 0.0941038 0.0680039 0.590046 
0.0909115 0.0662177 0.577662 0.0872023 0.0641546 0.565008 0.0829173 0.0618061 0.552118 
0.0780185 0.0591895 0.539013 0.0724946 0.0563517 0.525706 0.066363 0.0533684 0.5122 
0.0596702 0.0503401 0.498489 0.052487 0.0473836 0.484559 0.0449014 0.0446207 0.470393 
0.0370101 0.042166 0.455966 0.0289079 0.0401139 0.441249 0.0206788 0.0385289 0.426207 
0.012388 0.0374378 0.410805 0.00407763 0.0368276 0.395001 -0.00423434 0.036648 0.378753 
-0.0125513 0.0368184 0.362018 -0.0208912 0.0372393 0.344753 -0.0292778 0.0378061 0.326921 
-0.0377292 0.0384238 0.308486 -0.0462472 0.0390199 0.289424 -0.0548074 0.0395552 0.269718 
-0.0633527 0.0400287 0.249364 -0.0717899 0.040479 0.228368 -0.0799912 0.040978 0.206753 
-0.0877999 0.0416215 0.184554 -0.0950406 0.0425153 0.161815 -0.101532 0.0437591 0.138596 
-0.1071 0.0454313 0.114961 -0.111594 0.0475759 0.0909834 -0.114898 0.0501927 0.0667377 
-0.116942 0.0532344 0.0423003 -0.117705 0.0566075 0.0177454 -0.117217 0.0601808 -0.00685667 
-0.115557 0.0637975 -0.0314418 -0.112841 0.0672904 -0.0559531 -0.109214 0.0704991 -0.0803425 
-0.104834 0.0732851 -0.10457 -0.0998619 0.0755445 -0.128607 -0.0944448 0.0772163 -0.152429 
-0.0887091 0.0782846 -0.176024 -0.0827525 0.0787753 -0.199384 -0.0766409 0.0787483 -0.222506 
-0.0704101 0.0782847 -0.24539 -0.0640695 0.0774729 -0.268036 -0.0576096 0.076394 -0.290443 
-0.0510104 0.0751095 -0.312605 -0.0442507 0.0736525 -0.334508 -0.0373158 0.072023 -0.35613 
-0.0302047 0.0701902 -0.377438 -0.0229339 0.0680975 -0.398385 -0.0155391 0.0656735 -0.418916 
-0.00807425 0.0628442 -0.438963 -0.000608572 0.0595466 -0.45845 0.00677847 0.0557403 -0.477297 
0.0140025 0.051417 -0.495422 0.02098 0.0466049 -0.512749 0.027633 0.0413685 -0.52921 
0.0338929 0.0358037 -0.544749 0.0397031 0.0300283 -0.559332 0.0450197 0.0241703 -0.57294 
0.0498115 0.0183545 -0.585581 0.0540589 0.0126902 -0.59728 0.0577522 0.00726176 -0.608084 
0.0608905 0.00212186 -0.618051 0.0634805 -0.00270936 -0.627252 0.0655365 -0.00724126 -0.635759 
0.0670802 -0.0115052 -0.64364 0.0681418 -0.015544 -0.650956 0.0687609 -0.0194005 -0.657748 
0.0689873 -0.0231055 -0.664043 0.0688812 -0.026669 -0.669844 0.0685122 -0.0300742 -0.675135 
0.0679578 -0.0332755 -0.679882 0.0672995 -0.0362026 -0.684036 0.0666194 -0.0387666 -0.687542 
0.0659946 -0.0408714 -0.69034 0.0654921 -0.0424249 -0.69238 0.0651643 -0.0433513 -0.693617 
0.0650446 -0.0436007 -0.694027 
LINES 2 100
OFFSETS vtktypeint64
0 100 
CONNECTIVITY vtktypeint64
0 1 2 3 4 5 6 7 8 
9 10 11 12 13 14 15 16 17 
18 19 20 21 22 23 24 25 26 
27 28 29 30 31 32 33 34 35 
36 37 38 39 40 41 42 43 44 
45 46 47 48 49 50 51 52 53 
54 55 56 57 58 59 60 61 62 
63 64 65 66 67 68 69 70 71 
72 73 74 75 76 77 78 79 80 
81 82 83 84 85 86 87 88 89 
90 91 92 93 94 95 96 97 98 
99 
POINT_DATA 100
FIELD FieldData 3
_theta 1 100 double
0 0.031733259127 0.063466518254 0.095199777382 0.12693303651 0.15866629564 0.19039955476 0.22213281389 0.25386607302 
0.28559933214 0.31733259127 0.3490658504 0.38079910953 0.41253236865 0.44426562778 0.47599888691 0.50773214603 0.53946540516 
0.57119866429 0.60293192342 0.63466518254 0.66639844167 0.6981317008 0.72986495992 0.76159821905 0.79333147818 0.82506473731 
0.85679799643 0.88853125556 0.92026451469 0.95199777382 0.98373103294 1.0154642921 1.0471975512 1.0789308103 1.1106640695 
1.1423973286 1.1741305877 1.2058638468 1.237597106 1.2693303651 1.3010636242 1.3327968833 1.3645301425 1.3962634016 
1.4279966607 1.4597299198 1.491463179 1.5231964381 1.5549296972 1.5866629564 1.6183962155 1.6501294746 1.6818627337 
1.7135959929 1.745329252 1.7770625111 1.8087957702 1.8405290294 1.8722622885 1.9039955476 1.9357288068 1.9674620659 
1.999195325 2.0309285841 2.0626618433 2.0943951024 2.1261283615 2.1578616206 2.1895948798 2.2213281389 2.253061398 
2.2847946572 2.3165279163 2.3482611754 2.3799944345 2.4117276937 2.4434609528 2.4751942119 2.506927471 2.5386607302 
2.5703939893 2.6021272484 2.6338605076 2.6655937667 2.6973270258 2.7290602849 2.7607935441 2.7925268032 2.8242600623 
2.8559933214 2.8877265806 2.9194598397 2.9511930988 2.982926358 3.0146596171 3.0463928762 3.0781261353 3.1098593945 
3.1415926536 
_radius 1 100 double
2.9893669801e-16 0.01430849439 0.028487546464 0.042423140163 0.056015800072 0.06918528408 0.081873008205 0.094042107059 0.10567528308 
0.11677074377 0.12733664958 0.13738468843 0.14692365846 0.15595414893 0.16446538144 0.17243492028 0.17983136552 0.186619515 
0.19276702896 0.19825145766 0.20306656984 0.20722713266 0.21077151797 0.21376168683 0.21628025171 0.21842449892 0.22029754088 
0.22199719824 0.22360375697 0.22516828039 0.22670347185 0.22817898338 0.22952247205 0.23062672583 0.23136207334 0.23159236388 
0.23119228534 0.23006374933 0.22814942768 0.22544209692 0.22198905702 0.21789140698 0.21329831622 0.20839663619 0.20339635749 
0.19851273341 0.19394655251 0.18986502761 0.18638665056 0.18357340232 0.18143232906 0.179925868 0.17898749835 0.17853768732 
0.17849552758 0.17878369533 0.17932732866 0.18004982902 0.18086948253 0.18169991833 0.18245526508 0.18305855119 0.18345057359 
0.18359658566 0.18348930914 0.18314815097 0.18261545582 0.18195090005 0.18122486824 0.1805112039 0.17987946201 0.17938690058 
0.17907084288 0.1789424125 0.17898265451 0.17914157912 0.17933988666 0.17947247831 0.17941270531 0.17901673803 0.17812818462 
0.17658376229 0.17422108101 0.17088921398 0.16646168316 0.16085012973 0.15401591007 0.145976706 0.13680606925 0.12662532186 
0.11558894022 0.10386603568 0.091621477679 0.079000331604 0.066118470753 0.053060561761 0.039884538193 0.026629885244 0.013326306836 
5.7565862502e-16 
_area 1 100 double
0 0.00054640085654 0.0021686098061 0.0048174843305 0.0084168371074 0.012870720396 0.018071526311 0.023907745412 0.030270619953 
0.037058955589 0.044180904456 0.051551497612 0.059086218736 0.066693420578 0.074269590048 0.081700202645 0.08886631586 0.095654623197 
0.10196740064 0.10772948252 0.11289206406 0.1174358689 0.12137648211 0.12477176127 0.12772704594 0.13039086266 0.1329344613 
0.13551613709 0.13824394876 0.14115367865 0.14420580199 0.14729363191 0.15025593528 0.15289214279 0.1549798976 0.15629446296 
0.15662964837 0.15582030801 0.15376585001 0.15045218772 0.14596734884 0.14050518423 0.13435302085 0.12786216169 0.12140387871 
0.1153179933 0.10986670199 0.10520795834 0.10139252658 0.098375117189 0.096030042705 0.094173330754 0.092599187248 0.091128656487 
0.089658424178 0.088195365616 0.086848632852 0.085758823868 0.084957922185 0.084342960917 0.083753257466 0.083032540508 0.082067247486 
0.080806066581 0.079257833771 0.077477946298 0.075554735247 0.073600500561 0.071742839289 0.070112274209 0.068825721105 0.067977796658 
0.06764330706 0.067863242907 0.06861417089 0.069808131577 0.071325488324 0.073038006128 0.074808759286 0.076476304096 0.077835005401 
0.078628425572 0.078571249854 0.077398950657 0.074925557167 0.071086984325 0.065957743295 0.059740135602 0.052732180579 0.045283804055 
0.037751204509 0.030457764855 0.023667338597 0.017572825746 0.012299804729 0.0079216249037 0.0044793942131 0.0019992077905 0.00050119299573 
2.9110618211e-17 
