# vtk DataFile Version 5.1
vtk output
ASCII
DATASET POLYDATA
POINTS 100 float
-0.0750675 0.0441732 -0.59287 -0.0751672 0.0442122 -0.592682 -0.0755093 0.044449 -0.592158 
-0.0760718 0.0448676 -0.591232 -0.0768208 0.0454442 -0.589805 -0.0777151 0.0461493 -0.587752 
-0.0787118 0.0469512 -0.584942 -0.0797722 0.0478185 -0.581251 -0.0808678 0.0487242 -0.576575 
-0.0819851 0.0496475 -0.570845 -0.0831295 0.0505761 -0.564029 -0.0843272 0.0515073 -0.55614 
-0.0856241 0.0524481 -0.547229 -0.0870836 0.0534136 -0.537377 -0.0887813 0.0544252 -0.526687 
-0.0907984 0.055508 -0.515267 -0.0932132 0.0566869 -0.50322 -0.0960926 0.0579837 -0.490631 
-0.0994842 0.0594134 -0.477559 -0.103408 0.0609816 -0.464031 -0.107854 0.0626823 -0.450046 
-0.112775 0.0644974 -0.435574 -0.118092 0.0663966 -0.42057 -0.123694 0.0683382 -0.404978 
-0.129448 0.0702723 -0.388747 -0.135204 0.0721431 -0.371835 -0.140809 0.0738925 -0.354223 
-0.146118 0.0754645 -0.335914 -0.151002 0.0768081 -0.316937 -0.15536 0.0778808 -0.29734 
-0.159127 0.0786511 -0.277188 -0.162272 0.0791001 -0.256551 -0.164803 0.0792215 -0.235497 
-0.166761 0.0790217 -0.214085 -0.168212 0.0785176 -0.192358 -0.169238 0.0777344 -0.170341 
-0.169923 0.076703 -0.148042 -0.170345 0.0754562 -0.125456 -0.170559 0.0740256 -0.102576 
-0.170593 0.0724391 -0.0793986 -0.170441 0.0707183 -0.0559376 -0.170058 0.0688772 -0.0322308 
-0.169367 0.0669216 -0.00834726 -0.16826 0.0648501 0.0156101 -0.166615 0.0626554 0.0395061 
-0.164301 0.0603267 0.0631798 -0.161194 0.0578528 0.0864544 -0.157194 0.0552257 0.109151 
-0.152229 0.0524437 0.131101 -0.146269 0.0495146 0.152165 -0.13933 0.0464576 0.17224 
-0.131472 0.0433055 0.191271 -0.1228 0.0401041 0.209254 -0.113449 0.0369118 0.226239 
-0.103582 0.0337968 0.242315 -0.0933704 0.0308341 0.257612 -0.0829831 0.0281006 0.272278 
-0.0725757 0.025671 0.286468 -0.0622781 0.0236117 0.300329 -0.0521885 0.0219766 0.313987 
-0.0423689 0.0208026 0.327538 -0.0328456 0.0201063 0.341042 -0.0236131 0.0198826 0.354522 
-0.0146405 0.0201039 0.367969 -0.0058805 0.020722 0.381347 0.00272113 0.0216706 0.394603 
0.0112159 0.0228701 0.40768 0.0196445 0.0242324 0.420524 0.0280305 0.0256673 0.433098 
0.0363771 0.027088 0.445379 0.0446661 0.0284171 0.45737 0.0528603 0.0295908 0.469091 
0.0609077 0.0305626 0.48058 0.0687468 0.031305 0.491883 0.076314 0.0318096 0.503047 
0.0835489 0.0320857 0.51411 0.0904006 0.0321573 0.525094 0.0968311 0.0320592 0.536001 
0.102818 0.0318322 0.546808 0.108354 0.0315184 0.557468 0.113447 0.0311566 0.567911 
0.118113 0.0307785 0.578054 0.12238 0.0304063 0.587802 0.126276 0.0300516 0.597063 
0.129831 0.0297153 0.605748 0.13307 0.0293892 0.613785 0.136015 0.0290592 0.621119 
0.138682 0.0287077 0.627719 0.141082 0.0283184 0.633573 0.143223 0.0278789 0.638693 
0.14511 0.027384 0.64311 0.146749 0.0268379 0.646865 0.148147 0.0262541 0.650012 
0.149314 0.0256558 0.652606 0.150263 0.0250733 0.654704 0.151007 0.0245415 0.656357 
0.151562 0.0240963 0.65761 0.151944 0.0237708 0.658501 0.152164 0.023592 0.659055 
0.152231 0.0235772 0.659289 
LINES 2 100
OFFSETS vtktypeint64
0 100 
CONNECTIVITY vtktypeint64
0 1 2 3 4 5 6 7 8 
9 10 11 12 13 14 15 16 17 
18 19 20 21 22 23 24 25 26 
27 28 29 30 31 32 33 34 35 
36 37 38 39 40 41 42 43 44 
45 46 47 48 49 50 51 52 53 
54 55 56 57 58 59 60 61 62 
63 64 65 66 67 68 69 70 71 
72 73 74 75 76 77 78 79 80 
81 82 83 84 85 86 87 88 89 
90 91 92 93 94 95 96 97 98 
99 
POINT_DATA 100
FIELD FieldData 3
_theta 1 100 double
0 0.031733259127 0.063466518254 0.095199777382 0.12693303651 0.15866629564 0.19039955476 0.22213281389 0.25386607302 
0.28559933214 0.31733259127 0.3490658504 0.38079910953 0.41253236865 0.44426562778 0.47599888691 0.50773214603 0.53946540516 
0.57119866429 0.60293192342 0.63466518254 0.66639844167 0.6981317008 0.72986495992 0.76159821905 0.79333147818 0.82506473731 
0.85679799643 0.88853125556 0.92026451469 0.95199777382 0.98373103294 1.0154642921 1.0471975512 1.0789308103 1.1106640695 
1.1423973286 1.1741305877 1.2058638468 1.237597106 1.2693303651 1.3010636242 1.3327968833 1.3645301425 1.3962634016 
1.4279966607 1.4597299198 1.491463179 1.5231964381 1.5549296972 1.5866629564 1.6183962155 1.6501294746 1.6818627337 
1.7135959929 1.745329252 1.7770625111 1.8087957702 1.8405290294 1.8722622885 1.9039955476 1.9357288068 1.9674620659 
1.999195325 2.0309285841 2.0626618433 2.0943951024 2.1261283615 2.1578616206 2.1895948798 2.2213281389 2.253061398 
2.2847946572 2.3165279163 2.3482611754 2.3799944345 2.4117276937 2.4434609528 2.4751942119 2.506927471 2.5386607302 
2.5703939893 2.6021272484 2.6338605076 2.6655937667 2.6973270258 2.7290602849 2.7607935441 2.7925268032 2.8242600623 
2.8559933214 2.8877265806 2.9194598397 2.9511930988 2.982926358 3.0146596171 3.0463928762 3.0781261353 3.1098593945 
3.1415926536 
_radius 1 100 double
1.2378488857e-15 0.012123633613 0.024206659128 0.03620509584 0.04807201183 0.059757118166 0.07120689825 0.082364973782 0.093172302916 
0.10356694416 0.11348347833 0.12285261316 0.13160178944 0.13965756843 0.14695014111 0.15341959863 0.15902293401 0.16374038655 
0.16757979969 0.17057805371 0.17279919042 0.17432943762 0.17526990237 0.17572817223 0.17581030806 0.17561456814 0.17522762191 
0.17472318832 0.17416234624 0.17359452611 0.17305843939 0.17258270885 0.1721864322 0.1718801481 0.17166762235 0.17154861237 
0.17152246554 0.17159218532 0.17176843195 0.17207273177 0.17253899484 0.17321248835 0.17414587607 0.17539275864 0.1769999614 
0.17900022617 0.18140687866 0.18421154958 0.18738517749 0.19088153436 0.19464186785 0.19859929461 0.2026821672 0.20681632614 
0.21092658746 0.21493795683 0.2187770218 0.22237382771 0.2256642808 0.22859276437 0.23111433374 0.23319575564 0.23481488573 
0.23595839189 0.23661844125 0.23678941783 0.23646581629 0.23564210796 0.23431471093 0.23248543263 0.23016513689 0.22737613865 
0.22415210197 0.22053499919 0.21656973834 0.21229793994 0.20775260561 0.20295492032 0.19791344668 0.19262504784 0.18707646282 
0.18124565896 0.17510268123 0.16861035602 0.16172556845 0.15440175034 0.14659274126 0.13825756867 0.1293652513 0.11989865269 
0.1098566914 0.099254684167 0.088123064355 0.076505038799 0.064453864228 0.052030340941 0.039300879185 0.02633618187 0.013210333953 
2.9447902607e-16 
_area 1 100 double
0 0.00036943004033 0.0014881682699 0.003381593704 0.0060746152453 0.0095732838132 0.013850936686 0.018843931247 0.024457255216 
0.030575468372 0.037071813741 0.043809678873 0.050635963162 0.057372496337 0.063814824094 0.069744771489 0.074956135548 0.079286294869 
0.082643883413 0.085024323072 0.086509133644 0.087249316719 0.087436464791 0.087267710821 0.086912756993 0.08649191518 0.08607075601 
0.08566979142 0.085281570547 0.084887015988 0.084467194472 0.08401227842 0.083531148002 0.083060048232 0.082662927835 0.08241830848 
0.082397249243 0.0826465437 0.083191013596 0.08404881229 0.085221793381 0.086676212558 0.088381146933 0.090340272139 0.092587198888 
0.095169877137 0.098132463074 0.1014964375 0.10524921989 0.10934994539 0.11375022561 0.11841641344 0.12333982629 0.128527441 
0.13397312408 0.1396195767 0.14533148895 0.15090021168 0.15608246129 0.16065382774 0.16445268716 0.16740020911 0.16949365682 
0.17077808463 0.17130732097 0.17110915436 0.17016966935 0.16844401442 0.16588688636 0.16248622728 0.15828567862 0.15338998561 
0.14795409445 0.1421587347 0.13617624564 0.13013518612 0.12409937431 0.11807425879 0.11203544719 0.10595873619 0.099834665985 
0.093665231832 0.087451241281 0.081181490581 0.074831213384 0.068370908298 0.061781600625 0.055070334542 0.048280124204 0.041491296698 
0.034814823451 0.028380946658 0.022326980142 0.016786905406 0.011883687571 0.0077242826872 0.0043970368574 0.0019708660685 0.00049522250225 
9.9108735017e-17 
