# vtk DataFile Version 5.1
vtk output
ASCII
DATASET POLYDATA
POINTS 100 float
0.0675858 0.0139959 0.650489 0.067615 0.0142545 0.65018 0.0677347 0.014876 0.649137 
0.0679069 0.0158211 0.647372 0.0680732 0.0170301 0.6449 0.0681622 0.0184289 0.641744 
0.0680981 0.0199371 0.637921 0.0678099 0.0214759 0.633448 0.0672391 0.022975 0.628332 
0.0663463 0.0243779 0.622578 0.0651143 0.025645 0.616181 0.0635486 0.0267533 0.609136 
0.0616743 0.0276946 0.601439 0.0595309 0.0284701 0.593092 0.0571648 0.0290857 0.584109 
0.0546217 0.0295459 0.574517 0.051939 0.0298489 0.56436 0.0491398 0.029984 0.553698 
0.0462294 0.0299306 0.542603 0.043195 0.029661 0.531151 0.0400079 0.0291447 0.519419 
0.0366286 0.0283551 0.507475 0.0330136 0.0272771 0.495367 0.0291232 0.0259145 0.483123 
0.024929 0.0242955 0.470741 0.0204193 0.0224759 0.458193 0.015603 0.0205396 0.445428 
0.0105097 0.0185947 0.432376 0.00518691 0.0167664 0.41896 -0.00030515 0.0151871 0.405109 
-0.00590185 0.0139848 0.390763 -0.0115427 0.0132712 0.375889 -0.01718 0.0131305 0.360483 
-0.0227859 0.0136112 0.344575 -0.0283569 0.0147209 0.328225 -0.0339149 0.0164255 0.311522 
-0.0395042 0.0186536 0.294564 -0.0451851 0.0213034 0.277454 -0.0510243 0.0242544 0.260282 
-0.0570831 0.0273799 0.243112 -0.0634059 0.03056 0.225974 -0.0700082 0.0336937 0.208853 
-0.0768681 0.0367082 0.191695 -0.0839213 0.0395644 0.174406 -0.0910598 0.0422579 0.156867 
-0.098136 0.0448165 0.138942 -0.104971 0.047293 0.120502 -0.111368 0.0497554 0.101434 
-0.117122 0.0522761 0.081663 -0.122043 0.0549199 0.0611588 -0.125964 0.0577345 0.0399438 
-0.128756 0.0607429 0.0180936 -0.130335 0.0639387 -0.00426944 -0.130672 0.0672863 -0.0269873 
-0.129784 0.0707237 -0.0498811 -0.127738 0.0741682 -0.0727682 -0.124633 0.0775248 -0.0954791 
-0.120598 0.0806946 -0.117872 -0.115769 0.0835839 -0.139842 -0.110284 0.0861105 -0.16133 
-0.104268 0.0882088 -0.182314 -0.0978242 0.089832 -0.202812 -0.0910283 0.0909517 -0.222864 
-0.083929 0.0915547 -0.242524 -0.0765492 0.0916396 -0.261841 -0.0688915 0.0912113 -0.280848 
-0.0609464 0.0902767 -0.299554 -0.0527017 0.0888418 -0.317938 -0.0441512 0.0869101 -0.335947 
-0.0353033 0.0844831 -0.353506 -0.0261868 0.0815632 -0.370524 -0.0168544 0.0781575 -0.38691 
-0.00738303 0.0742826 -0.402584 0.00212878 0.0699695 -0.41749 0.0115656 0.0652664 -0.431606 
0.020802 0.0602409 -0.444946 0.0297107 0.0549784 -0.457563 0.0381702 0.0495788 -0.469538 
0.0460722 0.0441504 -0.480969 0.0533278 0.0388025 -0.49196 0.0598718 0.0336364 -0.502599 
0.0656644 0.0287377 -0.512948 0.070692 0.024169 -0.523029 0.0749652 0.0199658 -0.532821 
0.0785159 0.0161347 -0.542254 0.0813934 0.0126557 -0.55122 0.0836598 0.00948724 -0.559585 
0.0853854 0.00657344 -0.567204 0.086645 0.00385384 -0.573943 0.0875138 0.00127284 -0.579693 
0.0880649 -0.00121149 -0.584394 0.0883669 -0.00362064 -0.588037 0.0884827 -0.00595179 -0.590675 
0.0884685 -0.00817749 -0.592419 0.0883732 -0.0102487 -0.593424 0.0882385 -0.0121011 -0.593877 
0.0880982 -0.0136632 -0.593974 0.0879789 -0.014866 -0.593896 0.0878993 -0.0156519 -0.593792 
0.0878708 -0.0159827 -0.593757 
LINES 2 100
OFFSETS vtktypeint64
0 100 
CONNECTIVITY vtktypeint64
0 1 2 3 4 5 6 7 8 
9 10 11 12 13 14 15 16 17 
18 19 20 21 22 23 24 25 26 
27 28 29 30 31 32 33 34 35 
36 37 38 39 40 41 42 43 44 
45 46 47 48 49 50 51 52 53 
54 55 56 57 58 59 60 61 62 
63 64 65 66 67 68 69 70 71 
72 73 74 75 76 77 78 79 80 
81 82 83 84 85 86 87 88 89 
90 91 92 93 94 95 96 97 98 
99 
POINT_DATA 100
FIELD FieldData 3
_theta 1 100 double
0 0.031733259127 0.063466518254 0.095199777382 0.12693303651 0.15866629564 0.19039955476 0.22213281389 0.25386607302 
0.28559933214 0.31733259127 0.3490658504 0.38079910953 0.41253236865 0.44426562778 0.47599888691 0.50773214603 0.53946540516 
0.57119866429 0.60293192342 0.63466518254 0.66639844167 0.6981317008 0.72986495992 0.76159821905 0.79333147818 0.82506473731 
0.85679799643 0.88853125556 0.92026451469 0.95199777382 0.98373103294 1.0154642921 1.0471975512 1.0789308103 1.1106640695 
1.1423973286 1.1741305877 1.2058638468 1.237597106 1.2693303651 1.3010636242 1.3327968833 1.3645301425 1.3962634016 
1.4279966607 1.4597299198 1.491463179 1.5231964381 1.5549296972 1.5866629564 1.6183962155 1.6501294746 1.6818627337 
1.7135959929 1.745329252 1.7770625111 1.8087957702 1.8405290294 1.8722622885 1.9039955476 1.9357288068 1.9674620659 
1.999195325 2.0309285841 2.0626618433 2.0943951024 2.1261283615 2.1578616206 2.1895948798 2.2213281389 2.253061398 
2.2847946572 2.3165279163 2.3482611754 2.3799944345 2.4117276937 2.4434609528 2.4751942119 2.506927471 2.5386607302 
2.5703939893 2.6021272484 2.6338605076 2.6655937667 2.6973270258 2.7290602849 2.7607935441 2.7925268032 2.8242600623 
2.8559933214 2.8877265806 2.9194598397 2.9511930988 2.982926358 3.0146596171 3.0463928762 3.0781261353 3.1098593945 
3.1415926536 
_radius 1 100 double
1.1229062168e-15 0.013258085171 0.026496419175 0.03968303693 0.052773420985 0.065708054127 0.078413163074 0.09080444836 0.10279300345 
0.11429230465 0.12522516502 0.13552982131 0.14516468799 0.15411157816 0.16237725457 0.16999306769 0.17701230014 0.18350484806 
0.18954918722 0.19522222729 0.20058847255 0.20569051709 0.21054296112 0.215131238 0.21941578497 0.22334081606 0.22684598088 
0.22987864228 0.23240448821 0.23441466736 0.23592840961 0.23699091879 0.23766703958 0.23803174835 0.23815890729 0.2381099558 
0.23792426781 0.23761273909 0.237155763 0.23650613397 0.23559667017 0.23435159991 0.23270014394 0.23059034588 0.22800110429 
0.2249505546 0.22149944831 0.21774896366 0.21383333947 0.20990859285 0.20613907795 0.20268368727 0.19968323643 0.19725013697 
0.19546083271 0.19435077829 0.19391146339 0.1940896189 0.1947900333 0.19588409899 0.19722495785 0.19866717111 0.20008632714 
0.20139381474 0.20254392514 0.20353286931 0.20439092727 0.20516963043 0.2059261306 0.20670711863 0.20753476601 0.20839690445 
0.20924289471 0.20998551824 0.21050811175 0.21067539751 0.21034618051 0.2093861913 0.20767964988 0.2051384412 0.20170806776 
0.19736980402 0.19213878194 0.18605812073 0.17918967514 0.17160248147 0.16336047653 0.15451146328 0.14507944809 0.13506216549 
0.12443469184 0.11315865253 0.10119513189 0.088518588736 0.075129137275 0.061061264808 0.046387979747 0.031220176992 0.015701577676 
3.2704665401e-16 
_area 1 100 double
0 0.00048816874794 0.0019448816576 0.004345775969 0.0076475200783 0.011785443996 0.016672977358 0.022204214893 0.028259775671 
0.034714752912 0.041446657592 0.048341367795 0.055296209396 0.062220810209 0.069037391838 0.075682035644 0.082107220813 0.088284411781 
0.094204834853 0.099877428938 0.10532468084 0.11057822769 0.11567550942 0.12065624421 0.12555466785 0.13038393186 0.13511578297 
0.13966745628 0.14390796658 0.14768539344 0.1508650635 0.15336378246 0.15516790711 0.15632910663 0.15693928456 0.15709649925 
0.15687790945 0.1563253766 0.15544115294 0.15419240844 0.15252388254 0.15037590663 0.14770326326 0.14448997078 0.14075672691 
0.1365615128 0.13199724849 0.12718934664 0.12229164641 0.1174780238 0.11292927864 0.10881472998 0.10526727747 0.10235866776 
0.10009270105 0.098423496897 0.097279864028 0.096577738277 0.096225427209 0.096131605496 0.096213967021 0.096400380562 0.096619935295 
0.096796146571 0.096857423674 0.096758727373 0.096495965278 0.096108822397 0.095697858346 0.09537600635 0.095186502676 0.095192687751 
0.095432536891 0.095901872266 0.096530510564 0.097190080575 0.097713867861 0.097909921263 0.097580963005 0.096549210887 0.094679495282 
0.091895485846 0.088186912731 0.083608044913 0.078268456086 0.072317315178 0.065923070702 0.059251751558 0.052448745696 0.045629604942 
0.038883567642 0.032288628812 0.025931475175 0.019923460184 0.014406499766 0.0095476585541 0.0055248278052 0.0025072643223 0.00063487964357 
8.4567769454e-18 
