# vtk DataFile Version 5.1
vtk output
ASCII
DATASET POLYDATA
POINTS 100 float
0.102555 0.0402449 0.703682 0.102607 0.040508 0.703238 0.102832 0.0411528 0.701802 
0.103194 0.0421411 0.699454 0.103635 0.0434134 0.696316 0.104083 0.0448958 0.692533 
0.104458 0.046507 0.688257 0.104678 0.0481663 0.683619 0.104667 0.0498009 0.678718 
0.104363 0.0513512 0.673601 0.103719 0.052774 0.66826 0.102711 0.0540439 0.662633 
0.101334 0.0551509 0.656611 0.0996014 0.0560969 0.650054 0.0975433 0.0568906 0.642813 
0.0951986 0.0575417 0.634748 0.0926096 0.0580558 0.62575 0.0898159 0.0584305 0.615756 
0.0868481 0.0586537 0.604758 0.0837234 0.0587037 0.592809 0.0804427 0.0585526 0.58001 
0.0769905 0.0581703 0.566506 0.0733358 0.0575307 0.552463 0.0694364 0.056618 0.538052 
0.065244 0.0554323 0.523424 0.06071 0.0539931 0.508699 0.0557926 0.0523417 0.493951 
0.0504626 0.0505397 0.479203 0.0447078 0.0486656 0.46443 0.0385364 0.0468089 0.449565 
0.0319775 0.0450618 0.434515 0.0250802 0.0435116 0.419174 0.0179094 0.0422322 0.403444 
0.0105418 0.0412777 0.387244 0.00305887 0.0406775 0.370524 -0.00445878 0.0404355 0.353271 
-0.0119373 0.0405308 0.335502 -0.0193142 0.0409227 0.317265 -0.0265407 0.0415565 0.298618 
-0.0335828 0.0423721 0.279626 -0.0404189 0.043312 0.260337 -0.0470369 0.0443287 0.240779 
-0.0534285 0.0453906 0.220946 -0.0595836 0.0464855 0.200804 -0.0654843 0.047621 0.180287 
-0.0710997 0.0488219 0.159314 -0.0763827 0.0501258 0.1378 -0.0812687 0.0515758 0.115673 
-0.0856766 0.0532138 0.0928897 -0.0895128 0.0550723 0.069447 -0.0926771 0.0571688 0.0453916 
-0.0950699 0.0595012 0.0208203 -0.0966011 0.0620457 -0.00412556 -0.0971976 0.0647577 -0.0292721 
-0.0968112 0.0675748 -0.05443 -0.0954228 0.0704213 -0.0794138 -0.0930458 0.0732145 -0.104062 
-0.0897251 0.0758707 -0.128252 -0.0855341 0.0783108 -0.151914 -0.0805683 0.0804643 -0.175033 
-0.0749378 0.0822722 -0.197649 -0.0687577 0.0836875 -0.219841 -0.0621394 0.0846734 -0.241716 
-0.0551824 0.0852017 -0.263383 -0.0479677 0.0852488 -0.284938 -0.0405551 0.0847932 -0.306439 
-0.0329816 0.0838128 -0.327898 -0.0252647 0.0822844 -0.349269 -0.0174073 0.0801843 -0.37045 
-0.00940505 0.0774911 -0.391296 -0.00125444 0.0741898 -0.411631 0.00703857 0.070277 -0.431273 
0.0154515 0.0657653 -0.450052 0.0239401 0.0606886 -0.467838 0.032436 0.0551042 -0.48455 
0.0408474 0.0490935 -0.500175 0.049063 0.0427602 -0.514764 0.056959 0.0362251 -0.528426 
0.0644076 0.0296192 -0.541311 0.0712873 0.0230754 -0.553595 0.0774929 0.0167189 -0.565449 
0.082944 0.0106587 -0.577015 0.0875921 0.00497968 -0.588391 0.0914244 -0.000261754 -0.599611 
0.094464 -0.00504004 -0.610641 0.0967675 -0.00935902 -0.621384 0.0984191 -0.0132475 -0.631689 
0.0995224 -0.0167525 -0.641376 0.100191 -0.0199303 -0.650256 0.10054 -0.0228378 -0.658157 
0.100674 -0.0255236 -0.664951 0.100684 -0.0280216 -0.670568 0.10064 -0.0303462 -0.675008 
0.100588 -0.0324915 -0.678339 0.100554 -0.0344325 -0.680693 0.100546 -0.0361305 -0.682243 
0.100559 -0.0375385 -0.683182 0.100578 -0.0386095 -0.683696 0.10059 -0.0393036 -0.683941 
0.100584 -0.0395941 -0.684017 
LINES 2 100
OFFSETS vtktypeint64
0 100 
CONNECTIVITY vtktypeint64
0 1 2 3 4 5 6 7 8 
9 10 11 12 13 14 15 16 17 
18 19 20 21 22 23 24 25 26 
27 28 29 30 31 32 33 34 35 
36 37 38 39 40 41 42 43 44 
45 46 47 48 49 50 51 52 53 
54 55 56 57 58 59 60 61 62 
63 64 65 66 67 68 69 70 71 
72 73 74 75 76 77 78 79 80 
81 82 83 84 85 86 87 88 89 
90 91 92 93 94 95 96 97 98 
99 
POINT_DATA 100
FIELD FieldData 3
_theta 1 100 double
0 0.031733259127 0.063466518254 0.095199777382 0.12693303651 0.15866629564 0.19039955476 0.22213281389 0.25386607302 
0.28559933214 0.31733259127 0.3490658504 0.38079910953 0.41253236865 0.44426562778 0.47599888691 0.50773214603 0.53946540516 
0.57119866429 0.60293192342 0.63466518254 0.66639844167 0.6981317008 0.72986495992 0.76159821905 0.79333147818 0.82506473731 
0.85679799643 0.88853125556 0.92026451469 0.95199777382 0.98373103294 1.0154642921 1.0471975512 1.0789308103 1.1106640695 
1.1423973286 1.1741305877 1.2058638468 1.237597106 1.2693303651 1.3010636242 1.3327968833 1.3645301425 1.3962634016 
1.4279966607 1.4597299198 1.491463179 1.5231964381 1.5549296972 1.5866629564 1.6183962155 1.6501294746 1.6818627337 
1.7135959929 1.745329252 1.7770625111 1.8087957702 1.8405290294 1.8722622885 1.9039955476 1.9357288068 1.9674620659 
1.999195325 2.0309285841 2.0626618433 2.0943951024 2.1261283615 2.1578616206 2.1895948798 2.2213281389 2.253061398 
2.2847946572 2.3165279163 2.3482611754 2.3799944345 2.4117276937 2.4434609528 2.4751942119 2.506927471 2.5386607302 
2.5703939893 2.6021272484 2.6338605076 2.6655937667 2.6973270258 2.7290602849 2.7607935441 2.7925268032 2.8242600623 
2.8559933214 2.8877265806 2.9194598397 2.9511930988 2.982926358 3.0146596171 3.0463928762 3.0781261353 3.1098593945 
3.1415926536 
_radius 1 100 double
4.4845873215e-16 0.015387295401 0.030608738769 0.045509172714 0.05995781714 0.07385601395 0.08714040663 0.099781439866 0.11177779407 
0.12314789545 0.13391997544 0.14412235856 0.15377569782 0.1628885392 0.17145671432 0.17946587401 0.18689563245 0.19372379901 
0.19992993528 0.20549841144 0.21042163749 0.2147039288 0.2183657112 0.22144698474 0.22400863531 0.22613047034 0.22790558528 
0.22943153197 0.23079949909 0.23208317188 0.23332904613 0.23454973007 0.23572124909 0.23678470531 0.23765200304 0.23821488116 
0.23835626607 0.23796292799 0.23693845941 0.23521558188 0.2327667132 0.22961167991 0.22582154938 0.22151782566 0.21686666563 
0.21206825935 0.20734204079 0.20290895354 0.19897258046 0.19570143404 0.19321482879 0.19157424351 0.19078093726 0.19077926035 
0.19146424707 0.19269204422 0.19429230651 0.19608226508 0.19788217505 0.19953118045 0.20090178798 0.20191077492 0.20252474878 
0.2027594933 0.20267325841 0.20235501724 0.20190936405 0.20144017412 0.20103533549 0.20075468915 0.20062271365 0.20062650918 
0.20071847599 0.20082211988 0.20083908579 0.20065599806 0.20015067066 0.19919810818 0.19767694298 0.19547651011 0.19250404236 
0.18869093528 0.18399692188 0.17841127702 0.1719506858 0.16465400319 0.15657468977 0.14777214772 0.13830343762 0.12821686945 
0.11754868729 0.10632349802 0.094558310109 0.082269233225 0.069479287928 0.056225575061 0.042564292398 0.028572639381 0.014347323489 
1.054178003e-15 
_area 1 100 double
0 0.00056064763325 0.002215668319 0.0048895944694 0.0084726690872 0.012839825695 0.01786923798 0.023456119976 0.029519221396 
0.035999129833 0.04284895664 0.050020169646 0.057449121459 0.065050511179 0.072720669792 0.080348561737 0.087829346857 0.09507505873 
0.10201851475 0.10860953656 0.11480669249 0.12057131833 0.12587002296 0.13068560537 0.13502861007 0.13893985249 0.14248039268 
0.14571472922 0.14869754898 0.15146970575 0.15405996885 0.15648486177 0.15874213509 0.16079931069 0.16258278984 0.16397396865 
0.16481698551 0.16493877202 0.16417738621 0.16241145444 0.15958348427 0.15571249813 0.15089527876 0.14529868164 0.13914661549 
0.13270426691 0.12626020086 0.12010582826 0.11451215444 0.10970544447 0.10584656487 0.10302162336 0.10124649922 0.10047300794 
0.10057823101 0.10134895647 0.1025011439 0.10372643883 0.10473714036 0.10530748269 0.10530474999 0.10469909552 0.10354933658 
0.10197247939 0.10011009225 0.098102384463 0.096073886091 0.094128314165 0.092348456794 0.090800081358 0.089541053341 0.088632354645 
0.088142096444 0.088132302644 0.088620563148 0.08952842137 0.090661688065 0.091745610376 0.092479632855 0.092580846438 0.091814756963 
0.090017477288 0.087109014589 0.083095956688 0.078063582906 0.072159747345 0.065574385954 0.058518805987 0.051208147573 0.043848905445 
0.036631681491 0.029727994385 0.023289437384 0.017447812951 0.012315667534 0.007987186958 0.004539288126 0.002032376344 0.00051034956348 
2.0816681712e-17 
