# vtk DataFile Version 5.1
vtk output
ASCII
DATASET POLYDATA
POINTS 100 float
0.0921055 0.0485936 0.713154 0.0918791 0.0486728 0.712853 0.0912212 0.0487493 0.711775 
0.0901746 0.0488131 0.709935 0.088806 0.0488512 0.707359 0.0871987 0.0488501 0.704078 
0.0854448 0.0487992 0.700123 0.0836354 0.0486941 0.695523 0.0818517 0.0485393 0.690297 
0.0801572 0.0483489 0.684456 0.0785915 0.0481466 0.677999 0.0771663 0.0479638 0.670918 
0.0758645 0.0478354 0.663198 0.0746423 0.0477958 0.654823 0.0734332 0.0478731 0.645784 
0.0721547 0.0480843 0.636079 0.0707156 0.0484311 0.625722 0.069025 0.0488966 0.614744 
0.0669998 0.0494452 0.603189 0.0645719 0.0500236 0.59112 0.0616933 0.0505645 0.578609 
0.0583396 0.0509921 0.565732 0.0545106 0.0512287 0.552565 0.0502286 0.0512025 0.539173 
0.0455352 0.0508546 0.525611 0.0404859 0.0501452 0.511914 0.0351437 0.0490583 0.498101 
0.0295727 0.0476044 0.48417 0.0238312 0.0458208 0.470108 0.017967 0.0437694 0.455889 
0.0120122 0.0415325 0.441488 0.00598187 0.0392078 0.426878 -0.000126993 0.0369013 0.41204 
-0.00633361 0.0347209 0.396965 -0.01267 0.0327705 0.381655 -0.0191759 0.0311436 0.36612 
-0.0258929 0.02992 0.350371 -0.0328573 0.0291627 0.334422 -0.0400938 0.0289162 0.318273 
-0.047609 0.0292067 0.301912 -0.0553863 0.0300422 0.285305 -0.0633827 0.0314139 0.268397 
-0.0715268 0.0332977 0.25111 -0.0797196 0.0356551 0.233348 -0.0878374 0.0384346 0.215007 
-0.0957368 0.0415733 0.19598 -0.103262 0.0449975 0.176174 -0.110252 0.0486247 0.155517 
-0.116551 0.0523653 0.133971 -0.12202 0.0561259 0.111538 -0.126541 0.059812 0.0882664 
-0.130028 0.063333 0.0642467 -0.132433 0.0666065 0.0396096 -0.133748 0.0695635 0.0145159 
-0.134006 0.0721522 -0.0108554 -0.133275 0.0743424 -0.0363207 -0.131658 0.0761265 -0.0617056 
-0.129279 0.0775201 -0.086857 -0.126278 0.0785597 -0.111653 -0.122794 0.0792981 -0.136009 
-0.118959 0.0797987 -0.159876 -0.114882 0.0801275 -0.183243 -0.110648 0.080345 -0.206124 
-0.106306 0.0804988 -0.228552 -0.101873 0.0806168 -0.250568 -0.0973313 0.0807028 -0.272208 
-0.0926359 0.0807348 -0.293497 -0.0877235 0.0806664 -0.314438 -0.0825227 0.0804312 -0.335016 
-0.0769658 0.0799499 -0.355192 -0.0710006 0.0791394 -0.374913 -0.0646008 0.0779224 -0.394115 
-0.0577738 0.0762373 -0.412733 -0.0505648 0.0740471 -0.430712 -0.0430572 0.071345 -0.448009 
-0.0353689 0.0681575 -0.464605 -0.0276451 0.0645444 -0.480501 -0.0200468 0.0605947 -0.495718 
-0.0127391 0.0564195 -0.510293 -0.00587792 0.0521435 -0.524273 0.000403071 0.0478938 -0.537702 
0.00600226 0.0437899 -0.550615 0.0108577 0.0399345 -0.563031 0.0149505 0.0364062 -0.574943 
0.018304 0.0332547 -0.586322 0.0209792 0.0305004 -0.597117 0.0230666 0.0281359 -0.607257 
0.0246755 0.0261311 -0.616662 0.0259221 0.0244399 -0.625253 0.0269179 0.0230078 -0.632964 
0.0277598 0.0217802 -0.639744 0.0285216 0.0207089 -0.645575 0.0292501 0.019757 -0.650464 
0.029964 0.0189021 -0.654453 0.0306566 0.0181362 -0.657606 0.0313015 0.0174637 -0.660008 
0.03186 0.0168977 -0.661748 0.0322904 0.0164552 -0.662912 0.0325557 0.0161523 -0.663573 
0.0326311 0.016 -0.663776 
LINES 2 100
OFFSETS vtktypeint64
0 100 
CONNECTIVITY vtktypeint64
0 1 2 3 4 5 6 7 8 
9 10 11 12 13 14 15 16 17 
18 19 20 21 22 23 24 25 26 
27 28 29 30 31 32 33 34 35 
36 37 38 39 40 41 42 43 44 
45 46 47 48 49 50 51 52 53 
54 55 56 57 58 59 60 61 62 
63 64 65 66 67 68 69 70 71 
72 73 74 75 76 77 78 79 80 
81 82 83 84 85 86 87 88 89 
90 91 92 93 94 95 96 97 98 
99 
POINT_DATA 100
FIELD FieldData 3
_theta 1 100 double
0 0.031733259127 0.063466518254 0.095199777382 0.12693303651 0.15866629564 0.19039955476 0.22213281389 0.25386607302 
0.28559933214 0.31733259127 0.3490658504 0.38079910953 0.41253236865 0.44426562778 0.47599888691 0.50773214603 0.53946540516 
0.57119866429 0.60293192342 0.63466518254 0.66639844167 0.6981317008 0.72986495992 0.76159821905 0.79333147818 0.82506473731 
0.85679799643 0.88853125556 0.92026451469 0.95199777382 0.98373103294 1.0154642921 1.0471975512 1.0789308103 1.1106640695 
1.1423973286 1.1741305877 1.2058638468 1.237597106 1.2693303651 1.3010636242 1.3327968833 1.3645301425 1.3962634016 
1.4279966607 1.4597299198 1.491463179 1.5231964381 1.5549296972 1.5866629564 1.6183962155 1.6501294746 1.6818627337 
1.7135959929 1.745329252 1.7770625111 1.8087957702 1.8405290294 1.8722622885 1.9039955476 1.9357288068 1.9674620659 
1.999195325 2.0309285841 2.0626618433 2.0943951024 2.1261283615 2.1578616206 2.1895948798 2.2213281389 2.253061398 
2.2847946572 2.3165279163 2.3482611754 2.3799944345 2.4117276937 2.4434609528 2.4751942119 2.506927471 2.5386607302 
2.5703939893 2.6021272484 2.6338605076 2.6655937667 2.6973270258 2.7290602849 2.7607935441 2.7925268032 2.8242600623 
2.8559933214 2.8877265806 2.9194598397 2.9511930988 2.982926358 3.0146596171 3.0463928762 3.0781261353 3.1098593945 
3.1415926536 
_radius 1 100 double
1.2291247279e-15 0.012851758637 0.025670146293 0.038410325415 0.051020532024 0.063441975299 0.075611076801 0.087463435964 0.098938394258 
0.10998290108 0.12055361565 0.1306167935 0.14014637601 0.14912152825 0.15752522956 0.16534510238 0.17257657301 0.17922723337 
0.185320537 0.19089701857 0.19601196734 0.20072957225 0.20511461606 0.20922352847 0.21309681883 0.21675452283 0.22019540898 
0.22339959601 0.22633336231 0.22895461924 0.23121780656 0.23307759303 0.23449139088 0.23542108683 0.23583449606 0.23570692437 
0.23502299715 0.23377869333 0.23198337032 0.22966148988 0.22685372415 0.2236171122 0.22002396674 0.21615935817 0.21211727796 
0.20799596133 0.20389316473 0.19990224711 0.19610962477 0.19259368421 0.18942474057 0.18666524344 0.18436920562 0.18257984294 
0.18132481124 0.18060933543 0.18040886064 0.18066411506 0.18128174266 0.18214222029 0.18311401035 0.18407041862 0.18490491051 
0.18554177282 0.18594091401 0.18609718104 0.18603538787 0.18580240735 0.1854575182 0.18506205595 0.18466945895 0.18431694249 
0.18401998898 0.18377033267 0.18353715183 0.18327017555 0.18290296821 0.18235510068 0.18153301298 0.18033048425 0.17863019217 
0.17630767884 0.17323830675 0.16930681179 0.16441817114 0.15850793522 0.15155002849 0.1435603141 0.13459490068 0.12474315713 
0.11411652628 0.10283523957 0.091015633031 0.078760696671 0.066155656807 0.053268953178 0.040157359941 0.026872802984 0.013468146101 
8.0078248916e-16 
_area 1 100 double
0 0.00051468315178 0.00204383087 0.0045434999956 0.0079430237276 0.012149027301 0.017051432386 0.022531668951 0.028472667494 
0.034768935375 0.04133364445 0.048099098255 0.055008260698 0.061999085009 0.068989201339 0.07587124309 0.082524229446 0.088837391606 
0.094736892801 0.10020516272 0.10528529995 0.11006806449 0.11466554787 0.11918112841 0.12368636768 0.1282112804 0.13274762231 
0.13725899998 0.14168964374 0.14596717414 0.15000109461 0.15368201479 0.15688449981 0.1594733071 0.16131219979 0.16227523586 
0.16226025627 0.16120315953 0.15909049584 0.15596753664 0.15193925207 0.14716259991 0.14183042622 0.13614975314 0.13031911213 
0.12450996329 0.11885605578 0.11345191502 0.10835817838 0.1036094125 0.099221083286 0.095195240813 0.091526611 0.088211735279 
0.085262630728 0.082719685467 0.080651170201 0.079131130552 0.078201409067 0.077834072866 0.077913081578 0.078249755324 0.078630758508 
0.078872003513 0.078849922358 0.078509673992 0.077864457092 0.076989775048 0.076007637536 0.075059608104 0.074275523083 0.073748479402 
0.07352413967 0.073605169991 0.073965342618 0.074565264331 0.075359721731 0.076289326913 0.077258881107 0.078115033352 0.07864083981 
0.0785781267 0.077671126444 0.075713449047 0.072584034873 0.068266749561 0.062853780775 0.056534805601 0.049574603348 0.042282706698 
0.034979698391 0.027965221966 0.021492271825 0.015750981669 0.010863386695 0.0068888445134 0.0038380349714 0.001691848058 0.00042064582422 
2.2051813104e-17 
