# vtk DataFile Version 5.1
vtk output
ASCII
DATASET POLYDATA
POINTS 100 float
0.154434 0.026801 0.636923 0.154224 0.0269707 0.636627 0.153661 0.0273283 0.635641 
0.152743 0.0278707 0.63396 0.151466 0.028593 0.631574 0.14983 0.0294873 0.628477 
0.147838 0.0305415 0.624662 0.1455 0.031738 0.620131 0.142835 0.0330532 0.614891 
0.139871 0.0344572 0.60896 0.136646 0.0359152 0.602367 0.133203 0.0373887 0.595151 
0.129592 0.0388388 0.587357 0.125861 0.0402287 0.579037 0.122054 0.0415271 0.570246 
0.118204 0.0427118 0.561039 0.114327 0.043771 0.551464 0.110426 0.0447055 0.541565 
0.10648 0.0455277 0.531379 0.102451 0.0462602 0.520934 0.0982826 0.0469327 0.510251 
0.0939082 0.0475774 0.499345 0.0892552 0.0482244 0.488228 0.0842527 0.048896 0.47691 
0.0788394 0.0496027 0.465405 0.0729705 0.0503395 0.453727 0.0666234 0.0510844 0.441896 
0.0598004 0.0517989 0.429934 0.0525302 0.0524309 0.417865 0.0448649 0.05292 0.405712 
0.0368759 0.0532035 0.393498 0.0286459 0.0532251 0.381235 0.0202611 0.0529427 0.368926 
0.0118021 0.0523357 0.356564 0.00333527 0.0514113 0.344123 -0.00509299 0.0502073 0.331567 
-0.0134604 0.0487931 0.318843 -0.0217689 0.0472662 0.305885 -0.0300412 0.0457462 0.292618 
-0.0383137 0.0443654 0.278961 -0.0466271 0.043258 0.264831 -0.0550139 0.0425479 0.250147 
-0.0634867 0.0423363 0.234832 -0.0720261 0.0426921 0.218819 -0.080572 0.0436436 0.202051 
-0.0890178 0.0451748 0.184488 -0.0972095 0.0472254 0.1661 -0.104951 0.0496955 0.146878 
-0.112011 0.0524538 0.126827 -0.118142 0.0553501 0.105973 -0.123094 0.0582285 0.0843577 
-0.126635 0.0609425 0.0620456 -0.128573 0.0633688 0.039119 -0.12877 0.0654183 0.0156803 
-0.12716 0.0670444 -0.00814982 -0.123758 0.0682458 -0.0322347 -0.118657 0.0690654 -0.0564249 
-0.112029 0.0695831 -0.0805636 -0.104114 0.0699054 -0.104492 -0.0951988 0.0701511 -0.128058 
-0.0855987 0.0704362 -0.151122 -0.0756336 0.0708576 -0.173565 -0.0656034 0.0714798 -0.195295 
-0.0557662 0.0723244 -0.216253 -0.0463201 0.0733635 -0.236415 -0.0373912 0.0745195 -0.255791 
-0.0290272 0.0756694 -0.274422 -0.0211991 0.0766548 -0.292377 -0.0138092 0.0772955 -0.309741 
-0.00670485 0.0774061 -0.326608 0.000303246 0.0768136 -0.343067 0.00742068 0.075374 -0.359196 
0.0148484 0.0729865 -0.375048 0.0227632 0.0696036 -0.390651 0.0313024 0.0652369 -0.405997 
0.040552 0.0599559 -0.421051 0.0505415 0.0538832 -0.435746 0.0612435 0.0471837 -0.449998 
0.072579 0.040051 -0.463709 0.0844262 0.0326911 -0.476782 0.0966332 0.0253068 -0.489129 
0.109031 0.018082 -0.50068 0.121447 0.0111702 -0.511394 0.133718 0.00468595 -0.521258 
0.145695 -0.00129895 -0.530291 0.157255 -0.00675431 -0.538537 0.168298 -0.0116866 -0.546063 
0.17875 -0.0161304 -0.552947 0.188557 -0.0201379 -0.559268 0.197678 -0.0237679 -0.565096 
0.206083 -0.0270748 -0.570487 0.213746 -0.0301003 -0.57547 0.220637 -0.0328677 -0.580049 
0.226724 -0.0353796 -0.584201 0.231971 -0.0376187 -0.58788 0.236336 -0.0395522 -0.591025 
0.239779 -0.0411378 -0.593567 0.242262 -0.0423316 -0.595439 0.243756 -0.0430955 -0.596585 
0.24424 -0.0434031 -0.596969 
LINES 2 100
OFFSETS vtktypeint64
0 100 
CONNECTIVITY vtktypeint64
0 1 2 3 4 5 6 7 8 
9 10 11 12 13 14 15 16 17 
18 19 20 21 22 23 24 25 26 
27 28 29 30 31 32 33 34 35 
36 37 38 39 40 41 42 43 44 
45 46 47 48 49 50 51 52 53 
54 55 56 57 58 59 60 61 62 
63 64 65 66 67 68 69 70 71 
72 73 74 75 76 77 78 79 80 
81 82 83 84 85 86 87 88 89 
90 91 92 93 94 95 96 97 98 
99 
POINT_DATA 100
FIELD FieldData 3
_theta 1 100 double
0 0.031733259127 0.063466518254 0.095199777382 0.12693303651 0.15866629564 0.19039955476 0.22213281389 0.25386607302 
0.28559933214 0.31733259127 0.3490658504 0.38079910953 0.41253236865 0.44426562778 0.47599888691 0.50773214603 0.53946540516 
0.57119866429 0.60293192342 0.63466518254 0.66639844167 0.6981317008 0.72986495992 0.76159821905 0.79333147818 0.82506473731 
0.85679799643 0.88853125556 0.92026451469 0.95199777382 0.98373103294 1.0154642921 1.0471975512 1.0789308103 1.1106640695 
1.1423973286 1.1741305877 1.2058638468 1.237597106 1.2693303651 1.3010636242 1.3327968833 1.3645301425 1.3962634016 
1.4279966607 1.4597299198 1.491463179 1.5231964381 1.5549296972 1.5866629564 1.6183962155 1.6501294746 1.6818627337 
1.7135959929 1.745329252 1.7770625111 1.8087957702 1.8405290294 1.8722622885 1.9039955476 1.9357288068 1.9674620659 
1.999195325 2.0309285841 2.0626618433 2.0943951024 2.1261283615 2.1578616206 2.1895948798 2.2213281389 2.253061398 
2.2847946572 2.3165279163 2.3482611754 2.3799944345 2.4117276937 2.4434609528 2.4751942119 2.506927471 2.5386607302 
2.5703939893 2.6021272484 2.6338605076 2.6655937667 2.6973270258 2.7290602849 2.7607935441 2.7925268032 2.8242600623 
2.8559933214 2.8877265806 2.9194598397 2.9511930988 2.982926358 3.0146596171 3.0463928762 3.0781261353 3.1098593945 
3.1415926536 
_radius 1 100 double
1.0135774172e-15 0.01235646812 0.024639993953 0.036779399586 0.048712074911 0.060386539743 0.071763167252 0.082813077624 0.09351570969 
0.10385596518 0.11382185145 0.12340312433 0.13259076217 0.14137661524 0.14975259177 0.15770921512 0.16523395845 0.17231005325 
0.17891633264 0.18502826769 0.19061998961 0.19566697429 0.20014917102 0.20405448121 0.20738244472 0.21014775076 0.21238292393 
0.21413945826 0.21548687142 0.21650948927 0.21730098533 0.21795665449 0.21856330197 0.219186932 0.21985942286 0.22056682412 
0.2212429383 0.22177137777 0.22199701819 0.22174492294 0.22084316167 0.21914599778 0.21655480595 0.21303489068 0.20862683538 
0.2034512431 0.19770591237 0.19165474609 0.18560810178 0.17989493188 0.17482805767 0.17066566147 0.16757543429 0.16561241221 
0.1647216468 0.16476546965 0.1655600067 0.16690390122 0.16859357319 0.17042967715 0.17222185397 0.17379562916 0.17500102111 
0.17572037078 0.17587340124 0.1754189823 0.17435430861 0.17271281345 0.1705617596 0.16799908404 0.16514799335 0.16214823557 
0.15914434897 0.15627218881 0.15364539523 0.15134371008 0.1494052087 0.14782401712 0.14655368369 0.1455146416 0.14460310592 
0.14369886271 0.14267055932 0.14137862399 0.13967710935 0.1374161179 0.13444597637 0.13062330644 0.12581815879 0.11992095949 
0.11284832087 0.10454748908 0.094999825479 0.08422388735 0.072278339825 0.059264316982 0.0453262889 0.030650269751 0.01545845085 
9.6156759599e-16 
_area 1 100 double
0 0.0004300531144 0.0017056796013 0.0037850955102 0.0066044518498 0.010085475656 0.014143822049 0.018695899772 0.023662478398 
0.028969062952 0.034544760382 0.040321655862 0.046235383369 0.052226279773 0.058240570039 0.064231375448 0.070158539698 0.075985490028 
0.081672714265 0.087170674399 0.092417324753 0.097344242853 0.10189052468 0.10601657427 0.10970537505 0.1129496622 0.11574640662 
0.11811184941 0.12009505188 0.12176698809 0.12319665315 0.12444344831 0.1255707113 0.12666067159 0.12781524756 0.12913427413 
0.13066939125 0.13236848398 0.13404181034 0.1353772784 0.13600623527 0.13559052391 0.13389427807 0.13082200081 0.12642429065 
0.12088255355 0.1144859401 0.10761019237 0.10070083185 0.094254799084 0.088783059662 0.084698832259 0.082065019474 0.080485519961 
0.079448436677 0.078607575038 0.077801768601 0.077002905379 0.076274798452 0.075729609612 0.07546486601 0.075431325433 0.075365252948 
0.075316200273 0.074948050532 0.074344403944 0.073484319126 0.07232703019 0.071002502726 0.0694165684 0.067399463312 0.064992762912 
0.062356300944 0.059705936254 0.05723603845 0.055080734892 0.053317103333 0.051972158072 0.050992249879 0.050308946327 0.049857796184 
0.049502829147 0.049073998047 0.048400298245 0.047362697887 0.045880722477 0.043886863336 0.041326144795 0.038174978537 0.034459206814 
0.030260946099 0.025715004454 0.020998221203 0.016314725358 0.011879838018 0.0079048419035 0.0045837765236 0.0020822177061 0.00052745441084 
7.5466292064e-17 
