# vtk DataFile Version 5.1
vtk output
ASCII
DATASET POLYDATA
POINTS 100 float
0.0596982 0.055031 0.671765 0.0598827 0.0552272 0.671428 0.060466 0.0556658 0.670284 
0.0613905 0.0563107 0.668364 0.0625671 0.0571061 0.665711 0.0638858 0.0579832 0.66238 
0.0652271 0.0588674 0.658425 0.066475 0.0596865 0.653894 0.067528 0.0603786 0.648821 
0.0683073 0.0608977 0.643222 0.0687625 0.0612186 0.637098 0.0688714 0.0613376 0.630431 
0.0686369 0.0612722 0.623193 0.0680798 0.0610564 0.615354 0.0672296 0.0607358 0.606889 
0.0661145 0.06036 0.597788 0.0647521 0.0599752 0.588059 0.0631425 0.0596177 0.577737 
0.0612649 0.0593076 0.566879 0.0590784 0.0590464 0.555566 0.0565268 0.058815 0.543891 
0.0535473 0.0585762 0.531952 0.0500806 0.0582784 0.519845 0.0460831 0.0578616 0.507645 
0.0415372 0.057265 0.495408 0.0364589 0.0564337 0.483155 0.0309022 0.0553267 0.470877 
0.024958 0.0539217 0.458536 0.0187474 0.0522194 0.446067 0.0124117 0.0502442 0.433391 
0.00609743 0.048044 0.420426 -5.89836e-05 0.0456859 0.407094 -0.00594745 0.0432515 0.393334 
-0.0114974 0.0408309 0.379108 -0.0166872 0.0385152 0.364403 -0.0215473 0.0363906 0.349231 
-0.0261577 0.034533 0.333623 -0.0306389 0.0330034 0.31762 -0.0351363 0.0318467 0.301266 
-0.0398024 0.0310907 0.284594 -0.0447752 0.0307474 0.267617 -0.0501584 0.0308162 0.250326 
-0.0560037 0.0312866 0.232682 -0.0622985 0.0321421 0.214624 -0.0689601 0.033363 0.196073 
-0.0758375 0.0349291 0.17694 -0.08272 0.0368204 0.157144 -0.0893532 0.0390173 0.136622 
-0.0954597 0.0414991 0.115342 -0.100763 0.0442422 0.0933101 -0.105009 0.0472174 0.0705748 
-0.107991 0.0503876 0.047228 -0.109564 0.0537059 0.0233973 -0.109657 0.0571152 -0.000764907 
-0.108274 0.0605483 -0.025095 -0.105494 0.0639303 -0.0494333 -0.101455 0.0671818 -0.073639 
-0.096342 0.0702231 -0.0976018 -0.0903658 0.0729793 -0.12125 -0.083741 0.0753854 -0.144551 
-0.076667 0.07739 -0.16751 -0.0693113 0.0789593 -0.190161 -0.0617975 0.0800781 -0.212555 
-0.0542 0.0807495 -0.234742 -0.0465441 0.0809935 -0.256762 -0.0388129 0.0808424 -0.278627 
-0.0309587 0.0803361 -0.300319 -0.0229172 0.0795165 -0.321781 -0.0146244 0.0784214 -0.342922 
-0.00603096 0.0770798 -0.363627 0.00288377 0.0755078 -0.383768 0.0121032 0.0737067 -0.403217 
0.0215689 0.0716632 -0.421865 0.0311815 0.0693518 -0.439632 0.0408067 0.0667389 -0.456481 
0.0502852 0.0637887 -0.472414 0.0594455 0.0604698 -0.48748 0.0681188 0.0567622 -0.501756 
0.0761529 0.0526634 -0.515342 0.083425 0.0481933 -0.528338 0.0898512 0.0433969 -0.54083 
0.0953923 0.0383446 -0.552872 0.100055 0.0331301 -0.564475 0.103891 0.0278658 -0.575601 
0.106985 0.0226754 -0.586162 0.109452 0.017686 -0.596032 0.11142 0.013019 -0.605062 
0.113021 0.00878062 -0.613096 0.114378 0.00505453 -0.619997 0.115595 0.00189533 -0.625666 
0.116752 -0.000674991 -0.63006 0.117896 -0.00266793 -0.633205 0.119044 -0.0041263 -0.635199 
0.120186 -0.00511931 -0.636205 0.121287 -0.00573523 -0.63644 0.122296 -0.00607232 -0.636152 
0.123158 -0.00622904 -0.635598 0.123814 -0.00629412 -0.635012 0.12422 -0.00633788 -0.634583 
0.124345 -0.00640515 -0.634433 
LINES 2 100
OFFSETS vtktypeint64
0 100 
CONNECTIVITY vtktypeint64
0 1 2 3 4 5 6 7 8 
9 10 11 12 13 14 15 16 17 
18 19 20 21 22 23 24 25 26 
27 28 29 30 31 32 33 34 35 
36 37 38 39 40 41 42 43 44 
45 46 47 48 49 50 51 52 53 
54 55 56 57 58 59 60 61 62 
63 64 65 66 67 68 69 70 71 
72 73 74 75 76 77 78 79 80 
81 82 83 84 85 86 87 88 89 
90 91 92 93 94 95 96 97 98 
99 
POINT_DATA 100
FIELD FieldData 3
_theta 1 100 double
0 0.031733259127 0.063466518254 0.095199777382 0.12693303651 0.15866629564 0.19039955476 0.22213281389 0.25386607302 
0.28559933214 0.31733259127 0.3490658504 0.38079910953 0.41253236865 0.44426562778 0.47599888691 0.50773214603 0.53946540516 
0.57119866429 0.60293192342 0.63466518254 0.66639844167 0.6981317008 0.72986495992 0.76159821905 0.79333147818 0.82506473731 
0.85679799643 0.88853125556 0.92026451469 0.95199777382 0.98373103294 1.0154642921 1.0471975512 1.0789308103 1.1106640695 
1.1423973286 1.1741305877 1.2058638468 1.237597106 1.2693303651 1.3010636242 1.3327968833 1.3645301425 1.3962634016 
1.4279966607 1.4597299198 1.491463179 1.5231964381 1.5549296972 1.5866629564 1.6183962155 1.6501294746 1.6818627337 
1.7135959929 1.745329252 1.7770625111 1.8087957702 1.8405290294 1.8722622885 1.9039955476 1.9357288068 1.9674620659 
1.999195325 2.0309285841 2.0626618433 2.0943951024 2.1261283615 2.1578616206 2.1895948798 2.2213281389 2.253061398 
2.2847946572 2.3165279163 2.3482611754 2.3799944345 2.4117276937 2.4434609528 2.4751942119 2.506927471 2.5386607302 
2.5703939893 2.6021272484 2.6338605076 2.6655937667 2.6973270258 2.7290602849 2.7607935441 2.7925268032 2.8242600623 
2.8559933214 2.8877265806 2.9194598397 2.9511930988 2.982926358 3.0146596171 3.0463928762 3.0781261353 3.1098593945 
3.1415926536 
_radius 1 100 double
1.7790246839e-15 0.013940520092 0.027833897438 0.041623274637 0.055243851362 0.068622191547 0.08167834036 0.094330593282 0.10650214599 
0.11812840089 0.12916352153 0.13958494772 0.14939496834 0.15861899296 0.16730073593 0.17549501527 0.1832592029 0.19064451964 
0.19768835741 0.20440865265 0.21080105934 0.21683931602 0.22247880603 0.22766290286 0.23233129674 0.23642915769 0.23991577732 
0.24277133141 0.24500066924 0.24663353851 0.24772127088 0.24833050203 0.24853484063 0.24840552117 0.24800207519 0.24736403675 
0.2465046805 0.24540774232 0.2440279793 0.2422962504 0.24012938042 0.23744423217 0.23417430506 0.23028631464 0.22579398393 
0.2207666482 0.21533095884 0.20966479571 0.20398350584 0.19851992915 0.19350124237 0.18912665331 0.18554933163 0.18286387026 
0.18109885644 0.18021403388 0.18010246918 0.18059903666 0.18149660118 0.18256969818 0.18360253038 0.1844157233 0.18488632584 
0.18495776522 0.18463932768 0.18399697808 0.18313843955 0.18219549274 0.18130586041 0.18059628259 0.18016769563 0.18008292564 
0.18035720319 0.18095225408 0.18177542622 0.18268544583 0.1835052541 0.18404030351 0.18409895299 0.18351114333 0.1821422807 
0.17990057149 0.17673743211 0.17264182214 0.16763030532 0.16173519593 0.15499319229 0.1474364571 0.13908735039 0.12995718309 
0.12004863424 0.10936099213 0.09789717009 0.085671423553 0.072716716103 0.059090689459 0.044879249293 0.030196992979 0.015184117887 
1.079068091e-15 
_area 1 100 double
0 0.0005181996951 0.0020663065692 0.0046230265849 0.0081475498336 0.012573963532 0.017807489355 0.023724955194 0.03018066485 
0.03701710271 0.044078436294 0.051224126159 0.058340236316 0.06534694395 0.072201799293 0.078899113315 0.085466228894 0.091957191371 
0.098443421125 0.10499989105 0.11168568662 0.11852163863 0.1254729976 0.1324452909 0.13929536058 0.14585385579 0.15195336018 
0.15745578683 0.16227273049 0.16637378531 0.1697800738 0.17254256981 0.17471038639 0.17630545892 0.17731889717 0.17772225159 
0.17747907555 0.17655291307 0.17491236822 0.1725317342 0.16938661758 0.16545980957 0.16078340665 0.1554678428 0.14951425174 
0.14290908715 0.13578545431 0.12838737692 0.12101742467 0.1139864681 0.1075623801 0.10192440334 0.097141429616 0.093195395858 
0.090046736214 0.087715081215 0.086190985414 0.085221876677 0.084539468513 0.083935014936 0.083232774166 0.082297358806 0.081046514325 
0.079458025146 0.07756881404 0.075467850307 0.073286189516 0.071184771963 0.0693394791 0.067927071297 0.067110348353 0.067013390158 
0.067692131638 0.069114094068 0.071151337805 0.073596094881 0.076193371841 0.078669486193 0.080751000849 0.082182936881 0.082751635081 
0.082307320116 0.0807771896 0.078164301559 0.074534349275 0.069996458482 0.064684768675 0.058745759204 0.052333007599 0.045607700873 
0.038741378393 0.031917439965 0.025329019728 0.019172235097 0.01363547889 0.0088871068697 0.005064933318 0.0022706562317 0.00057043483106 
6.1934523804e-18 
