# vtk DataFile Version 5.1
vtk output
ASCII
DATASET POLYDATA
POINTS 100 float
0.0828287 0.0599503 0.680826 0.0829044 0.0599684 0.680693 0.0831898 0.0598707 0.68012 
0.0836491 0.0596715 0.67907 0.0842261 0.059393 0.677487 0.0848509 0.0590622 0.6753 
0.0854459 0.0587081 0.672431 0.085934 0.0583577 0.6688 0.0862447 0.0580319 0.664335 
0.0863194 0.0577431 0.658977 0.0861152 0.0574918 0.652686 0.085605 0.0572656 0.645447 
0.0847768 0.057039 0.637269 0.0836301 0.0567747 0.628188 0.0821711 0.0564265 0.618266 
0.0804075 0.0559427 0.607585 0.0783438 0.055272 0.596244 0.0759771 0.054368 0.584349 
0.0732949 0.0531954 0.572013 0.0702755 0.0517349 0.559342 0.0668898 0.049987 0.546432 
0.0631047 0.047975 0.533364 0.0588888 0.0457451 0.520199 0.0542179 0.0433655 0.506974 
0.0490797 0.0409225 0.493705 0.0434782 0.0385156 0.480383 0.0374361 0.0362504 0.46698 
0.0309944 0.0342313 0.453452 0.0242105 0.0325534 0.439741 0.0171541 0.0312954 0.425781 
0.00990117 0.0305136 0.411502 0.00252817 0.030238 0.396836 -0.00489418 0.03047 0.381718 
-0.0123057 0.0311834 0.366092 -0.0196597 0.0323275 0.34991 -0.0269237 0.0338323 0.333134 
-0.0340774 0.0356152 0.315739 -0.0411087 0.0375892 0.297711 -0.0480082 0.0396702 0.279047 
-0.0547618 0.0417848 0.259752 -0.0613445 0.0438754 0.239844 -0.0677153 0.0459049 0.219348 
-0.0738132 0.0478575 0.198297 -0.0795565 0.0497382 0.176732 -0.0848457 0.0515698 0.1547 
-0.089568 0.0533881 0.132256 -0.0936054 0.0552356 0.109457 -0.0968441 0.0571557 0.0863653 
-0.0991843 0.0591858 0.0630454 -0.10055 0.0613527 0.0395615 -0.100895 0.0636682 0.0159762 
-0.100211 0.0661276 -0.00765136 -0.0985262 0.0687087 -0.0312672 -0.0959046 0.0713742 -0.0548239 
-0.0924403 0.0740737 -0.078281 -0.0882489 0.0767479 -0.101605 -0.083457 0.0793324 -0.12477 
-0.0781916 0.0817619 -0.147753 -0.0725684 0.0839731 -0.170534 -0.0666835 0.0859073 -0.193094 
-0.0606065 0.0875114 -0.215411 -0.0543776 0.0887385 -0.237459 -0.0480078 0.0895469 -0.259204 
-0.0414833 0.0898997 -0.280606 -0.0347719 0.0897637 -0.301618 -0.0278324 0.0891088 -0.322188 
-0.020624 0.0879083 -0.342261 -0.0131167 0.0861402 -0.361782 -0.00529907 0.0837892 -0.380699 
0.00281499 0.0808495 -0.398973 0.0111832 0.0773279 -0.416571 0.0197348 0.0732467 -0.433479 
0.0283728 0.0686461 -0.449696 0.0369805 0.0635854 -0.465238 0.0454283 0.0581424 -0.480133 
0.0535825 0.0524109 -0.494422 0.0613145 0.0464971 -0.508148 0.0685087 0.0405136 -0.521357 
0.0750694 0.0345725 -0.534085 0.0809259 0.0287786 -0.54636 0.0860346 0.0232226 -0.558193 
0.0903799 0.0179749 -0.569577 0.0939725 0.0130825 -0.580485 0.0968457 0.0085664 -0.590875 
0.0990517 0.00442338 -0.600689 0.100656 0.000628843 -0.609861 0.101734 -0.00285751 -0.618326 
0.102365 -0.00608466 -0.626021 0.102626 -0.00910259 -0.632899 0.102596 -0.0119547 -0.63893 
0.102347 -0.0146716 -0.64411 0.101945 -0.017266 -0.648455 0.101448 -0.0197312 -0.652012 
0.100911 -0.022041 -0.654844 0.100379 -0.0241528 -0.657032 0.0998897 -0.026013 -0.658665 
0.0994757 -0.0275633 -0.659833 0.0991617 -0.0287481 -0.660615 0.0989653 -0.0295214 -0.661074 
0.098897 -0.0298527 -0.661252 
LINES 2 100
OFFSETS vtktypeint64
0 100 
CONNECTIVITY vtktypeint64
0 1 2 3 4 5 6 7 8 
9 10 11 12 13 14 15 16 17 
18 19 20 21 22 23 24 25 26 
27 28 29 30 31 32 33 34 35 
36 37 38 39 40 41 42 43 44 
45 46 47 48 49 50 51 52 53 
54 55 56 57 58 59 60 61 62 
63 64 65 66 67 68 69 70 71 
72 73 74 75 76 77 78 79 80 
81 82 83 84 85 86 87 88 89 
90 91 92 93 94 95 96 97 98 
99 
POINT_DATA 100
FIELD FieldData 3
_theta 1 100 double
0 0.031733259127 0.063466518254 0.095199777382 0.12693303651 0.15866629564 0.19039955476 0.22213281389 0.25386607302 
0.28559933214 0.31733259127 0.3490658504 0.38079910953 0.41253236865 0.44426562778 0.47599888691 0.50773214603 0.53946540516 
0.57119866429 0.60293192342 0.63466518254 0.66639844167 0.6981317008 0.72986495992 0.76159821905 0.79333147818 0.82506473731 
0.85679799643 0.88853125556 0.92026451469 0.95199777382 0.98373103294 1.0154642921 1.0471975512 1.0789308103 1.1106640695 
1.1423973286 1.1741305877 1.2058638468 1.237597106 1.2693303651 1.3010636242 1.3327968833 1.3645301425 1.3962634016 
1.4279966607 1.4597299198 1.491463179 1.5231964381 1.5549296972 1.5866629564 1.6183962155 1.6501294746 1.6818627337 
1.7135959929 1.745329252 1.7770625111 1.8087957702 1.8405290294 1.8722622885 1.9039955476 1.9357288068 1.9674620659 
1.999195325 2.0309285841 2.0626618433 2.0943951024 2.1261283615 2.1578616206 2.1895948798 2.2213281389 2.253061398 
2.2847946572 2.3165279163 2.3482611754 2.3799944345 2.4117276937 2.4434609528 2.4751942119 2.506927471 2.5386607302 
2.5703939893 2.6021272484 2.6338605076 2.6655937667 2.6973270258 2.7290602849 2.7607935441 2.7925268032 2.8242600623 
2.8559933214 2.8877265806 2.9194598397 2.9511930988 2.982926358 3.0146596171 3.0463928762 3.0781261353 3.1098593945 
3.1415926536 
_radius 1 100 double
5.5667057408e-16 0.014140857428 0.028161648456 0.041943843634 0.055383302924 0.068395300275 0.080917057991 0.09290765278 0.10434558608 
0.1152246819 0.12554922541 0.13532932694 0.14457734829 0.15330587268 0.16152723666 0.16925423135 0.17650135915 0.18328604364 
0.18962937024 0.19555616642 0.2010943961 0.20627387801 0.2111242708 0.21567223023 0.21993780398 0.22393052254 0.22764605909 
0.23106443132 0.23415037058 0.23685591259 0.23912481289 0.24089819295 0.24212077821 0.24274707717 0.24274685748 0.24210936206 
0.24084590556 0.23899075843 0.23660046592 0.23375187018 0.23053907185 0.22706942707 0.22345853564 0.21982416321 0.21627924834 
0.21292457647 0.20984221738 0.20709114066 0.20470624184 0.20270121143 0.20107447949 0.19981636302 0.19891504302 0.1983593838 
0.19813781062 0.19823406164 0.19862195731 0.19926172394 0.20009962476 0.20107112319 0.20210639973 0.20313644172 0.20409819122 
0.20493796541 0.20561310476 0.20609230491 0.20635528662 0.20639237591 0.20620425088 0.20580165361 0.20520442965 0.20443906522 
0.20353412828 0.20251368764 0.20138961561 0.2001542607 0.19877504325 0.19719213539 0.19531977727 0.19305115702 0.19026624747 
0.1868415963 0.18266084408 0.17762471422 0.17165937135 0.16472234054 0.15680554836 0.1479354031 0.13817010367 0.12759453882 
0.11631325914 0.10444214946 0.092099616042 0.079398259636 0.066438014944 0.053301531098 0.040052187157 0.026734713216 0.013378061623 
1.1040061101e-15 
_area 1 100 double
0 0.0005630121396 0.0022242762403 0.0049045984373 0.0084848200118 0.01282216898 0.017768263773 0.023185420174 0.028958109363 
0.03499678143 0.041232789347 0.04760704929 0.054059307832 0.060524470641 0.066936968118 0.073239064543 0.079387927703 0.085358456853 
0.091142562084 0.096748836905 0.10220669436 0.1075743091 0.11294141021 0.11841156832 0.12405705932 0.12987015253 0.13575025834 
0.14153198986 0.14702649467 0.15205378178 0.15645883018 0.16011325708 0.16291042335 0.16476346663 0.16561015764 0.16542089176 
0.16420382346 0.16200461208 0.15890315545 0.15501215276 0.15047983254 0.14549262582 0.14026916864 0.13503978125 0.13001366757 
0.12534425476 0.12110612144 0.1172923521 0.1138332058 0.1106304402 0.10759566888 0.10468076041 0.10189536006 0.099310087742 
0.097041769756 0.095218580263 0.093936030161 0.093223943773 0.093028164183 0.093215187647 0.093608310214 0.094036106889 0.094367366819 
0.094526912737 0.094502698958 0.094360169165 0.094227093151 0.094034954008 0.093805133767 0.093564096373 0.093313643011 0.093086076777 
0.092924652634 0.092865032789 0.092920497099 0.093068107834 0.093238871187 0.09331564758 0.093141587616 0.092537967581 0.091326350312 
0.089350408886 0.086495010497 0.082701063377 0.077974584049 0.072388642354 0.06607756387 0.059223760171 0.052038708217 0.044741048404 
0.037536429849 0.030604642947 0.024097732989 0.018147137839 0.012872287614 0.0083838423199 0.0047808867779 0.0021457346187 0.0005395927334 
4.6417402202e-17 
