# vtk DataFile Version 5.1
vtk output
ASCII
DATASET POLYDATA
POINTS 100 float
0.0684645 0.0689746 0.645661 0.0685526 0.0690028 0.64555 0.0688812 0.0689216 0.645015 
0.0694041 0.0687351 0.644042 0.0700494 0.0684482 0.642608 0.0707284 0.0680659 0.64068 
0.0713457 0.0675918 0.638216 0.0718104 0.067027 0.63517 0.0720459 0.0663697 0.631489 
0.0719985 0.065615 0.627118 0.0716412 0.0647553 0.622007 0.0709755 0.0637821 0.616108 
0.0700281 0.0626877 0.609388 0.0688445 0.0614672 0.601829 0.0674808 0.0601208 0.59343 
0.0659928 0.0586561 0.584215 0.0644265 0.0570889 0.574227 0.0628093 0.0554437 0.563534 
0.0611445 0.0537531 0.552219 0.0594089 0.0520558 0.540381 0.0575544 0.0503937 0.528125 
0.0555138 0.0488084 0.515556 0.0532089 0.047337 0.502774 0.0505617 0.0460085 0.489862 
0.0475054 0.0448404 0.476888 0.0439944 0.0438367 0.463894 0.0400131 0.0429868 0.450902 
0.0355798 0.0422669 0.437907 0.030747 0.0416427 0.424887 0.025598 0.0410731 0.411802 
0.0202378 0.0405161 0.398603 0.0147824 0.0399348 0.385236 0.00934576 0.0393029 0.371644 
0.00402591 0.0386108 0.357778 -0.0011063 0.0378688 0.343595 -0.0060162 0.0371097 0.329059 
-0.0107097 0.0363885 0.314141 -0.0152327 0.0357794 0.298822 -0.0196653 0.0353714 0.283083 
-0.0241114 0.0352612 0.266908 -0.0286841 0.0355446 0.25028 -0.0334901 0.0363084 0.233182 
-0.0386123 0.0376211 0.215593 -0.0440954 0.0395254 0.197493 -0.0499337 0.0420328 0.178864 
-0.0560642 0.0451199 0.159693 -0.0623658 0.0487282 0.139975 -0.0686639 0.0527662 0.119718 
-0.0747406 0.0571146 0.0989435 -0.0803507 0.0616341 0.0776881 -0.0852393 0.066174 0.0560014 
-0.0891622 0.0705822 0.0339443 -0.0919051 0.0747153 0.0115845 -0.0932998 0.0784469 -0.0110085 
-0.0932373 0.0816751 -0.0337687 -0.0916742 0.084327 -0.0566378 -0.0886344 0.0863607 -0.079569 
-0.0842039 0.087765 -0.102528 -0.078521 0.0885555 -0.125493 -0.0717614 0.0887696 -0.148451 
-0.0641223 0.0884592 -0.17139 -0.055804 0.0876832 -0.1943 -0.0469941 0.0864995 -0.217158 
-0.0378534 0.0849581 -0.239928 -0.0285064 0.083096 -0.262551 -0.0190363 0.0809334 -0.284949 
-0.00948492 0.0784722 -0.307021 0.000142194 0.075698 -0.328651 0.0098673 0.0725821 -0.349711 
0.019729 0.0690874 -0.370074 0.0297695 0.0651735 -0.389622 0.0400224 0.0608041 -0.408256 
0.0505018 0.0559525 -0.425906 0.0611948 0.0506079 -0.442536 0.0720569 0.0447791 -0.458147 
0.0830122 0.0384974 -0.472774 0.0939568 0.0318167 -0.486481 0.104766 0.0248127 -0.499352 
0.115303 0.0175793 -0.511478 0.125432 0.0102243 -0.522947 0.135025 0.00286343 -0.533825 
0.143975 -0.00438535 -0.544157 0.152201 -0.0114084 -0.553949 0.159655 -0.0181019 -0.563175 
0.166322 -0.0243766 -0.571775 0.172217 -0.0301617 -0.579667 0.177383 -0.0354066 -0.586754 
0.181882 -0.0400822 -0.592944 0.185788 -0.0441799 -0.598159 0.18918 -0.0477097 -0.602356 
0.192131 -0.0506983 -0.605532 0.194704 -0.0531844 -0.607733 0.196946 -0.0552159 -0.609055 
0.198891 -0.0568456 -0.609639 0.200552 -0.0581272 -0.609658 0.201933 -0.0591122 -0.609308 
0.203024 -0.0598464 -0.608781 0.203813 -0.0603679 -0.608253 0.204285 -0.0607049 -0.607867 
0.204431 -0.0608744 -0.607711 
LINES 2 100
OFFSETS vtktypeint64
0 100 
CONNECTIVITY vtktypeint64
0 1 2 3 4 5 6 7 8 
9 10 11 12 13 14 15 16 17 
18 19 20 21 22 23 24 25 26 
27 28 29 30 31 32 33 34 35 
36 37 38 39 40 41 42 43 44 
45 46 47 48 49 50 51 52 53 
54 55 56 57 58 59 60 61 62 
63 64 65 66 67 68 69 70 71 
72 73 74 75 76 77 78 79 80 
81 82 83 84 85 86 87 88 89 
90 91 92 93 94 95 96 97 98 
99 
POINT_DATA 100
FIELD FieldData 3
_theta 1 100 double
0 0.031733259127 0.063466518254 0.095199777382 0.12693303651 0.15866629564 0.19039955476 0.22213281389 0.25386607302 
0.28559933214 0.31733259127 0.3490658504 0.38079910953 0.41253236865 0.44426562778 0.47599888691 0.50773214603 0.53946540516 
0.57119866429 0.60293192342 0.63466518254 0.66639844167 0.6981317008 0.72986495992 0.76159821905 0.79333147818 0.82506473731 
0.85679799643 0.88853125556 0.92026451469 0.95199777382 0.98373103294 1.0154642921 1.0471975512 1.0789308103 1.1106640695 
1.1423973286 1.1741305877 1.2058638468 1.237597106 1.2693303651 1.3010636242 1.3327968833 1.3645301425 1.3962634016 
1.4279966607 1.4597299198 1.491463179 1.5231964381 1.5549296972 1.5866629564 1.6183962155 1.6501294746 1.6818627337 
1.7135959929 1.745329252 1.7770625111 1.8087957702 1.8405290294 1.8722622885 1.9039955476 1.9357288068 1.9674620659 
1.999195325 2.0309285841 2.0626618433 2.0943951024 2.1261283615 2.1578616206 2.1895948798 2.2213281389 2.253061398 
2.2847946572 2.3165279163 2.3482611754 2.3799944345 2.4117276937 2.4434609528 2.4751942119 2.506927471 2.5386607302 
2.5703939893 2.6021272484 2.6338605076 2.6655937667 2.6973270258 2.7290602849 2.7607935441 2.7925268032 2.8242600623 
2.8559933214 2.8877265806 2.9194598397 2.9511930988 2.982926358 3.0146596171 3.0463928762 3.0781261353 3.1098593945 
3.1415926536 
_radius 1 100 double
1.2225062932e-15 0.012314545672 0.024763168717 0.037445005471 0.050410548091 0.063647690484 0.077077338701 0.090558708218 0.10390311614 
0.11689414133 0.12931143457 0.14095518529 0.15166829159 0.16135363151 0.16998445705 0.17760674699 0.1843332556 0.19032988214 
0.19579579906 0.20093949453 0.20595350158 0.21099103259 0.21614782764 0.22145200698 0.22686348503 0.2322827887 0.23756744406 
0.24255295628 0.24707501432 0.25098979249 0.25418984677 0.25661390857 0.25824975418 0.25913022149 0.25932330123 0.25891797613 
0.25800803945 0.25667640991 0.25498240362 0.25295400439 0.25058645046 0.24784753935 0.24468905446 0.24106273141 0.2369383241 
0.2323207571 0.22726322472 0.22187348814 0.21631144447 0.21077711312 0.20548943296 0.20065793463 0.1964518114 0.19297376609 
0.19024714751 0.18822151124 0.18679416343 0.18583852642 0.18522909812 0.18485681038 0.18463387103 0.18449109302 0.18437277619 
0.18423430892 0.18404532734 0.1837970554 0.18350898365 0.18322987581 0.1830309034 0.18299213453 0.18318581989 0.18366048929 
0.18442911589 0.18546308056 0.1866920092 0.18800833797 0.18927500077 0.19033485492 0.19102095763 0.19116711423 0.19061804412 
0.18923823812 0.18691846638 0.18357915199 0.17917039002 0.17366903898 0.16707382347 0.1593996463 0.15067230366 0.14092456961 
0.1301942327 0.11852420462 0.10596437179 0.09257451744 0.078427469088 0.063611642854 0.048232329413 0.032411335704 0.016284891924 
1.25673737e-15 
_area 1 100 double
0 0.00045542750107 0.0018439966932 0.004224855835 0.0076727961746 0.012248754692 0.017969219071 0.024781912644 0.032553624628 
0.04107326978 0.05006997185 0.059243018391 0.06829851915 0.076986652991 0.085133357583 0.09266108279 0.099594802127 0.10605178766 
0.11221636556 0.11830351887 0.12451746284 0.13101283118 0.13786615161 0.14506320953 0.15250403117 0.16002278716 0.16741614367 
0.17447135167 0.1809860288 0.1867769742 0.19168378018 0.19557641099 0.19836927868 0.20003543073 0.20061286458 0.20019973654 
0.19894013498 0.19700212819 0.19453987987 0.19162837715 0.18822559542 0.18422242516 0.17951460377 0.17404583668 0.1678296005 
0.1609575881 0.15359689134 0.14597906256 0.13838537488 0.13113003342 0.12453470994 0.11887406742 0.11427786752 0.11065036235 
0.10771882048 0.10519966995 0.10323044011 0.10150094579 0.099729876799 0.097889174177 0.095988104252 0.094029305725 0.092006114818 
0.089922741099 0.087816293199 0.085762247097 0.083859612374 0.0822053785 0.080871611862 0.079895068532 0.079280840453 0.079015086263 
0.079080556453 0.079467526883 0.080171873725 0.081176329917 0.082421610827 0.083786416324 0.085089924129 0.086111974021 0.086620583784 
0.086400346207 0.085277377989 0.083137104813 0.079932658179 0.075684029085 0.070470396564 0.064419290909 0.057695973165 0.050494835424 
0.043032606027 0.03554171779 0.028262031226 0.021430163009 0.015267299069 0.0099676752874 0.0056901824418 0.0025546171624 0.00064240454638 
8.166909333e-17 
