# vtk DataFile Version 5.1
vtk output
ASCII
DATASET POLYDATA
POINTS 100 float
0.0839325 0.037324 0.654423 0.0838839 0.0373413 0.654388 0.0837898 0.0373015 0.654076 
0.0836447 0.0372249 0.653462 0.0834417 0.0371419 0.652508 0.0831754 0.0370885 0.651162 
0.0828451 0.037102 0.649359 0.0824572 0.0372158 0.647028 0.0820265 0.037455 0.64409 
0.0815749 0.0378322 0.640467 0.0811284 0.0383453 0.636085 0.080712 0.0389766 0.630882 
0.0803426 0.0396936 0.624814 0.0800227 0.040451 0.617859 0.0797332 0.0411949 0.610023 
0.0794294 0.0418672 0.60134 0.079039 0.0424104 0.591875 0.0784647 0.0427726 0.581719 
0.0775893 0.042912 0.570983 0.076286 0.0427998 0.55979 0.0744298 0.0424227 0.548268 
0.071911 0.0417831 0.536535 0.0686481 0.0408986 0.524696 0.0645988 0.0398005 0.512826 
0.0597667 0.0385307 0.500971 0.0542037 0.037139 0.489144 0.0480064 0.03568 0.477321 
0.0413073 0.0342097 0.465451 0.0342611 0.0327833 0.453461 0.0270286 0.0314533 0.441262 
0.0197584 0.0302685 0.428763 0.0125709 0.029273 0.41588 0.0055444 0.0285063 0.402542 
-0.00129231 0.0280032 0.388698 -0.00796206 0.0277938 0.374322 -0.0145339 0.0279032 0.359409 
-0.0211112 0.0283511 0.343973 -0.0278149 0.0291509 0.328039 -0.0347632 0.0303083 0.311639 
-0.0420509 0.0318199 0.2948 -0.0497298 0.0336722 0.277539 -0.0577951 0.0358402 0.25986 
-0.0661763 0.0382875 0.241747 -0.0747375 0.0409662 0.223169 -0.0832846 0.0438187 0.204082 
-0.0915803 0.0467797 0.184439 -0.0993646 0.0497794 0.164195 -0.106379 0.0527476 0.143317 
-0.112391 0.0556174 0.121794 -0.117215 0.0583293 0.0996405 -0.120734 0.0608351 0.0769035 
-0.122904 0.0631005 0.0536589 -0.123762 0.0651064 0.0300095 -0.123415 0.0668495 0.00607775 
-0.122029 0.068341 -0.0180036 -0.11981 0.0696041 -0.042102 -0.116979 0.0706702 -0.0660954 
-0.113748 0.0715751 -0.0898812 -0.110302 0.0723538 -0.113383 -0.106774 0.0730363 -0.136551 
-0.103244 0.0736438 -0.159367 -0.0997255 0.0741851 -0.181832 -0.0961784 0.0746557 -0.203966 
-0.0925149 0.0750371 -0.225797 -0.088617 0.0752979 -0.247348 -0.084356 0.0753961 -0.268634 
-0.0796117 0.0752831 -0.289652 -0.0742905 0.0749072 -0.310379 -0.068339 0.0742182 -0.330771 
-0.0617525 0.0731719 -0.350767 -0.0545771 0.0717337 -0.370296 -0.0469061 0.0698817 -0.389286 
-0.0388707 0.0676087 -0.407669 -0.0306273 0.064923 -0.425394 -0.0223424 0.0618482 -0.44243 
-0.0141783 0.0584217 -0.458773 -0.00627947 0.0546929 -0.47444 0.0012368 0.0507197 -0.489472 
0.00828621 0.0465664 -0.503922 0.0148187 0.0422995 -0.517846 0.0208158 0.0379852 -0.531295 
0.0262843 0.0336867 -0.544306 0.0312485 0.0294619 -0.556888 0.0357419 0.0253619 -0.569026 
0.0397992 0.0214299 -0.580674 0.0434502 0.0177009 -0.591759 0.046717 0.014202 -0.602191 
0.0496128 0.0109526 -0.61187 0.052144 0.0079655 -0.620702 0.0543136 0.00524762 -0.628604 
0.0561263 0.00280133 -0.635521 0.0575924 0.000625413 -0.64143 0.0587315 -0.00128385 -0.646344 
0.0595741 -0.00293179 -0.650312 0.0601607 -0.00432451 -0.653412 0.0605395 -0.00546823 -0.655741 
0.0607616 -0.00636875 -0.657405 0.0608755 -0.00703097 -0.658505 0.0609212 -0.00745861 -0.659123 
0.0609255 -0.00765396 -0.659313 
LINES 2 100
OFFSETS vtktypeint64
0 100 
CONNECTIVITY vtktypeint64
0 1 2 3 4 5 6 7 8 
9 10 11 12 13 14 15 16 17 
18 19 20 21 22 23 24 25 26 
27 28 29 30 31 32 33 34 35 
36 37 38 39 40 41 42 43 44 
45 46 47 48 49 50 51 52 53 
54 55 56 57 58 59 60 61 62 
63 64 65 66 67 68 69 70 71 
72 73 74 75 76 77 78 79 80 
81 82 83 84 85 86 87 88 89 
90 91 92 93 94 95 96 97 98 
99 
POINT_DATA 100
FIELD FieldData 3
_theta 1 100 double
0 0.031733259127 0.063466518254 0.095199777382 0.12693303651 0.15866629564 0.19039955476 0.22213281389 0.25386607302 
0.28559933214 0.31733259127 0.3490658504 0.38079910953 0.41253236865 0.44426562778 0.47599888691 0.50773214603 0.53946540516 
0.57119866429 0.60293192342 0.63466518254 0.66639844167 0.6981317008 0.72986495992 0.76159821905 0.79333147818 0.82506473731 
0.85679799643 0.88853125556 0.92026451469 0.95199777382 0.98373103294 1.0154642921 1.0471975512 1.0789308103 1.1106640695 
1.1423973286 1.1741305877 1.2058638468 1.237597106 1.2693303651 1.3010636242 1.3327968833 1.3645301425 1.3962634016 
1.4279966607 1.4597299198 1.491463179 1.5231964381 1.5549296972 1.5866629564 1.6183962155 1.6501294746 1.6818627337 
1.7135959929 1.745329252 1.7770625111 1.8087957702 1.8405290294 1.8722622885 1.9039955476 1.9357288068 1.9674620659 
1.999195325 2.0309285841 2.0626618433 2.0943951024 2.1261283615 2.1578616206 2.1895948798 2.2213281389 2.253061398 
2.2847946572 2.3165279163 2.3482611754 2.3799944345 2.4117276937 2.4434609528 2.4751942119 2.506927471 2.5386607302 
2.5703939893 2.6021272484 2.6338605076 2.6655937667 2.6973270258 2.7290602849 2.7607935441 2.7925268032 2.8242600623 
2.8559933214 2.8877265806 2.9194598397 2.9511930988 2.982926358 3.0146596171 3.0463928762 3.0781261353 3.1098593945 
3.1415926536 
_radius 1 100 double
7.8286592502e-16 0.013861474813 0.027697504253 0.041478929476 0.055174821956 0.068748860768 0.082154152398 0.095328125273 0.10818961271 
0.12063993237 0.13256879249 0.14386453344 0.15442696902 0.1641803088 0.17308352737 0.18113608807 0.18837795105 0.19488404852 
0.20075460522 0.20610349105 0.21104689579 0.21569388959 0.22013916685 0.2244571549 0.22869639365 0.23287383352 0.23696995395 
0.24092654746 0.24464904536 0.24801432701 0.25088347995 0.25311757147 0.25459365585 0.25521820644 0.25493587018 0.25373262844 
0.25163375577 0.24869805051 0.24501039508 0.24067464535 0.23580818853 0.23053849364 0.22500100465 0.21933717802 0.21369153598 
0.20820719626 0.20302012281 0.19825294779 0.19400940457 0.19037016531 0.18739035099 0.18509841349 0.18349572471 0.18255625003 
0.1822262023 0.18242437318 0.18304445095 0.18396055395 0.18503631098 0.18613653233 0.18713953369 0.18794796071 0.18849646634 
0.18875542506 0.18873062132 0.18845931762 0.1880032999 0.18743955298 0.18684930065 0.18630635565 0.18586603498 0.18555613942 
0.18537144514 0.18527266335 0.18518994697 0.18503003817 0.18468542184 0.184043643 0.18299529168 0.18143985108 0.17928932943 
0.1764700964 0.17292351902 0.16860589582 0.1634879552 0.15755395818 0.15080032832 0.14323376335 0.13486894755 0.12572621498 
0.11582971562 0.10520669858 0.093888365029 0.081912349145 0.069326358385 0.056192038366 0.042587920015 0.028610456721 0.014372608282 
1.1803306236e-15 
_area 1 100 double
0 0.00052478078445 0.0020896283467 0.0046676257128 0.0082180516933 0.012689446169 0.018019703651 0.024132723705 0.030933372909 
0.038303300558 0.046099619128 0.054157993336 0.062301559169 0.070356253784 0.078170920183 0.085637590697 0.092705306593 0.099381605133 
0.10572008137 0.11179861351 0.11769769659 0.1234886905 0.12923629858 0.13501009655 0.14089157772 0.14696222698 0.15326838104 
0.15977648268 0.16634354129 0.17271983002 0.17858214749 0.1835837065 0.18740555779 0.1897987224 0.19061092293 0.18979560099 
0.18740431807 0.18356711434 0.17846812961 0.17232410685 0.16537042473 0.15785422073 0.15002995317 0.14215213765 0.13446302785 
0.1271770557 0.12046619846 0.11445060173 0.10919791061 0.10473232733 0.10104923234 0.098128401306 0.095941399678 0.094450301346 
0.093598353315 0.09330356804 0.093462306963 0.093954032295 0.09464384471 0.095388345167 0.096046396188 0.096491072138 0.096619083686 
0.096356910176 0.095664934592 0.094540788305 0.093021908889 0.091186227583 0.08914935901 0.087056643089 0.085068921757 0.083342133836 
0.082002923817 0.081125618686 0.080717832891 0.080718363171 0.081004534697 0.081404450942 0.081712561043 0.081709509496 0.081186533196 
0.079970727243 0.077944312245 0.075052745107 0.071301566412 0.06674600803 0.061478752477 0.05562023278 0.049313378501 0.042721803357 
0.036028368954 0.029430805046 0.023132584141 0.017329597962 0.012195265347 0.0078678263043 0.0044434891404 0.0019777365005 0.00049453738765 
1.7518307499e-17 
