# vtk DataFile Version 5.1
vtk output
ASCII
DATASET POLYDATA
POINTS 100 float
-0.00596552 -0.00694655 -0.67188 -0.00596208 -0.00695067 -0.67159 -0.00596759 -0.00678881 -0.670704 
-0.00601538 -0.00644818 -0.669189 -0.00615593 -0.00590883 -0.666994 -0.00645059 -0.00514507 -0.664056 
-0.00696405 -0.00412732 -0.660313 -0.00775675 -0.00282458 -0.655707 -0.00887833 -0.00120726 -0.650195 
-0.010363 0.000749716 -0.643753 -0.0122275 0.00306382 -0.63638 -0.0144717 0.00574201 -0.628095 
-0.0170818 0.00877838 -0.618936 -0.0200352 0.0121528 -0.608957 -0.0233064 0.0158302 -0.598215 
-0.0268731 0.0197621 -0.586769 -0.0307202 0.0238883 -0.57467 -0.0348424 0.0281404 -0.561957 
-0.0392443 0.0324461 -0.548656 -0.0439374 0.0367343 -0.534776 -0.0489356 0.0409395 -0.520319 
-0.0542483 0.0450059 -0.505276 -0.0598739 0.0488909 -0.489641 -0.065794 0.0525662 -0.473412 
-0.0719696 0.0560175 -0.456599 -0.0783397 0.0592427 -0.439228 -0.0848237 0.0622479 -0.421339 
-0.0913268 0.0650428 -0.402984 -0.097748 0.0676354 -0.384228 -0.10399 0.0700264 -0.365132 
-0.109967 0.0722058 -0.345755 -0.115617 0.0741499 -0.32614 -0.120905 0.0758212 -0.306308 
-0.125822 0.0771703 -0.286255 -0.13039 0.0781404 -0.265949 -0.134647 0.078673 -0.245336 
-0.138643 0.0787152 -0.22434 -0.142422 0.0782274 -0.202882 -0.146013 0.0771902 -0.180881 
-0.149414 0.0756089 -0.158274 -0.152584 0.073517 -0.135025 -0.15544 0.0709756 -0.111131 
-0.157857 0.0680704 -0.0866329 -0.159676 0.0649059 -0.0616162 -0.160717 0.0615969 -0.0362057 
-0.160796 0.0582598 -0.0105605 -0.159743 0.0550029 0.0151363 -0.157425 0.0519178 0.0406913 
-0.153762 0.0490732 0.0659132 -0.148737 0.0465116 0.0906266 -0.142406 0.0442486 0.114682 
-0.134892 0.0422762 0.137966 -0.126383 0.0405681 0.1604 -0.11711 0.0390881 0.181947 
-0.107334 0.037798 0.202604 -0.0973152 0.0366664 0.222398 -0.0872978 0.0356755 0.241377 
-0.0774854 0.0348246 0.259603 -0.0680274 0.0341319 0.277146 -0.0590101 0.0336317 0.294075 
-0.0504561 0.0333688 0.310457 -0.0423301 0.033391 0.326354 -0.0345521 0.0337395 0.341826 
-0.0270148 0.0344398 0.356931 -0.0196025 0.0354941 0.371729 -0.0122112 0.0368761 0.386284 
-0.00476456 0.0385291 0.400664 0.0027741 0.0403688 0.414942 0.0103965 0.0422892 0.429188 
0.0180504 0.0441721 0.44347 0.0256466 0.0458991 0.457841 0.0330716 0.0473639 0.472335 
0.0402023 0.0484838 0.486957 0.0469225 0.0492092 0.501679 0.0531373 0.0495291 0.51644 
0.0587841 0.0494726 0.531141 0.0638389 0.0491051 0.545656 0.0683168 0.0485203 0.559835 
0.072267 0.0478293 0.57352 0.0757627 0.0471464 0.586558 0.0788891 0.0465757 0.598812 
0.0817286 0.0461982 0.610176 0.0843488 0.0460619 0.620581 0.0867923 0.046177 0.630006 
0.0890712 0.0465145 0.638473 0.0911669 0.0470112 0.646047 0.0930353 0.0475789 0.652822 
0.0946161 0.0481158 0.658916 0.0958452 0.0485216 0.664447 0.0966686 0.0487109 0.669528 
0.0970549 0.0486254 0.674246 0.0970047 0.0482426 0.678657 0.0965565 0.0475796 0.682781 
0.0957861 0.0466924 0.686597 0.0948012 0.0456689 0.690053 0.0937308 0.0446188 0.693073 
0.0927109 0.0436603 0.695568 0.0918695 0.0429048 0.69745 0.0913106 0.0424435 0.698647 
0.0911021 0.0423358 0.699109 
LINES 2 100
OFFSETS vtktypeint64
0 100 
CONNECTIVITY vtktypeint64
0 1 2 3 4 5 6 7 8 
9 10 11 12 13 14 15 16 17 
18 19 20 21 22 23 24 25 26 
27 28 29 30 31 32 33 34 35 
36 37 38 39 40 41 42 43 44 
45 46 47 48 49 50 51 52 53 
54 55 56 57 58 59 60 61 62 
63 64 65 66 67 68 69 70 71 
72 73 74 75 76 77 78 79 80 
81 82 83 84 85 86 87 88 89 
90 91 92 93 94 95 96 97 98 
99 
POINT_DATA 100
FIELD FieldData 3
_theta 1 100 double
0 0.031733259127 0.063466518254 0.095199777382 0.12693303651 0.15866629564 0.19039955476 0.22213281389 0.25386607302 
0.28559933214 0.31733259127 0.3490658504 0.38079910953 0.41253236865 0.44426562778 0.47599888691 0.50773214603 0.53946540516 
0.57119866429 0.60293192342 0.63466518254 0.66639844167 0.6981317008 0.72986495992 0.76159821905 0.79333147818 0.82506473731 
0.85679799643 0.88853125556 0.92026451469 0.95199777382 0.98373103294 1.0154642921 1.0471975512 1.0789308103 1.1106640695 
1.1423973286 1.1741305877 1.2058638468 1.237597106 1.2693303651 1.3010636242 1.3327968833 1.3645301425 1.3962634016 
1.4279966607 1.4597299198 1.491463179 1.5231964381 1.5549296972 1.5866629564 1.6183962155 1.6501294746 1.6818627337 
1.7135959929 1.745329252 1.7770625111 1.8087957702 1.8405290294 1.8722622885 1.9039955476 1.9357288068 1.9674620659 
1.999195325 2.0309285841 2.0626618433 2.0943951024 2.1261283615 2.1578616206 2.1895948798 2.2213281389 2.253061398 
2.2847946572 2.3165279163 2.3482611754 2.3799944345 2.4117276937 2.4434609528 2.4751942119 2.506927471 2.5386607302 
2.5703939893 2.6021272484 2.6338605076 2.6655937667 2.6973270258 2.7290602849 2.7607935441 2.7925268032 2.8242600623 
2.8559933214 2.8877265806 2.9194598397 2.9511930988 2.982926358 3.0146596171 3.0463928762 3.0781261353 3.1098593945 
3.1415926536 
_radius 1 100 double
8.882737058e-16 0.013743631375 0.027386879629 0.040829066797 0.053973063178 0.06672579762 0.078998084137 0.090704473199 0.10176396271 
0.11210215643 0.12165492904 0.13037303614 0.13822661335 0.14520832989 0.15133420139 0.15664169033 0.16118553269 0.16503241401 
0.16825587287 0.1709325028 0.17313979076 0.17495512139 0.1764549739 0.17771335329 0.17879897764 0.1797714188 0.18067693431 
0.18154490154 0.18238554213 0.18318918282 0.18392693446 0.18455263214 0.18500616928 0.18521867583 0.18511995857 0.18464812835 
0.18376061636 0.18244513229 0.1807287084 0.17868287576 0.1764233243 0.17410322211 0.17190073748 0.17000297099 0.16858976626 
0.16782073849 0.16782688893 0.16870538333 0.17051452655 0.17326690598 0.17692138604 0.1813771694 0.18647382377 0.19199964522 
0.19770800323 0.20333892853 0.20864217281 0.21339831364 0.21743552801 0.220640691 0.22296413036 0.22441775513 0.22506669556 
0.22501537807 0.22439018021 0.22332197 0.22193203495 0.22032368947 0.21857982551 0.21676491063 0.21492897764 0.21311096752 
0.21133931465 0.20962882611 0.20797440615 0.20634353564 0.2046702256 0.20285315705 0.20075977753 0.19823641839 0.19512261937 
0.19126662118 0.18653896814 0.18084227949 0.17411686775 0.16634316928 0.15754227291 0.14777512609 0.13713988955 0.12576629873 
0.11380625705 0.10142100469 0.088766448975 0.075979054025 0.063164834067 0.050393479805 0.037698524189 0.025082859212 0.01252738299 
3.6654733568e-16 
_area 1 100 double
0 0.00047642437856 0.0019012913799 0.0042590477365 0.007516493219 0.011613858329 0.01645631102 0.021908792078 0.027796134423 
0.033909377695 0.040018414828 0.045890201162 0.051310452744 0.05610542282 0.060159576341 0.063425180345 0.065921123372 0.067720614228 
0.06893056691 0.0696687247 0.070046113314 0.070160289806 0.070099325045 0.069948590485 0.069785257685 0.069664106804 0.06962538637 
0.069715230026 0.069993530769 0.070529784248 0.071388517219 0.072600967394 0.074127399041 0.075841071198 0.077559568559 0.079095740845 
0.080301605483 0.081097616508 0.081475595808 0.081474524557 0.081161486549 0.0806373351 0.080047596941 0.079572275338 0.079380757887 
0.079603682939 0.080339754993 0.081678377598 0.083731019987 0.086643482476 0.0905754128 0.095646019041 0.1018495707 0.10898718779 
0.11669005731 0.12449243545 0.13190022478 0.13845143381 0.14376947111 0.14760687244 0.14987429687 0.15064695565 0.15013996165 
0.1486492323 0.14647847756 0.14388751513 0.14107085261 0.13815708334 0.13522113131 0.13230302067 0.12942676038 0.12661392513 
0.12388989475 0.12128277438 0.11881537718 0.11649260809 0.11428582002 0.11211397878 0.10983345659 0.10725114542 0.10415757116 
0.10036694931 0.095751473707 0.090260380587 0.083921442304 0.076830205149 0.069135730559 0.061028924484 0.052732807405 0.044489437031 
0.036540375667 0.029103904771 0.022356149752 0.01642193698 0.01137653596 0.0072551863148 0.0040658040438 0.0018012554733 0.00044935658962 
4.6871510634e-17 
