# vtk DataFile Version 5.1
vtk output
ASCII
DATASET POLYDATA
POINTS 100 float
0.0921205 0.0654158 0.679966 0.0923855 0.0655431 0.67974 0.0931937 0.0657511 0.678895 
0.0944477 0.0660079 0.677429 0.0959982 0.0662657 0.675339 0.0976599 0.0664672 0.672618 
0.0992324 0.066553 0.669252 0.100521 0.06647 0.665219 0.101358 0.0661782 0.660494 
0.101615 0.0656559 0.65504 0.101218 0.064902 0.648822 0.100143 0.0639362 0.641808 
0.0984204 0.0627953 0.633972 0.0961181 0.0615284 0.625308 0.0933301 0.0601889 0.61583 
0.0901586 0.0588279 0.605578 0.0866978 0.0574862 0.594622 0.0830193 0.0561898 0.583055 
0.0791626 0.054946 0.570995 0.0751314 0.0537437 0.558571 0.0708953 0.0525557 0.545918 
0.0663981 0.0513439 0.533159 0.0615696 0.0500661 0.5204 0.0563406 0.0486838 0.507716 
0.0506571 0.0471693 0.495146 0.0444929 0.0455121 0.48269 0.0378587 0.0437223 0.470308 
0.0308045 0.0418316 0.457928 0.0234168 0.0398915 0.445453 0.0158107 0.0379681 0.432774 
0.00811641 0.0361354 0.41978 0.000463666 0.0344669 0.406375 -0.00703392 0.0330275 0.392479 
-0.0142931 0.0318663 0.378045 -0.0212711 0.0310113 0.36305 -0.0279697 0.0304672 0.3475 
-0.0344333 0.0302155 0.331422 -0.0407408 0.0302191 0.314853 -0.0469916 0.0304275 0.29783 
-0.053288 0.0307859 0.280382 -0.0597169 0.0312427 0.262517 -0.0663317 0.0317586 0.244224 
-0.0731384 0.0323123 0.225467 -0.0800866 0.0329049 0.20619 -0.087068 0.0335605 0.18633 
-0.0939212 0.034324 0.165822 -0.100444 0.0352557 0.144619 -0.106411 0.0364235 0.122701 
-0.111594 0.0378943 0.100087 -0.115782 0.0397243 0.0768421 -0.118806 0.0419508 0.0530791 
-0.120548 0.0445858 0.028953 -0.120956 0.0476126 0.00465186 -0.120047 0.0509847 -0.0196186 
-0.117899 0.0546285 -0.043653 -0.114648 0.0584489 -0.0672647 -0.110465 0.0623362 -0.0903036 
-0.105543 0.0661752 -0.11267 -0.100077 0.0698533 -0.134321 -0.094246 0.0732689 -0.155277 
-0.0881993 0.0763375 -0.175609 -0.0820491 0.0789954 -0.195434 -0.075866 0.0812018 -0.214893 
-0.0696817 0.0829376 -0.234135 -0.0634967 0.0842028 -0.253295 -0.0572905 0.0850126 -0.272477 
-0.051034 0.0853922 -0.291741 -0.0447019 0.0853727 -0.311092 -0.038283 0.0849872 -0.330483 
-0.0317874 0.0842679 -0.34982 -0.0252493 0.0832454 -0.36897 -0.0187262 0.0819485 -0.387785 
-0.0122935 0.0804059 -0.40611 -0.00603689 0.078648 -0.42381 -4.25035e-05 0.0767092 -0.440776 
0.00561266 0.0746289 -0.456944 0.0108693 0.0724529 -0.472289 0.0156919 0.0702321 -0.486833 
0.0200716 0.0680211 -0.500625 0.0240256 0.0658748 -0.51374 0.0275937 0.0638449 -0.526254 
0.0308315 0.0619756 -0.538235 0.0338029 0.0603002 -0.549723 0.0365716 0.0588384 -0.560727 
0.0391937 0.0575946 -0.571216 0.0417117 0.0565585 -0.581125 0.0441512 0.0557069 -0.59036 
0.04652 0.0550071 -0.598813 0.0488095 0.0544214 -0.606376 0.0509984 0.0539116 -0.612962 
0.0530579 0.0534443 -0.618513 0.0549561 0.0529939 -0.62302 0.0566639 0.0525458 -0.626518 
0.0581574 0.0520969 -0.629093 0.059421 0.0516549 -0.630872 0.060447 0.0512358 -0.632008 
0.0612344 0.0508608 -0.632663 0.0617872 0.0505518 -0.632992 0.0621109 0.0503274 -0.633121 
0.0622101 0.0502 -0.633131 
LINES 2 100
OFFSETS vtktypeint64
0 100 
CONNECTIVITY vtktypeint64
0 1 2 3 4 5 6 7 8 
9 10 11 12 13 14 15 16 17 
18 19 20 21 22 23 24 25 26 
27 28 29 30 31 32 33 34 35 
36 37 38 39 40 41 42 43 44 
45 46 47 48 49 50 51 52 53 
54 55 56 57 58 59 60 61 62 
63 64 65 66 67 68 69 70 71 
72 73 74 75 76 77 78 79 80 
81 82 83 84 85 86 87 88 89 
90 91 92 93 94 95 96 97 98 
99 
POINT_DATA 100
FIELD FieldData 3
_theta 1 100 double
0 0.031733259127 0.063466518254 0.095199777382 0.12693303651 0.15866629564 0.19039955476 0.22213281389 0.25386607302 
0.28559933214 0.31733259127 0.3490658504 0.38079910953 0.41253236865 0.44426562778 0.47599888691 0.50773214603 0.53946540516 
0.57119866429 0.60293192342 0.63466518254 0.66639844167 0.6981317008 0.72986495992 0.76159821905 0.79333147818 0.82506473731 
0.85679799643 0.88853125556 0.92026451469 0.95199777382 0.98373103294 1.0154642921 1.0471975512 1.0789308103 1.1106640695 
1.1423973286 1.1741305877 1.2058638468 1.237597106 1.2693303651 1.3010636242 1.3327968833 1.3645301425 1.3962634016 
1.4279966607 1.4597299198 1.491463179 1.5231964381 1.5549296972 1.5866629564 1.6183962155 1.6501294746 1.6818627337 
1.7135959929 1.745329252 1.7770625111 1.8087957702 1.8405290294 1.8722622885 1.9039955476 1.9357288068 1.9674620659 
1.999195325 2.0309285841 2.0626618433 2.0943951024 2.1261283615 2.1578616206 2.1895948798 2.2213281389 2.253061398 
2.2847946572 2.3165279163 2.3482611754 2.3799944345 2.4117276937 2.4434609528 2.4751942119 2.506927471 2.5386607302 
2.5703939893 2.6021272484 2.6338605076 2.6655937667 2.6973270258 2.7290602849 2.7607935441 2.7925268032 2.8242600623 
2.8559933214 2.8877265806 2.9194598397 2.9511930988 2.982926358 3.0146596171 3.0463928762 3.0781261353 3.1098593945 
3.1415926536 
_radius 1 100 double
7.8516888323e-16 0.013605851157 0.027147392066 0.040548111803 0.053729709652 0.06661321207 0.079121320169 0.091181858883 0.1027318657 
0.11372162776 0.12411794 0.13390600588 0.14308966497 0.15168993297 0.15974211753 0.16729193026 0.17439095165 0.18109155489 
0.18744121631 0.19347635921 0.19921654071 0.20466050394 0.20978578608 0.21455285541 0.21891333223 0.22282034126 0.2262381368 
0.22914826001 0.23155062661 0.23345968525 0.23489743589 0.23588593941 0.23644163979 0.2365726414 0.23627875667 0.23555331708 
0.23438566579 0.23276375563 0.23067697668 0.22811983459 0.2250971316 0.22163077748 0.21776738263 0.21358473185 0.20919467237 
0.20474030027 0.20038660426 0.19630559965 0.19265893962 0.18958223396 0.1871748964 0.18549694377 0.18457082578 0.18438414213 
0.18488967118 0.18600242889 0.18759736297 0.1895127779 0.19156240107 0.19355492677 0.19531676559 0.19671280776 0.19766088472 
0.19813755265 0.19817503528 0.19785087642 0.19727275059 0.19656107075 0.19583171783 0.19518064379 0.19467153971 0.19432735857 
0.19412623072 0.19400212807 0.19385040354 0.19353789888 0.19291659027 0.19183888393 0.19017210128 0.18780980299 0.18467842083 
0.1807388208 0.17598343422 0.1704301958 0.16411471566 0.15708201404 0.14937889963 0.14104777643 0.13212239823 0.12262589406 
0.11257124067 0.10196417291 0.090808229505 0.079111250123 0.066892289984 0.054187738275 0.041055486536 0.027576282902 0.013851864607 
1.2913546859e-15 
_area 1 100 double
0 0.0005478775617 0.0021731215646 0.0048216690497 0.0084071049318 0.012816169664 0.017916223631 0.023564155851 0.029615916393 
0.035935536644 0.042402290156 0.048914800394 0.055391628144 0.061769079548 0.067998260679 0.074044169654 0.079889164468 0.085540949301 
0.091041575479 0.09647044335 0.10193346029 0.10753475836 0.1133370749 0.11932738873 0.12540605406 0.13140573187 0.13712992045 
0.1423928366 0.14704590677 0.15098600421 0.15415012497 0.15650516012 0.15803910351 0.15875553902 0.15866884022 0.15779485735 
0.15614321424 0.15378658023 0.15079137766 0.14709194466 0.14279574457 0.13816746256 0.13325146339 0.1280664918 0.12271882326 
0.117345647 0.11209391753 0.10710495187 0.10250449536 0.098412444387 0.095013583512 0.09244817157 0.090505485991 0.088959756212 
0.087801075609 0.087039590443 0.086707777256 0.086809718116 0.08726836623 0.08793790377 0.088653908021 0.089270335388 0.089675701763 
0.089798505733 0.089606509376 0.089101706989 0.08831446006 0.08729901233 0.086129032242 0.084891691367 0.083683082017 0.082608050687 
0.081778615133 0.081299122135 0.081239685006 0.081616058065 0.082360431664 0.083261545086 0.083997170825 0.084257456266 0.083803631837 
0.082476063877 0.080191364416 0.076935297347 0.072752536146 0.067735256338 0.062012383929 0.055740183735 0.049093991432 0.042260798438 
0.035432626142 0.028800477253 0.022548067909 0.01684427617 0.011834194669 0.0076308487256 0.0043114276769 0.0019207941429 0.00048074729631 
2.8202795803e-17 
