# vtk DataFile Version 5.1
vtk output
ASCII
DATASET POLYDATA
POINTS 100 float
0.112093 -0.0102159 -0.646034 0.112114 -0.0103382 -0.645734 0.112179 -0.0105156 -0.644827 
0.112253 -0.0106997 -0.643326 0.112282 -0.0108158 -0.641245 0.112199 -0.0107693 -0.638606 
0.111927 -0.010454 -0.635426 0.111391 -0.00976205 -0.631719 0.110519 -0.00859344 -0.627489 
0.109251 -0.00686601 -0.62273 0.107538 -0.00452364 -0.617424 0.10535 -0.00154278 -0.611537 
0.102671 0.00206356 -0.605028 0.099497 0.00624471 -0.597844 0.0958386 0.0109143 -0.58993 
0.0917131 0.0159552 -0.58123 0.0871431 0.021227 -0.571694 0.0821546 0.0265753 -0.56128 
0.0767747 0.0318429 -0.549961 0.0710315 0.0368806 -0.537721 0.0649544 0.0415576 -0.524565 
0.0585751 0.0457705 -0.51051 0.0519285 0.0494498 -0.495587 0.0450537 0.0525635 -0.47984 
0.0379938 0.0551172 -0.463318 0.030795 0.0571511 -0.446077 0.0235045 0.0587339 -0.428173 
0.0161677 0.0599543 -0.40966 0.00882453 0.0609106 -0.390589 0.00150659 0.0617 -0.371006 
-0.00576555 0.0624079 -0.350953 -0.0129831 0.0630994 -0.330467 -0.0201479 0.0638121 -0.309582 
-0.0272693 0.064553 -0.288329 -0.0343588 0.0652978 -0.26674 -0.0414225 0.0659941 -0.244845 
-0.0484538 0.0665677 -0.222675 -0.0554255 0.0669307 -0.200263 -0.0622828 0.0669916 -0.177641 
-0.0689404 0.066666 -0.154845 -0.075281 0.0658858 -0.131908 -0.0811594 0.0646081 -0.108867 
-0.0864093 0.0628204 -0.0857576 -0.0908549 0.0605436 -0.0626171 -0.0943244 0.0578314 -0.0394846 
-0.0966648 0.054767 -0.0164023 -0.0977569 0.0514567 0.00658454 -0.0975278 0.0480213 0.0294261 
-0.0959597 0.0445873 0.0520685 -0.0930946 0.041277 0.0744538 -0.089032 0.0381999 0.0965217 
-0.0839228 0.0354453 0.118211 -0.0779566 0.033078 0.139463 -0.0713461 0.0311358 0.160223 
-0.0643092 0.0296296 0.180444 -0.0570508 0.0285467 0.200092 -0.0497469 0.0278555 0.219144 
-0.0425322 0.0275113 0.237592 -0.0354927 0.0274635 0.255442 -0.0286644 0.0276612 0.272713 
-0.0220381 0.0280594 0.289437 -0.0155685 0.0286227 0.305651 -0.00918822 0.0293274 0.321398 
-0.00282294 0.030162 0.336722 0.00359308 0.0311257 0.35166 0.0101037 0.0322254 0.366249 
0.0167214 0.0334721 0.380513 0.0234228 0.0348768 0.39447 0.0301493 0.0364459 0.408132 
0.0368138 0.0381785 0.421503 0.0433109 0.0400636 0.434586 0.0495302 0.0420795 0.447384 
0.0553707 0.0441938 0.4599 0.0607534 0.0463655 0.472143 0.0656319 0.0485471 0.484127 
0.0699978 0.0506884 0.495868 0.0738808 0.05274 0.507386 0.0773446 0.0546564 0.518697 
0.0804767 0.0563994 0.529813 0.083376 0.0579401 0.540737 0.0861385 0.05926 0.551457 
0.088843 0.0603517 0.561944 0.0915402 0.061218 0.572154 0.094245 0.0618708 0.582026 
0.0969345 0.0623288 0.591484 0.0995512 0.0626162 0.600444 0.102011 0.0627598 0.608821 
0.104217 0.0627875 0.616534 0.106072 0.0627264 0.623513 0.107496 0.0626019 0.62971 
0.108438 0.0624366 0.635098 0.108886 0.0622502 0.639679 0.108872 0.0620595 0.643479 
0.108469 0.0618781 0.64655 0.107788 0.0617175 0.648962 0.106962 0.0615866 0.650795 
0.106131 0.0614927 0.652132 0.105429 0.0614413 0.653049 0.104964 0.0614365 0.653608 
0.104805 0.0614808 0.653847 
LINES 2 100
OFFSETS vtktypeint64
0 100 
CONNECTIVITY vtktypeint64
0 1 2 3 4 5 6 7 8 
9 10 11 12 13 14 15 16 17 
18 19 20 21 22 23 24 25 26 
27 28 29 30 31 32 33 34 35 
36 37 38 39 40 41 42 43 44 
45 46 47 48 49 50 51 52 53 
54 55 56 57 58 59 60 61 62 
63 64 65 66 67 68 69 70 71 
72 73 74 75 76 77 78 79 80 
81 82 83 84 85 86 87 88 89 
90 91 92 93 94 95 96 97 98 
99 
POINT_DATA 100
FIELD FieldData 3
_theta 1 100 double
0 0.031733259127 0.063466518254 0.095199777382 0.12693303651 0.15866629564 0.19039955476 0.22213281389 0.25386607302 
0.28559933214 0.31733259127 0.3490658504 0.38079910953 0.41253236865 0.44426562778 0.47599888691 0.50773214603 0.53946540516 
0.57119866429 0.60293192342 0.63466518254 0.66639844167 0.6981317008 0.72986495992 0.76159821905 0.79333147818 0.82506473731 
0.85679799643 0.88853125556 0.92026451469 0.95199777382 0.98373103294 1.0154642921 1.0471975512 1.0789308103 1.1106640695 
1.1423973286 1.1741305877 1.2058638468 1.237597106 1.2693303651 1.3010636242 1.3327968833 1.3645301425 1.3962634016 
1.4279966607 1.4597299198 1.491463179 1.5231964381 1.5549296972 1.5866629564 1.6183962155 1.6501294746 1.6818627337 
1.7135959929 1.745329252 1.7770625111 1.8087957702 1.8405290294 1.8722622885 1.9039955476 1.9357288068 1.9674620659 
1.999195325 2.0309285841 2.0626618433 2.0943951024 2.1261283615 2.1578616206 2.1895948798 2.2213281389 2.253061398 
2.2847946572 2.3165279163 2.3482611754 2.3799944345 2.4117276937 2.4434609528 2.4751942119 2.506927471 2.5386607302 
2.5703939893 2.6021272484 2.6338605076 2.6655937667 2.6973270258 2.7290602849 2.7607935441 2.7925268032 2.8242600623 
2.8559933214 2.8877265806 2.9194598397 2.9511930988 2.982926358 3.0146596171 3.0463928762 3.0781261353 3.1098593945 
3.1415926536 
_radius 1 100 double
9.9947926306e-16 0.014177069872 0.028242312591 0.042085304723 0.055600369418 0.068688847333 0.081261474449 0.093240637917 0.10456198671 
0.11517482184 0.12504099054 0.13413251338 0.14242861268 0.14991299841 0.15657220071 0.16239552643 0.16737694386 0.17151885895 
0.17483729202 0.17736742248 0.17916799752 0.18032296224 0.18093909369 0.18113941172 0.1810533461 0.18080551431 0.18050517877 
0.18023808116 0.18006163362 0.18000363386 0.18006412923 0.18022001983 0.18043220829 0.18065506105 0.18084739356 0.18098329719 
0.18106029554 0.18110211102 0.18115448679 0.1812754841 0.18152510549 0.18195961175 0.182632109 0.1835964804 0.18491038506 
0.18663429341 0.18882524518 0.19152582563 0.19475097986 0.19847683788 0.2026355186 0.20711801121 0.21178484739 0.21648230194 
0.22106061282 0.22539035482 0.2293737592 0.23294928604 0.23608959113 0.23879453822 0.2410816537 0.24297633167 0.24450341156 
0.24568087094 0.24651569473 0.24700171606 0.24711933849 0.24683729429 0.24611664309 0.24491687228 0.24320329299 0.24095425198 
0.23816637328 0.2348563209 0.23105839098 0.22681833171 0.22218477608 0.21720021735 0.21189341303 0.20627456199 0.2003338174 
0.19404295098 0.1873594719 0.18023230691 0.17260821496 0.16443828896 0.15568403138 0.14632250628 0.13635001723 0.12578376806 
0.11466114509 0.10303662878 0.09097680093 0.078554307254 0.065841832979 0.052907097139 0.039809592864 0.026599386728 0.013317864887 
2.0554635791e-16 
_area 1 100 double
0 0.00051266762717 0.0020432076683 0.0045658375726 0.0080278964608 0.012340479804 0.017373530444 0.022959193934 0.028904186354 
0.035008243487 0.041082768321 0.046963897406 0.052518080359 0.057641886552 0.062257511895 0.066304602657 0.069731544977 0.072492878415 
0.07455858354 0.075933947918 0.076680019831 0.076921125466 0.076830677901 0.076598840374 0.076401115645 0.076388255337 0.076684779988 
0.077350668617 0.07835602396 0.079637692442 0.081140171499 0.082811099635 0.084587382376 0.086391842359 0.08814547937 0.089791029743 
0.091318143916 0.092778776603 0.094277631215 0.09591929761 0.097730406914 0.099637875585 0.10152557272 0.10330600406 0.10497214816 
0.10662620717 0.10848421006 0.11084894624 0.11402288395 0.11816082974 0.12321897136 0.12901631684 0.13528541465 0.1417220554 
0.14804009841 0.15401387016 0.15949634543 0.16441204407 0.16873207245 0.17244385085 0.17552857347 0.17795430496 0.17968405111 
0.18069114176 0.18097217808 0.1805504021 0.17946749946 0.17776715386 0.17547764521 0.17260298157 0.1691303893 0.16505283564 
0.16039301913 0.15521304845 0.14960472047 0.14366734043 0.1374846172 0.13111008916 0.12456566214 0.11785237327 0.11096747441 
0.10391926637 0.09673283063 0.08944511547 0.082093426431 0.074704548608 0.067291548235 0.059861748466 0.052433477516 0.045053832897 
0.037808626715 0.030820011566 0.024233682927 0.018201523851 0.012865663366 0.008347599973 0.0047432501792 0.0021227354814 0.00053282110678 
8.6736173799e-19 
