# vtk DataFile Version 5.1
vtk output
ASCII
DATASET POLYDATA
POINTS 100 float
0.142169 0.0465435 0.649466 0.142096 0.0466616 0.649432 0.141974 0.0468683 0.649177 
0.141787 0.0471603 0.648645 0.141509 0.0475323 0.64775 0.141107 0.0479761 0.646384 
0.14054 0.0484802 0.644427 0.139769 0.0490283 0.641762 0.138753 0.0495995 0.638281 
0.137455 0.0501675 0.633903 0.135842 0.050702 0.628573 0.133885 0.0511692 0.622276 
0.131561 0.051534 0.615032 0.12885 0.0517619 0.606896 0.125733 0.0518223 0.597955 
0.122195 0.0516901 0.588319 0.118219 0.0513486 0.578108 0.113792 0.0507912 0.567448 
0.108901 0.050022 0.556458 0.103537 0.0490564 0.545238 0.097697 0.0479201 0.53387 
0.0913878 0.0466477 0.522409 0.0846265 0.0452801 0.510879 0.0774437 0.0438622 0.49928 
0.069884 0.0424402 0.487588 0.0620055 0.0410586 0.475759 0.0538773 0.0397582 0.463737 
0.0455764 0.0385744 0.451459 0.0371826 0.0375363 0.438861 0.0287729 0.0366669 0.425883 
0.0204161 0.0359831 0.412472 0.0121675 0.0354971 0.398584 0.00406586 0.0352176 0.384186 
-0.00386905 0.0351515 0.369255 -0.0116354 0.0353046 0.353773 -0.0192468 0.0356832 0.337731 
-0.0267266 0.0362937 0.321122 -0.0341019 0.037143 0.30394 -0.0413953 0.0382373 0.286182 
-0.048617 0.0395812 0.267843 -0.0557583 0.0411761 0.248919 -0.062786 0.0430188 0.229408 
-0.0696404 0.0451002 0.209312 -0.0762349 0.0474043 0.188635 -0.0824603 0.0499076 0.167392 
-0.0881907 0.0525796 0.145605 -0.0932923 0.0553833 0.123305 -0.0976341 0.0582762 0.100535 
-0.101098 0.0612125 0.0773477 -0.103587 0.0641442 0.0538044 -0.105039 0.0670235 0.0299742 
-0.105424 0.0698043 0.00593168 -0.104754 0.0724431 -0.0182457 -0.103075 0.0749005 -0.0424798 
-0.100467 0.0771413 -0.0666946 -0.0970365 0.0791344 -0.0908177 -0.0929038 0.0808527 -0.114782 
-0.0881952 0.0822719 -0.138528 -0.0830324 0.0833706 -0.162003 -0.0775232 0.0841287 -0.185163 
-0.0717548 0.0845275 -0.207969 -0.06579 0.084549 -0.230392 -0.0596662 0.084176 -0.252407 
-0.0533973 0.0833922 -0.273995 -0.0469788 0.0821827 -0.29514 -0.0403941 0.0805346 -0.315827 
-0.0336226 0.0784377 -0.336044 -0.0266474 0.0758853 -0.355774 -0.0194622 0.0728743 -0.375001 
-0.0120774 0.0694065 -0.393703 -0.00452273 0.0654883 -0.411857 0.0031515 0.0611316 -0.429433 
0.0108761 0.0563537 -0.446398 0.0185668 0.0511778 -0.462716 0.0261296 0.0456335 -0.47835 
0.0334676 0.0397569 -0.493264 0.0404872 0.0335912 -0.507425 0.0471047 0.0271871 -0.520808 
0.0532517 0.0206028 -0.533395 0.0588784 0.0139039 -0.545179 0.0639559 0.0071626 -0.556167 
0.0684759 0.000457024 -0.566377 0.0724496 -0.00613111 -0.575842 0.0759047 -0.0125187 -0.584604 
0.0788812 -0.0186245 -0.592715 0.0814277 -0.0243722 -0.60023 0.0835965 -0.0296944 -0.607204 
0.0854403 -0.034536 -0.613689 0.0870084 -0.0388573 -0.619729 0.088345 -0.0426358 -0.625352 
0.089487 -0.0458678 -0.630576 0.0904642 -0.0485683 -0.635398 0.0912988 -0.0507689 -0.639803 
0.0920069 -0.0525152 -0.64376 0.0925985 -0.0538626 -0.647227 0.09308 -0.0548714 -0.650158 
0.0934545 -0.0556014 -0.652502 0.0937233 -0.0561059 -0.654216 0.0938869 -0.0564275 -0.655262 
0.0939453 -0.0565935 -0.655617 
LINES 2 100
OFFSETS vtktypeint64
0 100 
CONNECTIVITY vtktypeint64
0 1 2 3 4 5 6 7 8 
9 10 11 12 13 14 15 16 17 
18 19 20 21 22 23 24 25 26 
27 28 29 30 31 32 33 34 35 
36 37 38 39 40 41 42 43 44 
45 46 47 48 49 50 51 52 53 
54 55 56 57 58 59 60 61 62 
63 64 65 66 67 68 69 70 71 
72 73 74 75 76 77 78 79 80 
81 82 83 84 85 86 87 88 89 
90 91 92 93 94 95 96 97 98 
99 
POINT_DATA 100
FIELD FieldData 3
_theta 1 100 double
0 0.031733259127 0.063466518254 0.095199777382 0.12693303651 0.15866629564 0.19039955476 0.22213281389 0.25386607302 
0.28559933214 0.31733259127 0.3490658504 0.38079910953 0.41253236865 0.44426562778 0.47599888691 0.50773214603 0.53946540516 
0.57119866429 0.60293192342 0.63466518254 0.66639844167 0.6981317008 0.72986495992 0.76159821905 0.79333147818 0.82506473731 
0.85679799643 0.88853125556 0.92026451469 0.95199777382 0.98373103294 1.0154642921 1.0471975512 1.0789308103 1.1106640695 
1.1423973286 1.1741305877 1.2058638468 1.237597106 1.2693303651 1.3010636242 1.3327968833 1.3645301425 1.3962634016 
1.4279966607 1.4597299198 1.491463179 1.5231964381 1.5549296972 1.5866629564 1.6183962155 1.6501294746 1.6818627337 
1.7135959929 1.745329252 1.7770625111 1.8087957702 1.8405290294 1.8722622885 1.9039955476 1.9357288068 1.9674620659 
1.999195325 2.0309285841 2.0626618433 2.0943951024 2.1261283615 2.1578616206 2.1895948798 2.2213281389 2.253061398 
2.2847946572 2.3165279163 2.3482611754 2.3799944345 2.4117276937 2.4434609528 2.4751942119 2.506927471 2.5386607302 
2.5703939893 2.6021272484 2.6338605076 2.6655937667 2.6973270258 2.7290602849 2.7607935441 2.7925268032 2.8242600623 
2.8559933214 2.8877265806 2.9194598397 2.9511930988 2.982926358 3.0146596171 3.0463928762 3.0781261353 3.1098593945 
3.1415926536 
_radius 1 100 double
6.491853511e-16 0.015590784337 0.030978913751 0.045974290761 0.060418728992 0.074196179249 0.087237179731 0.099517549657 0.11105234605 
0.12188671937 0.1320854175 0.14172236137 0.15087116919 0.15959701568 0.1679499858 0.17596014888 0.18363479062 0.19095835727 
0.19789550222 0.2043971469 0.21040880836 0.21587983945 0.22077190077 0.22506506864 0.22876046947 0.23187907278 0.23445705834 
0.2365387943 0.23816880739 0.23938418407 0.24020866777 0.2406493796 0.24069664266 0.24032689457 0.23950820642 0.23820757057 
0.23639892569 0.23407086597 0.23123310632 0.22792100473 0.22419772137 0.22015386027 0.2159046359 0.21158470561 0.20734083378 
0.203322593 0.19967149133 0.19650934318 0.19392731478 0.19197755861 0.19066925678 0.18997000621 0.18981212395 0.19010231321 
0.1907327049 0.19159153974 0.19257229613 0.19358056869 0.19453839542 0.19538609008 0.19608198781 0.19660079189 0.19693131614 
0.19707427359 0.1970404078 0.19684891162 0.19652595033 0.19610319907 0.19561639767 0.19510383156 0.19460437242 0.19415444367 
0.19378325816 0.19350607164 0.19331599018 0.19317581178 0.19301202692 0.19271302975 0.19213272584 0.19109944969 0.18942899371 
0.18693993986 0.18346936332 0.17888715517 0.17310751735 0.16609653662 0.15787512597 0.14851704409 0.13814216869 0.12690569123 
0.11498436659 0.10256132428 0.089811148725 0.076886905331 0.063910499056 0.050967234899 0.038104804407 0.025336303289 0.012646448696 
7.7047103902e-16 
_area 1 100 double
0 0.00057932707157 0.0022976265587 0.0050971621341 0.0088860606015 0.013544794086 0.018934984618 0.024909836685 0.031324921126 
0.038047666466 0.044964097672 0.051982138513 0.059031853791 0.066063882773 0.073047605053 0.079970101518 0.086835845665 0.093665671705 
0.10049233942 0.10734947221 0.1142523945 0.12117558766 0.12803880593 0.13471218668 0.14103867246 0.14686276339 0.15205505369 
0.15652683949 0.16023313461 0.16316513963 0.16533537278 0.16676041884 0.16744700076 0.16738613908 0.16655742902 0.16494167321 
0.1625366923 0.15936988143 0.15550296303 0.15102850857 0.14606208734 0.14073591722 0.1351975136 0.12961119547 0.12415649275 
0.11901827204 0.11436645774 0.11032697419 0.1069518038 0.1042034697 0.10196750816 0.10009040695 0.098425825192 0.096873375496 
0.095403331376 0.094063508655 0.092960632793 0.092207249874 0.091846599261 0.091811457123 0.091952421018 0.092095700472 0.092090855679 
0.091843428382 0.091333334025 0.090613576368 0.089783568982 0.088950873107 0.088216657412 0.087699745697 0.087463335489 0.087550275483 
0.088050837215 0.088935197757 0.090144946854 0.091611785857 0.093212996844 0.094753677402 0.095982551476 0.096624785687 0.09641597818 
0.095132338847 0.092616177588 0.088795095704 0.083692522979 0.077427777584 0.070205265389 0.062294184309 0.054001702243 0.045643670702 
0.037517230576 0.029879055875 0.022931641683 0.016818376586 0.011626598624 0.0073967441039 0.0041351765711 0.001828252042 0.00045546750617 
3.7350554722e-17 
