# vtk DataFile Version 5.1
vtk output
ASCII
DATASET POLYDATA
POINTS 100 float
0.0655897 0.00453122 -0.763481 0.0655494 0.00454961 -0.763414 0.0654376 0.00479584 -0.763197 
0.0652449 0.00526911 -0.762728 0.064955 0.0059661 -0.76185 0.0645458 0.00687974 -0.760369 
0.0639904 0.00799795 -0.758072 0.0632574 0.00930288 -0.754756 0.0623119 0.0107708 -0.750243 
0.0611161 0.0123732 -0.744405 0.0596294 0.0140787 -0.737171 0.0578091 0.0158563 -0.728538 
0.0556106 0.0176789 -0.71857 0.0529884 0.019527 -0.707387 0.0498972 0.0213927 -0.695151 
0.0462943 0.0232815 -0.682052 0.0421418 0.0252135 -0.668281 0.0374104 0.0272222 -0.654016 
0.0320832 0.0293516 -0.639404 0.0261595 0.0316515 -0.624543 0.0196582 0.0341707 -0.609483 
0.0126202 0.0369504 -0.59422 0.00510942 0.0400171 -0.578702 -0.00278834 0.0433764 -0.562842 
-0.0109686 0.0470092 -0.546532 -0.0193136 0.0508696 -0.529657 -0.0276995 0.054886 -0.512113 
-0.0360049 0.0589653 -0.493818 -0.0441201 0.0629991 -0.474727 -0.0519555 0.0668721 -0.454832 
-0.0594486 0.0704718 -0.434166 -0.0665691 0.0736972 -0.412794 -0.0733199 0.0764677 -0.39081 
-0.0797356 0.0787285 -0.368322 -0.0858761 0.0804546 -0.345441 -0.0918179 0.0816499 -0.322267 
-0.0976429 0.0823452 -0.298884 -0.103425 0.0825915 -0.27535 -0.109218 0.0824526 -0.251694 
-0.115044 0.0819962 -0.227919 -0.120885 0.081285 -0.204009 -0.126679 0.0803694 -0.179931 
-0.13232 0.0792824 -0.15565 -0.137662 0.0780366 -0.131136 -0.142532 0.0766256 -0.106372 
-0.146739 0.0750267 -0.0813639 -0.150095 0.0732078 -0.0561392 -0.152425 0.0711343 -0.0307509 
-0.153591 0.068778 -0.0052728 -0.153496 0.0661243 0.0202054 -0.1521 0.0631785 0.0455859 
-0.149423 0.0599695 0.0707708 -0.145539 0.0565508 0.0956703 -0.140578 0.0529981 0.120209 
-0.134705 0.0494044 0.144329 -0.128115 0.0458731 0.167993 -0.121009 0.0425095 0.191184 
-0.113582 0.0394124 0.2139 -0.106007 0.0366664 0.236146 -0.0984247 0.0343354 0.257936 
-0.0909317 0.0324595 0.279277 -0.0835812 0.031053 0.300172 -0.0763833 0.0301069 0.320609 
-0.0693109 0.0295921 0.340568 -0.0623093 0.029465 0.360014 -0.0553072 0.0296736 0.378906 
-0.0482295 0.0301642 0.397201 -0.0410085 0.0308859 0.414861 -0.0335936 0.0317952 0.431857 
-0.0259582 0.0328574 0.448178 -0.0181034 0.0340466 0.463833 -0.0100584 0.035344 0.478856 
-0.001877 0.0367344 0.4933 0.00636728 0.0382028 0.507238 0.0145883 0.0397308 0.520753 
0.0226947 0.0412932 0.533934 0.0305976 0.0428571 0.546864 0.0382159 0.0443817 0.559611 
0.0454812 0.0458202 0.572219 0.0523402 0.0471236 0.584706 0.058755 0.0482445 0.597055 
0.0647021 0.0491423 0.609218 0.0701699 0.0497878 0.621115 0.0751563 0.0501666 0.632642 
0.0796653 0.0502812 0.643679 0.083705 0.0501511 0.654099 0.0872858 0.0498115 0.663782 
0.0904201 0.0493092 0.672619 0.0931225 0.0486984 0.680528 0.0954104 0.0480351 0.687457 
0.0973056 0.0473718 0.69339 0.0988351 0.0467531 0.698345 0.100032 0.0462122 0.702376 
0.100933 0.0457695 0.705562 0.101582 0.0454326 0.708005 0.102023 0.0451985 0.709813 
0.102297 0.0450565 0.711098 0.102443 0.0449926 0.711955 0.102492 0.0449928 0.712464 
0.102463 0.0450472 0.712673 
LINES 2 100
OFFSETS vtktypeint64
0 100 
CONNECTIVITY vtktypeint64
0 1 2 3 4 5 6 7 8 
9 10 11 12 13 14 15 16 17 
18 19 20 21 22 23 24 25 26 
27 28 29 30 31 32 33 34 35 
36 37 38 39 40 41 42 43 44 
45 46 47 48 49 50 51 52 53 
54 55 56 57 58 59 60 61 62 
63 64 65 66 67 68 69 70 71 
72 73 74 75 76 77 78 79 80 
81 82 83 84 85 86 87 88 89 
90 91 92 93 94 95 96 97 98 
99 
POINT_DATA 100
FIELD FieldData 3
_theta 1 100 double
0 0.031733259127 0.063466518254 0.095199777382 0.12693303651 0.15866629564 0.19039955476 0.22213281389 0.25386607302 
0.28559933214 0.31733259127 0.3490658504 0.38079910953 0.41253236865 0.44426562778 0.47599888691 0.50773214603 0.53946540516 
0.57119866429 0.60293192342 0.63466518254 0.66639844167 0.6981317008 0.72986495992 0.76159821905 0.79333147818 0.82506473731 
0.85679799643 0.88853125556 0.92026451469 0.95199777382 0.98373103294 1.0154642921 1.0471975512 1.0789308103 1.1106640695 
1.1423973286 1.1741305877 1.2058638468 1.237597106 1.2693303651 1.3010636242 1.3327968833 1.3645301425 1.3962634016 
1.4279966607 1.4597299198 1.491463179 1.5231964381 1.5549296972 1.5866629564 1.6183962155 1.6501294746 1.6818627337 
1.7135959929 1.745329252 1.7770625111 1.8087957702 1.8405290294 1.8722622885 1.9039955476 1.9357288068 1.9674620659 
1.999195325 2.0309285841 2.0626618433 2.0943951024 2.1261283615 2.1578616206 2.1895948798 2.2213281389 2.253061398 
2.2847946572 2.3165279163 2.3482611754 2.3799944345 2.4117276937 2.4434609528 2.4751942119 2.506927471 2.5386607302 
2.5703939893 2.6021272484 2.6338605076 2.6655937667 2.6973270258 2.7290602849 2.7607935441 2.7925268032 2.8242600623 
2.8559933214 2.8877265806 2.9194598397 2.9511930988 2.982926358 3.0146596171 3.0463928762 3.0781261353 3.1098593945 
3.1415926536 
_radius 1 100 double
1.1118819698e-16 0.015184697551 0.030213847439 0.0449374677 0.059220927596 0.072950294384 0.086035356444 0.098410261171 0.11003208962 
0.12087794758 0.13094122989 0.14022761801 0.14875117115 0.15653067753 0.16358634578 0.16993697616 0.17559791197 0.18058021129 
0.18489146469 0.18853844421 0.19153134675 0.19388893602 0.19564356012 0.19684493168 0.19756171612 0.19788032282 0.19790076232 
0.19772994835 0.19747330228 0.19722585368 0.19706412591 0.19703992041 0.19717673686 0.19746913874 0.19788503078 0.19837059838 
0.1988575037 0.19927174726 0.19954335037 0.19961575339 0.19945369758 0.19904851148 0.19842019514 0.19761636039 0.19670871361 
0.19578812547 0.19495925509 0.19433514202 0.19403134522 0.19415857863 0.1948129376 0.19606394577 0.19794232027 0.20043061545 
0.20345996018 0.20691480792 0.21064548376 0.21448614716 0.21827438478 0.22186851068 0.22515970945 0.22807780155 0.2305909218 
0.23270036747 0.23443223411 0.23582736893 0.23693085525 0.23778191862 0.23840497989 0.23880261135 0.23895127571 0.23880073863 
0.23827775571 0.23729398076 0.2357571387 0.23358363259 0.23071023798 0.22710260618 0.22275895642 0.21770837541 0.21200424809 
0.20571423125 0.19890867373 0.19164942987 0.1839806617 0.17592263119 0.16746884886 0.15858646483 0.14921956367 0.13929501299 
0.12873056126 0.11744482376 0.10536857741 0.092456460188 0.078697843254 0.064125423902 0.048820086332 0.032910878105 0.016569559828 
4.2514132054e-16 
_area 1 100 double
0 0.00060098739642 0.0023781879429 0.0052578498153 0.0091277134843 0.013849625936 0.019271993222 0.025239525851 0.031599174255 
0.038202647283 0.044906979177 0.05157497691 0.058076931685 0.064293864344 0.070121291608 0.075471766216 0.080274783994 0.084474003284 
0.088023432905 0.090885371953 0.093032619975 0.094455823517 0.095175508049 0.09526236417 0.094867239565 0.094131964989 0.093146714728 
0.092031243141 0.090973206219 0.090161479763 0.089733625316 0.089752845667 0.090203741117 0.091005227043 0.092034197612 0.093152331855 
0.09423197446 0.095180272578 0.095961098207 0.096612670607 0.097248122109 0.097996335105 0.098875602609 0.099756275548 0.10056921486 
0.10126672434 0.10175372684 0.10209947905 0.10244055278 0.10294821105 0.10381171163 0.10522235124 0.10735008289 0.110313195 
0.11415134834 0.11880937334 0.1241342 0.12988841642 0.13578106562 0.14150878959 0.14679693088 0.15143197999 0.15528028777 
0.15829141472 0.16048757572 0.16194297065 0.16275783841 0.16303196649 0.16284188817 0.16222549687 0.16117677169 0.15965105967 
0.15757856938 0.15488224039 0.1514965367 0.14738449612 0.14255030297 0.13704412141 0.13095619483 0.12439953595 0.11748539664 
0.11030120496 0.10290175364 0.095317578778 0.087574007697 0.079709073322 0.071781492431 0.063866910196 0.056046585524 0.048395680071 
0.040978124553 0.033851642172 0.0270809684 0.020752749121 0.014984908747 0.0099260778964 0.0057443860792 0.0026078542467 0.00066057844269 
1.1529814735e-16 
