# vtk DataFile Version 5.1
vtk output
ASCII
DATASET POLYDATA
POINTS 100 float
0.0813518 0.0425789 0.686209 0.0814983 0.0426084 0.685515 0.0818895 0.0428067 0.683616 
0.0824732 0.0431438 0.680573 0.0831701 0.0435737 0.676475 0.0838838 0.0440411 0.671435 
0.0845123 0.0444891 0.665576 0.0849606 0.0448668 0.65902 0.085151 0.0451356 0.651882 
0.0850316 0.0452743 0.644255 0.0845802 0.045281 0.636209 0.0838037 0.0451718 0.62779 
0.0827338 0.0449772 0.61902 0.081419 0.044736 0.609904 0.0799136 0.0444882 0.600432 
0.0782672 0.0442667 0.590595 0.0765143 0.0440914 0.580384 0.0746666 0.0439643 0.569804 
0.0727093 0.0438678 0.558869 0.070601 0.0437659 0.547611 0.0682786 0.0436086 0.536071 
0.0656657 0.0433391 0.524298 0.0626832 0.0429025 0.512341 0.059261 0.0422546 0.500243 
0.0553494 0.0413704 0.488032 0.0509273 0.0402501 0.475718 0.0460075 0.0389227 0.463293 
0.0406366 0.0374453 0.450725 0.0348915 0.0358996 0.437967 0.0288701 0.0343843 0.424958 
0.0226805 0.0330056 0.411635 0.0164273 0.0318664 0.397937 0.0101992 0.0310558 0.383814 
0.00405848 0.0306393 0.36923 -0.00196659 0.0306524 0.35417 -0.0078834 0.0310977 0.338636 
-0.0137322 0.0319455 0.322644 -0.019578 0.033138 0.306222 -0.0254984 0.0345974 0.289398 
-0.0315691 0.0362355 0.272195 -0.0378481 0.0379639 0.254625 -0.0443617 0.039705 0.236683 
-0.0510935 0.0413993 0.218343 -0.057978 0.0430115 0.199566 -0.0649 0.0445324 0.180297 
-0.0716995 0.0459774 0.160479 -0.0781828 0.0473812 0.140059 -0.0841368 0.048791 0.118999 
-0.0893465 0.0502571 0.0972869 -0.0936133 0.0518245 0.0749411 -0.0967712 0.0535241 0.0520154 
-0.0987007 0.0553674 0.0285984 -0.099337 0.0573433 0.00480876 -0.0986735 0.0594182 -0.0192132 
-0.0967596 0.0615394 -0.0433167 -0.0936926 0.0636408 -0.0673531 -0.089607 0.0656505 -0.0911884 
-0.0846595 0.0674988 -0.114714 -0.0790148 0.0691256 -0.137854 -0.0728311 0.0704867 -0.160569 
-0.0662489 0.0715564 -0.182854 -0.0593826 0.0723293 -0.204734 -0.0523164 0.0728172 -0.226256 
-0.0451044 0.0730447 -0.247472 -0.0377743 0.0730435 -0.268434 -0.0303335 0.0728444 -0.289178 
-0.0227769 0.0724715 -0.309713 -0.015095 0.0719363 -0.330022 -0.00728142 0.0712347 -0.350056 
0.000662048 0.0703466 -0.369739 0.00872185 0.0692378 -0.388974 0.016872 0.0678647 -0.407657 
0.0250752 0.0661808 -0.425683 0.0332861 0.0641438 -0.442961 0.0414545 0.0617229 -0.459424 
0.0495295 0.0589051 -0.475033 0.0574621 0.0556989 -0.489778 0.0652073 0.0521365 -0.503683 
0.0727244 0.0482723 -0.51679 0.0799756 0.0441796 -0.529158 0.0869247 0.0399446 -0.540847 
0.093534 0.0356599 -0.551911 0.099763 0.0314164 -0.562384 0.105567 0.0272969 -0.572278 
0.110897 0.02337 -0.58158 0.115704 0.0196873 -0.590249 0.11994 0.0162813 -0.598228 
0.123567 0.0131667 -0.605452 0.126557 0.0103434 -0.611857 0.128905 0.00780062 -0.617394 
0.130628 0.00552197 -0.62204 0.131769 0.0034904 -0.625802 0.132398 0.00169224 -0.628726 
0.132607 0.000119913 -0.630891 0.132506 -0.00122686 -0.632404 0.132212 -0.00234157 -0.633391 
0.131841 -0.00321279 -0.633983 0.131498 -0.00382692 -0.634301 0.131266 -0.0041713 -0.634443 
0.131195 -0.00423698 -0.634475 
LINES 2 100
OFFSETS vtktypeint64
0 100 
CONNECTIVITY vtktypeint64
0 1 2 3 4 5 6 7 8 
9 10 11 12 13 14 15 16 17 
18 19 20 21 22 23 24 25 26 
27 28 29 30 31 32 33 34 35 
36 37 38 39 40 41 42 43 44 
45 46 47 48 49 50 51 52 53 
54 55 56 57 58 59 60 61 62 
63 64 65 66 67 68 69 70 71 
72 73 74 75 76 77 78 79 80 
81 82 83 84 85 86 87 88 89 
90 91 92 93 94 95 96 97 98 
99 
POINT_DATA 100
FIELD FieldData 3
_theta 1 100 double
0 0.031733259127 0.063466518254 0.095199777382 0.12693303651 0.15866629564 0.19039955476 0.22213281389 0.25386607302 
0.28559933214 0.31733259127 0.3490658504 0.38079910953 0.41253236865 0.44426562778 0.47599888691 0.50773214603 0.53946540516 
0.57119866429 0.60293192342 0.63466518254 0.66639844167 0.6981317008 0.72986495992 0.76159821905 0.79333147818 0.82506473731 
0.85679799643 0.88853125556 0.92026451469 0.95199777382 0.98373103294 1.0154642921 1.0471975512 1.0789308103 1.1106640695 
1.1423973286 1.1741305877 1.2058638468 1.237597106 1.2693303651 1.3010636242 1.3327968833 1.3645301425 1.3962634016 
1.4279966607 1.4597299198 1.491463179 1.5231964381 1.5549296972 1.5866629564 1.6183962155 1.6501294746 1.6818627337 
1.7135959929 1.745329252 1.7770625111 1.8087957702 1.8405290294 1.8722622885 1.9039955476 1.9357288068 1.9674620659 
1.999195325 2.0309285841 2.0626618433 2.0943951024 2.1261283615 2.1578616206 2.1895948798 2.2213281389 2.253061398 
2.2847946572 2.3165279163 2.3482611754 2.3799944345 2.4117276937 2.4434609528 2.4751942119 2.506927471 2.5386607302 
2.5703939893 2.6021272484 2.6338605076 2.6655937667 2.6973270258 2.7290602849 2.7607935441 2.7925268032 2.8242600623 
2.8559933214 2.8877265806 2.9194598397 2.9511930988 2.982926358 3.0146596171 3.0463928762 3.0781261353 3.1098593945 
3.1415926536 
_radius 1 100 double
1.1188630228e-15 0.012568152688 0.025079773839 0.037482936843 0.04972558477 0.061755953934 0.073523613605 0.08498099007 0.096085091982 
0.10679912281 0.117093769 0.12694813152 0.13635041111 0.14529845237 0.15380006547 0.16187277143 0.16954244466 0.17684041959 
0.18379901589 0.19044598859 0.19679891102 0.20286075504 0.20861783845 0.21404086405 0.21908908061 0.22371683906 0.22788121796 
0.23154913612 0.2347025306 0.23734069257 0.23947954495 0.24114828563 0.24238421218 0.24322662068 0.24371053068 0.24386082122 
0.24368731344 0.24318141576 0.24231505763 0.24104263971 0.23930651856 0.23704608236 0.23420980686 0.23076893273 0.22673075838 
0.22214917626 0.21713011028 0.21182997458 0.20644617891 0.20120007905 0.19631455096 0.19199013611 0.1883845719 0.18559963196 
0.18367667703 0.1825994618 0.1823010738 0.18267207048 0.18356859464 0.18482138608 0.18624765953 0.1876668078 0.18891846648 
0.18987952402 0.19047645874 0.19069064726 0.19055595633 0.19014930633 0.18957589372 0.1889514763 0.1883844629 0.18796032755 
0.1877301018 0.18770369041 0.18784791673 0.1880887814 0.18831732683 0.18839844661 0.18818174319 0.18751317284 0.18624598507 
0.1842495892 0.18141548102 0.17766005108 0.17292473135 0.16717434406 0.16039463932 0.15258987765 0.14378100739 0.13400459881 
0.12331232357 0.11177049469 0.099459080192 0.086469711459 0.072902518837 0.058862062308 0.044453044536 0.029776730346 0.014928928177 
2.0635760418e-16 
_area 1 100 double
0 0.00046069542516 0.0018314797846 0.0040783757055 0.0071448385709 0.010952847295 0.015405832335 0.020393882102 0.025801015006 
0.031513729559 0.03742971042 0.043465427798 0.049561389625 0.055684118786 0.061824577034 0.067993414598 0.074213677678 0.080511598175 
0.086906468427 0.093401535857 0.099978411813 0.1065966534 0.11319831789 0.11971580995 0.12608082952 0.13223173735 0.13811552184 
0.14368119451 0.14886775668 0.1535979058 0.1577858934 0.1613550675 0.16425393255 0.1664636549 0.16799623484 0.16888566691 
0.16917448909 0.16889753198 0.16806603695 0.16665801803 0.1646203707 0.16188355215 0.15838494383 0.15409480248 0.14903831563 
0.14330827424 0.13706520649 0.13052470626 0.12393390194 0.11753988132 0.11155490415 0.10613184412 0.10137420117 0.097398876871 
0.094343910836 0.092108469876 0.09050752541 0.089379069256 0.08859140869 0.088016940295 0.087514651861 0.086945763113 0.086198207967 
0.085196271031 0.083899615535 0.082302015318 0.080434829744 0.078369523289 0.07621307724 0.074096910601 0.072163952055 0.070558633823 
0.069421345479 0.068887528483 0.069043817871 0.069792965363 0.070956186265 0.072341901035 0.073732774336 0.074899767786 0.075622428524 
0.075706901212 0.074997866366 0.073383874082 0.070798596153 0.067221924007 0.062683537249 0.057268418093 0.051120970411 0.044443605738 
0.037486963529 0.03053130007 0.023861058323 0.017736799183 0.012370173951 0.0079079089045 0.0044293662041 0.0019587626912 0.00048781391046 
6.6386844217e-19 
