# vtk DataFile Version 5.1
vtk output
ASCII
DATASET POLYDATA
POINTS 100 float
0.125638 0.027975 0.666713 0.125887 0.0281604 0.66656 0.126671 0.0285437 0.665964 
0.127905 0.0290974 0.66491 0.129454 0.02978 0.663377 0.131148 0.0305416 0.661337 
0.132796 0.0313298 0.658751 0.134203 0.0320964 0.655577 0.135189 0.0328028 0.65177 
0.135598 0.0334232 0.647282 0.135314 0.0339468 0.64207 0.134266 0.0343763 0.6361 
0.132426 0.0347252 0.62935 0.129806 0.0350125 0.621817 0.126457 0.0352574 0.613521 
0.122448 0.0354732 0.6045 0.117864 0.0356634 0.59482 0.112789 0.0358183 0.584562 
0.107302 0.0359153 0.573824 0.101465 0.0359207 0.562709 0.0953228 0.0357952 0.551318 
0.0889041 0.0354993 0.539741 0.0822239 0.0350017 0.528049 0.0752902 0.0342858 0.516288 
0.0681109 0.0333557 0.504471 0.0607008 0.0322401 0.492585 0.0530876 0.0309924 0.480585 
0.0453149 0.0296886 0.468406 0.0374429 0.0284215 0.455971 0.029545 0.027293 0.443197 
0.0217027 0.0264039 0.430012 0.0139973 0.0258446 0.416355 0.00650147 0.0256857 0.402194 
-0.000729431 0.0259712 0.387519 -0.00766414 0.0267141 0.37235 -0.0142996 0.0278958 0.356727 
-0.0206616 0.0294689 0.340707 -0.0268012 0.031363 0.324349 -0.032788 0.0334924 0.307706 
-0.0386993 0.035766 0.290813 -0.0446085 0.0380961 0.273678 -0.0505721 0.0404067 0.256275 
-0.0566177 0.0426395 0.238544 -0.0627346 0.0447569 0.220394 -0.0688678 0.0467426 0.201712 
-0.074917 0.0485987 0.182372 -0.0807399 0.0503414 0.162254 -0.0861607 0.0519943 0.141256 
-0.090982 0.0535829 0.119309 -0.0950001 0.0551285 0.0963928 -0.098021 0.0566446 0.0725395 
-0.0998773 0.0581347 0.0478385 -0.100441 0.0595933 0.0224332 -0.0996377 0.0610084 -0.00348789 
-0.0974481 0.0623653 -0.0297041 -0.0939148 0.0636514 -0.0559791 -0.0891367 0.0648606 -0.0820784 
-0.0832622 0.0659962 -0.107787 -0.0764774 0.0670718 -0.132925 -0.0689927 0.0681101 -0.157358 
-0.0610278 0.0691385 -0.181002 -0.0527966 0.0701842 -0.203829 -0.0444942 0.0712665 -0.225855 
-0.0362863 0.0723905 -0.247137 -0.0283016 0.0735411 -0.267759 -0.0206277 0.0746804 -0.287817 
-0.0133114 0.0757465 -0.307406 -0.00636165 0.0766582 -0.326608 0.000245136 0.0773211 -0.345482 
0.00655699 0.077638 -0.364058 0.012638 0.0775207 -0.38234 0.0185596 0.0769013 -0.400301 
0.0243923 0.0757436 -0.417896 0.0301985 0.0740508 -0.435067 0.0360276 0.0718687 -0.451751 
0.0419117 0.0692849 -0.46789 0.0478643 0.0664223 -0.483436 0.0538799 0.0634278 -0.498356 
0.0599352 0.060458 -0.512634 0.0659913 0.0576626 -0.526272 0.0719976 0.0551685 -0.539279 
0.0778944 0.0530654 -0.551674 0.0836181 0.0513961 -0.563477 0.0891038 0.0501516 -0.5747 
0.0942899 0.0492733 -0.585349 0.0991213 0.0486602 -0.595416 0.103552 0.0481823 -0.604884 
0.107547 0.0476974 -0.613723 0.111086 0.0470701 -0.621899 0.114161 0.0461894 -0.629375 
0.116779 0.0449845 -0.636119 0.118957 0.0434349 -0.642106 0.120729 0.0415749 -0.647324 
0.122131 0.0394908 -0.651773 0.12321 0.0373116 -0.655465 0.124011 0.0351946 -0.658422 
0.124579 0.0333067 -0.660673 0.124955 0.0318046 -0.662246 0.125168 0.0308159 -0.663169 
0.125238 0.0304236 -0.663457 
LINES 2 100
OFFSETS vtktypeint64
0 100 
CONNECTIVITY vtktypeint64
0 1 2 3 4 5 6 7 8 
9 10 11 12 13 14 15 16 17 
18 19 20 21 22 23 24 25 26 
27 28 29 30 31 32 33 34 35 
36 37 38 39 40 41 42 43 44 
45 46 47 48 49 50 51 52 53 
54 55 56 57 58 59 60 61 62 
63 64 65 66 67 68 69 70 71 
72 73 74 75 76 77 78 79 80 
81 82 83 84 85 86 87 88 89 
90 91 92 93 94 95 96 97 98 
99 
POINT_DATA 100
FIELD FieldData 3
_theta 1 100 double
0 0.031733259127 0.063466518254 0.095199777382 0.12693303651 0.15866629564 0.19039955476 0.22213281389 0.25386607302 
0.28559933214 0.31733259127 0.3490658504 0.38079910953 0.41253236865 0.44426562778 0.47599888691 0.50773214603 0.53946540516 
0.57119866429 0.60293192342 0.63466518254 0.66639844167 0.6981317008 0.72986495992 0.76159821905 0.79333147818 0.82506473731 
0.85679799643 0.88853125556 0.92026451469 0.95199777382 0.98373103294 1.0154642921 1.0471975512 1.0789308103 1.1106640695 
1.1423973286 1.1741305877 1.2058638468 1.237597106 1.2693303651 1.3010636242 1.3327968833 1.3645301425 1.3962634016 
1.4279966607 1.4597299198 1.491463179 1.5231964381 1.5549296972 1.5866629564 1.6183962155 1.6501294746 1.6818627337 
1.7135959929 1.745329252 1.7770625111 1.8087957702 1.8405290294 1.8722622885 1.9039955476 1.9357288068 1.9674620659 
1.999195325 2.0309285841 2.0626618433 2.0943951024 2.1261283615 2.1578616206 2.1895948798 2.2213281389 2.253061398 
2.2847946572 2.3165279163 2.3482611754 2.3799944345 2.4117276937 2.4434609528 2.4751942119 2.506927471 2.5386607302 
2.5703939893 2.6021272484 2.6338605076 2.6655937667 2.6973270258 2.7290602849 2.7607935441 2.7925268032 2.8242600623 
2.8559933214 2.8877265806 2.9194598397 2.9511930988 2.982926358 3.0146596171 3.0463928762 3.0781261353 3.1098593945 
3.1415926536 
_radius 1 100 double
6.8100215169e-16 0.016161216115 0.032196001848 0.047983050089 0.063416611614 0.078410654488 0.092899625282 0.1068363299 0.12018822894 
0.13293374489 0.14505987074 0.15656157849 0.16744259854 0.17771647216 0.18740661042 0.19654443211 0.20516532137 0.21330289649 
0.22098268891 0.22821664321 0.23499979339 0.24131006011 0.24711144439 0.25236013722 0.25701242802 0.26103294068 0.26440171198 
0.26711890043 0.26920636476 0.27070587345 0.27167422233 0.27217598586 0.2722749549 0.27202547897 0.27146492045 0.27060826645 
0.26944567803 0.26794343417 0.26604837466 0.26369557499 0.26081861 0.2573614147 0.25329047511 0.24860592563 0.24335011799 
0.23761236769 0.23152887612 0.22527728063 0.21906591529 0.21311865758 0.20765707615 0.20288223234 0.19895862143 0.19600219173 
0.19407327274 0.19317400703 0.1932491164 0.19418900823 0.19583525339 0.19798950374 0.20042691245 0.20291382361 0.20522777211 
0.20717680007 0.20861517453 0.20945347177 0.20966215603 0.20926884062 0.20835018506 0.20701979634 0.2054135843 0.20367386824 
0.20193332706 0.20029983324 0.1988433744 0.19758645902 0.19649931044 0.19550060324 0.19446361977 0.19322685044 0.19160753824 
0.18941655023 0.1864731116 0.18261817539 0.17772543097 0.17170918225 0.16452859069 0.15618808831 0.14673410184 0.13624856115 
0.12483997363 0.11263311174 0.099758549766 0.086343336927 0.072503934199 0.058342129111 0.043944028431 0.029381588529 0.014715722807 
8.6113223404e-16 
_area 1 100 double
0 0.00063835781658 0.0025310222274 0.0056136008745 0.0097872690923 0.014928666808 0.020899477248 0.027553882589 0.034743586686 
0.042321479098 0.0501456791 0.058085404027 0.066029056139 0.073893625127 0.081633407996 0.089245249722 0.096767015768 0.10426644526 
0.11182008052 0.11948644564 0.12728105256 0.13516052107 0.14302044833 0.15070853586 0.15805021612 0.16487920285 0.1710634329 
0.17651973087 0.18121621567 0.18516617219 0.18841821418 0.19104519245 0.19313112093 0.19475451887 0.19596883452 0.19678361742 
0.19715114012 0.19696387695 0.1960689663 0.19429829015 0.19150264816 0.18758063446 0.18249928904 0.17630531184 0.16912577755 
0.16115878202 0.15265666289 0.14390551432 0.13520373665 0.12684041903 0.11907342385 0.11210948353 0.10609593907 0.10113432391 
0.09729335753 0.094584412854 0.09294180269 0.092233724566 0.09228362376 0.092872877039 0.093751758631 0.094924260473 0.095990758391 
0.096833279905 0.097305791385 0.097323889243 0.0968005096 0.095725733049 0.094225302626 0.092422324422 0.09054470883 0.088904710909 
0.087698259354 0.087032625649 0.087051449773 0.08766187667 0.088810123389 0.090329477429 0.091828118146 0.092927904324 0.093346561996 
0.092851113099 0.091258888135 0.088450257709 0.084381470198 0.079093068266 0.072710798271 0.065437448232 0.057536029776 0.049306598722 
0.041060177039 0.033093490397 0.025667765414 0.018993968309 0.013225842197 0.0084609925433 0.0047491040189 0.0021052371559 0.00052525115892 
1.0842021725e-17 
