# vtk DataFile Version 5.1
vtk output
ASCII
DATASET POLYDATA
POINTS 100 float
0.0645 -0.000620667 -0.684452 0.0645418 -0.000405678 -0.684248 0.0646544 0.000405446 -0.683668 
0.0648132 0.00175142 -0.68264 0.0649787 0.00353646 -0.681055 0.0651 0.0056401 -0.678782 
0.0651184 0.00792932 -0.675679 0.0649709 0.010272 -0.67162 0.0645938 0.0125502 -0.666503 
0.0639261 0.0146716 -0.660269 0.0629116 0.0165784 -0.652904 0.0615001 0.0182524 -0.644446 
0.0596484 0.0197163 -0.634976 0.0573202 0.0210298 -0.62461 0.0544858 0.0222827 -0.613485 
0.0511222 0.0235843 -0.60174 0.0472139 0.0250508 -0.589503 0.0427535 0.0267923 -0.576876 
0.0377437 0.0288995 -0.563921 0.0321998 0.0314331 -0.550662 0.0261521 0.0344158 -0.537078 
0.0196481 0.0378279 -0.523113 0.0127544 0.0416072 -0.508684 0.00555652 0.0456533 -0.493699 
-0.00184272 0.0498347 -0.478066 -0.00932658 0.0539993 -0.461709 -0.01677 0.057987 -0.444578 
-0.024047 0.0616422 -0.426658 -0.0310386 0.0648259 -0.407968 -0.0376416 0.0674263 -0.388561 
-0.0437762 0.0693663 -0.368513 -0.0493919 0.0706076 -0.347918 -0.0544717 0.0711519 -0.326872 
-0.0590316 0.0710379 -0.305463 -0.0631184 0.0703358 -0.283759 -0.0668025 0.0691391 -0.261807 
-0.0701694 0.0675557 -0.239622 -0.0733081 0.0656979 -0.217196 -0.0762992 0.0636739 -0.1945 
-0.079204 0.0615798 -0.171494 -0.0820544 0.0594945 -0.148138 -0.0848468 0.0574767 -0.124402 
-0.0875393 0.0555643 -0.100277 -0.0900532 0.0537766 -0.0757814 -0.0922788 0.052117 -0.0509641 
-0.0940848 0.0505789 -0.0259068 -0.0953296 0.0491499 -0.000717709 -0.0958756 0.0478175 0.0244741 
-0.095601 0.0465728 0.0495286 -0.0944124 0.0454136 0.0743046 -0.0922527 0.0443455 0.0986693 
-0.0891065 0.0433817 0.122507 -0.0850005 0.042541 0.145724 -0.0800007 0.0418457 0.168251 
-0.0742045 0.0413179 0.190045 -0.0677317 0.040976 0.211086 -0.0607131 0.0408327 0.231371 
-0.053279 0.040892 0.250911 -0.0455491 0.0411492 0.269727 -0.0376247 0.0415905 0.287844 
-0.029584 0.0421951 0.305291 -0.0214804 0.0429369 0.322101 -0.0133447 0.0437874 0.338311 
-0.00518975 0.0447185 0.353965 0.00298271 0.0457047 0.369117 0.0111747 0.0467249 0.383833 
0.0193845 0.0477628 0.398191 0.0276008 0.0488065 0.412279 0.0357982 0.0498472 0.426193 
0.0439363 0.0508772 0.440027 0.0519609 0.0518868 0.453868 0.0598071 0.0528626 0.467783 
0.0674051 0.053785 0.481817 0.0746862 0.0546278 0.495978 0.0815894 0.0553577 0.51024 
0.0880661 0.0559366 0.524538 0.0940846 0.0563235 0.538774 0.0996312 0.056479 0.552823 
0.10471 0.0563689 0.566545 0.109339 0.0559692 0.579799 0.113547 0.0552693 0.592454 
0.117369 0.0542756 0.604404 0.12084 0.0530122 0.615577 0.123989 0.0515207 0.625939 
0.126839 0.0498584 0.635499 0.129402 0.0480939 0.644302 0.131683 0.0463022 0.652422 
0.13368 0.0445589 0.659949 0.135387 0.0429335 0.666976 0.136801 0.0414843 0.673584 
0.137924 0.0402533 0.679828 0.138766 0.0392641 0.685732 0.139349 0.0385202 0.691279 
0.139707 0.0380068 0.696415 0.139883 0.0376938 0.701055 0.139925 0.0375404 0.705089 
0.139885 0.0375011 0.7084 0.139809 0.0375318 0.710876 0.139736 0.0375958 0.712426 
0.139691 0.0376683 0.712988 
LINES 2 100
OFFSETS vtktypeint64
0 100 
CONNECTIVITY vtktypeint64
0 1 2 3 4 5 6 7 8 
9 10 11 12 13 14 15 16 17 
18 19 20 21 22 23 24 25 26 
27 28 29 30 31 32 33 34 35 
36 37 38 39 40 41 42 43 44 
45 46 47 48 49 50 51 52 53 
54 55 56 57 58 59 60 61 62 
63 64 65 66 67 68 69 70 71 
72 73 74 75 76 77 78 79 80 
81 82 83 84 85 86 87 88 89 
90 91 92 93 94 95 96 97 98 
99 
POINT_DATA 100
FIELD FieldData 3
_theta 1 100 double
0 0.031733259127 0.063466518254 0.095199777382 0.12693303651 0.15866629564 0.19039955476 0.22213281389 0.25386607302 
0.28559933214 0.31733259127 0.3490658504 0.38079910953 0.41253236865 0.44426562778 0.47599888691 0.50773214603 0.53946540516 
0.57119866429 0.60293192342 0.63466518254 0.66639844167 0.6981317008 0.72986495992 0.76159821905 0.79333147818 0.82506473731 
0.85679799643 0.88853125556 0.92026451469 0.95199777382 0.98373103294 1.0154642921 1.0471975512 1.0789308103 1.1106640695 
1.1423973286 1.1741305877 1.2058638468 1.237597106 1.2693303651 1.3010636242 1.3327968833 1.3645301425 1.3962634016 
1.4279966607 1.4597299198 1.491463179 1.5231964381 1.5549296972 1.5866629564 1.6183962155 1.6501294746 1.6818627337 
1.7135959929 1.745329252 1.7770625111 1.8087957702 1.8405290294 1.8722622885 1.9039955476 1.9357288068 1.9674620659 
1.999195325 2.0309285841 2.0626618433 2.0943951024 2.1261283615 2.1578616206 2.1895948798 2.2213281389 2.253061398 
2.2847946572 2.3165279163 2.3482611754 2.3799944345 2.4117276937 2.4434609528 2.4751942119 2.506927471 2.5386607302 
2.5703939893 2.6021272484 2.6338605076 2.6655937667 2.6973270258 2.7290602849 2.7607935441 2.7925268032 2.8242600623 
2.8559933214 2.8877265806 2.9194598397 2.9511930988 2.982926358 3.0146596171 3.0463928762 3.0781261353 3.1098593945 
3.1415926536 
_radius 1 100 double
1.0129834522e-15 0.014070122692 0.028041052049 0.041818129316 0.05531822052 0.068473124919 0.081230493612 0.093552060172 0.10540941512 
0.11677798765 0.12763027684 0.13792962522 0.14762586809 0.15665397138 0.16493630897 0.17238861434 0.17892899671 0.18448885461 
0.18902413905 0.19252526684 0.19502408067 0.19659658406 0.19736070865 0.19746905402 0.19709731474 0.19642986802 0.19564454864 
0.19489874683 0.19431847353 0.19399106352 0.19396118741 0.19422939716 0.19475282382 0.19544858628 0.19620120389 0.19687510906 
0.19733208678 0.19745171968 0.19715158467 0.19640356867 0.19524318014 0.19376977579 0.19213697839 0.19053428516 0.18916297709 
0.18821132737 0.18783445253 0.18814215664 0.18919482015 0.1910048505 0.19354059105 0.19673055844 0.20046749356 0.20461313561 
0.20900531656 0.21346861991 0.21782851214 0.22192713759 0.22563778168 0.22887495325 0.23159801782 0.23380776766 0.23553669925 
0.23683484597 0.23775381023 0.23833219445 0.2385857417 0.23850472606 0.23805924059 0.2372105119 0.23592437707 0.23418257666 
0.23198861339 0.22936688906 0.22635583057 0.22299722697 0.21932478797 0.21535490191 0.21108171982 0.20647724019 0.20149552966 
0.19607922495 0.19016637915 0.18369637219 0.17661449183 0.16887543545 0.160446185 0.1513085219 0.14146108263 0.1309205512 
0.11972151277 0.10791469273 0.095563677594 0.0827405974 0.069521499718 0.055982193476 0.042195192175 0.028228104625 0.014143499304 
9.9939936422e-16 
_area 1 100 double
0 0.00054400191929 0.0021575114013 0.0047873046848 0.0083515733826 0.012748333574 0.017864225359 0.023581991184 0.029785084171 
0.036358087974 0.043182491326 0.050129089313 0.05705013936 0.063775157744 0.070113303356 0.07586320838 0.080829137688 0.084841362801 
0.087778230815 0.0895865754 0.090295918871 0.090021755567 0.088955174839 0.087339682599 0.085439456423 0.083505420122 0.081750821127 
0.080363326015 0.079695331074 0.079898463871 0.080940725507 0.082786704093 0.085280782184 0.088176741224 0.091181159426 0.093985364949 
0.096299026826 0.097890496827 0.09862707571 0.098506115164 0.097669714194 0.096397371877 0.09506842756 0.094079012791 0.093724773581 
0.094142478244 0.09535180952 0.097311735817 0.099961712771 0.10327501968 0.10729059185 0.11200987631 0.11742408844 0.12354260079 
0.13025921016 0.13729532704 0.14424884598 0.15069291072 0.15626391343 0.16071615254 0.16394041207 0.16595082315 0.16685024499 
0.16678779949 0.16592050273 0.16438638339 0.16229246726 0.15971638756 0.15671254121 0.15331085043 0.14951595579 0.14533348161 
0.14081018308 0.13604251221 0.13114787583 0.12622027087 0.12128998442 0.11631033013 0.11118499658 0.10581741244 0.10014938706 
0.094174550709 0.087930966324 0.081482439478 0.074897129912 0.068230575523 0.061518451587 0.054781439591 0.04804025482 0.041334318068 
0.034735464786 0.028350639294 0.022313235568 0.016767527815 0.01185205453 0.0076865101615 0.0043644085011 0.0019516573335 0.00048958698525 
6.7827469727e-17 
