# vtk DataFile Version 5.1
vtk output
ASCII
DATASET POLYDATA
POINTS 100 float
0.0946792 0.0410146 0.66661 0.0949042 0.0410469 0.666214 0.0954632 0.0413186 0.66515 
0.0962892 0.0418095 0.663421 0.0972798 0.0424878 0.661033 0.0983094 0.0433125 0.657989 
0.0992431 0.0442366 0.654298 0.0999525 0.0452112 0.649965 0.100329 0.0461886 0.645 
0.100294 0.0471255 0.639413 0.0998079 0.0479849 0.63322 0.0988688 0.0487375 0.626442 
0.0975115 0.0493619 0.619105 0.0957986 0.0498436 0.611247 0.0938095 0.0501733 0.602912 
0.0916279 0.0503459 0.594152 0.0893287 0.0503575 0.585026 0.0869672 0.0502049 0.575593 
0.0845713 0.0498839 0.565912 0.0821379 0.0493898 0.556033 0.0796338 0.0487182 0.545993 
0.0770014 0.0478666 0.535812 0.0741672 0.0468372 0.525491 0.0710528 0.0456389 0.515006 
0.0675868 0.0442904 0.504316 0.0637148 0.0428221 0.493362 0.0594081 0.0412767 0.482071 
0.0546672 0.0397091 0.470369 0.0495227 0.0381847 0.458183 0.0440309 0.036776 0.445453 
0.0382664 0.0355578 0.432137 0.0323121 0.0346022 0.418214 0.0262487 0.0339724 0.403688 
0.0201439 0.0337175 0.388586 0.0140451 0.0338669 0.372953 0.00797416 0.0344277 0.356843 
0.00192716 0.0353825 0.340313 -0.00412199 0.0366905 0.323411 -0.0102141 0.03829 0.306168 
-0.0163942 0.040103 0.288593 -0.0227002 0.0420422 0.270666 -0.0291509 0.0440179 0.252342 
-0.0357368 0.0459462 0.233552 -0.0424131 0.047756 0.214215 -0.0490976 0.0493955 0.194245 
-0.0556732 0.0508359 0.173566 -0.0619947 0.052074 0.152122 -0.0678994 0.0531311 0.129891 
-0.0732204 0.0540499 0.106891 -0.0778008 0.0548892 0.0831824 -0.0815074 0.0557169 0.0588677 
-0.0842418 0.0566017 0.0340852 -0.0859484 0.0576048 0.00899786 -0.0866177 0.0587725 -0.01622 
-0.0862845 0.0601299 -0.041398 -0.0850224 0.0616766 -0.0663839 -0.0829341 0.0633853 -0.0910563 
-0.0801395 0.0652026 -0.115333 -0.0767627 0.0670523 -0.139173 -0.0729198 0.0688409 -0.162577 
-0.0687085 0.0704649 -0.185578 -0.0642015 0.0718183 -0.208232 -0.0594428 0.0728008 -0.230601 
-0.0544487 0.0733246 -0.252742 -0.0492125 0.0733206 -0.27469 -0.0437119 0.0727419 -0.296448 
-0.0379184 0.0715657 -0.317984 -0.0318071 0.0697931 -0.339228 -0.0253661 0.0674466 -0.360076 
-0.018604 0.0645663 -0.380405 -0.0115544 0.0612052 -0.40008 -0.00427768 0.0574242 -0.418974 
0.0031405 0.0532869 -0.436982 0.0105939 0.048856 -0.454035 0.0179622 0.0441901 -0.470106 
0.0251191 0.0393429 -0.485212 0.0319406 0.0343624 -0.499416 0.0383133 0.0292929 -0.512812 
0.0441405 0.0241766 -0.525517 0.0493474 0.0190564 -0.537648 0.0538834 0.0139778 -0.549313 
0.0577229 0.00899104 -0.560588 0.0608641 0.00415155 -0.571509 0.0633258 -0.000480796 -0.582065 
0.0651447 -0.00484353 -0.592198 0.0663706 -0.00887488 -0.601809 0.0670636 -0.0125179 -0.610772 
0.0672901 -0.0157248 -0.61895 0.0671207 -0.0184618 -0.626213 0.0666281 -0.0207124 -0.632458 
0.065886 -0.0224799 -0.637625 0.0649676 -0.0237883 -0.641707 0.0639452 -0.0246811 -0.644754 
0.0628891 -0.0252184 -0.646872 0.0618658 -0.0254718 -0.648211 0.0609368 -0.0255189 -0.648951 
0.0601564 -0.0254361 -0.649278 0.0595696 -0.0252916 -0.649369 0.0592101 -0.0251397 -0.649367 
0.0590989 -0.0250153 -0.649364 
LINES 2 100
OFFSETS vtktypeint64
0 100 
CONNECTIVITY vtktypeint64
0 1 2 3 4 5 6 7 8 
9 10 11 12 13 14 15 16 17 
18 19 20 21 22 23 24 25 26 
27 28 29 30 31 32 33 34 35 
36 37 38 39 40 41 42 43 44 
45 46 47 48 49 50 51 52 53 
54 55 56 57 58 59 60 61 62 
63 64 65 66 67 68 69 70 71 
72 73 74 75 76 77 78 79 80 
81 82 83 84 85 86 87 88 89 
90 91 92 93 94 95 96 97 98 
99 
POINT_DATA 100
FIELD FieldData 3
_theta 1 100 double
0 0.031733259127 0.063466518254 0.095199777382 0.12693303651 0.15866629564 0.19039955476 0.22213281389 0.25386607302 
0.28559933214 0.31733259127 0.3490658504 0.38079910953 0.41253236865 0.44426562778 0.47599888691 0.50773214603 0.53946540516 
0.57119866429 0.60293192342 0.63466518254 0.66639844167 0.6981317008 0.72986495992 0.76159821905 0.79333147818 0.82506473731 
0.85679799643 0.88853125556 0.92026451469 0.95199777382 0.98373103294 1.0154642921 1.0471975512 1.0789308103 1.1106640695 
1.1423973286 1.1741305877 1.2058638468 1.237597106 1.2693303651 1.3010636242 1.3327968833 1.3645301425 1.3962634016 
1.4279966607 1.4597299198 1.491463179 1.5231964381 1.5549296972 1.5866629564 1.6183962155 1.6501294746 1.6818627337 
1.7135959929 1.745329252 1.7770625111 1.8087957702 1.8405290294 1.8722622885 1.9039955476 1.9357288068 1.9674620659 
1.999195325 2.0309285841 2.0626618433 2.0943951024 2.1261283615 2.1578616206 2.1895948798 2.2213281389 2.253061398 
2.2847946572 2.3165279163 2.3482611754 2.3799944345 2.4117276937 2.4434609528 2.4751942119 2.506927471 2.5386607302 
2.5703939893 2.6021272484 2.6338605076 2.6655937667 2.6973270258 2.7290602849 2.7607935441 2.7925268032 2.8242600623 
2.8559933214 2.8877265806 2.9194598397 2.9511930988 2.982926358 3.0146596171 3.0463928762 3.0781261353 3.1098593945 
3.1415926536 
_radius 1 100 double
6.8512573714e-16 0.014997724727 0.029841713998 0.044396004597 0.058547354062 0.072213095456 0.085345502667 0.097932161664 0.10999238342 
0.1215702701 0.13272551587 0.14352325739 0.1540242353 0.16427624433 0.17430746637 0.18412194354 0.19369726693 0.20298455809 
0.21191093708 0.22038474856 0.22830368648 0.23556553204 0.24208055724 0.24778394549 0.25264609284 0.25667859939 0.25993427397 
0.26250055614 0.26448721107 0.26601054991 0.26717722312 0.26807047015 0.26874070718 0.2692010601 0.26942750029 0.26936286476 
0.26892409699 0.2680122141 0.26652453621 0.26436851669 0.26147615877 0.25781763873 0.25341250633 0.24833677348 0.24272437456 
0.23676192571 0.23067647071 0.22471698201 0.21913167842 0.21414441933 0.20993404668 0.20662009854 0.20425671733 0.2028343519 
0.20228700528 0.20250220587 0.20333174582 0.20460280585 0.20613023488 0.20773072487 0.20923849415 0.21052063132 0.21148935424 
0.2121085913 0.21239338113 0.21240212379 0.21222318341 0.21195836945 0.21170619067 0.21154740604 0.21153441737 0.21168483965 
0.21197866807 0.21235821697 0.21273040432 0.21297153785 0.21293495856 0.2124614655 0.21139163077 0.20957842109 0.20689832817 
0.20325949409 0.19860590757 0.19291742855 0.1862060313 0.17850916936 0.16988152078 0.16038653903 0.15008918414 0.13905091697 
0.12732752714 0.11496972194 0.10202579552 0.088545311654 0.074582685276 0.060199814826 0.045467348326 0.030464569038 0.015278136188 
6.805176611e-16 
_area 1 100 double
0 0.00057101073556 0.0022618777444 0.0050101130046 0.0087237901521 0.013296269781 0.018620848526 0.024601786678 0.031159627617 
0.03823081895 0.045763684069 0.053713894056 0.062042093552 0.070714404696 0.079704188336 0.088991851727 0.098559450975 0.10837874508 
0.11839495125 0.12851213552 0.13858738051 0.14843820378 0.15786258466 0.16666632851 0.174690202 0.18182958877 0.18804223481 
0.1933442823 0.19779860405 0.20149973577 0.20455751218 0.20707978954 0.2091539495 0.21082721096 0.2120881431 0.21285510949 
0.2129783036 0.21225882396 0.21048268599 0.20746298899 0.20308145197 0.19732100093 0.19028310893 0.18218653712 0.17334762179 
0.16414566631 0.15497941724 0.1462217818 0.13818107478 0.13107807485 0.12504355518 0.12012874113 0.11631454458 0.11351463874 
0.11158089226 0.11032227302 0.10954319747 0.10923318088 0.10946573184 0.1097295029 0.10983226261 0.10965712199 0.10911283766 
0.10812146909 0.10663833187 0.10468441261 0.10236624469 0.099871536526 0.097443146633 0.095341731266 0.093819857749 0.093118521183 
0.093432185621 0.094495168196 0.096073862906 0.097941251731 0.09983285846 0.10146641729 0.10256746485 0.10289349157 0.10225256192 
0.1005150804 0.09761912324 0.093570181997 0.088435988512 0.082337134042 0.075434679685 0.067916587397 0.059985169705 0.051847508845 
0.043709720899 0.035774270231 0.0282381524 0.021289672391 0.015102956992 0.009831326116 0.0056017748494 0.0025122242159 0.00063141826701 
2.1033522146e-17 
