# vtk DataFile Version 5.1
vtk output
ASCII
DATASET POLYDATA
POINTS 100 float
0.121449 0.0298987 0.630461 0.121627 0.030135 0.630418 0.122227 0.0306255 0.630169 
0.123174 0.0313338 0.629684 0.124352 0.032205 0.62891 0.125613 0.0331716 0.627778 
0.126795 0.0341612 0.626204 0.127737 0.0351042 0.624094 0.128294 0.0359408 0.621349 
0.128349 0.0366268 0.617871 0.127824 0.0371374 0.61357 0.126676 0.0374676 0.608372 
0.124905 0.0376307 0.602225 0.12254 0.0376548 0.595103 0.119633 0.0375765 0.587011 
0.116246 0.0374351 0.577987 0.112442 0.037266 0.568099 0.108273 0.0370954 0.557444 
0.103771 0.0369366 0.546139 0.0989493 0.0367885 0.534315 0.0938007 0.0366372 0.522107 
0.0883024 0.0364583 0.509641 0.0824246 0.0362226 0.497031 0.0761396 0.035902 0.484366 
0.0694316 0.0354756 0.471705 0.0623049 0.034935 0.459076 0.0547896 0.0342888 0.446478 
0.046943 0.0335637 0.433878 0.038847 0.0328042 0.421224 0.0306022 0.0320695 0.408449 
0.0223176 0.0314281 0.395479 0.0141 0.0309512 0.382241 0.00604187 0.0307055 0.36867 
-0.00178865 0.0307461 0.354715 -0.00935489 0.0311108 0.340338 -0.0166547 0.0318159 0.325515 
-0.0237188 0.032855 0.310236 -0.0306042 0.0342 0.294495 -0.0373838 0.0358045 0.27829 
-0.0441329 0.0376097 0.261615 -0.0509146 0.0395508 0.244458 -0.0577661 0.0415644 0.226796 
-0.064687 0.0435954 0.208597 -0.071632 0.0456023 0.189825 -0.0785081 0.0475605 0.170438 
-0.0851783 0.0494636 0.150402 -0.0914693 0.0513222 0.129692 -0.0971847 0.0531601 0.108304 
-0.10212 0.0550093 0.086255 -0.106082 0.0569035 0.0635909 -0.108901 0.0588718 0.040384 
-0.110448 0.0609332 0.0167313 -0.110643 0.0630913 -0.00725088 -0.109462 0.0653326 -0.0314349 
-0.106933 0.0676252 -0.0556906 -0.103135 0.0699211 -0.0798946 -0.0981853 0.0721592 -0.103938 
-0.092228 0.0742704 -0.127735 -0.0854212 0.0761832 -0.15122 -0.0779222 0.0778295 -0.174354 
-0.0698766 0.0791493 -0.19712 -0.0614094 0.0800952 -0.219514 -0.0526201 0.080634 -0.241539 
-0.0435817 0.0807482 -0.263197 -0.034344 0.0804345 -0.284483 -0.0249383 0.0797017 -0.305374 
-0.015386 0.0785673 -0.325831 -0.0057061 0.0770543 -0.345795 0.00407668 0.0751873 -0.365194 
0.0139263 0.0729894 -0.383946 0.0237913 0.0704809 -0.401971 0.0336045 0.0676777 -0.419195 
0.0432842 0.064592 -0.435566 0.0527389 0.061233 -0.451052 0.061873 0.0576097 -0.465653 
0.0705928 0.0537324 -0.479397 0.078814 0.0496156 -0.492334 0.0864662 0.0452792 -0.504534 
0.0934975 0.0407505 -0.516073 0.0998758 0.0360638 -0.527021 0.10559 0.0312605 -0.537434 
0.110645 0.0263873 -0.547341 0.115065 0.0214946 -0.556741 0.118882 0.0166342 -0.565597 
0.122136 0.0118569 -0.573845 0.124871 0.00721076 -0.581395 0.127133 0.00273918 -0.588149 
0.128965 -0.00151986 -0.594011 0.130412 -0.00553425 -0.598904 0.131513 -0.00927752 -0.602785 
0.132312 -0.0127282 -0.605654 0.132849 -0.015869 -0.607561 0.13317 -0.0186855 -0.608607 
0.133318 -0.0211659 -0.60894 0.133339 -0.0232995 -0.60874 0.133279 -0.0250771 -0.608209 
0.13318 -0.0264904 -0.607547 0.133078 -0.0275325 -0.606934 0.133002 -0.0281978 -0.606515 
0.132969 -0.0284827 -0.606381 
LINES 2 100
OFFSETS vtktypeint64
0 100 
CONNECTIVITY vtktypeint64
0 1 2 3 4 5 6 7 8 
9 10 11 12 13 14 15 16 17 
18 19 20 21 22 23 24 25 26 
27 28 29 30 31 32 33 34 35 
36 37 38 39 40 41 42 43 44 
45 46 47 48 49 50 51 52 53 
54 55 56 57 58 59 60 61 62 
63 64 65 66 67 68 69 70 71 
72 73 74 75 76 77 78 79 80 
81 82 83 84 85 86 87 88 89 
90 91 92 93 94 95 96 97 98 
99 
POINT_DATA 100
FIELD FieldData 3
_theta 1 100 double
0 0.031733259127 0.063466518254 0.095199777382 0.12693303651 0.15866629564 0.19039955476 0.22213281389 0.25386607302 
0.28559933214 0.31733259127 0.3490658504 0.38079910953 0.41253236865 0.44426562778 0.47599888691 0.50773214603 0.53946540516 
0.57119866429 0.60293192342 0.63466518254 0.66639844167 0.6981317008 0.72986495992 0.76159821905 0.79333147818 0.82506473731 
0.85679799643 0.88853125556 0.92026451469 0.95199777382 0.98373103294 1.0154642921 1.0471975512 1.0789308103 1.1106640695 
1.1423973286 1.1741305877 1.2058638468 1.237597106 1.2693303651 1.3010636242 1.3327968833 1.3645301425 1.3962634016 
1.4279966607 1.4597299198 1.491463179 1.5231964381 1.5549296972 1.5866629564 1.6183962155 1.6501294746 1.6818627337 
1.7135959929 1.745329252 1.7770625111 1.8087957702 1.8405290294 1.8722622885 1.9039955476 1.9357288068 1.9674620659 
1.999195325 2.0309285841 2.0626618433 2.0943951024 2.1261283615 2.1578616206 2.1895948798 2.2213281389 2.253061398 
2.2847946572 2.3165279163 2.3482611754 2.3799944345 2.4117276937 2.4434609528 2.4751942119 2.506927471 2.5386607302 
2.5703939893 2.6021272484 2.6338605076 2.6655937667 2.6973270258 2.7290602849 2.7607935441 2.7925268032 2.8242600623 
2.8559933214 2.8877265806 2.9194598397 2.9511930988 2.982926358 3.0146596171 3.0463928762 3.0781261353 3.1098593945 
3.1415926536 
_radius 1 100 double
1.9207705614e-16 0.016223217756 0.032280787603 0.048011923077 0.063276837674 0.077963552338 0.091990977731 0.10530834799 0.11789174059 
0.12973879184 0.14086274471 0.15128671413 0.16103867952 0.17014737339 0.17863903478 0.1865349708 0.19384998247 0.20059187401 
0.20676236182 0.2123596343 0.21738255087 0.22183605257 0.22573690298 0.22911854191 0.23203375413 0.23455410641 0.23676565159 
0.2387611062 0.24062940641 0.24244410248 0.24425238653 0.24606659222 0.24785967948 0.24956553479 0.25108407863 0.25229047703 
0.25304738272 0.25321903128 0.25268600571 0.25135941604 0.24919313352 0.24619270293 0.24241975699 0.23799117717 0.23307277305 
0.22786775952 0.22260078074 0.21749877918 0.21277076402 0.20858939502 0.20507776469 0.20230409607 0.20028493053 0.19899450094 
0.1983760417 0.19835111182 0.19882538676 0.19969217789 0.20083637532 0.20214088234 0.20349564476 0.20480751126 0.20600843984 
0.20706005299 0.20795361148 0.20870551573 0.20934924053 0.20992519055 0.21047029847 0.21100912443 0.21154765289 0.21207007662 
0.21253801746 0.21289126231 0.21304928463 0.21291334116 0.212369452 0.21129285013 0.20955439431 0.20702897596 0.2036052863 
0.19919571873 0.19374488544 0.18723529787 0.17968914678 0.17116571298 0.16175462987 0.15156589551 0.14071809597 0.12932666404 
0.11749407609 0.10530360072 0.092817508425 0.080079618109 0.067120994351 0.053966937182 0.040643378873 0.027181328825 0.013618758549 
4.1898204706e-16 
_area 1 100 double
0 0.00068148242125 0.0027033326831 0.0059994864873 0.010465356664 0.015965371476 0.022342272774 0.029427272754 0.037050127204 
0.045048102565 0.053272799542 0.061594088582 0.069901108928 0.078101059294 0.086116827412 0.093884214497 0.10134903769 0.10846428799 
0.11518794523 0.12148267172 0.12731878063 0.13268099469 0.13757744907 0.14204704717 0.14616067785 0.15001449691 0.15371743442 
0.15737574389 0.16107501514 0.164860729 0.16872283787 0.17258973623 0.17633102282 0.17976592386 0.18267769787 0.18483931381 
0.18605647911 0.18621289708 0.18526523092 0.18318685083 0.17992593272 0.175465744 0.16987890066 0.16332622749 0.15604458957 
0.14833671602 0.14055902988 0.13310078973 0.12634699447 0.12061740519 0.11608855859 0.11272943363 0.11030104295 0.10844106399 
0.1068763254 0.10548080489 0.10418912106 0.10298917471 0.10189123799 0.10089114564 0.099951264479 0.099012628793 0.09802105174 
0.096948515622 0.095804534376 0.094637301247 0.09351971312 0.09252009122 0.091697408304 0.091140933839 0.090987986602 0.091392206009 
0.092464534883 0.094219468819 0.096552589395 0.099250186056 0.10201703788 0.10450902542 0.10636498463 0.10723930232 0.10683687474 
0.1049476006 0.1014740033 0.096445328763 0.090014134681 0.082435512308 0.07403314748 0.065159250918 0.056156327279 0.047327651545 
0.038920361373 0.031121070081 0.024060758594 0.017825291941 0.012469276435 0.0080305019178 0.0045400754358 0.0020252403524 0.00050742854214 
1.1736383457e-17 
