# vtk DataFile Version 5.1
vtk output
ASCII
DATASET POLYDATA
POINTS 100 float
0.12149 -0.0205417 -0.675291 0.121405 -0.0204276 -0.674899 0.121163 -0.0202458 -0.673727 
0.120762 -0.0199666 -0.671813 0.120204 -0.0195445 -0.669211 0.119485 -0.0189225 -0.665987 
0.118605 -0.0180385 -0.662211 0.117557 -0.0168323 -0.657942 0.116332 -0.0152513 -0.653228 
0.114919 -0.013256 -0.648094 0.113297 -0.0108245 -0.642544 0.111442 -0.00795369 -0.63656 
0.109324 -0.00465998 -0.630105 0.106906 -0.00097723 -0.623131 0.104147 0.0030466 -0.615587 
0.101005 0.00735394 -0.607428 0.097437 0.0118826 -0.598619 0.0934053 0.0165707 -0.589142 
0.0888791 0.0213606 -0.578997 0.0838397 0.0262024 -0.568205 0.0782836 0.0310549 -0.556796 
0.0722253 0.035886 -0.54481 0.065699 0.0406706 -0.532289 0.0587587 0.0453886 -0.519264 
0.0514771 0.0500212 -0.505758 0.043942 0.054547 -0.491776 0.0362515 0.0589397 -0.477307 
0.0285083 0.0631648 -0.462328 0.0208123 0.0671796 -0.446809 0.0132533 0.070933 -0.430717 
0.00590473 0.0743679 -0.41403 -0.00118252 0.0774243 -0.396738 -0.00798369 0.0800439 -0.378853 
-0.0145018 0.0821749 -0.360408 -0.0207667 0.0837762 -0.341457 -0.0268314 0.0848224 -0.322068 
-0.0327656 0.0853059 -0.302315 -0.038648 0.0852388 -0.282269 -0.0445565 0.0846528 -0.261985 
-0.0505581 0.0835968 -0.241495 -0.0566995 0.0821335 -0.2208 -0.0629984 0.0803351 -0.199865 
-0.0694377 0.0782776 -0.178628 -0.0759619 0.0760352 -0.157003 -0.0824773 0.0736758 -0.134893 
-0.0888549 0.0712564 -0.112207 -0.0949372 0.0688208 -0.0888732 -0.100547 0.0663984 -0.0648592 
-0.105499 0.0640049 -0.0401798 -0.10961 0.061644 -0.0149066 -0.112715 0.0593113 0.0108318 
-0.114675 0.056998 0.0368555 -0.115388 0.0546957 0.0629452 -0.114794 0.0524005 0.08886 
-0.112882 0.0501162 0.114358 -0.109688 0.0478571 0.139216 -0.105293 0.0456488 0.163253 
-0.0998161 0.0435276 0.18634 -0.0934094 0.0415387 0.208413 -0.0862447 0.0397328 0.229474 
-0.0785051 0.0381623 0.249585 -0.070374 0.0368767 0.268855 -0.0620251 0.0359182 0.287425 
-0.0536147 0.0353174 0.305447 -0.0452751 0.0350907 0.323061 -0.0371105 0.0352379 0.340385 
-0.0291955 0.0357422 0.357494 -0.0215758 0.0365703 0.37442 -0.0142702 0.0376749 0.391149 
-0.00727476 0.0389979 0.407633 -0.000568208 0.0404741 0.423795 0.00588293 0.0420354 0.439555 
0.0121185 0.0436151 0.45484 0.0181795 0.0451519 0.469601 0.0241035 0.0465928 0.483823 
0.0299212 0.0478955 0.497532 0.035654 0.0490298 0.510788 0.0413126 0.0499778 0.523682 
0.0468967 0.0507331 0.536314 0.0523959 0.0512995 0.548783 0.0577909 0.051689 0.561159 
0.0630557 0.0519197 0.573471 0.0681596 0.0520128 0.585695 0.0730698 0.0519912 0.597745 
0.0777534 0.0518774 0.609478 0.0821798 0.0516918 0.620704 0.0863221 0.0514525 0.631205 
0.0901587 0.0511745 0.640758 0.0936734 0.05087 0.649161 0.0968566 0.0505487 0.656259 
0.0997044 0.0502188 0.661961 0.102218 0.0498873 0.666262 0.104404 0.0495608 0.669236 
0.106272 0.0492462 0.671041 0.107833 0.0489503 0.671898 0.109098 0.0486805 0.672069 
0.110081 0.0484441 0.671828 0.11079 0.0482482 0.671429 0.111234 0.0480988 0.67108 
0.111414 0.0480007 0.670916 
LINES 2 100
OFFSETS vtktypeint64
0 100 
CONNECTIVITY vtktypeint64
0 1 2 3 4 5 6 7 8 
9 10 11 12 13 14 15 16 17 
18 19 20 21 22 23 24 25 26 
27 28 29 30 31 32 33 34 35 
36 37 38 39 40 41 42 43 44 
45 46 47 48 49 50 51 52 53 
54 55 56 57 58 59 60 61 62 
63 64 65 66 67 68 69 70 71 
72 73 74 75 76 77 78 79 80 
81 82 83 84 85 86 87 88 89 
90 91 92 93 94 95 96 97 98 
99 
POINT_DATA 100
FIELD FieldData 3
_theta 1 100 double
0 0.031733259127 0.063466518254 0.095199777382 0.12693303651 0.15866629564 0.19039955476 0.22213281389 0.25386607302 
0.28559933214 0.31733259127 0.3490658504 0.38079910953 0.41253236865 0.44426562778 0.47599888691 0.50773214603 0.53946540516 
0.57119866429 0.60293192342 0.63466518254 0.66639844167 0.6981317008 0.72986495992 0.76159821905 0.79333147818 0.82506473731 
0.85679799643 0.88853125556 0.92026451469 0.95199777382 0.98373103294 1.0154642921 1.0471975512 1.0789308103 1.1106640695 
1.1423973286 1.1741305877 1.2058638468 1.237597106 1.2693303651 1.3010636242 1.3327968833 1.3645301425 1.3962634016 
1.4279966607 1.4597299198 1.491463179 1.5231964381 1.5549296972 1.5866629564 1.6183962155 1.6501294746 1.6818627337 
1.7135959929 1.745329252 1.7770625111 1.8087957702 1.8405290294 1.8722622885 1.9039955476 1.9357288068 1.9674620659 
1.999195325 2.0309285841 2.0626618433 2.0943951024 2.1261283615 2.1578616206 2.1895948798 2.2213281389 2.253061398 
2.2847946572 2.3165279163 2.3482611754 2.3799944345 2.4117276937 2.4434609528 2.4751942119 2.506927471 2.5386607302 
2.5703939893 2.6021272484 2.6338605076 2.6655937667 2.6973270258 2.7290602849 2.7607935441 2.7925268032 2.8242600623 
2.8559933214 2.8877265806 2.9194598397 2.9511930988 2.982926358 3.0146596171 3.0463928762 3.0781261353 3.1098593945 
3.1415926536 
_radius 1 100 double
1.5566376575e-15 0.013816250986 0.027622570861 0.041402456243 0.055119063101 0.068709503306 0.08208357797 0.095127013211 0.10770859467 
0.11969013519 0.13093795328 0.14133444092 0.15078832038 0.15924233017 0.16667737133 0.1731126147 0.17860168752 0.1832257057 
0.18708440185 0.19028674408 0.19294221425 0.19515348538 0.19701086211 0.19858868175 0.19994385836 0.2011166848 0.20213370657 
0.20301195575 0.20376332304 0.20439768787 0.20492381072 0.20534780127 0.20566987253 0.2058807161 0.20595898072 0.20587098616 
0.20557310674 0.20501648738 0.20415322927 0.20294310884 0.20136019596 0.19939906906 0.19708035669 0.19445505465 0.19160677345 
0.18865107202 0.18573139528 0.18301164676 0.18066578173 0.17886486018 0.1777619618 0.17747562095 0.17807321657 0.17955690564 
0.18185562763 0.184826548 0.18826750949 0.19193911678 0.19559241522 0.19899702813 0.20196528123 0.20436948561 0.20615124907 
0.2073228935 0.20796160661 0.20819695305 0.20819219055 0.20812009629 0.20813521783 0.20834641426 0.20879506365 0.20944399635 
0.21017981266 0.21082795222 0.21117721243 0.21100906996 0.21012700982 0.20838168141 0.20568871159 0.20203715976 0.19748774734 
0.19216108374 0.18621717358 0.17982857715 0.17315068502 0.16629347808 0.15929951217 0.15213226734 0.1446772694 0.1367559113 
0.12814951061 0.11862960069 0.10798999466 0.096076521737 0.082811109489 0.068207790244 0.052379132025 0.035532527568 0.017956732454 
6.6514326741e-16 
_area 1 100 double
0 0.00049224990108 0.0019729681661 0.0044498070515 0.0079223087986 0.012365334679 0.017711822431 0.023839531187 0.030565941745 
0.037653910544 0.044828313242 0.051801339863 0.058302026185 0.064104587517 0.069050404024 0.073060038618 0.076134108828 0.078344313109 
0.079816662974 0.080706708647 0.081168584379 0.08133571045 0.081326056807 0.081250959133 0.081210573201 0.081281831877 0.081508695885 
0.081902980786 0.082531439727 0.083426589369 0.084554124735 0.086008711655 0.087808456682 0.089844544049 0.091966487833 0.09400378222 
0.09579099948 0.097191851887 0.098115612986 0.098518358611 0.098389764471 0.097744446978 0.096629581467 0.095133243197 0.093376630951 
0.091496502512 0.089645310671 0.088013677087 0.086841395849 0.086414825743 0.087169071811 0.088912326028 0.091450653718 0.094637081906 
0.098322000528 0.10235770362 0.10659307112 0.11086690067 0.11501353433 0.11887544774 0.12230841123 0.12517713289 0.12735667512 
0.12875352771 0.12933883614 0.12917251202 0.12840322431 0.12724177038 0.12591502964 0.12461430676 0.12345369935 0.1224491084 
0.12151840788 0.12049774067 0.11917405005 0.11733351515 0.1148101977 0.11151550659 0.10744451503 0.1026660888 0.097304121913 
0.091514933985 0.085464384581 0.079307032393 0.073168533139 0.067132113886 0.061230811753 0.055448321945 0.049730857299 0.044009463086 
0.038228377064 0.032372865809 0.026490208561 0.020699103007 0.015185042549 0.010182108124 0.005944660503 0.0027145510701 0.00068986767795 
7.0283379413e-17 
