# vtk DataFile Version 5.1
vtk output
ASCII
DATASET POLYDATA
POINTS 100 float
0.104081 0.0592135 0.699032 0.104044 0.0593589 0.699024 0.104017 0.0596397 0.698879 
0.103964 0.0600453 0.698545 0.103831 0.0605589 0.697936 0.103554 0.0611593 0.696944 
0.103064 0.0618217 0.695445 0.102301 0.0625198 0.693308 0.101217 0.0632263 0.690408 
0.0997889 0.0639143 0.686632 0.0980141 0.0645576 0.681891 0.0959163 0.0651304 0.676122 
0.0935398 0.0656072 0.669298 0.0909433 0.0659624 0.661421 0.0881915 0.0661695 0.652528 
0.0853459 0.0662011 0.642685 0.082455 0.0660297 0.63198 0.0795468 0.0656284 0.620516 
0.0766232 0.064973 0.608406 0.0736581 0.0640442 0.595763 0.0705984 0.0628308 0.582694 
0.0673695 0.0613321 0.569295 0.0638821 0.0595609 0.555643 0.060043 0.0575453 0.541799 
0.0557644 0.055329 0.527802 0.0509746 0.0529713 0.513674 0.045626 0.0505443 0.499419 
0.0397008 0.0481302 0.485025 0.0332134 0.0458157 0.470469 0.0262091 0.0436873 0.455719 
0.0187603 0.0418249 0.440738 0.0109592 0.0402967 0.425482 0.00290938 0.0391546 0.409904 
-0.0052832 0.0384306 0.393956 -0.0135187 0.0381359 0.377584 -0.0217103 0.0382611 0.360734 
-0.029788 0.0387783 0.34335 -0.0377005 0.0396451 0.325377 -0.0454132 0.0408099 0.306758 
-0.0529042 0.0422167 0.287444 -0.0601579 0.0438117 0.267391 -0.0671581 0.0455469 0.24657 
-0.0738812 0.0473848 0.224967 -0.0802899 0.0492993 0.202588 -0.08633 0.051277 0.179466 
-0.0919292 0.0533145 0.155655 -0.0969987 0.0554165 0.131236 -0.101439 0.0575912 0.106315 
-0.105144 0.0598457 0.0810133 -0.108014 0.0621823 0.0554671 -0.109962 0.0645944 0.0298165 
-0.11092 0.0670641 0.00419846 -0.110851 0.0695612 -0.0212617 -0.10975 0.0720439 -0.0464579 
-0.107645 0.0744608 -0.0713088 -0.104598 0.0767539 -0.0957613 -0.1007 0.0788627 -0.119792 
-0.0960618 0.0807287 -0.143403 -0.0908071 0.0822989 -0.166621 -0.0850633 0.0835291 -0.189485 
-0.0789522 0.0843863 -0.212044 -0.0725818 0.0848495 -0.234343 -0.066041 0.0849091 -0.256417 
-0.0593956 0.0845655 -0.278286 -0.0526882 0.0838268 -0.299945 -0.0459396 0.0827061 -0.321367 
-0.0391535 0.0812187 -0.342505 -0.0323216 0.0793799 -0.363291 -0.0254304 0.077203 -0.383645 
-0.0184681 0.0746994 -0.403484 -0.0114303 0.0718784 -0.422731 -0.00432478 0.0687486 -0.441319 
0.00282567 0.0653195 -0.459202 0.0099821 0.0616038 -0.476357 0.0170904 0.0576197 -0.492784 
0.0240838 0.0533917 -0.508506 0.0308872 0.0489522 -0.523564 0.0374213 0.0443411 -0.53801 
0.0436084 0.0396048 -0.551897 0.0493768 0.0347944 -0.56527 0.0546653 0.0299633 -0.578159 
0.0594264 0.0251645 -0.590574 0.0636284 0.0204474 -0.602497 0.0672567 0.0158562 -0.613887 
0.0703133 0.0114279 -0.624678 0.072816 0.00719145 -0.63479 0.0747964 0.003168 -0.644135 
0.0762974 -0.000627934 -0.652629 0.077371 -0.00418695 -0.660201 0.078075 -0.00750259 -0.666802 
0.0784708 -0.0105692 -0.672416 0.0786209 -0.0133802 -0.67706 0.0785866 -0.0159266 -0.680784 
0.0784264 -0.0181961 -0.683672 0.0781938 -0.0201741 -0.685829 0.0779366 -0.0218435 -0.687375 
0.0776953 -0.0231872 -0.688429 0.0775024 -0.0241889 -0.689102 0.0773815 -0.0248357 -0.68948 
0.0773469 -0.0251189 -0.689618 
LINES 2 100
OFFSETS vtktypeint64
0 100 
CONNECTIVITY vtktypeint64
0 1 2 3 4 5 6 7 8 
9 10 11 12 13 14 15 16 17 
18 19 20 21 22 23 24 25 26 
27 28 29 30 31 32 33 34 35 
36 37 38 39 40 41 42 43 44 
45 46 47 48 49 50 51 52 53 
54 55 56 57 58 59 60 61 62 
63 64 65 66 67 68 69 70 71 
72 73 74 75 76 77 78 79 80 
81 82 83 84 85 86 87 88 89 
90 91 92 93 94 95 96 97 98 
99 
POINT_DATA 100
FIELD FieldData 3
_theta 1 100 double
0 0.031733259127 0.063466518254 0.095199777382 0.12693303651 0.15866629564 0.19039955476 0.22213281389 0.25386607302 
0.28559933214 0.31733259127 0.3490658504 0.38079910953 0.41253236865 0.44426562778 0.47599888691 0.50773214603 0.53946540516 
0.57119866429 0.60293192342 0.63466518254 0.66639844167 0.6981317008 0.72986495992 0.76159821905 0.79333147818 0.82506473731 
0.85679799643 0.88853125556 0.92026451469 0.95199777382 0.98373103294 1.0154642921 1.0471975512 1.0789308103 1.1106640695 
1.1423973286 1.1741305877 1.2058638468 1.237597106 1.2693303651 1.3010636242 1.3327968833 1.3645301425 1.3962634016 
1.4279966607 1.4597299198 1.491463179 1.5231964381 1.5549296972 1.5866629564 1.6183962155 1.6501294746 1.6818627337 
1.7135959929 1.745329252 1.7770625111 1.8087957702 1.8405290294 1.8722622885 1.9039955476 1.9357288068 1.9674620659 
1.999195325 2.0309285841 2.0626618433 2.0943951024 2.1261283615 2.1578616206 2.1895948798 2.2213281389 2.253061398 
2.2847946572 2.3165279163 2.3482611754 2.3799944345 2.4117276937 2.4434609528 2.4751942119 2.506927471 2.5386607302 
2.5703939893 2.6021272484 2.6338605076 2.6655937667 2.6973270258 2.7290602849 2.7607935441 2.7925268032 2.8242600623 
2.8559933214 2.8877265806 2.9194598397 2.9511930988 2.982926358 3.0146596171 3.0463928762 3.0781261353 3.1098593945 
3.1415926536 
_radius 1 100 double
4.220764384e-17 0.01519195361 0.030255859877 0.04506729766 0.059513446515 0.073496887977 0.086937361478 0.099771532397 0.11195123443 
0.12344096285 0.1342155463 0.14425881533 0.153563663 0.1621332623 0.16998263025 0.17713948003 0.18364349567 0.18954373647 
0.19489463249 0.19975166322 0.20416797255 0.20819271134 0.21187103475 0.21524488215 0.2183533186 0.22123144872 0.22390760335 
0.22639933092 0.22870931411 0.2308224491 0.23270500546 0.23430624833 0.23556237532 0.23640223771 0.2367541296 0.23655292449 
0.23574696235 0.23430426509 0.23221781158 0.22950967866 0.22623383049 0.22247723552 0.21835885483 0.21402594192 0.20964710411 
0.20540181267 0.2014666358 0.19799943324 0.19512388148 0.19291748566 0.19140606229 0.1905662325 0.19033508156 0.19062378339 
0.19133083714 0.19235136241 0.19358138245 0.19491878863 0.19626399854 0.19752259963 0.19861052677 0.19946090578 0.20003100705 
0.20030750443 0.20030830185 0.20007974511 0.19968909226 0.19921334121 0.19872648353 0.19828768944 0.19793271415 0.1976699559 
0.19748127465 0.19732630084 0.19714804725 0.19687757664 0.19643631867 0.19573601323 0.19467757041 0.19315079909 0.1910367209 
0.18821325524 0.18456389363 0.17998801073 0.17441092647 0.16779179639 0.16012779569 0.1514537439 0.14183714406 0.13136945303 
0.12015513156 0.10830051036 0.095904605765 0.083053614118 0.069819905854 0.056265118149 0.042445783568 0.028419266817 0.014247892395 
2.7924806863e-16 
_area 1 100 double
0 0.00055877663245 0.0022168136408 0.0049225723689 0.0086001478971 0.013160572528 0.018511205066 0.024558964962 0.031205310495 
0.038334997151 0.045804725576 0.053438814266 0.061036300085 0.068389553416 0.075310971123 0.081662284036 0.087379960953 0.092489670412 
0.097103395969 0.10139630963 0.10556796575 0.10980054233 0.11422789108 0.11892057076 0.12388353745 0.12906237405 0.13435547244 
0.13962861257 0.14472872058 0.14949665586 0.15378018907 0.15744633991 0.16039015013 0.162537133 0.16383875795 0.16426324421 
0.16378643642 0.16238824638 0.16005817761 0.15680942021 0.15269696519 0.14783314771 0.14239455301 0.13661647298 0.13077392417 
0.12515103605 0.12000346757 0.11552164327 0.11180539344 0.10886017417 0.10661738938 0.10496858497 0.10379704516 0.1029970721 
0.10248258526 0.10220135497 0.10216382169 0.10225655306 0.10238236166 0.10243753976 0.10230063299 0.10187302804 0.10108716817 
0.099918053763 0.098386174102 0.096557621266 0.094540931046 0.092476985064 0.090519004297 0.088805728485 0.087478083914 0.086648271779 
0.086298544668 0.086362045781 0.086804874383 0.087583858997 0.088621862319 0.089796369439 0.090932556959 0.091804647746 0.092150783218 
0.091701176564 0.090214904923 0.087517808325 0.083532779657 0.078295215673 0.071950250978 0.064733046925 0.056937207343 0.048878389626 
0.04086027896 0.033148792353 0.025958243159 0.019450454387 0.013744523919 0.0089317646024 0.0050888672346 0.0022839747188 0.00057453206559 
2.8798215985e-17 
