# vtk DataFile Version 5.1
vtk output
ASCII
DATASET POLYDATA
POINTS 100 float
0.160145 0.0316146 0.656899 0.160168 0.0315651 0.656476 0.16014 0.0315576 0.655323 
0.160038 0.0316085 0.653458 0.159824 0.0317419 0.65091 0.159453 0.0319854 0.647712 
0.158876 0.0323665 0.643895 0.158043 0.0329077 0.639485 0.156911 0.0336222 0.634501 
0.155445 0.0345103 0.628947 0.153621 0.0355568 0.622819 0.151426 0.0367305 0.616103 
0.148856 0.0379849 0.608778 0.145915 0.0392609 0.600827 0.14261 0.0404914 0.592239 
0.13895 0.0416065 0.583013 0.134941 0.0425402 0.573168 0.130586 0.0432363 0.562738 
0.125883 0.043655 0.551779 0.120826 0.043777 0.54036 0.115409 0.0436068 0.52856 
0.109628 0.0431735 0.516463 0.103483 0.0425294 0.50415 0.0969848 0.0417461 0.491687 
0.0901543 0.0409091 0.479128 0.083025 0.0401103 0.466505 0.075642 0.0394401 0.453828 
0.0680592 0.0389795 0.441089 0.0603349 0.0387924 0.428264 0.0525266 0.0389201 0.415319 
0.0446851 0.0393776 0.402218 0.0368491 0.0401525 0.388923 0.0290411 0.0412065 0.375405 
0.0212657 0.0424796 0.361643 0.01351 0.0438962 0.347624 0.00574717 0.0453728 0.333341 
-0.00205718 0.0468268 0.318785 -0.00993709 0.048184 0.303945 -0.0179165 0.0493862 0.288795 
-0.0259999 0.0503964 0.273296 -0.0341637 0.0512015 0.257388 -0.0423499 0.0518129 0.240993 
-0.0504637 0.0522641 0.224021 -0.0583739 0.0526057 0.206375 -0.0659185 0.0528995 0.187964 
-0.0729135 0.0532111 0.168711 -0.0791654 0.053602 0.148568 -0.0844851 0.0541234 0.127526 
-0.0887031 0.0548107 0.10562 -0.0916837 0.05568 0.0829332 -0.0933364 0.0567278 0.0595936 
-0.0936243 0.0579319 0.0357651 -0.0925678 0.059255 0.0116361 -0.090243 0.0606497 -0.0125966 
-0.0867758 0.0620639 -0.0367453 -0.0823315 0.0634469 -0.0606475 -0.0771009 0.0647539 -0.0841798 
-0.0712851 0.0659497 -0.107267 -0.0650798 0.0670105 -0.129886 -0.0586601 0.0679228 -0.152062 
-0.0521696 0.0686821 -0.173859 -0.0457111 0.0692881 -0.195368 -0.0393436 0.0697406 -0.216686 
-0.0330824 0.0700342 -0.2379 -0.0269041 0.0701542 -0.259072 -0.0207553 0.0700739 -0.280221 
-0.014563 0.0697531 -0.301317 -0.00824708 0.0691394 -0.322284 -0.00173214 0.0681719 -0.343 
0.00504178 0.066786 -0.363313 0.0121107 0.0649206 -0.383054 0.0194813 0.062525 -0.402061 
0.0271285 0.0595661 -0.420194 0.0349972 0.0560344 -0.437353 0.0430055 0.0519476 -0.453488 
0.0510516 0.0473526 -0.468606 0.0590211 0.0423242 -0.482767 0.0667958 0.0369611 -0.496076 
0.0742615 0.0313798 -0.508665 0.0813151 0.0257068 -0.520678 0.0878705 0.0200698 -0.532244 
0.0938623 0.0145889 -0.543465 0.0992474 0.00936908 -0.554394 0.104006 0.00449388 -0.565034 
0.108138 2.19452e-05 -0.575329 0.111663 -0.00401423 -0.585173 0.114616 -0.00760692 -0.594426 
0.117044 -0.0107695 -0.60293 0.118998 -0.0135311 -0.610531 0.120539 -0.0159307 -0.617103 
0.121724 -0.0180104 -0.622563 0.122612 -0.0198101 -0.626888 0.123259 -0.0213627 -0.63012 
0.123715 -0.022692 -0.632362 0.124025 -0.0238112 -0.633771 0.124229 -0.0247242 -0.634536 
0.124359 -0.0254274 -0.634861 0.124441 -0.0259132 -0.634936 0.124491 -0.0261734 -0.634917 
0.124522 -0.0262015 -0.634907 
LINES 2 100
OFFSETS vtktypeint64
0 100 
CONNECTIVITY vtktypeint64
0 1 2 3 4 5 6 7 8 
9 10 11 12 13 14 15 16 17 
18 19 20 21 22 23 24 25 26 
27 28 29 30 31 32 33 34 35 
36 37 38 39 40 41 42 43 44 
45 46 47 48 49 50 51 52 53 
54 55 56 57 58 59 60 61 62 
63 64 65 66 67 68 69 70 71 
72 73 74 75 76 77 78 79 80 
81 82 83 84 85 86 87 88 89 
90 91 92 93 94 95 96 97 98 
99 
POINT_DATA 100
FIELD FieldData 3
_theta 1 100 double
0 0.031733259127 0.063466518254 0.095199777382 0.12693303651 0.15866629564 0.19039955476 0.22213281389 0.25386607302 
0.28559933214 0.31733259127 0.3490658504 0.38079910953 0.41253236865 0.44426562778 0.47599888691 0.50773214603 0.53946540516 
0.57119866429 0.60293192342 0.63466518254 0.66639844167 0.6981317008 0.72986495992 0.76159821905 0.79333147818 0.82506473731 
0.85679799643 0.88853125556 0.92026451469 0.95199777382 0.98373103294 1.0154642921 1.0471975512 1.0789308103 1.1106640695 
1.1423973286 1.1741305877 1.2058638468 1.237597106 1.2693303651 1.3010636242 1.3327968833 1.3645301425 1.3962634016 
1.4279966607 1.4597299198 1.491463179 1.5231964381 1.5549296972 1.5866629564 1.6183962155 1.6501294746 1.6818627337 
1.7135959929 1.745329252 1.7770625111 1.8087957702 1.8405290294 1.8722622885 1.9039955476 1.9357288068 1.9674620659 
1.999195325 2.0309285841 2.0626618433 2.0943951024 2.1261283615 2.1578616206 2.1895948798 2.2213281389 2.253061398 
2.2847946572 2.3165279163 2.3482611754 2.3799944345 2.4117276937 2.4434609528 2.4751942119 2.506927471 2.5386607302 
2.5703939893 2.6021272484 2.6338605076 2.6655937667 2.6973270258 2.7290602849 2.7607935441 2.7925268032 2.8242600623 
2.8559933214 2.8877265806 2.9194598397 2.9511930988 2.982926358 3.0146596171 3.0463928762 3.0781261353 3.1098593945 
3.1415926536 
_radius 1 100 double
1.0000677078e-15 0.01507136272 0.029950627381 0.044462512482 0.058460283615 0.071834752705 0.084518218937 0.096483260429 0.10773722589 
0.11831398583 0.12826476349 0.13764956148 0.14652994154 0.15496306688 0.1629964421 0.1706629533 0.17797648639 0.18492912529 
0.19149121678 0.19761521853 0.20324334644 0.20831796218 0.21279280215 0.21664284697 0.21987094337 0.22251006058 0.22462099494 
0.22628614617 0.22760050627 0.22866119253 0.22955676857 0.23035733071 0.23110604741 0.23181269428 0.23244979458 0.23295215649 
0.23322067883 0.23313106994 0.23254749343 0.23134018976 0.22940507412 0.22668253593 0.22317244759 0.21894278643 0.21413013083 
0.20893140029 0.20358743436 0.1983602598 0.19350702476 0.18925433044 0.1857768633 0.1831837726 0.1815149947 0.18074730571 
0.18080654326 0.18158008487 0.18292475141 0.18467000063 0.18662134581 0.18857001642 0.19031076602 0.19166407368 0.19249638913 
0.19273345712 0.19236481171 0.19144001265 0.19005842592 0.18835468192 0.18648191338 0.18459476846 0.18283398022 0.18131377227 
0.18011257326 0.17926675625 0.17876693685 0.17855689149 0.17853582341 0.17856473397 0.17847688362 0.1780912743 0.17722733633 
0.17571875432 0.17342455476 0.17023610775 0.16607948506 0.1609135294 0.15472481515 0.14752119747 0.13932570328 0.13017210174 
0.12010274636 0.10916846523 0.097429663952 0.084957581899 0.071834825872 0.058154762313 0.044019858858 0.029539426911 0.01482732015 
8.6453298994e-16 
_area 1 100 double
0 0.0004904259477 0.0019361473329 0.0042668537899 0.0073840448858 0.0111812913 0.015560580047 0.020439580785 0.025749459802 
0.031427205684 0.037407923513 0.043621128079 0.049992392336 0.056449299818 0.062929083752 0.069384674332 0.075786208369 0.08211651571 
0.088361444995 0.094498241205 0.10048640727 0.10626503563 0.11175858932 0.11688972161 0.12159410775 0.12583115565 0.12958790099 
0.13287963547 0.13575253975 0.13828676131 0.14059204147 0.14279022885 0.1449864225 0.14723698274 0.1495244872 0.15174625806 
0.15371788617 0.15519074777 0.15588287384 0.15552139983 0.15389011973 0.1508715663 0.14647459086 0.14084326676 0.13424553782 
0.12704128724 0.11963320763 0.11241149706 0.10571021702 0.099785772298 0.094807457729 0.09084418176 0.087859804915 0.085752221599 
0.084426260639 0.08382332409 0.083856708535 0.084346160905 0.085052845249 0.085720578286 0.086117399476 0.086073961434 0.085498308328 
0.084361861259 0.082681741108 0.080521390465 0.078000815982 0.075296934712 0.072626029558 0.070214217314 0.068265642026 0.066934191707 
0.066305357424 0.066400869271 0.067203127551 0.068671057691 0.070533748149 0.072503845269 0.074317521955 0.075720569692 0.076484099893 
0.076424397154 0.07541838513 0.073410434183 0.070409461286 0.066478445968 0.061720683702 0.056267445068 0.050270086118 0.043896816833 
0.037331685111 0.030772260764 0.02442348319 0.018487443039 0.013151228041 0.0085762683729 0.0048921224416 0.0021953929078 0.00055196901095 
2.2225724296e-17 
