# vtk DataFile Version 5.1
vtk output
ASCII
DATASET POLYDATA
POINTS 100 float
0.106254 0.0483219 0.654281 0.106254 0.0485577 0.653925 0.10632 0.0491154 0.652736 
0.106417 0.0499441 0.65077 0.106493 0.0509654 0.648108 0.106483 0.0520833 0.644852 
0.106322 0.0531954 0.641102 0.105949 0.0542052 0.636948 0.105314 0.0550327 0.632455 
0.104388 0.0556233 0.627653 0.103158 0.0559528 0.622532 0.10163 0.0560281 0.61705 
0.0998239 0.0558844 0.611129 0.0977669 0.0555782 0.604679 0.0954857 0.0551781 0.597603 
0.0929986 0.0547542 0.589814 0.0903098 0.0543678 0.581255 0.0874049 0.0540622 0.571902 
0.0842505 0.0538573 0.561774 0.0807969 0.0537468 0.550933 0.0769839 0.0537 0.539477 
0.0727496 0.0536661 0.527534 0.0680398 0.0535825 0.515241 0.0628182 0.053384 0.502735 
0.0570745 0.0530125 0.490133 0.0508296 0.0524255 0.477524 0.0441371 0.0516033 0.464953 
0.037081 0.0505516 0.452424 0.029768 0.0493023 0.439898 0.0223177 0.04791 0.427303 
0.0148499 0.0464457 0.41454 0.00747099 0.0449891 0.401501 0.000262461 0.0436199 0.388081 
-0.00672866 0.0424097 0.374189 -0.0134946 0.0414153 0.359758 -0.0200667 0.0406747 0.344749 
-0.0265099 0.0402062 0.329152 -0.0329123 0.0400096 0.312982 -0.0393708 0.0400707 0.296268 
-0.0459752 0.0403673 0.279047 -0.0527909 0.0408755 0.261349 -0.0598451 0.0415758 0.243193 
-0.0671153 0.0424578 0.224578 -0.074524 0.0435225 0.205482 -0.0819392 0.0447822 0.185864 
-0.0891812 0.0462574 0.165672 -0.0960354 0.0479719 0.144854 -0.102269 0.0499465 0.123368 
-0.107651 0.0521917 0.101193 -0.111972 0.0547023 0.0783409 -0.115061 0.0574525 0.0548641 
-0.116806 0.0603945 0.0308538 -0.117155 0.0634593 0.00643878 -0.116126 0.0665612 -0.0182234 
-0.113799 0.0696039 -0.0429586 -0.110311 0.0724891 -0.0675907 -0.10584 0.0751251 -0.0919564 
-0.100588 0.0774346 -0.115919 -0.0947615 0.0793616 -0.139379 -0.0885574 0.0808747 -0.162277 
-0.0821448 0.0819676 -0.184599 -0.0756558 0.0826563 -0.206364 -0.0691794 0.0829738 -0.227622 
-0.0627605 0.0829615 -0.248433 -0.0564044 0.0826609 -0.268861 -0.0500849 0.0821052 -0.288955 
-0.0437548 0.0813117 -0.308742 -0.037359 0.0802773 -0.328218 -0.0308455 0.0789779 -0.34735 
-0.0241761 0.0773696 -0.366077 -0.0173343 0.0753948 -0.384321 -0.0103289 0.0729902 -0.401996 
-0.0031957 0.0700961 -0.419023 0.0040054 0.0666661 -0.435342 0.0111952 0.0626762 -0.450919 
0.0182818 0.0581312 -0.465752 0.0251683 0.0530674 -0.479872 0.03176 0.0475531 -0.493336 
0.0379707 0.041684 -0.506216 0.0437277 0.0355763 -0.518588 0.0489745 0.0293575 -0.530513 
0.0536724 0.0231558 -0.54203 0.0577999 0.0170903 -0.553138 0.0613515 0.0112619 -0.563797 
0.0643352 0.00574735 -0.573925 0.0667703 0.000596371 -0.583405 0.0686856 -0.00416808 -0.5921 
0.0701173 -0.00854631 -0.599869 0.0711082 -0.0125558 -0.606588 0.071707 -0.016224 -0.612165 
0.0719677 -0.0195799 -0.61656 0.0719492 -0.0226476 -0.619793 0.0717146 -0.0254404 -0.62195 
0.0713293 -0.0279581 -0.623173 0.0708594 -0.0301867 -0.623657 0.0703689 -0.0321004 -0.623622 
0.0699163 -0.0336663 -0.623297 0.0695515 -0.0348495 -0.622892 0.0693124 -0.0356193 -0.622577 
0.0692228 -0.035954 -0.622462 
LINES 2 100
OFFSETS vtktypeint64
0 100 
CONNECTIVITY vtktypeint64
0 1 2 3 4 5 6 7 8 
9 10 11 12 13 14 15 16 17 
18 19 20 21 22 23 24 25 26 
27 28 29 30 31 32 33 34 35 
36 37 38 39 40 41 42 43 44 
45 46 47 48 49 50 51 52 53 
54 55 56 57 58 59 60 61 62 
63 64 65 66 67 68 69 70 71 
72 73 74 75 76 77 78 79 80 
81 82 83 84 85 86 87 88 89 
90 91 92 93 94 95 96 97 98 
99 
POINT_DATA 100
FIELD FieldData 3
_theta 1 100 double
0 0.031733259127 0.063466518254 0.095199777382 0.12693303651 0.15866629564 0.19039955476 0.22213281389 0.25386607302 
0.28559933214 0.31733259127 0.3490658504 0.38079910953 0.41253236865 0.44426562778 0.47599888691 0.50773214603 0.53946540516 
0.57119866429 0.60293192342 0.63466518254 0.66639844167 0.6981317008 0.72986495992 0.76159821905 0.79333147818 0.82506473731 
0.85679799643 0.88853125556 0.92026451469 0.95199777382 0.98373103294 1.0154642921 1.0471975512 1.0789308103 1.1106640695 
1.1423973286 1.1741305877 1.2058638468 1.237597106 1.2693303651 1.3010636242 1.3327968833 1.3645301425 1.3962634016 
1.4279966607 1.4597299198 1.491463179 1.5231964381 1.5549296972 1.5866629564 1.6183962155 1.6501294746 1.6818627337 
1.7135959929 1.745329252 1.7770625111 1.8087957702 1.8405290294 1.8722622885 1.9039955476 1.9357288068 1.9674620659 
1.999195325 2.0309285841 2.0626618433 2.0943951024 2.1261283615 2.1578616206 2.1895948798 2.2213281389 2.253061398 
2.2847946572 2.3165279163 2.3482611754 2.3799944345 2.4117276937 2.4434609528 2.4751942119 2.506927471 2.5386607302 
2.5703939893 2.6021272484 2.6338605076 2.6655937667 2.6973270258 2.7290602849 2.7607935441 2.7925268032 2.8242600623 
2.8559933214 2.8877265806 2.9194598397 2.9511930988 2.982926358 3.0146596171 3.0463928762 3.0781261353 3.1098593945 
3.1415926536 
_radius 1 100 double
4.7978826226e-16 0.013422843796 0.026794369198 0.040060040519 0.053167489268 0.066066384526 0.078707233132 0.091039596218 0.10301038937 
0.11456284191 0.12563644823 0.13616801218 0.14609375385 0.15535239673 0.16388909732 0.17165995003 0.17863659791 0.18481028109 
0.19019456351 0.19482606286 0.19876277222 0.20207995077 0.20486399305 0.20720507562 0.20918963401 0.21089374776 0.21237825351 
0.21368591793 0.21484047075 0.21584695901 0.21669287332 0.2173497652 0.21777542987 0.21791696749 0.21771505229 0.21710954461 
0.21604626261 0.21448438579 0.21240366067 0.20981036455 0.20674092742 0.20326233314 0.19946901006 0.1954767662 0.19141503038 
0.18741875131 0.18362069122 0.1801440885 0.17709552182 0.17455840421 0.17258810658 0.1712094588 0.17041643265 0.17017313222 
0.17041555648 0.1710546682 0.17198199395 0.1730784339 0.17422542634 0.17531622131 0.17626473393 0.17701034035 0.17751841428 
0.17777764543 0.17779577322 0.17759520272 0.17720927045 0.1766791108 0.17605053365 0.17537025913 0.17468123092 0.17401732819 
0.17339830968 0.17282598514 0.17228234393 0.17172983301 0.17111343767 0.17036389803 0.16940137694 0.16813910977 0.16648685139 
0.16435413592 0.16165341654 0.15830308869 0.15423030069 0.14937340055 0.14368389128 0.13712785502 0.12968690794 0.12135880378 
0.11215778251 0.10211467519 0.091276679043 0.079706669182 0.067481948501 0.054692444319 0.041438492548 0.027828447732 0.013976374579 
1.2058210011e-15 
_area 1 100 double
0 0.00044308026316 0.0017648463041 0.0039429071871 0.006940112556 0.010705004603 0.015172740968 0.020266469981 0.025898864433 
0.031973422744 0.038385366489 0.045022388653 0.051765916028 0.05849377149 0.065085007468 0.071427070077 0.077424390431 0.083006463702 
0.088133146128 0.092795537469 0.097011955758 0.10081954844 0.10426328909 0.10738612758 0.11022534777 0.11281754861 0.11520911577 
0.1174655671 0.11967230623 0.12191788266 0.12425586789 0.12666567551 0.12904483515 0.13123124608 0.13303075536 0.13424070282 
0.1346727388 0.13417597859 0.1326578262 0.13009978181 0.12656609984 0.12220293447 0.11722577761 0.11189491027 0.10648259976 
0.10124022287 0.09637464569 0.09203745107 0.088319246399 0.085238529804 0.082738444154 0.080715235257 0.079059633301 0.077681203704 
0.076516135123 0.075527383204 0.074700262894 0.074034196131 0.073523171732 0.073133779174 0.07284640276 0.072640306164 0.072486333482 
0.072381886045 0.072277001775 0.072097718479 0.071781111104 0.071284987271 0.070609758156 0.06980480754 0.068964333157 0.068214191458 
0.067696574181 0.06757218585 0.067883268437 0.068461085841 0.069134129573 0.069744503448 0.070152779139 0.070248625316 0.069952908935 
0.069210698878 0.067979415755 0.066217613994 0.063879541063 0.06091877888 0.057300640282 0.05301897364 0.048111228773 0.04266698601 
0.036828033656 0.030780554099 0.024741411521 0.018941181894 0.013606715648 0.0089457439038 0.00513533064 0.0023149222931 0.00058357746441 
3.257091968e-17 
