# vtk DataFile Version 5.1
vtk output
ASCII
DATASET POLYDATA
POINTS 100 float
0.0909874 -0.0385808 0.709887 0.0910145 -0.0386268 0.709841 0.0911132 -0.0386235 0.709561 
0.0912522 -0.0385603 0.709023 0.0913851 -0.0384202 0.708185 0.0914561 -0.0381817 0.706993 
0.0914085 -0.0378213 0.705385 0.0911923 -0.0373164 0.703287 0.0907708 -0.036648 0.700625 
0.0901254 -0.0358031 0.697325 0.0892576 -0.0347764 0.693315 0.0881872 -0.0335712 0.688537 
0.0869479 -0.0321999 0.682944 0.0855805 -0.0306826 0.676504 0.0841246 -0.0290461 0.669208 
0.0826092 -0.0273218 0.661063 0.0810454 -0.0255428 0.652097 0.0794205 -0.0237421 0.642357 
0.0776954 -0.0219501 0.6319 0.0758061 -0.0201928 0.620797 0.0736679 -0.0184905 0.609121 
0.0711841 -0.0168578 0.596946 0.0682562 -0.0153032 0.58434 0.064796 -0.0138299 0.571364 
0.0607366 -0.0124375 0.558067 0.0560421 -0.0111232 0.544485 0.0507144 -0.00988308 0.530643 
0.0447954 -0.00871423 0.516552 0.0383651 -0.00761543 0.502219 0.0315353 -0.00658821 0.487641 
0.0244394 -0.00563725 0.472815 0.0172198 -0.0047704 0.457734 0.0100137 -0.0039983 0.442392 
0.00293984 -0.00333378 0.426785 -0.00391269 -0.00279111 0.410904 -0.0104924 -0.00238519 0.39474 
-0.0167885 -0.00213078 0.378277 -0.0228291 -0.00204195 0.361489 -0.0286745 -0.00213162 0.344342 
-0.0344066 -0.00241133 0.326789 -0.0401148 -0.00289115 0.308771 -0.045881 -0.00357972 0.290223 
-0.0517649 -0.0044843 0.271076 -0.0577914 -0.00561078 0.25126 -0.0639415 -0.00696371 0.230719 
-0.0701483 -0.00854607 0.20941 -0.0762976 -0.0103591 0.187313 -0.0822349 -0.0124017 0.164436 
-0.087776 -0.0146703 0.14082 -0.0927211 -0.0171581 0.116532 -0.0968718 -0.0198546 0.0916689 
-0.100047 -0.0227449 0.0663488 -0.1021 -0.0258096 0.0407016 -0.102926 -0.0290243 0.0148604 
-0.102475 -0.0323591 -0.011049 -0.100754 -0.0357786 -0.0369174 -0.0978186 -0.0392414 -0.0626601 
-0.0937756 -0.0427006 -0.0882213 -0.0887648 -0.0461028 -0.113575 -0.082949 -0.0493894 -0.138723 
-0.0764988 -0.0524957 -0.163688 -0.0695786 -0.0553523 -0.188506 -0.0623345 -0.0578855 -0.213214 
-0.0548854 -0.0600189 -0.237841 -0.0473173 -0.0616749 -0.262397 -0.0396823 -0.062777 -0.286862 
-0.0320012 -0.0632525 -0.311188 -0.0242697 -0.0630357 -0.335291 -0.0164666 -0.0620709 -0.359058 
-0.00856403 -0.0603157 -0.382355 -0.000537462 -0.0577439 -0.405033 0.00762532 -0.0543482 -0.426942 
0.015917 -0.0501421 -0.447944 0.0243064 -0.0451601 -0.467924 0.032737 -0.0394579 -0.486796 
0.0411284 -0.0331109 -0.504514 0.0493813 -0.0262113 -0.52107 0.0573834 -0.0188651 -0.536493 
0.0650177 -0.0111872 -0.550842 0.0721712 -0.00329687 -0.564198 0.0787426 0.00468693 -0.576657 
0.0846497 0.0126504 -0.588312 0.0898344 0.0204889 -0.599247 0.0942661 0.0281097 -0.609531 
0.0979424 0.0354349 -0.619209 0.100888 0.0424014 -0.6283 0.103151 0.0489613 -0.636804 
0.104799 0.0550806 -0.644701 0.105913 0.0607375 -0.65196 0.106581 0.0659194 -0.658548 
0.106895 0.0706209 -0.664434 0.106941 0.0748407 -0.669599 0.106802 0.0785797 -0.674041 
0.106548 0.0818393 -0.677772 0.106241 0.08462 -0.68082 0.105927 0.0869209 -0.683224 
0.105646 0.08874 -0.685032 0.105425 0.090074 -0.686288 0.105283 0.0909195 -0.68703 
0.105229 0.091273 -0.687281 
LINES 2 100
OFFSETS vtktypeint64
0 100 
CONNECTIVITY vtktypeint64
0 1 2 3 4 5 6 7 8 
9 10 11 12 13 14 15 16 17 
18 19 20 21 22 23 24 25 26 
27 28 29 30 31 32 33 34 35 
36 37 38 39 40 41 42 43 44 
45 46 47 48 49 50 51 52 53 
54 55 56 57 58 59 60 61 62 
63 64 65 66 67 68 69 70 71 
72 73 74 75 76 77 78 79 80 
81 82 83 84 85 86 87 88 89 
90 91 92 93 94 95 96 97 98 
99 
POINT_DATA 100
FIELD FieldData 3
_theta 1 100 double
0 0.031733259127 0.063466518254 0.095199777382 0.12693303651 0.15866629564 0.19039955476 0.22213281389 0.25386607302 
0.28559933214 0.31733259127 0.3490658504 0.38079910953 0.41253236865 0.44426562778 0.47599888691 0.50773214603 0.53946540516 
0.57119866429 0.60293192342 0.63466518254 0.66639844167 0.6981317008 0.72986495992 0.76159821905 0.79333147818 0.82506473731 
0.85679799643 0.88853125556 0.92026451469 0.95199777382 0.98373103294 1.0154642921 1.0471975512 1.0789308103 1.1106640695 
1.1423973286 1.1741305877 1.2058638468 1.237597106 1.2693303651 1.3010636242 1.3327968833 1.3645301425 1.3962634016 
1.4279966607 1.4597299198 1.491463179 1.5231964381 1.5549296972 1.5866629564 1.6183962155 1.6501294746 1.6818627337 
1.7135959929 1.745329252 1.7770625111 1.8087957702 1.8405290294 1.8722622885 1.9039955476 1.9357288068 1.9674620659 
1.999195325 2.0309285841 2.0626618433 2.0943951024 2.1261283615 2.1578616206 2.1895948798 2.2213281389 2.253061398 
2.2847946572 2.3165279163 2.3482611754 2.3799944345 2.4117276937 2.4434609528 2.4751942119 2.506927471 2.5386607302 
2.5703939893 2.6021272484 2.6338605076 2.6655937667 2.6973270258 2.7290602849 2.7607935441 2.7925268032 2.8242600623 
2.8559933214 2.8877265806 2.9194598397 2.9511930988 2.982926358 3.0146596171 3.0463928762 3.0781261353 3.1098593945 
3.1415926536 
_radius 1 100 double
1.6302709355e-16 0.01640302726 0.032742587 0.048949639651 0.064954227683 0.080685690418 0.096073477172 0.11104864858 0.1255460263 
0.13950677781 0.1528810418 0.16563007332 0.17772738054 0.18915847018 0.19991909516 0.21001223645 0.2194443628 0.22822171296 
0.23634737735 0.24381979763 0.25063298527 0.25677837827 0.26224793146 0.26703786011 0.27115243358 0.27460727146 0.277431649 
0.27966934525 0.28137761011 0.28262395577 0.28348073784 0.28401787195 0.28429447224 0.28435059559 0.2842005081 0.28382885423 
0.28319076306 0.28221632747 0.28081918144 0.27890825074 0.27640129722 0.27323866663 0.26939565039 0.26489200001 0.25979731418 
0.25423123533 0.24835771632 0.24237318358 0.23648933436 0.23091248763 0.22582253948 0.22135519659 0.21759088903 0.21455240743 
0.21221103475 0.21049848075 0.20932041615 0.20856768961 0.20812337812 0.20786682668 0.20767826039 0.20744742144 0.20708625487 
0.20654158921 0.20580285468 0.20490242288 0.2039092974 0.20291852787 0.20203867613 0.2013786494 0.20103408881 0.20107302453 
0.20152119549 0.20234912919 0.20346456624 0.2047134568 0.20589032318 0.20675601428 0.20705951087 0.20656053458 0.20505033083 
0.20236851736 0.19841430828 0.19315094584 0.1866029175 0.17884647641 0.16999498085 0.16018142305 0.14954100218 0.13819652972 
0.1262488018 0.11377298944 0.10082088011 0.087427752099 0.073621965544 0.059435069855 0.044910336544 0.030108071389 0.015106764941 
1.1239197977e-15 
_area 1 100 double
0 0.00065948256082 0.0026308301073 0.0058918878721 0.010403010742 0.016103462878 0.02290747344 0.030701264996 0.039342756697 
0.048665580163 0.058488242251 0.068627732705 0.078915047751 0.08920878266 0.099402962471 0.10942692604 0.11923770312 0.12880763832 
0.13811102243 0.1471130892 0.1557635169 0.16399523968 0.17172832209 0.17887800884 0.18536585909 0.19113263293 0.19615036959 
0.20042955026 0.20401804106 0.20699199458 0.20944150521 0.21145334234 0.21309191762 0.21438072391 0.21528861911 0.21572561854 
0.21555187663 0.21460114868 0.21270842159 0.20972204333 0.20553627707 0.20027971871 0.19400736081 0.18697682794 0.17934777046 
0.17112936449 0.16263163623 0.15421806815 0.1462293215 0.13893752236 0.13251526353 0.1270177196 0.12238220432 0.11845514493 
0.11504742916 0.11199203341 0.10916358795 0.10646383377 0.10381843961 0.10117531962 0.0984996643 0.095781233803 0.093042412917 
0.090336968852 0.087740748447 0.085338352547 0.08321509781 0.081462417796 0.080194036861 0.079558381802 0.07971905591 0.080790834546 
0.08279498269 0.085700617566 0.08939761246 0.093609032394 0.097909754792 0.1018635464 0.10506004592 0.10713078646 0.10777532348 
0.1067902353 0.10409213464 0.099727424774 0.09386431578 0.086766898068 0.078756304098 0.070168346772 0.061318130457 0.052478779619 
0.043875267329 0.035689190012 0.028068803578 0.021140004459 0.015015909176 0.0098036729931 0.0056071049042 0.0025236694659 0.00063591547011 
1.1141470635e-16 
