# vtk DataFile Version 5.1
vtk output
ASCII
DATASET POLYDATA
POINTS 100 float
0.089799 -0.0279617 0.709516 0.0897933 -0.0281254 0.709171 0.0896934 -0.0287389 0.708275 
0.0894928 -0.0297499 0.706877 0.0891831 -0.0310756 0.705044 0.0887562 -0.0326098 0.702857 
0.0882075 -0.0342312 0.700389 0.0875378 -0.0358132 0.697695 0.0867551 -0.0372339 0.694801 
0.0858735 -0.0383847 0.691692 0.084912 -0.0391782 0.68831 0.0838901 -0.0395527 0.684561 
0.0828235 -0.0394756 0.680319 0.0817185 -0.0389424 0.675442 0.0805674 -0.0379751 0.669788 
0.0793447 -0.0366169 0.663231 0.0780058 -0.0349263 0.655674 0.0764885 -0.0329703 0.64706 
0.0747165 -0.030818 0.63738 0.0726067 -0.0285343 0.626672 0.0700773 -0.0261755 0.615009 
0.0670578 -0.0237866 0.602497 0.0634973 -0.0214002 0.589254 0.059373 -0.0190374 0.575401 
0.0546934 -0.0167104 0.561041 0.0495004 -0.0144258 0.546256 0.0438645 -0.0121884 0.531098 
0.0378782 -0.0100053 0.515591 0.0316448 -0.0078886 0.499729 0.025265 -0.00585782 0.483496 
0.018824 -0.00394034 0.466866 0.0123786 -0.00217056 0.449824 0.00594886 -0.000587884 0.432369 
-0.000487401 0.000766542 0.414526 -0.00699295 0.00185348 0.396342 -0.0136646 0.00263942 0.377886 
-0.0206208 0.00309986 0.359238 -0.027985 0.00322175 0.340474 -0.0358667 0.00300456 0.321656 
-0.0443412 0.00245998 0.302813 -0.0534331 0.0016102 0.28393 -0.0631017 0.000484887 0.264944 
-0.0732348 -0.000882644 0.245743 -0.0836483 -0.00245964 0.226171 -0.0940938 -0.00421799 0.206048 
-0.104274 -0.00613759 0.185183 -0.113864 -0.00820857 0.1634 -0.122535 -0.010432 0.14056 
-0.129982 -0.012819 0.116582 -0.135946 -0.0153881 0.0914549 -0.140238 -0.0181614 0.065247 
-0.142752 -0.0211598 0.0381018 -0.143469 -0.0243973 0.010228 -0.142459 -0.0278756 -0.018119 
-0.139871 -0.0315802 -0.046661 -0.135909 -0.0354763 -0.0751231 -0.13082 -0.0395072 -0.103259 
-0.12486 -0.0435948 -0.130871 -0.118274 -0.0476414 -0.157825 -0.11127 -0.0515336 -0.184057 
-0.104008 -0.0551477 -0.209566 -0.0965819 -0.0583562 -0.234404 -0.0890208 -0.0610345 -0.258656 
-0.0812935 -0.0630681 -0.282419 -0.0733192 -0.0643585 -0.305776 -0.0649846 -0.0648287 -0.328778 
-0.0561639 -0.0644266 -0.351428 -0.0467395 -0.0631272 -0.373674 -0.0366216 -0.0609329 -0.395416 
-0.0257635 -0.0578726 -0.416509 -0.0141728 -0.0539986 -0.436792 -0.00191494 -0.0493833 -0.456099 
0.010888 -0.0441152 -0.474294 0.0240657 -0.038294 -0.491284 0.0374116 -0.0320262 -0.507036 
0.0506996 -0.0254215 -0.521588 0.0637005 -0.0185888 -0.535041 0.0761996 -0.0116339 -0.547553 
0.088011 -0.00465706 -0.559311 0.0989894 0.00224844 -0.570511 0.109037 0.00899713 -0.581329 
0.118106 0.0155122 -0.591894 0.126197 0.0217259 -0.602268 0.133351 0.0275801 -0.612435 
0.139645 0.0330266 -0.622303 0.145176 0.0380276 -0.631708 0.150051 0.0425565 -0.640441 
0.15438 0.0465977 -0.648273 0.158262 0.0501474 -0.654988 0.161778 0.0532129 -0.660417 
0.164989 0.055812 -0.664462 0.167933 0.0579723 -0.667116 0.170624 0.0597288 -0.668473 
0.173057 0.0611218 -0.668723 0.175209 0.0621945 -0.668132 0.177048 0.0629897 -0.667016 
0.178538 0.063547 -0.665708 0.179642 0.0639002 -0.664517 0.18033 0.0640744 -0.663696 
0.180583 0.0640849 -0.663408 
LINES 2 100
OFFSETS vtktypeint64
0 100 
CONNECTIVITY vtktypeint64
0 1 2 3 4 5 6 7 8 
9 10 11 12 13 14 15 16 17 
18 19 20 21 22 23 24 25 26 
27 28 29 30 31 32 33 34 35 
36 37 38 39 40 41 42 43 44 
45 46 47 48 49 50 51 52 53 
54 55 56 57 58 59 60 61 62 
63 64 65 66 67 68 69 70 71 
72 73 74 75 76 77 78 79 80 
81 82 83 84 85 86 87 88 89 
90 91 92 93 94 95 96 97 98 
99 
POINT_DATA 100
FIELD FieldData 3
_theta 1 100 double
0 0.031733259127 0.063466518254 0.095199777382 0.12693303651 0.15866629564 0.19039955476 0.22213281389 0.25386607302 
0.28559933214 0.31733259127 0.3490658504 0.38079910953 0.41253236865 0.44426562778 0.47599888691 0.50773214603 0.53946540516 
0.57119866429 0.60293192342 0.63466518254 0.66639844167 0.6981317008 0.72986495992 0.76159821905 0.79333147818 0.82506473731 
0.85679799643 0.88853125556 0.92026451469 0.95199777382 0.98373103294 1.0154642921 1.0471975512 1.0789308103 1.1106640695 
1.1423973286 1.1741305877 1.2058638468 1.237597106 1.2693303651 1.3010636242 1.3327968833 1.3645301425 1.3962634016 
1.4279966607 1.4597299198 1.491463179 1.5231964381 1.5549296972 1.5866629564 1.6183962155 1.6501294746 1.6818627337 
1.7135959929 1.745329252 1.7770625111 1.8087957702 1.8405290294 1.8722622885 1.9039955476 1.9357288068 1.9674620659 
1.999195325 2.0309285841 2.0626618433 2.0943951024 2.1261283615 2.1578616206 2.1895948798 2.2213281389 2.253061398 
2.2847946572 2.3165279163 2.3482611754 2.3799944345 2.4117276937 2.4434609528 2.4751942119 2.506927471 2.5386607302 
2.5703939893 2.6021272484 2.6338605076 2.6655937667 2.6973270258 2.7290602849 2.7607935441 2.7925268032 2.8242600623 
2.8559933214 2.8877265806 2.9194598397 2.9511930988 2.982926358 3.0146596171 3.0463928762 3.0781261353 3.1098593945 
3.1415926536 
_radius 1 100 double
2.6193750069e-16 0.015186315889 0.030349697232 0.045468195299 0.060513427409 0.075447718866 0.090222166202 0.10477595588 0.11903710618 
0.13292458161 0.14635157524 0.15922971426 0.17147390812 0.18300736767 0.19376602947 0.20370152542 0.21278215451 0.22099191334 
0.22832820137 0.23479909945 0.24042107495 0.24521768618 0.24921948693 0.25246498715 0.2550022608 0.2568906071 0.25820155165 
0.25901842473 0.25943381938 0.25954448158 0.25944365666 0.25921155017 0.25890518664 0.25854937052 0.25813054578 0.25759510768 
0.2568532081 0.25578837746 0.25427239455 0.25218382005 0.24942763947 0.24595283882 0.24176477717 0.23693005655 0.23157307085 
0.22586517826 0.22000902676 0.2142213877 0.20871730952 0.20369652899 0.19933122147 0.19575406974 0.19304733233 0.1912350993 
0.19028054752 0.19008847575 0.19051266192 0.1913681383 0.19244893915 0.19355081869 0.19449609716 0.19515594386 0.19546558005 
0.19542994202 0.19511989386 0.19466073695 0.19421502798 0.19396119657 0.1940692718 0.19467575479 0.19586085392 0.19763197902 
0.1999168598 0.20256785275 0.2053765464 0.20809561909 0.21046380498 0.21222997957 0.2131734249 0.21311863682 0.21194404426 
0.20958453681 0.20602794971 0.2013059901 0.19548069236 0.18862824177 0.18082260453 0.17212158736 0.16255762806 0.1521348563 
0.14083291878 0.12861691713 0.11545174547 0.1013183168 0.086228789452 0.07023806037 0.053449515224 0.0360142085 0.018123977368 
9.9571457089e-16 
_area 1 100 double
0 0.00054917336922 0.0021856143076 0.0048789075078 0.0085869574986 0.013266158144 0.018880674125 0.025406937235 0.032829488122 
0.041125844512 0.050243243469 0.060076988602 0.07046140784 0.081177693145 0.091974625879 0.10259435682 0.11279630725 0.12237520964 
0.13117215668 0.13907945521 0.14604066199 0.15204642274 0.15712607228 0.16133621158 0.16475004818 0.16745184943 0.16953751074 
0.17111779851 0.17231962157 0.17328325014 0.17415703216 0.1750958663 0.17630436834 0.17825940654 0.18064646441 0.18296705662 
0.1848378149 0.18587904266 0.18573754154 0.18413341928 0.18091117125 0.17608195136 0.16984337819 0.1625646709 0.1547318507 
0.14686222805 0.13941475041 0.13272597626 0.12697929202 0.12219571676 0.1182573271 0.11497736429 0.11217063707 0.10968163778 
0.10738994466 0.10522068732 0.1031532725 0.10121297852 0.099448348922 0.0978970739 0.096576620685 0.095459518027 0.094472361711 
0.09353497222 0.092574137802 0.091581485177 0.090581857323 0.089710613172 0.089143736078 0.089078549074 0.089727438655 0.091260757978 
0.093621331868 0.096560966582 0.099851605747 0.10321192117 0.10631628173 0.10881885335 0.11038906682 0.11075528372 0.10974604984 
0.10731468151 0.10353724231 0.098582986919 0.092665959206 0.085993722102 0.078731522953 0.070995137018 0.062873253458 0.054466216965 
0.045921198165 0.037448139656 0.02931101747 0.021798019253 0.015179697793 0.0096672548196 0.0053847113636 0.0023669155413 0.00058670271642 
5.2149704257e-17 
