# vtk DataFile Version 5.1
vtk output
ASCII
DATASET POLYDATA
POINTS 100 float
0.139794 -0.00917602 0.616624 0.140064 -0.00928944 0.616255 0.140736 -0.00973643 0.615273 
0.141708 -0.0104763 0.61376 0.142824 -0.0114458 0.611839 0.143894 -0.0125652 0.609653 
0.144712 -0.0137468 0.607339 0.145082 -0.0149026 0.60501 0.144838 -0.0159532 0.602727 
0.143865 -0.0168344 0.60049 0.142105 -0.0175027 0.598229 0.139565 -0.0179377 0.595811 
0.136311 -0.0181423 0.593051 0.132457 -0.01814 0.589732 0.128152 -0.0179709 0.585637 
0.123554 -0.0176849 0.580566 0.118815 -0.0173354 0.574371 0.11406 -0.0169721 0.566971 
0.109373 -0.0166354 0.558361 0.104787 -0.0163521 0.548618 0.100287 -0.0161328 0.537889 
0.0958089 -0.015972 0.526378 0.0912549 -0.0158497 0.514317 0.0865077 -0.0157351 0.501941 
0.0814481 -0.0155919 0.489466 0.0759722 -0.0153831 0.477058 0.0700059 -0.0150766 0.464824 
0.0635155 -0.01465 0.452801 0.0565117 -0.0140935 0.440956 0.0490477 -0.0134119 0.429202 
0.0412116 -0.0126241 0.417408 0.0331141 -0.011762 0.405424 0.0248726 -0.0108668 0.393101 
0.0165963 -0.00998554 0.380312 0.00837103 -0.00916656 0.366966 0.000249167 -0.00845526 0.353015 
-0.00775578 -0.00789069 0.338453 -0.0156684 -0.00750295 0.323311 -0.0235444 -0.00731194 0.307641 
-0.0314585 -0.00732731 0.291502 -0.0394882 -0.00754963 0.27494 -0.0476962 -0.00797244 0.257975 
-0.0561128 -0.00858478 0.240591 -0.0647221 -0.00937395 0.222735 -0.0734521 -0.010328 0.204317 
-0.0821717 -0.0114375 0.185229 -0.090694 -0.0126969 0.165355 -0.0987871 -0.0141043 0.144596 
-0.10619 -0.0156612 0.122886 -0.112632 -0.0173708 0.100215 -0.117856 -0.0192362 0.0766325 
-0.121639 -0.0212581 0.052256 -0.123812 -0.0234326 0.0272637 -0.124272 -0.0257495 0.00188114 
-0.122991 -0.0281912 -0.0236385 -0.120017 -0.0307312 -0.0490381 -0.115465 -0.0333348 -0.0740816 
-0.10951 -0.0359594 -0.0985754 -0.102363 -0.0385549 -0.122385 -0.0942569 -0.0410659 -0.145442 
-0.0854241 -0.0434326 -0.167745 -0.0760767 -0.0455924 -0.189351 -0.0663921 -0.0474815 -0.210354 
-0.0565019 -0.0490364 -0.230869 -0.0464868 -0.0501952 -0.251002 -0.0363775 -0.0508989 -0.270833 
-0.02616 -0.051093 -0.290397 -0.0157871 -0.0507288 -0.309675 -0.00519091 -0.0497657 -0.328593 
0.00570199 -0.0481727 -0.347028 0.0169559 -0.0459307 -0.364829 0.0286134 -0.0430348 -0.381834 
0.0406854 -0.0394962 -0.397898 0.0531448 -0.0353439 -0.412911 0.0659252 -0.0306252 -0.426818 
0.0789223 -0.0254066 -0.439629 0.0919998 -0.0197723 -0.451421 0.104998 -0.0138227 -0.462325 
0.117743 -0.00767094 -0.472514 0.13006 -0.00143892 -0.482174 0.141781 0.00474739 -0.491482 
0.152755 0.0107635 -0.500575 0.162859 0.0164919 -0.509536 0.171998 0.0218272 -0.518371 
0.180113 0.026681 -0.527013 0.187177 0.0309856 -0.535328 0.1932 0.0346966 -0.54313 
0.198218 0.0377942 -0.550208 0.202298 0.0402826 -0.556356 0.205522 0.0421894 -0.561405 
0.20799 0.043562 -0.565247 0.209812 0.0444644 -0.567857 0.211098 0.0449728 -0.569302 
0.211959 0.0451701 -0.569736 0.212499 0.0451415 -0.569387 0.212813 0.0449693 -0.568535 
0.212982 0.0447282 -0.567473 0.21307 0.0444811 -0.566479 0.213124 0.0442761 -0.565781 
0.213174 0.044144 -0.565526 
LINES 2 100
OFFSETS vtktypeint64
0 100 
CONNECTIVITY vtktypeint64
0 1 2 3 4 5 6 7 8 
9 10 11 12 13 14 15 16 17 
18 19 20 21 22 23 24 25 26 
27 28 29 30 31 32 33 34 35 
36 37 38 39 40 41 42 43 44 
45 46 47 48 49 50 51 52 53 
54 55 56 57 58 59 60 61 62 
63 64 65 66 67 68 69 70 71 
72 73 74 75 76 77 78 79 80 
81 82 83 84 85 86 87 88 89 
90 91 92 93 94 95 96 97 98 
99 
POINT_DATA 100
FIELD FieldData 3
_theta 1 100 double
0 0.031733259127 0.063466518254 0.095199777382 0.12693303651 0.15866629564 0.19039955476 0.22213281389 0.25386607302 
0.28559933214 0.31733259127 0.3490658504 0.38079910953 0.41253236865 0.44426562778 0.47599888691 0.50773214603 0.53946540516 
0.57119866429 0.60293192342 0.63466518254 0.66639844167 0.6981317008 0.72986495992 0.76159821905 0.79333147818 0.82506473731 
0.85679799643 0.88853125556 0.92026451469 0.95199777382 0.98373103294 1.0154642921 1.0471975512 1.0789308103 1.1106640695 
1.1423973286 1.1741305877 1.2058638468 1.237597106 1.2693303651 1.3010636242 1.3327968833 1.3645301425 1.3962634016 
1.4279966607 1.4597299198 1.491463179 1.5231964381 1.5549296972 1.5866629564 1.6183962155 1.6501294746 1.6818627337 
1.7135959929 1.745329252 1.7770625111 1.8087957702 1.8405290294 1.8722622885 1.9039955476 1.9357288068 1.9674620659 
1.999195325 2.0309285841 2.0626618433 2.0943951024 2.1261283615 2.1578616206 2.1895948798 2.2213281389 2.253061398 
2.2847946572 2.3165279163 2.3482611754 2.3799944345 2.4117276937 2.4434609528 2.4751942119 2.506927471 2.5386607302 
2.5703939893 2.6021272484 2.6338605076 2.6655937667 2.6973270258 2.7290602849 2.7607935441 2.7925268032 2.8242600623 
2.8559933214 2.8877265806 2.9194598397 2.9511930988 2.982926358 3.0146596171 3.0463928762 3.0781261353 3.1098593945 
3.1415926536 
_radius 1 100 double
1.3506991883e-15 0.014401968189 0.028845940854 0.043365293607 0.057970384725 0.072640478225 0.087319651675 0.10191706302 0.11631121666 
0.13035738323 0.14389729044 0.15677049192 0.16882701482 0.17994061289 0.19002127033 0.19902498223 0.20695873948 0.21387920769 
0.21988466327 0.22510107901 0.22966456878 0.23370340222 0.23732314151 0.24059784384 0.24356870944 0.24624947836 0.24863607828 
0.25071721525 0.25248301391 0.25393008919 0.25506285581 0.25589180802 0.25642971781 0.25668649913 0.25666336012 0.25634707718 
0.2557056379 0.25468675469 0.25322056488 0.2512271516 0.24862850889 0.24536351173 0.24140361192 0.23676656959 0.23152563973 
0.2258122447 0.21981113943 0.21374818279 0.20787179464 0.20242988604 0.19764470366 0.193688958 0.19066754177 0.18860889997 
0.18746771082 0.18713682955 0.18746377805 0.18826713487 0.18935076082 0.19051708909 0.191582273 0.19239427943 0.19285128777 
0.19291535073 0.19261707858 0.19204992968 0.19135535768 0.19070153077 0.19025873314 0.19017443726 0.1905508723 0.19142784562 
0.19277332762 0.19448346175 0.19639212733 0.19828841559 0.19993901661 0.20111192696 0.20159805625 0.20122800388 0.19988224883 
0.19749405738 0.19404543899 0.18955737744 0.18407626225 0.17765887821 0.17035841396 0.16221367498 0.15324304211 0.14344381205 
0.13279660343 0.12127375884 0.10885027825 0.095515764115 0.081285957511 0.066212490746 0.050389423847 0.033955153585 0.01708866923 
7.196566287e-16 
_area 1 100 double
0 0.00044168348394 0.001773889889 0.0040150055332 0.0071870260276 0.011307156844 0.016381989851 0.022404896123 0.029353787154 
0.037184336411 0.045815346599 0.055108778914 0.064853902184 0.074767382971 0.084516097752 0.093760358902 0.1022078128 0.10966515075 
0.11607521964 0.12152958146 0.12625034113 0.13054066629 0.13471196054 0.13900610775 0.14353770409 0.14827653318 0.15307409265 
0.15771798261 0.16198891124 0.16570350566 0.16873956449 0.17104673757 0.17264607688 0.17362174711 0.17410885917 0.17427659181 
0.17428274903 0.17415326957 0.17369450228 0.17262067839 0.17068414218 0.16770821295 0.16360163678 0.15837555121 0.15215462023 
0.14517381466 0.13775782985 0.13028639705 0.12315142648 0.11670841762 0.11122262118 0.10682285954 0.10348743355 0.10106809078 
0.099334122238 0.09801978835 0.096867298421 0.095663056012 0.094266385015 0.092635417566 0.090840204045 0.088973791242 0.087149332456 
0.085401461703 0.083643744674 0.081865205529 0.080104160523 0.078433049751 0.076999097181 0.075977958911 0.075552550516 0.075889992118 
0.077043559474 0.078851453835 0.08107249193 0.083427805847 0.085627452189 0.087400976685 0.088520001168 0.088812820292 0.088171463739 
0.086552027722 0.083968898911 0.080483673354 0.076190419387 0.07120010455 0.065627852079 0.059586353713 0.053186616277 0.046543974359 
0.03978509993 0.033052151108 0.026502579015 0.020305510755 0.014636611601 0.009672620157 0.0055850303047 0.0025310367544 0.00064042573664 
4.2168471839e-17 
