# vtk DataFile Version 5.1
vtk output
ASCII
DATASET POLYDATA
POINTS 100 float
0.146402 -0.0242328 0.692832 0.146293 -0.024201 0.692837 0.145913 -0.0241875 0.692994 
0.145269 -0.0241706 0.693234 0.144373 -0.024119 0.693446 0.143238 -0.0239974 0.69348 
0.141884 -0.023773 0.693155 0.140333 -0.0234222 0.692274 0.138607 -0.022935 0.690634 
0.136729 -0.0223189 0.688038 0.134715 -0.0215988 0.684312 0.132578 -0.0208147 0.679318 
0.130316 -0.0200167 0.672965 0.127919 -0.0192581 0.665217 0.125361 -0.0185876 0.656101 
0.122601 -0.0180417 0.645701 0.119586 -0.0176383 0.63416 0.116255 -0.0173727 0.621666 
0.11254 -0.0172175 0.608435 0.108378 -0.0171243 0.5947 0.10371 -0.0170301 0.580686 
0.0984946 -0.0168649 0.566598 0.0927111 -0.0165619 0.552596 0.0863622 -0.0160672 0.538793 
0.0794767 -0.0153482 0.525241 0.0721079 -0.0144004 0.511931 0.0643299 -0.0132503 0.498804 
0.0562307 -0.0119545 0.485754 0.0479046 -0.0105957 0.472647 0.0394428 -0.00927448 0.459338 
0.0309247 -0.00809941 0.445683 0.0224107 -0.00717579 0.43156 0.0139374 -0.00659469 0.416872 
0.005516 -0.0064237 0.40156 -0.00286563 -0.00670035 0.385595 -0.0112373 -0.00742917 0.36898 
-0.0196375 -0.00858258 0.351736 -0.0281029 -0.0101053 0.333888 -0.0366561 -0.0119218 0.315458 
-0.0452946 -0.0139456 0.296447 -0.0539816 -0.0160893 0.276835 -0.06264 -0.0182737 0.256572 
-0.0711511 -0.0204352 0.235587 -0.0793574 -0.0225309 0.21379 -0.0870709 -0.0245398 0.191096 
-0.0940848 -0.0264611 0.167431 -0.100189 -0.0283104 0.142756 -0.105186 -0.0301133 0.117079 
-0.108908 -0.0318979 0.0904683 -0.111231 -0.0336886 0.0630518 -0.112084 -0.0355001 0.0350189 
-0.111459 -0.0373341 0.00660758 -0.109408 -0.039178 -0.0219121 -0.10604 -0.0410067 -0.0502603 
-0.10151 -0.0427855 -0.078171 -0.0960098 -0.0444755 -0.105416 -0.0897451 -0.046038 -0.131823 
-0.082924 -0.04744 -0.157293 -0.0757388 -0.0486566 -0.181799 -0.0683528 -0.0496723 -0.205387 
-0.060891 -0.0504798 -0.228165 -0.0534347 -0.0510764 -0.250279 -0.0460213 -0.0514591 -0.271891 
-0.0386489 -0.0516184 -0.293156 -0.0312846 -0.0515331 -0.314196 -0.0238748 -0.0511663 -0.335081 
-0.0163579 -0.0504636 -0.35582 -0.0086763 -0.0493548 -0.376357 -0.000786571 -0.047758 -0.396577 
0.00733211 -0.0455878 -0.416324 0.0156733 -0.0427648 -0.435421 0.0242019 -0.0392268 -0.453694 
0.0328563 -0.0349392 -0.470996 0.0415532 -0.0299039 -0.48723 0.0501942 -0.0241651 -0.502359 
0.0586743 -0.017811 -0.516417 0.0668893 -0.0109709 -0.529496 0.0747435 -0.00380766 -0.541742 
0.0821552 0.00349362 -0.553327 0.0890603 0.0107396 -0.564425 0.0954145 0.017744 -0.575186 
0.101193 0.0243424 -0.585711 0.106387 0.0304047 -0.596036 0.111005 0.0358437 -0.606121 
0.115065 0.0406195 -0.615852 0.118594 0.0447387 -0.625052 0.121624 0.048248 -0.633507 
0.12419 0.0512249 -0.64099 0.126329 0.0537647 -0.647294 0.12808 0.0559671 -0.652263 
0.129481 0.0579228 -0.65582 0.130575 0.0597029 -0.657978 0.131401 0.061352 -0.658853 
0.132003 0.0628847 -0.658651 0.132423 0.0642875 -0.657655 0.132702 0.0655244 -0.656194 
0.132876 0.0665454 -0.654609 0.132977 0.067297 -0.653215 0.13303 0.0677318 -0.652267 
0.133049 0.0678179 -0.651931 
LINES 2 100
OFFSETS vtktypeint64
0 100 
CONNECTIVITY vtktypeint64
0 1 2 3 4 5 6 7 8 
9 10 11 12 13 14 15 16 17 
18 19 20 21 22 23 24 25 26 
27 28 29 30 31 32 33 34 35 
36 37 38 39 40 41 42 43 44 
45 46 47 48 49 50 51 52 53 
54 55 56 57 58 59 60 61 62 
63 64 65 66 67 68 69 70 71 
72 73 74 75 76 77 78 79 80 
81 82 83 84 85 86 87 88 89 
90 91 92 93 94 95 96 97 98 
99 
POINT_DATA 100
FIELD FieldData 3
_theta 1 100 double
0 0.031733259127 0.063466518254 0.095199777382 0.12693303651 0.15866629564 0.19039955476 0.22213281389 0.25386607302 
0.28559933214 0.31733259127 0.3490658504 0.38079910953 0.41253236865 0.44426562778 0.47599888691 0.50773214603 0.53946540516 
0.57119866429 0.60293192342 0.63466518254 0.66639844167 0.6981317008 0.72986495992 0.76159821905 0.79333147818 0.82506473731 
0.85679799643 0.88853125556 0.92026451469 0.95199777382 0.98373103294 1.0154642921 1.0471975512 1.0789308103 1.1106640695 
1.1423973286 1.1741305877 1.2058638468 1.237597106 1.2693303651 1.3010636242 1.3327968833 1.3645301425 1.3962634016 
1.4279966607 1.4597299198 1.491463179 1.5231964381 1.5549296972 1.5866629564 1.6183962155 1.6501294746 1.6818627337 
1.7135959929 1.745329252 1.7770625111 1.8087957702 1.8405290294 1.8722622885 1.9039955476 1.9357288068 1.9674620659 
1.999195325 2.0309285841 2.0626618433 2.0943951024 2.1261283615 2.1578616206 2.1895948798 2.2213281389 2.253061398 
2.2847946572 2.3165279163 2.3482611754 2.3799944345 2.4117276937 2.4434609528 2.4751942119 2.506927471 2.5386607302 
2.5703939893 2.6021272484 2.6338605076 2.6655937667 2.6973270258 2.7290602849 2.7607935441 2.7925268032 2.8242600623 
2.8559933214 2.8877265806 2.9194598397 2.9511930988 2.982926358 3.0146596171 3.0463928762 3.0781261353 3.1098593945 
3.1415926536 
_radius 1 100 double
1.2326696503e-15 0.015264942451 0.030400100595 0.045285446718 0.059817139821 0.073910811176 0.087500478567 0.10053357958 0.11296373345 
0.12474369056 0.13582117497 0.14613961438 0.155644065 0.16429062147 0.17205625804 0.17894597236 0.18499513709 0.19026652413 
0.19484298679 0.19881787369 0.20228565276 0.20533484543 0.20804432642 0.21048269486 0.21270925151 0.21477456351 0.21671892831 
0.21856825334 0.22032848523 0.22198086132 0.22348020506 0.22475737145 0.22572554103 0.22628903781 0.2263529662 0.22583218538 
0.22465875271 0.22278767117 0.22020128899 0.2169128573 0.21296953814 0.20845468437 0.20348868561 0.19822731986 0.19285655777 
0.18758322478 0.18262178254 0.17817854907 0.1744356037 0.17153698887 0.1695792349 0.16860669284 0.16861040578 0.16952854345 
0.17124751118 0.17360496711 0.17639729684 0.17939336093 0.18235410328 0.18505546714 0.18731102311 0.18899076494 0.1900332702 
0.19044952937 0.19031801459 0.18977182738 0.18897987498 0.18812479278 0.18738057786 0.18689257527 0.18676173739 0.18703426886 
0.18769709906 0.18867912578 0.1898577779 0.19107008511 0.1921270835 0.19283002961 0.19298661747 0.19242532679 0.19100628101 
0.18862755698 0.18522664658 0.18077754941 0.17528460983 0.16877458539 0.16128850473 0.15287466317 0.14358368584 0.13346605786 
0.12257198026 0.11095295779 0.098664246271 0.085767241384 0.072331082183 0.058433101188 0.044158150992 0.029597138045 0.014845212966 
9.9569901501e-16 
_area 1 100 double
0 0.00057674130009 0.0022832005629 0.0050517749945 0.0087810961719 0.013349930649 0.018631622112 0.024505420184 0.030860604088 
0.037589616056 0.044570182509 0.051645419656 0.058618244859 0.065269863748 0.071396068129 0.076846573016 0.081554802223 0.085550630236 
0.088952664739 0.091940614504 0.094713823694 0.097448096336 0.1002645373 0.10321824767 0.10630582183 0.10948493558 0.11269784004 
0.11589165904 0.11903060612 0.12209635858 0.12507197032 0.12790750331 0.13048584577 0.13262733253 0.13413328147 0.13482734127 
0.13457714664 0.13330350976 0.13098501078 0.12766212812 0.12344404835 0.11853526563 0.11325710742 0.10771903855 0.10211976016 
0.096689125589 0.091644615871 0.087151656383 0.083302872056 0.080124463696 0.07759666431 0.075713448249 0.074378699749 0.073519808716 
0.073201562621 0.073375073723 0.074037565944 0.07523916773 0.076873780874 0.078689836219 0.080382413816 0.081726526355 0.082583263925 
0.082905744388 0.082734995474 0.082187502629 0.081432763657 0.08066146751 0.080053447849 0.079757959133 0.079892447354 0.080578030843 
0.081904045326 0.083773878183 0.085887675618 0.088005362683 0.08992576496 0.091463208347 0.092449317854 0.092742171242 0.09223202678 
0.090839009128 0.088507028811 0.085202167843 0.080919626056 0.075696178402 0.069620859281 0.062837420475 0.05553672426 0.047941994123 
0.040291681913 0.032823453441 0.025760548287 0.019300651572 0.013607888226 0.0088093486619 0.0049970100574 0.0022337734726 0.00056035427964 
3.6856301433e-17 
