# vtk DataFile Version 5.1
vtk output
ASCII
DATASET POLYDATA
POINTS 100 float
0.0905511 -0.0333876 0.667838 0.0905488 -0.0334758 0.667787 0.090559 -0.0336153 0.66746 
0.0905548 -0.0337786 0.666837 0.0904967 -0.0339243 0.665886 0.0903396 -0.0340035 0.664563 
0.0900401 -0.0339683 0.662811 0.0895644 -0.0337793 0.66056 0.0888942 -0.0334134 0.657729 
0.08803 -0.0328676 0.65423 0.0869913 -0.0321609 0.64997 0.0858127 -0.0313326 0.644862 
0.0845381 -0.0304375 0.638828 0.083211 -0.0295378 0.63181 0.0818658 -0.0286946 0.623775 
0.080518 -0.0279582 0.61472 0.079158 -0.0273602 0.604678 0.0777469 -0.0269072 0.593715 
0.0762172 -0.0265784 0.581931 0.0744782 -0.0263266 0.569448 0.0724241 -0.0260827 0.556409 
0.0699465 -0.025764 0.542961 0.0669474 -0.0252845 0.529247 0.063352 -0.0245655 0.515391 
0.05912 -0.0235473 0.501495 0.0542524 -0.0221973 0.487627 0.0487934 -0.0205164 0.473818 
0.0428281 -0.018541 0.460063 0.0364733 -0.0163412 0.446324 0.0298652 -0.0140152 0.432534 
0.023144 -0.01168 0.41861 0.0164379 -0.00946098 0.404456 0.00984829 -0.00748026 0.389979 
0.00343831 -0.00584556 0.37509 -0.00277322 -0.00464142 0.359714 -0.00881214 -0.00392311 0.343792 
-0.0147428 -0.00371398 0.327282 -0.0206564 -0.00400653 0.310159 -0.0266549 -0.00476653 0.292409 
-0.0328324 -0.00593967 0.274025 -0.0392572 -0.00745966 0.255008 -0.0459549 -0.00925652 0.235359 
-0.0528978 -0.0112641 0.215079 -0.059999 -0.0134257 0.194171 -0.067114 -0.015698 0.172645 
-0.0740499 -0.0180511 0.150515 -0.0805801 -0.0204678 0.127812 -0.0864636 -0.0229398 0.104584 
-0.0914674 -0.0254635 0.0809015 -0.0953877 -0.0280351 0.0568587 -0.098069 -0.0306468 0.0325714 
-0.0994183 -0.0332836 0.00817381 -0.0994126 -0.0359227 -0.0161894 -0.098099 -0.0385338 -0.040372 
-0.0955876 -0.0410815 -0.0642372 -0.0920389 -0.0435285 -0.0876684 -0.0876448 -0.0458392 -0.110578 
-0.0826091 -0.0479828 -0.132915 -0.0771264 -0.0499352 -0.154667 -0.0713646 -0.0516797 -0.175859 
-0.0654506 -0.0532058 -0.196551 -0.0594627 -0.0545055 -0.216823 -0.0534295 -0.05557 -0.236769 
-0.0473339 -0.0563849 -0.256481 -0.0411246 -0.0569258 -0.276035 -0.0347297 -0.0571557 -0.295482 
-0.0280734 -0.0570242 -0.314839 -0.0210924 -0.0564692 -0.334084 -0.0137495 -0.055421 -0.353159 
-0.00604484 -0.053809 -0.371974 0.00197922 -0.0515701 -0.390417 0.0102377 -0.048657 -0.408367 
0.018608 -0.0450467 -0.425705 0.0269395 -0.0407468 -0.442328 0.0350658 -0.035799 -0.458161 
0.042819 -0.0302792 -0.473162 0.0500435 -0.0242936 -0.487325 0.0566082 -0.017971 -0.500678 
0.0624156 -0.011453 -0.513279 0.0674075 -0.00488161 -0.525203 0.0715666 0.00161296 -0.536533 
0.0749143 0.00792345 -0.547345 0.0775049 0.0139739 -0.557702 0.0794181 0.0197241 -0.567641 
0.0807502 0.0251702 -0.577171 0.0816047 0.0303395 -0.586269 0.0820842 0.0352827 -0.59489 
0.0822842 0.0400618 -0.60297 0.0822881 0.0447372 -0.610435 0.0821646 0.0493546 -0.617216 
0.0819677 0.0539341 -0.623254 0.0817371 0.0584621 -0.628513 0.0815007 0.062888 -0.632984 
0.0812768 0.0671264 -0.636683 0.081077 0.0710627 -0.639651 0.0809085 0.0745646 -0.641949 
0.0807754 0.077495 -0.643646 0.0806803 0.0797269 -0.644809 0.0806251 0.0811572 -0.645496 
0.0806107 0.0817183 -0.645744 
LINES 2 100
OFFSETS vtktypeint64
0 100 
CONNECTIVITY vtktypeint64
0 1 2 3 4 5 6 7 8 
9 10 11 12 13 14 15 16 17 
18 19 20 21 22 23 24 25 26 
27 28 29 30 31 32 33 34 35 
36 37 38 39 40 41 42 43 44 
45 46 47 48 49 50 51 52 53 
54 55 56 57 58 59 60 61 62 
63 64 65 66 67 68 69 70 71 
72 73 74 75 76 77 78 79 80 
81 82 83 84 85 86 87 88 89 
90 91 92 93 94 95 96 97 98 
99 
POINT_DATA 100
FIELD FieldData 3
_theta 1 100 double
0 0.031733259127 0.063466518254 0.095199777382 0.12693303651 0.15866629564 0.19039955476 0.22213281389 0.25386607302 
0.28559933214 0.31733259127 0.3490658504 0.38079910953 0.41253236865 0.44426562778 0.47599888691 0.50773214603 0.53946540516 
0.57119866429 0.60293192342 0.63466518254 0.66639844167 0.6981317008 0.72986495992 0.76159821905 0.79333147818 0.82506473731 
0.85679799643 0.88853125556 0.92026451469 0.95199777382 0.98373103294 1.0154642921 1.0471975512 1.0789308103 1.1106640695 
1.1423973286 1.1741305877 1.2058638468 1.237597106 1.2693303651 1.3010636242 1.3327968833 1.3645301425 1.3962634016 
1.4279966607 1.4597299198 1.491463179 1.5231964381 1.5549296972 1.5866629564 1.6183962155 1.6501294746 1.6818627337 
1.7135959929 1.745329252 1.7770625111 1.8087957702 1.8405290294 1.8722622885 1.9039955476 1.9357288068 1.9674620659 
1.999195325 2.0309285841 2.0626618433 2.0943951024 2.1261283615 2.1578616206 2.1895948798 2.2213281389 2.253061398 
2.2847946572 2.3165279163 2.3482611754 2.3799944345 2.4117276937 2.4434609528 2.4751942119 2.506927471 2.5386607302 
2.5703939893 2.6021272484 2.6338605076 2.6655937667 2.6973270258 2.7290602849 2.7607935441 2.7925268032 2.8242600623 
2.8559933214 2.8877265806 2.9194598397 2.9511930988 2.982926358 3.0146596171 3.0463928762 3.0781261353 3.1098593945 
3.1415926536 
_radius 1 100 double
4.0910061375e-16 0.014439940295 0.028854539221 0.043212349786 0.057474490883 0.071591153275 0.085498644519 0.099117608604 0.11235325567 
0.12509841985 0.13723990851 0.14866791544 0.15928741818 0.16902975363 0.17786222807 0.18579378407 0.19287537248 0.19919461559 
0.20486541708 0.21001418024 0.21476502502 0.2192266157 0.22348276082 0.22758786558 0.23156694376 0.23541877652 0.23912041047 
0.24263161479 0.2458988215 0.2488588731 0.25144315931 0.25358239536 0.25521170312 0.25627522481 0.25672947652 0.25654502543 
0.25570666018 0.25421277156 0.25207497175 0.24931894621 0.24598714525 0.24214325848 0.2378776085 0.23331183345 0.22860072188 
0.22392906067 0.21950205524 0.2155293114 0.21220425595 0.20968260519 0.20806429176 0.20738258657 0.20760207901 0.20862454763 
0.21029986166 0.21243889006 0.21482686557 0.2172375279 0.21944916532 0.22126280408 0.2225209927 0.22312420561 0.2230416403 
0.22231403766 0.22104762906 0.21939993513 0.21755953658 0.21572277226 0.21407039196 0.21274662936 0.21184238313 0.21138359203 
0.21132558438 0.2115540454 0.21189301694 0.21211977426 0.2119854692 0.21123934272 0.20965349158 0.20704491791 0.20329196481 
0.19834312174 0.19221735193 0.18499630946 0.176809862 0.16781706815 0.15818511423 0.14806874095 0.13759250684 0.12683797309 
0.11583758539 0.10457654919 0.093003111613 0.081046232492 0.068637855271 0.055735496875 0.042340392428 0.028507286048 0.014343854186 
1.5445886454e-15 
_area 1 100 double
0 0.00057824841222 0.002304959285 0.0051560081694 0.009090906895 0.014051782524 0.019961173914 0.02671870181 0.034197529103 
0.042242493427 0.050672323465 0.059287817037 0.067886149592 0.076279420445 0.084314245049 0.091888812465 0.098963696052 0.10556295275 
0.11176363523 0.11767496402 0.12341197498 0.12907089952 0.13471341709 0.14036349405 0.14601476819 0.15164146513 0.15720504553 
0.162652877 0.16791139325 0.17288038313 0.17743473866 0.18143549972 0.18474611966 0.18724648703 0.18883900411 0.1894469783 
0.18901072865 0.1874869944 0.18485454467 0.1811265342 0.17636732639 0.17070803684 0.16435348132 0.15757509724 0.15068868 
0.14402029789 0.13786716012 0.13246213248 0.12795028897 0.12438236413 0.12172493656 0.11988532668 0.11874892255 0.11821751343 
0.11822775774 0.11872707871 0.11971605751 0.12086865521 0.12180717416 0.12225902537 0.12199019896 0.12081979782 0.11867606516 
0.11563457586 0.1119031581 0.10781160039 0.103715906 0.099946069621 0.096831785787 0.094609443383 0.093504534235 0.093532014214 
0.094500979727 0.0961925167 0.098330182964 0.10059443329 0.10264107126 0.10412581873 0.10473435181 0.10421457487 0.10240508989 
0.099252982589 0.094816020015 0.089248333283 0.082773015099 0.075648185418 0.068133945294 0.060466171974 0.052840232237 0.045404859045 
0.038264823839 0.031490856599 0.025135559293 0.019253285984 0.013919554021 0.0092432292144 0.0053653276136 0.0024426014338 0.00061993392267 
3.8598015187e-17 
