# vtk DataFile Version 5.1
vtk output
ASCII
DATASET POLYDATA
POINTS 100 float
0.0796058 0.0326363 -0.658616 0.0797584 0.032548 -0.658655 0.0802019 0.0320395 -0.658696 
0.0809105 0.0311209 -0.658656 0.081843 0.0298099 -0.658402 0.0829464 0.028131 -0.657771 
0.0841587 0.0261136 -0.656586 0.085413 0.0237909 -0.65467 0.0866401 0.021198 -0.65187 
0.0877702 0.0183696 -0.648063 0.0887339 0.0153391 -0.643173 0.0894619 0.012136 -0.637173 
0.0898838 0.00878589 -0.630082 0.0899272 0.00530916 -0.621961 0.0895166 0.00172151 -0.612901 
0.0885739 -0.00196539 -0.603009 0.0870202 -0.00574242 -0.592397 0.0847795 -0.00960105 -0.58116 
0.0817839 -0.013531 -0.569374 0.0779802 -0.0175179 -0.557082 0.0733373 -0.0215408 -0.544296 
0.067852 -0.0255706 -0.530995 0.0615548 -0.0295689 -0.517134 0.0545117 -0.0334878 -0.502649 
0.0468235 -0.0372707 -0.487477 0.0386212 -0.0408544 -0.471558 0.0300574 -0.044172 -0.454851 
0.021295 -0.0471563 -0.437339 0.0124943 -0.0497443 -0.419036 0.00379893 -0.051881 -0.399983 
-0.00467634 -0.0535234 -0.380245 -0.012855 -0.0546437 -0.359907 -0.0207039 -0.0552313 -0.33906 
-0.0282331 -0.0552938 -0.317792 -0.0354902 -0.0548565 -0.296182 -0.0425492 -0.0539606 -0.274285 
-0.0494955 -0.0526602 -0.252136 -0.0564083 -0.0510191 -0.22974 -0.0633429 -0.0491058 -0.207082 
-0.0703147 -0.0469899 -0.184128 -0.0772875 -0.0447378 -0.160838 -0.0841673 -0.0424095 -0.137171 
-0.0908033 -0.0400565 -0.1131 -0.0969959 -0.03772 -0.0886178 -0.102511 -0.0354312 -0.0637455 
-0.107101 -0.0332117 -0.0385354 -0.110524 -0.0310753 -0.0130708 -0.112571 -0.0290294 0.0125365 
-0.113086 -0.0270776 0.0381541 -0.111979 -0.0252215 0.0636364 -0.10924 -0.0234618 0.0888359 
-0.104939 -0.0218002 0.113612 -0.09922 -0.0202389 0.137842 -0.0922882 -0.0187809 0.161425 
-0.0843918 -0.0174297 0.18429 -0.0757986 -0.0161881 0.206395 -0.0667731 -0.0150579 0.227724 
-0.057555 -0.0140391 0.248291 -0.0483415 -0.01313 0.268123 -0.0392761 -0.0123274 0.287267 
-0.030444 -0.0116274 0.30577 -0.0218748 -0.0110269 0.323687 -0.013551 -0.010524 0.341066 
-0.00542237 -0.0101203 0.35795 0.00257797 -0.00982081 0.374376 0.0105167 -0.00963484 0.390375 
0.0184456 -0.00957542 0.405972 0.0263902 -0.00965818 0.42119 0.0343443 -0.00989958 0.436051 
0.0422697 -0.0103145 0.450576 0.0501016 -0.0109139 0.464788 0.0577582 -0.011702 0.47871 
0.0651528 -0.0126743 0.492364 0.0722073 -0.0138168 0.505767 0.0788636 -0.015105 0.518931 
0.0850922 -0.0165052 0.531857 0.0908969 -0.0179767 0.544535 0.096313 -0.0194744 0.556943 
0.101402 -0.0209526 0.569043 0.106244 -0.0223688 0.580789 0.110919 -0.0236879 0.592121 
0.115502 -0.0248849 0.602978 0.120045 -0.0259468 0.613295 0.124571 -0.0268739 0.62301 
0.129068 -0.0276788 0.632069 0.133493 -0.0283841 0.640432 0.13777 -0.0290195 0.648069 
0.141808 -0.0296176 0.654967 0.145509 -0.0302093 0.66113 0.148783 -0.0308201 0.666574 
0.15156 -0.0314662 0.671326 0.153802 -0.0321524 0.675425 0.155505 -0.032871 0.678913 
0.156705 -0.0336031 0.681836 0.157469 -0.03432 0.684236 0.15789 -0.0349868 0.686154 
0.158068 -0.035567 0.687626 0.158104 -0.0360263 0.688678 0.158082 -0.036337 0.68933 
0.158055 -0.0364813 0.689593 
LINES 2 100
OFFSETS vtktypeint64
0 100 
CONNECTIVITY vtktypeint64
0 1 2 3 4 5 6 7 8 
9 10 11 12 13 14 15 16 17 
18 19 20 21 22 23 24 25 26 
27 28 29 30 31 32 33 34 35 
36 37 38 39 40 41 42 43 44 
45 46 47 48 49 50 51 52 53 
54 55 56 57 58 59 60 61 62 
63 64 65 66 67 68 69 70 71 
72 73 74 75 76 77 78 79 80 
81 82 83 84 85 86 87 88 89 
90 91 92 93 94 95 96 97 98 
99 
POINT_DATA 100
FIELD FieldData 3
_theta 1 100 double
0 0.031733259127 0.063466518254 0.095199777382 0.12693303651 0.15866629564 0.19039955476 0.22213281389 0.25386607302 
0.28559933214 0.31733259127 0.3490658504 0.38079910953 0.41253236865 0.44426562778 0.47599888691 0.50773214603 0.53946540516 
0.57119866429 0.60293192342 0.63466518254 0.66639844167 0.6981317008 0.72986495992 0.76159821905 0.79333147818 0.82506473731 
0.85679799643 0.88853125556 0.92026451469 0.95199777382 0.98373103294 1.0154642921 1.0471975512 1.0789308103 1.1106640695 
1.1423973286 1.1741305877 1.2058638468 1.237597106 1.2693303651 1.3010636242 1.3327968833 1.3645301425 1.3962634016 
1.4279966607 1.4597299198 1.491463179 1.5231964381 1.5549296972 1.5866629564 1.6183962155 1.6501294746 1.6818627337 
1.7135959929 1.745329252 1.7770625111 1.8087957702 1.8405290294 1.8722622885 1.9039955476 1.9357288068 1.9674620659 
1.999195325 2.0309285841 2.0626618433 2.0943951024 2.1261283615 2.1578616206 2.1895948798 2.2213281389 2.253061398 
2.2847946572 2.3165279163 2.3482611754 2.3799944345 2.4117276937 2.4434609528 2.4751942119 2.506927471 2.5386607302 
2.5703939893 2.6021272484 2.6338605076 2.6655937667 2.6973270258 2.7290602849 2.7607935441 2.7925268032 2.8242600623 
2.8559933214 2.8877265806 2.9194598397 2.9511930988 2.982926358 3.0146596171 3.0463928762 3.0781261353 3.1098593945 
3.1415926536 
_radius 1 100 double
8.0482196078e-16 0.015104428676 0.030050938118 0.044694056354 0.058923518836 0.072672737251 0.085918387774 0.09867168621 0.11096379356 
0.12282886054 0.13428818838 0.14533808147 0.15594277458 0.16603285454 0.17550903645 0.18425085042 0.19212950384 0.19902375411 
0.20483707439 0.20951388213 0.21305234776 0.21551148713 0.2170109129 0.21772267979 0.21785589366 0.21763593669 0.21728112317 
0.21698020737 0.21687416411 0.21704472641 0.21751040346 0.21822906256 0.21910566298 0.22000432498 0.22076460233 0.22122174186 
0.22122972135 0.22068443958 0.21954332579 0.21783743264 0.21567298237 0.21322127111 0.21069855788 0.20834038645 0.20637631831 
0.20500998835 0.20440609954 0.20468266628 0.20590566776 0.20808467755 0.21117056294 0.21505789448 0.21959401716 0.22459433628 
0.22986100983 0.23520130791 0.24044251181 0.24544162863 0.25008962398 0.2543109279 0.25805954019 0.26131319202 0.26406683626 
0.266326406 0.26810343772 0.26941087074 0.27026011696 0.27065933983 0.27061278289 0.27012093284 0.26918126048 0.26778923077 
0.26593922518 0.26362502585 0.26083962196 0.257574308 0.25381727928 0.24955210209 0.24475649935 0.23940186531 0.23345383751 
0.2268741076 0.21962343017 0.21166551246 0.20297121877 0.19352239558 0.18331466285 0.17235871784 0.16068001754 0.14831707306 
0.13531888525 0.12174214111 0.10764863481 0.093103109801 0.078171542346 0.06291987268 0.047413232485 0.031715686205 0.015890392859 
7.2346111865e-16 
_area 1 100 double
0 0.00067942463607 0.0026730110685 0.0058590890161 0.010072003994 0.01514405048 0.02093972851 0.027366698024 0.034359624446 
0.041850284057 0.049741799818 0.057895212927 0.066128095132 0.0742221947 0.081936787027 0.089024758491 0.095249057304 0.1003982422 
0.10430171392 0.10684656921 0.1079965067 0.10780868632 0.10644080038 0.10414215757 0.10122918596 0.09805346581 0.094978511407 
0.092420928882 0.090763853897 0.090010169846 0.090152561562 0.091158212415 0.092921215221 0.095245526821 0.097853445148 0.10041714292 
0.10261195064 0.10418156591 0.10499627649 0.10508172942 0.10460296627 0.10381343563 0.10299869483 0.10243268494 0.10235272376 
0.10295261321 0.10439458966 0.10680464015 0.1101095527 0.11420781966 0.11903751963 0.12452781071 0.13056188743 0.13696855274 
0.14353881662 0.15005549294 0.15632207695 0.16218091089 0.16751567508 0.17223891469 0.17627235184 0.17953401021 0.18194453666 
0.18345288802 0.18406874419 0.18387729118 0.18299442967 0.18148084722 0.17934280034 0.17659527522 0.17327912186 0.16945534075 
0.16519645071 0.16057244304 0.15563876245 0.15042911873 0.14495677737 0.13922412575 0.13323060201 0.12697205774 0.12043569253 
0.11359895995 0.1064363386 0.098931767768 0.091091862749 0.082955447649 0.074596587475 0.066120196957 0.057651374543 0.049322114692 
0.041261067364 0.033590612921 0.026429940403 0.019898484781 0.014115611676 0.0091965865702 0.0052468255105 0.0023559959676 0.00059267976752 
7.1150741151e-17 
