# vtk DataFile Version 5.1
vtk output
ASCII
DATASET POLYDATA
POINTS 100 float
0.180569 0.0436641 -0.729971 0.180489 0.0435389 -0.730031 0.18019 0.0433239 -0.730104 
0.179666 0.0430242 -0.730086 0.178904 0.0426447 -0.729818 0.177885 0.0421849 -0.729104 
0.176579 0.0416336 -0.727726 0.174945 0.0409633 -0.725475 0.172928 0.0401269 -0.722165 
0.170465 0.0390564 -0.717655 0.167483 0.0376647 -0.711857 0.163904 0.035851 -0.704747 
0.159655 0.0335092 -0.696358 0.154673 0.0305388 -0.686776 0.148912 0.0268565 -0.676122 
0.142352 0.0224086 -0.664544 0.135003 0.0171811 -0.652188 0.126907 0.0112072 -0.639193 
0.118143 0.00457053 -0.625669 0.108815 -0.00259584 -0.611691 0.0990533 -0.0101159 -0.597295 
0.0890017 -0.0177811 -0.582479 0.078806 -0.0253646 -0.567209 0.0686034 -0.0326376 -0.551429 
0.0585103 -0.0393857 -0.535071 0.0486137 -0.0454251 -0.518068 0.0389641 -0.0506148 -0.500361 
0.0295736 -0.0548655 -0.48191 0.020417 -0.0581431 -0.462693 0.0114383 -0.0604673 -0.44271 
0.00256008 -0.0619052 -0.421975 -0.0063033 -0.0625603 -0.400513 -0.0152319 -0.0625596 -0.378352 
-0.0242859 -0.0620385 -0.355518 -0.0334923 -0.0611266 -0.332026 -0.0428358 -0.0599355 -0.30788 
-0.052252 -0.0585496 -0.283077 -0.061627 -0.0570207 -0.257606 -0.0708012 -0.055368 -0.231456 
-0.0795778 -0.053581 -0.204628 -0.087736 -0.0516272 -0.177142 -0.0950464 -0.0494615 -0.149044 
-0.101288 -0.0470371 -0.120414 -0.106266 -0.0443167 -0.0913674 -0.109826 -0.041281 -0.0620522 
-0.111865 -0.0379357 -0.0326444 -0.112342 -0.0343149 -0.00333719 -0.111278 -0.0304808 0.0256704 
-0.108756 -0.0265199 0.0541878 -0.104911 -0.0225363 0.0820457 -0.0999245 -0.0186437 0.109108 
-0.0940044 -0.0149553 0.135279 -0.0873743 -0.0115747 0.160508 -0.0802568 -0.00858788 0.18479 
-0.0728591 -0.0060573 0.208159 -0.0653617 -0.00401828 0.230683 -0.0579098 -0.00247868 0.252448 
-0.0506086 -0.00142107 0.273554 -0.0435227 -0.000807213 0.294096 -0.0366784 -0.000584206 0.314162 
-0.0300699 -0.000691359 0.333822 -0.0236671 -0.00106708 0.353125 -0.0174249 -0.00165493 0.372101 
-0.0112926 -0.00240832 0.390764 -0.00522271 -0.00329336 0.409116 0.000821691 -0.00428976 0.427153 
0.00686192 -0.00538999 0.44487 0.0129007 -0.00659676 0.462267 0.0189216 -0.00791956 0.479353 
0.0248911 -0.00937058 0.496141 0.030762 -0.0109607 0.512646 0.0364786 -0.0126958 0.528887 
0.041982 -0.0145742 0.544871 0.0472163 -0.0165851 0.560597 0.0521335 -0.0187078 0.576042 
0.0566983 -0.0209129 0.591168 0.0608906 -0.0231631 0.605911 0.0647072 -0.0254161 0.620195 
0.0681621 -0.0276265 0.63393 0.0712846 -0.029749 0.647024 0.0741169 -0.0317405 0.659389 
0.0767103 -0.0335622 0.670955 0.0791208 -0.0351815 0.681673 0.0814053 -0.0365731 0.691522 
0.0836162 -0.0377198 0.700513 0.0857987 -0.0386126 0.708685 0.0879864 -0.0392515 0.7161 
0.0902001 -0.0396443 0.722836 0.0924457 -0.0398072 0.728977 0.0947143 -0.0397634 0.734601 
0.096983 -0.0395424 0.739772 0.0992166 -0.0391793 0.74453 0.10137 -0.0387129 0.748887 
0.103391 -0.0381847 0.752831 0.105225 -0.0376362 0.75632 0.106818 -0.0371078 0.759298 
0.108119 -0.0366363 0.761698 0.109084 -0.0362527 0.763454 0.109682 -0.0359809 0.76451 
0.10989 -0.035836 0.764831 
LINES 2 100
OFFSETS vtktypeint64
0 100 
CONNECTIVITY vtktypeint64
0 1 2 3 4 5 6 7 8 
9 10 11 12 13 14 15 16 17 
18 19 20 21 22 23 24 25 26 
27 28 29 30 31 32 33 34 35 
36 37 38 39 40 41 42 43 44 
45 46 47 48 49 50 51 52 53 
54 55 56 57 58 59 60 61 62 
63 64 65 66 67 68 69 70 71 
72 73 74 75 76 77 78 79 80 
81 82 83 84 85 86 87 88 89 
90 91 92 93 94 95 96 97 98 
99 
POINT_DATA 100
FIELD FieldData 3
_theta 1 100 double
0 0.031733259127 0.063466518254 0.095199777382 0.12693303651 0.15866629564 0.19039955476 0.22213281389 0.25386607302 
0.28559933214 0.31733259127 0.3490658504 0.38079910953 0.41253236865 0.44426562778 0.47599888691 0.50773214603 0.53946540516 
0.57119866429 0.60293192342 0.63466518254 0.66639844167 0.6981317008 0.72986495992 0.76159821905 0.79333147818 0.82506473731 
0.85679799643 0.88853125556 0.92026451469 0.95199777382 0.98373103294 1.0154642921 1.0471975512 1.0789308103 1.1106640695 
1.1423973286 1.1741305877 1.2058638468 1.237597106 1.2693303651 1.3010636242 1.3327968833 1.3645301425 1.3962634016 
1.4279966607 1.4597299198 1.491463179 1.5231964381 1.5549296972 1.5866629564 1.6183962155 1.6501294746 1.6818627337 
1.7135959929 1.745329252 1.7770625111 1.8087957702 1.8405290294 1.8722622885 1.9039955476 1.9357288068 1.9674620659 
1.999195325 2.0309285841 2.0626618433 2.0943951024 2.1261283615 2.1578616206 2.1895948798 2.2213281389 2.253061398 
2.2847946572 2.3165279163 2.3482611754 2.3799944345 2.4117276937 2.4434609528 2.4751942119 2.506927471 2.5386607302 
2.5703939893 2.6021272484 2.6338605076 2.6655937667 2.6973270258 2.7290602849 2.7607935441 2.7925268032 2.8242600623 
2.8559933214 2.8877265806 2.9194598397 2.9511930988 2.982926358 3.0146596171 3.0463928762 3.0781261353 3.1098593945 
3.1415926536 
_radius 1 100 double
1.2344992365e-15 0.017012710393 0.033928872047 0.05065015558 0.067063074221 0.083035335115 0.098416737453 0.11304497051 0.12675561892 
0.13939477855 0.15083220088 0.16097289024 0.16976548886 0.17720645121 0.183339771 0.18825271913 0.19206853612 0.19493721524 
0.19702542277 0.19850632159 0.1995497346 0.20031285499 0.20093168808 0.20151359979 0.20213162677 0.20282137973 0.20358128421 
0.20437650931 0.20514633166 0.20581407424 0.20629837131 0.20652445748 0.20643439927 0.20599549086 0.20520627119 0.20409976882 
0.20274370271 0.20123748912 0.19970602109 0.19829036663 0.19713594215 0.19637947315 0.19613696669 0.19649537297 0.19750986942 
0.19920666886 0.20158896551 0.20464257699 0.20833866248 0.21263292349 0.21746265339 0.22274396409 0.22837129241 0.23422027611 
0.24015388136 0.24603070736 0.25171390049 0.2570791196 0.26202042145 0.26645357994 0.27031697704 0.27357065144 0.27619432068 
0.27818520202 0.27955621443 0.28033465205 0.28056083745 0.28028590397 0.27956797626 0.2784665988 0.27703601 0.27531839474 
0.27333831959 0.27109916284 0.26858172724 0.26574469944 0.26252644036 0.25884778514 0.25461590918 0.24972958977 0.24408614652 
0.23758994764 0.23016177876 0.22174782778 0.21232676377 0.20191349911 0.19055872022 0.17834405241 0.16537360702 0.15176341607 
0.13763066102 0.1230845084 0.10821981777 0.093114206293 0.077828211418 0.062407772092 0.046887993632 0.031297141041 0.015659986826 
1.0254114892e-15 
_area 1 100 double
0 0.00061473972297 0.0024758114536 0.0056225939246 0.010086481587 0.015850110216 0.02280953365 0.030752297971 0.039359803101 
0.048235661621 0.056954897689 0.065122994461 0.0724301827 0.078686425386 0.083827466798 0.087891749433 0.090978962245 0.093208123485 
0.094691724333 0.095532993673 0.095842978809 0.09577291256 0.095562435036 0.09546045706 0.095511470627 0.095711534558 0.096045150365 
0.096462555161 0.096868939655 0.09714386635 0.097168856525 0.096856393689 0.096176785301 0.095195955762 0.094062040305 0.092915207391 
0.091925768918 0.091337716445 0.091388062226 0.092260909266 0.093802812605 0.095773908252 0.097967609395 0.10021254452 0.10238524022 
0.10443366992 0.10641368326 0.10853312559 0.11123928792 0.11508524303 0.12000354328 0.12597647071 0.13294769139 0.14075415048 
0.14913180437 0.15774835518 0.16625167214 0.17431914612 0.18169899498 0.18824903334 0.19397656184 0.19899324695 0.20327577698 
0.20660095823 0.20873107142 0.20951876014 0.20892908612 0.20703528376 0.20400253254 0.20006329199 0.19548614881 0.19054062239 
0.18546099703 0.18041308754 0.17547163836 0.17061778325 0.16575565765 0.16073607233 0.1553790826 0.14949614597 0.14291414225 
0.13550073736 0.12718846262 0.11799363659 0.10802517275 0.097478514168 0.086612701054 0.075713612139 0.065052133811 0.054850252101 
0.045267411078 0.036410210339 0.02835489813 0.02116765977 0.014915411214 0.0096680259326 0.0054953162533 0.0024614103852 0.00061830953078 
4.7366950401e-17 
