# vtk DataFile Version 5.1
vtk output
ASCII
DATASET POLYDATA
POINTS 100 float
0.172057 0.0781149 -0.706163 0.17203 0.0783036 -0.706068 0.171964 0.078647 -0.705798 
0.171803 0.0790896 -0.705286 0.17146 0.0795449 -0.704431 0.170826 0.0799012 -0.703104 
0.169781 0.0800309 -0.701169 0.168202 0.0798006 -0.69849 0.165978 0.0790806 -0.694952 
0.163015 0.0777557 -0.69047 0.159248 0.0757336 -0.684994 0.154643 0.0729518 -0.678516 
0.149198 0.0693821 -0.671063 0.142944 0.0650329 -0.662698 0.135936 0.0599477 -0.653502 
0.128253 0.0542029 -0.643566 0.119986 0.0479014 -0.63298 0.111233 0.0411663 -0.621818 
0.102092 0.0341328 -0.610132 0.092655 0.02694 -0.597946 0.0830036 0.0197229 -0.58525 
0.0732078 0.0126059 -0.572012 0.0633239 0.00569731 -0.558175 0.0533961 -0.000914501 -0.543669 
0.0434569 -0.00716255 -0.528421 0.0335293 -0.0130014 -0.512365 0.0236283 -0.0184053 -0.495448 
0.0137628 -0.0233654 -0.477638 0.00393605 -0.0278859 -0.458925 -0.00585268 -0.0319794 -0.439322 
-0.0156077 -0.0356633 -0.418863 -0.0253354 -0.0389553 -0.397595 -0.0350428 -0.0418708 -0.375575 
-0.0447348 -0.0444204 -0.352859 -0.0544104 -0.0466087 -0.329502 -0.0640589 -0.0484342 -0.305552 
-0.0736547 -0.04989 -0.281045 -0.0831522 -0.0509649 -0.256014 -0.0924823 -0.0516457 -0.230484 
-0.101549 -0.0519188 -0.204485 -0.110229 -0.0517726 -0.178048 -0.118375 -0.0511993 -0.151222 
-0.125816 -0.0501968 -0.124066 -0.132372 -0.0487698 -0.0966626 -0.137858 -0.0469307 -0.0691086 
-0.142099 -0.0447003 -0.041518 -0.144942 -0.0421082 -0.0140148 -0.146268 -0.0391921 0.0132735 
-0.146 -0.0359981 0.040223 -0.144115 -0.03258 0.0667212 -0.140645 -0.0289985 0.092673 
-0.135674 -0.0253201 0.118005 -0.12934 -0.0216159 0.142669 -0.121817 -0.0179601 0.166639 
-0.113312 -0.014428 0.18991 -0.104046 -0.0110935 0.212496 -0.0942395 -0.00802712 0.23442 
-0.0841026 -0.00529256 0.25571 -0.0738197 -0.00294443 0.276395 -0.0635428 -0.00102544 0.2965 
-0.053387 0.000435869 0.316047 -0.0434297 0.00142674 0.335049 -0.033714 0.00195112 0.35352 
-0.0242545 0.00202956 0.371473 -0.0150464 0.00169816 0.388924 -0.0060739 0.00100641 0.405898 
0.00268057 1.41741e-05 0.422429 0.011229 -0.00121206 0.438562 0.0195727 -0.00260341 0.454351 
0.0276998 -0.00409288 0.469852 0.0355858 -0.00561947 0.485123 0.0431966 -0.00713157 0.500213 
0.0504929 -0.00858952 0.515155 0.0574364 -0.00996706 0.529959 0.0639953 -0.0112515 0.54461 
0.0701497 -0.0124425 0.559063 0.0758942 -0.0135503 0.573244 0.0812399 -0.0145924 0.587057 
0.0862125 -0.0155901 0.600388 0.0908497 -0.0165649 0.613112 0.0951961 -0.0175354 0.625111 
0.0992978 -0.0185139 0.636279 0.103196 -0.0195053 0.646532 0.106924 -0.0205058 0.655815 
0.110501 -0.0215037 0.66411 0.113932 -0.0224803 0.671431 0.117208 -0.0234129 0.677824 
0.120309 -0.0242771 0.683364 0.123208 -0.02505 0.688139 0.125872 -0.0257133 0.692247 
0.128274 -0.0262555 0.695784 0.13039 -0.0266734 0.698836 0.132209 -0.0269726 0.701475 
0.133726 -0.0271672 0.70375 0.134952 -0.0272779 0.705691 0.135904 -0.0273298 0.70731 
0.136602 -0.0273494 0.708606 0.137072 -0.0273618 0.709567 0.137334 -0.0273872 0.710181 
0.1374 -0.0274389 0.710436 
LINES 2 100
OFFSETS vtktypeint64
0 100 
CONNECTIVITY vtktypeint64
0 1 2 3 4 5 6 7 8 
9 10 11 12 13 14 15 16 17 
18 19 20 21 22 23 24 25 26 
27 28 29 30 31 32 33 34 35 
36 37 38 39 40 41 42 43 44 
45 46 47 48 49 50 51 52 53 
54 55 56 57 58 59 60 61 62 
63 64 65 66 67 68 69 70 71 
72 73 74 75 76 77 78 79 80 
81 82 83 84 85 86 87 88 89 
90 91 92 93 94 95 96 97 98 
99 
POINT_DATA 100
FIELD FieldData 3
_theta 1 100 double
0 0.031733259127 0.063466518254 0.095199777382 0.12693303651 0.15866629564 0.19039955476 0.22213281389 0.25386607302 
0.28559933214 0.31733259127 0.3490658504 0.38079910953 0.41253236865 0.44426562778 0.47599888691 0.50773214603 0.53946540516 
0.57119866429 0.60293192342 0.63466518254 0.66639844167 0.6981317008 0.72986495992 0.76159821905 0.79333147818 0.82506473731 
0.85679799643 0.88853125556 0.92026451469 0.95199777382 0.98373103294 1.0154642921 1.0471975512 1.0789308103 1.1106640695 
1.1423973286 1.1741305877 1.2058638468 1.237597106 1.2693303651 1.3010636242 1.3327968833 1.3645301425 1.3962634016 
1.4279966607 1.4597299198 1.491463179 1.5231964381 1.5549296972 1.5866629564 1.6183962155 1.6501294746 1.6818627337 
1.7135959929 1.745329252 1.7770625111 1.8087957702 1.8405290294 1.8722622885 1.9039955476 1.9357288068 1.9674620659 
1.999195325 2.0309285841 2.0626618433 2.0943951024 2.1261283615 2.1578616206 2.1895948798 2.2213281389 2.253061398 
2.2847946572 2.3165279163 2.3482611754 2.3799944345 2.4117276937 2.4434609528 2.4751942119 2.506927471 2.5386607302 
2.5703939893 2.6021272484 2.6338605076 2.6655937667 2.6973270258 2.7290602849 2.7607935441 2.7925268032 2.8242600623 
2.8559933214 2.8877265806 2.9194598397 2.9511930988 2.982926358 3.0146596171 3.0463928762 3.0781261353 3.1098593945 
3.1415926536 
_radius 1 100 double
2.806608892e-16 0.014829157347 0.029548174602 0.044045206167 0.058214128562 0.071956168071 0.085180678068 0.097805801645 0.10975986051 
0.12098382222 0.13143434492 0.14108619018 0.14993263871 0.15798301709 0.16525735319 0.17177921982 0.17756866141 0.182637391 
0.18698797297 0.19061753001 0.19352503524 0.19572005367 0.19723033972 0.19810610658 0.19841984434 0.19826185224 0.19773270922 
0.19693440637 0.19596173592 0.19489500378 0.19379462954 0.19269806368 0.19161968001 0.19055448238 0.18948607108 0.18839816436 
0.18728747174 0.18617461274 0.18510963019 0.18416961563 0.18344800683 0.1830380008 0.18301541203 0.18342767101 0.18429383334 
0.18561505847 0.1873889139 0.18961880298 0.19231329992 0.19547615721 0.19909231484 0.2031164301 0.20746850078 0.2120377331 
0.21669285774 0.22129572219 0.22571508482 0.22983837392 0.23358011867 0.23688652088 0.23973616024 0.24213715205 0.24412130116 
0.24573601856 0.24703502019 0.24806904737 0.24887791588 0.2494850211 0.24989498156 0.2500944638 0.25005554968 0.24974046964 
0.24910628811 0.24810826301 0.24670109548 0.24483804193 0.24246866606 0.23953656836 0.23597851679 0.23172598031 0.22670929556 
0.22086383427 0.21413687545 0.2064936577 0.19792138188 0.18843063298 0.17805451005 0.16684635582 0.15487709008 0.14223270203 
0.12901168726 0.11532162377 0.10127409837 0.086977849703 0.07253090762 0.058013195272 0.04348122587 0.028966156195 0.014475748241 
1.5294983274e-15 
_area 1 100 double
0 0.00059083666903 0.0023462381524 0.0052197395055 0.0091458966846 0.014046931482 0.019828779017 0.026367455537 0.033493499024 
0.040984160826 0.04857036566 0.055960027783 0.062873202547 0.069079871203 0.074429484751 0.078863479699 0.082407444148 0.085146580146 
0.087193603316 0.088659786425 0.089637091539 0.090193567873 0.09037760133 0.09022379673 0.089758075894 0.089004011372 0.087989113318 
0.086748809632 0.085330442054 0.083799248314 0.082242255521 0.080764112749 0.079470673047 0.078454162285 0.077773715221 0.077399391048 
0.077292444719 0.077446049212 0.077876233983 0.078614869221 0.079689127515 0.081097932824 0.082821414109 0.084838583369 0.087129200617 
0.089674344587 0.092466967767 0.095527962213 0.098917377688 0.10272923103 0.10706092056 0.11196532478 0.11741514794 0.1232986958 
0.12943610682 0.13560027225 0.14153923597 0.14700225358 0.15176910738 0.15567862908 0.15865115533 0.16070075861 0.16193458742 
0.16253593657 0.16272487859 0.16269741383 0.16256915396 0.16235372368 0.16197481476 0.16129968756 0.16019103881 0.15856532538 
0.1564276497 0.15385636062 0.15094841793 0.14776215234 0.14428582883 0.1404403054 0.13610690375 0.13116360256 0.12551561983 
0.11911502274 0.11196968983 0.10414308865 0.095746113567 0.086922827928 0.077833470412 0.068639470511 0.059494986708 0.05054656338 
0.041937827436 0.033813167078 0.026315864835 0.0195807251 0.013724832082 0.0088406030735 0.0049935490559 0.002224824363 0.00055690641788 
1.1329702583e-17 
