# vtk DataFile Version 5.1
vtk output
ASCII
DATASET POLYDATA
POINTS 100 float
0.101987 0.0707643 -0.677854 0.101969 0.0706605 -0.677425 0.101901 0.070111 -0.676116 
0.10179 0.0691293 -0.673919 0.101652 0.0677364 -0.67083 0.101499 0.0659574 -0.666847 
0.101346 0.0638162 -0.661982 0.101198 0.0613323 -0.65626 0.101052 0.0585168 -0.649725 
0.100889 0.0553723 -0.642441 0.100672 0.0518931 -0.634489 0.100348 0.0480689 -0.625961 
0.09984 0.04389 -0.616954 0.0990582 0.0393535 -0.607558 0.0978972 0.0344696 -0.597848 
0.0962456 0.0292676 -0.587872 0.0939922 0.0237992 -0.57765 0.0910353 0.0181399 -0.56716 
0.087291 0.0123865 -0.556351 0.0827014 0.00665226 -0.545138 0.0772414 0.00105847 -0.533416 
0.0709221 -0.00427501 -0.521069 0.0637925 -0.00924031 -0.507984 0.0559371 -0.0137514 -0.494064 
0.0474699 -0.0177516 -0.47924 0.0385264 -0.0212188 -0.463477 0.0292527 -0.024166 -0.446779 
0.0197941 -0.0266382 -0.429187 0.0102834 -0.0287056 -0.410775 0.000831278 -0.0304542 -0.391641 
-0.00848044 -0.0319736 -0.371892 -0.0176024 -0.0333459 -0.351634 -0.0265164 -0.0346348 -0.330961 
-0.03523 -0.0358777 -0.309942 -0.0437677 -0.0370817 -0.288619 -0.0521582 -0.0382231 -0.267003 
-0.0604217 -0.0392517 -0.245079 -0.0685564 -0.0400986 -0.222812 -0.0765272 -0.0406861 -0.200159 
-0.0842589 -0.0409394 -0.177077 -0.0916326 -0.0407975 -0.15354 -0.0984892 -0.0402222 -0.129545 
-0.104638 -0.0392046 -0.105119 -0.109868 -0.0377668 -0.0803206 -0.113968 -0.0359606 -0.0552417 
-0.116743 -0.0338616 -0.029997 -0.118036 -0.0315608 -0.00471711 -0.117739 -0.0291543 0.0204633 
-0.115813 -0.0267331 0.0454168 -0.112287 -0.0243736 0.0700332 -0.107264 -0.0221311 0.0942272 
-0.100909 -0.0200367 0.117942 -0.0934404 -0.0180971 0.141149 -0.0851092 -0.0162995 0.163845 
-0.0761795 -0.0146177 0.186042 -0.0669062 -0.0130214 0.207761 -0.0575158 -0.0114849 0.229022 
-0.0481897 -0.00999539 0.249836 -0.0390538 -0.00855856 0.270198 -0.0301741 -0.00720115 0.290085 
-0.0215592 -0.00596976 0.309461 -0.0131693 -0.00492606 0.328277 -0.0049293 -0.00413914 0.346481 
0.00325429 -0.00367596 0.364028 0.0114757 -0.00359136 0.380889 0.0198134 -0.00391913 0.397056 
0.0283173 -0.0046654 0.412549 0.0369997 -0.00580548 0.427417 0.0458329 -0.00728461 0.44173 
0.0547515 -0.00902266 0.455577 0.063661 -0.0109222 0.469049 0.0724489 -0.0128786 0.48223 
0.080999 -0.0147917 0.495186 0.0892051 -0.0165756 0.507949 0.0969842 -0.0181675 0.520519 
0.104285 -0.0195324 0.532853 0.111092 -0.0206639 0.544877 0.117426 -0.0215814 0.55649 
0.12334 -0.0223225 0.567579 0.128909 -0.0229344 0.578035 0.134218 -0.0234622 0.587766 
0.139348 -0.0239393 0.596717 0.14437 -0.0243792 0.604875 0.149329 -0.0247701 0.612275 
0.154241 -0.0250748 0.619003 0.159092 -0.0252345 0.62518 0.163839 -0.025177 0.630955 
0.168417 -0.0248274 0.636482 0.172749 -0.0241214 0.641902 0.176756 -0.0230178 0.647324 
0.180368 -0.0215088 0.652806 0.183532 -0.0196276 0.658348 0.186217 -0.01745 0.663884 
0.18842 -0.0150914 0.669289 0.190162 -0.0126986 0.674389 0.19148 -0.0104366 0.678979 
0.192424 -0.00847318 0.682845 0.193048 -0.00696141 0.68579 0.193395 -0.00602415 0.68765 
0.193496 -0.00574078 0.68832 
LINES 2 100
OFFSETS vtktypeint64
0 100 
CONNECTIVITY vtktypeint64
0 1 2 3 4 5 6 7 8 
9 10 11 12 13 14 15 16 17 
18 19 20 21 22 23 24 25 26 
27 28 29 30 31 32 33 34 35 
36 37 38 39 40 41 42 43 44 
45 46 47 48 49 50 51 52 53 
54 55 56 57 58 59 60 61 62 
63 64 65 66 67 68 69 70 71 
72 73 74 75 76 77 78 79 80 
81 82 83 84 85 86 87 88 89 
90 91 92 93 94 95 96 97 98 
99 
POINT_DATA 100
FIELD FieldData 3
_theta 1 100 double
0 0.031733259127 0.063466518254 0.095199777382 0.12693303651 0.15866629564 0.19039955476 0.22213281389 0.25386607302 
0.28559933214 0.31733259127 0.3490658504 0.38079910953 0.41253236865 0.44426562778 0.47599888691 0.50773214603 0.53946540516 
0.57119866429 0.60293192342 0.63466518254 0.66639844167 0.6981317008 0.72986495992 0.76159821905 0.79333147818 0.82506473731 
0.85679799643 0.88853125556 0.92026451469 0.95199777382 0.98373103294 1.0154642921 1.0471975512 1.0789308103 1.1106640695 
1.1423973286 1.1741305877 1.2058638468 1.237597106 1.2693303651 1.3010636242 1.3327968833 1.3645301425 1.3962634016 
1.4279966607 1.4597299198 1.491463179 1.5231964381 1.5549296972 1.5866629564 1.6183962155 1.6501294746 1.6818627337 
1.7135959929 1.745329252 1.7770625111 1.8087957702 1.8405290294 1.8722622885 1.9039955476 1.9357288068 1.9674620659 
1.999195325 2.0309285841 2.0626618433 2.0943951024 2.1261283615 2.1578616206 2.1895948798 2.2213281389 2.253061398 
2.2847946572 2.3165279163 2.3482611754 2.3799944345 2.4117276937 2.4434609528 2.4751942119 2.506927471 2.5386607302 
2.5703939893 2.6021272484 2.6338605076 2.6655937667 2.6973270258 2.7290602849 2.7607935441 2.7925268032 2.8242600623 
2.8559933214 2.8877265806 2.9194598397 2.9511930988 2.982926358 3.0146596171 3.0463928762 3.0781261353 3.1098593945 
3.1415926536 
_radius 1 100 double
1.0176308422e-15 0.015141580255 0.030193954126 0.045070082807 0.059701754631 0.074044160002 0.088075614526 0.10179266752 0.11520171207 
0.12830871473 0.14110877792 0.15357705502 0.1656622382 0.17728356389 0.18833204354 0.19867632939 0.20817314329 0.21668149685 
0.22407912464 0.23027886466 0.23524238797 0.23898885226 0.24159673823 0.24319819767 0.24396648299 0.24409819911 0.24379299779 
0.24323375168 0.24257009973 0.24190754984 0.24130320992 0.24076800882 0.24027432827 0.23976750987 0.23917966746 0.23844437579 
0.23751087385 0.23635630961 0.23499438865 0.23347892012 0.23190146937 0.23038354556 0.22906500942 0.22809109382 0.22760019677 
0.22771352675 0.22852642098 0.23010057452 0.23245690514 0.23556993038 0.23936545745 0.24372340032 0.24848661374 0.25347524016 
0.25850469972 0.26340444234 0.2680341956 0.27229487773 0.27613252459 0.27953510156 0.28252343943 0.28513842193 0.28742689015 
0.28942861327 0.2911662512 0.29263959878 0.29382460384 0.29467676079 0.29513766359 0.29514299197 0.2946301762 0.2935444129 
0.29184235118 0.28949333604 0.28647842476 0.28278754915 0.27841534831 0.27335641736 0.26760092086 0.26113156874 0.25392277608 
0.24594245479 0.23715639981 0.22753472405 0.21705934044 0.20573115526 0.19357552137 0.18064472087 0.16701686611 0.15279147375 
0.13808266436 0.1230110918 0.10769542021 0.092243939996 0.076747021936 0.061271330025 0.045856702293 0.030516265036 0.015239815345 
5.4513918212e-16 
_area 1 100 double
0 0.00067456941977 0.002674799924 0.005932178735 0.010338826602 0.015756655493 0.022029535198 0.028997477483 0.036510875213 
0.044441685597 0.052687971678 0.06116924267 0.069812513938 0.078531993936 0.087207766177 0.095670071795 0.10369528914 0.11101729069 
0.1173541382 0.12244618056 0.12609849673 0.12821885587 0.12884261435 0.12813906155 0.12640103698 0.12415441062 0.12189447918 
0.11970884444 0.11781444675 0.11641147921 0.11564943889 0.11558983606 0.1161711894 0.11733869512 0.11891703067 0.12072833528 
0.12264529192 0.1245798318 0.12648902629 0.12836775213 0.13022952031 0.13209088248 0.133968588 0.13589011409 0.13791313381 
0.14013616483 0.14268635882 0.14570650541 0.14934702625 0.15373942549 0.15895686217 0.16498156171 0.17169057753 0.17886393167 
0.18621302513 0.19342201767 0.20019255955 0.20628275292 0.21153327888 0.21587689225 0.21933171591 0.22198225165 0.22395293119 
0.22537769195 0.22636756893 0.22697945359 0.2271951365 0.22692435279 0.22603489597 0.22439294095 0.22189234978 0.21846524033 
0.21407932466 0.20873037487 0.20243513739 0.19522823668 0.18716448187 0.17832240513 0.16880204633 0.15871487992 0.14817078268 
0.13726955759 0.12610184368 0.11475866032 0.10334395767 0.09198307794 0.080821900017 0.070015174018 0.059707497206 0.050015669121 
0.041022827106 0.032787747691 0.02536077289 0.018794070867 0.013141817893 0.0084544497309 0.0047729334997 0.0021262625452 0.00053224838921 
8.615428431e-17 
