# vtk DataFile Version 5.1
vtk output
ASCII
DATASET POLYDATA
POINTS 100 float
0.230287 0.111533 -0.662323 0.230062 0.111224 -0.662426 0.229263 0.110144 -0.662691 
0.227916 0.108309 -0.663037 0.22606 0.10575 -0.66334 0.223733 0.102502 -0.663445 
0.220961 0.098612 -0.663186 0.217748 0.0941293 -0.662398 0.214062 0.0891053 -0.660931 
0.209836 0.0835905 -0.658667 0.204968 0.0776324 -0.655522 0.199327 0.0712739 -0.651448 
0.192767 0.0645528 -0.646434 0.185146 0.0575021 -0.64049 0.176347 0.0501514 -0.633642 
0.166294 0.0425289 -0.625917 0.154977 0.034665 -0.617331 0.142456 0.0265948 -0.607881 
0.128873 0.0183624 -0.597541 0.114446 0.010023 -0.586256 0.0994566 0.00164566 -0.573957 
0.0842306 -0.00668608 -0.560563 0.0691143 -0.0148745 -0.545996 0.0544448 -0.0228099 -0.530197 
0.0405213 -0.030374 -0.513136 0.0275801 -0.0374451 -0.494827 0.0157747 -0.0439038 -0.47533 
0.00516487 -0.0496395 -0.454755 -0.00428522 -0.0545565 -0.433253 -0.0126985 -0.0585799 -0.411011 
-0.0202676 -0.0616596 -0.388229 -0.0272302 -0.0637732 -0.365108 -0.0338405 -0.0649268 -0.341829 
-0.0403379 -0.0651535 -0.318537 -0.0469201 -0.0645106 -0.295325 -0.0537187 -0.0630748 -0.272233 
-0.0607848 -0.0609368 -0.249243 -0.068082 -0.058195 -0.226287 -0.0754901 -0.0549502 -0.203257 
-0.0828176 -0.0513004 -0.180027 -0.0898214 -0.0473374 -0.156466 -0.096232 -0.0431445 -0.132463 
-0.101781 -0.0387967 -0.107944 -0.106229 -0.0343608 -0.0828823 -0.109384 -0.0298987 -0.0573094 
-0.111125 -0.025469 -0.0313151 -0.111407 -0.0211308 -0.0050417 -0.110263 -0.0169447 0.0213277 
-0.107798 -0.0129746 0.0475851 -0.104178 -0.00928666 0.0735164 -0.0996071 -0.0059477 0.0989204 
-0.0943103 -0.00302138 0.123626 -0.0885119 -0.000563869 0.147506 -0.0824163 0.0013811 0.170484 
-0.0761936 0.00278703 0.192541 -0.0699702 0.00364846 0.213708 -0.0638254 0.00398319 0.234059 
-0.0577938 0.00383253 0.2537 -0.0518724 0.00325909 0.272753 -0.046032 0.00234256 0.291345 
-0.0402298 0.00117331 0.309589 -0.0344224 -0.000155055 0.327578 -0.028578 -0.00155384 0.345375 
-0.0226846 -0.00294691 0.363014 -0.0167556 -0.00427704 0.380496 -0.010831 -0.00551028 0.397799 
-0.004974 -0.00663765 0.41488 0.000734338 -0.007674 0.431688 0.00620385 -0.00865422 0.44817 
0.0113445 -0.00962707 0.464276 0.0160757 -0.0106475 0.479967 0.0203342 -0.0117683 0.495218 
0.0240798 -0.0130321 0.510015 0.0272989 -0.0144652 0.524353 0.030004 -0.0160723 0.538237 
0.0322317 -0.0178359 0.551669 0.0340379 -0.0197168 0.564653 0.035491 -0.0216586 0.577183 
0.0366659 -0.0235934 0.589247 0.0376361 -0.0254503 0.600822 0.0384686 -0.027163 0.611878 
0.0392185 -0.0286777 0.622382 0.0399268 -0.0299591 0.632297 0.0406192 -0.0309943 0.641592 
0.0413067 -0.0317933 0.650241 0.041988 -0.0323875 0.658229 0.0426528 -0.0328252 0.665551 
0.043285 -0.0331645 0.672213 0.0438671 -0.0334661 0.678234 0.044383 -0.033785 0.683637 
0.0448208 -0.0341638 0.688451 0.0451746 -0.0346272 0.692706 0.0454446 -0.0351793 0.696429 
0.0456376 -0.035804 0.699643 0.045765 -0.0364669 0.702364 0.0458417 -0.0371214 0.704602 
0.0458834 -0.0377149 0.706363 0.0459049 -0.0381964 0.707647 0.0459182 -0.0385236 0.708452 
0.0459304 -0.0386693 0.708775 
LINES 2 100
OFFSETS vtktypeint64
0 100 
CONNECTIVITY vtktypeint64
0 1 2 3 4 5 6 7 8 
9 10 11 12 13 14 15 16 17 
18 19 20 21 22 23 24 25 26 
27 28 29 30 31 32 33 34 35 
36 37 38 39 40 41 42 43 44 
45 46 47 48 49 50 51 52 53 
54 55 56 57 58 59 60 61 62 
63 64 65 66 67 68 69 70 71 
72 73 74 75 76 77 78 79 80 
81 82 83 84 85 86 87 88 89 
90 91 92 93 94 95 96 97 98 
99 
POINT_DATA 100
FIELD FieldData 3
_theta 1 100 double
0 0.031733259127 0.063466518254 0.095199777382 0.12693303651 0.15866629564 0.19039955476 0.22213281389 0.25386607302 
0.28559933214 0.31733259127 0.3490658504 0.38079910953 0.41253236865 0.44426562778 0.47599888691 0.50773214603 0.53946540516 
0.57119866429 0.60293192342 0.63466518254 0.66639844167 0.6981317008 0.72986495992 0.76159821905 0.79333147818 0.82506473731 
0.85679799643 0.88853125556 0.92026451469 0.95199777382 0.98373103294 1.0154642921 1.0471975512 1.0789308103 1.1106640695 
1.1423973286 1.1741305877 1.2058638468 1.237597106 1.2693303651 1.3010636242 1.3327968833 1.3645301425 1.3962634016 
1.4279966607 1.4597299198 1.491463179 1.5231964381 1.5549296972 1.5866629564 1.6183962155 1.6501294746 1.6818627337 
1.7135959929 1.745329252 1.7770625111 1.8087957702 1.8405290294 1.8722622885 1.9039955476 1.9357288068 1.9674620659 
1.999195325 2.0309285841 2.0626618433 2.0943951024 2.1261283615 2.1578616206 2.1895948798 2.2213281389 2.253061398 
2.2847946572 2.3165279163 2.3482611754 2.3799944345 2.4117276937 2.4434609528 2.4751942119 2.506927471 2.5386607302 
2.5703939893 2.6021272484 2.6338605076 2.6655937667 2.6973270258 2.7290602849 2.7607935441 2.7925268032 2.8242600623 
2.8559933214 2.8877265806 2.9194598397 2.9511930988 2.982926358 3.0146596171 3.0463928762 3.0781261353 3.1098593945 
3.1415926536 
_radius 1 100 double
7.8663923824e-16 0.018276914565 0.036463622839 0.054464917693 0.072172599233 0.089456679354 0.10615649534 0.12207454593 0.13697626276 
0.15059812273 0.16266478866 0.17291394529 0.18112577132 0.18715294071 0.19094682758 0.19257611564 0.19223490719 0.19023808751 
0.18700207081 0.18301048837 0.1787682941 0.17475273628 0.17137232803 0.16894263396 0.16767977549 0.16770461557 0.16904973983 
0.17166593695 0.17542875494 0.18014646641 0.18556960007 0.19140159412 0.19731205585 0.20295748108 0.2080133865 0.21221346518 
0.21538406488 0.21746392463 0.21850565915 0.21866085105 0.2181537217 0.2172499402 0.21622695293 0.21534990399 0.21485385366 
0.21493060314 0.2157181523 0.21729233976 0.21966227707 0.22277212553 0.22651056786 0.23072684431 0.23525040618 0.23991096789 
0.24455637632 0.24906649463 0.2533619735 0.25740729713 0.26120780285 0.26480066452 0.26824050919 0.27158159251 0.27485978148 
0.27807805604 0.28119839455 0.28414119366 0.28679162555 0.28901113295 0.29065174867 0.29157097678 0.29164536189 0.29078138313 
0.2889227883 0.28605387339 0.28219853214 0.27741521541 0.27178830994 0.26541688757 0.25840222651 0.25083583191 0.24278972292 
0.23431040549 0.22541724833 0.21610509983 0.20635018184 0.1961177965 0.18537029646 0.17407406379 0.16220477255 0.14975077008 
0.13671481358 0.12311454321 0.10898199506 0.094362301891 0.079311657331 0.063894697495 0.04818162469 0.032245534559 0.016160401966 
7.4175093626e-16 
_area 1 100 double
0 0.0007039789461 0.0027952411357 0.0062116483652 0.010849037266 0.016560215096 0.023154888321 0.030403315045 0.038046333096 
0.045812822952 0.053452818269 0.061213514735 0.068845890104 0.075748974876 0.081504349821 0.085817425693 0.088530485559 0.089639832871 
0.089286968893 0.087729886141 0.085309097387 0.082410943857 0.079454250173 0.076903140963 0.075158287737 0.074431901402 0.074807239406 
0.076260280678 0.078669930584 0.081835112058 0.085504562781 0.089448149988 0.093505669914 0.097594524954 0.10173294501 0.10604179913 
0.11056835585 0.1150472754 0.11911550872 0.12256225952 0.12534455493 0.1275471893 0.12932023694 0.1308203165 0.13214711229 
0.13340822735 0.13475141464 0.13633024939 0.13833735201 0.14096990363 0.14435320595 0.14852552062 0.15343893204 0.15893464931 
0.16476413069 0.1706383383 0.1762923877 0.18155342595 0.18638701529 0.19091572484 0.19527565744 0.1994442062 0.20345380424 
0.20744483782 0.21130914139 0.21476339252 0.21759035048 0.21960020234 0.22063993357 0.22059457523 0.21937761152 0.21691934922 
0.2131642984 0.20808237684 0.20168856618 0.19406009038 0.18534204763 0.17573812142 0.16548864309 0.15484204555 0.14402707514 
0.13323203425 0.12259424151 0.11219885228 0.10208307596 0.092242250388 0.082639550493 0.073225994811 0.063970718514 0.054887650884 
0.04604516534 0.037559012427 0.029576756189 0.022260497003 0.015771179568 0.010255896974 0.0058389511998 0.0026169503058 0.00065747045946 
2.9053433096e-17 
