# vtk DataFile Version 5.1
vtk output
ASCII
DATASET POLYDATA
POINTS 100 float
0.180247 0.0504527 -0.83285 0.179574 0.0502918 -0.83234 0.177605 0.0496622 -0.830877 
0.174461 0.0485826 -0.828459 0.170325 0.0470803 -0.825084 0.165419 0.0451873 -0.820753 
0.159978 0.042934 -0.815471 0.154218 0.0403441 -0.80925 0.148308 0.0374303 -0.802112 
0.142355 0.0341914 -0.794085 0.136384 0.0306121 -0.785206 0.130341 0.0266647 -0.775515 
0.124099 0.0223145 -0.765051 0.117479 0.0175253 -0.753847 0.110274 0.0122682 -0.741925 
0.102279 0.00652927 -0.729295 0.0933229 0.000317093 -0.715946 0.0832948 -0.00633138 -0.701851 
0.0721643 -0.0133475 -0.686969 0.0599928 -0.0206305 -0.671244 0.0469329 -0.0280504 -0.654619 
0.0332179 -0.0354535 -0.637038 0.0191405 -0.0426706 -0.618455 0.00502472 -0.0495269 -0.598844 
-0.00880621 -0.0558519 -0.578202 -0.0220625 -0.0614899 -0.556553 -0.0345163 -0.0663079 -0.533947 
-0.0460235 -0.0702028 -0.510455 -0.0565355 -0.0731043 -0.486168 -0.0661001 -0.0749767 -0.461183 
-0.0748512 -0.075817 -0.435596 -0.0829881 -0.0756511 -0.409492 -0.0907481 -0.0745288 -0.382935 
-0.098374 -0.0725178 -0.355965 -0.106082 -0.0696976 -0.328596 -0.11403 -0.066155 -0.300816 
-0.122298 -0.0619799 -0.272593 -0.130871 -0.0572634 -0.243886 -0.139641 -0.0520963 -0.214656 
-0.148406 -0.0465704 -0.184877 -0.156898 -0.0407787 -0.154548 -0.164799 -0.034817 -0.123706 
-0.171778 -0.0287847 -0.0924261 -0.177521 -0.0227841 -0.0608297 -0.181759 -0.0169193 -0.0290769 
-0.184297 -0.0112932 0.0026394 -0.185029 -0.00600316 0.0341062 -0.183945 -0.00113602 0.0651047 
-0.181133 0.00323692 0.0954268 -0.176768 0.00706488 0.12489 -0.171092 0.0103212 0.153353 
-0.164395 0.0130053 0.18072 -0.156984 0.0151424 0.206954 -0.14916 0.0167811 0.23207 
-0.141195 0.0179888 0.256131 -0.133313 0.0188448 0.279241 -0.125679 0.0194328 0.301531 
-0.118392 0.0198331 0.323144 -0.111489 0.0201145 0.344217 -0.104952 0.0203287 0.364875 
-0.0987212 0.0205054 0.385215 -0.0927105 0.0206512 0.4053 -0.086823 0.0207497 0.42516 
-0.080967 0.0207657 0.444792 -0.0750682 0.0206497 0.464165 -0.0690792 0.0203454 0.483232 
-0.0629838 0.0197972 0.501936 -0.0567977 0.0189571 0.520226 -0.0505652 0.0177909 0.53806 
-0.0443525 0.0162832 0.555414 -0.03824 0.0144393 0.572287 -0.0323128 0.0122855 0.588697 
-0.0266527 0.00986656 0.604682 -0.0213307 0.00724199 0.620288 -0.0164018 0.00448022 0.635566 
-0.0119028 0.00165256 0.650558 -0.00785097 -0.001173 0.66529 -0.0042466 -0.0039372 0.679769 
-0.00107571 -0.00659378 0.693969 0.00168563 -0.00911199 0.707838 0.00406686 -0.0114774 0.721296 
0.0060989 -0.0136911 0.734239 0.00781088 -0.0157667 0.74655 0.00922808 -0.0177273 0.758103 
0.0103712 -0.019601 0.76878 0.0112566 -0.0214164 0.778475 0.0118981 -0.0231986 0.787107 
0.0123084 -0.0249657 0.794626 0.012502 -0.0267269 0.801017 0.012497 -0.0284808 0.806304 
0.0123167 -0.0302154 0.810544 0.0119904 -0.0319093 0.813828 0.0115535 -0.0335336 0.816273 
0.0110464 -0.0350539 0.818011 0.0105124 -0.0364333 0.819186 0.00999536 -0.0376352 0.819936 
0.00953671 -0.0386259 0.82039 0.00917256 -0.0393768 0.820659 0.00893092 -0.0398665 0.820825 
0.00882952 -0.0400819 0.820939 
LINES 2 100
OFFSETS vtktypeint64
0 100 
CONNECTIVITY vtktypeint64
0 1 2 3 4 5 6 7 8 
9 10 11 12 13 14 15 16 17 
18 19 20 21 22 23 24 25 26 
27 28 29 30 31 32 33 34 35 
36 37 38 39 40 41 42 43 44 
45 46 47 48 49 50 51 52 53 
54 55 56 57 58 59 60 61 62 
63 64 65 66 67 68 69 70 71 
72 73 74 75 76 77 78 79 80 
81 82 83 84 85 86 87 88 89 
90 91 92 93 94 95 96 97 98 
99 
POINT_DATA 100
FIELD FieldData 3
_theta 1 100 double
0 0.031733259127 0.063466518254 0.095199777382 0.12693303651 0.15866629564 0.19039955476 0.22213281389 0.25386607302 
0.28559933214 0.31733259127 0.3490658504 0.38079910953 0.41253236865 0.44426562778 0.47599888691 0.50773214603 0.53946540516 
0.57119866429 0.60293192342 0.63466518254 0.66639844167 0.6981317008 0.72986495992 0.76159821905 0.79333147818 0.82506473731 
0.85679799643 0.88853125556 0.92026451469 0.95199777382 0.98373103294 1.0154642921 1.0471975512 1.0789308103 1.1106640695 
1.1423973286 1.1741305877 1.2058638468 1.237597106 1.2693303651 1.3010636242 1.3327968833 1.3645301425 1.3962634016 
1.4279966607 1.4597299198 1.491463179 1.5231964381 1.5549296972 1.5866629564 1.6183962155 1.6501294746 1.6818627337 
1.7135959929 1.745329252 1.7770625111 1.8087957702 1.8405290294 1.8722622885 1.9039955476 1.9357288068 1.9674620659 
1.999195325 2.0309285841 2.0626618433 2.0943951024 2.1261283615 2.1578616206 2.1895948798 2.2213281389 2.253061398 
2.2847946572 2.3165279163 2.3482611754 2.3799944345 2.4117276937 2.4434609528 2.4751942119 2.506927471 2.5386607302 
2.5703939893 2.6021272484 2.6338605076 2.6655937667 2.6973270258 2.7290602849 2.7607935441 2.7925268032 2.8242600623 
2.8559933214 2.8877265806 2.9194598397 2.9511930988 2.982926358 3.0146596171 3.0463928762 3.0781261353 3.1098593945 
3.1415926536 
_radius 1 100 double
6.6801045509e-16 0.017539329507 0.034786871169 0.051481864584 0.067420540322 0.082467030966 0.09654868776 0.10963859472 0.12173208223 
0.13282561201 0.14290471757 0.15194350379 0.15991350529 0.1667964935 0.17259518466 0.17733763255 0.18107442962 0.18387128304 
0.18580161369 0.18694354591 0.18738309524 0.18722181183 0.18658438429 0.18562101047 0.18450095908 0.18339707813 0.18246478293 
0.18182156148 0.18153286823 0.18160747059 0.18200162713 0.18262916933 0.1833747062 0.18410906354 0.18470779777 0.18507324745 
0.18515770765 0.18498190699 0.18464186233 0.18429957158 0.18415760698 0.1844224108 0.18526552313 0.18679527344 0.18904925716 
0.1920083439 0.19562264695 0.19983597401 0.20459814829 0.20986141405 0.21556503798 0.22161767657 0.22788741837 0.23420512623 
0.24038080818 0.24622811293 0.25158997589 0.25635888304 0.26048741369 0.26398766049 0.26692090808 0.26938093818 0.27147506499 
0.27330637852 0.27495926628 0.27648903848 0.2779158157 0.27922255217 0.28035691404 0.28123663074 0.28175782034 0.28180555355 
0.28126554138 0.28003546178 0.27803432881 0.27520858683 0.27153418827 0.26701457626 0.26167508535 0.25555475524 0.24869693679 
0.24114033094 0.2329121449 0.22402475075 0.21447652994 0.20425657529 0.19335187189 0.18175486605 0.16946928174 0.15651275106 
0.14291604974 0.12871996111 0.11397149747 0.098721120672 0.083021870085 0.066930345534 0.050508728526 0.033826684009 0.016962090536 
1.0084722567e-15 
_area 1 100 double
0 0.00064918249816 0.0025833490246 0.0057587787287 0.010093349074 0.015459654962 0.02168347622 0.028548044475 0.035802437315 
0.043173306012 0.050381092717 0.057161923404 0.06329322705 0.06861643037 0.073047463283 0.076568977073 0.079207454668 0.081007682809 
0.082017923127 0.082291146311 0.081899009895 0.080952113256 0.079623584958 0.078161973669 0.076878036305 0.075846677953 0.07510347899 
0.074663028498 0.074538827485 0.074735696621 0.075252544318 0.07608248605 0.077204778848 0.078575363769 0.080130152427 0.081799285682 
0.083523064811 0.085280017719 0.087126592631 0.089192640955 0.091587456037 0.094314703971 0.097297338352 0.10044629385 0.10372120864 
0.10716806231 0.11091708415 0.11514139315 0.11999675966 0.1255699923 0.13184613909 0.13869603462 0.14589353654 0.15315992125 
0.1602199334 0.16685035245 0.17293161166 0.17849953821 0.18351955881 0.18776331171 0.19117446912 0.19373543317 0.19548778593 
0.19651570665 0.19693451377 0.19711120825 0.19713564214 0.19691275301 0.1965785692 0.19614370296 0.19550066691 0.19451720015 
0.19306507924 0.1910222762 0.18828457437 0.1847752147 0.18044337495 0.17525741462 0.16920204346 0.16227984153 0.15451284307 
0.14594361365 0.13663826764 0.12669190512 0.11623320067 0.10542314984 0.094444557112 0.083483101776 0.072706314625 0.062250454511 
0.052222312762 0.042713621803 0.033818981002 0.025649493294 0.018338676462 0.012039872871 0.0069157590201 0.0031219494374 0.00078802403751 
2.7918205942e-17 
