# vtk DataFile Version 5.1
vtk output
ASCII
DATASET POLYDATA
POINTS 100 float
0.158087 0.0343844 -0.678972 0.157885 0.0343024 -0.678696 0.157287 0.0339486 -0.677939 
0.156321 0.0333484 -0.676661 0.155025 0.0325384 -0.674799 0.153446 0.0315607 -0.672279 
0.151627 0.0304565 -0.669023 0.149602 0.0292591 -0.664959 0.147389 0.0279874 -0.66003 
0.144982 0.026642 -0.654205 0.142352 0.0252025 -0.647474 0.139446 0.0236278 -0.639858 
0.13619 0.0218596 -0.631399 0.132501 0.0198276 -0.622158 0.128293 0.0174572 -0.612205 
0.123486 0.0146788 -0.601611 0.118023 0.0114362 -0.590439 0.11187 0.00769572 -0.578739 
0.105028 0.00345259 -0.566544 0.0975359 -0.0012644 -0.553867 0.0894639 -0.00639151 -0.540703 
0.0809129 -0.0118316 -0.527038 0.0720031 -0.017459 -0.512849 0.0628632 -0.0231267 -0.498115 
0.0536177 -0.0286757 -0.482822 0.0443742 -0.0339457 -0.466968 0.035213 -0.0387854 -0.450563 
0.0261796 -0.0430629 -0.433632 0.0172811 -0.0466736 -0.416209 0.00848827 -0.0495464 -0.398333 
-0.000259239 -0.0516468 -0.380037 -0.00904182 -0.0529773 -0.361345 -0.0179466 -0.0535751 -0.342263 
-0.0270521 -0.0535065 -0.322776 -0.0364128 -0.0528606 -0.302845 -0.0460452 -0.0517412 -0.282411 
-0.0559177 -0.0502574 -0.261401 -0.0659439 -0.048516 -0.239735 -0.0759829 -0.046614 -0.21734 
-0.0858436 -0.0446323 -0.194157 -0.0952957 -0.0426323 -0.170158 -0.104084 -0.0406538 -0.145349 
-0.111947 -0.0387154 -0.119779 -0.118636 -0.0368168 -0.0935397 -0.123933 -0.0349426 -0.0667643 
-0.127668 -0.0330677 -0.0396184 -0.129733 -0.0311624 -0.0122912 -0.130087 -0.0291992 0.0150176 
-0.128758 -0.0271575 0.0421106 -0.125842 -0.0250283 0.0688048 -0.12149 -0.0228177 0.0949422 
-0.115898 -0.0205483 0.120396 -0.109288 -0.0182591 0.145076 -0.101889 -0.0160037 0.168926 
-0.0939254 -0.0138467 0.191919 -0.0855973 -0.0118593 0.214059 -0.0770705 -0.0101131 0.235364 
-0.0684697 -0.00867436 0.255864 -0.0598755 -0.00759776 0.275596 -0.0513266 -0.00692133 0.294597 
-0.0428264 -0.00666231 0.312901 -0.0343515 -0.00681474 0.330543 -0.0258626 -0.0073491 0.347559 
-0.0173161 -0.00821402 0.363988 -0.00867415 -0.00934007 0.379877 8.7362e-05 -0.0106453 0.395284 
0.00897306 -0.0120422 0.410276 0.0179661 -0.0134454 0.424926 0.0270295 -0.0147789 0.439313 
0.0361095 -0.0159835 0.453512 0.0451425 -0.0170216 0.467584 0.0540615 -0.0178806 0.481572 
0.0628041 -0.0185734 0.495487 0.0713184 -0.0191364 0.509309 0.0795684 -0.0196243 0.522979 
0.0875362 -0.0201036 0.536407 0.0952222 -0.0206437 0.549471 0.102642 -0.0213078 0.562036 
0.109824 -0.0221436 0.573963 0.116801 -0.0231761 0.585121 0.123603 -0.0244019 0.595409 
0.130257 -0.0257869 0.604762 0.136774 -0.0272672 0.613163 0.143151 -0.0287535 0.620644 
0.149368 -0.030139 0.627286 0.155391 -0.0313094 0.633209 0.16117 -0.0321545 0.638561 
0.16665 -0.0325803 0.643498 0.171773 -0.0325203 0.648167 0.176484 -0.0319441 0.652692 
0.180738 -0.0308633 0.657153 0.184502 -0.0293336 0.66158 0.187758 -0.0274518 0.665949 
0.190506 -0.0253494 0.670182 0.192757 -0.0231822 0.674159 0.194535 -0.0211172 0.677732 
0.195869 -0.0193183 0.680741 0.196787 -0.0179312 0.683034 0.197316 -0.0170709 0.684489 
0.197472 -0.0168104 0.685023 
LINES 2 100
OFFSETS vtktypeint64
0 100 
CONNECTIVITY vtktypeint64
0 1 2 3 4 5 6 7 8 
9 10 11 12 13 14 15 16 17 
18 19 20 21 22 23 24 25 26 
27 28 29 30 31 32 33 34 35 
36 37 38 39 40 41 42 43 44 
45 46 47 48 49 50 51 52 53 
54 55 56 57 58 59 60 61 62 
63 64 65 66 67 68 69 70 71 
72 73 74 75 76 77 78 79 80 
81 82 83 84 85 86 87 88 89 
90 91 92 93 94 95 96 97 98 
99 
POINT_DATA 100
FIELD FieldData 3
_theta 1 100 double
0 0.031733259127 0.063466518254 0.095199777382 0.12693303651 0.15866629564 0.19039955476 0.22213281389 0.25386607302 
0.28559933214 0.31733259127 0.3490658504 0.38079910953 0.41253236865 0.44426562778 0.47599888691 0.50773214603 0.53946540516 
0.57119866429 0.60293192342 0.63466518254 0.66639844167 0.6981317008 0.72986495992 0.76159821905 0.79333147818 0.82506473731 
0.85679799643 0.88853125556 0.92026451469 0.95199777382 0.98373103294 1.0154642921 1.0471975512 1.0789308103 1.1106640695 
1.1423973286 1.1741305877 1.2058638468 1.237597106 1.2693303651 1.3010636242 1.3327968833 1.3645301425 1.3962634016 
1.4279966607 1.4597299198 1.491463179 1.5231964381 1.5549296972 1.5866629564 1.6183962155 1.6501294746 1.6818627337 
1.7135959929 1.745329252 1.7770625111 1.8087957702 1.8405290294 1.8722622885 1.9039955476 1.9357288068 1.9674620659 
1.999195325 2.0309285841 2.0626618433 2.0943951024 2.1261283615 2.1578616206 2.1895948798 2.2213281389 2.253061398 
2.2847946572 2.3165279163 2.3482611754 2.3799944345 2.4117276937 2.4434609528 2.4751942119 2.506927471 2.5386607302 
2.5703939893 2.6021272484 2.6338605076 2.6655937667 2.6973270258 2.7290602849 2.7607935441 2.7925268032 2.8242600623 
2.8559933214 2.8877265806 2.9194598397 2.9511930988 2.982926358 3.0146596171 3.0463928762 3.0781261353 3.1098593945 
3.1415926536 
_radius 1 100 double
7.0493834759e-16 0.013989257993 0.027953095683 0.041870669148 0.055727191383 0.069507931951 0.083185723252 0.096705540491 0.10997167452 
0.12284284348 0.13513830845 0.1466547013 0.1571902471 0.16657134997 0.17467632722 0.18145208163 0.18692117073 0.19117860894 
0.19437948988 0.19671990774 0.19841450245 0.1996741278 0.20068663614 0.20160276537 0.20252795229 0.20351994207 0.20459149372 
0.20571721496 0.20684338425 0.2078994092 0.20880939347 0.20950231539 0.2099196573 0.21001988913 0.20977982703 0.20919345369 
0.20826932116 0.20702809707 0.20550182367 0.20373572063 0.20179209724 0.19975479214 0.19773205018 0.1958560341 0.19427808623 
0.19315997078 0.19266213935 0.19293034579 0.19408191686 0.19619303519 0.19928852814 0.20333550175 0.2082415103 0.21385720215 
0.21998307357 0.22638011755 0.23278432188 0.23892475173 0.24454429542 0.24942128664 0.25338948496 0.25635360496 0.25829788031 
0.25928598426 0.25945181406 0.25898195494 0.25809187084 0.25699885889 0.25589538831 0.25492644734 0.25417381929 0.25364886628 
0.25329377549 0.25298987489 0.25257098911 0.25183989424 0.250586358 0.24860555576 0.24571563352 0.24177297439 0.23668360045 
0.23040932807 0.22296783293 0.21442655504 0.20489120328 0.19449035571 0.18335825028 0.17161833556 0.15937040207 0.14668374675 
0.1335974429 0.12012675806 0.10627321838 0.092035535367 0.077419295371 0.062444213602 0.047148428125 0.031589715917 0.015843780503 
1.1837771109e-15 
_area 1 100 double
0 0.0004404454286 0.0017719300243 0.0040227367775 0.0072325317755 0.011440472547 0.016668020128 0.022897606247 0.030050385113 
0.037968418965 0.046407611301 0.055046493596 0.06351249413 0.071422596663 0.078430985244 0.084273885134 0.088802178368 0.091995466466 
0.093956272574 0.094888624767 0.095069096266 0.094814345849 0.094428945413 0.09413238085 0.094037446483 0.094180606364 0.094548632666 
0.095095594025 0.095759607945 0.096475658975 0.097184344925 0.097840670086 0.098425019905 0.098956229791 0.099494275605 0.1001029174 
0.10083027461 0.10169745384 0.10265206034 0.10365280138 0.10466516765 0.10559534872 0.10634426551 0.10691310819 0.10738683827 
0.10788180647 0.10855622447 0.10960688136 0.11126654014 0.11377872703 0.11735371017 0.12212071225 0.12809489051 0.13516616592 
0.14310672927 0.15159091976 0.16022143168 0.16855831857 0.17615033715 0.1825699569 0.18745360903 0.19054703959 0.19175155569 
0.19116238018 0.18908226105 0.18595471721 0.18220764526 0.17821161493 0.17430275577 0.17075082729 0.1677185226 0.16524172497 
0.1632333086 0.1615057956 0.15980531066 0.15784832147 0.15535414758 0.15206988115 0.14778850641 0.14236338595 0.13572168882 
0.12787650629 0.11893432222 0.10909305422 0.098626893872 0.087857214303 0.077112831836 0.066687212598 0.056803982142 0.047602299505 
0.039146509786 0.031452963989 0.024520703808 0.018355504474 0.012982939469 0.0084506653615 0.0048224082973 0.0021669599663 0.0005454793041 
6.0391805825e-17 
