# vtk DataFile Version 5.1
vtk output
ASCII
DATASET POLYDATA
POINTS 100 float
0.151395 0.0199536 -0.653035 0.150947 0.0198637 -0.653227 0.149687 0.0194751 -0.653835 
0.147708 0.0188284 -0.654701 0.145149 0.017984 -0.655583 0.142179 0.0170136 -0.656182 
0.138977 0.0159903 -0.656176 0.135704 0.0149773 -0.655258 0.132484 0.0140187 -0.653167 
0.129386 0.0131308 -0.649717 0.126412 0.0122978 -0.644814 0.123495 0.0114703 -0.638456 
0.120499 0.0105687 -0.630734 0.11724 0.00948946 -0.621805 0.113495 0.00811532 -0.611871 
0.109037 0.00632759 -0.601149 0.103654 0.00401923 -0.589836 0.0971754 0.0011076 -0.578085 
0.0894949 -0.00245446 -0.565989 0.080585 -0.00667068 -0.553563 0.0705037 -0.0114971 -0.540755 
0.0593926 -0.0168421 -0.527449 0.0474675 -0.0225709 -0.51349 0.0349989 -0.0285142 -0.498707 
0.0222895 -0.0344791 -0.482941 0.00964652 -0.0402633 -0.466067 -0.00264503 -0.0456691 -0.448017 
-0.0143468 -0.050517 -0.428785 -0.025286 -0.0546577 -0.408434 -0.0353671 -0.0579811 -0.387085 
-0.0445753 -0.0604215 -0.364902 -0.0529701 -0.061959 -0.342071 -0.0606726 -0.0626175 -0.318772 
-0.0678445 -0.0624583 -0.295164 -0.0746645 -0.061572 -0.271359 -0.0813021 -0.0600682 -0.247416 
-0.0878937 -0.0580651 -0.223334 -0.0945224 -0.0556791 -0.199065 -0.101204 -0.0530164 -0.174519 
-0.10788 -0.0501661 -0.149594 -0.114423 -0.0471969 -0.124191 -0.120641 -0.0441559 -0.09824 
-0.1263 -0.0410699 -0.071721 -0.131144 -0.0379498 -0.0446726 -0.134917 -0.0347952 -0.0171995 
-0.137391 -0.0316009 0.010533 -0.138385 -0.0283628 0.0383108 -0.137786 -0.0250828 0.0658904 
-0.135552 -0.021773 0.0930215 -0.131722 -0.0184575 0.119471 -0.126411 -0.0151726 0.145045 
-0.119794 -0.011965 0.169605 -0.112094 -0.00888875 0.193079 -0.103563 -0.00600089 0.215461 
-0.0944548 -0.00335645 0.236809 -0.0850129 -0.00100384 0.257227 -0.0754468 0.00101938 0.276851 
-0.065922 0.00268951 0.29583 -0.0565526 0.00399842 0.314305 -0.0473991 0.00495371 0.332391 
-0.0384733 0.00557738 0.350172 -0.0297464 0.00590321 0.367693 -0.0211617 0.00597329 0.384961 
-0.0126477 0.00583396 0.401952 -0.00413215 0.00553176 0.418627 0.004446 0.00510971 0.434938 
0.0131274 0.00460439 0.450844 0.0219269 0.00404401 0.466324 0.0308319 0.0034476 0.481373 
0.0398048 0.00282538 0.496012 0.0487887 0.0021801 0.510277 0.0577146 0.00150912 0.524213 
0.066511 0.000806994 0.537859 0.0751112 6.81549e-05 0.551239 0.0834616 -0.000710609 0.564352 
0.0915253 -0.00152817 0.57716 0.0992852 -0.00237778 0.589593 0.106742 -0.0032466 0.601549 
0.113913 -0.00411607 0.612905 0.120824 -0.00496305 0.623531 0.127504 -0.00576151 0.633307 
0.133978 -0.0064847 0.642137 0.140264 -0.00710736 0.649969 0.146364 -0.00760786 0.656799 
0.152265 -0.00797012 0.662677 0.157939 -0.00818487 0.667706 0.163344 -0.00825048 0.672027 
0.168433 -0.00817308 0.675808 0.173152 -0.00796609 0.679221 0.177453 -0.00764928 0.682424 
0.181299 -0.00724739 0.68554 0.184662 -0.00678852 0.688647 0.187533 -0.00630248 0.691763 
0.18992 -0.00581914 0.694851 0.191843 -0.00536693 0.697822 0.193335 -0.00497162 0.700552 
0.194432 -0.00465531 0.702897 0.195173 -0.00443576 0.704716 0.195588 -0.00432586 0.705889 
0.195699 -0.00433343 0.706337 
LINES 2 100
OFFSETS vtktypeint64
0 100 
CONNECTIVITY vtktypeint64
0 1 2 3 4 5 6 7 8 
9 10 11 12 13 14 15 16 17 
18 19 20 21 22 23 24 25 26 
27 28 29 30 31 32 33 34 35 
36 37 38 39 40 41 42 43 44 
45 46 47 48 49 50 51 52 53 
54 55 56 57 58 59 60 61 62 
63 64 65 66 67 68 69 70 71 
72 73 74 75 76 77 78 79 80 
81 82 83 84 85 86 87 88 89 
90 91 92 93 94 95 96 97 98 
99 
POINT_DATA 100
FIELD FieldData 3
_theta 1 100 double
0 0.031733259127 0.063466518254 0.095199777382 0.12693303651 0.15866629564 0.19039955476 0.22213281389 0.25386607302 
0.28559933214 0.31733259127 0.3490658504 0.38079910953 0.41253236865 0.44426562778 0.47599888691 0.50773214603 0.53946540516 
0.57119866429 0.60293192342 0.63466518254 0.66639844167 0.6981317008 0.72986495992 0.76159821905 0.79333147818 0.82506473731 
0.85679799643 0.88853125556 0.92026451469 0.95199777382 0.98373103294 1.0154642921 1.0471975512 1.0789308103 1.1106640695 
1.1423973286 1.1741305877 1.2058638468 1.237597106 1.2693303651 1.3010636242 1.3327968833 1.3645301425 1.3962634016 
1.4279966607 1.4597299198 1.491463179 1.5231964381 1.5549296972 1.5866629564 1.6183962155 1.6501294746 1.6818627337 
1.7135959929 1.745329252 1.7770625111 1.8087957702 1.8405290294 1.8722622885 1.9039955476 1.9357288068 1.9674620659 
1.999195325 2.0309285841 2.0626618433 2.0943951024 2.1261283615 2.1578616206 2.1895948798 2.2213281389 2.253061398 
2.2847946572 2.3165279163 2.3482611754 2.3799944345 2.4117276937 2.4434609528 2.4751942119 2.506927471 2.5386607302 
2.5703939893 2.6021272484 2.6338605076 2.6655937667 2.6973270258 2.7290602849 2.7607935441 2.7925268032 2.8242600623 
2.8559933214 2.8877265806 2.9194598397 2.9511930988 2.982926358 3.0146596171 3.0463928762 3.0781261353 3.1098593945 
3.1415926536 
_radius 1 100 double
7.8964033367e-16 0.018566839105 0.036855912746 0.054613920929 0.071636459453 0.087782641567 0.10297930186 0.11721407375 0.13051892061 
0.14294790148 0.15455423541 0.16537147979 0.17540195552 0.18461327027 0.19294197031 0.20030258888 0.20660048534 0.21174723033 
0.21567730143 0.21836439802 0.21983510826 0.22017745194 0.21954227328 0.21813652393 0.216208853 0.21402922564 0.21186521529 
0.20995797908 0.20850069651 0.20762158956 0.20737290991 0.20772683221 0.20857907611 0.20976095114 0.2110599192 0.21224750283 
0.21311168096 0.21348935295 0.21329354211 0.21253009571 0.21129997401 0.20978605 0.20822749042 0.20688878751 0.20603163152 
0.2058944501 0.20667871239 0.20853739767 0.21156180622 0.21576695814 0.22108002922 0.22733774112 0.23429648406 0.24165481765 
0.24908443796 0.25626414787 0.26291160198 0.26880873268 0.27381815479 0.27788924383 0.28105392341 0.28341341776 0.28511822701 
0.28634424695 0.28726819221 0.28804527066 0.28879146732 0.28957197118 0.29039637352 0.29122040095 0.2919532042 0.29246867609 
0.29261898323 0.29224848945 0.29120649771 0.28935766468 0.28658945591 0.28281651782 0.27798226951 0.27205830736 0.26504233763 
0.25695530526 0.24783819737 0.23774872502 0.22675780778 0.21494560143 0.20239682812 0.18919547103 0.17541944791 0.16113641526 
0.1464019244 0.13126048184 0.1157489722 0.099901107378 0.083751514672 0.067338596881 0.050705930381 0.033902405155 0.016981490737 
2.1512551546e-16 
_area 1 100 double
0 0.00064523003984 0.0025860519167 0.00582959218 0.010364379049 0.01613767758 0.023041217962 0.030910381771 0.039535041365 
0.048676204059 0.058082475522 0.06750250155 0.076691940323 0.08541520501 0.093443505606 0.100552332 0.10652328218 0.11115549094 
0.11428917517 0.11583810156 0.11582160147 0.11438360361 0.11178831038 0.10838950336 0.10458122292 0.10074888047 0.097252447757 
0.094583169632 0.092877426317 0.092017670018 0.091888118651 0.092417515617 0.093572029443 0.095201274109 0.097126624707 0.099172959195 
0.10115339081 0.10291014542 0.10436911027 0.10557785005 0.10667900372 0.10779727734 0.1089938413 0.11033392076 0.11189834927 
0.11380262213 0.11622355128 0.11941057006 0.12365249658 0.12919556725 0.13615767282 0.14448826396 0.15397589665 0.16427860558 
0.17496110628 0.18553707612 0.19551837722 0.20446777975 0.21204687668 0.2180524193 0.22243838663 0.22532451211 0.22701443739 
0.22816423988 0.22930147393 0.23026143386 0.23099461287 0.23149695775 0.23175612372 0.23173215304 0.23134835005 0.2304898476 
0.22900823205 0.22673132 0.22347751652 0.21907356948 0.21337354607 0.20627657638 0.19774146956 0.18779692607 0.17654650933 
0.16416789967 0.15090603073 0.13705954826 0.12296014611 0.10894516202 0.095325627977 0.082354845905 0.07020562092 0.058964884961 
0.048649717855 0.03923976035 0.030713679481 0.02307690997 0.016373664614 0.01068341985 0.0061067915379 0.0027469774362 0.00069186642222 
3.2526065175e-19 
