# vtk DataFile Version 5.1
vtk output
ASCII
DATASET POLYDATA
POINTS 100 float
0.169177 -0.0137623 0.681774 0.169132 -0.0138219 0.68165 0.168885 -0.0141098 0.681395 
0.168387 -0.0146014 0.680976 0.167566 -0.0152588 0.680332 0.166338 -0.016033 0.679387 
0.164617 -0.0168682 0.67805 0.162331 -0.0177051 0.67622 0.159431 -0.018485 0.673797 
0.155901 -0.0191534 0.670682 0.151757 -0.019663 0.66679 0.147051 -0.0199752 0.662053 
0.141859 -0.020062 0.656426 0.136274 -0.0199056 0.649889 0.130392 -0.0194991 0.642451 
0.1243 -0.0188449 0.634145 0.118063 -0.017954 0.625031 0.111717 -0.0168452 0.615186 
0.105264 -0.0155438 0.604698 0.0986763 -0.0140812 0.593662 0.0918995 -0.0124938 0.582169 
0.0848646 -0.0108227 0.570297 0.0775 -0.00911302 0.558109 0.0697453 -0.00741293 0.545645 
0.0615626 -0.00577243 0.532922 0.0529453 -0.00424172 0.519931 0.0439223 -0.0028691 0.506645 
0.0345564 -0.00169865 0.493017 0.0249382 -0.000767843 0.47899 0.0151752 -0.000105246 0.464504 
0.00537871 0.000271162 0.449499 -0.00435052 0.000354989 0.433923 -0.0139345 0.000151402 0.417736 
-0.0233274 -0.000323985 0.40091 -0.032519 -0.00104729 0.38343 -0.0415333 -0.00198943 0.365295 
-0.0504203 -0.00311976 0.346509 -0.0592434 -0.00440986 0.327081 -0.0680624 -0.00583697 0.307025 
-0.0769166 -0.00738668 0.286347 -0.0858086 -0.00905437 0.265055 -0.0946915 -0.0108453 0.243152 
-0.103462 -0.012773 0.220642 -0.111963 -0.0148566 0.197532 -0.119989 -0.0171168 0.173839 
-0.127302 -0.019571 0.149592 -0.133653 -0.0222293 0.12484 -0.138806 -0.0250902 0.0996549 
-0.142561 -0.0281374 0.0741285 -0.144774 -0.0313392 0.0483744 -0.145376 -0.0346483 0.0225217 
-0.144382 -0.0380044 -0.00329236 -0.141887 -0.0413377 -0.0289309 -0.138062 -0.0445737 -0.0542673 
-0.133133 -0.0476385 -0.0791944 -0.127361 -0.0504639 -0.103632 -0.121014 -0.0529914 -0.127532 
-0.114343 -0.0551749 -0.15088 -0.107553 -0.056982 -0.173691 -0.100789 -0.0583931 -0.196006 
-0.0941251 -0.0593986 -0.217881 -0.0875585 -0.0599957 -0.239377 -0.0810201 -0.060184 -0.260549 
-0.0743871 -0.0599611 -0.281435 -0.067505 -0.0593195 -0.302048 -0.0602107 -0.0582445 -0.322373 
-0.052358 -0.0567148 -0.342365 -0.04384 -0.0547039 -0.361957 -0.0346062 -0.0521849 -0.381066 
-0.0246742 -0.0491356 -0.399605 -0.0141321 -0.0455446 -0.417494 -0.00313443 -0.041418 -0.434676 
0.00810981 -0.036784 -0.451126 0.0193538 -0.0316963 -0.466854 0.0303332 -0.0262344 -0.481911 
0.0407869 -0.020502 -0.496384 0.0504767 -0.014621 -0.510383 0.0592033 -0.00872402 -0.524033 
0.0668174 -0.00294526 -0.537453 0.0732259 0.00259022 -0.550743 0.0783915 0.00777618 -0.563963 
0.0823288 0.0125335 -0.577125 0.0850958 0.0168158 -0.590186 0.0867838 0.0206122 -0.603042 
0.0875062 0.0239454 -0.615544 0.0873887 0.0268676 -0.627502 0.086561 0.0294516 -0.638709 
0.0851506 0.0317814 -0.648959 0.0832799 0.0339408 -0.658072 0.0810651 0.0360022 -0.665911 
0.0786169 0.0380181 -0.672403 0.0760417 0.040014 -0.677543 0.0734433 0.0419859 -0.681399 
0.0709233 0.0439008 -0.684105 0.0685805 0.0457014 -0.685848 0.0665086 0.0473138 -0.686845 
0.064793 0.0486572 -0.687324 0.0635063 0.0496547 -0.687492 0.0627047 0.0502429 -0.68752 
0.0624235 0.0503809 -0.687516 
LINES 2 100
OFFSETS vtktypeint64
0 100 
CONNECTIVITY vtktypeint64
0 1 2 3 4 5 6 7 8 
9 10 11 12 13 14 15 16 17 
18 19 20 21 22 23 24 25 26 
27 28 29 30 31 32 33 34 35 
36 37 38 39 40 41 42 43 44 
45 46 47 48 49 50 51 52 53 
54 55 56 57 58 59 60 61 62 
63 64 65 66 67 68 69 70 71 
72 73 74 75 76 77 78 79 80 
81 82 83 84 85 86 87 88 89 
90 91 92 93 94 95 96 97 98 
99 
POINT_DATA 100
FIELD FieldData 3
_theta 1 100 double
0 0.031733259127 0.063466518254 0.095199777382 0.12693303651 0.15866629564 0.19039955476 0.22213281389 0.25386607302 
0.28559933214 0.31733259127 0.3490658504 0.38079910953 0.41253236865 0.44426562778 0.47599888691 0.50773214603 0.53946540516 
0.57119866429 0.60293192342 0.63466518254 0.66639844167 0.6981317008 0.72986495992 0.76159821905 0.79333147818 0.82506473731 
0.85679799643 0.88853125556 0.92026451469 0.95199777382 0.98373103294 1.0154642921 1.0471975512 1.0789308103 1.1106640695 
1.1423973286 1.1741305877 1.2058638468 1.237597106 1.2693303651 1.3010636242 1.3327968833 1.3645301425 1.3962634016 
1.4279966607 1.4597299198 1.491463179 1.5231964381 1.5549296972 1.5866629564 1.6183962155 1.6501294746 1.6818627337 
1.7135959929 1.745329252 1.7770625111 1.8087957702 1.8405290294 1.8722622885 1.9039955476 1.9357288068 1.9674620659 
1.999195325 2.0309285841 2.0626618433 2.0943951024 2.1261283615 2.1578616206 2.1895948798 2.2213281389 2.253061398 
2.2847946572 2.3165279163 2.3482611754 2.3799944345 2.4117276937 2.4434609528 2.4751942119 2.506927471 2.5386607302 
2.5703939893 2.6021272484 2.6338605076 2.6655937667 2.6973270258 2.7290602849 2.7607935441 2.7925268032 2.8242600623 
2.8559933214 2.8877265806 2.9194598397 2.9511930988 2.982926358 3.0146596171 3.0463928762 3.0781261353 3.1098593945 
3.1415926536 
_radius 1 100 double
1.0008377311e-15 0.015349991331 0.030620155573 0.045733085055 0.06061458926 0.075195401679 0.089412544952 0.10320977257 0.11653659057 
0.12934580938 0.14159024 0.15321967743 0.16417937613 0.17441078901 0.18385469415 0.19245627644 0.20017137268 0.20697288337 
0.21285626623 0.21784309627 0.22198196363 0.22534646739 0.22803060773 0.23014227058 0.23179557815 0.23310265902 0.23416508814 
0.23506518677 0.23585778067 0.23656374933 0.23716715865 0.23761732059 0.2378358471 0.23772751617 0.23719325663 0.23614371083 
0.23451213631 0.23226554397 0.22941298552 0.22600999845 0.22215851709 0.21800204136 0.21371640501 0.20949698649 0.20554358208 
0.20204438349 0.1991605854 0.1970131486 0.19567317777 0.195157134 0.1954275248 0.19639879751 0.19794719466 0.19992273019 
0.20216146746 0.2044968386 0.2067695058 0.20883584883 0.21057532841 0.21189672445 0.21274281941 0.21309281699 0.21296187237 
0.21239756297 0.21147377374 0.21028303116 0.20892847566 0.207516208 0.20614786681 0.20491265112 0.20387824578 0.2030812178 
0.20251866026 0.20214332813 0.20186397308 0.20155140325 0.20104953144 0.20018973394 0.19880636843 0.19675126853 0.19390534797 
0.19018600417 0.18554972194 0.17999004108 0.17353172179 0.16622236178 0.15812283078 0.14929778612 0.13980736428 0.12970096044 
0.11901377844 0.10776656079 0.095968655058 0.08362432382 0.070741787632 0.057343753623 0.043477285816 0.029220341523 0.014682658032 
2.6319113377e-16 
_area 1 100 double
0 0.00056269035699 0.0022417985129 0.0050101805064 0.0088227825142 0.01361943884 0.019330656439 0.025883389654 0.033201218994 
0.041195254042 0.049748960786 0.058706476748 0.06787363658 0.07703433032 0.085977077563 0.094521977592 0.10253849214 0.10994956089 
0.11672382536 0.12286094597 0.12837495158 0.13328039365 0.13758638921 0.14130175272 0.14444946346 0.14708331486 0.14929670116 
0.15121459614 0.15296539011 0.15463955022 0.15625381702 0.1577415512 0.15897395205 0.15979631434 0.1600576922 0.15962391381 
0.15838082736 0.15624217264 0.15316906802 0.14919437428 0.14443870344 0.13910920014 0.13348045113 0.12786278486 0.12256551807 
0.11786189603 0.11395988655 0.11098132695 0.10895211967 0.10780496251 0.10739300291 0.10751219796 0.1079312162 0.1084261737 
0.10881488247 0.10898606181 0.10892294668 0.10870987481 0.10844962082 0.1081321401 0.10768169267 0.10702963342 0.1061253943 
0.10493966959 0.10347438607 0.1017761496 0.099943495973 0.098118817342 0.096466231527 0.095142125661 0.094262578013 0.09387349068 
0.093933470102 0.09431795099 0.094844238049 0.095307044155 0.095509305385 0.095277290603 0.094464366735 0.092960474858 0.090709406662 
0.087715658125 0.084031629857 0.07973356919 0.074899352286 0.069595881867 0.063877296092 0.05779250263 0.051399436195 0.044780919984 
0.038055295967 0.031376971319 0.024926617002 0.018894802593 0.013464579735 0.0087979234938 0.005028586043 0.0022605991829 0.00056905565125 
8.6736173799e-18 
