# vtk DataFile Version 5.1
vtk output
ASCII
DATASET POLYDATA
POINTS 100 float
0.206816 0.0821767 -0.665384 0.206725 0.0822053 -0.66542 0.206383 0.082429 -0.665419 
0.20578 0.0827885 -0.665296 0.204903 0.0831902 -0.664917 0.203733 0.0835148 -0.664117 
0.202247 0.083627 -0.662722 0.200414 0.0833871 -0.660563 0.1982 0.0826619 -0.657499 
0.195565 0.0813347 -0.653428 0.192463 0.079313 -0.648301 0.188848 0.076534 -0.64212 
0.18467 0.0729666 -0.634938 0.179882 0.0686115 -0.626848 0.17444 0.063499 -0.61797 
0.168308 0.0576846 -0.608431 0.161461 0.0512443 -0.598352 0.153889 0.04427 -0.58783 
0.145599 0.0368647 -0.576925 0.136617 0.0291388 -0.565652 0.12699 0.0212078 -0.553986 
0.116784 0.0131899 -0.541857 0.106082 0.00520517 -0.529171 0.0949818 -0.00262601 -0.515813 
0.08359 -0.0101847 -0.501672 0.0720161 -0.0173557 -0.486648 0.0603664 -0.0240313 -0.470673 
0.0487379 -0.0301154 -0.453713 0.0372129 -0.0355287 -0.43578 0.0258555 -0.0402139 -0.416926 
0.0147095 -0.0441404 -0.397238 0.00379887 -0.0473069 -0.37683 -0.00686934 -0.0497436 -0.355829 
-0.0173001 -0.0515099 -0.334361 -0.0275034 -0.0526907 -0.312538 -0.0374871 -0.0533897 -0.290447 
-0.0472483 -0.0537199 -0.268143 -0.0567664 -0.0537937 -0.245647 -0.0659976 -0.0537125 -0.222947 
-0.0748716 -0.0535564 -0.200006 -0.0832915 -0.0533777 -0.17677 -0.0911368 -0.0531956 -0.15318 
-0.0982693 -0.0529962 -0.129187 -0.104541 -0.0527355 -0.104758 -0.109807 -0.0523465 -0.0798871 
-0.113933 -0.0517489 -0.0546035 -0.116809 -0.0508607 -0.0289692 -0.118357 -0.0496104 -0.00307876 
-0.118537 -0.0479478 0.0229466 -0.117354 -0.0458525 0.0489673 -0.114853 -0.0433391 0.0748345 
-0.111121 -0.0404576 0.1004 -0.106273 -0.0372907 0.125527 -0.100449 -0.0339459 0.150092 
-0.0937991 -0.0305456 0.173998 -0.0864743 -0.027215 0.19717 -0.0786158 -0.0240704 0.219559 
-0.0703466 -0.0212076 0.241138 -0.0617664 -0.0186944 0.261903 -0.0529494 -0.0165657 0.281863 
-0.0439449 -0.0148224 0.301044 -0.0347817 -0.0134356 0.319479 -0.0254737 -0.0123529 0.33721 
-0.0160276 -0.0115081 0.354287 -0.00645031 -0.0108312 0.370761 0.00324476 -0.0102587 0.386693 
0.0130324 -0.00974242 0.402146 0.0228735 -0.0092546 0.417187 0.0327148 -0.00879056 0.431882 
0.0424918 -0.00836716 0.446298 0.052134 -0.00801812 0.460494 0.0615702 -0.00778681 0.474519 
0.0707358 -0.00771756 0.488405 0.0795787 -0.00784699 0.502167 0.0880637 -0.0081965 0.515792 
0.0961753 -0.00876714 0.529246 0.103917 -0.00953758 0.54247 0.111311 -0.0104655 0.555383 
0.118389 -0.0114921 0.567889 0.12519 -0.0125496 0.579883 0.131752 -0.0135693 0.591258 
0.138106 -0.0144913 0.601917 0.144265 -0.0152717 0.611777 0.15023 -0.0158887 0.620778 
0.155981 -0.0163449 0.628883 0.161481 -0.0166667 0.636086 0.16668 -0.0168999 0.642407 
0.171521 -0.0171026 0.647889 0.17595 -0.0173363 0.652594 0.179916 -0.0176564 0.656595 
0.183385 -0.0181033 0.65997 0.18634 -0.0186958 0.662796 0.188785 -0.0194271 0.665143 
0.190748 -0.0202647 0.667072 0.192268 -0.021154 0.668628 0.193403 -0.0220242 0.669849 
0.194211 -0.0227978 0.670756 0.194749 -0.0234002 0.671368 0.195065 -0.0237696 0.671693 
0.195189 -0.0238648 0.671739 
LINES 2 100
OFFSETS vtktypeint64
0 100 
CONNECTIVITY vtktypeint64
0 1 2 3 4 5 6 7 8 
9 10 11 12 13 14 15 16 17 
18 19 20 21 22 23 24 25 26 
27 28 29 30 31 32 33 34 35 
36 37 38 39 40 41 42 43 44 
45 46 47 48 49 50 51 52 53 
54 55 56 57 58 59 60 61 62 
63 64 65 66 67 68 69 70 71 
72 73 74 75 76 77 78 79 80 
81 82 83 84 85 86 87 88 89 
90 91 92 93 94 95 96 97 98 
99 
POINT_DATA 100
FIELD FieldData 3
_theta 1 100 double
0 0.031733259127 0.063466518254 0.095199777382 0.12693303651 0.15866629564 0.19039955476 0.22213281389 0.25386607302 
0.28559933214 0.31733259127 0.3490658504 0.38079910953 0.41253236865 0.44426562778 0.47599888691 0.50773214603 0.53946540516 
0.57119866429 0.60293192342 0.63466518254 0.66639844167 0.6981317008 0.72986495992 0.76159821905 0.79333147818 0.82506473731 
0.85679799643 0.88853125556 0.92026451469 0.95199777382 0.98373103294 1.0154642921 1.0471975512 1.0789308103 1.1106640695 
1.1423973286 1.1741305877 1.2058638468 1.237597106 1.2693303651 1.3010636242 1.3327968833 1.3645301425 1.3962634016 
1.4279966607 1.4597299198 1.491463179 1.5231964381 1.5549296972 1.5866629564 1.6183962155 1.6501294746 1.6818627337 
1.7135959929 1.745329252 1.7770625111 1.8087957702 1.8405290294 1.8722622885 1.9039955476 1.9357288068 1.9674620659 
1.999195325 2.0309285841 2.0626618433 2.0943951024 2.1261283615 2.1578616206 2.1895948798 2.2213281389 2.253061398 
2.2847946572 2.3165279163 2.3482611754 2.3799944345 2.4117276937 2.4434609528 2.4751942119 2.506927471 2.5386607302 
2.5703939893 2.6021272484 2.6338605076 2.6655937667 2.6973270258 2.7290602849 2.7607935441 2.7925268032 2.8242600623 
2.8559933214 2.8877265806 2.9194598397 2.9511930988 2.982926358 3.0146596171 3.0463928762 3.0781261353 3.1098593945 
3.1415926536 
_radius 1 100 double
1.417709593e-15 0.016509671062 0.032787390485 0.048618487826 0.063812329408 0.078211471288 0.091697886717 0.10419559684 0.11566934354 
0.12611938798 0.13557307089 0.1440743452 0.15167294647 0.15841504427 0.16433701445 0.16946338704 0.17380918033 0.17738592856 
0.18020997124 0.18231116724 0.18374019221 0.18457291925 0.1849109433 0.18487795635 0.18461231769 0.18425670768 0.18394611979 
0.18379558832 0.18388901705 0.18427039341 0.18493861145 0.18584700463 0.18690833877 0.18800533372 0.18900583121 0.18978072107 
0.19022198607 0.19025799701 0.18986360473 0.18906357071 0.18792928475 0.18657026533 0.18512312724 0.18374079071 0.18258331127 
0.18180960313 0.18156813277 0.18198534338 0.18315256121 0.18511393012 0.18785837273 0.19131765349 0.19537109004 0.19985608691 
0.20458280795 0.20935096375 0.21396668223 0.21825759524 0.22208460385 0.22534934349 0.22799711215 0.23001573479 0.23143128015 
0.23230162639 0.23270867592 0.23274972443 0.23252825927 0.23214440551 0.23168538545 0.23121664972 0.2307746276 0.23036214641 
0.22994733149 0.22946617529 0.22882812757 0.22792341106 0.22663068235 0.22482413482 0.22237981425 0.21918140336 0.21512587658 
0.21012927425 0.20413249796 0.19710658454 0.18905648598 0.18002213299 0.17007569509 0.1593146372 0.14785136478 0.13580151558 
0.12327356164 0.11036183915 0.097143740442 0.083680473257 0.070020120414 0.056201667386 0.042258902107 0.028223449847 0.014126606594 
5.609225251e-16 
_area 1 100 double
0 0.00060140231138 0.0023883068289 0.0053069067302 0.0092626766472 0.014117475879 0.019691826931 0.025774495115 0.032138753133 
0.038562262519 0.044846233547 0.050829591771 0.056394909945 0.061464501222 0.065987486475 0.069922269197 0.073222574156 0.075835341895 
0.077712966077 0.078834352782 0.079225200991 0.078969533175 0.078209383386 0.077134374581 0.07596421097 0.074919468223 0.074190989939 
0.073947449238 0.074167101318 0.074862074825 0.076025222878 0.07762905331 0.079618821353 0.081896281836 0.084326833266 0.08679308717 
0.089120263384 0.091191896084 0.092904828888 0.094174022202 0.094956541074 0.09525142946 0.09511598949 0.094680775529 0.094157262297 
0.093832604803 0.094035969901 0.095074513917 0.097166427467 0.10039732178 0.10470952526 0.1099297492 0.11581953721 0.12212005442 
0.12857806504 0.13495669738 0.1410391001 0.14663120735 0.15156698444 0.15571549663 0.15898528384 0.16132265888 0.16270795914 
0.16315897752 0.16274348388 0.16159016615 0.15988588017 0.15785566934 0.1557293191 0.15370131875 0.15189317591 0.15032896575 
0.14893333653 0.14755308264 0.14599296574 0.14405183716 0.14154876269 0.1383362768 0.13430419619 0.12938038991 0.12353402055 
0.11678276441 0.10920066444 0.10092056192 0.092126126753 0.083032488754 0.073859131564 0.064802345544 0.056016070686 0.047607835 
0.03965002092 0.032199307818 0.025314603348 0.019067360418 0.013543471529 0.0088388896257 0.0050515449344 0.0022716411164 0.00057201380358 
8.9674480719e-17 
