# vtk DataFile Version 5.1
vtk output
ASCII
DATASET POLYDATA
POINTS 100 float
0.178125 -0.0435421 0.664806 0.178096 -0.0434918 0.66452 0.177917 -0.0434393 0.663807 
0.177555 -0.043378 0.662727 0.176954 -0.0432977 0.661364 0.176052 -0.0431861 0.659816 
0.17478 -0.0430298 0.65817 0.17308 -0.0428158 0.656487 0.170909 -0.0425332 0.654786 
0.168243 -0.0421737 0.653034 0.165084 -0.0417331 0.651143 0.161456 -0.0412106 0.648974 
0.157401 -0.0406093 0.646352 0.152977 -0.0399348 0.643083 0.148241 -0.0391939 0.638976 
0.143248 -0.038393 0.633864 0.138041 -0.0375363 0.62763 0.132642 -0.0366238 0.620214 
0.127055 -0.0356499 0.611626 0.12126 -0.0346031 0.601945 0.115223 -0.0334655 0.591305 
0.1089 -0.0322141 0.579883 0.102245 -0.0308225 0.567877 0.0952215 -0.0292641 0.555482 
0.0878087 -0.0275154 0.542868 0.0800087 -0.0255594 0.530158 0.0718488 -0.0233902 0.517424 
0.0633818 -0.0210157 0.504675 0.0546806 -0.0184602 0.491862 0.0458313 -0.0157655 0.478893 
0.036923 -0.0129904 0.465645 0.0280369 -0.0102091 0.451983 0.0192373 -0.0075067 0.437786 
0.0105628 -0.00497494 0.422953 0.0020231 -0.0027058 0.407426 -0.00640148 -0.000785181 0.391186 
-0.014755 0.000713339 0.374255 -0.023097 0.00173393 0.356688 -0.0314904 0.00224253 0.338558 
-0.0399876 0.00222905 0.31994 -0.0486165 0.00170748 0.300896 -0.057368 0.000713726 0.281461 
-0.0661879 -0.000698357 0.261633 -0.0749724 -0.00246263 0.241374 -0.0835699 -0.00450725 0.220612 
-0.0917885 -0.00676152 0.199252 -0.0994081 -0.00916221 0.177196 -0.106197 -0.0116587 0.154353 
-0.111928 -0.0142163 0.130665 -0.116403 -0.0168172 0.106118 -0.119461 -0.0194598 0.0807475 
-0.121 -0.0221544 0.0546482 -0.120979 -0.0249188 0.0279628 -0.119423 -0.0277714 0.000872481 
-0.116418 -0.0307243 -0.0264213 -0.112104 -0.0337767 -0.0537166 -0.10666 -0.0369096 -0.0808317 
-0.100287 -0.0400823 -0.107622 -0.093191 -0.0432306 -0.133993 -0.0855668 -0.0462684 -0.159901 
-0.0775844 -0.0490908 -0.185356 -0.0693785 -0.0515801 -0.210407 -0.0610433 -0.0536131 -0.235123 
-0.0526316 -0.0550684 -0.259579 -0.0441598 -0.055835 -0.283831 -0.035615 -0.0558192 -0.307899 
-0.0269658 -0.0549507 -0.331755 -0.0181735 -0.0531862 -0.35532 -0.00920352 -0.0505112 -0.378464 
-3.48013e-05 -0.0469401 -0.401019 0.00933317 -0.0425131 -0.422801 0.0188764 -0.0372934 -0.443627 
0.028546 -0.0313619 -0.463341 0.0382701 -0.0248124 -0.481832 0.0479591 -0.0177472 -0.499054 
0.0575121 -0.010273 -0.515025 0.0668236 -0.00249761 -0.529831 0.0757906 0.00547128 -0.543608 
0.0843189 0.0135275 -0.556526 0.0923269 0.0215663 -0.568763 0.0997495 0.0294844 -0.580475 
0.106538 0.0371801 -0.591774 0.112662 0.0445536 -0.602709 0.118105 0.0515088 -0.613252 
0.122867 0.0579555 -0.623304 0.126958 0.0638132 -0.632701 0.1304 0.0690149 -0.641238 
0.133224 0.0735117 -0.648699 0.135471 0.0772769 -0.654885 0.137188 0.0803091 -0.659651 
0.138431 0.0826339 -0.66293 0.139263 0.0843038 -0.664752 0.139755 0.0853955 -0.665248 
0.139978 0.0860056 -0.664648 0.140007 0.0862435 -0.663259 0.139917 0.0862235 -0.661434 
0.139773 0.0860558 -0.659541 0.139632 0.0858376 -0.657917 0.13954 0.0856447 -0.656836 
0.139522 0.0855255 -0.656473 
LINES 2 100
OFFSETS vtktypeint64
0 100 
CONNECTIVITY vtktypeint64
0 1 2 3 4 5 6 7 8 
9 10 11 12 13 14 15 16 17 
18 19 20 21 22 23 24 25 26 
27 28 29 30 31 32 33 34 35 
36 37 38 39 40 41 42 43 44 
45 46 47 48 49 50 51 52 53 
54 55 56 57 58 59 60 61 62 
63 64 65 66 67 68 69 70 71 
72 73 74 75 76 77 78 79 80 
81 82 83 84 85 86 87 88 89 
90 91 92 93 94 95 96 97 98 
99 
POINT_DATA 100
FIELD FieldData 3
_theta 1 100 double
0 0.031733259127 0.063466518254 0.095199777382 0.12693303651 0.15866629564 0.19039955476 0.22213281389 0.25386607302 
0.28559933214 0.31733259127 0.3490658504 0.38079910953 0.41253236865 0.44426562778 0.47599888691 0.50773214603 0.53946540516 
0.57119866429 0.60293192342 0.63466518254 0.66639844167 0.6981317008 0.72986495992 0.76159821905 0.79333147818 0.82506473731 
0.85679799643 0.88853125556 0.92026451469 0.95199777382 0.98373103294 1.0154642921 1.0471975512 1.0789308103 1.1106640695 
1.1423973286 1.1741305877 1.2058638468 1.237597106 1.2693303651 1.3010636242 1.3327968833 1.3645301425 1.3962634016 
1.4279966607 1.4597299198 1.491463179 1.5231964381 1.5549296972 1.5866629564 1.6183962155 1.6501294746 1.6818627337 
1.7135959929 1.745329252 1.7770625111 1.8087957702 1.8405290294 1.8722622885 1.9039955476 1.9357288068 1.9674620659 
1.999195325 2.0309285841 2.0626618433 2.0943951024 2.1261283615 2.1578616206 2.1895948798 2.2213281389 2.253061398 
2.2847946572 2.3165279163 2.3482611754 2.3799944345 2.4117276937 2.4434609528 2.4751942119 2.506927471 2.5386607302 
2.5703939893 2.6021272484 2.6338605076 2.6655937667 2.6973270258 2.7290602849 2.7607935441 2.7925268032 2.8242600623 
2.8559933214 2.8877265806 2.9194598397 2.9511930988 2.982926358 3.0146596171 3.0463928762 3.0781261353 3.1098593945 
3.1415926536 
_radius 1 100 double
4.8039000363e-16 0.014089850197 0.028260798129 0.042579127549 0.057078675136 0.071750252475 0.086537004372 0.10133585633 0.11600406174 
0.13036912446 0.14424040857 0.15742154487 0.16972366824 0.18097965346 0.19105859395 0.19987857415 0.20741531899 0.21370481746 
0.2188390985 0.22295551337 0.22622091645 0.22881296475 0.23090130118 0.23263150189 0.23411418715 0.23542058476 0.23658434252 
0.23760801592 0.23847191446 0.23914307246 0.23958279956 0.23975212295 0.23961509966 0.2391403372 0.23830118929 0.23707511507 
0.2354426991 0.23338688203 0.23089304705 0.2279506527 0.22455692391 0.22072257331 0.21647868663 0.21188307527 0.20702397718 
0.20201925503 0.19701022432 0.19215069038 0.18759319586 0.18347531795 0.1799087529 0.17697291949 0.1747132324 0.17314253593 
0.17224309571 0.17196669916 0.17223214733 0.17292230608 0.17388540744 0.1749451194 0.17591996796 0.17664764054 0.17700766642 
0.17693753172 0.17643976812 0.17557930519 0.17447178199 0.17326511376 0.17211790966 0.17117829514 0.1705652905 0.17035367596 
0.17056337618 0.17115508712 0.17203371157 0.17305966209 0.17406592399 0.17487716935 0.17532699946 0.17527049442 0.17459090709 
0.17320075438 0.17103840063 0.16806165141 0.16424011751 0.15954817468 0.1539600792 0.14744816355 0.13998421617 0.1315434391 
0.12210996939 0.11168284703 0.10028139287 0.08794913577 0.074755724476 0.060796745298 0.046191931801 0.031082468922 0.015627602657 
3.3480754107e-16 
_area 1 100 double
0 0.00046327527615 0.0018608189185 0.0042129274273 0.0075447019984 0.01187564507 0.017209862218 0.02352975855 0.030793877965 
0.03893586378 0.047859041331 0.057423784361 0.067432995644 0.077627648532 0.087701634995 0.097335174341 0.10623758131 0.11418784502 
0.12106349249 0.12685178811 0.13164127181 0.13559566042 0.13891585729 0.14179861088 0.14440140139 0.14682146019 0.14909210016 
0.15119344645 0.15307072861 0.15465366283 0.15587361396 0.15667807534 0.15704282259 0.15698070771 0.15654131446 0.15578330448 
0.15470296299 0.1531900619 0.15108030182 0.14822274406 0.14452026772 0.13995637866 0.13461112547 0.12866185455 0.12236609444 
0.11602715837 0.10994556877 0.10436327242 0.099419187597 0.095145905554 0.091540591992 0.088855629028 0.086807098228 0.085121642177 
0.083709133864 0.082533863567 0.081575895582 0.080786238853 0.080058187332 0.079245194418 0.078207674504 0.076847748378 0.075121860643 
0.073041557643 0.07066957078 0.068111715307 0.065502189336 0.062981303587 0.060687410103 0.058781816318 0.057464617258 0.05692980874 
0.057188478948 0.058079777878 0.059471327386 0.061246916327 0.063281911158 0.065489147284 0.067694653243 0.069644130176 0.071200369896 
0.072260659251 0.072689072052 0.072308719913 0.070935565509 0.068424689991 0.06471026642 0.059829460779 0.05392698482 0.047242167417 
0.040083366701 0.032795194028 0.025723270508 0.019180382125 0.013417925355 0.0086078009926 0.0048415343191 0.0021504508258 0.00053741007462 
5.9740795636e-17 
