# vtk DataFile Version 5.1
vtk output
ASCII
DATASET POLYDATA
POINTS 100 float
0.154597 0.0302849 -0.606137 0.154262 0.0302585 -0.60621 0.153353 0.0300454 -0.60646 
0.151926 0.029657 -0.606788 0.150066 0.0291087 -0.607045 0.147872 0.0284159 -0.607039 
0.145444 0.0275889 -0.606561 0.142867 0.0266287 -0.605403 0.140197 0.0255231 -0.60338 
0.137453 0.024245 -0.600341 0.134612 0.0227525 -0.596189 0.131608 0.0209918 -0.590878 
0.128341 0.0189019 -0.584417 0.124689 0.0164214 -0.576862 0.120521 0.0134962 -0.568302 
0.115716 0.0100875 -0.558845 0.110183 0.00617863 -0.5486 0.103865 0.00178064 -0.537668 
0.0967593 -0.00306473 -0.52612 0.0889137 -0.0082849 -0.513999 0.0804261 -0.0137792 -0.501309 
0.0714351 -0.0194242 -0.488023 0.062106 -0.0250814 -0.474088 0.0526139 -0.030606 -0.459434 
0.0431252 -0.035856 -0.443987 0.0337804 -0.0407012 -0.42768 0.0246811 -0.04503 -0.410466 
0.0158806 -0.0487553 -0.392321 0.0073826 -0.0518167 -0.373251 -0.000854693 -0.0541809 -0.353292 
-0.00890796 -0.0558402 -0.332504 -0.0168731 -0.0568083 -0.310967 -0.0248469 -0.0571159 -0.288772 
-0.0329073 -0.0568052 -0.266012 -0.0410964 -0.0559247 -0.242775 -0.0494063 -0.054526 -0.219142 
-0.0577712 -0.05266 -0.19518 -0.066066 -0.0503761 -0.170947 -0.0741122 -0.0477219 -0.146493 
-0.08169 -0.0447441 -0.121862 -0.0885563 -0.0414899 -0.0971066 -0.0944653 -0.0380091 -0.0722834 
-0.0991911 -0.0343548 -0.0474635 -0.102548 -0.0305847 -0.0227317 -0.10441 -0.0267604 0.00181449 
-0.104719 -0.0229464 0.026069 -0.103495 -0.0192083 0.0499233 -0.100831 -0.0156099 0.0732749 
-0.0968868 -0.0122111 0.0960352 -0.0918757 -0.00906497 0.118137 -0.0860445 -0.00621671 0.139542 
-0.0796539 -0.00370222 0.16024 -0.0729584 -0.00154829 0.18025 -0.0661869 0.000226634 0.199619 
-0.0595279 0.00161115 0.218409 -0.0531194 0.00259934 0.236694 -0.0470437 0.00318948 0.254547 
-0.0413287 0.00338321 0.272034 -0.0359536 0.00318561 0.289201 -0.0308592 0.00260609 0.306076 
-0.0259607 0.00166015 0.322666 -0.0211618 0.000371519 0.338956 -0.0163684 -0.00122552 0.354918 
-0.0115008 -0.0030844 0.370519 -0.00650313 -0.00514555 0.385725 -0.00134924 -0.00733716 0.400515 
0.00395479 -0.00957769 0.414882 0.009372 -0.0117803 0.428842 0.0148388 -0.0138584 0.442427 
0.0202715 -0.0157331 0.455691 0.0255744 -0.0173397 0.468693 0.0306486 -0.0186348 0.481498 
0.0353998 -0.0196007 0.49416 0.0397459 -0.0202486 0.506715 0.0436223 -0.0206178 0.519174 
0.0469857 -0.0207728 0.531515 0.0498161 -0.0207966 0.543688 0.0521166 -0.0207817 0.555612 
0.0539113 -0.0208198 0.567184 0.0552428 -0.020991 0.578291 0.0561684 -0.0213539 0.58882 
0.0567551 -0.0219375 0.598671 0.0570757 -0.0227369 0.607766 0.0572039 -0.0237128 0.61606 
0.0572105 -0.0247945 0.623543 0.0571598 -0.025888 0.63024 0.0571068 -0.0268864 0.636207 
0.0570949 -0.0276824 0.641523 0.0571547 -0.028182 0.646279 0.0573033 -0.0283164 0.650567 
0.0575448 -0.0280519 0.654466 0.0578711 -0.0273955 0.658037 0.0582637 -0.0263963 0.661312 
0.0586961 -0.0251419 0.664296 0.0591364 -0.0237505 0.666966 0.0595506 -0.0223581 0.66928 
0.0599056 -0.0211051 0.671179 0.0601722 -0.0201207 0.672607 0.0603278 -0.0195089 0.67351 
0.0603581 -0.019337 0.673855 
LINES 2 100
OFFSETS vtktypeint64
0 100 
CONNECTIVITY vtktypeint64
0 1 2 3 4 5 6 7 8 
9 10 11 12 13 14 15 16 17 
18 19 20 21 22 23 24 25 26 
27 28 29 30 31 32 33 34 35 
36 37 38 39 40 41 42 43 44 
45 46 47 48 49 50 51 52 53 
54 55 56 57 58 59 60 61 62 
63 64 65 66 67 68 69 70 71 
72 73 74 75 76 77 78 79 80 
81 82 83 84 85 86 87 88 89 
90 91 92 93 94 95 96 97 98 
99 
POINT_DATA 100
FIELD FieldData 3
_theta 1 100 double
0 0.031733259127 0.063466518254 0.095199777382 0.12693303651 0.15866629564 0.19039955476 0.22213281389 0.25386607302 
0.28559933214 0.31733259127 0.3490658504 0.38079910953 0.41253236865 0.44426562778 0.47599888691 0.50773214603 0.53946540516 
0.57119866429 0.60293192342 0.63466518254 0.66639844167 0.6981317008 0.72986495992 0.76159821905 0.79333147818 0.82506473731 
0.85679799643 0.88853125556 0.92026451469 0.95199777382 0.98373103294 1.0154642921 1.0471975512 1.0789308103 1.1106640695 
1.1423973286 1.1741305877 1.2058638468 1.237597106 1.2693303651 1.3010636242 1.3327968833 1.3645301425 1.3962634016 
1.4279966607 1.4597299198 1.491463179 1.5231964381 1.5549296972 1.5866629564 1.6183962155 1.6501294746 1.6818627337 
1.7135959929 1.745329252 1.7770625111 1.8087957702 1.8405290294 1.8722622885 1.9039955476 1.9357288068 1.9674620659 
1.999195325 2.0309285841 2.0626618433 2.0943951024 2.1261283615 2.1578616206 2.1895948798 2.2213281389 2.253061398 
2.2847946572 2.3165279163 2.3482611754 2.3799944345 2.4117276937 2.4434609528 2.4751942119 2.506927471 2.5386607302 
2.5703939893 2.6021272484 2.6338605076 2.6655937667 2.6973270258 2.7290602849 2.7607935441 2.7925268032 2.8242600623 
2.8559933214 2.8877265806 2.9194598397 2.9511930988 2.982926358 3.0146596171 3.0463928762 3.0781261353 3.1098593945 
3.1415926536 
_radius 1 100 double
3.409426773e-16 0.017087241407 0.033945649835 0.050361454374 0.06615634991 0.081195618604 0.095387546439 0.10867531518 0.1210244822 
0.13241004786 0.1428066864 0.15218424701 0.16050877931 0.16774779483 0.17387766043 0.17889098847 0.18280244737 0.18565225011 
0.18750734767 0.18846077403 0.18862953639 0.18815104656 0.18717770953 0.18586932644 0.18438358237 0.18286578113 0.18143953413 
0.18019977943 0.17920839529 0.17849167961 0.17803917924 0.17780482247 0.17771262592 0.17766888151 0.17758061543 0.1773774515 
0.17703198657 0.17657305016 0.17608723468 0.17570715806 0.17558949654 0.17588987061 0.17674261264 0.17825027217 0.18048211101 
0.18347635051 0.18724046209 0.19174713786 0.19692771635 0.20266703457 0.20880363576 0.21513793693 0.2214487919 0.22751621432 
0.23314584754 0.23819005164 0.24256134902 0.24623590056 0.2492469923 0.25167059544 0.25360645996 0.25515865343 0.25641894704 
0.25745520691 0.2583054182 0.25897670131 0.25944805762 0.25967559945 0.25959936085 0.25915111359 0.25826273179 0.25687450185 
0.2549424294 0.25244326457 0.24937595707 0.24575877071 0.24162225806 0.23699938484 0.23191489266 0.22637623101 0.22036804807 
0.21385147523 0.20676850452 0.19905082163 0.19063162022 0.18145828352 0.17150352655 0.16077280005 0.14930650867 0.13717674078 
0.12447941908 0.11132368183 0.097820634865 0.084073367338 0.070169521391 0.056177027481 0.042143027732 0.028095551567 0.014047200201 
4.3560476322e-16 
_area 1 100 double
0 0.00057678755821 0.0022930638387 0.0051093870539 0.0089668643353 0.013790388137 0.019484939246 0.025926071602 0.032950241627 
0.040350595559 0.047880591165 0.055264934853 0.062216186734 0.068455501168 0.073736303602 0.077869362979 0.080746431275 0.082358023279 
0.08280012055 0.082265364805 0.081016549051 0.079343462527 0.077510595991 0.075719627027 0.074086191726 0.07266450473 0.071517769428 
0.070708744895 0.070297720547 0.070346496965 0.070885801264 0.071887412467 0.073255989128 0.074840237528 0.076464164588 0.077977692156 
0.079306349229 0.080474220609 0.081586963091 0.082777049063 0.084131569384 0.085648812982 0.087268739911 0.08895719127 0.090782227896 
0.092937943176 0.095689001638 0.099284030642 0.10389806242 0.10959580905 0.11630843787 0.12382190384 0.13179394534 0.13980555556 
0.14742648206 0.15427831701 0.1600854658 0.16470547883 0.16813567073 0.17051314633 0.17255724981 0.17471009558 0.17643304357 
0.17765828328 0.17835816928 0.17853980789 0.1782267162 0.17744625012 0.17621737662 0.17453740114 0.17236985234 0.1696454427 
0.16628768298 0.16225121274 0.15754670746 0.15224059583 0.14643474789 0.14023667635 0.13373051187 0.12695770472 0.1199135561 
0.1125600861 0.10484974093 0.096751872729 0.088275038609 0.079480485789 0.0704843247 0.061448067681 0.052559788885 0.044010760511 
0.035973925512 0.028589708448 0.021961339766 0.016158004514 0.011222049593 0.0071766685255 0.0040320364173 0.0017898120109 0.00044704936449 
1.3023926067e-17 
