# vtk DataFile Version 5.1
vtk output
ASCII
DATASET POLYDATA
POINTS 100 float
0.149672 0.0730958 -0.630698 0.149633 0.0730131 -0.63087 0.149476 0.0725902 -0.631312 
0.149187 0.0718344 -0.631905 0.148744 0.0707552 -0.632468 0.148117 0.0693617 -0.632777 
0.147264 0.0676578 -0.632589 0.146138 0.0656391 -0.63167 0.144682 0.0632894 -0.629815 
0.142833 0.0605797 -0.626874 0.140524 0.0574684 -0.622759 0.137687 0.0539049 -0.61745 
0.134256 0.0498334 -0.610993 0.130176 0.0452005 -0.603484 0.1254 0.0399621 -0.595058 
0.119901 0.0340916 -0.585863 0.113677 0.0275873 -0.57604 0.106749 0.0204778 -0.565708 
0.0991687 0.012826 -0.554945 0.0910182 0.00472973 -0.543787 0.0824065 -0.00368042 -0.532222 
0.0734659 -0.0122457 -0.520198 0.0643452 -0.0207869 -0.507636 0.0552001 -0.0291132 -0.494446 
0.0461826 -0.0370326 -0.480541 0.0374295 -0.0443623 -0.465855 0.029051 -0.0509381 -0.45035 
0.0211212 -0.0566225 -0.434029 0.0136706 -0.0613111 -0.41693 0.00668318 -0.0649358 -0.399124 
9.67144e-05 -0.067466 -0.380703 -0.00619145 -0.0689078 -0.361766 -0.0123145 -0.0693009 -0.342405 
-0.0184224 -0.0687134 -0.322689 -0.0246651 -0.0672373 -0.302655 -0.031175 -0.0649821 -0.282302 
-0.0380491 -0.0620693 -0.261591 -0.0453345 -0.0586274 -0.24045 -0.0530167 -0.0547869 -0.218787 
-0.0610142 -0.0506771 -0.196506 -0.0691787 -0.0464225 -0.173518 -0.0773025 -0.0421405 -0.149766 
-0.0851311 -0.037939 -0.125231 -0.0923815 -0.0339146 -0.099944 -0.0987645 -0.0301503 -0.0739886 
-0.104007 -0.0267146 -0.0474989 -0.107875 -0.023659 -0.0206502 -0.110192 -0.0210174 0.006354 
-0.110855 -0.0188051 0.0332976 -0.10984 -0.017019 0.059969 -0.107206 -0.0156387 0.086176 
-0.103086 -0.0146281 0.111759 -0.097674 -0.0139389 0.136597 -0.0912085 -0.0135138 0.160614 
-0.0839503 -0.0132913 0.183775 -0.07616 -0.0132099 0.206079 -0.0680775 -0.013213 0.227553 
-0.0599039 -0.0132521 0.248239 -0.05179 -0.0132898 0.268186 -0.043829 -0.0133016 0.287443 
-0.0360573 -0.013276 0.306047 -0.0284608 -0.0132136 0.324032 -0.0209859 -0.0131253 0.341418 
-0.0135541 -0.0130292 0.358223 -0.00607874 -0.0129476 0.374466 0.00152026 -0.012904 0.390169 
0.00930252 -0.0129205 0.405366 0.0172981 -0.0130155 0.4201 0.0255026 -0.0132032 0.434423 
0.0338778 -0.013493 0.448393 0.0423563 -0.0138899 0.462066 0.0508503 -0.014396 0.475488 
0.0592626 -0.0150114 0.488687 0.0674979 -0.0157348 0.501664 0.0754741 -0.0165645 0.514393 
0.0831302 -0.0174975 0.526815 0.0904318 -0.018529 0.538849 0.0973718 -0.0196503 0.550394 
0.103968 -0.0208469 0.561345 0.110259 -0.0220965 0.571607 0.11629 -0.023367 0.581107 
0.122111 -0.0246164 0.589807 0.127764 -0.0257926 0.597715 0.133273 -0.0268364 0.604885 
0.138646 -0.0276844 0.611415 0.143865 -0.0282742 0.61744 0.148895 -0.0285505 0.623115 
0.153684 -0.0284712 0.628597 0.158172 -0.0280131 0.634027 0.162298 -0.0271773 0.639507 
0.166009 -0.0259915 0.64509 0.169266 -0.0245113 0.650763 0.172047 -0.0228176 0.65645 
0.174352 -0.0210126 0.662012 0.176198 -0.0192126 0.667264 0.177617 -0.0175391 0.67199 
0.178652 -0.0161096 0.675966 0.179344 -0.0150273 0.678987 0.17973 -0.0143728 0.680887 
0.179835 -0.0141965 0.681557 
LINES 2 100
OFFSETS vtktypeint64
0 100 
CONNECTIVITY vtktypeint64
0 1 2 3 4 5 6 7 8 
9 10 11 12 13 14 15 16 17 
18 19 20 21 22 23 24 25 26 
27 28 29 30 31 32 33 34 35 
36 37 38 39 40 41 42 43 44 
45 46 47 48 49 50 51 52 53 
54 55 56 57 58 59 60 61 62 
63 64 65 66 67 68 69 70 71 
72 73 74 75 76 77 78 79 80 
81 82 83 84 85 86 87 88 89 
90 91 92 93 94 95 96 97 98 
99 
POINT_DATA 100
FIELD FieldData 3
_theta 1 100 double
0 0.031733259127 0.063466518254 0.095199777382 0.12693303651 0.15866629564 0.19039955476 0.22213281389 0.25386607302 
0.28559933214 0.31733259127 0.3490658504 0.38079910953 0.41253236865 0.44426562778 0.47599888691 0.50773214603 0.53946540516 
0.57119866429 0.60293192342 0.63466518254 0.66639844167 0.6981317008 0.72986495992 0.76159821905 0.79333147818 0.82506473731 
0.85679799643 0.88853125556 0.92026451469 0.95199777382 0.98373103294 1.0154642921 1.0471975512 1.0789308103 1.1106640695 
1.1423973286 1.1741305877 1.2058638468 1.237597106 1.2693303651 1.3010636242 1.3327968833 1.3645301425 1.3962634016 
1.4279966607 1.4597299198 1.491463179 1.5231964381 1.5549296972 1.5866629564 1.6183962155 1.6501294746 1.6818627337 
1.7135959929 1.745329252 1.7770625111 1.8087957702 1.8405290294 1.8722622885 1.9039955476 1.9357288068 1.9674620659 
1.999195325 2.0309285841 2.0626618433 2.0943951024 2.1261283615 2.1578616206 2.1895948798 2.2213281389 2.253061398 
2.2847946572 2.3165279163 2.3482611754 2.3799944345 2.4117276937 2.4434609528 2.4751942119 2.506927471 2.5386607302 
2.5703939893 2.6021272484 2.6338605076 2.6655937667 2.6973270258 2.7290602849 2.7607935441 2.7925268032 2.8242600623 
2.8559933214 2.8877265806 2.9194598397 2.9511930988 2.982926358 3.0146596171 3.0463928762 3.0781261353 3.1098593945 
3.1415926536 
_radius 1 100 double
1.0322872847e-15 0.016517123677 0.032962586058 0.049257271522 0.0653081125 0.081003464738 0.096211355245 0.11078108427 0.12454823983 
0.13734275486 0.14899927248 0.15936883 0.1683307433 0.17580356274 0.18175406201 0.18620339157 0.18922975989 0.19096727702 
0.19160088726 0.19135761119 0.19049459712 0.18928472489 0.1880006766 0.18689844554 0.1862011949 0.18608429171 0.18666240117 
0.18797984763 0.19000587084 0.19263644037 0.19570348749 0.19899094721 0.20225562366 0.20525020162 0.20774579221 0.20955198591 
0.2105331632 0.21062038878 0.20981837073 0.2082069082 0.20593639616 0.20321748041 0.20030572046 0.19748286044 0.19503674671 
0.19324179117 0.19234105655 0.19252988872 0.193940445 0.19662737358 0.20055710367 0.20560490928 0.21156305907 0.2181600309 
0.22508734278 0.23202912543 0.23869012398 0.24481915945 0.25022629992 0.25479285467 0.25847392294 0.26129375851 0.26333475844 
0.264721468 0.26560153802 0.26612592217 0.26643060452 0.26662174628 0.26676543274 0.26688239697 0.26694741416 0.26689264445 
0.26661408813 0.26598042182 0.26484363213 0.26305086723 0.2604567231 0.25693489087 0.25238793617 0.24675412142 0.24001061163 
0.23217298239 0.22329148788 0.21344490472 0.20273289358 0.19126776612 0.1791664186 0.16654308826 0.15350351267 0.14014093928 
0.12653414939 0.11274726665 0.098830805038 0.08482335129 0.070753455729 0.056641544598 0.042501801433 0.028343963409 0.014174920881 
4.3700666261e-16 
_area 1 100 double
0 0.00064447909699 0.0025733865124 0.0057695630267 0.010193624443 0.015771154433 0.022380181371 0.02984240466 0.03792130505 
0.046329501464 0.054746098241 0.062842365886 0.070311622699 0.076897571826 0.082415347923 0.08676142805 0.089911921094 0.091912274654 
0.092863453252 0.09290920189 0.092226718022 0.091020622935 0.089519114396 0.08797376295 0.086685723641 0.086034804744 0.086133544913 
0.087013324025 0.088669271408 0.09098076787 0.093768990281 0.096772540662 0.099699195414 0.1022773332 0.1042803009 0.10555890426 
0.10606965923 0.10588522269 0.10519281331 0.10422572049 0.1031856827 0.10218403703 0.10126442136 0.1005235051 0.10005921826 
0.10010447059 0.1008349238 0.10244057157 0.10504847322 0.1087693431 0.11368332389 0.11980937797 0.12706973479 0.13526550207 
0.14407562509 0.15308288448 0.16182202846 0.16983975891 0.17675382138 0.18229893452 0.18635168077 0.18893345884 0.19019618022 
0.19039553714 0.18984918722 0.18886895721 0.18768087159 0.18639595234 0.18504586027 0.18361968049 0.18207364359 0.18032896228 
0.1782712609 0.17575469546 0.17261157164 0.16867035048 0.16378258866 0.15785190033 0.15085413587 0.14284152319 0.13393051674 
0.12428000458 0.11407090639 0.10349550369 0.092754955799 0.08205613232 0.071601686762 0.061575085045 0.052126579155 0.043365178362 
0.035358562141 0.028140160196 0.021720938034 0.016102599521 0.011288896884 0.0072925375976 0.0041365780993 0.0018507758627 0.0004646847741 
9.8023692365e-17 
