# vtk DataFile Version 5.1
vtk output
ASCII
DATASET POLYDATA
POINTS 100 float
0.26525 0.0885386 -0.706468 0.264727 0.0885261 -0.706361 0.263209 0.0882987 -0.706055 
0.260735 0.0878234 -0.705488 0.257368 0.0870492 -0.70456 0.253184 0.0859114 -0.703149 
0.248273 0.0843382 -0.701123 0.242724 0.0822571 -0.698357 0.23662 0.0796024 -0.694743 
0.230034 0.0763213 -0.690207 0.223022 0.0723789 -0.68471 0.215617 0.067762 -0.678254 
0.207834 0.0624806 -0.670877 0.199669 0.0565682 -0.662648 0.191104 0.0500793 -0.653653 
0.182112 0.0430868 -0.643987 0.172666 0.0356775 -0.633735 0.162745 0.0279476 -0.622964 
0.15234 0.019998 -0.611714 0.141462 0.0119307 -0.599993 0.130143 0.00384534 -0.587777 
0.118436 -0.00416276 -0.575013 0.106417 -0.0120035 -0.561629 0.0941739 -0.0195924 -0.547543 
0.0818048 -0.0268494 -0.532677 0.0694078 -0.0336985 -0.516965 0.0570731 -0.0400666 -0.500364 
0.0448754 -0.0458828 -0.482858 0.0328684 -0.0510789 -0.464463 0.0210819 -0.05559 -0.44522 
0.0095221 -0.0593566 -0.425194 -0.0018242 -0.0623271 -0.404459 -0.0129825 -0.064461 -0.383095 
-0.0239811 -0.0657323 -0.361171 -0.0348394 -0.0661323 -0.33874 -0.0455567 -0.0656725 -0.315833 
-0.0561025 -0.0643859 -0.292453 -0.0664087 -0.0623276 -0.268583 -0.0763661 -0.0595735 -0.244189 
-0.0858262 -0.056218 -0.21923 -0.0946072 -0.0523704 -0.193669 -0.102505 -0.0481504 -0.167484 
-0.109309 -0.0436823 -0.140683 -0.114818 -0.0390903 -0.113307 -0.118861 -0.0344926 -0.0854411 
-0.12131 -0.0299974 -0.0572074 -0.122099 -0.0256987 -0.0287662 -0.121231 -0.021674 -0.000304766 
-0.118781 -0.0179835 0.0279747 -0.114894 -0.0146695 0.055869 -0.109775 -0.0117582 0.0831891 
-0.103675 -0.00926121 0.109774 -0.0968705 -0.00717885 0.135501 -0.0896437 -0.00550266 0.160293 
-0.0822602 -0.00421859 0.184123 -0.0749502 -0.00330957 0.20701 -0.0678939 -0.00275764 0.229014 
-0.0612119 -0.00254544 0.250225 -0.0549628 -0.00265698 0.270753 -0.0491466 -0.00307769 0.290715 
-0.0437149 -0.00379399 0.31022 -0.0385854 -0.00479231 0.329363 -0.0336589 -0.00605797 0.348217 
-0.0288372 -0.00757393 0.366825 -0.0240399 -0.00931977 0.385208 -0.0192167 -0.0112708 0.403359 
-0.0143557 -0.0133979 0.421259 -0.00948558 -0.0156672 0.438877 -0.00467211 -0.0180413 0.456179 
-9.11227e-06 -0.0204799 0.473141 0.00439397 -0.0229415 0.489747 0.00842679 -0.0253852 0.506001 
0.0119929 -0.027773 0.521917 0.0150225 -0.0300716 0.537526 0.0174817 -0.0322547 0.552866 
0.0193767 -0.0343044 0.567979 0.0207531 -0.0362129 0.582901 0.021689 -0.037983 0.597653 
0.0222852 -0.0396282 0.612242 0.0226515 -0.0411723 0.626647 0.0228924 -0.0426477 0.640826 
0.0230933 -0.0440935 0.654711 0.0233107 -0.0455525 0.668211 0.0235652 -0.0470683 0.681223 
0.0238407 -0.0486811 0.693633 0.0240885 -0.0504246 0.705329 0.0242365 -0.0523223 0.716208 
0.0242012 -0.0543845 0.726181 0.0239032 -0.0566064 0.735183 0.0232807 -0.0589665 0.743177 
0.0223025 -0.061427 0.750153 0.0209766 -0.0639347 0.75613 0.0193535 -0.0664236 0.761152 
0.0175243 -0.0688183 0.765284 0.0156135 -0.0710385 0.768602 0.013766 -0.0730043 0.77119 
0.0121325 -0.0746407 0.773129 0.0108526 -0.0758834 0.774491 0.0100388 -0.0766826 0.77533 
0.00976386 -0.0770068 0.775681 
LINES 2 100
OFFSETS vtktypeint64
0 100 
CONNECTIVITY vtktypeint64
0 1 2 3 4 5 6 7 8 
9 10 11 12 13 14 15 16 17 
18 19 20 21 22 23 24 25 26 
27 28 29 30 31 32 33 34 35 
36 37 38 39 40 41 42 43 44 
45 46 47 48 49 50 51 52 53 
54 55 56 57 58 59 60 61 62 
63 64 65 66 67 68 69 70 71 
72 73 74 75 76 77 78 79 80 
81 82 83 84 85 86 87 88 89 
90 91 92 93 94 95 96 97 98 
99 
POINT_DATA 100
FIELD FieldData 3
_theta 1 100 double
0 0.031733259127 0.063466518254 0.095199777382 0.12693303651 0.15866629564 0.19039955476 0.22213281389 0.25386607302 
0.28559933214 0.31733259127 0.3490658504 0.38079910953 0.41253236865 0.44426562778 0.47599888691 0.50773214603 0.53946540516 
0.57119866429 0.60293192342 0.63466518254 0.66639844167 0.6981317008 0.72986495992 0.76159821905 0.79333147818 0.82506473731 
0.85679799643 0.88853125556 0.92026451469 0.95199777382 0.98373103294 1.0154642921 1.0471975512 1.0789308103 1.1106640695 
1.1423973286 1.1741305877 1.2058638468 1.237597106 1.2693303651 1.3010636242 1.3327968833 1.3645301425 1.3962634016 
1.4279966607 1.4597299198 1.491463179 1.5231964381 1.5549296972 1.5866629564 1.6183962155 1.6501294746 1.6818627337 
1.7135959929 1.745329252 1.7770625111 1.8087957702 1.8405290294 1.8722622885 1.9039955476 1.9357288068 1.9674620659 
1.999195325 2.0309285841 2.0626618433 2.0943951024 2.1261283615 2.1578616206 2.1895948798 2.2213281389 2.253061398 
2.2847946572 2.3165279163 2.3482611754 2.3799944345 2.4117276937 2.4434609528 2.4751942119 2.506927471 2.5386607302 
2.5703939893 2.6021272484 2.6338605076 2.6655937667 2.6973270258 2.7290602849 2.7607935441 2.7925268032 2.8242600623 
2.8559933214 2.8877265806 2.9194598397 2.9511930988 2.982926358 3.0146596171 3.0463928762 3.0781261353 3.1098593945 
3.1415926536 
_radius 1 100 double
5.7152228178e-16 0.017627880383 0.035025983341 0.051972150285 0.068267434493 0.083746781163 0.098287515278 0.11181400674 0.12429712385 
0.13574792765 0.1462062738 0.15572620241 0.16436082633 0.17214960874 0.17911041409 0.18523771233 0.1905071142 0.19488527162 
0.19834325472 0.20087091912 0.20248959769 0.20326074483 0.20328889149 0.20271827189 0.20172351211 0.20049559881 0.19922488118 
0.19808316226 0.19720711576 0.19668531741 0.1965509422 0.19678146827 0.19730557227 0.19801616235 0.19878776733 0.19949658295 
0.20004157547 0.20036377633 0.20045886626 0.20037830322 0.2002179626 0.20009832501 0.20014344136 0.20046556248 0.20115888803 
0.20230127563 0.20395915095 0.20618978238 0.20903699289 0.21252046328 0.21662289404 0.22128101075 0.22638487717 0.23178655945 
0.23731599934 0.24280029509 0.24808240611 0.25303586031 0.25757290051 0.26164476027 0.26523455069 0.26834517897 0.27098594087 
0.2731612544 0.27486361148 0.2760711382 0.2767490106 0.27685355387 0.27633789015 0.27515820597 0.27327993559 0.27068332037 
0.26736783486 0.26335485524 0.25868780392 0.25342907377 0.24765352237 0.24143921757 0.23485709896 0.22796181937 0.22078586872 
0.21333812208 0.20560655817 0.1975636525 0.18917236861 0.18039093654 0.17117552859 0.16148110056 0.15126160049 0.14047109244 
0.12906693065 0.11701510647 0.10429678132 0.090914395034 0.076895861436 0.062296041083 0.047195487768 0.031697044263 0.015921072389 
5.8420511477e-16 
_area 1 100 double
0 0.00070307191555 0.002810568032 0.0063047632806 0.011122282546 0.017126079714 0.024096007057 0.031743370772 0.039742909145 
0.047770191911 0.055533908036 0.062797490191 0.06938922273 0.075202259682 0.080186290319 0.084333114302 0.08766020829 0.090197566739 
0.091981312925 0.093053738705 0.093466726677 0.093285730344 0.092594496336 0.091511511684 0.090312121025 0.089178024518 0.088114995879 
0.087153844172 0.086352194189 0.085767788131 0.085459172281 0.085430945385 0.085694559446 0.08626321221 0.087141905031 0.088341598905 
0.089896687884 0.091847158907 0.09422911333 0.09705047425 0.10023504177 0.10357473792 0.10681342283 0.10972065981 0.11214103629 
0.11403746991 0.11552041802 0.11686354674 0.11849781759 0.12094029472 0.12457891166 0.12948751512 0.13550604982 0.1423553251 
0.14968402917 0.15709071304 0.16416643929 0.17056259151 0.17604297666 0.18050037071 0.1839511385 0.1865587149 0.18883386716 
0.19072278878 0.19199724329 0.19252658841 0.19222085273 0.19105686562 0.18906615876 0.18632000722 0.18290607637 0.1788933939 
0.17430910852 0.16915412778 0.16344062621 0.15721594629 0.15056351385 0.14358845539 0.13639703163 0.12907775003 0.12169037362 
0.11426566462 0.1068139992 0.099337159439 0.091836851676 0.084316380976 0.076776800067 0.069212762264 0.061613885984 0.053974642165 
0.046311417337 0.038681486962 0.031196751375 0.02402627926 0.017385600537 0.011515302 0.0066545297458 0.0030154170915 0.00076268131731 
2.3693071132e-17 
