# vtk DataFile Version 5.1
vtk output
ASCII
DATASET POLYDATA
POINTS 100 float
-0.0445771 -0.0342376 0.728289 -0.0444445 -0.0342132 0.727956 -0.0440812 -0.0342889 0.727139 
-0.0435066 -0.0344196 0.725823 -0.0427517 -0.0345364 0.723985 -0.0418571 -0.0345544 0.721591 
-0.0408703 -0.034383 0.7186 -0.0398414 -0.0339373 0.714964 -0.0388198 -0.0331475 0.710633 
-0.0378488 -0.0319686 0.705556 -0.0369627 -0.0303854 0.699688 -0.0361825 -0.0284157 0.692991 
-0.0355142 -0.0261086 0.685444 -0.0349479 -0.0235401 0.677039 -0.0344593 -0.0208055 0.667792 
-0.0340129 -0.0180099 0.657739 -0.0335672 -0.0152576 0.646938 -0.033081 -0.0126418 0.635463 
-0.0325212 -0.0102362 0.623402 -0.03187 -0.00808862 0.610852 -0.0311312 -0.00621773 0.597907 
-0.0303344 -0.00461335 0.584654 -0.0295369 -0.00323987 0.571163 -0.0288216 -0.00204256 0.557486 
-0.0282922 -0.000955734 0.543648 -0.0280642 8.80587e-05 0.52965 -0.0282549 0.001149 0.515468 
-0.0289705 0.00227217 0.50106 -0.0302948 0.00348177 0.48637 -0.0322787 0.00477806 0.471338 
-0.0349332 0.0061372 0.455908 -0.0382262 0.007514 0.440033 -0.0420849 0.00884704 0.423685 
-0.0464027 0.0100656 0.406857 -0.0510504 0.0110971 0.389563 -0.0558911 0.0118752 0.371838 
-0.0607961 0.0123457 0.353732 -0.0656604 0.0124716 0.335306 -0.0704153 0.012235 0.316617 
-0.075037 0.0116376 0.29772 -0.0795483 0.0106975 0.278652 -0.0840148 0.00944466 0.259431 
-0.0885337 0.00791519 0.24005 -0.0932171 0.00614462 0.22048 -0.0981724 0.00416186 0.200669 
-0.10348 0.00198413 0.18055 -0.109174 -0.000386091 0.160043 -0.115225 -0.002962 0.139068 
-0.121531 -0.00577085 0.11755 -0.127915 -0.00885005 0.0954237 -0.134134 -0.0122414 0.0726435 
-0.139891 -0.0159838 0.0491826 -0.144862 -0.0201061 0.0250359 -0.14872 -0.0246193 0.000218493 
-0.151165 -0.0295109 -0.0252364 -0.151954 -0.0347402 -0.0512811 -0.150921 -0.0402369 -0.0778562 
-0.147996 -0.0459011 -0.104894 -0.143208 -0.051607 -0.132319 -0.136682 -0.0572079 -0.160051 
-0.128627 -0.0625437 -0.187999 -0.119311 -0.0674489 -0.216066 -0.109035 -0.0717621 -0.244141 
-0.0981009 -0.0753337 -0.272099 -0.0867843 -0.0780343 -0.299804 -0.0753066 -0.0797603 -0.327103 
-0.0638194 -0.080438 -0.353836 -0.0523962 -0.0800265 -0.37984 -0.0410338 -0.0785175 -0.404953 
-0.0296649 -0.0759336 -0.42903 -0.0181774 -0.0723256 -0.451946 -0.00644033 -0.0677685 -0.473608 
0.00566917 -0.0623562 -0.493961 0.0182392 -0.0561971 -0.512992 0.031302 -0.0494091 -0.530726 
0.0448197 -0.0421153 -0.547225 0.0586795 -0.0344407 -0.562579 0.0726982 -0.0265085 -0.576892 
0.0866363 -0.0184384 -0.59027 0.100219 -0.0103445 -0.602809 0.11316 -0.00233404 -0.614579 
0.125192 0.00549363 -0.625614 0.136089 0.0130482 -0.635913 0.145685 0.0202492 -0.645434 
0.15389 0.0270274 -0.654103 0.160695 0.0333251 -0.661824 0.166163 0.0390978 -0.668495 
0.170422 0.0443146 -0.674024 0.173646 0.0489587 -0.678347 0.176033 0.0530271 -0.681443 
0.177782 0.0565304 -0.683348 0.179078 0.0594911 -0.684155 0.180072 0.0619419 -0.68402 
0.180877 0.0639229 -0.68315 0.181561 0.0654786 -0.681788 0.182153 0.0666547 -0.680198 
0.182652 0.0674944 -0.678637 0.183039 0.0680355 -0.677337 0.183289 0.0683074 -0.67648 
0.18338 0.068329 -0.676184 
LINES 2 100
OFFSETS vtktypeint64
0 100 
CONNECTIVITY vtktypeint64
0 1 2 3 4 5 6 7 8 
9 10 11 12 13 14 15 16 17 
18 19 20 21 22 23 24 25 26 
27 28 29 30 31 32 33 34 35 
36 37 38 39 40 41 42 43 44 
45 46 47 48 49 50 51 52 53 
54 55 56 57 58 59 60 61 62 
63 64 65 66 67 68 69 70 71 
72 73 74 75 76 77 78 79 80 
81 82 83 84 85 86 87 88 89 
90 91 92 93 94 95 96 97 98 
99 
POINT_DATA 100
FIELD FieldData 3
_theta 1 100 double
0 0.031733259127 0.063466518254 0.095199777382 0.12693303651 0.15866629564 0.19039955476 0.22213281389 0.25386607302 
0.28559933214 0.31733259127 0.3490658504 0.38079910953 0.41253236865 0.44426562778 0.47599888691 0.50773214603 0.53946540516 
0.57119866429 0.60293192342 0.63466518254 0.66639844167 0.6981317008 0.72986495992 0.76159821905 0.79333147818 0.82506473731 
0.85679799643 0.88853125556 0.92026451469 0.95199777382 0.98373103294 1.0154642921 1.0471975512 1.0789308103 1.1106640695 
1.1423973286 1.1741305877 1.2058638468 1.237597106 1.2693303651 1.3010636242 1.3327968833 1.3645301425 1.3962634016 
1.4279966607 1.4597299198 1.491463179 1.5231964381 1.5549296972 1.5866629564 1.6183962155 1.6501294746 1.6818627337 
1.7135959929 1.745329252 1.7770625111 1.8087957702 1.8405290294 1.8722622885 1.9039955476 1.9357288068 1.9674620659 
1.999195325 2.0309285841 2.0626618433 2.0943951024 2.1261283615 2.1578616206 2.1895948798 2.2213281389 2.253061398 
2.2847946572 2.3165279163 2.3482611754 2.3799944345 2.4117276937 2.4434609528 2.4751942119 2.506927471 2.5386607302 
2.5703939893 2.6021272484 2.6338605076 2.6655937667 2.6973270258 2.7290602849 2.7607935441 2.7925268032 2.8242600623 
2.8559933214 2.8877265806 2.9194598397 2.9511930988 2.982926358 3.0146596171 3.0463928762 3.0781261353 3.1098593945 
3.1415926536 
_radius 1 100 double
4.4947753133e-16 0.014233168111 0.028498361683 0.042822840553 0.057209198977 0.07162734081 0.086011355197 0.10026182068 0.11425338491 
0.12784684235 0.14090437653 0.15330613933 0.16496593029 0.17584350767 0.18595117348 0.19535288388 0.20415527474 0.21249148243 
0.22050013352 0.22830296878 0.23598493657 0.2435801105 0.25106559843 0.25836408323 0.26535420701 0.27188696162 0.2778056303 
0.28296655948 0.28725806893 0.29061512162 0.29302794911 0.29454358742 0.29526012014 0.29531425741 0.29486364512 0.29406595636 
0.29305732528 0.29193297213 0.29073285444 0.28943478626 0.28795665134 0.28616811204 0.2839106882 0.28102349198 0.27737063607 
0.27286579986 0.26748988205 0.26129899907 0.25442191416 0.24704780565 0.23940671992 0.23174594257 0.22430588397 0.21729900928 
0.21089485633 0.20521302239 0.2003237344 0.1962525973 0.1929845016 0.19046402629 0.1885951947 0.1872470327 0.18626897963 
0.18551403435 0.18486296308 0.18424234039 0.1836317651 0.18305961698 0.18259041106 0.18230854062 0.18230250079 0.18265161038 
0.18341536919 0.18462471247 0.18627446117 0.18831684397 0.19065677491 0.19315023868 0.1956072089 0.19779979205 0.19947509877 
0.20037137137 0.20023554892 0.19884056119 0.19600080218 0.19158429316 0.18552018714 0.17780069234 0.16847719406 0.15765116603 
0.14546121934 0.13206823018 0.11764082807 0.10234349134 0.086328970408 0.069735726729 0.052689748484 0.03530892931 0.017707693675 
3.6703372404e-16 
_area 1 100 double
0 0.00060505618171 0.0024150943733 0.0054138212596 0.0095712782887 0.014840314996 0.021152832838 0.028416509202 0.036512347719 
0.045293233866 0.054584433929 0.06418862703 0.073898908728 0.08352109756 0.092901836956 0.1019544951 0.11067359908 0.11913092357 
0.12745145305 0.13577418496 0.14420873824 0.15280021954 0.16151085815 0.17022094826 0.17874662266 0.18686843391 0.19436289382 
0.20102951963 0.20670844387 0.21128763844 0.21470350176 0.2169419077 0.21804448416 0.2181166863 0.21732888447 0.215904779 
0.21409801392 0.21216385855 0.21035073047 0.2089459508 0.20833877858 0.20770511519 0.20650557083 0.20433735243 0.20085952447 
0.19584249531 0.1892145807 0.18108630349 0.17174477066 0.1616184209 0.15121833529 0.14106687153 0.13163167582 0.12328697966 
0.11628612415 0.11064397823 0.10604938719 0.10210894884 0.09854564301 0.095200024408 0.091987894321 0.088871984056 0.085850566193 
0.082954241324 0.08024426602 0.0778082377 0.075750949726 0.074190353226 0.073286854734 0.072992209326 0.07323781207 0.073952095758 
0.075066781389 0.076526055968 0.078306864274 0.080471514255 0.083081355918 0.086078633947 0.089269077486 0.092386992708 0.095109259007 
0.097081715887 0.097953873761 0.097423243709 0.095279735276 0.091436845753 0.085941912179 0.078966956192 0.070787562274 0.06175683901 
0.052276939355 0.042766945426 0.033627029708 0.025203858699 0.01776654528 0.011501583392 0.0065277061907 0.0029207846961 0.0007333413547 
5.4106863367e-17 
