# vtk DataFile Version 5.1
vtk output
ASCII
DATASET POLYDATA
POINTS 100 float
0.285146 0.0484057 -0.688412 0.284591 0.0483851 -0.688101 0.282897 0.0484687 -0.687063 
0.280073 0.0486455 -0.685265 0.276137 0.0488946 -0.682658 0.271119 0.0491836 -0.679192 
0.265061 0.0494654 -0.67482 0.258024 0.0496773 -0.669519 0.250083 0.04974 -0.663287 
0.241331 0.0495591 -0.656159 0.231873 0.0490289 -0.648199 0.221826 0.0480382 -0.639503 
0.211313 0.0464777 -0.630185 0.200454 0.0442491 -0.620364 0.189365 0.0412745 -0.610157 
0.178148 0.0375049 -0.599655 0.166891 0.0329271 -0.588922 0.155662 0.0275691 -0.577978 
0.14451 0.0215009 -0.566804 0.133469 0.0148331 -0.555339 0.122557 0.00771167 -0.543492 
0.111783 0.000309971 -0.531155 0.101147 -0.00718152 -0.518215 0.0906492 -0.0145664 -0.504569 
0.0802862 -0.0216539 -0.490142 0.0700549 -0.028269 -0.474892 0.0599501 -0.0342615 -0.458817 
0.0499618 -0.0395119 -0.441952 0.0400724 -0.0439347 -0.424365 0.0302532 -0.0474791 -0.406141 
0.0204624 -0.0501272 -0.387372 0.0106456 -0.0518901 -0.368138 0.000738803 -0.0528034 -0.348496 
-0.00932578 -0.0529216 -0.328469 -0.0196103 -0.0523134 -0.308037 -0.0301599 -0.0510573 -0.287145 
-0.0409903 -0.0492385 -0.265705 -0.0520753 -0.0469468 -0.243614 -0.0633374 -0.0442751 -0.220766 
-0.074641 -0.0413185 -0.197073 -0.0857918 -0.0381736 -0.172484 -0.0965421 -0.0349369 -0.146998 
-0.106602 -0.0317029 -0.120673 -0.115658 -0.0285612 -0.0936286 -0.123393 -0.0255926 -0.0660437 
-0.129513 -0.022865 -0.0381417 -0.133771 -0.0204296 -0.0101754 -0.135991 -0.0183173 0.0175937 
-0.136082 -0.0165366 0.0449161 -0.134053 -0.0150738 0.0715744 -0.130012 -0.0138947 0.0973986 
-0.124162 -0.0129492 0.122276 -0.116783 -0.012177 0.146155 -0.108209 -0.0115156 0.169039 
-0.0988077 -0.0109082 0.190981 -0.0889414 -0.0103111 0.212066 -0.0789458 -0.00970006 0.232396 
-0.0691028 -0.00907416 0.252073 -0.0596227 -0.00845648 0.271187 -0.0506346 -0.00789187 0.289806 
-0.0421848 -0.0074415 0.307967 -0.034245 -0.00717499 0.325684 -0.0267273 -0.00716092 0.342946 
-0.0195043 -0.00745698 0.359732 -0.0124332 -0.00810093 0.376021 -0.00537835 -0.00910367 0.391799 
0.00176762 -0.0104454 0.407075 0.00906895 -0.0120754 0.421877 0.0165379 -0.0139156 0.436261 
0.0241337 -0.0158676 0.450298 0.0317684 -0.0178225 0.464071 0.0393192 -0.0196721 0.47766 
0.0466443 -0.0213198 0.491128 0.0536016 -0.0226913 0.504512 0.0600656 -0.0237412 0.517811 
0.0659429 -0.0244571 0.530981 0.0711818 -0.0248593 0.54394 0.075777 -0.0249967 0.556574 
0.0797678 -0.0249385 0.568746 0.0832315 -0.0247649 0.580317 0.0862713 -0.024555 0.591161 
0.0890027 -0.0243764 0.601182 0.091539 -0.0242761 0.610328 0.0939777 -0.0242749 0.618599 
0.0963908 -0.0243648 0.626048 0.0988185 -0.0245115 0.632773 0.101268 -0.0246602 0.63891 
0.103716 -0.0247444 0.644611 0.106119 -0.0246969 0.650025 0.108418 -0.0244605 0.655277 
0.110552 -0.0239981 0.660451 0.112467 -0.0232998 0.665577 0.114125 -0.0223866 0.670621 
0.115504 -0.0213096 0.675494 0.116605 -0.0201456 0.680056 0.117445 -0.0189885 0.684133 
0.118051 -0.0179384 0.687539 0.118458 -0.0170899 0.690099 0.118696 -0.0165204 0.691669 
0.118785 -0.0162806 0.692158 
LINES 2 100
OFFSETS vtktypeint64
0 100 
CONNECTIVITY vtktypeint64
0 1 2 3 4 5 6 7 8 
9 10 11 12 13 14 15 16 17 
18 19 20 21 22 23 24 25 26 
27 28 29 30 31 32 33 34 35 
36 37 38 39 40 41 42 43 44 
45 46 47 48 49 50 51 52 53 
54 55 56 57 58 59 60 61 62 
63 64 65 66 67 68 69 70 71 
72 73 74 75 76 77 78 79 80 
81 82 83 84 85 86 87 88 89 
90 91 92 93 94 95 96 97 98 
99 
POINT_DATA 100
FIELD FieldData 3
_theta 1 100 double
0 0.031733259127 0.063466518254 0.095199777382 0.12693303651 0.15866629564 0.19039955476 0.22213281389 0.25386607302 
0.28559933214 0.31733259127 0.3490658504 0.38079910953 0.41253236865 0.44426562778 0.47599888691 0.50773214603 0.53946540516 
0.57119866429 0.60293192342 0.63466518254 0.66639844167 0.6981317008 0.72986495992 0.76159821905 0.79333147818 0.82506473731 
0.85679799643 0.88853125556 0.92026451469 0.95199777382 0.98373103294 1.0154642921 1.0471975512 1.0789308103 1.1106640695 
1.1423973286 1.1741305877 1.2058638468 1.237597106 1.2693303651 1.3010636242 1.3327968833 1.3645301425 1.3962634016 
1.4279966607 1.4597299198 1.491463179 1.5231964381 1.5549296972 1.5866629564 1.6183962155 1.6501294746 1.6818627337 
1.7135959929 1.745329252 1.7770625111 1.8087957702 1.8405290294 1.8722622885 1.9039955476 1.9357288068 1.9674620659 
1.999195325 2.0309285841 2.0626618433 2.0943951024 2.1261283615 2.1578616206 2.1895948798 2.2213281389 2.253061398 
2.2847946572 2.3165279163 2.3482611754 2.3799944345 2.4117276937 2.4434609528 2.4751942119 2.506927471 2.5386607302 
2.5703939893 2.6021272484 2.6338605076 2.6655937667 2.6973270258 2.7290602849 2.7607935441 2.7925268032 2.8242600623 
2.8559933214 2.8877265806 2.9194598397 2.9511930988 2.982926358 3.0146596171 3.0463928762 3.0781261353 3.1098593945 
3.1415926536 
_radius 1 100 double
8.6988382854e-16 0.016808352915 0.033275168226 0.049097602514 0.064035355222 0.07792878463 0.090703848864 0.10236329789 0.11296640323 
0.12260210524 0.13136186242 0.13931812351 0.14651242464 0.15295446176 0.15863091902 0.16352083185 0.16761314385 0.17092213856 
0.17349755779 0.17542795791 0.17683747358 0.17787713061 0.17871210667 0.17950620772 0.1804047893 0.18151772362 0.18290471327 
0.18456580294 0.18643975694 0.18841173645 0.19032961269 0.19202603956 0.19334206698 0.19414812976 0.19435944097 0.19394452941 
0.19292735147 0.19138462485 0.18944030807 0.18725831579 0.18503321147 0.18297791661 0.18130821687 0.18022574551 0.17990283448 
0.18047246671 0.18202394511 0.18460146491 0.18820154535 0.1927679224 0.19818728793 0.20429162788 0.21086990738 0.21768649472 
0.22450148907 0.23108972033 0.23725718823 0.24285407275 0.24778296087 0.25200095667 0.25551523298 0.25837286565 0.26064687646 
0.26242097337 0.26377543719 0.26477603471 0.26546693198 0.26586763792 0.26597334876 0.26575784531 0.26517820489 0.26418074805 
0.26270763075 0.26070330609 0.25811988554 0.25492045912 0.2510798306 0.24658284197 0.24142124201 0.23559053115 0.22908811722 
0.22191343994 0.21406975548 0.20556645134 0.19642045705 0.18665568002 0.17630029529 0.16538277645 0.15392827764 0.14195697974 
0.12948524899 0.11652928609 0.10310994803 0.08925705228 0.075011808102 0.060426818843 0.045563982155 0.03049125496 0.015279453834 
4.0945416907e-16 
_area 1 100 double
0 0.0005762080244 0.0022888369176 0.0050903085654 0.0089004917602 0.013601268835 0.019029756663 0.024980016847 0.03121935715 
0.037514494815 0.043656617302 0.049476040179 0.054843247667 0.059659552399 0.063844330892 0.067325957949 0.070042129297 0.071952638562 
0.073061945965 0.073443182202 0.07325370834 0.072731947708 0.072165433061 0.071834529057 0.071975663644 0.0727830362 0.074349253961 
0.076591943019 0.079258678883 0.082060605706 0.084750545203 0.087096429417 0.088921387797 0.090132013363 0.090720207127 0.09075008804 
0.090350867795 0.089702903359 0.089021703203 0.088523467671 0.088388834745 0.088712625748 0.089490352628 0.090657052194 0.092150987861 
0.093966592479 0.096188706987 0.098998663054 0.10263804199 0.10731708721 0.11311696011 0.11996300844 0.12764750767 0.13586213346 
0.14423405024 0.15236449808 0.15987203391 0.16643976419 0.17185754471 0.17604696629 0.17906116612 0.18105918836 0.18226240916 
0.18290518039 0.1831887641 0.18323973781 0.18307952751 0.18262946207 0.18175778925 0.18033357031 0.17825690491 0.17546651192 
0.17193738563 0.16767797921 0.16273041351 0.1571690256 0.15108851192 0.14457945181 0.13770100473 0.1304668896 0.12285517851 
0.11483870184 0.10642135812 0.097663703359 0.088687621683 0.079658965416 0.070754719507 0.062126290207 0.053872664995 0.046035148079 
0.038616888802 0.031617162109 0.025062276397 0.019019909882 0.013595385751 0.0089163374271 0.0051137194804 0.0023048697378 0.00058111878673 
3.4953503908e-17 
