# vtk DataFile Version 5.1
vtk output
ASCII
DATASET POLYDATA
POINTS 100 float
0.0819474 0.0520543 -0.656109 0.0822352 0.0519671 -0.65643 0.0830427 0.0518503 -0.65739 
0.0843003 0.051666 -0.658831 0.0858977 0.0513548 -0.660506 0.0876908 0.050843 -0.662104 
0.0895114 0.0500506 -0.663276 0.0911785 0.0489002 -0.663673 0.0925091 0.0473252 -0.662971 
0.0933302 0.045277 -0.660905 0.0934883 0.0427296 -0.657285 0.0928587 0.039682 -0.652015 
0.0913509 0.0361573 -0.645092 0.0889134 0.0321997 -0.6366 0.0855336 0.0278697 -0.626699 
0.0812374 0.0232372 -0.615598 0.0760847 0.0183753 -0.603532 0.0701636 0.0133538 -0.590737 
0.0635841 0.00823512 -0.577422 0.0564697 0.00307098 -0.563754 0.0489494 -0.00209752 -0.549836 
0.0411506 -0.00723826 -0.53571 0.033192 -0.0123245 -0.521354 0.0251784 -0.0173299 -0.506691 
0.0171965 -0.0222236 -0.491608 0.00931278 -0.0269656 -0.475972 0.00157252 -0.0315038 -0.459649 
-0.00599911 -0.0357728 -0.442526 -0.013395 -0.0396958 -0.424525 -0.0206225 -0.0431887 -0.405613 
-0.0276996 -0.0461665 -0.385806 -0.0346498 -0.0485513 -0.365165 -0.041497 -0.0502807 -0.343791 
-0.0482609 -0.0513165 -0.321811 -0.0549517 -0.0516508 -0.29936 -0.0615667 -0.0513105 -0.276568 
-0.0680869 -0.0503579 -0.253546 -0.0744748 -0.0488883 -0.230372 -0.0806738 -0.0470232 -0.207089 
-0.0866088 -0.0449015 -0.183699 -0.0921883 -0.0426675 -0.160176 -0.0973075 -0.0404588 -0.136466 
-0.101854 -0.0383938 -0.112511 -0.105711 -0.0365613 -0.0882528 -0.108767 -0.035013 -0.063658 
-0.110921 -0.0337595 -0.0387235 -0.112089 -0.0327712 -0.0134882 -0.112209 -0.031983 0.0119647 
-0.111248 -0.0313033 0.0375092 -0.109205 -0.0306258 0.0629841 -0.10611 -0.0298431 0.0882058 
-0.102026 -0.0288606 0.112983 -0.0970439 -0.0276091 0.137133 -0.0912796 -0.0260548 0.160501 
-0.0848657 -0.0242051 0.182969 -0.0779441 -0.0221103 0.20447 -0.0706569 -0.0198604 0.224991 
-0.0631382 -0.0175774 0.24457 -0.0555054 -0.0154037 0.263295 -0.0478532 -0.0134885 0.281287 
-0.0402484 -0.0119728 0.29869 -0.0327283 -0.0109747 0.315651 -0.0253008 -0.0105781 0.332308 
-0.0179474 -0.0108228 0.348776 -0.0106289 -0.0117009 0.365134 -0.00329291 -0.0131564 0.381421 
0.00411807 -0.015091 0.397639 0.0116571 -0.0173723 0.41375 0.0193646 -0.019847 0.429692 
0.0272605 -0.0223546 0.445385 0.035339 -0.0247419 0.460746 0.043566 -0.0268763 0.475704 
0.0518782 -0.0286568 0.490203 0.0601865 -0.0300208 0.504218 0.068381 -0.0309476 0.517749 
0.0763386 -0.0314565 0.530828 0.083932 -0.0316019 0.543504 0.0910392 -0.0314645 0.555842 
0.0975528 -0.0311403 0.567906 0.103389 -0.0307288 0.57975 0.108492 -0.0303221 0.591404 
0.112839 -0.0299943 0.602869 0.116444 -0.0297955 0.614109 0.11935 -0.0297474 0.625053 
0.121629 -0.0298436 0.635597 0.123373 -0.0300528 0.645617 0.124688 -0.0303254 0.654975 
0.125683 -0.0306012 0.66354 0.126462 -0.0308189 0.671194 0.127115 -0.030925 0.677854 
0.127713 -0.0308812 0.683474 0.128306 -0.0306698 0.688055 0.128918 -0.0302959 0.691644 
0.12955 -0.029787 0.694332 0.130185 -0.0291894 0.69624 0.130789 -0.0285621 0.697511 
0.131323 -0.0279692 0.698292 0.131747 -0.0274717 0.698718 0.132026 -0.0271198 0.698897 
0.132136 -0.0269462 0.698901 
LINES 2 100
OFFSETS vtktypeint64
0 100 
CONNECTIVITY vtktypeint64
0 1 2 3 4 5 6 7 8 
9 10 11 12 13 14 15 16 17 
18 19 20 21 22 23 24 25 26 
27 28 29 30 31 32 33 34 35 
36 37 38 39 40 41 42 43 44 
45 46 47 48 49 50 51 52 53 
54 55 56 57 58 59 60 61 62 
63 64 65 66 67 68 69 70 71 
72 73 74 75 76 77 78 79 80 
81 82 83 84 85 86 87 88 89 
90 91 92 93 94 95 96 97 98 
99 
POINT_DATA 100
FIELD FieldData 3
_theta 1 100 double
0 0.031733259127 0.063466518254 0.095199777382 0.12693303651 0.15866629564 0.19039955476 0.22213281389 0.25386607302 
0.28559933214 0.31733259127 0.3490658504 0.38079910953 0.41253236865 0.44426562778 0.47599888691 0.50773214603 0.53946540516 
0.57119866429 0.60293192342 0.63466518254 0.66639844167 0.6981317008 0.72986495992 0.76159821905 0.79333147818 0.82506473731 
0.85679799643 0.88853125556 0.92026451469 0.95199777382 0.98373103294 1.0154642921 1.0471975512 1.0789308103 1.1106640695 
1.1423973286 1.1741305877 1.2058638468 1.237597106 1.2693303651 1.3010636242 1.3327968833 1.3645301425 1.3962634016 
1.4279966607 1.4597299198 1.491463179 1.5231964381 1.5549296972 1.5866629564 1.6183962155 1.6501294746 1.6818627337 
1.7135959929 1.745329252 1.7770625111 1.8087957702 1.8405290294 1.8722622885 1.9039955476 1.9357288068 1.9674620659 
1.999195325 2.0309285841 2.0626618433 2.0943951024 2.1261283615 2.1578616206 2.1895948798 2.2213281389 2.253061398 
2.2847946572 2.3165279163 2.3482611754 2.3799944345 2.4117276937 2.4434609528 2.4751942119 2.506927471 2.5386607302 
2.5703939893 2.6021272484 2.6338605076 2.6655937667 2.6973270258 2.7290602849 2.7607935441 2.7925268032 2.8242600623 
2.8559933214 2.8877265806 2.9194598397 2.9511930988 2.982926358 3.0146596171 3.0463928762 3.0781261353 3.1098593945 
3.1415926536 
_radius 1 100 double
5.0233949771e-16 0.011722569803 0.023404909605 0.035010934358 0.046505199351 0.057849119214 0.068995035659 0.079880274785 0.090423705125 
0.1005265787 0.11007809613 0.11896484253 0.12708240063 0.13434711887 0.14070607013 0.14614355129 0.15068298249 0.15438374701 
0.15733333268 0.15963599939 0.16139993515 0.16272525818 0.16369508735 0.16437119147 0.16479460411 0.16499039632 0.1649749116 
0.16476342582 0.16437642455 0.16384332796 0.16320329002 0.16250337321 0.16179467907 0.16112677121 0.16054033606 0.16005866535 
0.15968104559 0.1593828598 0.15912397187 0.15886166541 0.15856325409 0.158215574 0.15783038622 0.15744572051 0.15712365268 
0.15694489191 0.15700065259 0.15738333504 0.15817829378 0.1594577045 0.16127516443 0.16365879075 0.16660211404 0.17005462547 
0.17391562076 0.17803496373 0.18222262949 0.18626638676 0.18995490659 0.19310247433 0.19557122885 0.19728723408 0.19824763355 
0.19851763219 0.1982179073 0.19750484958 0.19654723265 0.19550314883 0.1945004079 0.19362252043 0.19290131028 0.19231626203 
0.19179985964 0.19124745683 0.19052984968 0.18950686195 0.18804078659 0.18600907019 0.18331576839 0.17990091475 0.17574636144 
0.17087644925 0.16535243573 0.15926085196 0.15269738822 0.14574901816 0.13847759265 0.13090803098 0.12302352964 0.11476891607 
0.10606156537 0.096807636149 0.086920364681 0.076337119739 0.065032697276 0.053027443684 0.04038979908 0.027233560159 0.013710595716 
9.2857072513e-16 
_area 1 100 double
0 0.00037412257287 0.001493895558 0.003354637977 0.0059538026394 0.0092860131473 0.013326684251 0.018013777822 0.023236550374 
0.028833599713 0.034600000024 0.04030307777 0.045705360529 0.050591288941 0.054792550296 0.058206436719 0.060802896692 0.062618703928 
0.063740715615 0.064283478591 0.064368094545 0.064108459982 0.063609822393 0.063000089198 0.062546888022 0.062174011778 0.061849444532 
0.061517995723 0.061111225198 0.060621080609 0.060078972209 0.059558918217 0.05913604852 0.058909433777 0.059015698171 0.059455086374 
0.060255750705 0.061362741844 0.062655043637 0.063963344933 0.065152363031 0.066153431413 0.066986546114 0.067751277838 0.06859740332 
0.069669843215 0.071046020378 0.072723258593 0.074849825894 0.07739529489 0.080093601954 0.082961778879 0.086082480229 0.08954930972 
0.093397104185 0.097559519813 0.10188661335 0.10618047955 0.11021029617 0.11372428986 0.11648909205 0.11834368753 0.11923110137 
0.11921391979 0.11846938949 0.1172037259 0.11545143179 0.11330437915 0.11091479523 0.1084442174 0.10617966129 0.10401170129 
0.10198732142 0.10017752407 0.098623608194 0.097158133244 0.095512218142 0.093498342653 0.090997503772 0.08794298535 0.084314778268 
0.080135786835 0.075467619893 0.070403932366 0.065058561304 0.059548061186 0.053972590816 0.048401701132 0.042870773268 0.037390472183 
0.031966834862 0.026624811272 0.021425912724 0.016473532244 0.011905603316 0.0078789421555 0.0045507720259 0.0020615760642 0.00052137239954 
8.4161187025e-17 
