# vtk DataFile Version 5.1
vtk output
ASCII
DATASET POLYDATA
POINTS 100 float
0.124388 -0.0218012 0.647562 0.124566 -0.0219765 0.647253 0.125029 -0.0225881 0.646494 
0.125691 -0.0235692 0.645325 0.126423 -0.0248168 0.643805 0.127071 -0.0262021 0.642003 
0.127476 -0.0275835 0.639978 0.127495 -0.0288216 0.637773 0.12702 -0.0297921 0.635401 
0.125991 -0.0303977 0.632837 0.124404 -0.0305766 0.630018 0.122305 -0.0303058 0.626846 
0.119785 -0.0296016 0.623196 0.11696 -0.0285141 0.61893 0.113953 -0.0271195 0.613914 
0.110873 -0.025509 0.608032 0.107797 -0.0237773 0.601202 0.104754 -0.0220108 0.593386 
0.10172 -0.0202784 0.584594 0.0986213 -0.0186245 0.574888 0.0953406 -0.0170661 0.56437 
0.0917361 -0.015593 0.553173 0.0876618 -0.0141728 0.541446 0.0829901 -0.0127582 0.529333 
0.0776322 -0.0112957 0.516963 0.0715545 -0.00973647 0.504431 0.0647868 -0.00804547 0.49179 
0.0574224 -0.00620916 0.479051 0.0496089 -0.0042406 0.466179 0.0415314 -0.00218116 0.453108 
0.0333894 -9.87177e-05 0.439744 0.0253721 0.0019174 0.425989 0.0176333 0.00376411 0.411747 
0.0102719 0.00533399 0.396942 0.00331824 0.00652533 0.381524 -0.00326916 0.00725169 0.365476 
-0.00959741 0.00744989 0.348809 -0.0158235 0.00708566 0.331563 -0.0221311 0.00615637 0.313791 
-0.0287022 0.00469069 0.295552 -0.0356886 0.00274525 0.276897 -0.0431849 0.000398897 0.257862 
-0.0512092 -0.00225483 0.238457 -0.0596913 -0.00511615 0.218665 -0.0684725 -0.00808748 0.198448 
-0.0773159 -0.011081 0.177748 -0.0859262 -0.014025 0.156504 -0.0939769 -0.0168676 0.134661 
-0.101142 -0.0195789 0.112184 -0.107127 -0.0221506 0.0890683 -0.111697 -0.0245934 0.0653481 
-0.114698 -0.026933 0.0410987 -0.116069 -0.0292051 0.0164341 -0.11584 -0.0314492 -0.00850083 
-0.114129 -0.0337031 -0.0335418 -0.111119 -0.0359973 -0.0585194 -0.107035 -0.0383502 -0.0832737 
-0.102116 -0.040765 -0.107668 -0.0965904 -0.0432273 -0.131598 -0.090649 -0.0457041 -0.154998 
-0.0844304 -0.0481444 -0.177842 -0.0780117 -0.0504813 -0.200136 -0.071409 -0.0526346 -0.221912 
-0.0645864 -0.0545148 -0.243214 -0.0574713 -0.0560282 -0.264086 -0.0499746 -0.0570821 -0.28456 
-0.0420124 -0.0575903 -0.304645 -0.0335258 -0.0574788 -0.324328 -0.0244966 -0.0566913 -0.343569 
-0.0149577 -0.0551934 -0.362307 -0.00499516 -0.0529759 -0.380473 0.0052558 -0.0500571 -0.397996 
0.0156215 -0.0464826 -0.414822 0.0259052 -0.0423238 -0.430917 0.0359039 -0.037674 -0.446281 
0.0454265 -0.0326435 -0.460945 0.0543079 -0.0273524 -0.474971 0.0624204 -0.0219229 -0.488441 
0.0696794 -0.0164718 -0.501444 0.0760436 -0.0111025 -0.514059 0.0815107 -0.00589906 -0.52634 
0.086109 -0.0009216 -0.538303 0.0898876 0.00379599 -0.549913 0.0929056 0.00824554 -0.561085 
0.0952237 0.0124417 -0.571682 0.0968974 0.0164163 -0.581537 0.0979749 0.020212 -0.590459 
0.0984978 0.0238731 -0.598264 0.098505 0.0274383 -0.604798 0.0980386 0.0309322 -0.609956 
0.0971507 0.0343603 -0.613705 0.0959082 0.0377051 -0.616089 0.0943966 0.0409254 -0.617241 
0.0927202 0.0439584 -0.617365 0.0909978 0.046725 -0.616726 0.0893564 0.0491367 -0.615624 
0.0879217 0.0511039 -0.614364 0.0868069 0.0525454 -0.613225 0.0861024 0.0533961 -0.612431 
0.0858667 0.0536145 -0.612129 
LINES 2 100
OFFSETS vtktypeint64
0 100 
CONNECTIVITY vtktypeint64
0 1 2 3 4 5 6 7 8 
9 10 11 12 13 14 15 16 17 
18 19 20 21 22 23 24 25 26 
27 28 29 30 31 32 33 34 35 
36 37 38 39 40 41 42 43 44 
45 46 47 48 49 50 51 52 53 
54 55 56 57 58 59 60 61 62 
63 64 65 66 67 68 69 70 71 
72 73 74 75 76 77 78 79 80 
81 82 83 84 85 86 87 88 89 
90 91 92 93 94 95 96 97 98 
99 
POINT_DATA 100
FIELD FieldData 3
_theta 1 100 double
0 0.031733259127 0.063466518254 0.095199777382 0.12693303651 0.15866629564 0.19039955476 0.22213281389 0.25386607302 
0.28559933214 0.31733259127 0.3490658504 0.38079910953 0.41253236865 0.44426562778 0.47599888691 0.50773214603 0.53946540516 
0.57119866429 0.60293192342 0.63466518254 0.66639844167 0.6981317008 0.72986495992 0.76159821905 0.79333147818 0.82506473731 
0.85679799643 0.88853125556 0.92026451469 0.95199777382 0.98373103294 1.0154642921 1.0471975512 1.0789308103 1.1106640695 
1.1423973286 1.1741305877 1.2058638468 1.237597106 1.2693303651 1.3010636242 1.3327968833 1.3645301425 1.3962634016 
1.4279966607 1.4597299198 1.491463179 1.5231964381 1.5549296972 1.5866629564 1.6183962155 1.6501294746 1.6818627337 
1.7135959929 1.745329252 1.7770625111 1.8087957702 1.8405290294 1.8722622885 1.9039955476 1.9357288068 1.9674620659 
1.999195325 2.0309285841 2.0626618433 2.0943951024 2.1261283615 2.1578616206 2.1895948798 2.2213281389 2.253061398 
2.2847946572 2.3165279163 2.3482611754 2.3799944345 2.4117276937 2.4434609528 2.4751942119 2.506927471 2.5386607302 
2.5703939893 2.6021272484 2.6338605076 2.6655937667 2.6973270258 2.7290602849 2.7607935441 2.7925268032 2.8242600623 
2.8559933214 2.8877265806 2.9194598397 2.9511930988 2.982926358 3.0146596171 3.0463928762 3.0781261353 3.1098593945 
3.1415926536 
_radius 1 100 double
5.795638182e-16 0.01576290166 0.031484965706 0.04712330087 0.062623645768 0.077917246577 0.092920745551 0.10753930117 0.12167250704 
0.13522204613 0.1480996127 0.16023363941 0.17157381998 0.18209312714 0.19178762873 0.20067461306 0.20878936651 0.21618069345 
0.22290522775 0.22902083684 0.23457983305 0.23962306612 0.24417609454 0.24824842419 0.25183624988 0.25492831684 0.25751362592 
0.25958903208 0.26116464229 0.26226545213 0.26292873588 0.26319792855 0.2631146541 0.2627108609 0.26200271624 0.26098724589 
0.25964204743 0.25792801203 0.25579487699 0.25318941238 0.25006589697 0.24639815661 0.24219188749 0.23749542966 0.23240677695 
0.22707457147 0.22169128208 0.21647784877 0.21166088398 0.20744593927 0.20399269854 0.20139875651 0.1996962535 0.1988602412 
0.19882236947 0.19948212147 0.20071134839 0.20235382477 0.20422619801 0.20612709458 0.20785688055 0.20924443315 0.21017320191 
0.21059883576 0.21055385122 0.21013897911 0.20950411767 0.20882339548 0.20826875163 0.20798534609 0.20807089725 0.20856030672 
0.20941677842 0.21053071243 0.21172733617 0.21278291614 0.21344770586 0.21347229313 0.21263335358 0.21075509901 0.20772364519 
0.2034927881 0.19808103809 0.19156103148 0.18404343784 0.17565806395 0.16653496371 0.15678804066 0.14650301104 0.13573086556 
0.12448729466 0.11275798183 0.10050913416 0.08770197721 0.0743091926 0.060330628504 0.045805375094 0.030817690263 0.015495293477 
7.7784677867e-16 
_area 1 100 double
0 0.00057648411084 0.0023037807575 0.0051735440211 0.0091662472212 0.014244826916 0.020349214939 0.027393620378 0.035267208141 
0.043837393342 0.052954194081 0.062454431934 0.072165748423 0.081911747134 0.091520452441 0.10083771786 0.10974429698 0.11817141907 
0.12610824945 0.13359674819 0.14071326677 0.14754004015 0.15413346274 0.16049899231 0.1665820995 0.17227932635 0.17746557756 
0.18202748242 0.18589096564 0.18903450055 0.19148583217 0.19330574476 0.19456485267 0.19531852732 0.19558475342 0.19533225087 
0.19448492557 0.19293905587 0.19058371878 0.18732013092 0.18308190788 0.17785834929 0.17171849184 0.16482907396 0.15745811658 
0.14995879578 0.14273399712 0.13618613077 0.13065439507 0.12633642178 0.12321213744 0.12103848082 0.11945228051 0.11810602578 
0.11675883015 0.11532164527 0.11388707 0.11266664416 0.11179222512 0.11134361305 0.11119250574 0.11097784806 0.1103321556 
0.10904357019 0.10709539762 0.10464370687 0.10196139624 0.099369712098 0.097169645794 0.095584607943 0.094734092555 0.094664844858 
0.095451682806 0.097053410936 0.099222181679 0.10160008034 0.10386785284 0.10572043287 0.10686124144 0.10702230669 0.10599426224 
0.10365373732 0.099977979466 0.095042462625 0.089004048079 0.082075989211 0.074500978099 0.066526416132 0.058384295097 0.050277351411 
0.04237289195 0.03480487825 0.027683296902 0.02110823981 0.015185021555 0.010035710929 0.0058016721571 0.0026331475881 0.00066702658698 
6.8328928567e-17 
