# vtk DataFile Version 5.1
vtk output
ASCII
DATASET POLYDATA
POINTS 100 float
0.11506 -0.0418959 0.684833 0.115161 -0.0418872 0.684778 0.115463 -0.0417186 0.684429 
0.115919 -0.0413956 0.683745 0.116453 -0.0409278 0.682668 0.116977 -0.0403295 0.681121 
0.117391 -0.0396196 0.679024 0.117599 -0.0388223 0.676296 0.11752 -0.0379662 0.672868 
0.117092 -0.0370832 0.668685 0.11628 -0.0362068 0.663716 0.115074 -0.035369 0.657957 
0.113495 -0.0345979 0.651429 0.11158 -0.0339141 0.644178 0.109383 -0.0333283 0.636271 
0.106962 -0.0328388 0.627792 0.10437 -0.0324309 0.618829 0.101649 -0.0320767 0.609473 
0.0988216 -0.0317376 0.599806 0.0958914 -0.0313667 0.589896 0.0928394 -0.0309136 0.579793 
0.0896295 -0.0303291 0.569526 0.0862137 -0.0295703 0.5591 0.0825404 -0.0286054 0.548499 
0.0785623 -0.0274173 0.53769 0.0742448 -0.0260057 0.526629 0.0695718 -0.0243876 0.515261 
0.0645503 -0.0225964 0.503534 0.05921 -0.0206782 0.491399 0.0536011 -0.0186881 0.478816 
0.0477885 -0.0166846 0.46576 0.0418433 -0.0147246 0.452219 0.0358342 -0.0128587 0.438198 
0.0298176 -0.0111272 0.423716 0.0238299 -0.00955812 0.408801 0.0178825 -0.00816653 0.393488 
0.0119593 -0.00695617 0.377814 0.00601942 -0.00592213 0.361812 2.49039e-06 -0.00505474 0.345506 
-0.00616153 -0.00434403 0.328909 -0.0125408 -0.00378392 0.312016 -0.0191885 -0.00337559 0.294806 
-0.0261306 -0.00312948 0.277241 -0.0333553 -0.00306567 0.259268 -0.0408055 -0.00321233 0.240822 
-0.0483765 -0.00360255 0.221832 -0.0559179 -0.00426995 0.202225 -0.0632408 -0.0052435 0.181935 
-0.0701296 -0.00654236 0.160908 -0.0763569 -0.00817143 0.139107 -0.0817009 -0.0101182 0.11652 
-0.0859626 -0.0123516 0.0931631 -0.088982 -0.0148225 0.0690797 -0.0906504 -0.0174668 0.0443446 
-0.0909196 -0.0202098 0.0190594 -0.0898042 -0.0229722 -0.00665089 -0.0873797 -0.0256765 -0.0326438 
-0.0837744 -0.0282528 -0.0587668 -0.0791569 -0.0306447 -0.0848652 -0.073721 -0.0328121 -0.110791 
-0.0676678 -0.0347333 -0.136408 -0.0611892 -0.0364038 -0.161604 -0.054452 -0.0378337 -0.18629 
-0.0475865 -0.0390432 -0.210402 -0.0406785 -0.0400563 -0.233909 -0.0337671 -0.0408946 -0.2568 
-0.0268467 -0.041572 -0.279087 -0.0198747 -0.0420892 -0.300797 -0.0127819 -0.0424311 -0.321961 
-0.0054861 -0.042566 -0.342611 0.00209413 -0.0424472 -0.362769 0.0100257 -0.0420167 -0.382444 
0.0183496 -0.0412108 -0.401626 0.0270728 -0.0399669 -0.420285 0.0361639 -0.0382308 -0.438373 
0.045553 -0.0359635 -0.455827 0.055136 -0.033147 -0.472575 0.0647821 -0.0297884 -0.488543 
0.0743439 -0.0259217 -0.503664 0.0836693 -0.0216071 -0.517885 0.0926126 -0.0169287 -0.531175 
0.101046 -0.0119892 -0.543526 0.108866 -0.00690404 -0.554959 0.116004 -0.0017939 -0.56552 
0.122423 0.00322252 -0.575278 0.128117 0.00803546 -0.584316 0.133114 0.01255 -0.592724 
0.137462 0.0166907 -0.600591 0.141224 0.020404 -0.60799 0.144471 0.0236595 -0.614977 
0.147273 0.0264489 -0.621577 0.149692 0.0287839 -0.627786 0.15178 0.0306927 -0.63357 
0.153571 0.0322153 -0.638864 0.155088 0.0333993 -0.643586 0.15634 0.0342946 -0.647635 
0.157323 0.0349493 -0.650914 0.158031 0.0354049 -0.653329 0.158455 0.0356937 -0.654807 
0.158588 0.035836 -0.655298 
LINES 2 100
OFFSETS vtktypeint64
0 100 
CONNECTIVITY vtktypeint64
0 1 2 3 4 5 6 7 8 
9 10 11 12 13 14 15 16 17 
18 19 20 21 22 23 24 25 26 
27 28 29 30 31 32 33 34 35 
36 37 38 39 40 41 42 43 44 
45 46 47 48 49 50 51 52 53 
54 55 56 57 58 59 60 61 62 
63 64 65 66 67 68 69 70 71 
72 73 74 75 76 77 78 79 80 
81 82 83 84 85 86 87 88 89 
90 91 92 93 94 95 96 97 98 
99 
POINT_DATA 100
FIELD FieldData 3
_theta 1 100 double
0 0.031733259127 0.063466518254 0.095199777382 0.12693303651 0.15866629564 0.19039955476 0.22213281389 0.25386607302 
0.28559933214 0.31733259127 0.3490658504 0.38079910953 0.41253236865 0.44426562778 0.47599888691 0.50773214603 0.53946540516 
0.57119866429 0.60293192342 0.63466518254 0.66639844167 0.6981317008 0.72986495992 0.76159821905 0.79333147818 0.82506473731 
0.85679799643 0.88853125556 0.92026451469 0.95199777382 0.98373103294 1.0154642921 1.0471975512 1.0789308103 1.1106640695 
1.1423973286 1.1741305877 1.2058638468 1.237597106 1.2693303651 1.3010636242 1.3327968833 1.3645301425 1.3962634016 
1.4279966607 1.4597299198 1.491463179 1.5231964381 1.5549296972 1.5866629564 1.6183962155 1.6501294746 1.6818627337 
1.7135959929 1.745329252 1.7770625111 1.8087957702 1.8405290294 1.8722622885 1.9039955476 1.9357288068 1.9674620659 
1.999195325 2.0309285841 2.0626618433 2.0943951024 2.1261283615 2.1578616206 2.1895948798 2.2213281389 2.253061398 
2.2847946572 2.3165279163 2.3482611754 2.3799944345 2.4117276937 2.4434609528 2.4751942119 2.506927471 2.5386607302 
2.5703939893 2.6021272484 2.6338605076 2.6655937667 2.6973270258 2.7290602849 2.7607935441 2.7925268032 2.8242600623 
2.8559933214 2.8877265806 2.9194598397 2.9511930988 2.982926358 3.0146596171 3.0463928762 3.0781261353 3.1098593945 
3.1415926536 
_radius 1 100 double
1.3569219488e-15 0.014371969806 0.028683138145 0.04286952705 0.056873487997 0.070645113331 0.084142056035 0.097328299223 0.11017272892 
0.1226482922 0.13473213463 0.14640660667 0.15766061292 0.16849056933 0.1789002691 0.18889921875 0.19849941896 0.20771100664 
0.21653750831 0.22497158679 0.23299208364 0.24056293113 0.24763422651 0.25414549856 0.2600309611 0.26522630756 0.26967633211 
0.27334240154 0.27620863913 0.27828571589 0.27961142126 0.28024767173 0.28027421249 0.27977983984 0.27885239365 0.27756894778 
0.27598754226 0.27414151042 0.27203706663 0.26965444238 0.26695253879 0.26387677295 0.26036945447 0.25638158975 0.25188456493 
0.24687993602 0.2414057886 0.23553881878 0.22939211843 0.22310921935 0.21685511875 0.21080498964 0.20513142579 0.19999155813 
0.19551599002 0.19180158837 0.1889090264 0.18686369825 0.18565668848 0.1852429175 0.18553697371 0.18641127154 0.18770224784 
0.18922662668 0.19080414967 0.19228011214 0.19354203589 0.1945278076 0.19522522689 0.1956643387 0.19590452226 0.19601857177 
0.19607612739 0.196128731 0.19619836761 0.19627062268 0.19629272759 0.19617603619 0.19580203957 0.19503087305 0.19371128674 
0.19169113359 0.1888275425 0.18499608851 0.18009843353 0.1740680529 0.16687376065 0.15852081873 0.14904951568 0.13853128014 
0.12706265706 0.1147577651 0.10174008198 0.08813448928 0.074060425536 0.059626785793 0.044928941545 0.030047997876 0.015052175197 
1.4788299646e-15 
_area 1 100 double
0 0.00059704473344 0.0023697012132 0.0052655951963 0.0092065924845 0.014099206826 0.019843663483 0.026338742807 0.033481910956 
0.041167167791 0.04928444912 0.057723182308 0.06637986 0.075167365089 0.084023202712 0.092914334076 0.10183714703 0.11081164384 
0.11986901265 0.12903235716 0.13829368979 0.14759569895 0.15682687516 0.1658299085 0.17441635943 0.18238271431 0.18952794225 
0.19567405631 0.20068857254 0.20450410928 0.20712890746 0.20864406379 0.20918753191 0.20892909493 0.20804273573 0.20668270873 
0.204967616 0.20297538289 0.20076905582 0.19836719826 0.19564187834 0.19242562703 0.18856340003 0.18398564882 0.17865068996 
0.17256329671 0.16579394151 0.15848613143 0.15084403222 0.14310220954 0.13549009375 0.12820808369 0.12142544234 0.1152967856 
0.10996648384 0.10548969427 0.10177142905 0.098687504435 0.096164705206 0.094166749574 0.092661075917 0.09158513208 0.090819046997 
0.090188236714 0.089512691528 0.088673302284 0.087651463948 0.086526441581 0.085431685014 0.084493803952 0.083796009686 0.083342502687 
0.083078379034 0.0829489787 0.082904697072 0.082882781778 0.082861468519 0.082909675054 0.082791323315 0.08229484056 0.081305257296 
0.07973096669 0.077494326296 0.074535071418 0.070818876417 0.066345832149 0.061157082396 0.055339609533 0.049028056473 0.04240094839 
0.035669270843 0.029058203112 0.022786022001 0.017045688569 0.011993478435 0.0077458985514 0.0043829947453 0.0019549412257 0.00048963260044 
4.7811672699e-17 
