# vtk DataFile Version 5.1
vtk output
ASCII
DATASET POLYDATA
POINTS 100 float
0.148502 0.103319 -0.636863 0.148513 0.103261 -0.6369 0.148573 0.102892 -0.63698 
0.148682 0.102232 -0.637021 0.148838 0.101307 -0.636897 0.149036 0.10015 -0.636454 
0.149261 0.0987859 -0.635523 0.149488 0.0972315 -0.633941 0.149678 0.0954867 -0.631566 
0.149779 0.0935311 -0.628295 0.14972 0.0913218 -0.624069 0.149417 0.0887946 -0.618878 
0.148773 0.0858686 -0.612761 0.147686 0.082452 -0.605795 0.14605 0.0784516 -0.598084 
0.143764 0.0737825 -0.589745 0.140742 0.0683784 -0.58089 0.136915 0.0622009 -0.571612 
0.132241 0.0552469 -0.561972 0.126708 0.0475534 -0.551995 0.120335 0.0391992 -0.541664 
0.113178 0.0303027 -0.530923 0.105318 0.0210166 -0.51969 0.0968648 0.0115199 -0.507861 
0.0879453 0.00200773 -0.495332 0.0786953 -0.0073204 -0.482004 0.0692506 -0.016272 -0.467805 
0.0597371 -0.0246724 -0.45269 0.050263 -0.032374 -0.436654 0.0409114 -0.0392622 -0.419729 
0.0317371 -0.0452601 -0.401979 0.0227649 -0.0503285 -0.383494 0.0139923 -0.0544642 -0.364377 
0.00539409 -0.0576955 -0.344733 -0.00306919 -0.0600763 -0.324656 -0.0114423 -0.0616785 -0.304217 
-0.0197646 -0.0625847 -0.28346 -0.0280599 -0.0628812 -0.262398 -0.0363277 -0.062652 -0.241013 
-0.0445367 -0.0619739 -0.219261 -0.0526206 -0.0609142 -0.197085 -0.0604791 -0.0595286 -0.174421 
-0.0679807 -0.0578623 -0.151214 -0.0749701 -0.0559512 -0.127431 -0.0812778 -0.053824 -0.103063 
-0.0867323 -0.0515054 -0.0781424 -0.0911719 -0.0490185 -0.0527368 -0.0944576 -0.0463873 -0.0269525 
-0.0964833 -0.0436387 -0.000928074 -0.097184 -0.040803 0.0251741 -0.0965409 -0.0379143 0.0511781 
-0.0945822 -0.0350101 0.0769065 -0.0913809 -0.0321295 0.102191 -0.0870485 -0.0293125 0.126885 
-0.0817264 -0.0265974 0.150866 -0.0755753 -0.0240195 0.174048 -0.068764 -0.0216094 0.196378 
-0.0614578 -0.0193917 0.217837 -0.0538094 -0.0173846 0.238436 -0.0459508 -0.0155991 0.258212 
-0.0379884 -0.0140395 0.277219 -0.0300018 -0.0127038 0.295523 -0.0220438 -0.0115844 0.313196 
-0.0141447 -0.0106691 0.330308 -0.00631747 -0.00994252 0.346922 0.00143581 -0.00938694 0.363095 
0.00911707 -0.00898372 0.378872 0.0167261 -0.00871426 0.394288 0.0242556 -0.00856095 0.409366 
0.0316881 -0.00850791 0.424119 0.038995 -0.00854154 0.438551 0.0461371 -0.00865081 0.452657 
0.0530677 -0.0088273 0.466425 0.0597367 -0.00906501 0.479838 0.0660949 -0.00935986 0.492871 
0.0720995 -0.00970907 0.505496 0.0777179 -0.0101103 0.517682 0.0829313 -0.0105607 0.529394 
0.0877367 -0.0110563 0.5406 0.0921469 -0.0115907 0.551269 0.0961892 -0.0121552 0.561375 
0.0999028 -0.0127381 0.570899 0.103335 -0.0133249 0.579829 0.106536 -0.0138991 0.588163 
0.109557 -0.0144428 0.595909 0.112441 -0.0149383 0.603082 0.115223 -0.0153691 0.609704 
0.117927 -0.0157217 0.615803 0.120565 -0.0159869 0.621406 0.123132 -0.0161608 0.626537 
0.125615 -0.0162456 0.631216 0.127986 -0.0162496 0.635457 0.130211 -0.0161868 0.639263 
0.132251 -0.016076 0.642629 0.134064 -0.015939 0.645542 0.135608 -0.0157993 0.647982 
0.136847 -0.0156793 0.649928 0.137747 -0.0155988 0.651356 0.138286 -0.0155732 0.652248 
0.138448 -0.0156117 0.652589 
LINES 2 100
OFFSETS vtktypeint64
0 100 
CONNECTIVITY vtktypeint64
0 1 2 3 4 5 6 7 8 
9 10 11 12 13 14 15 16 17 
18 19 20 21 22 23 24 25 26 
27 28 29 30 31 32 33 34 35 
36 37 38 39 40 41 42 43 44 
45 46 47 48 49 50 51 52 53 
54 55 56 57 58 59 60 61 62 
63 64 65 66 67 68 69 70 71 
72 73 74 75 76 77 78 79 80 
81 82 83 84 85 86 87 88 89 
90 91 92 93 94 95 96 97 98 
99 
POINT_DATA 100
FIELD FieldData 3
_theta 1 100 double
0 0.031733259127 0.063466518254 0.095199777382 0.12693303651 0.15866629564 0.19039955476 0.22213281389 0.25386607302 
0.28559933214 0.31733259127 0.3490658504 0.38079910953 0.41253236865 0.44426562778 0.47599888691 0.50773214603 0.53946540516 
0.57119866429 0.60293192342 0.63466518254 0.66639844167 0.6981317008 0.72986495992 0.76159821905 0.79333147818 0.82506473731 
0.85679799643 0.88853125556 0.92026451469 0.95199777382 0.98373103294 1.0154642921 1.0471975512 1.0789308103 1.1106640695 
1.1423973286 1.1741305877 1.2058638468 1.237597106 1.2693303651 1.3010636242 1.3327968833 1.3645301425 1.3962634016 
1.4279966607 1.4597299198 1.491463179 1.5231964381 1.5549296972 1.5866629564 1.6183962155 1.6501294746 1.6818627337 
1.7135959929 1.745329252 1.7770625111 1.8087957702 1.8405290294 1.8722622885 1.9039955476 1.9357288068 1.9674620659 
1.999195325 2.0309285841 2.0626618433 2.0943951024 2.1261283615 2.1578616206 2.1895948798 2.2213281389 2.253061398 
2.2847946572 2.3165279163 2.3482611754 2.3799944345 2.4117276937 2.4434609528 2.4751942119 2.506927471 2.5386607302 
2.5703939893 2.6021272484 2.6338605076 2.6655937667 2.6973270258 2.7290602849 2.7607935441 2.7925268032 2.8242600623 
2.8559933214 2.8877265806 2.9194598397 2.9511930988 2.982926358 3.0146596171 3.0463928762 3.0781261353 3.1098593945 
3.1415926536 
_radius 1 100 double
6.5284630404e-16 0.015903067946 0.031675469817 0.047191236143 0.062341096273 0.077037883422 0.091218507801 0.10484201058 0.11788389908 
0.1303277161 0.14215540888 0.15333836351 0.1638308919 0.17356754779 0.18246502637 0.1904287023 0.1973631812 0.20318564118 
0.20784026661 0.21131177996 0.21363601712 0.21490570586 0.21527009235 0.21492777267 0.21411296018 0.21307637596 0.21206286619 
0.2112885322 0.21092037597 0.2110610947 0.21174083199 0.21291674438 0.21448044143 0.21627268592 0.21810397337 0.21977864183 
0.22111924822 0.22198762082 0.22229968214 0.22203266247 0.22122496806 0.21997015367 0.21840709302 0.21670852357 0.21506955335 
0.2136965972 0.21279605023 0.2125613712 0.21315756363 0.21470348895 0.21725466533 0.22079105515 0.22521440017 0.2303574096 
0.23600356361 0.2419132799 0.24785097162 0.25360815963 0.2590195096 0.26397058128 0.2683976769 0.27228127284 0.27563511289 
0.27849319152 0.28089664804 0.2828821452 0.28447277071 0.2856720245 0.28646111778 0.2867995891 0.28662903728 0.28587947926 
0.28447743837 0.28235446489 0.2794546044 0.27573955563 0.27119089259 0.26580950943 0.25961304092 0.25263222411 0.24490702584 
0.23648303278 0.22740826075 0.21773030465 0.207493672 0.19673722592 0.1854918756 0.17377891262 0.16160956466 0.14898627181 
0.13590582851 0.12236400488 0.1083608236 0.093905529136 0.079020457685 0.063743349571 0.048127969435 0.032243120869 0.016170262713 
6.704152647e-16 
_area 1 100 double
0 0.00064898954135 0.0025835682279 0.0057666452955 0.010136513908 0.015606666501 0.022065416155 0.029376215968 0.037380009646 
0.045900008487 0.054747462017 0.063726070657 0.07263367403 0.081261993759 0.089397044284 0.096823346803 0.10333411963 0.10874759844 
0.11292723912 0.11580152409 0.11737817638 0.11774835897 0.11707899133 0.11559495487 0.11355611629 0.11123480207 0.10889679092 
0.10678553883 0.10510992066 0.10404128659 0.10377288335 0.10462690719 0.10635277378 0.10866039567 0.11127869246 0.11390146305 
0.1162229357 0.11799408654 0.11907465999 0.11947726284 0.11935104463 0.11890785554 0.11833994593 0.11777991692 0.11725472248 
0.11690184558 0.11704850806 0.11808222053 0.11982994232 0.1224031437 0.12592398085 0.13050337652 0.13622772854 0.14307918675 
0.15090718418 0.15943536103 0.16830266014 0.17712358301 0.18554595977 0.19328948442 0.20015949202 0.2060403905 0.21087846269 
0.21466391701 0.21741767901 0.21918232512 0.22001303429 0.2199649143 0.21907618106 0.21735258582 0.21476498874 0.21126769894 
0.20682814381 0.20144934854 0.19517436894 0.18807285865 0.1802172658 0.17166215403 0.16244222098 0.15259376999 0.14218541373 
0.13133777137 0.12022292601 0.10904662337 0.098020938867 0.087334904085 0.077129419332 0.06748229849 0.058408654897 0.049878730163 
0.041848512599 0.034291872061 0.027222858914 0.020703329576 0.014837709064 0.0097594021691 0.0056130718498 0.0025359267417 0.00064037799849 
6.9388939039e-17 
