# vtk DataFile Version 5.1
vtk output
ASCII
DATASET POLYDATA
POINTS 100 float
0.127522 0.0528483 -0.656111 0.127539 0.0527085 -0.656158 0.127556 0.052026 -0.656207 
0.127593 0.0508204 -0.656173 0.127678 0.0491235 -0.655927 0.127838 0.0469759 -0.655307 
0.128092 0.0444233 -0.654135 0.128441 0.0415115 -0.652232 0.128858 0.038283 -0.64944 
0.129285 0.0347736 -0.645633 0.12963 0.0310101 -0.640725 0.129765 0.0270096 -0.634683 
0.129542 0.0227803 -0.62752 0.128791 0.0183237 -0.619292 0.127342 0.0136376 -0.610091 
0.125034 0.00872039 -0.600029 0.121733 0.00357488 -0.589226 0.117337 -0.00178735 -0.577794 
0.111794 -0.00734275 -0.565828 0.105101 -0.0130535 -0.553393 0.0973052 -0.0188667 -0.540521 
0.0885022 -0.0247145 -0.52721 0.0788247 -0.0305164 -0.513424 0.0684323 -0.0361818 -0.499103 
0.0574974 -0.0416143 -0.484174 0.0461919 -0.0467165 -0.468553 0.0346751 -0.0513939 -0.452162 
0.0230836 -0.0555602 -0.434938 0.0115263 -0.0591408 -0.416835 8.27297e-05 -0.0620764 -0.397831 
-0.0111941 -0.064325 -0.377928 -0.022271 -0.0658633 -0.35715 -0.033125 -0.066687 -0.33554 
-0.0437328 -0.0668105 -0.313153 -0.05406 -0.0662651 -0.290053 -0.0640526 -0.0650974 -0.266308 
-0.0736307 -0.0633668 -0.241982 -0.0826869 -0.0611424 -0.217141 -0.0910887 -0.0585002 -0.191847 
-0.0986853 -0.0555202 -0.166163 -0.105318 -0.0522829 -0.140154 -0.110832 -0.0488665 -0.113894 
-0.115093 -0.045344 -0.0874667 -0.117998 -0.041781 -0.0609667 -0.119488 -0.0382336 -0.0345029 
-0.119557 -0.034747 -0.00819462 -0.118251 -0.0313553 0.0178312 -0.115671 -0.0280812 0.0434461 
-0.111967 -0.0249373 0.0685273 -0.107324 -0.0219281 0.0929651 -0.101948 -0.0190521 0.11667 
-0.0960539 -0.0163048 0.139579 -0.089848 -0.0136819 0.16166 -0.0835123 -0.0111821 0.182911 
-0.0771942 -0.00880922 0.203361 -0.0709986 -0.00657386 0.223066 -0.0649849 -0.00449395 0.2421 
-0.0591688 -0.00259393 0.26055 -0.0535285 -0.000902946 0.278505 -0.0480137 0.000548006 0.296048 
-0.0425585 0.00172963 0.313252 -0.0370935 0.00261819 0.330168 -0.0315583 0.00319911 0.34683 
-0.0259121 0.00347005 0.363251 -0.0201409 0.00344275 0.379423 -0.0142614 0.00314354 0.395327 
-0.00832105 0.00261221 0.410935 -0.00239388 0.00189938 0.426215 0.00342634 0.00106241 0.441141 
0.00903531 0.000160517 0.455698 0.0143285 -0.000750688 0.469878 0.0192113 -0.00162433 0.483689 
0.0236076 -0.00242664 0.497151 0.0274668 -0.00313998 0.51029 0.0307671 -0.00376404 0.523139 
0.033516 -0.00431513 0.535724 0.0357482 -0.0048235 0.548068 0.0375196 -0.00532903 0.560177 
0.0389009 -0.00587569 0.57204 0.0399691 -0.00650556 0.583627 0.0407993 -0.00725288 0.594889 
0.041458 -0.00813916 0.60576 0.0419968 -0.00916963 0.616158 0.0424503 -0.0103318 0.625996 
0.0428343 -0.011596 0.635186 0.0431487 -0.0129184 0.643646 0.0433804 -0.0142452 0.65131 
0.0435094 -0.0155186 0.658129 0.0435144 -0.0166834 0.664077 0.0433788 -0.0176928 0.669157 
0.0430961 -0.0185135 0.673396 0.0426729 -0.0191296 0.676845 0.0421308 -0.0195438 0.679578 
0.0415052 -0.0197763 0.681682 0.0408432 -0.0198626 0.683252 0.0401988 -0.0198481 0.684386 
0.0396273 -0.0197824 0.685175 0.0391796 -0.0197126 0.685697 0.0388962 -0.0196778 0.686012 
0.038803 -0.0197035 0.686157 
LINES 2 100
OFFSETS vtktypeint64
0 100 
CONNECTIVITY vtktypeint64
0 1 2 3 4 5 6 7 8 
9 10 11 12 13 14 15 16 17 
18 19 20 21 22 23 24 25 26 
27 28 29 30 31 32 33 34 35 
36 37 38 39 40 41 42 43 44 
45 46 47 48 49 50 51 52 53 
54 55 56 57 58 59 60 61 62 
63 64 65 66 67 68 69 70 71 
72 73 74 75 76 77 78 79 80 
81 82 83 84 85 86 87 88 89 
90 91 92 93 94 95 96 97 98 
99 
POINT_DATA 100
FIELD FieldData 3
_theta 1 100 double
0 0.031733259127 0.063466518254 0.095199777382 0.12693303651 0.15866629564 0.19039955476 0.22213281389 0.25386607302 
0.28559933214 0.31733259127 0.3490658504 0.38079910953 0.41253236865 0.44426562778 0.47599888691 0.50773214603 0.53946540516 
0.57119866429 0.60293192342 0.63466518254 0.66639844167 0.6981317008 0.72986495992 0.76159821905 0.79333147818 0.82506473731 
0.85679799643 0.88853125556 0.92026451469 0.95199777382 0.98373103294 1.0154642921 1.0471975512 1.0789308103 1.1106640695 
1.1423973286 1.1741305877 1.2058638468 1.237597106 1.2693303651 1.3010636242 1.3327968833 1.3645301425 1.3962634016 
1.4279966607 1.4597299198 1.491463179 1.5231964381 1.5549296972 1.5866629564 1.6183962155 1.6501294746 1.6818627337 
1.7135959929 1.745329252 1.7770625111 1.8087957702 1.8405290294 1.8722622885 1.9039955476 1.9357288068 1.9674620659 
1.999195325 2.0309285841 2.0626618433 2.0943951024 2.1261283615 2.1578616206 2.1895948798 2.2213281389 2.253061398 
2.2847946572 2.3165279163 2.3482611754 2.3799944345 2.4117276937 2.4434609528 2.4751942119 2.506927471 2.5386607302 
2.5703939893 2.6021272484 2.6338605076 2.6655937667 2.6973270258 2.7290602849 2.7607935441 2.7925268032 2.8242600623 
2.8559933214 2.8877265806 2.9194598397 2.9511930988 2.982926358 3.0146596171 3.0463928762 3.0781261353 3.1098593945 
3.1415926536 
_radius 1 100 double
5.5857018448e-16 0.014372775217 0.028714768263 0.042990444266 0.0571728688 0.071240111719 0.085165871221 0.098907416626 0.112395 
0.12552615409 0.13816648092 0.15015669894 0.16132452886 0.1714995338 0.18052902592 0.18829332467 0.19471884142 0.19978763102 
0.20354223268 0.20608490538 0.20757084087 0.20819565897 0.2081783855 0.20774195926 0.20709380619 0.20640895951 0.2058176675 
0.20539869483 0.20517882154 0.20513840613 0.20522222705 0.20535416437 0.20545377684 0.20545264164 0.20530849299 0.20501558151 
0.20461008192 0.20416976526 0.20380768873 0.20366048364 0.20387284406 0.20458073226 0.20589623431 0.2078965627 0.21061839349 
0.21405713335 0.21816966992 0.2228790161 0.22807976966 0.23364407518 0.23942844217 0.24528199304 0.25105630561 0.25661618146 
0.26184990564 0.26667727616 0.27105395063 0.27497128563 0.27845158569 0.28153938894 0.28429003855 0.28675725847 0.28898164559 
0.2909818012 0.29274927191 0.29424773262 0.29541614954 0.29617516003 0.29643561842 0.29610812887 0.29511236904 0.29338508967 
0.29088587098 0.28760002741 0.28353844408 0.27873453712 0.27323888219 0.26711229843 0.26041828588 0.25321570725 0.24555250984 
0.2374611274 0.22895598805 0.22003327334 0.21067274372 0.20084113995 0.19049649845 0.17959275195 0.16808419706 0.15592967615 
0.14309650792 0.12956424433 0.11532825144 0.1004029694 0.084824561472 0.068652559119 0.051970088044 0.034882346043 0.017513195727 
2.1502620833e-16 
_area 1 100 double
0 0.00064664260673 0.0025667655106 0.0057033402227 0.0099689521403 0.015255999241 0.02144780748 0.028426048228 0.036068800134 
0.044237848973 0.052762481627 0.061430582515 0.069992408918 0.078175759077 0.085708595921 0.092344923038 0.097889687982 0.10221842221 
0.1052878344 0.10713523841 0.10786740137 0.10764210854 0.10664724596 0.10508210963 0.10314430136 0.10102334244 0.098899892205 
0.096952952434 0.095442074615 0.094684003369 0.09450633474 0.094833568581 0.095567602646 0.096608114447 0.097833485628 0.099125712904 
0.1004018893 0.10163939268 0.10288498087 0.10423479529 0.10579508371 0.10770024714 0.11007895991 0.11303384287 0.11660810967 
0.12076833616 0.1255260443 0.13092014238 0.13700837769 0.14382915727 0.15134707675 0.15941746504 0.16779112724 0.1761485635 
0.184146068 0.19146409748 0.19785205512 0.20316552954 0.20741416464 0.21094631347 0.21406061749 0.2169475851 0.21961767552 
0.22195065275 0.22389565887 0.22532613346 0.22606239387 0.22591150368 0.22470050629 0.22230185151 0.21865114904 0.21375605975 
0.20769508931 0.20060617014 0.19266692386 0.18407077741 0.17500480474 0.1656347573 0.15609893261 0.14650759511 0.13694332826 
0.12746050751 0.118085265 0.10881829376 0.099641803797 0.090530205034 0.081462733757 0.072435653189 0.063471790847 0.054625865303 
0.045985058393 0.037665301543 0.029804525625 0.022554439586 0.01607206664 0.010511471808 0.0060154830406 0.0027072394862 0.00068197469034 
7.1574279909e-18 
