# vtk DataFile Version 5.1
vtk output
ASCII
DATASET POLYDATA
POINTS 100 float
0.0483105 0.0611151 -0.731584 0.0484414 0.0611857 -0.731623 0.048833 0.0612381 -0.73172 
0.0494501 0.0612355 -0.731771 0.0502378 0.0611219 -0.731616 0.0511277 0.0608278 -0.731058 
0.0520446 0.0602785 -0.729879 0.0529138 0.0594019 -0.727863 0.0536667 0.0581364 -0.724822 
0.0542443 0.056437 -0.720606 0.0545981 0.0542799 -0.715122 0.0546887 0.0516645 -0.708334 
0.054481 0.048612 -0.700261 0.0539399 0.0451627 -0.690976 0.0530238 0.0413705 -0.680582 
0.0516808 0.0372967 -0.669206 0.049846 0.0330028 -0.656974 0.0474431 0.0285446 -0.644001 
0.0443884 0.0239671 -0.630372 0.0405985 0.0193013 -0.61614 0.0360006 0.0145637 -0.601323 
0.0305435 0.00975837 -0.585902 0.0242086 0.00488005 -0.569837 0.0170184 -7.96983e-05 -0.55307 
0.00904088 -0.00512638 -0.535544 0.000389574 -0.0102561 -0.517214 -0.00878207 -0.0154498 -0.498054 
-0.0182915 -0.0206697 -0.478068 -0.027942 -0.0258568 -0.457287 -0.0375402 -0.0309319 -0.435771 
-0.0469137 -0.0357989 -0.413599 -0.0559267 -0.0403497 -0.390859 -0.0644918 -0.0444717 -0.367639 
-0.0725757 -0.0480555 -0.344013 -0.0801971 -0.0510037 -0.320033 -0.0874187 -0.0532375 -0.295724 
-0.0943319 -0.0547039 -0.271083 -0.101037 -0.0553787 -0.24608 -0.107622 -0.0552686 -0.220671 
-0.11414 -0.0544103 -0.194804 -0.120594 -0.052867 -0.168436 -0.126922 -0.0507234 -0.141543 
-0.132996 -0.0480793 -0.114135 -0.138626 -0.0450421 -0.0862595 -0.143575 -0.04172 -0.0580094 
-0.147576 -0.0382152 -0.0295184 -0.150366 -0.0346195 -0.000954893 -0.151704 -0.0310102 0.0274888 
-0.151406 -0.027449 0.055611 -0.149364 -0.0239816 0.0832161 -0.145557 -0.0206403 0.110129 
-0.140063 -0.0174462 0.136211 -0.133046 -0.0144135 0.161362 -0.124748 -0.0115529 0.185534 
-0.115461 -0.00887549 0.208724 -0.105502 -0.00639598 0.230969 -0.0951806 -0.00413426 0.252342 
-0.0847705 -0.00211644 0.272933 -0.0744861 -0.000374364 0.292842 -0.0644653 0.00105595 0.312164 
-0.0547634 0.00213677 0.330979 -0.0453561 0.00283189 0.349347 -0.0361522 0.00311007 0.367303 
-0.0270148 0.00294864 0.384861 -0.0177866 0.00233664 0.402015 -0.00831786 0.00127746 0.418751 
0.00150831 -0.000209417 0.435051 0.0117542 -0.00208765 0.450906 0.022414 -0.0043044 0.466318 
0.0334086 -0.0067918 0.481312 0.0445895 -0.00946949 0.495927 0.0557519 -0.0122482 0.510226 
0.0666535 -0.0150339 0.524279 0.0770381 -0.0177328 0.538161 0.0866602 -0.0202564 0.551943 
0.0953082 -0.0225265 0.565677 0.102823 -0.0244801 0.57939 0.10911 -0.026073 0.593077 
0.114143 -0.0272827 0.606697 0.117967 -0.0281105 0.620174 0.120679 -0.0285806 0.633396 
0.122426 -0.0287392 0.646229 0.123376 -0.028651 0.658522 0.123709 -0.0283942 0.670119 
0.123596 -0.0280552 0.680873 0.123188 -0.0277214 0.690657 0.122606 -0.0274747 0.699373 
0.121937 -0.0273844 0.706958 0.121241 -0.0275022 0.713392 0.120546 -0.0278573 0.718696 
0.119866 -0.0284542 0.722929 0.119201 -0.0292722 0.726187 0.118552 -0.0302677 0.728591 
0.11792 -0.0313773 0.730279 0.117318 -0.0325244 0.731399 0.116763 -0.0336258 0.732095 
0.11628 -0.034599 0.732499 0.115895 -0.0353707 0.732725 0.115632 -0.0358827 0.732858 
0.11551 -0.036098 0.732952 
LINES 2 100
OFFSETS vtktypeint64
0 100 
CONNECTIVITY vtktypeint64
0 1 2 3 4 5 6 7 8 
9 10 11 12 13 14 15 16 17 
18 19 20 21 22 23 24 25 26 
27 28 29 30 31 32 33 34 35 
36 37 38 39 40 41 42 43 44 
45 46 47 48 49 50 51 52 53 
54 55 56 57 58 59 60 61 62 
63 64 65 66 67 68 69 70 71 
72 73 74 75 76 77 78 79 80 
81 82 83 84 85 86 87 88 89 
90 91 92 93 94 95 96 97 98 
99 
POINT_DATA 100
FIELD FieldData 3
_theta 1 100 double
0 0.031733259127 0.063466518254 0.095199777382 0.12693303651 0.15866629564 0.19039955476 0.22213281389 0.25386607302 
0.28559933214 0.31733259127 0.3490658504 0.38079910953 0.41253236865 0.44426562778 0.47599888691 0.50773214603 0.53946540516 
0.57119866429 0.60293192342 0.63466518254 0.66639844167 0.6981317008 0.72986495992 0.76159821905 0.79333147818 0.82506473731 
0.85679799643 0.88853125556 0.92026451469 0.95199777382 0.98373103294 1.0154642921 1.0471975512 1.0789308103 1.1106640695 
1.1423973286 1.1741305877 1.2058638468 1.237597106 1.2693303651 1.3010636242 1.3327968833 1.3645301425 1.3962634016 
1.4279966607 1.4597299198 1.491463179 1.5231964381 1.5549296972 1.5866629564 1.6183962155 1.6501294746 1.6818627337 
1.7135959929 1.745329252 1.7770625111 1.8087957702 1.8405290294 1.8722622885 1.9039955476 1.9357288068 1.9674620659 
1.999195325 2.0309285841 2.0626618433 2.0943951024 2.1261283615 2.1578616206 2.1895948798 2.2213281389 2.253061398 
2.2847946572 2.3165279163 2.3482611754 2.3799944345 2.4117276937 2.4434609528 2.4751942119 2.506927471 2.5386607302 
2.5703939893 2.6021272484 2.6338605076 2.6655937667 2.6973270258 2.7290602849 2.7607935441 2.7925268032 2.8242600623 
2.8559933214 2.8877265806 2.9194598397 2.9511930988 2.982926358 3.0146596171 3.0463928762 3.0781261353 3.1098593945 
3.1415926536 
_radius 1 100 double
1.4703252574e-16 0.015287506706 0.030417228606 0.045241608619 0.059630480164 0.073476582338 0.086697873346 0.099236390521 0.11105405659 
0.12212631711 0.13243471367 0.14195958043 0.15067415508 0.15854147902 0.16551527518 0.171545311 0.17658664752 0.18061106304 
0.18361830527 0.18564486435 0.18676850695 0.18710759373 0.18681503252 0.18606751353 0.18505135821 0.18394679878 0.18291272113 
0.18207382225 0.18151177417 0.18126142608 0.18131245199 0.18161625296 0.18209723506 0.18266661665 0.1832359371 0.18372740803 
0.18407988334 0.18425156761 0.18422158602 0.18399165832 0.18358778844 0.1830612283 0.18248786043 0.18196521624 0.18160667883 
0.18153318796 0.18186369671 0.18270592927 0.18414820847 0.18625206082 0.18904527526 0.19251614405 0.19661044122 0.20123236828 
0.20624971432 0.21150276868 0.21681614754 0.22201216816 0.226923834 0.23140548385 0.23533986428 0.23864137545 0.24125606182 
0.24315939365 0.24435297743 0.24486107291 0.24472731911 0.24401162157 0.24278690819 0.2411354331 0.23914438952 0.2369006925 
0.23448491913 0.23196462835 0.22938765114 0.22677631573 0.2241237125 0.22139283893 0.21851883326 0.21541373766 0.21197265518 
0.20808007669 0.20361565512 0.19845954236 0.19249803164 0.18563018254 0.17777533193 0.16888042167 0.15892554184 0.14792630234 
0.13593243468 0.1230229599 0.10929894596 0.094875148935 0.07987174484 0.064407106271 0.048592332373 0.032528051422 0.016303805309 
8.9338974152e-16 
_area 1 100 double
0 0.00049768082894 0.002000651942 0.004528972001 0.0080884296779 0.012643130955 0.018097390017 0.024294323491 0.031031230947 
0.038085417071 0.045240889997 0.052307168609 0.059125468513 0.065562933916 0.071500184081 0.076819645945 0.08140144399 0.085130452517 
0.087913290103 0.089699096606 0.090495722451 0.090375344894 0.089468668989 0.087951111738 0.086025968848 0.083909024264 0.081816662115 
0.079953781219 0.078491727468 0.077538289895 0.077126470645 0.077231534589 0.077794558942 0.078740017604 0.079987253261 0.081455368092 
0.083061285584 0.084716977537 0.086336719595 0.087853543779 0.089233869038 0.090484299221 0.091644934908 0.09276026181 0.093838213345 
0.094854674999 0.095801550878 0.096720251411 0.097716542273 0.098969709575 0.10072648867 0.10325934916 0.10680539263 0.1115262161 
0.11740596227 0.12416402177 0.13139913232 0.13867507296 0.14556068005 0.15167657976 0.1567285925 0.16052334223 0.16299203517 
0.16421470574 0.1644058123 0.16382881315 0.16269375338 0.16113861218 0.1592467706 0.15705695411 0.15457973232 0.15182112653 
0.14880025411 0.14555293357 0.14212370693 0.13855296366 0.13486420617 0.13105401387 0.12708666053 0.12289570649 0.11839353016 
0.11348596055 0.1080862047 0.1021238792 0.095550150062 0.088343780554 0.080521780264 0.072153345851 0.063370848548 0.054370364337 
0.045397657791 0.036721669061 0.028602903956 0.021265918481 0.014882872029 0.0095705399468 0.0053984988684 0.0024031028929 0.00060125568808 
6.490586018e-17 
