# vtk DataFile Version 5.1
vtk output
ASCII
DATASET POLYDATA
POINTS 100 float
0.140431 -0.0449036 0.729751 0.140346 -0.04483 0.729389 0.140003 -0.0447542 0.728461 
0.139409 -0.044663 0.726996 0.138575 -0.0445359 0.725038 0.137516 -0.0443472 0.722637 
0.136255 -0.0440686 0.719842 0.134813 -0.0436731 0.716692 0.133217 -0.0431375 0.713205 
0.131492 -0.0424454 0.709376 0.129658 -0.0415895 0.705175 0.127729 -0.0405731 0.700545 
0.12571 -0.03941 0.695408 0.123592 -0.0381236 0.689673 0.121352 -0.0367449 0.683247 
0.118951 -0.0353094 0.676041 0.116339 -0.0338531 0.667986 0.113455 -0.0324085 0.659035 
0.110233 -0.0310007 0.649174 0.106609 -0.0296439 0.638422 0.102529 -0.0283393 0.62683 
0.097952 -0.027074 0.614477 0.0928606 -0.0258221 0.601463 0.0872618 -0.0245471 0.587899 
0.0811894 -0.023206 0.573899 0.0747023 -0.0217547 0.55957 0.0678793 -0.020154 0.545005 
0.0608123 -0.018376 0.530274 0.0535967 -0.0164092 0.515426 0.0463207 -0.0142629 0.500483 
0.0390559 -0.0119698 0.485445 0.0318482 -0.00958564 0.470291 0.0247129 -0.00718714 0.45498 
0.017632 -0.00486726 0.439459 0.0105572 -0.00272848 0.423664 0.00341639 -0.000874865 0.407524 
-0.00387607 0.000596514 0.39096 -0.0114059 0.00160374 0.373888 -0.0192442 0.002087 0.356222 
-0.027433 0.00201352 0.337873 -0.0359731 0.00137989 0.318749 -0.0448145 0.000211554 0.298763 
-0.0538529 -0.0014406 0.277835 -0.0629307 -0.00350604 0.255898 -0.0718445 -0.00590228 0.232908 
-0.0803576 -0.00854339 0.208845 -0.088216 -0.0113485 0.183725 -0.0951684 -0.0142492 0.1576 
-0.100985 -0.0171948 0.130563 -0.105479 -0.0201553 0.102743 -0.108515 -0.0231208 0.0743037 
-0.110029 -0.0260986 0.0454298 -0.110024 -0.0291075 0.0163188 -0.108573 -0.0321697 -0.0128333 
-0.105811 -0.0353031 -0.0418456 -0.101916 -0.0385119 -0.0705646 -0.0970982 -0.0417806 -0.0988734 
-0.0915781 -0.0450683 -0.126698 -0.0855651 -0.0483069 -0.154005 -0.0792421 -0.0514023 -0.180803 
-0.0727506 -0.0542385 -0.207127 -0.0661822 -0.056685 -0.233029 -0.0595745 -0.0586053 -0.258567 
-0.0529146 -0.0598675 -0.283782 -0.0461459 -0.0603539 -0.308694 -0.0391806 -0.0599697 -0.333287 
-0.0319143 -0.0586505 -0.357508 -0.0242417 -0.0563652 -0.381266 -0.0160722 -0.0531181 -0.404442 
-0.00734299 -0.0489462 -0.426893 0.00197152 -0.0439145 -0.448478 0.0118538 -0.03811 -0.469064 
0.0222425 -0.0316337 -0.488545 0.0330352 -0.0245928 -0.506858 0.0440964 -0.0170944 -0.523983 
0.0552667 -0.00923994 -0.539951 0.0663746 -0.001122 -0.554838 0.0772484 0.00717656 -0.568752 
0.0877276 0.0155816 -0.581823 0.0976722 0.0240252 -0.594179 0.10697 0.0324419 -0.605936 
0.115539 0.0407654 -0.617174 0.123333 0.0489256 -0.62793 0.130336 0.0568468 -0.638194 
0.136559 0.0644485 -0.647903 0.142036 0.0716472 -0.656958 0.14682 0.0783606 -0.665233 
0.150972 0.0845126 -0.672594 0.154559 0.0900396 -0.67892 0.157646 0.0948955 -0.684124 
0.160294 0.099057 -0.68817 0.162556 0.102525 -0.691081 0.164479 0.105327 -0.692944 
0.166096 0.107513 -0.693907 0.167435 0.10915 -0.694165 0.168515 0.110317 -0.693942 
0.169348 0.111096 -0.69347 0.169942 0.111562 -0.69296 0.170303 0.111778 -0.692584 
0.170432 0.111782 -0.692455 
LINES 2 100
OFFSETS vtktypeint64
0 100 
CONNECTIVITY vtktypeint64
0 1 2 3 4 5 6 7 8 
9 10 11 12 13 14 15 16 17 
18 19 20 21 22 23 24 25 26 
27 28 29 30 31 32 33 34 35 
36 37 38 39 40 41 42 43 44 
45 46 47 48 49 50 51 52 53 
54 55 56 57 58 59 60 61 62 
63 64 65 66 67 68 69 70 71 
72 73 74 75 76 77 78 79 80 
81 82 83 84 85 86 87 88 89 
90 91 92 93 94 95 96 97 98 
99 
POINT_DATA 100
FIELD FieldData 3
_theta 1 100 double
0 0.031733259127 0.063466518254 0.095199777382 0.12693303651 0.15866629564 0.19039955476 0.22213281389 0.25386607302 
0.28559933214 0.31733259127 0.3490658504 0.38079910953 0.41253236865 0.44426562778 0.47599888691 0.50773214603 0.53946540516 
0.57119866429 0.60293192342 0.63466518254 0.66639844167 0.6981317008 0.72986495992 0.76159821905 0.79333147818 0.82506473731 
0.85679799643 0.88853125556 0.92026451469 0.95199777382 0.98373103294 1.0154642921 1.0471975512 1.0789308103 1.1106640695 
1.1423973286 1.1741305877 1.2058638468 1.237597106 1.2693303651 1.3010636242 1.3327968833 1.3645301425 1.3962634016 
1.4279966607 1.4597299198 1.491463179 1.5231964381 1.5549296972 1.5866629564 1.6183962155 1.6501294746 1.6818627337 
1.7135959929 1.745329252 1.7770625111 1.8087957702 1.8405290294 1.8722622885 1.9039955476 1.9357288068 1.9674620659 
1.999195325 2.0309285841 2.0626618433 2.0943951024 2.1261283615 2.1578616206 2.1895948798 2.2213281389 2.253061398 
2.2847946572 2.3165279163 2.3482611754 2.3799944345 2.4117276937 2.4434609528 2.4751942119 2.506927471 2.5386607302 
2.5703939893 2.6021272484 2.6338605076 2.6655937667 2.6973270258 2.7290602849 2.7607935441 2.7925268032 2.8242600623 
2.8559933214 2.8877265806 2.9194598397 2.9511930988 2.982926358 3.0146596171 3.0463928762 3.0781261353 3.1098593945 
3.1415926536 
_radius 1 100 double
3.7470027081e-16 0.014857216586 0.029579434194 0.044049713626 0.058176396524 0.071900774982 0.085199550979 0.098081442753 0.11057823117 
0.12273158943 0.13457797768 0.14613440881 0.15738775766 0.16828946703 0.1787562712 0.1886763648 0.19791967657 0.20635067139 
0.21384222897 0.22028936345 0.2256216692 0.22981337322 0.23288983913 0.23492943877 0.23605999681 0.23644956108 0.23629201496 
0.23578890766 0.23512965054 0.23447269469 0.23393028121 0.23355877455 0.23335558275 0.23326255581 0.23317491447 0.23295442822 
0.23244565632 0.23149422789 0.22996599014 0.22776533413 0.22485042491 0.22124283877 0.21702950292 0.21235586253 0.2074106859 
0.2024045473 0.19754541963 0.19301562559 0.18895437785 0.18544907715 0.18253634632 0.18021088388 0.17843780392 0.17716354919 
0.17632220167 0.17583725439 0.17562193732 0.17558212617 0.17562387012 0.17566406332 0.17564052663 0.17551816755 0.17528995321 
0.17497341558 0.17460443062 0.17423010138 0.17390204074 0.17367051867 0.17357925925 0.1736606411 0.17393171223 0.17439201227 
0.17502384725 0.17579459341 0.17665979194 0.17756569387 0.17845028095 0.17924234686 0.17985890459 0.18020191353 0.18015588698 
0.17958808169 0.17835252436 0.17629815044 0.17328010442 0.16917220219 0.16387806544 0.15733868274 0.14953504236 0.14048573217 
0.13024064314 0.11887279557 0.10647057458 0.093132224312 0.078963451969 0.064077798658 0.048598491553 0.03266012685 0.016408799546 
7.9876508746e-16 
_area 1 100 double
0 0.00056990378142 0.0022609594793 0.0050202892512 0.0087694669713 0.013417075169 0.018872573476 0.025058431895 0.031917515615 
0.039413287839 0.047521542576 0.05621423955 0.06543871258 0.075098290202 0.085041104261 0.095061161709 0.10491125666 0.11432406263 
0.12303695545 0.13081689807 0.13748285971 0.14292404715 0.14711248577 0.15010835337 0.15205636108 0.15317189015 0.15371686438 
0.15396733042 0.15417676079 0.15454064499 0.15516918318 0.156075009 0.15717888027 0.15832897904 0.15932553715 0.15994609103 
0.16000075569 0.15936197603 0.1577303389 0.15498054986 0.15118487535 0.14661252148 0.14123046446 0.13526669029 0.12908485459 
0.12304505239 0.11744582947 0.11247934574 0.10821176252 0.10459882981 0.10152615515 0.098849813456 0.096417706099 0.094083675733 
0.091742214342 0.089357521053 0.086958449283 0.084610578764 0.082380598588 0.080303279914 0.078367372214 0.076533478641 0.074767837724 
0.073063194622 0.071443703857 0.069964166236 0.068648579982 0.067479325185 0.066453383885 0.065596254931 0.064948854626 0.064556539681 
0.064463627578 0.064709867198 0.065354309806 0.066468289171 0.067948554429 0.069649405428 0.071442652861 0.073190864074 0.074725109129 
0.075842589131 0.076318085854 0.075927566858 0.074479844681 0.071849222442 0.06800080984 0.063001687488 0.057015144993 0.050280218826 
0.043082616202 0.035724524417 0.028499654062 0.021676910693 0.015492604045 0.010148479206 0.005812021614 0.0026164012854 0.00065914017445 
8.1617082959e-17 
