# vtk DataFile Version 5.1
vtk output
ASCII
DATASET POLYDATA
POINTS 100 float
0.127657 -0.0358482 0.656762 0.127588 -0.0357174 0.656358 0.127337 -0.0354847 0.655306 
0.126892 -0.0351522 0.653659 0.126241 -0.0347229 0.651494 0.125366 -0.0342005 0.648902 
0.124252 -0.0335897 0.645974 0.122886 -0.0328961 0.642784 0.121263 -0.0321267 0.63938 
0.119387 -0.0312891 0.635771 0.117267 -0.0303921 0.631928 0.114925 -0.0294442 0.627782 
0.112388 -0.0284539 0.623231 0.109686 -0.0274285 0.618158 0.106848 -0.0263737 0.612439 
0.1039 -0.0252929 0.605964 0.10086 -0.0241869 0.598647 0.0977336 -0.0230542 0.590444 
0.0945123 -0.0218908 0.581354 0.0911747 -0.0206918 0.571425 0.0876864 -0.0194515 0.560747 
0.0840036 -0.0181655 0.54944 0.0800773 -0.016832 0.537646 0.0758594 -0.0154526 0.525509 
0.071308 -0.0140341 0.513162 0.0663935 -0.0125887 0.50071 0.0611031 -0.0111341 0.488224 
0.0554443 -0.0096934 0.475733 0.0494454 -0.00829389 0.463227 0.0431549 -0.00696543 0.45066 
0.0366376 -0.00573869 0.43796 0.0299695 -0.00464314 0.425042 0.0232307 -0.00370515 0.411819 
0.0164976 -0.00294636 0.398217 0.00983594 -0.00238263 0.384179 0.00329423 -0.00202366 0.369673 
-0.00310088 -0.00187325 0.354692 -0.0093464 -0.00193035 0.339249 -0.0154621 -0.00219056 0.323371 
-0.0214868 -0.00264811 0.307087 -0.0274711 -0.00329779 0.29042 -0.0334697 -0.00413678 0.273381 
-0.0395302 -0.00516589 0.255957 -0.0456842 -0.00639018 0.238111 -0.0519371 -0.00781853 0.219787 
-0.0582614 -0.00946241 0.200914 -0.0645926 -0.0113337 0.181415 -0.0708283 -0.0134418 0.16122 
-0.0768318 -0.0157904 0.140275 -0.0824386 -0.0183741 0.118559 -0.0874673 -0.0211758 0.0960822 
-0.0917314 -0.0241641 0.0728967 -0.0950533 -0.0272925 0.0490905 -0.0972778 -0.0304998 0.0247829 
-0.0982839 -0.0337112 0.000113968 -0.0979943 -0.0368421 -0.0247679 -0.0963809 -0.0398017 -0.0497194 
-0.0934665 -0.0424982 -0.0746146 -0.0893218 -0.044844 -0.0993543 -0.0840586 -0.0467614 -0.123871 
-0.0778196 -0.0481866 -0.148131 -0.0707659 -0.0490734 -0.172128 -0.0630637 -0.0493952 -0.195876 
-0.0548714 -0.0491457 -0.219397 -0.0463281 -0.0483371 -0.242713 -0.0375452 -0.0469977 -0.265827 
-0.0286016 -0.0451677 -0.28872 -0.019543 -0.0428947 -0.311346 -0.0103844 -0.0402287 -0.333626 
-0.00111698 -0.0372173 -0.355459 0.00828288 -0.0339022 -0.376725 0.0178434 -0.0303169 -0.397302 
0.0275866 -0.0264852 -0.417073 0.0375186 -0.0224227 -0.435945 0.047622 -0.0181385 -0.453851 
0.0578514 -0.0136394 -0.470761 0.0681323 -0.00893324 -0.486684 0.0783631 -0.00403454 -0.501657 
0.0884207 0.00103197 -0.515744 0.0981685 0.00622792 -0.529016 0.107466 0.0114994 -0.541546 
0.11618 0.0167772 -0.553387 0.124191 0.0219782 -0.564568 0.131407 0.02701 -0.575082 
0.137763 0.0317754 -0.584893 0.14323 0.0361797 -0.593929 0.147812 0.0401372 -0.602103 
0.151546 0.0435785 -0.609321 0.154493 0.046456 -0.615501 0.156738 0.0487485 -0.620587 
0.158378 0.0504635 -0.624563 0.159518 0.0516372 -0.627467 0.160261 0.0523315 -0.629385 
0.160705 0.0526297 -0.630459 0.160937 0.0526291 -0.630866 0.161033 0.0524329 -0.63081 
0.161052 0.0521415 -0.630499 0.16104 0.0518433 -0.630122 0.16103 0.0516076 -0.629832 
0.16104 0.0514782 -0.629731 
LINES 2 100
OFFSETS vtktypeint64
0 100 
CONNECTIVITY vtktypeint64
0 1 2 3 4 5 6 7 8 
9 10 11 12 13 14 15 16 17 
18 19 20 21 22 23 24 25 26 
27 28 29 30 31 32 33 34 35 
36 37 38 39 40 41 42 43 44 
45 46 47 48 49 50 51 52 53 
54 55 56 57 58 59 60 61 62 
63 64 65 66 67 68 69 70 71 
72 73 74 75 76 77 78 79 80 
81 82 83 84 85 86 87 88 89 
90 91 92 93 94 95 96 97 98 
99 
POINT_DATA 100
FIELD FieldData 3
_theta 1 100 double
0 0.031733259127 0.063466518254 0.095199777382 0.12693303651 0.15866629564 0.19039955476 0.22213281389 0.25386607302 
0.28559933214 0.31733259127 0.3490658504 0.38079910953 0.41253236865 0.44426562778 0.47599888691 0.50773214603 0.53946540516 
0.57119866429 0.60293192342 0.63466518254 0.66639844167 0.6981317008 0.72986495992 0.76159821905 0.79333147818 0.82506473731 
0.85679799643 0.88853125556 0.92026451469 0.95199777382 0.98373103294 1.0154642921 1.0471975512 1.0789308103 1.1106640695 
1.1423973286 1.1741305877 1.2058638468 1.237597106 1.2693303651 1.3010636242 1.3327968833 1.3645301425 1.3962634016 
1.4279966607 1.4597299198 1.491463179 1.5231964381 1.5549296972 1.5866629564 1.6183962155 1.6501294746 1.6818627337 
1.7135959929 1.745329252 1.7770625111 1.8087957702 1.8405290294 1.8722622885 1.9039955476 1.9357288068 1.9674620659 
1.999195325 2.0309285841 2.0626618433 2.0943951024 2.1261283615 2.1578616206 2.1895948798 2.2213281389 2.253061398 
2.2847946572 2.3165279163 2.3482611754 2.3799944345 2.4117276937 2.4434609528 2.4751942119 2.506927471 2.5386607302 
2.5703939893 2.6021272484 2.6338605076 2.6655937667 2.6973270258 2.7290602849 2.7607935441 2.7925268032 2.8242600623 
2.8559933214 2.8877265806 2.9194598397 2.9511930988 2.982926358 3.0146596171 3.0463928762 3.0781261353 3.1098593945 
3.1415926536 
_radius 1 100 double
1.9626155734e-16 0.0130658939 0.026155028344 0.039295677723 0.052510247259 0.065808452609 0.07917908093 0.09258274317 0.1059482462 
0.11917428944 0.13213662262 0.14469931365 0.15672791947 0.168102274 0.17872707615 0.18853910542 0.1975104595 0.20564766421 
0.21298694152 0.21958638897 0.22551626636 0.23084888553 0.23564965661 0.2399706255 0.24384738129 0.24729959533 0.2503347685 
0.25295411292 0.25515901059 0.25695633505 0.25836120921 0.25939647909 0.26008909353 0.26046438238 0.26053967586 0.26031873755 
0.25978817988 0.25891655827 0.25765636145 0.25594874214 0.25373059356 0.25094342129 0.24754330358 0.24351101485 0.23886111753 
0.2336485901 0.22797149639 0.22196846986 0.21581049312 0.20968755671 0.20379201171 0.19830134259 0.19336328525 0.18908559497 
0.18553153791 0.18272069476 0.18063334629 0.17921609499 0.17838697896 0.17804009332 0.17805152134 0.17828862353 0.17862303907 
0.17894541407 0.1791784398 0.17928487656 0.17926867242 0.17916934541 0.17905141911 0.17899122164 0.17906307755 0.17932649021 
0.17981552595 0.18053119908 0.18143728015 0.18245969845 0.18348951505 0.18438916805 0.18500130823 0.1851591731 0.18469725755 
0.18346111825 0.18131546247 0.17815010347 0.17388377334 0.16846605424 0.16187776089 0.15413001146 0.14526206932 0.13533796142 
0.12444196079 0.11267323147 0.10014015515 0.086954950297 0.073229095191 0.059069838476 0.044577879399 0.029846246068 0.014960454064 
8.4013573711e-16 
_area 1 100 double
0 0.00049511509058 0.0019791522888 0.0044468047613 0.0078851032677 0.012268892924 0.017557510359 0.023694519397 0.030610990277 
0.038230660363 0.046473521695 0.055254322096 0.06447500442 0.074014536444 0.083723088995 0.093426903368 0.10294517268 0.11211420249 
0.12081077183 0.12896711892 0.13657300853 0.14366405025 0.15029886317 0.1565308793 0.16238347491 0.16783797036 0.17284001268 
0.17732109679 0.18122405946 0.1845204554 0.18721388802 0.18933131571 0.19090910472 0.19198056932 0.19256783312 0.19267441437 
0.19226999295 0.19127507945 0.18958047963 0.1870915634 0.18375380267 0.17955657813 0.1745292572 0.1687373133 0.16228193372 
0.15530315299 0.1479821151 0.14053576592 0.13320037178 0.12620658133 0.11975255335 0.11398049661 0.10895920501 0.1046755228 
0.10104078467 0.097916324864 0.095150353228 0.092610806331 0.090206835747 0.087901794284 0.085716917844 0.083705615067 0.081888640997 
0.080231850249 0.078702456834 0.0773024066 0.076057110672 0.074997133008 0.074151750485 0.073554666655 0.073251760543 0.073298420564 
0.073743639291 0.074612763393 0.075895325135 0.077533303237 0.079411260045 0.081355556227 0.083147607522 0.084549006115 0.0853308836 
0.085299511636 0.084312346117 0.082281626348 0.079166946436 0.074964453955 0.069704778773 0.063466400713 0.056396453599 0.048722544729 
0.040745207234 0.032811338884 0.025275425836 0.018457317299 0.012605096117 0.0078704105197 0.0043019358329 0.0018604804246 0.00045597226195 
3.1225022568e-17 
