# vtk DataFile Version 5.1
vtk output
ASCII
DATASET POLYDATA
POINTS 100 float
0.119441 0.0751708 -0.720462 0.119716 0.0748718 -0.720657 0.1205 0.074145 -0.72116 
0.121724 0.0730085 -0.721827 0.123278 0.07149 -0.722442 0.125022 0.0696225 -0.722733 
0.1268 0.0674403 -0.722405 0.128453 0.0649741 -0.721172 0.129826 0.0622476 -0.718787 
0.130784 0.0592743 -0.715063 0.131211 0.056057 -0.709894 0.131018 0.0525882 -0.703256 
0.13014 0.0488528 -0.69521 0.128529 0.0448322 -0.685884 0.126152 0.040509 -0.675456 
0.122984 0.0358726 -0.664126 0.119003 0.0309233 -0.652093 0.114184 0.0256767 -0.639532 
0.108505 0.0201652 -0.626571 0.101946 0.0144382 -0.613281 0.0944944 0.00856109 -0.599674 
0.0861566 0.00261101 -0.585707 0.0769622 -0.00332712 -0.57129 0.0669731 -0.00916599 -0.556309 
0.0562872 -0.014821 -0.54064 0.0450394 -0.0202147 -0.524169 0.0333979 -0.0252803 -0.506812 
0.0215555 -0.029963 -0.488522 0.00971768 -0.0342206 -0.469293 -0.00191227 -0.0380224 -0.449163 
-0.0131492 -0.0413467 -0.428199 -0.0238406 -0.0441783 -0.406493 -0.033878 -0.0465058 -0.384137 
-0.0432039 -0.0483198 -0.361217 -0.0518122 -0.0496122 -0.337794 -0.0597427 -0.0503762 -0.313899 
-0.0670699 -0.0506087 -0.28953 -0.0738862 -0.0503128 -0.264652 -0.0802843 -0.0495017 -0.239211 
-0.0863372 -0.0482021 -0.213143 -0.0920821 -0.046457 -0.186394 -0.0975081 -0.0443275 -0.158932 
-0.102551 -0.0418925 -0.130762 -0.107092 -0.0392464 -0.101938 -0.110973 -0.0364946 -0.0725649 
-0.114005 -0.0337475 -0.0427958 -0.115992 -0.0311131 -0.012826 -0.116755 -0.028689 0.0171216 
-0.116148 -0.0265549 0.0468134 -0.114086 -0.0247668 0.0760226 -0.110552 -0.0233529 0.104547 
-0.105603 -0.0223116 0.132222 -0.0993708 -0.0216138 0.158933 -0.0920489 -0.0212062 0.184617 
-0.0838768 -0.0210182 0.209261 -0.075117 -0.0209698 0.232898 -0.0660308 -0.0209805 0.255591 
-0.056855 -0.0209776 0.277426 -0.0477814 -0.0209033 0.298493 -0.0389427 -0.0207203 0.318878 
-0.0304053 -0.0204142 0.33865 -0.0221706 -0.0199934 0.35786 -0.0141835 -0.0194868 0.376533 
-0.00634708 -0.0189383 0.394681 0.00145796 -0.0184009 0.412299 0.00935287 -0.0179296 0.429379 
0.0174412 -0.0175745 0.445918 0.0257926 -0.0173753 0.461923 0.034432 -0.0173573 0.477416 
0.043336 -0.0175294 0.492435 0.0524348 -0.0178844 0.507033 0.0616214 -0.0184012 0.521274 
0.0707651 -0.0190483 0.535219 0.0797274 -0.0197887 0.548926 0.0883792 -0.0205841 0.562434 
0.0966149 -0.0213994 0.57576 0.104364 -0.0222055 0.588897 0.111596 -0.022981 0.601807 
0.118323 -0.0237122 0.614434 0.124593 -0.0243916 0.626701 0.130479 -0.0250161 0.638525 
0.13607 -0.0255833 0.649825 0.141456 -0.0260891 0.660534 0.146713 -0.0265258 0.670603 
0.151896 -0.0268806 0.680007 0.157031 -0.0271359 0.688748 0.162113 -0.0272716 0.69685 
0.167105 -0.0272673 0.704356 0.171952 -0.0271062 0.711315 0.17658 -0.026779 0.717776 
0.180914 -0.0262873 0.723776 0.184881 -0.0256459 0.729332 0.188423 -0.0248837 0.73444 
0.191497 -0.0240429 0.739068 0.194082 -0.0231762 0.743162 0.196171 -0.0223425 0.746653 
0.197775 -0.0216017 0.749463 0.198909 -0.0210086 0.751517 0.199591 -0.0206077 0.752752 
0.199833 -0.0204281 0.753128 
LINES 2 100
OFFSETS vtktypeint64
0 100 
CONNECTIVITY vtktypeint64
0 1 2 3 4 5 6 7 8 
9 10 11 12 13 14 15 16 17 
18 19 20 21 22 23 24 25 26 
27 28 29 30 31 32 33 34 35 
36 37 38 39 40 41 42 43 44 
45 46 47 48 49 50 51 52 53 
54 55 56 57 58 59 60 61 62 
63 64 65 66 67 68 69 70 71 
72 73 74 75 76 77 78 79 80 
81 82 83 84 85 86 87 88 89 
90 91 92 93 94 95 96 97 98 
99 
POINT_DATA 100
FIELD FieldData 3
_theta 1 100 double
0 0.031733259127 0.063466518254 0.095199777382 0.12693303651 0.15866629564 0.19039955476 0.22213281389 0.25386607302 
0.28559933214 0.31733259127 0.3490658504 0.38079910953 0.41253236865 0.44426562778 0.47599888691 0.50773214603 0.53946540516 
0.57119866429 0.60293192342 0.63466518254 0.66639844167 0.6981317008 0.72986495992 0.76159821905 0.79333147818 0.82506473731 
0.85679799643 0.88853125556 0.92026451469 0.95199777382 0.98373103294 1.0154642921 1.0471975512 1.0789308103 1.1106640695 
1.1423973286 1.1741305877 1.2058638468 1.237597106 1.2693303651 1.3010636242 1.3327968833 1.3645301425 1.3962634016 
1.4279966607 1.4597299198 1.491463179 1.5231964381 1.5549296972 1.5866629564 1.6183962155 1.6501294746 1.6818627337 
1.7135959929 1.745329252 1.7770625111 1.8087957702 1.8405290294 1.8722622885 1.9039955476 1.9357288068 1.9674620659 
1.999195325 2.0309285841 2.0626618433 2.0943951024 2.1261283615 2.1578616206 2.1895948798 2.2213281389 2.253061398 
2.2847946572 2.3165279163 2.3482611754 2.3799944345 2.4117276937 2.4434609528 2.4751942119 2.506927471 2.5386607302 
2.5703939893 2.6021272484 2.6338605076 2.6655937667 2.6973270258 2.7290602849 2.7607935441 2.7925268032 2.8242600623 
2.8559933214 2.8877265806 2.9194598397 2.9511930988 2.982926358 3.0146596171 3.0463928762 3.0781261353 3.1098593945 
3.1415926536 
_radius 1 100 double
2.0253964505e-16 0.017055370038 0.03387148907 0.050228129546 0.065932891832 0.080831640577 0.094815479088 0.10782344379 0.11984034202 
0.13088962683 0.14102196388 0.15030106549 0.15878911347 0.16653430018 0.17356255341 0.17987460203 0.18544859054 0.1902477057 
0.19423170566 0.197370705 0.19965905945 0.20112688695 0.20184689134 0.20193483647 0.20154313264 0.20084823628 0.20003360479 
0.19927063388 0.19870032865 0.1984184115 0.19846604329 0.19882729403 0.19943322094 0.20017142757 0.20089965581 0.20146217605 
0.20170800685 0.20150989977 0.20078250936 0.19949753818 0.19769336598 0.19547710264 0.19301822314 0.19053463794 0.18827354309 
0.18648994048 0.18542511518 0.18528626398 0.18622791736 0.18833623403 0.19161814704 0.19599768019 0.20132089988 0.20736921734 
0.21387906016 0.22056506555 0.22714398199 0.23335696761 0.23898851066 0.24388059689 0.24794105979 0.25114539491 0.25353178767 
0.25518972265 0.25624329215 0.25683113946 0.25708571536 0.25711494382 0.25698918427 0.25673537437 0.25633859072 0.25574948887 
0.25489487005 0.25368847481 0.25203999733 0.24986166656 0.24707280927 0.24360317313 0.23939552781 0.23440757991 0.22861292077 
0.22200073437 0.21457425928 0.20634835126 0.19734675905 0.18759978687 0.1771428326 0.16601591836 0.15426392733 0.14193700778 
0.12909059615 0.115784697 0.10208232394 0.088047272861 0.073741631103 0.05922356052 0.044545848408 0.029755489484 0.014894256862 
6.279421519e-16 
_area 1 100 double
0 0.0006248600898 0.0024821216247 0.0055204475206 0.009654524394 0.01476309817 0.020689142018 0.027248253015 0.034245584848 
0.0414945807 0.048828843463 0.056102484983 0.063181753838 0.069936197811 0.076235649752 0.081952382177 0.086964004608 0.091155249298 
0.094422250004 0.096685533863 0.097913182353 0.098146689071 0.097518873306 0.096256888558 0.094661417833 0.093044133997 0.091654672386 
0.090681145351 0.090279899466 0.090567576668 0.091592143372 0.093310368356 0.095581853201 0.098179724851 0.10081573299 0.10317668399 
0.10497077808 0.10598730529 0.1061825506 0.10575112766 0.10484577831 0.10344558652 0.10166557863 0.099761352164 0.098058233518 
0.096921750321 0.096717955977 0.097512255171 0.09926525624 0.10203140514 0.10588203309 0.11084817533 0.11688241389 0.12383996291 
0.13147984718 0.13948218271 0.14747685194 0.15507927146 0.16192861001 0.16772372623 0.17225294028 0.17541522167 0.17723177974 
0.17784705839 0.17751490154 0.17655886494 0.17529534109 0.17394073702 0.17256224196 0.17109075218 0.16936404725 0.16718083505 
0.16435706805 0.16077184568 0.15639159636 0.15126854672 0.14551649088 0.1392725941 0.13266004579 0.12576588039 0.11863584154 
0.11127956894 0.10368296618 0.095827074029 0.087709651019 0.079363117957 0.07086340621 0.062327171629 0.053898093164 0.045726217218 
0.037947642404 0.030673450237 0.023992332414 0.017981384103 0.012714998526 0.0082675977183 0.0047119312084 0.0021149617626 0.00053200080351 
6.0987784483e-17 
