# vtk DataFile Version 5.1
vtk output
ASCII
DATASET POLYDATA
POINTS 100 float
0.110577 -0.0328824 0.704914 0.110643 -0.0328341 0.704465 0.110789 -0.0328197 0.703309 
0.110968 -0.032816 0.701484 0.111109 -0.0327878 0.699048 0.111123 -0.032692 0.696067 
0.110916 -0.0324837 0.692611 0.110403 -0.0321215 0.688742 0.109513 -0.0315725 0.684502 
0.108201 -0.0308165 0.679911 0.106454 -0.0298479 0.674962 0.104291 -0.0286761 0.669622 
0.101758 -0.0273238 0.663835 0.0989249 -0.0258237 0.657532 0.0958753 -0.0242145 0.650638 
0.0926928 -0.0225359 0.643083 0.0894513 -0.0208243 0.634814 0.086204 -0.0191095 0.625799 
0.0829753 -0.0174122 0.616035 0.0797567 -0.0157439 0.605549 0.0765066 -0.0141074 0.594395 
0.073155 -0.0125 0.582651 0.0696111 -0.0109157 0.570405 0.0657751 -0.00934955 0.557754 
0.0615508 -0.00780028 0.544787 0.0568584 -0.00627277 0.53158 0.0516456 -0.00477899 0.518189 
0.0458958 -0.00333753 0.504645 0.0396324 -0.0019718 0.490956 0.0329172 -0.000707202 0.477109 
0.0258454 0.000432287 0.463076 0.0185349 0.00142737 0.448818 0.0111139 0.00226609 0.434296 
0.0037058 0.0029452 0.419475 -0.00358519 0.00347006 0.404331 -0.0106861 0.00385289 0.388851 
-0.017564 0.00410958 0.373035 -0.0242291 0.00425551 0.356888 -0.0307328 0.004301 0.340422 
-0.0371596 0.0042472 0.32364 -0.0436141 0.00408304 0.306538 -0.0502042 0.00378394 0.289094 
-0.0570224 0.00331266 0.271265 -0.064128 0.00262238 0.252986 -0.0715306 0.00166172 0.234177 
-0.0791794 0.000381257 0.214739 -0.0869574 -0.0012593 0.194574 -0.0946836 -0.00328427 0.173585 
-0.102122 -0.00569635 0.151694 -0.108995 -0.00847309 0.128848 -0.115009 -0.011566 0.105028 
-0.119871 -0.0149027 0.0802539 -0.12332 -0.0183917 0.0545871 -0.125146 -0.0219297 0.0281267 
-0.125208 -0.0254102 0.00100487 -0.123448 -0.0287327 -0.0266221 -0.119895 -0.0318108 -0.0545838 
-0.114663 -0.0345789 -0.0827064 -0.107935 -0.036996 -0.110822 -0.0999546 -0.0390464 -0.138779 
-0.0909941 -0.040737 -0.166443 -0.0813364 -0.0420914 -0.193704 -0.071248 -0.0431426 -0.220473 
-0.0609586 -0.0439238 -0.246682 -0.0506448 -0.0444596 -0.272274 -0.0404206 -0.0447584 -0.297203 
-0.0303355 -0.0448077 -0.321427 -0.02038 -0.0445719 -0.344903 -0.010498 -0.0439946 -0.367583 
-0.000603595 -0.0430035 -0.389421 0.00939854 -0.0415188 -0.410368 0.019593 -0.0394631 -0.430377 
0.0300355 -0.0367726 -0.449414 0.0407386 -0.0334067 -0.467453 0.0516637 -0.0293559 -0.484491 
0.0627198 -0.0246473 -0.500541 0.0737685 -0.0193454 -0.515639 0.0846362 -0.0135491 -0.529838 
0.0951295 -0.00738568 -0.543204 0.105054 -0.00100095 -0.555813 0.114235 0.00545187 -0.567737 
0.122531 0.011824 -0.57904 0.129852 0.0179819 -0.589773 0.136161 0.0238165 -0.599964 
0.141481 0.0292485 -0.609621 0.145889 0.034231 -0.61873 0.149501 0.0387478 -0.627258 
0.152464 0.0428091 -0.635161 0.154934 0.0464442 -0.64239 0.157062 0.049693 -0.648899 
0.158974 0.0525977 -0.654656 0.160766 0.0551947 -0.659644 0.162491 0.0575096 -0.663867 
0.16416 0.0595533 -0.667351 0.165746 0.0613227 -0.67014 0.167194 0.0628019 -0.672292 
0.168431 0.0639674 -0.673871 0.169382 0.0647934 -0.674939 0.169982 0.065257 -0.675547 
0.170186 0.0653435 -0.675731 
LINES 2 100
OFFSETS vtktypeint64
0 100 
CONNECTIVITY vtktypeint64
0 1 2 3 4 5 6 7 8 
9 10 11 12 13 14 15 16 17 
18 19 20 21 22 23 24 25 26 
27 28 29 30 31 32 33 34 35 
36 37 38 39 40 41 42 43 44 
45 46 47 48 49 50 51 52 53 
54 55 56 57 58 59 60 61 62 
63 64 65 66 67 68 69 70 71 
72 73 74 75 76 77 78 79 80 
81 82 83 84 85 86 87 88 89 
90 91 92 93 94 95 96 97 98 
99 
POINT_DATA 100
FIELD FieldData 3
_theta 1 100 double
0 0.031733259127 0.063466518254 0.095199777382 0.12693303651 0.15866629564 0.19039955476 0.22213281389 0.25386607302 
0.28559933214 0.31733259127 0.3490658504 0.38079910953 0.41253236865 0.44426562778 0.47599888691 0.50773214603 0.53946540516 
0.57119866429 0.60293192342 0.63466518254 0.66639844167 0.6981317008 0.72986495992 0.76159821905 0.79333147818 0.82506473731 
0.85679799643 0.88853125556 0.92026451469 0.95199777382 0.98373103294 1.0154642921 1.0471975512 1.0789308103 1.1106640695 
1.1423973286 1.1741305877 1.2058638468 1.237597106 1.2693303651 1.3010636242 1.3327968833 1.3645301425 1.3962634016 
1.4279966607 1.4597299198 1.491463179 1.5231964381 1.5549296972 1.5866629564 1.6183962155 1.6501294746 1.6818627337 
1.7135959929 1.745329252 1.7770625111 1.8087957702 1.8405290294 1.8722622885 1.9039955476 1.9357288068 1.9674620659 
1.999195325 2.0309285841 2.0626618433 2.0943951024 2.1261283615 2.1578616206 2.1895948798 2.2213281389 2.253061398 
2.2847946572 2.3165279163 2.3482611754 2.3799944345 2.4117276937 2.4434609528 2.4751942119 2.506927471 2.5386607302 
2.5703939893 2.6021272484 2.6338605076 2.6655937667 2.6973270258 2.7290602849 2.7607935441 2.7925268032 2.8242600623 
2.8559933214 2.8877265806 2.9194598397 2.9511930988 2.982926358 3.0146596171 3.0463928762 3.0781261353 3.1098593945 
3.1415926536 
_radius 1 100 double
8.0407380403e-16 0.013411452942 0.026881338966 0.040467004059 0.054207285243 0.068114941596 0.082171483128 0.096325102766 0.11049220844 
0.12456268052 0.13840845785 0.15189447674 0.16489049822 0.17728209905 0.1889791622 0.19992060047 0.21007472575 0.21943550371 
0.22801572015 0.23583863902 0.24292992158 0.24931138453 0.25499768895 0.25999641454 0.26431131301 0.26794793536 0.27092034476 
0.27325732255 0.27500642816 0.27623455602 0.27702425536 0.27746595647 0.27764718639 0.27764059384 0.27749289499 0.27721661795 
0.27678592629 0.27613714517 0.27517410798 0.27377807155 0.27182157782 0.26918518286 0.26577545454 0.26154215953 0.25649224524 
0.25069820436 0.24429880751 0.23749108578 0.23051384418 0.22362472933 0.21707452202 0.21108317739 0.20582160646 0.20140139686 
0.19787249605 0.19522725588 0.19340848517 0.1923192003 0.19183258281 0.19180209159 0.19207294627 0.19249613292 0.19294433782 
0.19332701245 0.19360086455 0.19377302119 0.19389607358 0.19405603622 0.19435529861 0.19489291281 0.19574449186 0.19694410957 
0.19847092898 0.20024321715 0.20212129943 0.20391905549 0.20542168057 0.20640641685 0.20666292487 0.20601057627 0.20431082438 
0.20147372392 0.1974585308 0.1922690814 0.18594527668 0.17855238975 0.17016996715 0.16088177487 0.15076770735 0.13989811781 
0.12833082223 0.11611099234 0.10327403267 0.089851165035 0.075876864416 0.061396726314 0.046474050193 0.031193556567 0.015661214855 
8.102937183e-16 
_area 1 100 double
0 0.00054176751066 0.0021660553569 0.0048680851151 0.008634585835 0.013437420855 0.019227520215 0.025931153804 0.033450037927 
0.041665682524 0.050447001422 0.059658999885 0.069170027027 0.0788559853 0.088601490139 0.098299511937 0.10785195466 0.11717284102 
0.1261929381 0.13486215828 0.14314663134 0.1510206805 0.15845734833 0.16542188528 0.17187027952 0.1777525796 0.18302165208 
0.18764883545 0.19164205824 0.19505305309 0.19796144979 0.20044065753 0.20252939931 0.20422542719 0.20549280778 0.20626935595 
0.20647438127 0.20601631665 0.20476499796 0.20254333628 0.1991993084 0.19494949626 0.18968581709 0.18377075813 0.17688825189 
0.16908936835 0.16069926722 0.15211423282 0.14372951045 0.13588626576 0.12883628646 0.12272358718 0.11757816701 0.11332160973 
0.10979307745 0.1067966279 0.1041512238 0.10172430905 0.099442976492 0.09728139802 0.095234518897 0.093312135398 0.091556971807 
0.090042371911 0.088829057585 0.087928597319 0.087327140457 0.087024040074 0.087040555118 0.087412049248 0.088179546486 0.089380977404 
0.091033789669 0.093103125323 0.095464396228 0.097892014952 0.10008707805 0.10172899096 0.10252910006 0.10226930034 0.10082271612 
0.098158397392 0.094332424261 0.089469110819 0.083737411228 0.077327554653 0.070431301523 0.063227334385 0.055872382019 0.048498643496 
0.041217846301 0.03413103346 0.027341333767 0.020965806776 0.01514272449 0.010031808411 0.0058061752645 0.0026362123999 0.00066782750355 
3.0025407507e-17 
