# vtk DataFile Version 5.1
vtk output
ASCII
DATASET POLYDATA
POINTS 100 float
0.101156 0.0384416 -0.689108 0.101156 0.0384427 -0.68911 0.101209 0.0382755 -0.689117 
0.1013 0.0379457 -0.689038 0.101407 0.0374605 -0.688725 0.101496 0.0368256 -0.687998 
0.101524 0.0360412 -0.686657 0.101442 0.0350993 -0.684501 0.10119 0.0339814 -0.681352 
0.100704 0.0326575 -0.677067 0.0999158 0.0310875 -0.671547 0.0987565 0.0292242 -0.664748 
0.097159 0.0270181 -0.656675 0.0950624 0.024424 -0.647381 0.0924152 0.0214073 -0.636952 
0.0891795 0.017951 -0.625497 0.0853335 0.014061 -0.613131 0.0808738 0.00976987 -0.599964 
0.0758165 0.00513793 -0.586091 0.0701968 0.000251619 -0.571581 0.0640669 -0.004781 -0.55648 
0.0574925 -0.00983712 -0.540806 0.0505485 -0.014788 -0.52456 0.043313 -0.0195085 -0.507729 
0.0358614 -0.0238871 -0.490298 0.0282608 -0.0278338 -0.472257 0.0205643 -0.0312871 -0.453608 
0.0128081 -0.0342176 -0.434367 0.00500948 -0.0366285 -0.414569 -0.00283261 -0.038553 -0.394262 
-0.0107341 -0.0400491 -0.373502 -0.0187206 -0.0411916 -0.352348 -0.0268201 -0.0420632 -0.330854 
-0.0350542 -0.0427449 -0.309062 -0.0434294 -0.0433069 -0.286995 -0.0519282 -0.0438019 -0.264661 
-0.0605032 -0.0442597 -0.242049 -0.0690718 -0.0446849 -0.219135 -0.077516 -0.0450582 -0.19589 
-0.0856844 -0.0453391 -0.172287 -0.0933986 -0.0454721 -0.14831 -0.100463 -0.0453937 -0.123964 
-0.106676 -0.0450401 -0.0992762 -0.111846 -0.0443556 -0.0743029 -0.115803 -0.0432987 -0.0491258 
-0.118414 -0.0418479 -0.0238484 -0.119592 -0.0400042 0.00141148 -0.119306 -0.0377927 0.0265313 
-0.117579 -0.0352607 0.0513932 -0.114493 -0.0324745 0.075894 -0.110179 -0.0295149 0.0999519 
-0.104806 -0.0264712 0.123511 -0.0985686 -0.0234352 0.146543 -0.0916744 -0.0204954 0.169043 
-0.084325 -0.0177315 0.191026 -0.0767032 -0.0152107 0.212517 -0.0689616 -0.0129843 0.233542 
-0.0612142 -0.0110865 0.254124 -0.053533 -0.00953397 0.274271 -0.045949 -0.00832668 0.293973 
-0.0384571 -0.00744965 0.313206 -0.0310249 -0.00687551 0.33193 -0.0236036 -0.00656739 0.350094 
-0.0161399 -0.00648218 0.367649 -0.00858728 -0.00657377 0.384552 -0.000915882 -0.00679633 0.400776 
0.00688105 -0.00710722 0.416316 0.0147839 -0.00746975 0.431194 0.0227472 -0.00785536 0.445457 
0.030704 -0.00824522 0.459173 0.0385731 -0.00863121 0.472427 0.0462676 -0.00901598 0.485308 
0.0537054 -0.00941213 0.497901 0.0608173 -0.00984051 0.510273 0.0675553 -0.0103275 0.522467 
0.0738968 -0.0109016 0.534498 0.0798461 -0.0115897 0.546344 0.0854329 -0.0124125 0.557956 
0.090707 -0.0133811 0.569258 0.0957314 -0.0144936 0.580159 0.100574 -0.0157325 0.590565 
0.105297 -0.0170648 0.600387 0.109952 -0.018442 0.609557 0.114571 -0.0198033 0.618029 
0.119163 -0.0210799 0.62579 0.123714 -0.0222005 0.632857 0.12819 -0.0230977 0.639272 
0.13254 -0.0237151 0.6451 0.136701 -0.0240129 0.650413 0.14061 -0.0239735 0.655284 
0.144206 -0.0236044 0.659775 0.147438 -0.0229393 0.663925 0.150271 -0.0220365 0.667752 
0.152686 -0.0209752 0.671245 0.154679 -0.0198488 0.674368 0.156259 -0.0187578 0.677066 
0.157446 -0.0178004 0.679276 0.158262 -0.0170645 0.680932 0.158728 -0.0166188 0.681978 
0.158858 -0.0165074 0.682378 
LINES 2 100
OFFSETS vtktypeint64
0 100 
CONNECTIVITY vtktypeint64
0 1 2 3 4 5 6 7 8 
9 10 11 12 13 14 15 16 17 
18 19 20 21 22 23 24 25 26 
27 28 29 30 31 32 33 34 35 
36 37 38 39 40 41 42 43 44 
45 46 47 48 49 50 51 52 53 
54 55 56 57 58 59 60 61 62 
63 64 65 66 67 68 69 70 71 
72 73 74 75 76 77 78 79 80 
81 82 83 84 85 86 87 88 89 
90 91 92 93 94 95 96 97 98 
99 
POINT_DATA 100
FIELD FieldData 3
_theta 1 100 double
0 0.031733259127 0.063466518254 0.095199777382 0.12693303651 0.15866629564 0.19039955476 0.22213281389 0.25386607302 
0.28559933214 0.31733259127 0.3490658504 0.38079910953 0.41253236865 0.44426562778 0.47599888691 0.50773214603 0.53946540516 
0.57119866429 0.60293192342 0.63466518254 0.66639844167 0.6981317008 0.72986495992 0.76159821905 0.79333147818 0.82506473731 
0.85679799643 0.88853125556 0.92026451469 0.95199777382 0.98373103294 1.0154642921 1.0471975512 1.0789308103 1.1106640695 
1.1423973286 1.1741305877 1.2058638468 1.237597106 1.2693303651 1.3010636242 1.3327968833 1.3645301425 1.3962634016 
1.4279966607 1.4597299198 1.491463179 1.5231964381 1.5549296972 1.5866629564 1.6183962155 1.6501294746 1.6818627337 
1.7135959929 1.745329252 1.7770625111 1.8087957702 1.8405290294 1.8722622885 1.9039955476 1.9357288068 1.9674620659 
1.999195325 2.0309285841 2.0626618433 2.0943951024 2.1261283615 2.1578616206 2.1895948798 2.2213281389 2.253061398 
2.2847946572 2.3165279163 2.3482611754 2.3799944345 2.4117276937 2.4434609528 2.4751942119 2.506927471 2.5386607302 
2.5703939893 2.6021272484 2.6338605076 2.6655937667 2.6973270258 2.7290602849 2.7607935441 2.7925268032 2.8242600623 
2.8559933214 2.8877265806 2.9194598397 2.9511930988 2.982926358 3.0146596171 3.0463928762 3.0781261353 3.1098593945 
3.1415926536 
_radius 1 100 double
3.695897473e-16 0.014965254259 0.029911913795 0.044809940511 0.059610685094 0.074240908941 0.088600446233 0.10256394517 0.11598644018 
0.1287118849 0.14058341698 0.15145409848 0.16119710941 0.16971472178 0.17694570072 0.18287096104 0.18751731079 0.19095897093 
0.1933163775 0.19475168874 0.19546055353 0.19566009685 0.19557368796 0.19541373922 0.1953643673 0.19556608885 0.19610471231 
0.19700615397 0.198238054 0.19971796303 0.20132681136 0.20292562424 0.20437311209 0.20554187104 0.20633155636 0.20667844376 
0.2065616156 0.20600586215 0.20508064684 0.20389438772 0.20258428878 0.2013032802 0.20020639591 0.19943872088 0.19912599288 
0.19936765998 0.2002315951 0.20175022576 0.20391889124 0.20669750227 0.21001555001 0.21377913336 0.21787836796 0.22219460517 
0.22660803801 0.23100607014 0.23529150353 0.23938871609 0.24324641177 0.24683668234 0.25015110313 0.25319498698 0.2559808464 
0.25852185465 0.26082588768 0.26289064978 0.26470036523 0.26622443286 0.26741822221 0.26822588223 0.26858473659 0.26843062515 
0.26770342777 0.26635196616 0.2643375511 0.26163565986 0.25823556375 0.25413808326 0.24935193949 0.24388935988 0.23776168873 
0.23097574939 0.22353159187 0.21542202531 0.20663400161 0.19715155314 0.1869596923 0.17604854071 0.16441699837 0.15207544469 
0.13904720113 0.12536871209 0.11108859063 0.096265823511 0.080967521598 0.065266617001 0.049239841129 0.03296618775 0.016525913547 
1.086140138e-15 
_area 1 100 double
0 0.00055589003921 0.0022304707744 0.0050398820311 0.0089961854819 0.014087770571 0.020258457558 0.027390982744 0.03529897974 
0.043729355192 0.052375154912 0.060897547197 0.068954167623 0.076229923318 0.082465859227 0.087482100956 0.091192033088 0.09360630614 
0.09482675648 0.095032184798 0.094461002798 0.093400847267 0.092191409696 0.091161077105 0.09046117239 0.090110446672 0.090096448836 
0.090393029842 0.090962720142 0.091764989747 0.092766703298 0.093946360535 0.095284249955 0.096738778883 0.098224674174 0.099616603314 
0.10078765591 0.10166519532 0.10227376702 0.10273437118 0.10319394544 0.10374295659 0.10442568435 0.10530098101 0.10649888928 
0.10793398583 0.10962459738 0.11171317935 0.11435070832 0.11765410264 0.12167807052 0.12640592645 0.13175496976 0.13758900048 
0.14373470578 0.15000156439 0.15620319815 0.16217557844 0.16778811709 0.17294741145 0.1775967018 0.18171418732 0.1853109767 
0.18842627396 0.19111419103 0.19341760922 0.19533759276 0.19681976364 0.19776392596 0.19804194768 0.19751365 0.19604181899 
0.19350925205 0.18983763387 0.18500423772 0.17905077154 0.17208182591 0.16425498442 0.15576376657 0.14681137109 0.1375781158 
0.12819529896 0.11873830316 0.10923953665 0.099711096077 0.090166929549 0.080639252968 0.071186689737 0.061892727818 0.052856456808 
0.044181827081 0.035971953731 0.028330148054 0.021363935647 0.015187105443 0.009917433918 0.005670465614 0.0025507952198 0.00064243762464 
4.8788257282e-17 
