# vtk DataFile Version 5.1
vtk output
ASCII
DATASET POLYDATA
POINTS 100 float
0.068637 0.0253513 -0.704073 0.0687776 0.0254955 -0.704202 0.0691934 0.0257641 -0.70462 
0.0698066 0.0261258 -0.705171 0.0704972 0.0265306 -0.705614 0.0711172 0.026913 -0.705653 
0.071507 0.0271965 -0.70497 0.0715136 0.0272987 -0.70326 0.0710057 0.0271371 -0.700265 
0.0698864 0.0266346 -0.695802 0.0681003 0.0257248 -0.689779 0.065635 0.0243565 -0.682199 
0.0625169 0.0224972 -0.673156 0.0588025 0.0201348 -0.662814 0.0545659 0.0172786 -0.651386 
0.0498863 0.0139578 -0.6391 0.0448348 0.0102192 -0.62617 0.0394653 0.00612374 -0.612769 
0.0338092 0.00174177 -0.599013 0.0278741 -0.00285128 -0.584944 0.0216486 -0.00757961 -0.570536 
0.01511 -0.0123708 -0.555705 0.00823462 -0.0171589 -0.540323 0.00100885 -0.0218853 -0.524246 
-0.00656128 -0.0264997 -0.507338 -0.0144438 -0.0309583 -0.489493 -0.0225788 -0.0352217 -0.470656 
-0.0308813 -0.0392522 -0.450831 -0.0392487 -0.0430106 -0.430083 -0.0475723 -0.046454 -0.40853 
-0.0557496 -0.0495338 -0.386325 -0.0636976 -0.052196 -0.363639 -0.0713629 -0.0543823 -0.340635 
-0.0787273 -0.0560332 -0.317444 -0.085809 -0.0570928 -0.294151 -0.0926557 -0.0575138 -0.270779 
-0.0993339 -0.0572637 -0.247294 -0.105912 -0.0563299 -0.223605 -0.112443 -0.0547242 -0.199582 
-0.118944 -0.0524857 -0.175077 -0.125384 -0.0496805 -0.149949 -0.131671 -0.0464001 -0.124087 
-0.13765 -0.0427562 -0.0974314 -0.14311 -0.0388746 -0.0699893 -0.147798 -0.0348858 -0.0418408 
-0.151435 -0.0309171 -0.013137 -0.15375 -0.0270826 0.015911 -0.154498 -0.0234759 0.0450495 
-0.153494 -0.0201646 0.074005 -0.150632 -0.0171863 0.102508 -0.145895 -0.014549 0.130318 
-0.139368 -0.0122336 0.157238 -0.131224 -0.0101994 0.183131 -0.121715 -0.00839089 0.207924 
-0.111148 -0.00674698 0.231603 -0.0998523 -0.005209 0.254206 -0.088155 -0.00372867 0.275808 
-0.0763476 -0.00227399 0.296503 -0.0646631 -0.000832781 0.316386 -0.0532595 0.000586459 0.335541 
-0.0422118 0.00195651 0.354028 -0.0315147 0.00323575 0.371881 -0.0210944 0.00437423 0.389105 
-0.010828 0.00532065 0.405689 -0.000567159 0.00602933 0.42161 0.00983587 0.00646618 0.436849 
0.0205046 0.00661296 0.451401 0.0315191 0.00646941 0.465286 0.0429035 0.00605278 0.478553 
0.054622 0.00539523 0.491279 0.066583 0.00453929 0.503564 0.0786509 0.00353226 0.515521 
0.0906626 0.00242022 0.527263 0.102448 0.00124271 0.538888 0.113849 2.87018e-05 0.550465 
0.124738 -0.00120547 0.562023 0.135029 -0.00245598 0.573547 0.144683 -0.0037292 0.584976 
0.153709 -0.0050376 0.596211 0.162155 -0.00639448 0.607125 0.170095 -0.00780835 0.617577 
0.177615 -0.00927788 0.627431 0.184799 -0.0107882 0.63657 0.19171 -0.0123093 0.644911 
0.198382 -0.0137968 0.652412 0.204818 -0.0151952 0.659077 0.210985 -0.0164432 0.664952 
0.216824 -0.0174805 0.670118 0.222258 -0.0182556 0.674678 0.227209 -0.0187328 0.678742 
0.231603 -0.018898 0.68241 0.23539 -0.0187623 0.685762 0.238548 -0.0183631 0.68885 
0.241086 -0.0177611 0.691687 0.243046 -0.0170364 0.694255 0.24449 -0.0162795 0.696509 
0.245496 -0.0155834 0.698383 0.246142 -0.0150333 0.69981 0.246495 -0.0146976 0.700728 
0.2466 -0.0146206 0.701095 
LINES 2 100
OFFSETS vtktypeint64
0 100 
CONNECTIVITY vtktypeint64
0 1 2 3 4 5 6 7 8 
9 10 11 12 13 14 15 16 17 
18 19 20 21 22 23 24 25 26 
27 28 29 30 31 32 33 34 35 
36 37 38 39 40 41 42 43 44 
45 46 47 48 49 50 51 52 53 
54 55 56 57 58 59 60 61 62 
63 64 65 66 67 68 69 70 71 
72 73 74 75 76 77 78 79 80 
81 82 83 84 85 86 87 88 89 
90 91 92 93 94 95 96 97 98 
99 
POINT_DATA 100
FIELD FieldData 3
_theta 1 100 double
0 0.031733259127 0.063466518254 0.095199777382 0.12693303651 0.15866629564 0.19039955476 0.22213281389 0.25386607302 
0.28559933214 0.31733259127 0.3490658504 0.38079910953 0.41253236865 0.44426562778 0.47599888691 0.50773214603 0.53946540516 
0.57119866429 0.60293192342 0.63466518254 0.66639844167 0.6981317008 0.72986495992 0.76159821905 0.79333147818 0.82506473731 
0.85679799643 0.88853125556 0.92026451469 0.95199777382 0.98373103294 1.0154642921 1.0471975512 1.0789308103 1.1106640695 
1.1423973286 1.1741305877 1.2058638468 1.237597106 1.2693303651 1.3010636242 1.3327968833 1.3645301425 1.3962634016 
1.4279966607 1.4597299198 1.491463179 1.5231964381 1.5549296972 1.5866629564 1.6183962155 1.6501294746 1.6818627337 
1.7135959929 1.745329252 1.7770625111 1.8087957702 1.8405290294 1.8722622885 1.9039955476 1.9357288068 1.9674620659 
1.999195325 2.0309285841 2.0626618433 2.0943951024 2.1261283615 2.1578616206 2.1895948798 2.2213281389 2.253061398 
2.2847946572 2.3165279163 2.3482611754 2.3799944345 2.4117276937 2.4434609528 2.4751942119 2.506927471 2.5386607302 
2.5703939893 2.6021272484 2.6338605076 2.6655937667 2.6973270258 2.7290602849 2.7607935441 2.7925268032 2.8242600623 
2.8559933214 2.8877265806 2.9194598397 2.9511930988 2.982926358 3.0146596171 3.0463928762 3.0781261353 3.1098593945 
3.1415926536 
_radius 1 100 double
3.402181501e-16 0.015867936305 0.031514658512 0.046734437046 0.061357028555 0.075258218242 0.088362941161 0.10064081665 0.11209546126 
0.12275024192 0.13263378977 0.1417683467 0.15016293298 0.15781182956 0.16469753332 0.17079659131 0.17608664869 0.18055346118 
0.18419719322 0.18703775119 0.18911901426 0.19051161147 0.19131351134 0.19164743535 0.19165429434 0.19148262384 0.19127518842 
0.19115503295 0.19121367012 0.19150348616 0.19203510394 0.19277911628 0.19367096645 0.19461796689 0.19550813063 0.19622103127 
0.19664087779 0.19667136006 0.19625087502 0.19536588447 0.19405975004 0.19243462269 0.19064479578 0.18888131672 0.18734973811 
0.1862456131 0.18573435296 0.18594082445 0.18694891017 0.18880585654 0.19152507144 0.19508433913 0.19942090444 0.20442757468 
0.20995392016 0.21581446451 0.22180290275 0.22770929569 0.23333661293 0.23851382778 0.24310433323 0.24700994895 0.2501716718 
0.25256843082 0.25421463643 0.25515663763 0.25546767942 0.25524081966 0.25457960331 0.2535870312 0.25235422759 0.25095072984 
0.24941804071 0.24776699212 0.2459781778 0.24400401324 0.24177121905 0.23918342204 0.2361245376 0.23246409592 0.22806544557 
0.22279691245 0.21654488516 0.20922687821 0.20080220198 0.19127805075 0.18070956045 0.16919355084 0.15685703368 0.14384279464 
0.13029499087 0.11634740488 0.10211583666 0.087694668158 0.07315659354 0.058554215976 0.04392252077 0.02928175416 0.014640638562 
1.3274882292e-15 
_area 1 100 double
0 0.00058338092133 0.0023188751228 0.0051636950596 0.0090492119089 0.013882112333 0.019543835494 0.025890373072 0.032754599448 
0.039950718111 0.047278513979 0.054525877852 0.061470526626 0.06788396119 0.073541099425 0.078237367456 0.081811899497 0.084172051024 
0.085312140625 0.085319662043 0.084365975808 0.082684796161 0.080547400063 0.078244963062 0.076104210484 0.074446020139 0.073364822475 
0.072875197195 0.072905622582 0.073395837979 0.0743277547 0.075705915237 0.077557088472 0.079858974233 0.082504781688 0.085369387706 
0.088312278455 0.091167373112 0.09374424619 0.095861039052 0.097396886524 0.098338286818 0.098797960933 0.098986923759 0.099140395023 
0.099458642649 0.10010869214 0.10122539662 0.10290385164 0.10523097198 0.10831765187 0.11229602951 0.11728553458 0.12333959282 
0.13039370484 0.1382403161 0.14654311828 0.15488372849 0.16282359943 0.16996395241 0.17599101799 0.18070038365 0.18400076463 
0.18590180191 0.18649128883 0.18590717254 0.18431445717 0.18189669546 0.17885401916 0.17539258215 0.1717033012 0.16793768662 
0.16418953635 0.16048796958 0.15680233326 0.1530550994 0.14913725089 0.14492213888 0.14027659072 0.13507053674 0.12918786954 
0.12254091188 0.11508836544 0.1068529621 0.097932394598 0.088497289946 0.078773380758 0.069010491046 0.059446427898 0.050276999616 
0.041642161174 0.033632132602 0.026308380872 0.019727601276 0.013957099717 0.00907693177 0.00517194522 0.002320251826 0.00058335403048 
9.5943676726e-18 
