# vtk DataFile Version 5.1
vtk output
ASCII
DATASET POLYDATA
POINTS 100 float
0.167128 0.0648591 -0.602915 0.167135 0.064667 -0.603061 0.167121 0.064286 -0.603445 
0.167039 0.0636926 -0.603961 0.166815 0.0628507 -0.604451 0.166358 0.0617157 -0.604715 
0.165573 0.0602399 -0.604541 0.164368 0.0583781 -0.603724 0.162667 0.0560935 -0.60209 
0.160412 0.0533613 -0.599512 0.157571 0.0501725 -0.595924 0.154137 0.0465345 -0.591321 
0.150121 0.0424709 -0.585756 0.145549 0.0380196 -0.579329 0.140451 0.0332296 -0.572165 
0.134856 0.028157 -0.564398 0.128787 0.0228617 -0.556151 0.122252 0.017404 -0.547509 
0.115252 0.0118423 -0.538515 0.107777 0.00623182 -0.529158 0.0998194 0.000625192 -0.519373 
0.0913769 -0.00492662 -0.509051 0.0824661 -0.0103723 -0.498054 0.0731279 -0.0156582 -0.486231 
0.0634335 -0.0207262 -0.473442 0.0534853 -0.0255131 -0.459574 0.043413 -0.0299508 -0.444563 
0.0333654 -0.0339679 -0.4284 0.0234977 -0.0374931 -0.411137 0.0139567 -0.0404595 -0.392881 
0.00486506 -0.0428097 -0.373785 -0.0036927 -0.0445011 -0.354029 -0.0116803 -0.0455111 -0.333801 
-0.0191144 -0.0458403 -0.313273 -0.0260628 -0.0455148 -0.292584 -0.0326356 -0.0445862 -0.271822 
-0.0389699 -0.0431292 -0.251016 -0.0452103 -0.0412376 -0.230134 -0.0514865 -0.039018 -0.209092 
-0.0578915 -0.0365832 -0.187763 -0.0644628 -0.0340449 -0.166002 -0.071169 -0.0315062 -0.143664 
-0.0779052 -0.0290563 -0.120629 -0.0844952 -0.0267661 -0.0968232 -0.0907043 -0.0246859 -0.0722347 
-0.0962583 -0.0228454 -0.0469228 -0.100869 -0.0212555 -0.0210195 -0.104262 -0.0199114 0.0052773 
-0.106204 -0.0187977 0.0317177 -0.106526 -0.0178926 0.0580202 -0.10514 -0.0171724 0.0838951 
-0.102052 -0.0166157 0.109069 -0.0973543 -0.0162054 0.133309 -0.0912222 -0.01593 0.156439 
-0.0838918 -0.015783 0.178355 -0.0756381 -0.0157612 0.19903 -0.0667478 -0.0158627 0.21851 
-0.0574927 -0.0160838 0.236907 -0.0481072 -0.0164168 0.254385 -0.0387705 -0.016848 0.271136 
-0.029598 -0.0173571 0.287364 -0.0206398 -0.0179175 0.30326 -0.011888 -0.0184985 0.318989 
-0.00329054 -0.0190671 0.334674 0.00523013 -0.0195921 0.350385 0.0137572 -0.0200467 0.366144 
0.0223601 -0.0204122 0.381921 0.0310788 -0.0206792 0.397649 0.0399132 -0.0208496 0.413229 
0.0488204 -0.0209354 0.428553 0.0577172 -0.0209572 0.443508 0.0664896 -0.0209412 0.457996 
0.0750071 -0.0209159 0.471941 0.0831386 -0.0209078 0.485294 0.0907683 -0.0209378 0.498036 
0.0978101 -0.0210187 0.510176 0.104217 -0.0211527 0.521743 0.109985 -0.0213318 0.532784 
0.115152 -0.0215384 0.543347 0.11979 -0.0217475 0.553476 0.123993 -0.0219304 0.563205 
0.127865 -0.0220581 0.572548 0.131504 -0.022105 0.581498 0.13499 -0.0220525 0.590027 
0.138376 -0.0218908 0.59809 0.141682 -0.0216206 0.605628 0.144896 -0.0212524 0.612578 
0.147979 -0.0208053 0.61888 0.150874 -0.0203044 0.624484 0.153519 -0.0197779 0.629358 
0.155853 -0.0192538 0.633493 0.157834 -0.0187568 0.636904 0.15944 -0.0183064 0.63963 
0.160676 -0.017915 0.641732 0.161572 -0.0175884 0.643287 0.16218 -0.0173259 0.644381 
0.162562 -0.0171223 0.645099 0.162781 -0.0169702 0.645521 0.162893 -0.0168617 0.645708 
0.162935 -0.0167913 0.645703 
LINES 2 100
OFFSETS vtktypeint64
0 100 
CONNECTIVITY vtktypeint64
0 1 2 3 4 5 6 7 8 
9 10 11 12 13 14 15 16 17 
18 19 20 21 22 23 24 25 26 
27 28 29 30 31 32 33 34 35 
36 37 38 39 40 41 42 43 44 
45 46 47 48 49 50 51 52 53 
54 55 56 57 58 59 60 61 62 
63 64 65 66 67 68 69 70 71 
72 73 74 75 76 77 78 79 80 
81 82 83 84 85 86 87 88 89 
90 91 92 93 94 95 96 97 98 
99 
POINT_DATA 100
FIELD FieldData 3
_theta 1 100 double
0 0.031733259127 0.063466518254 0.095199777382 0.12693303651 0.15866629564 0.19039955476 0.22213281389 0.25386607302 
0.28559933214 0.31733259127 0.3490658504 0.38079910953 0.41253236865 0.44426562778 0.47599888691 0.50773214603 0.53946540516 
0.57119866429 0.60293192342 0.63466518254 0.66639844167 0.6981317008 0.72986495992 0.76159821905 0.79333147818 0.82506473731 
0.85679799643 0.88853125556 0.92026451469 0.95199777382 0.98373103294 1.0154642921 1.0471975512 1.0789308103 1.1106640695 
1.1423973286 1.1741305877 1.2058638468 1.237597106 1.2693303651 1.3010636242 1.3327968833 1.3645301425 1.3962634016 
1.4279966607 1.4597299198 1.491463179 1.5231964381 1.5549296972 1.5866629564 1.6183962155 1.6501294746 1.6818627337 
1.7135959929 1.745329252 1.7770625111 1.8087957702 1.8405290294 1.8722622885 1.9039955476 1.9357288068 1.9674620659 
1.999195325 2.0309285841 2.0626618433 2.0943951024 2.1261283615 2.1578616206 2.1895948798 2.2213281389 2.253061398 
2.2847946572 2.3165279163 2.3482611754 2.3799944345 2.4117276937 2.4434609528 2.4751942119 2.506927471 2.5386607302 
2.5703939893 2.6021272484 2.6338605076 2.6655937667 2.6973270258 2.7290602849 2.7607935441 2.7925268032 2.8242600623 
2.8559933214 2.8877265806 2.9194598397 2.9511930988 2.982926358 3.0146596171 3.0463928762 3.0781261353 3.1098593945 
3.1415926536 
_radius 1 100 double
2.8977671676e-16 0.015920733046 0.03167305186 0.047100066839 0.062060928697 0.076436493054 0.090132557996 0.10308042249 0.11523490932 
0.12657037004 0.13707546131 0.14674758924 0.15558784671 0.16359705867 0.1707732886 0.17711093018 0.18260136306 0.18723508436 
0.19100519379 0.19391205176 0.19596880239 0.197207236 0.19768317512 0.19748028191 0.19671103761 0.19551379112 0.19404530695 
0.19246912141 0.19094104041 0.18959396616 0.18852458453 0.18778407871 0.18737406057 0.18724779125 0.18731606238 0.18745705268 
0.18752974914 0.18739060273 0.18691266882 0.18600560266 0.18463382805 0.18282936601 0.18069562214 0.17839929845 0.17614991 
0.17417020503 0.17266508576 0.17179877029 0.17168678439 0.17240101697 0.17397833666 0.17642279126 0.17969858825 0.18372003907 
0.1883481709 0.19339901333 0.19866084348 0.20391414995 0.20894977403 0.2135837694 0.21766914002 0.22110461257 0.22384000187 
0.22587739896 0.22726763124 0.22810202613 0.22850010603 0.22859422773 0.22851239867 0.22836077373 0.22820777722 0.22807219401 
0.22791748501 0.22765369293 0.22714678144 0.2262337015 0.22474053839 0.22250099535 0.21937298474 0.21525181012 0.21007903409 
0.20384655092 0.19659567637 0.18841132502 0.17941165131 0.16973395551 0.15951826487 0.14889076161 0.13794986303 0.12675773217 
0.11533892952 0.10368610602 0.091770974867 0.079557978884 0.067018079825 0.054140522051 0.040940954813 0.027464874746 0.013786009861 
8.7293876378e-16 
_area 1 100 double
0 0.00066375656251 0.00262688803 0.0058076842334 0.010078640005 0.015278284057 0.02122532899 0.027732777602 0.034619336875 
0.041715942749 0.048866601243 0.055924761035 0.062748144884 0.069195489028 0.075127704676 0.080414053109 0.084941869574 0.088626982276 
0.091421763883 0.093318923866 0.094351348708 0.094589969318 0.094140630107 0.093137937943 0.091734434505 0.09008915079 0.088359852171 
0.086694550673 0.085218657785 0.084024220413 0.083167139218 0.082670133704 0.082526109696 0.082698863373 0.083123316326 0.083711275948 
0.084364780387 0.084991428104 0.085514499258 0.08587642625 0.08604375018 0.086026151786 0.085901753511 0.08581717407 0.085949007774 
0.086444891665 0.087375837593 0.088724832827 0.090419230747 0.092396820884 0.094768387213 0.098104002866 0.10206081202 0.10655464031 
0.11157687658 0.11705668496 0.12284194003 0.12870194586 0.13434833879 0.13947490393 0.14380761163 0.14714845971 0.14939953819 
0.1505648632 0.1507377738 0.1500830178 0.14881606433 0.147174511 0.14537590582 0.14357194236 0.14182866006 0.14014348174 
0.1384722348 0.13674278605 0.13485504599 0.13267675088 0.13004447958 0.12677684401 0.12270200068 0.11769399887 0.11170594262 
0.10478807482 0.097085453806 0.088817595788 0.080246931236 0.071643000756 0.063246438152 0.055234808787 0.047697873333 0.040642188254 
0.034034219363 0.027849958404 0.022097495503 0.016817283466 0.012077190142 0.0079684017333 0.0045994936834 0.0020849372432 0.00052772882374 
5.9102095092e-17 
