# vtk DataFile Version 5.1
vtk output
ASCII
DATASET POLYDATA
POINTS 100 float
0.135798 0.0769513 -0.652307 0.136167 0.0769271 -0.652457 0.137259 0.0766965 -0.652848 
0.138973 0.0762683 -0.653377 0.141156 0.075655 -0.653887 0.143616 0.0748691 -0.654178 
0.14614 0.0739194 -0.654033 0.148515 0.0728063 -0.65324 0.150548 0.0715185 -0.651609 
0.152078 0.0700308 -0.648992 0.152987 0.0683035 -0.645298 0.153201 0.0662841 -0.640494 
0.152684 0.0639102 -0.634605 0.151436 0.061115 -0.627708 0.149472 0.0578331 -0.619918 
0.146817 0.0540078 -0.61137 0.143488 0.0495974 -0.602201 0.139489 0.0445808 -0.592534 
0.134806 0.0389623 -0.582466 0.129408 0.0327733 -0.572051 0.123257 0.0260731 -0.561307 
0.116314 0.0189465 -0.550207 0.108557 0.0115001 -0.538695 0.0999913 0.00385679 -0.526692 
0.0906617 -0.00385033 -0.51411 0.0806568 -0.011485 -0.500866 0.07011 -0.0189144 -0.486896 
0.0591921 -0.0260146 -0.472163 0.0480989 -0.0326759 -0.456659 0.0370329 -0.038806 -0.440409 
0.0261834 -0.0443327 -0.423466 0.0157064 -0.049204 -0.405898 0.00570727 -0.0533888 -0.387783 
-0.00376966 -0.0568754 -0.369193 -0.0127452 -0.0596699 -0.350184 -0.0212998 -0.0617944 -0.330786 
-0.0295604 -0.063284 -0.311002 -0.0376794 -0.0641849 -0.2908 -0.0458094 -0.0645512 -0.270126 
-0.0540768 -0.0644426 -0.248902 -0.0625566 -0.0639205 -0.227046 -0.0712524 -0.0630459 -0.204479 
-0.0800856 -0.0618756 -0.181141 -0.0888926 -0.0604596 -0.157 -0.0974341 -0.0588384 -0.132062 
-0.105413 -0.0570412 -0.106378 -0.112499 -0.0550851 -0.0800406 -0.118363 -0.0529755 -0.0531832 
-0.122704 -0.0507077 -0.0259709 -0.125281 -0.0482699 0.00140969 -0.125937 -0.0456478 0.0287624 
-0.124609 -0.0428295 0.0558941 -0.121339 -0.0398109 0.0826263 -0.116262 -0.0366011 0.108804 
-0.10959 -0.0332264 0.134304 -0.101593 -0.0297328 0.159034 -0.0925681 -0.0261861 0.182937 
-0.0828108 -0.0226704 0.205988 -0.0725908 -0.0192831 0.228185 -0.0621305 -0.016128 0.249547 
-0.0515934 -0.0133073 0.27011 -0.0410795 -0.0109126 0.289913 -0.0306306 -0.00901564 0.309002 
-0.0202422 -0.00766096 0.327423 -0.00988047 -0.00686063 0.34522 0.000498292 -0.00659185 0.362434 
0.0109297 -0.00679809 0.379108 0.0214264 -0.00739369 0.395283 0.0319686 -0.00827154 0.411001 
0.042502 -0.00931315 0.426305 0.0529423 -0.0104 0.441237 0.0631854 -0.0114247 0.455837 
0.0731217 -0.0123014 0.470141 0.0826528 -0.0129729 0.484176 0.0917062 -0.0134154 0.497959 
0.100247 -0.013638 0.511492 0.108284 -0.0136799 0.524758 0.11587 -0.0136024 0.537728 
0.123097 -0.0134799 0.550355 0.130079 -0.0133878 0.562577 0.136939 -0.0133919 0.574328 
0.143794 -0.0135385 0.585534 0.15073 -0.0138469 0.596124 0.157796 -0.0143067 0.606036 
0.164992 -0.0148775 0.615218 0.172268 -0.0154947 0.623635 0.179526 -0.0160769 0.631268 
0.186638 -0.0165371 0.638117 0.193453 -0.0167945 0.644198 0.199822 -0.0167857 0.649541 
0.205608 -0.0164749 0.654188 0.210709 -0.0158596 0.658184 0.215061 -0.0149734 0.661582 
0.218643 -0.0138835 0.664428 0.221481 -0.0126848 0.666769 0.22363 -0.0114896 0.668644 
0.225167 -0.0104152 0.670083 0.226176 -0.00957102 0.671112 0.226729 -0.00904584 0.671747 
0.226876 -0.00889764 0.671997 
LINES 2 100
OFFSETS vtktypeint64
0 100 
CONNECTIVITY vtktypeint64
0 1 2 3 4 5 6 7 8 
9 10 11 12 13 14 15 16 17 
18 19 20 21 22 23 24 25 26 
27 28 29 30 31 32 33 34 35 
36 37 38 39 40 41 42 43 44 
45 46 47 48 49 50 51 52 53 
54 55 56 57 58 59 60 61 62 
63 64 65 66 67 68 69 70 71 
72 73 74 75 76 77 78 79 80 
81 82 83 84 85 86 87 88 89 
90 91 92 93 94 95 96 97 98 
99 
POINT_DATA 100
FIELD FieldData 3
_theta 1 100 double
0 0.031733259127 0.063466518254 0.095199777382 0.12693303651 0.15866629564 0.19039955476 0.22213281389 0.25386607302 
0.28559933214 0.31733259127 0.3490658504 0.38079910953 0.41253236865 0.44426562778 0.47599888691 0.50773214603 0.53946540516 
0.57119866429 0.60293192342 0.63466518254 0.66639844167 0.6981317008 0.72986495992 0.76159821905 0.79333147818 0.82506473731 
0.85679799643 0.88853125556 0.92026451469 0.95199777382 0.98373103294 1.0154642921 1.0471975512 1.0789308103 1.1106640695 
1.1423973286 1.1741305877 1.2058638468 1.237597106 1.2693303651 1.3010636242 1.3327968833 1.3645301425 1.3962634016 
1.4279966607 1.4597299198 1.491463179 1.5231964381 1.5549296972 1.5866629564 1.6183962155 1.6501294746 1.6818627337 
1.7135959929 1.745329252 1.7770625111 1.8087957702 1.8405290294 1.8722622885 1.9039955476 1.9357288068 1.9674620659 
1.999195325 2.0309285841 2.0626618433 2.0943951024 2.1261283615 2.1578616206 2.1895948798 2.2213281389 2.253061398 
2.2847946572 2.3165279163 2.3482611754 2.3799944345 2.4117276937 2.4434609528 2.4751942119 2.506927471 2.5386607302 
2.5703939893 2.6021272484 2.6338605076 2.6655937667 2.6973270258 2.7290602849 2.7607935441 2.7925268032 2.8242600623 
2.8559933214 2.8877265806 2.9194598397 2.9511930988 2.982926358 3.0146596171 3.0463928762 3.0781261353 3.1098593945 
3.1415926536 
_radius 1 100 double
3.8384064499e-16 0.015185028117 0.030277067665 0.045188968601 0.059851543406 0.074215483759 0.088246515141 0.10191484265 0.11518194823 
0.12798895766 0.14025044134 0.15185563089 0.16267647073 0.17257992216 0.18144131891 0.18915629109 0.19565014024 0.20088476299 
0.2048637643 0.2076361684 0.20929838398 0.20999328435 0.20990491741 0.20924778526 0.20825083121 0.20713786515 0.20610747773 
0.20531588479 0.20486536607 0.20479940829 0.20510412364 0.20571463975 0.20652501366 0.20740037795 0.20819016424 0.20874152794 
0.20891266579 0.20858609793 0.20768150472 0.20616650469 0.20406295482 0.20144686954 0.19844164602 0.19520598141 0.19191896579 
0.1887652157 0.18592267277 0.18355469268 0.1818061106 0.180800703 0.1806364612 0.1813765874 0.18303763312 0.18557954014 
0.18890291746 0.1928558427 0.19724810146 0.20186849073 0.20650161014 0.21094269252 0.21501050775 0.21855858712 0.22148440501 
0.22373546493 0.22531101656 0.22625854315 0.22666500868 0.22664378926 0.2263189341 0.22580879026 0.22521108976 0.22459133157 
0.22397565959 0.22334856542 0.22265497949 0.22180594271 0.22068701766 0.21916863043 0.21711743746 0.21440758672 0.21093053558 
0.20660211415 0.20136595207 0.19519318812 0.1880792809 0.18003934704 0.17110350538 0.1613132193 0.15071888771 0.1393783154 
0.12735543923 0.1147188226 0.10153979836 0.087890514729 0.073842325271 0.05946487678 0.044825963829 0.029991926634 0.015028238891 
7.1955465823e-16 
_area 1 100 double
0 0.00052010109174 0.0020832963679 0.0046960138376 0.0083607688044 0.013064027902 0.018763401273 0.025378472575 0.032786057171 
0.040817879178 0.049259465793 0.057852254825 0.066303068586 0.074303657488 0.081558611495 0.087815770172 0.092891845028 0.096687476431 
0.0991892856 0.10046037085 0.10062374578 0.099844141147 0.098312086011 0.096231540808 0.093810647144 0.091255280287 0.08876595552 
0.086537898382 0.084759268396 0.083595801024 0.083180053928 0.083556852416 0.084530499316 0.085841022025 0.087229111138 0.0884663142 
0.089446060957 0.089952393739 0.089877340761 0.089275910839 0.088349236249 0.087398809334 0.0866920891 0.086327971908 0.086264415671 
0.08642287102 0.086745511258 0.08721231187 0.087848082694 0.088723002722 0.089943859862 0.09163746304 0.093929618428 0.096924289201 
0.10067362192 0.10512522041 0.1100891734 0.11527814845 0.12038457913 0.12513721012 0.12932556621 0.13280239803 0.13547669957 
0.13730874417 0.13831209704 0.13855758208 0.13816738229 0.13729168834 0.13607743703 0.13464798251 0.13309648767 0.13148244775 
0.12982746567 0.12811356208 0.12628624089 0.12426166264 0.12193687414 0.119202756 0.11595839777 0.1121234576 0.10764524061 
0.1025006719 0.096695936301 0.090266023287 0.083275146526 0.075817855429 0.068019040771 0.06003025679 0.052020922282 0.044165300199 
0.036628264303 0.029553720961 0.023058888945 0.017235688729 0.012157734236 0.007888883727 0.004488691722 0.0020123034154 0.00050579114671 
1.4020839977e-16 
