# vtk DataFile Version 5.1
vtk output
ASCII
DATASET POLYDATA
POINTS 100 float
-0.0135383 -0.0327503 -0.682837 -0.0138727 -0.0328631 -0.682616 -0.0148829 -0.0333256 -0.682053 
-0.0165072 -0.0340649 -0.681075 -0.018651 -0.0349713 -0.679563 -0.0211977 -0.0359128 -0.677373 
-0.0240229 -0.0367528 -0.674352 -0.0270093 -0.0373679 -0.670355 -0.0300611 -0.0376648 -0.665264 
-0.033116 -0.037593 -0.658999 -0.0361525 -0.0371526 -0.651529 -0.0391937 -0.0363955 -0.642871 
-0.0423043 -0.0354198 -0.633088 -0.0455833 -0.0343597 -0.62228 -0.0491524 -0.0333693 -0.610566 
-0.0531411 -0.0326052 -0.598074 -0.05767 -0.0322087 -0.58492 -0.0628354 -0.0322892 -0.571197 
-0.0686957 -0.032912 -0.556966 -0.0752615 -0.0340914 -0.542249 -0.082491 -0.0357892 -0.527031 
-0.090291 -0.0379194 -0.511264 -0.0985235 -0.0403578 -0.494881 -0.107017 -0.042955 -0.477802 
-0.115581 -0.0455523 -0.459954 -0.124024 -0.047996 -0.441276 -0.132171 -0.0501515 -0.421731 
-0.139877 -0.0519134 -0.401311 -0.147038 -0.053211 -0.380036 -0.153601 -0.0540105 -0.35795 
-0.159563 -0.0543115 -0.335115 -0.164962 -0.0541413 -0.311598 -0.169874 -0.0535461 -0.287467 
-0.174392 -0.0525819 -0.262778 -0.178609 -0.0513059 -0.23757 -0.182606 -0.0497693 -0.211865 
-0.186426 -0.0480136 -0.185668 -0.190072 -0.0460687 -0.158975 -0.193489 -0.0439543 -0.131782 
-0.196572 -0.0416835 -0.104096 -0.199163 -0.0392678 -0.0759446 -0.201065 -0.036721 -0.047387 
-0.20206 -0.034064 -0.0185177 -0.201926 -0.0313263 0.0105314 -0.200456 -0.028546 0.0395955 
-0.197485 -0.0257674 0.0684855 -0.192898 -0.0230359 0.0970002 -0.186652 -0.0203929 0.124942 
-0.178772 -0.0178696 0.152131 -0.16936 -0.0154815 0.17842 -0.158583 -0.0132258 0.203704 
-0.146659 -0.0110804 0.22793 -0.133843 -0.00900635 0.251089 -0.120403 -0.00695369 0.273222 
-0.106602 -0.00486879 0.294401 -0.0926748 -0.00270367 0.314721 -0.0788168 -0.000425342 0.334283 
-0.0651684 0.00197609 0.353183 -0.0518119 0.00448175 0.371494 -0.0387718 0.00704175 0.389263 
-0.0260217 0.00957687 0.406507 -0.0134948 0.0119843 0.423213 -0.00109931 0.0141468 0.439346 
0.0112665 0.0159442 0.454858 0.0236983 0.0172662 0.469707 0.0362724 0.0180245 0.483859 
0.0490356 0.0181628 0.497311 0.0619997 0.0176641 0.510087 0.0751405 0.0165527 0.52225 
0.0884011 0.014893 0.533893 0.101699 0.012783 0.545134 0.114935 0.0103443 0.556102 
0.128006 0.00771046 0.566926 0.140812 0.00501401 0.577712 0.153269 0.00237419 0.588538 
0.165311 -0.000112886 0.599434 0.176896 -0.00238074 0.610382 0.188003 -0.00439516 0.621311 
0.198631 -0.00615268 0.632107 0.208791 -0.00767536 0.642616 0.2185 -0.00900292 0.652666 
0.227772 -0.0101833 0.662078 0.236613 -0.0112632 0.670687 0.245018 -0.0122798 0.678357 
0.252967 -0.0132552 0.684991 0.260424 -0.0141934 0.690541 0.267345 -0.015081 0.695009 
0.273682 -0.0158913 0.698448 0.279389 -0.01659 0.70095 0.284429 -0.0171429 0.702638 
0.288783 -0.017523 0.703657 0.292452 -0.0177173 0.704155 0.295458 -0.0177309 0.704277 
0.297847 -0.0175879 0.704154 0.29968 -0.0173301 0.703898 0.301031 -0.0170123 0.703596 
0.301977 -0.0166952 0.703317 0.302589 -0.0164378 0.703106 0.302924 -0.0162895 0.702994 
0.303021 -0.0162833 0.702996 
LINES 2 100
OFFSETS vtktypeint64
0 100 
CONNECTIVITY vtktypeint64
0 1 2 3 4 5 6 7 8 
9 10 11 12 13 14 15 16 17 
18 19 20 21 22 23 24 25 26 
27 28 29 30 31 32 33 34 35 
36 37 38 39 40 41 42 43 44 
45 46 47 48 49 50 51 52 53 
54 55 56 57 58 59 60 61 62 
63 64 65 66 67 68 69 70 71 
72 73 74 75 76 77 78 79 80 
81 82 83 84 85 86 87 88 89 
90 91 92 93 94 95 96 97 98 
99 
POINT_DATA 100
FIELD FieldData 3
_theta 1 100 double
0 0.031733259127 0.063466518254 0.095199777382 0.12693303651 0.15866629564 0.19039955476 0.22213281389 0.25386607302 
0.28559933214 0.31733259127 0.3490658504 0.38079910953 0.41253236865 0.44426562778 0.47599888691 0.50773214603 0.53946540516 
0.57119866429 0.60293192342 0.63466518254 0.66639844167 0.6981317008 0.72986495992 0.76159821905 0.79333147818 0.82506473731 
0.85679799643 0.88853125556 0.92026451469 0.95199777382 0.98373103294 1.0154642921 1.0471975512 1.0789308103 1.1106640695 
1.1423973286 1.1741305877 1.2058638468 1.237597106 1.2693303651 1.3010636242 1.3327968833 1.3645301425 1.3962634016 
1.4279966607 1.4597299198 1.491463179 1.5231964381 1.5549296972 1.5866629564 1.6183962155 1.6501294746 1.6818627337 
1.7135959929 1.745329252 1.7770625111 1.8087957702 1.8405290294 1.8722622885 1.9039955476 1.9357288068 1.9674620659 
1.999195325 2.0309285841 2.0626618433 2.0943951024 2.1261283615 2.1578616206 2.1895948798 2.2213281389 2.253061398 
2.2847946572 2.3165279163 2.3482611754 2.3799944345 2.4117276937 2.4434609528 2.4751942119 2.506927471 2.5386607302 
2.5703939893 2.6021272484 2.6338605076 2.6655937667 2.6973270258 2.7290602849 2.7607935441 2.7925268032 2.8242600623 
2.8559933214 2.8877265806 2.9194598397 2.9511930988 2.982926358 3.0146596171 3.0463928762 3.0781261353 3.1098593945 
3.1415926536 
_radius 1 100 double
8.9165630398e-16 0.015460154011 0.030765354085 0.045775480967 0.060376044853 0.074484599609 0.088050906975 0.10105090545 0.1134759259 
0.1253197279 0.13656643393 0.14718209659 0.15711158104 0.16628111351 0.17460568962 0.18199979672 0.18838958907 0.19372465923 
0.19798777337 0.20120132134 0.2034297193 0.20477750658 0.20538329867 0.20541004937 0.20503230015 0.20442137369 0.20372987484 
0.20307735674 0.20253941844 0.20214249462 0.20186580575 0.20165032983 0.20141288079 0.20106240304 0.20051583729 0.19971189037 
0.19862192024 0.19725748 0.19567397913 0.19396983165 0.19228068135 0.19076882526 0.1896085542 0.18896863442 0.18899374321 
0.18978757633 0.19140108652 0.19382859745 0.19701186573 0.20084927023 0.20520654326 0.20992700455 0.21484130455 0.21977766414 
0.22457324341 0.22908613022 0.23320625233 0.23686292867 0.24002713008 0.24270770842 0.24494238822 0.24678560662 0.24829592798 
0.24952562929 0.25051425419 0.2512867017 0.25185508546 0.25222258551 0.25238717906 0.25234358896 0.25208282508 0.25158988813 
0.25084105692 0.24980226974 0.24842937089 0.24666989041 0.24446528979 0.24175266247 0.23846556759 0.23453449725 0.22988795385 
0.22445502212 0.21816973904 0.21097679858 0.2028375341 0.19373494348 0.18367678598 0.17269632056 0.16085080776 0.14821823774 
0.13489280038 0.12097948022 0.10658803003 0.091826590033 0.076795385457 0.061581156305 0.046253125667 0.030861293315 0.015437594678 
8.6680877841e-16 
_area 1 100 double
0 0.00062683431636 0.0024926531856 0.0055548546775 0.0097461535599 0.01497738303 0.021138724659 0.028100271608 0.035713745967 
0.043816162288 0.052234260865 0.060787305891 0.069286465867 0.077531414992 0.085307784204 0.092390798416 0.098559382632 0.10362102532 
0.10744225301 0.10997547013 0.11127294093 0.11148354232 0.11083473604 0.10960753304 0.10813641944 0.10695247133 0.10615092514 
0.10573897495 0.10571429207 0.10596343858 0.10624779392 0.10636825874 0.10618256031 0.1056223857 0.10469978004 0.10349776624 
0.1021419448 0.10075553028 0.099424367131 0.098209681797 0.097199421213 0.09655218087 0.096509351736 0.09734601883 0.099195115538 
0.10194037894 0.10539389455 0.10941835605 0.11392612202 0.11885736054 0.12416092214 0.1297776193 0.13562545508 0.14158803954 
0.1475099682 0.1532059254 0.15848812287 0.16320636565 0.16728439596 0.17073503369 0.17364535595 0.17613555683 0.17830607464 
0.18019381627 0.18175452262 0.18287150033 0.18338865723 0.18318066907 0.18222461262 0.18062932524 0.17860811039 0.17639821948 
0.17416063496 0.17192771368 0.16962808391 0.16713780212 0.1643114058 0.16099171956 0.15701327572 0.15221160271 0.14644234614 
0.13960547846 0.13166692082 0.12267216203 0.1127489969 0.1020982182 0.090973503072 0.079654823792 0.068421771775 0.057532728256 
0.047212886521 0.037650319269 0.028996700708 0.021369194668 0.014851993674 0.009498297474 0.0053344231049 0.0023668125779 0.00059094992439 
3.4762149639e-17 
