# vtk DataFile Version 5.1
vtk output
ASCII
DATASET POLYDATA
POINTS 100 float
0.129894 -0.00365641 0.677764 0.129857 -0.00384282 0.677249 0.129726 -0.00450302 0.675853 
0.1295 -0.0055655 0.673675 0.129184 -0.00692027 0.670864 0.128778 -0.00843082 0.667598 
0.128285 -0.00994907 0.66406 0.127708 -0.0113312 0.660412 0.127046 -0.012453 0.656772 
0.1263 -0.0132224 0.653196 0.125466 -0.0135886 0.649667 0.124539 -0.0135457 0.646102 
0.123508 -0.0131323 0.642352 0.12236 -0.0124247 0.638227 0.121076 -0.0115275 0.633517 
0.119629 -0.0105597 0.628016 0.117987 -0.00964148 0.621552 0.116113 -0.00887941 0.614002 
0.11396 -0.00835524 0.605313 0.111481 -0.00811719 0.595503 0.108625 -0.00817569 0.584662 
0.10534 -0.0085037 0.572934 0.101582 -0.00904133 0.560508 0.0973131 -0.00970425 0.547587 
0.0925106 -0.0103945 0.534368 0.0871683 -0.0110128 0.521022 0.0813004 -0.01147 0.507671 
0.0749433 -0.0116975 0.494387 0.0681551 -0.0116547 0.481182 0.0610125 -0.0113328 0.468017 
0.053607 -0.0107551 0.454812 0.0460366 -0.00997311 0.441463 0.0383984 -0.00906052 0.427861 
0.0307784 -0.00810425 0.413908 0.0232428 -0.00719498 0.39953 0.01583 -0.00641776 0.384687 
0.00854536 -0.00584391 0.369372 0.00135922 -0.0055251 0.353612 -0.00579095 -0.00549013 0.337452 
-0.012994 -0.00574457 0.320944 -0.0203546 -0.00627319 0.304134 -0.0279792 -0.00704447 0.287043 
-0.0359598 -0.00801672 0.269663 -0.0443578 -0.00914465 0.251945 -0.0531885 -0.0103858 0.233806 
-0.062409 -0.0117057 0.215133 -0.0719114 -0.0130817 0.195796 -0.0815216 -0.0145043 0.175666 
-0.0910049 -0.0159769 0.154631 -0.100079 -0.0175132 0.132615 -0.10843 -0.0191339 0.109588 
-0.115739 -0.0208617 0.0855784 -0.121703 -0.0227165 0.0606699 -0.126062 -0.0247111 0.0349997 
-0.128619 -0.0268476 0.00874571 -0.129258 -0.029115 -0.0178887 -0.127952 -0.0314884 -0.0446927 
-0.124767 -0.0339296 -0.071466 -0.11985 -0.036389 -0.0980337 -0.11342 -0.0388078 -0.124258 
-0.105743 -0.0411218 -0.150042 -0.0971062 -0.0432644 -0.175331 -0.0877936 -0.0451695 -0.200104 
-0.0780596 -0.0467748 -0.224364 -0.068109 -0.0480231 -0.248126 -0.0580824 -0.0488644 -0.271401 
-0.0480512 -0.0492564 -0.29419 -0.0380199 -0.0491652 -0.31647 -0.0279374 -0.0485658 -0.3382 
-0.0177146 -0.047442 -0.359316 -0.00724657 -0.0457874 -0.379744 0.00356329 -0.0436058 -0.39941 
0.0147813 -0.0409118 -0.418251 0.0264248 -0.037732 -0.436229 0.0384507 -0.0341051 -0.453335 
0.0507513 -0.0300823 -0.469598 0.0631592 -0.0257271 -0.485079 0.0754598 -0.0211139 -0.499865 
0.0874098 -0.0163262 -0.514054 0.0987609 -0.0114538 -0.527743 0.109283 -0.00658943 -0.541005 
0.118789 -0.00182476 -0.553878 0.12715 0.00275356 -0.566352 0.134306 0.00706786 -0.578361 
0.140276 0.0110529 -0.589791 0.145145 0.0146584 -0.600487 0.149056 0.0178509 -0.610267 
0.152191 0.0206143 -0.618951 0.154749 0.0229492 -0.626379 0.156924 0.0248715 -0.632438 
0.158881 0.0264098 -0.637079 0.160744 0.0276028 -0.640335 0.162584 0.0284956 -0.642315 
0.164416 0.0291366 -0.643209 0.166205 0.029574 -0.643264 0.167877 0.029853 -0.642763 
0.169336 0.0300136 -0.641999 0.170479 0.0300884 -0.641239 0.171218 0.0301012 -0.640699 
0.171493 0.0300661 -0.640519 
LINES 2 100
OFFSETS vtktypeint64
0 100 
CONNECTIVITY vtktypeint64
0 1 2 3 4 5 6 7 8 
9 10 11 12 13 14 15 16 17 
18 19 20 21 22 23 24 25 26 
27 28 29 30 31 32 33 34 35 
36 37 38 39 40 41 42 43 44 
45 46 47 48 49 50 51 52 53 
54 55 56 57 58 59 60 61 62 
63 64 65 66 67 68 69 70 71 
72 73 74 75 76 77 78 79 80 
81 82 83 84 85 86 87 88 89 
90 91 92 93 94 95 96 97 98 
99 
POINT_DATA 100
FIELD FieldData 3
_theta 1 100 double
0 0.031733259127 0.063466518254 0.095199777382 0.12693303651 0.15866629564 0.19039955476 0.22213281389 0.25386607302 
0.28559933214 0.31733259127 0.3490658504 0.38079910953 0.41253236865 0.44426562778 0.47599888691 0.50773214603 0.53946540516 
0.57119866429 0.60293192342 0.63466518254 0.66639844167 0.6981317008 0.72986495992 0.76159821905 0.79333147818 0.82506473731 
0.85679799643 0.88853125556 0.92026451469 0.95199777382 0.98373103294 1.0154642921 1.0471975512 1.0789308103 1.1106640695 
1.1423973286 1.1741305877 1.2058638468 1.237597106 1.2693303651 1.3010636242 1.3327968833 1.3645301425 1.3962634016 
1.4279966607 1.4597299198 1.491463179 1.5231964381 1.5549296972 1.5866629564 1.6183962155 1.6501294746 1.6818627337 
1.7135959929 1.745329252 1.7770625111 1.8087957702 1.8405290294 1.8722622885 1.9039955476 1.9357288068 1.9674620659 
1.999195325 2.0309285841 2.0626618433 2.0943951024 2.1261283615 2.1578616206 2.1895948798 2.2213281389 2.253061398 
2.2847946572 2.3165279163 2.3482611754 2.3799944345 2.4117276937 2.4434609528 2.4751942119 2.506927471 2.5386607302 
2.5703939893 2.6021272484 2.6338605076 2.6655937667 2.6973270258 2.7290602849 2.7607935441 2.7925268032 2.8242600623 
2.8559933214 2.8877265806 2.9194598397 2.9511930988 2.982926358 3.0146596171 3.0463928762 3.0781261353 3.1098593945 
3.1415926536 
_radius 1 100 double
3.7752884891e-16 0.013599110503 0.027284546066 0.041131382311 0.05518212614 0.06943628694 0.083846058491 0.098318368062 0.11272266935 
0.12690319292 0.1406939305 0.15393442276 0.16648446207 0.17823609795 0.18912175748 0.19911774549 0.20824279829 0.2165517632 
0.22412495658 0.23105436933 0.23742857485 0.24331875258 0.24876839687 0.25378881535 0.25836141224 0.26244625971 0.26599503549 
0.26896548042 0.27133432592 0.27310612058 0.27431633177 0.27502823842 0.27532422604 0.27529298429 0.27501470942 0.27454668911 
0.27391157449 0.27309024709 0.2720205828 0.27060276655 0.26871115711 0.26621185767 0.26298400926 0.25894174709 0.25405332224 
0.24835429647 0.24195272093 0.23502546042 0.22780607854 0.22056576525 0.21358951321 0.20715009221 0.20148254293 0.19676228225 
0.19309046059 0.19048988635 0.1889122078 0.18825262554 0.18836555399 0.18907644727 0.19019041273 0.19150255646 0.1928143063 
0.19395497006 0.19480303329 0.1953006519 0.19545715631 0.19534089032 0.19506162751 0.1947475472 0.19452130123 0.1944791807 
0.19467603566 0.19511693107 0.19575521568 0.19649609749 0.19720471884 0.19771761074 0.19785612821 0.19744030321 0.19630171773 
0.19429434038 0.19130252431 0.18724556426 0.1820785865 0.17579012021 0.16839721104 0.15993914824 0.15047081491 0.14005652087 
0.12876504787 0.11666647645 0.10383107452 0.090330107032 0.076237987839 0.061634890062 0.046608867004 0.031256743106 0.015683455733 
1.0145411145e-15 
_area 1 100 double
0 0.00046422869525 0.0018676970504 0.0042390304111 0.0076148305243 0.012026995325 0.017491057556 0.02399801094 0.031509597179 
0.039954961133 0.049226467726 0.059174785206 0.069606732528 0.080291092725 0.090975675148 0.10141428039 0.11139765213 0.12078015469 
0.12949443099 0.13754932954 0.14501113076 0.15197324977 0.15852329706 0.16471696918 0.17056550865 0.17603889472 0.18108228338 
0.18563937497 0.18967394655 0.19318132975 0.19618679797 0.19873594242 0.20088635439 0.20270441916 0.20424938725 0.20554125319 
0.20661247346 0.20747858829 0.20770973878 0.20705248158 0.20533118943 0.20241553278 0.19822147839 0.19272459198 0.18597869615 
0.17812084868 0.16937534774 0.16005556936 0.15054257525 0.14124283228 0.13253913749 0.12474735425 0.11808548176 0.11265421561 
0.10842262221 0.10522619211 0.1028211565 0.10098755561 0.099585537403 0.098531295263 0.09774775851 0.097142643304 0.096605531265 
0.096006270175 0.09521215733 0.094127720998 0.09272918933 0.091072495644 0.089276325162 0.087490514958 0.085862594213 0.08451450275 
0.08353220042 0.082966012778 0.082833715346 0.083117777057 0.083767403528 0.084718457826 0.085940668498 0.087302867206 0.08822450836 
0.088242666022 0.087106261812 0.084690587719 0.08097667372 0.076034696734 0.070005305067 0.063083251587 0.055505754039 0.047543758523 
0.03949189415 0.031653588529 0.024320470415 0.017748114161 0.012132363303 0.0075916992453 0.0041614642896 0.0018049368795 0.00044332379939 
3.0237738857e-17 
