# vtk DataFile Version 5.1
vtk output
ASCII
DATASET POLYDATA
POINTS 100 float
0.0830428 -0.0221228 0.634047 0.0828727 -0.0219647 0.633912 0.0823515 -0.0216309 0.633598 
0.0815112 -0.0211291 0.633098 0.0804007 -0.0204719 0.632399 0.0790792 -0.0196771 0.631479 
0.0776089 -0.0187662 0.630306 0.0760477 -0.017764 0.628836 0.0744424 -0.0166967 0.627013 
0.072824 -0.0155901 0.624772 0.0712047 -0.0144683 0.622036 0.0695783 -0.0133511 0.618726 
0.0679226 -0.0122529 0.614763 0.0662032 -0.0111814 0.610073 0.0643796 -0.0101373 0.604598 
0.0624099 -0.00911487 0.598295 0.0602565 -0.00810321 0.591146 0.0578892 -0.00708892 0.583154 
0.0552864 -0.00605886 0.574349 0.0524355 -0.00500357 0.56478 0.0493304 -0.00392042 0.554516 
0.0459682 -0.00281618 0.543632 0.0423461 -0.00170857 0.53221 0.0384581 -0.00062644 0.520327 
0.0342936 0.000391643 0.50805 0.029837 0.00130039 0.495431 0.0250702 0.00205208 0.482505 
0.0199759 0.00260178 0.469288 0.0145429 0.00291279 0.455783 0.00877088 0.00296173 0.441977 
0.00267503 0.00274245 0.427852 -0.00371131 0.00226817 0.413386 -0.0103365 0.00157141 0.398559 
-0.0171334 0.000701577 0.383356 -0.0240246 -0.000279822 0.367768 -0.0309309 -0.00130575 0.351792 
-0.0377798 -0.00231143 0.335429 -0.0445143 -0.00324236 0.318678 -0.0511004 -0.00406169 0.301534 
-0.0575307 -0.00475589 0.283983 -0.0638241 -0.00533798 0.265996 -0.0700206 -0.00584776 0.24753 
-0.0761712 -0.00634889 0.228528 -0.0823242 -0.00692296 0.208922 -0.0885086 -0.00766119 0.188638 
-0.0947182 -0.00865467 0.167606 -0.100897 -0.00998411 0.145769 -0.106929 -0.0117105 0.123092 
-0.112636 -0.0138674 0.0995669 -0.11778 -0.0164567 0.0752258 -0.12208 -0.0194469 0.0501387 
-0.125226 -0.0227753 0.0244154 -0.12691 -0.0263538 -0.00179892 -0.126853 -0.0300765 -0.028331 
-0.124835 -0.0338299 -0.0549899 -0.120721 -0.0375019 -0.0815788 -0.114479 -0.0409919 -0.107908 
-0.106194 -0.0442171 -0.133805 -0.0960611 -0.0471169 -0.159128 -0.0843791 -0.0496542 -0.183766 
-0.0715242 -0.0518124 -0.20765 -0.0579198 -0.0535908 -0.230746 -0.044 -0.0549965 -0.253054 
-0.0301715 -0.0560371 -0.274602 -0.0167791 -0.0567121 -0.295435 -0.00407753 -0.057007 -0.31561 
0.00778674 -0.056889 -0.335185 0.0187813 -0.0563071 -0.354209 0.0289814 -0.0551944 -0.372725 
0.0385508 -0.0534746 -0.390759 0.0477146 -0.05107 -0.408325 0.0567238 -0.0479124 -0.425424 
0.0658197 -0.0439524 -0.442049 0.0751993 -0.0391689 -0.458189 0.0849871 -0.0335756 -0.473831 
0.095217 -0.0272241 -0.488961 0.105825 -0.0202035 -0.503568 0.116655 -0.012636 -0.517645 
0.127472 -0.00466832 -0.531179 0.137993 0.00353797 -0.544156 0.147914 0.0118189 -0.556554 
0.156942 0.0200195 -0.568339 0.164828 0.0280045 -0.579465 0.171393 0.0356661 -0.589877 
0.176542 0.0429278 -0.599505 0.180272 0.0497457 -0.608281 0.182665 0.0561048 -0.616134 
0.183881 0.0620132 -0.623007 0.18413 0.0674929 -0.628863 0.183654 0.0725713 -0.633691 
0.182698 0.0772716 -0.637514 0.181487 0.0816054 -0.640388 0.180209 0.0855682 -0.642409 
0.179005 0.0891373 -0.6437 0.177966 0.0922731 -0.644405 0.177135 0.094924 -0.644682 
0.176518 0.0970327 -0.644684 0.1761 0.0985438 -0.644551 0.175858 0.0994119 -0.644392 
0.17577 0.0996075 -0.644279 
LINES 2 100
OFFSETS vtktypeint64
0 100 
CONNECTIVITY vtktypeint64
0 1 2 3 4 5 6 7 8 
9 10 11 12 13 14 15 16 17 
18 19 20 21 22 23 24 25 26 
27 28 29 30 31 32 33 34 35 
36 37 38 39 40 41 42 43 44 
45 46 47 48 49 50 51 52 53 
54 55 56 57 58 59 60 61 62 
63 64 65 66 67 68 69 70 71 
72 73 74 75 76 77 78 79 80 
81 82 83 84 85 86 87 88 89 
90 91 92 93 94 95 96 97 98 
99 
POINT_DATA 100
FIELD FieldData 3
_theta 1 100 double
0 0.031733259127 0.063466518254 0.095199777382 0.12693303651 0.15866629564 0.19039955476 0.22213281389 0.25386607302 
0.28559933214 0.31733259127 0.3490658504 0.38079910953 0.41253236865 0.44426562778 0.47599888691 0.50773214603 0.53946540516 
0.57119866429 0.60293192342 0.63466518254 0.66639844167 0.6981317008 0.72986495992 0.76159821905 0.79333147818 0.82506473731 
0.85679799643 0.88853125556 0.92026451469 0.95199777382 0.98373103294 1.0154642921 1.0471975512 1.0789308103 1.1106640695 
1.1423973286 1.1741305877 1.2058638468 1.237597106 1.2693303651 1.3010636242 1.3327968833 1.3645301425 1.3962634016 
1.4279966607 1.4597299198 1.491463179 1.5231964381 1.5549296972 1.5866629564 1.6183962155 1.6501294746 1.6818627337 
1.7135959929 1.745329252 1.7770625111 1.8087957702 1.8405290294 1.8722622885 1.9039955476 1.9357288068 1.9674620659 
1.999195325 2.0309285841 2.0626618433 2.0943951024 2.1261283615 2.1578616206 2.1895948798 2.2213281389 2.253061398 
2.2847946572 2.3165279163 2.3482611754 2.3799944345 2.4117276937 2.4434609528 2.4751942119 2.506927471 2.5386607302 
2.5703939893 2.6021272484 2.6338605076 2.6655937667 2.6973270258 2.7290602849 2.7607935441 2.7925268032 2.8242600623 
2.8559933214 2.8877265806 2.9194598397 2.9511930988 2.982926358 3.0146596171 3.0463928762 3.0781261353 3.1098593945 
3.1415926536 
_radius 1 100 double
1.5587395416e-15 0.016448633623 0.032894930533 0.049334449669 0.065753364313 0.082124567615 0.098405047812 0.11453515506 0.13044012716 
0.14603380751 0.16122405801 0.17591909489 0.19003389505 0.20349587441 0.21624914358 0.22825676985 0.23950066076 0.2499789906 
0.25970151279 0.26868354065 0.27693969204 0.28447857177 0.29129939355 0.2973911879 0.3027348036 0.30730746219 0.31108920298 
0.31407018386 0.31625752846 0.31768031299 0.31839144878 0.31846567132 0.31799354276 0.31707216183 0.31579395202 0.31423527656 
0.31244661792 0.3104457214 0.30821461916 0.30570101673 0.30282420187 0.29948534356 0.29558167177 0.29102353831 0.28575281231 
0.27976053271 0.27310129851 0.26590162154 0.25835955921 0.25073363459 0.24332066222 0.23642480138 0.23032343261 0.22523765708 
0.22131434712 0.21862234974 0.2171598947 0.21686665624 0.21763390733 0.21930927421 0.22169705224 0.22455890263 0.22762107355 
0.23059192484 0.23318858193 0.23516724269 0.23635042433 0.23664582851 0.23605381359 0.23466272776 0.23263329154 0.23017460435 
0.22751508239 0.22487182348 0.22242173058 0.22027737468 0.21847015812 0.21694281038 0.21555240935 0.21408387287 0.21227239192 
0.20983193138 0.20648602192 0.20199679556 0.19618860407 0.18896346669 0.18030679937 0.17028318518 0.15902322789 0.14670369645 
0.13352410667 0.11968345056 0.10536078921 0.090702691094 0.07581895729 0.060785974704 0.045655048204 0.030462061494 0.015235309828 
9.192314545e-16 
_area 1 100 double
0 0.00059805543551 0.0023958960467 0.0054024403885 0.0096258860229 0.015065069682 0.021700275804 0.029486127059 0.038348743052 
0.048187864847 0.05888248943 0.070296593978 0.082281502655 0.094675086057 0.10730309114 0.11998809336 0.13256523995 0.14489782497 
0.15688542787 0.16846168383 0.17958308383 0.19021151868 0.20029329659 0.20973981847 0.21841921168 0.22616804414 0.2328242608 
0.23827125412 0.24247637514 0.24550834196 0.2475245813 0.24872941028 0.24931778082 0.24943028724 0.24913686177 0.24844669858 
0.24733786061 0.24580785828 0.24386741399 0.24168105892 0.2392096664 0.23598027561 0.23169342433 0.22616794955 0.21931240205 
0.21115674161 0.2018816173 0.19182377309 0.18144629452 0.17127360906 0.16180243389 0.15340754465 0.14626589279 0.14033223997 
0.13540092064 0.13123258962 0.12766288675 0.12464055395 0.12219379433 0.12035767406 0.11919534946 0.1188689795 0.11937356411 
0.12032958731 0.12119246715 0.12149354264 0.12097639906 0.11962083036 0.11758851547 0.11514924258 0.11266226939 0.11055988881 
0.10923199638 0.1088627508 0.10941441801 0.11072070354 0.11254757399 0.11460942853 0.11657635101 0.11809109037 0.1187914813 
0.11833318535 0.11641723603 0.11282610091 0.10746284038 0.10038072199 0.091790666789 0.082040487553 0.071569155916 0.060847176615 
0.050317794896 0.040352421268 0.031228295572 0.023129358704 0.016165278748 0.010399317059 0.0058728351218 0.0026172657985 0.0006553285775 
1.249908896e-16 
