# vtk DataFile Version 5.1
vtk output
ASCII
DATASET POLYDATA
POINTS 100 float
0.11305 0.0200913 -0.657206 0.112891 0.0199219 -0.657161 0.112384 0.0195791 -0.656879 
0.111542 0.0190957 -0.656295 0.11039 0.0185197 -0.655315 0.108959 0.0179062 -0.653823 
0.107285 0.017308 -0.651693 0.105405 0.0167652 -0.648806 0.103357 0.016297 -0.645059 
0.101171 0.0158954 -0.640381 0.098869 0.0155232 -0.634731 0.0964596 0.0151154 -0.628111 
0.0939353 0.0145849 -0.620554 0.0912717 0.0138316 -0.612122 0.0884266 0.0127528 -0.602898 
0.0853425 0.011256 -0.59297 0.08195 0.00926947 -0.582425 0.0781735 0.00675166 -0.571332 
0.0739377 0.00369694 -0.559741 0.0691758 0.000137557 -0.547675 0.0638368 -0.00385853 -0.535131 
0.0578925 -0.00819363 -0.522081 0.0513424 -0.0127492 -0.508484 0.0442166 -0.0173965 -0.494291 
0.0365756 -0.0220078 -0.479456 0.0285066 -0.0264661 -0.463945 0.0201181 -0.0306737 -0.447744 
0.0115307 -0.0345564 -0.430862 0.00286741 -0.0380661 -0.413333 -0.00575632 -0.0411787 -0.395212 
-0.0142424 -0.0438901 -0.376566 -0.0225172 -0.0462102 -0.35747 -0.0305357 -0.0481564 -0.337995 
-0.0382826 -0.0497474 -0.318195 -0.0457684 -0.0509984 -0.298102 -0.0530227 -0.0519182 -0.277722 
-0.0600846 -0.0525094 -0.257028 -0.066991 -0.0527701 -0.23597 -0.0737647 -0.0526976 -0.214474 
-0.0804037 -0.0522933 -0.192458 -0.0868728 -0.0515672 -0.169841 -0.0930997 -0.0505414 -0.146557 
-0.098975 -0.0492522 -0.122565 -0.104357 -0.0477495 -0.0978616 -0.109081 -0.0460933 -0.0724871 
-0.112972 -0.0443492 -0.0465257 -0.115862 -0.0425811 -0.0201046 -0.1176 -0.0408441 0.00661306 
-0.118073 -0.0391782 0.0334383 -0.117213 -0.037603 0.0601692 -0.115007 -0.0361157 0.0866048 
-0.111497 -0.0346914 0.112559 -0.106778 -0.0332879 0.13787 -0.100991 -0.0318517 0.162412 
-0.0943082 -0.0303276 0.186101 -0.0869199 -0.0286682 0.208889 -0.0790182 -0.0268432 0.23077 
-0.0707806 -0.0248472 0.251768 -0.0623578 -0.0227038 0.271931 -0.0538638 -0.0204668 0.29132 
-0.0453712 -0.0182168 0.310004 -0.0369115 -0.0160544 0.328044 -0.0284794 -0.0140902 0.345493 
-0.020042 -0.0124329 0.36239 -0.0115497 -0.0111774 0.378761 -0.00294882 -0.0103941 0.394618 
0.00580668 -0.0101205 0.409964 0.0147448 -0.0103568 0.4248 0.0238684 -0.0110662 0.439128 
0.033152 -0.0121785 0.452956 0.042542 -0.0135986 0.466302 0.0519613 -0.0152168 0.479196 
0.0613159 -0.0169212 0.491679 0.0705042 -0.0186092 0.503797 0.0794265 -0.0201974 0.5156 
0.0879937 -0.0216288 0.527135 0.096135 -0.0228748 0.538438 0.103802 -0.0239351 0.549526 
0.110971 -0.0248313 0.560397 0.117642 -0.0255998 0.571023 0.123833 -0.0262814 0.581352 
0.129579 -0.0269114 0.591308 0.134918 -0.0275109 0.600796 0.139894 -0.0280811 0.609713 
0.144542 -0.0286009 0.61795 0.14889 -0.0290285 0.625406 0.152954 -0.0293074 0.631998 
0.15674 -0.029375 0.637663 0.160242 -0.0291733 0.642374 0.16345 -0.0286598 0.646135 
0.16635 -0.0278169 0.648989 0.16893 -0.0266591 0.651011 0.17118 -0.0252355 0.652309 
0.1731 -0.023628 0.653011 0.174693 -0.0219456 0.65326 0.175971 -0.0203139 0.653201 
0.176948 -0.0188624 0.652975 0.177641 -0.0177109 0.652701 0.178062 -0.0169559 0.652473 
0.178223 -0.0166601 0.652353 
LINES 2 100
OFFSETS vtktypeint64
0 100 
CONNECTIVITY vtktypeint64
0 1 2 3 4 5 6 7 8 
9 10 11 12 13 14 15 16 17 
18 19 20 21 22 23 24 25 26 
27 28 29 30 31 32 33 34 35 
36 37 38 39 40 41 42 43 44 
45 46 47 48 49 50 51 52 53 
54 55 56 57 58 59 60 61 62 
63 64 65 66 67 68 69 70 71 
72 73 74 75 76 77 78 79 80 
81 82 83 84 85 86 87 88 89 
90 91 92 93 94 95 96 97 98 
99 
POINT_DATA 100
FIELD FieldData 3
_theta 1 100 double
0 0.031733259127 0.063466518254 0.095199777382 0.12693303651 0.15866629564 0.19039955476 0.22213281389 0.25386607302 
0.28559933214 0.31733259127 0.3490658504 0.38079910953 0.41253236865 0.44426562778 0.47599888691 0.50773214603 0.53946540516 
0.57119866429 0.60293192342 0.63466518254 0.66639844167 0.6981317008 0.72986495992 0.76159821905 0.79333147818 0.82506473731 
0.85679799643 0.88853125556 0.92026451469 0.95199777382 0.98373103294 1.0154642921 1.0471975512 1.0789308103 1.1106640695 
1.1423973286 1.1741305877 1.2058638468 1.237597106 1.2693303651 1.3010636242 1.3327968833 1.3645301425 1.3962634016 
1.4279966607 1.4597299198 1.491463179 1.5231964381 1.5549296972 1.5866629564 1.6183962155 1.6501294746 1.6818627337 
1.7135959929 1.745329252 1.7770625111 1.8087957702 1.8405290294 1.8722622885 1.9039955476 1.9357288068 1.9674620659 
1.999195325 2.0309285841 2.0626618433 2.0943951024 2.1261283615 2.1578616206 2.1895948798 2.2213281389 2.253061398 
2.2847946572 2.3165279163 2.3482611754 2.3799944345 2.4117276937 2.4434609528 2.4751942119 2.506927471 2.5386607302 
2.5703939893 2.6021272484 2.6338605076 2.6655937667 2.6973270258 2.7290602849 2.7607935441 2.7925268032 2.8242600623 
2.8559933214 2.8877265806 2.9194598397 2.9511930988 2.982926358 3.0146596171 3.0463928762 3.0781261353 3.1098593945 
3.1415926536 
_radius 1 100 double
1.1250480863e-15 0.013311682022 0.026519406228 0.03953049587 0.052270135829 0.064684493608 0.076738467467 0.088408656099 0.099673467801 
0.11050309426 0.12085207565 0.13065638197 0.1398356419 0.14829983193 0.15595879991 0.16273263646 0.16856109143 0.17341077672 
0.17727956407 0.18019816956 0.18222928079 0.18346468351 0.18402072408 0.18403222437 0.18364481757 0.18300576442 0.18225373479 
0.18150871266 0.1808637654 0.18038038776 0.18008816547 0.17998794384 0.18005649597 0.18025070321 0.18051052666 0.18076178739 
0.18092084388 0.18090282367 0.18063330147 0.18006139518 0.17917133001 0.17798983991 0.17658786041 0.17507625502 0.17359643646 
0.17230748177 0.17137162924 0.17093995553 0.17113970302 0.1720642392 0.17376600128 0.17625215461 0.17948246538 0.18336936532 
0.18778106477 0.19254897587 0.1974800064 0.20237278601 0.20703554002 0.21130282983 0.21504875165 0.21819504433 0.22071352004 
0.22262307202 0.22398213142 0.22487780708 0.2254130613 0.22569320596 0.22581284447 0.22584424381 0.22582807663 0.22576750964 
0.22562659213 0.22533358308 0.22478909265 0.22387784298 0.22248193759 0.22049324352 0.21782295048 0.21440729202 0.21020937068 
0.20521770632 0.19944239646 0.19290970042 0.18565564045 0.17771908214 0.16913482466 0.15992744685 0.15010688036 0.13966676669 
0.12858646135 0.11683697699 0.10439026169 0.091230282637 0.077363833341 0.062829025151 0.047699965763 0.032086891678 0.016131770228 
2.0673201414e-16 
_area 1 100 double
0 0.00046468829588 0.0018521056644 0.0041420868861 0.007300367671 0.011277864711 0.016009973194 0.021415731225 0.027396395469 
0.033833090335 0.040583963176 0.047482400868 0.054338576559 0.060946217566 0.067094985081 0.07258690297 0.077253790517 0.080972320061 
0.083674260981 0.085351160162 0.086054168686 0.085890150146 0.085014558088 0.083620381268 0.081921370096 0.080128493289 0.078424124318 
0.07694483375 0.075778901619 0.074974034615 0.074548990605 0.074507974476 0.074854052664 0.075533475011 0.076483889932 0.077637278429 
0.078796944996 0.079845075077 0.080685757397 0.081268834588 0.081617267675 0.081877316459 0.082357285605 0.082904893377 0.083533081715 
0.08426640561 0.085131930211 0.086171285217 0.087452647645 0.089071473035 0.091139124776 0.093765093693 0.09703884593 0.101012868 
0.10567633002 0.11090500012 0.11644005861 0.1219525849 0.12712007119 0.1316685604 0.13539584851 0.13818446794 0.14000394754 
0.14090188118 0.14098598859 0.14040168045 0.13931023369 0.13787077562 0.13622588439 0.13448875073 0.13273154531 0.13097747442 
0.12919903007 0.12732333452 0.1252449983 0.12284564462 0.12001595375 0.1166737586 0.11277293245 0.108301807 0.10327430028 
0.097719831321 0.091678135264 0.08520156675 0.07836176672 0.071253969485 0.063993833232 0.056706425137 0.049511090856 0.042508158756 
0.035773784837 0.029366520319 0.023342949357 0.017774079481 0.012754253294 0.0083993700524 0.0048361958372 0.0021868361123 0.00055252803674 
4.516974815e-17 
