# vtk DataFile Version 5.1
vtk output
ASCII
DATASET POLYDATA
POINTS 100 float
0.0853915 -0.0368203 0.670296 0.085439 -0.0366126 0.670345 0.0855219 -0.036143 0.670639 
0.0856291 -0.0354141 0.671081 0.0857436 -0.0344323 0.671517 0.0858445 -0.0332088 0.671751 
0.0859098 -0.0317617 0.671562 0.085918 -0.0301177 0.670726 0.0858501 -0.0283119 0.669028 
0.0856896 -0.0263877 0.66629 0.0854225 -0.0243945 0.662374 0.0850348 -0.0223845 0.657202 
0.0845109 -0.0204086 0.650751 0.0838297 -0.0185113 0.643058 0.0829627 -0.0167264 0.634211 
0.0818715 -0.0150729 0.624335 0.0805078 -0.0135526 0.613584 0.0788138 -0.0121495 0.602124 
0.0767258 -0.0108316 0.590117 0.0741788 -0.00955437 0.577707 0.0711124 -0.00826656 0.565014 
0.0674776 -0.00691697 0.552124 0.0632432 -0.00546181 0.539091 0.0584017 -0.00387166 0.525933 
0.052972 -0.00213716 0.512641 0.0470009 -0.00027264 0.499187 0.0405607 0.00168288 0.485529 
0.0337445 0.00366744 0.471623 0.0266582 0.00560065 0.457431 0.019411 0.00739049 0.442924 
0.0121056 0.00894162 0.428087 0.00482787 0.0101643 0.412919 -0.00236115 0.0109827 0.397432 
-0.00943086 0.0113424 0.381646 -0.016383 0.0112147 0.365581 -0.0232497 0.0105989 0.349255 
-0.0300873 0.00952133 0.332675 -0.0369671 0.00803134 0.315836 -0.0439634 0.00619529 0.298716 
-0.0511406 0.00408868 0.281278 -0.0585401 0.00178773 0.263473 -0.0661694 -0.000638571 0.245241 
-0.0739944 -0.00313519 0.226524 -0.0819355 -0.00566558 0.207265 -0.0898683 -0.00821362 0.187421 
-0.0976295 -0.0107829 0.166964 -0.105027 -0.0133932 0.145889 -0.111851 -0.0160754 0.124212 
-0.117895 -0.0188645 0.101972 -0.122962 -0.0217923 0.079227 -0.126887 -0.0248809 0.0560486 
-0.129545 -0.0281366 0.0325173 -0.130859 -0.0315464 0.00871579 -0.130804 -0.0350764 -0.0152776 
-0.129407 -0.038672 -0.0393929 -0.126738 -0.0422605 -0.063572 -0.122905 -0.0457558 -0.087769 
-0.118038 -0.049063 -0.111949 -0.112281 -0.0520845 -0.136085 -0.105775 -0.0547255 -0.160151 
-0.0986515 -0.0568983 -0.184123 -0.0910217 -0.0585267 -0.207964 -0.0829723 -0.0595481 -0.231628 
-0.074565 -0.0599151 -0.255054 -0.0658385 -0.0595961 -0.278167 -0.0568138 -0.0585748 -0.300879 
-0.0475015 -0.0568502 -0.323093 -0.0379104 -0.0544357 -0.344711 -0.0280552 -0.0513588 -0.365641 
-0.0179639 -0.0476608 -0.385805 -0.00768302 -0.0433968 -0.405142 0.00271999 -0.0386353 -0.42362 
0.0131566 -0.0334576 -0.441234 0.0235198 -0.027956 -0.458007 0.0336888 -0.0222313 -0.473985 
0.0435359 -0.0163894 -0.489236 0.0529329 -0.0105363 -0.503836 0.0617592 -0.00477253 -0.51786 
0.0699081 0.000812999 -0.531376 0.0772922 0.00614844 -0.54443 0.0838475 0.011184 -0.557044 
0.0895357 0.0158954 -0.569205 0.0943442 0.0202843 -0.580872 0.0982852 0.0243777 -0.591974 
0.101393 0.0282232 -0.602415 0.103722 0.0318827 -0.612092 0.10534 0.0354242 -0.620895 
0.106328 0.0389122 -0.62873 0.106774 0.0423988 -0.635525 0.106771 0.0459145 -0.641241 
0.106414 0.0494629 -0.645881 0.105795 0.0530162 -0.649488 0.105005 0.056516 -0.65215 
0.104128 0.0598763 -0.65399 0.103242 0.0629905 -0.655156 0.102415 0.0657407 -0.655809 
0.101707 0.0680087 -0.656109 0.101165 0.0696875 -0.656201 0.100824 0.0706921 -0.656199 
0.100705 0.0709678 -0.656178 
LINES 2 100
OFFSETS vtktypeint64
0 100 
CONNECTIVITY vtktypeint64
0 1 2 3 4 5 6 7 8 
9 10 11 12 13 14 15 16 17 
18 19 20 21 22 23 24 25 26 
27 28 29 30 31 32 33 34 35 
36 37 38 39 40 41 42 43 44 
45 46 47 48 49 50 51 52 53 
54 55 56 57 58 59 60 61 62 
63 64 65 66 67 68 69 70 71 
72 73 74 75 76 77 78 79 80 
81 82 83 84 85 86 87 88 89 
90 91 92 93 94 95 96 97 98 
99 
POINT_DATA 100
FIELD FieldData 3
_theta 1 100 double
0 0.031733259127 0.063466518254 0.095199777382 0.12693303651 0.15866629564 0.19039955476 0.22213281389 0.25386607302 
0.28559933214 0.31733259127 0.3490658504 0.38079910953 0.41253236865 0.44426562778 0.47599888691 0.50773214603 0.53946540516 
0.57119866429 0.60293192342 0.63466518254 0.66639844167 0.6981317008 0.72986495992 0.76159821905 0.79333147818 0.82506473731 
0.85679799643 0.88853125556 0.92026451469 0.95199777382 0.98373103294 1.0154642921 1.0471975512 1.0789308103 1.1106640695 
1.1423973286 1.1741305877 1.2058638468 1.237597106 1.2693303651 1.3010636242 1.3327968833 1.3645301425 1.3962634016 
1.4279966607 1.4597299198 1.491463179 1.5231964381 1.5549296972 1.5866629564 1.6183962155 1.6501294746 1.6818627337 
1.7135959929 1.745329252 1.7770625111 1.8087957702 1.8405290294 1.8722622885 1.9039955476 1.9357288068 1.9674620659 
1.999195325 2.0309285841 2.0626618433 2.0943951024 2.1261283615 2.1578616206 2.1895948798 2.2213281389 2.253061398 
2.2847946572 2.3165279163 2.3482611754 2.3799944345 2.4117276937 2.4434609528 2.4751942119 2.506927471 2.5386607302 
2.5703939893 2.6021272484 2.6338605076 2.6655937667 2.6973270258 2.7290602849 2.7607935441 2.7925268032 2.8242600623 
2.8559933214 2.8877265806 2.9194598397 2.9511930988 2.982926358 3.0146596171 3.0463928762 3.0781261353 3.1098593945 
3.1415926536 
_radius 1 100 double
4.7752497884e-16 0.014811097179 0.029539223059 0.044108810774 0.058443173169 0.072465495705 0.08610135894 0.099282334751 0.11194984854 
0.12405842974 0.1355776733 0.14649260125 0.156802507 0.16651866455 0.17566141863 0.18425712348 0.19233521361 0.19992547057 
0.20705541961 0.21374783373 0.22001852956 0.22587488238 0.23131558162 0.2363319546 0.24091072609 0.24503756075 0.24870044421 
0.25189206834 0.25461080742 0.25686032664 0.25864813646 0.25998349443 0.26087507102 0.26132879598 0.26134626557 0.2609240059 
0.26005377766 0.25872400979 0.2569223705 0.25463940055 0.25187301017 0.24863345773 0.24494820131 0.24086579924 0.2364579227 
0.23181862756 0.22706037299 0.22230686683 0.21768357287 0.21330744675 0.20927789984 0.20567083673 0.2025367443 0.19990245167 
0.19777490787 0.19614478355 0.19498819975 0.19426622254 0.19392339581 0.19388782799 0.194075443 0.19439941702 0.19478305135 
0.1951721476 0.19554290924 0.19590323396 0.19628746832 0.19674616608 0.19733299438 0.19809099393 0.19904019884 0.20016828134 
0.20142541536 0.20272390899 0.20394238544 0.20493361585 0.20553478544 0.20557904096 0.20490738245 0.20338005305 0.20088649551 
0.19735284294 0.19274597844 0.18707349239 0.18037933291 0.17273550094 0.16423072861 0.15495765263 0.1450004662 0.13442524093 
0.12327485857 0.11156968021 0.099313844863 0.086505802347 0.073150766752 0.059272465151 0.044921836528 0.030181036594 0.015162026578 
2.8369862247e-16 
_area 1 100 double
0 0.00063277723235 0.0025182125569 0.0056167118846 0.0098598109538 0.01514822868 0.021352166267 0.028315719707 0.035866372173 
0.043829052971 0.052042485677 0.06037388187 0.068727233408 0.077041778629 0.085281179421 0.093418404037 0.10142270114 0.10925265428 
0.11685587442 0.12417383626 0.13114988497 0.13773864183 0.1439149897 0.14967995931 0.15505970857 0.16009455367 0.16481953924 
0.16924403943 0.1733396677 0.17704129764 0.18025937427 0.18289753489 0.18486881697 0.18610521761 0.18655843225 0.18619401761 
0.18498495152 0.18291031422 0.17996105066 0.17615122743 0.1715312198 0.16619831055 0.16030037747 0.15402996236 0.14760884398 
0.14126656585 0.13521844211 0.12964688487 0.12468489853 0.12039861214 0.1167715147 0.11370050234 0.11101727557 0.10853862064 
0.10612220699 0.10369812716 0.10126763974 0.098876872528 0.096580789297 0.094419612182 0.092420454629 0.090613302787 0.089043521989 
0.087769583959 0.086839971934 0.086264933494 0.086027753609 0.086129127458 0.08660859903 0.087533964337 0.08897330493 0.090950862553 
0.093400025935 0.096162160416 0.099027381265 0.10176426614 0.10413161488 0.105886466 0.10679602063 0.10665503659 0.10530649578 
0.10266125958 0.098711885659 0.093536830534 0.0872934606 0.080200518461 0.072512439908 0.064489747399 0.056371615232 0.048357213831 
0.040600341748 0.033217448913 0.026304383514 0.019954532054 0.014271633146 0.0093734945906 0.0053863523713 0.0024323643945 0.00061410177723 
4.3395165536e-17 
