# vtk DataFile Version 5.1
vtk output
ASCII
DATASET POLYDATA
POINTS 100 float
0.101952 0.0812635 -0.752907 0.102025 0.0808377 -0.752778 0.102217 0.07983 -0.752374 
0.102513 0.0782599 -0.751648 0.10288 0.0761558 -0.750529 0.10328 0.0735529 -0.748925 
0.103662 0.0704905 -0.746734 0.103968 0.0670091 -0.743853 0.104131 0.0631478 -0.740185 
0.104081 0.0589423 -0.735649 0.10374 0.0544232 -0.730183 0.103029 0.0496157 -0.723749 
0.101867 0.0445402 -0.716334 0.100173 0.0392131 -0.707944 0.0978682 0.03365 -0.698603 
0.0948817 0.0278677 -0.688346 0.0911528 0.0218879 -0.677211 0.0866361 0.0157399 -0.665233 
0.0813062 0.00946328 -0.652442 0.075162 0.00310959 -0.638856 0.0682304 -0.00325698 -0.624479 
0.0605681 -0.00956038 -0.609307 0.0522617 -0.0157147 -0.593326 0.0434254 -0.0216278 -0.576516 
0.0341959 -0.0272051 -0.558862 0.0247257 -0.0323555 -0.540352 0.0151734 -0.0369963 -0.520986 
0.00569388 -0.0410584 -0.500778 -0.00357244 -0.0444907 -0.479757 -0.0125088 -0.0472633 -0.457965 
-0.0210298 -0.049369 -0.435457 -0.0290859 -0.0508234 -0.412293 -0.0366641 -0.0516624 -0.388536 
-0.0437849 -0.0519394 -0.364244 -0.0504952 -0.0517196 -0.339464 -0.0568584 -0.0510747 -0.314232 
-0.0629415 -0.050077 -0.288567 -0.0688019 -0.0487936 -0.262476 -0.074475 -0.047282 -0.23595 
-0.0799635 -0.0455867 -0.208976 -0.0852304 -0.0437383 -0.181539 -0.0901968 -0.0417535 -0.153631 
-0.0947445 -0.0396378 -0.125259 -0.0987234 -0.0373895 -0.096449 -0.101963 -0.0350045 -0.0672564 
-0.10429 -0.0324819 -0.0377634 -0.105538 -0.0298289 -0.00808185 -0.105573 -0.0270652 0.0216505 
-0.104301 -0.0242258 0.0512756 -0.10168 -0.021362 0.0806226 -0.0977275 -0.0185395 0.109518 
-0.092519 -0.0158363 0.137795 -0.0861832 -0.0133364 0.165306 -0.0788919 -0.0111244 0.191927 
-0.0708456 -0.00927825 0.217568 -0.0622576 -0.0078627 0.242179 -0.053337 -0.00692322 0.265746 
-0.0442734 -0.00648186 0.288296 -0.0352245 -0.00653496 0.309887 -0.0263082 -0.00705322 0.330609 
-0.0175985 -0.00798413 0.350566 -0.00912795 -0.0092564 0.369877 -0.000892857 -0.0107862 0.388659 
0.00713684 -0.0124844 0.407022 0.0150064 -0.0142636 0.42506 0.0227646 -0.0160455 0.442846 
0.0304527 -0.0177662 0.460426 0.0380963 -0.0193804 0.47782 0.0457006 -0.0208629 0.49502 
0.0532484 -0.0222088 0.511993 0.0607029 -0.0234302 0.528686 0.068013 -0.0245528 0.545028 
0.0751205 -0.0256105 0.56094 0.0819682 -0.0266393 0.576338 0.0885078 -0.0276719 0.591137 
0.0947058 -0.028733 0.605263 0.100547 -0.0298356 0.618651 0.106036 -0.0309792 0.631249 
0.111194 -0.0321499 0.643026 0.116053 -0.0333215 0.653964 0.120651 -0.0344589 0.664065 
0.125027 -0.0355218 0.673347 0.129207 -0.0364692 0.681841 0.133206 -0.0372635 0.68959 
0.137022 -0.0378746 0.696645 0.140636 -0.0382829 0.703058 0.144016 -0.0384805 0.708884 
0.147118 -0.0384721 0.714175 0.1499 -0.0382739 0.718977 0.152321 -0.0379124 0.723326 
0.154357 -0.0374213 0.727253 0.155997 -0.0368391 0.730775 0.157253 -0.0362063 0.733902 
0.158158 -0.0355622 0.736633 0.158763 -0.0349435 0.738964 0.159129 -0.0343822 0.740884 
0.159325 -0.0339049 0.742379 0.159415 -0.0335321 0.743437 0.159453 -0.0332782 0.744048 
0.159474 -0.0331515 0.744205 
LINES 2 100
OFFSETS vtktypeint64
0 100 
CONNECTIVITY vtktypeint64
0 1 2 3 4 5 6 7 8 
9 10 11 12 13 14 15 16 17 
18 19 20 21 22 23 24 25 26 
27 28 29 30 31 32 33 34 35 
36 37 38 39 40 41 42 43 44 
45 46 47 48 49 50 51 52 53 
54 55 56 57 58 59 60 61 62 
63 64 65 66 67 68 69 70 71 
72 73 74 75 76 77 78 79 80 
81 82 83 84 85 86 87 88 89 
90 91 92 93 94 95 96 97 98 
99 
POINT_DATA 100
FIELD FieldData 3
_theta 1 100 double
0 0.031733259127 0.063466518254 0.095199777382 0.12693303651 0.15866629564 0.19039955476 0.22213281389 0.25386607302 
0.28559933214 0.31733259127 0.3490658504 0.38079910953 0.41253236865 0.44426562778 0.47599888691 0.50773214603 0.53946540516 
0.57119866429 0.60293192342 0.63466518254 0.66639844167 0.6981317008 0.72986495992 0.76159821905 0.79333147818 0.82506473731 
0.85679799643 0.88853125556 0.92026451469 0.95199777382 0.98373103294 1.0154642921 1.0471975512 1.0789308103 1.1106640695 
1.1423973286 1.1741305877 1.2058638468 1.237597106 1.2693303651 1.3010636242 1.3327968833 1.3645301425 1.3962634016 
1.4279966607 1.4597299198 1.491463179 1.5231964381 1.5549296972 1.5866629564 1.6183962155 1.6501294746 1.6818627337 
1.7135959929 1.745329252 1.7770625111 1.8087957702 1.8405290294 1.8722622885 1.9039955476 1.9357288068 1.9674620659 
1.999195325 2.0309285841 2.0626618433 2.0943951024 2.1261283615 2.1578616206 2.1895948798 2.2213281389 2.253061398 
2.2847946572 2.3165279163 2.3482611754 2.3799944345 2.4117276937 2.4434609528 2.4751942119 2.506927471 2.5386607302 
2.5703939893 2.6021272484 2.6338605076 2.6655937667 2.6973270258 2.7290602849 2.7607935441 2.7925268032 2.8242600623 
2.8559933214 2.8877265806 2.9194598397 2.9511930988 2.982926358 3.0146596171 3.0463928762 3.0781261353 3.1098593945 
3.1415926536 
_radius 1 100 double
1.0269562978e-15 0.015148500889 0.030156134904 0.044903118085 0.05929045274 0.073244012385 0.086713252531 0.099665133098 0.11207492967 
0.12391615025 0.13515170738 0.14572801871 0.15557309338 0.1645990613 0.17270902062 0.17980747718 0.18581306379 0.19067177295 
0.19436874085 0.19693674396 0.19845999082 0.19907242359 0.19895047128 0.19830090838 0.19734508816 0.19630129559 0.1953672586 
0.19470485449 0.19442857083 0.19459833212 0.19521643172 0.19622825744 0.19752716963 0.19896427167 0.20036330995 0.20153990826 
0.20232328412 0.20257774679 0.20222086478 0.20123546153 0.19967366012 0.19765291484 0.19534585738 0.19296698822 0.19075894331 
0.1889792374 0.18788603213 0.18772001112 0.18868004587 0.19089360912 0.19438806883 0.19907300998 0.20474256973 0.21109969775 
0.21779587247 0.22447570867 0.23081721354 0.2365622875 0.241535505 0.24565129242 0.24891068417 0.25138942224 0.25321956628 
0.25456708472 0.25560808016 0.25650628992 0.25739419721 0.25835943617 0.25943725472 0.26060884389 0.26180462922 0.26291132786 
0.2637816818 0.26424606531 0.26412536103 0.26324446417 0.26144558008 0.25860030001 0.25461938635 0.24945927035 0.24312442422 
0.23566501858 0.22716967375 0.21775372645 0.20754427437 0.19666421011 0.18521818235 0.1732834251 0.16090730955 0.14811152713 
0.13490090326 0.12127390523 0.10723218713 0.09278751747 0.077965511683 0.062806391281 0.047363476118 0.031700347001 0.015887614902 
5.6722116919e-16 
_area 1 100 double
0 0.0006942840688 0.0027376063534 0.006020848305 0.01039057038 0.015681113833 0.021741046318 0.028443467519 0.035678444554 
0.04333512343 0.051283016931 0.059358158294 0.067356573309 0.075036641155 0.082131559777 0.088371736507 0.093514341218 0.097374547785 
0.099851697561 0.10094473693 0.10075446237 0.09947378174 0.097369622263 0.094760398704 0.091990759462 0.089399910667 0.087275998256 
0.085809461236 0.085089023063 0.085140669421 0.085957325437 0.087497958722 0.089670787936 0.092319927481 0.095227519478 0.098134419982 
0.10077473271 0.10291453961 0.1043849708 0.10510389178 0.10508429735 0.10442841906 0.10330895172 0.10194523044 0.10058629585 
0.099506578937 0.099007347995 0.099409867969 0.10102920293 0.10413154232 0.10888542305 0.11530608296 0.12320832723 0.13220643379 
0.14176608994 0.15127999422 0.16014750896 0.16785209746 0.17403066313 0.17852476301 0.18140248609 0.18294168305 0.18356547873 
0.18372761033 0.18378709808 0.18394742012 0.18427408526 0.18474125425 0.18527115488 0.18575738139 0.1860758289 0.18608857972 
0.18564468623 0.18458119105 0.18272738037 0.17991399406 0.17598727472 0.17082678735 0.16436576976 0.15661157951 0.14766110299 
0.13770410228 0.12700902139 0.11589067839 0.10466510607 0.09360150652 0.082884655207 0.072602738614 0.062770253388 0.053377153314 
0.044436371815 0.036006242564 0.028186595551 0.021101156643 0.014878018084 0.0096341191041 0.0054654526035 0.0024428837333 0.00061268203497 
3.6989350183e-17 
