# vtk DataFile Version 5.1
vtk output
ASCII
DATASET POLYDATA
POINTS 100 float
0.19207 0.0498258 -0.630651 0.191219 0.0497308 -0.630994 0.188464 0.0496512 -0.631916 
0.184063 0.0496096 -0.633264 0.178413 0.0496383 -0.634804 0.172014 0.0497725 -0.636247 
0.165415 0.0500425 -0.637279 0.159153 0.0504652 -0.637597 0.153699 0.0510366 -0.636942 
0.14941 0.0517255 -0.63512 0.146492 0.0524703 -0.632027 0.144984 0.0531789 -0.627647 
0.144756 0.053732 -0.622052 0.145524 0.0539896 -0.61539 0.146886 0.0538009 -0.607856 
0.148362 0.0530153 -0.599668 0.149448 0.0514954 -0.591036 0.149663 0.0491289 -0.582138 
0.148596 0.0458394 -0.573093 0.14594 0.0415949 -0.563954 0.141519 0.0364127 -0.554697 
0.135293 0.0303606 -0.545229 0.127352 0.0235536 -0.535402 0.117897 0.0161479 -0.525032 
0.107209 0.00833059 -0.513921 0.0956184 0.000307806 -0.501881 0.0834624 -0.00770832 -0.488756 
0.0710552 -0.0155129 -0.474437 0.0586594 -0.0229201 -0.45887 0.0464694 -0.0297729 -0.44206 
0.034603 -0.03595 -0.42406 0.0231063 -0.0413691 -0.404968 0.0119652 -0.0459867 -0.384904 
0.00112557 -0.0497956 -0.363994 -0.00948383 -0.0528185 -0.342359 -0.0199281 -0.0551011 -0.320096 
-0.0302454 -0.0567032 -0.297272 -0.0404318 -0.057691 -0.273927 -0.0504336 -0.0581297 -0.250068 
-0.0601463 -0.0580778 -0.225686 -0.069422 -0.0575842 -0.200765 -0.0780825 -0.0566865 -0.175292 
-0.0859357 -0.0554127 -0.149276 -0.092795 -0.0537838 -0.122753 -0.098496 -0.0518182 -0.0957952 
-0.102912 -0.0495363 -0.0685106 -0.105962 -0.046965 -0.0410404 -0.107617 -0.0441412 -0.0135506 
-0.107899 -0.041114 0.0137792 -0.106872 -0.037945 0.0407684 -0.104633 -0.0347068 0.0672485 
-0.101299 -0.0314793 0.0930734 -0.0969979 -0.0283454 0.118128 -0.0918519 -0.0253849 0.14233 
-0.0859729 -0.0226692 0.165634 -0.079456 -0.0202556 0.188023 -0.0723788 -0.0181832 0.209505 
-0.0648034 -0.0164702 0.230104 -0.0567815 -0.0151134 0.249853 -0.0483606 -0.0140892 0.268788 
-0.0395911 -0.0133573 0.286942 -0.0305313 -0.0128647 0.304345 -0.0212513 -0.012552 0.321026 
-0.0118338 -0.0123595 0.337013 -0.00237234 -0.0122329 0.352342 0.00703298 -0.0121281 0.36706 
0.0162819 -0.0120156 0.381228 0.0252809 -0.0118818 0.394921 0.0339503 -0.0117294 0.408229 
0.0422297 -0.0115757 0.421249 0.0500824 -0.0114495 0.434079 0.057496 -0.0113865 0.446808 
0.0644815 -0.0114248 0.459505 0.0710696 -0.0115995 0.472211 0.0773049 -0.0119387 0.484929 
0.0832393 -0.0124592 0.497623 0.0889252 -0.0131654 0.510221 0.0944089 -0.0140472 0.522615 
0.099726 -0.0150816 0.534677 0.104898 -0.0162345 0.546267 0.109932 -0.0174635 0.557251 
0.11482 -0.0187214 0.567515 0.119545 -0.0199608 0.576975 0.12408 -0.0211371 0.585587 
0.128395 -0.0222119 0.593353 0.132462 -0.0231558 0.600315 0.136256 -0.023949 0.606548 
0.139757 -0.0245823 0.612155 0.142955 -0.0250568 0.617244 0.145846 -0.0253817 0.621921 
0.148431 -0.0255734 0.62627 0.150717 -0.0256531 0.630345 0.152714 -0.0256444 0.634165 
0.154431 -0.0255718 0.637708 0.155876 -0.0254587 0.64092 0.157058 -0.0253262 0.643719 
0.15798 -0.0251923 0.646014 0.158647 -0.0250714 0.647711 0.15906 -0.0249736 0.648734 
0.15922 -0.0249055 0.649033 
LINES 2 100
OFFSETS vtktypeint64
0 100 
CONNECTIVITY vtktypeint64
0 1 2 3 4 5 6 7 8 
9 10 11 12 13 14 15 16 17 
18 19 20 21 22 23 24 25 26 
27 28 29 30 31 32 33 34 35 
36 37 38 39 40 41 42 43 44 
45 46 47 48 49 50 51 52 53 
54 55 56 57 58 59 60 61 62 
63 64 65 66 67 68 69 70 71 
72 73 74 75 76 77 78 79 80 
81 82 83 84 85 86 87 88 89 
90 91 92 93 94 95 96 97 98 
99 
POINT_DATA 100
FIELD FieldData 3
_theta 1 100 double
0 0.031733259127 0.063466518254 0.095199777382 0.12693303651 0.15866629564 0.19039955476 0.22213281389 0.25386607302 
0.28559933214 0.31733259127 0.3490658504 0.38079910953 0.41253236865 0.44426562778 0.47599888691 0.50773214603 0.53946540516 
0.57119866429 0.60293192342 0.63466518254 0.66639844167 0.6981317008 0.72986495992 0.76159821905 0.79333147818 0.82506473731 
0.85679799643 0.88853125556 0.92026451469 0.95199777382 0.98373103294 1.0154642921 1.0471975512 1.0789308103 1.1106640695 
1.1423973286 1.1741305877 1.2058638468 1.237597106 1.2693303651 1.3010636242 1.3327968833 1.3645301425 1.3962634016 
1.4279966607 1.4597299198 1.491463179 1.5231964381 1.5549296972 1.5866629564 1.6183962155 1.6501294746 1.6818627337 
1.7135959929 1.745329252 1.7770625111 1.8087957702 1.8405290294 1.8722622885 1.9039955476 1.9357288068 1.9674620659 
1.999195325 2.0309285841 2.0626618433 2.0943951024 2.1261283615 2.1578616206 2.1895948798 2.2213281389 2.253061398 
2.2847946572 2.3165279163 2.3482611754 2.3799944345 2.4117276937 2.4434609528 2.4751942119 2.506927471 2.5386607302 
2.5703939893 2.6021272484 2.6338605076 2.6655937667 2.6973270258 2.7290602849 2.7607935441 2.7925268032 2.8242600623 
2.8559933214 2.8877265806 2.9194598397 2.9511930988 2.982926358 3.0146596171 3.0463928762 3.0781261353 3.1098593945 
3.1415926536 
_radius 1 100 double
1.1136870674e-15 0.015406185063 0.03053878808 0.045149403393 0.059035209942 0.072057156956 0.084151857477 0.095334279062 0.10568889807 
0.11534885164 0.12446570571 0.13317551988 0.14156800159 0.14966431418 0.1574072867 0.1646664811 0.17125870233 0.17698098053 
0.18164906956 0.18513280609 0.18738131459 0.18843439715 0.18841940256 0.18753478598 0.18602304 0.18413738478 0.18210847591 
0.18011831908 0.17828715147 0.17667508471 0.17529553609 0.17413419672 0.17316661156 0.17236910823 0.17172095992 0.17119942979 
0.17077266295 0.17039662813 0.17002002056 0.16959622753 0.16909766194 0.16852737345 0.16792496371 0.16736630313 0.16695804722 
0.16682826426 0.16711411559 0.16794726053 0.1694379675 0.17165966928 0.17463640119 0.17833570564 0.1826688382 0.18749849162 
0.19265236259 0.19793965784 0.20316761839 0.20815606886 0.21274914147 0.21682410121 0.22029744014 0.22312826287 0.22531871314 
0.22691103185 0.22798093598 0.2286273895 0.22895943301 0.22908141998 0.2290786016 0.22900526952 0.22887736216 0.22867051042 
0.22832325902 0.22774420788 0.22682144545 0.22543282642 0.22345604982 0.22077786684 0.21730202406 0.21295574197 0.20769462305 
0.20150584438 0.19440933512 0.1864564741 0.17772582154 0.16831565494 0.15833365483 0.14788488523 0.13705999678 0.12592601069 
0.1145218211 0.10285958985 0.090931740463 0.078721791278 0.066216354118 0.053415576613 0.040340038654 0.027033224459 0.01355972426 
1.0113986009e-15 
_area 1 100 double
0 0.00067848143238 0.002662560875 0.0058109221543 0.0099261284276 0.014797727334 0.020240393031 0.026116682998 0.032341497225 
0.0388709821 0.045680449253 0.052737324382 0.059977114533 0.067289546478 0.074518402063 0.081476261476 0.087976891038 0.09389081374 
0.099207771522 0.10395388664 0.10792466179 0.11074676873 0.11214214187 0.11198591951 0.11035110592 0.10746850996 0.10366668981 
0.09931093595 0.094750233465 0.090295112913 0.086223461803 0.082773708988 0.080087823735 0.078163071995 0.076913493505 0.076267985852 
0.076192213227 0.076641481562 0.07748377871 0.078496489762 0.079460405077 0.080223506651 0.080721066668 0.080980122599 0.08111511094 
0.08131417384 0.081813354899 0.082859040286 0.084669813641 0.087409425151 0.091163714524 0.095914237503 0.10152361856 0.1077498828 
0.11428823081 0.12082358556 0.12707613792 0.13282961566 0.1379396838 0.14232524279 0.14594841808 0.14878954458 0.15082498979 
0.15202256921 0.15236722901 0.15190032515 0.15073596928 0.14904098635 0.14699372299 0.14474314193 0.14238212196 0.13993948406 
0.13738900239 0.13466973069 0.13170869027 0.12843675543 0.12479355556 0.12072405596 0.11617355322 0.11108779475 0.1054213275 
0.09915242895 0.092299761478 0.084934543318 0.077182554244 0.06921314592 0.061216999649 0.053378746285 0.045852701643 0.038748831824 
0.032132116744 0.026033644796 0.020468358937 0.015453457562 0.011022379166 0.0072309698098 0.0041545027146 0.0018766766685 0.00047398138061 
8.4081873105e-17 
