# vtk DataFile Version 5.1
vtk output
ASCII
DATASET POLYDATA
POINTS 100 float
0.0845984 0.0125437 -0.566241 0.0843614 0.0127615 -0.565946 0.0837023 0.0132484 -0.565168 
0.0826626 0.0139458 -0.563895 0.0813028 0.0147621 -0.562106 0.07969 0.0155821 -0.559771 
0.0778841 0.0162787 -0.556853 0.0759239 0.0167247 -0.553309 0.073816 0.0168054 -0.549094 
0.0715286 0.0164288 -0.544158 0.0689905 0.0155335 -0.538458 0.0660974 0.0140927 -0.531951 
0.0627235 0.0121157 -0.524604 0.0587377 0.00964471 -0.516396 0.0540226 0.00674982 -0.507315 
0.0484929 0.00352154 -0.497368 0.0421113 6.24472e-05 -0.486572 0.0348988 -0.00352112 -0.47496 
0.0269388 -0.00712639 -0.462575 0.018372 -0.0106599 -0.44947 0.00938553 -0.0140411 -0.435701 
0.000194239 -0.0172042 -0.421326 -0.00898133 -0.0200977 -0.406397 -0.0179386 -0.0226832 -0.39096 
-0.026515 -0.0249327 -0.375049 -0.0346051 -0.0268268 -0.358687 -0.0421708 -0.0283526 -0.341881 
-0.0492434 -0.0295027 -0.324628 -0.055916 -0.0302753 -0.306915 -0.0623279 -0.0306747 -0.28872 
-0.0686429 -0.0307131 -0.27002 -0.0750229 -0.0304117 -0.250793 -0.0816022 -0.029802 -0.231024 
-0.088463 -0.0289255 -0.210706 -0.095618 -0.0278328 -0.189847 -0.103 -0.0265809 -0.16847 
-0.110462 -0.0252292 -0.146614 -0.117786 -0.0238348 -0.124333 -0.124702 -0.0224477 -0.101698 
-0.130908 -0.021106 -0.0787922 -0.136107 -0.0198326 -0.0557091 -0.140024 -0.0186332 -0.0325508 
-0.142443 -0.0174968 -0.00942454 -0.143221 -0.0163984 0.0135601 -0.142299 -0.0153032 0.0362933 
-0.139711 -0.014173 0.0586673 -0.135573 -0.0129727 0.0805787 -0.130072 -0.0116766 0.10193 
-0.123445 -0.0102742 0.122634 -0.115953 -0.00877364 0.14261 -0.107861 -0.00720203 0.161794 
-0.0994113 -0.00560433 0.180135 -0.0908059 -0.00403875 0.197601 -0.0821963 -0.00257046 0.214178 
-0.0736769 -0.00126411 0.229874 -0.0652871 -0.000176134 0.244717 -0.057019 0.000651911 0.258757 
-0.0488296 0.00119818 0.272062 -0.0406555 0.00146269 0.284718 -0.0324278 0.00146648 0.296821 
-0.0240855 0.00124784 0.308477 -0.0155856 0.000856162 0.319791 -0.00690931 0.000344203 0.330865 
0.00193586 -0.00024005 0.341793 0.0109185 -0.000860692 0.352655 0.0199881 -0.00149925 0.363514 
0.0290821 -0.00215721 0.374417 0.0381328 -0.00285508 0.38539 0.0470737 -0.00362826 0.396446 
0.0558444 -0.00451981 0.40758 0.0643916 -0.00557138 0.418778 0.0726699 -0.00681348 0.430019 
0.0806386 -0.0082564 0.441277 0.0882585 -0.00988343 0.452522 0.0954884 -0.0116473 0.463725 
0.102282 -0.013471 0.474854 0.108589 -0.0152524 0.485875 0.114351 -0.0168736 0.496749 
0.119513 -0.0182126 0.507429 0.124024 -0.0191572 0.517858 0.127843 -0.0196183 0.527968 
0.13095 -0.0195417 0.537676 0.133352 -0.0189169 0.546891 0.135082 -0.0177797 0.555514 
0.136206 -0.0162117 0.563443 0.136813 -0.0143325 0.570581 0.137019 -0.0122885 0.576845 
0.136947 -0.0102376 0.582173 0.136724 -0.0083331 0.586533 0.136465 -0.00670693 0.589924 
0.136266 -0.0054564 0.592389 0.136193 -0.00463429 0.594005 0.136277 -0.00424462 0.594886 
0.136519 -0.00424422 0.595175 0.136884 -0.00455006 0.595033 0.137318 -0.00505135 0.594629 
0.137753 -0.00562497 0.594126 0.138118 -0.00615222 0.593668 0.138354 -0.0065348 0.593367 
0.13842 -0.00670793 0.593296 
LINES 2 100
OFFSETS vtktypeint64
0 100 
CONNECTIVITY vtktypeint64
0 1 2 3 4 5 6 7 8 
9 10 11 12 13 14 15 16 17 
18 19 20 21 22 23 24 25 26 
27 28 29 30 31 32 33 34 35 
36 37 38 39 40 41 42 43 44 
45 46 47 48 49 50 51 52 53 
54 55 56 57 58 59 60 61 62 
63 64 65 66 67 68 69 70 71 
72 73 74 75 76 77 78 79 80 
81 82 83 84 85 86 87 88 89 
90 91 92 93 94 95 96 97 98 
99 
POINT_DATA 100
FIELD FieldData 3
_theta 1 100 double
0 0.031733259127 0.063466518254 0.095199777382 0.12693303651 0.15866629564 0.19039955476 0.22213281389 0.25386607302 
0.28559933214 0.31733259127 0.3490658504 0.38079910953 0.41253236865 0.44426562778 0.47599888691 0.50773214603 0.53946540516 
0.57119866429 0.60293192342 0.63466518254 0.66639844167 0.6981317008 0.72986495992 0.76159821905 0.79333147818 0.82506473731 
0.85679799643 0.88853125556 0.92026451469 0.95199777382 0.98373103294 1.0154642921 1.0471975512 1.0789308103 1.1106640695 
1.1423973286 1.1741305877 1.2058638468 1.237597106 1.2693303651 1.3010636242 1.3327968833 1.3645301425 1.3962634016 
1.4279966607 1.4597299198 1.491463179 1.5231964381 1.5549296972 1.5866629564 1.6183962155 1.6501294746 1.6818627337 
1.7135959929 1.745329252 1.7770625111 1.8087957702 1.8405290294 1.8722622885 1.9039955476 1.9357288068 1.9674620659 
1.999195325 2.0309285841 2.0626618433 2.0943951024 2.1261283615 2.1578616206 2.1895948798 2.2213281389 2.253061398 
2.2847946572 2.3165279163 2.3482611754 2.3799944345 2.4117276937 2.4434609528 2.4751942119 2.506927471 2.5386607302 
2.5703939893 2.6021272484 2.6338605076 2.6655937667 2.6973270258 2.7290602849 2.7607935441 2.7925268032 2.8242600623 
2.8559933214 2.8877265806 2.9194598397 2.9511930988 2.982926358 3.0146596171 3.0463928762 3.0781261353 3.1098593945 
3.1415926536 
_radius 1 100 double
1.2212761279e-15 0.013073430145 0.026064799627 0.038893842158 0.051484510569 0.063764285083 0.075661596551 0.087102475193 0.098008052604 
0.10829442332 0.11787564946 0.12666964878 0.13460572635 0.14163194425 0.14772059843 0.15287080724 0.15710833424 0.16048372312 
0.16307006873 0.16496112141 0.16626931252 0.16712238943 0.16765721192 0.16801004237 0.16830410558 0.1686367076 0.16906899269 
0.16962088321 0.17027206692 0.17096810988 0.17162995017 0.17216529247 0.17248100898 0.1724958947 0.17215308007 0.17143132624 
0.17035418058 0.16899541886 0.16747874997 0.16597011054 0.16466239003 0.16375478065 0.16343113316 0.16384228285 0.16509525699 
0.16724848718 0.17030959532 0.17423320894 0.17891952713 0.18421689103 0.18993133088 0.19584342477 0.20172984875 0.20738540722 
0.21264143475 0.21737763888 0.22152600531 0.22506693028 0.22801910963 0.23042572494 0.23233988824 0.23381198483 0.23488059859 
0.23556753819 0.23587662207 0.23579557894 0.23530049743 0.23436231099 0.23295460366 0.23106166172 0.22868539438 0.22584964912 
0.22260063702 0.21900273447 0.21512983533 0.21105352011 0.20683028004 0.20249055639 0.19803217392 0.19341975927 0.188590136 
0.18346201158 0.17794718679 0.17196048236 0.16542658491 0.15828359699 0.15048448689 0.14199818125 0.13281148393 0.12293175921 
0.11238920397 0.10123717692 0.089549520124 0.077414738416 0.064927855951 0.052181447489 0.039257626113 0.026222656917 0.013125398999 
1.1977405483e-15 
_area 1 100 double
0 0.00043173137485 0.0017326248055 0.0039141164447 0.0069788594178 0.010903023768 0.015621048967 0.021016648274 0.026922092861 
0.033126534613 0.039392826117 0.045480516077 0.051170727219 0.056287509446 0.060711114513 0.064381466788 0.067293344968 0.069486579688 
0.071034499293 0.072033031597 0.072592394931 0.072832825608 0.072883920987 0.07288394069 0.072972579191 0.07327035876 0.073847297341 
0.07470450572 0.075786317083 0.077005596433 0.078261312021 0.079447103068 0.080459448358 0.08121308225 0.081666493553 0.081858126512 
0.081954694737 0.08218060177 0.082497712446 0.082846857734 0.083287712985 0.083918143385 0.084840138028 0.086148244628 0.087933293116 
0.090307224237 0.093416632479 0.097399239713 0.10231946242 0.10812042947 0.11458507004 0.12135567218 0.12802809639 0.13426831529 
0.13990141282 0.14493919201 0.14950085229 0.15365121472 0.15734185558 0.16048574461 0.16301823462 0.16491603847 0.16617707691 
0.16677742232 0.1666688564 0.16580901958 0.16417186914 0.16174575725 0.15854086612 0.15460603411 0.15004429975 0.14501488523 
0.13971585596 0.13435044186 0.12908638065 0.12402206542 0.11917140545 0.11446827097 0.10978502599 0.10496247134 0.099847393402 
0.094328212079 0.088357912828 0.081958477229 0.075208008223 0.068216910426 0.061101952849 0.053967157456 0.046898009819 0.039969820697 
0.033263638044 0.026878890333 0.020934753553 0.015559546773 0.01087351896 0.0069723792973 0.0039176383095 0.0017368648435 0.00043323419442 
4.3435586885e-18 
