# vtk DataFile Version 5.1
vtk output
ASCII
DATASET POLYDATA
POINTS 100 float
0.0933029 0.0197855 -0.61522 0.0934845 0.0198203 -0.615202 0.093943 0.0200579 -0.615064 
0.0946188 0.0204725 -0.614727 0.0954186 0.0210236 -0.614073 0.0962236 0.0216576 -0.612953 
0.0968993 0.0223105 -0.611208 0.0973061 0.0229096 -0.608679 0.0973097 0.0233775 -0.605229 
0.0967908 0.0236348 -0.600756 0.0956523 0.0236035 -0.595197 0.0938244 0.0232115 -0.58854 
0.0912674 0.0223952 -0.580815 0.087971 0.0211042 -0.572096 0.0839529 0.0193039 -0.562483 
0.0792542 0.0169787 -0.552097 0.0739359 0.0141341 -0.541058 0.0680729 0.0107983 -0.529478 
0.0617499 0.00702214 -0.517445 0.0550569 0.00287821 -0.50502 0.0480852 -0.00154161 -0.492228 
0.0409246 -0.00612992 -0.479064 0.03366 -0.0107689 -0.465494 0.0263691 -0.0153362 -0.451464 
0.0191188 -0.0197122 -0.43691 0.0119627 -0.0237866 -0.421772 0.00493728 -0.0274652 -0.405995 
-0.00194031 -0.0306758 -0.389544 -0.00867492 -0.0333727 -0.372407 -0.0152939 -0.0355391 -0.354593 
-0.0218459 -0.0371869 -0.336133 -0.0283973 -0.0383554 -0.317073 -0.0350255 -0.0391064 -0.297468 
-0.0418106 -0.0395178 -0.277376 -0.0488234 -0.0396762 -0.256849 -0.056114 -0.0396682 -0.235927 
-0.0636988 -0.039572 -0.214639 -0.0715503 -0.03945 -0.192997 -0.0795888 -0.0393431 -0.171006 
-0.0876792 -0.0392671 -0.148663 -0.0956325 -0.0392122 -0.125968 -0.103214 -0.0391451 -0.102929 
-0.110155 -0.0390137 -0.0795737 -0.116172 -0.0387541 -0.0559493 -0.120988 -0.0382991 -0.0321308 
-0.124355 -0.037587 -0.0082185 -0.126073 -0.0365701 0.0156642 -0.126011 -0.0352218 0.0393773 
-0.12412 -0.0335414 0.0627727 -0.120437 -0.0315564 0.085704 -0.115084 -0.0293214 0.108037 
-0.108257 -0.0269142 0.12966 -0.100214 -0.0244294 0.15049 -0.0912441 -0.0219701 0.170479 
-0.0816521 -0.0196387 0.189614 -0.0717267 -0.0175279 0.207918 -0.0617201 -0.0157122 0.225443 
-0.0518297 -0.0142424 0.242264 -0.0421864 -0.0131418 0.25847 -0.0328515 -0.0124058 0.274157 
-0.023821 -0.0120041 0.289418 -0.0150369 -0.011886 0.304333 -0.006405 -0.0119872 0.318973 
0.00218545 -0.0122376 0.333387 0.0108403 -0.0125697 0.34761 0.0196419 -0.0129256 0.361661 
0.0286341 -0.0132628 0.375547 0.0378141 -0.0135572 0.389269 0.0471305 -0.0138044 0.402827 
0.0564884 -0.0140173 0.416221 0.0657603 -0.0142224 0.429455 0.0748016 -0.0144545 0.442538 
0.0834677 -0.0147496 0.455483 0.0916305 -0.0151394 0.468303 0.0991923 -0.0156451 0.481008 
0.106096 -0.0162741 0.493601 0.112327 -0.0170179 0.506073 0.117912 -0.0178525 0.518397 
0.122912 -0.018741 0.530529 0.127406 -0.0196379 0.542408 0.131482 -0.0204941 0.553953 
0.135214 -0.0212631 0.565069 0.13866 -0.0219057 0.575656 0.141842 -0.022395 0.585607 
0.144751 -0.0227184 0.594824 0.147347 -0.0228788 0.603221 0.149563 -0.0228932 0.61073 
0.151325 -0.0227899 0.617308 0.152559 -0.0226044 0.62294 0.153216 -0.0223746 0.627639 
0.153276 -0.0221359 0.631449 0.152764 -0.0219175 0.634439 0.151754 -0.021739 0.636696 
0.150363 -0.0216095 0.638327 0.148746 -0.0215276 0.639443 0.147082 -0.0214833 0.640155 
0.145554 -0.021461 0.640568 0.144331 -0.021443 0.640771 0.14355 -0.0214132 0.640832 
0.143299 -0.0213605 0.640796 
LINES 2 100
OFFSETS vtktypeint64
0 100 
CONNECTIVITY vtktypeint64
0 1 2 3 4 5 6 7 8 
9 10 11 12 13 14 15 16 17 
18 19 20 21 22 23 24 25 26 
27 28 29 30 31 32 33 34 35 
36 37 38 39 40 41 42 43 44 
45 46 47 48 49 50 51 52 53 
54 55 56 57 58 59 60 61 62 
63 64 65 66 67 68 69 70 71 
72 73 74 75 76 77 78 79 80 
81 82 83 84 85 86 87 88 89 
90 91 92 93 94 95 96 97 98 
99 
POINT_DATA 100
FIELD FieldData 3
_theta 1 100 double
0 0.031733259127 0.063466518254 0.095199777382 0.12693303651 0.15866629564 0.19039955476 0.22213281389 0.25386607302 
0.28559933214 0.31733259127 0.3490658504 0.38079910953 0.41253236865 0.44426562778 0.47599888691 0.50773214603 0.53946540516 
0.57119866429 0.60293192342 0.63466518254 0.66639844167 0.6981317008 0.72986495992 0.76159821905 0.79333147818 0.82506473731 
0.85679799643 0.88853125556 0.92026451469 0.95199777382 0.98373103294 1.0154642921 1.0471975512 1.0789308103 1.1106640695 
1.1423973286 1.1741305877 1.2058638468 1.237597106 1.2693303651 1.3010636242 1.3327968833 1.3645301425 1.3962634016 
1.4279966607 1.4597299198 1.491463179 1.5231964381 1.5549296972 1.5866629564 1.6183962155 1.6501294746 1.6818627337 
1.7135959929 1.745329252 1.7770625111 1.8087957702 1.8405290294 1.8722622885 1.9039955476 1.9357288068 1.9674620659 
1.999195325 2.0309285841 2.0626618433 2.0943951024 2.1261283615 2.1578616206 2.1895948798 2.2213281389 2.253061398 
2.2847946572 2.3165279163 2.3482611754 2.3799944345 2.4117276937 2.4434609528 2.4751942119 2.506927471 2.5386607302 
2.5703939893 2.6021272484 2.6338605076 2.6655937667 2.6973270258 2.7290602849 2.7607935441 2.7925268032 2.8242600623 
2.8559933214 2.8877265806 2.9194598397 2.9511930988 2.982926358 3.0146596171 3.0463928762 3.0781261353 3.1098593945 
3.1415926536 
_radius 1 100 double
8.9402067313e-16 0.012866902811 0.025727757583 0.038568524268 0.051353636916 0.064019549216 0.076472847959 0.088593234096 0.10024087229 
0.11126698871 0.12152626196 0.13088948242 0.13925505843 0.14655814675 0.15277645255 0.1579320986 0.16208942226 0.16534908832 
0.1678393939 0.16970592012 0.17110064752 0.17217137704 0.17305203199 0.17385435776 0.17466163076 0.17552498899 0.17646273257 
0.17746249229 0.17848576688 0.17947415653 0.18035667411 0.18105767971 0.18150512892 0.18163886068 0.18141854357 0.18083067595 
0.1798937872 0.17866085207 0.17721804179 0.1756793795 0.17417766657 0.17285312372 0.17184218239 0.17126899705 0.17124085357 
0.17184623986 0.173152754 0.1752026065 0.17800564372 0.18153193223 0.18570688017 0.1904114297 0.19548837939 0.20075404778 
0.20601306649 0.21107364095 0.21576110277 0.21992850438 0.2234638574 0.22629414038 0.22838640382 0.22974629241 0.23041421403 
0.23045932009 0.22997150878 0.22905186632 0.22780230036 0.22631548208 0.22466641379 0.22290679413 0.22106280931 0.21913619991 
0.21710776388 0.21494214792 0.21259291088 0.210007229 0.20712998546 0.20390718497 0.20028866564 0.19623005856 0.19169396741 
0.18665041862 0.18107670641 0.17495676284 0.16828011515 0.16104041218 0.15323350277 0.14485520228 0.13589918472 0.12635575366 
0.11621234264 0.10545629094 0.094079786 0.082086157406 0.069496263689 0.056353654378 0.042727445647 0.028712280928 0.014425237454 
3.4455272884e-16 
_area 1 100 double
0 0.00036899781068 0.0014962652415 0.0034352145013 0.0062518016501 0.0099961769618 0.014674445535 0.020227011763 0.026517226629 
0.033332443011 0.040398594066 0.047407716607 0.054054971655 0.060078320499 0.065291588643 0.069601899583 0.073006491477 0.075571250146 
0.077400862604 0.078613479832 0.079328470376 0.079667148526 0.079759002132 0.079741882213 0.079742990463 0.079843786663 0.080066422239 
0.080390469038 0.080769931545 0.081141545252 0.081432654625 0.081568880278 0.081508279711 0.08124365876 0.080734500451 0.079989206102 
0.079085091423 0.078211796836 0.0776472452 0.077498304097 0.07772991034 0.078316420597 0.07926070072 0.080585926108 0.082334112162 
0.084578511796 0.087328856102 0.090513959678 0.094110617886 0.098125256563 0.102567386 0.10743475587 0.11270038651 0.11829723191 
0.12410206531 0.12992753599 0.13553234598 0.14065163267 0.14503867507 0.14850322941 0.15093453288 0.15230500243 0.1526585927 
0.15209195054 0.15073544526 0.14873654101 0.14624508848 0.14340270409 0.14033851827 0.1371654516 0.13397112518 0.13080767012 
0.12768784549 0.12458973081 0.1214672667 0.11826236417 0.11491491096 0.11136803216 0.10756752714 0.10345730816 0.098975907369 
0.094059904174 0.088656640665 0.082742641688 0.076340084197 0.069524132207 0.062417843733 0.055175915924 0.047962063187 0.040926860812 
0.034193003927 0.027852426065 0.021974892135 0.016622801818 0.011864845254 0.0077827433777 0.0044690364825 0.0020174397572 0.00050928130043 
5.8126785665e-17 
