# vtk DataFile Version 5.1
vtk output
ASCII
DATASET POLYDATA
POINTS 100 float
0.189877 0.0810228 -0.672309 0.189967 0.081025 -0.672404 0.1902 0.0812108 -0.672622 
0.190534 0.0815254 -0.672881 0.190904 0.0818821 -0.673052 0.191221 0.0821693 -0.67297 
0.191379 0.0822591 -0.672452 0.191258 0.0820166 -0.671312 0.190732 0.0813104 -0.669379 
0.189672 0.0800214 -0.666506 0.187958 0.0780509 -0.662588 0.185485 0.0753266 -0.657565 
0.182166 0.0718069 -0.651425 0.177945 0.0674821 -0.6442 0.172795 0.0623743 -0.635961 
0.166726 0.0565352 -0.626803 0.159782 0.0500421 -0.616837 0.152042 0.0429936 -0.60617 
0.14361 0.0355044 -0.594896 0.134615 0.0277002 -0.583081 0.125198 0.0197125 -0.570761 
0.115505 0.0116745 -0.557931 0.105673 0.00371703 -0.544552 0.0958244 -0.004035 -0.530553 
0.0860582 -0.0114657 -0.515842 0.0764428 -0.0184707 -0.500316 0.0670143 -0.0249598 -0.483871 
0.0577767 -0.0308592 -0.46642 0.0487056 -0.0361129 -0.4479 0.0397552 -0.0406848 -0.428278 
0.0308666 -0.0445585 -0.407559 0.021979 -0.0477383 -0.385784 0.0130408 -0.050247 -0.363026 
0.00401981 -0.0521248 -0.339384 -0.00508741 -0.0534249 -0.314972 -0.0142495 -0.0542104 -0.289913 
-0.0233972 -0.0545486 -0.264324 -0.0324238 -0.0545061 -0.238308 -0.0411891 -0.054144 -0.211953 
-0.0495276 -0.0535137 -0.185324 -0.0572581 -0.0526535 -0.158469 -0.064196 -0.0515875 -0.131416 
-0.0701658 -0.0503256 -0.10419 -0.0750134 -0.0488657 -0.0768121 -0.078617 -0.0471969 -0.049315 
-0.0808948 -0.0453046 -0.0217479 -0.0818111 -0.0431757 0.00581715 -0.081377 -0.0408039 0.0332828 
-0.0796492 -0.0381946 0.0605273 -0.0767249 -0.0353678 0.0874099 -0.0727337 -0.0323605 0.113779 
-0.0678287 -0.029226 0.139484 -0.0621754 -0.026032 0.164387 -0.0559413 -0.0228563 0.188372 
-0.0492869 -0.019782 0.211361 -0.042357 -0.016891 0.233316 -0.0352753 -0.0142586 0.254247 
-0.0281412 -0.0119475 0.274204 -0.0210289 -0.0100039 0.293278 -0.0139888 -0.00845473 0.311588 
-0.00705114 -0.00730711 0.329269 -0.000230172 -0.00654918 0.346458 0.00647002 -0.00615281 0.36328 
0.0130504 -0.00607741 0.379836 0.019512 -0.00627423 0.396194 0.0258523 -0.00669088 0.412385 
0.0320622 -0.0072752 0.428403 0.0381251 -0.00797824 0.44421 0.0440167 -0.00875617 0.459746 
0.0497066 -0.00957083 0.474936 0.0551599 -0.0103894 0.489709 0.0603403 -0.0111829 0.504007 
0.0652123 -0.0119255 0.517792 0.0697439 -0.0125921 0.531061 0.0739084 -0.0131585 0.543837 
0.0776859 -0.0136013 0.556175 0.081064 -0.0138989 0.56815 0.0840372 -0.0140338 0.579845 
0.0866069 -0.0139953 0.591338 0.0887799 -0.0137825 0.60269 0.0905672 -0.0134071 0.613929 
0.0919833 -0.0128952 0.625043 0.0930448 -0.0122873 0.635974 0.0937701 -0.0116377 0.64662 
0.0941792 -0.0110107 0.656841 0.0942939 -0.0104759 0.66647 0.0941384 -0.010102 0.675332 
0.0937401 -0.00994976 0.683262 0.0931304 -0.010065 0.690119 0.092345 -0.0104725 0.69581 
0.091424 -0.0111718 0.700298 0.0904122 -0.0121351 0.703609 0.0893574 -0.0133078 0.705834 
0.0883099 -0.014612 0.707123 0.0873197 -0.0159529 0.707665 0.086435 -0.017227 0.707679 
0.0856996 -0.0183312 0.707386 0.0851502 -0.0191729 0.706988 0.084815 -0.0196785 0.706646 
0.0847111 -0.0198013 0.706466 
LINES 2 100
OFFSETS vtktypeint64
0 100 
CONNECTIVITY vtktypeint64
0 1 2 3 4 5 6 7 8 
9 10 11 12 13 14 15 16 17 
18 19 20 21 22 23 24 25 26 
27 28 29 30 31 32 33 34 35 
36 37 38 39 40 41 42 43 44 
45 46 47 48 49 50 51 52 53 
54 55 56 57 58 59 60 61 62 
63 64 65 66 67 68 69 70 71 
72 73 74 75 76 77 78 79 80 
81 82 83 84 85 86 87 88 89 
90 91 92 93 94 95 96 97 98 
99 
POINT_DATA 100
FIELD FieldData 3
_theta 1 100 double
0 0.031733259127 0.063466518254 0.095199777382 0.12693303651 0.15866629564 0.19039955476 0.22213281389 0.25386607302 
0.28559933214 0.31733259127 0.3490658504 0.38079910953 0.41253236865 0.44426562778 0.47599888691 0.50773214603 0.53946540516 
0.57119866429 0.60293192342 0.63466518254 0.66639844167 0.6981317008 0.72986495992 0.76159821905 0.79333147818 0.82506473731 
0.85679799643 0.88853125556 0.92026451469 0.95199777382 0.98373103294 1.0154642921 1.0471975512 1.0789308103 1.1106640695 
1.1423973286 1.1741305877 1.2058638468 1.237597106 1.2693303651 1.3010636242 1.3327968833 1.3645301425 1.3962634016 
1.4279966607 1.4597299198 1.491463179 1.5231964381 1.5549296972 1.5866629564 1.6183962155 1.6501294746 1.6818627337 
1.7135959929 1.745329252 1.7770625111 1.8087957702 1.8405290294 1.8722622885 1.9039955476 1.9357288068 1.9674620659 
1.999195325 2.0309285841 2.0626618433 2.0943951024 2.1261283615 2.1578616206 2.1895948798 2.2213281389 2.253061398 
2.2847946572 2.3165279163 2.3482611754 2.3799944345 2.4117276937 2.4434609528 2.4751942119 2.506927471 2.5386607302 
2.5703939893 2.6021272484 2.6338605076 2.6655937667 2.6973270258 2.7290602849 2.7607935441 2.7925268032 2.8242600623 
2.8559933214 2.8877265806 2.9194598397 2.9511930988 2.982926358 3.0146596171 3.0463928762 3.0781261353 3.1098593945 
3.1415926536 
_radius 1 100 double
1.3253832285e-15 0.016252561302 0.032399593798 0.048338293746 0.06396449352 0.079173032174 0.093859078929 0.10792019382 0.12125876179 
0.13378445288 0.14541649668 0.15608572634 0.16573646805 0.17432838541 0.18183833943 0.18826222408 0.1936166171 0.19793997483 
0.20129302429 0.20375799749 0.20543643746 0.20644548355 0.206912772 0.20697029253 0.20674765823 0.20636526733 0.2059278279 
0.20551874946 0.20519595921 0.20498966253 0.20490238625 0.20491144808 0.2049739493 0.20503442423 0.20503508635 0.20492795128 
0.20468714649 0.20431896828 0.20386726787 0.20341274646 0.20306643585 0.20295931352 0.20323074695 0.2040177629 0.20544541294 
0.20761700127 0.2106028882 0.21442827378 0.21906278059 0.22441595927 0.23034172592 0.23665168279 0.24313424729 0.24957522399 
0.25577606696 0.26156763445 0.26681874579 0.27143984684 0.27538254784 0.27863587349 0.2812199428 0.2831776429 0.28456482866 
0.28543978247 0.28585309438 0.28583952235 0.28541333903 0.28456792925 0.28327926816 0.28151202289 0.27922675542 0.2763869358 
0.27296486358 0.26894592438 0.26433085148 0.25913587451 0.25339086022 0.24713577586 0.24041598926 0.23327702001 0.22575935836 
0.21789388842 0.20969833325 0.20117502543 0.1923102215 0.18307510793 0.17342854626 0.16332143693 0.15270234859 0.14152382268 
0.12974860581 0.11735505027 0.1043410622 0.090726227023 0.07655203522 0.061880407651 0.046790927525 0.031377291885 0.015743479293 
7.1271759495e-16 
_area 1 100 double
0 0.0006463298958 0.0025888104785 0.0058318562908 0.010363898748 0.016134310783 0.023032316558 0.030875687097 0.039412605881 
0.048335529316 0.057303671381 0.065970379949 0.074011778689 0.081153030434 0.087188733845 0.091994870226 0.095531487756 0.097837321481 
0.099018906955 0.099236989901 0.098692256654 0.097611000473 0.096229939899 0.094778888898 0.093461053664 0.092433330645 0.091791673383 
0.091567032732 0.091734975347 0.092236176883 0.092998869196 0.09395712563 0.095058493838 0.096255139175 0.097497306309 0.098751287625 
0.10001473225 0.10130711955 0.10265680453 0.10410255742 0.1056996245 0.10751914924 0.1096448102 0.11218475256 0.11531629261 
0.1192407048 0.12398606787 0.1295679038 0.13604994237 0.14345224499 0.15169737381 0.16059804223 0.16988212594 0.17923853858 
0.1883627414 0.19698794024 0.20489934416 0.21193748342 0.21799993947 0.22304838676 0.22712088223 0.23033610591 0.23284778277 
0.23472140414 0.23586519298 0.23611837011 0.23535378669 0.23351374662 0.23060759148 0.22669503528 0.22186207961 0.21619459267 
0.20975837892 0.2025949977 0.19473553198 0.18622407625 0.17713739535 0.1675907434 0.1577281876 0.14770275224 0.13765441923 
0.1276929314 0.11788901148 0.10827407809 0.09884682246 0.089585135008 0.080461608468 0.071459288689 0.062583775619 0.053869747804 
0.045382638795 0.037217227406 0.029494227021 0.022354905059 0.015953401284 0.010446858328 0.0059842062538 0.0026949238628 0.00067912700292 
4.0996443206e-17 
