# vtk DataFile Version 5.1
vtk output
ASCII
DATASET POLYDATA
POINTS 100 float
0.134595 -0.0202619 0.661826 0.134696 -0.0203003 0.661485 0.134921 -0.0205411 0.660592 
0.135242 -0.0209506 0.659193 0.135614 -0.0214762 0.657353 0.135984 -0.0220537 0.655149 
0.136294 -0.0226151 0.652649 0.136489 -0.023097 0.649905 0.136521 -0.023448 0.646939 
0.136353 -0.0236345 0.643734 0.135961 -0.0236438 0.640233 0.13533 -0.0234846 0.636344 
0.134457 -0.0231836 0.631945 0.133338 -0.0227812 0.626902 0.131969 -0.0223236 0.621082 
0.130335 -0.0218559 0.614374 0.128411 -0.0214142 0.6067 0.126153 -0.0210198 0.598032 
0.123503 -0.020676 0.588392 0.120388 -0.0203666 0.577858 0.116731 -0.0200583 0.566553 
0.112453 -0.0197055 0.554636 0.107489 -0.0192571 0.542283 0.101791 -0.0186643 0.529672 
0.0953429 -0.0178885 0.516961 0.0881607 -0.016908 0.504272 0.0802995 -0.0157234 0.491684 
0.0718505 -0.0143587 0.479223 0.0629357 -0.0128615 0.466864 0.0536989 -0.0112981 0.454539 
0.0442935 -0.00974766 0.442146 0.0348687 -0.00829413 0.429565 0.0255558 -0.00701736 0.416676 
0.0164561 -0.00598498 0.403368 0.00763156 -0.00524563 0.389557 -0.00089992 -0.00482454 0.375188 
-0.00916411 -0.00472197 0.360243 -0.017225 -0.0049147 0.344729 -0.0251743 -0.00536022 0.328678 
-0.0331175 -0.00600321 0.312131 -0.041157 -0.00678329 0.295127 -0.0493751 -0.00764307 0.277693 
-0.0578184 -0.00853557 0.259832 -0.066485 -0.00942995 0.24152 -0.0753165 -0.010315 0.222707 
-0.084196 -0.0112 0.20332 -0.0929517 -0.0121129 0.183275 -0.101367 -0.0130958 0.162488 
-0.109193 -0.0141997 0.140891 -0.11617 -0.0154768 0.118443 -0.122046 -0.0169741 0.0951457 
-0.126593 -0.0187268 0.0710452 -0.129629 -0.0207537 0.0462363 -0.131031 -0.0230541 0.0208579 
-0.130739 -0.025607 -0.00491678 -0.128764 -0.0283723 -0.0308936 -0.125181 -0.0312932 -0.0568732 
-0.120121 -0.0343006 -0.0826671 -0.11376 -0.0373168 -0.108113 -0.1063 -0.0402603 -0.133084 
-0.0979518 -0.0430495 -0.157498 -0.0889211 -0.0456053 -0.181317 -0.0793922 -0.0478532 -0.204539 
-0.0695183 -0.0497243 -0.227195 -0.0594146 -0.0511551 -0.249334 -0.0491574 -0.0520882 -0.271007 
-0.038787 -0.0524714 -0.292255 -0.0283152 -0.052259 -0.313101 -0.0177345 -0.0514123 -0.333538 
-0.00703039 -0.049902 -0.353529 0.0038079 -0.0477104 -0.37301 0.0147767 -0.0448345 -0.391892 
0.0258502 -0.0412886 -0.410079 0.0369764 -0.0371067 -0.427474 0.0480754 -0.0323434 -0.44399 
0.0590432 -0.0270734 -0.459567 0.0697569 -0.0213894 -0.474172 0.0800839 -0.0153982 -0.487807 
0.089891 -0.00921502 -0.500505 0.0990555 -0.00295737 -0.51233 0.107474 0.00326213 -0.523361 
0.11507 0.00934216 -0.533688 0.1218 0.0151982 -0.543397 0.127655 0.0207664 -0.552564 
0.132657 0.026005 -0.561242 0.13686 0.0308941 -0.569461 0.140342 0.0354324 -0.577226 
0.143194 0.0396327 -0.584517 0.145517 0.0435161 -0.591301 0.147409 0.0471056 -0.597535 
0.148963 0.0504201 -0.603173 0.150254 0.0534699 -0.60818 0.151343 0.0562535 -0.612532 
0.152272 0.0587564 -0.616223 0.153064 0.0609529 -0.619263 0.153729 0.0628087 -0.621675 
0.154264 0.0642855 -0.623495 0.154661 0.0653464 -0.624756 0.154911 0.065961 -0.625492 
0.155006 0.0661095 -0.625724 
LINES 2 100
OFFSETS vtktypeint64
0 100 
CONNECTIVITY vtktypeint64
0 1 2 3 4 5 6 7 8 
9 10 11 12 13 14 15 16 17 
18 19 20 21 22 23 24 25 26 
27 28 29 30 31 32 33 34 35 
36 37 38 39 40 41 42 43 44 
45 46 47 48 49 50 51 52 53 
54 55 56 57 58 59 60 61 62 
63 64 65 66 67 68 69 70 71 
72 73 74 75 76 77 78 79 80 
81 82 83 84 85 86 87 88 89 
90 91 92 93 94 95 96 97 98 
99 
POINT_DATA 100
FIELD FieldData 3
_theta 1 100 double
0 0.031733259127 0.063466518254 0.095199777382 0.12693303651 0.15866629564 0.19039955476 0.22213281389 0.25386607302 
0.28559933214 0.31733259127 0.3490658504 0.38079910953 0.41253236865 0.44426562778 0.47599888691 0.50773214603 0.53946540516 
0.57119866429 0.60293192342 0.63466518254 0.66639844167 0.6981317008 0.72986495992 0.76159821905 0.79333147818 0.82506473731 
0.85679799643 0.88853125556 0.92026451469 0.95199777382 0.98373103294 1.0154642921 1.0471975512 1.0789308103 1.1106640695 
1.1423973286 1.1741305877 1.2058638468 1.237597106 1.2693303651 1.3010636242 1.3327968833 1.3645301425 1.3962634016 
1.4279966607 1.4597299198 1.491463179 1.5231964381 1.5549296972 1.5866629564 1.6183962155 1.6501294746 1.6818627337 
1.7135959929 1.745329252 1.7770625111 1.8087957702 1.8405290294 1.8722622885 1.9039955476 1.9357288068 1.9674620659 
1.999195325 2.0309285841 2.0626618433 2.0943951024 2.1261283615 2.1578616206 2.1895948798 2.2213281389 2.253061398 
2.2847946572 2.3165279163 2.3482611754 2.3799944345 2.4117276937 2.4434609528 2.4751942119 2.506927471 2.5386607302 
2.5703939893 2.6021272484 2.6338605076 2.6655937667 2.6973270258 2.7290602849 2.7607935441 2.7925268032 2.8242600623 
2.8559933214 2.8877265806 2.9194598397 2.9511930988 2.982926358 3.0146596171 3.0463928762 3.0781261353 3.1098593945 
3.1415926536 
_radius 1 100 double
1.1384069117e-15 0.014499712084 0.029019197282 0.043568040026 0.05813049813 0.072658185644 0.087068375102 0.10124815818 0.11506371288 
0.12837310659 0.14104055433 0.15294992991 0.1640156077 0.17418931494 0.18346242809 0.19186383067 0.19945391137 0.20631553077 
0.21254296953 0.21823010726 0.22345933606 0.22829282494 0.23276756753 0.2368951225 0.24066617542 0.24405915442 0.24705127787 
0.24962977809 0.25180081513 0.25359389513 0.25506042841 0.25626624668 0.25727919711 0.2581540573 0.25891769699 0.25955745896 
0.26001514318 0.26018796707 0.25993675556 0.25910062301 0.25751662205 0.25504223461 0.25157814845 0.24708852974 0.24161601942 
0.23528899659 0.22831929156 0.2209894924 0.21363023761 0.20658937271 0.2001964961 0.19472802395 0.19037888437 0.1872462747 
0.18532778484 0.1845314656 0.1846920473 0.18558822055 0.18696009116 0.18852970554 0.19002731767 0.1912220426 0.19195126393 
0.19214174547 0.1918171339 0.19108997124 0.19014004157 0.18918375998 0.18844038378 0.1880999741 0.18829649555 0.18908837282 
0.19044814795 0.1922620959 0.19433966703 0.1964315942 0.19825453391 0.19951927253 0.1999589567 0.19935369033 0.19754830945 
0.19446118546 0.19008335166 0.18446882402 0.17771837811 0.1699599479 0.16132902418 0.15195192937 0.14193384222 0.1313523162 
0.12025613786 0.10866886517 0.096596174704 0.084035993625 0.070990116037 0.057475613643 0.043534058382 0.029236652383 0.014683961503 
7.9224271139e-16 
_area 1 100 double
0 0.00048674489918 0.0019482082368 0.0043864486903 0.0077998252019 0.01217632228 0.017485621227 0.023671397544 0.030646299471 
0.038292024301 0.046464989912 0.055005477917 0.063746945585 0.072523459417 0.081175905686 0.089559687114 0.097556258924 0.10508773882 
0.11212948998 0.11871292517 0.12491253583 0.13081810634 0.13650227763 0.14199795465 0.14729381051 0.15234456913 0.15708845846 
0.16146888062 0.165460375 0.1690935195 0.17244458673 0.17555134805 0.17839337565 0.18094851469 0.18319839468 0.1851180618 
0.18666582189 0.1877312594 0.18811078835 0.18784298778 0.18653075194 0.18388385615 0.17972068861 0.17401792439 0.16690759073 
0.1586707261 0.14971103209 0.14050666419 0.13154881509 0.12327976333 0.11604121492 0.11003896202 0.10532712063 0.10181695046 
0.099315255762 0.097584256352 0.09639648972 0.095559665577 0.094905664831 0.094260119261 0.09342939397 0.092232723386 0.090562539968 
0.08843182603 0.085982556785 0.083451919081 0.081110469952 0.079198442378 0.077885798399 0.077264530877 0.077363324499 0.078167537301 
0.079629284506 0.081658455809 0.084099321874 0.086717443072 0.089215005433 0.091265099124 0.092552634262 0.09281598342 0.09188180404 
0.089684802292 0.086267698365 0.081762226401 0.076357580918 0.070266242093 0.063696708784 0.056838264414 0.049857075703 0.042899100864 
0.036094948326 0.029563946669 0.023417215217 0.017760844635 0.012699784136 0.0083412172459 0.0047946404048 0.002166173114 0.00054711984172 
8.1959111808e-17 
