# vtk DataFile Version 5.1
vtk output
ASCII
DATASET POLYDATA
POINTS 100 float
0.109645 0.0822385 -0.690703 0.109638 0.0819171 -0.690445 0.109633 0.0807515 -0.689638 
0.109643 0.0788201 -0.688269 0.109686 0.0762434 -0.686319 0.109779 0.073167 -0.683763 
0.109935 0.0697425 -0.680575 0.110153 0.0661068 -0.67673 0.110413 0.0623643 -0.672208 
0.110678 0.0585737 -0.666993 0.110884 0.054741 -0.661076 0.110948 0.0508207 -0.654454 
0.110768 0.0467246 -0.647129 0.110233 0.0423362 -0.639108 0.109228 0.037531 -0.630396 
0.107645 0.0321974 -0.620997 0.105394 0.0262578 -0.610911 0.102406 0.0196851 -0.600132 
0.0986433 0.0125136 -0.588646 0.0941026 0.00484286 -0.576434 0.0888128 -0.00316699 -0.563474 
0.0828335 -0.0113072 -0.549741 0.0762486 -0.0193384 -0.535212 0.0691579 -0.0270117 -0.519871 
0.0616677 -0.0340919 -0.503708 0.0538807 -0.0403784 -0.486728 0.0458875 -0.0457215 -0.468947 
0.0377595 -0.0500334 -0.450395 0.0295447 -0.0532917 -0.431112 0.021267 -0.0555352 -0.411147 
0.0129285 -0.056854 -0.390553 0.00451548 -0.0573738 -0.369384 -0.00399364 -0.057239 -0.347687 
-0.0126185 -0.0565939 -0.325502 -0.0213667 -0.0555674 -0.302856 -0.0302241 -0.0542611 -0.279765 
-0.0391478 -0.0527431 -0.256231 -0.048061 -0.0510476 -0.232249 -0.0568524 -0.0491799 -0.207811 
-0.0653782 -0.0471257 -0.182907 -0.073469 -0.044863 -0.15754 -0.0809391 -0.0423748 -0.131726 
-0.0875986 -0.0396599 -0.105503 -0.0932662 -0.036741 -0.0789328 -0.0977825 -0.0336675 -0.0521058 
-0.101022 -0.0305148 -0.0251374 -0.102903 -0.0273774 0.00183442 -0.103393 -0.0243591 0.0286552 
-0.102513 -0.0215613 0.0551625 -0.100335 -0.0190702 0.0811948 -0.0969743 -0.0169461 0.106602 
-0.0925861 -0.0152159 0.131254 -0.0873502 -0.0138697 0.15505 -0.0814594 -0.0128628 0.177921 
-0.0751068 -0.0121218 0.199839 -0.0684731 -0.0115555 0.220809 -0.0617162 -0.011067 0.24087 
-0.0549636 -0.0105676 0.260092 -0.0483075 -0.00998848 0.278563 -0.0418034 -0.00929031 0.296382 
-0.0354722 -0.00846784 0.313651 -0.0293054 -0.00755011 0.330467 -0.0232719 -0.00659561 0.346912 
-0.0173272 -0.00568328 0.363052 -0.0114224 -0.00490071 0.37893 -0.0055131 -0.0043311 0.394573 
0.000432272 -0.00404088 0.409987 0.00642694 -0.00406974 0.425168 0.012462 -0.00442435 0.440103 
0.0185051 -0.00507666 0.454777 0.0245025 -0.00596696 0.46918 0.0303824 -0.00701117 0.483307 
0.036061 -0.0081113 0.497166 0.0414491 -0.00916759 0.510771 0.0464607 -0.0100907 0.524147 
0.0510196 -0.0108119 0.53732 0.0550667 -0.0112909 0.550314 0.0585654 -0.0115187 0.563145 
0.0615049 -0.0115167 0.575813 0.0639018 -0.011332 0.588301 0.0657991 -0.011029 0.600567 
0.067263 -0.0106792 0.612545 0.0683786 -0.0103505 0.624148 0.0692426 -0.0100985 0.635271 
0.0699566 -0.00995885 0.645799 0.0706192 -0.00994387 0.655612 0.0713187 -0.0100428 0.6646 
0.0721264 -0.0102251 0.672671 0.0730919 -0.0104474 0.679757 0.0742392 -0.0106613 0.685824 
0.0755661 -0.0108222 0.690874 0.0770448 -0.0108967 0.694946 0.0786247 -0.0108684 0.698117 
0.0802372 -0.0107404 0.70049 0.0818021 -0.0105344 0.70219 0.0832341 -0.0102871 0.703351 
0.0844504 -0.0100438 0.704105 0.0853778 -0.00985097 0.704568 0.0859588 -0.00974837 0.704833 
0.0861565 -0.0097626 0.704958 
LINES 2 100
OFFSETS vtktypeint64
0 100 
CONNECTIVITY vtktypeint64
0 1 2 3 4 5 6 7 8 
9 10 11 12 13 14 15 16 17 
18 19 20 21 22 23 24 25 26 
27 28 29 30 31 32 33 34 35 
36 37 38 39 40 41 42 43 44 
45 46 47 48 49 50 51 52 53 
54 55 56 57 58 59 60 61 62 
63 64 65 66 67 68 69 70 71 
72 73 74 75 76 77 78 79 80 
81 82 83 84 85 86 87 88 89 
90 91 92 93 94 95 96 97 98 
99 
POINT_DATA 100
FIELD FieldData 3
_theta 1 100 double
0 0.031733259127 0.063466518254 0.095199777382 0.12693303651 0.15866629564 0.19039955476 0.22213281389 0.25386607302 
0.28559933214 0.31733259127 0.3490658504 0.38079910953 0.41253236865 0.44426562778 0.47599888691 0.50773214603 0.53946540516 
0.57119866429 0.60293192342 0.63466518254 0.66639844167 0.6981317008 0.72986495992 0.76159821905 0.79333147818 0.82506473731 
0.85679799643 0.88853125556 0.92026451469 0.95199777382 0.98373103294 1.0154642921 1.0471975512 1.0789308103 1.1106640695 
1.1423973286 1.1741305877 1.2058638468 1.237597106 1.2693303651 1.3010636242 1.3327968833 1.3645301425 1.3962634016 
1.4279966607 1.4597299198 1.491463179 1.5231964381 1.5549296972 1.5866629564 1.6183962155 1.6501294746 1.6818627337 
1.7135959929 1.745329252 1.7770625111 1.8087957702 1.8405290294 1.8722622885 1.9039955476 1.9357288068 1.9674620659 
1.999195325 2.0309285841 2.0626618433 2.0943951024 2.1261283615 2.1578616206 2.1895948798 2.2213281389 2.253061398 
2.2847946572 2.3165279163 2.3482611754 2.3799944345 2.4117276937 2.4434609528 2.4751942119 2.506927471 2.5386607302 
2.5703939893 2.6021272484 2.6338605076 2.6655937667 2.6973270258 2.7290602849 2.7607935441 2.7925268032 2.8242600623 
2.8559933214 2.8877265806 2.9194598397 2.9511930988 2.982926358 3.0146596171 3.0463928762 3.0781261353 3.1098593945 
3.1415926536 
_radius 1 100 double
2.5210253502e-16 0.015481479084 0.030874989471 0.046087799436 0.061033678712 0.07563429815 0.089818562326 0.10352000908 0.1166728899 
0.1292079193 0.14104887692 0.1521112137 0.16230354328 0.1715324254 0.17971024705 0.18676537931 0.19265324972 0.19736662425 
0.20094332066 0.2034698124 0.20507970806 0.2059468151 0.20627326934 0.20627388323 0.20615835356 0.20611326714 0.20628595394 
0.20677212212 0.20760882221 0.2087736501 0.2101903113 0.2117398717 0.21327637261 0.21464511146 0.21570177809 0.21633060987 
0.21645958589 0.21607054509 0.21520257099 0.21394850529 0.21244653804 0.21087004108 0.20941801033 0.20830610761 0.20775617115 
0.20798172158 0.20916860197 0.21145263242 0.21489874385 0.21948702974 0.22510975181 0.23158028808 0.23865198939 0.24604312407 
0.25346370556 0.26064054715 0.26733784552 0.27337161848 0.27861725922 0.28301027854 0.28654098305 0.28924437351 0.29118691545 
0.29245199956 0.29312584594 0.29328533275 0.29298881694 0.29227057225 0.29113908295 0.28957910331 0.28755704064 0.28502878463 
0.28194866708 0.27827798921 0.27399165552 0.26908189461 0.2635586679 0.25744697672 0.25078175536 0.24360135317 0.23594077222 
0.2278258357 0.21926928524 0.21026942827 0.20081143348 0.1908708426 0.18041850004 0.1694260071 0.15787095566 0.1457414288 
0.13303940174 0.11978270285 0.10600523778 0.091755391729 0.077092902144 0.062084870988 0.046801779094 0.031314298215 0.015691415465 
4.3646934247e-16 
_area 1 100 double
0 0.00068220939102 0.0027081745113 0.0060195626918 0.010529444156 0.01613210419 0.022708541918 0.030124745803 0.03822341369 
0.046813191702 0.05566124335 0.064494212761 0.073009849179 0.080898153337 0.087868315528 0.093676627189 0.098150900923 0.10120823649 
0.10286459048 0.10323594015 0.10253132777 0.10103723889 0.099090718367 0.097037817764 0.095180199011 0.093728325782 0.092786558205 
0.092373588713 0.092457885224 0.092989089738 0.093916663833 0.095193669016 0.096770485971 0.098589514012 0.1005955785 0.10276540057 
0.10510246516 0.10753622521 0.10985372419 0.11180989963 0.11326155344 0.11420600873 0.11476833058 0.1151796379 0.11575899697 
0.11687899956 0.11887269055 0.12196472568 0.12630433485 0.13197523628 0.13896759608 0.14715710346 0.15630539161 0.16607950885 
0.17608394455 0.18589801885 0.19511194495 0.20335775568 0.21033459717 0.21582880176 0.21973221551 0.2221171336 0.22320392847 
0.2229436106 0.2214624595 0.21894013752 0.21559575646 0.21165902748 0.20732854321 0.20274677498 0.19799535877 0.19309108014 
0.18798870087 0.18259686819 0.17679899699 0.17048457225 0.16358412207 0.15609270738 0.14807300395 0.13963919976 0.13092994326 
0.12208022409 0.11320016922 0.10436473579 0.095613384203 0.086955795102 0.078380703383 0.069867997003 0.061405093782 0.0530058565 
0.044726801851 0.036674637005 0.029001833582 0.021891108504 0.015533256965 0.010104608315 0.0057500176415 0.0025749255056 0.00064643957492 
2.2010151083e-17 
