# vtk DataFile Version 5.1
vtk output
ASCII
DATASET POLYDATA
POINTS 100 float
0.0956522 -0.0191139 0.678619 0.0955575 -0.0190738 0.678303 0.095266 -0.0190582 0.677521 
0.0947719 -0.0190545 0.676292 0.0940686 -0.0190441 0.67464 0.0931527 -0.0190041 0.672586 
0.0920288 -0.01891 0.670146 0.0907132 -0.0187384 0.667316 0.0892358 -0.0184696 0.664077 
0.08764 -0.0180901 0.660384 0.0859787 -0.0175941 0.656171 0.0843082 -0.0169845 0.651359 
0.08268 -0.0162732 0.645859 0.0811313 -0.0154796 0.639587 0.0796756 -0.0146296 0.632472 
0.0782961 -0.0137531 0.624471 0.0769418 -0.0128812 0.615573 0.0755279 -0.0120433 0.605807 
0.0739407 -0.0112648 0.595241 0.0720478 -0.0105646 0.583977 0.0697109 -0.00995374 0.572143 
0.0668017 -0.00943443 0.559881 0.063217 -0.00900032 0.547331 0.0588929 -0.00863747 0.534616 
0.0538146 -0.00832607 0.521832 0.0480208 -0.00804286 0.509036 0.0416022 -0.00776381 0.496242 
0.0346932 -0.00746703 0.48342 0.027458 -0.00713543 0.4705 0.0200722 -0.00675904 0.457384 
0.012703 -0.00633669 0.443959 0.00548949 -0.00587696 0.430105 -0.00147444 -0.0053982 0.415715 
-0.008151 -0.00492783 0.400702 -0.014563 -0.00450074 0.385007 -0.0207905 -0.00415707 0.368603 
-0.0269594 -0.00393956 0.351492 -0.0332241 -0.00389057 0.333702 -0.0397449 -0.00404923 0.315273 
-0.0466639 -0.00444868 0.296252 -0.0540822 -0.0051139 0.276679 -0.0620399 -0.00606007 0.25658 
-0.0705033 -0.00729171 0.235962 -0.0793599 -0.00880266 0.214812 -0.0884217 -0.0105768 0.1931 
-0.0974377 -0.0125896 0.170785 -0.106113 -0.01481 0.147828 -0.114132 -0.0172029 0.1242 
-0.121188 -0.0197317 0.099896 -0.127004 -0.0223607 0.0749419 -0.131359 -0.025057 0.0494009 
-0.134103 -0.0277925 0.0233739 -0.135163 -0.0305442 -0.00300432 -0.134549 -0.0332943 -0.0295738 
-0.132342 -0.0360293 -0.0561612 -0.128681 -0.0387384 -0.082594 -0.123747 -0.0414111 -0.108714 
-0.117737 -0.0440348 -0.134392 -0.110851 -0.0465914 -0.159531 -0.103269 -0.0490556 -0.184077 
-0.095139 -0.051392 -0.208014 -0.0865722 -0.0535547 -0.23136 -0.0776395 -0.0554867 -0.254156 
-0.0683768 -0.0571212 -0.276454 -0.058794 -0.0583842 -0.298302 -0.0488858 -0.0591977 -0.319736 
-0.0386446 -0.0594844 -0.340767 -0.0280708 -0.0591731 -0.361377 -0.0171819 -0.0582038 -0.38152 
-0.0060165 -0.0565329 -0.401127 0.00536436 -0.0541377 -0.420112 0.0168807 -0.0510199 -0.438388 
0.0284396 -0.0472075 -0.455879 0.0399423 -0.0427546 -0.47253 0.0512928 -0.03774 -0.488316 
0.0624038 -0.0322642 -0.503249 0.0732017 -0.0264436 -0.517373 0.0836273 -0.0204057 -0.530763 
0.0936349 -0.0142812 -0.54351 0.103188 -0.00819814 -0.555709 0.112252 -0.00227485 -0.567444 
0.120791 0.00338526 -0.578773 0.12876 0.00869803 -0.58972 0.136105 0.0136011 -0.600264 
0.142758 0.018055 -0.610343 0.148648 0.0220418 -0.619858 0.153703 0.0255636 -0.628687 
0.15786 0.0286384 -0.636695 0.161078 0.0312959 -0.643762 0.163347 0.0335735 -0.64979 
0.1647 0.0355112 -0.654727 0.16521 0.037148 -0.658575 0.164999 0.0385192 -0.661391 
0.164226 0.0396539 -0.663289 0.163083 0.0405748 -0.664426 0.161774 0.0412975 -0.664987 
0.160501 0.0418321 -0.665166 0.159448 0.0421842 -0.665143 0.158758 0.0423566 -0.665064 
0.158523 0.0423503 -0.665024 
LINES 2 100
OFFSETS vtktypeint64
0 100 
CONNECTIVITY vtktypeint64
0 1 2 3 4 5 6 7 8 
9 10 11 12 13 14 15 16 17 
18 19 20 21 22 23 24 25 26 
27 28 29 30 31 32 33 34 35 
36 37 38 39 40 41 42 43 44 
45 46 47 48 49 50 51 52 53 
54 55 56 57 58 59 60 61 62 
63 64 65 66 67 68 69 70 71 
72 73 74 75 76 77 78 79 80 
81 82 83 84 85 86 87 88 89 
90 91 92 93 94 95 96 97 98 
99 
POINT_DATA 100
FIELD FieldData 3
_theta 1 100 double
0 0.031733259127 0.063466518254 0.095199777382 0.12693303651 0.15866629564 0.19039955476 0.22213281389 0.25386607302 
0.28559933214 0.31733259127 0.3490658504 0.38079910953 0.41253236865 0.44426562778 0.47599888691 0.50773214603 0.53946540516 
0.57119866429 0.60293192342 0.63466518254 0.66639844167 0.6981317008 0.72986495992 0.76159821905 0.79333147818 0.82506473731 
0.85679799643 0.88853125556 0.92026451469 0.95199777382 0.98373103294 1.0154642921 1.0471975512 1.0789308103 1.1106640695 
1.1423973286 1.1741305877 1.2058638468 1.237597106 1.2693303651 1.3010636242 1.3327968833 1.3645301425 1.3962634016 
1.4279966607 1.4597299198 1.491463179 1.5231964381 1.5549296972 1.5866629564 1.6183962155 1.6501294746 1.6818627337 
1.7135959929 1.745329252 1.7770625111 1.8087957702 1.8405290294 1.8722622885 1.9039955476 1.9357288068 1.9674620659 
1.999195325 2.0309285841 2.0626618433 2.0943951024 2.1261283615 2.1578616206 2.1895948798 2.2213281389 2.253061398 
2.2847946572 2.3165279163 2.3482611754 2.3799944345 2.4117276937 2.4434609528 2.4751942119 2.506927471 2.5386607302 
2.5703939893 2.6021272484 2.6338605076 2.6655937667 2.6973270258 2.7290602849 2.7607935441 2.7925268032 2.8242600623 
2.8559933214 2.8877265806 2.9194598397 2.9511930988 2.982926358 3.0146596171 3.0463928762 3.0781261353 3.1098593945 
3.1415926536 
_radius 1 100 double
3.469446952e-17 0.015130900069 0.03026695226 0.045409099675 0.060544155339 0.075639353876 0.090638933128 0.10546324343 0.12001073683 
0.134163001 0.14779273071 0.16077413461 0.17299477556 0.18436733869 0.19483947482 0.20439983838 0.21307883213 0.22094339736 
0.22808632991 0.2346118143 0.24061980985 0.2461922559 0.25138359343 0.25621691349 0.26068554372 0.2647586489 0.26838890623 
0.27152060436 0.27409727071 0.27606861179 0.27739673743 0.27806130557 0.27806271963 0.27742230089 0.27617871612 0.27438083284 
0.27207831763 0.26931227553 0.26610864533 0.26247667609 0.25841365994 0.25391549961 0.24899109293 0.24367733515 0.23805106536 
0.23223464115 0.22639296567 0.22072150178 0.2154267708 0.21070269112 0.20670745544 0.2035459617 0.20126157753 0.19983816002 
0.19920971322 0.19927267131 0.19989608808 0.20092797054 0.20219983567 0.20353380172 0.2047555471 0.20571287238 0.2062958871 
0.20645330302 0.20620031439 0.20561597621 0.20483062059 0.20400590734 0.2033111595 0.20289958187 0.20288715438 0.20333608341 
0.20424412917 0.2055408444 0.20709136915 0.20870763638 0.21016571581 0.21122691917 0.21165961425 0.2112586701 0.20986005289 
0.20734910338 0.20366218486 0.19878244773 0.19273123005 0.18555700572 0.1773238038 0.16810074417 0.15795390377 0.1469412647 
0.13511105963 0.12250341336 0.10915475681 0.095104079799 0.080399775191 0.06510571447 0.049305343172 0.03310296943 0.01662194655 
1.911749764e-15 
_area 1 100 double
0 0.00059500937441 0.002371478682 0.0053027311423 0.0093416494238 0.01441863917 0.020441420315 0.027297251458 0.034857107037 
0.042980831208 0.051522526249 0.060335856998 0.069279072268 0.07821978428 0.087040613848 0.095647498224 0.10398018663 0.11202009235 
0.11978938403 0.12733950757 0.13473315191 0.1420257776 0.14925106172 0.15641168618 0.1634737797 0.17036149895 0.1769517823 
0.18307585083 0.18853288804 0.19311364049 0.19662844213 0.1989353492 0.19996485965 0.19973778914 0.19837259824 0.19608383584 
0.1931934225 0.19011174467 0.18695197182 0.18337181764 0.17913438742 0.17411815875 0.16827355532 0.16164504553 0.1543921934 
0.14678503331 0.13917173133 0.13192637002 0.12538824318 0.11980384435 0.11528300672 0.11178555783 0.10914881976 0.10714498008 
0.10555061316 0.10420337337 0.10301677619 0.10195064861 0.10096455303 0.099987293001 0.098920223831 0.09767014444 0.09619054639 
0.094505152595 0.092703867768 0.090954403671 0.089428871626 0.088245164481 0.087540865394 0.087363025041 0.087762641357 0.088793526191 
0.090494601276 0.092778764396 0.095507187203 0.098472949644 0.10140994709 0.10401431102 0.10597284271 0.10700134635 0.10687949834 
0.10547012194 0.10272082919 0.098653960229 0.093353210359 0.086952831481 0.079630458204 0.07160069359 0.063105710741 0.054401289836 
0.045740153444 0.037356865251 0.029458392957 0.022221939976 0.01579867895 0.010320319715 0.0059049650633 0.0026586456261 0.00067009833515 
5.5619465776e-17 
