# vtk DataFile Version 5.1
vtk output
ASCII
DATASET POLYDATA
POINTS 100 float
0.161726 -0.0360721 0.702286 0.161917 -0.0360753 0.701994 0.162376 -0.0362081 0.701275 
0.163021 -0.0364383 0.700162 0.163722 -0.0367163 0.698702 0.164321 -0.0369818 0.696945 
0.164648 -0.0371709 0.694932 0.16454 -0.0372239 0.692683 0.163861 -0.0370918 0.690191 
0.162513 -0.036742 0.687412 0.160445 -0.0361611 0.684269 0.157656 -0.0353549 0.680654 
0.154192 -0.0343466 0.676439 0.150135 -0.0331717 0.671491 0.14559 -0.0318724 0.665683 
0.140669 -0.0304905 0.658914 0.135478 -0.0290615 0.651121 0.130099 -0.0276092 0.642283 
0.124589 -0.0261434 0.632432 0.118968 -0.0246586 0.621643 0.113225 -0.0231369 0.610028 
0.107324 -0.021552 0.597724 0.101211 -0.0198751 0.584877 0.0948327 -0.0180824 0.571625 
0.0881402 -0.0161609 0.558082 0.0811056 -0.0141144 0.544328 0.0737258 -0.0119669 0.530405 
0.0660255 -0.00976307 0.516311 0.0580543 -0.00756677 0.502012 0.0498795 -0.00545608 0.487444 
0.0415761 -0.00351661 0.472534 0.0332147 -0.00183342 0.457204 0.0248501 -0.000482442 0.441391 
0.0165124 0.000477251 0.425055 0.00820198 0.00100963 0.40818 -0.000110058 0.00110542 0.390774 
-0.00847639 0.000782909 0.372869 -0.0169626 8.58427e-05 0.354505 -0.0256325 -0.000921502 0.335721 
-0.0345321 -0.00216132 0.316542 -0.0436734 -0.0035506 0.29697 -0.0530212 -0.00500978 0.276977 
-0.0624846 -0.00647076 0.256505 -0.0719156 -0.00788333 0.235467 -0.0811135 -0.00921949 0.213766 
-0.0898374 -0.0104751 0.191301 -0.0978244 -0.0116692 0.16799 -0.104811 -0.0128402 0.143783 
-0.110557 -0.0140412 0.118681 -0.114869 -0.0153333 0.0927429 -0.117616 -0.016779 0.0660867 
-0.118745 -0.0184351 0.0388875 -0.118282 -0.0203474 0.0113633 -0.116335 -0.0225461 -0.0162432 
-0.113074 -0.0250427 -0.0436867 -0.10872 -0.0278289 -0.070743 -0.10352 -0.0308767 -0.0972307 
-0.0977192 -0.0341392 -0.123028 -0.0915441 -0.0375527 -0.14808 -0.085177 -0.0410392 -0.172405 
-0.0787446 -0.0445088 -0.19608 -0.0723103 -0.0478621 -0.219228 -0.0658757 -0.0509933 -0.241998 
-0.0593889 -0.0537929 -0.264535 -0.0527593 -0.0561503 -0.286963 -0.045877 -0.057958 -0.309357 
-0.038633 -0.0591151 -0.331734 -0.0309397 -0.0595324 -0.354046 -0.0227479 -0.0591372 -0.376183 
-0.014058 -0.057878 -0.397987 -0.00492618 -0.0557299 -0.41927 0.0045371 -0.052698 -0.439839 
0.0141749 -0.0488191 -0.459523 0.0237964 -0.0441626 -0.478192 0.0331937 -0.0388276 -0.495775 
0.0421594 -0.0329386 -0.51227 0.0505044 -0.0266379 -0.527738 0.058073 -0.0200771 -0.542299 
0.0647536 -0.0134067 -0.556104 0.0704855 -0.00676605 -0.569318 0.0752595 -0.000273893 -0.58209 
0.0791144 0.00597881 -0.594527 0.0821293 0.0119336 -0.606674 0.0844126 0.0175657 -0.618506 
0.0860904 0.0228815 -0.629924 0.0872942 0.0279129 -0.640764 0.0881501 0.0327086 -0.65082 
0.0887706 0.0373235 -0.659869 0.089248 0.0418078 -0.667701 0.0896523 0.0461966 -0.674152 
0.0900302 0.0505009 -0.679129 0.0904075 0.0547032 -0.682629 0.0907923 0.0587546 -0.684744 
0.0911795 0.0625782 -0.685661 0.0915552 0.0660742 -0.685642 0.0919011 0.06913 -0.684995 
0.092198 0.0716306 -0.684047 0.0924283 0.0734713 -0.683101 0.0925783 0.0745681 -0.682405 
0.0926395 0.0748676 -0.68212 
LINES 2 100
OFFSETS vtktypeint64
0 100 
CONNECTIVITY vtktypeint64
0 1 2 3 4 5 6 7 8 
9 10 11 12 13 14 15 16 17 
18 19 20 21 22 23 24 25 26 
27 28 29 30 31 32 33 34 35 
36 37 38 39 40 41 42 43 44 
45 46 47 48 49 50 51 52 53 
54 55 56 57 58 59 60 61 62 
63 64 65 66 67 68 69 70 71 
72 73 74 75 76 77 78 79 80 
81 82 83 84 85 86 87 88 89 
90 91 92 93 94 95 96 97 98 
99 
POINT_DATA 100
FIELD FieldData 3
_theta 1 100 double
0 0.031733259127 0.063466518254 0.095199777382 0.12693303651 0.15866629564 0.19039955476 0.22213281389 0.25386607302 
0.28559933214 0.31733259127 0.3490658504 0.38079910953 0.41253236865 0.44426562778 0.47599888691 0.50773214603 0.53946540516 
0.57119866429 0.60293192342 0.63466518254 0.66639844167 0.6981317008 0.72986495992 0.76159821905 0.79333147818 0.82506473731 
0.85679799643 0.88853125556 0.92026451469 0.95199777382 0.98373103294 1.0154642921 1.0471975512 1.0789308103 1.1106640695 
1.1423973286 1.1741305877 1.2058638468 1.237597106 1.2693303651 1.3010636242 1.3327968833 1.3645301425 1.3962634016 
1.4279966607 1.4597299198 1.491463179 1.5231964381 1.5549296972 1.5866629564 1.6183962155 1.6501294746 1.6818627337 
1.7135959929 1.745329252 1.7770625111 1.8087957702 1.8405290294 1.8722622885 1.9039955476 1.9357288068 1.9674620659 
1.999195325 2.0309285841 2.0626618433 2.0943951024 2.1261283615 2.1578616206 2.1895948798 2.2213281389 2.253061398 
2.2847946572 2.3165279163 2.3482611754 2.3799944345 2.4117276937 2.4434609528 2.4751942119 2.506927471 2.5386607302 
2.5703939893 2.6021272484 2.6338605076 2.6655937667 2.6973270258 2.7290602849 2.7607935441 2.7925268032 2.8242600623 
2.8559933214 2.8877265806 2.9194598397 2.9511930988 2.982926358 3.0146596171 3.0463928762 3.0781261353 3.1098593945 
3.1415926536 
_radius 1 100 double
3.2671802394e-16 0.01613594065 0.032206086273 0.048149115804 0.063901409275 0.079396531364 0.094565862176 0.10934046816 0.12365390177 
0.13744520989 0.15066123308 0.16325744761 0.17519712852 0.18644928757 0.19698635074 0.20678262714 0.21581423448 0.2240604922 
0.23150621277 0.2381440859 0.24397651999 0.24901672766 0.2532892712 0.25683050235 0.25968923676 0.26192762404 0.26362164225 
0.26486017161 0.26574144411 0.26636605532 0.26682670945 0.26719614442 0.26751566054 0.26778685356 0.26796848755 0.26797931792 
0.26770655385 0.26701882466 0.26578207833 0.26387673676 0.26121452285 0.25775350099 0.25350993198 0.24856553256 0.2430687373 
0.23722873914 0.23130161057 0.22556883736 0.2203101831 0.21577471458 0.21215532142 0.20957198896 0.20806661154 0.20760796382 
0.20810199849 0.20940237078 0.21131924384 0.21362850919 0.2160853515 0.21844435888 0.22048458534 0.222034712 0.22299253804 
0.22333452428 0.22311376946 0.22244732755 0.22149556971 0.22043725294 0.21944410486 0.2186581437 0.2181738658 0.21802629939 
0.21818521732 0.21855565753 0.21898493836 0.21927599608 0.21920592014 0.21854742924 0.21709034005 0.21466016204 0.21113170208 
0.20643663117 0.20056497548 0.1935611714 0.1855155687 0.1765521911 0.16681347459 0.15644295916 0.14556767551 0.13428297976 
0.12264311511 0.11066005152 0.098311126088 0.085553704666 0.072343783301 0.058655344722 0.044497425344 0.029925587883 0.015044529763 
3.8959902908e-16 
_area 1 100 double
0 0.00062513406773 0.0024917562196 0.0055734500761 0.0098260820235 0.015188157735 0.021582246614 0.028917910234 0.037095764214 
0.046011043724 0.055554159298 0.065606508629 0.076032757771 0.086674272548 0.097349406694 0.10786366637 0.11802816717 0.12768114393 
0.13670607193 0.14504096801 0.15267566838 0.15963672048 0.16596317101 0.17168091912 0.17678628196 0.1812473473 0.18502370104 
0.18809560775 0.19048878717 0.19228381732 0.19360833143 0.194618112 0.19547261832 0.19630548686 0.19718859173 0.19808744526 
0.19881639231 0.19904148934 0.19836705304 0.19644735101 0.19306263316 0.18815666716 0.18184479949 0.17439504008 0.16618502479 
0.15764276767 0.14918369615 0.14115815269 0.13382116894 0.12732932599 0.12176115417 0.11715167292 0.11352561104 0.11090601312 
0.10928429872 0.10858359614 0.10865751773 0.1092975016 0.11022006588 0.11107147871 0.11148394234 0.11115979675 0.10993714587 
0.10781640004 0.10495280343 0.10162551036 0.098191702921 0.095033891167 0.092510374569 0.091006289556 0.090517039 0.091020722648 
0.09234864105 0.09431139818 0.096703264705 0.099255202261 0.10163802065 0.10352449603 0.10464020168 0.10478176285 0.10381252436 
0.10164785369 0.09824600724 0.093615458925 0.087834392436 0.081065561421 0.073550351924 0.06557739928 0.057434904944 0.049365477283 
0.041543876258 0.034087118766 0.02708564491 0.020631663785 0.014830350785 0.0097992328468 0.0056676320292 0.0025744980799 0.00065266258967 
6.580722506e-17 
