# vtk DataFile Version 5.1
vtk output
ASCII
DATASET POLYDATA
POINTS 100 float
0.115274 -0.0207387 0.637094 0.115366 -0.0205732 0.637188 0.115563 -0.0201759 0.637591 
0.115836 -0.0195646 0.63817 0.11614 -0.0187687 0.638724 0.116421 -0.0178282 0.639001 
0.116623 -0.0167916 0.638726 0.116694 -0.0157128 0.637635 0.116594 -0.014648 0.635499 
0.116297 -0.013651 0.632147 0.115792 -0.0127688 0.627484 0.115081 -0.0120367 0.621496 
0.114175 -0.0114741 0.614248 0.113085 -0.0110815 0.60587 0.111817 -0.0108384 0.596542 
0.110365 -0.010704 0.586467 0.108704 -0.0106194 0.575852 0.10679 -0.0105123 0.564883 
0.104558 -0.0103038 0.553706 0.101932 -0.0099165 0.542421 0.0988264 -0.00928283 0.531078 
0.0951576 -0.00835379 0.519675 0.0908567 -0.00710588 0.508177 0.0858772 -0.00554606 0.496526 
0.0802037 -0.00371375 0.484658 0.0738562 -0.00167951 0.472518 0.0668905 0.000459626 0.460073 
0.0593947 0.00258787 0.44732 0.0514814 0.00458063 0.434285 0.0432767 0.00631561 0.421017 
0.0349081 0.00768405 0.407579 0.0264924 0.00860046 0.394031 0.0181248 0.00901003 0.380414 
0.00987177 0.00889259 0.366738 0.00176856 0.00826276 0.352966 -0.00617935 0.0071661 0.339013 
-0.0139894 0.00567187 0.324745 -0.0216919 0.00386314 0.309988 -0.0293169 0.00182556 0.294543 
-0.0368813 -0.000363911 0.278208 -0.0443769 -0.0026468 0.260795 -0.0517613 -0.00499019 0.242155 
-0.0589536 -0.00739028 0.222201 -0.0658358 -0.00987175 0.20091 -0.0722589 -0.0124831 0.178341 
-0.0780542 -0.0152886 0.154623 -0.0830482 -0.0183576 0.129953 -0.087079 -0.0217524 0.104569 
-0.0900121 -0.0255173 0.0787385 -0.0917545 -0.029668 0.052726 -0.0922636 -0.0341852 0.0267736 
-0.0915517 -0.0390112 0.00108008 -0.0896837 -0.044051 -0.0242138 -0.0867696 -0.0491774 -0.049032 
-0.0829515 -0.0542392 -0.0733619 -0.0783889 -0.0590728 -0.0972462 -0.0732408 -0.0635133 -0.120768 
-0.0676509 -0.0674068 -0.14403 -0.0617339 -0.0706203 -0.167138 -0.0555677 -0.0730488 -0.190173 
-0.0491901 -0.0746199 -0.213185 -0.0426018 -0.0752942 -0.236171 -0.0357744 -0.0750624 -0.25908 
-0.0286616 -0.0739401 -0.281807 -0.0212137 -0.0719609 -0.304209 -0.0133912 -0.069169 -0.326116 
-0.00517686 -0.0656124 -0.347347 0.00341528 -0.0613376 -0.367731 0.0123361 -0.0563871 -0.387125 
0.0215025 -0.0507984 -0.405423 0.0308033 -0.044607 -0.422573 0.0401092 -0.0378494 -0.438573 
0.0492848 -0.030569 -0.453472 0.0582026 -0.0228206 -0.467362 0.0667536 -0.0146747 -0.480364 
0.0748577 -0.00621966 -0.492617 0.0824677 0.00243835 -0.504256 0.0895704 0.0111784 -0.515403 
0.0961825 0.0198702 -0.526153 0.102342 0.0283815 -0.536566 0.108099 0.0365866 -0.546664 
0.113502 0.0443747 -0.55643 0.118592 0.0516577 -0.565817 0.123386 0.0583753 -0.574752 
0.127884 0.0644977 -0.58315 0.132059 0.0700249 -0.590924 0.135866 0.0749833 -0.597995 
0.139249 0.0794191 -0.6043 0.142151 0.0833903 -0.609803 0.144526 0.0869576 -0.614494 
0.146351 0.090176 -0.618392 0.147628 0.093088 -0.621544 0.148395 0.095718 -0.624016 
0.148722 0.0980716 -0.625893 0.148706 0.100135 -0.627267 0.148462 0.101882 -0.628233 
0.14811 0.103275 -0.628878 0.147763 0.104277 -0.629278 0.147513 0.104853 -0.629492 
0.147419 0.104984 -0.629555 
LINES 2 100
OFFSETS vtktypeint64
0 100 
CONNECTIVITY vtktypeint64
0 1 2 3 4 5 6 7 8 
9 10 11 12 13 14 15 16 17 
18 19 20 21 22 23 24 25 26 
27 28 29 30 31 32 33 34 35 
36 37 38 39 40 41 42 43 44 
45 46 47 48 49 50 51 52 53 
54 55 56 57 58 59 60 61 62 
63 64 65 66 67 68 69 70 71 
72 73 74 75 76 77 78 79 80 
81 82 83 84 85 86 87 88 89 
90 91 92 93 94 95 96 97 98 
99 
POINT_DATA 100
FIELD FieldData 3
_theta 1 100 double
0 0.031733259127 0.063466518254 0.095199777382 0.12693303651 0.15866629564 0.19039955476 0.22213281389 0.25386607302 
0.28559933214 0.31733259127 0.3490658504 0.38079910953 0.41253236865 0.44426562778 0.47599888691 0.50773214603 0.53946540516 
0.57119866429 0.60293192342 0.63466518254 0.66639844167 0.6981317008 0.72986495992 0.76159821905 0.79333147818 0.82506473731 
0.85679799643 0.88853125556 0.92026451469 0.95199777382 0.98373103294 1.0154642921 1.0471975512 1.0789308103 1.1106640695 
1.1423973286 1.1741305877 1.2058638468 1.237597106 1.2693303651 1.3010636242 1.3327968833 1.3645301425 1.3962634016 
1.4279966607 1.4597299198 1.491463179 1.5231964381 1.5549296972 1.5866629564 1.6183962155 1.6501294746 1.6818627337 
1.7135959929 1.745329252 1.7770625111 1.8087957702 1.8405290294 1.8722622885 1.9039955476 1.9357288068 1.9674620659 
1.999195325 2.0309285841 2.0626618433 2.0943951024 2.1261283615 2.1578616206 2.1895948798 2.2213281389 2.253061398 
2.2847946572 2.3165279163 2.3482611754 2.3799944345 2.4117276937 2.4434609528 2.4751942119 2.506927471 2.5386607302 
2.5703939893 2.6021272484 2.6338605076 2.6655937667 2.6973270258 2.7290602849 2.7607935441 2.7925268032 2.8242600623 
2.8559933214 2.8877265806 2.9194598397 2.9511930988 2.982926358 3.0146596171 3.0463928762 3.0781261353 3.1098593945 
3.1415926536 
_radius 1 100 double
8.0155488237e-16 0.015569979884 0.030890253387 0.045738086437 0.059938342891 0.073378186228 0.086012361534 0.097858496625 0.10898360671 
0.11948452121 0.12946589749 0.13901959365 0.14820846794 0.15705648804 0.16554582393 0.17362066788 0.1811968993 0.18817624063 
0.19446311149 0.19998198054 0.20469273861 0.2086016009 0.21176540512 0.21428797539 0.21630844531 0.21798288704 0.21946189205 
0.2208674606 0.22227253344 0.22368608134 0.22504635605 0.22622454959 0.22703976032 0.22728353271 0.22674976179 0.22526498584 
0.22271489335 0.21906413696 0.21436759336 0.20877198242 0.20250744484 0.19586943844 0.18919223532 0.18281639896 0.17705383132 
0.17215512471 0.16828462519 0.16550808586 0.16379530456 0.16303595768 0.16306302684 0.16367732928 0.16466908535 0.16583581136 
0.1669974417 0.16800909654 0.16877109475 0.16923581865 0.16941087295 0.16935689559 0.16917800124 0.16900473619 0.16897244243 
0.16919966506 0.16977074994 0.17072506277 0.17205362425 0.17370280097 0.17558377856 0.1775857066 0.17958985039 0.18148215222 
0.18316234823 0.18454885279 0.1855795293 0.18620898267 0.18640324733 0.18613292043 0.18536596843 0.18406151806 0.18216582591 
0.17961128811 0.17631887 0.1722037992 0.16718385467 0.16118916108 0.15417211043 0.14611592194 0.137040443 0.12700409758 
0.11610138394 0.10445596376 0.092210083258 0.079511711035 0.066501238914 0.053299760723 0.040000758777 0.026666502025 0.013329688364 
9.548429451e-16 
_area 1 100 double
0 0.000595414499 0.0023416925283 0.0051274034001 0.0087923657595 0.013157803174 0.018055955789 0.023352873104 0.028961051579 
0.034840730637 0.040989351526 0.04741973923 0.054131231229 0.061082038647 0.068171100204 0.075234285425 0.08205628122 0.088396974615 
0.094029476847 0.098785570703 0.10260450707 0.10558774091 0.10807312898 0.11063702333 0.11368493603 0.11715940383 0.12085251614 
0.12458505632 0.1282058729 0.13156408311 0.13449075571 0.13679876445 0.13830308323 0.13885811886 0.13843421767 0.13712532285 
0.13478613789 0.13122492931 0.12652755658 0.12091677143 0.11473521003 0.10838950665 0.10227974094 0.096750502267 0.092058583445 
0.08834446692 0.085614482549 0.083743926854 0.082502113807 0.081601066441 0.080783695008 0.080080991868 0.079539262538 0.078893877659 
0.078091819337 0.077149291409 0.076061742656 0.074828901466 0.073480185562 0.07207371314 0.070688292605 0.069421374684 0.06838699144 
0.067705093671 0.067487099376 0.067833348423 0.068798118929 0.070297517865 0.072199576951 0.07435894074 0.076636331969 0.078915158785 
0.081111753695 0.083186487587 0.085072915039 0.086672110517 0.087896381474 0.088659297925 0.088878356986 0.088478185582 0.087392467916 
0.085566162628 0.08295887339 0.079549147508 0.075339166266 0.070359598768 0.064674447152 0.058385085422 0.051631896636 0.044591756935 
0.037470323883 0.030489283607 0.0238699835 0.017815991978 0.012497847473 0.0080432464532 0.0045349089391 0.0020164180107 0.0005039681483 
9.4871462676e-17 
