# vtk DataFile Version 5.1
vtk output
ASCII
DATASET POLYDATA
POINTS 100 float
0.160059 0.0397125 -0.654598 0.159892 0.0397614 -0.654577 0.159478 0.0397608 -0.654554 
0.158811 0.039717 -0.654445 0.157878 0.039636 -0.654122 0.156665 0.039518 -0.653425 
0.155152 0.0393521 -0.652176 0.15332 0.0391115 -0.650203 0.151145 0.0387504 -0.647355 
0.148601 0.0382035 -0.643514 0.145661 0.0373891 -0.63861 0.142296 0.0362146 -0.632619 
0.13847 0.0345861 -0.625569 0.13415 0.0324185 -0.617527 0.129297 0.0296468 -0.608592 
0.123874 0.0262362 -0.598879 0.117846 0.0221901 -0.588505 0.111188 0.0175542 -0.577573 
0.103884 0.0124165 -0.566163 0.0959375 0.00690241 -0.554323 0.0873697 0.00116615 -0.542064 
0.0782271 -0.00462167 -0.529364 0.0685803 -0.0102881 -0.516171 0.0585229 -0.015672 -0.502415 
0.0481675 -0.0206375 -0.488015 0.0376391 -0.0250833 -0.472893 0.0270668 -0.0289491 -0.456983 
0.0165741 -0.0322167 -0.44024 0.00626948 -0.0349063 -0.422643 -0.00376198 -0.0370688 -0.404198 
-0.0134647 -0.0387757 -0.384932 -0.0228152 -0.0401064 -0.364894 -0.0318205 -0.0411368 -0.344142 
-0.0405128 -0.0419289 -0.32274 -0.0489401 -0.0425238 -0.300746 -0.0571536 -0.0429383 -0.278213 
-0.0651944 -0.0431658 -0.255178 -0.0730798 -0.043181 -0.231667 -0.0807915 -0.0429471 -0.207697 
-0.0882678 -0.0424253 -0.183278 -0.0954007 -0.0415839 -0.158419 -0.102038 -0.0404061 -0.133137 
-0.107994 -0.0388962 -0.107463 -0.11306 -0.0370815 -0.0814449 -0.117023 -0.0350108 -0.0551515 
-0.119689 -0.0327505 -0.0286732 -0.120898 -0.0303769 -0.00211889 -0.120544 -0.0279681 0.024388 
-0.118585 -0.0255953 0.0507156 -0.115053 -0.0233159 0.0767313 -0.11005 -0.0211682 0.102308 
-0.103745 -0.0191707 0.127331 -0.0963527 -0.017323 0.151703 -0.0881215 -0.0156114 0.175348 
-0.0793082 -0.0140156 0.198209 -0.0701565 -0.0125169 0.220256 -0.0608782 -0.0111061 0.241473 
-0.0516375 -0.0097896 0.261864 -0.0425422 -0.00859221 0.281449 -0.0336425 -0.00755711 0.300257 
-0.024936 -0.00674164 0.318329 -0.0163796 -0.00620995 0.335714 -0.00790593 -0.00602343 0.352469 
0.000558453 -0.00623016 0.368658 0.0090744 -0.00685523 0.384353 0.0176746 -0.00789322 0.399632 
0.0263524 -0.00930449 0.414578 0.0350576 -0.0110158 0.429273 0.0436976 -0.0129258 0.443796 
0.0521464 -0.0149145 0.458219 0.0602582 -0.0168564 0.472594 0.0678838 -0.0186342 0.486955 
0.074889 -0.0201535 0.501305 0.0811709 -0.0213537 0.51562 0.0866702 -0.0222158 0.529841 
0.0913786 -0.0227652 0.54388 0.0953391 -0.0230672 0.557623 0.0986404 -0.0232193 0.57094 
0.101405 -0.0233366 0.583692 0.103772 -0.0235363 0.595745 0.105881 -0.0239205 0.606978 
0.107853 -0.0245607 0.6173 0.109776 -0.0254866 0.626649 0.111698 -0.0266795 0.635006 
0.113615 -0.0280728 0.642387 0.115484 -0.0295589 0.648848 0.117226 -0.0310019 0.654472 
0.118742 -0.0322549 0.659365 0.11993 -0.033179 0.663641 0.120703 -0.0336628 0.667409 
0.121005 -0.0336381 0.670769 0.120824 -0.0330913 0.673795 0.120194 -0.0320676 0.676536 
0.119199 -0.0306685 0.679012 0.117963 -0.0290414 0.681217 0.116639 -0.0273636 0.683124 
0.115386 -0.0258223 0.684693 0.114357 -0.0245922 0.685877 0.113676 -0.0238154 0.686638 
0.113424 -0.0235845 0.686947 
LINES 2 100
OFFSETS vtktypeint64
0 100 
CONNECTIVITY vtktypeint64
0 1 2 3 4 5 6 7 8 
9 10 11 12 13 14 15 16 17 
18 19 20 21 22 23 24 25 26 
27 28 29 30 31 32 33 34 35 
36 37 38 39 40 41 42 43 44 
45 46 47 48 49 50 51 52 53 
54 55 56 57 58 59 60 61 62 
63 64 65 66 67 68 69 70 71 
72 73 74 75 76 77 78 79 80 
81 82 83 84 85 86 87 88 89 
90 91 92 93 94 95 96 97 98 
99 
POINT_DATA 100
FIELD FieldData 3
_theta 1 100 double
0 0.031733259127 0.063466518254 0.095199777382 0.12693303651 0.15866629564 0.19039955476 0.22213281389 0.25386607302 
0.28559933214 0.31733259127 0.3490658504 0.38079910953 0.41253236865 0.44426562778 0.47599888691 0.50773214603 0.53946540516 
0.57119866429 0.60293192342 0.63466518254 0.66639844167 0.6981317008 0.72986495992 0.76159821905 0.79333147818 0.82506473731 
0.85679799643 0.88853125556 0.92026451469 0.95199777382 0.98373103294 1.0154642921 1.0471975512 1.0789308103 1.1106640695 
1.1423973286 1.1741305877 1.2058638468 1.237597106 1.2693303651 1.3010636242 1.3327968833 1.3645301425 1.3962634016 
1.4279966607 1.4597299198 1.491463179 1.5231964381 1.5549296972 1.5866629564 1.6183962155 1.6501294746 1.6818627337 
1.7135959929 1.745329252 1.7770625111 1.8087957702 1.8405290294 1.8722622885 1.9039955476 1.9357288068 1.9674620659 
1.999195325 2.0309285841 2.0626618433 2.0943951024 2.1261283615 2.1578616206 2.1895948798 2.2213281389 2.253061398 
2.2847946572 2.3165279163 2.3482611754 2.3799944345 2.4117276937 2.4434609528 2.4751942119 2.506927471 2.5386607302 
2.5703939893 2.6021272484 2.6338605076 2.6655937667 2.6973270258 2.7290602849 2.7607935441 2.7925268032 2.8242600623 
2.8559933214 2.8877265806 2.9194598397 2.9511930988 2.982926358 3.0146596171 3.0463928762 3.0781261353 3.1098593945 
3.1415926536 
_radius 1 100 double
1.3396378878e-15 0.014484815626 0.02890796897 0.043205802933 0.057313070181 0.071160587899 0.084672117615 0.097761539989 0.11033167693 
0.12227587892 0.1334828263 0.14384413133 0.15326355889 0.16166622644 0.16900610202 0.17527048206 0.18048080506 0.18468997157 
0.18797706242 0.19044073419 0.19219247667 0.19335040627 0.19403363115 0.19435683889 0.19442485822 0.19432744834 0.19413509273 
0.19389670574 0.19363976251 0.19337268984 0.19308882717 0.19277111745 0.19239683349 0.19194187291 0.19138437775 0.19070771738 
0.18990320195 0.18897302807 0.18793364882 0.18681909463 0.18568316571 0.18459931429 0.18365768399 0.18296001858 0.18261414651 
0.18272930669 0.18341165212 0.18475766983 0.18684386287 0.18971353354 0.19336381228 0.19773660922 0.20271603835 0.20813314109 
0.21377721645 0.21941205518 0.22479497824 0.2296967143 0.23392049074 0.23731890511 0.23980707957 0.24137044834 0.24206556672 
0.2420127835 0.24138059345 0.24036295851 0.23915264105 0.23791510573 0.23676803096 0.23577030205 0.23492169143 0.23417136215 
0.2334312512 0.23259008476 0.2315250577 0.23011020632 0.22822224553 0.22574547678 0.22257714615 0.21863364324 0.21385675283 
0.20821836766 0.20172196242 0.19439971185 0.18630518846 0.17750279936 0.16805619405 0.15801843016 0.14742637079 0.13630051607 
0.12464968916 0.11247855572 0.099795506788 0.086618969991 0.072981221093 0.058929701763 0.044526400468 0.02984598409 0.014973219731 
5.8934381301e-16 
_area 1 100 double
0 0.00048975692805 0.0019714765599 0.004474801796 0.0080266807971 0.0126272316 0.018229736036 0.024729922568 0.031965578175 
0.039724447679 0.047756984219 0.055790847868 0.063545640701 0.070748183451 0.07714950711 0.082544073566 0.086789928389 0.089826486702 
0.09168539208 0.092489999451 0.092440943069 0.091789107141 0.090801571814 0.089726762447 0.088761956228 0.088027285797 0.087556257285 
0.087311275359 0.087220259445 0.087216094947 0.087258981097 0.087341203657 0.08748170419 0.087708151715 0.088032105879 0.088436369635 
0.088883769566 0.089337300972 0.089780675039 0.090237040585 0.090778871439 0.091497764192 0.092421655317 0.093486343874 0.094617027802 
0.095806099425 0.097139557138 0.098789041783 0.10097827841 0.1039322361 0.1078243043 0.11273502447 0.11862733861 0.12533849171 
0.13258928486 0.14001047388 0.14718140387 0.15367306197 0.1590904096 0.16311322253 0.16553533954 0.16629926949 0.16552013912 
0.163489341 0.16063497592 0.15741604553 0.15421415685 0.15129435451 0.14878871643 0.1466942486 0.14490749503 0.14327721666 
0.14164809802 0.13988481246 0.13787822201 0.13553912855 0.13278519523 0.12952707814 0.12566094365 0.12107452757 0.11566960479 
0.10939510542 0.10227741823 0.094433769077 0.086061538385 0.077406181912 0.068718045857 0.060211517454 0.052038444212 0.044282930253 
0.036978250321 0.030138522337 0.023790043854 0.017988539397 0.012819533113 0.0083876974346 0.0048020683413 0.002161753136 0.00054463971816 
4.6404055161e-17 
