# vtk DataFile Version 5.1
vtk output
ASCII
DATASET POLYDATA
POINTS 100 float
0.0806606 -0.0414739 0.693744 0.0806371 -0.0413603 0.693827 0.0805807 -0.0409203 0.6939 
0.0804628 -0.0401789 0.69391 0.080241 -0.0391739 0.693777 0.0798651 -0.0379533 0.693394 
0.0792852 -0.036571 0.692636 0.0784597 -0.0350825 0.691368 0.0773614 -0.0335403 0.68945 
0.0759826 -0.0319905 0.686752 0.0743363 -0.030469 0.683159 0.0724553 -0.0289998 0.67858 
0.0703872 -0.0275938 0.672951 0.0681874 -0.0262496 0.666249 0.0659109 -0.0249547 0.658482 
0.0636029 -0.023689 0.649697 0.0612907 -0.0224277 0.639976 0.0589781 -0.0211453 0.629423 
0.0566422 -0.0198201 0.618167 0.0542342 -0.0184368 0.606342 0.0516834 -0.0169897 0.594082 
0.0489049 -0.0154837 0.581513 0.0458094 -0.0139344 0.568738 0.0423145 -0.0123674 0.555835 
0.0383546 -0.010815 0.542851 0.0338909 -0.00931353 0.529798 0.028917 -0.00789921 0.516662 
0.023461 -0.00660419 0.503399 0.0175843 -0.00545326 0.489949 0.0113749 -0.00446129 0.476241 
0.00493846 -0.00363204 0.462203 -0.0016139 -0.00295846 0.447772 -0.0081779 -0.00242458 0.4329 
-0.0146683 -0.00200872 0.417561 -0.0210287 -0.00168775 0.401752 -0.0272374 -0.00144191 0.385494 
-0.0333098 -0.00125949 0.368826 -0.0392951 -0.00114083 0.351804 -0.0452688 -0.00110095 0.334489 
-0.0513216 -0.00117046 0.31694 -0.0575457 -0.0013943 0.299208 -0.0640198 -0.00182852 0.281327 
-0.0707957 -0.00253497 0.263309 -0.0778864 -0.0035747 0.245143 -0.0852584 -0.00500055 0.226794 
-0.0928294 -0.00684974 0.208207 -0.100469 -0.00913738 0.189314 -0.108009 -0.0118518 0.170038 
-0.11525 -0.014952 0.150304 -0.121981 -0.0183684 0.130046 -0.12799 -0.0220061 0.109216 
-0.133086 -0.0257511 0.087787 -0.137105 -0.0294789 0.0657608 -0.139929 -0.0330643 0.0431663 
-0.141483 -0.0363922 0.0200597 -0.141747 -0.0393672 -0.0034787 -0.140742 -0.0419218 -0.0273495 
-0.138533 -0.0440221 -0.0514401 -0.135208 -0.0456698 -0.0756306 -0.130878 -0.0469011 -0.0998006 
-0.125654 -0.0477812 -0.123834 -0.119642 -0.0483963 -0.147626 -0.112933 -0.0488428 -0.17108 
-0.105596 -0.0492152 -0.194117 -0.0976799 -0.0495941 -0.216672 -0.0892136 -0.0500344 -0.238697 
-0.0802119 -0.0505578 -0.260154 -0.0706842 -0.0511463 -0.281023 -0.0606439 -0.0517416 -0.301292 
-0.0501179 -0.0522478 -0.320962 -0.0391553 -0.052538 -0.340042 -0.0278332 -0.0524656 -0.358549 
-0.0162598 -0.0518765 -0.376503 -0.0045737 -0.0506239 -0.393931 0.00706024 -0.0485828 -0.410857 
0.0184583 -0.0456628 -0.427302 0.0294281 -0.0418186 -0.443281 0.0397797 -0.0370573 -0.458796 
0.0493378 -0.0314404 -0.473837 0.0579527 -0.0250827 -0.488373 0.0655098 -0.0181462 -0.502358 
0.0719362 -0.0108295 -0.515726 0.0772042 -0.00335602 -0.528393 0.0813314 0.00404153 -0.540265 
0.0843774 0.0111359 -0.551243 0.086438 0.0177204 -0.56123 0.0876365 0.0236213 -0.570141 
0.0881147 0.0287087 -0.577913 0.0880221 0.0329028 -0.58451 0.0875074 0.0361772 -0.589934 
0.0867093 0.0385578 -0.594225 0.0857508 0.0401181 -0.597461 0.0847348 0.0409716 -0.59976 
0.0837426 0.0412606 -0.601265 0.0828341 0.0411448 -0.602142 0.0820502 0.0407875 -0.602562 
0.0814162 0.0403435 -0.602691 0.0809461 0.0399465 -0.602673 0.0806465 0.0396994 -0.602623 
0.0805204 0.0396662 -0.602613 
LINES 2 100
OFFSETS vtktypeint64
0 100 
CONNECTIVITY vtktypeint64
0 1 2 3 4 5 6 7 8 
9 10 11 12 13 14 15 16 17 
18 19 20 21 22 23 24 25 26 
27 28 29 30 31 32 33 34 35 
36 37 38 39 40 41 42 43 44 
45 46 47 48 49 50 51 52 53 
54 55 56 57 58 59 60 61 62 
63 64 65 66 67 68 69 70 71 
72 73 74 75 76 77 78 79 80 
81 82 83 84 85 86 87 88 89 
90 91 92 93 94 95 96 97 98 
99 
POINT_DATA 100
FIELD FieldData 3
_theta 1 100 double
0 0.031733259127 0.063466518254 0.095199777382 0.12693303651 0.15866629564 0.19039955476 0.22213281389 0.25386607302 
0.28559933214 0.31733259127 0.3490658504 0.38079910953 0.41253236865 0.44426562778 0.47599888691 0.50773214603 0.53946540516 
0.57119866429 0.60293192342 0.63466518254 0.66639844167 0.6981317008 0.72986495992 0.76159821905 0.79333147818 0.82506473731 
0.85679799643 0.88853125556 0.92026451469 0.95199777382 0.98373103294 1.0154642921 1.0471975512 1.0789308103 1.1106640695 
1.1423973286 1.1741305877 1.2058638468 1.237597106 1.2693303651 1.3010636242 1.3327968833 1.3645301425 1.3962634016 
1.4279966607 1.4597299198 1.491463179 1.5231964381 1.5549296972 1.5866629564 1.6183962155 1.6501294746 1.6818627337 
1.7135959929 1.745329252 1.7770625111 1.8087957702 1.8405290294 1.8722622885 1.9039955476 1.9357288068 1.9674620659 
1.999195325 2.0309285841 2.0626618433 2.0943951024 2.1261283615 2.1578616206 2.1895948798 2.2213281389 2.253061398 
2.2847946572 2.3165279163 2.3482611754 2.3799944345 2.4117276937 2.4434609528 2.4751942119 2.506927471 2.5386607302 
2.5703939893 2.6021272484 2.6338605076 2.6655937667 2.6973270258 2.7290602849 2.7607935441 2.7925268032 2.8242600623 
2.8559933214 2.8877265806 2.9194598397 2.9511930988 2.982926358 3.0146596171 3.0463928762 3.0781261353 3.1098593945 
3.1415926536 
_radius 1 100 double
1.8941655265e-15 0.014609605767 0.029209820435 0.043776489098 0.058270606666 0.072634452814 0.086791179278 0.10064815524 0.11410376383 
0.12705673353 0.13941659238 0.15111354975 0.16210610805 0.1723850058 0.18197266437 0.19091807241 0.19928786176 0.20715503124 
0.21458718713 0.22163619211 0.22833077519 0.23467308563 0.24063952603 0.24618557531 0.25125376723 0.2557835716 0.25972169611 
0.26303133242 0.26569909937 0.26773881554 0.26919166136 0.27012269048 0.27061399928 0.27075518156 0.27063200188 0.27031450629 
0.26984602526 0.26923468844 0.26844912408 0.26741983328 0.26604712167 0.26421536079 0.26181195757 0.25874819589 0.25497851594 
0.25051501247 0.24543486774 0.23987972373 0.23404714238 0.22817497338 0.22251976903 0.21733083279 0.2128224977 0.20914878195 
0.20638583915 0.20452709689 0.20349270611 0.20315012722 0.20333926801 0.20389547947 0.20466626645 0.20552080446 0.20635378739 
0.20708618655 0.20766511423 0.20806357773 0.20827947943 0.20833271393 0.20825971921 0.20810568552 0.2079151881 0.20772217821 
0.20754032357 0.20735493158 0.20711807261 0.20674857956 0.2061379047 0.20516149933 0.2036939796 0.20162527353 0.19887443129 
0.19539796506 0.19119048981 0.18627693202 0.18069743656 0.17448803688 0.16766170121 0.16019491335 0.15202396089 0.14305255598 
0.13316906143 0.12226881563 0.11027604663 0.097160834241 0.082948696107 0.067722556519 0.051618416463 0.03481677457 0.017531833575 
7.6883788241e-16 
_area 1 100 double
0 0.0005706891905 0.0022863919154 0.0051541941752 0.009174123651 0.014324588404 0.020547557503 0.027737681746 0.035739067362 
0.044352001287 0.053349729572 0.062502841317 0.071606570363 0.080505056013 0.089106750702 0.097386940612 0.10537669264 0.11314165889 
0.12075714818 0.12828585249 0.13576189842 0.14318189288 0.15050232599 0.15764293105 0.16449588389 0.17094002011 0.17685785333 
0.1821519286 0.18675656004 0.19064191502 0.19381006909 0.19628594754 0.19810775856 0.19932056107 0.19997426432 0.20012565429 
0.19984401085 0.19922171411 0.19839376582 0.19753671938 0.19665959108 0.19541865361 0.19343989218 0.19047769672 0.18640801885 
0.1812226576 0.17502561602 0.16802609243 0.16052835718 0.15291469659 0.14561264074 0.13903965914 0.13352712437 0.12924108587 
0.12613878984 0.1239961699 0.12249041748 0.12128439936 0.12008269487 0.11866415461 0.11690231761 0.11477422478 0.11235080653 
0.10976494799 0.1071639943 0.10466491332 0.1023321267 0.10018377987 0.098213830691 0.096412984126 0.09477878086 0.093313112652 
0.092012126163 0.090858901475 0.08982985942 0.088919538145 0.088196769321 0.088001630566 0.08794175122 0.087592181513 0.08665935792 
0.084931743556 0.082325277122 0.078883896237 0.074739181662 0.070049849105 0.064944914058 0.059493034667 0.053708495317 0.047586567658 
0.04115068922 0.034492129548 0.027786441311 0.021280749516 0.015257846312 0.0099910160238 0.0057055097969 0.0025587806796 0.00064264884481 
3.113123791e-17 
