# vtk DataFile Version 5.1
vtk output
ASCII
DATASET POLYDATA
POINTS 100 float
0.154682 -0.0193872 0.671069 0.154415 -0.0195152 0.670976 0.153683 -0.0197873 0.670551 
0.152549 -0.0201798 0.669804 0.151105 -0.0206551 0.668751 0.149465 -0.0211656 0.667399 
0.147749 -0.0216593 0.665744 0.146067 -0.0220853 0.663759 0.144502 -0.0223996 0.661388 
0.143106 -0.0225689 0.658547 0.141883 -0.0225743 0.655123 0.140795 -0.0224119 0.650988 
0.13976 -0.0220922 0.646008 0.138663 -0.0216379 0.640056 0.137367 -0.0210795 0.633032 
0.135728 -0.0204514 0.624876 0.13361 -0.0197865 0.615579 0.130896 -0.0191122 0.605187 
0.127506 -0.0184473 0.593805 0.123398 -0.0178001 0.581584 0.118575 -0.0171681 0.568711 
0.113083 -0.0165399 0.555389 0.107002 -0.0158981 0.541818 0.100442 -0.0152231 0.528175 
0.0935273 -0.0144976 0.514595 0.086387 -0.0137105 0.501161 0.0791425 -0.0128606 0.487894 
0.0718981 -0.0119589 0.474761 0.0647332 -0.0110289 0.461679 0.0576983 -0.0101059 0.448533 
0.0508132 -0.00923431 0.43519 0.0440686 -0.00846439 0.421526 0.037429 -0.0078474 0.40744 
0.0308387 -0.00743112 0.392866 0.0242267 -0.00725546 0.377787 0.0175138 -0.007349 0.362232 
0.0106184 -0.00772662 0.346267 0.00346266 -0.00838867 0.329988 -0.00402191 -0.00932154 0.313498 
-0.0118891 -0.0104996 0.296889 -0.0201727 -0.0118881 0.280224 -0.0288817 -0.0134468 0.263521 
-0.0379953 -0.015134 0.246742 -0.0474585 -0.0169095 0.229795 -0.0571793 -0.0187381 0.212541 
-0.0670267 -0.0205914 0.194802 -0.0768314 -0.0224486 0.176389 -0.0863896 -0.0242966 0.157121 
-0.0954695 -0.0261292 0.136848 -0.103822 -0.0279448 0.115474 -0.111194 -0.029745 0.0929744 
-0.117345 -0.0315321 0.0693977 -0.12206 -0.0333069 0.0448701 -0.125173 -0.0350673 0.0195838 
-0.126575 -0.0368068 -0.00621973 -0.126226 -0.0385142 -0.032272 -0.124162 -0.0401728 -0.0583026 
-0.120492 -0.0417612 -0.0840631 -0.115393 -0.043253 -0.109348 -0.109089 -0.0446179 -0.134009 
-0.101842 -0.0458218 -0.157963 -0.0939203 -0.0468276 -0.181188 -0.0855806 -0.0475956 -0.203717 
-0.0770438 -0.0480842 -0.225621 -0.0684774 -0.0482508 -0.246993 -0.059984 -0.0480528 -0.26792 
-0.0515963 -0.0474491 -0.288476 -0.0432814 -0.0464023 -0.308697 -0.0349525 -0.0448811 -0.328581 
-0.0264868 -0.0428626 -0.348082 -0.0177486 -0.0403352 -0.367119 -0.00861366 -0.0373013 -0.385587 
0.00100792 -0.0337786 -0.403368 0.0111521 -0.0298022 -0.420355 0.0217884 -0.0254234 -0.436462 
0.0328152 -0.0207095 -0.451637 0.0440642 -0.0157407 -0.465871 0.0553125 -0.0106067 -0.479193 
0.0663026 -0.00540187 -0.491669 0.0767662 -0.000220504 -0.50339 0.0864504 0.00484861 -0.514454 
0.0951421 0.00972682 -0.524953 0.102688 0.0143495 -0.534957 0.109009 0.0186687 -0.544504 
0.114105 0.0226542 -0.553592 0.118051 0.0262932 -0.562181 0.120988 0.0295881 -0.570196 
0.123101 0.0325537 -0.577546 0.1246 0.0352133 -0.584131 0.125694 0.037594 -0.589864 
0.126572 0.039723 -0.594686 0.12738 0.0416241 -0.598579 0.128214 0.043315 -0.60157 
0.129114 0.0448059 -0.603734 0.130069 0.0460999 -0.605187 0.131024 0.0471937 -0.606072 
0.131902 0.0480796 -0.606545 0.132613 0.0487479 -0.606753 0.133082 0.0491896 -0.606819 
0.133253 0.0493981 -0.606822 
LINES 2 100
OFFSETS vtktypeint64
0 100 
CONNECTIVITY vtktypeint64
0 1 2 3 4 5 6 7 8 
9 10 11 12 13 14 15 16 17 
18 19 20 21 22 23 24 25 26 
27 28 29 30 31 32 33 34 35 
36 37 38 39 40 41 42 43 44 
45 46 47 48 49 50 51 52 53 
54 55 56 57 58 59 60 61 62 
63 64 65 66 67 68 69 70 71 
72 73 74 75 76 77 78 79 80 
81 82 83 84 85 86 87 88 89 
90 91 92 93 94 95 96 97 98 
99 
POINT_DATA 100
FIELD FieldData 3
_theta 1 100 double
0 0.031733259127 0.063466518254 0.095199777382 0.12693303651 0.15866629564 0.19039955476 0.22213281389 0.25386607302 
0.28559933214 0.31733259127 0.3490658504 0.38079910953 0.41253236865 0.44426562778 0.47599888691 0.50773214603 0.53946540516 
0.57119866429 0.60293192342 0.63466518254 0.66639844167 0.6981317008 0.72986495992 0.76159821905 0.79333147818 0.82506473731 
0.85679799643 0.88853125556 0.92026451469 0.95199777382 0.98373103294 1.0154642921 1.0471975512 1.0789308103 1.1106640695 
1.1423973286 1.1741305877 1.2058638468 1.237597106 1.2693303651 1.3010636242 1.3327968833 1.3645301425 1.3962634016 
1.4279966607 1.4597299198 1.491463179 1.5231964381 1.5549296972 1.5866629564 1.6183962155 1.6501294746 1.6818627337 
1.7135959929 1.745329252 1.7770625111 1.8087957702 1.8405290294 1.8722622885 1.9039955476 1.9357288068 1.9674620659 
1.999195325 2.0309285841 2.0626618433 2.0943951024 2.1261283615 2.1578616206 2.1895948798 2.2213281389 2.253061398 
2.2847946572 2.3165279163 2.3482611754 2.3799944345 2.4117276937 2.4434609528 2.4751942119 2.506927471 2.5386607302 
2.5703939893 2.6021272484 2.6338605076 2.6655937667 2.6973270258 2.7290602849 2.7607935441 2.7925268032 2.8242600623 
2.8559933214 2.8877265806 2.9194598397 2.9511930988 2.982926358 3.0146596171 3.0463928762 3.0781261353 3.1098593945 
3.1415926536 
_radius 1 100 double
4.75098926e-16 0.014358936504 0.028782772954 0.043317177586 0.05797791965 0.072738682046 0.087522735807 0.10220020714 0.11659238886 
0.13048374108 0.14364095138 0.15583696411 0.16687666312 0.17662029317 0.18500092762 0.1920332766 0.19781259876 0.20250404937 
0.20632412213 0.20951674669 0.21232709477 0.21497631423 0.21764028776 0.22043504171 0.22341056781 0.22655364463 0.22979895402 
0.2330465771 0.23618295655 0.23910176231 0.24172102181 0.24399355931 0.24590913857 0.24748834392 0.24876976317 0.2497932116 
0.25058245098 0.25113104409 0.25139456921 0.25129131098 0.25071177619 0.24953539131 0.24765124465 0.24497922293 0.24148827046 
0.23720930806 0.23224117662 0.22674865394 0.22095221278 0.21510997032 0.20949345858 0.204360453 0.19992965407 0.19636234334 
0.19375391908 0.19213374455 0.19146807661 0.1916616966 0.1925593874 0.19395385044 0.19560614844 0.19727762153 0.19876480859 
0.19992738464 0.20070299743 0.20110791457 0.2012258274 0.20118857842 0.20115258661 0.20127411187 0.20168576751 0.20247606904 
0.2036734108 0.20523581216 0.20704795683 0.20892694926 0.21063727639 0.21191368764 0.21248876858 0.21212073338 0.21061684986 
0.20784885614 0.20375836161 0.19835215199 0.19168919834 0.18386268225 0.17498114477 0.16515264255 0.15447450612 0.1430293559 
0.130886217 0.11810458607 0.10473934011 0.090845093178 0.076479445472 0.061705126603 0.046591208913 0.031213494062 0.015654066153 
1.4820946082e-15 
_area 1 100 double
0 0.00051904471972 0.0020868868889 0.0047320803691 0.0084916781187 0.013398813187 0.019468507034 0.02668068241 0.034959857555 
0.044155280192 0.054029338468 0.064261826792 0.074473238958 0.084264475518 0.093265543834 0.10118334197 0.10783895081 0.11318764718 
0.1173190033 0.12043851585 0.12283495672 0.12483860823 0.12677542323 0.12892246216 0.13147208546 0.13451538523 0.13805529417 
0.14205412322 0.14648024034 0.15125777868 0.15602062173 0.16045232818 0.16446647659 0.16802326306 0.17146431802 0.17467155898 
0.17745223257 0.17975888604 0.18161631822 0.18274646786 0.18286887328 0.1817147963 0.17918642921 0.175316253 0.17023706433 
0.16415550969 0.15733355493 0.15007619032 0.14271549138 0.13558243876 0.12897098425 0.12310942374 0.11813923035 0.11407552262 
0.1107790429 0.10803942644 0.10570724352 0.10375112414 0.10224136895 0.10125739039 0.10080519061 0.1009347811 0.10134545511 
0.10195945347 0.1024881124 0.10281301831 0.10286825952 0.10265740944 0.10225474494 0.10178899046 0.10142275374 0.10133025063 
0.10167146227 0.10255747152 0.10400643026 0.10590506169 0.10800029547 0.10993155059 0.11129038392 0.11168638771 0.11080480221 
0.1084479643 0.10455579791 0.099203252697 0.092576888802 0.084937964613 0.076582640659 0.067808812152 0.058894288828 0.050085745952 
0.041594813019 0.033597669727 0.026236639954 0.019624342567 0.01385095071 0.0089929976536 0.0051201571745 0.0022967669485 0.00057754532413 
8.0438672991e-17 
