# vtk DataFile Version 5.1
vtk output
ASCII
DATASET POLYDATA
POINTS 100 float
0.239269 0.0698422 -0.614843 0.239063 0.0697436 -0.614857 0.238414 0.0696296 -0.614863 
0.237343 0.0694914 -0.614792 0.23588 0.0693128 -0.614539 0.234063 0.0690681 -0.61397 
0.231923 0.0687193 -0.612936 0.229487 0.0682148 -0.611288 0.22676 0.0674888 -0.60889 
0.223729 0.0664623 -0.605628 0.220358 0.0650478 -0.601421 0.216588 0.0631542 -0.596226 
0.212341 0.0606953 -0.590037 0.207528 0.0575983 -0.582881 0.202057 0.053813 -0.574813 
0.195845 0.0493198 -0.565904 0.188826 0.0441356 -0.556235 0.180961 0.0383174 -0.545882 
0.172247 0.0319612 -0.534912 0.162719 0.0251982 -0.523374 0.152448 0.0181866 -0.511296 
0.141544 0.0111008 -0.498686 0.130143 0.00411869 -0.485534 0.118396 -0.00259159 -0.471817 
0.106462 -0.00888451 -0.457504 0.0944902 -0.0146474 -0.442567 0.0826102 -0.0198075 -0.426982 
0.0709215 -0.0243354 -0.410738 0.0594866 -0.0282435 -0.393837 0.0483291 -0.0315809 -0.376294 
0.0374357 -0.0344245 -0.358141 0.0267627 -0.0368677 -0.339414 0.0162466 -0.0390081 -0.320157 
0.0058173 -0.0409353 -0.300413 -0.00458758 -0.0427209 -0.280218 -0.0150081 -0.0444102 -0.259601 
-0.0254495 -0.0460185 -0.238583 -0.0358737 -0.0475305 -0.217174 -0.046194 -0.0489035 -0.195378 
-0.0562758 -0.0500741 -0.173198 -0.0659429 -0.0509666 -0.15064 -0.0749876 -0.0515029 -0.12772 
-0.0831859 -0.0516117 -0.104467 -0.0903143 -0.0512378 -0.0809294 -0.0961682 -0.0503476 -0.0571743 
-0.100579 -0.0489338 -0.0332887 -0.103428 -0.0470157 -0.0093756 -0.104657 -0.0446378 0.0144506 
-0.104276 -0.0418659 0.0380707 -0.102357 -0.0387813 0.0613683 -0.0990359 -0.0354749 0.084237 
-0.0944942 -0.0320403 0.106587 -0.0889493 -0.0285689 0.12835 -0.0826353 -0.025145 0.149483 
-0.0757861 -0.021843 0.169966 -0.0686188 -0.0187262 0.189804 -0.0613201 -0.0158463 0.209021 
-0.0540362 -0.0132445 0.227655 -0.0468677 -0.0109522 0.245752 -0.0398694 -0.00899253 0.263362 
-0.0330544 -0.00738101 0.280529 -0.0264024 -0.00612578 0.297292 -0.0198706 -0.0052273 0.313682 
-0.0134056 -0.0046775 0.329719 -0.00695569 -0.00445894 0.345412 -0.000480988 -0.00454409 0.360767 
0.00603839 -0.00489539 0.375785 0.012598 -0.0054661 0.390467 0.019168 -0.00620244 0.404816 
0.0256959 -0.00704674 0.418841 0.0321122 -0.00794149 0.432555 0.0383377 -0.0088339 0.445976 
0.0442919 -0.00968044 0.459127 0.0499018 -0.0104506 0.472027 0.0551084 -0.0111296 0.484694 
0.0598722 -0.0117192 0.497136 0.0641753 -0.012237 0.509351 0.0680209 -0.0127134 0.521323 
0.0714311 -0.0131872 0.533021 0.0744412 -0.0136998 0.5444 0.0770945 -0.0142894 0.5554 
0.079435 -0.014985 0.565955 0.0815026 -0.0158019 0.575992 0.0833281 -0.0167386 0.585437 
0.0849309 -0.0177761 0.594224 0.0863189 -0.0188796 0.602296 0.0874899 -0.0200017 0.609608 
0.088436 -0.0210885 0.616138 0.0891478 -0.0220852 0.621876 0.0896196 -0.0229434 0.626837 
0.0898544 -0.0236265 0.63105 0.0898674 -0.0241144 0.634561 0.0896873 -0.0244056 0.637426 
0.0893567 -0.024517 0.639712 0.0889289 -0.0244817 0.641487 0.0884644 -0.024344 0.642817 
0.0880246 -0.0241533 0.643765 0.0876659 -0.0239576 0.644382 0.0874341 -0.0237966 0.644709 
0.0873588 -0.0236966 0.644773 
LINES 2 100
OFFSETS vtktypeint64
0 100 
CONNECTIVITY vtktypeint64
0 1 2 3 4 5 6 7 8 
9 10 11 12 13 14 15 16 17 
18 19 20 21 22 23 24 25 26 
27 28 29 30 31 32 33 34 35 
36 37 38 39 40 41 42 43 44 
45 46 47 48 49 50 51 52 53 
54 55 56 57 58 59 60 61 62 
63 64 65 66 67 68 69 70 71 
72 73 74 75 76 77 78 79 80 
81 82 83 84 85 86 87 88 89 
90 91 92 93 94 95 96 97 98 
99 
POINT_DATA 100
FIELD FieldData 3
_theta 1 100 double
0 0.031733259127 0.063466518254 0.095199777382 0.12693303651 0.15866629564 0.19039955476 0.22213281389 0.25386607302 
0.28559933214 0.31733259127 0.3490658504 0.38079910953 0.41253236865 0.44426562778 0.47599888691 0.50773214603 0.53946540516 
0.57119866429 0.60293192342 0.63466518254 0.66639844167 0.6981317008 0.72986495992 0.76159821905 0.79333147818 0.82506473731 
0.85679799643 0.88853125556 0.92026451469 0.95199777382 0.98373103294 1.0154642921 1.0471975512 1.0789308103 1.1106640695 
1.1423973286 1.1741305877 1.2058638468 1.237597106 1.2693303651 1.3010636242 1.3327968833 1.3645301425 1.3962634016 
1.4279966607 1.4597299198 1.491463179 1.5231964381 1.5549296972 1.5866629564 1.6183962155 1.6501294746 1.6818627337 
1.7135959929 1.745329252 1.7770625111 1.8087957702 1.8405290294 1.8722622885 1.9039955476 1.9357288068 1.9674620659 
1.999195325 2.0309285841 2.0626618433 2.0943951024 2.1261283615 2.1578616206 2.1895948798 2.2213281389 2.253061398 
2.2847946572 2.3165279163 2.3482611754 2.3799944345 2.4117276937 2.4434609528 2.4751942119 2.506927471 2.5386607302 
2.5703939893 2.6021272484 2.6338605076 2.6655937667 2.6973270258 2.7290602849 2.7607935441 2.7925268032 2.8242600623 
2.8559933214 2.8877265806 2.9194598397 2.9511930988 2.982926358 3.0146596171 3.0463928762 3.0781261353 3.1098593945 
3.1415926536 
_radius 1 100 double
7.7018596642e-16 0.014966417602 0.029867595438 0.04463809962 0.05920688703 0.073494774118 0.087412640588 0.10086090896 0.11373077882 
0.12590746497 0.13727536647 0.14772476672 0.15715940196 0.16550408461 0.17271154787 0.17876777383 0.18369523152 0.18755362983 
0.19043795343 0.19247371252 0.19380954559 0.19460760178 0.19503247174 0.19523973634 0.19536533395 0.19551682339 0.19576727117 
0.19615208288 0.19666885148 0.19728031329 0.19792064344 0.19850526908 0.19894391144 0.19915575374 0.19908478166 0.19871280517 
0.19806767123 0.19722478461 0.19630120477 0.1954431085 0.19480900126 0.19455225836 0.19480675726 0.19567804232 0.19723992356 
0.19953399933 0.20256892101 0.20631780579 0.21071496454 0.21565510892 0.22099801556 0.22657941678 0.23222626211 0.23777307235 
0.2430762568 0.24802429628 0.25254283545 0.25659464619 0.26017510025 0.26330425728 0.26601692621 0.26835209694 0.27034302083 
0.27200903373 0.2733500195 0.27434418443 0.27494948286 0.27510855541 0.27475646483 0.27382998219 0.27227685387 0.27006347183 
0.26717967298 0.26363991475 0.25948069048 0.25475465326 0.24952242669 0.24384341553 0.23776701625 0.23132545561 0.22452913153 
0.21736492686 0.20979761746 0.2017742173 0.1932308471 0.18410143553 0.17432727288 0.16386620278 0.15270014553 0.14083977071 
0.12832550438 0.11522462005 0.10162481511 0.087625277273 0.073326680918 0.058821743644 0.044187887618 0.029483196216 0.014746283962 
9.6759520764e-16 
_area 1 100 double
0 0.00055008969553 0.0022107203676 0.0050074713638 0.0089651578275 0.014084153174 0.020315369348 0.027541686658 0.035571210072 
0.044143807918 0.052949319445 0.061653890249 0.069929770173 0.077483611776 0.084079005963 0.089550639661 0.093809718641 0.096842545584 
0.098705489259 0.099519137542 0.099462077294 0.098761795128 0.097678756456 0.096481140503 0.095411864726 0.094655072105 0.094312956138 
0.094401723888 0.094866521992 0.095602903223 0.0964821195 0.097380211103 0.098195036076 0.098863085375 0.099377118004 0.09978883184 
0.10019697415 0.10072895484 0.1015179943 0.10267166763 0.1042563937 0.10634813801 0.10881128368 0.11157255332 0.1146297526 
0.11801422649 0.1217873646 0.12603278229 0.13083396956 0.13624098819 0.14223463828 0.14870234762 0.15544648611 0.16222573879 
0.16880259824 0.17497542722 0.18059268548 0.18555454086 0.18980660663 0.19332953893 0.19612824306 0.19822399316 0.19965081661 
0.20045457245 0.20069043464 0.20041322439 0.19965753663 0.1984134551 0.19661431012 0.19415084213 0.19090768172 0.18680288071 
0.18181330354 0.17598019713 0.16939886817 0.16220026858 0.15453123051 0.14653715874 0.13834877854 0.1300732736 0.12178944962 
0.11354656599 0.10536649397 0.097247988482 0.089171604153 0.081105953088 0.073018320816 0.064891141245 0.056740741649 0.048630879926 
0.040674740804 0.033024258568 0.02585087207 0.019324168393 0.013594160459 0.0087805422976 0.0049695766309 0.0022171593147 0.00055542556708 
4.6244043495e-17 
