# vtk DataFile Version 5.1
vtk output
ASCII
DATASET POLYDATA
POINTS 100 float
0.132583 0.075759 -0.649766 0.132519 0.0757001 -0.649781 0.132363 0.0752691 -0.64977 
0.13212 0.0744623 -0.649648 0.131794 0.0732747 -0.649287 0.131389 0.0716983 -0.64853 
0.1309 0.0697208 -0.647205 0.130314 0.0673256 -0.645147 0.129604 0.0644907 -0.642211 
0.128727 0.0611913 -0.638289 0.127626 0.0574017 -0.633318 0.126231 0.0530999 -0.627284 
0.124459 0.0482724 -0.620214 0.122225 0.04292 -0.612176 0.119443 0.0370625 -0.60326 
0.116035 0.0307432 -0.593567 0.111939 0.0240311 -0.58319 0.107112 0.017021 -0.572206 
0.101538 0.00983068 -0.560664 0.0952253 0.00259602 -0.548575 0.0882124 -0.00453647 -0.535921 
0.0805608 -0.0114187 -0.522651 0.0723516 -0.0179105 -0.508695 0.0636789 -0.023889 -0.493975 
0.0546419 -0.0292567 -0.478417 0.045337 -0.0339469 -0.461961 0.0358506 -0.0379266 -0.444575 
0.0262535 -0.0411959 -0.426257 0.0165981 -0.0437848 -0.40704 0.00691748 -0.0457464 -0.386983 
-0.00277173 -0.0471494 -0.366172 -0.0124641 -0.0480681 -0.344703 -0.0221579 -0.0485745 -0.322677 
-0.0318466 -0.0487299 -0.300186 -0.0415091 -0.0485798 -0.277302 -0.0511024 -0.0481512 -0.254079 
-0.0605544 -0.0474527 -0.230546 -0.0697614 -0.0464776 -0.206708 -0.0785876 -0.0452092 -0.18256 
-0.08687 -0.0436281 -0.158088 -0.0944256 -0.0417188 -0.133286 -0.101063 -0.0394771 -0.108163 
-0.106595 -0.0369149 -0.0827528 -0.110854 -0.0340635 -0.0571212 -0.113705 -0.0309741 -0.0313652 
-0.115059 -0.0277154 -0.00561161 -0.114881 -0.0243688 0.0199903 -0.113192 -0.0210228 0.0452795 
-0.110078 -0.0177649 0.0700954 -0.105674 -0.0146753 0.0942915 -0.100163 -0.0118206 0.117748 
-0.0937599 -0.00924929 0.14038 -0.0866949 -0.00699009 0.162145 -0.0791992 -0.00505218 0.183044 
-0.0714876 -0.00342798 0.203119 -0.063745 -0.00209761 0.222444 -0.0561155 -0.00103452 0.241117 
-0.0486961 -0.000211277 0.259248 -0.0415352 0.000395192 0.276945 -0.0346356 0.00079977 0.294306 
-0.0279619 0.00100714 0.311405 -0.0214506 0.00101188 0.328293 -0.0150234 0.000800601 0.344993 
-0.0085995 0.000355659 0.361503 -0.00210803 -0.000340097 0.377801 0.00450191 -0.00129835 0.393853 
0.0112546 -0.00252092 0.40962 0.0181443 -0.00399661 0.425067 0.0251364 -0.00569985 0.440169 
0.0321713 -0.0075914 0.454915 0.0391717 -0.00962103 0.469309 0.0460512 -0.0117318 0.483368 
0.052724 -0.0138654 0.497119 0.0591134 -0.015968 0.510592 0.0651592 -0.0179953 0.523813 
0.0708224 -0.0199164 0.536797 0.0760868 -0.0217164 0.549546 0.0809581 -0.0233964 0.562041 
0.08546 -0.0249713 0.574245 0.0896285 -0.0264667 0.586102 0.0935049 -0.0279135 0.597545 
0.0971289 -0.0293423 0.608496 0.100532 -0.0307786 0.61888 0.103736 -0.0322379 0.628628 
0.106744 -0.0337235 0.637681 0.109548 -0.0352251 0.646001 0.112129 -0.0367204 0.653566 
0.114458 -0.0381776 0.660378 0.116508 -0.0395603 0.666452 0.118253 -0.0408319 0.671822 
0.119681 -0.0419609 0.676528 0.12079 -0.0429251 0.680619 0.121598 -0.043714 0.684138 
0.122135 -0.0443301 0.68713 0.122448 -0.0447881 0.689629 0.122591 -0.0451119 0.691663 
0.122621 -0.0453309 0.693251 0.122592 -0.0454752 0.694406 0.122547 -0.0455708 0.695133 
0.122515 -0.0456357 0.695434 
LINES 2 100
OFFSETS vtktypeint64
0 100 
CONNECTIVITY vtktypeint64
0 1 2 3 4 5 6 7 8 
9 10 11 12 13 14 15 16 17 
18 19 20 21 22 23 24 25 26 
27 28 29 30 31 32 33 34 35 
36 37 38 39 40 41 42 43 44 
45 46 47 48 49 50 51 52 53 
54 55 56 57 58 59 60 61 62 
63 64 65 66 67 68 69 70 71 
72 73 74 75 76 77 78 79 80 
81 82 83 84 85 86 87 88 89 
90 91 92 93 94 95 96 97 98 
99 
POINT_DATA 100
FIELD FieldData 3
_theta 1 100 double
0 0.031733259127 0.063466518254 0.095199777382 0.12693303651 0.15866629564 0.19039955476 0.22213281389 0.25386607302 
0.28559933214 0.31733259127 0.3490658504 0.38079910953 0.41253236865 0.44426562778 0.47599888691 0.50773214603 0.53946540516 
0.57119866429 0.60293192342 0.63466518254 0.66639844167 0.6981317008 0.72986495992 0.76159821905 0.79333147818 0.82506473731 
0.85679799643 0.88853125556 0.92026451469 0.95199777382 0.98373103294 1.0154642921 1.0471975512 1.0789308103 1.1106640695 
1.1423973286 1.1741305877 1.2058638468 1.237597106 1.2693303651 1.3010636242 1.3327968833 1.3645301425 1.3962634016 
1.4279966607 1.4597299198 1.491463179 1.5231964381 1.5549296972 1.5866629564 1.6183962155 1.6501294746 1.6818627337 
1.7135959929 1.745329252 1.7770625111 1.8087957702 1.8405290294 1.8722622885 1.9039955476 1.9357288068 1.9674620659 
1.999195325 2.0309285841 2.0626618433 2.0943951024 2.1261283615 2.1578616206 2.1895948798 2.2213281389 2.253061398 
2.2847946572 2.3165279163 2.3482611754 2.3799944345 2.4117276937 2.4434609528 2.4751942119 2.506927471 2.5386607302 
2.5703939893 2.6021272484 2.6338605076 2.6655937667 2.6973270258 2.7290602849 2.7607935441 2.7925268032 2.8242600623 
2.8559933214 2.8877265806 2.9194598397 2.9511930988 2.982926358 3.0146596171 3.0463928762 3.0781261353 3.1098593945 
3.1415926536 
_radius 1 100 double
5.9285935503e-16 0.015564831392 0.031000393693 0.046178194218 0.06098555625 0.075330209513 0.089141389342 0.10236753724 0.11497132266 
0.12692314431 0.13819448196 0.14875243707 0.15855652918 0.16755837377 0.17570437451 0.1829411137 0.18922275326 0.19451944941 
0.19882553315 0.20216606603 0.20460043603 0.20622198651 0.2071532684 0.20753726237 0.20752564944 0.20726572632 0.20688774959 
0.20649434396 0.20615321549 0.20589391773 0.20570897051 0.20555931805 0.20538389841 0.20511279613 0.20468285758 0.20405379853 
0.2032220716 0.20222949133 0.2011641082 0.20015232353 0.19934385889 0.1988941138 0.19894939184 0.19963770467 0.20106324913 
0.20330036489 0.2063844561 0.21030099969 0.21497662099 0.22027680655 0.22601309824 0.23195962104 0.23787603725 0.24353256822 
0.2487327556 0.25333065323 0.25724053229 0.26043853762 0.26295686883 0.2648719096 0.2662882761 0.26732102319 0.26807828036 
0.26864641968 0.26907946869 0.26939384377 0.26956865686 0.26955102354 0.26926517114 0.26862378543 0.26753989968 0.26593766526 
0.2637605508 0.26097591873 0.25757551309 0.25357208371 0.24899303632 0.24387248155 0.238243233 0.23213013639 0.22554566757 
0.21848817722 0.21094265717 0.20288356503 0.19427907506 0.18509606828 0.1753051864 0.16488534717 0.15382725693 0.14213563742 
0.12983006599 0.11694448141 0.1035255341 0.089630069961 0.075322129379 0.060669898429 0.045743046136 0.030610803835 0.015340991943 
8.9933651303e-16 
_area 1 100 double
0 0.00071038796082 0.0028024341105 0.0061669512362 0.010645772804 0.016057299119 0.022217422249 0.028950806424 0.036092802197 
0.0434850125 0.050967914806 0.058374508898 0.065529742658 0.072258801803 0.078402429737 0.083832871027 0.088463919566 0.092252845705 
0.095197085039 0.097330774164 0.098724045405 0.099482990951 0.099744147646 0.099658274516 0.099365860587 0.098976664403 0.098565763063 
0.098184999739 0.097877173374 0.097682383337 0.09763321671 0.097742328423 0.097991469727 0.098330380719 0.098692646258 0.099029021314 
0.099343380627 0.099703795286 0.10020646803 0.10091659909 0.10184710429 0.10298403651 0.10432166492 0.10589213389 0.10778885566 
0.11017474034 0.11326316898 0.11726497301 0.12231346544 0.12840327214 0.13537388125 0.14293761435 0.15072893665 0.15835581292 
0.16544672422 0.17169143978 0.17687210273 0.18088057594 0.1837205402 0.18549731334 0.18640170798 0.18669129556 0.18665427953 
0.18652615058 0.18640871651 0.18628632648 0.18608056241 0.18567581116 0.18492810484 0.18367620496 0.18176117389 0.17905198319 
0.17546951 0.17100052627 0.16569732255 0.15966443376 0.15303794754 0.14596368307 0.13857884124 0.13099909355 0.12331086789 
0.1155676349 0.10778957068 0.099967522403 0.092073023524 0.08407432293 0.075954629822 0.06772668585 0.059439772248 0.051179233241 
0.043060963245 0.035223314859 0.027818105339 0.021001828184 0.014927679856 0.0097385090917 0.0055605632911 0.0024980263388 0.00062854836495 
1.2197064321e-17 
