# vtk DataFile Version 5.1
vtk output
ASCII
DATASET POLYDATA
POINTS 100 float
0.142294 0.0378286 -0.803379 0.142121 0.0379468 -0.803307 0.14168 0.0381556 -0.803176 
0.141011 0.038434 -0.802874 0.140168 0.0387476 -0.802229 0.13922 0.0390495 -0.801027 
0.13823 0.0392815 -0.799033 0.137252 0.039377 -0.796024 0.136316 0.0392629 -0.791805 
0.13542 0.0388632 -0.786232 0.134524 0.0381024 -0.779226 0.133548 0.0369093 -0.770779 
0.132375 0.0352208 -0.760948 0.13086 0.032986 -0.749845 0.128836 0.0301694 -0.737624 
0.126133 0.0267544 -0.724456 0.12259 0.0227453 -0.710508 0.118072 0.0181684 -0.695928 
0.112483 0.0130729 -0.68082 0.105779 0.00752979 -0.665242 0.0979721 0.0016296 -0.649201 
0.0891353 -0.00452024 -0.632651 0.0793974 -0.0107996 -0.615512 0.0689356 -0.0170802 -0.597677 
0.0579625 -0.0232309 -0.579035 0.0467105 -0.0291229 -0.559481 0.035414 -0.034635 -0.538938 
0.0242917 -0.0396578 -0.517365 0.0135314 -0.0440983 -0.494761 0.0032762 -0.0478825 -0.471165 
-0.00638265 -0.0509572 -0.446656 -0.0154093 -0.0532916 -0.421334 -0.0238204 -0.0548763 -0.395317 
-0.0316776 -0.0557222 -0.368719 -0.0390749 -0.0558591 -0.341645 -0.0461234 -0.0553318 -0.314178 
-0.0529346 -0.0541983 -0.286376 -0.0596032 -0.0525254 -0.258269 -0.0661927 -0.050386 -0.229869 
-0.0727235 -0.047856 -0.201173 -0.0791665 -0.0450114 -0.172178 -0.0854418 -0.041926 -0.142891 
-0.091422 -0.0386701 -0.11334 -0.0969424 -0.0353085 -0.0835805 -0.101814 -0.0319003 -0.0537034 
-0.105838 -0.0284982 -0.0238303 -0.108827 -0.0251483 0.00589006 -0.110618 -0.0218904 0.035292 
-0.11109 -0.0187581 0.0642053 -0.110174 -0.0157793 0.0924691 -0.107861 -0.0129765 0.119946 
-0.1042 -0.0103677 0.146531 -0.0993003 -0.00796654 0.172165 -0.0933158 -0.00578351 0.19683 
-0.086438 -0.00382629 0.220554 -0.0788785 -0.00210079 0.243404 -0.0708532 -0.000611964 0.265472 
-0.0625665 0.000635391 0.286868 -0.0541977 0.00163585 0.307706 -0.0458902 0.00238281 0.328087 
-0.0377448 0.0028682 0.348096 -0.029818 0.0030825 0.367791 -0.0221237 0.00301516 0.387202 
-0.0146399 0.00265548 0.406331 -0.0073179 0.00199383 0.42516 -9.37444e-05 0.00102321 0.443654 
0.00709981 -0.000258958 0.46177 0.0143217 -0.00184903 0.479471 0.021613 -0.00373548 0.496726 
0.0289895 -0.00589758 0.513521 0.0364383 -0.00830462 0.529855 0.0439176 -0.0109159 0.545747 
0.0513598 -0.0136812 0.561223 0.0586774 -0.0165426 0.576317 0.0657721 -0.0194369 0.591061 
0.0725434 -0.0222979 0.60548 0.0788992 -0.0250608 0.619582 0.0847641 -0.0276647 0.633358 
0.0900869 -0.030057 0.646779 0.0948451 -0.0321959 0.659795 0.0990472 -0.0340525 0.672343 
0.102731 -0.0356129 0.684349 0.105961 -0.0368778 0.695736 0.10882 -0.0378621 0.706434 
0.111404 -0.0385927 0.71638 0.11381 -0.0391063 0.725532 0.116129 -0.0394453 0.733862 
0.11844 -0.0396548 0.741367 0.120798 -0.0397784 0.748062 0.123233 -0.0398552 0.753976 
0.125745 -0.0399172 0.759151 0.128308 -0.0399872 0.763636 0.130869 -0.0400788 0.767481 
0.133356 -0.0401961 0.770734 0.13568 -0.0403354 0.773436 0.137749 -0.0404871 0.775622 
0.139471 -0.0406385 0.777317 0.140765 -0.0407761 0.77854 0.141567 -0.0408885 0.7793 
0.141836 -0.0409685 0.779604 
LINES 2 100
OFFSETS vtktypeint64
0 100 
CONNECTIVITY vtktypeint64
0 1 2 3 4 5 6 7 8 
9 10 11 12 13 14 15 16 17 
18 19 20 21 22 23 24 25 26 
27 28 29 30 31 32 33 34 35 
36 37 38 39 40 41 42 43 44 
45 46 47 48 49 50 51 52 53 
54 55 56 57 58 59 60 61 62 
63 64 65 66 67 68 69 70 71 
72 73 74 75 76 77 78 79 80 
81 82 83 84 85 86 87 88 89 
90 91 92 93 94 95 96 97 98 
99 
POINT_DATA 100
FIELD FieldData 3
_theta 1 100 double
0 0.031733259127 0.063466518254 0.095199777382 0.12693303651 0.15866629564 0.19039955476 0.22213281389 0.25386607302 
0.28559933214 0.31733259127 0.3490658504 0.38079910953 0.41253236865 0.44426562778 0.47599888691 0.50773214603 0.53946540516 
0.57119866429 0.60293192342 0.63466518254 0.66639844167 0.6981317008 0.72986495992 0.76159821905 0.79333147818 0.82506473731 
0.85679799643 0.88853125556 0.92026451469 0.95199777382 0.98373103294 1.0154642921 1.0471975512 1.0789308103 1.1106640695 
1.1423973286 1.1741305877 1.2058638468 1.237597106 1.2693303651 1.3010636242 1.3327968833 1.3645301425 1.3962634016 
1.4279966607 1.4597299198 1.491463179 1.5231964381 1.5549296972 1.5866629564 1.6183962155 1.6501294746 1.6818627337 
1.7135959929 1.745329252 1.7770625111 1.8087957702 1.8405290294 1.8722622885 1.9039955476 1.9357288068 1.9674620659 
1.999195325 2.0309285841 2.0626618433 2.0943951024 2.1261283615 2.1578616206 2.1895948798 2.2213281389 2.253061398 
2.2847946572 2.3165279163 2.3482611754 2.3799944345 2.4117276937 2.4434609528 2.4751942119 2.506927471 2.5386607302 
2.5703939893 2.6021272484 2.6338605076 2.6655937667 2.6973270258 2.7290602849 2.7607935441 2.7925268032 2.8242600623 
2.8559933214 2.8877265806 2.9194598397 2.9511930988 2.982926358 3.0146596171 3.0463928762 3.0781261353 3.1098593945 
3.1415926536 
_radius 1 100 double
7.2377686124e-16 0.017511771487 0.034839347323 0.051813837413 0.06829454432 0.084174028923 0.099375222635 0.11384213162 0.12752767783 
0.14038302876 0.15235201463 0.16337220974 0.17338181464 0.18232958354 0.19018431677 0.1969409788 0.20262197883 0.20727400382 
0.21096236105 0.2137654411 0.21577131919 0.21707693373 0.21778857278 0.21802151282 0.21789702061 0.21753624155 0.21705200749 
0.21654056514 0.21607526289 0.2157034225 0.21544645262 0.21530237738 0.21524979911 0.21525285331 0.21526743409 0.21524921227 
0.21516341829 0.21499527031 0.21475890009 0.21450221969 0.21430565878 0.21427407726 0.21452314658 0.21516348135 0.21628683949 
0.21795795893 0.22021318846 0.22306430159 0.2265042011 0.23051117379 0.2350496596 0.24006751117 0.24549158472 0.25122441207 
0.25714436811 0.26311052399 0.26897189154 0.27457952842 0.27979927996 0.28452288999 0.28867572344 0.29222014418 0.2951543916 
0.2975074187 0.29933054718 0.30068700595 0.30164052501 0.3022442133 0.3025309569 0.30250649993 0.30214617962 0.3013959512 
0.30017779533 0.29839879223 0.29596221302 0.29277838189 0.28877326329 0.2838936937 0.27810935285 0.27141234558 0.26381539801 
0.25534931607 0.24605985478 0.23600380937 0.22524410479 0.21384391281 0.20186026132 0.1893380639 0.17630579611 0.16277398456 
0.14873718863 0.13417940676 0.11908211681 0.1034336588 0.087238419687 0.070524273301 0.053346995378 0.035790910605 0.017965710258 
3.6454461648e-16 
_area 1 100 double
0 0.00067484713583 0.002695551325 0.0060464547863 0.010689391785 0.016550628047 0.023509809332 0.031393869361 0.039977165512 
0.048988093761 0.058122058965 0.067060443058 0.075494616045 0.083152788523 0.089825744569 0.095385855304 0.099793270707 0.10308515386 
0.1053496616 0.10669538983 0.10723240924 0.10707373097 0.10635017344 0.10522385066 0.1038911548 0.10257366622 0.10149517886 
0.10084580245 0.1007508159 0.10123689165 0.10221265525 0.10354072179 0.10510306753 0.10681519213 0.10862073437 0.11048329794 
0.11238102659 0.11430487286 0.11625834346 0.11825650572 0.12032445666 0.1224974206 0.1248241256 0.12737201892 0.13022924515 
0.13349732666 0.13727154041 0.14161261786 0.14652766583 0.1519831737 0.15794114745 0.1643862299 0.17132298362 0.17874235023 
0.1865757523 0.1946654532 0.20276764885 0.21058198074 0.21779168225 0.22410278289 0.22927677641 0.23315509769 0.23567574391 
0.23688115197 0.23691100414 0.23596977437 0.23427759261 0.23204155089 0.22945219527 0.22667116005 0.2238004669 0.22084911452 
0.21771682478 0.21420950175 0.2100846883 0.20510786796 0.19909838292 0.19195488227 0.18366152347 0.17428155827 0.16394505941 
0.15283473955 0.14117062818 0.12919255992 0.11713938699 0.10522531817 0.093616739824 0.082416805125 0.071667017351 0.061369884084 
0.051524821701 0.042161430907 0.033357961637 0.02524218407 0.017978111006 0.011744207695 0.0067095281339 0.0030141482099 0.0007582420271 
6.9470017664e-17 
