# vtk DataFile Version 5.1
vtk output
ASCII
DATASET POLYDATA
POINTS 100 float
0.128611 -0.0433162 0.676359 0.128486 -0.0432436 0.676195 0.128064 -0.043164 0.675854 
0.127356 -0.0430668 0.675268 0.126388 -0.0429357 0.674327 0.12519 -0.0427507 0.672897 
0.1238 -0.0424906 0.670832 0.122261 -0.042135 0.667995 0.120613 -0.041667 0.664269 
0.118894 -0.0410741 0.659575 0.117132 -0.0403496 0.653875 0.115341 -0.039492 0.647183 
0.113514 -0.0385043 0.639558 0.111623 -0.0373927 0.631095 0.109616 -0.0361644 0.62192 
0.107418 -0.034826 0.612172 0.104936 -0.0333821 0.601985 0.102063 -0.0318343 0.59148 
0.0986922 -0.0301817 0.58075 0.0947245 -0.0284212 0.569852 0.0900806 -0.0265497 0.558805 
0.0847116 -0.0245669 0.547593 0.0786072 -0.0224774 0.53617 0.0718003 -0.0202939 0.52447 
0.0643669 -0.0180388 0.51242 0.0564216 -0.0157458 0.499949 0.0481076 -0.0134595 0.487003 
0.0395837 -0.0112337 0.473551 0.0310079 -0.0091288 0.459589 0.022521 -0.00720764 0.445139 
0.0142309 -0.00553051 0.430247 0.00620031 -0.00415016 0.414974 -0.0015597 -0.003107 0.399386 
-0.00909106 -0.00242521 0.383542 -0.0164823 -0.0021103 0.367484 -0.0238563 -0.00214837 0.351226 
-0.031352 -0.00250744 0.334752 -0.0391036 -0.0031406 0.318011 -0.0472179 -0.00399084 0.300922 
-0.0557532 -0.00499704 0.283376 -0.0647032 -0.00610055 0.265256 -0.0739865 -0.00725152 0.246437 
-0.0834442 -0.00841447 0.22681 -0.0928461 -0.0095723 0.206288 -0.101906 -0.0107284 0.184818 
-0.110301 -0.0119062 0.162389 -0.1177 -0.013147 0.139036 -0.123793 -0.0145052 0.114834 
-0.128313 -0.016042 0.0899004 -0.131066 -0.0178182 0.0643807 -0.131943 -0.0198866 0.03844 
-0.130932 -0.0222846 0.0122504 -0.128112 -0.0250286 -0.0140204 -0.123651 -0.0281094 -0.0402198 
-0.117779 -0.0314901 -0.0662183 -0.110773 -0.0351062 -0.0919147 -0.102924 -0.0388682 -0.117238 
-0.0945157 -0.0426661 -0.142144 -0.0857942 -0.0463751 -0.166615 -0.0769548 -0.0498631 -0.190649 
-0.0681279 -0.0529978 -0.214255 -0.0593764 -0.0556538 -0.237443 -0.0506999 -0.0577192 -0.26022 
-0.0420467 -0.0591004 -0.28258 -0.0333306 -0.0597258 -0.304504 -0.0244509 -0.0595472 -0.325957 
-0.0153128 -0.0585408 -0.34689 -0.00584517 -0.0567052 -0.367238 0.00398513 -0.0540597 -0.386933 
0.0141653 -0.0506412 -0.4059 0.0246348 -0.0465008 -0.424069 0.0352895 -0.041701 -0.441376 
0.045992 -0.036312 -0.457775 0.0565848 -0.03041 -0.473232 0.0669061 -0.0240753 -0.487737 
0.0768054 -0.0173903 -0.5013 0.0861568 -0.0104396 -0.513951 0.0948691 -0.00330892 -0.52574 
0.102891 0.00391531 -0.536735 0.110212 0.0111464 -0.547018 0.116859 0.0182984 -0.556679 
0.122887 0.0252871 -0.565812 0.128371 0.0320319 -0.574511 0.133395 0.0384574 -0.582866 
0.138039 0.044496 -0.590954 0.142374 0.0500897 -0.598836 0.146452 0.0551927 -0.606555 
0.150308 0.0597725 -0.614131 0.153953 0.0638116 -0.621558 0.157383 0.0673073 -0.628806 
0.16058 0.0702718 -0.63582 0.163518 0.0727307 -0.64252 0.166168 0.0747207 -0.648812 
0.168504 0.0762869 -0.654585 0.170503 0.0774794 -0.659725 0.172151 0.0783495 -0.664117 
0.173436 0.0789459 -0.667654 0.174356 0.0793113 -0.670244 0.174908 0.079479 -0.671819 
0.175093 0.0794707 -0.672334 
LINES 2 100
OFFSETS vtktypeint64
0 100 
CONNECTIVITY vtktypeint64
0 1 2 3 4 5 6 7 8 
9 10 11 12 13 14 15 16 17 
18 19 20 21 22 23 24 25 26 
27 28 29 30 31 32 33 34 35 
36 37 38 39 40 41 42 43 44 
45 46 47 48 49 50 51 52 53 
54 55 56 57 58 59 60 61 62 
63 64 65 66 67 68 69 70 71 
72 73 74 75 76 77 78 79 80 
81 82 83 84 85 86 87 88 89 
90 91 92 93 94 95 96 97 98 
99 
POINT_DATA 100
FIELD FieldData 3
_theta 1 100 double
0 0.031733259127 0.063466518254 0.095199777382 0.12693303651 0.15866629564 0.19039955476 0.22213281389 0.25386607302 
0.28559933214 0.31733259127 0.3490658504 0.38079910953 0.41253236865 0.44426562778 0.47599888691 0.50773214603 0.53946540516 
0.57119866429 0.60293192342 0.63466518254 0.66639844167 0.6981317008 0.72986495992 0.76159821905 0.79333147818 0.82506473731 
0.85679799643 0.88853125556 0.92026451469 0.95199777382 0.98373103294 1.0154642921 1.0471975512 1.0789308103 1.1106640695 
1.1423973286 1.1741305877 1.2058638468 1.237597106 1.2693303651 1.3010636242 1.3327968833 1.3645301425 1.3962634016 
1.4279966607 1.4597299198 1.491463179 1.5231964381 1.5549296972 1.5866629564 1.6183962155 1.6501294746 1.6818627337 
1.7135959929 1.745329252 1.7770625111 1.8087957702 1.8405290294 1.8722622885 1.9039955476 1.9357288068 1.9674620659 
1.999195325 2.0309285841 2.0626618433 2.0943951024 2.1261283615 2.1578616206 2.1895948798 2.2213281389 2.253061398 
2.2847946572 2.3165279163 2.3482611754 2.3799944345 2.4117276937 2.4434609528 2.4751942119 2.506927471 2.5386607302 
2.5703939893 2.6021272484 2.6338605076 2.6655937667 2.6973270258 2.7290602849 2.7607935441 2.7925268032 2.8242600623 
2.8559933214 2.8877265806 2.9194598397 2.9511930988 2.982926358 3.0146596171 3.0463928762 3.0781261353 3.1098593945 
3.1415926536 
_radius 1 100 double
1.115091261e-15 0.01523622753 0.030305921387 0.045061242198 0.059379138939 0.073169518652 0.086379053798 0.098990035318 0.11101438658 
0.12248375419 0.13343734781 0.1439097055 0.15392060768 0.16346886646 0.17253080936 0.18106327443 0.18901017282 0.1963113235 
0.20291226649 0.20877391995 0.2138810767 0.21824875579 0.22192537962 0.2249917779 0.22755530109 0.22973898565 0.23166672989 
0.23344655545 0.23515480466 0.23682417432 0.23843775742 0.23993006338 0.24119473791 0.24209771064 0.24249388289 0.24224521902 
0.2412381461 0.23939841484 0.2367019658 0.23318081745 0.22892346966 0.22406973426 0.21880027849 0.21332160689 0.2078478339 
0.20258138204 0.19769541623 0.19332098688 0.18954117938 0.18639300211 0.18387561867 0.1819615952 0.18060709861 0.17975814366 
0.17935269813 0.17932112466 0.17958819735 0.18007832489 0.18072312042 0.18146890907 0.18228169644 0.18314805123 0.18407173724 
0.18506724744 0.18615205316 0.18733922972 0.18863160227 0.19001804348 0.19147202839 0.1929520152 0.19440288956 0.19575775811 
0.19693973274 0.19786376164 0.19843880411 0.19857062657 0.19816527701 0.19713301613 0.19539228396 0.19287324303 0.18952056239 
0.18529531774 0.18017608078 0.17415937062 0.16725961274 0.15950862888 0.15095454321 0.14165992205 0.13169901712 0.12115414806 
0.11011147839 0.098656624807 0.086870624167 0.074826735053 0.062588391316 0.050208408409 0.037729340083 0.025184747148 0.012601092115 
7.5781898086e-16 
_area 1 100 double
0 0.00064154930752 0.0025336972769 0.0055831801056 0.0096479816313 0.014555184541 0.020121883816 0.026176040779 0.032574213207 
0.03921332726 0.046033975422 0.053013585782 0.060150136897 0.067440856188 0.074862935635 0.082361766303 0.08984783531 0.097200530156 
0.10427723618 0.11092734266 0.11701091567 0.12242033427 0.12710101701 0.13106583121 0.13439787911 0.13723858927 0.13976235587 
0.14214397191 0.14452769462 0.14700460832 0.14959936415 0.15226164632 0.15485551901 0.15715146775 0.15884888042 0.15963829553 
0.15926724227 0.15758282295 0.15455104469 0.15025797043 0.14489687299 0.13874628033 0.13214260594 0.12544712554 0.11900571552 
0.11310446245 0.10793062552 0.10355066962 0.099914134595 0.096885173495 0.094293044434 0.091983387169 0.089853197793 0.087863387095 
0.08603316264 0.084423624151 0.083110969659 0.082141420811 0.081490608535 0.081085572085 0.080864051565 0.080801176389 0.080902063684 
0.081185545432 0.081672161718 0.08237911194 0.083320970799 0.08451516471 0.085992801541 0.087794658762 0.089877754938 0.092147748708 
0.09445861208 0.096623542241 0.09845726655 0.099780799479 0.10043057666 0.10026948042 0.099198025221 0.097163227863 0.094162656606 
0.090242401114 0.085489405464 0.08002012443 0.073968297648 0.067474526251 0.060679401162 0.053720478514 0.04673184983 0.039844219758 
0.0331839887 0.026871324823 0.021018161498 0.01572677881 0.011088785566 0.0071839383502 0.0040786283789 0.0018245044995 0.00045786934392 
3.1652131005e-17 
