# vtk DataFile Version 5.1
vtk output
ASCII
DATASET POLYDATA
POINTS 100 float
0.239332 0.0883022 -0.714889 0.239109 0.0884421 -0.714726 0.238539 0.088713 -0.714292 
0.237578 0.0890573 -0.713524 0.23616 0.0893853 -0.712323 0.234205 0.0895836 -0.710571 
0.231627 0.0895269 -0.708138 0.228347 0.0890898 -0.704905 0.2243 0.0881583 -0.700775 
0.219443 0.0866399 -0.695682 0.213762 0.0844704 -0.689603 0.207268 0.081618 -0.682552 
0.199998 0.0780829 -0.674586 0.192005 0.0738948 -0.665786 0.183355 0.0691067 -0.656251 
0.174117 0.0637873 -0.646082 0.164355 0.0580133 -0.635365 0.154123 0.0518618 -0.624162 
0.143464 0.0454042 -0.612498 0.132408 0.0387032 -0.60036 0.120976 0.0318112 -0.587694 
0.109189 0.0247727 -0.574412 0.0970678 0.0176277 -0.560404 0.0846477 0.0104173 -0.545551 
0.0719787 0.0031895 -0.529736 0.059131 -0.00399579 -0.512866 0.046195 -0.011063 -0.494877 
0.0332774 -0.0179194 -0.475746 0.0204961 -0.0244567 -0.455492 0.00797082 -0.030555 -0.434179 
-0.00418586 -0.0360891 -0.411904 -0.0158776 -0.0409373 -0.38879 -0.0270314 -0.0449898 -0.364971 
-0.0376018 -0.0481583 -0.340578 -0.0475708 -0.050383 -0.31573 -0.0569438 -0.0516386 -0.290518 
-0.0657418 -0.0519366 -0.265002 -0.0739902 -0.051325 -0.239211 -0.0817073 -0.0498851 -0.213143 
-0.0888918 -0.0477247 -0.186776 -0.0955133 -0.0449708 -0.160081 -0.101507 -0.04176 -0.133031 
-0.106771 -0.0382298 -0.105615 -0.111175 -0.03451 -0.0778546 -0.114564 -0.0307163 -0.0498058 
-0.11678 -0.0269461 -0.0215664 -0.117673 -0.0232758 0.00672636 -0.117124 -0.0197622 0.0349029 
-0.115057 -0.0164437 0.0627718 -0.111457 -0.0133448 0.0901343 -0.106373 -0.0104803 0.1168 
-0.0999254 -0.00785966 0.142603 -0.0922922 -0.00549098 0.167415 -0.0837038 -0.00338373 0.191154 
-0.074422 -0.00155019 0.213795 -0.0647208 -5.53284e-06 0.235361 -0.0548642 0.00123337 0.255927 
-0.0450862 0.00214995 0.275606 -0.0355744 0.0027304 0.294534 -0.0264592 0.00296603 0.312861 
-0.0178091 0.00285525 0.330729 -0.00963368 0.00240468 0.348266 -0.00189177 0.00162944 0.365567 
0.00549457 0.000552435 0.382695 0.0126236 -0.000797044 0.399677 0.0195967 -0.00238522 0.416502 
0.0265022 -0.00417584 0.433134 0.0334027 -0.00613206 0.449519 0.0403278 -0.00821779 0.465594 
0.0472712 -0.0103985 0.481301 0.0541938 -0.0126414 0.496594 0.0610313 -0.0149151 0.511448 
0.0677049 -0.0171888 0.525861 0.0741333 -0.019432 0.539855 0.0802443 -0.021614 0.553469 
0.0859842 -0.0237039 0.566755 0.0913235 -0.025672 0.579763 0.0962583 -0.0274914 0.592536 
0.100808 -0.0291399 0.605095 0.105009 -0.0306028 0.617433 0.108903 -0.0318754 0.629509 
0.112533 -0.0329644 0.641247 0.115927 -0.0338892 0.652538 0.119098 -0.0346812 0.663248 
0.122033 -0.035382 0.673229 0.124701 -0.03604 0.68233 0.127053 -0.0367059 0.690413 
0.129033 -0.0374272 0.69737 0.130587 -0.0382432 0.703131 0.131673 -0.0391795 0.707674 
0.132277 -0.0402445 0.711034 0.13241 -0.0414269 0.713299 0.132125 -0.0426962 0.714607 
0.131502 -0.0440041 0.715137 0.130654 -0.045289 0.715095 0.129707 -0.0464817 0.714696 
0.128795 -0.0475124 0.714148 0.128041 -0.0483178 0.713636 0.127543 -0.0488474 0.713301 
0.127365 -0.0490694 0.713234 
LINES 2 100
OFFSETS vtktypeint64
0 100 
CONNECTIVITY vtktypeint64
0 1 2 3 4 5 6 7 8 
9 10 11 12 13 14 15 16 17 
18 19 20 21 22 23 24 25 26 
27 28 29 30 31 32 33 34 35 
36 37 38 39 40 41 42 43 44 
45 46 47 48 49 50 51 52 53 
54 55 56 57 58 59 60 61 62 
63 64 65 66 67 68 69 70 71 
72 73 74 75 76 77 78 79 80 
81 82 83 84 85 86 87 88 89 
90 91 92 93 94 95 96 97 98 
99 
POINT_DATA 100
FIELD FieldData 3
_theta 1 100 double
0 0.031733259127 0.063466518254 0.095199777382 0.12693303651 0.15866629564 0.19039955476 0.22213281389 0.25386607302 
0.28559933214 0.31733259127 0.3490658504 0.38079910953 0.41253236865 0.44426562778 0.47599888691 0.50773214603 0.53946540516 
0.57119866429 0.60293192342 0.63466518254 0.66639844167 0.6981317008 0.72986495992 0.76159821905 0.79333147818 0.82506473731 
0.85679799643 0.88853125556 0.92026451469 0.95199777382 0.98373103294 1.0154642921 1.0471975512 1.0789308103 1.1106640695 
1.1423973286 1.1741305877 1.2058638468 1.237597106 1.2693303651 1.3010636242 1.3327968833 1.3645301425 1.3962634016 
1.4279966607 1.4597299198 1.491463179 1.5231964381 1.5549296972 1.5866629564 1.6183962155 1.6501294746 1.6818627337 
1.7135959929 1.745329252 1.7770625111 1.8087957702 1.8405290294 1.8722622885 1.9039955476 1.9357288068 1.9674620659 
1.999195325 2.0309285841 2.0626618433 2.0943951024 2.1261283615 2.1578616206 2.1895948798 2.2213281389 2.253061398 
2.2847946572 2.3165279163 2.3482611754 2.3799944345 2.4117276937 2.4434609528 2.4751942119 2.506927471 2.5386607302 
2.5703939893 2.6021272484 2.6338605076 2.6655937667 2.6973270258 2.7290602849 2.7607935441 2.7925268032 2.8242600623 
2.8559933214 2.8877265806 2.9194598397 2.9511930988 2.982926358 3.0146596171 3.0463928762 3.0781261353 3.1098593945 
3.1415926536 
_radius 1 100 double
1.5803626014e-15 0.016639037804 0.03309578567 0.049193519514 0.064770635738 0.079687476775 0.093831459399 0.10711944503 0.11949658623 
0.13093158794 0.1414092349 0.15092184484 0.15946169631 0.16701627527 0.17356744347 0.17909462444 0.18358116743 0.18702243863 
0.18943399183 0.19085833456 0.19136919714 0.19107268196 0.19010509849 0.18862761238 0.18681805825 0.18486045045 0.18293297648 
0.18119561825 0.17977889979 0.17877531999 0.17823457809 0.17816289466 0.17852603461 0.17925538251 0.18025654815 0.18142022308 
0.18263506257 0.18380193313 0.1848478807 0.18573713918 0.18647623529 0.18711126182 0.18771756496 0.18838472892 0.18920166786 
0.19024660263 0.19158430284 0.19326928733 0.19535068601 0.19787377506 0.20087521378 0.20437279401 0.20835397167 0.21276836733 
0.21752734837 0.22251063096 0.22757778645 0.23258212536 0.23738481191 0.24186736929 0.24594075913 0.24954938595 0.25266929054 
0.25530143273 0.25746243084 0.25917546438 0.2604631588 0.26134293399 0.26182437378 0.26190795829 0.26158474279 0.26083686966 
0.25963892405 0.25796005638 0.25576659291 0.25302468362 0.24970250841 0.24577171931 0.24120808498 0.23599159902 0.23010647461 
0.22354138994 0.21629009369 0.20835214844 0.19973334578 0.19044529882 0.18050394218 0.16992707985 0.15873157249 0.1469310768 
0.13453529261 0.12155137294 0.10798756757 0.093858489952 0.079190872939 0.064028502877 0.04843522612 0.032495383869 0.016311562511 
1.2572431802e-15 
_area 1 100 double
0 0.00054886582525 0.0021987567788 0.0049525060859 0.0087947178246 0.013671578495 0.019477173184 0.026051596193 0.033190750389 
0.040663541851 0.048230685647 0.05566030694 0.062737870144 0.069270597917 0.075088631872 0.080046156538 0.084025238691 0.086943416271 
0.088763888953 0.089505505195 0.089249311947 0.088139667852 0.086382297392 0.084258722902 0.082131912297 0.080189807356 0.078517230762 
0.077270813621 0.076536052485 0.07637283898 0.076811448866 0.077840549636 0.079401762071 0.081390779437 0.083670515491 0.08609478928 
0.088535575073 0.090905332229 0.093171901746 0.095348895036 0.097498283952 0.099661982491 0.1017927944 0.10389455587 0.10591658765 
0.10777867093 0.10942192489 0.11085692488 0.11219114397 0.11363898992 0.11552199587 0.11821476136 0.12195288559 0.12675815624 
0.13250416049 0.13893175573 0.1456851447 0.15235857609 0.15855436503 0.16394118048 0.16829729176 0.17153283538 0.17369562633 
0.17517159789 0.17697964872 0.17848472101 0.1794833455 0.17989270342 0.17966004797 0.17876042952 0.17719573901 0.17499692872 
0.17222213359 0.16894782606 0.1652526566 0.16119667535 0.15680253084 0.15204691304 0.146866642 0.14117682204 0.13489404769 
0.12795804487 0.12034783637 0.11209072747 0.10326362782 0.093987101521 0.084413537848 0.074711957065 0.065052837885 0.055596447388 
0.046487122989 0.037853970667 0.029816252446 0.022490286391 0.015994532854 0.010450538903 0.0059789227619 0.0026910257011 0.00067801312071 
3.4748469508e-17 
