# vtk DataFile Version 5.1
vtk output
ASCII
DATASET POLYDATA
POINTS 100 float
0.0997076 0.00615535 0.629689 0.0996996 0.00618399 0.629652 0.0996286 0.00617122 0.629655 
0.0994867 0.00613323 0.629661 0.0992626 0.00609265 0.629609 0.0989434 0.00607387 0.629416 
0.0985174 0.00609772 0.628983 0.0979761 0.00617614 0.628198 0.0973158 0.00630807 0.626943 
0.0965385 0.00647693 0.625096 0.0956507 0.00665051 0.622546 0.094662 0.00678327 0.619192 
0.0935815 0.00682083 0.614952 0.0924142 0.00670634 0.609772 0.0911569 0.00638771 0.603625 
0.089795 0.00582488 0.596516 0.0882995 0.00499605 0.588482 0.0866266 0.00390216 0.579588 
0.0847185 0.00256877 0.569926 0.0825072 0.0010451 0.559605 0.0799191 -0.000599644 0.548747 
0.0768825 -0.00228237 0.537475 0.0733346 -0.00391388 0.525908 0.0692298 -0.00540729 0.51415 
0.064546 -0.0066863 0.502284 0.0592896 -0.00769205 0.490372 0.0534983 -0.00838805 0.478445 
0.0472398 -0.00876253 0.46651 0.0406088 -0.00882811 0.454547 0.0337198 -0.00861893 0.442515 
0.0266981 -0.00818585 0.430357 0.0196694 -0.00759039 0.418006 0.0127482 -0.00689831 0.405387 
0.00602841 -0.00617368 0.392427 -0.000425506 -0.00547423 0.379055 -0.00658358 -0.00484838 0.365206 
-0.012452 -0.00433421 0.350823 -0.0180708 -0.00396029 0.335856 -0.0235076 -0.00374791 0.320264 
-0.0288484 -0.00371409 0.30401 -0.0341853 -0.00387476 0.287067 -0.0396039 -0.00424727 0.269411 
-0.0451705 -0.00485172 0.251028 -0.0509207 -0.00571081 0.231909 -0.0568514 -0.00684798 0.212058 
-0.0629161 -0.00828424 0.191489 -0.0690245 -0.0100341 0.170231 -0.0750472 -0.0121013 0.148328 
-0.0808232 -0.0144748 0.125841 -0.0861721 -0.0171267 0.102842 -0.0909069 -0.0200111 0.0794209 
-0.0948486 -0.0230659 0.0556715 -0.0978396 -0.0262158 0.0316934 -0.0997549 -0.0293782 0.00758368 
-0.100511 -0.0324686 -0.0165674 -0.100068 -0.0354082 -0.0406817 -0.0984326 -0.0381291 -0.0646957 
-0.0956527 -0.0405793 -0.0885627 -0.091809 -0.0427243 -0.112251 -0.0870061 -0.0445476 -0.135742 
-0.0813607 -0.0460473 -0.159026 -0.0749901 -0.0472311 -0.182093 -0.0680027 -0.04811 -0.204931 
-0.0604897 -0.0486912 -0.227519 -0.0525209 -0.0489716 -0.249821 -0.0441438 -0.048933 -0.271785 
-0.0353864 -0.0485403 -0.293342 -0.0262624 -0.0477416 -0.314412 -0.0167799 -0.0464732 -0.334907 
-0.00694998 -0.0446656 -0.354736 0.00320368 -0.0422532 -0.373818 0.0136372 -0.039184 -0.392088 
0.0242805 -0.0354293 -0.4095 0.0350352 -0.030992 -0.426036 0.045775 -0.0259118 -0.441705 
0.0563503 -0.0202665 -0.456544 0.0665962 -0.01417 -0.470606 0.0763415 -0.00776522 -0.48396 
0.0854212 -0.00121434 -0.496676 0.0936872 0.00531349 -0.508816 0.101019 0.0116556 -0.520424 
0.107334 0.0176684 -0.53152 0.11259 0.0232382 -0.542091 0.116789 0.0282886 -0.552097 
0.119977 0.0327839 -0.561469 0.122238 0.0367279 -0.570121 0.123686 0.0401585 -0.577956 
0.124455 0.043139 -0.584886 0.12469 0.045747 -0.590836 0.124535 0.0480627 -0.595766 
0.124124 0.0501574 -0.599671 0.123573 0.0520848 -0.602593 0.122977 0.0538749 -0.604619 
0.122404 0.0555317 -0.605874 0.121903 0.0570354 -0.606514 0.121496 0.0583475 -0.606711 
0.121195 0.0594187 -0.606638 0.120998 0.060198 -0.606451 0.120898 0.0606414 -0.606276 
0.12089 0.0607203 -0.606191 
LINES 2 100
OFFSETS vtktypeint64
0 100 
CONNECTIVITY vtktypeint64
0 1 2 3 4 5 6 7 8 
9 10 11 12 13 14 15 16 17 
18 19 20 21 22 23 24 25 26 
27 28 29 30 31 32 33 34 35 
36 37 38 39 40 41 42 43 44 
45 46 47 48 49 50 51 52 53 
54 55 56 57 58 59 60 61 62 
63 64 65 66 67 68 69 70 71 
72 73 74 75 76 77 78 79 80 
81 82 83 84 85 86 87 88 89 
90 91 92 93 94 95 96 97 98 
99 
POINT_DATA 100
FIELD FieldData 3
_theta 1 100 double
0 0.031733259127 0.063466518254 0.095199777382 0.12693303651 0.15866629564 0.19039955476 0.22213281389 0.25386607302 
0.28559933214 0.31733259127 0.3490658504 0.38079910953 0.41253236865 0.44426562778 0.47599888691 0.50773214603 0.53946540516 
0.57119866429 0.60293192342 0.63466518254 0.66639844167 0.6981317008 0.72986495992 0.76159821905 0.79333147818 0.82506473731 
0.85679799643 0.88853125556 0.92026451469 0.95199777382 0.98373103294 1.0154642921 1.0471975512 1.0789308103 1.1106640695 
1.1423973286 1.1741305877 1.2058638468 1.237597106 1.2693303651 1.3010636242 1.3327968833 1.3645301425 1.3962634016 
1.4279966607 1.4597299198 1.491463179 1.5231964381 1.5549296972 1.5866629564 1.6183962155 1.6501294746 1.6818627337 
1.7135959929 1.745329252 1.7770625111 1.8087957702 1.8405290294 1.8722622885 1.9039955476 1.9357288068 1.9674620659 
1.999195325 2.0309285841 2.0626618433 2.0943951024 2.1261283615 2.1578616206 2.1895948798 2.2213281389 2.253061398 
2.2847946572 2.3165279163 2.3482611754 2.3799944345 2.4117276937 2.4434609528 2.4751942119 2.506927471 2.5386607302 
2.5703939893 2.6021272484 2.6338605076 2.6655937667 2.6973270258 2.7290602849 2.7607935441 2.7925268032 2.8242600623 
2.8559933214 2.8877265806 2.9194598397 2.9511930988 2.982926358 3.0146596171 3.0463928762 3.0781261353 3.1098593945 
3.1415926536 
_radius 1 100 double
1.2325671131e-15 0.013448283492 0.026991532285 0.040708310663 0.054640478728 0.068780698106 0.083066399667 0.097381273652 0.11156435465 
0.12542566572 0.13876636132 0.15140057514 0.16317588709 0.17398953221 0.18379813872 0.19261976867 0.20052815242 0.20764006291 
0.21409762189 0.22004790989 0.22562257169 0.23092018041 0.23599389861 0.24084636572 0.24543270708 0.24967120864 0.25345980348 
0.25669542134 0.25929275149 0.26119919312 0.26240365246 0.26293815791 0.26287264923 0.26230439562 0.26134409183 0.26010078212 
0.25866754147 0.25710951507 0.25545564604 0.25369524223 0.25178029483 0.24963393337 0.24716452374 0.24428387937 0.24092713687 
0.23707123043 0.23274870229 0.22805392025 0.22313971002 0.21820389672 0.21346708919 0.20914493073 0.20541959999 0.20241609245 
0.20018818133 0.19871663149 0.19791877322 0.19766548432 0.19780053814 0.1981584662 0.19857946248 0.19892183549 0.19907303472 
0.19895941109 0.19855363367 0.19787810208 0.19700296002 0.19603798743 0.19511841404 0.19438560455 0.19396464824 0.19394192836 
0.19434638276 0.19513798591 0.19620578769 0.19737595577 0.19842836631 0.19911891321 0.19920404347 0.19846401791 0.19672189901 
0.19385611776 0.18980551196 0.18456682848 0.17818573117 0.17074324353 0.1623401503 0.15308204902 0.143067396 0.13238007507 
0.12108694169 0.10923975933 0.09688020786 0.084046319543 0.070778770917 0.057125837101 0.04314635532 0.028910563296 0.014499023677 
2.7563845638e-16 
_area 1 100 double
0 0.00045470896975 0.0018334395971 0.0041757978859 0.0075342245836 0.011955453569 0.017458743896 0.024015541409 0.031535824962 
0.03986544055 0.04879617103 0.058086663106 0.067488791223 0.076772537152 0.085744880659 0.094263126058 0.1022450275 0.10967492795 
0.11660244009 0.12313203672 0.12940514684 0.13557657781 0.14178467134 0.14811488736 0.15456454786 0.1610270753 0.16731105574 
0.17319020379 0.17846486304 0.1830126795 0.18680771347 0.18989758459 0.19235434261 0.19423218835 0.19554803968 0.1962804613 
0.19638090604 0.19579156136 0.19446304251 0.19236745291 0.18950545925 0.18590674692 0.18162268711 0.17671317928 0.17123816528 
0.16526644951 0.15889952874 0.15229321248 0.1456615275 0.13925788661 0.13333881271 0.12812147646 0.1237451277 0.12024368601 
0.11754062395 0.11547605744 0.11384887194 0.11243327565 0.11098293432 0.10928328162 0.10720972629 0.10474107586 0.10194451706 
0.098949386057 0.095916264651 0.093008582049 0.090374063515 0.088136083106 0.086390123753 0.085202570663 0.084610702646 0.084622690765 
0.085216337187 0.086335572157 0.087884875616 0.089721464154 0.091645604441 0.093400587384 0.094697540609 0.095256803901 0.094845826504 
0.093305154346 0.090561923843 0.0866312413 0.081606734211 0.07564325221 0.068935862163 0.061699402912 0.054152017529 0.046504432353 
0.038954728477 0.03168670396 0.024869305724 0.018655209082 0.013178127648 0.0085500597033 0.0048602513665 0.0021763982382 0.00054657187401 
1.4772228182e-17 
