# vtk DataFile Version 5.1
vtk output
ASCII
DATASET POLYDATA
POINTS 100 float
0.207014 0.0523023 -0.659714 0.206794 0.0523412 -0.659566 0.206147 0.0523463 -0.659192 
0.205047 0.0523137 -0.658535 0.203457 0.0522348 -0.657501 0.201333 0.0520946 -0.655976 
0.198629 0.05187 -0.653835 0.195306 0.0515289 -0.650954 0.191336 0.0510294 -0.647226 
0.186704 0.0503205 -0.642568 0.181417 0.0493443 -0.636931 0.175494 0.0480389 -0.630306 
0.168973 0.0463427 -0.622716 0.161901 0.0441995 -0.614222 0.15433 0.0415633 -0.604906 
0.146316 0.0384036 -0.594867 0.137909 0.034709 -0.584203 0.129154 0.0304899 -0.573009 
0.120087 0.0257793 -0.56136 0.110739 0.0206323 -0.549305 0.101137 0.0151233 -0.536868 
0.0913089 0.00934236 -0.524044 0.0812844 0.00339023 -0.510802 0.0711021 -0.00262696 -0.497095 
0.0608105 -0.00860288 -0.482866 0.0504679 -0.0144356 -0.468058 0.0401413 -0.0200311 -0.452622 
0.0299012 -0.0253062 -0.436526 0.0198165 -0.0301892 -0.419758 0.009947 -0.0346206 -0.40233 
0.000336794 -0.0385523 -0.384271 -0.00899115 -0.0419468 -0.365631 -0.0180381 -0.044776 -0.346466 
-0.0268293 -0.0470208 -0.326835 -0.03541 -0.0486708 -0.306789 -0.0438379 -0.0497246 -0.286364 
-0.0521724 -0.0501913 -0.265576 -0.0604618 -0.050091 -0.244421 -0.0687302 -0.0494562 -0.22287 
-0.0769658 -0.0483326 -0.20088 -0.0851112 -0.0467784 -0.178397 -0.0930592 -0.0448634 -0.155368 
-0.100653 -0.0426659 -0.131752 -0.107695 -0.0402689 -0.107527 -0.113953 -0.037756 -0.0827054 
-0.119185 -0.0352056 -0.0573348 -0.123152 -0.0326863 -0.0315047 -0.125644 -0.0302527 -0.00534452 
-0.126496 -0.027943 0.0209814 -0.125607 -0.0257773 0.0472826 -0.122951 -0.0237593 0.073354 
-0.118581 -0.0218792 0.0989896 -0.112627 -0.020118 0.123997 -0.105287 -0.0184538 0.148208 
-0.0968126 -0.0168676 0.171496 -0.0874873 -0.015349 0.193776 -0.0776056 -0.0139006 0.215013 
-0.0674501 -0.0125402 0.235221 -0.0572718 -0.0113006 0.25446 -0.0472737 -0.0102274 0.272824 
-0.0376002 -0.00937341 0.290435 -0.0283339 -0.00879252 0.307427 -0.019497 -0.00853161 0.323937 
-0.0110605 -0.00862307 0.34009 -0.00295627 -0.00907819 0.355994 0.00490691 -0.00988268 0.371729 
0.0126274 -0.0109949 0.387346 0.0202952 -0.0123472 0.402867 0.0279796 -0.0138506 0.418284 
0.0357205 -0.015402 0.433572 0.0435243 -0.0168934 0.448686 0.0513647 -0.0182223 0.463576 
0.059187 -0.0193017 0.47819 0.0669163 -0.0200682 0.492481 0.0744662 -0.0204885 0.50641 
0.0817492 -0.0205619 0.519948 0.0886854 -0.0203196 0.533076 0.0952089 -0.0198199 0.545784 
0.101273 -0.0191413 0.558065 0.10685 -0.0183729 0.569913 0.111931 -0.0176039 0.581316 
0.116523 -0.0169135 0.592255 0.120643 -0.0163626 0.602701 0.124312 -0.0159877 0.612616 
0.127554 -0.0157984 0.62195 0.13039 -0.0157781 0.630653 0.132837 -0.0158882 0.638669 
0.134908 -0.016075 0.645951 0.136617 -0.0162782 0.652461 0.137977 -0.0164398 0.658179 
0.139005 -0.0165128 0.663103 0.139729 -0.0164672 0.667253 0.140182 -0.0162946 0.670669 
0.140409 -0.0160085 0.673413 0.140461 -0.0156421 0.675555 0.140394 -0.0152429 0.677177 
0.140264 -0.014866 0.678358 0.140123 -0.0145653 0.679168 0.140011 -0.0143863 0.679663 
0.139954 -0.0143589 0.679879 
LINES 2 100
OFFSETS vtktypeint64
0 100 
CONNECTIVITY vtktypeint64
0 1 2 3 4 5 6 7 8 
9 10 11 12 13 14 15 16 17 
18 19 20 21 22 23 24 25 26 
27 28 29 30 31 32 33 34 35 
36 37 38 39 40 41 42 43 44 
45 46 47 48 49 50 51 52 53 
54 55 56 57 58 59 60 61 62 
63 64 65 66 67 68 69 70 71 
72 73 74 75 76 77 78 79 80 
81 82 83 84 85 86 87 88 89 
90 91 92 93 94 95 96 97 98 
99 
POINT_DATA 100
FIELD FieldData 3
_theta 1 100 double
0 0.031733259127 0.063466518254 0.095199777382 0.12693303651 0.15866629564 0.19039955476 0.22213281389 0.25386607302 
0.28559933214 0.31733259127 0.3490658504 0.38079910953 0.41253236865 0.44426562778 0.47599888691 0.50773214603 0.53946540516 
0.57119866429 0.60293192342 0.63466518254 0.66639844167 0.6981317008 0.72986495992 0.76159821905 0.79333147818 0.82506473731 
0.85679799643 0.88853125556 0.92026451469 0.95199777382 0.98373103294 1.0154642921 1.0471975512 1.0789308103 1.1106640695 
1.1423973286 1.1741305877 1.2058638468 1.237597106 1.2693303651 1.3010636242 1.3327968833 1.3645301425 1.3962634016 
1.4279966607 1.4597299198 1.491463179 1.5231964381 1.5549296972 1.5866629564 1.6183962155 1.6501294746 1.6818627337 
1.7135959929 1.745329252 1.7770625111 1.8087957702 1.8405290294 1.8722622885 1.9039955476 1.9357288068 1.9674620659 
1.999195325 2.0309285841 2.0626618433 2.0943951024 2.1261283615 2.1578616206 2.1895948798 2.2213281389 2.253061398 
2.2847946572 2.3165279163 2.3482611754 2.3799944345 2.4117276937 2.4434609528 2.4751942119 2.506927471 2.5386607302 
2.5703939893 2.6021272484 2.6338605076 2.6655937667 2.6973270258 2.7290602849 2.7607935441 2.7925268032 2.8242600623 
2.8559933214 2.8877265806 2.9194598397 2.9511930988 2.982926358 3.0146596171 3.0463928762 3.0781261353 3.1098593945 
3.1415926536 
_radius 1 100 double
6.2450045135e-16 0.014399756151 0.028671631797 0.042693884296 0.056355438503 0.069558695432 0.082219837929 0.094266805654 0.1056358268 
0.1162678826 0.12610652736 0.13509805648 0.14319426764 0.15035726192 0.15656513471 0.16181717066 0.1661373153 0.16957516302 
0.17220430535 0.17411842418 0.17542583784 0.17624327132 0.17668949782 0.17687931003 0.17691811755 0.17689735763 0.17689084489 
0.17695216094 0.17711318778 0.17738389473 0.17775347133 0.1781928454 0.17865854451 0.17909775196 0.1794542576 0.17967480238 
0.17971512753 0.17954500648 0.17915179598 0.17854255857 0.17774527499 0.17680966927 0.17580760934 0.17483232696 0.1739954016 
0.17342083425 0.17323636959 0.17356294141 0.17450327632 0.17613049739 0.17847770075 0.18153009529 0.18522158299 0.18943686889 
0.19401878774 0.19877962921 0.20351519987 0.20802061298 0.21210676207 0.21561608078 0.21843585487 0.22050732825 0.22182921192 
0.22245487685 0.22248334464 0.22204503932 0.22128400624 0.22033884383 0.21932486696 0.2183199774 0.21735632502 0.21641901757 
0.21545174343 0.21436742818 0.2130608665 0.2114205159 0.20933805329 0.20671574943 0.20347234057 0.19954783018 0.19490705982 
0.18954146695 0.18346839539 0.17672755766 0.1693746194 0.16147231513 0.15308001916 0.14424328512 0.1349854023 0.12530316952 
0.11516848187 0.10453593274 0.093354994463 0.08158422048 0.069204685454 0.056230370234 0.042714007772 0.028747739478 0.014458667511 
3.783987167e-16 
_area 1 100 double
0 0.00044335806575 0.001782956757 0.0040407639934 0.0072334836239 0.011349666015 0.016329502778 0.022053828577 0.028345003449 
0.034978392525 0.041700814314 0.048251883708 0.054385056618 0.05988650626 0.064590907622 0.068393389145 0.071256597704 0.073211736251 
0.074353101197 0.074826668731 0.074813289288 0.074511199574 0.07412129678 0.073743246058 0.073400879801 0.073117997744 0.072903643975 
0.072757320917 0.072683166854 0.072698325505 0.07282950872 0.073112851773 0.073566213017 0.074166653793 0.07490425208 0.075774505306 
0.07677326153 0.077895332589 0.079131000565 0.080459308064 0.08183902847 0.083204260973 0.084481104516 0.08561992996 0.086614572092 
0.087504273211 0.088378104417 0.089382076483 0.09070668727 0.092544715289 0.095042073636 0.09827593461 0.10224862918 0.10688838426 
0.11205475641 0.11754568186 0.12310540053 0.12843592128 0.13321623894 0.13713168484 0.13991137498 0.14136783426 0.14143218055 
0.14018551414 0.13789734497 0.13505420287 0.13179245453 0.12844008389 0.12549508919 0.12305323222 0.12108163869 0.11950206585 
0.11815035421 0.11681524318 0.11528520264 0.11338313631 0.11098106128 0.10799971114 0.10440138821 0.10018192726 0.095364013336 
0.089992098154 0.084129214195 0.077856774132 0.071277183373 0.064514892454 0.057709309534 0.050997272464 0.044490382513 0.038257860177 
0.032325669703 0.026695393174 0.021374201825 0.016400686477 0.011856000092 0.0078588581277 0.0045489082191 0.0020648318162 0.00052291033063 
3.3995218635e-17 
