# vtk DataFile Version 5.1
vtk output
ASCII
DATASET POLYDATA
POINTS 100 float
0.119621 -0.0223898 0.720252 0.119651 -0.0223573 0.720328 0.11977 -0.0221256 0.720375 
0.119951 -0.0217148 0.720319 0.120145 -0.021157 0.720045 0.120297 -0.0204936 0.719408 
0.120342 -0.0197713 0.718244 0.12022 -0.0190382 0.716388 0.119874 -0.0183395 0.713686 
0.11926 -0.0177131 0.71001 0.118345 -0.0171864 0.705269 0.117112 -0.0167737 0.699416 
0.115553 -0.0164747 0.692453 0.11367 -0.016275 0.684429 0.111465 -0.0161469 0.675436 
0.108942 -0.0160527 0.665597 0.106098 -0.0159477 0.655057 0.102923 -0.0157853 0.643965 
0.099397 -0.015521 0.632466 0.095493 -0.0151168 0.620682 0.0911809 -0.0145454 0.608704 
0.0864323 -0.0137923 0.596588 0.0812263 -0.0128573 0.58435 0.0755559 -0.0117545 0.571967 
0.0694334 -0.0105107 0.559389 0.0628927 -0.00916236 0.546543 0.0559906 -0.00775228 0.53335 
0.0488034 -0.006325 0.519737 0.0414215 -0.00492279 0.505645 0.0339412 -0.0035819 0.491045 
0.0264552 -0.00232992 0.475939 0.0190413 -0.00118426 0.460361 0.0117542 -0.000152261 0.444377 
0.0046171 0.0007673 0.428072 -0.00238155 0.00158145 0.411543 -0.00928821 0.00229929 0.394879 
-0.0161794 0.00292789 0.378151 -0.0231529 0.00346831 0.361399 -0.0303151 0.00391222 0.344617 
-0.037766 0.00423984 0.327756 -0.0455838 0.00441926 0.310717 -0.05381 0.00440755 0.293361 
-0.0624374 0.00415348 0.275523 -0.0714021 0.00360168 0.257023 -0.0805812 0.00269783 0.23769 
-0.0897957 0.00139414 0.217377 -0.0988199 -0.000345151 0.195983 -0.107396 -0.00253932 0.173462 
-0.115249 -0.0051879 0.149836 -0.122114 -0.00826921 0.125191 -0.127747 -0.0117408 0.099675 
-0.131951 -0.0155419 0.0734867 -0.134587 -0.0195969 0.046855 -0.135583 -0.0238208 0.020021 
-0.134941 -0.0281247 -0.00678436 -0.132731 -0.0324211 -0.0333599 -0.129084 -0.0366289 -0.0595505 
-0.124176 -0.0406768 -0.0852572 -0.118215 -0.0445057 -0.110441 -0.111418 -0.0480685 -0.13512 
-0.103996 -0.0513294 -0.159358 -0.0961337 -0.0542614 -0.18325 -0.0879825 -0.0568427 -0.206903 
-0.0796488 -0.0590541 -0.230418 -0.0711937 -0.0608753 -0.25387 -0.062636 -0.0622832 -0.277295 
-0.0539608 -0.0632513 -0.300683 -0.0451311 -0.0637504 -0.323972 -0.0361017 -0.0637507 -0.347055 
-0.026834 -0.0632255 -0.36979 -0.017309 -0.0621552 -0.392015 -0.00753765 -0.0605317 -0.413566 
0.00243215 -0.0583621 -0.43429 0.0125139 -0.0556713 -0.454066 0.0225849 -0.0525032 -0.472812 
0.0324936 -0.0489193 -0.49049 0.0420702 -0.0449967 -0.507106 0.0511394 -0.0408226 -0.522705 
0.0595347 -0.036489 -0.537353 0.0671115 -0.0320863 -0.551128 0.0737587 -0.0276964 -0.564103 
0.0794071 -0.0233878 -0.576329 0.0840341 -0.0192114 -0.587827 0.0876641 -0.0151982 -0.598578 
0.0903648 -0.0113604 -0.608532 0.0922398 -0.00769346 -0.617604 0.093419 -0.00418073 -0.625698 
0.0940467 -0.000799516 -0.632713 0.0942696 0.00247254 -0.638566 0.094226 0.00565106 -0.643213 
0.094036 0.00873969 -0.646653 0.0937953 0.0117264 -0.648947 0.0935715 0.0145822 -0.650213 
0.0934041 0.017262 -0.650627 0.093307 0.019708 -0.650402 0.0932741 0.0218544 -0.649777 
0.0932859 0.0236344 -0.648991 0.0933172 0.0249869 -0.648261 0.0933441 0.0258625 -0.647761 
0.09335 0.0262292 -0.647599 
LINES 2 100
OFFSETS vtktypeint64
0 100 
CONNECTIVITY vtktypeint64
0 1 2 3 4 5 6 7 8 
9 10 11 12 13 14 15 16 17 
18 19 20 21 22 23 24 25 26 
27 28 29 30 31 32 33 34 35 
36 37 38 39 40 41 42 43 44 
45 46 47 48 49 50 51 52 53 
54 55 56 57 58 59 60 61 62 
63 64 65 66 67 68 69 70 71 
72 73 74 75 76 77 78 79 80 
81 82 83 84 85 86 87 88 89 
90 91 92 93 94 95 96 97 98 
99 
POINT_DATA 100
FIELD FieldData 3
_theta 1 100 double
0 0.031733259127 0.063466518254 0.095199777382 0.12693303651 0.15866629564 0.19039955476 0.22213281389 0.25386607302 
0.28559933214 0.31733259127 0.3490658504 0.38079910953 0.41253236865 0.44426562778 0.47599888691 0.50773214603 0.53946540516 
0.57119866429 0.60293192342 0.63466518254 0.66639844167 0.6981317008 0.72986495992 0.76159821905 0.79333147818 0.82506473731 
0.85679799643 0.88853125556 0.92026451469 0.95199777382 0.98373103294 1.0154642921 1.0471975512 1.0789308103 1.1106640695 
1.1423973286 1.1741305877 1.2058638468 1.237597106 1.2693303651 1.3010636242 1.3327968833 1.3645301425 1.3962634016 
1.4279966607 1.4597299198 1.491463179 1.5231964381 1.5549296972 1.5866629564 1.6183962155 1.6501294746 1.6818627337 
1.7135959929 1.745329252 1.7770625111 1.8087957702 1.8405290294 1.8722622885 1.9039955476 1.9357288068 1.9674620659 
1.999195325 2.0309285841 2.0626618433 2.0943951024 2.1261283615 2.1578616206 2.1895948798 2.2213281389 2.253061398 
2.2847946572 2.3165279163 2.3482611754 2.3799944345 2.4117276937 2.4434609528 2.4751942119 2.506927471 2.5386607302 
2.5703939893 2.6021272484 2.6338605076 2.6655937667 2.6973270258 2.7290602849 2.7607935441 2.7925268032 2.8242600623 
2.8559933214 2.8877265806 2.9194598397 2.9511930988 2.982926358 3.0146596171 3.0463928762 3.0781261353 3.1098593945 
3.1415926536 
_radius 1 100 double
1.0336157354e-15 0.017566415584 0.034939812867 0.051935669731 0.068392192944 0.084179537303 0.099206544543 0.11342455216 0.12682799167 
0.13945160046 0.15136415911 0.16265883432 0.17344055168 0.18381136275 0.19385540275 0.20362553742 0.21313391128 0.22234817484 
0.23119422957 0.23956514925 0.24733487393 0.25437461512 0.26056974441 0.2658351586 0.27012751709 0.2734531521 0.27587078078 
0.27748844467 0.27845447885 0.27894287212 0.27913413284 0.27919362301 0.2792500582 0.27937724321 0.27958192548 0.27979987362 
0.27990110339 0.27970388259 0.27899602912 0.27756121785 0.27520753541 0.27179530447 0.26726118359 0.26163570684 0.25505175828 
0.24774201756 0.24002424683 0.23227452213 0.22489021681 0.21824672601 0.21265441142 0.20832430167 0.20535091785 0.20371619296 
0.20331047626 0.2039599201 0.20544926086 0.20753523341 0.20995399191 0.21243065022 0.21469750486 0.21652101758 0.21773108358 
0.21824375519 0.21807086264 0.21731437703 0.21614734746 0.21478574379 0.21345652509 0.21236696996 0.21167904936 0.21149088947 
0.21182580985 0.21262858297 0.2137685703 0.2150497762 0.21622781268 0.21703279974 0.21719569482 0.21647434509 0.21467534432 
0.21166857806 0.20739277596 0.20185200011 0.19510442078 0.18724573297 0.17839005809 0.168651212 0.15812695368 0.1468883818 
0.13497600271 0.12240303242 0.10916518451 0.095254793289 0.080676138759 0.065458721247 0.049665989721 0.033398244511 0.01678962494 
1.272072403e-15 
_area 1 100 double
0 0.00073064369888 0.0028954776536 0.0064152178485 0.011164255554 0.016980017687 0.023675450902 0.031054218945 0.038927811832 
0.04713287923 0.055546081548 0.064093341109 0.072751104266 0.08153886738 0.090503972176 0.099700925268 0.10916813497 0.11890516928 
0.12885394752 0.13888817432 0.14881592274 0.15839856576 0.16738496002 0.17555520716 0.18276504628 0.1889782464 0.19426882308 
0.19878008725 0.20266581197 0.20606481779 0.2090995174 0.2118728705 0.21446721375 0.21691936189 0.21918800932 0.22114281969 
0.22263459383 0.22363528129 0.22351313504 0.22183318345 0.2183022072 0.21291721748 0.20566993524 0.19679717896 0.18680975714 
0.17600524901 0.16489119818 0.15406538275 0.14411976166 0.13553487747 0.128606634 0.12342430906 0.11991116061 0.11783697336 
0.11677821388 0.11627701963 0.1160013249 0.11575471652 0.1154506606 0.1150812272 0.11461135281 0.11378766388 0.11221856674 
0.10967509096 0.1062032019 0.10208739324 0.097777690238 0.093809366615 0.090698540668 0.088815320014 0.088335636522 0.089296825847 
0.09163349742 0.095154861958 0.099529520158 0.10432075226 0.10904669311 0.11323609286 0.11647085532 0.11841053293 0.11880322214 
0.11749796831 0.11445459993 0.10973710398 0.10349487328 0.095944175917 0.087354964454 0.078038782657 0.068330350165 0.058560140848 
0.049023380766 0.03995629272 0.031529767024 0.023863792322 0.017056017085 0.011210474603 0.0064518878987 0.0029183666794 0.00073769839715 
2.1371901876e-17 
