# vtk DataFile Version 5.1
vtk output
ASCII
DATASET POLYDATA
POINTS 100 float
0.176474 -0.0114767 0.646506 0.176161 -0.0116038 0.646331 0.175266 -0.0118418 0.645681 
0.173797 -0.0121666 0.64458 0.171765 -0.0125424 0.643059 0.169194 -0.0129253 0.641158 
0.166117 -0.01327 0.63891 0.16258 -0.0135349 0.636337 0.15864 -0.0136876 0.633443 
0.154367 -0.0137088 0.630211 0.149836 -0.0135938 0.626599 0.145123 -0.0133533 0.622545 
0.140297 -0.0130106 0.617976 0.135411 -0.0125979 0.612809 0.130498 -0.0121508 0.60697 
0.125563 -0.0117029 0.600397 0.120582 -0.0112797 0.593055 0.115503 -0.0108945 0.584937 
0.110249 -0.0105452 0.576069 0.10473 -0.0102136 0.566512 0.0988499 -0.00986693 0.556349 
0.0925237 -0.00946168 0.545685 0.0856872 -0.00894888 0.534629 0.0783085 -0.00828097 0.523287 
0.0703958 -0.00741875 0.511748 0.0620001 -0.00633798 0.500077 0.0532129 -0.00503456 0.488306 
0.0441583 -0.00352791 0.476438 0.0349808 -0.00186173 0.46444 0.0258299 -0.000102381 0.452259 
0.0168425 0.00166533 0.439821 0.00812694 0.00334431 0.427048 -0.000251012 0.00483276 0.413861 
-0.00827659 0.00603232 0.400197 -0.0159888 0.00685595 0.386007 -0.0234762 0.00723473 0.371264 
-0.0308658 0.00712287 0.355961 -0.0383064 0.00650046 0.340108 -0.0459479 0.00537381 0.323723 
-0.053919 0.00377331 0.306829 -0.062306 0.0017493 0.289443 -0.0711347 -0.000633721 0.27157 
-0.0803587 -0.00330367 0.253202 -0.0898552 -0.00618765 0.234313 -0.0994281 -0.00921813 0.214867 
-0.108821 -0.0123379 0.194818 -0.117735 -0.0155035 0.174125 -0.125853 -0.0186865 0.152757 
-0.132868 -0.0218733 0.130701 -0.138506 -0.0250627 0.107977 -0.142555 -0.0282625 0.0846346 
-0.144876 -0.0314852 0.0607585 -0.145418 -0.0347431 0.0364651 -0.14422 -0.0380436 0.0118952 
-0.141403 -0.0413858 -0.0127958 -0.137158 -0.0447572 -0.03745 -0.131725 -0.0481325 -0.0619193 
-0.125372 -0.0514731 -0.0860764 -0.11837 -0.0547282 -0.109824 -0.11097 -0.0578371 -0.1331 
-0.103386 -0.0607319 -0.155877 -0.0957825 -0.0633411 -0.17816 -0.0882689 -0.0655933 -0.19998 
-0.0808987 -0.0674208 -0.221382 -0.0736779 -0.0687625 -0.242415 -0.0665767 -0.0695669 -0.263121 
-0.0595445 -0.0697937 -0.283525 -0.052526 -0.0694158 -0.30363 -0.0454765 -0.0684195 -0.323412 
-0.0383736 -0.0668049 -0.342825 -0.0312259 -0.0645854 -0.361803 -0.0240764 -0.0617868 -0.380269 
-0.0170008 -0.0584465 -0.398145 -0.0101016 -0.0546111 -0.415361 -0.00349944 -0.0503358 -0.431862 
0.00267897 -0.0456816 -0.447616 0.00831199 -0.0407136 -0.462614 0.0132943 -0.035499 -0.476867 
0.0175455 -0.0301048 -0.490404 0.0210163 -0.0245962 -0.503264 0.0236912 -0.0190348 -0.515483 
0.0255874 -0.0134772 -0.527089 0.0267517 -0.00797419 -0.538091 0.0272547 -0.00257045 -0.548479 
0.027184 0.00269561 -0.558217 0.0266365 0.0077912 -0.56725 0.0257123 0.0126883 -0.57551 
0.0245084 0.0173623 -0.582925 0.023115 0.0217911 -0.589433 0.0216127 0.0259534 -0.594988 
0.0200716 0.0298282 -0.599578 0.0185512 0.0333937 -0.603225 0.0171019 0.0366272 -0.605988 
0.0157659 0.0395055 -0.607965 0.0145786 0.0420052 -0.609281 0.0135697 0.0441039 -0.610081 
0.0127638 0.0457814 -0.610511 0.0121804 0.0470206 -0.610706 0.0118339 0.0478089 -0.610775 
0.0117332 0.0481391 -0.610788 
LINES 2 100
OFFSETS vtktypeint64
0 100 
CONNECTIVITY vtktypeint64
0 1 2 3 4 5 6 7 8 
9 10 11 12 13 14 15 16 17 
18 19 20 21 22 23 24 25 26 
27 28 29 30 31 32 33 34 35 
36 37 38 39 40 41 42 43 44 
45 46 47 48 49 50 51 52 53 
54 55 56 57 58 59 60 61 62 
63 64 65 66 67 68 69 70 71 
72 73 74 75 76 77 78 79 80 
81 82 83 84 85 86 87 88 89 
90 91 92 93 94 95 96 97 98 
99 
POINT_DATA 100
FIELD FieldData 3
_theta 1 100 double
0 0.031733259127 0.063466518254 0.095199777382 0.12693303651 0.15866629564 0.19039955476 0.22213281389 0.25386607302 
0.28559933214 0.31733259127 0.3490658504 0.38079910953 0.41253236865 0.44426562778 0.47599888691 0.50773214603 0.53946540516 
0.57119866429 0.60293192342 0.63466518254 0.66639844167 0.6981317008 0.72986495992 0.76159821905 0.79333147818 0.82506473731 
0.85679799643 0.88853125556 0.92026451469 0.95199777382 0.98373103294 1.0154642921 1.0471975512 1.0789308103 1.1106640695 
1.1423973286 1.1741305877 1.2058638468 1.237597106 1.2693303651 1.3010636242 1.3327968833 1.3645301425 1.3962634016 
1.4279966607 1.4597299198 1.491463179 1.5231964381 1.5549296972 1.5866629564 1.6183962155 1.6501294746 1.6818627337 
1.7135959929 1.745329252 1.7770625111 1.8087957702 1.8405290294 1.8722622885 1.9039955476 1.9357288068 1.9674620659 
1.999195325 2.0309285841 2.0626618433 2.0943951024 2.1261283615 2.1578616206 2.1895948798 2.2213281389 2.253061398 
2.2847946572 2.3165279163 2.3482611754 2.3799944345 2.4117276937 2.4434609528 2.4751942119 2.506927471 2.5386607302 
2.5703939893 2.6021272484 2.6338605076 2.6655937667 2.6973270258 2.7290602849 2.7607935441 2.7925268032 2.8242600623 
2.8559933214 2.8877265806 2.9194598397 2.9511930988 2.982926358 3.0146596171 3.0463928762 3.0781261353 3.1098593945 
3.1415926536 
_radius 1 100 double
1.5840913111e-15 0.014130445227 0.028314728059 0.042593231932 0.0569852267 0.071482168173 0.086044511846 0.10060201541 0.1150569124 
0.12928905562 0.14316230086 0.15653194627 0.16925354643 0.18119332258 0.19223950309 0.20231278914 0.21137360447 0.21942424335 
0.22650519232 0.2326862374 0.23805409938 0.2426990701 0.24670332007 0.25013311081 0.25303608602 0.2554433795 0.25737493873 
0.25884573486 0.25987068216 0.26046698535 0.26065380975 0.26045010829 0.25987183494 0.2589296451 0.25762776914 0.255964318 
0.25393299483 0.25152606738 0.24873843775 0.24557261983 0.24204428172 0.23818766651 0.23405973865 0.22974156015 0.22533554305 
0.22095813871 0.21672913657 0.21276038314 0.20914731862 0.20596561018 0.20327289177 0.20111355714 0.19952355263 0.19853207832 
0.19815778688 0.19839866927 0.19921747689 0.20052780401 0.20218854811 0.20401356786 0.20579662906 0.20734314795 0.2084977268 
0.20916106802 0.20929581254 0.20892394982 0.20811848278 0.20699090533 0.20567546684 0.20431141091 0.20302479954 0.20191176494 
0.20102502816 0.20036533007 0.19987899037 0.19946206969 0.19897059477 0.19823524885 0.19707818629 0.19532947522 0.19284108567 
0.18949704475 0.18521908508 0.17996770601 0.17373908823 0.16655880473 0.15847371074 0.149543631 0.13983433119 0.12941271869 
0.11834443242 0.10669328889 0.094521745052 0.081891663373 0.068864997521 0.055504278334 0.041872869149 0.028034983583 0.014055537484 
1.282188409e-15 
_area 1 100 double
0 0.00053737715148 0.0021447426418 0.0048074864084 0.0085003630564 0.013186736823 0.01881877413 0.025339428221 0.032685892286 
0.040791942157 0.0495847543 0.058973167002 0.068830504769 0.078982545814 0.089212422939 0.099285987592 0.10898957372 0.11816552264 
0.12673176107 0.13467794126 0.14203944796 0.14885948725 0.15515517881 0.16090241453 0.16604493819 0.17052017369 0.17428669299 
0.17734035021 0.17971430214 0.18146636658 0.1826617105 0.18335880981 0.18360361586 0.18343343335 0.18288250267 0.1819286518 
0.18038286317 0.17802183505 0.17473431868 0.17052012839 0.16547264559 0.15976251622 0.15361753125 0.14729943905 0.14107765284 
0.13519744457 0.12984408063 0.12511159624 0.12098456969 0.11734141188 0.11400128531 0.11083102696 0.10786133857 0.1051260631 
0.10269820425 0.10046812556 0.09845268887 0.096714580464 0.09528498778 0.094146206134 0.09324437549 0.092515164191 0.091897940808 
0.091332955591 0.090766850799 0.090170429947 0.089522876147 0.088915480383 0.088402236813 0.088102980579 0.088128537341 0.088551958085 
0.089392697222 0.090612021579 0.092117577883 0.093881085401 0.095961660148 0.097846047655 0.099126442938 0.099562652492 0.098966028196 
0.097204869669 0.094218876003 0.090027231979 0.084725000977 0.078467998482 0.071451060519 0.063886767141 0.055990285263 0.047972423784 
0.040039463402 0.032395459086 0.025240645152 0.01876149896 0.013115173356 0.008416631138 0.0047353391955 0.0021025369945 0.00052507450898 
1.4109821892e-17 
