# vtk DataFile Version 5.1
vtk output
ASCII
DATASET POLYDATA
POINTS 100 float
0.14034 0.0715984 -0.70398 0.140276 0.0715498 -0.704053 0.140104 0.0712231 -0.704234 
0.139824 0.0705988 -0.704405 0.139432 0.0696472 -0.704386 0.138918 0.0683325 -0.703956 
0.138266 0.0666179 -0.702879 0.137449 0.0644705 -0.700933 0.136428 0.0618665 -0.697931 
0.135147 0.0587946 -0.693747 0.133539 0.0552597 -0.688323 0.131521 0.051283 -0.681675 
0.129001 0.0469015 -0.673881 0.125881 0.0421661 -0.665076 0.122066 0.0371372 -0.655419 
0.117466 0.0318804 -0.645077 0.112008 0.0264619 -0.6342 0.105644 0.0209434 -0.622895 
0.098355 0.0153789 -0.61122 0.0901594 0.00981234 -0.599168 0.0811129 0.00427658 -0.586675 
0.0713099 -0.00120523 -0.573629 0.0608796 -0.00661732 -0.559884 0.0499801 -0.0119476 -0.545281 
0.0387883 -0.0171831 -0.529675 0.0274895 -0.0223056 -0.512948 0.0162643 -0.0272878 -0.495028 
0.00527661 -0.0320903 -0.475899 -0.00533749 -0.0366602 -0.455602 -0.0154785 -0.040932 -0.434228 
-0.0250884 -0.0448298 -0.411909 -0.0341522 -0.0482715 -0.388798 -0.042694 -0.0511744 -0.365051 
-0.0507697 -0.0534617 -0.34081 -0.0584557 -0.0550687 -0.316191 -0.0658356 -0.055949 -0.291267 
-0.0729849 -0.0560792 -0.266073 -0.0799571 -0.0554625 -0.240607 -0.0867717 -0.0541294 -0.214838 
-0.093405 -0.0521369 -0.188721 -0.0997866 -0.0495652 -0.162215 -0.105801 -0.0465132 -0.135298 
-0.111292 -0.0430917 -0.10798 -0.116077 -0.039417 -0.0803115 -0.119962 -0.0356034 -0.0523862 
-0.122755 -0.0317571 -0.024338 -0.124288 -0.0279708 0.00366922 -0.124433 -0.0243199 0.0314549 
-0.123113 -0.0208609 0.0588385 -0.120315 -0.017631 0.0856562 -0.116087 -0.0146502 0.111775 
-0.110542 -0.0119238 0.137102 -0.103845 -0.00944722 0.161594 -0.0962026 -0.00720973 0.185249 
-0.0878448 -0.00519914 0.208105 -0.0790082 -0.0034054 0.230231 -0.069917 -0.00182329 0.251706 
-0.0607679 -0.00045395 0.272611 -0.051717 0.000694968 0.293016 -0.0428726 0.00161038 0.312966 
-0.0342928 0.00227584 0.33248 -0.0259885 0.00267426 0.351553 -0.0179306 0.002791 0.370158 
-0.0100617 0.00261668 0.388255 -0.00230883 0.00214961 0.405805 0.00540259 0.00139731 0.42278 
0.0131363 0.000377085 0.439173 0.020935 -0.000884459 0.455005 0.0288143 -0.0023529 0.470327 
0.0367597 -0.00398827 0.485213 0.0447284 -0.00574779 0.499757 0.052655 -0.00758883 0.514055 
0.0604588 -0.00947168 0.528196 0.0680537 -0.0113619 0.542244 0.0753578 -0.0132318 0.556229 
0.082302 -0.0150614 0.570136 0.0888372 -0.0168381 0.583906 0.0949376 -0.0185558 0.597438 
0.100602 -0.0202134 0.610595 0.105852 -0.0218125 0.623227 0.110725 -0.0233561 0.635176 
0.115273 -0.0248455 0.646305 0.119548 -0.02628 0.656505 0.123603 -0.0276551 0.665712 
0.12748 -0.0289629 0.673914 0.131206 -0.0301921 0.681147 0.134796 -0.0313297 0.687494 
0.138248 -0.0323622 0.693069 0.141546 -0.0332773 0.698006 0.144664 -0.0340662 0.702438 
0.147571 -0.0347246 0.706482 0.150235 -0.0352538 0.710225 0.152626 -0.0356613 0.713715 
0.15472 -0.0359601 0.716958 0.1565 -0.0361677 0.71992 0.157954 -0.0363048 0.722535 
0.159079 -0.0363927 0.724719 0.159875 -0.0364516 0.726385 0.160344 -0.0364981 0.727456 
0.160488 -0.0365437 0.727878 
LINES 2 100
OFFSETS vtktypeint64
0 100 
CONNECTIVITY vtktypeint64
0 1 2 3 4 5 6 7 8 
9 10 11 12 13 14 15 16 17 
18 19 20 21 22 23 24 25 26 
27 28 29 30 31 32 33 34 35 
36 37 38 39 40 41 42 43 44 
45 46 47 48 49 50 51 52 53 
54 55 56 57 58 59 60 61 62 
63 64 65 66 67 68 69 70 71 
72 73 74 75 76 77 78 79 80 
81 82 83 84 85 86 87 88 89 
90 91 92 93 94 95 96 97 98 
99 
POINT_DATA 100
FIELD FieldData 3
_theta 1 100 double
0 0.031733259127 0.063466518254 0.095199777382 0.12693303651 0.15866629564 0.19039955476 0.22213281389 0.25386607302 
0.28559933214 0.31733259127 0.3490658504 0.38079910953 0.41253236865 0.44426562778 0.47599888691 0.50773214603 0.53946540516 
0.57119866429 0.60293192342 0.63466518254 0.66639844167 0.6981317008 0.72986495992 0.76159821905 0.79333147818 0.82506473731 
0.85679799643 0.88853125556 0.92026451469 0.95199777382 0.98373103294 1.0154642921 1.0471975512 1.0789308103 1.1106640695 
1.1423973286 1.1741305877 1.2058638468 1.237597106 1.2693303651 1.3010636242 1.3327968833 1.3645301425 1.3962634016 
1.4279966607 1.4597299198 1.491463179 1.5231964381 1.5549296972 1.5866629564 1.6183962155 1.6501294746 1.6818627337 
1.7135959929 1.745329252 1.7770625111 1.8087957702 1.8405290294 1.8722622885 1.9039955476 1.9357288068 1.9674620659 
1.999195325 2.0309285841 2.0626618433 2.0943951024 2.1261283615 2.1578616206 2.1895948798 2.2213281389 2.253061398 
2.2847946572 2.3165279163 2.3482611754 2.3799944345 2.4117276937 2.4434609528 2.4751942119 2.506927471 2.5386607302 
2.5703939893 2.6021272484 2.6338605076 2.6655937667 2.6973270258 2.7290602849 2.7607935441 2.7925268032 2.8242600623 
2.8559933214 2.8877265806 2.9194598397 2.9511930988 2.982926358 3.0146596171 3.0463928762 3.0781261353 3.1098593945 
3.1415926536 
_radius 1 100 double
2.7790248428e-16 0.016022285444 0.031958253502 0.047720373182 0.063227014171 0.07840420448 0.093185686103 0.10751089475 0.12132091967 
0.13455303938 0.14713494565 0.15898013023 0.16998599583 0.18003596878 0.18900622333 0.19677668551 0.2032449991 0.2083413872 
0.2120420365 0.21437879945 0.21544353497 0.21538613714 0.21440613228 0.21273860403 0.21063605757 0.20834850601 0.2061043467 
0.2040943337 0.2024601657 0.20128817239 0.20060775012 0.20039394461 0.20057389482 0.20103728436 0.20165093556 0.20227701374 
0.20279323513 0.20311243159 0.20319817718 0.20307316429 0.20281784146 0.2025586719 0.2024481848 0.20264198399 0.20327921472 
0.20447086783 0.20629545616 0.20879778061 0.21198676197 0.21583174033 0.2202598665 0.22515786367 0.23037967244 0.23575907707 
0.24112492635 0.24631636537 0.251196023 0.25565973126 0.25964186228 0.26311585265 0.26609008719 0.26860003372 0.27069815959 
0.27244342715 0.27389189386 0.27508926934 0.27606559307 0.27683183982 0.27737828317 0.2776746177 0.27767187876 0.27730600792 
0.2765026089 0.2751822141 0.2732653461 0.27067679776 0.26734879892 0.26322303415 0.25825178487 0.2523987184 0.24563992488 
0.2379656179 0.2293824803 0.21991609344 0.2096124515 0.19853741811 0.18677323046 0.17441180413 0.16154556746 0.14825763285 
0.13461382888 0.12065890836 0.10641797288 0.09190244755 0.077118712548 0.06207711558 0.046799335146 0.031322668529 0.015700622304 
3.0250724089e-16 
_area 1 100 double
0 0.0006033280205 0.0024111701722 0.00541480679 0.0095918576021 0.01489537902 0.021243119859 0.028512164841 0.036541461751 
0.045140314824 0.054098344764 0.06319287919 0.072192273197 0.080856591215 0.08893908263 0.096192329873 0.10238169768 0.10730596991 
0.11082169624 0.11286533132 0.11346703442 0.11275211057 0.11092954221 0.10827064247 0.10508378103 0.10169453057 0.098460689502 
0.095744299276 0.093664773765 0.092208876999 0.091429406605 0.091356977454 0.091992049057 0.093300762173 0.095172572078 0.097441241363 
0.099866664145 0.10222650737 0.10439105943 0.10635048425 0.10821928026 0.1101867966 0.11240959438 0.11492243111 0.11766895698 
0.12059914449 0.12372426699 0.12712426868 0.13093241474 0.13530277487 0.14036518005 0.14617933407 0.15270404173 0.15979232117 
0.16720842266 0.17465556284 0.18180924614 0.18835676792 0.19404052981 0.1986960154 0.20227274706 0.20483100465 0.20651604818 
0.20752392429 0.20812303472 0.20869347411 0.20915346661 0.20937071514 0.20923755629 0.20864462028 0.20748213212 0.20564850932 
0.20306022074 0.19965767074 0.19540539782 0.19028837435 0.18430732066 0.17747474 0.16981200116 0.16134796375 0.15212071373 
0.14218378681 0.13161599299 0.12053134513 0.10908468006 0.097469468395 0.085905964043 0.074619950371 0.063815749506 0.053651885722 
0.044230201799 0.035603958151 0.027799499053 0.020839903739 0.014761936869 0.0096231797661 0.0054994324311 0.0024741556283 0.00062330592724 
1.4851926655e-17 
