# vtk DataFile Version 5.1
vtk output
ASCII
DATASET POLYDATA
POINTS 100 float
0.149968 0.0327085 -0.681501 0.149831 0.0326805 -0.681368 0.14945 0.032462 -0.681045 
0.148822 0.032067 -0.68047 0.147943 0.0315153 -0.679543 0.146804 0.0308295 -0.678138 
0.145391 0.0300305 -0.676121 0.143685 0.0291333 -0.673359 0.14166 0.0281433 -0.669738 
0.139284 0.0270531 -0.66517 0.136519 0.0258408 -0.659601 0.133322 0.0244701 -0.653011 
0.129651 0.0228914 -0.645415 0.125464 0.0210457 -0.636852 0.120726 0.0188683 -0.627378 
0.115414 0.0162952 -0.617056 0.109519 0.0132688 -0.605943 0.103051 0.00974412 -0.594082 
0.0960413 0.00569428 -0.5815 0.0885435 0.00111541 -0.568203 0.0806317 -0.00397035 -0.554181 
0.0723972 -0.00951315 -0.539411 0.0639436 -0.0154356 -0.52387 0.0553786 -0.0216349 -0.507542 
0.0468059 -0.0279859 -0.490426 0.0383159 -0.0343465 -0.472543 0.0299772 -0.0405634 -0.45394 
0.0218289 -0.046479 -0.434691 0.0138761 -0.051938 -0.414885 0.0060883 -0.0567946 -0.394625 
-0.00159843 -0.0609191 -0.374012 -0.00927548 -0.0642037 -0.353134 -0.0170517 -0.0665672 -0.332055 
-0.0250403 -0.0679586 -0.310806 -0.0333443 -0.0683596 -0.289379 -0.0420404 -0.0677852 -0.267731 
-0.051165 -0.0662826 -0.245784 -0.0607014 -0.0639294 -0.223439 -0.0705725 -0.0608291 -0.200589 
-0.0806377 -0.0571065 -0.177135 -0.090696 -0.0529012 -0.153005 -0.100495 -0.0483603 -0.128162 
-0.109747 -0.0436319 -0.102623 -0.118146 -0.0388568 -0.0764567 -0.12539 -0.034163 -0.049789 
-0.131205 -0.029659 -0.022793 -0.135367 -0.0254306 0.00432181 -0.137719 -0.0215378 0.0313254 
-0.138183 -0.0180151 0.0579854 -0.13677 -0.0148723 0.0840856 -0.133575 -0.0120985 0.109442 
-0.128772 -0.00966654 0.133915 -0.122599 -0.00753925 0.157417 -0.115337 -0.00567536 0.179916 
-0.107288 -0.00403581 0.201429 -0.098751 -0.00258905 0.222015 -0.0900011 -0.00131491 0.241762 
-0.0812677 -0.000206898 0.260777 -0.0727219 0.000727531 0.279164 -0.0644696 0.00146861 0.297021 
-0.0565501 0.00198757 0.314425 -0.0489424 0.00225123 0.33143 -0.041577 0.00222733 0.348064 
-0.0343518 0.00188986 0.364335 -0.0271498 0.00122392 0.380237 -0.0198583 0.000229283 0.395755 
-0.0123847 -0.00107751 0.410878 -0.00467004 -0.002663 0.425603 0.00330252 -0.00447849 0.439943 
0.0115048 -0.00646338 0.453925 0.0198657 -0.00854982 0.467591 0.0282784 -0.010668 0.480994 
0.036611 -0.0127518 0.494187 0.0447196 -0.0147432 0.507216 0.0524621 -0.0165966 0.520113 
0.0597105 -0.0182811 0.532884 0.066362 -0.0197807 0.545509 0.0723458 -0.0210935 0.557936 
0.0776269 -0.0222293 0.570086 0.0822055 -0.0232056 0.581854 0.0861131 -0.0240436 0.593123 
0.0894064 -0.0247641 0.603771 0.0921589 -0.0253839 0.613682 0.0944521 -0.0259134 0.622758 
0.0963678 -0.0263555 0.630925 0.0979812 -0.0267059 0.638143 0.0993559 -0.0269552 0.644403 
0.100542 -0.0270916 0.649733 0.101575 -0.0271042 0.654186 0.102478 -0.0269869 0.657842 
0.103264 -0.0267415 0.660794 0.10394 -0.0263797 0.663141 0.10451 -0.0259241 0.664984 
0.104978 -0.0254074 0.666415 0.105347 -0.0248705 0.667513 0.105625 -0.0243587 0.668344 
0.10582 -0.0239179 0.668959 0.10594 -0.0235897 0.669394 0.105995 -0.0234073 0.669674 
0.105989 -0.0233918 0.66981 
LINES 2 100
OFFSETS vtktypeint64
0 100 
CONNECTIVITY vtktypeint64
0 1 2 3 4 5 6 7 8 
9 10 11 12 13 14 15 16 17 
18 19 20 21 22 23 24 25 26 
27 28 29 30 31 32 33 34 35 
36 37 38 39 40 41 42 43 44 
45 46 47 48 49 50 51 52 53 
54 55 56 57 58 59 60 61 62 
63 64 65 66 67 68 69 70 71 
72 73 74 75 76 77 78 79 80 
81 82 83 84 85 86 87 88 89 
90 91 92 93 94 95 96 97 98 
99 
POINT_DATA 100
FIELD FieldData 3
_theta 1 100 double
0 0.031733259127 0.063466518254 0.095199777382 0.12693303651 0.15866629564 0.19039955476 0.22213281389 0.25386607302 
0.28559933214 0.31733259127 0.3490658504 0.38079910953 0.41253236865 0.44426562778 0.47599888691 0.50773214603 0.53946540516 
0.57119866429 0.60293192342 0.63466518254 0.66639844167 0.6981317008 0.72986495992 0.76159821905 0.79333147818 0.82506473731 
0.85679799643 0.88853125556 0.92026451469 0.95199777382 0.98373103294 1.0154642921 1.0471975512 1.0789308103 1.1106640695 
1.1423973286 1.1741305877 1.2058638468 1.237597106 1.2693303651 1.3010636242 1.3327968833 1.3645301425 1.3962634016 
1.4279966607 1.4597299198 1.491463179 1.5231964381 1.5549296972 1.5866629564 1.6183962155 1.6501294746 1.6818627337 
1.7135959929 1.745329252 1.7770625111 1.8087957702 1.8405290294 1.8722622885 1.9039955476 1.9357288068 1.9674620659 
1.999195325 2.0309285841 2.0626618433 2.0943951024 2.1261283615 2.1578616206 2.1895948798 2.2213281389 2.253061398 
2.2847946572 2.3165279163 2.3482611754 2.3799944345 2.4117276937 2.4434609528 2.4751942119 2.506927471 2.5386607302 
2.5703939893 2.6021272484 2.6338605076 2.6655937667 2.6973270258 2.7290602849 2.7607935441 2.7925268032 2.8242600623 
2.8559933214 2.8877265806 2.9194598397 2.9511930988 2.982926358 3.0146596171 3.0463928762 3.0781261353 3.1098593945 
3.1415926536 
_radius 1 100 double
7.5961082887e-16 0.015817607609 0.031481718786 0.04685027282 0.061804085667 0.076248538455 0.090107283337 0.10331038654 0.11578143816 
0.12742862559 0.13814337791 0.14780757891 0.15630764071 0.16355190427 0.16948729613 0.17411177463 0.17748039571 0.17970432995 
0.18094348528 0.18139430135 0.18127469738 0.18080811056 0.18020819111 0.17966523468 0.17933506348 0.17933093826 0.17971908206 
0.18051822364 0.18170302594 0.18321052858 0.18494828484 0.18680306254 0.1886496876 0.19036033559 0.19181482279 0.1929120241 
0.19358161609 0.19379434155 0.19356848151 0.19297066978 0.1921105754 0.19113058764 0.19019258222 0.18946398472 0.18910513312 
0.18925944133 0.19004678328 0.19155913276 0.19385679789 0.19696424118 0.20086596199 0.20550400462 0.21077861745 0.21655279078 
0.22266060755 0.22891880696 0.23514044535 0.24114897383 0.24679074966 0.25194424581 0.25652493498 0.26048566977 0.26381307599 
0.26652091633 0.26864159104 0.27021698033 0.27128974683 0.27189603112 0.27206021069 0.27179207994 0.27108647175 0.26992501244 
0.2682794276 0.26611566503 0.26339811281 0.26009333864 0.25617298048 0.2516156128 0.24640757779 0.2405429116 0.23402260173 
0.22685345284 0.21904678337 0.21061703511 0.20158022448 0.1919521151 0.18174612981 0.1709713246 0.15963106107 0.14772311586 
0.13524171149 0.12218140989 0.1085422429 0.094335125989 0.079586595766 0.064342125761 0.048667560945 0.032648480389 0.016387532663 
2.8142331281e-16 
_area 1 100 double
0 0.00057201994875 0.0022788422365 0.0050931447552 0.0089697698788 0.013843764297 0.019624668618 0.026187563671 0.03336376238 
0.040935369857 0.048637514976 0.056170119296 0.063218535228 0.069480355187 0.074694775032 0.078670811596 0.081310681505 0.082624432126 
0.082731982305 0.081849934044 0.080263559426 0.078291175794 0.076271225236 0.07458771352 0.073549029822 0.07312439788 0.073351222033 
0.074128625083 0.075434693966 0.077201465109 0.079307974014 0.081597093911 0.083879115368 0.085952862828 0.087640996297 0.088831099008 
0.089504034981 0.089738081323 0.089732926075 0.089756830736 0.090091454112 0.090871205972 0.092061174056 0.093547691396 0.095224627494 
0.097060433982 0.099112200824 0.10150136875 0.10437406957 0.10786963327 0.11210156129 0.11713948411 0.12298963624 0.12958052681 
0.1367580607 0.14429139635 0.1518931077 0.15925385844 0.16608256022 0.17214130773 0.17726906215 0.18139174008 0.18451846806 
0.186725581 0.18813188245 0.18887042418 0.18906126958 0.18878773778 0.18808152224 0.18692525613 0.18527299849 0.18307566073 
0.18029730784 0.17691772888 0.17292534393 0.16830773068 0.16304600499 0.15711633594 0.15049808533 0.14318533349 0.13519801146 
0.12658987031 0.11745183031 0.10791007202 0.098118595652 0.088246435011 0.07846075136 0.068908781113 0.059703643446 0.050919878521 
0.042602098668 0.034784033208 0.02750963207 0.02084760562 0.014895314768 0.0097727798533 0.0056100007177 0.002531138702 0.00063866269117 
4.0373175942e-17 
