# vtk DataFile Version 5.1
vtk output
ASCII
DATASET POLYDATA
POINTS 100 float
0.0866508 0.0459695 -0.682934 0.08674 0.0458118 -0.68289 0.0870293 0.0451975 -0.682744 
0.0874793 0.0441623 -0.682399 0.0880283 0.0427606 -0.681708 0.0885969 0.041058 -0.68049 
0.0890946 0.0391231 -0.678555 0.0894263 0.0370186 -0.675722 0.0894989 0.0347929 -0.671843 
0.089226 0.0324738 -0.666818 0.0885313 0.0300656 -0.660606 0.0873506 0.0275481 -0.653225 
0.0856316 0.0248801 -0.644748 0.0833329 0.0220056 -0.635291 0.0804224 0.0188623 -0.624992 
0.0768752 0.0153914 -0.613997 0.0726732 0.011548 -0.602436 0.0678056 0.00730987 -0.590407 
0.0622699 0.00268481 -0.577968 0.0560756 -0.00228563 -0.565126 0.0492478 -0.00752555 -0.551847 
0.041831 -0.0129279 -0.538058 0.0338925 -0.0183611 -0.523665 0.0255234 -0.0236783 -0.508569 
0.0168383 -0.0287284 -0.492685 0.00797074 -0.0333674 -0.475954 -0.000933433 -0.0374702 -0.458362 
-0.00972548 -0.040939 -0.439936 -0.0182652 -0.0437104 -0.420751 -0.0264325 -0.0457589 -0.400918 
-0.0341387 -0.0470966 -0.380571 -0.0413348 -0.0477699 -0.359854 -0.0480161 -0.0478533 -0.338897 
-0.0542228 -0.0474404 -0.317803 -0.0600341 -0.046635 -0.296634 -0.0655587 -0.0455411 -0.275404 
-0.0709201 -0.0442537 -0.254077 -0.0762391 -0.042852 -0.232572 -0.0816161 -0.0413941 -0.210778 
-0.0871138 -0.0399151 -0.188566 -0.0927433 -0.0384268 -0.165814 -0.0984559 -0.0369211 -0.142419 
-0.10414 -0.035374 -0.118322 -0.109627 -0.033752 -0.093513 -0.1147 -0.0320183 -0.0680398 
-0.119115 -0.0301392 -0.042008 -0.122619 -0.0280897 -0.0155729 -0.124975 -0.0258578 0.0110733 
-0.125983 -0.0234471 0.0377176 -0.1255 -0.0208779 0.0641453 -0.123456 -0.018187 0.0901569 
-0.119858 -0.0154251 0.115584 -0.114792 -0.0126543 0.140297 -0.108415 -0.00994411 0.164217 
-0.100939 -0.00736754 0.187307 -0.0926137 -0.00499695 0.209572 -0.0837024 -0.00290037 0.231047 
-0.0744607 -0.00113823 0.251787 -0.0651157 0.000239257 0.271851 -0.0558497 0.00119417 0.291296 
-0.0467906 0.00170219 0.310165 -0.0380081 0.00175345 0.328485 -0.0295166 0.00135281 0.346267 
-0.0212851 0.000519612 0.363507 -0.0132499 -0.000712989 0.380196 -0.00533154 -0.00229915 0.396326 
0.00254918 -0.00418196 0.411903 0.0104559 -0.00629556 0.426946 0.0184251 -0.00856766 0.441498 
0.0264595 -0.0109225 0.455621 0.0345257 -0.0132844 0.469398 0.042558 -0.0155806 0.482919 
0.050466 -0.0177457 0.496277 0.0581451 -0.0197239 0.509551 0.0654889 -0.0214725 0.5228 
0.0724016 -0.0229635 0.536053 0.078808 -0.024185 0.549299 0.0846611 -0.0251412 0.562489 
0.0899458 -0.0258514 0.575537 0.0946783 -0.0263482 0.588327 0.0989027 -0.0266746 0.600725 
0.102684 -0.0268806 0.612586 0.106097 -0.027019 0.623774 0.109223 -0.027142 0.63417 
0.112133 -0.027297 0.643683 0.114889 -0.0275237 0.652256 0.117531 -0.0278516 0.65987 
0.120083 -0.0282983 0.666541 0.122549 -0.0288688 0.672316 0.124915 -0.029556 0.677264 
0.127158 -0.0303418 0.68147 0.129248 -0.0311987 0.685022 0.131153 -0.0320924 0.688004 
0.132844 -0.0329841 0.690489 0.134296 -0.0338335 0.692538 0.135494 -0.0346014 0.694193 
0.136426 -0.0352521 0.695482 0.137087 -0.0357556 0.696423 0.137474 -0.0360893 0.697022 
0.137588 -0.0362392 0.69728 
LINES 2 100
OFFSETS vtktypeint64
0 100 
CONNECTIVITY vtktypeint64
0 1 2 3 4 5 6 7 8 
9 10 11 12 13 14 15 16 17 
18 19 20 21 22 23 24 25 26 
27 28 29 30 31 32 33 34 35 
36 37 38 39 40 41 42 43 44 
45 46 47 48 49 50 51 52 53 
54 55 56 57 58 59 60 61 62 
63 64 65 66 67 68 69 70 71 
72 73 74 75 76 77 78 79 80 
81 82 83 84 85 86 87 88 89 
90 91 92 93 94 95 96 97 98 
99 
POINT_DATA 100
FIELD FieldData 3
_theta 1 100 double
0 0.031733259127 0.063466518254 0.095199777382 0.12693303651 0.15866629564 0.19039955476 0.22213281389 0.25386607302 
0.28559933214 0.31733259127 0.3490658504 0.38079910953 0.41253236865 0.44426562778 0.47599888691 0.50773214603 0.53946540516 
0.57119866429 0.60293192342 0.63466518254 0.66639844167 0.6981317008 0.72986495992 0.76159821905 0.79333147818 0.82506473731 
0.85679799643 0.88853125556 0.92026451469 0.95199777382 0.98373103294 1.0154642921 1.0471975512 1.0789308103 1.1106640695 
1.1423973286 1.1741305877 1.2058638468 1.237597106 1.2693303651 1.3010636242 1.3327968833 1.3645301425 1.3962634016 
1.4279966607 1.4597299198 1.491463179 1.5231964381 1.5549296972 1.5866629564 1.6183962155 1.6501294746 1.6818627337 
1.7135959929 1.745329252 1.7770625111 1.8087957702 1.8405290294 1.8722622885 1.9039955476 1.9357288068 1.9674620659 
1.999195325 2.0309285841 2.0626618433 2.0943951024 2.1261283615 2.1578616206 2.1895948798 2.2213281389 2.253061398 
2.2847946572 2.3165279163 2.3482611754 2.3799944345 2.4117276937 2.4434609528 2.4751942119 2.506927471 2.5386607302 
2.5703939893 2.6021272484 2.6338605076 2.6655937667 2.6973270258 2.7290602849 2.7607935441 2.7925268032 2.8242600623 
2.8559933214 2.8877265806 2.9194598397 2.9511930988 2.982926358 3.0146596171 3.0463928762 3.0781261353 3.1098593945 
3.1415926536 
_radius 1 100 double
4.5230731626e-16 0.014029884044 0.027976231223 0.041751450281 0.055272001039 0.068460271666 0.081245735227 0.093565033161 0.10536078814 
0.11657925102 0.12716726401 0.13706935311 0.14622591594 0.15457336311 0.1620467125 0.16858463446 0.17413644703 0.17867017556 
0.18218056705 0.18469587443 0.18628227506 0.18704494789 0.18712512365 0.18669287467 0.18593601919 0.18504619222 0.1842037074 
0.18356310792 0.18324114249 0.1833083249 0.18378449801 0.18463832083 0.18579054622 0.18712116613 0.18848056434 0.18970448506 
0.19063193284 0.19112427543 0.19108311309 0.19046419351 0.18928497074 0.18762432172 0.18561431978 0.18342564788 0.18124988393 
0.17928274681 0.17771146482 0.17670662994 0.17641591865 0.17695617792 0.17840227296 0.18077434013 0.18402754271 0.18804878578 
0.19266317904 0.19765021985 0.20276672728 0.20777164482 0.21244789681 0.21661830581 0.22015483356 0.22298193121 0.22507530813 
0.2264572927 0.22718960421 0.22736406243 0.22709163383 0.22649026186 0.22567215056 0.22473155013 0.22373451769 0.222712314 
0.22165969856 0.22053827905 0.21928363649 0.21781392981 0.21603766912 0.21385932433 0.21118284213 0.20791426175 0.20396495103 
0.19925643606 0.19372668402 0.18733657336 0.18007465996 0.17195847458 0.1630314163 0.15335558562 0.14300222058 0.13204222695 
0.12053918367 0.10854618229 0.0961065117 0.083257197593 0.070033994424 0.056476454626 0.042631953351 0.028557920365 0.014321964722 
1.8285330673e-16 
_area 1 100 double
0 0.00046812026276 0.001869565565 0.004194656726 0.0074237947357 0.01152177911 0.016430603786 0.022063036302 0.028299078194 
0.034985864141 0.041940253206 0.048953413404 0.055797911194 0.062238945541 0.068050874008 0.073037728925 0.077053659085 0.080018238063 
0.081922898293 0.082827353904 0.08284745516 0.082137825166 0.080873752028 0.079236895002 0.077408080586 0.075568286586 0.073909717211 
0.07271591739 0.072163995072 0.072256307703 0.072968016367 0.074230359056 0.075925995139 0.077897257594 0.079957050768 0.081903176514 
0.083539654866 0.084706721726 0.085316702398 0.085386240909 0.085039863991 0.084445736311 0.083727800253 0.082969923654 0.082256930306 
0.081678012583 0.081310961808 0.081258582503 0.081723585426 0.082691138649 0.08435016806 0.086934286709 0.090512313667 0.09504572008 
0.10038841464 0.10630695672 0.11251331154 0.11869371159 0.12453793636 0.12976568735 0.13414913922 0.13753216968 0.13984412221 
0.14110507661 0.14142234283 0.14097438907 0.13996551389 0.13856051401 0.13686583835 0.13495821623 0.13290137098 0.13074207962 
0.12850277527 0.12617817456 0.12373902231 0.12113923192 0.11832091993 0.11521594412 0.1117465302 0.10782916095 0.10338463504 
0.098354189747 0.092717957691 0.086509220936 0.079817731768 0.072778340154 0.065546442952 0.058268142543 0.051057968718 0.043995195481 
0.037138633913 0.030548259759 0.024301345766 0.018498389387 0.013260423147 0.0087209076969 0.0050146121166 0.0022650509854 0.00057189257748 
4.5556190454e-17 
