# vtk DataFile Version 5.1
vtk output
ASCII
DATASET POLYDATA
POINTS 100 float
0.218294 -0.00952164 0.686237 0.218277 -0.00968468 0.686349 0.218317 -0.0100343 0.686536 
0.218337 -0.0105582 0.686726 0.218218 -0.0112361 0.686807 0.217814 -0.0120397 0.686638 
0.21697 -0.0129337 0.686059 0.215539 -0.0138755 0.684908 0.2134 -0.014817 0.683032 
0.21047 -0.0157059 0.680301 0.206714 -0.0164878 0.676616 0.202144 -0.017109 0.671917 
0.196815 -0.0175197 0.666185 0.190817 -0.0176768 0.659443 0.184257 -0.0175476 0.651745 
0.177249 -0.0171125 0.643174 0.169895 -0.0163672 0.633832 0.162273 -0.0153243 0.623822 
0.154433 -0.0140133 0.613248 0.146387 -0.0124802 0.602196 0.13812 -0.0107847 0.590733 
0.12959 -0.00899778 0.578902 0.120748 -0.00719698 0.566721 0.111542 -0.00546223 0.554185 
0.101939 -0.00387082 0.541272 0.0919296 -0.00249287 0.527949 0.0815361 -0.00138728 0.51418 
0.0708158 -0.000598648 0.499934 0.059856 -0.000155311 0.485188 0.0487654 -6.8711e-05 0.469936 
0.0376617 -0.000334035 0.454183 0.0266577 -0.000932065 0.43795 0.0158475 -0.001832 0.421265 
0.00529524 -0.00299494 0.404159 -0.00497191 -0.00437773 0.386657 -0.0149648 -0.0059367 0.36877 
-0.0247274 -0.0076311 0.35049 -0.0343267 -0.00942586 0.331783 -0.0438373 -0.0112935 0.312591 
-0.0533242 -0.0132149 0.292831 -0.0628251 -0.0151798 0.272401 -0.0723354 -0.0171853 0.251191 
-0.0817969 -0.0192349 0.229093 -0.0910943 -0.0213362 0.206014 -0.100057 -0.0234988 0.181889 
-0.108471 -0.025732 0.156693 -0.116092 -0.028043 0.130448 -0.122671 -0.0304352 0.10323 
-0.127974 -0.0329071 0.0751664 -0.131804 -0.0354512 0.0464341 -0.134024 -0.0380545 0.0172484 
-0.134568 -0.0406977 -0.0121498 -0.133445 -0.0433563 -0.0415094 -0.130744 -0.0460004 -0.0705857 
-0.126617 -0.0485955 -0.0991567 -0.121268 -0.051103 -0.127037 -0.11493 -0.0534805 -0.154088 
-0.107842 -0.0556817 -0.180223 -0.100229 -0.0576574 -0.205409 -0.0922774 -0.0593556 -0.22966 
-0.0841268 -0.0607219 -0.253032 -0.0758598 -0.0617006 -0.275606 -0.0675036 -0.062236 -0.297477 
-0.0590373 -0.0622738 -0.318739 -0.050405 -0.0617631 -0.339472 -0.0415339 -0.0606587 -0.359732 
-0.0323525 -0.0589235 -0.379542 -0.0228091 -0.0565308 -0.398894 -0.0128865 -0.0534665 -0.417748 
-0.00261213 -0.049731 -0.436041 0.00793839 -0.0453402 -0.453695 0.0186439 -0.0403262 -0.47063 
0.0293463 -0.0347369 -0.486774 0.0398644 -0.0286348 -0.502075 0.0500101 -0.022095 -0.516508 
0.0596058 -0.0152026 -0.530082 0.0685015 -0.00804931 -0.542841 0.0765874 -0.000730425 -0.554858 
0.0838033 0.00665923 -0.566229 0.090142 0.0140284 -0.577066 0.0956477 0.0212925 -0.587484 
0.100409 0.0283761 -0.597589 0.104548 0.0352142 -0.607471 0.108208 0.0417539 -0.617188 
0.111535 0.0479537 -0.626771 0.114669 0.0537837 -0.636213 0.117729 0.059224 -0.645478 
0.120803 0.0642633 -0.654501 0.123946 0.0688967 -0.663196 0.127172 0.0731246 -0.671467 
0.130462 0.0769499 -0.679214 0.133766 0.080377 -0.686343 0.137009 0.0834104 -0.692771 
0.140099 0.086054 -0.69843 0.142938 0.08831 -0.703272 0.145425 0.0901796 -0.707261 
0.147469 0.0916625 -0.710381 0.148993 0.0927576 -0.712621 0.149939 0.0934631 -0.71398 
0.150268 0.0937772 -0.714457 
LINES 2 100
OFFSETS vtktypeint64
0 100 
CONNECTIVITY vtktypeint64
0 1 2 3 4 5 6 7 8 
9 10 11 12 13 14 15 16 17 
18 19 20 21 22 23 24 25 26 
27 28 29 30 31 32 33 34 35 
36 37 38 39 40 41 42 43 44 
45 46 47 48 49 50 51 52 53 
54 55 56 57 58 59 60 61 62 
63 64 65 66 67 68 69 70 71 
72 73 74 75 76 77 78 79 80 
81 82 83 84 85 86 87 88 89 
90 91 92 93 94 95 96 97 98 
99 
POINT_DATA 100
FIELD FieldData 3
_theta 1 100 double
0 0.031733259127 0.063466518254 0.095199777382 0.12693303651 0.15866629564 0.19039955476 0.22213281389 0.25386607302 
0.28559933214 0.31733259127 0.3490658504 0.38079910953 0.41253236865 0.44426562778 0.47599888691 0.50773214603 0.53946540516 
0.57119866429 0.60293192342 0.63466518254 0.66639844167 0.6981317008 0.72986495992 0.76159821905 0.79333147818 0.82506473731 
0.85679799643 0.88853125556 0.92026451469 0.95199777382 0.98373103294 1.0154642921 1.0471975512 1.0789308103 1.1106640695 
1.1423973286 1.1741305877 1.2058638468 1.237597106 1.2693303651 1.3010636242 1.3327968833 1.3645301425 1.3962634016 
1.4279966607 1.4597299198 1.491463179 1.5231964381 1.5549296972 1.5866629564 1.6183962155 1.6501294746 1.6818627337 
1.7135959929 1.745329252 1.7770625111 1.8087957702 1.8405290294 1.8722622885 1.9039955476 1.9357288068 1.9674620659 
1.999195325 2.0309285841 2.0626618433 2.0943951024 2.1261283615 2.1578616206 2.1895948798 2.2213281389 2.253061398 
2.2847946572 2.3165279163 2.3482611754 2.3799944345 2.4117276937 2.4434609528 2.4751942119 2.506927471 2.5386607302 
2.5703939893 2.6021272484 2.6338605076 2.6655937667 2.6973270258 2.7290602849 2.7607935441 2.7925268032 2.8242600623 
2.8559933214 2.8877265806 2.9194598397 2.9511930988 2.982926358 3.0146596171 3.0463928762 3.0781261353 3.1098593945 
3.1415926536 
_radius 1 100 double
1.1226489178e-15 0.018571783694 0.036907201744 0.054786841842 0.072025686752 0.088485159187 0.10407968511 0.11877712298 0.13259313451 
0.14558029202 0.15781341664 0.16937322789 0.18033064086 0.19073379668 0.20059927108 0.20990823447 0.21860787582 0.22661806724 
0.23384279198 0.240185177 0.24556419913 0.24993056788 0.25327918794 0.2556560584 0.25715835382 0.2579275137 0.25813619077 
0.25797070411 0.25761114747 0.25721153596 0.25688238479 0.25667792039 0.25658970439 0.25654777 0.25642946142 0.25607515957 
0.25530915556 0.25396326088 0.25190040855 0.24903552508 0.24535129954 0.24090705775 0.23583965697 0.23035606489 0.22471806445 
0.21922037614 0.21416442133 0.20983079448 0.20645390005 0.20420180833 0.20316324681 0.20334225396 0.20465994551 0.20696240729 
0.21003389582 0.2136148343 0.2174239187 0.22118280805 0.22464083527 0.22759659406 0.22991345646 0.23152701194 0.23244389462 
0.23273311695 0.23251222025 0.23193069633 0.23115236342 0.23033754928 0.22962571404 0.22911946743 0.22887136944 0.22887511904 
0.22906257358 0.22930747283 0.22943586427 0.22924223186 0.22850942814 0.22702988029 0.22462531422 0.2211624757 0.21656298431 
0.21080640255 0.20392664427 0.19600278198 0.18714597883 0.17748458924 0.16714944899 0.15626109083 0.14492017911 0.13320194885 
0.12115492206 0.10880368261 0.096155036313 0.083206485329 0.069955645816 0.056409092252 0.042589177036 0.028537686739 0.014315738344 
6.4599202993e-16 
_area 1 100 double
0 0.0007062368821 0.0027960014367 0.0061860993866 0.010749851273 0.016334239136 0.022781457588 0.029950744756 0.037733908703 
0.046057245918 0.054866610055 0.064101640013 0.073673139961 0.083455726237 0.093297167885 0.10303632427 0.11251945967 0.12160859133 
0.13018155791 0.13812830682 0.14534880016 0.15175457839 0.15727334041 0.16185897495 0.16550963117 0.16828606461 0.17031785468 
0.17179361659 0.17293902544 0.17398698207 0.17514234522 0.17654292158 0.1782179941 0.18005347015 0.1817948722 0.18310255657 
0.18362330126 0.18304952007 0.18116517618 0.17787973768 0.17324596654 0.16745661898 0.16081876513 0.15370969718 0.14652376596 
0.13962370454 0.13330902798 0.12780498897 0.12326477198 0.119774887 0.11735919288 0.11598229351 0.11555928952 0.11596980274 
0.11706651605 0.11867721757 0.12060650774 0.12264574872 0.12458513265 0.12621377235 0.12731142112 0.12767105193 0.12716392566 
0.12579296762 0.12369921558 0.12113272985 0.11840953464 0.11587541747 0.11389456694 0.11300157757 0.11347659124 0.11505898167 
0.11742901965 0.1202024077 0.12296839113 0.12533262376 0.12694771284 0.12753016337 0.12687142216 0.12484718157 0.12142339497 
0.11665483606 0.11067346288 0.1036675822 0.095856221433 0.087464512514 0.078705057836 0.069767997422 0.060819923044 0.052009502528 
0.043475845999 0.035355059512 0.027782235717 0.020889423556 0.014802100881 0.0096360720463 0.005494895921 0.0024668233336 0.00062051227289 
1.08825766e-16 
