# vtk DataFile Version 5.1
vtk output
ASCII
DATASET POLYDATA
POINTS 100 float
0.136542 -0.0483252 0.737572 0.136449 -0.0482115 0.737286 0.136128 -0.0480235 0.736602 
0.135587 -0.0477548 0.735532 0.13484 -0.0473952 0.734087 0.133903 -0.0469325 0.732275 
0.132794 -0.0463548 0.730092 0.131528 -0.0456528 0.727521 0.130116 -0.0448213 0.724523 
0.128562 -0.0438606 0.721042 0.126865 -0.0427771 0.717001 0.125015 -0.041582 0.712313 
0.122994 -0.0402907 0.706885 0.120783 -0.0389198 0.700632 0.118355 -0.0374858 0.693484 
0.115684 -0.0360022 0.6854 0.112748 -0.0344781 0.676369 0.109526 -0.0329177 0.666421 
0.106003 -0.0313202 0.65562 0.102173 -0.0296813 0.644065 0.0980363 -0.0279957 0.631876 
0.0935998 -0.0262595 0.619185 0.0888759 -0.0244738 0.606124 0.0838812 -0.0226471 0.592807 
0.0786335 -0.0207975 0.579326 0.0731503 -0.0189533 0.565738 0.0674466 -0.0171527 0.55206 
0.0615339 -0.0154414 0.538274 0.0554187 -0.0138693 0.524333 0.0491033 -0.0124859 0.510162 
0.0425858 -0.0113359 0.495676 0.0358617 -0.0104541 0.480791 0.0289262 -0.00986135 0.465428 
0.0217755 -0.00956236 0.449527 0.0144102 -0.00954455 0.433049 0.00683681 -0.00977914 0.415974 
-0.000930078 -0.0102241 0.3983 -0.00886589 -0.0108288 0.380035 -0.0169351 -0.0115395 0.361188 
-0.0250907 -0.0123055 0.341761 -0.0332738 -0.0130848 0.321739 -0.0414143 -0.0138492 0.301092 
-0.0494318 -0.0145875 0.279766 -0.0572368 -0.0153064 0.257696 -0.0647322 -0.0160301 0.234807 
-0.0718162 -0.0167971 0.211029 -0.0783837 -0.0176557 0.18631 -0.0843301 -0.0186581 0.160627 
-0.0895536 -0.0198543 0.133997 -0.0939589 -0.0212858 0.106485 -0.0974605 -0.0229807 0.0782046 
-0.0999861 -0.0249496 0.0493132 -0.101479 -0.027184 0.0200044 -0.101903 -0.0296554 -0.00950787 
-0.101239 -0.0323178 -0.0390053 -0.0994945 -0.0351098 -0.0682835 -0.0966946 -0.0379588 -0.0971678 
-0.092887 -0.0407855 -0.125526 -0.0881368 -0.0435075 -0.153276 -0.0825242 -0.0460431 -0.180387 
-0.07614 -0.048314 -0.206871 -0.0690806 -0.0502469 -0.232778 -0.0614438 -0.0517737 -0.258173 
-0.0533239 -0.0528322 -0.283128 -0.0448079 -0.0533654 -0.307694 -0.0359729 -0.0533213 -0.331896 
-0.0268848 -0.0526531 -0.355722 -0.0175978 -0.0513202 -0.379117 -0.00815626 -0.04929 -0.401989 
0.00140316 -0.0465405 -0.424217 0.0110477 -0.0430636 -0.445671 0.020745 -0.038868 -0.466223 
0.030459 -0.0339829 -0.485767 0.0401467 -0.0284591 -0.504238 0.0497562 -0.0223704 -0.521615 
0.0592251 -0.0158121 -0.537934 0.0684813 -0.00889764 -0.553275 0.077445 -0.00175444 -0.567759 
0.0860316 0.00548313 -0.58153 0.0941562 0.0126808 -0.594734 0.101739 0.019712 -0.607496 
0.108708 0.0264652 -0.619905 0.115007 0.0328493 -0.631998 0.120597 0.038798 -0.64375 
0.125459 0.0442712 -0.655076 0.129596 0.0492544 -0.665841 0.13303 0.0537557 -0.675876 
0.135804 0.0578004 -0.684997 0.137975 0.0614253 -0.693034 0.139614 0.0646716 -0.699851 
0.140796 0.0675788 -0.705371 0.141603 0.0701789 -0.709585 0.142113 0.0724931 -0.712564 
0.1424 0.0745299 -0.714449 0.142531 0.0762857 -0.715439 0.142564 0.0777469 -0.715773 
0.142546 0.0788934 -0.715701 0.142513 0.0797036 -0.715457 0.142491 0.0801584 -0.715228 
0.142494 0.0802454 -0.715139 
LINES 2 100
OFFSETS vtktypeint64
0 100 
CONNECTIVITY vtktypeint64
0 1 2 3 4 5 6 7 8 
9 10 11 12 13 14 15 16 17 
18 19 20 21 22 23 24 25 26 
27 28 29 30 31 32 33 34 35 
36 37 38 39 40 41 42 43 44 
45 46 47 48 49 50 51 52 53 
54 55 56 57 58 59 60 61 62 
63 64 65 66 67 68 69 70 71 
72 73 74 75 76 77 78 79 80 
81 82 83 84 85 86 87 88 89 
90 91 92 93 94 95 96 97 98 
99 
POINT_DATA 100
FIELD FieldData 3
_theta 1 100 double
0 0.031733259127 0.063466518254 0.095199777382 0.12693303651 0.15866629564 0.19039955476 0.22213281389 0.25386607302 
0.28559933214 0.31733259127 0.3490658504 0.38079910953 0.41253236865 0.44426562778 0.47599888691 0.50773214603 0.53946540516 
0.57119866429 0.60293192342 0.63466518254 0.66639844167 0.6981317008 0.72986495992 0.76159821905 0.79333147818 0.82506473731 
0.85679799643 0.88853125556 0.92026451469 0.95199777382 0.98373103294 1.0154642921 1.0471975512 1.0789308103 1.1106640695 
1.1423973286 1.1741305877 1.2058638468 1.237597106 1.2693303651 1.3010636242 1.3327968833 1.3645301425 1.3962634016 
1.4279966607 1.4597299198 1.491463179 1.5231964381 1.5549296972 1.5866629564 1.6183962155 1.6501294746 1.6818627337 
1.7135959929 1.745329252 1.7770625111 1.8087957702 1.8405290294 1.8722622885 1.9039955476 1.9357288068 1.9674620659 
1.999195325 2.0309285841 2.0626618433 2.0943951024 2.1261283615 2.1578616206 2.1895948798 2.2213281389 2.253061398 
2.2847946572 2.3165279163 2.3482611754 2.3799944345 2.4117276937 2.4434609528 2.4751942119 2.506927471 2.5386607302 
2.5703939893 2.6021272484 2.6338605076 2.6655937667 2.6973270258 2.7290602849 2.7607935441 2.7925268032 2.8242600623 
2.8559933214 2.8877265806 2.9194598397 2.9511930988 2.982926358 3.0146596171 3.0463928762 3.0781261353 3.1098593945 
3.1415926536 
_radius 1 100 double
2.6413408003e-16 0.01527672007 0.030456343552 0.045452040639 0.060183264848 0.07457931921 0.088583163971 0.10215453782 0.11527121758 
0.12792740402 0.14012880366 0.15188489692 0.16319993942 0.17406504909 0.18445379516 0.19432274952 0.2036167876 0.21227734631 
0.22025112681 0.22749708135 0.23399057952 0.23972481506 0.24471030551 0.24897353538 0.25255545797 0.2555099566 0.25790179294 
0.25980329504 0.26128917462 0.2624293857 0.26328068777 0.26387830106 0.26422943811 0.26431035801 0.26406791854 0.26342563123 
0.26229331646 0.26057891709 0.25820096153 0.25510043682 0.25125117891 0.24666809554 0.24141254974 0.23559415739 0.22936827596 
0.22292872944 0.21649585218 0.2103006539 0.20456666632 0.19949167504 0.19523187559 0.19189076362 0.18951407072 0.18809043694 
0.18755599623 0.18780066354 0.1886750944 0.18999919807 0.19157407115 0.19319829456 0.19468733835 0.19589288167 0.19671815413 
0.1971258997 0.19713692853 0.19681950654 0.19627294109 0.19561096342 0.19494916294 0.19439630308 0.1940464287 0.19396965968 
0.19420219901 0.1947377685 0.1955228586 0.19645729464 0.19740027422 0.19818079699 0.19861071328 0.1984985412 0.19766251414 
0.19594171819 0.19320451308 0.18935374655 0.18432866821 0.17810391044 0.17068629286 0.16211037286 0.15243356897 0.14173140463 
0.13009309953 0.11761749782 0.10440923661 0.090575120004 0.076220812315 0.061448104898 0.046353056677 0.031025223358 0.015548010894 
3.4692249147e-16 
_area 1 100 double
0 0.00064764214289 0.0025682277993 0.0056963203952 0.0099283303219 0.015131203531 0.021155059777 0.027849372558 0.03508127146 
0.042752974107 0.050812837913 0.059251705522 0.068077726661 0.077275288731 0.086770099837 0.096421082375 0.10604034686 0.11542843248 
0.12441076598 0.13286500793 0.14073325079 0.14801762095 0.1547620834 0.16102560709 0.16685199977 0.1722447583 0.17716295828 
0.18154567055 0.18534535847 0.18854633272 0.19116310074 0.19322683491 0.19477074726 0.19581793265 0.19636139489 0.19632972565 
0.19557571449 0.19392670601 0.1912511404 0.18748748405 0.18264073648 0.17677032933 0.16998432205 0.16244304652 0.15436616856 
0.14603375142 0.13777471661 0.12994093316 0.12286675049 0.11681310275 0.1119095965 0.10814051082 0.10539738025 0.10354303715 
0.10243286317 0.10189698899 0.10172385465 0.10168281467 0.10156915963 0.10123209917 0.10059610244 0.099641613539 0.098334382627 
0.09660825366 0.094451415034 0.091963076896 0.089330686462 0.086777826053 0.084520430763 0.08274394339 0.081619598059 0.081329967582 
0.081755385597 0.082751988955 0.084221868865 0.086060526567 0.087888114762 0.089493101574 0.090714104972 0.091408438941 0.091436878382 
0.090664675989 0.088976956069 0.086294721796 0.082584233863 0.0778613202 0.072193408529 0.065700025616 0.058550602417 0.050957742627 
0.043165000953 0.035430154426 0.028006723689 0.021127257985 0.014991596712 0.0097620830565 0.0055653709487 0.0024975549601 0.0006280742454 
4.8475584501e-17 
