# vtk DataFile Version 5.1
vtk output
ASCII
DATASET POLYDATA
POINTS 100 float
0.0809219 -0.013617 0.694671 0.0809473 -0.0135672 0.694533 0.0809783 -0.0135714 0.694204 
0.0809777 -0.0136236 0.693646 0.0808892 -0.013714 0.692801 0.0806467 -0.0138293 0.691594 
0.0801836 -0.0139522 0.689938 0.0794433 -0.0140623 0.687747 0.0783879 -0.0141359 0.684936 
0.0770044 -0.0141472 0.681432 0.0753067 -0.0140688 0.677178 0.0733341 -0.0138737 0.672133 
0.0711455 -0.0135362 0.666278 0.0688103 -0.0130345 0.659614 0.0663974 -0.0123521 0.652157 
0.0639636 -0.0114797 0.643937 0.061543 -0.0104168 0.634994 0.0591396 -0.00917263 0.62537 
0.0567231 -0.00776673 0.61511 0.0542294 -0.00622854 0.604254 0.0515663 -0.00459652 0.592836 
0.0486225 -0.00291644 0.580887 0.0452807 -0.00123906 0.568429 0.0414311 0.000382595 0.555481 
0.0369849 0.00189628 0.54206 0.0318866 0.00325351 0.528184 0.026121 0.00441235 0.513873 
0.0197168 0.00533976 0.499151 0.0127444 0.00601319 0.484048 0.00530854 0.00642152 0.468597 
-0.002463 0.00656498 0.452835 -0.0104338 0.00645434 0.436797 -0.0184741 0.00610923 0.420515 
-0.0264746 0.00555588 0.404013 -0.0343582 0.00482435 0.387304 -0.0420865 0.00394566 0.370385 
-0.0496612 0.00294888 0.353236 -0.0571197 0.00185851 0.335822 -0.0645254 0.000692404 0.318089 
-0.0719536 -0.000539692 0.299971 -0.0794753 -0.00183683 0.281391 -0.0871402 -0.0032067 0.262271 
-0.0949614 -0.00466476 0.242532 -0.102905 -0.00623255 0.222103 -0.110882 -0.00793551 0.200928 
-0.118754 -0.00980041 0.178969 -0.126332 -0.0118525 0.156211 -0.133397 -0.0141128 0.132662 
-0.139712 -0.0165955 0.108356 -0.145048 -0.0193058 0.0833482 -0.149196 -0.0222381 0.0577166 
-0.151995 -0.0253756 0.0315548 -0.15334 -0.0286892 0.0049689 -0.153193 -0.0321386 -0.021928 
-0.151586 -0.0356734 -0.0490204 -0.148613 -0.0392342 -0.0761942 -0.144421 -0.0427557 -0.103341 
-0.139194 -0.0461683 -0.130359 -0.13313 -0.0494014 -0.157158 -0.126423 -0.0523859 -0.183654 
-0.119243 -0.0550563 -0.209774 -0.111719 -0.0573535 -0.235454 -0.103933 -0.0592256 -0.260635 
-0.095913 -0.0606299 -0.285263 -0.087638 -0.0615331 -0.30929 -0.0790481 -0.0619115 -0.332671 
-0.0700596 -0.0617503 -0.35536 -0.0605836 -0.061043 -0.377319 -0.0505457 -0.0597904 -0.39851 
-0.0399046 -0.0579989 -0.4189 -0.0286667 -0.0556797 -0.438463 -0.0168961 -0.0528475 -0.457179 
-0.00471706 -0.0495196 -0.475038 0.00768955 -0.0457152 -0.492037 0.0200973 -0.041456 -0.508187 
0.0322508 -0.0367654 -0.523506 0.0438858 -0.0316701 -0.538024 0.0547518 -0.0262 -0.551779 
0.0646334 -0.0203899 -0.564814 0.0733693 -0.0142797 -0.577181 0.0808664 -0.00791557 -0.588931 
0.0871071 -0.00134995 -0.600116 0.0921498 0.00535825 -0.610784 0.0961219 0.0121444 -0.620977 
0.0992071 0.0189388 -0.630728 0.101626 0.0256689 -0.640061 0.103614 0.0322601 -0.648988 
0.105402 0.0386387 -0.657506 0.107188 0.0447333 -0.665601 0.109125 0.0504773 -0.673246 
0.111307 0.0558102 -0.680402 0.113761 0.060679 -0.687023 0.116446 0.0650394 -0.693054 
0.119266 0.0688551 -0.698436 0.122077 0.0720988 -0.703111 0.124709 0.0747503 -0.707022 
0.126982 0.0767962 -0.710117 0.128734 0.0782287 -0.712353 0.12983 0.0790438 -0.713697 
0.130185 0.0792407 -0.714131 
LINES 2 100
OFFSETS vtktypeint64
0 100 
CONNECTIVITY vtktypeint64
0 1 2 3 4 5 6 7 8 
9 10 11 12 13 14 15 16 17 
18 19 20 21 22 23 24 25 26 
27 28 29 30 31 32 33 34 35 
36 37 38 39 40 41 42 43 44 
45 46 47 48 49 50 51 52 53 
54 55 56 57 58 59 60 61 62 
63 64 65 66 67 68 69 70 71 
72 73 74 75 76 77 78 79 80 
81 82 83 84 85 86 87 88 89 
90 91 92 93 94 95 96 97 98 
99 
POINT_DATA 100
FIELD FieldData 3
_theta 1 100 double
0 0.031733259127 0.063466518254 0.095199777382 0.12693303651 0.15866629564 0.19039955476 0.22213281389 0.25386607302 
0.28559933214 0.31733259127 0.3490658504 0.38079910953 0.41253236865 0.44426562778 0.47599888691 0.50773214603 0.53946540516 
0.57119866429 0.60293192342 0.63466518254 0.66639844167 0.6981317008 0.72986495992 0.76159821905 0.79333147818 0.82506473731 
0.85679799643 0.88853125556 0.92026451469 0.95199777382 0.98373103294 1.0154642921 1.0471975512 1.0789308103 1.1106640695 
1.1423973286 1.1741305877 1.2058638468 1.237597106 1.2693303651 1.3010636242 1.3327968833 1.3645301425 1.3962634016 
1.4279966607 1.4597299198 1.491463179 1.5231964381 1.5549296972 1.5866629564 1.6183962155 1.6501294746 1.6818627337 
1.7135959929 1.745329252 1.7770625111 1.8087957702 1.8405290294 1.8722622885 1.9039955476 1.9357288068 1.9674620659 
1.999195325 2.0309285841 2.0626618433 2.0943951024 2.1261283615 2.1578616206 2.1895948798 2.2213281389 2.253061398 
2.2847946572 2.3165279163 2.3482611754 2.3799944345 2.4117276937 2.4434609528 2.4751942119 2.506927471 2.5386607302 
2.5703939893 2.6021272484 2.6338605076 2.6655937667 2.6973270258 2.7290602849 2.7607935441 2.7925268032 2.8242600623 
2.8559933214 2.8877265806 2.9194598397 2.9511930988 2.982926358 3.0146596171 3.0463928762 3.0781261353 3.1098593945 
3.1415926536 
_radius 1 100 double
4.4442789388e-16 0.01574235043 0.03143539601 0.047031326922 0.062477975641 0.077717113017 0.092683630303 0.10730591566 0.1215075691 
0.1352103328 0.14833782153 0.16081942566 0.17259371281 0.18361079815 0.19383343598 0.20323690395 0.21180800193 0.21954360988 
0.22644925251 0.23253805249 0.23783036265 0.24235424123 0.24614672436 0.24925553612 0.25174054074 0.25367405539 0.25513925712 
0.25622634331 0.25702667349 0.25762558873 0.25809481732 0.25848536575 0.25882171592 0.25909811193 0.25927767052 0.25929485341 
0.25906142529 0.2584754667 0.25743249967 0.25583748341 0.2536164045 0.25072635251 0.2471632085 0.24296626833 0.23821923801 
0.23304713321 0.2276088242 0.22208545556 0.21666580264 0.21153059501 0.20683837425 0.20271498477 0.19924741011 0.1964812959 
0.19442105133 0.19303183287 0.19224327339 0.19195516007 0.19204548892 0.19238129991 0.19283202997 0.1932839011 0.19365283903 
0.19389330897 0.19400132677 0.19401124915 0.19398720702 0.19401088974 0.19416762176 0.19453231265 0.19515633387 0.19605619241 
0.19720506247 0.19852836962 0.19990436456 0.20117004742 0.20213214545 0.20258221129 0.20231430284 0.20114318929 0.19892074052 
0.1955482544 0.19098301636 0.18523825661 0.17837665377 0.17049843114 0.16172581328 0.15218614587 0.14199625944 0.1312504864 
0.12001404521 0.10832253519 0.096187370653 0.083606155102 0.070576103993 0.057107797376 0.043236248056 0.029026848962 0.014575042484 
3.5589306859e-16 
_area 1 100 double
0 0.00060075425244 0.0023977058236 0.0053760309946 0.0095129561948 0.014776035014 0.021115934545 0.028455411263 0.036679005993 
0.045627965249 0.05510304215 0.064875696602 0.074706336001 0.084366656997 0.093662027429 0.10244939201 0.11064646302 0.11822909919 
0.12521627591 0.13164629441 0.13755263223 0.14294959351 0.14783372717 0.1521985794 0.15605339971 0.15943531885 0.16240936304 
0.1650576802 0.16746360248 0.16969573191 0.17179520574 0.17378354265 0.175673385 0.17741567728 0.17892516454 0.18010890048 
0.18094430115 0.18111603931 0.18028911834 0.17824498003 0.17486840069 0.17019628038 0.16437885978 0.15768175632 0.150393371 
0.14282556651 0.1353373712 0.12827477094 0.12190378777 0.11636921664 0.11168619818 0.10776528685 0.10445805134 0.10160167837 
0.099058606209 0.096792572083 0.094868554957 0.092976016005 0.091047352941 0.089169409592 0.087462791436 0.085971739844 0.084641041404 
0.083404325849 0.082263900378 0.081309985812 0.08069197394 0.080554066162 0.080970436767 0.081943647519 0.083449040541 0.08544637668 
0.087856232336 0.090531044706 0.093263235399 0.095829605518 0.098000777787 0.099550245306 0.10026981431 0.099987830597 0.098587026777 
0.096018319283 0.092306373651 0.087544424054 0.081879626568 0.07549276324 0.068577540342 0.061323841858 0.0539077216 0.046488189256 
0.039208069032 0.032196274974 0.025571387967 0.019447513409 0.013941365922 0.0091769847532 0.0052843495542 0.0023904245237 0.00060421195447 
3.3173300262e-17 
