# vtk DataFile Version 5.1
vtk output
ASCII
DATASET POLYDATA
POINTS 100 float
0.167142 -0.0251654 0.705815 0.167152 -0.0250844 0.705639 0.1671 -0.0249809 0.705273 
0.166926 -0.02485 0.704671 0.166538 -0.0246835 0.703761 0.16583 -0.0244715 0.702446 
0.164694 -0.0242032 0.700617 0.163042 -0.0238683 0.698159 0.160815 -0.0234576 0.69496 
0.157993 -0.0229642 0.690921 0.154603 -0.0223832 0.685964 0.150711 -0.0217117 0.680035 
0.146411 -0.0209486 0.673111 0.141818 -0.0200932 0.665198 0.137044 -0.0191453 0.656333 
0.132184 -0.0181037 0.646579 0.127299 -0.0169667 0.636021 0.122408 -0.0157323 0.62476 
0.117484 -0.0143989 0.612902 0.112455 -0.0129669 0.600557 0.107215 -0.0114406 0.58783 
0.101641 -0.00982983 0.574811 0.0956078 -0.00815216 0.561576 0.0890109 -0.00643406 0.548182 
0.0817809 -0.00471153 0.53466 0.0738968 -0.00302976 0.521024 0.0653916 -0.00144162 0.507261 
0.0563503 -5.12935e-06 0.493342 0.0469013 0.00122006 0.47922 0.0372003 0.00217672 0.464833 
0.0274118 0.0028144 0.450112 0.0176878 0.00309345 0.434979 0.00814948 0.00298838 0.419359 
-0.00112759 0.00248998 0.403175 -0.0101208 0.00160609 0.386361 -0.0188604 0.000360601 0.368856 
-0.0274203 -0.00120902 0.350614 -0.0359031 -0.00305566 0.331602 -0.0444185 -0.00512739 0.311803 
-0.0530604 -0.00737286 0.291213 -0.0618847 -0.00974642 0.269846 -0.0708912 -0.0122126 0.24773 
-0.0800123 -0.014749 0.224904 -0.0891105 -0.0173482 0.201417 -0.0979855 -0.0200164 0.177326 
-0.106389 -0.0227717 0.152692 -0.114048 -0.0256393 0.127581 -0.120692 -0.0286461 0.102054 
-0.126077 -0.0318147 0.0761756 -0.130015 -0.0351568 0.050004 -0.132389 -0.0386679 0.0235971 
-0.133166 -0.0423226 -0.0029897 -0.132395 -0.0460729 -0.0297014 -0.1302 -0.0498478 -0.0564816 
-0.126761 -0.0535552 -0.0832711 -0.122291 -0.0570863 -0.110006 -0.117007 -0.060322 -0.136617 
-0.111104 -0.0631399 -0.163027 -0.104734 -0.0654222 -0.189156 -0.0979888 -0.0670631 -0.214917 
-0.0908953 -0.067976 -0.240224 -0.0834167 -0.0680983 -0.264991 -0.0754667 -0.0673946 -0.28914 
-0.0669298 -0.065858 -0.312598 -0.057686 -0.0635086 -0.33531 -0.0476377 -0.0603905 -0.357233 
-0.036734 -0.0565667 -0.378345 -0.02499 -0.0521137 -0.398639 -0.0124975 -0.0471147 -0.418129 
0.000573444 -0.0416535 -0.436842 0.0139825 -0.0358096 -0.454819 0.0274367 -0.0296534 -0.472107 
0.0406136 -0.0232436 -0.48876 0.0531896 -0.0166266 -0.504826 0.0648675 -0.0098365 -0.52035 
0.0754023 -0.00289727 -0.535369 0.0846203 0.00417432 -0.549905 0.0924312 0.0113652 -0.563971 
0.0988311 0.0186622 -0.577565 0.103896 0.0260488 -0.590675 0.10777 0.0335019 -0.60328 
0.110643 0.0409903 -0.615352 0.112732 0.048474 -0.626862 0.114256 0.0559038 -0.637779 
0.115416 0.0632232 -0.648076 0.116384 0.07037 -0.657731 0.117284 0.0772794 -0.666726 
0.118199 0.0838863 -0.675052 0.119164 0.0901286 -0.682703 0.120181 0.0959492 -0.689677 
0.121224 0.101298 -0.695978 0.122252 0.106135 -0.701608 0.123222 0.110427 -0.706573 
0.124094 0.114151 -0.710874 0.12484 0.117291 -0.714513 0.125444 0.119839 -0.717491 
0.125902 0.121792 -0.719807 0.126217 0.123149 -0.721458 0.126397 0.123913 -0.722443 
0.126449 0.124085 -0.72276 
LINES 2 100
OFFSETS vtktypeint64
0 100 
CONNECTIVITY vtktypeint64
0 1 2 3 4 5 6 7 8 
9 10 11 12 13 14 15 16 17 
18 19 20 21 22 23 24 25 26 
27 28 29 30 31 32 33 34 35 
36 37 38 39 40 41 42 43 44 
45 46 47 48 49 50 51 52 53 
54 55 56 57 58 59 60 61 62 
63 64 65 66 67 68 69 70 71 
72 73 74 75 76 77 78 79 80 
81 82 83 84 85 86 87 88 89 
90 91 92 93 94 95 96 97 98 
99 
POINT_DATA 100
FIELD FieldData 3
_theta 1 100 double
0 0.031733259127 0.063466518254 0.095199777382 0.12693303651 0.15866629564 0.19039955476 0.22213281389 0.25386607302 
0.28559933214 0.31733259127 0.3490658504 0.38079910953 0.41253236865 0.44426562778 0.47599888691 0.50773214603 0.53946540516 
0.57119866429 0.60293192342 0.63466518254 0.66639844167 0.6981317008 0.72986495992 0.76159821905 0.79333147818 0.82506473731 
0.85679799643 0.88853125556 0.92026451469 0.95199777382 0.98373103294 1.0154642921 1.0471975512 1.0789308103 1.1106640695 
1.1423973286 1.1741305877 1.2058638468 1.237597106 1.2693303651 1.3010636242 1.3327968833 1.3645301425 1.3962634016 
1.4279966607 1.4597299198 1.491463179 1.5231964381 1.5549296972 1.5866629564 1.6183962155 1.6501294746 1.6818627337 
1.7135959929 1.745329252 1.7770625111 1.8087957702 1.8405290294 1.8722622885 1.9039955476 1.9357288068 1.9674620659 
1.999195325 2.0309285841 2.0626618433 2.0943951024 2.1261283615 2.1578616206 2.1895948798 2.2213281389 2.253061398 
2.2847946572 2.3165279163 2.3482611754 2.3799944345 2.4117276937 2.4434609528 2.4751942119 2.506927471 2.5386607302 
2.5703939893 2.6021272484 2.6338605076 2.6655937667 2.6973270258 2.7290602849 2.7607935441 2.7925268032 2.8242600623 
2.8559933214 2.8877265806 2.9194598397 2.9511930988 2.982926358 3.0146596171 3.0463928762 3.0781261353 3.1098593945 
3.1415926536 
_radius 1 100 double
1.9122948306e-15 0.016233570957 0.03233066398 0.048168234473 0.063642587615 0.078675241141 0.093215103782 0.10723666224 0.12073435595 
0.13371382188 0.14618127665 0.15813291572 0.16954658477 0.18037776815 0.19056101398 0.20001657375 0.20866084044 0.21641854955 
0.22323470209 0.2290845376 0.23398035995 0.23797445275 0.24115769687 0.24365385351 0.24560982736 0.24718257372 0.24852367023 
0.2497629956 0.25099347154 0.25225923958 0.25354954877 0.25479977146 0.25589960667 0.25670725687 0.25706758269 0.25683198382 
0.25587783867 0.25412555251 0.25155150142 0.2481954199 0.24416115531 0.23961030296 0.23474906954 0.22980968779 0.22502860153 
0.22062422215 0.2167772091 0.2136159461 0.21120916746 0.20956649079 0.2086460356 0.20836677986 0.20862246554 0.20929414507 
0.21025971665 0.21140034578 0.21260476649 0.21377274596 0.21481860647 0.21567499087 0.21629639882 0.21666168112 0.21677475369 
0.21666314354 0.21637434486 0.21597017716 0.21551944807 0.21508937599 0.21473644403 0.21449751327 0.2143820879 0.21436671997 
0.21439264121 0.21436753204 0.2141717075 0.21366809486 0.21271455097 0.21117658467 0.20893852044 0.20591155385 0.20203788485 
0.19729095699 0.19167252873 0.18520767015 0.17793876247 0.16991927266 0.16120767016 0.15186156596 0.1419321539 0.13145934823 
0.12046847962 0.10896972101 0.096961255649 0.084436458077 0.071394218372 0.057850413539 0.043847856428 0.029462111244 0.014801378545 
4.6075602154e-16 
_area 1 100 double
0 0.00072022581589 0.0028499176851 0.0062998341775 0.010933210517 0.016582310308 0.023068840688 0.030225325503 0.037913194824 
0.046032082773 0.054515324142 0.063311025237 0.072355772197 0.08155368766 0.090771583236 0.09985244592 0.10864077853 0.11700894088 
0.12487400417 0.13219867064 0.13897676924 0.14521173205 0.15090044082 0.15603078974 0.16059194921 0.16458916009 0.16805397637 
0.17104471021 0.1736371501 0.17590943248 0.17792540004 0.17971845198 0.1812751735 0.1825177867 0.18329050548 0.18336586471 
0.18248514035 0.18042354118 0.1770547411 0.17239463131 0.16661430466 0.16001969472 0.1530029643 0.14597953584 0.1393301462 
0.13336258944 0.12829303676 0.12423384952 0.1211790528 0.11900321377 0.11749785352 0.11643148821 0.11559601287 0.11482753683 
0.11401277337 0.11309157016 0.11205725013 0.11095001678 0.10983880136 0.10879285739 0.10784956625 0.10698988322 0.1061436371 
0.10523372768 0.10422956884 0.10317702676 0.10219582003 0.10144852511 0.10109252138 0.1012324248 0.10188761237 0.1029816382 
0.10435697689 0.10580957598 0.10712581199 0.10810733711 0.10858239949 0.10841008572 0.10748295358 0.10572922175 0.10311334539 
0.099634349717 0.095322810734 0.090237736291 0.084463317068 0.078104329958 0.071279433272 0.064113219163 0.056729519264 0.049249196087 
0.041794118665 0.034494707518 0.02749507172 0.020951948141 0.015028920126 0.0098894400842 0.0056899441662 0.0025716535297 0.00064960836427 
2.7755575616e-17 
