# vtk DataFile Version 5.1
vtk output
ASCII
DATASET POLYDATA
POINTS 100 float
0.143142 0.110098 -0.700841 0.143348 0.109821 -0.700837 0.143897 0.109184 -0.700821 
0.144731 0.108203 -0.700722 0.145766 0.106904 -0.700432 0.146887 0.10531 -0.699812 
0.147965 0.103436 -0.698713 0.148861 0.101285 -0.696986 0.149434 0.0988362 -0.694497 
0.149552 0.0960496 -0.691142 0.149098 0.0928612 -0.686849 0.147972 0.0891905 -0.681588 
0.146099 0.0849475 -0.675365 0.143426 0.0800445 -0.668216 0.139928 0.074408 -0.6602 
0.135598 0.0679912 -0.651387 0.130454 0.0607854 -0.641843 0.124532 0.0528274 -0.631623 
0.117883 0.0442035 -0.620761 0.110575 0.0350487 -0.609266 0.102687 0.02554 -0.597119 
0.0943083 0.0158865 -0.584281 0.0855362 0.00631543 -0.570696 0.0764728 -0.00294409 -0.556304 
0.0672216 -0.0116768 -0.541047 0.0578836 -0.0196964 -0.524886 0.0485522 -0.0268572 -0.507803 
0.0393086 -0.033062 -0.48981 0.0302173 -0.038265 -0.470947 0.021322 -0.0424702 -0.451285 
0.0126436 -0.0457251 -0.430912 0.00417977 -0.0481116 -0.40993 -0.00409272 -0.0497337 -0.388441 
-0.0122133 -0.0507061 -0.366534 -0.0202302 -0.0511423 -0.34428 -0.028192 -0.0511456 -0.321719 
-0.0361368 -0.0508027 -0.29886 -0.0440828 -0.0501808 -0.27568 -0.0520192 -0.0493276 -0.252127 
-0.0599001 -0.0482748 -0.228133 -0.0676409 -0.0470427 -0.203622 -0.0751197 -0.0456461 -0.178522 
-0.0821822 -0.0440999 -0.15278 -0.0886512 -0.0424235 -0.126374 -0.0943385 -0.0406433 -0.0993199 
-0.09906 -0.0387926 -0.071675 -0.10265 -0.03691 -0.0435411 -0.104977 -0.0350354 -0.0150586 
-0.105952 -0.033205 0.0136009 -0.105541 -0.0314468 0.0422457 -0.103763 -0.0297765 0.0706771 
-0.100693 -0.0281947 0.0987025 -0.0964512 -0.0266868 0.126148 -0.0911929 -0.0252255 0.152868 
-0.0850963 -0.0237749 0.178753 -0.0783459 -0.0222968 0.203735 -0.0711181 -0.020758 0.227781 
-0.0635686 -0.0191374 0.250899 -0.0558226 -0.0174315 0.273124 -0.0479703 -0.0156592 0.294513 
-0.0400657 -0.0138624 0.315136 -0.0321308 -0.0121047 0.335069 -0.0241627 -0.0104662 0.354382 
-0.0161436 -0.00903723 0.373139 -0.00805082 -0.00790875 0.391387 0.00013247 -0.00716344 0.409165 
0.00840994 -0.00686662 0.426493 0.016767 -0.00705898 0.443383 0.0251695 -0.00775176 0.459839 
0.0335664 -0.00892487 0.475858 0.0418952 -0.0105283 0.491439 0.0500899 -0.0124865 0.506581 
0.05809 -0.0147052 0.521284 0.0658484 -0.0170796 0.535553 0.0733383 -0.0195037 0.549391 
0.0805569 -0.0218782 0.562805 0.0875254 -0.0241179 0.575796 0.0942856 -0.0261566 0.588361 
0.100893 -0.0279495 0.600488 0.107409 -0.0294732 0.612157 0.113888 -0.0307231 0.623341 
0.120369 -0.0317099 0.634 0.126868 -0.0324544 0.644093 0.133373 -0.0329824 0.653574 
0.139841 -0.0333204 0.662396 0.146199 -0.0334921 0.670517 0.152356 -0.033517 0.677906 
0.158207 -0.0334098 0.68454 0.163646 -0.0331818 0.690412 0.168578 -0.0328431 0.695527 
0.172929 -0.0324052 0.699909 0.176653 -0.0318834 0.703594 0.179739 -0.0312987 0.70663 
0.182207 -0.0306783 0.709075 0.184106 -0.0300546 0.710989 0.185505 -0.0294639 0.712436 
0.186484 -0.0289429 0.713474 0.187122 -0.0285252 0.714156 0.187484 -0.028238 0.714523 
0.187612 -0.028099 0.714599 
LINES 2 100
OFFSETS vtktypeint64
0 100 
CONNECTIVITY vtktypeint64
0 1 2 3 4 5 6 7 8 
9 10 11 12 13 14 15 16 17 
18 19 20 21 22 23 24 25 26 
27 28 29 30 31 32 33 34 35 
36 37 38 39 40 41 42 43 44 
45 46 47 48 49 50 51 52 53 
54 55 56 57 58 59 60 61 62 
63 64 65 66 67 68 69 70 71 
72 73 74 75 76 77 78 79 80 
81 82 83 84 85 86 87 88 89 
90 91 92 93 94 95 96 97 98 
99 
POINT_DATA 100
FIELD FieldData 3
_theta 1 100 double
0 0.031733259127 0.063466518254 0.095199777382 0.12693303651 0.15866629564 0.19039955476 0.22213281389 0.25386607302 
0.28559933214 0.31733259127 0.3490658504 0.38079910953 0.41253236865 0.44426562778 0.47599888691 0.50773214603 0.53946540516 
0.57119866429 0.60293192342 0.63466518254 0.66639844167 0.6981317008 0.72986495992 0.76159821905 0.79333147818 0.82506473731 
0.85679799643 0.88853125556 0.92026451469 0.95199777382 0.98373103294 1.0154642921 1.0471975512 1.0789308103 1.1106640695 
1.1423973286 1.1741305877 1.2058638468 1.237597106 1.2693303651 1.3010636242 1.3327968833 1.3645301425 1.3962634016 
1.4279966607 1.4597299198 1.491463179 1.5231964381 1.5549296972 1.5866629564 1.6183962155 1.6501294746 1.6818627337 
1.7135959929 1.745329252 1.7770625111 1.8087957702 1.8405290294 1.8722622885 1.9039955476 1.9357288068 1.9674620659 
1.999195325 2.0309285841 2.0626618433 2.0943951024 2.1261283615 2.1578616206 2.1895948798 2.2213281389 2.253061398 
2.2847946572 2.3165279163 2.3482611754 2.3799944345 2.4117276937 2.4434609528 2.4751942119 2.506927471 2.5386607302 
2.5703939893 2.6021272484 2.6338605076 2.6655937667 2.6973270258 2.7290602849 2.7607935441 2.7925268032 2.8242600623 
2.8559933214 2.8877265806 2.9194598397 2.9511930988 2.982926358 3.0146596171 3.0463928762 3.0781261353 3.1098593945 
3.1415926536 
_radius 1 100 double
1.3394761424e-15 0.016976302027 0.033797904411 0.050316849256 0.066392619713 0.081895519566 0.096709713793 0.11073562982 0.1238913327 
0.13611253491 0.14735113319 0.15757254823 0.16675256233 0.17487465328 0.18192886898 0.18791300335 0.19283625002 0.19672476548 
0.19962788476 0.20162331916 0.20281967019 0.20335503482 0.20339124317 0.20310416224 0.20267127963 0.20225823466 0.20200596845 
0.20201976637 0.20236091979 0.2030414062 0.20402209938 0.20521541009 0.2064934003 0.20770182169 0.20867918918 0.20927847523 
0.2093880258 0.2089481909 0.20796081217 0.20648996637 0.20465412474 0.20261175611 0.20054369614 0.19863583527 0.19706482427 
0.19598793459 0.19553651477 0.19581129561 0.19687767807 0.19876029899 0.20143816235 0.20484323233 0.20886520266 0.21336288141 
0.21817974874 0.22315976627 0.2281600778 0.23305893055 0.23775878219 0.24218557148 0.24628551262 0.2500207255 0.25336474163 
0.25629858591 0.25880782987 0.26088078364 0.26250782635 0.26368172235 0.26439859751 0.26465906765 0.26446888604 0.26383850017 
0.26278113328 0.26130939468 0.25943084364 0.25714323259 0.25443025349 0.25125852642 0.24757638829 0.24331484187 0.23839084616 
0.23271294732 0.22618901691 0.21873554645 0.21028756059 0.20080784205 0.19029394375 0.17878153809 0.16634311024 0.15308183487 
0.13912153219 0.12459457383 0.10963010106 0.094344639832 0.07883624277 0.063182160283 0.047439305098 0.031646618613 0.015828660033 
1.5084186194e-15 
_area 1 100 double
0 0.0006792548454 0.0027063709396 0.0060470529922 0.010636932715 0.016373014566 0.023106254743 0.030638941496 0.038729290835 
0.047103228731 0.055471062674 0.063545747533 0.071059912413 0.077780195554 0.083518863071 0.088143296404 0.091583320741 0.093835071007 
0.0949594794 0.095074523162 0.094342769867 0.092957953698 0.091134749123 0.089104180852 0.087113847092 0.085428443799 0.084319182471 
0.083973527219 0.08435652944 0.085336976364 0.086796610719 0.088616062975 0.090650638618 0.092722514396 0.094633568723 0.096196652573 
0.09727825712 0.097843345877 0.097994809302 0.09799704676 0.098199768523 0.098760775985 0.09960440994 0.10065285357 0.10190120441 
0.10340621251 0.10523247314 0.1074243951 0.11000748643 0.11303657983 0.11658234466 0.12068588234 0.12532376004 0.13040846842 
0.13581061126 0.14138595566 0.14699731859 0.15252342856 0.15785377107 0.16287771823 0.16748035742 0.17154986515 0.17499036059 
0.17773264005 0.17974005568 0.18101006063 0.18157206216 0.18148058468 0.18080194841 0.17959701376 0.17790941947 0.17576485515 
0.17317533973 0.17014130605 0.16665095923 0.16267954978 0.15819059261 0.15314046066 0.14748673021 0.14119802748 0.13426166503 
0.12668728995 0.11850788061 0.10978057344 0.10058845136 0.091042232508 0.081279588313 0.071460237347 0.061756476562 0.052340588316 
0.043372114462 0.034988858543 0.027304698657 0.020414276125 0.01440091591 0.0093427396007 0.0053139104935 0.0023812242195 0.00059832014414 
8.7833084712e-17 
