# vtk DataFile Version 5.1
vtk output
ASCII
DATASET POLYDATA
POINTS 100 float
0.120795 -0.0361065 0.703851 0.120939 -0.0359954 0.703568 0.121288 -0.0358136 0.702898 
0.121801 -0.035575 0.701834 0.122415 -0.0352991 0.700358 0.123053 -0.0350079 0.698448 
0.123633 -0.0347215 0.696071 0.124072 -0.0344542 0.693188 0.124298 -0.0342114 0.689757 
0.12425 -0.0339878 0.68573 0.123887 -0.0337672 0.68106 0.123184 -0.0335238 0.675704 
0.122127 -0.0332256 0.669627 0.120714 -0.0328385 0.662804 0.118945 -0.0323314 0.655225 
0.116819 -0.0316804 0.646895 0.114324 -0.0308731 0.637836 0.111443 -0.0299107 0.628084 
0.108146 -0.0288083 0.617685 0.104397 -0.0275935 0.606694 0.100159 -0.026303 0.595164 
0.0954016 -0.0249773 0.58315 0.0901077 -0.0236557 0.570694 0.084281 -0.0223696 0.557831 
0.0779512 -0.0211387 0.544581 0.0711761 -0.0199668 0.530957 0.0640396 -0.0188412 0.51696 
0.0566466 -0.0177334 0.502586 0.0491133 -0.0166032 0.487834 0.0415562 -0.0154038 0.472704 
0.0340794 -0.0140885 0.457206 0.0267621 -0.0126187 0.44136 0.0196497 -0.01097 0.425193 
0.0127476 -0.00913873 0.408739 0.00602029 -0.00714457 0.392031 -0.000603504 -0.00503216 0.375096 
-0.00722129 -0.00286918 0.357944 -0.0139422 -0.000742003 0.340564 -0.0208701 0.00125064 0.32292 
-0.028085 0.00300542 0.304944 -0.0356273 0.00442266 0.286539 -0.0434837 0.00541406 0.267591 
-0.0515804 0.00590916 0.24797 -0.0597814 0.00585984 0.22755 -0.0678948 0.00524243 0.206219 
-0.0756851 0.00405747 0.183898 -0.0828921 0.00232717 0.160553 -0.0892523 9.1342e-05 0.136204 
-0.0945228 -0.00259782 0.11093 -0.0985026 -0.00568099 0.0848671 -0.101051 -0.00909652 0.0582008 
-0.102102 -0.012784 0.0311534 -0.101666 -0.0166861 0.00396506 -0.0998304 -0.020749 -0.0231262 
-0.0967476 -0.0249209 -0.0499051 -0.0926197 -0.0291494 -0.0761972 -0.0876765 -0.0333786 -0.101883 
-0.0821532 -0.0375456 -0.126903 -0.0762666 -0.0415786 -0.151262 -0.0701962 -0.0453956 -0.175018 
-0.0640692 -0.0489057 -0.198268 -0.0579521 -0.0520108 -0.221131 -0.0518504 -0.0546108 -0.243727 
-0.0457144 -0.0566086 -0.266154 -0.0394523 -0.0579165 -0.28847 -0.0329469 -0.0584624 -0.310683 
-0.0260753 -0.0581951 -0.332742 -0.0187289 -0.0570884 -0.354541 -0.0108306 -0.0551432 -0.375931 
-0.00234916 -0.0523871 -0.396735 0.00669337 -0.0488729 -0.416768 0.0162191 -0.0446739 -0.435861 
0.0260987 -0.0398791 -0.453884 0.0361607 -0.0345873 -0.470757 0.0462057 -0.0289008 -0.486468 
0.0560228 -0.0229208 -0.501068 0.0654064 -0.016743 -0.514667 0.0741727 -0.0104553 -0.52742 
0.0821729 -0.00413685 -0.539502 0.0893027 0.00214169 -0.551089 0.0955077 0.00831641 -0.56233 
0.100783 0.0143283 -0.573325 0.10517 0.0201215 -0.584112 0.108747 0.0256418 -0.594657 
0.111621 0.0308362 -0.604858 0.113916 0.0356541 -0.614556 0.115759 0.0400488 -0.623555 
0.117272 0.0439809 -0.631647 0.118562 0.047421 -0.638643 0.119715 0.0503534 -0.644396 
0.120793 0.0527786 -0.648827 0.121831 0.0547144 -0.65194 0.122842 0.0561959 -0.653823 
0.123818 0.0572732 -0.654647 0.124736 0.0580077 -0.654651 0.125562 0.0584667 -0.65411 
0.12626 0.0587173 -0.653315 0.126793 0.0588197 -0.652533 0.127134 0.0588218 -0.651981 
0.12726 0.0587538 -0.6518 
LINES 2 100
OFFSETS vtktypeint64
0 100 
CONNECTIVITY vtktypeint64
0 1 2 3 4 5 6 7 8 
9 10 11 12 13 14 15 16 17 
18 19 20 21 22 23 24 25 26 
27 28 29 30 31 32 33 34 35 
36 37 38 39 40 41 42 43 44 
45 46 47 48 49 50 51 52 53 
54 55 56 57 58 59 60 61 62 
63 64 65 66 67 68 69 70 71 
72 73 74 75 76 77 78 79 80 
81 82 83 84 85 86 87 88 89 
90 91 92 93 94 95 96 97 98 
99 
POINT_DATA 100
FIELD FieldData 3
_theta 1 100 double
0 0.031733259127 0.063466518254 0.095199777382 0.12693303651 0.15866629564 0.19039955476 0.22213281389 0.25386607302 
0.28559933214 0.31733259127 0.3490658504 0.38079910953 0.41253236865 0.44426562778 0.47599888691 0.50773214603 0.53946540516 
0.57119866429 0.60293192342 0.63466518254 0.66639844167 0.6981317008 0.72986495992 0.76159821905 0.79333147818 0.82506473731 
0.85679799643 0.88853125556 0.92026451469 0.95199777382 0.98373103294 1.0154642921 1.0471975512 1.0789308103 1.1106640695 
1.1423973286 1.1741305877 1.2058638468 1.237597106 1.2693303651 1.3010636242 1.3327968833 1.3645301425 1.3962634016 
1.4279966607 1.4597299198 1.491463179 1.5231964381 1.5549296972 1.5866629564 1.6183962155 1.6501294746 1.6818627337 
1.7135959929 1.745329252 1.7770625111 1.8087957702 1.8405290294 1.8722622885 1.9039955476 1.9357288068 1.9674620659 
1.999195325 2.0309285841 2.0626618433 2.0943951024 2.1261283615 2.1578616206 2.1895948798 2.2213281389 2.253061398 
2.2847946572 2.3165279163 2.3482611754 2.3799944345 2.4117276937 2.4434609528 2.4751942119 2.506927471 2.5386607302 
2.5703939893 2.6021272484 2.6338605076 2.6655937667 2.6973270258 2.7290602849 2.7607935441 2.7925268032 2.8242600623 
2.8559933214 2.8877265806 2.9194598397 2.9511930988 2.982926358 3.0146596171 3.0463928762 3.0781261353 3.1098593945 
3.1415926536 
_radius 1 100 double
3.402181501e-16 0.015785124037 0.031445844525 0.046869356558 0.061955589266 0.076622268521 0.090808744816 0.10447812864 0.11761720208 
0.13023357907 0.14234980346 0.15399460714 0.16519236501 0.17595262579 0.18626206192 0.19608091954 0.20534503874 0.21397312471 
0.22187772927 0.22897774035 0.23521014475 0.24053926475 0.24496234683 0.24851111894 0.25124959843 0.25326891136 0.25468007582 
0.25560556575 0.25617010639 0.25649080878 0.25666672776 0.25676836125 0.25682833096 0.25683507373 0.25673143274 0.25641946191 
0.2557717539 0.25464844716 0.2529179293 0.25047830966 0.24727629806 0.24332045994 0.23868684137 0.23351629386 0.22800408037 
0.22238328868 0.21690419304 0.21181206288 0.20732604559 0.20362155902 0.20081800324 0.19897253371 0.19807931949 0.19807263127 
0.19883200458 0.20018898114 0.20193688339 0.20384610983 0.2056861023 0.20725166485 0.20838804729 0.20900863276 0.20910145707 
0.20872436707 0.20799148736 0.20705483558 0.20608441579 0.20524873551 0.20469653608 0.20454023862 0.20484203566 0.20560407195 
0.20676422368 0.20819848843 0.20973012608 0.21114467465 0.21220901084 0.21269197273 0.21238389213 0.21111269119 0.20875482016 
0.2052400892 0.20055027517 0.19471219868 0.18778668645 0.17985536213 0.17100744611 0.16132861859 0.15089348796 0.13976238785 
0.12798229212 0.11559085173 0.10262213367 0.089112634279 0.07510643878 0.060658824973 0.045838015109 0.030725091482 0.015412290602 
1.4675181986e-15 
_area 1 100 double
0 0.00065805718146 0.0026101015825 0.0057910442001 0.010097146542 0.015394323638 0.021531109789 0.028355702335 0.035734570001 
0.043568180134 0.051798513578 0.060404328363 0.069383808293 0.078728800624 0.088398266678 0.098299736308 0.10828560475 0.11816566885 
0.12773095241 0.13678069962 0.14514551815 0.15270281211 0.15938348482 0.16517080388 0.1700937158 0.17421771826 0.1776360215 
0.18046172141 0.18281882339 0.18482898704 0.1865939724 0.18817882035 0.18960098072 0.19082388908 0.1917485924 0.19221576469 
0.19220873476 0.19123522647 0.18898645457 0.18534696285 0.18039955576 0.17450871603 0.16756746448 0.15981230151 0.15167221119 
0.14362839158 0.13614121169 0.12958162858 0.12416991619 0.11994162735 0.11676838984 0.11443625559 0.11274033774 0.1115503769 
0.11084087726 0.11067447904 0.1110187631 0.1116304269 0.11224156996 0.11262060151 0.11256411023 0.11190616477 0.11057153343 
0.10863176823 0.10629401873 0.10382210904 0.10147662276 0.099509399217 0.098150303271 0.097577118725 0.097885085725 0.099069490779 
0.10102562386 0.10363379698 0.10684554235 0.11012260678 0.11295649974 0.11505812846 0.11618882451 0.1161664321 0.11487388462 
0.11226287554 0.10835098933 0.10321318197 0.096969950299 0.08977518417 0.081806417697 0.073258787508 0.064341916317 0.0552773448 
0.0462940455 0.037620891638 0.029476731849 0.022059985946 0.015540045813 0.010052292808 0.0056974770766 0.0025449284879 0.00063803728057 
6.6671732749e-17 
