# vtk DataFile Version 5.1
vtk output
ASCII
DATASET POLYDATA
POINTS 100 float
0.118435 0.0756369 -0.573013 0.118523 0.0756295 -0.573063 0.118744 0.0757305 -0.57316 
0.119081 0.0758745 -0.573237 0.119504 0.0759597 -0.57319 0.119971 0.0758582 -0.572887 
0.120431 0.0754294 -0.572182 0.120823 0.0745346 -0.570929 0.121079 0.0730504 -0.568993 
0.121124 0.0708815 -0.566263 0.120881 0.0679688 -0.56266 0.12027 0.0642952 -0.558139 
0.119216 0.0598854 -0.552693 0.117647 0.0548035 -0.546345 0.115503 0.0491459 -0.539141 
0.112732 0.0430325 -0.531145 0.109299 0.0365963 -0.522424 0.105189 0.0299732 -0.513041 
0.1004 0.0232931 -0.503045 0.0949554 0.0166727 -0.492465 0.0888941 0.0102112 -0.481311 
0.0822743 0.0039885 -0.46957 0.0751693 -0.00193448 -0.457212 0.0676642 -0.00751306 -0.444198 
0.0598511 -0.0127153 -0.430485 0.0518251 -0.0175182 -0.416035 0.0436788 -0.0219041 -0.400821 
0.0354977 -0.0258586 -0.384838 0.0273562 -0.0293696 -0.368096 0.0193147 -0.0324276 -0.35063 
0.0114178 -0.0350273 -0.332493 0.00369442 -0.0371705 -0.31375 -0.00384096 -0.0388678 -0.294475 
-0.0111852 -0.0401412 -0.274742 -0.018342 -0.0410243 -0.25462 -0.0253171 -0.041562 -0.234166 
-0.0321124 -0.041808 -0.213424 -0.0387206 -0.0418213 -0.192423 -0.0451205 -0.0416613 -0.171181 
-0.0512737 -0.0413826 -0.149707 -0.0571225 -0.0410308 -0.128012 -0.0625905 -0.040638 -0.106108 
-0.067585 -0.0402213 -0.084024 -0.072001 -0.0397824 -0.0618044 -0.0757277 -0.0393098 -0.0395156 
-0.0786557 -0.0387824 -0.0172455 -0.0806847 -0.0381747 0.00489832 -0.0817316 -0.0374628 0.0267947 
-0.0817373 -0.0366298 0.0483162 -0.0806721 -0.0356703 0.0693382 -0.0785389 -0.0345935 0.0897492 
-0.0753741 -0.0334238 0.10946 -0.071246 -0.0321993 0.128409 -0.0662502 -0.0309684 0.146573 
-0.0605032 -0.0297843 0.163959 -0.0541346 -0.0286993 0.180613 -0.0472777 -0.0277586 0.196608 
-0.0400607 -0.0269954 0.212037 -0.0325985 -0.0264275 0.227005 -0.0249857 -0.0260557 0.241619 
-0.017292 -0.0258655 0.255976 -0.00956054 -0.0258296 0.270156 -0.00180799 -0.0259134 0.284215 
0.0059716 -0.0260806 0.298183 0.0138014 -0.0262989 0.312062 0.0217146 -0.0265451 0.325834 
0.0297457 -0.0268081 0.339463 0.0379227 -0.0270899 0.352903 0.046259 -0.0274039 0.366109 
0.0547473 -0.0277711 0.379041 0.0633558 -0.0282142 0.391678 0.0720265 -0.0287513 0.404011 
0.0806766 -0.0293893 0.416057 0.0892025 -0.0301182 0.427846 0.0974856 -0.0309087 0.439424 
0.105401 -0.0317111 0.450842 0.112824 -0.0324584 0.462148 0.119643 -0.0330717 0.47338 
0.125764 -0.0334687 0.484554 0.131121 -0.0335726 0.495659 0.135675 -0.0333221 0.506652 
0.139424 -0.0326804 0.517458 0.142398 -0.0316409 0.527974 0.144655 -0.0302307 0.538073 
0.146279 -0.0285099 0.547613 0.147373 -0.0265666 0.55645 0.148047 -0.0245094 0.564452 
0.148414 -0.0224559 0.571507 0.148581 -0.0205212 0.577537 0.148642 -0.018806 0.582504 
0.148669 -0.0173861 0.586419 0.148718 -0.016305 0.589336 0.148816 -0.0155707 0.591356 
0.148976 -0.0151565 0.592611 0.149187 -0.0150061 0.59326 0.149428 -0.0150421 0.593473 
0.149672 -0.0151774 0.593415 0.149887 -0.0153277 0.593233 0.150047 -0.0154224 0.593043 
0.150134 -0.0154153 0.592919 
LINES 2 100
OFFSETS vtktypeint64
0 100 
CONNECTIVITY vtktypeint64
0 1 2 3 4 5 6 7 8 
9 10 11 12 13 14 15 16 17 
18 19 20 21 22 23 24 25 26 
27 28 29 30 31 32 33 34 35 
36 37 38 39 40 41 42 43 44 
45 46 47 48 49 50 51 52 53 
54 55 56 57 58 59 60 61 62 
63 64 65 66 67 68 69 70 71 
72 73 74 75 76 77 78 79 80 
81 82 83 84 85 86 87 88 89 
90 91 92 93 94 95 96 97 98 
99 
POINT_DATA 100
FIELD FieldData 3
_theta 1 100 double
0 0.031733259127 0.063466518254 0.095199777382 0.12693303651 0.15866629564 0.19039955476 0.22213281389 0.25386607302 
0.28559933214 0.31733259127 0.3490658504 0.38079910953 0.41253236865 0.44426562778 0.47599888691 0.50773214603 0.53946540516 
0.57119866429 0.60293192342 0.63466518254 0.66639844167 0.6981317008 0.72986495992 0.76159821905 0.79333147818 0.82506473731 
0.85679799643 0.88853125556 0.92026451469 0.95199777382 0.98373103294 1.0154642921 1.0471975512 1.0789308103 1.1106640695 
1.1423973286 1.1741305877 1.2058638468 1.237597106 1.2693303651 1.3010636242 1.3327968833 1.3645301425 1.3962634016 
1.4279966607 1.4597299198 1.491463179 1.5231964381 1.5549296972 1.5866629564 1.6183962155 1.6501294746 1.6818627337 
1.7135959929 1.745329252 1.7770625111 1.8087957702 1.8405290294 1.8722622885 1.9039955476 1.9357288068 1.9674620659 
1.999195325 2.0309285841 2.0626618433 2.0943951024 2.1261283615 2.1578616206 2.1895948798 2.2213281389 2.253061398 
2.2847946572 2.3165279163 2.3482611754 2.3799944345 2.4117276937 2.4434609528 2.4751942119 2.506927471 2.5386607302 
2.5703939893 2.6021272484 2.6338605076 2.6655937667 2.6973270258 2.7290602849 2.7607935441 2.7925268032 2.8242600623 
2.8559933214 2.8877265806 2.9194598397 2.9511930988 2.982926358 3.0146596171 3.0463928762 3.0781261353 3.1098593945 
3.1415926536 
_radius 1 100 double
3.3823104337e-16 0.013721321906 0.027384199715 0.040926761637 0.054281046269 0.067369848323 0.08010413994 0.092382090621 0.10409067916 
0.11511044823 0.12532324295 0.1346220168 0.14292118347 0.15016569053 0.15633707903 0.16145529874 0.1655759093 0.16878332922 
0.17118169736 0.17288536877 0.1740108978 0.17467162698 0.17497498079 0.17502164174 0.17490529236 0.17471169116 0.17451643795 
0.17438160566 0.17435209001 0.17445270134 0.17468663587 0.17503549027 0.17546098203 0.17590874391 0.17631430508 0.17661085678 
0.17673818959 0.17665209047 0.17633308591 0.17579285308 0.1750764451 0.17425915381 0.17343838599 0.17272273793 0.17222148633 
0.17203720574 0.17226230108 0.17297794337 0.17425252138 0.17613703139 0.17865666348 0.18180029739 0.18551144876 0.18968441749 
0.19416788166 0.19877584455 0.20330388113 0.20754772964 0.21132135658 0.21447222887 0.21689226562 0.21852366699 0.2193595075 
0.21943959911 0.21884258844 0.21767546741 0.21606163931 0.21412848709 0.21199520507 0.20976163114 0.20749898356 0.20524361624 
0.20299486775 0.2007175457 0.19834861559 0.19580669955 0.19300255663 0.18984895783 0.18626897814 0.18220229342 0.17760936474 
0.17247341623 0.1667999825 0.160613697 0.15395211264 0.14685684094 0.13936315587 0.1314901616 0.123234175 0.11456762695 
0.10544440986 0.095810649423 0.085618225462 0.074837746446 0.063468239995 0.051542116455 0.03912534353 0.026313751941 0.013226796782 
1.2611233673e-15 
_area 1 100 double
0 0.00042938490898 0.0017192591357 0.0038724712706 0.0068858340343 0.010738152226 0.015375370966 0.020697025895 0.026548864249 
0.032725283373 0.038982929171 0.045063973808 0.050724576971 0.055761607456 0.060030311431 0.063448684723 0.065990375362 0.067673366349 
0.068552234651 0.068717233701 0.068297771747 0.06746500569 0.066427516128 0.065407587928 0.06458597582 0.064058443849 0.063849019681 
0.063941513303 0.064303495216 0.064904191452 0.065723764325 0.066748133101 0.067949523286 0.069264662041 0.070588362377 0.071791543735 
0.072757551283 0.073423220081 0.073811627496 0.074044972366 0.074321987449 0.074835121558 0.075664619311 0.076771625398 0.078071646407 
0.079502516059 0.081120942276 0.083034350601 0.08528577743 0.087933424248 0.091123761775 0.09498193883 0.099584777135 0.10494039359 
0.11095589966 0.117408407 0.12395721414 0.13019670269 0.13572110763 0.14018474624 0.14335096177 0.14512181689 0.14553908677 
0.14475352206 0.14297593675 0.14043647151 0.13736590524 0.13398951552 0.13051832013 0.12712960129 0.12394030379 0.12099111364 
0.11825444233 0.11565624564 0.11309552082 0.11045631145 0.10761440279 0.10444319301 0.10082349592 0.096659411704 0.091897387667 
0.086541636146 0.080659160205 0.074371418662 0.067834479195 0.061212946515 0.054654165241 0.048268671443 0.042121425152 0.036236235356 
0.030612544836 0.025249374997 0.020167749953 0.015423518298 0.011107487291 0.0073353270786 0.0042321966033 0.001916396545 0.0004845943472 
1.3877787808e-17 
