# vtk DataFile Version 5.1
vtk output
ASCII
DATASET POLYDATA
POINTS 100 float
0.186005 0.0422517 -0.591544 0.18561 0.0422647 -0.591463 0.184445 0.0421636 -0.59125 
0.182544 0.0419422 -0.59085 0.179959 0.041588 -0.590176 0.176756 0.0410812 -0.589119 
0.173005 0.0403933 -0.58756 0.16878 0.0394868 -0.585379 0.164144 0.0383156 -0.582469 
0.159147 0.0368277 -0.578742 0.153823 0.0349687 -0.574134 0.148182 0.0326873 -0.568613 
0.142213 0.0299415 -0.562173 0.135888 0.0267052 -0.55483 0.129164 0.0229747 -0.546621 
0.121991 0.0187723 -0.537592 0.114318 0.0141497 -0.527791 0.106106 0.00918664 -0.517267 
0.0973329 0.00398802 -0.50606 0.0880012 -0.00132309 -0.494203 0.078142 -0.00661404 -0.481722 
0.0678169 -0.0117531 -0.468634 0.057116 -0.0166201 -0.454959 0.0461532 -0.0211166 -0.440716 
0.0350578 -0.0251733 -0.425928 0.0239649 -0.0287548 -0.410627 0.0130042 -0.0318611 -0.39485 
0.00228911 -0.034524 -0.378634 -0.00809223 -0.0368007 -0.362019 -0.0180837 -0.0387646 -0.345034 
-0.0276641 -0.0404937 -0.327697 -0.0368456 -0.042059 -0.310006 -0.0456681 -0.0435142 -0.29194 
-0.0541898 -0.0448874 -0.273456 -0.0624749 -0.0461763 -0.254494 -0.0705789 -0.0473479 -0.234985 
-0.0785354 -0.048342 -0.214859 -0.0863435 -0.0490784 -0.194058 -0.0939594 -0.0494674 -0.172547 
-0.101292 -0.0494217 -0.150329 -0.108204 -0.048868 -0.127446 -0.11452 -0.0477579 -0.103992 
-0.12004 -0.0460754 -0.0801044 -0.124553 -0.0438413 -0.0559622 -0.12786 -0.0411126 -0.0317727 
-0.12979 -0.0379784 -0.00775717 -0.130223 -0.0345521 0.0158669 -0.129101 -0.0309605 0.0389038 
-0.126438 -0.0273317 0.0611955 -0.122323 -0.023784 0.0826341 -0.116916 -0.0204153 0.103169 
-0.110434 -0.017296 0.122809 -0.103139 -0.0144654 0.141615 -0.09531 -0.0119316 0.159691 
-0.0872275 -0.00967627 0.177169 -0.0791452 -0.00766121 0.194188 -0.0712733 -0.00583773 0.210883 
-0.0637631 -0.00415648 0.227361 -0.0566987 -0.00257671 0.243696 -0.0500959 -0.00107359 0.259916 
-0.0439079 0.000357275 0.276009 -0.0380372 0.00169876 0.291924 -0.0323525 0.00291455 0.30758 
-0.0267074 0.00395459 0.322888 -0.0209609 0.00476282 0.337757 -0.014994 0.00528598 0.352118 
-0.00872491 0.00548245 0.365929 -0.00211672 0.00532969 0.379189 0.00481908 0.00482945 0.391935 
0.0120259 0.00400983 0.404243 0.0194104 0.00292414 0.416217 0.0268541 0.00164642 0.427976 
0.0342284 0.000264485 0.439636 0.0414079 -0.00112887 0.451298 0.0482839 -0.00244529 0.463029 
0.0547732 -0.00360972 0.474854 0.0608238 -0.00456774 0.486748 0.066415 -0.00529046 0.498638 
0.071554 -0.00577646 0.510408 0.0762684 -0.00605071 0.521911 0.0805967 -0.00616062 0.532979 
0.0845783 -0.00616983 0.543448 0.0882439 -0.00615061 0.553168 0.0916091 -0.0061757 0.562018 
0.0946708 -0.00631069 0.569919 0.0974079 -0.00660752 0.576836 0.0997851 -0.00710003 0.582783 
0.101761 -0.00780156 0.587814 0.103296 -0.00870487 0.592015 0.104364 -0.00978407 0.595493 
0.104961 -0.0109981 0.598363 0.105108 -0.0122951 0.600737 0.104859 -0.0136175 0.602712 
0.104295 -0.0149064 0.604364 0.103521 -0.0161055 0.605746 0.102658 -0.0171648 0.606889 
0.101828 -0.0180421 0.607804 0.101142 -0.0187045 0.60849 0.100691 -0.019129 0.608937 
0.100533 -0.0193024 0.609138 
LINES 2 100
OFFSETS vtktypeint64
0 100 
CONNECTIVITY vtktypeint64
0 1 2 3 4 5 6 7 8 
9 10 11 12 13 14 15 16 17 
18 19 20 21 22 23 24 25 26 
27 28 29 30 31 32 33 34 35 
36 37 38 39 40 41 42 43 44 
45 46 47 48 49 50 51 52 53 
54 55 56 57 58 59 60 61 62 
63 64 65 66 67 68 69 70 71 
72 73 74 75 76 77 78 79 80 
81 82 83 84 85 86 87 88 89 
90 91 92 93 94 95 96 97 98 
99 
POINT_DATA 100
FIELD FieldData 3
_theta 1 100 double
0 0.031733259127 0.063466518254 0.095199777382 0.12693303651 0.15866629564 0.19039955476 0.22213281389 0.25386607302 
0.28559933214 0.31733259127 0.3490658504 0.38079910953 0.41253236865 0.44426562778 0.47599888691 0.50773214603 0.53946540516 
0.57119866429 0.60293192342 0.63466518254 0.66639844167 0.6981317008 0.72986495992 0.76159821905 0.79333147818 0.82506473731 
0.85679799643 0.88853125556 0.92026451469 0.95199777382 0.98373103294 1.0154642921 1.0471975512 1.0789308103 1.1106640695 
1.1423973286 1.1741305877 1.2058638468 1.237597106 1.2693303651 1.3010636242 1.3327968833 1.3645301425 1.3962634016 
1.4279966607 1.4597299198 1.491463179 1.5231964381 1.5549296972 1.5866629564 1.6183962155 1.6501294746 1.6818627337 
1.7135959929 1.745329252 1.7770625111 1.8087957702 1.8405290294 1.8722622885 1.9039955476 1.9357288068 1.9674620659 
1.999195325 2.0309285841 2.0626618433 2.0943951024 2.1261283615 2.1578616206 2.1895948798 2.2213281389 2.253061398 
2.2847946572 2.3165279163 2.3482611754 2.3799944345 2.4117276937 2.4434609528 2.4751942119 2.506927471 2.5386607302 
2.5703939893 2.6021272484 2.6338605076 2.6655937667 2.6973270258 2.7290602849 2.7607935441 2.7925268032 2.8242600623 
2.8559933214 2.8877265806 2.9194598397 2.9511930988 2.982926358 3.0146596171 3.0463928762 3.0781261353 3.1098593945 
3.1415926536 
_radius 1 100 double
7.8581250208e-16 0.014538350801 0.028927771968 0.04303020562 0.056728723244 0.06993143759 0.082569914282 0.094593280113 0.10596026048 
0.11663163954 0.12656517483 0.13571405842 0.14402895347 0.15146279038 0.15797707338 0.16354842663 0.16817436152 0.1718775956 
0.17470854367 0.1767457399 0.1780939373 0.17887957025 0.17924332805 0.17932992201 0.17927575805 0.17919597697 0.17917287121 
0.17924772514 0.17941758087 0.17963752904 0.17982823896 0.17988784532 0.17970703003 0.17918602354 0.17825212553 0.17687612942 
0.17508574777 0.17297382652 0.17069886848 0.1684753798 0.1665525012 0.16518247283 0.16458581374 0.16492396862 0.16628702394 
0.16869516472 0.17210661993 0.17642626338 0.18151349289 0.18719059461 0.19325287854 0.19948109875 0.20565601811 0.21157426409 
0.21706371211 0.22199598776 0.22629381302 0.22993185594 0.23293107769 0.23534782759 0.23725977912 0.2387510835 0.23989888444 
0.24076277077 0.24137808205 0.2417534003 0.24187211075 0.24169754116 0.24118082477 0.24027027761 0.23892082431 0.23710195147 
0.23480286459 0.23203394687 0.22882419204 0.22521492431 0.22125074772 0.21696920367 0.21239096229 0.20751242175 0.20230226435 
0.19670283802 0.19063633158 0.18401480257 0.17675240473 0.1687777843 0.1600446141 0.15053858747 0.1402798348 0.12932055794 
0.11773856433 0.10562812637 0.093089982025 0.080222196878 0.067113094698 0.053836790718 0.040451313846 0.02699900953 0.013508817995 
8.4106976305e-16 
_area 1 100 double
0 0.00046773069439 0.0018778878896 0.0042440186413 0.0075677897006 0.011818045211 0.016916019546 0.022731125715 0.029086963158 
0.035774409466 0.042568072285 0.049243041079 0.055589826574 0.061426137725 0.06660482344 0.071018180951 0.07459983355 0.07732594466 
0.079217020716 0.080339874559 0.08080729675 0.080772031235 0.080412816061 0.079913216547 0.079437047581 0.079105840398 0.078984406321 
0.079079458709 0.079350203263 0.079723408266 0.080107294712 0.080404142941 0.080523348851 0.080395327571 0.079985026833 0.079303552821 
0.078419347733 0.077481712057 0.076790376328 0.076619193668 0.076922311118 0.077667277095 0.078866481331 0.080547955456 0.082753374305 
0.085540939821 0.088978137486 0.093116246474 0.097953577404 0.10341716382 0.10938424 0.11572231792 0.12231059869 0.12902967157 
0.13573453643 0.14223746574 0.14831805389 0.15375527999 0.15836340055 0.16201806432 0.16466830447 0.16633556677 0.16710272635 
0.16709520706 0.16645542389 0.16540336303 0.1640789162 0.16247719559 0.16048893983 0.15804514874 0.15512912421 0.15175479686 
0.14795904678 0.14379733783 0.13933658067 0.13464344266 0.12976967095 0.12473861348 0.11953812385 0.11412338066 0.10842932167 
0.10238877043 0.095951044291 0.089096822117 0.081846864763 0.074263793827 0.066447450783 0.058525497223 0.050641619993 0.042943657491 
0.03557341391 0.028659406784 0.022313258343 0.016629491209 0.011687372433 0.0075530237222 0.0042806370754 0.0019126907355 0.00047969980292 
1.9512352889e-17 
