# vtk DataFile Version 5.1
vtk output
ASCII
DATASET POLYDATA
POINTS 100 float
0.145905 0.082189 -0.689974 0.145911 0.0819687 -0.689885 0.145934 0.0815101 -0.689632 
0.145956 0.080783 -0.689163 0.145949 0.0797393 -0.688396 0.145874 0.0783177 -0.687226 
0.145682 0.07645 -0.68554 0.145319 0.0740685 -0.683225 0.144723 0.0711127 -0.680179 
0.143829 0.0675361 -0.676323 0.142569 0.0633119 -0.671603 0.140878 0.0584366 -0.665997 
0.13869 0.0529322 -0.659511 0.135947 0.0468459 -0.652177 0.132597 0.0402478 -0.644044 
0.128599 0.0332273 -0.635173 0.123926 0.0258871 -0.625621 0.118567 0.0183376 -0.615437 
0.11253 0.0106901 -0.604655 0.105841 0.00305079 -0.593284 0.0985476 -0.00448432 -0.581313 
0.0907163 -0.0118328 -0.568706 0.0824287 -0.018928 -0.555412 0.0737784 -0.0257189 -0.541368 
0.0648649 -0.0321684 -0.526508 0.0557865 -0.0382504 -0.510772 0.0466339 -0.0439455 -0.494116 
0.0374824 -0.0492366 -0.476513 0.0283875 -0.0541044 -0.45796 0.0193805 -0.0585239 -0.438479 
0.0104679 -0.0624619 -0.418114 0.00163395 -0.0658766 -0.396928 -0.00715467 -0.0687184 -0.374993 
-0.0159403 -0.0709329 -0.352389 -0.0247643 -0.0724652 -0.329192 -0.0336555 -0.0732655 -0.305468 
-0.0426192 -0.073295 -0.281274 -0.0516273 -0.0725316 -0.25665 -0.0606118 -0.0709752 -0.231623 
-0.0694617 -0.0686508 -0.20621 -0.0780246 -0.0656105 -0.180424 -0.0861136 -0.0619329 -0.154277 
-0.0935182 -0.0577205 -0.127791 -0.100019 -0.0530945 -0.101001 -0.105406 -0.048189 -0.0739635 
-0.109493 -0.0431428 -0.0467535 -0.112137 -0.0380918 -0.0194695 -0.113252 -0.0331613 0.00777192 
-0.112814 -0.028459 0.0348406 -0.110868 -0.0240707 0.0616 -0.10752 -0.0200567 0.0879158 
-0.102935 -0.0164511 0.113664 -0.0973178 -0.0132638 0.138739 -0.090896 -0.0104833 0.16306 
-0.0839031 -0.0080825 0.186574 -0.0765584 -0.00602403 0.209259 -0.0690511 -0.00426697 0.23112 
-0.0615286 -0.00277255 0.252189 -0.0540897 -0.0015091 0.272516 -0.0467842 -0.00045546 0.292163 
-0.0396179 0.000397413 0.311198 -0.0325625 0.00104662 0.329686 -0.0255697 0.00147928 0.347685 
-0.0185858 0.00167588 0.365241 -0.0115664 0.00161459 0.382385 -0.00448912 0.00127589 0.399137 
0.00263846 0.000647103 0.415505 0.00977512 -0.000273946 0.431488 0.0168481 -0.00147637 0.447082 
0.0237597 -0.00293523 0.462284 0.0303987 -0.00461208 0.477096 0.0366532 -0.00645714 0.491525 
0.0424243 -0.00841273 0.505587 0.0476392 -0.0104176 0.519306 0.0522598 -0.0124119 0.532707 
0.056288 -0.0143416 0.545818 0.0597655 -0.0161632 0.55866 0.0627683 -0.0178465 0.571245 
0.0653969 -0.0193767 0.583566 0.0677635 -0.0207549 0.595603 0.0699777 -0.0219971 0.607309 
0.0721325 -0.0231318 0.618621 0.0742929 -0.0241964 0.629456 0.0764886 -0.0252331 0.639721 
0.0787112 -0.0262846 0.649312 0.0809168 -0.0273891 0.658133 0.0830337 -0.0285768 0.666093 
0.0849742 -0.0298665 0.673126 0.0866476 -0.0312637 0.679186 0.0879753 -0.0327592 0.684263 
0.0889031 -0.0343297 0.688377 0.0894105 -0.0359392 0.691586 0.0895161 -0.0375411 0.693975 
0.0892767 -0.0390816 0.695654 0.0887819 -0.0405034 0.69675 0.0881436 -0.041749 0.697395 
0.087483 -0.0427654 0.697718 0.0869152 -0.043507 0.697833 0.086535 -0.0439385 0.697827 
0.0864049 -0.0440378 0.69776 
LINES 2 100
OFFSETS vtktypeint64
0 100 
CONNECTIVITY vtktypeint64
0 1 2 3 4 5 6 7 8 
9 10 11 12 13 14 15 16 17 
18 19 20 21 22 23 24 25 26 
27 28 29 30 31 32 33 34 35 
36 37 38 39 40 41 42 43 44 
45 46 47 48 49 50 51 52 53 
54 55 56 57 58 59 60 61 62 
63 64 65 66 67 68 69 70 71 
72 73 74 75 76 77 78 79 80 
81 82 83 84 85 86 87 88 89 
90 91 92 93 94 95 96 97 98 
99 
POINT_DATA 100
FIELD FieldData 3
_theta 1 100 double
0 0.031733259127 0.063466518254 0.095199777382 0.12693303651 0.15866629564 0.19039955476 0.22213281389 0.25386607302 
0.28559933214 0.31733259127 0.3490658504 0.38079910953 0.41253236865 0.44426562778 0.47599888691 0.50773214603 0.53946540516 
0.57119866429 0.60293192342 0.63466518254 0.66639844167 0.6981317008 0.72986495992 0.76159821905 0.79333147818 0.82506473731 
0.85679799643 0.88853125556 0.92026451469 0.95199777382 0.98373103294 1.0154642921 1.0471975512 1.0789308103 1.1106640695 
1.1423973286 1.1741305877 1.2058638468 1.237597106 1.2693303651 1.3010636242 1.3327968833 1.3645301425 1.3962634016 
1.4279966607 1.4597299198 1.491463179 1.5231964381 1.5549296972 1.5866629564 1.6183962155 1.6501294746 1.6818627337 
1.7135959929 1.745329252 1.7770625111 1.8087957702 1.8405290294 1.8722622885 1.9039955476 1.9357288068 1.9674620659 
1.999195325 2.0309285841 2.0626618433 2.0943951024 2.1261283615 2.1578616206 2.1895948798 2.2213281389 2.253061398 
2.2847946572 2.3165279163 2.3482611754 2.3799944345 2.4117276937 2.4434609528 2.4751942119 2.506927471 2.5386607302 
2.5703939893 2.6021272484 2.6338605076 2.6655937667 2.6973270258 2.7290602849 2.7607935441 2.7925268032 2.8242600623 
2.8559933214 2.8877265806 2.9194598397 2.9511930988 2.982926358 3.0146596171 3.0463928762 3.0781261353 3.1098593945 
3.1415926536 
_radius 1 100 double
1.2354349359e-15 0.015194083077 0.030295651045 0.045215838748 0.059871062731 0.074184276808 0.088084843388 0.1015072092 0.11438886151 
0.12666817632 0.13828274762 0.14916865023 0.15926090304 0.1684952174 0.17681096251 0.18415515047 0.19048711908 0.195783458 
0.20004259512 0.20328837406 0.20557196015 0.2069715459 0.2075895864 0.20754764045 0.20697926417 0.20602173116 0.20480756683 
0.20345691461 0.20207154948 0.2007309335 0.19949019441 0.19837953346 0.19740458884 0.19654780504 0.19577168657 0.19502538235 
0.1942556531 0.19342165044 0.19251076005 0.19155124757 0.19061733877 0.18982373572 0.18930944972 0.18921503893 0.18966110355 
0.19073580811 0.19249382255 0.19496211487 0.19814515768 0.20202491476 0.20655615433 0.21166106281 0.21722721653 0.22311088458 
0.22914538081 0.23515283573 0.24095736163 0.24639779404 0.25133863614 0.25567823837 0.25935355271 0.26234111533 0.26465431146 
0.2663373955 0.26745703563 0.26809224864 0.26832355456 0.26822217274 0.26784021889 0.26720308996 0.2663053122 0.26511082707 
0.26355792787 0.26156803657 0.25905660715 0.25594401856 0.25216452264 0.24767201746 0.24244231981 0.23647238689 0.22977737679 
0.22238649638 0.21433836343 0.20567628769 0.19644363448 0.18667939164 0.17641421422 0.16566745989 0.15444588183 0.14274457566 
0.13055043466 0.11784782249 0.1046255937 0.090884194699 0.076641529932 0.061936601748 0.04683048471 0.031404750352 0.015757837036 
1.6108958193e-15 
_area 1 100 double
0 0.0006422864634 0.002552690272 0.005682751366 0.0099543447715 0.01526258593 0.021478534919 0.028451443294 0.036010819125 
0.043968895958 0.052124126151 0.060266108286 0.068182007283 0.075664207058 0.082518758877 0.088574109544 0.093689516431 0.097762467708 
0.10073436956 0.10259376836 0.10337650075 0.10316253277 0.10206995795 0.10024756259 0.097868048257 0.095123473634 0.092222830652 
0.089411839193 0.086873922027 0.084661999945 0.082869089524 0.08157575365 0.080863417221 0.080775681907 0.081396722361 0.082384006232 
0.083562789797 0.084836703323 0.086194319895 0.087700590713 0.089468418295 0.091602656657 0.094136782738 0.097017126371 0.10014885513 
0.10345290341 0.10689299418 0.11054159263 0.11464395807 0.11954760546 0.12528686601 0.13183803123 0.13916198177 0.14712104476 
0.15547938484 0.16392529054 0.17210154378 0.17964458491 0.18623060812 0.19162090266 0.19569649007 0.1984775282 0.20013971997 
0.2010478968 0.20156701206 0.20174825769 0.2015690851 0.20102693935 0.2001127531 0.19879143089 0.19699555313 0.19463083854 
0.19159052547 0.18777473383 0.18311064057 0.17756887815 0.1711714589 0.16398828929 0.15612339892 0.14769654891 0.13882773042 
0.12962924987 0.12020451434 0.11064895956 0.10104932848 0.091480955809 0.082005594899 0.072672669914 0.063524892374 0.054606953051 
0.045975099707 0.037705515857 0.029899570062 0.022684236363 0.016206848217 0.010624799836 0.0060921452574 0.002745610498 0.00069222721284 
3.6779740357e-17 
