# vtk DataFile Version 5.1
vtk output
ASCII
DATASET POLYDATA
POINTS 100 float
0.189177 -0.00932392 0.720047 0.189135 -0.00935126 0.719963 0.188947 -0.00955856 0.719842 
0.188588 -0.00991786 0.719642 0.188016 -0.0103864 0.719296 0.187184 -0.0109107 0.718717 
0.18604 -0.0114316 0.717798 0.184534 -0.0118892 0.716424 0.182625 -0.0122283 0.714476 
0.180283 -0.0124024 0.711841 0.177494 -0.0123771 0.708413 0.174259 -0.0121317 0.704107 
0.17059 -0.0116594 0.698858 0.166513 -0.0109667 0.692628 0.162055 -0.0100706 0.685406 
0.157248 -0.00899648 0.677212 0.152118 -0.00777482 0.668089 0.146683 -0.00643834 0.658104 
0.140951 -0.00501991 0.64734 0.134919 -0.00355114 0.635893 0.128576 -0.00206195 0.623861 
0.121904 -0.000581001 0.61134 0.11488 0.000863139 0.598417 0.107487 0.00224057 0.585161 
0.0997115 0.00351858 0.571624 0.0915527 0.00466065 0.557834 0.0830218 0.00562611 0.543797 
0.0741446 0.00637079 0.529495 0.0649603 0.00684874 0.514891 0.055519 0.0070148 0.499934 
0.0458789 0.00682793 0.484559 0.0361018 0.00625486 0.468697 0.0262496 0.00527361 0.452278 
0.0163811 0.00387653 0.435236 0.0065498 0.00207224 0.417515 -0.00319656 -0.000113609 0.399068 
-0.0128148 -0.00263913 0.379864 -0.0222643 -0.00544841 0.359887 -0.0315033 -0.00847512 0.339136 
-0.0404858 -0.011647 0.317624 -0.0491584 -0.0148909 0.295379 -0.0574583 -0.0181383 0.272442 
-0.0653131 -0.0213293 0.248864 -0.0726425 -0.024417 0.224706 -0.0793623 -0.0273698 0.200036 
-0.0853892 -0.0301724 0.174928 -0.0906485 -0.0328249 0.149461 -0.0950805 -0.0353415 0.123716 
-0.0986471 -0.0377465 0.0977767 -0.101337 -0.0400711 0.0717222 -0.10317 -0.0423481 0.0456296 
-0.104194 -0.0446082 0.0195697 -0.104484 -0.0468752 -0.00639506 -0.104137 -0.0491634 -0.032212 
-0.103261 -0.0514747 -0.0578397 -0.101967 -0.0537974 -0.0832481 -0.100356 -0.0561061 -0.108418 
-0.098514 -0.0583622 -0.13334 -0.0964972 -0.0605158 -0.158011 -0.0943324 -0.0625078 -0.182432 
-0.0920129 -0.0642725 -0.206603 -0.0895014 -0.065741 -0.23052 -0.0867359 -0.0668444 -0.254171 
-0.0836394 -0.0675166 -0.277534 -0.0801311 -0.0676977 -0.300577 -0.076139 -0.0673371 -0.323253 
-0.0716123 -0.0663957 -0.345507 -0.0665316 -0.0648489 -0.367274 -0.0609167 -0.0626875 -0.38849 
-0.0548298 -0.0599199 -0.409089 -0.0483758 -0.0565718 -0.429014 -0.0416965 -0.0526862 -0.448218 
-0.0349623 -0.0483218 -0.466673 -0.02836 -0.0435508 -0.484365 -0.0220793 -0.0384551 -0.501301 
-0.0162982 -0.0331225 -0.517502 -0.0111694 -0.0276416 -0.533006 -0.00680885 -0.0220968 -0.547855 
-0.00328747 -0.0165637 -0.562096 -0.0006266 -0.0111043 -0.57577 0.00120226 -0.00576462 -0.588908 
0.0022736 -0.000572589 -0.601527 0.00270038 0.00446173 -0.613624 0.00262371 0.00934424 -0.62518 
0.00220059 0.0140932 -0.636157 0.00159104 0.0187341 -0.646504 0.000945561 0.023294 -0.656162 
0.000394192 0.0277944 -0.665069 3.77939e-05 0.0322462 -0.673172 -5.76712e-05 0.0366439 -0.680429 
0.000136364 0.0409624 -0.686814 0.000611851 0.045156 -0.692325 0.00132791 0.0491587 -0.69698 
0.00221717 0.0528881 -0.700818 0.00319398 0.0562501 -0.703894 0.00416372 0.0591465 -0.706276 
0.00503246 0.0614824 -0.708031 0.00571614 0.0631743 -0.709223 0.00614849 0.0641573 -0.709907 
0.00628722 0.0643908 -0.710116 
LINES 2 100
OFFSETS vtktypeint64
0 100 
CONNECTIVITY vtktypeint64
0 1 2 3 4 5 6 7 8 
9 10 11 12 13 14 15 16 17 
18 19 20 21 22 23 24 25 26 
27 28 29 30 31 32 33 34 35 
36 37 38 39 40 41 42 43 44 
45 46 47 48 49 50 51 52 53 
54 55 56 57 58 59 60 61 62 
63 64 65 66 67 68 69 70 71 
72 73 74 75 76 77 78 79 80 
81 82 83 84 85 86 87 88 89 
90 91 92 93 94 95 96 97 98 
99 
POINT_DATA 100
FIELD FieldData 3
_theta 1 100 double
0 0.031733259127 0.063466518254 0.095199777382 0.12693303651 0.15866629564 0.19039955476 0.22213281389 0.25386607302 
0.28559933214 0.31733259127 0.3490658504 0.38079910953 0.41253236865 0.44426562778 0.47599888691 0.50773214603 0.53946540516 
0.57119866429 0.60293192342 0.63466518254 0.66639844167 0.6981317008 0.72986495992 0.76159821905 0.79333147818 0.82506473731 
0.85679799643 0.88853125556 0.92026451469 0.95199777382 0.98373103294 1.0154642921 1.0471975512 1.0789308103 1.1106640695 
1.1423973286 1.1741305877 1.2058638468 1.237597106 1.2693303651 1.3010636242 1.3327968833 1.3645301425 1.3962634016 
1.4279966607 1.4597299198 1.491463179 1.5231964381 1.5549296972 1.5866629564 1.6183962155 1.6501294746 1.6818627337 
1.7135959929 1.745329252 1.7770625111 1.8087957702 1.8405290294 1.8722622885 1.9039955476 1.9357288068 1.9674620659 
1.999195325 2.0309285841 2.0626618433 2.0943951024 2.1261283615 2.1578616206 2.1895948798 2.2213281389 2.253061398 
2.2847946572 2.3165279163 2.3482611754 2.3799944345 2.4117276937 2.4434609528 2.4751942119 2.506927471 2.5386607302 
2.5703939893 2.6021272484 2.6338605076 2.6655937667 2.6973270258 2.7290602849 2.7607935441 2.7925268032 2.8242600623 
2.8559933214 2.8877265806 2.9194598397 2.9511930988 2.982926358 3.0146596171 3.0463928762 3.0781261353 3.1098593945 
3.1415926536 
_radius 1 100 double
8.8865432472e-16 0.014993683346 0.029984756131 0.044970623333 0.059939074421 0.074863460513 0.08969864806 0.10437845576 0.11881523884 
0.13290202806 0.14651725712 0.15953173465 0.17181720193 0.18325558607 0.19374792126 0.20322190311 0.21163719739 0.21898794848 
0.22530236678 0.2306396998 0.23508517051 0.23874349639 0.24173138822 0.24416912638 0.24617121709 0.24783651777 0.24923904766 
0.25042139175 0.25139239898 0.25212966918 0.25258596447 0.25269807919 0.25239691495 0.25161793928 0.25031136793 0.24845126638 
0.24604257152 0.24312504305 0.2397734561 0.23609386231 0.23221631073 0.22828489121 0.2244462819 0.22083816096 0.21757889446 
0.21475979394 0.21244086272 0.21065029574 0.20938719947 0.20862635041 0.2083235962 0.20842080225 0.20884984945 0.20953573581 
0.21039906986 0.21135823748 0.21233166948 0.21324118633 0.21401773616 0.21460973349 0.21499174323 0.2151696955 0.21517987123 
0.21508157176 0.21494564743 0.21484189144 0.21482782347 0.21494025717 0.21518999182 0.21555937743 0.21600232337 0.21644632615 
0.21679615559 0.21693896062 0.21675071866 0.2161040094 0.21487687976 0.21296210456 0.21027568301 0.20676322047 0.20240304177 
0.19720540088 0.19120784551 0.18446748359 0.17705140019 0.16902664626 0.16045106429 0.15136589962 0.14179091387 0.13172267589 
0.12113670099 0.10999382932 0.098250495549 0.085871525971 0.072843269096 0.059184626862 0.044953966512 0.030250706696 0.015211279425 
3.5360305807e-16 
_area 1 100 double
0 0.00058371678535 0.0023331842495 0.0052427678518 0.009300900218 0.014486266815 0.020762014563 0.02806851148 0.036315853285 
0.045377729539 0.055088506024 0.065245531484 0.075618333881 0.085964871455 0.096052443663 0.10567862756 0.11468735882 0.12297736275 
0.13050306111 0.13726982331 0.14332539275 0.14874857388 0.15363598965 0.1580879326 0.16219407747 0.1660190176 0.16958861248 
0.17288185817 0.17583418661 0.17835237821 0.18033363058 0.1816795097 0.18230005501 0.1821101554 0.18102659678 0.17897614698 
0.17591779684 0.17187000478 0.16692910867 0.16127099622 0.15513617761 0.14880259955 0.142551555 0.13663252661 0.13123383836 
0.12646624289 0.12236356496 0.11889798979 0.11600178505 0.11358707114 0.11155954074 0.10982675027 0.10830547605 0.10693103344 
0.10566482003 0.10449469609 0.103427587 0.10247786945 0.10165553625 0.10095673805 0.10036146249 0.099846513324 0.099408716737 
0.099081654155 0.098943347475 0.099112325493 0.099707686546 0.10090154589 0.10270421147 0.10504198062 0.1078129326 0.11087451012 
0.11404754725 0.11712239324 0.11986734986 0.1220399171 0.12340213327 0.12374049272 0.12288858669 0.12074784961 0.11730074906 
0.11261247866 0.1068205506 0.10011484159 0.092712662975 0.084833983625 0.076681013905 0.068424536929 0.060197797386 0.052098349921 
0.044198542168 0.036563859816 0.029273889804 0.022437579969 0.016197655625 0.01072473237 0.006203859656 0.0028155237538 0.00071304845984 
1.7906259994e-18 
