# vtk DataFile Version 5.1
vtk output
ASCII
DATASET POLYDATA
POINTS 100 float
0.163848 0.0314051 -0.626034 0.163625 0.0314684 -0.626104 0.162997 0.0315346 -0.626358 
0.161974 0.0316032 -0.6267 0.160567 0.0316705 -0.626973 0.158795 0.0317267 -0.626983 
0.156672 0.0317551 -0.626517 0.154215 0.0317294 -0.62536 0.151433 0.0316131 -0.623319 
0.148329 0.0313596 -0.620242 0.144896 0.0309134 -0.616024 0.141117 0.0302125 -0.610621 
0.136965 0.0291925 -0.604044 0.132399 0.027791 -0.596355 0.127377 0.0259524 -0.587658 
0.121849 0.0236332 -0.578081 0.115768 0.0208057 -0.567759 0.109095 0.0174621 -0.556821 
0.101801 0.0136158 -0.545373 0.0938778 0.00930177 -0.533488 0.0853387 0.00457591 -0.521204 
0.0762216 -0.000487894 -0.508518 0.0665897 -0.00580113 -0.495396 0.0565295 -0.0112649 -0.481778 
0.0461462 -0.0167742 -0.46759 0.0355571 -0.0222222 -0.452758 0.0248838 -0.0275039 -0.437213 
0.0142427 -0.0325194 -0.420907 0.0037371 -0.0371754 -0.403817 -0.00655095 -0.0413877 -0.385943 
-0.0165652 -0.0450816 -0.367314 -0.0262777 -0.0481928 -0.347976 -0.0356873 -0.0506685 -0.327991 
-0.0448151 -0.0524684 -0.307422 -0.0536962 -0.0535656 -0.286332 -0.0623695 -0.0539488 -0.264774 
-0.0708658 -0.0536234 -0.242783 -0.0791968 -0.0526133 -0.220385 -0.0873439 -0.0509619 -0.197586 
-0.0952522 -0.0487318 -0.174386 -0.102826 -0.0460035 -0.150784 -0.109931 -0.0428732 -0.126783 
-0.1164 -0.0394479 -0.102398 -0.122042 -0.03584 -0.0776657 -0.12666 -0.0321609 -0.0526465 
-0.130064 -0.0285141 -0.0274256 -0.132089 -0.0249881 -0.00211204 -0.132611 -0.0216512 0.023166 
-0.131557 -0.0185476 0.0482686 -0.12892 -0.0156955 0.0730523 -0.124756 -0.013088 0.0973799 
-0.119181 -0.010697 0.121129 -0.112369 -0.00847885 0.144197 -0.104532 -0.00638191 0.166512 
-0.095907 -0.0043553 0.188028 -0.0867389 -0.00235746 0.208727 -0.0772593 -0.000363718 0.228618 
-0.0676727 0.00162805 0.24773 -0.0581431 0.00359442 0.266107 -0.0487868 0.00548661 0.283801 
-0.0396694 0.00723376 0.300866 -0.0308089 0.00874924 0.317354 -0.0221828 0.00993919 0.333312 
-0.0137396 0.0107124 0.348781 -0.00541143 0.0109907 0.363797 0.00287204 0.010718 0.37839 
0.0111713 0.00986789 0.392591 0.0195271 0.00844835 0.406429 0.0279539 0.00650293 0.419938 
0.0364376 0.00410865 0.433152 0.0449373 0.00137061 0.446109 0.0533898 -0.00158617 0.458847 
0.0617178 -0.0046266 0.471399 0.0698386 -0.00761627 0.483789 0.0776731 -0.0104317 0.49603 
0.0851535 -0.0129692 0.508116 0.0922295 -0.0151519 0.520021 0.0988707 -0.016933 0.531697 
0.105067 -0.0182972 0.543077 0.110827 -0.0192583 0.554074 0.116172 -0.0198548 0.564586 
0.121128 -0.0201433 0.574509 0.125726 -0.0201914 0.583734 0.129989 -0.0200699 0.592166 
0.133933 -0.0198464 0.599723 0.137565 -0.01958 0.606346 0.140879 -0.0193169 0.612006 
0.143863 -0.0190898 0.6167 0.146504 -0.0189171 0.620461 0.148787 -0.018805 0.623348 
0.150706 -0.0187505 0.625446 0.152264 -0.0187438 0.62686 0.153478 -0.0187727 0.62771 
0.154378 -0.0188243 0.628122 0.155006 -0.0188878 0.628224 0.155412 -0.0189554 0.628133 
0.155649 -0.0190222 0.627957 0.155766 -0.0190864 0.627784 0.155803 -0.019148 0.62768 
0.155787 -0.0192083 0.627684 
LINES 2 100
OFFSETS vtktypeint64
0 100 
CONNECTIVITY vtktypeint64
0 1 2 3 4 5 6 7 8 
9 10 11 12 13 14 15 16 17 
18 19 20 21 22 23 24 25 26 
27 28 29 30 31 32 33 34 35 
36 37 38 39 40 41 42 43 44 
45 46 47 48 49 50 51 52 53 
54 55 56 57 58 59 60 61 62 
63 64 65 66 67 68 69 70 71 
72 73 74 75 76 77 78 79 80 
81 82 83 84 85 86 87 88 89 
90 91 92 93 94 95 96 97 98 
99 
POINT_DATA 100
FIELD FieldData 3
_theta 1 100 double
0 0.031733259127 0.063466518254 0.095199777382 0.12693303651 0.15866629564 0.19039955476 0.22213281389 0.25386607302 
0.28559933214 0.31733259127 0.3490658504 0.38079910953 0.41253236865 0.44426562778 0.47599888691 0.50773214603 0.53946540516 
0.57119866429 0.60293192342 0.63466518254 0.66639844167 0.6981317008 0.72986495992 0.76159821905 0.79333147818 0.82506473731 
0.85679799643 0.88853125556 0.92026451469 0.95199777382 0.98373103294 1.0154642921 1.0471975512 1.0789308103 1.1106640695 
1.1423973286 1.1741305877 1.2058638468 1.237597106 1.2693303651 1.3010636242 1.3327968833 1.3645301425 1.3962634016 
1.4279966607 1.4597299198 1.491463179 1.5231964381 1.5549296972 1.5866629564 1.6183962155 1.6501294746 1.6818627337 
1.7135959929 1.745329252 1.7770625111 1.8087957702 1.8405290294 1.8722622885 1.9039955476 1.9357288068 1.9674620659 
1.999195325 2.0309285841 2.0626618433 2.0943951024 2.1261283615 2.1578616206 2.1895948798 2.2213281389 2.253061398 
2.2847946572 2.3165279163 2.3482611754 2.3799944345 2.4117276937 2.4434609528 2.4751942119 2.506927471 2.5386607302 
2.5703939893 2.6021272484 2.6338605076 2.6655937667 2.6973270258 2.7290602849 2.7607935441 2.7925268032 2.8242600623 
2.8559933214 2.8877265806 2.9194598397 2.9511930988 2.982926358 3.0146596171 3.0463928762 3.0781261353 3.1098593945 
3.1415926536 
_radius 1 100 double
1.3330082952e-15 0.014632942786 0.029207930983 0.043669371304 0.057962484697 0.072031189025 0.085814430048 0.099242081178 0.11223186569 
0.12468854568 0.13650603113 0.14757235713 0.15777688979 0.16701876696 0.17521546012 0.18231040085 0.18827879071 0.19313096508 
0.19691298342 0.19970443097 0.20161369512 0.20277118201 0.20332105555 0.20341213478 0.2031886112 0.20278125954 0.20229979648 
0.20182696157 0.2014147514 0.20108307838 0.20082101218 0.20059071557 0.2003341506 0.19998250035 0.19946792747 0.19873672537 
0.19776219029 0.19655494492 0.1951683847 0.1936975809 0.19227111998 0.19103671014 0.19014303012 0.18972208902 0.18987697059 
0.19067767396 0.19216354266 0.19434765379 0.19721884622 0.20074010298 0.20484524987 0.20943730684 0.21439092991 0.21955938964 
0.22478494577 0.2299108753 0.2347934396 0.23931225794 0.24337778522 0.2469349997 0.24996303165 0.25247115362 0.2544920912 
0.25607386841 0.25727137878 0.25813865344 0.25872246665 0.25905754356 0.25916330015 0.25904186226 0.25867715772 0.25803510958 
0.25706519813 0.25570368078 0.25387844947 0.25151497912 0.24854237131 0.24489840789 0.24053286768 0.23540894347 0.22950313544 
0.22280428216 0.21531237654 0.2070375867 0.19799959372 0.18822708711 0.17775710285 0.16663388151 0.15490705781 0.14262922935 
0.12985322547 0.11662962475 0.10300515932 0.089022524556 0.074721766099 0.060142923974 0.045329149365 0.030329278825 0.01519897615 
9.4469935925e-16 
_area 1 100 double
0 0.00047423055906 0.0019172318766 0.0043816082286 0.0079301164399 0.012606835664 0.018409842639 0.025271679627 0.033050740739 
0.041533752891 0.050447440832 0.059476484411 0.068285036561 0.076540018631 0.083935335792 0.090216213714 0.095201849942 0.098803199561 
0.10103204785 0.10199824031 0.10189403272 0.10096749117 0.09948990335 0.09772408246 0.095899939995 0.09420036206 0.092755969931 
0.0916450713 0.090896508457 0.090495059495 0.090388579512 0.090497045765 0.090726851755 0.090990737737 0.091225700673 0.091400524993 
0.091516272323 0.091613209877 0.091786342948 0.092193557026 0.093029117454 0.094419857057 0.096313853041 0.098563237887 0.10106383957 
0.10379431579 0.10679862268 0.11014516932 0.11389942712 0.11812520744 0.12287823224 0.12818750463 0.13404389747 0.14039400471 
0.14712874674 0.15407293475 0.16099173323 0.1676191982 0.17369907019 0.17902310634 0.18345619759 0.18694493778 0.18951330104 
0.19125099289 0.19229463349 0.19279500799 0.19286807566 0.19255186492 0.19180761106 0.19056526546 0.18877045802 0.18640753326 
0.18350202407 0.1801093742 0.17629184862 0.17208677887 0.16747810327 0.16238971736 0.15670779101 0.15031746195 0.14313458271 
0.13512491923 0.12631181062 0.1167749869 0.10664316392 0.09608305522 0.085287148424 0.074461847577 0.063816718124 0.053554940048 
0.043864832275 0.034912429816 0.026835437598 0.019739252219 0.01369589285 0.008746407296 0.0049066172581 0.0021752395434 0.00054285234036 
3.0479157738e-17 
