# vtk DataFile Version 5.1
vtk output
ASCII
DATASET POLYDATA
POINTS 100 float
0.145726 0.0453938 -0.633099 0.145633 0.0454417 -0.632858 0.14534 0.0453885 -0.632112 
0.144874 0.0452128 -0.630829 0.144273 0.0448815 -0.62896 0.143582 0.0443515 -0.626453 
0.142836 0.043573 -0.623257 0.142055 0.0424917 -0.619334 0.141236 0.0410531 -0.614671 
0.140338 0.0392054 -0.609279 0.13929 0.0369036 -0.603197 0.137987 0.034112 -0.596491 
0.136294 0.0308076 -0.589241 0.134061 0.0269821 -0.581536 0.131136 0.0226433 -0.573456 
0.127376 0.0178162 -0.565068 0.122663 0.012543 -0.556406 0.116919 0.006882 -0.547472 
0.110112 0.000906684 -0.538229 0.102265 -0.00529681 -0.528606 0.0934496 -0.0116322 -0.518505 
0.0837869 -0.0179963 -0.507809 0.0734324 -0.0242821 -0.496403 0.0625638 -0.0303829 -0.48418 
0.0513641 -0.036195 -0.471061 0.0400055 -0.041622 -0.457001 0.0286348 -0.0465772 -0.441995 
0.0173614 -0.0509863 -0.426079 0.00625112 -0.0547899 -0.409326 -0.00467496 -0.0579448 -0.391834 
-0.0154358 -0.060425 -0.373714 -0.0260805 -0.0622216 -0.355074 -0.0366739 -0.0633427 -0.336007 
-0.04728 -0.0638122 -0.316581 -0.0579447 -0.0636681 -0.296826 -0.0686798 -0.0629601 -0.276737 
-0.0794504 -0.0617475 -0.256278 -0.0901675 -0.0600961 -0.235387 -0.100686 -0.0580751 -0.21399 
-0.110811 -0.0557543 -0.19202 -0.120306 -0.0532014 -0.169427 -0.128912 -0.0504791 -0.146195 
-0.136365 -0.0476433 -0.122351 -0.14242 -0.0447411 -0.0979706 -0.14687 -0.0418103 -0.0731751 
-0.149562 -0.0388783 -0.0481258 -0.150417 -0.0359624 -0.0230118 -0.149431 -0.0330712 0.00196549 
-0.146682 -0.0302052 0.0266093 -0.142322 -0.027359 0.0507438 -0.136563 -0.0245235 0.0742282 
-0.129663 -0.0216881 0.0969664 -0.121908 -0.0188434 0.118911 -0.113584 -0.0159833 0.140061 
-0.104963 -0.013107 0.160458 -0.0962808 -0.0102211 0.180171 -0.0877238 -0.00733995 0.199286 
-0.0794215 -0.00448679 0.217891 -0.0714431 -0.00169293 0.236064 -0.0638006 0.00100299 0.253859 
-0.0564572 0.0035567 0.271307 -0.0493395 0.00592056 0.288407 -0.0423521 0.0080462 0.305136 
-0.0353929 0.00988753 0.321456 -0.0283679 0.0114037 0.337318 -0.0212036 0.0125619 0.352681 
-0.0138551 0.0133401 0.367517 -0.00631164 0.0137286 0.381819 0.00140372 0.0137316 0.395607 
0.00923724 0.0133672 0.408927 0.0171116 0.0126674 0.421843 0.0249348 0.0116759 0.434436 
0.0326105 0.0104464 0.446785 0.040048 0.00903977 0.458961 0.0471704 0.00752 0.471015 
0.0539212 0.00595114 0.482967 0.060268 0.00439345 0.494805 0.0662028 0.00290012 0.506481 
0.0717398 0.00151446 0.517918 0.0769113 0.000267942 0.529017 0.0817609 -0.000820968 0.539666 
0.0863369 -0.00174688 0.549755 0.0906861 -0.00251663 0.559188 0.0948472 -0.00314752 0.567889 
0.0988475 -0.0036648 0.575815 0.1027 -0.00409863 0.582958 0.106404 -0.00448084 0.589338 
0.109945 -0.00484165 0.595007 0.1133 -0.00520679 0.600032 0.11644 -0.00559513 0.604492 
0.119335 -0.0060171 0.608463 0.121958 -0.00647405 0.61201 0.124285 -0.00695848 0.615179 
0.126302 -0.00745516 0.617996 0.128001 -0.00794305 0.620462 0.129381 -0.00839778 0.622562 
0.130447 -0.00879434 0.624264 0.131205 -0.00910986 0.625535 0.131663 -0.00932614 0.62634 
0.131824 -0.00943158 0.626657 
LINES 2 100
OFFSETS vtktypeint64
0 100 
CONNECTIVITY vtktypeint64
0 1 2 3 4 5 6 7 8 
9 10 11 12 13 14 15 16 17 
18 19 20 21 22 23 24 25 26 
27 28 29 30 31 32 33 34 35 
36 37 38 39 40 41 42 43 44 
45 46 47 48 49 50 51 52 53 
54 55 56 57 58 59 60 61 62 
63 64 65 66 67 68 69 70 71 
72 73 74 75 76 77 78 79 80 
81 82 83 84 85 86 87 88 89 
90 91 92 93 94 95 96 97 98 
99 
POINT_DATA 100
FIELD FieldData 3
_theta 1 100 double
0 0.031733259127 0.063466518254 0.095199777382 0.12693303651 0.15866629564 0.19039955476 0.22213281389 0.25386607302 
0.28559933214 0.31733259127 0.3490658504 0.38079910953 0.41253236865 0.44426562778 0.47599888691 0.50773214603 0.53946540516 
0.57119866429 0.60293192342 0.63466518254 0.66639844167 0.6981317008 0.72986495992 0.76159821905 0.79333147818 0.82506473731 
0.85679799643 0.88853125556 0.92026451469 0.95199777382 0.98373103294 1.0154642921 1.0471975512 1.0789308103 1.1106640695 
1.1423973286 1.1741305877 1.2058638468 1.237597106 1.2693303651 1.3010636242 1.3327968833 1.3645301425 1.3962634016 
1.4279966607 1.4597299198 1.491463179 1.5231964381 1.5549296972 1.5866629564 1.6183962155 1.6501294746 1.6818627337 
1.7135959929 1.745329252 1.7770625111 1.8087957702 1.8405290294 1.8722622885 1.9039955476 1.9357288068 1.9674620659 
1.999195325 2.0309285841 2.0626618433 2.0943951024 2.1261283615 2.1578616206 2.1895948798 2.2213281389 2.253061398 
2.2847946572 2.3165279163 2.3482611754 2.3799944345 2.4117276937 2.4434609528 2.4751942119 2.506927471 2.5386607302 
2.5703939893 2.6021272484 2.6338605076 2.6655937667 2.6973270258 2.7290602849 2.7607935441 2.7925268032 2.8242600623 
2.8559933214 2.8877265806 2.9194598397 2.9511930988 2.982926358 3.0146596171 3.0463928762 3.0781261353 3.1098593945 
3.1415926536 
_radius 1 100 double
1.1469343051e-15 0.014106017886 0.028126755978 0.041984583494 0.055620166053 0.068996691041 0.082099140943 0.094928437226 0.10749125943 
0.1197872524 0.13179598681 0.14346626427 0.15471006242 0.16540264589 0.17538931203 0.18449815142 0.19255728616 0.19941441641 
0.20495618654 0.2091248673 0.21193011457 0.21345406847 0.21384874695 0.213325504 0.21213721208 0.21055475228 0.20884031054 
0.2072207822 0.2058650736 0.20486896158 0.20425019407 0.20395471953 0.20387274241 0.20386141888 0.20377011297 0.20346453067 
0.20284733665 0.20187394561 0.20056222915 0.19899447177 0.19731043703 0.19569226633 0.1943441944 0.19347134592 0.19326117045 
0.19386864979 0.19540416731 0.19792277891 0.20141541882 0.20580435226 0.21094536992 0.21663788431 0.22264229526 0.22870253856 
0.23457078956 0.24003085581 0.24491694669 0.24912529024 0.25261729878 0.25541436911 0.2575856661 0.25923119312 0.26046298502 
0.26138731474 0.26209039103 0.26262922534 0.26302831121 0.26328169459 0.26335913467 0.26321453996 0.26279480213 0.26204748757 
0.26092638539 0.25939439957 0.25742360191 0.25499255179 0.25208142288 0.24866603953 0.24471236974 0.24017308511 0.23498738951 
0.22908455344 0.22239070407 0.21483766463 0.20637219621 0.19696395122 0.18661077553 0.17534059326 0.16320981983 0.1502988922 
0.13670590667 0.12253941421 0.10791119008 0.092929463545 0.077692895599 0.062285631328 0.046773929898 0.031204974079 0.015608314933 
7.0367382747e-16 
_area 1 100 double
0 0.00053451509536 0.0021205866367 0.0047090713978 0.0082280033636 0.012594358032 0.017725244517 0.023545184337 0.029987085734 
0.036986003239 0.044466646016 0.052327663366 0.060427331415 0.0685754811 0.076535057224 0.084034264527 0.090787823819 0.096524085344 
0.10101394635 0.10409770786 0.10570671867 0.10587720446 0.10475394925 0.10258211234 0.099686823366 0.096441940897 0.093231796783 
0.090418248061 0.088301463649 0.08695087013 0.086262792884 0.086123976249 0.086400963862 0.08694881951 0.087625832989 0.088306323649 
0.088893535736 0.089339506952 0.089675132343 0.09002782828 0.090565265469 0.091388841902 0.092405990346 0.093582694885 0.094972869103 
0.096711939394 0.099018987176 0.10214861135 0.10630516313 0.1115761682 0.11791180449 0.1251347738 0.1329649949 0.14105403296 
0.1490250148 0.15651416449 0.1632096412 0.16888273781 0.17340761004 0.17676850308 0.17905788918 0.18047200236 0.18128214211 
0.18181870343 0.18223461555 0.18252371364 0.18256858221 0.18213850357 0.1811287959 0.17943758672 0.17698458056 0.1737541232 
0.16979837922 0.16522161404 0.16015824199 0.15474354029 0.14908034321 0.14321401639 0.1371286227 0.13076624278 0.1240561115 
0.11693883759 0.10938190998 0.10138892883 0.093004105454 0.084311514118 0.075428319735 0.066492804738 0.057650153017 0.049040176975 
0.040790714417 0.033017990046 0.025831486116 0.019338280615 0.013642928304 0.0088428450801 0.0050221525929 0.002247048044 0.00056397246522 
4.383223433e-17 
