# vtk DataFile Version 5.1
vtk output
ASCII
DATASET POLYDATA
POINTS 100 float
0.112226 0.0710301 -0.667318 0.112338 0.0707149 -0.667163 0.112639 0.0699334 -0.666681 
0.113083 0.0686925 -0.665846 0.113598 0.0670029 -0.664618 0.114091 0.0648793 -0.662941 
0.114458 0.0623394 -0.660755 0.11459 0.0594033 -0.657994 0.114381 0.0560926 -0.654591 
0.113739 0.0524299 -0.650486 0.112588 0.048438 -0.645625 0.110875 0.0441395 -0.639964 
0.108568 0.0395567 -0.633468 0.10566 0.0347118 -0.626114 0.102164 0.0296274 -0.617887 
0.09811 0.0243276 -0.608782 0.0935403 0.0188386 -0.598799 0.0885054 0.0131909 -0.587942 
0.0830586 0.00741957 -0.576219 0.0772527 0.00156596 -0.56364 0.071137 -0.00432184 -0.550218 
0.0647554 -0.0101888 -0.535966 0.0581461 -0.0159735 -0.520902 0.0513414 -0.0216092 -0.505045 
0.0443685 -0.0270262 -0.488418 0.0372508 -0.0321538 -0.47105 0.0300087 -0.0369237 -0.452971 
0.0226611 -0.041273 -0.434217 0.0152256 -0.0451473 -0.414824 0.0077195 -0.0485031 -0.39483 
0.000160477 -0.0513104 -0.374271 -0.00743304 -0.0535532 -0.353179 -0.0150407 -0.0552299 -0.331583 
-0.0226388 -0.0563527 -0.309507 -0.0301986 -0.0569449 -0.286969 -0.0376836 -0.0570392 -0.263986 
-0.0450477 -0.0566737 -0.240571 -0.0522322 -0.0558892 -0.216739 -0.0591647 -0.0547258 -0.192511 
-0.065758 -0.05322 -0.167913 -0.0719106 -0.0514036 -0.142984 -0.0775091 -0.0493021 -0.117773 
-0.0824324 -0.0469354 -0.092345 -0.0865569 -0.0443186 -0.0667758 -0.089764 -0.0414643 -0.0411534 
-0.091947 -0.038385 -0.0155735 -0.0930196 -0.0350957 0.00986398 -0.0929226 -0.0316166 0.0350602 
-0.0916296 -0.0279753 0.0599217 -0.08915 -0.0242078 0.0843653 -0.0855306 -0.0203593 0.108322 
-0.0808529 -0.0164831 0.131737 -0.0752289 -0.0126396 0.154577 -0.068794 -0.0088935 0.176822 
-0.0616981 -0.00531144 0.198468 -0.0540964 -0.0019586 0.219523 -0.0461397 0.00110404 0.240005 
-0.0379662 0.00382224 0.259934 -0.0296947 0.00615048 0.279333 -0.0214201 0.00805316 0.298221 
-0.0132122 0.00950506 0.316614 -0.00511604 0.0104912 0.33452 0.00284458 0.0110061 0.351943 
0.0106623 0.0110529 0.368885 0.0183404 0.0106425 0.38534 0.0258867 0.00979246 0.401307 
0.0333082 0.00852665 0.416784 0.0406072 0.00687501 0.431774 0.0477785 0.0048737 0.446284 
0.0548087 0.00256534 0.460327 0.0616777 -6.54777e-07 0.473917 0.0683606 -0.00276817 0.487073 
0.0748311 -0.00567485 0.499811 0.0810647 -0.00865337 0.512143 0.0870415 -0.0116335 0.524073 
0.0927479 -0.0145448 0.535595 0.0981773 -0.0173204 0.546692 0.103329 -0.0199005 0.557334 
0.108206 -0.0222369 0.567478 0.112812 -0.0242955 0.577073 0.117148 -0.0260601 0.586061 
0.121209 -0.0275329 0.59438 0.124983 -0.0287346 0.601974 0.128447 -0.029703 0.608793 
0.131572 -0.0304889 0.614798 0.134326 -0.0311521 0.619969 0.136672 -0.0317548 0.624306 
0.138581 -0.0323561 0.627827 0.140033 -0.0330057 0.630574 0.141027 -0.0337388 0.632608 
0.141578 -0.0345725 0.634008 0.141726 -0.0355035 0.634865 0.141532 -0.0365091 0.635281 
0.141076 -0.0375486 0.635361 0.140454 -0.038568 0.635209 0.139766 -0.0395055 0.634921 
0.139112 -0.0402981 0.634585 0.138583 -0.0408882 0.634272 0.138247 -0.0412299 0.634035 
0.138151 -0.0412937 0.633906 
LINES 2 100
OFFSETS vtktypeint64
0 100 
CONNECTIVITY vtktypeint64
0 1 2 3 4 5 6 7 8 
9 10 11 12 13 14 15 16 17 
18 19 20 21 22 23 24 25 26 
27 28 29 30 31 32 33 34 35 
36 37 38 39 40 41 42 43 44 
45 46 47 48 49 50 51 52 53 
54 55 56 57 58 59 60 61 62 
63 64 65 66 67 68 69 70 71 
72 73 74 75 76 77 78 79 80 
81 82 83 84 85 86 87 88 89 
90 91 92 93 94 95 96 97 98 
99 
POINT_DATA 100
FIELD FieldData 3
_theta 1 100 double
0 0.031733259127 0.063466518254 0.095199777382 0.12693303651 0.15866629564 0.19039955476 0.22213281389 0.25386607302 
0.28559933214 0.31733259127 0.3490658504 0.38079910953 0.41253236865 0.44426562778 0.47599888691 0.50773214603 0.53946540516 
0.57119866429 0.60293192342 0.63466518254 0.66639844167 0.6981317008 0.72986495992 0.76159821905 0.79333147818 0.82506473731 
0.85679799643 0.88853125556 0.92026451469 0.95199777382 0.98373103294 1.0154642921 1.0471975512 1.0789308103 1.1106640695 
1.1423973286 1.1741305877 1.2058638468 1.237597106 1.2693303651 1.3010636242 1.3327968833 1.3645301425 1.3962634016 
1.4279966607 1.4597299198 1.491463179 1.5231964381 1.5549296972 1.5866629564 1.6183962155 1.6501294746 1.6818627337 
1.7135959929 1.745329252 1.7770625111 1.8087957702 1.8405290294 1.8722622885 1.9039955476 1.9357288068 1.9674620659 
1.999195325 2.0309285841 2.0626618433 2.0943951024 2.1261283615 2.1578616206 2.1895948798 2.2213281389 2.253061398 
2.2847946572 2.3165279163 2.3482611754 2.3799944345 2.4117276937 2.4434609528 2.4751942119 2.506927471 2.5386607302 
2.5703939893 2.6021272484 2.6338605076 2.6655937667 2.6973270258 2.7290602849 2.7607935441 2.7925268032 2.8242600623 
2.8559933214 2.8877265806 2.9194598397 2.9511930988 2.982926358 3.0146596171 3.0463928762 3.0781261353 3.1098593945 
3.1415926536 
_radius 1 100 double
6.7332303459e-16 0.015297545001 0.030532212417 0.045642045273 0.060554291281 0.075181665947 0.089420808104 0.10315334692 0.11624971385 
0.12857550515 0.13999985608 0.1504049676 0.1596956882 0.16780795701 0.17471499848 0.18043042224 0.18500777957 0.18853659191 
0.19113532071 0.19294212921 0.19410454814 0.19476926558 0.19507319062 0.19513667753 0.1950593678 0.19491859565 0.19476985105 
0.19464854607 0.1945723547 0.19454364672 0.19455187687 0.19457609944 0.19458800325 0.19455596131 0.1944504251 0.1942504247 
0.19395008724 0.1935634118 0.19312549763 0.19268915413 0.19231717103 0.19207218368 0.19200746755 0.19216225258 0.19256357097 
0.19323369374 0.194199517 0.19549934856 0.19718365231 0.1993086362 0.2019241527 0.20505939334 0.20871061639 0.21283438039 
0.21734792597 0.22213633964 0.22706460481 0.231991843 0.23678502578 0.24133008573 0.24553931752 0.24935480912 0.25274814264 
0.25571679542 0.25827774137 0.26045888249 0.2622892059 0.26378889724 0.26496086843 0.26578508171 0.26621659663 0.26618754678 
0.26561252304 0.26439633543 0.26244293706 0.25966436473 0.25598875297 0.25136670542 0.24577551098 0.23922087841 0.2317360632 
0.22337850078 0.21422433939 0.20436154938 0.19388250442 0.18287700824 0.17142662533 0.15960087879 0.14745549025 0.13503248447 
0.1223617714 0.10946377044 0.096352688483 0.083040105977 0.069538510577 0.055864370947 0.04204033728 0.028096246735 0.01406879945 
1.2940875925e-15 
_area 1 100 double
0 0.00053909370646 0.0021619353188 0.0048805387389 0.0087002753979 0.013601156527 0.019517989562 0.026324539861 0.03382602231 
0.041762434632 0.049823123924 0.05767101105 0.064973277596 0.071434150892 0.076824834839 0.08100578245 0.083937479508 0.085677656078 
0.086365223268 0.086194098811 0.085383025787 0.084149288702 0.08269325578 0.08119656066 0.079828671499 0.078736432739 0.077996667078 
0.077614969639 0.077582533964 0.077901076444 0.078578287296 0.079611872886 0.08096933897 0.082576735196 0.084326151945 0.086097732423 
0.087785957098 0.089321699171 0.090684663505 0.091904576683 0.093052370439 0.094222653911 0.095508884032 0.09697726754 0.098651724659 
0.10052159936 0.10257142557 0.10481794957 0.1073350879 0.11025398498 0.11373755958 0.11794038374 0.12296825491 0.12884756115 
0.13550921665 0.14278901176 0.15044445911 0.15818595643 0.1657168504 0.17277416254 0.17916122337 0.18476559238 0.18955941012 
0.19358354093 0.19692055573 0.19966394067 0.2018910622 0.20364494581 0.20492588154 0.20569071052 0.20585699224 0.20531037055 
0.20391472298 0.20152539006 0.19800585725 0.19324728472 0.18718821939 0.17983016277 0.17124505534 0.16157287462 0.15100984076 
0.13978928895 0.128158274 0.11635381037 0.10458329407 0.09301348801 0.08177056205 0.070949860851 0.060630085397 0.050885375257 
0.041791339658 0.033425067961 0.02586167901 0.019170257598 0.013410960719 0.0086337646092 0.0048784428445 0.0021751059152 0.00054480705692 
2.9975848226e-17 
