# vtk DataFile Version 5.1
vtk output
ASCII
DATASET POLYDATA
POINTS 100 float
0.0880661 -0.0466718 0.665865 0.0879653 -0.0465111 0.665888 0.0876315 -0.0461611 0.666099 
0.0870717 -0.0456218 0.666423 0.0862978 -0.0448957 0.666747 0.0853266 -0.0439886 0.666923 
0.08418 -0.0429117 0.666781 0.0828844 -0.0416824 0.666145 0.0814703 -0.0403249 0.664843 
0.0799703 -0.0388693 0.662726 0.0784175 -0.0373499 0.659672 0.0768424 -0.0358024 0.655601 
0.0752697 -0.0342603 0.650475 0.0737151 -0.0327508 0.644299 0.0721823 -0.0312913 0.63712 
0.0706602 -0.0298869 0.629019 0.0691218 -0.0285284 0.620103 0.0675237 -0.027193 0.61049 
0.0658085 -0.0258465 0.600302 0.0639068 -0.0244473 0.589653 0.061743 -0.0229518 0.57864 
0.0592403 -0.0213203 0.567335 0.0563278 -0.0195237 0.555782 0.0529467 -0.0175486 0.544001 
0.0490562 -0.0154013 0.531984 0.0446383 -0.0131095 0.519706 0.0396999 -0.0107216 0.507129 
0.0342735 -0.00830378 0.494212 0.0284143 -0.0059341 0.480918 0.0221958 -0.00369592 0.467219 
0.0157027 -0.00166999 0.453101 0.00902278 7.30797e-05 0.438566 0.0022379 0.00147926 0.42363 
-0.00458393 0.00251551 0.408315 -0.0113954 0.00317168 0.39265 -0.018174 0.00345959 0.376657 
-0.0249233 0.00340939 0.360347 -0.0316704 0.00306378 0.343712 -0.0384597 0.00247066 0.326721 
-0.0453444 0.00167542 0.309319 -0.0523749 0.000713723 0.291427 -0.0595863 -0.000394072 0.27295 
-0.0669868 -0.00164618 0.253781 -0.074547 -0.00305979 0.233817 -0.0821927 -0.00466856 0.212964 
-0.0898022 -0.0065174 0.191156 -0.0972075 -0.00865528 0.168357 -0.104202 -0.0111269 0.144573 
-0.110552 -0.0139642 0.119855 -0.11601 -0.0171795 0.0942952 -0.120338 -0.0207594 0.0680271 
-0.123321 -0.0246631 0.0412123 -0.124786 -0.0288218 0.0140304 -0.12462 -0.0331432 -0.0133337 
-0.122775 -0.0375165 -0.0407041 -0.119278 -0.0418209 -0.0679255 -0.114226 -0.045934 -0.0948729 
-0.107777 -0.0497404 -0.121457 -0.100142 -0.0531388 -0.147625 -0.09156 -0.0560476 -0.17336 
-0.0822844 -0.0584073 -0.198668 -0.0725584 -0.0601807 -0.223575 -0.0625983 -0.0613504 -0.248112 
-0.0525776 -0.0619146 -0.272299 -0.0426184 -0.061881 -0.296143 -0.0327868 -0.0612618 -0.319621 
-0.0230968 -0.0600677 -0.342683 -0.0135188 -0.0583051 -0.365248 -0.00399337 -0.0559742 -0.387213 
0.00555181 -0.0530698 -0.408456 0.0151843 -0.0495842 -0.428852 0.0249505 -0.0455118 -0.448284 
0.0348619 -0.0408549 -0.466655 0.0448873 -0.035629 -0.483902 0.0549499 -0.0298681 -0.500002 
0.0649315 -0.0236278 -0.514974 0.0746821 -0.0169861 -0.528881 0.0840342 -0.0100421 -0.541826 
0.0928206 -0.00291204 -0.553936 0.100892 0.00427733 -0.565359 0.108136 0.0113959 -0.576243 
0.114485 0.0183185 -0.586723 0.119933 0.0249331 -0.596914 0.124528 0.031147 -0.606894 
0.128374 0.0368917 -0.616705 0.131617 0.0421248 -0.626348 0.134429 0.0468298 -0.635785 
0.136989 0.0510131 -0.644948 0.139465 0.0546993 -0.653747 0.141991 0.057925 -0.66208 
0.144656 0.0607324 -0.669844 0.147492 0.0631636 -0.676944 0.150472 0.0652551 -0.683302 
0.153513 0.0670354 -0.688856 0.156489 0.0685227 -0.693569 0.159242 0.0697261 -0.697422 
0.161606 0.0706473 -0.70041 0.163423 0.0712831 -0.702537 0.164566 0.0716291 -0.703813 
0.164953 0.0716823 -0.704245 
LINES 2 100
OFFSETS vtktypeint64
0 100 
CONNECTIVITY vtktypeint64
0 1 2 3 4 5 6 7 8 
9 10 11 12 13 14 15 16 17 
18 19 20 21 22 23 24 25 26 
27 28 29 30 31 32 33 34 35 
36 37 38 39 40 41 42 43 44 
45 46 47 48 49 50 51 52 53 
54 55 56 57 58 59 60 61 62 
63 64 65 66 67 68 69 70 71 
72 73 74 75 76 77 78 79 80 
81 82 83 84 85 86 87 88 89 
90 91 92 93 94 95 96 97 98 
99 
POINT_DATA 100
FIELD FieldData 3
_theta 1 100 double
0 0.031733259127 0.063466518254 0.095199777382 0.12693303651 0.15866629564 0.19039955476 0.22213281389 0.25386607302 
0.28559933214 0.31733259127 0.3490658504 0.38079910953 0.41253236865 0.44426562778 0.47599888691 0.50773214603 0.53946540516 
0.57119866429 0.60293192342 0.63466518254 0.66639844167 0.6981317008 0.72986495992 0.76159821905 0.79333147818 0.82506473731 
0.85679799643 0.88853125556 0.92026451469 0.95199777382 0.98373103294 1.0154642921 1.0471975512 1.0789308103 1.1106640695 
1.1423973286 1.1741305877 1.2058638468 1.237597106 1.2693303651 1.3010636242 1.3327968833 1.3645301425 1.3962634016 
1.4279966607 1.4597299198 1.491463179 1.5231964381 1.5549296972 1.5866629564 1.6183962155 1.6501294746 1.6818627337 
1.7135959929 1.745329252 1.7770625111 1.8087957702 1.8405290294 1.8722622885 1.9039955476 1.9357288068 1.9674620659 
1.999195325 2.0309285841 2.0626618433 2.0943951024 2.1261283615 2.1578616206 2.1895948798 2.2213281389 2.253061398 
2.2847946572 2.3165279163 2.3482611754 2.3799944345 2.4117276937 2.4434609528 2.4751942119 2.506927471 2.5386607302 
2.5703939893 2.6021272484 2.6338605076 2.6655937667 2.6973270258 2.7290602849 2.7607935441 2.7925268032 2.8242600623 
2.8559933214 2.8877265806 2.9194598397 2.9511930988 2.982926358 3.0146596171 3.0463928762 3.0781261353 3.1098593945 
3.1415926536 
_radius 1 100 double
1.5265566589e-16 0.015674455608 0.031200937804 0.046451502577 0.061324219369 0.075749491538 0.089690246732 0.10313637986 0.11609525724 
0.12858104929 0.14060576611 0.15217402681 0.16328211906 0.17392041211 0.18407725651 0.19374240549 0.2029086121 0.21157103516 
0.21972502016 0.22736341089 0.23447466106 0.24104268142 0.2470487205 0.25247485255 0.25730806732 0.26154370736 0.26518715008 
0.26825311721 0.27076263723 0.27273827838 0.27419864504 0.27515322229 0.27559850136 0.27551603713 0.27487280511 0.27362401421 
0.27171838196 0.26910570965 0.26574632732 0.26162159798 0.256744252 0.25116698893 0.24498765397 0.23834945245 0.23143515617 
0.22445509565 0.2176298874 0.21117017039 0.20525679149 0.20002534411 0.19555816144 0.19188470049 0.18898858103 0.18681785556 
0.18529522671 0.18432627392 0.1838051257 0.18361812719 0.18364726637 0.18377597558 0.18389905924 0.18393571985 0.18384203113 
0.18361883364 0.18331265675 0.18300924197 0.1828205707 0.18286704138 0.18325692824 0.18406568993 0.18531816554 0.1869769291 
0.18893944096 0.19104489673 0.19308946811 0.19484693122 0.19609102547 0.1966161869 0.19625413922 0.19488481791 0.19244102653 
0.18890700205 0.18431168701 0.17871798963 0.17220966662 0.16487766552 0.15680776003 0.14807105519 0.13871844072 0.12877941656 
0.11826504332 0.10717421443 0.095502082283 0.083249304335 0.070430766809 0.057082562185 0.043266234213 0.029069664902 0.01460443691 
3.457687414e-16 
_area 1 100 double
0 0.00065479277476 0.0025938271431 0.0057457692909 0.01000574772 0.015251290573 0.021356584407 0.028201146685 0.035671881255 
0.043660605915 0.05206093147 0.060767972936 0.06968214003 0.078715466146 0.087797051077 0.096874218119 0.10590803395 0.11486478824 
0.12370695444 0.13238694993 0.14084544455 0.14901446607 0.15682452678 0.16421394038 0.17113728647 0.17756950452 0.18350341201 
0.18894110487 0.19388174831 0.19830870511 0.20217889901 0.20541759214 0.20792134312 0.20956968078 0.21024233253 0.2098348256 
0.20826289176 0.20545297315 0.2013380029 0.19588134939 0.18911573494 0.18116916073 0.17226892655 0.16272811307 0.15292183089 
0.14325896891 0.13415025176 0.1259688511 0.11899995868 0.11338320904 0.10906947504 0.10583174103 0.10334796771 0.10131933652 
0.099478669477 0.097530222809 0.095259058672 0.09259220895 0.08958546439 0.086405671691 0.083326473411 0.080617414148 0.078387438492 
0.076653893951 0.07533848284 0.074340952059 0.073656986638 0.073344680023 0.07351214577 0.074266268486 0.075698308695 0.077850453445 
0.080684057076 0.084019991187 0.087397318836 0.090366487511 0.092582003025 0.093803388861 0.093895159987 0.092816726696 0.090605220541 
0.087355804994 0.083202846323 0.078303298057 0.072821951441 0.06691792889 0.060733155976 0.054385390501 0.047968652025 0.04156134765 
0.035238620325 0.029083832412 0.02319572675 0.017690408326 0.012698667103 0.008359353872 0.004809607061 0.0021731993517 0.00054879269843 
9.4423730337e-17 
