# vtk DataFile Version 5.1
vtk output
ASCII
DATASET POLYDATA
POINTS 100 float
0.148288 -0.0355118 0.699185 0.148356 -0.035401 0.699256 0.148489 -0.0352455 0.699567 
0.148647 -0.0350575 0.700034 0.148773 -0.0348531 0.700526 0.148794 -0.034648 0.700871 
0.148635 -0.034452 0.700876 0.148225 -0.0342645 0.700336 0.147505 -0.0340705 0.699054 
0.146433 -0.0338401 0.696852 0.144987 -0.0335292 0.693585 0.143163 -0.0330837 0.68915 
0.140974 -0.0324458 0.683492 0.13844 -0.031562 0.676601 0.135584 -0.030391 0.668517 
0.132423 -0.0289116 0.659317 0.128958 -0.0271283 0.649109 0.125179 -0.0250741 0.638025 
0.121052 -0.0228098 0.626203 0.116532 -0.02042 0.613787 0.111559 -0.0180056 0.600907 
0.106072 -0.0156739 0.587679 0.100015 -0.0135278 0.574197 0.0933481 -0.0116547 0.56053 
0.0860524 -0.0101178 0.546721 0.078138 -0.00894973 0.532789 0.069645 -0.00814963 0.51873 
0.0606418 -0.0076852 0.504522 0.0512202 -0.00749806 0.490126 0.0414868 -0.00751258 0.475494 
0.0315533 -0.0076468 0.460568 0.0215258 -0.00782399 0.445285 0.0114951 -0.00798332 0.429579 
0.00153054 -0.00808811 0.413384 -0.00832402 -0.00813074 0.396636 -0.0180491 -0.00813336 0.379271 
-0.027645 -0.00814435 0.361231 -0.0371231 -0.00823117 0.342466 -0.046495 -0.00847043 0.322933 
-0.0557612 -0.00893662 0.302599 -0.0649 -0.00969113 0.281447 -0.0738591 -0.010773 0.259475 
-0.0825515 -0.012193 0.236697 -0.0908553 -0.0139309 0.213147 -0.0986199 -0.0159382 0.188875 
-0.105676 -0.0181435 0.16395 -0.111847 -0.020462 0.138457 -0.116972 -0.0228063 0.112491 
-0.120911 -0.0250976 0.0861559 -0.123569 -0.0272753 0.0595609 -0.124901 -0.0293042 0.0328135 
-0.124922 -0.031178 0.00601719 -0.1237 -0.0329175 -0.0207325 -0.121357 -0.0345658 -0.0473507 
-0.118053 -0.0361794 -0.0737646 -0.113972 -0.0378166 -0.0999143 -0.109305 -0.0395255 -0.125752 
-0.104229 -0.0413333 -0.151239 -0.0988942 -0.0432369 -0.176348 -0.0934101 -0.0451988 -0.201056 
-0.0878387 -0.0471459 -0.225343 -0.0821937 -0.0489743 -0.249191 -0.0764454 -0.0505578 -0.272583 
-0.0705305 -0.0517596 -0.2955 -0.0643666 -0.0524459 -0.317922 -0.0578685 -0.0524999 -0.339826 
-0.0509647 -0.0518337 -0.361191 -0.0436122 -0.0503975 -0.381997 -0.0358076 -0.0481841 -0.402226 
-0.0275934 -0.0452296 -0.421864 -0.0190596 -0.0416085 -0.440902 -0.0103385 -0.037425 -0.459338 
-0.00159607 -0.0328024 -0.477175 0.0069808 -0.0278697 -0.494422 0.0151993 -0.02275 -0.511095 
0.0228759 -0.0175493 -0.527211 0.0298497 -0.0123495 -0.542794 0.0359942 -0.00720475 -0.557867 
0.041224 -0.00214145 -0.572451 0.0454988 0.00283717 -0.586568 0.0488219 0.00774427 -0.600235 
0.0512358 0.0126006 -0.613467 0.052815 0.0174256 -0.626269 0.0536569 0.0222288 -0.638642 
0.0538722 0.0270046 -0.650581 0.0535759 0.0317288 -0.66207 0.0528801 0.0363589 -0.673088 
0.0518884 0.0408373 -0.683604 0.0506924 0.0450973 -0.69358 0.0493709 0.0490701 -0.70297 
0.0479903 0.0526926 -0.711723 0.046606 0.0559136 -0.719781 0.0452651 0.0586988 -0.727085 
0.0440082 0.0610334 -0.733573 0.0428713 0.0629209 -0.739185 0.0418862 0.0643804 -0.743863 
0.0410811 0.0654409 -0.747557 0.04048 0.0661349 -0.750224 0.0401011 0.0664919 -0.751834 
0.0399566 0.0665326 -0.752366 
LINES 2 100
OFFSETS vtktypeint64
0 100 
CONNECTIVITY vtktypeint64
0 1 2 3 4 5 6 7 8 
9 10 11 12 13 14 15 16 17 
18 19 20 21 22 23 24 25 26 
27 28 29 30 31 32 33 34 35 
36 37 38 39 40 41 42 43 44 
45 46 47 48 49 50 51 52 53 
54 55 56 57 58 59 60 61 62 
63 64 65 66 67 68 69 70 71 
72 73 74 75 76 77 78 79 80 
81 82 83 84 85 86 87 88 89 
90 91 92 93 94 95 96 97 98 
99 
POINT_DATA 100
FIELD FieldData 3
_theta 1 100 double
0 0.031733259127 0.063466518254 0.095199777382 0.12693303651 0.15866629564 0.19039955476 0.22213281389 0.25386607302 
0.28559933214 0.31733259127 0.3490658504 0.38079910953 0.41253236865 0.44426562778 0.47599888691 0.50773214603 0.53946540516 
0.57119866429 0.60293192342 0.63466518254 0.66639844167 0.6981317008 0.72986495992 0.76159821905 0.79333147818 0.82506473731 
0.85679799643 0.88853125556 0.92026451469 0.95199777382 0.98373103294 1.0154642921 1.0471975512 1.0789308103 1.1106640695 
1.1423973286 1.1741305877 1.2058638468 1.237597106 1.2693303651 1.3010636242 1.3327968833 1.3645301425 1.3962634016 
1.4279966607 1.4597299198 1.491463179 1.5231964381 1.5549296972 1.5866629564 1.6183962155 1.6501294746 1.6818627337 
1.7135959929 1.745329252 1.7770625111 1.8087957702 1.8405290294 1.8722622885 1.9039955476 1.9357288068 1.9674620659 
1.999195325 2.0309285841 2.0626618433 2.0943951024 2.1261283615 2.1578616206 2.1895948798 2.2213281389 2.253061398 
2.2847946572 2.3165279163 2.3482611754 2.3799944345 2.4117276937 2.4434609528 2.4751942119 2.506927471 2.5386607302 
2.5703939893 2.6021272484 2.6338605076 2.6655937667 2.6973270258 2.7290602849 2.7607935441 2.7925268032 2.8242600623 
2.8559933214 2.8877265806 2.9194598397 2.9511930988 2.982926358 3.0146596171 3.0463928762 3.0781261353 3.1098593945 
3.1415926536 
_radius 1 100 double
3.2671802394e-16 0.016316121674 0.032543731262 0.0485990932 0.064398214218 0.07985640645 0.094887962219 0.109406247 0.1233245941 
0.13655834649 0.14902820896 0.16066476425 0.17141363227 0.18124041189 0.19013435638 0.19810980283 0.20520475002 0.21147660476 
0.21699581831 0.22183866606 0.22608058454 0.22979122468 0.23303184157 0.23585501581 0.23830613602 0.24042563867 0.24225077844 
0.24381580899 0.24514996448 0.2462734597 0.24719259487 0.24789561294 0.24835095364 0.24850896677 0.24830725143 0.24767896466 
0.24656294063 0.24491428586 0.24271413924 0.23997739431 0.23675732919 0.23314629102 0.22927188789 0.22528861344 0.22136549234 
0.21767113665 0.21435836462 0.21155094799 0.20933477635 0.20775461828 0.20681603558 0.20649060512 0.20672214169 0.20743227858 
0.20852505425 0.20989124665 0.21141350902 0.21297288216 0.21445642211 0.21576498395 0.21681993702 0.21756780296 0.21798234499 
0.21806420868 0.21783855329 0.21735110575 0.2166628043 0.2158429064 0.21496038208 0.21407377618 0.2132204698 0.21240709052 
0.21160322156 0.21074018466 0.20971559555 0.20840308658 0.20666555736 0.20436977886 0.2014001106 0.19766938684 0.19312560493 
0.18775383011 0.18157357275 0.17463258946 0.16699842533 0.15874900374 0.14996331147 0.14071294064 0.13105509665 0.12102766821 
0.11064697196 0.099908738512 0.088792759086 0.077271272073 0.065320473 0.052933483942 0.040132109768 0.02697434121 0.013555196627 
1.1403413777e-15 
_area 1 100 double
0 0.00069355303049 0.0027521280934 0.0061115263607 0.010671401943 0.016304349418 0.022866399931 0.03020651934 0.03817289162 
0.04661491599 0.055381540768 0.06431853057 0.073268713969 0.082078233855 0.090607929074 0.098745414929 0.10641335577 0.11357213719 
0.12021756982 0.12637468261 0.13208803525 0.13740903837 0.14238228612 0.14703519654 0.15137591648 0.15540095345 0.1591076138 
0.16250321544 0.16560691243 0.16844477971 0.17103882094 0.17339018413 0.17545997568 0.17715514623 0.17832847399 0.17879783777 
0.17838136072 0.17693779291 0.17440056845 0.17079773558 0.16625472495 0.16098096339 0.1552441902 0.14933770958 0.14354588075 
0.13811267197 0.13321770258 0.12896365612 0.12537767416 0.12242681306 0.12004325786 0.11815025279 0.1166794556 0.1155763456 
0.11482903612 0.11455144172 0.1145101931 0.11459741843 0.11470669523 0.11474121822 0.11463651199 0.11434986966 0.11385022847 
0.11311367786 0.11212903011 0.11091277682 0.1095249834 0.10807578417 0.1067175279 0.10562970996 0.10517871965 0.10533909618 
0.10586921047 0.10657347441 0.10724650743 0.10768343924 0.1076930105 0.10710537348 0.10577733969 0.10359815005 0.10049726521 
0.096453520689 0.091502669751 0.085738843926 0.079306400622 0.072382226849 0.065152766231 0.057792387119 0.050449285115 0.043242397617 
0.036268831623 0.029617289398 0.023380545423 0.017661095096 0.012568747925 0.0082136250381 0.0046988679496 0.0021146931337 0.00053277713697 
2.2144802955e-17 
