# vtk DataFile Version 5.1
vtk output
ASCII
DATASET POLYDATA
POINTS 100 float
0.117628 -0.0448559 0.709565 0.117595 -0.0450315 0.709359 0.117513 -0.0454129 0.708585 
0.117365 -0.0459504 0.707276 0.117127 -0.0465674 0.705479 0.116774 -0.0471698 0.703249 
0.116281 -0.0476575 0.700634 0.115629 -0.0479363 0.697667 0.114808 -0.0479289 0.694354 
0.11382 -0.0475831 0.690672 0.112678 -0.0468768 0.686564 0.111403 -0.0458189 0.681946 
0.110019 -0.0444461 0.676714 0.108548 -0.0428161 0.670756 0.107005 -0.0409987 0.663966 
0.105388 -0.0390657 0.656259 0.103679 -0.0370808 0.647582 0.101837 -0.0350919 0.637923 
0.0998009 -0.0331259 0.627315 0.0974946 -0.031187 0.615834 0.0948306 -0.0292589 0.603588 
0.0917204 -0.0273101 0.590714 0.088084 -0.0253022 0.577354 0.0838599 -0.0231982 0.563646 
0.0790134 -0.0209723 0.549708 0.0735428 -0.0186168 0.535628 0.0674822 -0.0161473 0.521454 
0.0609 -0.013604 0.507198 0.0538934 -0.0110497 0.492833 0.0465799 -0.00856481 0.478307 
0.0390853 -0.00623878 0.463551 0.0315309 -0.00416123 0.448492 0.0240205 -0.00241222 0.433066 
0.0166296 -0.00105397 0.417227 0.00939721 -0.000124891 0.40095 0.00232216 0.000363185 0.384236 
-0.00463562 0.000424337 0.367104 -0.0115491 9.44665e-05 0.349589 -0.0185133 -0.000575487 0.331725 
-0.0256319 -0.00152804 0.313536 -0.0330006 -0.00270809 0.295028 -0.0406916 -0.004071 0.276181 
-0.0487389 -0.00558863 0.256941 -0.057127 -0.00725242 0.23723 -0.0657846 -0.00907321 0.216948 
-0.0745828 -0.0110776 0.195985 -0.0833404 -0.0133018 0.174239 -0.0918334 -0.0157833 0.151628 
-0.0998092 -0.0185521 0.128106 -0.107005 -0.0216226 0.103671 -0.113164 -0.0249871 0.0783765 
-0.118059 -0.0286124 0.0523262 -0.121503 -0.0324394 0.0256699 -0.123364 -0.0363858 -0.00140903 
-0.123577 -0.0403523 -0.0287092 -0.122137 -0.0442306 -0.0560293 -0.119107 -0.0479116 -0.0831858 
-0.114602 -0.0512946 -0.110027 -0.10878 -0.0542937 -0.136445 -0.10183 -0.056843 -0.162378 
-0.0939519 -0.0588973 -0.187806 -0.0853447 -0.0604315 -0.212747 -0.0761913 -0.0614356 -0.23724 
-0.0666477 -0.0619086 -0.261331 -0.0568366 -0.061852 -0.285054 -0.0468434 -0.0612626 -0.308418 
-0.0367173 -0.0601274 -0.3314 -0.0264749 -0.0584217 -0.353934 -0.0161077 -0.0561088 -0.375923 
-0.0055905 -0.0531444 -0.397238 0.00510907 -0.0494828 -0.417741 0.0160209 -0.0450854 -0.437297 
0.027164 -0.0399302 -0.455793 0.0385398 -0.03402 -0.473155 0.0501272 -0.0273898 -0.489358 
0.0618807 -0.0201101 -0.504432 0.0737302 -0.0122868 -0.518456 0.0855834 -0.00405772 -0.531555 
0.0973298 0.00441593 -0.543877 0.108846 0.0129597 -0.555578 0.120003 0.0213988 -0.566796 
0.13067 0.0295703 -0.577636 0.140725 0.0373351 -0.588149 0.15006 0.0445868 -0.598328 
0.158582 0.0512567 -0.608104 0.166224 0.0573152 -0.617356 0.172943 0.0627688 -0.625927 
0.178722 0.0676529 -0.633645 0.183575 0.0720228 -0.640349 0.187539 0.0759427 -0.645909 
0.190678 0.0794752 -0.650257 0.193073 0.0826714 -0.653391 0.194822 0.0855652 -0.655388 
0.196032 0.0881689 -0.656396 0.196814 0.0904744 -0.656626 0.197277 0.0924563 -0.656323 
0.197518 0.0940782 -0.655746 0.19762 0.0953 -0.655137 0.197649 0.0960862 -0.654691 
0.197642 0.0964118 -0.654535 
LINES 2 100
OFFSETS vtktypeint64
0 100 
CONNECTIVITY vtktypeint64
0 1 2 3 4 5 6 7 8 
9 10 11 12 13 14 15 16 17 
18 19 20 21 22 23 24 25 26 
27 28 29 30 31 32 33 34 35 
36 37 38 39 40 41 42 43 44 
45 46 47 48 49 50 51 52 53 
54 55 56 57 58 59 60 61 62 
63 64 65 66 67 68 69 70 71 
72 73 74 75 76 77 78 79 80 
81 82 83 84 85 86 87 88 89 
90 91 92 93 94 95 96 97 98 
99 
POINT_DATA 100
FIELD FieldData 3
_theta 1 100 double
0 0.031733259127 0.063466518254 0.095199777382 0.12693303651 0.15866629564 0.19039955476 0.22213281389 0.25386607302 
0.28559933214 0.31733259127 0.3490658504 0.38079910953 0.41253236865 0.44426562778 0.47599888691 0.50773214603 0.53946540516 
0.57119866429 0.60293192342 0.63466518254 0.66639844167 0.6981317008 0.72986495992 0.76159821905 0.79333147818 0.82506473731 
0.85679799643 0.88853125556 0.92026451469 0.95199777382 0.98373103294 1.0154642921 1.0471975512 1.0789308103 1.1106640695 
1.1423973286 1.1741305877 1.2058638468 1.237597106 1.2693303651 1.3010636242 1.3327968833 1.3645301425 1.3962634016 
1.4279966607 1.4597299198 1.491463179 1.5231964381 1.5549296972 1.5866629564 1.6183962155 1.6501294746 1.6818627337 
1.7135959929 1.745329252 1.7770625111 1.8087957702 1.8405290294 1.8722622885 1.9039955476 1.9357288068 1.9674620659 
1.999195325 2.0309285841 2.0626618433 2.0943951024 2.1261283615 2.1578616206 2.1895948798 2.2213281389 2.253061398 
2.2847946572 2.3165279163 2.3482611754 2.3799944345 2.4117276937 2.4434609528 2.4751942119 2.506927471 2.5386607302 
2.5703939893 2.6021272484 2.6338605076 2.6655937667 2.6973270258 2.7290602849 2.7607935441 2.7925268032 2.8242600623 
2.8559933214 2.8877265806 2.9194598397 2.9511930988 2.982926358 3.0146596171 3.0463928762 3.0781261353 3.1098593945 
3.1415926536 
_radius 1 100 double
3.554447979e-16 0.014558464817 0.029095641031 0.043582375201 0.057986715023 0.072272852984 0.086400065851 0.10032163417 0.11398379065 
0.12732483996 0.14027468888 0.15275510261 0.1646810378 0.17596335522 0.18651304219 0.19624677278 0.20509327339 0.21299966237 
0.21993681028 0.22590287703 0.23092450269 0.23505556681 0.23837385307 0.24097624189 0.24297314113 0.24448275554 0.24562552812 
0.24651874916 0.24727107063 0.24797663868 0.24870878616 0.2495135778 0.25040383878 0.2513546081 0.25230124834 0.25314154603 
0.25374276566 0.25395369118 0.25362052124 0.25260458254 0.25079949217 0.24814558702 0.24463991962 0.24034070634 0.23536572288 
0.22988476088 0.2241068864 0.21826384446 0.21259143844 0.20731093119 0.20261235548 0.19864112347 0.19548871396 0.19318777341 
0.19171179126 0.19097941824 0.19086325732 0.19120259859 0.19181923999 0.19253517856 0.19319044132 0.19365884942 0.19385951346 
0.19376253952 0.19338855416 0.19280272587 0.19210445756 0.19141381079 0.19085561533 0.19054261701 0.19055960816 0.19095064074 
0.19171096911 0.19278458458 0.19406740588 0.19541551291 0.19665725804 0.19760765818 0.19808321536 0.19791529938 0.19696048774 
0.19510677636 0.19227527675 0.18841778093 0.18351125725 0.17755079932 0.17054269943 0.16249913001 0.15343543445 0.14337034423 
0.13232869893 0.12034562267 0.1074707713 0.093771310239 0.079332707412 0.064257111598 0.048659826472 0.032664942881 0.016401347283 
9.1825842181e-16 
_area 1 100 double
0 0.00057613914996 0.0022940389723 0.0051229622263 0.0090143899603 0.013905906844 0.019725888345 0.026397739103 0.033842136906 
0.04197615872 0.05070927135 0.059937371441 0.069536705736 0.079359573477 0.089233708111 0.098967174497 0.10835972443 0.11721944733 
0.12538117328 0.13272191587 0.13916947085 0.14470275882 0.14934544732 0.15315675562 0.15622442353 0.15866298502 0.16061472293 
0.16224541507 0.16372893935 0.16522305286 0.1668444513 0.16864982868 0.1706297707 0.17273121625 0.17491233749 0.17720907778 
0.17945321546 0.18113647953 0.18186888073 0.18137623343 0.17947504046 0.17608850966 0.17126498107 0.16518291802 0.15813727431 
0.15050741119 0.1427107564 0.13515095913 0.12817133604 0.12202102428 0.11683842602 0.11265757101 0.10943240302 0.10705814854 
0.10538010615 0.1042017128 0.10330440367 0.10247799246 0.1015524379 0.1004240834 0.099072351379 0.097546361853 0.095901731395 
0.094195980629 0.092512807086 0.090932602612 0.089518240114 0.088323667306 0.087374718107 0.086680338587 0.086253534039 0.086113236848 
0.086277946463 0.086752385378 0.087513206353 0.088569805096 0.089846217887 0.091052103978 0.091950000219 0.09233866218 0.092070343692 
0.09104593823 0.089201849741 0.086497079948 0.082906775419 0.078424197867 0.073069385962 0.066900692145 0.060024816999 0.052601684499 
0.044842074285 0.03699763664 0.029344203969 0.022160269402 0.015703625487 0.010190481511 0.00578203788 0.0025822669205 0.0006470474665 
7.7182049818e-17 
