# vtk DataFile Version 5.1
vtk output
ASCII
DATASET POLYDATA
POINTS 100 float
0.10537 0.0800918 -0.735786 0.10546 0.0797763 -0.735799 0.105693 0.0790151 -0.73578 
0.106025 0.0778347 -0.735635 0.106385 0.0762748 -0.735224 0.106686 0.0743823 -0.734375 
0.106827 0.0722034 -0.732902 0.106702 0.0697766 -0.730629 0.106211 0.0671259 -0.727406 
0.105259 0.0642561 -0.723127 0.103767 0.0611512 -0.717739 0.101675 0.0577752 -0.711239 
0.0989362 0.0540767 -0.703674 0.0955251 0.0499959 -0.695128 0.0914302 0.0454733 -0.685702 
0.0866539 0.0404594 -0.675501 0.0812103 0.0349239 -0.664614 0.0751232 0.0288638 -0.653098 
0.068426 0.0223082 -0.640971 0.0611609 0.0153209 -0.628209 0.0533802 0.00799887 -0.614747 
0.0451471 0.000467761 -0.600492 0.036536 -0.00712557 -0.585334 0.0276323 -0.0146223 -0.569167 
0.018531 -0.021862 -0.551904 0.00933327 -0.0286925 -0.533493 0.000141869 -0.0349789 -0.513925 
-0.00894477 -0.0406102 -0.493242 -0.017839 -0.0455037 -0.471533 -0.0264702 -0.0496062 -0.448924 
-0.0347894 -0.0528931 -0.425565 -0.0427726 -0.0553648 -0.401613 -0.0504198 -0.0570424 -0.377214 
-0.0577524 -0.0579621 -0.352484 -0.0648059 -0.0581701 -0.327499 -0.071621 -0.0577185 -0.302288 
-0.0782322 -0.0566623 -0.276831 -0.084656 -0.0550577 -0.251069 -0.0908808 -0.0529621 -0.224914 
-0.0968587 -0.050435 -0.198268 -0.102502 -0.0475395 -0.171042 -0.107681 -0.0443436 -0.143177 
-0.112238 -0.0409208 -0.114659 -0.115987 -0.0373498 -0.0855264 -0.118739 -0.0337129 -0.0558812 
-0.120314 -0.0300927 -0.0258805 -0.120562 -0.0265683 0.00427122 -0.119377 -0.0232106 0.0343385 
-0.116715 -0.0200778 0.0640741 -0.112596 -0.0172115 0.0932406 -0.107113 -0.0146349 0.12163 
-0.10042 -0.0123517 0.149079 -0.0927242 -0.0103482 0.175484 -0.0842689 -0.00859691 0.200798 
-0.0753107 -0.00706172 0.225037 -0.0660985 -0.00570443 0.248267 -0.0568527 -0.00449137 0.270587 
-0.0477469 -0.00339937 0.292119 -0.0388964 -0.00242036 0.312989 -0.0303519 -0.00156392 0.333306 
-0.022102 -0.000857172 0.353157 -0.0140814 -0.000342323 0.372594 -0.0061856 -7.17204e-05 0.391634 
0.00171078 -0.000101272 0.410262 0.00973402 -0.000482909 0.428438 0.0179919 -0.00125709 0.44611 
0.0265577 -0.00244627 0.463223 0.0354584 -0.00405028 0.479737 0.0446702 -0.00604408 0.495628 
0.0541191 -0.00837837 0.510904 0.0636889 -0.0109829 0.525596 0.0732333 -0.0137721 0.539765 
0.0825918 -0.0166526 0.553488 0.091606 -0.0195311 0.566849 0.100136 -0.0223229 0.579931 
0.108071 -0.0249581 0.592799 0.115342 -0.0273874 0.605493 0.12192 -0.0295841 0.61802 
0.127817 -0.0315444 0.630349 0.133078 -0.0332851 0.642417 0.13777 -0.0348388 0.65413 
0.141973 -0.036248 0.665372 0.145761 -0.037559 0.676018 0.1492 -0.0388149 0.685943 
0.152335 -0.0400512 0.695039 0.155188 -0.0412913 0.703218 0.15776 -0.0425454 0.710425 
0.160032 -0.04381 0.716637 0.16198 -0.0450704 0.721869 0.163577 -0.0463034 0.726166 
0.164806 -0.0474814 0.729601 0.165667 -0.0485762 0.732268 0.16618 -0.0495628 0.734271 
0.166391 -0.0504214 0.735722 0.166365 -0.051139 0.736726 0.166183 -0.0517092 0.737384 
0.165929 -0.052131 0.73778 0.165685 -0.0524073 0.737985 0.165517 -0.0525422 0.73805 
0.16547 -0.0525392 0.738007 
LINES 2 100
OFFSETS vtktypeint64
0 100 
CONNECTIVITY vtktypeint64
0 1 2 3 4 5 6 7 8 
9 10 11 12 13 14 15 16 17 
18 19 20 21 22 23 24 25 26 
27 28 29 30 31 32 33 34 35 
36 37 38 39 40 41 42 43 44 
45 46 47 48 49 50 51 52 53 
54 55 56 57 58 59 60 61 62 
63 64 65 66 67 68 69 70 71 
72 73 74 75 76 77 78 79 80 
81 82 83 84 85 86 87 88 89 
90 91 92 93 94 95 96 97 98 
99 
POINT_DATA 100
FIELD FieldData 3
_theta 1 100 double
0 0.031733259127 0.063466518254 0.095199777382 0.12693303651 0.15866629564 0.19039955476 0.22213281389 0.25386607302 
0.28559933214 0.31733259127 0.3490658504 0.38079910953 0.41253236865 0.44426562778 0.47599888691 0.50773214603 0.53946540516 
0.57119866429 0.60293192342 0.63466518254 0.66639844167 0.6981317008 0.72986495992 0.76159821905 0.79333147818 0.82506473731 
0.85679799643 0.88853125556 0.92026451469 0.95199777382 0.98373103294 1.0154642921 1.0471975512 1.0789308103 1.1106640695 
1.1423973286 1.1741305877 1.2058638468 1.237597106 1.2693303651 1.3010636242 1.3327968833 1.3645301425 1.3962634016 
1.4279966607 1.4597299198 1.491463179 1.5231964381 1.5549296972 1.5866629564 1.6183962155 1.6501294746 1.6818627337 
1.7135959929 1.745329252 1.7770625111 1.8087957702 1.8405290294 1.8722622885 1.9039955476 1.9357288068 1.9674620659 
1.999195325 2.0309285841 2.0626618433 2.0943951024 2.1261283615 2.1578616206 2.1895948798 2.2213281389 2.253061398 
2.2847946572 2.3165279163 2.3482611754 2.3799944345 2.4117276937 2.4434609528 2.4751942119 2.506927471 2.5386607302 
2.5703939893 2.6021272484 2.6338605076 2.6655937667 2.6973270258 2.7290602849 2.7607935441 2.7925268032 2.8242600623 
2.8559933214 2.8877265806 2.9194598397 2.9511930988 2.982926358 3.0146596171 3.0463928762 3.0781261353 3.1098593945 
3.1415926536 
_radius 1 100 double
3.7878989012e-16 0.015658071385 0.031232335389 0.046638019077 0.061786514048 0.076584058951 0.090930955571 0.10472150678 0.11784495206 
0.13018771946 0.14163722739 0.15208722426 0.16144430055 0.16963485576 0.17661158048 0.18235850443 0.18689388116 0.19027057033 
0.19257402922 0.19391839366 0.19444128365 0.19429785056 0.19365427323 0.19268062986 0.19154304117 0.19039524599 0.18937015808 
0.18857222907 0.18807149309 0.18790002162 0.18805123052 0.18848210044 0.18911800614 0.18985970982 0.19059234446 0.19119674049 
0.1915635329 0.19160942125 0.1912930957 0.1906270185 0.18968139576 0.18857829793 0.18747665517 0.18655201036 0.1859767858 
0.18590584252 0.1864688119 0.18776734392 0.1898737329 0.19282765618 0.1966296896 0.20123307952 0.2065375468 0.21238924267 
0.2185890805 0.22490877392 0.2311117004 0.23697493312 0.24230911432 0.24697366148 0.25088574536 0.25402243439 0.2564162854 
0.25814537373 0.25931921494 0.26006223045 0.26049642944 0.26072494031 0.26081800934 0.26080305526 0.26066016221 0.26032383254 
0.25969088453 0.25863328959 0.25701387205 0.25470244809 0.25159021563 0.24760080703 0.24269707384 0.23688319693 0.23020210133 
0.22272849336 0.21455820803 0.20579498068 0.19653620601 0.18685961845 0.17681295999 0.16640843072 0.15562298976 0.14440451968 
0.13268277671 0.12038323308 0.10744157122 0.093816726658 0.079500865948 0.064525333428 0.048962230486 0.032921798117 0.016546132494 
2.890370222e-16 
_area 1 100 double
0 0.00059659365877 0.002394402802 0.0054095205873 0.0096459565188 0.015071918148 0.021600506399 0.029079253637 0.037289576983 
0.045955236139 0.054757968341 0.06335805157 0.071417403119 0.078623049034 0.084709395856 0.089478274287 0.092815581307 0.094702418279 
0.09521775426 0.094530060244 0.092877545017 0.090539920671 0.087808002825 0.084959967496 0.082252698569 0.079932926287 0.078291979802 
0.077446344304 0.077356045867 0.077917132606 0.078938190975 0.080283189872 0.08185518352 0.083585830741 0.085419492465 0.087294686024 
0.089128502611 0.090815389762 0.092251460285 0.093373845785 0.094190171957 0.094785410601 0.095305598426 0.095924790149 0.096811969725 
0.098107064609 0.099900647134 0.10223578632 0.10516957657 0.10880485751 0.11326580376 0.11865326658 0.12499876125 0.13223125059 
0.14016455187 0.14850608226 0.15688598983 0.16490425303 0.17218779251 0.17844373512 0.18349457898 0.1872874499 0.18987878147 
0.19140238286 0.19203138189 0.19194560993 0.19131413133 0.19029104655 0.1890114312 0.18757817731 0.18604151871 0.18437976372 
0.18249096854 0.18020233067 0.17729816944 0.17356081096 0.16881436762 0.16296070324 0.15599942612 0.1480283658 0.13922607625 
0.12982182771 0.12006038243 0.11016868401 0.10033013146 0.09067020468 0.08125535369 0.072104797728 0.063211597046 0.054566593529 
0.046179201221 0.038091960309 0.030388083078 0.023191802297 0.016661507257 0.010976478681 0.0063192591481 0.0028565456035 0.00072153315633 
5.7245874707e-17 
