# vtk DataFile Version 5.1
vtk output
ASCII
DATASET POLYDATA
POINTS 100 float
0.0954807 -0.0391763 0.632491 0.095501 -0.0389678 0.632345 0.0955382 -0.0384607 0.632058 
0.0955588 -0.0376775 0.631602 0.0955119 -0.0366549 0.630929 0.0953361 -0.0354409 0.629973 
0.0949675 -0.0340914 0.62866 0.0943481 -0.032666 0.626906 0.0934333 -0.0312236 0.624626 
0.092197 -0.0298182 0.621739 0.0906348 -0.0284943 0.618173 0.0887631 -0.0272842 0.613872 
0.0866163 -0.0262055 0.608797 0.0842401 -0.0252599 0.602931 0.0816845 -0.0244335 0.596282 
0.0789952 -0.0236982 0.588877 0.0762058 -0.0230145 0.580764 0.0733324 -0.0223348 0.572006 
0.0703693 -0.0216085 0.562674 0.0672894 -0.0207855 0.552845 0.064047 -0.0198219 0.542589 
0.0605835 -0.0186831 0.531968 0.0568352 -0.0173478 0.521031 0.052743 -0.0158097 0.509809 
0.0482602 -0.0140784 0.498314 0.0433609 -0.0121794 0.486544 0.0380444 -0.0101521 0.474483 
0.0323371 -0.00804723 0.462106 0.0262907 -0.00592325 0.449388 0.0199771 -0.00384279 0.436304 
0.0134802 -0.00186844 0.42284 0.00688654 -5.92482e-05 0.408994 0.000275026 0.00153238 0.394774 
-0.00629237 0.00286287 0.380202 -0.0127775 0.00389876 0.365307 -0.0191701 0.00461705 0.350123 
-0.025487 0.00500463 0.334676 -0.0317689 0.00505717 0.318985 -0.0380717 0.00477746 0.303048 
-0.0444561 0.00417368 0.286845 -0.0509755 0.00325771 0.27033 -0.0576631 0.00204384 0.253437 
-0.0645215 0.000547843 0.236081 -0.0715142 -0.00121337 0.218168 -0.0785615 -0.00322166 0.199604 
-0.085541 -0.00545715 0.180305 -0.0922927 -0.00789757 0.160209 -0.0986286 -0.0105176 0.139288 
-0.104346 -0.0132883 0.117549 -0.109242 -0.0161772 0.0950443 -0.113129 -0.0191483 0.0718657 
-0.115852 -0.0221634 0.0481426 -0.117297 -0.0251828 0.0240319 -0.117401 -0.0281673 -0.000292846 
-0.116158 -0.0310793 -0.0246547 -0.113614 -0.0338849 -0.048887 -0.109865 -0.0365545 -0.0728449 
-0.105046 -0.0390637 -0.0964149 -0.099319 -0.0413932 -0.119521 -0.0928583 -0.0435279 -0.142124 
-0.085839 -0.0454562 -0.164221 -0.078423 -0.0471678 -0.185839 -0.0707499 -0.0486523 -0.207022 
-0.0629307 -0.0498972 -0.227824 -0.0550446 -0.050887 -0.248293 -0.0471407 -0.0516027 -0.268467 
-0.0392421 -0.0520214 -0.288361 -0.0313528 -0.0521181 -0.307968 -0.0234661 -0.0518675 -0.327254 
-0.0155734 -0.0512463 -0.346167 -0.00767216 -0.0502365 -0.364638 0.000226944 -0.0488284 -0.382592 
0.00809628 -0.0470232 -0.399958 0.0158892 -0.0448347 -0.416672 0.0235412 -0.0422911 -0.432691 
0.0309729 -0.0394337 -0.447988 0.0380958 -0.0363164 -0.462557 0.0448185 -0.0330027 -0.476409 
0.0510536 -0.029562 -0.489563 0.0567247 -0.026066 -0.502041 0.0617719 -0.0225841 -0.51386 
0.066156 -0.0191794 -0.525021 0.0698608 -0.0159055 -0.535508 0.0728939 -0.0128041 -0.545282 
0.0752849 -0.00990352 -0.554287 0.0770828 -0.00721961 -0.562454 0.0783518 -0.00475642 -0.569706 
0.0791662 -0.00250885 -0.575977 0.0796059 -0.00046566 -0.581217 0.0797511 0.0013873 -0.585406 
0.0796785 0.00306386 -0.588564 0.079458 0.0045749 -0.590752 0.0791503 0.0059265 -0.592076 
0.0788057 0.00711905 -0.59268 0.0784642 0.00814736 -0.592738 0.078156 0.00900177 -0.592436 
0.0779023 0.00966985 -0.591962 0.0777176 0.0101386 -0.591484 0.0776103 0.0103965 -0.591135 
0.0775845 0.0104356 -0.591001 
LINES 2 100
OFFSETS vtktypeint64
0 100 
CONNECTIVITY vtktypeint64
0 1 2 3 4 5 6 7 8 
9 10 11 12 13 14 15 16 17 
18 19 20 21 22 23 24 25 26 
27 28 29 30 31 32 33 34 35 
36 37 38 39 40 41 42 43 44 
45 46 47 48 49 50 51 52 53 
54 55 56 57 58 59 60 61 62 
63 64 65 66 67 68 69 70 71 
72 73 74 75 76 77 78 79 80 
81 82 83 84 85 86 87 88 89 
90 91 92 93 94 95 96 97 98 
99 
POINT_DATA 100
FIELD FieldData 3
_theta 1 100 double
0 0.031733259127 0.063466518254 0.095199777382 0.12693303651 0.15866629564 0.19039955476 0.22213281389 0.25386607302 
0.28559933214 0.31733259127 0.3490658504 0.38079910953 0.41253236865 0.44426562778 0.47599888691 0.50773214603 0.53946540516 
0.57119866429 0.60293192342 0.63466518254 0.66639844167 0.6981317008 0.72986495992 0.76159821905 0.79333147818 0.82506473731 
0.85679799643 0.88853125556 0.92026451469 0.95199777382 0.98373103294 1.0154642921 1.0471975512 1.0789308103 1.1106640695 
1.1423973286 1.1741305877 1.2058638468 1.237597106 1.2693303651 1.3010636242 1.3327968833 1.3645301425 1.3962634016 
1.4279966607 1.4597299198 1.491463179 1.5231964381 1.5549296972 1.5866629564 1.6183962155 1.6501294746 1.6818627337 
1.7135959929 1.745329252 1.7770625111 1.8087957702 1.8405290294 1.8722622885 1.9039955476 1.9357288068 1.9674620659 
1.999195325 2.0309285841 2.0626618433 2.0943951024 2.1261283615 2.1578616206 2.1895948798 2.2213281389 2.253061398 
2.2847946572 2.3165279163 2.3482611754 2.3799944345 2.4117276937 2.4434609528 2.4751942119 2.506927471 2.5386607302 
2.5703939893 2.6021272484 2.6338605076 2.6655937667 2.6973270258 2.7290602849 2.7607935441 2.7925268032 2.8242600623 
2.8559933214 2.8877265806 2.9194598397 2.9511930988 2.982926358 3.0146596171 3.0463928762 3.0781261353 3.1098593945 
3.1415926536 
_radius 1 100 double
6.6988183812e-16 0.01442269707 0.028790011908 0.043050020925 0.05714738285 0.071023655519 0.084619335431 0.097877031789 0.11074491666 
0.12317968336 0.13514854497 0.14663009002 0.15761395668 0.1680993348 0.17809237432 0.18760272086 0.19663955941 0.20520764129 
0.21330377365 0.22091421642 0.22801341947 0.23456453619 0.24052208016 0.24583684255 0.2504627355 0.25436468178 0.25752623552 
0.25995547249 0.26168788604 0.26278548889 0.2633319191 0.26342397049 0.26316054219 0.26263046323 0.26190092119 0.26100824684 
0.25995256415 0.25869734436 0.25717427926 0.25529319918 0.25295609457 0.2500737283 0.24658290193 0.24246219408 0.23774395569 
0.23252056216 0.22694342728 0.22121409322 0.21556779894 0.2102512027 0.2054972177 0.20150088322 0.19840033103 0.19626574824 
0.19509692507 0.19482763438 0.19533421875 0.19644684945 0.19796373447 0.19966914068 0.2013547511 0.20284181689 0.20400045251 
0.20476274412 0.20512749913 0.20515581192 0.20495792814 0.20467314828 0.20444563483 0.20439974366 0.20461861275 0.20512908988 
0.20589482107 0.20681783307 0.20774763297 0.20849597711 0.20885509085 0.20861714199 0.20759299051 0.20562847983 0.20261673388 
0.19850513969 0.19329605582 0.18704090113 0.1798281681 0.17176696769 0.16296872767 0.1535303188 0.14352185897 0.13298158223 
0.12191857769 0.11032232598 0.098176357185 0.085472527269 0.07222259704 0.058464885828 0.04426536277 0.029714116139 0.014919200158 
5.427232701e-16 
_area 1 100 double
0 0.0005637525165 0.0022434991647 0.0050046586458 0.00878979258 0.013519863481 0.019097076773 0.025409204434 0.032334979113 
0.039750585824 0.047537878631 0.055594434077 0.063843277824 0.072237365086 0.080753763682 0.089377215015 0.098079741769 0.10680602365 
0.11547083483 0.12396830191 0.13218751641 0.14002736259 0.14740501313 0.15425575493 0.16052556831 0.16616167823 0.17110804932 
0.17530982738 0.17872472719 0.18133556111 0.18315853486 0.18424471085 0.18467487744 0.18454940673 0.18397508528 0.18305479044 
0.18188430015 0.18047755304 0.17871742965 0.17645927251 0.17350690926 0.16980153778 0.16532819518 0.16011974731 0.15426556782 
0.14791533993 0.14127420705 0.13458779296 0.12811759493 0.12210955821 0.11676115159 0.11219639341 0.10846043737 0.10554126786 
0.10346289815 0.10236150535 0.1018795898 0.10175181981 0.10184916236 0.10208431933 0.10235616464 0.1025154779 0.10239278203 
0.10185949209 0.10087061924 0.099477522703 0.097819105229 0.096098380545 0.09454948049 0.093401011307 0.092843165011 0.093004642876 
0.093936473754 0.095589940981 0.097796534003 0.10028037704 0.10269692051 0.10467687529 0.10587008426 0.10598633987 0.10482755068 
0.10230596323 0.098445121596 0.093363207313 0.087242572883 0.080294059562 0.072727494012 0.064737123058 0.056502875801 0.048201030676 
0.040015864688 0.032145841671 0.024800646998 0.018187897613 0.012491070953 0.0078435486619 0.0043074789416 0.0018688886077 0.00045882758119 
2.4722853076e-17 
