# vtk DataFile Version 5.1
vtk output
ASCII
DATASET POLYDATA
POINTS 100 float
0.14868 0.0434476 -0.638759 0.14868 0.0436336 -0.639084 0.148702 0.0440008 -0.640054 
0.148707 0.0445015 -0.641491 0.148634 0.0450608 -0.643125 0.148402 0.0455843 -0.644619 
0.147921 0.0459651 -0.64561 0.147099 0.0460937 -0.645747 0.145845 0.045866 -0.644729 
0.144081 0.0451924 -0.642335 0.141744 0.0440036 -0.638443 0.138791 0.0422558 -0.63304 
0.135196 0.0399324 -0.626211 0.130959 0.0370446 -0.618128 0.126095 0.0336284 -0.609016 
0.120637 0.0297411 -0.599124 0.11463 0.0254558 -0.58869 0.10813 0.0208559 -0.577909 
0.101199 0.0160291 -0.566912 0.0939038 0.0110629 -0.555745 0.0863136 0.00603988 -0.544373 
0.0784979 0.00103592 -0.532685 0.0705263 -0.00388155 -0.520509 0.0624664 -0.00865335 -0.507646 
0.0543832 -0.0132275 -0.493887 0.0463365 -0.017558 -0.479053 0.0383789 -0.0216026 -0.463011 
0.0305532 -0.0253222 -0.445695 0.0228898 -0.0286799 -0.427116 0.0154043 -0.0316413 -0.407355 
0.00809599 -0.0341758 -0.386556 0.000948119 -0.0362587 -0.364908 -0.00607042 -0.0378737 -0.34262 
-0.0130013 -0.0390154 -0.319895 -0.0198912 -0.0396918 -0.29691 -0.026784 -0.0399261 -0.2738 
-0.033713 -0.0397565 -0.250641 -0.0406922 -0.0392354 -0.227455 -0.0477084 -0.0384268 -0.20421 
-0.0547155 -0.0374024 -0.180837 -0.0616316 -0.0362365 -0.157249 -0.0683391 -0.0350002 -0.133356 
-0.074689 -0.0337561 -0.109092 -0.0805088 -0.0325532 -0.0844268 -0.0856137 -0.0314232 -0.0593791 
-0.0898198 -0.0303787 -0.0340195 -0.0929586 -0.0294131 -0.00846826 -0.0948914 -0.0285027 0.0171156 
-0.0955212 -0.0276112 0.0425488 -0.0948015 -0.0266953 0.0676417 -0.0927418 -0.0257113 0.0922169 
-0.0894068 -0.0246218 0.116126 -0.0849116 -0.0234027 0.13926 -0.0794123 -0.0220472 0.161558 
-0.0730926 -0.0205698 0.183007 -0.0661487 -0.0190063 0.203636 -0.0587734 -0.0174122 0.223505 
-0.0511409 -0.0158581 0.242696 -0.0433947 -0.0144241 0.261292 -0.0356392 -0.0131911 0.279372 
-0.0279355 -0.0122336 0.296995 -0.0203026 -0.0116115 0.314196 -0.0127228 -0.0113633 0.330988 
-0.00515118 -0.0115021 0.347361 0.00247235 -0.0120133 0.363295 0.0102101 -0.0128559 0.378763 
0.018114 -0.0139655 0.393749 0.0262145 -0.015261 0.408251 0.0345129 -0.0166523 0.422289 
0.0429775 -0.0180488 0.435907 0.0515436 -0.0193685 0.449173 0.0601174 -0.0205453 0.462168 
0.0685838 -0.0215355 0.474979 0.0768158 -0.0223201 0.487685 0.0846853 -0.0229061 0.500349 
0.0920739 -0.0233236 0.513003 0.098882 -0.0236205 0.52564 0.105036 -0.0238557 0.538218 
0.110494 -0.0240907 0.550652 0.115243 -0.024381 0.562828 0.1193 -0.0247687 0.574609 
0.12271 -0.0252765 0.585851 0.125533 -0.0259043 0.596413 0.127843 -0.0266287 0.606174 
0.129718 -0.0274054 0.615041 0.131234 -0.0281744 0.622959 0.132462 -0.0288674 0.629909 
0.133461 -0.0294159 0.635915 0.13428 -0.0297605 0.64103 0.134955 -0.0298583 0.645334 
0.135513 -0.0296896 0.64892 0.135972 -0.0292613 0.651888 0.136346 -0.0286074 0.654332 
0.136642 -0.0277869 0.656333 0.13687 -0.0268781 0.657958 0.137035 -0.0259709 0.659256 
0.137146 -0.0251574 0.66026 0.137209 -0.0245227 0.660988 0.137229 -0.0241352 0.66145 
0.13721 -0.0240398 0.661649 
LINES 2 100
OFFSETS vtktypeint64
0 100 
CONNECTIVITY vtktypeint64
0 1 2 3 4 5 6 7 8 
9 10 11 12 13 14 15 16 17 
18 19 20 21 22 23 24 25 26 
27 28 29 30 31 32 33 34 35 
36 37 38 39 40 41 42 43 44 
45 46 47 48 49 50 51 52 53 
54 55 56 57 58 59 60 61 62 
63 64 65 66 67 68 69 70 71 
72 73 74 75 76 77 78 79 80 
81 82 83 84 85 86 87 88 89 
90 91 92 93 94 95 96 97 98 
99 
POINT_DATA 100
FIELD FieldData 3
_theta 1 100 double
0 0.031733259127 0.063466518254 0.095199777382 0.12693303651 0.15866629564 0.19039955476 0.22213281389 0.25386607302 
0.28559933214 0.31733259127 0.3490658504 0.38079910953 0.41253236865 0.44426562778 0.47599888691 0.50773214603 0.53946540516 
0.57119866429 0.60293192342 0.63466518254 0.66639844167 0.6981317008 0.72986495992 0.76159821905 0.79333147818 0.82506473731 
0.85679799643 0.88853125556 0.92026451469 0.95199777382 0.98373103294 1.0154642921 1.0471975512 1.0789308103 1.1106640695 
1.1423973286 1.1741305877 1.2058638468 1.237597106 1.2693303651 1.3010636242 1.3327968833 1.3645301425 1.3962634016 
1.4279966607 1.4597299198 1.491463179 1.5231964381 1.5549296972 1.5866629564 1.6183962155 1.6501294746 1.6818627337 
1.7135959929 1.745329252 1.7770625111 1.8087957702 1.8405290294 1.8722622885 1.9039955476 1.9357288068 1.9674620659 
1.999195325 2.0309285841 2.0626618433 2.0943951024 2.1261283615 2.1578616206 2.1895948798 2.2213281389 2.253061398 
2.2847946572 2.3165279163 2.3482611754 2.3799944345 2.4117276937 2.4434609528 2.4751942119 2.506927471 2.5386607302 
2.5703939893 2.6021272484 2.6338605076 2.6655937667 2.6973270258 2.7290602849 2.7607935441 2.7925268032 2.8242600623 
2.8559933214 2.8877265806 2.9194598397 2.9511930988 2.982926358 3.0146596171 3.0463928762 3.0781261353 3.1098593945 
3.1415926536 
_radius 1 100 double
1.1154366375e-15 0.014337866899 0.028566638393 0.042583774565 0.056294384486 0.069613522714 0.082467227076 0.09479219624 0.10653415266 
0.11764509924 0.12807988651 0.1377927423 0.14673459391 0.15485202354 0.16208847741 0.16838793003 0.1737007023 0.17799068553 
0.18124293911 0.18347053993 0.18471963768 0.18507184988 0.18464336285 0.18358038027 0.18205091352 0.18023338583 0.17830313309 
0.17641851244 0.1747086809 0.17326480502 0.17213546288 0.17132594388 0.17080086677 0.17049000808 0.17029763594 0.17011542279 
0.16983825851 0.16938130229 0.16869567518 0.16777962679 0.16668215447 0.16549728518 0.16434989208 0.16337761616 0.16271592025 
0.16249141328 0.1628225634 0.16382152689 0.16559017609 0.16820723144 0.17170902819 0.17607106745 0.1811984317 0.18692942405 
0.19305104747 0.19932121055 0.20549226265 0.21133214207 0.21664120569 0.22126396364 0.22509559612 0.22808355433 0.2302248592 
0.23155990819 0.23216368764 0.23213531279 0.23158683561 0.23063228046 0.22937783698 0.22791398403 0.22631001121 0.22461101763 
0.22283713671 0.22098456213 0.21902791624 0.21692350639 0.21461299178 0.21202700285 0.20908844365 0.20571557141 0.20182528688 
0.1973371091 0.19217793896 0.18628712158 0.17962085287 0.1721549127 0.16388506938 0.15482510724 0.14500303973 0.13445649428 
0.12322839264 0.11136389284 0.098909168695 0.085912089865 0.072424358263 0.05850428406 0.044219244843 0.02964699525 0.014875326429 
9.3077475044e-16 
_area 1 100 double
0 0.00053091019212 0.0021179752047 0.00474234261 0.008367127742 0.01293141963 0.018345317424 0.024487716867 0.03120764057 
0.038328936388 0.045657457408 0.052989486199 0.060120138913 0.066850761098 0.072994971048 0.078383955767 0.082872359234 0.086345860562 
0.088730219624 0.090000079603 0.090185151943 0.089371767753 0.087698785768 0.085348179812 0.082532139188 0.07947949361 0.076423183648 
0.073587187176 0.071168912838 0.069316680361 0.068111591854 0.067563200247 0.067615532952 0.068156379445 0.069028119173 0.07004368489 
0.071014103338 0.071788847889 0.072298389562 0.07257872294 0.072754171644 0.072968331553 0.073303761047 0.073768120821 0.074351999452 
0.075087705812 0.076070810263 0.077447218359 0.07937913095 0.082110207168 0.085544986547 0.089839764641 0.095112361114 0.10136182738 
0.10843559137 0.11604190299 0.12378944136 0.13124393335 0.13799154659 0.14369497077 0.14813143146 0.15120843512 0.15295808084 
0.15351447731 0.15308380103 0.15192839934 0.15029613469 0.14824305442 0.14577187939 0.14290709896 0.13969829137 0.13621442055 
0.13253449787 0.12873389788 0.12487040165 0.1209743888 0.11704540033 0.11305437768 0.10894896899 0.1046599024 0.10010863415 
0.095217334852 0.089921007062 0.084179933147 0.077989818642 0.071387033459 0.064447457622 0.057279414426 0.050013121654 0.042789858988 
0.035753091458 0.029041975702 0.022786664044 0.017105135609 0.012101810929 0.0078678515201 0.0044820563316 0.0020107375815 0.00050558674946 
6.3364730698e-17 
