# vtk DataFile Version 5.1
vtk output
ASCII
DATASET POLYDATA
POINTS 100 float
0.105006 0.0361125 -0.691523 0.1047 0.0363948 -0.691346 0.103847 0.0370359 -0.690893 
0.102491 0.0379474 -0.690099 0.100698 0.0389931 -0.688868 0.098549 0.0400034 -0.687073 
0.0961273 0.0407927 -0.684579 0.093509 0.0411789 -0.681247 0.0907521 0.0410011 -0.676956 
0.0878894 0.0401344 -0.671608 0.0849235 0.0385007 -0.665138 0.0818263 0.0360736 -0.657521 
0.0785428 0.0328778 -0.64877 0.0749981 0.0289829 -0.638936 0.0711071 0.0244936 -0.628095 
0.0667861 0.0195372 -0.616345 0.0619643 0.0142501 -0.603792 0.0565938 0.0087654 -0.590537 
0.0506575 0.00320319 -0.576669 0.0441728 -0.00233601 -0.562256 0.0371913 -0.00777369 -0.547341 
0.0297949 -0.0130521 -0.531938 0.0220877 -0.01813 -0.516038 0.0141858 -0.0229764 -0.49961 
0.00620509 -0.027564 -0.482612 -0.00174967 -0.0318632 -0.464998 -0.00959526 -0.0358382 -0.446723 
-0.0172768 -0.0394454 -0.427757 -0.0247711 -0.0426358 -0.408085 -0.0320854 -0.0453584 -0.387714 
-0.0392523 -0.0475672 -0.366668 -0.0463212 -0.0492274 -0.344993 -0.0533465 -0.0503222 -0.322746 
-0.0603756 -0.0508576 -0.29999 -0.0674366 -0.0508639 -0.276792 -0.0745278 -0.0503949 -0.25321 
-0.0816108 -0.0495229 -0.229293 -0.0886074 -0.0483317 -0.205078 -0.0954006 -0.0469073 -0.180586 
-0.10184 -0.0453283 -0.155831 -0.107753 -0.043657 -0.130818 -0.112954 -0.0419335 -0.105556 
-0.117261 -0.0401727 -0.0800614 -0.120509 -0.0383653 -0.0543657 -0.122562 -0.036483 -0.0285231 
-0.123321 -0.0344874 -0.0026134 -0.122735 -0.0323404 0.023257 -0.120798 -0.0300161 0.0489574 
-0.117551 -0.0275109 0.0743378 -0.113072 -0.0248518 0.0992381 -0.107475 -0.0220991 0.123498 
-0.100891 -0.0193459 0.146967 -0.0934632 -0.0167111 0.169521 -0.0853356 -0.0143286 0.191065 
-0.0766445 -0.0123325 0.211546 -0.0675132 -0.0108414 0.230955 -0.058049 -0.00994243 0.249329 
-0.0483442 -0.00967858 0.266748 -0.0384781 -0.0100397 0.283323 -0.028522 -0.0109599 0.299195 
-0.0185445 -0.0123206 0.314514 -0.00861666 -0.0139609 0.329433 0.00118357 -0.0156922 0.344092 
0.0107696 -0.0173172 0.358609 0.0200462 -0.0186496 0.373071 0.0289124 -0.0195341 0.387531 
0.0372667 -0.0198621 0.402004 0.0450141 -0.0195829 0.416471 0.0520738 -0.0187083 0.430885 
0.0583872 -0.0173104 0.445176 0.0639247 -0.0155129 0.459264 0.0686901 -0.0134765 0.473061 
0.0727223 -0.0113813 0.486488 0.0760944 -0.00940691 0.499477 0.0789082 -0.00771424 0.511973 
0.081287 -0.00642962 0.523942 0.0833655 -0.00563395 0.535365 0.0852783 -0.00535745 0.54624 
0.0871483 -0.0055807 0.556572 0.0890765 -0.00624105 0.566371 0.0911335 -0.00724372 0.575646 
0.0933539 -0.00847555 0.584399 0.0957351 -0.00981972 0.592622 0.0982386 -0.0111693 0.6003 
0.100796 -0.0124383 0.607405 0.103319 -0.0135684 0.613905 0.105707 -0.0145318 0.619765 
0.107861 -0.0153288 0.624953 0.109696 -0.0159823 0.62945 0.111147 -0.0165299 0.63325 
0.112179 -0.0170137 0.636367 0.112792 -0.0174721 0.638837 0.113019 -0.0179323 0.640717 
0.112923 -0.0184059 0.642083 0.11259 -0.0188877 0.643022 0.112121 -0.0193581 0.643629 
0.111618 -0.0197873 0.643999 0.111177 -0.020142 0.644214 0.110875 -0.0203922 0.644339 
0.11076 -0.0205167 0.644418 
LINES 2 100
OFFSETS vtktypeint64
0 100 
CONNECTIVITY vtktypeint64
0 1 2 3 4 5 6 7 8 
9 10 11 12 13 14 15 16 17 
18 19 20 21 22 23 24 25 26 
27 28 29 30 31 32 33 34 35 
36 37 38 39 40 41 42 43 44 
45 46 47 48 49 50 51 52 53 
54 55 56 57 58 59 60 61 62 
63 64 65 66 67 68 69 70 71 
72 73 74 75 76 77 78 79 80 
81 82 83 84 85 86 87 88 89 
90 91 92 93 94 95 96 97 98 
99 
POINT_DATA 100
FIELD FieldData 3
_theta 1 100 double
0 0.031733259127 0.063466518254 0.095199777382 0.12693303651 0.15866629564 0.19039955476 0.22213281389 0.25386607302 
0.28559933214 0.31733259127 0.3490658504 0.38079910953 0.41253236865 0.44426562778 0.47599888691 0.50773214603 0.53946540516 
0.57119866429 0.60293192342 0.63466518254 0.66639844167 0.6981317008 0.72986495992 0.76159821905 0.79333147818 0.82506473731 
0.85679799643 0.88853125556 0.92026451469 0.95199777382 0.98373103294 1.0154642921 1.0471975512 1.0789308103 1.1106640695 
1.1423973286 1.1741305877 1.2058638468 1.237597106 1.2693303651 1.3010636242 1.3327968833 1.3645301425 1.3962634016 
1.4279966607 1.4597299198 1.491463179 1.5231964381 1.5549296972 1.5866629564 1.6183962155 1.6501294746 1.6818627337 
1.7135959929 1.745329252 1.7770625111 1.8087957702 1.8405290294 1.8722622885 1.9039955476 1.9357288068 1.9674620659 
1.999195325 2.0309285841 2.0626618433 2.0943951024 2.1261283615 2.1578616206 2.1895948798 2.2213281389 2.253061398 
2.2847946572 2.3165279163 2.3482611754 2.3799944345 2.4117276937 2.4434609528 2.4751942119 2.506927471 2.5386607302 
2.5703939893 2.6021272484 2.6338605076 2.6655937667 2.6973270258 2.7290602849 2.7607935441 2.7925268032 2.8242600623 
2.8559933214 2.8877265806 2.9194598397 2.9511930988 2.982926358 3.0146596171 3.0463928762 3.0781261353 3.1098593945 
3.1415926536 
_radius 1 100 double
6.788777767e-16 0.013298031426 0.026522569842 0.039599470121 0.052451711274 0.064998360002 0.077154248627 0.088830510921 0.09993599469 
0.11037949195 0.12007272192 0.12893402796 0.13689273673 0.14389402683 0.14990396905 0.15491418672 0.15894542661 0.16204930219 
0.16430760993 0.1658289146 0.16674250237 0.16719024096 0.16731727522 0.16726272237 0.16715150322 0.16708808358 0.16715224802 
0.16739634788 0.16784324022 0.16848474523 0.16928156699 0.17016616243 0.17104937312 0.17183044959 0.17240934426 0.17269988814 
0.17264234572 0.17221375299 0.17143447993 0.17036975884 0.16912564547 0.16784010005 0.16667124632 0.16578551899 0.16534758488 
0.16551196213 0.16641455793 0.16816211196 0.17081896804 0.17439304296 0.17882502539 0.18398516679 0.18967999224 0.19566819883 
0.20168283845 0.20745627517 0.21274476269 0.21735004496 0.22113585183 0.22403762712 0.22606446395 0.22729312463 0.22785513565 
0.22791904745 0.22767066239 0.22729397543 0.22695462721 0.22678628085 0.22687939242 0.2272720386 0.22794357735 0.22881289391 
0.22974288784 0.23055167902 0.23102947643 0.23095886701 0.23013572709 0.22838799576 0.22559001461 0.22167087066 0.2166160556 
0.21046267455 0.20328929727 0.19520223424 0.18632043202 0.17676123177 0.16662888929 0.15600706895 0.14495567565 0.13351162208 
0.12169265091 0.10950319302 0.096941328265 0.084006044016 0.0707040447 0.057055367075 0.043097098911 0.028884667003 0.014490467362 
1.1762621814e-15 
_area 1 100 double
0 0.00048764762977 0.0019488470275 0.0043741237709 0.0077353509878 0.011972665148 0.016984332785 0.022623324626 0.028701984936 
0.035003747108 0.041299006557 0.047361473041 0.052981852505 0.057977444425 0.062198465385 0.065533396218 0.067915380504 0.069329808549 
0.069821099446 0.069495887606 0.068520759187 0.067114369803 0.065533462182 0.064043718455 0.062858632129 0.062086930637 0.061760032055 
0.061883957143 0.062453993848 0.063434568402 0.064744169151 0.066273220389 0.06791155904 0.069566258011 0.071163673131 0.072636185941 
0.073907801126 0.074896972024 0.075538022263 0.07580767493 0.075743903668 0.07544970587 0.075080981486 0.074827293515 0.074897712458 
0.075504057866 0.07682346222 0.078990023736 0.082115958234 0.086270217466 0.09143868548 0.097501939475 0.10423597891 0.11133047629 
0.11842072631 0.12513110528 0.13112493652 0.13615086751 0.14007322304 0.14287578758 0.14463694154 0.14548943375 0.14558840606 
0.14509824811 0.14419017753 0.14304378302 0.1418460847 0.14077676031 0.13997648576 0.13951068486 0.13934791516 0.13936353944 
0.13936419293 0.13912159266 0.13840566205 0.13701047298 0.13477120381 0.13157470544 0.12736684139 0.12215674607 0.11601559229 
0.10906791773 0.10147588464 0.093419192923 0.085075094286 0.076603364697 0.068139479306 0.059796133993 0.05167016158 0.043850343059 
0.036422426564 0.029470250312 0.023074524086 0.017311905781 0.012255925545 0.0079789630872 0.0045527844991 0.0020454970754 0.00051484953199 
7.1847719863e-17 
