# vtk DataFile Version 5.1
vtk output
ASCII
DATASET POLYDATA
POINTS 100 float
0.242688 0.0918082 -0.691788 0.242324 0.0916477 -0.691688 0.241206 0.0913377 -0.691316 
0.239366 0.0908847 -0.690596 0.23685 0.0902957 -0.68942 0.233721 0.0895725 -0.687652 
0.230043 0.0887062 -0.685156 0.225884 0.0876723 -0.68181 0.2213 0.0864268 -0.677522 
0.216337 0.0849051 -0.672245 0.211022 0.0830241 -0.665984 0.205362 0.0806876 -0.658795 
0.199345 0.0777941 -0.650779 0.192941 0.0742476 -0.642066 0.186107 0.0699689 -0.632805 
0.178795 0.0649067 -0.623136 0.170955 0.0590473 -0.613179 0.16255 0.0524206 -0.603011 
0.153559 0.0451035 -0.592659 0.143981 0.037217 -0.582094 0.133845 0.0289207 -0.571231 
0.123206 0.0204018 -0.55994 0.112146 0.0118627 -0.548063 0.100767 0.00350605 -0.535425 
0.0891867 -0.0044798 -0.521862 0.0775269 -0.0119335 -0.507234 0.0659047 -0.0187305 -0.491448 
0.0544224 -0.0247892 -0.474458 0.0431591 -0.0300721 -0.456282 0.0321645 -0.0345827 -0.436987 
0.0214561 -0.0383591 -0.416691 0.0110203 -0.0414637 -0.395541 0.000817004 -0.0439726 -0.3737 
-0.00921178 -0.0459639 -0.351326 -0.0191308 -0.0475084 -0.328557 -0.0289987 -0.048662 -0.305499 
-0.0388546 -0.0494615 -0.282211 -0.0487064 -0.0499247 -0.258713 -0.0585209 -0.0500531 -0.234979 
-0.0682186 -0.0498375 -0.210955 -0.0776725 -0.0492654 -0.186568 -0.0867125 -0.048329 -0.161745 
-0.0951347 -0.0470323 -0.136428 -0.102714 -0.0453965 -0.110587 -0.109223 -0.0434622 -0.084235 
-0.114447 -0.0412893 -0.0574308 -0.118204 -0.0389535 -0.0302805 -0.120359 -0.0365401 -0.00293179 
-0.120839 -0.0341365 0.024436 -0.119637 -0.0318236 0.0516264 -0.116816 -0.0296678 0.0784411 
-0.112505 -0.0277153 0.104696 -0.106887 -0.0259879 0.130236 -0.100186 -0.0244826 0.154945 
-0.0926503 -0.0231738 0.178751 -0.0845333 -0.0220185 0.201631 -0.0760748 -0.0209641 0.223604 
-0.0674856 -0.0199562 0.244726 -0.0589349 -0.0189475 0.26508 -0.0505428 -0.0179053 0.284759 
-0.0423781 -0.0168164 0.303863 -0.0344613 -0.0156902 0.322481 -0.0267722 -0.0145577 0.340684 
-0.0192607 -0.0134684 0.358526 -0.0118604 -0.0124842 0.376034 -0.0045018 -0.0116717 0.393217 
0.00287509 -0.0110936 0.410067 0.0103103 -0.0108011 0.426566 0.0178171 -0.0108269 0.442694 
0.0253794 -0.0111804 0.458433 0.0329522 -0.0118468 0.473774 0.0404666 -0.0127871 0.48872 
0.047837 -0.013943 0.503287 0.0549698 -0.0152418 0.517497 0.0617733 -0.0166047 0.531382 
0.0681663 -0.017954 0.544973 0.0740848 -0.0192211 0.558298 0.0794871 -0.0203524 0.57137 
0.0843558 -0.0213135 0.58419 0.0886964 -0.0220915 0.59674 0.0925347 -0.0226941 0.608982 
0.0959111 -0.0231476 0.62086 0.0988755 -0.0234919 0.632305 0.101481 -0.0237753 0.643236 
0.103777 -0.0240482 0.653572 0.105807 -0.0243579 0.66323 0.107608 -0.0247428 0.672142 
0.109203 -0.0252295 0.680252 0.11061 -0.0258304 0.687521 0.111838 -0.026543 0.693935 
0.112895 -0.0273509 0.699497 0.113785 -0.0282259 0.704235 0.114515 -0.0291313 0.70819 
0.115097 -0.0300245 0.711418 0.115544 -0.0308613 0.713983 0.115874 -0.0315988 0.715952 
0.116105 -0.032198 0.717389 0.116257 -0.0326269 0.718351 0.116345 -0.0328613 0.718881 
0.11638 -0.0328867 0.71901 
LINES 2 100
OFFSETS vtktypeint64
0 100 
CONNECTIVITY vtktypeint64
0 1 2 3 4 5 6 7 8 
9 10 11 12 13 14 15 16 17 
18 19 20 21 22 23 24 25 26 
27 28 29 30 31 32 33 34 35 
36 37 38 39 40 41 42 43 44 
45 46 47 48 49 50 51 52 53 
54 55 56 57 58 59 60 61 62 
63 64 65 66 67 68 69 70 71 
72 73 74 75 76 77 78 79 80 
81 82 83 84 85 86 87 88 89 
90 91 92 93 94 95 96 97 98 
99 
POINT_DATA 100
FIELD FieldData 3
_theta 1 100 double
0 0.031733259127 0.063466518254 0.095199777382 0.12693303651 0.15866629564 0.19039955476 0.22213281389 0.25386607302 
0.28559933214 0.31733259127 0.3490658504 0.38079910953 0.41253236865 0.44426562778 0.47599888691 0.50773214603 0.53946540516 
0.57119866429 0.60293192342 0.63466518254 0.66639844167 0.6981317008 0.72986495992 0.76159821905 0.79333147818 0.82506473731 
0.85679799643 0.88853125556 0.92026451469 0.95199777382 0.98373103294 1.0154642921 1.0471975512 1.0789308103 1.1106640695 
1.1423973286 1.1741305877 1.2058638468 1.237597106 1.2693303651 1.3010636242 1.3327968833 1.3645301425 1.3962634016 
1.4279966607 1.4597299198 1.491463179 1.5231964381 1.5549296972 1.5866629564 1.6183962155 1.6501294746 1.6818627337 
1.7135959929 1.745329252 1.7770625111 1.8087957702 1.8405290294 1.8722622885 1.9039955476 1.9357288068 1.9674620659 
1.999195325 2.0309285841 2.0626618433 2.0943951024 2.1261283615 2.1578616206 2.1895948798 2.2213281389 2.253061398 
2.2847946572 2.3165279163 2.3482611754 2.3799944345 2.4117276937 2.4434609528 2.4751942119 2.506927471 2.5386607302 
2.5703939893 2.6021272484 2.6338605076 2.6655937667 2.6973270258 2.7290602849 2.7607935441 2.7925268032 2.8242600623 
2.8559933214 2.8877265806 2.9194598397 2.9511930988 2.982926358 3.0146596171 3.0463928762 3.0781261353 3.1098593945 
3.1415926536 
_radius 1 100 double
3.7238012299e-16 0.016947508717 0.033646076979 0.049865049542 0.065409019896 0.080130817572 0.093939075879 0.10679920914 0.11872733981 
0.1297776798 0.14002498039 0.14954470547 0.15839426307 0.16659867734 0.17414337888 0.18097546136 0.18701314231 0.19216169169 
0.19633306918 0.19946606821 0.20154385855 0.20260631431 0.20275526664 0.20215172054 0.20100504405 0.1995551137 0.19804932936 
0.19671724403 0.19574619921 0.19526162501 0.19531527581 0.19588343828 0.19687526587 0.19814948732 0.19953644933 0.20086201458 
0.20197011047 0.20274150206 0.20310736601 0.20305703056 0.20263959297 0.20195946684 0.20116680237 0.20044473086 0.19999527047 
0.20002418972 0.20072368954 0.20225220952 0.20471296764 0.20813535096 0.21246427184 0.21756140634 0.22321932893 0.22918620422 
0.23519622314 0.24100012788 0.24639087225 0.25122107164 0.2554107196 0.25894526451 0.26186540458 0.26425086206 0.26620093536 
0.26781477019 0.26917400871 0.27032980977 0.27129533071 0.27204385341 0.2725120364 0.27260737805 0.27221881975 0.27122934861 
0.26952934527 0.26702925214 0.26367002684 0.25942995297 0.2543267999 0.24841501315 0.24177841788 0.23451962345 0.22674775261 
0.2185661986 0.21006186381 0.20129687598 0.19230328433 0.18308086469 0.1735979747 0.16379535043 0.15359268678 0.14289766959 
0.13161680635 0.11966704078 0.10698688944 0.093545807059 0.079350690797 0.064448831425 0.048927131456 0.032907914649 0.016542017228 
8.625898518e-16 
_area 1 100 double
0 0.00064906619977 0.0025804574188 0.0057443705705 0.010052133233 0.015373893641 0.021543088773 0.028368375777 0.035649961377 
0.043195310154 0.050829673538 0.058399173825 0.065767111781 0.072806488042 0.079392599874 0.085398957063 0.090698341692 0.095169342938 
0.098707313308 0.10123744481 0.10272708684 0.10319507584 0.10271720896 0.10142773033 0.099516223977 0.09721848719 0.094799967116 
0.092531695187 0.090661342865 0.089385454134 0.088830879526 0.089054694038 0.090153174255 0.091964691575 0.094205251282 0.096551096907 
0.09877889436 0.10073813439 0.10239091597 0.10384774396 0.10527465269 0.10668091602 0.10797161593 0.10912374854 0.11023089921 
0.11148115001 0.11312309224 0.11542422586 0.11860645132 0.12278837935 0.12798086762 0.13409201821 0.1409325363 0.14823488331 
0.1556820189 0.16294418556 0.16972051329 0.17577629227 0.180965581 0.18523341967 0.18859956019 0.19113290706 0.19293042462 
0.19410944706 0.19480636862 0.19514745391 0.1951815915 0.19486881452 0.19412252752 0.19283395995 0.1908822604 0.18814438098 
0.18450834945 0.17989004229 0.17425128464 0.16761497105 0.16007217457 0.15177773556 0.14293411272 0.13376671508 0.1244957186 
0.1153091227 0.10634164223 0.097665620098 0.089298192944 0.081218654155 0.073383991053 0.065738929763 0.058225970701 0.050799998468 
0.043446206754 0.036196271366 0.029137558551 0.022412332573 0.016206810865 0.010732396994 0.0062028709404 0.0028115096949 0.0007112808434 
6.3771515305e-17 
