# vtk DataFile Version 5.1
vtk output
ASCII
DATASET POLYDATA
POINTS 100 float
0.0451091 0.0269795 -0.59039 0.0453304 0.0270536 -0.590314 0.0459893 0.027099 -0.590077 
0.0470198 0.0270905 -0.589632 0.0483187 0.0269891 -0.588903 0.0497543 0.0267466 -0.587798 
0.0511784 0.0263104 -0.586215 0.0524387 0.0256287 -0.584055 0.0533907 0.0246559 -0.581231 
0.0539084 0.0233558 -0.577679 0.0538923 0.0217052 -0.573357 0.0532736 0.0196945 -0.568256 
0.0520157 0.0173271 -0.562392 0.050112 0.0146183 -0.555802 0.0475813 0.0115923 -0.548542 
0.0444607 0.00827931 -0.540669 0.0407992 0.00471293 -0.532242 0.0366503 0.000927901 -0.523307 
0.0320663 -0.00304087 -0.513889 0.0270953 -0.00715828 -0.503993 0.0217789 -0.0113879 -0.493603 
0.0161534 -0.0156902 -0.482677 0.0102519 -0.02002 -0.471163 0.00410821 -0.0243248 -0.458998 
-0.00224 -0.0285433 -0.44612 -0.00874774 -0.0326056 -0.432476 -0.0153611 -0.0364343 -0.418031 
-0.0220172 -0.0399481 -0.402769 -0.0286467 -0.0430661 -0.386704 -0.0351774 -0.0457131 -0.369871 
-0.04154 -0.0478262 -0.352329 -0.0476736 -0.0493597 -0.334152 -0.0535317 -0.0502902 -0.315426 
-0.0590865 -0.0506194 -0.296235 -0.0643312 -0.050375 -0.276658 -0.0692796 -0.0496087 -0.256761 
-0.073963 -0.0483929 -0.236594 -0.0784241 -0.0468145 -0.216185 -0.0827094 -0.044968 -0.195545 
-0.0868599 -0.0429476 -0.174671 -0.0909015 -0.0408403 -0.15355 -0.0948373 -0.0387193 -0.132166 
-0.0986413 -0.0366395 -0.110509 -0.102255 -0.0346359 -0.0885804 -0.105591 -0.0327233 -0.0663994 
-0.108531 -0.030899 -0.0440054 -0.110943 -0.0291471 -0.0214591 -0.112684 -0.0274435 0.00115876 
-0.113615 -0.0257626 0.0237518 -0.113615 -0.0240819 0.0462139 -0.11259 -0.0223872 0.0684359 
-0.110485 -0.0206746 0.090313 -0.107287 -0.0189523 0.111752 -0.103026 -0.0172392 0.132675 
-0.097778 -0.0155626 0.153026 -0.0916521 -0.0139553 0.17277 -0.0847867 -0.0124507 0.191894 
-0.0773357 -0.01108 0.210403 -0.0694572 -0.00986865 0.228319 -0.0613013 -0.00883479 0.245672 
-0.0530012 -0.00798887 0.262499 -0.0446647 -0.00733455 0.278837 -0.036371 -0.00687068 0.29472 
-0.0281691 -0.00659389 0.310176 -0.0200808 -0.00650114 0.325227 -0.0121058 -0.0065917 0.33989 
-0.00422844 -0.00686813 0.354173 0.00357424 -0.00733578 0.368084 0.0113246 -0.00800093 0.381629 
0.0190377 -0.00886765 0.394815 0.026716 -0.009934 0.407652 0.0343467 -0.0111879 0.420151 
0.0419009 -0.0126038 0.432326 0.0493352 -0.0141405 0.444194 0.0565952 -0.0157411 0.455765 
0.0636198 -0.017335 0.467046 0.0703467 -0.0188424 0.478038 0.0767172 -0.0201805 0.488728 
0.0826806 -0.0212714 0.499092 0.0881978 -0.0220504 0.509092 0.0932426 -0.0224738 0.51868 
0.0978028 -0.0225249 0.527796 0.101879 -0.0222177 0.536374 0.105484 -0.0215973 0.544349 
0.10864 -0.0207371 0.551655 0.111373 -0.0197324 0.558241 0.113717 -0.0186911 0.564066 
0.115705 -0.0177233 0.569108 0.117373 -0.0169291 0.573369 0.118754 -0.0163885 0.57687 
0.11988 -0.0161524 0.579658 0.120784 -0.0162368 0.581797 0.121495 -0.0166216 0.583368 
0.122041 -0.0172527 0.584466 0.122448 -0.0180489 0.585188 0.12274 -0.0189109 0.585632 
0.122939 -0.0197336 0.585886 0.123062 -0.0204188 0.586028 0.123123 -0.0208864 0.586115 
0.12313 -0.0210843 0.586181 
LINES 2 100
OFFSETS vtktypeint64
0 100 
CONNECTIVITY vtktypeint64
0 1 2 3 4 5 6 7 8 
9 10 11 12 13 14 15 16 17 
18 19 20 21 22 23 24 25 26 
27 28 29 30 31 32 33 34 35 
36 37 38 39 40 41 42 43 44 
45 46 47 48 49 50 51 52 53 
54 55 56 57 58 59 60 61 62 
63 64 65 66 67 68 69 70 71 
72 73 74 75 76 77 78 79 80 
81 82 83 84 85 86 87 88 89 
90 91 92 93 94 95 96 97 98 
99 
POINT_DATA 100
FIELD FieldData 3
_theta 1 100 double
0 0.031733259127 0.063466518254 0.095199777382 0.12693303651 0.15866629564 0.19039955476 0.22213281389 0.25386607302 
0.28559933214 0.31733259127 0.3490658504 0.38079910953 0.41253236865 0.44426562778 0.47599888691 0.50773214603 0.53946540516 
0.57119866429 0.60293192342 0.63466518254 0.66639844167 0.6981317008 0.72986495992 0.76159821905 0.79333147818 0.82506473731 
0.85679799643 0.88853125556 0.92026451469 0.95199777382 0.98373103294 1.0154642921 1.0471975512 1.0789308103 1.1106640695 
1.1423973286 1.1741305877 1.2058638468 1.237597106 1.2693303651 1.3010636242 1.3327968833 1.3645301425 1.3962634016 
1.4279966607 1.4597299198 1.491463179 1.5231964381 1.5549296972 1.5866629564 1.6183962155 1.6501294746 1.6818627337 
1.7135959929 1.745329252 1.7770625111 1.8087957702 1.8405290294 1.8722622885 1.9039955476 1.9357288068 1.9674620659 
1.999195325 2.0309285841 2.0626618433 2.0943951024 2.1261283615 2.1578616206 2.1895948798 2.2213281389 2.253061398 
2.2847946572 2.3165279163 2.3482611754 2.3799944345 2.4117276937 2.4434609528 2.4751942119 2.506927471 2.5386607302 
2.5703939893 2.6021272484 2.6338605076 2.6655937667 2.6973270258 2.7290602849 2.7607935441 2.7925268032 2.8242600623 
2.8559933214 2.8877265806 2.9194598397 2.9511930988 2.982926358 3.0146596171 3.0463928762 3.0781261353 3.1098593945 
3.1415926536 
_radius 1 100 double
1.00009178e-15 0.011353673348 0.022754957323 0.034234029571 0.045800567337 0.05743503112 0.069082250426 0.080648767213 0.092005095451 
0.1029932957 0.11343927812 0.12316832203 0.13202166879 0.13987183937 0.14663456061 0.15227577233 0.15681298516 0.16031110589 
0.16287360709 0.16463049443 0.16572486398 0.16629990586 0.16648798646 0.16640295253 0.1661361429 0.16575592005 0.16531000342 
0.16482959293 0.1643342134 0.16383631725 0.16334487961 0.16286749154 0.16241085415 0.16198012633 0.16157809682 0.16120518797 
0.16086056439 0.16054355498 0.16025411931 0.1599916931 0.15975308285 0.15953122907 0.15931670786 0.15910253441 0.15889094533 
0.15869964165 0.15856517262 0.15854244361 0.1587008575 0.15911844846 0.15987512211 0.16104521479 0.16268903878 0.16484352432 
0.16751317871 0.17066346116 0.17421863736 0.17806519526 0.18206050649 0.18604528565 0.18985791772 0.19334881732 0.19639331973 
0.19890190876 0.20082681656 0.202164285 0.20295213625 0.20326274055 0.20319192411 0.20284479269 0.20231987556 0.20169346462 
0.20100649143 0.20025649094 0.19939667784 0.19834264087 0.19698508411 0.19520544045 0.19289081528 0.18994553989 0.18629803916 
0.18190313946 0.17674093938 0.17081372201 0.16414212431 0.15676115231 0.14871601027 0.1400574119 0.13083619997 0.12109764785 
0.11087650145 0.10019428253 0.089060265289 0.077476713341 0.065447642876 0.052989102479 0.040138292793 0.026959046506 0.01354211545 
2.6253792281e-16 
_area 1 100 double
0 0.00036872546916 0.0014765680838 0.0033260342156 0.0059136954811 0.0092210307773 0.013205422015 0.017793730596 0.022880059234 
0.028328086474 0.0339773333 0.039652383327 0.045174281677 0.050373280165 0.05510134605 0.059242196774 0.062717212187 0.065487318729 
0.067552404464 0.068949624704 0.069749812364 0.070048323087 0.069947547111 0.069537799246 0.068888807208 0.068052548226 0.0670690516 
0.065970328192 0.064784994094 0.063546219238 0.062300043783 0.061109745479 0.060054163496 0.059219597849 0.058686584911 0.058513815827 
0.058721644373 0.059288014304 0.060166064664 0.061213200268 0.062311547207 0.063387926205 0.064402574412 0.065349629617 0.066261006368 
0.067198185332 0.068215347042 0.069317598231 0.070474921826 0.071672237526 0.072936546513 0.074338252046 0.075981419747 0.077987203137 
0.080469727397 0.083506667721 0.087112917268 0.091226932414 0.095711329508 0.10036162311 0.10492053142 0.10910303151 0.11263364518 
0.1152861684 0.11691397456 0.11746588757 0.11698834247 0.11561631814 0.11355530796 0.11105581828 0.10838112724 0.10576924147 
0.10339277593 0.10132588993 0.099530604343 0.097869923591 0.096144379009 0.094139222032 0.091666559785 0.088592537928 0.084849254293 
0.080435564778 0.075409942841 0.069877477436 0.063973467328 0.057846365525 0.05164238454 0.045493173799 0.039507134255 0.033764756794 
0.028319001173 0.023202067051 0.018438275594 0.014059462004 0.010117217398 0.0066874349623 0.003865576621 0.0017539241832 0.00044417841381 
8.7803944893e-18 
