# vtk DataFile Version 5.1
vtk output
ASCII
DATASET POLYDATA
POINTS 100 float
0.260395 0.0648597 -0.625401 0.260072 0.0646687 -0.625451 0.259081 0.0642475 -0.625527 
0.25742 0.0635967 -0.625557 0.255089 0.0627159 -0.625428 0.252083 0.0616012 -0.625001 
0.248398 0.060243 -0.624124 0.244027 0.0586236 -0.622651 0.238959 0.0567168 -0.620453 
0.233188 0.0544882 -0.617433 0.226704 0.0518982 -0.61353 0.219502 0.048906 -0.608722 
0.211582 0.0454756 -0.603023 0.202954 0.0415817 -0.596472 0.193636 0.0372164 -0.589127 
0.183662 0.0323939 -0.581047 0.173079 0.0271537 -0.572284 0.161949 0.0215616 -0.562872 
0.150349 0.0157066 -0.552822 0.138368 0.00969655 -0.542118 0.126101 0.0036502 -0.530724 
0.113647 -0.00231168 -0.518588 0.101103 -0.00807584 -0.505651 0.0885547 -0.0135454 -0.491861 
0.0760726 -0.0186466 -0.477178 0.063708 -0.0233337 -0.461586 0.0514888 -0.027589 -0.445094 
0.039419 -0.0314213 -0.427739 0.0274804 -0.0348597 -0.409577 0.015638 -0.0379458 -0.390682 
0.00384625 -0.0407248 -0.371128 -0.0079406 -0.0432358 -0.350986 -0.0197584 -0.0455044 -0.330309 
-0.0316221 -0.0475366 -0.30913 -0.0435155 -0.0493168 -0.287456 -0.0553833 -0.0508091 -0.265273 
-0.0671266 -0.0519613 -0.242548 -0.0786015 -0.0527126 -0.219247 -0.0896236 -0.0530026 -0.19534 
-0.0999756 -0.0527805 -0.170821 -0.10942 -0.052014 -0.145716 -0.117714 -0.0506957 -0.120092 
-0.124629 -0.0488464 -0.0940607 -0.129967 -0.046515 -0.0677779 -0.133578 -0.0437752 -0.0414331 
-0.135373 -0.040718 -0.0152377 -0.135335 -0.0374436 0.0105918 -0.133519 -0.034051 0.0358526 
-0.130056 -0.0306292 0.0603724 -0.125138 -0.0272493 0.0840242 -0.119006 -0.0239598 0.106736 
-0.111936 -0.0207858 0.128495 -0.104211 -0.0177309 0.149341 -0.0961063 -0.0147832 0.169362 
-0.0878656 -0.0119231 0.188676 -0.0796863 -0.00913216 0.207415 -0.0717079 -0.0064021 0.225704 
-0.0640061 -0.00374173 0.243648 -0.0565948 -0.0011811 0.26132 -0.0494325 0.00122785 0.278748 
-0.0424355 0.00341463 0.29592 -0.0354942 0.00529691 0.312788 -0.0284912 0.00679 0.329277 
-0.0213201 0.00781763 0.345303 -0.0139011 0.00832267 0.360789 -0.00619391 0.00827607 0.375679 
0.00179568 0.00768292 0.389952 0.0100139 0.00658432 0.403628 0.0183636 0.00505502 0.41677 
0.0267136 0.00319666 0.429481 0.0349121 0.00112762 0.441887 0.042802 -0.00102942 0.454126 
0.050237 -0.00316045 0.466328 0.0570958 -0.00517207 0.478597 0.0632934 -0.0070007 0.490998 
0.0687879 -0.00861791 0.503543 0.0735823 -0.010031 0.516189 0.0777215 -0.011279 0.528839 
0.0812846 -0.0124242 0.541352 0.0843739 -0.0135409 0.55356 0.0871022 -0.0147026 0.56528 
0.0895795 -0.0159693 0.576342 0.0919009 -0.0173772 0.586599 0.0941383 -0.0189315 0.595946 
0.0963342 -0.0206039 0.60433 0.0985008 -0.0223354 0.611748 0.100623 -0.024043 0.618248 
0.102663 -0.0256305 0.623919 0.104572 -0.0270017 0.628871 0.106297 -0.0280737 0.633227 
0.107793 -0.0287884 0.6371 0.109027 -0.0291219 0.640583 0.109988 -0.0290887 0.643736 
0.110685 -0.0287407 0.646586 0.111146 -0.0281622 0.649121 0.111417 -0.0274589 0.651304 
0.111551 -0.0267455 0.653077 0.111602 -0.0261307 0.654377 0.111616 -0.0257036 0.65515 
0.111623 -0.0255222 0.655358 
LINES 2 100
OFFSETS vtktypeint64
0 100 
CONNECTIVITY vtktypeint64
0 1 2 3 4 5 6 7 8 
9 10 11 12 13 14 15 16 17 
18 19 20 21 22 23 24 25 26 
27 28 29 30 31 32 33 34 35 
36 37 38 39 40 41 42 43 44 
45 46 47 48 49 50 51 52 53 
54 55 56 57 58 59 60 61 62 
63 64 65 66 67 68 69 70 71 
72 73 74 75 76 77 78 79 80 
81 82 83 84 85 86 87 88 89 
90 91 92 93 94 95 96 97 98 
99 
POINT_DATA 100
FIELD FieldData 3
_theta 1 100 double
0 0.031733259127 0.063466518254 0.095199777382 0.12693303651 0.15866629564 0.19039955476 0.22213281389 0.25386607302 
0.28559933214 0.31733259127 0.3490658504 0.38079910953 0.41253236865 0.44426562778 0.47599888691 0.50773214603 0.53946540516 
0.57119866429 0.60293192342 0.63466518254 0.66639844167 0.6981317008 0.72986495992 0.76159821905 0.79333147818 0.82506473731 
0.85679799643 0.88853125556 0.92026451469 0.95199777382 0.98373103294 1.0154642921 1.0471975512 1.0789308103 1.1106640695 
1.1423973286 1.1741305877 1.2058638468 1.237597106 1.2693303651 1.3010636242 1.3327968833 1.3645301425 1.3962634016 
1.4279966607 1.4597299198 1.491463179 1.5231964381 1.5549296972 1.5866629564 1.6183962155 1.6501294746 1.6818627337 
1.7135959929 1.745329252 1.7770625111 1.8087957702 1.8405290294 1.8722622885 1.9039955476 1.9357288068 1.9674620659 
1.999195325 2.0309285841 2.0626618433 2.0943951024 2.1261283615 2.1578616206 2.1895948798 2.2213281389 2.253061398 
2.2847946572 2.3165279163 2.3482611754 2.3799944345 2.4117276937 2.4434609528 2.4751942119 2.506927471 2.5386607302 
2.5703939893 2.6021272484 2.6338605076 2.6655937667 2.6973270258 2.7290602849 2.7607935441 2.7925268032 2.8242600623 
2.8559933214 2.8877265806 2.9194598397 2.9511930988 2.982926358 3.0146596171 3.0463928762 3.0781261353 3.1098593945 
3.1415926536 
_radius 1 100 double
5.013320833e-16 0.016551390455 0.032917142116 0.048927108665 0.064436053577 0.079328979007 0.093520160088 0.10694688019 0.11956023858 
0.13131601231 0.14216824963 0.15206720214 0.1609617686 0.16880532809 0.17556309363 0.18121907555 0.18578127538 0.18928451518 
0.19179099682 0.19338904428 0.19419045841 0.19432662972 0.19394324203 0.19319329164 0.19222836934 0.19118865925 0.190192695 
0.18932832092 0.1886463603 0.18815818805 0.18783787697 0.18762899842 0.18745559326 0.18723628487 0.18689997284 0.18640109331 
0.18573220066 0.18493175336 0.18408553886 0.18332112751 0.18279598197 0.18268108436 0.18314274505 0.1843252626 0.18633635103 
0.18923627417 0.19303101989 0.19766968362 0.20304615765 0.20900508629 0.21535196042 0.22186710599 0.22832288972 0.23450267809 
0.24021925644 0.24532996484 0.24974603166 0.25343453338 0.25641284742 0.25873696077 0.26048610726 0.26174665026 0.26259787398 
0.2631015743 0.26329633894 0.26319644678 0.26279457394 0.26206703883 0.26098016485 0.25949651605 0.25758029524 0.25520194826 
0.25234248794 0.24899763535 0.24518067065 0.24092195655 0.23626346591 0.23124827646 0.22590704554 0.22024503915 0.21423373513 
0.20781007633 0.2008843442 0.19335512126 0.18512785715 0.17613276424 0.16633821071 0.15575713612 0.14444581679 0.13249601515 
0.12002267893 0.10714975503 0.093996580228 0.080666955492 0.067242375397 0.053779895082 0.040313998972 0.026861024742 0.013424484316 
1.1834790479e-15 
_area 1 100 double
0 0.00058413985506 0.0023300891276 0.0052162993848 0.0092002120266 0.014210110119 0.020137441402 0.0268326871 0.03410684186 
0.041738484081 0.049484570641 0.057092686048 0.064313532031 0.070913812787 0.076690060979 0.081482972157 0.085190181704 0.087774391884 
0.089264459838 0.089749601848 0.089369472306 0.088303053701 0.086757212268 0.084953963873 0.083114838187 0.081441259231 0.080093384411 
0.079174902808 0.078730632138 0.078755375488 0.079205956364 0.080011065158 0.081080844318 0.082320341585 0.083644747321 0.08498946315 
0.086312783282 0.087596613058 0.088850652455 0.090118235003 0.09147728995 0.093032459806 0.09490103126 0.09720100055 0.10004777315 
0.10355437967 0.10782080131 0.11290911383 0.11882406814 0.12551112487 0.13285967027 0.14070412383 0.14882902741 0.15698352084 
0.16490454413 0.17234403734 0.17909365527 0.18500103193 0.18997451775 0.19397727949 0.1970147324 0.19912049389 0.20034554937 
0.20075286392 0.20041391332 0.19939810123 0.19775752608 0.19552646452 0.1927313334 0.18938916157 0.18549524224 0.18101651126 
0.1759034084 0.17011935102 0.16367390926 0.1566431769 0.14916797044 0.14142950397 0.13360902444 0.1258430809 0.11818951545 
0.11061806359 0.1030311801 0.095308111796 0.087355519969 0.079146051181 0.070732019527 0.062232082858 0.053800412642 0.045594774158 
0.037757276418 0.030410743141 0.02366374895 0.017615582946 0.012356702372 0.0079650254487 0.0045011335907 0.0020058632145 0.00050212016357 
5.2041704279e-18 
