# vtk DataFile Version 5.1
vtk output
ASCII
DATASET POLYDATA
POINTS 100 float
0.118127 -0.0398567 0.725058 0.118075 -0.0399247 0.725062 0.117947 -0.0399733 0.724909 
0.117732 -0.0399942 0.724566 0.117412 -0.0399738 0.723981 0.116967 -0.0398942 0.723084 
0.116376 -0.0397341 0.721789 0.11562 -0.0394702 0.720002 0.114683 -0.0390791 0.717622 
0.113556 -0.0385383 0.714552 0.112234 -0.037828 0.710698 0.110723 -0.0369331 0.705982 
0.109029 -0.0358438 0.700342 0.107164 -0.0345573 0.693742 0.105138 -0.0330788 0.68617 
0.102961 -0.0314215 0.677643 0.100632 -0.0296073 0.668206 0.0981464 -0.0276664 0.657926 
0.0954852 -0.0256362 0.646891 0.0926212 -0.0235604 0.635198 0.0895172 -0.021487 0.62295 
0.0861292 -0.0194662 0.610248 0.0824097 -0.0175479 0.597177 0.0783123 -0.0157786 0.58381 
0.0737967 -0.014199 0.570196 0.0688327 -0.0128413 0.556361 0.0634044 -0.011727 0.542312 
0.0575124 -0.0108654 0.528034 0.0511748 -0.0102531 0.513499 0.0444266 -0.0098744 0.498674 
0.0373166 -0.00970251 0.48352 0.0299033 -0.0097021 0.468006 0.0222502 -0.00983264 0.452108 
0.0144195 -0.0100522 0.43581 0.00646745 -0.0103218 0.41911 -0.0015607 -0.0106092 0.402011 
-0.00963295 -0.010893 0.384517 -0.0177315 -0.0111647 0.366633 -0.0258511 -0.0114305 0.348352 
-0.0339954 -0.0117114 0.329655 -0.0421709 -0.0120413 0.310505 -0.0503806 -0.0124646 0.290847 
-0.0586156 -0.0130317 0.27061 -0.0668487 -0.0137944 0.24971 -0.0750285 -0.0148003 0.228063 
-0.0830753 -0.0160885 0.205588 -0.0908812 -0.0176845 0.182223 -0.0983115 -0.0195973 0.157928 
-0.105211 -0.021818 0.132703 -0.111412 -0.0243194 0.106586 -0.116746 -0.0270573 0.0796566 
-0.121052 -0.0299741 0.0520373 -0.124192 -0.0330022 0.0238849 -0.12606 -0.0360689 -0.00461704 
-0.126589 -0.0391007 -0.0332705 -0.125758 -0.0420278 -0.0618754 -0.123591 -0.0447873 -0.0902425 
-0.120157 -0.0473249 -0.118205 -0.115561 -0.049596 -0.145626 -0.109935 -0.051565 -0.172407 
-0.103428 -0.0532033 -0.198487 -0.0961926 -0.0544878 -0.223839 -0.0883738 -0.0553974 -0.248471 
-0.0800989 -0.0559116 -0.272411 -0.0714705 -0.0560087 -0.295703 -0.062564 -0.0556658 -0.318398 
-0.0534276 -0.0548593 -0.340541 -0.0440871 -0.0535678 -0.362174 -0.0345535 -0.0517751 -0.383323 
-0.0248326 -0.049474 -0.404003 -0.0149362 -0.0466704 -0.424217 -0.00489171 -0.0433867 -0.443963 
0.00524944 -0.0396639 -0.463229 0.0154063 -0.0355622 -0.482007 0.0254673 -0.0311598 -0.50029 
0.0352925 -0.0265491 -0.518075 0.0447208 -0.0218318 -0.535361 0.0535797 -0.0171118 -0.55215 
0.0616979 -0.0124882 -0.568437 0.068919 -0.00804788 -0.584211 0.0751143 -0.00385862 -0.599444 
0.0801937 3.53163e-05 -0.614092 0.0841146 0.00361597 -0.628091 0.0868851 0.00689152 -0.641358 
0.0885638 0.00989341 -0.653795 0.0892553 0.0126711 -0.665295 0.089101 0.0152844 -0.675753 
0.0882679 0.0177957 -0.685077 0.0869353 0.0202603 -0.693198 0.0852813 0.0227192 -0.700082 
0.0834711 0.0251924 -0.705734 0.0816465 0.0276752 -0.710203 0.0799204 0.0301373 -0.713586 
0.0783733 0.0325253 -0.716013 0.0770549 0.034767 -0.717645 0.0759881 0.0367792 -0.718657 
0.0751757 0.0384765 -0.719224 0.0746084 0.03978 -0.719503 0.0742728 0.0406266 -0.719617 
0.0741575 0.0409752 -0.719646 
LINES 2 100
OFFSETS vtktypeint64
0 100 
CONNECTIVITY vtktypeint64
0 1 2 3 4 5 6 7 8 
9 10 11 12 13 14 15 16 17 
18 19 20 21 22 23 24 25 26 
27 28 29 30 31 32 33 34 35 
36 37 38 39 40 41 42 43 44 
45 46 47 48 49 50 51 52 53 
54 55 56 57 58 59 60 61 62 
63 64 65 66 67 68 69 70 71 
72 73 74 75 76 77 78 79 80 
81 82 83 84 85 86 87 88 89 
90 91 92 93 94 95 96 97 98 
99 
POINT_DATA 100
FIELD FieldData 3
_theta 1 100 double
0 0.031733259127 0.063466518254 0.095199777382 0.12693303651 0.15866629564 0.19039955476 0.22213281389 0.25386607302 
0.28559933214 0.31733259127 0.3490658504 0.38079910953 0.41253236865 0.44426562778 0.47599888691 0.50773214603 0.53946540516 
0.57119866429 0.60293192342 0.63466518254 0.66639844167 0.6981317008 0.72986495992 0.76159821905 0.79333147818 0.82506473731 
0.85679799643 0.88853125556 0.92026451469 0.95199777382 0.98373103294 1.0154642921 1.0471975512 1.0789308103 1.1106640695 
1.1423973286 1.1741305877 1.2058638468 1.237597106 1.2693303651 1.3010636242 1.3327968833 1.3645301425 1.3962634016 
1.4279966607 1.4597299198 1.491463179 1.5231964381 1.5549296972 1.5866629564 1.6183962155 1.6501294746 1.6818627337 
1.7135959929 1.745329252 1.7770625111 1.8087957702 1.8405290294 1.8722622885 1.9039955476 1.9357288068 1.9674620659 
1.999195325 2.0309285841 2.0626618433 2.0943951024 2.1261283615 2.1578616206 2.1895948798 2.2213281389 2.253061398 
2.2847946572 2.3165279163 2.3482611754 2.3799944345 2.4117276937 2.4434609528 2.4751942119 2.506927471 2.5386607302 
2.5703939893 2.6021272484 2.6338605076 2.6655937667 2.6973270258 2.7290602849 2.7607935441 2.7925268032 2.8242600623 
2.8559933214 2.8877265806 2.9194598397 2.9511930988 2.982926358 3.0146596171 3.0463928762 3.0781261353 3.1098593945 
3.1415926536 
_radius 1 100 double
8.9833890873e-16 0.015454679191 0.030850311004 0.046121816707 0.061203001262 0.076026888296 0.090526776582 0.10463797535 0.1183000077 
0.1314589273 0.14406930413 0.15609543765 0.16751148868 0.17830048996 0.18845253242 0.19796268573 0.20682924614 0.21505267545 
0.22263523339 0.22958102673 0.2358961448 0.2415887063 0.24666887156 0.25114902961 0.2550443617 0.25837381709 0.26116129129 
0.26343658467 0.26523563457 0.26659958779 0.26757247882 0.26819753956 0.26851244618 0.26854410512 0.26830387307 0.26778429829 
0.26695839981 0.26578207468 0.26419955477 0.26215120458 0.25958260694 0.256453874 0.25274831149 0.24847977026 0.24369812005 
0.23849226216 0.23299002401 0.22735425147 0.22177454021 0.21645443772 0.21159471974 0.20737451933 0.20393335153 0.20135764667 
0.19967448506 0.1988529543 0.1988112447 0.199426669 0.20054649928 0.20199894018 0.20360454177 0.20518835712 0.2065924533 
0.20768765583 0.20838312409 0.20863258161 0.20843654006 0.20784034073 0.20692804318 0.2058121678 0.2046194576 0.20347353605 
0.20247641693 0.20169162165 0.20113169408 0.20075221664 0.20045336768 0.20008884964 0.19948074331 0.19843769546 0.19677321131 
0.19432102955 0.19094557902 0.18654696333 0.1810612744 0.17445790523 0.16673575052 0.15791980666 0.14805891658 0.13722452349 
0.12550956214 0.11302623968 0.099901571112 0.086270147514 0.072264580168 0.058005083932 0.04359037058 0.029092111081 0.014554591593 
8.6794330953e-16 
_area 1 100 double
0 0.00064869208399 0.0025857379606 0.0057833913069 0.010193443919 0.015745038916 0.022343073545 0.029868435633 0.03818120405 
0.047127386732 0.056548758437 0.066293993692 0.076227838756 0.08623430504 0.096211442703 0.10606037894 0.11567693226 0.12495344131 
0.13379068632 0.1421128621 0.14987764511 0.1570765018 0.1637245986 0.16984392898 0.17544660422 0.18052588239 0.18505915977 
0.1890211004 0.19239982074 0.19520755097 0.19748055126 0.19926865894 0.20061897045 0.20155969217 0.20208891519 0.20217060115 
0.20173822589 0.20070493726 0.19897738641 0.19646985995 0.1931163892 0.18887986714 0.18375835901 0.17779020925 0.17106041633 
0.16370923422 0.1559402982 0.14802263152 0.14028050091 0.13306592974 0.12670990102 0.12145511617 0.11739250677 0.11444066516 
0.11238765467 0.11096826571 0.10993300388 0.10909066723 0.10833979391 0.10774057654 0.10759650614 0.10788738789 0.10829538032 
0.10854737592 0.10842588392 0.10776408405 0.10646291796 0.10451455543 0.10202038868 0.09919653618 0.096361478985 0.093902605971 
0.092238366478 0.09186055905 0.092866409294 0.094672493852 0.096888816133 0.099096390169 0.10088215472 0.10188592598 0.10183271011 
0.10054531306 0.097941720815 0.094025405667 0.088873784612 0.082625459239 0.075466106692 0.067614249896 0.059308899827 0.050800255273 
0.042342570634 0.034186560582 0.026568760794 0.019697335905 0.013737162619 0.0088000033356 0.0049456481865 0.0021949270943 0.00054810626251 
2.0884221019e-17 
