# vtk DataFile Version 5.1
vtk output
ASCII
DATASET POLYDATA
POINTS 100 float
0.00540171 -0.00304428 -0.617978 0.00547885 -0.00293461 -0.618626 0.00571969 -0.0028454 -0.620454 
0.00610798 -0.00279558 -0.623257 0.00661796 -0.00281413 -0.626714 0.00721656 -0.00293722 -0.630418 
0.00786592 -0.00320478 -0.633909 0.00852592 -0.00365654 -0.636716 0.00915619 -0.00432839 -0.638398 
0.00971739 -0.00524894 -0.638576 0.0101715 -0.00643705 -0.63696 0.0104813 -0.00790017 -0.633371 
0.010609 -0.00963383 -0.627745 0.0105146 -0.0116222 -0.620128 0.0101543 -0.0138393 -0.610664 
0.00947997 -0.0162515 -0.59957 0.00843874 -0.0188196 -0.587108 0.00697504 -0.0215013 -0.57356 
0.00503332 -0.0242542 -0.559196 0.00256229 -0.0270367 -0.54425 -0.000479964 -0.0298102 -0.528908 
-0.00412061 -0.032539 -0.513293 -0.00836717 -0.0351908 -0.497465 -0.0132038 -0.0377361 -0.48143 
-0.0185891 -0.0401477 -0.465145 -0.024457 -0.0423995 -0.44854 -0.0307187 -0.0444665 -0.43153 
-0.0372687 -0.0463241 -0.414032 -0.043991 -0.0479489 -0.395982 -0.0507673 -0.0493188 -0.377337 
-0.0574856 -0.0504149 -0.358084 -0.0640472 -0.0512224 -0.33824 -0.0703728 -0.0517325 -0.317843 
-0.0764054 -0.0519438 -0.296948 -0.0821107 -0.0518635 -0.275613 -0.0874745 -0.0515074 -0.253895 
-0.0924972 -0.0508999 -0.231839 -0.0971865 -0.0500729 -0.209474 -0.101549 -0.0490638 -0.186809 
-0.105583 -0.0479129 -0.163841 -0.109269 -0.0466604 -0.140552 -0.112567 -0.0453436 -0.116922 
-0.115418 -0.0439937 -0.0929375 -0.117738 -0.0426334 -0.0685957 -0.119432 -0.0412756 -0.0439149 
-0.120396 -0.0399222 -0.0189372 -0.12053 -0.0385648 0.00626972 -0.119748 -0.037186 0.0316147 
-0.117985 -0.0357616 0.056988 -0.115212 -0.0342637 0.0822686 -0.111435 -0.0326642 0.107333 
-0.106698 -0.0309379 0.132063 -0.101084 -0.0290665 0.156355 -0.0947044 -0.0270407 0.180126 
-0.0876946 -0.0248625 0.203318 -0.0802011 -0.0225461 0.225894 -0.0723707 -0.020118 0.247845 
-0.0643401 -0.0176162 0.269178 -0.0562269 -0.0150881 0.289917 -0.0481235 -0.0125882 0.310089 
-0.040095 -0.010175 0.329727 -0.0321794 -0.00790814 0.348857 -0.0243918 -0.00584513 0.3675 
-0.0167306 -0.0040386 0.385666 -0.00918518 -0.00253396 0.40336 -0.00174351 -0.00136761 0.420575 
0.00560072 -0.000565792 0.437305 0.0128433 -0.000143957 0.45354 0.019967 -0.000106787 0.469276 
0.0269418 -0.00044859 0.484512 0.0337279 -0.00115408 0.499254 0.0402807 -0.00219938 0.513517 
0.0465565 -0.00355315 0.527317 0.0525194 -0.0051778 0.540675 0.0581462 -0.00703068 0.553609 
0.06343 -0.00906526 0.566133 0.0683817 -0.0112323 0.578252 0.0730286 -0.013481 0.589958 
0.0774104 -0.0157603 0.601234 0.0815733 -0.0180197 0.612049 0.085563 -0.0202112 0.622364 
0.0894181 -0.0222898 0.632133 0.0931635 -0.0242155 0.641306 0.0968062 -0.0259543 0.649838 
0.100334 -0.027479 0.657691 0.103716 -0.028771 0.664837 0.106906 -0.0298202 0.671261 
0.109852 -0.0306257 0.676964 0.112499 -0.031196 0.681962 0.114799 -0.0315482 0.686287 
0.116721 -0.0317074 0.689979 0.118252 -0.0317052 0.693089 0.119401 -0.0315781 0.695672 
0.120202 -0.0313659 0.697785 0.120706 -0.0311088 0.699482 0.120979 -0.0308462 0.700813 
0.12109 -0.0306136 0.70182 0.121108 -0.0304412 0.702537 0.121086 -0.0303521 0.702988 
0.121062 -0.0303607 0.703187 
LINES 2 100
OFFSETS vtktypeint64
0 100 
CONNECTIVITY vtktypeint64
0 1 2 3 4 5 6 7 8 
9 10 11 12 13 14 15 16 17 
18 19 20 21 22 23 24 25 26 
27 28 29 30 31 32 33 34 35 
36 37 38 39 40 41 42 43 44 
45 46 47 48 49 50 51 52 53 
54 55 56 57 58 59 60 61 62 
63 64 65 66 67 68 69 70 71 
72 73 74 75 76 77 78 79 80 
81 82 83 84 85 86 87 88 89 
90 91 92 93 94 95 96 97 98 
99 
POINT_DATA 100
FIELD FieldData 3
_theta 1 100 double
0 0.031733259127 0.063466518254 0.095199777382 0.12693303651 0.15866629564 0.19039955476 0.22213281389 0.25386607302 
0.28559933214 0.31733259127 0.3490658504 0.38079910953 0.41253236865 0.44426562778 0.47599888691 0.50773214603 0.53946540516 
0.57119866429 0.60293192342 0.63466518254 0.66639844167 0.6981317008 0.72986495992 0.76159821905 0.79333147818 0.82506473731 
0.85679799643 0.88853125556 0.92026451469 0.95199777382 0.98373103294 1.0154642921 1.0471975512 1.0789308103 1.1106640695 
1.1423973286 1.1741305877 1.2058638468 1.237597106 1.2693303651 1.3010636242 1.3327968833 1.3645301425 1.3962634016 
1.4279966607 1.4597299198 1.491463179 1.5231964381 1.5549296972 1.5866629564 1.6183962155 1.6501294746 1.6818627337 
1.7135959929 1.745329252 1.7770625111 1.8087957702 1.8405290294 1.8722622885 1.9039955476 1.9357288068 1.9674620659 
1.999195325 2.0309285841 2.0626618433 2.0943951024 2.1261283615 2.1578616206 2.1895948798 2.2213281389 2.253061398 
2.2847946572 2.3165279163 2.3482611754 2.3799944345 2.4117276937 2.4434609528 2.4751942119 2.506927471 2.5386607302 
2.5703939893 2.6021272484 2.6338605076 2.6655937667 2.6973270258 2.7290602849 2.7607935441 2.7925268032 2.8242600623 
2.8559933214 2.8877265806 2.9194598397 2.9511930988 2.982926358 3.0146596171 3.0463928762 3.0781261353 3.1098593945 
3.1415926536 
_radius 1 100 double
1.554313747e-15 0.012724992059 0.025411205218 0.038015411576 0.050500780678 0.062833994863 0.074978844768 0.086889511778 0.098506738181 
0.10975847122 0.12056458174 0.13084390895 0.14052143613 0.14953370677 0.15783143843 0.16537942605 0.17215486567 0.17814577117 
0.18335097394 0.18778236431 0.19146888994 0.19446081143 0.19683221127 0.19867995513 0.2001181734 0.20126860337 0.20224840275 
0.20315787273 0.20407057804 0.20502754252 0.20603584871 0.20707077229 0.20808022759 0.20899091062 0.20971645759 0.21016827165 
0.2102689394 0.20996672894 0.20924845397 0.20814774945 0.20674662634 0.20516966027 0.20357181566 0.20212228896 0.20098750417 
0.2003162166 0.20022853718 0.20080902339 0.20210267262 0.20411246775 0.20679810349 0.21007688614 0.21382850563 0.21790481242 
0.2221440944 0.22638753499 0.230494556 0.23435407198 0.23789001055 0.24106107049 0.243855952 0.24628588755 0.24837624362 
0.25015848906 0.25166324583 0.25291469769 0.25392641947 0.25469863793 0.25521692257 0.25545226359 0.25536244386 0.25489459936 
0.25398886344 0.25258288142 0.25061667722 0.24803699457 0.2448001726 0.24087305135 0.2362321348 0.23086183319 0.22475276994 
0.21790087517 0.2103075033 0.20198034707 0.1929346405 0.18319409814 0.17279118436 0.16176655568 0.1501677711 0.13804752884 
0.12546171615 0.11246748234 0.099121459751 0.085478236304 0.071589211646 0.057501971135 0.043260242244 0.028904377136 0.014472197568 
6.8091939014e-16 
_area 1 100 double
0 0.00048755743662 0.0019506176395 0.0043925481125 0.0078214389265 0.012242177942 0.01763762239 0.023948779956 0.031062172323 
0.038804342438 0.046942317763 0.055192889642 0.06324504028 0.070795788706 0.077592569434 0.083469446546 0.088363462058 0.092302798517 
0.095369803103 0.097655497483 0.099229308608 0.10013956582 0.1004396773 0.10021810655 0.099610168116 0.098784028787 0.097910807498 
0.097137453098 0.096575657684 0.096306571974 0.096391160193 0.096875492374 0.097785508114 0.099110260516 0.10077847405 0.10264460865 
0.10450477957 0.10614604631 0.10740840216 0.10823079882 0.10866331574 0.10884540737 0.10896454255 0.10921369847 0.10976346602 
0.11075799075 0.11237202337 0.11496448389 0.11813745303 0.12175453642 0.12581003125 0.13030423514 0.13521236243 0.14046037217 
0.14591656119 0.15140383001 0.15672694031 0.16170314898 0.16618622621 0.17007916814 0.17333595073 0.17595548244 0.17797107246 
0.17943721726 0.18041432784 0.18095279273 0.18107991079 0.18079391721 0.18006656698 0.1788511393 0.17709036982 0.1747217748 
0.17168431574 0.1679322446 0.16345388006 0.15828378183 0.15249839409 0.14619580708 0.13946950158 0.1323874292 0.12498269933 
0.11725688943 0.10919509153 0.10078952114 0.092063780463 0.083087864838 0.073978149797 0.06488338716 0.055962872942 0.047365362436 
0.039216768299 0.031619985076 0.024662731688 0.018425547061 0.012985364555 0.0084150847847 0.004781192379 0.0021406556167 0.00053757465509 
4.294795525e-17 
