# vtk DataFile Version 5.1
vtk output
ASCII
DATASET POLYDATA
POINTS 100 float
0.149139 -0.0335915 0.724679 0.149151 -0.033591 0.724187 0.149103 -0.03372 0.72291 
0.148959 -0.0339463 0.720907 0.148666 -0.0342206 0.718263 0.14816 -0.0344813 0.715079 
0.147378 -0.0346625 0.711456 0.146261 -0.0347008 0.707476 0.144767 -0.0345427 0.703195 
0.142878 -0.0341503 0.698628 0.140596 -0.0335049 0.693748 0.13795 -0.0326086 0.688491 
0.134983 -0.0314829 0.682761 0.131754 -0.030166 0.676449 0.12832 -0.0287072 0.669441 
0.124735 -0.0271615 0.661645 0.121034 -0.0255831 0.652996 0.11723 -0.0240203 0.643472 
0.113312 -0.0225108 0.633097 0.10924 -0.0210797 0.621939 0.104959 -0.0197386 0.610101 
0.100396 -0.018487 0.59771 0.0954787 -0.0173152 0.584901 0.0901405 -0.0162077 0.571799 
0.0843352 -0.0151474 0.558503 0.0780435 -0.0141194 0.545077 0.0712783 -0.0131136 0.531542 
0.0640861 -0.0121263 0.517876 0.0565431 -0.0111604 0.504023 0.0487473 -0.010224 0.4899 
0.0408073 -0.00932816 0.475412 0.0328297 -0.00848402 0.460471 0.024905 -0.00770024 0.445002 
0.0170966 -0.00698073 0.428959 0.00943192 -0.00632369 0.412326 0.00189916 -0.00572198 0.395117 
-0.00555137 -0.00516497 0.377366 -0.0129997 -0.0046417 0.359119 -0.0205441 -0.00414487 0.340418 
-0.0282846 -0.00367511 0.321286 -0.0363055 -0.0032448 0.301713 -0.0446571 -0.00288087 0.281657 
-0.0533404 -0.00262582 0.261032 -0.0622958 -0.00253681 0.239723 -0.071398 -0.00268253 0.217597 
-0.0804578 -0.00313822 0.194519 -0.089231 -0.00397902 0.170376 -0.0974334 -0.00527268 0.145097 
-0.104762 -0.00707208 0.118671 -0.110917 -0.00940873 0.0911627 -0.115629 -0.0122877 0.062712 
-0.118678 -0.015685 0.0335325 -0.119916 -0.0195471 0.00389612 -0.119278 -0.0237933 -0.0258887 
-0.116784 -0.02832 -0.0555038 -0.112542 -0.0330077 -0.0846514 -0.106734 -0.0377271 -0.113081 
-0.099601 -0.0423476 -0.140612 -0.09142 -0.0467434 -0.16715 -0.0824813 -0.0507993 -0.192688 
-0.0730633 -0.0544142 -0.217303 -0.0634119 -0.057503 -0.241136 -0.0537219 -0.0599964 -0.264375 
-0.0441267 -0.0618391 -0.287216 -0.0346938 -0.0629869 -0.30984 -0.0254274 -0.0634041 -0.332383 
-0.016278 -0.0630602 -0.354917 -0.0071568 -0.0619287 -0.377434 0.00204598 -0.0599863 -0.39985 
0.011442 -0.0572139 -0.422012 0.0211259 -0.0535997 -0.443717 0.0311599 -0.0491419 -0.464737 
0.041562 -0.0438536 -0.484848 0.0523003 -0.0377662 -0.503858 0.0632924 -0.0309325 -0.521627 
0.0744119 -0.0234286 -0.538087 0.0854977 -0.0153531 -0.553244 0.096369 -0.00682514 -0.567174 
0.10684 0.00202051 -0.580007 0.116738 0.0110393 -0.591907 0.125915 0.0200843 -0.603047 
0.134262 0.0290135 -0.613579 0.141713 0.0376976 -0.623613 0.14825 0.0460249 -0.633202 
0.153903 0.0539067 -0.642332 0.158737 0.0612783 -0.650929 0.162849 0.0680991 -0.658868 
0.166352 0.0743505 -0.665997 0.169366 0.0800315 -0.672163 0.172001 0.0851535 -0.677238 
0.174351 0.0897354 -0.681143 0.176485 0.0937977 -0.683869 0.178444 0.097359 -0.685486 
0.18024 0.100433 -0.68614 0.181862 0.103025 -0.68604 0.183277 0.105138 -0.685441 
0.184443 0.106768 -0.684609 0.185315 0.107907 -0.683798 0.185855 0.108551 -0.683214 
0.186038 0.108696 -0.68299 
LINES 2 100
OFFSETS vtktypeint64
0 100 
CONNECTIVITY vtktypeint64
0 1 2 3 4 5 6 7 8 
9 10 11 12 13 14 15 16 17 
18 19 20 21 22 23 24 25 26 
27 28 29 30 31 32 33 34 35 
36 37 38 39 40 41 42 43 44 
45 46 47 48 49 50 51 52 53 
54 55 56 57 58 59 60 61 62 
63 64 65 66 67 68 69 70 71 
72 73 74 75 76 77 78 79 80 
81 82 83 84 85 86 87 88 89 
90 91 92 93 94 95 96 97 98 
99 
POINT_DATA 100
FIELD FieldData 3
_theta 1 100 double
0 0.031733259127 0.063466518254 0.095199777382 0.12693303651 0.15866629564 0.19039955476 0.22213281389 0.25386607302 
0.28559933214 0.31733259127 0.3490658504 0.38079910953 0.41253236865 0.44426562778 0.47599888691 0.50773214603 0.53946540516 
0.57119866429 0.60293192342 0.63466518254 0.66639844167 0.6981317008 0.72986495992 0.76159821905 0.79333147818 0.82506473731 
0.85679799643 0.88853125556 0.92026451469 0.95199777382 0.98373103294 1.0154642921 1.0471975512 1.0789308103 1.1106640695 
1.1423973286 1.1741305877 1.2058638468 1.237597106 1.2693303651 1.3010636242 1.3327968833 1.3645301425 1.3962634016 
1.4279966607 1.4597299198 1.491463179 1.5231964381 1.5549296972 1.5866629564 1.6183962155 1.6501294746 1.6818627337 
1.7135959929 1.745329252 1.7770625111 1.8087957702 1.8405290294 1.8722622885 1.9039955476 1.9357288068 1.9674620659 
1.999195325 2.0309285841 2.0626618433 2.0943951024 2.1261283615 2.1578616206 2.1895948798 2.2213281389 2.253061398 
2.2847946572 2.3165279163 2.3482611754 2.3799944345 2.4117276937 2.4434609528 2.4751942119 2.506927471 2.5386607302 
2.5703939893 2.6021272484 2.6338605076 2.6655937667 2.6973270258 2.7290602849 2.7607935441 2.7925268032 2.8242600623 
2.8559933214 2.8877265806 2.9194598397 2.9511930988 2.982926358 3.0146596171 3.0463928762 3.0781261353 3.1098593945 
3.1415926536 
_radius 1 100 double
2.0078238368e-15 0.015425603198 0.030825211388 0.046176163142 0.061450117276 0.076610255834 0.091609136977 0.10638760434 0.12087506779 
0.13499128192 0.14864954589 0.16176107358 0.17424011452 0.18600922975 0.19700400103 0.20717647448 0.21649685202 0.22495329194 
0.23255006541 0.23930464218 0.24524446917 0.25040420532 0.25482397256 0.25854883271 0.26162931453 0.2641225086 0.26609307395 
0.267613435 0.26876244198 0.26962182657 0.27027000254 0.27077326227 0.27117522422 0.27148629681 0.27167556784 0.27166754651 
0.27134547087 0.27056167999 0.26915424616 0.266967997 0.2638773807 0.25980835937 0.25475661086 0.24879970269 0.24210147589 
0.23490752894 0.22753129896 0.22033073055 0.21367604112 0.20791018846 0.20330615717 0.20002910359 0.19811416046 0.1974679855 
0.19789320527 0.19912570082 0.20087187443 0.20283718766 0.20474444728 0.2063465118 0.20743992092 0.20788196218 0.2076073799 
0.2066381043 0.20508153803 0.20311714842 0.20097450021 0.19890701286 0.19716443891 0.19596527485 0.19547053921 0.19576211024 
0.19682959129 0.19856840526 0.20078943905 0.20323839037 0.20562162601 0.20763479526 0.20899045801 0.20944146564 0.2087976628 
0.20693451662 0.20379338473 0.19937419992 0.19372228706 0.18691173131 0.17902806067 0.17015289995 0.16035271012 0.14967289233 
0.13813762193 0.12575495859 0.11252612247 0.09845733007 0.083572242063 0.067922935634 0.051597451392 0.03472243058 0.017460123994 
2.5278885283e-16 
_area 1 100 double
0 0.00061195011096 0.0024397415678 0.005460056665 0.0096368092567 0.014924788923 0.021273172927 0.028626746868 0.036922565853 
0.046081280972 0.055995460405 0.066520402991 0.077473673339 0.088646606282 0.099825799114 0.11081817812 0.1214717708 0.13168601242 
0.14140901092 0.15062313998 0.15932357936 0.16749648457 0.17510384747 0.18208009622 0.18834119359 0.19380244954 0.1983990397 
0.2021037597 0.20493822363 0.20697537911 0.20833308398 0.20916090377 0.20962475671 0.20989590961 0.21015435054 0.21063701709 
0.21162684141 0.21251618744 0.2123782911 0.21067825192 0.20710303218 0.20154063912 0.19409079377 0.18505990786 0.17493047511 
0.16430628014 0.15384049158 0.14415590056 0.13576562862 0.12900065819 0.12395503233 0.12047617479 0.11822617346 0.11678767202 
0.11576461564 0.11492943993 0.11412625835 0.11303123775 0.11163642157 0.11006581009 0.10863437859 0.10739848233 0.10601466967 
0.10412847367 0.10163738501 0.098700067623 0.095616855495 0.092699968259 0.090199712836 0.088299324321 0.087118611333 0.086712788696 
0.087074981858 0.088149753627 0.089885022574 0.092202630798 0.094895017214 0.097678191273 0.10005469037 0.10172162677 0.10243352764 
0.10200249907 0.10031078738 0.097317620332 0.09305649422 0.087625402664 0.08117415794 0.073890773221 0.065987412784 0.057687317143 
0.04921494013 0.04079067891 0.032629835813 0.024944127807 0.017943533851 0.011836067726 0.0068229905316 0.0030878918504 0.00078061943035 
1.0408340856e-16 
