# vtk DataFile Version 5.1
vtk output
ASCII
DATASET POLYDATA
POINTS 100 float
0.0936822 -0.0343822 0.693437 0.0937888 -0.0341906 0.693319 0.094059 -0.033746 0.693155 
0.0944442 -0.0330551 0.692883 0.0948714 -0.0321308 0.692404 0.0952529 -0.0309924 0.691587 
0.0954992 -0.0296661 0.690286 0.0955308 -0.0281854 0.688342 0.095289 -0.0265905 0.685607 
0.0947433 -0.0249261 0.681945 0.093894 -0.0232399 0.677252 0.0927701 -0.0215786 0.67146 
0.0914224 -0.0199841 0.664544 0.0899133 -0.0184896 0.656522 0.0883041 -0.0171161 0.647457 
0.0866416 -0.0158692 0.637448 0.0849476 -0.0147384 0.626625 0.0832105 -0.0136968 0.615134 
0.0813828 -0.012704 0.603128 0.079383 -0.0117097 0.590754 0.0771038 -0.0106597 0.578139 
0.0744238 -0.00950198 0.565383 0.0712232 -0.00819387 0.552554 0.0673991 -0.00670811 0.539682 
0.0628805 -0.00503786 0.526762 0.0576397 -0.00319974 0.513759 0.051698 -0.00123452 0.500615 
0.0451268 0.000794806 0.48726 0.0380406 0.00280734 0.473622 0.0305855 0.00471065 0.459634 
0.0229234 0.00640856 0.445248 0.0152132 0.00780946 0.430437 0.00759325 0.00883422 0.415195 
0.000165052 0.00942294 0.399541 -0.00701713 0.00953966 0.383507 -0.0139511 0.0091746 0.367138 
-0.0206841 0.00834369 0.350475 -0.027304 0.00708552 0.333552 -0.0339231 0.00545603 0.316383 
-0.0406596 0.00352172 0.298957 -0.0476162 0.00135213 0.281239 -0.0548598 -0.00098749 0.263165 
-0.0624053 -0.00344249 0.244651 -0.0702042 -0.00597334 0.225601 -0.078141 -0.00855797 0.20592 
-0.0860377 -0.0111917 0.185523 -0.0936646 -0.0138847 0.164348 -0.100759 -0.0166577 0.142368 
-0.107048 -0.0195366 0.119594 -0.11227 -0.0225457 0.0960815 -0.116201 -0.0257018 0.0719258 
-0.118673 -0.0290093 0.0472549 -0.119589 -0.0324562 0.0222202 -0.118927 -0.0360126 -0.00301768 
-0.116744 -0.0396308 -0.0283022 -0.113163 -0.0432475 -0.0534948 -0.108364 -0.0467873 -0.078485 
-0.102559 -0.0501676 -0.103198 -0.0959745 -0.0533039 -0.127596 -0.088831 -0.0561147 -0.151677 
-0.0813223 -0.0585257 -0.175465 -0.0736032 -0.0604737 -0.199002 -0.0657803 -0.0619083 -0.22233 
-0.0579107 -0.0627929 -0.245484 -0.0500057 -0.0631047 -0.268476 -0.0420403 -0.0628329 -0.291288 
-0.033966 -0.0619777 -0.313865 -0.0257255 -0.0605482 -0.336119 -0.0172677 -0.0585611 -0.357936 
-0.00856049 -0.0560392 -0.379179 0.000399524 -0.0530109 -0.399713 0.00958168 -0.0495102 -0.419406 
0.0189203 -0.0455766 -0.438155 0.0283183 -0.0412556 -0.45589 0.0376542 -0.0365985 -0.472581 
0.0467922 -0.0316625 -0.488244 0.0555928 -0.0265093 -0.502935 0.0639239 -0.0212038 -0.51674 
0.0716707 -0.0158116 -0.529762 0.0787425 -0.0103966 -0.542109 0.0850781 -0.00501778 -0.553874 
0.0906469 0.000272953 -0.565124 0.095448 0.00543322 -0.575886 0.0995068 0.0104311 -0.58615 
0.10287 0.0152453 -0.595859 0.105599 0.0198638 -0.604926 0.107765 0.0242818 -0.613239 
0.109443 0.0284986 -0.620683 0.110708 0.0325139 -0.627151 0.111631 0.0363245 -0.632569 
0.112276 0.0399208 -0.636902 0.1127 0.0432852 -0.64017 0.112956 0.0463906 -0.642447 
0.113087 0.0492012 -0.643858 0.11313 0.0516743 -0.64457 0.113119 0.0537634 -0.644774 
0.113079 0.0554224 -0.644669 0.113032 0.0566096 -0.644435 0.112992 0.0572919 -0.644222 
0.11297 0.0574483 -0.644124 
LINES 2 100
OFFSETS vtktypeint64
0 100 
CONNECTIVITY vtktypeint64
0 1 2 3 4 5 6 7 8 
9 10 11 12 13 14 15 16 17 
18 19 20 21 22 23 24 25 26 
27 28 29 30 31 32 33 34 35 
36 37 38 39 40 41 42 43 44 
45 46 47 48 49 50 51 52 53 
54 55 56 57 58 59 60 61 62 
63 64 65 66 67 68 69 70 71 
72 73 74 75 76 77 78 79 80 
81 82 83 84 85 86 87 88 89 
90 91 92 93 94 95 96 97 98 
99 
POINT_DATA 100
FIELD FieldData 3
_theta 1 100 double
0 0.031733259127 0.063466518254 0.095199777382 0.12693303651 0.15866629564 0.19039955476 0.22213281389 0.25386607302 
0.28559933214 0.31733259127 0.3490658504 0.38079910953 0.41253236865 0.44426562778 0.47599888691 0.50773214603 0.53946540516 
0.57119866429 0.60293192342 0.63466518254 0.66639844167 0.6981317008 0.72986495992 0.76159821905 0.79333147818 0.82506473731 
0.85679799643 0.88853125556 0.92026451469 0.95199777382 0.98373103294 1.0154642921 1.0471975512 1.0789308103 1.1106640695 
1.1423973286 1.1741305877 1.2058638468 1.237597106 1.2693303651 1.3010636242 1.3327968833 1.3645301425 1.3962634016 
1.4279966607 1.4597299198 1.491463179 1.5231964381 1.5549296972 1.5866629564 1.6183962155 1.6501294746 1.6818627337 
1.7135959929 1.745329252 1.7770625111 1.8087957702 1.8405290294 1.8722622885 1.9039955476 1.9357288068 1.9674620659 
1.999195325 2.0309285841 2.0626618433 2.0943951024 2.1261283615 2.1578616206 2.1895948798 2.2213281389 2.253061398 
2.2847946572 2.3165279163 2.3482611754 2.3799944345 2.4117276937 2.4434609528 2.4751942119 2.506927471 2.5386607302 
2.5703939893 2.6021272484 2.6338605076 2.6655937667 2.6973270258 2.7290602849 2.7607935441 2.7925268032 2.8242600623 
2.8559933214 2.8877265806 2.9194598397 2.9511930988 2.982926358 3.0146596171 3.0463928762 3.0781261353 3.1098593945 
3.1415926536 
_radius 1 100 double
7.8015511962e-16 0.014763791242 0.029454791226 0.044004365492 0.058345350137 0.072412830023 0.086144953679 0.099483689087 0.11237544652 
0.12477159893 0.13662907615 0.14791130097 0.1585896686 0.16864550613 0.17807207249 0.18687585572 0.19507638004 0.2027040251 
0.20979591575 0.21639058139 0.22252258445 0.22821847784 0.23349516287 0.23836102966 0.24281938443 0.24687292299 0.25052768865 
0.25379518648 0.25669201311 0.25923720096 0.26144810757 0.26333588201 0.26490136042 0.26613194301 0.26699982541 0.26746194098 
0.2674619872 0.26693480749 0.2658131285 0.26403626885 0.26156004013 0.25836673885 0.25447392488 0.2499406266 0.24486973805 
0.23940570944 0.23372718299 0.22803494265 0.22253632812 0.21742798427 0.21287932984 0.20901924159 0.20592790066 0.20363439591 
0.20211887833 0.20131681509 0.20112328672 0.20139744454 0.20196983712 0.20265607449 0.2032778327 0.20368778295 0.20379206428 
0.20356446853 0.20304934202 0.20235304199 0.2016256898 0.20103619555 0.20074441141 0.20087472488 0.20149512221 0.20260458724 
0.20412994143 0.20593149967 0.2078157387 0.20955267659 0.21089568174 0.21160175534 0.21145071335 0.2102618869 0.20790692833 
0.2043173081 0.19948541039 0.1934588629 0.18632871853 0.17821311554 0.16923886556 0.15952387815 0.149163272 0.1382213712 
0.12673062368 0.114697097 0.10211099729 0.088959931161 0.075242460402 0.060979745647 0.046223539221 0.03105935782 0.015604332093 
1.0799192666e-15 
_area 1 100 double
0 0.00064149872092 0.0025484879573 0.0056689691464 0.0099183296161 0.015183274188 0.021328320531 0.028204609757 0.035659831857 
0.043547472947 0.051733783815 0.060101858699 0.068553514015 0.07701052075 0.085416559392 0.093739864737 0.10197445192 0.11013648441 
0.11825336118 0.12634653287 0.13441267467 0.14240912785 0.15024833572 0.15780401156 0.16492941188 0.17148426248 0.17736272181 
0.18251380004 0.1869487533 0.1907342513 0.1939729897 0.1967750915 0.19922570421 0.20135655834 0.20312993982 0.20444093185 
0.20513508663 0.20505954055 0.20406799928 0.20190120197 0.19844287727 0.19369429023 0.18775123185 0.18079539534 0.17308185369 
0.16491854158 0.15663735767 0.14855970226 0.14096188323 0.13404647451 0.12792361937 0.12260347946 0.11800305101 0.11397580868 
0.11036436124 0.10705467728 0.10398203629 0.10108591079 0.09837802216 0.095866594573 0.093552554593 0.091391928419 0.089321586447 
0.087301562083 0.085347775268 0.083550534837 0.082078243342 0.081164198348 0.081073132838 0.082024448848 0.084065393942 0.087049804944 
0.09073104093 0.094837466002 0.09909970685 0.10324811743 0.10700356334 0.11007567877 0.11217506276 0.11303822685 0.11245904207 
0.11031836221 0.10660377907 0.10141386657 0.094945173024 0.087464502523 0.079272628912 0.070667685766 0.061916317859 0.053237960169 
0.044803292467 0.03674406344 0.029169622722 0.022185328908 0.015907978467 0.010473067068 0.00603012298 0.0027270207557 0.00068908999136 
7.8062556419e-18 
