# vtk DataFile Version 5.1
vtk output
ASCII
DATASET POLYDATA
POINTS 100 float
0.169239 0.0363134 -0.645234 0.169053 0.0364123 -0.645056 0.168436 0.0368051 -0.644421 
0.167397 0.0374368 -0.6433 0.165943 0.0382217 -0.641649 0.164083 0.0390489 -0.639412 
0.161818 0.0397919 -0.636525 0.159141 0.0403171 -0.632926 0.156034 0.0404947 -0.628555 
0.152465 0.0402073 -0.623364 0.148391 0.039359 -0.617321 0.143758 0.0378813 -0.610408 
0.138509 0.0357378 -0.602629 0.132589 0.0329258 -0.594004 0.125953 0.0294758 -0.584571 
0.118573 0.0254484 -0.574378 0.110446 0.0209294 -0.563483 0.101597 0.0160235 -0.551947 
0.0920828 0.0108469 -0.539826 0.0819895 0.0055203 -0.527171 0.0714297 0.000161198 -0.514018 
0.060535 -0.00512179 -0.50039 0.0494466 -0.010234 -0.48629 0.0383047 -0.0150981 -0.471704 
0.0272376 -0.0196554 -0.456603 0.0163521 -0.0238662 -0.44094 0.00572583 -0.0277081 -0.424659 
-0.00459715 -0.0311735 -0.407698 -0.0146066 -0.034266 -0.389991 -0.0243224 -0.0369966 -0.37148 
-0.0337875 -0.0393798 -0.352112 -0.0430567 -0.0414299 -0.33185 -0.0521845 -0.0431585 -0.310673 
-0.0612115 -0.044572 -0.288583 -0.0701523 -0.0456708 -0.265605 -0.0789848 -0.0464489 -0.241786 
-0.0876448 -0.0468953 -0.2172 -0.096023 -0.0469954 -0.19194 -0.103969 -0.0467333 -0.166122 
-0.111299 -0.0460946 -0.139878 -0.117807 -0.0450692 -0.113351 -0.123285 -0.0436541 -0.0866948 
-0.127533 -0.0418557 -0.0600622 -0.130383 -0.0396917 -0.0336051 -0.13171 -0.0371919 -0.00746709 
-0.131449 -0.034399 0.0182212 -0.129598 -0.0313675 0.0433456 -0.126222 -0.0281627 0.0678122 
-0.121451 -0.0248582 0.0915488 -0.115468 -0.0215334 0.114506 -0.108499 -0.0182703 0.136658 
-0.100793 -0.0151499 0.157998 -0.0926036 -0.0122487 0.178539 -0.0841747 -0.00963573 0.198309 
-0.0757194 -0.00736934 0.217349 -0.0674098 -0.00549503 0.235704 -0.0593677 -0.0040439 0.253425 
-0.0516617 -0.00303175 0.270563 -0.0443099 -0.00245905 0.287166 -0.0372862 -0.00231169 0.303278 
-0.0305319 -0.00256233 0.318938 -0.023969 -0.00317229 0.334179 -0.0175145 -0.00409385 0.349033 
-0.0110947 -0.00527268 0.363527 -0.00465637 -0.00665035 0.37769 0.00182418 -0.00816672 0.391552 
0.00833713 -0.00976206 0.405146 0.0148389 -0.011379 0.41851 0.0212563 -0.0129638 0.431685 
0.027494 -0.0144681 0.444715 0.0334448 -0.0158492 0.457645 0.0390009 -0.0170716 0.470517 
0.0440646 -0.0181068 0.483367 0.0485588 -0.0189346 0.496218 0.0524333 -0.0195432 0.509081 
0.05567 -0.0199298 0.521947 0.0582826 -0.0201008 0.534784 0.0603143 -0.0200721 0.547539 
0.0618321 -0.0198689 0.560137 0.0629191 -0.0195252 0.572481 0.0636653 -0.0190826 0.584459 
0.0641596 -0.0185889 0.595947 0.0644809 -0.0180958 0.606816 0.0646934 -0.0176562 0.616943 
0.0648422 -0.0173209 0.626214 0.0649531 -0.0171355 0.634534 0.0650344 -0.0171368 0.641832 
0.0650802 -0.0173498 0.648071 0.0650766 -0.017785 0.653245 0.0650071 -0.0184374 0.657384 
0.0648585 -0.0192852 0.660552 0.0646256 -0.0202911 0.662843 0.0643138 -0.0214037 0.664376 
0.0639406 -0.0225612 0.665288 0.0635341 -0.0236951 0.665722 0.0631299 -0.0247349 0.665824 
0.0627674 -0.0256137 0.665727 0.0624841 -0.0262727 0.665546 0.0623109 -0.026666 0.665371 
0.0622683 -0.0267638 0.665256 
LINES 2 100
OFFSETS vtktypeint64
0 100 
CONNECTIVITY vtktypeint64
0 1 2 3 4 5 6 7 8 
9 10 11 12 13 14 15 16 17 
18 19 20 21 22 23 24 25 26 
27 28 29 30 31 32 33 34 35 
36 37 38 39 40 41 42 43 44 
45 46 47 48 49 50 51 52 53 
54 55 56 57 58 59 60 61 62 
63 64 65 66 67 68 69 70 71 
72 73 74 75 76 77 78 79 80 
81 82 83 84 85 86 87 88 89 
90 91 92 93 94 95 96 97 98 
99 
POINT_DATA 100
FIELD FieldData 3
_theta 1 100 double
0 0.031733259127 0.063466518254 0.095199777382 0.12693303651 0.15866629564 0.19039955476 0.22213281389 0.25386607302 
0.28559933214 0.31733259127 0.3490658504 0.38079910953 0.41253236865 0.44426562778 0.47599888691 0.50773214603 0.53946540516 
0.57119866429 0.60293192342 0.63466518254 0.66639844167 0.6981317008 0.72986495992 0.76159821905 0.79333147818 0.82506473731 
0.85679799643 0.88853125556 0.92026451469 0.95199777382 0.98373103294 1.0154642921 1.0471975512 1.0789308103 1.1106640695 
1.1423973286 1.1741305877 1.2058638468 1.237597106 1.2693303651 1.3010636242 1.3327968833 1.3645301425 1.3962634016 
1.4279966607 1.4597299198 1.491463179 1.5231964381 1.5549296972 1.5866629564 1.6183962155 1.6501294746 1.6818627337 
1.7135959929 1.745329252 1.7770625111 1.8087957702 1.8405290294 1.8722622885 1.9039955476 1.9357288068 1.9674620659 
1.999195325 2.0309285841 2.0626618433 2.0943951024 2.1261283615 2.1578616206 2.1895948798 2.2213281389 2.253061398 
2.2847946572 2.3165279163 2.3482611754 2.3799944345 2.4117276937 2.4434609528 2.4751942119 2.506927471 2.5386607302 
2.5703939893 2.6021272484 2.6338605076 2.6655937667 2.6973270258 2.7290602849 2.7607935441 2.7925268032 2.8242600623 
2.8559933214 2.8877265806 2.9194598397 2.9511930988 2.982926358 3.0146596171 3.0463928762 3.0781261353 3.1098593945 
3.1415926536 
_radius 1 100 double
4.4931682188e-16 0.014030064497 0.028055930629 0.042056147932 0.055984296614 0.069763255367 0.083285061404 0.096415736294 0.10900377401 
0.12089084231 0.13192344746 0.14196463315 0.15090503811 0.15867270315 0.16524087778 0.17063283813 0.17492258813 0.17823047323 
0.1807132933 0.18254941508 0.18392047048 0.18499219767 0.1858974978 0.18672455051 0.18751178553 0.18824995679 0.18889012329 
0.1893555731 0.18955578929 0.18940115127 0.18881766736 0.18776119617 0.18623017901 0.18427508401 0.18200202087 0.17956784404 
0.1771650297 0.17499723356 0.17325076655 0.1720712266 0.17155391431 0.17174976243 0.17268035481 0.17435243517 0.17676468905 
0.1799045167 0.18373762903 0.18819691228 0.19317744225 0.19854142085 0.20413212651 0.20979248299 0.21538285446 0.22079368694 
0.22595058409 0.2308115528 0.23535802106 0.23958248018 0.24347598163 0.24701820332 0.25017170533 0.2528808366 0.25507492455 
0.25667494914 0.25760270405 0.25779129439 0.2571956506 0.255801603 0.2536320543 0.25074899002 0.2472505177 0.24326281594 
0.23892772024 0.23438750144 0.22976897464 0.22516920866 0.22064472952 0.21620535865 0.21181297838 0.20738486476 0.20280092024 
0.19791411013 0.19256343757 0.18658867211 0.17984572414 0.17222116547 0.16364415778 0.1540941411 0.14360309543 0.13225193424 
0.12016145584 0.1074790888 0.094363268027 0.080967564844 0.067426632002 0.053845651259 0.040294389452 0.026806307467 0.013382536247 
4.4675507582e-16 
_area 1 100 double
0 0.0004258012318 0.0017226152056 0.0039386686852 0.0071251775613 0.011304943799 0.016446352855 0.022449979582 0.02914966467 
0.036325078299 0.043719933455 0.051060437353 0.058072004827 0.064496050598 0.070109556032 0.074747248939 0.078322121146 0.080837961785 
0.082388910283 0.083144529652 0.083322472699 0.08315338469 0.082844976805 0.082554858945 0.082380815985 0.082367450359 0.082517181099 
0.082795389561 0.083131559769 0.083426856732 0.083574174296 0.083485728759 0.083120027242 0.082502306656 0.081732391224 0.080973397214 
0.080418865716 0.08024539403 0.080568763968 0.081423796521 0.08277469687 0.08454743194 0.086672024684 0.089121477532 0.091928176787 
0.095171496809 0.098960642249 0.10341389524 0.10861707864 0.11458008817 0.12121680138 0.12835044026 0.13573741947 0.14310687726 
0.15020919751 0.15685848534 0.16295360858 0.16846992381 0.17342425948 0.17782760882 0.18164850771 0.18480379552 0.18717454857 
0.18863410633 0.18907724322 0.18844144056 0.18671110807 0.18390696112 0.18008198965 0.17533555761 0.16982544245 0.16375740063 
0.15735471805 0.15082258068 0.14432172951 0.1379591225 0.13179374412 0.12584876284 0.1201206615 0.11458001171 0.10916431414 
0.10376940772 0.098249915786 0.092437038687 0.086172992687 0.079351358538 0.071948965069 0.064039209612 0.055784522368 0.04741228083 
0.039181883078 0.031351050562 0.024147736318 0.017751396586 0.012284819097 0.0078157752657 0.0043665627893 0.0019287768147 0.0004801455886 
1.3884557467e-17 
