# vtk DataFile Version 5.1
vtk output
ASCII
DATASET POLYDATA
POINTS 100 float
0.191941 0.0327817 -0.684742 0.191846 0.0326713 -0.68487 0.191524 0.0325128 -0.685187 
0.190978 0.0322915 -0.685591 0.190211 0.0319832 -0.68592 0.189215 0.0315555 -0.685973 
0.187969 0.0309688 -0.685525 0.186431 0.0301775 -0.684346 0.184536 0.0291327 -0.682225 
0.182194 0.0277843 -0.678982 0.179297 0.0260838 -0.674483 0.175726 0.0239882 -0.668646 
0.171364 0.0214626 -0.661443 0.166107 0.0184843 -0.652895 0.159885 0.0150449 -0.643064 
0.152669 0.0111531 -0.632043 0.144485 0.00683597 -0.61994 0.135416 0.0021387 -0.606867 
0.1256 -0.0028759 -0.592931 0.115222 -0.00812975 -0.578225 0.104502 -0.0135326 -0.562822 
0.0936713 -0.0189862 -0.546778 0.0829525 -0.0243883 -0.530133 0.0725384 -0.0296377 -0.512914 
0.0625711 -0.0346381 -0.495143 0.0531281 -0.039302 -0.476836 0.0442147 -0.0435535 -0.458015 
0.0357649 -0.0473298 -0.438703 0.0276503 -0.0505825 -0.418924 0.0196974 -0.053277 -0.398702 
0.0117104 -0.0553915 -0.378055 0.00349717 -0.0569159 -0.35699 -0.0051032 -0.0578496 -0.335499 
-0.0141965 -0.0582006 -0.313557 -0.023814 -0.0579833 -0.291121 -0.0339016 -0.0572181 -0.268136 
-0.0443168 -0.0559312 -0.244537 -0.0548361 -0.0541541 -0.220263 -0.0651708 -0.0519244 -0.195266 
-0.0749897 -0.0492864 -0.169521 -0.0839467 -0.0462908 -0.143038 -0.0917102 -0.0429954 -0.11587 
-0.0979907 -0.0394644 -0.0881132 -0.102565 -0.0357668 -0.05991 -0.105294 -0.0319748 -0.0314404 
-0.106129 -0.0281618 -0.00291226 -0.105118 -0.0243988 0.0254521 -0.102391 -0.0207523 0.0534322 
-0.0981502 -0.0172814 0.0808251 -0.0926492 -0.0140354 0.10746 -0.0861676 -0.0110531 0.13321 
-0.0789898 -0.00836173 0.157998 -0.0713827 -0.00597748 0.181798 -0.0635785 -0.00390713 0.204633 
-0.0557628 -0.0021498 0.226564 -0.0480678 -0.000699441 0.247682 -0.0405723 0.000452685 0.268089 
-0.0333062 0.00131577 0.287888 -0.0262596 0.00189774 0.307169 -0.0193939 0.00220437 0.326001 
-0.0126539 0.00223909 0.344423 -0.00597913 0.00200383 0.362448 0.000685901 0.00150035 0.380064 
0.00738461 0.000732169 0.39724 0.0141438 -0.00029353 0.413937 0.0209717 -0.00156407 0.430118 
0.027859 -0.00306007 0.445756 0.0347804 -0.00475494 0.460842 0.0416981 -0.00661529 0.475387 
0.0485654 -0.00860219 0.489425 0.0553297 -0.0106733 0.503005 0.0619349 -0.0127853 0.516188 
0.0683239 -0.0148971 0.529034 0.0744396 -0.0169718 0.541594 0.0802267 -0.0189796 0.5539 
0.0856329 -0.0208987 0.565959 0.0906109 -0.0227161 0.577747 0.0951207 -0.0244268 0.589212 
0.0991324 -0.0260325 0.600276 0.10263 -0.0275396 0.610843 0.105614 -0.0289563 0.62081 
0.108103 -0.0302903 0.630076 0.110136 -0.0315466 0.638555 0.111773 -0.0327256 0.646186 
0.113088 -0.0338231 0.652938 0.114168 -0.0348297 0.658813 0.115106 -0.0357328 0.663846 
0.115991 -0.0365181 0.668101 0.116905 -0.0371724 0.671662 0.117906 -0.0376857 0.674624 
0.119033 -0.0380542 0.677087 0.120294 -0.0382812 0.679139 0.121667 -0.0383783 0.680857 
0.123105 -0.0383646 0.682299 0.124537 -0.038266 0.683501 0.12588 -0.0381121 0.684482 
0.127046 -0.0379337 0.685246 0.127952 -0.0377594 0.685787 0.128532 -0.0376124 0.686095 
0.128743 -0.0375078 0.686164 
LINES 2 100
OFFSETS vtktypeint64
0 100 
CONNECTIVITY vtktypeint64
0 1 2 3 4 5 6 7 8 
9 10 11 12 13 14 15 16 17 
18 19 20 21 22 23 24 25 26 
27 28 29 30 31 32 33 34 35 
36 37 38 39 40 41 42 43 44 
45 46 47 48 49 50 51 52 53 
54 55 56 57 58 59 60 61 62 
63 64 65 66 67 68 69 70 71 
72 73 74 75 76 77 78 79 80 
81 82 83 84 85 86 87 88 89 
90 91 92 93 94 95 96 97 98 
99 
POINT_DATA 100
FIELD FieldData 3
_theta 1 100 double
0 0.031733259127 0.063466518254 0.095199777382 0.12693303651 0.15866629564 0.19039955476 0.22213281389 0.25386607302 
0.28559933214 0.31733259127 0.3490658504 0.38079910953 0.41253236865 0.44426562778 0.47599888691 0.50773214603 0.53946540516 
0.57119866429 0.60293192342 0.63466518254 0.66639844167 0.6981317008 0.72986495992 0.76159821905 0.79333147818 0.82506473731 
0.85679799643 0.88853125556 0.92026451469 0.95199777382 0.98373103294 1.0154642921 1.0471975512 1.0789308103 1.1106640695 
1.1423973286 1.1741305877 1.2058638468 1.237597106 1.2693303651 1.3010636242 1.3327968833 1.3645301425 1.3962634016 
1.4279966607 1.4597299198 1.491463179 1.5231964381 1.5549296972 1.5866629564 1.6183962155 1.6501294746 1.6818627337 
1.7135959929 1.745329252 1.7770625111 1.8087957702 1.8405290294 1.8722622885 1.9039955476 1.9357288068 1.9674620659 
1.999195325 2.0309285841 2.0626618433 2.0943951024 2.1261283615 2.1578616206 2.1895948798 2.2213281389 2.253061398 
2.2847946572 2.3165279163 2.3482611754 2.3799944345 2.4117276937 2.4434609528 2.4751942119 2.506927471 2.5386607302 
2.5703939893 2.6021272484 2.6338605076 2.6655937667 2.6973270258 2.7290602849 2.7607935441 2.7925268032 2.8242600623 
2.8559933214 2.8877265806 2.9194598397 2.9511930988 2.982926358 3.0146596171 3.0463928762 3.0781261353 3.1098593945 
3.1415926536 
_radius 1 100 double
1.0019195752e-15 0.016027150508 0.031987866955 0.047815434886 0.063430362593 0.078734176462 0.093604845812 0.10789548599 0.12143781848 
0.13405105641 0.1455556926 0.15579048799 0.16463013804 0.17200082783 0.17789119827 0.18235703505 0.18551906369 0.18755433833 
0.18868257639 0.18914921189 0.18920687874 0.18909667542 0.18903024169 0.18917369499 0.18963488255 0.19045587558 0.19161255852 
0.19302211302 0.19455743603 0.19606600583 0.19739022715 0.19838683075 0.19894380696 0.19899397991 0.1985244951 0.19758138776 
0.19626824521 0.19473791558 0.19317680351 0.19178352077 0.19074703573 0.19023065683 0.1903647117 0.19124552902 0.19293615002 
0.19546577376 0.19882763534 0.20297687989 0.20783055425 0.21327117454 0.21915398958 0.22531705779 0.23159313268 0.23782256192 
0.24386612533 0.24961602477 0.25500288184 0.25999711711 0.26460428969 0.26885535233 0.27279387467 0.27646279962 0.27989308659 
0.28309579986 0.28605822138 0.28874379354 0.29109526608 0.29304023789 0.29449821284 0.2953882644 0.29563641624 0.29518189899 
0.29398153858 0.29201168673 0.28926735335 0.2857585691 0.28150447539 0.27652612472 0.27083934435 0.26444913544 0.25734686443 
0.24951095735 0.24091104117 0.23151468617 0.22129532802 0.2102397788 0.19835401639 0.18566651767 0.17222897836 0.15811459535 
0.14341415852 0.12823021932 0.11266978621 0.096836349888 0.080822368744 0.064703424773 0.048534991342 0.032352208888 0.01617244886 
3.6117719103e-16 
_area 1 100 double
0 0.00060082544104 0.0024141743099 0.0054671384035 0.0097862851009 0.015370864095 0.022161076823 0.030010247883 0.038670176088 
0.047795904425 0.056971404568 0.06575277529 0.073721341536 0.080536207907 0.08597521222 0.089955505984 0.092529992578 0.093862204182 
0.094187810545 0.093774113895 0.092888676042 0.091784289246 0.090700708913 0.089876815274 0.089554205625 0.089890437252 0.090828112702 
0.092175372842 0.093694556692 0.095135651508 0.096269628989 0.096917694145 0.096977100589 0.096441039129 0.095406543683 0.094063659629 
0.092673499243 0.091554237425 0.09104635868 0.091414191539 0.092738076747 0.094869515744 0.097542815883 0.10052464831 0.10369272217 
0.10705612309 0.11073960431 0.11492960905 0.11979166723 0.12539938684 0.13172088112 0.1386610431 0.14611428184 0.15396912726 
0.16203852959 0.17003044715 0.17770602851 0.18485573451 0.19141598238 0.19741192216 0.20290500404 0.20798044795 0.21267002455 
0.21678789827 0.22008900102 0.22248341712 0.22417957879 0.22505229758 0.22518235623 0.22445155268 0.22281348711 0.22025555564 
0.21678189403 0.21240560241 0.20715085201 0.20105633559 0.19417096791 0.18654144499 0.17819995458 0.16916159653 0.15943507487 
0.14904281709 0.13804265272 0.12654276228 0.11470336673 0.10272254541 0.090809673454 0.079156647746 0.06792037108 0.057224118453 
0.047171724774 0.03786092815 0.029388142236 0.021846190766 0.015319775652 0.0098818890311 0.0055920451388 0.0024958992515 0.00062554767289 
1.680020435e-17 
