# vtk DataFile Version 5.1
vtk output
ASCII
DATASET POLYDATA
POINTS 100 float
0.148101 0.0693516 -0.632929 0.148208 0.0692242 -0.633575 0.148469 0.0689792 -0.635415 
0.148848 0.0686169 -0.638232 0.149294 0.0681365 -0.641686 0.149738 0.0675335 -0.645351 
0.150108 0.0667969 -0.648756 0.150327 0.0659062 -0.651429 0.150321 0.0648293 -0.652943 
0.150026 0.0635219 -0.652954 0.149385 0.0619283 -0.651225 0.148351 0.059984 -0.647641 
0.146885 0.05762 -0.642209 0.144948 0.0547686 -0.635046 0.142504 0.0513695 -0.626351 
0.139512 0.0473769 -0.616379 0.135927 0.0427651 -0.6054 0.131697 0.0375333 -0.593671 
0.126766 0.0317088 -0.581404 0.121083 0.0253477 -0.568749 0.114603 0.0185334 -0.555783 
0.107295 0.0113737 -0.542511 0.0991534 0.00399535 -0.528875 0.090198 -0.00346238 -0.514778 
0.0804826 -0.0108542 -0.500098 0.070093 -0.0180357 -0.48472 0.0591448 -0.0248697 -0.468553 
0.0477771 -0.0312313 -0.451542 0.0361434 -0.0370117 -0.433685 0.0244009 -0.0421207 -0.415024 
0.0126991 -0.0464881 -0.395646 0.00117 -0.0500642 -0.375661 -0.0100798 -0.0528187 -0.355188 
-0.0209731 -0.054741 -0.334337 -0.0314622 -0.0558387 -0.313192 -0.0415241 -0.0561368 -0.291794 
-0.0511529 -0.0556777 -0.270144 -0.0603486 -0.0545202 -0.248193 -0.0691056 -0.0527384 -0.225863 
-0.077401 -0.0504212 -0.203048 -0.0851859 -0.0476696 -0.179646 -0.0923803 -0.0445939 -0.155567 
-0.0988729 -0.0413099 -0.130759 -0.104526 -0.0379336 -0.105216 -0.109187 -0.0345761 -0.0789931 
-0.112698 -0.0313371 -0.0522012 -0.114918 -0.0283001 -0.0250051 -0.115737 -0.0255269 0.00239059 
-0.115087 -0.0230556 0.0297582 -0.112961 -0.0208985 0.0568666 -0.10941 -0.0190438 0.0835009 
-0.10455 -0.017459 0.109479 -0.0985509 -0.016096 0.134665 -0.0916231 -0.0148982 0.158976 
-0.0840027 -0.0138082 0.182381 -0.0759301 -0.0127753 0.204897 -0.0676301 -0.0117622 0.226576 
-0.0592941 -0.0107495 0.247497 -0.0510659 -0.00973879 0.267746 -0.0430343 -0.00875183 0.287402 
-0.0352307 -0.0078281 0.306533 -0.0276351 -0.00701941 0.325184 -0.0201864 -0.00638306 0.343375 
-0.012798 -0.00597408 0.361108 -0.00537527 -0.0058377 0.37837 0.002167 -0.00600286 0.395144 
0.00988905 -0.00647773 0.411418 0.017815 -0.00724776 0.427192 0.0259268 -0.00827648 0.442485 
0.0341645 -0.0095091 0.457337 0.0424317 -0.0108783 0.471806 0.0506062 -0.0123114 0.485964 
0.0585539 -0.0137386 0.499885 0.0661437 -0.0150999 0.513637 0.0732615 -0.0163517 0.52727 
0.0798221 -0.0174701 0.540805 0.0857765 -0.0184528 0.554232 0.0911146 -0.0193171 0.567505 
0.0958627 -0.0200961 0.580545 0.100076 -0.0208327 0.593245 0.103831 -0.0215726 0.605484 
0.107207 -0.0223573 0.617134 0.110284 -0.0232172 0.628076 0.113124 -0.0241674 0.638211 
0.115767 -0.0252052 0.647469 0.118228 -0.0263099 0.655811 0.1205 -0.0274461 0.663237 
0.122557 -0.0285681 0.669777 0.12436 -0.0296258 0.675488 0.125873 -0.0305721 0.680444 
0.127067 -0.0313685 0.684726 0.12793 -0.0319903 0.688413 0.128472 -0.0324297 0.691572 
0.128729 -0.0326958 0.694258 0.128757 -0.0328133 0.696505 0.128629 -0.0328181 0.698332 
0.128424 -0.0327518 0.699742 0.12822 -0.0326551 0.700731 0.12808 -0.032562 0.701292 
0.128046 -0.0324944 0.701418 
LINES 2 100
OFFSETS vtktypeint64
0 100 
CONNECTIVITY vtktypeint64
0 1 2 3 4 5 6 7 8 
9 10 11 12 13 14 15 16 17 
18 19 20 21 22 23 24 25 26 
27 28 29 30 31 32 33 34 35 
36 37 38 39 40 41 42 43 44 
45 46 47 48 49 50 51 52 53 
54 55 56 57 58 59 60 61 62 
63 64 65 66 67 68 69 70 71 
72 73 74 75 76 77 78 79 80 
81 82 83 84 85 86 87 88 89 
90 91 92 93 94 95 96 97 98 
99 
POINT_DATA 100
FIELD FieldData 3
_theta 1 100 double
0 0.031733259127 0.063466518254 0.095199777382 0.12693303651 0.15866629564 0.19039955476 0.22213281389 0.25386607302 
0.28559933214 0.31733259127 0.3490658504 0.38079910953 0.41253236865 0.44426562778 0.47599888691 0.50773214603 0.53946540516 
0.57119866429 0.60293192342 0.63466518254 0.66639844167 0.6981317008 0.72986495992 0.76159821905 0.79333147818 0.82506473731 
0.85679799643 0.88853125556 0.92026451469 0.95199777382 0.98373103294 1.0154642921 1.0471975512 1.0789308103 1.1106640695 
1.1423973286 1.1741305877 1.2058638468 1.237597106 1.2693303651 1.3010636242 1.3327968833 1.3645301425 1.3962634016 
1.4279966607 1.4597299198 1.491463179 1.5231964381 1.5549296972 1.5866629564 1.6183962155 1.6501294746 1.6818627337 
1.7135959929 1.745329252 1.7770625111 1.8087957702 1.8405290294 1.8722622885 1.9039955476 1.9357288068 1.9674620659 
1.999195325 2.0309285841 2.0626618433 2.0943951024 2.1261283615 2.1578616206 2.1895948798 2.2213281389 2.253061398 
2.2847946572 2.3165279163 2.3482611754 2.3799944345 2.4117276937 2.4434609528 2.4751942119 2.506927471 2.5386607302 
2.5703939893 2.6021272484 2.6338605076 2.6655937667 2.6973270258 2.7290602849 2.7607935441 2.7925268032 2.8242600623 
2.8559933214 2.8877265806 2.9194598397 2.9511930988 2.982926358 3.0146596171 3.0463928762 3.0781261353 3.1098593945 
3.1415926536 
_radius 1 100 double
1.3561233365e-15 0.017384672959 0.034599011132 0.051478196751 0.067866793017 0.083626019452 0.098640845741 0.11282469505 0.12612034271 
0.13849680794 0.14994305577 0.16045991181 0.1700517612 0.17871949591 0.18645593701 0.19324465356 0.19906268487 0.20388708112 
0.20770442687 0.21052175896 0.21237676751 0.21334506585 0.21354269055 0.21312275633 0.2122661714 0.21116733178 0.21001661265 
0.20898213446 0.20819356529 0.20773048434 0.20761703714 0.20782345259 0.20827383312 0.20885877943 0.20945096175 0.20992167658 
0.21015676221 0.21007091452 0.20961991213 0.20880987198 0.20770175151 0.20640918227 0.20508902273 0.20392606341 0.20311487999 
0.20284201226 0.20327035984 0.20452585417 0.20668557168 0.20976735202 0.21372296715 0.21843805986 0.22374103144 0.22942028348 
0.23524655078 0.24099592989 0.24646968155 0.25150822527 0.25599825518 0.25987322677 0.26310844356 0.26571254716 0.26771737104 
0.26916790553 0.27011363857 0.27060193013 0.27067351949 0.27035989904 0.26968217123 0.26865107382 0.26726797751 0.26552669502 
0.26341581404 0.26092099732 0.25802643253 0.25471461034 0.25096404416 0.24674535983 0.24201706695 0.23672288223 0.23079241944 
0.22414631506 0.21670560593 0.2084038181 0.1991992506 0.18908469023 0.17809233474 0.16629282188 0.15378860745 0.14070314124 
0.12716805905 0.11331079221 0.099244603512 0.085062228802 0.07083328337 0.056604728384 0.042403298191 0.028238913106 0.014108499583 
2.2152116894e-16 
_area 1 100 double
0 0.00055839919808 0.0022789467292 0.0052685645409 0.0096292523816 0.015394958408 0.02249646263 0.030755601543 0.039899833342 
0.049587693832 0.059438565604 0.069063217741 0.078093344001 0.086208412875 0.093157222463 0.098771006188 0.10296589912 0.10573521066 
0.10713543113 0.10727269007 0.10629637883 0.10440242006 0.10184197548 0.098926490956 0.096017280179 0.093481038777 0.091602068145 
0.090515619305 0.090225061096 0.090647163094 0.091646904864 0.093074456019 0.094793259959 0.096694404632 0.098704567359 0.1007860158 
0.10291797362 0.10506250781 0.10714231798 0.10905182061 0.11069275534 0.11201253471 0.11303161524 0.1138581934 0.11468319965 
0.11577882032 0.11725540094 0.11929780932 0.12212101015 0.12591424786 0.13078336697 0.13670741447 0.14353313767 0.15100344087 
0.15879964657 0.16658309653 0.17403133055 0.18086775618 0.18688269392 0.1919423823 0.19598465908 0.19900594136 0.20104871083 
0.20219560899 0.20258078621 0.20258048145 0.20210273756 0.20102369955 0.19928871579 0.19684920887 0.19367822828 0.18978620057 
0.18522984149 0.18010930931 0.17455143104 0.16868073649 0.16258545333 0.15629060342 0.14975011548 0.14286208041 0.13550113642 
0.12755694635 0.11896880801 0.10974947966 0.099993764472 0.089869815807 0.079594630773 0.069399968459 0.05949932733 0.050066824219 
0.041232483905 0.033090004517 0.025709508412 0.01914952339 0.013465240268 0.0087119938195 0.0049443188099 0.0022120332178 0.00055525806102 
4.5970172113e-17 
