# vtk DataFile Version 5.1
vtk output
ASCII
DATASET POLYDATA
POINTS 100 float
0.100783 0.0422986 -0.666356 0.100897 0.0422038 -0.666532 0.101291 0.0417728 -0.667046 
0.101944 0.0410218 -0.667738 0.102819 0.0399762 -0.668367 0.103869 0.0386686 -0.668632 
0.105032 0.0371363 -0.66821 0.10624 0.0354182 -0.666788 0.107412 0.033552 -0.664099 
0.108463 0.0315712 -0.659946 0.109302 0.0295022 -0.654224 0.109833 0.0273624 -0.646925 
0.109957 0.0251587 -0.638133 0.109578 0.022887 -0.628009 0.1086 0.0205331 -0.616771 
0.106935 0.0180738 -0.604662 0.104507 0.0154801 -0.591922 0.101254 0.0127198 -0.578762 
0.097135 0.00976212 -0.565339 0.0921337 0.0065818 -0.551748 0.0862613 0.00316304 -0.538011 
0.0795588 -0.000496615 -0.52409 0.072096 -0.00438337 -0.509895 0.063969 -0.00846538 -0.495304 
0.0552949 -0.0126923 -0.480188 0.0462044 -0.0169964 -0.464428 0.0368328 -0.0212947 -0.447938 
0.0273105 -0.0254934 -0.430675 0.0177534 -0.0294923 -0.412646 0.00825507 -0.0331912 -0.393902 
-0.00111857 -0.0364951 -0.374532 -0.0103316 -0.0393212 -0.35465 -0.019376 -0.0416034 -0.33437 
-0.0282664 -0.0432973 -0.313797 -0.0370307 -0.0443824 -0.293006 -0.0456987 -0.0448639 -0.272032 
-0.0542892 -0.0447719 -0.250872 -0.0627974 -0.044159 -0.22948 -0.0711848 -0.0430966 -0.207781 
-0.079372 -0.0416697 -0.185687 -0.0872368 -0.0399707 -0.163109 -0.0946172 -0.0380934 -0.13998 
-0.10132 -0.0361265 -0.116269 -0.107134 -0.0341482 -0.0919894 -0.111848 -0.0322216 -0.0672088 
-0.115268 -0.0303916 -0.0420433 -0.117239 -0.0286834 -0.0166503 -0.117658 -0.0271026 0.00878509 
-0.116487 -0.0256372 0.0340685 -0.11376 -0.024261 0.0590146 -0.109584 -0.0229375 0.0834648 
-0.104129 -0.0216254 0.107301 -0.0976168 -0.0202836 0.130454 -0.0903003 -0.0188768 0.152907 
-0.0824457 -0.0173799 0.174687 -0.0743082 -0.0157814 0.195859 -0.0661131 -0.0140859 0.216511 
-0.0580393 -0.0123151 0.236733 -0.0502088 -0.0105067 0.256608 -0.0426825 -0.00871267 0.276192 
-0.0354632 -0.00699586 0.295507 -0.0285043 -0.0054255 0.314539 -0.0217237 -0.00407225 0.333238 
-0.0150209 -0.00300295 0.351531 -0.00829401 -0.00227547 0.369325 -0.00145673 -0.00193416 0.386532 
0.00554902 -0.00200621 0.403077 0.0127448 -0.00249919 0.418916 0.0201129 -0.00339999 0.434041 
0.0275994 -0.00467527 0.448486 0.0351218 -0.0062734 0.462325 0.0425806 -0.00812765 0.475665 
0.049872 -0.0101606 0.488634 0.0569011 -0.0122894 0.501363 0.0635926 -0.0144309 0.513971 
0.0698982 -0.016508 0.526553 0.0757995 -0.0184538 0.53916 0.0813061 -0.0202168 0.551798 
0.0864491 -0.021763 0.56442 0.0912722 -0.0230787 0.576935 0.0958197 -0.0241694 0.589209 
0.100127 -0.0250595 0.601085 0.104208 -0.0257883 0.612393 0.108055 -0.0264068 0.62297 
0.111631 -0.0269718 0.63267 0.114877 -0.027541 0.641381 0.117719 -0.0281673 0.649032 
0.120079 -0.0288937 0.655593 0.121886 -0.0297492 0.661084 0.123093 -0.0307459 0.66556 
0.123686 -0.0318774 0.66911 0.123691 -0.0331197 0.671846 0.123177 -0.0344322 0.673892 
0.122256 -0.0357616 0.675378 0.121069 -0.0370461 0.676423 0.11978 -0.0382209 0.677138 
0.118554 -0.0392234 0.677616 0.117545 -0.0399987 0.677929 0.116874 -0.0405044 0.67813 
0.116621 -0.0407138 0.678248 
LINES 2 100
OFFSETS vtktypeint64
0 100 
CONNECTIVITY vtktypeint64
0 1 2 3 4 5 6 7 8 
9 10 11 12 13 14 15 16 17 
18 19 20 21 22 23 24 25 26 
27 28 29 30 31 32 33 34 35 
36 37 38 39 40 41 42 43 44 
45 46 47 48 49 50 51 52 53 
54 55 56 57 58 59 60 61 62 
63 64 65 66 67 68 69 70 71 
72 73 74 75 76 77 78 79 80 
81 82 83 84 85 86 87 88 89 
90 91 92 93 94 95 96 97 98 
99 
POINT_DATA 100
FIELD FieldData 3
_theta 1 100 double
0 0.031733259127 0.063466518254 0.095199777382 0.12693303651 0.15866629564 0.19039955476 0.22213281389 0.25386607302 
0.28559933214 0.31733259127 0.3490658504 0.38079910953 0.41253236865 0.44426562778 0.47599888691 0.50773214603 0.53946540516 
0.57119866429 0.60293192342 0.63466518254 0.66639844167 0.6981317008 0.72986495992 0.76159821905 0.79333147818 0.82506473731 
0.85679799643 0.88853125556 0.92026451469 0.95199777382 0.98373103294 1.0154642921 1.0471975512 1.0789308103 1.1106640695 
1.1423973286 1.1741305877 1.2058638468 1.237597106 1.2693303651 1.3010636242 1.3327968833 1.3645301425 1.3962634016 
1.4279966607 1.4597299198 1.491463179 1.5231964381 1.5549296972 1.5866629564 1.6183962155 1.6501294746 1.6818627337 
1.7135959929 1.745329252 1.7770625111 1.8087957702 1.8405290294 1.8722622885 1.9039955476 1.9357288068 1.9674620659 
1.999195325 2.0309285841 2.0626618433 2.0943951024 2.1261283615 2.1578616206 2.1895948798 2.2213281389 2.253061398 
2.2847946572 2.3165279163 2.3482611754 2.3799944345 2.4117276937 2.4434609528 2.4751942119 2.506927471 2.5386607302 
2.5703939893 2.6021272484 2.6338605076 2.6655937667 2.6973270258 2.7290602849 2.7607935441 2.7925268032 2.8242600623 
2.8559933214 2.8877265806 2.9194598397 2.9511930988 2.982926358 3.0146596171 3.0463928762 3.0781261353 3.1098593945 
3.1415926536 
_radius 1 100 double
8.2488244578e-16 0.015093901018 0.030025521591 0.044639177827 0.058797626619 0.072392032345 0.085350721753 0.097644399937 0.10928570463 
0.12032178738 0.13081986123 0.14084734874 0.15045023652 0.15963479581 0.16835787974 0.17652893969 0.1840234216 0.19070403004 
0.19644485194 0.2011536256 0.20478874429 0.20736907592 0.20897593302 0.20974745478 0.20986633493 0.20954233514 0.20899142026 
0.20841368107 0.20797251726 0.20777780427 0.20787570883 0.20824707451 0.20881481589 0.20945904273 0.21003738905 0.21040758236 
0.21044947134 0.21008414612 0.20928821435 0.20810176517 0.20662911807 0.20503208562 0.20351617225 0.20231089293 0.20164609463 
0.20172665527 0.20270829108 0.20467754682 0.2076391347 0.21151307836 0.21614245591 0.22131056296 0.22676484684 0.23224422932 
0.23750621364 0.2423503142 0.24663490876 0.2502856072 0.25329450374 0.25571099938 0.2576260417 0.25915247118 0.26040456246 
0.26147972099 0.26244464994 0.26332728942 0.26411472759 0.26475638766 0.26517128998 0.26525807091 0.26490655552 0.26400982694 
0.26247576337 0.26023689824 0.25725730957 0.25353527064 0.24910080335 0.24400814269 0.23832427927 0.23211581131 0.22543686439 
0.2183205591 0.21077549162 0.20278732406 0.19432435854 0.18534526703 0.17580707445 0.16567191446 0.15491174966 0.14351093793 
0.13146706901 0.11879079708 0.10550541096 0.091646630049 0.077262700731 0.062414498885 0.047175209561 0.031629282398 0.015870602258 
3.4400076453e-16 
_area 1 100 double
0 0.00051251228984 0.0020694286772 0.0047101280301 0.0084512424238 0.013247682242 0.018977551918 0.025454545043 0.032459108022 
0.039774983797 0.047218682275 0.054653202052 0.061981979618 0.069123915555 0.075976671439 0.082384074648 0.088127709722 0.092952471305 
0.096617002914 0.09894957241 0.099891983079 0.099521629387 0.098049712661 0.095799685579 0.093172130254 0.090598897203 0.088483928195 
0.08713521992 0.086713207641 0.087216866919 0.08850352111 0.090332221084 0.092418993015 0.094490037209 0.09632587753 0.097797459007 
0.098901509826 0.099808504119 0.10080429794 0.10194511281 0.10309367951 0.10416683233 0.10518498544 0.10624402573 0.10748333017 
0.10908049554 0.11124724195 0.1142026427 0.11812463917 0.12309432041 0.12905684804 0.13581661288 0.14306560069 0.15043304515 
0.15754401891 0.16407542063 0.16979813842 0.17459726112 0.17846848887 0.1814955269 0.1838170441 0.18559163272 0.18696655773 
0.18805336835 0.18891210816 0.18954553808 0.18990372875 0.18989620833 0.18940570879 0.18830034062 0.18644845987 0.18373945836 
0.18010566109 0.1755395662 0.17010335963 0.16392689047 0.15718955767 0.15008556246 0.14278040718 0.13537428541 0.12788798311 
0.12027638082 0.11246088483 0.10436592687 0.095948196035 0.087214116765 0.078225610951 0.069095613989 0.059975126579 0.051034514223 
0.042443405474 0.034354569569 0.026896162992 0.020173473349 0.014277091024 0.0092916872169 0.0053000788691 0.0023805474526 0.00059905701829 
3.6963078542e-17 
