# vtk DataFile Version 5.1
vtk output
ASCII
DATASET POLYDATA
POINTS 100 float
0.139101 0.0331985 -0.690586 0.139044 0.0332587 -0.690426 0.138956 0.0332578 -0.689977 
0.138812 0.0331865 -0.68919 0.138575 0.0330283 -0.687988 0.138192 0.0327581 -0.686277 
0.137599 0.032342 -0.683953 0.136718 0.0317368 -0.680915 0.135467 0.0308911 -0.677072 
0.133759 0.0297475 -0.672355 0.131506 0.0282457 -0.666716 0.128629 0.0263275 -0.660138 
0.125057 0.0239417 -0.652623 0.12074 0.0210508 -0.644197 0.115645 0.017636 -0.634895 
0.109768 0.0137024 -0.624759 0.10313 0.00928229 -0.613826 0.0957824 0.00443632 -0.602123 
0.0877996 -0.000747595 -0.589662 0.0792794 -0.00615784 -0.576442 0.070335 -0.011665 -0.562442 
0.061088 -0.0171297 -0.547634 0.0516599 -0.0224112 -0.531983 0.0421637 -0.0273771 -0.515459 
0.0326961 -0.0319112 -0.49804 0.0233308 -0.0359216 -0.479718 0.014115 -0.0393448 -0.460509 
0.0050675 -0.0421487 -0.440446 -0.00381953 -0.0443318 -0.419583 -0.0125758 -0.0459199 -0.397988 
-0.0212456 -0.0469608 -0.375737 -0.029879 -0.0475168 -0.352907 -0.0385207 -0.0476565 -0.329566 
-0.0471999 -0.0474469 -0.30577 -0.0559209 -0.0469464 -0.281556 -0.0646549 -0.0461991 -0.25694 
-0.0733358 -0.0452323 -0.231921 -0.0818586 -0.0440551 -0.206485 -0.0900824 -0.0426608 -0.180613 
-0.0978364 -0.0410311 -0.154291 -0.10493 -0.039141 -0.127519 -0.111163 -0.0369663 -0.100319 
-0.116344 -0.0344893 -0.0727457 -0.120298 -0.0317051 -0.0448873 -0.122884 -0.0286262 -0.016866 
-0.124006 -0.0252843 0.0111659 -0.123617 -0.0217317 0.0390337 -0.121726 -0.0180386 0.066551 
-0.118398 -0.0142899 0.0935327 -0.113748 -0.0105799 0.119807 -0.107934 -0.00700615 0.14523 
-0.101145 -0.00366303 0.169692 -0.0935906 -0.000636014 0.193126 -0.0854839 0.00200347 0.215511 
-0.0770302 0.00420167 0.236868 -0.0684146 0.00592449 0.257258 -0.0597932 0.00715797 0.276769 
-0.0512866 0.00790702 0.295509 -0.0429776 0.00819313 0.313594 -0.034912 0.00805103 0.331137 
-0.0271031 0.00752494 0.348236 -0.0195376 0.00666479 0.364972 -0.0121851 0.00552265 0.381404 
-0.00500638 0.00414979 0.397563 0.00203748 0.00259435 0.413465 0.0089771 0.000899835 0.429104 
0.015829 -0.000895707 0.444467 0.022592 -0.00275996 0.459532 0.0292458 -0.00466616 0.474282 
0.0357528 -0.00659262 0.488703 0.0420612 -0.00852219 0.502787 0.0481099 -0.0104416 0.516536 
0.0538351 -0.0123411 0.529954 0.0591762 -0.0142134 0.543051 0.0640816 -0.0160537 0.555831 
0.0685135 -0.0178591 0.568293 0.0724512 -0.0196272 0.580423 0.0758928 -0.0213565 0.592194 
0.0788546 -0.0230446 0.603563 0.0813694 -0.024688 0.614473 0.0834834 -0.0262812 0.624856 
0.0852519 -0.0278161 0.634636 0.0867346 -0.0292818 0.643736 0.0879914 -0.0306649 0.652086 
0.0890781 -0.0319501 0.659626 0.0900434 -0.0331213 0.666312 0.0909265 -0.0341629 0.672126 
0.0917561 -0.0350617 0.677068 0.0925503 -0.0358087 0.681166 0.0933174 -0.0364002 0.68447 
0.0940576 -0.0368395 0.68705 0.0947648 -0.0371371 0.688991 0.0954284 -0.0373104 0.69039 
0.0960356 -0.0373834 0.691348 0.0965728 -0.0373841 0.691965 0.0970273 -0.0373432 0.692335 
0.0973875 -0.0372907 0.692542 0.0976444 -0.0372538 0.692657 0.0977912 -0.037254 0.692729 
0.0978237 -0.0373053 0.692791 
LINES 2 100
OFFSETS vtktypeint64
0 100 
CONNECTIVITY vtktypeint64
0 1 2 3 4 5 6 7 8 
9 10 11 12 13 14 15 16 17 
18 19 20 21 22 23 24 25 26 
27 28 29 30 31 32 33 34 35 
36 37 38 39 40 41 42 43 44 
45 46 47 48 49 50 51 52 53 
54 55 56 57 58 59 60 61 62 
63 64 65 66 67 68 69 70 71 
72 73 74 75 76 77 78 79 80 
81 82 83 84 85 86 87 88 89 
90 91 92 93 94 95 96 97 98 
99 
POINT_DATA 100
FIELD FieldData 3
_theta 1 100 double
0 0.031733259127 0.063466518254 0.095199777382 0.12693303651 0.15866629564 0.19039955476 0.22213281389 0.25386607302 
0.28559933214 0.31733259127 0.3490658504 0.38079910953 0.41253236865 0.44426562778 0.47599888691 0.50773214603 0.53946540516 
0.57119866429 0.60293192342 0.63466518254 0.66639844167 0.6981317008 0.72986495992 0.76159821905 0.79333147818 0.82506473731 
0.85679799643 0.88853125556 0.92026451469 0.95199777382 0.98373103294 1.0154642921 1.0471975512 1.0789308103 1.1106640695 
1.1423973286 1.1741305877 1.2058638468 1.237597106 1.2693303651 1.3010636242 1.3327968833 1.3645301425 1.3962634016 
1.4279966607 1.4597299198 1.491463179 1.5231964381 1.5549296972 1.5866629564 1.6183962155 1.6501294746 1.6818627337 
1.7135959929 1.745329252 1.7770625111 1.8087957702 1.8405290294 1.8722622885 1.9039955476 1.9357288068 1.9674620659 
1.999195325 2.0309285841 2.0626618433 2.0943951024 2.1261283615 2.1578616206 2.1895948798 2.2213281389 2.253061398 
2.2847946572 2.3165279163 2.3482611754 2.3799944345 2.4117276937 2.4434609528 2.4751942119 2.506927471 2.5386607302 
2.5703939893 2.6021272484 2.6338605076 2.6655937667 2.6973270258 2.7290602849 2.7607935441 2.7925268032 2.8242600623 
2.8559933214 2.8877265806 2.9194598397 2.9511930988 2.982926358 3.0146596171 3.0463928762 3.0781261353 3.1098593945 
3.1415926536 
_radius 1 100 double
5.5528495756e-16 0.016254400706 0.032402606395 0.048329084224 0.063912720612 0.079026707251 0.093540793486 0.10732573968 0.12025924106 
0.13223226425 0.14315474908 0.15295991939 0.16160686575 0.16908145377 0.17539586727 0.18058717491 0.18471523608 0.18786010475 
0.19011894399 0.19160240129 0.19243044437 0.19272777617 0.19261905338 0.19222414864 0.19165361718 0.19100443974 0.1903561412 
0.189767591 0.18927508594 0.18889248411 0.18861400972 0.18841986435 0.18828411065 0.18818362844 0.18810641733 0.18805726147 
0.1880589867 0.18814850815 0.18836870437 0.18875936701 0.18935173261 0.19016994452 0.19123919593 0.19259638866 0.19429747569 
0.19641696992 0.19903827589 0.20223702961 0.20606228513 0.21052117484 0.21557122627 0.22112162712 0.22704195036 0.2331753589 
0.23935322667 0.24540885061 0.25118886701 0.25656179219 0.26142365947 0.26570099705 0.26935142412 0.27236204695 0.27474575922 
0.27653560768 0.27777760222 0.27852266303 0.27881867916 0.27870377197 0.27820172129 0.27732010813 0.27605114019 0.27437453854 
0.2722614879 0.26967861867 0.2665912703 0.26296572969 0.25877055094 0.25397730103 0.24856109318 0.24250111849 0.2357811879 
0.22839017007 0.2203222162 0.2115767703 0.20215848985 0.19207726168 0.18134845149 0.1699933859 0.1580398913 0.14552258781 
0.13248263686 0.11896679438 0.10502587442 0.090712963775 0.076081828015 0.061185863018 0.046077716371 0.030809442825 0.015432889226 
2.9437734136e-16 
_area 1 100 double
0 0.00059943804888 0.0024014924791 0.0054111011769 0.0096170153444 0.01496905122 0.021359121637 0.028613470798 0.036498358917 
0.044736849248 0.053031762519 0.061089241297 0.068638626062 0.075446872378 0.08132820089 0.086150879401 0.089842702559 0.092395376261 
0.093866541681 0.094377610784 0.094106476754 0.093275603835 0.092135336808 0.090936887787 0.089887425562 0.089109998725 0.08865490074 
0.088542263573 0.088781030636 0.089337769238 0.090102199757 0.090942297502 0.091772700827 0.092580665625 0.093426238017 0.094420763011 
0.095687984474 0.097322029516 0.099355865146 0.10174706811 0.10438487008 0.10712005518 0.10981217015 0.11237840715 0.11482480905 
0.11725615711 0.11987273713 0.12294021582 0.12672584031 0.1314271129 0.13712370409 0.14376391047 0.15117951394 0.1591182685 
0.16728373285 0.17537290227 0.1831046535 0.19023652863 0.19657188389 0.20196235243 0.20631099682 0.20957869013 0.21179077512 
0.21303605681 0.21345026509 0.21318483257 0.21237422588 0.2111154643 0.2094608682 0.20741837424 0.20495688595 0.20201689702 
0.19852538117 0.1944114205 0.18961852595 0.18411182083 0.17788075844 0.17093860026 0.16331947325 0.15507408295 0.14626552486 
0.13696611531 0.12725517851 0.11721725638 0.10694057988 0.096516393019 0.086040062318 0.075614258273 0.065353031422 0.055384388462 
0.045849146701 0.036895393049 0.028669678909 0.021307176843 0.014923208309 0.0096080268538 0.0054257524043 0.0024171681604 0.00060503938233 
6.3778289915e-17 
