# vtk DataFile Version 5.1
vtk output
ASCII
DATASET POLYDATA
POINTS 100 float
0.162233 -0.0159392 0.705949 0.162242 -0.0159567 0.705787 0.162161 -0.0161556 0.705427 
0.161948 -0.0164988 0.704863 0.161534 -0.0169294 0.704082 0.160845 -0.0173783 0.70306 
0.159807 -0.0177728 0.701758 0.158363 -0.0180454 0.700116 0.156483 -0.0181422 0.698056 
0.154172 -0.0180296 0.69548 0.151469 -0.0176984 0.692278 0.148445 -0.0171645 0.688328 
0.145195 -0.0164668 0.683514 0.141822 -0.0156619 0.677732 0.138427 -0.0148168 0.670905 
0.135086 -0.0140001 0.662988 0.131842 -0.0132728 0.653982 0.128697 -0.0126805 0.643933 
0.125603 -0.0122474 0.632933 0.12247 -0.0119724 0.621112 0.119172 -0.0118297 0.608631 
0.115564 -0.0117714 0.595663 0.111494 -0.0117339 0.582383 0.10683 -0.0116458 0.568947 
0.101469 -0.0114377 0.555481 0.0953564 -0.0110516 0.542066 0.0884894 -0.0104496 0.528735 
0.0809221 -0.0096197 0.51547 0.0727578 -0.00858004 0.502205 0.0641384 -0.00737835 0.488837 
0.0552273 -0.00608881 0.475237 0.0461914 -0.00480559 0.461265 0.0371825 -0.00363397 0.446785 
0.0283208 -0.00268007 0.43168 0.0196843 -0.00204034 0.415857 0.0113036 -0.00179191 0.399261 
0.00316403 -0.00198496 0.381868 -0.00478601 -0.00263785 0.36369 -0.0126208 -0.0037356 0.344759 
-0.0204198 -0.0052319 0.325124 -0.0282495 -0.00705425 0.304837 -0.0361457 -0.00911183 0.283942 
-0.0441011 -0.0113051 0.262469 -0.0520578 -0.013536 0.240427 -0.0599061 -0.0157181 0.217803 
-0.0674919 -0.0177845 0.194569 -0.0746284 -0.0196943 0.170682 -0.0811134 -0.0214355 0.146103 
-0.0867492 -0.0230245 0.120798 -0.0913612 -0.0245033 0.0947594 -0.0948149 -0.0259327 0.0680052 
-0.0970278 -0.0273842 0.0405915 -0.0979749 -0.0289302 0.012612 -0.0976877 -0.0306346 -0.0158041 
-0.0962468 -0.0325431 -0.0444983 -0.0937688 -0.0346765 -0.0732927 -0.0903897 -0.0370246 -0.102001 
-0.0862478 -0.0395448 -0.130443 -0.0814668 -0.0421624 -0.158453 -0.0761429 -0.0447742 -0.185891 
-0.0703368 -0.0472551 -0.212651 -0.0640712 -0.0494656 -0.238659 -0.0573352 -0.051262 -0.263874 
-0.0500934 -0.0525057 -0.288287 -0.0422989 -0.0530734 -0.311907 -0.0339087 -0.0528646 -0.334759 
-0.0248989 -0.0518093 -0.356872 -0.0152769 -0.049872 -0.378276 -0.0050904 -0.0470538 -0.398992 
0.00556917 -0.0433922 -0.419033 0.0165688 -0.0389583 -0.438402 0.0277415 -0.033852 -0.457098 
0.0388975 -0.0281955 -0.475115 0.0498393 -0.0221258 -0.49245 0.0603762 -0.0157867 -0.509107 
0.0703387 -0.00932094 -0.525096 0.07959 -0.00286249 -0.540439 0.0880328 0.00346956 -0.555166 
0.0956123 0.00957597 -0.569311 0.102314 0.0153806 -0.582907 0.108158 0.0208319 -0.595981 
0.113191 0.0259023 -0.608545 0.117474 0.0305866 -0.620596 0.121074 0.0348981 -0.632106 
0.124058 0.0388646 -0.643031 0.126481 0.0425227 -0.653307 0.12839 0.0459127 -0.66286 
0.129822 0.0490733 -0.671614 0.130807 0.0520371 -0.679498 0.131376 0.054827 -0.686459 
0.131562 0.0574538 -0.692469 0.131409 0.059915 -0.697529 0.130977 0.0621956 -0.701671 
0.130335 0.0642696 -0.70496 0.12957 0.0661028 -0.707483 0.12877 0.0676567 -0.709343 
0.128028 0.0688922 -0.710649 0.127426 0.0697739 -0.711501 0.127031 0.0702736 -0.711979 
0.126886 0.0703736 -0.712137 
LINES 2 100
OFFSETS vtktypeint64
0 100 
CONNECTIVITY vtktypeint64
0 1 2 3 4 5 6 7 8 
9 10 11 12 13 14 15 16 17 
18 19 20 21 22 23 24 25 26 
27 28 29 30 31 32 33 34 35 
36 37 38 39 40 41 42 43 44 
45 46 47 48 49 50 51 52 53 
54 55 56 57 58 59 60 61 62 
63 64 65 66 67 68 69 70 71 
72 73 74 75 76 77 78 79 80 
81 82 83 84 85 86 87 88 89 
90 91 92 93 94 95 96 97 98 
99 
POINT_DATA 100
FIELD FieldData 3
_theta 1 100 double
0 0.031733259127 0.063466518254 0.095199777382 0.12693303651 0.15866629564 0.19039955476 0.22213281389 0.25386607302 
0.28559933214 0.31733259127 0.3490658504 0.38079910953 0.41253236865 0.44426562778 0.47599888691 0.50773214603 0.53946540516 
0.57119866429 0.60293192342 0.63466518254 0.66639844167 0.6981317008 0.72986495992 0.76159821905 0.79333147818 0.82506473731 
0.85679799643 0.88853125556 0.92026451469 0.95199777382 0.98373103294 1.0154642921 1.0471975512 1.0789308103 1.1106640695 
1.1423973286 1.1741305877 1.2058638468 1.237597106 1.2693303651 1.3010636242 1.3327968833 1.3645301425 1.3962634016 
1.4279966607 1.4597299198 1.491463179 1.5231964381 1.5549296972 1.5866629564 1.6183962155 1.6501294746 1.6818627337 
1.7135959929 1.745329252 1.7770625111 1.8087957702 1.8405290294 1.8722622885 1.9039955476 1.9357288068 1.9674620659 
1.999195325 2.0309285841 2.0626618433 2.0943951024 2.1261283615 2.1578616206 2.1895948798 2.2213281389 2.253061398 
2.2847946572 2.3165279163 2.3482611754 2.3799944345 2.4117276937 2.4434609528 2.4751942119 2.506927471 2.5386607302 
2.5703939893 2.6021272484 2.6338605076 2.6655937667 2.6973270258 2.7290602849 2.7607935441 2.7925268032 2.8242600623 
2.8559933214 2.8877265806 2.9194598397 2.9511930988 2.982926358 3.0146596171 3.0463928762 3.0781261353 3.1098593945 
3.1415926536 
_radius 1 100 double
2.7757743935e-16 0.014817475296 0.029655795297 0.044531477107 0.059441442577 0.074355955343 0.089214938789 0.10392822993 0.11837975664 
0.13243510014 0.14595157817 0.15878985896 0.17082605351 0.18196310281 0.1921400969 0.20133809463 0.20958122989 0.21693246717 
0.22348425559 0.22934536463 0.23462611122 0.23942469483 0.24381718132 0.24785276587 0.25155455721 0.25492476153 0.25795229092 
0.26062069519 0.26291477575 0.26482493573 0.26634894466 0.26749123392 0.26826011921 0.26866352785 0.2687039349 0.26837332862 
0.26764916613 0.26649242008 0.26484885059 0.26265440185 0.2598449972 0.25637001438 0.25220758734 0.24737897343 0.24195890248 
0.23607927348 0.22992471847 0.22372013755 0.21771193913 0.21214597764 0.20724568057 0.20319337448 0.20011649097 0.19807873669 
0.19707528688 0.19703125184 0.19780397225 0.19919108339 0.20094638344 0.20280378958 0.20450690183 0.20583945273 0.20665123151 
0.20687495847 0.20653145135 0.20572261265 0.20461379853 0.20340865814 0.20232028533 0.20154242453 0.20122378142 0.20144768904 
0.20221879115 0.20345797204 0.20500622065 0.20663732157 0.20807827299 0.2090352758 0.20922218576 0.20838773135 0.20633784671 
0.20295023915 0.19817962522 0.19205360086 0.18466054161 0.17613202035 0.16662283599 0.15629178726 0.14528580884 0.13372913113 
0.12171799285 0.1093204657 0.096580394145 0.083524306213 0.070170158188 0.056536665976 0.042651723466 0.028558267076 0.014316225963 
1.089760947e-15 
_area 1 100 double
0 0.00054715819017 0.0021919009263 0.0049428308143 0.008810496129 0.013802260441 0.019915648304 0.027129776538 0.035394005872 
0.044613772712 0.054636759464 0.065246630002 0.076171977158 0.0871126587 0.09777813314 0.10792799154 0.11740494765 0.1261530742 
0.13421684423 0.1417191898 0.14882092359 0.15567074822 0.16236184095 0.16891071402 0.17526385894 0.18132479632 0.18698766393 
0.19216467989 0.19679995923 0.20086830848 0.20436330377 0.20728279614 0.20961994665 0.211362509 0.21249535732 0.21299848922 
0.21283782933 0.2119533978 0.21025234968 0.20761292274 0.20390254844 0.19900997424 0.19288639565 0.18558562842 0.17729107545 
0.1683186161 0.15908802293 0.15006051747 0.1416530864 0.13416496296 0.12775375098 0.12245555486 0.11821906783 0.11493960783 
0.11249301306 0.11077046966 0.10970176108 0.10923011783 0.10924215063 0.10952954268 0.10979294519 0.10970225001 0.10900303696 
0.10760166292 0.1055883295 0.10320177988 0.1007630374 0.098605669272 0.097013291974 0.096172895104 0.096156083215 0.096943455069 
0.098449149758 0.10053450857 0.10301580427 0.10566532389 0.10821247605 0.11035053282 0.11175317228 0.11210290554 0.11112916162 
0.10864837456 0.10459514799 0.099034940153 0.092154291337 0.084231638903 0.07559711106 0.066591461572 0.057532386521 0.048692289974 
0.04028741105 0.032476093736 0.025364399606 0.019018677056 0.013484349823 0.0088066980082 0.0050454315346 0.0022756243285 0.00057435275555 
3.1438576786e-17 
