# vtk DataFile Version 5.1
vtk output
ASCII
DATASET POLYDATA
POINTS 100 float
0.115693 -0.0278882 0.721889 0.11576 -0.0278473 0.721601 0.115866 -0.0278826 0.720929 
0.115989 -0.0279925 0.719902 0.116096 -0.0281724 0.718557 0.116147 -0.0284139 0.716933 
0.1161 -0.0287036 0.715061 0.115921 -0.0290227 0.712952 0.11558 -0.0293467 0.710592 
0.115061 -0.0296457 0.707936 0.114361 -0.0298859 0.70491 0.113483 -0.0300311 0.701412 
0.11244 -0.0300454 0.697325 0.111239 -0.0298957 0.692528 0.109883 -0.0295544 0.686908 
0.108363 -0.0290016 0.680372 0.106651 -0.0282264 0.672863 0.104697 -0.0272279 0.664361 
0.102438 -0.0260147 0.654889 0.0997925 -0.0246035 0.644508 0.0966746 -0.0230176 0.633311 
0.0930007 -0.0212841 0.621409 0.0887009 -0.019432 0.60892 0.0837293 -0.0174899 0.595951 
0.0780725 -0.0154842 0.58259 0.071755 -0.0134394 0.568896 0.0648409 -0.0113774 0.554893 
0.0574308 -0.00931898 0.540572 0.0496538 -0.00728559 0.525897 0.0416568 -0.00530087 0.510816 
0.0335895 -0.00339242 0.495271 0.0255898 -0.00159287 0.479209 0.017769 5.99763e-05 0.462597 
0.0102004 0.00152405 0.445425 0.00291096 0.00275503 0.42771 -0.0041203 0.00370932 0.409492 
-0.0109589 0.00434748 0.390829 -0.0177054 0.00463787 0.371784 -0.0244806 0.00455977 0.352409 
-0.0314081 0.00410559 0.332739 -0.0385943 0.00328164 0.312774 -0.0461098 0.00210737 0.292475 
-0.0539734 0.000612933 0.271764 -0.0621411 -0.00116465 0.250529 -0.0705014 -0.00318617 0.228634 
-0.0788776 -0.00541528 0.205937 -0.0870377 -0.007823 0.18231 -0.0947101 -0.0103911 0.157652 
-0.101604 -0.0131135 0.131917 -0.107434 -0.0159959 0.105117 -0.111943 -0.0190523 0.0773307 
-0.114923 -0.0223002 0.0487055 -0.116237 -0.025754 0.0194435 -0.115824 -0.0294171 -0.010212 
-0.113707 -0.0332747 -0.0399981 -0.109988 -0.0372881 -0.069655 -0.104837 -0.0413902 -0.098949 
-0.098477 -0.045485 -0.127691 -0.0911582 -0.0494498 -0.15575 -0.08314 -0.0531405 -0.183058 
-0.0746656 -0.0564012 -0.20961 -0.0659432 -0.0590742 -0.235451 -0.0571308 -0.0610123 -0.260661 
-0.0483273 -0.0620905 -0.285336 -0.0395705 -0.0622162 -0.309569 -0.0308419 -0.0613371 -0.333425 
-0.0220771 -0.0594446 -0.356936 -0.0131812 -0.0565745 -0.380083 -0.00404697 -0.0528026 -0.402807 
0.00542664 -0.0482374 -0.425007 0.015317 -0.0430097 -0.446558 0.0256637 -0.0372611 -0.467328 
0.0364591 -0.031132 -0.487199 0.0476441 -0.0247512 -0.506078 0.0591101 -0.018228 -0.523919 
0.0707062 -0.0116472 -0.54072 0.0822505 -0.00506822 -0.556532 0.0935451 0.0014726 -0.571442 
0.104392 0.00795609 -0.585565 0.114609 0.0143728 -0.599019 0.124044 0.0207142 -0.611908 
0.132586 0.0269648 -0.6243 0.14017 0.0330959 -0.636214 0.14678 0.0390613 -0.647611 
0.152448 0.0447978 -0.658396 0.157244 0.0502276 -0.668425 0.16127 0.055265 -0.677525 
0.164644 0.0598245 -0.685519 0.16749 0.0638307 -0.692246 0.169925 0.0672276 -0.697595 
0.172053 0.0699864 -0.701522 0.17395 0.0721102 -0.704062 0.175668 0.0736361 -0.70534 
0.17723 0.0746324 -0.70556 0.178636 0.0751919 -0.70499 0.179865 0.075423 -0.703936 
0.180884 0.0754377 -0.702712 0.181657 0.0753394 -0.701609 0.182151 0.0752116 -0.700859 
0.182343 0.0751077 -0.700611 
LINES 2 100
OFFSETS vtktypeint64
0 100 
CONNECTIVITY vtktypeint64
0 1 2 3 4 5 6 7 8 
9 10 11 12 13 14 15 16 17 
18 19 20 21 22 23 24 25 26 
27 28 29 30 31 32 33 34 35 
36 37 38 39 40 41 42 43 44 
45 46 47 48 49 50 51 52 53 
54 55 56 57 58 59 60 61 62 
63 64 65 66 67 68 69 70 71 
72 73 74 75 76 77 78 79 80 
81 82 83 84 85 86 87 88 89 
90 91 92 93 94 95 96 97 98 
99 
POINT_DATA 100
FIELD FieldData 3
_theta 1 100 double
0 0.031733259127 0.063466518254 0.095199777382 0.12693303651 0.15866629564 0.19039955476 0.22213281389 0.25386607302 
0.28559933214 0.31733259127 0.3490658504 0.38079910953 0.41253236865 0.44426562778 0.47599888691 0.50773214603 0.53946540516 
0.57119866429 0.60293192342 0.63466518254 0.66639844167 0.6981317008 0.72986495992 0.76159821905 0.79333147818 0.82506473731 
0.85679799643 0.88853125556 0.92026451469 0.95199777382 0.98373103294 1.0154642921 1.0471975512 1.0789308103 1.1106640695 
1.1423973286 1.1741305877 1.2058638468 1.237597106 1.2693303651 1.3010636242 1.3327968833 1.3645301425 1.3962634016 
1.4279966607 1.4597299198 1.491463179 1.5231964381 1.5549296972 1.5866629564 1.6183962155 1.6501294746 1.6818627337 
1.7135959929 1.745329252 1.7770625111 1.8087957702 1.8405290294 1.8722622885 1.9039955476 1.9357288068 1.9674620659 
1.999195325 2.0309285841 2.0626618433 2.0943951024 2.1261283615 2.1578616206 2.1895948798 2.2213281389 2.253061398 
2.2847946572 2.3165279163 2.3482611754 2.3799944345 2.4117276937 2.4434609528 2.4751942119 2.506927471 2.5386607302 
2.5703939893 2.6021272484 2.6338605076 2.6655937667 2.6973270258 2.7290602849 2.7607935441 2.7925268032 2.8242600623 
2.8559933214 2.8877265806 2.9194598397 2.9511930988 2.982926358 3.0146596171 3.0463928762 3.0781261353 3.1098593945 
3.1415926536 
_radius 1 100 double
2.0313308214e-16 0.016807088724 0.033511519848 0.050019430689 0.066245996198 0.08211874903 0.097579877388 0.11258716616 0.12711321765 
0.14114261828 0.15466694122 0.16767805155 0.18016109779 0.19208934605 0.20342279721 0.21411101979 0.22409879947 0.23333240196 
0.24176476345 0.24935900974 0.25609058033 0.26194859684 0.2669370195 0.27107577644 0.27440164426 0.27696837255 0.27884546305 
0.28011514171 0.28086736182 0.28119307898 0.2811764464 0.28088688097 0.28037207583 0.2796529795 0.27872158008 0.27754207165 
0.27605564153 0.27418867756 0.27186367438 0.26901162028 0.26558432435 0.26156509915 0.25697643622 0.2518836851 0.24639415367 
0.24065146562 0.23482552592 0.2290991178 0.22365283262 0.21865035747 0.21422588083 0.21047473975 0.20744787751 0.20515036744 
0.20354396553 0.20255318762 0.20207387324 0.20198292262 0.20214817623 0.20243819695 0.20273240359 0.20293183787 0.20296976734 
0.20282017314 0.20250185203 0.20207651295 0.20164041357 0.20131031773 0.20120559366 0.20142896791 0.20204878908 0.20308559216 
0.20450509645 0.2062185069 0.2080894896 0.20994599611 0.21159458302 0.212835034 0.21347367652 0.21333444471 0.21226722891 
0.21015330963 0.20690779589 0.20247914407 0.19684613242 0.19001305685 0.18200420684 0.17285869497 0.16262642019 0.15136549538 
0.13914106728 0.12602520599 0.11209740119 0.097445100199 0.08216367565 0.066355336803 0.050126890152 0.033586835047 0.0168427571 
3.0311989032e-16 
_area 1 100 double
0 0.00074901616704 0.0029636544705 0.0065510289834 0.011370414596 0.01725293515 0.024026081402 0.031539681535 0.039688604929 
0.048426052833 0.057760534853 0.067731747571 0.078368298093 0.089641912718 0.10143878812 0.11356058872 0.12575131094 0.13773569691 
0.14925489357 0.1600908011 0.17007688411 0.17909801965 0.18708473583 0.19400756462 0.19987470031 0.20473178714 0.20865957276 
0.21176549511 0.21416846368 0.21598028854 0.21729004731 0.21815692872 0.21861241371 0.21866625517 0.21830618409 0.21748388583 
0.21609547732 0.21398182142 0.21096148945 0.206880783 0.20166034424 0.1953268359 0.18802418676 0.18000307938 0.17159089092 
0.16314662591 0.15500807823 0.14744309717 0.14062043283 0.13461089731 0.12941368495 0.12498728054 0.12126476922 0.11814876477 
0.11550210727 0.11316537158 0.11100615928 0.10895382027 0.10698985643 0.10512162 0.10336873337 0.10175978763 0.10031912019 
0.09904021585 0.097869175528 0.096723643803 0.09554031116 0.094315711858 0.093124336703 0.092117466659 0.091507569381 0.091549357155 
0.092527115633 0.094569184717 0.097595870896 0.10108849577 0.10461744158 0.10783849397 0.11044715576 0.11217042145 0.11277467649 
0.11208375579 0.10999421931 0.10647890464 0.1015783697 0.095386303219 0.088037111653 0.079701453275 0.070589928861 0.060959508886 
0.051114724141 0.041397333911 0.032162769767 0.02374674357 0.016429226754 0.010404913923 0.0057692705241 0.0025270730618 0.00062496175848 
9.8105432083e-17 
