# vtk DataFile Version 5.1
vtk output
ASCII
DATASET POLYDATA
POINTS 100 float
0.199584 0.0655225 -0.671909 0.199351 0.065696 -0.671804 0.198724 0.0660444 -0.671483 
0.197696 0.0665196 -0.670867 0.196253 0.0670442 -0.669841 0.194379 0.0675157 -0.668262 
0.192053 0.0678129 -0.66598 0.189256 0.0678033 -0.662856 0.185964 0.0673518 -0.658779 
0.182157 0.0663301 -0.653678 0.177814 0.0646259 -0.64753 0.172917 0.062152 -0.64036 
0.16745 0.0588536 -0.632238 0.161397 0.0547142 -0.623265 0.154749 0.0497586 -0.613561 
0.147498 0.0440539 -0.603245 0.139642 0.0377056 -0.59242 0.131189 0.0308533 -0.581161 
0.122152 0.0236609 -0.569502 0.112559 0.0163071 -0.557436 0.102446 0.00897361 -0.544914 
0.0918663 0.00183301 -0.531854 0.080886 -0.00496171 -0.518155 0.0695832 -0.0112863 -0.503705 
0.0580462 -0.0170515 -0.488403 0.0463702 -0.0222057 -0.47217 0.0346522 -0.0267348 -0.454958 
0.0229864 -0.0306578 -0.436753 0.0114588 -0.0340202 -0.417583 0.000142998 -0.0368849 -0.397505 
-0.010903 -0.0393224 -0.3766 -0.0216382 -0.041401 -0.354962 -0.032038 -0.0431782 -0.332687 
-0.0420912 -0.0446942 -0.309859 -0.0517951 -0.0459681 -0.286543 -0.0611491 -0.0469978 -0.262785 
-0.0701474 -0.0477618 -0.238607 -0.0787718 -0.0482248 -0.214015 -0.0869856 -0.0483443 -0.18901 
-0.094729 -0.0480786 -0.163592 -0.101918 -0.0473941 -0.137777 -0.108446 -0.0462719 -0.111606 
-0.114187 -0.0447125 -0.0851491 -0.119007 -0.0427375 -0.0585083 -0.12277 -0.0403892 -0.0318174 
-0.125353 -0.0377274 -0.0052327 -0.126657 -0.0348245 0.0210774 -0.126615 -0.0317589 0.0469459 
-0.125204 -0.0286087 0.0722212 -0.122448 -0.0254456 0.0967801 -0.118418 -0.02233 0.120538 
-0.113231 -0.0193089 0.143452 -0.107043 -0.0164149 0.165525 -0.100033 -0.0136686 0.186798 
-0.0923965 -0.0110819 0.20734 -0.0843285 -0.00866292 0.227239 -0.0760099 -0.00642122 0.246584 
-0.0675966 -0.0043724 0.265454 -0.0592113 -0.00254131 0.283908 -0.0509385 -0.0009634 0.301976 
-0.0428243 0.000316369 0.319658 -0.0348804 0.00124691 0.336928 -0.0270907 0.00177641 0.353741 
-0.0194217 0.00185904 0.370045 -0.0118332 0.00146221 0.385792 -0.00428879 0.000573288 0.400954 
0.00323431 -0.000795096 0.415528 0.0107385 -0.00260206 0.429548 0.0182022 -0.00477827 0.44308 
0.0255795 -0.00722873 0.456224 0.0328034 -0.00983857 0.469098 0.039792 -0.0124811 0.481832 
0.0464561 -0.0150275 0.494545 0.0527086 -0.017357 0.507332 0.0584724 -0.0193667 0.520254 
0.0636876 -0.0209797 0.533318 0.068317 -0.0221508 0.546485 0.0723476 -0.0228694 0.559658 
0.0757906 -0.0231591 0.5727 0.0786781 -0.0230741 0.585438 0.081058 -0.0226931 0.597685 
0.0829874 -0.0221112 0.609255 0.0845267 -0.0214308 0.61998 0.0857331 -0.0207527 0.629727 
0.0866563 -0.0201672 0.638407 0.0873362 -0.019748 0.645985 0.0878015 -0.0195468 0.652473 
0.0880722 -0.019592 0.657932 0.0881618 -0.0198877 0.662458 0.0880816 -0.0204167 0.666169 
0.0878449 -0.0211435 0.669195 0.0874702 -0.0220191 0.671662 0.086984 -0.0229865 0.673681 
0.0864214 -0.0239852 0.675342 0.0858247 -0.0249556 0.67671 0.0852411 -0.0258432 0.677825 
0.0847188 -0.0266006 0.678708 0.0843018 -0.0271897 0.679363 0.0840258 -0.0275827 0.679787 
0.0839137 -0.0277629 0.679975 
LINES 2 100
OFFSETS vtktypeint64
0 100 
CONNECTIVITY vtktypeint64
0 1 2 3 4 5 6 7 8 
9 10 11 12 13 14 15 16 17 
18 19 20 21 22 23 24 25 26 
27 28 29 30 31 32 33 34 35 
36 37 38 39 40 41 42 43 44 
45 46 47 48 49 50 51 52 53 
54 55 56 57 58 59 60 61 62 
63 64 65 66 67 68 69 70 71 
72 73 74 75 76 77 78 79 80 
81 82 83 84 85 86 87 88 89 
90 91 92 93 94 95 96 97 98 
99 
POINT_DATA 100
FIELD FieldData 3
_theta 1 100 double
0 0.031733259127 0.063466518254 0.095199777382 0.12693303651 0.15866629564 0.19039955476 0.22213281389 0.25386607302 
0.28559933214 0.31733259127 0.3490658504 0.38079910953 0.41253236865 0.44426562778 0.47599888691 0.50773214603 0.53946540516 
0.57119866429 0.60293192342 0.63466518254 0.66639844167 0.6981317008 0.72986495992 0.76159821905 0.79333147818 0.82506473731 
0.85679799643 0.88853125556 0.92026451469 0.95199777382 0.98373103294 1.0154642921 1.0471975512 1.0789308103 1.1106640695 
1.1423973286 1.1741305877 1.2058638468 1.237597106 1.2693303651 1.3010636242 1.3327968833 1.3645301425 1.3962634016 
1.4279966607 1.4597299198 1.491463179 1.5231964381 1.5549296972 1.5866629564 1.6183962155 1.6501294746 1.6818627337 
1.7135959929 1.745329252 1.7770625111 1.8087957702 1.8405290294 1.8722622885 1.9039955476 1.9357288068 1.9674620659 
1.999195325 2.0309285841 2.0626618433 2.0943951024 2.1261283615 2.1578616206 2.1895948798 2.2213281389 2.253061398 
2.2847946572 2.3165279163 2.3482611754 2.3799944345 2.4117276937 2.4434609528 2.4751942119 2.506927471 2.5386607302 
2.5703939893 2.6021272484 2.6338605076 2.6655937667 2.6973270258 2.7290602849 2.7607935441 2.7925268032 2.8242600623 
2.8559933214 2.8877265806 2.9194598397 2.9511930988 2.982926358 3.0146596171 3.0463928762 3.0781261353 3.1098593945 
3.1415926536 
_radius 1 100 double
1.5553031891e-15 0.016167101065 0.032117366565 0.047647518763 0.062584114969 0.076789780533 0.090162515911 0.10263031232 0.11414438207 
0.12467376895 0.13420259346 0.14272959858 0.15026856593 0.15684783886 0.16250771829 0.16729573464 0.17126121919 0.17445144775 
0.17691134254 0.17868732787 0.1798340932 0.1804216011 0.18053930107 0.18029530258 0.17980992674 0.17920501431 0.17859186054 
0.17806096105 0.17767567607 0.1774700941 0.17744996002 0.177595317 0.17786436727 0.17819920153 0.17853459517 0.1788104107 
0.17898625102 0.17905466874 0.17904785959 0.17903375261 0.17910145392 0.17934191202 0.17983339267 0.18063871079 0.18181349509 
0.18341823704 0.18552540319 0.18821573014 0.19156285432 0.19561078082 0.20035227761 0.20571631289 0.21156905973 0.21772779256 
0.22398297984 0.23012262255 0.23595390322 0.24131897662 0.24610337621 0.25023706926 0.25368964637 0.25646200052 0.25857679476 
0.2600692966 0.2609793794 0.26134510602 0.26119831904 0.26056272336 0.25945470994 0.25788657026 0.25587105374 0.25342578779 
0.25057610806 0.24735527252 0.24380165958 0.23995320727 0.23583996299 0.2314761224 0.22685322339 0.22193607655 0.21666251055 
0.21094723698 0.20468937243 0.19778262437 0.1901269009 0.18164003808 0.17226833216 0.16199459037 0.15084254437 0.13887679276 
0.1261979773 0.11293357965 0.099225423196 0.085215538967 0.071032392182 0.056779486475 0.042528032703 0.028314725253 0.014144835623 
1.0647785876e-15 
_area 1 100 double
0 0.00054272876885 0.0021723816104 0.0048931285143 0.0087036489096 0.013573490767 0.019413702232 0.026058602075 0.033267417314 
0.040745519643 0.048179720784 0.055278727845 0.061808302342 0.0676117502 0.072610202168 0.076783323232 0.080139057749 0.082687794677 
0.084435575743 0.085399934469 0.085637616885 0.085265687646 0.084460171182 0.083427639745 0.082360213185 0.081394835847 0.080595542488 
0.079964703777 0.079476013425 0.079112784674 0.078890629962 0.07885069686 0.079030988342 0.079441699986 0.08006284114 0.08086045483 
0.081810392677 0.082920110502 0.084236800908 0.085830843141 0.087753260727 0.089986225178 0.092424830282 0.094914422259 0.097321208254 
0.099594020912 0.10179586423 0.10410766134 0.1068079335 0.11021270414 0.11456360926 0.11992951793 0.12620651415 0.13317961666 
0.14057983988 0.14812110332 0.15551823248 0.1625011632 0.1688422165 0.17437991272 0.17901949859 0.18271967086 0.18548356474 
0.18736039813 0.18844471225 0.18884053999 0.18859051093 0.18765751027 0.18597879999 0.18351257537 0.18025863697 0.17626914152 
0.17165026135 0.16654928106 0.16112694728 0.15552268159 0.14982511783 0.14405885596 0.13819059625 0.13214896549 0.12584799841 
0.11920632515 0.11215928876 0.1046650345 0.096707422415 0.08829960533 0.079491244246 0.070377877665 0.061105924683 0.051867095927 
0.042881665277 0.034375361052 0.026556112523 0.019595627724 0.013618852247 0.0087025094106 0.0048819716546 0.0021637684125 0.00053985735637 
3.1265640522e-17 
