# vtk DataFile Version 5.1
vtk output
ASCII
DATASET POLYDATA
POINTS 100 float
0.10141 -0.00875079 0.630605 0.101408 -0.0086909 0.63027 0.101362 -0.00862598 0.629405 
0.101265 -0.00856566 0.628016 0.101107 -0.00852433 0.626113 0.100871 -0.00851859 0.623707 
0.100543 -0.00856406 0.620806 0.100103 -0.00867222 0.617415 0.0995339 -0.00884759 0.613536 
0.0988162 -0.00908574 0.609163 0.0979319 -0.00937237 0.604286 0.0968631 -0.00968368 0.598892 
0.0955911 -0.00998799 0.592962 0.0940968 -0.0102484 0.586482 0.0923597 -0.010426 0.579438 
0.0903581 -0.010484 0.571823 0.0880691 -0.0103907 0.563638 0.0854698 -0.0101229 0.554891 
0.0825385 -0.00966792 0.545601 0.0792565 -0.00902442 0.535795 0.0756105 -0.00820237 0.525505 
0.0715948 -0.00722179 0.51477 0.0672127 -0.00611068 0.503627 0.0624783 -0.00490255 0.492113 
0.0574166 -0.00363372 0.48026 0.0520626 -0.00234107 0.468096 0.0464594 -0.00106017 0.455642 
0.0406553 0.000175727 0.442912 0.0346999 0.00133596 0.429915 0.0286396 0.002392 0.416659 
0.0225135 0.00331652 0.403145 0.0163495 0.00408229 0.389378 0.0101622 0.00466121 0.375361 
0.00395121 0.00502379 0.361098 -0.00229756 0.00513931 0.34659 -0.00860917 0.0049768 0.331838 
-0.015015 0.00450679 0.316837 -0.0215469 0.00370366 0.301574 -0.0282294 0.00254828 0.286025 
-0.0350732 0.00103071 0.270155 -0.0420682 -0.00084767 0.253915 -0.0491778 -0.00307276 0.237247 
-0.0563361 -0.00561744 0.220085 -0.0634467 -0.00844243 0.202358 -0.0703851 -0.0114984 0.184 
-0.0770039 -0.0147292 0.164953 -0.0831395 -0.0180752 0.145179 -0.0886227 -0.0214777 0.124659 
-0.0932885 -0.0248825 0.103406 -0.0969872 -0.0282427 0.0814606 -0.0995948 -0.0315209 0.0588944 
-0.101021 -0.0346896 0.0358069 -0.101216 -0.0377305 0.0123196 -0.100172 -0.0406325 -0.0114308 
-0.0979233 -0.0433884 -0.0353017 -0.0945437 -0.0459918 -0.059153 -0.0901386 -0.0484334 -0.0828558 
-0.0848367 -0.0506978 -0.106299 -0.0787798 -0.0527616 -0.129396 -0.0721126 -0.0545921 -0.152082 
-0.0649721 -0.0561486 -0.174319 -0.05748 -0.0573833 -0.196089 -0.0497359 -0.0582452 -0.21739 
-0.0418141 -0.058683 -0.238229 -0.0337628 -0.0586499 -0.258613 -0.0256066 -0.0581067 -0.278546 
-0.0173511 -0.0570253 -0.298024 -0.00898912 -0.0553908 -0.317029 -0.000508163 -0.0532021 -0.335529 
0.00810181 -0.0504715 -0.353482 0.0168416 -0.0472231 -0.370838 0.0256972 -0.0434905 -0.387546 
0.0346365 -0.0393141 -0.403555 0.0436073 -0.0347384 -0.418827 0.0525394 -0.0298096 -0.433332 
0.061347 -0.0245746 -0.44706 0.069934 -0.0190803 -0.460015 0.0782003 -0.0133746 -0.472215 
0.0860488 -0.00750728 -0.483689 0.0933916 -0.00153211 -0.494472 0.100156 0.00449143 -0.504596 
0.10629 0.0104969 -0.514091 0.111763 0.0164108 -0.522973 0.116569 0.0221532 -0.531248 
0.120724 0.0276404 -0.538906 0.124264 0.032789 -0.545928 0.127241 0.0375201 -0.552286 
0.129718 0.0417655 -0.557952 0.131763 0.0454728 -0.562903 0.133443 0.0486098 -0.567128 
0.134823 0.0511686 -0.570634 0.13596 0.053166 -0.573449 0.136899 0.0546436 -0.575624 
0.137676 0.0556636 -0.577229 0.138315 0.056304 -0.57835 0.13883 0.0566511 -0.579084 
0.139229 0.0567912 -0.579526 0.139515 0.0568027 -0.579764 0.139686 0.0567477 -0.579869 
0.139743 0.0566663 -0.579885 
LINES 2 100
OFFSETS vtktypeint64
0 100 
CONNECTIVITY vtktypeint64
0 1 2 3 4 5 6 7 8 
9 10 11 12 13 14 15 16 17 
18 19 20 21 22 23 24 25 26 
27 28 29 30 31 32 33 34 35 
36 37 38 39 40 41 42 43 44 
45 46 47 48 49 50 51 52 53 
54 55 56 57 58 59 60 61 62 
63 64 65 66 67 68 69 70 71 
72 73 74 75 76 77 78 79 80 
81 82 83 84 85 86 87 88 89 
90 91 92 93 94 95 96 97 98 
99 
POINT_DATA 100
FIELD FieldData 3
_theta 1 100 double
0 0.031733259127 0.063466518254 0.095199777382 0.12693303651 0.15866629564 0.19039955476 0.22213281389 0.25386607302 
0.28559933214 0.31733259127 0.3490658504 0.38079910953 0.41253236865 0.44426562778 0.47599888691 0.50773214603 0.53946540516 
0.57119866429 0.60293192342 0.63466518254 0.66639844167 0.6981317008 0.72986495992 0.76159821905 0.79333147818 0.82506473731 
0.85679799643 0.88853125556 0.92026451469 0.95199777382 0.98373103294 1.0154642921 1.0471975512 1.0789308103 1.1106640695 
1.1423973286 1.1741305877 1.2058638468 1.237597106 1.2693303651 1.3010636242 1.3327968833 1.3645301425 1.3962634016 
1.4279966607 1.4597299198 1.491463179 1.5231964381 1.5549296972 1.5866629564 1.6183962155 1.6501294746 1.6818627337 
1.7135959929 1.745329252 1.7770625111 1.8087957702 1.8405290294 1.8722622885 1.9039955476 1.9357288068 1.9674620659 
1.999195325 2.0309285841 2.0626618433 2.0943951024 2.1261283615 2.1578616206 2.1895948798 2.2213281389 2.253061398 
2.2847946572 2.3165279163 2.3482611754 2.3799944345 2.4117276937 2.4434609528 2.4751942119 2.506927471 2.5386607302 
2.5703939893 2.6021272484 2.6338605076 2.6655937667 2.6973270258 2.7290602849 2.7607935441 2.7925268032 2.8242600623 
2.8559933214 2.8877265806 2.9194598397 2.9511930988 2.982926358 3.0146596171 3.0463928762 3.0781261353 3.1098593945 
3.1415926536 
_radius 1 100 double
1.6737133152e-15 0.015122171858 0.030073112663 0.044698993273 0.058875435024 0.072516893572 0.085580630968 0.098064840393 0.11000139424 
0.12144448861 0.1324570129 0.14309671676 0.15340417484 0.16339417927 0.17305156817 0.18233175083 0.19116550309 0.19946712886 
0.20714485007 0.21411222708 0.22029942368 0.22566314608 0.23019410435 0.23392093351 0.23690976442 0.23925910731 0.24109037073 
0.24253505422 0.24372023287 0.24475422772 0.24571427101 0.24663761956 0.24751710773 0.24830167621 0.24890196405 0.24920054873 
0.24906586165 0.24836830358 0.24699678217 0.2448738566 0.24196785157 0.23830060455 0.23394988566 0.22904598755 0.22376254002 
0.2183022447 0.21287889748 0.20769772455 0.2029366729 0.19873172827 0.19516916629 0.19228632055 0.19007997034 0.18851887601 
0.18755580985 0.1871352733 0.18719543189 0.18766563505 0.18846313976 0.18949316886 0.1906546112 0.19185046003 0.19299957029 
0.19404589002 0.19496268934 0.19575123927 0.19643489912 0.19705033822 0.19763775896 0.19823172632 0.19885372701 0.1995070159 
0.2001737852 0.20081433536 0.20136780787 0.20175413198 0.20187701534 0.20162792699 0.20089100253 0.19954866502 0.19748758895 
0.19460452618 0.19081151156 0.18604006966 0.18024421011 0.17340216469 0.16551692923 0.15661570229 0.14674828059 0.13598443373 
0.12441029384 0.11212388003 0.099230006979 0.085834953064 0.072041351009 0.057943808397 0.043625772038 0.029158101744 0.01459966832 
8.4121703008e-16 
_area 1 100 double
0 0.00055419271021 0.0021947000412 0.0048582194568 0.0084484790543 0.012848539358 0.017935189878 0.023593142188 0.029726626851 
0.036266128687 0.043168467944 0.050409576347 0.057971264997 0.065825464208 0.073920646913 0.082174555513 0.090475185037 0.098689338423 
0.10667605304 0.11430138372 0.1214514782 0.12804221065 0.13402512714 0.13939033712 0.14416683684 0.1484197619 0.1522430363 
0.1557459257 0.15903377146 0.16218603404 0.16523690324 0.16816371099 0.17088627876 0.17327557752 0.17516905659 0.17642048074 
0.17691666852 0.17646885655 0.17503899176 0.17265458331 0.16912105994 0.16438597614 0.15859206109 0.15196589604 0.14479763586 
0.1374148795 0.13014878549 0.12329657658 0.11708661292 0.1116516088 0.10701336741 0.10308483024 0.099704436918 0.09670771137 
0.094002964807 0.091640139339 0.089729159904 0.088320455395 0.087423289175 0.086907528175 0.086663445894 0.086587974558 0.086597247636 
0.086623589467 0.086626251204 0.086596921345 0.086567024518 0.08660933229 0.086866850788 0.087451479355 0.088363593463 0.089599656007 
0.091113187181 0.092813810212 0.094579311383 0.096264237141 0.09770620069 0.098734159211 0.099179641936 0.098889501238 0.09773785782 
0.095635206216 0.092533799384 0.088429811527 0.08336359788 0.077419124478 0.070722508553 0.063438434677 0.055762969479 0.047912382994 
0.040109440483 0.032570031844 0.025492866116 0.019053174994 0.013399196749 0.0086495567332 0.0048912547003 0.0021801253754 0.00054572977151 
7.2858385991e-17 
