# vtk DataFile Version 5.1
vtk output
ASCII
DATASET POLYDATA
POINTS 100 float
0.18708 0.110758 -0.611717 0.186974 0.110672 -0.611465 0.18661 0.110206 -0.610688 
0.185972 0.109341 -0.609379 0.185038 0.108054 -0.607531 0.183781 0.106313 -0.605134 
0.18218 0.104085 -0.602182 0.180215 0.101336 -0.598672 0.177877 0.0980368 -0.594605 
0.175164 0.0941627 -0.58999 0.172085 0.0896997 -0.58484 0.16865 0.0846451 -0.579172 
0.164869 0.0790097 -0.573009 0.160747 0.0728188 -0.566371 0.156276 0.0661122 -0.559275 
0.15143 0.0589441 -0.551732 0.146169 0.051381 -0.543744 0.140433 0.0435009 -0.535299 
0.13415 0.03539 -0.526374 0.127245 0.0271411 -0.516932 0.119644 0.0188501 -0.506927 
0.111292 0.0106139 -0.496304 0.102156 0.00252792 -0.485 0.0922381 -0.00531592 -0.472958 
0.0815776 -0.0128311 -0.46012 0.0702537 -0.0199379 -0.446441 0.0583813 -0.0265644 -0.431887 
0.0461029 -0.0326476 -0.416439 0.0335773 -0.0381336 -0.400098 0.0209667 -0.0429789 -0.382877 
0.00842295 -0.0471505 -0.364811 -0.00392447 -0.0506265 -0.345944 -0.0159769 -0.0533967 -0.326332 
-0.0276704 -0.0554629 -0.306038 -0.0389744 -0.0568388 -0.285129 -0.049885 -0.0575504 -0.263671 
-0.0604137 -0.0576351 -0.241729 -0.0705733 -0.0571407 -0.219364 -0.0803625 -0.0561239 -0.196633 
-0.0897526 -0.0546483 -0.17359 -0.0986764 -0.0527815 -0.150285 -0.107024 -0.0505926 -0.126768 
-0.114644 -0.0481489 -0.103089 -0.12135 -0.0455131 -0.0793041 -0.126939 -0.042741 -0.055469 
-0.131208 -0.039879 -0.0316462 -0.133973 -0.0369638 -0.00790221 -0.135097 -0.0340217 0.015693 
-0.134503 -0.0310699 0.0390677 -0.13219 -0.028118 0.0621507 -0.128239 -0.0251706 0.0848733 
-0.122808 -0.0222304 0.107172 -0.116124 -0.0193012 0.128991 -0.108461 -0.0163904 0.150283 
-0.100121 -0.0135116 0.171011 -0.0914022 -0.0106856 0.191146 -0.082575 -0.00794036 0.210672 
-0.0738593 -0.00531005 0.229579 -0.0654067 -0.00283272 0.247867 -0.0572917 -0.000547137 0.26554 
-0.0495124 0.00151099 0.28261 -0.0419984 0.00331285 0.29909 -0.0346286 0.00484007 0.315 
-0.0272521 0.00608745 0.330362 -0.0197139 0.0070645 0.345202 -0.0118785 0.00779554 0.359552 
-0.00365074 0.0083182 0.373447 0.00500898 0.00868051 0.38693 0.0140779 0.00893671 0.400047 
0.0234717 0.00914222 0.412851 0.033054 0.00934841 0.425396 0.0426511 0.00959751 0.437737 
0.0520726 0.00991848 0.449926 0.0611325 0.0103241 0.462008 0.0696693 0.0108098 0.474018 
0.0775627 0.0113542 0.485976 0.0847441 0.0119217 0.497883 0.0912003 0.0124663 0.509722 
0.0969706 0.0129364 0.52145 0.102136 0.0132812 0.533008 0.106807 0.0134556 0.544313 
0.111104 0.0134252 0.555271 0.11514 0.0131707 0.565774 0.119009 0.0126891 0.575713 
0.122773 0.0119947 0.584981 0.126454 0.0111176 0.593483 0.130041 0.0101004 0.601142 
0.133488 0.00899374 0.607901 0.136731 0.00785204 0.613735 0.139697 0.00672779 0.618646 
0.142318 0.00566726 0.622667 0.144546 0.00470694 0.62586 0.146353 0.00387132 0.628311 
0.147745 0.00317234 0.630122 0.148755 0.0026103 0.631406 0.149437 0.00217622 0.632279 
0.149861 0.00185508 0.63285 0.150095 0.00162962 0.63321 0.150201 0.00148402 0.633433 
0.150219 0.00140702 0.633562 
LINES 2 100
OFFSETS vtktypeint64
0 100 
CONNECTIVITY vtktypeint64
0 1 2 3 4 5 6 7 8 
9 10 11 12 13 14 15 16 17 
18 19 20 21 22 23 24 25 26 
27 28 29 30 31 32 33 34 35 
36 37 38 39 40 41 42 43 44 
45 46 47 48 49 50 51 52 53 
54 55 56 57 58 59 60 61 62 
63 64 65 66 67 68 69 70 71 
72 73 74 75 76 77 78 79 80 
81 82 83 84 85 86 87 88 89 
90 91 92 93 94 95 96 97 98 
99 
POINT_DATA 100
FIELD FieldData 3
_theta 1 100 double
0 0.031733259127 0.063466518254 0.095199777382 0.12693303651 0.15866629564 0.19039955476 0.22213281389 0.25386607302 
0.28559933214 0.31733259127 0.3490658504 0.38079910953 0.41253236865 0.44426562778 0.47599888691 0.50773214603 0.53946540516 
0.57119866429 0.60293192342 0.63466518254 0.66639844167 0.6981317008 0.72986495992 0.76159821905 0.79333147818 0.82506473731 
0.85679799643 0.88853125556 0.92026451469 0.95199777382 0.98373103294 1.0154642921 1.0471975512 1.0789308103 1.1106640695 
1.1423973286 1.1741305877 1.2058638468 1.237597106 1.2693303651 1.3010636242 1.3327968833 1.3645301425 1.3962634016 
1.4279966607 1.4597299198 1.491463179 1.5231964381 1.5549296972 1.5866629564 1.6183962155 1.6501294746 1.6818627337 
1.7135959929 1.745329252 1.7770625111 1.8087957702 1.8405290294 1.8722622885 1.9039955476 1.9357288068 1.9674620659 
1.999195325 2.0309285841 2.0626618433 2.0943951024 2.1261283615 2.1578616206 2.1895948798 2.2213281389 2.253061398 
2.2847946572 2.3165279163 2.3482611754 2.3799944345 2.4117276937 2.4434609528 2.4751942119 2.506927471 2.5386607302 
2.5703939893 2.6021272484 2.6338605076 2.6655937667 2.6973270258 2.7290602849 2.7607935441 2.7925268032 2.8242600623 
2.8559933214 2.8877265806 2.9194598397 2.9511930988 2.982926358 3.0146596171 3.0463928762 3.0781261353 3.1098593945 
3.1415926536 
_radius 1 100 double
1.0299525297e-15 0.015152078058 0.030114704211 0.044714511869 0.058813015533 0.072316397317 0.085177575303 0.097390369049 0.10897711595 
0.11997234341 0.13040574316 0.14028759323 0.14959905177 0.15828869972 0.16627563615 0.1734585148 0.17972921657 0.18498938034 
0.18916774195 0.19223612529 0.19422194831 0.19521523668 0.19536843742 0.19488791397 0.19401699235 0.19301182761 0.19211303888 
0.19151767273 0.19135693593 0.19168446766 0.19247740403 0.19364903861 0.19506916818 0.19658726066 0.19805418401 0.19933966064 
0.20034430352 0.20100660574 0.20130611644 0.20126403763 0.20094199798 0.20043938995 0.19988955138 0.19945488267 0.19932030273 
0.19968323545 0.20073727452 0.20264739917 0.20551895853 0.20936967869 0.21411714554 0.21958774583 0.2255422802 0.23170855259 
0.23781323298 0.24360884854 0.24889394028 0.25352546893 0.25742328885 0.26056726479 0.26298832916 0.26475531096 0.26595960934 
0.26669972307 0.26706733937 0.26713622023 0.26695460046 0.2665413337 0.26588568352 0.26495048444 0.26367829971 0.26199999105 
0.2598446837 0.25714960846 0.25386806769 0.24997403447 0.24546261441 0.24034655382 0.23464989488 0.22840050339 0.2216233396 
0.21433595481 0.2065469011 0.19825681285 0.1894611775 0.18015350498 0.17032781451 0.15997996749 0.14910810377 0.13771293681 
0.12579868176 0.11337493445 0.10045917618 0.08707914041 0.073274267635 0.059095827622 0.044605756916 0.029874610921 0.014979152056 
6.570324296e-16 
_area 1 100 double
0 0.00059835332696 0.0023616936652 0.0052003039978 0.0089811355441 0.013547256707 0.018736430854 0.024394158334 0.030379325137 
0.03656364306 0.042827649052 0.049055748155 0.055131562157 0.060933896955 0.066333672354 0.071193094792 0.075369378684 0.078725344311 
0.08114758302 0.08256983284 0.082995995587 0.082515623956 0.081305874276 0.079617704795 0.077749602125 0.076013732114 0.074707562695 
0.07418026302 0.074331890807 0.07517132005 0.076691661679 0.078959804853 0.081886099224 0.085328311685 0.089124731381 0.093065944014 
0.096923014216 0.10048315082 0.10358761498 0.10616004805 0.10820854358 0.1097992933 0.11102380718 0.11198765921 0.11283551457 
0.11380477523 0.1151933136 0.11717263634 0.11989500464 0.12359573702 0.12864064038 0.13525021964 0.14289935807 0.15097514682 
0.15905256508 0.1668043644 0.17396604345 0.18033188404 0.18576273651 0.19019282067 0.19362758244 0.19613400269 0.19782913473 
0.19885202135 0.19928010459 0.19908346197 0.19820719255 0.19663039829 0.1943601476 0.1914088908 0.18778021235 0.18346739274 
0.17846230873 0.17277000762 0.16642349851 0.15949306515 0.15208491866 0.14432607514 0.13633834568 0.12821484615 0.12001444797 
0.11177235219 0.10351301278 0.095258377915 0.087031722738 0.078858584359 0.070766069012 0.062782102307 0.054936550271 0.047265611483 
0.039819004255 0.032667165569 0.025904906544 0.019649555591 0.014034083817 0.0091971360409 0.0052719283182 0.0023754301686 0.00059881973779 
4.1745967445e-17 
