# vtk DataFile Version 5.1
vtk output
ASCII
DATASET POLYDATA
POINTS 100 float
0.162237 0.058357 -0.626731 0.162455 0.0582362 -0.626891 0.163018 0.0580437 -0.627341 
0.163861 0.057763 -0.627965 0.164888 0.0573674 -0.628585 0.165976 0.0568218 -0.628978 
0.166982 0.0560846 -0.628902 0.16776 0.0551104 -0.628119 0.168166 0.0538523 -0.626423 
0.16807 0.0522648 -0.623654 0.167363 0.0503069 -0.619716 0.165959 0.0479445 -0.614582 
0.163799 0.0451525 -0.60829 0.16085 0.0419175 -0.600934 0.157102 0.0382383 -0.592652 
0.152566 0.0341275 -0.5836 0.147267 0.0296113 -0.573936 0.14124 0.0247291 -0.563799 
0.134532 0.0195325 -0.553291 0.127194 0.0140836 -0.54247 0.119282 0.00845319 -0.531342 
0.110859 0.00271775 -0.519868 0.101995 -0.0030426 -0.507969 0.0927654 -0.00874709 -0.495541 
0.0832532 -0.0143168 -0.48247 0.0735471 -0.0196773 -0.468648 0.063738 -0.0247602 -0.453988 
0.0539161 -0.0295055 -0.438435 0.0441646 -0.0338626 -0.421972 0.0345554 -0.037791 -0.404619 
0.025143 -0.041261 -0.386432 0.0159611 -0.0442535 -0.367489 0.00702102 -0.0467598 -0.347885 
-0.00168773 -0.048781 -0.327714 -0.0101933 -0.0503271 -0.307061 -0.0185348 -0.0514162 -0.28599 
-0.026753 -0.0520733 -0.264541 -0.0348805 -0.0523293 -0.242726 -0.0429302 -0.0522196 -0.220537 
-0.050887 -0.051783 -0.197949 -0.0587 -0.0510607 -0.174932 -0.0662802 -0.0500945 -0.151464 
-0.0735012 -0.0489259 -0.127539 -0.0802055 -0.047595 -0.103177 -0.0862145 -0.0461392 -0.0784312 
-0.091342 -0.0445922 -0.0533875 -0.0954102 -0.0429833 -0.0281637 -0.0982651 -0.0413365 -0.00290218 
-0.0997918 -0.0396707 0.0222396 -0.0999255 -0.0379992 0.0471003 -0.0986587 -0.0363303 0.071527 
-0.0960426 -0.0346678 0.0953856 -0.0921836 -0.0330122 0.11857 -0.0872341 -0.0313615 0.141006 
-0.0813786 -0.0297126 0.162655 -0.0748182 -0.0280629 0.183511 -0.0677536 -0.026411 0.203598 
-0.0603689 -0.0247583 0.222958 -0.0528189 -0.0231096 0.241647 -0.0452197 -0.0214733 0.259728 
-0.0376457 -0.0198618 0.27726 -0.0301305 -0.0182911 0.294296 -0.0226739 -0.0167802 0.310879 
-0.0152517 -0.0153498 0.327042 -0.00782939 -0.0140219 0.342812 -0.000374751 -0.012818 0.358209 
0.00712923 -0.0117579 0.373254 0.014675 -0.010859 0.387969 0.0222245 -0.0101353 0.402381 
0.0297087 -0.0095964 0.416523 0.0370305 -0.00924756 0.430431 0.0440732 -0.00908934 0.444144 
0.050711 -0.00911787 0.457693 0.0568219 -0.00932508 0.471102 0.0623002 -0.00969926 0.484382 
0.0670679 -0.0102256 0.497522 0.0710827 -0.0108866 0.510489 0.0743425 -0.011663 0.523231 
0.0768858 -0.012534 0.535673 0.0787874 -0.0134779 0.547726 0.0801512 -0.0144723 0.559291 
0.0810994 -0.015495 0.570267 0.0817616 -0.0165239 0.580563 0.0822629 -0.017538 0.590097 
0.0827141 -0.0185174 0.598811 0.083204 -0.0194442 0.606668 0.0837941 -0.0203028 0.613659 
0.0845179 -0.0210806 0.619799 0.0853816 -0.0217683 0.625125 0.0863687 -0.0223604 0.629689 
0.0874456 -0.0228551 0.633557 0.0885679 -0.0232543 0.636799 0.0896868 -0.0235634 0.639485 
0.0907548 -0.0237906 0.641678 0.0917293 -0.0239458 0.643435 0.0925753 -0.0240401 0.644803 
0.093266 -0.0240845 0.645818 0.0937827 -0.0240889 0.646507 0.0941132 -0.0240609 0.646887 
0.0942508 -0.0240054 0.64697 
LINES 2 100
OFFSETS vtktypeint64
0 100 
CONNECTIVITY vtktypeint64
0 1 2 3 4 5 6 7 8 
9 10 11 12 13 14 15 16 17 
18 19 20 21 22 23 24 25 26 
27 28 29 30 31 32 33 34 35 
36 37 38 39 40 41 42 43 44 
45 46 47 48 49 50 51 52 53 
54 55 56 57 58 59 60 61 62 
63 64 65 66 67 68 69 70 71 
72 73 74 75 76 77 78 79 80 
81 82 83 84 85 86 87 88 89 
90 91 92 93 94 95 96 97 98 
99 
POINT_DATA 100
FIELD FieldData 3
_theta 1 100 double
0 0.031733259127 0.063466518254 0.095199777382 0.12693303651 0.15866629564 0.19039955476 0.22213281389 0.25386607302 
0.28559933214 0.31733259127 0.3490658504 0.38079910953 0.41253236865 0.44426562778 0.47599888691 0.50773214603 0.53946540516 
0.57119866429 0.60293192342 0.63466518254 0.66639844167 0.6981317008 0.72986495992 0.76159821905 0.79333147818 0.82506473731 
0.85679799643 0.88853125556 0.92026451469 0.95199777382 0.98373103294 1.0154642921 1.0471975512 1.0789308103 1.1106640695 
1.1423973286 1.1741305877 1.2058638468 1.237597106 1.2693303651 1.3010636242 1.3327968833 1.3645301425 1.3962634016 
1.4279966607 1.4597299198 1.491463179 1.5231964381 1.5549296972 1.5866629564 1.6183962155 1.6501294746 1.6818627337 
1.7135959929 1.745329252 1.7770625111 1.8087957702 1.8405290294 1.8722622885 1.9039955476 1.9357288068 1.9674620659 
1.999195325 2.0309285841 2.0626618433 2.0943951024 2.1261283615 2.1578616206 2.1895948798 2.2213281389 2.253061398 
2.2847946572 2.3165279163 2.3482611754 2.3799944345 2.4117276937 2.4434609528 2.4751942119 2.506927471 2.5386607302 
2.5703939893 2.6021272484 2.6338605076 2.6655937667 2.6973270258 2.7290602849 2.7607935441 2.7925268032 2.8242600623 
2.8559933214 2.8877265806 2.9194598397 2.9511930988 2.982926358 3.0146596171 3.0463928762 3.0781261353 3.1098593945 
3.1415926536 
_radius 1 100 double
6.9447894592e-16 0.01602655032 0.031908748205 0.047511318701 0.062706406649 0.077377747573 0.091425349347 0.10477013185 0.11735744485 
0.12915815826 0.14016630105 0.15039298092 0.15985732044 0.16857609258 0.17655434213 0.1837793281 0.19021954716 0.19582950926 
0.20055960793 0.20436921017 0.20724029965 0.20918883128 0.21027141378 0.21058589307 0.21026561558 0.20946832779 0.20836156624 
0.20710685165 0.20584498291 0.2046843249 0.20369336926 0.20289819213 0.20228484576 0.20180624134 0.2013926988 0.20096503441 
0.20044881172 0.19978819033 0.19895768333 0.19797016406 0.19687981014 0.19577942563 0.19479260124 0.19406211143 0.19373644806 
0.19395627084 0.1948419429 0.19648264586 0.1989273269 0.20217805077 0.20618679917 0.21085677166 0.21604859561 0.22159089182 
0.22729383898 0.23296393932 0.23841808337 0.24349520617 0.2480643211 0.25202844839 0.25532474369 0.25792174143 0.25981488712 
0.26102141398 0.26157524397 0.26152216456 0.26091524397 0.25981039519 0.2582621495 0.25631991051 0.25402505439 0.25140912718 
0.24849312745 0.24528763417 0.24179346353 0.23800254648 0.23389867808 0.22945777224 0.22464749166 0.21942664538 0.21374524549 
0.20754622626 0.20076942251 0.19335763819 0.18526383155 0.17645792499 0.16693170478 0.15670069856 0.1458026531 0.13429306457 
0.12223891278 0.10971210283 0.096783981783 0.083521728724 0.069986700287 0.056234289671 0.042314680754 0.028273969973 0.014155321099 
8.0729135217e-16 
_area 1 100 double
0 0.00054483578569 0.0021849770125 0.004933077404 0.0087938590425 0.013738480339 0.019679281422 0.026459721562 0.033864735215 
0.041646280422 0.049554786886 0.05736743916 0.064906304089 0.072042597554 0.078687583343 0.084774542626 0.090238399802 0.094999871765 
0.098960478315 0.10201275301 0.10406472847 0.10507081547 0.10505761653 0.10413568458 0.10249453285 0.10038556827 0.098115378304 
0.096032741215 0.094296303284 0.093046081542 0.092245774559 0.091861587964 0.091842499849 0.092118041943 0.092613147394 0.093256914809 
0.093983782419 0.094731906323 0.09544983913 0.096109684588 0.096716128556 0.097312907446 0.097982676611 0.098810334395 0.099876814966 
0.10127776535 0.1031186776 0.10550313033 0.10852430866 0.11226593588 0.11679086183 0.12212802764 0.1282523762 0.13506451343 
0.14238351034 0.14995765355 0.15748994329 0.16467089688 0.17121071417 0.17686496689 0.18145085697 0.18485348084 0.18702336186 
0.18796803257 0.18774135335 0.18643386996 0.18416561529 0.18108026433 0.17733817943 0.1731063984 0.16854548447 0.16379597689 
0.15896811793 0.15413428595 0.14932105229 0.14450356608 0.13961003433 0.13453935418 0.12918540993 0.12345756049 0.11729126519 
0.110650134 0.10352503612 0.095935273643 0.087932690118 0.079605357532 0.071076158454 0.062493698017 0.05401700201 0.045799042999 
0.037974961759 0.030658155041 0.023943291007 0.017912693725 0.012642265099 0.0082044237766 0.004667406923 0.0020917757461 0.00052562748135 
3.5621783201e-17 
