# vtk DataFile Version 5.1
vtk output
ASCII
DATASET POLYDATA
POINTS 100 float
0.131187 -0.0115533 0.657976 0.131228 -0.0115561 0.657714 0.131288 -0.0116844 0.657066 
0.131321 -0.0119128 0.656028 0.131255 -0.0122014 0.654595 0.131008 -0.0125001 0.652757 
0.130489 -0.0127546 0.650497 0.12962 -0.0129124 0.64779 0.128343 -0.0129296 0.644606 
0.126626 -0.0127759 0.640905 0.12447 -0.0124397 0.636644 0.121911 -0.0119303 0.631773 
0.119011 -0.0112783 0.626245 0.115855 -0.0105343 0.620014 0.112534 -0.00976473 0.613042 
0.109141 -0.00904581 0.605303 0.105752 -0.00845683 0.596785 0.102417 -0.00807214 0.58749 
0.0991553 -0.00795343 0.577442 0.0959488 -0.0081429 0.566678 0.0927444 -0.00865806 0.555253 
0.089459 -0.00948868 0.543234 0.0859878 -0.0105964 0.530695 0.0822159 -0.0119172 0.517717 
0.0780305 -0.0133662 0.504378 0.0733325 -0.0148451 0.490752 0.0680471 -0.0162509 0.476905 
0.062131 -0.0174857 0.462888 0.0555753 -0.0184659 0.448741 0.0484063 -0.0191306 0.434486 
0.0406805 -0.019448 0.420132 0.032479 -0.0194193 0.405669 0.0238981 -0.0190786 0.391077 
0.0150407 -0.0184912 0.37632 0.00600806 -0.0177471 0.361353 -0.00310696 -0.0169535 0.346121 
-0.0122235 -0.0162245 0.330563 -0.0212739 -0.0156706 0.314615 -0.0302012 -0.0153884 0.298208 
-0.0389554 -0.0154514 0.281277 -0.0474872 -0.0159036 0.263759 -0.0557418 -0.016755 0.2456 
-0.0636533 -0.0179816 0.226757 -0.0711408 -0.019528 0.207201 -0.0781076 -0.0213131 0.186923 
-0.084442 -0.0232384 0.165933 -0.0900228 -0.0251981 0.144263 -0.0947262 -0.0270893 0.121968 
-0.0984347 -0.0288217 0.0991262 -0.101047 -0.0303262 0.0758303 -0.102487 -0.0315608 0.0521882 
-0.102713 -0.0325135 0.0283153 -0.101718 -0.0332021 0.00432758 -0.0995379 -0.0336711 -0.0196652 
-0.0962453 -0.0339852 -0.0435659 -0.0919457 -0.0342214 -0.0672951 -0.0867693 -0.0344595 -0.090795 
-0.0808614 -0.0347726 -0.114031 -0.0743717 -0.0352178 -0.136988 -0.0674435 -0.0358292 -0.159672 
-0.060205 -0.036613 -0.182101 -0.0527627 -0.0375449 -0.204296 -0.0451971 -0.0385706 -0.22628 
-0.0375624 -0.0396096 -0.248065 -0.0298887 -0.0405603 -0.269647 -0.0221866 -0.0413078 -0.291004 
-0.0144536 -0.0417317 -0.312091 -0.00668165 -0.0417153 -0.332845 0.00113604 -0.0411529 -0.353182 
0.00899842 -0.0399574 -0.373011 0.0168921 -0.0380646 -0.392234 0.0247886 -0.0354369 -0.41076 
0.0326442 -0.0320645 -0.428509 0.0404012 -0.0279643 -0.445423 0.0479914 -0.0231775 -0.461465 
0.0553404 -0.0177663 -0.476628 0.0623724 -0.0118093 -0.490929 0.0690156 -0.0053965 -0.504408 
0.0752056 0.00137506 -0.517123 0.0808896 0.0084057 -0.529141 0.0860278 0.0155967 -0.540529 
0.0905949 0.022853 -0.551347 0.0945796 0.0300857 -0.561645 0.097984 0.0372126 -0.571451 
0.100822 0.0441597 -0.580773 0.103117 0.0508611 -0.589601 0.104903 0.0572589 -0.597907 
0.106219 0.0633028 -0.605649 0.107111 0.0689505 -0.612784 0.107631 0.0741663 -0.619268 
0.107833 0.0789215 -0.625065 0.107779 0.0831934 -0.630154 0.107529 0.0869652 -0.634528 
0.107146 0.0902248 -0.638198 0.106692 0.0929648 -0.641193 0.106226 0.0951811 -0.643548 
0.105801 0.0968723 -0.645308 0.105461 0.0980389 -0.646517 0.105242 0.0986822 -0.64721 
0.105163 0.0988044 -0.647414 
LINES 2 100
OFFSETS vtktypeint64
0 100 
CONNECTIVITY vtktypeint64
0 1 2 3 4 5 6 7 8 
9 10 11 12 13 14 15 16 17 
18 19 20 21 22 23 24 25 26 
27 28 29 30 31 32 33 34 35 
36 37 38 39 40 41 42 43 44 
45 46 47 48 49 50 51 52 53 
54 55 56 57 58 59 60 61 62 
63 64 65 66 67 68 69 70 71 
72 73 74 75 76 77 78 79 80 
81 82 83 84 85 86 87 88 89 
90 91 92 93 94 95 96 97 98 
99 
POINT_DATA 100
FIELD FieldData 3
_theta 1 100 double
0 0.031733259127 0.063466518254 0.095199777382 0.12693303651 0.15866629564 0.19039955476 0.22213281389 0.25386607302 
0.28559933214 0.31733259127 0.3490658504 0.38079910953 0.41253236865 0.44426562778 0.47599888691 0.50773214603 0.53946540516 
0.57119866429 0.60293192342 0.63466518254 0.66639844167 0.6981317008 0.72986495992 0.76159821905 0.79333147818 0.82506473731 
0.85679799643 0.88853125556 0.92026451469 0.95199777382 0.98373103294 1.0154642921 1.0471975512 1.0789308103 1.1106640695 
1.1423973286 1.1741305877 1.2058638468 1.237597106 1.2693303651 1.3010636242 1.3327968833 1.3645301425 1.3962634016 
1.4279966607 1.4597299198 1.491463179 1.5231964381 1.5549296972 1.5866629564 1.6183962155 1.6501294746 1.6818627337 
1.7135959929 1.745329252 1.7770625111 1.8087957702 1.8405290294 1.8722622885 1.9039955476 1.9357288068 1.9674620659 
1.999195325 2.0309285841 2.0626618433 2.0943951024 2.1261283615 2.1578616206 2.1895948798 2.2213281389 2.253061398 
2.2847946572 2.3165279163 2.3482611754 2.3799944345 2.4117276937 2.4434609528 2.4751942119 2.506927471 2.5386607302 
2.5703939893 2.6021272484 2.6338605076 2.6655937667 2.6973270258 2.7290602849 2.7607935441 2.7925268032 2.8242600623 
2.8559933214 2.8877265806 2.9194598397 2.9511930988 2.982926358 3.0146596171 3.0463928762 3.0781261353 3.1098593945 
3.1415926536 
_radius 1 100 double
9.0398236292e-16 0.014551710426 0.029035322988 0.043389069079 0.057559547972 0.071503541692 0.085187676969 0.09858598273 0.11167561858 
0.1244312072 0.13681847503 0.14878836884 0.16027325844 0.1711868126 0.18142836316 0.19089129545 0.19947387359 0.20709044379 
0.21368120377 0.21921936799 0.22371523792 0.22721718082 0.22980977334 0.2316094286 0.2327577842 0.23341305662 0.23373952427 
0.23389537666 0.23401948505 0.23421825988 0.23455446031 0.23504014249 0.23563546166 0.23625384402 0.2367726964 0.23704795219 
0.23693057182 0.23628338354 0.23499699391 0.23300369198 0.23028830123 0.22689489053 0.22292825212 0.21854919188 0.2139630651 
0.20940173634 0.20510029571 0.20127130328 0.1980806604 0.19562977629 0.19394788095 0.19299597873 0.19268074995 0.19287410764 
0.19343334334 0.19421799006 0.19510172027 0.19597952011 0.19677127645 0.19742280155 0.19790480698 0.19821007548 0.1983492656 
0.19834614042 0.19823313604 0.19804783263 0.19783014139 0.19761934682 0.19745011024 0.19734722055 0.1973197678 0.19735595747 
0.19741977846 0.19745031488 0.19736390438 0.19705880426 0.19642164858 0.19533480724 0.19368379624 0.19136409094 0.18828695587 
0.18438410621 0.17961109198 0.17394926419 0.16740611134 0.16001372475 0.15182522044 0.14290914214 0.13334218821 0.12320101669 
0.11255432331 0.10145674149 0.08994619018 0.07804587162 0.065771074758 0.053139440529 0.040181939258 0.026951206188 0.013524481285 
1.4173343594e-15 
_area 1 100 double
0 0.00053734802934 0.0021323224717 0.0047352840815 0.0082689862563 0.012637384896 0.017738181823 0.023477505687 0.029782943476 
0.036609019121 0.043929360648 0.051715190211 0.059908798877 0.068404696759 0.077045819346 0.085634279324 0.093952058791 0.1017857716 
0.10894903903 0.11529721149 0.12073355047 0.12521169288 0.12874194225 0.13140547007 0.13337082594 0.13489381576 0.13627633197 
0.13778914202 0.13961212116 0.1418264122 0.14443053635 0.14735095915 0.15044988763 0.15354131861 0.15641651587 0.15887108683 
0.16072337009 0.16181831267 0.16202133836 0.16121578228 0.15931527198 0.15628889655 0.1521887736 0.14716817153 0.14147868215 
0.13544407883 0.12941591697 0.12372007325 0.11860831795 0.11423124725 0.11064398654 0.10783789844 0.10575126384 0.1042315096 
0.10305214035 0.1019834379 0.10083771688 0.099489769385 0.097881533583 0.096015597767 0.093944786414 0.091764811001 0.089606618284 
0.0876203874 0.085951087358 0.084712489605 0.083967278602 0.08371952559 0.083924916884 0.084525647363 0.08550586805 0.08681772216 
0.088298101905 0.089850954881 0.091396994959 0.092842122066 0.094057917678 0.094881657862 0.095134123336 0.094644572838 0.093273992135 
0.090932415654 0.087588890022 0.083274020711 0.078075807291 0.072129877685 0.065605588455 0.058689913307 0.051571360341 0.044426322446 
0.037410627595 0.030658838436 0.024290907403 0.018421316332 0.01316524319 0.0086399242825 0.0049618092707 0.0022398839988 0.00056542816223 
4.9224454803e-17 
