# vtk DataFile Version 5.1
vtk output
ASCII
DATASET POLYDATA
POINTS 100 float
0.17606 0.0854576 -0.667635 0.175822 0.0855708 -0.66765 0.17516 0.0856962 -0.667762 
0.174094 0.0857812 -0.667889 0.172655 0.0857446 -0.667906 0.17088 0.0854851 -0.667654 
0.168798 0.0848896 -0.666958 0.166432 0.0838439 -0.665648 0.163787 0.0822418 -0.66357 
0.160848 0.0799939 -0.660603 0.15758 0.0770339 -0.656667 0.15393 0.0733222 -0.651726 
0.149833 0.068848 -0.645788 0.145221 0.0636275 -0.638893 0.140027 0.0577017 -0.631108 
0.1342 0.0511316 -0.622506 0.127712 0.0439943 -0.613156 0.12056 0.0363781 -0.603111 
0.112776 0.0283796 -0.592394 0.104417 0.0201012 -0.581 0.0955666 0.0116501 -0.568888 
0.0863253 0.00313879 -0.555992 0.0767997 -0.00531437 -0.542229 0.0670919 -0.0135842 -0.527507 
0.057289 -0.0215384 -0.511743 0.0474553 -0.0290388 -0.494876 0.0376263 -0.0359439 -0.47687 
0.027809 -0.0421135 -0.457729 0.0179848 -0.0474149 -0.437491 0.00811785 -0.0517311 -0.41623 
-0.00183393 -0.0549684 -0.394047 -0.0119052 -0.0570648 -0.371059 -0.0221094 -0.0579966 -0.347386 
-0.0324265 -0.0577828 -0.323142 -0.0427935 -0.0564866 -0.298419 -0.0530998 -0.0542139 -0.273285 
-0.0631872 -0.0511074 -0.247781 -0.0728569 -0.0473389 -0.221919 -0.0818805 -0.0430977 -0.195691 
-0.0900165 -0.0385788 -0.169079 -0.0970286 -0.0339701 -0.142068 -0.102705 -0.0294409 -0.114656 
-0.106879 -0.0251326 -0.0868696 -0.109439 -0.0211522 -0.0587704 -0.110346 -0.0175694 -0.0304601 
-0.109632 -0.0144177 -0.00207994 -0.107399 -0.0116984 0.0261947 -0.103814 -0.009388 0.054165 
-0.0990881 -0.00744656 0.0816227 -0.0934657 -0.00582746 0.108366 -0.0871992 -0.0044861 0.134217 
-0.0805307 -0.00338709 0.159033 -0.0736742 -0.0025091 0.182723 -0.0668006 -0.00184665 0.20525 
-0.0600292 -0.00140908 0.226636 -0.0534246 -0.00121678 0.246953 -0.0469997 -0.00129538 0.266318 
-0.0407237 -0.00166895 0.28488 -0.0345353 -0.00235301 0.302801 -0.0283572 -0.00334855 0.320244 
-0.0221124 -0.00463775 0.337353 -0.0157387 -0.00618217 0.354245 -0.00920053 -0.00792357 0.371 
-0.00249691 -0.00978725 0.387654 0.00433592 -0.0116877 0.404204 0.0112265 -0.0135354 0.420608 
0.0180751 -0.0152449 0.4368 0.0247639 -0.0167416 0.452693 0.0311697 -0.0179682 0.468195 
0.0371773 -0.0188889 0.483223 0.0426919 -0.0194909 0.497708 0.0476485 -0.0197843 0.511602 
0.0520187 -0.0197986 0.524887 0.0558119 -0.0195784 0.537571 0.0590732 -0.0191767 0.549688 
0.0618763 -0.0186486 0.561289 0.0643133 -0.0180453 0.572442 0.0664831 -0.0174085 0.583215 
0.068478 -0.0167666 0.593678 0.0703728 -0.0161335 0.603887 0.0722148 -0.0155083 0.613885 
0.0740182 -0.0148773 0.623696 0.0757625 -0.014218 0.633324 0.0773951 -0.0135027 0.642754 
0.0788384 -0.0127036 0.651955 0.0800001 -0.0117975 0.660881 0.0807855 -0.0107692 0.669478 
0.0811112 -0.00961405 0.677688 0.0809173 -0.00833999 0.685451 0.0801783 -0.00696705 0.69271 
0.0789102 -0.00552646 0.699413 0.0771731 -0.00405853 0.705517 0.0750695 -0.00260993 0.710983 
0.0727382 -0.00123054 0.71578 0.0703432 2.95998e-05 0.719887 0.068061 0.00112324 0.723284 
0.0660649 0.00200843 0.725958 0.0645098 0.00265052 0.7279 0.0635182 0.00302372 0.729102 
0.0631688 0.00311212 0.72956 
LINES 2 100
OFFSETS vtktypeint64
0 100 
CONNECTIVITY vtktypeint64
0 1 2 3 4 5 6 7 8 
9 10 11 12 13 14 15 16 17 
18 19 20 21 22 23 24 25 26 
27 28 29 30 31 32 33 34 35 
36 37 38 39 40 41 42 43 44 
45 46 47 48 49 50 51 52 53 
54 55 56 57 58 59 60 61 62 
63 64 65 66 67 68 69 70 71 
72 73 74 75 76 77 78 79 80 
81 82 83 84 85 86 87 88 89 
90 91 92 93 94 95 96 97 98 
99 
POINT_DATA 100
FIELD FieldData 3
_theta 1 100 double
0 0.031733259127 0.063466518254 0.095199777382 0.12693303651 0.15866629564 0.19039955476 0.22213281389 0.25386607302 
0.28559933214 0.31733259127 0.3490658504 0.38079910953 0.41253236865 0.44426562778 0.47599888691 0.50773214603 0.53946540516 
0.57119866429 0.60293192342 0.63466518254 0.66639844167 0.6981317008 0.72986495992 0.76159821905 0.79333147818 0.82506473731 
0.85679799643 0.88853125556 0.92026451469 0.95199777382 0.98373103294 1.0154642921 1.0471975512 1.0789308103 1.1106640695 
1.1423973286 1.1741305877 1.2058638468 1.237597106 1.2693303651 1.3010636242 1.3327968833 1.3645301425 1.3962634016 
1.4279966607 1.4597299198 1.491463179 1.5231964381 1.5549296972 1.5866629564 1.6183962155 1.6501294746 1.6818627337 
1.7135959929 1.745329252 1.7770625111 1.8087957702 1.8405290294 1.8722622885 1.9039955476 1.9357288068 1.9674620659 
1.999195325 2.0309285841 2.0626618433 2.0943951024 2.1261283615 2.1578616206 2.1895948798 2.2213281389 2.253061398 
2.2847946572 2.3165279163 2.3482611754 2.3799944345 2.4117276937 2.4434609528 2.4751942119 2.506927471 2.5386607302 
2.5703939893 2.6021272484 2.6338605076 2.6655937667 2.6973270258 2.7290602849 2.7607935441 2.7925268032 2.8242600623 
2.8559933214 2.8877265806 2.9194598397 2.9511930988 2.982926358 3.0146596171 3.0463928762 3.0781261353 3.1098593945 
3.1415926536 
_radius 1 100 double
8.9347521619e-16 0.016241318545 0.032327334097 0.048108577512 0.063446716086 0.078217811349 0.092313559311 0.10564062635 0.11811850414 
0.12967651849 0.14025079877 0.14978216439 0.15821591941 0.1655043045 0.17161175809 0.17652231046 0.18024768149 0.18283427549 
0.18436739188 0.18497150941 0.1848062336 0.18405818689 0.18292961162 0.18162471088 0.18033487162 0.17922405812 0.1784158885 
0.17798404108 0.17794741328 0.17827085727 0.17887168799 0.17963174206 0.18041430471 0.18108450807 0.18153115168 0.18168722481 
0.18154537103 0.18116405371 0.18066160361 0.18019893285 0.17995637368 0.18011232542 0.1808277175 0.18223394775 0.18442059342 
0.18742391858 0.19122129082 0.1957349778 0.20084361174 0.20639640262 0.21222605149 0.21815915635 0.22402513551 0.22966533289 
0.23494317567 0.23975466771 0.24403702373 0.24777273577 0.25098716832 0.25373952903 0.25610889979 0.25817812495 0.26001843923 
0.26167705201 0.26316899427 0.26447372333 0.26553634593 0.26627284022 0.26657834296 0.26633742931 0.26543529142 0.26376873264 
0.26125591666 0.25784390604 0.25351325606 0.24827928186 0.24219000393 0.23532112357 0.22776867631 0.21964027565 0.21104604983 
0.20209037267 0.19286520211 0.18344531467 0.17388517978 0.16421693896 0.15444910943 0.14456612995 0.13452939061 0.12428059687 
0.11374806432 0.1028559056 0.091535247272 0.079735804646 0.067435638059 0.054647081617 0.041417811966 0.027827402081 0.013980748983 
2.8630136637e-16 
_area 1 100 double
0 0.00071289640465 0.0028181731015 0.0062202945128 0.010773680946 0.016297581184 0.02258963851 0.029436227154 0.036619159531 
0.043918666896 0.051112988788 0.057976647555 0.064281818634 0.069807727204 0.074359901466 0.077795559253 0.080046969467 0.081134234241 
0.081162898193 0.080308260972 0.078794518889 0.076882078324 0.074911357918 0.073440828474 0.072422776448 0.07187548807 0.071743120088 
0.072024404607 0.072709009665 0.073784278579 0.075227185504 0.076990663446 0.078996524278 0.081147347681 0.083347195519 0.085500767433 
0.087500122211 0.089249749083 0.090718860046 0.091969106568 0.093141960397 0.094417463945 0.095975865133 0.097976890669 0.10055433867 
0.10383239723 0.10793624685 0.11296672316 0.11895229817 0.12581154935 0.13334869641 0.14127919758 0.14926889236 0.15697260441 
0.16406481682 0.17026677819 0.17538187888 0.17933429437 0.18218753985 0.18413244466 0.18563694522 0.18721801361 0.1887135971 
0.1901022913 0.19135823434 0.19241223737 0.19315547714 0.19341896169 0.1929855798 0.19163112265 0.18917615682 0.18552326514 
0.18066825277 0.17468957623 0.16772493118 0.15994121255 0.15150142102 0.14253841174 0.13315581262 0.12345983926 0.11359045779 
0.10372439676 0.09405308213 0.084750819877 0.075945402273 0.06769970607 0.060010952738 0.052828404283 0.046079053237 0.039688560308 
0.033596228143 0.027769768573 0.02222025525 0.017010615502 0.012251405129 0.0080840165809 0.0046573475474 0.0021055011499 0.00053174836912 
9.7747436999e-19 
