# vtk DataFile Version 5.1
vtk output
ASCII
DATASET POLYDATA
POINTS 100 float
0.159586 -0.0330233 0.686544 0.159595 -0.0329974 0.686225 0.159554 -0.0330255 0.685432 
0.159444 -0.0330955 0.684169 0.159237 -0.0331887 0.682441 0.158897 -0.0332804 0.680249 
0.158385 -0.0333408 0.677592 0.157659 -0.033337 0.674464 0.15668 -0.0332346 0.670847 
0.155414 -0.0329998 0.666722 0.153831 -0.032602 0.662056 0.151911 -0.0320161 0.656816 
0.149636 -0.0312246 0.650965 0.146996 -0.03022 0.644466 0.143983 -0.0290059 0.63729 
0.140593 -0.0275975 0.629414 0.136821 -0.0260211 0.620831 0.132663 -0.0243131 0.611547 
0.128113 -0.0225175 0.601584 0.123166 -0.0206826 0.590979 0.11782 -0.0188582 0.579784 
0.112076 -0.0170912 0.568058 0.105941 -0.0154227 0.55587 0.0994297 -0.0138853 0.543287 
0.0925677 -0.0125011 0.530375 0.0853895 -0.011281 0.517191 0.0779391 -0.0102256 0.503781 
0.0702675 -0.00932658 0.490182 0.0624298 -0.00856972 0.476412 0.0544803 -0.00793788 0.462477 
0.0464688 -0.00741463 0.448369 0.0384358 -0.00698739 0.434069 0.0304089 -0.00665003 0.419546 
0.022401 -0.00640431 0.404761 0.01441 -0.00626021 0.389668 0.00642066 -0.00623497 0.374214 
-0.00159113 -0.00635099 0.358346 -0.00965234 -0.00663285 0.342003 -0.0177853 -0.00710384 0.325127 
-0.0259999 -0.00778252 0.307657 -0.0342852 -0.00867966 0.289537 -0.0426037 -0.00979605 0.270716 
-0.0508861 -0.0111215 0.25115 -0.0590304 -0.0126351 0.23081 -0.0669031 -0.0143066 0.20968 
-0.0743446 -0.0160993 0.187766 -0.0811771 -0.0179727 0.165093 -0.0872162 -0.0198869 0.141709 
-0.0922827 -0.0218052 0.117681 -0.096216 -0.0236969 0.0930995 -0.0988863 -0.0255395 0.0680649 
-0.100205 -0.0273181 0.0426879 -0.100131 -0.0290255 0.017081 -0.098677 -0.0306591 -0.00864881 
-0.0959049 -0.0322189 -0.0344063 -0.0919232 -0.0337033 -0.0601129 -0.0868776 -0.0351061 -0.08571 
-0.0809389 -0.0364136 -0.111159 -0.0742891 -0.0376024 -0.136442 -0.0671077 -0.038639 -0.16155 
-0.0595574 -0.0394803 -0.186486 -0.0517738 -0.0400756 -0.211249 -0.0438565 -0.0403698 -0.235831 
-0.0358657 -0.0403075 -0.260203 -0.0278226 -0.0398367 -0.28432 -0.0197133 -0.0389131 -0.308107 
-0.0114977 -0.0375033 -0.331467 -0.00311967 -0.0355872 -0.354281 0.0054799 -0.033159 -0.376419 
0.0143512 -0.0302268 -0.397745 0.023524 -0.0268114 -0.418132 0.0329989 -0.0229441 -0.437473 
0.042742 -0.0186634 -0.455688 0.0526829 -0.0140125 -0.472737 0.0627181 -0.00903693 -0.48862 
0.0727167 -0.00378203 -0.503379 0.0825298 0.00170739 -0.517098 0.0920026 0.0073874 -0.529886 
0.100986 0.013214 -0.541875 0.109349 0.0191418 -0.553204 0.116989 0.0251222 -0.564004 
0.123838 0.0311024 -0.574387 0.12987 0.037024 -0.584437 0.135096 0.0428235 -0.594201 
0.139567 0.0484335 -0.603689 0.143361 0.0537848 -0.612874 0.146578 0.0588101 -0.621699 
0.149329 0.0634476 -0.630086 0.151722 0.0676454 -0.637945 0.153856 0.0713651 -0.64519 
0.155808 0.0745848 -0.651743 0.157632 0.0773009 -0.657547 0.159353 0.0795274 -0.662572 
0.16097 0.0812951 -0.66681 0.162459 0.0826471 -0.670283 0.163779 0.0836346 -0.673026 
0.164879 0.0843112 -0.67509 0.165711 0.0847266 -0.676523 0.166231 0.0849216 -0.677371 
0.166411 0.0849232 -0.677661 
LINES 2 100
OFFSETS vtktypeint64
0 100 
CONNECTIVITY vtktypeint64
0 1 2 3 4 5 6 7 8 
9 10 11 12 13 14 15 16 17 
18 19 20 21 22 23 24 25 26 
27 28 29 30 31 32 33 34 35 
36 37 38 39 40 41 42 43 44 
45 46 47 48 49 50 51 52 53 
54 55 56 57 58 59 60 61 62 
63 64 65 66 67 68 69 70 71 
72 73 74 75 76 77 78 79 80 
81 82 83 84 85 86 87 88 89 
90 91 92 93 94 95 96 97 98 
99 
POINT_DATA 100
FIELD FieldData 3
_theta 1 100 double
0 0.031733259127 0.063466518254 0.095199777382 0.12693303651 0.15866629564 0.19039955476 0.22213281389 0.25386607302 
0.28559933214 0.31733259127 0.3490658504 0.38079910953 0.41253236865 0.44426562778 0.47599888691 0.50773214603 0.53946540516 
0.57119866429 0.60293192342 0.63466518254 0.66639844167 0.6981317008 0.72986495992 0.76159821905 0.79333147818 0.82506473731 
0.85679799643 0.88853125556 0.92026451469 0.95199777382 0.98373103294 1.0154642921 1.0471975512 1.0789308103 1.1106640695 
1.1423973286 1.1741305877 1.2058638468 1.237597106 1.2693303651 1.3010636242 1.3327968833 1.3645301425 1.3962634016 
1.4279966607 1.4597299198 1.491463179 1.5231964381 1.5549296972 1.5866629564 1.6183962155 1.6501294746 1.6818627337 
1.7135959929 1.745329252 1.7770625111 1.8087957702 1.8405290294 1.8722622885 1.9039955476 1.9357288068 1.9674620659 
1.999195325 2.0309285841 2.0626618433 2.0943951024 2.1261283615 2.1578616206 2.1895948798 2.2213281389 2.253061398 
2.2847946572 2.3165279163 2.3482611754 2.3799944345 2.4117276937 2.4434609528 2.4751942119 2.506927471 2.5386607302 
2.5703939893 2.6021272484 2.6338605076 2.6655937667 2.6973270258 2.7290602849 2.7607935441 2.7925268032 2.8242600623 
2.8559933214 2.8877265806 2.9194598397 2.9511930988 2.982926358 3.0146596171 3.0463928762 3.0781261353 3.1098593945 
3.1415926536 
_radius 1 100 double
1.054072571e-15 0.015376040857 0.030613936542 0.045593177539 0.060214820331 0.074408073531 0.088132890612 0.10137830662 0.11415688648 
0.1264961907 0.13842854305 0.14998056681 0.16116393062 0.17196853129 0.18235898442 0.19227486239 0.20163467997 0.21034323215 
0.21830155239 0.22541848013 0.23162260265 0.23687318406 0.24116864599 0.24455125768 0.24710696702 0.24895978595 0.25026083719 
0.25117300797 0.25185299536 0.2524331575 0.25300580842 0.25361230187 0.25423850279 0.25481725538 0.25523748055 0.25535873043 
0.25502943976 0.25410673699 0.25247552367 0.25006461981 0.24685810839 0.2429005629 0.23829554516 0.23319753764 0.22779823684 
0.22230879596 0.21694010767 0.21188354862 0.2072947618 0.20328291196 0.19990712173 0.19718025717 0.19507817508 0.19355092358 
0.19253226052 0.19194554128 0.19170665856 0.19172659412 0.19191599257 0.19219236726 0.19248863938 0.19276074311 0.1929920726 
0.1931933653 0.19339789092 0.19365305015 0.19401021831 0.19451470537 0.19519717485 0.19606712349 0.19710847745 0.19827724282 
0.19950137354 0.20068324806 0.20170503083 0.20243665633 0.20274546228 0.20250599808 0.2016084762 0.19996468543 0.19751075243 
0.19420673139 0.19003351691 0.18498796562 0.17907732904 0.17231408647 0.16471201442 0.15628393492 0.14704120291 0.13699473361 
0.12615724398 0.1145463344 0.10218801142 0.089120225871 0.075395978714 0.061085547796 0.046277432099 0.0310777136 0.015607707653 
6.8542439579e-16 
_area 1 100 double
0 0.00058313449801 0.0023127469016 0.0051327143674 0.0089593707915 0.013693311386 0.019231039668 0.025473717861 0.0323316423 
0.039724871388 0.047581808194 0.055837493213 0.064431863654 0.073306778713 0.082400567487 0.091639797848 0.10092913746 0.11014200648 
0.11911687375 0.12766429692 0.13558666188 0.14270751634 0.14890329109 0.15412859061 0.1584273359 0.16192593566 0.16481023121 
0.16729231323 0.16957459283 0.17181842783 0.17412474721 0.17653236248 0.17903510342 0.18161581955 0.18418029856 0.18632689224 
0.18761196458 0.18765939113 0.18624616995 0.18328259839 0.17883863332 0.17313820608 0.16650575463 0.15931235618 0.15192651571 
0.14468824282 0.13788705603 0.13173305753 0.12633456866 0.12169219287 0.11771397953 0.11425426031 0.1111624166 0.10829152818 
0.10548904687 0.10268591216 0.099937544707 0.097407388099 0.095114656869 0.093008391625 0.091083019157 0.089345429837 0.08779806902 
0.086444533665 0.085306082702 0.084428356954 0.083874214738 0.083709722764 0.083990912648 0.084755188221 0.086014869237 0.087747406253 
0.089880785964 0.092256135081 0.094628575024 0.096708093233 0.098212462953 0.098922966635 0.098699881451 0.09748625456 0.095297737261 
0.092202569145 0.088297626202 0.083686854605 0.0784672786 0.072724855103 0.066538915075 0.059991373096 0.053176166858 0.046205331326 
0.039210041994 0.032337097846 0.025742846991 0.019586898883 0.014027083573 0.0092155522934 0.0052945506715 0.0023901322871 0.00060328665221 
4.5219691768e-17 
