# vtk DataFile Version 5.1
vtk output
ASCII
DATASET POLYDATA
POINTS 100 float
0.201508 0.0595494 -0.72164 0.201 0.059506 -0.721016 0.199506 0.0592508 -0.719275 
0.197066 0.0587797 -0.71644 0.193743 0.058085 -0.712553 0.18962 0.0571548 -0.707663 
0.184784 0.0559727 -0.701826 0.179328 0.0545175 -0.695102 0.173337 0.0527634 -0.687545 
0.166881 0.0506819 -0.679208 0.160016 0.0482437 -0.670128 0.152782 0.0454217 -0.660336 
0.145199 0.0421946 -0.649848 0.137277 0.038551 -0.638668 0.12902 0.0344927 -0.62679 
0.12043 0.0300377 -0.614204 0.111514 0.0252222 -0.600892 0.102291 0.0201005 -0.586839 
0.0927916 0.0147439 -0.572033 0.0830625 0.00923785 -0.556467 0.073161 0.00367761 -0.540143 
0.0631527 -0.0018372 -0.523072 0.053105 -0.00720812 -0.505275 0.0430806 -0.0123435 -0.486776 
0.0331308 -0.0171633 -0.467608 0.0232901 -0.0216028 -0.447806 0.0135731 -0.0256143 -0.427401 
0.00397432 -0.0291678 -0.406424 -0.0055293 -0.0322497 -0.384899 -0.0149724 -0.0348598 -0.362844 
-0.0243928 -0.0370078 -0.340272 -0.0338221 -0.0387096 -0.31719 -0.043275 -0.0399834 -0.293605 
-0.0527398 -0.0408466 -0.269524 -0.0621715 -0.0413136 -0.244959 -0.0714877 -0.0413957 -0.219935 
-0.0805679 -0.0411011 -0.194486 -0.0892582 -0.0404367 -0.168666 -0.0973791 -0.0394105 -0.142543 
-0.104737 -0.0380344 -0.116206 -0.111138 -0.0363261 -0.0897561 -0.116403 -0.0343111 -0.0633098 
-0.120383 -0.0320235 -0.036989 -0.122968 -0.0295052 -0.0109181 -0.124102 -0.0268047 0.0147833 
-0.123782 -0.0239745 0.0400059 -0.122063 -0.0210683 0.0646568 -0.119051 -0.0181376 0.0886631 
-0.114895 -0.0152298 0.111975 -0.109777 -0.0123862 0.134567 -0.103892 -0.00964126 0.156436 
-0.0974403 -0.00702341 0.177599 -0.0906095 -0.00455665 0.19809 -0.0835622 -0.00226289 0.217952 
-0.0764283 -0.000164639 0.237235 -0.0692989 0.00171269 0.255988 -0.062226 0.00333926 0.274256 
-0.0552248 0.00468055 0.292074 -0.04828 0.00569867 0.309468 -0.0413551 0.00635519 0.326452 
-0.0344018 0.00661527 0.343032 -0.0273712 0.00645264 0.359204 -0.0202227 0.00585465 0.374964 
-0.0129326 0.0048268 0.390306 -0.00549844 0.00339572 0.405228 0.00205764 0.00161024 0.419737 
0.00968996 -0.000460066 0.433851 0.0173322 -0.00272891 0.447599 0.0249024 -0.00509961 0.461018 
0.0323101 -0.00747322 0.474159 0.0394628 -0.00975747 0.487072 0.0462734 -0.0118756 0.499813 
0.052666 -0.013774 0.512428 0.0585808 -0.0154275 0.524957 0.0639764 -0.0168417 0.537421 
0.0688313 -0.0180515 0.549824 0.0731428 -0.019117 0.562148 0.0769245 -0.0201152 0.574351 
0.0802035 -0.0211304 0.586371 0.0830159 -0.022243 0.598124 0.0854027 -0.023519 0.609516 
0.0874068 -0.0250002 0.62044 0.0890693 -0.0266984 0.630791 0.0904276 -0.0285925 0.640465 
0.0915147 -0.0306295 0.649372 0.0923587 -0.0327299 0.657437 0.0929836 -0.0347967 0.664611 
0.0934109 -0.0367263 0.670866 0.0936606 -0.0384206 0.676204 0.093753 -0.039799 0.680653 
0.0937101 -0.0408081 0.684265 0.0935561 -0.0414286 0.687115 0.0933178 -0.0416775 0.689292 
0.0930241 -0.041607 0.6909 0.092705 -0.0412977 0.692042 0.0923902 -0.0408494 0.692823 
0.0921071 -0.040369 0.693338 0.0918796 -0.0399575 0.693667 0.0917257 -0.0396978 0.693872 
0.0916568 -0.0396445 0.693991 
LINES 2 100
OFFSETS vtktypeint64
0 100 
CONNECTIVITY vtktypeint64
0 1 2 3 4 5 6 7 8 
9 10 11 12 13 14 15 16 17 
18 19 20 21 22 23 24 25 26 
27 28 29 30 31 32 33 34 35 
36 37 38 39 40 41 42 43 44 
45 46 47 48 49 50 51 52 53 
54 55 56 57 58 59 60 61 62 
63 64 65 66 67 68 69 70 71 
72 73 74 75 76 77 78 79 80 
81 82 83 84 85 86 87 88 89 
90 91 92 93 94 95 96 97 98 
99 
POINT_DATA 100
FIELD FieldData 3
_theta 1 100 double
0 0.031733259127 0.063466518254 0.095199777382 0.12693303651 0.15866629564 0.19039955476 0.22213281389 0.25386607302 
0.28559933214 0.31733259127 0.3490658504 0.38079910953 0.41253236865 0.44426562778 0.47599888691 0.50773214603 0.53946540516 
0.57119866429 0.60293192342 0.63466518254 0.66639844167 0.6981317008 0.72986495992 0.76159821905 0.79333147818 0.82506473731 
0.85679799643 0.88853125556 0.92026451469 0.95199777382 0.98373103294 1.0154642921 1.0471975512 1.0789308103 1.1106640695 
1.1423973286 1.1741305877 1.2058638468 1.237597106 1.2693303651 1.3010636242 1.3327968833 1.3645301425 1.3962634016 
1.4279966607 1.4597299198 1.491463179 1.5231964381 1.5549296972 1.5866629564 1.6183962155 1.6501294746 1.6818627337 
1.7135959929 1.745329252 1.7770625111 1.8087957702 1.8405290294 1.8722622885 1.9039955476 1.9357288068 1.9674620659 
1.999195325 2.0309285841 2.0626618433 2.0943951024 2.1261283615 2.1578616206 2.1895948798 2.2213281389 2.253061398 
2.2847946572 2.3165279163 2.3482611754 2.3799944345 2.4117276937 2.4434609528 2.4751942119 2.506927471 2.5386607302 
2.5703939893 2.6021272484 2.6338605076 2.6655937667 2.6973270258 2.7290602849 2.7607935441 2.7925268032 2.8242600623 
2.8559933214 2.8877265806 2.9194598397 2.9511930988 2.982926358 3.0146596171 3.0463928762 3.0781261353 3.1098593945 
3.1415926536 
_radius 1 100 double
8.4691467075e-16 0.013987072705 0.02788988452 0.041626555885 0.055112961224 0.068261302848 0.080978902922 0.093167645007 0.10472458631 
0.11554423063 0.12552276038 0.13456417989 0.14258789876 0.14953689819 0.15538536512 0.16014459783 0.16386610191 0.16664111199 
0.16859625766 0.16988563767 0.17068002245 0.17115416085 0.17147324842 0.17177966602 0.17218123104 0.17274237236 0.17347968761 
0.17436313675 0.17532357456 0.17626634322 0.17708931419 0.17770253836 0.17804615252 0.17810360856 0.1779082483 0.17754224918 
0.17712792825 0.17681269173 0.17675095574 0.17708844487 0.17795377228 0.1794573557 0.18169208057 0.18472941896 0.18860923905 
0.19332668798 0.19882173973 0.20497598308 0.21161854911 0.21854036737 0.22551401937 0.23231551659 0.23874436591 0.24463916736 
0.24988731377 0.25442860255 0.25825337973 0.26139617582 0.26392582438 0.26593299708 0.26751612396 0.26876688598 0.26975681916 
0.27052685105 0.27108151891 0.2713890168 0.27138717255 0.27099428336 0.27012279998 0.26869337869 0.26664688975 0.26395251892 
0.2606109591 0.25665262515 0.25213160851 0.24711657343 0.24167997305 0.23588693395 0.22978507597 0.22339649689 0.21671311439 
0.20969635225 0.20228162743 0.19438727167 0.18592665118 0.17682162904 0.1670153074 0.15648216188 0.14523412679 0.13332179449 
0.12083057421 0.10787233008 0.094573613624 0.0810620701 0.067452894678 0.053837290659 0.040274672524 0.026789832856 0.013375519061 
4.1311011227e-16 
_area 1 100 double
0 0.0004930590936 0.0019676932967 0.0044088561957 0.0077867318648 0.012049830471 0.017116402267 0.022866127151 0.029134796634 
0.035714890093 0.042364337882 0.048824181373 0.054843444848 0.060207045405 0.064761007427 0.068429404257 0.071219404426 0.073213814696 
0.074553404713 0.075413141964 0.075977068061 0.076416193435 0.076872614032 0.077451050381 0.078216597903 0.079195690524 0.080377374478 
0.081714659277 0.083129559395 0.084525647318 0.085805950233 0.086889461425 0.087724436748 0.088303370025 0.088679511453 0.088971391407 
0.089338279735 0.089934019226 0.090878712038 0.092258452076 0.094121105709 0.096479417594 0.099348414221 0.10278252782 0.10687816382 
0.11174434483 0.11745998642 0.12403825691 0.13140837959 0.13941322455 0.14781849547 0.15633354007 0.16464433985 0.17245299795 
0.17951334365 0.18565492731 0.1907933121 0.19492786895 0.19812886804 0.20051530189 0.20222512314 0.20338216154 0.20406906123 
0.20431653495 0.20411008542 0.20340594276 0.20214837013 0.20028497903 0.19777900706 0.19461758186 0.19081264939 0.18638840132 
0.18135958739 0.1757347497 0.16954689659 0.16286842512 0.15580265318 0.14846569334 0.14096599925 0.1333852274 0.12576413667 
0.11809728166 0.11033885239 0.10241918806 0.094268286512 0.085840563931 0.077135130107 0.068207602288 0.059171823487 0.050191839295 
0.041465905481 0.0332053402 0.025611807496 0.01885698689 0.013068302993 0.0083233100207 0.0046535330397 0.0020564127747 0.00051202365996 
5.7245874707e-17 
