# vtk DataFile Version 5.1
vtk output
ASCII
DATASET POLYDATA
POINTS 100 float
0.120964 0.109402 -0.7001 0.120785 0.109269 -0.699551 0.120229 0.108608 -0.697875 
0.119327 0.107403 -0.695129 0.118123 0.105631 -0.691404 0.116676 0.103266 -0.686818 
0.115049 0.100285 -0.681499 0.113307 0.096677 -0.675581 0.111509 0.0924412 -0.669187 
0.1097 0.087596 -0.66242 0.107909 0.0821785 -0.655358 0.106141 0.0762442 -0.648044 
0.104377 0.0698645 -0.64049 0.102575 0.0631219 -0.632674 0.100666 0.0561049 -0.62455 
0.0985657 0.0489014 -0.616051 0.0961746 0.0415929 -0.607097 0.0933876 0.0342503 -0.597607 
0.0901016 0.0269306 -0.587504 0.0862242 0.0196764 -0.576721 0.0816814 0.0125172 -0.565207 
0.0764242 0.00547284 -0.55293 0.0704331 -0.00144134 -0.539876 0.0637212 -0.00820912 -0.526048 
0.0563331 -0.0148077 -0.51146 0.0483429 -0.0212033 -0.496138 0.0398485 -0.027348 -0.480115 
0.0309647 -0.0331797 -0.463422 0.0218152 -0.0386235 -0.446094 0.0125235 -0.0435965 -0.428158 
0.00320537 -0.0480136 -0.409639 -0.00603812 -0.0517956 -0.39056 -0.0151253 -0.054877 -0.370936 
-0.0239961 -0.0572129 -0.350782 -0.0326113 -0.0587857 -0.330112 -0.0409495 -0.0596077 -0.308935 
-0.0490013 -0.0597223 -0.287265 -0.0567627 -0.0592015 -0.265113 -0.0642271 -0.0581406 -0.242492 
-0.0713776 -0.0566507 -0.219413 -0.0781807 -0.0548493 -0.195892 -0.0845819 -0.0528511 -0.171943 
-0.090504 -0.0507582 -0.147585 -0.0958481 -0.0486525 -0.122841 -0.100498 -0.0465905 -0.0977432 
-0.104327 -0.0446 -0.0723304 -0.107206 -0.0426811 -0.0466557 -0.109017 -0.0408094 -0.0207851 
-0.109659 -0.0389417 0.00520047 -0.109058 -0.0370243 0.0312061 -0.107179 -0.0350011 0.0571246 
-0.104025 -0.0328226 0.0828405 -0.099643 -0.0304536 0.108234 -0.09412 -0.0278789 0.133189 
-0.0875785 -0.0251072 0.157596 -0.080169 -0.0221719 0.18136 -0.0720598 -0.0191293 0.204408 
-0.0634269 -0.0160553 0.226687 -0.0544425 -0.0130387 0.24817 -0.0452654 -0.0101749 0.268856 
-0.0360328 -0.00755801 0.288764 -0.026855 -0.00527418 0.307934 -0.0178128 -0.00339497 0.326415 
-0.00895769 -0.0019728 0.344264 -0.000315001 -0.00103793 0.36154 0.00811081 -0.000597207 0.378295 
0.0163294 -0.000634727 0.394575 0.0243572 -0.00111394 0.410414 0.0322101 -0.00198103 0.425838 
0.0398971 -0.00316904 0.440864 0.047416 -0.00460246 0.455502 0.0547503 -0.00620181 0.469761 
0.0618691 -0.00788805 0.48365 0.0687283 -0.00958637 0.497182 0.0752744 -0.0112295 0.510373 
0.0814492 -0.0127605 0.523242 0.0871947 -0.014134 0.53581 0.0924594 -0.0153185 0.548092 
0.0972026 -0.0162959 0.560095 0.101399 -0.0170621 0.571811 0.105039 -0.017626 0.583215 
0.108134 -0.0180086 0.594258 0.110712 -0.0182408 0.60487 0.112815 -0.018361 0.61496 
0.114499 -0.0184126 0.624423 0.115826 -0.0184401 0.633147 0.116862 -0.0184864 0.641026 
0.117673 -0.0185889 0.647965 0.118317 -0.0187765 0.653898 0.118844 -0.0190675 0.658791 
0.119296 -0.0194676 0.662654 0.1197 -0.0199696 0.66554 0.120073 -0.0205539 0.667544 
0.120422 -0.0211904 0.6688 0.120743 -0.021841 0.669465 0.121029 -0.0224638 0.669711 
0.121266 -0.0230167 0.669709 0.121443 -0.0234616 0.669609 0.121548 -0.0237686 0.66953 
0.121573 -0.0239186 0.66955 
LINES 2 100
OFFSETS vtktypeint64
0 100 
CONNECTIVITY vtktypeint64
0 1 2 3 4 5 6 7 8 
9 10 11 12 13 14 15 16 17 
18 19 20 21 22 23 24 25 26 
27 28 29 30 31 32 33 34 35 
36 37 38 39 40 41 42 43 44 
45 46 47 48 49 50 51 52 53 
54 55 56 57 58 59 60 61 62 
63 64 65 66 67 68 69 70 71 
72 73 74 75 76 77 78 79 80 
81 82 83 84 85 86 87 88 89 
90 91 92 93 94 95 96 97 98 
99 
POINT_DATA 100
FIELD FieldData 3
_theta 1 100 double
0 0.031733259127 0.063466518254 0.095199777382 0.12693303651 0.15866629564 0.19039955476 0.22213281389 0.25386607302 
0.28559933214 0.31733259127 0.3490658504 0.38079910953 0.41253236865 0.44426562778 0.47599888691 0.50773214603 0.53946540516 
0.57119866429 0.60293192342 0.63466518254 0.66639844167 0.6981317008 0.72986495992 0.76159821905 0.79333147818 0.82506473731 
0.85679799643 0.88853125556 0.92026451469 0.95199777382 0.98373103294 1.0154642921 1.0471975512 1.0789308103 1.1106640695 
1.1423973286 1.1741305877 1.2058638468 1.237597106 1.2693303651 1.3010636242 1.3327968833 1.3645301425 1.3962634016 
1.4279966607 1.4597299198 1.491463179 1.5231964381 1.5549296972 1.5866629564 1.6183962155 1.6501294746 1.6818627337 
1.7135959929 1.745329252 1.7770625111 1.8087957702 1.8405290294 1.8722622885 1.9039955476 1.9357288068 1.9674620659 
1.999195325 2.0309285841 2.0626618433 2.0943951024 2.1261283615 2.1578616206 2.1895948798 2.2213281389 2.253061398 
2.2847946572 2.3165279163 2.3482611754 2.3799944345 2.4117276937 2.4434609528 2.4751942119 2.506927471 2.5386607302 
2.5703939893 2.6021272484 2.6338605076 2.6655937667 2.6973270258 2.7290602849 2.7607935441 2.7925268032 2.8242600623 
2.8559933214 2.8877265806 2.9194598397 2.9511930988 2.982926358 3.0146596171 3.0463928762 3.0781261353 3.1098593945 
3.1415926536 
_radius 1 100 double
1.6700693834e-15 0.013313747418 0.026566615389 0.039690790137 0.052625408914 0.065318474031 0.077726933594 0.089815009075 0.10155102971 
0.11290321896 0.12383513976 0.13430173873 0.14424697598 0.15360383118 0.16229711477 0.17024907282 0.17738728519 0.18365383045 
0.1890142255 0.19346443657 0.19703448758 0.19978788614 0.20181704327 0.20323572649 0.2041700298 0.20474923838 0.20509745618 
0.20532628067 0.20552846281 0.20577249556 0.20609832764 0.20651471392 0.20699895512 0.20749988598 0.20794482921 0.20825059829 
0.20833736231 0.20814273948 0.2076328963 0.20680834426 0.20570403605 0.20438510091 0.20294032893 0.20147530732 0.20010640062 
0.19895598073 0.19814857342 0.19780691877 0.19804656746 0.19896790325 0.20064552046 0.20311639248 0.20636959208 0.2103407293 
0.21491335184 0.21992760599 0.22519442204 0.23051230977 0.23568383197 0.24052959842 0.24489862266 0.24867474506 0.2517794354 
0.25417163585 0.25584538036 0.25682573466 0.25716322614 0.25692658273 0.25619357827 0.2550403651 0.25353084231 0.25170869441 
0.24959453105 0.24718846412 0.24447575533 0.24143211026 0.2380264857 0.23422151092 0.22997309662 0.22523092356 0.21994068065 
0.21404790975 0.20750264704 0.20026386845 0.19230291329 0.18360537472 0.17417127522 0.16401365751 0.15315603611 0.14162945779 
0.12947008575 0.11671806723 0.10341789789 0.089619763344 0.075380834623 0.060765549001 0.045844495826 0.030692286514 0.015385278601 
2.8684439281e-16 
_area 1 100 double
0 0.0005552640085 0.002205753819 0.0049073917575 0.0085918459388 0.01317168412 0.018544730321 0.024597747339 0.031210092356 
0.038256561511 0.045607095789 0.053122342641 0.060647593232 0.068008858225 0.075013097462 0.081453809886 0.087124021284 0.091838014933 
0.095459426025 0.097928602567 0.099279810745 0.099640882069 0.099213486334 0.098238433271 0.096954392192 0.095560923317 0.094200397047 
0.092969330174 0.091948489579 0.091271895252 0.091102564726 0.091322376268 0.091945471925 0.092957553693 0.094304905202 0.095906811708 
0.09768428404 0.099522460533 0.10123036189 0.10269173369 0.10386703788 0.10476501051 0.10543328859 0.10595520048 0.10644351304 
0.1070281904 0.10784072029 0.1090029677 0.1106296925 0.11283908233 0.1157545265 0.11949089723 0.12412901205 0.12968354125 
0.13607444383 0.14311869729 0.15054989881 0.15805508838 0.16531321844 0.17202645808 0.17794164902 0.18286203457 0.18665099084 
0.18923086544 0.19058071413 0.19073577675 0.18978834277 0.18788495498 0.18521198227 0.18196590165 0.17831703618 0.17438416198 
0.17023025575 0.16587504262 0.16131303264 0.15652772508 0.15149767767 0.14619490444 0.14058008531 0.13460111273 0.1281994312 
0.12132334615 0.11394329719 0.10606376977 0.0977288616 0.089021028205 0.080054035777 0.070961918818 0.061886462196 0.052966557661 
0.044332898273 0.036109609527 0.028420592277 0.021395105697 0.01516752528 0.0098701784687 0.0056224123754 0.0025207202486 0.00063338577746 
2.4367128647e-17 
