# vtk DataFile Version 5.1
vtk output
ASCII
DATASET POLYDATA
POINTS 100 float
0.182755 0.0761795 -0.717274 0.182598 0.0760919 -0.717382 0.182068 0.0759838 -0.717561 
0.181181 0.0758348 -0.717698 0.179956 0.0756117 -0.717615 0.17842 0.0752697 -0.717095 
0.176594 0.0747536 -0.715904 0.174499 0.0740004 -0.713819 0.172141 0.0729415 -0.710648 
0.169515 0.0715074 -0.706251 0.166602 0.0696316 -0.700553 0.163365 0.067256 -0.69355 
0.159756 0.0643362 -0.685298 0.155716 0.0608458 -0.675911 0.151183 0.0567809 -0.665536 
0.146094 0.0521617 -0.654339 0.140398 0.0470333 -0.64248 0.134054 0.041464 -0.630097 
0.127043 0.0355415 -0.617292 0.119366 0.0293669 -0.60412 0.111047 0.0230488 -0.590595 
0.102133 0.0166947 -0.576686 0.0926879 0.010405 -0.562331 0.0827887 0.00426597 -0.547454 
0.0725189 -0.00165397 -0.531969 0.0619617 -0.00730672 -0.515805 0.0511932 -0.0126641 -0.498905 
0.0402778 -0.0177152 -0.481241 0.0292649 -0.0224619 -0.462807 0.0181882 -0.0269131 -0.443621 
0.00706855 -0.0310786 -0.423714 -0.00408226 -0.0349635 -0.403123 -0.0152539 -0.0385643 -0.381881 
-0.0264297 -0.0418659 -0.360008 -0.0375782 -0.0448425 -0.337506 -0.0486455 -0.0474593 -0.314363 
-0.0595495 -0.0496768 -0.29055 -0.0701773 -0.0514569 -0.266032 -0.0803858 -0.0527681 -0.240781 
-0.0900059 -0.0535919 -0.214783 -0.0988514 -0.053926 -0.188051 -0.10673 -0.0537873 -0.160634 
-0.113455 -0.0532107 -0.132619 -0.118862 -0.0522468 -0.10413 -0.122822 -0.0509567 -0.0753239 
-0.125251 -0.0494056 -0.0463787 -0.126119 -0.0476556 -0.0174795 -0.125452 -0.0457597 0.0111956 
-0.123335 -0.0437565 0.0394903 -0.119899 -0.0416678 0.0672805 -0.115318 -0.0394988 0.0944818 
-0.109788 -0.0372411 0.121051 -0.103514 -0.0348785 0.146981 -0.0966964 -0.032394 0.172294 
-0.0895108 -0.0297783 0.197029 -0.0821006 -0.0270372 0.221224 -0.0745677 -0.0241969 0.24491 
-0.0669708 -0.0213075 0.268096 -0.0593273 -0.0184423 0.290767 -0.0516214 -0.015694 0.312879 
-0.043815 -0.0131669 0.33437 -0.0358614 -0.0109671 0.35517 -0.0277192 -0.00919164 0.375209 
-0.0193655 -0.00791707 0.394438 -0.010806 -0.00719025 0.412841 -0.00208129 -0.00702198 0.430441 
0.00673224 -0.00738462 0.447307 0.015526 -0.00821424 0.463547 0.0241676 -0.00941715 0.479302 
0.0325132 -0.0108802 0.494727 0.0404216 -0.0124833 0.50997 0.0477688 -0.0141133 0.525153 
0.0544613 -0.0156764 0.540352 0.0604464 -0.017108 0.555578 0.0657177 -0.0183793 0.570774 
0.0703159 -0.0194978 0.585815 0.0743244 -0.0205035 0.600516 0.0778595 -0.0214605 0.614655 
0.0810579 -0.0224442 0.627996 0.0840613 -0.0235271 0.640321 0.0870009 -0.0247649 0.651456 
0.0899834 -0.0261838 0.661296 0.0930803 -0.0277725 0.669824 0.0963213 -0.0294786 0.677119 
0.0996929 -0.0312113 0.683345 0.103142 -0.0328498 0.688744 0.106586 -0.0342567 0.693601 
0.109922 -0.0352946 0.698217 0.113041 -0.0358441 0.702869 0.115844 -0.0358208 0.707776 
0.118254 -0.0351893 0.713073 0.120223 -0.0339713 0.718787 0.121738 -0.0322481 0.724836 
0.122822 -0.0301554 0.731031 0.123531 -0.027872 0.737096 0.12394 -0.0256021 0.742703 
0.124137 -0.0235548 0.747506 0.124208 -0.0219224 0.75118 0.124226 -0.0208592 0.753465 
0.124239 -0.0204652 0.754189 
LINES 2 100
OFFSETS vtktypeint64
0 100 
CONNECTIVITY vtktypeint64
0 1 2 3 4 5 6 7 8 
9 10 11 12 13 14 15 16 17 
18 19 20 21 22 23 24 25 26 
27 28 29 30 31 32 33 34 35 
36 37 38 39 40 41 42 43 44 
45 46 47 48 49 50 51 52 53 
54 55 56 57 58 59 60 61 62 
63 64 65 66 67 68 69 70 71 
72 73 74 75 76 77 78 79 80 
81 82 83 84 85 86 87 88 89 
90 91 92 93 94 95 96 97 98 
99 
POINT_DATA 100
FIELD FieldData 3
_theta 1 100 double
0 0.031733259127 0.063466518254 0.095199777382 0.12693303651 0.15866629564 0.19039955476 0.22213281389 0.25386607302 
0.28559933214 0.31733259127 0.3490658504 0.38079910953 0.41253236865 0.44426562778 0.47599888691 0.50773214603 0.53946540516 
0.57119866429 0.60293192342 0.63466518254 0.66639844167 0.6981317008 0.72986495992 0.76159821905 0.79333147818 0.82506473731 
0.85679799643 0.88853125556 0.92026451469 0.95199777382 0.98373103294 1.0154642921 1.0471975512 1.0789308103 1.1106640695 
1.1423973286 1.1741305877 1.2058638468 1.237597106 1.2693303651 1.3010636242 1.3327968833 1.3645301425 1.3962634016 
1.4279966607 1.4597299198 1.491463179 1.5231964381 1.5549296972 1.5866629564 1.6183962155 1.6501294746 1.6818627337 
1.7135959929 1.745329252 1.7770625111 1.8087957702 1.8405290294 1.8722622885 1.9039955476 1.9357288068 1.9674620659 
1.999195325 2.0309285841 2.0626618433 2.0943951024 2.1261283615 2.1578616206 2.1895948798 2.2213281389 2.253061398 
2.2847946572 2.3165279163 2.3482611754 2.3799944345 2.4117276937 2.4434609528 2.4751942119 2.506927471 2.5386607302 
2.5703939893 2.6021272484 2.6338605076 2.6655937667 2.6973270258 2.7290602849 2.7607935441 2.7925268032 2.8242600623 
2.8559933214 2.8877265806 2.9194598397 2.9511930988 2.982926358 3.0146596171 3.0463928762 3.0781261353 3.1098593945 
3.1415926536 
_radius 1 100 double
1.1607672416e-15 0.016087158981 0.032015993275 0.047640859535 0.062833275087 0.077487262987 0.091521824496 0.10488053848 0.11752867755 
0.12944845022 0.14063307588 0.1510804688 0.16078739255 0.1697449972 0.17793656296 0.18533798302 0.19192106395 0.19765922328 
0.20253473437 0.20654636027 0.20971604204 0.21209328856 0.21375612036 0.21480789882 0.21537008095 0.21557170968 0.21553706497 
0.21537322077 0.21515927834 0.21493887866 0.21471731758 0.21446417897 0.21412175404 0.2136185409 0.2128858839 0.21187465461 
0.21056843332 0.2089906191 0.20720520178 0.20531299073 0.20344515929 0.20175459404 0.20040486949 0.19955726688 0.19935690709 
0.19991903615 0.20131637332 0.20356894044 0.206638541 0.21042983549 0.21479832518 0.21956357049 0.2245249936 0.2294779266 
0.23422843737 0.23860614148 0.24247447779 0.24573798057 0.24834616446 0.25029383973 0.25161793472 0.25239112935 0.25271277667 
0.25269777428 0.25246431405 0.25212174921 0.25176000741 0.25144185671 0.25119883537 0.25103090732 0.25090913701 0.25078011535 
0.25057067393 0.2501916883 0.24954047813 0.248502248 0.24695176137 0.24475661277 0.24178299067 0.23790397707 0.2330095751 
0.22701704319 0.2198798399 0.21159352601 0.20219724776 0.1917699082 0.18042098798 0.16827749188 0.15547045162 0.14212529778 
0.1283584391 0.1142784528 0.09998787854 0.085582426961 0.071146843169 0.056748640436 0.042431817842 0.028212773435 0.014080213522 
1.8906492238e-15 
_area 1 100 double
0 0.00063014263382 0.0025175621471 0.0056478040936 0.0099815685779 0.015439965353 0.021895075212 0.029170046211 0.037049629181 
0.04529867945 0.053683529298 0.061990218374 0.070034899166 0.077664967985 0.084753339119 0.091191049264 0.096883702675 0.10175490614 
0.10575582928 0.1088762967 0.11115139545 0.11265938504 0.11351077818 0.11383251867 0.11375300233 0.11339235578 0.11285874601 
0.11224789196 0.11164204995 0.11110724381 0.11068988983 0.11041378987 0.11027872711 0.11026276826 0.11032979357 0.1104408818 
0.11056485519 0.11068381057 0.11079555338 0.11091898034 0.11110283286 0.11143110264 0.11201794149 0.11299036878 0.1144670596 
0.11654484613 0.11929428944 0.12275635518 0.12693693955 0.13180429005 0.13729121305 0.14329616946 0.14967894845 0.15625460941 
0.16279314997 0.16902964164 0.17468583258 0.179502106 0.18327550172 0.18589491151 0.18736259905 0.18779435749 0.18739717932 
0.18643010623 0.18515795052 0.18380663581 0.18252606404 0.18136966697 0.18030284985 0.17923664349 0.17806462372 0.17668650179 
0.17501832279 0.17299457037 0.17056121047 0.16765419008 0.1641665183 0.1599268217 0.15471924696 0.14834450352 0.14068639696 
0.13175494897 0.12170163735 0.11080957489 0.09945934862 0.08807189587 0.077034618807 0.066627290335 0.056978286905 0.048079696303 
0.039855228317 0.032239073655 0.025225327011 0.018874918317 0.013291686078 0.0085883044108 0.004858845883 0.0021659313692 0.00054216195572 
9.1606868036e-18 
