# vtk DataFile Version 5.1
vtk output
ASCII
DATASET POLYDATA
POINTS 100 float
0.0827954 -0.0307679 0.652586 0.082994 -0.0308698 0.652474 0.083525 -0.0312962 0.652274 
0.0843303 -0.031966 0.651951 0.0853206 -0.0327558 0.651454 0.0863854 -0.0335153 0.650712 
0.0874065 -0.0340858 0.649645 0.0882705 -0.03432 0.648162 0.0888815 -0.0341005 0.646171 
0.0891703 -0.033354 0.643579 0.0890997 -0.0320609 0.640301 0.0886658 -0.0302575 0.63626 
0.0878937 -0.0280325 0.631395 0.0868307 -0.0255161 0.625659 0.0855351 -0.0228648 0.619024 
0.0840645 -0.0202435 0.611482 0.0824643 -0.0178061 0.603044 0.0807584 -0.0156788 0.593742 
0.0789427 -0.0139458 0.583622 0.0769836 -0.0126413 0.572751 0.0748202 -0.0117471 0.561204 
0.0723715 -0.0111968 0.549071 0.0695469 -0.0108848 0.536445 0.0662577 -0.0106812 0.523423 
0.06243 -0.0104471 0.5101 0.0580158 -0.0100523 0.496563 0.0530004 -0.00939027 0.482891 
0.0474069 -0.00839003 0.469149 0.0412948 -0.00702383 0.455382 0.0347544 -0.00530914 0.441619 
0.027897 -0.00330572 0.427867 0.0208422 -0.00110796 0.41411 0.0137042 0.00116605 0.400315 
0.00657831 0.0033874 0.386429 -0.000470002 0.00542934 0.372385 -0.00741185 0.00717907 0.358106 
-0.0142572 0.0085467 0.343507 -0.0210517 0.00947084 0.328505 -0.0278678 0.00992033 0.313017 
-0.0347931 0.00989231 0.29697 -0.041914 0.00940733 0.280302 -0.0493002 0.00850241 0.262968 
-0.0569891 0.00722325 0.244935 -0.0649736 0.00561685 0.226188 -0.0731942 0.00372536 0.206731 
-0.0815366 0.0015821 0.186577 -0.0898348 -0.000790126 0.165758 -0.0978809 -0.0033782 0.144311 
-0.105438 -0.00617598 0.122283 -0.112258 -0.0091802 0.0997268 -0.1181 -0.0123859 0.0766985 
-0.122748 -0.0157823 0.0532564 -0.126026 -0.019349 0.0294608 -0.127813 -0.0230549 0.0053734 
-0.128046 -0.0268575 -0.0189421 -0.126724 -0.0307046 -0.0434197 -0.123905 -0.0345371 -0.0679906 
-0.119695 -0.0382919 -0.0925825 -0.114238 -0.0419056 -0.11712 -0.1077 -0.0453172 -0.141526 
-0.100258 -0.04847 -0.16572 -0.0920841 -0.0513121 -0.189623 -0.0833324 -0.0537955 -0.213158 
-0.0741354 -0.0558752 -0.236251 -0.0645975 -0.0575063 -0.258836 -0.0547956 -0.0586429 -0.280852 
-0.0447824 -0.0592366 -0.302253 -0.0345926 -0.0592369 -0.322998 -0.0242511 -0.0585927 -0.343062 
-0.0137807 -0.0572563 -0.362425 -0.00321043 -0.0551876 -0.381081 0.00741837 -0.0523605 -0.399029 
0.0180478 -0.0487682 -0.416275 0.0286018 -0.0444287 -0.432828 0.0389874 -0.0393884 -0.4487 
0.049098 -0.033723 -0.463903 0.0588188 -0.0275368 -0.478451 0.0680332 -0.0209577 -0.492354 
0.0766297 -0.0141311 -0.505623 0.0845089 -0.00721055 -0.518268 0.0915889 -0.000348398 -0.530299 
0.0978101 0.00631449 -0.541726 0.103138 0.0126574 -0.552559 0.107564 0.0185865 -0.562808 
0.111106 0.0240392 -0.572487 0.113803 0.0289844 -0.581604 0.115719 0.0334206 -0.59017 
0.116932 0.0373708 -0.59819 0.117532 0.0408747 -0.605668 0.117619 0.0439812 -0.612601 
0.117298 0.0467396 -0.61898 0.116673 0.0491923 -0.62479 0.115846 0.05137 -0.630011 
0.114913 0.0532881 -0.634618 0.113962 0.0549474 -0.638581 0.113071 0.0563354 -0.641872 
0.112305 0.0574315 -0.644461 0.111718 0.0582115 -0.646324 0.111348 0.0586537 -0.647442 
0.111218 0.0587436 -0.647802 
LINES 2 100
OFFSETS vtktypeint64
0 100 
CONNECTIVITY vtktypeint64
0 1 2 3 4 5 6 7 8 
9 10 11 12 13 14 15 16 17 
18 19 20 21 22 23 24 25 26 
27 28 29 30 31 32 33 34 35 
36 37 38 39 40 41 42 43 44 
45 46 47 48 49 50 51 52 53 
54 55 56 57 58 59 60 61 62 
63 64 65 66 67 68 69 70 71 
72 73 74 75 76 77 78 79 80 
81 82 83 84 85 86 87 88 89 
90 91 92 93 94 95 96 97 98 
99 
POINT_DATA 100
FIELD FieldData 3
_theta 1 100 double
0 0.031733259127 0.063466518254 0.095199777382 0.12693303651 0.15866629564 0.19039955476 0.22213281389 0.25386607302 
0.28559933214 0.31733259127 0.3490658504 0.38079910953 0.41253236865 0.44426562778 0.47599888691 0.50773214603 0.53946540516 
0.57119866429 0.60293192342 0.63466518254 0.66639844167 0.6981317008 0.72986495992 0.76159821905 0.79333147818 0.82506473731 
0.85679799643 0.88853125556 0.92026451469 0.95199777382 0.98373103294 1.0154642921 1.0471975512 1.0789308103 1.1106640695 
1.1423973286 1.1741305877 1.2058638468 1.237597106 1.2693303651 1.3010636242 1.3327968833 1.3645301425 1.3962634016 
1.4279966607 1.4597299198 1.491463179 1.5231964381 1.5549296972 1.5866629564 1.6183962155 1.6501294746 1.6818627337 
1.7135959929 1.745329252 1.7770625111 1.8087957702 1.8405290294 1.8722622885 1.9039955476 1.9357288068 1.9674620659 
1.999195325 2.0309285841 2.0626618433 2.0943951024 2.1261283615 2.1578616206 2.1895948798 2.2213281389 2.253061398 
2.2847946572 2.3165279163 2.3482611754 2.3799944345 2.4117276937 2.4434609528 2.4751942119 2.506927471 2.5386607302 
2.5703939893 2.6021272484 2.6338605076 2.6655937667 2.6973270258 2.7290602849 2.7607935441 2.7925268032 2.8242600623 
2.8559933214 2.8877265806 2.9194598397 2.9511930988 2.982926358 3.0146596171 3.0463928762 3.0781261353 3.1098593945 
3.1415926536 
_radius 1 100 double
1.2327038274e-15 0.014597523794 0.029236446815 0.04395483924 0.058764785712 0.073643575332 0.088529758954 0.10332458014 0.11789848921 
0.13210175508 0.14577771614 0.15877699068 0.17097096308 0.18226302076 0.19259629866 0.20195707849 0.21037348127 0.21790965984 
0.22465628712 0.23071866611 0.23620417276 0.2412108988 0.24581920571 0.25008736829 0.25405160201 0.25772970527 0.26112663358 
0.26423991541 0.26706314947 0.26958684835 0.2717972389 0.27367462529 0.27519293137 0.27632105435 0.27702548762 0.27727315998 
0.2770336984 0.27628090306 0.27499373699 0.27315745261 0.27076557993 0.26782334046 0.26435257568 0.26039753012 0.25603001631 
0.25135195813 0.24649339959 0.24160492774 0.23684491295 0.23236353188 0.22828663723 0.22470282303 0.22165646972 0.21914823461 
0.21714254566 0.21557964189 0.2143884726 0.21349706502 0.21283867367 0.21235415835 0.21199248922 0.21171145741 0.2114797197 
0.21127988239 0.21111118237 0.21098997819 0.21094692727 0.21102108527 0.21125217488 0.21167205928 0.21229572602 0.2131122069 
0.21407675101 0.21510612231 0.21607856672 0.21683903286 0.21720912429 0.21700041176 0.21602935552 0.21413213209 0.21117786329 
0.20707889644 0.20179696341 0.19534444225 0.18778051929 0.17920260512 0.16973380428 0.15950764567 0.14865174228 0.13727256707 
0.12544395237 0.11320192612 0.10054773091 0.087459194571 0.073908390366 0.059881568445 0.045396509949 0.030513095444 0.015334666424 
1.1201515645e-15 
_area 1 100 double
0 0.00057493871089 0.0023109081148 0.0052370104946 0.0093881419991 0.014787589825 0.021428009098 0.029254686106 0.038154420555 
0.047952169461 0.058416314535 0.069272528682 0.08022565236 0.09098804817 0.10131099371 0.11101324358 0.11999953288 0.12826317325 
0.13587117124 0.1429356089 0.14957898554 0.15590277026 0.16196751771 0.16778938192 0.17335212149 0.1786279404 0.1835977249 
0.18826268624 0.19264394541 0.1967722717 0.20067510366 0.20436809057 0.20784244009 0.21101175944 0.21366309306 0.21549184975 
0.21622295361 0.21566292421 0.21371132296 0.21040133312 0.20589475552 0.20030887637 0.19405155881 0.1874495779 0.18077123656 
0.17410212994 0.16752883486 0.16121032544 0.15531763165 0.14998560705 0.14528330094 0.14120399786 0.13767470435 0.13457777541 
0.13178735025 0.1292782786 0.1270802389 0.12487765268 0.12246126858 0.11977572945 0.1168444121 0.11375191276 0.11062897372 
0.10762515507 0.10487917182 0.10250154505 0.10056785912 0.099110470681 0.098112433763 0.097520771427 0.097290383414 0.097486510998 
0.098079624802 0.098937227536 0.099990119502 0.1011582938 0.10218828515 0.10282587407 0.10286648462 0.10212650603 0.10045108176 
0.097730660327 0.09391946126 0.089045733809 0.083209364513 0.076569875479 0.069329077627 0.061710904008 0.053940399053 0.046224760518 
0.038740059962 0.031626634615 0.024994072857 0.018933741607 0.013533921522 0.0088912512386 0.0051134020454 0.0023113846478 0.0005840104297 
1.6383200196e-17 
