# vtk DataFile Version 5.1
vtk output
ASCII
DATASET POLYDATA
POINTS 100 float
0.135479 0.0449016 -0.678143 0.135399 0.0448877 -0.678375 0.135116 0.0449863 -0.678976 
0.134606 0.0451644 -0.679842 0.133837 0.0453702 -0.680808 0.13277 0.0455363 -0.681661 
0.131369 0.045585 -0.682159 0.129604 0.0454327 -0.682049 0.127457 0.0449963 -0.681082 
0.124925 0.0441975 -0.679036 0.12202 0.0429684 -0.675727 0.118762 0.0412544 -0.671021 
0.115178 0.039018 -0.664843 0.111293 0.0362401 -0.657171 0.107125 0.0329209 -0.648039 
0.102674 0.0290798 -0.637527 0.0979255 0.0247546 -0.62575 0.0928443 0.0199996 -0.612847 
0.0873806 0.0148837 -0.598964 0.0814755 0.00948798 -0.584247 0.0750706 0.00390281 -0.568828 
0.0681179 -0.00177516 -0.552819 0.0605907 -0.00744612 -0.536306 0.0524919 -0.0130104 -0.519346 
0.0438588 -0.0183719 -0.501974 0.034765 -0.0234415 -0.484199 0.0253158 -0.0281403 -0.466014 
0.0156401 -0.0324023 -0.447402 0.0058787 -0.0361772 -0.428339 -0.00382974 -0.039432 -0.408803 
-0.0133628 -0.042151 -0.388774 -0.0226264 -0.0443366 -0.36824 -0.0315629 -0.0460064 -0.347197 
-0.0401541 -0.0471913 -0.325647 -0.0484186 -0.0479314 -0.303598 -0.0564022 -0.0482719 -0.281061 
-0.064165 -0.0482579 -0.258048 -0.0717634 -0.0479303 -0.234575 -0.079233 -0.0473222 -0.210652 
-0.086572 -0.0464555 -0.186292 -0.0937292 -0.0453405 -0.16151 -0.100598 -0.0439761 -0.136322 
-0.107018 -0.0423519 -0.110753 -0.112785 -0.0404526 -0.0848399 -0.117666 -0.0382628 -0.0586306 
-0.12142 -0.0357724 -0.032191 -0.123826 -0.032983 -0.00560413 -0.124705 -0.0299124 0.0210293 
-0.123939 -0.0265982 0.047593 -0.121491 -0.0231002 0.073958 -0.117408 -0.0194992 0.0999876 
-0.11182 -0.0158947 0.125543 -0.10493 -0.0123995 0.150491 -0.096992 -0.00913325 0.174706 
-0.0882905 -0.00621383 0.198085 -0.0791093 -0.00374932 0.220541 -0.0697063 -0.00182961 0.242019 
-0.0602908 -0.000519551 0.26249 -0.0510074 0.000146134 0.281955 -0.0419285 0.000165454 0.300446 
-0.0330566 -0.000430866 0.318021 -0.0243353 -0.00158206 0.334759 -0.0156678 -0.00320234 0.35076 
-0.00693979 -0.00518781 0.366137 0.00195517 -0.00742443 0.381008 0.0110932 -0.00979644 0.395493 
0.0205018 -0.0121942 0.409705 0.030149 -0.0145211 0.423751 0.0399414 -0.0166985 0.437717 
0.0497305 -0.0186687 0.451673 0.0593283 -0.0203961 0.465667 0.0685267 -0.0218658 0.479719 
0.077122 -0.0230809 0.493828 0.0849377 -0.0240589 0.507962 0.0918443 -0.0248266 0.522069 
0.0977736 -0.0254158 0.53607 0.102724 -0.0258595 0.549868 0.106759 -0.0261883 0.563353 
0.109994 -0.0264285 0.576398 0.112582 -0.0266015 0.588877 0.114691 -0.0267231 0.600661 
0.116481 -0.0268055 0.611629 0.118085 -0.0268576 0.621671 0.119592 -0.0268873 0.630697 
0.121042 -0.0269022 0.638641 0.122421 -0.0269109 0.645464 0.123674 -0.0269226 0.651154 
0.124713 -0.026947 0.655735 0.12544 -0.0269932 0.659259 0.125769 -0.0270686 0.661806 
0.12564 -0.0271771 0.663485 0.125037 -0.0273188 0.664421 0.123996 -0.0274884 0.664757 
0.122609 -0.0276762 0.664642 0.121009 -0.0278679 0.664226 0.119364 -0.0280466 0.66365 
0.117853 -0.0281941 0.663043 0.116646 -0.0282936 0.66251 0.115883 -0.0283311 0.662132 
0.115654 -0.0282973 0.66196 
LINES 2 100
OFFSETS vtktypeint64
0 100 
CONNECTIVITY vtktypeint64
0 1 2 3 4 5 6 7 8 
9 10 11 12 13 14 15 16 17 
18 19 20 21 22 23 24 25 26 
27 28 29 30 31 32 33 34 35 
36 37 38 39 40 41 42 43 44 
45 46 47 48 49 50 51 52 53 
54 55 56 57 58 59 60 61 62 
63 64 65 66 67 68 69 70 71 
72 73 74 75 76 77 78 79 80 
81 82 83 84 85 86 87 88 89 
90 91 92 93 94 95 96 97 98 
99 
POINT_DATA 100
FIELD FieldData 3
_theta 1 100 double
0 0.031733259127 0.063466518254 0.095199777382 0.12693303651 0.15866629564 0.19039955476 0.22213281389 0.25386607302 
0.28559933214 0.31733259127 0.3490658504 0.38079910953 0.41253236865 0.44426562778 0.47599888691 0.50773214603 0.53946540516 
0.57119866429 0.60293192342 0.63466518254 0.66639844167 0.6981317008 0.72986495992 0.76159821905 0.79333147818 0.82506473731 
0.85679799643 0.88853125556 0.92026451469 0.95199777382 0.98373103294 1.0154642921 1.0471975512 1.0789308103 1.1106640695 
1.1423973286 1.1741305877 1.2058638468 1.237597106 1.2693303651 1.3010636242 1.3327968833 1.3645301425 1.3962634016 
1.4279966607 1.4597299198 1.491463179 1.5231964381 1.5549296972 1.5866629564 1.6183962155 1.6501294746 1.6818627337 
1.7135959929 1.745329252 1.7770625111 1.8087957702 1.8405290294 1.8722622885 1.9039955476 1.9357288068 1.9674620659 
1.999195325 2.0309285841 2.0626618433 2.0943951024 2.1261283615 2.1578616206 2.1895948798 2.2213281389 2.253061398 
2.2847946572 2.3165279163 2.3482611754 2.3799944345 2.4117276937 2.4434609528 2.4751942119 2.506927471 2.5386607302 
2.5703939893 2.6021272484 2.6338605076 2.6655937667 2.6973270258 2.7290602849 2.7607935441 2.7925268032 2.8242600623 
2.8559933214 2.8877265806 2.9194598397 2.9511930988 2.982926358 3.0146596171 3.0463928762 3.0781261353 3.1098593945 
3.1415926536 
_radius 1 100 double
1.5895974607e-15 0.013351038246 0.026738811784 0.040188595706 0.053695876574 0.067213949329 0.080645778338 0.093842287992 0.10660861157 
0.11871851764 0.12993564503 0.14003876959 0.14884742922 0.1562439871 0.16218861047 0.16672464469 0.16997342854 0.1721195942 
0.17338987776 0.17402965014 0.17428110706 0.17436550303 0.17446998551 0.17473846269 0.17526576468 0.17609482549 0.17721734045 
0.17857893241 0.18008967957 0.1816394681 0.18311548839 0.18441761882 0.18546774877 0.18621197218 0.18661891399 0.1866789075 
0.18640490411 0.18583239088 0.18501673781 0.18402889467 0.18295074505 0.18187030763 0.18087616356 0.18005102648 0.17946600857 
0.17917826136 0.17923359709 0.17967274746 0.1805374446 0.18187240142 0.18372129614 0.18611753256 0.18907256333 0.19256536981 
0.19653626824 0.20088686611 0.2054862281 0.21018172157 0.21481212837 0.21922066905 0.22326633845 0.22683278805 0.22983441651 
0.23221938016 0.23396935553 0.23509638925 0.2356378734 0.23565108442 0.23520846553 0.23439397518 0.23329974545 0.23202144909 
0.23065058743 0.22926277856 0.22790318166 0.22657273245 0.22522013622 0.2237430459 0.22199820603 0.21981720074 0.2170236927 
0.21344923349 0.20894630835 0.20339826893 0.19672614463 0.18889234408 0.17990125189 0.16979680294 0.15865727157 0.14658772159 
0.13371080994 0.12015689116 0.10605455936 0.091522785921 0.076665581488 0.061569627912 0.046304707995 0.030926215723 0.015478762904 
3.3786264894e-16 
_area 1 100 double
0 0.00042656211724 0.0017258007737 0.0039510715894 0.0071729574251 0.011451412411 0.016800500979 0.023153840355 0.030340672861 
0.038081332824 0.046007086862 0.053703332376 0.0607678801 0.066869661867 0.071791124609 0.075442860681 0.077850502304 0.079124729176 
0.079428781118 0.078953969127 0.077907048675 0.076507688739 0.074988898769 0.073587583714 0.072515668945 0.071921877178 0.071866803586 
0.072324672508 0.073210603442 0.074415720836 0.075832218051 0.077365889174 0.078938289973 0.080475404938 0.08188929052 0.083077544438 
0.083951743944 0.084475508417 0.084689802164 0.084717091095 0.084737907376 0.08493025875 0.085398580555 0.086148704266 0.087112160185 
0.088189760116 0.089304019975 0.090450468583 0.091732970772 0.093373054046 0.095681700187 0.098974880219 0.10344514306 0.10906418115 
0.1155787332 0.12258833492 0.12964492605 0.13632903599 0.14230092749 0.14733541471 0.15134065664 0.15435625174 0.15652463446 
0.15803036461 0.15901146155 0.15947899131 0.1593141529 0.15836376908 0.15655326622 0.15393786357 0.15068946445 0.14705269246 
0.14329700182 0.13967456311 0.13637942892 0.13350216857 0.13099222332 0.12865874098 0.12622034262 0.12337448857 0.11985502602 
0.11546782698 0.11010587782 0.10374833697 0.096449672881 0.088325365579 0.079539111509 0.070293474728 0.06082249587 0.051382319242 
0.042236427888 0.033635845666 0.025798543141 0.018893232348 0.013031080926 0.0082666794973 0.0046078286879 0.002031975769 0.0005053378106 
5.2536159747e-17 
