# vtk DataFile Version 5.1
vtk output
ASCII
DATASET POLYDATA
POINTS 100 float
0.169318 0.0886839 -0.630904 0.169419 0.0886857 -0.630938 0.169694 0.0884899 -0.631017 
0.170094 0.088078 -0.63106 0.170534 0.0874209 -0.630944 0.170908 0.0864799 -0.630514 
0.171088 0.0852089 -0.629604 0.170938 0.0835567 -0.628052 0.170319 0.0814702 -0.625718 
0.169098 0.0788977 -0.622497 0.167158 0.0757923 -0.618329 0.164401 0.0721166 -0.613201 
0.160755 0.0678455 -0.607146 0.156176 0.0629704 -0.600234 0.150651 0.0575014 -0.59256 
0.144198 0.0514693 -0.58423 0.136862 0.0449266 -0.575342 0.128711 0.0379461 -0.565976 
0.119837 0.0306196 -0.556182 0.110346 0.0230538 -0.545973 0.100356 0.0153661 -0.535321 
0.0899882 0.00767893 -0.524166 0.0793652 0.000113423 -0.512422 0.0686031 -0.00721638 -0.499986 
0.0578078 -0.0142094 -0.486758 0.0470709 -0.0207819 -0.47265 0.0364663 -0.0268714 -0.457596 
0.0260483 -0.0324373 -0.441567 0.0158506 -0.0374614 -0.424567 0.00588759 -0.0419451 -0.40664 
-0.00384428 -0.0459058 -0.387857 -0.0133621 -0.0493715 -0.368313 -0.0226916 -0.0523748 -0.348111 
-0.0318612 -0.0549471 -0.327353 -0.0408946 -0.0571126 -0.306127 -0.0498046 -0.0588846 -0.284498 
-0.058586 -0.0602624 -0.262506 -0.0672108 -0.0612307 -0.24016 -0.0756246 -0.0617617 -0.217445 
-0.0837455 -0.0618184 -0.19433 -0.0914658 -0.0613605 -0.170779 -0.0986559 -0.0603505 -0.146758 
-0.105171 -0.0587611 -0.122255 -0.110861 -0.0565816 -0.0972845 -0.115579 -0.0538236 -0.0718949 
-0.119193 -0.0505241 -0.046174 -0.121595 -0.0467466 -0.0202456 -0.122712 -0.0425798 0.00573622 
-0.12251 -0.0381329 0.0315969 -0.120999 -0.0335295 0.0571541 -0.118231 -0.0288989 0.0822311 
-0.114298 -0.0243673 0.106671 -0.109326 -0.0200489 0.130346 -0.103464 -0.0160376 0.153168 
-0.0968752 -0.0124018 0.175093 -0.0897257 -0.00918025 0.196119 -0.082173 -0.00638244 0.216281 
-0.0743578 -0.00399085 0.235648 -0.066397 -0.00196651 0.254307 -0.05838 -0.00025648 0.272356 
-0.0503682 0.00119761 0.28989 -0.0423969 0.00245071 0.306994 -0.0344805 0.00354663 0.323731 
-0.0266179 0.00451208 0.340145 -0.0188007 0.00535351 0.356254 -0.0110195 0.0060569 0.372059 
-0.00326995 0.00659084 0.38754 0.00444264 0.00691219 0.402674 0.0121013 0.006974 0.417433 
0.0196774 0.00673432 0.431796 0.0271326 0.00616503 0.445749 0.0344225 0.00525937 0.459296 
0.0415011 0.00403704 0.47245 0.0483257 0.00254633 0.485237 0.0548606 0.000862464 0.497687 
0.0610808 -0.000917436 0.509831 0.0669726 -0.00268264 0.52169 0.0725338 -0.0043193 0.533273 
0.0777716 -0.0057221 0.544565 0.0826987 -0.00680555 0.555531 0.0873302 -0.00751381 0.566107 
0.0916787 -0.00782751 0.576211 0.0957512 -0.00776688 0.585739 0.0995464 -0.00739055 0.594581 
0.103055 -0.00679005 0.602624 0.106258 -0.00608048 0.609767 0.109133 -0.00538834 0.615928 
0.111658 -0.00483772 0.621054 0.11381 -0.00453661 0.625129 0.115579 -0.00456458 0.628177 
0.116965 -0.00496353 0.630263 0.117985 -0.0057325 0.631491 0.118671 -0.00682713 0.631998 
0.11907 -0.00816406 0.631947 0.119242 -0.00962967 0.631513 0.119254 -0.0110923 0.630872 
0.119172 -0.0124166 0.630191 0.119057 -0.0134784 0.629613 0.118959 -0.0141784 0.629247 
0.118909 -0.0144532 0.629162 
LINES 2 100
OFFSETS vtktypeint64
0 100 
CONNECTIVITY vtktypeint64
0 1 2 3 4 5 6 7 8 
9 10 11 12 13 14 15 16 17 
18 19 20 21 22 23 24 25 26 
27 28 29 30 31 32 33 34 35 
36 37 38 39 40 41 42 43 44 
45 46 47 48 49 50 51 52 53 
54 55 56 57 58 59 60 61 62 
63 64 65 66 67 68 69 70 71 
72 73 74 75 76 77 78 79 80 
81 82 83 84 85 86 87 88 89 
90 91 92 93 94 95 96 97 98 
99 
POINT_DATA 100
FIELD FieldData 3
_theta 1 100 double
0 0.031733259127 0.063466518254 0.095199777382 0.12693303651 0.15866629564 0.19039955476 0.22213281389 0.25386607302 
0.28559933214 0.31733259127 0.3490658504 0.38079910953 0.41253236865 0.44426562778 0.47599888691 0.50773214603 0.53946540516 
0.57119866429 0.60293192342 0.63466518254 0.66639844167 0.6981317008 0.72986495992 0.76159821905 0.79333147818 0.82506473731 
0.85679799643 0.88853125556 0.92026451469 0.95199777382 0.98373103294 1.0154642921 1.0471975512 1.0789308103 1.1106640695 
1.1423973286 1.1741305877 1.2058638468 1.237597106 1.2693303651 1.3010636242 1.3327968833 1.3645301425 1.3962634016 
1.4279966607 1.4597299198 1.491463179 1.5231964381 1.5549296972 1.5866629564 1.6183962155 1.6501294746 1.6818627337 
1.7135959929 1.745329252 1.7770625111 1.8087957702 1.8405290294 1.8722622885 1.9039955476 1.9357288068 1.9674620659 
1.999195325 2.0309285841 2.0626618433 2.0943951024 2.1261283615 2.1578616206 2.1895948798 2.2213281389 2.253061398 
2.2847946572 2.3165279163 2.3482611754 2.3799944345 2.4117276937 2.4434609528 2.4751942119 2.506927471 2.5386607302 
2.5703939893 2.6021272484 2.6338605076 2.6655937667 2.6973270258 2.7290602849 2.7607935441 2.7925268032 2.8242600623 
2.8559933214 2.8877265806 2.9194598397 2.9511930988 2.982926358 3.0146596171 3.0463928762 3.0781261353 3.1098593945 
3.1415926536 
_radius 1 100 double
2.7476618027e-16 0.015276284476 0.030432285507 0.045347685532 0.059910568627 0.074020056226 0.087587321056 0.10053513975 0.11279649829 
0.12431295104 0.1350334021 0.14491375201 0.15391752167 0.16201725171 0.16919627545 0.17545042135 0.18078929573 0.18523696895 
0.18883206031 0.19162731635 0.19368876232 0.19509439849 0.19593229973 0.19629796231 0.19629087463 0.19601050776 0.19555209361 
0.19500256091 0.19443681941 0.19391434239 0.19347590175 0.19314051408 0.19290315949 0.19273443523 0.19258366619 0.19238675969 
0.19207903194 0.19161141209 0.19096637218 0.19016861085 0.1892861076 0.18842040621 0.18768980062 0.1872119988 0.18709150308 
0.18741354869 0.18824393426 0.18963243387 0.1916162616 0.19422026387 0.19745262561 0.20129768928 0.20570924509 0.21060745405 
0.21588084427 0.22139285613 0.22699129401 0.23251896322 0.23782421234 0.24277050323 0.24724430998 0.2511607396 0.25446644241 
0.25713966485 0.25918758732 0.26064129606 0.26154886375 0.26196712783 0.26195290737 0.26155456388 0.26080490209 0.25971633889 
0.25827901514 0.25646212516 0.25421824764 0.25148993132 0.24821731441 0.24434531595 0.23982910287 0.23463710492 0.22875158985 
0.22216740094 0.21488968399 0.2069312927 0.19831023219 0.18904719984 0.17916315664 0.16867693689 0.1576031079 0.14595051001 
0.13372203435 0.12091616014 0.10753055026 0.093567608325 0.079041384881 0.06398468763 0.048454865017 0.032536687798 0.016341169807 
1.37505023e-15 
_area 1 100 double
0 0.00061135019446 0.0024263067287 0.0053896725769 0.0094156083427 0.014394381734 0.020197823429 0.026681528806 0.033683652078 
0.041022452486 0.048496091629 0.055887492528 0.062974805908 0.069545644117 0.075412017322 0.080423242169 0.084475407099 0.087517187679 
0.089552204105 0.090637855575 0.090880293245 0.09042535934 0.089445937337 0.088126981689 0.086650205914 0.085179678939 0.083837401218 
0.082795136205 0.081863426774 0.081003724969 0.080235010269 0.079613834934 0.079210229279 0.079060809619 0.079171584605 0.079516009117 
0.080034727582 0.080664293178 0.081384628311 0.082248851211 0.083357890337 0.084807045186 0.08666223833 0.088953906646 0.091672422365 
0.094770322019 0.098178400158 0.10183497508 0.10571624651 0.10985016261 0.1143051048 0.11916082833 0.12447698034 0.13027026955 
0.13650422403 0.1430897995 0.14989197243 0.15673889752 0.16343327682 0.16976581339 0.17552928788 0.18053293979 0.18461889998 
0.18767963467 0.18966981334 0.19060674285 0.19056022133 0.18963686968 0.18796283277 0.18566634259 0.18286155515 0.17963621215 
0.17604522443 0.17211017133 0.16782330527 0.16315480388 0.15806223297 0.15250059813 0.14643114088 0.1398282063 0.13268480086 
0.12501688247 0.11686468409 0.10828941392 0.099366355391 0.090178239889 0.080813120129 0.07136825033 0.061957239702 0.052714900737 
0.04379507456 0.035360771185 0.027570249597 0.020564469581 0.014460042979 0.0093486266321 0.0053006049128 0.00236951877 0.00059448547143 
5.7682076863e-17 
