# vtk DataFile Version 5.1
vtk output
ASCII
DATASET POLYDATA
POINTS 100 float
0.151684 0.106964 -0.661408 0.151596 0.10685 -0.661032 0.151351 0.106701 -0.659908 
0.15095 0.106467 -0.658058 0.150396 0.106074 -0.655518 0.14969 0.105425 -0.652337 
0.148829 0.104416 -0.648567 0.147806 0.102942 -0.644265 0.146606 0.100908 -0.639485 
0.145209 0.0982386 -0.634275 0.143586 0.0948852 -0.628673 0.141703 0.0908286 -0.622699 
0.139522 0.0860811 -0.61636 0.137003 0.080685 -0.609643 0.134107 0.0747075 -0.602517 
0.1308 0.0682354 -0.594933 0.127052 0.0613671 -0.586832 0.122843 0.0542054 -0.578143 
0.118162 0.0468506 -0.568794 0.113004 0.0393948 -0.558712 0.107374 0.0319178 -0.547835 
0.101281 0.024486 -0.536113 0.0947387 0.017152 -0.523513 0.0877605 0.00995716 -0.510022 
0.0803606 0.00293425 -0.495649 0.072552 -0.00388821 -0.480421 0.0643463 -0.0104824 -0.464383 
0.0557556 -0.0168177 -0.447592 0.0467943 -0.0228589 -0.430113 0.037482 -0.0285653 -0.412009 
0.0278475 -0.0338911 -0.393341 0.0179313 -0.0387882 -0.374156 0.00778923 -0.0432084 -0.354489 
-0.00250632 -0.0471075 -0.334354 -0.0128655 -0.0504487 -0.313753 -0.0231823 -0.0532059 -0.292669 
-0.0333367 -0.0553662 -0.271076 -0.0431989 -0.0569303 -0.248944 -0.052634 -0.057913 -0.226242 
-0.0615078 -0.0583414 -0.202952 -0.0696924 -0.0582522 -0.179069 -0.0770715 -0.0576892 -0.154611 
-0.0835449 -0.0566992 -0.129624 -0.0890321 -0.0553293 -0.104177 -0.093474 -0.0536243 -0.0783703 
-0.0968338 -0.0516249 -0.0523251 -0.0990966 -0.0493671 -0.0261821 -0.100267 -0.0468829 -9.318e-05 
-0.10037 -0.0442016 0.0257866 -0.099443 -0.0413518 0.0513073 -0.097539 -0.0383633 0.0763324 
-0.0947213 -0.0352698 0.100745 -0.0910624 -0.0321098 0.124454 -0.0866426 -0.0289275 0.147395 
-0.0815484 -0.0257723 0.169535 -0.0758718 -0.0226976 0.190867 -0.0697085 -0.0197584 0.211407 
-0.0631566 -0.0170078 0.231194 -0.0563141 -0.0144942 0.250278 -0.0492766 -0.0122577 0.268717 
-0.0421337 -0.0103273 0.286572 -0.0349664 -0.00871871 0.303901 -0.0278436 -0.00743365 0.320754 
-0.0208192 -0.00646002 0.337174 -0.0139313 -0.00577333 0.353193 -0.00720074 -0.00533923 0.368832 
-0.000632884 -0.00511678 0.384105 0.00578026 -0.00506219 0.39902 0.0120561 -0.00513247 0.413579 
0.0182167 -0.00528886 0.427784 0.0242834 -0.00549946 0.441636 0.0302718 -0.00574102 0.455136 
0.0361869 -0.00599956 0.468289 0.0420206 -0.00627007 0.481098 0.04775 -0.0065551 0.493569 
0.0533385 -0.0068628 0.505704 0.0587381 -0.00720435 0.517504 0.0638943 -0.00759132 0.528963 
0.0687519 -0.00803325 0.54007 0.0732611 -0.00853559 0.550808 0.0773839 -0.00909834 0.561152 
0.081099 -0.00971541 0.571072 0.0844053 -0.0103748 0.580532 0.0873229 -0.0110595 0.589494 
0.0898917 -0.011749 0.59792 0.0921677 -0.0124207 0.605775 0.0942169 -0.0130527 0.613028 
0.0961086 -0.013625 0.619656 0.0979071 -0.0141216 0.625643 0.0996647 -0.0145314 0.630984 
0.101415 -0.0148494 0.635685 0.10317 -0.0150763 0.63976 0.104918 -0.0152185 0.643232 
0.106624 -0.015287 0.646131 0.108235 -0.015296 0.648489 0.109688 -0.0152617 0.650342 
0.110913 -0.0152001 0.651723 0.111846 -0.0151258 0.652662 0.112434 -0.0150503 0.653184 
0.112644 -0.0149812 0.653304 
LINES 2 100
OFFSETS vtktypeint64
0 100 
CONNECTIVITY vtktypeint64
0 1 2 3 4 5 6 7 8 
9 10 11 12 13 14 15 16 17 
18 19 20 21 22 23 24 25 26 
27 28 29 30 31 32 33 34 35 
36 37 38 39 40 41 42 43 44 
45 46 47 48 49 50 51 52 53 
54 55 56 57 58 59 60 61 62 
63 64 65 66 67 68 69 70 71 
72 73 74 75 76 77 78 79 80 
81 82 83 84 85 86 87 88 89 
90 91 92 93 94 95 96 97 98 
99 
POINT_DATA 100
FIELD FieldData 3
_theta 1 100 double
0 0.031733259127 0.063466518254 0.095199777382 0.12693303651 0.15866629564 0.19039955476 0.22213281389 0.25386607302 
0.28559933214 0.31733259127 0.3490658504 0.38079910953 0.41253236865 0.44426562778 0.47599888691 0.50773214603 0.53946540516 
0.57119866429 0.60293192342 0.63466518254 0.66639844167 0.6981317008 0.72986495992 0.76159821905 0.79333147818 0.82506473731 
0.85679799643 0.88853125556 0.92026451469 0.95199777382 0.98373103294 1.0154642921 1.0471975512 1.0789308103 1.1106640695 
1.1423973286 1.1741305877 1.2058638468 1.237597106 1.2693303651 1.3010636242 1.3327968833 1.3645301425 1.3962634016 
1.4279966607 1.4597299198 1.491463179 1.5231964381 1.5549296972 1.5866629564 1.6183962155 1.6501294746 1.6818627337 
1.7135959929 1.745329252 1.7770625111 1.8087957702 1.8405290294 1.8722622885 1.9039955476 1.9357288068 1.9674620659 
1.999195325 2.0309285841 2.0626618433 2.0943951024 2.1261283615 2.1578616206 2.1895948798 2.2213281389 2.253061398 
2.2847946572 2.3165279163 2.3482611754 2.3799944345 2.4117276937 2.4434609528 2.4751942119 2.506927471 2.5386607302 
2.5703939893 2.6021272484 2.6338605076 2.6655937667 2.6973270258 2.7290602849 2.7607935441 2.7925268032 2.8242600623 
2.8559933214 2.8877265806 2.9194598397 2.9511930988 2.982926358 3.0146596171 3.0463928762 3.0781261353 3.1098593945 
3.1415926536 
_radius 1 100 double
6.8887527049e-16 0.013988104251 0.027909598452 0.041706547235 0.055325868146 0.068719244919 0.081841049582 0.094644649118 0.10707798242 
0.1190795531 0.13057591256 0.14148135578 0.15170007515 0.16113059083 0.16967200736 0.17723154177 0.18373275328 0.18912388045 
0.19338559399 0.19653730687 0.19864102572 0.19980169638 0.20016320442 0.19989969637 0.19920265751 0.19826507543 0.19726479557 
0.19634955467 0.19562597921 0.19515408934 0.19494779847 0.19498083372 0.19519662729 0.19552017398 0.19586975165 0.19616685452 
0.19634365551 0.19634853659 0.19615109088 0.19574767593 0.19516698417 0.19447347473 0.19376632073 0.19317279077 0.19283665892 
0.19290344197 0.19350470676 0.19474353232 0.19668284784 0.19933811871 0.20267559812 0.20661664379 0.21104728157 0.21583086151 
0.22082113007 0.22587362094 0.23085444727 0.23564655206 0.24015379426 0.24430308202 0.24804456024 0.25134987875 0.2542087668 
0.25662435683 0.25860781111 0.26017278606 0.26133018663 0.26208362188 0.26242602062 0.26233791806 0.26178781403 0.26073464439 
0.25913191204 0.25693263305 0.25409414345 0.25058199012 0.24637247731 0.24145381483 0.23582610591 0.22950055485 0.22249824851 
0.21484870245 0.20658814675 0.19775737362 0.18839897817 0.17855402904 0.16825854191 0.15754044062 0.14641780724 0.13489904422 
0.12298514372 0.11067374022 0.097964200564 0.084862800733 0.07138707516 0.057568655226 0.043454253856 0.029104806068 0.01459305242 
8.4241220745e-16 
_area 1 100 double
0 0.00056164618784 0.0022344915282 0.0049832861387 0.0087522105646 0.013467798957 0.019040958707 0.025367515602 0.032327594211 
0.039784638601 0.047584765364 0.055556718729 0.063512459676 0.071248658947 0.078550001768 0.085195835216 0.090971736715 0.095686668945 
0.099194576722 0.10141712044 0.10236252306 0.10213496404 0.10093003545 0.099014477071 0.096691959352 0.094259431587 0.09195968553 
0.089940442756 0.088243251247 0.086838153583 0.085678530013 0.084741115546 0.084042257654 0.083633952737 0.083582782281 0.083937331247 
0.084698288843 0.085806798825 0.087153138973 0.088599657543 0.090015044774 0.091314504102 0.092489720821 0.093609701034 0.094794518875 
0.096186485868 0.09791654426 0.1000877297 0.10278892422 0.10610045099 0.11007880807 0.11473549324 0.12003122248 0.12588582898 
0.13218879071 0.13880328841 0.14556823685 0.15230509379 0.15883178444 0.16498009032 0.17060948369 0.17561171979 0.17990585239 
0.18342892315 0.18612923257 0.1879675748 0.18892773433 0.18902936919 0.18833216334 0.18692517685 0.18490248966 0.18233150059 
0.17922545716 0.17553401843 0.17115923313 0.16599089734 0.15994571341 0.15299617879 0.14518323612 0.13661378662 0.12744744297 
0.11787729206 0.10810845508 0.098337036213 0.088731396887 0.079417831664 0.070473337462 0.061928234094 0.053779467727 0.046011357016 
0.038617024244 0.031614036396 0.025051477419 0.019009359714 0.01359271652 0.0089223240955 0.0051232181955 0.0023118943304 0.00058339640757 
3.1563362977e-17 
