# vtk DataFile Version 5.1
vtk output
ASCII
DATASET POLYDATA
POINTS 100 float
0.16708 0.0618194 -0.60201 0.167118 0.0618918 -0.602012 0.167316 0.0619143 -0.601982 
0.167644 0.0618651 -0.60186 0.168048 0.0617087 -0.601546 0.168456 0.061397 -0.600922 
0.168773 0.0608712 -0.599855 0.168885 0.0600641 -0.598216 0.168664 0.0589033 -0.595886 
0.167972 0.0573154 -0.592774 0.166668 0.0552316 -0.588815 0.16462 0.0525925 -0.583973 
0.161709 0.0493543 -0.578244 0.157846 0.0454942 -0.571644 0.152974 0.0410144 -0.564204 
0.14708 0.0359457 -0.555961 0.140194 0.0303481 -0.546947 0.132394 0.02431 -0.537187 
0.123797 0.0179449 -0.526689 0.114553 0.0113855 -0.515448 0.104833 0.00477714 -0.503447 
0.0948145 -0.00173126 -0.490663 0.0846685 -0.00799555 -0.477071 0.0745431 -0.013885 -0.462656 
0.0645529 -0.0192893 -0.447414 0.0547701 -0.0241243 -0.431362 0.0452217 -0.0283348 -0.414536 
0.0358902 -0.0318954 -0.396987 0.0267212 -0.0348084 -0.37878 0.0176344 -0.0370996 -0.359985 
0.00853794 -0.038813 -0.340668 -0.000654591 -0.0400043 -0.32088 -0.0100085 -0.0407338 -0.300657 
-0.0195532 -0.0410611 -0.280007 -0.029272 -0.04104 -0.25892 -0.0390957 -0.0407158 -0.237364 
-0.0489024 -0.0401245 -0.215296 -0.0585234 -0.039293 -0.192675 -0.0677529 -0.0382421 -0.169471 
-0.0763636 -0.0369894 -0.145681 -0.084123 -0.0355531 -0.121337 -0.0908122 -0.0339553 -0.0965096 
-0.0962426 -0.0322247 -0.0713173 -0.10027 -0.0303975 -0.0459167 -0.102804 -0.0285169 -0.0204961 
-0.103817 -0.0266318 0.00473818 -0.103338 -0.0247928 0.0295776 -0.101453 -0.0230489 0.0538288 
-0.0982926 -0.0214427 0.0773297 -0.0940221 -0.0200066 0.0999621 -0.0888256 -0.0187597 0.12166 
-0.0828931 -0.0177065 0.142412 -0.0764072 -0.0168364 0.162259 -0.0695325 -0.0161258 0.181281 
-0.062409 -0.015541 0.19959 -0.0551471 -0.0150429 0.217309 -0.047828 -0.0145914 0.234557 
-0.0405059 -0.0141507 0.251437 -0.0332123 -0.0136931 0.268021 -0.0259625 -0.0132019 0.284349 
-0.018762 -0.0126732 0.300424 -0.0116121 -0.0121151 0.316221 -0.00451531 -0.0115465 0.331693 
0.00252158 -0.010993 0.346786 0.0094855 -0.0104839 0.36145 0.0163569 -0.0100471 0.375655 
0.0231108 -0.00970566 0.389394 0.0297184 -0.00947428 0.402691 0.0361493 -0.00935767 0.4156 
0.0423734 -0.00934995 0.428198 0.0483625 -0.00943566 0.440572 0.0540914 -0.00959199 0.452811 
0.0595383 -0.00979187 0.464986 0.0646842 -0.0100074 0.477137 0.0695133 -0.0102135 0.489269 
0.074012 -0.0103902 0.50134 0.078169 -0.0105249 0.513266 0.0819756 -0.0106127 0.524927 
0.0854265 -0.0106557 0.53618 0.0885209 -0.0106616 0.546874 0.0912638 -0.010641 0.556869 
0.0936677 -0.0106046 0.566053 0.0957531 -0.0105607 0.574356 0.0975489 -0.010513 0.581758 
0.0990919 -0.0104595 0.588295 0.100425 -0.0103927 0.594049 0.101594 -0.0103004 0.599145 
0.102645 -0.0101682 0.603727 0.10362 -0.00998179 0.607949 0.104555 -0.0097305 0.611944 
0.105473 -0.00940968 0.615815 0.106386 -0.00902289 0.619622 0.107291 -0.0085829 0.623366 
0.108172 -0.00811137 0.627001 0.109004 -0.00763734 0.63043 0.109753 -0.00719452 0.633527 
0.110382 -0.00681782 0.636148 0.110856 -0.0065395 0.638155 0.111147 -0.0063855 0.639431 
0.111236 -0.00637242 0.6399 
LINES 2 100
OFFSETS vtktypeint64
0 100 
CONNECTIVITY vtktypeint64
0 1 2 3 4 5 6 7 8 
9 10 11 12 13 14 15 16 17 
18 19 20 21 22 23 24 25 26 
27 28 29 30 31 32 33 34 35 
36 37 38 39 40 41 42 43 44 
45 46 47 48 49 50 51 52 53 
54 55 56 57 58 59 60 61 62 
63 64 65 66 67 68 69 70 71 
72 73 74 75 76 77 78 79 80 
81 82 83 84 85 86 87 88 89 
90 91 92 93 94 95 96 97 98 
99 
POINT_DATA 100
FIELD FieldData 3
_theta 1 100 double
0 0.031733259127 0.063466518254 0.095199777382 0.12693303651 0.15866629564 0.19039955476 0.22213281389 0.25386607302 
0.28559933214 0.31733259127 0.3490658504 0.38079910953 0.41253236865 0.44426562778 0.47599888691 0.50773214603 0.53946540516 
0.57119866429 0.60293192342 0.63466518254 0.66639844167 0.6981317008 0.72986495992 0.76159821905 0.79333147818 0.82506473731 
0.85679799643 0.88853125556 0.92026451469 0.95199777382 0.98373103294 1.0154642921 1.0471975512 1.0789308103 1.1106640695 
1.1423973286 1.1741305877 1.2058638468 1.237597106 1.2693303651 1.3010636242 1.3327968833 1.3645301425 1.3962634016 
1.4279966607 1.4597299198 1.491463179 1.5231964381 1.5549296972 1.5866629564 1.6183962155 1.6501294746 1.6818627337 
1.7135959929 1.745329252 1.7770625111 1.8087957702 1.8405290294 1.8722622885 1.9039955476 1.9357288068 1.9674620659 
1.999195325 2.0309285841 2.0626618433 2.0943951024 2.1261283615 2.1578616206 2.1895948798 2.2213281389 2.253061398 
2.2847946572 2.3165279163 2.3482611754 2.3799944345 2.4117276937 2.4434609528 2.4751942119 2.506927471 2.5386607302 
2.5703939893 2.6021272484 2.6338605076 2.6655937667 2.6973270258 2.7290602849 2.7607935441 2.7925268032 2.8242600623 
2.8559933214 2.8877265806 2.9194598397 2.9511930988 2.982926358 3.0146596171 3.0463928762 3.0781261353 3.1098593945 
3.1415926536 
_radius 1 100 double
6.8751098653e-16 0.016293380392 0.032444754229 0.04830979653 0.063749540692 0.078631614974 0.092830732799 0.10622925446 0.11871849684 
0.13020102917 0.14059378972 0.14983164475 0.15787095507 0.1646927383 0.17030507203 0.17474446557 0.17807603906 0.18039247195 
0.18181177805 0.18247397901 0.18253665234 0.18216915669 0.1815451971 0.18083344814 0.18018634229 0.17972786463 0.17954206465 
0.17966459553 0.18007949432 0.18072245853 0.18149034836 0.18225525748 0.18288103789 0.18324079432 0.18323456732 0.18280595744 
0.18195518089 0.18074559357 0.17930181721 0.1777997344 0.17645082589 0.17548445227 0.17513084406 0.17560522041 0.17709153535 
0.17972459939 0.18357171188 0.18861769903 0.19475821515 0.20180443271 0.2094989762 0.217540201 0.22561073686 0.23340626123 
0.24066102368 0.24716738141 0.25278751123 0.25745652846 0.26117735879 0.26400871461 0.26604828496 0.26741367802 0.26822374381 
0.26858267646 0.26856877987 0.26822899866 0.26757933991 0.26661031513 0.26529576382 0.2636030654 0.26150281814 0.25897642002 
0.25602045365 0.25264725073 0.24888149753 0.24475330518 0.24028883358 0.23550022353 0.2303770267 0.22488128099 0.21894775501 
0.21248980986 0.205410106 0.19761435712 0.18902573623 0.17959746015 0.16932147994 0.15823197261 0.14640329136 0.13394298577 
0.12098123717 0.10765841444 0.094112420086 0.080467198614 0.066823417554 0.05325203588 0.039791249726 0.026447075626 0.013197531263 
2.6634656494e-16 
_area 1 100 double
0 0.00056873012616 0.0022743782524 0.0051123952909 0.0090636520261 0.014075426132 0.020039874495 0.026779856746 0.034049002929 
0.041547077738 0.048946999555 0.055927318245 0.062203498799 0.067552719275 0.071829341039 0.074970680947 0.076994358834 0.077989152033 
0.078101418186 0.077519233664 0.076456401044 0.075138064779 0.073790028132 0.072651989475 0.072046793586 0.071996128161 0.07244720062 
0.07336475758 0.074616010406 0.076078754558 0.077621625824 0.079119075066 0.080462443927 0.081564272404 0.082364106647 0.082839433265 
0.083013480611 0.082951926399 0.082753382092 0.082542076813 0.082463305493 0.082679473788 0.083339336932 0.084548907945 0.086429007888 
0.089146973009 0.092889967873 0.097816642265 0.10400432316 0.11140955781 0.11985514336 0.1290441547 0.13859374301 0.14808005342 
0.15708653455 0.16524779898 0.17228148831 0.17800442901 0.18233506827 0.18528754839 0.18696229771 0.18753472126 0.18723717636 
0.18631907568 0.1849753349 0.18328761937 0.18123701215 0.17875628925 0.17576905093 0.17221205339 0.16805059685 0.16329033429 
0.15798456181 0.15223381937 0.14617516775 0.13996128888 0.13373200183 0.12758250842 0.12153615677 0.11553315308 0.10944403113 
0.10310630628 0.096371944336 0.089149920794 0.08143248633 0.073300782709 0.064911357453 0.056468993409 0.048193319765 0.040287112444 
0.032913177832 0.026184374392 0.020167682595 0.014898544923 0.010397694248 0.0066826915986 0.0037713623861 0.0016799565154 0.00042053302237 
4.4277296976e-17 
