# vtk DataFile Version 5.1
vtk output
ASCII
DATASET POLYDATA
POINTS 100 float
0.0200566 0.038919 -0.612108 0.0199996 0.0388216 -0.612006 0.0198148 0.0383871 -0.611669 
0.0194869 0.0376317 -0.610999 0.018993 0.0365799 -0.609844 0.0183062 0.0352611 -0.608025 
0.0173996 0.033706 -0.605352 0.0162496 0.0319423 -0.601651 0.0148388 0.0299913 -0.596788 
0.013157 0.0278654 -0.590683 0.0112005 0.0255672 -0.583321 0.00896985 0.0230896 -0.574752 
0.00646632 0.020418 -0.565083 0.0036879 0.0175338 -0.554467 0.000625815 0.0144182 -0.543079 
-0.00273778 0.0110575 -0.531099 -0.00643006 0.00744731 -0.518685 -0.0104854 0.00359588 -0.505961 
-0.0149407 -0.000473061 -0.493001 -0.0198292 -0.00471981 -0.479826 -0.0251726 -0.00908964 -0.466408 
-0.0309732 -0.0135155 -0.452676 -0.0372085 -0.0179219 -0.438537 -0.0438262 -0.0222303 -0.423885 
-0.050745 -0.0263636 -0.408628 -0.0578574 -0.030252 -0.392696 -0.0650377 -0.0338365 -0.376056 
-0.0721523 -0.0370724 -0.358715 -0.0790723 -0.0399298 -0.340718 -0.0856864 -0.0423943 -0.32214 
-0.0919119 -0.0444644 -0.303074 -0.097703 -0.0461486 -0.283615 -0.103053 -0.0474619 -0.263845 
-0.107993 -0.0484214 -0.24382 -0.112583 -0.049043 -0.223564 -0.116898 -0.049338 -0.203063 
-0.121013 -0.0493114 -0.182274 -0.124982 -0.0489617 -0.161131 -0.128825 -0.0482812 -0.139563 
-0.132511 -0.0472587 -0.117507 -0.135953 -0.045882 -0.0949292 -0.139006 -0.0441411 -0.071834 
-0.141476 -0.0420323 -0.0482764 -0.143136 -0.0395605 -0.0243623 -0.143745 -0.0367419 -0.000244255 
-0.143079 -0.0336049 0.0238899 -0.140951 -0.0301905 0.0478337 -0.137241 -0.0265509 0.0713818 
-0.13191 -0.0227482 0.0943495 -0.125016 -0.018851 0.116591 -0.116709 -0.014932 0.13801 
-0.107225 -0.0110649 0.158569 -0.0968649 -0.0073214 0.178286 -0.0859712 -0.0037692 0.197225 
-0.0748928 -0.00046998 0.215486 -0.0639545 0.0025217 0.233181 -0.0534275 0.00515915 0.250417 
-0.0435054 0.00740399 0.267282 -0.0342905 0.00922639 0.283825 -0.02579 0.0106053 0.300054 
-0.0179236 0.011529 0.315933 -0.0105414 0.0119953 0.331391 -0.00344917 0.0120126 0.346337 
0.0035613 0.0116005 0.360676 0.0106817 0.01079 0.374328 0.0180592 0.00962407 0.38725 
0.0257757 0.00815674 0.399445 0.0338354 0.00645189 0.410975 0.0421637 0.00458106 0.421956 
0.0506158 0.00262026 0.432549 0.0589955 0.000646205 0.442949 0.067079 -0.00126802 0.453357 
0.0746437 -0.00305741 0.463961 0.081495 -0.00466919 0.474906 0.0874898 -0.00606628 0.486279 
0.0925527 -0.00722971 0.498091 0.0966834 -0.00815966 0.510275 0.0999531 -0.00887501 0.522685 
0.102493 -0.00941139 0.53511 0.104476 -0.00981783 0.547295 0.106091 -0.0101524 0.558968 
0.107517 -0.010477 0.569862 0.108903 -0.0108524 0.579744 0.110349 -0.0113327 0.588439 
0.111895 -0.0119615 0.59584 0.113522 -0.0127684 0.60192 0.115158 -0.013767 0.606727 
0.116695 -0.0149544 0.610373 0.118008 -0.0163119 0.61302 0.118979 -0.0178066 0.61486 
0.119516 -0.0193948 0.61609 0.119574 -0.0210248 0.616896 0.119161 -0.0226406 0.617435 
0.118344 -0.0241854 0.617824 0.11724 -0.025605 0.618142 0.116 -0.02685 0.618427 
0.114795 -0.027878 0.618687 0.11379 -0.0286555 0.618909 0.113119 -0.0291582 0.619076 
0.112874 -0.0293719 0.619171 
LINES 2 100
OFFSETS vtktypeint64
0 100 
CONNECTIVITY vtktypeint64
0 1 2 3 4 5 6 7 8 
9 10 11 12 13 14 15 16 17 
18 19 20 21 22 23 24 25 26 
27 28 29 30 31 32 33 34 35 
36 37 38 39 40 41 42 43 44 
45 46 47 48 49 50 51 52 53 
54 55 56 57 58 59 60 61 62 
63 64 65 66 67 68 69 70 71 
72 73 74 75 76 77 78 79 80 
81 82 83 84 85 86 87 88 89 
90 91 92 93 94 95 96 97 98 
99 
POINT_DATA 100
FIELD FieldData 3
_theta 1 100 double
0 0.031733259127 0.063466518254 0.095199777382 0.12693303651 0.15866629564 0.19039955476 0.22213281389 0.25386607302 
0.28559933214 0.31733259127 0.3490658504 0.38079910953 0.41253236865 0.44426562778 0.47599888691 0.50773214603 0.53946540516 
0.57119866429 0.60293192342 0.63466518254 0.66639844167 0.6981317008 0.72986495992 0.76159821905 0.79333147818 0.82506473731 
0.85679799643 0.88853125556 0.92026451469 0.95199777382 0.98373103294 1.0154642921 1.0471975512 1.0789308103 1.1106640695 
1.1423973286 1.1741305877 1.2058638468 1.237597106 1.2693303651 1.3010636242 1.3327968833 1.3645301425 1.3962634016 
1.4279966607 1.4597299198 1.491463179 1.5231964381 1.5549296972 1.5866629564 1.6183962155 1.6501294746 1.6818627337 
1.7135959929 1.745329252 1.7770625111 1.8087957702 1.8405290294 1.8722622885 1.9039955476 1.9357288068 1.9674620659 
1.999195325 2.0309285841 2.0626618433 2.0943951024 2.1261283615 2.1578616206 2.1895948798 2.2213281389 2.253061398 
2.2847946572 2.3165279163 2.3482611754 2.3799944345 2.4117276937 2.4434609528 2.4751942119 2.506927471 2.5386607302 
2.5703939893 2.6021272484 2.6338605076 2.6655937667 2.6973270258 2.7290602849 2.7607935441 2.7925268032 2.8242600623 
2.8559933214 2.8877265806 2.9194598397 2.9511930988 2.982926358 3.0146596171 3.0463928762 3.0781261353 3.1098593945 
3.1415926536 
_radius 1 100 double
3.5333894301e-16 0.014600128513 0.029029985717 0.043131294128 0.056766620831 0.069825583778 0.082227312134 0.093919133753 0.10487207483 
0.11507427046 0.12452371262 0.13322181384 0.14116899915 0.14836300749 0.15479992708 0.16047738797 0.16539894106 0.1695785334 
0.17304410959 0.17583963523 0.17802516001 0.17967486131 0.18087330722 0.18171042238 0.18227579227 0.18265297889 0.18291445349 
0.18311761164 0.18330214721 0.18348885903 0.1836798398 0.18386005804 0.18400055048 0.18406354438 0.18400957932 0.18380611239 
0.18343644595 0.18290740964 0.18225417166 0.18154077783 0.18085544836 0.18030048174 0.17997818945 0.17997644397 0.18035868455 
0.18116177493 0.18240127967 0.18408027626 0.18619697411 0.18874803252 0.19172710665 0.19512044851 0.19890247872 0.20303379938 
0.20746246883 0.21212740407 0.21696156526 0.22189276669 0.22684145301 0.23171672311 0.23641310406 0.24081038296 0.24477752439 
0.24818030598 0.25089144335 0.25280162627 0.25382982131 0.25393135515 0.25310270663 0.25138252314 0.24884894194 0.24561365086 
0.24181317682 0.23759770454 0.23311751916 0.22850725679 0.22386880683 0.2192549122 0.21465673368 0.20999900816 0.20514531181 
0.19991358218 0.19409951306 0.18750378849 0.17995875957 0.17135079441 0.1616356304 0.15084524763 0.13908589215 0.12652785572 
0.11338843852 0.099910136596 0.086336455847 0.072887840594 0.059740075877 0.047007297221 0.034731514418 0.022880279759 0.011353584757 
1.2714764239e-15 
_area 1 100 double
0 0.00047253057361 0.0018833796905 0.0042129515156 0.0074295484365 0.011488032515 0.016325553111 0.021855884954 0.027965018849 
0.034509986407 0.041321655584 0.048211304661 0.054980254019 0.061431514928 0.067382193233 0.072675313519 0.077189926195 0.080848786681 
0.083623275506 0.085535358592 0.086656411148 0.087102854036 0.087028691167 0.086614966088 0.08605576954 0.085539866445 0.085227603604 
0.085227061674 0.085578791001 0.08625660789 0.087183961767 0.088257167532 0.089364976442 0.090402131405 0.091281152636 0.091945586671 
0.092383983388 0.092640407159 0.092814707315 0.093045422157 0.093475724277 0.094216994658 0.095325652299 0.096794601892 0.098557715862 
0.10051420008 0.10257375786 0.10470462098 0.10696239446 0.10948688024 0.11246602478 0.11607915871 0.1204394675 0.1255541633 
0.13131523288 0.13752539553 0.14394976217 0.15036914858 0.15661039597 0.16254560307 0.16807169855 0.17309000484 0.17749951955 
0.18120530158 0.18413152627 0.18621133147 0.1873366512 0.18735765602 0.18616022136 0.1837122172 0.18006594016 0.1753465571 
0.16973801906 0.16346823251 0.15679137953 0.14996394788 0.14321262035 0.13669667354 0.13047429204 0.12448749142 0.11857634383 
0.11251894621 0.10608248166 0.099071849895 0.091368582676 0.082956274771 0.073929727968 0.064486265786 0.054900461289 0.045487070112 
0.036559586094 0.0283923261 0.02119231989 0.015084475816 0.010110642698 0.0062410349324 0.0033951558653 0.0014685022392 0.00036065569448 
3.9885495085e-17 
