# vtk DataFile Version 5.1
vtk output
ASCII
DATASET POLYDATA
POINTS 100 float
0.1502 0.0436223 -0.691667 0.150201 0.0434244 -0.69149 0.150224 0.0430244 -0.690926 
0.150246 0.0424196 -0.689938 0.150232 0.0416051 -0.688467 0.150136 0.0405757 -0.686437 
0.149902 0.0393274 -0.683766 0.149468 0.0378595 -0.680364 0.148769 0.0361751 -0.676151 
0.147739 0.0342825 -0.671055 0.146314 0.0321944 -0.665022 0.144432 0.029927 -0.658019 
0.142038 0.0274984 -0.650035 0.139082 0.0249265 -0.641082 0.135522 0.0222266 -0.631194 
0.131324 0.0194097 -0.620422 0.126463 0.0164815 -0.608829 0.120926 0.0134423 -0.596485 
0.114714 0.0102878 -0.583461 0.107838 0.00701109 -0.569825 0.100329 0.00360606 -0.555634 
0.0922302 7.0371e-05 -0.540936 0.0836016 -0.00359091 -0.525762 0.0745177 -0.00736235 -0.51013 
0.0650643 -0.0112162 -0.494045 0.0553358 -0.0151118 -0.477502 0.0454296 -0.0189966 -0.460487 
0.0354419 -0.0228084 -0.442983 0.0254611 -0.0264797 -0.424973 0.0155639 -0.0299424 -0.406442 
0.00581052 -0.0331329 -0.387381 -0.00375707 -0.0359975 -0.367789 -0.0131158 -0.0384965 -0.347672 
-0.0222596 -0.0406067 -0.327043 -0.0311951 -0.0423231 -0.30592 -0.0399361 -0.0436572 -0.284328 
-0.0484963 -0.0446349 -0.262293 -0.0568815 -0.0452921 -0.239841 -0.0650826 -0.0456695 -0.216997 
-0.0730698 -0.0458072 -0.193786 -0.0807883 -0.0457397 -0.170231 -0.0881579 -0.0454919 -0.146355 
-0.0950745 -0.0450769 -0.122182 -0.101415 -0.0444953 -0.0977402 -0.107046 -0.0437369 -0.0730647 
-0.111831 -0.0427838 -0.0481978 -0.115643 -0.0416148 -0.0231923 -0.118374 -0.0402104 0.00188791 
-0.119944 -0.0385581 0.0269685 -0.120307 -0.0366564 0.0519656 -0.119457 -0.0345179 0.0767882 
-0.117425 -0.0321705 0.101342 -0.114279 -0.0296563 0.125533 -0.110118 -0.0270295 0.149271 
-0.10506 -0.024352 0.172476 -0.0992367 -0.0216885 0.19508 -0.0927798 -0.0191012 0.217031 
-0.0858133 -0.0166451 0.238293 -0.0784459 -0.014364 0.258849 -0.0707658 -0.0122881 0.278698 
-0.0628386 -0.0104337 0.297854 -0.0547088 -0.00880423 0.316345 -0.0464029 -0.007393 0.334207 
-0.0379354 -0.00618684 0.351482 -0.0293158 -0.00517027 0.368213 -0.020555 -0.00432944 0.384444 
-0.0116714 -0.0036552 0.400215 -0.00269562 -0.0031449 0.415563 0.00632776 -0.00280263 0.430519 
0.0153405 -0.0026378 0.445108 0.0242733 -0.00266251 0.459352 0.0330507 -0.00288782 0.473267 
0.0415972 -0.00331988 0.486867 0.049843 -0.00395626 0.500161 0.0577307 -0.00478332 0.513154 
0.0652193 -0.00577505 0.525846 0.0722874 -0.00689358 0.538233 0.0789335 -0.00809158 0.550302 
0.0851743 -0.00931616 0.562031 0.0910407 -0.0105138 0.573389 0.096573 -0.011636 0.584335 
0.101815 -0.0126439 0.594817 0.106806 -0.013513 0.604777 0.11158 -0.0142354 0.614149 
0.116157 -0.0148202 0.622867 0.120544 -0.0152917 0.630867 0.124735 -0.015686 0.638096 
0.128711 -0.0160458 0.644511 0.132445 -0.0164139 0.650091 0.135908 -0.0168275 0.654832 
0.139067 -0.017312 0.658757 0.141898 -0.0178777 0.661912 0.144382 -0.0185174 0.664361 
0.14651 -0.0192068 0.666191 0.148282 -0.0199069 0.667495 0.149705 -0.0205689 0.668373 
0.150793 -0.0211401 0.668922 0.151562 -0.0215703 0.669226 0.152024 -0.0218182 0.669353 
0.152189 -0.0218568 0.669346 
LINES 2 100
OFFSETS vtktypeint64
0 100 
CONNECTIVITY vtktypeint64
0 1 2 3 4 5 6 7 8 
9 10 11 12 13 14 15 16 17 
18 19 20 21 22 23 24 25 26 
27 28 29 30 31 32 33 34 35 
36 37 38 39 40 41 42 43 44 
45 46 47 48 49 50 51 52 53 
54 55 56 57 58 59 60 61 62 
63 64 65 66 67 68 69 70 71 
72 73 74 75 76 77 78 79 80 
81 82 83 84 85 86 87 88 89 
90 91 92 93 94 95 96 97 98 
99 
POINT_DATA 100
FIELD FieldData 3
_theta 1 100 double
0 0.031733259127 0.063466518254 0.095199777382 0.12693303651 0.15866629564 0.19039955476 0.22213281389 0.25386607302 
0.28559933214 0.31733259127 0.3490658504 0.38079910953 0.41253236865 0.44426562778 0.47599888691 0.50773214603 0.53946540516 
0.57119866429 0.60293192342 0.63466518254 0.66639844167 0.6981317008 0.72986495992 0.76159821905 0.79333147818 0.82506473731 
0.85679799643 0.88853125556 0.92026451469 0.95199777382 0.98373103294 1.0154642921 1.0471975512 1.0789308103 1.1106640695 
1.1423973286 1.1741305877 1.2058638468 1.237597106 1.2693303651 1.3010636242 1.3327968833 1.3645301425 1.3962634016 
1.4279966607 1.4597299198 1.491463179 1.5231964381 1.5549296972 1.5866629564 1.6183962155 1.6501294746 1.6818627337 
1.7135959929 1.745329252 1.7770625111 1.8087957702 1.8405290294 1.8722622885 1.9039955476 1.9357288068 1.9674620659 
1.999195325 2.0309285841 2.0626618433 2.0943951024 2.1261283615 2.1578616206 2.1895948798 2.2213281389 2.253061398 
2.2847946572 2.3165279163 2.3482611754 2.3799944345 2.4117276937 2.4434609528 2.4751942119 2.506927471 2.5386607302 
2.5703939893 2.6021272484 2.6338605076 2.6655937667 2.6973270258 2.7290602849 2.7607935441 2.7925268032 2.8242600623 
2.8559933214 2.8877265806 2.9194598397 2.9511930988 2.982926358 3.0146596171 3.0463928762 3.0781261353 3.1098593945 
3.1415926536 
_radius 1 100 double
3.3659000131e-16 0.015542385074 0.030969881235 0.046174455514 0.061051028995 0.075498883652 0.089423248175 0.10273702295 0.11536256013 
0.12723339166 0.138295785 0.14850999678 0.1578510903 0.16630919662 0.17388913634 0.18060937947 0.18650038952 0.19160246316 
0.19596322612 0.19963498353 0.20267215405 0.20512904481 0.20705823143 0.20850976101 0.20953126536 0.21016885573 0.21046841746 
0.21047673521 0.21024187177 0.20981246488 0.20923604746 0.20855695407 0.20781458827 0.20704261146 0.20626904763 0.20551674648 
0.20480356331 0.20414214556 0.20353996602 0.20300055316 0.20252646795 0.20212382965 0.20180762466 0.2016068146 0.2015682361 
0.20175826279 0.20226116243 0.2031732317 0.20459241588 0.20660431285 0.20926687752 0.21259707897 0.21656259406 0.22108031697 
0.22602167225 0.23122328581 0.23650095281 0.24166493769 0.24653504952 0.25095431195 0.25480026042 0.25799300295 0.2604992897 
0.26233204977 0.26354521606 0.26422416042 0.2644726401 0.26439770554 0.26409441246 0.26363230437 0.2630454298 0.2623271487 
0.26143024294 0.26027201541 0.25874333184 0.25672011991 0.2540757668 0.25069304228 0.24647443554 0.24135001915 0.23528216405 
0.22826669969 0.22033048446 0.21152579801 0.20192241473 0.19159857616 0.18063225795 0.16909405351 0.15704265154 0.144523331 
0.13156928314 0.11820507117 0.10445127558 0.090329361226 0.075865971185 0.06109609855 0.046064833882 0.030827594671 0.015448912944 
3.1328889538e-16 
_area 1 100 double
0 0.00062794749615 0.0024874396353 0.0055099343963 0.0095944845366 0.014622149871 0.0204672323 0.027001043505 0.034087764845 
0.041576143554 0.049292826342 0.057042075445 0.064613511968 0.071796327177 0.078396457695 0.084252842676 0.089249685853 0.09332306602 
0.096461755962 0.09870321446 0.10012592995 0.10083865532 0.10096707403 0.10064133197 0.099989821392 0.099141308895 0.098209100083 
0.097187932331 0.096066512651 0.094884504451 0.093726511499 0.092701533267 0.09195170321 0.091675135538 0.091786154246 0.092258002298 
0.093049322061 0.094109403893 0.095384566455 0.096826227006 0.09838711753 0.10000914162 0.10163556137 0.10323847538 0.10483718507 
0.10649279793 0.10830283176 0.11042872325 0.11302543864 0.11617845127 0.11996719279 0.12447248467 0.1297445194 0.13576806094 
0.14244230356 0.14958035098 0.15692339206 0.16416455976 0.17098077954 0.17707033096 0.18219069211 0.18618907159 0.18901843453 
0.19073471199 0.19147545447 0.19142521527 0.19077667089 0.18969707363 0.18830650721 0.18666922674 0.1847949912 0.18264562189 
0.18014315124 0.17717906215 0.173627213 0.1693624765 0.16428239203 0.15832571966 0.15148347008 0.14380188574 0.13537898006 
0.12635581651 0.11690253451 0.10719962777 0.097417463277 0.087699098358 0.078151024674 0.068844024554 0.059823462051 0.051125638015 
0.042794731809 0.03489481074 0.027514029311 0.020761576643 0.014759891527 0.0096347874964 0.0055053775157 0.002474897939 0.00062301813262 
5.7446284063e-18 
