# vtk DataFile Version 5.1
vtk output
ASCII
DATASET POLYDATA
POINTS 100 float
0.134256 -0.00471583 0.635807 0.134314 -0.00498296 0.635668 0.134536 -0.00565263 0.635116 
0.134875 -0.00666563 0.634173 0.135255 -0.00793054 0.632875 0.135585 -0.0093347 0.63126 
0.13577 -0.0107574 0.629357 0.135717 -0.012084 0.627182 0.135352 -0.0132185 0.624721 
0.134621 -0.0140939 0.621936 0.133498 -0.0146783 0.618756 0.131982 -0.0149763 0.615085 
0.130092 -0.0150258 0.610814 0.127864 -0.0148903 0.605826 0.125334 -0.0146482 0.600014 
0.122537 -0.0143801 0.593296 0.119487 -0.0141569 0.585624 0.116183 -0.0140282 0.576993 
0.112596 -0.0140153 0.567445 0.108677 -0.0141072 0.557065 0.104359 -0.0142618 0.545975 
0.0995682 -0.0144111 0.534322 0.0942331 -0.0144707 0.52226 0.0882975 -0.0143512 0.509938 
0.0817307 -0.0139709 0.497478 0.074535 -0.0132678 0.484967 0.0667492 -0.0122098 0.472447 
0.0584482 -0.0108004 0.45991 0.0497368 -0.00908165 0.447304 0.0407398 -0.00713162 0.434539 
0.031589 -0.00505813 0.421501 0.0224093 -0.0029891 0.408066 0.0133047 -0.00106078 0.394116 
0.00434798 0.000594684 0.379551 -0.00442685 0.00186095 0.364307 -0.0130256 0.00264706 0.348351 
-0.0214899 0.00289399 0.331694 -0.029888 0.00257752 0.314378 -0.0383003 0.0017074 0.296472 
-0.0468036 0.00032319 0.278057 -0.0554533 -0.0015125 0.259215 -0.0642684 -0.00372228 0.24002 
-0.0732191 -0.00622264 0.220519 -0.0822204 -0.00893188 0.200734 -0.0911315 -0.0117763 0.180658 
-0.0997621 -0.0146943 0.160255 -0.107885 -0.0176378 0.139473 -0.115251 -0.0205711 0.118252 
-0.121614 -0.0234685 0.0965373 -0.126744 -0.0263098 0.0742907 -0.130456 -0.0290764 0.0515032 
-0.132614 -0.0317467 0.0282006 -0.133154 -0.0342938 0.00444697 -0.132078 -0.0366839 -0.019658 
-0.129456 -0.0388771 -0.0439851 -0.125416 -0.0408294 -0.0683866 -0.120132 -0.0424961 -0.0927079 
-0.113804 -0.0438357 -0.116801 -0.106643 -0.0448141 -0.140538 -0.0988515 -0.0454076 -0.163817 
-0.0906075 -0.0456048 -0.18657 -0.0820554 -0.0454071 -0.208765 -0.0732989 -0.0448273 -0.230399 
-0.0643994 -0.0438868 -0.251496 -0.0553804 -0.0426122 -0.272092 -0.0462348 -0.0410305 -0.292229 
-0.0369352 -0.039166 -0.311942 -0.0274451 -0.0370365 -0.33125 -0.0177306 -0.0346527 -0.350154 
-0.00776914 -0.0320175 -0.368633 0.00244254 -0.0291282 -0.386645 0.0128851 -0.02598 -0.404136 
0.0235156 -0.0225697 -0.421043 0.0342694 -0.0189007 -0.437306 0.0450646 -0.0149869 -0.452877 
0.0558073 -0.0108559 -0.467723 0.0663981 -0.00655013 -0.481835 0.0767371 -0.00212675 -0.495224 
0.0867293 0.00234502 -0.507921 0.0962872 0.00678805 -0.519971 0.105334 0.0111227 -0.531427 
0.113801 0.0152726 -0.542335 0.121635 0.019171 -0.552733 0.128787 0.022765 -0.562641 
0.135223 0.0260194 -0.572058 0.140915 0.028918 -0.58096 0.14585 0.0314632 -0.589306 
0.150026 0.0336734 -0.597043 0.153454 0.0355791 -0.604111 0.156164 0.0372181 -0.610457 
0.158203 0.0386302 -0.616042 0.159636 0.0398526 -0.620846 0.160544 0.0409161 -0.624876 
0.161023 0.0418427 -0.628161 0.161177 0.0426453 -0.630755 0.161112 0.0433282 -0.632728 
0.160932 0.043889 -0.634155 0.160726 0.044322 -0.63511 0.160563 0.0446206 -0.635654 
0.160491 0.04478 -0.635828 
LINES 2 100
OFFSETS vtktypeint64
0 100 
CONNECTIVITY vtktypeint64
0 1 2 3 4 5 6 7 8 
9 10 11 12 13 14 15 16 17 
18 19 20 21 22 23 24 25 26 
27 28 29 30 31 32 33 34 35 
36 37 38 39 40 41 42 43 44 
45 46 47 48 49 50 51 52 53 
54 55 56 57 58 59 60 61 62 
63 64 65 66 67 68 69 70 71 
72 73 74 75 76 77 78 79 80 
81 82 83 84 85 86 87 88 89 
90 91 92 93 94 95 96 97 98 
99 
POINT_DATA 100
FIELD FieldData 3
_theta 1 100 double
0 0.031733259127 0.063466518254 0.095199777382 0.12693303651 0.15866629564 0.19039955476 0.22213281389 0.25386607302 
0.28559933214 0.31733259127 0.3490658504 0.38079910953 0.41253236865 0.44426562778 0.47599888691 0.50773214603 0.53946540516 
0.57119866429 0.60293192342 0.63466518254 0.66639844167 0.6981317008 0.72986495992 0.76159821905 0.79333147818 0.82506473731 
0.85679799643 0.88853125556 0.92026451469 0.95199777382 0.98373103294 1.0154642921 1.0471975512 1.0789308103 1.1106640695 
1.1423973286 1.1741305877 1.2058638468 1.237597106 1.2693303651 1.3010636242 1.3327968833 1.3645301425 1.3962634016 
1.4279966607 1.4597299198 1.491463179 1.5231964381 1.5549296972 1.5866629564 1.6183962155 1.6501294746 1.6818627337 
1.7135959929 1.745329252 1.7770625111 1.8087957702 1.8405290294 1.8722622885 1.9039955476 1.9357288068 1.9674620659 
1.999195325 2.0309285841 2.0626618433 2.0943951024 2.1261283615 2.1578616206 2.1895948798 2.2213281389 2.253061398 
2.2847946572 2.3165279163 2.3482611754 2.3799944345 2.4117276937 2.4434609528 2.4751942119 2.506927471 2.5386607302 
2.5703939893 2.6021272484 2.6338605076 2.6655937667 2.6973270258 2.7290602849 2.7607935441 2.7925268032 2.8242600623 
2.8559933214 2.8877265806 2.9194598397 2.9511930988 2.982926358 3.0146596171 3.0463928762 3.0781261353 3.1098593945 
3.1415926536 
_radius 1 100 double
1.6883166709e-15 0.01542941893 0.030846677419 0.046230610435 0.061548642042 0.076752276095 0.091773940039 0.10652583356 0.12090141972 
0.13478000297 0.14803443263 0.16054138306 0.17219301354 0.18290829394 0.19264208043 0.20139023387 0.20918966467 0.21611304379 
0.2222588764 0.22773851115 0.23266226565 0.23712701879 0.24120726026 0.24495075645 0.24837892816 0.25149108173 0.25427106404 
0.2566948052 0.25873745024 0.26037915995 0.26160901744 0.2624267571 0.26284226392 0.26287302086 0.26253993279 0.26186222487 
0.26085236944 0.25951216945 0.2578311118 0.25578780825 0.25335476165 0.25050595526 0.24722607652 0.24351976254 0.23941920634 
0.23498876393 0.23032571237 0.22555686002 0.22083122213 0.21630949312 0.21215162203 0.20850426101 0.20548979515 0.20319783376 
0.20167889664 0.2009395562 0.20093906742 0.20158892127 0.20275744675 0.20428073684 0.20597921117 0.20767725712 0.20922255009 
0.21050191882 0.2114514758 0.21205975806 0.21236372766 0.21243855777 0.21238293276 0.21230195816 0.2122897834 0.21241386826 
0.21270258485 0.21313751844 0.21365132151 0.21413126277 0.2144278178 0.21436698751 0.21376467321 0.21244140513 0.21023591442 
0.20701633668 0.20268816525 0.197198426 0.19053593201 0.18272789075 0.17383353738 0.16393579381 0.15313214007 0.14152589405 
0.12921892195 0.116306482 0.1028745016 0.088999177762 0.074748442079 0.060184592108 0.045367291579 0.030356190231 0.015212604093 
1.0084344132e-15 
_area 1 100 double
0 0.00055858870631 0.0022284408398 0.0049919486091 0.0088201448939 0.013673020608 0.019499387949 0.026235503167 0.033801327672 
0.04209355057 0.050976220773 0.060273150037 0.069768723577 0.079221945671 0.088392926873 0.097075946643 0.10513127257 0.11250810138 
0.11925184695 0.12549086695 0.13140229641 0.1371642835 0.14290869974 0.14868873751 0.15446941987 0.16014100342 0.16554936145 
0.17053437415 0.17496656702 0.1787728402 0.1819440676 0.18452177032 0.18656867641 0.18813620842 0.1892438699 0.18987681841 
0.18999595975 0.18955072638 0.1884887733 0.18676232865 0.18433358964 0.18118131248 0.17730935697 0.17275674001 0.1676076585 
0.16199846576 0.1561171094 0.15018999537 0.14445230969 0.13910263667 0.13425722533 0.1299373454 0.12610575429 0.12271601498 
0.11973125907 0.11712054913 0.11485890235 0.11292822175 0.11131629181 0.1100159859 0.10902019861 0.10830759206 0.10782450718 
0.10747974688 0.1071642072 0.10678626931 0.10630223001 0.10572957756 0.10514356657 0.10466315704 0.10443196539 0.1045956233 
0.10526785022 0.10647922798 0.1081440561 0.11007705771 0.11202861655 0.11371235999 0.1148274964 0.11508183784 0.11421697188 
0.11203372908 0.10841449164 0.10333857632 0.096887618518 0.089239389809 0.080650506865 0.071430579187 0.061911959007 0.052419963108 
0.043248062949 0.034641232389 0.026788787565 0.019826122718 0.013843138634 0.0088961400788 0.0050197449429 0.0022360487204 0.00055979059324 
5.042688469e-17 
