# vtk DataFile Version 5.1
vtk output
ASCII
DATASET POLYDATA
POINTS 100 float
0.200305 -0.0194273 0.678923 0.200233 -0.0196329 0.678607 0.199919 -0.0203454 0.677803 
0.199321 -0.0214936 0.67654 0.198372 -0.022967 0.674859 0.196998 -0.0246274 0.672806 
0.195124 -0.0263231 0.670422 0.192688 -0.0279037 0.667731 0.18965 -0.0292345 0.664738 
0.186003 -0.0302085 0.661419 0.181768 -0.0307549 0.657727 0.176998 -0.0308427 0.653587 
0.171768 -0.0304806 0.648912 0.166165 -0.0297114 0.643606 0.160273 -0.028604 0.637582 
0.154166 -0.0272428 0.630767 0.147893 -0.025716 0.623119 0.141473 -0.0241053 0.614629 
0.134893 -0.0224775 0.605322 0.128112 -0.0208787 0.595261 0.121068 -0.0193329 0.584533 
0.113691 -0.0178432 0.573244 0.105916 -0.0163966 0.561506 0.0976967 -0.0149713 0.54942 
0.0890205 -0.0135442 0.53707 0.0799121 -0.0120987 0.52451 0.0704376 -0.0106313 0.511764 
0.0607009 -0.00915518 0.498817 0.0508333 -0.00770154 0.485628 0.0409802 -0.00631769 0.472132 
0.0312834 -0.00506237 0.458254 0.0218641 -0.00399923 0.443916 0.0128075 -0.0031892 0.429051 
0.00415158 -0.00268297 0.413606 -0.00411756 -0.00251466 0.397555 -0.0120636 -0.0026975 0.380892 
-0.0197903 -0.00322216 0.363629 -0.0274264 -0.00405797 0.345793 -0.0351046 -0.00515678 0.327417 
-0.0429407 -0.00645884 0.308525 -0.0510113 -0.00790008 0.289133 -0.0593378 -0.00941951 0.269236 
-0.067874 -0.010966 0.248811 -0.0765039 -0.0125033 0.22782 -0.0850464 -0.0140129 0.206212 
-0.0932688 -0.0154947 0.18394 -0.100907 -0.0169641 0.160966 -0.107691 -0.0184484 0.137276 
-0.113371 -0.0199808 0.112889 -0.11774 -0.0215944 0.0878666 -0.120656 -0.0233158 0.0623078 
-0.122057 -0.0251607 0.0363509 -0.121963 -0.0271303 0.0101619 -0.12047 -0.0292103 -0.0160781 
-0.117743 -0.0313715 -0.0421897 -0.113993 -0.0335724 -0.0680109 -0.109454 -0.0357629 -0.0934128 
-0.104356 -0.0378885 -0.118311 -0.0989055 -0.0398942 -0.14267 -0.0932646 -0.0417279 -0.166504 
-0.0875379 -0.0433426 -0.189871 -0.0817683 -0.0446966 -0.212857 -0.0759409 -0.0457534 -0.235561 
-0.0699935 -0.0464795 -0.258076 -0.063833 -0.0468423 -0.280473 -0.0573552 -0.0468081 -0.302782 
-0.0504651 -0.0463407 -0.324987 -0.0430959 -0.0454011 -0.347019 -0.0352227 -0.0439492 -0.368763 
-0.0268716 -0.0419468 -0.39007 -0.0181209 -0.0393612 -0.410769 -0.00909694 -0.0361712 -0.430693 
3.70236e-05 -0.0323717 -0.449692 0.00909489 -0.0279782 -0.467659 0.0178847 -0.0230298 -0.484536 
0.0262251 -0.0175901 -0.500325 0.03396 -0.0117457 -0.515085 0.0409694 -0.00560231 -0.528924 
0.0471753 0.000722029 -0.541982 0.0525429 0.00710422 -0.554412 0.0570774 0.0134249 -0.56636 
0.0608161 0.0195766 -0.577941 0.0638198 0.0254711 -0.589222 0.0661617 0.0310438 -0.600215 
0.0679188 0.0362566 -0.610872 0.0691641 0.0410966 -0.62109 0.0699623 0.045573 -0.630725 
0.0703684 0.0497108 -0.639614 0.0704288 0.0535436 -0.647592 0.0701853 0.0571054 -0.654523 
0.0696793 0.0604233 -0.660312 0.0689566 0.0635113 -0.664929 0.0680705 0.0663667 -0.668407 
0.0670836 0.0689692 -0.670848 0.0660665 0.0712826 -0.672408 0.0650947 0.0732596 -0.673279 
0.064243 0.0748471 -0.673671 0.0635797 0.0759944 -0.673781 0.0631592 0.0766592 -0.673769 
0.063017 0.0768142 -0.673743 
LINES 2 100
OFFSETS vtktypeint64
0 100 
CONNECTIVITY vtktypeint64
0 1 2 3 4 5 6 7 8 
9 10 11 12 13 14 15 16 17 
18 19 20 21 22 23 24 25 26 
27 28 29 30 31 32 33 34 35 
36 37 38 39 40 41 42 43 44 
45 46 47 48 49 50 51 52 53 
54 55 56 57 58 59 60 61 62 
63 64 65 66 67 68 69 70 71 
72 73 74 75 76 77 78 79 80 
81 82 83 84 85 86 87 88 89 
90 91 92 93 94 95 96 97 98 
99 
POINT_DATA 100
FIELD FieldData 3
_theta 1 100 double
0 0.031733259127 0.063466518254 0.095199777382 0.12693303651 0.15866629564 0.19039955476 0.22213281389 0.25386607302 
0.28559933214 0.31733259127 0.3490658504 0.38079910953 0.41253236865 0.44426562778 0.47599888691 0.50773214603 0.53946540516 
0.57119866429 0.60293192342 0.63466518254 0.66639844167 0.6981317008 0.72986495992 0.76159821905 0.79333147818 0.82506473731 
0.85679799643 0.88853125556 0.92026451469 0.95199777382 0.98373103294 1.0154642921 1.0471975512 1.0789308103 1.1106640695 
1.1423973286 1.1741305877 1.2058638468 1.237597106 1.2693303651 1.3010636242 1.3327968833 1.3645301425 1.3962634016 
1.4279966607 1.4597299198 1.491463179 1.5231964381 1.5549296972 1.5866629564 1.6183962155 1.6501294746 1.6818627337 
1.7135959929 1.745329252 1.7770625111 1.8087957702 1.8405290294 1.8722622885 1.9039955476 1.9357288068 1.9674620659 
1.999195325 2.0309285841 2.0626618433 2.0943951024 2.1261283615 2.1578616206 2.1895948798 2.2213281389 2.253061398 
2.2847946572 2.3165279163 2.3482611754 2.3799944345 2.4117276937 2.4434609528 2.4751942119 2.506927471 2.5386607302 
2.5703939893 2.6021272484 2.6338605076 2.6655937667 2.6973270258 2.7290602849 2.7607935441 2.7925268032 2.8242600623 
2.8559933214 2.8877265806 2.9194598397 2.9511930988 2.982926358 3.0146596171 3.0463928762 3.0781261353 3.1098593945 
3.1415926536 
_radius 1 100 double
2.2508663799e-16 0.015608571137 0.031144464708 0.046539645103 0.061729816918 0.076655730972 0.091264059112 0.10550772864 0.11934554735 
0.13274089514 0.14565932631 0.15806521005 0.16991798023 0.18116895626 0.19175979984 0.20162341459 0.21068758895 0.21888109998 
0.22614147234 0.23242322241 0.2377052938 0.24199654117 0.24533849454 0.24780511901 0.2494997312 0.25054951457 0.25109810714 
0.25129654421 0.25129261671 0.25121876927 0.25117923708 0.2512380501 0.25141021742 0.25165823061 0.251894988 0.25199295836 
0.25179846509 0.25114950361 0.24989531978 0.24791590542 0.24513955176 0.24155665167 0.23722808118 0.23228675917 0.22693144483 
0.22141256307 0.21601087223 0.21101100168 0.2066730545 0.20320629818 0.20074910471 0.19935834179 0.19900921903 0.19960385108 
0.20098497317 0.20295144004 0.20527400084 0.20771174246 0.21003004587 0.21201978894 0.21351595813 0.21441294161 0.21467393507 
0.21433283009 0.21348821778 0.21229034148 0.21092271359 0.20958057157 0.20844843118 0.20767884746 0.20737426037 0.20757354667 
0.20824459076 0.20928374845 0.21052245723 0.2117404815 0.21268449272 0.21309001538 0.21270432478 0.21130773556 0.20873093106 
0.2048665491 0.1996740522 0.19317778461 0.18545888653 0.17664231801 0.16688064216 0.1563364601 0.14516548119 0.13350213076 
0.12144934773 0.10907384042 0.09640755133 0.083455331665 0.070207749479 0.056656677348 0.042810269172 0.028703694188 0.014402844901 
5.5357216355e-16 
_area 1 100 double
0 0.0005744144289 0.0022907939817 0.0051280355291 0.00904987114 0.014004939829 0.019929070016 0.026749777028 0.034391273137 
0.042776978139 0.051826647185 0.061447445487 0.071521977862 0.081899211015 0.092394011663 0.10279732997 0.11289402967 0.12248208794 
0.13138764015 0.13947453572 0.14665049732 0.1528712562 0.15814130971 0.16250951867 0.16606023437 0.1689029966 0.17116347398 
0.17297580098 0.17447447608 0.17578412473 0.17700709338 0.1782105527 0.17941531826 0.18058754505 0.18163333475 0.18239768235 
0.18267235069 0.18221724144 0.18079484375 0.17821211652 0.17436191334 0.16925545696 0.1630377902 0.15598077521 0.14845334608 
0.14087467986 0.13366022121 0.12717127683 0.12167620905 0.11732678403 0.11415024966 0.11206266225 0.11091269063 0.11053743424 
0.11078991186 0.11153401517 0.11261848284 0.11384800918 0.11497918225 0.11574829734 0.11591492112 0.11530505537 0.1138446705 
0.11157815438 0.10866895177 0.10538275247 0.10205625981 0.099056060865 0.096735936694 0.095429078004 0.095402425829 0.096540020667 
0.098585483324 0.10124396496 0.10419594991 0.10710554345 0.10963095347 0.11144149192 0.11224000586 0.11178738363 0.10992556497 
0.10659498556 0.10184223407 0.095814840639 0.088742515098 0.080907240111 0.072607634266 0.064124894339 0.055697407432 0.047508674676 
0.039689519582 0.032331864308 0.025508378824 0.019291050451 0.013763226805 0.0090229806556 0.0051783810607 0.0023366189097 0.00058968681762 
2.1738043438e-17 
