# vtk DataFile Version 5.1
vtk output
ASCII
DATASET POLYDATA
POINTS 100 float
0.115303 0.0519171 -0.607647 0.115254 0.0519496 -0.607831 0.11517 0.0518924 -0.60837 
0.115064 0.0517421 -0.609147 0.11495 0.0514916 -0.609979 0.114845 0.0511284 -0.610638 
0.11476 0.0506325 -0.610877 0.114701 0.0499758 -0.610452 0.114655 0.0491206 -0.60915 
0.114596 0.0480207 -0.606808 0.114475 0.0466228 -0.603325 0.114223 0.0448699 -0.59867 
0.113751 0.0427058 -0.592877 0.112954 0.0400801 -0.586037 0.111718 0.036954 -0.578279 
0.109924 0.0333056 -0.569756 0.107461 0.0291345 -0.560615 0.104232 0.0244648 -0.550985 
0.100166 0.0193463 -0.54096 0.095224 0.0138532 -0.530587 0.0894022 0.00808172 -0.519866 
0.0827385 0.00214407 -0.508754 0.0753092 -0.00383762 -0.497171 0.067225 -0.00973915 -0.485018 
0.0586237 -0.015442 -0.472194 0.04966 -0.0208405 -0.458606 0.0404928 -0.025848 -0.444187 
0.0312735 -0.0304011 -0.428903 0.0221336 -0.0344612 -0.412758 0.013175 -0.0380149 -0.395791 
0.00446302 -0.0410708 -0.378073 -0.0039758 -0.0436557 -0.359689 -0.0121525 -0.0458087 -0.340734 
-0.0201096 -0.0475748 -0.321293 -0.0279109 -0.0489987 -0.301436 -0.0356291 -0.0501198 -0.281206 
-0.043331 -0.0509672 -0.260616 -0.0510639 -0.051558 -0.239653 -0.0588424 -0.0518964 -0.218284 
-0.0666395 -0.0519747 -0.196462 -0.0743812 -0.051777 -0.174141 -0.0819467 -0.0512822 -0.15129 
-0.0891737 -0.0504694 -0.127898 -0.0958688 -0.0493223 -0.103989 -0.101821 -0.0478336 -0.0796188 
-0.10682 -0.0460076 -0.0548808 -0.110671 -0.0438629 -0.0298972 -0.113214 -0.041432 -0.00481218 
-0.114333 -0.0387606 0.0202194 -0.113974 -0.0359052 0.0450438 -0.112138 -0.0329293 0.0695192 
-0.108891 -0.0299 0.0935246 -0.104347 -0.0268836 0.116966 -0.0986663 -0.0239421 0.139778 
-0.0920351 -0.0211302 0.161923 -0.0846514 -0.018493 0.183384 -0.0767094 -0.0160653 0.204164 
-0.0683847 -0.0138715 0.22427 -0.0598241 -0.0119266 0.243713 -0.0511383 -0.010238 0.262501 
-0.0424003 -0.00880714 0.280635 -0.0336476 -0.00763231 0.298108 -0.0248889 -0.00671003 0.314915 
-0.0161128 -0.00603674 0.33105 -0.00729859 -0.00560965 0.346516 0.00157315 -0.00542695 0.361333 
0.0105118 -0.00548739 0.375541 0.0195101 -0.00578935 0.389199 0.0285412 -0.00632957 0.40239 
0.0375589 -0.00710173 0.415214 0.0465016 -0.00809519 0.427776 0.0552985 -0.00929396 0.440182 
0.0638776 -0.0106761 0.452524 0.0721738 -0.0122136 0.464869 0.0801361 -0.013873 0.47725 
0.0877336 -0.0156164 0.489662 0.0949574 -0.0174026 0.502056 0.101821 -0.019189 0.514348 
0.108357 -0.0209335 0.52642 0.114609 -0.0225963 0.538135 0.120628 -0.0241413 0.549349 
0.126461 -0.025538 0.559924 0.132146 -0.0267622 0.569745 0.137704 -0.0277969 0.578727 
0.143137 -0.0286326 0.586823 0.148424 -0.0292674 0.594027 0.153528 -0.0297065 0.600371 
0.158398 -0.0299618 0.605919 0.162975 -0.030051 0.610758 0.167199 -0.0299967 0.614983 
0.171019 -0.0298252 0.618688 0.174395 -0.0295653 0.621956 0.177304 -0.0292474 0.624848 
0.179741 -0.028902 0.627403 0.181719 -0.0285585 0.629631 0.183263 -0.0282443 0.631526 
0.184406 -0.0279834 0.633062 0.185183 -0.0277956 0.634209 0.185624 -0.0276958 0.634935 
0.185751 -0.0276934 0.635219 
LINES 2 100
OFFSETS vtktypeint64
0 100 
CONNECTIVITY vtktypeint64
0 1 2 3 4 5 6 7 8 
9 10 11 12 13 14 15 16 17 
18 19 20 21 22 23 24 25 26 
27 28 29 30 31 32 33 34 35 
36 37 38 39 40 41 42 43 44 
45 46 47 48 49 50 51 52 53 
54 55 56 57 58 59 60 61 62 
63 64 65 66 67 68 69 70 71 
72 73 74 75 76 77 78 79 80 
81 82 83 84 85 86 87 88 89 
90 91 92 93 94 95 96 97 98 
99 
POINT_DATA 100
FIELD FieldData 3
_theta 1 100 double
0 0.031733259127 0.063466518254 0.095199777382 0.12693303651 0.15866629564 0.19039955476 0.22213281389 0.25386607302 
0.28559933214 0.31733259127 0.3490658504 0.38079910953 0.41253236865 0.44426562778 0.47599888691 0.50773214603 0.53946540516 
0.57119866429 0.60293192342 0.63466518254 0.66639844167 0.6981317008 0.72986495992 0.76159821905 0.79333147818 0.82506473731 
0.85679799643 0.88853125556 0.92026451469 0.95199777382 0.98373103294 1.0154642921 1.0471975512 1.0789308103 1.1106640695 
1.1423973286 1.1741305877 1.2058638468 1.237597106 1.2693303651 1.3010636242 1.3327968833 1.3645301425 1.3962634016 
1.4279966607 1.4597299198 1.491463179 1.5231964381 1.5549296972 1.5866629564 1.6183962155 1.6501294746 1.6818627337 
1.7135959929 1.745329252 1.7770625111 1.8087957702 1.8405290294 1.8722622885 1.9039955476 1.9357288068 1.9674620659 
1.999195325 2.0309285841 2.0626618433 2.0943951024 2.1261283615 2.1578616206 2.1895948798 2.2213281389 2.253061398 
2.2847946572 2.3165279163 2.3482611754 2.3799944345 2.4117276937 2.4434609528 2.4751942119 2.506927471 2.5386607302 
2.5703939893 2.6021272484 2.6338605076 2.6655937667 2.6973270258 2.7290602849 2.7607935441 2.7925268032 2.8242600623 
2.8559933214 2.8877265806 2.9194598397 2.9511930988 2.982926358 3.0146596171 3.0463928762 3.0781261353 3.1098593945 
3.1415926536 
_radius 1 100 double
5.7370848651e-16 0.014713215633 0.029338499016 0.043784598976 0.057960737447 0.071778342983 0.085153549381 0.098009765492 0.11027949036 
0.12190473069 0.13283579747 0.14302879528 0.15244261897 0.16103657167 0.16876968798 0.17560246995 0.18150113013 0.18644376933 
0.19042736633 0.19347413576 0.19563577205 0.19699435884 0.19765926643 0.19776011116 0.19743666338 0.19682726438 0.1960576389 
0.19523183203 0.19442635925 0.19368774802 0.1930328678 0.19245117356 0.19190830517 0.1913510883 0.19071439885 0.18993020476 
0.18893833504 0.18769754932 0.18619489213 0.18445142275 0.18252311496 0.1804967712 0.17848193111 0.1766006637 0.17497745192 
0.17373085014 0.17296735039 0.17277658531 0.17322647037 0.17435755725 0.17617733529 0.17865647418 0.18172909471 0.18529789093 
0.18924308133 0.19343289878 0.19773326747 0.20201520376 0.20615961593 0.21006001771 0.21362403003 0.21677448815 0.21945064987 
0.22160958724 0.22322749508 0.2243004612 0.22484422886 0.22489258596 0.22449416478 0.22370760806 0.22259530261 0.22121627055 
0.21961925566 0.21783720015 0.21588385513 0.21375243752 0.21141570919 0.20882693147 0.20592154745 0.2026197673 0.19883035966 
0.19445592253 0.1893997221 0.18357381621 0.17690768312 0.1693561396 0.16090514726 0.15157426658 0.14141501861 0.13050520045 
0.11894014985 0.1068227808 0.094254491109 0.081328523193 0.068126324854 0.054716543095 0.041155874442 0.027491002262 0.013761026604 
9.868158945e-16 
_area 1 100 double
0 0.00047572916845 0.0019120543643 0.0043290144447 0.0077383006829 0.012120249351 0.017406792867 0.023476285533 0.030160257733 
0.037258088522 0.044554234284 0.051833297886 0.058890076943 0.065534210989 0.071591562494 0.076906085131 0.081345552549 0.084811926863 
0.087253761352 0.088675936044 0.089142302143 0.088769120696 0.087710375647 0.086138815553 0.084227870247 0.082138720347 0.08001402308 
0.077979982659 0.076175153054 0.074800749271 0.07391996868 0.073584664139 0.073697995901 0.074111961082 0.074634837349 0.075091738701 
0.075347398085 0.075316501733 0.074977746727 0.074386024393 0.073670817955 0.073013359233 0.072602725658 0.072595559807 0.073046774285 
0.073835708462 0.074835984566 0.076002780403 0.077369636325 0.079033213084 0.081131183694 0.083809950905 0.087169727556 0.091213602084 
0.095855336107 0.10095745868 0.10635485195 0.11186398639 0.11728650478 0.12241489229 0.12704547243 0.13099792575 0.13413535571 
0.13637869853 0.13771254546 0.13818235024 0.13788331131 0.13693994382 0.13547846755 0.13360508726 0.13140398012 0.12894797622 
0.12630409976 0.12352841973 0.12065697239 0.11770049629 0.11464488792 0.1114539009 0.10806997448 0.10441260313 0.10037830511 
0.095848727729 0.090710864009 0.084886231421 0.078359547813 0.071196841812 0.063547188098 0.055627323934 0.047692108158 0.039996497983 
0.03275747023 0.026127184373 0.020188592793 0.014975321268 0.010501634239 0.0067838833034 0.0038469318393 0.0017204322261 0.00043179396652 
5.6859778679e-17 
