# vtk DataFile Version 5.1
vtk output
ASCII
DATASET POLYDATA
POINTS 100 float
0.0980772 -0.0472612 0.689718 0.0979737 -0.0471782 0.689518 0.0977071 -0.0470441 0.689075 
0.097263 -0.0468291 0.68839 0.0966197 -0.0464902 0.687458 0.0957512 -0.0459784 0.686266 
0.0946326 -0.0452477 0.684794 0.0932451 -0.0442633 0.683008 0.0915803 -0.0430095 0.680863 
0.0896441 -0.0414931 0.678295 0.0874584 -0.0397456 0.675231 0.0850612 -0.0378195 0.67159 
0.0825041 -0.0357834 0.667287 0.0798478 -0.0337124 0.662244 0.0771561 -0.0316789 0.656393 
0.0744882 -0.0297428 0.649685 0.0718913 -0.027943 0.642096 0.0693932 -0.0262921 0.633629 
0.0669966 -0.024775 0.624317 0.0646758 -0.0233508 0.614215 0.0623764 -0.0219591 0.603404 
0.0600181 -0.0205288 0.591974 0.0575006 -0.0189891 0.580023 0.0547127 -0.0172803 0.567644 
0.0515432 -0.0153634 0.554917 0.0478923 -0.0132268 0.541903 0.0436835 -0.0108902 0.528641 
0.0388722 -0.00840333 0.515143 0.033453 -0.00584101 0.501401 0.0274618 -0.00329542 0.487385 
0.0209734 -0.000865657 0.473057 0.0140957 0.00135301 0.458371 0.00695807 0.00327912 0.443285 
-0.000301504 0.00485263 0.427768 -0.00755193 0.00603928 0.411801 -0.0146837 0.006831 0.395382 
-0.0216213 0.00724268 0.378523 -0.0283324 0.00730576 0.361249 -0.0348308 0.0070598 0.343588 
-0.0411742 0.00654363 0.325568 -0.0474555 0.00578732 0.307208 -0.0537891 0.00480659 0.288511 
-0.0602923 0.00360046 0.269461 -0.0670656 0.00215279 0.250019 -0.0741728 0.00043728 0.230127 
-0.0816241 -0.00157456 0.209712 -0.0893636 -0.00390395 0.188692 -0.0972648 -0.00655534 0.166988 
-0.105133 -0.00950867 0.14453 -0.112715 -0.0127147 0.121273 -0.119719 -0.0160949 0.0972025 
-0.125837 -0.0195452 0.0723402 -0.130774 -0.0229455 0.0467475 -0.13427 -0.0261713 0.0205242 
-0.136132 -0.0291084 -0.00619639 -0.136245 -0.0316667 -0.0332553 -0.13459 -0.0337922 -0.0604788 
-0.131241 -0.0354756 -0.0876898 -0.126362 -0.0367542 -0.11472 -0.120185 -0.0377088 -0.141419 
-0.11299 -0.0384537 -0.167666 -0.105075 -0.0391214 -0.193371 -0.0967279 -0.0398448 -0.218478 
-0.0881995 -0.0407365 -0.242965 -0.0796803 -0.0418711 -0.266835 -0.0712878 -0.0432699 -0.290116 
-0.0630619 -0.0448924 -0.312846 -0.0549708 -0.0466351 -0.335065 -0.0469254 -0.0483376 -0.356811 
-0.0388018 -0.0497966 -0.378111 -0.0304675 -0.0507859 -0.398974 -0.0218091 -0.0510795 -0.419395 
-0.0127576 -0.0504765 -0.439348 -0.00330713 -0.0488234 -0.458793 0.00647399 -0.0460322 -0.477682 
0.016442 -0.0420906 -0.495958 0.0263872 -0.0370654 -0.513562 0.0360518 -0.0310966 -0.530442 
0.0451555 -0.0243831 -0.546551 0.0534249 -0.0171638 -0.561851 0.0606223 -0.00969369 -0.576315 
0.0665731 -0.00221996 -0.589928 0.0711846 0.00503998 -0.602681 0.0744571 0.0119157 -0.614575 
0.076484 0.0182943 -0.625615 0.0774416 0.0241233 -0.63581 0.0775698 0.0294059 -0.64517 
0.0771453 0.0341896 -0.653706 0.0764519 0.03855 -0.661433 0.0757505 0.0425721 -0.668364 
0.0752524 0.0463327 -0.674516 0.0751002 0.0498845 -0.67991 0.0753567 0.053246 -0.684568 
0.0760056 0.0563974 -0.688517 0.0769601 0.0592825 -0.691785 0.0780821 0.0618176 -0.694402 
0.0792058 0.0639035 -0.696397 0.0801645 0.0654417 -0.697795 0.080817 0.0663486 -0.698619 
0.0810684 0.0665693 -0.69888 
LINES 2 100
OFFSETS vtktypeint64
0 100 
CONNECTIVITY vtktypeint64
0 1 2 3 4 5 6 7 8 
9 10 11 12 13 14 15 16 17 
18 19 20 21 22 23 24 25 26 
27 28 29 30 31 32 33 34 35 
36 37 38 39 40 41 42 43 44 
45 46 47 48 49 50 51 52 53 
54 55 56 57 58 59 60 61 62 
63 64 65 66 67 68 69 70 71 
72 73 74 75 76 77 78 79 80 
81 82 83 84 85 86 87 88 89 
90 91 92 93 94 95 96 97 98 
99 
POINT_DATA 100
FIELD FieldData 3
_theta 1 100 double
0 0.031733259127 0.063466518254 0.095199777382 0.12693303651 0.15866629564 0.19039955476 0.22213281389 0.25386607302 
0.28559933214 0.31733259127 0.3490658504 0.38079910953 0.41253236865 0.44426562778 0.47599888691 0.50773214603 0.53946540516 
0.57119866429 0.60293192342 0.63466518254 0.66639844167 0.6981317008 0.72986495992 0.76159821905 0.79333147818 0.82506473731 
0.85679799643 0.88853125556 0.92026451469 0.95199777382 0.98373103294 1.0154642921 1.0471975512 1.0789308103 1.1106640695 
1.1423973286 1.1741305877 1.2058638468 1.237597106 1.2693303651 1.3010636242 1.3327968833 1.3645301425 1.3962634016 
1.4279966607 1.4597299198 1.491463179 1.5231964381 1.5549296972 1.5866629564 1.6183962155 1.6501294746 1.6818627337 
1.7135959929 1.745329252 1.7770625111 1.8087957702 1.8405290294 1.8722622885 1.9039955476 1.9357288068 1.9674620659 
1.999195325 2.0309285841 2.0626618433 2.0943951024 2.1261283615 2.1578616206 2.1895948798 2.2213281389 2.253061398 
2.2847946572 2.3165279163 2.3482611754 2.3799944345 2.4117276937 2.4434609528 2.4751942119 2.506927471 2.5386607302 
2.5703939893 2.6021272484 2.6338605076 2.6655937667 2.6973270258 2.7290602849 2.7607935441 2.7925268032 2.8242600623 
2.8559933214 2.8877265806 2.9194598397 2.9511930988 2.982926358 3.0146596171 3.0463928762 3.0781261353 3.1098593945 
3.1415926536 
_radius 1 100 double
1.0122226684e-15 0.015132324213 0.030278128585 0.045447465368 0.060633491846 0.075807092753 0.090914943758 0.1058812746 0.12061299486 
0.13500732548 0.14896071782 0.16237769267 0.17517831455 0.187303315 0.19871633172 0.20940323998 0.21936898959 0.22863261386 
0.23722111335 0.2451628294 0.25248087866 0.2591873418 0.2652791454 0.27073674177 0.27552652368 0.2796072869 0.28294009164 
0.28549989899 0.28728672288 0.28833394237 0.28871185511 0.28852536487 0.28790568874 0.28699697041 0.28593955473 0.28485229565 
0.28381652214 0.28286410338 0.28197145916 0.28106049984 0.28000657273 0.27865271292 0.27682888254 0.27437436432 0.2711609942 
0.26711453142 0.26223133003 0.25658774093 0.25034038412 0.24371649694 0.2369948316 0.2304789005 0.22446567881 0.21921410426 
0.21491860165 0.21169267457 0.20956538589 0.2084893314 0.2083546661 0.20900289805 0.2102373832 0.21183232614 0.21354490598 
0.21513380715 0.2163831426 0.21712689743 0.21726798553 0.2167876166 0.21574342126 0.21425740384 0.21249655145 0.21064946665 
0.20890181747 0.20741238655 0.20629094872 0.20557959421 0.205240123 0.20515069355 0.20511382705 0.2048751267 0.20414926273 
0.20264852674 0.20010971256 0.19631633376 0.19111445713 0.18442145976 0.17622784848 0.16659296431 0.15563587269 0.14352291919 
0.13045329737 0.11664365709 0.10231247838 0.087664818757 0.072878175767 0.058090542397 0.043392113707 0.028822271921 0.014373138775 
1.2106602071e-15 
_area 1 100 double
0 0.00062011131566 0.0024926263369 0.0056477585559 0.010116943197 0.015911203409 0.023001627588 0.031307686343 0.040696205492 
0.050990543119 0.061987126273 0.073475519325 0.085258328093 0.097167803463 0.10907657933 0.12090073997 0.13259475369 0.14413957375 
0.15552648016 0.16673926258 0.17773660332 0.18843635666 0.19870445469 0.20835248181 0.21714801278 0.22483984312 0.23119654213 
0.23605205984 0.23934749024 0.2411553877 0.24167483578 0.24119454525 0.24003673377 0.23850396081 0.23684161783 0.23521377583 
0.23368943629 0.23224330461 0.23077329476 0.22912579079 0.22711569575 0.22453798633 0.22117843366 0.21683326052 0.21134178019 
0.20462754962 0.19673663923 0.18785919005 0.17832389149 0.16856358813 0.15906004157 0.15028154632 0.14262502698 0.13636115619 
0.13156627464 0.12808040877 0.12559824289 0.12382208577 0.12253090045 0.12157535741 0.12085065278 0.1202659903 0.11971751291 
0.11908049859 0.1182353939 0.11711536892 0.11573311964 0.11414637672 0.11239670111 0.11050590321 0.10850925103 0.1064790408 
0.10454012407 0.10289327374 0.10184201723 0.10180969872 0.10284108145 0.10450734632 0.10636535319 0.10800207058 0.1089904139 
0.10892056952 0.10745590439 0.10438255934 0.099637455652 0.093309396185 0.08561651611 0.076869107987 0.067428555739 0.05767092435 
0.04795927796 0.038624394705 0.029951246394 0.022169184527 0.015446263186 0.0098900987696 0.0055567271129 0.0024654860384 0.00061552495508 
7.2533122946e-17 
