# vtk DataFile Version 5.1
vtk output
ASCII
DATASET POLYDATA
POINTS 100 float
0.225361 0.0498315 -0.67633 0.225013 0.0497723 -0.676371 0.22385 0.0497383 -0.676371 
0.221943 0.0497265 -0.67625 0.219403 0.0497307 -0.675888 0.216357 0.0497401 -0.675138 
0.212935 0.0497375 -0.673845 0.209245 0.0496972 -0.671866 0.205356 0.049584 -0.669083 
0.201285 0.0493516 -0.665419 0.196991 0.0489433 -0.660841 0.192378 0.0482926 -0.655359 
0.187304 0.0473252 -0.649021 0.1816 0.045963 -0.641901 0.175092 0.0441275 -0.634079 
0.167626 0.0417455 -0.625629 0.159091 0.0387542 -0.616598 0.149441 0.0351066 -0.607002 
0.138706 0.0307771 -0.596811 0.126999 0.0257652 -0.585958 0.114508 0.0200992 -0.57434 
0.101483 0.0138375 -0.561834 0.088216 0.007069 -0.548312 0.0750117 -8.89962e-05 -0.533661 
0.0621593 -0.00749407 -0.517795 0.0499047 -0.0149839 -0.500674 0.0384274 -0.022383 -0.482309 
0.0278243 -0.0295099 -0.462761 0.0181038 -0.0361857 -0.442141 0.00918899 -0.0422423 -0.420593 
0.000931584 -0.0475304 -0.398278 -0.00686657 -0.0519264 -0.375358 -0.0144258 -0.0553388 -0.351978 
-0.0219586 -0.0577117 -0.328247 -0.0296398 -0.0590276 -0.304232 -0.0375822 -0.0593075 -0.27995 
-0.045818 -0.0586087 -0.255377 -0.0542896 -0.0570213 -0.230455 -0.0628512 -0.0546627 -0.205107 
-0.0712796 -0.0516703 -0.179257 -0.0792936 -0.0481943 -0.152851 -0.0865799 -0.0443894 -0.125869 
-0.0928234 -0.040407 -0.0983411 -0.0977359 -0.0363884 -0.0703548 -0.101084 -0.0324588 -0.0420504 
-0.102711 -0.0287229 -0.0136149 -0.102548 -0.0252631 0.014733 -0.100623 -0.0221377 0.042761 
-0.0970527 -0.0193832 0.0702444 -0.0920337 -0.0170159 0.0969853 -0.0858206 -0.0150355 0.122829 
-0.0787041 -0.0134299 0.147675 -0.0709857 -0.0121784 0.171482 -0.0629532 -0.0112562 0.194265 
-0.0548594 -0.0106371 0.216087 -0.0469067 -0.0102953 0.237045 -0.0392365 -0.0102062 0.257253 
-0.031927 -0.0103458 0.276826 -0.0249962 -0.0106895 0.295865 -0.0184114 -0.0112096 0.314446 
-0.0121021 -0.0118738 0.332613 -0.00597575 -0.0126426 0.350378 6.63847e-05 -0.0134688 0.367729 
0.00611425 -0.0142979 0.384632 0.0122368 -0.0150688 0.401052 0.0184737 -0.0157177 0.416958 
0.0248304 -0.0161819 0.432336 0.0312786 -0.016405 0.447196 0.0377595 -0.0163425 0.461574 
0.0441905 -0.0159666 0.475526 0.0504737 -0.0152711 0.489125 0.0565061 -0.0142734 0.502446 
0.0621887 -0.0130153 0.515555 0.0674348 -0.0115612 0.528494 0.0721778 -0.00999371 0.541274 
0.076375 -0.00840742 0.553866 0.0800104 -0.00690074 0.566203 0.0830949 -0.00556707 0.578185 
0.0856641 -0.00448583 0.589687 0.0877749 -0.00371448 0.60058 0.0895003 -0.00328239 0.610739 
0.0909243 -0.00318723 0.620069 0.0921355 -0.00339453 0.628512 0.0932216 -0.00384044 0.636059 
0.0942637 -0.00443761 0.642751 0.0953318 -0.00508366 0.64868 0.096481 -0.00567144 0.653972 
0.0977485 -0.00609999 0.658774 0.0991525 -0.00628512 0.663238 0.100691 -0.00616847 0.667495 
0.102344 -0.00572403 0.671645 0.104074 -0.00496133 0.675736 0.105828 -0.003925 0.679764 
0.107545 -0.00269066 0.683668 0.109158 -0.00135739 0.687339 0.110598 -3.77816e-05 0.690636 
0.111802 0.00115364 0.693402 0.112713 0.0021122 0.695488 0.11329 0.00275402 0.696768 
0.113505 0.00302469 0.697159 
LINES 2 100
OFFSETS vtktypeint64
0 100 
CONNECTIVITY vtktypeint64
0 1 2 3 4 5 6 7 8 
9 10 11 12 13 14 15 16 17 
18 19 20 21 22 23 24 25 26 
27 28 29 30 31 32 33 34 35 
36 37 38 39 40 41 42 43 44 
45 46 47 48 49 50 51 52 53 
54 55 56 57 58 59 60 61 62 
63 64 65 66 67 68 69 70 71 
72 73 74 75 76 77 78 79 80 
81 82 83 84 85 86 87 88 89 
90 91 92 93 94 95 96 97 98 
99 
POINT_DATA 100
FIELD FieldData 3
_theta 1 100 double
0 0.031733259127 0.063466518254 0.095199777382 0.12693303651 0.15866629564 0.19039955476 0.22213281389 0.25386607302 
0.28559933214 0.31733259127 0.3490658504 0.38079910953 0.41253236865 0.44426562778 0.47599888691 0.50773214603 0.53946540516 
0.57119866429 0.60293192342 0.63466518254 0.66639844167 0.6981317008 0.72986495992 0.76159821905 0.79333147818 0.82506473731 
0.85679799643 0.88853125556 0.92026451469 0.95199777382 0.98373103294 1.0154642921 1.0471975512 1.0789308103 1.1106640695 
1.1423973286 1.1741305877 1.2058638468 1.237597106 1.2693303651 1.3010636242 1.3327968833 1.3645301425 1.3962634016 
1.4279966607 1.4597299198 1.491463179 1.5231964381 1.5549296972 1.5866629564 1.6183962155 1.6501294746 1.6818627337 
1.7135959929 1.745329252 1.7770625111 1.8087957702 1.8405290294 1.8722622885 1.9039955476 1.9357288068 1.9674620659 
1.999195325 2.0309285841 2.0626618433 2.0943951024 2.1261283615 2.1578616206 2.1895948798 2.2213281389 2.253061398 
2.2847946572 2.3165279163 2.3482611754 2.3799944345 2.4117276937 2.4434609528 2.4751942119 2.506927471 2.5386607302 
2.5703939893 2.6021272484 2.6338605076 2.6655937667 2.6973270258 2.7290602849 2.7607935441 2.7925268032 2.8242600623 
2.8559933214 2.8877265806 2.9194598397 2.9511930988 2.982926358 3.0146596171 3.0463928762 3.0781261353 3.1098593945 
3.1415926536 
_radius 1 100 double
1.1703509629e-15 0.017630243684 0.035141693724 0.052421909396 0.069369529192 0.085892800453 0.10190245891 0.11730112635 0.13197291023 
0.1457770546 0.15854830136 0.17010468491 0.18026163167 0.18885003456 0.19573552899 0.20083630362 0.20413718421 0.20569830094 
0.20565737183 0.20422548331 0.20167708831 0.19833552877 0.19455547677 0.19070319877 0.18713472658 0.18417148858 0.18207357929 
0.18101315257 0.18105353987 0.18214101939 0.18411352547 0.1867251813 0.18968105936 0.19267523622 0.19542626745 0.19770598926 
0.19935923803 0.20031367524 0.20058057544 0.20024902935 0.19947685388 0.19848075738 0.19752604722 0.19691368681 0.19696126605 
0.19797513958 0.20021381545 0.20384743351 0.2089232032 0.21534843318 0.22289838957 0.23124727453 0.24001292415 0.248803835 
0.25726008759 0.2650839598 0.2720590065 0.27805787055 0.28303981132 0.28703946799 0.29014889292 0.29249534596 0.29421764453 
0.29544394991 0.29627367983 0.29676569943 0.29693402544 0.296751079 0.29615729318 0.29507492662 0.29342345245 0.29113389739 
0.28815989013 0.28448381956 0.28011732317 0.27509627082 0.26947137841 0.26329640625 0.25661635151 0.24945797936 0.24182445867 
0.23369495384 0.22502903342 0.21577490529 0.20587989824 0.19530133134 0.18401596836 0.17202663736 0.15936521941 0.14609189425 
0.1322910597 0.11806460898 0.10352333505 0.088777301642 0.073926160128 0.059050552205 0.044205816021 0.029419117869 0.014690786853 
3.4768980547e-16 
_area 1 100 double
0 0.00061353724628 0.0024522348571 0.0055079498656 0.0097596810357 0.015164347435 0.021647082974 0.029092725338 0.037338996754 
0.046170969279 0.055317407167 0.06445237222 0.073207130847 0.081195542966 0.088051729959 0.0934742352 0.097267456631 0.099369684269 
0.09985876084 0.098932089494 0.096866669145 0.093973400832 0.090562340763 0.086929627801 0.083369025076 0.080210671297 0.077862228852 
0.076627147604 0.076559076987 0.07764912689 0.079852115691 0.083038578137 0.086960745207 0.09127036851 0.095592403596 0.099615303086 
0.10314003207 0.10606204013 0.10832840392 0.10992079753 0.11087037917 0.11135035591 0.11154330119 0.11166172988 0.11211296575 
0.11346368151 0.11623646413 0.12068631485 0.12701511963 0.13528558858 0.1453770958 0.1569875098 0.16965441246 0.18280109891 
0.1958079824 0.2080909432 0.2191670277 0.22869664871 0.23649943848 0.24254708297 0.24693982466 0.24987273445 0.25159504782 
0.25236452211 0.25240091881 0.2518467848 0.25074596008 0.24904742754 0.24663403596 0.24336655209 0.23912912135 0.23386398371 
0.22758828584 0.22039108459 0.21241298971 0.2038142673 0.19473983658 0.18529114705 0.17551393688 0.16540584623 0.15494012077 
0.14409564511 0.13288278928 0.12135834305 0.10962787307 0.097837513888 0.08615873523 0.074769816818 0.063837851636 0.053505350987 
0.043884874849 0.035062492468 0.027106945178 0.020078747528 0.014034465014 0.0090253752196 0.0050934227763 0.0022682963043 0.00056766885597 
1.4423263893e-17 
