# vtk DataFile Version 5.1
vtk output
ASCII
DATASET POLYDATA
POINTS 100 float
0.187879 0.0440339 -0.685139 0.187791 0.0440307 -0.684637 0.187529 0.0441146 -0.683 
0.187045 0.0442358 -0.680272 0.186262 0.0443191 -0.676521 0.185089 0.044273 -0.671838 
0.183433 0.0439995 -0.666326 0.181215 0.0434064 -0.660095 0.17838 0.0424168 -0.653251 
0.174905 0.0409776 -0.645891 0.170805 0.0390642 -0.638095 0.166129 0.0366819 -0.629919 
0.160956 0.0338636 -0.621396 0.155382 0.0306639 -0.612534 0.149509 0.0271517 -0.603315 
0.143431 0.0234004 -0.593702 0.13722 0.0194797 -0.583641 0.13092 0.0154475 -0.573069 
0.124541 0.0113455 -0.56192 0.118058 0.0071967 -0.550126 0.111421 0.00300706 -0.537631 
0.10456 -0.00123011 -0.524387 0.0974023 -0.00552744 -0.510363 0.0898829 -0.00989554 -0.495542 
0.0819573 -0.0143349 -0.479923 0.0736112 -0.0188292 -0.463522 0.064865 -0.0233406 -0.446366 
0.055774 -0.0278083 -0.428491 0.0464228 -0.0321502 -0.409943 0.036916 -0.0362682 -0.390769 
0.0273665 -0.0400559 -0.371018 0.0178823 -0.0434077 -0.350736 0.00855482 -0.0462291 -0.329965 
-0.000549304 -0.0484454 -0.308742 -0.00939255 -0.0500092 -0.287098 -0.0179651 -0.0509049 -0.265058 
-0.0262787 -0.0511489 -0.242642 -0.0343553 -0.050788 -0.219865 -0.0422142 -0.049893 -0.196742 
-0.0498577 -0.0485513 -0.173285 -0.0572582 -0.046857 -0.149511 -0.0643501 -0.0449021 -0.125441 
-0.0710256 -0.0427676 -0.1011 -0.0771384 -0.0405182 -0.0765255 -0.0825128 -0.0381979 -0.0517622 
-0.0869586 -0.0358308 -0.0268663 -0.0902904 -0.033423 -0.00190462 -0.0923478 -0.0309686 0.0230463 
-0.0930152 -0.0284558 0.0479017 -0.0922375 -0.0258751 0.0725713 -0.0900301 -0.0232254 0.0969621 
-0.0864817 -0.02052 0.120982 -0.0817487 -0.0177891 0.144546 -0.0760423 -0.0150808 0.167573 
-0.0696097 -0.0124578 0.19 -0.0627106 -0.0099937 0.211774 -0.0555936 -0.00776545 0.232862 
-0.0484735 -0.00584668 0.253247 -0.0415136 -0.00430025 0.272928 -0.034814 -0.00317224 0.29192 
-0.0284087 -0.0024877 0.310251 -0.0222697 -0.00224888 0.327958 -0.0163199 -0.00243586 0.345084 
-0.0104503 -0.00300961 0.361675 -0.00454116 -0.00391687 0.377774 0.00151646 -0.00509612 0.393422 
0.00780187 -0.00648388 0.408651 0.0143505 -0.00802042 0.42349 0.0211462 -0.00965423 0.437957 
0.0281212 -0.0113447 0.452066 0.0351632 -0.013063 0.465823 0.0421281 -0.0147907 0.47923 
0.0488578 -0.0165175 0.492286 0.0551987 -0.0182374 0.504986 0.06102 -0.0199451 0.517322 
0.0662285 -0.0216325 0.529281 0.0707776 -0.0232866 0.540849 0.0746711 -0.0248882 0.552003 
0.0779594 -0.0264131 0.562714 0.08073 -0.0278337 0.572943 0.0830941 -0.0291224 0.582644 
0.0851706 -0.0302553 0.591762 0.0870699 -0.0312158 0.600235 0.0888802 -0.0319975 0.608001 
0.0906579 -0.0326056 0.614996 0.0924231 -0.0330576 0.621165 0.0941609 -0.033381 0.626465 
0.0958281 -0.0336107 0.630873 0.0973638 -0.0337847 0.634389 0.0987023 -0.0339394 0.637041 
0.0997863 -0.0341053 0.638885 0.100578 -0.0343029 0.640006 0.101068 -0.0345409 0.640515 
0.101277 -0.034815 0.640541 0.101254 -0.0351094 0.640226 0.101071 -0.0353994 0.639713 
0.100812 -0.0356552 0.639137 0.100561 -0.035847 0.638617 0.100388 -0.0359492 0.638244 
0.100341 -0.0359444 0.638076 
LINES 2 100
OFFSETS vtktypeint64
0 100 
CONNECTIVITY vtktypeint64
0 1 2 3 4 5 6 7 8 
9 10 11 12 13 14 15 16 17 
18 19 20 21 22 23 24 25 26 
27 28 29 30 31 32 33 34 35 
36 37 38 39 40 41 42 43 44 
45 46 47 48 49 50 51 52 53 
54 55 56 57 58 59 60 61 62 
63 64 65 66 67 68 69 70 71 
72 73 74 75 76 77 78 79 80 
81 82 83 84 85 86 87 88 89 
90 91 92 93 94 95 96 97 98 
99 
POINT_DATA 100
FIELD FieldData 3
_theta 1 100 double
0 0.031733259127 0.063466518254 0.095199777382 0.12693303651 0.15866629564 0.19039955476 0.22213281389 0.25386607302 
0.28559933214 0.31733259127 0.3490658504 0.38079910953 0.41253236865 0.44426562778 0.47599888691 0.50773214603 0.53946540516 
0.57119866429 0.60293192342 0.63466518254 0.66639844167 0.6981317008 0.72986495992 0.76159821905 0.79333147818 0.82506473731 
0.85679799643 0.88853125556 0.92026451469 0.95199777382 0.98373103294 1.0154642921 1.0471975512 1.0789308103 1.1106640695 
1.1423973286 1.1741305877 1.2058638468 1.237597106 1.2693303651 1.3010636242 1.3327968833 1.3645301425 1.3962634016 
1.4279966607 1.4597299198 1.491463179 1.5231964381 1.5549296972 1.5866629564 1.6183962155 1.6501294746 1.6818627337 
1.7135959929 1.745329252 1.7770625111 1.8087957702 1.8405290294 1.8722622885 1.9039955476 1.9357288068 1.9674620659 
1.999195325 2.0309285841 2.0626618433 2.0943951024 2.1261283615 2.1578616206 2.1895948798 2.2213281389 2.253061398 
2.2847946572 2.3165279163 2.3482611754 2.3799944345 2.4117276937 2.4434609528 2.4751942119 2.506927471 2.5386607302 
2.5703939893 2.6021272484 2.6338605076 2.6655937667 2.6973270258 2.7290602849 2.7607935441 2.7925268032 2.8242600623 
2.8559933214 2.8877265806 2.9194598397 2.9511930988 2.982926358 3.0146596171 3.0463928762 3.0781261353 3.1098593945 
3.1415926536 
_radius 1 100 double
6.6934255304e-16 0.012849487258 0.025632803853 0.03829158483 0.050784754619 0.063088404371 0.075187783955 0.087063302559 0.098674890843 
0.10995010845 0.120780327 0.1310266358 0.14053411995 0.14915106984 0.15674895469 0.16323941052 0.16858558614 0.17280654 
0.17597468642 0.17820734876 0.17965415973 0.18048231524 0.18086159863 0.18095080748 0.18088691523 0.18077805787 0.1807010922 
0.18070370079 0.18080973403 0.18102531006 0.18134323715 0.18174495589 0.1822012495 0.18267374965 0.18311845763 0.18349128141 
0.18375491756 0.18388618883 0.18388275226 0.18376785183 0.18359177183 0.18342911827 0.1833720541 0.18352086344 0.18397416415 
0.18482109355 0.18613662899 0.18797946939 0.19039072919 0.19339181398 0.19698097874 0.20112931933 0.20577760448 0.21083529938 
0.21618264659 0.22167608191 0.22715673104 0.23246126941 0.23743401951 0.2419388722 0.24586955455 0.24915697327 0.2517727694 
0.25372869406 0.25507184783 0.25587619008 0.25623105826 0.25622779175 0.25594592732 0.255440735 0.25473393381 0.25380911769 
0.25261268964 0.2510600842 0.24904604613 0.246457054 0.24318383173 0.23913225624 0.23423162779 0.22843992715 0.22174612627 
0.21416980088 0.20575832106 0.19658191359 0.18672698823 0.17628829587 0.16536068636 0.15403138486 0.14237374358 0.13044330509 
0.11827672082 0.1058936354 0.093301147791 0.08049999658 0.06749130263 0.05428262736 0.040892298651 0.027351366249 0.013703050525 
2.1198659268e-16 
_area 1 100 double
0 0.00046344394871 0.0018402137768 0.004093851777 0.0071756471911 0.011036264496 0.015631616029 0.020917997183 0.02683618038 
0.033289931185 0.040128239385 0.047139977579 0.054064922968 0.060619026906 0.066527511952 0.071557960169 0.075546652785 0.078414102142 
0.080168870229 0.080901285416 0.080769844698 0.079982945253 0.078777737068 0.077397069588 0.076065436094 0.074966388303 0.074226933581 
0.073914802094 0.074048014459 0.074608659098 0.075552807104 0.076814773002 0.078310424879 0.079944307484 0.081619558164 0.083247438138 
0.084755705909 0.086096216854 0.087251163944 0.088237046544 0.089106352032 0.089946137075 0.090870125157 0.092002247221 0.0934561161 
0.095320888732 0.097662791456 0.10054008247 0.10401401834 0.10813983797 0.11294711233 0.11843019513 0.12454788553 0.13122097351 
0.13832678883 0.14569473217 0.15310566737 0.16029896144 0.16699189867 0.17291232965 0.17783758396 0.181627529 0.18424117696 
0.1857329641 0.18623351238 0.18592423765 0.18501063326 0.18369289851 0.18213420342 0.18043233585 0.17860265596 0.17657797488 
0.17422609142 0.17138060939 0.16787699934 0.1635845432 0.1584265909 0.15238641825 0.14550144545 0.13785115974 0.12954314125 
0.12069975379 0.11144731558 0.10190935649 0.092204722542 0.082449691483 0.072761730789 0.063262014158 0.05407474823 0.045323243933 
0.037124272585 0.029582643146 0.022787258658 0.016809006821 0.011700362675 0.0074965419362 0.0042180729664 0.0018744882319 0.00046852529587 
4.2954833593e-17 
