# vtk DataFile Version 5.1
vtk output
ASCII
DATASET POLYDATA
POINTS 100 float
0.094771 -0.0162454 0.626737 0.0947775 -0.0160956 0.626771 0.0947259 -0.0157678 0.627004 
0.0946202 -0.0152868 0.627337 0.0944667 -0.0146914 0.627618 0.0942747 -0.0140312 0.627656 
0.0940557 -0.0133607 0.627244 0.0938239 -0.012735 0.62618 0.0935946 -0.0122039 0.624288 
0.0933833 -0.0118083 0.621432 0.0932038 -0.0115771 0.617526 0.0930657 -0.0115253 0.612539 
0.0929721 -0.011655 0.60649 0.0929167 -0.0119557 0.599441 0.092882 -0.0124071 0.591478 
0.092838 -0.0129818 0.582701 0.0927413 -0.0136484 0.573204 0.0925362 -0.0143732 0.563065 
0.0921567 -0.0151227 0.552336 0.0915297 -0.0158639 0.541043 0.0905793 -0.0165648 0.529187 
0.0892311 -0.0171934 0.51675 0.0874177 -0.0177178 0.503712 0.0850822 -0.018105 0.490064 
0.0821824 -0.0183216 0.475816 0.0786926 -0.0183346 0.461012 0.0746046 -0.0181139 0.445735 
0.0699259 -0.0176356 0.430103 0.0646784 -0.0168856 0.414266 0.0588941 -0.0158646 0.398392 
0.0526113 -0.0145913 0.382649 0.0458707 -0.0131055 0.36719 0.0387115 -0.0114694 0.35213 
0.0311698 -0.00976641 0.337535 0.0232775 -0.00809758 0.323409 0.0150637 -0.00657581 0.30969 
0.00655717 -0.00531782 0.296252 -0.00220907 -0.00443484 0.282919 -0.0111928 -0.00402277 0.269478 
-0.0203374 -0.00415296 0.255699 -0.0295671 -0.00486461 0.241359 -0.0387846 -0.00615975 0.226263 
-0.0478691 -0.00800155 0.210259 -0.056679 -0.0103163 0.193253 -0.0650559 -0.0129988 0.175214 
-0.0728319 -0.0159215 0.156173 -0.0798387 -0.018945 0.136218 -0.0859184 -0.0219309 0.115477 
-0.0909341 -0.0247532 0.0941041 -0.0947806 -0.0273099 0.0722649 -0.0973918 -0.0295303 0.0501176 
-0.0987465 -0.0313803 0.0278012 -0.0988698 -0.032863 0.00542735 -0.0978312 -0.0340151 -0.0169232 
-0.0957379 -0.0349003 -0.0391991 -0.0927255 -0.0355993 -0.0613721 -0.0889459 -0.0361989 -0.0834287 
-0.0845541 -0.0367792 -0.10536 -0.0796944 -0.0374037 -0.127151 -0.0744888 -0.03811 -0.148778 
-0.0690277 -0.0389041 -0.170197 -0.0633642 -0.0397584 -0.191349 -0.0575132 -0.0406134 -0.212165 
-0.051455 -0.0413827 -0.232564 -0.0451424 -0.0419607 -0.252472 -0.0385121 -0.0422327 -0.271822 
-0.0314982 -0.0420848 -0.290564 -0.0240456 -0.0414143 -0.308671 -0.0161241 -0.0401377 -0.326139 
-0.00773862 -0.0381972 -0.342985 0.00106284 -0.0355643 -0.359242 0.0101867 -0.0322396 -0.374948 
0.0194961 -0.0282512 -0.390141 0.0288178 -0.0236501 -0.404849 0.037954 -0.0185044 -0.419081 
0.0466971 -0.0128924 -0.432829 0.0548466 -0.00689657 -0.446062 0.0622259 -0.000597984 -0.458735 
0.0686979 0.00592808 -0.470798 0.0741771 0.0126144 -0.482202 0.0786377 0.0194024 -0.492914 
0.082116 0.0262416 -0.502926 0.0847074 0.0330877 -0.512264 0.0865577 0.0398996 -0.520986 
0.0878501 0.0466372 -0.529184 0.0887883 0.0532585 -0.536975 0.0895778 0.0597187 -0.544488 
0.0904076 0.0659689 -0.551847 0.0914332 0.0719568 -0.559155 0.0927627 0.0776277 -0.566476 
0.0944483 0.0829265 -0.573821 0.0964829 0.0877995 -0.581145 0.0988022 0.0921969 -0.588337 
0.101293 0.0960743 -0.595234 0.103807 0.0993937 -0.601625 0.106174 0.102125 -0.60728 
0.108223 0.104244 -0.611964 0.109799 0.105735 -0.615462 0.11078 0.106587 -0.617605 
0.111087 0.106795 -0.618283 
LINES 2 100
OFFSETS vtktypeint64
0 100 
CONNECTIVITY vtktypeint64
0 1 2 3 4 5 6 7 8 
9 10 11 12 13 14 15 16 17 
18 19 20 21 22 23 24 25 26 
27 28 29 30 31 32 33 34 35 
36 37 38 39 40 41 42 43 44 
45 46 47 48 49 50 51 52 53 
54 55 56 57 58 59 60 61 62 
63 64 65 66 67 68 69 70 71 
72 73 74 75 76 77 78 79 80 
81 82 83 84 85 86 87 88 89 
90 91 92 93 94 95 96 97 98 
99 
POINT_DATA 100
FIELD FieldData 3
_theta 1 100 double
0 0.031733259127 0.063466518254 0.095199777382 0.12693303651 0.15866629564 0.19039955476 0.22213281389 0.25386607302 
0.28559933214 0.31733259127 0.3490658504 0.38079910953 0.41253236865 0.44426562778 0.47599888691 0.50773214603 0.53946540516 
0.57119866429 0.60293192342 0.63466518254 0.66639844167 0.6981317008 0.72986495992 0.76159821905 0.79333147818 0.82506473731 
0.85679799643 0.88853125556 0.92026451469 0.95199777382 0.98373103294 1.0154642921 1.0471975512 1.0789308103 1.1106640695 
1.1423973286 1.1741305877 1.2058638468 1.237597106 1.2693303651 1.3010636242 1.3327968833 1.3645301425 1.3962634016 
1.4279966607 1.4597299198 1.491463179 1.5231964381 1.5549296972 1.5866629564 1.6183962155 1.6501294746 1.6818627337 
1.7135959929 1.745329252 1.7770625111 1.8087957702 1.8405290294 1.8722622885 1.9039955476 1.9357288068 1.9674620659 
1.999195325 2.0309285841 2.0626618433 2.0943951024 2.1261283615 2.1578616206 2.1895948798 2.2213281389 2.253061398 
2.2847946572 2.3165279163 2.3482611754 2.3799944345 2.4117276937 2.4434609528 2.4751942119 2.506927471 2.5386607302 
2.5703939893 2.6021272484 2.6338605076 2.6655937667 2.6973270258 2.7290602849 2.7607935441 2.7925268032 2.8242600623 
2.8559933214 2.8877265806 2.9194598397 2.9511930988 2.982926358 3.0146596171 3.0463928762 3.0781261353 3.1098593945 
3.1415926536 
_radius 1 100 double
1.0268859687e-15 0.014469344218 0.02888197378 0.043181644838 0.057309017482 0.071201925439 0.084796808623 0.098030631377 0.11084245596 
0.12317409642 0.13496980911 0.14617553599 0.15673856423 0.16660845954 0.17573976852 0.18409638725 0.19165685846 0.19841940754 
0.2044054206 0.20966034603 0.21425155267 0.21826329762 0.22178946083 0.22492502703 0.22775749235 0.23035948123 0.23278376103 
0.23506132745 0.23720232987 0.23919876062 0.24102758333 0.24265341783 0.244030632 0.2451052356 0.2458171517 0.24610338394 
0.2459024971 0.24516072235 0.2438397539 0.24192578048 0.23943851701 0.23643821721 0.23302826541 0.22935138476 0.22557891481 
0.22189462693 0.21847628716 0.2154787982 0.21302204087 0.21118494772 0.21000552266 0.20948498494 0.20959340864 0.21027451552 
0.21144864045 0.2130147095 0.21485336612 0.2168333637 0.21882191881 0.22069763281 0.22236302325 0.22375349605 0.22484067733 
0.22562968492 0.22615139475 0.22645162404 0.22657932606 0.22657551549 0.22646400721 0.22624446484 0.22588792485 0.22533493098 
0.22449661444 0.22325931972 0.22149337692 0.21906601492 0.21585724763 0.21177639619 0.20677631245 0.2008625598 0.19409567208 
0.18658585119 0.17848070002 0.16994751423 0.16115223667 0.15223766556 0.14330406816 0.13439555884 0.12549471957 0.11652610956 
0.10736782019 0.097869833375 0.087877679042 0.077258565134 0.065925378615 0.053853625135 0.041088288183 0.027740526187 0.013976330772 
7.9146859902e-16 
_area 1 100 double
0 0.0005584169246 0.0022282669101 0.0049922348602 0.0088180391675 0.013654324683 0.01942694458 0.026037305035 0.033364035881 
0.041268239229 0.049601360084 0.058213680778 0.066960833061 0.075706109398 0.084318264968 0.092667302718 0.10062260781 0.10805737179 
0.11486088081 0.12095750113 0.12632935412 0.13103891515 0.13524645322 0.13920791619 0.14321479977 0.1474641337 0.15197862983 
0.15665215973 0.16132646062 0.16584060573 0.17005717552 0.17387200858 0.17720961224 0.18000476671 0.1821762298 0.18361077986 
0.18417247074 0.18372986037 0.18218668238 0.17951012214 0.17575383936 0.17106953789 0.16570047032 0.15995484183 0.15416250344 
0.14862432603 0.14356769201 0.13912040487 0.13531296704 0.13211102722 0.12945948423 0.12730986694 0.12562264548 0.1243600223 
0.1234830545 0.12295093358 0.12271392658 0.12269754621 0.12278717033 0.12282947795 0.12265858166 0.12213602495 0.12118475264 
0.11980398837 0.11806349201 0.11608311893 0.11400585269 0.11197114724 0.11009306696 0.10844704638 0.10707045902 0.10598160947 
0.10521333513 0.10482832902 0.10475497237 0.10465512518 0.10416597172 0.10297766231 0.10085475522 0.097672333763 0.093437024447 
0.088279435776 0.082420091035 0.07612044819 0.069634110513 0.063170897919 0.056879786413 0.050848672956 0.045111730139 0.039648643233 
0.034368055317 0.029132148333 0.023870360232 0.018652344546 0.013660393424 0.0091323775361 0.0053129429984 0.0024181826601 0.0006131526538 
5.9088598161e-17 
