# vtk DataFile Version 5.1
vtk output
ASCII
DATASET POLYDATA
POINTS 100 float
0.162935 0.0730601 -0.658287 0.162831 0.0731919 -0.658328 0.162552 0.0734119 -0.658451 
0.162075 0.0736804 -0.658553 0.161359 0.0739336 -0.658472 0.160354 0.074087 -0.658011 
0.159005 0.0740402 -0.656958 0.157257 0.0736819 -0.655109 0.15506 0.0728967 -0.652292 
0.152374 0.0715714 -0.648381 0.149172 0.0696026 -0.643309 0.145439 0.0669026 -0.637069 
0.141176 0.0634067 -0.629708 0.136395 0.0590777 -0.621317 0.131122 0.0539103 -0.612012 
0.125389 0.0479338 -0.601917 0.119235 0.0412127 -0.591146 0.112703 0.0338455 -0.579786 
0.105837 0.0259617 -0.567891 0.0986836 0.0177168 -0.555476 0.0912882 0.0092858 -0.54252 
0.0836964 0.000855255 -0.528978 0.0759524 -0.00738536 -0.514792 0.0680987 -0.0152527 -0.499907 
0.0601736 -0.0225784 -0.484288 0.0522097 -0.0292168 -0.467924 0.0442305 -0.0350519 -0.450844 
0.036248 -0.0400021 -0.433108 0.0282601 -0.0440228 -0.414806 0.0202491 -0.0471072 -0.396045 
0.012182 -0.049284 -0.376932 0.00401284 -0.050614 -0.357557 -0.00431233 -0.0511838 -0.337979 
-0.0128483 -0.0510991 -0.31821 -0.0216414 -0.0504763 -0.298214 -0.030719 -0.0494345 -0.277906 
-0.0400788 -0.0480878 -0.257158 -0.0496794 -0.0465384 -0.23582 -0.0594334 -0.0448711 -0.213737 
-0.0692036 -0.0431502 -0.190771 -0.0788047 -0.0414174 -0.166827 -0.0880096 -0.0396925 -0.141869 
-0.0965608 -0.0379759 -0.115935 -0.104186 -0.036252 -0.0891379 -0.110618 -0.0344949 -0.061665 
-0.115613 -0.0326732 -0.033764 -0.118971 -0.0307565 -0.00572333 -0.120556 -0.02872 0.0221521 
-0.120302 -0.0265494 0.049567 -0.118226 -0.0242438 0.0762602 -0.114424 -0.0218174 0.102025 
-0.109065 -0.0192999 0.126724 -0.102377 -0.0167345 0.15029 -0.0946274 -0.0141757 0.172731 
-0.0861027 -0.0116858 0.194111 -0.0770851 -0.00932997 0.214539 -0.067831 -0.00717232 0.234146 
-0.0585539 -0.00527136 0.253065 -0.0494124 -0.00367633 0.271414 -0.0405041 -0.00242427 0.289279 
-0.0318677 -0.00153819 0.306711 -0.0234902 -0.00102628 0.32372 -0.0153203 -0.000882289 0.340286 
-0.00728409 -0.00108681 0.356369 0.000696975 -0.00160937 0.371922 0.00868985 -0.00241108 0.386906 
0.0167364 -0.00344747 0.401307 0.0248448 -0.00467145 0.41514 0.0329858 -0.00603597 0.428458 
0.0410957 -0.00749634 0.441345 0.0490839 -0.00901202 0.453908 0.0568438 -0.0105479 0.466265 
0.0642671 -0.0120748 0.478524 0.0712577 -0.0135702 0.490772 0.0777433 -0.0150173 0.503056 
0.0836848 -0.016405 0.515373 0.0890805 -0.0177272 0.527669 0.0939654 -0.0189818 0.539838 
0.0984055 -0.0201702 0.551734 0.102488 -0.0212963 0.563186 0.106311 -0.0223658 0.574016 
0.109968 -0.0233858 0.58406 0.113537 -0.024364 0.593188 0.117071 -0.0253082 0.601316 
0.120591 -0.0262258 0.608416 0.124087 -0.0271232 0.614518 0.12752 -0.028005 0.619704 
0.130828 -0.0288741 0.624096 0.133937 -0.0297307 0.627843 0.136772 -0.0305723 0.631094 
0.139269 -0.0313934 0.633989 0.141384 -0.0321859 0.636636 0.143098 -0.0329392 0.639105 
0.144418 -0.0336406 0.641421 0.145377 -0.0342766 0.643567 0.146029 -0.0348331 0.645491 
0.146437 -0.0352972 0.647121 0.146665 -0.0356574 0.648375 0.146768 -0.0359051 0.649185 
0.146782 -0.0360348 0.649501 
LINES 2 100
OFFSETS vtktypeint64
0 100 
CONNECTIVITY vtktypeint64
0 1 2 3 4 5 6 7 8 
9 10 11 12 13 14 15 16 17 
18 19 20 21 22 23 24 25 26 
27 28 29 30 31 32 33 34 35 
36 37 38 39 40 41 42 43 44 
45 46 47 48 49 50 51 52 53 
54 55 56 57 58 59 60 61 62 
63 64 65 66 67 68 69 70 71 
72 73 74 75 76 77 78 79 80 
81 82 83 84 85 86 87 88 89 
90 91 92 93 94 95 96 97 98 
99 
POINT_DATA 100
FIELD FieldData 3
_theta 1 100 double
0 0.031733259127 0.063466518254 0.095199777382 0.12693303651 0.15866629564 0.19039955476 0.22213281389 0.25386607302 
0.28559933214 0.31733259127 0.3490658504 0.38079910953 0.41253236865 0.44426562778 0.47599888691 0.50773214603 0.53946540516 
0.57119866429 0.60293192342 0.63466518254 0.66639844167 0.6981317008 0.72986495992 0.76159821905 0.79333147818 0.82506473731 
0.85679799643 0.88853125556 0.92026451469 0.95199777382 0.98373103294 1.0154642921 1.0471975512 1.0789308103 1.1106640695 
1.1423973286 1.1741305877 1.2058638468 1.237597106 1.2693303651 1.3010636242 1.3327968833 1.3645301425 1.3962634016 
1.4279966607 1.4597299198 1.491463179 1.5231964381 1.5549296972 1.5866629564 1.6183962155 1.6501294746 1.6818627337 
1.7135959929 1.745329252 1.7770625111 1.8087957702 1.8405290294 1.8722622885 1.9039955476 1.9357288068 1.9674620659 
1.999195325 2.0309285841 2.0626618433 2.0943951024 2.1261283615 2.1578616206 2.1895948798 2.2213281389 2.253061398 
2.2847946572 2.3165279163 2.3482611754 2.3799944345 2.4117276937 2.4434609528 2.4751942119 2.506927471 2.5386607302 
2.5703939893 2.6021272484 2.6338605076 2.6655937667 2.6973270258 2.7290602849 2.7607935441 2.7925268032 2.8242600623 
2.8559933214 2.8877265806 2.9194598397 2.9511930988 2.982926358 3.0146596171 3.0463928762 3.0781261353 3.1098593945 
3.1415926536 
_radius 1 100 double
9.155133597e-16 0.01539291648 0.03058003019 0.045364667529 0.059573488424 0.073063839807 0.085726825371 0.097486165556 0.10829379218 
0.11812373124 0.12696599227 0.13482185317 0.14170124391 0.14762218546 0.15261174281 0.15670785816 0.15996164308 0.1624399483 
0.16422802454 0.16543176556 0.16617856035 0.16661548385 0.16690369207 0.16720855428 0.16768612963 0.16846775213 0.16964528246 
0.17125965576 0.17329465948 0.1756767498 0.17828063431 0.18093961729 0.18345942622 0.18563448772 0.18726632915 0.18818425852 
0.18826761206 0.18746666147 0.18581747748 0.18344620603 0.18056029028 0.17742738066 0.17434621082 0.17161628501 0.16951299264 
0.16827102579 0.16807382534 0.16904412694 0.17123287517 0.17460913606 0.17905723694 0.18438555536 0.19034603792 0.19665976079 
0.20304379784 0.20923627638 0.21501743323 0.22022460788 0.22475947684 0.22858694743 0.23172661202 0.23423888831 0.23620855925 
0.23772834451 0.23888458234 0.23974635979 0.24035872804 0.24074008702 0.24088342643 0.24076082894 0.24033041025 0.23954461398 
0.23835846285 0.23673610286 0.23465402815 0.23209998318 0.2290676827 0.22554882155 0.22152485425 0.21696128405 0.21180656711 
0.20599640865 0.19946266391 0.19214477304 0.18400102415 0.1750170825 0.16521006605 0.15462775663 0.14334391164 0.13145150857 
0.11905563778 0.10626680515 0.093194457666 0.079940372233 0.066592110532 0.053217410527 0.039860636989 0.02654215496 0.013260923768 
4.158257362e-16 
_area 1 100 double
0 0.00054255862205 0.002165847835 0.0048516650619 0.0085552311406 0.013190523454 0.018620127558 0.02465411307 0.031059286187 
0.037577090534 0.043946321252 0.049926079168 0.055314947555 0.059963822748 0.063781599008 0.066734394593 0.06883983048 0.070158186566 
0.070782607916 0.070830965324 0.070441494757 0.06977240826 0.069003926948 0.068337064351 0.067957438495 0.067970134824 0.068419117913 
0.069327171254 0.07070025813 0.072521195802 0.074740744513 0.077267761815 0.079962139439 0.082636786403 0.0850764557 0.087069562724 
0.088434272139 0.089056735112 0.088933945188 0.088186082661 0.087016777141 0.08565557722 0.084314720949 0.083172926211 0.082384754434 
0.082108881192 0.082533208438 0.083856555661 0.086220088555 0.089665103341 0.09414530752 0.099545651982 0.10569351166 0.11236619766 
0.11929929946 0.12620308861 0.13279080847 0.13881320403 0.14408772417 0.1485136664 0.15207195219 0.15481414326 0.1568470649 
0.15831663264 0.15938588789 0.16019196794 0.16078889251 0.1611309961 0.16111021719 0.1606003922 0.15948753948 0.15768973915 
0.15517065633 0.1519462425 0.14808192657 0.14367850942 0.13884795707 0.13368436269 0.12823860568 0.12250562746 0.1164299913 
0.1099294027 0.10292936783 0.095397931717 0.087369314381 0.078949010193 0.070298857786 0.061607339404 0.053056838871 0.044802355576 
0.036969572137 0.029666136794 0.022992431497 0.017043736072 0.011904987105 0.0076435638641 0.0043049500265 0.001913562456 0.00047826182584 
6.6373679161e-17 
