# vtk DataFile Version 5.1
vtk output
ASCII
DATASET POLYDATA
POINTS 100 float
0.178379 0.0798714 -0.607851 0.178436 0.0797106 -0.608009 0.178548 0.0793854 -0.608455 
0.178662 0.0788771 -0.609073 0.178692 0.0781564 -0.60968 0.178529 0.0771854 -0.610052 
0.178052 0.0759203 -0.609942 0.177128 0.0743146 -0.609112 0.175634 0.0723225 -0.607354 
0.173455 0.0699021 -0.604512 0.170499 0.0670183 -0.600492 0.166696 0.0636455 -0.595273 
0.162009 0.0597699 -0.588895 0.156431 0.0553908 -0.581457 0.149981 0.0505221 -0.573094 
0.14271 0.0451925 -0.563958 0.134691 0.0394459 -0.554195 0.126014 0.0333406 -0.543927 
0.116785 0.0269487 -0.53324 0.107118 0.0203544 -0.522167 0.0971286 0.0136526 -0.510692 
0.0869321 0.00694582 -0.498754 0.0766376 0.000341782 -0.486258 0.0663444 -0.00605014 -0.473088 
0.0561391 -0.0121227 -0.459127 0.0460923 -0.017775 -0.444272 0.0362573 -0.0229164 -0.428446 
0.0266682 -0.0274708 -0.411614 0.0173402 -0.0313804 -0.393779 0.00826995 -0.034608 -0.374988 
-0.000561662 -0.0371397 -0.355318 -0.00918624 -0.0389852 -0.334873 -0.0176426 -0.040177 -0.313765 
-0.0259706 -0.040768 -0.292106 -0.0342038 -0.0408285 -0.269992 -0.042362 -0.0404407 -0.247502 
-0.0504443 -0.0396935 -0.22469 -0.0584232 -0.0386758 -0.201589 -0.0662404 -0.0374711 -0.178213 
-0.0738056 -0.0361518 -0.154574 -0.0809982 -0.0347746 -0.130682 -0.0876724 -0.0333783 -0.106563 
-0.093665 -0.0319823 -0.0822633 -0.0988063 -0.0305876 -0.0578564 -0.102933 -0.0291801 -0.0334417 
-0.105899 -0.0277344 -0.00914174 -0.107593 -0.0262194 0.0149064 -0.107943 -0.024605 0.0385615 
-0.106926 -0.0228675 0.0616914 -0.104574 -0.0209954 0.084184 -0.100971 -0.0189934 0.105958 
-0.0962451 -0.0168851 0.126971 -0.0905645 -0.014713 0.147216 -0.0841202 -0.0125368 0.166726 
-0.0771132 -0.0104299 0.185563 -0.0697394 -0.00847366 0.203807 -0.0621751 -0.00675107 0.221546 
-0.0545658 -0.00533931 0.238862 -0.047018 -0.00430296 0.25582 -0.0395957 -0.0036879 0.272463 
-0.0323218 -0.0035166 0.288804 -0.0251828 -0.00378551 0.304833 -0.0181384 -0.0044645 0.320516 
-0.0111326 -0.00549878 0.33581 -0.00410632 -0.00681273 0.350671 0.00299071 -0.00831572 0.365065 
0.0101897 -0.00990897 0.378978 0.0174957 -0.0114931 0.392424 0.0248838 -0.0129758 0.405449 
0.0323 -0.0142779 0.418125 0.0396649 -0.0153396 0.430544 0.0468814 -0.0161234 0.442811 
0.0538437 -0.0166157 0.455026 0.0604479 -0.0168263 0.467276 0.0666013 -0.0167859 0.479614 
0.0722311 -0.0165419 0.492058 0.07729 -0.0161527 0.50458 0.0817586 -0.0156819 0.517106 
0.0856455 -0.0151921 0.529524 0.0889834 -0.0147395 0.541689 0.0918236 -0.0143693 0.553441 
0.0942289 -0.0141122 0.564613 0.0962662 -0.0139833 0.575056 0.0979994 -0.0139821 0.584643 
0.0994838 -0.0140939 0.593285 0.100763 -0.0142929 0.600934 0.101866 -0.0145459 0.607588 
0.102812 -0.014817 0.613283 0.103608 -0.0150711 0.618089 0.104258 -0.0152786 0.622099 
0.104761 -0.0154178 0.625415 0.105123 -0.0154769 0.628144 0.105352 -0.0154549 0.630379 
0.105467 -0.0153606 0.632203 0.105491 -0.0152112 0.633674 0.105454 -0.0150293 0.634835 
0.105388 -0.0148399 0.63571 0.105323 -0.014667 0.636311 0.105284 -0.0145304 0.636642 
0.105288 -0.0144431 0.636705 
LINES 2 100
OFFSETS vtktypeint64
0 100 
CONNECTIVITY vtktypeint64
0 1 2 3 4 5 6 7 8 
9 10 11 12 13 14 15 16 17 
18 19 20 21 22 23 24 25 26 
27 28 29 30 31 32 33 34 35 
36 37 38 39 40 41 42 43 44 
45 46 47 48 49 50 51 52 53 
54 55 56 57 58 59 60 61 62 
63 64 65 66 67 68 69 70 71 
72 73 74 75 76 77 78 79 80 
81 82 83 84 85 86 87 88 89 
90 91 92 93 94 95 96 97 98 
99 
POINT_DATA 100
FIELD FieldData 3
_theta 1 100 double
0 0.031733259127 0.063466518254 0.095199777382 0.12693303651 0.15866629564 0.19039955476 0.22213281389 0.25386607302 
0.28559933214 0.31733259127 0.3490658504 0.38079910953 0.41253236865 0.44426562778 0.47599888691 0.50773214603 0.53946540516 
0.57119866429 0.60293192342 0.63466518254 0.66639844167 0.6981317008 0.72986495992 0.76159821905 0.79333147818 0.82506473731 
0.85679799643 0.88853125556 0.92026451469 0.95199777382 0.98373103294 1.0154642921 1.0471975512 1.0789308103 1.1106640695 
1.1423973286 1.1741305877 1.2058638468 1.237597106 1.2693303651 1.3010636242 1.3327968833 1.3645301425 1.3962634016 
1.4279966607 1.4597299198 1.491463179 1.5231964381 1.5549296972 1.5866629564 1.6183962155 1.6501294746 1.6818627337 
1.7135959929 1.745329252 1.7770625111 1.8087957702 1.8405290294 1.8722622885 1.9039955476 1.9357288068 1.9674620659 
1.999195325 2.0309285841 2.0626618433 2.0943951024 2.1261283615 2.1578616206 2.1895948798 2.2213281389 2.253061398 
2.2847946572 2.3165279163 2.3482611754 2.3799944345 2.4117276937 2.4434609528 2.4751942119 2.506927471 2.5386607302 
2.5703939893 2.6021272484 2.6338605076 2.6655937667 2.6973270258 2.7290602849 2.7607935441 2.7925268032 2.8242600623 
2.8559933214 2.8877265806 2.9194598397 2.9511930988 2.982926358 3.0146596171 3.0463928762 3.0781261353 3.1098593945 
3.1415926536 
_radius 1 100 double
1.1544451141e-15 0.014721584977 0.029289457857 0.043558784008 0.05739538055 0.07067986939 0.083310887219 0.095207263604 0.1063089875 
0.11657672357 0.12598974055 0.13454237485 0.14223947251 0.14909151638 0.15511028989 0.16030593656 0.16468612695 0.16825771839 
0.17103079554 0.17302440737 0.17427283418 0.17483098767 0.17477763402 0.1742154844 0.17326771157 0.17207103196 0.17076606904 
0.16948619503 0.1683463191 0.16743308827 0.16679775786 0.16645271901 0.16637241824 0.16649907912 0.16675308184 0.16704702374 
0.16730150635 0.16745986786 0.1674988208 0.1674326549 0.16731037187 0.16720733622 0.16721487823 0.16743179305 0.16796014597 
0.16890454607 0.17037090008 0.17245995658 0.17525375571 0.17879798338 0.18308673982 0.18805554824 0.19358438564 0.19950869335 
0.20563495292 0.21175786596 0.21767698074 0.22321115937 0.22820972243 0.23255960044 0.23618830179 0.2390628889 0.24118547475 
0.24258608606 0.2433140632 0.24342933896 0.24299481908 0.24207066515 0.24071071183 0.23896075701 0.23685820088 0.23443248375 
0.23170586537 0.22869417207 0.22540717748 0.22184837134 0.21801410804 0.21389245771 0.20946230352 0.20469318087 0.19954608879 
0.19397522049 0.18793042201 0.18136020548 0.17421520207 0.16645192034 0.1580365579 0.14894848046 0.1391829316 0.12875260562 
0.11768786122 0.10603551347 0.093856281603 0.081221101321 0.068206658361 0.054890672973 0.041347621864 0.027645641616 0.013845228043 
1.0405877244e-15 
_area 1 100 double
0 0.00051608373543 0.0020588729192 0.0046088328924 0.008123751084 0.012527802726 0.017703543572 0.02349124615 0.029696360281 
0.036102728478 0.042488444424 0.048642022104 0.054377204524 0.059544749547 0.064039489181 0.067801580487 0.070812253231 0.073085984344 
0.074662034415 0.075597971355 0.075966213266 0.075852652062 0.075355267829 0.074580856539 0.073639145638 0.07263506246 0.071661546728 
0.070789627944 0.070045229603 0.069438044498 0.069039590266 0.068900435807 0.069038567944 0.069464245543 0.070161850593 0.07109797689 
0.072232598251 0.073526830703 0.074943695651 0.076445181966 0.077991031595 0.079540077099 0.081051948262 0.082492876382 0.083858969028 
0.085231087965 0.086832799644 0.0889076671 0.0915625043 0.094894015293 0.099022052394 0.10404707636 0.11000477266 0.11682607449 
0.12431600097 0.13216165717 0.13996999705 0.14732606519 0.15385621939 0.1592812536 0.1634492494 0.16634337888 0.16806306437 
0.16877638987 0.16864758533 0.16777715393 0.16619945388 0.16391764961 0.16093831693 0.1572961478 0.15306735383 0.14837065702 
0.14335681754 0.13818835824 0.13301090879 0.12792078208 0.12294082608 0.11801903021 0.1130531164 0.10792845959 0.10255169 
0.096869193899 0.09086921105 0.08457220811 0.078016426857 0.071245504627 0.064303291362 0.057237306321 0.050107839621 0.042997059339 
0.036013168281 0.029287574055 0.022965941338 0.017195634735 0.012112548877 0.0078302084082 0.0044334866781 0.0019781363977 0.00049551626825 
5.0431855624e-17 
