# vtk DataFile Version 5.1
vtk output
ASCII
DATASET POLYDATA
POINTS 100 float
0.152038 -0.0381739 0.705236 0.152124 -0.0381004 0.705199 0.152312 -0.0379914 0.705228 
0.152544 -0.0378439 0.705261 0.152733 -0.0376531 0.705197 0.152775 -0.0374122 0.704908 
0.152556 -0.0371122 0.70425 0.151969 -0.0367417 0.70307 0.150925 -0.0362871 0.701226 
0.149363 -0.0357328 0.69859 0.147252 -0.0350617 0.695064 0.144596 -0.034256 0.690583 
0.141426 -0.0332986 0.685116 0.137796 -0.0321744 0.678669 0.133772 -0.0308715 0.671279 
0.129421 -0.0293826 0.663008 0.124798 -0.0277068 0.653937 0.119943 -0.0258499 0.644153 
0.11487 -0.0238253 0.633744 0.109571 -0.0216541 0.622791 0.104017 -0.0193648 0.61136 
0.098164 -0.0169925 0.599501 0.0919613 -0.014578 0.587245 0.0853632 -0.0121663 0.574605 
0.0783371 -0.00980511 0.56158 0.0708706 -0.00754331 0.548157 0.0629762 -0.00542922 0.534319 
0.0546908 -0.00350928 0.520043 0.0460723 -0.00182654 0.505313 0.0371927 -0.000419514 0.490112 
0.0281286 0.000678971 0.474432 0.0189508 0.00144271 0.45827 0.00971592 0.00185294 0.441624 
0.000458883 0.00189906 0.424495 -0.00880969 0.00157915 0.406883 -0.0181022 0.000900237 0.388784 
-0.027448 -0.000121638 0.370188 -0.0368836 -0.0014618 0.351077 -0.04644 -0.00308769 0.331431 
-0.0561291 -0.00496019 0.311223 -0.0659312 -0.00703532 0.290428 -0.0757847 -0.00926652 0.269024 
-0.0855816 -0.0116072 0.246998 -0.0951675 -0.0140134 0.22435 -0.104348 -0.0164468 0.201095 
-0.112903 -0.0188766 0.177268 -0.120599 -0.0212821 0.152923 -0.127215 -0.0236531 0.128131 
-0.132558 -0.0259906 0.102979 -0.136484 -0.028305 0.0775646 -0.138911 -0.030615 0.0519889 
-0.139829 -0.0329435 0.0263535 -0.139299 -0.0353146 0.000752869 -0.137451 -0.0377485 -0.02473 
-0.134467 -0.040258 -0.0500274 -0.130566 -0.0428437 -0.0750886 -0.125977 -0.0454919 -0.09988 
-0.120925 -0.0481716 -0.124383 -0.115601 -0.0508348 -0.148591 -0.110151 -0.0534176 -0.172505 
-0.104661 -0.0558423 -0.196125 -0.0991557 -0.058022 -0.219451 -0.0935998 -0.0598655 -0.242473 
-0.0879099 -0.0612831 -0.265172 -0.0819698 -0.0621926 -0.287513 -0.0756503 -0.0625246 -0.309452 
-0.0688303 -0.0622269 -0.330933 -0.0614168 -0.0612687 -0.351893 -0.0533608 -0.0596411 -0.372268 
-0.0446693 -0.0573584 -0.391997 -0.0354096 -0.0544557 -0.411027 -0.0257078 -0.0509862 -0.429322 
-0.0157403 -0.0470171 -0.44686 -0.00572011 -0.0426249 -0.463641 0.0041198 -0.03789 -0.479683 
0.0135459 -0.0328919 -0.495023 0.0223423 -0.0277056 -0.509712 0.0303273 -0.0223977 -0.523811 
0.0373652 -0.0170249 -0.537384 0.0433748 -0.0116328 -0.550493 0.0483309 -0.00625672 -0.563194 
0.0522621 -0.000923047 -0.575526 0.0552436 0.00434876 -0.587513 0.057387 0.00954337 -0.599162 
0.0588274 0.0146469 -0.610459 0.0597115 0.0196443 -0.621371 0.0601847 0.0245175 -0.631851 
0.0603812 0.0292437 -0.641843 0.0604164 0.0337947 -0.65128 0.0603817 0.0381372 -0.660096 
0.0603426 0.042233 -0.668227 0.0603396 0.0460407 -0.675615 0.0603907 0.0495169 -0.682211 
0.0604955 0.0526183 -0.687974 0.0606405 0.0553033 -0.692876 0.060804 0.0575341 -0.696898 
0.0609611 0.0592778 -0.700027 0.0610879 0.0605083 -0.702259 0.0611654 0.0612066 -0.703592 
0.0611811 0.0613623 -0.704025 
LINES 2 100
OFFSETS vtktypeint64
0 100 
CONNECTIVITY vtktypeint64
0 1 2 3 4 5 6 7 8 
9 10 11 12 13 14 15 16 17 
18 19 20 21 22 23 24 25 26 
27 28 29 30 31 32 33 34 35 
36 37 38 39 40 41 42 43 44 
45 46 47 48 49 50 51 52 53 
54 55 56 57 58 59 60 61 62 
63 64 65 66 67 68 69 70 71 
72 73 74 75 76 77 78 79 80 
81 82 83 84 85 86 87 88 89 
90 91 92 93 94 95 96 97 98 
99 
POINT_DATA 100
FIELD FieldData 3
_theta 1 100 double
0 0.031733259127 0.063466518254 0.095199777382 0.12693303651 0.15866629564 0.19039955476 0.22213281389 0.25386607302 
0.28559933214 0.31733259127 0.3490658504 0.38079910953 0.41253236865 0.44426562778 0.47599888691 0.50773214603 0.53946540516 
0.57119866429 0.60293192342 0.63466518254 0.66639844167 0.6981317008 0.72986495992 0.76159821905 0.79333147818 0.82506473731 
0.85679799643 0.88853125556 0.92026451469 0.95199777382 0.98373103294 1.0154642921 1.0471975512 1.0789308103 1.1106640695 
1.1423973286 1.1741305877 1.2058638468 1.237597106 1.2693303651 1.3010636242 1.3327968833 1.3645301425 1.3962634016 
1.4279966607 1.4597299198 1.491463179 1.5231964381 1.5549296972 1.5866629564 1.6183962155 1.6501294746 1.6818627337 
1.7135959929 1.745329252 1.7770625111 1.8087957702 1.8405290294 1.8722622885 1.9039955476 1.9357288068 1.9674620659 
1.999195325 2.0309285841 2.0626618433 2.0943951024 2.1261283615 2.1578616206 2.1895948798 2.2213281389 2.253061398 
2.2847946572 2.3165279163 2.3482611754 2.3799944345 2.4117276937 2.4434609528 2.4751942119 2.506927471 2.5386607302 
2.5703939893 2.6021272484 2.6338605076 2.6655937667 2.6973270258 2.7290602849 2.7607935441 2.7925268032 2.8242600623 
2.8559933214 2.8877265806 2.9194598397 2.9511930988 2.982926358 3.0146596171 3.0463928762 3.0781261353 3.1098593945 
3.1415926536 
_radius 1 100 double
1.0003806012e-15 0.0164635739 0.032764318171 0.048753176507 0.064303395845 0.079317803943 0.093732220292 0.10751466764 0.12066065781 
0.13318536888 0.14511395373 0.15647151021 0.16727437338 0.17752423782 0.18720602893 0.19628949308 0.20473357878 0.21249228557 
0.21952086117 0.2257817575 0.23125023649 0.23591968206 0.23980642736 0.24295333636 0.24543076608 0.24733332007 0.24877142964 
0.24985837943 0.25069531374 0.25135779075 0.25188681747 0.25228560323 0.25252178871 0.25253420048 0.25224294663 0.25156154159 
0.25040968367 0.24872539939 0.24647551301 0.24366367655 0.2403353782 0.23657939997 0.23252519933 0.22833579575 0.22419609447 
0.22029723593 0.21681845632 0.2139088859 0.21167236407 0.2101582765 0.20936027012 0.20922261761 0.20965186027 0.21053032923 
0.21172872762 0.21311651821 0.2145702487 0.21598048718 0.21725784175 0.21833804258 0.21918556544 0.21979490705 0.2201885673 
0.2204112612 0.22052083746 0.22057742103 0.22063287547 0.22072246021 0.22085962436 0.2210337235 0.22120968669 0.22132867219 
0.22130941882 0.22105080374 0.2204364877 0.21934222144 0.21764557795 0.21523696832 0.21203016705 0.20797043153 0.20303868803 
0.19725104787 0.19065387318 0.18331545247 0.17531585067 0.16673657474 0.15765139865 0.14811919262 0.13817912406 0.12784833007 
0.11712217224 0.10597737088 0.094378418589 0.082287397889 0.069676529802 0.056541641437 0.042913761184 0.028865804176 0.014512084887 
4.954753774e-16 
_area 1 100 double
0 0.00065693659322 0.0025979753645 0.0057385000291 0.0099520669949 0.015088917466 0.020996338597 0.027537318681 0.034604270813 
0.04212436843 0.050052725348 0.058352247273 0.066966730306 0.075801102466 0.084720199598 0.093566601997 0.10218889881 0.11046875459 
0.11833639186 0.12576779667 0.13276319286 0.13931505663 0.14538205695 0.15088571539 0.15573460417 0.15986351183 0.16326595667 
0.16600348075 0.16818850838 0.1699494408 0.17139213275 0.17257234081 0.17348769217 0.17408505209 0.17427306037 0.17393568734 
0.17294904615 0.17120328503 0.16862744099 0.16521197935 0.16102296782 0.15620338069 0.15096032457 0.14554085564 0.14020178736 
0.13517949051 0.13066487853 0.12678755339 0.12361104853 0.12113747809 0.11931614924 0.11805039193 0.11720288255 0.11660860683 
0.11610081777 0.11553851741 0.11482182154 0.11389368106 0.11273344161 0.11134997405 0.10978039958 0.10809123034 0.10637246623 
0.10472393968 0.10325367906 0.10203827289 0.1010811926 0.10039936042 0.1000166248 0.099940100095 0.10016598426 0.10068282745 
0.1014542126 0.10239769195 0.10337385769 0.10419279678 0.10463518152 0.10448187026 0.10354367586 0.10168491986 0.098837814648 
0.095007164658 0.090265934183 0.0847425855 0.078601924632 0.072022788944 0.065177199133 0.058215308533 0.051258441447 0.04439986367 
0.037711329114 0.031253621326 0.025089971196 0.019300368753 0.01399279392 0.0093067795146 0.0054063205787 0.0024619212584 0.00062486800365 
8.6736173799e-19 
