# vtk DataFile Version 5.1
vtk output
ASCII
DATASET POLYDATA
POINTS 100 float
-0.023106 -0.0190791 0.656545 -0.0228476 -0.019013 0.656259 -0.0221196 -0.0189243 0.655575 
-0.0209735 -0.0188099 0.654491 -0.0194888 -0.0186669 0.653003 -0.0177637 -0.0184934 0.651102 
-0.0159041 -0.0182895 0.648775 -0.0140118 -0.0180576 0.646009 -0.012173 -0.0178035 0.642783 
-0.0104504 -0.0175365 0.639075 -0.00887716 -0.0172693 0.634859 -0.00745562 -0.0170174 0.630104 
-0.00616009 -0.0167982 0.624778 -0.00494317 -0.0166298 0.618848 -0.00374516 -0.0165292 0.612279 
-0.00250513 -0.0165106 0.605037 -0.00117223 -0.0165834 0.597091 0.000284054 -0.0167508 0.588414 
0.00186623 -0.0170079 0.578984 0.00354445 -0.017341 0.568789 0.00525629 -0.0177273 0.557824 
0.00691041 -0.0181346 0.546099 0.00839397 -0.0185233 0.533634 0.0095826 -0.0188468 0.520467 
0.0103519 -0.0190551 0.506646 0.0105892 -0.0190969 0.492237 0.0102034 -0.0189233 0.477317 
0.00913364 -0.0184913 0.461973 0.00735303 -0.017767 0.446301 0.0048699 -0.0167291 0.430399 
0.00172477 -0.0153715 0.414364 -0.0020157 -0.0137052 0.398284 -0.00626707 -0.0117596 0.382239 
-0.0109366 -0.00958211 0.366289 -0.0159324 -0.00723773 0.350473 -0.0211714 -0.00480643 0.334809 
-0.026585 -0.00238026 0.319287 -0.0321212 -5.93153e-05 0.303874 -0.0377441 0.0020529 0.288515 
-0.0434297 0.00385448 0.273136 -0.0491604 0.00525028 0.257651 -0.0549164 0.0061568 0.241965 
-0.0606687 0.00650661 0.225987 -0.0663719 0.00625191 0.209629 -0.071959 0.00536714 0.192818 
-0.0773401 0.00385031 0.175497 -0.0824035 0.00172307 0.157629 -0.0870203 -0.000970506 0.139197 
-0.0910521 -0.00416644 0.120203 -0.0943608 -0.00778431 0.100666 -0.0968191 -0.0117316 0.080616 
-0.0983213 -0.0159087 0.0600895 -0.0987913 -0.0202136 0.0391264 -0.0981895 -0.024547 0.0177644 
-0.096515 -0.0288167 -0.00396341 -0.0938049 -0.0329406 -0.026029 -0.090129 -0.03685 -0.0484088 
-0.0855823 -0.0404899 -0.0710806 -0.080274 -0.0438195 -0.0940189 -0.0743164 -0.0468107 -0.11719 
-0.0678137 -0.0494459 -0.140546 -0.060852 -0.0517147 -0.164021 -0.0534924 -0.0536098 -0.187528 
-0.0457677 -0.0551238 -0.210955 -0.0376821 -0.0562451 -0.234176 -0.0292161 -0.0569551 -0.257043 
-0.0203335 -0.0572262 -0.279406 -0.0109916 -0.0570209 -0.301116 -0.00115238 -0.0562929 -0.322035 
0.00920639 -0.0549888 -0.342051 0.0200816 -0.0530519 -0.361084 0.0314374 -0.0504271 -0.379092 
0.043202 -0.0470658 -0.396078 0.055268 -0.0429329 -0.412083 0.0674962 -0.0380116 -0.427186 
0.0797247 -0.0323092 -0.441494 0.0917788 -0.0258612 -0.455127 0.103484 -0.0187334 -0.468206 
0.114678 -0.0110227 -0.480835 0.125225 -0.00285519 -0.493093 0.135021 0.00561734 -0.50502 
0.144006 0.0142237 -0.516608 0.152159 0.0227807 -0.527807 0.159505 0.0311024 -0.53852 
0.166103 0.0390097 -0.548619 0.172038 0.0463399 -0.557956 0.177415 0.0529561 -0.56638 
0.18234 0.0587542 -0.573756 0.186911 0.0636691 -0.579978 0.19121 0.0676773 -0.58499 
0.195289 0.0707974 -0.588791 0.19917 0.0730875 -0.591441 0.202843 0.0746396 -0.593059 
0.206266 0.075572 -0.593817 0.209374 0.0760193 -0.593922 0.212086 0.076122 -0.5936 
0.214315 0.0760149 -0.593075 0.215981 0.0758165 -0.592549 0.217016 0.0756197 -0.59218 
0.217379 0.0754841 -0.592072 
LINES 2 100
OFFSETS vtktypeint64
0 100 
CONNECTIVITY vtktypeint64
0 1 2 3 4 5 6 7 8 
9 10 11 12 13 14 15 16 17 
18 19 20 21 22 23 24 25 26 
27 28 29 30 31 32 33 34 35 
36 37 38 39 40 41 42 43 44 
45 46 47 48 49 50 51 52 53 
54 55 56 57 58 59 60 61 62 
63 64 65 66 67 68 69 70 71 
72 73 74 75 76 77 78 79 80 
81 82 83 84 85 86 87 88 89 
90 91 92 93 94 95 96 97 98 
99 
POINT_DATA 100
FIELD FieldData 3
_theta 1 100 double
0 0.031733259127 0.063466518254 0.095199777382 0.12693303651 0.15866629564 0.19039955476 0.22213281389 0.25386607302 
0.28559933214 0.31733259127 0.3490658504 0.38079910953 0.41253236865 0.44426562778 0.47599888691 0.50773214603 0.53946540516 
0.57119866429 0.60293192342 0.63466518254 0.66639844167 0.6981317008 0.72986495992 0.76159821905 0.79333147818 0.82506473731 
0.85679799643 0.88853125556 0.92026451469 0.95199777382 0.98373103294 1.0154642921 1.0471975512 1.0789308103 1.1106640695 
1.1423973286 1.1741305877 1.2058638468 1.237597106 1.2693303651 1.3010636242 1.3327968833 1.3645301425 1.3962634016 
1.4279966607 1.4597299198 1.491463179 1.5231964381 1.5549296972 1.5866629564 1.6183962155 1.6501294746 1.6818627337 
1.7135959929 1.745329252 1.7770625111 1.8087957702 1.8405290294 1.8722622885 1.9039955476 1.9357288068 1.9674620659 
1.999195325 2.0309285841 2.0626618433 2.0943951024 2.1261283615 2.1578616206 2.1895948798 2.2213281389 2.253061398 
2.2847946572 2.3165279163 2.3482611754 2.3799944345 2.4117276937 2.4434609528 2.4751942119 2.506927471 2.5386607302 
2.5703939893 2.6021272484 2.6338605076 2.6655937667 2.6973270258 2.7290602849 2.7607935441 2.7925268032 2.8242600623 
2.8559933214 2.8877265806 2.9194598397 2.9511930988 2.982926358 3.0146596171 3.0463928762 3.0781261353 3.1098593945 
3.1415926536 
_radius 1 100 double
6.6863183098e-16 0.012779715381 0.025585548451 0.03844253174 0.051364352421 0.064347383159 0.077365209464 0.090364808877 0.10326572846 
0.11596321633 0.12833538139 0.14025347105 0.15159367124 0.16224862242 0.17213704907 0.18121034294 0.18945546166 0.19689400059 
0.20357773412 0.20958130566 0.21499307771 0.21990539731 0.22440560425 0.22856891961 0.23245389302 0.23610048832 0.23953037661 
0.24274876529 0.24574714389 0.24850653336 0.25100099917 0.25320121988 0.25507780357 0.25660391997 0.25775679269 0.25851775296 
0.2588708943 0.25880080128 0.25829020666 0.25731859447 0.25586260272 0.25389860401 0.25140721435 0.24837893424 0.24481985189 
0.24075638967 0.23623835915 0.23133994989 0.22615858993 0.22081183712 0.21543260826 0.21016315229 0.20514819903 0.20052759218 
0.19642840937 0.19295627229 0.19018573871 0.18815074111 0.18683754611 0.18618326758 0.18608160446 0.18639500118 0.18697058862 
0.18765679629 0.18831796254 0.18884508612 0.18916186442 0.18922610845 0.18902720975 0.18858049883 0.18791934026 0.18708596758 
0.18612235973 0.18506253326 0.18392721422 0.1827211713 0.18143288554 0.18003577662 0.17848989836 0.17674306015 0.17473092508 
0.17237660353 0.16959104683 0.16627560014 0.16232727897 0.15764612265 0.15214302299 0.14574618533 0.13840488166 0.13009011037 
0.12079280739 0.11052103185 0.099297839486 0.087161236208 0.074166722822 0.060391767048 0.045940500001 0.030946457245 0.015571492706 
5.4879479093e-16 
_area 1 100 double
0 0.00048077969459 0.0019253436733 0.0043397630602 0.0077316610456 0.012105093243 0.017451749108 0.023739112326 0.030898329779 
0.038815948534 0.047333350994 0.056255691258 0.065369288891 0.074463806743 0.083353996282 0.091895970662 0.099994993406 0.10760480372 
0.11472078363 0.12136955079 0.12759664407 0.13345379741 0.13898825035 0.14423695518 0.14922698889 0.15398046832 0.15851949049 
0.16286567859 0.16703166836 0.1710087499 0.17475976551 0.17822246792 0.18132050963 0.18397557751 0.18611600834 0.18768097841 
0.18862156212 0.18889872977 0.18847514824 0.18730137071 0.1853144726 0.18246811581 0.17877504054 0.17432159615 0.16923884851 
0.16365967908 0.15770737113 0.15151224729 0.14521493692 0.13894546346 0.13280479306 0.12687117179 0.1212195623 0.11593523397 
0.11113328197 0.10695038346 0.1033679551 0.10028617443 0.097637678485 0.09535412682 0.093359141599 0.091583256032 0.089975847694 
0.088505980521 0.087155760439 0.085910962096 0.084751072728 0.083641480539 0.082533006776 0.081372007742 0.080116973524 0.078751390027 
0.077286569797 0.075762511746 0.074255452356 0.072877382975 0.071745741101 0.070925245264 0.070383730066 0.07000568483 0.069638386654 
0.069122779956 0.06830184165 0.067021773052 0.065139672788 0.06254139763 0.059162333039 0.055000622827 0.050118529907 0.044634512643 
0.038710887548 0.032540952224 0.026337660909 0.020324394823 0.01472721966 0.0097673281793 0.0056522112652 0.0025645823694 0.00064927241664 
1.0168417844e-16 
