# vtk DataFile Version 5.1
vtk output
ASCII
DATASET POLYDATA
POINTS 100 float
0.118693 0.0136288 -0.656392 0.118613 0.0135636 -0.656051 0.118398 0.0131908 -0.654984 
0.118057 0.0125216 -0.65317 0.117601 0.011574 -0.650582 0.11704 0.0103705 -0.647191 
0.116376 0.00893657 -0.642975 0.115599 0.00729752 -0.637928 0.114681 0.00547673 -0.632061 
0.113575 0.00349358 -0.62541 0.112213 0.0013621 -0.618033 0.110512 -0.000909498 -0.610004 
0.108375 -0.00331852 -0.601411 0.105701 -0.0058666 -0.592339 0.102393 -0.00855777 -0.582866 
0.0983677 -0.0113959 -0.573046 0.0935655 -0.0143818 -0.562908 0.0879564 -0.0175106 -0.552443 
0.0815459 -0.0207689 -0.541609 0.0743766 -0.024133 -0.530333 0.0665267 -0.0275677 -0.518517 
0.0581045 -0.0310268 -0.506052 0.0492406 -0.0344536 -0.492832 0.0400774 -0.0377833 -0.478764 
0.0307575 -0.0409466 -0.463786 0.0214123 -0.0438733 -0.447871 0.0121519 -0.0464966 -0.431034 
0.00305732 -0.0487576 -0.413335 -0.00582415 -0.0506087 -0.394867 -0.0144796 -0.0520173 -0.375752 
-0.0229273 -0.0529675 -0.356126 -0.0312106 -0.0534604 -0.336119 -0.0393878 -0.0535142 -0.315849 
-0.0475212 -0.0531611 -0.295401 -0.055665 -0.052445 -0.274823 -0.0638542 -0.0514165 -0.25412 
-0.0720946 -0.0501287 -0.233254 -0.0803562 -0.0486328 -0.212153 -0.0885698 -0.0469734 -0.190724 
-0.0966275 -0.0451851 -0.168861 -0.104387 -0.0432911 -0.146467 -0.111679 -0.0413016 -0.123466 
-0.118317 -0.0392155 -0.0998176 -0.124112 -0.0370219 -0.0755254 -0.128878 -0.034704 -0.0506406 
-0.132453 -0.0322434 -0.0252618 -0.1347 -0.0296248 0.000471223 -0.135523 -0.0268406 0.0263877 
-0.134865 -0.023895 0.0522987 -0.132716 -0.0208068 0.0780113 -0.129107 -0.017611 0.103342 
-0.124107 -0.0143589 0.12813 -0.11782 -0.0111159 0.152245 -0.110374 -0.00795842 0.175592 
-0.101915 -0.00496923 0.198113 -0.0925985 -0.00223188 0.219788 -0.082581 0.000175138 0.240626 
-0.0720158 0.00218405 0.260662 -0.061047 0.00374276 0.279946 -0.0498069 0.00481858 0.298542 
-0.0384144 0.00540038 0.316518 -0.0269745 0.00549898 0.333943 -0.015579 0.00514579 0.350884 
-0.00430754 0.00438973 0.36741 0.0067712 0.00329284 0.383583 0.0175981 0.00192498 0.399468 
0.0281226 0.000358163 0.415123 0.0383026 -0.00133898 0.430606 0.0481041 -0.00310597 0.445963 
0.0575014 -0.00489414 0.461233 0.0664776 -0.00666875 0.476434 0.0750247 -0.00840949 0.491565 
0.0831441 -0.0101093 0.506596 0.0908453 -0.0117715 0.521468 0.0981461 -0.0134063 0.536093 
0.10507 -0.015026 0.550356 0.111646 -0.0166401 0.564122 0.117902 -0.0182513 0.577248 
0.123869 -0.0198515 0.589589 0.129573 -0.0214204 0.601019 0.135035 -0.0229238 0.611438 
0.14027 -0.0243157 0.620783 0.145285 -0.0255406 0.629039 0.150079 -0.0265379 0.63624 
0.154644 -0.0272475 0.642464 0.158968 -0.0276153 0.64783 0.163032 -0.0275997 0.652485 
0.166818 -0.0271766 0.656589 0.170306 -0.0263441 0.660297 0.17348 -0.0251248 0.663747 
0.176328 -0.0235672 0.667041 0.178844 -0.0217436 0.670242 0.181024 -0.0197474 0.673364 
0.182875 -0.0176874 0.676374 0.184405 -0.0156811 0.679202 0.185624 -0.0138475 0.681749 
0.186548 -0.012298 0.683903 0.187189 -0.0111294 0.685553 0.187556 -0.0104168 0.68661 
0.187659 -0.0102079 0.687012 
LINES 2 100
OFFSETS vtktypeint64
0 100 
CONNECTIVITY vtktypeint64
0 1 2 3 4 5 6 7 8 
9 10 11 12 13 14 15 16 17 
18 19 20 21 22 23 24 25 26 
27 28 29 30 31 32 33 34 35 
36 37 38 39 40 41 42 43 44 
45 46 47 48 49 50 51 52 53 
54 55 56 57 58 59 60 61 62 
63 64 65 66 67 68 69 70 71 
72 73 74 75 76 77 78 79 80 
81 82 83 84 85 86 87 88 89 
90 91 92 93 94 95 96 97 98 
99 
POINT_DATA 100
FIELD FieldData 3
_theta 1 100 double
0 0.031733259127 0.063466518254 0.095199777382 0.12693303651 0.15866629564 0.19039955476 0.22213281389 0.25386607302 
0.28559933214 0.31733259127 0.3490658504 0.38079910953 0.41253236865 0.44426562778 0.47599888691 0.50773214603 0.53946540516 
0.57119866429 0.60293192342 0.63466518254 0.66639844167 0.6981317008 0.72986495992 0.76159821905 0.79333147818 0.82506473731 
0.85679799643 0.88853125556 0.92026451469 0.95199777382 0.98373103294 1.0154642921 1.0471975512 1.0789308103 1.1106640695 
1.1423973286 1.1741305877 1.2058638468 1.237597106 1.2693303651 1.3010636242 1.3327968833 1.3645301425 1.3962634016 
1.4279966607 1.4597299198 1.491463179 1.5231964381 1.5549296972 1.5866629564 1.6183962155 1.6501294746 1.6818627337 
1.7135959929 1.745329252 1.7770625111 1.8087957702 1.8405290294 1.8722622885 1.9039955476 1.9357288068 1.9674620659 
1.999195325 2.0309285841 2.0626618433 2.0943951024 2.1261283615 2.1578616206 2.1895948798 2.2213281389 2.253061398 
2.2847946572 2.3165279163 2.3482611754 2.3799944345 2.4117276937 2.4434609528 2.4751942119 2.506927471 2.5386607302 
2.5703939893 2.6021272484 2.6338605076 2.6655937667 2.6973270258 2.7290602849 2.7607935441 2.7925268032 2.8242600623 
2.8559933214 2.8877265806 2.9194598397 2.9511930988 2.982926358 3.0146596171 3.0463928762 3.0781261353 3.1098593945 
3.1415926536 
_radius 1 100 double
9.3518168702e-16 0.016003106685 0.031856878931 0.047425780788 0.062606728482 0.077336461759 0.091590464847 0.10537404087 0.11870796769 
0.13161224494 0.1440914652 0.15612441191 0.16765909346 0.17861316509 0.18887895309 0.19833209771 0.20684291448 0.21428962818 
0.22057249227 0.2256274982 0.22943807328 0.23204305206 0.23353940956 0.23407878142 0.23385758456 0.23310144356 0.23204545853 
0.23091248198 0.2298919237 0.22912164628 0.22867526947 0.2285567019 0.22870298571 0.22899557472 0.22927901085 0.22938476738 
0.22915705824 0.22847694595 0.22728127954 0.22557385237 0.22342754396 0.22097785439 0.21840978652 0.21594094496 0.21380347666 
0.21222610489 0.21141598477 0.21153974482 0.21270428674 0.21493985905 0.21818932999 0.22230758806 0.22707331942 0.2322124223 
0.23742913882 0.24243906083 0.24699828096 0.25092468357 0.25410959014 0.25651980594 0.25819128456 0.2592162802 0.25972620999 
0.25987258815 0.25980827569 0.259670879 0.25956953504 0.259575765 0.25971869298 0.25998461553 0.26032049033 0.26064040328 
0.26083372172 0.26077366382 0.26032537618 0.25935309689 0.25772638083 0.25532556621 0.25204663755 0.24780543511 0.24254090416 
0.23621694436 0.22882253109 0.22037011732 0.2108927389 0.20044055477 0.18907763007 0.17687957418 0.16393221036 0.15033088831 
0.13617955248 0.12158850785 0.10667015174 0.091532686568 0.076272677185 0.060967910389 0.045672152325 0.030413090774 0.015194134785 
7.1332336309e-16 
_area 1 100 double
0 0.00062828477528 0.0024879324837 0.005510668526 0.0096037597669 0.014671088529 0.020626615521 0.027394133542 0.034894508852 
0.043027428553 0.051655452156 0.060595129711 0.069616768281 0.078452784266 0.086813718887 0.094410019661 0.10097681676 0.10629884215 
0.11023323557 0.11272813569 0.11383395016 0.11370296802 0.1125737299 0.11074142538 0.10852352062 0.10623314265 0.10416488569 
0.10258563904 0.10171594004 0.10169184861 0.10252971994 0.1041280892 0.10630038341 0.10880727211 0.11138407408 0.11377210998 
0.11575268081 0.11717866472 0.11799726493 0.11826089266 0.11813148276 0.11788190179 0.11783812008 0.11817544055 0.11890672791 
0.12007547006 0.12179038615 0.1241903657 0.12741206293 0.13155920259 0.13666957367 0.14268381041 0.14942566997 0.1566035471 
0.1638375267 0.17070771582 0.17681235088 0.18182215609 0.18552069987 0.18782579735 0.18879119687 0.18859001345 0.18748254529 
0.1857720845 0.18375392536 0.18166752815 0.17966827117 0.17782973306 0.17616715713 0.17466153743 0.17327150619 0.17193291525 
0.17055334823 0.16900917026 0.16714870035 0.16480110937 0.16178952403 0.15794751164 0.15313791326 0.14727176806 0.14032429347 
0.13234413725 0.12345189395 0.11382631542 0.10368095904 0.093237287925 0.082701290969 0.072250202399 0.062033603496 0.052187010262 
0.042847754968 0.034161049827 0.026272093365 0.019309842748 0.013371675746 0.0085156711899 0.004762553831 0.0021055407908 0.00052444974925 
1.6829781626e-16 
