# vtk DataFile Version 5.1
vtk output
ASCII
DATASET POLYDATA
POINTS 100 float
0.15699 -0.0186148 0.710261 0.156851 -0.0184945 0.709999 0.156374 -0.0182618 0.709362 
0.155545 -0.0179409 0.708334 0.154348 -0.0175681 0.706886 0.152768 -0.0171868 0.704979 
0.150798 -0.0168403 0.702567 0.148443 -0.0165646 0.699596 0.145728 -0.0163822 0.696009 
0.142693 -0.0162973 0.691751 0.139399 -0.0162937 0.686768 0.135914 -0.0163355 0.681016 
0.132309 -0.0163701 0.674461 0.12865 -0.0163347 0.667086 0.124983 -0.0161629 0.658888 
0.12133 -0.0157936 0.649882 0.11768 -0.0151789 0.640101 0.11399 -0.0142903 0.629592 
0.110186 -0.0131237 0.618416 0.106171 -0.011701 0.60664 0.101837 -0.0100693 0.594335 
0.0970756 -0.00829652 0.581569 0.0917958 -0.00646556 0.568406 0.0859332 -0.00466677 0.554896 
0.0794607 -0.00298966 0.541073 0.0723924 -0.00151532 0.526959 0.0647827 -0.00031012 0.512555 
0.0567198 0.000578467 0.497849 0.0483145 0.00112358 0.482816 0.0396856 0.00131816 0.467419 
0.0309449 0.00117184 0.451617 0.0221819 0.000706196 0.435366 0.0134539 -5.09189e-05 0.418623 
0.00477924 -0.00107109 0.401348 -0.00386181 -0.00233025 0.383508 -0.0125202 -0.00381206 0.365074 
-0.0212652 -0.00550942 0.346023 -0.0301677 -0.00742385 0.326337 -0.0392811 -0.00956295 0.306 
-0.0486227 -0.0119364 0.284998 -0.0581595 -0.0145514 0.263319 -0.0677985 -0.0174074 0.240952 
-0.0773848 -0.0204927 0.217886 -0.0867084 -0.0237815 0.194118 -0.0955177 -0.0272332 0.169651 
-0.10354 -0.030794 0.144496 -0.110504 -0.0344 0.118683 -0.11617 -0.0379822 0.0922535 
-0.120346 -0.041472 0.0652718 -0.122912 -0.0448071 0.0378194 -0.123827 -0.0479365 0.00999645 
-0.123133 -0.0508241 -0.0180815 -0.120947 -0.0534503 -0.0462876 -0.117445 -0.0558111 -0.0744888 
-0.112842 -0.0579156 -0.102552 -0.107367 -0.0597809 -0.130349 -0.101234 -0.0614257 -0.157763 
-0.0946234 -0.0628643 -0.184692 -0.0876637 -0.0640997 -0.21105 -0.0804218 -0.0651188 -0.236768 
-0.0729039 -0.0658893 -0.261795 -0.0650639 -0.0663588 -0.286094 -0.0568196 -0.0664566 -0.309636 
-0.0480731 -0.066098 -0.332401 -0.0387345 -0.0651907 -0.35437 -0.0287433 -0.0636422 -0.375526 
-0.0180864 -0.0613683 -0.395848 -0.00680841 -0.0583011 -0.415315 0.0049848 -0.0543955 -0.433906 
0.0171323 -0.0496346 -0.451604 0.0294312 -0.0440322 -0.468398 0.0416557 -0.0376332 -0.484287 
0.0535795 -0.0305114 -0.499285 0.0649976 -0.0227658 -0.513425 0.0757459 -0.0145143 -0.526753 
0.0857145 -0.00588767 -0.539334 0.0948544 0.00297774 -0.551244 0.103175 0.0119461 -0.562568 
0.110735 0.020888 -0.57339 0.117627 0.0296845 -0.583787 0.123959 0.0382306 -0.593822 
0.12983 0.0464364 -0.603541 0.13532 0.0542279 -0.612963 0.140467 0.0615467 -0.622081 
0.145269 0.0683485 -0.630866 0.14968 0.0746023 -0.639267 0.15362 0.0802891 -0.647218 
0.156991 0.0854002 -0.654647 0.159696 0.0899371 -0.661481 0.161657 0.09391 -0.66766 
0.162834 0.0973373 -0.673138 0.16324 0.100245 -0.677891 0.162946 0.102664 -0.68192 
0.162082 0.104633 -0.685247 0.160824 0.10619 -0.687915 0.15938 0.107375 -0.689977 
0.157967 0.108227 -0.691496 0.156787 0.108778 -0.69253 0.156005 0.109054 -0.693127 
0.155728 0.109074 -0.693318 
LINES 2 100
OFFSETS vtktypeint64
0 100 
CONNECTIVITY vtktypeint64
0 1 2 3 4 5 6 7 8 
9 10 11 12 13 14 15 16 17 
18 19 20 21 22 23 24 25 26 
27 28 29 30 31 32 33 34 35 
36 37 38 39 40 41 42 43 44 
45 46 47 48 49 50 51 52 53 
54 55 56 57 58 59 60 61 62 
63 64 65 66 67 68 69 70 71 
72 73 74 75 76 77 78 79 80 
81 82 83 84 85 86 87 88 89 
90 91 92 93 94 95 96 97 98 
99 
POINT_DATA 100
FIELD FieldData 3
_theta 1 100 double
0 0.031733259127 0.063466518254 0.095199777382 0.12693303651 0.15866629564 0.19039955476 0.22213281389 0.25386607302 
0.28559933214 0.31733259127 0.3490658504 0.38079910953 0.41253236865 0.44426562778 0.47599888691 0.50773214603 0.53946540516 
0.57119866429 0.60293192342 0.63466518254 0.66639844167 0.6981317008 0.72986495992 0.76159821905 0.79333147818 0.82506473731 
0.85679799643 0.88853125556 0.92026451469 0.95199777382 0.98373103294 1.0154642921 1.0471975512 1.0789308103 1.1106640695 
1.1423973286 1.1741305877 1.2058638468 1.237597106 1.2693303651 1.3010636242 1.3327968833 1.3645301425 1.3962634016 
1.4279966607 1.4597299198 1.491463179 1.5231964381 1.5549296972 1.5866629564 1.6183962155 1.6501294746 1.6818627337 
1.7135959929 1.745329252 1.7770625111 1.8087957702 1.8405290294 1.8722622885 1.9039955476 1.9357288068 1.9674620659 
1.999195325 2.0309285841 2.0626618433 2.0943951024 2.1261283615 2.1578616206 2.1895948798 2.2213281389 2.253061398 
2.2847946572 2.3165279163 2.3482611754 2.3799944345 2.4117276937 2.4434609528 2.4751942119 2.506927471 2.5386607302 
2.5703939893 2.6021272484 2.6338605076 2.6655937667 2.6973270258 2.7290602849 2.7607935441 2.7925268032 2.8242600623 
2.8559933214 2.8877265806 2.9194598397 2.9511930988 2.982926358 3.0146596171 3.0463928762 3.0781261353 3.1098593945 
3.1415926536 
_radius 1 100 double
8.2549510148e-16 0.015309797024 0.030583954252 0.04579008599 0.060897681892 0.075877382645 0.09069861629 0.10532566779 0.11971274185 
0.1337990687 0.14750546041 0.16073376929 0.17337026584 0.1852930533 0.19638256085 0.20653334864 0.2156652064 0.22373182725 
0.23072597559 0.23668080298 0.24166760176 0.24579068031 0.2491800978 0.2519827239 0.25435167929 0.25643403422 0.25835707057 
0.26021447759 0.26205495083 0.26387584806 0.26562345934 0.26719976322 0.2684742684 0.26929905749 0.26952522007 0.26901913875 
0.26767737312 0.26543909681 0.26229518841 0.25829322109 0.25353782029 0.24818620477 0.24243915834 0.23652809113 0.2306991308 
0.2251953298 0.22023826674 0.21601083015 0.21264377031 0.21020893728 0.20872088618 0.20814562371 0.2084123903 0.20942372166 
0.21106121077 0.21318788595 0.2156505981 0.21828579084 0.22092984262 0.22343252612 0.22567061479 0.22755868617 0.22905518001 
0.23016303214 0.23092523199 0.23141623392 0.23173031395 0.23196793861 0.23222131598 0.2325606518 0.23302296528 0.23360516035 
0.23426221225 0.23491017276 0.2354328338 0.23569066818 0.23553093346 0.23479814825 0.23334423313 0.2310375092 0.2277697466 
0.22346074215 0.21806039123 0.21154863235 0.20393377212 0.19524955073 0.18555107367 0.17490962437 0.16340648177 0.15112616674 
0.13814992254 0.12455055499 0.11038984612 0.095719432187 0.080585227982 0.065034358011 0.049122580387 0.032919868982 0.016512357735 
8.8918871023e-16 
_area 1 100 double
0 0.0006094513371 0.0024278003189 0.0054260427754 0.0095588905115 0.014768351427 0.020987132374 0.028140989687 0.036149434689 
0.044924028867 0.054362684908 0.064338856928 0.074689673631 0.085213870994 0.09568772379 0.10589474236 0.11565629457 0.12485130672 
0.13341913474 0.14134683852 0.14864878175 0.15534941188 0.1614761203 0.1670608447 0.17214367804 0.17677297026 0.18100145526 
0.18488165067 0.18846369394 0.19179545916 0.19491871269 0.19784592704 0.20050422922 0.20268746986 0.20409387346 0.20441452268 
0.20339637187 0.20087857789 0.19681802155 0.19130447007 0.18455953453 0.176915224 0.16877377665 0.16055802996 0.15266586319 
0.14543824238 0.1391395054 0.13394081163 0.12990207037 0.12695951355 0.12493741255 0.1235982864 0.12271385781 0.12211885952 
0.12172878958 0.12152701032 0.12154007019 0.12189844319 0.12250547075 0.12327803769 0.12405333049 0.12460123399 0.12484895443 
0.1247945531 0.12442327012 0.12387012659 0.12347061835 0.12324055647 0.12330098708 0.12370897946 0.12439917377 0.12518982781 
0.1258737441 0.12629232132 0.12636021444 0.12604743385 0.12534641911 0.1242397429 0.12267940366 0.12058180255 0.11783628024 
0.11432362245 0.10993984168 0.10461914011 0.098351446963 0.091192052916 0.083261711078 0.07473697788 0.065832965196 0.056782527106 
0.047816414754 0.039148438923 0.030968447712 0.023443715641 0.016726216733 0.010960521674 0.0062866990963 0.0028352619674 0.00071528347167 
7.0243155914e-17 
