# vtk DataFile Version 5.1
vtk output
ASCII
DATASET POLYDATA
POINTS 100 float
0.147219 -0.0234799 0.640225 0.147222 -0.0234038 0.640084 0.147139 -0.0233015 0.639808 
0.14696 -0.0231713 0.639367 0.146668 -0.023011 0.638709 0.146245 -0.0228173 0.637768 
0.145669 -0.0225856 0.636465 0.144918 -0.0223108 0.634713 0.143971 -0.021987 0.632423 
0.14281 -0.0216076 0.62951 0.14142 -0.0211663 0.625896 0.139787 -0.0206573 0.621517 
0.137898 -0.0200759 0.616325 0.13574 -0.0194186 0.610291 0.133296 -0.0186841 0.603406 
0.130549 -0.0178729 0.595683 0.127476 -0.0169871 0.587151 0.124053 -0.0160307 0.57786 
0.120254 -0.0150087 0.567871 0.116051 -0.013927 0.557256 0.111425 -0.0127918 0.546092 
0.106359 -0.0116099 0.534459 0.100849 -0.0103884 0.52243 0.0949038 -0.00913583 0.510073 
0.088544 -0.00786265 0.497444 0.0818055 -0.00658276 0.484586 0.074736 -0.00531465 0.471525 
0.0673922 -0.00408264 0.458273 0.0598356 -0.00291765 0.444826 0.0521272 -0.00185743 0.431166 
0.0443224 -0.000945904 0.417262 0.0364665 -0.000231578 0.403077 0.0285912 0.000234966 0.388564 
0.020713 0.000404453 0.373676 0.0128338 0.000232839 0.358367 0.00494381 -0.000314557 0.342595 
-0.00297365 -0.00125918 0.326325 -0.0109356 -0.00260607 0.309529 -0.0189521 -0.00434195 0.292191 
-0.0270185 -0.00643472 0.274307 -0.0351094 -0.00883478 0.255879 -0.0431734 -0.011478 0.236924 
-0.0511309 -0.0142904 0.217464 -0.0588749 -0.0171935 0.197527 -0.0662744 -0.020111 0.177148 
-0.0731809 -0.0229745 0.156361 -0.0794375 -0.0257291 0.135203 -0.0848889 -0.0283371 0.113708 
-0.0893926 -0.03078 0.0919098 -0.0928286 -0.0330579 0.0698372 -0.0951083 -0.0351872 0.0475181 
-0.0961805 -0.0371957 0.0249782 -0.0960341 -0.0391161 0.00224293 -0.0946979 -0.0409792 -0.0206613 
-0.0922367 -0.0428068 -0.0437048 -0.0887449 -0.0446049 -0.0668534 -0.0843372 -0.0463596 -0.090066 
-0.0791394 -0.0480344 -0.113294 -0.0732782 -0.0495706 -0.136481 -0.0668721 -0.0508904 -0.159561 
-0.0600241 -0.051902 -0.182463 -0.0528173 -0.0525072 -0.205106 -0.0453128 -0.05261 -0.227409 
-0.0375507 -0.0521246 -0.249288 -0.0295532 -0.0509843 -0.27066 -0.0213309 -0.0491465 -0.291449 
-0.0128884 -0.0465977 -0.311585 -0.00423212 -0.0433536 -0.331011 0.004624 -0.0394581 -0.349678 
0.0136529 -0.0349786 -0.367558 0.0228116 -0.0299999 -0.384631 0.0320399 -0.0246165 -0.400895 
0.0412616 -0.0189246 -0.416362 0.0503882 -0.0130152 -0.431053 0.0593233 -0.00696805 -0.444999 
0.0679689 -0.00084806 -0.458237 0.0762314 0.00529622 -0.470807 0.0840278 0.0114314 -0.48275 
0.0912904 0.017536 -0.494104 0.097971 0.023596 -0.5049 0.104042 0.0295992 -0.515165 
0.109498 0.03553 -0.524917 0.114352 0.0413648 -0.534168 0.118634 0.0470697 -0.542921 
0.12239 0.0525992 -0.551174 0.12567 0.0578982 -0.558919 0.128532 0.0629051 -0.566146 
0.131031 0.0675571 -0.572843 0.13322 0.0717957 -0.578998 0.135144 0.0755732 -0.584604 
0.136841 0.0788573 -0.589652 0.138337 0.0816346 -0.594142 0.139653 0.0839124 -0.598074 
0.140798 0.0857173 -0.601453 0.141776 0.0870919 -0.604287 0.142586 0.0880897 -0.606586 
0.143224 0.0887684 -0.608361 0.143683 0.0891823 -0.60962 0.143959 0.0893763 -0.610373 
0.144048 0.0893796 -0.610624 
LINES 2 100
OFFSETS vtktypeint64
0 100 
CONNECTIVITY vtktypeint64
0 1 2 3 4 5 6 7 8 
9 10 11 12 13 14 15 16 17 
18 19 20 21 22 23 24 25 26 
27 28 29 30 31 32 33 34 35 
36 37 38 39 40 41 42 43 44 
45 46 47 48 49 50 51 52 53 
54 55 56 57 58 59 60 61 62 
63 64 65 66 67 68 69 70 71 
72 73 74 75 76 77 78 79 80 
81 82 83 84 85 86 87 88 89 
90 91 92 93 94 95 96 97 98 
99 
POINT_DATA 100
FIELD FieldData 3
_theta 1 100 double
0 0.031733259127 0.063466518254 0.095199777382 0.12693303651 0.15866629564 0.19039955476 0.22213281389 0.25386607302 
0.28559933214 0.31733259127 0.3490658504 0.38079910953 0.41253236865 0.44426562778 0.47599888691 0.50773214603 0.53946540516 
0.57119866429 0.60293192342 0.63466518254 0.66639844167 0.6981317008 0.72986495992 0.76159821905 0.79333147818 0.82506473731 
0.85679799643 0.88853125556 0.92026451469 0.95199777382 0.98373103294 1.0154642921 1.0471975512 1.0789308103 1.1106640695 
1.1423973286 1.1741305877 1.2058638468 1.237597106 1.2693303651 1.3010636242 1.3327968833 1.3645301425 1.3962634016 
1.4279966607 1.4597299198 1.491463179 1.5231964381 1.5549296972 1.5866629564 1.6183962155 1.6501294746 1.6818627337 
1.7135959929 1.745329252 1.7770625111 1.8087957702 1.8405290294 1.8722622885 1.9039955476 1.9357288068 1.9674620659 
1.999195325 2.0309285841 2.0626618433 2.0943951024 2.1261283615 2.1578616206 2.1895948798 2.2213281389 2.253061398 
2.2847946572 2.3165279163 2.3482611754 2.3799944345 2.4117276937 2.4434609528 2.4751942119 2.506927471 2.5386607302 
2.5703939893 2.6021272484 2.6338605076 2.6655937667 2.6973270258 2.7290602849 2.7607935441 2.7925268032 2.8242600623 
2.8559933214 2.8877265806 2.9194598397 2.9511930988 2.982926358 3.0146596171 3.0463928762 3.0781261353 3.1098593945 
3.1415926536 
_radius 1 100 double
1.2220532833e-15 0.01386695165 0.027677859162 0.041382850941 0.054932910368 0.068280357427 0.081379428944 0.094186607834 0.10666032127 
0.11875982033 0.13044342124 0.14166668287 0.15238132721 0.16253564247 0.17207673147 0.18095441115 0.1891260434 0.19656127824 
0.20324571548 0.20918280845 0.21439380486 0.21891596188 0.22279953562 0.2261040753 0.22889440198 0.23123644609 0.23319298659 
0.23481935218 0.23615930257 0.23724151619 0.23807724157 0.23865962563 0.2389650028 0.23895610363 0.23858685002 0.237808243 
0.23657483715 0.23485137277 0.23261920392 0.22988213018 0.22667109515 0.22304702062 0.21910093534 0.21495066625 0.21073376632 
0.20659703105 0.20268378153 0.19912085761 0.19600770013 0.19340971213 0.19135710128 0.18984878279 0.18885927057 0.18834562239 
0.18825198232 0.18851097815 0.18904339476 0.18975899592 0.1905611557 0.19135602673 0.19206437099 0.19263243872 0.19303835771 
0.19329220826 0.19343030627 0.1935059898 0.193579566 0.19370914405 0.19394287264 0.19431249973 0.19482819931 0.19547480987 
0.19620970908 0.19696254548 0.1976371061 0.19811566687 0.19826597597 0.19795041863 0.19703618323 0.19540485323 0.19295998027 
0.18963170176 0.18537809961 0.18018358106 0.17405501102 0.16701658539 0.15910448241 0.15036217062 0.14083694511 0.13057789645 
0.11963519074 0.10806032964 0.095906990297 0.083232082203 0.070096737349 0.05656702261 0.042714222663 0.028614607467 0.01434868202 
6.7304394401e-16 
_area 1 100 double
0 0.00052907416719 0.0021018287721 0.0046767551166 0.0081904033733 0.012564238096 0.017711628774 0.023543767958 0.029973850374 
0.036919105144 0.044300251654 0.052038141066 0.060048311412 0.068235717163 0.076492744215 0.084702672849 0.092748388989 0.10052383473 
0.10794451987 0.11495358418 0.12152123565 0.1276377788 0.13330342328 0.13851992828 0.14328774484 0.14760812764 0.15148635498 
0.15493237743 0.15795781699 0.16057057179 0.16276902166 0.16453748851 0.16584421311 0.16664293554 0.16687853322 0.16649566131 
0.16544796789 0.16370560019 0.16126035993 0.15812969316 0.15436123275 0.1500382357 0.14528390817 0.14026107334 0.13516390983 
0.13020019183 0.12556469529 0.12140717523 0.11780303806 0.11473993493 0.1121291938 0.10983611912 0.10771564733 0.10564381923 
0.10353995493 0.10137861079 0.099193829765 0.09707475956 0.095140278847 0.093477374267 0.092080355435 0.090866891334 0.089740524002 
0.088628430599 0.087491480674 0.086324649334 0.085158034047 0.084059880765 0.083135916144 0.082521500641 0.082362553298 0.082775397492 
0.083791937358 0.085323034448 0.087186668686 0.089162585444 0.091020416159 0.092530800065 0.093475398812 0.093659305314 0.09292482454 
0.091164424195 0.088330000885 0.084435928589 0.079554926 0.073807909262 0.067350691879 0.060360980897 0.053028397315 0.045548433306 
0.038119040784 0.030937084375 0.024192217383 0.018057802453 0.012680981374 0.0081753030919 0.0046187072091 0.0020575528599 0.00051493634657 
3.1438576786e-17 
