# vtk DataFile Version 5.1
vtk output
ASCII
DATASET POLYDATA
POINTS 100 float
-0.000295095 -0.0524158 0.725978 -0.000150692 -0.0521147 0.726019 0.000267581 -0.0513785 0.726277 
0.000915458 -0.0502451 0.726673 0.00172566 -0.0487737 0.727074 0.00261696 -0.0470399 0.727311 
0.00350502 -0.0451288 0.72719 0.00431341 -0.0431277 0.726502 0.00498326 -0.0411189 0.725043 
0.00548013 -0.0391728 0.722631 0.00579712 -0.0373435 0.719112 0.00595381 -0.0356652 0.714378 
0.00599113 -0.0341513 0.708371 0.00596286 -0.0327951 0.701087 0.00592517 -0.0315733 0.692575 
0.0059255 -0.0304499 0.682929 0.0059926 -0.0293812 0.672282 0.00612909 -0.0283215 0.660793 
0.00630783 -0.0272283 0.648633 0.00647258 -0.0260659 0.635968 0.00654309 -0.0248091 0.622951 
0.00642391 -0.0234441 0.609705 0.00601578 -0.0219689 0.596319 0.00522815 -0.0203922 0.582843 
0.00399092 -0.0187307 0.569283 0.00226387 -0.0170073 0.555612 4.23035e-05 -0.0152471 0.541773 
-0.00264188 -0.013476 0.527692 -0.0057241 -0.0117176 0.513284 -0.00911551 -0.00999313 0.49847 
-0.0127148 -0.00832034 0.483185 -0.0164223 -0.00671466 0.467384 -0.0201535 -0.00519028 0.451049 
-0.0238518 -0.00376183 0.434189 -0.0274969 -0.00244608 0.416833 -0.0311089 -0.00126339 0.399031 
-0.0347469 -0.00023869 0.380839 -0.0385018 0.000598404 0.362312 -0.0424847 0.00121414 0.343493 
-0.0468114 0.00157205 0.324407 -0.0515857 0.00163496 0.305052 -0.056882 0.00136744 0.2854 
-0.062731 0.000738482 0.265398 -0.0691094 -0.000276087 0.244969 -0.0759338 -0.00169142 0.224025 
-0.0830622 -0.00351215 0.202477 -0.0902997 -0.00573151 0.18024 -0.0974111 -0.00833128 0.157251 
-0.104136 -0.0112824 0.133476 -0.110207 -0.0145459 0.10891 -0.115369 -0.0180748 0.0835902 
-0.119396 -0.0218157 0.0575846 -0.122105 -0.0257104 0.0309941 -0.123365 -0.0296975 0.00394227 
-0.123105 -0.033714 -0.0234336 -0.121313 -0.0376962 -0.0509921 -0.118028 -0.0415804 -0.0785977 
-0.113337 -0.0453034 -0.106128 -0.107362 -0.0488028 -0.133478 -0.100249 -0.0520174 -0.160564 
-0.0921552 -0.0548875 -0.187322 -0.0832384 -0.0573551 -0.213702 -0.0736509 -0.0593646 -0.239667 
-0.0635313 -0.0608637 -0.265182 -0.0530025 -0.0618041 -0.290211 -0.0421698 -0.0621424 -0.314711 
-0.0311221 -0.061841 -0.338632 -0.0199339 -0.0608696 -0.361916 -0.00866795 -0.0592053 -0.384497 
0.00262205 -0.0568339 -0.406313 0.0138889 -0.0537508 -0.427305 0.0250899 -0.0499609 -0.44743 
0.0361851 -0.0454803 -0.466665 0.0471356 -0.0403358 -0.485008 0.0579027 -0.0345665 -0.502486 
0.068446 -0.0282236 -0.519145 0.0787216 -0.0213714 -0.535051 0.0886798 -0.0140869 -0.550278 
0.0982637 -0.00645983 -0.564897 0.107406 0.00140816 -0.578967 0.116031 0.00940528 -0.592525 
0.12405 0.0174119 -0.605574 0.131369 0.025304 -0.618083 0.13789 0.0329572 -0.629985 
0.143515 0.0402514 -0.641184 0.14816 0.0470763 -0.651561 0.151759 0.0533365 -0.660992 
0.154275 0.0589562 -0.669358 0.155708 0.0638833 -0.676565 0.156102 0.0680918 -0.682556 
0.155549 0.0715834 -0.687323 0.154188 0.0743862 -0.690913 0.1522 0.0765522 -0.693424 
0.1498 0.0781525 -0.695005 0.147223 0.0792714 -0.695842 0.144709 0.0799992 -0.696139 
0.142486 0.0804241 -0.696102 0.140754 0.0806251 -0.695917 0.139666 0.0806647 -0.695732 
0.139319 0.0805839 -0.695644 
LINES 2 100
OFFSETS vtktypeint64
0 100 
CONNECTIVITY vtktypeint64
0 1 2 3 4 5 6 7 8 
9 10 11 12 13 14 15 16 17 
18 19 20 21 22 23 24 25 26 
27 28 29 30 31 32 33 34 35 
36 37 38 39 40 41 42 43 44 
45 46 47 48 49 50 51 52 53 
54 55 56 57 58 59 60 61 62 
63 64 65 66 67 68 69 70 71 
72 73 74 75 76 77 78 79 80 
81 82 83 84 85 86 87 88 89 
90 91 92 93 94 95 96 97 98 
99 
POINT_DATA 100
FIELD FieldData 3
_theta 1 100 double
0 0.031733259127 0.063466518254 0.095199777382 0.12693303651 0.15866629564 0.19039955476 0.22213281389 0.25386607302 
0.28559933214 0.31733259127 0.3490658504 0.38079910953 0.41253236865 0.44426562778 0.47599888691 0.50773214603 0.53946540516 
0.57119866429 0.60293192342 0.63466518254 0.66639844167 0.6981317008 0.72986495992 0.76159821905 0.79333147818 0.82506473731 
0.85679799643 0.88853125556 0.92026451469 0.95199777382 0.98373103294 1.0154642921 1.0471975512 1.0789308103 1.1106640695 
1.1423973286 1.1741305877 1.2058638468 1.237597106 1.2693303651 1.3010636242 1.3327968833 1.3645301425 1.3962634016 
1.4279966607 1.4597299198 1.491463179 1.5231964381 1.5549296972 1.5866629564 1.6183962155 1.6501294746 1.6818627337 
1.7135959929 1.745329252 1.7770625111 1.8087957702 1.8405290294 1.8722622885 1.9039955476 1.9357288068 1.9674620659 
1.999195325 2.0309285841 2.0626618433 2.0943951024 2.1261283615 2.1578616206 2.1895948798 2.2213281389 2.253061398 
2.2847946572 2.3165279163 2.3482611754 2.3799944345 2.4117276937 2.4434609528 2.4751942119 2.506927471 2.5386607302 
2.5703939893 2.6021272484 2.6338605076 2.6655937667 2.6973270258 2.7290602849 2.7607935441 2.7925268032 2.8242600623 
2.8559933214 2.8877265806 2.9194598397 2.9511930988 2.982926358 3.0146596171 3.0463928762 3.0781261353 3.1098593945 
3.1415926536 
_radius 1 100 double
1.7766957394e-15 0.014804201345 0.029610103488 0.044412115757 0.059185712004 0.073882010132 0.088426516645 0.10272230632 0.11665723465 
0.13011420142 0.14298306024 0.15517253345 0.16662045915 0.17730087309 0.18722680295 0.19644819516 0.20504504855 0.21311651541 
0.2207673528 0.22809356252 0.2351692509 0.24203660674 0.24870043456 0.25512797035 0.2612538939 0.26698970171 0.27223604011 
0.27689627235 0.28088945584 0.28416100997 0.28668963576 0.28848949182 0.28960721138 0.2901140209 0.29009393602 0.28962969 
0.28878858341 0.28761067118 0.28610147401 0.28423070113 0.28193748928 0.27914166502 0.27575967921 0.27172315943 0.26699748097 
0.2615974662 0.25559742372 0.24913331775 0.24239588897 0.23561492721 0.22903647811 0.22289634058 0.21739442358 0.21267484163 
0.2088155289 0.20582862495 0.20366976211 0.20225206745 0.20146029384 0.20116207883 0.20121594909 0.20147800216 0.20181005395 
0.2020908751 0.20222946477 0.20217678906 0.20193175031 0.20153869813 0.20107646539 0.20064131661 0.20032749277 0.20020907031 
0.20032593384 0.20067531745 0.20120909354 0.20183610147 0.20242842121 0.20283053097 0.20287049803 0.2023724466 0.20116938133 
0.19911512187 0.19609388164 0.19202612261 0.18686980638 0.18061694807 0.17328627947 0.16491362856 0.15554212533 0.14521439775 
0.13396845982 0.12183807665 0.10885722942 0.095067216185 0.080524249654 0.065305386675 0.049511278947 0.033265319757 0.016709778781 
3.1967937723e-16 
_area 1 100 double
0 0.0006378943698 0.0025541025817 0.0057526710259 0.01022951585 0.015959144372 0.022881068643 0.030889306636 0.039827908761 
0.049494570277 0.059653047264 0.070053319313 0.080456588327 0.090660861962 0.10052250965 0.10996981771 0.11900581059 0.1276990614 
0.13616296909 0.14452640606 0.15290138291 0.16135481982 0.16989027149 0.17844222942 0.18688246592 0.19503600443 0.20270356999 
0.20968714234 0.21581493328 0.22096171499 0.22506077367 0.22810568859 0.23014313586 0.23126031882 0.23157100766 0.23120261586 
0.23028485914 0.2289379357 0.22725161664 0.22521460885 0.22262282801 0.21917720385 0.21464023498 0.20887606344 0.20185898038 
0.1936858031 0.1845810122 0.17488348994 0.16501165446 0.15541101725 0.14649135277 0.13856546719 0.13181120846 0.1262685188 
0.12185425984 0.1183863168 0.11563823768 0.11340307224 0.11148297443 0.10970686321 0.10797573952 0.10624935821 0.1045268144 
0.10282826172 0.10117687778 0.099588570896 0.098079372126 0.096684676249 0.095468776793 0.094513437542 0.093893102956 0.09364644143 
0.093755116534 0.094170885328 0.094860462135 0.095960553155 0.097375239785 0.098877217129 0.10015342522 0.1009238441 0.10096680138 
0.10012096845 0.098280207759 0.095386076073 0.091420970918 0.086403902497 0.080389759364 0.073472054568 0.065788054369 0.057523598585 
0.048913966462 0.040237768206 0.031802202742 0.023919447914 0.016876525241 0.010905617272 0.00616608091 0.0027470125248 0.00068739179805 
3.247115633e-17 
