# vtk DataFile Version 5.1
vtk output
ASCII
DATASET POLYDATA
POINTS 100 float
0.129549 0.0549263 -0.634852 0.129339 0.0547197 -0.634543 0.128721 0.0539275 -0.633625 
0.127735 0.0525971 -0.632099 0.126441 0.0508016 -0.629964 0.124909 0.0486312 -0.627224 
0.123215 0.0461831 -0.623883 0.121426 0.0435507 -0.619949 0.119589 0.0408135 -0.615431 
0.117725 0.0380294 -0.610343 0.115824 0.0352301 -0.604696 0.11384 0.0324194 -0.598501 
0.111696 0.0295759 -0.591764 0.109286 0.0266584 -0.584485 0.106489 0.023614 -0.576657 
0.103175 0.0203877 -0.568263 0.0992243 0.0169312 -0.559277 0.0945345 0.013212 -0.549666 
0.0890363 0.00921859 -0.539393 0.0827004 0.00496464 -0.528418 0.0755437 0.000488576 -0.516706 
0.0676293 -0.0041491 -0.504229 0.0590628 -0.00887114 -0.490969 0.0499842 -0.0135906 -0.476924 
0.0405561 -0.0182183 -0.462106 0.0309497 -0.0226704 -0.446541 0.0213296 -0.0268738 -0.43027 
0.0118401 -0.0307706 -0.41334 0.00259337 -0.0343191 -0.395803 -0.00633865 -0.0374936 -0.377708 
-0.0149274 -0.0402811 -0.359096 -0.0231859 -0.0426778 -0.339996 -0.0311619 -0.0446841 -0.320424 
-0.0389262 -0.0463008 -0.30038 -0.0465588 -0.0475256 -0.279851 -0.0541327 -0.0483515 -0.258814 
-0.0616982 -0.0487674 -0.237246 -0.0692692 -0.0487598 -0.215127 -0.0768139 -0.0483164 -0.192448 
-0.0842498 -0.04743 -0.169219 -0.0914449 -0.046103 -0.145475 -0.0982244 -0.0443506 -0.121276 
-0.104383 -0.0422029 -0.0967072 -0.109703 -0.039705 -0.0718798 -0.113969 -0.0369152 -0.046921 
-0.116993 -0.0339014 -0.0219689 -0.118626 -0.0307365 0.00283694 -0.118778 -0.0274925 0.027364 
-0.117423 -0.0242352 0.051495 -0.114605 -0.0210203 0.0751336 -0.110432 -0.01789 0.0982086 
-0.10507 -0.0148732 0.120674 -0.0987268 -0.011986 0.142508 -0.0916319 -0.00923612 0.163708 
-0.0840212 -0.00662691 0.184285 -0.0761149 -0.00416302 0.204257 -0.0681025 -0.00185526 0.223643 
-0.0601299 0.000275695 0.242457 -0.0522922 0.00219749 0.260709 -0.0446332 0.00386676 0.278398 
-0.0371498 0.0052322 0.295522 -0.0298014 0.00623989 0.312076 -0.0225231 0.00684003 0.328059 
-0.0152411 0.00699433 0.343481 -0.00788722 0.00668285 0.35837 -0.000412431 0.00590922 0.372771 
0.00720348 0.00470348 0.386749 0.0149464 0.00312169 0.40039 0.0227672 0.00124237 0.413788 
0.0305862 -0.000840066 0.427047 0.0383011 -0.00302419 0.440262 0.0457976 -0.00521169 0.453514 
0.0529624 -0.00731742 0.466854 0.0596942 -0.00927816 0.4803 0.0659141 -0.0110587 0.493829 
0.0715728 -0.0126547 0.507373 0.076653 -0.0140915 0.520823 0.0811688 -0.015419 0.534039 
0.085161 -0.016704 0.546855 0.0886893 -0.0180193 0.559095 0.0918224 -0.0194325 0.570588 
0.0946287 -0.0209958 0.58118 0.0971667 -0.0227369 0.59075 0.0994788 -0.0246539 0.599216 
0.101587 -0.0267138 0.606541 0.103493 -0.0288557 0.612737 0.105181 -0.030997 0.61786 
0.106625 -0.0330437 0.621999 0.107793 -0.0349018 0.625274 0.108659 -0.0364889 0.627817 
0.109211 -0.0377452 0.629765 0.109453 -0.0386406 0.631246 0.109414 -0.0391792 0.632375 
0.109143 -0.0393984 0.633242 0.108706 -0.0393642 0.633919 0.108186 -0.0391628 0.63445 
0.107664 -0.0388889 0.634865 0.107221 -0.0386338 0.635176 0.106919 -0.0384734 0.635389 
0.106801 -0.0384577 0.635503 
LINES 2 100
OFFSETS vtktypeint64
0 100 
CONNECTIVITY vtktypeint64
0 1 2 3 4 5 6 7 8 
9 10 11 12 13 14 15 16 17 
18 19 20 21 22 23 24 25 26 
27 28 29 30 31 32 33 34 35 
36 37 38 39 40 41 42 43 44 
45 46 47 48 49 50 51 52 53 
54 55 56 57 58 59 60 61 62 
63 64 65 66 67 68 69 70 71 
72 73 74 75 76 77 78 79 80 
81 82 83 84 85 86 87 88 89 
90 91 92 93 94 95 96 97 98 
99 
POINT_DATA 100
FIELD FieldData 3
_theta 1 100 double
0 0.031733259127 0.063466518254 0.095199777382 0.12693303651 0.15866629564 0.19039955476 0.22213281389 0.25386607302 
0.28559933214 0.31733259127 0.3490658504 0.38079910953 0.41253236865 0.44426562778 0.47599888691 0.50773214603 0.53946540516 
0.57119866429 0.60293192342 0.63466518254 0.66639844167 0.6981317008 0.72986495992 0.76159821905 0.79333147818 0.82506473731 
0.85679799643 0.88853125556 0.92026451469 0.95199777382 0.98373103294 1.0154642921 1.0471975512 1.0789308103 1.1106640695 
1.1423973286 1.1741305877 1.2058638468 1.237597106 1.2693303651 1.3010636242 1.3327968833 1.3645301425 1.3962634016 
1.4279966607 1.4597299198 1.491463179 1.5231964381 1.5549296972 1.5866629564 1.6183962155 1.6501294746 1.6818627337 
1.7135959929 1.745329252 1.7770625111 1.8087957702 1.8405290294 1.8722622885 1.9039955476 1.9357288068 1.9674620659 
1.999195325 2.0309285841 2.0626618433 2.0943951024 2.1261283615 2.1578616206 2.1895948798 2.2213281389 2.253061398 
2.2847946572 2.3165279163 2.3482611754 2.3799944345 2.4117276937 2.4434609528 2.4751942119 2.506927471 2.5386607302 
2.5703939893 2.6021272484 2.6338605076 2.6655937667 2.6973270258 2.7290602849 2.7607935441 2.7925268032 2.8242600623 
2.8559933214 2.8877265806 2.9194598397 2.9511930988 2.982926358 3.0146596171 3.0463928762 3.0781261353 3.1098593945 
3.1415926536 
_radius 1 100 double
6.7660442489e-16 0.013654569069 0.027293401168 0.040895188778 0.054435662049 0.067884346178 0.081200162704 0.094326851736 0.10718952057 
0.11969346403 0.13172585893 0.14316026257 0.15386330644 0.16370272638 0.17255591006 0.18031835152 0.18691161198 0.1922904639 
0.19644880038 0.19942368733 0.20129675457 0.20219211128 0.20227023142 0.20171780017 0.20073424686 0.19951641053 0.19824323456 
0.19706236299 0.19608002389 0.19535491492 0.19489636912 0.19466708073 0.19459083757 0.19456542348 0.19447978899 0.19423321839 
0.19375345 0.19301089455 0.19202680482 0.1908739608 0.18966918114 0.18855826467 0.1876962201 0.18722823155 0.18727741373 
0.18794181368 0.18929701092 0.19139725634 0.19427020327 0.19790568024 0.20224359617 0.20716746245 0.21250796899 0.21805712872 
0.22358986604 0.22888804308 0.23376202379 0.23806630729 0.24170764862 0.24464579163 0.24688813701 0.24848026307 0.24949426642 
0.25001657842 0.25013648046 0.24993618242 0.24948311112 0.24882490747 0.24798742589 0.24697568886 0.24577730239 0.24436739646 
0.24271385803 0.24078159091 0.23853482494 0.23593708227 0.23294915506 0.22952612976 0.2256148584 0.22115317209 0.21607159136 
0.21029753865 0.20376140408 0.19640348207 0.18818081615 0.17907321552 0.16908792145 0.15826246798 0.14666523005 0.13439314738 
0.12156631527 0.10831957818 0.094791833611 0.081114266724 0.067399043164 0.053730031383 0.040156930203 0.026693788209 0.01332235212 
1.2883671254e-15 
_area 1 100 double
0 0.00051068145724 0.002038471707 0.0045717036957 0.0080933047623 0.012580738745 0.018001340921 0.024302939836 0.031402402 
0.039175917379 0.047454073568 0.056023095489 0.064632235105 0.073006619558 0.080864664992 0.087938958542 0.093998984646 0.098873268997 
0.10246778979 0.10477730682 0.10588689901 0.10596252754 0.10523157287 0.10395644281 0.10240570076 0.10082649155 0.099418208248 
0.098306842166 0.097531882594 0.097078849988 0.096910532866 0.096974377894 0.097204961129 0.097526864116 0.097861308627 0.098136449826 
0.09830001862 0.098337800387 0.098303060952 0.098343127391 0.098656044657 0.099332657108 0.10030298046 0.10146639355 0.1027778128 
0.10425768443 0.10597677621 0.10803421744 0.11055148504 0.11367431872 0.1175486301 0.1222657801 0.12780292574 0.13399907718 
0.1405813605 0.14721683034 0.15356507797 0.1593227329 0.16425631173 0.16822018915 0.17115868552 0.17309567869 0.17411925552 
0.17437174671 0.17405676706 0.17341272239 0.17247938918 0.17122026157 0.1696536793 0.16781425854 0.16572880017 0.1634060355 
0.16083592205 0.15799420508 0.15484827275 0.15136138114 0.14749372281 0.14320061167 0.13843018527 0.13312415605 0.12722390913 
0.12068115705 0.11346974039 0.10559505478 0.097099850284 0.088067520777 0.078624134866 0.068938338884 0.059216323539 0.049689507511 
0.040595310929 0.032154521932 0.02455052413 0.017915323494 0.012325251162 0.0078064195115 0.0043475554056 0.0019164920627 0.0004765623921 
4.2741358016e-17 
