# vtk DataFile Version 5.1
vtk output
ASCII
DATASET POLYDATA
POINTS 100 float
0.230518 0.0656006 -0.649303 0.230248 0.0656142 -0.649176 0.22945 0.0654882 -0.648802 
0.228131 0.065212 -0.648129 0.226297 0.064768 -0.647079 0.22396 0.0641312 -0.645552 
0.221127 0.0632697 -0.643441 0.217805 0.0621446 -0.640643 0.213998 0.0607109 -0.637066 
0.209703 0.0589192 -0.632645 0.204914 0.0567177 -0.627343 0.199617 0.0540551 -0.621154 
0.193796 0.0508845 -0.614105 0.187433 0.0471671 -0.606246 0.180509 0.0428763 -0.59765 
0.173013 0.0380016 -0.588395 0.164943 0.0325522 -0.57856 0.156308 0.0265587 -0.568212 
0.147136 0.0200747 -0.557399 0.137474 0.0131763 -0.546147 0.127389 0.00596048 -0.534454 
0.116966 -0.00145881 -0.522295 0.106306 -0.00895463 -0.509624 0.0955199 -0.016393 -0.496382 
0.0847231 -0.0236387 -0.482508 0.0740246 -0.030562 -0.467942 0.0635203 -0.0370439 -0.452636 
0.0532846 -0.0429816 -0.436561 0.0433641 -0.0482918 -0.419707 0.0337734 -0.0529134 -0.402089 
0.0244948 -0.0568079 -0.383737 0.0154803 -0.059959 -0.364698 0.00665866 -0.0623698 -0.345025 
-0.00205518 -0.0640597 -0.324774 -0.010748 -0.0650609 -0.30399 -0.0194949 -0.0654134 -0.28271 
-0.0283456 -0.0651616 -0.260954 -0.0373127 -0.064351 -0.238727 -0.0463627 -0.063025 -0.216019 
-0.0554112 -0.0612244 -0.192813 -0.0643231 -0.0589867 -0.169093 -0.0729184 -0.0563471 -0.144848 
-0.0809827 -0.0533403 -0.120087 -0.0882823 -0.0500026 -0.0948415 -0.0945822 -0.0463744 -0.0691734 
-0.0996652 -0.0425023 -0.0431777 -0.103351 -0.038441 -0.0169815 -0.105512 -0.0342534 0.00926056 
-0.106085 -0.030011 0.0353738 -0.105079 -0.0257915 0.0611736 -0.102572 -0.0216768 0.0864773 
-0.0987102 -0.0177496 0.111116 -0.0936904 -0.0140885 0.134947 -0.0877477 -0.0107649 0.157862 
-0.0811343 -0.00783799 0.179794 -0.0741004 -0.00535179 0.200719 -0.066875 -0.00333253 0.220658 
-0.05965 -0.00178731 0.239671 -0.0525698 -0.00070414 0.257847 -0.0457254 -5.3235e-05 0.275297 
-0.0391548 0.0002104 0.292144 -0.0328496 0.000143455 0.308508 -0.0267652 -0.000189878 0.3245 
-0.0208347 -0.000722381 0.340212 -0.0149845 -0.0013882 0.35571 -0.00914816 -0.00212679 0.371036 
-0.00327981 -0.00288609 0.386207 0.00263773 -0.0036248 0.401213 0.00858845 -0.00431356 0.416032 
0.0145237 -0.00493505 0.430627 0.0203673 -0.00548323 0.44496 0.0260245 -0.00596171 0.458992 
0.0313929 -0.00638164 0.472694 0.0363749 -0.00675937 0.486043 0.0408891 -0.00711401 0.499031 
0.0448794 -0.00746531 0.511655 0.0483213 -0.00783191 0.523924 0.0512245 -0.00823003 0.535843 
0.0536305 -0.00867275 0.547421 0.0556079 -0.00916974 0.558655 0.057244 -0.00972738 0.569533 
0.0586348 -0.0103492 0.580029 0.0598753 -0.0110361 0.590104 0.0610496 -0.0117874 0.599704 
0.0622241 -0.0126004 0.608769 0.0634423 -0.013471 0.617232 0.0647238 -0.0143935 0.625029 
0.0660652 -0.0153604 0.632104 0.0674445 -0.0163617 0.638415 0.0688266 -0.0173849 0.643938 
0.07017 -0.0184147 0.648672 0.0714332 -0.0194327 0.65264 0.0725799 -0.0204178 0.655887 
0.073583 -0.0213471 0.658476 0.0744259 -0.0221966 0.660484 0.0751024 -0.0229425 0.661993 
0.0756142 -0.0235623 0.663086 0.0759681 -0.0240371 0.663836 0.0761724 -0.0243521 0.664298 
0.0762332 -0.024498 0.664509 
LINES 2 100
OFFSETS vtktypeint64
0 100 
CONNECTIVITY vtktypeint64
0 1 2 3 4 5 6 7 8 
9 10 11 12 13 14 15 16 17 
18 19 20 21 22 23 24 25 26 
27 28 29 30 31 32 33 34 35 
36 37 38 39 40 41 42 43 44 
45 46 47 48 49 50 51 52 53 
54 55 56 57 58 59 60 61 62 
63 64 65 66 67 68 69 70 71 
72 73 74 75 76 77 78 79 80 
81 82 83 84 85 86 87 88 89 
90 91 92 93 94 95 96 97 98 
99 
POINT_DATA 100
FIELD FieldData 3
_theta 1 100 double
0 0.031733259127 0.063466518254 0.095199777382 0.12693303651 0.15866629564 0.19039955476 0.22213281389 0.25386607302 
0.28559933214 0.31733259127 0.3490658504 0.38079910953 0.41253236865 0.44426562778 0.47599888691 0.50773214603 0.53946540516 
0.57119866429 0.60293192342 0.63466518254 0.66639844167 0.6981317008 0.72986495992 0.76159821905 0.79333147818 0.82506473731 
0.85679799643 0.88853125556 0.92026451469 0.95199777382 0.98373103294 1.0154642921 1.0471975512 1.0789308103 1.1106640695 
1.1423973286 1.1741305877 1.2058638468 1.237597106 1.2693303651 1.3010636242 1.3327968833 1.3645301425 1.3962634016 
1.4279966607 1.4597299198 1.491463179 1.5231964381 1.5549296972 1.5866629564 1.6183962155 1.6501294746 1.6818627337 
1.7135959929 1.745329252 1.7770625111 1.8087957702 1.8405290294 1.8722622885 1.9039955476 1.9357288068 1.9674620659 
1.999195325 2.0309285841 2.0626618433 2.0943951024 2.1261283615 2.1578616206 2.1895948798 2.2213281389 2.253061398 
2.2847946572 2.3165279163 2.3482611754 2.3799944345 2.4117276937 2.4434609528 2.4751942119 2.506927471 2.5386607302 
2.5703939893 2.6021272484 2.6338605076 2.6655937667 2.6973270258 2.7290602849 2.7607935441 2.7925268032 2.8242600623 
2.8559933214 2.8877265806 2.9194598397 2.9511930988 2.982926358 3.0146596171 3.0463928762 3.0781261353 3.1098593945 
3.1415926536 
_radius 1 100 double
7.9395016896e-16 0.015884793227 0.031615735993 0.047045340785 0.062042191694 0.076494510266 0.090309865885 0.10341179551 0.11573495223 
0.12722067386 0.1378144945 0.14746631227 0.15613301663 0.16378268568 0.17039915678 0.17598585595 0.18056812796 0.184193777 
0.18693195247 0.18887077807 0.19011416095 0.19077804279 0.19098606887 0.19086443334 0.19053569393 0.1901117057 0.18968637935 
0.18932944623 0.18908251904 0.18895835191 0.18894345592 0.18900343267 0.18908987315 0.18914761885 0.18912161105 0.18896329389 
0.18863714277 0.18812773505 0.18744669616 0.18663761268 0.18577666867 0.18496773787 0.18433260635 0.18399904676 0.18409038814 
0.18471909192 0.18598403383 0.18796848699 0.19073514399 0.19431657444 0.19870310777 0.20383284149 0.2095884059 0.21580251337 
0.22227120121 0.22877182866 0.23508261464 0.2410010645 0.24635932293 0.25103508844 0.25495729514 0.25810634709 0.2605092283 
0.26223025093 0.26335854298 0.2639936532 0.26423089459 0.26414819772 0.2637961343 0.26319225308 0.26232004631 0.26113208385 
0.25955639517 0.25750505376 0.25488396278 0.25160291707 0.24758506853 0.24277496488 0.23714441051 0.23069555104 0.22346081524 
0.21549962847 0.20689210844 0.19773024994 0.18810740743 0.17810720216 0.16779328904 0.15720163057 0.14633688429 0.13517403817 
0.1236654571 0.11175223557 0.099377667784 0.086500232217 0.073103874008 0.059204271577 0.044850747848 0.030124215861 0.015131939116 
5.7807175613e-16 
_area 1 100 double
0 0.0005730053254 0.0022845597744 0.0051110839837 0.0090094272678 0.013911626806 0.019718876545 0.026296339368 0.033470897831 
0.041033853662 0.048749729717 0.056370820383 0.063655460555 0.070386785404 0.07638852139 0.081535162081 0.085755397357 0.089029350501 
0.091381589306 0.092872695851 0.093591990664 0.093652317588 0.093184994375 0.09233079281 0.09123410641 0.090036289116 0.088849702627 
0.087800039377 0.087069784856 0.086540295605 0.086175619366 0.085928420829 0.08573617745 0.085539907591 0.085303654646 0.085036679741 
0.084820385195 0.084792925301 0.085101709317 0.085879579968 0.087180628669 0.088926594886 0.090877804016 0.092811287611 0.094555080556 
0.096044994388 0.097375888779 0.098852818776 0.10113029219 0.10457026644 0.10903075354 0.1146932021 0.12169253842 0.12996411759 
0.13922525236 0.14902303055 0.15880526723 0.16799892288 0.17609294001 0.18271815114 0.18769584159 0.19102827389 0.19288495666 
0.19371396206 0.19362998574 0.19286586495 0.19167902961 0.19026160119 0.18872415151 0.18709043692 0.18530422491 0.18324961865 
0.18077282821 0.1777006009 0.1738592617 0.16909697457 0.16330793435 0.15645420777 0.14857982292 0.13981274515 0.13035307498 
0.1204490069 0.11036473738 0.1003462132 0.090591351614 0.081230825747 0.072323239619 0.063864990816 0.05581173702 0.048106121549 
0.040705478886 0.033603767149 0.026843863293 0.0205189117 0.014763783552 0.0097393603561 0.0056131111109 0.0025393311537 0.00064171182682 
1.9043778787e-17 
