# vtk DataFile Version 5.1
vtk output
ASCII
DATASET POLYDATA
POINTS 100 float
0.210337 0.0378349 -0.604234 0.210053 0.0379487 -0.604343 0.209241 0.0381824 -0.604728 
0.207921 0.0385214 -0.605256 0.20612 0.0389401 -0.605719 0.203874 0.0394026 -0.605865 
0.20122 0.0398621 -0.605419 0.198193 0.0402625 -0.604121 0.19482 0.0405392 -0.601754 
0.191118 0.0406217 -0.598164 0.187087 0.0404366 -0.59328 0.182708 0.0399112 -0.587115 
0.177947 0.0389778 -0.579765 0.172753 0.0375779 -0.571389 0.167063 0.0356673 -0.56219 
0.160809 0.033219 -0.552386 0.153925 0.0302268 -0.542183 0.146356 0.0267069 -0.531752 
0.138066 0.0226985 -0.521202 0.129047 0.0182621 -0.510575 0.119323 0.0134775 -0.499843 
0.108958 0.00843958 -0.488911 0.0980489 0.00325371 -0.477634 0.0867279 -0.00197 -0.46584 
0.0751515 -0.00712211 -0.453351 0.0634911 -0.0120993 -0.440009 0.0519199 -0.0168087 -0.425692 
0.040599 -0.0211721 -0.410339 0.0296633 -0.0251277 -0.393945 0.0192108 -0.0286318 -0.376569 
0.00929375 -0.0316584 -0.358323 -8.47284e-05 -0.0341979 -0.339355 -0.00896932 -0.0362556 -0.319835 
-0.0174456 -0.0378483 -0.299926 -0.0256287 -0.0390022 -0.279774 -0.0336475 -0.0397495 -0.259486 
-0.0416273 -0.0401262 -0.239122 -0.0496721 -0.0401698 -0.218692 -0.0578478 -0.0399175 -0.198163 
-0.0661699 -0.0394055 -0.177461 -0.0745953 -0.0386679 -0.156496 -0.0830212 -0.0377369 -0.135172 
-0.0912894 -0.0366428 -0.113407 -0.0991976 -0.0354139 -0.0911498 -0.106515 -0.0340772 -0.0683883 
-0.113 -0.0326586 -0.0451579 -0.118426 -0.0311831 -0.0215408 -0.122592 -0.0296748 0.00233998 
-0.125349 -0.0281572 0.0263308 -0.126605 -0.0266533 0.050261 -0.126333 -0.0251851 0.0739575 
-0.124572 -0.023774 0.0972595 -0.121419 -0.0224403 0.12003 -0.117018 -0.0212027 0.142165 
-0.111546 -0.0200782 0.163596 -0.105192 -0.0190813 0.184291 -0.0981444 -0.018223 0.20425 
-0.0905765 -0.0175103 0.223497 -0.0826341 -0.0169447 0.242075 -0.0744315 -0.016522 0.260032 
-0.0660505 -0.0162312 0.277417 -0.0575447 -0.0160542 0.294276 -0.0489474 -0.0159666 0.310646 
-0.0402821 -0.0159384 0.326556 -0.0315725 -0.0159356 0.342032 -0.0228523 -0.0159231 0.357095 
-0.0141712 -0.0158674 0.371773 -0.00559767 -0.0157402 0.386095 0.00278266 -0.0155215 0.4001 
0.010873 -0.0152027 0.413835 0.0185743 -0.014789 0.427348 0.0257962 -0.0143002 0.440689 
0.0324679 -0.0137706 0.4539 0.038548 -0.0132468 0.46701 0.0440307 -0.0127845 0.480025 
0.0489479 -0.0124432 0.49293 0.0533666 -0.0122809 0.505681 0.0573815 -0.0123475 0.518208 
0.0611038 -0.0126789 0.530421 0.0646475 -0.0132918 0.542215 0.0681144 -0.01418 0.55348 
0.0715815 -0.015313 0.56411 0.0750901 -0.0166366 0.574015 0.0786403 -0.0180765 0.583127 
0.0821905 -0.0195435 0.591405 0.0856626 -0.0209413 0.598842 0.0889525 -0.0221751 0.605458 
0.0919436 -0.02316 0.611299 0.0945232 -0.0238304 0.616431 0.0965986 -0.0241459 0.620927 
0.0981101 -0.0240966 0.624865 0.0990417 -0.0237044 0.628312 0.0994245 -0.0230222 0.631325 
0.0993355 -0.0221288 0.633942 0.0988897 -0.0211224 0.636183 0.0982272 -0.0201111 0.638053 
0.097497 -0.0192026 0.639544 0.0968396 -0.0184937 0.640642 0.0963698 -0.0180609 0.641331 
0.096163 -0.0179533 0.641599 
LINES 2 100
OFFSETS vtktypeint64
0 100 
CONNECTIVITY vtktypeint64
0 1 2 3 4 5 6 7 8 
9 10 11 12 13 14 15 16 17 
18 19 20 21 22 23 24 25 26 
27 28 29 30 31 32 33 34 35 
36 37 38 39 40 41 42 43 44 
45 46 47 48 49 50 51 52 53 
54 55 56 57 58 59 60 61 62 
63 64 65 66 67 68 69 70 71 
72 73 74 75 76 77 78 79 80 
81 82 83 84 85 86 87 88 89 
90 91 92 93 94 95 96 97 98 
99 
POINT_DATA 100
FIELD FieldData 3
_theta 1 100 double
0 0.031733259127 0.063466518254 0.095199777382 0.12693303651 0.15866629564 0.19039955476 0.22213281389 0.25386607302 
0.28559933214 0.31733259127 0.3490658504 0.38079910953 0.41253236865 0.44426562778 0.47599888691 0.50773214603 0.53946540516 
0.57119866429 0.60293192342 0.63466518254 0.66639844167 0.6981317008 0.72986495992 0.76159821905 0.79333147818 0.82506473731 
0.85679799643 0.88853125556 0.92026451469 0.95199777382 0.98373103294 1.0154642921 1.0471975512 1.0789308103 1.1106640695 
1.1423973286 1.1741305877 1.2058638468 1.237597106 1.2693303651 1.3010636242 1.3327968833 1.3645301425 1.3962634016 
1.4279966607 1.4597299198 1.491463179 1.5231964381 1.5549296972 1.5866629564 1.6183962155 1.6501294746 1.6818627337 
1.7135959929 1.745329252 1.7770625111 1.8087957702 1.8405290294 1.8722622885 1.9039955476 1.9357288068 1.9674620659 
1.999195325 2.0309285841 2.0626618433 2.0943951024 2.1261283615 2.1578616206 2.1895948798 2.2213281389 2.253061398 
2.2847946572 2.3165279163 2.3482611754 2.3799944345 2.4117276937 2.4434609528 2.4751942119 2.506927471 2.5386607302 
2.5703939893 2.6021272484 2.6338605076 2.6655937667 2.6973270258 2.7290602849 2.7607935441 2.7925268032 2.8242600623 
2.8559933214 2.8877265806 2.9194598397 2.9511930988 2.982926358 3.0146596171 3.0463928762 3.0781261353 3.1098593945 
3.1415926536 
_radius 1 100 double
4.1915743961e-16 0.013380168387 0.026638773448 0.039658918403 0.0523309198 0.064555698814 0.076247448808 0.08733504559 0.097761804619 
0.10748355541 0.11646551565 0.12467893419 0.13209870637 0.13870296395 0.14447500315 0.1494070716 0.15350484352 0.15679114588 
0.15930771632 0.16111435678 0.16228559753 0.16290570682 0.16306337145 0.16284743983 0.1623446485 0.16163934718 0.16081423938 
0.15995051562 0.15912582744 0.15840943695 0.15785530888 0.15749523441 0.15733452552 0.15735205787 0.1575048617 0.15773590856 
0.15798293051 0.15818627599 0.15829475317 0.15826963801 0.15808788996 0.15774563214 0.15726214889 0.15668359254 0.15608489188 
0.15556828127 0.15525736895 0.15528658112 0.1557869575 0.15687035614 0.15861480068 0.1610536137 0.1641699673 0.16789691607 
0.17212170242 0.17669281899 0.18142895422 0.18612989486 0.19058994995 0.19461404616 0.19803544734 0.20073269492 0.20264259063 
0.20376628797 0.20416679104 0.20395798652 0.20328719527 0.20231454734 0.20119281765 0.20005063542 0.19898061285 0.1980326201 
0.1972116787 0.19647979665 0.19576119721 0.19495044757 0.19392284946 0.1925461843 0.19069262556 0.18824942777 0.18512699064 
0.18126321035 0.17662369491 0.1711982783 0.16499505058 0.15803358692 0.1503390777 0.14193861476 0.13286007183 0.12313307786 
0.11279089857 0.10187194831 0.090420193522 0.078484554759 0.066118066876 0.053377649488 0.040324842786 0.02702709596 0.013558640559 
9.489162359e-16 
_area 1 100 double
0 0.00041264303903 0.0016501943964 0.0037069547554 0.0065604784464 0.010158982048 0.014413849314 0.01920097632 0.024370451751 
0.029760230119 0.035208042985 0.040557829654 0.045661337281 0.050379013649 0.054584266453 0.058172121711 0.061069977864 0.063246668594 
0.064716619816 0.065537287571 0.065799464519 0.065611876281 0.065083926935 0.064312195544 0.063375691054 0.062341547643 0.061277627235 
0.060262783162 0.059382939266 0.058709853254 0.05827884808 0.05808460981 0.05809277872 0.058255606285 0.058527438727 0.05887865928 
0.059304901322 0.059828774118 0.060492362375 0.061337633454 0.062375473179 0.063561365028 0.064803063738 0.065998804502 0.067081010273 
0.068043220274 0.068943349508 0.069889564812 0.07101876017 0.072476949954 0.074402486651 0.076901922351 0.080032758905 0.083806101206 
0.088177950728 0.093037168166 0.098212804577 0.10348856904 0.10861132572 0.11330129633 0.11727513987 0.12028280069 0.12214863837 
0.12280322931 0.1222952706 0.12078076532 0.11849458587 0.11571342276 0.11271793442 0.10975819584 0.1070247264 0.10462879674 
0.10259611635 0.10087421826 0.099350313573 0.097875899116 0.096292311338 0.094450368166 0.092221717925 0.089504582243 0.086227630726 
0.082353834825 0.07788378372 0.072856637811 0.067347085923 0.061457886495 0.055309054783 0.049026041608 0.042729912529 0.036532003161 
0.030533681271 0.024829565294 0.019511260173 0.01466915656 0.010391494491 0.0067614002247 0.0038531607282 0.0017286999949 0.00043464014221 
2.9754492769e-17 
