# vtk DataFile Version 5.1
vtk output
ASCII
DATASET POLYDATA
POINTS 100 float
0.125004 0.0045344 -0.580381 0.124936 0.00462571 -0.580491 0.124656 0.00510333 -0.580748 
0.124166 0.00588909 -0.581076 0.123461 0.00686122 -0.58136 0.122533 0.00786559 -0.581451 
0.121367 0.00872962 -0.581176 0.119932 0.00927752 -0.580361 0.118184 0.00934556 -0.578833 
0.116065 0.00879569 -0.57644 0.113504 0.00752658 -0.573057 0.11042 0.00548096 -0.568595 
0.106732 0.00264887 -0.562998 0.102365 -0.000933174 -0.556248 0.0972583 -0.00518686 -0.548358 
0.091374 -0.00999978 -0.539367 0.0847041 -0.0152352 -0.529327 0.0772741 -0.0207429 -0.5183 
0.0691445 -0.0263698 -0.506348 0.0604073 -0.0319692 -0.493524 0.0511808 -0.0374091 -0.479868 
0.0416003 -0.0425766 -0.46541 0.0318073 -0.0473813 -0.450161 0.0219379 -0.0517556 -0.434123 
0.0121117 -0.0556523 -0.417292 0.00242341 -0.0590425 -0.399658 -0.00706357 -0.0619105 -0.381214 
-0.0163186 -0.0642506 -0.361963 -0.0253417 -0.0660625 -0.341914 -0.0341566 -0.0673489 -0.321093 
-0.0428014 -0.0681133 -0.299536 -0.0513162 -0.0683591 -0.277294 -0.0597301 -0.0680904 -0.254427 
-0.0680494 -0.067312 -0.231004 -0.0762478 -0.066032 -0.2071 -0.0842603 -0.0642624 -0.182791 
-0.0919819 -0.062021 -0.158155 -0.099271 -0.0593326 -0.13327 -0.105958 -0.056229 -0.108213 
-0.111857 -0.0527497 -0.0830606 -0.116781 -0.0489409 -0.0578906 -0.120561 -0.0448552 -0.0327822 
-0.123057 -0.0405502 -0.00781719 -0.124174 -0.036088 0.0169209 -0.123875 -0.0315339 0.0413474 
-0.122179 -0.0269554 0.0653789 -0.119167 -0.0224217 0.0889363 -0.114972 -0.0180024 0.111949 
-0.109771 -0.0137664 0.134357 -0.10377 -0.00978078 0.156118 -0.0971866 -0.00610859 0.177208 
-0.0902363 -0.00280713 0.197625 -0.0831137 7.46681e-05 0.217387 -0.0759822 0.00249858 0.236532 
-0.068965 0.00443945 0.255115 -0.0621415 0.00588695 0.273202 -0.0555484 0.00684671 0.290868 
-0.0491853 0.00734028 0.308183 -0.0430236 0.00740407 0.325216 -0.0370187 0.00708695 0.342021 
-0.0311214 0.0064468 0.358639 -0.0252898 0.00554627 0.37509 -0.0194989 0.00444801 0.39138 
-0.0137464 0.00321006 0.407496 -0.00805598 0.00188165 0.42341 -0.00247494 0.000500109 0.439088 
0.00293019 -0.000910859 0.454489 0.00808184 -0.00234134 0.469571 0.012901 -0.00379371 0.484301 
0.0173171 -0.00527979 0.498648 0.0212778 -0.00681677 0.512595 0.0247552 -0.00842276 0.526131 
0.0277508 -0.0101122 0.539254 0.0302954 -0.011892 0.551968 0.0324461 -0.0137588 0.564276 
0.0342803 -0.0156976 0.576183 0.035886 -0.0176823 0.587685 0.0373518 -0.0196778 0.598767 
0.0387561 -0.0216433 0.609408 0.0401574 -0.0235369 0.619572 0.041587 -0.0253202 0.629214 
0.0430448 -0.0269625 0.63828 0.0444988 -0.0284448 0.646714 0.0458885 -0.0297613 0.654458 
0.0471319 -0.0309201 0.661464 0.0481357 -0.0319418 0.667691 0.0488062 -0.0328562 0.673114 
0.0490623 -0.0336982 0.677728 0.0488465 -0.0345029 0.681549 0.0481341 -0.0353001 0.684612 
0.0469398 -0.0361104 0.686973 0.0453192 -0.0369418 0.688707 0.0433676 -0.0377881 0.689902 
0.0412131 -0.0386293 0.690653 0.0390073 -0.0394339 0.691061 0.0369123 -0.0401624 0.691223 
0.0350874 -0.0407725 0.691229 0.0336745 -0.0412239 0.691153 0.0327853 -0.0414834 0.691053 
0.0324917 -0.0415295 0.690967 
LINES 2 100
OFFSETS vtktypeint64
0 100 
CONNECTIVITY vtktypeint64
0 1 2 3 4 5 6 7 8 
9 10 11 12 13 14 15 16 17 
18 19 20 21 22 23 24 25 26 
27 28 29 30 31 32 33 34 35 
36 37 38 39 40 41 42 43 44 
45 46 47 48 49 50 51 52 53 
54 55 56 57 58 59 60 61 62 
63 64 65 66 67 68 69 70 71 
72 73 74 75 76 77 78 79 80 
81 82 83 84 85 86 87 88 89 
90 91 92 93 94 95 96 97 98 
99 
POINT_DATA 100
FIELD FieldData 3
_theta 1 100 double
0 0.031733259127 0.063466518254 0.095199777382 0.12693303651 0.15866629564 0.19039955476 0.22213281389 0.25386607302 
0.28559933214 0.31733259127 0.3490658504 0.38079910953 0.41253236865 0.44426562778 0.47599888691 0.50773214603 0.53946540516 
0.57119866429 0.60293192342 0.63466518254 0.66639844167 0.6981317008 0.72986495992 0.76159821905 0.79333147818 0.82506473731 
0.85679799643 0.88853125556 0.92026451469 0.95199777382 0.98373103294 1.0154642921 1.0471975512 1.0789308103 1.1106640695 
1.1423973286 1.1741305877 1.2058638468 1.237597106 1.2693303651 1.3010636242 1.3327968833 1.3645301425 1.3962634016 
1.4279966607 1.4597299198 1.491463179 1.5231964381 1.5549296972 1.5866629564 1.6183962155 1.6501294746 1.6818627337 
1.7135959929 1.745329252 1.7770625111 1.8087957702 1.8405290294 1.8722622885 1.9039955476 1.9357288068 1.9674620659 
1.999195325 2.0309285841 2.0626618433 2.0943951024 2.1261283615 2.1578616206 2.1895948798 2.2213281389 2.253061398 
2.2847946572 2.3165279163 2.3482611754 2.3799944345 2.4117276937 2.4434609528 2.4751942119 2.506927471 2.5386607302 
2.5703939893 2.6021272484 2.6338605076 2.6655937667 2.6973270258 2.7290602849 2.7607935441 2.7925268032 2.8242600623 
2.8559933214 2.8877265806 2.9194598397 2.9511930988 2.982926358 3.0146596171 3.0463928762 3.0781261353 3.1098593945 
3.1415926536 
_radius 1 100 double
1.2241003411e-15 0.015084050807 0.030218850406 0.045437494161 0.060731709496 0.076039434942 0.091240513996 0.10616068135 0.12058293498 
0.13426467514 0.14695858048 0.15843498712 0.16850348602 0.17703154324 0.18395818205 0.18930115732 0.19315661138 0.19569092637 
0.19712534806 0.19771487671 0.19772379279 0.19740086222 0.19695756097 0.19655234824 0.19628296864 0.1961871545 0.19625051451 
0.19641950043 0.19661734515 0.19676134205 0.19678016571 0.19662985074 0.19630670179 0.19585504469 0.19536749379 0.1949756855 
0.19483113038 0.1950796725 0.19583756149 0.19717817415 0.19913324658 0.20170453962 0.20487750445 0.20862987 0.21293254006 
0.2177445622 0.2230064448 0.22863623453 0.23453097063 0.24057356359 0.24664303541 0.25262511569 0.25842052542 0.26394956711 
0.26915318474 0.27399166117 0.27844218848 0.28249598553 0.28615510408 0.28942892063 0.29233043868 0.29487266622 0.29706537838 
0.29891255381 0.30041071175 0.30154825677 0.30230574777 0.30265679809 0.30256918781 0.30200581127 0.30092529396 0.2992824074 
0.29702866147 0.29411355675 0.29048687598 0.28610209417 0.28092057178 0.27491581341 0.26807688988 0.26041023665 0.2519394309 
0.24270306132 0.23275123716 0.22214147702 0.21093464204 0.19919132894 0.18696888087 0.17431903804 0.16128626079 0.14790684566 
0.13420901062 0.12021407887 0.10593873364 0.091398099501 0.076609201955 0.061594230549 0.046383019363 0.031014269401 0.015535250982 
8.4473522487e-16 
_area 1 100 double
0 0.00062490587557 0.0025192643646 0.0057333455516 0.010322319053 0.016307338106 0.02363426446 0.032143909724 0.041563896609 
0.051524819875 0.061595891409 0.071330281298 0.080309722032 0.088181271753 0.094683633273 0.099663138211 0.10307971562 0.10500238206 
0.10559398824 0.10508695375 0.10375454894 0.10188379537 0.099754562637 0.097625254866 0.095721624838 0.094228524477 0.093279322013 
0.092790306012 0.092532375696 0.092371369662 0.092260619039 0.092234867529 0.092417360121 0.092997882194 0.094158710492 0.095996964095 
0.098515869212 0.10166580519 0.10537525048 0.10955492477 0.11409529815 0.11888508803 0.12384558808 0.12895309266 0.13424579029 
0.13982048092 0.14580286631 0.15228542895 0.15927379058 0.16667731947 0.17433248313 0.18203836906 0.18959172215 0.19681173064 
0.2035531066 0.2097137687 0.21524050131 0.22012867779 0.22441164384 0.2281413283 0.23136697798 0.23411898798 0.23640073005 
0.23818795896 0.23943505288 0.24008737727 0.24009716065 0.23943752062 0.23810786234 0.23612589166 0.23350740864 0.23024293613 
0.22628353623 0.22154268332 0.21591330228 0.20929493753 0.20162369047 0.19289611312 0.18317954607 0.17260568661 0.16134976895 
0.14960270834 0.13754604777 0.12533786563 0.11311202821 0.10098659858 0.089074232068 0.077489058403 0.066348156844 0.055768569534 
0.045862167519 0.036730850882 0.028463827743 0.021137465597 0.014817005938 0.009558776358 0.0054115935522 0.0024166468217 0.00060593728599 
1.9012726039e-17 
