# vtk DataFile Version 5.1
vtk output
ASCII
DATASET POLYDATA
POINTS 100 float
0.158752 0.0870947 -0.671494 0.158712 0.0868752 -0.67164 0.158581 0.0864045 -0.672027 
0.158343 0.0856677 -0.672556 0.157977 0.0846413 -0.67307 0.157456 0.0832952 -0.673377 
0.15675 0.0815942 -0.673268 0.155828 0.0795011 -0.672541 0.154659 0.0769795 -0.67102 
0.153214 0.0739965 -0.668571 0.151468 0.070526 -0.665117 0.149393 0.0665508 -0.660637 
0.146964 0.0620657 -0.655167 0.144151 0.0570781 -0.648786 0.140921 0.0516097 -0.6416 
0.137237 0.0456963 -0.633726 0.133057 0.0393866 -0.625273 0.128337 0.0327412 -0.616322 
0.123035 0.0258299 -0.606916 0.117113 0.0187294 -0.597051 0.110547 0.0115201 -0.586676 
0.103325 0.00428351 -0.575701 0.0954609 -0.0028999 -0.564005 0.0869887 -0.00995286 -0.551456 
0.0779684 -0.0168022 -0.537926 0.068483 -0.0233792 -0.523307 0.0586341 -0.0296197 -0.507529 
0.0485352 -0.035463 -0.490566 0.0383039 -0.0408514 -0.47244 0.0280527 -0.0457291 -0.453224 
0.0178804 -0.0500423 -0.433024 0.0078652 -0.0537397 -0.411977 -0.00193961 -0.0567732 -0.390227 
-0.011507 -0.0591003 -0.367914 -0.0208337 -0.0606873 -0.345156 -0.0299341 -0.0615116 -0.322038 
-0.0388312 -0.0615663 -0.298607 -0.047546 -0.0608621 -0.274867 -0.0560861 -0.0594303 -0.250788 
-0.0644348 -0.0573234 -0.226313 -0.0725434 -0.0546148 -0.201369 -0.0803264 -0.0513963 -0.175886 
-0.0876618 -0.0477746 -0.149813 -0.0943956 -0.0438656 -0.123125 -0.100351 -0.0397888 -0.0958405 
-0.105343 -0.03566 -0.0680202 -0.10919 -0.0315858 -0.0397718 -0.111736 -0.0276572 -0.0112427 
-0.11286 -0.0239466 0.0173888 -0.112492 -0.020505 0.0459261 -0.11062 -0.0173622 0.0741682 
-0.107295 -0.0145287 0.101924 -0.102626 -0.0119998 0.129023 -0.0967714 -0.00975994 0.155329 
-0.0899307 -0.00778906 0.180741 -0.0823253 -0.00606754 0.205199 -0.0741826 -0.00458117 0.228682 
-0.0657192 -0.00332442 0.2512 -0.057126 -0.00230193 0.272794 -0.0485573 -0.00152813 0.293519 
-0.0401244 -0.00102492 0.313446 -0.0318937 -0.000817866 0.332648 -0.0238905 -0.000931492 0.351195 
-0.0161063 -0.00138426 0.369156 -0.008509 -0.00218405 0.386591 -0.00105529 -0.0033248 0.403554 
0.00629795 -0.00478481 0.420094 0.0135833 -0.00652704 0.436256 0.0208153 -0.00850132 0.452077 
0.0279864 -0.0106485 0.467596 0.035067 -0.0129056 0.482844 0.0420083 -0.0152119 0.497845 
0.0487486 -0.0175144 0.512615 0.0552212 -0.0197727 0.52716 0.0613622 -0.0219622 0.541468 
0.0671188 -0.0240751 0.555513 0.0724549 -0.0261193 0.569255 0.0773545 -0.0281152 0.582636 
0.0818226 -0.030091 0.595588 0.0858832 -0.0320762 0.60804 0.0895746 -0.0340961 0.619915 
0.0929435 -0.0361656 0.631147 0.0960388 -0.0382855 0.641678 0.098905 -0.0404397 0.651468 
0.101578 -0.0425958 0.660496 0.104079 -0.0447073 0.66876 0.10642 -0.0467181 0.676278 
0.108597 -0.048569 0.683082 0.110598 -0.0502042 0.689214 0.112409 -0.0515786 0.694721 
0.114012 -0.0526628 0.699646 0.115396 -0.0534477 0.70403 0.116555 -0.0539458 0.707897 
0.117496 -0.0541899 0.711265 0.118231 -0.0542298 0.714135 0.118784 -0.0541265 0.716499 
0.11918 -0.0539445 0.718343 0.119446 -0.0537446 0.71965 0.119603 -0.0535764 0.720404 
0.119668 -0.0534718 0.720595 
LINES 2 100
OFFSETS vtktypeint64
0 100 
CONNECTIVITY vtktypeint64
0 1 2 3 4 5 6 7 8 
9 10 11 12 13 14 15 16 17 
18 19 20 21 22 23 24 25 26 
27 28 29 30 31 32 33 34 35 
36 37 38 39 40 41 42 43 44 
45 46 47 48 49 50 51 52 53 
54 55 56 57 58 59 60 61 62 
63 64 65 66 67 68 69 70 71 
72 73 74 75 76 77 78 79 80 
81 82 83 84 85 86 87 88 89 
90 91 92 93 94 95 96 97 98 
99 
POINT_DATA 100
FIELD FieldData 3
_theta 1 100 double
0 0.031733259127 0.063466518254 0.095199777382 0.12693303651 0.15866629564 0.19039955476 0.22213281389 0.25386607302 
0.28559933214 0.31733259127 0.3490658504 0.38079910953 0.41253236865 0.44426562778 0.47599888691 0.50773214603 0.53946540516 
0.57119866429 0.60293192342 0.63466518254 0.66639844167 0.6981317008 0.72986495992 0.76159821905 0.79333147818 0.82506473731 
0.85679799643 0.88853125556 0.92026451469 0.95199777382 0.98373103294 1.0154642921 1.0471975512 1.0789308103 1.1106640695 
1.1423973286 1.1741305877 1.2058638468 1.237597106 1.2693303651 1.3010636242 1.3327968833 1.3645301425 1.3962634016 
1.4279966607 1.4597299198 1.491463179 1.5231964381 1.5549296972 1.5866629564 1.6183962155 1.6501294746 1.6818627337 
1.7135959929 1.745329252 1.7770625111 1.8087957702 1.8405290294 1.8722622885 1.9039955476 1.9357288068 1.9674620659 
1.999195325 2.0309285841 2.0626618433 2.0943951024 2.1261283615 2.1578616206 2.1895948798 2.2213281389 2.253061398 
2.2847946572 2.3165279163 2.3482611754 2.3799944345 2.4117276937 2.4434609528 2.4751942119 2.506927471 2.5386607302 
2.5703939893 2.6021272484 2.6338605076 2.6655937667 2.6973270258 2.7290602849 2.7607935441 2.7925268032 2.8242600623 
2.8559933214 2.8877265806 2.9194598397 2.9511930988 2.982926358 3.0146596171 3.0463928762 3.0781261353 3.1098593945 
3.1415926536 
_radius 1 100 double
1.5558603238e-15 0.014727135041 0.029415913223 0.044028786354 0.058518677628 0.072826255341 0.086879068049 0.10059219613 0.11386982389 
0.12660720395 0.13869279373 0.15001071697 0.16044395961 0.16987873288 0.17821021741 0.18534952567 0.19123131464 0.19582117032 
0.19912175098 0.20117674363 0.20207193901 0.20193310782 0.20092077908 0.19922237598 0.19704235563 0.19459099772 0.19207237973 
0.18967205508 0.1875451825 0.18580631311 0.18452242236 0.18371063079 0.18334118096 0.18334499327 0.18362424443 0.18406435683 
0.1845463752 0.18495936508 0.18521261688 0.18524684867 0.18504270346 0.1846245207 0.18405809491 0.18344256625 0.18289810573 
0.18255220865 0.1825277287 0.18293481571 0.18386686221 0.18539857923 0.18758369877 0.19045082383 0.19399777135 0.19818621313 
0.20293883358 0.20814061806 0.21364473803 0.21928235229 0.22487487503 0.23024699278 0.23523884994 0.23971618389 0.24357762077 
0.24675873983 0.24923281711 0.25100836463 0.25212373786 0.25263926438 0.25262757939 0.25216310181 0.25131175932 0.25012208805 
0.24861866548 0.24679851674 0.24463074299 0.2420592326 0.23900799296 0.23538842442 0.2311077683 0.22607798786 0.22022442854 
0.21349366864 0.20585995582 0.19732954607 0.18794221841 0.17776934339 0.16690820412 0.15547280245 0.14358207708 0.13134721686 
0.11886037527 0.10618725644 0.093365410181 0.080408617896 0.067315980112 0.054083025313 0.040711855436 0.027217966653 0.013632514764 
2.8798335221e-16 
_area 1 100 double
0 0.00057901698616 0.0023133788768 0.0051932180455 0.0091966649778 0.014283516236 0.020389068004 0.027418916637 0.035244210054 
0.043696415131 0.052562155749 0.061581303945 0.070452834437 0.078851315301 0.086453199335 0.092968456454 0.098170971592 0.10192096627 
0.10417451432 0.10497873798 0.10445562078 0.10278096615 0.10016599721 0.09684651137 0.093079557634 0.089142668312 0.085325633313 
0.081903419582 0.079096009126 0.07698372845 0.075593780947 0.074914010599 0.074897567229 0.075451981047 0.076380254002 0.077526764859 
0.078784850868 0.080119921765 0.081554555138 0.083112592168 0.084777959775 0.086534512011 0.088406382401 0.090411189278 0.09247284125 
0.09453716351 0.096589160389 0.098618903677 0.10063263471 0.10269126445 0.10494435215 0.10762337641 0.11098053842 0.11520299469 
0.12034757048 0.12631731794 0.1328793773 0.13971068506 0.14645244663 0.15275955035 0.15833818282 0.16296930226 0.1665195245 
0.16894680807 0.17032094562 0.17091878143 0.17107959532 0.17062139496 0.16944377249 0.16762791454 0.16529734652 0.16256743582 
0.15951967939 0.15618937029 0.15256519649 0.14859883504 0.14422080235 0.13935736665 0.13394375276 0.12793193094 0.1212950487 
0.11403199613 0.10617381158 0.09779047068 0.088994527812 0.079938212416 0.070802439389 0.061778669509 0.053046950438 0.044755629359 
0.037009568705 0.029872115976 0.023380033629 0.017563701864 0.012463388551 0.0081364209869 0.0046548226768 0.0020957439289 0.00052820594508 
3.469446952e-18 
