# vtk DataFile Version 5.1
vtk output
ASCII
DATASET POLYDATA
POINTS 100 float
0.084148 -0.0504758 0.656861 0.0842984 -0.0503377 0.656563 0.084678 -0.0500594 0.655855 
0.0852433 -0.0496564 0.654762 0.085927 -0.0491528 0.653316 0.0866463 -0.0485768 0.651551 
0.0873116 -0.0479572 0.649491 0.0878362 -0.047318 0.647145 0.0881452 -0.0466752 0.644498 
0.0881818 -0.0460332 0.641507 0.0879111 -0.0453837 0.638101 0.087321 -0.044706 0.634187 
0.086419 -0.0439689 0.629656 0.0852276 -0.0431349 0.624394 0.083777 -0.0421642 0.618296 
0.0820974 -0.0410205 0.611279 0.0802121 -0.0396761 0.603287 0.078132 -0.0381157 0.594307 
0.0758522 -0.0363401 0.584365 0.073352 -0.0343667 0.573525 0.0705974 -0.0322293 0.561888 
0.0675455 -0.0299752 0.549574 0.0641513 -0.0276615 0.536715 0.0603744 -0.0253497 0.52344 
0.0561851 -0.0231004 0.509861 0.0515698 -0.0209681 0.496066 0.0465329 -0.0189969 0.48211 
0.0410967 -0.0172176 0.468014 0.0352992 -0.0156468 0.453769 0.0291888 -0.0142872 0.439339 
0.0228185 -0.0131306 0.424674 0.0162395 -0.0121608 0.409717 0.0094961 -0.0113593 0.394414 
0.00262207 -0.0107087 0.378722 -0.0043601 -0.0101978 0.362615 -0.0114371 -0.00982445 0.346085 
-0.0186003 -0.00959673 0.329136 -0.0258385 -0.00953324 0.311783 -0.0331303 -0.00966089 0.294044 
-0.0404362 -0.0100115 0.275929 -0.0476925 -0.0106173 0.257437 -0.0548074 -0.0115056 0.23855 
-0.0616618 -0.0126943 0.219234 -0.0681122 -0.0141877 0.199437 -0.0739999 -0.0159737 0.179102 
-0.079161 -0.0180229 0.158174 -0.0834401 -0.0202899 0.136609 -0.0867039 -0.0227159 0.114387 
-0.0888538 -0.0252331 0.091524 -0.0898352 -0.0277704 0.0680702 -0.089644 -0.0302591 0.0441171 
-0.0883267 -0.0326382 0.0197913 -0.0859764 -0.0348596 -0.00475492 -0.082724 -0.0368902 -0.0293558 
-0.0787247 -0.0387138 -0.0538478 -0.0741432 -0.0403293 -0.078085 -0.0691382 -0.041748 -0.101953 
-0.0638474 -0.0429891 -0.125378 -0.0583762 -0.0440734 -0.148332 -0.0527908 -0.0450172 -0.170834 
-0.0471155 -0.0458267 -0.192938 -0.041336 -0.0464925 -0.214721 -0.0354068 -0.046987 -0.23627 
-0.0292621 -0.0472631 -0.257662 -0.0228293 -0.0472554 -0.278947 -0.0160417 -0.0468838 -0.300136 
-0.00885086 -0.0460593 -0.321193 -0.00123554 -0.0446911 -0.342034 0.00679328 -0.0426946 -0.362532 
0.0151916 -0.0399994 -0.38253 0.0238857 -0.0365573 -0.401858 0.0327794 -0.0323478 -0.420356 
0.0417632 -0.0273824 -0.437886 0.0507246 -0.0217067 -0.454358 0.0595581 -0.0153991 -0.469733 
0.0681724 -0.00856773 -0.484035 0.076496 -0.00134531 -0.497341 0.0844786 0.0061184 -0.509777 
0.092089 0.0136646 -0.521494 0.0993109 0.0211341 -0.532651 0.106136 0.028376 -0.543392 
0.112557 0.0352546 -0.553824 0.11856 0.0416561 -0.564002 0.124125 0.0474925 -0.573919 
0.129215 0.0527041 -0.583507 0.133787 0.0572596 -0.592643 0.137791 0.0611551 -0.601167 
0.14118 0.0644106 -0.608904 0.143916 0.067066 -0.615684 0.145981 0.0691763 -0.621374 
0.147385 0.0708066 -0.625894 0.148169 0.0720268 -0.629234 0.148407 0.0729074 -0.631459 
0.148203 0.0735155 -0.632706 0.147686 0.0739121 -0.633171 0.146998 0.07415 -0.633088 
0.146279 0.0742726 -0.632703 0.14566 0.0743132 -0.632246 0.145243 0.0742952 -0.631905 
0.145095 0.0742317 -0.6318 
LINES 2 100
OFFSETS vtktypeint64
0 100 
CONNECTIVITY vtktypeint64
0 1 2 3 4 5 6 7 8 
9 10 11 12 13 14 15 16 17 
18 19 20 21 22 23 24 25 26 
27 28 29 30 31 32 33 34 35 
36 37 38 39 40 41 42 43 44 
45 46 47 48 49 50 51 52 53 
54 55 56 57 58 59 60 61 62 
63 64 65 66 67 68 69 70 71 
72 73 74 75 76 77 78 79 80 
81 82 83 84 85 86 87 88 89 
90 91 92 93 94 95 96 97 98 
99 
POINT_DATA 100
FIELD FieldData 3
_theta 1 100 double
0 0.031733259127 0.063466518254 0.095199777382 0.12693303651 0.15866629564 0.19039955476 0.22213281389 0.25386607302 
0.28559933214 0.31733259127 0.3490658504 0.38079910953 0.41253236865 0.44426562778 0.47599888691 0.50773214603 0.53946540516 
0.57119866429 0.60293192342 0.63466518254 0.66639844167 0.6981317008 0.72986495992 0.76159821905 0.79333147818 0.82506473731 
0.85679799643 0.88853125556 0.92026451469 0.95199777382 0.98373103294 1.0154642921 1.0471975512 1.0789308103 1.1106640695 
1.1423973286 1.1741305877 1.2058638468 1.237597106 1.2693303651 1.3010636242 1.3327968833 1.3645301425 1.3962634016 
1.4279966607 1.4597299198 1.491463179 1.5231964381 1.5549296972 1.5866629564 1.6183962155 1.6501294746 1.6818627337 
1.7135959929 1.745329252 1.7770625111 1.8087957702 1.8405290294 1.8722622885 1.9039955476 1.9357288068 1.9674620659 
1.999195325 2.0309285841 2.0626618433 2.0943951024 2.1261283615 2.1578616206 2.1895948798 2.2213281389 2.253061398 
2.2847946572 2.3165279163 2.3482611754 2.3799944345 2.4117276937 2.4434609528 2.4751942119 2.506927471 2.5386607302 
2.5703939893 2.6021272484 2.6338605076 2.6655937667 2.6973270258 2.7290602849 2.7607935441 2.7925268032 2.8242600623 
2.8559933214 2.8877265806 2.9194598397 2.9511930988 2.982926358 3.0146596171 3.0463928762 3.0781261353 3.1098593945 
3.1415926536 
_radius 1 100 double
1.000188063e-15 0.013414293953 0.02679875557 0.040129760237 0.053383789753 0.066537301739 0.079566304804 0.092445246703 0.10514488682 
0.11762913648 0.12985133651 0.14175090982 0.15325156402 0.1642620921 0.1746803353 0.18440016374 0.19332060954 0.20135576926 
0.20844391672 0.21455445079 0.21969175048 0.22389557294 0.22723816448 0.22981864498 0.23175539879 0.23317715516 0.23421326203 
0.23498353257 0.23558815152 0.23609849691 0.23655015365 0.2369395234 0.23722504834 0.23733324786 0.23716884633 0.23662758272 
0.23561000417 0.23403463042 0.23184920343 0.22903915113 0.22563275849 0.22170276447 0.21736417703 0.21276809437 0.20809138506 
0.20352239733 0.19924361247 0.19541335969 0.19215001676 0.18952264978 0.18755079512 0.18621297132 0.18546000815 0.18522754512 
0.18544314986 0.18602677876 0.18688713144 0.1879190074 0.18900642878 0.19003285881 0.19089562237 0.19151964595 0.19186660553 
0.19193789003 0.19177175535 0.19143606737 0.19101828256 0.19061414224 0.19031624458 0.19020337503 0.19033127265 0.19072536337 
0.19137587129 0.19223562533 0.19322077346 0.19421441756 0.19507286056 0.19563382449 0.19572581271 0.19517781591 0.19382873297 
0.19153606343 0.18818353213 0.18368730981 0.17800044618 0.17111511326 0.16306232871 0.15390901312 0.14375250685 0.13271297706 
0.12092442358 0.10852519069 0.095648975773 0.082417272061 0.068933984143 0.055282629858 0.041526143175 0.027708914059 0.013860450649 
7.7545394113e-16 
_area 1 100 double
0 0.0005248683066 0.0020917019051 0.0046779312351 0.0082480440315 0.012755644607 0.018144840947 0.02435068071 0.031299126536 
0.038907434184 0.047085324643 0.055735882087 0.064753408187 0.074015969452 0.083375264675 0.092652087896 0.10164448258 0.11014803221 
0.11798171262 0.125011841 0.13116833429 0.13644953353 0.14091445749 0.1446651677 0.14782566291 0.15052404835 0.15288048688 
0.15499888539 0.1569597789 0.15881392856 0.16057723503 0.1622274535 0.16370315751 0.16490557971 0.16570410359 0.16594646347 
0.16547488574 0.16414841898 0.16186913548 0.15860696917 0.15441648009 0.14944002504 0.14389614122 0.13805713887 0.13222033393 
0.12667340659 0.12165401473 0.11730863809 0.11366451969 0.11067318176 0.10830639818 0.1063996622 0.10479308066 0.1033372581 
0.10200071175 0.10080298737 0.099784695723 0.098969668976 0.098340797625 0.097836790636 0.097364120284 0.096815506239 0.09609313135 
0.095138183658 0.093951579919 0.092592919809 0.09116749335 0.089810566142 0.088650531028 0.087877743879 0.087537522311 0.087669854994 
0.088246809501 0.08920800132 0.090454022798 0.091850493293 0.093238030764 0.094443901321 0.095292260483 0.095610079246 0.095228934265 
0.093987436636 0.091740898751 0.088380695189 0.083858648948 0.078207642436 0.071550576054 0.064093940476 0.05610719346 0.047893016958 
0.03975533406 0.031971537531 0.024773319348 0.018337758423 0.012787841317 0.0081999367126 0.004615066688 0.0020509637267 0.00051261622373 
4.3581641118e-17 
