# vtk DataFile Version 5.1
vtk output
ASCII
DATASET POLYDATA
POINTS 100 float
0.137487 -0.00672691 -0.632888 0.13722 -0.00678104 -0.632267 0.136469 -0.0070239 -0.630502 
0.135253 -0.00741484 -0.627623 0.133596 -0.00789497 -0.623679 0.131528 -0.00839723 -0.618733 
0.129077 -0.00885807 -0.612858 0.126264 -0.00922923 -0.60613 0.123101 -0.00948776 -0.598627 
0.119588 -0.00964266 -0.590421 0.115708 -0.00973718 -0.581577 0.111433 -0.00984614 -0.572151 
0.106726 -0.0100686 -0.562187 0.101541 -0.0105165 -0.551719 0.0958353 -0.0113012 -0.540772 
0.0895748 -0.0125186 -0.529367 0.0827383 -0.0142364 -0.517516 0.0753249 -0.0164832 -0.505234 
0.0673575 -0.0192429 -0.492532 0.058884 -0.022454 -0.479427 0.0499768 -0.0260134 -0.465933 
0.0407283 -0.0297861 -0.452069 0.0312461 -0.0336179 -0.437852 0.0216443 -0.0373503 -0.423296 
0.0120363 -0.040835 -0.408415 0.00252527 -0.0439481 -0.393211 -0.0068023 -0.0465992 -0.37768 
-0.0158826 -0.0487373 -0.36181 -0.0246776 -0.0503515 -0.345575 -0.0331747 -0.0514667 -0.328941 
-0.0413844 -0.0521353 -0.311863 -0.0493346 -0.0524264 -0.29429 -0.0570628 -0.0524134 -0.276166 
-0.0646068 -0.0521622 -0.257435 -0.0719955 -0.0517223 -0.238042 -0.0792395 -0.0511199 -0.217939 
-0.0863245 -0.0503564 -0.197087 -0.0932055 -0.04941 -0.175462 -0.0998056 -0.0482418 -0.153059 
-0.106017 -0.0468042 -0.12989 -0.111706 -0.0450511 -0.105994 -0.11672 -0.0429474 -0.0814324 
-0.120899 -0.0404778 -0.0562937 -0.124085 -0.0376525 -0.0306922 -0.126134 -0.0345094 -0.00476691 
-0.126928 -0.0311124 0.0213214 -0.126382 -0.0275474 0.0473945 -0.124455 -0.0239139 0.0732624 
-0.121149 -0.0203168 0.0987309 -0.116512 -0.0168569 0.123609 -0.110637 -0.0136227 0.14772 
-0.103651 -0.0106843 0.170905 -0.0957124 -0.00809026 0.193039 -0.0869976 -0.00586717 0.214032 
-0.0776918 -0.00402251 0.233835 -0.0679781 -0.00254932 0.252444 -0.0580278 -0.00143232 0.269898 
-0.0479926 -0.000654091 0.286277 -0.0379988 -0.000200238 0.301693 -0.0281438 -6.27428e-05 0.316284 
-0.0184957 -0.000240812 0.330202 -0.00909472 -0.000739173 0.3436 4.33073e-05 -0.0015641 0.356626 
0.00892134 -0.00271792 0.369406 0.0175552 -0.00419294 0.382044 0.0259673 -0.00596605 0.394611 
0.0341799 -0.00799494 0.407145 0.0422105 -0.0102169 0.419657 0.0500673 -0.0125507 0.432127 
0.0577464 -0.0149014 0.444521 0.0652313 -0.0171679 0.456791 0.0724928 -0.019252 0.468886 
0.0794911 -0.0210685 0.480762 0.0861786 -0.0225535 0.492385 0.0925035 -0.0236718 0.503736 
0.098414 -0.02442 0.514809 0.103862 -0.0248269 0.525612 0.108806 -0.0249491 0.53616 
0.113216 -0.0248634 0.546467 0.117073 -0.0246569 0.556544 0.120372 -0.0244159 0.566386 
0.123122 -0.0242142 0.575968 0.125345 -0.024104 0.585247 0.127072 -0.0241098 0.594153 
0.128348 -0.0242255 0.602603 0.129222 -0.024417 0.610499 0.129748 -0.0246276 0.617739 
0.129983 -0.0247874 0.624231 0.129983 -0.0248247 0.629901 0.129803 -0.0246778 0.6347 
0.129493 -0.0243052 0.638617 0.129098 -0.0236939 0.641677 0.12866 -0.0228632 0.643947 
0.128212 -0.0218647 0.645524 0.127785 -0.0207767 0.646534 0.1274 -0.0196965 0.647114 
0.127077 -0.0187282 0.647405 0.12683 -0.0179703 0.647534 0.126668 -0.0175036 0.6476 
0.126599 -0.0173808 0.647668 
LINES 2 100
OFFSETS vtktypeint64
0 100 
CONNECTIVITY vtktypeint64
0 1 2 3 4 5 6 7 8 
9 10 11 12 13 14 15 16 17 
18 19 20 21 22 23 24 25 26 
27 28 29 30 31 32 33 34 35 
36 37 38 39 40 41 42 43 44 
45 46 47 48 49 50 51 52 53 
54 55 56 57 58 59 60 61 62 
63 64 65 66 67 68 69 70 71 
72 73 74 75 76 77 78 79 80 
81 82 83 84 85 86 87 88 89 
90 91 92 93 94 95 96 97 98 
99 
POINT_DATA 100
FIELD FieldData 3
_theta 1 100 double
0 0.031733259127 0.063466518254 0.095199777382 0.12693303651 0.15866629564 0.19039955476 0.22213281389 0.25386607302 
0.28559933214 0.31733259127 0.3490658504 0.38079910953 0.41253236865 0.44426562778 0.47599888691 0.50773214603 0.53946540516 
0.57119866429 0.60293192342 0.63466518254 0.66639844167 0.6981317008 0.72986495992 0.76159821905 0.79333147818 0.82506473731 
0.85679799643 0.88853125556 0.92026451469 0.95199777382 0.98373103294 1.0154642921 1.0471975512 1.0789308103 1.1106640695 
1.1423973286 1.1741305877 1.2058638468 1.237597106 1.2693303651 1.3010636242 1.3327968833 1.3645301425 1.3962634016 
1.4279966607 1.4597299198 1.491463179 1.5231964381 1.5549296972 1.5866629564 1.6183962155 1.6501294746 1.6818627337 
1.7135959929 1.745329252 1.7770625111 1.8087957702 1.8405290294 1.8722622885 1.9039955476 1.9357288068 1.9674620659 
1.999195325 2.0309285841 2.0626618433 2.0943951024 2.1261283615 2.1578616206 2.1895948798 2.2213281389 2.253061398 
2.2847946572 2.3165279163 2.3482611754 2.3799944345 2.4117276937 2.4434609528 2.4751942119 2.506927471 2.5386607302 
2.5703939893 2.6021272484 2.6338605076 2.6655937667 2.6973270258 2.7290602849 2.7607935441 2.7925268032 2.8242600623 
2.8559933214 2.8877265806 2.9194598397 2.9511930988 2.982926358 3.0146596171 3.0463928762 3.0781261353 3.1098593945 
3.1415926536 
_radius 1 100 double
1.2291063655e-15 0.013560262624 0.026941425289 0.039980082615 0.052545579721 0.064546982478 0.075931163332 0.086673069962 0.096761528318 
0.10618532515 0.11492417665 0.1229473952 0.13022025566 0.136715391 0.14242505211 0.14737014284 0.15160330009 0.15520526001 
0.1582756353 0.1609204983 0.16323956432 0.16531534274 0.16720568658 0.16894017284 0.17052006326 0.17192135372 0.1731004717 
0.17400223444 0.17456950718 0.17475358332 0.17452385135 0.17387510935 0.1728311411 0.17144388676 0.16978854269 0.16795590608 
0.16604391897 0.16415041675 0.16236848805 0.16078480046 0.15948014281 0.15853071901 0.15800866262 0.15798082983 0.158505934 
0.15963107448 0.16138913315 0.16379799039 0.16686124811 0.17056896874 0.17489672863 0.17980224486 0.18522032898 0.19105802736 
0.1971920182 0.20346980115 0.20971540829 0.21573960529 0.22135383851 0.22638641888 0.23069869467 0.23419852389 0.23684847122 
0.23866688672 0.23972122973 0.24011442926 0.23996644614 0.23939424371 0.23849379737 0.23732734221 0.23591774623 0.23425005917 
0.2322786141 0.22993721533 0.2271501481 0.22384263941 0.21995032633 0.21542768811 0.21025511906 0.20444366679 0.19803599856 
0.19110234969 0.18373114056 0.17601530706 0.16803665556 0.15985126678 0.15147890784 0.14289860805 0.13405125074 0.12484858192 
0.11518681872 0.10496237825 0.094087266566 0.082502219862 0.070186440852 0.057163401637 0.043502551306 0.029316933892 0.014756857091 
2.7923621554e-16 
_area 1 100 double
0 0.00032056774017 0.0012897197935 0.0029261483106 0.0052498220111 0.0082683873732 0.011963396561 0.016279444594 0.021118245168 
0.026338737338 0.031763784259 0.037193488807 0.042424086351 0.04726981949 0.051583846643 0.055273945752 0.058309950297 0.060722127452 
0.062592077381 0.064039120572 0.065205161278 0.066240763343 0.067299971614 0.068561563295 0.070078410975 0.071668937122 0.073238411772 
0.074653358133 0.075779825065 0.07650720413 0.076757798843 0.076519045462 0.075855512245 0.074886257588 0.073747055548 0.072570362428 
0.071475223307 0.070558477528 0.069889932083 0.069512972201 0.069449425828 0.069706642627 0.07028481307 0.071183247307 0.072403962767 
0.073951439261 0.075832382109 0.078062651017 0.080681957108 0.083765438361 0.0874156373 0.091729859913 0.096764192612 0.10251545591 
0.10891840369 0.11584624293 0.12310692999 0.1304395724 0.13752387931 0.1440094058 0.14955912234 0.15389659752 0.15684638236 
0.15835902156 0.15851514997 0.15750682618 0.15559800493 0.15307127698 0.15017532684 0.14708960255 0.14391226474 0.14066518987 
0.13730864207 0.13376327548 0.12993726968 0.12575114877 0.1211522538 0.11611801851 0.11065375605 0.10479097065 0.098587657653 
0.092126999894 0.08550973609 0.078839202459 0.072203292392 0.06566033071 0.059234377734 0.052921136186 0.046701853437 0.040561289764 
0.034505702724 0.028576593447 0.022856492624 0.017465252804 0.012548325993 0.008260675468 0.0047503875132 0.0021449407372 0.00054135174887 
4.3368086899e-18 
