# vtk DataFile Version 5.1
vtk output
ASCII
DATASET POLYDATA
POINTS 100 float
0.142846 -0.0208968 0.731487 0.142785 -0.0208535 0.731374 0.142646 -0.0206056 0.730826 
0.14241 -0.020195 0.729802 0.14205 -0.019687 0.728241 0.141537 -0.0191625 0.726071 
0.140843 -0.0187075 0.723218 0.139953 -0.0184027 0.719618 0.138863 -0.0183135 0.715224 
0.137583 -0.0184819 0.710012 0.13614 -0.0189209 0.703989 0.13457 -0.0196125 0.697193 
0.132911 -0.0205099 0.689684 0.131198 -0.0215416 0.681548 0.129452 -0.0226197 0.672875 
0.127672 -0.0236488 0.663759 0.125834 -0.0245357 0.654282 0.123884 -0.0251987 0.644504 
0.121743 -0.0255745 0.634458 0.119314 -0.0256236 0.624143 0.116492 -0.0253316 0.613527 
0.113174 -0.0247082 0.60255 0.109273 -0.0237838 0.591134 0.104731 -0.0226033 0.579189 
0.0995259 -0.0212196 0.566628 0.0936755 -0.0196869 0.55338 0.0872398 -0.0180546 0.539398 
0.0803136 -0.0163634 0.524669 0.0730165 -0.0146434 0.509214 0.0654792 -0.0129139 0.493092 
0.0578279 -0.0111866 0.47639 0.0501693 -0.00946899 0.459218 0.0425778 -0.00777002 0.441691 
0.0350871 -0.00610458 0.423921 0.027688 -0.00449796 0.405996 0.0203317 -0.00298843 0.387974 
0.0129398 -0.0016279 0.369871 0.00541945 -0.000480277 0.351654 -0.0023191 0.000382179 0.333249 
-0.010343 0.00088424 0.314538 -0.0186796 0.000954059 0.295375 -0.0273025 0.000529726 0.275602 
-0.0361247 -0.000434797 0.255063 -0.0449975 -0.00196511 0.233621 -0.0537183 -0.00406373 0.211175 
-0.0620447 -0.00670961 0.187675 -0.0697143 -0.00985987 0.163125 -0.0764679 -0.0134534 0.137588 
-0.0820735 -0.0174158 0.111183 -0.0863477 -0.021665 0.0840753 -0.0891732 -0.0261166 0.0564599 
-0.0905086 -0.0306888 0.0285485 -0.090391 -0.0353051 0.000549565 -0.08893 -0.0398967 -0.0273485 
-0.0862942 -0.0444016 -0.054992 -0.0826919 -0.0487634 -0.0822714 -0.0783484 -0.052928 -0.109127 
-0.0734822 -0.0568407 -0.135546 -0.0682832 -0.0604428 -0.161558 -0.0628957 -0.0636693 -0.187223 
-0.0574068 -0.0664481 -0.212612 -0.0518436 -0.0687003 -0.237798 -0.0461767 -0.0703431 -0.262835 
-0.0403312 -0.0712932 -0.287746 -0.0342027 -0.0714726 -0.312515 -0.0276763 -0.0708136 -0.337081 
-0.0206465 -0.0692649 -0.361339 -0.0130352 -0.0667959 -0.38515 -0.00480532 -0.0634004 -0.408353 
0.00403016 -0.059098 -0.430775 0.0134062 -0.0539337 -0.452254 0.0232093 -0.0479756 -0.472652 
0.0332871 -0.0413111 -0.49187 0.0434611 -0.0340414 -0.509855 0.0535428 -0.0262762 -0.52661 
0.0633487 -0.018128 -0.542187 0.0727149 -0.00970693 -0.556684 0.0815076 -0.00111702 -0.570232 
0.0896301 0.00754637 -0.58298 0.0970248 0.0161977 -0.595079 0.103671 0.0247613 -0.606662 
0.109581 0.0331701 -0.617837 0.114789 0.0413639 -0.62867 0.119345 0.049288 -0.639181 
0.123305 0.0568914 -0.649347 0.126725 0.0641262 -0.659104 0.129654 0.0709473 -0.668358 
0.132136 0.0773137 -0.677002 0.134206 0.0831889 -0.684923 0.135894 0.0885438 -0.692027 
0.137229 0.0933572 -0.698242 0.13824 0.0976177 -0.703533 0.138964 0.101324 -0.707906 
0.139441 0.104485 -0.711401 0.139719 0.107117 -0.714096 0.13985 0.109242 -0.716088 
0.139885 0.110884 -0.717485 0.139871 0.112068 -0.71839 0.139847 0.112811 -0.718888 
0.139836 0.113127 -0.719036 
LINES 2 100
OFFSETS vtktypeint64
0 100 
CONNECTIVITY vtktypeint64
0 1 2 3 4 5 6 7 8 
9 10 11 12 13 14 15 16 17 
18 19 20 21 22 23 24 25 26 
27 28 29 30 31 32 33 34 35 
36 37 38 39 40 41 42 43 44 
45 46 47 48 49 50 51 52 53 
54 55 56 57 58 59 60 61 62 
63 64 65 66 67 68 69 70 71 
72 73 74 75 76 77 78 79 80 
81 82 83 84 85 86 87 88 89 
90 91 92 93 94 95 96 97 98 
99 
POINT_DATA 100
FIELD FieldData 3
_theta 1 100 double
0 0.031733259127 0.063466518254 0.095199777382 0.12693303651 0.15866629564 0.19039955476 0.22213281389 0.25386607302 
0.28559933214 0.31733259127 0.3490658504 0.38079910953 0.41253236865 0.44426562778 0.47599888691 0.50773214603 0.53946540516 
0.57119866429 0.60293192342 0.63466518254 0.66639844167 0.6981317008 0.72986495992 0.76159821905 0.79333147818 0.82506473731 
0.85679799643 0.88853125556 0.92026451469 0.95199777382 0.98373103294 1.0154642921 1.0471975512 1.0789308103 1.1106640695 
1.1423973286 1.1741305877 1.2058638468 1.237597106 1.2693303651 1.3010636242 1.3327968833 1.3645301425 1.3962634016 
1.4279966607 1.4597299198 1.491463179 1.5231964381 1.5549296972 1.5866629564 1.6183962155 1.6501294746 1.6818627337 
1.7135959929 1.745329252 1.7770625111 1.8087957702 1.8405290294 1.8722622885 1.9039955476 1.9357288068 1.9674620659 
1.999195325 2.0309285841 2.0626618433 2.0943951024 2.1261283615 2.1578616206 2.1895948798 2.2213281389 2.253061398 
2.2847946572 2.3165279163 2.3482611754 2.3799944345 2.4117276937 2.4434609528 2.4751942119 2.506927471 2.5386607302 
2.5703939893 2.6021272484 2.6338605076 2.6655937667 2.6973270258 2.7290602849 2.7607935441 2.7925268032 2.8242600623 
2.8559933214 2.8877265806 2.9194598397 2.9511930988 2.982926358 3.0146596171 3.0463928762 3.0781261353 3.1098593945 
3.1415926536 
_radius 1 100 double
1.7785780651e-16 0.017808355068 0.035350683313 0.052384717325 0.068716823572 0.084219128071 0.098838922895 0.1125992414 0.12559049945 
0.13795409185 0.14985970308 0.16147879863 0.1729573425 0.18439127641 0.19580855312 0.20716109279 0.21832849826 0.22913296501 
0.23936255915 0.24879881488 0.25724450833 0.26454802253 0.27062149175 0.2754507451 0.27909596923 0.28168301659 0.28338638287 
0.28440596696 0.28494063449 0.2851621376 0.28519296358 0.28509116397 0.28484423444 0.28437284011 0.28354384124 0.28219089749 
0.28014006389 0.27723729379 0.27337463676 0.26851214462 0.26269300908 0.25605012325 0.24880294269 0.24124415103 0.23371629557 
0.22657951003 0.22017300646 0.21477527715 0.21057029318 0.20762787003 0.20590387449 0.20525973829 0.20549382877 0.20637413588 
0.20766409508 0.20913873391 0.21059324324 0.21184853958 0.21275793978 0.21321636905 0.2131702757 0.212624571 0.2116432044 
0.21034172782 0.20887231606 0.20740357003 0.20609874507 0.20509638435 0.20449624906 0.20435132248 0.20466486548 0.20539097405 
0.2064376162 0.20767196154 0.20892839948 0.21001966409 0.21075083712 0.21093489257 0.21040743485 0.20903799159 0.20673591525 
0.2034503412 0.19916512622 0.19389068361 0.18765487503 0.18049467813 0.1724495386 0.16355654973 0.15384720567 0.14334553109 
0.13206773385 0.1200238537 0.1072218958 0.093674507903 0.079407482741 0.064468550321 0.048934437929 0.032914267552 0.016548038796 
4.6718426161e-16 
_area 1 100 double
0 0.00079622094939 0.0031305949495 0.0068486474267 0.011719597758 0.017472003265 0.023835458506 0.030581465664 0.037556552372 
0.044701908207 0.052056062628 0.059739851472 0.067925176214 0.076790703512 0.086470387188 0.097005250772 0.10831120118 0.12017157846 
0.13225556822 0.14415817106 0.15545502468 0.16576364641 0.17480063755 0.18242315615 0.18864412479 0.19361551858 0.19758289266 
0.20082401691 0.20358909697 0.20605652675 0.20831021823 0.21033792246 0.21204605753 0.21328376055 0.21386935151 0.2136618744 
0.21264495483 0.21054794491 0.20682844705 0.20125472798 0.1938221911 0.18474715146 0.17444414371 0.16348085488 0.15251726929 
0.14223864333 0.13328435656 0.12616542151 0.12116110743 0.11821413346 0.116915623 0.11666015017 0.11687032607 0.11712881745 
0.11719428078 0.11695677688 0.11642204648 0.11559131185 0.11443603692 0.11298353347 0.111129078 0.10880279053 0.10600134523 
0.10281249518 0.099410495822 0.09602024183 0.09287628894 0.090195493562 0.088161186288 0.0869015466 0.086455201436 0.086757648983 
0.087694267692 0.089171540819 0.091007958635 0.093054024045 0.094996774117 0.096395772145 0.097065929203 0.096902519997 0.095867240552 
0.093971008721 0.091249810314 0.087743177844 0.083483484745 0.078498248408 0.072822012468 0.066511430864 0.059657307631 0.052389722479 
0.044875527629 0.037310092082 0.029906451662 0.022884836132 0.016464145525 0.010855007207 0.0062526120532 0.0028275481301 0.00071440337409 
8.4141359956e-17 
