# vtk DataFile Version 5.1
vtk output
ASCII
DATASET POLYDATA
POINTS 100 float
0.065826 -0.025201 0.69295 0.065817 -0.0250529 0.692827 0.0657289 -0.0247487 0.6926 
0.0655604 -0.0243143 0.692225 0.0653103 -0.0237901 0.691627 0.0649776 -0.0232268 0.690712 
0.0645619 -0.0226814 0.689371 0.0640636 -0.0222114 0.687489 0.0634831 -0.0218695 0.684954 
0.0628205 -0.0216993 0.681665 0.0620733 -0.0217307 0.677538 0.061235 -0.0219777 0.672512 
0.0602927 -0.022437 0.666552 0.0592253 -0.0230885 0.659651 0.0580017 -0.0238971 0.651824 
0.0565807 -0.0248154 0.643106 0.0549114 -0.0257878 0.633551 0.0529353 -0.026755 0.623217 
0.0505894 -0.0276581 0.612167 0.047811 -0.0284425 0.600459 0.0445426 -0.029062 0.588145 
0.0407374 -0.0294802 0.575267 0.0363637 -0.0296723 0.561854 0.0314092 -0.029625 0.547931 
0.0258828 -0.0293358 0.533518 0.0198144 -0.028811 0.518636 0.0132531 -0.0280637 0.503315 
0.00626243 -0.0271115 0.487595 -0.0010851 -0.0259736 0.471532 -0.00871533 -0.02467 0.455198 
-0.0165595 -0.0232194 0.438675 -0.0245606 -0.0216393 0.422056 -0.0326781 -0.0199461 0.405428 
-0.0408908 -0.0181565 0.388865 -0.0491954 -0.0162888 0.372419 -0.0576039 -0.0143649 0.356102 
-0.0661365 -0.0124122 0.339881 -0.0748133 -0.0104651 0.323672 -0.0836444 -0.00856574 0.307338 
-0.0926198 -0.00676467 0.290696 -0.1017 -0.00511965 0.273525 -0.11081 -0.00369425 0.255585 
-0.119835 -0.00255532 0.236635 -0.128623 -0.00176979 0.216458 -0.136986 -0.00140108 0.194878 
-0.144714 -0.00150533 0.171784 -0.151583 -0.00212774 0.147144 -0.157375 -0.0032994 0.121013 
-0.161891 -0.00503468 0.0935325 -0.164965 -0.0073296 0.0649257 -0.166483 -0.010161 0.0354782 
-0.166388 -0.0134869 0.00551851 -0.164688 -0.0172472 -0.0246086 -0.161456 -0.0213661 -0.0545701 
-0.156826 -0.0257542 -0.0840705 -0.150979 -0.0303118 -0.112874 -0.144134 -0.0349314 -0.140822 
-0.136528 -0.0395019 -0.167835 -0.128399 -0.0439107 -0.193917 -0.119969 -0.0480477 -0.219141 
-0.111427 -0.0518073 -0.243635 -0.102918 -0.0550915 -0.267555 -0.0945353 -0.0578119 -0.291062 
-0.0863199 -0.0598923 -0.314301 -0.0782602 -0.0612701 -0.337375 -0.0703011 -0.061899 -0.360333 
-0.0623551 -0.0617498 -0.383166 -0.0543159 -0.060812 -0.405804 -0.046073 -0.0590949 -0.428132 
-0.0375269 -0.0566279 -0.449998 -0.0286017 -0.0534601 -0.471242 -0.019255 -0.0496593 -0.491712 
-0.00948489 -0.0453103 -0.511286 0.000667899 -0.040512 -0.529888 0.0111215 -0.0353735 -0.547493 
0.0217584 -0.0300106 -0.564133 0.0324334 -0.0245404 -0.579886 0.0429842 -0.0190765 -0.594861 
0.0532431 -0.0137244 -0.609183 0.0630478 -0.00857721 -0.622962 0.0722522 -0.00371171 -0.636281 
0.0807345 0.000813719 -0.64917 0.0884037 0.00496049 -0.661601 0.095203 0.00870968 -0.673481 
0.10111 0.0120606 -0.684661 0.106135 0.015028 -0.694948 0.110319 0.017639 -0.704132 
0.113723 0.0199284 -0.712011 0.116427 0.0219349 -0.71842 0.118523 0.0236966 -0.723254 
0.120105 0.0252477 -0.726496 0.121266 0.0266155 -0.728219 0.122094 0.0278194 -0.728598 
0.122665 0.0288694 -0.727888 0.123047 0.0297679 -0.726414 0.123296 0.0305102 -0.724537 
0.123453 0.0310873 -0.722619 0.123552 0.0314882 -0.720988 0.123612 0.0317027 -0.719908 
0.123647 0.0317233 -0.719546 
LINES 2 100
OFFSETS vtktypeint64
0 100 
CONNECTIVITY vtktypeint64
0 1 2 3 4 5 6 7 8 
9 10 11 12 13 14 15 16 17 
18 19 20 21 22 23 24 25 26 
27 28 29 30 31 32 33 34 35 
36 37 38 39 40 41 42 43 44 
45 46 47 48 49 50 51 52 53 
54 55 56 57 58 59 60 61 62 
63 64 65 66 67 68 69 70 71 
72 73 74 75 76 77 78 79 80 
81 82 83 84 85 86 87 88 89 
90 91 92 93 94 95 96 97 98 
99 
POINT_DATA 100
FIELD FieldData 3
_theta 1 100 double
0 0.031733259127 0.063466518254 0.095199777382 0.12693303651 0.15866629564 0.19039955476 0.22213281389 0.25386607302 
0.28559933214 0.31733259127 0.3490658504 0.38079910953 0.41253236865 0.44426562778 0.47599888691 0.50773214603 0.53946540516 
0.57119866429 0.60293192342 0.63466518254 0.66639844167 0.6981317008 0.72986495992 0.76159821905 0.79333147818 0.82506473731 
0.85679799643 0.88853125556 0.92026451469 0.95199777382 0.98373103294 1.0154642921 1.0471975512 1.0789308103 1.1106640695 
1.1423973286 1.1741305877 1.2058638468 1.237597106 1.2693303651 1.3010636242 1.3327968833 1.3645301425 1.3962634016 
1.4279966607 1.4597299198 1.491463179 1.5231964381 1.5549296972 1.5866629564 1.6183962155 1.6501294746 1.6818627337 
1.7135959929 1.745329252 1.7770625111 1.8087957702 1.8405290294 1.8722622885 1.9039955476 1.9357288068 1.9674620659 
1.999195325 2.0309285841 2.0626618433 2.0943951024 2.1261283615 2.1578616206 2.1895948798 2.2213281389 2.253061398 
2.2847946572 2.3165279163 2.3482611754 2.3799944345 2.4117276937 2.4434609528 2.4751942119 2.506927471 2.5386607302 
2.5703939893 2.6021272484 2.6338605076 2.6655937667 2.6973270258 2.7290602849 2.7607935441 2.7925268032 2.8242600623 
2.8559933214 2.8877265806 2.9194598397 2.9511930988 2.982926358 3.0146596171 3.0463928762 3.0781261353 3.1098593945 
3.1415926536 
_radius 1 100 double
6.6703670469e-16 0.015377132709 0.030647570183 0.045714610142 0.060489102807 0.074893113941 0.088863063051 0.10235132743 0.11532531955 
0.12776358692 0.1396493944 0.15096317708 0.16167584022 0.17174491796 0.18111501801 0.18972285005 0.19750576758 0.20441170792 
0.21040821204 0.21548889285 0.21967680176 0.22302495734 0.22561448734 0.22755052041 0.22895560661 0.22996050804 0.23069281989 
0.23126474582 0.23176192873 0.23223520051 0.23269653573 0.23311967438 0.23344506959 0.2335881176 0.2334490842 0.23292296636 
0.23190801484 0.23031271415 0.22806210885 0.22510486155 0.2214219958 0.2170369397 0.21202473013 0.206517008 0.20069963604 
0.19480156345 0.18907611913 0.18377799463 0.17914004739 0.17535376538 0.17255596023 0.17082204268 0.17016380842 0.17052861465 
0.17179827358 0.17378937195 0.17625989734 0.1789272005 0.18149801228 0.18370471176 0.18533830473 0.18627038873 0.18646147379 
0.18595738634 0.18487727746 0.18339642681 0.18172580227 0.18008930293 0.17869946866 0.17773342808 0.1773124289 0.17748893036 
0.17824373129 0.17949268676 0.18110011433 0.18289505634 0.18468707229 0.18627961864 0.18748057097 0.18811037577 0.18800845883 
0.1870381384 0.18508986551 0.18208248171 0.17796241177 0.17270112849 0.16629158099 0.15874439548 0.15008454225 0.14034894246 
0.12958526759 0.11785195154 0.10521911758 0.091769738925 0.077600096194 0.062818725916 0.047543655192 0.031898548481 0.016008980134 
6.8152661735e-16 
_area 1 100 double
0 0.0006030170082 0.0023969014799 0.0053370529037 0.0093518701831 0.014346302379 0.020206534119 0.026806197485 0.034014239237 
0.041703614733 0.049758069909 0.058071491198 0.066534137511 0.075008524689 0.083311138186 0.091217308961 0.098491088126 0.10492740558 
0.11039072921 0.11483825921 0.11832147725 0.12096698523 0.12294575983 0.12444509833 0.1256525485 0.12674726027 0.1278875124 
0.12919588609 0.13076007543 0.1326442203 0.13484321597 0.1371992948 0.13943485841 0.14125620811 0.14243266974 0.1428306588 
0.14246498945 0.14162777833 0.14050626666 0.1389688368 0.13685998546 0.13408294418 0.13052164601 0.12611810954 0.12094582506 
0.11521832575 0.10924382815 0.10337005641 0.097923345019 0.093143055841 0.089139822732 0.08590283754 0.083351300793 0.081392340451 
0.079955533848 0.079002482248 0.078514458629 0.078455024542 0.078722676827 0.079142983132 0.079513306998 0.079663987353 0.079487726382 
0.07894194805 0.07803953783 0.076850207719 0.075514057012 0.074233980493 0.073232192519 0.07269580705 0.072739630656 0.073363167145 
0.074502138757 0.076085847052 0.078088304886 0.08047630361 0.082995806777 0.085390593958 0.087459067533 0.089013544314 0.089863651541 
0.089827716862 0.088755394196 0.086546616905 0.083159876415 0.078612132755 0.072977103524 0.066385583797 0.059025716566 0.051139029148 
0.043009647792 0.034946259826 0.02725804114 0.020227446545 0.014084599531 0.0089893688451 0.0050269570641 0.002219741728 0.00055221533302 
5.2041704279e-18 
