# vtk DataFile Version 5.1
vtk output
ASCII
DATASET POLYDATA
POINTS 100 float
-0.0142614 0.0384293 -0.730691 -0.0142501 0.0382266 -0.72991 -0.0142654 0.0375195 -0.727738 
-0.0143459 0.0363749 -0.724247 -0.0145513 0.0348934 -0.719541 -0.0149564 0.0331949 -0.713751 
-0.0156436 0.0314026 -0.707021 -0.0166948 0.0296255 -0.699488 -0.0181831 0.0279428 -0.691277 
-0.0201658 0.026393 -0.682487 -0.0226795 0.0249668 -0.673181 -0.0257368 0.0236079 -0.66339 
-0.0293258 0.0222188 -0.653112 -0.0334127 0.0206725 -0.642317 -0.0379456 0.0188288 -0.63096 
-0.0428607 0.0165514 -0.618986 -0.0480887 0.0137254 -0.606346 -0.053562 0.0102728 -0.593005 
-0.0592203 0.00616249 -0.578944 -0.0650154 0.00141584 -0.564169 -0.070913 -0.00389453 -0.548707 
-0.0768934 -0.00965139 -0.532604 -0.0829489 -0.0157045 -0.515915 -0.0890798 -0.0218853 -0.4987 
-0.0952885 -0.0280227 -0.481014 -0.101573 -0.0339582 -0.462897 -0.107922 -0.0395581 -0.444373 
-0.114309 -0.0447217 -0.425444 -0.120687 -0.0493843 -0.406096 -0.126991 -0.0535151 -0.386294 
-0.133139 -0.0571112 -0.365998 -0.139032 -0.0601877 -0.345164 -0.144565 -0.0627668 -0.323755 
-0.149631 -0.0648663 -0.301746 -0.15413 -0.0664916 -0.279133 -0.157975 -0.0676293 -0.25593 
-0.161101 -0.0682463 -0.232176 -0.163468 -0.0682931 -0.207931 -0.165059 -0.0677109 -0.183267 
-0.165885 -0.0664415 -0.15827 -0.165974 -0.0644394 -0.13303 -0.165372 -0.061683 -0.107636 
-0.164129 -0.0581837 -0.0821753 -0.162295 -0.0539918 -0.0567299 -0.159911 -0.0491984 -0.0313764 
-0.157003 -0.0439311 -0.00618892 -0.153578 -0.0383465 0.0187588 -0.149626 -0.0326184 0.0433903 
-0.145122 -0.0269237 0.067624 -0.140028 -0.0214278 0.0913729 -0.134306 -0.0162712 0.114546 
-0.127924 -0.0115596 0.137053 -0.120865 -0.00735703 0.158807 -0.113138 -0.00368472 0.179736 
-0.10478 -0.000524499 0.199788 -0.0958638 0.00217337 0.218938 -0.0864903 0.00447922 0.237195 
-0.0767893 0.00647125 0.254599 -0.0669083 0.0082229 0.271224 -0.057002 0.00979185 0.287172 
-0.0472194 0.0112122 0.302562 -0.0376912 0.0124906 0.317518 -0.0285181 0.0136071 0.33216 
-0.0197624 0.0145195 0.346588 -0.0114429 0.0151723 0.360875 -0.00353529 0.0155067 0.375056 
0.00402392 0.0154721 0.389131 0.0113279 0.0150361 0.403064 0.0184873 0.0141932 0.416792 
0.0256155 0.0129686 0.430237 0.0328133 0.0114196 0.443319 0.0401556 0.00963183 0.455971 
0.0476794 0.00771199 0.468151 0.0553777 0.00577821 0.479849 0.0631969 0.00394857 0.491094 
0.0710406 0.00232962 0.501952 0.0787779 0.00100612 0.512515 0.0862561 3.33552e-05 0.522889 
0.0933155 -0.000567435 0.533178 0.0998062 -0.000809773 0.543464 0.105603 -0.00073911 0.553792 
0.110619 -0.000426796 0.564155 0.114813 3.82627e-05 0.574486 0.118195 0.000559233 0.584658 
0.120823 0.00104114 0.594493 0.122797 0.00139974 0.603774 0.124248 0.00156868 0.61227 
0.125323 0.00150423 0.619759 0.126168 0.00118757 0.626051 0.126917 0.000624396 0.63102 
0.127673 -0.000157508 0.634612 0.128507 -0.00111244 0.636865 0.129444 -0.00218193 0.637905 
0.130473 -0.0033002 0.637935 0.131545 -0.00439959 0.637224 0.132588 -0.00541526 0.636076 
0.133517 -0.00628917 0.6348 0.134246 -0.00697311 0.633678 0.134704 -0.00743087 0.632938 
0.134845 -0.00763974 0.632725 
LINES 2 100
OFFSETS vtktypeint64
0 100 
CONNECTIVITY vtktypeint64
0 1 2 3 4 5 6 7 8 
9 10 11 12 13 14 15 16 17 
18 19 20 21 22 23 24 25 26 
27 28 29 30 31 32 33 34 35 
36 37 38 39 40 41 42 43 44 
45 46 47 48 49 50 51 52 53 
54 55 56 57 58 59 60 61 62 
63 64 65 66 67 68 69 70 71 
72 73 74 75 76 77 78 79 80 
81 82 83 84 85 86 87 88 89 
90 91 92 93 94 95 96 97 98 
99 
POINT_DATA 100
FIELD FieldData 3
_theta 1 100 double
0 0.031733259127 0.063466518254 0.095199777382 0.12693303651 0.15866629564 0.19039955476 0.22213281389 0.25386607302 
0.28559933214 0.31733259127 0.3490658504 0.38079910953 0.41253236865 0.44426562778 0.47599888691 0.50773214603 0.53946540516 
0.57119866429 0.60293192342 0.63466518254 0.66639844167 0.6981317008 0.72986495992 0.76159821905 0.79333147818 0.82506473731 
0.85679799643 0.88853125556 0.92026451469 0.95199777382 0.98373103294 1.0154642921 1.0471975512 1.0789308103 1.1106640695 
1.1423973286 1.1741305877 1.2058638468 1.237597106 1.2693303651 1.3010636242 1.3327968833 1.3645301425 1.3962634016 
1.4279966607 1.4597299198 1.491463179 1.5231964381 1.5549296972 1.5866629564 1.6183962155 1.6501294746 1.6818627337 
1.7135959929 1.745329252 1.7770625111 1.8087957702 1.8405290294 1.8722622885 1.9039955476 1.9357288068 1.9674620659 
1.999195325 2.0309285841 2.0626618433 2.0943951024 2.1261283615 2.1578616206 2.1895948798 2.2213281389 2.253061398 
2.2847946572 2.3165279163 2.3482611754 2.3799944345 2.4117276937 2.4434609528 2.4751942119 2.506927471 2.5386607302 
2.5703939893 2.6021272484 2.6338605076 2.6655937667 2.6973270258 2.7290602849 2.7607935441 2.7925268032 2.8242600623 
2.8559933214 2.8877265806 2.9194598397 2.9511930988 2.982926358 3.0146596171 3.0463928762 3.0781261353 3.1098593945 
3.1415926536 
_radius 1 100 double
7.7868991141e-16 0.010940609615 0.021950303262 0.033091361251 0.044403633862 0.055892100406 0.067516130916 0.07918313877 0.090749006513 
0.10202664247 0.11280237225 0.12285792531 0.13199434206 0.1400539021 0.14693712094 0.15261324648 0.15712367216 0.16057794611 
0.16314201161 0.16501874838 0.16642224482 0.16754924913 0.16855306051 0.16952564601 0.17049224916 0.17141945426 0.17223399216 
0.17284715898 0.1731792687 0.17317962901 0.17283923914 0.17219509971 0.17132641494 0.17034401811 0.16937513148 0.16854614722 
0.16796644371 0.16771610802 0.1678394846 0.16834476489 0.16920825804 0.17038155088 0.17180039242 0.17339482343 0.17510012562 
0.17686767772 0.17867421851 0.18052768995 0.18246798955 0.18456168754 0.18689095675 0.18953833183 0.19257008571 0.19602153539 
0.19988704651 0.20411602316 0.20861464264 0.21325235443 0.21787215825 0.22230382644 0.22637914704 0.22994788777 0.23289266108 
0.23514047242 0.23666877132 0.23750449295 0.2377157874 0.23739755006 0.23665308482 0.23557496309 0.23422828515 0.23263914711 
0.23079024901 0.2286243332 0.2260546804 0.22298053074 0.21930443658 0.21494844727 0.20986661208 0.2040522519 0.19753942608 
0.19039878387 0.18272850118 0.1746413642 0.16624940675 0.15764790896 0.14890095475 0.14003091471 0.13101392027 0.12178252022 
0.112235434 0.10225302835 0.091716210166 0.080526003535 0.068621113265 0.055991147643 0.042683782717 0.028804930141 0.014511846543 
1.1323482147e-15 
_area 1 100 double
0 0.000355374457 0.0014380335124 0.0032924935541 0.0059762649554 0.0095371362039 0.013987952316 0.019284989856 0.025314098354 
0.031887244349 0.038752298499 0.045618061343 0.052192053132 0.058222317894 0.063531195127 0.068031813478 0.071725821816 0.074688728941 
0.077051236258 0.078979235349 0.080648183523 0.082208881547 0.083751798309 0.085285329095 0.086740000736 0.087998436148 0.088939666601 
0.089481546557 0.089606797727 0.089365394966 0.088856500638 0.088201348109 0.087518502725 0.086907391566 0.086442299664 0.086175923523 
0.086145292945 0.086373359689 0.086868736269 0.087628491286 0.088643378525 0.089901717913 0.091387834451 0.093073288821 0.094907434252 
0.096819663853 0.098738689955 0.10062295113 0.10249023043 0.10443287328 0.10660827734 0.10920467581 0.11239577791 0.11630356848 
0.12097977442 0.1264020663 0.1324755273 0.13903474565 0.14584753261 0.1526228112 0.15902546332 0.16470242874 0.16932367715 
0.1726339936 0.17450098819 0.17494044431 0.17410567765 0.17224361641 0.16963916192 0.16656856378 0.16326322526 0.15987895876 
0.156474363 0.15300662859 0.14934901196 0.14532676014 0.14076226372 0.1355177132 0.12952491056 0.12279654009 0.11541933344 
0.10753461313 0.09931359432 0.090933381708 0.082556771027 0.074317072083 0.066308883797 0.058586075207 0.051167819771 0.044051889569 
0.037232295159 0.030717090403 0.024542409719 0.0187801024 0.013537802311 0.0089514762731 0.0051715162822 0.002344455236 0.00059330269075 
4.3206713341e-17 
