# vtk DataFile Version 5.1
vtk output
ASCII
DATASET POLYDATA
POINTS 100 float
0.0926694 0.0550686 -0.684658 0.0928041 0.0549286 -0.685234 0.0931517 0.0546693 -0.68682 
0.0937193 0.0542898 -0.689212 0.0945168 0.0537895 -0.692095 0.095553 0.0531679 -0.695069 
0.0968313 0.0524251 -0.697695 0.0983439 0.0515613 -0.699529 0.100067 0.0505761 -0.700166 
0.101956 0.0494676 -0.69927 0.103943 0.0482306 -0.696604 0.105935 0.0468546 -0.692039 
0.107815 0.0453223 -0.685558 0.109445 0.0436081 -0.677244 0.110674 0.0416773 -0.667261 
0.111343 0.0394867 -0.655828 0.111298 0.0369861 -0.643191 0.1104 0.0341219 -0.629591 
0.108533 0.0308412 -0.615244 0.105619 0.0270976 -0.600321 0.101617 0.0228578 -0.58494 
0.0965372 0.0181071 -0.569167 0.0904328 0.0128557 -0.553021 0.0834015 0.00714222 -0.536486 
0.0755761 0.00103608 -0.519532 0.0671146 -0.00536298 -0.502127 0.0581871 -0.011928 -0.484252 
0.0489619 -0.0185107 -0.465911 0.0395924 -0.0249493 -0.447134 0.0302056 -0.0310782 -0.427976 
0.0208945 -0.0367387 -0.408505 0.0117143 -0.0417893 -0.388792 0.00268393 -0.0461146 -0.368892 
-0.00620809 -0.0496334 -0.348839 -0.0149931 -0.0523022 -0.328624 -0.023709 -0.0541175 -0.308198 
-0.0323857 -0.055114 -0.287468 -0.0410307 -0.0553596 -0.266304 -0.0496171 -0.0549485 -0.244555 
-0.0580756 -0.0539923 -0.222065 -0.0662917 -0.052611 -0.198691 -0.0741088 -0.0509229 -0.174327 
-0.0813368 -0.0490372 -0.148917 -0.0877661 -0.0470472 -0.12247 -0.0931849 -0.0450265 -0.0950627 
-0.0973985 -0.0430274 -0.0668389 -0.100248 -0.0410816 -0.0379998 -0.101626 -0.0392034 -0.0087886 
-0.101489 -0.0373933 0.020528 -0.0998596 -0.0356439 0.0496815 -0.0968309 -0.0339438 0.0784212 
-0.0925525 -0.0322829 0.106532 -0.08722 -0.0306547 0.133845 -0.081055 -0.0290585 0.160247 
-0.0742857 -0.0274997 0.185675 -0.0671255 -0.0259882 0.210117 -0.0597559 -0.0245368 0.233597 
-0.0523123 -0.0231585 0.256162 -0.0448771 -0.0218639 0.277873 -0.0374785 -0.0206592 0.298788 
-0.030097 -0.0195453 0.318956 -0.0226761 -0.0185177 0.338412 -0.0151387 -0.0175675 0.357175 
-0.00740385 -0.0166834 0.375253 0.000595373 -0.0158548 0.392648 0.0088978 -0.0150739 0.409366 
0.0175039 -0.0143387 0.425425 0.0263716 -0.0136545 0.440858 0.0354179 -0.0130344 0.455721 
0.0445266 -0.0124989 0.470089 0.0535605 -0.0120735 0.484051 0.0623772 -0.0117861 0.497706 
0.0708444 -0.0116627 0.511147 0.0788551 -0.0117239 0.524453 0.0863387 -0.011981 0.537677 
0.0932672 -0.012433 0.550837 0.0996562 -0.013065 0.563911 0.105559 -0.0138482 0.576841 
0.111057 -0.0147408 0.58953 0.116245 -0.0156914 0.601858 0.121217 -0.0166424 0.613691 
0.126048 -0.017535 0.624893 0.130788 -0.0183139 0.635343 0.135447 -0.0189321 0.644945 
0.139995 -0.019354 0.653638 0.144368 -0.0195583 0.661399 0.148475 -0.0195391 0.668242 
0.152208 -0.0193053 0.674217 0.155464 -0.0188792 0.679397 0.158155 -0.0182938 0.683873 
0.160227 -0.0175896 0.687736 0.161666 -0.0168106 0.691072 0.162505 -0.0160019 0.693953 
0.162821 -0.0152059 0.696429 0.162732 -0.0144606 0.698529 0.162377 -0.0137984 0.700261 
0.161906 -0.0132452 0.70162 0.16146 -0.0128203 0.70259 0.161154 -0.0125372 0.703155 
0.161063 -0.0124034 0.703304 
LINES 2 100
OFFSETS vtktypeint64
0 100 
CONNECTIVITY vtktypeint64
0 1 2 3 4 5 6 7 8 
9 10 11 12 13 14 15 16 17 
18 19 20 21 22 23 24 25 26 
27 28 29 30 31 32 33 34 35 
36 37 38 39 40 41 42 43 44 
45 46 47 48 49 50 51 52 53 
54 55 56 57 58 59 60 61 62 
63 64 65 66 67 68 69 70 71 
72 73 74 75 76 77 78 79 80 
81 82 83 84 85 86 87 88 89 
90 91 92 93 94 95 96 97 98 
99 
POINT_DATA 100
FIELD FieldData 3
_theta 1 100 double
0 0.031733259127 0.063466518254 0.095199777382 0.12693303651 0.15866629564 0.19039955476 0.22213281389 0.25386607302 
0.28559933214 0.31733259127 0.3490658504 0.38079910953 0.41253236865 0.44426562778 0.47599888691 0.50773214603 0.53946540516 
0.57119866429 0.60293192342 0.63466518254 0.66639844167 0.6981317008 0.72986495992 0.76159821905 0.79333147818 0.82506473731 
0.85679799643 0.88853125556 0.92026451469 0.95199777382 0.98373103294 1.0154642921 1.0471975512 1.0789308103 1.1106640695 
1.1423973286 1.1741305877 1.2058638468 1.237597106 1.2693303651 1.3010636242 1.3327968833 1.3645301425 1.3962634016 
1.4279966607 1.4597299198 1.491463179 1.5231964381 1.5549296972 1.5866629564 1.6183962155 1.6501294746 1.6818627337 
1.7135959929 1.745329252 1.7770625111 1.8087957702 1.8405290294 1.8722622885 1.9039955476 1.9357288068 1.9674620659 
1.999195325 2.0309285841 2.0626618433 2.0943951024 2.1261283615 2.1578616206 2.1895948798 2.2213281389 2.253061398 
2.2847946572 2.3165279163 2.3482611754 2.3799944345 2.4117276937 2.4434609528 2.4751942119 2.506927471 2.5386607302 
2.5703939893 2.6021272484 2.6338605076 2.6655937667 2.6973270258 2.7290602849 2.7607935441 2.7925268032 2.8242600623 
2.8559933214 2.8877265806 2.9194598397 2.9511930988 2.982926358 3.0146596171 3.0463928762 3.0781261353 3.1098593945 
3.1415926536 
_radius 1 100 double
1.8943053271e-15 0.016348025901 0.032549194268 0.048464272599 0.063960473493 0.078914922686 0.09321859562 0.10677999695 0.11952731257 
0.13140789845 0.14238477076 0.15243082825 0.16152241991 0.16963426954 0.17673758131 0.18280244861 0.18780465672 0.19173585174 
0.19461510926 0.19649941252 0.19749058549 0.19773681562 0.19742787628 0.19678424367 0.19604122199 0.19542979402 0.19515621972 
0.19538252277 0.19620998426 0.19766756656 0.19970683894 0.20220458965 0.20497378697 0.20778250214 0.21037885482 0.21251877699 
0.21399316245 0.21465163679 0.21442089789 0.21331580982 0.21144162859 0.20898661877 0.20620584473 0.2033983947 0.2008810864 
0.19896150986 0.19791217854 0.19794632198 0.19919578233 0.2016934036 0.2053650218 0.21003649452 0.21545706501 0.22133399849 
0.22736967833 0.23329331264 0.23888303035 0.24397755329 0.24847863144 0.2523462479 0.25558876969 0.25825008592 0.26039551708 
0.26209799972 0.26342580485 0.26443282574 0.26515221406 0.26559379367 0.26574522471 0.26557638134 0.26504594266 0.26410887838 
0.26272341157 0.26085619998 0.25848489151 0.25559780201 0.2521910824 0.24826420856 0.24381483329 0.23883400516 0.23330259898 
0.22718962479 0.22045289221 0.21304221845 0.20490491438 0.19599272678 0.18626895797 0.17571434863 0.16433059588 0.15214099758 
0.13918843527 0.12553147932 0.11123967266 0.096389019385 0.081058455063 0.065327695972 0.049276430852 0.032984434508 0.016531980351 
1.0275085996e-15 
_area 1 100 double
0 0.00058725783646 0.0023673461734 0.0053832935144 0.0096714030294 0.015222325576 0.021949689716 0.02967698867 0.03814491518 
0.04703423165 0.055996119672 0.064682104345 0.072767736032 0.07996753544 0.086042754284 0.090806857533 0.094134166809 0.095973879395 
0.096366134586 0.095451660014 0.093464973516 0.090709178585 0.087746051977 0.085336651053 0.083259530269 0.081604519587 0.080600394273 
0.080434524618 0.081270647692 0.083189479632 0.086127079183 0.089869493118 0.09410466738 0.098487426642 0.10268253132 0.10638512278 
0.1093357394 0.11135714266 0.11240055182 0.11256437591 0.11206119895 0.11113055462 0.10996591806 0.10875124104 0.10772951512 
0.10718639188 0.10738333508 0.10852136772 0.11077028395 0.1142824942 0.11914283212 0.12529844416 0.13252959414 0.14048073731 
0.14872564059 0.15683494007 0.16443036521 0.17122123201 0.17702346862 0.18176325244 0.18546772381 0.18824463837 0.19025231243 
0.19166228577 0.1926204218 0.19321578615 0.19346617216 0.19332269112 0.19268846418 0.19144419818 0.1894752911 0.18669642117 
0.18306934097 0.17861024133 0.17338581411 0.16750043679 0.16107847233 0.154245194 0.14710871143 0.13974473008 0.13218637193 
0.12442214055 0.11640501765 0.10807321309 0.099378641463 0.090315218314 0.08093809726 0.071367689799 0.061777438565 0.052369714083 
0.043347882927 0.034893220158 0.027152633322 0.020238286961 0.014235511079 0.0092130742215 0.005230660582 0.0023411041456 0.00058784889553 
7.2105798841e-17 
