# vtk DataFile Version 5.1
vtk output
ASCII
DATASET POLYDATA
POINTS 100 float
0.0897449 -0.0253282 0.648134 0.0897509 -0.0252125 0.648128 0.089806 -0.0247525 0.647926 
0.0898851 -0.0239731 0.647482 0.08995 -0.0229129 0.64673 0.0899545 -0.0216221 0.645584 
0.0898509 -0.0201585 0.643951 0.0895952 -0.0185841 0.641732 0.0891527 -0.0169607 0.638839 
0.0885012 -0.0153471 0.635194 0.0876324 -0.0137949 0.630743 0.0865507 -0.0123471 0.625454 
0.0852698 -0.0110358 0.619323 0.0838078 -0.00988198 0.612372 0.0821812 -0.00889521 0.604645 
0.0803989 -0.00807449 0.596206 0.0784573 -0.00740944 0.58713 0.0763373 -0.00688189 0.577495 
0.0740038 -0.00646761 0.567379 0.0714079 -0.0061382 0.556849 0.0684917 -0.005863 0.54596 
0.0651953 -0.00561094 0.534749 0.0614656 -0.00535249 0.523234 0.0572641 -0.00506151 0.511418 
0.0525745 -0.00471714 0.49929 0.0474081 -0.00430562 0.486832 0.0418061 -0.003822 0.474021 
0.0358376 -0.00327154 0.46084 0.0295949 -0.00267069 0.447279 0.0231854 -0.00204748 0.433341 
0.0167203 -0.00144109 0.419044 0.0103031 -0.00090057 0.404416 0.00401782 -0.000482522 0.389499 
-0.0020805 -0.000247977 0.374339 -0.00797266 -0.000258478 0.358982 -0.0136777 -0.00057172 0.343466 
-0.0192505 -0.00123711 0.327815 -0.0247749 -0.00229166 0.312032 -0.0303525 -0.00375659 0.296097 
-0.0360884 -0.00563518 0.279962 -0.0420754 -0.0079119 0.263558 -0.0483785 -0.0105533 0.246796 
-0.0550212 -0.0135101 0.229572 -0.0619756 -0.0167212 0.211782 -0.0691572 -0.0201178 0.193324 
-0.0764256 -0.0236288 0.174117 -0.0835909 -0.0271855 0.154099 -0.0904251 -0.0307259 0.133242 
-0.0966782 -0.0341978 0.111553 -0.102097 -0.03756 0.0890735 -0.106443 -0.0407823 0.0658762 
-0.109515 -0.0438436 0.0420619 -0.111157 -0.0467287 0.0177495 -0.111277 -0.0494239 -0.0069321 
-0.109848 -0.0519128 -0.0318538 -0.106909 -0.0541721 -0.0568945 -0.102558 -0.0561685 -0.0819477 
-0.0969406 -0.0578569 -0.106925 -0.0902372 -0.0591812 -0.131757 -0.0826439 -0.0600757 -0.156392 
-0.0743559 -0.0604698 -0.180792 -0.0655517 -0.0602931 -0.204923 -0.0563802 -0.0594817 -0.228754 
-0.0469517 -0.0579843 -0.252243 -0.0373342 -0.055768 -0.275341 -0.0275539 -0.0528228 -0.297981 
-0.0176014 -0.0491632 -0.320083 -0.00744001 -0.044829 -0.341555 0.00298174 -0.0398827 -0.3623 
0.0137178 -0.0344052 -0.382223 0.024812 -0.0284904 -0.40124 0.0362874 -0.0222381 -0.419286 
0.048138 -0.0157475 -0.436324 0.0603246 -0.0091108 -0.452348 0.0727739 -0.00240906 -0.467385 
0.0853818 0.0042911 -0.481494 0.0980192 0.0109379 -0.494758 0.110541 0.0174931 -0.507277 
0.122796 0.0239288 -0.519157 0.134636 0.0302229 -0.530494 0.14593 0.0363547 -0.541371 
0.156565 0.0423001 -0.551839 0.166459 0.0480286 -0.561919 0.175558 0.0535009 -0.571595 
0.183839 0.05867 -0.580818 0.191309 0.0634828 -0.589513 0.197997 0.0678847 -0.597586 
0.203949 0.0718248 -0.604943 0.209224 0.0752617 -0.611494 0.213883 0.0781695 -0.617173 
0.217985 0.0805423 -0.621947 0.221583 0.0823965 -0.625816 0.224719 0.0837714 -0.628825 
0.227421 0.084727 -0.631053 0.229708 0.0853393 -0.63261 0.231588 0.0856931 -0.633624 
0.233059 0.0858744 -0.634228 0.234118 0.0859615 -0.634546 0.234758 0.0860172 -0.634677 
0.234974 0.0860822 -0.634688 
LINES 2 100
OFFSETS vtktypeint64
0 100 
CONNECTIVITY vtktypeint64
0 1 2 3 4 5 6 7 8 
9 10 11 12 13 14 15 16 17 
18 19 20 21 22 23 24 25 26 
27 28 29 30 31 32 33 34 35 
36 37 38 39 40 41 42 43 44 
45 46 47 48 49 50 51 52 53 
54 55 56 57 58 59 60 61 62 
63 64 65 66 67 68 69 70 71 
72 73 74 75 76 77 78 79 80 
81 82 83 84 85 86 87 88 89 
90 91 92 93 94 95 96 97 98 
99 
POINT_DATA 100
FIELD FieldData 3
_theta 1 100 double
0 0.031733259127 0.063466518254 0.095199777382 0.12693303651 0.15866629564 0.19039955476 0.22213281389 0.25386607302 
0.28559933214 0.31733259127 0.3490658504 0.38079910953 0.41253236865 0.44426562778 0.47599888691 0.50773214603 0.53946540516 
0.57119866429 0.60293192342 0.63466518254 0.66639844167 0.6981317008 0.72986495992 0.76159821905 0.79333147818 0.82506473731 
0.85679799643 0.88853125556 0.92026451469 0.95199777382 0.98373103294 1.0154642921 1.0471975512 1.0789308103 1.1106640695 
1.1423973286 1.1741305877 1.2058638468 1.237597106 1.2693303651 1.3010636242 1.3327968833 1.3645301425 1.3962634016 
1.4279966607 1.4597299198 1.491463179 1.5231964381 1.5549296972 1.5866629564 1.6183962155 1.6501294746 1.6818627337 
1.7135959929 1.745329252 1.7770625111 1.8087957702 1.8405290294 1.8722622885 1.9039955476 1.9357288068 1.9674620659 
1.999195325 2.0309285841 2.0626618433 2.0943951024 2.1261283615 2.1578616206 2.1895948798 2.2213281389 2.253061398 
2.2847946572 2.3165279163 2.3482611754 2.3799944345 2.4117276937 2.4434609528 2.4751942119 2.506927471 2.5386607302 
2.5703939893 2.6021272484 2.6338605076 2.6655937667 2.6973270258 2.7290602849 2.7607935441 2.7925268032 2.8242600623 
2.8559933214 2.8877265806 2.9194598397 2.9511930988 2.982926358 3.0146596171 3.0463928762 3.0781261353 3.1098593945 
3.1415926536 
_radius 1 100 double
1.557441654e-15 0.014145853108 0.028250135309 0.04226229124 0.056126615668 0.069782651677 0.083167921493 0.09622238005 0.10889343746 
0.12114024976 0.13293626443 0.14426957736 0.15514122686 0.16556187955 0.17554743318 0.18511403956 0.19427308856 0.20302677829 
0.21136490951 0.21926340066 0.22668475988 0.23358048514 0.23989518903 0.24557216147 0.25056000491 0.25481980922 0.25833206231 
0.26110221204 0.26316366689 0.264577187 0.26542611401 0.26580762767 0.26582102169 0.26555466752 0.26507373425 0.2644107658 
0.26356084548 0.26248234355 0.26110329146 0.25933249445 0.25707381203 0.25424171655 0.25077624298 0.24665564179 0.24190532146 
0.23660196149 0.23087200156 0.22488412024 0.2188358995 0.2129357431 0.20738232114 0.20234504084 0.19794942684 0.19426995069 
0.19133015486 0.18910769758 0.18754161079 0.18654019424 0.18598927547 0.18576130798 0.18572587448 0.18576172956 0.18576977785 
0.18568561453 0.18548958209 0.18521181669 0.1849298523 0.18475742299 0.18482503951 0.18525513412 0.18613637774 0.18750248658 
0.18931993128 0.19148658854 0.19384054553 0.19617620921 0.19826414843 0.19987144057 0.20078011293 0.20080211211 0.19978991552 
0.19764240209 0.19430597878 0.18977129077 0.18406618717 0.17724598584 0.16938242311 0.16055287241 0.15083136096 0.14028257195 
0.12895946038 0.11690447513 0.10415380716 0.090743661989 0.07671731426 0.062131639014 0.047061917204 0.031603975896 0.015873138712 
9.0507223414e-16 
_area 1 100 double
0 0.00056413389992 0.0022508586948 0.0050409340515 0.0088961553835 0.013753895269 0.019525226249 0.026099072477 0.03335234695 
0.041163286543 0.049423571945 0.058045337209 0.066961645708 0.076121810341 0.085484226094 0.095008863891 0.10465051121 0.11435331999 
0.1240471716 0.13364627507 0.14305009978 0.15214637874 0.160815739 0.16893765979 0.1763978378 0.18309725394 0.18896286784 
0.1939590728 0.19809853711 0.20144883523 0.20411923538 0.20619552583 0.20768409465 0.20859866011 0.20906646724 0.20914045639 
0.20861308209 0.20740015118 0.20541562746 0.20256706958 0.19876932176 0.19395616292 0.18810382959 0.18126040566 0.17356356718 
0.16524240612 0.15660225919 0.14799468698 0.13977858516 0.13227774532 0.12573336333 0.12025041644 0.11576280024 0.11206124309 
0.10888281709 0.10600129238 0.1032705791 0.10062430311 0.098057279582 0.095637080446 0.093387659179 0.091322275951 0.089412984218 
0.087636599655 0.086005755922 0.084576153864 0.083452615609 0.082753668378 0.082593819116 0.083085861976 0.084307988459 0.08626273868 
0.088853098577 0.091889018752 0.095116367401 0.098252899218 0.10102066878 0.10316528792 0.1044639298 0.10473206685 0.10383335047 
0.10169065835 0.098294090924 0.093702220224 0.088034971226 0.0814593341 0.074171496358 0.066379861063 0.058292515967 0.050110612303 
0.042026758486 0.034225876343 0.026885593924 0.020174135872 0.01424528349 0.0092316393544 0.0052385763108 0.002341407607 0.00058715611493 
1.004558075e-16 
