# vtk DataFile Version 5.1
vtk output
ASCII
DATASET POLYDATA
POINTS 100 float
0.215588 -0.0296517 0.731315 0.215624 -0.0296733 0.731155 0.215672 -0.0298516 0.730801 
0.215658 -0.0301718 0.730247 0.215466 -0.0306105 0.729475 0.214959 -0.0311366 0.72846 
0.213993 -0.0317125 0.72716 0.212441 -0.0322954 0.72552 0.210205 -0.0328397 0.723467 
0.207232 -0.0332987 0.720916 0.203517 -0.033627 0.717771 0.199101 -0.0337826 0.713934 
0.194067 -0.0337294 0.70931 0.188521 -0.0334389 0.703822 0.182579 -0.0328917 0.697412 
0.176348 -0.0320791 0.690055 0.169907 -0.0310031 0.681761 0.163301 -0.0296765 0.672576 
0.156529 -0.0281222 0.662581 0.149549 -0.0263716 0.651884 0.142286 -0.0244628 0.640615 
0.134645 -0.0224386 0.628905 0.126526 -0.0203434 0.616882 0.117848 -0.0182218 0.604656 
0.108561 -0.0161156 0.592305 0.0986612 -0.0140629 0.579873 0.0881941 -0.0120961 0.567363 
0.0772565 -0.0102417 0.554739 0.0659858 -0.00852023 0.541934 0.0545453 -0.00694646 0.528855 
0.0431045 -0.00553042 0.515396 0.0318182 -0.00427843 0.501451 0.0208063 -0.00319429 0.486922 
0.0101388 -0.00228044 0.471732 -0.000173268 -0.00153898 0.455827 -0.010178 -0.000972401 0.439179 
-0.0199748 -0.000584026 0.421786 -0.0296983 -0.000378234 0.403666 -0.0394964 -0.000360398 0.384849 
-0.0495057 -0.000536692 0.365369 -0.0598264 -0.000913821 0.345257 -0.0705015 -0.00149875 0.324535 
-0.081502 -0.0022985 0.30321 -0.092721 -0.00331997 0.281279 -0.103978 -0.00456988 0.258728 
-0.115032 -0.00605465 0.235542 -0.125602 -0.0077802 0.211709 -0.135398 -0.00975159 0.187234 
-0.144146 -0.0119724 0.162142 -0.151616 -0.014444 0.136489 -0.15765 -0.0171637 0.110358 
-0.162172 -0.0201242 0.0838633 -0.165197 -0.0233111 0.05714 -0.166823 -0.0267019 0.0303385 
-0.16722 -0.0302643 0.00361116 -0.166607 -0.0339553 -0.0228996 -0.165222 -0.0377212 -0.049073 
-0.163298 -0.0414976 -0.0748191 -0.161033 -0.0452113 -0.100084 -0.158567 -0.0487823 -0.124851 
-0.155974 -0.0521269 -0.149137 -0.153254 -0.0551614 -0.172984 -0.15034 -0.0578063 -0.196445 
-0.147116 -0.0599902 -0.219577 -0.143432 -0.0616534 -0.242421 -0.139136 -0.0627512 -0.264995 
-0.134096 -0.0632556 -0.287286 -0.128228 -0.0631567 -0.309244 -0.121507 -0.0624621 -0.330789 
-0.113985 -0.0611954 -0.351817 -0.105787 -0.0593941 -0.37221 -0.0971036 -0.0571059 -0.39185 
-0.0881803 -0.0543853 -0.41064 -0.0792923 -0.0512895 -0.42851 -0.0707224 -0.0478754 -0.445433 
-0.0627369 -0.0441961 -0.461426 -0.0555641 -0.0402993 -0.476555 -0.0493773 -0.036226 -0.490926 
-0.0442849 -0.0320104 -0.504673 -0.0403271 -0.0276809 -0.517944 -0.0374793 -0.0232612 -0.530886 
-0.0356617 -0.0187727 -0.543622 -0.0347528 -0.0142366 -0.55624 -0.0346051 -0.00967555 -0.568782 
-0.0350607 -0.00511571 -0.581237 -0.0359657 -0.000587547 -0.593543 -0.0371805 0.00387371 -0.605594 
-0.0385874 0.00822834 -0.617248 -0.0400927 0.0124331 -0.628348 -0.0416263 0.0164425 -0.638734 
-0.0431377 0.0202107 -0.64826 -0.0445909 0.0236929 -0.65681 -0.045959 0.0268472 -0.664302 
-0.0472188 0.0296359 -0.670696 -0.0483479 0.0320265 -0.675988 -0.0493227 0.033992 -0.680207 
-0.0501192 0.0355113 -0.683402 -0.0507145 0.0365691 -0.68563 -0.0510893 0.0371552 -0.686943 
-0.0512306 0.0372648 -0.687376 
LINES 2 100
OFFSETS vtktypeint64
0 100 
CONNECTIVITY vtktypeint64
0 1 2 3 4 5 6 7 8 
9 10 11 12 13 14 15 16 17 
18 19 20 21 22 23 24 25 26 
27 28 29 30 31 32 33 34 35 
36 37 38 39 40 41 42 43 44 
45 46 47 48 49 50 51 52 53 
54 55 56 57 58 59 60 61 62 
63 64 65 66 67 68 69 70 71 
72 73 74 75 76 77 78 79 80 
81 82 83 84 85 86 87 88 89 
90 91 92 93 94 95 96 97 98 
99 
POINT_DATA 100
FIELD FieldData 3
_theta 1 100 double
0 0.031733259127 0.063466518254 0.095199777382 0.12693303651 0.15866629564 0.19039955476 0.22213281389 0.25386607302 
0.28559933214 0.31733259127 0.3490658504 0.38079910953 0.41253236865 0.44426562778 0.47599888691 0.50773214603 0.53946540516 
0.57119866429 0.60293192342 0.63466518254 0.66639844167 0.6981317008 0.72986495992 0.76159821905 0.79333147818 0.82506473731 
0.85679799643 0.88853125556 0.92026451469 0.95199777382 0.98373103294 1.0154642921 1.0471975512 1.0789308103 1.1106640695 
1.1423973286 1.1741305877 1.2058638468 1.237597106 1.2693303651 1.3010636242 1.3327968833 1.3645301425 1.3962634016 
1.4279966607 1.4597299198 1.491463179 1.5231964381 1.5549296972 1.5866629564 1.6183962155 1.6501294746 1.6818627337 
1.7135959929 1.745329252 1.7770625111 1.8087957702 1.8405290294 1.8722622885 1.9039955476 1.9357288068 1.9674620659 
1.999195325 2.0309285841 2.0626618433 2.0943951024 2.1261283615 2.1578616206 2.1895948798 2.2213281389 2.253061398 
2.2847946572 2.3165279163 2.3482611754 2.3799944345 2.4117276937 2.4434609528 2.4751942119 2.506927471 2.5386607302 
2.5703939893 2.6021272484 2.6338605076 2.6655937667 2.6973270258 2.7290602849 2.7607935441 2.7925268032 2.8242600623 
2.8559933214 2.8877265806 2.9194598397 2.9511930988 2.982926358 3.0146596171 3.0463928762 3.0781261353 3.1098593945 
3.1415926536 
_radius 1 100 double
2.6370079267e-16 0.015691161035 0.031327742639 0.046854283489 0.062211021247 0.07733280208 0.092149154749 0.10658542504 0.12056460307 
0.13400939976 0.14684430462 0.15899769481 0.17040433658 0.18100859646 0.19076831695 0.19965879971 0.20767596945 0.21483776213 
0.22118310463 0.22676840521 0.23166207346 0.23593806049 0.23966961568 0.24292430763 0.24576087144 0.24822777341 0.25036280261 
0.2521927799 0.25373274434 0.2549846056 0.25593590372 0.2565596374 0.25681594616 0.25665588268 0.25602689822 0.25487927549 
0.2531726965 0.25088235355 0.24800432266 0.24456014259 0.24060056869 0.23620827739 0.23149895569 0.22661986544 0.22174481611 
0.21706471088 0.21277358516 0.20905130776 0.20604553814 0.20385646375 0.20252752868 0.20204361427 0.20233581389 0.20329050021 
0.20476050545 0.20657726213 0.20856357732 0.21054687674 0.21237245901 0.21391583939 0.21509282834 0.21586579192 0.21624478648 
0.21628298519 0.21606681417 0.21570216165 0.2152986199 0.21495382036 0.21473956084 0.21469081287 0.21479817113 0.21500415964 
0.21520403691 0.21525192426 0.21497267802 0.21417882304 0.21269053053 0.21035569322 0.20706697699 0.20277329554 0.19748420305 
0.19126689465 0.1842365519 0.17654148616 0.16834485432 0.15980470925 0.15105398852 0.14218202682 0.13321956949 0.12413004183 
0.11481039797 0.10510419445 0.094826964128 0.083800218319 0.071887382193 0.059024258497 0.045238263748 0.030653510637 0.015481586447 
3.1411291755e-16 
_area 1 100 double
0 0.00057699595568 0.002297852897 0.0051325322047 0.009032383783 0.013932914467 0.019758342825 0.026427239168 0.033856750393 
0.041961276009 0.050642431341 0.059772799729 0.069183226222 0.078664508828 0.087987225517 0.096934669064 0.10533897117 0.11310960695 
0.12024524944 0.12682404618 0.13297352399 0.13882813895 0.14448780502 0.14999174361 0.15531609796 0.16039254665 0.1651358593 
0.16946716675 0.17332565856 0.17666876215 0.17946518905 0.18168568513 0.18329446348 0.1842426327 0.18446502504 0.1838827539 
0.18241326963 0.17998730705 0.17656986728 0.17218115104 0.16691246198 0.16093160547 0.15447371288 0.14781762305 0.14125294567 
0.13504509197 0.12940475074 0.124467914 0.12029291744 0.11687859256 0.1141995132 0.11223006995 0.11090622203 0.11011110166 
0.10975285811 0.10975307756 0.10999511313 0.11033788817 0.11062214537 0.11067421213 0.1105388833 0.10999345464 0.10918958831 
0.10803234525 0.10668491495 0.10536565069 0.10426125183 0.1036025724 0.10364658334 0.10443432538 0.10576251833 0.10747619987 
0.10937551694 0.11122379626 0.11276247677 0.11373165306 0.11389386789 0.11305723181 0.11109430754 0.10795478602 0.10367133709 
0.098357910984 0.092198860208 0.085427683731 0.078296965435 0.071044825696 0.063865438875 0.056890371246 0.050184179007 0.043753748517 
0.037568177665 0.031585437208 0.025782447126 0.020184169219 0.014884672408 0.010052145993 0.0059131636016 0.0027178478739 0.00069374858589 
2.2509485925e-17 
