# vtk DataFile Version 5.1
vtk output
ASCII
DATASET POLYDATA
POINTS 100 float
0.151393 0.112568 -0.714671 0.151167 0.112207 -0.71422 0.150548 0.111367 -0.712912 
0.149584 0.11005 -0.710764 0.148343 0.108257 -0.707807 0.146909 0.105992 -0.704086 
0.145369 0.10326 -0.699655 0.143802 0.100068 -0.694585 0.14227 0.0964278 -0.688952 
0.140808 0.0923557 -0.682843 0.139418 0.0878725 -0.676343 0.138068 0.0830039 -0.669533 
0.136695 0.0777797 -0.662482 0.135208 0.0722331 -0.655237 0.133502 0.0663999 -0.64782 
0.131461 0.0603164 -0.64022 0.128975 0.054019 -0.632392 0.125947 0.0475424 -0.624257 
0.122307 0.0409192 -0.615709 0.118008 0.0341798 -0.606618 0.113038 0.027352 -0.596846 
0.107414 0.0204626 -0.586254 0.101179 0.0135383 -0.574716 0.0943928 0.00660746 -0.562135 
0.0871274 -0.000297932 -0.548445 0.0794552 -0.00714045 -0.533624 0.071442 -0.0138757 -0.517691 
0.0631401 -0.0204516 -0.500708 0.0545851 -0.0268076 -0.482771 0.0457946 -0.0328762 -0.463997 
0.0367707 -0.0385839 -0.444519 0.0275048 -0.0438543 -0.424462 0.0179851 -0.0486114 -0.40394 
0.00820467 -0.0527832 -0.383039 -0.00183024 -0.0563061 -0.361812 -0.0120925 -0.0591292 -0.340272 
-0.0225287 -0.0612174 -0.318401 -0.0330556 -0.0625544 -0.296148 -0.0435605 -0.0631443 -0.273442 
-0.053904 -0.063012 -0.250207 -0.0639253 -0.0622024 -0.226368 -0.0734507 -0.060778 -0.201871 
-0.0823024 -0.0588156 -0.176689 -0.090309 -0.0564022 -0.150833 -0.0973147 -0.0536301 -0.124353 
-0.103188 -0.0505926 -0.0973373 -0.107829 -0.047379 -0.0699111 -0.111172 -0.0440713 -0.0422248 
-0.11319 -0.040741 -0.0144454 -0.113893 -0.0374475 0.0132557 -0.113322 -0.0342374 0.0407139 
-0.111552 -0.0311452 0.0677811 -0.108679 -0.0281947 0.0943331 -0.104815 -0.0254011 0.120274 
-0.100084 -0.0227734 0.145537 -0.0946123 -0.0203174 0.170084 -0.0885234 -0.0180375 0.193898 
-0.0819337 -0.0159387 0.216984 -0.0749483 -0.0140276 0.239355 -0.067659 -0.0123129 0.261032 
-0.0601425 -0.0108045 0.282037 -0.0524615 -0.00951298 0.302391 -0.0446654 -0.0084477 0.322115 
-0.0367926 -0.00761548 0.341225 -0.0288734 -0.007019 0.359743 -0.0209341 -0.00665555 0.377692 
-0.0129998 -0.00651647 0.395103 -0.00509879 -0.00658704 0.412014 0.00273457 -0.00684714 0.428475 
0.0104571 -0.0072724 0.444542 0.0180152 -0.0078358 0.460275 0.0253449 -0.00850953 0.475736 
0.0323723 -0.00926677 0.490981 0.0390171 -0.0100833 0.506052 0.0451958 -0.0109386 0.520979 
0.0508276 -0.0118166 0.535767 0.0558397 -0.0127054 0.550399 0.0601745 -0.0135968 0.564838 
0.0637943 -0.0144855 0.579021 0.0666874 -0.0153672 0.592874 0.0688705 -0.0162378 0.606311 
0.0703902 -0.0170917 0.619244 0.0713217 -0.0179209 0.631589 0.0717649 -0.018715 0.643273 
0.0718381 -0.0194611 0.654238 0.07167 -0.0201445 0.664444 0.0713902 -0.0207503 0.673872 
0.0711192 -0.0212645 0.682516 0.0709593 -0.0216763 0.690389 0.0709869 -0.0219792 0.697509 
0.0712467 -0.0221726 0.703901 0.071749 -0.0222619 0.709589 0.0724708 -0.0222591 0.714592 
0.0733595 -0.0221818 0.718924 0.0743394 -0.0220514 0.722591 0.0753212 -0.0218918 0.725591 
0.0762121 -0.0217267 0.727917 0.0769262 -0.021577 0.729561 0.0773944 -0.0214593 0.730515 
0.077572 -0.0213838 0.730774 
LINES 2 100
OFFSETS vtktypeint64
0 100 
CONNECTIVITY vtktypeint64
0 1 2 3 4 5 6 7 8 
9 10 11 12 13 14 15 16 17 
18 19 20 21 22 23 24 25 26 
27 28 29 30 31 32 33 34 35 
36 37 38 39 40 41 42 43 44 
45 46 47 48 49 50 51 52 53 
54 55 56 57 58 59 60 61 62 
63 64 65 66 67 68 69 70 71 
72 73 74 75 76 77 78 79 80 
81 82 83 84 85 86 87 88 89 
90 91 92 93 94 95 96 97 98 
99 
POINT_DATA 100
FIELD FieldData 3
_theta 1 100 double
0 0.031733259127 0.063466518254 0.095199777382 0.12693303651 0.15866629564 0.19039955476 0.22213281389 0.25386607302 
0.28559933214 0.31733259127 0.3490658504 0.38079910953 0.41253236865 0.44426562778 0.47599888691 0.50773214603 0.53946540516 
0.57119866429 0.60293192342 0.63466518254 0.66639844167 0.6981317008 0.72986495992 0.76159821905 0.79333147818 0.82506473731 
0.85679799643 0.88853125556 0.92026451469 0.95199777382 0.98373103294 1.0154642921 1.0471975512 1.0789308103 1.1106640695 
1.1423973286 1.1741305877 1.2058638468 1.237597106 1.2693303651 1.3010636242 1.3327968833 1.3645301425 1.3962634016 
1.4279966607 1.4597299198 1.491463179 1.5231964381 1.5549296972 1.5866629564 1.6183962155 1.6501294746 1.6818627337 
1.7135959929 1.745329252 1.7770625111 1.8087957702 1.8405290294 1.8722622885 1.9039955476 1.9357288068 1.9674620659 
1.999195325 2.0309285841 2.0626618433 2.0943951024 2.1261283615 2.1578616206 2.1895948798 2.2213281389 2.253061398 
2.2847946572 2.3165279163 2.3482611754 2.3799944345 2.4117276937 2.4434609528 2.4751942119 2.506927471 2.5386607302 
2.5703939893 2.6021272484 2.6338605076 2.6655937667 2.6973270258 2.7290602849 2.7607935441 2.7925268032 2.8242600623 
2.8559933214 2.8877265806 2.9194598397 2.9511930988 2.982926358 3.0146596171 3.0463928762 3.0781261353 3.1098593945 
3.1415926536 
_radius 1 100 double
9.269074108e-16 0.015231789213 0.030250432461 0.044871057444 0.058949414017 0.072395067332 0.085177183733 0.097321857117 0.10890099674 
0.12001398997 0.13076456302 0.14123630924 0.15147095443 0.16145326897 0.17110547434 0.18029222499 0.18883529068 0.19653548002 
0.20319845147 0.20866084778 0.21281346458 0.2156187172 0.21712037367 0.21744432611 0.21679005608 0.21541338963 0.21360210929 
0.21164697298 0.20981165039 0.20830586386 0.20726616486 0.20674768269 0.20672776442 0.20711965976 0.20779263486 0.20859456814 
0.20937363452 0.20999656249 0.21036212047 0.21040993401 0.21012572855 0.2095437642 0.20874603686 0.20785726633 0.20703530707 
0.20645757354 0.20630457574 0.20674173723 0.20790085238 0.20986321998 0.21264737947 0.21620451599 0.22042323115 0.22514291769 
0.23017279118 0.23531273404 0.24037246234 0.24518651384 0.24962366071 0.25359036487 0.25702878967 0.25991064036 0.26222865032 
0.26398774404 0.26519770842 0.26586860924 0.26600934953 0.26562891412 0.26473921108 0.2633581442 0.26151164505 0.25923377346 
0.25656453379 0.2535456193 0.25021476235 0.24659962306 0.2427121548 0.23854421203 0.2340649693 0.22922061062 0.22393669255 
0.21812342551 0.21168372445 0.20452328529 0.19656135389 0.18774051711 0.17803390602 0.16744864764 0.15602510898 0.14383226809 
0.13096023484 0.11751136116 0.1035914262 0.089302078794 0.074735223542 0.059969559041 0.045069164984 0.030083901466 0.015051349576 
1.4491595905e-15 
_area 1 100 double
0 0.00069637736654 0.0027457312777 0.0060365254088 0.01040656733 0.015671477504 0.021653295426 0.028203221997 0.035215051737 
0.042627869655 0.050417169126 0.058574004644 0.067074242306 0.075844184761 0.084732005834 0.093494291814 0.10180369585 0.1092786699 
0.11553085078 0.12022118238 0.12311336117 0.12411346029 0.12328778005 0.12085646915 0.11716670579 0.11265372302 0.10779815184 
0.10308365724 0.098953152634 0.095761268991 0.093729578421 0.092922887703 0.093262620698 0.094571891077 0.09662769329 0.099199203946 
0.10206666289 0.10502512997 0.10788368835 0.11047295813 0.11266347159 0.11438535084 0.11563945902 0.11649791425 0.11709975028 
0.11764984873 0.11842669355 0.11977483766 0.12194591063 0.12496361164 0.12878025489 0.13333321497 0.13852222286 0.14419860654 
0.15017113068 0.15622376252 0.16213988545 0.16772677208 0.17283415432 0.17736184299 0.1812542933 0.18448452598 0.18703378201 
0.18887410144 0.18995859427 0.19022116786 0.18958546854 0.18798119866 0.1853646451 0.18173975142 0.17717595282 0.17181817586 
0.16588262653 0.15963069247 0.15331734604 0.14712744767 0.1411348078 0.13530899369 0.12955377014 0.12374474464 0.11775350121 
0.11146418726 0.10479016279 0.097690796879 0.090182179724 0.082335447656 0.074261467892 0.066086683301 0.057929404779 0.049887514604 
0.042044223873 0.034486908512 0.027324531378 0.020692435533 0.014743919365 0.0096346042967 0.0055062414488 0.0024745239416 0.00062268324169 
2.9231896854e-17 
