# vtk DataFile Version 5.1
vtk output
ASCII
DATASET POLYDATA
POINTS 100 float
0.0745551 0.057462 -0.680808 0.0746236 0.0573695 -0.680696 0.0747968 0.0568878 -0.680314 
0.0750521 0.0560096 -0.679597 0.0753533 0.0547239 -0.678447 0.0756539 0.0530183 -0.676744 
0.0758996 0.0508804 -0.674365 0.0760318 0.0483 -0.671201 0.075991 0.0452716 -0.667166 
0.0757185 0.0417964 -0.662213 0.0751586 0.0378833 -0.656336 0.0742589 0.0335506 -0.649573 
0.0729705 0.0288261 -0.641994 0.0712478 0.0237469 -0.633696 0.0690478 0.0183587 -0.624782 
0.0663302 0.0127145 -0.615351 0.0630585 0.0068728 -0.605479 0.0592008 0.000896301 -0.595209 
0.0547335 -0.00515014 -0.584543 0.0496435 -0.0112009 -0.573443 0.0439324 -0.0171907 -0.561833 
0.0376198 -0.0230559 -0.549612 0.0307455 -0.0287345 -0.536662 0.0233704 -0.0341669 -0.522873 
0.015576 -0.0392958 -0.508152 0.00746052 -0.0440662 -0.492437 -0.000865747 -0.0484259 -0.475709 
-0.00928802 -0.0523254 -0.457993 -0.017695 -0.0557192 -0.439356 -0.0259872 -0.0585662 -0.419901 
-0.0340847 -0.0608316 -0.399749 -0.0419323 -0.0624882 -0.37903 -0.0495029 -0.0635182 -0.357862 
-0.0567964 -0.0639146 -0.336339 -0.0638363 -0.0636827 -0.314519 -0.0706614 -0.0628406 -0.292418 
-0.0773168 -0.0614196 -0.270012 -0.0838414 -0.0594637 -0.24724 -0.0902566 -0.0570277 -0.224022 
-0.0965559 -0.054176 -0.200265 -0.102697 -0.050979 -0.175888 -0.108599 -0.0475106 -0.150837 
-0.114141 -0.0438452 -0.125095 -0.11917 -0.0400541 -0.0986952 -0.123511 -0.0362035 -0.0717236 
-0.126981 -0.0323521 -0.0443155 -0.129402 -0.0285503 -0.0166476 -0.130624 -0.0248395 0.0110753 
-0.130533 -0.0212531 0.0386372 -0.129068 -0.0178175 0.0658279 -0.12623 -0.014554 0.0924598 
-0.122079 -0.011481 0.118381 -0.116735 -0.00861593 0.143486 -0.110366 -0.00597717 0.167714 
-0.103177 -0.00358518 0.191056 -0.0953931 -0.00146302 0.213537 -0.0872379 0.000363995 0.235216 
-0.0789206 0.00186944 0.256164 -0.0706184 0.00302764 0.27646 -0.062466 0.00381597 0.296169 
-0.0545493 0.0042174 0.315345 -0.0469049 0.00422287 0.334015 -0.0395243 0.00383332 0.352188 
-0.0323636 0.00306092 0.36985 -0.025355 0.00192954 0.386977 -0.0184211 0.000474066 0.40354 
-0.0114887 -0.00126108 0.419513 -0.0045008 -0.00322443 0.434884 0.00257446 -0.00536046 0.449655 
0.00973832 -0.00761293 0.463847 0.0169607 -0.00992826 0.477501 0.0241833 -0.0122584 0.490667 
0.0313264 -0.0145631 0.503402 0.0382977 -0.0168113 0.515757 0.0450025 -0.0189814 0.527774 
0.0513539 -0.0210608 0.539472 0.0572807 -0.0230437 0.550847 0.0627338 -0.0249295 0.561866 
0.0676893 -0.0267198 0.572473 0.0721484 -0.0284157 0.582593 0.0761344 -0.0300154 0.592139 
0.0796878 -0.0315131 0.601021 0.0828595 -0.0328972 0.60916 0.0857046 -0.0341517 0.616494 
0.088275 -0.0352567 0.622986 0.0906155 -0.0361906 0.628629 0.0927598 -0.0369333 0.633446 
0.0947298 -0.0374689 0.637487 0.0965359 -0.0377889 0.640826 0.0981799 -0.0378945 0.643551 
0.0996577 -0.0377986 0.645756 0.100963 -0.0375261 0.647534 0.102091 -0.0371134 0.648968 
0.103041 -0.0366065 0.650128 0.103814 -0.0360581 0.651068 0.104419 -0.0355232 0.651823 
0.104867 -0.0350557 0.652415 0.10517 -0.0347029 0.652855 0.105339 -0.0345024 0.653145 
0.105381 -0.0344782 0.653284 
LINES 2 100
OFFSETS vtktypeint64
0 100 
CONNECTIVITY vtktypeint64
0 1 2 3 4 5 6 7 8 
9 10 11 12 13 14 15 16 17 
18 19 20 21 22 23 24 25 26 
27 28 29 30 31 32 33 34 35 
36 37 38 39 40 41 42 43 44 
45 46 47 48 49 50 51 52 53 
54 55 56 57 58 59 60 61 62 
63 64 65 66 67 68 69 70 71 
72 73 74 75 76 77 78 79 80 
81 82 83 84 85 86 87 88 89 
90 91 92 93 94 95 96 97 98 
99 
POINT_DATA 100
FIELD FieldData 3
_theta 1 100 double
0 0.031733259127 0.063466518254 0.095199777382 0.12693303651 0.15866629564 0.19039955476 0.22213281389 0.25386607302 
0.28559933214 0.31733259127 0.3490658504 0.38079910953 0.41253236865 0.44426562778 0.47599888691 0.50773214603 0.53946540516 
0.57119866429 0.60293192342 0.63466518254 0.66639844167 0.6981317008 0.72986495992 0.76159821905 0.79333147818 0.82506473731 
0.85679799643 0.88853125556 0.92026451469 0.95199777382 0.98373103294 1.0154642921 1.0471975512 1.0789308103 1.1106640695 
1.1423973286 1.1741305877 1.2058638468 1.237597106 1.2693303651 1.3010636242 1.3327968833 1.3645301425 1.3962634016 
1.4279966607 1.4597299198 1.491463179 1.5231964381 1.5549296972 1.5866629564 1.6183962155 1.6501294746 1.6818627337 
1.7135959929 1.745329252 1.7770625111 1.8087957702 1.8405290294 1.8722622885 1.9039955476 1.9357288068 1.9674620659 
1.999195325 2.0309285841 2.0626618433 2.0943951024 2.1261283615 2.1578616206 2.1895948798 2.2213281389 2.253061398 
2.2847946572 2.3165279163 2.3482611754 2.3799944345 2.4117276937 2.4434609528 2.4751942119 2.506927471 2.5386607302 
2.5703939893 2.6021272484 2.6338605076 2.6655937667 2.6973270258 2.7290602849 2.7607935441 2.7925268032 2.8242600623 
2.8559933214 2.8877265806 2.9194598397 2.9511930988 2.982926358 3.0146596171 3.0463928762 3.0781261353 3.1098593945 
3.1415926536 
_radius 1 100 double
1.5515838458e-16 0.014492450046 0.028883223462 0.043073567892 0.056977748914 0.070525782181 0.083662439444 0.096342735433 0.10852503779 
0.12016363162 0.13120276067 0.14157377436 0.15119617924 0.15998243439 0.16784556056 0.17470823796 0.18051204677 0.18522572381 
0.1888515981 0.1914296064 0.19303844504 0.19379353678 0.19384166851 0.19335244556 0.19250709389 0.19148553236 0.19045294023 
0.18954722484 0.18886884274 0.18847427261 0.18837397231 0.18853492176 0.18888716315 0.18933342794 0.18976100704 0.19005517427 
0.19011338426 0.1898590867 0.18925357594 0.18830412619 0.18706689538 0.18564372486 0.18417299035 0.18281594964 0.18174120718 
0.18111035573 0.18106705586 0.18172989863 0.18318736218 0.18549245328 0.18865597709 0.19263999459 0.19735492488 0.20266332274 
0.20839085585 0.21434230424 0.22031917165 0.2261358799 0.23163263145 0.23668408402 0.24120371732 0.24514422705 0.24849454428 
0.25127419685 0.25352574083 0.25530594783 0.25667640417 0.25769420298 0.2584034864 0.25882866379 0.25897010503 0.25880290159 
0.25827887754 0.25733148817 0.25588273201 0.25385090258 0.25115800831 0.24773595345 0.24353097108 0.23850619082 0.23264250626 
0.22593804199 0.21840652783 0.21007483008 0.20097983614 0.19116489468 0.18067608975 0.16955874128 0.15785460678 0.14560024243 
0.13282683385 0.11956155272 0.10583020057 0.091660647234 0.077086419064 0.062149771444 0.046903682881 0.031412402155 0.015750421756 
1.2497442085e-15 
_area 1 100 double
0 0.00058176503229 0.0023119367413 0.0051457015334 0.0090102192458 0.013807341931 0.019417202155 0.025702247765 0.032511029151 
0.039680932959 0.047039387206 0.054403995215 0.061583206939 0.068379566726 0.074596713131 0.080049750136 0.084577528015 0.088055313935 
0.090406889252 0.091615407842 0.091731745761 0.090877667086 0.089239996196 0.087053744466 0.084579493888 0.082090785436 0.079891382942 
0.078241278636 0.077227018655 0.076867123012 0.077139649107 0.077960842404 0.079198542259 0.080693502744 0.082266689207 0.083717037715 
0.084926152479 0.085795621705 0.086317579037 0.086580938337 0.086775054578 0.087038700152 0.087371799453 0.087909079904 0.088737956034 
0.089888002942 0.091377878671 0.093259560886 0.095630508051 0.098623141387 0.10238448952 0.1070470815 0.11268724089 0.11927797291 
0.12666261276 0.13457191436 0.14267073618 0.15060637874 0.15804925677 0.16472574559 0.1704404024 0.17508663651 0.17864844583 
0.18119439012 0.18286154559 0.18382728209 0.18427178098 0.18434181321 0.18412823498 0.18366037241 0.18291084495 0.18180498331 
0.18023364895 0.17806947579 0.17518504031 0.17147021827 0.16684615652 0.16127439423 0.15476079943 0.14735468621 0.13914390174 
0.13024707522 0.12080448972 0.1109688672 0.10089675928 0.090740669876 0.080642046622 0.070726031745 0.06109977941 0.051855873822 
0.043079956986 0.03485864354 0.027283568489 0.020450581973 0.014456198795 0.0093936920667 0.005349517815 0.0023993643897 0.00060322170689 
1.1302702588e-17 
