# vtk DataFile Version 5.1
vtk output
ASCII
DATASET POLYDATA
POINTS 100 float
0.101344 0.0587134 -0.617402 0.101123 0.0586689 -0.617265 0.100443 0.0583337 -0.616804 
0.0993615 0.0577103 -0.615957 0.0979668 0.0568025 -0.61463 0.0963699 0.0556135 -0.612713 
0.0946921 0.054143 -0.610092 0.0930516 0.0523864 -0.606668 0.0915499 0.0503328 -0.602372 
0.0902599 0.0479659 -0.597173 0.0892159 0.0452652 -0.591087 0.0884077 0.0422089 -0.584178 
0.0877782 0.038778 -0.576546 0.0872262 0.034961 -0.568324 0.0866136 0.0307579 -0.559653 
0.085776 0.0261846 -0.550673 0.0845368 0.0212748 -0.541501 0.0827225 0.0160806 -0.532213 
0.0801783 0.0106712 -0.522842 0.0767824 0.00512932 -0.513364 0.0724574 -0.000454405 -0.503703 
0.0671777 -0.00598737 -0.493739 0.0609721 -0.0113818 -0.483317 0.0539212 -0.0165608 -0.472268 
0.0461504 -0.021463 -0.460425 0.0378178 -0.0260455 -0.447638 0.0290997 -0.0302841 -0.433797 
0.0201753 -0.034171 -0.418834 0.01121 -0.0377113 -0.402739 0.00234268 -0.0409166 -0.385549 
-0.00632509 -0.043799 -0.367351 -0.0147341 -0.0463651 -0.348267 -0.0228677 -0.0486108 -0.32844 
-0.0307468 -0.0505186 -0.30802 -0.0384196 -0.0520573 -0.287146 -0.0459479 -0.0531838 -0.265936 
-0.053392 -0.0538484 -0.244474 -0.0607945 -0.0540009 -0.22281 -0.0681666 -0.0535981 -0.200957 
-0.0754774 -0.0526116 -0.178896 -0.0826487 -0.0510344 -0.156591 -0.0895551 -0.0488845 -0.133993 
-0.0960306 -0.0462075 -0.111059 -0.10188 -0.0430749 -0.0877622 -0.106894 -0.03958 -0.0641009 
-0.11087 -0.0358311 -0.0401077 -0.113629 -0.0319433 -0.0158506 -0.115034 -0.0280296 0.0085683 
-0.115006 -0.0241927 0.0330187 -0.11353 -0.0205181 0.0573508 -0.110658 -0.0170698 0.0814057 
-0.106507 -0.0138888 0.105028 -0.101248 -0.0109945 0.128074 -0.095092 -0.00838913 0.150427 
-0.0882692 -0.00606314 0.171995 -0.0810104 -0.00400249 0.192721 -0.0735272 -0.0021951 0.212583 
-0.0659956 -0.000636277 0.231586 -0.0585436 0.000668025 0.249763 -0.0512449 0.00170061 0.267167 
-0.0441183 0.00243517 0.283864 -0.0371342 0.00284091 0.299924 -0.0302246 0.00288882 0.315422 
-0.0232983 0.00255878 0.330428 -0.0162571 0.00184614 0.345007 -0.00901257 0.000766792 0.359218 
-0.00149997 -0.000640291 0.373112 0.00631038 -0.00231356 0.386735 0.0144071 -0.00417269 0.400129 
0.0227366 -0.00612525 0.41333 0.0312072 -0.00807549 0.426368 0.0396976 -0.00993421 0.439268 
0.0480682 -0.0116282 0.452047 0.0561745 -0.0131083 0.464709 0.0638805 -0.0143537 0.477248 
0.0710702 -0.0153744 0.48964 0.0776566 -0.0162076 0.501846 0.0835872 -0.0169117 0.513809 
0.0888453 -0.017557 0.525458 0.0934476 -0.0182143 0.536709 0.0974381 -0.0189437 0.547471 
0.100881 -0.0197838 0.55765 0.10385 -0.0207448 0.567156 0.106422 -0.0218044 0.57591 
0.108668 -0.0229089 0.583849 0.110645 -0.0239789 0.590929 0.112399 -0.0249186 0.59713 
0.113958 -0.0256281 0.602457 0.115338 -0.0260177 0.606938 0.116546 -0.0260208 0.610623 
0.117582 -0.025605 0.613582 0.118446 -0.0247795 0.615895 0.119141 -0.0235975 0.617653 
0.119676 -0.0221529 0.61895 0.120065 -0.0205725 0.619878 0.120329 -0.0190035 0.62052 
0.120491 -0.0175978 0.620951 0.120575 -0.0164958 0.621232 0.1206 -0.0158108 0.621407 
0.120582 -0.0156163 0.621504 
LINES 2 100
OFFSETS vtktypeint64
0 100 
CONNECTIVITY vtktypeint64
0 1 2 3 4 5 6 7 8 
9 10 11 12 13 14 15 16 17 
18 19 20 21 22 23 24 25 26 
27 28 29 30 31 32 33 34 35 
36 37 38 39 40 41 42 43 44 
45 46 47 48 49 50 51 52 53 
54 55 56 57 58 59 60 61 62 
63 64 65 66 67 68 69 70 71 
72 73 74 75 76 77 78 79 80 
81 82 83 84 85 86 87 88 89 
90 91 92 93 94 95 96 97 98 
99 
POINT_DATA 100
FIELD FieldData 3
_theta 1 100 double
0 0.031733259127 0.063466518254 0.095199777382 0.12693303651 0.15866629564 0.19039955476 0.22213281389 0.25386607302 
0.28559933214 0.31733259127 0.3490658504 0.38079910953 0.41253236865 0.44426562778 0.47599888691 0.50773214603 0.53946540516 
0.57119866429 0.60293192342 0.63466518254 0.66639844167 0.6981317008 0.72986495992 0.76159821905 0.79333147818 0.82506473731 
0.85679799643 0.88853125556 0.92026451469 0.95199777382 0.98373103294 1.0154642921 1.0471975512 1.0789308103 1.1106640695 
1.1423973286 1.1741305877 1.2058638468 1.237597106 1.2693303651 1.3010636242 1.3327968833 1.3645301425 1.3962634016 
1.4279966607 1.4597299198 1.491463179 1.5231964381 1.5549296972 1.5866629564 1.6183962155 1.6501294746 1.6818627337 
1.7135959929 1.745329252 1.7770625111 1.8087957702 1.8405290294 1.8722622885 1.9039955476 1.9357288068 1.9674620659 
1.999195325 2.0309285841 2.0626618433 2.0943951024 2.1261283615 2.1578616206 2.1895948798 2.2213281389 2.253061398 
2.2847946572 2.3165279163 2.3482611754 2.3799944345 2.4117276937 2.4434609528 2.4751942119 2.506927471 2.5386607302 
2.5703939893 2.6021272484 2.6338605076 2.6655937667 2.6973270258 2.7290602849 2.7607935441 2.7925268032 2.8242600623 
2.8559933214 2.8877265806 2.9194598397 2.9511930988 2.982926358 3.0146596171 3.0463928762 3.0781261353 3.1098593945 
3.1415926536 
_radius 1 100 double
1.2291051413e-15 0.014011067516 0.027893138229 0.041526226713 0.054815642486 0.067699675763 0.080151985899 0.092178180391 0.1038070362 
0.11507774849 0.12602525837 0.13666595612 0.14698590526 0.15693334441 0.16641673348 0.17530902374 0.18345808588 0.1907023372 
0.19688972088 0.20189753341 0.20565034901 0.20813350593 0.20940022599 0.20957129023 0.20882713002 0.20739308943 0.20551939626 
0.20345801427 0.20143901453 0.19964934531 0.19821678661 0.19720131306 0.19659502948 0.19633049879 0.19629606736 0.19635602492 
0.196373085 0.1962305051 0.19585108571 0.1952104355 0.19434246517 0.19333617431 0.19232438866 0.19146693594 0.19093215662 
0.19088066824 0.19145346163 0.19276359809 0.19488892935 0.19786373952 0.20166959739 0.20622823623 0.21140021584 0.21699193689 
0.22277109341 0.22848826169 0.23390101134 0.2387968189 0.24301174062 0.24644277217 0.24905281099 0.2508680571 0.25196852788 
0.25247310267 0.25252111146 0.25225286769 0.25179163663 0.25122926172 0.2506170549 0.24996270521 0.2492330428 0.24836166572 
0.24725981141 0.24582852676 0.24397022143 0.24159806381 0.23864228536 0.23505312884 0.23080074897 0.22587276003 0.22027030945 
0.21400356931 0.20708741071 0.19953779081 0.19136909049 0.18259238473 0.17321450335 0.16323778265 0.15266055844 0.1414785744 
0.12968745601 0.11728619962 0.10428133252 0.090691155589 0.076549392617 0.061907654497 0.046836321447 0.031423671881 0.015773294371 
9.8324908434e-16 
_area 1 100 double
0 0.0005344874346 0.0021199783953 0.0047053296713 0.008213834644 0.012553744732 0.017629051768 0.023347884262 0.029626703014 
0.036389872489 0.043565449167 0.051078513379 0.058843081098 0.066753271589 0.074674707174 0.082438137402 0.089838274077 0.096640760202 
0.10259850725 0.10747577714 0.11107572157 0.11326601454 0.11399809212 0.11331746977 0.11136446566 0.10836591539 0.10461917956 
0.1004698953 0.096284341811 0.092416307654 0.089168628309 0.086754057294 0.085268260299 0.084688410797 0.084896313385 0.085711820148 
0.0869261443 0.088334301841 0.089767542571 0.091122853057 0.092383238826 0.09361672098 0.094937799162 0.096446341199 0.09820795968 
0.10028500725 0.10274366294 0.10563465075 0.1090194011 0.11299935506 0.11769743353 0.123211333 0.12956398198 0.13666746763 
0.14431003864 0.15216950419 0.15985039214 0.16693662489 0.17304808001 0.17788950869 0.18128333123 0.18318246235 0.18366375209 
0.18290541774 0.18115327015 0.17868182952 0.17575732915 0.17260846941 0.16940738882 0.16625990166 0.16320297216 0.16020880267 
0.15719646373 0.15405099165 0.15064648065 0.14686709496 0.14262078582 0.1378442683 0.13250166144 0.12658076526 0.12009008012 
0.11305780515 0.10553247382 0.097583974498 0.089303389419 0.080800291129 0.072196787342 0.063618758145 0.055186487124 0.047008502494 
0.039181817697 0.031797919838 0.024949939524 0.018736317435 0.013259262117 0.0086191693615 0.004907436846 0.0021999811992 0.00055283419356 
2.7755575616e-17 
