# vtk DataFile Version 5.1
vtk output
ASCII
DATASET POLYDATA
POINTS 100 float
0.091878 -0.0112346 -0.654387 0.0916835 -0.0110242 -0.654349 0.0911186 -0.0105595 -0.654209 
0.0901774 -0.00988611 -0.653856 0.0888519 -0.00907667 -0.653122 0.0871341 -0.00822618 -0.651801 
0.0850193 -0.00744566 -0.649674 0.0825079 -0.00685459 -0.646535 0.0796071 -0.00657261 -0.642218 
0.0763304 -0.00671077 -0.636616 0.0726968 -0.00736318 -0.629688 0.0687277 -0.00859944 -0.62147 
0.0644434 -0.0104586 -0.612061 0.0598596 -0.0129451 -0.601617 0.0549839 -0.0160272 -0.590324 
0.0498144 -0.0196382 -0.578382 0.0443398 -0.0236801 -0.565977 0.0385415 -0.0280299 -0.553262 
0.0323981 -0.0325483 -0.540345 0.0258916 -0.0370888 -0.527277 0.019014 -0.0415083 -0.514055 
0.0117741 -0.0456767 -0.50063 0.00420194 -0.0494851 -0.486919 -0.00364814 -0.0528521 -0.472823 
-0.0116989 -0.0557269 -0.458245 -0.0198549 -0.05809 -0.443106 -0.0280103 -0.0599501 -0.427361 
-0.0360603 -0.0613384 -0.411001 -0.0439137 -0.0623014 -0.394057 -0.0515044 -0.0628919 -0.376592 
-0.0588026 -0.0631604 -0.358687 -0.0658208 -0.0631467 -0.340428 -0.072615 -0.0628745 -0.321891 
-0.0792804 -0.0623473 -0.303119 -0.0859407 -0.0615485 -0.284119 -0.0927321 -0.060444 -0.264853 
-0.0997836 -0.0589871 -0.245237 -0.107196 -0.0571267 -0.225153 -0.115021 -0.0548154 -0.204462 
-0.123246 -0.0520184 -0.183024 -0.131782 -0.0487208 -0.160715 -0.140462 -0.0449341 -0.137452 
-0.149044 -0.0406984 -0.113204 -0.157233 -0.0360833 -0.0880074 -0.164693 -0.0311838 -0.061968 
-0.171081 -0.0261157 -0.0352563 -0.176079 -0.0210067 -0.00809714 -0.179414 -0.0159879 0.019248 
-0.180896 -0.0111846 0.0465022 -0.180423 -0.00670783 0.0733953 -0.178003 -0.00264777 0.0996858 
-0.173743 0.000930508 0.125178 -0.167844 0.00398877 0.149735 -0.160576 0.00651473 0.173281 
-0.152258 0.00851895 0.195806 -0.14322 0.0100301 0.21735 -0.133777 0.0110893 0.237997 
-0.124201 0.0117447 0.257856 -0.114699 0.0120464 0.277046 -0.105403 0.0120428 0.295678 
-0.0963642 0.0117788 0.313849 -0.0875646 0.0112951 0.33163 -0.0789282 0.0106293 0.349065 
-0.0703446 0.00981779 0.366176 -0.0616937 0.00889797 0.382963 -0.0528697 0.00791013 0.39942 
-0.0438022 0.00689839 0.415537 -0.0344723 0.00591036 0.431312 -0.0249189 0.00499539 0.446755 
-0.0152387 0.00420133 0.461891 -0.00557678 0.00357041 0.476754 0.00388923 0.0031347 0.491388 
0.0129689 0.00291188 0.50583 0.0214806 0.00290211 0.52011 0.0292718 0.00308657 0.534235 
0.0362355 0.00342824 0.548182 0.04232 0.00387486 0.561899 0.0475325 0.00436412 0.5753 
0.0519347 0.00483038 0.588271 0.055632 0.00521237 0.600679 0.0587582 0.00546069 0.612381 
0.0614573 0.00554431 0.623241 0.063866 0.00545507 0.633141 0.0660975 0.00520951 0.64199 
0.0682307 0.00484764 0.649737 0.070305 0.00442865 0.656374 0.0723206 0.00402405 0.661934 
0.0742449 0.00370892 0.666491 0.0760238 0.00355226 0.670147 0.0775947 0.00360787 0.673024 
0.0789003 0.00390659 0.675256 0.0799012 0.00445127 0.67697 0.0805836 0.00521487 0.678283 
0.080964 0.00614228 0.679293 0.0810872 0.00715555 0.680077 0.0810206 0.00816204 0.680687 
0.0808436 0.00906457 0.681157 0.080636 0.00977232 0.681506 0.0804657 0.0102111 0.68174 
0.0803778 0.0103321 0.681863 
LINES 2 100
OFFSETS vtktypeint64
0 100 
CONNECTIVITY vtktypeint64
0 1 2 3 4 5 6 7 8 
9 10 11 12 13 14 15 16 17 
18 19 20 21 22 23 24 25 26 
27 28 29 30 31 32 33 34 35 
36 37 38 39 40 41 42 43 44 
45 46 47 48 49 50 51 52 53 
54 55 56 57 58 59 60 61 62 
63 64 65 66 67 68 69 70 71 
72 73 74 75 76 77 78 79 80 
81 82 83 84 85 86 87 88 89 
90 91 92 93 94 95 96 97 98 
99 
POINT_DATA 100
FIELD FieldData 3
_theta 1 100 double
0 0.031733259127 0.063466518254 0.095199777382 0.12693303651 0.15866629564 0.19039955476 0.22213281389 0.25386607302 
0.28559933214 0.31733259127 0.3490658504 0.38079910953 0.41253236865 0.44426562778 0.47599888691 0.50773214603 0.53946540516 
0.57119866429 0.60293192342 0.63466518254 0.66639844167 0.6981317008 0.72986495992 0.76159821905 0.79333147818 0.82506473731 
0.85679799643 0.88853125556 0.92026451469 0.95199777382 0.98373103294 1.0154642921 1.0471975512 1.0789308103 1.1106640695 
1.1423973286 1.1741305877 1.2058638468 1.237597106 1.2693303651 1.3010636242 1.3327968833 1.3645301425 1.3962634016 
1.4279966607 1.4597299198 1.491463179 1.5231964381 1.5549296972 1.5866629564 1.6183962155 1.6501294746 1.6818627337 
1.7135959929 1.745329252 1.7770625111 1.8087957702 1.8405290294 1.8722622885 1.9039955476 1.9357288068 1.9674620659 
1.999195325 2.0309285841 2.0626618433 2.0943951024 2.1261283615 2.1578616206 2.1895948798 2.2213281389 2.253061398 
2.2847946572 2.3165279163 2.3482611754 2.3799944345 2.4117276937 2.4434609528 2.4751942119 2.506927471 2.5386607302 
2.5703939893 2.6021272484 2.6338605076 2.6655937667 2.6973270258 2.7290602849 2.7607935441 2.7925268032 2.8242600623 
2.8559933214 2.8877265806 2.9194598397 2.9511930988 2.982926358 3.0146596171 3.0463928762 3.0781261353 3.1098593945 
3.1415926536 
_radius 1 100 double
9.9935129445e-16 0.016768973841 0.033245235472 0.049154187873 0.064256908363 0.078365666294 0.091356159628 0.10317472278 0.1138388942 
0.12343036996 0.13208045369 0.1399494671 0.14720292936 0.15398829974 0.1604163366 0.16655035407 0.17240484213 0.17795259502 
0.18313764432 0.18789065626 0.19214396125 0.19584437235 0.19896278946 0.20150004604 0.20348863327 0.20499004123 0.20608767308 
0.20687573815 0.20744525686 0.20786922046 0.20818974757 0.20841030239 0.20849529099 0.20837764668 0.20797292556 0.20719681717 
0.20598244871 0.20429447474 0.20213825075 0.19956376709 0.19666495853 0.1935753023 0.19046047163 0.18750870011 0.1849197765 
0.18289390785 0.18162115052 0.18127043746 0.18197580067 0.18381818866 0.18680491852 0.19085361935 0.19578973549 0.20136270325 
0.20727729478 0.21323018199 0.21894204488 0.22418018762 0.22877101209 0.23260392745 0.23562890809 0.23784988836 0.23931590492 
0.24011141423 0.24034655774 0.24014750521 0.23964662589 0.2389722746 0.23823838851 0.23753465388 0.2369184609 0.23641000801 
0.23599157327 0.23561105928 0.23518867506 0.23462468304 0.23380612845 0.23261144272 0.23091323812 0.22858074211 0.22548360164 
0.22149809366 0.21651549132 0.21045113483 0.20325220141 0.19490240571 0.18542266283 0.1748677399 0.16331977177 0.1508800057 
0.1376601989 0.12377480754 0.10933467365 0.094442529451 0.079190378254 0.063658635761 0.047916758409 0.032024946147 0.01603644103 
6.4643055334e-16 
_area 1 100 double
0 0.00056407858106 0.0022538307758 0.005053395062 0.0089131096654 0.013728800878 0.019332918948 0.025503985949 0.031992837865 
0.038558111754 0.045001175876 0.051191350946 0.057074327181 0.062659828678 0.067989742347 0.073095426747 0.077959940045 0.082501731928 
0.086587436233 0.0900672267 0.09281637568 0.094766578965 0.095918267399 0.096335285821 0.096130978899 0.095457411434 0.094513219624 
0.09364356493 0.093061160937 0.092928442486 0.093381464318 0.094479195731 0.096025624886 0.097710151826 0.099187804755 0.10015540253 
0.10041107753 0.099880521158 0.098611130067 0.096753435586 0.094545222849 0.092293695327 0.090339623002 0.088982799875 0.088383351439 
0.088540283971 0.089389376884 0.090899666987 0.093108360326 0.096107297464 0.10000700265 0.10487439746 0.11067016065 0.1172183985 
0.12422154953 0.13131224325 0.13811567667 0.1443012385 0.1496160416 0.15389912756 0.15707668991 0.15914323751 0.16014020091 
0.16014436867 0.1592701218 0.15767755641 0.15557138949 0.1531791004 0.1507153579 0.14835617493 0.14622733279 0.1443891946 
0.14281889844 0.14140904573 0.14000200447 0.13844393358 0.13661279456 0.13441101686 0.13174263138 0.12849444832 0.12453377598 
0.11972440479 0.1139534194 0.1071600007 0.099359532122 0.090657325779 0.081247486192 0.07139558236 0.06140810114 0.051595537486 
0.042238312022 0.033564290386 0.025742056055 0.018886411364 0.013068055332 0.008322233175 0.0046565512292 0.0020599670062 0.00051335781504 
3.5670671677e-17 
