# vtk DataFile Version 5.1
vtk output
ASCII
DATASET POLYDATA
POINTS 100 float
0.0940181 -0.024052 0.631483 0.0940819 -0.0239405 0.631563 0.094209 -0.0237352 0.631902 
0.0943825 -0.0234413 0.632448 0.094576 -0.0230685 0.633121 0.094756 -0.0226306 0.633814 
0.0948859 -0.0221454 0.634402 0.0949291 -0.0216334 0.63475 0.0948525 -0.0211169 0.634719 
0.0946287 -0.020618 0.634175 0.0942376 -0.0201567 0.632996 0.0936663 -0.0197486 0.631076 
0.0929077 -0.019403 0.62833 0.0919587 -0.0191213 0.624698 0.0908165 -0.0188958 0.620144 
0.0894761 -0.0187099 0.614656 0.0879266 -0.0185388 0.608247 0.0861493 -0.0183518 0.600946 
0.0841168 -0.0181148 0.592804 0.0817931 -0.0177937 0.58388 0.0791355 -0.0173582 0.574246 
0.0760981 -0.0167849 0.563978 0.0726359 -0.0160597 0.553153 0.0687095 -0.0151797 0.541848 
0.0642897 -0.0141529 0.530136 0.0593619 -0.0129971 0.518082 0.0539283 -0.0117378 0.505743 
0.0480088 -0.0104042 0.493168 0.0416404 -0.00902608 0.480393 0.0348738 -0.00762967 0.467443 
0.0277693 -0.00623524 0.454332 0.0203906 -0.00485541 0.44106 0.0127989 -0.0034953 0.427621 
0.00504739 -0.00215436 0.413995 -0.00282403 -0.000829771 0.400157 -0.0107909 0.000478972 0.386074 
-0.018845 0.00176503 0.37171 -0.0269916 0.00300946 0.357024 -0.0352452 0.0041776 0.341974 
-0.0436222 0.0052173 0.326519 -0.0521324 0.0060597 0.310614 -0.0607701 0.00662254 0.294219 
-0.0695059 0.00681623 0.277295 -0.0782793 0.00655197 0.259801 -0.0869948 0.00575123 0.241704 
-0.0955209 0.00435545 0.222968 -0.103693 0.00233484 0.203567 -0.111321 -0.000304951 0.183479 
-0.118197 -0.00351926 0.162693 -0.12411 -0.00722466 0.141207 -0.128863 -0.0113032 0.119038 
-0.13228 -0.0156107 0.0962203 -0.134228 -0.0199875 0.0728067 -0.134623 -0.0242721 0.0488734 
-0.133438 -0.0283146 0.0245174 -0.130708 -0.0319892 -0.000144964 -0.126526 -0.0352047 -0.0249816 
-0.121037 -0.037911 -0.0498506 -0.114425 -0.0401004 -0.0746065 -0.106904 -0.0418049 -0.0991089 
-0.0986966 -0.0430888 -0.12323 -0.0900196 -0.044037 -0.146861 -0.0810695 -0.0447415 -0.169922 
-0.072009 -0.0452867 -0.192361 -0.0629582 -0.0457359 -0.214159 -0.0539906 -0.0461202 -0.235327 
-0.0451333 -0.046432 -0.255902 -0.0363728 -0.0466225 -0.275941 -0.0276636 -0.0466049 -0.295509 
-0.0189408 -0.0462625 -0.314672 -0.0101337 -0.0454605 -0.333487 -0.00117968 -0.0440605 -0.35199 
0.00796317 -0.041936 -0.370193 0.0173062 -0.0389865 -0.388076 0.0268239 -0.0351496 -0.405589 
0.0364517 -0.0304087 -0.422655 0.0460883 -0.0247963 -0.439173 0.0556015 -0.0183919 -0.455031 
0.064838 -0.0113154 -0.470115 0.0736349 -0.00371701 -0.484319 0.0818321 0.00423591 -0.497556 
0.0892849 0.0123724 -0.509767 0.095875 0.0205306 -0.520926 0.101518 0.0285689 -0.531044 
0.106171 0.0363726 -0.540163 0.109831 0.0438577 -0.548356 0.112535 0.05097 -0.555716 
0.114357 0.0576808 -0.562345 0.115399 0.0639795 -0.568346 0.115783 0.0698654 -0.573809 
0.115641 0.0753387 -0.578806 0.115109 0.0803932 -0.583381 0.114319 0.0850105 -0.58755 
0.113391 0.0891581 -0.591302 0.112429 0.0927901 -0.5946 0.111524 0.0958506 -0.597394 
0.110744 0.09828 -0.599622 0.110144 0.100022 -0.601228 0.109761 0.101031 -0.602165 
0.109619 0.101277 -0.602404 
LINES 2 100
OFFSETS vtktypeint64
0 100 
CONNECTIVITY vtktypeint64
0 1 2 3 4 5 6 7 8 
9 10 11 12 13 14 15 16 17 
18 19 20 21 22 23 24 25 26 
27 28 29 30 31 32 33 34 35 
36 37 38 39 40 41 42 43 44 
45 46 47 48 49 50 51 52 53 
54 55 56 57 58 59 60 61 62 
63 64 65 66 67 68 69 70 71 
72 73 74 75 76 77 78 79 80 
81 82 83 84 85 86 87 88 89 
90 91 92 93 94 95 96 97 98 
99 
POINT_DATA 100
FIELD FieldData 3
_theta 1 100 double
0 0.031733259127 0.063466518254 0.095199777382 0.12693303651 0.15866629564 0.19039955476 0.22213281389 0.25386607302 
0.28559933214 0.31733259127 0.3490658504 0.38079910953 0.41253236865 0.44426562778 0.47599888691 0.50773214603 0.53946540516 
0.57119866429 0.60293192342 0.63466518254 0.66639844167 0.6981317008 0.72986495992 0.76159821905 0.79333147818 0.82506473731 
0.85679799643 0.88853125556 0.92026451469 0.95199777382 0.98373103294 1.0154642921 1.0471975512 1.0789308103 1.1106640695 
1.1423973286 1.1741305877 1.2058638468 1.237597106 1.2693303651 1.3010636242 1.3327968833 1.3645301425 1.3962634016 
1.4279966607 1.4597299198 1.491463179 1.5231964381 1.5549296972 1.5866629564 1.6183962155 1.6501294746 1.6818627337 
1.7135959929 1.745329252 1.7770625111 1.8087957702 1.8405290294 1.8722622885 1.9039955476 1.9357288068 1.9674620659 
1.999195325 2.0309285841 2.0626618433 2.0943951024 2.1261283615 2.1578616206 2.1895948798 2.2213281389 2.253061398 
2.2847946572 2.3165279163 2.3482611754 2.3799944345 2.4117276937 2.4434609528 2.4751942119 2.506927471 2.5386607302 
2.5703939893 2.6021272484 2.6338605076 2.6655937667 2.6973270258 2.7290602849 2.7607935441 2.7925268032 2.8242600623 
2.8559933214 2.8877265806 2.9194598397 2.9511930988 2.982926358 3.0146596171 3.0463928762 3.0781261353 3.1098593945 
3.1415926536 
_radius 1 100 double
1.0016131714e-15 0.014434378641 0.028977501365 0.043720076987 0.058717057293 0.073975404818 0.089447931276 0.10503414892 0.12058809617 
0.13593205451 0.15087418918 0.16522761097 0.17882827714 0.19154952887 0.20331177231 0.2140866186 0.223895472 0.23280300247 
0.24090624862 0.24832042481 0.2551629135 0.26153732929 0.26751978431 0.27314940697 0.27842467198 0.28330620285 0.28772556762 
0.29159847402 0.29483997822 0.29737904995 0.29917012085 0.30019995414 0.30048909423 0.30008806669 0.29906925575 0.29751592428 
0.29551015651 0.29312160145 0.29039877575 0.28736434905 0.284015305 0.28032819162 0.27626890752 0.27180569114 0.2669232777 
0.26163568877 0.25599501109 0.25009402383 0.24406174603 0.23805266121 0.23223193052 0.22675967856 0.22177721493 0.21739717729 
0.21369849819 0.21072589233 0.2084921236 0.20698006541 0.20614178757 0.20589456445 0.20611757907 0.20665486051 0.20732753195 
0.20795365824 0.20837062595 0.20845465501 0.20813366633 0.20739176982 0.20626531553 0.20483169207 0.20319307504 0.20145810113 
0.19972442255 0.19806398477 0.19651153368 0.19505652372 0.19363924039 0.19215243312 0.19044935892 0.18835808454 0.18570065949 
0.18231462798 0.17807348823 0.17290239723 0.1667858788 0.1597655479 0.15192770817 0.14338279919 0.13424073778 0.12458776251 
0.11447064495 0.10389232892 0.09281965441 0.081200606571 0.068986855328 0.056156920879 0.042735262844 0.028802985837 0.014497362857 
1.3788747975e-15 
_area 1 100 double
0 0.00050780897357 0.0020557052694 0.004710516641 0.0085629717771 0.013700962236 0.020179821215 0.027995830897 0.037069043911 
0.047239970995 0.058281631525 0.0699244114 0.081887377094 0.093907853442 0.10576257263 0.11727833712 0.12833519881 0.1388668866 
0.14886050535 0.15835332733 0.16742258213 0.17616572535 0.18467249496 0.1929942189 0.2011185817 0.20895812739 0.21635774737 
0.22312086759 0.22904759809 0.23397359886 0.23779876101 0.24049973643 0.242126015 0.24278216924 0.24259823923 0.24169196418 
0.24014017492 0.23797781537 0.23521430889 0.23184510555 0.22785369329 0.22321297252 0.21789441993 0.21188633746 0.20521494413 
0.19795903898 0.19025310171 0.18227991445 0.1742546841 0.16640182432 0.1589292236 0.15200799065 0.14576229993 0.1402674294 
0.13555134189 0.13159779388 0.12835296577 0.12573739793 0.12365916627 0.1220204423 0.12071400823 0.1196151679 0.11858065236 
0.1174631369 0.1161380938 0.11453023092 0.1126270809 0.11047001885 0.10811278995 0.10557354838 0.10285592788 0.10001869579 
0.097220467103 0.094726474529 0.092847215735 0.091752296677 0.091376541669 0.091516462013 0.091893847787 0.092174356547 0.091989970938 
0.090989228833 0.088900123414 0.085574479515 0.081003356691 0.075308068887 0.068711755837 0.061496013552 0.053951146293 0.046334770718 
0.038854104021 0.031674444588 0.024938612928 0.018779522729 0.013321534719 0.0086778913212 0.0049493768764 0.0022214533694 0.00055860401472 
8.0022161265e-17 
