# vtk DataFile Version 5.1
vtk output
ASCII
DATASET POLYDATA
POINTS 100 float
0.120442 0.104143 -0.634021 0.12054 0.103714 -0.633866 0.120821 0.102706 -0.633473 
0.121269 0.101137 -0.632821 0.121858 0.0990362 -0.631879 0.122552 0.0964366 -0.630602 
0.1233 0.0933723 -0.628938 0.124037 0.0898738 -0.626831 0.124689 0.0859652 -0.624223 
0.125165 0.0816624 -0.621056 0.125369 0.0769728 -0.617275 0.125197 0.0718977 -0.612828 
0.124544 0.0664357 -0.607669 0.123313 0.0605877 -0.601757 0.121414 0.0543624 -0.595053 
0.118776 0.047781 -0.587523 0.115351 0.0408818 -0.579139 0.111115 0.0337221 -0.569875 
0.106074 0.0263782 -0.559713 0.100261 0.0189432 -0.54864 0.0937377 0.0115225 -0.536652 
0.0865858 0.00422726 -0.523754 0.0789046 -0.00283246 -0.509962 0.070803 -0.00955534 -0.495306 
0.0623919 -0.0158552 -0.479826 0.0537771 -0.0216661 -0.46357 0.0450527 -0.0269449 -0.446597 
0.0362968 -0.0316716 -0.428968 0.0275681 -0.0358475 -0.410743 0.0189061 -0.0394908 -0.391979 
0.0103329 -0.0426309 -0.372725 0.00185683 -0.0453029 -0.353014 -0.00652125 -0.047541 -0.332868 
-0.0148018 -0.0493747 -0.312293 -0.0229797 -0.050825 -0.291283 -0.0310379 -0.0519043 -0.269821 
-0.0389431 -0.0526173 -0.247885 -0.0466421 -0.0529639 -0.225454 -0.0540621 -0.0529435 -0.202514 
-0.0611119 -0.0525593 -0.179064 -0.0676867 -0.0518228 -0.155121 -0.0736738 -0.0507565 -0.130722 
-0.0789599 -0.0493946 -0.10593 -0.0834397 -0.0477826 -0.0808254 -0.0870226 -0.0459742 -0.0555107 
-0.0896398 -0.0440263 -0.0301015 -0.091249 -0.0419939 -0.00472111 -0.0918369 -0.0399242 0.0205052 
-0.0914193 -0.0378518 0.0454576 -0.0900388 -0.0357952 0.0700268 -0.0877606 -0.0337564 0.0941186 
-0.0846666 -0.0317218 0.117656 -0.0808484 -0.0296666 0.140582 -0.0764005 -0.0275611 0.162855 
-0.0714141 -0.0253774 0.184449 -0.065972 -0.0230974 0.20535 -0.0601455 -0.0207191 0.225554 
-0.053993 -0.0182615 0.24506 -0.0475609 -0.0157663 0.263873 -0.040886 -0.0132969 0.281998 
-0.0339994 -0.0109338 0.299445 -0.0269312 -0.00876738 0.316228 -0.0197144 -0.00688894 0.332367 
-0.0123892 -0.00538039 0.34789 -0.00500516 -0.00430498 0.362839 0.00237766 -0.00369944 0.377266 
0.00969005 -0.00356907 0.391236 0.0168564 -0.00388642 0.404823 0.023799 -0.00459375 0.418107 
0.0304434 -0.00560909 0.431169 0.0367243 -0.0068352 0.444083 0.0425908 -0.00817033 0.456911 
0.0480109 -0.00951929 0.469695 0.052974 -0.0108035 0.482452 0.0574923 -0.0119689 0.495173 
0.0615987 -0.0129899 0.507819 0.0653441 -0.0138701 0.520327 0.0687915 -0.0146387 0.53261 
0.0720105 -0.0153434 0.544569 0.07507 -0.0160412 0.556099 0.0780313 -0.0167873 0.567097 
0.0809431 -0.0176253 0.577474 0.0838368 -0.0185787 0.587159 0.0867245 -0.0196451 0.596106 
0.089599 -0.0207953 0.604295 0.0924362 -0.0219751 0.611733 0.0951984 -0.023112 0.618449 
0.0978399 -0.0241247 0.624492 0.100313 -0.0249337 0.629918 0.102574 -0.0254731 0.634787 
0.104586 -0.0257001 0.639154 0.106327 -0.0256024 0.643063 0.107788 -0.0252015 0.646543 
0.108975 -0.0245518 0.649605 0.109906 -0.0237352 0.652246 0.110609 -0.0228517 0.654449 
0.111115 -0.0220083 0.656188 0.111457 -0.0213057 0.657437 0.111661 -0.0208262 0.658171 
0.111746 -0.0206236 0.658374 
LINES 2 100
OFFSETS vtktypeint64
0 100 
CONNECTIVITY vtktypeint64
0 1 2 3 4 5 6 7 8 
9 10 11 12 13 14 15 16 17 
18 19 20 21 22 23 24 25 26 
27 28 29 30 31 32 33 34 35 
36 37 38 39 40 41 42 43 44 
45 46 47 48 49 50 51 52 53 
54 55 56 57 58 59 60 61 62 
63 64 65 66 67 68 69 70 71 
72 73 74 75 76 77 78 79 80 
81 82 83 84 85 86 87 88 89 
90 91 92 93 94 95 96 97 98 
99 
POINT_DATA 100
FIELD FieldData 3
_theta 1 100 double
0 0.031733259127 0.063466518254 0.095199777382 0.12693303651 0.15866629564 0.19039955476 0.22213281389 0.25386607302 
0.28559933214 0.31733259127 0.3490658504 0.38079910953 0.41253236865 0.44426562778 0.47599888691 0.50773214603 0.53946540516 
0.57119866429 0.60293192342 0.63466518254 0.66639844167 0.6981317008 0.72986495992 0.76159821905 0.79333147818 0.82506473731 
0.85679799643 0.88853125556 0.92026451469 0.95199777382 0.98373103294 1.0154642921 1.0471975512 1.0789308103 1.1106640695 
1.1423973286 1.1741305877 1.2058638468 1.237597106 1.2693303651 1.3010636242 1.3327968833 1.3645301425 1.3962634016 
1.4279966607 1.4597299198 1.491463179 1.5231964381 1.5549296972 1.5866629564 1.6183962155 1.6501294746 1.6818627337 
1.7135959929 1.745329252 1.7770625111 1.8087957702 1.8405290294 1.8722622885 1.9039955476 1.9357288068 1.9674620659 
1.999195325 2.0309285841 2.0626618433 2.0943951024 2.1261283615 2.1578616206 2.1895948798 2.2213281389 2.253061398 
2.2847946572 2.3165279163 2.3482611754 2.3799944345 2.4117276937 2.4434609528 2.4751942119 2.506927471 2.5386607302 
2.5703939893 2.6021272484 2.6338605076 2.6655937667 2.6973270258 2.7290602849 2.7607935441 2.7925268032 2.8242600623 
2.8559933214 2.8877265806 2.9194598397 2.9511930988 2.982926358 3.0146596171 3.0463928762 3.0781261353 3.1098593945 
3.1415926536 
_radius 1 100 double
1.2344992365e-15 0.013418551053 0.026731834022 0.039859486861 0.052741699639 0.065339009931 0.077624037523 0.089567524192 0.10112323318 
0.11221683299 0.12274254781 0.13256878135 0.14155134374 0.14955130046 0.15645404269 0.16218658344 0.16673079112 0.17013093763 
0.17249448474 0.17398557277 0.17481136615 0.17520232803 0.17538857547 0.17557548453 0.17592230368 0.17652729558 0.17742169023 
0.17857282913 0.17989506803 0.18126597909 0.18254529604 0.1835944521 0.18429487839 0.18456320262 0.1843614721 0.1837012235 
0.18264170541 0.18128366268 0.17975989431 0.17822323812 0.17683302264 0.17574200764 0.17508614987 0.17497857507 0.17550734211 
0.17673496615 0.1786971713 0.18139932787 0.18481107685 0.18886172024 0.19343985494 0.19839974708 0.20357443941 0.20879287769 
0.21389686254 0.21875394387 0.22326399537 0.22735922736 0.23099908721 0.23416247967 0.23683990006 0.23902749479 0.2407240124 
0.24193047099 0.2426515222 0.24289715977 0.24268361573 0.24203285877 0.24097083696 0.23952525898 0.23772401472 0.23559500174 
0.23316706867 0.23047053081 0.22753525156 0.22438518231 0.22103003017 0.21745631822 0.21362076034 0.20944845384 0.20483717657 
0.19966750941 0.19381707004 0.18717624306 0.17966261789 0.17123182091 0.16188329187 0.15166053142 0.1406462461 0.12895351909 
0.11671454042 0.10406848784 0.091149926451 0.078078770261 0.064952574647 0.051841709486 0.038787709715 0.025804772499 0.012884032503 
8.4130655884e-16 
_area 1 100 double
0 0.00047939938556 0.001910226514 0.0042716177106 0.0075323839886 0.011654128103 0.016590893159 0.022281770711 0.028636127837 
0.03551643287 0.042726310055 0.050010076891 0.057066873899 0.063578640238 0.069247062188 0.073831724101 0.077181347001 0.079252100827 
0.080110347236 0.079920594116 0.078922165578 0.077399601524 0.075651664454 0.073962039014 0.072572180113 0.071655972499 0.071300199253 
0.071498661205 0.072161487758 0.073137450842 0.074249674004 0.075338638232 0.076297023487 0.077080228096 0.077686775217 0.078140594544 
0.078510217506 0.078902897619 0.079370283926 0.07989926595 0.080490968946 0.081180895919 0.082027585945 0.083107219801 0.084520353599 
0.086398381347 0.088880570503 0.092065798026 0.096000713519 0.10069192235 0.10609462858 0.11209145884 0.11848996878 0.12504807065 
0.13151678926 0.13768181308 0.14338879014 0.14854558391 0.15310439614 0.15703562869 0.16030800946 0.16288289009 0.1647212653 
0.16579751988 0.16611395509 0.16571097178 0.16466759601 0.16308683308 0.16106499296 0.15865831083 0.15587053126 0.15267031946 
0.1490244222 0.14492865714 0.14042564295 0.13560352149 0.13057499162 0.12544223061 0.12025924966 0.11500666473 0.10959142891 
0.10387385672 0.097711380992 0.091002342288 0.083716607144 0.075907478772 0.067705610007 0.059299111321 0.050905783132 0.042744231397 
0.035010331907 0.027863337307 0.021422087619 0.015768352967 0.010953427307 0.0070054029688 0.0039361134571 0.00174741117 0.00043649925331 
1.6106355318e-17 
