# vtk DataFile Version 5.1
vtk output
ASCII
DATASET POLYDATA
POINTS 100 float
0.104068 0.0778601 -0.67808 0.10432 0.0776284 -0.678334 0.105055 0.07711 -0.679032 
0.10619 0.0763015 -0.680039 0.107599 0.0751982 -0.681148 0.109124 0.0737934 -0.682104 
0.110593 0.0720795 -0.682628 0.111842 0.0700477 -0.682451 0.112726 0.0676885 -0.681343 
0.113133 0.0649921 -0.679129 0.112994 0.0619486 -0.675707 0.11228 0.0585488 -0.671051 
0.110999 0.0547844 -0.665203 0.109187 0.0506493 -0.658262 0.106892 0.0461401 -0.650357 
0.104164 0.0412575 -0.641631 0.10104 0.0360073 -0.632208 0.0975334 0.0304022 -0.622179 
0.0936303 0.024463 -0.611586 0.0892889 0.0182205 -0.600415 0.0844455 0.0117163 -0.588601 
0.0790249 0.00500456 -0.57604 0.0729537 -0.00184779 -0.562603 0.0661743 -0.00876075 -0.548161 
0.0586579 -0.0156421 -0.532605 0.0504146 -0.0223888 -0.515867 0.0414978 -0.0288899 -0.497932 
0.0320036 -0.0350301 -0.478845 0.0220646 -0.0406939 -0.458709 0.0118383 -0.0457711 -0.437673 
0.00149283 -0.0501621 -0.415918 -0.00880857 -0.0537841 -0.393631 -0.0189221 -0.0565755 -0.370985 
-0.0287346 -0.058501 -0.34812 -0.0381691 -0.0595542 -0.325122 -0.0471857 -0.0597595 -0.302015 
-0.0557749 -0.0591709 -0.278766 -0.0639473 -0.0578697 -0.255287 -0.0717182 -0.0559601 -0.231454 
-0.0790921 -0.0535621 -0.207127 -0.0860481 -0.0508045 -0.182177 -0.0925286 -0.0478159 -0.156505 
-0.0984343 -0.0447165 -0.130066 -0.103625 -0.0416103 -0.10288 -0.10793 -0.0385789 -0.0750397 
-0.111162 -0.0356775 -0.0467049 -0.113135 -0.0329328 -0.0180917 -0.113691 -0.0303446 0.0105464 
-0.112718 -0.0278893 0.0389417 -0.110171 -0.0255261 0.0668371 -0.10608 -0.0232046 0.0940092 
-0.100556 -0.0208738 0.120287 -0.0937892 -0.0184904 0.145564 -0.0860299 -0.016027 0.169802 
-0.0775714 -0.0134773 0.193029 -0.0687229 -0.0108602 0.215325 -0.0597821 -0.00821995 0.236809 
-0.0510081 -0.00562342 0.257616 -0.0425993 -0.00315482 0.277881 -0.0346783 -0.000907916 0.297717 
-0.0272852 0.00102308 0.317206 -0.0203808 0.00255317 0.336389 -0.0138582 0.00361557 0.355267 
-0.00756236 0.00416907 0.373808 -0.00131427 0.00420288 0.391954 0.00506308 0.00373843 0.409637 
0.0117199 0.00282781 0.426796 0.0187592 0.00154909 0.443385 0.026223 -1.16736e-06 0.459387 
0.0340867 -0.00171715 0.474815 0.0422619 -0.00349396 0.489718 0.0506067 -0.00523743 0.504165 
0.0589428 -0.00687258 0.518245 0.0670759 -0.00834975 0.532046 0.0748171 -0.00964763 0.545645 
0.0820033 -0.010773 0.559094 0.0885124 -0.0117575 0.572412 0.0942739 -0.0126508 0.585577 
0.0992718 -0.0135128 0.598527 0.103542 -0.0144042 0.611167 0.107161 -0.0153775 0.623376 
0.110236 -0.0164691 0.635021 0.112887 -0.0176937 0.64597 0.115232 -0.0190418 0.656107 
0.117372 -0.0204802 0.665344 0.119386 -0.0219555 0.673624 0.121321 -0.0234007 0.680932 
0.123195 -0.0247433 0.687287 0.124999 -0.025914 0.692742 0.126706 -0.0268557 0.697373 
0.12828 -0.0275304 0.70127 0.129686 -0.0279243 0.704526 0.130894 -0.0280494 0.707229 
0.131892 -0.0279426 0.709456 0.13268 -0.0276607 0.711265 0.133272 -0.0272741 0.712697 
0.133694 -0.0268579 0.713778 0.133976 -0.0264825 0.714522 0.134145 -0.0262054 0.714934 
0.134221 -0.0260637 0.715015 
LINES 2 100
OFFSETS vtktypeint64
0 100 
CONNECTIVITY vtktypeint64
0 1 2 3 4 5 6 7 8 
9 10 11 12 13 14 15 16 17 
18 19 20 21 22 23 24 25 26 
27 28 29 30 31 32 33 34 35 
36 37 38 39 40 41 42 43 44 
45 46 47 48 49 50 51 52 53 
54 55 56 57 58 59 60 61 62 
63 64 65 66 67 68 69 70 71 
72 73 74 75 76 77 78 79 80 
81 82 83 84 85 86 87 88 89 
90 91 92 93 94 95 96 97 98 
99 
POINT_DATA 100
FIELD FieldData 3
_theta 1 100 double
0 0.031733259127 0.063466518254 0.095199777382 0.12693303651 0.15866629564 0.19039955476 0.22213281389 0.25386607302 
0.28559933214 0.31733259127 0.3490658504 0.38079910953 0.41253236865 0.44426562778 0.47599888691 0.50773214603 0.53946540516 
0.57119866429 0.60293192342 0.63466518254 0.66639844167 0.6981317008 0.72986495992 0.76159821905 0.79333147818 0.82506473731 
0.85679799643 0.88853125556 0.92026451469 0.95199777382 0.98373103294 1.0154642921 1.0471975512 1.0789308103 1.1106640695 
1.1423973286 1.1741305877 1.2058638468 1.237597106 1.2693303651 1.3010636242 1.3327968833 1.3645301425 1.3962634016 
1.4279966607 1.4597299198 1.491463179 1.5231964381 1.5549296972 1.5866629564 1.6183962155 1.6501294746 1.6818627337 
1.7135959929 1.745329252 1.7770625111 1.8087957702 1.8405290294 1.8722622885 1.9039955476 1.9357288068 1.9674620659 
1.999195325 2.0309285841 2.0626618433 2.0943951024 2.1261283615 2.1578616206 2.1895948798 2.2213281389 2.253061398 
2.2847946572 2.3165279163 2.3482611754 2.3799944345 2.4117276937 2.4434609528 2.4751942119 2.506927471 2.5386607302 
2.5703939893 2.6021272484 2.6338605076 2.6655937667 2.6973270258 2.7290602849 2.7607935441 2.7925268032 2.8242600623 
2.8559933214 2.8877265806 2.9194598397 2.9511930988 2.982926358 3.0146596171 3.0463928762 3.0781261353 3.1098593945 
3.1415926536 
_radius 1 100 double
1.4635638982e-15 0.015947709046 0.031757181306 0.047305360717 0.062488848079 0.077228929913 0.091471833997 0.1051841391 0.11834433342 
0.13093234166 0.14291916845 0.15425860417 0.164882384 0.17469953646 0.18360009504 0.19146293871 0.19816721679 0.20360649641 
0.20770437771 0.21042987561 0.21181047357 0.21194056258 0.21098312966 0.20916316452 0.20675236181 0.20404625382 0.20133664162 
0.1988835495 0.19689124459 0.19549186603 0.19473835518 0.1946065298 0.19500483455 0.19578961178 0.19678370691 0.19779686134 
0.19864720025 0.19918328241 0.19930510321 0.19898075665 0.19825454582 0.19724311162 0.19611873372 0.19508298252 0.19433796455 
0.19406348429 0.19440459007 0.1954678037 0.19732061569 0.19998941631 0.20345457894 0.20764547587 0.21244026419 0.21767393211 
0.2231543977 0.22868310207 0.23407539936 0.23917691242 0.24387362555 0.24809492481 0.25180993051 0.25501848338 0.25773905818 
0.25999639742 0.2618114329 0.26319507966 0.26414618582 0.26465289257 0.26469619895 0.26425452794 0.26330827687 0.26184353163 
0.25985432594 0.25734308755 0.25431922985 0.25079614818 0.24678709287 0.24230050515 0.23733547215 0.23187803189 0.22589912026 
0.21935489696 0.21218990882 0.20434304028 0.19575560421 0.18638044964 0.17619074596 0.16518714082 0.15340218586 0.14090120862 
0.12777918442 0.11415366426 0.10015442987 0.085911177849 0.07154103082 0.057137875942 0.042765321346 0.028454426594 0.014206454755 
1.0812871968e-15 
_area 1 100 double
0 0.00060974260107 0.0024414392736 0.0054975426253 0.0097679960741 0.015215491125 0.021763372408 0.029289079323 0.037624037369 
0.046559157018 0.055853653523 0.065244370447 0.074453656705 0.083195990616 0.091186021899 0.098151731325 0.10385441267 0.10811283534 
0.11082552796 0.1119855062 0.11168532721 0.11011369153 0.10754520772 0.10432291407 0.10083175838 0.097458058869 0.094518995473 
0.092188613308 0.090515265459 0.089493339694 0.089099215165 0.08929474147 0.090022722429 0.091208613708 0.092768428029 0.094609265026 
0.096623119361 0.098693616862 0.10071002695 0.10256772679 0.10417185481 0.10547549553 0.10652820362 0.10748716714 0.10858368838 
0.11006822415 0.11209318162 0.11464241445 0.11771268511 0.12134736916 0.12562694797 0.13064791597 0.13647170061 0.14306636154 
0.15028290562 0.15787352725 0.16552719279 0.17290946061 0.17970665117 0.18567026041 0.1906502318 0.19460611182 0.19759418099 
0.19974408585 0.20126769165 0.20237961528 0.20293447656 0.20277489234 0.20181392876 0.20000806032 0.19735725159 0.19390167998 
0.18971124275 0.18487017059 0.17946147375 0.17355552718 0.16720475576 0.16044380022 0.1532931597 0.14576424315 0.13786424057 
0.12959996114 0.12098087342 0.11202227469 0.10274911802 0.093200457693 0.083434893332 0.073537797125 0.063629218031 0.053867726586 
0.044444542722 0.035566536608 0.027432663669 0.020211432041 0.014026012419 0.0089502171725 0.0050147701593 0.0022204633916 0.00055365367963 
7.0750958423e-17 
