# vtk DataFile Version 5.1
vtk output
ASCII
DATASET POLYDATA
POINTS 100 float
0.124129 0.0428032 -0.686499 0.123926 0.0427259 -0.686296 0.123381 0.0423683 -0.685778 
0.122516 0.0417647 -0.684896 0.121364 0.0409655 -0.683571 0.119971 0.0400309 -0.681704 
0.118391 0.0390215 -0.679188 0.116684 0.0379901 -0.675922 0.114906 0.0369736 -0.671821 
0.11311 0.0359872 -0.666824 0.111334 0.0350211 -0.660902 0.109598 0.0340406 -0.654061 
0.107897 0.0329895 -0.646338 0.106194 0.031796 -0.637798 0.104422 0.030381 -0.62852 
0.102484 0.0286672 -0.618592 0.100257 0.0265881 -0.608095 0.0976 0.0240962 -0.597097 
0.0943673 0.0211682 -0.585639 0.0904208 0.0178084 -0.573736 0.0856444 0.0140485 -0.561371 
0.079958 0.00994436 -0.548504 0.0733285 0.00557073 -0.535072 0.0657771 0.00101414 -0.521003 
0.0573815 -0.00363497 -0.506224 0.0482723 -0.00828962 -0.490676 0.0386236 -0.0128725 -0.474319 
0.0286389 -0.01732 -0.457142 0.0185332 -0.0215844 -0.439165 0.00851349 -0.0256328 -0.420441 
-0.00124005 -0.0294447 -0.401049 -0.0105902 -0.0330079 -0.381086 -0.0194535 -0.036313 -0.360661 
-0.0278055 -0.0393491 -0.339878 -0.035678 -0.0420998 -0.318827 -0.0431493 -0.0445406 -0.297574 
-0.0503293 -0.0466392 -0.276155 -0.0573392 -0.0483571 -0.254571 -0.0642894 -0.0496534 -0.232792 
-0.0712589 -0.0504899 -0.210757 -0.0782771 -0.0508368 -0.18839 -0.0853122 -0.050678 -0.165605 
-0.0922658 -0.0500158 -0.142322 -0.098977 -0.0488733 -0.118481 -0.105234 -0.047295 -0.0940489 
-0.11079 -0.0453446 -0.0690338 -0.11539 -0.0431014 -0.043485 -0.118794 -0.0406538 -0.0174957 
-0.120799 -0.0380931 0.00880113 -0.121263 -0.035506 0.0352407 -0.120118 -0.0329682 0.0616371 
-0.117377 -0.0305395 0.087796 -0.113134 -0.0282607 0.113528 -0.107551 -0.0261527 0.138662 
-0.100843 -0.0242181 0.163055 -0.0932585 -0.0224448 0.1866 -0.0850526 -0.0208109 0.209229 
-0.0764655 -0.0192903 0.230919 -0.067702 -0.0178584 0.251681 -0.0589176 -0.0164972 0.271561 
-0.0502105 -0.0151986 0.290627 -0.0416222 -0.0139661 0.308962 -0.0331441 -0.0128148 0.326657 
-0.0247304 -0.011769 0.343797 -0.0163148 -0.0108593 0.360459 -0.00782794 -0.0101182 0.376706 
0.000785022 -0.00957523 0.392582 0.00955157 -0.00925341 0.408118 0.018463 -0.0091658 0.423328 
0.0274718 -0.00931382 0.438215 0.0364952 -0.00968705 0.452777 0.0454237 -0.0102643 0.467005 
0.0541339 -0.0110162 0.480894 0.0625025 -0.0119081 0.494439 0.0704211 -0.0129037 0.507636 
0.0778081 -0.013968 0.520484 0.0846175 -0.01507 0.532984 0.0908415 -0.0161839 0.545129 
0.0965099 -0.0172898 0.556907 0.101683 -0.0183725 0.568299 0.106441 -0.0194202 0.579271 
0.110873 -0.0204226 0.589777 0.115064 -0.0213691 0.599761 0.119083 -0.0222468 0.609157 
0.122973 -0.0230402 0.617897 0.126752 -0.0237315 0.625911 0.130408 -0.0243017 0.633141 
0.133905 -0.0247327 0.639538 0.137191 -0.0250107 0.645078 0.140209 -0.0251281 0.649756 
0.142904 -0.0250869 0.653598 0.145234 -0.0248999 0.656653 0.147175 -0.0245911 0.658995 
0.148729 -0.0241952 0.660718 0.149915 -0.0237551 0.661928 0.150773 -0.0233184 0.662736 
0.151353 -0.0229329 0.663248 0.151706 -0.0226423 0.663557 0.151878 -0.0224815 0.663736 
0.151898 -0.0224728 0.66383 
LINES 2 100
OFFSETS vtktypeint64
0 100 
CONNECTIVITY vtktypeint64
0 1 2 3 4 5 6 7 8 
9 10 11 12 13 14 15 16 17 
18 19 20 21 22 23 24 25 26 
27 28 29 30 31 32 33 34 35 
36 37 38 39 40 41 42 43 44 
45 46 47 48 49 50 51 52 53 
54 55 56 57 58 59 60 61 62 
63 64 65 66 67 68 69 70 71 
72 73 74 75 76 77 78 79 80 
81 82 83 84 85 86 87 88 89 
90 91 92 93 94 95 96 97 98 
99 
POINT_DATA 100
FIELD FieldData 3
_theta 1 100 double
0 0.031733259127 0.063466518254 0.095199777382 0.12693303651 0.15866629564 0.19039955476 0.22213281389 0.25386607302 
0.28559933214 0.31733259127 0.3490658504 0.38079910953 0.41253236865 0.44426562778 0.47599888691 0.50773214603 0.53946540516 
0.57119866429 0.60293192342 0.63466518254 0.66639844167 0.6981317008 0.72986495992 0.76159821905 0.79333147818 0.82506473731 
0.85679799643 0.88853125556 0.92026451469 0.95199777382 0.98373103294 1.0154642921 1.0471975512 1.0789308103 1.1106640695 
1.1423973286 1.1741305877 1.2058638468 1.237597106 1.2693303651 1.3010636242 1.3327968833 1.3645301425 1.3962634016 
1.4279966607 1.4597299198 1.491463179 1.5231964381 1.5549296972 1.5866629564 1.6183962155 1.6501294746 1.6818627337 
1.7135959929 1.745329252 1.7770625111 1.8087957702 1.8405290294 1.8722622885 1.9039955476 1.9357288068 1.9674620659 
1.999195325 2.0309285841 2.0626618433 2.0943951024 2.1261283615 2.1578616206 2.1895948798 2.2213281389 2.253061398 
2.2847946572 2.3165279163 2.3482611754 2.3799944345 2.4117276937 2.4434609528 2.4751942119 2.506927471 2.5386607302 
2.5703939893 2.6021272484 2.6338605076 2.6655937667 2.6973270258 2.7290602849 2.7607935441 2.7925268032 2.8242600623 
2.8559933214 2.8877265806 2.9194598397 2.9511930988 2.982926358 3.0146596171 3.0463928762 3.0781261353 3.1098593945 
3.1415926536 
_radius 1 100 double
6.8733588249e-16 0.015415103879 0.030741375797 0.045896418451 0.060815306856 0.075452787383 0.089779668394 0.1037744613 0.11741260433 
0.13065604113 0.14344552113 0.15569707932 0.16730316924 0.17813814647 0.18806729864 0.19695833301 0.204694088 0.21118518549 
0.21638136589 0.22028033014 0.22293304506 0.22444466386 0.22497051496 0.22470705693 0.22387828457 0.22271872748 0.2214547757 
0.22028643687 0.21937165295 0.21881495608 0.21866163805 0.21889794083 0.21945716721 0.2202309986 0.22108462118 0.22187370169 
0.22246121302 0.22273263558 0.22260862268 0.22205429101 0.22108406838 0.21976117394 0.21819164321 0.21651401401 0.21488676116 
0.21347582921 0.21244392558 0.21194175485 0.21209985307 0.21301927557 0.21476080331 0.21733487785 0.22069617073 0.22474582988 
0.2293414724 0.23431221634 0.23947513568 0.24465017462 0.24967168732 0.25439585698 0.25870423596 0.26250440726 0.26572906991 
0.26833462551 0.27029977273 0.2716240133 0.27232560966 0.2724385267 0.27200817624 0.2710861857 0.26972473512 0.26797112378 
0.26586313063 0.26342549479 0.26066756086 0.25758190323 0.2541436746 0.2503105925 0.24602380268 0.24121010628 0.23578601917 
0.22966384534 0.22275950307 0.21500134744 0.20633877632 0.19674913324 0.18624149622 0.17485644682 0.16266175609 0.14974487067 
0.1362038295 0.12213850434 0.10764370265 0.092804862244 0.07769621867 0.062380818363 0.046911669384 0.031333497405 0.015684794488 
9.3874810481e-16 
_area 1 100 double
0 0.00056074505185 0.0022371758526 0.0050139019604 0.0088701120539 0.01378152019 0.01971640336 0.026625541406 0.034429788368 
0.043010576666 0.052206981629 0.061819463413 0.071617433647 0.081347216121 0.090739116777 0.099515491309 0.10740314607 0.11415187357 
0.11955780407 0.12348771625 0.1258994242 0.126853728 0.12651504931 0.12514095467 0.12306468397 0.12066602395 0.1182780217 
0.11610301054 0.11429658773 0.11304445328 0.11255714787 0.11289643746 0.11395950563 0.11555997592 0.11746231416 0.11941911827 
0.1211251892 0.12234874073 0.12296366932 0.1229380206 0.1223399624 0.12134770481 0.12023501066 0.11922027488 0.11846425848 
0.11805013842 0.11806620035 0.11855685455 0.11962473598 0.12147305879 0.12423321821 0.12800152772 0.13282224622 0.13865507244 
0.14537204766 0.15276951592 0.16058411629 0.16851154715 0.17622971865 0.18342596836 0.18982548583 0.19521582352 0.19946134221 
0.20250409481 0.20435336922 0.2050701841 0.2047519239 0.20351778482 0.20149328132 0.19879468139 0.19551792464 0.19173534041 
0.18749845504 0.18284287069 0.1777932428 0.17236804451 0.16658189954 0.16044137376 0.15393367996 0.14701549072 0.13961326922 
0.13164097395 0.12303052072 0.11376377778 0.10389521158 0.093558785038 0.082957606353 0.072338791419 0.061959219498 0.052050462151 
0.042792490985 0.034304216037 0.026653053795 0.019877252947 0.014009308733 0.0090907200114 0.0051749802567 0.0023212994561 0.00058371288491 
3.0791341699e-17 
