# vtk DataFile Version 5.1
vtk output
ASCII
DATASET POLYDATA
POINTS 100 float
0.123477 -0.0390219 0.755487 0.123507 -0.0390813 0.75538 0.12352 -0.0394098 0.755186 
0.123504 -0.0399529 0.754837 0.123443 -0.0406271 0.75423 0.123316 -0.041329 0.753231 
0.123103 -0.0419478 0.751694 0.122786 -0.0423773 0.749468 0.122346 -0.0425284 0.746416 
0.121772 -0.0423386 0.742423 0.121053 -0.0417788 0.737404 0.120181 -0.0408554 0.731313 
0.119148 -0.0396091 0.724141 0.117944 -0.0381092 0.715913 0.116551 -0.0364449 0.706688 
0.114947 -0.0347149 0.696543 0.1131 -0.0330159 0.68557 0.110972 -0.0314324 0.673865 
0.108518 -0.0300276 0.661518 0.105693 -0.0288387 0.648611 0.102452 -0.027874 0.635209 
0.0987571 -0.027115 0.621365 0.0945807 -0.0265209 0.607115 0.0899091 -0.0260362 0.592488 
0.084744 -0.0255992 0.577505 0.0791025 -0.0251513 0.562188 0.0730154 -0.0246449 0.546561 
0.0665236 -0.0240503 0.530655 0.0596734 -0.0233585 0.514508 0.0525109 -0.0225827 0.49816 
0.045078 -0.0217556 0.481655 0.0374079 -0.0209248 0.465029 0.0295236 -0.0201464 0.448308 
0.0214388 -0.0194778 0.431498 0.0131599 -0.0189703 0.414581 0.00469198 -0.0186634 0.39751 
-0.00395533 -0.0185807 0.380212 -0.0127603 -0.0187278 0.362584 -0.0216827 -0.0190931 0.344505 
-0.0306585 -0.019651 0.325841 -0.0395972 -0.020366 0.306458 -0.0483832 -0.0211988 0.286232 
-0.0568796 -0.022112 0.265061 -0.0649361 -0.0230756 0.242878 -0.0723993 -0.0240707 0.219657 
-0.0791251 -0.0250917 0.195418 -0.0849909 -0.0261467 0.170229 -0.0899066 -0.0272552 0.1442 
-0.0938231 -0.0284447 0.117478 -0.096737 -0.0297456 0.0902361 -0.0986901 -0.0311863 0.0626607 
-0.0997651 -0.0327876 0.0349384 -0.100075 -0.0345583 0.00724333 -0.099753 -0.0364922 -0.0202735 
-0.0989329 -0.0385663 -0.0474925 -0.0977385 -0.0407412 -0.0743297 -0.0962669 -0.0429625 -0.100737 
-0.0945792 -0.0451639 -0.126701 -0.0926936 -0.0472709 -0.152232 -0.0905849 -0.0492052 -0.17736 
-0.0881889 -0.0508884 -0.202122 -0.0854117 -0.0522458 -0.226553 -0.0821436 -0.0532096 -0.250676 
-0.0782737 -0.0537204 -0.274498 -0.0737067 -0.0537289 -0.298002 -0.0683767 -0.0531966 -0.32115 
-0.0622584 -0.0520955 -0.343884 -0.0553739 -0.0504089 -0.366131 -0.0477936 -0.0481307 -0.387813 
-0.0396329 -0.045266 -0.408853 -0.0310426 -0.0418313 -0.429181 -0.0221971 -0.0378549 -0.448747 
-0.01328 -0.0333773 -0.467524 -0.00446978 -0.0284509 -0.485506 0.00407387 -0.0231397 -0.502715 
0.0122194 -0.0175177 -0.519194 0.0198699 -0.011667 -0.534998 0.0269642 -0.00567422 -0.550194 
0.0334744 0.000372878 -0.564845 0.0393995 0.00638967 -0.579005 0.0447565 0.0122988 -0.592712 
0.0495709 0.018034 -0.60598 0.0538675 0.0235425 -0.6188 0.0576635 0.0287873 -0.631134 
0.0609646 0.0337464 -0.642927 0.0637643 0.0384122 -0.654104 0.0660475 0.0427881 -0.664583 
0.0677962 0.0468849 -0.67428 0.0689974 0.0507161 -0.683123 0.0696521 0.0542937 -0.691053 
0.0697824 0.0576237 -0.698036 0.069437 0.0607037 -0.704065 0.0686933 0.0635209 -0.709156 
0.067655 0.0660522 -0.713353 0.0664467 0.0682661 -0.716717 0.0652045 0.0701255 -0.719323 
0.0640639 0.0715921 -0.721248 0.0631479 0.0726302 -0.722564 0.0625543 0.0732117 -0.723328 
0.0623462 0.0733191 -0.72358 
LINES 2 100
OFFSETS vtktypeint64
0 100 
CONNECTIVITY vtktypeint64
0 1 2 3 4 5 6 7 8 
9 10 11 12 13 14 15 16 17 
18 19 20 21 22 23 24 25 26 
27 28 29 30 31 32 33 34 35 
36 37 38 39 40 41 42 43 44 
45 46 47 48 49 50 51 52 53 
54 55 56 57 58 59 60 61 62 
63 64 65 66 67 68 69 70 71 
72 73 74 75 76 77 78 79 80 
81 82 83 84 85 86 87 88 89 
90 91 92 93 94 95 96 97 98 
99 
POINT_DATA 100
FIELD FieldData 3
_theta 1 100 double
0 0.031733259127 0.063466518254 0.095199777382 0.12693303651 0.15866629564 0.19039955476 0.22213281389 0.25386607302 
0.28559933214 0.31733259127 0.3490658504 0.38079910953 0.41253236865 0.44426562778 0.47599888691 0.50773214603 0.53946540516 
0.57119866429 0.60293192342 0.63466518254 0.66639844167 0.6981317008 0.72986495992 0.76159821905 0.79333147818 0.82506473731 
0.85679799643 0.88853125556 0.92026451469 0.95199777382 0.98373103294 1.0154642921 1.0471975512 1.0789308103 1.1106640695 
1.1423973286 1.1741305877 1.2058638468 1.237597106 1.2693303651 1.3010636242 1.3327968833 1.3645301425 1.3962634016 
1.4279966607 1.4597299198 1.491463179 1.5231964381 1.5549296972 1.5866629564 1.6183962155 1.6501294746 1.6818627337 
1.7135959929 1.745329252 1.7770625111 1.8087957702 1.8405290294 1.8722622885 1.9039955476 1.9357288068 1.9674620659 
1.999195325 2.0309285841 2.0626618433 2.0943951024 2.1261283615 2.1578616206 2.1895948798 2.2213281389 2.253061398 
2.2847946572 2.3165279163 2.3482611754 2.3799944345 2.4117276937 2.4434609528 2.4751942119 2.506927471 2.5386607302 
2.5703939893 2.6021272484 2.6338605076 2.6655937667 2.6973270258 2.7290602849 2.7607935441 2.7925268032 2.8242600623 
2.8559933214 2.8877265806 2.9194598397 2.9511930988 2.982926358 3.0146596171 3.0463928762 3.0781261353 3.1098593945 
3.1415926536 
_radius 1 100 double
6.7407345455e-16 0.014850256123 0.029659194536 0.044383392728 0.058970469094 0.073356033509 0.087462599705 0.10120120791 0.11447611047 
0.12719212053 0.13926331354 0.15062106856 0.16121933672 0.17103575597 0.18006864539 0.18833140681 0.19584664757 0.20264200818 
0.208748555 0.21420143105 0.21904178946 0.22331889116 0.22709134251 0.23042657096 0.23339785955 0.23607879906 0.23853591207 
0.24082114664 0.24296636833 0.24498141953 0.24685580061 0.24856230845 0.25006014488 0.25129573253 0.25220142535 0.25269434337 
0.25267845843 0.25205225187 0.25072222993 0.24862040512 0.24572241449 0.24206250743 0.23774201921 0.23292889476 0.22784717018 
0.22275697564 0.21792751235 0.21360732144 0.20999739239 0.20723238627 0.20537301431 0.2044091462 0.20427027569 0.20483899474 
0.20596422431 0.20747310137 0.20918232017 0.21091039538 0.21249149937 0.21378983702 0.21471206871 0.21521494205 0.2153061973 
0.21503849852 0.21449789419 0.21378947214 0.21302303769 0.21230077914 0.21170742776 0.21130217806 0.21111140867 0.21112223385 
0.21127838456 0.21148061319 0.21159301921 0.21145488394 0.21089594814 0.20975237124 0.20788087656 0.20516935787 0.20154306794 
0.19696621494 0.19143933191 0.18499321592 0.17768059931 0.16956697167 0.16072199715 0.15121266971 0.14109876137 0.13043046408 
0.11924771367 0.10758072138 0.095451659641 0.082877906079 0.06987730309 0.056475293401 0.042712700643 0.028651908407 0.014378957282 
3.1697380282e-16 
_area 1 100 double
0 0.00060170575215 0.0023998860741 0.0053729411681 0.0094818684691 0.014665043106 0.020831123718 0.027852768818 0.035565587539 
0.043776620711 0.052283760528 0.060902200362 0.069488223213 0.077948370678 0.086227897281 0.094285403102 0.10206951995 0.10950931313 
0.11651920694 0.12301285551 0.12892047356 0.13420705802 0.13889009669 0.14305258233 0.14684354082 0.15045860045 0.15409919273 
0.15791952269 0.16198070926 0.16623378792 0.1705422763 0.17473367995 0.17865174291 0.18218150382 0.18523631664 0.18771891344 
0.18948413854 0.19032878682 0.19001761293 0.18833744401 0.18516084232 0.1804981706 0.17452177831 0.16755518222 0.16002936815 
0.15241579868 0.1451518538 0.13857857191 0.13290812464 0.12822716709 0.12452834048 0.12175246986 0.11982149237 0.11864961065 
0.1181336058 0.11813438803 0.11846664732 0.11890707751 0.11921842126 0.119182365 0.11863492566 0.11749472588 0.11577345599 
0.1135645352 0.11101701591 0.10830869303 0.10563027722 0.10318156655 0.10116810242 0.099784481409 0.099180480327 0.099419834469 
0.10044254832 0.10204061296 0.10389617922 0.10566853021 0.10704996257 0.10778458765 0.10767213049 0.10656824054 0.10438483373 
0.10109019658 0.096708546899 0.091318671227 0.085049789044 0.078072725649 0.070586575129 0.06280296519 0.054930274231 0.047159304923 
0.039651438493 0.032531215868 0.025887141706 0.019784484946 0.014288719404 0.0094898388122 0.0055139072611 0.0025134373588 0.00063856274992 
1.4745149546e-17 
