# vtk DataFile Version 5.1
vtk output
ASCII
DATASET POLYDATA
POINTS 100 float
0.172131 0.070506 -0.639053 0.171993 0.0705256 -0.639262 0.171648 0.0704108 -0.639898 
0.171094 0.0701518 -0.640824 0.170331 0.0697328 -0.641824 0.169351 0.0691321 -0.642634 
0.168146 0.0683229 -0.642964 0.1667 0.0672736 -0.642536 0.16499 0.065949 -0.641105 
0.162987 0.0643112 -0.638492 0.160651 0.062321 -0.634591 0.157938 0.0599401 -0.629382 
0.154795 0.0571324 -0.622921 0.151166 0.0538668 -0.615331 0.146996 0.0501193 -0.60678 
0.142231 0.0458752 -0.597454 0.136827 0.0411313 -0.587534 0.130753 0.0358979 -0.577171 
0.123996 0.0302003 -0.56647 0.116565 0.0240796 -0.555473 0.10849 0.017593 -0.544164 
0.0998273 0.0108132 -0.53247 0.090653 0.00382727 -0.520278 0.0810616 -0.00326585 -0.507448 
0.0711589 -0.0103578 -0.493839 0.0610544 -0.0173343 -0.479327 0.0508532 -0.0240795 -0.46382 
0.0406482 -0.0304792 -0.447274 0.0305129 -0.0364258 -0.429692 0.0204967 -0.0418217 -0.411126 
0.0106237 -0.0465831 -0.391666 0.000893595 -0.0506423 -0.371427 -0.00871242 -0.0539499 -0.350533 
-0.0182239 -0.0564763 -0.329099 -0.0276704 -0.0582113 -0.307219 -0.0370695 -0.0591637 -0.284952 
-0.0464157 -0.0593599 -0.262325 -0.0556701 -0.0588418 -0.239328 -0.064754 -0.057664 -0.215927 
-0.0735469 -0.0558914 -0.192073 -0.0818886 -0.0535961 -0.16772 -0.0895877 -0.0508546 -0.142839 
-0.0964338 -0.0477452 -0.117432 -0.102214 -0.0443463 -0.0915413 -0.106732 -0.0407339 -0.0652537 
-0.109823 -0.0369809 -0.0387001 -0.111377 -0.0331557 -0.0120466 -0.111343 -0.0293217 0.0145172 
-0.109744 -0.0255368 0.0407935 -0.106673 -0.0218533 0.0665931 -0.102289 -0.0183174 0.0917505 
-0.0968009 -0.0149695 0.116136 -0.0904567 -0.0118434 0.139665 -0.0835168 -0.00896693 0.162296 
-0.0762343 -0.00636109 0.184034 -0.0688337 -0.00404046 0.204918 -0.0614944 -0.00201313 0.225011 
-0.0543381 -0.000280896 0.244387 -0.0474245 0.00116021 0.263121 -0.0407531 0.00231929 0.281273 
-0.034272 0.0032097 0.298889 -0.0278925 0.00384796 0.315992 -0.0215072 0.00425267 0.332585 
-0.0150094 0.00444331 0.348661 -0.00831195 0.00443918 0.364204 -0.0013624 0.00425855 0.379206 
0.00584699 0.003918 0.393672 0.0132752 0.00343215 0.407625 0.0208356 0.00281362 0.421114 
0.0284044 0.00207339 0.434209 0.0358352 0.00122134 0.446998 0.0429757 0.000266987 0.459578 
0.049685 -0.000779743 0.472041 0.0558505 -0.00190781 0.484466 0.0613997 -0.00310448 0.496906 
0.0663078 -0.00435506 0.509379 0.0705985 -0.00564286 0.521861 0.0743393 -0.00694951 0.534291 
0.0776307 -0.00825555 0.546573 0.0805921 -0.00954129 0.558583 0.0833446 -0.0107877 0.570184 
0.0859957 -0.0119774 0.581241 0.0886248 -0.0130956 0.59163 0.091274 -0.0141309 0.601253 
0.093944 -0.0150754 0.610048 0.0965956 -0.0159252 0.61799 0.0991575 -0.0166801 0.625089 
0.101538 -0.0173431 0.631392 0.10364 -0.0179198 0.636965 0.105377 -0.0184176 0.64189 
0.106686 -0.0188448 0.646249 0.107538 -0.0192098 0.650116 0.107947 -0.0195209 0.653544 
0.107966 -0.0197849 0.656569 0.107684 -0.0200079 0.6592 0.107214 -0.0201946 0.661428 
0.106679 -0.0203485 0.663228 0.106196 -0.0204725 0.664569 0.105864 -0.0205687 0.66542 
0.105746 -0.0206388 0.665758 
LINES 2 100
OFFSETS vtktypeint64
0 100 
CONNECTIVITY vtktypeint64
0 1 2 3 4 5 6 7 8 
9 10 11 12 13 14 15 16 17 
18 19 20 21 22 23 24 25 26 
27 28 29 30 31 32 33 34 35 
36 37 38 39 40 41 42 43 44 
45 46 47 48 49 50 51 52 53 
54 55 56 57 58 59 60 61 62 
63 64 65 66 67 68 69 70 71 
72 73 74 75 76 77 78 79 80 
81 82 83 84 85 86 87 88 89 
90 91 92 93 94 95 96 97 98 
99 
POINT_DATA 100
FIELD FieldData 3
_theta 1 100 double
0 0.031733259127 0.063466518254 0.095199777382 0.12693303651 0.15866629564 0.19039955476 0.22213281389 0.25386607302 
0.28559933214 0.31733259127 0.3490658504 0.38079910953 0.41253236865 0.44426562778 0.47599888691 0.50773214603 0.53946540516 
0.57119866429 0.60293192342 0.63466518254 0.66639844167 0.6981317008 0.72986495992 0.76159821905 0.79333147818 0.82506473731 
0.85679799643 0.88853125556 0.92026451469 0.95199777382 0.98373103294 1.0154642921 1.0471975512 1.0789308103 1.1106640695 
1.1423973286 1.1741305877 1.2058638468 1.237597106 1.2693303651 1.3010636242 1.3327968833 1.3645301425 1.3962634016 
1.4279966607 1.4597299198 1.491463179 1.5231964381 1.5549296972 1.5866629564 1.6183962155 1.6501294746 1.6818627337 
1.7135959929 1.745329252 1.7770625111 1.8087957702 1.8405290294 1.8722622885 1.9039955476 1.9357288068 1.9674620659 
1.999195325 2.0309285841 2.0626618433 2.0943951024 2.1261283615 2.1578616206 2.1895948798 2.2213281389 2.253061398 
2.2847946572 2.3165279163 2.3482611754 2.3799944345 2.4117276937 2.4434609528 2.4751942119 2.506927471 2.5386607302 
2.5703939893 2.6021272484 2.6338605076 2.6655937667 2.6973270258 2.7290602849 2.7607935441 2.7925268032 2.8242600623 
2.8559933214 2.8877265806 2.9194598397 2.9511930988 2.982926358 3.0146596171 3.0463928762 3.0781261353 3.1098593945 
3.1415926536 
_radius 1 100 double
1.7554167343e-16 0.017219982016 0.034177605214 0.05062703137 0.066359359225 0.081215582557 0.09509363811 0.10794886257 0.11978807358 
0.13065832292 0.14063199959 0.14979031066 0.15820725511 0.16593610071 0.17300012588 0.17938897216 0.18506130373 0.18995357844 
0.1939937206 0.19711757969 0.19928550486 0.20049631022 0.20079635413 0.20028228629 0.19909704032 0.19741966916 0.19545046644 
0.19339335737 0.19143770348 0.18974147509 0.18841738415 0.18752330116 0.18705821807 0.18696495466 0.18714038862 0.18745303794 
0.1877663646 0.18796438938 0.18797467219 0.1877832831 0.18743770795 0.18703676357 0.18671082557 0.18659922176 0.18683220595 
0.1875216223 0.18875915812 0.19061735962 0.19314836284 0.19637805126 0.20029704281 0.20485242747 0.20994438313 0.21542998692 
0.22113405987 0.22686501425 0.23243282192 0.23766612266 0.2424258403 0.24661341094 0.25017284772 0.25308718349 0.25537094824 
0.25706083691 0.25820644806 0.25886217637 0.259080524 0.25890665294 0.25837399027 0.25750094145 0.25628904465 0.25472304562 
0.25277325185 0.25040007072 0.24755996226 0.24421146585 0.24031983992 0.23585931446 0.23081281201 0.2251698654 0.21892398575 
0.21207072634 0.20460720136 0.19653309861 0.18785257566 0.17857607921 0.16872116381 0.15831175377 0.14737585666 0.13594233325 
0.12403778995 0.11168481754 0.098902512242 0.085709475257 0.07212854317 0.05819180809 0.04394440266 0.029446032746 0.014769990772 
1.32529802e-15 
_area 1 100 double
0 0.00066942119888 0.0026539307171 0.0058831213892 0.010242946365 0.015581841371 0.021720512178 0.028464726209 0.035619064832 
0.042998824131 0.050437481239 0.057788246937 0.064919758249 0.071707456871 0.078023390132 0.083727991631 0.088667702487 0.092681650765 
0.095618519238 0.097361344906 0.097854629092 0.097126630358 0.095300905394 0.092594459452 0.089305290103 0.085807201458 0.082489409107 
0.079529230039 0.077064762697 0.075222180781 0.074141710716 0.073794513309 0.07414078917 0.075150945395 0.076774339859 0.078913233584 
0.081406994694 0.084055038131 0.086671292976 0.089133821713 0.091404603549 0.093515426206 0.095530669215 0.09750893243 0.099487877281 
0.10150232835 0.10362234227 0.10598543909 0.10879956082 0.11230413417 0.11670157627 0.12209929122 0.12849209636 0.13577577957 
0.14376451309 0.15219421987 0.16072052692 0.1689522527 0.17650810525 0.18306472635 0.1883978292 0.1924067223 0.19512477524 
0.19670583288 0.19732736889 0.19713224718 0.19619355025 0.1946276809 0.19254655661 0.19002086367 0.18707860414 0.18371633933 
0.17991184335 0.17563600511 0.17086250486 0.16557390689 0.15976438557 0.15344015273 0.1466180748 0.13932260925 0.13158215277 
0.12342690283 0.11488993264 0.10601175754 0.096847310189 0.087473113966 0.077991478758 0.06852868096 0.059226305797 0.050228321497 
0.0416687341 0.033664367022 0.026314685018 0.019707095403 0.013923678896 0.0090451652555 0.0051500468381 0.0023094992316 0.00058054952156 
2.9977368515e-17 
