# vtk DataFile Version 5.1
vtk output
ASCII
DATASET POLYDATA
POINTS 100 float
0.118396 -0.0195214 0.657694 0.118262 -0.019532 0.657459 0.117832 -0.0196589 0.656927 
0.117129 -0.0198742 0.656085 0.116187 -0.0201366 0.654912 0.11505 -0.0203959 0.653379 
0.113769 -0.0205995 0.651443 0.112394 -0.0206992 0.649058 0.110972 -0.0206572 0.646166 
0.109541 -0.0204503 0.642708 0.108128 -0.0200732 0.638621 0.106743 -0.0195383 0.633848 
0.105382 -0.0188743 0.628338 0.104022 -0.0181219 0.622051 0.102622 -0.0173284 0.614966 
0.101129 -0.016541 0.607079 0.0994775 -0.0158007 0.598409 0.0975954 -0.0151366 0.588995 
0.0954081 -0.0145618 0.578898 0.092844 -0.0140713 0.568194 0.0898391 -0.0136427 0.55697 
0.0863419 -0.0132385 0.54532 0.0823169 -0.0128108 0.533335 0.0777472 -0.0123077 0.521098 
0.072636 -0.0116798 0.508682 0.0670063 -0.0108873 0.496139 0.0608998 -0.00990568 0.483502 
0.0543735 -0.00873019 0.470783 0.0474961 -0.0073783 0.457975 0.040343 -0.00588981 0.44505 
0.0329908 -0.00432469 0.431969 0.0255119 -0.00275906 0.418682 0.0179698 -0.00127954 0.405131 
0.0104148 2.32421e-05 0.391257 0.00288126 0.00106141 0.376999 -0.00461285 0.0017562 0.362301 
-0.0120654 0.00204331 0.347105 -0.019487 0.00187689 0.33136 -0.0268962 0.00123185 0.315014 
-0.0343134 0.000104521 0.298018 -0.0417535 -0.00148831 0.280327 -0.0492183 -0.00351165 0.261897 
-0.05669 -0.00591558 0.242689 -0.0641244 -0.00863906 0.222673 -0.0714479 -0.011614 0.201832 
-0.0785554 -0.0147694 0.180163 -0.0853123 -0.0180346 0.157687 -0.0915585 -0.0213427 0.134445 
-0.0971164 -0.0246328 0.110506 -0.1018 -0.0278522 0.0859631 -0.105427 -0.0309571 0.0609349 
-0.107831 -0.0339138 0.0355578 -0.108872 -0.0366984 0.00998179 -0.108451 -0.0392964 -0.0156384 
-0.106511 -0.0417018 -0.0411516 -0.103049 -0.0439152 -0.0664185 -0.0981153 -0.045942 -0.0913198 
-0.0918065 -0.0477894 -0.115762 -0.0842646 -0.0494633 -0.139679 -0.0756641 -0.050965 -0.163037 
-0.0662011 -0.0522882 -0.185828 -0.0560801 -0.0534156 -0.208067 -0.0455007 -0.0543172 -0.229789 
-0.0346462 -0.0549491 -0.251036 -0.0236738 -0.0552539 -0.271853 -0.0127091 -0.0551627 -0.292279 
-0.00184306 -0.0545987 -0.312345 0.00886648 -0.0534826 -0.332068 0.01939 -0.0517387 -0.35145 
0.0297188 -0.049302 -0.37048 0.0398561 -0.046125 -0.389136 0.0498068 -0.042184 -0.407389 
0.0595684 -0.0374841 -0.425209 0.0691238 -0.0320616 -0.442565 0.078436 -0.0259846 -0.459432 
0.087447 -0.0193503 -0.475787 0.0960786 -0.0122804 -0.491614 0.104238 -0.0049134 -0.506895 
0.111825 0.00260357 -0.521614 0.118739 0.0101247 -0.535744 0.124891 0.0175144 -0.54925 
0.130213 0.0246559 -0.562083 0.134662 0.031457 -0.574178 0.138228 0.0378538 -0.585459 
0.140932 0.0438116 -0.59584 0.142832 0.0493224 -0.605236 0.144009 0.0544005 -0.613565 
0.144571 0.0590753 -0.620767 0.144636 0.0633841 -0.626803 0.144327 0.0673634 -0.631672 
0.143764 0.0710424 -0.635413 0.143055 0.0744372 -0.638105 0.142294 0.0775477 -0.639869 
0.14155 0.080357 -0.640859 0.140878 0.0828331 -0.641252 0.14031 0.0849335 -0.641235 
0.139864 0.0866105 -0.640992 0.139549 0.0878183 -0.640683 0.139365 0.0885186 -0.640436 
0.139312 0.0886865 -0.640334 
LINES 2 100
OFFSETS vtktypeint64
0 100 
CONNECTIVITY vtktypeint64
0 1 2 3 4 5 6 7 8 
9 10 11 12 13 14 15 16 17 
18 19 20 21 22 23 24 25 26 
27 28 29 30 31 32 33 34 35 
36 37 38 39 40 41 42 43 44 
45 46 47 48 49 50 51 52 53 
54 55 56 57 58 59 60 61 62 
63 64 65 66 67 68 69 70 71 
72 73 74 75 76 77 78 79 80 
81 82 83 84 85 86 87 88 89 
90 91 92 93 94 95 96 97 98 
99 
POINT_DATA 100
FIELD FieldData 3
_theta 1 100 double
0 0.031733259127 0.063466518254 0.095199777382 0.12693303651 0.15866629564 0.19039955476 0.22213281389 0.25386607302 
0.28559933214 0.31733259127 0.3490658504 0.38079910953 0.41253236865 0.44426562778 0.47599888691 0.50773214603 0.53946540516 
0.57119866429 0.60293192342 0.63466518254 0.66639844167 0.6981317008 0.72986495992 0.76159821905 0.79333147818 0.82506473731 
0.85679799643 0.88853125556 0.92026451469 0.95199777382 0.98373103294 1.0154642921 1.0471975512 1.0789308103 1.1106640695 
1.1423973286 1.1741305877 1.2058638468 1.237597106 1.2693303651 1.3010636242 1.3327968833 1.3645301425 1.3962634016 
1.4279966607 1.4597299198 1.491463179 1.5231964381 1.5549296972 1.5866629564 1.6183962155 1.6501294746 1.6818627337 
1.7135959929 1.745329252 1.7770625111 1.8087957702 1.8405290294 1.8722622885 1.9039955476 1.9357288068 1.9674620659 
1.999195325 2.0309285841 2.0626618433 2.0943951024 2.1261283615 2.1578616206 2.1895948798 2.2213281389 2.253061398 
2.2847946572 2.3165279163 2.3482611754 2.3799944345 2.4117276937 2.4434609528 2.4751942119 2.506927471 2.5386607302 
2.5703939893 2.6021272484 2.6338605076 2.6655937667 2.6973270258 2.7290602849 2.7607935441 2.7925268032 2.8242600623 
2.8559933214 2.8877265806 2.9194598397 2.9511930988 2.982926358 3.0146596171 3.0463928762 3.0781261353 3.1098593945 
3.1415926536 
_radius 1 100 double
1.1113500229e-15 0.015329781464 0.030659297066 0.045985723335 0.061295127673 0.076557057106 0.091720107349 0.10670946162 0.12142741714 
0.13575762185 0.14957317064 0.16274796559 0.17516996234 0.18675426187 0.19745366168 0.2072644448 0.21622592762 0.22441347242 
0.23192599388 0.23887010336 0.24534367023 0.25142160183 0.25714608746 0.26252260235 0.26752189324 0.27208721654 0.2761454096 
0.27961997264 0.28244419564 0.28457245929 0.2859881427 0.2867070353 0.28677573334 0.28626518778 0.28526032997 0.2838474172 
0.28210123128 0.28007437759 0.27779062002 0.27524351137 0.27240068805 0.26921327932 0.26562910589 0.26160781416 0.25713582809 
0.25223897042 0.24699077173 0.24151483732 0.23598018589 0.23058924611 0.22555925208 0.22109912675 0.21738537061 0.21454138226 
0.21262424145 0.2116209944 0.21145368594 0.21199027311 0.21305814612 0.2144580571 0.21597776524 0.21740570859 0.21854518912 
0.21922910297 0.21933455021 0.21879600894 0.21761515993 0.21586490008 0.21368513079 0.21126920221 0.20884200295 0.20663239955 
0.2048434897 0.20362428188 0.20304637799 0.20308898014 0.20363471394 0.20447719072 0.20533925451 0.20589912453 0.20582064483 
0.20478369774 0.20251133688 0.1987910678 0.19348870895 0.1865542443 0.17801994141 0.1679917041 0.15663512747 0.14415801245 
0.13079118869 0.1167694193 0.10231396469 0.087618109445 0.072836631953 0.058079827876 0.043412281417 0.028856134561 0.014398200933 
5.6525637874e-16 
_area 1 100 double
0 0.00061728923931 0.0024604947489 0.0055035143656 0.0097025948661 0.014996385995 0.02130669949 0.028540216479 0.036590784554 
0.04534102587 0.054661507498 0.064407263527 0.074415537911 0.084511747583 0.0945275836 0.10432685533 0.11382865745 0.12301831521 
0.13194215976 0.14068790166 0.14935542283 0.15802349991 0.1667183297 0.17539057389 0.18390750938 0.1920641609 0.1996124019 
0.20630180261 0.21192237569 0.2163386121 0.21950666813 0.22147157923 0.22234774856 0.22229120411 0.22147143287 0.22004573421 
0.21813525761 0.21580558271 0.21306240949 0.20986472308 0.20614382474 0.20182073997 0.19682581899 0.19112346412 0.18473738742 
0.17776791506 0.1703946348 0.16286213055 0.15545068621 0.14843721072 0.14205488499 0.13646257405 0.13173536926 0.12788273627 
0.12487718171 0.12263690126 0.12099724564 0.11980088109 0.11899415701 0.11825783773 0.11743956103 0.11643901161 0.11523096835 
0.11384269925 0.11223248648 0.11031047483 0.10800259425 0.10529202035 0.10224009825 0.098988451322 0.095751107818 0.092803797521 
0.09048241786 0.089213390372 0.089488959666 0.091042822611 0.093502007334 0.096505912512 0.099623510261 0.1023886389 0.10434279497 
0.10507608078 0.10426680842 0.10171552705 0.097366736826 0.091313364814 0.083782926785 0.075108180333 0.065687841718 0.055944132218 
0.046283523371 0.037065438926 0.028581562934 0.02104654933 0.014599606544 0.0093152619617 0.0052202182199 0.0023121601716 0.00057667911322 
6.9517147583e-17 
