# vtk DataFile Version 5.1
vtk output
ASCII
DATASET POLYDATA
POINTS 100 float
0.115909 -0.0378566 0.695624 0.116021 -0.037787 0.695403 0.116295 -0.0377121 0.694891 
0.116685 -0.0376174 0.694084 0.117123 -0.0374815 0.692972 0.11752 -0.0372788 0.691535 
0.117784 -0.0369839 0.689743 0.117824 -0.0365755 0.687554 0.11756 -0.0360393 0.684909 
0.116933 -0.0353702 0.681738 0.115908 -0.0345737 0.677961 0.114474 -0.0336643 0.673494 
0.112644 -0.0326639 0.668257 0.110448 -0.031598 0.662181 0.107927 -0.0304917 0.655214 
0.105128 -0.0293662 0.647333 0.102087 -0.0282347 0.638544 0.0988315 -0.0271011 0.628886 
0.0953707 -0.0259584 0.618424 0.0916944 -0.0247905 0.607251 0.0877745 -0.0235746 0.595475 
0.0835689 -0.0222848 0.583208 0.0790279 -0.0208973 0.57056 0.0741021 -0.0193947 0.55762 
0.0687503 -0.0177706 0.544459 0.0629469 -0.016032 0.531114 0.0566867 -0.0142011 0.517594 
0.0499881 -0.0123143 0.503878 0.0428923 -0.0104202 0.489924 0.03546 -0.00857529 0.475676 
0.027765 -0.00683933 0.461075 0.0198866 -0.00526959 0.446069 0.0119009 -0.00391602 0.430619 
0.00387311 -0.00281711 0.41471 -0.00414898 -0.00199731 0.39835 -0.0121385 -0.00146629 0.381568 
-0.0200897 -0.00122002 0.364409 -0.0280152 -0.00124344 0.346926 -0.0359391 -0.00151443 0.329168 
-0.0438887 -0.00200822 0.311171 -0.0518841 -0.0027018 0.292945 -0.0599278 -0.00357748 0.274474 
-0.0679959 -0.00462516 0.255708 -0.0760313 -0.00584302 0.236569 -0.0839406 -0.00723637 0.216955 
-0.0915951 -0.00881507 0.196752 -0.0988357 -0.0105898 0.17585 -0.105482 -0.0125677 0.154152 
-0.111345 -0.0147484 0.131592 -0.116237 -0.0171206 0.108145 -0.119992 -0.01966 0.0838322 
-0.122473 -0.0223291 0.0587227 -0.123585 -0.0250787 0.0329311 -0.123283 -0.027851 0.00660736 
-0.121571 -0.0305834 -0.0200756 -0.118506 -0.033214 -0.0469369 -0.114189 -0.0356852 -0.0738037 
-0.108757 -0.0379482 -0.100525 -0.10237 -0.039965 -0.126983 -0.0952014 -0.0417089 -0.153097 
-0.0874212 -0.043163 -0.17883 -0.0791886 -0.0443175 -0.204177 -0.0706409 -0.0451651 -0.229162 
-0.0618887 -0.0456965 -0.253823 -0.0530134 -0.0458959 -0.278197 -0.0440686 -0.0457376 -0.30231 
-0.0350843 -0.0451842 -0.326165 -0.0260733 -0.0441876 -0.349734 -0.0170392 -0.0426914 -0.372952 
-0.00798434 -0.040636 -0.395729 0.00108245 -0.0379651 -0.417946 0.0101401 -0.0346333 -0.439473 
0.0191513 -0.0306127 -0.460182 0.0280612 -0.0258997 -0.479957 0.0367985 -0.0205184 -0.498706 
0.0452785 -0.0145225 -0.516375 0.0534087 -0.00799358 -0.532944 0.0610945 -0.00103635 -0.548434 
0.0682463 0.00622791 -0.562898 0.0747852 0.0136703 -0.576413 0.0806491 0.0211635 -0.589069 
0.0857962 0.0285911 -0.600952 0.0902076 0.0358547 -0.612141 0.0938876 0.0428794 -0.622688 
0.0968627 0.0496157 -0.63262 0.0991791 0.0560385 -0.641937 0.100898 0.0621429 -0.650612 
0.102094 0.0679383 -0.658599 0.102845 0.0734397 -0.665846 0.103235 0.07866 -0.672302 
0.103343 0.0836021 -0.677932 0.103245 0.0882534 -0.682722 0.103008 0.0925827 -0.686686 
0.102691 0.0965401 -0.689867 0.102345 0.10006 -0.692333 0.102009 0.103067 -0.69417 
0.101715 0.105482 -0.695472 0.101484 0.107235 -0.696328 0.101334 0.108266 -0.696813 
0.101272 0.10854 -0.696976 
LINES 2 100
OFFSETS vtktypeint64
0 100 
CONNECTIVITY vtktypeint64
0 1 2 3 4 5 6 7 8 
9 10 11 12 13 14 15 16 17 
18 19 20 21 22 23 24 25 26 
27 28 29 30 31 32 33 34 35 
36 37 38 39 40 41 42 43 44 
45 46 47 48 49 50 51 52 53 
54 55 56 57 58 59 60 61 62 
63 64 65 66 67 68 69 70 71 
72 73 74 75 76 77 78 79 80 
81 82 83 84 85 86 87 88 89 
90 91 92 93 94 95 96 97 98 
99 
POINT_DATA 100
FIELD FieldData 3
_theta 1 100 double
0 0.031733259127 0.063466518254 0.095199777382 0.12693303651 0.15866629564 0.19039955476 0.22213281389 0.25386607302 
0.28559933214 0.31733259127 0.3490658504 0.38079910953 0.41253236865 0.44426562778 0.47599888691 0.50773214603 0.53946540516 
0.57119866429 0.60293192342 0.63466518254 0.66639844167 0.6981317008 0.72986495992 0.76159821905 0.79333147818 0.82506473731 
0.85679799643 0.88853125556 0.92026451469 0.95199777382 0.98373103294 1.0154642921 1.0471975512 1.0789308103 1.1106640695 
1.1423973286 1.1741305877 1.2058638468 1.237597106 1.2693303651 1.3010636242 1.3327968833 1.3645301425 1.3962634016 
1.4279966607 1.4597299198 1.491463179 1.5231964381 1.5549296972 1.5866629564 1.6183962155 1.6501294746 1.6818627337 
1.7135959929 1.745329252 1.7770625111 1.8087957702 1.8405290294 1.8722622885 1.9039955476 1.9357288068 1.9674620659 
1.999195325 2.0309285841 2.0626618433 2.0943951024 2.1261283615 2.1578616206 2.1895948798 2.2213281389 2.253061398 
2.2847946572 2.3165279163 2.3482611754 2.3799944345 2.4117276937 2.4434609528 2.4751942119 2.506927471 2.5386607302 
2.5703939893 2.6021272484 2.6338605076 2.6655937667 2.6973270258 2.7290602849 2.7607935441 2.7925268032 2.8242600623 
2.8559933214 2.8877265806 2.9194598397 2.9511930988 2.982926358 3.0146596171 3.0463928762 3.0781261353 3.1098593945 
3.1415926536 
_radius 1 100 double
1.4477033929e-15 0.01482729591 0.02961607625 0.044331251999 0.058928195217 0.073351033322 0.087534142527 0.10140650051 0.11489776544 
0.12794447845 0.14049480127 0.15251069066 0.16396720441 0.17484945756 0.18514832783 0.19485617233 0.20396355506 0.21245746068 
0.22032093632 0.22753377887 0.2340738586 0.23991887336 0.24504859236 0.24944779089 0.25310998187 0.25604171921 0.25826680126 
0.2598293254 0.26079441293 0.26124563678 0.26127874461 0.26099208091 0.26047498656 0.25979614105 0.25899406386 0.25807168123 
0.25699608262 0.25570360667 0.25410951122 0.25212087917 0.24965111749 0.246634344 0.24303802718 0.23887238791 0.23419529055 
0.22911172142 0.22376756639 0.21833825057 0.21301367458 0.20798142861 0.20341030431 0.19943582037 0.1961491333 0.19359038507 
0.19174707176 0.19055738143 0.18991795464 0.18969535731 0.18974034779 0.18990340223 0.19004941225 0.19006980483 0.18989140406 
0.18948202217 0.18885241585 0.18805369608 0.18716965794 0.18630469411 0.18556901436 0.18506325513 0.18486427553 0.18501333483 
0.18550738609 0.18629414823 0.18727172098 0.18829334499 0.18917728906 0.18972098695 0.18971781238 0.18897446928 0.18732688923 
0.18465272679 0.18087900155 0.17598410545 0.1699941722 0.16297456303 0.15501784119 0.1462300062 0.13671690303 0.12657262805 
0.11587147605 0.10466455566 0.09298163028 0.08083795674 0.068244897356 0.055222080811 0.041808278343 0.028068298603 0.014094133021 
5.3750745005e-16 
_area 1 100 double
0 0.00058990277595 0.0023523230629 0.005264902412 0.0092885459479 0.014364514446 0.02041122757 0.027322995101 0.034973027381 
0.043221433419 0.05192640287 0.060954985708 0.070189838334 0.079530058705 0.08888704562 0.098178687647 0.10732547428 0.11625007748 
0.12487927776 0.13314573129 0.14098742284 0.1483442197 0.1551533634 0.16134780102 0.1668603867 0.17163307329 0.17562765969 
0.17883586346 0.18128739846 0.18305257422 0.18423509598 0.18495459107 0.18532350041 0.18542495749 0.18529666242 0.18492291697 
0.18423534041 0.18312294085 0.1814519433 0.17909276665 0.17594870639 0.17198110016 0.16722589226 0.16179630911 0.15587052052 
0.14966967938 0.14343300232 0.1373940162 0.13176061126 0.12669885558 0.12231631998 0.11864130261 0.11560957423 0.11307454193 
0.11083122155 0.10867191233 0.10644271625 0.10404983392 0.10144461343 0.098609557487 0.095551309922 0.092321948887 0.089032816544 
0.085854339339 0.082989404031 0.080604257046 0.078742194745 0.077350796342 0.076374394976 0.075783642035 0.075569660447 0.075741342409 
0.076324937993 0.077367190284 0.078942836285 0.081190853505 0.083828739911 0.086338012343 0.088331199236 0.089492981769 0.089583329775 
0.088450902063 0.0860419421 0.082399719362 0.077652259214 0.071989605723 0.06563560762 0.058820920667 0.051762662051 0.044653030876 
0.037656204084 0.030911356225 0.024539684675 0.018653582678 0.013365587077 0.0087939295399 0.0050617717005 0.0022890366798 0.00057847171963 
6.5052966042e-17 
