# vtk DataFile Version 5.1
vtk output
ASCII
DATASET POLYDATA
POINTS 100 float
0.164646 0.0652655 -0.658115 0.164458 0.0654087 -0.658127 0.163949 0.0656406 -0.658131 
0.163103 0.065911 -0.658039 0.161896 0.0661405 -0.657715 0.160295 0.066226 -0.656992 
0.158263 0.0660485 -0.655684 0.15576 0.0654812 -0.653615 0.152747 0.0643989 -0.650629 
0.149188 0.0626881 -0.646607 0.145055 0.0602555 -0.641481 0.140328 0.0570359 -0.635233 
0.135 0.0529984 -0.627893 0.129075 0.0481499 -0.619534 0.122572 0.0425362 -0.610257 
0.115523 0.0362399 -0.600177 0.107973 0.0293764 -0.589405 0.0999764 0.0220864 -0.57804 
0.091595 0.0145279 -0.566151 0.0828954 0.00686565 -0.553776 0.0739448 -0.000738298 -0.540915 
0.0648071 -0.00813418 -0.527543 0.0555398 -0.0151923 -0.513608 0.0461908 -0.0218086 -0.499046 
0.0367962 -0.0279077 -0.483796 0.0273795 -0.0334429 -0.467802 0.0179513 -0.038394 -0.451032 
0.00851077 -0.0427617 -0.433475 -0.00095163 -0.0465617 -0.415147 -0.0104504 -0.0498174 -0.396085 
-0.0200005 -0.0525524 -0.376345 -0.029612 -0.0547848 -0.355989 -0.0392847 -0.056523 -0.335076 
-0.0490033 -0.0577637 -0.313659 -0.0587331 -0.0584925 -0.291769 -0.0684166 -0.0586872 -0.269421 
-0.0779729 -0.0583224 -0.246607 -0.0872972 -0.0573767 -0.223307 -0.0962638 -0.0558387 -0.199492 
-0.10473 -0.0537134 -0.175137 -0.112542 -0.0510275 -0.15023 -0.119543 -0.0478316 -0.124784 
-0.125581 -0.0442004 -0.098841 -0.130515 -0.0402304 -0.0724828 -0.134228 -0.0360343 -0.0458249 
-0.13663 -0.0317346 -0.019015 -0.137664 -0.0274545 0.00777546 -0.13731 -0.0233104 0.0343632 
-0.13559 -0.0194032 0.0605656 -0.132559 -0.015813 0.0862138 -0.128308 -0.0125947 0.111165 
-0.122955 -0.00977711 0.135308 -0.116639 -0.00736422 0.158575 -0.109513 -0.00533947 0.180934 
-0.101732 -0.00367126 0.202392 -0.0934481 -0.00231984 0.222984 -0.0847996 -0.00124409 0.242769 
-0.0759085 -0.000407664 0.261813 -0.0668744 0.000216587 0.280188 -0.0577733 0.000644157 0.297957 
-0.0486575 0.000878802 0.31517 -0.0395578 0.000914621 0.331867 -0.0304877 0.000739925 0.348071 
-0.0214477 0.000342216 0.363797 -0.0124316 -0.000286531 0.379054 -0.0034319 -0.00114513 0.39385 
0.0055553 -0.00221976 0.408202 0.0145257 -0.00348236 0.422132 0.023464 -0.00489121 0.435674 
0.0323426 -0.00639364 0.448869 0.0411218 -0.00793047 0.461765 0.049751 -0.0094417 0.474405 
0.058172 -0.0108725 0.486829 0.0663219 -0.0121789 0.499058 0.074138 -0.0133321 0.511097 
0.0815609 -0.0143208 0.522927 0.0885388 -0.0151519 0.534507 0.0950303 -0.0158481 0.545779 
0.101006 -0.0164437 0.556669 0.106452 -0.0169794 0.5671 0.111364 -0.0174957 0.577001 
0.115755 -0.0180271 0.586314 0.119645 -0.0185964 0.595002 0.123065 -0.0192116 0.603057 
0.126051 -0.0198647 0.610497 0.128643 -0.0205328 0.617367 0.130883 -0.0211812 0.62373 
0.13281 -0.0217689 0.629662 0.134463 -0.0222547 0.635237 0.135875 -0.0226036 0.640518 
0.137078 -0.0227924 0.645548 0.138097 -0.022814 0.650339 0.138952 -0.0226792 0.654873 
0.139662 -0.0224165 0.659099 0.140241 -0.0220693 0.662939 0.140698 -0.0216907 0.666297 
0.141043 -0.0213372 0.669071 0.141281 -0.0210619 0.671162 0.141416 -0.0209078 0.672489 
0.141451 -0.0209021 0.672998 
LINES 2 100
OFFSETS vtktypeint64
0 100 
CONNECTIVITY vtktypeint64
0 1 2 3 4 5 6 7 8 
9 10 11 12 13 14 15 16 17 
18 19 20 21 22 23 24 25 26 
27 28 29 30 31 32 33 34 35 
36 37 38 39 40 41 42 43 44 
45 46 47 48 49 50 51 52 53 
54 55 56 57 58 59 60 61 62 
63 64 65 66 67 68 69 70 71 
72 73 74 75 76 77 78 79 80 
81 82 83 84 85 86 87 88 89 
90 91 92 93 94 95 96 97 98 
99 
POINT_DATA 100
FIELD FieldData 3
_theta 1 100 double
0 0.031733259127 0.063466518254 0.095199777382 0.12693303651 0.15866629564 0.19039955476 0.22213281389 0.25386607302 
0.28559933214 0.31733259127 0.3490658504 0.38079910953 0.41253236865 0.44426562778 0.47599888691 0.50773214603 0.53946540516 
0.57119866429 0.60293192342 0.63466518254 0.66639844167 0.6981317008 0.72986495992 0.76159821905 0.79333147818 0.82506473731 
0.85679799643 0.88853125556 0.92026451469 0.95199777382 0.98373103294 1.0154642921 1.0471975512 1.0789308103 1.1106640695 
1.1423973286 1.1741305877 1.2058638468 1.237597106 1.2693303651 1.3010636242 1.3327968833 1.3645301425 1.3962634016 
1.4279966607 1.4597299198 1.491463179 1.5231964381 1.5549296972 1.5866629564 1.6183962155 1.6501294746 1.6818627337 
1.7135959929 1.745329252 1.7770625111 1.8087957702 1.8405290294 1.8722622885 1.9039955476 1.9357288068 1.9674620659 
1.999195325 2.0309285841 2.0626618433 2.0943951024 2.1261283615 2.1578616206 2.1895948798 2.2213281389 2.253061398 
2.2847946572 2.3165279163 2.3482611754 2.3799944345 2.4117276937 2.4434609528 2.4751942119 2.506927471 2.5386607302 
2.5703939893 2.6021272484 2.6338605076 2.6655937667 2.6973270258 2.7290602849 2.7607935441 2.7925268032 2.8242600623 
2.8559933214 2.8877265806 2.9194598397 2.9511930988 2.982926358 3.0146596171 3.0463928762 3.0781261353 3.1098593945 
3.1415926536 
_radius 1 100 double
8.2207591954e-16 0.016121183587 0.032045490788 0.047580899065 0.062550274989 0.076797562281 0.090192555845 0.1026341635 0.1140522863 
0.12440853984 0.13369593762 0.14193742972 0.14918299161 0.15550494533 0.16099142975 0.16573836566 0.16984074571 0.1733844544 
0.17643995194 0.17905896117 0.181274783 0.18310612277 0.18456350663 0.18565672713 0.1864014946 0.18682371286 0.18696049781 
0.18685799232 0.18656691364 0.18613740144 0.18561500541 0.18503936104 0.18444594974 0.18386939634 0.18334507325 0.18290619603 
0.18257699735 0.18236664563 0.18226908813 0.18227021839 0.18235953108 0.18254172052 0.1828443515 0.18331968539 0.18404106662 
0.18509593452 0.18657772757 0.18857792205 0.19117822442 0.19444232296 0.19840673555 0.20307093235 0.20838782503 0.21425668253 
0.22052115479 0.22697477543 0.23337483075 0.23946335901 0.24499223333 0.24974840985 0.25357552148 0.25638877542 0.25818125456 
0.2590209829 0.25903931463 0.25841223407 0.25733695993 0.25600680996 0.25458754126 0.25319821415 0.25189891129 0.25068641635 
0.24949753329 0.24821858914 0.24669915408 0.24476809759 0.2422504574 0.23898390435 0.23483371885 0.2297052086 0.22355249915 
0.21638268659 0.20825448949 0.19927082706 0.18956530777 0.17928362575 0.16856240712 0.15750969271 0.1461918395 0.13463009617 
0.12280690615 0.11067908137 0.098193898095 0.085304709778 0.071983804076 0.058231244923 0.044079196853 0.029591803988 0.01486113505 
1.1263685357e-15 
_area 1 100 double
0 0.0006273158152 0.002497593085 0.005572790178 0.009780283478 0.01500244636 0.021069020692 0.02775770802 0.034806250973 
0.041935351187 0.048877853889 0.055407192673 0.061357918696 0.066633397909 0.071199854098 0.075070346532 0.078285002837 0.08089365902 
0.082944547408 0.084479696043 0.08553591404 0.086149997419 0.086367665108 0.086258873335 0.085980584429 0.085810235672 0.08560728308 
0.085320931137 0.084943131843 0.084487054543 0.083973062853 0.083429966269 0.082911934421 0.082497566029 0.08228216177 0.082361212978 
0.082806649437 0.0837963773 0.085161437579 0.086939670992 0.089032429489 0.091263745615 0.093554269088 0.095885752005 0.098267351434 
0.10072667899 0.10333608752 0.10622464968 0.10955746127 0.11350381627 0.11821235078 0.12379254704 0.13029251226 0.13767084334 
0.14577395119 0.15433142023 0.16297283132 0.17126329115 0.17875243768 0.18502954109 0.18977619519 0.1928081805 0.19409876337 
0.1937776523 0.19210422368 0.18941984499 0.18608935535 0.18244396242 0.17873766599 0.17512647792 0.1716719942 0.16836111686 
0.16512915742 0.16187652099 0.15847597117 0.15477419906 0.15059570043 0.14575677447 0.14009217909 0.13348948322 0.12592111685 
0.11746381352 0.10829845566 0.098688148362 0.088937431105 0.079340577309 0.070131480095 0.061449836098 0.053335044909 0.045749328098 
0.038619839105 0.031883580182 0.025521363394 0.019574115789 0.014141653511 0.0093681324433 0.0054196595437 0.0024591595199 0.00062263874371 
3.5397538898e-17 
