# vtk DataFile Version 5.1
vtk output
ASCII
DATASET POLYDATA
POINTS 100 float
0.107467 -0.0393618 0.629132 0.107508 -0.0390297 0.628925 0.107589 -0.0381835 0.62847 
0.107684 -0.0368752 0.627769 0.107756 -0.0351863 0.626819 0.107754 -0.0332195 0.625612 
0.107623 -0.0310893 0.624133 0.107304 -0.0289107 0.622352 0.106744 -0.0267889 0.620225 
0.105898 -0.02481 0.617692 0.104731 -0.0230341 0.614685 0.103226 -0.0214917 0.611124 
0.101379 -0.0201827 0.606927 0.0992012 -0.0190793 0.602018 0.0967157 -0.0181315 0.596334 
0.0939548 -0.0172743 0.58983 0.0909548 -0.016437 0.582485 0.0877509 -0.0155512 0.574307 
0.0843729 -0.0145594 0.565331 0.0808407 -0.0134212 0.555616 0.0771622 -0.0121169 0.54524 
0.073332 -0.010649 0.534293 0.0693322 -0.00904117 0.522867 0.0651357 -0.00733427 0.511051 
0.0607095 -0.00558148 0.498918 0.0560208 -0.003842 0.486525 0.051042 -0.00217488 0.47391 
0.0457563 -0.000633493 0.461087 0.0401612 0.000738587 0.448056 0.0342709 0.00190996 0.434803 
0.0281163 0.00286177 0.421312 0.0217423 0.00358621 0.407564 0.015203 0.00408357 0.393551 
0.00855575 0.00435833 0.379275 0.0018532 0.00441499 0.36475 -0.00486333 0.00425437 0.350002 
-0.0115702 0.00387103 0.335063 -0.018265 0.00325213 0.319966 -0.0249675 0.00237815 0.304739 
-0.031717 0.00122532 0.289394 -0.0385653 -0.000230474 0.273924 -0.0455682 -0.0020089 0.258296 
-0.0527727 -0.00411999 0.242455 -0.0602049 -0.00655954 0.226322 -0.0678571 -0.00930556 0.209804 
-0.0756784 -0.0123165 0.192799 -0.0835676 -0.0155317 0.175211 -0.0913721 -0.0188737 0.156955 
-0.0988916 -0.0222536 0.137976 -0.105888 -0.0255765 0.118247 -0.112102 -0.0287495 0.0977788 
-0.117268 -0.0316889 0.0766198 -0.121139 -0.0343273 0.05485 -0.123506 -0.0366187 0.0325749 
-0.12422 -0.0385417 0.00991423 -0.123201 -0.0401006 -0.0130095 -0.120452 -0.0413226 -0.0360827 
-0.116059 -0.0422538 -0.0592108 -0.110184 -0.0429524 -0.082325 -0.103053 -0.0434802 -0.105385 
-0.0949351 -0.0438946 -0.128379 -0.0861211 -0.0442401 -0.151315 -0.0768968 -0.0445417 -0.174215 
-0.0675197 -0.0448005 -0.197103 -0.0581986 -0.0449913 -0.219991 -0.0490787 -0.0450641 -0.242872 
-0.0402339 -0.044948 -0.26571 -0.0316674 -0.0445571 -0.288436 -0.0233204 -0.0437993 -0.310948 
-0.0150866 -0.0425851 -0.333118 -0.00683257 -0.0408369 -0.354797 0.00157946 -0.0384972 -0.37583 
0.0102695 -0.0355351 -0.396071 0.0193198 -0.0319502 -0.41539 0.0287599 -0.0277739 -0.43369 
0.0385587 -0.0230674 -0.450914 0.0486235 -0.0179174 -0.467045 0.0588069 -0.0124292 -0.482111 
0.0689198 -0.00671923 -0.496171 0.0787491 -0.000905625 -0.509315 0.088079 0.00489951 -0.521644 
0.0967107 0.0105976 -0.533261 0.104482 0.0161086 -0.544258 0.111279 0.0213745 -0.554705 
0.117049 0.0263594 -0.564645 0.121795 0.0310479 -0.57409 0.12558 0.0354413 -0.583023 
0.128507 0.039552 -0.591403 0.130714 0.0433975 -0.599177 0.132351 0.0469947 -0.606286 
0.133566 0.0503541 -0.612674 0.134491 0.0534762 -0.618303 0.135232 0.0563495 -0.623152 
0.135863 0.0589502 -0.627223 0.136424 0.0612438 -0.630541 0.136924 0.0631891 -0.633146 
0.137353 0.0647425 -0.635091 0.137686 0.0658627 -0.636428 0.137897 0.0665163 -0.637204 
0.137966 0.0666814 -0.637449 
LINES 2 100
OFFSETS vtktypeint64
0 100 
CONNECTIVITY vtktypeint64
0 1 2 3 4 5 6 7 8 
9 10 11 12 13 14 15 16 17 
18 19 20 21 22 23 24 25 26 
27 28 29 30 31 32 33 34 35 
36 37 38 39 40 41 42 43 44 
45 46 47 48 49 50 51 52 53 
54 55 56 57 58 59 60 61 62 
63 64 65 66 67 68 69 70 71 
72 73 74 75 76 77 78 79 80 
81 82 83 84 85 86 87 88 89 
90 91 92 93 94 95 96 97 98 
99 
POINT_DATA 100
FIELD FieldData 3
_theta 1 100 double
0 0.031733259127 0.063466518254 0.095199777382 0.12693303651 0.15866629564 0.19039955476 0.22213281389 0.25386607302 
0.28559933214 0.31733259127 0.3490658504 0.38079910953 0.41253236865 0.44426562778 0.47599888691 0.50773214603 0.53946540516 
0.57119866429 0.60293192342 0.63466518254 0.66639844167 0.6981317008 0.72986495992 0.76159821905 0.79333147818 0.82506473731 
0.85679799643 0.88853125556 0.92026451469 0.95199777382 0.98373103294 1.0154642921 1.0471975512 1.0789308103 1.1106640695 
1.1423973286 1.1741305877 1.2058638468 1.237597106 1.2693303651 1.3010636242 1.3327968833 1.3645301425 1.3962634016 
1.4279966607 1.4597299198 1.491463179 1.5231964381 1.5549296972 1.5866629564 1.6183962155 1.6501294746 1.6818627337 
1.7135959929 1.745329252 1.7770625111 1.8087957702 1.8405290294 1.8722622885 1.9039955476 1.9357288068 1.9674620659 
1.999195325 2.0309285841 2.0626618433 2.0943951024 2.1261283615 2.1578616206 2.1895948798 2.2213281389 2.253061398 
2.2847946572 2.3165279163 2.3482611754 2.3799944345 2.4117276937 2.4434609528 2.4751942119 2.506927471 2.5386607302 
2.5703939893 2.6021272484 2.6338605076 2.6655937667 2.6973270258 2.7290602849 2.7607935441 2.7925268032 2.8242600623 
2.8559933214 2.8877265806 2.9194598397 2.9511930988 2.982926358 3.0146596171 3.0463928762 3.0781261353 3.1098593945 
3.1415926536 
_radius 1 100 double
4.4695311105e-16 0.012977681207 0.026024786743 0.039203986554 0.052550305858 0.066062154573 0.079697544031 0.093375709212 0.10698357846 
0.12038595281 0.13343790408 0.14599777444 0.15793923961 0.16916113707 0.17959409634 0.18920339629 0.19798789981 0.20597537547 
0.21321496797 0.21976794735 0.22569807384 0.23106293222 0.23590743938 0.24026043843 0.24413485761 0.24753132259 0.2504444205 
0.2528701906 0.25481309009 0.25629082217 0.25733598079 0.25799421075 0.25831922024 0.25836542832 0.25817937097 0.25779125819 
0.25720817046 0.256410205 0.25535045243 0.25395913141 0.25215167231 0.24984009127 0.24694660823 0.24341808837 0.23923953427 
0.23444462316 0.22912130186 0.22341080829 0.21749918976 0.2116013712 0.20593900848 0.20071469634 0.19608656981 0.19214873267 
0.18892336574 0.18636816658 0.18439730232 0.18290793413 0.18180194546 0.18099543542 0.18041513561 0.17998848593 0.1796384341 
0.17929015906 0.17888690917 0.17840569794 0.17786523942 0.17732359062 0.17686674123 0.17659118187 0.17658418036 0.17690554374 
0.1775740216 0.17856023582 0.17978642526 0.1811319055 0.18244241134 0.18354151252 0.18424277541 0.18436183925 0.1837278119 
0.1821933828 0.17964296589 0.17599816495 0.17121996531 0.16530733421 0.15829236689 0.15023269952 0.14120248031 0.13128352971 
0.12055823722 0.10910521328 0.096997937186 0.084305927236 0.071097533025 0.057443342362 0.043419293229 0.029108751735 0.01460301711 
1.387317442e-15 
_area 1 100 double
0 0.00049547401465 0.0019860707525 0.004481746274 0.0079913271022 0.0125133065 0.01802688546 0.0244854848 0.031814121168 
0.039910993943 0.048652549634 0.05790037072 0.067507931903 0.077325988518 0.087206706742 0.097007502289 0.1065954083 0.11585216863 
0.12467955279 0.13300349363 0.14077494839 0.14796589633 0.15456097437 0.1605479343 0.16591170829 0.17063605097 0.17471324224 
0.17815744016 0.18101356323 0.18335401773 0.18526176207 0.18680759913 0.18803429659 0.18895420171 0.1895591648 0.18984445494 
0.18984391744 0.18963858775 0.18897942624 0.18763687128 0.1854666108 0.18236806331 0.17829112369 0.17324687645 0.1673138579 
0.160636872 0.15341837118 0.14590526776 0.13837403257 0.13111330871 0.12439979694 0.11846418862 0.11345202634 0.10939494747 
0.1062039608 0.10368774893 0.10159776229 0.099689316248 0.097776350375 0.095757140225 0.093613630976 0.091397789267 0.089206017508 
0.087137341277 0.085248669894 0.083544430452 0.082006924614 0.08062790293 0.07942331226 0.07843838311 0.077743355715 0.077417189406 
0.077523606836 0.078088368163 0.07908482115 0.080428830648 0.081979932168 0.083546594962 0.084896679916 0.085775149933 0.085929304587 
0.085138867784 0.083245686829 0.080176634142 0.075954145179 0.0706918222 0.064576775307 0.057843738143 0.050746893106 0.043534432216 
0.036429656562 0.029621095875 0.023262166546 0.017478178846 0.012375928127 0.0080505831293 0.0045871847304 0.002057817406 0.00051735387504 
8.7069055147e-17 
