# vtk DataFile Version 5.1
vtk output
ASCII
DATASET POLYDATA
POINTS 100 float
0.133074 -0.0148944 -0.69097 0.132939 -0.0148643 -0.691022 0.132516 -0.0146199 -0.690978 
0.131814 -0.0141708 -0.690731 0.130849 -0.0135343 -0.690121 0.129637 -0.0127375 -0.68895 
0.128188 -0.0118199 -0.687015 0.126499 -0.0108358 -0.684124 0.124554 -0.00985479 -0.680123 
0.122319 -0.00896146 -0.674914 0.119739 -0.00825219 -0.668461 0.116744 -0.00783023 -0.660797 
0.113253 -0.00779877 -0.652011 0.109179 -0.0082527 -0.642236 0.104443 -0.00926991 -0.631628 
0.0989765 -0.010903 -0.620345 0.0927391 -0.0131725 -0.608523 0.0857207 -0.0160625 -0.596261 
0.0779495 -0.019519 -0.583608 0.0694935 -0.0234519 -0.570559 0.060459 -0.0277403 -0.557061 
0.0509848 -0.0322403 -0.543022 0.0412333 -0.0367954 -0.52833 0.0313782 -0.0412475 -0.512872 
0.0215908 -0.0454484 -0.496556 0.0120261 -0.0492696 -0.479326 0.0028099 -0.0526101 -0.461174 
-0.00597163 -0.0554015 -0.442146 -0.0142785 -0.0576094 -0.422338 -0.0221186 -0.0592319 -0.401884 
-0.0295452 -0.0602945 -0.38094 -0.0366485 -0.0608436 -0.359664 -0.0435439 -0.0609384 -0.338196 
-0.0503564 -0.0606419 -0.316636 -0.0572045 -0.0600139 -0.295032 -0.0641829 -0.0591047 -0.273375 
-0.0713481 -0.0579512 -0.251599 -0.0787069 -0.0565759 -0.229588 -0.0862099 -0.0549876 -0.207196 
-0.0937503 -0.0531855 -0.184268 -0.101169 -0.051163 -0.160661 -0.108264 -0.0489138 -0.136269 
-0.114806 -0.0464367 -0.111038 -0.120556 -0.04374 -0.0849846 -0.125284 -0.0408443 -0.0581948 
-0.128791 -0.0377831 -0.0308227 -0.13092 -0.0346021 -0.00307906 -0.131574 -0.0313559 0.0247876 
-0.130722 -0.0281044 0.0525121 -0.1284 -0.0249079 0.0798361 -0.124707 -0.0218222 0.106529 
-0.119797 -0.0188948 0.132407 -0.113863 -0.0161619 0.157341 -0.107124 -0.0136475 0.181265 
-0.0998016 -0.0113629 0.204167 -0.0921056 -0.00930953 0.226087 -0.0842198 -0.00748113 0.247098 
-0.0762888 -0.00586759 0.267289 -0.0684124 -0.00445849 0.286755 -0.0606438 -0.00324609 0.305577 
-0.0529932 -0.00222738 0.323814 -0.0454356 -0.00140487 0.3415 -0.037922 -0.000785885 0.358646 
-0.0303927 -0.000380726 0.375243 -0.0227905 -0.000199853 0.391272 -0.0150729 -0.000250618 0.406718 
-0.00722192 -0.000534083 0.421579 0.000749766 -0.00104244 0.435874 0.00879672 -0.00175748 0.449648 
0.0168426 -0.00265037 0.462972 0.0247861 -0.0036829 0.475936 0.0325094 -0.00480996 0.488643 
0.0398887 -0.00598303 0.501192 0.0468055 -0.00715428 0.513666 0.0531571 -0.00828059 0.526119 
0.0588656 -0.00932715 0.538563 0.0638836 -0.01027 0.550966 0.0681976 -0.0110974 0.563248 
0.0718275 -0.0118096 0.575287 0.0748235 -0.0124176 0.58693 0.0772599 -0.0129401 0.598007 
0.0792276 -0.0134007 0.608348 0.0808254 -0.0138236 0.6178 0.0821519 -0.0142309 0.626239 
0.0832979 -0.0146393 0.633587 0.08434 -0.0150583 0.639814 0.0853375 -0.0154902 0.644941 
0.0863303 -0.0159297 0.649037 0.0873391 -0.0163663 0.652205 0.0883675 -0.0167856 0.654577 
0.0894055 -0.0171728 0.656297 0.0904328 -0.0175142 0.657505 0.0914237 -0.0177997 0.658331 
0.09235 -0.0180236 0.658887 0.0931843 -0.0181851 0.659255 0.0939023 -0.0182879 0.659498 
0.0944839 -0.0183384 0.659653 0.0949136 -0.0183445 0.65974 0.0951809 -0.0183134 0.659769 
0.0952797 -0.0182503 0.659743 
LINES 2 100
OFFSETS vtktypeint64
0 100 
CONNECTIVITY vtktypeint64
0 1 2 3 4 5 6 7 8 
9 10 11 12 13 14 15 16 17 
18 19 20 21 22 23 24 25 26 
27 28 29 30 31 32 33 34 35 
36 37 38 39 40 41 42 43 44 
45 46 47 48 49 50 51 52 53 
54 55 56 57 58 59 60 61 62 
63 64 65 66 67 68 69 70 71 
72 73 74 75 76 77 78 79 80 
81 82 83 84 85 86 87 88 89 
90 91 92 93 94 95 96 97 98 
99 
POINT_DATA 100
FIELD FieldData 3
_theta 1 100 double
0 0.031733259127 0.063466518254 0.095199777382 0.12693303651 0.15866629564 0.19039955476 0.22213281389 0.25386607302 
0.28559933214 0.31733259127 0.3490658504 0.38079910953 0.41253236865 0.44426562778 0.47599888691 0.50773214603 0.53946540516 
0.57119866429 0.60293192342 0.63466518254 0.66639844167 0.6981317008 0.72986495992 0.76159821905 0.79333147818 0.82506473731 
0.85679799643 0.88853125556 0.92026451469 0.95199777382 0.98373103294 1.0154642921 1.0471975512 1.0789308103 1.1106640695 
1.1423973286 1.1741305877 1.2058638468 1.237597106 1.2693303651 1.3010636242 1.3327968833 1.3645301425 1.3962634016 
1.4279966607 1.4597299198 1.491463179 1.5231964381 1.5549296972 1.5866629564 1.6183962155 1.6501294746 1.6818627337 
1.7135959929 1.745329252 1.7770625111 1.8087957702 1.8405290294 1.8722622885 1.9039955476 1.9357288068 1.9674620659 
1.999195325 2.0309285841 2.0626618433 2.0943951024 2.1261283615 2.1578616206 2.1895948798 2.2213281389 2.253061398 
2.2847946572 2.3165279163 2.3482611754 2.3799944345 2.4117276937 2.4434609528 2.4751942119 2.506927471 2.5386607302 
2.5703939893 2.6021272484 2.6338605076 2.6655937667 2.6973270258 2.7290602849 2.7607935441 2.7925268032 2.8242600623 
2.8559933214 2.8877265806 2.9194598397 2.9511930988 2.982926358 3.0146596171 3.0463928762 3.0781261353 3.1098593945 
3.1415926536 
_radius 1 100 double
8.9525850089e-16 0.014220140154 0.028376739368 0.042410462006 0.056270003375 0.069910751196 0.083288857061 0.096352134584 0.10903055896 
0.1212295902 0.13282887065 0.14368735869 0.15365428474 0.16258402594 0.1703523608 0.1768715524 0.18210213958 0.18605999892 
0.18881802406 0.19050253276 0.19128513192 0.19137112516 0.19098557134 0.19035788119 0.18970562892 0.18921835283 0.18904261656 
0.18927022989 0.18993174752 0.19099674687 0.19238102727 0.1939594248 0.19558211229 0.19709224797 0.19834328166 0.19921465107 
0.19962480183 0.19954052305 0.19898166286 0.19802048458 0.19677531957 0.19539889447 0.19406287126 0.19294147407 0.19219766481 
0.19197420034 0.19238934717 0.19353481564 0.19547321282 0.19823392538 0.20180843218 0.20614725792 0.2111606316 0.21672375796 
0.22268618167 0.22888366015 0.23515054038 0.24133078991 0.24728634268 0.25290208915 0.25808753015 0.2627757058 0.26692037831 
0.27049249604 0.27347670275 0.27586822665 0.27767010984 0.27889058741 0.27954051254 0.27963092764 0.27917104164 0.2781668787 
0.27662069855 0.27453102045 0.27189283854 0.2686975312 0.26493212777 0.2605779785 0.25560933371 0.24999265903 0.24368751389 
0.23664945832 0.22883485543 0.2202068418 0.21074137066 0.200432204 0.18929400554 0.17736312908 0.16469614613 0.15136649277 
0.13745979253 0.12306844993 0.10828606695 0.093202171309 0.077897692564 0.062441576359 0.046888863595 0.031280452744 0.015644599263 
4.5063127431e-16 
_area 1 100 double
0 0.00057102701473 0.0022798550266 0.0051124354142 0.0090412238605 0.014019513483 0.01997447368 0.026799885499 0.034349943662 
0.042435700922 0.050825645633 0.059251664411 0.067421304405 0.075036535719 0.081817832576 0.08753055947 0.092009138799 0.095174129369 
0.097038537978 0.097702150594 0.097335662891 0.096159021561 0.094419953373 0.092379105777 0.090310849224 0.088563710971 0.087338991936 
0.08664714362 0.086556897915 0.087007130847 0.087919379501 0.089160451151 0.090571275307 0.091998864957 0.093322125448 0.094470937625 
0.095435754877 0.096259772936 0.097013696315 0.097767795589 0.098574416911 0.099461331775 0.1004305797 0.10146278504 0.10253807519 
0.10366790154 0.10491138972 0.10639912958 0.10835383968 0.11111476188 0.11498883349 0.11988480781 0.12574841691 0.13248464958 
0.13993962986 0.147907475 0.15614398412 0.16438707913 0.17237907334 0.17988353762 0.18669410203 0.19263852442 0.19758308053 
0.20143956496 0.20417318647 0.20580702125 0.20641840165 0.20612485501 0.20506122336 0.20335327011 0.20109456758 0.19833280645 
0.19506925697 0.19127077555 0.18688897201 0.18187904568 0.17621258511 0.16988234198 0.16290017683 0.1552911928 0.14708774708 
0.13832660946 0.12905080538 0.11931506532 0.10919179004 0.098774560847 0.08817836069 0.077537706863 0.067003847397 0.056740660233 
0.046918306761 0.037704829069 0.02925720999 0.021713608564 0.01518783322 0.0097665300307 0.0055093679275 0.0024523181014 0.00061349342142 
6.1178549968e-17 
