# vtk DataFile Version 5.1
vtk output
ASCII
DATASET POLYDATA
POINTS 100 float
0.123968 -0.0413921 0.680626 0.123884 -0.0411478 0.680687 0.123603 -0.0405837 0.68101 
0.123109 -0.0397398 0.681485 0.122378 -0.0386773 0.681941 0.121385 -0.0374721 0.682163 
0.120109 -0.0362059 0.681915 0.118538 -0.0349569 0.680963 0.116675 -0.033791 0.679094 
0.114539 -0.0327546 0.676142 0.112161 -0.0318689 0.671998 0.109583 -0.0311274 0.666616 
0.106848 -0.0304969 0.660017 0.103995 -0.0299207 0.652278 0.101047 -0.0293245 0.643524 
0.0980062 -0.028625 0.633905 0.0948498 -0.0277384 0.623585 0.0915276 -0.0265897 0.612719 
0.0879667 -0.0251211 0.601441 0.0840785 -0.0232981 0.589849 0.0797692 -0.0211137 0.578006 
0.0749521 -0.0185904 0.565935 0.06956 -0.0157781 0.553623 0.0635558 -0.0127507 0.541037 
0.0569405 -0.00959991 0.528128 0.0497549 -0.00642823 0.514846 0.0420781 -0.00334082 0.501152 
0.0340192 -0.000437826 0.487024 0.0257052 0.00219243 0.472459 0.0172664 0.00447869 0.457477 
0.00882057 0.00637019 0.442111 0.000458949 0.00783788 0.426404 -0.00776443 0.00887367 0.410394 
-0.015838 0.00948787 0.394106 -0.0237914 0.0097052 0.377542 -0.0316884 0.00955998 0.360677 
-0.0396129 0.00909094 0.343454 -0.0476521 0.00833629 0.325785 -0.0558765 0.00732947 0.307564 
-0.0643219 0.00609595 0.28867 -0.0729737 0.00465128 0.268989 -0.0817579 0.00300059 0.248419 
-0.090538 0.00113931 0.226891 -0.099122 -0.000944898 0.204376 -0.107275 -0.00326925 0.180893 
-0.114739 -0.00585242 0.156512 -0.121257 -0.00871072 0.131349 -0.126598 -0.0118544 0.105556 
-0.13058 -0.0152843 0.0793121 -0.133088 -0.0189889 0.0528068 -0.134084 -0.0229424 0.026223 
-0.133612 -0.0271035 -0.000277065 -0.131787 -0.0314156 -0.0265641 -0.128784 -0.0358074 -0.05255 
-0.124814 -0.0401952 -0.0781903 -0.120102 -0.0444858 -0.103482 -0.114856 -0.0485802 -0.128457 
-0.109251 -0.0523778 -0.153169 -0.103404 -0.0557811 -0.17768 -0.0973737 -0.0587003 -0.202048 
-0.0911508 -0.0610575 -0.226309 -0.0846726 -0.0627906 -0.250471 -0.0778358 -0.0638557 -0.274501 
-0.070519 -0.0642292 -0.29833 -0.0626058 -0.0639078 -0.321849 -0.0540083 -0.0629076 -0.344921 
-0.0446862 -0.0612617 -0.367391 -0.0346598 -0.0590171 -0.389098 -0.0240153 -0.0562299 -0.409893 
-0.0129009 -0.0529616 -0.429651 -0.00151564 -0.0492741 -0.44828 0.00990901 -0.0452256 -0.465734 
0.0211309 -0.0408682 -0.482013 0.03192 -0.0362452 -0.497163 0.0420798 -0.0313916 -0.511271 
0.0514635 -0.0263345 -0.524453 0.0599838 -0.0210959 -0.536847 0.0676153 -0.0156956 -0.548595 
0.0743886 -0.010155 -0.559833 0.0803789 -0.00450135 -0.570677 0.0856889 0.00122959 -0.581215 
0.0904304 0.00699108 -0.591501 0.0947063 0.0127247 -0.601551 0.0985959 0.0183614 -0.611348 
0.102145 0.0238241 -0.620842 0.105364 0.0290315 -0.629963 0.108228 0.0339039 -0.638627 
0.110691 0.0383683 -0.646744 0.112695 0.0423646 -0.654233 0.11419 0.0458501 -0.661025 
0.115145 0.0488034 -0.667073 0.11556 0.0512255 -0.67235 0.115479 0.0531401 -0.676857 
0.114984 0.0545902 -0.680615 0.114193 0.0556342 -0.683664 0.11325 0.056339 -0.686052 
0.112305 0.0567734 -0.687836 0.111503 0.0570008 -0.689068 0.110959 0.0570722 -0.689789 
0.110752 0.0570212 -0.690027 
LINES 2 100
OFFSETS vtktypeint64
0 100 
CONNECTIVITY vtktypeint64
0 1 2 3 4 5 6 7 8 
9 10 11 12 13 14 15 16 17 
18 19 20 21 22 23 24 25 26 
27 28 29 30 31 32 33 34 35 
36 37 38 39 40 41 42 43 44 
45 46 47 48 49 50 51 52 53 
54 55 56 57 58 59 60 61 62 
63 64 65 66 67 68 69 70 71 
72 73 74 75 76 77 78 79 80 
81 82 83 84 85 86 87 88 89 
90 91 92 93 94 95 96 97 98 
99 
POINT_DATA 100
FIELD FieldData 3
_theta 1 100 double
0 0.031733259127 0.063466518254 0.095199777382 0.12693303651 0.15866629564 0.19039955476 0.22213281389 0.25386607302 
0.28559933214 0.31733259127 0.3490658504 0.38079910953 0.41253236865 0.44426562778 0.47599888691 0.50773214603 0.53946540516 
0.57119866429 0.60293192342 0.63466518254 0.66639844167 0.6981317008 0.72986495992 0.76159821905 0.79333147818 0.82506473731 
0.85679799643 0.88853125556 0.92026451469 0.95199777382 0.98373103294 1.0154642921 1.0471975512 1.0789308103 1.1106640695 
1.1423973286 1.1741305877 1.2058638468 1.237597106 1.2693303651 1.3010636242 1.3327968833 1.3645301425 1.3962634016 
1.4279966607 1.4597299198 1.491463179 1.5231964381 1.5549296972 1.5866629564 1.6183962155 1.6501294746 1.6818627337 
1.7135959929 1.745329252 1.7770625111 1.8087957702 1.8405290294 1.8722622885 1.9039955476 1.9357288068 1.9674620659 
1.999195325 2.0309285841 2.0626618433 2.0943951024 2.1261283615 2.1578616206 2.1895948798 2.2213281389 2.253061398 
2.2847946572 2.3165279163 2.3482611754 2.3799944345 2.4117276937 2.4434609528 2.4751942119 2.506927471 2.5386607302 
2.5703939893 2.6021272484 2.6338605076 2.6655937667 2.6973270258 2.7290602849 2.7607935441 2.7925268032 2.8242600623 
2.8559933214 2.8877265806 2.9194598397 2.9511930988 2.982926358 3.0146596171 3.0463928762 3.0781261353 3.1098593945 
3.1415926536 
_radius 1 100 double
7.9349520923e-16 0.016153494574 0.032147324145 0.047838421011 0.063108175397 0.077870477322 0.092075409231 0.10570807237 0.11878268297 
0.13133273532 0.14339862068 0.15501452993 0.16619666897 0.17693470696 0.18718793382 0.19688687543 0.20594023536 0.21424618004 
0.2217063207 0.22824036157 0.23379929598 0.23837520753 0.24200613123 0.24477501183 0.24680253219 0.24823442629 0.24922476038 
0.24991742835 0.25042858322 0.25083273081 0.25115465718 0.25136835073 0.25140290214 0.25115435291 0.25050181674 0.24932591289 
0.2475274884 0.24504463161 0.24186604648 0.23803902717 0.23367065208 0.22892148227 0.22399198713 0.21910301085 0.21447265913 
0.21029283384 0.20670907602 0.20380715212 0.20160868516 0.20007608053 0.19912459498 0.19863775339 0.19848239242 0.19852136645 
0.19862418384 0.19867694481 0.19859224018 0.19831811504 0.19784442995 0.19720538752 0.19647764873 0.19577364839 0.19522997398 
0.194991627 0.19519422362 0.19594679441 0.19731747078 0.19932341242 0.2019254594 0.2050275325 0.20848068159 0.21209157695 
0.2156349011 0.21886855764 0.22155012675 0.22345282755 0.22437946618 0.22417331213 0.22272533557 0.21997760801 0.21592290421 
0.21060071947 0.20409011231 0.19650001549 0.18795787942 0.17859765504 0.16854816611 0.1579229073 0.14681228594 0.13527927206 
0.12335920094 0.11106395618 0.098389974409 0.0853286849 0.071877446467 0.058048982275 0.043877734562 0.029422270624 0.014763615825 
2.9368929632e-16 
_area 1 100 double
0 0.00073282154811 0.0028975131971 0.006397271475 0.011084916186 0.016781301865 0.023296371358 0.030449821875 0.038088870506 
0.046100894275 0.054418394722 0.063013471457 0.071880572249 0.08101059018 0.090363924151 0.099851070377 0.10932624492 0.11859529525 
0.1274358986 0.1356260393 0.14297566224 0.14935581144 0.15471827478 0.15909534278 0.1625760416 0.16528448616 0.16737075506 
0.16899192066 0.17028802355 0.17136892857 0.17231584067 0.17319475146 0.17410216159 0.17509634092 0.17578829627 0.17580676124 
0.17485412909 0.17269947265 0.16922735606 0.16447608257 0.1586462698 0.15207669833 0.14519454466 0.13845268241 0.13226687898 
0.1269607682 0.12272137293 0.11957009624 0.11736437152 0.11584316244 0.11469479513 0.1136060382 0.11230029986 0.11058895516 
0.10841096919 0.10585472716 0.10314305604 0.10048982999 0.097912169858 0.095316184429 0.092715398366 0.090194971473 0.087927353555 
0.08619963209 0.08523696392 0.085190067277 0.086166919793 0.088259445551 0.091554941205 0.095658675366 0.10028414457 0.10511179896 
0.10980972754 0.11405057915 0.11753266778 0.12000200861 0.12126985784 0.12122214572 0.11982019374 0.11709441355 0.1131335271 
0.10807142062 0.10207281057 0.095318528646 0.087991540259 0.080264838487 0.072292478723 0.064205984822 0.056118132349 0.048132870439 
0.040356526852 0.032905314655 0.025907031713 0.019497454913 0.013812952761 0.0089811404396 0.0051117745762 0.0022902491052 0.00057522667871 
2.602085214e-18 
