# vtk DataFile Version 5.1
vtk output
ASCII
DATASET POLYDATA
POINTS 100 float
0.112226 0.117655 -0.675779 0.112171 0.117556 -0.675534 0.111984 0.117025 -0.674761 
0.111681 0.116052 -0.673432 0.111291 0.114627 -0.671504 0.110846 0.112738 -0.668929 
0.11038 0.11037 -0.665661 0.109922 0.107516 -0.661666 0.10949 0.10417 -0.656925 
0.109086 0.100332 -0.651444 0.108692 0.0960091 -0.645248 0.108265 0.0912145 -0.638385 
0.107739 0.0859668 -0.630915 0.107021 0.0802887 -0.622903 0.106002 0.0742056 -0.614413 
0.104558 0.0677443 -0.605493 0.102559 0.0609315 -0.59617 0.0998837 0.0537939 -0.586446 
0.0964231 0.0463582 -0.576292 0.0920961 0.0386526 -0.565656 0.0868556 0.0307091 -0.554466 
0.0806954 0.022566 -0.542641 0.0736518 0.0142712 -0.5301 0.0658029 0.00588449 -0.516776 
0.057263 -0.00252011 -0.502622 0.0481729 -0.0108534 -0.487621 0.0386884 -0.0190117 -0.47179 
0.0289669 -0.0268787 -0.455175 0.0191531 -0.0343297 -0.437847 0.00936769 -0.041237 -0.419895 
-0.000302292 -0.0474759 -0.401409 -0.00980777 -0.0529326 -0.382473 -0.0191375 -0.0575108 -0.36315 
-0.0283125 -0.0611381 -0.343473 -0.0373757 -0.0637714 -0.32344 -0.0463782 -0.0654001 -0.303018 
-0.0553631 -0.066047 -0.28214 -0.0643494 -0.0657667 -0.26072 -0.0733183 -0.0646426 -0.238666 
-0.0822026 -0.0627805 -0.215889 -0.0908826 -0.060302 -0.192326 -0.0991871 -0.0573363 -0.167946 
-0.106902 -0.0540123 -0.142763 -0.113786 -0.050451 -0.116843 -0.119586 -0.0467595 -0.0902978 
-0.124063 -0.0430266 -0.0632856 -0.127011 -0.0393204 -0.0359974 -0.128278 -0.0356883 -0.00864464 
-0.12778 -0.0321589 0.018556 -0.125513 -0.0287453 0.0453982 -0.121551 -0.02545 0.0716992 
-0.116043 -0.0222698 0.0973106 -0.109197 -0.0192009 0.122125 -0.101267 -0.0162432 0.146076 
-0.0925233 -0.0134034 0.169139 -0.0832368 -0.0106969 0.191324 -0.0736534 -0.00814694 0.212666 
-0.0639782 -0.00578407 0.233219 -0.0543637 -0.00364265 0.253044 -0.0449049 -0.00175736 0.272204 
-0.035642 -0.000159196 0.290758 -0.0265683 0.00112849 0.308759 -0.0176442 0.00209312 0.326254 
-0.00881353 0.00273505 0.343287 -1.99783e-05 0.00306838 0.359898 0.00877757 0.00312023 0.376134 
0.017594 0.00292884 0.392042 0.0264121 0.00254036 0.407675 0.0351824 0.00200499 0.423089 
0.0438287 0.00137283 0.438335 0.0522585 0.000689769 0.453457 0.0603761 -5.84847e-06 0.468481 
0.0680968 -0.000685715 0.483409 0.0753594 -0.00133276 0.498217 0.082136 -0.00194106 0.512844 
0.0884364 -0.00251446 0.527202 0.0943074 -0.0030642 0.541174 0.099826 -0.00360572 0.554623 
0.105088 -0.00415522 0.567409 0.110193 -0.00472621 0.579395 0.115231 -0.00532668 0.590467 
0.120262 -0.00595705 0.600541 0.125312 -0.00660916 0.609578 0.130361 -0.0072666 0.617585 
0.135344 -0.00790604 0.624616 0.140159 -0.00849967 0.630766 0.144676 -0.00901825 0.636164 
0.148756 -0.00943459 0.640955 0.152267 -0.00972694 0.645284 0.155104 -0.00988186 0.649284 
0.157203 -0.00989637 0.653056 0.158554 -0.00977896 0.656665 0.159204 -0.00954948 0.660128 
0.159253 -0.00923771 0.66342 0.158848 -0.00888089 0.666476 0.158163 -0.00852046 0.669202 
0.157383 -0.00819818 0.671492 0.156678 -0.00795221 0.67324 0.156189 -0.00781346 0.674357 
0.156007 -0.00780261 0.674785 
LINES 2 100
OFFSETS vtktypeint64
0 100 
CONNECTIVITY vtktypeint64
0 1 2 3 4 5 6 7 8 
9 10 11 12 13 14 15 16 17 
18 19 20 21 22 23 24 25 26 
27 28 29 30 31 32 33 34 35 
36 37 38 39 40 41 42 43 44 
45 46 47 48 49 50 51 52 53 
54 55 56 57 58 59 60 61 62 
63 64 65 66 67 68 69 70 71 
72 73 74 75 76 77 78 79 80 
81 82 83 84 85 86 87 88 89 
90 91 92 93 94 95 96 97 98 
99 
POINT_DATA 100
FIELD FieldData 3
_theta 1 100 double
0 0.031733259127 0.063466518254 0.095199777382 0.12693303651 0.15866629564 0.19039955476 0.22213281389 0.25386607302 
0.28559933214 0.31733259127 0.3490658504 0.38079910953 0.41253236865 0.44426562778 0.47599888691 0.50773214603 0.53946540516 
0.57119866429 0.60293192342 0.63466518254 0.66639844167 0.6981317008 0.72986495992 0.76159821905 0.79333147818 0.82506473731 
0.85679799643 0.88853125556 0.92026451469 0.95199777382 0.98373103294 1.0154642921 1.0471975512 1.0789308103 1.1106640695 
1.1423973286 1.1741305877 1.2058638468 1.237597106 1.2693303651 1.3010636242 1.3327968833 1.3645301425 1.3962634016 
1.4279966607 1.4597299198 1.491463179 1.5231964381 1.5549296972 1.5866629564 1.6183962155 1.6501294746 1.6818627337 
1.7135959929 1.745329252 1.7770625111 1.8087957702 1.8405290294 1.8722622885 1.9039955476 1.9357288068 1.9674620659 
1.999195325 2.0309285841 2.0626618433 2.0943951024 2.1261283615 2.1578616206 2.1895948798 2.2213281389 2.253061398 
2.2847946572 2.3165279163 2.3482611754 2.3799944345 2.4117276937 2.4434609528 2.4751942119 2.506927471 2.5386607302 
2.5703939893 2.6021272484 2.6338605076 2.6655937667 2.6973270258 2.7290602849 2.7607935441 2.7925268032 2.8242600623 
2.8559933214 2.8877265806 2.9194598397 2.9511930988 2.982926358 3.0146596171 3.0463928762 3.0781261353 3.1098593945 
3.1415926536 
_radius 1 100 double
7.8944976408e-16 0.015643520808 0.031137005581 0.046343278091 0.061160363474 0.075530330292 0.08943892505 0.1029057652 0.11596713782 
0.12865545227 0.14098025679 0.15291502162 0.16439201258 0.17530547509 0.18552181832 0.19489475661 0.20328318782 0.21056962425 
0.21667705054 0.22158217514 0.22532327932 0.22800135603 0.22977398301 0.23084230268 0.23143243348 0.23177345708 0.2320746793 
0.232505048 0.23317736798 0.23413928605 0.23537201886 0.23679665254 0.23828681881 0.23968591156 0.24082688996 0.24155298689 
0.24173785624 0.24130339874 0.24023285245 0.2385765719 0.23644901001 0.23401765315 0.23148705405 0.22908225827 0.22703483353 
0.22557181874 0.22490508341 0.22521771809 0.22664583444 0.22925788682 0.23303745353 0.23787661735 0.24358407157 0.24990651659 
0.25655758204 0.26324763087 0.26970956935 0.27571820527 0.28110252923 0.28575132573 0.28961297409 0.29269041688 0.29503222806 
0.29672064617 0.29785747368 0.29854894967 0.29889102362 0.29895670971 0.29878714922 0.29838751861 0.29772806086 0.29674954278 
0.29537166214 0.29350257256 0.29104782818 0.28791758741 0.28403164877 0.2793225637 0.27373746409 0.26723926811 0.25980765827 
0.25143984511 0.24215083683 0.23197285395 0.22095366653 0.20915389579 0.19664357908 0.18349843248 0.16979622193 0.15561351884 
0.14102297448 0.12609119155 0.11087730702 0.095432440267 0.079800094092 0.064017400171 0.048116875751 0.03212824316 0.016079922911 
3.2190411373e-16 
_area 1 100 double
0 0.00070663910468 0.0027949263898 0.006177301404 0.010729751605 0.016316570786 0.022811308449 0.030106175649 0.038107313219 
0.046719885891 0.055830894801 0.065296602786 0.074937224118 0.084537836806 0.09385355472 0.1026182743 0.11055798597 0.11741028948 
0.12295069301 0.12702358709 0.12957257916 0.13066298947 0.13049000702 0.12936894253 0.12770737806 0.12596012704 0.12456593863 
0.12386888727 0.12405107616 0.12511853 0.12694323974 0.12932141385 0.13201662647 0.13478244582 0.13737279811 0.13955476999 
0.14114138231 0.14205008326 0.14236542751 0.14235974195 0.14234708698 0.1423845815 0.14242067106 0.1425221927 0.1428641078 
0.14366191845 0.14498691432 0.14688170485 0.14949105042 0.15303181728 0.15773135579 0.16375308509 0.17112952528 0.17972856775 
0.18926106636 0.19931868155 0.20942743158 0.21910614366 0.22792091784 0.2355279338 0.24170007641 0.24633694861 0.24946040082 
0.25119788841 0.25175510714 0.25137936277 0.25031692342 0.24877070701 0.2468673996 0.24464286984 0.24204947673 0.23898058793 
0.23530256164 0.23088534222 0.22562542067 0.21945662975 0.21234778657 0.20429183375 0.19529478164 0.18537175314 0.17455285783 
0.16289629635 0.15050247053 0.13752221194 0.12415453784 0.11063342393 0.097207063317 0.084115385204 0.071571722388 0.059752704683 
0.048797137978 0.038810961266 0.029873772715 0.022044169358 0.015364018153 0.0098627184331 0.0055614496856 0.0024763550366 0.00061981357009 
5.5511151231e-17 
