# vtk DataFile Version 5.1
vtk output
ASCII
DATASET POLYDATA
POINTS 100 float
0.152586 -0.0246552 0.632353 0.152546 -0.0244841 0.63236 0.152387 -0.0241156 0.632511 
0.152074 -0.0235543 0.632753 0.151557 -0.0228097 0.633 0.150774 -0.0218966 0.633137 
0.149667 -0.0208351 0.633029 0.148187 -0.0196517 0.632527 0.146306 -0.0183782 0.631478 
0.144021 -0.0170514 0.629734 0.141354 -0.0157115 0.627163 0.138354 -0.0143995 0.623654 
0.135085 -0.0131552 0.619126 0.131622 -0.0120137 0.613534 0.128036 -0.0110026 0.60687 
0.124387 -0.0101395 0.599163 0.120708 -0.00942987 0.590477 0.117002 -0.00886634 0.580903 
0.113239 -0.00842863 0.570554 0.109356 -0.00808508 0.559554 0.105267 -0.0077953 0.54803 
0.100867 -0.00751377 0.536099 0.0960543 -0.00719421 0.523866 0.0907363 -0.00679426 0.511411 
0.0848483 -0.00628 0.498791 0.0783621 -0.0056299 0.486036 0.0712931 -0.00483777 0.47315 
0.0637012 -0.00391437 0.460121 0.0556866 -0.00288755 0.446919 0.0473803 -0.00180082 0.433509 
0.0389303 -0.000710466 0.419856 0.0304855 0.000318483 0.405927 0.0221787 0.0012171 0.3917 
0.0141126 0.00191776 0.377162 0.00634776 0.0023592 0.362306 -0.00110311 0.00249099 0.347132 
-0.00827474 0.002277 0.331641 -0.0152429 0.00169761 0.315825 -0.0221123 0.000750433 0.299668 
-0.0289994 -0.000550355 0.283135 -0.0360143 -0.00217603 0.266176 -0.0432405 -0.00408641 0.248721 
-0.0507184 -0.00623363 0.23069 -0.0584326 -0.00856623 0.211993 -0.0663047 -0.0110332 0.192545 
-0.0741931 -0.0135875 0.172271 -0.0819005 -0.0161888 0.151122 -0.0891868 -0.0188051 0.129077 
-0.0957877 -0.0214133 0.106157 -0.101436 -0.0239991 0.0824251 -0.105883 -0.0265546 0.0579852 
-0.10892 -0.0290768 0.0329785 -0.110395 -0.0315642 0.00757423 -0.110224 -0.034014 -0.0180415 
-0.108396 -0.0364189 -0.0436796 -0.10497 -0.0387643 -0.069161 -0.100069 -0.041027 -0.0943296 
-0.0938634 -0.0431733 -0.119061 -0.086559 -0.0451592 -0.143271 -0.0783736 -0.0469311 -0.166913 
-0.0695211 -0.0484274 -0.189977 -0.0601953 -0.0495812 -0.212487 -0.050558 -0.0503233 -0.234482 
-0.0407312 -0.0505858 -0.256014 -0.0307957 -0.050306 -0.277128 -0.0207937 -0.0494299 -0.297856 
-0.0107361 -0.0479161 -0.318211 -0.000612562 -0.0457378 -0.338175 0.00959649 -0.042886 -0.357707 
0.0199084 -0.0393696 -0.376741 0.0303279 -0.0352166 -0.395197 0.040839 -0.0304727 -0.412986 
0.0514008 -0.0251997 -0.430024 0.0619466 -0.0194728 -0.446242 0.0723864 -0.0133773 -0.46159 
0.0826128 -0.0070046 -0.476045 0.0925082 -0.000447812 -0.489613 0.101955 0.006202 -0.502323 
0.110842 0.0128599 -0.514225 0.119077 0.01945 -0.525381 0.126587 0.0259083 -0.535852 
0.133329 0.0321835 -0.545693 0.139285 0.0382378 -0.554943 0.144466 0.0440455 -0.563619 
0.148909 0.0495922 -0.571715 0.152668 0.0548714 -0.579205 0.155811 0.0598818 -0.586048 
0.158416 0.0646241 -0.592193 0.160562 0.0690981 -0.597594 0.162324 0.0732995 -0.602218 
0.163772 0.0772184 -0.606052 0.164962 0.080838 -0.609112 0.165944 0.0841344 -0.611445 
0.166753 0.0870781 -0.613127 0.167413 0.089635 -0.614257 0.167941 0.0917694 -0.614952 
0.168347 0.093447 -0.61533 0.168635 0.0946374 -0.6155 0.168806 0.0953171 -0.615552 
0.168862 0.0954718 -0.615545 
LINES 2 100
OFFSETS vtktypeint64
0 100 
CONNECTIVITY vtktypeint64
0 1 2 3 4 5 6 7 8 
9 10 11 12 13 14 15 16 17 
18 19 20 21 22 23 24 25 26 
27 28 29 30 31 32 33 34 35 
36 37 38 39 40 41 42 43 44 
45 46 47 48 49 50 51 52 53 
54 55 56 57 58 59 60 61 62 
63 64 65 66 67 68 69 70 71 
72 73 74 75 76 77 78 79 80 
81 82 83 84 85 86 87 88 89 
90 91 92 93 94 95 96 97 98 
99 
POINT_DATA 100
FIELD FieldData 3
_theta 1 100 double
0 0.031733259127 0.063466518254 0.095199777382 0.12693303651 0.15866629564 0.19039955476 0.22213281389 0.25386607302 
0.28559933214 0.31733259127 0.3490658504 0.38079910953 0.41253236865 0.44426562778 0.47599888691 0.50773214603 0.53946540516 
0.57119866429 0.60293192342 0.63466518254 0.66639844167 0.6981317008 0.72986495992 0.76159821905 0.79333147818 0.82506473731 
0.85679799643 0.88853125556 0.92026451469 0.95199777382 0.98373103294 1.0154642921 1.0471975512 1.0789308103 1.1106640695 
1.1423973286 1.1741305877 1.2058638468 1.237597106 1.2693303651 1.3010636242 1.3327968833 1.3645301425 1.3962634016 
1.4279966607 1.4597299198 1.491463179 1.5231964381 1.5549296972 1.5866629564 1.6183962155 1.6501294746 1.6818627337 
1.7135959929 1.745329252 1.7770625111 1.8087957702 1.8405290294 1.8722622885 1.9039955476 1.9357288068 1.9674620659 
1.999195325 2.0309285841 2.0626618433 2.0943951024 2.1261283615 2.1578616206 2.1895948798 2.2213281389 2.253061398 
2.2847946572 2.3165279163 2.3482611754 2.3799944345 2.4117276937 2.4434609528 2.4751942119 2.506927471 2.5386607302 
2.5703939893 2.6021272484 2.6338605076 2.6655937667 2.6973270258 2.7290602849 2.7607935441 2.7925268032 2.8242600623 
2.8559933214 2.8877265806 2.9194598397 2.9511930988 2.982926358 3.0146596171 3.0463928762 3.0781261353 3.1098593945 
3.1415926536 
_radius 1 100 double
8.0110424148e-16 0.01519839144 0.030382432181 0.045537289877 0.060635770745 0.075634598997 0.090473387759 0.10507636721 0.11935645465 
0.13322085835 0.14657718805 0.15933907674 0.17143060918 0.18278929621 0.19336773769 0.2031343075 0.21207313214 0.22018343906 
0.22747821116 0.23398212647 0.2397289787 0.24475903472 0.24911691713 0.25285048433 0.25601082397 0.25865301627 0.26083695315 
0.26262735893 0.26409228099 0.26529964919 0.26631195095 0.26717954266 0.26793352897 0.26857940131 0.26909267072 0.26941754181 
0.26946930436 0.26914065888 0.26831173374 0.26686313441 0.26469098484 0.26172257255 0.25793092827 0.25334651914 0.24806425655 
0.24224422968 0.23610497912 0.2299087706 0.22393932726 0.21847395189 0.21375383551 0.20995797747 0.20718631763 0.20545541363 
0.20470589471 0.20481734333 0.20562537812 0.20693759776 0.20854789902 0.21025055385 0.21185541292 0.21320401855 0.21418446853 
0.21474197787 0.21488287312 0.21467146807 0.21422042087 0.21367533159 0.21319457447 0.21292627737 0.21298528874 0.21343328875 
0.21426490292 0.21540189006 0.21669629313 0.21794208559 0.2188936319 0.2192884386 0.21887128433 0.21741687579 0.21474861512 
0.2107517506 0.20537995444 0.19865509088 0.19066053396 0.18152887104 0.17142523468 0.1605279117 0.1490083202 0.13701287842 
0.12464953811 0.11198153167 0.099029907943 0.085784672242 0.072222198664 0.058324817344 0.044097855646 0.029580210364 0.014846375205 
3.1581574666e-16 
_area 1 100 double
0 0.00062350238499 0.0024918420955 0.0055962426974 0.009914982601 0.01540454869 0.021990966172 0.029564677484 0.037981829275 
0.047072831859 0.056656167459 0.066552842176 0.076596122375 0.086633666286 0.096524335872 0.10613593292 0.1153488931 0.12406582694 
0.13222245058 0.13979439085 0.14679589276 0.15326950106 0.15926992028 0.16484918207 0.17005068463 0.17491423116 0.17948475944 
0.18381068159 0.18793094458 0.1918700541 0.19562329252 0.19916275362 0.20243978062 0.20536025507 0.20777912259 0.20951864458 
0.21038930868 0.21017761737 0.20867684151 0.20581970016 0.2015333354 0.19578397135 0.1891138732 0.18159760287 0.17345772349 
0.1648223512 0.15604856028 0.1475408648 0.13966942417 0.13272430228 0.12688871587 0.12223184382 0.11872136682 0.11624685988 
0.11463731365 0.11366935013 0.11309236124 0.11267529539 0.11223728522 0.11164293096 0.11078163104 0.10957458801 0.10801387731 
0.10618190655 0.10421779002 0.10225661528 0.10040477647 0.098766946205 0.097478488282 0.096711214663 0.096656161891 0.097496046374 
0.099362624798 0.10224756257 0.10590366508 0.10989197677 0.11372057546 0.11691972931 0.11907045231 0.11982826129 0.11894870427 
0.11630899797 0.11191902291 0.10591712053 0.098549723127 0.09013771236 0.081035541186 0.071590831412 0.062111990371 0.052849347035 
0.04399175166 0.035676427934 0.02800662169 0.021070561224 0.014956260357 0.00975857552 0.0055773484585 0.0025084475199 0.00063172468039 
6.2450045135e-17 
