# vtk DataFile Version 5.1
vtk output
ASCII
DATASET POLYDATA
POINTS 100 float
0.104672 0.0730797 -0.685186 0.104479 0.0727963 -0.684747 0.103951 0.0721562 -0.683426 
0.103106 0.0711621 -0.681261 0.101969 0.0698169 -0.678308 0.100577 0.0681226 -0.674638 
0.0989679 0.0660805 -0.670334 0.0971833 0.0636906 -0.665482 0.0952614 0.0609516 -0.660162 
0.0932337 0.0578621 -0.654448 0.0911207 0.0544204 -0.648397 0.0889282 0.0506266 -0.642053 
0.0866439 0.0464834 -0.635441 0.0842354 0.0419976 -0.628568 0.0816501 0.0371816 -0.621429 
0.0788157 0.0320539 -0.614003 0.0756439 0.0266396 -0.606264 0.0720349 0.0209703 -0.598177 
0.0678842 0.0150832 -0.589704 0.0630904 0.00901997 -0.580807 0.0575638 0.00282524 -0.571447 
0.0512344 -0.00345523 -0.561584 0.0440605 -0.00977595 -0.551179 0.0360339 -0.0160928 -0.540194 
0.0271847 -0.0223638 -0.528589 0.017582 -0.0285487 -0.516325 0.00733252 -0.0346087 -0.503362 
-0.00342392 -0.0405046 -0.489667 -0.014522 -0.0461961 -0.475207 -0.0257802 -0.0516392 -0.459959 
-0.0370112 -0.056786 -0.443911 -0.0480335 -0.0615834 -0.427059 -0.0586811 -0.0659736 -0.409416 
-0.0688129 -0.0698958 -0.391005 -0.0783188 -0.0732884 -0.371861 -0.0871233 -0.0760925 -0.352028 
-0.0951853 -0.0782561 -0.331553 -0.102495 -0.0797383 -0.310486 -0.10907 -0.0805136 -0.288871 
-0.114942 -0.0805753 -0.266744 -0.120156 -0.0799375 -0.244132 -0.12475 -0.078636 -0.22105 
-0.128757 -0.0767267 -0.197504 -0.13219 -0.0742832 -0.173492 -0.135042 -0.0713924 -0.149012 
-0.137282 -0.0681482 -0.124063 -0.138856 -0.0646459 -0.0986586 -0.139693 -0.060976 -0.0728261 
-0.139712 -0.0572179 -0.046617 -0.138826 -0.0534365 -0.0201073 -0.136958 -0.049679 0.00660088 
-0.134043 -0.0459744 0.0333817 -0.13004 -0.0423349 0.0600902 -0.124935 -0.0387594 0.0865696 
-0.118747 -0.0352378 0.11266 -0.111527 -0.0317568 0.138208 -0.103354 -0.0283056 0.163075 
-0.094335 -0.0248812 0.187146 -0.0845933 -0.0214928 0.210337 -0.0742638 -0.0181636 0.232595 
-0.0634839 -0.0149322 0.253902 -0.052385 -0.0118509 0.274271 -0.0410867 -0.00898198 0.293743 
-0.029691 -0.00639367 0.312377 -0.0182798 -0.00415379 0.330248 -0.00691355 -0.002324 0.347435 
0.00436707 -0.000954023 0.364018 0.0155384 -7.69071e-05 0.380071 0.0265894 0.000294261 0.39566 
0.037517 0.000167875 0.410837 0.0483205 -0.000426559 0.425648 0.0589975 -0.00144057 0.440128 
0.0695398 -0.00281039 0.454302 0.0799315 -0.00446167 0.468194 0.0901478 -0.00631478 0.481818 
0.100155 -0.00829007 0.495188 0.109914 -0.0103127 0.508308 0.119379 -0.0123166 0.521175 
0.128505 -0.014247 0.533774 0.137251 -0.016062 0.546074 0.145577 -0.017733 0.558025 
0.153455 -0.0192433 0.569559 0.160865 -0.0205868 0.580588 0.167794 -0.0217655 0.591009 
0.174244 -0.0227873 0.600709 0.180221 -0.0236638 0.609571 0.185738 -0.0244083 0.61749 
0.190813 -0.0250344 0.624376 0.195464 -0.0255552 0.630171 0.199707 -0.0259829 0.634853 
0.203557 -0.0263283 0.638445 0.207022 -0.0266017 0.641015 0.210106 -0.0268124 0.642672 
0.212808 -0.0269693 0.643566 0.215122 -0.0270805 0.643869 0.217039 -0.0271536 0.643768 
0.218549 -0.0271949 0.643443 0.219641 -0.0272092 0.64306 0.220306 -0.0271995 0.642745 
0.220541 -0.0271669 0.642582 
LINES 2 100
OFFSETS vtktypeint64
0 100 
CONNECTIVITY vtktypeint64
0 1 2 3 4 5 6 7 8 
9 10 11 12 13 14 15 16 17 
18 19 20 21 22 23 24 25 26 
27 28 29 30 31 32 33 34 35 
36 37 38 39 40 41 42 43 44 
45 46 47 48 49 50 51 52 53 
54 55 56 57 58 59 60 61 62 
63 64 65 66 67 68 69 70 71 
72 73 74 75 76 77 78 79 80 
81 82 83 84 85 86 87 88 89 
90 91 92 93 94 95 96 97 98 
99 
POINT_DATA 100
FIELD FieldData 3
_theta 1 100 double
0 0.031733259127 0.063466518254 0.095199777382 0.12693303651 0.15866629564 0.19039955476 0.22213281389 0.25386607302 
0.28559933214 0.31733259127 0.3490658504 0.38079910953 0.41253236865 0.44426562778 0.47599888691 0.50773214603 0.53946540516 
0.57119866429 0.60293192342 0.63466518254 0.66639844167 0.6981317008 0.72986495992 0.76159821905 0.79333147818 0.82506473731 
0.85679799643 0.88853125556 0.92026451469 0.95199777382 0.98373103294 1.0154642921 1.0471975512 1.0789308103 1.1106640695 
1.1423973286 1.1741305877 1.2058638468 1.237597106 1.2693303651 1.3010636242 1.3327968833 1.3645301425 1.3962634016 
1.4279966607 1.4597299198 1.491463179 1.5231964381 1.5549296972 1.5866629564 1.6183962155 1.6501294746 1.6818627337 
1.7135959929 1.745329252 1.7770625111 1.8087957702 1.8405290294 1.8722622885 1.9039955476 1.9357288068 1.9674620659 
1.999195325 2.0309285841 2.0626618433 2.0943951024 2.1261283615 2.1578616206 2.1895948798 2.2213281389 2.253061398 
2.2847946572 2.3165279163 2.3482611754 2.3799944345 2.4117276937 2.4434609528 2.4751942119 2.506927471 2.5386607302 
2.5703939893 2.6021272484 2.6338605076 2.6655937667 2.6973270258 2.7290602849 2.7607935441 2.7925268032 2.8242600623 
2.8559933214 2.8877265806 2.9194598397 2.9511930988 2.982926358 3.0146596171 3.0463928762 3.0781261353 3.1098593945 
3.1415926536 
_radius 1 100 double
5.6200757191e-16 0.013961833065 0.027827019011 0.04151255347 0.054952462534 0.068101868327 0.080936734509 0.093449193447 0.10563923744 
0.11750435472 0.12902919799 0.14017740181 0.15088717939 0.16107150223 0.17062278297 0.17942128637 0.18734607914 0.19428715943 
0.20015738984 0.20490292586 0.20851096364 0.21101384325 0.2124888577 0.21305354763 0.21285679954 0.21206667553 0.21085649687 
0.20939112344 0.20781540893 0.20624631474 0.20476919073 0.20343762695 0.20227556016 0.20128033886 0.20042614093 0.19966801534 
0.19894730397 0.19819898323 0.19736067422 0.1963821274 0.19523335925 0.19390963698 0.19243227658 0.19084547869 0.18921056124 
0.18759937974 0.18608841845 0.18475441136 0.18367175264 0.18291140034 0.18254041142 0.18262083287 0.18320674311 0.18433897155 
0.18603819286 0.18829809741 0.19108058326 0.19431425487 0.19789643166 0.20169808261 0.20557094106 0.2093562707 0.21289491169 
0.21603812344 0.21865845321 0.22065960749 0.22198422157 0.22261850526 0.22259291947 0.22197828966 0.22087715722 0.21941079327 
0.21770314877 0.21586392917 0.21397359202 0.21207286241 0.21015808888 0.20818194943 0.20605780949 0.20366615541 0.20086258088 
0.19748775093 0.19337984068 0.18838909608 0.18239296463 0.17530942102 0.16710606697 0.15780326582 0.14747068162 0.13621781393 
0.1241802073 0.11150377407 0.098329952097 0.084784142374 0.070969056883 0.05696340207 0.042825020102 0.028596609219 0.014311818457 
1.1945171135e-15 
_area 1 100 double
0 0.00053159070771 0.0021092722936 0.0046836014692 0.0081781768184 0.012498200419 0.017541119296 0.023207159187 0.029406644523 
0.036061222458 0.043097860747 0.050437042992 0.057978681498 0.065590145414 0.073100468418 0.080303531272 0.08697101194 0.092873498057 
0.097806057005 0.10161349516 0.1042107542 0.10559502954 0.10584765085 0.10512511762 0.10363993807 0.10163347372 0.099345128759 
0.096984291396 0.094711888878 0.092636282161 0.090823415327 0.089314424495 0.088139856444 0.087323683127 0.086878479803 0.086794017435 
0.087025973245 0.087495468281 0.088084768099 0.088654254335 0.089091175897 0.089345518407 0.089436958921 0.089442098185 0.089473125489 
0.089651413992 0.090064706292 0.090773945305 0.09179660948 0.093024838351 0.094410971138 0.095941043776 0.097641139336 0.099572333014 
0.10181284513 0.10443422118 0.1074789123 0.1109438321 0.11477147579 0.11884908921 0.12301623637 0.12708020547 0.1308367115 
0.13409151344 0.13667848921 0.13847187297 0.13939327347 0.13941550094 0.13856443286 0.13691858057 0.13460509241 0.13179038036 
0.12866303459 0.12540834823 0.1221801658 0.11908110363 0.11615398924 0.11337506387 0.11065009146 0.10782748485 0.10472416647 
0.10114844942 0.096919937598 0.091894461547 0.085993644203 0.079229501219 0.071713401191 0.063644573111 0.055281229594 0.046903052496 
0.038775429762 0.031123784064 0.024121987903 0.01789387609 0.012523095855 0.0080654879933 0.0045597103533 0.0020341248459 0.00050971583965 
1.2576164435e-16 
