# vtk DataFile Version 5.1
vtk output
ASCII
DATASET POLYDATA
POINTS 100 float
-0.0224034 -0.0390008 0.646131 -0.0220347 -0.0388532 0.646078 -0.0210014 -0.0385737 0.64603 
-0.0193702 -0.0381722 0.645932 -0.017245 -0.0376635 0.645695 -0.0147577 -0.0370665 0.645206 
-0.0120562 -0.036401 0.644334 -0.00929204 -0.0356862 0.642943 -0.00660731 -0.0349381 0.6409 
-0.00412377 -0.0341679 0.63809 -0.00193404 -0.0333814 0.634418 -9.6205e-05 -0.032578 0.629823 
0.0013679 -0.0317524 0.624278 0.00247074 -0.0308949 0.617791 0.00325376 -0.0299936 0.610406 
0.0037796 -0.0290365 0.602197 0.00412264 -0.0280132 0.593259 0.00435902 -0.0269168 0.583702 
0.0045573 -0.0257444 0.57364 0.00477068 -0.024498 0.563181 0.00503145 -0.023184 0.55242 
0.00534831 -0.0218116 0.541429 0.00570642 -0.0203922 0.530252 0.00607016 -0.0189369 0.518909 
0.00638802 -0.0174551 0.507388 0.0065989 -0.015953 0.495655 0.00663891 -0.0144334 0.48366 
0.00644801 -0.0128951 0.47134 0.00597555 -0.0113341 0.458635 0.00518421 -0.00974523 0.445489 
0.00405201 -0.00812461 0.431862 0.00257228 -0.00647207 0.417737 0.000751782 -0.00479395 0.403118 
-0.00139261 -0.00310548 0.388035 -0.00383804 -0.00143244 0.372541 -0.00656011 0.000188008 0.356703 
-0.00953675 0.00170771 0.340602 -0.0127511 0.00306901 0.324317 -0.0161929 0.00420738 0.30792 
-0.0198584 0.00505504 0.291469 -0.0237482 0.00554516 0.274996 -0.0278637 0.00561643 0.258507 
-0.0322029 0.00521752 0.241977 -0.0367551 0.00431114 0.225351 -0.0414956 0.00287719 0.208548 
-0.0463819 0.000915056 0.191467 -0.0513501 -0.00155552 0.173994 -0.0563137 -0.00449466 0.156012 
-0.0611642 -0.00784391 0.137409 -0.0657736 -0.0115288 0.11809 -0.0699989 -0.0154624 0.0979794 
-0.0736886 -0.0195491 0.0770331 -0.07669 -0.0236894 0.0552374 -0.0788573 -0.0277838 0.0326127 
-0.0800599 -0.0317374 0.00921208 -0.0801899 -0.0354633 -0.0148814 -0.0791688 -0.0388853 -0.039559 
-0.0769518 -0.0419409 -0.0646918 -0.0735311 -0.0445817 -0.0901368 -0.0689362 -0.0467742 -0.115743 
-0.0632319 -0.0484993 -0.141356 -0.0565146 -0.0497509 -0.166825 -0.048906 -0.0505335 -0.192008 
-0.0405461 -0.0508598 -0.216773 -0.0315844 -0.0507475 -0.241001 -0.0221714 -0.050216 -0.264592 
-0.0124499 -0.0492832 -0.287464 -0.0025476 -0.0479628 -0.309554 0.00742911 -0.0462618 -0.33082 
0.0173991 -0.0441798 -0.351241 0.0273081 -0.0417084 -0.370815 0.0371285 -0.0388325 -0.389558 
0.0468557 -0.0355325 -0.4075 0.0565031 -0.031788 -0.424683 0.066095 -0.0275823 -0.441154 
0.0756588 -0.0229071 -0.456962 0.0852163 -0.0177679 -0.472149 0.0947759 -0.0121885 -0.486746 
0.104326 -0.00621487 -0.500767 0.113831 8.28793e-05 -0.514205 0.123227 0.00661018 -0.527029 
0.132426 0.0132501 -0.539188 0.141317 0.0198676 -0.550608 0.149774 0.026316 -0.561201 
0.157665 0.0324454 -0.570873 0.164859 0.0381118 -0.579533 0.171242 0.0431872 -0.5871 
0.176726 0.0475686 -0.593517 0.181254 0.0511862 -0.598759 0.184812 0.0540088 -0.602841 
0.187429 0.0560471 -0.605817 0.189176 0.0573527 -0.607785 0.190167 0.0580147 -0.608884 
0.190542 0.0581525 -0.609281 0.190467 0.0579056 -0.609163 0.190112 0.0574224 -0.608726 
0.189643 0.0568474 -0.608156 0.189204 0.0563085 -0.607617 0.188908 0.0559062 -0.607238 
0.188827 0.0557047 -0.607101 
LINES 2 100
OFFSETS vtktypeint64
0 100 
CONNECTIVITY vtktypeint64
0 1 2 3 4 5 6 7 8 
9 10 11 12 13 14 15 16 17 
18 19 20 21 22 23 24 25 26 
27 28 29 30 31 32 33 34 35 
36 37 38 39 40 41 42 43 44 
45 46 47 48 49 50 51 52 53 
54 55 56 57 58 59 60 61 62 
63 64 65 66 67 68 69 70 71 
72 73 74 75 76 77 78 79 80 
81 82 83 84 85 86 87 88 89 
90 91 92 93 94 95 96 97 98 
99 
POINT_DATA 100
FIELD FieldData 3
_theta 1 100 double
0 0.031733259127 0.063466518254 0.095199777382 0.12693303651 0.15866629564 0.19039955476 0.22213281389 0.25386607302 
0.28559933214 0.31733259127 0.3490658504 0.38079910953 0.41253236865 0.44426562778 0.47599888691 0.50773214603 0.53946540516 
0.57119866429 0.60293192342 0.63466518254 0.66639844167 0.6981317008 0.72986495992 0.76159821905 0.79333147818 0.82506473731 
0.85679799643 0.88853125556 0.92026451469 0.95199777382 0.98373103294 1.0154642921 1.0471975512 1.0789308103 1.1106640695 
1.1423973286 1.1741305877 1.2058638468 1.237597106 1.2693303651 1.3010636242 1.3327968833 1.3645301425 1.3962634016 
1.4279966607 1.4597299198 1.491463179 1.5231964381 1.5549296972 1.5866629564 1.6183962155 1.6501294746 1.6818627337 
1.7135959929 1.745329252 1.7770625111 1.8087957702 1.8405290294 1.8722622885 1.9039955476 1.9357288068 1.9674620659 
1.999195325 2.0309285841 2.0626618433 2.0943951024 2.1261283615 2.1578616206 2.1895948798 2.2213281389 2.253061398 
2.2847946572 2.3165279163 2.3482611754 2.3799944345 2.4117276937 2.4434609528 2.4751942119 2.506927471 2.5386607302 
2.5703939893 2.6021272484 2.6338605076 2.6655937667 2.6973270258 2.7290602849 2.7607935441 2.7925268032 2.8242600623 
2.8559933214 2.8877265806 2.9194598397 2.9511930988 2.982926358 3.0146596171 3.0463928762 3.0781261353 3.1098593945 
3.1415926536 
_radius 1 100 double
1.2223881329e-15 0.013963880384 0.027894437145 0.041759862068 0.055522851986 0.069138685415 0.082554561477 0.095710627354 0.10854289508 
0.1209878676 0.13298824887 0.1444987362 0.15549070778 0.1659546988 0.17589991124 0.18535056877 0.1943395941 0.20290069459 
0.21106032266 0.21883100507 0.22620719732 0.23316424645 0.23966045161 0.24564178006 0.25104858434 0.25582360203 0.25992047419 
0.26331190689 0.26599643707 0.26800265525 0.26938981972 0.27024415646 0.27067076879 0.2707818677 0.27068279339 0.27045782758 
0.27015794448 0.26979237776 0.26932528538 0.26867805349 0.26773707094 0.26636622447 0.26442291773 0.26177606827 0.25832426033 
0.2540120481 0.24884237073 0.24288322202 0.2362671564 0.2291829159 0.22185942525 0.21454362663 0.20747507797 0.20086166164 
0.19486144761 0.18957477083 0.18504755972 0.18128298217 0.17825569556 0.17592297003 0.17422955623 0.17310690574 0.17247045898 
0.17221979441 0.1722448286 0.1724376705 0.17270631985 0.17298529718 0.17323983247 0.17346301832 0.17366773053 0.17387627557 
0.17411052664 0.17438414883 0.17469711673 0.17503183748 0.17535015058 0.17559106752 0.17566980226 0.17547895555 0.17489248907 
0.17377251105 0.17197817925 0.1693754856 0.16584648873 0.16129675014 0.15566021843 0.14890141129 0.14101526158 0.13202527255 
0.12198063405 0.11095276315 0.099031485587 0.086320894716 0.072934890064 0.058992525842 0.044613551132 0.029914780891 0.015008018476 
6.782190376e-16 
_area 1 100 double
0 0.00053281789318 0.0021322857438 0.004799387139 0.0085292185329 0.013302373526 0.019075408162 0.025772838565 0.033283193589 
0.041461040094 0.050135743914 0.0591262687 0.068259807898 0.077390779181 0.086416007611 0.095282092817 0.1039822348 0.11254225009 
0.12099875588 0.12937534276 0.13766333679 0.14581173427 0.15372732375 0.16128312294 0.16833226579 0.17472492452 0.18032659134 
0.18503625499 0.18880250585 0.19163470429 0.19360568635 0.19484300583 0.19550857197 0.19577178553 0.19578544926 0.19567176814 
0.19551860542 0.19538001747 0.19526931141 0.19512332222 0.19475024951 0.1938547717 0.19212980729 0.18931485559 0.18522556682 
0.1797792273 0.17301597626 0.16510839544 0.15635394377 0.14714828947 0.13794004955 0.12916896737 0.12119341538 0.11422339351 
0.10828902638 0.10326975197 0.098970941129 0.095202386678 0.091823980614 0.088753887611 0.085953400031 0.08340633918 0.081105767948 
0.079052043001 0.077257966203 0.07575282967 0.074578403258 0.073772996768 0.073342720805 0.073235719924 0.073362291492 0.073649392917 
0.074065133501 0.074610349167 0.075300491379 0.076146240824 0.077134577384 0.07821280327 0.079279945541 0.080189513644 0.080763140485 
0.080810067348 0.080147047958 0.078615823537 0.076097724166 0.072525998761 0.067896291564 0.062274658275 0.055801274298 0.04868733818 
0.041203198002 0.033657420186 0.026368803332 0.019635436604 0.013706231123 0.0087606595498 0.0049016108974 0.0021640481016 0.00053814505076 
4.3581641118e-17 
