# vtk DataFile Version 5.1
vtk output
ASCII
DATASET POLYDATA
POINTS 100 float
0.113477 0.0354409 -0.607385 0.113688 0.0352894 -0.607837 0.114312 0.0346945 -0.609102 
0.115283 0.0336858 -0.611003 0.116503 0.0323094 -0.613267 0.117844 0.0306245 -0.615556 
0.119165 0.0286988 -0.617495 0.120321 0.0266028 -0.618715 0.121174 0.0244041 -0.618887 
0.121602 0.0221619 -0.61775 0.121504 0.0199207 -0.615137 0.120802 0.0177068 -0.610982 
0.119437 0.0155245 -0.605315 0.117369 0.0133552 -0.598258 0.114567 0.0111585 -0.589996 
0.111008 0.00887508 -0.580753 0.106665 0.00643235 -0.570762 0.101513 0.00375192 -0.560237 
0.0955219 0.000758188 -0.549346 0.0886649 -0.00261228 -0.538202 0.0809222 -0.00640167 -0.526848 
0.0722893 -0.0106231 -0.515262 0.0627845 -0.0152547 -0.503367 0.0524559 -0.0202372 -0.491046 
0.0413855 -0.0254739 -0.478162 0.0296895 -0.0308349 -0.464579 0.0175147 -0.036165 -0.450178 
0.00503082 -0.0412931 -0.434875 -0.00758091 -0.0460452 -0.418624 -0.020141 -0.0502572 -0.401422 
-0.0324853 -0.0537873 -0.3833 -0.044477 -0.0565271 -0.364317 -0.0560155 -0.0584099 -0.344546 
-0.0670402 -0.0594152 -0.324058 -0.0775285 -0.0595688 -0.302912 -0.0874893 -0.0589397 -0.28115 
-0.0969498 -0.0576324 -0.258789 -0.105941 -0.0557768 -0.235826 -0.114481 -0.0535163 -0.212246 
-0.12256 -0.0509951 -0.188033 -0.130126 -0.0483464 -0.163182 -0.137082 -0.045683 -0.137716 
-0.143286 -0.0430897 -0.111693 -0.148558 -0.0406206 -0.0852125 -0.152694 -0.0382987 -0.0584203 
-0.155487 -0.0361193 -0.0314993 -0.156753 -0.0340562 -0.00466014 -0.156347 -0.0320694 0.0218744 
-0.154192 -0.0301132 0.0478874 -0.150286 -0.0281445 0.0731864 -0.144714 -0.0261291 0.0976197 
-0.137644 -0.0240463 0.121088 -0.12932 -0.0218907 0.143554 -0.120035 -0.0196721 0.165036 
-0.110117 -0.0174128 0.18561 -0.0998931 -0.0151434 0.205391 -0.089664 -0.0128986 0.224519 
-0.0796802 -0.010712 0.243141 -0.0701227 -0.0086128 0.261396 -0.0610924 -0.00662303 0.279395 
-0.052609 -0.00475731 0.297214 -0.0446193 -0.00302383 0.314887 -0.0370127 -0.00142678 0.332408 
-0.0296429 3.0204e-05 0.349736 -0.0223524 0.00134061 0.366806 -0.0149964 0.00249218 0.383541 
-0.00746375 0.00346526 0.399868 0.000308452 0.00423287 0.415728 0.00832734 0.0047627 0.431085 
0.0165451 0.00502079 0.445934 0.0248675 0.00497658 0.460295 0.0331683 0.00460846 0.474215 
0.0413074 0.00390918 0.487757 0.0491506 0.00289011 0.500986 0.0565868 0.00158358 0.513962 
0.0635419 4.27582e-05 0.526727 0.0699858 -0.00166103 0.539295 0.0759329 -0.00344369 0.551653 
0.0814361 -0.0052156 0.563754 0.0865749 -0.00689023 0.575527 0.0914397 -0.00839279 0.58688 
0.0961149 -0.00966807 0.597716 0.100664 -0.0106862 0.607936 0.105116 -0.0114456 0.617459 
0.109461 -0.0119728 0.626222 0.113652 -0.0123187 0.634193 0.117606 -0.0125521 0.641367 
0.121222 -0.0127504 0.647766 0.124392 -0.0129899 0.653436 0.127024 -0.013336 0.658437 
0.129051 -0.0138339 0.662834 0.130451 -0.0145031 0.666692 0.131246 -0.0153344 0.670063 
0.131511 -0.0162904 0.672987 0.131357 -0.0173103 0.675485 0.13093 -0.018317 0.677564 
0.130382 -0.019227 0.679219 0.129862 -0.0199607 0.680435 0.12949 -0.0204526 0.681196 
0.129345 -0.0206595 0.68149 
LINES 2 100
OFFSETS vtktypeint64
0 100 
CONNECTIVITY vtktypeint64
0 1 2 3 4 5 6 7 8 
9 10 11 12 13 14 15 16 17 
18 19 20 21 22 23 24 25 26 
27 28 29 30 31 32 33 34 35 
36 37 38 39 40 41 42 43 44 
45 46 47 48 49 50 51 52 53 
54 55 56 57 58 59 60 61 62 
63 64 65 66 67 68 69 70 71 
72 73 74 75 76 77 78 79 80 
81 82 83 84 85 86 87 88 89 
90 91 92 93 94 95 96 97 98 
99 
POINT_DATA 100
FIELD FieldData 3
_theta 1 100 double
0 0.031733259127 0.063466518254 0.095199777382 0.12693303651 0.15866629564 0.19039955476 0.22213281389 0.25386607302 
0.28559933214 0.31733259127 0.3490658504 0.38079910953 0.41253236865 0.44426562778 0.47599888691 0.50773214603 0.53946540516 
0.57119866429 0.60293192342 0.63466518254 0.66639844167 0.6981317008 0.72986495992 0.76159821905 0.79333147818 0.82506473731 
0.85679799643 0.88853125556 0.92026451469 0.95199777382 0.98373103294 1.0154642921 1.0471975512 1.0789308103 1.1106640695 
1.1423973286 1.1741305877 1.2058638468 1.237597106 1.2693303651 1.3010636242 1.3327968833 1.3645301425 1.3962634016 
1.4279966607 1.4597299198 1.491463179 1.5231964381 1.5549296972 1.5866629564 1.6183962155 1.6501294746 1.6818627337 
1.7135959929 1.745329252 1.7770625111 1.8087957702 1.8405290294 1.8722622885 1.9039955476 1.9357288068 1.9674620659 
1.999195325 2.0309285841 2.0626618433 2.0943951024 2.1261283615 2.1578616206 2.1895948798 2.2213281389 2.253061398 
2.2847946572 2.3165279163 2.3482611754 2.3799944345 2.4117276937 2.4434609528 2.4751942119 2.506927471 2.5386607302 
2.5703939893 2.6021272484 2.6338605076 2.6655937667 2.6973270258 2.7290602849 2.7607935441 2.7925268032 2.8242600623 
2.8559933214 2.8877265806 2.9194598397 2.9511930988 2.982926358 3.0146596171 3.0463928762 3.0781261353 3.1098593945 
3.1415926536 
_radius 1 100 double
1.2349866684e-15 0.017404158714 0.03459582074 0.051370241329 0.067545014463 0.082972197896 0.097549096529 0.11122518634 0.1240028975 
0.13593087422 0.14708961562 0.1575709547 0.16745450836 0.17678562054 0.18555974839 0.1937171833 0.20114961938 0.20771726645 
0.21327297514 0.21768875256 0.22088008549 0.22282432886 0.22357068182 0.22324064161 0.22201907732 0.22013709859 0.21784873581 
0.21540420552 0.21302325819 0.21087261507 0.2090513635 0.20758699298 0.20644259646 0.20553334099 0.20474856496 0.20397531342 
0.20311966084 0.20212329215 0.20097401743 0.19970985786 0.19841695034 0.19722188457 0.19627941361 0.19575682813 0.19581652362 
0.19659831639 0.1982030249 0.20067898443 0.2040134687 0.2081309284 0.21289897128 0.21814126672 0.22365498024 0.22922975574 
0.23466569952 0.23978868971 0.24446202426 0.24859369732 0.25213866574 0.25509572982 0.25749931421 0.25940734258 0.26088718692 
0.26200203325 0.26279983836 0.26330643897 0.26352349967 0.26343105887 0.26299364729 0.26216846981 0.26091403305 0.25919780806 
0.25700185265 0.2543256066 0.2511853146 0.24760988851 0.24363359903 0.23928668118 0.23458551658 0.22952433649 0.22407029121 
0.21816324543 0.21172083597 0.20464829376 0.19685149386 0.18825090317 0.17879376188 0.16846208496 0.15727490968 0.14528454231 
0.13256812823 0.11921717446 0.10532794848 0.090994600704 0.076305149397 0.061339433224 0.04616821801 0.030853198571 0.015447968949 
1.2326874406e-15 
_area 1 100 double
0 0.0006059742768 0.0024381208018 0.0055214447833 0.0098504349358 0.015349881859 0.021859176451 0.029146460331 0.036945571095 
0.045001881923 0.053111824264 0.061142799505 0.069025015115 0.076716878025 0.084159701101 0.091244087201 0.097801443167 0.10362015198 
0.10847882435 0.11218763932 0.11462846765 0.11578440452 0.11575121428 0.11472789423 0.11298897902 0.11084425093 0.10859193269 
0.10647259187 0.10463575216 0.10313371065 0.10194533958 0.10101308237 0.10027369267 0.09967797698 0.099202681061 0.098854185802 
0.098664468639 0.09868321121 0.098960803241 0.099516411775 0.10031710812 0.10129559809 0.10238823704 0.10356552821 0.10484862748 
0.10631630468 0.10810606828 0.11040543452 0.11341643638 0.11728273441 0.12202362737 0.12753378171 0.13362620722 0.14007124352 
0.1466219239 0.15303166727 0.1590686568 0.16452947021 0.16925306225 0.17313360454 0.1761286631 0.17826071226 0.17961652378 
0.18034093916 0.18062818021 0.18052677986 0.17990617541 0.17879044558 0.17717994453 0.17497826663 0.17215890158 0.16872460073 
0.1646907157 0.16008943985 0.15497529276 0.14942242739 0.1435121263 0.13732012525 0.13090833127 0.1243151041 0.11754446908 
0.11056276975 0.10330939301 0.095720992623 0.087762162555 0.07945234863 0.070879716011 0.062196897622 0.053598971356 0.045289252371 
0.037443409357 0.030185775825 0.023588809344 0.017694104754 0.01253965654 0.0081771328921 0.0046737080897 0.0021026741536 0.00052969313749 
3.6650744692e-17 
