# vtk DataFile Version 5.1
vtk output
ASCII
DATASET POLYDATA
POINTS 100 float
0.0571811 0.108262 -0.840838 0.057335 0.108056 -0.840776 0.0578175 0.107596 -0.840497 
0.0585652 0.106861 -0.83994 0.0594805 0.10582 -0.839013 0.060441 0.104437 -0.837602 
0.0613127 0.102676 -0.835578 0.0619619 0.100508 -0.832815 0.0622673 0.097915 -0.829202 
0.0621283 0.0948929 -0.824649 0.0614705 0.0914536 -0.819102 0.0602469 0.0876234 -0.812545 
0.0584347 0.0834395 -0.804999 0.0560294 0.0789454 -0.796521 0.0530369 0.0741852 -0.787195 
0.0494653 0.069198 -0.777123 0.0453173 0.0640132 -0.76641 0.0405856 0.0586475 -0.755153 
0.0352517 0.0531043 -0.743425 0.0292881 0.0473759 -0.731269 0.0226645 0.0414475 -0.718687 
0.0153567 0.0353036 -0.705639 0.00735645 0.0289355 -0.692046 -0.00131856 0.0223482 -0.677794 
-0.0106168 0.0155673 -0.662747 -0.0204486 0.00864326 -0.64676 -0.0306863 0.00165269 -0.629694 
-0.0411691 -0.00530292 -0.611434 -0.0517132 -0.0121022 -0.591898 -0.0621252 -0.0186116 -0.571055 
-0.0722179 -0.0246952 -0.548926 -0.0818262 -0.0302257 -0.525587 -0.0908214 -0.0350947 -0.501164 
-0.0991216 -0.0392222 -0.475827 -0.106696 -0.042563 -0.449773 -0.113567 -0.0451098 -0.423213 
-0.119796 -0.0468931 -0.396353 -0.12548 -0.0479769 -0.369376 -0.130727 -0.0484511 -0.342433 
-0.135642 -0.0484218 -0.31563 -0.140304 -0.0480006 -0.289021 -0.144758 -0.0472939 -0.262613 
-0.148995 -0.0463932 -0.23637 -0.152953 -0.0453685 -0.210223 -0.156519 -0.0442641 -0.184087 
-0.159537 -0.0430992 -0.157875 -0.161822 -0.0418704 -0.131514 -0.16318 -0.0405583 -0.104959 
-0.16343 -0.0391359 -0.0782069 -0.162419 -0.0375771 -0.0512973 -0.160046 -0.0358663 -0.0243169 
-0.156266 -0.0340056 0.00260634 -0.1511 -0.0320194 0.0293131 -0.144632 -0.029957 0.0556256 
-0.137 -0.0278911 0.0813629 -0.128383 -0.025913 0.106357 -0.118982 -0.0241265 0.130465 
-0.109006 -0.0226384 0.153586 -0.0986449 -0.0215497 0.175662 -0.0880645 -0.0209462 0.196685 
-0.0773897 -0.0208911 0.216691 -0.0667019 -0.02142 0.235759 -0.0560404 -0.0225376 0.253995 
-0.0454083 -0.0242183 0.271524 -0.0347839 -0.0264095 0.288478 -0.0241332 -0.0290365 0.30498 
-0.0134237 -0.0320096 0.321138 -0.00263698 -0.0352318 0.337038 0.00822233 -0.0386064 0.35274 
0.0191215 -0.0420438 0.368276 0.0299993 -0.0454667 0.383659 0.0407698 -0.0488135 0.398879 
0.0513309 -0.05204 0.413917 0.0615738 -0.0551188 0.428744 0.0713949 -0.0580375 0.443331 
0.080706 -0.0607957 0.457646 0.0894429 -0.0634013 0.471655 0.0975706 -0.0658676 0.485323 
0.105084 -0.0682091 0.498608 0.112008 -0.0704403 0.511455 0.118388 -0.0725731 0.523795 
0.124284 -0.0746166 0.535542 0.129763 -0.076577 0.546591 0.134885 -0.078458 0.556824 
0.139702 -0.0802617 0.566114 0.144249 -0.0819888 0.574338 0.148541 -0.0836398 0.581384 
0.152576 -0.0852142 0.587169 0.156339 -0.0867112 0.591649 0.159803 -0.0881282 0.594827 
0.162942 -0.0894608 0.596765 0.165731 -0.0907023 0.597581 0.168153 -0.0918427 0.597448 
0.170202 -0.0928693 0.596582 0.171886 -0.0937673 0.595231 0.173219 -0.0945203 0.593655 
0.174226 -0.095112 0.592104 0.174931 -0.0955274 0.590801 0.175358 -0.0957547 0.58992 
0.175521 -0.0957862 0.58957 
LINES 2 100
OFFSETS vtktypeint64
0 100 
CONNECTIVITY vtktypeint64
0 1 2 3 4 5 6 7 8 
9 10 11 12 13 14 15 16 17 
18 19 20 21 22 23 24 25 26 
27 28 29 30 31 32 33 34 35 
36 37 38 39 40 41 42 43 44 
45 46 47 48 49 50 51 52 53 
54 55 56 57 58 59 60 61 62 
63 64 65 66 67 68 69 70 71 
72 73 74 75 76 77 78 79 80 
81 82 83 84 85 86 87 88 89 
90 91 92 93 94 95 96 97 98 
99 
POINT_DATA 100
FIELD FieldData 3
_theta 1 100 double
0 0.031733259127 0.063466518254 0.095199777382 0.12693303651 0.15866629564 0.19039955476 0.22213281389 0.25386607302 
0.28559933214 0.31733259127 0.3490658504 0.38079910953 0.41253236865 0.44426562778 0.47599888691 0.50773214603 0.53946540516 
0.57119866429 0.60293192342 0.63466518254 0.66639844167 0.6981317008 0.72986495992 0.76159821905 0.79333147818 0.82506473731 
0.85679799643 0.88853125556 0.92026451469 0.95199777382 0.98373103294 1.0154642921 1.0471975512 1.0789308103 1.1106640695 
1.1423973286 1.1741305877 1.2058638468 1.237597106 1.2693303651 1.3010636242 1.3327968833 1.3645301425 1.3962634016 
1.4279966607 1.4597299198 1.491463179 1.5231964381 1.5549296972 1.5866629564 1.6183962155 1.6501294746 1.6818627337 
1.7135959929 1.745329252 1.7770625111 1.8087957702 1.8405290294 1.8722622885 1.9039955476 1.9357288068 1.9674620659 
1.999195325 2.0309285841 2.0626618433 2.0943951024 2.1261283615 2.1578616206 2.1895948798 2.2213281389 2.253061398 
2.2847946572 2.3165279163 2.3482611754 2.3799944345 2.4117276937 2.4434609528 2.4751942119 2.506927471 2.5386607302 
2.5703939893 2.6021272484 2.6338605076 2.6655937667 2.6973270258 2.7290602849 2.7607935441 2.7925268032 2.8242600623 
2.8559933214 2.8877265806 2.9194598397 2.9511930988 2.982926358 3.0146596171 3.0463928762 3.0781261353 3.1098593945 
3.1415926536 
_radius 1 100 double
2.0026013261e-15 0.014755444632 0.029387518693 0.043785254963 0.057857229632 0.071535873786 0.084776614821 0.097552110775 0.10984302566 
0.12162763212 0.13287273098 0.14352786428 0.15352378444 0.16277504837 0.17118583526 0.17865781743 0.18509904736 0.19043310508 
0.19460794279 0.19760386845 0.19943997257 0.20017814848 0.19992382152 0.19882268292 0.19705315603 0.19481497518 0.19231503339 
0.18975237493 0.187304619 0.18511793769 0.18330184222 0.18192862326 0.18103588615 0.18062996244 0.18068855589 0.181162581 
0.18197880443 0.18304540328 0.18426126459 0.18552718096 0.18675488457 0.18787121374 0.18881993038 0.1895658269 0.19010075633 
0.19044726198 0.19065768125 0.19081013101 0.19100368375 0.19135352707 0.19198469578 0.19302198656 0.19457493645 0.19671959675 
0.19948147707 0.20282491063 0.20665267883 0.21081663027 0.21513662359 0.21942291414 0.22349689438 0.22720662036 0.23043581456 
0.23310697154 0.23518021562 0.23664968966 0.2375388637 0.23789558714 0.23778711508 0.23729477772 0.23650756236 0.23551385267 
0.23439108589 0.23319408775 0.23194396086 0.23062005236 0.22915725163 0.22744965712 0.22536000488 0.22273288278 0.21940918888 
0.21523960984 0.21009576951 0.20387863986 0.19652443396 0.18800837457 0.17834653977 0.16759564274 0.15585034147 0.14323766526 
0.12990844678 0.11602618876 0.10175440533 0.087243952803 0.072622035187 0.057984366089 0.043391448729 0.028869259715 0.014413984745 
7.9495625771e-16 
_area 1 100 double
0 0.00052640555767 0.0020986484042 0.0046968593827 0.0082905003007 0.012839558776 0.018292859214 0.024583580119 0.031623742093 
0.039299121436 0.047464639594 0.055939922469 0.064505967384 0.072905591715 0.080851289361 0.088043377518 0.094198432888 0.099083638976 
0.10254879926 0.10454675816 0.10513587264 0.10446390705 0.10273856714 0.10019311725 0.09705521238 0.093524808628 0.089765361173 
0.085911357751 0.082090622357 0.078452224268 0.075186740446 0.072525428707 0.070708964906 0.069928999575 0.07026579451 0.071657245798 
0.073912777306 0.07675708958 0.079890524739 0.083053748895 0.086069543978 0.088843037785 0.091357649207 0.093663883875 0.095771138912 
0.09759458017 0.099050126372 0.10012278749 0.1009082269 0.10165721239 0.1027452432 0.1044675619 0.10698465652 0.11042848798 
0.11493962657 0.12044170424 0.1264971145 0.13261698069 0.13839789581 0.14353364301 0.1478329962 0.15124705891 0.15389212054 
0.15603348113 0.15794369538 0.15965791115 0.16097047597 0.16165221063 0.16156395782 0.16067541976 0.15906431782 0.15690608553 
0.1544449651 0.15194041706 0.14959444814 0.14748333452 0.14552679236 0.14350940504 0.14113791006 0.13810697935 0.1341550886 
0.12910246465 0.1228689539 0.11547353933 0.10702060286 0.097680029954 0.087667784461 0.077230719031 0.066635514202 0.056158751391 
0.046074693171 0.036639419891 0.028073168158 0.020545098961 0.014164986609 0.0089844726363 0.0050076602362 0.0022082705584 0.00054917822194 
1.0368796519e-16 
