# vtk DataFile Version 5.1
vtk output
ASCII
DATASET POLYDATA
POINTS 100 float
0.104666 -0.01404 0.685599 0.104796 -0.013982 0.685342 0.105123 -0.0139592 0.684674 
0.105595 -0.0139683 0.68362 0.106133 -0.0140042 0.682214 0.106643 -0.0140604 0.680497 
0.107027 -0.0141295 0.678501 0.107195 -0.0142034 0.676251 0.10708 -0.0142744 0.673747 
0.106645 -0.0143342 0.67097 0.105883 -0.0143742 0.667872 0.104822 -0.0143853 0.664383 
0.103513 -0.0143568 0.660416 0.102023 -0.0142768 0.655872 0.100422 -0.0141318 0.650651 
0.0987698 -0.0139074 0.644663 0.0971017 -0.0135896 0.637838 0.0954222 -0.013166 0.630131 
0.0936987 -0.0126284 0.62153 0.0918624 -0.0119744 0.612053 0.0898143 -0.0112102 0.601748 
0.0874352 -0.0103515 0.590688 0.0846001 -0.00942446 0.578961 0.0811931 -0.00846492 0.566662 
0.0771222 -0.00751679 0.553882 0.0723317 -0.00662872 0.540701 0.0668103 -0.00584979 0.52718 
0.0605937 -0.00522465 0.513357 0.0537621 -0.00478835 0.499248 0.0464316 -0.00456181 0.484849 
0.0387418 -0.00454835 0.470137 0.0308409 -0.00473207 0.455081 0.0228692 -0.00507828 0.439644 
0.0149454 -0.00553629 0.42379 0.00715567 -0.00604443 0.407489 -0.000453245 -0.00653677 0.390721 
-0.0078739 -0.00695109 0.373471 -0.0151333 -0.00723704 0.35573 -0.022283 -0.00736363 0.337492 
-0.0293852 -0.00732509 0.318746 -0.0364973 -0.00714431 0.299476 -0.0436573 -0.00687324 0.279654 
-0.0508705 -0.00659011 0.259239 -0.0581013 -0.00639356 0.238181 -0.0652694 -0.00639414 0.216422 
-0.0722528 -0.00670416 0.193903 -0.0788946 -0.00742676 0.170573 -0.0850164 -0.00864556 0.146398 
-0.0904329 -0.0104158 0.121368 -0.0949683 -0.0127583 0.0955035 -0.0984723 -0.0156561 0.0688623 
-0.100832 -0.0190553 0.0415387 -0.101981 -0.0228692 0.0136614 -0.101903 -0.0269845 -0.0146129 
-0.100629 -0.0312708 -0.043108 -0.0982296 -0.0355901 -0.0716392 -0.0948074 -0.0398065 -0.100025 
-0.0904813 -0.0437947 -0.128099 -0.0853738 -0.0474466 -0.155716 -0.0795991 -0.0506742 -0.182763 
-0.0732526 -0.0534108 -0.209156 -0.0664055 -0.055609 -0.234845 -0.0591031 -0.0572365 -0.259807 
-0.0513668 -0.0582709 -0.284039 -0.0432007 -0.0586942 -0.30755 -0.0346001 -0.0584878 -0.330355 
-0.0255607 -0.05763 -0.352463 -0.016089 -0.0560943 -0.373876 -0.00620946 -0.0538518 -0.394582 
0.00402994 -0.0508746 -0.414557 0.0145557 -0.0471417 -0.433768 0.0252702 -0.042646 -0.452177 
0.0360561 -0.0374004 -0.469748 0.0467832 -0.0314439 -0.486452 0.0573163 -0.024845 -0.502274 
0.0675241 -0.017702 -0.517219 0.0772861 -0.0101408 -0.53131 0.0864991 -0.00230931 -0.544585 
0.0950803 0.00563134 -0.557101 0.102969 0.0135165 -0.568918 0.110126 0.0211894 -0.580099 
0.116531 0.0285112 -0.590696 0.122176 0.03537 -0.600751 0.127068 0.0416873 -0.610283 
0.13122 0.04742 -0.619293 0.134652 0.0525603 -0.627759 0.137387 0.0571312 -0.635644 
0.139458 0.0611788 -0.642901 0.140903 0.0647643 -0.649482 0.141772 0.0679529 -0.655345 
0.142124 0.0708056 -0.660461 0.142037 0.0733706 -0.664824 0.141597 0.0756787 -0.668449 
0.140906 0.0777406 -0.671376 0.14007 0.0795482 -0.673663 0.139199 0.0810778 -0.675384 
0.138395 0.0822967 -0.676615 0.137749 0.0831694 -0.677431 0.137333 0.0836649 -0.677892 
0.137191 0.0837624 -0.678037 
LINES 2 100
OFFSETS vtktypeint64
0 100 
CONNECTIVITY vtktypeint64
0 1 2 3 4 5 6 7 8 
9 10 11 12 13 14 15 16 17 
18 19 20 21 22 23 24 25 26 
27 28 29 30 31 32 33 34 35 
36 37 38 39 40 41 42 43 44 
45 46 47 48 49 50 51 52 53 
54 55 56 57 58 59 60 61 62 
63 64 65 66 67 68 69 70 71 
72 73 74 75 76 77 78 79 80 
81 82 83 84 85 86 87 88 89 
90 91 92 93 94 95 96 97 98 
99 
POINT_DATA 100
FIELD FieldData 3
_theta 1 100 double
0 0.031733259127 0.063466518254 0.095199777382 0.12693303651 0.15866629564 0.19039955476 0.22213281389 0.25386607302 
0.28559933214 0.31733259127 0.3490658504 0.38079910953 0.41253236865 0.44426562778 0.47599888691 0.50773214603 0.53946540516 
0.57119866429 0.60293192342 0.63466518254 0.66639844167 0.6981317008 0.72986495992 0.76159821905 0.79333147818 0.82506473731 
0.85679799643 0.88853125556 0.92026451469 0.95199777382 0.98373103294 1.0154642921 1.0471975512 1.0789308103 1.1106640695 
1.1423973286 1.1741305877 1.2058638468 1.237597106 1.2693303651 1.3010636242 1.3327968833 1.3645301425 1.3962634016 
1.4279966607 1.4597299198 1.491463179 1.5231964381 1.5549296972 1.5866629564 1.6183962155 1.6501294746 1.6818627337 
1.7135959929 1.745329252 1.7770625111 1.8087957702 1.8405290294 1.8722622885 1.9039955476 1.9357288068 1.9674620659 
1.999195325 2.0309285841 2.0626618433 2.0943951024 2.1261283615 2.1578616206 2.1895948798 2.2213281389 2.253061398 
2.2847946572 2.3165279163 2.3482611754 2.3799944345 2.4117276937 2.4434609528 2.4751942119 2.506927471 2.5386607302 
2.5703939893 2.6021272484 2.6338605076 2.6655937667 2.6973270258 2.7290602849 2.7607935441 2.7925268032 2.8242600623 
2.8559933214 2.8877265806 2.9194598397 2.9511930988 2.982926358 3.0146596171 3.0463928762 3.0781261353 3.1098593945 
3.1415926536 
_radius 1 100 double
1.6703036115e-15 0.016406587784 0.032773478681 0.049061831611 0.065228824869 0.081226519233 0.097001680158 0.11249647436 0.12764975697 
0.14239858239 0.15667963311 0.17043042899 0.18359036332 0.19610171572 0.20791076653 0.21896901043 0.22923431959 0.23867182418 
0.24725431121 0.25496208996 0.26178248355 0.26770930753 0.27274280348 0.27689044645 0.28016881511 0.28260633627 0.28424628473 
0.28514907079 0.2853927209 0.2850706475 0.28428631388 0.28314512054 0.28174456992 0.28016428214 0.27845757117 0.27664602214 
0.27471795704 0.27263104653 0.27031879993 0.26770031068 0.26469239775 0.2612230659 0.25724495824 0.25274723741 0.2477642235 
0.2423792635 0.23672278243 0.2309642577 0.22529885738 0.21993048499 0.21505368794 0.21083702289 0.20740990199 0.20485388022 
0.20319830332 0.20241971998 0.2024445838 0.20315520684 0.20439920351 0.20600247453 0.20778509072 0.20957848282 0.21124158261 
0.21267344056 0.21382047483 0.21467757409 0.21528332745 0.21571038723 0.21605231117 0.21640828058 0.21686703478 0.21749137484 
0.21830473677 0.2192815132 0.22034276738 0.22135848092 0.22215645341 0.22253669593 0.22228910448 0.22121174133 0.21912726717 
0.21589575211 0.21142294426 0.2056638319 0.19862185311 0.19034436535 0.18091505898 0.17044401545 0.15905620172 0.14687942968 
0.13403315041 0.12061973165 0.10671983185 0.092392926702 0.077682943241 0.062627579516 0.04726872908 0.031660994064 0.01587580318 
3.6937443893e-16 
_area 1 100 double
0 0.00061697527839 0.0024581387837 0.0054948956743 0.009681881294 0.014960348154 0.021262704179 0.028517660658 0.036654871332 
0.045607481753 0.055311008188 0.065697532332 0.07668539833 0.088166647479 0.099996770832 0.11199187574 0.12393565449 0.13559460585 
0.14673776658 0.15715714623 0.16668570004 0.17521014102 0.18267641138 0.18908666458 0.19448789252 0.19895318017 0.20255822812 
0.20536176635 0.20740439184 0.20872996531 0.20941227259 0.20956629471 0.20933754626 0.20887365754 0.20828538011 0.20760676209 
0.20677055531 0.2056154423 0.20392442589 0.20147550291 0.1980876793 0.19365599922 0.18817355802 0.18173795272 0.17454001624 
0.1668360951 0.15891020875 0.15103615652 0.14344935894 0.1363335805 0.12982129363 0.1240020475 0.1189325994 0.11464476548 
0.11115053148 0.10843918555 0.10645104305 0.10505791196 0.10412474142 0.10352228275 0.10310438379 0.10270293069 0.10217265725 
0.10144733137 0.10055641201 0.099604415137 0.098738557574 0.098114259102 0.097861244702 0.098057812347 0.09871753236 0.099800885381 
0.10125115874 0.10304879706 0.10517591961 0.10738367325 0.10940767787 0.11102878121 0.11204028329 0.11224711558 0.11147377496 
0.10957671885 0.10645930587 0.10208593321 0.09649138627 0.089782478818 0.082131161672 0.073760353562 0.064925141783 0.055892616978 
0.046923583999 0.03825877846 0.030111044487 0.02266345985 0.016072041942 0.010470648127 0.0059751247168 0.0026840988234 0.00067545905702 
7.3402375821e-17 
