# vtk DataFile Version 5.1
vtk output
ASCII
DATASET POLYDATA
POINTS 100 float
0.146396 0.0493493 -0.651956 0.14637 0.0494086 -0.651961 0.146214 0.0497261 -0.651903 
0.145946 0.0502407 -0.65169 0.145587 0.0508571 -0.651182 0.145158 0.0514545 -0.650201 
0.144669 0.0518967 -0.648556 0.144109 0.0520442 -0.646061 0.143443 0.0517656 -0.642553 
0.142603 0.0509476 -0.637909 0.141492 0.0495041 -0.632059 0.139984 0.0473816 -0.624986 
0.137938 0.0445616 -0.616729 0.135207 0.0410607 -0.607375 0.13165 0.036927 -0.597042 
0.127152 0.0322349 -0.585869 0.121634 0.0270783 -0.573999 0.115065 0.0215625 -0.561558 
0.107467 0.0157975 -0.548648 0.0989203 0.00989109 -0.535337 0.0895541 0.00394388 -0.521655 
0.0795402 -0.00195394 -0.507594 0.0690781 -0.00772423 -0.493117 0.0583788 -0.0133008 -0.478165 
0.0476471 -0.0186282 -0.462671 0.0370651 -0.0236595 -0.446568 0.026779 -0.0283543 -0.429805 
0.0168892 -0.0326766 -0.412348 0.00744678 -0.0365939 -0.394189 -0.00154471 -0.0400765 -0.375345 
-0.0101224 -0.0430984 -0.355853 -0.0183523 -0.0456387 -0.335768 -0.0263146 -0.0476837 -0.31515 
-0.0340881 -0.0492292 -0.294062 -0.0417344 -0.0502818 -0.272558 -0.0492857 -0.0508607 -0.250679 
-0.056735 -0.0509974 -0.228453 -0.0640325 -0.0507343 -0.205892 -0.071086 -0.0501228 -0.182999 
-0.0777675 -0.0492195 -0.159768 -0.083923 -0.048082 -0.136199 -0.0893861 -0.0467648 -0.112298 
-0.0939922 -0.045315 -0.0880842 -0.0975939 -0.0437689 -0.0635976 -0.100073 -0.0421502 -0.0388968 
-0.101352 -0.0404693 -0.0140592 -0.101398 -0.0387241 0.010823 -0.100226 -0.0369031 0.0356486 
-0.0978954 -0.0349888 0.0603147 -0.0945055 -0.0329626 0.0847231 -0.0901835 -0.0308098 0.108787 
-0.0850754 -0.0285237 0.132435 -0.0793339 -0.0261101 0.155613 -0.0731071 -0.0235888 0.178283 
-0.0665292 -0.020995 0.200423 -0.0597137 -0.0183778 0.222019 -0.0527485 -0.0157974 0.243061 
-0.0456943 -0.0133213 0.26354 -0.0385858 -0.0110189 0.283438 -0.0314347 -0.00895596 0.302734 
-0.0242341 -0.00718922 0.321398 -0.0169639 -0.00576205 0.339393 -0.00959674 -0.00470088 0.356686 
-0.00210319 -0.0040135 0.373246 0.00554378 -0.00368894 0.389057 0.0133649 -0.00369911 0.404118 
0.0213723 -0.00400184 0.418453 0.0295673 -0.004545 0.432107 0.0379402 -0.00527127 0.445147 
0.04647 -0.00612293 0.45766 0.0551247 -0.0070463 0.46974 0.0638627 -0.00799521 0.481484 
0.0726334 -0.0089334 0.492981 0.0813793 -0.00983545 0.504298 0.0900377 -0.0106865 0.515481 
0.0985434 -0.0114805 0.526542 0.106831 -0.0122181 0.537463 0.114837 -0.012903 0.548194 
0.122504 -0.0135394 0.558661 0.129785 -0.0141289 0.568778 0.136642 -0.0146682 0.578451 
0.14305 -0.0151482 0.587591 0.149001 -0.0155536 0.596127 0.154498 -0.0158641 0.604011 
0.159559 -0.0160561 0.611221 0.164212 -0.0161061 0.617764 0.168491 -0.015993 0.623674 
0.172434 -0.0157022 0.629001 0.176078 -0.0152277 0.63381 0.179453 -0.0145752 0.638166 
0.182581 -0.0137624 0.642125 0.18547 -0.0128196 0.64573 0.188119 -0.0117887 0.649004 
0.190511 -0.0107202 0.651945 0.192622 -0.00967066 0.654534 0.194419 -0.00869815 0.656735 
0.195868 -0.00785819 0.6585 0.196936 -0.0071994 0.659785 0.197595 -0.00675967 0.660548 
0.197829 -0.00656309 0.660763 
LINES 2 100
OFFSETS vtktypeint64
0 100 
CONNECTIVITY vtktypeint64
0 1 2 3 4 5 6 7 8 
9 10 11 12 13 14 15 16 17 
18 19 20 21 22 23 24 25 26 
27 28 29 30 31 32 33 34 35 
36 37 38 39 40 41 42 43 44 
45 46 47 48 49 50 51 52 53 
54 55 56 57 58 59 60 61 62 
63 64 65 66 67 68 69 70 71 
72 73 74 75 76 77 78 79 80 
81 82 83 84 85 86 87 88 89 
90 91 92 93 94 95 96 97 98 
99 
POINT_DATA 100
FIELD FieldData 3
_theta 1 100 double
0 0.031733259127 0.063466518254 0.095199777382 0.12693303651 0.15866629564 0.19039955476 0.22213281389 0.25386607302 
0.28559933214 0.31733259127 0.3490658504 0.38079910953 0.41253236865 0.44426562778 0.47599888691 0.50773214603 0.53946540516 
0.57119866429 0.60293192342 0.63466518254 0.66639844167 0.6981317008 0.72986495992 0.76159821905 0.79333147818 0.82506473731 
0.85679799643 0.88853125556 0.92026451469 0.95199777382 0.98373103294 1.0154642921 1.0471975512 1.0789308103 1.1106640695 
1.1423973286 1.1741305877 1.2058638468 1.237597106 1.2693303651 1.3010636242 1.3327968833 1.3645301425 1.3962634016 
1.4279966607 1.4597299198 1.491463179 1.5231964381 1.5549296972 1.5866629564 1.6183962155 1.6501294746 1.6818627337 
1.7135959929 1.745329252 1.7770625111 1.8087957702 1.8405290294 1.8722622885 1.9039955476 1.9357288068 1.9674620659 
1.999195325 2.0309285841 2.0626618433 2.0943951024 2.1261283615 2.1578616206 2.1895948798 2.2213281389 2.253061398 
2.2847946572 2.3165279163 2.3482611754 2.3799944345 2.4117276937 2.4434609528 2.4751942119 2.506927471 2.5386607302 
2.5703939893 2.6021272484 2.6338605076 2.6655937667 2.6973270258 2.7290602849 2.7607935441 2.7925268032 2.8242600623 
2.8559933214 2.8877265806 2.9194598397 2.9511930988 2.982926358 3.0146596171 3.0463928762 3.0781261353 3.1098593945 
3.1415926536 
_radius 1 100 double
1.3498601114e-15 0.015590222611 0.031105963152 0.046471560681 0.061606507358 0.076423766785 0.090829176977 0.10472225217 0.11799856529 
0.13055373905 0.14228888563 0.15311709214 0.16297027998 0.17180554556 0.17961000191 0.18640323955 0.19223681501 0.19719061424 
0.20136644177 0.20487964233 0.20784984866 0.21039198542 0.2126084438 0.21458296394 0.21637636523 0.21802400156 0.21953480315 
0.22089198677 0.2220557822 0.22296857369 0.22356256567 0.22376956883 0.22353201897 0.22281406734 0.22161149752 0.21995919851 
0.21793493487 0.21565835718 0.2132847378 0.21099374226 0.20897444848 0.20740858781 0.20645442079 0.2062335817 0.20682251217 
0.20824895256 0.2104929167 0.21349112944 0.217144044 0.22132484513 0.22588990347 0.23068993579 0.23558086081 0.2404332521 
0.24513946357 0.24961786558 0.25381404189 0.25769914765 0.26126588208 0.26452270297 0.26748702768 0.27017822921 0.27261122678 
0.27479137232 0.27671115377 0.27834899223 0.2796701349 0.28062936922 0.28117504586 0.28125373575 0.28081478031 0.27981402561 
0.27821615256 0.27599523029 0.2731334307 0.2696182216 0.26543872476 0.26058217834 0.25503148852 0.24876465248 0.24175641117 
0.23398194076 0.22542186175 0.21606749165 0.20592520567 0.19501902279 0.18339101908 0.17109972238 0.15821707067 0.14482466767 
0.13100990153 0.11686212889 0.10246880977 0.087911418026 0.073261183232 0.058575093033 0.043892888138 0.02923585779 0.014608040749 
1.0788314265e-15 
_area 1 100 double
0 0.00053486745636 0.0021532016007 0.0048882955346 0.0087716259756 0.013804717856 0.019933343072 0.027031560752 0.034898982691 
0.043270861218 0.05183834716 0.060275321012 0.068268071828 0.075544361528 0.08189866527 0.087210363384 0.091451543252 0.094681662527 
0.097029011602 0.098664343666 0.099776672875 0.10055810618 0.10119510288 0.10185916074 0.10269384851 0.10380027552 0.10522525634 
0.10695596749 0.10892262499 0.11100763921 0.11305810959 0.11490061383 0.11636114461 0.1172923624 0.11760395887 0.11728750582 
0.11642851955 0.11520221934 0.1138529838 0.11266093438 0.11190260611 0.11181484359 0.11256961666 0.11426294459 0.11691699352 
0.12049205906 0.12490322009 0.13003568084 0.13575564784 0.1419183414 0.14837657188 0.15499074892 0.1616376076 0.1682138084 
0.17463253065 0.18081503154 0.18668267975 0.19215552196 0.19715980872 0.20164106709 0.20557533996 0.20897179455 0.21186400598 
0.21429189595 0.21627970559 0.21781710202 0.21885017422 0.21928602556 0.21900943198 0.21790521737 0.21587874872 0.21286973829 
0.20885844101 0.20386544022 0.1979463497 0.19118234492 0.18366746272 0.17549435797 0.16674153653 0.15746627094 0.14770710886 
0.13749699802 0.12688314041 0.11594547222 0.10480521497 0.093619030308 0.08256077077 0.071798305753 0.061474849483 0.051701722898 
0.042563632391 0.034131362586 0.026473845903 0.019663501428 0.013773733285 0.0088719043928 0.0050125246193 0.002233956791 0.00055931500973 
6.1793089442e-17 
