# vtk DataFile Version 5.1
vtk output
ASCII
DATASET POLYDATA
POINTS 100 float
0.154597 0.0728982 -0.676655 0.154716 0.072715 -0.676737 0.155035 0.0723382 -0.676949 
0.155484 0.0717476 -0.677208 0.155954 0.0709126 -0.677385 0.15631 0.0697955 -0.677315 
0.156406 0.0683565 -0.676817 0.156096 0.0665579 -0.67571 0.155254 0.0643692 -0.673827 
0.15378 0.0617703 -0.671033 0.151607 0.0587536 -0.66723 0.148709 0.0553252 -0.662369 
0.145092 0.0515038 -0.656445 0.140792 0.0473188 -0.649494 0.135863 0.0428072 -0.641583 
0.130368 0.0380104 -0.6328 0.12437 0.0329701 -0.62324 0.11792 0.0277257 -0.612992 
0.111054 0.0223123 -0.602127 0.103792 0.0167601 -0.590692 0.0961369 0.0110944 -0.578706 
0.0880839 0.00533823 -0.566158 0.0796259 -0.000485613 -0.553016 0.0707631 -0.00635095 -0.539227 
0.0615115 -0.0122251 -0.524732 0.0519093 -0.0180664 -0.509472 0.0420196 -0.0238223 -0.493401 
0.0319307 -0.0294295 -0.476488 0.0217507 -0.0348149 -0.458723 0.0116002 -0.0398988 -0.440122 
0.00160147 -0.0445992 -0.420716 -0.00813207 -0.0488361 -0.400555 -0.0175068 -0.0525379 -0.379697 
-0.0264566 -0.0556458 -0.358199 -0.0349476 -0.0581188 -0.336115 -0.0429782 -0.0599363 -0.313485 
-0.050574 -0.0610996 -0.290336 -0.0577797 -0.0616317 -0.26668 -0.064647 -0.061575 -0.242517 
-0.071221 -0.0609874 -0.217841 -0.0775278 -0.0599375 -0.192649 -0.083563 -0.058499 -0.166946 
-0.0892853 -0.0567453 -0.140756 -0.0946141 -0.0547443 -0.114127 -0.0994328 -0.0525543 -0.0871351 
-0.103598 -0.0502214 -0.0598864 -0.10695 -0.0477784 -0.0325132 -0.109334 -0.0452452 -0.0051683 
-0.110611 -0.0426307 0.0219838 -0.110676 -0.0399357 0.0487776 -0.10947 -0.0371566 0.075058 
-0.106991 -0.0342897 0.100691 -0.10329 -0.0313343 0.125573 -0.0984717 -0.0282965 0.149635 
-0.0926853 -0.0251912 0.17285 -0.0861081 -0.0220435 0.195225 -0.078931 -0.0188889 0.216801 
-0.0713404 -0.0157719 0.237646 -0.0635028 -0.0127448 0.25784 -0.0555518 -0.00986444 0.277472 
-0.0475803 -0.00718985 0.296622 -0.0396375 -0.00477865 0.315359 -0.0317319 -0.00268415 0.333731 
-0.0238395 -0.000952455 0.351761 -0.0159146 0.000379875 0.369453 -0.00790405 0.00128777 0.386789 
0.00023909 0.00175894 0.403738 0.00854334 0.00179462 0.420262 0.0170095 0.00140975 0.436327 
0.0256056 0.000632505 0.451905 0.0342667 -0.000496665 0.466986 0.0428991 -0.00192658 0.481578 
0.0513882 -0.0035974 0.495707 0.0596093 -0.00544321 0.509418 0.0674398 -0.00739495 0.522766 
0.07477 -0.00938379 0.535809 0.081513 -0.0113445 0.548603 0.0876117 -0.0132189 0.561189 
0.0930414 -0.014959 0.573584 0.0978095 -0.0165295 0.585781 0.101951 -0.0179096 0.597737 
0.105523 -0.0190938 0.609381 0.108594 -0.0200915 0.620613 0.111238 -0.0209252 0.631311 
0.113526 -0.0216282 0.641341 0.115519 -0.0222407 0.65057 0.117265 -0.0228054 0.658876 
0.118798 -0.0233631 0.666159 0.12014 -0.0239483 0.672355 0.121301 -0.0245855 0.677438 
0.122287 -0.0252861 0.681431 0.123103 -0.0260474 0.684399 0.123754 -0.0268525 0.686448 
0.124253 -0.0276718 0.68772 0.124616 -0.0284662 0.688377 0.124867 -0.0291908 0.688591 
0.125029 -0.0297998 0.68853 0.125128 -0.0302515 0.688343 0.125185 -0.0305122 0.688145 
0.125214 -0.0305603 0.688014 
LINES 2 100
OFFSETS vtktypeint64
0 100 
CONNECTIVITY vtktypeint64
0 1 2 3 4 5 6 7 8 
9 10 11 12 13 14 15 16 17 
18 19 20 21 22 23 24 25 26 
27 28 29 30 31 32 33 34 35 
36 37 38 39 40 41 42 43 44 
45 46 47 48 49 50 51 52 53 
54 55 56 57 58 59 60 61 62 
63 64 65 66 67 68 69 70 71 
72 73 74 75 76 77 78 79 80 
81 82 83 84 85 86 87 88 89 
90 91 92 93 94 95 96 97 98 
99 
POINT_DATA 100
FIELD FieldData 3
_theta 1 100 double
0 0.031733259127 0.063466518254 0.095199777382 0.12693303651 0.15866629564 0.19039955476 0.22213281389 0.25386607302 
0.28559933214 0.31733259127 0.3490658504 0.38079910953 0.41253236865 0.44426562778 0.47599888691 0.50773214603 0.53946540516 
0.57119866429 0.60293192342 0.63466518254 0.66639844167 0.6981317008 0.72986495992 0.76159821905 0.79333147818 0.82506473731 
0.85679799643 0.88853125556 0.92026451469 0.95199777382 0.98373103294 1.0154642921 1.0471975512 1.0789308103 1.1106640695 
1.1423973286 1.1741305877 1.2058638468 1.237597106 1.2693303651 1.3010636242 1.3327968833 1.3645301425 1.3962634016 
1.4279966607 1.4597299198 1.491463179 1.5231964381 1.5549296972 1.5866629564 1.6183962155 1.6501294746 1.6818627337 
1.7135959929 1.745329252 1.7770625111 1.8087957702 1.8405290294 1.8722622885 1.9039955476 1.9357288068 1.9674620659 
1.999195325 2.0309285841 2.0626618433 2.0943951024 2.1261283615 2.1578616206 2.1895948798 2.2213281389 2.253061398 
2.2847946572 2.3165279163 2.3482611754 2.3799944345 2.4117276937 2.4434609528 2.4751942119 2.506927471 2.5386607302 
2.5703939893 2.6021272484 2.6338605076 2.6655937667 2.6973270258 2.7290602849 2.7607935441 2.7925268032 2.8242600623 
2.8559933214 2.8877265806 2.9194598397 2.9511930988 2.982926358 3.0146596171 3.0463928762 3.0781261353 3.1098593945 
3.1415926536 
_radius 1 100 double
1.2294184887e-15 0.015655761925 0.031182302083 0.046457988167 0.061367805242 0.075805461694 0.089674458861 0.10288816525 0.11536917304 
0.12704839481 0.13786440832 0.1477634496 0.156700231 0.16463951592 0.17155820474 0.17744762205 0.18231572096 0.18618897106 
0.18911370669 0.19115666298 0.19240437355 0.19296113266 0.19294539338 0.192484744 0.19170985709 0.19074792215 0.18971603563 
0.18871491911 0.18782327657 0.18709313271 0.18654660694 0.18617474723 0.18593919894 0.18577744077 0.18561187129 0.18536214237 
0.18495910372 0.18435801326 0.18354858567 0.18255996978 0.18145966714 0.18034656586 0.17933951861 0.17856396245 0.17813954935 
0.17817131787 0.17874555042 0.17992940499 0.18177150772 0.1843002469 0.18751825257 0.19139462006 0.19585878274 0.20079983064 
0.20607258507 0.21150879281 0.2169304133 0.2221625339 0.2270448304 0.23144138498 0.23524863519 0.23840073754 0.24087143835 
0.24267196539 0.24384522518 0.24445725683 0.24458718536 0.24431685463 0.24372109492 0.24285938949 0.24176962128 0.2404645244 
0.23893127578 0.23713425553 0.23502047203 0.2325267057 0.22958723302 0.22614104941 0.22213771457 0.21754120853 0.21233147734 
0.20650364561 0.20006514799 0.19303125611 0.18541965123 0.17724483674 0.16851329099 0.15922027418 0.14934904343 0.138872873 
0.12775978205 0.11597936667 0.1035107414 0.090350399543 0.076518821284 0.062064868868 0.04706735105 0.03163354247 0.015894832995 
8.643596931e-16 
_area 1 100 double
0 0.00059427499029 0.0023776014741 0.0053478810603 0.0094896061615 0.014757513968 0.021059934242 0.028248563191 0.036118786196 
0.044420293732 0.052874610866 0.061195251342 0.069106954425 0.076361964619 0.082752743605 0.088121242238 0.09236484628 0.095438905198 
0.097355861224 0.098181278387 0.098027101737 0.097042209261 0.095400209616 0.093285022533 0.090876161648 0.088337219973 0.085811346388 
0.083424585976 0.081291598009 0.079512253556 0.078203202762 0.077367615791 0.077004397462 0.077110281441 0.077535832461 0.078163024208 
0.078896207032 0.079676483236 0.080482313414 0.081340896544 0.082348778943 0.083483949536 0.084808849403 0.086393673356 0.08833897587 
0.09064777639 0.093207916376 0.095997579951 0.099062637011 0.10250499348 0.10645878216 0.11104722391 0.11632553194 0.12224036996 
0.12863618523 0.1352978444 0.14199312258 0.148492812 0.15457354734 0.16002558262 0.16467502735 0.16840677731 0.17117338587 
0.172986834 0.17389873447 0.17397795419 0.17329389814 0.17190986905 0.16988584602 0.16728581685 0.16418318478 0.16065934142 
0.15679425169 0.1526518095 0.14826507917 0.14362699057 0.13869128838 0.13338653462 0.12764144993 0.121413384 0.11470835868 
0.10758525068 0.10014484859 0.092510013573 0.084803655212 0.077129047843 0.069555671872 0.062114474637 0.05480630872 0.047622443301 
0.040568771416 0.033683739357 0.02704590982 0.020773121764 0.015016416968 0.0099500544238 0.0057574272553 0.0026129613512 0.00066169418496 
1.0408340856e-17 
