# vtk DataFile Version 5.1
vtk output
ASCII
DATASET POLYDATA
POINTS 100 float
0.133382 -0.013098 0.621778 0.133437 -0.0131151 0.621388 0.133532 -0.0132634 0.620367 
0.133614 -0.0135256 0.618754 0.133605 -0.0138747 0.616607 0.133412 -0.0142761 0.613993 
0.132942 -0.0146906 0.610976 0.132119 -0.0150774 0.607611 0.13089 -0.0153976 0.603933 
0.12924 -0.015618 0.59995 0.127188 -0.0157139 0.595643 0.12479 -0.0156713 0.590968 
0.122124 -0.0154886 0.585859 0.119283 -0.0151768 0.580239 0.116354 -0.0147587 0.57403 
0.113408 -0.0142664 0.567164 0.110482 -0.0137388 0.559592 0.107572 -0.0132172 0.551292 
0.104631 -0.0127406 0.542276 0.101569 -0.0123422 0.532583 0.098269 -0.0120447 0.522282 
0.0945942 -0.0118577 0.511461 0.0904114 -0.0117762 0.500218 0.0856073 -0.0117806 0.488649 
0.080106 -0.0118382 0.476843 0.0738811 -0.011907 0.464865 0.0669618 -0.0119397 0.45276 
0.0594318 -0.0118896 0.440544 0.0514214 -0.0117164 0.428209 0.043092 -0.0113911 0.415728 
0.0346175 -0.0109007 0.40306 0.0261634 -0.0102507 0.39016 0.017866 -0.00946623 0.376987 
0.00981724 -0.00859056 0.363506 0.00205366 -0.00768209 0.349698 -0.00544523 -0.0068094 0.335552 
-0.0127512 -0.00604526 0.321071 -0.0199733 -0.00546021 0.30626 -0.0272383 -0.00511636 0.291125 
-0.034667 -0.00506226 0.275659 -0.0423499 -0.0053293 0.259843 -0.0503265 -0.00593014 0.243639 
-0.0585687 -0.00685926 0.226992 -0.0669733 -0.00809547 0.20983 -0.0753636 -0.0096061 0.192073 
-0.0834994 -0.0113521 0.173645 -0.0910968 -0.0132935 0.154482 -0.0978532 -0.0153944 0.134544 
-0.103476 -0.0176265 0.113827 -0.107712 -0.0199712 0.0923671 -0.110372 -0.0224194 0.0702427 
-0.111349 -0.0249695 0.0475731 -0.110632 -0.0276231 0.0245099 -0.108303 -0.0303804 0.0012255 
-0.104528 -0.0332337 -0.022102 -0.0995426 -0.0361627 -0.0453041 -0.0936223 -0.0391299 -0.0682366 
-0.0870582 -0.0420784 -0.0907915 -0.0801272 -0.0449319 -0.112905 -0.0730663 -0.0475972 -0.134557 
-0.0660528 -0.0499687 -0.15577 -0.0591923 -0.0519359 -0.176598 -0.0525147 -0.0533906 -0.197115 
-0.04598 -0.0542355 -0.217396 -0.0394912 -0.0543917 -0.237504 -0.0329129 -0.0538046 -0.257472 
-0.0260934 -0.0524478 -0.277299 -0.0188877 -0.0503241 -0.296938 -0.0111777 -0.0474633 -0.316304 
-0.00288836 -0.0439189 -0.335275 0.00600176 -0.0397609 -0.353708 0.0154573 -0.0350691 -0.371452 
0.0253892 -0.0299257 -0.388369 0.0356633 -0.0244082 -0.404344 0.0461137 -0.0185847 -0.419304 
0.0565581 -0.0125113 -0.433221 0.0668137 -0.00623143 -0.446119 0.0767112 0.000221871 -0.458066 
0.0861067 0.00682151 -0.469166 0.0948888 0.0135411 -0.479543 0.102982 0.0203492 -0.489328 
0.110345 0.0272037 -0.498639 0.11697 0.0340486 -0.507565 0.122871 0.0408123 -0.51616 
0.128081 0.0474087 -0.524433 0.132644 0.0537411 -0.532351 0.136607 0.0597086 -0.539846 
0.140018 0.0652133 -0.546826 0.142923 0.0701692 -0.55319 0.145365 0.07451 -0.558845 
0.147383 0.0781957 -0.56372 0.149017 0.0812168 -0.56778 0.150309 0.0835949 -0.571029 
0.151299 0.0853806 -0.573514 0.152033 0.0866476 -0.57532 0.152553 0.0874849 -0.576557 
0.152903 0.087986 -0.577348 0.15312 0.0882389 -0.57781 0.153234 0.0883155 -0.578042 
0.153264 0.0882638 -0.578109 
LINES 2 100
OFFSETS vtktypeint64
0 100 
CONNECTIVITY vtktypeint64
0 1 2 3 4 5 6 7 8 
9 10 11 12 13 14 15 16 17 
18 19 20 21 22 23 24 25 26 
27 28 29 30 31 32 33 34 35 
36 37 38 39 40 41 42 43 44 
45 46 47 48 49 50 51 52 53 
54 55 56 57 58 59 60 61 62 
63 64 65 66 67 68 69 70 71 
72 73 74 75 76 77 78 79 80 
81 82 83 84 85 86 87 88 89 
90 91 92 93 94 95 96 97 98 
99 
POINT_DATA 100
FIELD FieldData 3
_theta 1 100 double
0 0.031733259127 0.063466518254 0.095199777382 0.12693303651 0.15866629564 0.19039955476 0.22213281389 0.25386607302 
0.28559933214 0.31733259127 0.3490658504 0.38079910953 0.41253236865 0.44426562778 0.47599888691 0.50773214603 0.53946540516 
0.57119866429 0.60293192342 0.63466518254 0.66639844167 0.6981317008 0.72986495992 0.76159821905 0.79333147818 0.82506473731 
0.85679799643 0.88853125556 0.92026451469 0.95199777382 0.98373103294 1.0154642921 1.0471975512 1.0789308103 1.1106640695 
1.1423973286 1.1741305877 1.2058638468 1.237597106 1.2693303651 1.3010636242 1.3327968833 1.3645301425 1.3962634016 
1.4279966607 1.4597299198 1.491463179 1.5231964381 1.5549296972 1.5866629564 1.6183962155 1.6501294746 1.6818627337 
1.7135959929 1.745329252 1.7770625111 1.8087957702 1.8405290294 1.8722622885 1.9039955476 1.9357288068 1.9674620659 
1.999195325 2.0309285841 2.0626618433 2.0943951024 2.1261283615 2.1578616206 2.1895948798 2.2213281389 2.253061398 
2.2847946572 2.3165279163 2.3482611754 2.3799944345 2.4117276937 2.4434609528 2.4751942119 2.506927471 2.5386607302 
2.5703939893 2.6021272484 2.6338605076 2.6655937667 2.6973270258 2.7290602849 2.7607935441 2.7925268032 2.8242600623 
2.8559933214 2.8877265806 2.9194598397 2.9511930988 2.982926358 3.0146596171 3.0463928762 3.0781261353 3.1098593945 
3.1415926536 
_radius 1 100 double
6.9420157039e-16 0.013574752534 0.027096274647 0.040512194529 0.053771706055 0.066826659472 0.079632750474 0.092150389987 0.10434474301 
0.11618461886 0.12764039505 0.13868175506 0.14927632729 0.15939002685 0.16898910634 0.17804308056 0.18652729536 0.19442413658 
0.20172255088 0.20841634211 0.21450228416 0.21997921636 0.22484890075 0.2291186975 0.23280538718 0.23593902308 0.23856561317 
0.24074761358 0.24256153943 0.24409240929 0.24542522055 0.24663417722 0.24777091603 0.2488534439 0.2498577958 0.2507143763 
0.25131043959 0.25149925436 0.25111542205 0.24999482396 0.24799692293 0.24502670213 0.24105340528 0.23612344689 0.23036535057 
0.22398529126 0.21725273468 0.21047682257 0.20397562962 0.19804221123 0.19291311653 0.18874579709 0.185609744 0.18349178169 
0.18231070484 0.18193393904 0.1821909985 0.1828834694 0.18379538192 0.18470831631 0.18542229181 0.18577909787 0.18568242323 
0.18510985577 0.18411426961 0.18281466297 0.18137831082 0.17999701092 0.17886048718 0.17813005004 0.17791558346 0.17825868036 
0.17912406667 0.18040037938 0.18191013004 0.18342748834 0.18470148049 0.1854814609 0.18554143928 0.18470010355 0.18283411534 
0.17988332745 0.17584780586 0.17077774877 0.16475838503 0.15789252762 0.1502835428 0.14202109843 0.13317134112 0.12377234816 
0.11383498239 0.10334869328 0.092291311507 0.080641420858 0.068391479432 0.055559608317 0.042198011119 0.028396416513 0.014279720074 
8.1264003509e-16 
_area 1 100 double
0 0.00046450440064 0.0018474587072 0.0041180377896 0.0072276508332 0.011113852761 0.015705056232 0.020924981279 0.026695588799 
0.032937720971 0.039569913496 0.046507213597 0.053662169788 0.060948899931 0.068289141769 0.075617910916 0.082886545785 0.090062115509 
0.097123495948 0.10405513606 0.11083953712 0.11744932771 0.1238403281 0.1299483435 0.1356931343 0.14099081535 0.14577172418 
0.14999859056 0.15368051401 0.15687915208 0.15970416986 0.16229667085 0.16480187123 0.16733474039 0.16994336346 0.17257408787 
0.17504483632 0.17704246634 0.17816287794 0.17799018581 0.17618571243 0.1725597818 0.16711414331 0.16005010292 0.15174096605 
0.14267404932 0.13337638213 0.12434309632 0.11598152913 0.10857138687 0.1022421406 0.096989066497 0.092749038403 0.089530731371 
0.087589209369 0.086818382129 0.086587832987 0.086675606533 0.086795829802 0.086899480482 0.086856349325 0.086368841429 0.085202299006 
0.083300179296 0.080796131341 0.077970248409 0.075142866271 0.072592024818 0.070579321546 0.06933631378 0.06901982007 0.069693376977 
0.071377891695 0.07377220441 0.076439619497 0.079038083334 0.081269524058 0.082869558021 0.083625316401 0.083399216697 0.082143478244 
0.079897157559 0.076766017775 0.072892490428 0.068425850432 0.063500915746 0.058228720933 0.052697676198 0.046981079008 0.041146860086 
0.035266927238 0.029425043153 0.023723017144 0.018284829219 0.013257452243 0.0088065443183 0.0051057892799 0.0023204883949 0.00058812564526 
6.4292768589e-17 
