# vtk DataFile Version 5.1
vtk output
ASCII
DATASET POLYDATA
POINTS 100 float
0.15702 -0.0243972 0.66261 0.156947 -0.0243046 0.662544 0.15665 -0.0241644 0.662459 
0.156123 -0.0239815 0.662293 0.155356 -0.0237624 0.661947 0.15434 -0.023514 0.661296 
0.153064 -0.0232406 0.660196 0.151517 -0.0229422 0.658502 0.149692 -0.0226128 0.656073 
0.147581 -0.0222402 0.65279 0.145183 -0.0218059 0.648563 0.142491 -0.0212876 0.643335 
0.139503 -0.0206618 0.637089 0.136212 -0.0199075 0.629844 0.132607 -0.0190095 0.621654 
0.128674 -0.0179627 0.6126 0.124393 -0.0167739 0.602784 0.119743 -0.0154638 0.592315 
0.114698 -0.0140661 0.581305 0.109236 -0.0126263 0.56986 0.10334 -0.011198 0.558069 
0.0970008 -0.00983871 0.546003 0.0902202 -0.00860477 0.533709 0.0830154 -0.00754671 0.521214 
0.0754179 -0.00670497 0.508522 0.0674736 -0.00610694 0.495621 0.0592405 -0.00576566 0.48248 
0.0507845 -0.00568011 0.469064 0.0421748 -0.0058372 0.455326 0.0334782 -0.00621512 0.44122 
0.0247541 -0.00678739 0.426698 0.0160503 -0.0075272 0.411715 0.00740022 -0.00841132 0.396226 
-0.00117754 -0.00942297 0.38019 -0.00967716 -0.0105534 0.363567 -0.0181015 -0.0118019 0.346318 
-0.0264561 -0.013174 0.328408 -0.0347418 -0.0146792 0.309802 -0.0429474 -0.0163269 0.29047 
-0.0510428 -0.0181232 0.270392 -0.058974 -0.0200673 0.249552 -0.0666609 -0.0221498 0.227952 
-0.0739978 -0.0243515 0.205609 -0.0808573 -0.0266448 0.182557 -0.0870982 -0.0289955 0.158854 
-0.0925749 -0.0313671 0.134577 -0.0971489 -0.0337242 0.109827 -0.1007 -0.0360377 0.0847188 
-0.103139 -0.0382875 0.0593843 -0.104414 -0.0404653 0.0339624 -0.104517 -0.0425746 0.00859382 
-0.103484 -0.0446297 -0.0165854 -0.101393 -0.0466517 -0.0414509 -0.0983582 -0.0486639 -0.0658963 
-0.0945159 -0.0506857 -0.0898375 -0.0900144 -0.0527268 -0.113217 -0.0849996 -0.0547815 -0.136003 
-0.0796014 -0.0568256 -0.158191 -0.0739238 -0.0588139 -0.179802 -0.0680362 -0.0606817 -0.200875 
-0.0619712 -0.0623476 -0.221463 -0.0557255 -0.0637194 -0.241628 -0.0492661 -0.0647012 -0.261433 
-0.0425403 -0.065201 -0.280933 -0.0354883 -0.065139 -0.300175 -0.0280573 -0.0644537 -0.319186 
-0.0202154 -0.0631071 -0.337975 -0.0119629 -0.0610866 -0.356532 -0.00334105 -0.0584046 -0.374823 
0.00556426 -0.0550957 -0.392799 0.0146234 -0.0512114 -0.410396 0.0236694 -0.0468136 -0.427538 
0.0325085 -0.0419678 -0.44415 0.0409345 -0.0367369 -0.460156 0.0487452 -0.0311761 -0.475493 
0.0557592 -0.0253304 -0.490112 0.0618323 -0.0192343 -0.503984 0.0668695 -0.012914 -0.517103 
0.0708351 -0.00639155 -0.529488 0.0737557 0.000309377 -0.541181 0.0757196 0.00715767 -0.552247 
0.0768698 0.0141093 -0.562765 0.0773926 0.0211038 -0.572829 0.0775028 0.0280626 -0.582532 
0.0774263 0.0348904 -0.591965 0.077382 0.0414798 -0.601204 0.0775648 0.047718 -0.610307 
0.0781303 0.053495 -0.619302 0.0791831 0.0587133 -0.628188 0.0807701 0.0632968 -0.636928 
0.0828776 0.0671975 -0.645452 0.0854347 0.0704006 -0.653658 0.0883196 0.0729256 -0.661416 
0.0913715 0.0748235 -0.668581 0.0944048 0.076171 -0.674994 0.0972244 0.0770611 -0.680499 
0.0996427 0.077593 -0.684949 0.101495 0.0778596 -0.68822 0.102653 0.0779369 -0.690214 
0.103036 0.0778755 -0.690872 
LINES 2 100
OFFSETS vtktypeint64
0 100 
CONNECTIVITY vtktypeint64
0 1 2 3 4 5 6 7 8 
9 10 11 12 13 14 15 16 17 
18 19 20 21 22 23 24 25 26 
27 28 29 30 31 32 33 34 35 
36 37 38 39 40 41 42 43 44 
45 46 47 48 49 50 51 52 53 
54 55 56 57 58 59 60 61 62 
63 64 65 66 67 68 69 70 71 
72 73 74 75 76 77 78 79 80 
81 82 83 84 85 86 87 88 89 
90 91 92 93 94 95 96 97 98 
99 
POINT_DATA 100
FIELD FieldData 3
_theta 1 100 double
0 0.031733259127 0.063466518254 0.095199777382 0.12693303651 0.15866629564 0.19039955476 0.22213281389 0.25386607302 
0.28559933214 0.31733259127 0.3490658504 0.38079910953 0.41253236865 0.44426562778 0.47599888691 0.50773214603 0.53946540516 
0.57119866429 0.60293192342 0.63466518254 0.66639844167 0.6981317008 0.72986495992 0.76159821905 0.79333147818 0.82506473731 
0.85679799643 0.88853125556 0.92026451469 0.95199777382 0.98373103294 1.0154642921 1.0471975512 1.0789308103 1.1106640695 
1.1423973286 1.1741305877 1.2058638468 1.237597106 1.2693303651 1.3010636242 1.3327968833 1.3645301425 1.3962634016 
1.4279966607 1.4597299198 1.491463179 1.5231964381 1.5549296972 1.5866629564 1.6183962155 1.6501294746 1.6818627337 
1.7135959929 1.745329252 1.7770625111 1.8087957702 1.8405290294 1.8722622885 1.9039955476 1.9357288068 1.9674620659 
1.999195325 2.0309285841 2.0626618433 2.0943951024 2.1261283615 2.1578616206 2.1895948798 2.2213281389 2.253061398 
2.2847946572 2.3165279163 2.3482611754 2.3799944345 2.4117276937 2.4434609528 2.4751942119 2.506927471 2.5386607302 
2.5703939893 2.6021272484 2.6338605076 2.6655937667 2.6973270258 2.7290602849 2.7607935441 2.7925268032 2.8242600623 
2.8559933214 2.8877265806 2.9194598397 2.9511930988 2.982926358 3.0146596171 3.0463928762 3.0781261353 3.1098593945 
3.1415926536 
_radius 1 100 double
7.8663923824e-16 0.015767007584 0.031451910308 0.046977631235 0.062273048892 0.077273849745 0.091921612833 0.10616145768 0.11993907252 
0.13319821993 0.14587976435 0.15792285396 0.16926823576 0.17986301986 0.18966577061 0.19865071603 0.20681011878 0.21415433659 
0.22070968243 0.22651473806 0.231616143 0.23606493021 0.2399141045 0.24321740354 0.246028365 0.24839848686 0.25037378306 
0.25199015456 0.25326891318 0.25421389207 0.25481098918 0.25503031 0.25483067161 0.25416604659 0.25299337447 0.25128097721 
0.24901665079 0.24621446105 0.24291938614 0.23920918839 0.23519319951 0.23100800676 0.22681030517 0.2227674363 0.21904638958 
0.21580229823 0.21316765321 0.21124345341 0.21009318121 0.2097398542 0.21016569844 0.21131361333 0.21308983068 0.21536788362 
0.2179946456 0.22079919133 0.2236044677 0.22624071556 0.22855884047 0.23044174209 0.23181192102 0.23263441011 0.232915113 
0.23269558291 0.23204557182 0.23105422825 0.22982024769 0.22844118789 0.22700251265 0.22556734261 0.2241681211 0.22280139169 
0.22142662947 0.21996957585 0.21832983962 0.21639176792 0.21403695621 0.21115645892 0.20766089227 0.2034871395 0.19860109119 
0.19299655408 0.18669097688 0.17971893239 0.17212442214 0.16395311428 0.15524560133 0.14603261751 0.1363328354 0.12615340832 
0.11549296015 0.10434637945 0.092710605901 0.08059057687 0.068004560689 0.054988195943 0.041596681933 0.027904751856 0.014004319544 
5.0736937105e-16 
_area 1 100 double
0 0.00059535599665 0.0023671584915 0.0052746797614 0.0092562652107 0.014236488533 0.020132332248 0.026855697685 0.034310468584 
0.042384707903 0.050941876066 0.059817090688 0.068823158889 0.077766796112 0.086471016334 0.094797682673 0.1026649151 0.11005575724 
0.11701528106 0.1236331808 0.13001051915 0.13621622083 0.142250858 0.14804079216 0.15346983863 0.15842784838 0.16284560961 
0.16670098334 0.17000234612 0.1727640595 0.17498500798 0.17663520856 0.17765186287 0.17794463563 0.17740948503 0.17594962074 
0.1735002816 0.17005212648 0.16566779727 0.16048782925 0.15472442985 0.14864374301 0.14253887255 0.13669750566 0.13136982934 
0.12674413772 0.12293681896 0.11999781392 0.1179248499 0.11667709863 0.11618351993 0.11634702612 0.11704686843 0.11813978292 
0.11946126863 0.12083142478 0.1220690592 0.1230138849 0.12356643652 0.12374607228 0.12346733483 0.1227134396 0.12150488537 
0.11988488294 0.11792037288 0.11572083099 0.11345100606 0.11132754957 0.10965586338 0.10877525265 0.10865929932 0.1092571809 
0.11037014298 0.11171431808 0.11298067489 0.1138748886 0.11414057355 0.11357469995 0.11203879587 0.1094651647 0.10585677622 
0.10128046972 0.095853952036 0.089728031661 0.083066775584 0.076029124997 0.068755424758 0.061361327061 0.053939909496 0.046570954878 
0.039334435959 0.032323645405 0.025653078822 0.019458159528 0.013887361423 0.0090899356036 0.0052030632759 0.002341309903 0.00058967163657 
5.2149704257e-17 
