# vtk DataFile Version 5.1
vtk output
ASCII
DATASET POLYDATA
POINTS 100 float
0.0600509 -0.0287631 0.675029 0.0601723 -0.0287997 0.674616 0.0604985 -0.029043 0.673533 
0.0609925 -0.0294507 0.671818 0.0615987 -0.0299572 0.669528 0.0622508 -0.0304815 0.666729 
0.0628821 -0.0309358 0.663484 0.0634347 -0.0312355 0.659844 0.0638684 -0.0313083 0.655836 
0.0641652 -0.0311018 0.651457 0.0643317 -0.0305891 0.646677 0.064396 -0.029771 0.641433 
0.0644016 -0.0286755 0.635647 0.0643978 -0.0273541 0.629226 0.0644282 -0.0258756 0.622085 
0.0645202 -0.0243181 0.614153 0.0646748 -0.0227603 0.605386 0.0648606 -0.0212731 0.595777 
0.0650112 -0.019912 0.585358 0.0650285 -0.0187122 0.574198 0.0647899 -0.0176854 0.5624 
0.0641597 -0.0168196 0.550085 0.0630033 -0.0160821 0.537387 0.0612022 -0.0154236 0.524433 
0.0586678 -0.0147854 0.511333 0.055352 -0.0141061 0.49817 0.0512541 -0.0133292 0.484995 
0.0464211 -0.0124097 0.471822 0.0409436 -0.0113192 0.458637 0.0349454 -0.0100496 0.4454 
0.0285694 -0.0086139 0.432057 0.0219614 -0.00704577 0.418551 0.0152533 -0.00539688 0.404829 
0.00854869 -0.00373288 0.390852 0.00191194 -0.00212849 0.376596 -0.00463718 -0.000662233 0.362055 
-0.0111226 0.000588738 0.347232 -0.017605 0.00155323 0.332133 -0.0241689 0.00216977 0.316759 
-0.0309066 0.00238936 0.301094 -0.0378993 0.00217717 0.285096 -0.045199 0.00151341 0.268696 
-0.0528127 0.000393283 0.251797 -0.0606919 -0.00117353 0.234275 -0.0687276 -0.00316387 0.216 
-0.0767527 -0.00554231 0.196839 -0.0845506 -0.00826259 0.17668 -0.0918709 -0.0112692 0.155448 
-0.0984485 -0.0144991 0.133116 -0.104026 -0.0178839 0.10972 -0.108374 -0.0213518 0.0853582 
-0.111313 -0.0248302 0.0601922 -0.112726 -0.0282487 0.0344338 -0.11257 -0.0315414 0.00832958 
-0.110876 -0.0346499 -0.0178595 -0.107746 -0.0375254 -0.0438812 -0.10334 -0.0401302 -0.0695143 
-0.0978616 -0.0424385 -0.0945867 -0.0915393 -0.0444363 -0.118988 -0.0846055 -0.0461196 -0.142677 
-0.0772775 -0.0474921 -0.165676 -0.0697418 -0.048562 -0.188062 -0.0621415 -0.0493382 -0.209951 
-0.0545704 -0.049826 -0.231478 -0.047071 -0.0500242 -0.25277 -0.0396388 -0.0499223 -0.273931 
-0.0322305 -0.0494991 -0.295023 -0.024775 -0.0487229 -0.316053 -0.0171867 -0.0475533 -0.336975 
-0.00937789 -0.0459445 -0.357691 -0.0012714 -0.0438502 -0.378061 0.00719028 -0.0412283 -0.397926 
0.0160379 -0.0380469 -0.417118 0.0252721 -0.0342894 -0.435488 0.0348625 -0.0299583 -0.452917 
0.0447502 -0.0250782 -0.469332 0.054852 -0.0196965 -0.484705 0.0650658 -0.0138821 -0.499059 
0.0752775 -0.00772245 -0.512453 0.0853664 -0.00131907 -0.524973 0.095212 0.00521844 -0.536713 
0.104698 0.0117785 -0.547756 0.113719 0.0182538 -0.558164 0.122179 0.0245468 -0.567963 
0.13 0.0305738 -0.577138 0.13712 0.0362679 -0.585639 0.143494 0.0415801 -0.593384 
0.1491 0.0464788 -0.600278 0.153932 0.0509473 -0.60623 0.158008 0.0549816 -0.611169 
0.161362 0.0585863 -0.61506 0.164048 0.0617715 -0.617919 0.166132 0.0645488 -0.619819 
0.167696 0.0669296 -0.620883 0.168822 0.068923 -0.621281 0.169599 0.070535 -0.62121 
0.170107 0.0717688 -0.620875 0.170418 0.0726256 -0.620467 0.170586 0.0731054 -0.620143 
0.170646 0.0732081 -0.620003 
LINES 2 100
OFFSETS vtktypeint64
0 100 
CONNECTIVITY vtktypeint64
0 1 2 3 4 5 6 7 8 
9 10 11 12 13 14 15 16 17 
18 19 20 21 22 23 24 25 26 
27 28 29 30 31 32 33 34 35 
36 37 38 39 40 41 42 43 44 
45 46 47 48 49 50 51 52 53 
54 55 56 57 58 59 60 61 62 
63 64 65 66 67 68 69 70 71 
72 73 74 75 76 77 78 79 80 
81 82 83 84 85 86 87 88 89 
90 91 92 93 94 95 96 97 98 
99 
POINT_DATA 100
FIELD FieldData 3
_theta 1 100 double
0 0.031733259127 0.063466518254 0.095199777382 0.12693303651 0.15866629564 0.19039955476 0.22213281389 0.25386607302 
0.28559933214 0.31733259127 0.3490658504 0.38079910953 0.41253236865 0.44426562778 0.47599888691 0.50773214603 0.53946540516 
0.57119866429 0.60293192342 0.63466518254 0.66639844167 0.6981317008 0.72986495992 0.76159821905 0.79333147818 0.82506473731 
0.85679799643 0.88853125556 0.92026451469 0.95199777382 0.98373103294 1.0154642921 1.0471975512 1.0789308103 1.1106640695 
1.1423973286 1.1741305877 1.2058638468 1.237597106 1.2693303651 1.3010636242 1.3327968833 1.3645301425 1.3962634016 
1.4279966607 1.4597299198 1.491463179 1.5231964381 1.5549296972 1.5866629564 1.6183962155 1.6501294746 1.6818627337 
1.7135959929 1.745329252 1.7770625111 1.8087957702 1.8405290294 1.8722622885 1.9039955476 1.9357288068 1.9674620659 
1.999195325 2.0309285841 2.0626618433 2.0943951024 2.1261283615 2.1578616206 2.1895948798 2.2213281389 2.253061398 
2.2847946572 2.3165279163 2.3482611754 2.3799944345 2.4117276937 2.4434609528 2.4751942119 2.506927471 2.5386607302 
2.5703939893 2.6021272484 2.6338605076 2.6655937667 2.6973270258 2.7290602849 2.7607935441 2.7925268032 2.8242600623 
2.8559933214 2.8877265806 2.9194598397 2.9511930988 2.982926358 3.0146596171 3.0463928762 3.0781261353 3.1098593945 
3.1415926536 
_radius 1 100 double
9.0048023567e-16 0.013378948582 0.026744747847 0.040084126746 0.053368962497 0.066552125158 0.079566776597 0.092329176015 0.10474442391 
0.11671410856 0.12814457937 0.13895458051 0.1490812065 0.15848352367 0.16714364058 0.17506539847 0.18227109831 0.18879677107 
0.19468651652 0.19998651253 0.20473947939 0.20898056215 0.21273555288 0.21602196082 0.21885269848 0.22124134691 0.22320742647 
0.22478005525 0.2259988289 0.22691151607 0.22756895462 0.22801810417 0.22829444146 0.22841485845 0.22837214018 0.22813208846 
0.22763432782 0.22679750127 0.22552879244 0.22373680708 0.22134622177 0.21831226219 0.21463282968 0.21035607449 0.20558173046 
0.20045565128 0.19515833532 0.18988921287 0.18484888994 0.18022174012 0.17616143075 0.17278165869 0.17015287054 0.16830332886 
0.16722103328 0.16685324892 0.16710304832 0.16782616382 0.16883430042 0.16991021711 0.1708344895 0.17141728866 0.17152592658 
0.17110154881 0.17016296978 0.16879912544 0.16715323025 0.16540203478 0.16373319344 0.16232305785 0.16131652667 0.16081021389 
0.16084031949 0.16137696669 0.16232667847 0.16354337171 0.16484592659 0.16603833084 0.16692794712 0.16733880348 0.16711903805 
0.16614357585 0.16431404403 0.16155774243 0.1578266206 0.15309629054 0.14736454211 0.14064873223 0.13298171812 0.12440655669 
0.11497080824 0.10472175185 0.093703955324 0.081960326169 0.069536959362 0.056490889843 0.042898597245 0.028862372138 0.014511932827 
4.1921588985e-16 
_area 1 100 double
0 0.00049444176013 0.0019750836082 0.0044321160929 0.0078438392453 0.012170287213 0.01734709819 0.02328139044 0.029850889868 
0.036906910769 0.044281227007 0.051796407187 0.059278653875 0.066571426425 0.073547493261 0.080117361566 0.086233098601 0.091886641576 
0.097100563389 0.10191027964 0.10634202484 0.11039653542 0.11404775993 0.11725846012 0.12000562428 0.1223029102 0.12420804771 
0.12581317508 0.12723079442 0.12859010953 0.13003346391 0.13166884466 0.13349103536 0.13539428321 0.13727181422 0.13902107055 
0.14042469277 0.14117628339 0.1410102557 0.13979771828 0.13737081654 0.13371430323 0.12910640242 0.12370020928 0.11794003634 
0.11209706127 0.10641512597 0.10115856151 0.096554087936 0.09270560004 0.089580704137 0.087081304876 0.08507545374 0.083394626317 
0.081867509792 0.080353266984 0.078770921626 0.077151429493 0.075822591702 0.074888449404 0.074146623388 0.073493685307 0.072806844003 
0.071939802989 0.070794593992 0.069371729945 0.067788228307 0.066334780935 0.065134648636 0.064197199627 0.063581912162 0.063338402908 
0.063490799301 0.064017672485 0.064879158677 0.065993816383 0.067154631124 0.068223253683 0.069104224709 0.069745016377 0.070087598678 
0.070004465963 0.069312703347 0.067853043936 0.065521488799 0.06227627396 0.058142750686 0.053213853546 0.04764272895 0.041627663154 
0.035392150886 0.029164086115 0.023157948315 0.017562991348 0.012538990347 0.0082189986417 0.0047159891432 0.0021280789993 0.00053716420183 
3.8804579128e-17 
