# vtk DataFile Version 5.1
vtk output
ASCII
DATASET POLYDATA
POINTS 100 float
0.126126 0.0518153 -0.645705 0.126106 0.0516869 -0.64578 0.126077 0.0510742 -0.64599 
0.126027 0.050013 -0.646228 0.125933 0.0485596 -0.646337 0.125768 0.046784 -0.646116 
0.125502 0.0447618 -0.645354 0.125107 0.042566 -0.643843 0.124554 0.0402584 -0.641407 
0.123819 0.0378831 -0.637914 0.122878 0.0354618 -0.633292 0.121706 0.0329926 -0.627525 
0.120276 0.0304508 -0.620655 0.118554 0.027793 -0.612768 0.116499 0.0249639 -0.603978 
0.114057 0.021904 -0.594408 0.111168 0.0185587 -0.584175 0.107765 0.0148861 -0.573367 
0.10378 0.0108648 -0.562043 0.0991506 0.00649843 -0.550219 0.0938296 0.00181866 -0.537875 
0.0877911 -0.00311553 -0.524962 0.0810381 -0.00822068 -0.511416 0.0736064 -0.0133944 -0.497168 
0.0655665 -0.0185223 -0.482164 0.0570202 -0.0234863 -0.466375 0.0480948 -0.0281729 -0.449807 
0.038933 -0.0324801 -0.432501 0.0296812 -0.0363239 -0.414533 0.0204758 -0.0396421 -0.396001 
0.0114317 -0.0423961 -0.377015 0.00263165 -0.0445708 -0.357683 -0.0058797 -0.0461721 -0.338091 
-0.0140971 -0.0472236 -0.318293 -0.0220511 -0.0477616 -0.298304 -0.0297988 -0.0478305 -0.278094 
-0.0374112 -0.0474784 -0.257595 -0.0449574 -0.0467528 -0.236709 -0.0524884 -0.0456988 -0.215325 
-0.0600224 -0.0443571 -0.193331 -0.0675336 -0.042764 -0.170641 -0.0749457 -0.0409525 -0.147202 
-0.0821325 -0.0389534 -0.12301 -0.0889237 -0.0367973 -0.0981167 -0.0951179 -0.0345161 -0.072629 
-0.1005 -0.0321442 -0.0466999 -0.104859 -0.0297187 -0.0205176 -0.108012 -0.027279 0.00571093 
-0.109818 -0.0248655 0.0317786 -0.110196 -0.0225178 0.0574951 -0.109129 -0.0202724 0.0827013 
-0.106669 -0.0181601 0.107279 -0.102927 -0.0162046 0.131156 -0.0980655 -0.0144207 0.154301 
-0.0922763 -0.012814 0.176719 -0.0857647 -0.0113811 0.198442 -0.0787276 -0.0101112 0.219511 
-0.0713369 -0.00898819 0.239967 -0.0637259 -0.00799301 0.259838 -0.0559815 -0.00710684 0.279137 
-0.0481441 -0.00631366 0.297853 -0.0402127 -0.00560256 0.31596 -0.032156 -0.00496935 0.333425 
-0.0239271 -0.00441722 0.350214 -0.0154795 -0.00395651 0.366307 -0.00678244 -0.00360356 0.381707 
0.00216672 -0.0033788 0.396451 0.0113351 -0.0033043 0.410607 0.0206526 -0.00340113 0.424277 
0.0300159 -0.00368664 0.437587 0.0392981 -0.00417219 0.450671 0.0483623 -0.00486127 0.463662 
0.0570767 -0.0057484 0.476665 0.06533 -0.00681871 0.489751 0.073044 -0.0080483 0.502939 
0.0801824 -0.00940526 0.516192 0.0867531 -0.0108512 0.529416 0.0928062 -0.012343 0.542469 
0.0984247 -0.0138355 0.555175 0.103712 -0.0152828 0.567341 0.108777 -0.0166413 0.578781 
0.113716 -0.0178706 0.589334 0.118603 -0.0189363 0.598883 0.123473 -0.0198102 0.60737 
0.128324 -0.0204722 0.614799 0.13311 -0.0209107 0.621234 0.137754 -0.0211232 0.626792 
0.142155 -0.0211162 0.631625 0.146205 -0.0209054 0.6359 0.149802 -0.0205147 0.639779 
0.152867 -0.0199757 0.643397 0.155352 -0.0193264 0.64685 0.157253 -0.0186096 0.650179 
0.158605 -0.0178707 0.653373 0.159478 -0.017156 0.656371 0.15997 -0.0165101 0.659074 
0.160193 -0.0159736 0.661364 0.160255 -0.0155808 0.663121 0.160244 -0.0153579 0.664241 
0.160221 -0.0153214 0.664654 
LINES 2 100
OFFSETS vtktypeint64
0 100 
CONNECTIVITY vtktypeint64
0 1 2 3 4 5 6 7 8 
9 10 11 12 13 14 15 16 17 
18 19 20 21 22 23 24 25 26 
27 28 29 30 31 32 33 34 35 
36 37 38 39 40 41 42 43 44 
45 46 47 48 49 50 51 52 53 
54 55 56 57 58 59 60 61 62 
63 64 65 66 67 68 69 70 71 
72 73 74 75 76 77 78 79 80 
81 82 83 84 85 86 87 88 89 
90 91 92 93 94 95 96 97 98 
99 
POINT_DATA 100
FIELD FieldData 3
_theta 1 100 double
0 0.031733259127 0.063466518254 0.095199777382 0.12693303651 0.15866629564 0.19039955476 0.22213281389 0.25386607302 
0.28559933214 0.31733259127 0.3490658504 0.38079910953 0.41253236865 0.44426562778 0.47599888691 0.50773214603 0.53946540516 
0.57119866429 0.60293192342 0.63466518254 0.66639844167 0.6981317008 0.72986495992 0.76159821905 0.79333147818 0.82506473731 
0.85679799643 0.88853125556 0.92026451469 0.95199777382 0.98373103294 1.0154642921 1.0471975512 1.0789308103 1.1106640695 
1.1423973286 1.1741305877 1.2058638468 1.237597106 1.2693303651 1.3010636242 1.3327968833 1.3645301425 1.3962634016 
1.4279966607 1.4597299198 1.491463179 1.5231964381 1.5549296972 1.5866629564 1.6183962155 1.6501294746 1.6818627337 
1.7135959929 1.745329252 1.7770625111 1.8087957702 1.8405290294 1.8722622885 1.9039955476 1.9357288068 1.9674620659 
1.999195325 2.0309285841 2.0626618433 2.0943951024 2.1261283615 2.1578616206 2.1895948798 2.2213281389 2.253061398 
2.2847946572 2.3165279163 2.3482611754 2.3799944345 2.4117276937 2.4434609528 2.4751942119 2.506927471 2.5386607302 
2.5703939893 2.6021272484 2.6338605076 2.6655937667 2.6973270258 2.7290602849 2.7607935441 2.7925268032 2.8242600623 
2.8559933214 2.8877265806 2.9194598397 2.9511930988 2.982926358 3.0146596171 3.0463928762 3.0781261353 3.1098593945 
3.1415926536 
_radius 1 100 double
3.3219841332e-16 0.01510800362 0.030098025953 0.044852418338 0.059265668935 0.073248938297 0.086732895586 0.099668554483 0.11202582067 
0.12378951309 0.13495289364 0.14550931794 0.15544337647 0.16472352206 0.17329833038 0.18109802518 0.18804180103 0.19405012048 
0.19905995353 0.20304017911 0.20600422049 0.20801741917 0.20919753835 0.20970793084 0.2097440801 0.20951521691 0.2092233995 
0.20904279591 0.20910194253 0.2094714278 0.21015865736 0.21111014935 0.21222058805 0.21334715005 0.21432751955 0.21500013078 
0.21522506608 0.21490361527 0.2139940619 0.21252122861 0.21057796445 0.20831807716 0.20594189237 0.20367710483 0.20175820751 
0.20040714318 0.19981627023 0.20013337472 0.20144835773 0.20378245088 0.2070823269 0.21122191775 0.2160134578 0.2212267574 
0.22661334135 0.23193104316 0.23696516723 0.2415438089 0.2455465366 0.24890685181 0.25160948679 0.25368376868 0.25519417133 
0.25622900494 0.25688811428 0.25727052602 0.25746314973 0.25753174659 0.25751525718 0.25742410432 0.25724229379 0.25693225588 
0.25644075669 0.25570415457 0.25465184242 0.25320767434 0.25129011006 0.24881233222 0.24568351736 0.24181188909 0.23710946742 
0.23149787024 0.22491427447 0.21731667393 0.20868775453 0.19903693522 0.18840034468 0.17683872366 0.16443348061 0.15128137551 
0.13748849314 0.12316418411 0.10841546807 0.093342143021 0.078032729317 0.062561458141 0.046986643525 0.031350770791 0.015682439214 
1.1365088633e-15 
_area 1 100 double
0 0.00065395203104 0.0025919963167 0.005746829449 0.010017596497 0.015280497037 0.021396652083 0.028217613037 0.035590162177 
0.043360166031 0.051373677502 0.059474470086 0.067499699614 0.07527707599 0.08262633555 0.089365422929 0.095319550289 0.10033098069 
0.1042691255 0.10704248202 0.10861354216 0.10901457019 0.10835881693 0.10684187799 0.10473257833 0.10236100885 0.1001208333 
0.098443858469 0.097578545163 0.097550171998 0.098319678565 0.099802000142 0.10184713723 0.10423709285 0.10670302103 0.10895613642 
0.11072637662 0.11180524599 0.11208750149 0.11159961896 0.11049974463 0.10904045909 0.10750879326 0.10618468844 0.10533221166 
0.10517415642 0.10586526206 0.10751777918 0.11021465268 0.11399538025 0.11883840526 0.12464956984 0.13125885664 0.13842586639 
0.14585422724 0.15321435996 0.16017228549 0.16642059614 0.17170731223 0.17585908688 0.17879641704 0.1805394035 0.18120270195 
0.18097804957 0.18010378688 0.17882459126 0.17735012661 0.17582432667 0.17431355803 0.17281327752 0.1712655691 0.16957903477 
0.16764646204 0.16535930056 0.16261856331 0.15934132579 0.15546246859 0.15093230518 0.14571202311 0.13977006008 0.13308254241 
0.12563935696 0.11745500711 0.10858119262 0.099116896388 0.089211941984 0.079061336268 0.068889944471 0.058929884016 0.049395934868 
0.040466016519 0.032272608562 0.024906290406 0.018426953112 0.012876014113 0.0082852523251 0.0046814404985 0.002087756068 0.00052306089967 
4.2608725139e-17 
