# vtk DataFile Version 5.1
vtk output
ASCII
DATASET POLYDATA
POINTS 100 float
0.154958 0.040003 -0.630015 0.154752 0.040181 -0.629819 0.154208 0.0405617 -0.629367 
0.153347 0.0411159 -0.628614 0.1522 0.0417956 -0.627494 0.150799 0.0425345 -0.62592 
0.149175 0.0432502 -0.623798 0.147348 0.0438465 -0.621035 0.145321 0.0442172 -0.617545 
0.143077 0.0442514 -0.613261 0.140578 0.0438397 -0.608139 0.137763 0.0428817 -0.602159 
0.134559 0.0412929 -0.595323 0.13088 0.0390126 -0.587655 0.126642 0.0360097 -0.579195 
0.12177 0.0322869 -0.569987 0.11621 0.0278832 -0.560077 0.109932 0.0228727 -0.549505 
0.102941 0.0173611 -0.538298 0.0952795 0.0114791 -0.526467 0.0870208 0.00537362 -0.514009 
0.0782705 -0.00080216 -0.500907 0.0691558 -0.00689968 -0.487135 0.0598161 -0.0127849 -0.472665 
0.0503919 -0.0183468 -0.457472 0.0410131 -0.0235031 -0.441542 0.0317891 -0.0282034 -0.424875 
0.0228011 -0.032428 -0.407492 0.0140976 -0.0361852 -0.389431 0.00569344 -0.0395036 -0.370749 
-0.00242699 -0.0424251 -0.351517 -0.0103033 -0.044995 -0.331813 -0.0179898 -0.0472538 -0.311713 
-0.0255444 -0.0492297 -0.291288 -0.0330175 -0.0509337 -0.270593 -0.0404404 -0.0523575 -0.249664 
-0.047817 -0.0534743 -0.228516 -0.0551177 -0.0542425 -0.207143 -0.0622768 -0.0546121 -0.185522 
-0.0691941 -0.0545321 -0.163619 -0.0757398 -0.0539584 -0.141395 -0.081763 -0.0528618 -0.118819 
-0.0871023 -0.0512334 -0.0958767 -0.0915984 -0.0490886 -0.0725732 -0.0951056 -0.0464682 -0.0489443 
-0.097504 -0.0434366 -0.025056 -0.0987086 -0.0400777 -0.001005 -0.098676 -0.0364887 0.0230863 
-0.0974081 -0.0327734 0.0470764 -0.0949517 -0.0290346 0.0708148 -0.0913954 -0.025368 0.0941525 
-0.0868633 -0.0218569 0.116953 -0.0815063 -0.0185695 0.139103 -0.0754927 -0.015558 0.160518 
-0.068997 -0.0128596 0.181151 -0.0621906 -0.0104999 0.200991 -0.0552322 -0.00849594 0.220062 
-0.0482607 -0.00686091 0.238418 -0.0413902 -0.00560708 0.256136 -0.034707 -0.00474814 0.273306 
-0.0282694 -0.00429965 0.290018 -0.022109 -0.00427776 0.306358 -0.0162344 -0.00469607 0.322396 
-0.0106356 -0.00556146 0.338183 -0.0052895 -0.00686914 0.353744 -0.000165895 -0.00859808 0.369083 
0.00476745 -0.0107074 0.384184 0.00953976 -0.0131346 0.399017 0.0141733 -0.0157959 0.413541 
0.0186809 -0.0185895 0.427717 0.0230639 -0.0214007 0.441514 0.0273124 -0.0241097 0.45491 
0.0314058 -0.0266 0.4679 0.0353146 -0.0287677 0.480496 0.0390031 -0.0305301 0.492724 
0.0424322 -0.0318327 0.504623 0.0455629 -0.0326537 0.516236 0.0483595 -0.0330063 0.527601 
0.0507921 -0.0329373 0.538752 0.0528399 -0.0325225 0.549704 0.0544922 -0.0318607 0.560449 
0.0557498 -0.0310644 0.570957 0.0566256 -0.0302505 0.581176 0.0571432 -0.029531 0.591029 
0.0573364 -0.0290037 0.600425 0.0572468 -0.0287456 0.609264 0.0569217 -0.0288077 0.617449 
0.0564116 -0.0292126 0.624889 0.0557673 -0.0299547 0.631516 0.0550376 -0.0310023 0.637285 
0.0542675 -0.0323016 0.642184 0.0534964 -0.0337823 0.646231 0.0527573 -0.0353632 0.649478 
0.0520764 -0.0369586 0.652 0.0514733 -0.0384834 0.653895 0.0509618 -0.0398585 0.65527 
0.0505512 -0.0410145 0.656228 0.0502469 -0.0418949 0.656866 0.0500522 -0.0424581 0.657258 
0.0499686 -0.0426789 0.65745 
LINES 2 100
OFFSETS vtktypeint64
0 100 
CONNECTIVITY vtktypeint64
0 1 2 3 4 5 6 7 8 
9 10 11 12 13 14 15 16 17 
18 19 20 21 22 23 24 25 26 
27 28 29 30 31 32 33 34 35 
36 37 38 39 40 41 42 43 44 
45 46 47 48 49 50 51 52 53 
54 55 56 57 58 59 60 61 62 
63 64 65 66 67 68 69 70 71 
72 73 74 75 76 77 78 79 80 
81 82 83 84 85 86 87 88 89 
90 91 92 93 94 95 96 97 98 
99 
POINT_DATA 100
FIELD FieldData 3
_theta 1 100 double
0 0.031733259127 0.063466518254 0.095199777382 0.12693303651 0.15866629564 0.19039955476 0.22213281389 0.25386607302 
0.28559933214 0.31733259127 0.3490658504 0.38079910953 0.41253236865 0.44426562778 0.47599888691 0.50773214603 0.53946540516 
0.57119866429 0.60293192342 0.63466518254 0.66639844167 0.6981317008 0.72986495992 0.76159821905 0.79333147818 0.82506473731 
0.85679799643 0.88853125556 0.92026451469 0.95199777382 0.98373103294 1.0154642921 1.0471975512 1.0789308103 1.1106640695 
1.1423973286 1.1741305877 1.2058638468 1.237597106 1.2693303651 1.3010636242 1.3327968833 1.3645301425 1.3962634016 
1.4279966607 1.4597299198 1.491463179 1.5231964381 1.5549296972 1.5866629564 1.6183962155 1.6501294746 1.6818627337 
1.7135959929 1.745329252 1.7770625111 1.8087957702 1.8405290294 1.8722622885 1.9039955476 1.9357288068 1.9674620659 
1.999195325 2.0309285841 2.0626618433 2.0943951024 2.1261283615 2.1578616206 2.1895948798 2.2213281389 2.253061398 
2.2847946572 2.3165279163 2.3482611754 2.3799944345 2.4117276937 2.4434609528 2.4751942119 2.506927471 2.5386607302 
2.5703939893 2.6021272484 2.6338605076 2.6655937667 2.6973270258 2.7290602849 2.7607935441 2.7925268032 2.8242600623 
2.8559933214 2.8877265806 2.9194598397 2.9511930988 2.982926358 3.0146596171 3.0463928762 3.0781261353 3.1098593945 
3.1415926536 
_radius 1 100 double
1.0448278522e-15 0.014058250151 0.027945684256 0.041506418016 0.054609094474 0.06715276024 0.079067016267 0.09030704302 0.1008453675 
0.11066291896 0.11974179416 0.12806132406 0.13559788129 0.14232784038 0.14823249008 0.1533035531 0.15754817468 0.16099262174 
0.16368432862 0.16569220933 0.16710526304 0.16802944499 0.1685826822 0.16888796632 0.16906478682 0.16921972316 0.16943752787 
0.16977416732 0.17025289639 0.17086373064 0.1715660786 0.17229410382 0.17296450365 0.17348644887 0.17377318992 0.17375438947 
0.17338782708 0.17266888737 0.17163622563 0.17037225571 0.16899775272 0.16766099324 0.16652325126 0.16574348801 0.16546501037 
0.1658056334 0.16685123665 0.16865157936 0.17121731972 0.17451806555 0.17848222794 0.18299980826 0.18792885243 0.19310545368 
0.19835631502 0.20351228561 0.20842107722 0.21295756569 0.21703060177 0.22058590291 0.22360515201 0.22610176475 0.22811392015 
0.22969549812 0.23090566482 0.23179806882 0.2324109333 0.23275960357 0.23283306892 0.23259536301 0.23199157592 0.23095694735 
0.22942679339 0.22734514797 0.22467075498 0.22137997911 0.21746696532 0.21294181958 0.20782769916 0.20215756522 0.19597107488 
0.18931177577 0.1822244833 0.17475252197 0.16693445364 0.15880005569 0.15036568174 0.14162970325 0.13256934013 0.12314053087 
0.11328218262 0.10292503591 0.092003883832 0.08047077606 0.068306630752 0.055529277846 0.042196901335 0.028406724023 0.014289405199 
4.4172435258e-16 
_area 1 100 double
0 0.00050088982414 0.0019875736485 0.0044132450922 0.0077032713577 0.011758795527 0.016459578054 0.021665623949 0.027218676893 
0.032945509559 0.038664201562 0.044192873589 0.049359076307 0.054008089884 0.058009502857 0.061262595829 0.063701389831 0.065299681457 
0.066075591074 0.06609467578 0.065470709663 0.064363738158 0.062975090259 0.061535392708 0.060272691532 0.059358963688 0.058879280558 
0.058845806436 0.059222411115 0.059945021715 0.060938390272 0.062128416503 0.063449373026 0.06484363716 0.066254340026 0.06762000977 
0.068879304904 0.069980365818 0.070887453758 0.071587642693 0.072100871481 0.072487549246 0.072846689492 0.073305330361 0.074004544538 
0.075084371109 0.076666257345 0.078836748423 0.081641920525 0.085091792025 0.089162250771 0.093787407243 0.09885371272 0.10421088209 
0.10969368664 0.11514292581 0.12041956246 0.12540864197 0.13001273734 0.13414014674 0.1376981499 0.14059985276 0.14278249841 
0.1442254876 0.14495693649 0.14504519542 0.14457960793 0.14364897694 0.14232428665 0.14064712956 0.13862360955 0.13622577432 
0.13340325097 0.13010329614 0.1262914211 0.12196384373 0.11714869631 0.11189907546 0.10628252603 0.10037060518 0.094231947549 
0.087930995735 0.081530884194 0.07509602601 0.06869076732 0.062373767668 0.056190451079 0.050166697357 0.044306690164 0.038597379411 
0.033020856436 0.027573023055 0.022283049769 0.017226270563 0.012525318721 0.0083389724142 0.004842224295 0.0022027547735 0.0005585465259 
2.4800809516e-17 
