# vtk DataFile Version 5.1
vtk output
ASCII
DATASET POLYDATA
POINTS 100 float
-0.00775471 -0.00190245 -0.513423 -0.00760098 -0.00221255 -0.51368 -0.00715887 -0.00298344 -0.51445 
-0.00644927 -0.00417696 -0.515596 -0.00550593 -0.00573396 -0.516906 -0.00437439 -0.00758064 -0.518114 
-0.00311068 -0.0096364 -0.518927 -0.00177992 -0.0118222 -0.519057 -0.000455046 -0.0140684 -0.518245 
0.000784346 -0.0163214 -0.516285 0.00185307 -0.0185479 -0.51304 0.00266145 -0.0207368 -0.508447 
0.0031167 -0.0228979 -0.502516 0.00312481 -0.0250585 -0.49532 0.00259319 -0.0272574 -0.486976 
0.0014342 -0.0295379 -0.477627 -0.000430394 -0.0319402 -0.46742 -0.00306432 -0.0344937 -0.456487 
-0.00651126 -0.0372111 -0.44493 -0.0107896 -0.0400846 -0.432814 -0.0158881 -0.0430834 -0.420162 
-0.021763 -0.0461551 -0.406964 -0.0283375 -0.0492279 -0.393185 -0.035504 -0.0522163 -0.378775 
-0.0431287 -0.0550268 -0.363688 -0.0510596 -0.057565 -0.347891 -0.0591363 -0.0597424 -0.331375 
-0.0672006 -0.061482 -0.314158 -0.0751082 -0.0627233 -0.296283 -0.0827382 -0.0634247 -0.277813 
-0.090001 -0.0635653 -0.258823 -0.0968424 -0.0631439 -0.239384 -0.103243 -0.0621772 -0.219553 
-0.109215 -0.060697 -0.199368 -0.114792 -0.0587466 -0.178836 -0.120016 -0.0563777 -0.157936 
-0.12493 -0.0536463 -0.136626 -0.129554 -0.0506111 -0.11485 -0.133883 -0.0473306 -0.0925551 
-0.13787 -0.043862 -0.0697043 -0.141425 -0.0402605 -0.0462914 -0.14442 -0.0365787 -0.0223525 
-0.146689 -0.0328663 0.00202857 -0.148047 -0.0291697 0.0267198 -0.148306 -0.0255315 0.0515485 
-0.147293 -0.0219898 0.0763136 -0.14487 -0.0185774 0.100804 -0.140955 -0.0153208 0.124815 
-0.13553 -0.0122398 0.148175 -0.128655 -0.00934724 0.170751 -0.120462 -0.00664945 0.19247 
-0.11115 -0.00414729 0.213318 -0.100973 -0.00183805 0.233337 -0.0902133 0.000282286 0.252617 
-0.079166 0.00221637 0.271279 -0.0681088 0.00396294 0.289458 -0.0572807 0.00551468 0.307277 
-0.0468637 0.0068569 0.324837 -0.0369699 0.00796732 0.342198 -0.0276369 0.00881722 0.35937 
-0.0188306 0.00937376 0.37632 -0.010456 0.00960363 0.392971 -0.00237391 0.00947736 0.409223 
0.00557815 0.00897407 0.424964 0.0135638 0.00808593 0.440094 0.0217264 0.00682186 0.454543 
0.0301711 0.00520986 0.468281 0.0389526 0.00329765 0.48133 0.0480696 0.00115129 0.493762 
0.0574659 -0.00114802 0.505695 0.0670388 -0.00350892 0.517272 0.0766515 -0.00583613 0.528652 
0.0861508 -0.00803732 0.53998 0.0953836 -0.0100299 0.551368 0.104214 -0.0117471 0.562881 
0.112538 -0.0131429 0.574523 0.120289 -0.0141945 0.586232 0.127442 -0.0149034 0.597887 
0.134015 -0.0152941 0.609321 0.140056 -0.0154103 0.620338 0.145633 -0.0153103 0.630734 
0.150825 -0.0150612 0.640325 0.155704 -0.0147321 0.648965 0.160328 -0.0143886 0.656565 
0.164731 -0.0140877 0.663099 0.16892 -0.0138735 0.668608 0.172877 -0.0137753 0.673189 
0.176564 -0.0138073 0.676988 0.17993 -0.0139687 0.680171 0.182925 -0.0142465 0.682909 
0.185506 -0.0146182 0.685356 0.187646 -0.0150551 0.68763 0.189344 -0.0155255 0.689801 
0.190623 -0.0159977 0.691888 0.191528 -0.0164424 0.693861 0.192124 -0.0168338 0.695652 
0.192484 -0.0171507 0.697169 0.192678 -0.0173768 0.698317 0.192768 -0.0175002 0.699011 
0.192792 -0.0175136 0.699194 
LINES 2 100
OFFSETS vtktypeint64
0 100 
CONNECTIVITY vtktypeint64
0 1 2 3 4 5 6 7 8 
9 10 11 12 13 14 15 16 17 
18 19 20 21 22 23 24 25 26 
27 28 29 30 31 32 33 34 35 
36 37 38 39 40 41 42 43 44 
45 46 47 48 49 50 51 52 53 
54 55 56 57 58 59 60 61 62 
63 64 65 66 67 68 69 70 71 
72 73 74 75 76 77 78 79 80 
81 82 83 84 85 86 87 88 89 
90 91 92 93 94 95 96 97 98 
99 
POINT_DATA 100
FIELD FieldData 3
_theta 1 100 double
0 0.031733259127 0.063466518254 0.095199777382 0.12693303651 0.15866629564 0.19039955476 0.22213281389 0.25386607302 
0.28559933214 0.31733259127 0.3490658504 0.38079910953 0.41253236865 0.44426562778 0.47599888691 0.50773214603 0.53946540516 
0.57119866429 0.60293192342 0.63466518254 0.66639844167 0.6981317008 0.72986495992 0.76159821905 0.79333147818 0.82506473731 
0.85679799643 0.88853125556 0.92026451469 0.95199777382 0.98373103294 1.0154642921 1.0471975512 1.0789308103 1.1106640695 
1.1423973286 1.1741305877 1.2058638468 1.237597106 1.2693303651 1.3010636242 1.3327968833 1.3645301425 1.3962634016 
1.4279966607 1.4597299198 1.491463179 1.5231964381 1.5549296972 1.5866629564 1.6183962155 1.6501294746 1.6818627337 
1.7135959929 1.745329252 1.7770625111 1.8087957702 1.8405290294 1.8722622885 1.9039955476 1.9357288068 1.9674620659 
1.999195325 2.0309285841 2.0626618433 2.0943951024 2.1261283615 2.1578616206 2.1895948798 2.2213281389 2.253061398 
2.2847946572 2.3165279163 2.3482611754 2.3799944345 2.4117276937 2.4434609528 2.4751942119 2.506927471 2.5386607302 
2.5703939893 2.6021272484 2.6338605076 2.6655937667 2.6973270258 2.7290602849 2.7607935441 2.7925268032 2.8242600623 
2.8559933214 2.8877265806 2.9194598397 2.9511930988 2.982926358 3.0146596171 3.0463928762 3.0781261353 3.1098593945 
3.1415926536 
_radius 1 100 double
3.3308610625e-16 0.01675097532 0.033241409699 0.049235398676 0.064535464945 0.078998020114 0.092543708315 0.1051606093 0.11689892764 
0.12785686209 0.13815869794 0.14792776663 0.15725861181 0.16619387964 0.17471121115 0.18272333238 0.19009129575 0.19664782431 
0.20222600664 0.2066883141 0.20995155278 0.21200437371 0.2129150768 0.21282862744 0.21195310845 0.21053725632 0.20884217591 
0.20711153414 0.20554509193 0.20427990387 0.20338176299 0.20284700694 0.20261267576 0.20257211737 0.20259354787 0.20254001232 
0.20228964413 0.20175468908 0.20089697632 0.19973722954 0.19835620367 0.19688697369 0.19549945704 0.19437999035 0.19370990114 
0.19364685312 0.19431112666 0.19577677645 0.19806625625 0.20114741065 0.20493312397 0.20928509924 0.21402331172 0.21894155931 
0.22382776184 0.22848603824 0.23275676935 0.23653107086 0.2397571849 0.24243789519 0.2446198234 0.24637704731 0.24779256363 
0.24894137349 0.24987821313 0.25063138513 0.25120239843 0.25156991423 0.25169614198 0.2515341479 0.25103507916 0.25015466418 
0.24885835713 0.24712428961 0.24494311862 0.24231422216 0.23923854839 0.23570952142 0.23170432161 0.22717817172 0.22206374326 
0.21627653191 0.20972543419 0.20232634164 0.19401581852 0.184762041 0.17457105701 0.16348774305 0.15159210345 0.13899230453 
0.12581586429 0.11219997408 0.098281514621 0.084187267858 0.070025039241 0.055876599584 0.041793344422 0.027795367532 0.013874322225 
6.8166579397e-16 
_area 1 100 double
0 0.00057276596847 0.0022921303008 0.0051513642071 0.0091128643185 0.01408739336 0.019929418957 0.026452708003 0.033459984972 
0.040774710222 0.04826293319 0.055836933368 0.063437989633 0.07100282778 0.078426682382 0.085540020222 0.092109435638 0.097861110016 
0.10251881416 0.10584884942 0.10770423973 0.10805827185 0.10701865487 0.10481919081 0.10179196452 0.098328110509 0.094839035575 
0.091722599707 0.089285258681 0.08764510772 0.086815978917 0.086775014256 0.087455242802 0.088744403397 0.090498291729 0.092552504318 
0.09473545002 0.09688717183 0.098880266388 0.10063543838 0.10212559601 0.10336703027 0.10440386207 0.10529888937 0.10614052022 
0.1070602689 0.10824226384 0.10990498564 0.11225201141 0.11542123155 0.11946379084 0.12434419591 0.12993975426 0.13603771279 
0.14234237188 0.14850228674 0.15415736758 0.15899537784 0.16280215081 0.1654916376 0.16711132487 0.16785469265 0.16816280765 
0.16817853176 0.16802120687 0.1679062466 0.16757289553 0.16689271713 0.16581745831 0.16432694073 0.162425676 0.16012912216 
0.15745380643 0.15441243801 0.15101300676 0.14725892861 0.14314697854 0.13866177275 0.1337689702 0.12841228565 0.12251962659 
0.11602010548 0.10886796716 0.10106527889 0.092675164802 0.083821122457 0.07467340607 0.065428107351 0.056286197604 0.047437611384 
0.039051365778 0.031270145622 0.02420810902 0.017951970602 0.012565399392 0.0080953936517 0.0045782233708 0.0020429425918 0.00051200821501 
1.1417239022e-16 
