# vtk DataFile Version 5.1
vtk output
ASCII
DATASET POLYDATA
POINTS 100 float
0.0863361 -0.0298657 0.668567 0.0863497 -0.0297083 0.668266 0.086338 -0.0293779 0.667477 
0.0862673 -0.0288906 0.666223 0.0860872 -0.0282718 0.664536 0.0857388 -0.0275536 0.66245 
0.0851641 -0.0267711 0.659994 0.0843153 -0.0259588 0.657183 0.0831635 -0.0251469 0.654009 
0.0817042 -0.0243585 0.650443 0.07996 -0.0236066 0.646431 0.0779787 -0.0228936 0.641899 
0.0758286 -0.0222109 0.63676 0.0735893 -0.0215403 0.630922 0.0713412 -0.0208569 0.624305 
0.0691542 -0.0201324 0.616845 0.0670766 -0.0193391 0.608508 0.0651265 -0.0184543 0.599296 
0.063287 -0.017464 0.589248 0.0615051 -0.0163659 0.578439 0.0596958 -0.0151715 0.566973 
0.0577498 -0.013906 0.554976 0.0555456 -0.0126073 0.542579 0.0529623 -0.0113229 0.52991 
0.0498946 -0.0101062 0.517075 0.0462649 -0.00901123 0.504155 0.0420334 -0.00808716 0.491195 
0.0372035 -0.00737351 0.478202 0.0318226 -0.00689557 0.465148 0.0259771 -0.00666152 0.451976 
0.0197831 -0.00666119 0.438608 0.013373 -0.00686671 0.424958 0.00687982 -0.00723524 0.410944 
0.000421852 -0.00771325 0.396491 -0.00591178 -0.00824227 0.381548 -0.0120716 -0.00876521 0.366083 
-0.0180535 -0.00923277 0.350089 -0.0238985 -0.00960913 0.333574 -0.0296868 -0.00987639 0.316559 
-0.0355256 -0.0100371 0.299067 -0.0415333 -0.0101146 0.281111 -0.0478206 -0.0101513 0.262694 
-0.0544713 -0.0102051 0.243797 -0.0615243 -0.0103436 0.224379 -0.0689602 -0.010638 0.204382 
-0.0766924 -0.0111563 0.183735 -0.0845657 -0.0119571 0.162362 -0.0923617 -0.0130844 0.140198 
-0.0998107 -0.0145641 0.117198 -0.10661 -0.0164025 0.0933456 -0.112444 -0.0185867 0.0686652 
-0.117014 -0.0210867 0.0432239 -0.120053 -0.023859 0.0171321 -0.121354 -0.0268514 -0.00946161 
-0.120782 -0.0300068 -0.0363786 -0.118287 -0.0332679 -0.0634221 -0.113903 -0.0365796 -0.0903906 
-0.107749 -0.0398907 -0.117092 -0.100012 -0.0431534 -0.143353 -0.0909328 -0.0463219 -0.169031 
-0.0807875 -0.049349 -0.194021 -0.0698631 -0.0521831 -0.218251 -0.0584375 -0.0547648 -0.241685 
-0.0467602 -0.0570246 -0.264316 -0.0350384 -0.0588819 -0.286156 -0.0234275 -0.0602461 -0.307231 
-0.012028 -0.0610206 -0.327568 -0.000888505 -0.0611076 -0.347194 0.00998694 -0.0604163 -0.366124 
0.0206269 -0.0588707 -0.384368 0.031079 -0.0564186 -0.401927 0.0413951 -0.0530391 -0.418797 
0.0516185 -0.0487486 -0.434977 0.0617728 -0.043604 -0.450468 0.0718549 -0.0377028 -0.465284 
0.0818324 -0.0311792 -0.47945 0.0916447 -0.0241974 -0.493004 0.101208 -0.0169413 -0.505991 
0.110426 -0.00960337 -0.518459 0.119195 -0.00237112 -0.530455 0.127419 0.00458471 -0.54201 
0.135018 0.0111211 -0.553141 0.141937 0.0171309 -0.563839 0.148147 0.022547 -0.574067 
0.15365 0.0273437 -0.583765 0.158478 0.0315333 -0.592854 0.162687 0.0351596 -0.601241 
0.166346 0.038289 -0.608833 0.169537 0.0410001 -0.615548 0.172338 0.0433728 -0.62133 
0.174821 0.0454791 -0.62615 0.17704 0.0473749 -0.630023 0.179034 0.0490955 -0.633003 
0.180819 0.0506538 -0.635179 0.182393 0.0520424 -0.636675 0.183741 0.053237 -0.637629 
0.184837 0.0542038 -0.638185 0.185651 0.054906 -0.638475 0.186158 0.0553113 -0.638605 
0.186338 0.0553982 -0.638646 
LINES 2 100
OFFSETS vtktypeint64
0 100 
CONNECTIVITY vtktypeint64
0 1 2 3 4 5 6 7 8 
9 10 11 12 13 14 15 16 17 
18 19 20 21 22 23 24 25 26 
27 28 29 30 31 32 33 34 35 
36 37 38 39 40 41 42 43 44 
45 46 47 48 49 50 51 52 53 
54 55 56 57 58 59 60 61 62 
63 64 65 66 67 68 69 70 71 
72 73 74 75 76 77 78 79 80 
81 82 83 84 85 86 87 88 89 
90 91 92 93 94 95 96 97 98 
99 
POINT_DATA 100
FIELD FieldData 3
_theta 1 100 double
0 0.031733259127 0.063466518254 0.095199777382 0.12693303651 0.15866629564 0.19039955476 0.22213281389 0.25386607302 
0.28559933214 0.31733259127 0.3490658504 0.38079910953 0.41253236865 0.44426562778 0.47599888691 0.50773214603 0.53946540516 
0.57119866429 0.60293192342 0.63466518254 0.66639844167 0.6981317008 0.72986495992 0.76159821905 0.79333147818 0.82506473731 
0.85679799643 0.88853125556 0.92026451469 0.95199777382 0.98373103294 1.0154642921 1.0471975512 1.0789308103 1.1106640695 
1.1423973286 1.1741305877 1.2058638468 1.237597106 1.2693303651 1.3010636242 1.3327968833 1.3645301425 1.3962634016 
1.4279966607 1.4597299198 1.491463179 1.5231964381 1.5549296972 1.5866629564 1.6183962155 1.6501294746 1.6818627337 
1.7135959929 1.745329252 1.7770625111 1.8087957702 1.8405290294 1.8722622885 1.9039955476 1.9357288068 1.9674620659 
1.999195325 2.0309285841 2.0626618433 2.0943951024 2.1261283615 2.1578616206 2.1895948798 2.2213281389 2.253061398 
2.2847946572 2.3165279163 2.3482611754 2.3799944345 2.4117276937 2.4434609528 2.4751942119 2.506927471 2.5386607302 
2.5703939893 2.6021272484 2.6338605076 2.6655937667 2.6973270258 2.7290602849 2.7607935441 2.7925268032 2.8242600623 
2.8559933214 2.8877265806 2.9194598397 2.9511930988 2.982926358 3.0146596171 3.0463928762 3.0781261353 3.1098593945 
3.1415926536 
_radius 1 100 double
6.7525991396e-16 0.014497122169 0.028984187363 0.043450194078 0.05787041726 0.072201870403 0.086381613265 0.1003282635 0.11394658034 
0.12713449659 0.13979159982 0.15182789294 0.16317169394 0.17377568391 0.18362030183 0.19271390672 0.20108943594 0.20879772123 
0.21589815642 0.22244795248 0.22849164274 0.23405268833 0.2391288848 0.24369274437 0.24769716941 0.25108568235 0.25380546383 
0.25582073655 0.25712383149 0.25774167471 0.25773635302 0.25719962404 0.2562424183 0.25498123796 0.25352369411 0.25195523642 
0.25032861162 0.24865705013 0.24691186177 0.24502503382 0.24289731567 0.24041178273 0.23745185381 0.23392150721 0.22976459454 
0.22498008394 0.21963074574 0.21384392823 0.20780433611 0.20173984789 0.19590217536 0.19054447869 0.18589807559 0.18215053541 
0.179427883 0.17778358923 0.17719541443 0.17756864202 0.17874342435 0.18050606091 0.18260640593 0.18478275677 0.18679164198 
0.1884364286 0.18958827636 0.19019537562 0.19027991575 0.18992537893 0.18925840992 0.18842912613 0.18759209528 0.18688882716 
0.18643217321 0.18629315151 0.18649097237 0.18698726677 0.18768556295 0.1884366637 0.18904968514 0.18930745734 0.18898426079 
0.18786373382 0.185755099 0.18250631945 0.17801321832 0.17222397885 0.16513886261 0.15680546597 0.14731031822 0.13676801484 
0.12530930897 0.11306963575 0.10017943005 0.086757320303 0.072906824369 0.058716540002 0.044263097788 0.029615531126 0.014839483128 
1.1878023996e-15 
_area 1 100 double
0 0.00051369974254 0.0020506376274 0.0045983297812 0.0081356684688 0.012631618949 0.018042361326 0.024307104501 0.031343838413 
0.039046899412 0.047287907934 0.055920511083 0.064788152621 0.073733667531 0.082609938631 0.091291010222 0.099682010741 0.1077249784 
0.11539783952 0.12270551795 0.12966447887 0.13628402059 0.14254876874 0.14840688185 0.15376758003 0.15851012922 0.16250456846 
0.16564176547 0.16786609854 0.16919934963 0.1697433011 0.16965625825 0.16911411262 0.16827192873 0.16724290381 0.16609465635 
0.16484735817 0.16347507259 0.16191862347 0.16009575238 0.15785222429 0.15511909222 0.15187488211 0.14807198231 0.14371933826 
0.13855873219 0.13267392288 0.1262735174 0.11963946865 0.11309630223 0.10697291974 0.10156380357 0.097092066195 0.093665209894 
0.091228982318 0.089576196766 0.088438320765 0.087583554836 0.086867605599 0.086250856442 0.08578512777 0.085547455861 0.085548564493 
0.08569815744 0.085857717824 0.085950864238 0.085881698142 0.085676105749 0.085342775379 0.084933615994 0.084519365092 0.084176944908 
0.083972915186 0.083954289887 0.084160266223 0.084624960955 0.085406944137 0.086385616049 0.087262787684 0.087768585495 0.087659754943 
0.086735267678 0.084845562844 0.081898231096 0.077863401898 0.07277937786 0.066756068284 0.059971691404 0.052659734853 0.045087509447 
0.037531030849 0.030251431578 0.023476562967 0.01738949923 0.012124154779 0.0077673123635 0.0043658608483 0.0019376505181 0.00048382689272 
6.7773542692e-17 
