# vtk DataFile Version 5.1
vtk output
ASCII
DATASET POLYDATA
POINTS 100 float
0.122665 -0.0219336 0.643019 0.122725 -0.021934 0.642662 0.122823 -0.0220579 0.641725 
0.122926 -0.0222872 0.640269 0.122985 -0.0225938 0.638385 0.122934 -0.0229436 0.636183 
0.122706 -0.0233001 0.633776 0.12223 -0.0236282 0.631265 0.121444 -0.023898 0.628722 
0.120299 -0.0240874 0.62618 0.118765 -0.0241834 0.623626 0.116831 -0.0241817 0.621 
0.114507 -0.0240858 0.618199 0.111823 -0.0239038 0.615085 0.10882 -0.0236459 0.611501 
0.105553 -0.0233204 0.607287 0.102076 -0.0229314 0.602294 0.0984409 -0.0224769 0.5964 
0.0946873 -0.0219477 0.589522 0.0908412 -0.0213288 0.581624 0.08691 -0.0206011 0.572715 
0.0828824 -0.0197449 0.562851 0.0787302 -0.0187437 0.552122 0.0744114 -0.0175877 0.540647 
0.0698764 -0.0162775 0.528556 0.0650741 -0.0148259 0.515981 0.0599593 -0.0132593 0.503041 
0.0544982 -0.0116162 0.489836 0.048674 -0.00994518 0.476442 0.0424898 -0.00830131 0.462904 
0.0359689 -0.0067414 0.449247 0.0291534 -0.00531955 0.435471 0.0220997 -0.00408274 0.421564 
0.0148729 -0.00306761 0.407506 0.00753964 -0.00229851 0.393272 0.000160947 -0.00178721 0.378843 
-0.00721377 -0.00153427 0.364203 -0.0145515 -0.00153172 0.349338 -0.0218375 -0.00176666 0.334234 
-0.0290749 -0.00222519 0.318876 -0.0362806 -0.00289601 0.303236 -0.0434792 -0.00377309 0.287274 
-0.0506944 -0.004857 0.270936 -0.0579397 -0.00615458 0.254147 -0.065209 -0.00767699 0.236822 
-0.0724685 -0.00943641 0.218864 -0.079651 -0.0114418 0.200178 -0.0866538 -0.0136944 0.180677 
-0.0933403 -0.0161839 0.160293 -0.0995454 -0.0188853 0.138985 -0.105085 -0.0217577 0.11675 
-0.10977 -0.024745 0.0936236 -0.113416 -0.0277789 0.0696805 -0.115863 -0.0307829 0.0450326 
-0.116988 -0.0336782 0.0198208 -0.116712 -0.03639 -0.00579457 -0.115013 -0.0388536 -0.0316459 
-0.111924 -0.0410187 -0.0575698 -0.107533 -0.0428535 -0.0834184 -0.101975 -0.0443447 -0.109067 
-0.0954211 -0.0454966 -0.134422 -0.0880639 -0.0463271 -0.159418 -0.0801014 -0.0468625 -0.18402 
-0.0717219 -0.0471306 -0.208216 -0.0630894 -0.0471541 -0.23201 -0.054333 -0.0469449 -0.255411 
-0.0455407 -0.0464993 -0.278427 -0.0367569 -0.045796 -0.301057 -0.0279864 -0.0447969 -0.323283 
-0.0192014 -0.0434501 -0.34507 -0.010353 -0.0416953 -0.366368 -0.00138414 -0.0394715 -0.387113 
0.00775681 -0.0367249 -0.407231 0.0171032 -0.0334169 -0.426651 0.0266601 -0.0295311 -0.445306 
0.0363975 -0.0250783 -0.463143 0.0462483 -0.0200983 -0.480127 0.0561102 -0.0146598 -0.49624 
0.0658521 -0.00885663 -0.511485 0.0753234 -0.00280161 -0.525878 0.0843664 0.00338112 -0.539448 
0.0928283 0.00956485 -0.552228 0.100574 0.0156289 -0.564249 0.107495 0.0214664 -0.575536 
0.113519 0.0269897 -0.586104 0.118613 0.0321343 -0.595954 0.122784 0.0368597 -0.605078 
0.126076 0.0411477 -0.613458 0.128563 0.0449991 -0.621075 0.130343 0.0484287 -0.627908 
0.131528 0.0514596 -0.633946 0.132237 0.0541181 -0.639189 0.132586 0.0564283 -0.643652 
0.13268 0.0584096 -0.647364 0.132613 0.0600745 -0.65037 0.132463 0.0614282 -0.652721 
0.132291 0.0624704 -0.654474 0.132141 0.063197 -0.655683 0.132045 0.0636026 -0.656393 
0.13202 0.0636832 -0.656633 
LINES 2 100
OFFSETS vtktypeint64
0 100 
CONNECTIVITY vtktypeint64
0 1 2 3 4 5 6 7 8 
9 10 11 12 13 14 15 16 17 
18 19 20 21 22 23 24 25 26 
27 28 29 30 31 32 33 34 35 
36 37 38 39 40 41 42 43 44 
45 46 47 48 49 50 51 52 53 
54 55 56 57 58 59 60 61 62 
63 64 65 66 67 68 69 70 71 
72 73 74 75 76 77 78 79 80 
81 82 83 84 85 86 87 88 89 
90 91 92 93 94 95 96 97 98 
99 
POINT_DATA 100
FIELD FieldData 3
_theta 1 100 double
0 0.031733259127 0.063466518254 0.095199777382 0.12693303651 0.15866629564 0.19039955476 0.22213281389 0.25386607302 
0.28559933214 0.31733259127 0.3490658504 0.38079910953 0.41253236865 0.44426562778 0.47599888691 0.50773214603 0.53946540516 
0.57119866429 0.60293192342 0.63466518254 0.66639844167 0.6981317008 0.72986495992 0.76159821905 0.79333147818 0.82506473731 
0.85679799643 0.88853125556 0.92026451469 0.95199777382 0.98373103294 1.0154642921 1.0471975512 1.0789308103 1.1106640695 
1.1423973286 1.1741305877 1.2058638468 1.237597106 1.2693303651 1.3010636242 1.3327968833 1.3645301425 1.3962634016 
1.4279966607 1.4597299198 1.491463179 1.5231964381 1.5549296972 1.5866629564 1.6183962155 1.6501294746 1.6818627337 
1.7135959929 1.745329252 1.7770625111 1.8087957702 1.8405290294 1.8722622885 1.9039955476 1.9357288068 1.9674620659 
1.999195325 2.0309285841 2.0626618433 2.0943951024 2.1261283615 2.1578616206 2.1895948798 2.2213281389 2.253061398 
2.2847946572 2.3165279163 2.3482611754 2.3799944345 2.4117276937 2.4434609528 2.4751942119 2.506927471 2.5386607302 
2.5703939893 2.6021272484 2.6338605076 2.6655937667 2.6973270258 2.7290602849 2.7607935441 2.7925268032 2.8242600623 
2.8559933214 2.8877265806 2.9194598397 2.9511930988 2.982926358 3.0146596171 3.0463928762 3.0781261353 3.1098593945 
3.1415926536 
_radius 1 100 double
7.1173571192e-16 0.014263056535 0.028516810817 0.042751686751 0.056954168426 0.071104923667 0.085177282629 0.099136511938 0.11294019885 
0.12653964195 0.13988158057 0.15290919828 0.1655614533 0.17777057861 0.18945882378 0.20053654512 0.21090388538 0.22045726159 
0.22910014577 0.23675601793 0.24338054628 0.24897018677 0.25356530349 0.25724725218 0.26013025685 0.26234995778 0.26405090653 
0.26537492654 0.26645133986 0.26738903197 0.26826970478 0.26914177216 0.27001511058 0.27085782358 0.27159670115 0.27212275407 
0.27230213028 0.27199132795 0.27105447966 0.26937999299 0.26689409042 0.2635696286 0.25942968126 0.25454638977 0.24903622304 
0.24305287542 0.23677860515 0.23041414559 0.22416683528 0.21823670926 0.21280111518 0.2079997145 0.20392288073 0.20060671252 
0.19803656076 0.19615831938 0.19489391335 0.19415594092 0.19385712954 0.19391283276 0.19423804521 0.1947428329 0.19533046004 
0.19590068782 0.19635792796 0.19662183139 0.19663730759 0.19638158082 0.19586694199 0.19513881145 0.19426940507 0.19334776755 
0.19246736557 0.19171281178 0.19114728474 0.1908015853 0.19066505085 0.19067861129 0.19073112473 0.19066079178 0.19026307985 
0.18930525975 0.1875460672 0.18475783442 0.18074799406 0.17537707718 0.16857098599 0.16032620452 0.15070756652 0.13983912816 
0.12788951532 0.11505375881 0.1015340256 0.087521741675 0.073183333229 0.058651171 0.044020346701 0.02935083639 0.014673745303 
4.2857610146e-16 
_area 1 100 double
0 0.00049349395339 0.0019771347601 0.0044593563589 0.0079504456169 0.012456378234 0.017970545586 0.024465613928 0.031888862199 
0.040164011558 0.049200456892 0.058907181129 0.069204489307 0.080024268983 0.091292165155 0.10289506569 0.11465026437 0.12629704685 
0.137520876 0.14800313022 0.15747794114 0.1657763702 0.17284458551 0.17873325708 0.18356630855 0.18750394769 0.19071413769 
0.19335931199 0.19559637626 0.19758274893 0.1994796783 0.20144262449 0.20358677806 0.20592853364 0.20833925554 0.2105538364 
0.21222487834 0.21298811003 0.21252108395 0.21058670199 0.20706374436 0.20196308708 0.19542589632 0.18770425909 0.17912853316 
0.17006896258 0.16089998868 0.1519722777 0.14359230684 0.1360069366 0.12939124167 0.12383867983 0.11935273021 0.11584342385 
0.11314157959 0.11103891313 0.10933564033 0.10786876831 0.10651630323 0.10518945548 0.10382467852 0.10238043337 0.10083712709 
0.099194915258 0.097464424597 0.095653398749 0.093761985561 0.091792161095 0.089761320761 0.087710656396 0.085707048469 0.083840328785 
0.082217855079 0.080956561915 0.080166912537 0.079926687622 0.080265653993 0.081152445329 0.08245057704 0.083891429471 0.085115951652 
0.085743870795 0.085428977021 0.083900036482 0.080991405115 0.076662150819 0.071001115561 0.064216470263 0.056610508516 0.048543029802 
0.040389069317 0.032498251042 0.02516302103 0.018601102436 0.012953973296 0.0082990151214 0.0046695760146 0.0020756553951 0.00051898152349 
7.2858385991e-17 
