# vtk DataFile Version 5.1
vtk output
ASCII
DATASET POLYDATA
POINTS 100 float
0.211545 0.0898435 -0.654809 0.211446 0.0897407 -0.655044 0.211195 0.0895795 -0.655723 
0.210762 0.0893164 -0.656726 0.210104 0.0888834 -0.657863 0.209163 0.0881951 -0.658902 
0.207875 0.0871576 -0.659592 0.206173 0.0856773 -0.659686 0.203992 0.0836697 -0.658973 
0.201272 0.0810666 -0.65729 0.19796 0.0778219 -0.654543 0.194013 0.0739134 -0.650706 
0.189393 0.0693435 -0.645819 0.184069 0.0641362 -0.639975 0.178016 0.0583327 -0.633301 
0.171213 0.051986 -0.625936 0.163643 0.0451551 -0.618009 0.155297 0.0378993 -0.609618 
0.146174 0.0302751 -0.600818 0.136285 0.0223341 -0.591609 0.125662 0.0141237 -0.581939 
0.114356 0.00568925 -0.571709 0.102442 -0.00292081 -0.560791 0.0900199 -0.0116503 -0.549043 
0.0772129 -0.0204298 -0.536328 0.06416 -0.0291715 -0.522537 0.0510095 -0.0377673 -0.507601 
0.0379082 -0.0460876 -0.4915 0.0249902 -0.0539845 -0.474271 0.0123654 -0.0612968 -0.455994 
0.000110675 -0.0678582 -0.43679 -0.011736 -0.0735077 -0.4168 -0.0231775 -0.0781004 -0.396167 
-0.0342533 -0.0815188 -0.37502 -0.0450313 -0.0836827 -0.353458 -0.055594 -0.0845567 -0.331537 
-0.0660223 -0.0841547 -0.309266 -0.0763777 -0.0825407 -0.286615 -0.0866851 -0.0798254 -0.263518 
-0.0969191 -0.0761596 -0.239892 -0.106995 -0.0717241 -0.215653 -0.116767 -0.0667176 -0.190736 
-0.126032 -0.0613436 -0.165117 -0.134545 -0.0557976 -0.138818 -0.142034 -0.0502548 -0.111924 
-0.148228 -0.0448614 -0.0845769 -0.152877 -0.0397278 -0.0569733 -0.155781 -0.0349258 -0.0293484 
-0.15681 -0.0304896 -0.00195961 -0.15592 -0.0264191 0.0249356 -0.153155 -0.0226866 0.0511008 
-0.148655 -0.0192449 0.0763405 -0.142634 -0.0160367 0.100515 -0.135371 -0.0130029 0.123551 
-0.127183 -0.010091 0.145441 -0.118395 -0.00726099 0.166243 -0.109317 -0.00448943 0.186068 
-0.100216 -0.00177121 0.205063 -0.0913007 0.000881208 0.223399 -0.0827064 0.00344037 0.241245 
-0.0744954 0.00586794 0.258757 -0.0666609 0.00811972 0.276062 -0.0591402 0.0101509 0.293248 
-0.0518335 0.0119208 0.310364 -0.0446251 0.0133975 0.327416 -0.0374051 0.0145599 0.344379 
-0.0300882 0.0153999 0.3612 -0.0226283 0.0159222 0.377811 -0.0150257 0.0161434 0.394144 
-0.00732803 0.0160897 0.410132 0.000376214 0.0157944 0.425726 0.00796955 0.0152948 0.440891 
0.0153213 0.0146297 0.455613 0.0223048 0.0138362 0.469891 0.0288137 0.0129486 0.483737 
0.0347751 0.0119966 0.497168 0.0401578 0.0110048 0.5102 0.0449744 0.00999326 0.522842 
0.0492784 0.00897736 0.53509 0.0531543 0.00796922 0.546929 0.0567057 0.00697843 0.55833 
0.0600403 0.00601309 0.569254 0.0632549 0.00508052 0.579653 0.0664236 0.00418786 0.58948 
0.0695886 0.00334222 0.598689 0.0727569 0.00255066 0.60724 0.0759017 0.0018199 0.615108 
0.0789688 0.00115589 0.622276 0.0818863 0.000563363 0.628745 0.0845769 4.53784e-05 0.634522 
0.0869703 -0.000396963 0.639629 0.0890137 -0.000764654 0.644092 0.0906792 -0.0010607 0.64794 
0.0919675 -0.00128982 0.651202 0.0929064 -0.00145803 0.653906 0.0935453 -0.00157201 0.656075 
0.0939464 -0.00163845 0.65773 0.0941741 -0.00166341 0.658884 0.0942844 -0.00165174 0.659549 
0.0943152 -0.00160659 0.659731 
LINES 2 100
OFFSETS vtktypeint64
0 100 
CONNECTIVITY vtktypeint64
0 1 2 3 4 5 6 7 8 
9 10 11 12 13 14 15 16 17 
18 19 20 21 22 23 24 25 26 
27 28 29 30 31 32 33 34 35 
36 37 38 39 40 41 42 43 44 
45 46 47 48 49 50 51 52 53 
54 55 56 57 58 59 60 61 62 
63 64 65 66 67 68 69 70 71 
72 73 74 75 76 77 78 79 80 
81 82 83 84 85 86 87 88 89 
90 91 92 93 94 95 96 97 98 
99 
POINT_DATA 100
FIELD FieldData 3
_theta 1 100 double
0 0.031733259127 0.063466518254 0.095199777382 0.12693303651 0.15866629564 0.19039955476 0.22213281389 0.25386607302 
0.28559933214 0.31733259127 0.3490658504 0.38079910953 0.41253236865 0.44426562778 0.47599888691 0.50773214603 0.53946540516 
0.57119866429 0.60293192342 0.63466518254 0.66639844167 0.6981317008 0.72986495992 0.76159821905 0.79333147818 0.82506473731 
0.85679799643 0.88853125556 0.92026451469 0.95199777382 0.98373103294 1.0154642921 1.0471975512 1.0789308103 1.1106640695 
1.1423973286 1.1741305877 1.2058638468 1.237597106 1.2693303651 1.3010636242 1.3327968833 1.3645301425 1.3962634016 
1.4279966607 1.4597299198 1.491463179 1.5231964381 1.5549296972 1.5866629564 1.6183962155 1.6501294746 1.6818627337 
1.7135959929 1.745329252 1.7770625111 1.8087957702 1.8405290294 1.8722622885 1.9039955476 1.9357288068 1.9674620659 
1.999195325 2.0309285841 2.0626618433 2.0943951024 2.1261283615 2.1578616206 2.1895948798 2.2213281389 2.253061398 
2.2847946572 2.3165279163 2.3482611754 2.3799944345 2.4117276937 2.4434609528 2.4751942119 2.506927471 2.5386607302 
2.5703939893 2.6021272484 2.6338605076 2.6655937667 2.6973270258 2.7290602849 2.7607935441 2.7925268032 2.8242600623 
2.8559933214 2.8877265806 2.9194598397 2.9511930988 2.982926358 3.0146596171 3.0463928762 3.0781261353 3.1098593945 
3.1415926536 
_radius 1 100 double
7.2643293205e-16 0.018692833905 0.03718053942 0.055267068 0.072777124102 0.089564598875 0.1055177151 0.12055975919 0.13464496109 
0.1477500986 0.15986340874 0.17097303418 0.18105732472 0.19007888842 0.19798354502 0.20470450917 0.21017136851 0.21432276504 
0.2171211524 0.21856762728 0.21871467988 0.2176748061 0.21562325564 0.21279371069 0.20946636279 0.20594866705 0.20255002614 
0.19955280313 0.19718327725 0.19558707827 0.19481369713 0.19481348667 0.1954483392 0.19651458857 0.19777417881 0.1989884177 
0.19994876766 0.20050127124 0.2005636418 0.20013517313 0.19929965107 0.19822093847 0.19712980172 0.19630028479 0.19601647009 
0.1965345962 0.19804831852 0.20066485355 0.20439670661 0.20916862805 0.21483458994 0.2211974933 0.22802615884 0.23506847988 
0.24206330219 0.2487542906 0.25490684677 0.26032617738 0.26487299418 0.26847358042 0.27112230689 0.27287624523 0.273842879 
0.27416293638 0.27399099789 0.27347669173 0.27274893795 0.27190489276 0.27100414622 0.27006760742 0.26907973662 0.26799282055 
0.26673311415 0.26520993788 0.26332794437 0.26099974536 0.25815469146 0.25474154879 0.25072567971 0.24608297711 0.2407930818 
0.23483387379 0.22817835795 0.22079420977 0.21264560286 0.20369657578 0.19391510258 0.18327715821 0.17177032013 0.15939669405 
0.14617508212 0.13214228839 0.11735333974 0.10188033503 0.085809762507 0.069238482423 0.052269032679 0.035005249167 0.017549194118 
2.6596487532e-16 
_area 1 100 double
0 0.00068325138866 0.0027410885914 0.0061872195545 0.011015017234 0.017169025072 0.024526004301 0.032891432068 0.042010623552 
0.051589405004 0.061318164224 0.070894254812 0.080039702922 0.088512831294 0.09611342625 0.10268185204 0.10809375411 0.11225386492 
0.11509398154 0.11657956058 0.11672534574 0.11561448353 0.11341170149 0.1103623196 0.10677431796 0.10298707424 0.099334832983 
0.096114313986 0.093564192602 0.091858537647 0.091251756191 0.091538279399 0.092410246073 0.093625986156 0.094968062968 0.096264547875 
0.097404294663 0.098343316489 0.099097500263 0.09972349537 0.10029345006 0.10086593789 0.10153065467 0.10238634386 0.10368524412 
0.10551689002 0.10789858664 0.11087330336 0.11453342764 0.11901950604 0.12449143237 0.13106139181 0.13872046659 0.14730427181 
0.15649885543 0.1658690924 0.17490767946 0.18310642424 0.19004399137 0.19544969909 0.19912824393 0.20095495214 0.20098105968 
0.19942873714 0.19664647772 0.19309970645 0.18915358699 0.18504071943 0.18101090394 0.17735679307 0.17417970555 0.17136566439 
0.16873726106 0.16602416774 0.16294622233 0.15928574751 0.15491538082 0.14979264914 0.14393549272 0.1373944963 0.13023615131 
0.12254018682 0.11440284839 0.10593626306 0.097258878444 0.088478738867 0.079677774138 0.070907576875 0.062201555021 0.053597917152 
0.045161838103 0.036997574549 0.029247748614 0.022081988588 0.015679295174 0.010209017538 0.00581498224 0.0026061074532 0.00065461019507 
2.0901437119e-17 
