# vtk DataFile Version 5.1
vtk output
ASCII
DATASET POLYDATA
POINTS 100 float
-0.0309321 -0.0140821 -0.683189 -0.0308925 -0.0142668 -0.682902 -0.0308688 -0.0146411 -0.681914 
-0.0308522 -0.0151667 -0.680192 -0.0308323 -0.015786 -0.677687 -0.0308032 -0.0164325 -0.674341 
-0.0307699 -0.0170413 -0.670098 -0.0307551 -0.0175611 -0.66491 -0.0308041 -0.0179635 -0.658748 
-0.0309867 -0.0182499 -0.651603 -0.0313963 -0.0184529 -0.643493 -0.0321453 -0.018634 -0.634454 
-0.0333569 -0.0188759 -0.624542 -0.035154 -0.0192719 -0.613823 -0.0376474 -0.0199122 -0.602361 
-0.0409231 -0.0208713 -0.590213 -0.0450314 -0.0221951 -0.577418 -0.0499788 -0.0238937 -0.563994 
-0.0557239 -0.0259363 -0.549934 -0.062178 -0.0282533 -0.535209 -0.0692105 -0.030743 -0.519772 
-0.0766588 -0.0332819 -0.503566 -0.0843411 -0.0357391 -0.486537 -0.0920724 -0.0379912 -0.468635 
-0.0996789 -0.0399362 -0.449833 -0.107013 -0.0415047 -0.430126 -0.113963 -0.0426665 -0.409535 
-0.120461 -0.0434322 -0.388107 -0.126482 -0.0438487 -0.365909 -0.132042 -0.04399 -0.343023 
-0.137189 -0.0439442 -0.31953 -0.141987 -0.043799 -0.29551 -0.146508 -0.0436264 -0.271024 
-0.150808 -0.0434705 -0.246115 -0.154922 -0.0433393 -0.220804 -0.158846 -0.043201 -0.195093 
-0.162534 -0.0429871 -0.168969 -0.1659 -0.0426004 -0.142417 -0.168817 -0.041928 -0.115431 
-0.17113 -0.0408568 -0.0880249 -0.172668 -0.0392901 -0.0602446 -0.173263 -0.0371626 -0.0321749 
-0.172765 -0.0344526 -0.00394244 -0.171057 -0.0311884 0.0242864 -0.16807 -0.0274496 0.0523134 
-0.16379 -0.0233616 0.0799208 -0.158262 -0.0190856 0.106888 -0.151589 -0.0148033 0.133008 
-0.143922 -0.0106999 0.158107 -0.135449 -0.00694736 0.182057 -0.126382 -0.00368848 0.204788 
-0.116937 -0.00102547 0.226291 -0.107318 0.000986751 0.246622 -0.0977071 0.00234173 0.265887 
-0.0882455 0.00307709 0.284235 -0.0790324 0.00326556 0.301842 -0.0701203 0.00300276 0.318889 
-0.0615178 0.00239355 0.335546 -0.0531961 0.00153871 0.351958 -0.0450989 0.000523848 0.368232 
-0.0371543 -0.000588386 0.384432 -0.029287 -0.0017617 0.400577 -0.02143 -0.00298528 0.416649 
-0.0135343 -0.00426891 0.432599 -0.00557541 -0.00563535 0.448359 0.00244341 -0.00711111 0.46386 
0.0104912 -0.00871743 0.479036 0.018513 -0.0104627 0.493841 0.0264359 -0.0123378 0.508252 
0.0341772 -0.0143146 0.522269 0.0416526 -0.0163483 0.535912 0.0487848 -0.0183831 0.549219 
0.0555105 -0.0203595 0.56223 0.0617856 -0.0222233 0.57498 0.0675878 -0.023934 0.587493 
0.0729171 -0.0254711 0.599766 0.0777935 -0.0268384 0.611774 0.082253 -0.0280635 0.623465 
0.0863422 -0.0291953 0.634765 0.0901124 -0.030297 0.645588 0.0936135 -0.0314378 0.655842 
0.096889 -0.0326825 0.665443 0.0999724 -0.0340827 0.674325 0.102884 -0.0356688 0.682448 
0.105633 -0.0374453 0.689799 0.108215 -0.0393892 0.696402 0.110617 -0.0414526 0.702304 
0.112823 -0.0435684 0.707576 0.114812 -0.0456582 0.712299 0.116568 -0.0476422 0.716557 
0.118081 -0.0494484 0.720421 0.119348 -0.0510209 0.723945 0.120376 -0.0523251 0.727159 
0.121182 -0.0533506 0.730064 0.12179 -0.0541094 0.732638 0.122228 -0.0546318 0.734839 
0.122528 -0.0549591 0.736613 0.122719 -0.055136 0.737904 0.122825 -0.0552013 0.738666 
0.122862 -0.0551818 0.738868 
LINES 2 100
OFFSETS vtktypeint64
0 100 
CONNECTIVITY vtktypeint64
0 1 2 3 4 5 6 7 8 
9 10 11 12 13 14 15 16 17 
18 19 20 21 22 23 24 25 26 
27 28 29 30 31 32 33 34 35 
36 37 38 39 40 41 42 43 44 
45 46 47 48 49 50 51 52 53 
54 55 56 57 58 59 60 61 62 
63 64 65 66 67 68 69 70 71 
72 73 74 75 76 77 78 79 80 
81 82 83 84 85 86 87 88 89 
90 91 92 93 94 95 96 97 98 
99 
POINT_DATA 100
FIELD FieldData 3
_theta 1 100 double
0 0.031733259127 0.063466518254 0.095199777382 0.12693303651 0.15866629564 0.19039955476 0.22213281389 0.25386607302 
0.28559933214 0.31733259127 0.3490658504 0.38079910953 0.41253236865 0.44426562778 0.47599888691 0.50773214603 0.53946540516 
0.57119866429 0.60293192342 0.63466518254 0.66639844167 0.6981317008 0.72986495992 0.76159821905 0.79333147818 0.82506473731 
0.85679799643 0.88853125556 0.92026451469 0.95199777382 0.98373103294 1.0154642921 1.0471975512 1.0789308103 1.1106640695 
1.1423973286 1.1741305877 1.2058638468 1.237597106 1.2693303651 1.3010636242 1.3327968833 1.3645301425 1.3962634016 
1.4279966607 1.4597299198 1.491463179 1.5231964381 1.5549296972 1.5866629564 1.6183962155 1.6501294746 1.6818627337 
1.7135959929 1.745329252 1.7770625111 1.8087957702 1.8405290294 1.8722622885 1.9039955476 1.9357288068 1.9674620659 
1.999195325 2.0309285841 2.0626618433 2.0943951024 2.1261283615 2.1578616206 2.1895948798 2.2213281389 2.253061398 
2.2847946572 2.3165279163 2.3482611754 2.3799944345 2.4117276937 2.4434609528 2.4751942119 2.506927471 2.5386607302 
2.5703939893 2.6021272484 2.6338605076 2.6655937667 2.6973270258 2.7290602849 2.7607935441 2.7925268032 2.8242600623 
2.8559933214 2.8877265806 2.9194598397 2.9511930988 2.982926358 3.0146596171 3.0463928762 3.0781261353 3.1098593945 
3.1415926536 
_radius 1 100 double
1.0013742916e-15 0.014429560672 0.028792488206 0.043016463651 0.05702164948 0.070721329383 0.084025658063 0.096847213319 0.10910632793 
0.12073420625 0.13167260797 0.14187018583 0.15127696457 0.15983939489 0.16749845861 0.17419236612 0.17986387662 0.18447082904 
0.18799760029 0.19046504181 0.19193681271 0.19252066801 0.192364012 0.19164386003 0.19055227685 0.18927928314 0.18799584381 
0.18683946368 0.1859039934 0.18523405508 0.18482394035 0.1846211709 0.18453537502 0.18445280143 0.18425551942 0.18384277624 
0.18315089189 0.18216795012 0.18094049254 0.17957124153 0.17820906793 0.17703414789 0.17624163476 0.17602596288 0.17656594041 
0.17800953222 0.18045767901 0.18394840948 0.18844450414 0.1938285564 0.1999080309 0.20643071788 0.21310887431 0.21964866048 
0.22578030273 0.23128415562 0.23600880474 0.23987918857 0.242894727 0.2451191085 0.24666443552 0.24767270261 0.24829713503 
0.24868512211 0.2489638221 0.24922918452 0.24953896742 0.24991007886 0.25032016855 0.25071291009 0.25100595911 0.25110025393 
0.25088922964 0.25026669503 0.24913255596 0.24739616224 0.24497765897 0.24180816947 0.23782978856 0.23299616789 0.22727400126 
0.22064515338 0.21310874528 0.20468237219 0.1954018145 0.18531902415 0.1744986738 0.16301397699 0.15094266702 0.13836387189 
0.12535617268 0.11199656949 0.098359667735 0.084516348206 0.070531525921 0.0564611769 0.042349361713 0.028226267109 0.014108198095 
3.5703590245e-16 
_area 1 100 double
0 0.00048987989387 0.0019786983376 0.0045085432512 0.0081079276481 0.012754231867 0.018350558308 0.024723522964 0.031641481847 
0.038847622385 0.046098369995 0.053194945486 0.059996121781 0.0664059719 0.072342882691 0.077708495279 0.082375409031 0.086199473982 
0.08904872369 0.090835796867 0.091542996451 0.091234047744 0.090051401831 0.08820157555 0.085933074023 0.083512541579 0.081205486287 
0.07926551885 0.077925013121 0.077363957983 0.077644268751 0.078662387368 0.08019407373 0.081988800922 0.083828479252 0.085546875576 
0.087036601846 0.088250455616 0.08919410087 0.089911929842 0.090474164412 0.090972381328 0.091521121747 0.092256437938 0.09332676158 
0.094879010972 0.097044010242 0.099924256694 0.10358707677 0.10806563306 0.11337532557 0.11952583528 0.12639252699 0.1335733026 
0.14053617597 0.14679327052 0.15199934225 0.15608066954 0.15928470487 0.1615726514 0.16282600919 0.16310964039 0.16261174747 
0.16157046704 0.16022810082 0.1588039635 0.15747713404 0.15637544995 0.15556618065 0.15504576085 0.15473324101 0.15447705262 
0.15407791781 0.15332001294 0.15200050297 0.14995180994 0.147054682 0.14324234556 0.13849747172 0.13284445403 0.12633975201 
0.11906308155 0.11111198683 0.10260110963 0.093664576189 0.084456670192 0.075145780956 0.065900961308 0.056876152148 0.04819963341 
0.039973723131 0.032283995051 0.025212060377 0.018844463117 0.013273198032 0.0085886022244 0.0048694155992 0.0021754073505 0.00054541488734 
2.3472766914e-17 
