# vtk DataFile Version 5.1
vtk output
ASCII
DATASET POLYDATA
POINTS 100 float
0.197619 0.061788 -0.689883 0.197551 0.0618989 -0.689808 0.197379 0.0620368 -0.689577 
0.197062 0.0621746 -0.689123 0.196543 0.062269 -0.688338 0.195747 0.0622625 -0.687084 
0.194594 0.0620862 -0.685208 0.193006 0.0616632 -0.682553 0.190917 0.060913 -0.678974 
0.188273 0.0597559 -0.674351 0.185042 0.0581175 -0.668599 0.18121 0.0559342 -0.661677 
0.176784 0.0531572 -0.653585 0.171781 0.0497564 -0.644372 0.166229 0.0457238 -0.634119 
0.160157 0.0410748 -0.622941 0.153592 0.0358491 -0.61097 0.146554 0.0301096 -0.598341 
0.139054 0.0239401 -0.585185 0.131097 0.0174418 -0.571614 0.122681 0.0107288 -0.557712 
0.113807 0.00392265 -0.543529 0.104477 -0.00285298 -0.529083 0.0947076 -0.00947769 -0.514355 
0.0845271 -0.0158392 -0.499298 0.073983 -0.0218376 -0.483842 0.0631395 -0.0273881 -0.467904 
0.0520757 -0.0324229 -0.451397 0.0408803 -0.0368924 -0.434242 0.0296457 -0.0407641 -0.416373 
0.0184602 -0.0440224 -0.397743 0.0074014 -0.046666 -0.378332 -0.00346898 -0.0487066 -0.358143 
-0.0141077 -0.0501662 -0.337204 -0.0244896 -0.0510757 -0.315562 -0.0346038 -0.0514728 -0.293279 
-0.0444471 -0.0514005 -0.270424 -0.054015 -0.0509061 -0.247071 -0.0632921 -0.0500402 -0.223288 
-0.0722426 -0.0488555 -0.199137 -0.0808035 -0.0474056 -0.17467 -0.0888802 -0.0457439 -0.14993 
-0.0963469 -0.0439223 -0.124952 -0.103051 -0.0419886 -0.0997642 -0.108824 -0.0399859 -0.0743967 
-0.113492 -0.0379496 -0.0488815 -0.11689 -0.0359073 -0.0232585 -0.118882 -0.0338768 0.00242096 
-0.119372 -0.0318665 0.0280928 -0.118314 -0.0298761 0.0536799 -0.115723 -0.027898 0.0790936 
-0.111672 -0.0259196 0.104237 -0.106292 -0.0239267 0.12901 -0.0997564 -0.0219061 0.153314 
-0.0922739 -0.0198494 0.177058 -0.084066 -0.0177557 0.200164 -0.0753519 -0.0156335 0.222572 
-0.066331 -0.0135017 0.244239 -0.0571693 -0.0113896 0.265148 -0.0479904 -0.00933518 0.285299 
-0.0388712 -0.00738248 0.304713 -0.0298436 -0.00557831 0.323425 -0.0209014 -0.00396824 0.341483 
-0.0120106 -0.0025927 0.358939 -0.00312263 -0.0014835 0.375849 0.00581185 -0.000661218 0.392264 
0.0148306 -0.000133771 0.408231 0.02395 0.000103695 0.423787 0.0331591 6.75984e-05 0.438961 
0.0424188 -0.000216427 0.453775 0.0516646 -0.000716694 0.468238 0.0608138 -0.00139899 0.482358 
0.0697752 -0.00223002 0.496134 0.07846 -0.00318023 0.509563 0.0867921 -0.00422577 0.522639 
0.0947165 -0.00534915 0.535355 0.102205 -0.00653872 0.547701 0.109257 -0.00778692 0.559662 
0.1159 -0.00908779 0.571222 0.122178 -0.0104339 0.582358 0.12815 -0.0118133 0.593041 
0.133875 -0.0132075 0.603234 0.139404 -0.0145897 0.612896 0.144776 -0.0159251 0.621981 
0.150004 -0.0171724 0.630441 0.155079 -0.0182865 0.638229 0.159972 -0.0192227 0.645307 
0.164634 -0.0199414 0.651643 0.169007 -0.0204131 0.65722 0.173028 -0.0206227 0.662038 
0.176644 -0.0205722 0.666117 0.179814 -0.0202832 0.669492 0.182515 -0.0197956 0.672218 
0.184745 -0.0191658 0.674363 0.186524 -0.0184622 0.676004 0.187886 -0.0177592 0.677221 
0.188872 -0.0171311 0.678091 0.189528 -0.0166443 0.678682 0.189892 -0.0163519 0.679046 
0.189991 -0.0162876 0.679215 
LINES 2 100
OFFSETS vtktypeint64
0 100 
CONNECTIVITY vtktypeint64
0 1 2 3 4 5 6 7 8 
9 10 11 12 13 14 15 16 17 
18 19 20 21 22 23 24 25 26 
27 28 29 30 31 32 33 34 35 
36 37 38 39 40 41 42 43 44 
45 46 47 48 49 50 51 52 53 
54 55 56 57 58 59 60 61 62 
63 64 65 66 67 68 69 70 71 
72 73 74 75 76 77 78 79 80 
81 82 83 84 85 86 87 88 89 
90 91 92 93 94 95 96 97 98 
99 
POINT_DATA 100
FIELD FieldData 3
_theta 1 100 double
0 0.031733259127 0.063466518254 0.095199777382 0.12693303651 0.15866629564 0.19039955476 0.22213281389 0.25386607302 
0.28559933214 0.31733259127 0.3490658504 0.38079910953 0.41253236865 0.44426562778 0.47599888691 0.50773214603 0.53946540516 
0.57119866429 0.60293192342 0.63466518254 0.66639844167 0.6981317008 0.72986495992 0.76159821905 0.79333147818 0.82506473731 
0.85679799643 0.88853125556 0.92026451469 0.95199777382 0.98373103294 1.0154642921 1.0471975512 1.0789308103 1.1106640695 
1.1423973286 1.1741305877 1.2058638468 1.237597106 1.2693303651 1.3010636242 1.3327968833 1.3645301425 1.3962634016 
1.4279966607 1.4597299198 1.491463179 1.5231964381 1.5549296972 1.5866629564 1.6183962155 1.6501294746 1.6818627337 
1.7135959929 1.745329252 1.7770625111 1.8087957702 1.8405290294 1.8722622885 1.9039955476 1.9357288068 1.9674620659 
1.999195325 2.0309285841 2.0626618433 2.0943951024 2.1261283615 2.1578616206 2.1895948798 2.2213281389 2.253061398 
2.2847946572 2.3165279163 2.3482611754 2.3799944345 2.4117276937 2.4434609528 2.4751942119 2.506927471 2.5386607302 
2.5703939893 2.6021272484 2.6338605076 2.6655937667 2.6973270258 2.7290602849 2.7607935441 2.7925268032 2.8242600623 
2.8559933214 2.8877265806 2.9194598397 2.9511930988 2.982926358 3.0146596171 3.0463928762 3.0781261353 3.1098593945 
3.1415926536 
_radius 1 100 double
1.3374796748e-15 0.016213448228 0.032265085484 0.048001303364 0.063289272772 0.078023857863 0.092130987889 0.10556736479 0.11831689549 
0.1303845324 0.14178829043 0.15255020921 0.16268709701 0.17220208886 0.18107827833 0.18927575052 0.19673309584 0.20337389275 
0.20911780448 0.21389499712 0.21766174208 0.22041452156 0.2221998872 0.22311781463 0.22331729504 0.22298424237 0.222323233 
0.22153585368 0.22079920321 0.2202480849 0.21996352261 0.21996868694 0.22023176946 0.22067445125 0.22118454151 0.22163165938 
0.22188490474 0.22183111481 0.2213917814 0.22053639468 0.21929016978 0.21773492069 0.21600315713 0.21426686137 0.21272317082 
0.21157882698 0.21103399754 0.21126509018 0.21240664503 0.21453427753 0.21765241173 0.2216904755 0.22650907095 0.23191481109 
0.23768067916 0.24356841933 0.24935001976 0.25482607829 0.25983947637 0.26428340483 0.2681034641 0.27129423233 0.27389122445 
0.27595948677 0.27758022459 0.27883692144 0.27980240845 0.28052822832 0.28103733078 0.28132063322 0.28133743214 0.2810192973 
0.28027701013 0.27901005971 0.2771177716 0.27451037976 0.27111795764 0.26689563834 0.26182467796 0.25590994381 0.24917494652 
0.24165562204 0.23339390534 0.2244318784 0.21480700843 0.20454876851 0.19367677841 0.18220051064 0.17012053902 0.15743122472 
0.14412462503 0.13019528212 0.11564541857 0.1004899539 0.084760703869 0.068509177536 0.051807558138 0.034747699236 0.017438220745 
1.3530511093e-15 
_area 1 100 double
0 0.00064551095093 0.0025572837761 0.0056659701349 0.0098696936578 0.0150469763 0.021065327566 0.02778517924 0.035062787587 
0.042755002293 0.050725046444 0.058845726013 0.066997122236 0.075059290365 0.082903898404 0.09038931083 0.09736156604 0.10366135134 
0.10913589586 0.11365432532 0.11712446101 0.11950809294 0.1208314448 0.12118879985 0.12073906167 0.11969533526 0.11830659646 
0.11683087205 0.11550330101 0.11450936507 0.11397370105 0.11395490426 0.11444375961 0.11537125428 0.11661445919 0.11801234405 
0.11939044374 0.12059315616 0.12151862617 0.12213930473 0.12247915902 0.1225538764 0.12235939751 0.12192244636 0.12133642821 
0.120769425 0.12046546134 0.12074059391 0.12195182934 0.12441246512 0.12828867886 0.13356984242 0.14010556905 0.14764122143 
0.15584235437 0.16432346604 0.17268481714 0.18055212183 0.18761227419 0.19363947383 0.19850850174 0.20219541217 0.20476914971 
0.20637838672 0.20723453621 0.20758183729 0.20763503668 0.20750138464 0.20716135846 0.20651043157 0.20540051681 0.2036649878 
0.20113672842 0.19766723713 0.19315046922 0.18754614736 0.18089090699 0.1732911525 0.16490159391 0.1558972561 0.14644546471 
0.13668416751 0.12671338944 0.11660235723 0.1064065581 0.096184331033 0.086005459213 0.075950711927 0.066106225325 0.05655816126 
0.047391643603 0.038694772801 0.030565301606 0.023115978845 0.016475218584 0.010781851918 0.0061749273298 0.0027808983366 0.00070085373934 
6.2941264604e-17 
