# vtk DataFile Version 5.1
vtk output
ASCII
DATASET POLYDATA
POINTS 100 float
0.255407 0.0384539 -0.642312 0.254936 0.0386276 -0.642299 0.253564 0.0390063 -0.642296 
0.251314 0.0395528 -0.642201 0.248224 0.0402069 -0.641856 0.244343 0.0408895 -0.641069 
0.239727 0.0415068 -0.63963 0.234438 0.0419561 -0.637345 0.228534 0.042132 -0.63405 
0.22207 0.0419322 -0.629636 0.21509 0.0412638 -0.624055 0.207629 0.0400492 -0.617324 
0.199708 0.0382303 -0.609523 0.191339 0.0357724 -0.600777 0.182526 0.0326673 -0.591241 
0.173269 0.0289338 -0.581077 0.163574 0.0246184 -0.570435 0.153453 0.0197936 -0.559429 
0.142939 0.0145552 -0.548127 0.132083 0.00901846 -0.536544 0.120963 0.00331343 -0.524642 
0.10968 -0.00242118 -0.512338 0.0983584 -0.00804425 -0.49952 0.0871365 -0.0134191 -0.486065 
0.0761577 -0.0184199 -0.471858 0.0655577 -0.0229386 -0.456814 0.0554506 -0.0268895 -0.440888 
0.045916 -0.0302141 -0.424087 0.0369873 -0.0328832 -0.406473 0.028644 -0.0348979 -0.388153 
0.0208091 -0.0362876 -0.369268 0.0133527 -0.0371074 -0.349977 0.00610165 -0.0374318 -0.330434 
-0.001145 -0.0373486 -0.310769 -0.00859526 -0.0369508 -0.291073 -0.016441 -0.0363287 -0.271381 
-0.0248339 -0.0355623 -0.251669 -0.0338634 -0.0347151 -0.231857 -0.0435392 -0.0338291 -0.211819 
-0.0537808 -0.0329235 -0.191398 -0.0644145 -0.0319946 -0.170429 -0.075181 -0.0310194 -0.14876 
-0.0857504 -0.0299612 -0.126273 -0.0957461 -0.0287766 -0.102908 -0.104773 -0.0274245 -0.0786694 
-0.112452 -0.0258746 -0.0536351 -0.118446 -0.0241146 -0.0279542 -0.122493 -0.0221565 -0.0018366 
-0.124427 -0.0200392 0.0244632 -0.124184 -0.0178293 0.0506664 -0.121815 -0.015617 0.0764927 
-0.117469 -0.0135104 0.101683 -0.11138 -0.0116262 0.12602 -0.103845 -0.0100792 0.149339 
-0.0951912 -0.00897096 0.171542 -0.0857496 -0.00837968 0.192599 -0.0758259 -0.00835103 0.212538 
-0.0656787 -0.00889236 0.231442 -0.055504 -0.00997036 0.249435 -0.0454288 -0.0115125 0.266659 
-0.0355134 -0.0134125 0.283266 -0.0257619 -0.0155391 0.299399 -0.0161385 -0.0177471 0.315183 
-0.00658768 -0.0198906 0.330714 0.00294529 -0.0218352 0.346056 0.0124958 -0.0234702 0.361246 
0.0220662 -0.0247173 0.37629 0.0316189 -0.0255371 0.391176 0.041076 -0.0259305 0.405877 
0.0503271 -0.0259376 0.42036 0.0592419 -0.0256311 0.434589 0.0676872 -0.0251083 0.448531 
0.0755452 -0.0244801 0.46216 0.0827297 -0.0238589 0.475452 0.0891988 -0.0233478 0.488387 
0.0949618 -0.0230302 0.500942 0.100079 -0.0229625 0.513094 0.104653 -0.0231698 0.524813 
0.108818 -0.0236447 0.536059 0.112719 -0.0243497 0.546788 0.116494 -0.0252224 0.556946 
0.120253 -0.0261829 0.56648 0.124065 -0.0271423 0.575337 0.127948 -0.0280119 0.58347 
0.131865 -0.0287116 0.590841 0.135728 -0.0291765 0.597431 0.139414 -0.0293629 0.603234 
0.142779 -0.0292501 0.608265 0.14568 -0.0288416 0.612555 0.147996 -0.0281634 0.616154 
0.149646 -0.0272605 0.619121 0.150605 -0.0261924 0.621525 0.150905 -0.0250283 0.623441 
0.150639 -0.0238415 0.624941 0.149951 -0.0227043 0.626093 0.149016 -0.0216844 0.62696 
0.148021 -0.0208406 0.627594 0.147147 -0.0202208 0.628037 0.146538 -0.0198602 0.628318 
0.146291 -0.0197796 0.628456 
LINES 2 100
OFFSETS vtktypeint64
0 100 
CONNECTIVITY vtktypeint64
0 1 2 3 4 5 6 7 8 
9 10 11 12 13 14 15 16 17 
18 19 20 21 22 23 24 25 26 
27 28 29 30 31 32 33 34 35 
36 37 38 39 40 41 42 43 44 
45 46 47 48 49 50 51 52 53 
54 55 56 57 58 59 60 61 62 
63 64 65 66 67 68 69 70 71 
72 73 74 75 76 77 78 79 80 
81 82 83 84 85 86 87 88 89 
90 91 92 93 94 95 96 97 98 
99 
POINT_DATA 100
FIELD FieldData 3
_theta 1 100 double
0 0.031733259127 0.063466518254 0.095199777382 0.12693303651 0.15866629564 0.19039955476 0.22213281389 0.25386607302 
0.28559933214 0.31733259127 0.3490658504 0.38079910953 0.41253236865 0.44426562778 0.47599888691 0.50773214603 0.53946540516 
0.57119866429 0.60293192342 0.63466518254 0.66639844167 0.6981317008 0.72986495992 0.76159821905 0.79333147818 0.82506473731 
0.85679799643 0.88853125556 0.92026451469 0.95199777382 0.98373103294 1.0154642921 1.0471975512 1.0789308103 1.1106640695 
1.1423973286 1.1741305877 1.2058638468 1.237597106 1.2693303651 1.3010636242 1.3327968833 1.3645301425 1.3962634016 
1.4279966607 1.4597299198 1.491463179 1.5231964381 1.5549296972 1.5866629564 1.6183962155 1.6501294746 1.6818627337 
1.7135959929 1.745329252 1.7770625111 1.8087957702 1.8405290294 1.8722622885 1.9039955476 1.9357288068 1.9674620659 
1.999195325 2.0309285841 2.0626618433 2.0943951024 2.1261283615 2.1578616206 2.1895948798 2.2213281389 2.253061398 
2.2847946572 2.3165279163 2.3482611754 2.3799944345 2.4117276937 2.4434609528 2.4751942119 2.506927471 2.5386607302 
2.5703939893 2.6021272484 2.6338605076 2.6655937667 2.6973270258 2.7290602849 2.7607935441 2.7925268032 2.8242600623 
2.8559933214 2.8877265806 2.9194598397 2.9511930988 2.982926358 3.0146596171 3.0463928762 3.0781261353 3.1098593945 
3.1415926536 
_radius 1 100 double
4.75098926e-16 0.015707010307 0.031102283658 0.04590362174 0.059885867644 0.072896270353 0.084857052191 0.095755514382 0.10562482925 
0.11452074948 0.12250016242 0.1296064523 0.13586427677 0.14128340567 0.14586872347 0.14963217214 0.15260258557 0.15483077246 
0.15638923101 0.15736782908 0.15786802891 0.15799832985 0.15787243353 0.15760960723 0.15733477533 0.15717514024 0.15725130164 
0.15766356483 0.15847696729 0.15970970931 0.1613284044 0.16325093665 0.16535554289 0.16749386996 0.16950580867 0.17123432338 
0.1725391629 0.1733091279 0.17347298521 0.17300876635 0.17195018833 0.17038780348 0.16846228586 0.16634957045 0.16424241188 
0.16233594728 0.16082079671 0.15987923091 0.15967691127 0.16034675815 0.16196753682 0.16454381109 0.16799506486 0.1721596707 
0.17681420389 0.18170289011 0.18656929284 0.19118358063 0.19536176017 0.19897597009 0.20195666324 0.20428848134 0.20600207513 
0.20716408162 0.20786693442 0.2082192799 0.20833680128 0.20833262226 0.20830652326 0.20833306288 0.20845009078 0.20865040691 
0.2088795768 0.20904154696 0.209011122 0.20865001829 0.20782246193 0.20640728419 0.20430525898 0.20144203237 0.19776792826 
0.19325613927 0.18790048258 0.18171324076 0.17472289135 0.16697105571 0.15850800237 0.14938658751 0.13965544642 0.12935316562 
0.11850547948 0.10712679632 0.095225775021 0.082813190967 0.06990982225 0.056552572627 0.042797906873 0.028722377979 0.014420442725 
7.6609530002e-16 
_area 1 100 double
0 0.00049334984096 0.001952847409 0.0043189512258 0.0074986326409 0.011372297676 0.015800213938 0.020627559552 0.025688396945 
0.030809525358 0.035815291126 0.040534449785 0.044810181117 0.048513891378 0.051561936235 0.053931887828 0.055672296064 0.05689832097 
0.057766536843 0.058429624752 0.058990908781 0.059488620212 0.059912432441 0.060233824408 0.060436642936 0.060539812412 0.060607299977 
0.060743270126 0.061073005026 0.061712987182 0.062737972883 0.064158535106 0.065919675073 0.067915970452 0.070007067902 0.0720280241 
0.073805096799 0.075182426096 0.076058758864 0.076426290461 0.076391529821 0.07615882338 0.075955775796 0.075916781228 0.076043702051 
0.076281777421 0.076562424964 0.076871848562 0.077323080907 0.078129496829 0.079528821281 0.081697337114 0.084701853023 0.088497867126 
0.092936336212 0.097766206915 0.10265498001 0.10724092042 0.11120031259 0.11430460075 0.11645114785 0.11766251512 0.11805987318 
0.11782406197 0.11715964465 0.116271493 0.11535162714 0.11456052798 0.11399173266 0.11365851014 0.11352544459 0.11352982421 
0.11358033197 0.11355632778 0.11331696615 0.11271710498 0.11162335758 0.10992482187 0.10753656682 0.1043979764 0.10047056385 
0.095739660595 0.090221678713 0.083974699717 0.077106893788 0.069776738682 0.062181675995 0.054536120697 0.047043563986 0.039870049191 
0.033127791962 0.026877040466 0.021147261017 0.015966018749 0.01137902969 0.0074545201828 0.004275816771 0.001928510593 0.00048655231658 
6.1804235094e-17 
