# vtk DataFile Version 5.1
vtk output
ASCII
DATASET POLYDATA
POINTS 100 float
0.15329 0.062059 -0.659477 0.153179 0.0621542 -0.659356 0.152922 0.0622759 -0.659017 
0.152527 0.0623906 -0.658384 0.152001 0.0624454 -0.657346 0.151351 0.0623717 -0.655768 
0.150575 0.0620904 -0.65351 0.149663 0.0615174 -0.650446 0.148593 0.0605702 -0.646482 
0.147324 0.0591739 -0.641564 0.1458 0.0572667 -0.63569 0.14395 0.0548049 -0.628905 
0.141691 0.0517659 -0.621294 0.138932 0.0481504 -0.612967 0.135583 0.0439827 -0.604044 
0.131559 0.0393094 -0.594635 0.126791 0.0341965 -0.584821 0.121232 0.0287261 -0.574644 
0.114864 0.0229914 -0.564094 0.107699 0.0170916 -0.553112 0.099784 0.0111275 -0.541591 
0.0911964 0.00519623 -0.529396 0.0820408 -0.000611851 -0.516373 0.0724415 -0.00621636 -0.502373 
0.062533 -0.0115484 -0.48727 0.0524507 -0.016551 -0.470977 0.0423197 -0.021179 -0.453459 
0.0322463 -0.0253975 -0.434737 0.0223107 -0.0291804 -0.414884 0.0125628 -0.0325088 -0.394023 
0.00302211 -0.0353693 -0.372306 -0.00631967 -0.0377527 -0.349902 -0.0154915 -0.0396541 -0.326975 
-0.0245337 -0.0410723 -0.303671 -0.0334862 -0.0420114 -0.280104 -0.0423769 -0.0424812 -0.256347 
-0.0512098 -0.0424993 -0.232432 -0.0599562 -0.042092 -0.208358 -0.0685484 -0.041295 -0.184097 
-0.0768782 -0.0401537 -0.159611 -0.0847997 -0.0387222 -0.134864 -0.0921367 -0.0370615 -0.109844 
-0.0986943 -0.0352367 -0.0845671 -0.104273 -0.0333136 -0.0590871 -0.108686 -0.0313544 -0.0334978 
-0.111774 -0.0294144 -0.00792701 -0.113419 -0.027538 0.0174736 -0.113558 -0.0257563 0.0425419 
-0.112189 -0.0240856 0.0671216 -0.109368 -0.0225273 0.0910772 -0.105215 -0.0210697 0.114307 
-0.0998932 -0.0196903 0.136752 -0.0936061 -0.0183602 0.158398 -0.0865755 -0.0170487 0.179274 
-0.079026 -0.0157282 0.199446 -0.0711686 -0.0143784 0.219 -0.0631857 -0.0129907 0.238033 
-0.0552203 -0.01157 0.256636 -0.0473695 -0.0101358 0.274884 -0.039683 -0.00872146 0.292821 
-0.0321669 -0.00737157 0.310463 -0.0247912 -0.00613846 0.327794 -0.0175009 -0.00507738 0.344774 
-0.0102282 -0.0042415 0.361349 -0.00290609 -0.003677 0.377458 0.00452098 -0.00341884 0.393053 
0.0120876 -0.00348771 0.408104 0.0198023 -0.00388829 0.422607 0.0276458 -0.00460916 0.436588 
0.0355736 -0.00562414 0.450098 0.0435214 -0.00689485 0.463212 0.0514129 -0.00837419 0.47601 
0.0591693 -0.0100102 0.488573 0.0667176 -0.01175 0.500963 0.0739984 -0.0135428 0.513217 
0.0809714 -0.0153428 0.525338 0.0876169 -0.0171104 0.537292 0.0939355 -0.0188123 0.549012 
0.0999443 -0.0204215 0.560405 0.105671 -0.0219155 0.571363 0.111146 -0.0232746 0.581779 
0.116396 -0.0244806 0.59156 0.121438 -0.0255154 0.60064 0.126274 -0.0263604 0.608988 
0.130888 -0.0269971 0.616614 0.13525 -0.0274084 0.623567 0.139317 -0.0275806 0.629927 
0.14304 -0.0275061 0.635795 0.146371 -0.0271862 0.641275 0.14927 -0.0266334 0.646461 
0.151711 -0.0258732 0.651423 0.153688 -0.0249447 0.656193 0.15522 -0.0238995 0.660761 
0.156344 -0.0227997 0.665075 0.157116 -0.0217143 0.669045 0.157604 -0.0207144 0.672554 
0.157881 -0.0198684 0.675474 0.158015 -0.019236 0.677683 0.158062 -0.0188638 0.679077 
0.158057 -0.0187811 0.679591 
LINES 2 100
OFFSETS vtktypeint64
0 100 
CONNECTIVITY vtktypeint64
0 1 2 3 4 5 6 7 8 
9 10 11 12 13 14 15 16 17 
18 19 20 21 22 23 24 25 26 
27 28 29 30 31 32 33 34 35 
36 37 38 39 40 41 42 43 44 
45 46 47 48 49 50 51 52 53 
54 55 56 57 58 59 60 61 62 
63 64 65 66 67 68 69 70 71 
72 73 74 75 76 77 78 79 80 
81 82 83 84 85 86 87 88 89 
90 91 92 93 94 95 96 97 98 
99 
POINT_DATA 100
FIELD FieldData 3
_theta 1 100 double
0 0.031733259127 0.063466518254 0.095199777382 0.12693303651 0.15866629564 0.19039955476 0.22213281389 0.25386607302 
0.28559933214 0.31733259127 0.3490658504 0.38079910953 0.41253236865 0.44426562778 0.47599888691 0.50773214603 0.53946540516 
0.57119866429 0.60293192342 0.63466518254 0.66639844167 0.6981317008 0.72986495992 0.76159821905 0.79333147818 0.82506473731 
0.85679799643 0.88853125556 0.92026451469 0.95199777382 0.98373103294 1.0154642921 1.0471975512 1.0789308103 1.1106640695 
1.1423973286 1.1741305877 1.2058638468 1.237597106 1.2693303651 1.3010636242 1.3327968833 1.3645301425 1.3962634016 
1.4279966607 1.4597299198 1.491463179 1.5231964381 1.5549296972 1.5866629564 1.6183962155 1.6501294746 1.6818627337 
1.7135959929 1.745329252 1.7770625111 1.8087957702 1.8405290294 1.8722622885 1.9039955476 1.9357288068 1.9674620659 
1.999195325 2.0309285841 2.0626618433 2.0943951024 2.1261283615 2.1578616206 2.1895948798 2.2213281389 2.253061398 
2.2847946572 2.3165279163 2.3482611754 2.3799944345 2.4117276937 2.4434609528 2.4751942119 2.506927471 2.5386607302 
2.5703939893 2.6021272484 2.6338605076 2.6655937667 2.6973270258 2.7290602849 2.7607935441 2.7925268032 2.8242600623 
2.8559933214 2.8877265806 2.9194598397 2.9511930988 2.982926358 3.0146596171 3.0463928762 3.0781261353 3.1098593945 
3.1415926536 
_radius 1 100 double
1.2445404813e-15 0.015317179407 0.030554979496 0.045633065535 0.060475630267 0.075013060425 0.089182637384 0.10292784848 0.11619601354 
0.12893425254 0.14108430174 0.15257721288 0.16332937295 0.17324139042 0.18220109549 0.19009120223 0.1968012173 0.20224218591 
0.20636208973 0.20915933898 0.21069190858 0.21108022594 0.21050281615 0.20918479171 0.20738035691 0.2053513894 0.20334469692 
0.20157064135 0.20018552643 0.19927963236 0.19887220721 0.19891411495 0.19929810759 0.19987582559 0.20047977304 0.20094783211 
0.2011474354 0.20099630387 0.20047677876 0.19964144946 0.1986091425 0.19755219841 0.19667770791 0.19620612534 0.19634994059 
0.19729356098 0.19917476352 0.20206875246 0.20597703373 0.21082352375 0.21645916358 0.22267463014 0.22921944634 0.23582509629 
0.2422293713 0.24819901179 0.25354795216 0.25814920008 0.26193940623 0.26491622866 0.26712946244 0.26866750022 0.26964102256 
0.2701659535 0.27034771722 0.27026869143 0.26998038554 0.26950118144 0.2688194896 0.26790112325 0.26669892493 0.26516243277 
0.26324563002 0.26091139576 0.25813203691 0.25488620193 0.25115341654 0.2469081144 0.24211507694 0.23672766377 0.23068938487 
0.22393855439 0.21641516648 0.20806880427 0.19886632026 0.18879817282 0.17788261521 0.16616731424 0.15372830178 0.14066635227 
0.12710096909 0.11316227525 0.09898133981 0.084679812498 0.070360061863 0.056097167044 0.041934012207 0.02788037831 0.01391638571 
1.4885362212e-15 
_area 1 100 double
0 0.00053544092237 0.002139374878 0.0048020109011 0.0084993404042 0.013184969499 0.018784049666 0.025191856868 0.032277601297 
0.0398918682 0.047874504151 0.056059388004 0.064273759007 0.072332513099 0.080031122912 0.087142915723 0.093426039881 0.098642481855 
0.10258710256 0.10512058751 0.10619803817 0.10588545382 0.1043592559 0.1018881022 0.098800278459 0.095444291841 0.092155920795 
0.089243606099 0.086984877287 0.085610248141 0.085258222882 0.085928553238 0.087484849017 0.08968709658 0.092231896889 0.094799981502 
0.097111781458 0.098982545838 0.10035783433 0.10130659983 0.10197907033 0.10257677988 0.10335380731 0.10460958621 0.10656546737 
0.10922967354 0.11255976122 0.11659652618 0.12143739071 0.12717486138 0.13384288969 0.14138061461 0.14961609559 0.1582710807 
0.16698686111 0.17536741514 0.1830313045 0.18966134618 0.19504188567 0.19907714176 0.20178939642 0.20330081206 0.20380543182 
0.20353675568 0.20272985309 0.20157099559 0.20014418278 0.19841513462 0.19627120027 0.19358355328 0.1902569824 0.18625548317 
0.18160592507 0.17638622907 0.17070143913 0.16465056275 0.15829352168 0.15163449318 0.14463198241 0.13722837025 0.12938072402 
0.12107932 0.11235189801 0.10325954325 0.093890821106 0.084356775294 0.074785530144 0.065314874481 0.056083593198 0.047224317753 
0.038860090215 0.031103954002 0.024058474309 0.017813041713 0.012440104922 0.00799318027 0.0045081465881 0.0020070124543 0.0005022232209 
5.9690442172e-17 
