# vtk DataFile Version 5.1
vtk output
ASCII
DATASET POLYDATA
POINTS 100 float
0.130539 0.0264133 -0.677236 0.130337 0.0265175 -0.677179 0.129792 0.0266392 -0.677026 
0.12892 0.0267645 -0.676696 0.127747 0.0268703 -0.676066 0.1263 0.0269243 -0.674979 
0.124607 0.0268855 -0.673263 0.122687 0.0267045 -0.670749 0.120548 0.0263256 -0.667286 
0.11818 0.0256891 -0.662755 0.115558 0.0247339 -0.65708 0.112638 0.0234015 -0.65023 
0.10936 0.0216407 -0.642221 0.105656 0.0194114 -0.633109 0.101451 0.0166888 -0.622978 
0.0966756 0.0134673 -0.611932 0.091271 0.00976259 -0.600077 0.0851971 0.00561272 -0.587512 
0.0784386 0.00107754 -0.574318 0.0710092 -0.00376351 -0.560552 0.0629527 -0.0088152 -0.546244 
0.0543412 -0.0139715 -0.531402 0.0452714 -0.0191216 -0.516011 0.0358574 -0.0241558 -0.500047 
0.0262221 -0.0289717 -0.483479 0.0164877 -0.0334796 -0.466283 0.00676663 -0.037606 -0.448446 
-0.00284658 -0.0412966 -0.42997 -0.0122815 -0.0445171 -0.41087 -0.0214946 -0.047252 -0.39118 
-0.0304692 -0.0495028 -0.370938 -0.0392117 -0.0512845 -0.350187 -0.0477449 -0.0526212 -0.328967 
-0.056099 -0.0535425 -0.307306 -0.0643016 -0.054079 -0.285221 -0.0723666 -0.0542596 -0.262711 
-0.0802856 -0.054109 -0.239762 -0.0880203 -0.0536466 -0.216354 -0.0954988 -0.0528867 -0.192463 
-0.102616 -0.0518395 -0.168073 -0.109239 -0.0505129 -0.143184 -0.11521 -0.0489147 -0.117821 
-0.120367 -0.0470548 -0.0920385 -0.124546 -0.0449469 -0.065921 -0.127603 -0.04261 -0.0395848 
-0.129423 -0.040069 -0.0131707 -0.129934 -0.037354 0.013164 -0.12911 -0.0345 0.0392562 
-0.126978 -0.0315449 0.0649486 -0.123616 -0.0285277 0.0901014 -0.119146 -0.025487 0.114602 
-0.113725 -0.0224595 0.13837 -0.107531 -0.0194784 0.161363 -0.100751 -0.0165737 0.183574 
-0.0935657 -0.0137717 0.205028 -0.0861349 -0.0110966 0.225773 -0.0785908 -0.0085708 0.24587 
-0.07103 -0.00621689 0.265388 -0.0635118 -0.00405855 0.284391 -0.056061 -0.00212145 0.302929 
-0.0486739 -0.000433453 0.321039 -0.0413275 0.000975872 0.33874 -0.0339904 0.00207654 0.356034 
-0.0266333 0.00284011 0.372914 -0.0192394 0.00324212 0.389365 -0.0118108 0.00326474 0.405374 
-0.0043735 0.00289938 0.420936 0.00302313 0.00214882 0.436055 0.0103093 0.00102866 0.450749 
0.0174017 -0.000432212 0.465047 0.0242118 -0.00219216 0.478989 0.0306559 -0.00419845 0.492615 
0.0366644 -0.00638986 0.505963 0.0421896 -0.00869998 0.51906 0.0472107 -0.0110611 0.531916 
0.0517352 -0.0134079 0.54452 0.0557977 -0.0156815 0.556837 0.0594537 -0.0178321 0.568813 
0.0627724 -0.0198214 0.580376 0.0658266 -0.0216241 0.591447 0.0686834 -0.0232278 0.601942 
0.0713946 -0.0246324 0.61179 0.0739908 -0.0258485 0.620932 0.0764772 -0.0268949 0.629334 
0.078834 -0.0277962 0.636988 0.0810198 -0.0285793 0.643912 0.0829789 -0.0292718 0.650149 
0.08465 -0.0298983 0.655757 0.0859767 -0.0304798 0.660807 0.0869174 -0.0310315 0.665369 
0.0874537 -0.0315629 0.669505 0.0875961 -0.0320775 0.673263 0.0873856 -0.0325733 0.67667 
0.086892 -0.0330442 0.679732 0.0862082 -0.0334806 0.682434 0.085441 -0.0338717 0.684746 
0.0847004 -0.034206 0.686625 0.0840875 -0.0344733 0.688029 0.0836837 -0.0346654 0.688919 
0.0835412 -0.034777 0.689268 
LINES 2 100
OFFSETS vtktypeint64
0 100 
CONNECTIVITY vtktypeint64
0 1 2 3 4 5 6 7 8 
9 10 11 12 13 14 15 16 17 
18 19 20 21 22 23 24 25 26 
27 28 29 30 31 32 33 34 35 
36 37 38 39 40 41 42 43 44 
45 46 47 48 49 50 51 52 53 
54 55 56 57 58 59 60 61 62 
63 64 65 66 67 68 69 70 71 
72 73 74 75 76 77 78 79 80 
81 82 83 84 85 86 87 88 89 
90 91 92 93 94 95 96 97 98 
99 
POINT_DATA 100
FIELD FieldData 3
_theta 1 100 double
0 0.031733259127 0.063466518254 0.095199777382 0.12693303651 0.15866629564 0.19039955476 0.22213281389 0.25386607302 
0.28559933214 0.31733259127 0.3490658504 0.38079910953 0.41253236865 0.44426562778 0.47599888691 0.50773214603 0.53946540516 
0.57119866429 0.60293192342 0.63466518254 0.66639844167 0.6981317008 0.72986495992 0.76159821905 0.79333147818 0.82506473731 
0.85679799643 0.88853125556 0.92026451469 0.95199777382 0.98373103294 1.0154642921 1.0471975512 1.0789308103 1.1106640695 
1.1423973286 1.1741305877 1.2058638468 1.237597106 1.2693303651 1.3010636242 1.3327968833 1.3645301425 1.3962634016 
1.4279966607 1.4597299198 1.491463179 1.5231964381 1.5549296972 1.5866629564 1.6183962155 1.6501294746 1.6818627337 
1.7135959929 1.745329252 1.7770625111 1.8087957702 1.8405290294 1.8722622885 1.9039955476 1.9357288068 1.9674620659 
1.999195325 2.0309285841 2.0626618433 2.0943951024 2.1261283615 2.1578616206 2.1895948798 2.2213281389 2.253061398 
2.2847946572 2.3165279163 2.3482611754 2.3799944345 2.4117276937 2.4434609528 2.4751942119 2.506927471 2.5386607302 
2.5703939893 2.6021272484 2.6338605076 2.6655937667 2.6973270258 2.7290602849 2.7607935441 2.7925268032 2.8242600623 
2.8559933214 2.8877265806 2.9194598397 2.9511930988 2.982926358 3.0146596171 3.0463928762 3.0781261353 3.1098593945 
3.1415926536 
_radius 1 100 double
1.0054035848e-15 0.015582501326 0.031036112939 0.046230535843 0.061044497515 0.075369137229 0.089110438599 0.10219094738 0.11455078502 
0.1261474879 0.1369539157 0.14695376099 0.15613505294 0.16448309826 0.17197501736 0.17857802225 0.18425275248 0.18896160033 
0.19268051317 0.19541175557 0.19719480581 0.19811292098 0.1982937124 0.19790309122 0.19713301159 0.19618445487 0.19524794674 
0.1944844061 0.19400913987 0.19388131303 0.1941003977 0.19461013115 0.19530948541 0.19606913292 0.19675108278 0.19722885351 
0.19740583478 0.19723008538 0.19670425087 0.19588938663 0.19490163943 0.19390163467 0.19307817723 0.1926295685 0.19274596016 
0.19359420549 0.19530425117 0.19795566551 0.20156500154 0.2060773694 0.21136630251 0.21724398763 0.22348062211 0.22982910813 
0.23605048159 0.24193610019 0.24732389689 0.25210735543 0.25623704382 0.25971549444 0.26258692251 0.26492368562 0.26681147726 
0.26833505294 0.26956591854 0.27055300952 0.27131704575 0.27184894766 0.27211234868 0.27204975328 0.27159130128 0.27066457472 
0.2692036394 0.26715568821 0.26448423204 0.26116861144 0.25720045368 0.25257835805 0.24730239516 0.24136988297 0.23477339878 
0.22750126672 0.21954006404 0.21087823608 0.20150981662 0.19143748392 0.18067458765 0.16924614935 0.15718900798 0.14455122069 
0.13139065952 0.11777266533 0.10376675969 0.089442736673 0.074866775654 0.060098335535 0.045188425783 0.030179476171 0.015106626251 
9.9977666801e-16 
_area 1 100 double
0 0.00059407717508 0.0023619717206 0.0052642653712 0.0092431533809 0.014224567003 0.020112714312 0.026781341855 0.034068556249 
0.041779255054 0.04969485564 0.057586964916 0.065230962131 0.072416738938 0.078955849857 0.084686066514 0.08947529569 0.093226791389 
0.095886612714 0.097452714964 0.097983400751 0.09760163468 0.096491569949 0.094885049603 0.093038776414 0.091206356021 0.089611577722 
0.088428438455 0.087770412001 0.087688538814 0.088175644062 0.089173542834 0.090582690893 0.092268804566 0.0940627231 0.095787780125 
0.097289606267 0.098453840861 0.099229498563 0.099641436278 0.099783334703 0.099794556007 0.09983182979 0.10005098181 0.10060578575 
0.10165742488 0.10337903155 0.10594689079 0.10952952772 0.11426603758 0.12020295784 0.1272317201 0.13510258979 0.14348418973 
0.15201235307 0.16032559097 0.16809707993 0.17506373514 0.18104780981 0.18596695944 0.18983168494 0.19273195052 0.19481613984 
0.19626516663 0.19726261551 0.19795909663 0.19843273581 0.19866434173 0.1985486947 0.19793415729 0.1966663059 0.19462180024 
0.19172829088 0.1879688646 0.18337193856 0.17799159203 0.17188674176 0.16510705503 0.15768906263 0.14966150809 0.14105689792 
0.13192497281 0.12234270893 0.11241631054 0.10227400266 0.092052422838 0.081882151671 0.071878374658 0.062140264085 0.052758060258 
0.043822752918 0.035432671085 0.027694187716 0.020717377122 0.014609405376 0.0094682782297 0.0053782770377 0.0024071277611 0.00060431603129 
4.6860973296e-17 
