# vtk DataFile Version 5.1
vtk output
ASCII
DATASET POLYDATA
POINTS 100 float
0.0495961 -0.0205421 0.629112 0.0494955 -0.020413 0.629055 0.049182 -0.0201604 0.629 
0.0486778 -0.0197916 0.628878 0.0480178 -0.0193183 0.628584 0.0472476 -0.0187564 0.627985 
0.0464199 -0.0181251 0.626934 0.0455902 -0.0174455 0.625281 0.0448133 -0.0167402 0.622893 
0.0441375 -0.0160315 0.619659 0.0436011 -0.0153396 0.615503 0.043228 -0.0146821 0.610389 
0.0430248 -0.0140718 0.60432 0.0429785 -0.0135163 0.597337 0.0430567 -0.0130172 0.589512 
0.0432081 -0.0125698 0.580937 0.0433655 -0.0121644 0.571716 0.0434503 -0.0117866 0.561955 
0.0433772 -0.0114192 0.551748 0.0430612 -0.0110443 0.541178 0.0424235 -0.0106448 0.530302 
0.0413974 -0.0102069 0.519159 0.0399334 -0.00972139 0.507766 0.0380027 -0.00918489 0.496122 
0.0355987 -0.00860025 0.484215 0.032736 -0.00797641 0.472027 0.0294479 -0.0073276 0.459542 
0.0257816 -0.00667202 0.446748 0.0217926 -0.00603027 0.433641 0.0175374 -0.00542373 0.420227 
0.0130672 -0.0048732 0.406523 0.00842205 -0.00439788 0.392548 0.00362683 -0.00401503 0.378326 
-0.00131082 -0.00374019 0.363878 -0.0063999 -0.00358795 0.349217 -0.0116628 -0.00357308 0.334346 
-0.01713 -0.00371178 0.319253 -0.0228322 -0.00402269 0.303912 -0.0287926 -0.00452743 0.288285 
-0.0350181 -0.0052503 0.272319 -0.0414915 -0.00621711 0.25596 -0.0481662 -0.00745295 0.239148 
-0.054963 -0.00897928 0.221829 -0.0617696 -0.0108104 0.203956 -0.068445 -0.0129496 0.185495 
-0.074825 -0.0153864 0.166431 -0.080732 -0.0180936 0.146762 -0.0859862 -0.0210266 0.126506 
-0.0904171 -0.0241242 0.1057 -0.0938755 -0.0273104 0.0843942 -0.0962433 -0.0304994 0.0626509 
-0.0974417 -0.0336007 0.0405434 -0.0974354 -0.0365259 0.0181516 -0.0962335 -0.0391951 -0.00444024 
-0.093887 -0.0415439 -0.027146 -0.0904825 -0.0435278 -0.0498796 -0.0861336 -0.0451256 -0.0725562 
-0.0809699 -0.0463403 -0.0950945 -0.0751262 -0.0471974 -0.117417 -0.0687314 -0.0477407 -0.139454 
-0.0618996 -0.0480264 -0.161142 -0.0547225 -0.0481156 -0.182427 -0.0472663 -0.0480664 -0.203266 
-0.0395707 -0.0479263 -0.223629 -0.0316515 -0.0477264 -0.243496 -0.023506 -0.0474769 -0.26286 
-0.0151202 -0.0471659 -0.281727 -0.00647727 -0.0467608 -0.300108 0.00243354 -0.0462123 -0.31802 
0.0116096 -0.0454604 -0.335481 0.0210284 -0.0444423 -0.352506 0.0306444 -0.0431002 -0.369103 
0.0403878 -0.0413893 -0.385266 0.0501661 -0.0392838 -0.40098 0.0598695 -0.0367805 -0.416215 
0.0693764 -0.0339003 -0.430928 0.0785621 -0.0306862 -0.445069 0.087307 -0.0271988 -0.458582 
0.0955049 -0.0235101 -0.471415 0.10307 -0.0196956 -0.483522 0.109943 -0.0158264 -0.49487 
0.116092 -0.0119621 -0.505445 0.121515 -0.00814545 -0.515253 0.12624 -0.00439991 -0.524322 
0.130317 -0.000729435 -0.532698 0.133813 0.00287828 -0.540443 0.136807 0.00644623 -0.547628 
0.139384 0.0100008 -0.554321 0.141622 0.0135633 -0.560587 0.143595 0.0171426 -0.566473 
0.145358 0.0207281 -0.572008 0.146952 0.024286 -0.577194 0.148402 0.0277576 -0.582007 
0.149714 0.0310623 -0.5864 0.150881 0.034102 -0.590308 0.151884 0.0367693 -0.593653 
0.1527 0.0389574 -0.596353 0.153305 0.0405696 -0.598336 0.153678 0.0415295 -0.599539 
0.153805 0.0417882 -0.599925 
LINES 2 100
OFFSETS vtktypeint64
0 100 
CONNECTIVITY vtktypeint64
0 1 2 3 4 5 6 7 8 
9 10 11 12 13 14 15 16 17 
18 19 20 21 22 23 24 25 26 
27 28 29 30 31 32 33 34 35 
36 37 38 39 40 41 42 43 44 
45 46 47 48 49 50 51 52 53 
54 55 56 57 58 59 60 61 62 
63 64 65 66 67 68 69 70 71 
72 73 74 75 76 77 78 79 80 
81 82 83 84 85 86 87 88 89 
90 91 92 93 94 95 96 97 98 
99 
POINT_DATA 100
FIELD FieldData 3
_theta 1 100 double
0 0.031733259127 0.063466518254 0.095199777382 0.12693303651 0.15866629564 0.19039955476 0.22213281389 0.25386607302 
0.28559933214 0.31733259127 0.3490658504 0.38079910953 0.41253236865 0.44426562778 0.47599888691 0.50773214603 0.53946540516 
0.57119866429 0.60293192342 0.63466518254 0.66639844167 0.6981317008 0.72986495992 0.76159821905 0.79333147818 0.82506473731 
0.85679799643 0.88853125556 0.92026451469 0.95199777382 0.98373103294 1.0154642921 1.0471975512 1.0789308103 1.1106640695 
1.1423973286 1.1741305877 1.2058638468 1.237597106 1.2693303651 1.3010636242 1.3327968833 1.3645301425 1.3962634016 
1.4279966607 1.4597299198 1.491463179 1.5231964381 1.5549296972 1.5866629564 1.6183962155 1.6501294746 1.6818627337 
1.7135959929 1.745329252 1.7770625111 1.8087957702 1.8405290294 1.8722622885 1.9039955476 1.9357288068 1.9674620659 
1.999195325 2.0309285841 2.0626618433 2.0943951024 2.1261283615 2.1578616206 2.1895948798 2.2213281389 2.253061398 
2.2847946572 2.3165279163 2.3482611754 2.3799944345 2.4117276937 2.4434609528 2.4751942119 2.506927471 2.5386607302 
2.5703939893 2.6021272484 2.6338605076 2.6655937667 2.6973270258 2.7290602849 2.7607935441 2.7925268032 2.8242600623 
2.8559933214 2.8877265806 2.9194598397 2.9511930988 2.982926358 3.0146596171 3.0463928762 3.0781261353 3.1098593945 
3.1415926536 
_radius 1 100 double
3.3567683687e-16 0.013731716309 0.027423047356 0.041033876207 0.054518754702 0.067824767749 0.080890306983 0.093645290642 0.10601322714 
0.1179151798 0.12927525343 0.14002683278 0.15011857488 0.1595191457 0.16821988038 0.17623488082 0.18359848026 0.19036044442 
0.19657968089 0.20231750869 0.207631606 0.21257154445 0.21717635714 0.2214740042 0.2254820948 0.22920898662 0.23265450471 
0.2358099455 0.2386575819 0.24117032499 0.24331232414 0.24504102045 0.24631061649 0.24707635436 0.24729869173 0.24694656741 
0.24599937652 0.24444781892 0.24229423064 0.23955321166 0.23625324778 0.23243958008 0.22817788085 0.22355754722 0.21869290423 
0.21372059228 0.20879205161 0.2040612681 0.19966955354 0.19573062843 0.19231999094 0.18947181653 0.18718426181 0.18543090991 
0.18417382306 0.18337343759 0.18299222621 0.18299172476 0.18332526888 0.18393082217 0.18472861127 0.18562621861 0.18653012649 
0.18735969095 0.18805882889 0.18860211681 0.18899423392 0.18926366845 0.18945283658 0.18960706493 0.18976434768 0.18994684579 
0.19015436171 0.19035982947 0.19050704138 0.19051100638 0.19026126679 0.18962819423 0.18847184946 0.18665255087 0.18404197424 
0.18053350068 0.17605066753 0.17055289679 0.16403806348 0.15654181422 0.14813379776 0.13891113357 0.12898959073 0.11849316046 
0.10754303564 0.096247411997 0.08469382648 0.072945667037 0.061043778221 0.04901275454 0.036869984191 0.024634501349 0.012332802557 
1.0518653647e-15 
_area 1 100 double
0 0.0005212976066 0.0020754699825 0.0046324174209 0.0081392352086 0.01251740996 0.017661292511 0.023439737027 0.029702528409 
0.036292212816 0.043060069688 0.049882533413 0.056672602786 0.063381682012 0.069991703498 0.076502158986 0.082917080658 0.089233831702 
0.09543439443 0.10148186444 0.1073250802 0.11291039968 0.11819558569 0.12316031972 0.12781031074 0.13217464748 0.13629718466 
0.14022250381 0.14397731782 0.14755050411 0.15087798907 0.15384362424 0.15630828026 0.15814447361 0.1592591303 0.15960866402 
0.15914288593 0.15779900139 0.15555865666 0.152464176 0.14859331664 0.14403710241 0.13889789639 0.13330136438 0.12740792593 
0.12141210035 0.11552659182 0.10995636895 0.10487148608 0.10038373844 0.096526797109 0.093246456284 0.090423765653 0.08793278097 
0.085686163841 0.083633993835 0.081761165369 0.080099594017 0.078698195661 0.077613898862 0.076882112447 0.076476691958 0.076299032137 
0.076222473166 0.076156320835 0.076072570275 0.075996847205 0.075986161972 0.076108693782 0.076432079923 0.077015389438 0.077956640151 
0.079205742562 0.080648108387 0.082181249055 0.083687036309 0.08503204964 0.086067476781 0.086631134319 0.086555080557 0.08568011429 
0.083874884401 0.081055012582 0.077197908285 0.072350744533 0.066630627815 0.060216856671 0.053335785365 0.046239572281 0.039181064927 
0.03238826534 0.02604320164 0.020271036564 0.015144113469 0.01070036924 0.0069677394796 0.0039823998042 0.0017930721476 0.00045208742432 
6.7227511483e-17 
