# vtk DataFile Version 5.1
vtk output
ASCII
DATASET POLYDATA
POINTS 100 float
0.105429 0.0674453 -0.678677 0.105175 0.0672213 -0.678906 0.104459 0.0667447 -0.67949 
0.103329 0.0660093 -0.680285 0.101865 0.0650039 -0.68107 0.100159 0.0637131 -0.681569 
0.0983093 0.0621179 -0.681488 0.0964074 0.0601958 -0.680542 0.0945232 0.0579229 -0.678487 
0.0926967 0.0552744 -0.675144 0.0909298 0.0522269 -0.670415 0.0891836 0.0487603 -0.664287 
0.0873795 0.0448599 -0.656829 0.085405 0.0405186 -0.648172 0.0831233 0.0357393 -0.63849 
0.0803864 0.0305362 -0.627975 0.0770494 0.0249363 -0.616806 0.0729856 0.0189806 -0.605127 
0.0681 0.0127233 -0.593029 0.0623402 0.00623158 -0.580544 0.0557039 -0.00041569 -0.56764 
0.0482406 -0.00713036 -0.554231 0.0400498 -0.0138174 -0.540196 0.0312733 -0.0203777 -0.525399 
0.0220841 -0.0267117 -0.50971 0.0126723 -0.0327219 -0.493029 0.0032292 -0.0383164 -0.475299 
-0.00606788 -0.0434119 -0.456521 -0.0150693 -0.0479354 -0.436752 -0.0236634 -0.0518275 -0.4161 
-0.031783 -0.0550429 -0.394711 -0.0394063 -0.0575525 -0.372749 -0.0465529 -0.0593438 -0.350378 
-0.0532763 -0.0604213 -0.327739 -0.0596511 -0.0608063 -0.304934 -0.0657595 -0.0605364 -0.282017 
-0.0716759 -0.0596638 -0.258987 -0.0774537 -0.058254 -0.235797 -0.0831134 -0.0563831 -0.212362 
-0.0886357 -0.0541347 -0.188575 -0.0939586 -0.0515968 -0.164333 -0.0989795 -0.0488579 -0.139551 
-0.103563 -0.0460026 -0.114182 -0.10755 -0.0431085 -0.0882319 -0.110776 -0.040242 -0.0617616 
-0.113082 -0.0374557 -0.0348888 -0.114332 -0.0347867 -0.00777763 -0.114426 -0.0322554 0.0193755 
-0.113309 -0.0298663 0.0463605 -0.110978 -0.0276098 0.0729741 -0.107481 -0.0254648 0.0990379 
-0.102913 -0.0234032 0.124414 -0.0974093 -0.0213941 0.149016 -0.0911296 -0.019409 0.172807 
-0.0842467 -0.0174257 0.195802 -0.0769307 -0.0154327 0.218054 -0.0693356 -0.0134317 0.239641 
-0.0615883 -0.0114385 0.260652 -0.0537809 -0.00948308 0.281164 -0.0459674 -0.00760745 0.301239 
-0.0381653 -0.00586218 0.320906 -0.0303603 -0.00430207 0.340163 -0.0225158 -0.00298101 0.358974 
-0.014583 -0.00194684 0.377285 -0.00651315 -0.00123659 0.395026 0.00173144 -0.000872741 0.412133 
0.0101679 -0.000860821 0.428557 0.0187866 -0.00118859 0.444277 0.0275474 -0.00182691 0.459306 
0.0363814 -0.0027322 0.473697 0.0451947 -0.00385009 0.487536 0.0538755 -0.00512006 0.500934 
0.062304 -0.00648032 0.514016 0.0703624 -0.00787254 0.526903 0.0779445 -0.00924593 0.539698 
0.0849653 -0.0105603 0.552471 0.0913662 -0.0117875 0.56525 0.0971196 -0.012912 0.578013 
0.102229 -0.0139296 0.590693 0.106726 -0.014845 0.603179 0.110667 -0.0156695 0.615328 
0.114124 -0.016417 0.626981 0.11718 -0.0171014 0.637977 0.119917 -0.0177339 0.64817 
0.122413 -0.0183211 0.657441 0.124734 -0.0188643 0.665709 0.126931 -0.0193599 0.672934 
0.129038 -0.0198006 0.67912 0.131071 -0.0201771 0.684313 0.133032 -0.0204806 0.688589 
0.134908 -0.0207046 0.692044 0.136681 -0.020847 0.694789 0.138325 -0.020911 0.696935 
0.139813 -0.0209057 0.698586 0.14112 -0.0208448 0.699833 0.142222 -0.0207459 0.70075 
0.143102 -0.0206279 0.701394 0.143744 -0.0205088 0.701806 0.144141 -0.0204036 0.702013 
0.144285 -0.0203218 0.702031 
LINES 2 100
OFFSETS vtktypeint64
0 100 
CONNECTIVITY vtktypeint64
0 1 2 3 4 5 6 7 8 
9 10 11 12 13 14 15 16 17 
18 19 20 21 22 23 24 25 26 
27 28 29 30 31 32 33 34 35 
36 37 38 39 40 41 42 43 44 
45 46 47 48 49 50 51 52 53 
54 55 56 57 58 59 60 61 62 
63 64 65 66 67 68 69 70 71 
72 73 74 75 76 77 78 79 80 
81 82 83 84 85 86 87 88 89 
90 91 92 93 94 95 96 97 98 
99 
POINT_DATA 100
FIELD FieldData 3
_theta 1 100 double
0 0.031733259127 0.063466518254 0.095199777382 0.12693303651 0.15866629564 0.19039955476 0.22213281389 0.25386607302 
0.28559933214 0.31733259127 0.3490658504 0.38079910953 0.41253236865 0.44426562778 0.47599888691 0.50773214603 0.53946540516 
0.57119866429 0.60293192342 0.63466518254 0.66639844167 0.6981317008 0.72986495992 0.76159821905 0.79333147818 0.82506473731 
0.85679799643 0.88853125556 0.92026451469 0.95199777382 0.98373103294 1.0154642921 1.0471975512 1.0789308103 1.1106640695 
1.1423973286 1.1741305877 1.2058638468 1.237597106 1.2693303651 1.3010636242 1.3327968833 1.3645301425 1.3962634016 
1.4279966607 1.4597299198 1.491463179 1.5231964381 1.5549296972 1.5866629564 1.6183962155 1.6501294746 1.6818627337 
1.7135959929 1.745329252 1.7770625111 1.8087957702 1.8405290294 1.8722622885 1.9039955476 1.9357288068 1.9674620659 
1.999195325 2.0309285841 2.0626618433 2.0943951024 2.1261283615 2.1578616206 2.1895948798 2.2213281389 2.253061398 
2.2847946572 2.3165279163 2.3482611754 2.3799944345 2.4117276937 2.4434609528 2.4751942119 2.506927471 2.5386607302 
2.5703939893 2.6021272484 2.6338605076 2.6655937667 2.6973270258 2.7290602849 2.7607935441 2.7925268032 2.8242600623 
2.8559933214 2.8877265806 2.9194598397 2.9511930988 2.982926358 3.0146596171 3.0463928762 3.0781261353 3.1098593945 
3.1415926536 
_radius 1 100 double
6.9735020682e-16 0.017866644894 0.035493537298 0.052658528727 0.069166088338 0.084856892686 0.099613525121 0.11336176572 0.12606756328 
0.13773038588 0.14837409868 0.15803672217 0.16676040279 0.17458279579 0.18153091954 0.18761838678 0.19284663622 0.19721026284 
0.20070578567 0.20334236864 0.20515238994 0.20619957075 0.20658271375 0.20643388253 0.20591087136 0.20518484831 0.20442493618 
0.20378210686 0.20337497348 0.20327971403 0.20352541889 0.20409491432 0.20493012901 0.20594075421 0.20701521855 0.20803339883 
0.20888060595 0.20946210836 0.20971691239 0.20962894065 0.20923344013 0.20861674923 0.20790865665 0.20726832056 0.20686645748 
0.20686737119 0.20741377676 0.20861561209 0.21054234559 0.21321781183 0.21661737397 0.22066825221 0.22525414842 0.23022455177 
0.23540782989 0.24062617082 0.24571012023 0.25051081808 0.25490873361 0.25881839254 0.26218913612 0.26500234366 0.26726583973 
0.26900641769 0.27026153419 0.27107124465 0.27147134871 0.27148850246 0.2711377368 0.27042241671 0.26933623769 0.26786647558 
0.26599749259 0.26371352039 0.26099998647 0.25784305894 0.25422756442 0.25013389074 0.24553481964 0.24039335623 0.23466246921 
0.22828723638 0.22120929971 0.21337295121 0.20473179129 0.19525483612 0.18493117595 0.17377266004 0.16181444429 0.14911348705 
0.13574521918 0.12179871006 0.10737075984 0.092559481815 0.077458063218 0.062149453978 0.046702687768 0.03117136774 0.015594562864 
9.5414445645e-16 
_area 1 100 double
0 0.0007578462813 0.0030049146965 0.0066623707576 0.011601454481 0.017649276809 0.024598876548 0.032222858969 0.040288447265 
0.048571162526 0.056864649927 0.064985048591 0.072769532269 0.080070157269 0.086745755692 0.092655831284 0.097660587023 0.10162978557 
0.1044601266 0.10609720626 0.1065557084 0.10593187631 0.10440585807 0.10223670052 0.099751839681 0.097321485419 0.095267379918 
0.093792360179 0.092902475019 0.092602806154 0.092875089688 0.093671676464 0.095023433119 0.096821028527 0.098958392973 0.10125803201 
0.10357037657 0.10575923514 0.10771108621 0.10935048877 0.11065033234 0.111633292 0.11236650579 0.11295497603 0.11353835788 
0.114296492 0.11546157719 0.11729508592 0.11995295745 0.12349290143 0.12796925819 0.13338986529 0.1396738671 0.14665255708 
0.15408724611 0.16168953226 0.16914634886 0.17615285504 0.18244913177 0.18785205683 0.19227448743 0.19572826293 0.19831263829 
0.20019078266 0.20154350655 0.20248407979 0.20300545479 0.20302270106 0.20242895316 0.20112674697 0.19904599426 0.196154002 
0.19245818328 0.18800150766 0.18285191052 0.17708936746 0.17079534663 0.16404567745 0.15690373159 0.14941278372 0.14159125128 
0.13343505008 0.12492741503 0.11605282355 0.10681084509 0.097227168252 0.087360952559 0.077308699893 0.067204462599 0.057215213187 
0.047530488938 0.038347530406 0.029855277414 0.022220978081 0.015581840135 0.010042279746 0.0056758649069 0.0025303016023 0.00063363429749 
4.4891851782e-17 
