# vtk DataFile Version 5.1
vtk output
ASCII
DATASET POLYDATA
POINTS 100 float
0.121182 -0.0325073 0.638623 0.121217 -0.0323469 0.638651 0.121277 -0.0319807 0.638857 
0.121329 -0.0314296 0.639189 0.121323 -0.0307272 0.639567 0.121198 -0.0299158 0.639885 
0.120889 -0.029042 0.640014 0.120336 -0.0281518 0.639813 0.11949 -0.0272848 0.639139 
0.118319 -0.0264703 0.637852 0.116809 -0.0257234 0.635822 0.114963 -0.0250434 0.632943 
0.112801 -0.0244134 0.629133 0.11035 -0.0238018 0.624341 0.107641 -0.0231665 0.61855 
0.104701 -0.0224589 0.611773 0.101545 -0.0216304 0.604057 0.0981749 -0.0206382 0.595471 
0.0945758 -0.0194514 0.586108 0.0907181 -0.0180558 0.576069 0.0865619 -0.0164573 0.565463 
0.0820631 -0.0146828 0.554394 0.0771813 -0.0127798 0.542955 0.0718879 -0.0108126 0.531224 
0.066173 -0.00885746 0.519258 0.0600501 -0.00699574 0.507091 0.0535579 -0.00530648 0.494734 
0.0467585 -0.00385905 0.48218 0.0397323 -0.00270657 0.469402 0.0325698 -0.00188105 0.456364 
0.0253617 -0.0013908 0.44302 0.0181884 -0.00122038 0.429324 0.0111101 -0.00133325 0.415232 
0.00415979 -0.00167688 0.400705 -0.0026612 -0.0021896 0.385714 -0.0093824 -0.00280863 0.370235 
-0.0160597 -0.0034782 0.354255 -0.0227665 -0.00415678 0.337763 -0.0295816 -0.00482255 0.320755 
-0.0365753 -0.00547647 0.303225 -0.0437954 -0.00614235 0.285166 -0.051255 -0.00686401 0.266569 
-0.0589234 -0.00769975 0.24742 -0.066721 -0.00871477 0.227706 -0.0745207 -0.00997242 0.207414 
-0.0821533 -0.0115254 0.186536 -0.0894196 -0.013408 0.165071 -0.0961042 -0.0156303 0.143031 
-0.101994 -0.018175 0.120444 -0.106895 -0.0209978 0.0973586 -0.110649 -0.0240307 0.073839 
-0.113146 -0.0271881 0.0499696 -0.114334 -0.0303752 0.02585 -0.114218 -0.0334971 0.00159077 
-0.112864 -0.0364681 -0.0226923 -0.110382 -0.0392194 -0.0468846 -0.106918 -0.0417046 -0.0708792 
-0.102642 -0.0439023 -0.0945828 -0.0977219 -0.0458149 -0.11792 -0.0923177 -0.0474643 -0.140839 
-0.0865625 -0.0488846 -0.163306 -0.0805555 -0.0501141 -0.185311 -0.0743567 -0.0511849 -0.206864 
-0.0679883 -0.0521145 -0.227983 -0.0614395 -0.0528991 -0.248698 -0.0546759 -0.0535098 -0.26904 
-0.0476513 -0.0538921 -0.289032 -0.0403208 -0.0539697 -0.308692 -0.0326526 -0.0536518 -0.328022 
-0.0246394 -0.0528427 -0.347012 -0.0163045 -0.0514535 -0.365634 -0.00770604 -0.0494133 -0.383848 
0.00106432 -0.0466803 -0.401603 0.00988623 -0.0432483 -0.418844 0.0186188 -0.0391515 -0.435512 
0.027111 -0.0344638 -0.45155 0.0352136 -0.0292936 -0.46691 0.0427903 -0.0237754 -0.481552 
0.0497282 -0.0180579 -0.495446 0.0559449 -0.0122908 -0.508577 0.0613943 -0.00661117 -0.520938 
0.0660668 -0.00113176 -0.532535 0.0699886 0.00406751 -0.543377 0.0732163 0.00894438 -0.553483 
0.0758301 0.0134942 -0.56287 0.0779259 0.0177453 -0.571557 0.0796058 0.0217505 -0.579563 
0.0809701 0.0255751 -0.586905 0.08211 0.0292843 -0.593594 0.0831014 0.0329306 -0.599645 
0.0840016 0.0365422 -0.605065 0.0848476 0.0401163 -0.609867 0.0856566 0.0436152 -0.61406 
0.0864281 0.0469682 -0.617655 0.0871476 0.0500771 -0.620663 0.0877912 0.0528267 -0.623097 
0.0883304 0.0550967 -0.624969 0.088737 0.0567756 -0.62629 0.0889874 0.0577735 -0.627069 
0.0890657 0.0580321 -0.627312 
LINES 2 100
OFFSETS vtktypeint64
0 100 
CONNECTIVITY vtktypeint64
0 1 2 3 4 5 6 7 8 
9 10 11 12 13 14 15 16 17 
18 19 20 21 22 23 24 25 26 
27 28 29 30 31 32 33 34 35 
36 37 38 39 40 41 42 43 44 
45 46 47 48 49 50 51 52 53 
54 55 56 57 58 59 60 61 62 
63 64 65 66 67 68 69 70 71 
72 73 74 75 76 77 78 79 80 
81 82 83 84 85 86 87 88 89 
90 91 92 93 94 95 96 97 98 
99 
POINT_DATA 100
FIELD FieldData 3
_theta 1 100 double
0 0.031733259127 0.063466518254 0.095199777382 0.12693303651 0.15866629564 0.19039955476 0.22213281389 0.25386607302 
0.28559933214 0.31733259127 0.3490658504 0.38079910953 0.41253236865 0.44426562778 0.47599888691 0.50773214603 0.53946540516 
0.57119866429 0.60293192342 0.63466518254 0.66639844167 0.6981317008 0.72986495992 0.76159821905 0.79333147818 0.82506473731 
0.85679799643 0.88853125556 0.92026451469 0.95199777382 0.98373103294 1.0154642921 1.0471975512 1.0789308103 1.1106640695 
1.1423973286 1.1741305877 1.2058638468 1.237597106 1.2693303651 1.3010636242 1.3327968833 1.3645301425 1.3962634016 
1.4279966607 1.4597299198 1.491463179 1.5231964381 1.5549296972 1.5866629564 1.6183962155 1.6501294746 1.6818627337 
1.7135959929 1.745329252 1.7770625111 1.8087957702 1.8405290294 1.8722622885 1.9039955476 1.9357288068 1.9674620659 
1.999195325 2.0309285841 2.0626618433 2.0943951024 2.1261283615 2.1578616206 2.1895948798 2.2213281389 2.253061398 
2.2847946572 2.3165279163 2.3482611754 2.3799944345 2.4117276937 2.4434609528 2.4751942119 2.506927471 2.5386607302 
2.5703939893 2.6021272484 2.6338605076 2.6655937667 2.6973270258 2.7290602849 2.7607935441 2.7925268032 2.8242600623 
2.8559933214 2.8877265806 2.9194598397 2.9511930988 2.982926358 3.0146596171 3.0463928762 3.0781261353 3.1098593945 
3.1415926536 
_radius 1 100 double
1.0307936507e-15 0.015416693011 0.030777853287 0.04602812273 0.061111545851 0.075970597076 0.090544817914 0.10476960808 0.11857594005 
0.13189170738 0.14464504075 0.15676933814 0.16820916332 0.1789257848 0.18890107322 0.19813875182 0.20666251267 0.21451114935 
0.22173148242 0.22837033979 0.2344670856 0.24004809171 0.24512411749 0.24969091049 0.25373265507 0.25722738107 0.26015321719 
0.2624944173 0.26424627768 0.26541827657 0.26603496447 0.26613435825 0.26576389825 0.26497441473 0.26381296402 0.26231575634 
0.26050260957 0.25837431587 0.25591392331 0.25309224479 0.24987708052 0.24624489927 0.24219321291 0.23775162872 0.23298955169 
0.22801875022 0.22298956649 0.21808051 0.2134822703 0.20937857457 0.20592733114 0.20324557029 0.20140045273 0.20040634953 
0.20022586398 0.20077217964 0.20191185277 0.20346979575 0.20523934296 0.20699884731 0.20853345317 0.209658534 0.21024064952 
0.21021245469 0.20957920438 0.20841597203 0.2068561972 0.20507345642 0.20325918068 0.20159925999 0.20025208857 0.19932985945 
0.19888426189 0.19889753004 0.19927992217 0.19987459592 0.20047004807 0.20081900788 0.20066149868 0.19974910543 0.19786735668 
0.19485346492 0.19060739443 0.18509524761 0.17834511804 0.17043665183 0.16148639167 0.15163141219 0.14101372435 0.12976746299 
0.11801010331 0.10583808746 0.093326498799 0.080531939049 0.067497539259 0.054258963748 0.040850250336 0.027308385363 0.013675742927 
9.9393037072e-16 
_area 1 100 double
0 0.00056239443542 0.0022422809938 0.0050186064432 0.0088584982657 0.013718877918 0.019546230149 0.026273778685 0.033816625821 
0.04206661457 0.050889213019 0.060124573697 0.069594395659 0.079115119427 0.088515777798 0.097656140107 0.10643947726 0.11481551984 
0.12277253881 0.13032151248 0.13747834345 0.14425056837 0.15063243695 0.15660771839 0.16215557132 0.16725372408 0.17187603501 
0.17598713548 0.1795416643 0.1824940999 0.18481651072 0.18651409781 0.18762900956 0.18822793763 0.18837427932 0.18809445213 
0.18735840045 0.18608749159 0.1841805212 0.18154215959 0.17810718987 0.1738590559 0.16884129029 0.16316036024 0.15697973224 
0.15050672099 0.1439749348 0.13762529978 0.13168773008 0.12636400878 0.12181134555 0.11812662008 0.11533441696 0.11338622988 
0.11217642789 0.11156747031 0.11140737762 0.11153207617 0.11176100011 0.11189948041 0.11175437291 0.11115723588 0.11001454288 
0.10829670635 0.10597602943 0.10320828652 0.10017940561 0.09712379311 0.094335830922 0.092099061379 0.0906417712 0.090103494256 
0.090517362325 0.0918087324 0.093808603781 0.096274246294 0.098907514475 0.10137050455 0.1033056306 0.10436426197 0.10424192415 
0.10271427722 0.099666398635 0.095108272502 0.089172169834 0.082092070846 0.074169810313 0.065735583767 0.057110934801 0.048580518772 
0.04037587517 0.032671492794 0.025591457979 0.019223803437 0.013638542522 0.0089040252686 0.0050959457526 0.0022956548257 0.00057887409413 
5.0037816552e-17 
