# vtk DataFile Version 5.1
vtk output
ASCII
DATASET POLYDATA
POINTS 100 float
0.146469 -0.0154174 0.683833 0.146562 -0.0152321 0.683695 0.146772 -0.0148008 0.683456 
0.147059 -0.0141555 0.683075 0.147363 -0.0133466 0.682483 0.147609 -0.012436 0.681591 
0.147719 -0.0114912 0.680292 0.147619 -0.0105771 0.678471 0.147244 -0.00974916 0.676011 
0.146547 -0.00904782 0.672801 0.145498 -0.00849442 0.668746 0.144084 -0.00808982 0.663773 
0.142305 -0.00781529 0.657835 0.140166 -0.00763575 0.650917 0.13767 -0.00750477 0.643039 
0.134812 -0.00737072 0.634251 0.131572 -0.00718325 0.624631 0.127916 -0.00689942 0.614281 
0.123793 -0.00648859 0.603314 0.119142 -0.00593578 0.591848 0.113902 -0.00524296 0.579995 
0.108018 -0.00442847 0.56785 0.101454 -0.00352461 0.555487 0.0942053 -0.00257393 0.542948 
0.0863016 -0.00162467 0.530247 0.0778123 -0.000726081 0.517366 0.0688447 7.58318e-05 0.50426 
0.059537 0.000741758 0.490867 0.0500473 0.00124127 0.477114 0.0405384 0.00155376 0.462925 
0.031162 0.00166807 0.448235 0.0220427 0.00158119 0.432994 0.0132643 0.00129633 0.417174 
0.00486205 0.000820657 0.400768 -0.00318126 0.00016326 0.383796 -0.0109308 -0.000666466 0.366291 
-0.0184897 -0.00165983 0.3483 -0.0259833 -0.0028092 0.32987 -0.0335396 -0.00410772 0.311043 
-0.0412686 -0.00554882 0.291845 -0.0492421 -0.00712547 0.272278 -0.0574783 -0.00882973 0.252322 
-0.0659306 -0.0106526 0.231933 -0.0744851 -0.0125846 0.211046 -0.0829648 -0.0146162 0.189586 
-0.0911421 -0.0167398 0.167476 -0.0987565 -0.0189503 0.14465 -0.105538 -0.0212464 0.121062 
-0.111229 -0.0236312 0.096701 -0.115612 -0.0261115 0.0715933 -0.118522 -0.0286962 0.0458075 
-0.119865 -0.0313936 0.0194529 -0.119622 -0.0342082 -0.00732687 -0.117848 -0.0371358 -0.0343632 
-0.114661 -0.0401599 -0.0614755 -0.110229 -0.0432474 -0.0884849 -0.104749 -0.0463465 -0.115228 
-0.0984254 -0.0493854 -0.14157 -0.091453 -0.0522734 -0.167412 -0.0839977 -0.054904 -0.192692 
-0.0761864 -0.0571601 -0.217393 -0.0681018 -0.0589208 -0.24153 -0.0597844 -0.0600695 -0.265143 
-0.0512402 -0.0605013 -0.288287 -0.0424533 -0.060131 -0.311017 -0.0334012 -0.0588991 -0.333374 
-0.0240704 -0.0567752 -0.355379 -0.0144708 -0.0537596 -0.377021 -0.00464614 -0.0498822 -0.398254 
0.00532089 -0.0451979 -0.419003 0.0153089 -0.0397815 -0.439164 0.0251641 -0.0337196 -0.458621 
0.0347113 -0.0271036 -0.477251 0.0437686 -0.0200221 -0.494941 0.0521636 -0.012555 -0.511602 
0.0597494 -0.00477 -0.527174 0.0664181 0.00327912 -0.54164 0.0721105 0.0115513 -0.555023 
0.0768214 0.0200152 -0.567389 0.0805983 0.0286438 -0.578836 0.0835365 0.0374092 -0.589489 
0.0857686 0.0462767 -0.599486 0.0874517 0.0552001 -0.608966 0.0887527 0.0641186 -0.618057 
0.0898342 0.0729558 -0.626864 0.0908409 0.0816217 -0.63546 0.0918905 0.090016 -0.643886 
0.0930662 0.0980341 -0.652143 0.0944145 0.105574 -0.660203 0.0959455 0.112543 -0.668003 
0.0976375 0.118863 -0.675462 0.0994422 0.124479 -0.682484 0.101293 0.129357 -0.688966 
0.103112 0.133485 -0.694807 0.104819 0.136876 -0.699913 0.106335 0.139554 -0.704202 
0.10759 0.141556 -0.707606 0.108527 0.142919 -0.710073 0.109103 0.143679 -0.711566 
0.109291 0.143858 -0.712064 
LINES 2 100
OFFSETS vtktypeint64
0 100 
CONNECTIVITY vtktypeint64
0 1 2 3 4 5 6 7 8 
9 10 11 12 13 14 15 16 17 
18 19 20 21 22 23 24 25 26 
27 28 29 30 31 32 33 34 35 
36 37 38 39 40 41 42 43 44 
45 46 47 48 49 50 51 52 53 
54 55 56 57 58 59 60 61 62 
63 64 65 66 67 68 69 70 71 
72 73 74 75 76 77 78 79 80 
81 82 83 84 85 86 87 88 89 
90 91 92 93 94 95 96 97 98 
99 
POINT_DATA 100
FIELD FieldData 3
_theta 1 100 double
0 0.031733259127 0.063466518254 0.095199777382 0.12693303651 0.15866629564 0.19039955476 0.22213281389 0.25386607302 
0.28559933214 0.31733259127 0.3490658504 0.38079910953 0.41253236865 0.44426562778 0.47599888691 0.50773214603 0.53946540516 
0.57119866429 0.60293192342 0.63466518254 0.66639844167 0.6981317008 0.72986495992 0.76159821905 0.79333147818 0.82506473731 
0.85679799643 0.88853125556 0.92026451469 0.95199777382 0.98373103294 1.0154642921 1.0471975512 1.0789308103 1.1106640695 
1.1423973286 1.1741305877 1.2058638468 1.237597106 1.2693303651 1.3010636242 1.3327968833 1.3645301425 1.3962634016 
1.4279966607 1.4597299198 1.491463179 1.5231964381 1.5549296972 1.5866629564 1.6183962155 1.6501294746 1.6818627337 
1.7135959929 1.745329252 1.7770625111 1.8087957702 1.8405290294 1.8722622885 1.9039955476 1.9357288068 1.9674620659 
1.999195325 2.0309285841 2.0626618433 2.0943951024 2.1261283615 2.1578616206 2.1895948798 2.2213281389 2.253061398 
2.2847946572 2.3165279163 2.3482611754 2.3799944345 2.4117276937 2.4434609528 2.4751942119 2.506927471 2.5386607302 
2.5703939893 2.6021272484 2.6338605076 2.6655937667 2.6973270258 2.7290602849 2.7607935441 2.7925268032 2.8242600623 
2.8559933214 2.8877265806 2.9194598397 2.9511930988 2.982926358 3.0146596171 3.0463928762 3.0781261353 3.1098593945 
3.1415926536 
_radius 1 100 double
1.1444245689e-15 0.01638364002 0.03266270134 0.048741905001 0.064535637227 0.07997025067 0.094984169475 0.10952607511 0.1235519641 
0.13702217418 0.14989945182 0.16214873776 0.17373867409 0.18464412993 0.19484860337 0.20434539128 0.21313692837 0.22123247785 
0.22864508072 0.2353890214 0.2414788747 0.24693052661 0.25176369576 0.25600479891 0.25968879073 0.26285893843 0.26556421246 
0.26785478685 0.26977672947 0.27136711272 0.27265046496 0.27363687737 0.27432147211 0.27468461843 0.2746924247 0.27429758348 
0.27344131794 0.27205756353 0.27008030829 0.26745419187 0.26414732879 0.26016431097 0.25555680724 0.25042925244 0.24493775135 
0.23928133508 0.23368591838 0.22838261573 0.22358342829 0.21945847987 0.21611932305 0.21361157225 0.21191719726 0.21096359197 
0.21063507455 0.21078374522 0.21123955783 0.2118217877 0.21235402353 0.2126823634 0.2126935089 0.21232814414 0.21158610344 
0.21052247744 0.20923655254 0.20785698929 0.20652604297 0.20538358541 0.20455039804 0.20411090588 0.20409720869 0.2044774261 
0.20515137466 0.20595548405 0.20667700597 0.20707561919 0.2069092328 0.20596043513 0.20406009775 0.20110463698 0.19706399115 
0.19197907686 0.18594959271 0.1791145485 0.17162866611 0.16363807426 0.15525861005 0.14655959658 0.1375553129 0.12820553716 
0.11842536583 0.10810294337 0.097122142217 0.085386247055 0.072838735017 0.059478175817 0.045365597692 0.030623903225 0.015429874463 
1.1726148442e-15 
_area 1 100 double
0 0.00068051332585 0.0027013845906 0.0060034343897 0.010496556009 0.016069822211 0.022601583846 0.02996756764 0.038045677627 
0.046716766972 0.055861638522 0.065356491111 0.075070900379 0.084871905429 0.094634241045 0.10425273027 0.11365139587 0.12278559956 
0.1316368063 0.14020227636 0.1484829901 0.15647273878 0.16415062894 0.17147863162 0.17840458424 0.18486903149 0.19081282536 
0.1961827676 0.20093428253 0.20503183917 0.20844896165 0.21117021237 0.21319711965 0.21455654355 0.2152980412 0.21544845404 
0.21494408557 0.21365147102 0.21143577557 0.20819473501 0.20387871412 0.19851190678 0.19220817123 0.18517241406 0.1776838568 
0.17006405758 0.16263647722 0.15568413424 0.14940882558 0.14389672196 0.13911016062 0.13493248401 0.13125543899 0.12809826153 
0.12581820535 0.12429746304 0.1230656274 0.12177584008 0.12014413518 0.11799994697 0.11531634176 0.11219798711 0.10882846107 
0.10540841278 0.10211106516 0.099058899927 0.096323542608 0.093947087733 0.091969028037 0.090442908921 0.089435770524 0.089015700929 
0.089301599467 0.090632290342 0.09262410391 0.094782829072 0.096606139717 0.097634598771 0.097557521797 0.096219532979 0.093613156756 
0.08985415747 0.085143054408 0.079720110412 0.073823010882 0.067656187263 0.061375804848 0.055087841883 0.048854343018 0.042704756231 
0.036651516838 0.030709385215 0.02491629597 0.019351071994 0.014142383712 0.0094649837509 0.0055228239869 0.0025223009678 0.00064122420526 
1.0275848054e-16 
