# vtk DataFile Version 5.1
vtk output
ASCII
DATASET POLYDATA
POINTS 100 float
0.151318 0.09714 -0.646527 0.151203 0.0969298 -0.64637 0.15082 0.0960908 -0.645849 
0.15018 0.0946512 -0.644912 0.149301 0.0926547 -0.64348 0.148207 0.0901556 -0.641463 
0.146926 0.087212 -0.638769 0.145483 0.0838789 -0.635323 0.143901 0.0802031 -0.63108 
0.142198 0.0762181 -0.626029 0.140376 0.0719423 -0.620202 0.138426 0.0673796 -0.613668 
0.136317 0.0625216 -0.606527 0.134002 0.0573522 -0.598897 0.131413 0.0518534 -0.5909 
0.128462 0.0460112 -0.582645 0.125052 0.0398209 -0.574215 0.121073 0.0332913 -0.565651 
0.11642 0.026447 -0.556953 0.110992 0.0193284 -0.548074 0.104708 0.0119899 -0.538927 
0.0975119 0.00449698 -0.529394 0.0893801 -0.0030786 -0.519344 0.080325 -0.0106628 -0.508643 
0.0703972 -0.018183 -0.497171 0.0596834 -0.0255706 -0.484838 0.0483013 -0.032762 -0.471587 
0.0363924 -0.0396974 -0.457402 0.0241119 -0.0463189 -0.442301 0.011619 -0.0525673 -0.426333 
-0.000933702 -0.0583791 -0.409566 -0.0134081 -0.0636842 -0.392073 -0.0256869 -0.0684056 -0.373921 
-0.0376764 -0.0724602 -0.355159 -0.0493053 -0.0757632 -0.335812 -0.0605206 -0.0782342 -0.315879 
-0.0712812 -0.079805 -0.295336 -0.081548 -0.0804279 -0.274142 -0.0912759 -0.0800841 -0.252256 
-0.100404 -0.0787901 -0.229644 -0.108852 -0.0766012 -0.206294 -0.116514 -0.0736118 -0.18223 
-0.123263 -0.0699512 -0.157517 -0.128955 -0.0657755 -0.132262 -0.133437 -0.0612562 -0.106612 
-0.136565 -0.0565669 -0.0807448 -0.138209 -0.0518688 -0.0548556 -0.138279 -0.0472971 -0.0291407 
-0.136727 -0.042951 -0.003782 -0.133562 -0.038886 0.0210687 -0.128854 -0.0351131 0.0453002 
-0.122734 -0.0316017 0.0688491 -0.115386 -0.0282881 0.0916994 -0.107036 -0.0250881 0.113878 
-0.0979411 -0.0219117 0.135445 -0.0883637 -0.0186786 0.15648 -0.0785586 -0.0153323 0.177067 
-0.0687524 -0.0118509 0.197281 -0.0591294 -0.00825307 0.217175 -0.0498207 -0.00459941 0.236775 
-0.040899 -0.000986901 0.256076 -0.0323794 0.00246081 0.275045 -0.0242259 0.00560725 0.29363 
-0.0163618 0.00831897 0.31177 -0.00868457 0.0104814 0.329408 -0.00108152 0.0120125 0.346501 
0.00655403 0.0128728 0.363032 0.0143089 0.0130702 0.379016 0.0222391 0.0126588 0.394498 
0.0303638 0.0117328 0.409548 0.0386633 0.0104146 0.424255 0.0470825 0.00884089 0.438713 
0.0555374 0.00714689 0.453003 0.063926 0.0054512 0.467187 0.0721394 0.00384399 0.48129 
0.0800738 0.00237913 0.495296 0.0876414 0.00107183 0.50915 0.094778 -9.83436e-05 0.522757 
0.101449 -0.0011794 0.535998 0.107649 -0.00223513 0.548738 0.113404 -0.0033314 0.560846 
0.118759 -0.00452236 0.572213 0.123778 -0.00583887 0.582759 0.128533 -0.00728056 0.592452 
0.133092 -0.00881289 0.601302 0.137516 -0.0103697 0.609366 0.14185 -0.0118608 0.616736 
0.146119 -0.0131837 0.623525 0.150327 -0.0142381 0.629852 0.154454 -0.0149404 0.635825 
0.158464 -0.0152367 0.641522 0.162303 -0.0151128 0.646982 0.16591 -0.0145986 0.652194 
0.169214 -0.0137668 0.657102 0.172147 -0.0127264 0.661608 0.174643 -0.0116107 0.665584 
0.176644 -0.0105618 0.668889 0.178102 -0.00971379 0.671387 0.178982 -0.00917671 0.672966 
0.179262 -0.00902281 0.673549 
LINES 2 100
OFFSETS vtktypeint64
0 100 
CONNECTIVITY vtktypeint64
0 1 2 3 4 5 6 7 8 
9 10 11 12 13 14 15 16 17 
18 19 20 21 22 23 24 25 26 
27 28 29 30 31 32 33 34 35 
36 37 38 39 40 41 42 43 44 
45 46 47 48 49 50 51 52 53 
54 55 56 57 58 59 60 61 62 
63 64 65 66 67 68 69 70 71 
72 73 74 75 76 77 78 79 80 
81 82 83 84 85 86 87 88 89 
90 91 92 93 94 95 96 97 98 
99 
POINT_DATA 100
FIELD FieldData 3
_theta 1 100 double
0 0.031733259127 0.063466518254 0.095199777382 0.12693303651 0.15866629564 0.19039955476 0.22213281389 0.25386607302 
0.28559933214 0.31733259127 0.3490658504 0.38079910953 0.41253236865 0.44426562778 0.47599888691 0.50773214603 0.53946540516 
0.57119866429 0.60293192342 0.63466518254 0.66639844167 0.6981317008 0.72986495992 0.76159821905 0.79333147818 0.82506473731 
0.85679799643 0.88853125556 0.92026451469 0.95199777382 0.98373103294 1.0154642921 1.0471975512 1.0789308103 1.1106640695 
1.1423973286 1.1741305877 1.2058638468 1.237597106 1.2693303651 1.3010636242 1.3327968833 1.3645301425 1.3962634016 
1.4279966607 1.4597299198 1.491463179 1.5231964381 1.5549296972 1.5866629564 1.6183962155 1.6501294746 1.6818627337 
1.7135959929 1.745329252 1.7770625111 1.8087957702 1.8405290294 1.8722622885 1.9039955476 1.9357288068 1.9674620659 
1.999195325 2.0309285841 2.0626618433 2.0943951024 2.1261283615 2.1578616206 2.1895948798 2.2213281389 2.253061398 
2.2847946572 2.3165279163 2.3482611754 2.3799944345 2.4117276937 2.4434609528 2.4751942119 2.506927471 2.5386607302 
2.5703939893 2.6021272484 2.6338605076 2.6655937667 2.6973270258 2.7290602849 2.7607935441 2.7925268032 2.8242600623 
2.8559933214 2.8877265806 2.9194598397 2.9511930988 2.982926358 3.0146596171 3.0463928762 3.0781261353 3.1098593945 
3.1415926536 
_radius 1 100 double
9.5222256737e-16 0.015437750927 0.030679168549 0.045548209709 0.059914610469 0.073707642439 0.086919988248 0.099600514318 0.11183668875 
0.12372968435 0.13536712666 0.14679911206 0.15802208831 0.16897290225 0.17953285294 0.18953988154 0.19880635348 0.20713993269 
0.21436533182 0.22034493589 0.22499636827 0.22830510344 0.23033039594 0.23120323903 0.23111585879 0.23030335579 0.2290193834 
0.22750896075 0.22598235681 0.22459414778 0.22343083152 0.22250880539 0.2217824465 0.2211601502 0.22052514427 0.2197578921 
0.21875746513 0.21745978919 0.21585109279 0.21397531979 0.21193422481 0.20987873929 0.20799157537 0.20646354265 0.205467894 
0.20513774929 0.20555124871 0.20672700237 0.20862900812 0.21117748273 0.21426162511 0.21775179771 0.22151036484 0.22540138586 
0.22929944924 0.23309752557 0.23671317686 0.24009209052 0.24320795158 0.24605819266 0.2486560351 0.25102019628 0.25316436562 
0.25508873541 0.25677537582 0.25818822364 0.259277298 0.25998585805 0.26025878024 0.26005043291 0.25933064204 0.25808788235 
0.25632950082 0.25407931524 0.25137294768 0.24825081615 0.24474861208 0.2408860019 0.23665576561 0.23201648894 0.22689155481 
0.22117567948 0.21474824565 0.20749088865 0.19930573204 0.19013063728 0.17994878515 0.16879146058 0.15673449541 0.14388990846 
0.13039462943 0.11639796416 0.10204906249 0.087485388777 0.072823071595 0.058149882491 0.043521419892 0.028960902482 0.014462777727 
3.6468522351e-16 
_area 1 100 double
0 0.00064923971904 0.0025629692878 0.0056468015603 0.0097660016503 0.014771310665 0.02052295103 0.026906982607 0.033840838793 
0.041267105307 0.049136568243 0.057384218839 0.065904922355 0.074536731603 0.083058124594 0.091201673426 0.098682249924 0.10523389373 
0.11064674539 0.11479474105 0.11764668337 0.11925798487 0.11974707794 0.11926704549 0.11798559312 0.11608142938 0.11375390227 
0.11123321235 0.10877714991 0.10664585494 0.10505510596 0.10412122767 0.10382419203 0.10401541668 0.10447138747 0.10496611038 
0.10533444307 0.10550433283 0.10546653631 0.10523541911 0.10485401955 0.10445875113 0.10432252148 0.1048986933 0.10643137874 
0.10852311362 0.1109147601 0.11357911477 0.11657822962 0.11999032708 0.12386508257 0.12819658583 0.13292026076 0.13793105842 
0.14310489685 0.14831009325 0.15341239736 0.15828345513 0.16281352355 0.16692053378 0.17055005541 0.17366834488 0.17625487765 
0.17830100986 0.1798339255 0.18109793864 0.18214473453 0.18260980209 0.18227208432 0.18102945185 0.17883979544 0.17572007988 
0.17174381099 0.16703080954 0.16173592786 0.15603513387 0.15009767501 0.14404532416 0.13791913247 0.13167168135 0.12518651053 
0.11831708416 0.11093421963 0.10296863871 0.094436448541 0.08544117645 0.076154122345 0.066781760455 0.05753213256 0.048590644923 
0.040110369521 0.032215242768 0.025009297104 0.018584159596 0.013021058348 0.0083886693218 0.0047402872074 0.0021129299789 0.00052906641142 
8.5982749379e-17 
