# vtk DataFile Version 5.1
vtk output
ASCII
DATASET POLYDATA
POINTS 100 float
0.0994894 -0.0330244 0.624415 0.0996148 -0.0328065 0.62439 0.0999312 -0.0323073 0.624444 
0.100376 -0.0315555 0.62453 0.100855 -0.030595 0.624566 0.101257 -0.0294798 0.624448 
0.101468 -0.0282667 0.624048 0.101391 -0.0270087 0.623223 0.100958 -0.0257488 0.621826 
0.100138 -0.0245155 0.619709 0.0989436 -0.0233204 0.616739 0.0974236 -0.0221588 0.6128 
0.0956563 -0.0210125 0.60781 0.0937338 -0.0198543 0.60172 0.0917448 -0.018654 0.594522 
0.0897581 -0.0173849 0.586253 0.0878083 -0.016029 0.576986 0.0858858 -0.0145809 0.566834 
0.0839348 -0.0130505 0.555934 0.0818573 -0.0114614 0.544439 0.0795245 -0.00984935 0.532508 
0.0767934 -0.0082565 0.520289 0.0735264 -0.00672648 0.507912 0.0696115 -0.00529816 0.495476 
0.0649793 -0.00400062 0.483042 0.0596154 -0.00284957 0.470635 0.0535646 -0.00184602 0.45824 
0.0469283 -0.000977415 0.44581 0.0398528 -0.000221025 0.433271 0.0325119 0.000450743 0.420537 
0.0250846 0.00106403 0.407514 0.0177321 0.00163707 0.394116 0.010577 0.00217475 0.38027 
0.00368702 0.00266482 0.365925 -0.0029328 0.00307673 0.35105 -0.00933969 0.00336312 0.335636 
-0.0156429 0.00346391 0.31969 -0.0219858 0.00331261 0.303233 -0.0285213 0.00284382 0.286288 
-0.0353853 0.00200109 0.268873 -0.0426701 0.000743799 0.250999 -0.050403 -0.000947647 0.232664 
-0.0585311 -0.00306932 0.213852 -0.066917 -0.00559416 0.194536 -0.0753443 -0.00847521 0.174686 
-0.0835331 -0.0116514 0.154272 -0.0911649 -0.0150545 0.133276 -0.0979121 -0.0186173 0.111698 
-0.10347 -0.0222802 0.0895636 -0.107587 -0.0259964 0.0669285 -0.11009 -0.0297351 0.0438761 
-0.110899 -0.0334801 0.0205159 -0.110034 -0.0372276 -0.00302384 -0.107611 -0.0409791 -0.0266064 
-0.103826 -0.0447348 -0.0500971 -0.0989304 -0.048485 -0.0733749 -0.0932061 -0.0522031 -0.0963417 
-0.0869321 -0.0558408 -0.11893 -0.0803586 -0.0593254 -0.141103 -0.0736838 -0.0625619 -0.16286 
-0.0670396 -0.065438 -0.184223 -0.0604854 -0.0678322 -0.205232 -0.0540126 -0.0696243 -0.225934 
-0.0475561 -0.070707 -0.246371 -0.0410131 -0.0709968 -0.266569 -0.0342642 -0.0704422 -0.286528 
-0.0271963 -0.0690298 -0.306221 -0.019721 -0.0667855 -0.32559 -0.0117903 -0.0637716 -0.344555 
-0.00340311 -0.0600798 -0.363018 0.00539295 -0.0558213 -0.380877 0.0145084 -0.0511147 -0.398039 
0.0238229 -0.046074 -0.41443 0.0332002 -0.0407976 -0.430003 0.0425034 -0.035361 -0.444748 
0.0516089 -0.0298122 -0.458691 0.0604169 -0.0241728 -0.471886 0.0688567 -0.0184425 -0.484409 
0.076887 -0.0126082 -0.496345 0.0844907 -0.00665435 -0.507773 0.0916663 -0.000575124 -0.518749 
0.0984178 0.00561535 -0.529298 0.104743 0.011875 -0.539401 0.110627 0.0181301 -0.548999 
0.116035 0.0242765 -0.557992 0.120915 0.0301858 -0.566249 0.1252 0.0357156 -0.573628 
0.128821 0.0407242 -0.579992 0.131718 0.0450847 -0.585226 0.133848 0.048701 -0.589263 
0.135207 0.051519 -0.592093 0.135831 0.053535 -0.593771 0.1358 0.0547981 -0.594424 
0.135242 0.0554063 -0.594237 0.134316 0.055497 -0.593443 0.133207 0.0552326 -0.592303 
0.1321 0.0547825 -0.591078 0.131167 0.0543044 -0.590007 0.130548 0.0539261 -0.589279 
0.130331 0.0537314 -0.589019 
LINES 2 100
OFFSETS vtktypeint64
0 100 
CONNECTIVITY vtktypeint64
0 1 2 3 4 5 6 7 8 
9 10 11 12 13 14 15 16 17 
18 19 20 21 22 23 24 25 26 
27 28 29 30 31 32 33 34 35 
36 37 38 39 40 41 42 43 44 
45 46 47 48 49 50 51 52 53 
54 55 56 57 58 59 60 61 62 
63 64 65 66 67 68 69 70 71 
72 73 74 75 76 77 78 79 80 
81 82 83 84 85 86 87 88 89 
90 91 92 93 94 95 96 97 98 
99 
POINT_DATA 100
FIELD FieldData 3
_theta 1 100 double
0 0.031733259127 0.063466518254 0.095199777382 0.12693303651 0.15866629564 0.19039955476 0.22213281389 0.25386607302 
0.28559933214 0.31733259127 0.3490658504 0.38079910953 0.41253236865 0.44426562778 0.47599888691 0.50773214603 0.53946540516 
0.57119866429 0.60293192342 0.63466518254 0.66639844167 0.6981317008 0.72986495992 0.76159821905 0.79333147818 0.82506473731 
0.85679799643 0.88853125556 0.92026451469 0.95199777382 0.98373103294 1.0154642921 1.0471975512 1.0789308103 1.1106640695 
1.1423973286 1.1741305877 1.2058638468 1.237597106 1.2693303651 1.3010636242 1.3327968833 1.3645301425 1.3962634016 
1.4279966607 1.4597299198 1.491463179 1.5231964381 1.5549296972 1.5866629564 1.6183962155 1.6501294746 1.6818627337 
1.7135959929 1.745329252 1.7770625111 1.8087957702 1.8405290294 1.8722622885 1.9039955476 1.9357288068 1.9674620659 
1.999195325 2.0309285841 2.0626618433 2.0943951024 2.1261283615 2.1578616206 2.1895948798 2.2213281389 2.253061398 
2.2847946572 2.3165279163 2.3482611754 2.3799944345 2.4117276937 2.4434609528 2.4751942119 2.506927471 2.5386607302 
2.5703939893 2.6021272484 2.6338605076 2.6655937667 2.6973270258 2.7290602849 2.7607935441 2.7925268032 2.8242600623 
2.8559933214 2.8877265806 2.9194598397 2.9511930988 2.982926358 3.0146596171 3.0463928762 3.0781261353 3.1098593945 
3.1415926536 
_radius 1 100 double
1.6653345369e-16 0.014081914565 0.028174359089 0.042283465387 0.056394677488 0.070467032955 0.084432033477 0.098197014834 0.1116522152 
0.12468031475 0.13716705251 0.1490115399 0.16013502086 0.1704870549 0.18004841573 0.18883038947 0.19687058791 0.20422582922 
0.21096305297 0.21714959149 0.22284433024 0.22809122722 0.23291622336 0.23732779509 0.24132049318 0.24488011265 0.24798892438 
0.25062973748 0.25278826353 0.25445397868 0.25562010552 0.25628332632 0.25644349407 0.25610320574 0.25526693506 0.25393962769 
0.25212514887 0.24982546746 0.24704165931 0.24377754099 0.24004603706 0.23587744969 0.23132793425 0.22648596815 0.22147461331 
0.21644796777 0.21158131058 0.20705592337 0.20304116855 0.199677624 0.19706510375 0.19525754087 0.19426343918 0.19404803398 
0.19453382809 0.19560001029 0.19708540638 0.19879987483 0.20054458938 0.2021365421 0.20343099355 0.20433733032 0.20482639831 
0.20492937105 0.20472938897 0.20434775253 0.20392655952 0.20360955002 0.20352278752 0.20375680984 0.20435203464 0.20528933176 
0.20648748951 0.20780855898 0.20907077845 0.210067313 0.21058789792 0.21044000767 0.20946643844 0.20755700858 0.20465318637 
0.20074561584 0.19586555212 0.19007201103 0.18343690525 0.176030549 0.16790967841 0.15910961233 0.14964145303 0.13949440907 
0.12864253915 0.11705459389 0.10470527505 0.091586182792 0.077714949161 0.063141464578 0.047950572387 0.032261036813 0.016220944088 
5.7460389346e-16 
_area 1 100 double
0 0.00056101665505 0.0022472297426 0.0050642667749 0.0090098115512 0.014059796038 0.020155319014 0.027194219071 0.035030085637 
0.04347983842 0.052339187817 0.061403445859 0.070489395011 0.079452739504 0.088196258343 0.096667186561 0.10484715402 0.11274021148 
0.12036237666 0.12773304826 0.13486780854 0.14177285262 0.14844159098 0.15485340946 0.16097313629 0.16674750366 0.17209673846 
0.17691045876 0.18105898592 0.18441393174 0.18686645246 0.18834101763 0.18880688191 0.18828753694 0.18686711709 0.18468930033 
0.18193344408 0.1786675593 0.17476787581 0.17015666047 0.1648184179 0.15879735374 0.15220804492 0.14524066873 0.13815074843 
0.13122995583 0.12476151734 0.11897040644 0.11398273198 0.10980674875 0.10634289129 0.10343402103 0.10095265732 0.09904226999 
0.097493750402 0.096170237254 0.095068090283 0.094193780176 0.093537461378 0.092986624251 0.092388866093 0.091631670422 0.090679146823 
0.089490354372 0.088085553842 0.086559598376 0.085050268549 0.083715720595 0.082743307079 0.08232128899 0.082484189432 0.0832926266 
0.084741392768 0.086800720501 0.089398639669 0.092051594566 0.094452551585 0.096322653942 0.097430037529 0.097602011417 0.096733083575 
0.094786111699 0.091785678381 0.0878050344 0.082949481291 0.077339886524 0.071100143847 0.06435152323 0.057214820804 0.049818508163 
0.04230878919 0.034856613668 0.027657612102 0.02092326025 0.014864625921 0.0096728932574 0.0055025169963 0.0024624333393 0.00061781198321 
1.6587872999e-17 
