# vtk DataFile Version 5.1
vtk output
ASCII
DATASET POLYDATA
POINTS 100 float
0.0795857 0.0882122 -0.619946 0.0793886 0.0880156 -0.619267 0.0788443 0.0872015 -0.617249 
0.0780186 0.0857845 -0.613951 0.0770116 0.0837898 -0.609472 0.0759446 0.0812502 -0.603942 
0.0749441 0.078202 -0.59751 0.0741243 0.074682 -0.590345 0.073571 0.0707239 -0.582612 
0.0733273 0.0663563 -0.574473 0.0733846 0.0616015 -0.56607 0.0736783 0.0564767 -0.557517 
0.0740902 0.0509954 -0.548895 0.0744566 0.0451713 -0.540246 0.0745813 0.039022 -0.531569 
0.0742531 0.0325739 -0.522827 0.0732651 0.0258656 -0.513948 0.0714339 0.0189513 -0.504833 
0.068617 0.0119021 -0.495367 0.0647265 0.00480512 -0.485428 0.0597374 -0.00223818 -0.474899 
0.0536899 -0.00911694 -0.463682 0.0466853 -0.0157165 -0.451699 0.0388762 -0.021925 -0.438907 
0.030452 -0.0276408 -0.425294 0.0216212 -0.0327789 -0.410882 0.0125921 -0.0372762 -0.395721 
0.00355553 -0.0410957 -0.379883 -0.00533104 -0.0442277 -0.363455 -0.013954 -0.0466894 -0.346523 
-0.0222489 -0.0485218 -0.32917 -0.0301997 -0.0497852 -0.311459 -0.0378322 -0.0505527 -0.293434 
-0.0452027 -0.0509035 -0.27511 -0.0523823 -0.0509161 -0.256481 -0.0594405 -0.0506615 -0.237514 
-0.0664282 -0.0501983 -0.218162 -0.0733629 -0.0495694 -0.198374 -0.0802183 -0.0488 -0.178097 
-0.0869186 -0.0478983 -0.157296 -0.0933388 -0.0468574 -0.135953 -0.099311 -0.0456588 -0.114082 
-0.104636 -0.0442771 -0.0917265 -0.109099 -0.0426844 -0.0689622 -0.112487 -0.040856 -0.045893 
-0.114611 -0.0387738 -0.0226451 -0.115317 -0.0364305 0.000641888 -0.114506 -0.0338315 0.0238244 
-0.112143 -0.030996 0.046765 -0.108257 -0.0279571 0.0693411 -0.102943 -0.02476 0.0914519 
-0.0963539 -0.0214607 0.113023 -0.088685 -0.0181225 0.134008 -0.0801622 -0.0148136 0.154386 
-0.0710224 -0.0116034 0.174162 -0.0614966 -0.00856037 0.193354 -0.0517938 -0.00574835 0.211995 
-0.0420889 -0.00322497 0.230121 -0.0325144 -0.00103947 0.247769 -0.0231573 0.000768729 0.26497 
-0.0140602 0.00217096 0.281749 -0.00522728 0.00314991 0.298124 0.00336644 0.00369976 0.314105 
0.0117643 0.0038259 0.329702 0.0200162 0.00354424 0.344921 0.0281675 0.00288014 0.359771 
0.0362506 0.00186692 0.374264 0.0442784 0.000544118 0.388417 0.0522424 -0.00104455 0.402246 
0.0601128 -0.00285327 0.415771 0.067843 -0.00483623 0.429004 0.0753755 -0.00694942 0.441951 
0.0826492 -0.00915211 0.454604 0.0896073 -0.0114078 0.46694 0.096204 -0.0136843 0.478916 
0.102409 -0.0159539 0.490474 0.108212 -0.018192 0.501544 0.113621 -0.0203757 0.512043 
0.118659 -0.0224829 0.521891 0.123363 -0.0244899 0.53101 0.127777 -0.0263708 0.539339 
0.131945 -0.028097 0.546839 0.135903 -0.0296368 0.553495 0.139679 -0.030957 0.559326 
0.143288 -0.032025 0.564376 0.14673 -0.0328111 0.568717 0.14999 -0.033292 0.572441 
0.153047 -0.0334543 0.575649 0.155872 -0.0332976 0.578447 0.158434 -0.0328367 0.58093 
0.160709 -0.0321033 0.583178 0.162679 -0.0311457 0.585249 0.16434 -0.0300274 0.587175 
0.165697 -0.0288235 0.588961 0.166767 -0.0276171 0.59059 0.167575 -0.0264929 0.592026 
0.168151 -0.0255315 0.593224 0.168526 -0.0248035 0.594138 0.168723 -0.024364 0.594728 
0.16876 -0.0242478 0.594966 
LINES 2 100
OFFSETS vtktypeint64
0 100 
CONNECTIVITY vtktypeint64
0 1 2 3 4 5 6 7 8 
9 10 11 12 13 14 15 16 17 
18 19 20 21 22 23 24 25 26 
27 28 29 30 31 32 33 34 35 
36 37 38 39 40 41 42 43 44 
45 46 47 48 49 50 51 52 53 
54 55 56 57 58 59 60 61 62 
63 64 65 66 67 68 69 70 71 
72 73 74 75 76 77 78 79 80 
81 82 83 84 85 86 87 88 89 
90 91 92 93 94 95 96 97 98 
99 
POINT_DATA 100
FIELD FieldData 3
_theta 1 100 double
0 0.031733259127 0.063466518254 0.095199777382 0.12693303651 0.15866629564 0.19039955476 0.22213281389 0.25386607302 
0.28559933214 0.31733259127 0.3490658504 0.38079910953 0.41253236865 0.44426562778 0.47599888691 0.50773214603 0.53946540516 
0.57119866429 0.60293192342 0.63466518254 0.66639844167 0.6981317008 0.72986495992 0.76159821905 0.79333147818 0.82506473731 
0.85679799643 0.88853125556 0.92026451469 0.95199777382 0.98373103294 1.0154642921 1.0471975512 1.0789308103 1.1106640695 
1.1423973286 1.1741305877 1.2058638468 1.237597106 1.2693303651 1.3010636242 1.3327968833 1.3645301425 1.3962634016 
1.4279966607 1.4597299198 1.491463179 1.5231964381 1.5549296972 1.5866629564 1.6183962155 1.6501294746 1.6818627337 
1.7135959929 1.745329252 1.7770625111 1.8087957702 1.8405290294 1.8722622885 1.9039955476 1.9357288068 1.9674620659 
1.999195325 2.0309285841 2.0626618433 2.0943951024 2.1261283615 2.1578616206 2.1895948798 2.2213281389 2.253061398 
2.2847946572 2.3165279163 2.3482611754 2.3799944345 2.4117276937 2.4434609528 2.4751942119 2.506927471 2.5386607302 
2.5703939893 2.6021272484 2.6338605076 2.6655937667 2.6973270258 2.7290602849 2.7607935441 2.7925268032 2.8242600623 
2.8559933214 2.8877265806 2.9194598397 2.9511930988 2.982926358 3.0146596171 3.0463928762 3.0781261353 3.1098593945 
3.1415926536 
_radius 1 100 double
5.6286363877e-16 0.012041954924 0.023967554368 0.035665472272 0.047044468435 0.058040204034 0.068618310252 0.078773214476 0.088522746089 
0.097899095166 0.10693727244 0.11566276964 0.12408053254 0.13216747027 0.13987037079 0.14711020566 0.15379250908 0.15982214328 
0.16511973978 0.16963673236 0.17336622555 0.1763478075 0.178665561 0.18043969747 0.18181322672 0.18293573502 0.18394659382 
0.18495977245 0.18605198546 0.18725532934 0.18855498326 0.18989203624 0.19117109896 0.19227208821 0.1930653722 0.19342917407 
0.19326763022 0.19252732637 0.1912098332 0.1893780265 0.18715484317 0.18471440796 0.18226683505 0.18003903346 0.17825412375 
0.17711153281 0.17676894347 0.17732677307 0.1788161562 0.18119222099 0.18433493848 0.1880592021 0.19213396474 0.19630796185 
0.20033785466 0.20401422831 0.20718172074 0.20975106954 0.21170245024 0.21308077766 0.21398450104 0.21454980822 0.2149321264 
0.21528655772 0.21574871229 0.21641755483 0.21734232994 0.21851587933 0.21987600074 0.22131471255 0.2226931674 0.22385870653 
0.22466069412 0.22496288048 0.22465135386 0.22363816353 0.2218613132 0.21928211124 0.21588094307 0.21165248325 0.20660123133 
0.20073804675 0.19407808565 0.18664022692 0.17844776105 0.16952986977 0.15992330884 0.14967373559 0.13883624759 0.12747485188 
0.11566074067 0.103469431 0.090977041657 0.078256187398 0.065372097502 0.052379560058 0.039321160715 0.026227071518 0.013116412616 
1.1229163878e-15 
_area 1 100 double
0 0.00045346187312 0.0017897493829 0.0039392494115 0.0067946968555 0.010223585865 0.014083831628 0.018240557912 0.022581067656 
0.027024539368 0.031523273925 0.036053900218 0.040599829916 0.045129618123 0.049578321383 0.053839048207 0.057769227225 0.061211598639 
0.064025264304 0.066118822274 0.067476361234 0.068168429396 0.068345278526 0.068216876903 0.068024568756 0.068004317169 0.068384103383 
0.069238869288 0.070474888761 0.072092271978 0.074081997108 0.076459654929 0.079158130727 0.08203094974 0.084883686164 0.087510588841 
0.089721868626 0.091362281836 0.092338234949 0.092639821651 0.092349381804 0.091633628489 0.090721480894 0.089871656474 0.089335280347 
0.08932474384 0.090001021265 0.091476035535 0.09381569004 0.097034764918 0.10108322493 0.10583026619 0.11105779192 0.11647406819 
0.12174932467 0.12656471276 0.13066119305 0.13387599768 0.13615873486 0.13756516719 0.13823309002 0.13834996811 0.138123203 
0.13775892169 0.1374470132 0.13734588988 0.13756338809 0.13813674416 0.139018924 0.14007798287 0.14111198348 0.14187737468 
0.14212531282 0.14163819615 0.14025792527 0.13789897485 0.13454386952 0.13022627837 0.12501362535 0.11899736914 0.11228767259 
0.10500606329 0.097275713113 0.089213566225 0.080928022192 0.072522271112 0.064100261758 0.055771982462 0.047656086177 0.03987871974 
0.032567825031 0.0258434858 0.019806971459 0.014532365419 0.010063895811 0.0064196727614 0.003599885426 0.0015960627678 0.00039840990671 
4.7231317366e-17 
