# vtk DataFile Version 5.1
vtk output
ASCII
DATASET POLYDATA
POINTS 100 float
0.179103 0.0510945 -0.709267 0.178974 0.0510764 -0.70918 0.178636 0.0508773 -0.708958 
0.178068 0.050511 -0.708509 0.177238 0.0499971 -0.707689 0.176107 0.0493568 -0.706323 
0.174627 0.0486076 -0.704224 0.17275 0.047759 -0.701216 0.170433 0.0468078 -0.697151 
0.167634 0.0457359 -0.691933 0.164322 0.0445089 -0.685522 0.160473 0.043078 -0.67794 
0.156069 0.0413828 -0.669268 0.151104 0.0393575 -0.659632 0.145574 0.0369369 -0.649188 
0.139484 0.0340644 -0.638102 0.13284 0.0306984 -0.626531 0.125651 0.0268195 -0.6146 
0.117932 0.0224342 -0.602394 0.109701 0.0175779 -0.589945 0.100984 0.0123144 -0.577232 
0.0918142 0.00673336 -0.564186 0.0822368 0.000945639 -0.550701 0.0723083 -0.00492368 -0.536652 
0.0620976 -0.0107428 -0.521907 0.0516851 -0.0163817 -0.506348 0.04116 -0.0217191 -0.489887 
0.0306168 -0.0266503 -0.472473 0.0201499 -0.031091 -0.454102 0.00984882 -0.0349813 -0.434809 
-0.000208042 -0.0382864 -0.414669 -0.0099574 -0.040996 -0.393785 -0.0193545 -0.0431216 -0.372267 
-0.0283741 -0.0446928 -0.350229 -0.0370095 -0.0457531 -0.327766 -0.0452689 -0.0463551 -0.304948 
-0.0531699 -0.0465562 -0.281815 -0.0607321 -0.0464147 -0.258372 -0.0679698 -0.0459868 -0.234599 
-0.0748842 -0.0453246 -0.210454 -0.0814572 -0.0444745 -0.185886 -0.0876469 -0.0434767 -0.160854 
-0.0933864 -0.042365 -0.135329 -0.0985855 -0.0411672 -0.109316 -0.103135 -0.0399048 -0.0828514 
-0.106915 -0.0385939 -0.0560138 -0.109803 -0.0372451 -0.0289164 -0.111687 -0.0358636 -0.0017027 
-0.112471 -0.0344501 0.0254637 -0.112092 -0.0330007 0.0524113 -0.110517 -0.0315086 0.078974 
-0.107757 -0.0299648 0.105003 -0.10386 -0.0283605 0.130375 -0.0989093 -0.0266889 0.155001 
-0.0930207 -0.0249478 0.178829 -0.0863296 -0.0231422 0.201837 -0.078983 -0.0212859 0.224038 
-0.0711281 -0.0194036 0.245465 -0.0629027 -0.0175309 0.266165 -0.0544274 -0.0157138 0.286193 
-0.0458 -0.0140075 0.305604 -0.0370933 -0.0124728 0.324445 -0.0283558 -0.0111729 0.342758 
-0.0196149 -0.0101688 0.360575 -0.0108832 -0.00951449 0.377921 -0.00216475 -0.00925293 0.394822 
0.00653733 -0.00941201 0.411302 0.0152142 -0.0100021 0.427393 0.0238464 -0.0110147 0.443132 
0.0324005 -0.0124227 0.458565 0.0408286 -0.0141823 0.473743 0.04907 -0.0162355 0.488717 
0.0570551 -0.0185148 0.503536 0.0647105 -0.0209471 0.518233 0.071965 -0.0234592 0.532824 
0.0787558 -0.0259812 0.547302 0.0850336 -0.0284511 0.561628 0.0907663 -0.030817 0.575736 
0.0959415 -0.0330386 0.589532 0.100566 -0.0350875 0.602898 0.104664 -0.0369469 0.615704 
0.108275 -0.0386096 0.627812 0.111447 -0.0400761 0.639091 0.114234 -0.0413526 0.649427 
0.116691 -0.0424485 0.658727 0.118867 -0.0433752 0.666933 0.120808 -0.0441445 0.674022 
0.122547 -0.0447683 0.680006 0.124111 -0.0452583 0.684935 0.125517 -0.0456267 0.688886 
0.126775 -0.0458864 0.691961 0.127892 -0.0460517 0.694279 0.128867 -0.0461389 0.695964 
0.129703 -0.046166 0.697143 0.130399 -0.0461523 0.697934 0.130957 -0.0461176 0.698444 
0.131379 -0.0460811 0.698764 0.131668 -0.0460597 0.698964 0.131827 -0.0460671 0.699096 
0.131857 -0.046112 0.699189 
LINES 2 100
OFFSETS vtktypeint64
0 100 
CONNECTIVITY vtktypeint64
0 1 2 3 4 5 6 7 8 
9 10 11 12 13 14 15 16 17 
18 19 20 21 22 23 24 25 26 
27 28 29 30 31 32 33 34 35 
36 37 38 39 40 41 42 43 44 
45 46 47 48 49 50 51 52 53 
54 55 56 57 58 59 60 61 62 
63 64 65 66 67 68 69 70 71 
72 73 74 75 76 77 78 79 80 
81 82 83 84 85 86 87 88 89 
90 91 92 93 94 95 96 97 98 
99 
POINT_DATA 100
FIELD FieldData 3
_theta 1 100 double
0 0.031733259127 0.063466518254 0.095199777382 0.12693303651 0.15866629564 0.19039955476 0.22213281389 0.25386607302 
0.28559933214 0.31733259127 0.3490658504 0.38079910953 0.41253236865 0.44426562778 0.47599888691 0.50773214603 0.53946540516 
0.57119866429 0.60293192342 0.63466518254 0.66639844167 0.6981317008 0.72986495992 0.76159821905 0.79333147818 0.82506473731 
0.85679799643 0.88853125556 0.92026451469 0.95199777382 0.98373103294 1.0154642921 1.0471975512 1.0789308103 1.1106640695 
1.1423973286 1.1741305877 1.2058638468 1.237597106 1.2693303651 1.3010636242 1.3327968833 1.3645301425 1.3962634016 
1.4279966607 1.4597299198 1.491463179 1.5231964381 1.5549296972 1.5866629564 1.6183962155 1.6501294746 1.6818627337 
1.7135959929 1.745329252 1.7770625111 1.8087957702 1.8405290294 1.8722622885 1.9039955476 1.9357288068 1.9674620659 
1.999195325 2.0309285841 2.0626618433 2.0943951024 2.1261283615 2.1578616206 2.1895948798 2.2213281389 2.253061398 
2.2847946572 2.3165279163 2.3482611754 2.3799944345 2.4117276937 2.4434609528 2.4751942119 2.506927471 2.5386607302 
2.5703939893 2.6021272484 2.6338605076 2.6655937667 2.6973270258 2.7290602849 2.7607935441 2.7925268032 2.8242600623 
2.8559933214 2.8877265806 2.9194598397 2.9511930988 2.982926358 3.0146596171 3.0463928762 3.0781261353 3.1098593945 
3.1415926536 
_radius 1 100 double
1.1181958094e-15 0.015900778781 0.031630277211 0.047020447821 0.061919710613 0.076199345736 0.089757585033 0.1025212234 0.11444478367 
0.12550742894 0.13570800323 0.14505880991 0.1535789532 0.16128819069 0.16820221318 0.17433006841 0.17967410957 0.18423244864 
0.1880035035 0.19099190306 0.19321477668 0.19470731837 0.19552651752 0.19575214692 0.19548452706 0.19483917004 0.19393897755 
0.19290505356 0.19184734024 0.19085625128 0.18999632676 0.18930267481 0.18878059013 0.18840829593 0.18814236256 0.1879251422 
0.18769358685 0.1873889709 0.18696696991 0.18640697875 0.1857188632 0.1849453965 0.18415973285 0.18345872946 0.18295386838 
0.18276160853 0.18299441449 0.18375288415 0.18511876503 0.18714851529 0.18986746224 0.19326518622 0.19729300513 0.20186415961 
0.20685680495 0.2121196306 0.21747993326 0.22275398184 0.22775924241 0.2323274845 0.23631726533 0.23962412738 0.24218716818 
0.24399128339 0.24506506221 0.2454748215 0.24531555666 0.24469971983 0.24374479162 0.24256064982 0.24123778713 0.23983748471 
0.23838505127 0.23686706698 0.23523311741 0.23340177916 0.23126982928 0.22872308568 0.22564716142 0.22193675757 0.21750275764 
0.21227702936 0.20621520665 0.19929771324 0.19152904577 0.18293514058 0.17355871232 0.16345280303 0.15267330623 0.14127174579 
0.12928987123 0.1167574721 0.10369415778 0.090114875076 0.076037975141 0.06149397949 0.046532973432 0.031228809325 0.015678982774 
3.8447471547e-16 
_area 1 100 double
0 0.00055590350251 0.0022182480143 0.0049676662402 0.0087622087018 0.013526987432 0.01914676922 0.025465396006 0.032293317569 
0.03942152965 0.046638151135 0.053743364333 0.060559433838 0.066934551839 0.072741577432 0.077874430058 0.082245273953 0.085784678872 
0.088445327042 0.090208363795 0.09109057376 0.091150152451 0.090488760212 0.089247889501 0.087598662651 0.085725888492 0.083808634268 
0.082000096181 0.080410371547 0.07909845067 0.078079338551 0.077342844817 0.076875256198 0.076676518364 0.076767829656 0.077188846973 
0.077982883441 0.079163549619 0.080679983863 0.082437548612 0.084350135131 0.08635442695 0.088398855568 0.090443321273 0.092470450607 
0.09449527683 0.096570878643 0.098789808102 0.10127234556 0.10413589473 0.10748546872 0.11141749156 0.11599972703 0.12124443988 
0.12709038821 0.13339817173 0.13995885559 0.14651256931 0.15277243966 0.15845066801 0.16328512949 0.16706444535 0.16964847244 
0.1709813479 0.17109540853 0.17010552437 0.16819405992 0.16558708259 0.16252393474 0.15922559231 0.1558694954 0.15257554464 
0.1494018068 0.14634597201 0.143350896 0.14031486253 0.13710636229 0.13358055799 0.12959398626 0.12501718556 0.11974799121 
0.11372646189 0.10694821345 0.099471504818 0.091414935998 0.082944965924 0.074254803188 0.065538640083 0.056967678317 0.04867564575 
0.040758871534 0.033289205895 0.026332190857 0.019962578069 0.014272854919 0.0093737138073 0.0053870555707 0.0024331141412 0.00061438488442 
3.5831831201e-17 
