# vtk DataFile Version 5.1
vtk output
ASCII
DATASET POLYDATA
POINTS 100 float
0.148909 -0.0180564 0.663292 0.149013 -0.0180778 0.663331 0.149357 -0.0180231 0.66329 
0.149869 -0.0179048 0.663131 0.150438 -0.0177418 0.662797 0.150929 -0.0175577 0.662213 
0.1512 -0.0173781 0.661287 0.151121 -0.0172282 0.659922 0.150584 -0.01713 0.658013 
0.149522 -0.0170996 0.65546 0.147909 -0.0171457 0.652168 0.145762 -0.0172681 0.648056 
0.143137 -0.0174574 0.643059 0.140113 -0.0176952 0.637135 0.13678 -0.0179551 0.630264 
0.133223 -0.0182047 0.622451 0.129506 -0.0184079 0.613726 0.125665 -0.0185273 0.604142 
0.121695 -0.0185269 0.593769 0.117555 -0.0183751 0.582696 0.113173 -0.018047 0.571018 
0.108455 -0.0175266 0.558837 0.103301 -0.0168087 0.54625 0.0976203 -0.0158998 0.533348 
0.0913479 -0.014819 0.520211 0.0844545 -0.0135977 0.506897 0.0769544 -0.0122789 0.493449 
0.0689066 -0.0109155 0.479887 0.0604095 -0.00956875 0.46621 0.0515902 -0.00830473 0.452397 
0.04259 -0.00719154 0.438409 0.0335478 -0.00629542 0.424193 0.024584 -0.00567687 0.409688 
0.0157877 -0.00538686 0.394822 0.00720766 -0.00546337 0.379525 -0.00114916 -0.00592853 0.363725 
-0.00931381 -0.00678677 0.347356 -0.0173447 -0.00802418 0.330361 -0.0253128 -0.00960911 0.312687 
-0.0332837 -0.0114944 0.294296 -0.0412999 -0.0136206 0.275159 -0.049366 -0.015921 0.255259 
-0.0574377 -0.0183263 0.234592 -0.0654176 -0.0207711 0.213168 -0.0731588 -0.0231985 0.191007 
-0.0804744 -0.0255654 0.168145 -0.0871536 -0.0278453 0.144631 -0.0929818 -0.0300304 0.120528 
-0.0977619 -0.0321304 0.0959122 -0.101334 -0.0341706 0.0708724 -0.103592 -0.0361873 0.0455086 
-0.104493 -0.0382216 0.0199294 -0.104062 -0.0403124 -0.00575086 -0.102383 -0.0424896 -0.0314158 
-0.0995932 -0.0447671 -0.0569517 -0.0958598 -0.047137 -0.0822515 -0.0913629 -0.0495668 -0.107219 
-0.0862735 -0.0519974 -0.131775 -0.0807347 -0.054345 -0.155856 -0.0748476 -0.0565052 -0.17942 
-0.0686634 -0.0583588 -0.202445 -0.0621832 -0.0597798 -0.224929 -0.0553645 -0.0606446 -0.246885 
-0.0481341 -0.0608406 -0.268339 -0.0404061 -0.0602742 -0.289325 -0.0321009 -0.0588777 -0.309877 
-0.0231643 -0.0566132 -0.330025 -0.0135831 -0.0534747 -0.349789 -0.0033964 -0.0494871 -0.369177 
0.00730084 -0.0447028 -0.388178 0.01836 -0.0391967 -0.406765 0.029588 -0.0330595 -0.424893 
0.0407624 -0.0263902 -0.442506 0.0516484 -0.0192902 -0.459537 0.0620187 -0.0118566 -0.475917 
0.0716711 -0.00417804 -0.491582 0.0804436 0.0036672 -0.506478 0.0882237 0.0116122 -0.520566 
0.0949535 0.0196001 -0.53383 0.100628 0.027581 -0.546279 0.105289 0.0355093 -0.557944 
0.109013 0.0433395 -0.568881 0.111902 0.0510237 -0.579165 0.114068 0.0585095 -0.588883 
0.115621 0.0657396 -0.598128 0.116663 0.0726527 -0.606989 0.117281 0.0791862 -0.615543 
0.117541 0.0852797 -0.623848 0.1175 0.0908793 -0.631934 0.117201 0.0959417 -0.6398 
0.116681 0.100438 -0.647413 0.115981 0.104355 -0.654708 0.115144 0.107697 -0.661591 
0.114224 0.110485 -0.667944 0.113282 0.112753 -0.673637 0.112384 0.114542 -0.678535 
0.111597 0.115897 -0.68251 0.110983 0.116861 -0.685449 0.110592 0.117468 -0.687262 
0.110456 0.117739 -0.687894 
LINES 2 100
OFFSETS vtktypeint64
0 100 
CONNECTIVITY vtktypeint64
0 1 2 3 4 5 6 7 8 
9 10 11 12 13 14 15 16 17 
18 19 20 21 22 23 24 25 26 
27 28 29 30 31 32 33 34 35 
36 37 38 39 40 41 42 43 44 
45 46 47 48 49 50 51 52 53 
54 55 56 57 58 59 60 61 62 
63 64 65 66 67 68 69 70 71 
72 73 74 75 76 77 78 79 80 
81 82 83 84 85 86 87 88 89 
90 91 92 93 94 95 96 97 98 
99 
POINT_DATA 100
FIELD FieldData 3
_theta 1 100 double
0 0.031733259127 0.063466518254 0.095199777382 0.12693303651 0.15866629564 0.19039955476 0.22213281389 0.25386607302 
0.28559933214 0.31733259127 0.3490658504 0.38079910953 0.41253236865 0.44426562778 0.47599888691 0.50773214603 0.53946540516 
0.57119866429 0.60293192342 0.63466518254 0.66639844167 0.6981317008 0.72986495992 0.76159821905 0.79333147818 0.82506473731 
0.85679799643 0.88853125556 0.92026451469 0.95199777382 0.98373103294 1.0154642921 1.0471975512 1.0789308103 1.1106640695 
1.1423973286 1.1741305877 1.2058638468 1.237597106 1.2693303651 1.3010636242 1.3327968833 1.3645301425 1.3962634016 
1.4279966607 1.4597299198 1.491463179 1.5231964381 1.5549296972 1.5866629564 1.6183962155 1.6501294746 1.6818627337 
1.7135959929 1.745329252 1.7770625111 1.8087957702 1.8405290294 1.8722622885 1.9039955476 1.9357288068 1.9674620659 
1.999195325 2.0309285841 2.0626618433 2.0943951024 2.1261283615 2.1578616206 2.1895948798 2.2213281389 2.253061398 
2.2847946572 2.3165279163 2.3482611754 2.3799944345 2.4117276937 2.4434609528 2.4751942119 2.506927471 2.5386607302 
2.5703939893 2.6021272484 2.6338605076 2.6655937667 2.6973270258 2.7290602849 2.7607935441 2.7925268032 2.8242600623 
2.8559933214 2.8877265806 2.9194598397 2.9511930988 2.982926358 3.0146596171 3.0463928762 3.0781261353 3.1098593945 
3.1415926536 
_radius 1 100 double
1.1382377215e-15 0.015828751458 0.031615255421 0.047312505612 0.062869040314 0.078226403983 0.093316709784 0.10806106211 0.12236968516 
0.13614439858 0.14928364866 0.16168974731 0.17327741646 0.18398232172 0.19376812817 0.20263077168 0.21059906764 0.21773137583 
0.2241086964 0.22982518694 0.23497755957 0.23965502363 0.24393128844 0.24785963311 0.25147132172 0.2547769283 0.25776965431 
0.26042957886 0.26272795167 0.26463099852 0.26610308916 0.26710935498 0.267617872 0.26760142475 0.26703879598 0.26591558786 
0.26422474488 0.26196711497 0.25915245129 0.2558011822 0.25194707986 0.24764068372 0.24295302223 0.2379788537 0.23283837009 
0.22767618208 0.22265655637 0.21795438527 0.21374221726 0.21017473967 0.20737311601 0.20541211376 0.20431256037 0.20404023943 
0.20451047567 0.20559638583 0.20713875456 0.20895647778 0.21085762792 0.21265168267 0.21416311927 0.21524570246 0.21579588017 
0.2157631652 0.2151554229 0.21403759247 0.21252340975 0.21076094786 0.20891391099 0.20714123024 0.20557744572 0.20431582 
0.2033955561 0.20279418415 0.20242605107 0.20214756773 0.20176919965 0.20107318275 0.19983490172 0.19784513855 0.19493021761 
0.19096746806 0.18589423553 0.1797096647 0.17246943334 0.16427442946 0.15525499047 0.14555277851 0.13530266571 0.12461712787 
0.11357551338 0.1022200352 0.090559327636 0.078578968849 0.066256790009 0.05357956597 0.040557292229 0.027231887174 0.013678584721 
9.3245965879e-16 
_area 1 100 double
0 0.00060601039249 0.0024098118284 0.0053703470276 0.0094242564621 0.014492317961 0.020486371485 0.027314758282 0.034883718434 
0.043092620842 0.051823962506 0.060934068649 0.070252426381 0.079593045516 0.088774149225 0.097639008091 0.1060719862 0.1140073943 
0.12143182687 0.12838143675 0.13493395286 0.14119339814 0.14726657884 0.15323542883 0.15913454879 0.16494295385 0.17059196713 
0.17598304871 0.18100643049 0.18555474548 0.1895308188 0.19285037283 0.19543943344 0.1972275304 0.19814154538 0.19810605466 
0.19705239143 0.19493450786 0.19174759289 0.18754414694 0.1824411768 0.17661270496 0.17026690087 0.16361768914 0.15686671287 
0.15020055564 0.14379181316 0.13779262255 0.13232145888 0.12745158826 0.12320789084 0.11957375255 0.11650668705 0.11395965089 
0.11189950034 0.11028797985 0.10902097423 0.10796296796 0.1069978481 0.10601905988 0.10491658388 0.10358056811 0.10191930777 
0.099887675477 0.097515672786 0.094918926294 0.092275125151 0.089782388419 0.08762380836 0.085940303453 0.084823692367 0.084320813144 
0.084431537838 0.085098325655 0.086196442757 0.087534780426 0.088871109604 0.089937870742 0.090471957199 0.090243931795 0.089083338783 
0.086896466279 0.08367330115 0.079482301583 0.074454285708 0.06875914602 0.062580502484 0.056093673921 0.049451681332 0.04278217961 
0.036194753102 0.029793858695 0.023690703866 0.018009079363 0.012883802582 0.0084533244829 0.0048493134232 0.0021859916367 0.00055118642115 
8.6952173754e-17 
