# vtk DataFile Version 5.1
vtk output
ASCII
DATASET POLYDATA
POINTS 100 float
0.153034 -0.0132677 0.655168 0.153007 -0.0131414 0.654915 0.152889 -0.0128883 0.654319 
0.152669 -0.0125195 0.653366 0.152332 -0.0120525 0.652034 0.151857 -0.0115111 0.650291 
0.151223 -0.0109235 0.648099 0.150409 -0.0103207 0.645413 0.149397 -0.0097348 0.642188 
0.14817 -0.00919662 0.638381 0.146714 -0.00873389 0.633951 0.145015 -0.00836912 0.628868 
0.143056 -0.00811788 0.623113 0.14082 -0.00798742 0.616682 0.138279 -0.00797572 0.609588 
0.135403 -0.00807122 0.601859 0.13215 -0.00825309 0.593537 0.128478 -0.00849227 0.584677 
0.124338 -0.00875317 0.575341 0.119689 -0.00899587 0.565592 0.114496 -0.00917887 0.555491 
0.10874 -0.00926206 0.545088 0.102422 -0.00920979 0.534422 0.0955682 -0.00899379 0.523513 
0.0882297 -0.00859566 0.512369 0.0804831 -0.00800878 0.500979 0.0724257 -0.00723945 0.489322 
0.0641685 -0.00630709 0.477368 0.055827 -0.00524352 0.465087 0.0475105 -0.00409134 0.452452 
0.0393115 -0.00290143 0.439444 0.0312959 -0.0017299 0.426057 0.0234964 -0.000634615 0.412298 
0.0159078 0.00032841 0.398185 0.0084887 0.00110837 0.383744 0.00116526 0.00166259 0.369003 
-0.006159 0.00195878 0.353985 -0.0135911 0.00197632 0.338702 -0.0212338 0.00170662 0.323146 
-0.0291709 0.00115247 0.307288 -0.0374527 0.000326519 0.291074 -0.0460847 -0.000751041 0.274428 
-0.0550205 -0.0020552 0.257257 -0.0641593 -0.0035591 0.239459 -0.0733492 -0.00523686 0.220934 
-0.0823953 -0.00706602 0.201597 -0.0910733 -0.00902934 0.181389 -0.099145 -0.0111157 0.160286 
-0.106377 -0.01332 0.138307 -0.112556 -0.0156426 0.115519 -0.11751 -0.018087 0.0920303 
-0.121114 -0.0206578 0.0679917 -0.123302 -0.0233578 0.0435803 -0.124067 -0.026185 0.0189889 
-0.123461 -0.0291298 -0.00558897 -0.121583 -0.0321731 -0.0299742 -0.11857 -0.0352846 -0.0540149 
-0.114586 -0.0384223 -0.0775961 -0.109798 -0.0415333 -0.100646 -0.104371 -0.0445551 -0.123134 
-0.0984507 -0.047418 -0.145072 -0.0921571 -0.0500487 -0.166499 -0.0855776 -0.0523737 -0.187476 
-0.0787669 -0.0543232 -0.20807 -0.0717501 -0.0558348 -0.22834 -0.0645286 -0.0568572 -0.248331 
-0.0570882 -0.0573524 -0.268061 -0.0494086 -0.057298 -0.28752 -0.0414724 -0.0566876 -0.306671 
-0.0332731 -0.0555314 -0.325453 -0.0248215 -0.0538547 -0.343792 -0.0161486 -0.0516964 -0.361606 
-0.00730749 -0.0491063 -0.378823 0.00162866 -0.046143 -0.395382 0.01057 -0.0428704 -0.411247 
0.0194147 -0.0393551 -0.426405 0.0280551 -0.0356637 -0.440868 0.0363829 -0.0318606 -0.454667 
0.044295 -0.0280061 -0.467843 0.0516978 -0.0241552 -0.480439 0.0585106 -0.0203569 -0.492488 
0.0646677 -0.0166535 -0.504002 0.0701202 -0.013081 -0.514967 0.0748361 -0.00966908 -0.525342 
0.0788004 -0.00644156 -0.535056 0.0820152 -0.00341706 -0.54402 0.0844989 -0.000609457 -0.552131 
0.0862861 0.00197159 -0.559294 0.0874271 0.00432014 -0.565426 0.087987 0.00643346 -0.570479 
0.088045 0.0083117 -0.574446 0.0876918 0.00995733 -0.577368 0.0870279 0.0113748 -0.579337 
0.0861592 0.01257 -0.58049 0.0851933 0.0135496 -0.580996 0.0842339 0.0143208 -0.581048 
0.0833759 0.0148905 -0.580838 0.0826998 0.0152649 -0.580541 0.0822669 0.0154491 -0.580297 
0.0821157 0.0154465 -0.580196 
LINES 2 100
OFFSETS vtktypeint64
0 100 
CONNECTIVITY vtktypeint64
0 1 2 3 4 5 6 7 8 
9 10 11 12 13 14 15 16 17 
18 19 20 21 22 23 24 25 26 
27 28 29 30 31 32 33 34 35 
36 37 38 39 40 41 42 43 44 
45 46 47 48 49 50 51 52 53 
54 55 56 57 58 59 60 61 62 
63 64 65 66 67 68 69 70 71 
72 73 74 75 76 77 78 79 80 
81 82 83 84 85 86 87 88 89 
90 91 92 93 94 95 96 97 98 
99 
POINT_DATA 100
FIELD FieldData 3
_theta 1 100 double
0 0.031733259127 0.063466518254 0.095199777382 0.12693303651 0.15866629564 0.19039955476 0.22213281389 0.25386607302 
0.28559933214 0.31733259127 0.3490658504 0.38079910953 0.41253236865 0.44426562778 0.47599888691 0.50773214603 0.53946540516 
0.57119866429 0.60293192342 0.63466518254 0.66639844167 0.6981317008 0.72986495992 0.76159821905 0.79333147818 0.82506473731 
0.85679799643 0.88853125556 0.92026451469 0.95199777382 0.98373103294 1.0154642921 1.0471975512 1.0789308103 1.1106640695 
1.1423973286 1.1741305877 1.2058638468 1.237597106 1.2693303651 1.3010636242 1.3327968833 1.3645301425 1.3962634016 
1.4279966607 1.4597299198 1.491463179 1.5231964381 1.5549296972 1.5866629564 1.6183962155 1.6501294746 1.6818627337 
1.7135959929 1.745329252 1.7770625111 1.8087957702 1.8405290294 1.8722622885 1.9039955476 1.9357288068 1.9674620659 
1.999195325 2.0309285841 2.0626618433 2.0943951024 2.1261283615 2.1578616206 2.1895948798 2.2213281389 2.253061398 
2.2847946572 2.3165279163 2.3482611754 2.3799944345 2.4117276937 2.4434609528 2.4751942119 2.506927471 2.5386607302 
2.5703939893 2.6021272484 2.6338605076 2.6655937667 2.6973270258 2.7290602849 2.7607935441 2.7925268032 2.8242600623 
2.8559933214 2.8877265806 2.9194598397 2.9511930988 2.982926358 3.0146596171 3.0463928762 3.0781261353 3.1098593945 
3.1415926536 
_radius 1 100 double
1.0532514691e-15 0.015053717245 0.029994237604 0.044720260573 0.059143755735 0.073195125907 0.086826634518 0.10001329539 0.11275068817 
0.12504976497 0.13692945992 0.1484084841 0.15949784797 0.17019538805 0.18048304377 0.19032702439 0.19968047472 0.20848789919 
0.21669049825 0.22423169348 0.23106236562 0.23714555957 0.24246050811 0.24700577309 0.25080116863 0.25388803383 0.25632745819 
0.25819626245 0.2595808624 0.26056950976 0.26124371856 0.26166987259 0.26189203608 0.26192687345 0.26176138169 0.26135390651 
0.26063867198 0.25953377268 0.25795220786 0.25581506501 0.25306545601 0.24968142288 0.24568591093 0.24115212299 0.23620307523 
0.2310048723 0.22575401735 0.22065992792 0.21592472324 0.21172319943 0.20818644615 0.20539228403 0.2033641659 0.20207757713 
0.20147048212 0.20145358981 0.20191784397 0.20273957332 0.20378603786 0.20492404297 0.2060320544 0.20701362132 0.20780862015 
0.20839930008 0.20880970665 0.20909884971 0.209349195 0.2096523785 0.21009378323 0.21073737605 0.21161225865 0.21270256232 
0.21394228624 0.21521624582 0.21636746456 0.21721028697 0.21754747931 0.21718887419 0.21596887491 0.21376041244 0.21048364713 
0.20610863447 0.20065211021 0.19416932369 0.18674237143 0.17846674737 0.16943787628 0.15973929837 0.14943396695 0.13855979648 
0.12713010709 0.11513892922 0.10257033243 0.089410207551 0.075658466145 0.061339549876 0.046509459276 0.031258118272 0.015706657477 
1.4244105939e-15 
_area 1 100 double
0 0.00059536730555 0.0023573021635 0.0052177367223 0.0090769469532 0.013820623302 0.019337386524 0.025531936803 0.032330144125 
0.039675311015 0.047518468106 0.055807584137 0.064479681172 0.073457297881 0.082648745257 0.091950975983 0.10125393892 0.11044518073 
0.11941340591 0.12805087351 0.13625688663 0.14394519158 0.15105458568 0.15755804986 0.16346571748 0.16881929556 0.17367703896 
0.17809183088 0.18209265558 0.18568037401 0.18883644784 0.19153526307 0.19375452961 0.19548216929 0.19670438228 0.197351276 
0.19728825093 0.19639790766 0.1945486797 0.19161714427 0.1877885031 0.18290279764 0.1770906357 0.17055132003 0.16350550058 
0.15620777422 0.14892051026 0.1419043963 0.13540561007 0.12963805985 0.12475403453 0.12079632819 0.1176671504 0.1151783675 
0.11314582476 0.11141493592 0.1098301579 0.10827740523 0.10671825814 0.10518104652 0.10373785307 0.10244696499 0.10128675357 
0.10018752214 0.099107762556 0.098056748866 0.097106751717 0.096386918141 0.095950863848 0.095965920005 0.096599797783 0.098158382753 
0.10040027935 0.10309691734 0.10597029532 0.10871475319 0.1110155993 0.11257487459 0.11313727737 0.11251197301 0.11058735337 
0.10733736267 0.10281913295 0.097162305243 0.090551147831 0.083201821662 0.075338603969 0.067173732382 0.058894960563 0.050662756396 
0.042616053268 0.034882844233 0.027590766771 0.020873513964 0.014870981135 0.0097235811428 0.0055630994974 0.002503026376 0.0006304232244 
2.3201926491e-17 
