# vtk DataFile Version 5.1
vtk output
ASCII
DATASET POLYDATA
POINTS 100 float
0.108433 0.0414242 -0.586524 0.10872 0.0411082 -0.586688 0.10954 0.0403658 -0.587158 
0.110814 0.0392346 -0.587812 0.112425 0.0377714 -0.588461 0.114221 0.0360458 -0.588869 
0.116031 0.0341322 -0.588781 0.11768 0.0321009 -0.587953 0.119 0.03001 -0.586173 
0.119843 0.0278989 -0.583287 0.120088 0.025784 -0.579207 0.119646 0.0236574 -0.57392 
0.11846 0.021488 -0.56748 0.116501 0.0192266 -0.559998 0.113762 0.0168125 -0.551619 
0.110254 0.0141821 -0.542503 0.105996 0.0112779 -0.532801 0.101009 0.0080579 -0.522638 
0.0953166 0.00450225 -0.512094 0.0889407 0.000619087 -0.501199 0.0819038 -0.00355338 -0.489936 
0.0742333 -0.00794752 -0.478243 0.0659662 -0.0124701 -0.466031 0.0571541 -0.0170086 -0.453197 
0.0478673 -0.0214399 -0.439645 0.0381964 -0.0256395 -0.425299 0.0282514 -0.0294916 -0.410116 
0.0181574 -0.0328977 -0.394093 0.00804834 -0.0357837 -0.377265 -0.00194231 -0.0381048 -0.359701 
-0.0116909 -0.0398476 -0.34149 -0.0210929 -0.0410294 -0.32273 -0.0300695 -0.0416941 -0.303508 
-0.0385722 -0.0419073 -0.283894 -0.0465829 -0.0417485 -0.263925 -0.0541092 -0.0413032 -0.243605 
-0.0611776 -0.0406551 -0.222905 -0.067822 -0.0398789 -0.201774 -0.0740721 -0.0390349 -0.180147 
-0.0799413 -0.0381648 -0.157965 -0.0854172 -0.0372908 -0.135189 -0.0904548 -0.0364157 -0.111811 
-0.0949754 -0.035526 -0.0878693 -0.09887 -0.0345955 -0.0634489 -0.102008 -0.033591 -0.0386801 
-0.104248 -0.0324776 -0.0137303 -0.105457 -0.031224 0.0112097 -0.105522 -0.0298078 0.0359425 
-0.104368 -0.028219 0.060282 -0.101966 -0.0264623 0.0840695 -0.0983425 -0.024558 0.107186 
-0.093578 -0.0225417 0.129561 -0.0878012 -0.0204617 0.151169 -0.0811789 -0.0183766 0.172028 
-0.0738996 -0.0163508 0.192187 -0.0661564 -0.0144509 0.211711 -0.0581287 -0.0127403 0.230666 
-0.0499668 -0.0112761 0.249101 -0.0417801 -0.0101044 0.267043 -0.0336311 -0.00925826 0.284485 
-0.0255356 -0.00875498 0.301388 -0.017469 -0.00859548 0.317688 -0.00937806 -0.0087641 0.33331 
-0.00119609 -0.00922965 0.348178 0.00714049 -0.00994719 0.362236 0.0156761 -0.0108608 0.375463 
0.0244231 -0.0119066 0.387881 0.0333533 -0.0130167 0.399564 0.0423959 -0.0141231 0.410635 
0.051441 -0.0151611 0.421257 0.0603488 -0.0160735 0.431616 0.0689637 -0.0168133 0.441903 
0.0771306 -0.0173465 0.452291 0.084711 -0.0176535 0.46291 0.0915982 -0.0177299 0.473832 
0.097728 -0.0175862 0.485061 0.103084 -0.0172467 0.496521 0.107699 -0.0167471 0.508069 
0.111647 -0.0161319 0.519503 0.115033 -0.0154509 0.530582 0.117978 -0.0147559 0.541051 
0.120607 -0.0140969 0.550666 0.12303 -0.0135188 0.55922 0.125332 -0.0130589 0.566561 
0.127562 -0.012745 0.572608 0.129738 -0.0125936 0.577354 0.13184 -0.01261 0.580864 
0.133825 -0.0127887 0.583267 0.135633 -0.0131144 0.584736 0.137202 -0.0135636 0.585471 
0.138479 -0.014107 0.585675 0.139435 -0.014711 0.585538 0.140063 -0.0153406 0.585221 
0.140391 -0.015961 0.584844 0.140471 -0.016539 0.58449 0.140377 -0.0170448 0.584197 
0.140193 -0.017453 0.583978 0.140002 -0.0177427 0.583822 0.139873 -0.0178986 0.583713 
0.139852 -0.017911 0.583636 
LINES 2 100
OFFSETS vtktypeint64
0 100 
CONNECTIVITY vtktypeint64
0 1 2 3 4 5 6 7 8 
9 10 11 12 13 14 15 16 17 
18 19 20 21 22 23 24 25 26 
27 28 29 30 31 32 33 34 35 
36 37 38 39 40 41 42 43 44 
45 46 47 48 49 50 51 52 53 
54 55 56 57 58 59 60 61 62 
63 64 65 66 67 68 69 70 71 
72 73 74 75 76 77 78 79 80 
81 82 83 84 85 86 87 88 89 
90 91 92 93 94 95 96 97 98 
99 
POINT_DATA 100
FIELD FieldData 3
_theta 1 100 double
0 0.031733259127 0.063466518254 0.095199777382 0.12693303651 0.15866629564 0.19039955476 0.22213281389 0.25386607302 
0.28559933214 0.31733259127 0.3490658504 0.38079910953 0.41253236865 0.44426562778 0.47599888691 0.50773214603 0.53946540516 
0.57119866429 0.60293192342 0.63466518254 0.66639844167 0.6981317008 0.72986495992 0.76159821905 0.79333147818 0.82506473731 
0.85679799643 0.88853125556 0.92026451469 0.95199777382 0.98373103294 1.0154642921 1.0471975512 1.0789308103 1.1106640695 
1.1423973286 1.1741305877 1.2058638468 1.237597106 1.2693303651 1.3010636242 1.3327968833 1.3645301425 1.3962634016 
1.4279966607 1.4597299198 1.491463179 1.5231964381 1.5549296972 1.5866629564 1.6183962155 1.6501294746 1.6818627337 
1.7135959929 1.745329252 1.7770625111 1.8087957702 1.8405290294 1.8722622885 1.9039955476 1.9357288068 1.9674620659 
1.999195325 2.0309285841 2.0626618433 2.0943951024 2.1261283615 2.1578616206 2.1895948798 2.2213281389 2.253061398 
2.2847946572 2.3165279163 2.3482611754 2.3799944345 2.4117276937 2.4434609528 2.4751942119 2.506927471 2.5386607302 
2.5703939893 2.6021272484 2.6338605076 2.6655937667 2.6973270258 2.7290602849 2.7607935441 2.7925268032 2.8242600623 
2.8559933214 2.8877265806 2.9194598397 2.9511930988 2.982926358 3.0146596171 3.0463928762 3.0781261353 3.1098593945 
3.1415926536 
_radius 1 100 double
1.8888581794e-16 0.01423999016 0.028333920871 0.042156816934 0.055607934992 0.068616655058 0.081142641409 0.093170401689 0.10469959634 
0.11573332516 0.12626685872 0.1362788596 0.14572633197 0.15454375141 0.16264629835 0.16993681381 0.17631584469 0.18169384266 
0.18600425044 0.18921593427 0.19134326354 0.19245212915 0.19266038509 0.19213169182 0.19106263322 0.18966425904 0.18814064515 
0.18666819536 0.18537963394 0.18435554476 0.18362409278 0.18316720509 0.18293031007 0.18283333426 0.18278225366 0.18268155422 
0.18244765417 0.18202216348 0.18138277922 0.18054923421 0.17958224557 0.17857499016 0.17763915821 0.17689013294 0.17643644431 
0.17637616261 0.17679863374 0.1777868183 0.17941529754 0.18174157378 0.18479229124 0.18854945639 0.19294263918 0.19785097974 
0.20311512991 0.20855600929 0.21399548991 0.21927410544 0.22426241047 0.22886494151 0.23301786102 0.23668264198 0.23983842014 
0.24247508935 0.2445882178 0.24617588207 0.2472369489 0.24777032301 0.24777504948 0.24725152524 0.24620406872 0.2446445784 
0.24259617126 0.24009498954 0.23718829464 0.2339277869 0.2303586491 0.22650657586 0.22236628576 0.21789509815 0.21301394169 
0.20761610007 0.2015819003 0.19479613159 0.18716460045 0.17862683919 0.16916326918 0.15879659414 0.14758836872 0.13563222239 
0.12304511034 0.10995752963 0.096503289017 0.082809373493 0.068986635187 0.055122259389 0.041275009304 0.027474052671 0.013721726404 
6.9563085567e-16 
_area 1 100 double
0 0.00053478185216 0.0021092004938 0.0046409932993 0.0080165929995 0.012120079219 0.016858869925 0.022172891754 0.028023004808 
0.03436806214 0.041142546717 0.048241289029 0.055514338498 0.062772264929 0.069798251936 0.076361593834 0.082229616527 0.087179385959 
0.091012845638 0.093577369012 0.094789844631 0.094659145922 0.093300467682 0.09093561867 0.087875944024 0.084488778924 0.081153102857 
0.078214759873 0.075955031298 0.074574670683 0.074166662407 0.074647067302 0.075817317195 0.077454257847 0.079334347224 0.081249269522 
0.083029557222 0.084565856352 0.085817971946 0.086805341159 0.087581027664 0.088204280878 0.088726145436 0.089189220852 0.089637859151 
0.090136431982 0.090792018595 0.091775497462 0.093329452903 0.095738188369 0.09923307654 0.1038767004 0.10954795013 0.11602457194 
0.12305401971 0.13038257032 0.13776457801 0.14496923545 0.15179011182 0.15805424444 0.16362552059 0.16840127929 0.17230643666 
0.1752909382 0.17733267167 0.17844199342 0.17866095937 0.17805332652 0.17668815923 0.17462519256 0.17191020733 0.16858328913 
0.1646950837 0.1603209434 0.15556343332 0.15053898491 0.14535126175 0.14005991511 0.13465702237 0.12906177598 0.12313700487 
0.11672351569 0.10968334093 0.101940433 0.093507385434 0.084490741551 0.075074702746 0.06549057273 0.055983595282 0.04678744715 
0.038109975943 0.030126700517 0.022976657817 0.016758458842 0.011528319014 0.007302953355 0.0040685465529 0.0017942083022 0.00044629739022 
6.2638433662e-17 
