# vtk DataFile Version 5.1
vtk output
ASCII
DATASET POLYDATA
POINTS 100 float
0.104709 -0.0108501 -0.537956 0.104349 -0.0108621 -0.538011 0.103234 -0.0107825 -0.538072 
0.101409 -0.0106409 -0.538066 0.0989453 -0.0104818 -0.537881 0.0959324 -0.0103595 -0.537382 
0.0924696 -0.0103308 -0.536419 0.0886561 -0.0104481 -0.534852 0.0845811 -0.0107529 -0.532555 
0.0803139 -0.0112713 -0.529437 0.0758966 -0.0120114 -0.525442 0.071339 -0.0129633 -0.520552 
0.0666169 -0.0141019 -0.514784 0.0616745 -0.0153917 -0.508182 0.0564298 -0.016793 -0.500803 
0.0507836 -0.0182693 -0.492708 0.0446314 -0.0197928 -0.483947 0.0378767 -0.0213508 -0.474553 
0.030444 -0.0229473 -0.464533 0.0222909 -0.0246041 -0.45387 0.0134179 -0.0263576 -0.442524 
0.00387359 -0.0282532 -0.430442 -0.00624433 -0.0303382 -0.417566 -0.0167936 -0.0326527 -0.403843 
-0.0275964 -0.0352207 -0.389241 -0.038453 -0.0380422 -0.37375 -0.0491582 -0.0410878 -0.357391 
-0.0595186 -0.0442952 -0.340212 -0.0693694 -0.0475705 -0.322285 -0.0785889 -0.0507921 -0.303699 
-0.0871072 -0.0538185 -0.284545 -0.094911 -0.0564984 -0.264908 -0.10204 -0.0586829 -0.244852 
-0.108577 -0.0602374 -0.224416 -0.114637 -0.0610535 -0.203611 -0.120341 -0.0610581 -0.182415 
-0.125804 -0.0602199 -0.160789 -0.131106 -0.0585519 -0.13868 -0.136282 -0.0561104 -0.11604 
-0.141304 -0.0529898 -0.0928388 -0.146079 -0.0493141 -0.0690791 -0.150453 -0.0452272 -0.0448064 
-0.154216 -0.0408806 -0.0201152 -0.157126 -0.0364221 0.00485102 -0.158929 -0.0319857 0.0299066 
-0.159387 -0.0276835 0.0548361 -0.158299 -0.0236004 0.0794107 -0.15553 -0.0197927 0.103409 
-0.151025 -0.016289 0.126634 -0.14482 -0.0130943 0.148934 -0.13704 -0.0101966 0.170213 
-0.127894 -0.00757351 0.190439 -0.117652 -0.00520024 0.209643 -0.106631 -0.00305571 0.227912 
-0.0951569 -0.00112762 0.245377 -0.0835443 0.000584847 0.262194 -0.072066 0.00207078 0.278529 
-0.0609337 0.00330962 0.294531 -0.0502839 0.00427526 0.310322 -0.0401733 0.00494141 0.325985 
-0.030582 0.00528756 0.341552 -0.0214266 0.00530457 0.357013 -0.012578 0.00499925 0.372315 
-0.00388421 0.00439705 0.387381 0.00480572 0.00354262 0.402117 0.0136202 0.00249806 0.416436 
0.0226473 0.00133893 0.430266 0.031924 0.000148517 0.443565 0.0414323 -0.000989058 0.456326 
0.0511028 -0.0019961 0.468578 0.0608256 -0.00280816 0.480379 0.0704657 -0.00337966 0.491813 
0.0798807 -0.00368768 0.502968 0.088939 -0.00373353 0.51393 0.0975357 -0.00354188 0.524765 
0.105604 -0.00315764 0.535507 0.113119 -0.00264088 0.546155 0.1201 -0.00206036 0.55667 
0.126598 -0.00148644 0.566978 0.132692 -0.000984045 0.576979 0.138464 -0.000606468 0.586558 
0.143993 -0.000390617 0.5956 0.149335 -0.000354174 0.604004 0.154516 -0.000494896 0.611694 
0.159527 -0.000792035 0.618625 0.164321 -0.00120966 0.624793 0.168825 -0.00170147 0.630225 
0.172948 -0.00221639 0.634982 0.176594 -0.00270456 0.639141 0.179682 -0.0031227 0.642792 
0.182156 -0.00343862 0.64602 0.183998 -0.00363406 0.648896 0.18523 -0.00370599 0.651469 
0.185921 -0.00366584 0.653766 0.186173 -0.00353722 0.655784 0.186115 -0.00335214 0.657502 
0.185884 -0.00314647 0.658884 0.185613 -0.00295489 0.659887 0.185409 -0.00280636 0.660476 
0.185344 -0.00272019 0.660624 
LINES 2 100
OFFSETS vtktypeint64
0 100 
CONNECTIVITY vtktypeint64
0 1 2 3 4 5 6 7 8 
9 10 11 12 13 14 15 16 17 
18 19 20 21 22 23 24 25 26 
27 28 29 30 31 32 33 34 35 
36 37 38 39 40 41 42 43 44 
45 46 47 48 49 50 51 52 53 
54 55 56 57 58 59 60 61 62 
63 64 65 66 67 68 69 70 71 
72 73 74 75 76 77 78 79 80 
81 82 83 84 85 86 87 88 89 
90 91 92 93 94 95 96 97 98 
99 
POINT_DATA 100
FIELD FieldData 3
_theta 1 100 double
0 0.031733259127 0.063466518254 0.095199777382 0.12693303651 0.15866629564 0.19039955476 0.22213281389 0.25386607302 
0.28559933214 0.31733259127 0.3490658504 0.38079910953 0.41253236865 0.44426562778 0.47599888691 0.50773214603 0.53946540516 
0.57119866429 0.60293192342 0.63466518254 0.66639844167 0.6981317008 0.72986495992 0.76159821905 0.79333147818 0.82506473731 
0.85679799643 0.88853125556 0.92026451469 0.95199777382 0.98373103294 1.0154642921 1.0471975512 1.0789308103 1.1106640695 
1.1423973286 1.1741305877 1.2058638468 1.237597106 1.2693303651 1.3010636242 1.3327968833 1.3645301425 1.3962634016 
1.4279966607 1.4597299198 1.491463179 1.5231964381 1.5549296972 1.5866629564 1.6183962155 1.6501294746 1.6818627337 
1.7135959929 1.745329252 1.7770625111 1.8087957702 1.8405290294 1.8722622885 1.9039955476 1.9357288068 1.9674620659 
1.999195325 2.0309285841 2.0626618433 2.0943951024 2.1261283615 2.1578616206 2.1895948798 2.2213281389 2.253061398 
2.2847946572 2.3165279163 2.3482611754 2.3799944345 2.4117276937 2.4434609528 2.4751942119 2.506927471 2.5386607302 
2.5703939893 2.6021272484 2.6338605076 2.6655937667 2.6973270258 2.7290602849 2.7607935441 2.7925268032 2.8242600623 
2.8559933214 2.8877265806 2.9194598397 2.9511930988 2.982926358 3.0146596171 3.0463928762 3.0781261353 3.1098593945 
3.1415926536 
_radius 1 100 double
6.664612537e-16 0.017162273162 0.03402648175 0.05032360983 0.065837036215 0.080418337082 0.093991918227 0.10654734642 0.11812080795 
0.12876987715 0.13854772571 0.14748304228 0.15556996558 0.16276905922 0.16901725053 0.1742429252 0.17838229693 0.18139421617 
0.18327192618 0.18405130002 0.18381555284 0.18269638938 0.18087126631 0.17855620998 0.17599365606 0.173435175 0.17111975347 
0.16924954694 0.16796659036 0.16733523139 0.16733489415 0.16786552915 0.16876473263 0.16983300964 0.17086300012 0.17166898515 
0.17211346731 0.17212764754 0.17172262693 0.17098896522 0.17008444949 0.16921314629 0.16860109702 0.16847346103 0.16903509708 
0.17045398479 0.1728460315 0.17626058106 0.1806678271 0.18595159202 0.1919119936 0.1982807445 0.20474777874 0.21099452276 
0.21672835889 0.22171367524 0.22579575801 0.22891448309 0.23110583033 0.23249082921 0.23325339667 0.23361029201 0.23377774143 
0.23393987559 0.2342238276 0.23468518192 0.23530558335 0.23600198607 0.23664477719 0.23708053862 0.23715495455 0.23673221589 
0.23570869508 0.23402009992 0.2316423962 0.22858739853 0.22489417279 0.22061752584 0.2158151021 0.21053497519 0.20480586118 
0.19863183192 0.19199250173 0.18484832757 0.17714944979 0.16884592641 0.15989741532 0.15028102331 0.13999667013 0.12906960953 
0.11754981088 0.10550808081 0.093029311069 0.080203947444 0.067119324298 0.053852586801 0.04046644954 0.027008198632 0.013511491024 
7.0604265513e-16 
_area 1 100 double
0 0.0005192066597 0.0020700837711 0.0046294085774 0.0081504713804 0.012556828189 0.017741263952 0.023571049843 0.029896448712 
0.03655741864 0.043384996751 0.050197862426 0.056798321482 0.062973000416 0.068501642541 0.073174203039 0.076813642077 0.079300114272 
0.080591651571 0.080736570203 0.07987256836 0.078205558834 0.075967404769 0.073384210792 0.07068532399 0.068120341093 0.065933443748 
0.064397661643 0.063634502289 0.063651320019 0.064372830016 0.065648375209 0.067290725568 0.069080388966 0.070839765662 0.072442419297 
0.073825124486 0.074995989059 0.076020853283 0.076986992611 0.077949048172 0.078964429853 0.08020919935 0.081736351329 0.083625388834 
0.085999617639 0.089000206636 0.092755790751 0.097368062776 0.10288764981 0.10927674967 0.11637212703 0.12387209745 0.13136073597 
0.13836247998 0.14441216955 0.14912673766 0.15226473214 0.15376055424 0.15372615857 0.15242357044 0.15022228 0.14756350864 
0.14497615713 0.14313133166 0.14224354235 0.14205946659 0.14232342252 0.1427587996 0.14307059703 0.14297780868 0.14224649281 
0.1407106948 0.13827962288 0.13493602469 0.13073033806 0.12576987027 0.12019974266 0.11417601054 0.10783759678 0.1012871537 
0.094587875964 0.087774479821 0.080869175021 0.073894368322 0.066880233091 0.059868076152 0.05290925218 0.046060923016 0.039383094803 
0.032940470375 0.026807842327 0.021073912329 0.015839308354 0.011208847355 0.0072814837454 0.0041417646994 0.0018549366527 0.00046580356553 
6.9499053296e-17 
