# vtk DataFile Version 5.1
vtk output
ASCII
DATASET POLYDATA
POINTS 100 float
0.104595 -0.0349466 0.668751 0.104559 -0.0350185 0.66852 0.104407 -0.0353747 0.667948 
0.104147 -0.0359656 0.667044 0.103784 -0.036715 0.665822 0.103329 -0.037527 0.664296 
0.102791 -0.0382952 0.662465 0.102179 -0.0389128 0.660319 0.1015 -0.0392824 0.657824 
0.100758 -0.0393239 0.654926 0.0999523 -0.0389819 0.65155 0.0990773 -0.0382285 0.647607 
0.0981211 -0.0370651 0.642997 0.0970653 -0.0355199 0.637624 0.095884 -0.0336442 0.631403 
0.0945447 -0.0315059 0.62427 0.0930082 -0.0291823 0.616194 0.0912294 -0.0267531 0.607177 
0.0891595 -0.0242931 0.597259 0.0867471 -0.0218673 0.586513 0.0839413 -0.0195263 0.57504 
0.0806943 -0.0173056 0.562956 0.076965 -0.015225 0.550386 0.0727216 -0.0132907 0.537446 
0.0679455 -0.011499 0.524236 0.0626328 -0.00983959 0.51083 0.0567969 -0.00830012 0.497274 
0.0504683 -0.00686976 0.483582 0.0436942 -0.00554201 0.469742 0.036536 -0.00431654 0.455723 
0.0290654 -0.00319962 0.441481 0.0213602 -0.00220358 0.426972 0.0134979 -0.00134522 0.412157 
0.00555077 -0.000643658 0.397013 -0.00242042 -0.000118056 0.381531 -0.01037 0.000214612 0.365722 
-0.0182705 0.000341244 0.349605 -0.0261124 0.000253656 0.333208 -0.0339027 -5.11403e-05 0.316551 
-0.0416599 -0.000571362 0.299645 -0.0494074 -0.00130144 0.282476 -0.0571649 -0.00223334 0.265005 
-0.0649392 -0.00335793 0.247163 -0.0727156 -0.00466621 0.228859 -0.0804501 -0.0061501 0.209979 
-0.0880645 -0.00780279 0.190407 -0.0954442 -0.00961847 0.17003 -0.102441 -0.0115916 0.148759 
-0.108878 -0.0137161 0.126537 -0.114562 -0.0159834 0.103353 -0.119293 -0.0183824 0.0792475 
-0.122882 -0.0208972 0.0543129 -0.125164 -0.0235074 0.0286882 -0.126014 -0.0261871 0.00255 
-0.125357 -0.0289056 -0.0239015 -0.12318 -0.0316273 -0.0504587 -0.119525 -0.0343124 -0.0769233 
-0.114497 -0.0369179 -0.103121 -0.10825 -0.0393977 -0.128912 -0.100974 -0.0417035 -0.154198 
-0.0928812 -0.0437848 -0.178926 -0.0841865 -0.0455898 -0.203078 -0.0750901 -0.0470649 -0.226669 
-0.0657622 -0.0481563 -0.249729 -0.0563299 -0.04881 -0.272292 -0.0468712 -0.0489739 -0.294386 
-0.0374132 -0.0485997 -0.316016 -0.0279369 -0.0476453 -0.337164 -0.0183873 -0.0460783 -0.357785 
-0.00868768 -0.0438792 -0.377807 0.00124419 -0.0410444 -0.397146 0.0114786 -0.0375891 -0.415711 
0.0220583 -0.0335488 -0.433419 0.0329867 -0.0289801 -0.450208 0.04422 -0.0239595 -0.466044 
0.055666 -0.0185811 -0.480931 0.0671881 -0.0129519 -0.49491 0.0786152 -0.00718671 -0.508056 
0.0897557 -0.00140189 -0.520468 0.100414 0.00429148 -0.532258 0.110409 0.00979384 -0.543536 
0.119587 0.0150225 -0.554397 0.127839 0.0199158 -0.564908 0.135106 0.0244346 -0.575096 
0.141382 0.0285628 -0.58495 0.146713 0.0323051 -0.594419 0.151186 0.0356828 -0.603421 
0.15492 0.038729 -0.611852 0.158049 0.0414824 -0.619603 0.16071 0.0439812 -0.626574 
0.163024 0.0462579 -0.632687 0.165089 0.0483351 -0.6379 0.166969 0.0502231 -0.64221 
0.168695 0.0519191 -0.645652 0.170264 0.053409 -0.6483 0.17165 0.0546695 -0.650252 
0.172807 0.0556728 -0.651617 0.173684 0.0563911 -0.652502 0.174236 0.0568005 -0.652997 
0.174432 0.0568854 -0.653159 
LINES 2 100
OFFSETS vtktypeint64
0 100 
CONNECTIVITY vtktypeint64
0 1 2 3 4 5 6 7 8 
9 10 11 12 13 14 15 16 17 
18 19 20 21 22 23 24 25 26 
27 28 29 30 31 32 33 34 35 
36 37 38 39 40 41 42 43 44 
45 46 47 48 49 50 51 52 53 
54 55 56 57 58 59 60 61 62 
63 64 65 66 67 68 69 70 71 
72 73 74 75 76 77 78 79 80 
81 82 83 84 85 86 87 88 89 
90 91 92 93 94 95 96 97 98 
99 
POINT_DATA 100
FIELD FieldData 3
_theta 1 100 double
0 0.031733259127 0.063466518254 0.095199777382 0.12693303651 0.15866629564 0.19039955476 0.22213281389 0.25386607302 
0.28559933214 0.31733259127 0.3490658504 0.38079910953 0.41253236865 0.44426562778 0.47599888691 0.50773214603 0.53946540516 
0.57119866429 0.60293192342 0.63466518254 0.66639844167 0.6981317008 0.72986495992 0.76159821905 0.79333147818 0.82506473731 
0.85679799643 0.88853125556 0.92026451469 0.95199777382 0.98373103294 1.0154642921 1.0471975512 1.0789308103 1.1106640695 
1.1423973286 1.1741305877 1.2058638468 1.237597106 1.2693303651 1.3010636242 1.3327968833 1.3645301425 1.3962634016 
1.4279966607 1.4597299198 1.491463179 1.5231964381 1.5549296972 1.5866629564 1.6183962155 1.6501294746 1.6818627337 
1.7135959929 1.745329252 1.7770625111 1.8087957702 1.8405290294 1.8722622885 1.9039955476 1.9357288068 1.9674620659 
1.999195325 2.0309285841 2.0626618433 2.0943951024 2.1261283615 2.1578616206 2.1895948798 2.2213281389 2.253061398 
2.2847946572 2.3165279163 2.3482611754 2.3799944345 2.4117276937 2.4434609528 2.4751942119 2.506927471 2.5386607302 
2.5703939893 2.6021272484 2.6338605076 2.6655937667 2.6973270258 2.7290602849 2.7607935441 2.7925268032 2.8242600623 
2.8559933214 2.8877265806 2.9194598397 2.9511930988 2.982926358 3.0146596171 3.0463928762 3.0781261353 3.1098593945 
3.1415926536 
_radius 1 100 double
1.7832417333e-15 0.01459401312 0.029203319639 0.043839354593 0.058492127389 0.073123779238 0.087666746394 0.10202675458 0.11609012664 
0.12973423994 0.14283947746 0.15530075425 0.16703677008 0.17799559766 0.18815599717 0.19752472485 0.20613077636 0.21401778714 
0.22123575687 0.2278330951 0.23384987908 0.23931318843 0.24423531487 0.24861539585 0.25244450102 0.25571344145 0.25842176446 
0.26058584759 0.26224399077 0.26345699562 0.26430371456 0.26487210562 0.26524716942 0.26549767875 0.26566384456 0.26574799286 
0.26570994438 0.26546814396 0.26490680124 0.26388851439 0.26227114792 0.25992717149 0.25676327089 0.2527378558 0.24787415363 
0.2422669176 0.23608137122 0.22954381682 0.22292431082 0.2165129203 0.21059222994 0.20540972479 0.20115404393 0.19793854309 
0.19579408674 0.19467095133 0.19444802231 0.19494699324 0.19595016462 0.19722154808 0.19853076253 0.19967756348 0.20051340005 
0.20095649362 0.20099830373 0.20070082881 0.20018535718 0.19961404907 0.19916631056 0.19901241115 0.19928719154 0.20006700577 
0.20135315153 0.20306462284 0.20504171439 0.20706000334 0.2088523072 0.21013507374 0.21063543471 0.21011555642 0.20839163072 
0.20534570565 0.20092951326 0.19516047577 0.18811107239 0.17989358325 0.17064273808 0.16049887901 0.14959388741 0.13804142253 
0.12593214989 0.11333378787 0.1002951207 0.086852682107 0.073038613838 0.058888216664 0.044445909269 0.029768666927 0.014926490835 
1.1453435393e-15 
_area 1 100 double
0 0.00057052814458 0.002286294497 0.005155779299 0.0091809055756 0.014342896005 0.020589240988 0.027825772665 0.035916631534 
0.04469326787 0.053971416209 0.063572048884 0.073339362701 0.083148111686 0.092896811445 0.10249184575 0.11183364538 0.12081380057 
0.12932411416 0.13727240147 0.1445978207 0.15127924316 0.15733269275 0.16279822272 0.16772169153 0.1721397805 0.17607462215 
0.17953848049 0.18254345804 0.18511009237 0.18727156355 0.1890736536 0.19057247567 0.19183140033 0.19290986583 0.19381822335 
0.1944624461 0.19467506478 0.1942718508 0.19306737206 0.19088142915 0.18755655193 0.18298720821 0.17715358935 0.17014893365 
0.16218963541 0.15360241533 0.14479014606 0.1361836056 0.12818835975 0.12113557551 0.11524463153 0.11060455214 0.10718319014 
0.104860012 0.10345699734 0.10275768037 0.10252199794 0.10252820007 0.10278356136 0.1030921703 0.10301658858 0.10240386461 
0.10126183485 0.099708344025 0.097924480363 0.096115337691 0.094489321932 0.093249698619 0.092582617398 0.092635822724 0.093494153694 
0.09516002787 0.097541562104 0.10044890686 0.10360180639 0.10664990141 0.10920396339 0.11087548328 0.11132098562 0.11028459683 
0.10763037787 0.10335707407 0.097592164372 0.090567530605 0.082583414042 0.073969100208 0.065047886251 0.056111316603 0.047404662778 
0.03912302989 0.031415641137 0.024394870212 0.018146530495 0.012738757947 0.0082281529809 0.0046630006381 0.0020839543025 0.00052277403422 
3.633252017e-17 
