# vtk DataFile Version 5.1
vtk output
ASCII
DATASET POLYDATA
POINTS 100 float
0.182514 -0.0292214 0.653331 0.182473 -0.0291812 0.653231 0.182301 -0.0291618 0.653098 
0.181955 -0.0291441 0.652911 0.18137 -0.0290999 0.652635 0.180472 -0.0289955 0.652215 
0.179185 -0.0287963 0.651582 0.17745 -0.0284717 0.650644 0.175225 -0.0279992 0.649296 
0.172502 -0.0273674 0.64742 0.169299 -0.0265779 0.644892 0.165661 -0.0256443 0.641588 
0.161651 -0.024591 0.637395 0.157339 -0.0234492 0.632219 0.15279 -0.0222522 0.625994 
0.148049 -0.0210307 0.61869 0.143136 -0.0198081 0.610316 0.138036 -0.0185966 0.600921 
0.132706 -0.0173953 0.590591 0.127073 -0.0161898 0.579446 0.12105 -0.0149544 0.567624 
0.114548 -0.0136559 0.555275 0.107491 -0.0122591 0.542543 0.099834 -0.0107331 0.529559 
0.0915675 -0.00905796 0.516426 0.0827297 -0.00723039 0.503211 0.0734032 -0.00526824 0.489947 
0.0637087 -0.00321252 0.476624 0.053792 -0.00112704 0.463202 0.0438071 0.000904776 0.449612 
0.0338969 0.00278556 0.435767 0.0241752 0.00441167 0.421574 0.0147119 0.00568219 0.406944 
0.00552406 0.00650817 0.391798 -0.00342461 0.00682128 0.376077 -0.0122173 0.0065807 0.35974 
-0.020969 0.00577759 0.342768 -0.0298064 0.00443654 0.325157 -0.038843 0.00261365 0.306918 
-0.0481559 0.000391557 0.288065 -0.0577638 -0.00212834 0.268612 -0.0676129 -0.00483549 0.248571 
-0.0775706 -0.00762076 0.227942 -0.0874293 -0.0103868 0.206724 -0.0969203 -0.0130571 0.184907 
-0.105736 -0.0155828 0.162486 -0.113561 -0.0179464 0.139461 -0.120101 -0.0201619 0.11585 
-0.125114 -0.0222719 0.0916878 -0.128439 -0.0243407 0.0670369 -0.130012 -0.0264461 0.0419838 
-0.129873 -0.0286682 0.0166388 -0.128165 -0.0310787 -0.00887007 -0.125115 -0.0337306 -0.0344051 
-0.121012 -0.0366498 -0.0598292 -0.116175 -0.0398291 -0.0850164 -0.110918 -0.0432255 -0.109861 
-0.10552 -0.0467616 -0.134286 -0.100196 -0.0503296 -0.158246 -0.0950761 -0.0537991 -0.181728 
-0.090201 -0.0570265 -0.204747 -0.0855215 -0.0598663 -0.227338 -0.0809139 -0.0621818 -0.249547 
-0.0762019 -0.0638562 -0.271419 -0.0711853 -0.0648003 -0.292987 -0.0656706 -0.064959 -0.314263 
-0.0594995 -0.0643142 -0.33523 -0.0525727 -0.0628841 -0.355845 -0.0448655 -0.0607202 -0.376038 
-0.0364342 -0.0579019 -0.395718 -0.0274118 -0.0545282 -0.414786 -0.017995 -0.0507092 -0.433146 
-0.00842426 -0.0465578 -0.450716 0.00104104 -0.0421813 -0.467439 0.0101477 -0.0376748 -0.48329 
0.0186721 -0.0331166 -0.498279 0.0264388 -0.0285661 -0.512452 0.0333317 -0.0240634 -0.52588 
0.039298 -0.0196309 -0.538651 0.0443442 -0.0152772 -0.550857 0.0485257 -0.0110015 -0.562578 
0.0519319 -0.00679805 -0.573874 0.0546694 -0.00266128 -0.584771 0.0568458 0.0014105 -0.595254 
0.0585559 0.00541222 -0.605272 0.0598733 0.00933059 -0.614742 0.0608464 0.013144 -0.623554 
0.0615004 0.0168237 -0.631595 0.0618443 0.0203358 -0.638753 0.0618796 0.0236439 -0.644945 
0.0616116 0.026712 -0.650119 0.0610588 0.0295071 -0.654274 0.0602597 0.032001 -0.657453 
0.0592761 0.0341719 -0.659751 0.058191 0.0360041 -0.661297 0.0571026 0.0374885 -0.662248 
0.0561147 0.0386206 -0.662768 0.0553254 0.0393994 -0.663009 0.0548147 0.0398259 -0.663094 
0.0546352 0.0399015 -0.663106 
LINES 2 100
OFFSETS vtktypeint64
0 100 
CONNECTIVITY vtktypeint64
0 1 2 3 4 5 6 7 8 
9 10 11 12 13 14 15 16 17 
18 19 20 21 22 23 24 25 26 
27 28 29 30 31 32 33 34 35 
36 37 38 39 40 41 42 43 44 
45 46 47 48 49 50 51 52 53 
54 55 56 57 58 59 60 61 62 
63 64 65 66 67 68 69 70 71 
72 73 74 75 76 77 78 79 80 
81 82 83 84 85 86 87 88 89 
90 91 92 93 94 95 96 97 98 
99 
POINT_DATA 100
FIELD FieldData 3
_theta 1 100 double
0 0.031733259127 0.063466518254 0.095199777382 0.12693303651 0.15866629564 0.19039955476 0.22213281389 0.25386607302 
0.28559933214 0.31733259127 0.3490658504 0.38079910953 0.41253236865 0.44426562778 0.47599888691 0.50773214603 0.53946540516 
0.57119866429 0.60293192342 0.63466518254 0.66639844167 0.6981317008 0.72986495992 0.76159821905 0.79333147818 0.82506473731 
0.85679799643 0.88853125556 0.92026451469 0.95199777382 0.98373103294 1.0154642921 1.0471975512 1.0789308103 1.1106640695 
1.1423973286 1.1741305877 1.2058638468 1.237597106 1.2693303651 1.3010636242 1.3327968833 1.3645301425 1.3962634016 
1.4279966607 1.4597299198 1.491463179 1.5231964381 1.5549296972 1.5866629564 1.6183962155 1.6501294746 1.6818627337 
1.7135959929 1.745329252 1.7770625111 1.8087957702 1.8405290294 1.8722622885 1.9039955476 1.9357288068 1.9674620659 
1.999195325 2.0309285841 2.0626618433 2.0943951024 2.1261283615 2.1578616206 2.1895948798 2.2213281389 2.253061398 
2.2847946572 2.3165279163 2.3482611754 2.3799944345 2.4117276937 2.4434609528 2.4751942119 2.506927471 2.5386607302 
2.5703939893 2.6021272484 2.6338605076 2.6655937667 2.6973270258 2.7290602849 2.7607935441 2.7925268032 2.8242600623 
2.8559933214 2.8877265806 2.9194598397 2.9511930988 2.982926358 3.0146596171 3.0463928762 3.0781261353 3.1098593945 
3.1415926536 
_radius 1 100 double
8.8263166865e-16 0.014953452051 0.029856149527 0.044660304312 0.059319808018 0.073790092868 0.088027247038 0.10198626775 0.11561845713 
0.1288681886 0.14166962308 0.15394437535 0.16560142304 0.17654042922 0.1866589395 0.19586276538 0.20407774878 0.21126053646 
0.21740618598 0.22255120125 0.22677158562 0.23017638222 0.23289775951 0.23507894855 0.23686131422 0.23837168965 0.23971098181 
0.24094504168 0.24209881314 0.24315465331 0.24405533734 0.24471167798 0.24501407096 0.24484674483 0.2441030956 0.24270027181 
0.24059123131 0.23777288293 0.23428961346 0.2302323044 0.22573358019 0.22096020992 0.21610320954 0.21136555874 0.20694721273 
0.20302783246 0.19974929774 0.19720167628 0.19541658377 0.19437002799 0.19399345781 0.1941886529 0.19484124617 0.19582972242 
0.19703033058 0.19832084229 0.19958574573 0.2007232558 0.20165290146 0.2023223223 0.20271217694 0.20283791014 0.20274711401 
0.20251212318 0.20221905462 0.20195577884 0.20180153454 0.20181995678 0.20205563883 0.20253278325 0.2032538094 0.20419639564 
0.2053090848 0.20650733531 0.20767264908 0.20865664476 0.20929017954 0.20939594343 0.20880216273 0.20735522645 0.20492976011 
0.20143543791 0.19682038867 0.19107137656 0.1842111013 0.17629305552 0.16739446926 0.15760799698 0.14703296392 0.13576714524 
0.12390012287 0.11150915124 0.098658101215 0.085399472996 0.07177881491 0.057840354647 0.043632407385 0.029211240526 0.014642507991 
1.5489668639e-15 
_area 1 100 double
0 0.00060272578329 0.0023957926702 0.0053358304136 0.0093566641308 0.014377178436 0.020310205382 0.027070809515 0.034581768644 
0.042773444631 0.051575882758 0.060903841108 0.070639422057 0.080619491023 0.090634596331 0.100442818 0.10979683332 0.11847723131 
0.12632216435 0.13324456668 0.13923317261 0.14434005224 0.14866187407 0.1523220028 0.15545607696 0.15819849704 0.1606663827 
0.16294268536 0.16506506215 0.16702427857 0.16876899605 0.17021246479 0.17124076569 0.17172211326 0.17150756216 0.17042323964 
0.16830971326 0.16509538723 0.16082473512 0.15564498005 0.14977865642 0.14349579226 0.13709074756 0.13086249938 0.12509501426 
0.12003708824 0.1158802488 0.11272195235 0.1105211593 0.10910465987 0.10823723764 0.1076932518 0.10729459583 0.10697393733 
0.10663909206 0.10629784543 0.10582832092 0.10512449788 0.1041031296 0.1027363856 0.10105415079 0.099129254947 0.097060728389 
0.094966175294 0.092973637317 0.091210763046 0.0897932275 0.088814540891 0.088349364 0.088471916982 0.089340066455 0.091015360378 
0.093339793505 0.096121752417 0.099111483396 0.10202005876 0.10454576885 0.10640301872 0.10734569501 0.10718306151 0.10578933513 
0.10310874793 0.099157157832 0.094019896895 0.087844481806 0.080827016976 0.073192908818 0.065175080966 0.056994659465 0.04884877918 
0.040907640661 0.033319420185 0.026218848777 0.019734511866 0.013991426096 0.0091083208969 0.0051916346043 0.0023291746876 0.00058556604679 
3.9008593408e-17 
