# vtk DataFile Version 5.1
vtk output
ASCII
DATASET POLYDATA
POINTS 100 float
0.101214 0.0496149 -0.614029 0.101253 0.0496629 -0.614112 0.101365 0.0496261 -0.61437 
0.101521 0.0494897 -0.614701 0.10168 0.0492309 -0.614949 0.101786 0.0488211 -0.61492 
0.101777 0.0482288 -0.614405 0.101589 0.047422 -0.613201 0.101158 0.0463706 -0.611134 
0.100426 0.045049 -0.608074 0.0993422 0.043437 -0.603949 0.0978647 0.0415206 -0.598745 
0.0959588 0.0392919 -0.592503 0.0935973 0.0367484 -0.585312 0.0907585 0.0338916 -0.577286 
0.0874254 0.0307259 -0.568553 0.0835843 0.0272576 -0.559231 0.0792261 0.0234945 -0.549413 
0.074347 0.0194456 -0.539155 0.0689508 0.0151229 -0.528467 0.0630524 0.0105423 -0.517318 
0.0566803 0.00572668 -0.505636 0.0498792 0.000708312 -0.493324 0.042711 -0.00446869 -0.480274 
0.035254 -0.00974632 -0.466384 0.0276007 -0.0150518 -0.451571 0.0198522 -0.0202981 -0.435787 
0.012112 -0.0253857 -0.419025 0.00447802 -0.030207 -0.401322 -0.00296523 -0.0346509 -0.382754 
-0.010154 -0.0386097 -0.36343 -0.0170504 -0.0419861 -0.343476 -0.0236451 -0.0447004 -0.323026 
-0.0299559 -0.046697 -0.302202 -0.0360237 -0.0479494 -0.281104 -0.0419041 -0.0484631 -0.259804 
-0.047657 -0.0482768 -0.238338 -0.0533345 -0.0474597 -0.216708 -0.058969 -0.0461072 -0.194889 
-0.0645621 -0.0443342 -0.172838 -0.0700772 -0.042266 -0.150505 -0.0754357 -0.0400293 -0.127845 
-0.0805187 -0.0377424 -0.104833 -0.0851726 -0.0355067 -0.0814652 -0.0892203 -0.0333994 -0.0577715 
-0.0924758 -0.0314694 -0.0338113 -0.09476 -0.0297354 -0.00967204 -0.0959182 -0.0281872 0.0145379 
-0.0958348 -0.02679 0.0386983 -0.0944454 -0.0254908 0.0626867 -0.0917437 -0.0242269 0.0863875 
-0.0877828 -0.0229346 0.1097 -0.0826716 -0.0215583 0.132542 -0.0765642 -0.020058 0.154853 
-0.0696468 -0.0184152 0.176593 -0.0621207 -0.0166357 0.197736 -0.0541851 -0.0147503 0.218268 
-0.0460209 -0.0128119 0.238181 -0.0377775 -0.0108905 0.25747 -0.0295635 -0.00906607 0.276125 
-0.0214435 -0.00742046 0.294138 -0.0134392 -0.00602902 0.311501 -0.00553602 -0.00495309 0.328208 
0.00230683 -0.00423406 0.344266 0.0101436 -0.00388973 0.359695 0.018029 -0.00391336 0.374536 
0.0260059 -0.00427539 0.388851 0.0340962 -0.00492763 0.402721 0.0422946 -0.00580939 0.416245 
0.0505674 -0.00685471 0.429526 0.0588553 -0.00799992 0.442667 0.0670795 -0.0091904 0.455756 
0.0751509 -0.010386 0.468854 0.0829801 -0.0115642 0.481987 0.0904873 -0.012721 0.495137 
0.097611 -0.0138686 0.508242 0.104313 -0.0150319 0.5212 0.110581 -0.0162421 0.533872 
0.116426 -0.0175302 0.546101 0.121882 -0.0189195 0.557725 0.126991 -0.0204203 0.568592 
0.131804 -0.0220248 0.578577 0.136365 -0.0237053 0.587595 0.140709 -0.0254147 0.595612 
0.144854 -0.02709 0.602643 0.1488 -0.0286573 0.608754 0.15253 -0.0300403 0.614051 
0.156014 -0.0311675 0.618666 0.159213 -0.0319817 0.622742 0.162089 -0.0324463 0.626416 
0.164608 -0.0325515 0.629803 0.166751 -0.0323163 0.632985 0.168514 -0.0317889 0.636002 
0.16991 -0.0310425 0.638849 0.17097 -0.0301694 0.641484 0.171736 -0.0292725 0.643835 
0.172258 -0.0284549 0.645812 0.172582 -0.0278105 0.647325 0.17275 -0.027414 0.648296 
0.172788 -0.0273137 0.648671 
LINES 2 100
OFFSETS vtktypeint64
0 100 
CONNECTIVITY vtktypeint64
0 1 2 3 4 5 6 7 8 
9 10 11 12 13 14 15 16 17 
18 19 20 21 22 23 24 25 26 
27 28 29 30 31 32 33 34 35 
36 37 38 39 40 41 42 43 44 
45 46 47 48 49 50 51 52 53 
54 55 56 57 58 59 60 61 62 
63 64 65 66 67 68 69 70 71 
72 73 74 75 76 77 78 79 80 
81 82 83 84 85 86 87 88 89 
90 91 92 93 94 95 96 97 98 
99 
POINT_DATA 100
FIELD FieldData 3
_theta 1 100 double
0 0.031733259127 0.063466518254 0.095199777382 0.12693303651 0.15866629564 0.19039955476 0.22213281389 0.25386607302 
0.28559933214 0.31733259127 0.3490658504 0.38079910953 0.41253236865 0.44426562778 0.47599888691 0.50773214603 0.53946540516 
0.57119866429 0.60293192342 0.63466518254 0.66639844167 0.6981317008 0.72986495992 0.76159821905 0.79333147818 0.82506473731 
0.85679799643 0.88853125556 0.92026451469 0.95199777382 0.98373103294 1.0154642921 1.0471975512 1.0789308103 1.1106640695 
1.1423973286 1.1741305877 1.2058638468 1.237597106 1.2693303651 1.3010636242 1.3327968833 1.3645301425 1.3962634016 
1.4279966607 1.4597299198 1.491463179 1.5231964381 1.5549296972 1.5866629564 1.6183962155 1.6501294746 1.6818627337 
1.7135959929 1.745329252 1.7770625111 1.8087957702 1.8405290294 1.8722622885 1.9039955476 1.9357288068 1.9674620659 
1.999195325 2.0309285841 2.0626618433 2.0943951024 2.1261283615 2.1578616206 2.1895948798 2.2213281389 2.253061398 
2.2847946572 2.3165279163 2.3482611754 2.3799944345 2.4117276937 2.4434609528 2.4751942119 2.506927471 2.5386607302 
2.5703939893 2.6021272484 2.6338605076 2.6655937667 2.6973270258 2.7290602849 2.7607935441 2.7925268032 2.8242600623 
2.8559933214 2.8877265806 2.9194598397 2.9511930988 2.982926358 3.0146596171 3.0463928762 3.0781261353 3.1098593945 
3.1415926536 
_radius 1 100 double
8.9358298716e-16 0.014454370255 0.028785570925 0.042874390951 0.056612010255 0.069903870391 0.082672042136 0.094855763712 0.10640998029 
0.11730195346 0.12750634733 0.13699959898 0.14575473363 0.15373792677 0.16090791333 0.16721878205 0.1726259154 0.17709409043 
0.18060627842 0.18317158409 0.18483100652 0.18566013627 0.18576836602 0.18529457846 0.1843995639 0.18325565569 0.18203432435 
0.18089277779 0.1799609392 0.17933040607 0.1790469973 0.17910817868 0.17946604754 0.18003578278 0.18070866517 0.18136803573 
0.1819059798 0.18223824271 0.18231505597 0.18212630815 0.18170082682 0.18110109355 0.18041570178 0.17975163005 0.17922720475 
0.17896549198 0.17908750356 0.17970483103 0.18091149904 0.18277477614 0.18532494054 0.18854511984 0.1923639345 0.19665445514 
0.20124176707 0.20591858666 0.21046576615 0.21467369324 0.21836137714 0.22139126995 0.22367881842 0.22519631304 0.2259710546 
0.22607836285 0.22563046181 0.2247626316 0.22361812948 0.22233334458 0.22102462121 0.21977815124 0.21864402348 0.21763466823 
0.21672677381 0.21586503021 0.21496636464 0.21392441359 0.21261493029 0.21090296822 0.20865202386 0.20573438363 0.20204124379 
0.19749101319 0.19203451493 0.18565636094 0.17837239459 0.17022371637 0.16126845961 0.15157311154 0.14120544317 0.13023054633 
0.11871008867 0.10670351597 0.094269490661 0.081466453661 0.068352173242 0.05498282664 0.041412296594 0.027692080261 0.013871795473 
9.8319799274e-16 
_area 1 100 double
0 0.000541526731 0.0021568437376 0.004817001687 0.008470683953 0.013041786353 0.018428787266 0.024506376873 0.031128847642 
0.038134403288 0.045349713317 0.05259435182 0.059685015248 0.066439675421 0.072682144546 0.078247722258 0.082990381563 0.086791349866 
0.089568329477 0.091284231738 0.091953988887 0.091647651652 0.090488088502 0.088642801142 0.086311605166 0.083714239295 0.081081704956 
0.078648470638 0.076633528976 0.075203275461 0.074430485223 0.074284541604 0.074667967435 0.075454526882 0.076509401077 0.077713755967 
0.078993143703 0.08032604289 0.081718289214 0.083160410713 0.084610263068 0.086014739698 0.087343925565 0.08861335014 0.089883459537 
0.091237778045 0.092757383927 0.094515085302 0.096595373501 0.099116902191 0.10222101909 0.10601881495 0.11053494401 0.11568370515 
0.12127859749 0.12706327953 0.13275127867 0.13806153063 0.14274179617 0.14658085832 0.14941627012 0.15114387275 0.1517297803 
0.1512199362 0.14974127423 0.14749154187 0.14471813963 0.14168804482 0.13865238662 0.13581180109 0.13329073337 0.13112734809 
0.1292800878 0.12764560159 0.12608013142 0.12441835161 0.12248761026 0.12011901956 0.11715827508 0.11347798778 0.10899096104 
0.10366212101 0.097516511192 0.090641211444 0.083179163735 0.075313108415 0.067240427661 0.059145529929 0.051181066856 0.043466031567 
0.036098188442 0.029169718756 0.022775892712 0.017014235283 0.011978024882 0.0077493295193 0.0043947569353 0.0019644046531 0.0004927626712 
5.6432670241e-17 
