# vtk DataFile Version 5.1
vtk output
ASCII
DATASET POLYDATA
POINTS 100 float
0.18389 -0.0259439 0.688425 0.183828 -0.025727 0.688232 0.183566 -0.0252388 0.687813 
0.183078 -0.0245284 0.687136 0.182324 -0.0236704 0.686153 0.181257 -0.022755 0.6848 
0.17983 -0.0218765 0.683004 0.178003 -0.021121 0.680687 0.175749 -0.0205551 0.677777 
0.173058 -0.0202174 0.674208 0.16994 -0.0201137 0.669925 0.166419 -0.0202156 0.664892 
0.162538 -0.0204648 0.65909 0.158343 -0.0207806 0.652517 0.153883 -0.0210702 0.645187 
0.149199 -0.0212408 0.637127 0.144318 -0.021212 0.628376 0.139252 -0.0209261 0.618976 
0.133992 -0.0203558 0.608972 0.128512 -0.0195081 0.598406 0.122774 -0.0184231 0.587317 
0.116734 -0.0171696 0.575737 0.110352 -0.0158359 0.563692 0.103596 -0.0145188 0.551203 
0.0964538 -0.0133113 0.538287 0.0889369 -0.0122903 0.52496 0.0810796 -0.0115074 0.51124 
0.0729389 -0.010982 0.497145 0.0645885 -0.0106993 0.482699 0.0561096 -0.0106121 0.467929 
0.047581 -0.0106479 0.45286 0.0390681 -0.0107183 0.437518 0.0306134 -0.0107317 0.421922 
0.0222299 -0.0106058 0.40608 0.0138982 -0.0102794 0.389983 0.00556901 -0.00972244 0.373603 
-0.00282978 -0.00894098 0.35689 -0.0113814 -0.00797891 0.339768 -0.0201649 -0.00691444 0.322141 
-0.0292384 -0.00585246 0.303896 -0.0386225 -0.00491356 0.284908 -0.0482864 -0.00422102 0.265051 
-0.0581377 -0.00388739 0.244211 -0.068019 -0.00400234 0.222291 -0.0777107 -0.0046231 0.19923 
-0.0869418 -0.00576883 0.175004 -0.095406 -0.00741947 0.149641 -0.102784 -0.00951913 0.12322 
-0.108768 -0.0119836 0.0958719 -0.113086 -0.0147109 0.0677743 -0.115531 -0.0175935 0.0391452 
-0.115971 -0.0205308 0.01023 -0.114369 -0.0234395 -0.0187123 -0.110785 -0.0262619 -0.0474242 
-0.105374 -0.0289692 -0.0756653 -0.0983727 -0.0315611 -0.103226 -0.0900801 -0.0340605 -0.129938 
-0.080836 -0.0365047 -0.155684 -0.0709924 -0.0389333 -0.180399 -0.0608873 -0.041376 -0.204072 
-0.0508198 -0.0438402 -0.226739 -0.0410303 -0.0463009 -0.248475 -0.0316873 -0.0486954 -0.269385 
-0.0228811 -0.0509209 -0.289587 -0.0146263 -0.0528396 -0.309204 -0.00686988 -0.0542868 -0.328349 
0.000492984 -0.0550851 -0.347117 0.00760062 -0.0550605 -0.365574 0.0146038 -0.0540602 -0.383762 
0.0216454 -0.0519698 -0.401688 0.0288424 -0.0487279 -0.419335 0.0362722 -0.0443365 -0.436662 
0.043964 -0.0388656 -0.453616 0.0518968 -0.0324517 -0.470134 0.0600026 -0.0252904 -0.486155 
0.0681748 -0.0176223 -0.501624 0.0762806 -0.00971559 -0.516498 0.0841755 -0.0018452 -0.530749 
0.0917188 0.0057285 -0.544364 0.0987872 0.0127796 -0.557343 0.105286 0.0191331 -0.569696 
0.111159 0.0246764 -0.581442 0.116388 0.0293648 -0.592601 0.120996 0.0332203 -0.603189 
0.125037 0.0363241 -0.61322 0.128595 0.0388038 -0.622697 0.131766 0.0408167 -0.631617 
0.134649 0.0425305 -0.639969 0.137337 0.0441045 -0.647733 0.139903 0.0456723 -0.654887 
0.142398 0.0473284 -0.661409 0.144839 0.0491195 -0.667276 0.147218 0.0510419 -0.672471 
0.149495 0.0530446 -0.676981 0.151612 0.0550378 -0.6808 0.153496 0.0569057 -0.683926 
0.155068 0.0585219 -0.68636 0.156256 0.0597657 -0.688107 0.157 0.0605376 -0.689171 
0.157261 0.0607715 -0.689555 
LINES 2 100
OFFSETS vtktypeint64
0 100 
CONNECTIVITY vtktypeint64
0 1 2 3 4 5 6 7 8 
9 10 11 12 13 14 15 16 17 
18 19 20 21 22 23 24 25 26 
27 28 29 30 31 32 33 34 35 
36 37 38 39 40 41 42 43 44 
45 46 47 48 49 50 51 52 53 
54 55 56 57 58 59 60 61 62 
63 64 65 66 67 68 69 70 71 
72 73 74 75 76 77 78 79 80 
81 82 83 84 85 86 87 88 89 
90 91 92 93 94 95 96 97 98 
99 
POINT_DATA 100
FIELD FieldData 3
_theta 1 100 double
0 0.031733259127 0.063466518254 0.095199777382 0.12693303651 0.15866629564 0.19039955476 0.22213281389 0.25386607302 
0.28559933214 0.31733259127 0.3490658504 0.38079910953 0.41253236865 0.44426562778 0.47599888691 0.50773214603 0.53946540516 
0.57119866429 0.60293192342 0.63466518254 0.66639844167 0.6981317008 0.72986495992 0.76159821905 0.79333147818 0.82506473731 
0.85679799643 0.88853125556 0.92026451469 0.95199777382 0.98373103294 1.0154642921 1.0471975512 1.0789308103 1.1106640695 
1.1423973286 1.1741305877 1.2058638468 1.237597106 1.2693303651 1.3010636242 1.3327968833 1.3645301425 1.3962634016 
1.4279966607 1.4597299198 1.491463179 1.5231964381 1.5549296972 1.5866629564 1.6183962155 1.6501294746 1.6818627337 
1.7135959929 1.745329252 1.7770625111 1.8087957702 1.8405290294 1.8722622885 1.9039955476 1.9357288068 1.9674620659 
1.999195325 2.0309285841 2.0626618433 2.0943951024 2.1261283615 2.1578616206 2.1895948798 2.2213281389 2.253061398 
2.2847946572 2.3165279163 2.3482611754 2.3799944345 2.4117276937 2.4434609528 2.4751942119 2.506927471 2.5386607302 
2.5703939893 2.6021272484 2.6338605076 2.6655937667 2.6973270258 2.7290602849 2.7607935441 2.7925268032 2.8242600623 
2.8559933214 2.8877265806 2.9194598397 2.9511930988 2.982926358 3.0146596171 3.0463928762 3.0781261353 3.1098593945 
3.1415926536 
_radius 1 100 double
1.4821483876e-16 0.017929313685 0.035620676973 0.052860105611 0.069471773669 0.085330962712 0.10037058281 0.11458020526 0.12799753686 
0.14069353268 0.15275367837 0.16425891582 0.17526972579 0.18581586069 0.19589256779 0.20546261323 0.2144625669 0.22281171125 
0.23042229717 0.23721030599 0.24310611991 0.24806447848 0.25207288717 0.25515741015 0.25738469287 0.25885923857 0.25971545514 
0.26010476385 0.2601790089 0.26007232622 0.25988425135 0.25966690778 0.2594185054 0.25908423378 0.25856431546 0.25772788111 
0.25643066192 0.25453427946 0.2519250577 0.24853065481 0.24433323653 0.23937822279 0.23377780974 0.22770863849 0.22140327584 
0.21513557697 0.20920046722 0.20388930837 0.19946306444 0.19612703373 0.19401220184 0.19316747532 0.19356307106 0.19510036966 
0.19762185713 0.20091789345 0.20473236062 0.20877298001 0.21273143821 0.21631289637 0.21926755731 0.22141442896 0.22265128342 
0.22295199999 0.22235776397 0.22096780277 0.21893032496 0.21643143403 0.21368070833 0.21089386519 0.20827382788 0.2059919052 
0.20417099455 0.20287267327 0.20208971465 0.20174495631 0.20169656624 0.2017489325 0.20166793881 0.20119922698 0.2000879724 
0.1980985528 0.19503238165 0.19074224163 0.18514170698 0.1782086525 0.16998240834 0.16055483586 0.15005643592 0.13863943988 
0.12646048305 0.1136656771 0.10038046987 0.086705563733 0.072718621973 0.058480068411 0.044040526075 0.029447551084 0.014750077807 
1.4557122165e-15 
_area 1 100 double
0 0.00075371364564 0.0029654093864 0.0064980752508 0.01115793797 0.016736109828 0.023049302417 0.029967975708 0.037424146283 
0.045398191264 0.053891821981 0.062898618856 0.072381732933 0.082263077214 0.092423784468 0.1027131614 0.11296169491 0.12299286269 
0.13263020433 0.14170054371 0.15003831058 0.15749606384 0.16396245732 0.1693832595 0.17377649728 0.17723301778 0.17989981645 
0.18195123169 0.18355734156 0.18485786988 0.18594584163 0.18686275003 0.18761056258 0.18817716925 0.18847570562 0.18815114604 
0.18692988096 0.18466210999 0.18119862911 0.17640370963 0.1703106169 0.16315786606 0.15531651854 0.14730267825 0.13947508546 
0.1320403382 0.12525734066 0.11931577797 0.11432652012 0.11036834884 0.107559336 0.10598732154 0.10547591001 0.10580739478 
0.10676612725 0.10827934336 0.1101422035 0.11218998019 0.11427269516 0.11631606315 0.11823326793 0.11982054692 0.12085859517 
0.1212680583 0.12108591588 0.12018114249 0.1185385056 0.11628819227 0.11362200597 0.11075565075 0.107907188 0.10527472346 
0.10301576319 0.10123594197 0.099983430095 0.099251981965 0.098991890128 0.09911050014 0.099447353634 0.099543302194 0.098933040839 
0.097314947495 0.094477904032 0.090312336382 0.084826237739 0.078147395357 0.070508764213 0.062218974961 0.053623418752 0.045063621074 
0.036842991327 0.02920504694 0.022326165552 0.016320266671 0.011249874906 0.0071383767642 0.0039812223344 0.0017566572987 0.00043703394111 
8.3170054021e-17 
