# vtk DataFile Version 5.1
vtk output
ASCII
DATASET POLYDATA
POINTS 100 float
0.15796 0.075787 -0.66939 0.157965 0.0756363 -0.669462 0.158021 0.0750099 -0.669627 
0.158116 0.073936 -0.669773 0.158231 0.072458 -0.669733 0.158335 0.0706283 -0.669298 
0.15839 0.0685019 -0.668245 0.158344 0.0661286 -0.666359 0.158137 0.0635467 -0.663457 
0.157699 0.0607781 -0.659407 0.156947 0.0578257 -0.65414 0.155795 0.0546738 -0.647654 
0.154148 0.0512907 -0.640013 0.151912 0.0476345 -0.63133 0.148998 0.0436597 -0.621757 
0.145324 0.039326 -0.611459 0.140824 0.0346061 -0.600596 0.135453 0.0294927 -0.589303 
0.129192 0.0240037 -0.577675 0.12205 0.0181853 -0.565756 0.114069 0.012111 -0.553541 
0.105322 0.00587907 -0.540974 0.0959102 -0.000393234 -0.527966 0.0859597 -0.00657734 -0.514401 
0.0756125 -0.0125419 -0.500161 0.0650183 -0.0181618 -0.485136 0.054325 -0.0233259 -0.46924 
0.0436685 -0.0279442 -0.45242 0.033164 -0.0319516 -0.434666 0.0228996 -0.0353109 -0.416002 
0.012932 -0.0380119 -0.396489 0.00328641 -0.0400693 -0.376208 -0.00604068 -0.0415185 -0.355257 
-0.0150747 -0.0424108 -0.333733 -0.0238536 -0.0428074 -0.311722 -0.0324169 -0.0427746 -0.289295 
-0.0407935 -0.0423788 -0.266502 -0.0489909 -0.0416836 -0.243371 -0.0569865 -0.0407472 -0.219915 
-0.0647218 -0.0396215 -0.196136 -0.0721016 -0.0383523 -0.172035 -0.0789974 -0.0369795 -0.147619 
-0.0852549 -0.0355383 -0.122912 -0.0907062 -0.03406 -0.0979552 -0.0951843 -0.0325724 -0.0728112 
-0.0985382 -0.0310995 -0.0475616 -0.100648 -0.0296616 -0.0223016 -0.101439 -0.0282739 0.00286646 
-0.100889 -0.0269456 0.0278422 -0.0990315 -0.0256791 0.0525347 -0.0959589 -0.0244698 0.0768691 
-0.0918113 -0.023306 0.100791 -0.0867674 -0.0221707 0.124265 -0.0810289 -0.0210432 0.147277 
-0.0748037 -0.0199019 0.169826 -0.0682894 -0.0187277 0.191917 -0.0616577 -0.0175071 0.213555 
-0.0550429 -0.0162347 0.23474 -0.048535 -0.0149156 0.255461 -0.0421773 -0.013566 0.275694 
-0.0359707 -0.012213 0.295402 -0.029881 -0.0108925 0.314545 -0.0238511 -0.00964679 0.33308 
-0.0178147 -0.00852004 0.350974 -0.0117094 -0.00755463 0.368209 -0.00548982 -0.00678678 0.384787 
0.000863944 -0.00624298 0.400739 0.00734099 -0.00593747 0.416115 0.0138993 -0.00587093 0.430991 
0.0204699 -0.0060307 0.445448 0.0269648 -0.00639234 0.459574 0.0332877 -0.0069223 0.47344 
0.0393457 -0.00758141 0.487096 0.0450606 -0.00832867 0.500559 0.050378 -0.00912477 0.513805 
0.0552732 -0.00993505 0.526772 0.0597533 -0.0107314 0.539362 0.0638547 -0.0114933 0.551454 
0.0676368 -0.012207 0.562913 0.071173 -0.0128645 0.573612 0.0745397 -0.0134614 0.583448 
0.0778056 -0.0139948 0.592352 0.0810216 -0.0144605 0.600308 0.0842141 -0.0148523 0.607353 
0.0873818 -0.0151608 0.613576 0.090496 -0.0153735 0.619111 0.093505 -0.015477 0.624124 
0.0963427 -0.0154583 0.628788 0.0989373 -0.0153082 0.633271 0.101223 -0.0150238 0.637708 
0.103148 -0.0146107 0.642188 0.104686 -0.0140849 0.646737 0.105834 -0.0134732 0.651321 
0.10662 -0.0128119 0.65584 0.107096 -0.0121451 0.660145 0.107329 -0.0115206 0.664054 
0.107398 -0.0109865 0.66737 0.107376 -0.0105861 0.669909 0.107326 -0.0103539 0.67152 
0.107291 -0.0103121 0.672103 
LINES 2 100
OFFSETS vtktypeint64
0 100 
CONNECTIVITY vtktypeint64
0 1 2 3 4 5 6 7 8 
9 10 11 12 13 14 15 16 17 
18 19 20 21 22 23 24 25 26 
27 28 29 30 31 32 33 34 35 
36 37 38 39 40 41 42 43 44 
45 46 47 48 49 50 51 52 53 
54 55 56 57 58 59 60 61 62 
63 64 65 66 67 68 69 70 71 
72 73 74 75 76 77 78 79 80 
81 82 83 84 85 86 87 88 89 
90 91 92 93 94 95 96 97 98 
99 
POINT_DATA 100
FIELD FieldData 3
_theta 1 100 double
0 0.031733259127 0.063466518254 0.095199777382 0.12693303651 0.15866629564 0.19039955476 0.22213281389 0.25386607302 
0.28559933214 0.31733259127 0.3490658504 0.38079910953 0.41253236865 0.44426562778 0.47599888691 0.50773214603 0.53946540516 
0.57119866429 0.60293192342 0.63466518254 0.66639844167 0.6981317008 0.72986495992 0.76159821905 0.79333147818 0.82506473731 
0.85679799643 0.88853125556 0.92026451469 0.95199777382 0.98373103294 1.0154642921 1.0471975512 1.0789308103 1.1106640695 
1.1423973286 1.1741305877 1.2058638468 1.237597106 1.2693303651 1.3010636242 1.3327968833 1.3645301425 1.3962634016 
1.4279966607 1.4597299198 1.491463179 1.5231964381 1.5549296972 1.5866629564 1.6183962155 1.6501294746 1.6818627337 
1.7135959929 1.745329252 1.7770625111 1.8087957702 1.8405290294 1.8722622885 1.9039955476 1.9357288068 1.9674620659 
1.999195325 2.0309285841 2.0626618433 2.0943951024 2.1261283615 2.1578616206 2.1895948798 2.2213281389 2.253061398 
2.2847946572 2.3165279163 2.3482611754 2.3799944345 2.4117276937 2.4434609528 2.4751942119 2.506927471 2.5386607302 
2.5703939893 2.6021272484 2.6338605076 2.6655937667 2.6973270258 2.7290602849 2.7607935441 2.7925268032 2.8242600623 
2.8559933214 2.8877265806 2.9194598397 2.9511930988 2.982926358 3.0146596171 3.0463928762 3.0781261353 3.1098593945 
3.1415926536 
_radius 1 100 double
4.5118820366e-16 0.015873754916 0.031606020771 0.047058748832 0.062107399154 0.076645479715 0.090586847482 0.10386557171 0.11643340431 
0.12825526056 0.13930359425 0.14955298087 0.15897635096 0.16754398727 0.17522568247 0.18199561548 0.18783885228 0.19275808299 
0.19677925418 0.19995501314 0.20236523075 0.20411426705 0.20532509441 0.20613088636 0.20666513155 0.20705158367 0.20739526909 
0.20777534446 0.2082400637 0.20880385671 0.20944676518 0.21011700882 0.21073767897 0.21121799263 0.21146828125 0.21141655512 
0.21102369046 0.21029426903 0.20928078974 0.20808022535 0.20682354301 0.20566052378 0.20474344472 0.20421327458 0.20419066124 
0.20477162654 0.20602577366 0.20799422849 0.21068583098 0.21407238229 0.21808553968 0.22261813693 0.22753127961 0.23266647503 
0.23786044133 0.24295967259 0.24783221855 0.25237507187 0.25651667502 0.26021508799 0.26345308536 0.26623173423 0.26856384054 
0.27046819863 0.27196507749 0.27307301183 0.27380677234 0.27417628894 0.27418621489 0.27383575942 0.27311847593 0.27202192025 
0.27052735776 0.26860974299 0.26623792991 0.26337476862 0.25997677672 0.25599348951 0.25136709376 0.2460332179 0.23992365632 
0.23297138955 0.22511765255 0.21632017789 0.20656127741 0.19585424508 0.18424669803 0.17181990526 0.15868385237 0.14496866148 
0.13081378907 0.11635681386 0.10172341406 0.087019530367 0.072326141732 0.057696757392 0.043157555825 0.028709936206 0.014335079077 
1.3609952846e-15 
_area 1 100 double
0 0.00059807928222 0.0023867446081 0.0053459312185 0.0094310917168 0.014559685739 0.020601832175 0.027381595257 0.034688687871 
0.042294862204 0.04996854831 0.057484420012 0.064628789838 0.071204438381 0.07703825371 0.081992398648 0.085976639022 0.088957928895 
0.090964035674 0.092080219992 0.092440381596 0.092215273124 0.091599980122 0.09080204092 0.090031759594 0.089496908254 0.089403497876 
0.089863952717 0.090859746379 0.092403004885 0.094411673035 0.096754335932 0.099248476796 0.10168333253 0.10385938647 0.10562997929 
0.10693372192 0.10780644462 0.10836686522 0.10878360783 0.10924243821 0.10992736187 0.11101500724 0.11265231632 0.11485283735 
0.11748453468 0.12043815063 0.1237056506 0.12737046305 0.13156339561 0.13640477693 0.14195538957 0.14818872323 0.15498371125 
0.16213487156 0.16937834897 0.1764297922 0.1830248832 0.18895113147 0.19406311487 0.19828065411 0.20157588542 0.20395734652 
0.20545677422 0.20612013358 0.20600165687 0.20515940937 0.20365186765 0.20153535412 0.19886145958 0.1956730742 0.19199868378 
0.18784692381 0.18320485478 0.17804186452 0.17231759444 0.16599048024 0.15902477881 0.1513963244 0.14309855807 0.134149977 
0.12460246919 0.11454810825 0.10412120387 0.093493348115 0.082861255583 0.072429180877 0.062388924048 0.052901155177 0.044082499709 
0.036002867248 0.028694795211 0.022170766199 0.016440104417 0.011518853689 0.0074316756598 0.004208625473 0.0018800285305 0.00047149117415 
5.6410670194e-17 
