# vtk DataFile Version 5.1
vtk output
ASCII
DATASET POLYDATA
POINTS 100 float
0.189706 -0.021904 0.681085 0.189649 -0.0220163 0.68115 0.189525 -0.0222224 0.681149 
0.189304 -0.0225073 0.681024 0.188935 -0.0228474 0.680683 0.188357 -0.0232123 0.680014 
0.187504 -0.0235678 0.67889 0.186308 -0.0238777 0.677186 0.184712 -0.0241068 0.674785 
0.18267 -0.0242232 0.671589 0.180149 -0.0242001 0.667527 0.177134 -0.0240172 0.662559 
0.173622 -0.0236618 0.656674 0.16962 -0.0231288 0.649889 0.165142 -0.0224202 0.642246 
0.160202 -0.0215447 0.633804 0.154813 -0.0205164 0.624631 0.148983 -0.0193532 0.614799 
0.142714 -0.0180762 0.604377 0.136004 -0.0167082 0.593429 0.128851 -0.0152729 0.582006 
0.121256 -0.0137943 0.570154 0.113226 -0.0122966 0.557905 0.104784 -0.0108042 0.545291 
0.0959657 -0.00934173 0.532333 0.0868228 -0.00793458 0.519056 0.0774225 -0.00660884 0.505481 
0.0678424 -0.00539152 0.491629 0.0581643 -0.00431032 0.477517 0.0484675 -0.00339317 0.463158 
0.0388206 -0.00266747 0.448555 0.0292751 -0.00215907 0.433697 0.0198602 -0.00189112 0.418559 
0.0105813 -0.00188285 0.403094 0.00142141 -0.00214851 0.387236 -0.00765341 -0.00269649 0.370904 
-0.0166858 -0.00352878 0.354003 -0.0257163 -0.00464096 0.33643 -0.0347714 -0.00602252 0.318087 
-0.0438523 -0.00765773 0.298883 -0.0529253 -0.00952677 0.278751 -0.0619163 -0.0116072 0.257647 
-0.0707089 -0.0138752 0.235563 -0.0791483 -0.0163074 0.212527 -0.0870494 -0.0188815 0.188603 
-0.0942095 -0.0215769 0.163888 -0.100424 -0.0243751 0.13851 -0.105504 -0.0272594 0.112614 
-0.109292 -0.0302132 0.0863578 -0.111675 -0.0332195 0.059899 -0.112598 -0.0362587 0.0333882 
-0.112064 -0.0393074 0.00696057 -0.110138 -0.0423367 -0.01927 -0.106937 -0.0453111 -0.0452132 
-0.102619 -0.0481884 -0.0708034 -0.0973703 -0.0509194 -0.0959975 -0.0913853 -0.0534497 -0.120771 
-0.0848519 -0.0557207 -0.145115 -0.0779357 -0.0576725 -0.169028 -0.0707685 -0.0592462 -0.192513 
-0.0634418 -0.0603872 -0.215573 -0.0560047 -0.0610477 -0.23821 -0.048468 -0.0611888 -0.26042 
-0.0408115 -0.060783 -0.282195 -0.032995 -0.0598141 -0.303523 -0.0249713 -0.0582778 -0.324391 
-0.0166983 -0.0561808 -0.344785 -0.00815003 -0.053539 -0.364689 0.000675127 -0.0503755 -0.384092 
0.00975048 -0.046718 -0.40298 0.0190206 -0.0425966 -0.421341 0.028405 -0.0380419 -0.439158 
0.0378047 -0.0330833 -0.456414 0.0471109 -0.0277486 -0.473083 0.056214 -0.0220641 -0.489135 
0.0650131 -0.016056 -0.504534 0.0734221 -0.00975154 -0.51924 0.0813753 -0.00318182 -0.533209 
0.0888282 0.00361627 -0.546401 0.0957571 0.0105979 -0.558782 0.102155 0.0177088 -0.570328 
0.108028 0.024885 -0.581032 0.113387 0.0320528 -0.5909 0.118246 0.0391312 -0.599959 
0.122615 0.0460342 -0.608254 0.126502 0.0526751 -0.61584 0.129907 0.0589703 -0.622786 
0.13283 0.0648442 -0.62916 0.135273 0.0702335 -0.635028 0.13724 0.0750908 -0.640447 
0.138751 0.0793866 -0.645455 0.139833 0.0831106 -0.650074 0.140534 0.086271 -0.654302 
0.140913 0.088892 -0.658117 0.141041 0.0910105 -0.66148 0.140998 0.0926708 -0.664342 
0.140862 0.0939196 -0.666646 0.140704 0.0948002 -0.668338 0.140582 0.0953478 -0.669375 
0.140533 0.095585 -0.669727 
LINES 2 100
OFFSETS vtktypeint64
0 100 
CONNECTIVITY vtktypeint64
0 1 2 3 4 5 6 7 8 
9 10 11 12 13 14 15 16 17 
18 19 20 21 22 23 24 25 26 
27 28 29 30 31 32 33 34 35 
36 37 38 39 40 41 42 43 44 
45 46 47 48 49 50 51 52 53 
54 55 56 57 58 59 60 61 62 
63 64 65 66 67 68 69 70 71 
72 73 74 75 76 77 78 79 80 
81 82 83 84 85 86 87 88 89 
90 91 92 93 94 95 96 97 98 
99 
POINT_DATA 100
FIELD FieldData 3
_theta 1 100 double
0 0.031733259127 0.063466518254 0.095199777382 0.12693303651 0.15866629564 0.19039955476 0.22213281389 0.25386607302 
0.28559933214 0.31733259127 0.3490658504 0.38079910953 0.41253236865 0.44426562778 0.47599888691 0.50773214603 0.53946540516 
0.57119866429 0.60293192342 0.63466518254 0.66639844167 0.6981317008 0.72986495992 0.76159821905 0.79333147818 0.82506473731 
0.85679799643 0.88853125556 0.92026451469 0.95199777382 0.98373103294 1.0154642921 1.0471975512 1.0789308103 1.1106640695 
1.1423973286 1.1741305877 1.2058638468 1.237597106 1.2693303651 1.3010636242 1.3327968833 1.3645301425 1.3962634016 
1.4279966607 1.4597299198 1.491463179 1.5231964381 1.5549296972 1.5866629564 1.6183962155 1.6501294746 1.6818627337 
1.7135959929 1.745329252 1.7770625111 1.8087957702 1.8405290294 1.8722622885 1.9039955476 1.9357288068 1.9674620659 
1.999195325 2.0309285841 2.0626618433 2.0943951024 2.1261283615 2.1578616206 2.1895948798 2.2213281389 2.253061398 
2.2847946572 2.3165279163 2.3482611754 2.3799944345 2.4117276937 2.4434609528 2.4751942119 2.506927471 2.5386607302 
2.5703939893 2.6021272484 2.6338605076 2.6655937667 2.6973270258 2.7290602849 2.7607935441 2.7925268032 2.8242600623 
2.8559933214 2.8877265806 2.9194598397 2.9511930988 2.982926358 3.0146596171 3.0463928762 3.0781261353 3.1098593945 
3.1415926536 
_radius 1 100 double
3.7238012299e-16 0.015506812459 0.03083284605 0.045814228975 0.060322606646 0.07427583933 0.087641425045 0.10043216363 0.1126948304 
0.12449376572 0.13589214064 0.14693408701 0.15763077303 0.16795282084 0.17783030147 0.18716017269 0.19581978533 0.20368421855 
0.21064478093 0.21662597878 0.2215985349 0.22558659505 0.22866804125 0.23096775762 0.23264463345 0.23387388517 0.23482680198 
0.23565022103 0.23644799559 0.23726661962 0.23808714811 0.23882543837 0.23934203722 0.23946144682 0.23899846279 0.23778769903 
0.23571181068 0.23272418883 0.22886272931 0.2242525063 0.21909672911 0.21365709916 0.20822637018 0.20309721435 0.19853205995 
0.19473817588 0.19185099623 0.18992688975 0.18894484953 0.18881540214 0.18939463745 0.19050153058 0.19193725858 0.19350544286 
0.19503179303 0.19638071493 0.19746596326 0.1982532423 0.1987547453 0.1990178596 0.19911133305 0.19911169737 0.1990914162 
0.19910908195 0.19920151158 0.19937788822 0.19961706968 0.1998700216 0.20006861157 0.2001395922 0.20002035183 0.19967237329 
0.19908899181 0.19829521664 0.19733889135 0.19627439204 0.19514215937 0.19394888216 0.19265325207 0.19116068408 0.18932797348 
0.18697661506 0.18391209006 0.17994586947 0.17491693069 0.16870998351 0.16126819833 0.15259896464 0.1427720668 0.13191063232 
0.1201762181 0.1077503105 0.09481511734 0.081536611239 0.068052227975 0.054464513609 0.040840658269 0.027216689735 0.013604502192 
7.7391581139e-16 
_area 1 100 double
0 0.00063518776111 0.00250875357 0.0055300408359 0.0095648247052 0.014457445905 0.020055662077 0.026232764894 0.032901343576 
0.040014397069 0.047552595395 0.055500887406 0.063821778528 0.072434379945 0.081206592107 0.089963222385 0.098507471021 0.10664906718 
0.11423059531 0.12114464753 0.12733823615 0.13280628226 0.13758021615 0.14171774015 0.14529581763 0.14840506966 0.15114322203 
0.15360672683 0.15588000853 0.15802076414 0.16004095192 0.16188895584 0.1634433378 0.16452364582 0.16491074709 0.16435599358 
0.16259886431 0.15944709555 0.15486848473 0.14902690435 0.14226738088 0.13506561395 0.12795295172 0.12143130371 0.11589126926 
0.1115455445 0.10840546707 0.10631628551 0.10501866976 0.10421311857 0.10362201178 0.10303674536 0.10235222131 0.10163937603 
0.10118246048 0.10092110339 0.10055216651 0.099890910019 0.098843372817 0.097385667869 0.095556354395 0.093441898968 0.091155393733 
0.088819370958 0.086554907845 0.084460450096 0.082594316459 0.080988067263 0.079666762491 0.078709171427 0.078304900755 0.078166017098 
0.0782803421 0.078684026023 0.079429580405 0.080605084287 0.082185121906 0.083859856001 0.085455426409 0.086773525424 0.087584337436 
0.087639646968 0.086699372573 0.084565065194 0.081113760906 0.076325212493 0.070295966807 0.063235875764 0.055446383022 0.04728434164 
0.039118760866 0.031289498684 0.024075970104 0.01768081677 0.012229293957 0.007781243984 0.0043501177306 0.0019232379124 0.00047912630676 
8.5541450211e-17 
