# vtk DataFile Version 5.1
vtk output
ASCII
DATASET POLYDATA
POINTS 100 float
0.139902 0.0284295 -0.58359 0.139934 0.0286081 -0.583911 0.140077 0.0289441 -0.584847 
0.140321 0.0293896 -0.586271 0.140646 0.0298695 -0.58799 0.141017 0.0302877 -0.58976 
0.141383 0.0305355 -0.591309 0.141677 0.030501 -0.592366 0.141808 0.0300782 -0.592679 
0.141667 0.0291758 -0.59204 0.141124 0.0277232 -0.590298 0.14004 0.0256758 -0.587365 
0.138266 0.0230166 -0.583219 0.135657 0.0197559 -0.577889 0.132083 0.0159294 -0.571451 
0.127434 0.0115931 -0.564004 0.121636 0.00681901 -0.555654 0.114654 0.00168922 -0.546501 
0.1065 -0.00370923 -0.536618 0.0972343 -0.00928852 -0.526048 0.0869611 -0.0149632 -0.514801 
0.0758256 -0.0206518 -0.502853 0.064003 -0.0262771 -0.490155 0.0516868 -0.0317658 -0.476648 
0.0390758 -0.0370466 -0.462267 0.02636 -0.0420493 -0.446961 0.0137086 -0.0467031 -0.4307 
0.00126006 -0.0509369 -0.413478 -0.0108844 -0.054679 -0.395319 -0.0226626 -0.0578596 -0.376273 
-0.0340493 -0.0604131 -0.356408 -0.0450492 -0.0622821 -0.335803 -0.0556869 -0.0634207 -0.314533 
-0.0659941 -0.0637988 -0.292667 -0.0759961 -0.0634053 -0.270253 -0.0856986 -0.0622502 -0.247322 
-0.0950764 -0.0603656 -0.22388 -0.104067 -0.0578051 -0.199923 -0.112566 -0.054642 -0.175436 
-0.120432 -0.0509652 -0.150413 -0.12749 -0.0468757 -0.124862 -0.133549 -0.0424811 -0.098821 
-0.138411 -0.0378906 -0.0723625 -0.141892 -0.0332107 -0.0455994 -0.14384 -0.0285408 -0.0186828 
-0.144149 -0.0239704 0.00820389 -0.142773 -0.0195774 0.0348562 -0.139731 -0.0154272 0.0610633 
-0.135113 -0.011573 0.0866239 -0.129075 -0.00805646 0.111363 -0.121829 -0.00490896 0.135145 
-0.113627 -0.00215303 0.157884 -0.104745 0.000196647 0.17955 -0.0954647 0.00213253 0.200168 
-0.0860489 0.00365389 0.21981 -0.0767285 0.0047669 0.238585 -0.0676859 0.00548502 0.256628 
-0.0590469 0.00582931 0.274082 -0.0508768 0.00582866 0.29108 -0.0431831 0.00551951 0.307739 
-0.0359229 0.00494498 0.324146 -0.0290154 0.00415333 0.340354 -0.0223566 0.00319572 0.356384 
-0.0158355 0.00212355 0.372226 -0.00934987 0.000985416 0.387853 -0.00281974 -0.000175882 0.403224 
0.00380287 -0.00132595 0.418298 0.0105283 -0.00244081 0.433046 0.0173284 -0.00350794 0.447449 
0.0241407 -0.00452636 0.461511 0.0308758 -0.00550561 0.475252 0.0374281 -0.00646373 0.488704 
0.0436879 -0.00742455 0.501906 0.0495533 -0.00841453 0.514895 0.0549408 -0.00945952 0.527694 
0.0597935 -0.0105817 0.540305 0.0640859 -0.0117974 0.552707 0.0678251 -0.0131151 0.564847 
0.0710482 -0.0145353 0.576647 0.0738166 -0.0160502 0.588005 0.0762086 -0.0176455 0.598808 
0.0783102 -0.0193014 0.608938 0.0802059 -0.0209951 0.618283 0.0819712 -0.0227029 0.626751 
0.0836658 -0.0244019 0.634278 0.08533 -0.0260714 0.640829 0.0869839 -0.0276938 0.646408 
0.0886282 -0.0292553 0.651052 0.0902483 -0.0307446 0.654825 0.0918184 -0.0321532 0.657818 
0.0933074 -0.0334736 0.660137 0.0946842 -0.0346988 0.66189 0.0959215 -0.0358212 0.663188 
0.0969993 -0.0368322 0.664131 0.0979059 -0.0377223 0.664806 0.0986376 -0.038481 0.665284 
0.099197 -0.0390981 0.665619 0.0995902 -0.039564 0.665852 0.0998243 -0.0398711 0.666007 
0.0999044 -0.0400148 0.666099 
LINES 2 100
OFFSETS vtktypeint64
0 100 
CONNECTIVITY vtktypeint64
0 1 2 3 4 5 6 7 8 
9 10 11 12 13 14 15 16 17 
18 19 20 21 22 23 24 25 26 
27 28 29 30 31 32 33 34 35 
36 37 38 39 40 41 42 43 44 
45 46 47 48 49 50 51 52 53 
54 55 56 57 58 59 60 61 62 
63 64 65 66 67 68 69 70 71 
72 73 74 75 76 77 78 79 80 
81 82 83 84 85 86 87 88 89 
90 91 92 93 94 95 96 97 98 
99 
POINT_DATA 100
FIELD FieldData 3
_theta 1 100 double
0 0.031733259127 0.063466518254 0.095199777382 0.12693303651 0.15866629564 0.19039955476 0.22213281389 0.25386607302 
0.28559933214 0.31733259127 0.3490658504 0.38079910953 0.41253236865 0.44426562778 0.47599888691 0.50773214603 0.53946540516 
0.57119866429 0.60293192342 0.63466518254 0.66639844167 0.6981317008 0.72986495992 0.76159821905 0.79333147818 0.82506473731 
0.85679799643 0.88853125556 0.92026451469 0.95199777382 0.98373103294 1.0154642921 1.0471975512 1.0789308103 1.1106640695 
1.1423973286 1.1741305877 1.2058638468 1.237597106 1.2693303651 1.3010636242 1.3327968833 1.3645301425 1.3962634016 
1.4279966607 1.4597299198 1.491463179 1.5231964381 1.5549296972 1.5866629564 1.6183962155 1.6501294746 1.6818627337 
1.7135959929 1.745329252 1.7770625111 1.8087957702 1.8405290294 1.8722622885 1.9039955476 1.9357288068 1.9674620659 
1.999195325 2.0309285841 2.0626618433 2.0943951024 2.1261283615 2.1578616206 2.1895948798 2.2213281389 2.253061398 
2.2847946572 2.3165279163 2.3482611754 2.3799944345 2.4117276937 2.4434609528 2.4751942119 2.506927471 2.5386607302 
2.5703939893 2.6021272484 2.6338605076 2.6655937667 2.6973270258 2.7290602849 2.7607935441 2.7925268032 2.8242600623 
2.8559933214 2.8877265806 2.9194598397 2.9511930988 2.982926358 3.0146596171 3.0463928762 3.0781261353 3.1098593945 
3.1415926536 
_radius 1 100 double
1.0093884727e-15 0.015701445733 0.03134035422 0.04684895041 0.062159576925 0.077204011677 0.09191198281 0.10620897836 0.12001372828 
0.13323593235 0.14577487356 0.15751952236 0.16835064005 0.17814523563 0.18678349842 0.1941580023 0.20018456388 0.20481368041 
0.2080410676 0.20991560052 0.21054305424 0.21008447485 0.20874868619 0.20677919834 0.20443651854 0.20197753202 0.19963416166 
0.19759381992 0.19598412922 0.19486401993 0.19422271494 0.1939873284 0.19403878954 0.19423451968 0.19443490521 0.19452945536 
0.19445794107 0.19422202824 0.19388428524 0.19355443882 0.19336723865 0.19346027454 0.19396013491 0.19498006876 0.19662510535 
0.19899625846 0.20218613127 0.2062631274 0.21124820718 0.21709327858 0.22367070981 0.2307788727 0.23816238086 0.24554147055 
0.25264390444 0.25923376375 0.26513316844 0.27023463874 0.27450332925 0.27796974478 0.2807147609 0.28284970602 0.28449475872 
0.2857588831 0.28672400403 0.28743526115 0.28789815309 0.28808232909 0.28793079252 0.28737245637 0.28633549142 0.28475890098 
0.2826003018 0.27983886574 0.27647350174 0.2725173109 0.26798990275 0.26290926661 0.25728465949 0.25111158371 0.24436951914 
0.23702269457 0.22902381289 0.22032027382 0.21086209281 0.20061045336 0.18954569923 0.17767358435 0.16502874224 0.15167462035 
0.13769957974 0.12320949447 0.10831790435 0.093135376142 0.077759974372 0.062270492649 0.04672339297 0.031153483566 0.015577577395 
8.5029874202e-16 
_area 1 100 double
0 0.00055723507696 0.0022436022587 0.0050969611369 0.0091602244069 0.014453716345 0.020944938548 0.028525046873 0.036999447565 
0.046095471442 0.055485424518 0.064819435637 0.07375992217 0.082008963592 0.08932232812 0.095509473627 0.10042557299 0.10396538362 
0.10606643134 0.1067219255 0.10599700309 0.10403932121 0.10107746083 0.097406020761 0.093361117902 0.089292472755 0.085539095292 
0.082409462486 0.080136154654 0.078793248984 0.078300101149 0.078527583615 0.079350167908 0.080653417177 0.082358042615 0.084430377475 
0.086841056281 0.089520327285 0.092373219634 0.095307770712 0.098241744794 0.10110132408 0.10382959085 0.10640954893 0.10889458708 
0.11143586209 0.11429870966 0.11785800248 0.12253977269 0.12866471576 0.13627697163 0.14513829067 0.15483061084 0.16483214678 
0.17457395984 0.18350911357 0.19118812195 0.19731832885 0.20179294537 0.20469255078 0.20627713788 0.20693207798 0.20752805184 
0.20762779258 0.20730091634 0.20659602433 0.20562884518 0.20410126022 0.20194970078 0.19914608981 0.19570434925 0.19168571041 
0.18718620619 0.1823098635 0.17713732962 0.17170086074 0.16597583184 0.15989416128 0.15337250749 0.14633966216 0.13875375857 
0.13060937322 0.12193770557 0.11280237214 0.10329237483 0.093513385093 0.083579133003 0.073606310788 0.063716420266 0.054043258916 
0.044738446374 0.035967742263 0.027898161288 0.020681815757 0.014442789947 0.0092705586229 0.005220558803 0.0023205244027 0.00058000251256 
5.029383594e-17 
