# vtk DataFile Version 5.1
vtk output
ASCII
DATASET POLYDATA
POINTS 100 float
0.182694 0.0770302 -0.734917 0.182603 0.0768973 -0.734641 0.182384 0.0763143 -0.733824 
0.182033 0.0752943 -0.732445 0.181546 0.0738563 -0.73047 0.180904 0.0720208 -0.727861 
0.180078 0.0698042 -0.724577 0.179017 0.0672137 -0.720583 0.177651 0.0642433 -0.715848 
0.175885 0.0608722 -0.710352 0.173609 0.0570659 -0.704086 0.170699 0.0527801 -0.697052 
0.16703 0.0479674 -0.689256 0.162485 0.0425857 -0.680708 0.156971 0.0366081 -0.671414 
0.150424 0.0300322 -0.661374 0.142826 0.0228881 -0.650573 0.134208 0.0152435 -0.638987 
0.12465 0.0072059 -0.626572 0.114279 -0.00108047 -0.613275 0.103261 -0.00944047 -0.599036 
0.0917899 -0.0176783 -0.583791 0.0800685 -0.0255902 -0.567482 0.0682953 -0.0329783 -0.550063 
0.0566471 -0.0396648 -0.531507 0.0452656 -0.045504 -0.51181 0.0342479 -0.050392 -0.490993 
0.0236423 -0.0542717 -0.469104 0.0134488 -0.0571345 -0.446211 0.00362684 -0.0590161 -0.422402 
-0.00589354 -0.0599894 -0.397772 -0.0151964 -0.0601538 -0.372424 -0.0243631 -0.0596229 -0.346453 
-0.0334554 -0.0585123 -0.319948 -0.0425014 -0.0569278 -0.292982 -0.0514848 -0.0549567 -0.265616 
-0.0603397 -0.0526628 -0.237896 -0.0689511 -0.0500842 -0.209861 -0.077161 -0.0472362 -0.181546 
-0.0847802 -0.0441171 -0.152988 -0.0916033 -0.0407162 -0.124235 -0.0974268 -0.0370235 -0.0953498 
-0.102067 -0.0330395 -0.0664135 -0.105375 -0.0287824 -0.0375265 -0.107254 -0.0242948 -0.00880675 
-0.107663 -0.0196451 0.0196151 -0.106623 -0.0149265 0.0476027 -0.104216 -0.0102523 0.0750229 
-0.100573 -0.00574827 0.101754 -0.0958697 -0.00154261 0.127695 -0.0903066 0.00224416 0.152772 
-0.0840961 0.0055095 0.176942 -0.0774465 0.00817724 0.200196 -0.0705482 0.0102035 0.222554 
-0.0635632 0.0115794 0.244065 -0.0566175 0.0123304 0.264797 -0.049798 0.0125119 0.284832 
-0.0431528 0.012203 0.304255 -0.0366952 0.0114973 0.323144 -0.0304102 0.0104939 0.341572 
-0.0242627 0.00928765 0.359594 -0.0182063 0.00796131 0.37725 -0.012192 0.00657958 0.394564 
-0.00617545 0.00518566 0.411547 -0.000123471 0.00380065 0.428203 0.0059824 0.00242557 0.444528 
0.0121435 0.00104554 0.46052 0.0183439 -0.000364459 0.47618 0.0245516 -0.00183325 0.491514 
0.0307209 -0.0033872 0.506532 0.0367956 -0.00504489 0.521246 0.0427126 -0.00681339 0.535671 
0.0484055 -0.00868637 0.549812 0.0538084 -0.0106442 0.563669 0.0588587 -0.0126561 0.577226 
0.063501 -0.0146833 0.590452 0.0676888 -0.016684 0.603301 0.0713877 -0.0186177 0.615711 
0.0745766 -0.02045 0.62761 0.0772498 -0.022156 0.638921 0.0794172 -0.0237232 0.649566 
0.0811047 -0.0251517 0.659479 0.082353 -0.0264542 0.668605 0.0832161 -0.0276535 0.676911 
0.0837584 -0.0287796 0.684387 0.084051 -0.0298657 0.691045 0.0841673 -0.0309437 0.696921 
0.0841785 -0.0320408 0.702067 0.0841487 -0.0331755 0.706551 0.0841311 -0.034356 0.710444 
0.0841643 -0.035578 0.713819 0.0842709 -0.0368256 0.716741 0.0844565 -0.0380719 0.719265 
0.0847115 -0.0392815 0.721431 0.0850131 -0.0404133 0.723268 0.0853299 -0.0414245 0.724787 
0.0856263 -0.0422738 0.725994 0.0858673 -0.0429252 0.726883 0.0860238 -0.0433509 0.72745 
0.0860761 -0.0435338 0.727687 
LINES 2 100
OFFSETS vtktypeint64
0 100 
CONNECTIVITY vtktypeint64
0 1 2 3 4 5 6 7 8 
9 10 11 12 13 14 15 16 17 
18 19 20 21 22 23 24 25 26 
27 28 29 30 31 32 33 34 35 
36 37 38 39 40 41 42 43 44 
45 46 47 48 49 50 51 52 53 
54 55 56 57 58 59 60 61 62 
63 64 65 66 67 68 69 70 71 
72 73 74 75 76 77 78 79 80 
81 82 83 84 85 86 87 88 89 
90 91 92 93 94 95 96 97 98 
99 
POINT_DATA 100
FIELD FieldData 3
_theta 1 100 double
0 0.031733259127 0.063466518254 0.095199777382 0.12693303651 0.15866629564 0.19039955476 0.22213281389 0.25386607302 
0.28559933214 0.31733259127 0.3490658504 0.38079910953 0.41253236865 0.44426562778 0.47599888691 0.50773214603 0.53946540516 
0.57119866429 0.60293192342 0.63466518254 0.66639844167 0.6981317008 0.72986495992 0.76159821905 0.79333147818 0.82506473731 
0.85679799643 0.88853125556 0.92026451469 0.95199777382 0.98373103294 1.0154642921 1.0471975512 1.0789308103 1.1106640695 
1.1423973286 1.1741305877 1.2058638468 1.237597106 1.2693303651 1.3010636242 1.3327968833 1.3645301425 1.3962634016 
1.4279966607 1.4597299198 1.491463179 1.5231964381 1.5549296972 1.5866629564 1.6183962155 1.6501294746 1.6818627337 
1.7135959929 1.745329252 1.7770625111 1.8087957702 1.8405290294 1.8722622885 1.9039955476 1.9357288068 1.9674620659 
1.999195325 2.0309285841 2.0626618433 2.0943951024 2.1261283615 2.1578616206 2.1895948798 2.2213281389 2.253061398 
2.2847946572 2.3165279163 2.3482611754 2.3799944345 2.4117276937 2.4434609528 2.4751942119 2.506927471 2.5386607302 
2.5703939893 2.6021272484 2.6338605076 2.6655937667 2.6973270258 2.7290602849 2.7607935441 2.7925268032 2.8242600623 
2.8559933214 2.8877265806 2.9194598397 2.9511930988 2.982926358 3.0146596171 3.0463928762 3.0781261353 3.1098593945 
3.1415926536 
_radius 1 100 double
2.1898779787e-16 0.015798101255 0.031568352631 0.047268790531 0.062837683269 0.078187539957 0.093202874273 0.10774187765 0.12164161189 
0.13472599144 0.14681571741 0.15773938111 0.16734506078 0.17551179349 0.18216026984 0.18726199048 0.19084599297 0.19300217818 
0.19388030084 0.1936838958 0.19265882942 0.19107680476 0.1892149788 0.18733376368 0.18565567053 0.18434835778 0.18351444527 
0.18318903977 0.18334400139 0.18389712429 0.18472519137 0.18568100417 0.18661422213 0.18739427537 0.18793224321 0.18819805376 
0.18822924907 0.18812785688 0.1880435229 0.18814509649 0.18858881737 0.18949518593 0.19094337708 0.19298210014 0.19564664961 
0.19896996321 0.20298041804 0.20768694099 0.21305908937 0.21901276201 0.22540926537 0.23206861989 0.23879209068 0.24538700778 
0.25168826294 0.25757318783 0.26296846516 0.26784908211 0.27223034194 0.27615482715 0.27967698119 0.28284836601 0.28570623378 
0.2882667916 0.29052310081 0.29244668595 0.29399175104 0.2951010397 0.29571250464 0.29576598986 0.29520913315 0.29400174971 
0.29211811843 0.28954687286 0.28628856278 0.28235132809 0.27774543878 0.27247764813 0.26654636121 0.2599385365 0.25262902285 
0.24458269784 0.23575934535 0.22612075155 0.21563909194 0.2043053949 0.19213673092 0.17918080648 0.16551686845 0.1512522901 
0.13651490873 0.12144201179 0.10616762306 0.090810194089 0.075462789538 0.060187322448 0.045013462922 0.02994178384 0.014949888306 
1.8402051524e-15 
_area 1 100 double
0 0.00063719823936 0.0025433787872 0.0056992340575 0.01006334169 0.015561337728 0.022075641393 0.029438520802 0.037430402619 
0.045784358586 0.05419684517 0.062344073616 0.069902844423 0.07657424511 0.082108189633 0.086326310738 0.089140276607 0.090562439201 
0.090706202037 0.089774937913 0.088040673709 0.085816487549 0.083428638817 0.081195482789 0.079420094214 0.07836088998 0.078044250605 
0.078326530379 0.079100162842 0.080287763166 0.081818121522 0.083611352198 0.085578697119 0.087640993329 0.0897478338 0.09187206875 
0.093987834286 0.096075898989 0.098151869212 0.10026552641 0.10245958115 0.10472867707 0.10702463833 0.10931225666 0.11164461845 
0.11422588608 0.11742303315 0.12166436092 0.12723558555 0.13414879328 0.14218992855 0.15103288503 0.16030732953 0.16962408572 
0.17860288572 0.18692338047 0.19437130746 0.20085984385 0.2064360217 0.21127724392 0.21567944171 0.2200018037 0.22435730453 
0.22841587216 0.23191567049 0.23466668663 0.23653119475 0.23741630382 0.23727127223 0.23608705755 0.23389195279 0.23074012259 
0.22669479006 0.22181174637 0.21612938419 0.20966805591 0.2024367116 0.19444213568 0.18569690716 0.17622468606 0.16606336747 
0.15526721077 0.14390862513 0.132079683 0.11989323976 0.10748369789 0.095007294938 0.082640905863 0.07057755692 0.059017521829 
0.048155965252 0.038169872116 0.029207081195 0.021379014525 0.014757519399 0.0093759354893 0.0052347077707 0.0023116084917 0.00057539224956 
5.8814331167e-17 
