# vtk DataFile Version 5.1
vtk output
ASCII
DATASET POLYDATA
POINTS 100 float
0.12881 -0.0165354 0.607539 0.128758 -0.0164898 0.607497 0.128582 -0.0164531 0.607489 
0.128272 -0.0164208 0.607476 0.127814 -0.0163873 0.607395 0.127188 -0.0163477 0.607159 
0.126381 -0.0162986 0.606666 0.125381 -0.0162393 0.605795 0.124183 -0.0161718 0.60442 
0.122792 -0.0161006 0.602414 0.121215 -0.016031 0.599656 0.119463 -0.0159673 0.596044 
0.117543 -0.0159103 0.591498 0.115453 -0.0158545 0.585971 0.113178 -0.0157864 0.57945 
0.110687 -0.0156833 0.571962 0.107928 -0.0155137 0.56357 0.104834 -0.0152387 0.554369 
0.101326 -0.0148159 0.544479 0.0973186 -0.0142034 0.534036 0.0927337 -0.0133657 0.523178 
0.0875085 -0.0122789 0.512036 0.0816065 -0.0109361 0.50072 0.0750259 -0.00935101 0.489313 
0.067804 -0.00755978 0.477862 0.060018 -0.00562058 0.466379 0.0517803 -0.0036106 0.454843 
0.0432293 -0.00162077 0.443201 0.0345166 0.000251363 0.431383 0.0257912 0.00190983 0.419307 
0.0171834 0.00326863 0.40689 0.00879007 0.00425926 0.394061 0.000663356 0.00483648 0.380762 
-0.00719549 0.0049816 0.366957 -0.0148359 0.0047028 0.352628 -0.0223509 0.00403246 0.337773 
-0.0298644 0.00302177 0.322401 -0.0375125 0.00173324 0.306519 -0.0454225 0.000232164 0.29013 
-0.0536909 -0.00142195 0.273219 -0.0623635 -0.00318289 0.255754 -0.0714203 -0.00502308 0.237679 
-0.0807661 -0.0069361 0.218921 -0.0902298 -0.00893609 0.199395 -0.0995718 -0.0110539 0.179016 
-0.108499 -0.0133308 0.15771 -0.116688 -0.0158097 0.13543 -0.123809 -0.018527 0.112164 
-0.129553 -0.0215029 0.0879469 -0.133661 -0.0247356 0.0628665 -0.135944 -0.0281961 0.0370596 
-0.136298 -0.0318275 0.0107076 -0.134712 -0.0355475 -0.0159759 -0.131266 -0.0392536 -0.0427602 
-0.126126 -0.0428319 -0.0694158 -0.119517 -0.0461664 -0.095732 -0.111713 -0.0491494 -0.121533 
-0.103001 -0.051691 -0.146691 -0.0936658 -0.0537262 -0.17113 -0.0839595 -0.0552195 -0.194828 
-0.07409 -0.0561657 -0.217811 -0.0642074 -0.0565871 -0.240139 -0.0544008 -0.0565281 -0.261892 
-0.0447014 -0.0560468 -0.283153 -0.0350916 -0.0552054 -0.303986 -0.025519 -0.0540609 -0.324429 
-0.0159126 -0.0526566 -0.344476 -0.00619966 -0.0510159 -0.36408 0.0036792 -0.0491396 -0.383151 
0.0137581 -0.0470056 -0.401568 0.0240383 -0.0445732 -0.419191 0.0344857 -0.0417896 -0.43588 
0.045033 -0.0385981 -0.451513 0.0555859 -0.034948 -0.466002 0.066032 -0.030804 -0.479308 
0.0762514 -0.0261533 -0.491445 0.0861273 -0.0210117 -0.502483 0.095555 -0.0154255 -0.512542 
0.104449 -0.00947076 -0.521779 0.112746 -0.00324896 -0.53037 0.12041 0.0031195 -0.538493 
0.127423 0.00950397 -0.546308 0.13379 0.0157729 -0.55394 0.139527 0.0218029 -0.561465 
0.144662 0.0274867 -0.568908 0.149225 0.0327391 -0.576239 0.153248 0.0375002 -0.583385 
0.156762 0.0417367 -0.590238 0.159795 0.0454401 -0.596674 0.162376 0.0486231 -0.60257 
0.164535 0.051315 -0.607821 0.166301 0.0535558 -0.612354 0.16771 0.0553912 -0.616135 
0.168802 0.0568675 -0.619171 0.169618 0.0580276 -0.621512 0.170204 0.0589094 -0.623234 
0.170603 0.0595433 -0.624431 0.170852 0.059953 -0.625198 0.170983 0.0601549 -0.625616 
0.171015 0.0601594 -0.62574 
LINES 2 100
OFFSETS vtktypeint64
0 100 
CONNECTIVITY vtktypeint64
0 1 2 3 4 5 6 7 8 
9 10 11 12 13 14 15 16 17 
18 19 20 21 22 23 24 25 26 
27 28 29 30 31 32 33 34 35 
36 37 38 39 40 41 42 43 44 
45 46 47 48 49 50 51 52 53 
54 55 56 57 58 59 60 61 62 
63 64 65 66 67 68 69 70 71 
72 73 74 75 76 77 78 79 80 
81 82 83 84 85 86 87 88 89 
90 91 92 93 94 95 96 97 98 
99 
POINT_DATA 100
FIELD FieldData 3
_theta 1 100 double
0 0.031733259127 0.063466518254 0.095199777382 0.12693303651 0.15866629564 0.19039955476 0.22213281389 0.25386607302 
0.28559933214 0.31733259127 0.3490658504 0.38079910953 0.41253236865 0.44426562778 0.47599888691 0.50773214603 0.53946540516 
0.57119866429 0.60293192342 0.63466518254 0.66639844167 0.6981317008 0.72986495992 0.76159821905 0.79333147818 0.82506473731 
0.85679799643 0.88853125556 0.92026451469 0.95199777382 0.98373103294 1.0154642921 1.0471975512 1.0789308103 1.1106640695 
1.1423973286 1.1741305877 1.2058638468 1.237597106 1.2693303651 1.3010636242 1.3327968833 1.3645301425 1.3962634016 
1.4279966607 1.4597299198 1.491463179 1.5231964381 1.5549296972 1.5866629564 1.6183962155 1.6501294746 1.6818627337 
1.7135959929 1.745329252 1.7770625111 1.8087957702 1.8405290294 1.8722622885 1.9039955476 1.9357288068 1.9674620659 
1.999195325 2.0309285841 2.0626618433 2.0943951024 2.1261283615 2.1578616206 2.1895948798 2.2213281389 2.253061398 
2.2847946572 2.3165279163 2.3482611754 2.3799944345 2.4117276937 2.4434609528 2.4751942119 2.506927471 2.5386607302 
2.5703939893 2.6021272484 2.6338605076 2.6655937667 2.6973270258 2.7290602849 2.7607935441 2.7925268032 2.8242600623 
2.8559933214 2.8877265806 2.9194598397 2.9511930988 2.982926358 3.0146596171 3.0463928762 3.0781261353 3.1098593945 
3.1415926536 
_radius 1 100 double
1.0011263372e-15 0.015220927935 0.03035828877 0.045336493342 0.060088228457 0.074555403211 0.088687608431 0.10243871347 0.11576283013 
0.12861106179 0.14093017937 0.15266374872 0.16375549658 0.17415407954 0.18381808782 0.19272014008 0.20084925872 0.20821122463 
0.21482713604 0.2207307842 0.2259655989 0.23058175558 0.23463362684 0.23817729475 0.2412676087 0.24395447948 0.2462786431 
0.24826762485 0.24993276595 0.25126794749 0.25225027853 0.25284267672 0.25299800038 0.25266419505 0.25178982734 0.25032943505 
0.24824832344 0.24552670731 0.24216330319 0.23817849011 0.23361694601 0.22854933401 0.22307236874 0.21730663505 0.2113919188 
0.20548041836 0.19972878229 0.19429018554 0.18930744507 0.18490754097 0.18119716343 0.17825843573 0.17614397954 0.17487099744 
0.17441503675 0.17470540497 0.17562515537 0.17701828821 0.17870512452 0.18050423581 0.18225665717 0.18384661277 0.18521387225 
0.18635583335 0.18732058127 0.18819380733 0.18908237104 0.19009644576 0.19133162961 0.19285243495 0.19467885667 0.19677776646 
0.19906042235 0.20138650124 0.20357407292 0.20541413939 0.20668789961 0.20718475155 0.20671913124 0.20514453977 0.20236347222 
0.19833240271 0.19306147845 0.18660911283 0.17907221283 0.17057327962 0.1612460191 0.15122132004 0.14061543523 0.1295218919 
0.11800807194 0.10611661953 0.093871006536 0.081283897222 0.068366558525 0.055137530058 0.041629070553 0.027890430032 0.013987625455 
1.4176648506e-15 
_area 1 100 double
0 0.00053124242887 0.0021169843144 0.0047347799971 0.0083513365911 0.01292596929 0.018411537085 0.024751699315 0.031875108404 
0.039688512863 0.048071235513 0.056873300263 0.065918793578 0.075014844942 0.083965212432 0.092586561726 0.10072540523 0.10827385809 
0.11518229463 0.12146656692 0.12720701458 0.1325364647 0.13761522317 0.14259351557 0.14756736438 0.15254213353 0.15742145526 
0.16202879892 0.16615155882 0.16959015128 0.17220081408 0.17393554237 0.17490517403 0.17534486102 0.17521939256 0.17434501796 
0.17259325482 0.16988253046 0.1661688129 0.1614592889 0.15583234185 0.14944982553 0.14255212129 0.13543147366 0.12838609829 
0.12166719589 0.11544033857 0.10977876324 0.10468480376 0.10012001437 0.096030341586 0.092365622202 0.089096890875 0.08623563302 
0.083868621308 0.082049361245 0.080619245852 0.079440510409 0.078411032066 0.077459769251 0.076558965659 0.075726862024 0.075015120688 
0.074487264465 0.074205490937 0.074235530754 0.074658095508 0.075574902195 0.077135801814 0.079444532099 0.082351329337 0.085714335715 
0.089401011551 0.093306210594 0.097105254238 0.10041730806 0.10292937599 0.10437982809 0.10457687305 0.10341761415 0.10089650229 
0.097099727745 0.092187035959 0.086365570069 0.079861264104 0.072892667069 0.065651368654 0.058292826248 0.050939385689 0.04369265848 
0.036648436118 0.029907541886 0.023579673757 0.017781131589 0.012629211983 0.0082358646887 0.0047019568959 0.0021123445208 0.00053153765641 
9.1971879945e-17 
