# vtk DataFile Version 5.1
vtk output
ASCII
DATASET POLYDATA
POINTS 100 float
0.136143 0.0516362 -0.657292 0.135894 0.0513595 -0.657645 0.135135 0.0507271 -0.658579 
0.133924 0.0497753 -0.659931 0.132345 0.0485597 -0.66145 0.1305 0.0471463 -0.662826 
0.128495 0.0456031 -0.663722 0.126424 0.0439891 -0.663808 0.124356 0.0423461 -0.662799 
0.12232 0.0406915 -0.660475 0.120301 0.0390141 -0.656706 0.118234 0.037274 -0.651453 
0.116012 0.0354057 -0.64477 0.113491 0.0333249 -0.636781 0.110504 0.030937 -0.627664 
0.10688 0.0281481 -0.617621 0.102461 0.0248756 -0.606848 0.0971227 0.0210578 -0.595513 
0.0907871 0.0166622 -0.583733 0.0834367 0.0116903 -0.571567 0.0751193 0.00617931 -0.559009 
0.0659476 0.000201475 -0.546 0.0560913 -0.0061406 -0.53244 0.045764 -0.01272 -0.518211 
0.0352041 -0.0193933 -0.503196 0.0246541 -0.0260089 -0.487303 0.0143379 -0.0324147 -0.470477 
0.00444052 -0.0384654 -0.452716 -0.00490821 -0.0440279 -0.434067 -0.0136442 -0.0489853 -0.414625 
-0.0217725 -0.0532398 -0.394517 -0.0293629 -0.0567137 -0.373885 -0.0365381 -0.0593507 -0.352867 
-0.0434556 -0.0611153 -0.331577 -0.0502858 -0.0619938 -0.310092 -0.0571869 -0.0619944 -0.288437 
-0.0642819 -0.0611475 -0.266591 -0.0716385 -0.0595062 -0.244484 -0.079254 -0.0571458 -0.222016 
-0.0870491 -0.0541635 -0.199072 -0.094869 -0.050675 -0.175538 -0.102494 -0.0468117 -0.151331 
-0.109655 -0.0427141 -0.126404 -0.11606 -0.0385253 -0.100768 -0.121418 -0.0343829 -0.0744921 
-0.125468 -0.0304102 -0.0476999 -0.128004 -0.0267086 -0.0205644 -0.12889 -0.0233512 0.00670976 
-0.128082 -0.0203787 0.0339036 -0.125621 -0.0177983 0.0608034 -0.121638 -0.015586 0.087218 
-0.116335 -0.013692 0.112993 -0.109965 -0.0120489 0.138019 -0.102812 -0.0105817 0.162232 
-0.09516 -0.00921881 0.185612 -0.0872695 -0.00790169 0.208171 -0.0793563 -0.00659356 0.229942 
-0.0715752 -0.00528442 0.250966 -0.0640121 -0.00399261 0.271274 -0.0566842 -0.00276244 0.290885 
-0.0495472 -0.00165793 0.309798 -0.0425102 -0.000753742 0.327991 -0.0354541 -0.000124279 0.345429 
-0.0282527 0.000167548 0.362072 -0.0207935 8.02978e-05 0.377893 -0.0129951 -0.000398645 0.392882 
-0.00482001 -0.00124944 0.407064 0.0037185 -0.00242047 0.420504 0.0125571 -0.00383342 0.433307 
0.0215889 -0.00539203 0.445613 0.0306755 -0.00699364 0.457589 0.0396628 -0.00854174 0.469412 
0.0483976 -0.00995809 0.48125 0.0567445 -0.0111925 0.493242 0.0645989 -0.0122289 0.505483 
0.0718961 -0.0130872 0.518011 0.0786147 -0.0138192 0.530795 0.0847743 -0.0145014 0.54374 
0.0904285 -0.0152225 0.556691 0.0956531 -0.01607 0.569451 0.100533 -0.0171158 0.581791 
0.105148 -0.0184041 0.593483 0.109562 -0.0199418 0.604309 0.113809 -0.0216944 0.614093 
0.117897 -0.0235874 0.622706 0.121801 -0.0255132 0.63008 0.12547 -0.0273427 0.636209 
0.128839 -0.0289402 0.641148 0.131836 -0.0301811 0.644998 0.1344 -0.0309674 0.647896 
0.136484 -0.0312415 0.65 0.138074 -0.0309954 0.651471 0.139186 -0.030274 0.652462 
0.139868 -0.0291714 0.653103 0.140199 -0.027822 0.653503 0.140274 -0.0263858 0.653741 
0.140199 -0.0250307 0.65387 0.140072 -0.0239126 0.653925 0.139975 -0.0231579 0.653923 
0.139962 -0.0228487 0.653874 
LINES 2 100
OFFSETS vtktypeint64
0 100 
CONNECTIVITY vtktypeint64
0 1 2 3 4 5 6 7 8 
9 10 11 12 13 14 15 16 17 
18 19 20 21 22 23 24 25 26 
27 28 29 30 31 32 33 34 35 
36 37 38 39 40 41 42 43 44 
45 46 47 48 49 50 51 52 53 
54 55 56 57 58 59 60 61 62 
63 64 65 66 67 68 69 70 71 
72 73 74 75 76 77 78 79 80 
81 82 83 84 85 86 87 88 89 
90 91 92 93 94 95 96 97 98 
99 
POINT_DATA 100
FIELD FieldData 3
_theta 1 100 double
0 0.031733259127 0.063466518254 0.095199777382 0.12693303651 0.15866629564 0.19039955476 0.22213281389 0.25386607302 
0.28559933214 0.31733259127 0.3490658504 0.38079910953 0.41253236865 0.44426562778 0.47599888691 0.50773214603 0.53946540516 
0.57119866429 0.60293192342 0.63466518254 0.66639844167 0.6981317008 0.72986495992 0.76159821905 0.79333147818 0.82506473731 
0.85679799643 0.88853125556 0.92026451469 0.95199777382 0.98373103294 1.0154642921 1.0471975512 1.0789308103 1.1106640695 
1.1423973286 1.1741305877 1.2058638468 1.237597106 1.2693303651 1.3010636242 1.3327968833 1.3645301425 1.3962634016 
1.4279966607 1.4597299198 1.491463179 1.5231964381 1.5549296972 1.5866629564 1.6183962155 1.6501294746 1.6818627337 
1.7135959929 1.745329252 1.7770625111 1.8087957702 1.8405290294 1.8722622885 1.9039955476 1.9357288068 1.9674620659 
1.999195325 2.0309285841 2.0626618433 2.0943951024 2.1261283615 2.1578616206 2.1895948798 2.2213281389 2.253061398 
2.2847946572 2.3165279163 2.3482611754 2.3799944345 2.4117276937 2.4434609528 2.4751942119 2.506927471 2.5386607302 
2.5703939893 2.6021272484 2.6338605076 2.6655937667 2.6973270258 2.7290602849 2.7607935441 2.7925268032 2.8242600623 
2.8559933214 2.8877265806 2.9194598397 2.9511930988 2.982926358 3.0146596171 3.0463928762 3.0781261353 3.1098593945 
3.1415926536 
_radius 1 100 double
5.390944524e-16 0.0159634387 0.031774209307 0.047293883135 0.062405468236 0.077018924495 0.091071593668 0.10452357596 0.11734914691 
0.12952611404 0.1410253397 0.15180245503 0.1617932108 0.17091321636 0.17906221387 0.18613257032 0.19202126621 0.19664422837 
0.19995140819 0.20194065641 0.20266833526 0.20225482248 0.20088358062 0.1987931807 0.196262436 0.1935895204 0.19106663721 
0.18895259905 0.1874466374 0.18666757927 0.18664249522 0.187307441 0.18852026491 0.19008281761 0.19176844396 0.19335064251 
0.19462969687 0.19545510862 0.1957422586 0.1954818801 0.19474108384 0.19365534611 0.1924122424 0.19122946739 0.19033104352 
0.1899256264 0.19018918421 0.19125219853 0.19319067593 0.19602109573 0.19970044404 0.2041321519 0.20917732875 0.21466953616 
0.22043101729 0.22628826071 0.23208473621 0.23768894745 0.24299688707 0.24792930999 0.25242544188 0.25643540561 0.25991364195 
0.2628150178 0.26509438853 0.26670939113 0.26762543937 0.26782143817 0.26729469589 0.26606385833 0.26416929587 0.26167103573 
0.25864475646 0.25517631756 0.25135484485 0.24726399821 0.24297127868 0.23851621599 0.23389952096 0.22907602863 0.22395399944 
0.21840210999 0.21226370824 0.20537623974 0.19759266118 0.18880136621 0.17894160052 0.16801229932 0.15607343693 0.14324007778 
0.12967020559 0.11554804013 0.10106496218 0.086400397429 0.071705048021 0.057088619285 0.04261356994 0.028295434124 0.014109152954 
5.8799221796e-16 
_area 1 100 double
0 0.00065265129979 0.0025996473963 0.005806285438 0.010209951892 0.015716594038 0.022200392895 0.029507354089 0.037461730323 
0.045873393182 0.054544370676 0.06327316887 0.071855998787 0.080085008588 0.087745377458 0.094615097004 0.10047200195 0.10511083569 
0.10836904016 0.11015547981 0.11047395939 0.10943465512 0.10725112467 0.10422673382 0.10073856111 0.097211616434 0.094044308892 
0.091559545555 0.09012350811 0.089729391256 0.090203207904 0.091355606268 0.092950974872 0.094742010555 0.096497980211 0.098032181587 
0.099238812179 0.10007522325 0.10061106496 0.10101592709 0.10137541079 0.10187209869 0.10251663062 0.10355298394 0.1046952536 
0.10576820093 0.1068278037 0.10806795893 0.10977488035 0.1122791893 0.11588145858 0.12074005946 0.12679057685 0.1337871812 
0.14140601767 0.14932077253 0.15724127643 0.16492918142 0.17219830052 0.17890482451 0.18493336748 0.19018473598 0.1945701605 
0.19801517504 0.20047320207 0.20193681328 0.20240768506 0.20183526483 0.20014389577 0.19730960823 0.19338612788 0.18849463516 
0.18280469287 0.17651678676 0.16984943364 0.16302682365 0.15625899481 0.14971111379 0.14346747283 0.13750228242 0.13167116054 
0.12573352003 0.11940505933 0.11242528727 0.10461833283 0.095930881882 0.086442046226 0.076348562618 0.065933045634 0.055524094647 
0.045455971972 0.03603346772 0.027505588034 0.020050264088 0.0137709787 0.0087045964942 0.0048378942581 0.0021289105061 0.00052875758831 
4.9287653058e-17 
