# vtk DataFile Version 5.1
vtk output
ASCII
DATASET POLYDATA
POINTS 100 float
0.00787553 0.00174138 -0.684515 0.00790383 0.00181094 -0.684207 0.00793411 0.00179099 -0.683246 
0.00796803 0.00164875 -0.681583 0.00800896 0.00133476 -0.679145 0.00806193 0.000788569 -0.675851 
0.00813312 -5.40065e-05 -0.67162 0.00822866 -0.00125317 -0.666387 0.00835251 -0.00285763 -0.660119 
0.00850352 -0.00489815 -0.65282 0.00867167 -0.00738293 -0.644535 0.00883415 -0.0102952 -0.635349 
0.00895165 -0.0135934 -0.625382 0.00896577 -0.0172138 -0.614772 0.0087981 -0.0210751 -0.603665 
0.00835172 -0.0250852 -0.592194 0.00751549 -0.0291478 -0.580468 0.00617097 -0.0331706 -0.568556 
0.00420185 -0.0370711 -0.556483 0.00150499 -0.0407825 -0.544222 -0.00199808 -0.0442565 -0.531702 
-0.00635048 -0.0474646 -0.518817 -0.0115515 -0.0503971 -0.505437 -0.0175516 -0.0530594 -0.491424 
-0.0242522 -0.0554676 -0.476649 -0.0315098 -0.0576425 -0.461007 -0.0391454 -0.0596041 -0.444427 
-0.0469584 -0.0613656 -0.426877 -0.0547422 -0.06293 -0.408369 -0.062302 -0.0642867 -0.388953 
-0.0694712 -0.0654117 -0.368706 -0.076125 -0.0662693 -0.347725 -0.0821892 -0.0668151 -0.326109 
-0.0876436 -0.0670014 -0.30395 -0.0925185 -0.0667829 -0.281319 -0.0968851 -0.0661229 -0.258265 
-0.100841 -0.0649991 -0.234805 -0.104492 -0.0634076 -0.210934 -0.107933 -0.061366 -0.186627 
-0.111229 -0.0589137 -0.161849 -0.114399 -0.0561106 -0.136572 -0.117411 -0.0530338 -0.110779 
-0.120175 -0.0497717 -0.0844807 -0.122549 -0.046418 -0.0577181 -0.124354 -0.0430647 -0.0305679 
-0.125385 -0.039795 -0.00313998 -0.125439 -0.0366778 0.0244283 -0.124336 -0.0337628 0.051981 
-0.121937 -0.0310781 0.0793551 -0.118162 -0.0286297 0.106392 -0.113005 -0.026403 0.132951 
-0.106533 -0.0243664 0.158912 -0.0988805 -0.0224768 0.184192 -0.0902427 -0.020685 0.208734 
-0.0808531 -0.0189427 0.232517 -0.0709626 -0.0172086 0.255542 -0.0608167 -0.0154536 0.277832 
-0.0506335 -0.0136649 0.299418 -0.0405854 -0.0118483 0.320335 -0.0307876 -0.0100284 0.340613 
-0.0212929 -0.00824723 0.360276 -0.0120944 -0.00656109 0.379335 -0.00313498 -0.005036 0.397797 
0.00567802 -0.00374233 0.415661 0.0144546 -0.00274911 0.432927 0.0233029 -0.00211843 0.449602 
0.0323123 -0.0019005 0.4657 0.0415387 -0.00212974 0.481249 0.0509967 -0.00282216 0.496291 
0.0606569 -0.00397419 0.510873 0.0704493 -0.00556287 0.525051 0.0802724 -0.00754752 0.538878 
0.0900058 -0.00987228 0.552394 0.0995248 -0.0124696 0.565626 0.108715 -0.0152643 0.578573 
0.117484 -0.0181773 0.591211 0.125769 -0.0211297 0.603487 0.133545 -0.0240464 0.615327 
0.140818 -0.0268585 0.626638 0.147622 -0.0295059 0.637324 0.154008 -0.0319388 0.647291 
0.160038 -0.0341182 0.656461 0.165767 -0.0360162 0.664781 0.171236 -0.0376161 0.672229 
0.176466 -0.0389115 0.678819 0.181456 -0.0399055 0.684598 0.186178 -0.0406103 0.689641 
0.19059 -0.0410455 0.694046 0.194638 -0.0412376 0.697918 0.198268 -0.0412186 0.701361 
0.201436 -0.0410254 0.704467 0.204115 -0.0406981 0.707304 0.2063 -0.0402788 0.709913 
0.208012 -0.0398105 0.712307 0.209293 -0.0393354 0.714469 0.210204 -0.038893 0.71636 
0.210814 -0.0385191 0.71793 0.211189 -0.0382436 0.719123 0.211386 -0.0380896 0.719892 
0.211442 -0.038072 0.720201 
LINES 2 100
OFFSETS vtktypeint64
0 100 
CONNECTIVITY vtktypeint64
0 1 2 3 4 5 6 7 8 
9 10 11 12 13 14 15 16 17 
18 19 20 21 22 23 24 25 26 
27 28 29 30 31 32 33 34 35 
36 37 38 39 40 41 42 43 44 
45 46 47 48 49 50 51 52 53 
54 55 56 57 58 59 60 61 62 
63 64 65 66 67 68 69 70 71 
72 73 74 75 76 77 78 79 80 
81 82 83 84 85 86 87 88 89 
90 91 92 93 94 95 96 97 98 
99 
POINT_DATA 100
FIELD FieldData 3
_theta 1 100 double
0 0.031733259127 0.063466518254 0.095199777382 0.12693303651 0.15866629564 0.19039955476 0.22213281389 0.25386607302 
0.28559933214 0.31733259127 0.3490658504 0.38079910953 0.41253236865 0.44426562778 0.47599888691 0.50773214603 0.53946540516 
0.57119866429 0.60293192342 0.63466518254 0.66639844167 0.6981317008 0.72986495992 0.76159821905 0.79333147818 0.82506473731 
0.85679799643 0.88853125556 0.92026451469 0.95199777382 0.98373103294 1.0154642921 1.0471975512 1.0789308103 1.1106640695 
1.1423973286 1.1741305877 1.2058638468 1.237597106 1.2693303651 1.3010636242 1.3327968833 1.3645301425 1.3962634016 
1.4279966607 1.4597299198 1.491463179 1.5231964381 1.5549296972 1.5866629564 1.6183962155 1.6501294746 1.6818627337 
1.7135959929 1.745329252 1.7770625111 1.8087957702 1.8405290294 1.8722622885 1.9039955476 1.9357288068 1.9674620659 
1.999195325 2.0309285841 2.0626618433 2.0943951024 2.1261283615 2.1578616206 2.1895948798 2.2213281389 2.253061398 
2.2847946572 2.3165279163 2.3482611754 2.3799944345 2.4117276937 2.4434609528 2.4751942119 2.506927471 2.5386607302 
2.5703939893 2.6021272484 2.6338605076 2.6655937667 2.6973270258 2.7290602849 2.7607935441 2.7925268032 2.8242600623 
2.8559933214 2.8877265806 2.9194598397 2.9511930988 2.982926358 3.0146596171 3.0463928762 3.0781261353 3.1098593945 
3.1415926536 
_radius 1 100 double
9.9930389016e-16 0.015423951972 0.030649546995 0.045492859101 0.05980010104 0.073458435882 0.086402087859 0.098612933102 0.11011536957 
0.12096597779 0.13123921149 0.14101099035 0.15034248298 0.15926645071 0.16777820723 0.17583255513 0.1833471244 0.19021157932 
0.19630139587 0.20149443887 0.2056883457 0.20881665107 0.2108616225 0.21186197485 0.21191409615 0.21116620709 0.20980594099 
0.20804298082 0.20608931795 0.20414008205 0.20235755853 0.20086006524 0.19971618591 0.1989439294 0.19851402475 0.19835675509 
0.198372107 0.19844307129 0.19845143145 0.19829454134 0.19790091253 0.19724225533 0.19633999895 0.19526512937 0.19413126444 
0.19308206724 0.19227517939 0.19186550743 0.1919905129 0.19275904749 0.19424383609 0.19647685878 0.19944696198 0.20309959396 
0.20733900749 0.21203335102 0.21702284019 0.2221308093 0.22717697691 0.23199175667 0.23642998233 0.24038219508 0.24378186228 
0.2466075496 0.24887989872 0.25065397749 0.25200804126 0.25303002197 0.2538032381 0.2543929232 0.25483515938 0.25512961304 
0.2552370544 0.25508197427 0.25455975315 0.25354701739 0.25191336499 0.24953274255 0.24629328205 0.24210503566 0.23690548286 
0.23066281631 0.22337692309 0.2150778635 0.2058217093 0.19568393226 0.18475107513 0.17311198475 0.16085016662 0.14803861662 
0.13473780797 0.12099664094 0.10685549639 0.092350307014 0.077516701366 0.062393546876 0.04702545224 0.031463981765 0.015767530022 
5.3214382573e-16 
_area 1 100 double
0 0.00063536991204 0.0025093136467 0.0055292529806 0.0095534675256 0.014408230321 0.019908364719 0.02587800403 0.032168008839 
0.03866691261 0.045303504522 0.052040840277 0.058862845017 0.065755292605 0.072683500011 0.079570830537 0.086284397548 0.092634049913 
0.098386595754 0.10329249727 0.10712007524 0.10969221094 0.11092092274 0.11083576322 0.10960192923 0.10751069628 0.104913278 
0.1021348581 0.099469685954 0.097161857681 0.095293839765 0.094166888604 0.093647090871 0.093722987275 0.094405752451 0.095561303708 
0.097016420908 0.098640105879 0.10025920175 0.10171031256 0.10287436947 0.10369109822 0.10416944958 0.10437757516 0.10441492028 
0.10439198578 0.10443485894 0.10470143943 0.10534746814 0.1064670349 0.10814885935 0.11050934382 0.11366673676 0.11770667466 
0.12265364358 0.12844900793 0.13493612574 0.14185786138 0.1488732513 0.15559721016 0.16165837524 0.16675993917 0.1707255603 
0.17351887081 0.17523379268 0.17605736398 0.17621068983 0.17588934164 0.17523399325 0.17433206316 0.17322775213 0.17193007271 
0.17041866042 0.16864694341 0.16654241909 0.16400600277 0.16091402609 0.15712611483 0.15250009461 0.14691247125 0.14028123432 
0.13258695947 0.12388784887 0.11432441856 0.10411070573 0.093511558362 0.08280934359 0.072267206552 0.062098577456 0.052452481259 
0.043419660339 0.035055594629 0.027408050235 0.020536061025 0.014514944942 0.0094305466567 0.0053690845749 0.002407328687 0.0006050529926 
6.5919492087e-17 
