# vtk DataFile Version 5.1
vtk output
ASCII
DATASET POLYDATA
POINTS 100 float
0.165772 0.100578 -0.676638 0.16582 0.100539 -0.676555 0.165937 0.100207 -0.676219 
0.166082 0.0995484 -0.675571 0.166189 0.0985121 -0.674522 0.166173 0.0970378 -0.672969 
0.165939 0.0950646 -0.670801 0.165386 0.0925392 -0.667918 0.164414 0.089424 -0.664246 
0.162929 0.0857031 -0.65974 0.160852 0.0813851 -0.654395 0.158113 0.076503 -0.648242 
0.154657 0.0711109 -0.641343 0.150445 0.0652787 -0.633783 0.145448 0.0590842 -0.625654 
0.139648 0.0526054 -0.617041 0.133039 0.0459133 -0.608009 0.125624 0.0390661 -0.598592 
0.11742 0.0321067 -0.588785 0.108459 0.0250624 -0.578542 0.0987909 0.0179484 -0.56778 
0.0884862 0.0107732 -0.556388 0.0776385 0.00354637 -0.54424 0.0663641 -0.00371354 -0.531207 
0.0548003 -0.0109717 -0.517177 0.0430998 -0.0181715 -0.502067 0.0314231 -0.025232 -0.485831 
0.0199288 -0.0320485 -0.468471 0.00876265 -0.0384973 -0.450033 -0.00195389 -0.0444437 -0.430605 
-0.0121327 -0.0497513 -0.410306 -0.0217261 -0.0542944 -0.389273 -0.030729 -0.0579686 -0.367646 
-0.0391773 -0.0607011 -0.345554 -0.0471406 -0.0624577 -0.323104 -0.0547104 -0.0632462 -0.300368 
-0.0619857 -0.0631157 -0.277383 -0.0690555 -0.0621521 -0.25415 -0.075983 -0.06047 -0.23064 
-0.0827904 -0.0582017 -0.206806 -0.0894494 -0.0554855 -0.182593 -0.0958767 -0.0524539 -0.157955 
-0.101936 -0.0492236 -0.132863 -0.107446 -0.0458879 -0.10732 -0.112198 -0.0425133 -0.0813668 
-0.115971 -0.0391384 -0.0550803 -0.118559 -0.0357787 -0.028575 -0.119789 -0.0324319 -0.00199378 
-0.119539 -0.029087 0.0245021 -0.117759 -0.0257332 0.0507451 -0.11447 -0.0223683 0.0765746 
-0.109771 -0.0190054 0.101848 -0.103828 -0.0156766 0.126451 -0.0968587 -0.0124341 0.150303 
-0.0891159 -0.00934737 0.173359 -0.0808604 -0.00649765 0.195607 -0.0723398 -0.00397047 0.217067 
-0.0637673 -0.00184683 0.23778 -0.0553054 -0.000194653 0.257799 -0.0470562 0.000938687 0.277188 
-0.0390592 0.00153155 0.296004 -0.031297 0.00159048 0.314302 -0.0237072 0.00114953 0.332127 
-0.0161996 0.000266696 0.349513 -0.00867581 -0.0009821 0.366488 -0.00104894 -0.00251059 0.383077 
0.00673881 -0.00423039 0.399303 0.0147036 -0.00605877 0.415193 0.0228134 -0.00792517 0.430779 
0.030988 -0.00977562 0.446101 0.0391062 -0.0115748 0.4612 0.047018 -0.0133057 0.47612 
0.0545609 -0.0149668 0.490899 0.0615783 -0.0165683 0.505565 0.0679364 -0.0181264 0.520127 
0.0735388 -0.0196586 0.534574 0.0783365 -0.0211792 0.548868 0.0823319 -0.0226956 0.562946 
0.0855772 -0.0242071 0.576719 0.0881665 -0.0257045 0.590077 0.0902245 -0.0271725 0.6029 
0.0918914 -0.0285917 0.615061 0.0933074 -0.0299422 0.626439 0.094599 -0.031207 0.636928 
0.0958672 -0.0323747 0.646444 0.0971802 -0.033441 0.654931 0.0985708 -0.0344091 0.662366 
0.100039 -0.0352889 0.668757 0.101556 -0.0360947 0.674145 0.103076 -0.0368426 0.678596 
0.104544 -0.0375471 0.682199 0.105907 -0.0382185 0.685054 0.107119 -0.0388612 0.68727 
0.108149 -0.039472 0.688954 0.108986 -0.040041 0.690207 0.109629 -0.0405529 0.691122 
0.110093 -0.0409896 0.691773 0.110398 -0.0413327 0.692222 0.110563 -0.0415671 0.69251 
0.110602 -0.041683 0.692661 
LINES 2 100
OFFSETS vtktypeint64
0 100 
CONNECTIVITY vtktypeint64
0 1 2 3 4 5 6 7 8 
9 10 11 12 13 14 15 16 17 
18 19 20 21 22 23 24 25 26 
27 28 29 30 31 32 33 34 35 
36 37 38 39 40 41 42 43 44 
45 46 47 48 49 50 51 52 53 
54 55 56 57 58 59 60 61 62 
63 64 65 66 67 68 69 70 71 
72 73 74 75 76 77 78 79 80 
81 82 83 84 85 86 87 88 89 
90 91 92 93 94 95 96 97 98 
99 
POINT_DATA 100
FIELD FieldData 3
_theta 1 100 double
0 0.031733259127 0.063466518254 0.095199777382 0.12693303651 0.15866629564 0.19039955476 0.22213281389 0.25386607302 
0.28559933214 0.31733259127 0.3490658504 0.38079910953 0.41253236865 0.44426562778 0.47599888691 0.50773214603 0.53946540516 
0.57119866429 0.60293192342 0.63466518254 0.66639844167 0.6981317008 0.72986495992 0.76159821905 0.79333147818 0.82506473731 
0.85679799643 0.88853125556 0.92026451469 0.95199777382 0.98373103294 1.0154642921 1.0471975512 1.0789308103 1.1106640695 
1.1423973286 1.1741305877 1.2058638468 1.237597106 1.2693303651 1.3010636242 1.3327968833 1.3645301425 1.3962634016 
1.4279966607 1.4597299198 1.491463179 1.5231964381 1.5549296972 1.5866629564 1.6183962155 1.6501294746 1.6818627337 
1.7135959929 1.745329252 1.7770625111 1.8087957702 1.8405290294 1.8722622885 1.9039955476 1.9357288068 1.9674620659 
1.999195325 2.0309285841 2.0626618433 2.0943951024 2.1261283615 2.1578616206 2.1895948798 2.2213281389 2.253061398 
2.2847946572 2.3165279163 2.3482611754 2.3799944345 2.4117276937 2.4434609528 2.4751942119 2.506927471 2.5386607302 
2.5703939893 2.6021272484 2.6338605076 2.6655937667 2.6973270258 2.7290602849 2.7607935441 2.7925268032 2.8242600623 
2.8559933214 2.8877265806 2.9194598397 2.9511930988 2.982926358 3.0146596171 3.0463928762 3.0781261353 3.1098593945 
3.1415926536 
_radius 1 100 double
6.9388939039e-16 0.014994527546 0.029911894298 0.044670729962 0.059192847833 0.073404234286 0.08723512054 0.1006189864 0.11349053688 
0.1257829341 0.13742482696 0.14833796499 0.1584363514 0.16762787705 0.17581905804 0.1829228508 0.18886870643 0.19361333986 
0.19715035872 0.19951698987 0.20079660031 0.20111642026 0.20064069063 0.19956017904 0.19807945107 0.19640334815 0.19472387823 
0.19320836519 0.1919894351 0.1911573371 0.19075515228 0.19077750353 0.19117332222 0.19185296868 0.19269951889 0.19358341064 
0.19437906492 0.19498162365 0.19532149451 0.195374099 0.19516261632 0.19475303489 0.19424315151 0.19374916939 0.19339393903 
0.1932992481 0.19358187653 0.19435097382 0.19570377379 0.19771788729 0.20044067154 0.20387824271 0.20798752153 0.21267397786 
0.21779601979 0.22317522573 0.2286105627 0.23389446865 0.23882886087 0.2432394406 0.24698701307 0.24997498519 0.25215272282 
0.25351492869 0.25409752669 0.25397069313 0.25322973868 0.2519846108 0.25034889538 0.24842930752 0.24631667581 0.24407924839 
0.24175876203 0.23936921719 0.23689787132 0.23430775509 0.23154106476 0.22852301138 0.22516600146 0.2213742831 0.21704931207 
0.21209597475 0.20642942493 0.19998177263 0.19270744805 0.184585995 0.17562144006 0.16583816534 0.1552741618 0.14397334965 
0.13197902016 0.11933018247 0.10606171088 0.092207986916 0.077808687861 0.062914875168 0.047593662021 0.031930293185 0.016027170177 
3.6268395558e-16 
_area 1 100 double
0 0.00062874132515 0.0024891506892 0.0055073058032 0.0095713076413 0.014546658203 0.020294161466 0.026685370922 0.033608646462 
0.040961109216 0.048629767017 0.056472030127 0.064304883644 0.071906484053 0.079029756662 0.085425282841 0.090869138364 0.095190317331 
0.098292360027 0.10016483428 0.1008821689 0.10058986621 0.099481087683 0.097769163923 0.095662721021 0.093349506884 0.090992476984 
0.088737114661 0.086725012496 0.085142167106 0.084260826416 0.083896377907 0.084008374658 0.084547004408 0.085449148251 0.086647362448 
0.088076433441 0.089660765609 0.091319233695 0.093007925932 0.094767762788 0.096699261389 0.098804764604 0.10093119139 0.10292167314 
0.10471111405 0.1063422564 0.10795246329 0.10974512163 0.11195221324 0.11479453074 0.11844527071 0.12299924737 0.12844997562 
0.13468152887 0.14147942568 0.14855444316 0.15557097477 0.16217784262 0.16804219323 0.17288370638 0.1765026505 0.17879541938 
0.17975467564 0.17945579075 0.17803496391 0.1756659898 0.1725415362 0.16886126438 0.16482459867 0.16062275741 0.15642493197 
0.15235786311 0.14848478103 0.14479406211 0.14120491474 0.13758812678 0.13379229696 0.1296662564 0.12507544201 0.1199152245 
0.11412174312 0.10767793087 0.10061454673 0.093007517849 0.084971197335 0.076646236887 0.06818304348 0.059725270027 0.051399241466 
0.043313039354 0.035564339896 0.028252275904 0.021487848113 0.015399028728 0.010128818288 0.0058263597406 0.0026328153177 0.00066495708729 
1.3117203179e-17 
