# vtk DataFile Version 5.1
vtk output
ASCII
DATASET POLYDATA
POINTS 100 float
0.103984 0.0570515 -0.689373 0.10394 0.0566902 -0.689372 0.103771 0.0558171 -0.689318 
0.103497 0.0544707 -0.689134 0.103145 0.0527092 -0.688697 0.102746 0.0506045 -0.687857 
0.102324 0.0482337 -0.68645 0.101887 0.0456708 -0.684313 0.101424 0.0429784 -0.681305 
0.100898 0.040201 -0.677315 0.100245 0.0373609 -0.672271 0.0993727 0.0344565 -0.666144 
0.0981723 0.0314631 -0.658945 0.0965219 0.0283377 -0.650716 0.0942995 0.0250249 -0.641523 
0.0913942 0.0214653 -0.631436 0.0877186 0.0176041 -0.620525 0.0832183 0.0134 -0.608842 
0.0778791 0.00883244 -0.596418 0.0717306 0.0039071 -0.583257 0.0648447 -0.00134069 -0.569337 
0.0573309 -0.00684582 -0.554622 0.0493265 -0.0125157 -0.539059 0.0409848 -0.018235 -0.5226 
0.0324615 -0.0238725 -0.505208 0.0239008 -0.0292891 -0.486863 0.0154229 -0.034346 -0.467576 
0.00711471 -0.0389135 -0.447385 -0.000975492 -0.0428782 -0.426356 -0.00883937 -0.0461486 -0.404576 
-0.0165044 -0.0486602 -0.382147 -0.0240259 -0.0503768 -0.35917 -0.0314748 -0.0512921 -0.335741 
-0.0389246 -0.0514273 -0.311935 -0.0464359 -0.0508294 -0.287805 -0.0540436 -0.0495668 -0.263377 
-0.0617454 -0.0477252 -0.238651 -0.0694951 -0.0454026 -0.213608 -0.0771997 -0.0427038 -0.18822 
-0.0847221 -0.0397364 -0.162461 -0.091889 -0.0366053 -0.136317 -0.0985021 -0.0334089 -0.1098 
-0.104353 -0.0302354 -0.0829537 -0.109241 -0.0271597 -0.0558556 -0.112987 -0.0242408 -0.0286194 
-0.11545 -0.0215208 -0.00138739 -0.11654 -0.019024 0.0256785 -0.116222 -0.0167574 0.0524093 
-0.114523 -0.0147126 0.0786425 -0.111526 -0.012868 0.104235 -0.107365 -0.0111927 0.129075 
-0.102213 -0.00965084 0.153086 -0.0962686 -0.00820613 0.176237 -0.0897387 -0.00682695 0.198532 
-0.0828249 -0.00549065 0.220009 -0.0757085 -0.00418714 0.240732 -0.0685392 -0.00292119 0.260774 
-0.061427 -0.00171323 0.280211 -0.0544386 -0.000598333 0.299109 -0.0475981 0.000376411 0.317516 
-0.040891 0.0011561 0.335456 -0.0342725 0.00168328 0.352934 -0.027677 0.00190383 0.369935 
-0.0210297 0.00177274 0.386434 -0.0142581 0.00125932 0.402402 -0.00730181 0.000351 0.41782 
-0.000121474 -0.000944411 0.432683 0.00729601 -0.0025986 0.447007 0.0149346 -0.00456457 0.460834 
0.0227496 -0.00678026 0.474229 0.0306709 -0.00917369 0.487272 0.0386087 -0.0116688 0.500054 
0.0464607 -0.0141917 0.512661 0.0541203 -0.016676 0.525168 0.0614847 -0.0190675 0.537624 
0.0684625 -0.0213269 0.550044 0.0749798 -0.0234307 0.562409 0.0809843 -0.0253706 0.574659 
0.0864479 -0.0271506 0.5867 0.0913667 -0.0287831 0.598415 0.0957591 -0.0302848 0.609669 
0.0996626 -0.0316719 0.620327 0.103129 -0.0329561 0.630262 0.106219 -0.0341423 0.639372 
0.108997 -0.035227 0.647585 0.111525 -0.0361988 0.654863 0.113859 -0.0370407 0.661209 
0.116045 -0.0377328 0.666656 0.118118 -0.0382569 0.67127 0.120097 -0.0386001 0.675132 
0.121989 -0.038759 0.678337 0.123788 -0.0387413 0.680978 0.125477 -0.0385678 0.683143 
0.127033 -0.0382712 0.684904 0.128424 -0.0378937 0.686319 0.129621 -0.0374832 0.687429 
0.130592 -0.0370888 0.688259 0.13131 -0.0367551 0.688823 0.131756 -0.0365177 0.689127 
0.131916 -0.036399 0.689176 
LINES 2 100
OFFSETS vtktypeint64
0 100 
CONNECTIVITY vtktypeint64
0 1 2 3 4 5 6 7 8 
9 10 11 12 13 14 15 16 17 
18 19 20 21 22 23 24 25 26 
27 28 29 30 31 32 33 34 35 
36 37 38 39 40 41 42 43 44 
45 46 47 48 49 50 51 52 53 
54 55 56 57 58 59 60 61 62 
63 64 65 66 67 68 69 70 71 
72 73 74 75 76 77 78 79 80 
81 82 83 84 85 86 87 88 89 
90 91 92 93 94 95 96 97 98 
99 
POINT_DATA 100
FIELD FieldData 3
_theta 1 100 double
0 0.031733259127 0.063466518254 0.095199777382 0.12693303651 0.15866629564 0.19039955476 0.22213281389 0.25386607302 
0.28559933214 0.31733259127 0.3490658504 0.38079910953 0.41253236865 0.44426562778 0.47599888691 0.50773214603 0.53946540516 
0.57119866429 0.60293192342 0.63466518254 0.66639844167 0.6981317008 0.72986495992 0.76159821905 0.79333147818 0.82506473731 
0.85679799643 0.88853125556 0.92026451469 0.95199777382 0.98373103294 1.0154642921 1.0471975512 1.0789308103 1.1106640695 
1.1423973286 1.1741305877 1.2058638468 1.237597106 1.2693303651 1.3010636242 1.3327968833 1.3645301425 1.3962634016 
1.4279966607 1.4597299198 1.491463179 1.5231964381 1.5549296972 1.5866629564 1.6183962155 1.6501294746 1.6818627337 
1.7135959929 1.745329252 1.7770625111 1.8087957702 1.8405290294 1.8722622885 1.9039955476 1.9357288068 1.9674620659 
1.999195325 2.0309285841 2.0626618433 2.0943951024 2.1261283615 2.1578616206 2.1895948798 2.2213281389 2.253061398 
2.2847946572 2.3165279163 2.3482611754 2.3799944345 2.4117276937 2.4434609528 2.4751942119 2.506927471 2.5386607302 
2.5703939893 2.6021272484 2.6338605076 2.6655937667 2.6973270258 2.7290602849 2.7607935441 2.7925268032 2.8242600623 
2.8559933214 2.8877265806 2.9194598397 2.9511930988 2.982926358 3.0146596171 3.0463928762 3.0781261353 3.1098593945 
3.1415926536 
_radius 1 100 double
2.6413408003e-16 0.014970537989 0.029834886756 0.044496245858 0.058867886556 0.072875936306 0.086459968548 0.09957117614 0.11216821457 
0.12421116604 0.13565452225 0.14644054641 0.15649468383 0.16572464592 0.17402429273 0.18128255549 0.1873965909 0.19228740608 
0.19591554313 0.19829417912 0.19949721536 0.19966057521 0.19897591895 0.19767716182 0.19602133344 0.1942662112 0.19264761322 
0.19135916094 0.19053675749 0.19024915282 0.1904950991 0.19120709929 0.19226170802 0.1934962998 0.19473149569 0.19579697769 
0.19655702023 0.19693156925 0.19690927371 0.19655026899 0.1959785551 0.19536625996 0.19491397455 0.19483120122 0.19531852739 
0.19655061916 0.19865902769 0.20171600178 0.20572266315 0.21060507937 0.21621996168 0.22236929351 0.22882140014 0.23533510503 
0.24168345343 0.24767383867 0.25316215805 0.25805969427 0.26233254134 0.26599439136 0.26909426444 0.27170124625 0.27388848409 
0.27571860775 0.27723243235 0.27844230624 0.27933080765 0.27985469844 0.27995319349 0.27955885892 0.2786090034 0.27705541284 
0.27487071774 0.27205045531 0.26861078625 0.26458262265 0.26000345984 0.25490843432 0.24932209602 0.24325216536 0.23668620256 
0.22959169156 0.22191956675 0.21361073197 0.20460469389 0.19484911603 0.18430894594 0.17297380257 0.16086253156 0.14802421571 
0.13453542342 0.12049402784 0.10601045646 0.091197637803 0.076161109383 0.060990697224 0.045754902446 0.030498718003 0.015245123059 
4.7713069108e-16 
_area 1 100 double
0 0.0005969530165 0.0023767730849 0.0053076840937 0.0093401224507 0.014409106992 0.020434741369 0.027321082435 0.03495377383 
0.043195896805 0.051881309824 0.060806261842 0.069722475721 0.078336654076 0.086321188004 0.093338368952 0.099076313219 0.1032905851 
0.1058427398 0.10672674723 0.10607668159 0.1041535135 0.1013140469 0.097969393561 0.094542420138 0.091432834052 0.089046463123 
0.087563159382 0.08695218375 0.087271761073 0.088327714177 0.089971031793 0.092029194395 0.094310963539 0.09662153976 0.098785610219 
0.10067362218 0.10222294392 0.10344355002 0.10440236566 0.10519514277 0.10592768152 0.10672705994 0.10775680863 0.10911207031 
0.11088553335 0.11325169288 0.11640908809 0.12053044725 0.12572919105 0.13203078368 0.13934749215 0.14747142797 0.15609569717 
0.1648564803 0.17338349625 0.18134833011 0.18850166781 0.19469275134 0.19986924194 0.20406151543 0.20735873163 0.20988168529 
0.2117484689 0.21302994765 0.21372952778 0.21381580725 0.21326514746 0.2120751731 0.21024725698 0.20776249491 0.20458342411 
0.20067819797 0.19603952993 0.1906882056 0.18466758251 0.17803559655 0.17085641178 0.16319185619 0.15509326649 0.14659571377 
0.13771719926 0.12846428448 0.11884315158 0.10887298636 0.098598219067 0.088097213121 0.077486146217 0.066917423727 0.056572372868 
0.046648753707 0.037344833477 0.02884288938 0.021295393492 0.01481652017 0.0094802692695 0.0053249534347 0.0023624642529 0.00058980438771 
1.5719288393e-17 
