# vtk DataFile Version 5.1
vtk output
ASCII
DATASET POLYDATA
POINTS 100 float
0.116268 -0.0325129 0.672849 0.11634 -0.0325389 0.672489 0.116486 -0.0327312 0.671562 
0.11666 -0.033063 0.670098 0.116793 -0.0334927 0.668137 0.116799 -0.033967 0.665728 
0.116586 -0.0344254 0.662921 0.116062 -0.0348052 0.659757 0.11515 -0.0350464 0.65626 
0.113793 -0.0350961 0.652437 0.111962 -0.0349132 0.648271 0.109655 -0.0344702 0.643722 
0.1069 -0.0337557 0.638731 0.103746 -0.0327738 0.633226 0.100263 -0.0315438 0.62713 
0.096526 -0.0300974 0.620368 0.0926124 -0.028476 0.612877 0.0885882 -0.0267267 0.604614 
0.0845032 -0.0248992 0.595562 0.0803851 -0.0230417 0.585732 0.0762377 -0.021198 0.575163 
0.0720414 -0.0194055 0.563918 0.0677571 -0.017694 0.55208 0.063332 -0.0160846 0.539745 
0.0587072 -0.0145913 0.527009 0.0538257 -0.0132212 0.513964 0.0486395 -0.0119772 0.500688 
0.0431161 -0.0108593 0.487236 0.0372421 -0.0098666 0.473642 0.0310247 -0.0089994 0.459913 
0.0244906 -0.00825981 0.446031 0.0176824 -0.00765253 0.431957 0.0106535 -0.00718465 0.417637 
0.00346215 -0.00686498 0.403006 -0.00383488 -0.00670285 0.387996 -0.0111872 -0.00670673 0.37254 
-0.0185546 -0.0068827 0.356577 -0.0259078 -0.00723321 0.340056 -0.0332278 -0.00775614 0.322938 
-0.0405027 -0.00844436 0.305194 -0.0477218 -0.00928599 0.286807 -0.0548699 -0.0102651 0.267766 
-0.0619211 -0.0113631 0.248069 -0.0688327 -0.0125602 0.227719 -0.0755414 -0.0138371 0.206725 
-0.0819623 -0.0151772 0.185099 -0.0879898 -0.0165672 0.162859 -0.093502 -0.0179983 0.140031 
-0.098368 -0.0194665 0.11665 -0.102456 -0.0209718 0.0927627 -0.105645 -0.0225173 0.0684274 
-0.107831 -0.0241069 0.0437159 -0.108941 -0.0257439 0.0187125 -0.108936 -0.0274278 -0.00648883 
-0.107815 -0.0291527 -0.0317868 -0.105617 -0.0309049 -0.0570777 -0.102415 -0.0326622 -0.0822602 
-0.0983132 -0.0343926 -0.10724 -0.0934332 -0.0360553 -0.131935 -0.0879071 -0.0376015 -0.156276 
-0.0818645 -0.0389769 -0.180213 -0.0754223 -0.0401238 -0.203712 -0.0686766 -0.0409845 -0.226755 
-0.0616969 -0.0415047 -0.249335 -0.0545244 -0.0416366 -0.271458 -0.0471734 -0.0413412 -0.29313 
-0.0396364 -0.0405913 -0.314359 -0.0318926 -0.0393719 -0.335149 -0.0239173 -0.0376816 -0.355496 
-0.0156929 -0.0355315 -0.375388 -0.00721926 -0.0329444 -0.394802 0.00147842 -0.0299529 -0.41371 
0.0103435 -0.0265973 -0.432076 0.0192862 -0.0229227 -0.449863 0.0281847 -0.0189768 -0.467035 
0.0368916 -0.0148077 -0.48356 0.0452419 -0.0104617 -0.499413 0.0530648 -0.00598211 -0.514579 
0.060196 -0.00140846 -0.529052 0.0664902 0.00322387 -0.542834 0.0718325 0.00788337 -0.555935 
0.0761476 0.0125417 -0.56837 0.0794052 0.017173 -0.580154 0.0816219 0.0217524 -0.591304 
0.0828596 0.0262555 -0.601831 0.0832194 0.0306575 -0.611741 0.0828334 0.034932 -0.621036 
0.081854 0.0390515 -0.62971 0.0804422 0.0429868 -0.63775 0.0787563 0.0467073 -0.645144 
0.0769422 0.0501818 -0.651874 0.0751254 0.053379 -0.657923 0.073406 0.0562684 -0.663276 
0.0718572 0.0588209 -0.667923 0.070526 0.0610099 -0.671854 0.0694373 0.062812 -0.675065 
0.0685989 0.0642074 -0.677556 0.0680084 0.0651804 -0.679325 0.0676588 0.0657203 -0.680376 
0.0675439 0.065821 -0.68071 
LINES 2 100
OFFSETS vtktypeint64
0 100 
CONNECTIVITY vtktypeint64
0 1 2 3 4 5 6 7 8 
9 10 11 12 13 14 15 16 17 
18 19 20 21 22 23 24 25 26 
27 28 29 30 31 32 33 34 35 
36 37 38 39 40 41 42 43 44 
45 46 47 48 49 50 51 52 53 
54 55 56 57 58 59 60 61 62 
63 64 65 66 67 68 69 70 71 
72 73 74 75 76 77 78 79 80 
81 82 83 84 85 86 87 88 89 
90 91 92 93 94 95 96 97 98 
99 
POINT_DATA 100
FIELD FieldData 3
_theta 1 100 double
0 0.031733259127 0.063466518254 0.095199777382 0.12693303651 0.15866629564 0.19039955476 0.22213281389 0.25386607302 
0.28559933214 0.31733259127 0.3490658504 0.38079910953 0.41253236865 0.44426562778 0.47599888691 0.50773214603 0.53946540516 
0.57119866429 0.60293192342 0.63466518254 0.66639844167 0.6981317008 0.72986495992 0.76159821905 0.79333147818 0.82506473731 
0.85679799643 0.88853125556 0.92026451469 0.95199777382 0.98373103294 1.0154642921 1.0471975512 1.0789308103 1.1106640695 
1.1423973286 1.1741305877 1.2058638468 1.237597106 1.2693303651 1.3010636242 1.3327968833 1.3645301425 1.3962634016 
1.4279966607 1.4597299198 1.491463179 1.5231964381 1.5549296972 1.5866629564 1.6183962155 1.6501294746 1.6818627337 
1.7135959929 1.745329252 1.7770625111 1.8087957702 1.8405290294 1.8722622885 1.9039955476 1.9357288068 1.9674620659 
1.999195325 2.0309285841 2.0626618433 2.0943951024 2.1261283615 2.1578616206 2.1895948798 2.2213281389 2.253061398 
2.2847946572 2.3165279163 2.3482611754 2.3799944345 2.4117276937 2.4434609528 2.4751942119 2.506927471 2.5386607302 
2.5703939893 2.6021272484 2.6338605076 2.6655937667 2.6973270258 2.7290602849 2.7607935441 2.7925268032 2.8242600623 
2.8559933214 2.8877265806 2.9194598397 2.9511930988 2.982926358 3.0146596171 3.0463928762 3.0781261353 3.1098593945 
3.1415926536 
_radius 1 100 double
1.4628564213e-15 0.014023456425 0.02802201175 0.0419718002 0.055845974243 0.069613779138 0.083240214962 0.096686200584 0.10990896021 
0.1228622336 0.13549598937 0.14775567662 0.1595815837 0.17090924408 0.18167166199 0.19180340373 0.20124576278 0.2099517735 
0.21788996754 0.22504622986 0.23142364669 0.23704068377 0.24192832163 0.24612687368 0.24968310612 0.2526479935 0.25507506924 
0.25701901256 0.2585340022 0.25967151956 0.26047759564 0.2609897637 0.26123408895 0.26122266672 0.26095202423 0.26040291308 
0.25954192858 0.25832517962 0.25670391359 0.25463168025 0.25207237575 0.24900836145 0.24544777853 0.24143015706 0.23702945124 
0.2323537599 0.22754126047 0.22275231698 0.21815828784 0.21392815702 0.21021459227 0.20714123756 0.20479287207 0.20320953458 
0.20238497351 0.20226907743 0.20277348102 0.20377942688 0.20514714296 0.20672629297 0.20836721254 0.209932435 0.21130747132 
0.21240933212 0.21319131923 0.2136432702 0.21378739845 0.21367070623 0.21335535447 0.21290826615 0.21239077048 0.21184863535 
0.21130276725 0.21074128257 0.2101142692 0.20933283933 0.20827363528 0.20678884302 0.2047204755 0.20191676492 0.19824820985 
0.19362107001 0.18798665001 0.18134536439 0.17374521339 0.16527487177 0.1560520881 0.14620854118 0.13587276322 0.12515327106 
0.11412460637 0.10281934117 0.09122879144 0.079313706678 0.067023546366 0.054319991866 0.04119853234 0.027702305158 0.013924656658 
2.8418490702e-16 
_area 1 100 double
0 0.00052131443716 0.0020740670648 0.0046255535353 0.0081241278789 0.012503444633 0.01768841022 0.023602808618 0.030177881045 
0.037359445195 0.045108976991 0.05339402327 0.062168560936 0.071352281301 0.080820566589 0.090410775834 0.099942260127 0.10924308247 
0.1181753031 0.12665124152 0.1346351888 0.14212916061 0.14914737657 0.15569005656 0.16172828407 0.16720555325 0.17205260307 
0.17620722124 0.17963163629 0.18232391132 0.18432263439 0.18570398877 0.18656822692 0.18701202243 0.1870909206 0.18679429164 
0.1860534033 0.18477039903 0.18284480553 0.18019179226 0.17675632553 0.17252599248 0.16754214569 0.1619068706 0.15578239993 
0.14938037513 0.14294085916 0.13670457046 0.13088482836 0.12564623753 0.12109473855 0.11728010222 0.11420874851 0.11185768831 
0.11016785273 0.10903482875 0.10834620543 0.10801315643 0.10795380175 0.10804382905 0.1081006427 0.1079384211 0.10742341638 
0.10649978199 0.10519179259 0.10358635414 0.10180411178 0.099975979663 0.098233558476 0.096705133836 0.095507470825 0.094731951681 
0.094429106962 0.094594912529 0.09515978131 0.095983173406 0.096859219195 0.097535399681 0.097740584256 0.097216595257 0.095748732927 
0.093191928661 0.089489225765 0.084679309481 0.07889103486 0.072325364615 0.065227903776 0.057857187401 0.050454439612 0.043219899576 
0.036299703378 0.029785957611 0.023730382601 0.018168420955 0.013147049762 0.0087469099648 0.0050891485229 0.0023219211743 0.00059019965576 
1.2143064332e-17 
