# vtk DataFile Version 5.1
vtk output
ASCII
DATASET POLYDATA
POINTS 100 float
0.144173 0.0133326 -0.652565 0.143827 0.0133577 -0.652561 0.142894 0.0132897 -0.652602 
0.141447 0.0131346 -0.652623 0.139599 0.0129002 -0.652518 0.137483 0.0125922 -0.652153 
0.135233 0.0122116 -0.65137 0.132964 0.011751 -0.650003 0.130753 0.0111932 -0.647891 
0.128629 0.0105105 -0.644882 0.126562 0.00966637 -0.640851 0.124468 0.00861845 -0.6357 
0.122216 0.00732352 -0.629364 0.119643 0.00574315 -0.621813 0.116575 0.00384958 -0.613048 
0.112845 0.00163085 -0.6031 0.108316 -0.000905532 -0.592023 0.102896 -0.00373108 -0.579891 
0.0965473 -0.00679724 -0.566786 0.089292 -0.0100388 -0.552795 0.0812051 -0.0133793 -0.538008 
0.0724046 -0.0167381 -0.522507 0.0630347 -0.0200374 -0.506368 0.0532469 -0.0232094 -0.489654 
0.0431812 -0.0262016 -0.472417 0.0329499 -0.0289799 -0.454694 0.0226271 -0.0315291 -0.436508 
0.0122446 -0.0338505 -0.417867 0.00179516 -0.0359573 -0.398762 -0.00875658 -0.0378681 -0.379172 
-0.0194584 -0.0395995 -0.359064 -0.0303508 -0.0411597 -0.338394 -0.0414474 -0.0425431 -0.317112 
-0.0527169 -0.0437271 -0.295167 -0.0640709 -0.0446726 -0.272515 -0.0753583 -0.045327 -0.249121 
-0.0863679 -0.0456307 -0.22497 -0.0968394 -0.0455246 -0.20007 -0.106482 -0.0449598 -0.17446 
-0.114997 -0.0439066 -0.14821 -0.122106 -0.0423614 -0.121422 -0.127573 -0.0403514 -0.0942305 
-0.13123 -0.0379361 -0.0667924 -0.132991 -0.0352039 -0.039283 -0.13286 -0.0322658 -0.0118849 
-0.130934 -0.0292457 0.0152236 -0.127386 -0.0262692 0.0418782 -0.122455 -0.0234511 0.0679393 
-0.116421 -0.0208844 0.0932994 -0.109578 -0.0186323 0.117887 -0.102213 -0.0167222 0.14167 
-0.0945785 -0.0151458 0.164649 -0.0868795 -0.0138619 0.186855 -0.0792614 -0.0128041 0.20834 
-0.0718069 -0.0118914 0.229166 -0.0645406 -0.0110395 0.249395 -0.0574388 -0.0101735 0.269078 
-0.0504439 -0.00923765 0.288253 -0.0434809 -0.00820292 0.306932 -0.036474 -0.0070707 0.32511 
-0.0293601 -0.00587181 0.342758 -0.0220999 -0.00466154 0.359839 -0.0146831 -0.00351125 0.376309 
-0.00712884 -0.00249765 0.39213 0.000517269 -0.0016914 0.407277 0.00819083 -0.00114658 0.42175 
0.0158174 -0.000892474 0.435577 0.0233219 -0.000928815 0.448812 0.0306366 -0.00122525 0.461539 
0.0377073 -0.00172497 0.473862 0.044496 -0.00235209 0.485896 0.0509808 -0.00302169 0.497759 
0.0571528 -0.00365116 0.509555 0.0630113 -0.0041712 0.521365 0.0685581 -0.00453497 0.533238 
0.0737922 -0.00472415 0.545186 0.078706 -0.00475096 0.557179 0.0832832 -0.0046559 0.569148 
0.0875003 -0.00450159 0.580995 0.0913292 -0.00436344 0.592595 0.094743 -0.00431857 0.603816 
0.0977212 -0.00443442 0.614525 0.100256 -0.0047588 0.624603 0.102359 -0.00531256 0.633956 
0.104058 -0.00608614 0.642518 0.105405 -0.00704025 0.650257 0.106464 -0.00811082 0.657174 
0.107313 -0.0092173 0.6633 0.108031 -0.0102733 0.668687 0.108692 -0.0111982 0.673402 
0.109355 -0.0119275 0.677516 0.11006 -0.0124215 0.681097 0.110822 -0.01267 0.684204 
0.111631 -0.0126932 0.686881 0.112452 -0.0125383 0.689156 0.113238 -0.0122722 0.691042 
0.113928 -0.0119718 0.692539 0.114465 -0.0117126 0.693641 0.114798 -0.0115578 0.694338 
0.114896 -0.0115494 0.69462 
LINES 2 100
OFFSETS vtktypeint64
0 100 
CONNECTIVITY vtktypeint64
0 1 2 3 4 5 6 7 8 
9 10 11 12 13 14 15 16 17 
18 19 20 21 22 23 24 25 26 
27 28 29 30 31 32 33 34 35 
36 37 38 39 40 41 42 43 44 
45 46 47 48 49 50 51 52 53 
54 55 56 57 58 59 60 61 62 
63 64 65 66 67 68 69 70 71 
72 73 74 75 76 77 78 79 80 
81 82 83 84 85 86 87 88 89 
90 91 92 93 94 95 96 97 98 
99 
POINT_DATA 100
FIELD FieldData 3
_theta 1 100 double
0 0.031733259127 0.063466518254 0.095199777382 0.12693303651 0.15866629564 0.19039955476 0.22213281389 0.25386607302 
0.28559933214 0.31733259127 0.3490658504 0.38079910953 0.41253236865 0.44426562778 0.47599888691 0.50773214603 0.53946540516 
0.57119866429 0.60293192342 0.63466518254 0.66639844167 0.6981317008 0.72986495992 0.76159821905 0.79333147818 0.82506473731 
0.85679799643 0.88853125556 0.92026451469 0.95199777382 0.98373103294 1.0154642921 1.0471975512 1.0789308103 1.1106640695 
1.1423973286 1.1741305877 1.2058638468 1.237597106 1.2693303651 1.3010636242 1.3327968833 1.3645301425 1.3962634016 
1.4279966607 1.4597299198 1.491463179 1.5231964381 1.5549296972 1.5866629564 1.6183962155 1.6501294746 1.6818627337 
1.7135959929 1.745329252 1.7770625111 1.8087957702 1.8405290294 1.8722622885 1.9039955476 1.9357288068 1.9674620659 
1.999195325 2.0309285841 2.0626618433 2.0943951024 2.1261283615 2.1578616206 2.1895948798 2.2213281389 2.253061398 
2.2847946572 2.3165279163 2.3482611754 2.3799944345 2.4117276937 2.4434609528 2.4751942119 2.506927471 2.5386607302 
2.5703939893 2.6021272484 2.6338605076 2.6655937667 2.6973270258 2.7290602849 2.7607935441 2.7925268032 2.8242600623 
2.8559933214 2.8877265806 2.9194598397 2.9511930988 2.982926358 3.0146596171 3.0463928762 3.0781261353 3.1098593945 
3.1415926536 
_radius 1 100 double
1.4119626125e-16 0.015361868703 0.030733496279 0.046109721439 0.061461996605 0.076731300019 0.091825236215 0.10661931858 0.12096211659 
0.13468373707 0.14760686951 0.15955938278 0.1703872933 0.17996688656 0.18821487501 0.19509569798 0.20062536847 0.20487158923 
0.207950136 0.21001770215 0.21126152471 0.21188623176 0.21209856101 0.21209096569 0.21202560292 0.21202062584 0.212140854 
0.21239462933 0.21273794491 0.21308581338 0.21332945996 0.2133566198 0.21307152523 0.2124115177 0.21135854191 0.20994534535 
0.2082569854 0.20642784389 0.20463361003 0.20307790494 0.2019747046 0.20152937789 0.20192139871 0.20329017655 0.20572353467 
0.20924820159 0.21382333581 0.21933953802 0.22562532691 0.23246105962 0.23959834138 0.24678205051 0.25377206899 0.26036216857 
0.26639401963 0.27176497267 0.27642913001 0.28039217156 0.28370121857 0.28643150828 0.28867171927 0.29050952061 0.29201854689 
0.29324776025 0.29421412607 0.29489955151 0.29525283531 0.29519675515 0.29463943937 0.29348816579 0.29166310952 0.28910856328 
0.28579974498 0.28174425955 0.27697833236 0.27155885641 0.26555293826 0.25902688629 0.25203643688 0.2446195401 0.23679240323 
0.2285489247 0.2198632795 0.21069522734 0.20099757377 0.19072498092 0.17984299508 0.16833589009 0.15621193489 0.1435050888 
0.1302728303 0.11659061298 0.10254407628 0.088220466453 0.073700713519 0.059053328765 0.04433084673 0.029569053493 0.014788814268 
8.7547892014e-16 
_area 1 100 double
0 0.00050999169473 0.0020820861757 0.0048181886304 0.0088255496873 0.014163900611 0.020809822143 0.028640762147 0.037437341179 
0.04690143889 0.056685603287 0.066426979472 0.075777969026 0.084427694369 0.092113137311 0.098624418775 0.10381125196 0.10759459403 
0.10998090643 0.11107146104 0.1110594689 0.11021276264 0.10884554385 0.10728482 0.10583242882 0.10472052774 0.10408432873 
0.10398101419 0.10441021271 0.10529864784 0.10648479254 0.10774897448 0.10887996619 0.10973227429 0.11024847512 0.11045284514 
0.11043458313 0.11033325971 0.11032785449 0.11062063665 0.11140731922 0.112840865 0.11501454006 0.11798254127 0.12179828826 
0.12653352519 0.13226468437 0.1390375735 0.1468299618 0.15552833493 0.16492600519 0.17474109459 0.18464778456 0.19431223586 
0.20342522478 0.21172672331 0.21902171922 0.22518894275 0.23018405181 0.23403771167 0.23684844613 0.2387707918 0.24000210481 
0.2407737635 0.2412959987 0.24155669592 0.24133572335 0.24037739085 0.2384528771 0.2353872073 0.23108625233 0.22555465729 
0.21889640657 0.21129653634 0.20298592338 0.19419501021 0.1851078236 0.17583142042 0.1663924282 0.15676044224 0.14688551293 
0.13673331903 0.12630731499 0.11565535773 0.10486388572 0.094044928945 0.083321335023 0.0728147094 0.062638983919 0.052900066157 
0.043699250073 0.035136697081 0.027312268367 0.020323148279 0.014259372896 0.0091990245991 0.0052047143437 0.0023223075766 0.00058188295047 
4.7177555144e-17 
