# vtk DataFile Version 5.1
vtk output
ASCII
DATASET POLYDATA
POINTS 100 float
0.191583 -0.0274035 0.645755 0.191359 -0.0273326 0.645557 0.190605 -0.0272517 0.645082 
0.189328 -0.027173 0.644331 0.187538 -0.0271133 0.643299 0.185251 -0.02709 0.641979 
0.182491 -0.0271162 0.640351 0.179286 -0.0271959 0.638386 0.175675 -0.0273208 0.63604 
0.171701 -0.0274687 0.633257 0.16741 -0.0276038 0.629971 0.162849 -0.0276798 0.62611 
0.158062 -0.0276448 0.621603 0.153086 -0.0274478 0.616389 0.147947 -0.0270459 0.61042 
0.142655 -0.0264104 0.603673 0.137207 -0.0255325 0.596148 0.131584 -0.024426 0.587874 
0.125754 -0.0231275 0.578905 0.119675 -0.0216935 0.569315 0.113303 -0.0201952 0.55919 
0.106595 -0.0187102 0.548623 0.0995178 -0.0173145 0.537698 0.0920515 -0.016073 0.526485 
0.084196 -0.0150324 0.515031 0.075972 -0.0142155 0.503358 0.0674208 -0.0136189 0.49146 
0.0586021 -0.0132141 0.479307 0.0495889 -0.0129515 0.466848 0.040461 -0.0127681 0.454025 
0.0312981 -0.0125963 0.440776 0.0221719 -0.0123735 0.427047 0.013141 -0.012052 0.412797 
0.00424554 -0.0116059 0.398004 -0.00449328 -0.0110362 0.382666 -0.0130725 -0.0103715 0.366797 
-0.0215027 -0.00966604 0.350424 -0.029802 -0.00899354 0.333574 -0.0379868 -0.00843862 0.316274 
-0.046064 -0.0080868 0.298534 -0.0540218 -0.00801419 0.280347 -0.0618235 -0.00827822 0.261683 
-0.0694038 -0.00891078 0.242494 -0.0766677 -0.00991458 0.222713 -0.0834946 -0.0112631 0.202268 
-0.0897444 -0.0129045 0.181093 -0.0952676 -0.0147681 0.159138 -0.0999167 -0.016774 0.136385 
-0.103559 -0.0188429 0.112853 -0.106089 -0.020906 0.0886054 -0.107436 -0.0229129 0.0637518 
-0.107575 -0.0248373 0.0384409 -0.106524 -0.0266782 0.012851 -0.104349 -0.0284586 -0.0128244 
-0.101151 -0.0302194 -0.0383936 -0.0970646 -0.0320113 -0.0636839 -0.0922386 -0.0338845 -0.088557 
-0.0868278 -0.0358783 -0.112921 -0.0809778 -0.0380111 -0.136736 -0.0748132 -0.0402731 -0.160014 
-0.0684296 -0.0426221 -0.182812 -0.0618874 -0.0449827 -0.205223 -0.0552114 -0.0472497 -0.227352 
-0.048394 -0.0492952 -0.249304 -0.0414019 -0.050978 -0.271164 -0.0341862 -0.0521551 -0.292978 
-0.0266941 -0.0526933 -0.314746 -0.0188806 -0.0524802 -0.336413 -0.0107204 -0.0514329 -0.357877 
-0.00221583 -0.0495038 -0.378992 0.0065967 -0.0466833 -0.399586 0.015645 -0.0429989 -0.41948 
0.0248231 -0.0385114 -0.438506 0.0339967 -0.0333077 -0.456526 0.0430122 -0.0274936 -0.47345 
0.0517073 -0.021185 -0.489242 0.059923 -0.0144996 -0.503924 0.0675153 -0.00755004 -0.517574 
0.0743653 -0.000439303 -0.530312 0.0803875 0.00674262 -0.542288 0.0855351 0.0139193 -0.553657 
0.0898014 0.0210269 -0.564566 0.0932184 0.0280121 -0.575131 0.0958524 0.0348287 -0.585429 
0.097797 0.0414352 -0.595484 0.0991641 0.0477921 -0.60527 0.100075 0.0538603 -0.614719 
0.100649 0.0596007 -0.623725 0.101 0.0649748 -0.632168 0.101223 0.0699458 -0.639924 
0.101394 0.0744807 -0.646886 0.101565 0.078552 -0.652975 0.101766 0.0821387 -0.658152 
0.102005 0.0852278 -0.662417 0.102275 0.0878132 -0.665809 0.102553 0.0898954 -0.668398 
0.102813 0.0914792 -0.670271 0.103026 0.0925718 -0.671518 0.103168 0.0931801 -0.672215 
0.103222 0.0933094 -0.672418 
LINES 2 100
OFFSETS vtktypeint64
0 100 
CONNECTIVITY vtktypeint64
0 1 2 3 4 5 6 7 8 
9 10 11 12 13 14 15 16 17 
18 19 20 21 22 23 24 25 26 
27 28 29 30 31 32 33 34 35 
36 37 38 39 40 41 42 43 44 
45 46 47 48 49 50 51 52 53 
54 55 56 57 58 59 60 61 62 
63 64 65 66 67 68 69 70 71 
72 73 74 75 76 77 78 79 80 
81 82 83 84 85 86 87 88 89 
90 91 92 93 94 95 96 97 98 
99 
POINT_DATA 100
FIELD FieldData 3
_theta 1 100 double
0 0.031733259127 0.063466518254 0.095199777382 0.12693303651 0.15866629564 0.19039955476 0.22213281389 0.25386607302 
0.28559933214 0.31733259127 0.3490658504 0.38079910953 0.41253236865 0.44426562778 0.47599888691 0.50773214603 0.53946540516 
0.57119866429 0.60293192342 0.63466518254 0.66639844167 0.6981317008 0.72986495992 0.76159821905 0.79333147818 0.82506473731 
0.85679799643 0.88853125556 0.92026451469 0.95199777382 0.98373103294 1.0154642921 1.0471975512 1.0789308103 1.1106640695 
1.1423973286 1.1741305877 1.2058638468 1.237597106 1.2693303651 1.3010636242 1.3327968833 1.3645301425 1.3962634016 
1.4279966607 1.4597299198 1.491463179 1.5231964381 1.5549296972 1.5866629564 1.6183962155 1.6501294746 1.6818627337 
1.7135959929 1.745329252 1.7770625111 1.8087957702 1.8405290294 1.8722622885 1.9039955476 1.9357288068 1.9674620659 
1.999195325 2.0309285841 2.0626618433 2.0943951024 2.1261283615 2.1578616206 2.1895948798 2.2213281389 2.253061398 
2.2847946572 2.3165279163 2.3482611754 2.3799944345 2.4117276937 2.4434609528 2.4751942119 2.506927471 2.5386607302 
2.5703939893 2.6021272484 2.6338605076 2.6655937667 2.6973270258 2.7290602849 2.7607935441 2.7925268032 2.8242600623 
2.8559933214 2.8877265806 2.9194598397 2.9511930988 2.982926358 3.0146596171 3.0463928762 3.0781261353 3.1098593945 
3.1415926536 
_radius 1 100 double
7.3329369319e-16 0.014731101779 0.029432511917 0.044073573707 0.058621283071 0.073039844125 0.087290649189 0.10133240205 0.11512099908 
0.1286088651 0.1417437133 0.15446707271 0.16671323843 0.17840939033 0.18947743799 0.19983776903 0.20941465873 0.21814274807 
0.22597373608 0.23288226371 0.23886993304 0.24396658201 0.24822834546 0.25173260534 0.2545705041 0.25683809373 0.25862731686 
0.26001787764 0.2610707597 0.2618238204 0.26228964257 0.26245570275 0.26228687383 0.26173021115 0.26072178039 0.25919497905 
0.25708951274 0.25436007903 0.25098397407 0.24696721599 0.24234918397 0.23720594733 0.23165220535 0.22584109643 0.21996038801 
0.2142232606 0.20885255119 0.20405914203 0.20001782657 0.19684628715 0.19459309146 0.19323794151 0.19270291047 0.19286967515 
0.1935968465 0.19473351516 0.1961284095 0.197636459 0.1991248687 0.20047953187 0.20161120628 0.20246034517 0.20299972848 
0.20323451058 0.20319962894 0.20295472572 0.20257698491 0.2021525611 0.20176733329 0.20149749124 0.20140026639 0.20150522306 
0.2018068105 0.20225912251 0.20277392633 0.20322290172 0.20344451062 0.20325504949 0.20246260477 0.20088222487 0.19835067262 
0.19473938786 0.18996455142 0.1839933465 0.1768457222 0.16859125831 0.15934115973 0.14923597211 0.13843026363 0.12707617474 
0.11530825522 0.10323218449 0.090919577655 0.078409971914 0.065719389074 0.052853069037 0.039818784426 0.026637112591 0.013346160163 
5.0075463059e-16 
_area 1 100 double
0 0.00052823641771 0.0021098697922 0.004734929658 0.0083847619205 0.01303031245 0.018631671241 0.025139268716 0.032495645368 
0.040635469892 0.049481742559 0.058938378792 0.068882409324 0.079160705473 0.08959505759 0.09999584649 0.11018011231 0.11998707106 
0.12928554685 0.13797355917 0.14597582663 0.15324435654 0.15976193196 0.16554492961 0.17064211539 0.1751270987 0.17908400402 
0.18258898266 0.18569194352 0.18840310989 0.19068934531 0.19248348058 0.19370403954 0.19427631211 0.19414411188 0.19326632948 
0.19160088215 0.18908695184 0.18563992464 0.18116806118 0.17560793409 0.16896601773 0.16135233012 0.15299658605 0.14424340972 
0.1355285304 0.12734007133 0.12016098021 0.11436744012 0.11008681409 0.1071623926 0.10529457428 0.10417741113 0.10355762478 
0.10325846618 0.10318071238 0.10327353177 0.10349561979 0.10380269051 0.10414509848 0.10444227703 0.10456185289 0.10435290334 
0.10371209764 0.10262811954 0.10119009154 0.099569950856 0.09798654831 0.096658238392 0.095758443305 0.095393360587 0.095609107586 
0.096407430586 0.09771978156 0.09936869891 0.10111277394 0.10270178139 0.10389077583 0.10444373912 0.10414173135 0.10279672514 
0.10027003789 0.096492746869 0.091482701476 0.085351174949 0.078294174535 0.070568425194 0.062457435382 0.054236386562 0.046144771615 
0.03837292262 0.031063700694 0.024325178634 0.018246598203 0.012910473711 0.0083977301811 0.0047867156378 0.0021484681367 0.00054038596096 
7.3182385924e-17 
