# vtk DataFile Version 5.1
vtk output
ASCII
DATASET POLYDATA
POINTS 100 float
0.173591 0.0909595 -0.632988 0.173277 0.090878 -0.63311 0.172329 0.0908079 -0.633446 
0.170811 0.0907044 -0.633895 0.168816 0.0904961 -0.634302 0.166459 0.0900905 -0.634473 
0.163853 0.0893813 -0.634193 0.161095 0.0882559 -0.633249 0.158248 0.086604 -0.631452 
0.155332 0.0843259 -0.62865 0.152313 0.0813394 -0.624745 0.149109 0.0775858 -0.619697 
0.145591 0.0730346 -0.613525 0.1416 0.0676855 -0.606299 0.136965 0.0615687 -0.59813 
0.131521 0.0547436 -0.589152 0.125129 0.0472952 -0.579503 0.117697 0.0393293 -0.569311 
0.10919 0.0309676 -0.558673 0.0996387 0.0223409 -0.547647 0.0891399 0.0135837 -0.536245 
0.0778475 0.0048285 -0.524434 0.0659611 -0.00379919 -0.512137 0.0537069 -0.0121842 -0.499246 
0.0413178 -0.0202242 -0.485637 0.0290128 -0.0278314 -0.471182 0.0169782 -0.0349325 -0.455765 
0.00535448 -0.0414685 -0.439297 -0.0057722 -0.0473932 -0.421728 -0.0163712 -0.0526717 -0.403045 
-0.0264617 -0.0572792 -0.383281 -0.0361022 -0.0611993 -0.36251 -0.0453742 -0.0644231 -0.340833 
-0.0543649 -0.0669486 -0.318378 -0.0631491 -0.0687804 -0.295279 -0.0717735 -0.0699297 -0.27167 
-0.0802449 -0.0704152 -0.247674 -0.0885238 -0.0702632 -0.223395 -0.0965236 -0.0695078 -0.198916 
-0.104117 -0.068191 -0.174298 -0.111144 -0.0663624 -0.149584 -0.117433 -0.0640779 -0.124805 
-0.122807 -0.0613985 -0.099988 -0.127109 -0.0583879 -0.0751616 -0.130216 -0.0551109 -0.0503655 
-0.132045 -0.0516305 -0.0256532 -0.132564 -0.0480061 -0.00109457 -0.131796 -0.044291 0.0232258 
-0.129809 -0.0405318 0.0472133 -0.126717 -0.0367672 0.0707697 -0.12266 -0.033028 0.0938022 
-0.117798 -0.0293382 0.116232 -0.112295 -0.0257162 0.138001 -0.106307 -0.0221768 0.159081 
-0.0999695 -0.0187332 0.179472 -0.0933951 -0.0153989 0.199207 -0.0866673 -0.01219 0.218343 
-0.0798415 -0.00912609 0.236957 -0.0729487 -0.00623102 0.255136 -0.0660015 -0.00353274 0.272967 
-0.0590009 -0.00106235 0.290525 -0.051944 0.00114755 0.307867 -0.044831 0.0030651 0.32502 
-0.0376703 0.00466164 0.341987 -0.0304818 0.00591433 0.35874 -0.023298 0.00680853 0.375227 
-0.0161628 0.00733961 0.391383 -0.0091287 0.00751422 0.407136 -0.00225257 0.00735056 0.422421 
0.00440903 0.00687791 0.437187 0.0108043 0.0061352 0.451413 0.0168903 0.00516892 0.465104 
0.0226352 0.00403039 0.478302 0.0280202 0.00277279 0.491075 0.0330389 0.00144813 0.503518 
0.0376965 0.000104395 0.515736 0.0420067 -0.00121687 0.527835 0.0459898 -0.00248229 0.539906 
0.0496691 -0.00366776 0.552012 0.0530681 -0.00475867 0.564176 0.0562087 -0.00574945 0.576375 
0.0591094 -0.00664246 0.588536 0.0617846 -0.0074464 0.600538 0.064245 -0.00817431 0.612219 
0.0664979 -0.00884159 0.623389 0.0685486 -0.00946398 0.633849 0.070401 -0.0100558 0.643401 
0.0720597 -0.0106284 0.651877 0.0735298 -0.0111895 0.659146 0.0748184 -0.0117421 0.665132 
0.0759344 -0.0122848 0.669823 0.0768883 -0.012812 0.673271 0.0776921 -0.0133144 0.675592 
0.0783583 -0.0137802 0.676952 0.0788998 -0.0141957 0.677555 0.0793284 -0.0145467 0.677625 
0.0796548 -0.0148197 0.677384 0.0798881 -0.0150025 0.677029 0.0800348 -0.0150858 0.676718 
0.0800994 -0.0150631 0.676553 
LINES 2 100
OFFSETS vtktypeint64
0 100 
CONNECTIVITY vtktypeint64
0 1 2 3 4 5 6 7 8 
9 10 11 12 13 14 15 16 17 
18 19 20 21 22 23 24 25 26 
27 28 29 30 31 32 33 34 35 
36 37 38 39 40 41 42 43 44 
45 46 47 48 49 50 51 52 53 
54 55 56 57 58 59 60 61 62 
63 64 65 66 67 68 69 70 71 
72 73 74 75 76 77 78 79 80 
81 82 83 84 85 86 87 88 89 
90 91 92 93 94 95 96 97 98 
99 
POINT_DATA 100
FIELD FieldData 3
_theta 1 100 double
0 0.031733259127 0.063466518254 0.095199777382 0.12693303651 0.15866629564 0.19039955476 0.22213281389 0.25386607302 
0.28559933214 0.31733259127 0.3490658504 0.38079910953 0.41253236865 0.44426562778 0.47599888691 0.50773214603 0.53946540516 
0.57119866429 0.60293192342 0.63466518254 0.66639844167 0.6981317008 0.72986495992 0.76159821905 0.79333147818 0.82506473731 
0.85679799643 0.88853125556 0.92026451469 0.95199777382 0.98373103294 1.0154642921 1.0471975512 1.0789308103 1.1106640695 
1.1423973286 1.1741305877 1.2058638468 1.237597106 1.2693303651 1.3010636242 1.3327968833 1.3645301425 1.3962634016 
1.4279966607 1.4597299198 1.491463179 1.5231964381 1.5549296972 1.5866629564 1.6183962155 1.6501294746 1.6818627337 
1.7135959929 1.745329252 1.7770625111 1.8087957702 1.8405290294 1.8722622885 1.9039955476 1.9357288068 1.9674620659 
1.999195325 2.0309285841 2.0626618433 2.0943951024 2.1261283615 2.1578616206 2.1895948798 2.2213281389 2.253061398 
2.2847946572 2.3165279163 2.3482611754 2.3799944345 2.4117276937 2.4434609528 2.4751942119 2.506927471 2.5386607302 
2.5703939893 2.6021272484 2.6338605076 2.6655937667 2.6973270258 2.7290602849 2.7607935441 2.7925268032 2.8242600623 
2.8559933214 2.8877265806 2.9194598397 2.9511930988 2.982926358 3.0146596171 3.0463928762 3.0781261353 3.1098593945 
3.1415926536 
_radius 1 100 double
6.9790234484e-16 0.018219690367 0.036259045321 0.053947240934 0.07112441091 0.087645950711 0.10338574537 0.11823816265 0.13211878101 
0.14496394887 0.15672938399 0.16738810637 0.17692804613 0.18534968509 0.19266409173 0.19889169786 0.20406211163 0.20821511329 
0.21140269967 0.21369165938 0.21516578299 0.2159265982 0.21609161697 0.21578955244 0.21515273554 0.21430781621 0.21336646542 
0.2124179123 0.2115246387 0.21072161037 0.21001853202 0.20940423771 0.2088525763 0.20832968817 0.20780285936 0.20725080511 
0.20667430488 0.20610500591 0.20560952774 0.20528630508 0.20525428685 0.20563552025 0.20653657189 0.2080345977 0.21017148597 
0.21295529567 0.21636522309 0.22035625944 0.22486173722 0.22979419636 0.2350461699 0.24049246041 0.24599478265 0.25140884002 
0.256593239 0.2614191467 0.26577926517 0.26959463482 0.27281809661 0.27543390751 0.27745380697 0.27891049481 0.2798497989 
0.28032273592 0.28037830501 0.28005741567 0.27938806189 0.2783818444 0.27703216269 0.27531463921 0.27319033491 0.27061189585 
0.26753196312 0.2639122542 0.25973111979 0.25498747728 0.24969992366 0.24390127032 0.23763017322 0.23092233898 0.22380360595 
0.21628618947 0.20836814643 0.20003526863 0.19126437647 0.18202717084 0.17229409845 0.16203789873 0.15123661137 0.1398759105 
0.12795075738 0.11546650957 0.10243971323 0.088898767948 0.074884497028 0.060450465908 0.045662776761 0.030599086816 0.015346730747 
9.5170159504e-16 
_area 1 100 double
0 0.00074942136841 0.002980468965 0.0066399031644 0.011634629036 0.01782791906 0.025038226367 0.033042457804 0.041584565731 
0.050389332801 0.059180321707 0.067699904708 0.075727822501 0.083093382738 0.089676869229 0.095399379171 0.10020593175 0.10405060773 
0.10689201651 0.10870308258 0.10949290493 0.10933215416 0.10836971341 0.10682949393 0.10498279172 0.10310120066 0.10140477276 
0.10002508776 0.098998482513 0.098291743115 0.097846406925 0.097610862065 0.097541093096 0.097596640561 0.097718582995 0.097841882554 
0.097950938846 0.098099048925 0.098395682736 0.098987428958 0.10004897015 0.10174391051 0.10420574239 0.1074730872 0.11138880777 
0.11588273582 0.12091884189 0.12649185538 0.13260800573 0.13926236721 0.14639777099 0.15391173616 0.16175431528 0.16991091912 
0.17814126619 0.18615051222 0.19365645235 0.20040389806 0.2061833871 0.21084492361 0.21430194185 0.21652724931 0.21754506763 
0.21742311762 0.21626736925 0.21421989249 0.21145772319 0.20818579984 0.20460895766 0.20087214554 0.19699705992 0.19287468635 
0.1883218678 0.1831543971 0.1772459567 0.17056446396 0.16318009852 0.15524449704 0.14694985675 0.13848319858 0.12999127678 
0.12156384774 0.11323210666 0.10497544495 0.096734931812 0.088435343387 0.080013151754 0.071442881337 0.062754325379 0.054036146459 
0.045426294918 0.037094698633 0.029224932802 0.021999018134 0.015586293436 0.010135676323 0.0057706045918 0.0025864019949 0.00064981560558 
4.5987160505e-17 
