# vtk DataFile Version 5.1
vtk output
ASCII
DATASET POLYDATA
POINTS 100 float
0.170568 0.0607504 -0.584665 0.170514 0.0607943 -0.584802 0.170394 0.0607557 -0.585191 
0.170168 0.0606187 -0.585727 0.169777 0.0603566 -0.586245 0.169148 0.0599333 -0.586543 
0.168199 0.0593043 -0.586401 0.166852 0.0584192 -0.585604 0.165035 0.0572238 -0.583968 
0.162693 0.0556638 -0.581351 0.159786 0.0536875 -0.577672 0.156293 0.0512499 -0.572911 
0.152207 0.0483161 -0.567107 0.147534 0.0448642 -0.560349 0.142289 0.0408889 -0.552759 
0.136485 0.0364031 -0.544477 0.13014 0.0314393 -0.535637 0.123264 0.0260497 -0.526349 
0.11587 0.0203055 -0.51669 0.107968 0.0142947 -0.506691 0.0995739 0.00811899 -0.496335 
0.090714 0.00189 -0.485563 0.0814299 -0.00427565 -0.474281 0.071782 -0.0102611 -0.462376 
0.0618518 -0.0159547 -0.449728 0.0517396 -0.0212544 -0.43623 0.0415606 -0.0260728 -0.421798 
0.0314371 -0.0303401 -0.406379 0.0214885 -0.0340075 -0.389962 0.0118214 -0.0370479 -0.372572 
0.00251894 -0.0394571 -0.354269 -0.00636686 -0.0412522 -0.335137 -0.0148193 -0.0424702 -0.315273 
-0.0228572 -0.0431643 -0.29478 -0.0305295 -0.0434004 -0.27375 -0.0379059 -0.0432528 -0.252264 
-0.0450636 -0.0427986 -0.230382 -0.0520719 -0.0421133 -0.208144 -0.0589765 -0.0412663 -0.185574 
-0.0657861 -0.0403162 -0.162689 -0.0724629 -0.0393078 -0.139501 -0.0789184 -0.0382703 -0.116032 
-0.0850154 -0.037216 -0.0923142 -0.0905774 -0.0361409 -0.0684029 -0.0954027 -0.035027 -0.0443735 
-0.0992831 -0.0338455 -0.0203223 -0.102025 -0.0325613 0.00363829 -0.10347 -0.0311382 0.0273862 
-0.103511 -0.0295443 0.0507981 -0.102106 -0.0277581 0.0737583 -0.0992825 -0.0257727 0.0961662 
-0.095135 -0.0236 0.117942 -0.0898165 -0.0212721 0.139031 -0.0835216 -0.0188418 0.159402 
-0.0764673 -0.0163805 0.179047 -0.0688707 -0.0139739 0.197977 -0.0609283 -0.0117161 0.216215 
-0.0527992 -0.00970205 0.233793 -0.0445934 -0.00801991 0.250743 -0.0363678 -0.00674247 0.267101 
-0.0281291 -0.00592012 0.282898 -0.0198445 -0.00557515 0.298167 -0.0114566 -0.00569836 0.312943 
-0.00290242 -0.0062484 0.327269 0.005868 -0.00715421 0.341197 0.014875 -0.00832019 0.35479 
0.0240978 -0.00963399 0.368127 0.0334689 -0.0109761 0.381293 0.0428769 -0.0122305 0.394383 
0.0521752 -0.013295 0.407485 0.0611975 -0.0140907 0.420676 0.0697769 -0.014569 0.434012 
0.077766 -0.0147161 0.447513 0.0850552 -0.0145536 0.461162 0.0915873 -0.0141359 0.474898 
0.0973649 -0.013544 0.488618 0.102451 -0.0128763 0.502183 0.106961 -0.0122384 0.515426 
0.111048 -0.0117309 0.52817 0.114883 -0.0114387 0.54024 0.118636 -0.0114217 0.551481 
0.122447 -0.0117081 0.561777 0.126416 -0.0122912 0.571056 0.130585 -0.0131302 0.5793 
0.134934 -0.0141546 0.586546 0.139387 -0.0152721 0.592879 0.143818 -0.0163788 0.598422 
0.148073 -0.017371 0.603323 0.15199 -0.0181565 0.607731 0.155418 -0.0186655 0.611787 
0.158243 -0.0188577 0.6156 0.160399 -0.0187278 0.61924 0.161878 -0.0183053 0.622732 
0.162732 -0.0176519 0.626052 0.163066 -0.0168541 0.629136 0.16302 -0.0160136 0.63189 
0.162752 -0.0152362 0.634204 0.162417 -0.0146192 0.635969 0.162143 -0.014241 0.637096 
0.162015 -0.0141521 0.637523 
LINES 2 100
OFFSETS vtktypeint64
0 100 
CONNECTIVITY vtktypeint64
0 1 2 3 4 5 6 7 8 
9 10 11 12 13 14 15 16 17 
18 19 20 21 22 23 24 25 26 
27 28 29 30 31 32 33 34 35 
36 37 38 39 40 41 42 43 44 
45 46 47 48 49 50 51 52 53 
54 55 56 57 58 59 60 61 62 
63 64 65 66 67 68 69 70 71 
72 73 74 75 76 77 78 79 80 
81 82 83 84 85 86 87 88 89 
90 91 92 93 94 95 96 97 98 
99 
POINT_DATA 100
FIELD FieldData 3
_theta 1 100 double
0 0.031733259127 0.063466518254 0.095199777382 0.12693303651 0.15866629564 0.19039955476 0.22213281389 0.25386607302 
0.28559933214 0.31733259127 0.3490658504 0.38079910953 0.41253236865 0.44426562778 0.47599888691 0.50773214603 0.53946540516 
0.57119866429 0.60293192342 0.63466518254 0.66639844167 0.6981317008 0.72986495992 0.76159821905 0.79333147818 0.82506473731 
0.85679799643 0.88853125556 0.92026451469 0.95199777382 0.98373103294 1.0154642921 1.0471975512 1.0789308103 1.1106640695 
1.1423973286 1.1741305877 1.2058638468 1.237597106 1.2693303651 1.3010636242 1.3327968833 1.3645301425 1.3962634016 
1.4279966607 1.4597299198 1.491463179 1.5231964381 1.5549296972 1.5866629564 1.6183962155 1.6501294746 1.6818627337 
1.7135959929 1.745329252 1.7770625111 1.8087957702 1.8405290294 1.8722622885 1.9039955476 1.9357288068 1.9674620659 
1.999195325 2.0309285841 2.0626618433 2.0943951024 2.1261283615 2.1578616206 2.1895948798 2.2213281389 2.253061398 
2.2847946572 2.3165279163 2.3482611754 2.3799944345 2.4117276937 2.4434609528 2.4751942119 2.506927471 2.5386607302 
2.5703939893 2.6021272484 2.6338605076 2.6655937667 2.6973270258 2.7290602849 2.7607935441 2.7925268032 2.8242600623 
2.8559933214 2.8877265806 2.9194598397 2.9511930988 2.982926358 3.0146596171 3.0463928762 3.0781261353 3.1098593945 
3.1415926536 
_radius 1 100 double
2.8177377798e-16 0.013834205779 0.027655500567 0.041437066228 0.055140025186 0.068709264884 0.082070856999 0.095131424326 0.10777974817 
0.11989078616 0.1313320173 0.14197166219 0.15168794828 0.16037833237 0.16796753293 0.17441337002 0.17970971968 0.18388630483 
0.18700550607 0.18915681021 0.19044984159 0.19100705408 0.19095704376 0.19042907935 0.18954893556 0.18843562871 0.18719839224 
0.18593332888 0.18471962184 0.18361577763 0.18265679236 0.18185313735 0.18119206148 0.1806412013 0.1801542361 0.17967841177 
0.1791638352 0.17857400132 0.17789597855 0.17714766403 0.17637941027 0.17566865764 0.17510884527 0.17479671747 0.17482320441 
0.17527092975 0.17621716259 0.17773761573 0.17990589818 0.18278547925 0.18641443807 0.19078676734 0.19583630546 0.20142928705 
0.20736879763 0.21341052907 0.21928627182 0.22473056135 0.22950634113 0.23342648287 0.23636899702 0.23828469031 0.23919693002 
0.23919405373 0.23841575328 0.23703538199 0.23524050832 0.23321410139 0.23111842936 0.22908307666 0.22719754874 0.2255079933 
0.22401696839 0.22268515767 0.22143440803 0.22015210028 0.21869728552 0.21690903976 0.21461713615 0.21165454428 0.20787063286 
0.20314349392 0.19738969252 0.1905700142 0.18269038 0.1737979409 0.16397332537 0.15332083 0.14195862655 0.13001055297 
0.1175999776 0.10484520651 0.091855506908 0.078727115206 0.06553924054 0.052350647988 0.039197662535 0.026094331824 0.013035116964 
1.0254393615e-15 
_area 1 100 double
0 0.00047167256857 0.0018915767303 0.004272688639 0.0076306023146 0.011973254509 0.017285429541 0.023510118501 0.03053175379 
0.038167254254 0.046169077996 0.054241311676 0.062066468942 0.069337921463 0.075791431602 0.081229589738 0.085535037279 0.08867148084 
0.0906745635 0.091636618761 0.091689710942 0.090990395253 0.089707928854 0.08801573542 0.086084141616 0.08407135539 0.082110235412 
0.080292870708 0.078664045407 0.077233942909 0.076001414301 0.074969627954 0.07414773497 0.073544654069 0.073162075055 0.072989010871 
0.072999996272 0.073162305478 0.073455566631 0.073897966401 0.074563287123 0.075571444397 0.077044396052 0.079039339638 0.081515451267 
0.08437425404 0.087521654588 0.090907078927 0.094539604779 0.098488762503 0.10287369536 0.10783730124 0.11349924045 0.11989289165 
0.12691158442 0.13429432184 0.14165805477 0.14855867037 0.15455869761 0.15928737917 0.1624859675 0.16403526294 0.1639647931 
0.16244505706 0.15976478347 0.15628695675 0.15236678717 0.14827831411 0.14423154087 0.14040593355 0.13694252197 0.13392385669 
0.13136229268 0.12919922961 0.12731243377 0.12552857475 0.123639652 0.12142235592 0.11865891444 0.11515872765 0.1107807854 
0.10545470703 0.099194856904 0.092101390633 0.084345538151 0.076142020697 0.067716441554 0.059277476153 0.05100142506 0.043030851659 
0.03548277546 0.028459017889 0.02205289248 0.016350287337 0.011426501806 0.007341759884 0.0041382939695 0.0018407901843 0.0004602962327 
1.301042607e-18 
