# vtk DataFile Version 5.1
vtk output
ASCII
DATASET POLYDATA
POINTS 100 float
0.0853346 -0.0427904 0.724015 0.0851468 -0.0427821 0.723638 0.0845191 -0.0428356 0.722709 
0.0834932 -0.0429189 0.721255 0.0821348 -0.042985 0.719314 0.0805287 -0.0429779 0.716924 
0.0787714 -0.0428415 0.714117 0.0769641 -0.0425273 0.710913 0.0752034 -0.0420017 0.707306 
0.0735732 -0.0412518 0.703264 0.0721375 -0.0402877 0.698728 0.0709337 -0.0391419 0.693611 
0.0699688 -0.0378659 0.687808 0.0692177 -0.036524 0.681205 0.0686235 -0.0351853 0.673688 
0.0681018 -0.0339144 0.665162 0.0675457 -0.0327634 0.655557 0.0668344 -0.0317647 0.644841 
0.065842 -0.0309267 0.633029 0.0644472 -0.0302323 0.620178 0.0625426 -0.0296409 0.606394 
0.0600431 -0.0290935 0.591818 0.0568917 -0.0285201 0.576619 0.0530628 -0.0278492 0.560978 
0.0485635 -0.0270169 0.545077 0.0434307 -0.025976 0.529079 0.0377265 -0.0247029 0.51312 
0.0315318 -0.0232019 0.497296 0.0249374 -0.0215059 0.481658 0.0180368 -0.0196742 0.46621 
0.010918 -0.0177877 0.450909 0.00365778 -0.0159404 0.435676 -0.00368145 -0.0142312 0.420399 
-0.011053 -0.0127543 0.404948 -0.0184237 -0.011591 0.389184 -0.0257698 -0.0108031 0.372973 
-0.033071 -0.010429 0.356189 -0.0403032 -0.0104823 0.338728 -0.0474318 -0.0109534 0.320509 
-0.0544061 -0.0118142 0.301474 -0.0611555 -0.0130231 0.281594 -0.0675888 -0.0145321 0.26086 
-0.0735957 -0.016293 0.239284 -0.0790526 -0.0182634 0.216894 -0.0838295 -0.0204097 0.193733 
-0.0877997 -0.0227091 0.169852 -0.0908493 -0.0251485 0.145311 -0.092887 -0.0277219 0.120178 
-0.0938519 -0.0304255 0.0945285 -0.0937187 -0.0332525 0.0684423 -0.0924996 -0.0361878 0.0420066 
-0.0902432 -0.0392034 0.0153133 -0.0870292 -0.0422555 -0.0115419 -0.082961 -0.0452835 -0.0384624 
-0.0781558 -0.0482111 -0.065353 -0.0727341 -0.0509505 -0.092124 -0.0668095 -0.0534065 -0.118694 
-0.06048 -0.055484 -0.144993 -0.0538218 -0.057094 -0.170963 -0.0468861 -0.0581599 -0.196562 
-0.0396996 -0.0586228 -0.22176 -0.0322678 -0.0584446 -0.246535 -0.0245809 -0.0576092 -0.270875 
-0.0166221 -0.0561215 -0.294768 -0.00837551 -0.0540041 -0.318201 0.000165653 -0.0512931 -0.341151 
0.00899237 -0.0480327 -0.363588 0.0180757 -0.0442694 -0.38547 0.0273654 -0.0400476 -0.406741 
0.0367907 -0.0354049 -0.427339 0.0462651 -0.0303711 -0.447195 0.0556913 -0.024967 -0.466241 
0.0649683 -0.0192059 -0.484416 0.0739988 -0.0130969 -0.501672 0.0826948 -0.0066485 -0.517978 
0.0909824 0.00012698 -0.533324 0.098804 0.0072093 -0.547726 0.106119 0.0145668 -0.561217 
0.112901 0.0221545 -0.573855 0.119135 0.0299128 -0.585708 0.124812 0.0377692 -0.596854 
0.129926 0.0456404 -0.60737 0.13447 0.0534357 -0.617328 0.13843 0.061062 -0.626787 
0.141793 0.0684279 -0.63579 0.144541 0.075449 -0.64436 0.14666 0.0820512 -0.652502 
0.148142 0.0881742 -0.660202 0.148995 0.0937728 -0.667434 0.149246 0.0988179 -0.674161 
0.148943 0.103296 -0.680345 0.148164 0.107206 -0.685945 0.147009 0.11056 -0.690926 
0.1456 0.113377 -0.695263 0.144073 0.115682 -0.698936 0.142572 0.117501 -0.701936 
0.141233 0.118861 -0.70426 0.140177 0.119785 -0.705911 0.1395 0.120291 -0.706893 
0.139262 0.120392 -0.707209 
LINES 2 100
OFFSETS vtktypeint64
0 100 
CONNECTIVITY vtktypeint64
0 1 2 3 4 5 6 7 8 
9 10 11 12 13 14 15 16 17 
18 19 20 21 22 23 24 25 26 
27 28 29 30 31 32 33 34 35 
36 37 38 39 40 41 42 43 44 
45 46 47 48 49 50 51 52 53 
54 55 56 57 58 59 60 61 62 
63 64 65 66 67 68 69 70 71 
72 73 74 75 76 77 78 79 80 
81 82 83 84 85 86 87 88 89 
90 91 92 93 94 95 96 97 98 
99 
POINT_DATA 100
FIELD FieldData 3
_theta 1 100 double
0 0.031733259127 0.063466518254 0.095199777382 0.12693303651 0.15866629564 0.19039955476 0.22213281389 0.25386607302 
0.28559933214 0.31733259127 0.3490658504 0.38079910953 0.41253236865 0.44426562778 0.47599888691 0.50773214603 0.53946540516 
0.57119866429 0.60293192342 0.63466518254 0.66639844167 0.6981317008 0.72986495992 0.76159821905 0.79333147818 0.82506473731 
0.85679799643 0.88853125556 0.92026451469 0.95199777382 0.98373103294 1.0154642921 1.0471975512 1.0789308103 1.1106640695 
1.1423973286 1.1741305877 1.2058638468 1.237597106 1.2693303651 1.3010636242 1.3327968833 1.3645301425 1.3962634016 
1.4279966607 1.4597299198 1.491463179 1.5231964381 1.5549296972 1.5866629564 1.6183962155 1.6501294746 1.6818627337 
1.7135959929 1.745329252 1.7770625111 1.8087957702 1.8405290294 1.8722622885 1.9039955476 1.9357288068 1.9674620659 
1.999195325 2.0309285841 2.0626618433 2.0943951024 2.1261283615 2.1578616206 2.1895948798 2.2213281389 2.253061398 
2.2847946572 2.3165279163 2.3482611754 2.3799944345 2.4117276937 2.4434609528 2.4751942119 2.506927471 2.5386607302 
2.5703939893 2.6021272484 2.6338605076 2.6655937667 2.6973270258 2.7290602849 2.7607935441 2.7925268032 2.8242600623 
2.8559933214 2.8877265806 2.9194598397 2.9511930988 2.982926358 3.0146596171 3.0463928762 3.0781261353 3.1098593945 
3.1415926536 
_radius 1 100 double
1.1228365375e-15 0.013835313802 0.027712345272 0.041671254415 0.055735714007 0.069904182314 0.084141672769 0.098373033643 0.11247920114 
0.12629812017 0.139631768 0.15225981631 0.16395910215 0.17452669597 0.18380338961 0.19169409917 0.1981820013 0.20333408998 
0.20729708234 0.21028400687 0.21255315489 0.2143821403 0.21604039172 0.21776339135 0.21973143358 0.22205480928 0.2247663907 
0.22782179539 0.23110668426 0.2344502018 0.23764307067 0.24045854163 0.24267434687 0.24409388961 0.24456497475 0.24399445868 
0.24235739962 0.23969972831 0.23613412595 0.23182958673 0.22699589487 0.22186481389 0.21667008461 0.21162836071 0.20692303672 
0.202692585 0.19902449093 0.19595511585 0.19347489769 0.19153747254 0.19007086246 0.18898893729 0.18820178846 0.18762420547 
0.18718193308 0.18681572204 0.18648334463 0.18615975652 0.18583555419 0.18551394757 0.18520668725 0.18492962276 0.18469862739 
0.18452644696 0.18442076237 0.18438362913 0.18441251818 0.18450309471 0.18465316329 0.18486605271 0.18515117455 0.18552034925 
0.18598025734 0.18652292613 0.18711680914 0.18770069823 0.18818178167 0.18843811392 0.18832496256 0.18768405586 0.18635459592 
0.18418490377 0.18104362976 0.17682954837 0.17147905743 0.16497064246 0.15732578078 0.14860606745 0.13890673996 0.1283472348 
0.11705987261 0.10517815684 0.092826374352 0.080112085831 0.067122607013 0.053925724456 0.040573836226 0.02710980192 0.01357243298 
5.1752928939e-16 
_area 1 100 double
0 0.00055270105269 0.0022069061645 0.0049484928207 0.0087469468117 0.013548351102 0.019270950277 0.025805600803 0.033020975928 
0.040770659786 0.048897768049 0.057233990825 0.065594337375 0.073773861101 0.081553535003 0.088717486164 0.095077493152 0.1004988071 
0.10492410247 0.10839437521 0.111063289 0.11319678872 0.11514637755 0.1172888386 0.11994634902 0.1233226516 0.12747779314 
0.13233270219 0.13768778115 0.14325026806 0.14866859164 0.15356614464 0.15756812323 0.1603322232 0.16159657973 0.16122681902 
0.15923486559 0.15576587837 0.15106450332 0.14543472627 0.13920661024 0.13271506123 0.12628445621 0.12021035919 0.11473626642 
0.11003043112 0.10617152317 0.10315122881 0.10089299234 0.099274467674 0.098142930587 0.097326631404 0.096650287737 0.095953784896 
0.095107323256 0.094019440109 0.092638345011 0.090948903413 0.088967782254 0.086738543511 0.084327758669 0.08182203213 0.079323852764 
0.076943599148 0.074787321054 0.072943365282 0.071474300828 0.070423332381 0.069857702139 0.069837108331 0.070266449071 0.071171409487 
0.072578482458 0.074424953222 0.076572886208 0.078856753647 0.081101889754 0.083126048422 0.084739825211 0.085752538471 0.085984393616 
0.085282527852 0.083537453501 0.080696421305 0.076770895055 0.071836709354 0.066027287314 0.059521841509 0.052531145161 0.045283102936 
0.038009396551 0.030933620762 0.024261061571 0.018170593027 0.012809591041 0.0082926657743 0.0047041346325 0.0021028865305 0.0005275144804 
4.4216584028e-17 
