# vtk DataFile Version 5.1
vtk output
ASCII
DATASET POLYDATA
POINTS 100 float
0.158647 -0.0309677 0.657497 0.158522 -0.0307931 0.657566 0.158146 -0.0303812 0.657901 
0.1575 -0.0297529 0.658398 0.156562 -0.0289416 0.658893 0.155305 -0.0279901 0.659179 
0.153706 -0.0269473 0.659026 0.151755 -0.0258636 0.658204 0.149457 -0.0247874 0.656503 
0.146831 -0.0237611 0.653756 0.143915 -0.0228182 0.649846 0.140756 -0.0219816 0.644721 
0.137404 -0.021263 0.638393 0.133906 -0.0206626 0.630932 0.130296 -0.0201709 0.622457 
0.126586 -0.0197704 0.613121 0.122762 -0.0194381 0.603095 0.118784 -0.0191477 0.592548 
0.114586 -0.0188722 0.581636 0.110087 -0.0185859 0.570483 0.105197 -0.0182654 0.559179 
0.0998318 -0.017891 0.547777 0.0939271 -0.0174465 0.536288 0.0874467 -0.016919 0.524693 
0.0803926 -0.0162992 0.512953 0.0728079 -0.0155803 0.501011 0.0647748 -0.0147577 0.488812 
0.056407 -0.0138297 0.476305 0.0478378 -0.0127971 0.463454 0.0392044 -0.0116641 0.450237 
0.0306308 -0.0104393 0.436648 0.0222128 -0.00913682 0.422696 0.0140046 -0.00777684 0.408393 
0.00601204 -0.00638647 0.393752 -0.00180826 -0.00499972 0.378776 -0.00954291 -0.00365694 0.363458 
-0.017309 -0.00240353 0.347769 -0.025236 -0.00128805 0.331664 -0.0334454 -0.000359765 0.315077 
-0.0420284 0.000334148 0.297933 -0.0510279 0.000751364 0.280152 -0.0604233 0.000856976 0.261654 
-0.0701236 0.000625515 0.242375 -0.0799677 4.2219e-05 0.22227 -0.0897339 -0.000896575 0.201321 
-0.0991556 -0.00218396 0.179541 -0.107944 -0.00380383 0.156973 -0.115811 -0.00573284 0.133687 
-0.122498 -0.00794277 0.109778 -0.127796 -0.0104029 0.0853557 -0.131563 -0.013082 0.0605351 
-0.133732 -0.0159499 0.0354303 -0.134315 -0.0189779 0.0101462 -0.133394 -0.0221386 -0.015227 
-0.131109 -0.0254047 -0.0406166 -0.127634 -0.0287467 -0.0659671 -0.123158 -0.0321306 -0.0912378 
-0.117861 -0.0355155 -0.116398 -0.111898 -0.038851 -0.14142 -0.105381 -0.042076 -0.166274 
-0.0983741 -0.0451183 -0.19092 -0.0908967 -0.0478956 -0.215305 -0.0829277 -0.0503178 -0.239361 
-0.0744215 -0.0522914 -0.263003 -0.0653249 -0.0537243 -0.286135 -0.0555963 -0.0545317 -0.308655 
-0.0452223 -0.0546427 -0.330459 -0.0342314 -0.054006 -0.351456 -0.0227014 -0.0525949 -0.371568 
-0.0107604 -0.050411 -0.390745 0.00141918 -0.0474861 -0.408962 0.0136328 -0.0438811 -0.426228 
0.0256601 -0.0396842 -0.44258 0.0372832 -0.0350053 -0.458084 0.0483055 -0.0299699 -0.472822 
0.0585673 -0.0247109 -0.486889 0.0679569 -0.0193605 -0.500381 0.0764171 -0.0140419 -0.513384 
0.0839437 -0.00886136 -0.525966 0.0905799 -0.00390311 -0.53817 0.0964049 0.000775199 -0.55001 
0.10152 0.00514373 -0.561468 0.106035 0.00919957 -0.572498 0.11005 0.0129634 -0.58303 
0.113651 0.0164741 -0.592977 0.116898 0.0197822 -0.602245 0.119825 0.0229417 -0.610742 
0.122441 0.026003 -0.61839 0.124739 0.0290055 -0.625131 0.126703 0.0319717 -0.630936 
0.128316 0.034904 -0.635805 0.129575 0.0377824 -0.639775 0.130489 0.0405658 -0.642908 
0.131089 0.0431949 -0.645294 0.131425 0.0455974 -0.64704 0.13156 0.047694 -0.64826 
0.131564 0.0494063 -0.649065 0.131507 0.0506639 -0.649556 0.131447 0.0514107 -0.649811 
0.13142 0.051611 -0.64988 
LINES 2 100
OFFSETS vtktypeint64
0 100 
CONNECTIVITY vtktypeint64
0 1 2 3 4 5 6 7 8 
9 10 11 12 13 14 15 16 17 
18 19 20 21 22 23 24 25 26 
27 28 29 30 31 32 33 34 35 
36 37 38 39 40 41 42 43 44 
45 46 47 48 49 50 51 52 53 
54 55 56 57 58 59 60 61 62 
63 64 65 66 67 68 69 70 71 
72 73 74 75 76 77 78 79 80 
81 82 83 84 85 86 87 88 89 
90 91 92 93 94 95 96 97 98 
99 
POINT_DATA 100
FIELD FieldData 3
_theta 1 100 double
0 0.031733259127 0.063466518254 0.095199777382 0.12693303651 0.15866629564 0.19039955476 0.22213281389 0.25386607302 
0.28559933214 0.31733259127 0.3490658504 0.38079910953 0.41253236865 0.44426562778 0.47599888691 0.50773214603 0.53946540516 
0.57119866429 0.60293192342 0.63466518254 0.66639844167 0.6981317008 0.72986495992 0.76159821905 0.79333147818 0.82506473731 
0.85679799643 0.88853125556 0.92026451469 0.95199777382 0.98373103294 1.0154642921 1.0471975512 1.0789308103 1.1106640695 
1.1423973286 1.1741305877 1.2058638468 1.237597106 1.2693303651 1.3010636242 1.3327968833 1.3645301425 1.3962634016 
1.4279966607 1.4597299198 1.491463179 1.5231964381 1.5549296972 1.5866629564 1.6183962155 1.6501294746 1.6818627337 
1.7135959929 1.745329252 1.7770625111 1.8087957702 1.8405290294 1.8722622885 1.9039955476 1.9357288068 1.9674620659 
1.999195325 2.0309285841 2.0626618433 2.0943951024 2.1261283615 2.1578616206 2.1895948798 2.2213281389 2.253061398 
2.2847946572 2.3165279163 2.3482611754 2.3799944345 2.4117276937 2.4434609528 2.4751942119 2.506927471 2.5386607302 
2.5703939893 2.6021272484 2.6338605076 2.6655937667 2.6973270258 2.7290602849 2.7607935441 2.7925268032 2.8242600623 
2.8559933214 2.8877265806 2.9194598397 2.9511930988 2.982926358 3.0146596171 3.0463928762 3.0781261353 3.1098593945 
3.1415926536 
_radius 1 100 double
1.5635931759e-15 0.016998476915 0.033793425253 0.050199587678 0.066063383738 0.081273394292 0.095765150085 0.1095196223 0.12255576406 
0.13491843128 0.14666386566 0.15784543251 0.16850222485 0.17865236137 0.18829152863 0.19739605683 0.20592906545 0.21384811113 
0.22111308546 0.22769349965 0.23357453551 0.23876131958 0.24328089819 0.24718149393 0.25052888382 0.25340014269 0.2558754404 
0.25802893543 0.25991995286 0.2615855455 0.26303528951 0.26424888295 0.26517686318 0.2657445164 0.26585878428 0.26541769001 
0.26432156064 0.26248514535 0.25984960658 0.2563932556 0.25213983128 0.24716316053 0.24158726626 0.23558139662 0.22934996888 
0.22311801759 0.21711341404 0.21154780843 0.2065986726 0.20239471825 0.1990064122 0.19644265136 0.1946539583 0.19354161375 
0.19297116853 0.19278844119 0.1928366226 0.19297368678 0.1930889396 0.19311635996 0.19304183555 0.19290261198 0.19277962727 
0.19278511444 0.19304793854 0.19369816631 0.19485142856 0.19659330925 0.19896435538 0.20194713171 0.20545755423 0.20934292004 
0.21338828104 0.21733128612 0.22088390499 0.22375807853 0.22569161371 0.22647064735 0.22594569506 0.22403948645 0.22074616471 
0.21612269363 0.21027426274 0.2033360322 0.19545372593 0.18676542736 0.17738654798 0.16739942336 0.15684842178 0.14574086204 
0.13405343317 0.12174320348 0.10876175318 0.095070548837 0.080655482688 0.065538568363 0.049785122279 0.033505332982 0.016849868401 
7.9791049479e-16 
_area 1 100 double
0 0.00069718080053 0.0027570844239 0.006089955201 0.01056221874 0.016016717138 0.022294480384 0.029253271681 0.036778534249 
0.044783739182 0.053199970714 0.061958664469 0.07097468999 0.080136790233 0.089308783973 0.098340750092 0.1070868231 0.11542515285 
0.12327491035 0.13060425034 0.13742332401 0.14376292863 0.14965318275 0.1551204292 0.16020240508 0.16496472611 0.1695001271 
0.17389717352 0.17818919045 0.18232540213 0.1861823029 0.18959023523 0.19235754 0.19429445341 0.19523238391 0.19502290839 
0.19356357863 0.19088944627 0.18714659187 0.18256493176 0.17764254355 0.17182806964 0.16512283943 0.15778296579 0.15010638324 
0.14240765758 0.13499417906 0.12814271341 0.12207285377 0.1169149401 0.11268821196 0.10930807402 0.10661086911 0.10438709541 
0.10242639504 0.10056083544 0.098691748791 0.096795877155 0.094917378124 0.093121606041 0.091541514333 0.09024127127 0.089322076277 
0.088840388667 0.088795210875 0.089197776641 0.090064683156 0.091415251703 0.0932336334 0.095498536332 0.098173597206 0.10118714873 
0.10442450627 0.10772678189 0.11088902964 0.11365648674 0.11575073843 0.11691328729 0.11693593114 0.11567970295 0.11308649267 
0.10918236797 0.10407001122 0.097910665141 0.090900425825 0.083247266819 0.075153711091 0.066807244335 0.058377887421 0.050020841182 
0.041881710145 0.034101764478 0.026820860098 0.020176548044 0.0142997729 0.0093094957695 0.005308883714 0.0023835419701 0.00059962951005 
8.4377324459e-17 
