# vtk DataFile Version 5.1
vtk output
ASCII
DATASET POLYDATA
POINTS 100 float
0.180802 0.0387113 -0.714551 0.180635 0.0385834 -0.714358 0.180092 0.0383719 -0.713754 
0.17916 0.0380586 -0.712685 0.177815 0.037614 -0.71107 0.176034 0.0369988 -0.708808 
0.17379 0.0361667 -0.705791 0.17106 0.0350674 -0.701916 0.167826 0.0336498 -0.697093 
0.164082 0.0318658 -0.69126 0.15983 0.0296745 -0.684382 0.155083 0.0270452 -0.676458 
0.149867 0.0239613 -0.667516 0.144213 0.0204223 -0.657608 0.138158 0.0164456 -0.646806 
0.131743 0.0120671 -0.635184 0.125005 0.00734016 -0.62282 0.117978 0.00233408 -0.609777 
0.110689 -0.0028692 -0.596106 0.103156 -0.00817879 -0.581836 0.0953877 -0.0134993 -0.566982 
0.0873868 -0.0187353 -0.55154 0.0791474 -0.023796 -0.535499 0.0706588 -0.0285986 -0.518846 
0.0619081 -0.0330715 -0.501568 0.052882 -0.037156 -0.483665 0.04357 -0.040807 -0.465149 
0.0339662 -0.0439926 -0.446045 0.024072 -0.0466927 -0.426392 0.0138979 -0.0488972 -0.406235 
0.00346583 -0.0506035 -0.38562 -0.00718926 -0.0518145 -0.364589 -0.018017 -0.0525366 -0.34317 
-0.0289498 -0.0527788 -0.321372 -0.0399013 -0.052552 -0.299186 -0.050765 -0.0518696 -0.276582 
-0.061414 -0.0507484 -0.253515 -0.0717018 -0.0492098 -0.229931 -0.081465 -0.0472817 -0.205778 
-0.0905272 -0.0449992 -0.181015 -0.0987057 -0.0424059 -0.155625 -0.105819 -0.039553 -0.129624 
-0.111696 -0.036499 -0.103065 -0.116187 -0.0333072 -0.0760427 -0.119174 -0.0300431 -0.0486927 
-0.12058 -0.0267716 -0.0211823 -0.120376 -0.0235532 0.00629756 -0.118584 -0.0204411 0.0335457 
-0.115285 -0.0174793 0.060365 -0.110608 -0.0147005 0.0865765 -0.104728 -0.0121265 0.112032 
-0.0978556 -0.00976899 0.136623 -0.0902246 -0.00763134 0.160287 -0.0820753 -0.00571159 0.183007 
-0.0736411 -0.00400547 0.20481 -0.0651341 -0.00250943 0.225757 -0.0567332 -0.00122306 0.245936 
-0.0485762 -0.000150696 0.265447 -0.0407552 0.000698264 0.284391 -0.0333171 0.00131021 0.30286 
-0.0262682 0.00166939 0.32093 -0.0195825 0.00176078 0.338653 -0.0132125 0.00157349 0.356057 
-0.0071011 0.00110401 0.373152 -0.00119389 0.000358952 0.389925 0.00455088 -0.00064329 0.406356 
0.0101545 -0.00187229 0.422423 0.015614 -0.00328687 0.438102 0.0209015 -0.00483784 0.453384 
0.0259687 -0.00647201 0.468267 0.0307526 -0.00813689 0.482762 0.0351854 -0.00978565 0.496893 
0.0392035 -0.0113815 0.510684 0.0427573 -0.0129012 0.524165 0.0458187 -0.0143366 0.537353 
0.0483862 -0.015695 0.550258 0.0504862 -0.0169966 0.562868 0.0521713 -0.0182714 0.575153 
0.0535151 -0.0195536 0.587064 0.0546043 -0.0208765 0.598533 0.0555298 -0.022266 0.609479 
0.0563769 -0.0237364 0.619816 0.0572166 -0.0252866 0.629459 0.0580995 -0.0268989 0.638332 
0.0590516 -0.028539 0.646374 0.0600737 -0.03016 0.653546 0.0611444 -0.0317061 0.659834 
0.0622253 -0.0331196 0.665248 0.0632681 -0.0343468 0.669822 0.0642229 -0.0353452 0.673612 
0.0650463 -0.0360881 0.676689 0.0657074 -0.0365686 0.679134 0.0661924 -0.0368005 0.681035 
0.0665061 -0.0368175 0.682476 0.0666707 -0.0366689 0.68354 0.0667216 -0.0364144 0.684298 
0.0667016 -0.0361173 0.684811 0.0666543 -0.0358364 0.685127 0.0666167 -0.0356196 0.685282 
0.0666139 -0.035498 0.685297 
LINES 2 100
OFFSETS vtktypeint64
0 100 
CONNECTIVITY vtktypeint64
0 1 2 3 4 5 6 7 8 
9 10 11 12 13 14 15 16 17 
18 19 20 21 22 23 24 25 26 
27 28 29 30 31 32 33 34 35 
36 37 38 39 40 41 42 43 44 
45 46 47 48 49 50 51 52 53 
54 55 56 57 58 59 60 61 62 
63 64 65 66 67 68 69 70 71 
72 73 74 75 76 77 78 79 80 
81 82 83 84 85 86 87 88 89 
90 91 92 93 94 95 96 97 98 
99 
POINT_DATA 100
FIELD FieldData 3
_theta 1 100 double
0 0.031733259127 0.063466518254 0.095199777382 0.12693303651 0.15866629564 0.19039955476 0.22213281389 0.25386607302 
0.28559933214 0.31733259127 0.3490658504 0.38079910953 0.41253236865 0.44426562778 0.47599888691 0.50773214603 0.53946540516 
0.57119866429 0.60293192342 0.63466518254 0.66639844167 0.6981317008 0.72986495992 0.76159821905 0.79333147818 0.82506473731 
0.85679799643 0.88853125556 0.92026451469 0.95199777382 0.98373103294 1.0154642921 1.0471975512 1.0789308103 1.1106640695 
1.1423973286 1.1741305877 1.2058638468 1.237597106 1.2693303651 1.3010636242 1.3327968833 1.3645301425 1.3962634016 
1.4279966607 1.4597299198 1.491463179 1.5231964381 1.5549296972 1.5866629564 1.6183962155 1.6501294746 1.6818627337 
1.7135959929 1.745329252 1.7770625111 1.8087957702 1.8405290294 1.8722622885 1.9039955476 1.9357288068 1.9674620659 
1.999195325 2.0309285841 2.0626618433 2.0943951024 2.1261283615 2.1578616206 2.1895948798 2.2213281389 2.253061398 
2.2847946572 2.3165279163 2.3482611754 2.3799944345 2.4117276937 2.4434609528 2.4751942119 2.506927471 2.5386607302 
2.5703939893 2.6021272484 2.6338605076 2.6655937667 2.6973270258 2.7290602849 2.7607935441 2.7925268032 2.8242600623 
2.8559933214 2.8877265806 2.9194598397 2.9511930988 2.982926358 3.0146596171 3.0463928762 3.0781261353 3.1098593945 
3.1415926536 
_radius 1 100 double
6.1192232304e-16 0.015413754795 0.030673441982 0.045634843899 0.060166375077 0.074152108368 0.087492085636 0.10010059052 0.111903606 
0.12283675167 0.13284464956 0.14188210825 0.14991695709 0.15693393891 0.16293882374 0.16796183123 0.17205952099 0.17531450307 
0.17783261949 0.17973763527 0.181163907 0.18224786748 0.18311933375 0.18389352398 0.18466432676 0.18549903851 0.18643470038 
0.18747635761 0.18859781817 0.18974550874 0.19084564782 0.19181427006 0.19256895249 0.19304076142 0.19318508084 0.19299030568 
0.19248344431 0.19173151884 0.19083795823 0.18993441984 0.1891700836 0.18870110357 0.18868178562 0.18925698529 0.1905539039 
0.19267187953 0.19567055616 0.19955890081 0.20428871895 0.20975563343 0.21580803069 0.22226174518 0.22891701595 0.23557488686 
0.24205161155 0.24819047081 0.25387038801 0.2590104778 0.26356988356 0.26754300536 0.27095105488 0.27383140826 0.27622637386 
0.27817287478 0.27969431619 0.28079563022 0.28146212442 0.28166222983 0.28135356014 0.28049099939 0.27903507325 0.27695882504 
0.27425185127 0.27092090689 0.26698731195 0.26248203179 0.25743960543 0.25189204663 0.24586354727 0.23936645609 0.23239875462 
0.22494318246 0.21696822664 0.20843124244 0.19928385561 0.1894794247 0.178981771 0.16777380982 0.15586439897 0.14329184631 
0.13012310366 0.11644855514 0.10237322798 0.088005973235 0.073448524894 0.058786295448 0.04408235003 0.029375345044 0.014681494268 
1.180632246e-15 
_area 1 100 double
0 0.00058188546029 0.0023152753268 0.0051645838159 0.0090729320237 0.013961915835 0.01972769097 0.026234572448 0.033308946082 
0.040736816149 0.048268075091 0.055629317994 0.062544666815 0.06876137975 0.074075224804 0.078350538366 0.081531518048 0.083643740736 
0.084786962581 0.085121134403 0.084847413361 0.084185915469 0.08335317908 0.082543575535 0.081964220261 0.081705771254 0.08174821295 
0.082046347192 0.08255023628 0.083194710969 0.083895833029 0.084585401143 0.085266416883 0.085940650626 0.086615429107 0.087285109869 
0.087939710962 0.088597674187 0.089292065862 0.090041631429 0.090854059468 0.091750425731 0.092784408782 0.094051035 0.095688663613 
0.097878125977 0.10084489831 0.10483104581 0.10993183364 0.11608079161 0.12316145583 0.13101363647 0.13943179071 0.14817479735 
0.15698212235 0.1655937737 0.17377068889 0.18131054924 0.18805544886 0.19389281849 0.19875591759 0.20263076808 0.20556899916 
0.20768815085 0.20912640583 0.20996360115 0.21019182148 0.20975059483 0.20856407521 0.20656185999 0.20369643111 0.19996011477 
0.1953932387 0.1900757578 0.18410454155 0.17756836584 0.1705339023 0.16304741923 0.15514659814 0.14687292516 0.13827744101 
0.12941722631 0.12034458609 0.11109483066 0.10168080878 0.092100879268 0.082360641984 0.072500412721 0.062616196657 0.052864819293 
0.043451009855 0.034600912732 0.026530264792 0.019416067439 0.013378641045 0.0084774161646 0.0047198169547 0.0020792844258 0.00051675279501 
3.3810086556e-17 
