# vtk DataFile Version 5.1
vtk output
ASCII
DATASET POLYDATA
POINTS 100 float
0.108676 0.0532348 -0.649658 0.108465 0.0532435 -0.649602 0.107851 0.0530524 -0.64939 
0.106919 0.0526235 -0.648959 0.105796 0.0519003 -0.648209 0.104631 0.0508146 -0.647021 
0.103568 0.0492956 -0.645269 0.102724 0.0472795 -0.642839 0.102168 0.0447177 -0.639636 
0.101901 0.0415836 -0.635598 0.101852 0.0378767 -0.6307 0.101878 0.0336228 -0.624953 
0.101781 0.0288723 -0.618397 0.10132 0.0236951 -0.611092 0.100245 0.0181736 -0.603101 
0.0983219 0.0123951 -0.59448 0.0953595 0.00644442 -0.585263 0.091234 0.000398099 -0.575456 
0.0859029 -0.00567943 -0.565028 0.0794114 -0.0117368 -0.553915 0.0718863 -0.0177339 -0.542027 
0.0635226 -0.0236377 -0.529261 0.05456 -0.0294163 -0.51551 0.0452559 -0.0350319 -0.500686 
0.0358561 -0.0404356 -0.484728 0.0265684 -0.0455619 -0.467616 0.0175411 -0.0503273 -0.449377 
0.00885078 -0.0546313 -0.430084 0.000498904 -0.0583606 -0.40985 -0.00758032 -0.061397 -0.388819 
-0.0155035 -0.0636269 -0.367148 -0.0234145 -0.064952 -0.344992 -0.0314567 -0.0653003 -0.322486 
-0.0397453 -0.0646356 -0.299734 -0.0483425 -0.0629639 -0.276797 -0.0572395 -0.0603369 -0.253694 
-0.066347 -0.0568505 -0.230404 -0.0754956 -0.0526404 -0.206875 -0.0844466 -0.0478727 -0.18304 
-0.0929118 -0.0427327 -0.158831 -0.100579 -0.0374117 -0.134204 -0.10714 -0.0320935 -0.109145 
-0.112324 -0.0269423 -0.0836884 -0.115919 -0.0220931 -0.0579187 -0.117795 -0.0176447 -0.03197 
-0.117913 -0.0136576 -0.00601777 -0.11633 -0.0101548 0.0197351 -0.113188 -0.00712639 0.0450766 
-0.108705 -0.00453699 0.0698048 -0.103146 -0.00233454 0.093747 -0.0968046 -0.000459677 0.116775 
-0.0899739 0.0011456 0.138818 -0.0829241 0.00253082 0.159863 -0.0758836 0.00373226 0.179954 
-0.069026 0.00477081 0.199183 -0.0624641 0.00565236 0.217678 -0.0562509 0.00637041 0.235581 
-0.0503864 0.00691024 0.253033 -0.0448294 0.00725386 0.270159 -0.0395114 0.00738487 0.28705 
-0.0343518 0.00729262 0.303762 -0.029272 0.00697494 0.320308 -0.0242061 0.00643939 0.336665 
-0.0191094 0.00570275 0.352785 -0.0139617 0.00478916 0.368604 -0.0087676 0.00372736 0.384057 
-0.00355324 0.00254742 0.399094 0.00163883 0.00127772 0.413687 0.00675613 -5.7452e-05 0.427837 
0.0117427 -0.00143925 0.441578 0.0165447 -0.00285446 0.45497 0.0211149 -0.00429461 0.468091 
0.0254147 -0.00575429 0.481024 0.0294162 -0.00722895 0.493846 0.0331014 -0.00871291 0.50661 
0.0364616 -0.0101978 0.519336 0.0394969 -0.0116719 0.532007 0.0422154 -0.0131205 0.54456 
0.0446328 -0.0145277 0.556895 0.0467734 -0.0158784 0.568881 0.0486704 -0.0171611 0.580368 
0.0503668 -0.0183708 0.591202 0.0519153 -0.0195112 0.601242 0.053377 -0.0205953 0.610369 
0.0548194 -0.0216455 0.618501 0.0563119 -0.0226912 0.625601 0.0579203 -0.0237659 0.631674 
0.0597004 -0.0249022 0.636766 0.0616912 -0.0261269 0.640959 0.0639087 -0.0274562 0.644359 
0.066341 -0.0288916 0.647082 0.0689464 -0.0304169 0.649249 0.0716532 -0.031998 0.650968 
0.0743641 -0.033584 0.652334 0.0769628 -0.0351112 0.653419 0.0793229 -0.0365084 0.654276 
0.0813194 -0.0377036 0.654937 0.0828397 -0.0386313 0.655419 0.0837942 -0.0392389 0.65573 
0.0841251 -0.0394928 0.655871 
LINES 2 100
OFFSETS vtktypeint64
0 100 
CONNECTIVITY vtktypeint64
0 1 2 3 4 5 6 7 8 
9 10 11 12 13 14 15 16 17 
18 19 20 21 22 23 24 25 26 
27 28 29 30 31 32 33 34 35 
36 37 38 39 40 41 42 43 44 
45 46 47 48 49 50 51 52 53 
54 55 56 57 58 59 60 61 62 
63 64 65 66 67 68 69 70 71 
72 73 74 75 76 77 78 79 80 
81 82 83 84 85 86 87 88 89 
90 91 92 93 94 95 96 97 98 
99 
POINT_DATA 100
FIELD FieldData 3
_theta 1 100 double
0 0.031733259127 0.063466518254 0.095199777382 0.12693303651 0.15866629564 0.19039955476 0.22213281389 0.25386607302 
0.28559933214 0.31733259127 0.3490658504 0.38079910953 0.41253236865 0.44426562778 0.47599888691 0.50773214603 0.53946540516 
0.57119866429 0.60293192342 0.63466518254 0.66639844167 0.6981317008 0.72986495992 0.76159821905 0.79333147818 0.82506473731 
0.85679799643 0.88853125556 0.92026451469 0.95199777382 0.98373103294 1.0154642921 1.0471975512 1.0789308103 1.1106640695 
1.1423973286 1.1741305877 1.2058638468 1.237597106 1.2693303651 1.3010636242 1.3327968833 1.3645301425 1.3962634016 
1.4279966607 1.4597299198 1.491463179 1.5231964381 1.5549296972 1.5866629564 1.6183962155 1.6501294746 1.6818627337 
1.7135959929 1.745329252 1.7770625111 1.8087957702 1.8405290294 1.8722622885 1.9039955476 1.9357288068 1.9674620659 
1.999195325 2.0309285841 2.0626618433 2.0943951024 2.1261283615 2.1578616206 2.1895948798 2.2213281389 2.253061398 
2.2847946572 2.3165279163 2.3482611754 2.3799944345 2.4117276937 2.4434609528 2.4751942119 2.506927471 2.5386607302 
2.5703939893 2.6021272484 2.6338605076 2.6655937667 2.6973270258 2.7290602849 2.7607935441 2.7925268032 2.8242600623 
2.8559933214 2.8877265806 2.9194598397 2.9511930988 2.982926358 3.0146596171 3.0463928762 3.0781261353 3.1098593945 
3.1415926536 
_radius 1 100 double
5.7722255706e-16 0.015770346989 0.031420023554 0.046827886194 0.061883542256 0.076491667932 0.090574670396 0.10407307692 0.11694320791 
0.12915207591 0.14067003096 0.15146233784 0.16148143657 0.17066189294 0.17891983239 0.18615792568 0.19227586873 0.1971850208 
0.20082477582 0.20317767042 0.20428037933 0.20422858272 0.20317492937 0.20132052428 0.19890115174 0.19616968881 0.19337610202 
0.19074647197 0.18846296388 0.18664749316 0.18535249316 0.18456184994 0.18420317595 0.18416953915 0.18434585857 0.18463376887 
0.18496943367 0.18533130745 0.1857382819 0.18624150693 0.18691414718 0.18784237316 0.18911886771 0.19083783137 0.19308877943 
0.19594664473 0.19945827931 0.20362873399 0.20841205501 0.21370983575 0.21937801635 0.22524041579 0.23110663458 0.2367916896 
0.24213463696 0.2470135331 0.25135453741 0.25513387277 0.2583726663 0.26112603567 0.26346864103 0.26547905233 0.26722499118 
0.26875121179 0.27007153237 0.2711660986 0.27198423495 0.27245232926 0.27248533111 0.27199983844 0.27092652362 0.26921983619 
0.26686346209 0.26387078907 0.26028045169 0.25614773771 0.25153313969 0.24648964792 0.24105059029 0.23521997953 0.2289673356 
0.22222858405 0.21491371367 0.20692049312 0.19815207787 0.18853527471 0.17803590699 0.16666821177 0.15449634939 0.1416276498 
0.12819885948 0.11435809018 0.10024611783 0.085980867818 0.071648166338 0.057300163417 0.042960621998 0.0286342658 0.014316443885 
7.6703081661e-16 
_area 1 100 double
0 0.00065930590855 0.0026114537209 0.005781258494 0.010050480952 0.01526814745 0.02126377156 0.027861134434 0.034889187952 
0.042186977284 0.049601823686 0.056983121563 0.064175643731 0.071015224688 0.077327498365 0.082929192018 0.087632442953 0.091254863458 
0.093638799698 0.094679968117 0.094359931672 0.092773156099 0.090140015048 0.086800893304 0.083193027757 0.079840667693 0.077448503201 
0.076211562421 0.07591264697 0.076381537773 0.077436475183 0.078900735918 0.080620481893 0.082481710536 0.084420853287 0.086424458274 
0.088515718159 0.090730139058 0.093087802701 0.095571106575 0.098121642659 0.1007172368 0.10324161703 0.10568583741 0.10829634488 
0.11137364687 0.11491685917 0.1191648431 0.12428731694 0.13028139598 0.13699362917 0.14421768011 0.15180364594 0.15966569582 
0.16765000274 0.17541951389 0.18275114751 0.18938775148 0.19511909733 0.19988598498 0.20368545178 0.20655058475 0.20855433603 
0.20987661542 0.21058911306 0.21077209832 0.21047003913 0.2096970653 0.20845507539 0.20669925187 0.20434091574 0.20132340831 
0.19760211248 0.1931407188 0.18793072716 0.18200870097 0.17545571521 0.16837847716 0.16088263954 0.15304735755 0.14490755407 
0.13644872947 0.12761682476 0.1183424785 0.10857523861 0.098318645881 0.087654243377 0.076745870898 0.065823734599 0.055154698832 
0.045007937619 0.035624288161 0.027194909979 0.019851413618 0.013666641363 0.0086635400734 0.0048290663117 0.0021302580155 0.00052996011372 
3.6814537452e-17 
