# vtk DataFile Version 5.1
vtk output
ASCII
DATASET POLYDATA
POINTS 100 float
0.140095 -0.0282618 0.694632 0.139936 -0.0284156 0.694153 0.139413 -0.0289776 0.692845 
0.138527 -0.0299012 0.690772 0.137282 -0.031113 0.68803 0.135685 -0.0325191 0.684733 
0.133753 -0.0340132 0.681004 0.131507 -0.0354852 0.676953 0.12898 -0.03683 0.672666 
0.126213 -0.0379555 0.668194 0.123254 -0.0387885 0.663546 0.120152 -0.0392792 0.65869 
0.11696 -0.0394026 0.653557 0.11372 -0.0391579 0.648051 0.110466 -0.0385657 0.64206 
0.107214 -0.0376625 0.635471 0.103961 -0.0364961 0.628187 0.100685 -0.0351181 0.620135 
0.0973423 -0.0335791 0.611277 0.0938738 -0.0319233 0.601611 0.0902103 -0.0301855 0.591173 
0.0862793 -0.0283893 0.58003 0.0820135 -0.0265476 0.568269 0.0773591 -0.0246646 0.555991 
0.0722833 -0.022739 0.543294 0.0667793 -0.020768 0.530265 0.060869 -0.0187513 0.516974 
0.0546023 -0.0166953 0.503467 0.0480536 -0.0146152 0.489768 0.0413142 -0.0125364 0.47588 
0.0344838 -0.0104948 0.46179 0.0276596 -0.00853442 0.447478 0.0209256 -0.00670453 0.432922 
0.0143438 -0.00505563 0.418107 0.00794637 -0.00363494 0.40302 0.00173238 -0.00248212 0.387659 
-0.00433205 -0.00162573 0.372023 -0.0103094 -0.00108075 0.356109 -0.0162823 -0.000847776 0.339904 
-0.0223422 -0.000913656 0.323376 -0.0285762 -0.00125382 0.306469 -0.0350522 -0.00183583 0.2891 
-0.0418066 -0.00262384 0.271159 -0.0488326 -0.00358333 0.252515 -0.0560739 -0.00468562 0.233022 
-0.0634212 -0.00591159 0.21254 -0.0707152 -0.00725404 0.190944 -0.0777535 -0.00871858 0.168145 
-0.0843027 -0.0103227 0.144098 -0.0901133 -0.0120931 0.118823 -0.094937 -0.0140619 0.0924014 
-0.0985447 -0.0162616 0.0649793 -0.100742 -0.0187197 0.03676 -0.101385 -0.0214531 0.00798996 
-0.100388 -0.0244642 -0.0210598 -0.0977284 -0.0277369 -0.0501145 -0.0934502 -0.0312348 -0.0789176 
-0.0876553 -0.0349014 -0.10725 -0.0804957 -0.0386617 -0.134946 -0.0721608 -0.0424247 -0.161902 
-0.0628622 -0.0460889 -0.188078 -0.052819 -0.0495467 -0.213495 -0.0422421 -0.0526901 -0.23822 
-0.0313229 -0.0554164 -0.262353 -0.0202232 -0.0576327 -0.286005 -0.00906982 -0.0592594 -0.30928 
0.00204706 -0.0602329 -0.332256 0.0130715 -0.0605069 -0.354975 0.0239765 -0.0600524 -0.377428 
0.0347557 -0.0588563 -0.399563 0.0454148 -0.0569202 -0.421282 0.0559611 -0.0542583 -0.442456 
0.0663955 -0.0508946 -0.46294 0.0767051 -0.0468616 -0.482585 0.0868589 -0.0421988 -0.501257 
0.0968056 -0.0369513 -0.518851 0.106475 -0.0311701 -0.535297 0.115782 -0.024912 -0.550567 
0.12463 -0.0182399 -0.564673 0.132922 -0.0112234 -0.577662 0.140564 -0.00393926 -0.589603 
0.147474 0.00352915 -0.600578 0.153591 0.0110924 -0.610669 0.158876 0.0186569 -0.619947 
0.163314 0.0261266 -0.628466 0.166921 0.0334064 -0.636255 0.169737 0.0404051 -0.643325 
0.171823 0.0470389 -0.649669 0.17326 0.0532342 -0.655271 0.174141 0.0589306 -0.660117 
0.174566 0.064082 -0.664203 0.174638 0.068658 -0.667542 0.174455 0.0726429 -0.670174 
0.174107 0.0760345 -0.67216 0.173675 0.0788415 -0.673585 0.17323 0.0810803 -0.674546 
0.172825 0.0827711 -0.675148 0.172505 0.0839348 -0.675488 0.1723 0.0845892 -0.675645 
0.172228 0.0847464 -0.675674 
LINES 2 100
OFFSETS vtktypeint64
0 100 
CONNECTIVITY vtktypeint64
0 1 2 3 4 5 6 7 8 
9 10 11 12 13 14 15 16 17 
18 19 20 21 22 23 24 25 26 
27 28 29 30 31 32 33 34 35 
36 37 38 39 40 41 42 43 44 
45 46 47 48 49 50 51 52 53 
54 55 56 57 58 59 60 61 62 
63 64 65 66 67 68 69 70 71 
72 73 74 75 76 77 78 79 80 
81 82 83 84 85 86 87 88 89 
90 91 92 93 94 95 96 97 98 
99 
POINT_DATA 100
FIELD FieldData 3
_theta 1 100 double
0 0.031733259127 0.063466518254 0.095199777382 0.12693303651 0.15866629564 0.19039955476 0.22213281389 0.25386607302 
0.28559933214 0.31733259127 0.3490658504 0.38079910953 0.41253236865 0.44426562778 0.47599888691 0.50773214603 0.53946540516 
0.57119866429 0.60293192342 0.63466518254 0.66639844167 0.6981317008 0.72986495992 0.76159821905 0.79333147818 0.82506473731 
0.85679799643 0.88853125556 0.92026451469 0.95199777382 0.98373103294 1.0154642921 1.0471975512 1.0789308103 1.1106640695 
1.1423973286 1.1741305877 1.2058638468 1.237597106 1.2693303651 1.3010636242 1.3327968833 1.3645301425 1.3962634016 
1.4279966607 1.4597299198 1.491463179 1.5231964381 1.5549296972 1.5866629564 1.6183962155 1.6501294746 1.6818627337 
1.7135959929 1.745329252 1.7770625111 1.8087957702 1.8405290294 1.8722622885 1.9039955476 1.9357288068 1.9674620659 
1.999195325 2.0309285841 2.0626618433 2.0943951024 2.1261283615 2.1578616206 2.1895948798 2.2213281389 2.253061398 
2.2847946572 2.3165279163 2.3482611754 2.3799944345 2.4117276937 2.4434609528 2.4751942119 2.506927471 2.5386607302 
2.5703939893 2.6021272484 2.6338605076 2.6655937667 2.6973270258 2.7290602849 2.7607935441 2.7925268032 2.8242600623 
2.8559933214 2.8877265806 2.9194598397 2.9511930988 2.982926358 3.0146596171 3.0463928762 3.0781261353 3.1098593945 
3.1415926536 
_radius 1 100 double
6.8192948472e-16 0.015435379217 0.030852160792 0.046229243929 0.061539213117 0.076746101603 0.091804352031 0.10665922596 0.121248616 
0.13550586127 0.14936292364 0.16275329143 0.17561425326 0.18788857684 0.19952589754 0.21048410676 0.22073075844 0.23024417131 
0.23901370857 0.24703878468 0.25432647166 0.26088804135 0.2667352204 0.27187718067 0.27631921594 0.2800636375 0.28311274982 
0.2854730464 0.28715925444 0.28819676789 0.28862142048 0.28847634796 0.28780659634 0.28665281976 0.28504563798 0.28300195146 
0.2805239137 0.27760061506 0.27421207566 0.27033497364 0.26594959669 0.26104764441 0.25564051397 0.2497674064 0.24350203409 
0.2369562301 0.23027879036 0.22364855813 0.21726181776 0.21131517501 0.20598621042 0.20141533056 0.19769300497 0.19485597642 
0.19289330158 0.19175894516 0.19138450005 0.19168575211 0.19256053618 0.19388076401 0.19548590308 0.19718614319 0.19877978811 
0.20008211683 0.20095629698 0.20133564874 0.20123084513 0.20072145988 0.1999354925 0.19902269882 0.19812812468 0.19737105518 
0.19683173301 0.19654494258 0.19649769523 0.19662853823 0.19682779519 0.19694004999 0.19677120035 0.19610174027 0.19470588388 
0.19237394254 0.18893420425 0.18427070476 0.17833420339 0.17114480525 0.16278577106 0.15338916544 0.14311519909 0.13212838378 
0.12057469799 0.10856441128 0.096164535305 0.083402804031 0.070281974919 0.0568001238 0.042970815405 0.028837394436 0.014477888396 
9.6346387896e-16 
_area 1 100 double
0 0.00052752057314 0.0021143435451 0.0047706245988 0.0085051205944 0.01331523028 0.019177564616 0.026042087829 0.033831148863 
0.042442359123 0.051752664994 0.06162131709 0.071891821818 0.082395640991 0.092960852762 0.10342636844 0.11365858295 0.12356528918 
0.13310223444 0.14226966719 0.15109824792 0.15962594318 0.16787090561 0.17580859456 0.18336101033 0.19040134718 0.19677237712 
0.20231367399 0.20689066346 0.21041779331 0.21287003419 0.21428073004 0.21472749696 0.21431018606 0.21312608719 0.21124828856 
0.20871293263 0.20551867266 0.20163864244 0.19704148557 0.191721832 0.18573371175 0.17902095363 0.17147000398 0.16320499377 
0.15450852518 0.14575305295 0.13733825771 0.12962572128 0.12287931405 0.11722159635 0.11261924464 0.10891095309 0.10587909925 
0.10335313496 0.10134118883 0.099923300252 0.098902276411 0.098128298534 0.097548515865 0.097118612104 0.096751208231 0.096282421642 
0.095484784215 0.09415201045 0.092194948411 0.089684505206 0.086834563842 0.083940156533 0.081293956473 0.079119110255 0.077552167794 
0.07667407322 0.076551356191 0.077232776342 0.078696668716 0.080803882076 0.083284137997 0.085777206285 0.087893449734 0.089254700412 
0.089530606563 0.088474866118 0.085953278432 0.081959829494 0.076615579099 0.070148195366 0.062856889921 0.05507117408 0.047112572332 
0.039266799288 0.031770065313 0.024808602957 0.018526843175 0.013038067813 0.0084324691723 0.004780981073 0.0021366580649 0.00053591539507 
5.3884427733e-17 
