# vtk DataFile Version 5.1
vtk output
ASCII
DATASET POLYDATA
POINTS 100 float
0.0498477 -0.00581284 -0.543958 0.0496947 -0.00575293 -0.543888 0.0493188 -0.00580067 -0.543605 
0.0487289 -0.00599346 -0.543088 0.0479378 -0.00638587 -0.542301 0.0469592 -0.00704098 -0.541204 
0.0458058 -0.00801997 -0.539746 0.0444853 -0.00937153 -0.537879 0.0429987 -0.0111226 -0.535553 
0.0413386 -0.0132715 -0.532719 0.0394881 -0.0157854 -0.529333 0.0374222 -0.0186009 -0.525351 
0.0351093 -0.0216294 -0.52073 0.0325148 -0.0247657 -0.515424 0.0296048 -0.0278989 -0.509381 
0.0263501 -0.0309241 -0.502546 0.0227303 -0.0337537 -0.494856 0.0187372 -0.0363257 -0.486244 
0.014376 -0.03861 -0.476646 0.00966673 -0.0406091 -0.465999 0.00464216 -0.0423552 -0.454256 
-0.000654368 -0.0439031 -0.441387 -0.00617321 -0.0453203 -0.427387 -0.0118632 -0.0466745 -0.41228 
-0.0176764 -0.048022 -0.396123 -0.023573 -0.0493968 -0.379002 -0.0295245 -0.0508027 -0.361029 
-0.0355153 -0.0522096 -0.342335 -0.0415425 -0.053554 -0.323059 -0.0476138 -0.0547443 -0.303334 
-0.0537427 -0.0556698 -0.283282 -0.0599428 -0.0562126 -0.262994 -0.0662207 -0.0562608 -0.242531 
-0.0725688 -0.0557216 -0.221913 -0.0789592 -0.0545325 -0.201123 -0.0853385 -0.052669 -0.180111 
-0.091625 -0.050149 -0.158799 -0.0977096 -0.0470314 -0.137101 -0.103458 -0.0434116 -0.114927 
-0.108718 -0.0394126 -0.0922073 -0.113328 -0.0351732 -0.0688978 -0.117124 -0.0308357 -0.0449955 
-0.119959 -0.0265337 -0.0205423 -0.121706 -0.0223812 0.00437284 -0.122272 -0.0184646 0.0296173 
-0.121604 -0.0148393 0.055023 -0.119695 -0.0115285 0.0803984 -0.116585 -0.00852723 0.105542 
-0.112356 -0.00580834 0.130258 -0.107125 -0.00333084 0.154369 -0.101041 -0.00104908 0.177728 
-0.0942638 0.00107863 0.200226 -0.0869608 0.00308285 0.221796 -0.0792891 0.00497821 0.242415 
-0.0713874 0.00676135 0.262092 -0.063367 0.00841177 0.280872 -0.0553072 0.00989519 0.298816 
-0.0472536 0.0111687 0.316 -0.0392203 0.012187 0.332498 -0.031195 0.012909 0.348385 
-0.0231468 0.0133027 0.363723 -0.0150351 0.01335 0.378564 -0.00681972 0.0130481 0.392951 
0.00153063 0.0124102 0.406919 0.010031 0.0114627 0.420496 0.0186756 0.0102428 0.433713 
0.0274355 0.00879345 0.4466 0.0362604 0.0071594 0.459191 0.0450821 0.00538315 0.471521 
0.0538208 0.00350211 0.483622 0.0623925 0.00154717 0.495523 0.0707172 -0.000457364 0.507236 
0.0787257 -0.00249236 0.518761 0.0863659 -0.00454163 0.530073 0.0936065 -0.00658916 0.541127 
0.100438 -0.00861648 0.551853 0.106873 -0.0106007 0.562167 0.112937 -0.0125135 0.571971 
0.118673 -0.0143215 0.581171 0.124122 -0.015988 0.589681 0.129327 -0.0174753 0.597436 
0.134322 -0.0187487 0.604404 0.139126 -0.0197796 0.610587 0.143742 -0.020549 0.616028 
0.148158 -0.0210501 0.620806 0.152347 -0.0212893 0.625031 0.156271 -0.0212864 0.628831 
0.159886 -0.021073 0.632341 0.163149 -0.0206896 0.635686 0.166026 -0.0201826 0.638968 
0.168495 -0.0195999 0.642253 0.170548 -0.0189877 0.645566 0.172197 -0.0183868 0.648883 
0.17347 -0.0178312 0.652139 0.17441 -0.0173463 0.655231 0.175067 -0.0169496 0.658034 
0.175496 -0.0166515 0.660412 0.175748 -0.0164572 0.662239 0.175866 -0.0163685 0.66341 
0.175876 -0.0163855 0.663857 
LINES 2 100
OFFSETS vtktypeint64
0 100 
CONNECTIVITY vtktypeint64
0 1 2 3 4 5 6 7 8 
9 10 11 12 13 14 15 16 17 
18 19 20 21 22 23 24 25 26 
27 28 29 30 31 32 33 34 35 
36 37 38 39 40 41 42 43 44 
45 46 47 48 49 50 51 52 53 
54 55 56 57 58 59 60 61 62 
63 64 65 66 67 68 69 70 71 
72 73 74 75 76 77 78 79 80 
81 82 83 84 85 86 87 88 89 
90 91 92 93 94 95 96 97 98 
99 
POINT_DATA 100
FIELD FieldData 3
_theta 1 100 double
0 0.031733259127 0.063466518254 0.095199777382 0.12693303651 0.15866629564 0.19039955476 0.22213281389 0.25386607302 
0.28559933214 0.31733259127 0.3490658504 0.38079910953 0.41253236865 0.44426562778 0.47599888691 0.50773214603 0.53946540516 
0.57119866429 0.60293192342 0.63466518254 0.66639844167 0.6981317008 0.72986495992 0.76159821905 0.79333147818 0.82506473731 
0.85679799643 0.88853125556 0.92026451469 0.95199777382 0.98373103294 1.0154642921 1.0471975512 1.0789308103 1.1106640695 
1.1423973286 1.1741305877 1.2058638468 1.237597106 1.2693303651 1.3010636242 1.3327968833 1.3645301425 1.3962634016 
1.4279966607 1.4597299198 1.491463179 1.5231964381 1.5549296972 1.5866629564 1.6183962155 1.6501294746 1.6818627337 
1.7135959929 1.745329252 1.7770625111 1.8087957702 1.8405290294 1.8722622885 1.9039955476 1.9357288068 1.9674620659 
1.999195325 2.0309285841 2.0626618433 2.0943951024 2.1261283615 2.1578616206 2.1895948798 2.2213281389 2.253061398 
2.2847946572 2.3165279163 2.3482611754 2.3799944345 2.4117276937 2.4434609528 2.4751942119 2.506927471 2.5386607302 
2.5703939893 2.6021272484 2.6338605076 2.6655937667 2.6973270258 2.7290602849 2.7607935441 2.7925268032 2.8242600623 
2.8559933214 2.8877265806 2.9194598397 2.9511930988 2.982926358 3.0146596171 3.0463928762 3.0781261353 3.1098593945 
3.1415926536 
_radius 1 100 double
9.992549308e-16 0.015286724853 0.030484475857 0.045499113779 0.060248133412 0.074664027851 0.08869475233 0.1023015529 0.11545491449 
0.12812950402 0.14029880093 0.15192985291 0.16297850325 0.17338558883 0.18307489958 0.19195392777 0.19991843936 0.20686154869 
0.21268719811 0.21732673734 0.22075588391 0.2230082872 0.22418191105 0.22443577772 0.22397684702 0.22303910089 0.2218585381 
0.22064838307 0.21957838981 0.21876096467 0.21824529874 0.21801919935 0.21801732475 0.21813430324 0.2182414683 0.21820611358 
0.21791189895 0.21727837268 0.21627694346 0.21494060068 0.21336555569 0.21170454833 0.21015315266 0.20893132352 0.20826248021 
0.20835203544 0.20936692924 0.21141760576 0.21454399545 0.21870737048 0.22379003092 0.22960404299 0.23590856526 0.24243338681 
0.24890509116 0.25507210224 0.26072550479 0.26571354128 0.26994877299 0.27340788044 0.27612486462 0.27817895804 0.27967889678 
0.28074541031 0.28149388818 0.28201914302 0.28238392507 0.28261230953 0.28268832567 0.28255939247 0.28214348097 0.28133860013 
0.28003321979 0.27811648634 0.27548739631 0.27206236926 0.26778087454 0.26260891665 0.25654025154 0.2495951885 0.24181680953 
0.23326459687 0.22400597445 0.21410709063 0.20362490406 0.1926027062 0.18107031211 0.16904857718 0.1565564172 0.14361782228 
0.13026666327 0.11654810243 0.10251662641 0.088231672562 0.073752287291 0.059132229872 0.044416560261 0.029640224513 0.014828649976 
1.41026762e-15 
_area 1 100 double
0 0.00068031913135 0.0026769140798 0.0058685274352 0.010089044925 0.015169756809 0.020976744219 0.027427320842 0.034477447973 
0.042088387662 0.050192268164 0.058672187498 0.067360955665 0.076054574422 0.084532956737 0.092579379137 0.099992327935 0.10658772681 
0.11219064396 0.11661566933 0.11965916186 0.12115100282 0.12105168101 0.11952221561 0.11693073359 0.11380188229 0.11072883519 
0.10827060479 0.10685392186 0.1066933968 0.1077597445 0.10983621747 0.11262175241 0.11579661545 0.11904388961 0.12206274631 
0.12459372925 0.12645299087 0.12756140156 0.12795626008 0.1277821449 0.12726769828 0.12669831433 0.12638698588 0.12664041644 
0.12772503227 0.12984534296 0.13314055175 0.13768939998 0.14350705514 0.15052893909 0.15859100336 0.16742038965 0.1766470928 
0.18584234728 0.19458097398 0.20251286079 0.20942023435 0.21523841431 0.22003012553 0.22392385451 0.2270447449 0.22947019713 
0.23122508442 0.2323040588 0.23269812004 0.23241220114 0.23147079035 0.22991282111 0.22777820251 0.2250889898 0.22182949784 
0.21793179643 0.21327465392 0.20770348654 0.20107455366 0.19331223663 0.18444944114 0.17462707364 0.16405779571 0.15297696752 
0.14160060658 0.13010017785 0.11859620264 0.1071678296 0.095872228915 0.084765770886 0.073919579228 0.063425448932 0.053392529644 
0.043938443798 0.035179525562 0.027223572408 0.020165838263 0.014086829867 0.0090503798745 0.0051021448359 0.0022700573473 0.00056774668031 
9.9149310584e-17 
