# vtk DataFile Version 5.1
vtk output
ASCII
DATASET POLYDATA
POINTS 100 float
0.124471 -0.0348769 0.725385 0.124441 -0.0347574 0.724935 0.124283 -0.034521 0.723786 
0.123979 -0.0341768 0.721988 0.1235 -0.033739 0.719612 0.122818 -0.0332243 0.71674 
0.121905 -0.0326486 0.713452 0.120746 -0.0320246 0.709809 0.119342 -0.0313586 0.70584 
0.117713 -0.0306493 0.701539 0.115893 -0.0298872 0.696855 0.113933 -0.0290557 0.691702 
0.111888 -0.028133 0.685964 0.109809 -0.0270956 0.679512 0.107734 -0.0259216 0.672216 
0.105676 -0.0245945 0.663967 0.10362 -0.0231065 0.654694 0.101516 -0.0214604 0.644369 
0.0992779 -0.019671 0.633021 0.0967948 -0.0177643 0.620732 0.0939353 -0.0157758 0.607633 
0.0905637 -0.0137477 0.593888 0.0865537 -0.0117255 0.579683 0.0818046 -0.00975409 0.5652 
0.0762542 -0.00787449 0.550605 0.0698889 -0.00612142 0.536026 0.0627481 -0.00452182 0.521547 
0.0549231 -0.00309482 0.507197 0.0465501 -0.00185288 0.492953 0.0377973 -0.000803865 0.478745 
0.0288489 4.62208e-05 0.46447 0.0198861 0.000690512 0.450001 0.0110688 0.00111899 0.435212 
0.00252017 0.00131713 0.419985 -0.00568554 0.00126575 0.404225 -0.0135279 0.000942256 0.387869 
-0.021039 0.00032314 0.370888 -0.0282957 -0.000612583 0.353284 -0.0354047 -0.00187945 0.335084 
-0.0424851 -0.00348175 0.31633 -0.0496472 -0.00541046 0.297066 -0.0569723 -0.00764143 0.277328 
-0.0644956 -0.0101353 0.25714 -0.0721937 -0.012839 0.236499 -0.0799785 -0.0156895 0.215385 
-0.0876995 -0.0186184 0.193757 -0.0951519 -0.0215575 0.171564 -0.102093 -0.0244447 0.148754 
-0.108263 -0.0272294 0.125286 -0.113407 -0.0298758 0.10114 -0.117297 -0.0323652 0.0763262 
-0.119756 -0.0346956 0.0508868 -0.12067 -0.0368791 0.024899 -0.120001 -0.0389373 -0.00153003 
-0.117784 -0.0408951 -0.0282711 -0.114127 -0.0427741 -0.0551834 -0.109192 -0.0445861 -0.0821259 
-0.103184 -0.0463269 -0.108969 -0.0963261 -0.0479732 -0.135602 -0.0888387 -0.0494803 -0.161942 
-0.0809194 -0.050784 -0.187931 -0.0727269 -0.0518039 -0.213538 -0.06437 -0.0524491 -0.238747 
-0.0559025 -0.0526265 -0.263556 -0.0473263 -0.052248 -0.287962 -0.0385987 -0.0512394 -0.311953 
-0.0296461 -0.0495466 -0.335505 -0.0203804 -0.0471414 -0.358574 -0.0107166 -0.0440237 -0.3811 
-0.000589521 -0.0402215 -0.403012 0.0100318 -0.0357892 -0.424233 0.0211344 -0.0308023 -0.444693 
0.0326568 -0.0253518 -0.464336 0.0444896 -0.0195371 -0.483131 0.0564822 -0.0134601 -0.501077 
0.0684529 -0.00721841 -0.518201 0.0802035 -0.000901653 -0.534561 0.091534 0.00541144 -0.55023 
0.102259 0.0116538 -0.565289 0.11222 0.017769 -0.579812 0.121297 0.0237095 -0.593849 
0.129418 0.0294337 -0.607416 0.136557 0.0349031 -0.620487 0.142735 0.0400805 -0.632989 
0.148013 0.0449285 -0.644808 0.152485 0.0494098 -0.655798 0.156264 0.0534888 -0.665796 
0.159474 0.0571343 -0.674645 0.162234 0.0603224 -0.682213 0.164653 0.0630401 -0.688411 
0.166817 0.0652883 -0.693214 0.168788 0.0670831 -0.696663 0.1706 0.0684567 -0.698878 
0.172263 0.0694551 -0.700038 0.173764 0.0701354 -0.700379 0.175074 0.0705604 -0.700162 
0.176155 0.0707934 -0.699654 0.176966 0.0708915 -0.6991 0.177475 0.0709004 -0.698694 
0.177658 0.0708491 -0.698561 
LINES 2 100
OFFSETS vtktypeint64
0 100 
CONNECTIVITY vtktypeint64
0 1 2 3 4 5 6 7 8 
9 10 11 12 13 14 15 16 17 
18 19 20 21 22 23 24 25 26 
27 28 29 30 31 32 33 34 35 
36 37 38 39 40 41 42 43 44 
45 46 47 48 49 50 51 52 53 
54 55 56 57 58 59 60 61 62 
63 64 65 66 67 68 69 70 71 
72 73 74 75 76 77 78 79 80 
81 82 83 84 85 86 87 88 89 
90 91 92 93 94 95 96 97 98 
99 
POINT_DATA 100
FIELD FieldData 3
_theta 1 100 double
0 0.031733259127 0.063466518254 0.095199777382 0.12693303651 0.15866629564 0.19039955476 0.22213281389 0.25386607302 
0.28559933214 0.31733259127 0.3490658504 0.38079910953 0.41253236865 0.44426562778 0.47599888691 0.50773214603 0.53946540516 
0.57119866429 0.60293192342 0.63466518254 0.66639844167 0.6981317008 0.72986495992 0.76159821905 0.79333147818 0.82506473731 
0.85679799643 0.88853125556 0.92026451469 0.95199777382 0.98373103294 1.0154642921 1.0471975512 1.0789308103 1.1106640695 
1.1423973286 1.1741305877 1.2058638468 1.237597106 1.2693303651 1.3010636242 1.3327968833 1.3645301425 1.3962634016 
1.4279966607 1.4597299198 1.491463179 1.5231964381 1.5549296972 1.5866629564 1.6183962155 1.6501294746 1.6818627337 
1.7135959929 1.745329252 1.7770625111 1.8087957702 1.8405290294 1.8722622885 1.9039955476 1.9357288068 1.9674620659 
1.999195325 2.0309285841 2.0626618433 2.0943951024 2.1261283615 2.1578616206 2.1895948798 2.2213281389 2.253061398 
2.2847946572 2.3165279163 2.3482611754 2.3799944345 2.4117276937 2.4434609528 2.4751942119 2.506927471 2.5386607302 
2.5703939893 2.6021272484 2.6338605076 2.6655937667 2.6973270258 2.7290602849 2.7607935441 2.7925268032 2.8242600623 
2.8559933214 2.8877265806 2.9194598397 2.9511930988 2.982926358 3.0146596171 3.0463928762 3.0781261353 3.1098593945 
3.1415926536 
_radius 1 100 double
2.9143354396e-16 0.013222120651 0.02652589084 0.039990140148 0.053672296405 0.067598017568 0.081752183755 0.096072487802 0.11044724671 
0.12471903987 0.13869509533 0.15216403331 0.16491703775 0.17677030695 0.18758512413 0.19728218213 0.20584775075 0.21333065213 
0.21983058527 0.22547991146 0.23042232888 0.23479258781 0.23870116889 0.24222651807 0.24541529537 0.24828888853 0.25085301135 
0.25310703706 0.25505069637 0.25668730271 0.25802402463 0.25907039092 0.25983608984 0.26032852824 0.26055006676 0.26049474556 
0.26014473173 0.25946739688 0.2584144609 0.25692466148 0.25493079555 0.25237087955 0.24920194868 0.24541405431 0.24104160664 
0.23616947322 0.23093212761 0.22550539309 0.22009157611 0.2148997991 0.21012418705 0.20592332118 0.20240468257 0.19961693722 
0.19755065914 0.19614548922 0.19530045208 0.19488494826 0.19474988585 0.19473982859 0.19470695545 0.19452638553 0.19411104043 
0.19342350608 0.19248249546 0.19136214416 0.19018319706 0.18909631225 0.18825926415 0.18781128811 0.18784864752 0.18840557849 
0.18944407508 0.19085445174 0.19246643292 0.19406836709 0.19543086467 0.19633098358 0.19657366257 0.19600790799 0.19453601289 
0.19211486249 0.18874929881 0.18447864356 0.17935869075 0.1734424826 0.16676360818 0.15932535856 0.15109784722 0.14202347571 
0.13202937861 0.12104416627 0.10901565623 0.095926383737 0.081804395941 0.066727974823 0.050824257373 0.034262899852 0.017246576566 
6.9805922109e-16 
_area 1 100 double
0 0.00051039048236 0.0020453280437 0.0046150303425 0.0082330624153 0.012911472248 0.0186542029 0.025448376443 0.033252976992 
0.041985448869 0.051508804033 0.061624017081 0.072073322399 0.082558485963 0.092774065426 0.10245009579 0.11139378582 0.11951815827 
0.12684808047 0.13349997081 0.13963921379 0.14542732161 0.15097619766 0.15632546985 0.16144927445 0.16628551194 0.17077124949 
0.17486764671 0.17856587948 0.18187653617 0.18481221692 0.18737353473 0.18954411058 0.19129415221 0.19258789318 0.19338884888 
0.1936578462 0.1933429597 0.19237052449 0.1906491356 0.18808530994 0.18460390773 0.18017018087 0.17481138221 0.16863394663 
0.16182943122 0.15466252731 0.14744067369 0.14047064064 0.13400274169 0.12817215872 0.12298750134 0.11838348483 0.11427384262 
0.11057286876 0.10720656725 0.10413074291 0.10133417979 0.098745131083 0.096253349213 0.09387466707 0.091723996509 0.089846714487 
0.088141110072 0.086494812431 0.08485595457 0.083246390813 0.081759298779 0.080538871295 0.079747285093 0.079528017173 0.079973703197 
0.081105715308 0.082865521962 0.085108140275 0.087602912863 0.090061471173 0.092181090064 0.093682939909 0.094342607307 0.094011807991 
0.092627277415 0.090204129684 0.086814992374 0.082561078056 0.077544924359 0.071854447153 0.06556333461 0.058745856593 0.051498785602 
0.043961519681 0.036326910637 0.028838031871 0.02176948946 0.015396118843 0.0099568774782 0.005625875606 0.002502530966 0.00062530197628 
4.3698522511e-17 
