# vtk DataFile Version 5.1
vtk output
ASCII
DATASET POLYDATA
POINTS 100 float
0.242319 0.0758635 -0.631868 0.24175 0.0756979 -0.631511 0.240084 0.0751004 -0.630444 
0.237396 0.0741214 -0.628665 0.233805 0.0728361 -0.626173 0.229457 0.0713337 -0.62297 
0.224518 0.069704 -0.619067 0.21915 0.0680237 -0.614483 0.213504 0.0663439 -0.609252 
0.207696 0.0646809 -0.603419 0.201805 0.0630113 -0.597042 0.195859 0.0612725 -0.590189 
0.189836 0.0593678 -0.582933 0.183665 0.057177 -0.575345 0.177239 0.0545694 -0.567486 
0.170421 0.0514194 -0.559406 0.163063 0.047622 -0.551129 0.155024 0.0431062 -0.542657 
0.146185 0.0378446 -0.533961 0.136462 0.0318597 -0.524988 0.125823 0.0252238 -0.515656 
0.114291 0.0180546 -0.505864 0.101945 0.0105061 -0.4955 0.0889178 0.00275615 -0.484444 
0.075388 -0.00500719 -0.472584 0.0615631 -0.0126 -0.459817 0.0476656 -0.0198552 -0.446061 
0.0339149 -0.0266321 -0.431258 0.0205106 -0.0328233 -0.415379 0.0076188 -0.0383565 -0.39842 
-0.0046385 -0.0431934 -0.380404 -0.0161879 -0.047325 -0.361378 -0.0270043 -0.0507647 -0.341404 
-0.0371046 -0.0535408 -0.320559 -0.0465372 -0.0556886 -0.298925 -0.0553679 -0.0572437 -0.276585 
-0.0636642 -0.0582383 -0.253623 -0.07148 -0.0586982 -0.23012 -0.0788427 -0.0586436 -0.206151 
-0.0857433 -0.058091 -0.18179 -0.0921329 -0.0570569 -0.157112 -0.0979233 -0.0555613 -0.132189 
-0.102995 -0.0536319 -0.1071 -0.107206 -0.0513062 -0.0819281 -0.110412 -0.0486323 -0.0567609 
-0.112479 -0.0456685 -0.0316918 -0.113301 -0.0424804 -0.00681703 -0.112815 -0.0391373 0.0177672 
-0.111009 -0.0357076 0.0419682 -0.107931 -0.032255 0.0657013 -0.103684 -0.0288341 0.088893 
-0.0984209 -0.0254889 0.111485 -0.0923319 -0.0222519 0.133434 -0.0856295 -0.0191451 0.154717 
-0.0785303 -0.0161825 0.175327 -0.0712372 -0.0133734 0.195272 -0.0639242 -0.010726 0.214572 
-0.0567244 -0.00825045 0.233257 -0.0497235 -0.00596087 0.251364 -0.0429591 -0.00387584 0.268928 
-0.0364248 -0.0020171 0.285987 -0.0300804 -0.000406845 0.302574 -0.0238646 0.000936257 0.318718 
-0.0177101 0.00200136 0.334445 -0.0115579 0.00278944 0.349776 -0.00537038 0.00331607 0.364731 
0.000859904 0.00361235 0.379328 0.00710601 0.00372357 0.393585 0.0133074 0.00370552 0.40752 
0.0193756 0.00361865 0.421151 0.0252045 0.00352099 0.434496 0.0306824 0.00346043 0.447569 
0.035706 0.00346772 0.460379 0.040193 0.0035512 0.472928 0.0440926 0.0036941 0.485207 
0.0473915 0.00385519 0.497197 0.0501161 0.00397281 0.508864 0.0523296 0.00397215 0.520164 
0.0541241 0.00377482 0.531039 0.0556102 0.00330983 0.541425 0.0569042 0.00252438 0.551254 
0.0581151 0.00139307 0.560457 0.0593326 -7.574e-05 0.568969 0.0606189 -0.00183749 0.576735 
0.0620033 -0.00381346 0.583717 0.0634815 -0.00589716 0.589889 0.06502 -0.00796459 0.595248 
0.066563 -0.00988716 0.59981 0.0680424 -0.0115457 0.60361 0.0693891 -0.0128441 0.6067 
0.0705431 -0.0137203 0.609148 0.0714629 -0.0141539 0.611032 0.0721304 -0.0141688 0.612436 
0.0725531 -0.0138306 0.613446 0.0727621 -0.0132391 0.614146 0.0728067 -0.0125164 0.614615 
0.0727461 -0.0117922 0.61492 0.07264 -0.0111888 0.615116 0.0725396 -0.0108054 0.615245 
0.072479 -0.010707 0.61533 
LINES 2 100
OFFSETS vtktypeint64
0 100 
CONNECTIVITY vtktypeint64
0 1 2 3 4 5 6 7 8 
9 10 11 12 13 14 15 16 17 
18 19 20 21 22 23 24 25 26 
27 28 29 30 31 32 33 34 35 
36 37 38 39 40 41 42 43 44 
45 46 47 48 49 50 51 52 53 
54 55 56 57 58 59 60 61 62 
63 64 65 66 67 68 69 70 71 
72 73 74 75 76 77 78 79 80 
81 82 83 84 85 86 87 88 89 
90 91 92 93 94 95 96 97 98 
99 
POINT_DATA 100
FIELD FieldData 3
_theta 1 100 double
0 0.031733259127 0.063466518254 0.095199777382 0.12693303651 0.15866629564 0.19039955476 0.22213281389 0.25386607302 
0.28559933214 0.31733259127 0.3490658504 0.38079910953 0.41253236865 0.44426562778 0.47599888691 0.50773214603 0.53946540516 
0.57119866429 0.60293192342 0.63466518254 0.66639844167 0.6981317008 0.72986495992 0.76159821905 0.79333147818 0.82506473731 
0.85679799643 0.88853125556 0.92026451469 0.95199777382 0.98373103294 1.0154642921 1.0471975512 1.0789308103 1.1106640695 
1.1423973286 1.1741305877 1.2058638468 1.237597106 1.2693303651 1.3010636242 1.3327968833 1.3645301425 1.3962634016 
1.4279966607 1.4597299198 1.491463179 1.5231964381 1.5549296972 1.5866629564 1.6183962155 1.6501294746 1.6818627337 
1.7135959929 1.745329252 1.7770625111 1.8087957702 1.8405290294 1.8722622885 1.9039955476 1.9357288068 1.9674620659 
1.999195325 2.0309285841 2.0626618433 2.0943951024 2.1261283615 2.1578616206 2.1895948798 2.2213281389 2.253061398 
2.2847946572 2.3165279163 2.3482611754 2.3799944345 2.4117276937 2.4434609528 2.4751942119 2.506927471 2.5386607302 
2.5703939893 2.6021272484 2.6338605076 2.6655937667 2.6973270258 2.7290602849 2.7607935441 2.7925268032 2.8242600623 
2.8559933214 2.8877265806 2.9194598397 2.9511930988 2.982926358 3.0146596171 3.0463928762 3.0781261353 3.1098593945 
3.1415926536 
_radius 1 100 double
1.5978149875e-15 0.01456986356 0.028986487264 0.043110733194 0.05683072333 0.070069314859 0.082785279222 0.094967863824 0.10662581799 
0.11777325788 0.12841547562 0.13853766668 0.14809862327 0.15703012975 0.16524160058 0.17262874455 0.17908476073 0.18451261442 
0.1888370949 0.1920154822 0.19404573076 0.19497119352 0.19488116155 0.19390691797 0.1922135496 0.18998830749 0.18742674595 
0.1847181335 0.18203171301 0.17950531303 0.17723759314 0.17528484345 0.17366275849 0.17235298957 0.17131359485 0.17049185412 
0.16983747178 0.16931414433 0.16890788829 0.16863126828 0.1685234709 0.16864684084 0.16908097417 0.16991564897 0.1712435361 
0.17315274097 0.17571836432 0.17899234701 0.18299217833 0.18769077736 0.19301066728 0.19882477152 0.20496428435 0.21123224629 
0.21742044776 0.22332711553 0.22877317103 0.23361539643 0.23775543957 0.24114414083 0.24378113215 0.24571003646 0.24700990403 
0.24778378344 0.24814554853 0.248206276 0.24806156188 0.24778114287 0.24740202381 0.24692597327 0.24632170544 0.24553131986 
0.24447973135 0.24308514678 0.24126845773 0.2389598912 0.23610223839 0.232651037 0.22857279486 0.22384252479 0.21844158985 
0.21235636012 0.20557769224 0.19810092291 0.18992598257 0.18105736992 0.17150399907 0.16127919825 0.15040122585 0.13889446017 
0.12679098401 0.114131897 0.10096763248 0.087356888325 0.073364301048 0.059057430588 0.044503814092 0.029768777592 0.014914439322 
1.0260402548e-15 
_area 1 100 double
0 0.0003975606931 0.0015932338065 0.0035930684087 0.0063992059713 0.010002766915 0.014379596833 0.019489250855 0.025275393064 
0.031665262781 0.038566908115 0.045864589787 0.053414121977 0.061040393295 0.068538916948 0.075682410849 0.082232604056 0.087956885521 
0.092648748389 0.096149882859 0.098370466256 0.099303451297 0.099029064396 0.097707358897 0.095559183014 0.092838689686 0.089802626488 
0.086682237287 0.083662542284 0.080871845716 0.078382451918 0.076221756564 0.074390743737 0.072884964725 0.071712319844 0.07090273472 
0.070506930746 0.070584353823 0.071180699721 0.072291584994 0.073834471399 0.075689700932 0.07777088546 0.079987092848 0.082343853749 
0.084921735877 0.087858244795 0.091321502349 0.095473328087 0.10042624393 0.10620583422 0.11273346952 0.11983536976 0.12726849542 
0.13474927495 0.14197910252 0.14866756472 0.15455478273 0.15943184975 0.16315694951 0.16566493654 0.1669690981 0.16715502784 
0.16636794504 0.16479617549 0.16265416077 0.16016740899 0.15756102431 0.1550601864 0.15292637032 0.15149700231 0.15083950431 
0.15042026565 0.14971196884 0.14840403362 0.14631790207 0.14335462849 0.13947034075 0.13466347133 0.1289681992 0.12245118038 
0.11520866532 0.10736146674 0.099046816468 0.090408283912 0.081586392173 0.072712444385 0.063906501096 0.055278775427 0.046933008474 
0.038970259242 0.031491523866 0.024598074058 0.018389437241 0.012959869821 0.0083944874454 0.0047659645161 0.0021322314231 0.00053516355962 
2.3752885201e-17 
