# vtk DataFile Version 5.1
vtk output
ASCII
DATASET POLYDATA
POINTS 100 float
0.122755 0.0810994 -0.672601 0.122764 0.0809423 -0.672794 0.122793 0.0802785 -0.673304 
0.122842 0.0791457 -0.674025 0.122911 0.0776017 -0.674791 0.122999 0.0757159 -0.67539 
0.123099 0.0735585 -0.675586 0.123199 0.0711901 -0.675132 0.12328 0.0686521 -0.673801 
0.123313 0.0659602 -0.671395 0.123257 0.0631004 -0.667762 0.123059 0.06003 -0.662809 
0.122654 0.0566831 -0.656499 0.121967 0.0529783 -0.648852 0.120913 0.0488306 -0.639941 
0.119403 0.0441637 -0.629872 0.117347 0.0389219 -0.618781 0.114662 0.0330811 -0.606811 
0.111273 0.0266555 -0.594102 0.107123 0.0197016 -0.58078 0.102175 0.0123165 -0.566945 
0.0964166 0.00463318 -0.55267 0.0898606 -0.00318871 -0.538 0.0825455 -0.0109745 -0.522948 
0.0745327 -0.0185473 -0.507508 0.0659022 -0.0257403 -0.491655 0.0567465 -0.0324083 -0.475355 
0.0471649 -0.0384356 -0.45857 0.0372558 -0.0437414 -0.441264 0.0271119 -0.0482808 -0.423407 
0.0168152 -0.0520425 -0.404975 0.00643506 -0.0550439 -0.385953 -0.00397156 -0.0573238 -0.366333 
-0.0143577 -0.0589343 -0.34611 -0.0246814 -0.0599334 -0.325285 -0.0349 -0.0603781 -0.30386 
-0.0449627 -0.0603201 -0.28184 -0.054805 -0.0598036 -0.259233 -0.0643435 -0.058865 -0.236051 
-0.0734736 -0.0575352 -0.212313 -0.0820704 -0.055843 -0.18805 -0.0899925 -0.0538185 -0.163305 
-0.0970895 -0.051497 -0.138136 -0.103212 -0.0489209 -0.112615 -0.108222 -0.0461408 -0.0868297 
-0.112007 -0.0432141 -0.0608791 -0.114489 -0.0402022 -0.0348701 -0.115634 -0.0371665 -0.00891242 
-0.115456 -0.034163 0.0168858 -0.114019 -0.0312377 0.0424233 -0.111432 -0.0284225 0.06761 
-0.107842 -0.0257326 0.0923693 -0.10342 -0.0231664 0.11664 -0.0983474 -0.0207067 0.140374 
-0.0928024 -0.0183248 0.163538 -0.0869428 -0.0159859 0.186106 -0.080896 -0.0136552 0.208061 
-0.0747498 -0.0113041 0.229387 -0.0685494 -0.00891598 0.25007 -0.0622988 -0.00648997 0.270096 
-0.0559675 -0.0040426 0.289451 -0.0495006 -0.00160724 0.30812 -0.0428319 0.000768944 0.326096 
-0.0358984 0.00302999 0.343375 -0.0286529 0.00511739 0.359969 -0.0210755 0.00697685 0.375898 
-0.0131802 0.00856456 0.391202 -0.00501751 0.00985226 0.405932 0.00332808 0.0108303 0.420153 
0.0117452 0.0115086 0.433939 0.0201061 0.0119146 0.447364 0.02828 0.0120901 0.4605 
0.0361458 0.0120854 0.473407 0.0436046 0.0119537 0.486127 0.0505891 0.0117444 0.498684 
0.0570688 0.011498 0.511073 0.063051 0.0112424 0.523268 0.0685764 0.0109907 0.535223 
0.0737118 0.0107419 0.546872 0.0785383 0.010483 0.558144 0.0831393 0.0101927 0.568966 
0.0875881 0.00984645 0.57927 0.0919372 0.00942167 0.589004 0.096211 0.00890202 0.598133 
0.100403 0.00828097 0.606644 0.104476 0.00756357 0.614542 0.108371 0.00676642 0.621852 
0.11201 0.00591586 0.62861 0.115314 0.00504487 0.634859 0.118212 0.00418891 0.640637 
0.120649 0.00338168 0.645976 0.1226 0.00265121 0.650891 0.124069 0.00201701 0.655382 
0.125092 0.00148852 0.659429 0.125733 0.00106529 0.662995 0.126075 0.000738518 0.666033 
0.126209 0.000493867 0.668489 0.126224 0.000314952 0.670309 0.126193 0.00018694 0.671449 
0.126163 9.96496e-05 0.671877 
LINES 2 100
OFFSETS vtktypeint64
0 100 
CONNECTIVITY vtktypeint64
0 1 2 3 4 5 6 7 8 
9 10 11 12 13 14 15 16 17 
18 19 20 21 22 23 24 25 26 
27 28 29 30 31 32 33 34 35 
36 37 38 39 40 41 42 43 44 
45 46 47 48 49 50 51 52 53 
54 55 56 57 58 59 60 61 62 
63 64 65 66 67 68 69 70 71 
72 73 74 75 76 77 78 79 80 
81 82 83 84 85 86 87 88 89 
90 91 92 93 94 95 96 97 98 
99 
POINT_DATA 100
FIELD FieldData 3
_theta 1 100 double
0 0.031733259127 0.063466518254 0.095199777382 0.12693303651 0.15866629564 0.19039955476 0.22213281389 0.25386607302 
0.28559933214 0.31733259127 0.3490658504 0.38079910953 0.41253236865 0.44426562778 0.47599888691 0.50773214603 0.53946540516 
0.57119866429 0.60293192342 0.63466518254 0.66639844167 0.6981317008 0.72986495992 0.76159821905 0.79333147818 0.82506473731 
0.85679799643 0.88853125556 0.92026451469 0.95199777382 0.98373103294 1.0154642921 1.0471975512 1.0789308103 1.1106640695 
1.1423973286 1.1741305877 1.2058638468 1.237597106 1.2693303651 1.3010636242 1.3327968833 1.3645301425 1.3962634016 
1.4279966607 1.4597299198 1.491463179 1.5231964381 1.5549296972 1.5866629564 1.6183962155 1.6501294746 1.6818627337 
1.7135959929 1.745329252 1.7770625111 1.8087957702 1.8405290294 1.8722622885 1.9039955476 1.9357288068 1.9674620659 
1.999195325 2.0309285841 2.0626618433 2.0943951024 2.1261283615 2.1578616206 2.1895948798 2.2213281389 2.253061398 
2.2847946572 2.3165279163 2.3482611754 2.3799944345 2.4117276937 2.4434609528 2.4751942119 2.506927471 2.5386607302 
2.5703939893 2.6021272484 2.6338605076 2.6655937667 2.6973270258 2.7290602849 2.7607935441 2.7925268032 2.8242600623 
2.8559933214 2.8877265806 2.9194598397 2.9511930988 2.982926358 3.0146596171 3.0463928762 3.0781261353 3.1098593945 
3.1415926536 
_radius 1 100 double
7.3395000201e-16 0.015165390014 0.030345609369 0.045527632532 0.060664670772 0.075669034016 0.090413323824 0.1047391903 0.11847131675 
0.13143352598 0.14346406392 0.15442799343 0.16422579418 0.17279828101 0.18012855756 0.18624184874 0.19120381137 0.19511750901 
0.19811887208 0.20037030346 0.20205217993 0.20335228983 0.2044536401 0.20552147233 0.20669067368 0.20805497541 0.20965931891 
0.21149651946 0.21350895545 0.21559556575 0.21762394421 0.21944666757 0.22092016172 0.22192363903 0.22237533753 0.22224375543 
0.22155268157 0.22038001985 0.218851158 0.21712795016 0.21539468732 0.21384286017 0.21265668748 0.21200085531 0.21201080276 
0.21278493784 0.21437813472 0.2167967905 0.21999682165 0.22388629269 0.22833350317 0.23317976844 0.23825472654 0.24339148755 
0.24843937751 0.2532729873 0.25779720174 0.26194854926 0.26569351179 0.26902445634 0.27195374553 0.27450651315 0.2767126577 
0.27859881831 0.28018133921 0.28146132173 0.2824226516 0.28303334223 0.28324978321 0.28302279091 0.28230399179 0.28105115025 
0.27923148856 0.27682262428 0.27381127873 0.27019030221 0.26595480939 0.26109832924 0.25560984056 0.24947237824 0.24266357536 
0.23515810896 0.22693162214 0.21796538564 0.20825080471 0.19779290667 0.18661215557 0.17474428617 0.16223826184 0.14915285122 
0.13555258979 0.12150394315 0.10707227759 0.092319861568 0.077304768759 0.062080399965 0.046695404024 0.03119393526 0.015616295188 
5.6015552869e-16 
_area 1 100 double
0 0.00062865646511 0.002514790636 0.005656607841 0.010042352403 0.015635261538 0.022353662463 0.030052748751 0.038515717288 
0.047458655777 0.056548458257 0.065429847477 0.07375715724 0.081227040179 0.08760828898 0.092764689435 0.096666989212 0.099390562532 
0.10109528762 0.10198556895 0.10226152644 0.10209447055 0.10164586931 0.10110168634 0.10068492181 0.10063241084 0.10114216021 
0.1023270632 0.10416830129 0.10642507673 0.10875965666 0.1109137629 0.11271243155 0.11404692218 0.11486868734 0.11519468141 
0.11512185286 0.1148348549 0.11456588895 0.11448842877 0.11466560675 0.11511110092 0.11584832207 0.11693977922 0.11849202197 
0.1206335613 0.12348145467 0.12711141645 0.13153952547 0.13672196851 0.14257201311 0.14898038712 0.15582506099 0.16296859201 
0.17025075524 0.17748659907 0.18447629396 0.19102536027 0.19696796837 0.20218606638 0.20662031093 0.21027086358 0.21318654501 
0.21544195182 0.21710637728 0.21821506776 0.21875629227 0.21868034276 0.21792281936 0.21642678118 0.21415224129 0.21107204408 
0.20716259135 0.20239933556 0.19675957504 0.19022858094 0.18280644172 0.17451655197 0.16541591733 0.15560364477 0.14522204002 
0.13444687156 0.12346811018 0.11246693437 0.10159659792 0.090972872639 0.080675099398 0.070754275073 0.061243432624 0.05216822597 
0.043558021838 0.035456642252 0.027929810648 0.021066870923 0.014976487363 0.0097776426937 0.0055880615984 0.0025124464956 0.00063252616653 
4.7539313774e-20 
