# vtk DataFile Version 5.1
vtk output
ASCII
DATASET POLYDATA
POINTS 100 float
0.124343 0.052131 -0.611893 0.124481 0.0519963 -0.612315 0.124846 0.0517854 -0.613492 
0.125385 0.0514937 -0.61526 0.126022 0.0511135 -0.617368 0.126662 0.050634 -0.619495 
0.127203 0.0500407 -0.621292 0.127549 0.049315 -0.622404 0.127619 0.048434 -0.622514 
0.127351 0.0473699 -0.621363 0.126705 0.0460903 -0.618774 0.125661 0.0445583 -0.614664 
0.124217 0.0427336 -0.609045 0.122375 0.0405736 -0.602013 0.120133 0.0380358 -0.593734 
0.117479 0.0350801 -0.584416 0.114382 0.0316716 -0.574288 0.110788 0.0277845 -0.563569 
0.106625 0.0234051 -0.552449 0.101806 0.0185351 -0.541066 0.096241 0.0131946 -0.5295 
0.0898517 0.00742409 -0.517768 0.0825843 0.00128542 -0.50583 0.0744232 -0.00513839 -0.493602 
0.0654017 -0.0117447 -0.480968 0.0556065 -0.0184143 -0.467805 0.0451772 -0.0250158 -0.453995 
0.0342985 -0.0314108 -0.439445 0.0231865 -0.0374606 -0.424093 0.0120712 -0.0430325 -0.40792 
0.00117506 -0.0480066 -0.390946 -0.00930666 -0.0522818 -0.373222 -0.0192243 -0.055781 -0.354827 
-0.0284862 -0.0584547 -0.335849 -0.0370647 -0.0602834 -0.316376 -0.0449939 -0.0612775 -0.296484 
-0.05236 -0.061476 -0.276228 -0.0592842 -0.0609435 -0.255636 -0.065902 -0.0597651 -0.234711 
-0.0723388 -0.0580408 -0.213435 -0.0786883 -0.0558796 -0.191776 -0.0849926 -0.0533925 -0.169698 
-0.0912303 -0.0506864 -0.147173 -0.0973121 -0.047859 -0.124189 -0.103084 -0.0449942 -0.10076 
-0.108342 -0.0421593 -0.0769315 -0.112849 -0.0394032 -0.0527766 -0.116362 -0.0367564 -0.0283974 
-0.118653 -0.0342321 -0.0039162 -0.119541 -0.0318286 0.0205329 -0.118905 -0.0295325 0.0448143 
-0.116702 -0.0273218 0.0688012 -0.112969 -0.0251707 0.0923844 -0.107824 -0.0230525 0.115478 
-0.101447 -0.020944 0.138024 -0.0940697 -0.0188277 0.15999 -0.0859461 -0.0166942 0.18137 
-0.0773329 -0.0145442 0.202175 -0.0684653 -0.0123885 0.222428 -0.0595387 -0.0102482 0.242159 
-0.0506961 -0.00815392 0.261395 -0.0420233 -0.00614402 0.280158 -0.0335507 -0.00426268 0.298459 
-0.0252615 -0.00255733 0.316301 -0.017106 -0.00107583 0.333679 -0.00901689 0.000136551 0.350582 
-0.000926708 0.00104003 0.367 0.00721797 0.00160318 0.382926 0.0154454 0.00180533 0.398359 
0.0237532 0.00163859 0.41331 0.0321073 0.00110908 0.427797 0.0404477 0.000237505 0.441848 
0.0486968 -0.000941228 0.455497 0.0567706 -0.00237924 0.468774 0.0645911 -0.0040178 0.481709 
0.0720961 -0.0057902 0.494318 0.0792468 -0.00762527 0.506605 0.0860315 -0.00945118 0.518557 
0.092464 -0.0111995 0.530141 0.0985788 -0.0128089 0.54131 0.104423 -0.0142285 0.552005 
0.110044 -0.0154202 0.562157 0.115482 -0.0163609 0.571698 0.120762 -0.0170421 0.580564 
0.125881 -0.0174701 0.5887 0.130818 -0.0176641 0.596069 0.135523 -0.0176538 0.602651 
0.139935 -0.0174761 0.608445 0.143983 -0.0171721 0.613473 0.147601 -0.0167833 0.617771 
0.150735 -0.0163489 0.621389 0.153354 -0.0159032 0.624386 0.155457 -0.0154739 0.626828 
0.157067 -0.0150811 0.62878 0.158238 -0.0147379 0.630304 0.159042 -0.0144506 0.631455 
0.159559 -0.0142206 0.632282 0.159868 -0.014046 0.632822 0.160036 -0.0139233 0.633104 
0.160107 -0.013849 0.633145 
LINES 2 100
OFFSETS vtktypeint64
0 100 
CONNECTIVITY vtktypeint64
0 1 2 3 4 5 6 7 8 
9 10 11 12 13 14 15 16 17 
18 19 20 21 22 23 24 25 26 
27 28 29 30 31 32 33 34 35 
36 37 38 39 40 41 42 43 44 
45 46 47 48 49 50 51 52 53 
54 55 56 57 58 59 60 61 62 
63 64 65 66 67 68 69 70 71 
72 73 74 75 76 77 78 79 80 
81 82 83 84 85 86 87 88 89 
90 91 92 93 94 95 96 97 98 
99 
POINT_DATA 100
FIELD FieldData 3
_theta 1 100 double
0 0.031733259127 0.063466518254 0.095199777382 0.12693303651 0.15866629564 0.19039955476 0.22213281389 0.25386607302 
0.28559933214 0.31733259127 0.3490658504 0.38079910953 0.41253236865 0.44426562778 0.47599888691 0.50773214603 0.53946540516 
0.57119866429 0.60293192342 0.63466518254 0.66639844167 0.6981317008 0.72986495992 0.76159821905 0.79333147818 0.82506473731 
0.85679799643 0.88853125556 0.92026451469 0.95199777382 0.98373103294 1.0154642921 1.0471975512 1.0789308103 1.1106640695 
1.1423973286 1.1741305877 1.2058638468 1.237597106 1.2693303651 1.3010636242 1.3327968833 1.3645301425 1.3962634016 
1.4279966607 1.4597299198 1.491463179 1.5231964381 1.5549296972 1.5866629564 1.6183962155 1.6501294746 1.6818627337 
1.7135959929 1.745329252 1.7770625111 1.8087957702 1.8405290294 1.8722622885 1.9039955476 1.9357288068 1.9674620659 
1.999195325 2.0309285841 2.0626618433 2.0943951024 2.1261283615 2.1578616206 2.1895948798 2.2213281389 2.253061398 
2.2847946572 2.3165279163 2.3482611754 2.3799944345 2.4117276937 2.4434609528 2.4751942119 2.506927471 2.5386607302 
2.5703939893 2.6021272484 2.6338605076 2.6655937667 2.6973270258 2.7290602849 2.7607935441 2.7925268032 2.8242600623 
2.8559933214 2.8877265806 2.9194598397 2.9511930988 2.982926358 3.0146596171 3.0463928762 3.0781261353 3.1098593945 
3.1415926536 
_radius 1 100 double
1.256476392e-15 0.015749473862 0.031376449391 0.046769964728 0.061832000321 0.076480417008 0.090648819319 0.10428374306 0.11734019009 
0.12977682874 0.14155208936 0.15262197508 0.16293984786 0.17245794313 0.181130072 0.18891493335 0.19577961365 0.20170306895 
0.20667952822 0.21072174957 0.2138638948 0.21616353543 0.2177020872 0.21858292309 0.21892663978 0.21886348729 0.21852374362 
0.21802758928 0.21747641727 0.2169471734 0.21649031432 0.21613080638 0.21587088215 0.21569331942 0.21556466232 0.21543862344 
0.21526041064 0.21497264358 0.21452290491 0.21387209516 0.21300204818 0.2119207505 0.21066420475 0.20929509548 0.20789908917 
0.20657946621 0.20545048427 0.20463001796 0.20423223733 0.20436070584 0.20510148404 0.2065155619 0.20863075072 0.21143448549 
0.21486972252 0.21883568794 0.22319401904 0.22777962289 0.2324147792 0.23692459448 0.24115176132 0.24496872571 0.24828584669 
0.25105482749 0.25326739529 0.25494975505 0.25615369894 0.2569454549 0.25739346282 0.25755632502 0.25747220921 0.25715096239 
0.25657003492 0.25567490745 0.25438402791 0.25259743664 0.25020756625 0.24711041684 0.2432155045 0.23845350525 0.23278110098 
0.22618297549 0.2186711564 0.21028201718 0.20107132529 0.1911077977 0.18046573452 0.16921746526 0.15742654183 0.14514274196 
0.13239985021 0.11921677411 0.10560191654 0.091560068729 0.077100587791 0.062245352694 0.047034971031 0.031531955171 0.015820099078 
1.2855766747e-15 
_area 1 100 double
0 0.00064185699003 0.0025547757904 0.0057010738756 0.010018607266 0.015421152889 0.021798379614 0.029015646116 0.03691420409 
0.045312551455 0.054009720985 0.062791075793 0.071436547228 0.079730357084 0.087470615129 0.094477218872 0.1005972878 0.10570862867 
0.10972282937 0.11258978981 0.1143044218 0.11491422759 0.11452454288 0.11329758368 0.11144267452 0.10919780303 0.10680577637 
0.10449043352 0.10243898494 0.10079715165 0.099672008173 0.099092798766 0.099051991297 0.099519323948 0.1004319464 0.10170430869 
0.10322760358 0.10488008617 0.1065377478 0.10808727445 0.10944044453 0.11054604122 0.11139664568 0.11202893169 0.1125152922 
0.11294418334 0.11339504162 0.11393215407 0.11463153033 0.11560765403 0.11700180288 0.11894326319 0.12152230607 0.12478253749 
0.12871611183 0.13325639724 0.1382739266 0.14358215674 0.14895562314 0.15415814556 0.1589737665 0.16323124951 0.16681678721 
0.16967554399 0.17180495189 0.17324149021 0.1740434364 0.17427482294 0.17399488737 0.17325233626 0.17208021923 0.17048841593 
0.16845564305 0.16592762772 0.16282758929 0.15907754786 0.15462030632 0.14943095523 0.14351431462 0.13689409924 0.12960378508 
0.12168603606 0.11320069362 0.10423596377 0.094915938943 0.085399228996 0.07586663753 0.066499500791 0.057454287316 0.048843160229 
0.040731593015 0.033156476435 0.026153438802 0.019777023818 0.014107192331 0.0092452174806 0.0053034876529 0.0023919734103 0.00060345290877 
5.2041704279e-18 
