# vtk DataFile Version 5.1
vtk output
ASCII
DATASET POLYDATA
POINTS 100 float
0.180223 0.0680033 -0.649772 0.180245 0.0681095 -0.650029 0.180307 0.0682256 -0.650731 
0.18039 0.0683112 -0.651718 0.180463 0.0683041 -0.652748 0.180479 0.0681247 -0.653521 
0.180382 0.0676819 -0.65372 0.180102 0.0668798 -0.653044 0.179558 0.0656245 -0.651243 
0.178658 0.0638297 -0.648148 0.177302 0.0614227 -0.643684 0.175383 0.0583482 -0.637875 
0.17279 0.0545715 -0.630839 0.169417 0.0500802 -0.622765 0.165161 0.0448839 -0.613886 
0.159935 0.0390143 -0.604448 0.153672 0.0325235 -0.594676 0.146332 0.0254818 -0.584743 
0.137907 0.017976 -0.574752 0.128426 0.0101066 -0.564723 0.117958 0.00198591 -0.554593 
0.106612 -0.0062647 -0.544226 0.0945313 -0.0145171 -0.533433 0.0818899 -0.0226389 -0.522002 
0.0688811 -0.030497 -0.509718 0.0557066 -0.0379602 -0.496398 0.0425636 -0.0449036 -0.481909 
0.0296318 -0.051212 -0.466183 0.0170613 -0.0567843 -0.449222 0.00496363 -0.061537 -0.431093 
-0.00659408 -0.0654079 -0.411917 -0.0175902 -0.0683583 -0.391847 -0.0280448 -0.0703746 -0.371048 
-0.0380116 -0.0714683 -0.349674 -0.047565 -0.0716748 -0.327847 -0.0567859 -0.0710509 -0.305651 
-0.0657449 -0.0696711 -0.283115 -0.0744874 -0.0676235 -0.26023 -0.0830206 -0.0650046 -0.236946 
-0.0913052 -0.0619148 -0.213198 -0.099252 -0.0584544 -0.188919 -0.106726 -0.05472 -0.164063 
-0.113553 -0.050802 -0.138621 -0.119537 -0.0467835 -0.112627 -0.124476 -0.04274 -0.0861722 
-0.128182 -0.0387394 -0.0593932 -0.130503 -0.0348434 -0.0324667 -0.131333 -0.0311076 -0.00559253 
-0.130635 -0.0275828 0.0210248 -0.128436 -0.0243144 0.0471954 -0.124834 -0.0213418 0.0727614 
-0.119986 -0.0186969 0.097609 -0.114099 -0.016402 0.121676 -0.107406 -0.014468 0.144949 
-0.100149 -0.0128916 0.167459 -0.0925582 -0.0116548 0.189271 -0.0848305 -0.0107244 0.210461 
-0.0771188 -0.0100529 0.231109 -0.0695217 -0.00958179 0.251279 -0.0620824 -0.0092456 0.27101 
-0.0547937 -0.00897723 0.29031 -0.047609 -0.00871418 0.309159 -0.0404573 -0.00840464 0.327515 
-0.0332611 -0.00801298 0.345321 -0.0259533 -0.00752378 0.362527 -0.0184924 -0.00694392 0.379097 
-0.0108731 -0.00630235 0.395022 -0.0031316 -0.0056473 0.410332 0.00465597 -0.00504131 0.425091 
0.0123801 -0.00455438 0.439397 0.0199098 -0.00425602 0.453369 0.0271081 -0.00420716 0.467132 
0.0338479 -0.00445269 0.4808 0.0400268 -0.00501571 0.494457 0.0455797 -0.00589409 0.508144 
0.0504856 -0.0070598 0.521844 0.0547692 -0.00846117 0.535484 0.0584964 -0.0100279 0.548936 
0.0617649 -0.011678 0.562027 0.0646909 -0.0133265 0.574559 0.0673928 -0.0148938 0.586327 
0.0699769 -0.0163138 0.597145 0.0725228 -0.0175403 0.606861 0.0750749 -0.0185507 0.615379 
0.0776378 -0.0193469 0.622665 0.0801778 -0.0199538 0.628751 0.0826297 -0.0204142 0.633731 
0.084908 -0.0207822 0.637745 0.0869213 -0.0211153 0.640965 0.0885871 -0.0214666 0.643572 
0.0898449 -0.0218773 0.645739 0.0906674 -0.0223714 0.647612 0.0910658 -0.0229529 0.649297 
0.0910903 -0.0236054 0.650854 0.0908246 -0.0242949 0.652299 0.0903762 -0.0249749 0.653609 
0.0898625 -0.0255925 0.654734 0.0893963 -0.0260966 0.655614 0.0890701 -0.0264443 0.656193 
0.0889451 -0.0266074 0.656428 
LINES 2 100
OFFSETS vtktypeint64
0 100 
CONNECTIVITY vtktypeint64
0 1 2 3 4 5 6 7 8 
9 10 11 12 13 14 15 16 17 
18 19 20 21 22 23 24 25 26 
27 28 29 30 31 32 33 34 35 
36 37 38 39 40 41 42 43 44 
45 46 47 48 49 50 51 52 53 
54 55 56 57 58 59 60 61 62 
63 64 65 66 67 68 69 70 71 
72 73 74 75 76 77 78 79 80 
81 82 83 84 85 86 87 88 89 
90 91 92 93 94 95 96 97 98 
99 
POINT_DATA 100
FIELD FieldData 3
_theta 1 100 double
0 0.031733259127 0.063466518254 0.095199777382 0.12693303651 0.15866629564 0.19039955476 0.22213281389 0.25386607302 
0.28559933214 0.31733259127 0.3490658504 0.38079910953 0.41253236865 0.44426562778 0.47599888691 0.50773214603 0.53946540516 
0.57119866429 0.60293192342 0.63466518254 0.66639844167 0.6981317008 0.72986495992 0.76159821905 0.79333147818 0.82506473731 
0.85679799643 0.88853125556 0.92026451469 0.95199777382 0.98373103294 1.0154642921 1.0471975512 1.0789308103 1.1106640695 
1.1423973286 1.1741305877 1.2058638468 1.237597106 1.2693303651 1.3010636242 1.3327968833 1.3645301425 1.3962634016 
1.4279966607 1.4597299198 1.491463179 1.5231964381 1.5549296972 1.5866629564 1.6183962155 1.6501294746 1.6818627337 
1.7135959929 1.745329252 1.7770625111 1.8087957702 1.8405290294 1.8722622885 1.9039955476 1.9357288068 1.9674620659 
1.999195325 2.0309285841 2.0626618433 2.0943951024 2.1261283615 2.1578616206 2.1895948798 2.2213281389 2.253061398 
2.2847946572 2.3165279163 2.3482611754 2.3799944345 2.4117276937 2.4434609528 2.4751942119 2.506927471 2.5386607302 
2.5703939893 2.6021272484 2.6338605076 2.6655937667 2.6973270258 2.7290602849 2.7607935441 2.7925268032 2.8242600623 
2.8559933214 2.8877265806 2.9194598397 2.9511930988 2.982926358 3.0146596171 3.0463928762 3.0781261353 3.1098593945 
3.1415926536 
_radius 1 100 double
1.0103182026e-15 0.01709124766 0.033984443097 0.050490214043 0.066442376088 0.081706529945 0.096185507541 0.10982108667 0.1225914841 
0.13450430921 0.1455851538 0.15586288767 0.16535383051 0.17404788339 0.1819000015 0.18882979678 0.19473056313 0.19948693833 
0.20299834457 0.20520392742 0.20610433234 0.20577630177 0.20437741644 0.20213993575 0.19935428025 0.1963440246 0.19343522934 
0.19092358934 0.18904337379 0.18794247813 0.18766770757 0.18816312911 0.18928198399 0.19081006744 0.19249664873 0.19408834077 
0.19536157443 0.19614995705 0.19636349765 0.19599758073 0.19513098736 0.19391429096 0.19255205439 0.19128314457 0.19036202763 
0.19004070005 0.1905484953 0.19206772012 0.19470691901 0.19847816849 0.20328681341 0.20893928453 0.21516825251 0.22166852849 
0.22813511565 0.23429638002 0.23993813025 0.24491686519 0.24916228177 0.25267052558 0.25549066328 0.25770734909 0.25942257921 
0.26073888689 0.26174558779 0.2625090072 0.26306713364 0.2634287997 0.26357715841 0.26347680274 0.26308335183 0.26235378337 
0.26125539635 0.25977125984 0.25790051956 0.25565301797 0.25303914247 0.2500572507 0.24668194013 0.24285644594 0.23849147965 
0.23347116372 0.22766494604 0.22094306734 0.21319263406 0.20433160738 0.19431880354 0.18315897781 0.17090294996 0.15764334422 
0.14350680357 0.12864357538 0.11321533076 0.09738215434 0.081289875312 0.06505918802 0.048778117775 0.032499152175 0.01624174273 
2.7736851136e-16 
_area 1 100 double
0 0.00068498936258 0.0027138066763 0.0060102944885 0.010453264829 0.015881052945 0.022095807764 0.028871468636 0.035968913427 
0.043157584378 0.05023897665 0.05706563059 0.063549035003 0.069650748612 0.075354630364 0.080626321371 0.085376863766 0.089451379628 
0.092653040588 0.094793431947 0.095748432087 0.095500311285 0.094155816472 0.091938541646 0.089158557195 0.086165021657 0.083295866928 
0.080855833545 0.079061560928 0.078013916462 0.077757621407 0.078255769032 0.079394082746 0.080999104235 0.08286749104 0.084805929188 
0.0866744017 0.088414840993 0.090038559956 0.091562740256 0.092948483361 0.094110682748 0.094986722437 0.095603507424 0.096100811217 
0.096932736097 0.098314482994 0.10039311047 0.10347821181 0.10783568699 0.1135717338 0.12055171611 0.12843220966 0.13675955121 
0.14505893287 0.15289999882 0.15994314415 0.16596352212 0.17085000778 0.17458488085 0.17721772617 0.17884629201 0.17960812862 
0.17967698483 0.1792530334 0.17853812 0.17769698449 0.17681836583 0.17589556393 0.174838104 0.17350917135 0.17177092261 
0.16952044993 0.16670770646 0.16333488496 0.15944157061 0.15508204184 0.15030165671 0.14511837805 0.13951327456 0.13343180419 
0.12679640235 0.11952911054 0.11158004152 0.10295441184 0.093729501574 0.084054764738 0.074133575031 0.064192400163 0.054449972028 
0.045099926407 0.036310354405 0.02823039427 0.0209929038 0.014711555958 0.0094767293229 0.0053539570808 0.0023859666241 0.00059735005715 
2.2171802949e-17 
