# vtk DataFile Version 5.1
vtk output
ASCII
DATASET POLYDATA
POINTS 100 float
0.0970605 0.0582869 -0.727762 0.0970556 0.0580793 -0.727735 0.0970263 0.0576381 -0.727607 
0.0969473 0.0569655 -0.727291 0.0967812 0.0560636 -0.72665 0.0964832 0.0549336 -0.725514 
0.0960067 0.0535734 -0.723702 0.0953087 0.0519766 -0.721041 0.094354 0.0501309 -0.717384 
0.0931179 0.0480175 -0.712626 0.091586 0.0456119 -0.706717 0.0897524 0.0428853 -0.699662 
0.0876155 0.0398068 -0.691518 0.0851731 0.0363473 -0.682389 0.0824172 0.0324828 -0.672404 
0.0793288 0.0281984 -0.661707 0.0758761 0.0234922 -0.650432 0.0720138 0.0183777 -0.63869 
0.0676865 0.0128861 -0.626555 0.062834 0.00706638 -0.614054 0.0573998 0.000984631 -0.601167 
0.0513401 -0.00527803 -0.587828 0.0446341 -0.0116288 -0.57394 0.037291 -0.017967 -0.55938 
0.0293566 -0.024189 -0.544025 0.0209145 -0.030192 -0.527761 0.0120839 -0.0358785 -0.510501 
0.00301293 -0.0411596 -0.492193 -0.00613222 -0.0459577 -0.472832 -0.0151801 -0.0502081 -0.452455 
-0.0239683 -0.0538597 -0.431138 -0.0323573 -0.0568752 -0.408991 -0.0402419 -0.0592307 -0.386139 
-0.0475583 -0.0609151 -0.362715 -0.0542868 -0.061929 -0.33884 -0.0604491 -0.0622846 -0.314615 
-0.0661002 -0.0620049 -0.290115 -0.0713161 -0.0611234 -0.265379 -0.0761793 -0.0596844 -0.240415 
-0.0807629 -0.0577421 -0.215206 -0.0851158 -0.0553609 -0.189714 -0.089252 -0.0526138 -0.163899 
-0.0931437 -0.0495813 -0.137721 -0.0967202 -0.0463486 -0.11116 -0.0998729 -0.0430032 -0.0842212 
-0.102466 -0.0396311 -0.0569396 -0.10435 -0.0363127 -0.0293851 -0.105379 -0.0331197 -0.00165874 
-0.105431 -0.0301108 0.0261123 -0.104416 -0.0273299 0.0537833 -0.102296 -0.0248035 0.0812019 
-0.0990841 -0.0225411 0.108219 -0.0948503 -0.0205358 0.134697 -0.0897119 -0.0187667 0.160522 
-0.0838239 -0.0172023 0.185603 -0.0773638 -0.0158046 0.209882 -0.0705139 -0.0145338 0.233328 
-0.0634449 -0.0133527 0.255937 -0.0563006 -0.0122305 0.277728 -0.0491871 -0.0111462 0.298736 
-0.0421673 -0.0100901 0.319007 -0.035261 -0.00906419 0.338593 -0.0284505 -0.00808171 0.357546 
-0.0216908 -0.00716494 0.375917 -0.0149236 -0.00634248 0.393756 -0.00809119 -0.00564594 0.411106 
-0.00115107 -0.00510655 0.42801 0.0059131 -0.00475221 0.444507 0.0130842 -0.00460496 0.460637 
0.0203095 -0.00467953 0.476437 0.0275035 -0.00498275 0.491944 0.0345559 -0.00551387 0.507193 
0.041343 -0.0062657 0.522211 0.0477411 -0.0072263 0.53702 0.0536407 -0.00838087 0.55163 
0.0589586 -0.00971362 0.566039 0.0636474 -0.0112092 0.58023 0.0677008 -0.0128539 0.594171 
0.0711542 -0.0146356 0.607818 0.0740805 -0.016544 0.621115 0.0765819 -0.0185693 0.633997 
0.0787785 -0.0207013 0.646397 0.0807964 -0.0229281 0.658251 0.0827543 -0.0252346 0.669497 
0.084753 -0.0276019 0.680084 0.0868667 -0.0300067 0.689974 0.0891381 -0.0324215 0.699139 
0.0915771 -0.0348151 0.707566 0.0941628 -0.0371542 0.715252 0.0968491 -0.0394045 0.722203 
0.0995711 -0.0415322 0.728431 0.102253 -0.0435058 0.733952 0.104817 -0.0452972 0.73878 
0.107187 -0.0468824 0.74293 0.109297 -0.0482421 0.746411 0.111091 -0.0493611 0.749232 
0.112527 -0.0502284 0.751398 0.113573 -0.0508363 0.752911 0.11421 -0.0511793 0.753774 
0.114427 -0.0512541 0.753989 
LINES 2 100
OFFSETS vtktypeint64
0 100 
CONNECTIVITY vtktypeint64
0 1 2 3 4 5 6 7 8 
9 10 11 12 13 14 15 16 17 
18 19 20 21 22 23 24 25 26 
27 28 29 30 31 32 33 34 35 
36 37 38 39 40 41 42 43 44 
45 46 47 48 49 50 51 52 53 
54 55 56 57 58 59 60 61 62 
63 64 65 66 67 68 69 70 71 
72 73 74 75 76 77 78 79 80 
81 82 83 84 85 86 87 88 89 
90 91 92 93 94 95 96 97 98 
99 
POINT_DATA 100
FIELD FieldData 3
_theta 1 100 double
0 0.031733259127 0.063466518254 0.095199777382 0.12693303651 0.15866629564 0.19039955476 0.22213281389 0.25386607302 
0.28559933214 0.31733259127 0.3490658504 0.38079910953 0.41253236865 0.44426562778 0.47599888691 0.50773214603 0.53946540516 
0.57119866429 0.60293192342 0.63466518254 0.66639844167 0.6981317008 0.72986495992 0.76159821905 0.79333147818 0.82506473731 
0.85679799643 0.88853125556 0.92026451469 0.95199777382 0.98373103294 1.0154642921 1.0471975512 1.0789308103 1.1106640695 
1.1423973286 1.1741305877 1.2058638468 1.237597106 1.2693303651 1.3010636242 1.3327968833 1.3645301425 1.3962634016 
1.4279966607 1.4597299198 1.491463179 1.5231964381 1.5549296972 1.5866629564 1.6183962155 1.6501294746 1.6818627337 
1.7135959929 1.745329252 1.7770625111 1.8087957702 1.8405290294 1.8722622885 1.9039955476 1.9357288068 1.9674620659 
1.999195325 2.0309285841 2.0626618433 2.0943951024 2.1261283615 2.1578616206 2.1895948798 2.2213281389 2.253061398 
2.2847946572 2.3165279163 2.3482611754 2.3799944345 2.4117276937 2.4434609528 2.4751942119 2.506927471 2.5386607302 
2.5703939893 2.6021272484 2.6338605076 2.6655937667 2.6973270258 2.7290602849 2.7607935441 2.7925268032 2.8242600623 
2.8559933214 2.8877265806 2.9194598397 2.9511930988 2.982926358 3.0146596171 3.0463928762 3.0781261353 3.1098593945 
3.1415926536 
_radius 1 100 double
1.0190728994e-15 0.015739644747 0.031380115253 0.046823717568 0.061972680242 0.076730536834 0.091004249387 0.10470639012 0.11775668696 
0.13008254456 0.14161858224 0.15230559693 0.16208955597 0.17092123276 0.17875694989 0.1855606382 0.19130711246 0.1959861696 
0.19960690564 0.20220157996 0.20382843759 0.20457306154 0.20454794579 0.20388996364 0.20275531512 0.20131162432 0.19972740729 
0.19816013728 0.19674506993 0.1955870794 0.19475667153 0.19428967984 0.19418903098 0.19442706167 0.19494793392 0.19567091927 
0.19649596172 0.19731267605 0.19801295526 0.19850604894 0.19873368278 0.19868185815 0.19838599138 0.19792763201 0.1974238848 
0.19701324503 0.19684201648 0.19705365707 0.19778086448 0.19913858003 0.20121599553 0.2040669067 0.20769962368 0.21206908805 
0.21707404262 0.22256095995 0.22833462938 0.2341737369 0.2398489852 0.24514129742 0.24985813603 0.2538466195 0.25700269462 
0.25927600125 0.26067024571 0.26123898682 0.26107689301 0.26030687836 0.25906408357 0.25747832496 0.25565719625 0.25367225646 
0.25155048913 0.24927238626 0.24677670683 0.24397055421 0.24074243131 0.23697575084 0.23256088438 0.22740483377 0.22143848646 
0.21462182452 0.20694732811 0.19844133907 0.18916265191 0.17919740994 0.16864972868 0.15762840461 0.14623142971 0.13453139002 
0.12256551876 0.11033357978 0.09780478176 0.084932284423 0.07167170979 0.057999225902 0.043925267268 0.029501299834 0.014818658711 
3.9649481297e-16 
_area 1 100 double
0 0.00060831070363 0.0024353116596 0.0054806548654 0.0097251898456 0.015112515132 0.021536315955 0.028837903876 0.036813987042 
0.045231437145 0.0538444684 0.062410028659 0.070698735349 0.078500705734 0.085627527902 0.091912918355 0.097214984955 0.10142221422 
0.10446328329 0.10631823677 0.1070269453 0.10669117843 0.10546870916 0.10356023632 0.10119133738 0.098591882919 0.095975248938 
0.093520291017 0.091359926531 0.089579629211 0.088227335724 0.087368026914 0.087019365082 0.087065181419 0.087447197392 0.088098362058 
0.088939932365 0.089882654397 0.090830791695 0.09171222283 0.092509428751 0.093275464044 0.094152908207 0.095368281636 0.097026960068 
0.099021860826 0.10123011902 0.10358457773 0.10609644052 0.10887181705 0.11210199822 0.11600689706 0.12076115957 0.12645010657 
0.13304835344 0.14040712515 0.14825939705 0.1562510184 0.1639909755 0.17110506457 0.1773467969 0.18280126025 0.18719849122 
0.19015402425 0.19169391015 0.19190403609 0.19089187385 0.18885706711 0.18603550799 0.18265126097 0.17888733025 0.17487104465 
0.1706731565 0.16631562414 0.1617818473 0.15702593889 0.1519809761 0.14656773202 0.14070513238 0.13432264755 0.12737372932 
0.11984838172 0.11178222367 0.10325930323 0.094406620227 0.085379863918 0.076342270176 0.067441357981 0.058790572036 0.050462901711 
0.042499937924 0.034933176688 0.027808457208 0.021203520682 0.015233031961 0.01004117424 0.0057855946963 0.0026174265398 0.00066151516695 
6.6698811385e-17 
