# vtk DataFile Version 5.1
vtk output
ASCII
DATASET POLYDATA
POINTS 100 float
0.113409 -0.0176775 0.70105 0.113313 -0.0176959 0.700952 0.112955 -0.017884 0.700756 
0.112337 -0.018212 0.700409 0.111465 -0.0186336 0.699828 0.110346 -0.0190898 0.698906 
0.108995 -0.0195148 0.697523 0.10743 -0.0198417 0.695556 0.105676 -0.0200086 0.69289 
0.103762 -0.019964 0.689424 0.101721 -0.0196701 0.68508 0.0995861 -0.0191058 0.679811 
0.0973863 -0.0182674 0.673597 0.0951446 -0.0171675 0.666447 0.0928727 -0.0158332 0.658397 
0.0905684 -0.0143022 0.649503 0.0882136 -0.0126197 0.639835 0.0857746 -0.0108338 0.629472 
0.0832028 -0.00899249 0.618496 0.0804391 -0.00714073 0.606984 0.0774182 -0.00531841 0.595007 
0.0740749 -0.00355956 0.582626 0.0703505 -0.00189245 0.569895 0.0661992 -0.000340247 0.556855 
0.0615927 0.00107771 0.543542 0.0565239 0.00234465 0.529985 0.0510079 0.00344522 0.516207 
0.0450803 0.00436479 0.50223 0.0387942 0.00508922 0.488068 0.0322143 0.0056053 0.473735 
0.02541 0.00590158 0.459234 0.0184483 0.00596948 0.444564 0.0113872 0.00580447 0.429709 
0.00427027 0.00540701 0.414644 -0.00287673 0.00478302 0.399329 -0.0100459 0.00394376 0.383711 
-0.0172454 0.002905 0.367725 -0.0244942 0.00168557 0.351298 -0.0318154 0.000305427 0.334354 
-0.0392278 -0.00121649 0.316818 -0.0467381 -0.00286442 0.29862 -0.0543329 -0.00462753 0.279706 
-0.0619734 -0.00650111 0.260037 -0.0695928 -0.00848693 0.239595 -0.0770965 -0.0105927 0.218386 
-0.0843662 -0.0128309 0.196437 -0.0912669 -0.0152164 0.173798 -0.0976561 -0.0177641 0.150532 
-0.103395 -0.0204862 0.126719 -0.108358 -0.0233894 0.102442 -0.112446 -0.0264729 0.0777895 
-0.115589 -0.0297265 0.0528443 -0.117757 -0.0331299 0.0276847 -0.118954 -0.0366525 0.00238049 
-0.119218 -0.0402542 -0.0230069 -0.118617 -0.0438863 -0.0484234 -0.117233 -0.047493 -0.0738195 
-0.115155 -0.0510135 -0.0991472 -0.112467 -0.0543832 -0.124357 -0.109236 -0.0575352 -0.149392 
-0.105505 -0.0604021 -0.17419 -0.101288 -0.0629163 -0.19868 -0.0965693 -0.0650115 -0.222781 
-0.0913084 -0.066624 -0.246406 -0.085448 -0.0676933 -0.269467 -0.0789258 -0.0681643 -0.291877 
-0.0716877 -0.0679895 -0.313557 -0.0637025 -0.067131 -0.334439 -0.0549745 -0.0655636 -0.354472 
-0.045554 -0.0632776 -0.373629 -0.0355433 -0.0602811 -0.391903 -0.025098 -0.0566018 -0.409309 
-0.0144217 -0.0522878 -0.425885 -0.00375699 -0.0474067 -0.441688 0.00662987 -0.0420434 -0.456786 
0.0164668 -0.0362967 -0.471254 0.0254957 -0.0302738 -0.485169 0.0334924 -0.0240844 -0.498604 
0.0402846 -0.0178344 -0.511618 0.0457655 -0.0116189 -0.52426 0.0499026 -0.00551745 -0.536556 
0.0527407 0.000410553 -0.548518 0.0543975 0.00612765 -0.560135 0.0550533 0.0116182 -0.571383 
0.054936 0.0168857 -0.582221 0.0543009 0.0219483 -0.592601 0.0534091 0.0268326 -0.602466 
0.0525062 0.0315659 -0.611761 0.0518017 0.0361695 -0.620429 0.0514532 0.0406514 -0.628423 
0.0515557 0.0450017 -0.635702 0.0521364 0.0491896 -0.642233 0.0531571 0.0531628 -0.647996 
0.0545221 0.0568503 -0.652977 0.0560918 0.0601672 -0.657172 0.0577003 0.0630215 -0.660583 
0.0591747 0.0653224 -0.663216 0.0603557 0.0669889 -0.665077 0.0611147 0.0679575 -0.666176 
0.0613686 0.0681887 -0.666516 
LINES 2 100
OFFSETS vtktypeint64
0 100 
CONNECTIVITY vtktypeint64
0 1 2 3 4 5 6 7 8 
9 10 11 12 13 14 15 16 17 
18 19 20 21 22 23 24 25 26 
27 28 29 30 31 32 33 34 35 
36 37 38 39 40 41 42 43 44 
45 46 47 48 49 50 51 52 53 
54 55 56 57 58 59 60 61 62 
63 64 65 66 67 68 69 70 71 
72 73 74 75 76 77 78 79 80 
81 82 83 84 85 86 87 88 89 
90 91 92 93 94 95 96 97 98 
99 
POINT_DATA 100
FIELD FieldData 3
_theta 1 100 double
0 0.031733259127 0.063466518254 0.095199777382 0.12693303651 0.15866629564 0.19039955476 0.22213281389 0.25386607302 
0.28559933214 0.31733259127 0.3490658504 0.38079910953 0.41253236865 0.44426562778 0.47599888691 0.50773214603 0.53946540516 
0.57119866429 0.60293192342 0.63466518254 0.66639844167 0.6981317008 0.72986495992 0.76159821905 0.79333147818 0.82506473731 
0.85679799643 0.88853125556 0.92026451469 0.95199777382 0.98373103294 1.0154642921 1.0471975512 1.0789308103 1.1106640695 
1.1423973286 1.1741305877 1.2058638468 1.237597106 1.2693303651 1.3010636242 1.3327968833 1.3645301425 1.3962634016 
1.4279966607 1.4597299198 1.491463179 1.5231964381 1.5549296972 1.5866629564 1.6183962155 1.6501294746 1.6818627337 
1.7135959929 1.745329252 1.7770625111 1.8087957702 1.8405290294 1.8722622885 1.9039955476 1.9357288068 1.9674620659 
1.999195325 2.0309285841 2.0626618433 2.0943951024 2.1261283615 2.1578616206 2.1895948798 2.2213281389 2.253061398 
2.2847946572 2.3165279163 2.3482611754 2.3799944345 2.4117276937 2.4434609528 2.4751942119 2.506927471 2.5386607302 
2.5703939893 2.6021272484 2.6338605076 2.6655937667 2.6973270258 2.7290602849 2.7607935441 2.7925268032 2.8242600623 
2.8559933214 2.8877265806 2.9194598397 2.9511930988 2.982926358 3.0146596171 3.0463928762 3.0781261353 3.1098593945 
3.1415926536 
_radius 1 100 double
9.0382256166e-16 0.014877950266 0.029759223319 0.044642251688 0.05951692378 0.074359288756 0.089126367605 0.10375256072 0.11814907137 
0.13220714801 0.14580514113 0.15881865221 0.17113248748 0.18265268769 0.19331664249 0.20309938079 0.21201467839 0.22011058006 
0.22746006451 0.23414859023 0.24026088816 0.24586944506 0.25102663084 0.25576151609 0.26008137911 0.26397699258 0.26743017464 
0.27042182737 0.27293875911 0.27497799821 0.27654800414 0.27766692705 0.27835851995 0.27864640856 0.27854753019 0.27806593911 
0.27718859524 0.27588473412 0.2741097928 0.2718138629 0.26895360931 0.26550579658 0.26148014036 0.25692917047 0.25195311055 
0.24669837939 0.24134916006 0.23611253552 0.23119888371 0.22680037404 0.22307119419 0.22011319457 0.21796969084 0.21662820033 
0.21603036758 0.21608525793 0.21668168148 0.21769669448 0.21900020469 0.22045813843 0.22193742736 0.22331472767 0.22448828398 
0.2253902563 0.22599605903 0.22632774873 0.2264497226 0.22645650034 0.22645390325 0.2265363486 0.22676403176 0.22714417652 
0.22762004643 0.22807003606 0.22831724432 0.22814799788 0.22733630858 0.22567046948 0.2229779226 0.21914499639 0.21412891358 
0.20796049385 0.20073716639 0.19260720582 0.18374738164 0.17433726265 0.16453401279 0.15445147573 0.14414664234 0.13361540582 
0.12279813973 0.11159430764 0.099884054159 0.087553556623 0.07452010459 0.060752806317 0.046285612182 0.031220731176 0.015722096312 
6.0157950736e-16 
_area 1 100 double
0 0.00055591823829 0.0022226784813 0.0049960479451 0.0088649782684 0.013806396795 0.019779715401 0.026722547849 0.034548371164 
0.043145683566 0.052377698101 0.062082597333 0.072076397134 0.082161695993 0.092144287011 0.1018558394 0.1111766016 0.1200499414 
0.12848222971 0.13652687321 0.14425781141 0.15174201279 0.15901985274 0.16609677207 0.17294258231 0.17949208176 0.18564632161 
0.19128145694 0.19626945357 0.20050564424 0.20393395562 0.20655980119 0.20844117169 0.20965716866 0.21026843912 0.21028932321 
0.20967941455 0.20835045388 0.20618449368 0.2030609788 0.19888760651 0.19362928101 0.18733146285 0.18013419706 0.17227273363 
0.16406244496 0.15586931861 0.14807059299 0.1410107313 0.13495526919 0.13004460295 0.12626267698 0.12345166292 0.12138031189 
0.11982464673 0.11861791276 0.11766565365 0.11693355245 0.11638707731 0.11596365262 0.11558885937 0.1151665352 0.11461159374 
0.11392991264 0.1131045239 0.11215958128 0.11116141028 0.11022535348 0.10951575543 0.10920453258 0.10941407537 0.11017333766 
0.1114043611 0.11293813961 0.11454363196 0.11595432765 0.11688973906 0.11707902871 0.1162909578 0.11436478486 0.11123202465 
0.10692163616 0.1015478835 0.095286689191 0.08834829957 0.080951215114 0.073299847165 0.065568271697 0.057891549631 0.050363902377 
0.043042899972 0.035961422622 0.029149672443 0.022663961212 0.016612006558 0.011163996746 0.0065439102585 0.0030008129603 0.00076500888122 
3.761810893e-17 
