# vtk DataFile Version 5.1
vtk output
ASCII
DATASET POLYDATA
POINTS 100 float
0.14217 -0.022268 0.595748 0.142159 -0.0222264 0.595746 0.142056 -0.0221896 0.595885 
0.141827 -0.0221567 0.596095 0.141422 -0.0221268 0.596268 0.140778 -0.0220967 0.596264 
0.139832 -0.0220602 0.595925 0.138528 -0.0220067 0.595086 0.136822 -0.0219203 0.593591 
0.134691 -0.0217806 0.591303 0.132137 -0.0215634 0.588118 0.129181 -0.0212429 0.583966 
0.125864 -0.0207946 0.57882 0.122242 -0.0201986 0.572693 0.118373 -0.0194429 0.565634 
0.114315 -0.018526 0.557722 0.110113 -0.0174587 0.549056 0.105797 -0.0162648 0.539748 
0.101375 -0.0149798 0.529912 0.0968368 -0.0136484 0.519654 0.0921524 -0.0123209 0.509066 
0.0872791 -0.0110482 0.498223 0.0821678 -0.00987694 0.487179 0.0767705 -0.00884489 0.475971 
0.0710476 -0.00797704 0.464615 0.0649734 -0.00728342 0.453116 0.05854 -0.00675868 0.441471 
0.0517581 -0.00638362 0.42967 0.044655 -0.00612862 0.417703 0.0372709 -0.00595853 0.40556 
0.0296532 -0.0058384 0.393233 0.0218503 -0.00573944 0.380711 0.0139057 -0.00564436 0.367979 
0.00585459 -0.00555137 0.355015 -0.00227856 -0.00547627 0.341784 -0.0104786 -0.00545231 0.328238 
-0.0187363 -0.00552769 0.314312 -0.0270419 -0.00576101 0.299924 -0.0353785 -0.00621507 0.284979 
-0.0437138 -0.00694973 0.269378 -0.0519938 -0.00801471 0.253017 -0.0601385 -0.00944323 0.235803 
-0.0680405 -0.0112471 0.217663 -0.0755674 -0.0134138 0.198551 -0.0825676 -0.0159068 0.178456 
-0.0888804 -0.0186671 0.157407 -0.0943469 -0.0216182 0.135476 -0.0988232 -0.0246724 0.112775 
-0.102193 -0.0277379 0.0894518 -0.104376 -0.0307265 0.0656772 -0.10534 -0.0335601 0.0416368 
-0.105097 -0.0361762 0.0175168 -0.103708 -0.0385314 -0.00650932 -0.101273 -0.0406019 -0.0302925 
-0.0979222 -0.0423831 -0.0537173 -0.0938056 -0.0438855 -0.0767073 -0.0890768 -0.04513 -0.099227 
-0.0838811 -0.0461425 -0.121279 -0.0783441 -0.0469475 -0.142896 -0.0725633 -0.047563 -0.164132 
-0.0666039 -0.0479966 -0.185052 -0.0604988 -0.0482429 -0.205715 -0.0542521 -0.0482832 -0.226168 
-0.0478466 -0.0480873 -0.246431 -0.0412524 -0.0476164 -0.266497 -0.0344376 -0.0468277 -0.286327 
-0.0273767 -0.0456794 -0.305856 -0.0200587 -0.0441356 -0.324994 -0.0124922 -0.0421715 -0.343641 
-0.00470651 -0.0397761 -0.361698 0.0032487 -0.0369546 -0.379076 0.0113078 -0.0337289 -0.395707 
0.0193944 -0.030137 -0.411553 0.0274277 -0.0262299 -0.426609 0.0353285 -0.0220696 -0.440904 
0.0430237 -0.0177246 -0.454492 0.050449 -0.0132664 -0.467447 0.0575491 -0.00876621 -0.479848 
0.0642764 -0.00429213 -0.491767 0.0705875 9.31973e-05 -0.503257 0.0764392 0.00433378 -0.51434 
0.0817848 0.00838093 -0.524997 0.0865717 0.0121934 -0.535173 0.0907411 0.0157371 -0.544771 
0.0942302 0.018985 -0.553666 0.0969774 0.0219167 -0.561718 0.0989298 0.0245187 -0.568785 
0.100052 0.0267842 -0.574742 0.100334 0.0287139 -0.579503 0.099803 0.0303158 -0.583027 
0.0985253 0.0316058 -0.585338 0.0966109 0.032607 -0.586521 0.0942106 0.0333496 -0.586726 
0.09151 0.0338687 -0.586154 0.088718 0.0342028 -0.585049 0.0860525 0.0343916 -0.583668 
0.0837239 0.0344724 -0.582269 0.0819183 0.0344781 -0.581081 0.0807813 0.0344342 -0.580284 
0.0804055 0.0343569 -0.579996 
LINES 2 100
OFFSETS vtktypeint64
0 100 
CONNECTIVITY vtktypeint64
0 1 2 3 4 5 6 7 8 
9 10 11 12 13 14 15 16 17 
18 19 20 21 22 23 24 25 26 
27 28 29 30 31 32 33 34 35 
36 37 38 39 40 41 42 43 44 
45 46 47 48 49 50 51 52 53 
54 55 56 57 58 59 60 61 62 
63 64 65 66 67 68 69 70 71 
72 73 74 75 76 77 78 79 80 
81 82 83 84 85 86 87 88 89 
90 91 92 93 94 95 96 97 98 
99 
POINT_DATA 100
FIELD FieldData 3
_theta 1 100 double
0 0.031733259127 0.063466518254 0.095199777382 0.12693303651 0.15866629564 0.19039955476 0.22213281389 0.25386607302 
0.28559933214 0.31733259127 0.3490658504 0.38079910953 0.41253236865 0.44426562778 0.47599888691 0.50773214603 0.53946540516 
0.57119866429 0.60293192342 0.63466518254 0.66639844167 0.6981317008 0.72986495992 0.76159821905 0.79333147818 0.82506473731 
0.85679799643 0.88853125556 0.92026451469 0.95199777382 0.98373103294 1.0154642921 1.0471975512 1.0789308103 1.1106640695 
1.1423973286 1.1741305877 1.2058638468 1.237597106 1.2693303651 1.3010636242 1.3327968833 1.3645301425 1.3962634016 
1.4279966607 1.4597299198 1.491463179 1.5231964381 1.5549296972 1.5866629564 1.6183962155 1.6501294746 1.6818627337 
1.7135959929 1.745329252 1.7770625111 1.8087957702 1.8405290294 1.8722622885 1.9039955476 1.9357288068 1.9674620659 
1.999195325 2.0309285841 2.0626618433 2.0943951024 2.1261283615 2.1578616206 2.1895948798 2.2213281389 2.253061398 
2.2847946572 2.3165279163 2.3482611754 2.3799944345 2.4117276937 2.4434609528 2.4751942119 2.506927471 2.5386607302 
2.5703939893 2.6021272484 2.6338605076 2.6655937667 2.6973270258 2.7290602849 2.7607935441 2.7925268032 2.8242600623 
2.8559933214 2.8877265806 2.9194598397 2.9511930988 2.982926358 3.0146596171 3.0463928762 3.0781261353 3.1098593945 
3.1415926536 
_radius 1 100 double
6.7535794885e-16 0.014260076316 0.028411327581 0.042352985103 0.055995630796 0.06926416568 0.082098319534 0.094450993181 0.1062851968 
0.11757054954 0.12828022639 0.13838895957 0.1478723505 0.15670743706 0.16487425059 0.17235799319 0.17915144576 0.1852572488 
0.19068974964 0.19547614951 0.19965669758 0.20328368106 0.20641899747 0.20913021704 0.21148527219 0.21354621449 0.21536277785 
0.21696668395 0.21836765008 0.21955187995 0.22048345349 0.22110855081 0.22136197214 0.22117508121 0.22048417904 0.21923838954 
0.21740632976 0.21498108267 0.21198325897 0.20846219773 0.20449554439 0.20018746526 0.19566556444 0.19107623498 0.18657789769 
0.18233161544 0.17848909898 0.17517911226 0.17249441248 0.17048206419 0.16913970506 0.16841892825 0.16823482627 0.16847892162 
0.1690322006 0.16977598709 0.17060010177 0.17140892026 0.17212600198 0.17269735789 0.17309300024 0.17330657851 0.17335339352 
0.17326736513 0.17309738784 0.172903207 0.17275080986 0.1727073543 0.17283564895 0.17318808963 0.17379991756 0.17468192781 
0.17581336262 0.17713641916 0.1785541415 0.17993309969 0.18111119942 0.18190964596 0.18214708871 0.18165366085 0.18028297795 
0.17792088524 0.17449051381 0.16995380436 0.16431001396 0.15759188278 0.1498601951 0.14119747728 0.13170151713 0.12147920407 
0.11064089867 0.099295295714 0.087544733356 0.075481141398 0.06318312249 0.050714752304 0.038126413905 0.025457404067 0.012739444761 
9.736767265e-16 
_area 1 100 double
0 0.00051825220332 0.0020565114953 0.0045665293092 0.007971807732 0.012172885275 0.017053907726 0.022489894606 0.028353916973 
0.034523239709 0.040883380011 0.047329159381 0.053762677401 0.060089841666 0.066218598115 0.072061894296 0.077546538542 0.082626524822 
0.087296951391 0.09160292385 0.095637624298 0.099526047362 0.10339599733 0.1073440706 0.11140772757 0.11555233659 0.11967582942 
0.12362781241 0.12723731034 0.1303432212 0.13282213391 0.13460716332 0.13568411007 0.13604613421 0.13565223148 0.13446544093 
0.13249696506 0.12980398158 0.12647069007 0.12259282096 0.11827067965 0.11361012759 0.10872849011 0.10376014715 0.098855289796 
0.094167729919 0.089833427689 0.085947640351 0.082552862756 0.079648626076 0.07722177986 0.075269994158 0.073790262402 0.072772871054 
0.07221000374 0.072065581809 0.072225875537 0.072504358976 0.072705654047 0.072684332928 0.072371816821 0.071774445074 0.070951673472 
0.069994396769 0.069016832249 0.06814637766 0.067497044687 0.067159371423 0.06720730619 0.06769315798 0.068640783371 0.070042452758 
0.071856275943 0.074002357272 0.076359369636 0.078764797488 0.081021428576 0.082911110151 0.084214745738 0.084735397146 0.084320019994 
0.082875285179 0.080374118999 0.07685183007 0.072393618524 0.067118212119 0.061164101455 0.054683568242 0.047844754948 0.040836299169 
0.033867254317 0.027158156409 0.020923858385 0.015352163976 0.010583909434 0.0067006404203 0.0037254841845 0.0016394378086 0.00040721496183 
2.2131263637e-17 
