# vtk DataFile Version 5.1
vtk output
ASCII
DATASET POLYDATA
POINTS 100 float
0.0802187 0.0923678 -0.679639 0.0802765 0.0919654 -0.679367 0.0804621 0.0909659 -0.678557 
0.0807478 0.089379 -0.677185 0.081093 0.0872214 -0.675214 0.0814501 0.0845184 -0.672602 
0.0817723 0.0813042 -0.669305 0.0820201 0.0776227 -0.665287 0.082166 0.0735275 -0.660524 
0.0821966 0.0690801 -0.655008 0.08211 0.0643479 -0.648751 0.0819111 0.0594003 -0.641783 
0.0816031 0.0543046 -0.634147 0.0811782 0.0491208 -0.625897 0.0806082 0.0438974 -0.617086 
0.0798374 0.0386672 -0.607767 0.0787792 0.033445 -0.597976 0.077317 0.028227 -0.587737 
0.075311 0.0229919 -0.577051 0.0726096 0.017705 -0.565902 0.0690651 0.0123234 -0.554255 
0.0645509 0.00680309 -0.542064 0.058979 0.00110701 -0.529274 0.0523148 -0.00478748 -0.515835 
0.044587 -0.0108816 -0.501702 0.0358911 -0.0171501 -0.486842 0.0263855 -0.0235387 -0.471243 
0.0162802 -0.0299641 -0.454907 0.00581918 -0.0363176 -0.437853 -0.00474114 -0.0424706 -0.420116 
-0.0151558 -0.0482835 -0.401737 -0.0252131 -0.0536152 -0.382757 -0.0347529 -0.0583335 -0.363217 
-0.043678 -0.0623254 -0.343145 -0.0519573 -0.0655053 -0.322559 -0.0596208 -0.0678213 -0.301467 
-0.0667454 -0.0692587 -0.279862 -0.0734361 -0.0698399 -0.257734 -0.0798016 -0.0696215 -0.235072 
-0.0859309 -0.0686884 -0.211871 -0.0918717 -0.0671458 -0.188138 -0.0976152 -0.0651104 -0.1639 
-0.103088 -0.0626999 -0.139205 -0.108155 -0.0600253 -0.114126 -0.112627 -0.0571824 -0.088755 
-0.116284 -0.0542473 -0.0632044 -0.118897 -0.0512736 -0.0375959 -0.120252 -0.0482923 -0.0120551 
-0.120181 -0.0453142 0.0132967 -0.118578 -0.0423347 0.0383503 -0.115416 -0.0393393 0.0630141 
-0.110753 -0.0363102 0.0872185 -0.10472 -0.0332328 0.110916 -0.0975176 -0.0301007 0.134081 
-0.0893861 -0.0269199 0.156705 -0.0805844 -0.0237106 0.178793 -0.0713624 -0.0205079 0.200357 
-0.0619368 -0.0173596 0.221409 -0.0524727 -0.0143235 0.241962 -0.0430726 -0.0114623 0.26202 
-0.0337749 -0.0088397 0.281583 -0.024561 -0.00651481 0.300646 -0.0153696 -0.00453816 0.319204 
-0.00611745 -0.00294821 0.337254 0.00327905 -0.00176925 0.354802 0.0128825 -0.00101054 0.371863 
0.0227178 -0.000666735 0.38847 0.0327618 -0.000719485 0.404665 0.0429417 -0.00113975 0.420506 
0.053141 -0.00189061 0.436055 0.0632134 -0.00293024 0.451376 0.0730019 -0.0042146 0.466524 
0.0823601 -0.00569971 0.481542 0.0911728 -0.00734334 0.496448 0.0993724 -0.00910605 0.511237 
0.106949 -0.0109515 0.525873 0.113952 -0.0128465 0.540293 0.120483 -0.0147606 0.554413 
0.126681 -0.0166652 0.568131 0.132701 -0.0185336 0.581341 0.138691 -0.0203403 0.593939 
0.144769 -0.0220611 0.605835 0.151002 -0.0236734 0.616964 0.157395 -0.0251568 0.627284 
0.163883 -0.0264938 0.636785 0.170342 -0.0276708 0.645488 0.176598 -0.0286789 0.653434 
0.182452 -0.0295146 0.660685 0.187703 -0.0301799 0.667306 0.192178 -0.0306829 0.673364 
0.195753 -0.0310369 0.678911 0.198372 -0.0312597 0.683981 0.200058 -0.0313729 0.688586 
0.200908 -0.0314001 0.692715 0.201085 -0.0313654 0.696333 0.200797 -0.0312922 0.699391 
0.200269 -0.0312014 0.701831 0.199719 -0.0311102 0.703598 0.199325 -0.0310311 0.704645 
0.199203 -0.0309709 0.704941 
LINES 2 100
OFFSETS vtktypeint64
0 100 
CONNECTIVITY vtktypeint64
0 1 2 3 4 5 6 7 8 
9 10 11 12 13 14 15 16 17 
18 19 20 21 22 23 24 25 26 
27 28 29 30 31 32 33 34 35 
36 37 38 39 40 41 42 43 44 
45 46 47 48 49 50 51 52 53 
54 55 56 57 58 59 60 61 62 
63 64 65 66 67 68 69 70 71 
72 73 74 75 76 77 78 79 80 
81 82 83 84 85 86 87 88 89 
90 91 92 93 94 95 96 97 98 
99 
POINT_DATA 100
FIELD FieldData 3
_theta 1 100 double
0 0.031733259127 0.063466518254 0.095199777382 0.12693303651 0.15866629564 0.19039955476 0.22213281389 0.25386607302 
0.28559933214 0.31733259127 0.3490658504 0.38079910953 0.41253236865 0.44426562778 0.47599888691 0.50773214603 0.53946540516 
0.57119866429 0.60293192342 0.63466518254 0.66639844167 0.6981317008 0.72986495992 0.76159821905 0.79333147818 0.82506473731 
0.85679799643 0.88853125556 0.92026451469 0.95199777382 0.98373103294 1.0154642921 1.0471975512 1.0789308103 1.1106640695 
1.1423973286 1.1741305877 1.2058638468 1.237597106 1.2693303651 1.3010636242 1.3327968833 1.3645301425 1.3962634016 
1.4279966607 1.4597299198 1.491463179 1.5231964381 1.5549296972 1.5866629564 1.6183962155 1.6501294746 1.6818627337 
1.7135959929 1.745329252 1.7770625111 1.8087957702 1.8405290294 1.8722622885 1.9039955476 1.9357288068 1.9674620659 
1.999195325 2.0309285841 2.0626618433 2.0943951024 2.1261283615 2.1578616206 2.1895948798 2.2213281389 2.253061398 
2.2847946572 2.3165279163 2.3482611754 2.3799944345 2.4117276937 2.4434609528 2.4751942119 2.506927471 2.5386607302 
2.5703939893 2.6021272484 2.6338605076 2.6655937667 2.6973270258 2.7290602849 2.7607935441 2.7925268032 2.8242600623 
2.8559933214 2.8877265806 2.9194598397 2.9511930988 2.982926358 3.0146596171 3.0463928762 3.0781261353 3.1098593945 
3.1415926536 
_radius 1 100 double
1.7898580585e-15 0.015520740777 0.030870237355 0.045901788521 0.060503463879 0.074607297511 0.088190278763 0.10126678613 0.11387392323 
0.12605292052 0.13783079187 0.14920629015 0.16014283011 0.17056898013 0.18038525784 0.18947499938 0.19771711688 0.20499919479 
0.21123002777 0.21635098864 0.22034547903 0.22324536295 0.22513303894 0.2261379558 0.22642704824 0.2261896754 0.22561890399 
0.22489199406 0.22415334336 0.22350270599 0.22299028925 0.22261875108 0.22235077062 0.22212021323 0.22184501764 0.22144046615 
0.22083202129 0.21996712663 0.21882517314 0.21742430534 0.21582332641 0.2141174445 0.21242835801 0.21089136809 0.20964322639 
0.20881335467 0.2085185143 0.20885857944 0.20991033157 0.21171775439 0.21428033381 0.21754339061 0.22139476562 0.22567016121 
0.23016659578 0.23466129019 0.23893243682 0.24277850043 0.24603356812 0.24857744836 0.2503404038 0.25130331129 0.25149448326 
0.25098430424 0.24987836308 0.2483091552 0.24642599362 0.24438273917 0.24232345286 0.2403670649 0.23859341652 0.23703390815 
0.23566945507 0.23443609833 0.23323573151 0.23194801564 0.23044032249 0.22857448881 0.22621106543 0.22321290341 0.21945000703 
0.21480660409 0.20918982422 0.20253807125 0.19482678235 0.18606988858 0.17631654275 0.16564400073 0.15414842495 0.14193553991 
0.12911258358 0.11578225549 0.10203876681 0.087965777828 0.073635853277 0.059110973359 0.044443639901 0.029678257169 0.014852683187 
7.650760308e-16 
_area 1 100 double
0 0.00064219276066 0.0025442691777 0.005635959684 0.00981043054 0.014937968951 0.020881762665 0.027512648185 0.034719261083 
0.04241013044 0.050505452601 0.058919275688 0.067537337147 0.076199215487 0.084692665767 0.092763261545 0.10013721282 0.10655209642 
0.11178933375 0.11570262327 0.11823751683 0.11943880483 0.11944451573 0.11846811825 0.1167731596 0.1146456126 0.11236778593 
0.1101957494 0.10834208192 0.10693937259 0.10601447653 0.10553453756 0.10544079931 0.10565760043 0.1061034477 0.10673284608 
0.10746247928 0.108210256 0.10892493149 0.10960163927 0.11027008791 0.11096143732 0.11170222645 0.11254532763 0.11359260754 
0.11499363684 0.1169610481 0.11970614269 0.12316981222 0.1272329883 0.13182185735 0.13688030966 0.14235181806 0.14816134079 
0.15419340989 0.16027386661 0.16616776592 0.17160004512 0.17629325757 0.18000885098 0.18257987429 0.18392982264 0.18407891124 
0.18314142446 0.18131287798 0.17883749469 0.17595969887 0.17289377713 0.16982043997 0.16688003027 0.16415312496 0.16164324043 
0.15927737981 0.15692883281 0.15445161829 0.15170900115 0.14858476239 0.14497808905 0.1407923628 0.13593019697 0.13030144843 
0.12384242531 0.11653847483 0.10844010661 0.099664960546 0.090383925274 0.080796839105 0.071107430511 0.06150608039 0.05216353756 
0.043232656193 0.034852460748 0.027150337872 0.020241526675 0.014227308565 0.0091933889001 0.0052090290726 0.002326885609 0.00058345854511 
1.1733693302e-16 
