# vtk DataFile Version 5.1
vtk output
ASCII
DATASET POLYDATA
POINTS 100 float
0.129463 -0.0461951 0.676873 0.129496 -0.0461217 0.67686 0.129537 -0.0460322 0.676955 
0.129555 -0.045911 0.677093 0.129498 -0.045735 0.67717 0.129309 -0.0454764 0.677055 
0.12893 -0.0451067 0.676599 0.128311 -0.0446003 0.67565 0.12742 -0.0439386 0.674062 
0.126247 -0.0431127 0.671711 0.124802 -0.0421257 0.668499 0.123116 -0.0409935 0.664364 
0.121232 -0.0397439 0.659278 0.119198 -0.0384145 0.653251 0.117057 -0.0370491 0.646322 
0.114834 -0.0356936 0.638554 0.112533 -0.0343905 0.630024 0.110131 -0.0331744 0.620818 
0.107573 -0.032067 0.611017 0.104785 -0.031074 0.600692 0.101675 -0.0301824 0.589901 
0.0981462 -0.0293613 0.57868 0.0941125 -0.0285623 0.567052 0.0895088 -0.0277239 0.555019 
0.0843031 -0.0267761 0.542576 0.0785027 -0.0256472 0.529708 0.0721575 -0.0242702 0.516402 
0.0653556 -0.0225905 0.502646 0.058215 -0.0205718 0.48844 0.0508707 -0.0182017 0.473791 
0.0434584 -0.0154951 0.458718 0.0360979 -0.0124953 0.44325 0.0288781 -0.00927304 0.427419 
0.0218454 -0.00592316 0.41126 0.0149974 -0.00255923 0.3948 0.00828337 0.00069358 0.378059 
0.00161148 0.00370654 0.361042 -0.00513791 0.00635584 0.343737 -0.0120941 0.00853065 0.326115 
-0.0193754 0.0101402 0.308131 -0.0270679 0.0111191 0.289727 -0.0352072 0.0114308 0.270836 
-0.043765 0.0110687 0.251393 -0.0526418 0.010055 0.231335 -0.0616685 0.00843713 0.210613 
-0.0706155 0.0062831 0.189197 -0.0792084 0.0036752 0.167078 -0.0871508 0.000703265 0.144272 
-0.094149 -0.00254191 0.12082 -0.0999376 -0.00597454 0.0967864 -0.104303 -0.00951859 0.0722544 
-0.107101 -0.013111 0.0473222 -0.108271 -0.0167029 0.0220958 -0.107834 -0.0202598 -0.00331662 
-0.105893 -0.0237592 -0.0288107 -0.102617 -0.0271875 -0.0542907 -0.0982251 -0.0305365 -0.0796728 
-0.0929605 -0.0337986 -0.104887 -0.0870692 -0.0369629 -0.129879 -0.0807771 -0.0400117 -0.154604 
-0.0742707 -0.0429179 -0.179031 -0.0676849 -0.0456437 -0.203135 -0.0610964 -0.0481406 -0.226894 
-0.0545251 -0.0503508 -0.250288 -0.0479412 -0.0522093 -0.273293 -0.0412786 -0.0536475 -0.295882 
-0.0344511 -0.0545969 -0.318023 -0.0273702 -0.0549934 -0.33968 -0.0199622 -0.0547807 -0.360812 
-0.0121822 -0.0539144 -0.381378 -0.00402464 -0.0523646 -0.401335 0.00447274 -0.0501179 -0.420647 
0.013229 -0.0471788 -0.439276 0.022126 -0.0435695 -0.457195 0.0310181 -0.0393301 -0.474379 
0.039745 -0.0345167 -0.490809 0.0481449 -0.0291998 -0.50647 0.0560685 -0.0234619 -0.52135 
0.0633897 -0.017395 -0.535435 0.0700145 -0.0110976 -0.548712 0.0758855 -0.0046718 -0.561164 
0.0809831 0.00177986 -0.572771 0.0853236 0.00815719 -0.583511 0.088953 0.0143654 -0.593361 
0.0919405 0.0203177 -0.602297 0.0943699 0.0259379 -0.610302 0.0963316 0.0311623 -0.617368 
0.0979146 0.0359414 -0.623496 0.0992008 0.0402409 -0.628705 0.100261 0.0440418 -0.633027 
0.101151 0.0473405 -0.636518 0.101914 0.0501469 -0.639247 0.102577 0.0524829 -0.6413 
0.103156 0.0543797 -0.642775 0.10366 0.0558744 -0.643777 0.104087 0.0570068 -0.644412 
0.104433 0.0578156 -0.644776 0.104693 0.0583353 -0.644958 0.104861 0.058593 -0.645023 
0.104933 0.0586062 -0.645017 
LINES 2 100
OFFSETS vtktypeint64
0 100 
CONNECTIVITY vtktypeint64
0 1 2 3 4 5 6 7 8 
9 10 11 12 13 14 15 16 17 
18 19 20 21 22 23 24 25 26 
27 28 29 30 31 32 33 34 35 
36 37 38 39 40 41 42 43 44 
45 46 47 48 49 50 51 52 53 
54 55 56 57 58 59 60 61 62 
63 64 65 66 67 68 69 70 71 
72 73 74 75 76 77 78 79 80 
81 82 83 84 85 86 87 88 89 
90 91 92 93 94 95 96 97 98 
99 
POINT_DATA 100
FIELD FieldData 3
_theta 1 100 double
0 0.031733259127 0.063466518254 0.095199777382 0.12693303651 0.15866629564 0.19039955476 0.22213281389 0.25386607302 
0.28559933214 0.31733259127 0.3490658504 0.38079910953 0.41253236865 0.44426562778 0.47599888691 0.50773214603 0.53946540516 
0.57119866429 0.60293192342 0.63466518254 0.66639844167 0.6981317008 0.72986495992 0.76159821905 0.79333147818 0.82506473731 
0.85679799643 0.88853125556 0.92026451469 0.95199777382 0.98373103294 1.0154642921 1.0471975512 1.0789308103 1.1106640695 
1.1423973286 1.1741305877 1.2058638468 1.237597106 1.2693303651 1.3010636242 1.3327968833 1.3645301425 1.3962634016 
1.4279966607 1.4597299198 1.491463179 1.5231964381 1.5549296972 1.5866629564 1.6183962155 1.6501294746 1.6818627337 
1.7135959929 1.745329252 1.7770625111 1.8087957702 1.8405290294 1.8722622885 1.9039955476 1.9357288068 1.9674620659 
1.999195325 2.0309285841 2.0626618433 2.0943951024 2.1261283615 2.1578616206 2.1895948798 2.2213281389 2.253061398 
2.2847946572 2.3165279163 2.3482611754 2.3799944345 2.4117276937 2.4434609528 2.4751942119 2.506927471 2.5386607302 
2.5703939893 2.6021272484 2.6338605076 2.6655937667 2.6973270258 2.7290602849 2.7607935441 2.7925268032 2.8242600623 
2.8559933214 2.8877265806 2.9194598397 2.9511930988 2.982926358 3.0146596171 3.0463928762 3.0781261353 3.1098593945 
3.1415926536 
_radius 1 100 double
2.8381687745e-16 0.015989962966 0.031843563448 0.047436596585 0.062662224197 0.077437170731 0.091705369979 0.10543889289 0.11863628462 
0.13131855704 0.14352304323 0.15529528214 0.16667928349 0.17770703594 0.18838881348 0.1987063058 0.20861043174 0.21802478124 
0.22685430221 0.23499766256 0.24236107191 0.24887129364 0.2544859246 0.25919955493 0.2630450284 0.26608967899 0.26842710615 
0.27016569714 0.27141556603 0.2722757174 0.27282303856 0.27310430958 0.27313198367 0.27288411962 0.27230850871 0.27133067065 
0.26986500915 0.26782808568 0.26515273712 0.26180161695 0.2577786528 0.2531369 0.24798139824 0.24246596967 0.23678343686 
0.23114945973 0.2257811272 0.22087273142 0.21657279254 0.21296773576 0.21007725709 0.2078633593 0.20625029148 0.20514887893 
0.20447795506 0.20417749816 0.20421107834 0.20455828175 0.20520074314 0.20610793163 0.20722931052 0.20849630897 0.20983207347 
0.21116344397 0.21243032621 0.21359067011 0.21462164447 0.21551828644 0.2162904755 0.21695839466 0.21754625295 0.2180741926 
0.21854898056 0.21895502361 0.21924790938 0.21935242643 0.21916566838 0.21856408869 0.2174123724 0.21557223476 0.21291028384 
0.20930507293 0.20465388444 0.19887956711 0.19193714218 0.18381925203 0.17455914318 0.16422993241 0.15293943489 0.14082072903 
0.12801966279 0.11468135976 0.10093816126 0.086901166897 0.072656646268 0.058267337283 0.043777407334 0.0292190353 0.014618462033 
1.0981050361e-15 
_area 1 100 double
0 0.00065793370089 0.0026197768365 0.0058497455426 0.010288084002 0.015850126537 0.022425165443 0.02987730095 0.038050944158 
0.046782438012 0.055917044609 0.06532834319 0.074935309241 0.084710805712 0.09467426392 0.10486374434 0.11529216896 0.12590547611 
0.13656301809 0.14704805706 0.15710171352 0.16646729066 0.17493181843 0.18235498328 0.18868178478 0.19394110998 0.19823310141 
0.20170582796 0.20452318711 0.20683107804 0.20873104445 0.21026644847 0.211420615 0.21212511822 0.21227770479 0.21176806706 
0.21050447214 0.20842219235 0.20543910179 0.20140662502 0.1961845219 0.18974596198 0.1822186309 0.17388085544 0.16512656331 
0.15640751666 0.14816566563 0.14077320989 0.13450073413 0.12950384429 0.12576714025 0.12309864286 0.12119229044 0.11968591076 
0.1182651702 0.11673902866 0.11505712808 0.11328827961 0.11157879336 0.11009224277 0.10893734475 0.1081208413 0.107560842 
0.10713989362 0.10675308807 0.10633170671 0.10584682765 0.10530540429 0.10474886778 0.10425747961 0.10395199154 0.10395840448 
0.10432327291 0.10499866434 0.10590411484 0.1069469449 0.10799804946 0.10887486911 0.10937212612 0.10928612525 0.1084132792 
0.10655435513 0.10353559744 0.099241106771 0.093645109152 0.086832364713 0.07899852051 0.070428307973 0.061456403462 0.052421341263 
0.043624855091 0.03530654537 0.027638255266 0.020736640032 0.014687205439 0.0095682848917 0.0054629547111 0.0024553428824 0.00061810649228 
1.290677779e-16 
