# vtk DataFile Version 5.1
vtk output
ASCII
DATASET POLYDATA
POINTS 100 float
0.0198471 0.0491405 -0.651484 0.0200217 0.0491084 -0.651715 0.020512 0.048735 -0.652311 
0.0212826 0.0480052 -0.653142 0.0222768 0.0468974 -0.654005 0.0234213 0.0453877 -0.654651 
0.0246309 0.0434535 -0.654801 0.0258139 0.0410776 -0.654184 0.0268773 0.0382526 -0.652556 
0.0277315 0.0349825 -0.649724 0.028294 0.0312849 -0.645558 0.0284914 0.02719 -0.640004 
0.0282615 0.0227397 -0.633075 0.0275529 0.0179843 -0.624844 0.0263256 0.0129799 -0.615429 
0.0245506 0.00778482 -0.604973 0.0222095 0.00245681 -0.593619 0.0192953 -0.00294843 -0.581498 
0.015813 -0.00837802 -0.568707 0.0117806 -0.0137813 -0.555304 0.00723058 -0.0191081 -0.541305 
0.00221067 -0.0243068 -0.526689 -0.00321618 -0.0293219 -0.511407 -0.00897306 -0.0340924 -0.495399 
-0.0149718 -0.0385515 -0.47861 -0.0211177 -0.0426274 -0.461 -0.0273148 -0.046246 -0.442568 
-0.0334734 -0.0493356 -0.423347 -0.0395165 -0.0518317 -0.403413 -0.045386 -0.0536836 -0.382879 
-0.0510478 -0.0548602 -0.361883 -0.0564933 -0.055354 -0.340572 -0.0617391 -0.055185 -0.319087 
-0.0668219 -0.0544001 -0.297546 -0.0717914 -0.0530715 -0.276025 -0.0767004 -0.051291 -0.254556 
-0.0815924 -0.0491631 -0.233115 -0.0864907 -0.0467959 -0.211629 -0.0913871 -0.0442919 -0.189982 
-0.0962345 -0.0417391 -0.168034 -0.100943 -0.0392044 -0.145634 -0.105382 -0.0367289 -0.122645 
-0.109383 -0.034327 -0.0989582 -0.112757 -0.0319892 -0.0745107 -0.115302 -0.0296873 -0.0492982 
-0.116826 -0.027383 -0.0233778 -0.117161 -0.0250378 0.00313222 -0.116182 -0.0226226 0.0300607 
-0.113818 -0.0201269 0.0571962 -0.110063 -0.0175655 0.0843035 -0.104974 -0.014981 0.111142 
-0.0986701 -0.0124437 0.137482 -0.091321 -0.0100464 0.163122 -0.083132 -0.00789599 0.187902 
-0.0743261 -0.00610285 0.211704 -0.0651242 -0.00476812 0.234465 -0.0557267 -0.0039717 0.256165 
-0.0462988 -0.00376169 0.276827 -0.036959 -0.00414693 0.29651 -0.0277756 -0.00509356 0.315292 
-0.0187673 -0.00652616 0.333269 -0.00991138 -0.0083334 0.350542 -0.00115516 -0.0103777 0.367209 
0.00756869 -0.012508 0.383365 0.0163263 -0.0145734 0.399094 0.025168 -0.0164376 0.414474 
0.0341164 -0.0179911 0.429572 0.0431594 -0.0191606 0.444446 0.0522483 -0.019914 0.459147 
0.0613014 -0.0202614 0.473716 0.0702127 -0.0202514 0.488183 0.0788634 -0.0199633 0.502565 
0.0871355 -0.0194964 0.516861 0.094926 -0.0189584 0.531052 0.102158 -0.0184521 0.545097 
0.108787 -0.0180655 0.558932 0.114809 -0.0178625 0.572473 0.120251 -0.0178779 0.585617 
0.125173 -0.018116 0.598253 0.129653 -0.0185528 0.610266 0.133774 -0.0191412 0.621546 
0.137614 -0.0198184 0.631997 0.141234 -0.0205148 0.641548 0.14467 -0.0211627 0.650155 
0.147927 -0.0217038 0.657807 0.150982 -0.022095 0.664525 0.153788 -0.022312 0.670359 
0.156283 -0.0223497 0.675383 0.158403 -0.0222208 0.679688 0.160094 -0.0219521 0.683371 
0.16132 -0.0215802 0.686526 0.162078 -0.0211456 0.689238 0.162398 -0.0206887 0.691576 
0.162342 -0.0202455 0.693589 0.162003 -0.0198453 0.695307 0.161493 -0.0195097 0.696742 
0.160929 -0.0192528 0.69789 0.160425 -0.0190828 0.698743 0.16007 -0.0190036 0.699287 
0.159927 -0.0190163 0.699511 
LINES 2 100
OFFSETS vtktypeint64
0 100 
CONNECTIVITY vtktypeint64
0 1 2 3 4 5 6 7 8 
9 10 11 12 13 14 15 16 17 
18 19 20 21 22 23 24 25 26 
27 28 29 30 31 32 33 34 35 
36 37 38 39 40 41 42 43 44 
45 46 47 48 49 50 51 52 53 
54 55 56 57 58 59 60 61 62 
63 64 65 66 67 68 69 70 71 
72 73 74 75 76 77 78 79 80 
81 82 83 84 85 86 87 88 89 
90 91 92 93 94 95 96 97 98 
99 
POINT_DATA 100
FIELD FieldData 3
_theta 1 100 double
0 0.031733259127 0.063466518254 0.095199777382 0.12693303651 0.15866629564 0.19039955476 0.22213281389 0.25386607302 
0.28559933214 0.31733259127 0.3490658504 0.38079910953 0.41253236865 0.44426562778 0.47599888691 0.50773214603 0.53946540516 
0.57119866429 0.60293192342 0.63466518254 0.66639844167 0.6981317008 0.72986495992 0.76159821905 0.79333147818 0.82506473731 
0.85679799643 0.88853125556 0.92026451469 0.95199777382 0.98373103294 1.0154642921 1.0471975512 1.0789308103 1.1106640695 
1.1423973286 1.1741305877 1.2058638468 1.237597106 1.2693303651 1.3010636242 1.3327968833 1.3645301425 1.3962634016 
1.4279966607 1.4597299198 1.491463179 1.5231964381 1.5549296972 1.5866629564 1.6183962155 1.6501294746 1.6818627337 
1.7135959929 1.745329252 1.7770625111 1.8087957702 1.8405290294 1.8722622885 1.9039955476 1.9357288068 1.9674620659 
1.999195325 2.0309285841 2.0626618433 2.0943951024 2.1261283615 2.1578616206 2.1895948798 2.2213281389 2.253061398 
2.2847946572 2.3165279163 2.3482611754 2.3799944345 2.4117276937 2.4434609528 2.4751942119 2.506927471 2.5386607302 
2.5703939893 2.6021272484 2.6338605076 2.6655937667 2.6973270258 2.7290602849 2.7607935441 2.7925268032 2.8242600623 
2.8559933214 2.8877265806 2.9194598397 2.9511930988 2.982926358 3.0146596171 3.0463928762 3.0781261353 3.1098593945 
3.1415926536 
_radius 1 100 double
1.1103314395e-15 0.013172552054 0.026226056449 0.039044060569 0.051533678626 0.063630306294 0.075295712416 0.086510701163 0.097264819553 
0.10754591842 0.11733191058 0.12658619356 0.13525721447 0.14328174216 0.15059077656 0.15711682823 0.16280152705 0.16760297759 
0.17150271128 0.17451224043 0.17667893141 0.17809024361 0.17887470687 0.17919786195 0.17925206602 0.17924041866 0.17935661014 
0.17976372016 0.18057556621 0.18184393071 0.18355380168 0.18562688388 0.18793187974 0.19029925478 0.1925384695 0.19445633716 
0.19587561031 0.19665286617 0.19669435707 0.19596801603 0.19450962291 0.19242154727 0.18986364606 0.18703771129 0.18416877418 
0.18148742847 0.17921605094 0.17755873015 0.17669197716 0.17675297295 0.17782448443 0.17991921863 0.18296922179 0.1868261631 
0.19127534396 0.19606141707 0.20091987918 0.20560742018 0.20992587672 0.21373714206 0.21696856008 0.21960968146 0.22170195357 
0.22332325044 0.22456940933 0.22553533644 0.22629872251 0.2269094651 0.22738681494 0.22772392668 0.22789691761 0.22787422009 
0.22762263131 0.22710844709 0.22629429487 0.22513386345 0.22356727354 0.22151938303 0.2189021922 0.21562116469 0.21158415084 
0.20671097501 0.2009417006 0.19424203211 0.18660510148 0.17804982244 0.16861683354 0.15836351015 0.14735940752 0.13568283957 
0.12341843548 0.11065492221 0.09748235158 0.083988461725 0.070254504886 0.056351339855 0.042336696162 0.028254283538 0.014134993167 
7.707369018e-16 
_area 1 100 double
0 0.00051529326949 0.0020494369441 0.0045694414582 0.0080251987549 0.012350033003 0.017455174203 0.023223167943 0.029506302175 
0.036128931228 0.042889246526 0.049560684613 0.055898739795 0.061659042603 0.066626547888 0.070647758055 0.073653464603 0.075661486535 
0.076756954074 0.077058972401 0.076691166286 0.075772399951 0.074434672206 0.072924508595 0.071790373774 0.070982566618 0.070533385638 
0.070537357109 0.0711287526 0.072390482306 0.074328430065 0.07690224725 0.080003444695 0.083453490447 0.087021463623 0.090453111479 
0.093501634225 0.095958329475 0.097684366146 0.098635205391 0.098867967988 0.098520592924 0.097764129219 0.096762359716 0.095665223356 
0.094619455089 0.093775824943 0.093290389568 0.09332292094 0.094033551918 0.095575658239 0.098082219514 0.10164011235 0.10623759824 
0.11170895131 0.11775435774 0.12399999347 0.13004518211 0.1355044816 0.14004871856 0.14344056388 0.14555886983 0.14640707475 
0.14610396682 0.14485901602 0.14293789711 0.14062527984 0.13819053345 0.13585889401 0.13378905446 0.13205936285 0.13066565735 
0.12953133341 0.12852600798 0.12748584837 0.12623109599 0.1245821582 0.12237494894 0.11947324084 0.1157776154 0.11123273007 
0.10583308444 0.09962478999 0.09270074289 0.085189452337 0.077241088466 0.069015433402 0.060674522233 0.05237937357 0.044288000512 
0.03655231185 0.02931355335 0.022697439509 0.016810111892 0.011735427954 0.0075339760445 0.0042444370789 0.0018875610314 0.00047196290318 
3.241516137e-17 
