# vtk DataFile Version 5.1
vtk output
ASCII
DATASET POLYDATA
POINTS 100 float
0.122636 0.0713993 -0.69723 0.122434 0.0713781 -0.697192 0.12188 0.0711261 -0.697023 
0.121021 0.0706148 -0.696636 0.119928 0.0697998 -0.6959 0.118682 0.0686235 -0.694658 
0.117359 0.067021 -0.692746 0.116015 0.0649249 -0.690018 0.114671 0.0622721 -0.68636 
0.113306 0.0590092 -0.681709 0.111851 0.0550978 -0.676055 0.110192 0.0505188 -0.669441 
0.108179 0.0452753 -0.661954 0.105636 0.0393942 -0.653709 0.102386 0.0329261 -0.64483 
0.0982673 0.0259437 -0.635425 0.0931516 0.0185391 -0.62557 0.0869655 0.01082 -0.615295 
0.0797005 0.00290574 -0.604571 0.0714192 -0.00507827 -0.593315 0.0622534 -0.0130046 -0.581395 
0.0523949 -0.0207483 -0.568648 0.0420791 -0.0281907 -0.5549 0.0315642 -0.0352227 -0.539986 
0.0211069 -0.0417464 -0.52378 0.0109382 -0.047677 -0.506206 0.00124237 -0.0529435 -0.487253 
-0.00786032 -0.0574885 -0.466981 -0.0163224 -0.0612683 -0.445516 -0.0241705 -0.0642524 -0.423033 
-0.0314984 -0.0664229 -0.399744 -0.0384516 -0.0677742 -0.375869 -0.0452064 -0.0683125 -0.351614 
-0.0519448 -0.0680563 -0.327147 -0.0588281 -0.0670356 -0.302586 -0.0659728 -0.0652927 -0.277985 
-0.0734308 -0.0628814 -0.253334 -0.0811764 -0.0598675 -0.228571 -0.0891016 -0.0563273 -0.203592 
-0.0970206 -0.0523471 -0.178273 -0.104683 -0.0480208 -0.152498 -0.111793 -0.0434483 -0.126176 
-0.118036 -0.0387321 -0.0992661 -0.123107 -0.0339744 -0.0717867 -0.126737 -0.0292738 -0.0438234 
-0.128716 -0.0247213 -0.0155262 -0.128917 -0.0203979 0.0129015 -0.127301 -0.016371 0.0412204 
-0.123924 -0.012693 0.0691763 -0.11893 -0.00939923 0.0965236 -0.112536 -0.00650839 0.123047 
-0.105011 -0.00402249 0.148579 -0.0966541 -0.00192869 0.173013 -0.0877685 -0.000201589 0.196305 
-0.0786351 0.00119373 0.218475 -0.0694928 0.0022982 0.239596 -0.0605231 0.00315509 0.25978 
-0.0518415 0.00380642 0.27916 -0.0434962 0.00428965 0.297876 -0.0354742 0.00463501 0.316059 
-0.0277131 0.00486356 0.333815 -0.0201175 0.00498616 0.351225 -0.0125773 0.0050034 0.368339 
-0.00498615 0.00490638 0.385179 0.00274153 0.00467851 0.401749 0.0106582 0.00429778 0.418042 
0.0187753 0.00373968 0.434048 0.0270609 0.00298024 0.449765 0.0354431 0.00199911 0.465201 
0.0438181 0.000782237 0.480375 0.0520619 -0.000675895 0.495315 0.0600443 -0.00237078 0.510051 
0.0676423 -0.00428725 0.52461 0.074753 -0.00639973 0.538998 0.0813036 -0.00867338 0.553203 
0.0872572 -0.011066 0.567181 0.0926143 -0.0135304 0.580858 0.0974103 -0.0160175 0.594132 
0.101709 -0.0184792 0.606883 0.105595 -0.0208712 0.618981 0.109159 -0.0231558 0.6303 
0.112492 -0.0253033 0.640734 0.115672 -0.0272937 0.650204 0.118758 -0.0291167 0.658677 
0.121784 -0.0307713 0.666159 0.124762 -0.0322644 0.672705 0.127678 -0.0336094 0.678404 
0.1305 -0.0348231 0.683375 0.133184 -0.0359243 0.68775 0.135683 -0.0369304 0.691658 
0.137953 -0.0378561 0.695213 0.139958 -0.0387116 0.698497 0.141675 -0.0395017 0.701559 
0.143098 -0.0402257 0.704407 0.144235 -0.0408781 0.707011 0.145107 -0.0414495 0.709316 
0.14574 -0.041928 0.711245 0.146163 -0.0423018 0.712721 0.146401 -0.0425603 0.713675 
0.146472 -0.0426957 0.714059 
LINES 2 100
OFFSETS vtktypeint64
0 100 
CONNECTIVITY vtktypeint64
0 1 2 3 4 5 6 7 8 
9 10 11 12 13 14 15 16 17 
18 19 20 21 22 23 24 25 26 
27 28 29 30 31 32 33 34 35 
36 37 38 39 40 41 42 43 44 
45 46 47 48 49 50 51 52 53 
54 55 56 57 58 59 60 61 62 
63 64 65 66 67 68 69 70 71 
72 73 74 75 76 77 78 79 80 
81 82 83 84 85 86 87 88 89 
90 91 92 93 94 95 96 97 98 
99 
POINT_DATA 100
FIELD FieldData 3
_theta 1 100 double
0 0.031733259127 0.063466518254 0.095199777382 0.12693303651 0.15866629564 0.19039955476 0.22213281389 0.25386607302 
0.28559933214 0.31733259127 0.3490658504 0.38079910953 0.41253236865 0.44426562778 0.47599888691 0.50773214603 0.53946540516 
0.57119866429 0.60293192342 0.63466518254 0.66639844167 0.6981317008 0.72986495992 0.76159821905 0.79333147818 0.82506473731 
0.85679799643 0.88853125556 0.92026451469 0.95199777382 0.98373103294 1.0154642921 1.0471975512 1.0789308103 1.1106640695 
1.1423973286 1.1741305877 1.2058638468 1.237597106 1.2693303651 1.3010636242 1.3327968833 1.3645301425 1.3962634016 
1.4279966607 1.4597299198 1.491463179 1.5231964381 1.5549296972 1.5866629564 1.6183962155 1.6501294746 1.6818627337 
1.7135959929 1.745329252 1.7770625111 1.8087957702 1.8405290294 1.8722622885 1.9039955476 1.9357288068 1.9674620659 
1.999195325 2.0309285841 2.0626618433 2.0943951024 2.1261283615 2.1578616206 2.1895948798 2.2213281389 2.253061398 
2.2847946572 2.3165279163 2.3482611754 2.3799944345 2.4117276937 2.4434609528 2.4751942119 2.506927471 2.5386607302 
2.5703939893 2.6021272484 2.6338605076 2.6655937667 2.6973270258 2.7290602849 2.7607935441 2.7925268032 2.8242600623 
2.8559933214 2.8877265806 2.9194598397 2.9511930988 2.982926358 3.0146596171 3.0463928762 3.0781261353 3.1098593945 
3.1415926536 
_radius 1 100 double
6.9027173507e-16 0.016493852335 0.032904336945 0.049142713911 0.065118540204 0.080741047439 0.095921766969 0.11057712611 0.12462948644 
0.13800556262 0.15063219884 0.16243070982 0.17331193294 0.18317438736 0.19190735107 0.19939942551 0.20555166879 0.21029311674 
0.2135958514 0.21548689365 0.21605500507 0.21545163002 0.21388618365 0.21161629352 0.20893342898 0.20614402266 0.20354626615 
0.2014036168 0.1999176511 0.19920468661 0.19928156415 0.20006516279 0.20138739434 0.20302344534 0.20472750508 0.2062686428 
0.20746035304 0.20817987069 0.20837647262 0.20807038168 0.20734481453 0.20633399383 0.20521077001 0.20417737901 0.20345947887 
0.2032989226 0.20393932078 0.20560166898 0.20845278739 0.21257401561 0.21793919866 0.22440854365 0.23173980545 0.23961347503 
0.24766631439 0.25552761348 0.26285365261 0.26935705546 0.27482872268 0.27915089528 0.2823006927 0.28434423231 0.28542217838 
0.28572829892 0.28548332701 0.2849070712 0.28419214837 0.28348269651 0.28286076387 0.28234173663 0.28187842796 0.28137184968 
0.28068581222 0.27966262724 0.27813806552 0.27595473271 0.27297363783 0.26908380939 0.26420957937 0.25831492275 0.25140421622 
0.24351902038 0.23473094217 0.22513120199 0.21481810655 0.20388411521 0.19240449856 0.18042961931 0.16798245839 0.15506200532 
0.14165163098 0.12773014959 0.11328273931 0.098309488195 0.082830551368 0.066888000368 0.05054503519 0.033883362366 0.01699942809 
2.4507431145e-16 
_area 1 100 double
0 0.00064244477092 0.0025799082656 0.005831695996 0.010399625892 0.016240319846 0.023248896871 0.031258476957 0.040052378761 
0.049382156364 0.058984722353 0.068594413135 0.077949231071 0.086792965486 0.094875667788 0.10195496355 0.10780169674 0.112214687 
0.1150462659 0.1162316993 0.11581027495 0.11393063632 0.11084482751 0.10691258386 0.10257731266 0.098150713176 0.094008349425 
0.09046445713 0.087863609834 0.086468531413 0.086498857863 0.087756475639 0.089971989034 0.092823190721 0.095985848072 0.099185652932 
0.10224497561 0.10512251466 0.10790243465 0.11065232919 0.11326526436 0.11553027328 0.1172949608 0.11855014772 0.11947814277 
0.12061585034 0.12248018668 0.12492121254 0.12831887762 0.13311887674 0.13966891573 0.1481024254 0.15828088967 0.16980464129 
0.18207082355 0.19435730158 0.20591888872 0.21608346732 0.22433493923 0.23037250053 0.23414361279 0.23586275236 0.23601741002 
0.23512743586 0.23343650951 0.23117182979 0.22862421363 0.22607441023 0.22373083731 0.22169016729 0.21992194805 0.21827687923 
0.21651333235 0.21433333351 0.21142015831 0.20747347425 0.20224161736 0.19555149372 0.18733410794 0.17764071103 0.16664450966 
0.1546255167 0.14193907732 0.12897127038 0.11608765163 0.1035854992 0.091661418522 0.080403035898 0.069806207602 0.05981187403 
0.05035176236 0.041389770406 0.032948046479 0.02511373494 0.018029366386 0.011873008065 0.006834039431 0.0030889563448 0.00078020776049 
3.6856301433e-17 
