# vtk DataFile Version 5.1
vtk output
ASCII
DATASET POLYDATA
POINTS 100 float
0.155871 0.0357446 -0.718107 0.155629 0.0358299 -0.718177 0.154865 0.0362268 -0.718291 
0.153602 0.0368789 -0.718338 0.151868 0.0376974 -0.718153 0.149704 0.0385677 -0.717528 
0.147152 0.0393582 -0.716238 0.144252 0.0399301 -0.714065 0.141038 0.0401478 -0.710823 
0.137534 0.0398889 -0.706374 0.133749 0.0390527 -0.700643 0.129678 0.0375676 -0.693621 
0.1253 0.0353956 -0.685365 0.120581 0.0325342 -0.675988 0.115478 0.0290158 -0.665639 
0.109942 0.0249045 -0.654489 0.103926 0.0202902 -0.642702 0.0973904 0.0152818 -0.630424 
0.0903105 0.00999845 -0.617757 0.0826791 0.00456169 -0.604756 0.074512 -0.000912967 -0.59142 
0.0658489 -0.00632254 -0.577699 0.0567524 -0.0115815 -0.563498 0.0473051 -0.0166247 -0.548693 
0.0376045 -0.0214077 -0.53315 0.0277558 -0.0259054 -0.51674 0.0178645 -0.0301082 -0.499356 
0.00802829 -0.0340178 -0.480924 -0.00166998 -0.0376414 -0.461416 -0.0111677 -0.0409863 -0.440844 
-0.0204257 -0.0440555 -0.419266 -0.0294284 -0.0468438 -0.396773 -0.0381816 -0.0493366 -0.373477 
-0.0467067 -0.0515096 -0.349502 -0.0550331 -0.0533304 -0.324969 -0.0631894 -0.0547625 -0.299986 
-0.0711936 -0.0557692 -0.274639 -0.0790441 -0.0563187 -0.248991 -0.0867131 -0.0563886 -0.22308 
-0.0941415 -0.0559699 -0.196928 -0.101238 -0.0550697 -0.170541 -0.107883 -0.053712 -0.143927 
-0.113932 -0.0519369 -0.1171 -0.119227 -0.049798 -0.0900897 -0.123608 -0.0473589 -0.0629473 
-0.126926 -0.0446878 -0.0357477 -0.129052 -0.0418533 -0.00858794 -0.129894 -0.038919 0.0184173 
-0.129399 -0.0359403 0.0451439 -0.127562 -0.0329619 0.0714671 -0.124427 -0.030017 0.097272 
-0.120079 -0.0271287 0.122462 -0.114644 -0.0243118 0.146966 -0.108272 -0.0215767 0.170744 
-0.101134 -0.0189336 0.193784 -0.0933999 -0.0163961 0.216104 -0.0852355 -0.0139846 0.237747 
-0.0767887 -0.0117281 0.258767 -0.068184 -0.00966463 0.279232 -0.0595194 -0.00783987 0.299206 
-0.0508663 -0.00630399 0.318748 -0.0422729 -0.00510736 0.337906 -0.03377 -0.00429537 0.356713 
-0.0253784 -0.00390318 0.375188 -0.0171162 -0.00395106 0.39334 -0.00900574 -0.00444089 0.411168 
-0.00107878 -0.00535444 0.428668 0.0066209 -0.00665361 0.445835 0.0140376 -0.00828275 0.462671 
0.0211068 -0.0101728 0.479177 0.0277598 -0.0122466 0.495366 0.033931 -0.0144257 0.511248 
0.0395648 -0.0166356 0.526836 0.0446226 -0.0188124 0.542136 0.0490881 -0.020906 0.557143 
0.0529704 -0.0228828 0.57184 0.0563042 -0.0247262 0.586191 0.0591476 -0.026434 0.600145 
0.0615766 -0.0280156 0.613632 0.0636785 -0.0294873 0.62657 0.0655431 -0.0308665 0.638872 
0.0672548 -0.0321675 0.650446 0.0688848 -0.033397 0.661211 0.0704853 -0.0345518 0.671099 
0.0720867 -0.0356181 0.680058 0.0736963 -0.036573 0.688064 0.0753014 -0.0373875 0.695114 
0.0768731 -0.0380311 0.701233 0.078373 -0.0384765 0.706465 0.0797595 -0.0387054 0.710875 
0.0809954 -0.0387125 0.714537 0.0820528 -0.0385084 0.717534 0.0829173 -0.0381207 0.719951 
0.0835895 -0.0375927 0.721865 0.0840841 -0.0369803 0.72335 0.084427 -0.0363469 0.724466 
0.0846506 -0.0357568 0.725265 0.0847882 -0.0352693 0.725784 0.0848687 -0.0349318 0.726052 
0.0849118 -0.0347748 0.726086 
LINES 2 100
OFFSETS vtktypeint64
0 100 
CONNECTIVITY vtktypeint64
0 1 2 3 4 5 6 7 8 
9 10 11 12 13 14 15 16 17 
18 19 20 21 22 23 24 25 26 
27 28 29 30 31 32 33 34 35 
36 37 38 39 40 41 42 43 44 
45 46 47 48 49 50 51 52 53 
54 55 56 57 58 59 60 61 62 
63 64 65 66 67 68 69 70 71 
72 73 74 75 76 77 78 79 80 
81 82 83 84 85 86 87 88 89 
90 91 92 93 94 95 96 97 98 
99 
POINT_DATA 100
FIELD FieldData 3
_theta 1 100 double
0 0.031733259127 0.063466518254 0.095199777382 0.12693303651 0.15866629564 0.19039955476 0.22213281389 0.25386607302 
0.28559933214 0.31733259127 0.3490658504 0.38079910953 0.41253236865 0.44426562778 0.47599888691 0.50773214603 0.53946540516 
0.57119866429 0.60293192342 0.63466518254 0.66639844167 0.6981317008 0.72986495992 0.76159821905 0.79333147818 0.82506473731 
0.85679799643 0.88853125556 0.92026451469 0.95199777382 0.98373103294 1.0154642921 1.0471975512 1.0789308103 1.1106640695 
1.1423973286 1.1741305877 1.2058638468 1.237597106 1.2693303651 1.3010636242 1.3327968833 1.3645301425 1.3962634016 
1.4279966607 1.4597299198 1.491463179 1.5231964381 1.5549296972 1.5866629564 1.6183962155 1.6501294746 1.6818627337 
1.7135959929 1.745329252 1.7770625111 1.8087957702 1.8405290294 1.8722622885 1.9039955476 1.9357288068 1.9674620659 
1.999195325 2.0309285841 2.0626618433 2.0943951024 2.1261283615 2.1578616206 2.1895948798 2.2213281389 2.253061398 
2.2847946572 2.3165279163 2.3482611754 2.3799944345 2.4117276937 2.4434609528 2.4751942119 2.506927471 2.5386607302 
2.5703939893 2.6021272484 2.6338605076 2.6655937667 2.6973270258 2.7290602849 2.7607935441 2.7925268032 2.8242600623 
2.8559933214 2.8877265806 2.9194598397 2.9511930988 2.982926358 3.0146596171 3.0463928762 3.0781261353 3.1098593945 
3.1415926536 
_radius 1 100 double
8.3601434008e-16 0.016602678945 0.033079284883 0.049303943233 0.065156794855 0.080526735374 0.095313619347 0.10942981101 0.12280093143 
0.13536569798 0.14707490369 0.15788977482 0.16778009088 0.17672250226 0.18469943137 0.19169881266 0.19771474851 0.20274897239 
0.20681285989 0.20992964644 0.21213651019 0.21348623664 0.21404824562 0.21390878322 0.21317005327 0.21194803468 0.21036875972 
0.20856294192 0.20665903446 0.20477509088 0.20301023426 0.20143707507 0.2000968075 0.19899859727 0.19812405318 0.19743624648 
0.19689143923 0.196450952 0.19609068306 0.19580656324 0.19561541805 0.19555207704 0.1956648217 0.19601175633 0.19665968426 
0.19768471195 0.19917157751 0.20120832398 0.20387477667 0.20722621242 0.21127606278 0.21598239776 0.22124206502 0.22689430147 
0.2327333616 0.23852796276 0.24404437311 0.24906969669 0.25343221917 0.25701642967 0.25977132232 0.26171156031 0.26291187162 
0.26349557721 0.26361847785 0.26344955416 0.2631501692 0.26285375143 0.262648222 0.26256353833 0.26256641853 0.26256342911 
0.26241221561 0.26193905363 0.26095961521 0.25929938778 0.25681072646 0.25338476158 0.24895773485 0.24351229478 0.2370746589 
0.22970847621 0.22150597591 0.21257683447 0.20303528308 0.19298633057 0.18251249743 0.17166295096 0.16044713879 0.14883467661 
0.13676224964 0.12414683383 0.11090311719 0.09696211851 0.082287899353 0.066889833895 0.050828841506 0.034217011016 0.0172109622 
1.7911250493e-16 
_area 1 100 double
0 0.00060183248781 0.0024165137248 0.0054639250453 0.0097542196264 0.0152616898 0.021902123885 0.029521258383 0.037897402892 
0.046756525452 0.055795106709 0.06470526773 0.073197443858 0.081017535438 0.08795750712 0.093860363685 0.098621774674 0.1021908706 
0.10457172388 0.10582515639 0.10606871759 0.10547198652 0.10424513915 0.10261962217 0.10081719644 0.09900720363 0.097295232285 
0.095763292724 0.094483574789 0.09349286191 0.092799137436 0.092413873976 0.092358318056 0.092647724823 0.093280955651 0.094237007971 
0.095474019001 0.096938255006 0.098576288989 0.10034195186 0.10219282336 0.10408345677 0.10596424085 0.10779046655 0.10954330775 
0.11125988167 0.11306160083 0.11516540872 0.11786543824 0.12147871841 0.12625825172 0.1323032539 0.13951097122 0.1475858146 
0.15609409409 0.1645429646 0.17246215557 0.17947261401 0.1853306179 0.18993916875 0.19332469278 0.1955881004 0.19685148104 
0.19722556862 0.1968104543 0.19571885509 0.19409525797 0.19210880299 0.18992375168 0.18767255111 0.18544143172 0.18325796037 
0.18107691703 0.17877318372 0.17615176757 0.17297834301 0.16902241204 0.16409769637 0.15808943672 0.15096903656 0.14279923309 
0.13372863163 0.12397315103 0.11378587973 0.1034214444 0.093103310023 0.083001734801 0.073226325217 0.063832252346 0.054836558036 
0.046240896424 0.03805669346 0.030327206075 0.023140527891 0.016629862436 0.010961429249 0.0063139609899 0.0028553464082 0.00072141564738 
1.215660365e-17 
