# vtk DataFile Version 5.1
vtk output
ASCII
DATASET POLYDATA
POINTS 100 float
0.118693 -0.0355465 0.651951 0.11881 -0.0356714 0.651973 0.119159 -0.035902 0.651899 
0.119688 -0.0362058 0.651705 0.120319 -0.0365327 0.651354 0.120959 -0.036821 0.650794 
0.121507 -0.0370052 0.649957 0.12187 -0.0370236 0.648764 0.121972 -0.0368257 0.647122 
0.121761 -0.0363785 0.644935 0.121211 -0.0356703 0.6421 0.120323 -0.0347118 0.638524 
0.119117 -0.0335352 0.63412 0.117624 -0.0321901 0.628825 0.115875 -0.0307379 0.622596 
0.113892 -0.0292451 0.615424 0.111678 -0.0277759 0.607329 0.10921 -0.0263855 0.598363 
0.106443 -0.0251146 0.588609 0.103304 -0.0239861 0.578169 0.0997119 -0.0230041 0.56716 
0.0955781 -0.0221547 0.555704 0.0908263 -0.0214092 0.543915 0.085403 -0.0207293 0.531894 
0.079289 -0.0200724 0.519715 0.0725068 -0.0193978 0.507427 0.0651226 -0.0186717 0.495046 
0.057243 -0.0178719 0.482562 0.0490059 -0.0169901 0.469935 0.0405673 -0.0160327 0.457112 
0.0320848 -0.01502 0.444026 0.0237015 -0.0139839 0.430609 0.01553 -0.012964 0.4168 
0.00764187 -0.0120039 0.402548 6.11769e-05 -0.0111469 0.387816 -0.00723448 -0.0104331 0.372586 
-0.0143069 -0.00989585 0.356851 -0.021244 -0.00956135 0.340612 -0.0281429 -0.00944762 0.323877 
-0.0350897 -0.00956555 0.30665 -0.0421413 -0.00992022 0.288928 -0.0493093 -0.0105127 0.270696 
-0.0565494 -0.011342 0.251927 -0.0637574 -0.0124057 0.232585 -0.070774 -0.0137017 0.212627 
-0.077395 -0.0152272 0.19201 -0.0833897 -0.0169783 0.170698 -0.0885222 -0.0189484 0.148672 
-0.0925748 -0.0211266 0.125937 -0.0953704 -0.0234961 0.102524 -0.0967904 -0.0260328 0.0784945 
-0.0967878 -0.0287046 0.0539393 -0.0953912 -0.0314717 0.0289725 -0.0927023 -0.0342878 0.00372436 
-0.0888846 -0.0371015 -0.0216679 -0.0841461 -0.0398591 -0.047071 -0.0787183 -0.0425071 -0.0723657 
-0.0728325 -0.0449944 -0.0974546 -0.0666985 -0.0472743 -0.122268 -0.0604855 -0.0493058 -0.146765 
-0.0543094 -0.0510534 -0.170931 -0.0482266 -0.052487 -0.194774 -0.0422349 -0.0535797 -0.218314 
-0.0362813 -0.0543061 -0.241573 -0.0302752 -0.0546404 -0.264566 -0.0241047 -0.0545544 -0.287291 
-0.0176547 -0.0540166 -0.309724 -0.0108236 -0.0529922 -0.331812 -0.0035378 -0.0514445 -0.353479 
0.00423919 -0.0493371 -0.374627 0.0125019 -0.046638 -0.395145 0.021204 -0.0433232 -0.414922 
0.0302634 -0.0393815 -0.433854 0.0395719 -0.0348184 -0.451858 0.0490055 -0.0296592 -0.468881 
0.0584363 -0.0239506 -0.4849 0.0677424 -0.0177609 -0.499933 0.0768154 -0.0111781 -0.514027 
0.0855657 -0.00430617 -0.527257 0.0939233 0.00273991 -0.539712 0.101836 0.00984016 -0.551488 
0.109267 0.0168762 -0.562674 0.116188 0.0237373 -0.573342 0.122576 0.0303261 -0.583539 
0.128408 0.0365625 -0.59328 0.133663 0.0423861 -0.602554 0.138318 0.0477571 -0.611323 
0.142352 0.0526548 -0.619529 0.145754 0.0570755 -0.627108 0.148522 0.0610286 -0.633994 
0.150673 0.0645326 -0.640135 0.152245 0.0676109 -0.645496 0.153296 0.0702879 -0.650067 
0.153905 0.0725861 -0.653864 0.15417 0.0745244 -0.656926 0.154194 0.0761165 -0.659307 
0.154081 0.0773717 -0.661073 0.153928 0.078295 -0.662286 0.153808 0.0788881 -0.662999 
0.153772 0.0791511 -0.663246 
LINES 2 100
OFFSETS vtktypeint64
0 100 
CONNECTIVITY vtktypeint64
0 1 2 3 4 5 6 7 8 
9 10 11 12 13 14 15 16 17 
18 19 20 21 22 23 24 25 26 
27 28 29 30 31 32 33 34 35 
36 37 38 39 40 41 42 43 44 
45 46 47 48 49 50 51 52 53 
54 55 56 57 58 59 60 61 62 
63 64 65 66 67 68 69 70 71 
72 73 74 75 76 77 78 79 80 
81 82 83 84 85 86 87 88 89 
90 91 92 93 94 95 96 97 98 
99 
POINT_DATA 100
FIELD FieldData 3
_theta 1 100 double
0 0.031733259127 0.063466518254 0.095199777382 0.12693303651 0.15866629564 0.19039955476 0.22213281389 0.25386607302 
0.28559933214 0.31733259127 0.3490658504 0.38079910953 0.41253236865 0.44426562778 0.47599888691 0.50773214603 0.53946540516 
0.57119866429 0.60293192342 0.63466518254 0.66639844167 0.6981317008 0.72986495992 0.76159821905 0.79333147818 0.82506473731 
0.85679799643 0.88853125556 0.92026451469 0.95199777382 0.98373103294 1.0154642921 1.0471975512 1.0789308103 1.1106640695 
1.1423973286 1.1741305877 1.2058638468 1.237597106 1.2693303651 1.3010636242 1.3327968833 1.3645301425 1.3962634016 
1.4279966607 1.4597299198 1.491463179 1.5231964381 1.5549296972 1.5866629564 1.6183962155 1.6501294746 1.6818627337 
1.7135959929 1.745329252 1.7770625111 1.8087957702 1.8405290294 1.8722622885 1.9039955476 1.9357288068 1.9674620659 
1.999195325 2.0309285841 2.0626618433 2.0943951024 2.1261283615 2.1578616206 2.1895948798 2.2213281389 2.253061398 
2.2847946572 2.3165279163 2.3482611754 2.3799944345 2.4117276937 2.4434609528 2.4751942119 2.506927471 2.5386607302 
2.5703939893 2.6021272484 2.6338605076 2.6655937667 2.6973270258 2.7290602849 2.7607935441 2.7925268032 2.8242600623 
2.8559933214 2.8877265806 2.9194598397 2.9511930988 2.982926358 3.0146596171 3.0463928762 3.0781261353 3.1098593945 
3.1415926536 
_radius 1 100 double
1.4304896245e-16 0.014276747753 0.028539625017 0.042765224099 0.056921206422 0.07096433305 0.08484053511 0.098486826629 0.11183449858 
0.12481287366 0.13735296333 0.14939059012 0.16086880889 0.17173966454 0.18196538879 0.19151906858 0.20038470426 0.2085565421 
0.21603768707 0.22283823799 0.22897340319 0.23446211409 0.23932649597 0.24359222578 0.24728942222 0.25045341433 0.25312463911 
0.25534708552 0.25716510469 0.25861892283 0.25973964049 0.26054470208 0.26103470348 0.2611920614 0.26098170061 0.26035370002 
0.25924780118 0.25759969648 0.25534892639 0.25244797171 0.24887179373 0.24462676724 0.23975776284 0.23435211343 0.22853936429 
0.22248605539 0.21638531414 0.21044175467 0.2048531094 0.19979112019 0.19538517688 0.19171229811 0.18879556323 0.18661019271 
0.18509370021 0.18415583841 0.18368597773 0.18355866743 0.18364016447 0.18379828634 0.18391555331 0.18390311915 0.18371201778 
0.18333892026 0.18282508036 0.18224864256 0.18171162832 0.18132363573 0.18118459591 0.18136884994 0.18191242666 0.18280487097 
0.18398643169 0.18535086824 0.18675349829 0.18802339613 0.18897804082 0.18943841613 0.18924266566 0.18825683209 0.18638180176 
0.18355617424 0.17975526756 0.17498680747 0.16928405615 0.16269727019 0.15528449324 0.14710278954 0.13820106297 0.12861550545 
0.11836842459 0.10747071585 0.095927644624 0.083747002794 0.070948225371 0.057570798814 0.043680330552 0.029370996572 0.014763694867 
4.5141217323e-16 
_area 1 100 double
0 0.00054306004029 0.0021677934617 0.0048598435147 0.008592167179 0.013321295974 0.018983839808 0.025494602653 0.032747501402 
0.040619961792 0.048980654071 0.057699357875 0.066656531759 0.075749378577 0.084892042405 0.09401067111 0.10303728868 0.11190617202 
0.12055305961 0.12891526478 0.13693153219 0.14454221377 0.15169079103 0.15832696057 0.16441079437 0.16991723799 0.17483965109 
0.1791903275 0.18299615703 0.18628938832 0.18909598908 0.19142579053 0.19326819836 0.19459474121 0.1953661575 0.1955376057 
0.1950518802 0.19381973426 0.19171734731 0.18862276749 0.18446005971 0.17922461423 0.17299271319 0.16592169691 0.15824167849 
0.15023796314 0.14222495027 0.13451439763 0.12738046416 0.12102304221 0.11553626418 0.11089892047 0.10700089865 0.10369610998 
0.10089958294 0.098800861137 0.096964360628 0.095290087117 0.093725039601 0.092247602969 0.09082988845 0.089430311505 0.08801456793 
0.08658287298 0.085193991182 0.084009662198 0.08309762774 0.082575881788 0.08252433818 0.082963284426 0.083856587034 0.085126745911 
0.086668499444 0.08835703815 0.090093857682 0.091785674929 0.093140645385 0.093971666043 0.094118860666 0.09346082201 0.091921734881 
0.089473200171 0.0861312363 0.081949627923 0.0770117294 0.071422634027 0.065302764084 0.058782998903 0.052000842174 0.045097131165 
0.038213312936 0.031489820631 0.025066026405 0.01908149645 0.013677235017 0.0089949742626 0.0051728512561 0.0023369948094 0.00059016217062 
4.705108807e-17 
