# vtk DataFile Version 5.1
vtk output
ASCII
DATASET POLYDATA
POINTS 100 float
0.0686803 0.0191352 -0.693881 0.0686369 0.0190918 -0.694005 0.0685024 0.0187643 -0.69437 
0.0682611 0.0181835 -0.694845 0.0678883 0.0173956 -0.695225 0.0673511 0.0164541 -0.69526 
0.0666107 0.0154112 -0.694677 0.0656238 0.0143078 -0.693215 0.0643447 0.0131661 -0.69065 
0.0627272 0.0119839 -0.686818 0.0607255 0.0107326 -0.68163 0.0582956 0.00935914 -0.675078 
0.0553965 0.00779133 -0.667229 0.0519909 0.00594669 -0.658212 0.0480461 0.00374303 -0.648196 
0.0435358 0.00110989 -0.637366 0.0384413 -0.00200085 -0.625899 0.0327534 -0.00560648 -0.61394 
0.0264748 -0.00968821 -0.601587 0.0196216 -0.0141898 -0.588875 0.012225 -0.0190206 -0.575783 
0.00433201 -0.0240614 -0.562236 -0.00399481 -0.0291748 -0.548118 -0.0126791 -0.0342157 -0.533293 
-0.0216337 -0.0390428 -0.517625 -0.0307647 -0.0435297 -0.500994 -0.0399772 -0.0475723 -0.483317 
-0.0491805 -0.0510947 -0.464553 -0.0582937 -0.0540503 -0.444711 -0.0672506 -0.05642 -0.423844 
-0.0760025 -0.0582079 -0.402038 -0.0845188 -0.0594339 -0.379402 -0.0927862 -0.0601267 -0.356048 
-0.100804 -0.0603161 -0.332079 -0.108578 -0.0600275 -0.307573 -0.116114 -0.0592782 -0.282579 
-0.123405 -0.058077 -0.257109 -0.130428 -0.0564257 -0.231151 -0.137137 -0.0543235 -0.204672 
-0.143453 -0.0517731 -0.177632 -0.149272 -0.0487861 -0.150005 -0.154459 -0.0453892 -0.121791 
-0.158861 -0.0416276 -0.0930258 -0.162316 -0.0375666 -0.0637948 -0.164664 -0.03329 -0.0342303 
-0.165763 -0.028896 -0.00450798 -0.165499 -0.02449 0.0251633 -0.163805 -0.0201769 0.0545576 
-0.160662 -0.0160524 0.0834494 -0.15611 -0.0121948 0.111632 -0.150242 -0.00865883 0.138936 
-0.143204 -0.00547257 0.165236 -0.135181 -0.00263704 0.190467 -0.126386 -0.000129288 0.214614 
-0.117041 0.00209156 0.237717 -0.107364 0.00407619 0.259853 -0.0975513 0.00587598 0.281126 
-0.0877645 0.007534 0.301649 -0.0781237 0.00907752 0.321532 -0.0687026 0.0105129 0.340867 
-0.0595298 0.0118236 0.359721 -0.0505954 0.0129716 0.378133 -0.04186 0.0139022 0.396117 
-0.0332677 0.0145509 0.413664 -0.0247589 0.0148525 0.430756 -0.0162826 0.0147499 0.447372 
-0.00780664 0.0142029 0.463502 0.000676003 0.0131941 0.47915 0.00914442 0.0117327 0.49434 
0.0175518 0.00985468 0.509118 0.0258308 0.0076202 0.52354 0.0339024 0.00510755 0.537673 
0.041686 0.00240554 0.551575 0.0491093 -0.000395167 0.565293 0.0561182 -0.00321053 0.578844 
0.0626827 -0.0059703 0.592214 0.0688005 -0.008623 0.605355 0.0744967 -0.0111382 0.618182 
0.0798194 -0.0135056 0.630585 0.0848327 -0.0157322 0.642439 0.0896082 -0.0178363 0.653615 
0.0942146 -0.0198418 0.663996 0.098709 -0.0217708 0.673492 0.103129 -0.0236387 0.682048 
0.107491 -0.0254496 0.68965 0.111782 -0.027195 0.696329 0.115972 -0.0288544 0.702154 
0.120009 -0.0303983 0.707224 0.123833 -0.0317931 0.711655 0.127382 -0.0330067 0.715565 
0.130598 -0.0340142 0.719064 0.133439 -0.0348027 0.722237 0.135879 -0.0353744 0.725139 
0.137911 -0.0357474 0.727791 0.139549 -0.0359542 0.730181 0.140819 -0.036038 0.73227 
0.141756 -0.0360472 0.734002 0.1424 -0.0360291 0.735317 0.142781 -0.0360235 0.73616 
0.142922 -0.0360572 0.736493 
LINES 2 100
OFFSETS vtktypeint64
0 100 
CONNECTIVITY vtktypeint64
0 1 2 3 4 5 6 7 8 
9 10 11 12 13 14 15 16 17 
18 19 20 21 22 23 24 25 26 
27 28 29 30 31 32 33 34 35 
36 37 38 39 40 41 42 43 44 
45 46 47 48 49 50 51 52 53 
54 55 56 57 58 59 60 61 62 
63 64 65 66 67 68 69 70 71 
72 73 74 75 76 77 78 79 80 
81 82 83 84 85 86 87 88 89 
90 91 92 93 94 95 96 97 98 
99 
POINT_DATA 100
FIELD FieldData 3
_theta 1 100 double
0 0.031733259127 0.063466518254 0.095199777382 0.12693303651 0.15866629564 0.19039955476 0.22213281389 0.25386607302 
0.28559933214 0.31733259127 0.3490658504 0.38079910953 0.41253236865 0.44426562778 0.47599888691 0.50773214603 0.53946540516 
0.57119866429 0.60293192342 0.63466518254 0.66639844167 0.6981317008 0.72986495992 0.76159821905 0.79333147818 0.82506473731 
0.85679799643 0.88853125556 0.92026451469 0.95199777382 0.98373103294 1.0154642921 1.0471975512 1.0789308103 1.1106640695 
1.1423973286 1.1741305877 1.2058638468 1.237597106 1.2693303651 1.3010636242 1.3327968833 1.3645301425 1.3962634016 
1.4279966607 1.4597299198 1.491463179 1.5231964381 1.5549296972 1.5866629564 1.6183962155 1.6501294746 1.6818627337 
1.7135959929 1.745329252 1.7770625111 1.8087957702 1.8405290294 1.8722622885 1.9039955476 1.9357288068 1.9674620659 
1.999195325 2.0309285841 2.0626618433 2.0943951024 2.1261283615 2.1578616206 2.1895948798 2.2213281389 2.253061398 
2.2847946572 2.3165279163 2.3482611754 2.3799944345 2.4117276937 2.4434609528 2.4751942119 2.506927471 2.5386607302 
2.5703939893 2.6021272484 2.6338605076 2.6655937667 2.6973270258 2.7290602849 2.7607935441 2.7925268032 2.8242600623 
2.8559933214 2.8877265806 2.9194598397 2.9511930988 2.982926358 3.0146596171 3.0463928762 3.0781261353 3.1098593945 
3.1415926536 
_radius 1 100 double
5.6218959519e-16 0.013905470538 0.027812646236 0.041716617042 0.055605061444 0.069453803816 0.083222254789 0.096849472872 0.11025173183 
0.12332231825 0.13593389874 0.14794336353 0.15919873225 0.16954756051 0.17884626865 0.18696983455 0.19382127892 0.19934030366 
0.20351035558 0.20636333029 0.20798115119 0.20849358381 0.20807189303 0.20691833629 0.20525202097 0.20329231191 0.20124165166 
0.19927014467 0.19750428489 0.19602156729 0.1948514626 0.19398174802 0.19336808538 0.19294449648 0.19263307774 0.19235262248 
0.1920271748 0.1915959463 0.19102467739 0.19031608089 0.189515512 0.18870876602 0.18801148497 0.18755284042 0.18745852717 
0.18783816579 0.18877955788 0.19034849204 0.19259040146 0.19553022915 0.19916873823 0.20347596294 0.20838446988 0.21378584724 
0.21953306685 0.22544946033 0.23134295992 0.23702287596 0.24231615375 0.24708057631 0.25121337039 0.25465478821 0.25738718976 
0.25943070982 0.26083666309 0.26167954901 0.26204814895 0.26203600281 0.26173155946 0.26120842755 0.26051635118 0.25967383678 
0.25866372168 0.25743301223 0.25589753408 0.25395051441 0.25147316794 0.24834539729 0.24445548617 0.23970836908 0.23403231922 
0.22738380408 0.2197500811 0.21114906974 0.20162627315 0.19124904195 0.18009913414 0.16826504384 0.15583563052 0.14289603964 
0.12952597367 0.11579952877 0.10178548135 0.087547156413 0.073141561081 0.058617978106 0.044016523541 0.029367307089 0.014690824816 
1.9660520394e-15 
_area 1 100 double
0 0.00056134656524 0.0022374244532 0.0050065525602 0.0088383489692 0.013697602151 0.019542871913 0.026318096702 0.033939147983 
0.042279978109 0.051163359278 0.060359529078 0.06959368751 0.078561392371 0.08694980906 0.094462170147 0.10084235101 0.105896252 
0.10950712095 0.11164336631 0.11235919638 0.11178900123 0.11013543346 0.10765059628 0.10461112903 0.10129064057 0.097935050982 
0.094746197935 0.091876072396 0.089430274798 0.08747703212 0.086056001641 0.085179552789 0.084824038177 0.084917902393 0.085338448364 
0.085927571746 0.086530563852 0.087051904151 0.087509159305 0.088037686861 0.088778846742 0.089751334282 0.090881970697 0.09209071429 
0.093338145676 0.094647178051 0.096110553571 0.097888001349 0.10019148097 0.10325321121 0.10727554291 0.11237462126 0.11853771509 
0.12560672335 0.13328824905 0.14118633481 0.14885368207 0.15585338584 0.1618187048 0.16650003843 0.16979848626 0.17181096871 
0.17294052079 0.1737558078 0.17411383688 0.17382781895 0.1729501337 0.17158313127 0.16984600896 0.16785439838 0.16569552086 
0.16340208003 0.16094115873 0.15822848275 0.15515486748 0.15160672937 0.14747706461 0.14267301978 0.13712517201 0.13079845128 
0.12370127682 0.11588952277 0.1074634824 0.09855739107 0.089322717808 0.07990953668 0.070453905126 0.061078471762 0.051904831348 
0.043066415907 0.03471142352 0.026994526596 0.020062912284 0.014042926026 0.0090314360639 0.0050935809353 0.0022664618319 0.00056683459838 
3.0024184639e-17 
