# vtk DataFile Version 5.1
vtk output
ASCII
DATASET POLYDATA
POINTS 100 float
0.174781 0.0679458 -0.62579 0.174743 0.0678348 -0.625797 0.174565 0.0676478 -0.62575 
0.174229 0.0673619 -0.625584 0.173707 0.0669408 -0.625202 0.172959 0.0663363 -0.624481 
0.171937 0.0654899 -0.623292 0.170582 0.0643364 -0.621506 0.168829 0.0628068 -0.619016 
0.16661 0.0608328 -0.615739 0.163855 0.0583516 -0.611624 0.160497 0.0553106 -0.606658 
0.156478 0.0516727 -0.600857 0.151751 0.0474204 -0.594261 0.146288 0.0425597 -0.586922 
0.140082 0.0371218 -0.578897 0.133151 0.031164 -0.570232 0.125536 0.0247679 -0.560955 
0.117305 0.0180364 -0.551071 0.108549 0.0110884 -0.54056 0.0993748 0.00405281 -0.529377 
0.0899 -0.00293855 -0.517462 0.0802459 -0.0097581 -0.504745 0.0705277 -0.0162889 -0.491161 
0.0608465 -0.0224301 -0.476657 0.0512814 -0.0281002 -0.461203 0.0418844 -0.0332389 -0.444796 
0.0326772 -0.0378064 -0.427463 0.0236507 -0.0417809 -0.409259 0.0147692 -0.0451551 -0.390262 
0.00597649 -0.0479311 -0.370561 -0.00279461 -0.0501157 -0.350251 -0.0116108 -0.051716 -0.329416 
-0.0205261 -0.0527368 -0.308125 -0.0295697 -0.0531786 -0.286422 -0.0387356 -0.0530384 -0.264328 
-0.0479752 -0.0523123 -0.241838 -0.0571931 -0.0509991 -0.21893 -0.0662485 -0.0491051 -0.195574 
-0.0749601 -0.0466497 -0.17174 -0.0831165 -0.0436697 -0.147416 -0.0904899 -0.0402227 -0.122612 
-0.0968524 -0.0363884 -0.097373 -0.101994 -0.0322679 -0.0717813 -0.105739 -0.0279799 -0.0459554 
-0.107961 -0.0236558 -0.0200457 -0.108598 -0.0194311 0.00577491 -0.107652 -0.0154379 0.0313236 
-0.105195 -0.0117955 0.0564214 -0.101364 -0.00860246 0.0809074 -0.0963499 -0.00593037 0.104651 
-0.0903808 -0.00381931 0.12756 -0.0837076 -0.00227663 0.149589 -0.0765832 -0.00127831 0.170734 
-0.0692441 -0.00077317 0.191033 -0.0618937 -0.000689217 0.210556 -0.05469 -0.000941601 0.229395 
-0.0477375 -0.00144117 0.247651 -0.0410851 -0.00210277 0.265424 -0.0347295 -0.00285242 0.282801 
-0.0286231 -0.00363268 0.29985 -0.0226865 -0.0044057 0.316616 -0.0168226 -0.00515386 0.33312 
-0.0109326 -0.00587803 0.349364 -0.00492948 -0.0065939 0.365334 0.00124931 -0.00732696 0.381009 
0.00763404 -0.00810677 0.396366 0.0142187 -0.00896139 0.411388 0.0209619 -0.00991254 0.426068 
0.0277917 -0.0109721 0.440407 0.0346142 -0.0121402 0.454417 0.0413241 -0.0134052 0.468116 
0.0478166 -0.0147451 0.481521 0.0539978 -0.0161302 0.494646 0.0597946 -0.017527 0.507493 
0.06516 -0.0189016 0.520046 0.0700765 -0.0202239 0.532274 0.0745549 -0.0214699 0.544129 
0.0786301 -0.022624 0.555547 0.0823539 -0.0236793 0.566456 0.0857871 -0.0246375 0.576784 
0.0889902 -0.0255069 0.586464 0.0920155 -0.0263006 0.595444 0.0949009 -0.0270336 0.603691 
0.097666 -0.0277206 0.611195 0.100311 -0.028374 0.61797 0.10282 -0.0290018 0.624053 
0.105164 -0.0296078 0.629496 0.107306 -0.030191 0.634363 0.109212 -0.0307467 0.638718 
0.110853 -0.0312676 0.642622 0.112212 -0.0317453 0.646121 0.113291 -0.0321715 0.649246 
0.114103 -0.0325393 0.652009 0.11468 -0.0328437 0.654404 0.115063 -0.0330818 0.656411 
0.115298 -0.0332527 0.658001 0.115432 -0.0333567 0.659142 0.115502 -0.0333945 0.659807 
0.115533 -0.0333671 0.659978 
LINES 2 100
OFFSETS vtktypeint64
0 100 
CONNECTIVITY vtktypeint64
0 1 2 3 4 5 6 7 8 
9 10 11 12 13 14 15 16 17 
18 19 20 21 22 23 24 25 26 
27 28 29 30 31 32 33 34 35 
36 37 38 39 40 41 42 43 44 
45 46 47 48 49 50 51 52 53 
54 55 56 57 58 59 60 61 62 
63 64 65 66 67 68 69 70 71 
72 73 74 75 76 77 78 79 80 
81 82 83 84 85 86 87 88 89 
90 91 92 93 94 95 96 97 98 
99 
POINT_DATA 100
FIELD FieldData 3
_theta 1 100 double
0 0.031733259127 0.063466518254 0.095199777382 0.12693303651 0.15866629564 0.19039955476 0.22213281389 0.25386607302 
0.28559933214 0.31733259127 0.3490658504 0.38079910953 0.41253236865 0.44426562778 0.47599888691 0.50773214603 0.53946540516 
0.57119866429 0.60293192342 0.63466518254 0.66639844167 0.6981317008 0.72986495992 0.76159821905 0.79333147818 0.82506473731 
0.85679799643 0.88853125556 0.92026451469 0.95199777382 0.98373103294 1.0154642921 1.0471975512 1.0789308103 1.1106640695 
1.1423973286 1.1741305877 1.2058638468 1.237597106 1.2693303651 1.3010636242 1.3327968833 1.3645301425 1.3962634016 
1.4279966607 1.4597299198 1.491463179 1.5231964381 1.5549296972 1.5866629564 1.6183962155 1.6501294746 1.6818627337 
1.7135959929 1.745329252 1.7770625111 1.8087957702 1.8405290294 1.8722622885 1.9039955476 1.9357288068 1.9674620659 
1.999195325 2.0309285841 2.0626618433 2.0943951024 2.1261283615 2.1578616206 2.1895948798 2.2213281389 2.253061398 
2.2847946572 2.3165279163 2.3482611754 2.3799944345 2.4117276937 2.4434609528 2.4751942119 2.506927471 2.5386607302 
2.5703939893 2.6021272484 2.6338605076 2.6655937667 2.6973270258 2.7290602849 2.7607935441 2.7925268032 2.8242600623 
2.8559933214 2.8877265806 2.9194598397 2.9511930988 2.982926358 3.0146596171 3.0463928762 3.0781261353 3.1098593945 
3.1415926536 
_radius 1 100 double
4.5204111218e-16 0.014606044609 0.029159978841 0.04360898345 0.057890375241 0.071928375668 0.085632558841 0.098898120555 0.1116081172 
0.12363776984 0.13486066361 0.14515626104 0.15441780058 0.16255956012 0.16952269229 0.17527928468 0.17983475471 0.18322893744 
0.18553614793 0.18686415378 0.18735158332 0.18716306561 0.18648151462 0.18549744522 0.18439592461 0.18334250194 0.18246997443 
0.18186793547 0.18157665701 0.18158613368 0.18184034469 0.18224620716 0.18268634366 0.18303456456 0.18317279746 0.18300811151 
0.18248840829 0.18161495053 0.18044904312 0.1791096626 0.17776013364 0.17658580846 0.17576951372 0.17547325174 0.17583039144 
0.17694521536 0.17889278736 0.18171461867 0.18541116683 0.18993547763 0.19519139308 0.20103709519 0.20729319951 0.21375451236 
0.22020470343 0.22643277937 0.23224959853 0.23750227624 0.24208446686 0.24594112623 0.24906726281 0.25150116449 0.25331344259 
0.25459378328 0.25543741503 0.25593299462 0.25615304778 0.25614750007 0.25594034774 0.25552918253 0.25488708451 0.25396631829 
0.25270328208 0.25102421341 0.24885120349 0.24610809727 0.24272587793 0.23864717461 0.23382960538 0.22824777383 0.22189387148 
0.2147769816 0.20692129619 0.19836350816 0.18914961271 0.1793312899 0.16896202318 0.15809319385 0.14677056641 0.13503175258 
0.12290527961 0.11041167999 0.097566557639 0.084385025172 0.070886503486 0.057098815963 0.043060780282 0.028822924532 0.014446345306 
1.0335153847e-15 
_area 1 100 double
0 0.00048612069506 0.0019679667527 0.0045042769408 0.0081579593261 0.01295688839 0.018860210937 0.025739461168 0.033377251698 
0.041482083469 0.049716054806 0.05773102229 0.065206890328 0.071883765094 0.077579839709 0.082191382902 0.08567960291 0.088055756585 
0.089373960712 0.089732139114 0.089274126388 0.088185481358 0.086680351705 0.084982371534 0.083305437183 0.08183929819 0.080738525384 
0.08008519512 0.079854668865 0.079966024613 0.08032298069 0.080822086511 0.081364189826 0.081872172007 0.082307009824 0.082675416844 
0.083025747278 0.083430848341 0.08395903837 0.08464548048 0.08548642314 0.086459738173 0.087552258035 0.088787951866 0.090256672043 
0.092096516012 0.094432477735 0.097397053817 0.10113706927 0.10575897576 0.1113103648 0.11777386971 0.12503405798 0.13287122805 
0.14098094721 0.14900034094 0.15654765446 0.16327395282 0.16891544262 0.17333213286 0.17652236308 0.17861170944 0.17984513242 
0.18069252974 0.18132232465 0.18161370463 0.1814974132 0.18091339283 0.17982460501 0.1782141189 0.17608556041 0.17345968786 
0.17036706796 0.16683608137 0.16287673535 0.15846555267 0.15354039211 0.14801176291 0.1417891372 0.13481282324 0.12707986379 
0.11865611337 0.10967244707 0.10030785011 0.090764648429 0.081241626394 0.07191039155 0.062899929171 0.054293147996 0.046135873493 
0.038454065722 0.031272577027 0.024629980054 0.018586605286 0.013224971321 0.0086433942099 0.004945008051 0.0022252413257 0.00056053463617 
5.9861509141e-17 
