# vtk DataFile Version 5.1
vtk output
ASCII
DATASET POLYDATA
POINTS 100 float
-0.0155337 0.0416101 -0.773753 -0.0156585 0.0418379 -0.773422 -0.0160702 0.0423387 -0.772567 
-0.0167509 0.0430541 -0.771108 -0.0176733 0.0438903 -0.768924 -0.0188051 0.0447256 -0.76587 
-0.0201155 0.0454201 -0.761795 -0.0215808 0.0458263 -0.756563 -0.0231903 0.0458006 -0.750076 
-0.0249507 0.0452147 -0.74228 -0.0268874 0.0439652 -0.733182 -0.0290447 0.0419819 -0.722843 
-0.0314825 0.039233 -0.711371 -0.0342709 0.0357271 -0.698911 -0.0374825 0.0315125 -0.685623 
-0.0411844 0.0266736 -0.671664 -0.0454294 0.0213239 -0.657168 -0.0502484 0.0155982 -0.642231 
-0.0556448 0.00964268 -0.626901 -0.061591 0.00360524 -0.611176 -0.0680286 -0.00237368 -0.595008 
-0.0748715 -0.00816895 -0.578312 -0.082012 -0.0136766 -0.560984 -0.0893295 -0.018817 -0.54292 
-0.0967005 -0.0235364 -0.524029 -0.104009 -0.0278044 -0.504254 -0.111157 -0.0316115 -0.483577 
-0.118069 -0.034963 -0.462029 -0.124703 -0.037874 -0.43968 -0.131044 -0.0403632 -0.416638 
-0.137108 -0.0424476 -0.393028 -0.142932 -0.0441391 -0.36898 -0.148565 -0.0454417 -0.344612 
-0.154062 -0.0463512 -0.320013 -0.159462 -0.0468571 -0.295236 -0.164789 -0.0469446 -0.270293 
-0.170034 -0.0465991 -0.245158 -0.175151 -0.0458105 -0.219777 -0.180058 -0.0445766 -0.194079 
-0.184637 -0.042907 -0.168001 -0.188741 -0.0408248 -0.141496 -0.192205 -0.0383669 -0.114558 
-0.19486 -0.0355828 -0.0872273 -0.196545 -0.0325318 -0.0595969 -0.197127 -0.0292792 -0.0318113 
-0.196509 -0.0258914 -0.00405629 -0.19464 -0.0224319 0.023456 -0.191525 -0.0189569 0.0505069 
-0.187222 -0.0155125 0.0768918 -0.181838 -0.0121334 0.10244 -0.175523 -0.00884315 0.127031 
-0.168454 -0.00565623 0.150604 -0.160824 -0.00258094 0.17316 -0.152825 0.000376372 0.194758 
-0.144632 0.00320703 0.215503 -0.136393 0.0058962 0.235527 -0.128218 0.00842002 0.254974 
-0.120177 0.0107443 0.273971 -0.112299 0.0128252 0.292618 -0.104576 0.0146112 0.310974 
-0.0969741 0.016048 0.329045 -0.0894407 0.017083 0.346793 -0.0819204 0.017672 0.364139 
-0.0743656 0.0177847 0.380978 -0.0667466 0.0174101 0.397197 -0.0590592 0.0165597 0.412698 
-0.0513284 0.015269 0.427409 -0.0436078 0.013597 0.441305 -0.0359754 0.0116223 0.454409 
-0.0285257 0.00943827 0.466799 -0.0213605 0.00714598 0.478597 -0.0145774 0.00484622 0.48996 
-0.00825989 0.0026318 0.501057 -0.00246871 0.000580412 0.512053 0.00276409 -0.00125087 0.523086 
0.00743757 -0.00282909 0.53425 0.0115806 -0.00414636 0.545583 0.015247 -0.00521846 0.557059 
0.0185084 -0.00608111 0.568589 0.0214447 -0.00678452 0.580031 0.0241341 -0.00738681 0.591201 
0.0266443 -0.00794716 0.601894 0.0290247 -0.00851939 0.611903 0.0313023 -0.00914658 0.621039 
0.0334802 -0.0098575 0.629149 0.0355393 -0.0106648 0.636129 0.0374439 -0.0115654 0.64193 
0.0391485 -0.0125423 0.646559 0.0406068 -0.0135682 0.65008 0.04178 -0.0146097 0.6526 
0.0426443 -0.0156315 0.654256 0.0431967 -0.0166009 0.655209 0.0434572 -0.0174903 0.655621 
0.043468 -0.0182799 0.655654 0.0432903 -0.0189578 0.65545 0.0429973 -0.0195194 0.655133 
0.0426662 -0.019966 0.654804 0.042369 -0.0203023 0.654538 0.0421642 -0.020534 0.654386 
0.0420897 -0.0206654 0.65438 
LINES 2 100
OFFSETS vtktypeint64
0 100 
CONNECTIVITY vtktypeint64
0 1 2 3 4 5 6 7 8 
9 10 11 12 13 14 15 16 17 
18 19 20 21 22 23 24 25 26 
27 28 29 30 31 32 33 34 35 
36 37 38 39 40 41 42 43 44 
45 46 47 48 49 50 51 52 53 
54 55 56 57 58 59 60 61 62 
63 64 65 66 67 68 69 70 71 
72 73 74 75 76 77 78 79 80 
81 82 83 84 85 86 87 88 89 
90 91 92 93 94 95 96 97 98 
99 
POINT_DATA 100
FIELD FieldData 3
_theta 1 100 double
0 0.031733259127 0.063466518254 0.095199777382 0.12693303651 0.15866629564 0.19039955476 0.22213281389 0.25386607302 
0.28559933214 0.31733259127 0.3490658504 0.38079910953 0.41253236865 0.44426562778 0.47599888691 0.50773214603 0.53946540516 
0.57119866429 0.60293192342 0.63466518254 0.66639844167 0.6981317008 0.72986495992 0.76159821905 0.79333147818 0.82506473731 
0.85679799643 0.88853125556 0.92026451469 0.95199777382 0.98373103294 1.0154642921 1.0471975512 1.0789308103 1.1106640695 
1.1423973286 1.1741305877 1.2058638468 1.237597106 1.2693303651 1.3010636242 1.3327968833 1.3645301425 1.3962634016 
1.4279966607 1.4597299198 1.491463179 1.5231964381 1.5549296972 1.5866629564 1.6183962155 1.6501294746 1.6818627337 
1.7135959929 1.745329252 1.7770625111 1.8087957702 1.8405290294 1.8722622885 1.9039955476 1.9357288068 1.9674620659 
1.999195325 2.0309285841 2.0626618433 2.0943951024 2.1261283615 2.1578616206 2.1895948798 2.2213281389 2.253061398 
2.2847946572 2.3165279163 2.3482611754 2.3799944345 2.4117276937 2.4434609528 2.4751942119 2.506927471 2.5386607302 
2.5703939893 2.6021272484 2.6338605076 2.6655937667 2.6973270258 2.7290602849 2.7607935441 2.7925268032 2.8242600623 
2.8559933214 2.8877265806 2.9194598397 2.9511930988 2.982926358 3.0146596171 3.0463928762 3.0781261353 3.1098593945 
3.1415926536 
_radius 1 100 double
3.3695189492e-16 0.013698663397 0.027308820002 0.040748163257 0.053941614809 0.066821718636 0.079326525279 0.091395773362 0.10296675533 
0.11397134052 0.12433526329 0.13398016696 0.14282825613 0.1508089088 0.15786629604 0.16396693757 0.16910613785 0.17331233197 
0.17664847668 0.17920977635 0.18111736243 0.1825081969 0.18352243282 0.18429041399 0.18492188924 0.18549945084 0.18607677581 
0.18668059605 0.18731431205 0.18796136206 0.1885877698 0.18914496364 0.18957494905 0.18981951492 0.18983346311 0.18959967932 
0.18914211226 0.18853197025 0.18788316544 0.18733587828 0.18703204434 0.18709123268 0.18759578198 0.18858898802 0.19008353653 
0.19207393193 0.19454716116 0.19748821121 0.20087962605 0.20469650175 0.20889988754 0.21343191705 0.21821487586 0.22315451367 
0.22814641353 0.23308373429 0.23786485729 0.24239984623 0.24661495363 0.25045477005 0.25388206507 0.25687578181 0.25942785311 
0.26153947698 0.2632173206 0.26446994732 0.26530464899 0.26572481844 0.26572798161 0.26530460132 0.26443775798 0.26310379816 
0.26127398412 0.2589170371 0.25600224244 0.25250255517 0.24839703376 0.24367203099 0.23832087535 0.2323421762 0.22573724322 
0.21850733065 0.21065147518 0.20216561044 0.193043427 0.18327910227 0.1728715675 0.16182950326 0.15017592292 0.13795116749 
0.12521343039 0.11203645234 0.098504601348 0.08470603725 0.07072499561 0.056634414853 0.042490176866 0.028328097099 0.014164425953 
4.2608521647e-16 
_area 1 100 double
0 0.00057304727653 0.002276728036 0.0050667767446 0.0088753807809 0.013616851971 0.019190817675 0.025481494327 0.032353856409 
0.03964911856 0.047182007395 0.054741377878 0.062095174597 0.069000939526 0.075222990517 0.080555908042 0.084851144183 0.088040741282 
0.090151034531 0.091300886602 0.091683175246 0.09153326288 0.091092135732 0.090573465584 0.090141592044 0.089901585077 0.089898063435 
0.090121401024 0.090523165377 0.091037633722 0.091599920195 0.092155036131 0.092660107983 0.093084868701 0.09341485154 0.093660235617 
0.093866294179 0.094112240227 0.094495255228 0.095116798015 0.096077560828 0.09745996947 0.099277204282 0.1014307232 0.10376090519 
0.10614895374 0.10858179958 0.11116903642 0.1141064299 0.11758286946 0.12169974638 0.1264695742 0.13185765985 0.13787236876 
0.14454277663 0.15173135773 0.15938998379 0.16726527905 0.17511332082 0.18268911073 0.18976812364 0.19616546278 0.20174508699 
0.20642194187 0.21015817718 0.21295356512 0.21482946888 0.21580879863 0.21590341891 0.21512089339 0.21348345384 0.21103701302 
0.20783226739 0.20387292421 0.19907027918 0.19328396903 0.18642448683 0.17851093948 0.16966563014 0.16008023535 0.14997501632 
0.13956042611 0.12900705852 0.11842820345 0.10787778373 0.097365094104 0.086884153475 0.076448529893 0.066118063223 0.056007850323 
0.046278895247 0.037116821883 0.02870710093 0.021213603118 0.014764288253 0.0094452326912 0.0053025888324 0.0023510802419 0.00058666963667 
1.6763211936e-17 
