# vtk DataFile Version 5.1
vtk output
ASCII
DATASET POLYDATA
POINTS 100 float
0.136403 0.097905 -0.628821 0.136437 0.0978029 -0.6286 0.136567 0.0972503 -0.627895 
0.136779 0.0962568 -0.626686 0.13705 0.0948365 -0.624949 0.137347 0.0930056 -0.62265 
0.137631 0.0907783 -0.619757 0.137855 0.0881637 -0.61624 0.137964 0.0851631 -0.612074 
0.137899 0.0817693 -0.607245 0.137595 0.0779666 -0.601748 0.136983 0.0737337 -0.595589 
0.135989 0.0690473 -0.588781 0.134539 0.0638879 -0.581347 0.132555 0.0582454 -0.573311 
0.129962 0.0521251 -0.564697 0.126692 0.0455523 -0.555525 0.122682 0.038576 -0.54581 
0.117884 0.0312691 -0.535557 0.11227 0.023728 -0.524762 0.10583 0.0160677 -0.513411 
0.0985803 0.00841609 -0.501487 0.0905632 0.000906105 -0.488965 0.081847 -0.00633273 -0.475821 
0.0725234 -0.0131827 -0.462034 0.062703 -0.0195455 -0.447585 0.0525093 -0.0253475 -0.432467 
0.0420704 -0.030543 -0.416678 0.0315112 -0.0351148 -0.400226 0.0209453 -0.0390718 -0.383126 
0.0104681 -0.0424443 -0.365397 0.000152311 -0.0452776 -0.347062 -0.00995401 -0.0476249 -0.328143 
-0.0198263 -0.0495392 -0.308659 -0.0294592 -0.0510675 -0.288626 -0.0388594 -0.0522447 -0.268055 
-0.0480368 -0.0530914 -0.246951 -0.056994 -0.053613 -0.225319 -0.0657174 -0.0538013 -0.203163 
-0.0741681 -0.0536384 -0.180494 -0.0822773 -0.0531018 -0.15733 -0.0899434 -0.0521706 -0.133701 
-0.0970351 -0.0508308 -0.109652 -0.103397 -0.049081 -0.0852475 -0.108859 -0.0469356 -0.0605664 
-0.113251 -0.0444264 -0.0357056 -0.116414 -0.0416028 -0.0107748 -0.118216 -0.038529 0.0141068 
-0.118563 -0.0352803 0.038816 -0.11741 -0.0319383 0.0632308 -0.114765 -0.0285852 0.087236 
-0.110689 -0.0252989 0.110728 -0.105293 -0.0221483 0.13362 -0.098731 -0.0191905 0.155842 
-0.0911831 -0.0164689 0.177344 -0.0828456 -0.0140136 0.198099 -0.0739148 -0.0118427 0.218094 
-0.0645731 -0.00996487 0.237335 -0.054978 -0.00838253 0.255842 -0.0452546 -0.00709502 0.273644 
-0.0354921 -0.00610139 0.290781 -0.0257451 -0.00540225 0.307295 -0.0160388 -0.00500048 0.323234 
-0.00637729 -0.0049007 0.338648 0.00324575 -0.00510753 0.353588 0.0128364 -0.00562305 0.368109 
0.0223902 -0.00644379 0.382262 0.0318846 -0.00755773 0.396104 0.0412742 -0.00894187 0.409686 
0.0504901 -0.0105607 0.423061 0.0594423 -0.0123662 0.436274 0.0680268 -0.0142988 0.449366 
0.076134 -0.0162905 0.462366 0.0836589 -0.0182685 0.475289 0.0905118 -0.0201599 0.488134 
0.0966269 -0.0218973 0.500882 0.10197 -0.0234233 0.513493 0.106541 -0.0246952 0.525909 
0.110375 -0.025688 0.538051 0.113539 -0.0263963 0.549826 0.116127 -0.0268342 0.561132 
0.118247 -0.0270338 0.571858 0.120018 -0.027042 0.581899 0.121555 -0.0269166 0.591153 
0.122962 -0.0267204 0.599537 0.124325 -0.0265168 0.606985 0.125707 -0.0263636 0.613457 
0.127146 -0.0263087 0.618943 0.128656 -0.0263868 0.623459 0.130227 -0.0266164 0.627052 
0.131833 -0.0269994 0.629797 0.133435 -0.0275211 0.631789 0.134987 -0.0281526 0.633142 
0.13644 -0.0288536 0.633979 0.137748 -0.0295761 0.634428 0.13887 -0.030269 0.634612 
0.139771 -0.0308826 0.634643 0.140425 -0.031373 0.634615 0.140815 -0.0317057 0.634598 
0.14093 -0.0318586 0.634637 
LINES 2 100
OFFSETS vtktypeint64
0 100 
CONNECTIVITY vtktypeint64
0 1 2 3 4 5 6 7 8 
9 10 11 12 13 14 15 16 17 
18 19 20 21 22 23 24 25 26 
27 28 29 30 31 32 33 34 35 
36 37 38 39 40 41 42 43 44 
45 46 47 48 49 50 51 52 53 
54 55 56 57 58 59 60 61 62 
63 64 65 66 67 68 69 70 71 
72 73 74 75 76 77 78 79 80 
81 82 83 84 85 86 87 88 89 
90 91 92 93 94 95 96 97 98 
99 
POINT_DATA 100
FIELD FieldData 3
_theta 1 100 double
0 0.031733259127 0.063466518254 0.095199777382 0.12693303651 0.15866629564 0.19039955476 0.22213281389 0.25386607302 
0.28559933214 0.31733259127 0.3490658504 0.38079910953 0.41253236865 0.44426562778 0.47599888691 0.50773214603 0.53946540516 
0.57119866429 0.60293192342 0.63466518254 0.66639844167 0.6981317008 0.72986495992 0.76159821905 0.79333147818 0.82506473731 
0.85679799643 0.88853125556 0.92026451469 0.95199777382 0.98373103294 1.0154642921 1.0471975512 1.0789308103 1.1106640695 
1.1423973286 1.1741305877 1.2058638468 1.237597106 1.2693303651 1.3010636242 1.3327968833 1.3645301425 1.3962634016 
1.4279966607 1.4597299198 1.491463179 1.5231964381 1.5549296972 1.5866629564 1.6183962155 1.6501294746 1.6818627337 
1.7135959929 1.745329252 1.7770625111 1.8087957702 1.8405290294 1.8722622885 1.9039955476 1.9357288068 1.9674620659 
1.999195325 2.0309285841 2.0626618433 2.0943951024 2.1261283615 2.1578616206 2.1895948798 2.2213281389 2.253061398 
2.2847946572 2.3165279163 2.3482611754 2.3799944345 2.4117276937 2.4434609528 2.4751942119 2.506927471 2.5386607302 
2.5703939893 2.6021272484 2.6338605076 2.6655937667 2.6973270258 2.7290602849 2.7607935441 2.7925268032 2.8242600623 
2.8559933214 2.8877265806 2.9194598397 2.9511930988 2.982926358 3.0146596171 3.0463928762 3.0781261353 3.1098593945 
3.1415926536 
_radius 1 100 double
1.3515711421e-15 0.014374162381 0.028659656454 0.042766060372 0.056613474701 0.070134117473 0.083270452132 0.095970616904 0.10818280949 
0.11985060164 0.13091079626 0.14129457679 0.15093171083 0.15975680656 0.16771625599 0.17477451974 0.18091869951 0.18616077382 
0.19053732479 0.19410697227 0.19694600559 0.19914285147 0.20079206038 0.20198846074 0.20282202874 0.20337384153 0.20371322564 
0.20389593115 0.20396296556 0.20393973795 0.20383546232 0.20364326205 0.20334184565 0.20289965637 0.20228185511 0.20145953191 
0.2004195883 0.19917322303 0.19776104137 0.19625339119 0.19474544243 0.19334767378 0.19217370226 0.19132844171 0.19089975407 
0.19095551228 0.19154559018 0.19270600157 0.19446161896 0.19682500952 0.1997911414 0.20332982354 0.20737886354 0.21184080291 
0.21658499467 0.22145526345 0.22628194488 0.23089612073 0.23514358581 0.23889649623 0.2420614623 0.2445836743 0.24644724423 
0.24767227772 0.24830933112 0.24843193444 0.24812782496 0.24748950668 0.24660482252 0.24554841746 0.24437509541 0.24311581292 
0.24177632986 0.24033776907 0.23875810476 0.23697402823 0.23490329675 0.23244806432 0.22949964341 0.22594477595 0.2216730207 
0.21658449314 0.210597041 0.20365203126 0.19571820646 0.18679342555 0.17690440864 0.1661047598 0.15447153779 0.14210056482 
0.12910062805 0.11558681408 0.10167340815 0.087467004541 0.073060605495 0.058529451986 0.043929113168 0.029296014956 0.014650220986 
1.4179317564e-15 
_area 1 100 double
0 0.00060230217751 0.0023863375368 0.0052876207346 0.0092111358024 0.01404577543 0.019677090748 0.025993303174 0.032881714182 
0.040217109121 0.047848335907 0.055590430495 0.063226598061 0.070520016513 0.077232829874 0.083149083492 0.088098328703 0.091976325486 
0.094758922814 0.096505482503 0.097349705514 0.097478628713 0.097104217311 0.096433782479 0.095640869457 0.094830041083 0.09401057419 
0.093130506922 0.092151769632 0.091097434775 0.090050471877 0.08911788345 0.088380675161 0.087869837988 0.08757672564 0.087469717945 
0.087506677664 0.087647843735 0.08787179964 0.088188402603 0.088637121075 0.089265513717 0.090098932306 0.091124837881 0.092304909875 
0.093604853248 0.095024403052 0.096617066179 0.098493066014 0.10080281102 0.1037071895 0.10734560935 0.11180597103 0.11709298745 
0.12310141812 0.1296120176 0.13631178748 0.14283024183 0.14878666557 0.15384184777 0.15774571089 0.16037360413 0.1617468988 
0.16203131468 0.16149349716 0.16040263993 0.15893967639 0.15719512241 0.15521367616 0.15301937664 0.1506200362 0.14800890153 
0.14517221155 0.1421013621 0.13880199939 0.13529244295 0.13159036329 0.12769387554 0.12356649283 0.11913426337 0.11429852159 
0.10896024646 0.10304623159 0.096527561703 0.089426355919 0.08181241193 0.073794054473 0.065507435704 0.057107104844 0.04875863649 
0.040632296073 0.032896279075 0.02570922136 0.019213209135 0.013529026981 0.0087545809476 0.0049660482709 0.0022202979095 0.00055705096961 
4.9106142874e-17 
