# vtk DataFile Version 5.1
vtk output
ASCII
DATASET POLYDATA
POINTS 100 float
0.200223 0.0751111 -0.621079 0.200264 0.0750485 -0.62162 0.20032 0.0750165 -0.623145 
0.200366 0.0749951 -0.625465 0.200364 0.0749515 -0.628289 0.200264 0.0748407 -0.631251 
0.20001 0.0746056 -0.633948 0.199536 0.0741789 -0.635976 0.198774 0.0734848 -0.636972 
0.197657 0.0724421 -0.636643 0.196115 0.0709677 -0.634786 0.194082 0.068982 -0.631306 
0.191491 0.0664138 -0.626208 0.188281 0.0632061 -0.619587 0.184393 0.0593214 -0.611612 
0.179775 0.0547462 -0.602489 0.174381 0.0494944 -0.592442 0.168178 0.0436092 -0.581676 
0.161149 0.0371622 -0.570361 0.153294 0.0302515 -0.558609 0.144637 0.0229973 -0.546475 
0.135226 0.0155359 -0.533951 0.125137 0.00801257 -0.520981 0.114469 0.000573876 -0.507477 
0.103339 -0.00663976 -0.493333 0.0918823 -0.013501 -0.478451 0.0802349 -0.0199011 -0.462754 
0.0685303 -0.0257536 -0.446199 0.0568868 -0.0309969 -0.428781 0.0453992 -0.0355933 -0.410535 
0.0341318 -0.0395283 -0.391527 0.0231156 -0.0428072 -0.371841 0.0123487 -0.045451 -0.351568 
0.00180148 -0.0474923 -0.330789 -0.00857432 -0.0489714 -0.309561 -0.0188329 -0.0499319 -0.287916 
-0.0290204 -0.0504186 -0.265852 -0.0391599 -0.0504751 -0.24334 -0.0492386 -0.0501431 -0.220333 
-0.0591984 -0.0494623 -0.196776 -0.0689307 -0.0484707 -0.172627 -0.0782778 -0.0472055 -0.147865 
-0.0870402 -0.0457033 -0.122505 -0.0949894 -0.0440014 -0.0966055 -0.101886 -0.0421366 -0.0702719 
-0.107498 -0.0401458 -0.0436489 -0.111627 -0.0380642 -0.0169135 -0.114121 -0.0359247 0.00973978 
-0.114895 -0.0337564 0.0361149 -0.113937 -0.0315839 0.0620309 -0.111312 -0.0294265 0.0873361 
-0.107158 -0.0272987 0.111919 -0.101673 -0.0252108 0.135712 -0.0950948 -0.0231705 0.158695 
-0.0876837 -0.0211843 0.180884 -0.0796972 -0.0192601 0.202326 -0.0713689 -0.0174087 0.223084 
-0.0628909 -0.0156452 0.243225 -0.0544011 -0.0139894 0.262804 -0.0459787 -0.0124659 0.281864 
-0.0376456 -0.0111024 0.30042 -0.029376 -0.00992763 0.318472 -0.0211104 -0.00896851 0.336 
-0.0127736 -0.00824694 0.352977 -0.0042942 -0.00777683 0.369382 0.00437824 -0.00756158 0.385204 
0.0132589 -0.00759257 0.400458 0.0223193 -0.00784885 0.415183 0.0314852 -0.00829806 0.429449 
0.0406408 -0.00889881 0.443346 0.0496399 -0.00960396 0.45698 0.0583199 -0.0103647 0.470455 
0.0665197 -0.0111346 0.483861 0.0740971 -0.0118741 0.497259 0.0809436 -0.012553 0.510669 
0.0869963 -0.0131529 0.524063 0.092243 -0.0136679 0.537362 0.096722 -0.0141034 0.550442 
0.100516 -0.0144739 0.563143 0.103739 -0.0148 0.575287 0.106525 -0.0151042 0.586692 
0.10901 -0.0154073 0.597195 0.111314 -0.0157245 0.606669 0.113534 -0.0160633 0.615033 
0.115731 -0.0164221 0.622263 0.117929 -0.0167901 0.628395 0.120116 -0.0171493 0.633512 
0.12225 -0.0174766 0.63774 0.124272 -0.0177482 0.641232 0.126117 -0.0179423 0.644144 
0.127725 -0.0180435 0.646626 0.129052 -0.0180449 0.648799 0.130078 -0.01795 0.650752 
0.130812 -0.0177725 0.65253 0.131284 -0.0175352 0.654141 0.131548 -0.0172674 0.655559 
0.131669 -0.0170012 0.656736 0.131709 -0.0167672 0.657614 0.131725 -0.0165914 0.658142 
0.131753 -0.0164907 0.658283 
LINES 2 100
OFFSETS vtktypeint64
0 100 
CONNECTIVITY vtktypeint64
0 1 2 3 4 5 6 7 8 
9 10 11 12 13 14 15 16 17 
18 19 20 21 22 23 24 25 26 
27 28 29 30 31 32 33 34 35 
36 37 38 39 40 41 42 43 44 
45 46 47 48 49 50 51 52 53 
54 55 56 57 58 59 60 61 62 
63 64 65 66 67 68 69 70 71 
72 73 74 75 76 77 78 79 80 
81 82 83 84 85 86 87 88 89 
90 91 92 93 94 95 96 97 98 
99 
POINT_DATA 100
FIELD FieldData 3
_theta 1 100 double
0 0.031733259127 0.063466518254 0.095199777382 0.12693303651 0.15866629564 0.19039955476 0.22213281389 0.25386607302 
0.28559933214 0.31733259127 0.3490658504 0.38079910953 0.41253236865 0.44426562778 0.47599888691 0.50773214603 0.53946540516 
0.57119866429 0.60293192342 0.63466518254 0.66639844167 0.6981317008 0.72986495992 0.76159821905 0.79333147818 0.82506473731 
0.85679799643 0.88853125556 0.92026451469 0.95199777382 0.98373103294 1.0154642921 1.0471975512 1.0789308103 1.1106640695 
1.1423973286 1.1741305877 1.2058638468 1.237597106 1.2693303651 1.3010636242 1.3327968833 1.3645301425 1.3962634016 
1.4279966607 1.4597299198 1.491463179 1.5231964381 1.5549296972 1.5866629564 1.6183962155 1.6501294746 1.6818627337 
1.7135959929 1.745329252 1.7770625111 1.8087957702 1.8405290294 1.8722622885 1.9039955476 1.9357288068 1.9674620659 
1.999195325 2.0309285841 2.0626618433 2.0943951024 2.1261283615 2.1578616206 2.1895948798 2.2213281389 2.253061398 
2.2847946572 2.3165279163 2.3482611754 2.3799944345 2.4117276937 2.4434609528 2.4751942119 2.506927471 2.5386607302 
2.5703939893 2.6021272484 2.6338605076 2.6655937667 2.6973270258 2.7290602849 2.7607935441 2.7925268032 2.8242600623 
2.8559933214 2.8877265806 2.9194598397 2.9511930988 2.982926358 3.0146596171 3.0463928762 3.0781261353 3.1098593945 
3.1415926536 
_radius 1 100 double
1.6750783074e-15 0.015111452529 0.030156410412 0.045066076768 0.059758471238 0.074136116228 0.088087772748 0.10149360409 0.11423229143 
0.12618841493 0.13725875119 0.14735673913 0.1564149938 0.1643862613 0.17124352808 0.17698008909 0.18161025693 0.18517111503 
0.18772531824 0.18936441103 0.19021147701 0.19042133716 0.19017635629 0.18967652906 0.18912389068 0.1887030285 0.18856094819 
0.18879021485 0.18941883886 0.19040891855 0.19166412459 0.19304444377 0.19438568075 0.19552104303 0.19630235943 0.19661878923 
0.19641119192 0.19568072556 0.19449076873 0.1929619059 0.19126055169 0.18958291137 0.18813712751 0.187126831 0.18673812899 
0.18712964869 0.188423266 0.19069331874 0.19395467957 0.1981533384 0.20316454105 0.20880168353 0.21483529205 0.22101817974 
0.22711175112 0.2329089898 0.23825091455 0.2430347495 0.24721362497 0.25078911715 0.25379901876 0.25630313892 0.25836961333 
0.26006337601 0.26143747783 0.26252722017 0.26334682028 0.26388851192 0.2641243568 0.26401120691 0.26349883948 0.26254020609 
0.26110144023 0.25916857472 0.2567484364 0.25386281113 0.25053703782 0.24678595634 0.24260108598 0.23794275187 0.23273957271 
0.22689564926 0.22030369273 0.2128609535 0.20448453117 0.19512335279 0.18476534597 0.17343955908 0.16121378572 0.14818853832 
0.13448820804 0.12025027566 0.10561365778 0.090707554216 0.075642245487 0.060503012625 0.045347765714 0.030208275781 0.015094346328 
1.6280333729e-15 
_area 1 100 double
0 0.00049322518262 0.0020041478207 0.0046110034951 0.0083977746797 0.013402997525 0.019577571213 0.026763194589 0.034694713266 
0.043024827852 0.051366117754 0.059341767052 0.066633569283 0.073015379568 0.078363529304 0.082643272323 0.085880200486 0.088131314589 
0.08946473022 0.089946163035 0.089635398156 0.088605971567 0.086980014585 0.084951506289 0.082785585283 0.080798627899 0.07931741621 
0.078633175115 0.078972513914 0.08016421557 0.081733129128 0.083492470492 0.085301376559 0.087045518906 0.08863451883 0.090003513703 
0.091114942229 0.091965248153 0.092587606969 0.093034142935 0.093354351796 0.093594070075 0.093812413255 0.094100914936 0.094602195573 
0.095531432667 0.097168923106 0.099738709837 0.10330201592 0.10783634745 0.11327725063 0.11949961365 0.1263143973 0.1334848116 
0.14074139598 0.14779559648 0.15436613025 0.16021640834 0.16518665758 0.16920865359 0.17230097465 0.17454958865 0.1760804295 
0.17702863288 0.17750753684 0.17758248262 0.17725688291 0.17647522254 0.1751409249 0.17314371786 0.17039293319 0.16685422714 
0.16258297362 0.15773997055 0.15257143156 0.14734469509 0.14225634916 0.1373554574 0.13252443756 0.12752588777 0.12208548942 
0.11597224913 0.10905324138 0.10131732256 0.092870573138 0.083908555018 0.074672344378 0.065400100197 0.05629239221 0.04750621044 
0.039171297411 0.031406525616 0.024324147747 0.018025326143 0.01259392816 0.0080927584652 0.0045636889996 0.0020312936988 0.00050820703111 
8.5345721796e-17 
