# vtk DataFile Version 5.1
vtk output
ASCII
DATASET POLYDATA
POINTS 100 float
0.162243 -0.0193825 0.644146 0.162182 -0.0193571 0.644087 0.161953 -0.0194129 0.644059 
0.161563 -0.0195301 0.643996 0.161021 -0.0196779 0.643794 0.160341 -0.0198193 0.643322 
0.159539 -0.0199158 0.642427 0.158633 -0.0199331 0.640956 0.157639 -0.0198456 0.638762 
0.156569 -0.0196401 0.635721 0.155429 -0.0193178 0.631736 0.154211 -0.0188939 0.626752 
0.152895 -0.0183958 0.620753 0.151442 -0.0178594 0.613764 0.149793 -0.0173234 0.605848 
0.147872 -0.0168246 0.597099 0.145587 -0.0163921 0.587634 0.142836 -0.0160429 0.577581 
0.139511 -0.0157789 0.567071 0.135512 -0.0155863 0.556226 0.130751 -0.0154364 0.545153 
0.125167 -0.0152888 0.533937 0.118727 -0.0150959 0.522638 0.111438 -0.0148087 0.511291 
0.103347 -0.0143828 0.499904 0.094538 -0.0137837 0.488466 0.0851302 -0.0129916 0.47695 
0.0752668 -0.0120042 0.465317 0.0651049 -0.0108378 0.453522 0.0548023 -0.00952648 0.441521 
0.0445046 -0.00811941 0.42927 0.0343333 -0.00667684 0.416732 0.0243771 -0.00526525 0.403872 
0.0146863 -0.00395219 0.390661 0.00527315 -0.00280143 0.377072 -0.00388478 -0.00186888 0.363078 
-0.0128354 -0.00119971 0.348651 -0.0216404 -0.000826697 0.333757 -0.0303607 -0.00076988 0.318358 
-0.0390427 -0.00103733 0.302412 -0.0477046 -0.00162663 0.285874 -0.0563269 -0.00252684 0.268698 
-0.0648462 -0.00372044 0.250841 -0.0731556 -0.00518502 0.23227 -0.0811087 -0.00689454 0.212961 
-0.0885303 -0.00882003 0.192907 -0.09523 -0.0109299 0.172119 -0.101018 -0.0131897 0.150629 
-0.105725 -0.0155627 0.128486 -0.109211 -0.0180092 0.10576 -0.111388 -0.020488 0.0825332 
-0.112219 -0.0229572 0.0588992 -0.111727 -0.0253758 0.0349569 -0.109987 -0.0277063 0.0108053 
-0.107125 -0.0299168 -0.0134618 -0.103299 -0.0319826 -0.037759 -0.0986871 -0.0338882 -0.0620126 
-0.0934705 -0.0356274 -0.0861616 -0.087818 -0.0372024 -0.110157 -0.0818729 -0.0386219 -0.133962 
-0.0757436 -0.0398978 -0.157545 -0.0694988 -0.041041 -0.180879 -0.0631679 -0.0420567 -0.203938 
-0.0567463 -0.0429404 -0.226692 -0.0502038 -0.0436741 -0.249103 -0.0434966 -0.0442245 -0.271128 
-0.0365795 -0.0445426 -0.292711 -0.0294183 -0.0445661 -0.313795 -0.0219994 -0.0442232 -0.334312 
-0.0143375 -0.0434388 -0.3542 -0.00647787 -0.0421421 -0.373395 0.00150389 -0.0402737 -0.391845 
0.00950726 -0.0377939 -0.409509 0.0174145 -0.0346886 -0.426362 0.0251008 -0.0309736 -0.442396 
0.0324453 -0.0266964 -0.457624 0.0393412 -0.021935 -0.472074 0.0457051 -0.0167936 -0.485788 
0.0514825 -0.011396 -0.498821 0.056652 -0.00587724 -0.511231 0.0612243 -0.000373921 -0.523081 
0.0652393 0.00498523 -0.534425 0.0687604 0.0100879 -0.545309 0.0718668 0.0148448 -0.555769 
0.074645 0.0191939 -0.565822 0.0771807 0.0231016 -0.575471 0.0795506 0.0265613 -0.584705 
0.081817 0.0295895 -0.593495 0.0840236 0.0322197 -0.601805 0.0861933 0.0344955 -0.60959 
0.0883285 0.0364638 -0.6168 0.090413 0.038168 -0.623386 0.0924154 0.0396435 -0.629302 
0.0942932 0.0409144 -0.634504 0.0959975 0.0419931 -0.638958 0.0974777 0.0428806 -0.642635 
0.0986861 0.04357 -0.645513 0.0995813 0.0440501 -0.647577 0.100132 0.0443088 -0.648818 
0.100318 0.0443375 -0.649232 
LINES 2 100
OFFSETS vtktypeint64
0 100 
CONNECTIVITY vtktypeint64
0 1 2 3 4 5 6 7 8 
9 10 11 12 13 14 15 16 17 
18 19 20 21 22 23 24 25 26 
27 28 29 30 31 32 33 34 35 
36 37 38 39 40 41 42 43 44 
45 46 47 48 49 50 51 52 53 
54 55 56 57 58 59 60 61 62 
63 64 65 66 67 68 69 70 71 
72 73 74 75 76 77 78 79 80 
81 82 83 84 85 86 87 88 89 
90 91 92 93 94 95 96 97 98 
99 
POINT_DATA 100
FIELD FieldData 3
_theta 1 100 double
0 0.031733259127 0.063466518254 0.095199777382 0.12693303651 0.15866629564 0.19039955476 0.22213281389 0.25386607302 
0.28559933214 0.31733259127 0.3490658504 0.38079910953 0.41253236865 0.44426562778 0.47599888691 0.50773214603 0.53946540516 
0.57119866429 0.60293192342 0.63466518254 0.66639844167 0.6981317008 0.72986495992 0.76159821905 0.79333147818 0.82506473731 
0.85679799643 0.88853125556 0.92026451469 0.95199777382 0.98373103294 1.0154642921 1.0471975512 1.0789308103 1.1106640695 
1.1423973286 1.1741305877 1.2058638468 1.237597106 1.2693303651 1.3010636242 1.3327968833 1.3645301425 1.3962634016 
1.4279966607 1.4597299198 1.491463179 1.5231964381 1.5549296972 1.5866629564 1.6183962155 1.6501294746 1.6818627337 
1.7135959929 1.745329252 1.7770625111 1.8087957702 1.8405290294 1.8722622885 1.9039955476 1.9357288068 1.9674620659 
1.999195325 2.0309285841 2.0626618433 2.0943951024 2.1261283615 2.1578616206 2.1895948798 2.2213281389 2.253061398 
2.2847946572 2.3165279163 2.3482611754 2.3799944345 2.4117276937 2.4434609528 2.4751942119 2.506927471 2.5386607302 
2.5703939893 2.6021272484 2.6338605076 2.6655937667 2.6973270258 2.7290602849 2.7607935441 2.7925268032 2.8242600623 
2.8559933214 2.8877265806 2.9194598397 2.9511930988 2.982926358 3.0146596171 3.0463928762 3.0781261353 3.1098593945 
3.1415926536 
_radius 1 100 double
9.9929709104e-16 0.013720118108 0.027399825677 0.041001151427 0.054484148341 0.067805733731 0.080918733569 0.093771416999 0.10630779502 
0.11846884804 0.13019467701 0.14142738491 0.15211432184 0.16221120062 0.17168455836 0.18051315178 0.18868813848 0.196212242 
0.20309838735 0.20936837851 0.21505199631 0.22018647884 0.22481588367 0.22898954297 0.23275887776 0.23617227461 0.23926844479 
0.24206945603 0.24457514004 0.24676052862 0.24857725602 0.24995876051 0.25082817311 0.25110741661 0.25072626058 0.2496305762 
0.24778948504 0.24520132625 0.24189834953 0.23794982132 0.23346290364 0.22858038474 0.2234743185 0.21833507719 0.21335631867 
0.20871769293 0.20456818134 0.20101314148 0.19810730203 0.19585463183 0.19421473734 0.19311431409 0.19246115959 0.19215766798 
0.19211106792 0.19223906823 0.19247154855 0.19275048186 0.19303040552 0.19328033946 0.19348621256 0.19365201433 0.19379839528 
0.19395856749 0.19417225751 0.19447879814 0.19491033192 0.19548579591 0.19620608441 0.19705069107 0.19797620052 0.19891700911 
0.19978839714 0.20049161782 0.200920264 0.20096699766 0.20052977857 0.1995169229 0.19785059023 0.19546859837 0.19232475566 
0.18838810964 0.18364157247 0.17808028744 0.17170992347 0.16454494077 0.15660683422 0.14792242246 0.13852234289 0.12843996563 
0.11771091326 0.10637327276 0.094468444267 0.082042436123 0.069147324116 0.0558425575 0.042195806606 0.02828309142 0.014188008384 
1.3105642587e-15 
_area 1 100 double
0 0.00053706822711 0.0021382084477 0.0047726581276 0.008387657997 0.012907562991 0.018234906457 0.024254787122 0.030843069412 
0.037877433728 0.045248696074 0.052868693466 0.060671261036 0.068605115764 0.076621321556 0.084661045686 0.092649062856 0.10049536885 
0.10810401921 0.1153864614 0.12227577394 0.12873776652 0.13477522204 0.14042344887 0.14573828874 0.15077977098 0.15559459805 
0.16020028055 0.1645751416 0.16865974331 0.17237120889 0.17562228736 0.17833095949 0.18041182951 0.18175542438 0.18221488085 
0.18161758214 0.17980124296 0.17665876484 0.17217650593 0.16645761366 0.15972628025 0.15231133638 0.14461190428 0.13705288037 
0.13003900391 0.12390923725 0.11888393693 0.11501467287 0.11218752898 0.11018898819 0.10877036473 0.10768295987 0.10670349363 
0.10565912065 0.10443915242 0.10298825285 0.10128942577 0.099346550613 0.097179389082 0.09484067746 0.092438791343 0.090137501054 
0.088126029093 0.08657621908 0.085608555475 0.085276761362 0.085566522892 0.086401660575 0.087657662637 0.089181408973 0.090803897927 
0.092356254651 0.093703717572 0.09480327512 0.095660714373 0.096044698465 0.095827760562 0.094945578229 0.093362871016 0.09106388421 
0.088045831206 0.084316188429 0.079894869573 0.074819901963 0.069153452753 0.06298511582 0.056430925343 0.049628492061 0.042729941127 
0.035894509358 0.029281942006 0.02304689096 0.017334031514 0.01227377183 0.007978839389 0.0045421361338 0.0020358790158 0.00051154367417 
1.9215813981e-17 
