# vtk DataFile Version 5.1
vtk output
ASCII
DATASET POLYDATA
POINTS 100 float
0.174451 0.0652622 -0.668062 0.174461 0.0651832 -0.667996 0.17452 0.0647761 -0.667772 
0.174624 0.064056 -0.66732 0.174759 0.0630451 -0.666531 0.174898 0.0617673 -0.665273 
0.175003 0.0602431 -0.663406 0.175011 0.0584838 -0.660797 0.17484 0.0564874 -0.657336 
0.174385 0.0542363 -0.652946 0.173524 0.0516978 -0.647592 0.172121 0.0488269 -0.641278 
0.170037 0.0455723 -0.634045 0.167144 0.0418839 -0.625961 0.163328 0.0377215 -0.617111 
0.158512 0.0330629 -0.607577 0.152655 0.0279114 -0.59743 0.145764 0.0223006 -0.586715 
0.137895 0.016296 -0.57545 0.129147 0.00999365 -0.563618 0.11966 0.00351503 -0.551173 
0.1096 -0.0030009 -0.538049 0.0991471 -0.00940744 -0.524171 0.0884798 -0.0155609 -0.509466 
0.07776 -0.0213309 -0.49388 0.0671203 -0.0266092 -0.477383 0.0566552 -0.0313159 -0.459981 
0.0464158 -0.0354028 -0.441715 0.036411 -0.0388526 -0.422658 0.0266124 -0.041676 -0.402907 
0.0169649 -0.0439058 -0.382572 0.00739941 -0.045589 -0.361762 -0.00215164 -0.046779 -0.340568 
-0.0117396 -0.0475281 -0.319056 -0.0213862 -0.0478817 -0.297256 -0.0310736 -0.0478748 -0.275159 
-0.0407392 -0.0475305 -0.252722 -0.0502746 -0.0468619 -0.229875 -0.0595307 -0.0458753 -0.206532 
-0.0683273 -0.0445756 -0.182611 -0.0764655 -0.0429712 -0.158049 -0.083743 -0.0410788 -0.132818 
-0.0899704 -0.0389273 -0.106935 -0.0949856 -0.0365588 -0.0804747 -0.0986664 -0.0340282 -0.0535645 
-0.100939 -0.0314001 -0.0263833 -0.101784 -0.0287441 0.000851947 -0.101235 -0.0261289 0.0279014 
-0.0993734 -0.0236165 0.0545221 -0.0963248 -0.0212567 0.0804871 -0.0922443 -0.0190835 0.105604 
-0.087307 -0.0171136 0.12973 -0.0816948 -0.0153466 0.15278 -0.0755859 -0.0137684 0.174733 
-0.0691444 -0.0123556 0.195624 -0.0625137 -0.0110816 0.215542 -0.0558115 -0.00992213 0.234611 
-0.0491284 -0.008861 0.252981 -0.0425275 -0.00789335 0.270803 -0.0360478 -0.00702722 0.288221 
-0.0297074 -0.0062826 0.305355 -0.0235082 -0.0056881 0.322295 -0.0174408 -0.0052758 0.339093 
-0.0114893 -0.00507511 0.355768 -0.00563505 -0.00510646 0.372307 0.000139306 -0.00537588 0.388671 
0.00584745 -0.00587148 0.404809 0.0114971 -0.00656231 0.420661 0.0170884 -0.00739999 0.436167 
0.0226132 -0.00832301 0.451278 0.0280545 -0.00926315 0.46595 0.0333864 -0.0101532 0.480153 
0.0385752 -0.0109347 0.493863 0.04358 -0.0115655 0.507061 0.0483554 -0.012024 0.51973 
0.0528537 -0.0123122 0.531849 0.0570285 -0.0124543 0.543393 0.0608383 -0.0124928 0.554328 
0.0642503 -0.0124818 0.564618 0.0672443 -0.0124785 0.574226 0.0698157 -0.012534 0.583118 
0.0719773 -0.0126846 0.591269 0.0737597 -0.0129458 0.598672 0.0752106 -0.013308 0.605333 
0.0763915 -0.0137368 0.611284 0.0773734 -0.0141762 0.616572 0.0782311 -0.014556 0.621263 
0.0790363 -0.0148011 0.625433 0.0798517 -0.0148417 0.629161 0.0807246 -0.0146247 0.632524 
0.0816827 -0.0141222 0.635584 0.0827313 -0.0133374 0.638388 0.083853 -0.0123077 0.64096 
0.0850098 -0.011102 0.6433 0.0861475 -0.00981508 0.645392 0.0872015 -0.00855797 0.647199 
0.0881046 -0.00744601 0.64868 0.0887942 -0.00658607 0.649788 0.0892197 -0.00606445 0.650486 
0.0893482 -0.00593698 0.650748 
LINES 2 100
OFFSETS vtktypeint64
0 100 
CONNECTIVITY vtktypeint64
0 1 2 3 4 5 6 7 8 
9 10 11 12 13 14 15 16 17 
18 19 20 21 22 23 24 25 26 
27 28 29 30 31 32 33 34 35 
36 37 38 39 40 41 42 43 44 
45 46 47 48 49 50 51 52 53 
54 55 56 57 58 59 60 61 62 
63 64 65 66 67 68 69 70 71 
72 73 74 75 76 77 78 79 80 
81 82 83 84 85 86 87 88 89 
90 91 92 93 94 95 96 97 98 
99 
POINT_DATA 100
FIELD FieldData 3
_theta 1 100 double
0 0.031733259127 0.063466518254 0.095199777382 0.12693303651 0.15866629564 0.19039955476 0.22213281389 0.25386607302 
0.28559933214 0.31733259127 0.3490658504 0.38079910953 0.41253236865 0.44426562778 0.47599888691 0.50773214603 0.53946540516 
0.57119866429 0.60293192342 0.63466518254 0.66639844167 0.6981317008 0.72986495992 0.76159821905 0.79333147818 0.82506473731 
0.85679799643 0.88853125556 0.92026451469 0.95199777382 0.98373103294 1.0154642921 1.0471975512 1.0789308103 1.1106640695 
1.1423973286 1.1741305877 1.2058638468 1.237597106 1.2693303651 1.3010636242 1.3327968833 1.3645301425 1.3962634016 
1.4279966607 1.4597299198 1.491463179 1.5231964381 1.5549296972 1.5866629564 1.6183962155 1.6501294746 1.6818627337 
1.7135959929 1.745329252 1.7770625111 1.8087957702 1.8405290294 1.8722622885 1.9039955476 1.9357288068 1.9674620659 
1.999195325 2.0309285841 2.0626618433 2.0943951024 2.1261283615 2.1578616206 2.1895948798 2.2213281389 2.253061398 
2.2847946572 2.3165279163 2.3482611754 2.3799944345 2.4117276937 2.4434609528 2.4751942119 2.506927471 2.5386607302 
2.5703939893 2.6021272484 2.6338605076 2.6655937667 2.6973270258 2.7290602849 2.7607935441 2.7925268032 2.8242600623 
2.8559933214 2.8877265806 2.9194598397 2.9511930988 2.982926358 3.0146596171 3.0463928762 3.0781261353 3.1098593945 
3.1415926536 
_radius 1 100 double
1.187747315e-15 0.015324068518 0.030610059201 0.045811081427 0.060870853692 0.075719936025 0.090273429229 0.10443075604 0.11807768987 
0.13109026621 0.14333992531 0.15469930389 0.16504838116 0.17428095607 0.18231151025 0.18908234718 0.19457056927 0.19879410691 
0.20181578852 0.20374441871 0.20473203347 0.20496689357 0.20466228787 0.20404175427 0.20332182418 0.20269386634 0.20230707039 
0.20225497614 0.20256793611 0.20321320958 0.20410305487 0.20510967505 0.20608474402 0.20688076547 0.20737159468 0.20746985456 
0.20713952633 0.20640257956 0.20533906733 0.20408077075 0.2027995208 0.20169267352 0.20096881397 0.20083537672 0.20148708238 
0.2030924221 0.20577660219 0.20960257368 0.21455478966 0.22053128754 0.22734794817 0.23475518634 0.24246375428 0.25017443658 
0.25760654233 0.26452148728 0.27073941053 0.27614809624 0.28070434007 0.28442842959 0.28739277895 0.28970610856 0.29149493594 
0.29288449187 0.29398136327 0.29486003264 0.29555493402 0.29605872559 0.29632640248 0.29628393262 0.2958395242 0.2948955053 
0.29335905175 0.2911504998 0.28820856943 0.28449236584 0.27998044261 0.2746674972 0.26855948701 0.26166815815 0.25400614968 
0.24558385125 0.23640889602 0.22648850715 0.21583402999 0.20446619624 0.19241931908 0.17974287802 0.16649973142 0.15276120611 
0.13860022414 0.1240841939 0.10926951136 0.094199167442 0.07890417262 0.063408412562 0.047735427106 0.031914874479 0.01598646425 
1.9917158709e-16 
_area 1 100 double
0 0.00055520269564 0.0022202104175 0.0049919233655 0.0088599028586 0.013797051274 0.019747709803 0.026617492726 0.03426831702 
0.042519100836 0.051150421348 0.059911438642 0.068528922369 0.076719462922 0.084205507865 0.090734080582 0.096095641306 0.10014071166 
0.10279298227 0.10405817561 0.10402756913 0.10287505724 0.10084814378 0.098255914346 0.095458897252 0.092858285816 0.090835378392 
0.089619121637 0.089271763237 0.089751976544 0.090938327106 0.092645773394 0.094651367066 0.096727188777 0.09867652179 0.10037117738 
0.10178576283 0.10300418018 0.10415138124 0.10529485144 0.10645142215 0.10766872157 0.10907250586 0.11081996026 0.11301224943 
0.1157718482 0.11931226001 0.12389388493 0.12974564749 0.13698952357 0.14559171465 0.15535200566 0.16592622285 0.17687391497 
0.18772163059 0.19802586089 0.20742068836 0.21564359754 0.22254117876 0.22806136117 0.23223995414 0.23518597744 0.23706249277 
0.23805582515 0.23834158941 0.23806659542 0.23734189438 0.23623295418 0.23474790523 0.23283180228 0.23037268928 0.22722050735 
0.22321481073 0.21821432179 0.212122397 0.20490520887 0.19659979926 0.18730870131 0.17718127621 0.16638772502 0.15509472334 
0.1434502925 0.1315814602 0.11960304694 0.10763106957 0.09579219886 0.084223266467 0.07306086173 0.062427041057 0.05241960583 
0.043112394783 0.034564027133 0.026828275261 0.019960288806 0.014017565771 0.0090576173747 0.0051344516533 0.0022949885055 0.00057574792369 
2.8014726318e-17 
