# vtk DataFile Version 5.1
vtk output
ASCII
DATASET POLYDATA
POINTS 100 float
0.10525 -0.0249403 0.6415 0.105255 -0.0247765 0.641516 0.105224 -0.0244034 0.641708 
0.105146 -0.0238197 0.642021 0.105003 -0.0230257 0.642367 0.104776 -0.0220249 0.642623 
0.104443 -0.0208257 0.642646 0.103989 -0.0194433 0.642275 0.103403 -0.017901 0.641345 
0.102677 -0.016231 0.639691 0.101813 -0.0144743 0.637167 0.100813 -0.0126792 0.633649 
0.0996784 -0.010899 0.62905 0.0984057 -0.00918924 0.623325 0.0969821 -0.00760328 0.616471 
0.095382 -0.00618857 0.608537 0.093565 -0.00498241 0.599614 0.0914762 -0.00400845 0.58983 
0.0890493 -0.00327405 0.57934 0.0862115 -0.00276901 0.568315 0.0828905 -0.00246568 0.556926 
0.0790233 -0.00232075 0.545333 0.0745646 -0.00227849 0.533666 0.0694947 -0.00227525 0.522023 
0.063825 -0.00224489 0.510457 0.0576013 -0.00212468 0.498979 0.0509022 -0.00186097 0.487557 
0.0438352 -0.00141439 0.476126 0.0365276 -0.000763728 0.464596 0.0291159 9.15587e-05 0.452865 
0.0217324 0.00113072 0.440831 0.0144924 0.00231289 0.428408 0.00748151 0.00357999 0.415531 
0.000746758 0.00486116 0.402163 -0.00570886 0.00607818 0.388299 -0.011927 0.0071514 0.37396 
-0.017989 0.00800562 0.359189 -0.024007 0.00857541 0.344039 -0.0301097 0.00880915 0.328564 
-0.0364264 0.00867178 0.312804 -0.0430696 0.00814573 0.296782 -0.0501186 0.00723023 0.280487 
-0.0576057 0.00593901 0.263882 -0.0655065 0.00429689 0.246897 -0.0737359 0.00233559 0.22944 
-0.0821494 8.93322e-05 0.211404 -0.0905511 -0.00240916 0.192682 -0.0987061 -0.00513184 0.173176 
-0.106357 -0.00805724 0.152811 -0.113244 -0.0111709 0.131547 -0.119122 -0.0144641 0.109384 
-0.12378 -0.0179317 0.0863633 -0.127054 -0.0215677 0.0625673 -0.128841 -0.0253619 0.0381125 
-0.129097 -0.0292944 0.01314 -0.127841 -0.0333325 -0.012196 -0.125146 -0.0374271 -0.0377394 
-0.121131 -0.0415115 -0.0633436 -0.115943 -0.0455013 -0.088879 -0.109744 -0.049297 -0.114239 
-0.102697 -0.0527873 -0.139338 -0.0949509 -0.0558549 -0.164115 -0.0866304 -0.0583829 -0.188521 
-0.0778301 -0.060262 -0.212516 -0.0686124 -0.0613973 -0.236061 -0.0590091 -0.0617146 -0.259109 
-0.0490277 -0.0611657 -0.281603 -0.0386595 -0.0597314 -0.303472 -0.0278897 -0.0574236 -0.324634 
-0.0167076 -0.0542839 -0.345 -0.00511577 -0.0503821 -0.364485 0.00686257 -0.0458112 -0.383012 
0.0191792 -0.0406825 -0.400525 0.0317595 -0.0351192 -0.416996 0.0445041 -0.0292502 -0.432429 
0.0572939 -0.0232038 -0.446862 0.0699963 -0.0171022 -0.460362 0.0824739 -0.0110571 -0.473021 
0.0945927 -0.00516637 -0.484943 0.10623 0.000487702 -0.496233 0.117283 0.00583939 -0.506981 
0.12767 0.0108391 -0.517253 0.137338 0.0154523 -0.527083 0.146258 0.019658 -0.536466 
0.154427 0.0234465 -0.54536 0.161862 0.0268181 -0.55369 0.168599 0.0297806 -0.561363 
0.17468 0.0323486 -0.568278 0.180153 0.0345416 -0.57434 0.185068 0.0363836 -0.579481 
0.189465 0.037902 -0.583667 0.193379 0.0391268 -0.586908 0.196834 0.0400902 -0.589264 
0.199842 0.040825 -0.590836 0.202409 0.0413643 -0.591765 0.204531 0.0417394 -0.592212 
0.2062 0.0419788 -0.592344 0.207406 0.0421067 -0.592316 0.20814 0.0421416 -0.592252 
0.208396 0.0420952 -0.592233 
LINES 2 100
OFFSETS vtktypeint64
0 100 
CONNECTIVITY vtktypeint64
0 1 2 3 4 5 6 7 8 
9 10 11 12 13 14 15 16 17 
18 19 20 21 22 23 24 25 26 
27 28 29 30 31 32 33 34 35 
36 37 38 39 40 41 42 43 44 
45 46 47 48 49 50 51 52 53 
54 55 56 57 58 59 60 61 62 
63 64 65 66 67 68 69 70 71 
72 73 74 75 76 77 78 79 80 
81 82 83 84 85 86 87 88 89 
90 91 92 93 94 95 96 97 98 
99 
POINT_DATA 100
FIELD FieldData 3
_theta 1 100 double
0 0.031733259127 0.063466518254 0.095199777382 0.12693303651 0.15866629564 0.19039955476 0.22213281389 0.25386607302 
0.28559933214 0.31733259127 0.3490658504 0.38079910953 0.41253236865 0.44426562778 0.47599888691 0.50773214603 0.53946540516 
0.57119866429 0.60293192342 0.63466518254 0.66639844167 0.6981317008 0.72986495992 0.76159821905 0.79333147818 0.82506473731 
0.85679799643 0.88853125556 0.92026451469 0.95199777382 0.98373103294 1.0154642921 1.0471975512 1.0789308103 1.1106640695 
1.1423973286 1.1741305877 1.2058638468 1.237597106 1.2693303651 1.3010636242 1.3327968833 1.3645301425 1.3962634016 
1.4279966607 1.4597299198 1.491463179 1.5231964381 1.5549296972 1.5866629564 1.6183962155 1.6501294746 1.6818627337 
1.7135959929 1.745329252 1.7770625111 1.8087957702 1.8405290294 1.8722622885 1.9039955476 1.9357288068 1.9674620659 
1.999195325 2.0309285841 2.0626618433 2.0943951024 2.1261283615 2.1578616206 2.1895948798 2.2213281389 2.253061398 
2.2847946572 2.3165279163 2.3482611754 2.3799944345 2.4117276937 2.4434609528 2.4751942119 2.506927471 2.5386607302 
2.5703939893 2.6021272484 2.6338605076 2.6655937667 2.6973270258 2.7290602849 2.7607935441 2.7925268032 2.8242600623 
2.8559933214 2.8877265806 2.9194598397 2.9511930988 2.982926358 3.0146596171 3.0463928762 3.0781261353 3.1098593945 
3.1415926536 
_radius 1 100 double
6.9797995422e-16 0.014383767891 0.028788029661 0.043225771119 0.057689012531 0.072141261546 0.086513672881 0.10070604796 0.11459326768 
0.12803685778 0.14090031409 0.15306584578 0.16444962599 0.17501269091 0.18476535735 0.19376428985 0.20210281483 0.20989633835 
0.21726542986 0.22431915787 0.23114075629 0.23777700628 0.24423216287 0.25046694586 0.2564029066 0.26193212381 0.26693152173 
0.27128021659 0.27487744748 0.27765815145 0.27960332582 0.28074303935 0.28115119253 0.28093264186 0.28020478073 0.27907679709 
0.27763035481 0.2759052468 0.27389268694 0.27153754956 0.268749331 0.26542020462 0.26144748868 0.25675722639 0.2513253626 
0.24519314106 0.23847385827 0.23134908211 0.22405396445 0.2168532912 0.21001206313 0.20376599505 0.19829762641 0.19372238159 
0.19008607536 0.18737186735 0.18551211107 0.18440044192 0.18390184427 0.18386164007 0.18411622698 0.18450776378 0.18490222368 
0.18520717799 0.18538443841 0.18545389895 0.18548746476 0.18559432203 0.18590019792 0.18652372666 0.18755306109 0.1890258841 
0.19091593125 0.1931285315 0.19550619059 0.19784325504 0.19990696574 0.20146124772 0.20228944543 0.20221274119 0.20110200323 
0.19888210522 0.1955290916 0.1910616531 0.18552899463 0.17899724626 0.17153621276 0.16320775696 0.15405675409 0.14410545817 
0.13335216939 0.12177500276 0.10934107154 0.096020443286 0.081802993172 0.066715168161 0.050833132982 0.034289094752 0.017268802532 
8.2212174709e-16 
_area 1 100 double
0 0.00056512652171 0.0022591467668 0.0050758355657 0.0089982843301 0.013991025676 0.019992107569 0.026907033675 0.034606278417 
0.042927897961 0.051686259938 0.060686707223 0.06974421945 0.078702628259 0.087450500591 0.095930654484 0.1041418766 0.11213284111 
0.11998890616 0.12781291437 0.13570263282 0.1437294421 0.15192205561 0.16025553734 0.16864482164 0.17694462584 0.1849596859 
0.19246713261 0.19924661137 0.20510705975 0.20989939703 0.21352349366 0.21594857766 0.21721495539 0.21741652445 0.21668628464 
0.21517923184 0.21301821823 0.21020627582 0.20677031961 0.2027460545 0.19791559047 0.19228929781 0.18581731488 0.17844156513 
0.17021779227 0.16134930177 0.1521576621 0.14302797547 0.13434733827 0.12644635066 0.11955405567 0.11377320949 0.1090785185 
0.10533775979 0.10235088831 0.099897829763 0.097782462761 0.095859460966 0.094039439205 0.092279610974 0.090572275243 0.088938550498 
0.087422509719 0.086073789519 0.084925373822 0.08400355681 0.083366889411 0.083120077924 0.083392047506 0.084299683531 0.085911717646 
0.088220054714 0.091123938176 0.094430627456 0.097871595788 0.1011284499 0.10386342227 0.10575271728 0.10652088509 0.10597127538 
0.10400607796 0.10063147624 0.095947591638 0.090126826257 0.083386408109 0.075961130343 0.068081064624 0.059957216665 0.05177611884 
0.043702351611 0.035886205061 0.028472680866 0.021608262302 0.015443227238 0.01012900268 0.0058113374449 0.0026206349884 0.00066101538611 
4.1371967837e-17 
