# vtk DataFile Version 5.1
vtk output
ASCII
DATASET POLYDATA
POINTS 100 float
0.135786 0.0639746 -0.65865 0.135245 0.0640048 -0.658033 0.133699 0.0638903 -0.656184 
0.131276 0.0636063 -0.653153 0.128174 0.0631136 -0.64902 0.124638 0.0623611 -0.643894 
0.120937 0.0612894 -0.637902 0.117328 0.0598351 -0.631182 0.114035 0.0579355 -0.623878 
0.11122 0.0555339 -0.616127 0.108969 0.052585 -0.608054 0.107281 0.0490599 -0.59976 
0.10607 0.0449499 -0.591322 0.105173 0.0402699 -0.582783 0.104367 0.0350593 -0.574155 
0.103393 0.0293826 -0.565417 0.101983 0.0233264 -0.556517 0.0998849 0.0169961 -0.547382 
0.0968869 0.0105099 -0.537922 0.092836 0.00399296 -0.528039 0.08765 -0.00243067 -0.517636 
0.0813211 -0.00864454 -0.506626 0.0739116 -0.0145465 -0.494938 0.0655434 -0.0200539 -0.48252 
0.0563808 -0.0251066 -0.469345 0.0466115 -0.0296688 -0.45541 0.0364258 -0.0337275 -0.440729 
0.0259986 -0.03729 -0.425334 0.0154746 -0.0403795 -0.409264 0.00495928 -0.0430289 -0.392561 
-0.00548349 -0.0452755 -0.37526 -0.0158281 -0.0471547 -0.357387 -0.0260777 -0.0486956 -0.338952 
-0.0362513 -0.0499177 -0.31995 -0.0463678 -0.0508291 -0.300364 -0.056431 -0.0514273 -0.280163 
-0.0664158 -0.0517008 -0.259317 -0.0762589 -0.051633 -0.237795 -0.0858542 -0.0512063 -0.215581 
-0.0950547 -0.0504065 -0.192676 -0.103679 -0.049227 -0.169105 -0.111524 -0.0476719 -0.144921 
-0.11838 -0.0457573 -0.120206 -0.124048 -0.0435118 -0.095066 -0.128356 -0.0409749 -0.0696295 
-0.131178 -0.0381943 -0.0440379 -0.132439 -0.0352223 -0.0184375 -0.132126 -0.0321117 0.00702886 
-0.130286 -0.0289125 0.0322305 -0.127025 -0.0256692 0.0570551 -0.122493 -0.0224187 0.0814136 
-0.116874 -0.0191904 0.105241 -0.110371 -0.0160074 0.128496 -0.103188 -0.0128886 0.151158 
-0.0955164 -0.0098522 0.17322 -0.0875225 -0.00691819 0.194685 -0.0793387 -0.00411173 0.215559 
-0.0710603 -0.00146467 0.235843 -0.062745 0.000983922 0.255536 -0.0544181 0.00318893 0.274628 
-0.0460795 0.00510187 0.293103 -0.0377133 0.00667492 0.310941 -0.0292986 0.00786564 0.328127 
-0.0208187 0.00864199 0.344649 -0.0122689 0.0089867 0.360511 -0.00366235 0.00890057 0.375731 
0.0049682 0.00840396 0.390348 0.0135712 0.00753625 0.404418 0.0220802 0.00635324 0.418014 
0.0304197 0.00492266 0.43122 0.0385127 0.00331826 0.444121 0.046288 0.00161324 0.4568 
0.0536876 -0.000126257 0.469323 0.0606715 -0.00184669 0.481737 0.0672214 -0.00351111 0.494059 
0.0733413 -0.00510101 0.506275 0.0790551 -0.00661577 0.518342 0.0844035 -0.00806986 0.530188 
0.0894373 -0.00948811 0.54172 0.0942118 -0.0108997 0.55283 0.098779 -0.0123319 0.563411 
0.103182 -0.0138036 0.57336 0.107452 -0.0153212 0.582591 0.111602 -0.0168753 0.591043 
0.115628 -0.0184404 0.598682 0.119513 -0.0199769 0.605504 0.123225 -0.0214355 0.611533 
0.126727 -0.0227629 0.616817 0.129976 -0.0239087 0.62142 0.132936 -0.024832 0.625417 
0.135577 -0.0255075 0.628881 0.137877 -0.0259294 0.631883 0.139832 -0.0261132 0.634479 
0.141446 -0.0260945 0.636712 0.142738 -0.0259259 0.638609 0.143733 -0.0256707 0.640182 
0.144461 -0.0253959 0.641432 0.14495 -0.0251644 0.642352 0.145226 -0.0250275 0.642934 
0.145305 -0.0250185 0.643169 
LINES 2 100
OFFSETS vtktypeint64
0 100 
CONNECTIVITY vtktypeint64
0 1 2 3 4 5 6 7 8 
9 10 11 12 13 14 15 16 17 
18 19 20 21 22 23 24 25 26 
27 28 29 30 31 32 33 34 35 
36 37 38 39 40 41 42 43 44 
45 46 47 48 49 50 51 52 53 
54 55 56 57 58 59 60 61 62 
63 64 65 66 67 68 69 70 71 
72 73 74 75 76 77 78 79 80 
81 82 83 84 85 86 87 88 89 
90 91 92 93 94 95 96 97 98 
99 
POINT_DATA 100
FIELD FieldData 3
_theta 1 100 double
0 0.031733259127 0.063466518254 0.095199777382 0.12693303651 0.15866629564 0.19039955476 0.22213281389 0.25386607302 
0.28559933214 0.31733259127 0.3490658504 0.38079910953 0.41253236865 0.44426562778 0.47599888691 0.50773214603 0.53946540516 
0.57119866429 0.60293192342 0.63466518254 0.66639844167 0.6981317008 0.72986495992 0.76159821905 0.79333147818 0.82506473731 
0.85679799643 0.88853125556 0.92026451469 0.95199777382 0.98373103294 1.0154642921 1.0471975512 1.0789308103 1.1106640695 
1.1423973286 1.1741305877 1.2058638468 1.237597106 1.2693303651 1.3010636242 1.3327968833 1.3645301425 1.3962634016 
1.4279966607 1.4597299198 1.491463179 1.5231964381 1.5549296972 1.5866629564 1.6183962155 1.6501294746 1.6818627337 
1.7135959929 1.745329252 1.7770625111 1.8087957702 1.8405290294 1.8722622885 1.9039955476 1.9357288068 1.9674620659 
1.999195325 2.0309285841 2.0626618433 2.0943951024 2.1261283615 2.1578616206 2.1895948798 2.2213281389 2.253061398 
2.2847946572 2.3165279163 2.3482611754 2.3799944345 2.4117276937 2.4434609528 2.4751942119 2.506927471 2.5386607302 
2.5703939893 2.6021272484 2.6338605076 2.6655937667 2.6973270258 2.7290602849 2.7607935441 2.7925268032 2.8242600623 
2.8559933214 2.8877265806 2.9194598397 2.9511930988 2.982926358 3.0146596171 3.0463928762 3.0781261353 3.1098593945 
3.1415926536 
_radius 1 100 double
1.1443916996e-16 0.013086616784 0.026148032263 0.039155436623 0.052079265766 0.064888915363 0.077552314854 0.090035151328 0.10229946251 
0.1143013869 0.12598813983 0.13729472855 0.14814135749 0.15843270101 0.16806010354 0.17690730208 0.18485956211 0.19181534053 
0.19769891473 0.2024719987 0.20614230909 0.20876738377 0.21045264708 0.21134363141 0.21161321067 0.21144546123 0.21101818706 
0.21048620945 0.20996735243 0.20953279913 0.20920318348 0.20895129584 0.20871149098 0.20839482481 0.2079078453 0.20717213095 
0.20614135348 0.20481298112 0.20323277266 0.20149179963 0.19971745011 0.19806102245 0.19668450376 0.19574795707 0.19539745506 
0.1957528639 0.19689553384 0.1988574784 0.20161465886 0.20508668012 0.20914371543 0.21361970296 0.21832961588 0.22308814364 
0.22772723024 0.23211032418 0.23614177745 0.23977055015 0.24298816939 0.24582164029 0.24832258816 0.2505542597 0.25257813717 
0.25444187214 0.25617005481 0.25775898262 0.25917604886 0.26036366788 0.26124692056 0.26174352706 0.26177446452 0.26127352673 
0.26019426574 0.25851305209 0.25622756407 0.25335090794 0.24990256687 0.24589814093 0.24134014473 0.23621191383 0.23047600392 
0.22407749773 0.21695158922 0.20903394385 0.20027183922 0.19063406518 0.18011797825 0.16875282208 0.15659921185 0.14374526858 
0.1303001349 0.11638559678 0.10212653322 0.087641075649 0.073031600316 0.058377774226 0.04373267192 0.029122499198 0.014549862346 
3.6506383762e-16 
_area 1 100 double
0 0.00049210273386 0.001965096231 0.0044073736034 0.0077946768932 0.012084764232 0.017213322329 0.023092808483 0.029614346975 
0.036651009694 0.044060050685 0.051682773869 0.059343217665 0.066849034782 0.073998142091 0.080592567292 0.086457571999 0.091461302588 
0.09552920902 0.098648708498 0.10086271392 0.10225478711 0.10293201491 0.10301159406 0.10261291669 0.10185290839 0.10084320676 
0.099691028416 0.098504086689 0.097394979694 0.096481915885 0.095889917681 0.095725315793 0.095988594122 0.096562792612 0.097273511651 
0.097972470458 0.098571854417 0.099043928973 0.099338140067 0.099505968388 0.099659754507 0.09995550664 0.10057471777 0.10169419864 
0.10342151246 0.10581187525 0.1088944325 0.11266692358 0.11708351301 0.12205208811 0.12743916428 0.13307871776 0.13878475171 
0.14436790585 0.14965474058 0.15450661817 0.15883406008 0.16260270535 0.16582924584 0.16856909195 0.17089996969 0.17290609982 
0.17466631541 0.17624645451 0.177690302 0.17899652447 0.18008420884 0.18079012405 0.18091566058 0.18027998833 0.17874960873 
0.17625054281 0.17277278144 0.16836748972 0.16313480932 0.15720223369 0.15069770144 0.14372488876 0.13634878676 0.12859636327 
0.12047084572 0.11197300434 0.10312183027 0.093969014732 0.084604138311 0.075149914706 0.065749701724 0.056552243622 0.047699439527 
0.039320513012 0.031531562181 0.024436657273 0.018127505649 0.012681499105 0.0081597808497 0.0046068794228 0.0020523424437 0.00051375142608 
2.2978513625e-17 
