# vtk DataFile Version 5.1
vtk output
ASCII
DATASET POLYDATA
POINTS 100 float
0.142786 0.0286992 -0.625836 0.142933 0.0288529 -0.626149 0.143369 0.0291419 -0.627095 
0.144051 0.0295335 -0.628526 0.144914 0.0299751 -0.630209 0.145869 0.0303986 -0.631849 
0.146811 0.0307253 -0.633124 0.147626 0.030872 -0.633708 0.148194 0.0307571 -0.63331 
0.148394 0.0303064 -0.631694 0.148115 0.0294585 -0.628702 0.147252 0.0281685 -0.624265 
0.145718 0.0264105 -0.6184 0.143438 0.0241787 -0.611206 0.140356 0.0214861 -0.602844 
0.136434 0.0183623 -0.593516 0.131653 0.01485 -0.583437 0.126008 0.0110007 -0.572812 
0.119516 0.00686962 -0.561811 0.112205 0.0025122 -0.550554 0.104123 -0.00202 -0.5391 
0.095329 -0.00668134 -0.527443 0.0858984 -0.011433 -0.51552 0.0759163 -0.0162422 -0.503224 
0.0654779 -0.0210804 -0.490421 0.0546852 -0.0259198 -0.476965 0.0436436 -0.0307297 -0.462728 
0.0324582 -0.0354728 -0.447604 0.0212302 -0.0401021 -0.431532 0.0100527 -0.0445583 -0.414497 
-0.000991982 -0.0487702 -0.396532 -0.0118349 -0.0526555 -0.37771 -0.0224211 -0.0561247 -0.358137 
-0.0327094 -0.0590859 -0.337931 -0.0426698 -0.0614515 -0.317216 -0.0522805 -0.0631456 -0.296097 
-0.0615224 -0.0641105 -0.27466 -0.0703745 -0.0643135 -0.252953 -0.0788082 -0.0637507 -0.230995 
-0.0867824 -0.0624498 -0.208773 -0.0942407 -0.0604692 -0.186252 -0.10111 -0.0578947 -0.163388 
-0.1073 -0.0548341 -0.14014 -0.112709 -0.0514086 -0.116484 -0.117229 -0.047744 -0.0924282 
-0.120752 -0.0439615 -0.068014 -0.123179 -0.040168 -0.0433254 -0.124433 -0.0364499 -0.0184844 
-0.12446 -0.0328674 0.0063551 -0.123247 -0.0294533 0.0310189 -0.120816 -0.026214 0.0553261 
-0.117234 -0.0231337 0.0791048 -0.112606 -0.0201812 0.102206 -0.107072 -0.0173182 0.124517 
-0.100801 -0.014508 0.145968 -0.0939773 -0.0117242 0.166538 -0.086789 -0.0089573 0.186252 
-0.0794181 -0.00621933 0.205175 -0.0720271 -0.00354519 0.223405 -0.0647502 -0.000990967 0.241056 
-0.057686 0.00137089 0.258248 -0.0508945 0.00345891 0.275091 -0.0443965 0.00519152 0.291676 
-0.0381781 0.00649667 0.308069 -0.0321965 0.00732079 0.324301 -0.0263897 0.00763621 0.340378 
-0.0206862 0.0074459 0.356273 -0.0150155 0.00678512 0.371947 -0.00931823 0.00571964 0.387346 
-0.0035538 0.00434065 0.402418 0.00229431 0.00275698 0.41712 0.00821591 0.00108543 0.431424 
0.0141748 -0.00055974 0.445322 0.0201123 -0.00207695 0.458825 0.0259529 -0.00338608 0.471959 
0.0316123 -0.00443487 0.484762 0.0370052 -0.00520234 0.49727 0.042054 -0.00569898 0.509512 
0.0466957 -0.00596374 0.5215 0.0508881 -0.00605832 0.533218 0.0546127 -0.00605946 0.544622 
0.057876 -0.00605011 0.555634 0.060708 -0.00611062 0.566149 0.0631587 -0.00631068 0.576038 
0.0652922 -0.00670305 0.585161 0.0671805 -0.0073194 0.593381 0.0688966 -0.00816872 0.600571 
0.0705069 -0.00923805 0.606637 0.0720663 -0.0104954 0.611523 0.0736127 -0.011894 0.615221 
0.0751649 -0.013378 0.61778 0.0767214 -0.0148872 0.619298 0.0782621 -0.0163626 0.619926 
0.0797506 -0.0177501 0.619851 0.0811389 -0.0190033 0.619285 0.082373 -0.0200846 0.618451 
0.0833981 -0.0209656 0.61756 0.0841648 -0.0216264 0.616798 0.084634 -0.022054 0.616309 
0.0847806 -0.0222412 0.616185 
LINES 2 100
OFFSETS vtktypeint64
0 100 
CONNECTIVITY vtktypeint64
0 1 2 3 4 5 6 7 8 
9 10 11 12 13 14 15 16 17 
18 19 20 21 22 23 24 25 26 
27 28 29 30 31 32 33 34 35 
36 37 38 39 40 41 42 43 44 
45 46 47 48 49 50 51 52 53 
54 55 56 57 58 59 60 61 62 
63 64 65 66 67 68 69 70 71 
72 73 74 75 76 77 78 79 80 
81 82 83 84 85 86 87 88 89 
90 91 92 93 94 95 96 97 98 
99 
POINT_DATA 100
FIELD FieldData 3
_theta 1 100 double
0 0.031733259127 0.063466518254 0.095199777382 0.12693303651 0.15866629564 0.19039955476 0.22213281389 0.25386607302 
0.28559933214 0.31733259127 0.3490658504 0.38079910953 0.41253236865 0.44426562778 0.47599888691 0.50773214603 0.53946540516 
0.57119866429 0.60293192342 0.63466518254 0.66639844167 0.6981317008 0.72986495992 0.76159821905 0.79333147818 0.82506473731 
0.85679799643 0.88853125556 0.92026451469 0.95199777382 0.98373103294 1.0154642921 1.0471975512 1.0789308103 1.1106640695 
1.1423973286 1.1741305877 1.2058638468 1.237597106 1.2693303651 1.3010636242 1.3327968833 1.3645301425 1.3962634016 
1.4279966607 1.4597299198 1.491463179 1.5231964381 1.5549296972 1.5866629564 1.6183962155 1.6501294746 1.6818627337 
1.7135959929 1.745329252 1.7770625111 1.8087957702 1.8405290294 1.8722622885 1.9039955476 1.9357288068 1.9674620659 
1.999195325 2.0309285841 2.0626618433 2.0943951024 2.1261283615 2.1578616206 2.1895948798 2.2213281389 2.253061398 
2.2847946572 2.3165279163 2.3482611754 2.3799944345 2.4117276937 2.4434609528 2.4751942119 2.506927471 2.5386607302 
2.5703939893 2.6021272484 2.6338605076 2.6655937667 2.6973270258 2.7290602849 2.7607935441 2.7925268032 2.8242600623 
2.8559933214 2.8877265806 2.9194598397 2.9511930988 2.982926358 3.0146596171 3.0463928762 3.0781261353 3.1098593945 
3.1415926536 
_radius 1 100 double
1.698442233e-15 0.015305068142 0.030481726388 0.045397369947 0.059925577115 0.073950110743 0.087369379084 0.10010098977 0.11208534279 
0.12328689647 0.13369212109 0.14330408091 0.15213465508 0.16019620714 0.16749474641 0.17402620259 0.17977652729 0.18472530669 
0.18885178652 0.1921418806 0.1945948441 0.19622868081 0.19708379248 0.19722467093 0.19673949561 0.19573742121 0.19434333815 
0.19269016396 0.190909303 0.18912059158 0.18742347123 0.1858909922 0.18456752903 0.18347016603 0.18259309587 0.18191423764 
0.18140329796 0.18103033561 0.18077364717 0.18062571024 0.18059604344 0.18071026921 0.18100565457 0.18152472943 0.18230928501 
0.18339651184 0.18481777427 0.18659935692 0.18876375087 0.19132977717 0.19431024904 0.19770691331 0.20150369229 0.20566020058 
0.21010770531 0.214749119 0.21946363627 0.22411560808 0.22856632014 0.23268663854 0.23636827426 0.23953183327 0.24213066586 
0.2441504512 0.24560516988 0.24653050798 0.24697581319 0.24699559756 0.2466414048 0.24595474715 0.24496177638 0.24367028457 
0.24206940754 0.24013198384 0.2378190085 0.23508520446 0.23188457885 0.2281749905 0.22392116248 0.21909608794 0.21368121988 
0.20766604908 0.20104758342 0.19382989137 0.18602342608 0.17764352927 0.16870753118 0.15923030438 0.14921889934 0.13866770697 
0.1275560728 0.1158501074 0.10350951383 0.090498832932 0.076801093614 0.062430966372 0.047444436976 0.031942706356 0.016069210501 
1.3420655717e-15 
_area 1 100 double
0 0.00056263556636 0.0022463092867 0.0050356165232 0.0088956692224 0.013759454765 0.019516014446 0.026006473848 0.033031844637 
0.040370868741 0.047802115542 0.055123641056 0.06216507537 0.068789958042 0.0748896752 0.080373366269 0.085159218971 0.089171054887 
0.092341082368 0.094616902493 0.095969500897 0.096399530761 0.095941294031 0.094665822587 0.092684393412 0.090151589491 0.087264832117 
0.08425683501 0.081376926189 0.078853352177 0.076834788687 0.075361458948 0.074406449735 0.073922723934 0.073866002815 0.074204635282 
0.074934895551 0.076107812095 0.077843518546 0.080226198481 0.083053762838 0.086020912799 0.088922333741 0.091636000182 0.094096891613 
0.096287256651 0.098240863218 0.10005257065 0.10187770196 0.10391779942 0.1064096517 0.10959417888 0.11362641343 0.11850643099 
0.12411096515 0.13025054356 0.13669353623 0.14317414037 0.14940707121 0.15511372914 0.16005234997 0.16404308131 0.1669828199 
0.16884851779 0.16969057072 0.16961956997 0.16878767194 0.16735776579 0.16546019484 0.1631792834 0.16057894088 0.15771437206 
0.15462212535 0.15130704932 0.14773578613 0.14383979673 0.13952782216 0.1347052361 0.12929560871 0.12325899067 0.11660290931 
0.10938499754 0.10170826502 0.093710178528 0.085546235665 0.07736946628 0.069309614041 0.061458032193 0.05386395388 0.046543592368 
0.039498228059 0.032735155914 0.026286443631 0.020222188859 0.014655868304 0.0097400312403 0.0056519497557 0.0025710224184 0.00065204692405 
2.8412871529e-17 
