# vtk DataFile Version 5.1
vtk output
ASCII
DATASET POLYDATA
POINTS 100 float
0.176937 0.0727666 -0.668972 0.176379 0.0725313 -0.668312 0.174765 0.0716202 -0.666382 
0.172239 0.0700755 -0.663247 0.169022 0.0679632 -0.659016 0.165383 0.0653663 -0.653822 
0.1616 0.0623747 -0.64782 0.15793 0.0590768 -0.641168 0.154572 0.0555496 -0.634017 
0.151642 0.0518525 -0.626501 0.14916 0.0480223 -0.618723 0.147046 0.0440719 -0.610755 
0.145129 0.0399931 -0.602629 0.143172 0.0357606 -0.594344 0.140899 0.03134 -0.585867 
0.138031 0.0266959 -0.577139 0.134317 0.0218009 -0.568084 0.129566 0.0166435 -0.558619 
0.123666 0.0112336 -0.548663 0.116596 0.00560618 -0.53814 0.108422 -0.000178995 -0.526989 
0.099288 -0.00603978 -0.515166 0.0893905 -0.0118773 -0.502642 0.0789533 -0.0175835 -0.489402 
0.0681972 -0.0230489 -0.475445 0.0573132 -0.0281717 -0.460774 0.0464417 -0.0328645 -0.445394 
0.0356599 -0.0370598 -0.429307 0.0249807 -0.0407135 -0.412508 0.0143612 -0.043805 -0.394986 
0.00372049 -0.0463353 -0.376719 -0.00703576 -0.0483232 -0.357683 -0.0179886 -0.0498 -0.337848 
-0.0291799 -0.0508035 -0.317192 -0.0405911 -0.0513727 -0.2957 -0.0521304 -0.0515433 -0.27337 
-0.0636297 -0.0513445 -0.250223 -0.0748523 -0.0507985 -0.226302 -0.0855099 -0.0499208 -0.201672 
-0.0952882 -0.0487229 -0.176425 -0.103876 -0.0472157 -0.150672 -0.110998 -0.0454133 -0.124543 
-0.116437 -0.0433364 -0.098176 -0.120063 -0.0410152 -0.0717156 -0.121837 -0.0384904 -0.0453032 
-0.121821 -0.0358128 -0.0190713 -0.120166 -0.0330415 0.00686177 -0.117093 -0.0302398 0.0323959 
-0.112874 -0.0274714 0.0574513 -0.107802 -0.0247951 0.0819691 -0.102161 -0.0222606 0.10591 
-0.0962063 -0.0199045 0.129254 -0.0901409 -0.0177488 0.151992 -0.0841069 -0.0157995 0.174127 
-0.078181 -0.0140485 0.195669 -0.0723802 -0.012476 0.216629 -0.0666731 -0.0110545 0.237021 
-0.0609955 -0.00975335 0.256854 -0.0552692 -0.00854353 0.276137 -0.0494183 -0.00740132 0.294876 
-0.0433844 -0.00631145 0.313076 -0.0371355 -0.00526857 0.33074 -0.0306713 -0.00427725 0.347875 
-0.024021 -0.00335056 0.36449 -0.0172387 -0.00250743 0.380599 -0.0103939 -0.00176935 0.39622 
-0.0035618 -0.00115686 0.411378 0.00318595 -0.000686272 0.426101 0.00978885 -0.000367258 0.440421 
0.0162014 -0.000201427 0.45437 0.0223935 -0.000182156 0.467981 0.0283473 -0.000295582 0.481281 
0.0340518 -0.000522536 0.494293 0.0394964 -0.000841073 0.507033 0.044664 -0.00122917 0.519507 
0.0495274 -0.00166716 0.531711 0.0540477 -0.00213951 0.543631 0.0581764 -0.00263573 0.555244 
0.0618614 -0.00315023 0.566518 0.0650555 -0.00368135 0.577413 0.0677263 -0.00422955 0.587887 
0.0698662 -0.00479534 0.597893 0.0714995 -0.00537717 0.607387 0.0726868 -0.00596975 0.616324 
0.0735242 -0.0065631 0.624668 0.074137 -0.00714253 0.632389 0.0746693 -0.00768969 0.639463 
0.0752687 -0.00818434 0.64588 0.0760701 -0.00860692 0.651637 0.0771787 -0.00894124 0.656744 
0.0786561 -0.00917699 0.661216 0.08051 -0.00931178 0.665082 0.0826911 -0.00935207 0.668373 
0.085096 -0.00931314 0.671126 0.0875768 -0.00921771 0.67338 0.0899573 -0.00909365 0.675173 
0.0920522 -0.00897076 0.676539 0.0936884 -0.00887735 0.67751 0.0947254 -0.00883674 0.678106 
0.0950715 -0.00886442 0.678343 
LINES 2 100
OFFSETS vtktypeint64
0 100 
CONNECTIVITY vtktypeint64
0 1 2 3 4 5 6 7 8 
9 10 11 12 13 14 15 16 17 
18 19 20 21 22 23 24 25 26 
27 28 29 30 31 32 33 34 35 
36 37 38 39 40 41 42 43 44 
45 46 47 48 49 50 51 52 53 
54 55 56 57 58 59 60 61 62 
63 64 65 66 67 68 69 70 71 
72 73 74 75 76 77 78 79 80 
81 82 83 84 85 86 87 88 89 
90 91 92 93 94 95 96 97 98 
99 
POINT_DATA 100
FIELD FieldData 3
_theta 1 100 double
0 0.031733259127 0.063466518254 0.095199777382 0.12693303651 0.15866629564 0.19039955476 0.22213281389 0.25386607302 
0.28559933214 0.31733259127 0.3490658504 0.38079910953 0.41253236865 0.44426562778 0.47599888691 0.50773214603 0.53946540516 
0.57119866429 0.60293192342 0.63466518254 0.66639844167 0.6981317008 0.72986495992 0.76159821905 0.79333147818 0.82506473731 
0.85679799643 0.88853125556 0.92026451469 0.95199777382 0.98373103294 1.0154642921 1.0471975512 1.0789308103 1.1106640695 
1.1423973286 1.1741305877 1.2058638468 1.237597106 1.2693303651 1.3010636242 1.3327968833 1.3645301425 1.3962634016 
1.4279966607 1.4597299198 1.491463179 1.5231964381 1.5549296972 1.5866629564 1.6183962155 1.6501294746 1.6818627337 
1.7135959929 1.745329252 1.7770625111 1.8087957702 1.8405290294 1.8722622885 1.9039955476 1.9357288068 1.9674620659 
1.999195325 2.0309285841 2.0626618433 2.0943951024 2.1261283615 2.1578616206 2.1895948798 2.2213281389 2.253061398 
2.2847946572 2.3165279163 2.3482611754 2.3799944345 2.4117276937 2.4434609528 2.4751942119 2.506927471 2.5386607302 
2.5703939893 2.6021272484 2.6338605076 2.6655937667 2.6973270258 2.7290602849 2.7607935441 2.7925268032 2.8242600623 
2.8559933214 2.8877265806 2.9194598397 2.9511930988 2.982926358 3.0146596171 3.0463928762 3.0781261353 3.1098593945 
3.1415926536 
_radius 1 100 double
4.200180745e-16 0.014654275266 0.02924246557 0.043696846105 0.057955474672 0.071964677599 0.085680439759 0.099067978405 0.11209888564 
0.12474569121 0.13697449053 0.14873717507 0.1599654294 0.17056866078 0.180437243 0.18945108858 0.19749215737 0.20445865584 
0.21027861643 0.21492101684 0.21840313833 0.22079322083 0.22220775954 0.22280323017 0.22276268982 0.22227845054 0.22153271501 
0.22067862492 0.21982453911 0.21902436631 0.21827619272 0.21753015199 0.21670468857 0.21570858108 0.21446490602 0.21293286734 
0.21112399178 0.20911022239 0.20702271613 0.20504176919 0.20338017295 0.2022635886 0.20191105443 0.20251655675 0.20423063404 
0.20714136471 0.21125675868 0.21649322939 0.22267511442 0.22954772362 0.23680264347 0.24411096619 0.25115875976 0.25767932684 
0.26347797591 0.2684465823 0.27256682572 0.27590247245 0.27858229335 0.2807760921 0.28266686239 0.2844223688 0.28616952298 
0.28797477961 0.28983326837 0.29166836331 0.29334187775 0.29467331981 0.29546507741 0.29552943794 0.29471320546 0.292916328 
0.29010215971 0.2862984436 0.28158951266 0.27610134694 0.26998187554 0.2633792649 0.25642096465 0.24919609273 0.24174339642 
0.23404649897 0.22603734683 0.21760766114 0.20862687452 0.1989637839 0.18850833973 0.17718989848 0.16498895124 0.1519406322 
0.13812988452 0.12367965094 0.10873455738 0.093443084052 0.077941139974 0.062339380916 0.046715728431 0.031113574459 0.015545286062 
8.4226142412e-16 
_area 1 100 double
0 0.00061670336604 0.0024513920964 0.0054572977716 0.0095557755504 0.014638198344 0.020572800075 0.027217161784 0.034433313359 
0.042097884512 0.050098219462 0.058312952547 0.066589431087 0.074734117566 0.082521309321 0.089714844604 0.096094057707 0.1014762831 
0.10573188358 0.10879266429 0.11065757525 0.11139862796 0.1111661068 0.11018852031 0.10876071567 0.10721212745 0.10584981971 
0.1048928532 0.10444100966 0.10448635301 0.10493505735 0.10563768426 0.10643062803 0.10717279571 0.10777188509 0.10820363093 
0.10851960056 0.10882557152 0.10921978894 0.10974179252 0.11039840711 0.11123013899 0.11235342132 0.11396919955 0.1163464331 
0.11978001858 0.12452397443 0.13071984564 0.13834989978 0.14722791221 0.15702091832 0.16729049368 0.17754570649 0.18730204889 
0.19613952947 0.20375175902 0.20997826616 0.21481497228 0.21840274071 0.22100154933 0.22297084641 0.22473098488 0.22655452209 
0.22851882908 0.2305922055 0.2326157603 0.23430972221 0.2353104026 0.23523205795 0.23374017085 0.23061453877 0.22578752575 
0.2193495957 0.21152285671 0.20261340902 0.19295944056 0.18288794768 0.17268205624 0.16255583232 0.15263704439 0.14296212563 
0.13348650784 0.12410908116 0.11470532155 0.10516198544 0.095407134416 0.085431027762 0.075295125432 0.065128302326 0.055111697767 
0.045455970553 0.036376139785 0.028068996989 0.020696539222 0.014376991328 0.0091835575335 0.0051500778027 0.0022818762826 0.00056919069843 
2.898202664e-17 
