# vtk DataFile Version 5.1
vtk output
ASCII
DATASET POLYDATA
POINTS 100 float
0.169873 0.0241182 -0.693921 0.169808 0.0239846 -0.693886 0.169621 0.0234644 -0.693763 
0.1693 0.0226076 -0.693446 0.168828 0.0214882 -0.692773 0.168175 0.0201929 -0.691549 
0.167304 0.0188075 -0.689568 0.166163 0.0174031 -0.686639 0.16469 0.0160248 -0.682613 
0.162811 0.0146834 -0.677396 0.160443 0.0133524 -0.670962 0.157497 0.0119709 -0.663353 
0.153882 0.0104514 -0.654668 0.149511 0.00869182 -0.645052 0.144308 0.00659068 -0.634671 
0.138218 0.0040628 -0.623688 0.13121 0.00105352 -0.612245 0.123285 -0.00245035 -0.60044 
0.114481 -0.00641455 -0.588319 0.104872 -0.0107572 -0.575872 0.0945693 -0.0153545 -0.563035 
0.0837176 -0.0200517 -0.549708 0.0724839 -0.0246777 -0.535768 0.0610485 -0.0290617 -0.521092 
0.0495921 -0.03305 -0.505578 0.0382815 -0.0365199 -0.489159 0.0272561 -0.0393899 -0.471816 
0.0166164 -0.0416247 -0.453579 0.00641546 -0.0432346 -0.434524 -0.00334478 -0.044269 -0.41476 
-0.0127124 -0.0448065 -0.394412 -0.0217785 -0.044941 -0.373599 -0.0306645 -0.0447683 -0.352416 
-0.0395062 -0.0443724 -0.330916 -0.0484334 -0.0438163 -0.309101 -0.0575502 -0.0431353 -0.286918 
-0.0669148 -0.0423367 -0.264266 -0.0765246 -0.0414032 -0.241013 -0.0863048 -0.0403009 -0.217011 
-0.0961056 -0.0389896 -0.192126 -0.105706 -0.0374344 -0.166258 -0.114828 -0.0356164 -0.139367 
-0.12315 -0.0335406 -0.111487 -0.130341 -0.0312401 -0.0827328 -0.136078 -0.0287759 -0.0532978 
-0.140083 -0.0262318 -0.0234446 -0.142141 -0.023706 0.00651695 -0.142128 -0.0212996 0.0362542 
-0.140017 -0.019104 0.0654407 -0.135885 -0.0171896 0.0937839 -0.129909 -0.0155969 0.121048 
-0.122345 -0.0143316 0.147073 -0.113514 -0.0133637 0.17178 -0.103767 -0.0126328 0.195172 
-0.093457 -0.0120564 0.217323 -0.0829092 -0.0115423 0.238362 -0.0723959 -0.0110017 0.258451 
-0.0621157 -0.0103625 0.277759 -0.0521832 -0.00958 0.296446 -0.0426271 -0.00864414 0.31464 
-0.0333982 -0.00758186 0.332427 -0.0243853 -0.00645441 0.34985 -0.0154373 -0.00534981 0.366912 
-0.00638875 -0.00437167 0.383581 0.00291403 -0.00362567 0.399811 0.0125895 -0.00320568 0.415552 
0.0227028 -0.00318132 0.43077 0.0332549 -0.00358866 0.445454 0.0441799 -0.00442521 0.459625 
0.0553508 -0.00564997 0.473337 0.0665928 -0.00718833 0.486666 0.0777021 -0.00894117 0.499708 
0.0884681 -0.0107968 0.512554 0.0986958 -0.0126444 0.525285 0.108226 -0.0143861 0.537948 
0.116952 -0.0159483 0.550554 0.124828 -0.0172877 0.563069 0.131872 -0.0183942 0.575417 
0.13816 -0.0192885 0.587487 0.143817 -0.0200164 0.599148 0.148999 -0.020639 0.610263 
0.153875 -0.0212223 0.62071 0.158608 -0.021826 0.630393 0.163338 -0.0224946 0.639261 
0.168167 -0.0232505 0.647309 0.173156 -0.0240916 0.654581 0.178314 -0.0249921 0.66116 
0.183606 -0.0259081 0.66716 0.188962 -0.0267846 0.672703 0.194281 -0.0275652 0.677906 
0.199449 -0.0282011 0.68286 0.20435 -0.0286594 0.687617 0.208874 -0.0289283 0.692181 
0.212928 -0.0290191 0.696509 0.216438 -0.0289647 0.700512 0.219351 -0.0288146 0.70407 
0.221636 -0.0286271 0.707046 0.223272 -0.0284609 0.709308 0.224252 -0.0283652 0.710743 
0.224573 -0.0283732 0.711278 
LINES 2 100
OFFSETS vtktypeint64
0 100 
CONNECTIVITY vtktypeint64
0 1 2 3 4 5 6 7 8 
9 10 11 12 13 14 15 16 17 
18 19 20 21 22 23 24 25 26 
27 28 29 30 31 32 33 34 35 
36 37 38 39 40 41 42 43 44 
45 46 47 48 49 50 51 52 53 
54 55 56 57 58 59 60 61 62 
63 64 65 66 67 68 69 70 71 
72 73 74 75 76 77 78 79 80 
81 82 83 84 85 86 87 88 89 
90 91 92 93 94 95 96 97 98 
99 
POINT_DATA 100
FIELD FieldData 3
_theta 1 100 double
0 0.031733259127 0.063466518254 0.095199777382 0.12693303651 0.15866629564 0.19039955476 0.22213281389 0.25386607302 
0.28559933214 0.31733259127 0.3490658504 0.38079910953 0.41253236865 0.44426562778 0.47599888691 0.50773214603 0.53946540516 
0.57119866429 0.60293192342 0.63466518254 0.66639844167 0.6981317008 0.72986495992 0.76159821905 0.79333147818 0.82506473731 
0.85679799643 0.88853125556 0.92026451469 0.95199777382 0.98373103294 1.0154642921 1.0471975512 1.0789308103 1.1106640695 
1.1423973286 1.1741305877 1.2058638468 1.237597106 1.2693303651 1.3010636242 1.3327968833 1.3645301425 1.3962634016 
1.4279966607 1.4597299198 1.491463179 1.5231964381 1.5549296972 1.5866629564 1.6183962155 1.6501294746 1.6818627337 
1.7135959929 1.745329252 1.7770625111 1.8087957702 1.8405290294 1.8722622885 1.9039955476 1.9357288068 1.9674620659 
1.999195325 2.0309285841 2.0626618433 2.0943951024 2.1261283615 2.1578616206 2.1895948798 2.2213281389 2.253061398 
2.2847946572 2.3165279163 2.3482611754 2.3799944345 2.4117276937 2.4434609528 2.4751942119 2.506927471 2.5386607302 
2.5703939893 2.6021272484 2.6338605076 2.6655937667 2.6973270258 2.7290602849 2.7607935441 2.7925268032 2.8242600623 
2.8559933214 2.8877265806 2.9194598397 2.9511930988 2.982926358 3.0146596171 3.0463928762 3.0781261353 3.1098593945 
3.1415926536 
_radius 1 100 double
6.2807531464e-16 0.017430129703 0.034727364236 0.05175961477 0.068398027101 0.084520099183 0.10001318444 0.11477731775 0.12872643765 
0.14178763856 0.15389881133 0.16500564876 0.17505929766 0.18401584109 0.19183833993 0.19850150082 0.20399834385 0.20834766189 
0.21160069127 0.21384532988 0.21520650126 0.21584187088 0.21593295642 0.21567251202 0.21524966665 0.21483453632 0.21456396663 
0.21452986119 0.21477133505 0.21527171985 0.21596118176 0.21672528637 0.2174191378 0.2178857465 0.21797632462 0.21756973299 
0.21658864816 0.21501104789 0.2128766581 0.21028837148 0.20740839905 0.20444873237 0.20165584261 0.19929044251 0.19760439349 
0.19681788698 0.19709999319 0.19855443951 0.20121125463 0.20502466578 0.2098776724 0.21559291568 0.22194811998 0.22869375733 
0.23557106825 0.24232933957 0.2487416272 0.2546179925 0.25981527408 0.26424269483 0.26786310765 0.27069016074 0.27278191268 
0.27423142733 0.2751548015 0.27567717248 0.27591764007 0.27597459836 0.27591340722 0.27575832922 0.27549005697 0.27504905134 
0.27434365131 0.27326097873 0.27167840904 0.26947385168 0.26653398044 0.26276041621 0.25807433313 0.25241994634 0.24576702043 
0.23811219468 0.22947875394 0.21991453151 0.20948785522 0.19828177008 0.1863871388 0.173895565 0.16089327217 0.14745694767 
0.13365206843 0.11953351383 0.10514765584 0.090534883496 0.0757317313 0.060772259588 0.045688788891 0.030512311916 0.015272868683 
3.6763991546e-16 
_area 1 100 double
0 0.00055619994126 0.0022308773489 0.0050366337289 0.008978153817 0.014034855633 0.020146934372 0.027209015279 0.0350720334 
0.043550319144 0.052429432229 0.061472004528 0.070422136525 0.079011128184 0.086967323456 0.094031493918 0.099977688013 0.10463786808 
0.10792649218 0.10985898439 0.11055739814 0.11023884995 0.10918722139 0.10771432242 0.10612071353 0.1046668751 0.10356214756 
0.10297066918 0.10299688442 0.10361716502 0.1046929457 0.10605644383 0.10753441921 0.10896475933 0.11020419179 0.1111278433 
0.11162432476 0.11159895723 0.11099722631 0.10984504458 0.10828546699 0.10658754705 0.10510322371 0.10415810382 0.10396436041 
0.10479178135 0.10680156536 0.10955877248 0.11290574096 0.1168768409 0.12156475601 0.12706697648 0.13345358597 0.14073399857 
0.14881995364 0.15750403277 0.16646809084 0.17530908359 0.18357372458 0.19082776206 0.19674430525 0.20115225845 0.20403664487 
0.20551518996 0.20580997664 0.20519538444 0.20395826339 0.20266829358 0.20153063987 0.20071751713 0.19975888728 0.19852557323 
0.19686635772 0.19459676316 0.19152432329 0.18748070073 0.18234826227 0.17607361773 0.1686673648 0.16019444704 0.1507618439 
0.14050962628 0.12960698523 0.11824937594 0.10665174312 0.09503611257 0.083615447046 0.072577424663 0.062072162779 0.0522073239 
0.043052265993 0.034649968715 0.027032581753 0.020235458938 0.01430597917 0.0093058120609 0.0053070357915 0.002383529778 0.00059980660918 
1.734723476e-18 
