# vtk DataFile Version 5.1
vtk output
ASCII
DATASET POLYDATA
POINTS 100 float
0.086364 0.0512432 0.685673 0.08655 0.0513786 0.685427 0.0871549 0.0516134 0.684562 
0.0880978 0.0519399 0.683089 0.0892544 0.0523468 0.68102 0.0904726 0.0528199 0.678371 
0.0915914 0.0533433 0.675156 0.09246 0.0539002 0.671379 0.0929556 0.0544731 0.667037 
0.0929969 0.0550446 0.662116 0.0925514 0.055596 0.656588 0.091636 0.0561069 0.650416 
0.0903111 0.0565542 0.643559 0.088668 0.0569108 0.635972 0.0868135 0.0571452 0.627617 
0.0848513 0.0572218 0.618466 0.0828653 0.057102 0.608509 0.0809054 0.0567465 0.597756 
0.0789783 0.0561188 0.58624 0.0770449 0.0551896 0.574016 0.0750238 0.0539413 0.561162 
0.0728014 0.0523723 0.547767 0.0702454 0.0505012 0.533934 0.0672223 0.0483687 0.519764 
0.0636139 0.0460385 0.505354 0.0593325 0.043595 0.490786 0.0543312 0.0411397 0.476125 
0.0486099 0.0387848 0.461412 0.0422141 0.0366454 0.446664 0.0352292 0.0348306 0.431875 
0.0277689 0.0334351 0.417019 0.0199619 0.0325305 0.402053 0.0119374 0.03216 0.386925 
0.00381152 0.0323338 0.371578 -0.00432208 0.033029 0.355957 -0.0123979 0.0341919 0.340012 
-0.0203783 0.0357435 0.323702 -0.0282485 0.0375869 0.306994 -0.0360074 0.0396173 0.289869 
-0.0436558 0.0417318 0.27231 -0.0511838 0.043839 0.25431 -0.0585605 0.0458669 0.235862 
-0.0657259 0.0477687 0.216959 -0.0725889 0.0495257 0.197592 -0.0790292 0.0511464 0.17775 
-0.0849061 0.0526633 0.157417 -0.0900701 0.0541267 0.13658 -0.0943782 0.0555967 0.115225 
-0.0977094 0.0571346 0.0933475 -0.0999791 0.0587945 0.0709514 -0.101149 0.0606157 0.0480547 
-0.101233 0.0626176 0.0246918 -0.100298 0.0647967 0.000914459 -0.0984516 0.0671264 -0.0232086 
-0.0958382 0.0695592 -0.0475936 -0.0926168 0.0720317 -0.072145 -0.088946 0.0744697 -0.0967605 
-0.084966 0.0767953 -0.121336 -0.0807847 0.0789327 -0.14577 -0.0764674 0.0808137 -0.169971 
-0.072033 0.0823811 -0.193857 -0.0674557 0.0835908 -0.217362 -0.0626737 0.084411 -0.240435 
-0.0576012 0.0848213 -0.263039 -0.0521438 0.0848091 -0.285149 -0.0462152 0.084366 -0.306749 
-0.0397511 0.083485 -0.327832 -0.0327207 0.0821572 -0.348389 -0.0251333 0.080371 -0.368414 
-0.0170386 0.0781115 -0.387896 -0.00852247 0.0753629 -0.406819 0.00030223 0.0721113 -0.425165 
0.00930802 0.0683482 -0.442908 0.0183661 0.0640755 -0.460022 0.0273589 0.0593088 -0.476479 
0.0361902 0.0540806 -0.492252 0.0447908 0.0484417 -0.507317 0.05312 0.0424609 -0.521657 
0.0611622 0.036223 -0.535256 0.0689192 0.0298246 -0.548108 0.0764006 0.0233693 -0.560209 
0.0836125 0.0169619 -0.571563 0.0905483 0.0107018 -0.582174 0.0971812 0.00467835 -0.59205 
0.103461 -0.0010341 -0.601199 0.109317 -0.00637861 -0.60963 0.114664 -0.0113168 -0.617354 
0.11941 -0.0158281 -0.62438 0.123474 -0.0199077 -0.63072 0.126794 -0.0235631 -0.636388 
0.129341 -0.0268101 -0.641401 0.131129 -0.029669 -0.645779 0.132214 -0.032161 -0.649545 
0.132697 -0.0343051 -0.652728 0.132712 -0.0361168 -0.655354 0.132415 -0.037607 -0.657455 
0.131969 -0.0387823 -0.659056 0.131524 -0.039646 -0.660182 0.131202 -0.0401992 -0.660851 
0.131082 -0.040442 -0.661075 
LINES 2 100
OFFSETS vtktypeint64
0 100 
CONNECTIVITY vtktypeint64
0 1 2 3 4 5 6 7 8 
9 10 11 12 13 14 15 16 17 
18 19 20 21 22 23 24 25 26 
27 28 29 30 31 32 33 34 35 
36 37 38 39 40 41 42 43 44 
45 46 47 48 49 50 51 52 53 
54 55 56 57 58 59 60 61 62 
63 64 65 66 67 68 69 70 71 
72 73 74 75 76 77 78 79 80 
81 82 83 84 85 86 87 88 89 
90 91 92 93 94 95 96 97 98 
99 
POINT_DATA 100
FIELD FieldData 3
_theta 1 100 double
0 0.031733259127 0.063466518254 0.095199777382 0.12693303651 0.15866629564 0.19039955476 0.22213281389 0.25386607302 
0.28559933214 0.31733259127 0.3490658504 0.38079910953 0.41253236865 0.44426562778 0.47599888691 0.50773214603 0.53946540516 
0.57119866429 0.60293192342 0.63466518254 0.66639844167 0.6981317008 0.72986495992 0.76159821905 0.79333147818 0.82506473731 
0.85679799643 0.88853125556 0.92026451469 0.95199777382 0.98373103294 1.0154642921 1.0471975512 1.0789308103 1.1106640695 
1.1423973286 1.1741305877 1.2058638468 1.237597106 1.2693303651 1.3010636242 1.3327968833 1.3645301425 1.3962634016 
1.4279966607 1.4597299198 1.491463179 1.5231964381 1.5549296972 1.5866629564 1.6183962155 1.6501294746 1.6818627337 
1.7135959929 1.745329252 1.7770625111 1.8087957702 1.8405290294 1.8722622885 1.9039955476 1.9357288068 1.9674620659 
1.999195325 2.0309285841 2.0626618433 2.0943951024 2.1261283615 2.1578616206 2.1895948798 2.2213281389 2.253061398 
2.2847946572 2.3165279163 2.3482611754 2.3799944345 2.4117276937 2.4434609528 2.4751942119 2.506927471 2.5386607302 
2.5703939893 2.6021272484 2.6338605076 2.6655937667 2.6973270258 2.7290602849 2.7607935441 2.7925268032 2.8242600623 
2.8559933214 2.8877265806 2.9194598397 2.9511930988 2.982926358 3.0146596171 3.0463928762 3.0781261353 3.1098593945 
3.1415926536 
_radius 1 100 double
3.3594567231e-16 0.014872752442 0.029587841832 0.043996373327 0.057974931006 0.07143318892 0.084316234436 0.096601604402 0.10829201692 
0.11940546043 0.12996454773 0.13998687983 0.14947774116 0.15842593978 0.16680313826 0.17456663825 0.18166527508 0.1880478108 
0.19367294718 0.19851979654 0.2025973838 0.20595159934 0.20866809256 0.21086995051 0.21270960362 0.21435515092 0.21597218861 
0.21770330467 0.21964846364 0.22184993115 0.22428464254 0.22686524851 0.22944932553 0.23185507072 0.23388127516 0.23532923138 
0.23602426753 0.23583474258 0.23468660572 0.23257205318 0.22955141352 0.22574811809 0.22133736834 0.21652977128 0.21155168622 
0.2066243232 0.20194385734 0.19766504607 0.19389091361 0.19067059053 0.18800595309 0.18586539137 0.18420072361 0.18296218333 
0.1821072268 0.18160140908 0.18141285577 0.18150461443 0.18182985012 0.18233262141 0.18295324594 0.18363494583 0.18432884461 
0.18499619008 0.18560819756 0.18614456501 0.18659171277 0.18694146261 0.18719040909 0.18733981542 0.18739561019 0.18736800658 
0.18727033145 0.1871167153 0.18691833144 0.18667801279 0.1863834764 0.18600002637 0.18546422762 0.18468031814 0.18352088249 
0.18183260257 0.17944694747 0.17619470056 0.17192244399 0.16650866368 0.15987708068 0.1520051711 0.14292655005 0.1327268475 
0.12153373592 0.10950270487 0.09680084525 0.083591164066 0.070019721016 0.056207186459 0.042245428273 0.028198722728 0.014108462199 
1.0126860152e-15 
_area 1 100 double
0 0.00058217743564 0.0023077982348 0.0051163825215 0.0089141645446 0.013583106476 0.01899093909 0.025000615162 0.031478010708 
0.038297237903 0.045343322208 0.052512242184 0.059708635156 0.066842046013 0.073823372581 0.080563652611 0.086976907075 0.092987156882 
0.098537358856 0.1035957058 0.1081540581 0.1122174315 0.11579420994 0.11890395703 0.12160714904 0.12403773744 0.12641206924 
0.12900080207 0.13206683242 0.13578151735 0.14015126414 0.14500217369 0.15002404779 0.15483230468 0.15902250543 0.16221493 
0.16409262312 0.16443417875 0.16313905175 0.1602409488 0.15590486103 0.15040584202 0.14409196734 0.13733815321 0.13049982837 
0.12387545101 0.11768441001 0.11206229112 0.10707543527 0.10276108525 0.09910668772 0.095943383497 0.093078919923 0.090397294253 
0.08786198887 0.085501286842 0.08338542079 0.081600841969 0.08022192281 0.079284855281 0.078771649076 0.078608141076 0.078679986502 
0.078867135494 0.079077201665 0.079256285884 0.079376205416 0.079421497988 0.079396847577 0.079334402854 0.079281278532 0.079278344983 
0.079351637885 0.07952099383 0.079810204193 0.080246208879 0.080845111659 0.081588503602 0.082399407381 0.083131002477 0.08357597644 
0.08349267501 0.082638312294 0.080802091083 0.077834952801 0.073673599399 0.068355553416 0.062021754546 0.05490471788 0.047303270989 
0.039548191025 0.031965427189 0.024844131677 0.018415204899 0.012843016949 0.0082294717363 0.004626787797 0.0020540596791 0.00051301872636 
6.1249207206e-17 
