# vtk DataFile Version 5.1
vtk output
ASCII
DATASET POLYDATA
POINTS 100 float
0.0821958 0.0371611 0.659073 0.0823802 0.0375179 0.659045 0.0830019 0.038426 0.658797 
0.0840085 0.0398167 0.658283 0.0853174 0.041583 0.657434 0.0868229 0.0435902 0.656161 
0.088405 0.0456893 0.654365 0.0899387 0.0477308 0.651944 0.0913036 0.0495777 0.648806 
0.0923925 0.0511167 0.644874 0.0931178 0.0522656 0.640096 0.093416 0.0529767 0.634445 
0.0932491 0.0532363 0.627924 0.0926038 0.0530599 0.620565 0.0914877 0.0524856 0.612425 
0.0899249 0.0515652 0.603581 0.0879491 0.0503554 0.594118 0.0855974 0.0489101 0.58413 
0.0829044 0.0472755 0.573702 0.0798976 0.0454872 0.562908 0.0765939 0.0435708 0.551806 
0.072999 0.0415451 0.540429 0.0691077 0.0394272 0.52879 0.0649064 0.0372383 0.51688 
0.060377 0.0350092 0.504673 0.0555006 0.0327841 0.49213 0.050262 0.0306224 0.479207 
0.0446531 0.0285969 0.465861 0.0386756 0.02679 0.452056 0.0323414 0.0252863 0.43777 
0.0256731 0.0241652 0.422994 0.0187014 0.0234912 0.407736 0.0114633 0.0233071 0.392019 
0.00399807 0.0236277 0.375876 -0.00365513 0.0244376 0.359345 -0.01146 0.0256924 0.342463 
-0.0193841 0.0273231 0.325259 -0.0273993 0.0292442 0.307749 -0.0354792 0.031364 0.289933 
-0.0435973 0.033595 0.271793 -0.0517219 0.0358645 0.253292 -0.0598126 0.0381228 0.234379 
-0.0678158 0.0403482 0.214994 -0.0756614 0.0425484 0.195077 -0.0832613 0.0447569 0.174573 
-0.0905097 0.0470267 0.153444 -0.0972859 0.0494205 0.13167 -0.103459 0.0519993 0.10926 
-0.108895 0.054811 0.0862519 -0.113465 0.0578808 0.0627091 -0.117054 0.0612043 0.0387214 
-0.11957 0.064744 0.0143963 -0.120948 0.0684308 -0.0101478 -0.121162 0.0721693 -0.0347909 
-0.12022 0.0758463 -0.0594197 -0.118168 0.0793416 -0.0839348 -0.115085 0.0825398 -0.108256 
-0.111078 0.085341 -0.132326 -0.106268 0.0876692 -0.156109 -0.100789 0.0894773 -0.179587 
-0.0947684 0.0907478 -0.202754 -0.0883236 0.0914901 -0.225611 -0.081552 0.0917335 -0.248158 
-0.0745264 0.0915185 -0.270381 -0.0672932 0.0908861 -0.292255 -0.0598737 0.0898686 -0.313734 
-0.0522685 0.0884818 -0.334753 -0.044465 0.086721 -0.355232 -0.0364458 0.0845601 -0.375079 
-0.0281983 0.0819555 -0.394202 -0.0197232 0.0788537 -0.412512 -0.011042 0.075201 -0.429941 
-0.00220146 0.0709549 -0.446442 0.00672518 0.066095 -0.462002 0.0156399 0.0606319 -0.476639 
0.0244256 0.0546125 -0.490407 0.0329537 0.0481218 -0.503389 0.0410949 0.0412789 -0.515687 
0.0487292 0.0342299 -0.527418 0.0557572 0.0271362 -0.538696 0.0621081 0.0201615 -0.549625 
0.0677467 0.0134577 -0.560287 0.0726755 0.00715289 -0.570732 0.0769345 0.00134121 -0.580976 
0.0805961 -0.00392264 -0.591 0.0837574 -0.00862452 -0.600751 0.0865298 -0.0127872 -0.61015 
0.0890276 -0.0164625 -0.619102 0.0913559 -0.0197211 -0.627504 0.0936003 -0.0226397 -0.63526 
0.0958186 -0.0252898 -0.642285 0.0980357 -0.0277273 -0.64852 0.100242 -0.0299854 -0.653928 
0.102398 -0.0320717 -0.658503 0.104437 -0.033969 -0.662262 0.106276 -0.0356403 -0.665239 
0.107826 -0.0370365 -0.667482 0.109003 -0.0381056 -0.669039 0.109739 -0.0388021 -0.669953 
0.109989 -0.039095 -0.670251 
LINES 2 100
OFFSETS vtktypeint64
0 100 
CONNECTIVITY vtktypeint64
0 1 2 3 4 5 6 7 8 
9 10 11 12 13 14 15 16 17 
18 19 20 21 22 23 24 25 26 
27 28 29 30 31 32 33 34 35 
36 37 38 39 40 41 42 43 44 
45 46 47 48 49 50 51 52 53 
54 55 56 57 58 59 60 61 62 
63 64 65 66 67 68 69 70 71 
72 73 74 75 76 77 78 79 80 
81 82 83 84 85 86 87 88 89 
90 91 92 93 94 95 96 97 98 
99 
POINT_DATA 100
FIELD FieldData 3
_theta 1 100 double
0 0.031733259127 0.063466518254 0.095199777382 0.12693303651 0.15866629564 0.19039955476 0.22213281389 0.25386607302 
0.28559933214 0.31733259127 0.3490658504 0.38079910953 0.41253236865 0.44426562778 0.47599888691 0.50773214603 0.53946540516 
0.57119866429 0.60293192342 0.63466518254 0.66639844167 0.6981317008 0.72986495992 0.76159821905 0.79333147818 0.82506473731 
0.85679799643 0.88853125556 0.92026451469 0.95199777382 0.98373103294 1.0154642921 1.0471975512 1.0789308103 1.1106640695 
1.1423973286 1.1741305877 1.2058638468 1.237597106 1.2693303651 1.3010636242 1.3327968833 1.3645301425 1.3962634016 
1.4279966607 1.4597299198 1.491463179 1.5231964381 1.5549296972 1.5866629564 1.6183962155 1.6501294746 1.6818627337 
1.7135959929 1.745329252 1.7770625111 1.8087957702 1.8405290294 1.8722622885 1.9039955476 1.9357288068 1.9674620659 
1.999195325 2.0309285841 2.0626618433 2.0943951024 2.1261283615 2.1578616206 2.1895948798 2.2213281389 2.253061398 
2.2847946572 2.3165279163 2.3482611754 2.3799944345 2.4117276937 2.4434609528 2.4751942119 2.506927471 2.5386607302 
2.5703939893 2.6021272484 2.6338605076 2.6655937667 2.6973270258 2.7290602849 2.7607935441 2.7925268032 2.8242600623 
2.8559933214 2.8877265806 2.9194598397 2.9511930988 2.982926358 3.0146596171 3.0463928762 3.0781261353 3.1098593945 
3.1415926536 
_radius 1 100 double
9.0015936136e-16 0.014835824594 0.029599437867 0.044213770282 0.058603726876 0.072695978509 0.086417859484 0.09969622772 0.11245745766 
0.12462954839 0.13614665795 0.14695545756 0.15702188416 0.16633646275 0.17491651942 0.18280427273 0.19006077508 0.19675668677 
0.20296161757 0.20873406819 0.21411379676 0.21911782404 0.22374048658 0.22795720012 0.2317310945 0.23502145233 0.23779280319 
0.24002345464 0.24171218858 0.24288195036 0.24357971482 0.24387229207 0.24383850236 0.24355876278 0.24310359415 0.24252281754 
0.24183723792 0.24103439299 0.24006947391 0.23887181262 0.23735643499 0.23543924191 0.23305361188 0.23016582892 0.22678683747 
0.22297837254 0.21885234795 0.21456332719 0.21029485064 0.20624133945 0.20258817295 0.19949305428 0.19707150575 0.19538810592 
0.19445336849 0.19422493155 0.19461173972 0.19548104941 0.19666928923 0.19799777928 0.19929269875 0.20040646372 0.20123629941 
0.20173602708 0.20191864771 0.20184938608 0.20163075237 0.20138247492 0.20121970928 0.20123281343 0.20147140079 0.20193451731 
0.20256775924 0.20326712199 0.20388855501 0.20426171725 0.20420625597 0.20354891111 0.20213971065 0.19986544407 0.19665865262 
0.19250077491 0.18741888256 0.18147645491 0.17475960236 0.16736084932 0.15936293555 0.15082508499 0.14177385548 0.13220006948 
0.12206248458 0.11129786174 0.099836040187 0.087617708669 0.074611993386 0.060830936825 0.046338452629 0.031252278713 0.015738585473 
1.2998621315e-15 
_area 1 100 double
0 0.00053690393825 0.0021397218847 0.0047856096033 0.0084387118507 0.013051664583 0.018564785416 0.024901913098 0.03196385807 
0.039622612695 0.047720402934 0.056076533827 0.064502221314 0.072820533199 0.080886530103 0.088602429942 0.095924096198 0.10285779697 
0.10944904947 0.11576724147 0.12188953291 0.12788530437 0.13380014806 0.13963918771 0.1453537224 0.15083804786 0.15594068137 
0.16048876657 0.16432029986 0.16731626307 0.16942409853 0.1706665174 0.17113416385 0.17096462872 0.1703127365 0.1693182691 
0.16807773721 0.16662634212 0.16493441141 0.16291943523 0.16047128439 0.15748496983 0.15389312948 0.14969074411 0.14494763446 
0.13980765719 0.13447477845 0.1291858243 0.12417037588 0.11960363134 0.11556910187 0.11205296671 0.10897565383 0.10624265988 
0.10379032396 0.10161207172 0.099762728035 0.098340065569 0.09742433436 0.096971049444 0.096773935629 0.096557574699 0.096097515331 
0.095288049005 0.094159591113 0.092854928897 0.091579250863 0.090547026541 0.089942466457 0.089895546246 0.090476604472 0.091768510569 
0.0935873229 0.095507051663 0.097301885751 0.098761744298 0.099681807987 0.099871827852 0.099175247497 0.097489790737 0.094781908744 
0.091090494312 0.086518587343 0.081214989458 0.075350422819 0.069094233274 0.062596968659 0.055981757374 0.049344510442 0.042760883737 
0.036297142249 0.030022134879 0.024017904523 0.018386813358 0.013253529146 0.0087608750042 0.0050595297342 0.0022929364105 0.00058013802356 
1.010681306e-16 
