# vtk DataFile Version 5.1
vtk output
ASCII
DATASET POLYDATA
POINTS 100 float
0.106679 -0.0293586 -0.589205 0.1066 -0.0293004 -0.589466 0.106354 -0.028932 -0.590197 
0.105901 -0.0282675 -0.59126 0.105182 -0.0273273 -0.592444 0.104125 -0.0261337 -0.593483 
0.102655 -0.0247052 -0.594086 0.100706 -0.0230515 -0.593966 0.0982253 -0.0211699 -0.59287 
0.0951841 -0.0190437 -0.590598 0.0915797 -0.0166432 -0.587022 0.0874358 -0.0139296 -0.582094 
0.0828001 -0.0108611 -0.575846 0.0777379 -0.00740088 -0.568374 0.0723246 -0.00352506 -0.559829 
0.0666365 0.000769488 -0.55039 0.0607431 0.00545955 -0.540244 0.0546994 0.0104928 -0.529562 
0.0485422 0.0157886 -0.518483 0.0422875 0.0212423 -0.507103 0.035933 0.0267332 -0.495466 
0.0294612 0.0321345 -0.483571 0.0228459 0.0373251 -0.471373 0.0160592 0.0422009 -0.458803 
0.0090779 0.0466842 -0.445778 0.00188982 0.0507308 -0.432218 -0.00550292 0.0543327 -0.418057 
-0.0130825 0.0575163 -0.403257 -0.0208167 0.0603374 -0.387806 -0.0286623 0.0628713 -0.371723 
-0.0365705 0.0652011 -0.355048 -0.0444919 0.0674057 -0.337837 -0.0523818 0.0695472 -0.320147 
-0.0602041 0.0716617 -0.302029 -0.0679318 0.0737529 -0.283517 -0.0755466 0.0757901 -0.264623 
-0.0830339 0.0777107 -0.245334 -0.0903772 0.0794273 -0.22562 -0.0975505 0.080837 -0.205434 
-0.104511 0.0818339 -0.184729 -0.111191 0.0823213 -0.163467 -0.117498 0.082223 -0.141628 
-0.123309 0.0814918 -0.119224 -0.128477 0.0801154 -0.0963005 -0.13284 0.0781171 -0.0729393 
-0.136227 0.0755533 -0.0492558 -0.138477 0.0725076 -0.0253909 -0.139451 0.0690817 -0.00150005 
-0.139046 0.0653864 0.0222591 -0.137208 0.0615316 0.0457393 -0.133942 0.0576183 0.0688143 
-0.129311 0.0537332 0.0913868 -0.123438 0.0499462 0.113392 -0.116499 0.0463105 0.134796 
-0.108707 0.0428659 0.155594 -0.100297 0.0396438 0.175797 -0.0915133 0.0366725 0.195428 
-0.0825832 0.0339824 0.214508 -0.0737068 0.0316097 0.233046 -0.0650415 0.0295973 0.25104 
-0.0566941 0.027993 0.268468 -0.0487178 0.0268458 0.285293 -0.0411147 0.0261989 0.301468 
-0.0338431 0.026082 0.316948 -0.0268287 0.0265043 0.331694 -0.0199785 0.0274476 0.345689 
-0.0131948 0.0288632 0.358941 -0.00638907 0.0306707 0.371492 0.000507084 0.0327625 0.383418 
0.00753395 0.03501 0.394821 0.0147 0.0372742 0.405827 0.0219822 0.0394176 0.416567 
0.0293299 0.0413165 0.427171 0.0366716 0.042873 0.437746 0.0439237 0.0440228 0.44837 
0.050999 0.0447411 0.45908 0.0578156 0.0450428 0.469865 0.0643033 0.0449784 0.480672 
0.0704083 0.044626 0.491407 0.0760948 0.0440801 0.501947 0.0813448 0.0434387 0.512153 
0.0861555 0.0427903 0.521887 0.0905354 0.0422034 0.531022 0.0944999 0.0417182 0.539458 
0.0980675 0.0413433 0.54713 0.101256 0.0410565 0.554012 0.104082 0.0408104 0.560116 
0.106558 0.0405416 0.565486 0.108695 0.0401824 0.570191 0.110504 0.0396725 0.574313 
0.112 0.0389709 0.577937 0.113199 0.0380638 0.581135 0.114126 0.0369697 0.583965 
0.11481 0.0357393 0.586463 0.115288 0.034451 0.58864 0.115598 0.0332025 0.590489 
0.115779 0.0320989 0.591988 0.115866 0.0312403 0.593108 0.115888 0.0307088 0.593821 
0.115863 0.0305586 0.594109 
LINES 2 100
OFFSETS vtktypeint64
0 100 
CONNECTIVITY vtktypeint64
0 1 2 3 4 5 6 7 8 
9 10 11 12 13 14 15 16 17 
18 19 20 21 22 23 24 25 26 
27 28 29 30 31 32 33 34 35 
36 37 38 39 40 41 42 43 44 
45 46 47 48 49 50 51 52 53 
54 55 56 57 58 59 60 61 62 
63 64 65 66 67 68 69 70 71 
72 73 74 75 76 77 78 79 80 
81 82 83 84 85 86 87 88 89 
90 91 92 93 94 95 96 97 98 
99 
POINT_DATA 100
FIELD FieldData 3
_theta 1 100 double
0 0.031733259127 0.063466518254 0.095199777382 0.12693303651 0.15866629564 0.19039955476 0.22213281389 0.25386607302 
0.28559933214 0.31733259127 0.3490658504 0.38079910953 0.41253236865 0.44426562778 0.47599888691 0.50773214603 0.53946540516 
0.57119866429 0.60293192342 0.63466518254 0.66639844167 0.6981317008 0.72986495992 0.76159821905 0.79333147818 0.82506473731 
0.85679799643 0.88853125556 0.92026451469 0.95199777382 0.98373103294 1.0154642921 1.0471975512 1.0789308103 1.1106640695 
1.1423973286 1.1741305877 1.2058638468 1.237597106 1.2693303651 1.3010636242 1.3327968833 1.3645301425 1.3962634016 
1.4279966607 1.4597299198 1.491463179 1.5231964381 1.5549296972 1.5866629564 1.6183962155 1.6501294746 1.6818627337 
1.7135959929 1.745329252 1.7770625111 1.8087957702 1.8405290294 1.8722622885 1.9039955476 1.9357288068 1.9674620659 
1.999195325 2.0309285841 2.0626618433 2.0943951024 2.1261283615 2.1578616206 2.1895948798 2.2213281389 2.253061398 
2.2847946572 2.3165279163 2.3482611754 2.3799944345 2.4117276937 2.4434609528 2.4751942119 2.506927471 2.5386607302 
2.5703939893 2.6021272484 2.6338605076 2.6655937667 2.6973270258 2.7290602849 2.7607935441 2.7925268032 2.8242600623 
2.8559933214 2.8877265806 2.9194598397 2.9511930988 2.982926358 3.0146596171 3.0463928762 3.0781261353 3.1098593945 
3.1415926536 
_radius 1 100 double
8.9001965491e-16 0.013476696057 0.026852908594 0.040019212826 0.052865031709 0.065279959618 0.077156530785 0.08839426322 0.098904471639 
0.10861512961 0.11747502871 0.12545662839 0.13255725567 0.13879860316 0.14422469182 0.14889854639 0.15289778984 0.15630928774 
0.15922299572 0.16172535169 0.16389285747 0.16578674159 0.16744960717 0.16890466851 0.17015764922 0.17120085115 0.1720185117 
0.1725924637 0.17290728488 0.17295445583 0.17273537216 0.17226323266 0.17156380096 0.17067490859 0.16964452544 0.16852742029 
0.16738083485 0.16625999858 0.16521449112 0.16428628444 0.16350976367 0.16291329678 0.16252135958 0.16235619991 0.16243855743 
0.16278760586 0.16342055877 0.16435218028 0.16559407928 0.16715352211 0.16903167562 0.1712214704 0.17370540102 0.17645356257 
0.17942224736 0.18255354764 0.1857764351 0.1890095567 0.19216565839 0.19515737211 0.19790403784 0.20033903213 0.20241666776 
0.20411733991 0.20544950579 0.20644740046 0.20716403992 0.20765997661 0.20798944592 0.20818678681 0.2082566547 0.20817074366 
0.20787155908 0.20728149824 0.20631434611 0.20488638552 0.20292504348 0.20037388951 0.19719374527 0.19336058737 0.18886165196 
0.18369144497 0.17784909135 0.17133770534 0.16416554147 0.15634797639 0.14790912402 0.13888212225 0.12930768664 0.11923118132 
0.10869900456 0.097755367296 0.086440462276 0.074790580223 0.062840066095 0.050624378871 0.038183183596 0.025562480918 0.012815176799 
4.9513621206e-16 
_area 1 100 double
0 0.00051874916432 0.0020608429439 0.0045826591566 0.0080083403541 0.012227338793 0.017094729072 0.022436330834 0.02805928692 
0.033766685104 0.039372884825 0.044715644723 0.049662857038 0.054114778441 0.058004432704 0.061297956488 0.063994645065 0.066125389878 
0.067748472409 0.068942573326 0.069797644249 0.070404780056 0.070846683018 0.071190678793 0.071485954166 0.07176484023 0.072043921917 
0.072335633957 0.072690679203 0.073011120608 0.073261761766 0.073423959093 0.073479254543 0.073414298969 0.073229936944 0.072948324628 
0.072620975008 0.072453004136 0.07234088502 0.072323977888 0.072457154317 0.072794924949 0.073385078011 0.074264847003 0.075457232416 
0.076964933966 0.078760407589 0.080779874692 0.082937109738 0.085157633801 0.087412742343 0.089734642608 0.092207412151 0.094938202621 
0.098017554298 0.101480108 0.10527851877 0.10928047754 0.11328993085 0.11708419502 0.12045449985 0.12323904643 0.12534240551 
0.12674048492 0.12747450976 0.12763905111 0.12736695168 0.12680885775 0.12610191942 0.12532882399 0.12448620339 0.12348909179 
0.12221182866 0.12053640538 0.11838382413 0.11572261505 0.11255932839 0.10892122934 0.10484213006 0.1003539748 0.095479470312 
0.090225820535 0.084585978414 0.078551024686 0.072129623113 0.065365845388 0.058347783032 0.051204066627 0.044090184377 0.037169421706 
0.03059409423 0.024491843214 0.018959576831 0.014064979547 0.0098533611262 0.0063565398385 0.0036004396106 0.0016089940799 0.00040367650009 
6.9402488259e-17 
