# vtk DataFile Version 5.1
vtk output
ASCII
DATASET POLYDATA
POINTS 100 float
0.10354 0.0487686 0.733964 0.103584 0.0489388 0.733364 0.103735 0.0492763 0.731466 
0.103973 0.0497633 0.728348 0.104265 0.0503734 0.724129 0.104565 0.0510751 0.718956 
0.104823 0.0518362 0.71299 0.104979 0.0526274 0.706384 0.104972 0.0534261 0.699273 
0.104743 0.0542183 0.691756 0.104235 0.054999 0.683892 0.1034 0.0557711 0.675697 
0.102202 0.0565421 0.667152 0.100613 0.0573207 0.658208 0.0986208 0.0581116 0.648803 
0.096226 0.0589112 0.638872 0.0934398 0.0597044 0.628366 0.0902832 0.0604618 0.617258 
0.0867834 0.0611403 0.605555 0.0829707 0.0616851 0.593293 0.0788756 0.0620341 0.580541 
0.0745256 0.0621237 0.567387 0.0699441 0.061896 0.553928 0.065149 0.0613058 0.540256 
0.0601536 0.0603278 0.526447 0.054968 0.058961 0.512549 0.0496012 0.0572318 0.498577 
0.044064 0.0551944 0.484506 0.0383708 0.0529277 0.470282 0.0325423 0.0505308 0.455825 
0.026605 0.048115 0.441041 0.020591 0.0457958 0.425836 0.0145359 0.0436835 0.41013 
0.00847448 0.0418754 0.393863 0.00243741 0.0404479 0.377008 -0.0035537 0.0394525 0.35957 
-0.00948964 0.0389129 0.34158 -0.0153758 0.0388256 0.323095 -0.0212318 0.0391624 0.304179 
-0.027089 0.0398756 0.284895 -0.0329849 0.0409042 0.265291 -0.038955 0.0421803 0.24539 
-0.0450232 0.0436359 0.225182 -0.0511917 0.0452087 0.204624 -0.0574312 0.046846 0.183645 
-0.0636732 0.0485074 0.162153 -0.0698064 0.0501652 0.140051 -0.075677 0.0518036 0.117248 
-0.0810939 0.0534164 0.0936794 -0.0858399 0.0550042 0.0693192 -0.0896862 0.0565707 0.044188 
-0.0924113 0.0581202 0.0183582 -0.0938205 0.0596549 -0.00804755 -0.0937655 0.0611737 -0.0348652 
-0.0921602 0.0626711 -0.0619016 -0.088993 0.0641381 -0.0889517 -0.0843315 0.0655621 -0.115816 
-0.0783202 0.0669281 -0.142317 -0.0711706 0.0682195 -0.168315 -0.0631444 0.0694182 -0.193715 
-0.0545308 0.0705041 -0.218469 -0.0456215 0.0714549 -0.242577 -0.0366842 0.0722441 -0.266075 
-0.0279389 0.0728399 -0.289024 -0.0195392 0.0732042 -0.311493 -0.0115605 0.0732917 -0.333546 
-0.00399682 0.0730508 -0.355226 0.00323342 0.0724247 -0.376549 0.0102733 0.0713552 -0.397495 
0.017306 0.069786 -0.418013 0.0245298 0.0676683 -0.438025 0.0321302 0.0649658 -0.457436 
0.0402548 0.0616596 -0.476147 0.0489915 0.0577529 -0.494069 0.0583546 0.0532727 -0.511135 
0.0682789 0.0482714 -0.527306 0.0786227 0.0428246 -0.542575 0.0891802 0.0370279 -0.556971 
0.0997008 0.0309909 -0.570543 0.109913 0.024831 -0.583361 0.119551 0.0186654 -0.595493 
0.128381 0.012604 -0.606999 0.13622 0.00674256 -0.617919 0.142954 0.00115821 -0.628262 
0.148543 -0.00409358 -0.638004 0.153023 -0.00897959 -0.647092 0.156493 -0.013487 -0.655452 
0.159103 -0.0176201 -0.662996 0.161032 -0.0213947 -0.669642 0.162466 -0.0248332 -0.675326 
0.163581 -0.0279584 -0.680015 0.16452 -0.0307889 -0.683718 0.165386 -0.033336 -0.686491 
0.166234 -0.0356013 -0.688431 0.167075 -0.0375771 -0.689674 0.167882 -0.0392484 -0.690379 
0.168603 -0.0405955 -0.690712 0.169176 -0.0415977 -0.690826 0.169543 -0.0422373 -0.690847 
0.169665 -0.0425026 -0.690854 
LINES 2 100
OFFSETS vtktypeint64
0 100 
CONNECTIVITY vtktypeint64
0 1 2 3 4 5 6 7 8 
9 10 11 12 13 14 15 16 17 
18 19 20 21 22 23 24 25 26 
27 28 29 30 31 32 33 34 35 
36 37 38 39 40 41 42 43 44 
45 46 47 48 49 50 51 52 53 
54 55 56 57 58 59 60 61 62 
63 64 65 66 67 68 69 70 71 
72 73 74 75 76 77 78 79 80 
81 82 83 84 85 86 87 88 89 
90 91 92 93 94 95 96 97 98 
99 
POINT_DATA 100
FIELD FieldData 3
_theta 1 100 double
0 0.031733259127 0.063466518254 0.095199777382 0.12693303651 0.15866629564 0.19039955476 0.22213281389 0.25386607302 
0.28559933214 0.31733259127 0.3490658504 0.38079910953 0.41253236865 0.44426562778 0.47599888691 0.50773214603 0.53946540516 
0.57119866429 0.60293192342 0.63466518254 0.66639844167 0.6981317008 0.72986495992 0.76159821905 0.79333147818 0.82506473731 
0.85679799643 0.88853125556 0.92026451469 0.95199777382 0.98373103294 1.0154642921 1.0471975512 1.0789308103 1.1106640695 
1.1423973286 1.1741305877 1.2058638468 1.237597106 1.2693303651 1.3010636242 1.3327968833 1.3645301425 1.3962634016 
1.4279966607 1.4597299198 1.491463179 1.5231964381 1.5549296972 1.5866629564 1.6183962155 1.6501294746 1.6818627337 
1.7135959929 1.745329252 1.7770625111 1.8087957702 1.8405290294 1.8722622885 1.9039955476 1.9357288068 1.9674620659 
1.999195325 2.0309285841 2.0626618433 2.0943951024 2.1261283615 2.1578616206 2.1895948798 2.2213281389 2.253061398 
2.2847946572 2.3165279163 2.3482611754 2.3799944345 2.4117276937 2.4434609528 2.4751942119 2.506927471 2.5386607302 
2.5703939893 2.6021272484 2.6338605076 2.6655937667 2.6973270258 2.7290602849 2.7607935441 2.7925268032 2.8242600623 
2.8559933214 2.8877265806 2.9194598397 2.9511930988 2.982926358 3.0146596171 3.0463928762 3.0781261353 3.1098593945 
3.1415926536 
_radius 1 100 double
4.5081454877e-16 0.015492601783 0.030873054915 0.046030365919 0.060863138891 0.07528400431 0.089223281429 0.10263154342 0.11548073997 
0.12776358213 0.13949105628 0.15068821691 0.16138875033 0.17162907093 0.18144276482 0.19085598065 0.19988399284 0.20852884299 
0.2167778794 0.22460318333 0.23196215654 0.23879974419 0.24505272079 0.25065613183 0.25555144285 0.25969537491 0.26306799387 
0.26567851778 0.2675675652 0.2688051338 0.26948433296 0.26971161333 0.26959479016 0.2692304683 0.2686925478 0.26802335612 
0.26722864883 0.2662772657 0.26510566328 0.2636269396 0.26174341803 0.25936144297 0.25640679025 0.2528389982 0.24866296034 
0.24393628726 0.23877125632 0.23333062328 0.22781713317 0.22245720422 0.21748000649 0.21309414957 0.20946541789 0.20669985344 
0.20483584014 0.20384616548 0.20364761989 0.20411386125 0.20508807857 0.20639438062 0.20784891754 0.20927230172 0.21050388665 
0.21141672565 0.21193064486 0.21202052522 0.21171765532 0.21110348345 0.21029670452 0.20943586735 0.20866025426 0.20809159787 
0.20781848351 0.20788444329 0.20828013124 0.2089397029 0.20974153019 0.21051348793 0.2110430226 0.21109182692 0.21041414576 
0.2087767819 0.20597819438 0.20186403658 0.19633713576 0.18936105004 0.1809575716 0.17119950937 0.16020056064 0.14810403488 
0.13507175115 0.12127380853 0.10687936387 0.092048232293 0.07692315385 0.061622922866 0.046237109004 0.030823555608 0.015409920902 
8.1558561615e-16 
_area 1 100 double
0 0.00063207528846 0.0025014074027 0.0055309736445 0.009603764818 0.014577210209 0.020299066267 0.02662216546 0.033416176026 
0.040575350244 0.048021800944 0.055704165835 0.063591938409 0.071666526008 0.079910994603 0.08830085841 0.096797854117 0.10534765624 
0.11388131724 0.12231913512 0.13057513211 0.13856088593 0.1461888768 0.1533766024 0.16005226843 0.16616098255 0.17166857176 
0.17656018992 0.18083361291 0.18449142674 0.18753833987 0.18998583555 0.19185928065 0.19319996067 0.19405801954 0.19447755322 
0.19447864485 0.1940421955 0.19310298248 0.19155565033 0.18927545843 0.1861488607 0.1821043203 0.17713579214 0.17131550485 
0.16479534731 0.15779761139 0.1505968327 0.14349526617 0.13679454691 0.13076413108 0.12560097497 0.12136959586 0.11795896949 
0.11514374646 0.11269730909 0.11045659736 0.10834143879 0.1063543922 0.10457223939 0.10308470947 0.10214042004 0.10174750873 
0.1018853762 0.10225631768 0.10257242319 0.10261465834 0.10226386905 0.10151598681 0.10045972871 0.099240300832 0.098025968265 
0.097081515338 0.096494803592 0.096378399288 0.096796779708 0.097621793444 0.098695967234 0.099836899236 0.10080886364 0.10132628036 
0.10107548915 0.099751529853 0.097105673584 0.092991337985 0.087393773765 0.080435593132 0.072358950843 0.06349170278 0.054207860496 
0.044891301664 0.035906668193 0.027576307631 0.020160941823 0.013844471959 0.0087267245777 0.0048290971746 0.0021153456503 0.00052359509173 
3.7990567667e-17 
