# vtk DataFile Version 5.1
vtk output
ASCII
DATASET POLYDATA
POINTS 100 float
0.0311242 -0.00210479 -0.618083 0.0312921 -0.00201736 -0.617799 0.0317715 -0.00158217 -0.616967 
0.0325154 -0.000820028 -0.615577 0.0334495 0.000237042 -0.613617 0.0344785 0.00154999 -0.611071 
0.0354938 0.0030777 -0.607924 0.0363818 0.00478211 -0.60416 0.0370325 0.00663253 -0.599767 
0.0373466 0.00860892 -0.594737 0.0372424 0.0107032 -0.589066 0.0366589 0.0129189 -0.582755 
0.0355586 0.0152686 -0.575809 0.0339269 0.0177703 -0.568235 0.03177 0.0204422 -0.56004 
0.029112 0.0232978 -0.551232 0.0259903 0.026341 -0.541815 0.0224516 0.0295625 -0.531791 
0.0185472 0.0329378 -0.521157 0.0143297 0.0364272 -0.509909 0.00985049 0.0399779 -0.498041 
0.00515807 0.0435275 -0.485545 0.000297042 0.0470093 -0.472418 -0.00469198 0.0503579 -0.458658 
-0.00977231 0.0535149 -0.444274 -0.0149111 0.0564336 -0.429278 -0.0200793 0.059082 -0.413693 
-0.0252526 0.0614452 -0.397547 -0.0304117 0.0635237 -0.380877 -0.0355434 0.065332 -0.363721 
-0.0406419 0.066894 -0.346119 -0.0457088 0.0682381 -0.32811 -0.0507529 0.0693925 -0.309724 
-0.0557887 0.0703798 -0.290987 -0.0608342 0.0712134 -0.271911 -0.0659063 0.0718957 -0.252502 
-0.0710166 0.0724177 -0.232752 -0.0761657 0.0727603 -0.212648 -0.0813381 0.0728976 -0.19217 
-0.0864974 0.0728012 -0.171298 -0.0915835 0.0724448 -0.150013 -0.0965109 0.0718091 -0.128305 
-0.101171 0.0708854 -0.106172 -0.105434 0.069678 -0.0836298 -0.109158 0.0682053 -0.0607076 
-0.112196 0.0664987 -0.0374532 -0.114407 0.0646002 -0.0139317 -0.115663 0.0625588 0.00977602 
-0.115866 0.0604264 0.0335755 -0.114947 0.0582527 0.0573616 -0.112881 0.0560822 0.0810228 
-0.109684 0.0539508 0.104444 -0.105413 0.0518848 0.127513 -0.100167 0.0499006 0.150118 
-0.0940718 0.048007 0.172161 -0.0872774 0.0462071 0.193551 -0.0799433 0.0445024 0.214211 
-0.0722283 0.042896 0.234081 -0.0642799 0.0413956 0.253116 -0.0562248 0.0400157 0.271291 
-0.0481634 0.0387786 0.288599 -0.0401659 0.0377132 0.305052 -0.0322727 0.036853 0.320682 
-0.024497 0.0362333 0.335538 -0.0168303 0.0358862 0.349687 -0.00924989 0.0358376 0.363207 
-0.00172635 0.0361022 0.376191 0.00576817 0.0366815 0.388736 0.0132533 0.0375617 0.400943 
0.0207352 0.038714 0.412908 0.0282037 0.0400956 0.424722 0.0356313 0.0416531 0.436459 
0.0429751 0.0433258 0.448179 0.05018 0.0450505 0.459919 0.0571832 0.0467653 0.471692 
0.0639202 0.0484136 0.48349 0.0703295 0.049947 0.495278 0.0763578 0.0513266 0.507005 
0.0819631 0.0525235 0.518599 0.0871175 0.0535181 0.52998 0.0918077 0.0542984 0.541058 
0.096034 0.054858 0.551746 0.099809 0.0551937 0.56196 0.103155 0.0553046 0.571627 
0.106099 0.0551904 0.580686 0.108675 0.0548518 0.589094 0.110916 0.0542917 0.596821 
0.112852 0.0535167 0.603856 0.114516 0.0525392 0.610202 0.115933 0.0513801 0.615872 
0.117129 0.0500701 0.62089 0.118126 0.0486512 0.625284 0.118944 0.0471757 0.629085 
0.119603 0.0457053 0.632324 0.12012 0.0443076 0.635028 0.120511 0.0430522 0.637222 
0.120791 0.0420055 0.638925 0.120973 0.041226 0.640153 0.121066 0.0407592 0.640913 
0.121077 0.0406341 0.641212 
LINES 2 100
OFFSETS vtktypeint64
0 100 
CONNECTIVITY vtktypeint64
0 1 2 3 4 5 6 7 8 
9 10 11 12 13 14 15 16 17 
18 19 20 21 22 23 24 25 26 
27 28 29 30 31 32 33 34 35 
36 37 38 39 40 41 42 43 44 
45 46 47 48 49 50 51 52 53 
54 55 56 57 58 59 60 61 62 
63 64 65 66 67 68 69 70 71 
72 73 74 75 76 77 78 79 80 
81 82 83 84 85 86 87 88 89 
90 91 92 93 94 95 96 97 98 
99 
POINT_DATA 100
FIELD FieldData 3
_theta 1 100 double
0 0.031733259127 0.063466518254 0.095199777382 0.12693303651 0.15866629564 0.19039955476 0.22213281389 0.25386607302 
0.28559933214 0.31733259127 0.3490658504 0.38079910953 0.41253236865 0.44426562778 0.47599888691 0.50773214603 0.53946540516 
0.57119866429 0.60293192342 0.63466518254 0.66639844167 0.6981317008 0.72986495992 0.76159821905 0.79333147818 0.82506473731 
0.85679799643 0.88853125556 0.92026451469 0.95199777382 0.98373103294 1.0154642921 1.0471975512 1.0789308103 1.1106640695 
1.1423973286 1.1741305877 1.2058638468 1.237597106 1.2693303651 1.3010636242 1.3327968833 1.3645301425 1.3962634016 
1.4279966607 1.4597299198 1.491463179 1.5231964381 1.5549296972 1.5866629564 1.6183962155 1.6501294746 1.6818627337 
1.7135959929 1.745329252 1.7770625111 1.8087957702 1.8405290294 1.8722622885 1.9039955476 1.9357288068 1.9674620659 
1.999195325 2.0309285841 2.0626618433 2.0943951024 2.1261283615 2.1578616206 2.1895948798 2.2213281389 2.253061398 
2.2847946572 2.3165279163 2.3482611754 2.3799944345 2.4117276937 2.4434609528 2.4751942119 2.506927471 2.5386607302 
2.5703939893 2.6021272484 2.6338605076 2.6655937667 2.6973270258 2.7290602849 2.7607935441 2.7925268032 2.8242600623 
2.8559933214 2.8877265806 2.9194598397 2.9511930988 2.982926358 3.0146596171 3.0463928762 3.0781261353 3.1098593945 
3.1415926536 
_radius 1 100 double
9.9942516069e-16 0.012054870959 0.024076886649 0.036024972074 0.047851045798 0.059497258454 0.070894306448 0.081961596706 0.092609845244 
0.10274614705 0.11228087564 0.1211352457 0.12924818118 0.13658128528 0.14312111089 0.14887845295 0.15388492346 0.15818754722 
0.1618424685 0.16490901414 0.16744524269 0.16950569245 0.1711413999 0.17240158708 0.17333594109 0.17399628929 0.17443673222 
0.17471182773 0.17487303586 0.17496413676 0.17501658537 0.17504574914 0.17504878512 0.1750046783 0.17487674188 0.17461762569 
0.1741765213 0.17350780707 0.17257996857 0.17138339752 0.16993567689 0.16828320254 0.16649851061 0.16467359409 0.16291083518 
0.16131449589 0.15998584065 0.15902290912 0.1585225135 0.15857982519 0.15928180986 0.16069411815 0.16284476682 0.16571019163 
0.16920899182 0.17320605166 0.17752613234 0.18197333555 0.18635203078 0.19048559488 0.19423070801 0.19748624572 0.2001967106 
0.20235067504 0.20397498592 0.20512564343 0.2058764033 0.20630631361 0.20648756076 0.20647507074 0.20629916081 0.20596208843 
0.20543865575 0.2046802931 0.20362150196 0.20218734745 0.20030085508 0.19788954521 0.19489073778 0.1912555324 0.18695147149 
0.18196386645 0.17629569033 0.16996589657 0.16300608214 0.15545561759 0.14735571439 0.13874330405 0.1296459071 0.12007869967 
0.11004464405 0.099537892488 0.08854989901 0.077077042613 0.065128266415 0.05273131284 0.039936490197 0.026817393703 0.013468501044 
8.4257094584e-16 
_area 1 100 double
0 0.00041930146963 0.0016645455598 0.0037011955886 0.0064810780438 0.0099500821629 0.014049541478 0.018708834982 0.023832231175 
0.02928690589 0.034898950813 0.040460925157 0.045750445888 0.050556086638 0.054704964667 0.058085774718 0.060661603659 0.062468941826 
0.063603443776 0.064198336047 0.064406158236 0.064553398345 0.064967518822 0.065333247511 0.065555342045 0.065613108379 0.065536754419 
0.065387607476 0.065239189838 0.065163521706 0.065221947943 0.065453711213 0.065856534155 0.066375058349 0.066918435405 0.067390033233 
0.067709601624 0.067830399103 0.067755804179 0.067558294381 0.067399716501 0.06748656176 0.067882738632 0.068492580836 0.069203120872 
0.069930325676 0.070625126291 0.071282944633 0.071956777861 0.07276477379 0.073881763471 0.07550546536 0.077800069143 0.080843382477 
0.084600569115 0.08892561021 0.093586121044 0.098303486235 0.10279718032 0.10682418389 0.11020770987 0.1128521825 0.11474442273 
0.11594498101 0.11657648957 0.11681060452 0.11683369346 0.11676552463 0.11658896129 0.11618211534 0.1154015967 0.11413714517 
0.11233341512 0.10999399213 0.10717439416 0.10396637819 0.10047453413 0.096788089447 0.092955321266 0.088970568488 0.084780304039 
0.080306827628 0.075481510651 0.070275422024 0.064715175985 0.058879229821 0.052879562108 0.046838109595 0.040866435559 0.035054112206 
0.029467797771 0.024159402253 0.019178836863 0.014585773261 0.010456052276 0.0068809728929 0.0039601687288 0.0017902922513 0.00045229156242 
6.4317799276e-17 
