# vtk DataFile Version 5.1
vtk output
ASCII
DATASET POLYDATA
POINTS 100 float
0.0576655 0.0604282 0.676162 0.0576762 0.0605512 0.675682 0.0577195 0.0607501 0.674089 
0.0577921 0.0609842 0.671434 0.0578892 0.0611926 0.667802 0.0580043 0.0613048 0.663299 
0.0581297 0.0612512 0.658041 0.0582566 0.0609757 0.652143 0.0583746 0.0604457 0.645708 
0.0584722 0.0596588 0.638816 0.0585355 0.058646 0.631523 0.0585477 0.0574699 0.623854 
0.0584884 0.0562183 0.615808 0.0583326 0.0549933 0.607361 0.0580504 0.0538993 0.598474 
0.0576062 0.053029 0.589105 0.0569596 0.0524506 0.579216 0.0560664 0.0521986 0.568782 
0.0548799 0.0522678 0.557797 0.0533534 0.0526127 0.546278 0.0514435 0.0531521 0.534265 
0.0491129 0.053779 0.521818 0.0463338 0.0543729 0.50901 0.0430907 0.0548148 0.495922 
0.0393828 0.0550026 0.482633 0.0352251 0.0548639 0.46921 0.0306487 0.0543657 0.455707 
0.0256989 0.0535188 0.442159 0.020433 0.0523778 0.428578 0.0149161 0.0510344 0.414956 
0.00921633 0.0496071 0.401273 0.00339965 0.0482269 0.387494 -0.00247538 0.0470223 0.373584 
-0.00836217 0.0461039 0.359508 -0.0142295 0.0455516 0.345236 -0.0200634 0.0454059 0.33075 
-0.0258669 0.0456643 0.316038 -0.0316576 0.046282 0.301099 -0.0374641 0.0471792 0.285932 
-0.0433193 0.0482517 0.270535 -0.0492541 0.0493841 0.254896 -0.0552891 0.0504652 0.238991 
-0.0614278 0.0514011 0.222781 -0.06765 0.0521267 0.206205 -0.0739074 0.0526137 0.189189 
-0.080121 0.0528726 0.171646 -0.0861821 0.0529511 0.153488 -0.0919557 0.0529272 0.134631 
-0.0972861 0.0528989 0.115006 -0.102006 0.052972 0.0945742 -0.105947 0.053247 0.0733271 
-0.108949 0.0538069 0.0512985 -0.110874 0.0547079 0.0285642 -0.111612 0.0559731 0.00524058 
-0.111092 0.0575906 -0.0185209 -0.109288 0.0595154 -0.0425428 -0.106217 0.0616754 -0.066633 
-0.10194 0.0639792 -0.0905978 -0.0965594 0.0663262 -0.114255 -0.0902076 0.0686163 -0.137444 
-0.0830406 0.070759 -0.160038 -0.0752262 0.0726796 -0.181948 -0.066933 0.074323 -0.203124 
-0.0583203 0.0756547 -0.223559 -0.0495291 0.0766584 -0.243275 -0.0406755 0.0773315 -0.262327 
-0.0318473 0.0776795 -0.280784 -0.0231024 0.0777094 -0.298723 -0.0144709 0.0774246 -0.316224 
-0.00595926 0.0768206 -0.333352 0.00244414 0.0758829 -0.350163 0.0107619 0.0745885 -0.366689 
0.0190206 0.0729078 -0.382945 0.0272442 0.0708101 -0.398927 0.0354486 0.0682697 -0.414614 
0.0436382 0.0652719 -0.429976 0.0518037 0.0618194 -0.444972 0.0599223 0.0579358 -0.459561 
0.06796 0.053669 -0.473699 0.0758741 0.0490899 -0.487349 0.0836174 0.0442907 -0.500476 
0.0911424 0.0393795 -0.51305 0.0984051 0.0344738 -0.525047 0.105368 0.0296928 -0.536443 
0.112002 0.0251497 -0.547218 0.118287 0.0209442 -0.557355 0.124211 0.0171566 -0.566833 
0.129767 0.0138434 -0.575635 0.134956 0.011035 -0.583744 0.139774 0.00873596 -0.591145 
0.14422 0.00692624 -0.597825 0.148286 0.00556514 -0.603776 0.15196 0.00459579 -0.608997 
0.155224 0.0039506 -0.613488 0.158055 0.00355691 -0.617258 0.160425 0.00334252 -0.620315 
0.162307 0.00324072 -0.622672 0.163676 0.00319461 -0.62434 0.164511 0.00316065 -0.625331 
0.164798 0.00311118 -0.625651 
LINES 2 100
OFFSETS vtktypeint64
0 100 
CONNECTIVITY vtktypeint64
0 1 2 3 4 5 6 7 8 
9 10 11 12 13 14 15 16 17 
18 19 20 21 22 23 24 25 26 
27 28 29 30 31 32 33 34 35 
36 37 38 39 40 41 42 43 44 
45 46 47 48 49 50 51 52 53 
54 55 56 57 58 59 60 61 62 
63 64 65 66 67 68 69 70 71 
72 73 74 75 76 77 78 79 80 
81 82 83 84 85 86 87 88 89 
90 91 92 93 94 95 96 97 98 
99 
POINT_DATA 100
FIELD FieldData 3
_theta 1 100 double
0 0.031733259127 0.063466518254 0.095199777382 0.12693303651 0.15866629564 0.19039955476 0.22213281389 0.25386607302 
0.28559933214 0.31733259127 0.3490658504 0.38079910953 0.41253236865 0.44426562778 0.47599888691 0.50773214603 0.53946540516 
0.57119866429 0.60293192342 0.63466518254 0.66639844167 0.6981317008 0.72986495992 0.76159821905 0.79333147818 0.82506473731 
0.85679799643 0.88853125556 0.92026451469 0.95199777382 0.98373103294 1.0154642921 1.0471975512 1.0789308103 1.1106640695 
1.1423973286 1.1741305877 1.2058638468 1.237597106 1.2693303651 1.3010636242 1.3327968833 1.3645301425 1.3962634016 
1.4279966607 1.4597299198 1.491463179 1.5231964381 1.5549296972 1.5866629564 1.6183962155 1.6501294746 1.6818627337 
1.7135959929 1.745329252 1.7770625111 1.8087957702 1.8405290294 1.8722622885 1.9039955476 1.9357288068 1.9674620659 
1.999195325 2.0309285841 2.0626618433 2.0943951024 2.1261283615 2.1578616206 2.1895948798 2.2213281389 2.253061398 
2.2847946572 2.3165279163 2.3482611754 2.3799944345 2.4117276937 2.4434609528 2.4751942119 2.506927471 2.5386607302 
2.5703939893 2.6021272484 2.6338605076 2.6655937667 2.6973270258 2.7290602849 2.7607935441 2.7925268032 2.8242600623 
2.8559933214 2.8877265806 2.9194598397 2.9511930988 2.982926358 3.0146596171 3.0463928762 3.0781261353 3.1098593945 
3.1415926536 
_radius 1 100 double
2.272951182e-16 0.013088368372 0.026129117155 0.039065940358 0.051843494045 0.064407979747 0.076707566874 0.088692845532 0.10031740135 
0.11153844832 0.12231739452 0.13262030779 0.14241842643 0.15168898056 0.16041652384 0.16859468552 0.17622782746 0.18333171953 
0.18993227371 0.19606178772 0.20175302728 0.20703251683 0.21191510795 0.21640181024 0.22048189998 0.2241388205 0.22735800839 
0.23013412371 0.23247545936 0.23440433949 0.23595359597 0.23716024499 0.23805798524 0.23867009872 0.23900395585 0.23904787113 
0.23877070009 0.23812434784 0.23704919446 0.23548220064 0.23336701456 0.23066475055 0.22736350861 0.22348463252 0.21908448491 
0.21425196586 0.20910343909 0.20377727569 0.19842940233 0.19322955146 0.1883565049 0.18399032244 0.18030045087 0.177430289 
0.17548044134 0.1744937442 0.17444517648 0.17523948822 0.17671855666 0.17867831715 0.18089208157 0.18313502414 0.18520487269 
0.18693601336 0.18820694207 0.1889428269 0.18911508452 0.18873881701 0.18786795202 0.18658765275 0.18500388303 0.1832306395 
0.18137609853 0.17952955346 0.17775124155 0.17606670258 0.17446616855 0.17290811873 0.171325246 0.16963107255 0.16772616187 
0.16550376451 0.16285527774 0.15967585345 0.15586996858 0.15135614493 0.1460696928 0.13996264112 0.13300088602 0.12515969171 
0.11641949799 0.10676413152 0.096182898034 0.084676859873 0.072268243036 0.059010763174 0.044998052299 0.030367519206 0.015297879112 
8.2785725579e-16 
_area 1 100 double
0 0.00049690953983 0.0019719374944 0.0043791384998 0.0076457772106 0.01167796914 0.016368146091 0.021603612097 0.027275098889 
0.033283960118 0.039546299674 0.045991885954 0.052556318808 0.059168686859 0.065742388168 0.072176800788 0.078370388222 0.084239580104 
0.089736363287 0.094858451742 0.099647950281 0.10417791077 0.10853041732 0.11277321585 0.11694294827 0.12104077071 0.12504026532 
0.12890073409 0.13257721892 0.13602403636 0.13919492152 0.1420443093 0.14453552136 0.14682299255 0.14912757128 0.15108449321 
0.1523203128 0.15266468526 0.15199408096 0.15024855994 0.14746528137 0.14381372658 0.13962795068 0.13518989425 0.13039713072 
0.12520810788 0.11968358945 0.11392761671 0.10809819859 0.10241490834 0.097138054241 0.092515326807 0.088708241217 0.085742147269 
0.083525641695 0.08191775676 0.080793693576 0.080057308762 0.079576702823 0.07928715212 0.079173633405 0.079290239683 0.079757591332 
0.080491950278 0.081187468786 0.081663410739 0.081759904331 0.081392118724 0.08055851526 0.079207270971 0.077428091626 0.075374143763 
0.073234347712 0.071202526395 0.069446621391 0.068099461482 0.067241668732 0.06678836698 0.066596774338 0.066491893538 0.066292711762 
0.065825462039 0.064920807171 0.063418511553 0.061195447575 0.058186735154 0.054390683487 0.049865155876 0.044719983703 0.039108379034 
0.033218726405 0.027265803692 0.021478922801 0.016085103209 0.011288230871 0.0072487592338 0.0040707283067 0.0018019632273 0.00044880439446 
2.8733475043e-17 
