# vtk DataFile Version 5.1
vtk output
ASCII
DATASET POLYDATA
POINTS 100 float
0.125801 0.0461904 0.74014 0.125818 0.046253 0.739882 0.125954 0.0463036 0.738931 
0.126181 0.0463581 0.737275 0.126446 0.0464406 0.734894 0.126685 0.0465805 0.731769 
0.126824 0.0468079 0.727882 0.126784 0.0471491 0.72322 0.12649 0.0476223 0.717779 
0.125872 0.0482332 0.711569 0.124872 0.048973 0.704611 0.123444 0.0498162 0.696939 
0.121557 0.0507217 0.688598 0.119192 0.0516344 0.679642 0.116341 0.052489 0.670126 
0.113009 0.0532155 0.660108 0.109205 0.0537445 0.649639 0.104942 0.0540139 0.63876 
0.10024 0.0539746 0.627502 0.0951183 0.0535961 0.615883 0.0896003 0.0528696 0.603908 
0.0837122 0.0518101 0.591568 0.0774851 0.0504565 0.578847 0.0709551 0.0488684 0.565723 
0.0641649 0.0471227 0.55217 0.0571628 0.0453069 0.538165 0.0500023 0.0435131 0.523687 
0.0427391 0.0418303 0.508722 0.0354284 0.0403378 0.49326 0.0281204 0.0391 0.477298 
0.0208566 0.038162 0.460834 0.0136658 0.0375484 0.44387 0.0065615 0.037263 0.426404 
-0.000458951 0.0372918 0.408432 -0.00741375 0.0376073 0.389941 -0.0143334 0.0381736 0.370914 
-0.0212554 0.0389531 0.351327 -0.0282176 0.0399117 0.331151 -0.0352504 0.0410239 0.310356 
-0.0423681 0.0422761 0.288914 -0.049562 0.0436675 0.266803 -0.0567946 0.0452094 0.244012 
-0.0639958 0.0469221 0.220546 -0.0710631 0.04883 0.196426 -0.0778644 0.0509553 0.171693 
-0.0842443 0.0533125 0.146406 -0.0900329 0.055902 0.12064 -0.0950572 0.0587059 0.0944874 
-0.099153 0.0616851 0.0680466 -0.102177 0.0647794 0.0414231 -0.104017 0.0679096 0.0147213 
-0.104601 0.0709822 -0.0119593 -0.103902 0.0738959 -0.0385283 -0.10194 0.0765496 -0.0649076 
-0.0987791 0.0788501 -0.0910331 -0.0945222 0.0807199 -0.116855 -0.0893022 0.0821034 -0.142336 
-0.0832714 0.0829703 -0.167452 -0.0765897 0.0833174 -0.192187 -0.0694133 0.0831671 -0.21653 
-0.0618843 0.0825629 -0.240475 -0.0541231 0.0815637 -0.264015 -0.0462228 0.0802358 -0.287142 
-0.0382474 0.0786453 -0.309845 -0.030233 0.0768503 -0.332111 -0.0221917 0.0748948 -0.353921 
-0.0141174 0.0728048 -0.375257 -0.00599374 0.0705867 -0.396095 0.00219823 0.0682285 -0.416414 
0.0104725 0.0657033 -0.436193 0.0188315 0.0629755 -0.45541 0.027262 0.060007 -0.474047 
0.0357322 0.056765 -0.492088 0.0441917 0.0532283 -0.509519 0.0525736 0.0493925 -0.526327 
0.0607981 0.0452737 -0.542503 0.0687776 0.0409085 -0.558038 0.0764224 0.0363526 -0.572925 
0.0836463 0.0316769 -0.587161 0.0903726 0.0269613 -0.600742 0.0965376 0.0222886 -0.613668 
0.102095 0.017737 -0.625941 0.107016 0.0133744 -0.637567 0.111291 0.00925319 -0.648553 
0.114931 0.0054081 -0.658907 0.11796 0.00185514 -0.668641 0.120418 -0.00140658 -0.677763 
0.122355 -0.00439133 -0.686282 0.123829 -0.00712202 -0.694204 0.124903 -0.00962471 -0.701528 
0.12564 -0.0119234 -0.708251 0.126105 -0.0140354 -0.714361 0.126357 -0.0159688 -0.719843 
0.126453 -0.0177207 -0.724673 0.126442 -0.019278 -0.728827 0.126369 -0.0206196 -0.732277 
0.126271 -0.0217203 -0.734995 0.126175 -0.0225543 -0.736957 0.126104 -0.0230997 -0.738144 
0.126069 -0.023342 -0.738541 
LINES 2 100
OFFSETS vtktypeint64
0 100 
CONNECTIVITY vtktypeint64
0 1 2 3 4 5 6 7 8 
9 10 11 12 13 14 15 16 17 
18 19 20 21 22 23 24 25 26 
27 28 29 30 31 32 33 34 35 
36 37 38 39 40 41 42 43 44 
45 46 47 48 49 50 51 52 53 
54 55 56 57 58 59 60 61 62 
63 64 65 66 67 68 69 70 71 
72 73 74 75 76 77 78 79 80 
81 82 83 84 85 86 87 88 89 
90 91 92 93 94 95 96 97 98 
99 
POINT_DATA 100
FIELD FieldData 3
_theta 1 100 double
0 0.031733259127 0.063466518254 0.095199777382 0.12693303651 0.15866629564 0.19039955476 0.22213281389 0.25386607302 
0.28559933214 0.31733259127 0.3490658504 0.38079910953 0.41253236865 0.44426562778 0.47599888691 0.50773214603 0.53946540516 
0.57119866429 0.60293192342 0.63466518254 0.66639844167 0.6981317008 0.72986495992 0.76159821905 0.79333147818 0.82506473731 
0.85679799643 0.88853125556 0.92026451469 0.95199777382 0.98373103294 1.0154642921 1.0471975512 1.0789308103 1.1106640695 
1.1423973286 1.1741305877 1.2058638468 1.237597106 1.2693303651 1.3010636242 1.3327968833 1.3645301425 1.3962634016 
1.4279966607 1.4597299198 1.491463179 1.5231964381 1.5549296972 1.5866629564 1.6183962155 1.6501294746 1.6818627337 
1.7135959929 1.745329252 1.7770625111 1.8087957702 1.8405290294 1.8722622885 1.9039955476 1.9357288068 1.9674620659 
1.999195325 2.0309285841 2.0626618433 2.0943951024 2.1261283615 2.1578616206 2.1895948798 2.2213281389 2.253061398 
2.2847946572 2.3165279163 2.3482611754 2.3799944345 2.4117276937 2.4434609528 2.4751942119 2.506927471 2.5386607302 
2.5703939893 2.6021272484 2.6338605076 2.6655937667 2.6973270258 2.7290602849 2.7607935441 2.7925268032 2.8242600623 
2.8559933214 2.8877265806 2.9194598397 2.9511930988 2.982926358 3.0146596171 3.0463928762 3.0781261353 3.1098593945 
3.1415926536 
_radius 1 100 double
3.3773243989e-16 0.015498658865 0.030868714651 0.045981104849 0.060718481841 0.0749800663 0.088685060016 0.1017743584 0.11421044227 
0.12597549518 0.13706801682 0.1474984644 0.15728465193 0.16644763483 0.17500855134 0.18298649723 0.19039720594 0.19725226427 
0.2035588012 0.20931985927 0.21453576824 0.21920665607 0.2233357925 0.22693296144 0.23001676531 0.23261488659 0.23476190177 
0.23649505348 0.23784906923 0.2388513625 0.23951871646 0.23985603087 0.23985715569 0.23950740684 0.23878713592 0.23767572726 
0.23615558267 0.23421592226 0.23185644137 0.22909090156 0.22595055726 0.22248698978 0.21877358397 0.21490472962 0.21099201477 
0.2071572618 0.20352313417 0.20020293835 0.19729177576 0.19486102968 0.19295722334 0.19160484518 0.19081135191 0.19057178146 
0.19087058422 0.19167950465 0.19295236351 0.19461960967 0.19658629693 0.1987359276 0.20094005793 0.20307132982 0.20501675921 
0.20668854502 0.20803069639 0.20902089887 0.20966797997 0.21000595064 0.21008585729 0.20996665149 0.2097060876 0.20935239634 
0.20893722937 0.20847017552 0.2079350406 0.20728804297 0.20645804499 0.20534886938 0.20384366301 0.20181121355 0.19911406713 
0.19561814852 0.19120330151 0.18577380936 0.17926766231 0.17166324908 0.16298233739 0.15328866633 0.14268212318 0.13128919552 
0.11925102969 0.10671084146 0.093802501305 0.080641815044 0.067321407975 0.053909356947 0.040451007148 0.026972940489 0.01348793763 
1.3384306335e-15 
_area 1 100 double
0 0.00062598779741 0.0024721016904 0.005447669576 0.0094169192057 0.014218996082 0.019690490206 0.025685897543 0.032091132974 
0.038825953746 0.045834254003 0.053066835782 0.060465837565 0.06795870216 0.075463019116 0.08289733733 0.090190839157 0.097286380667 
0.10413539237 0.1106883158 0.11688847882 0.12267686838 0.12800838416 0.13287118427 0.13729685436 0.14135308058 0.14511931009 
0.14865454842 0.15197070481 0.15502242245 0.15771610664 0.15993200878 0.1615494021 0.16246693593 0.16261478835 0.16195908184 
0.16050101954 0.15827347506 0.15533697621 0.15177592077 0.14769497664 0.14321508554 0.13846826148 0.13359051638 0.12871298005 
0.12395267671 0.11940579302 0.1151461994 0.11122981408 0.10770251375 0.10460787008 0.10199317359 0.099949695902 0.098609405939 
0.097805381372 0.097409912397 0.097329117413 0.097478758467 0.097780816889 0.098163112053 0.098554955535 0.098885040913 0.099085721239 
0.099101054336 0.098894857968 0.09845545473 0.097794518602 0.096943425276 0.095952839346 0.094894657726 0.093862208889 0.092966747733 
0.092328066154 0.092054433469 0.092209437627 0.092778242155 0.093657914546 0.094675451718 0.095610786226 0.09621136031 0.096204295752 
0.09531661896 0.09330756125 0.090007559925 0.085352326857 0.079400864654 0.072332128767 0.064421898307 0.056006303854 0.047440526644 
0.039060775488 0.031155502343 0.023948824118 0.017596207953 0.012190365806 0.0077741770567 0.004356987298 0.0019305677715 0.00048169425307 
5.6425940527e-17 
