# vtk DataFile Version 5.1
vtk output
ASCII
DATASET POLYDATA
POINTS 100 float
0.140039 -0.00765733 -0.6674 0.139984 -0.00750935 -0.667373 0.139842 -0.00696548 -0.667321 
0.139585 -0.00608669 -0.66717 0.13917 -0.00496372 -0.666805 0.138541 -0.0037044 -0.66608 
0.137637 -0.00241838 -0.664832 0.136395 -0.00120144 -0.662899 0.13476 -0.000121424 -0.660134 
0.13268 0.00079221 -0.656413 0.13012 0.00155389 -0.651654 0.127054 0.00222168 -0.645813 
0.12347 0.00289128 -0.638889 0.119363 0.00368502 -0.630921 0.11474 0.00473732 -0.621979 
0.109609 0.00617836 -0.612153 0.103984 0.00811819 -0.601545 0.0978795 0.0106331 -0.590252 
0.0913126 0.0137563 -0.578361 0.0843033 0.0174732 -0.565938 0.0768776 0.021723 -0.553025 
0.0690698 0.0264047 -0.53964 0.0609252 0.0313885 -0.525779 0.0525025 0.0365289 -0.511419 
0.0438734 0.0416793 -0.496533 0.0351218 0.0467061 -0.481086 0.0263397 0.0514988 -0.465057 
0.0176221 0.0559781 -0.448432 0.00905958 0.0600979 -0.431218 0.000731184 0.0638433 -0.413438 
-0.00730314 0.0672249 -0.395132 -0.0150083 0.0702693 -0.376353 -0.0223777 0.0730095 -0.357159 
-0.0294331 0.0754743 -0.337606 -0.0362223 0.0776804 -0.317744 -0.0428116 0.0796269 -0.297607 
-0.0492766 0.0812938 -0.277212 -0.0556905 0.0826443 -0.256554 -0.0621113 0.0836304 -0.235613 
-0.0685702 0.0842006 -0.214352 -0.0750619 0.0843097 -0.19273 -0.0815383 0.083927 -0.170702 
-0.087907 0.0830438 -0.148238 -0.0940341 0.0816772 -0.125321 -0.0997522 0.0798715 -0.101961 
-0.104873 0.0776942 -0.0781963 -0.109201 0.0752306 -0.0540956 -0.112553 0.0725743 -0.029757 
-0.11477 0.069818 -0.00530341 -0.115734 0.0670432 0.0191246 -0.115379 0.0643128 0.0433771 
-0.113696 0.0616658 0.067305 -0.110732 0.0591154 0.0907689 -0.106586 0.0566516 0.113648 
-0.101403 0.0542466 0.135847 -0.0953536 0.051863 0.1573 -0.0886263 0.0494632 0.177972 
-0.0814073 0.0470194 0.197859 -0.0738679 0.0445212 0.216984 -0.0661533 0.0419816 0.23539 
-0.058375 0.0394382 0.253137 -0.0506082 0.0369523 0.270292 -0.0428926 0.0346023 0.286927 
-0.0352387 0.0324763 0.303106 -0.0276357 0.0306613 0.318887 -0.0200618 0.0292326 0.334317 
-0.0124943 0.0282451 0.34943 -0.00491884 0.0277251 0.364249 0.00266364 0.0276674 0.378786 
0.0102332 0.028035 0.393046 0.0177501 0.0287626 0.407028 0.0251576 0.0297642 0.420731 
0.0323872 0.0309417 0.434153 0.0393654 0.0321957 0.447292 0.0460211 0.0334347 0.460151 
0.052293 0.0345837 0.472733 0.0581346 0.0355893 0.485045 0.0635184 0.0364215 0.497091 
0.0684363 0.037073 0.508875 0.0728983 0.0375544 0.520398 0.0769287 0.0378878 0.531653 
0.0805615 0.0380995 0.542629 0.0838344 0.0382123 0.553308 0.0867838 0.0382402 0.563665 
0.0894401 0.038184 0.573666 0.0918257 0.0380316 0.583276 0.0939536 0.0377598 0.592453 
0.0958291 0.0373394 0.601155 0.0974522 0.0367421 0.609337 0.0988217 0.0359482 0.616957 
0.0999384 0.034953 0.623975 0.10081 0.0337728 0.630355 0.101451 0.0324471 0.636064 
0.101888 0.031038 0.641074 0.102153 0.0296262 0.645361 0.102285 0.0283042 0.648907 
0.102327 0.0271671 0.651696 0.102316 0.0263026 0.653716 0.102285 0.0257813 0.65496 
0.102255 0.0256487 0.655421 
LINES 2 100
OFFSETS vtktypeint64
0 100 
CONNECTIVITY vtktypeint64
0 1 2 3 4 5 6 7 8 
9 10 11 12 13 14 15 16 17 
18 19 20 21 22 23 24 25 26 
27 28 29 30 31 32 33 34 35 
36 37 38 39 40 41 42 43 44 
45 46 47 48 49 50 51 52 53 
54 55 56 57 58 59 60 61 62 
63 64 65 66 67 68 69 70 71 
72 73 74 75 76 77 78 79 80 
81 82 83 84 85 86 87 88 89 
90 91 92 93 94 95 96 97 98 
99 
POINT_DATA 100
FIELD FieldData 3
_theta 1 100 double
0 0.031733259127 0.063466518254 0.095199777382 0.12693303651 0.15866629564 0.19039955476 0.22213281389 0.25386607302 
0.28559933214 0.31733259127 0.3490658504 0.38079910953 0.41253236865 0.44426562778 0.47599888691 0.50773214603 0.53946540516 
0.57119866429 0.60293192342 0.63466518254 0.66639844167 0.6981317008 0.72986495992 0.76159821905 0.79333147818 0.82506473731 
0.85679799643 0.88853125556 0.92026451469 0.95199777382 0.98373103294 1.0154642921 1.0471975512 1.0789308103 1.1106640695 
1.1423973286 1.1741305877 1.2058638468 1.237597106 1.2693303651 1.3010636242 1.3327968833 1.3645301425 1.3962634016 
1.4279966607 1.4597299198 1.491463179 1.5231964381 1.5549296972 1.5866629564 1.6183962155 1.6501294746 1.6818627337 
1.7135959929 1.745329252 1.7770625111 1.8087957702 1.8405290294 1.8722622885 1.9039955476 1.9357288068 1.9674620659 
1.999195325 2.0309285841 2.0626618433 2.0943951024 2.1261283615 2.1578616206 2.1895948798 2.2213281389 2.253061398 
2.2847946572 2.3165279163 2.3482611754 2.3799944345 2.4117276937 2.4434609528 2.4751942119 2.506927471 2.5386607302 
2.5703939893 2.6021272484 2.6338605076 2.6655937667 2.6973270258 2.7290602849 2.7607935441 2.7925268032 2.8242600623 
2.8559933214 2.8877265806 2.9194598397 2.9511930988 2.982926358 3.0146596171 3.0463928762 3.0781261353 3.1098593945 
3.1415926536 
_radius 1 100 double
2.0019528154e-16 0.013590031504 0.027162575242 0.040690540873 0.054131061957 0.067418963227 0.08046189455 0.093138097986 0.10529799742 
0.11677062403 0.12737518749 0.13693701782 0.1453059801 0.15237466851 0.15809344387 0.16247972472 0.16561977254 0.16766235761 
0.16880496892 0.16927444285 0.16930481974 0.16911569364 0.16889416397 0.16878271891 0.16887412645 0.16921298615 0.16980240733 
0.1706136839 0.17159693189 0.17269120613 0.17383321674 0.17496414276 0.17603418438 0.17700459389 0.17784717036 0.17854165596 
0.17907203611 0.17942321473 0.17957967702 0.17952738429 0.1792591986 0.17878274579 0.17812828079 0.1773535864 0.17654374557 
0.17580547961 0.17525765467 0.17502066408 0.17520736864 0.17591707406 0.17723199025 0.17921393125 0.18189899484 0.18528973514 
0.18934666851 0.19398229323 0.1990604375 0.20440216055 0.20979771832 0.21502300525 0.21985839512 0.22410771338 0.22761503719 
0.23027720788 0.2320504296 0.23295006892 0.23304363606 0.2324378003 0.23126109122 0.22964459395 0.22770335782 0.22552126684 
0.22314164886 0.22056491837 0.21775323297 0.2146408383 0.21114785076 0.20719488716 0.20271615629 0.19766917882 0.19204000014 
0.18584348263 0.17911894343 0.17192199667 0.16431393024 0.15635026956 0.14807031595 0.13948934728 0.13059481214 0.12134726925 
0.11168611342 0.10153940414 0.090836481234 0.079521602669 0.067566642737 0.054980984208 0.041817118862 0.028171073887 0.014177502485 
3.6211391301e-16 
_area 1 100 double
0 0.00039891997613 0.0016160062064 0.0037040644806 0.0067264050139 0.010727420759 0.015703250298 0.021579072419 0.028197560318 
0.035320730216 0.042645195376 0.049828857538 0.056525417173 0.062421785674 0.067272626374 0.070926122746 0.073336139103 0.074558629068 
0.074734393078 0.074064754117 0.072788387884 0.071163964848 0.069456669223 0.067922418433 0.066783967347 0.066197931041 0.06622357066 
0.066818062626 0.067864985529 0.069187504723 0.070552071231 0.071746968905 0.072650357619 0.073222920723 0.073493044586 0.073536969547 
0.073457497732 0.073363130997 0.073449758518 0.073726582739 0.074127942084 0.074644879758 0.075285508097 0.076091825135 0.077141259158 
0.078525883186 0.080302726485 0.08244556718 0.084860108592 0.087455519786 0.09020531536 0.093167858831 0.096467428647 0.10024205557 
0.10458824217 0.10953942162 0.11506531002 0.12106574796 0.12735922916 0.13367976833 0.13969386544 0.14503981209 0.14938110408 
0.15245954502 0.15413370679 0.15439352443 0.15334906277 0.1511982219 0.14818294211 0.14454586348 0.14049845544 0.13620586886 
0.13178478028 0.12730509698 0.12278995859 0.1182172631 0.11352985729 0.1086556943 0.10353125188 0.098120287995 0.092423564101 
0.086478512657 0.080350545483 0.07411962046 0.067865942073 0.061657839778 0.055543970021 0.04955115975 0.043688181828 0.037954613917 
0.032352995611 0.026901883351 0.021647080879 0.016668383321 0.012079794271 0.0080223790874 0.0046504562706 0.0021133015058 0.00053557037069 
6.7274736861e-17 
