# vtk DataFile Version 5.1
vtk output
ASCII
DATASET POLYDATA
POINTS 100 float
0.0360278 0.033508 -0.671837 0.0359789 0.0334221 -0.671313 0.0358726 0.0333067 -0.669827 
0.0357159 0.0331766 -0.667404 0.0355169 0.0330568 -0.664083 0.0352806 0.0329808 -0.65991 
0.0350041 0.0329886 -0.65494 0.0346713 0.0331242 -0.649225 0.0342504 0.0334328 -0.642814 
0.0336921 0.033958 -0.635746 0.0329311 0.0347378 -0.628049 0.03189 0.0358025 -0.619735 
0.0304862 0.0371713 -0.610799 0.0286396 0.0388509 -0.601225 0.0262824 0.0408338 -0.590984 
0.0233673 0.0430983 -0.580038 0.0198749 0.0456094 -0.568349 0.015818 0.04832 -0.555881 
0.0112428 0.0511741 -0.542602 0.00622624 0.0541096 -0.528497 0.000869328 0.0570619 -0.513563 
-0.0047122 0.0599674 -0.497813 -0.0103994 0.0627669 -0.481278 -0.0160823 0.065408 -0.464003 
-0.0216714 0.067847 -0.446044 -0.0271063 0.0700497 -0.427462 -0.0323619 0.0719911 -0.40832 
-0.0374489 0.0736545 -0.388675 -0.0424106 0.0750296 -0.368577 -0.047315 0.0761103 -0.34806 
-0.0522433 0.076893 -0.327144 -0.0572754 0.0773739 -0.305833 -0.0624762 0.0775485 -0.284117 
-0.067881 0.0774105 -0.261978 -0.0734851 0.0769524 -0.239392 -0.0792368 0.0761667 -0.216338 
-0.0850352 0.0750479 -0.192803 -0.0907344 0.0735944 -0.168791 -0.0961515 0.0718114 -0.144325 
-0.10108 0.0697127 -0.119452 -0.105307 0.0673224 -0.0942475 -0.108629 0.0646751 -0.0688074 
-0.110869 0.0618158 -0.0432506 -0.111894 0.0587984 -0.0177109 -0.111622 0.0556829 0.00767027 
-0.110033 0.0525321 0.0327513 -0.107164 0.0494085 0.0573992 -0.103111 0.0463703 0.081497 
-0.0980121 0.0434686 0.10495 -0.0920425 0.0407446 0.127691 -0.0853936 0.038229 0.149679 
-0.0782598 0.0359415 0.170904 -0.070824 0.0338921 0.191379 -0.0632449 0.032083 0.211139 
-0.0556498 0.0305116 0.230235 -0.0481297 0.0291732 0.248722 -0.0407401 0.0280639 0.266662 
-0.0335047 0.0271828 0.284109 -0.0264229 0.0265334 0.301111 -0.0194784 0.0261237 0.317704 
-0.0126491 0.0259654 0.333913 -0.00591612 0.0260714 0.349751 0.000729486 0.0264535 0.365222 
0.00728187 0.0271188 0.380327 0.013719 0.0280667 0.395061 0.020004 0.0292863 0.409424 
0.0260895 0.0307543 0.42342 0.0319234 0.0324349 0.437057 0.0374562 0.0342806 0.450352 
0.0426473 0.036234 0.463329 0.0474714 0.0382317 0.476014 0.0519221 0.0402083 0.488437 
0.0560135 0.0421009 0.500625 0.0597787 0.0438537 0.512599 0.0632663 0.0454218 0.524375 
0.0665343 0.046774 0.535959 0.0696428 0.0478944 0.547345 0.0726464 0.0487823 0.558521 
0.0755867 0.049451 0.569465 0.0784863 0.049925 0.580148 0.0813454 0.0502369 0.590541 
0.0841401 0.0504234 0.600614 0.0868246 0.050521 0.61034 0.0893349 0.0505634 0.619696 
0.0915962 0.0505781 0.628664 0.0935306 0.0505853 0.637233 0.0950664 0.0505975 0.645394 
0.0961466 0.0506197 0.653138 0.096737 0.0506511 0.660458 0.0968313 0.0506873 0.667341 
0.0964549 0.050722 0.673766 0.0956644 0.0507496 0.679708 0.0945455 0.0507667 0.685131 
0.0932066 0.0507729 0.689992 0.0917713 0.050771 0.694242 0.090369 0.050767 0.697829 
0.0891239 0.0507682 0.700704 0.0881454 0.0507826 0.702821 0.0875189 0.0508168 0.704144 
0.0872986 0.050875 0.704649 
LINES 2 100
OFFSETS vtktypeint64
0 100 
CONNECTIVITY vtktypeint64
0 1 2 3 4 5 6 7 8 
9 10 11 12 13 14 15 16 17 
18 19 20 21 22 23 24 25 26 
27 28 29 30 31 32 33 34 35 
36 37 38 39 40 41 42 43 44 
45 46 47 48 49 50 51 52 53 
54 55 56 57 58 59 60 61 62 
63 64 65 66 67 68 69 70 71 
72 73 74 75 76 77 78 79 80 
81 82 83 84 85 86 87 88 89 
90 91 92 93 94 95 96 97 98 
99 
POINT_DATA 100
FIELD FieldData 3
_theta 1 100 double
0 0.031733259127 0.063466518254 0.095199777382 0.12693303651 0.15866629564 0.19039955476 0.22213281389 0.25386607302 
0.28559933214 0.31733259127 0.3490658504 0.38079910953 0.41253236865 0.44426562778 0.47599888691 0.50773214603 0.53946540516 
0.57119866429 0.60293192342 0.63466518254 0.66639844167 0.6981317008 0.72986495992 0.76159821905 0.79333147818 0.82506473731 
0.85679799643 0.88853125556 0.92026451469 0.95199777382 0.98373103294 1.0154642921 1.0471975512 1.0789308103 1.1106640695 
1.1423973286 1.1741305877 1.2058638468 1.237597106 1.2693303651 1.3010636242 1.3327968833 1.3645301425 1.3962634016 
1.4279966607 1.4597299198 1.491463179 1.5231964381 1.5549296972 1.5866629564 1.6183962155 1.6501294746 1.6818627337 
1.7135959929 1.745329252 1.7770625111 1.8087957702 1.8405290294 1.8722622885 1.9039955476 1.9357288068 1.9674620659 
1.999195325 2.0309285841 2.0626618433 2.0943951024 2.1261283615 2.1578616206 2.1895948798 2.2213281389 2.253061398 
2.2847946572 2.3165279163 2.3482611754 2.3799944345 2.4117276937 2.4434609528 2.4751942119 2.506927471 2.5386607302 
2.5703939893 2.6021272484 2.6338605076 2.6655937667 2.6973270258 2.7290602849 2.7607935441 2.7925268032 2.8242600623 
2.8559933214 2.8877265806 2.9194598397 2.9511930988 2.982926358 3.0146596171 3.0463928762 3.0781261353 3.1098593945 
3.1415926536 
_radius 1 100 double
8.9083075474e-16 0.013612244701 0.027177572269 0.040645397416 0.053958090311 0.067047506652 0.079832225762 0.092216184127 0.10408934025 
0.1153307613 0.125814185 0.13541576726 0.14402340659 0.15154674678 0.15792673124 0.16314348006 0.16722134814 0.17023031614 
0.17228332423 0.17352968753 0.17414522138 0.17432006165 0.17424535605 0.17410004435 0.17403886381 0.17418249787 0.17461045625 
0.17535697782 0.17641015965 0.17771461259 0.17917799087 0.18068153331 0.18209425628 0.18328974483 0.18416374549 0.18465017534 
0.18473296439 0.18445152874 0.18389870249 0.18321153458 0.18255707088 0.18211631414 0.18206925118 0.18258221249 0.1837969841 
0.18582039816 0.18871409303 0.19248589619 0.19708530534 0.20240498349 0.20828861692 0.21454407497 0.22096002767 0.22732376984 
0.23343785961 0.23913350177 0.24427938628 0.24878561543 0.25260312086 0.25571946621 0.25815215597 0.2599405666 0.26113744614 
0.26180067873 0.26198577592 0.26173942246 0.26109441638 0.26006646899 0.25865342506 0.25683731169 0.25458910536 0.25187536305 
0.24866526819 0.24493652367 0.24067893293 0.23589522778 0.23059943436 0.2248135941 0.21856386807 0.21187694609 0.20477733754 
0.1972856859 0.18941788897 0.18118465226 0.17259119493 0.16363709546 0.15431654512 0.14461938819 0.13453317822 0.12404613902 
0.11315057675 0.10184611591 0.090142177761 0.078059324879 0.06562936269 0.052894345149 0.039904826823 0.026717801579 0.013394741549 
5.3693425459e-16 
_area 1 100 double
0 0.0004415259719 0.0017771706651 0.0040326242576 0.0072290601322 0.011360200872 0.016373344647 0.022159103577 0.028551029652 
0.035333502047 0.042254906591 0.049043470101 0.055424573405 0.061139726313 0.065967501941 0.069745371094 0.072389379265 0.073907270748 
0.074400977862 0.074056524388 0.07312261669 0.071882257189 0.070623281125 0.069611916968 0.069065517282 0.069121394119 0.069829201154 
0.071171071257 0.073076371881 0.075425832018 0.07805473539 0.080764836078 0.083348534308 0.085618579431 0.087434831091 0.088721948483 
0.089474883986 0.089754033141 0.089676263971 0.089409496324 0.089176902965 0.089254617534 0.089872938063 0.091098305978 0.092960411568 
0.095554753213 0.099025085484 0.10351186836 0.1090940647 0.1157495963 0.12334893062 0.1316741624 0.14044793349 0.14936274218 
0.15810797389 0.16639377641 0.1739704745 0.18064218925 0.18627387211 0.19079149399 0.1941758555 0.1964518736 0.19767668768 
0.19793021534 0.19731003126 0.19592885987 0.19390899462 0.19136661676 0.18838483351 0.18498791576 0.18113733602 0.17675669112 
0.17177019575 0.16613441933 0.15985390912 0.15298162214 0.14560894876 0.13785032436 0.1298266096 0.12165039012 0.11341525454 
0.10519010409 0.097018735701 0.088924208625 0.080916666434 0.073002508321 0.065192655345 0.057508465732 0.049985147617 0.042673387886 
0.035639861102 0.02896659002 0.022748541361 0.017088939461 0.012092573127 0.007858315526 0.0044724918985 0.0020043035543 0.00050354665616 
2.954429908e-17 
