# vtk DataFile Version 5.1
vtk output
ASCII
DATASET POLYDATA
POINTS 100 float
0.0883715 0.0235884 0.648289 0.0884336 0.0239109 0.648075 0.0887026 0.0247475 0.647352 
0.089124 0.0260517 0.646116 0.0896143 0.02775 0.644363 0.0900705 0.0297479 0.642086 
0.0903825 0.0319364 0.639275 0.0904458 0.0342008 0.635918 0.0901728 0.0364286 0.631997 
0.0895021 0.0385181 0.627492 0.0884041 0.0403846 0.622378 0.0868819 0.0419659 0.616629 
0.0849691 0.0432254 0.610219 0.0827222 0.0441529 0.603121 0.080212 0.0447628 0.595313 
0.0775123 0.0450904 0.586782 0.074689 0.0451868 0.57752 0.0717911 0.0451125 0.567536 
0.0688435 0.04493 0.55685 0.0658442 0.0446975 0.545499 0.0627649 0.0444633 0.533535 
0.0595548 0.0442613 0.521025 0.0561478 0.0441092 0.508049 0.0524712 0.0440079 0.494696 
0.0484553 0.0439439 0.481059 0.0440414 0.0438927 0.467229 0.0391895 0.0438243 0.453291 
0.0338812 0.0437091 0.439315 0.0281217 0.0435237 0.425354 0.0219374 0.0432561 0.411436 
0.0153716 0.0429101 0.397565 0.00847864 0.042507 0.383716 0.00131741 0.0420857 0.369838 
-0.00605419 0.0417006 0.355857 -0.0135835 0.0414173 0.34168 -0.0212248 0.0413068 0.3272 
-0.0289387 0.0414389 0.312308 -0.0366888 0.0418747 0.296894 -0.0444366 0.0426606 0.280861 
-0.0521359 0.0438227 0.264127 -0.059727 0.0453636 0.246634 -0.0671324 0.0472609 0.228351 
-0.0742555 0.0494688 0.209274 -0.0809813 0.0519214 0.189427 -0.087182 0.0545385 0.168863 
-0.0927239 0.0572317 0.147654 -0.0974787 0.0599126 0.125889 -0.101334 0.0624995 0.103669 
-0.104206 0.0649239 0.0811018 -0.106049 0.0671352 0.0582918 -0.106859 0.0691034 0.0353399 
-0.106682 0.0708189 0.0123381 -0.105608 0.0722911 -0.0106328 -0.103767 0.0735443 -0.0335036 
-0.101316 0.0746119 -0.0562164 -0.0984259 0.0755304 -0.0787237 -0.0952687 0.0763334 -0.100986 
-0.0919991 0.0770453 -0.122968 -0.0887432 0.0776775 -0.144641 -0.0855878 0.0782259 -0.165976 
-0.0825756 0.0786703 -0.186945 -0.0797042 0.0789762 -0.207521 -0.0769312 0.079098 -0.227676 
-0.0741829 0.0789844 -0.247387 -0.0713674 0.0785833 -0.266629 -0.0683881 0.0778484 -0.285385 
-0.0651586 0.0767436 -0.30364 -0.061615 0.0752478 -0.321386 -0.0577263 0.073357 -0.338618 
-0.0534993 0.0710852 -0.355339 -0.0489805 0.0684633 -0.371553 -0.044252 0.0655361 -0.387264 
-0.0394243 0.0623591 -0.402479 -0.0346254 0.0589929 -0.417197 -0.029989 0.0554989 -0.431416 
-0.0256413 0.0519343 -0.445125 -0.0216904 0.0483488 -0.458307 -0.0182166 0.0447817 -0.470938 
-0.015267 0.0412612 -0.482987 -0.0128533 0.0378039 -0.494421 -0.0109535 0.034417 -0.505203 
-0.00951638 0.0311004 -0.515301 -0.00846894 0.0278497 -0.524682 -0.00772485 0.0246594 -0.533326 
-0.00719352 0.0215256 -0.541218 -0.00678852 0.0184489 -0.548354 -0.00643449 0.0154352 -0.554743 
-0.00607215 0.0124969 -0.560406 -0.00566099 0.00965222 -0.565371 -0.00517978 0.00692462 -0.569677 
-0.0046252 0.00434092 -0.573369 -0.00400895 0.00192961 -0.576497 -0.003354 -0.000280938 -0.579111 
-0.00269058 -0.00226418 -0.581261 -0.00205222 -0.00399656 -0.582994 -0.00147233 -0.00545836 -0.584352 
-0.000981498 -0.00663398 -0.585373 -0.00060547 -0.00751193 -0.586084 -0.000363795 -0.00808451 -0.586508 
-0.000268997 -0.0083474 -0.586657 
LINES 2 100
OFFSETS vtktypeint64
0 100 
CONNECTIVITY vtktypeint64
0 1 2 3 4 5 6 7 8 
9 10 11 12 13 14 15 16 17 
18 19 20 21 22 23 24 25 26 
27 28 29 30 31 32 33 34 35 
36 37 38 39 40 41 42 43 44 
45 46 47 48 49 50 51 52 53 
54 55 56 57 58 59 60 61 62 
63 64 65 66 67 68 69 70 71 
72 73 74 75 76 77 78 79 80 
81 82 83 84 85 86 87 88 89 
90 91 92 93 94 95 96 97 98 
99 
POINT_DATA 100
FIELD FieldData 3
_theta 1 100 double
0 0.031733259127 0.063466518254 0.095199777382 0.12693303651 0.15866629564 0.19039955476 0.22213281389 0.25386607302 
0.28559933214 0.31733259127 0.3490658504 0.38079910953 0.41253236865 0.44426562778 0.47599888691 0.50773214603 0.53946540516 
0.57119866429 0.60293192342 0.63466518254 0.66639844167 0.6981317008 0.72986495992 0.76159821905 0.79333147818 0.82506473731 
0.85679799643 0.88853125556 0.92026451469 0.95199777382 0.98373103294 1.0154642921 1.0471975512 1.0789308103 1.1106640695 
1.1423973286 1.1741305877 1.2058638468 1.237597106 1.2693303651 1.3010636242 1.3327968833 1.3645301425 1.3962634016 
1.4279966607 1.4597299198 1.491463179 1.5231964381 1.5549296972 1.5866629564 1.6183962155 1.6501294746 1.6818627337 
1.7135959929 1.745329252 1.7770625111 1.8087957702 1.8405290294 1.8722622885 1.9039955476 1.9357288068 1.9674620659 
1.999195325 2.0309285841 2.0626618433 2.0943951024 2.1261283615 2.1578616206 2.1895948798 2.2213281389 2.253061398 
2.2847946572 2.3165279163 2.3482611754 2.3799944345 2.4117276937 2.4434609528 2.4751942119 2.506927471 2.5386607302 
2.5703939893 2.6021272484 2.6338605076 2.6655937667 2.6973270258 2.7290602849 2.7607935441 2.7925268032 2.8242600623 
2.8559933214 2.8877265806 2.9194598397 2.9511930988 2.982926358 3.0146596171 3.0463928762 3.0781261353 3.1098593945 
3.1415926536 
_radius 1 100 double
4.5056082076e-16 0.012071762831 0.024087575425 0.035992471269 0.047733202005 0.059256700064 0.070506854635 0.081420731096 0.091926100098 
0.10194215303 0.11138435757 0.12017291446 0.1282429583 0.13555405812 0.14209678398 0.14789488393 0.15300270188 0.15749858921 
0.16147588428 0.16503328145 0.16826606342 0.17125898746 0.17408095868 0.17678125487 0.17938705767 0.1819022944 0.18430810399 
0.18656538735 0.18861972096 0.19040837379 0.19186843833 0.19294452005 0.19359438801 0.19379158407 0.19352497956 0.19279622147 
0.19161656128 0.19000455207 0.18798559249 0.18559349758 0.18287346136 0.17988519851 0.17670486912 0.17342462317 0.17014916329 
0.16698946902 0.16405459145 0.16144303588 0.15923549531 0.15749040786 0.15624297409 0.1555071327 0.15527898481 0.15553970179 
0.15625634787 0.15738038624 0.15884549961 0.16056753382 0.16244863984 0.16438541435 0.16627889796 0.1680438982 0.16961583378 
0.17095424317 0.17204286892 0.17288680997 0.17350762627 0.17393741545 0.17421274056 0.17436896765 0.17443522738 0.17442998036 
0.17435711654 0.1742026683 0.17393249557 0.17349154796 0.17280532852 0.1717838835 0.17032810805 0.16833760135 0.16571893133 
0.16239308954 0.15830114009 0.15340750831 0.14770086715 0.14119300451 0.13391629523 0.12592044019 0.11726899422 0.10803592347 
0.098302109899 0.088151534953 0.077666991887 0.066925580519 0.055994683391 0.044929292293 0.033771291959 0.022550732357 0.011288555675 
6.2609206647e-16 
_area 1 100 double
0 0.00033116850483 0.0013236088534 0.0029741936689 0.0052774816811 0.0082240326401 0.011796185248 0.015961066301 0.020662126277 
0.025811858212 0.031288674772 0.036940186055 0.042593892409 0.048074619091 0.053225776568 0.057929680462 0.062122135865 0.065798656702 
0.069012915581 0.071870096969 0.07451674086 0.07712485796 0.079865704938 0.082873157558 0.086207630694 0.089836853788 0.093640691035 
0.097434879755 0.10100498461 0.10414309159 0.10668029394 0.1085087164 0.10958928487 0.10994504562 0.10964311419 0.10877029585 
0.10740815186 0.10561351792 0.10341025348 0.10079699065 0.097772413627 0.094369168413 0.09067643179 0.086836978847 0.083020975801 
0.079389504937 0.076062653103 0.07310190098 0.070509634783 0.068243555248 0.066240547468 0.064443524642 0.062825610158 0.061407248731 
0.060262995052 0.059515239481 0.059308379767 0.059751728793 0.060846742596 0.062459926651 0.06436681679 0.066322000381 0.06811212489 
0.069585914029 0.070665485597 0.07134309219 0.071668225503 0.071730605682 0.071643885248 0.071531863255 0.071514091274 0.071684541493 
0.072085968034 0.072701602017 0.073472725369 0.074317170233 0.075131976741 0.075787726802 0.076127287032 0.075975564851 0.075159824257 
0.073535583681 0.071011375754 0.067566031736 0.063254146831 0.058198656655 0.052573264961 0.046580208291 0.040429030878 0.034319696307 
0.028430186162 0.022907072532 0.017858954218 0.013356252369 0.0094416120165 0.0061478661193 0.0035124931812 0.0015807333762 0.00039839792076 
1.030435429e-18 
