# vtk DataFile Version 5.1
vtk output
ASCII
DATASET POLYDATA
POINTS 100 float
0.11383 -0.00813692 -0.692316 0.113909 -0.00800524 -0.691818 0.114108 -0.00744354 -0.690346 
0.114381 -0.00647267 -0.687899 0.114652 -0.00512448 -0.684474 0.114824 -0.0034378 -0.680072 
0.114782 -0.00145349 -0.674701 0.114396 0.000790284 -0.66838 0.113536 0.00326225 -0.66114 
0.112072 0.0059407 -0.653026 0.109887 0.00881445 -0.644095 0.106883 0.0118818 -0.634418 
0.102987 0.0151475 -0.62407 0.0981546 0.0186186 -0.613132 0.0923794 0.0222991 -0.601678 
0.0856904 0.0261849 -0.589775 0.0781537 0.030259 -0.577474 0.0698703 0.0344887 -0.564806 
0.0609719 0.0388246 -0.551779 0.0516142 0.0432016 -0.538382 0.0419691 0.0475426 -0.52458 
0.0322154 0.0517635 -0.510319 0.0225281 0.0557805 -0.495535 0.0130687 0.0595162 -0.480156 
0.00397536 0.0629074 -0.464111 -0.00464518 0.0659097 -0.447333 -0.0127238 0.0685012 -0.42977 
-0.0202326 0.0706842 -0.411384 -0.027185 0.0724829 -0.392159 -0.0336333 0.0739401 -0.3721 
-0.0396624 0.0751114 -0.351234 -0.0453813 0.076058 -0.329609 -0.050912 0.0768395 -0.30729 
-0.0563772 0.0775067 -0.28436 -0.0618873 0.0780963 -0.260915 -0.0675288 0.0786269 -0.237058 
-0.0733538 0.0790972 -0.212901 -0.0793725 0.0794873 -0.188557 -0.0855491 0.0797611 -0.164139 
-0.0918018 0.0798712 -0.139757 -0.0980068 0.079764 -0.115513 -0.104006 0.0793862 -0.0914997 
-0.109616 0.0786899 -0.0677977 -0.114647 0.0776376 -0.0444717 -0.11891 0.0762051 -0.0215687 
-0.122236 0.0743838 0.000882521 -0.124485 0.0721807 0.0228718 -0.125561 0.0696175 0.0444064 
-0.125415 0.066729 0.0655081 -0.12405 0.0635604 0.0862089 -0.121518 0.0601659 0.106546 
-0.117916 0.0566057 0.126556 -0.113377 0.0529453 0.146269 -0.108059 0.0492542 0.165703 
-0.102134 0.0456054 0.184859 -0.0957716 0.0420745 0.203724 -0.0891327 0.0387395 0.222265 
-0.0823558 0.0356788 0.240435 -0.0755531 0.0329692 0.258181 -0.0688057 0.0306825 0.275447 
-0.0621648 0.0288817 0.292186 -0.0556538 0.0276157 0.308366 -0.0492743 0.0269149 0.323979 
-0.043013 0.0267867 0.339046 -0.0368494 0.0272125 0.353617 -0.0307634 0.0281459 0.367772 
-0.024741 0.0295139 0.381615 -0.0187798 0.0312196 0.395264 -0.0128903 0.0331483 0.40884 
-0.00709687 0.035175 0.422456 -0.00143571 0.037173 0.436202 0.0040486 0.0390241 0.450137 
0.00930726 0.0406273 0.464277 0.0142918 0.0419063 0.478597 0.0189581 0.0428154 0.49303 
0.0232695 0.0433412 0.507472 0.027199 0.0435026 0.521798 0.0307289 0.0433464 0.535872 
0.0338502 0.0429409 0.549566 0.0365609 0.0423672 0.562776 0.0388627 0.04171 0.575433 
0.040759 0.0410478 0.587517 0.0422525 0.0404454 0.599056 0.0433444 0.0399479 0.610124 
0.0440342 0.0395774 0.620836 0.0443219 0.0393328 0.631328 0.0442097 0.0391933 0.641739 
0.0437066 0.0391234 0.652191 0.0428313 0.0390796 0.662766 0.0416161 0.0390188 0.673491 
0.0401092 0.0389045 0.684319 0.0383757 0.0387135 0.695132 0.0364968 0.0384391 0.705734 
0.0345669 0.0380923 0.715867 0.0326885 0.0377001 0.72523 0.0309664 0.0373015 0.733497 
0.0295004 0.0369418 0.740351 0.0283776 0.0366657 0.745505 0.0276659 0.036511 0.748735 
0.0274084 0.0365025 0.749895 
LINES 2 100
OFFSETS vtktypeint64
0 100 
CONNECTIVITY vtktypeint64
0 1 2 3 4 5 6 7 8 
9 10 11 12 13 14 15 16 17 
18 19 20 21 22 23 24 25 26 
27 28 29 30 31 32 33 34 35 
36 37 38 39 40 41 42 43 44 
45 46 47 48 49 50 51 52 53 
54 55 56 57 58 59 60 61 62 
63 64 65 66 67 68 69 70 71 
72 73 74 75 76 77 78 79 80 
81 82 83 84 85 86 87 88 89 
90 91 92 93 94 95 96 97 98 
99 
POINT_DATA 100
FIELD FieldData 3
_theta 1 100 double
0 0.031733259127 0.063466518254 0.095199777382 0.12693303651 0.15866629564 0.19039955476 0.22213281389 0.25386607302 
0.28559933214 0.31733259127 0.3490658504 0.38079910953 0.41253236865 0.44426562778 0.47599888691 0.50773214603 0.53946540516 
0.57119866429 0.60293192342 0.63466518254 0.66639844167 0.6981317008 0.72986495992 0.76159821905 0.79333147818 0.82506473731 
0.85679799643 0.88853125556 0.92026451469 0.95199777382 0.98373103294 1.0154642921 1.0471975512 1.0789308103 1.1106640695 
1.1423973286 1.1741305877 1.2058638468 1.237597106 1.2693303651 1.3010636242 1.3327968833 1.3645301425 1.3962634016 
1.4279966607 1.4597299198 1.491463179 1.5231964381 1.5549296972 1.5866629564 1.6183962155 1.6501294746 1.6818627337 
1.7135959929 1.745329252 1.7770625111 1.8087957702 1.8405290294 1.8722622885 1.9039955476 1.9357288068 1.9674620659 
1.999195325 2.0309285841 2.0626618433 2.0943951024 2.1261283615 2.1578616206 2.1895948798 2.2213281389 2.253061398 
2.2847946572 2.3165279163 2.3482611754 2.3799944345 2.4117276937 2.4434609528 2.4751942119 2.506927471 2.5386607302 
2.5703939893 2.6021272484 2.6338605076 2.6655937667 2.6973270258 2.7290602849 2.7607935441 2.7925268032 2.8242600623 
2.8559933214 2.8877265806 2.9194598397 2.9511930988 2.982926358 3.0146596171 3.0463928762 3.0781261353 3.1098593945 
3.1415926536 
_radius 1 100 double
8.8865432472e-16 0.015237785857 0.030320276613 0.04510168497 0.059457800302 0.0732918584 0.08653580987 0.099147356482 0.11110405709 
0.1223962644 0.13302049556 0.14297418401 0.15225196762 0.16084315492 0.16872999642 0.17588676278 0.1822800587 0.18787096581 
0.19261941138 0.19649071257 0.19946372219 0.20153952295 0.20274925112 0.2031594428 0.20287337104 0.20202725844 0.20078102682 
0.19930430513 0.19775955997 0.19628515298 0.19498156881 0.19390376976 0.19306148437 0.19242725212 0.19194965958 0.19156750437 
0.19122102156 0.19085923713 0.19044602189 0.18996808414 0.1894450416 0.18893811761 0.18855322006 0.18843601119 0.18875892582 
0.18970137908 0.19142487635 0.19404609372 0.19761334638 0.2020925944 0.2073668445 0.21324921169 0.21950689385 0.22589124194 
0.2321680092 0.23814209251 0.24367265988 0.24867688311 0.25312288266 0.25701463216 0.26037326958 0.26321996419 0.26556444696 
0.26740058359 0.2687074384 0.26945298096 0.26959834657 0.26910216995 0.26792553778 0.2660380148 0.26342433775 0.26009041302 
0.25606675853 0.2514077741 0.24618618403 0.24048339376 0.23437787521 0.22793449952 0.2211975378 0.21418877351 0.20691027384 
0.19934973011 0.1914857294 0.18329112652 0.17473435666 0.16578010246 0.1563913112 0.14653384509 0.13618348779 0.12533351517 
0.11400032981 0.10222500961 0.090069788257 0.077610003945 0.06492345919 0.052080054448 0.039134652841 0.026125088378 0.013075116499 
4.2054931436e-16 
_area 1 100 double
0 0.00056129558776 0.0022325671073 0.0049761461434 0.0087295820393 0.013405517648 0.018891069443 0.02504740762 0.031710897151 
0.038697277567 0.045809832505 0.052851403085 0.059638581318 0.066014886673 0.07185898386 0.077084957866 0.081634597751 0.085465472632 
0.088541160844 0.090829845501 0.092315464556 0.093025047078 0.093081245699 0.092736882643 0.09220410594 0.091707772188 0.091402826469 
0.091338821992 0.091509984367 0.091814944747 0.092096527113 0.092187949059 0.09195903601 0.091381162154 0.09062002483 0.090245903681 
0.091344693697 0.093491702778 0.095810208906 0.097813002704 0.099253111308 0.10013297308 0.10071857761 0.1014963361 0.10307401699 
0.10597230252 0.11038114809 0.11618955533 0.1231168229 0.13121347716 0.14031177799 0.15047133259 0.16147429358 0.17261819416 
0.18361644218 0.19402738641 0.20304204738 0.21042697266 0.21629823611 0.22106046142 0.22488654555 0.22806592327 0.23074827716 
0.23273921348 0.2335806108 0.23290852 0.23041661604 0.22586221147 0.21932950943 0.21111592207 0.20165779955 0.19138583629 
0.18064791101 0.1698319106 0.15947573342 0.14956859472 0.14058646238 0.13254906614 0.12509573613 0.11765577888 0.11004331976 
0.10228977712 0.094521402868 0.086897271488 0.079536192849 0.072440375064 0.065494507284 0.058554124236 0.051530721823 0.044428201753 
0.0373420166 0.030434890591 0.023900047741 0.017923725808 0.012658673334 0.0082163149384 0.0046756020279 0.0020966159144 0.00052713145793 
2.2732783079e-17 
