# vtk DataFile Version 5.1
vtk output
ASCII
DATASET POLYDATA
POINTS 100 float
0.120214 0.00671703 -0.657291 0.119946 0.00655282 -0.65713 0.119214 0.00621971 -0.656731 
0.11805 0.005775 -0.656068 0.116505 0.00530763 -0.655098 0.114638 0.00492888 -0.653764 
0.112508 0.0047608 -0.651993 0.110165 0.00492355 -0.649702 0.10764 0.00552311 -0.6468 
0.104941 0.00664055 -0.643189 0.102047 0.008324 -0.638772 0.0989115 0.0105841 -0.633453 
0.0954644 0.0133931 -0.627145 0.0916208 0.0166879 -0.619771 0.0872916 0.0203762 -0.611268 
0.0823955 0.024345 -0.601595 0.0768707 0.0284708 -0.590726 0.0706863 0.0326294 -0.578663 
0.0638495 0.0367055 -0.565426 0.0564101 0.0406 -0.551059 0.0484591 0.0442355 -0.535623 
0.0401239 0.0475579 -0.519197 0.0315576 0.0505366 -0.50187 0.0229265 0.0531614 -0.483737 
0.014394 0.0554379 -0.464892 0.00610548 0.0573823 -0.445425 -0.00182607 0.0590152 -0.425415 
-0.00933056 0.0603576 -0.404928 -0.016387 0.0614262 -0.38401 -0.0230237 0.0622324 -0.362694 
-0.0293132 0.0627815 -0.340991 -0.0353606 0.0630744 -0.318903 -0.0412885 0.06311 -0.296419 
-0.0472182 0.0628892 -0.273525 -0.0532507 0.0624173 -0.25021 -0.0594488 0.0617073 -0.226471 
-0.0658226 0.0607813 -0.202319 -0.0723211 0.0596706 -0.177784 -0.0788294 0.0584146 -0.152918 
-0.0851741 0.0570574 -0.127793 -0.0911349 0.0556449 -0.102502 -0.0964627 0.0542197 -0.077156 
-0.100902 0.0528178 -0.051874 -0.104213 0.0514645 -0.0267803 -0.106199 0.0501731 -0.00199549 
-0.106722 0.0489441 0.0223708 -0.10572 0.0477666 0.0462259 -0.103212 0.0466214 0.0694987 
-0.0993019 0.0454853 0.0921424 -0.0941638 0.0443362 0.114135 -0.0880298 0.0431584 0.135476 
-0.0811671 0.041947 0.156184 -0.0738527 0.0407116 0.176292 -0.0663477 0.0394774 0.195837 
-0.0588749 0.0382853 0.21486 -0.0515993 0.0371891 0.233396 -0.0446168 0.0362515 0.25147 
-0.0379505 0.0355375 0.2691 -0.0315556 0.0351088 0.286291 -0.0253313 0.0350163 0.303041 
-0.0191397 0.0352943 0.319345 -0.0128279 0.0359561 0.335196 -0.00625208 0.0369911 0.350595 
0.00070096 0.0383643 0.365555 0.0080956 0.0400181 0.3801 0.0159359 0.0418766 0.394274 
0.0241615 0.043851 0.408132 0.0326518 0.0458467 0.421745 0.0412369 0.0477705 0.435187 
0.0497154 0.0495376 0.448535 0.0578749 0.0510778 0.461855 0.0655154 0.0523396 0.475199 
0.072469 0.0532932 0.488594 0.0786178 0.0539303 0.502043 0.0839043 0.0542628 0.515513 
0.0883356 0.0543194 0.528947 0.0919792 0.0541407 0.542257 0.0949526 0.0537736 0.555337 
0.0974073 0.0532661 0.56807 0.0995088 0.0526618 0.580336 0.101416 0.0519962 0.592022 
0.103265 0.0512936 0.603032 0.105148 0.0505661 0.613296 0.107111 0.0498144 0.62277 
0.109149 0.0490295 0.63144 0.111208 0.0481962 0.639321 0.113201 0.047297 0.646452 
0.115017 0.0463162 0.652887 0.116545 0.0452442 0.658692 0.117688 0.0440805 0.663931 
0.118381 0.0428362 0.668661 0.118599 0.041535 0.672929 0.118368 0.0402124 0.676759 
0.117759 0.0389139 0.680162 0.116884 0.0376922 0.683127 0.115881 0.0366031 0.685632 
0.114897 0.0357006 0.687647 0.114073 0.035033 0.689137 0.113522 0.0346383 0.690074 
0.11332 0.0345413 0.690437 
LINES 2 100
OFFSETS vtktypeint64
0 100 
CONNECTIVITY vtktypeint64
0 1 2 3 4 5 6 7 8 
9 10 11 12 13 14 15 16 17 
18 19 20 21 22 23 24 25 26 
27 28 29 30 31 32 33 34 35 
36 37 38 39 40 41 42 43 44 
45 46 47 48 49 50 51 52 53 
54 55 56 57 58 59 60 61 62 
63 64 65 66 67 68 69 70 71 
72 73 74 75 76 77 78 79 80 
81 82 83 84 85 86 87 88 89 
90 91 92 93 94 95 96 97 98 
99 
POINT_DATA 100
FIELD FieldData 3
_theta 1 100 double
0 0.031733259127 0.063466518254 0.095199777382 0.12693303651 0.15866629564 0.19039955476 0.22213281389 0.25386607302 
0.28559933214 0.31733259127 0.3490658504 0.38079910953 0.41253236865 0.44426562778 0.47599888691 0.50773214603 0.53946540516 
0.57119866429 0.60293192342 0.63466518254 0.66639844167 0.6981317008 0.72986495992 0.76159821905 0.79333147818 0.82506473731 
0.85679799643 0.88853125556 0.92026451469 0.95199777382 0.98373103294 1.0154642921 1.0471975512 1.0789308103 1.1106640695 
1.1423973286 1.1741305877 1.2058638468 1.237597106 1.2693303651 1.3010636242 1.3327968833 1.3645301425 1.3962634016 
1.4279966607 1.4597299198 1.491463179 1.5231964381 1.5549296972 1.5866629564 1.6183962155 1.6501294746 1.6818627337 
1.7135959929 1.745329252 1.7770625111 1.8087957702 1.8405290294 1.8722622885 1.9039955476 1.9357288068 1.9674620659 
1.999195325 2.0309285841 2.0626618433 2.0943951024 2.1261283615 2.1578616206 2.1895948798 2.2213281389 2.253061398 
2.2847946572 2.3165279163 2.3482611754 2.3799944345 2.4117276937 2.4434609528 2.4751942119 2.506927471 2.5386607302 
2.5703939893 2.6021272484 2.6338605076 2.6655937667 2.6973270258 2.7290602849 2.7607935441 2.7925268032 2.8242600623 
2.8559933214 2.8877265806 2.9194598397 2.9511930988 2.982926358 3.0146596171 3.0463928762 3.0781261353 3.1098593945 
3.1415926536 
_radius 1 100 double
1.1110521297e-15 0.014275442734 0.028411084924 0.042276526677 0.055753105552 0.068735007626 0.081126844029 0.092839022496 0.10378318323 
0.11387011667 0.1230118377 0.13112810708 0.13815618568 0.14406153015 0.14884682166 0.15255716979 0.15528029776 0.15714163496 
0.15829519801 0.15891174778 0.15916593394 0.1592240338 0.15923350491 0.15931494789 0.15955640043 0.16000952859 0.16068752364 
0.16156515768 0.16258191944 0.16364900869 0.16466027199 0.16550626826 0.16608987894 0.1663414016 0.16623093676 0.1657760089 
0.16504269729 0.16413930957 0.1632032675 0.16238438018 0.16182965417 0.16167401374 0.16203739973 0.16302439474 0.16472089823 
0.16718426023 0.1704276248 0.17440405256 0.1789983583 0.18403228381 0.18928299762 0.19451006125 0.19948441137 0.20401389094 
0.20796166373 0.21125549196 0.21388724199 0.21590330574 0.2173879849 0.21844313815 0.21916815865 0.2196441614 0.21992490777 
0.22003489562 0.2199731623 0.21972052628 0.21924829835 0.21852727197 0.21753631619 0.21626985006 0.21474309116 0.21299368127 
0.21107846092 0.20906491546 0.20701800439 0.2049843481 0.20297664762 0.20096146544 0.1988530691 0.19651505997 0.19377013992 
0.19041684836 0.18625080819 0.18108732987 0.17478227097 0.16724865069 0.15846733667 0.14849089303 0.13744031681 0.12549494585 
0.11287638055 0.099827861209 0.086591135027 0.073383326772 0.060376568601 0.047683028551 0.035347410817 0.023347961816 0.011605660641 
1.1727589152e-15 
_area 1 100 double
0 0.00050738176683 0.002022105222 0.0045206347329 0.007959252607 0.012267109471 0.017337632194 0.023020931658 0.029120244862 
0.035394891222 0.041571258232 0.047362066536 0.052492459619 0.056729507427 0.059910166877 0.061962360807 0.062914963824 0.062894839596 
0.062111952829 0.060836228486 0.05937167665 0.058032624821 0.057114904816 0.056833043109 0.057250693331 0.058301984543 0.059860449244 
0.06177516678 0.063882502832 0.066015485054 0.068017977857 0.069761953623 0.071163475013 0.07219481607 0.072891431323 0.073348524877 
0.073701192711 0.074092562968 0.074644580702 0.075441502336 0.076525557877 0.077902348272 0.079557781662 0.081485446092 0.083715452916 
0.086334878374 0.089490985761 0.093359041492 0.098054255973 0.10352769151 0.10955159839 0.11579850935 0.12192082508 0.12760004415 
0.13258161166 0.13670186152 0.13990146476 0.14221886175 0.1437625431 0.14466867184 0.14505750801 0.14500397048 0.14453133687 
0.14362598254 0.14226274699 0.14042906723 0.13814012625 0.13544383216 0.13242033882 0.12918147919 0.12586827782 0.12263663216 
0.11962464037 0.11691247709 0.11449981932 0.11231787057 0.11026153391 0.10820731694 0.10600967313 0.10349646118 0.100479699 
0.096781898799 0.092268354303 0.086873970162 0.08061668752 0.073595205703 0.065974236274 0.057963958604 0.049800060253 0.041727017564 
0.03398323301 0.026785753829 0.020314659973 0.014699982391 0.01001484674 0.0062772864433 0.003460955768 0.001512799069 0.00037405040507 
3.2092384306e-17 
