# vtk DataFile Version 5.1
vtk output
ASCII
DATASET POLYDATA
POINTS 100 float
0.0829181 0.0385367 0.65599 0.0831436 0.0386431 0.655473 0.0837398 0.0390801 0.654104 
0.0846463 0.0398036 0.651932 0.08577 0.0407451 0.649027 0.0869949 0.0418195 0.645478 
0.0881943 0.0429347 0.641371 0.0892431 0.0440016 0.636787 0.0900302 0.0449434 0.631784 
0.0904678 0.045703 0.626392 0.0904978 0.0462476 0.620614 0.090094 0.0465703 0.61442 
0.0892597 0.0466884 0.607763 0.0880227 0.0466387 0.600579 0.0864262 0.0464704 0.592806 
0.0845189 0.0462368 0.584395 0.082345 0.0459873 0.575317 0.0799353 0.0457596 0.565577 
0.0773012 0.0455744 0.555212 0.074432 0.0454328 0.544292 0.0712965 0.0453157 0.532915 
0.0678477 0.0451869 0.521194 0.0640313 0.0449982 0.509245 0.0597954 0.0446961 0.497174 
0.0551016 0.0442294 0.485066 0.0499338 0.0435561 0.47297 0.044306 0.0426495 0.460898 
0.0382651 0.0415023 0.448825 0.0318906 0.0401288 0.436689 0.0252892 0.0385637 0.424405 
0.0185857 0.0368601 0.411875 0.0119107 0.0350849 0.399001 0.00538728 0.0333133 0.385702 
-0.000882744 0.0316236 0.371919 -0.00683042 0.0300918 0.357628 -0.0124278 0.0287873 0.342839 
-0.0176918 0.0277703 0.32759 -0.0226823 0.0270901 0.311946 -0.0274953 0.026785 0.295981 
-0.0322515 0.026883 0.279765 -0.0370809 0.0274031 0.263354 -0.0421055 0.0283559 0.246776 
-0.0474228 0.0297445 0.230024 -0.0530897 0.0315639 0.213052 -0.0591115 0.0338004 0.19578 
-0.0654352 0.0364288 0.178099 -0.0719485 0.0394112 0.15989 -0.0784856 0.0426944 0.141031 
-0.0848383 0.0462088 0.12142 -0.0907711 0.0498687 0.100985 -0.0960405 0.0535744 0.0796989 
-0.100414 0.0572162 0.0575844 -0.10369 0.06068 0.034715 -0.105712 0.063855 0.0112105 
-0.106382 0.0666417 -0.0127734 -0.105667 0.06896 -0.037059 -0.103599 0.0707559 -0.0614624 
-0.100268 0.0720065 -0.0858099 -0.0958136 0.0727223 -0.109951 -0.0904102 0.0729452 -0.13377 
-0.0842499 0.0727443 -0.157188 -0.0775261 0.072208 -0.180169 -0.0704173 0.0714336 -0.202706 
-0.0630742 0.0705154 -0.22482 -0.0556106 0.069534 -0.246543 -0.0480991 0.0685449 -0.267907 
-0.0405713 0.0675714 -0.288932 -0.0330231 0.0666 -0.309618 -0.0254228 0.0655806 -0.32994 
-0.0177223 0.0644303 -0.349849 -0.0098697 0.0630423 -0.369273 -0.00182071 0.0612963 -0.388126 
0.00645056 0.0590727 -0.406321 0.014944 0.0562663 -0.423778 0.0236289 0.052799 -0.440434 
0.0324436 0.0486307 -0.456251 0.0412976 0.0437663 -0.47122 0.0500782 0.0382589 -0.485358 
0.0586585 0.0322076 -0.498707 0.0669068 0.0257524 -0.511321 0.074697 0.0190635 -0.523262 
0.0819174 0.0123299 -0.534581 0.0884786 0.00574534 -0.545315 0.094319 -0.00050561 -0.555478 
0.0994072 -0.00625976 -0.565054 0.103742 -0.0113857 -0.574005 0.107351 -0.0157906 -0.582271 
0.110285 -0.0194244 -0.589783 0.112613 -0.0222793 -0.596472 0.114414 -0.0243868 -0.602284 
0.115773 -0.025812 -0.607189 0.116773 -0.0266463 -0.611189 0.117492 -0.0269984 -0.614325 
0.117997 -0.0269858 -0.616672 0.118346 -0.0267267 -0.618338 0.118582 -0.0263323 -0.619448 
0.118738 -0.0259011 -0.620137 0.11884 -0.0255139 -0.620527 0.118901 -0.0252308 -0.62072 
0.118931 -0.0250886 -0.620783 
LINES 2 100
OFFSETS vtktypeint64
0 100 
CONNECTIVITY vtktypeint64
0 1 2 3 4 5 6 7 8 
9 10 11 12 13 14 15 16 17 
18 19 20 21 22 23 24 25 26 
27 28 29 30 31 32 33 34 35 
36 37 38 39 40 41 42 43 44 
45 46 47 48 49 50 51 52 53 
54 55 56 57 58 59 60 61 62 
63 64 65 66 67 68 69 70 71 
72 73 74 75 76 77 78 79 80 
81 82 83 84 85 86 87 88 89 
90 91 92 93 94 95 96 97 98 
99 
POINT_DATA 100
FIELD FieldData 3
_theta 1 100 double
0 0.031733259127 0.063466518254 0.095199777382 0.12693303651 0.15866629564 0.19039955476 0.22213281389 0.25386607302 
0.28559933214 0.31733259127 0.3490658504 0.38079910953 0.41253236865 0.44426562778 0.47599888691 0.50773214603 0.53946540516 
0.57119866429 0.60293192342 0.63466518254 0.66639844167 0.6981317008 0.72986495992 0.76159821905 0.79333147818 0.82506473731 
0.85679799643 0.88853125556 0.92026451469 0.95199777382 0.98373103294 1.0154642921 1.0471975512 1.0789308103 1.1106640695 
1.1423973286 1.1741305877 1.2058638468 1.237597106 1.2693303651 1.3010636242 1.3327968833 1.3645301425 1.3962634016 
1.4279966607 1.4597299198 1.491463179 1.5231964381 1.5549296972 1.5866629564 1.6183962155 1.6501294746 1.6818627337 
1.7135959929 1.745329252 1.7770625111 1.8087957702 1.8405290294 1.8722622885 1.9039955476 1.9357288068 1.9674620659 
1.999195325 2.0309285841 2.0626618433 2.0943951024 2.1261283615 2.1578616206 2.1895948798 2.2213281389 2.253061398 
2.2847946572 2.3165279163 2.3482611754 2.3799944345 2.4117276937 2.4434609528 2.4751942119 2.506927471 2.5386607302 
2.5703939893 2.6021272484 2.6338605076 2.6655937667 2.6973270258 2.7290602849 2.7607935441 2.7925268032 2.8242600623 
2.8559933214 2.8877265806 2.9194598397 2.9511930988 2.982926358 3.0146596171 3.0463928762 3.0781261353 3.1098593945 
3.1415926536 
_radius 1 100 double
1.121463509e-15 0.01297488769 0.025931761903 0.038851722366 0.051700982477 0.064426760431 0.076957181898 0.089205461467 0.10107759393 
0.11248193847 0.12333873885 0.13358783708 0.14319342638 0.15214539765 0.16045745965 0.16816265109 0.17530709722 0.181942932 
0.18812126442 0.19388595552 0.19926881182 0.20428661909 0.20894027968 0.21321620152 0.21708996232 0.22053203549 0.22351496939 
0.22602095742 0.2280484214 0.2296162197 0.23076441699 0.23155111996 0.23204555042 0.23231818089 0.23242932497 0.23241798681 
0.23229293239 0.23202775309 0.23156112601 0.23080264265 0.22964368095 0.22797203756 0.22568852559 0.22272348785 0.21905114219 
0.21469984314 0.20975671304 0.2043656677 0.1987186161 0.19304050139 0.18756976126 0.18253653263 0.17814133252 0.17453697315 
0.17181614857 0.17000632429 0.16907209921 0.16892346111 0.16942733228 0.17042026018 0.17172164028 0.17314801604 0.17452857216 
0.1757203341 0.17662049447 0.17717368422 0.17737330618 0.17725721567 0.17689865383 0.17639358425 0.17584573902 0.17535089548 
0.17498214942 0.17477807889 0.17473551247 0.17480796853 0.17490973562 0.17492432958 0.17471520695 0.17413653307 0.17304248559 
0.17129462092 0.16876771841 0.16535488262 0.16097245693 0.15556469513 0.1491075142 0.14161034199 0.13311521753 0.12369281511 
0.1134357268 0.10244993334 0.090845785275 0.078729956167 0.066199700706 0.05334031747 0.040225950106 0.02692287385 0.013493597011 
1.5742483614e-15 
_area 1 100 double
0 0.00046976594729 0.0018748702569 0.0042008373156 0.0074178352372 0.011474202468 0.01629118617 0.021761519555 0.027753409835 
0.034119723424 0.040710474224 0.047385934108 0.054028003403 0.060548395326 0.066892899967 0.073041137976 0.079001243779 0.084799654396 
0.09046782071 0.096029203802 0.10148993044 0.106834667 0.11202700581 0.11701267957 0.12172471138 0.12609102752 0.13004535355 
0.13354067321 0.13656218527 0.13913515473 0.1413231796 0.14321450278 0.14489840639 0.14643933514 0.14785877113 0.14913013687 
0.15018418711 0.15091919197 0.15121222855 0.15093061138 0.14994395918 0.14813796349 0.14543057144 0.14178971662 0.13724944516 
0.13191955565 0.12598379617 0.11968367633 0.11328899857 0.10706158602 0.10122300742 0.095936510889 0.091306502359 0.087390108395 
0.084212029847 0.081778693858 0.080088350059 0.079113783345 0.078752557035 0.078847497193 0.079259481387 0.079869518123 0.080530475671 
0.081045757905 0.0812104659 0.080871936144 0.07996444678 0.078515056296 0.076632152164 0.074485346645 0.072280300892 0.070228702758 
0.068520265172 0.067308151275 0.066698635181 0.066731688913 0.067359410974 0.068439101142 0.069748942372 0.071018592605 0.071963145413 
0.072313249981 0.071838728846 0.070366573339 0.067795220679 0.064105099241 0.059363154433 0.053718974118 0.047392009222 0.040651459814 
0.033791527832 0.027104966972 0.020857772862 0.015267832809 0.010490295849 0.0066120302293 0.0036566641346 0.0016003035548 0.00039578516791 
3.2213881214e-17 
