# vtk DataFile Version 5.1
vtk output
ASCII
DATASET POLYDATA
POINTS 100 float
0.0369028 0.0391464 -0.601015 0.0368148 0.0390691 -0.600967 0.0365737 0.0389905 -0.60083 
0.0361716 0.0389401 -0.600532 0.0355943 0.0389625 -0.599959 0.0348206 0.0391113 -0.598969 
0.0338206 0.0394419 -0.597404 0.0325549 0.0400042 -0.595103 0.030975 0.0408359 -0.591919 
0.0290243 0.0419581 -0.58773 0.0266413 0.0433723 -0.582451 0.0237639 0.0450611 -0.576033 
0.0203346 0.0469903 -0.568472 0.0163071 0.0491137 -0.559799 0.0116523 0.0513788 -0.550077 
0.00636371 0.0537327 -0.539391 0.000462098 0.0561271 -0.527838 -0.006003 0.0585227 -0.515515 
-0.0129536 0.0608898 -0.502511 -0.0202866 0.0632086 -0.488899 -0.0278796 0.065466 -0.474733 
-0.035599 0.0676519 -0.460047 -0.0433093 0.0697537 -0.444856 -0.0508833 0.0717526 -0.429161 
-0.0582114 0.0736197 -0.412952 -0.0652091 0.0753147 -0.39622 -0.0718221 0.0767872 -0.378957 
-0.0780286 0.07798 -0.361163 -0.0838373 0.0788347 -0.342849 -0.0892825 0.0792987 -0.324035 
-0.0944157 0.0793322 -0.304753 -0.0992955 0.0789149 -0.285041 -0.103976 0.0780504 -0.264936 
-0.108496 0.076768 -0.244477 -0.112868 0.0751209 -0.223695 -0.117074 0.0731818 -0.202616 
-0.121057 0.0710349 -0.181254 -0.124728 0.0687667 -0.159619 -0.127967 0.0664556 -0.137717 
-0.130629 0.0641628 -0.115556 -0.132563 0.0619254 -0.0931518 -0.133619 0.0597522 -0.0705318 
-0.133666 0.0576247 -0.0477417 -0.132603 0.0555016 -0.0248473 -0.130374 0.0533269 -0.00193512 
-0.126968 0.0510423 0.0208897 -0.122431 0.0485987 0.0435081 -0.116858 0.0459695 0.0657939 
-0.11039 0.0431602 0.0876222 -0.103204 0.0402146 0.108879 -0.0954993 0.037217 0.129468 
-0.087481 0.0342874 0.14932 -0.0793474 0.0315723 0.168399 -0.0712744 0.0292315 0.186701 
-0.0634033 0.027421 0.204257 -0.0558332 0.0262756 0.221127 -0.0486162 0.0258926 0.237396 
-0.0417576 0.0263189 0.253165 -0.0352206 0.0275429 0.268543 -0.0289341 0.029493 0.283637 
-0.0228035 0.0320417 0.298544 -0.0167231 0.0350173 0.313344 -0.010589 0.0382191 0.328098 
-0.00431036 0.0414371 0.342841 0.00218052 0.0444712 0.357588 0.00892138 0.0471506 0.372332 
0.0159164 0.0493483 0.387049 0.0231361 0.0509908 0.401705 0.0305206 0.0520621 0.416259 
0.0379852 0.0526004 0.43067 0.0454284 0.0526888 0.4449 0.0527406 0.052442 0.458916 
0.0598134 0.0519896 0.472693 0.0665471 0.0514593 0.486217 0.0728581 0.0509609 0.499477 
0.0786832 0.0505747 0.512469 0.0839818 0.0503438 0.525192 0.0887363 0.0502726 0.537644 
0.0929502 0.050331 0.549825 0.0966443 0.0504622 0.561727 0.0998525 0.050595 0.57334 
0.102617 0.0506567 0.584651 0.104983 0.0505859 0.595639 0.106995 0.0503431 0.606282 
0.108695 0.0499171 0.616554 0.110117 0.0493268 0.626427 0.111293 0.0486191 0.635869 
0.112246 0.0478613 0.644849 0.112997 0.0471314 0.653333 0.113566 0.0465061 0.661286 
0.113969 0.0460497 0.668671 0.114227 0.0458045 0.675449 0.114363 0.0457847 0.681578 
0.1144 0.0459744 0.687018 0.114365 0.0463301 0.691725 0.114286 0.0467875 0.695659 
0.11419 0.047271 0.698783 0.114098 0.0477054 0.701063 0.114029 0.0480264 0.702476 
0.113995 0.0481912 0.703003 
LINES 2 100
OFFSETS vtktypeint64
0 100 
CONNECTIVITY vtktypeint64
0 1 2 3 4 5 6 7 8 
9 10 11 12 13 14 15 16 17 
18 19 20 21 22 23 24 25 26 
27 28 29 30 31 32 33 34 35 
36 37 38 39 40 41 42 43 44 
45 46 47 48 49 50 51 52 53 
54 55 56 57 58 59 60 61 62 
63 64 65 66 67 68 69 70 71 
72 73 74 75 76 77 78 79 80 
81 82 83 84 85 86 87 88 89 
90 91 92 93 94 95 96 97 98 
99 
POINT_DATA 100
FIELD FieldData 3
_theta 1 100 double
0 0.031733259127 0.063466518254 0.095199777382 0.12693303651 0.15866629564 0.19039955476 0.22213281389 0.25386607302 
0.28559933214 0.31733259127 0.3490658504 0.38079910953 0.41253236865 0.44426562778 0.47599888691 0.50773214603 0.53946540516 
0.57119866429 0.60293192342 0.63466518254 0.66639844167 0.6981317008 0.72986495992 0.76159821905 0.79333147818 0.82506473731 
0.85679799643 0.88853125556 0.92026451469 0.95199777382 0.98373103294 1.0154642921 1.0471975512 1.0789308103 1.1106640695 
1.1423973286 1.1741305877 1.2058638468 1.237597106 1.2693303651 1.3010636242 1.3327968833 1.3645301425 1.3962634016 
1.4279966607 1.4597299198 1.491463179 1.5231964381 1.5549296972 1.5866629564 1.6183962155 1.6501294746 1.6818627337 
1.7135959929 1.745329252 1.7770625111 1.8087957702 1.8405290294 1.8722622885 1.9039955476 1.9357288068 1.9674620659 
1.999195325 2.0309285841 2.0626618433 2.0943951024 2.1261283615 2.1578616206 2.1895948798 2.2213281389 2.253061398 
2.2847946572 2.3165279163 2.3482611754 2.3799944345 2.4117276937 2.4434609528 2.4751942119 2.506927471 2.5386607302 
2.5703939893 2.6021272484 2.6338605076 2.6655937667 2.6973270258 2.7290602849 2.7607935441 2.7925268032 2.8242600623 
2.8559933214 2.8877265806 2.9194598397 2.9511930988 2.982926358 3.0146596171 3.0463928762 3.0781261353 3.1098593945 
3.1415926536 
_radius 1 100 double
1.0013427372e-15 0.015187823449 0.030197464874 0.044856931863 0.059008906969 0.07251687723 0.085269657312 0.097183860881 0.10820409227 
0.1183009244 0.1274670539 0.13571234259 0.1430586962 0.1495357567 0.15517806609 0.16002376712 0.16411438565 0.16749517802 
0.17021598007 0.1723330129 0.17391200162 0.17503193232 0.17578740003 0.1762870228 0.17664650747 0.17697699164 0.17737104427 
0.17788959084 0.17855294782 0.17933806885 0.18018233695 0.18099264844 0.18165790877 0.18206342725 0.18210638298 0.18171177597 
0.18084778311 0.1795384996 0.17787126176 0.17599567733 0.17411250113 0.17245272352 0.17125029659 0.17071446605 0.17100789543 
0.17223413816 0.17443421206 0.17758933704 0.18162627192 0.18642281893 0.19181316004 0.19759465699 0.20353843812 0.20940502513 
0.21496405046 0.22001509741 0.224405875 0.22804443894 0.23090347023 0.23301615145 0.23446459893 0.23536294606 0.23583789946 
0.23600978467 0.23597671151 0.23580362765 0.23551695895 0.23510457657 0.23452020626 0.23369114575 0.23252817315 0.23093662567 
0.22882763819 0.22612841329 0.22279029668 0.21879358553 0.21414849315 0.20889238738 0.20308404604 0.19679603014 0.19010630838 
0.18309005199 0.17581221014 0.1683212328 0.16064422932 0.15278392759 0.14471791053 0.13640059232 0.1277681451 0.1187461115 
0.10925887685 0.099239736745 0.08864015425 0.077437008284 0.065637094109 0.053278665486 0.040430239459 0.02718713715 0.013666314337 
1.0379178356e-15 
_area 1 100 double
0 0.00049889156542 0.001990943626 0.0044581816768 0.0078591232745 0.012117624092 0.017115632953 0.022692345541 0.028649537945 
0.034761698931 0.040790216913 0.046501385394 0.051686724466 0.056181945659 0.059879685808 0.062732749481 0.064750579379 0.065997888304 
0.066601905273 0.066768027864 0.066799834141 0.067062161362 0.067582890054 0.068288403707 0.069227764264 0.070474223927 0.072113218998 
0.074170725308 0.07646938419 0.078810004183 0.081009104075 0.082917751418 0.084431684061 0.085490934006 0.0860697916 0.086161915267 
0.085775908253 0.084955972061 0.083816929946 0.082563902448 0.081470857067 0.080809547302 0.08077482941 0.081473475567 0.082964968418 
0.085286375839 0.088402989802 0.092387170949 0.097104135313 0.10258767421 0.10890765385 0.11594565502 0.12344404776 0.13109393489 
0.13853988808 0.14539975672 0.15130380396 0.15594673966 0.15913965771 0.16084547791 0.16118557362 0.16041523067 0.15887563993 
0.1569366859 0.15493299303 0.15306160116 0.15132079752 0.1496089926 0.14780796745 0.14580290095 0.14349096332 0.14078845949 
0.13763445704 0.13399007002 0.12983453631 0.12516085385 0.11997441077 0.11429641622 0.1081705471 0.10166865191 0.094891234303 
0.087960525093 0.08100692912 0.074151900497 0.067491100587 0.061081542282 0.054936082466 0.049027874189 0.043305207703 0.037713590737 
0.032219017067 0.026826144075 0.021587286603 0.016601131045 0.012002645593 0.0079472385294 0.0045926399943 0.0020814768939 0.00052656237121 
7.2029430041e-17 
