# vtk DataFile Version 5.1
vtk output
ASCII
DATASET POLYDATA
POINTS 100 float
0.0818865 0.0626669 0.7104 0.0822212 0.0626377 0.709975 0.0831062 0.0627285 0.708858 
0.084441 0.0629278 0.707034 0.0860716 0.0632165 0.704478 0.0878074 0.0635697 0.701161 
0.0894424 0.0639594 0.697049 0.090777 0.0643562 0.692108 0.0916387 0.0647322 0.686312 
0.0918988 0.0650621 0.679641 0.091483 0.0653243 0.67209 0.0903753 0.0655011 0.663669 
0.0886142 0.065578 0.654406 0.0862831 0.0655427 0.644344 0.0834947 0.065384 0.633546 
0.0803733 0.0650905 0.622086 0.0770365 0.0646497 0.610049 0.0735789 0.0640487 0.597528 
0.0700599 0.0632742 0.584614 0.0664975 0.0623145 0.571395 0.0628676 0.0611614 0.557951 
0.0591104 0.0598131 0.544347 0.0551413 0.0582758 0.530633 0.0508655 0.0565663 0.516842 
0.0461935 0.0547123 0.502988 0.0410563 0.0527526 0.489071 0.0354166 0.0507354 0.475076 
0.0292761 0.0487158 0.460977 0.0226766 0.0467517 0.446743 0.0156958 0.0448996 0.432337 
0.0084377 0.0432107 0.417725 0.00101952 0.0417261 0.402875 -0.00644313 0.0404746 0.387757 
-0.0138506 0.0394709 0.372348 -0.0211311 0.0387157 0.356628 -0.0282478 0.0381975 0.340577 
-0.0352008 0.0378957 0.324176 -0.0420235 0.0377853 0.307403 -0.0487725 0.0378407 0.290233 
-0.0555144 0.0380409 0.272633 -0.0623091 0.038373 0.254568 -0.0691938 0.0388341 0.235999 
-0.0761682 0.0394325 0.216884 -0.0831846 0.0401858 0.197186 -0.0901433 0.0411181 0.176878 
-0.0968944 0.0422558 0.155942 -0.103246 0.0436225 0.13438 -0.10898 0.0452335 0.112215 
-0.113868 0.0470917 0.0894893 -0.117695 0.0491847 0.0662718 -0.120277 0.051483 0.0426496 
-0.121482 0.0539413 0.0187268 -0.121238 0.0565009 -0.00538187 -0.119546 0.0590949 -0.029558 
-0.116473 0.0616535 -0.0536868 -0.112151 0.0641101 -0.0776646 -0.106758 0.0664076 -0.101405 
-0.100507 0.0685021 -0.124842 -0.0936184 0.0703663 -0.147936 -0.0863045 0.0719899 -0.170669 
-0.0787501 0.0733774 -0.193044 -0.0710989 0.0745446 -0.215081 -0.0634446 0.075513 -0.236812 
-0.0558292 0.0763032 -0.258269 -0.0482471 0.0769287 -0.27948 -0.0406546 0.0773909 -0.300462 
-0.0329839 0.0776749 -0.321217 -0.0251591 0.0777482 -0.341725 -0.0171125 0.0775626 -0.361948 
-0.00879935 0.0770572 -0.381825 -0.000209196 0.0761649 -0.401285 0.00862721 0.0748195 -0.420244 
0.0176363 0.072964 -0.438615 0.0267054 0.0705579 -0.456318 0.0356908 0.0675838 -0.473279 
0.0444293 0.0640511 -0.489443 0.0527528 0.0599978 -0.504775 0.0605019 0.0554889 -0.519259 
0.0675397 0.0506121 -0.5329 0.0737627 0.0454717 -0.545725 0.0791083 0.0401806 -0.55777 
0.083558 0.0348517 -0.569087 0.0871373 0.0295905 -0.579726 0.0899109 0.0244878 -0.589738 
0.0919749 0.0196153 -0.599169 0.093447 0.0150236 -0.608054 0.0944559 0.0107423 -0.616414 
0.0951301 0.00678277 -0.62426 0.0955881 0.00314232 -0.63159 0.0959307 -0.000189961 -0.638392 
0.0962354 -0.00322772 -0.644645 0.0965538 -0.00598212 -0.650324 0.0969115 -0.00845799 -0.655402 
0.0973108 -0.0106516 -0.659853 0.0977352 -0.0125507 -0.663654 0.0981548 -0.0141355 -0.666783 
0.0985336 -0.0153823 -0.669227 0.0988351 -0.0162669 -0.670973 0.099029 -0.0167687 -0.672015 
0.0990949 -0.0168743 -0.67235 
LINES 2 100
OFFSETS vtktypeint64
0 100 
CONNECTIVITY vtktypeint64
0 1 2 3 4 5 6 7 8 
9 10 11 12 13 14 15 16 17 
18 19 20 21 22 23 24 25 26 
27 28 29 30 31 32 33 34 35 
36 37 38 39 40 41 42 43 44 
45 46 47 48 49 50 51 52 53 
54 55 56 57 58 59 60 61 62 
63 64 65 66 67 68 69 70 71 
72 73 74 75 76 77 78 79 80 
81 82 83 84 85 86 87 88 89 
90 91 92 93 94 95 96 97 98 
99 
POINT_DATA 100
FIELD FieldData 3
_theta 1 100 double
0 0.031733259127 0.063466518254 0.095199777382 0.12693303651 0.15866629564 0.19039955476 0.22213281389 0.25386607302 
0.28559933214 0.31733259127 0.3490658504 0.38079910953 0.41253236865 0.44426562778 0.47599888691 0.50773214603 0.53946540516 
0.57119866429 0.60293192342 0.63466518254 0.66639844167 0.6981317008 0.72986495992 0.76159821905 0.79333147818 0.82506473731 
0.85679799643 0.88853125556 0.92026451469 0.95199777382 0.98373103294 1.0154642921 1.0471975512 1.0789308103 1.1106640695 
1.1423973286 1.1741305877 1.2058638468 1.237597106 1.2693303651 1.3010636242 1.3327968833 1.3645301425 1.3962634016 
1.4279966607 1.4597299198 1.491463179 1.5231964381 1.5549296972 1.5866629564 1.6183962155 1.6501294746 1.6818627337 
1.7135959929 1.745329252 1.7770625111 1.8087957702 1.8405290294 1.8722622885 1.9039955476 1.9357288068 1.9674620659 
1.999195325 2.0309285841 2.0626618433 2.0943951024 2.1261283615 2.1578616206 2.1895948798 2.2213281389 2.253061398 
2.2847946572 2.3165279163 2.3482611754 2.3799944345 2.4117276937 2.4434609528 2.4751942119 2.506927471 2.5386607302 
2.5703939893 2.6021272484 2.6338605076 2.6655937667 2.6973270258 2.7290602849 2.7607935441 2.7925268032 2.8242600623 
2.8559933214 2.8877265806 2.9194598397 2.9511930988 2.982926358 3.0146596171 3.0463928762 3.0781261353 3.1098593945 
3.1415926536 
_radius 1 100 double
3.427560745e-16 0.014774941656 0.029389250784 0.043700237288 0.05758529656 0.070947010006 0.08371465102 0.095843101746 0.10731061649 
0.1181164877 0.12827885034 0.13783219713 0.14682404889 0.15531057788 0.16335145467 0.17100443746 0.17832018604 0.1853376836 
0.19208071062 0.19855598657 0.20475359269 0.21064990409 0.21621259415 0.22140667536 0.22620031566 0.23056938074 0.23450012362 
0.23798991381 0.24104619419 0.24368396196 0.2459221056 0.24777899556 0.24926782761 0.25039229374 0.25114317521 0.25149644391 
0.25141344826 0.25084371318 0.24973070718 0.24802054551 0.24567302209 0.24267372218 0.23904543926 0.23485683167 0.23022626584 
0.22531914018 0.22033775538 0.21550409633 0.21103765497 0.20713218756 0.20393621096 0.20154132715 0.19998007212 0.19923177179 
0.19923224949 0.1998825396 0.20105380583 0.20258979788 0.20431164989 0.20602934365 0.20755982329 0.20874757673 0.20948253415 
0.20971163217 0.20944234642 0.20873805822 0.20770634382 0.20648220796 0.20520879458 0.20401811717 0.20301396128 0.20225854443 
0.20176397313 0.2014890896 0.20134189063 0.20118722425 0.2008589016 0.20017480115 0.19895314258 0.19702798621 0.19426221145 
0.19055669095 0.18585498641 0.18014350366 0.17344754958 0.16582408508 0.1573521797 0.14812229524 0.13822560539 0.12774461527 
0.11674633739 0.1052791155 0.093373757731 0.081048909733 0.068319677665 0.05520765565 0.041750024467 0.028005477546 0.014055419326 
8.6199270817e-16 
_area 1 100 double
0 0.00061140953582 0.002413209155 0.0053135448341 0.0091755769836 0.013836306478 0.019124688656 0.024875647574 0.030939180596 
0.037185663629 0.043509058023 0.049829345224 0.056094775991 0.062283550357 0.06840334509 0.074486270171 0.080577450353 0.086718164649 
0.092928609713 0.099198272384 0.10549023991 0.11175871551 0.11797031618 0.12411554736 0.13020165751 0.13623010527 0.14217147608 
0.1479507674 0.15345054471 0.15853330357 0.16307623241 0.16700299971 0.17029526676 0.17297535437 0.17506697283 0.17655377175 
0.17735636255 0.17733732416 0.17633076755 0.17418627631 0.17081538413 0.16622897339 0.16055591408 0.15403759364 0.14699907133 
0.13980372739 0.13280249308 0.12628970169 0.12047510617 0.11547614528 0.11132790377 0.10800554208 0.10546061421 0.10368788507 
0.10267361691 0.10223652579 0.10217703128 0.10239501521 0.10281888027 0.10332178441 0.10366699326 0.10357912908 0.10286689489 
0.10147398323 0.099467098754 0.096999722515 0.094270571036 0.091487401173 0.088842979827 0.0865036673 0.084610917066 0.083311454191 
0.082704740934 0.082866163921 0.083679275009 0.084946208134 0.086412267543 0.087783068882 0.08876962372 0.089112719604 0.088600618618 
0.08708333236 0.084482145525 0.080793648368 0.076087683492 0.070498624555 0.064210207805 0.057435703764 0.05039670383 0.043304350561 
0.036346202286 0.029680438332 0.023437331782 0.017726282135 0.012645500351 0.0082907854556 0.0047597426726 0.0021487317295 0.00054248888162 
4.7278829734e-17 
