# vtk DataFile Version 5.1
vtk output
ASCII
DATASET POLYDATA
POINTS 100 float
0.107338 -0.0136983 -0.681577 0.107435 -0.0137308 -0.681384 0.107735 -0.0136999 -0.680784 
0.108164 -0.0135756 -0.679745 0.108611 -0.0133112 -0.678212 0.108939 -0.0128492 -0.676121 
0.108997 -0.0121279 -0.673403 0.108641 -0.0110892 -0.669991 0.107748 -0.00968526 -0.665829 
0.106225 -0.0078847 -0.660874 0.10402 -0.00567636 -0.655104 0.101123 -0.00307094 -0.648518 
0.0975609 -0.000100148 -0.641129 0.0933941 0.00318644 -0.632969 0.0887022 0.00672645 -0.624077 
0.0835732 0.0104509 -0.614494 0.0780917 0.0142907 -0.604261 0.0723283 0.0181833 -0.593408 
0.0663336 0.0220771 -0.581957 0.0601357 0.0259351 -0.569915 0.0537422 0.0297362 -0.557276 
0.0471459 0.0334738 -0.544027 0.0403335 0.0371531 -0.530148 0.0332948 0.0407866 -0.51562 
0.0260319 0.0443888 -0.500428 0.0185662 0.0479706 -0.484565 0.0109417 0.0515343 -0.468036 
0.00322445 0.0550703 -0.45086 -0.00450205 0.0585547 -0.433066 -0.0121453 0.0619498 -0.414692 
-0.0196141 0.0652058 -0.39578 -0.0268299 0.0682645 -0.376372 -0.0337368 0.0710641 -0.356505 
-0.0403087 0.0735448 -0.336207 -0.0465521 0.0756542 -0.315493 -0.0525045 0.0773519 -0.294367 
-0.0582269 0.078613 -0.272821 -0.0637925 0.0794297 -0.25084 -0.0692721 0.0798112 -0.228408 
-0.0747189 0.0797819 -0.205511 -0.0801535 0.0793783 -0.182147 -0.0855524 0.0786442 -0.158326 
-0.0908417 0.0776263 -0.134079 -0.0958966 0.0763697 -0.10946 -0.100547 0.0749135 -0.0845387 
-0.10459 0.0732887 -0.0594061 -0.107808 0.0715166 -0.0341643 -0.109987 0.0696092 -0.00892249 
-0.110938 0.0675713 0.0162103 -0.11052 0.0654029 0.0411314 -0.108647 0.0631036 0.0657501 
-0.105307 0.0606766 0.0899913 -0.100558 0.0581318 0.113797 -0.0945247 0.0554898 0.137128 
-0.0873869 0.0527832 0.159956 -0.079364 0.0500572 0.182265 -0.0706937 0.0473692 0.204048 
-0.0616118 0.0447859 0.225294 -0.0523328 0.0423805 0.245994 -0.0430344 0.0402282 0.266134 
-0.0338476 0.0384015 0.285693 -0.0248527 0.036966 0.304648 -0.0160816 0.035976 0.322978 
-0.00752586 0.0354708 0.340664 0.000850953 0.0354729 0.357697 0.00909899 0.0359859 0.374084 
0.0172673 0.0369945 0.389851 0.0253908 0.0384655 0.405042 0.0334811 0.0403492 0.419723 
0.0415208 0.042582 0.433975 0.0494641 0.0450891 0.447891 0.057241 0.047788 0.461567 
0.0647656 0.0505916 0.475094 0.0719466 0.0534117 0.488548 0.0786987 0.0561623 0.50198 
0.0849526 0.0587622 0.515413 0.0906628 0.061138 0.528836 0.0958117 0.0632265 0.5422 
0.10041 0.0649761 0.555423 0.104494 0.0663488 0.568397 0.108116 0.0673211 0.580991 
0.111339 0.0678843 0.593063 0.114227 0.0680443 0.604472 0.116835 0.0678211 0.615088 
0.119203 0.0672473 0.624799 0.121353 0.0663659 0.633522 0.123291 0.0652289 0.641206 
0.125006 0.0638936 0.647835 0.12648 0.0624204 0.65343 0.12769 0.0608703 0.658041 
0.128623 0.059302 0.661746 0.129274 0.0577698 0.664643 0.129658 0.0563224 0.666843 
0.129806 0.0550018 0.668461 0.129765 0.0538425 0.669614 0.129597 0.0528722 0.670406 
0.129367 0.0521116 0.670932 0.129138 0.0515759 0.671268 0.128961 0.051275 0.671469 
0.128872 0.0512142 0.671569 
LINES 2 100
OFFSETS vtktypeint64
0 100 
CONNECTIVITY vtktypeint64
0 1 2 3 4 5 6 7 8 
9 10 11 12 13 14 15 16 17 
18 19 20 21 22 23 24 25 26 
27 28 29 30 31 32 33 34 35 
36 37 38 39 40 41 42 43 44 
45 46 47 48 49 50 51 52 53 
54 55 56 57 58 59 60 61 62 
63 64 65 66 67 68 69 70 71 
72 73 74 75 76 77 78 79 80 
81 82 83 84 85 86 87 88 89 
90 91 92 93 94 95 96 97 98 
99 
POINT_DATA 100
FIELD FieldData 3
_theta 1 100 double
0 0.031733259127 0.063466518254 0.095199777382 0.12693303651 0.15866629564 0.19039955476 0.22213281389 0.25386607302 
0.28559933214 0.31733259127 0.3490658504 0.38079910953 0.41253236865 0.44426562778 0.47599888691 0.50773214603 0.53946540516 
0.57119866429 0.60293192342 0.63466518254 0.66639844167 0.6981317008 0.72986495992 0.76159821905 0.79333147818 0.82506473731 
0.85679799643 0.88853125556 0.92026451469 0.95199777382 0.98373103294 1.0154642921 1.0471975512 1.0789308103 1.1106640695 
1.1423973286 1.1741305877 1.2058638468 1.237597106 1.2693303651 1.3010636242 1.3327968833 1.3645301425 1.3962634016 
1.4279966607 1.4597299198 1.491463179 1.5231964381 1.5549296972 1.5866629564 1.6183962155 1.6501294746 1.6818627337 
1.7135959929 1.745329252 1.7770625111 1.8087957702 1.8405290294 1.8722622885 1.9039955476 1.9357288068 1.9674620659 
1.999195325 2.0309285841 2.0626618433 2.0943951024 2.1261283615 2.1578616206 2.1895948798 2.2213281389 2.253061398 
2.2847946572 2.3165279163 2.3482611754 2.3799944345 2.4117276937 2.4434609528 2.4751942119 2.506927471 2.5386607302 
2.5703939893 2.6021272484 2.6338605076 2.6655937667 2.6973270258 2.7290602849 2.7607935441 2.7925268032 2.8242600623 
2.8559933214 2.8877265806 2.9194598397 2.9511930988 2.982926358 3.0146596171 3.0463928762 3.0781261353 3.1098593945 
3.1415926536 
_radius 1 100 double
7.8167340489e-16 0.013601077521 0.027179722442 0.040705545122 0.054133942968 0.067400584531 0.080417851786 0.093073915572 0.10523507778 
0.11675180249 0.1274684005 0.13723567403 0.14592513671 0.1534429035 0.15974115146 0.16482524514 0.16875517462 0.17164078589 
0.17363126891 0.17490034986 0.17562941183 0.17599113858 0.17613609547 0.17618393034 0.17621976121 0.17629513378 0.17643208265 
0.17662863703 0.17686458471 0.1771070572 0.17731599977 0.17744957626 0.1774691789 0.17734336828 0.17705012025 0.17657729692 
0.17592204119 0.17509036009 0.17409810324 0.1729737462 0.17176213963 0.17052722713 0.16935122129 0.16832829941 0.16755283508 
0.16710526587 0.16704127114 0.16738932729 0.16815718553 0.16934264706 0.17094225417 0.17295368778 0.17537135016 0.17817754553 
0.18133295622 0.18476989089 0.18839064653 0.19207182157 0.19567386053 0.19905385631 0.2020791014 0.20463916684 0.20665505062 
0.20808472437 0.20892497105 0.20920970739 0.20900509063 0.20840172412 0.20750433425 0.20641950786 0.20524249979 0.20404465902 
0.20286345235 0.20169707254 0.20050494996 0.19921417055 0.19773026475 0.1959497212 0.19377137161 0.19110451704 0.18787296494 
0.18401551992 0.17948443002 0.17424348312 0.168266858 0.16153889947 0.15405429928 0.14581801058 0.13684447732 0.12715615914 
0.11678169741 0.10575431401 0.094111097199 0.081893645362 0.069150101471 0.055938040755 0.042327221248 0.028401103191 0.014256340251 
1.2370427153e-15 
_area 1 100 double
0 0.00036740696523 0.0014846273412 0.003391805403 0.0061403161572 0.009771822325 0.01429381775 0.019656462244 0.025736007116 
0.03232936041 0.039162441265 0.045912393476 0.052240975754 0.057834002635 0.062440109455 0.065901870292 0.068173658325 0.069323345681 
0.069518172615 0.068997713191 0.068037689114 0.066906895696 0.065821064431 0.064914313197 0.06424971103 0.06384804054 0.06370819549 
0.063817349083 0.064147335603 0.064650975942 0.06540832638 0.066271896426 0.067247735388 0.068296467895 0.069308359144 0.070225249211 
0.070997202575 0.071588952783 0.071983858794 0.072194451013 0.072280837793 0.0723674855 0.072638472889 0.073287040086 0.074432787955 
0.076077826085 0.078119924724 0.080383855779 0.082680290763 0.084884239989 0.086978352156 0.089047894826 0.091243741103 0.093725211208 
0.096602488484 0.099899458953 0.10354421496 0.10738250102 0.11120579623 0.11478626564 0.11791123439 0.12041066724 0.12217380946 
0.12315403941 0.12336270664 0.12285423666 0.12170741743 0.12001046565 0.11785584644 0.11534329362 0.11258304819 0.10969231104 
0.10678330533 0.10394592522 0.1012305073 0.098637317373 0.096117626012 0.093585346509 0.09093252083 0.088043921951 0.084811745959 
0.081149749547 0.077002810966 0.072350976843 0.067210260659 0.061631798199 0.055699280256 0.049523965393 0.04323695526 0.036979199622 
0.030890513733 0.025099575509 0.019717268612 0.014835394402 0.010531022657 0.0068738090831 0.0039315039722 0.0017697838137 0.00044601818783 
2.9517377728e-17 
