# vtk DataFile Version 5.1
vtk output
ASCII
DATASET POLYDATA
POINTS 100 float
0.151573 0.0440941 0.694118 0.151446 0.0441998 0.69394 0.151115 0.0443998 0.693221 
0.150566 0.0446941 0.691936 0.149775 0.0450818 0.69005 0.148715 0.0455605 0.687523 
0.147359 0.0461259 0.684315 0.145684 0.0467708 0.680396 0.143677 0.0474844 0.67575 
0.141335 0.0482518 0.670378 0.138665 0.0490538 0.6643 0.135686 0.0498665 0.657555 
0.132425 0.0506619 0.650195 0.128911 0.0514084 0.642283 0.125174 0.0520717 0.63388 
0.121238 0.0526162 0.625044 0.117115 0.053007 0.615819 0.112808 0.053211 0.606232 
0.108301 0.0531992 0.596294 0.10357 0.0529486 0.585997 0.0985753 0.0524437 0.575319 
0.0932745 0.0516777 0.564228 0.0876229 0.0506535 0.552695 0.0815806 0.0493847 0.540692 
0.0751182 0.0478949 0.528207 0.0682207 0.0462175 0.515245 0.0608907 0.0443949 0.501829 
0.0531483 0.0424771 0.488002 0.0450311 0.0405201 0.473822 0.03659 0.0385839 0.45935 
0.0278855 0.0367308 0.444651 0.0189831 0.0350232 0.429776 0.00994781 0.0335217 0.414757 
0.000840548 0.0322833 0.399601 -0.00828427 0.0313591 0.384281 -0.0173796 0.0307928 0.368741 
-0.0264048 0.0306191 0.352896 -0.0353222 0.0308622 0.33664 -0.0440938 0.0315342 0.319853 
-0.0526766 0.0326344 0.302415 -0.0610182 0.0341486 0.284217 -0.0690541 0.036049 0.265173 
-0.0767063 0.0382947 0.245227 -0.0838847 0.040833 0.224362 -0.0904904 0.0436017 0.202598 
-0.0964216 0.0465318 0.179995 -0.101581 0.049551 0.156646 -0.105883 0.0525878 0.132671 
-0.109264 0.055576 0.108202 -0.111688 0.0584588 0.0833811 -0.113152 0.0611922 0.0583437 
-0.113687 0.0637483 0.0332143 -0.113357 0.066116 0.00809958 -0.112255 0.0683011 -0.0169141 
-0.110495 0.0703247 -0.0417613 -0.108203 0.072219 -0.0663945 -0.105503 0.0740225 -0.090781 
-0.10251 0.0757735 -0.114897 -0.0993179 0.0775039 -0.138723 -0.0959927 0.0792321 -0.16224 
-0.0925701 0.0809578 -0.185425 -0.0890546 0.082658 -0.208253 -0.0854238 0.0842853 -0.230693 
-0.081636 0.0857686 -0.252712 -0.0776405 0.0870176 -0.274281 -0.0733891 0.0879281 -0.295372 
-0.0688476 0.0883912 -0.315963 -0.0640068 0.0883031 -0.336043 -0.0588894 0.0875749 -0.355606 
-0.0535548 0.0861431 -0.374654 -0.0480988 0.0839766 -0.393193 -0.0426485 0.0810826 -0.41123 
-0.0373545 0.0775083 -0.428768 -0.0323781 0.073339 -0.445805 -0.027878 0.0686922 -0.46233 
-0.0239952 0.0637085 -0.478323 -0.020839 0.0585402 -0.493756 -0.0184759 0.0533379 -0.508598 
-0.0169209 0.0482372 -0.522817 -0.0161343 0.043347 -0.536389 -0.0160229 0.03874 -0.549299 
-0.0164455 0.0344473 -0.561549 -0.0172242 0.0304568 -0.573161 -0.0181575 0.0267174 -0.584173 
-0.019037 0.0231464 -0.594641 -0.0196642 0.0196413 -0.60463 -0.0198668 0.0160941 -0.614209 
-0.019513 0.0124062 -0.623439 -0.0185227 0.00850319 -0.632365 -0.0168738 0.00434684 -0.641004 
-0.0146046 -5.59033e-05 -0.649342 -0.0118109 -0.00464918 -0.657328 -0.00863832 -0.00932943 -0.664876 
-0.0052707 -0.013952 -0.671865 -0.00191591 -0.0183422 -0.678153 0.00121082 -0.0223103 -0.683584 
0.00390371 -0.0256681 -0.688005 0.00598261 -0.0282466 -0.691276 0.00730711 -0.0299109 -0.693286 
0.00778748 -0.0305739 -0.693964 
LINES 2 100
OFFSETS vtktypeint64
0 100 
CONNECTIVITY vtktypeint64
0 1 2 3 4 5 6 7 8 
9 10 11 12 13 14 15 16 17 
18 19 20 21 22 23 24 25 26 
27 28 29 30 31 32 33 34 35 
36 37 38 39 40 41 42 43 44 
45 46 47 48 49 50 51 52 53 
54 55 56 57 58 59 60 61 62 
63 64 65 66 67 68 69 70 71 
72 73 74 75 76 77 78 79 80 
81 82 83 84 85 86 87 88 89 
90 91 92 93 94 95 96 97 98 
99 
POINT_DATA 100
FIELD FieldData 3
_theta 1 100 double
0 0.031733259127 0.063466518254 0.095199777382 0.12693303651 0.15866629564 0.19039955476 0.22213281389 0.25386607302 
0.28559933214 0.31733259127 0.3490658504 0.38079910953 0.41253236865 0.44426562778 0.47599888691 0.50773214603 0.53946540516 
0.57119866429 0.60293192342 0.63466518254 0.66639844167 0.6981317008 0.72986495992 0.76159821905 0.79333147818 0.82506473731 
0.85679799643 0.88853125556 0.92026451469 0.95199777382 0.98373103294 1.0154642921 1.0471975512 1.0789308103 1.1106640695 
1.1423973286 1.1741305877 1.2058638468 1.237597106 1.2693303651 1.3010636242 1.3327968833 1.3645301425 1.3962634016 
1.4279966607 1.4597299198 1.491463179 1.5231964381 1.5549296972 1.5866629564 1.6183962155 1.6501294746 1.6818627337 
1.7135959929 1.745329252 1.7770625111 1.8087957702 1.8405290294 1.8722622885 1.9039955476 1.9357288068 1.9674620659 
1.999195325 2.0309285841 2.0626618433 2.0943951024 2.1261283615 2.1578616206 2.1895948798 2.2213281389 2.253061398 
2.2847946572 2.3165279163 2.3482611754 2.3799944345 2.4117276937 2.4434609528 2.4751942119 2.506927471 2.5386607302 
2.5703939893 2.6021272484 2.6338605076 2.6655937667 2.6973270258 2.7290602849 2.7607935441 2.7925268032 2.8242600623 
2.8559933214 2.8877265806 2.9194598397 2.9511930988 2.982926358 3.0146596171 3.0463928762 3.0781261353 3.1098593945 
3.1415926536 
_radius 1 100 double
1.1762806724e-15 0.013837803463 0.027577083136 0.041127524234 0.05441949486 0.067409230727 0.080079007054 0.092432463385 0.10448625998 
0.11625994041 0.12776608288 0.13900250812 0.14994760512 0.16055899932 0.17077512038 0.18051892336 0.18970307849 0.19823619508 
0.20602985261 0.21300621945 0.2191058324 0.22429479812 0.22857042336 0.23196422022 0.23454142016 0.23639653445 0.23764503677 
0.2384118355 0.23881779882 0.23896614757 0.23893091998 0.23874971185 0.23842227756 0.23791534951 0.23717259229 0.23612755858 
0.23471725432 0.23289436228 0.23063688102 0.22795448772 0.22489119182 0.22152396631 0.2179572962 0.21431412233 0.21072438589 
0.20731299758 0.20418925829 0.20143942518 0.19912335162 0.19727514526 0.19590680558 0.1950130795 0.19457561631 0.19456509732 
0.19494120396 0.19565154189 0.19663130049 0.19780509693 0.19909131392 0.20040797781 0.2016785209 0.20283587275 0.20382406331 
0.20459755203 0.20511939291 0.2053596862 0.20529536115 0.20491136642 0.20420231372 0.20317307875 0.20183714349 0.20021249214 
0.19831618495 0.19615965711 0.19374669815 0.19107471651 0.1881377922 0.18492844645 0.1814353247 0.17763637364 0.17349037012 
0.16893173917 0.16387299342 0.1582161562 0.15187099604 0.14477549778 0.13691323705 0.12832285156 0.11909622722 0.10936429198 
0.09927245209 0.088951235435 0.078490256977 0.067923374427 0.057229170827 0.046345769997 0.035196970892 0.023729895953 0.011960591658 
8.0400264609e-16 
_area 1 100 double
0 0.00052892085654 0.0020937958375 0.004632462556 0.0080524538093 0.01224583314 0.017106157525 0.022543688686 0.028494347472 
0.034919014553 0.041793460415 0.049093658489 0.056782820808 0.064804125399 0.073079437525 0.081511962128 0.089990208574 0.098391341977 
0.10658331917 0.11442667996 0.12177809103 0.12849829294 0.1344664378 0.13960051798 0.143879962 0.14736280263 0.1501881011 
0.15255669762 0.15469072957 0.15678123154 0.15893733383 0.16115084067 0.16329015749 0.16512969332 0.16640318431 0.16686055968 
0.16631410661 0.16466820825 0.16193129204 0.15821066002 0.1536925498 0.14861161005 0.14321603392 0.13773623422 0.1323645445 
0.12724957167 0.12250218859 0.118204391 0.11441180099 0.11114726061 0.1083941071 0.10610251397 0.10420940185 0.1026561923 
0.10139199938 0.10036503886 0.099514430939 0.098773636155 0.098088290299 0.097439511271 0.096848420318 0.096336699951 0.095883098983 
0.095427479039 0.094885908797 0.094164552221 0.093187059709 0.091928547323 0.090440437142 0.088854700204 0.087356971919 0.086117859043 
0.085205928498 0.084567101434 0.084087899035 0.083655013668 0.083172774037 0.08255717007 0.081725012266 0.08058438507 0.079028734606 
0.076940855907 0.074211678494 0.070766071058 0.066579697651 0.0616797718 0.05613643346 0.050056491426 0.043585612639 0.036913761343 
0.030271652485 0.023910715907 0.018071085184 0.012950353212 0.0086830704323 0.0053305319499 0.0028763476237 0.0012365347277 0.00030306911306 
1.3552527156e-19 
