# vtk DataFile Version 5.1
vtk output
ASCII
DATASET POLYDATA
POINTS 100 float
0.124269 0.0378943 0.646236 0.124489 0.0380776 0.645966 0.125185 0.0384737 0.645027 
0.12628 0.0390586 0.643424 0.127656 0.0397953 0.64117 0.129159 0.0406374 0.638277 
0.130616 0.041534 0.634755 0.131848 0.0424341 0.63061 0.132686 0.0432915 0.625841 
0.13298 0.0440685 0.62044 0.132614 0.0447381 0.614393 0.131512 0.0452848 0.607684 
0.129639 0.0457038 0.600299 0.127003 0.0459995 0.592231 0.123649 0.0461817 0.583485 
0.119651 0.0462624 0.574085 0.115103 0.0462526 0.564073 0.110106 0.0461593 0.553512 
0.104758 0.0459836 0.542482 0.0991461 0.0457209 0.531079 0.0933376 0.0453616 0.5194 
0.0873763 0.0448935 0.507544 0.0812816 0.0443055 0.495596 0.0750506 0.0435908 0.483622 
0.0686631 0.042751 0.471663 0.0620881 0.041799 0.459732 0.0552916 0.0407603 0.44781 
0.0482443 0.0396737 0.435852 0.040928 0.0385897 0.423795 0.0333403 0.037567 0.41156 
0.0254969 0.0366684 0.399066 0.0174317 0.0359555 0.386237 0.00919337 0.0354829 0.37301 
0.000841736 0.0352937 0.359342 -0.0075587 0.035415 0.345208 -0.0159445 0.0358561 0.330606 
-0.0242587 0.0366074 0.315545 -0.0324547 0.0376423 0.300048 -0.0404981 0.0389203 0.284133 
-0.0483655 0.0403918 0.267817 -0.0560421 0.0420037 0.251098 -0.0635157 0.0437051 0.23396 
-0.0707707 0.0454526 0.216366 -0.077781 0.0472145 0.198263 -0.0845037 0.0489734 0.179591 
-0.0908746 0.0507267 0.160287 -0.0968067 0.0524857 0.140298 -0.102191 0.0542721 0.119595 
-0.106903 0.0561139 0.0981772 -0.110808 0.0580399 0.0760826 -0.113773 0.0600743 0.0533894 
-0.115681 0.0622316 0.0302143 -0.116439 0.0645126 0.00670601 -0.115993 0.066902 -0.016965 
-0.114332 0.0693677 -0.04062 -0.111499 0.0718615 -0.0640873 -0.107584 0.074322 -0.0872161 
-0.102724 0.0766787 -0.109889 -0.0970902 0.0788566 -0.13203 -0.0908774 0.0807815 -0.153611 
-0.0842866 0.082385 -0.174644 -0.0775079 0.0836083 -0.195183 -0.0707048 0.0844059 -0.215305 
-0.0639997 0.0847468 -0.235101 -0.0574646 0.0846153 -0.254659 -0.0511162 0.0840099 -0.274051 
-0.0449172 0.0829418 -0.29332 -0.0387823 0.0814317 -0.312471 -0.0325908 0.0795077 -0.331472 
-0.0262015 0.0772018 -0.350251 -0.0194707 0.0745476 -0.368709 -0.0122705 0.0715782 -0.386725 
-0.00450488 0.0683252 -0.404173 0.00387649 0.0648177 -0.420936 0.0128701 0.0610826 -0.436916 
0.0224157 0.0571451 -0.452046 0.0323985 0.0530293 -0.466295 0.0426582 0.0487589 -0.479668 
0.0530011 0.0443584 -0.492206 0.0632163 0.0398534 -0.503974 0.0730923 0.0352706 -0.515054 
0.0824338 0.0306382 -0.525532 0.0910763 0.0259857 -0.535485 0.0988969 0.021343 -0.544974 
0.10582 0.0167408 -0.554036 0.111821 0.0122097 -0.562678 0.11692 0.00778029 -0.570884 
0.121175 0.00348327 -0.578615 0.124676 -0.000650592 -0.585817 0.127526 -0.00459016 -0.592433 
0.129836 -0.00830371 -0.598407 0.13171 -0.0117589 -0.603698 0.133239 -0.014923 -0.608282 
0.134495 -0.017763 -0.612157 0.135527 -0.0202468 -0.615338 0.136366 -0.0223439 -0.61786 
0.137026 -0.0240268 -0.619763 0.13751 -0.0252721 -0.621092 0.137814 -0.0260619 -0.621885 
0.137934 -0.0263847 -0.622166 
LINES 2 100
OFFSETS vtktypeint64
0 100 
CONNECTIVITY vtktypeint64
0 1 2 3 4 5 6 7 8 
9 10 11 12 13 14 15 16 17 
18 19 20 21 22 23 24 25 26 
27 28 29 30 31 32 33 34 35 
36 37 38 39 40 41 42 43 44 
45 46 47 48 49 50 51 52 53 
54 55 56 57 58 59 60 61 62 
63 64 65 66 67 68 69 70 71 
72 73 74 75 76 77 78 79 80 
81 82 83 84 85 86 87 88 89 
90 91 92 93 94 95 96 97 98 
99 
POINT_DATA 100
FIELD FieldData 3
_theta 1 100 double
0 0.031733259127 0.063466518254 0.095199777382 0.12693303651 0.15866629564 0.19039955476 0.22213281389 0.25386607302 
0.28559933214 0.31733259127 0.3490658504 0.38079910953 0.41253236865 0.44426562778 0.47599888691 0.50773214603 0.53946540516 
0.57119866429 0.60293192342 0.63466518254 0.66639844167 0.6981317008 0.72986495992 0.76159821905 0.79333147818 0.82506473731 
0.85679799643 0.88853125556 0.92026451469 0.95199777382 0.98373103294 1.0154642921 1.0471975512 1.0789308103 1.1106640695 
1.1423973286 1.1741305877 1.2058638468 1.237597106 1.2693303651 1.3010636242 1.3327968833 1.3645301425 1.3962634016 
1.4279966607 1.4597299198 1.491463179 1.5231964381 1.5549296972 1.5866629564 1.6183962155 1.6501294746 1.6818627337 
1.7135959929 1.745329252 1.7770625111 1.8087957702 1.8405290294 1.8722622885 1.9039955476 1.9357288068 1.9674620659 
1.999195325 2.0309285841 2.0626618433 2.0943951024 2.1261283615 2.1578616206 2.1895948798 2.2213281389 2.253061398 
2.2847946572 2.3165279163 2.3482611754 2.3799944345 2.4117276937 2.4434609528 2.4751942119 2.506927471 2.5386607302 
2.5703939893 2.6021272484 2.6338605076 2.6655937667 2.6973270258 2.7290602849 2.7607935441 2.7925268032 2.8242600623 
2.8559933214 2.8877265806 2.9194598397 2.9511930988 2.982926358 3.0146596171 3.0463928762 3.0781261353 3.1098593945 
3.1415926536 
_radius 1 100 double
8.9565505083e-16 0.014512471739 0.028900777507 0.043042795018 0.056829098381 0.07016695634 0.082982022636 0.095218047818 0.10683542469 
0.11780958604 0.12813014672 0.13780123401 0.14684275929 0.15529164541 0.16320156402 0.17063986978 0.17768120213 0.1843983749 
0.19085222008 0.19708259185 0.20310259857 0.20889738112 0.21442764676 0.21963704709 0.22446170776 0.22883999675 0.23272094109 
0.23607031707 0.23887401376 0.24113862472 0.24288940907 0.24416592122 0.245015794 0.24548734654 0.2456218597 0.2454465204 
0.24496914658 0.24417578555 0.24303204954 0.2414885888 0.23949044835 0.23698931379 0.23395697048 0.23039784058 0.22635836876 
0.22193138322 0.21725433887 0.21250139315 0.20787030532 0.20356591001 0.19978223796 0.19668525577 0.19439782471 0.19298802086 
0.1924615579 0.19275877684 0.19375653782 0.19527536038 0.19709216583 0.19895860869 0.20062394422 0.20185997256 0.20248464741 
0.20238097063 0.20150864256 0.19990711532 0.19768986575 0.19503074247 0.19214411424 0.18926122327 0.18660553977 0.18436987372 
0.18269744348 0.18166822119 0.18129110043 0.18150203359 0.18216809998 0.1830971517 0.18405214554 0.18476872681 0.1849744052 
0.18440785504 0.18283717414 0.1800758861 0.17599508335 0.17053000125 0.16367998853 0.15550208307 0.14609958435 0.13560768797 
0.12417835137 0.11196628694 0.099117571417 0.085761927484 0.072009203122 0.057949856429 0.043658449495 0.029198574471 0.014627581147 
2.3017460885e-16 
_area 1 100 double
0 0.00054157793488 0.0021412545006 0.0047283053144 0.008198477932 0.012430448588 0.017301745143 0.022699016875 0.028519097729 
0.034661217073 0.041016022039 0.047460180533 0.053862831868 0.060103596089 0.066096198464 0.071809782734 0.077280918377 0.082611308413 
0.087948566003 0.093451265457 0.099245990035 0.10539051237 0.11185663486 0.11853674773 0.12526793166 0.13186351195 0.13814301438 
0.14395425397 0.14918508992 0.1537662237 0.15766808171 0.16089392177 0.16347021917 0.16543552012 0.16682911169 0.16768027891 
0.16799866356 0.16776734055 0.16694178587 0.16545742078 0.16324515527 0.16025117573 0.15645629423 0.15189089917 0.14664308591 
0.14085912885 0.13473636367 0.12850911358 0.12242887066 0.11674040272 0.11165655656 0.1073366811 0.10387436102 0.10129662816 
0.099571335084 0.098617595571 0.09831604981 0.098515645806 0.099029958138 0.09962342197 0.10001636615 0.099921867678 0.099175571596 
0.097729247703 0.095637619972 0.09325482882 0.090694017804 0.088097531676 0.085637034523 0.083466413666 0.081704441544 0.080429387262 
0.079681165312 0.079463126132 0.079738761166 0.080424837716 0.081386207211 0.082438063065 0.083359448029 0.08391618551 0.083880942926 
0.083035623705 0.081179217312 0.078179414718 0.074023264037 0.068821621972 0.062782956598 0.056175297023 0.049283691013 0.042368610683 
0.03563382405 0.029215387421 0.023198648089 0.017653230921 0.012663148289 0.0083368639179 0.0047983692238 0.0021687844203 0.00054777120121 
4.3368086899e-18 
