# vtk DataFile Version 5.1
vtk output
ASCII
DATASET POLYDATA
POINTS 100 float
0.132315 0.0397628 0.681575 0.132182 0.0399959 0.681338 0.131837 0.0405611 0.680494 
0.13127 0.0414266 0.679052 0.130468 0.0425426 0.677029 0.129417 0.0438452 0.67444 
0.128106 0.0452627 0.671298 0.126536 0.0467208 0.667609 0.124714 0.0481492 0.66337 
0.122662 0.0494862 0.658564 0.120409 0.0506826 0.653165 0.117992 0.0517034 0.647138 
0.115447 0.0525284 0.640444 0.112804 0.0531505 0.633049 0.110081 0.0535728 0.624925 
0.107278 0.0538049 0.616063 0.104371 0.0538587 0.606474 0.101317 0.0537448 0.596191 
0.0980499 0.0534698 0.585271 0.0944913 0.0530344 0.573795 0.0905557 0.0524338 0.561855 
0.0861619 0.0516594 0.549554 0.0812419 0.0507024 0.536992 0.0757507 0.0495573 0.524257 
0.0696721 0.0482273 0.511419 0.0630224 0.0467283 0.498521 0.0558494 0.0450925 0.485576 
0.0482275 0.0433705 0.472564 0.0402497 0.0416308 0.459439 0.0320165 0.0399574 0.446126 
0.0236249 0.0384456 0.432538 0.0151575 0.0371949 0.418579 0.0066736 0.0363015 0.404153 
-0.00179482 0.0358495 0.389175 -0.0102437 0.0359029 0.373576 -0.0186922 0.0364987 0.357308 
-0.0271736 0.037642 0.340343 -0.0357232 0.0393035 0.322674 -0.0443642 0.0414211 0.304312 
-0.0530946 0.0439031 0.28528 -0.0618751 0.0466358 0.265605 -0.070623 0.0494924 0.245317 
-0.0792091 0.0523437 0.224444 -0.0874634 0.0550694 0.203007 -0.0951842 0.0575679 0.181022 
-0.102154 0.0597658 0.158502 -0.108159 0.0616231 0.13546 -0.113007 0.0631364 0.111914 
-0.116549 0.0643381 0.0878914 -0.118692 0.0652915 0.0634328 -0.119414 0.066084 0.0385958 
-0.118759 0.0668167 0.0134548 -0.116842 0.0675936 -0.0119 -0.113834 0.0685098 -0.0373669 
-0.109942 0.0696412 -0.0628385 -0.105396 0.0710355 -0.0882077 -0.100418 0.072707 -0.113376 
-0.0952059 0.0746336 -0.138258 -0.0899163 0.0767582 -0.16279 -0.0846488 0.0789929 -0.186927 
-0.0794429 0.0812264 -0.210647 -0.0742796 0.0833336 -0.233949 -0.0690905 0.0851859 -0.256843 
-0.0637725 0.0866619 -0.27935 -0.0582069 0.0876565 -0.30149 -0.0522791 0.0880894 -0.323278 
-0.0458984 0.0879094 -0.344716 -0.0390133 0.087097 -0.365791 -0.0316228 0.0856639 -0.386474 
-0.0237808 0.0836487 -0.40672 -0.0155936 0.0811124 -0.426472 -0.00721242 0.0781305 -0.445666 
0.0011807 0.0747856 -0.464239 0.00938892 0.0711602 -0.482135 0.0172184 0.0673302 -0.499306 
0.0244952 0.0633599 -0.515723 0.0310787 0.0592996 -0.53137 0.0368718 0.0551847 -0.546248 
0.0418252 0.051037 -0.560371 0.0459367 0.0468673 -0.573758 0.049246 0.0426796 -0.58643 
0.0518258 0.0384756 -0.598402 0.0537703 0.0342585 -0.60968 0.055184 0.0300367 -0.620259 
0.0561703 0.0258266 -0.630117 0.0568231 0.0216529 -0.639224 0.0572209 0.017549 -0.647541 
0.0574245 0.0135549 -0.655029 0.0574776 0.00971491 -0.661656 0.0574098 0.0060745 -0.667405 
0.0572414 0.00267711 -0.672275 0.0569883 -0.000438607 -0.676295 0.0566673 -0.00324083 -0.679515 
0.0562986 -0.0057057 -0.68201 0.0559076 -0.00781737 -0.683872 0.0555243 -0.00956712 -0.685204 
0.0551812 -0.0109517 -0.686111 0.0549092 -0.0119712 -0.686685 0.0547345 -0.012627 -0.687003 
0.0546742 -0.0129201 -0.687111 
LINES 2 100
OFFSETS vtktypeint64
0 100 
CONNECTIVITY vtktypeint64
0 1 2 3 4 5 6 7 8 
9 10 11 12 13 14 15 16 17 
18 19 20 21 22 23 24 25 26 
27 28 29 30 31 32 33 34 35 
36 37 38 39 40 41 42 43 44 
45 46 47 48 49 50 51 52 53 
54 55 56 57 58 59 60 61 62 
63 64 65 66 67 68 69 70 71 
72 73 74 75 76 77 78 79 80 
81 82 83 84 85 86 87 88 89 
90 91 92 93 94 95 96 97 98 
99 
POINT_DATA 100
FIELD FieldData 3
_theta 1 100 double
0 0.031733259127 0.063466518254 0.095199777382 0.12693303651 0.15866629564 0.19039955476 0.22213281389 0.25386607302 
0.28559933214 0.31733259127 0.3490658504 0.38079910953 0.41253236865 0.44426562778 0.47599888691 0.50773214603 0.53946540516 
0.57119866429 0.60293192342 0.63466518254 0.66639844167 0.6981317008 0.72986495992 0.76159821905 0.79333147818 0.82506473731 
0.85679799643 0.88853125556 0.92026451469 0.95199777382 0.98373103294 1.0154642921 1.0471975512 1.0789308103 1.1106640695 
1.1423973286 1.1741305877 1.2058638468 1.237597106 1.2693303651 1.3010636242 1.3327968833 1.3645301425 1.3962634016 
1.4279966607 1.4597299198 1.491463179 1.5231964381 1.5549296972 1.5866629564 1.6183962155 1.6501294746 1.6818627337 
1.7135959929 1.745329252 1.7770625111 1.8087957702 1.8405290294 1.8722622885 1.9039955476 1.9357288068 1.9674620659 
1.999195325 2.0309285841 2.0626618433 2.0943951024 2.1261283615 2.1578616206 2.1895948798 2.2213281389 2.253061398 
2.2847946572 2.3165279163 2.3482611754 2.3799944345 2.4117276937 2.4434609528 2.4751942119 2.506927471 2.5386607302 
2.5703939893 2.6021272484 2.6338605076 2.6655937667 2.6973270258 2.7290602849 2.7607935441 2.7925268032 2.8242600623 
2.8559933214 2.8877265806 2.9194598397 2.9511930988 2.982926358 3.0146596171 3.0463928762 3.0781261353 3.1098593945 
3.1415926536 
_radius 1 100 double
5.5788016546e-16 0.0145967158 0.029134182572 0.043553769297 0.057797568123 0.071808117231 0.085527799828 0.098898120794 0.1118591686 
0.12434960627 0.13630749508 0.14767213619 0.15838691646 0.16840288239 0.17768249783 0.18620286356 0.19395768834 0.20095754019 
0.20722832051 0.21280835062 0.21774477586 0.22209005171 0.22589905539 0.22922695536 0.23212754671 0.23465151742 0.23684417433 
0.23874251475 0.24037201815 0.24174391668 0.24285378787 0.24368203847 0.24419632129 0.24435539291 0.24411365268 0.24342571964 
0.24225077149 0.24055671749 0.23832440016 0.2355518865 0.23225861475 0.22848884893 0.22431367959 0.21983077401 0.2151612856 
0.21044382577 0.20582615221 0.20145599835 0.19747279027 0.19400145003 0.19114818596 0.1889969073 0.18760458781 0.18699486092 
0.18715086557 0.18800991221 0.18946300755 0.19136132414 0.19352966 0.19578457876 0.1979533355 0.19988979081 0.20148508374 
0.20267265759 0.20342834482 0.20376652501 0.20373326445 0.2033972125 0.20283905897 0.20214052664 0.20137402692 0.2005940598 
0.19983110325 0.19908818482 0.19833977567 0.19753236307 0.19658621048 0.19539832064 0.19384711944 0.19179946784 0.18912012461 
0.18568293485 0.18138224139 0.17614267645 0.16992570045 0.16273187496 0.15459863838 0.14559408373 0.13580780331 0.12534024206 
0.11429219814 0.10275610753 0.090810483386 0.07851829304 0.065929185803 0.05308454091 0.040023610978 0.02678887733 0.013429176288 
5.1851681985e-16 
_area 1 100 double
0 0.00052021184727 0.0020753308272 0.0046478947387 0.0082063273102 0.012702839938 0.018072546301 0.024233833236 0.031088781525 
0.038522246965 0.04639978468 0.054566960945 0.062853606557 0.071085123674 0.079100003943 0.086769896184 0.094016917053 0.10082281666 
0.10722621677 0.11330742333 0.11916476031 0.12488999023 0.13054972304 0.13617363806 0.14174530628 0.14719652211 0.15241458248 
0.15726576733 0.16162453566 0.16539609985 0.16852655172 0.17099987091 0.17282428023 0.17401296164 0.17456559398 0.17445656223 
0.17363329837 0.17202530849 0.1695618933 0.16619458841 0.1619192542 0.15679273556 0.15093970394 0.14454648769 0.13784093751 
0.13106121469 0.12442114536 0.11808239211 0.112139253 0.10661873813 0.10151974772 0.096876999402 0.092776075469 0.089331208716 
0.086659463753 0.084863064745 0.084101385233 0.084513775866 0.085654510321 0.087090032822 0.088522023907 0.089693538876 0.090392785945 
0.090469505261 0.089854399398 0.088571111756 0.086735844022 0.084542686698 0.082231085794 0.080042660555 0.078202740107 0.076951442732 
0.076410444712 0.07651136316 0.077199476278 0.078424516136 0.080105597372 0.082090137271 0.084129105312 0.085886924191 0.086985695613 
0.08706667643 0.085849958306 0.083179303237 0.079044725107 0.073580203946 0.067038710457 0.059750933228 0.052076672801 0.044358193896 
0.03688331394 0.029863826763 0.023432831286 0.017661749958 0.012592031403 0.0082686140763 0.0047596001803 0.0021544611788 0.00054498965143 
4.3486667176e-17 
