# vtk DataFile Version 5.1
vtk output
ASCII
DATASET POLYDATA
POINTS 100 float
0.134173 0.0345454 0.752405 0.13414 0.0348365 0.752104 0.134124 0.035573 0.751077 
0.134093 0.0367176 0.749351 0.134001 0.0382129 0.746962 0.13379 0.0399859 0.743953 
0.133399 0.0419551 0.740362 0.13277 0.0440373 0.736215 0.131857 0.0461532 0.731519 
0.130627 0.0482331 0.726259 0.129061 0.0502196 0.720396 0.12716 0.0520685 0.713875 
0.124935 0.053748 0.706629 0.122404 0.0552362 0.698593 0.119585 0.0565172 0.689713 
0.116493 0.0575776 0.679961 0.11313 0.0584028 0.669337 0.109484 0.0589757 0.65788 
0.105528 0.0592751 0.645666 0.101221 0.0592782 0.632803 0.0965161 0.0589626 0.619423 
0.0913612 0.0583112 0.605667 0.0857126 0.0573162 0.591673 0.0795409 0.0559844 0.577561 
0.0728378 0.0543396 0.563421 0.0656212 0.0524248 0.549301 0.0579363 0.0503017 0.535209 
0.0498537 0.0480475 0.521109 0.0414643 0.0457504 0.506929 0.0328704 0.0435031 0.492575 
0.0241756 0.0413956 0.477937 0.0154746 0.0395083 0.462907 0.00684275 0.0379062 0.447391 
-0.00167093 0.0366348 0.431318 -0.010048 0.0357187 0.414642 -0.0183001 0.0351625 0.397345 
-0.0264644 0.0349544 0.379433 -0.034595 0.0350713 0.360922 -0.0427505 0.0354853 0.341834 
-0.0509808 0.0361703 0.322183 -0.0593132 0.0371072 0.301965 -0.0677398 0.0382884 0.281154 
-0.0762094 0.0397183 0.259698 -0.0846227 0.0414126 0.237528 -0.0928331 0.0433942 0.214561 
-0.100654 0.045688 0.190719 -0.107868 0.0483131 0.165938 -0.114246 0.0512768 0.14019 
-0.119563 0.0545682 0.113489 -0.123614 0.0581542 0.0859055 -0.126236 0.0619789 0.0575652 
-0.127317 0.065965 0.0286457 -0.12681 0.0700189 -0.000633993 -0.124731 0.0740381 -0.0300301 
-0.121163 0.0779194 -0.059294 -0.116243 0.0815686 -0.0881934 -0.110156 0.0849081 -0.116532 
-0.103112 0.0878831 -0.144166 -0.0953382 0.0904641 -0.171012 -0.087054 0.0926469 -0.197051 
-0.0784616 0.0944483 -0.22232 -0.0697328 0.0958989 -0.246905 -0.061001 0.0970344 -0.270917 
-0.0523589 0.0978858 -0.294474 -0.0438595 0.0984703 -0.317681 -0.0355214 0.0987849 -0.340613 
-0.0273367 0.0988021 -0.363299 -0.0192805 0.0984711 -0.38572 -0.0113213 0.0977219 -0.407809 
-0.00342983 0.096474 -0.429463 0.00441358 0.094647 -0.450555 0.0122138 0.0921739 -0.470958 
0.0199586 0.0890126 -0.490558 0.0276193 0.0851571 -0.509281 0.0351531 0.0806437 -0.527096 
0.0425075 0.0755541 -0.544027 0.0496251 0.0700123 -0.56015 0.0564492 0.064177 -0.575579 
0.0629282 0.05823 -0.590453 0.0690194 0.052361 -0.604912 0.0746909 0.0467517 -0.619076 
0.0799228 0.0415599 -0.63302 0.0847068 0.036907 -0.646764 0.0890444 0.0328688 -0.660257 
0.0929454 0.0294711 -0.673383 0.0964254 0.026692 -0.68597 0.0995038 0.0244675 -0.697804 
0.102203 0.0227035 -0.708659 0.104545 0.0212886 -0.718322 0.106554 0.0201093 -0.726622 
0.108254 0.0190638 -0.733452 0.109671 0.0180732 -0.738787 0.110831 0.0170891 -0.742688 
0.11176 0.016096 -0.745301 0.112485 0.0151095 -0.746841 0.113032 0.0141698 -0.747567 
0.113425 0.013332 -0.747753 0.113686 0.0126553 -0.747658 0.113831 0.0121913 -0.747494 
0.113871 0.0119753 -0.747398 
LINES 2 100
OFFSETS vtktypeint64
0 100 
CONNECTIVITY vtktypeint64
0 1 2 3 4 5 6 7 8 
9 10 11 12 13 14 15 16 17 
18 19 20 21 22 23 24 25 26 
27 28 29 30 31 32 33 34 35 
36 37 38 39 40 41 42 43 44 
45 46 47 48 49 50 51 52 53 
54 55 56 57 58 59 60 61 62 
63 64 65 66 67 68 69 70 71 
72 73 74 75 76 77 78 79 80 
81 82 83 84 85 86 87 88 89 
90 91 92 93 94 95 96 97 98 
99 
POINT_DATA 100
FIELD FieldData 3
_theta 1 100 double
0 0.031733259127 0.063466518254 0.095199777382 0.12693303651 0.15866629564 0.19039955476 0.22213281389 0.25386607302 
0.28559933214 0.31733259127 0.3490658504 0.38079910953 0.41253236865 0.44426562778 0.47599888691 0.50773214603 0.53946540516 
0.57119866429 0.60293192342 0.63466518254 0.66639844167 0.6981317008 0.72986495992 0.76159821905 0.79333147818 0.82506473731 
0.85679799643 0.88853125556 0.92026451469 0.95199777382 0.98373103294 1.0154642921 1.0471975512 1.0789308103 1.1106640695 
1.1423973286 1.1741305877 1.2058638468 1.237597106 1.2693303651 1.3010636242 1.3327968833 1.3645301425 1.3962634016 
1.4279966607 1.4597299198 1.491463179 1.5231964381 1.5549296972 1.5866629564 1.6183962155 1.6501294746 1.6818627337 
1.7135959929 1.745329252 1.7770625111 1.8087957702 1.8405290294 1.8722622885 1.9039955476 1.9357288068 1.9674620659 
1.999195325 2.0309285841 2.0626618433 2.0943951024 2.1261283615 2.1578616206 2.1895948798 2.2213281389 2.253061398 
2.2847946572 2.3165279163 2.3482611754 2.3799944345 2.4117276937 2.4434609528 2.4751942119 2.506927471 2.5386607302 
2.5703939893 2.6021272484 2.6338605076 2.6655937667 2.6973270258 2.7290602849 2.7607935441 2.7925268032 2.8242600623 
2.8559933214 2.8877265806 2.9194598397 2.9511930988 2.982926358 3.0146596171 3.0463928762 3.0781261353 3.1098593945 
3.1415926536 
_radius 1 100 double
1.3668212006e-15 0.016470604262 0.032778138943 0.048767345706 0.064302950881 0.079276224431 0.093607968578 0.1072479362 0.12017133304 
0.13237350647 0.14386408204 0.15466167679 0.16478995477 0.17427528235 0.18314570625 0.19143057967 0.19916007152 0.20636407817 
0.21307059409 0.21930410565 0.22508475601 0.230428762 0.23534996836 0.23986179899 0.24397850174 0.24771465625 0.25108245268 
0.25408712536 0.25672181942 0.2589636335 0.26077232037 0.26209227184 0.26285745585 0.26299835886 0.26244983025 0.26115887164 
0.25909165496 0.25623926292 0.25262179869 0.24829063873 0.24332874247 0.23784908988 0.23199144954 0.22591771968 0.2198059877 
0.21384325018 0.20821656961 0.20310254808 0.19865556661 0.19499619602 0.19220202034 0.19030305412 0.18928257678 0.18908210879 
0.18960779592 0.19073589325 0.19231735259 0.19418400342 0.19615906142 0.19807205833 0.19977503267 0.20115569582 0.20214462262 
0.20271575345 0.20288131271 0.20268326085 0.20218360283 0.20145534955 0.20057498197 0.1996164069 0.19864593867 0.19771778688 
0.19686974481 0.1961191521 0.19545962608 0.19485931553 0.19426130701 0.1935863059 0.19273712671 0.19160420872 0.19007141144 
0.18802156257 0.18534142042 0.18192581934 0.17768086467 0.17252619297 0.16639647616 0.15924243443 0.15103158978 0.14174888321 
0.13139718269 0.11999769197 0.10759032493 0.094234161111 0.080008051636 0.065011256628 0.049363719676 0.033205363966 0.016693785762 
2.0261584799e-16 
_area 1 100 double
0 0.0006018666393 0.0023858702107 0.0052903721083 0.0092225211809 0.014070900243 0.019719027005 0.026056195747 0.032982597461 
0.040407278964 0.048240007647 0.056380770929 0.064712392297 0.073101407878 0.0814093087 0.0895115227 0.097317590929 0.10478489221 
0.11192020806 0.11876769396 0.12538744938 0.13183366415 0.13814175855 0.14432828144 0.15039880809 0.15635364821 0.16218243316 
0.16784648829 0.17325853754 0.17827456327 0.1827061305 0.18634831899 0.18901060022 0.19053980112 0.19083083105 0.1898270267 
0.18751560721 0.18392415921 0.17912188059 0.17322565175 0.16640693048 0.15889283344 0.15095574969 0.14289078209 0.13498670941 
0.12749942933 0.12063388641 0.11453414852 0.10927830228 0.10487787815 0.10128663061 0.098426350094 0.096323813983 0.095189821781 
0.094527887401 0.094190835166 0.094093104241 0.094189297312 0.09445325126 0.09483345854 0.095224770501 0.095504114655 0.095580680555 
0.095399769112 0.094921779026 0.094124049046 0.093018864203 0.09166813442 0.090183782052 0.088714092683 0.087423887087 0.08646970474 
0.085964801274 0.08594306612 0.086376046581 0.087208109874 0.088251492783 0.08933641827 0.090248450063 0.090820190851 0.090858657105 
0.090164295753 0.088607252711 0.086113519522 0.082648303256 0.07821373059 0.072852358533 0.066651963525 0.059748669636 0.052325920112 
0.044607494023 0.036844335726 0.029297112476 0.022218116161 0.015836370577 0.010348355292 0.0059143515665 0.0026583756141 0.00066908111146 
1.4963683943e-17 
