# vtk DataFile Version 5.1
vtk output
ASCII
DATASET POLYDATA
POINTS 100 float
0.064361 0.0642304 0.683511 0.0644635 0.0644 0.683217 0.0647505 0.0647223 0.682168 
0.0651714 0.0651594 0.680371 0.0656496 0.0656541 0.677842 0.0660926 0.0661377 0.674597 
0.0664039 0.0665379 0.67066 0.066496 0.0667884 0.666051 0.0663018 0.0668365 0.660793 
0.0657827 0.0666493 0.654907 0.0649343 0.0662162 0.648416 0.0637855 0.0655495 0.641338 
0.0623947 0.0646808 0.633695 0.0608409 0.0636551 0.62551 0.0592125 0.0625238 0.616807 
0.0575941 0.0613363 0.607614 0.0560544 0.060133 0.597962 0.0546352 0.0589394 0.587883 
0.0533442 0.0577634 0.577409 0.0521527 0.0565945 0.566571 0.0509971 0.0554074 0.555394 
0.0497859 0.0541669 0.543894 0.04841 0.052835 0.532082 0.0467552 0.0513784 0.519955 
0.0447164 0.0497761 0.507502 0.0422096 0.0480242 0.494704 0.0391823 0.0461396 0.481538 
0.0356194 0.0441596 0.467982 0.0315444 0.0421391 0.454016 0.0270157 0.0401454 0.43963 
0.0221184 0.0382508 0.424828 0.0169531 0.0365244 0.409627 0.0116219 0.0350253 0.39406 
0.00621544 0.0337959 0.378172 0.000800712 0.032859 0.362015 -0.00458703 0.032217 0.345642 
-0.00994811 0.0318549 0.329102 -0.0153169 0.031745 0.312428 -0.020755 0.0318548 0.29563 
-0.0263399 0.0321541 0.278694 -0.0321505 0.0326231 0.261576 -0.0382509 0.0332577 0.244201 
-0.044675 0.034073 0.226474 -0.0514131 0.0351024 0.208281 -0.0584035 0.0363947 0.189504 
-0.0655285 0.0380066 0.170029 -0.0726179 0.0399941 0.149765 -0.0794575 0.0424018 0.128648 
-0.0858036 0.0452535 0.106656 -0.0914014 0.0485437 0.0838112 -0.0960053 0.0522326 0.060183 
-0.0993992 0.0562446 0.0358837 -0.101415 0.0604713 0.0110609 -0.101948 0.0647783 -0.0141136 
-0.100962 0.0690154 -0.0394579 -0.0984963 0.0730295 -0.064794 -0.0946573 0.0766772 -0.089962 
-0.0896101 0.0798373 -0.114831 -0.0835622 0.0824206 -0.139308 -0.0767449 0.0843761 -0.163341 
-0.069393 0.0856927 -0.186914 -0.0617255 0.0863967 -0.210049 -0.0539289 0.0865445 -0.232789 
-0.0461446 0.0862122 -0.255189 -0.0384621 0.0854839 -0.277303 -0.0309173 0.0844384 -0.299176 
-0.0234975 0.0831385 -0.320824 -0.0161503 0.0816221 -0.342238 -0.00879708 0.0798973 -0.363375 
-0.00134746 0.0779421 -0.384165 0.00628469 0.0757081 -0.404511 0.0141674 0.0731286 -0.424303 
0.0223394 0.0701286 -0.443426 0.0308026 0.0666371 -0.461772 0.0395192 0.0625989 -0.479251 
0.0484138 0.0579846 -0.4958 0.0573791 0.0527977 -0.511385 0.0662852 0.0470786 -0.526004 
0.0749911 0.0409036 -0.539685 0.0833574 0.0343805 -0.552478 0.0912573 0.0276406 -0.564452 
0.0985872 0.0208287 -0.575676 0.105274 0.0140916 -0.586221 0.111278 0.00756758 -0.596144 
0.116595 0.00137644 -0.605485 0.121251 -0.004387 -0.614265 0.125298 -0.00965694 -0.622485 
0.128806 -0.0143972 -0.63013 0.131853 -0.018599 -0.637173 0.134516 -0.0222761 -0.643583 
0.136864 -0.0254588 -0.649333 0.138953 -0.0281871 -0.6544 0.140819 -0.0305042 -0.658779 
0.142481 -0.0324514 -0.662475 0.143939 -0.0340641 -0.66551 0.145181 -0.0353701 -0.667916 
0.146183 -0.0363891 -0.66973 0.146922 -0.0371335 -0.67099 0.147374 -0.0376104 -0.671729 
0.147524 -0.0378225 -0.671968 
LINES 2 100
OFFSETS vtktypeint64
0 100 
CONNECTIVITY vtktypeint64
0 1 2 3 4 5 6 7 8 
9 10 11 12 13 14 15 16 17 
18 19 20 21 22 23 24 25 26 
27 28 29 30 31 32 33 34 35 
36 37 38 39 40 41 42 43 44 
45 46 47 48 49 50 51 52 53 
54 55 56 57 58 59 60 61 62 
63 64 65 66 67 68 69 70 71 
72 73 74 75 76 77 78 79 80 
81 82 83 84 85 86 87 88 89 
90 91 92 93 94 95 96 97 98 
99 
POINT_DATA 100
FIELD FieldData 3
_theta 1 100 double
0 0.031733259127 0.063466518254 0.095199777382 0.12693303651 0.15866629564 0.19039955476 0.22213281389 0.25386607302 
0.28559933214 0.31733259127 0.3490658504 0.38079910953 0.41253236865 0.44426562778 0.47599888691 0.50773214603 0.53946540516 
0.57119866429 0.60293192342 0.63466518254 0.66639844167 0.6981317008 0.72986495992 0.76159821905 0.79333147818 0.82506473731 
0.85679799643 0.88853125556 0.92026451469 0.95199777382 0.98373103294 1.0154642921 1.0471975512 1.0789308103 1.1106640695 
1.1423973286 1.1741305877 1.2058638468 1.237597106 1.2693303651 1.3010636242 1.3327968833 1.3645301425 1.3962634016 
1.4279966607 1.4597299198 1.491463179 1.5231964381 1.5549296972 1.5866629564 1.6183962155 1.6501294746 1.6818627337 
1.7135959929 1.745329252 1.7770625111 1.8087957702 1.8405290294 1.8722622885 1.9039955476 1.9357288068 1.9674620659 
1.999195325 2.0309285841 2.0626618433 2.0943951024 2.1261283615 2.1578616206 2.1895948798 2.2213281389 2.253061398 
2.2847946572 2.3165279163 2.3482611754 2.3799944345 2.4117276937 2.4434609528 2.4751942119 2.506927471 2.5386607302 
2.5703939893 2.6021272484 2.6338605076 2.6655937667 2.6973270258 2.7290602849 2.7607935441 2.7925268032 2.8242600623 
2.8559933214 2.8877265806 2.9194598397 2.9511930988 2.982926358 3.0146596171 3.0463928762 3.0781261353 3.1098593945 
3.1415926536 
_radius 1 100 double
1.1106566208e-15 0.013769021411 0.027477380409 0.041055052522 0.054431950415 0.067539407619 0.080312771859 0.092695037646 0.1046409572 
0.11612063758 0.12712149886 0.13764774049 0.14771706059 0.15735508195 0.16658851862 0.1754383961 0.18391456425 0.19201237603 
0.1997118942 0.20697950632 0.21377151071 0.22003911683 0.22573431053 0.2308160535 0.23525623504 0.23904467773 0.24219239433 
0.2447323109 0.24671689583 0.24821258677 0.24929152149 0.25002170161 0.25045715185 0.2506297215 0.25054388583 0.25017537295 
0.24947385971 0.24836948238 0.24678251607 0.24463525603 0.24186486 0.23843569619 0.23434962793 0.22965270748 0.22443700816 
0.21883686062 0.21301960298 0.20717203476 0.20148481273 0.19613758651 0.19128731736 0.18706095835 0.1835520515 0.1808195167 
0.17888642617 0.17773720345 0.17731359919 0.17751222637 0.17818763015 0.17916346452 0.18025095555 0.18127072603 0.1820731049 
0.18255319213 0.18265886541 0.18239152029 0.18180037696 0.18097181091 0.18001546951 0.17904892538 0.17818237768 0.17750465165 
0.177071645 0.17689838629 0.17695574246 0.17717227723 0.17744083714 0.17762849065 0.17758791427 0.1771684029 0.17622523019 
0.17462678283 0.17225947548 0.16903078511 0.16487081232 0.15973267244 0.15359188977 0.14644492845 0.13830704828 0.12920975496 
0.11919816385 0.10832859902 0.096666704616 0.084286244499 0.071268599234 0.057702764985 0.04368548388 0.029321066718 0.014720546022 
3.706693623e-16 
_area 1 100 double
0 0.00057117290731 0.0022716227297 0.0050609877159 0.0088690192502 0.013593807634 0.019103533244 0.025243728435 0.03185039425 
0.038767372325 0.045864824755 0.053054953517 0.060301158869 0.067617363752 0.075055261605 0.082679725531 0.090537250916 0.098626970454 
0.10688407058 0.11518008282 0.12333783582 0.13115546997 0.13843400437 0.14500403746 0.15074793859 0.15561480117 0.15962686547 
0.16287715537 0.16551735498 0.16773273123 0.16970144462 0.17154596034 0.17329965887 0.17490772763 0.17625463147 0.17719515599 
0.17757453529 0.17723587207 0.17602059845 0.17377547889 0.17037962245 0.16578387864 0.16004085387 0.15331358762 0.14586247476 
0.13801533515 0.13012777671 0.1225410076 0.11554402025 0.10934651329 0.10406481267 0.099717020771 0.096225942615 0.093444817359 
0.091212931232 0.089400996905 0.087918504461 0.086702826254 0.08570708672 0.084884798237 0.084171408052 0.083475949812 0.082694516071 
0.081738953789 0.080563345641 0.079176975251 0.077642593029 0.076064362247 0.07456900056 0.073272266582 0.072232235199 0.071466660962 
0.071057092439 0.071051190319 0.071437148656 0.072182197197 0.073112240625 0.07407350925 0.074923626634 0.075518338399 0.075709818383 
0.075350203032 0.074298823478 0.072434221026 0.069670365203 0.065973003392 0.061370994199 0.055959600167 0.049895402347 0.043384092166 
0.036663166819 0.029982050508 0.023582406651 0.017681238781 0.012458819162 0.0080526778644 0.0045579211441 0.0020330357352 0.00050916941685 
8.8137421084e-17 
