# vtk DataFile Version 5.1
vtk output
ASCII
DATASET POLYDATA
POINTS 100 float
0.109257 0.0624244 0.692004 0.109438 0.0624274 0.69201 0.110048 0.0622562 0.691813 
0.111039 0.061924 0.691359 0.112334 0.0614523 0.690568 0.113834 0.060869 0.689334 
0.115428 0.0602067 0.68754 0.116996 0.0595006 0.685064 0.118423 0.0587855 0.681791 
0.1196 0.0580934 0.67762 0.120435 0.0574508 0.672474 0.120852 0.0568767 0.666307 
0.120797 0.0563801 0.659105 0.120229 0.0559599 0.650889 0.119125 0.0556038 0.641713 
0.117474 0.0552899 0.631658 0.115271 0.0549875 0.620827 0.112518 0.0546606 0.609337 
0.109216 0.0542707 0.597308 0.10537 0.0537806 0.584856 0.100986 0.053158 0.572087 
0.0960718 0.0523794 0.559084 0.090643 0.0514323 0.545912 0.0847216 0.0503174 0.532609 
0.0783406 0.0490491 0.519189 0.071545 0.047655 0.505648 0.0643912 0.0461741 0.491962 
0.0569457 0.0446536 0.4781 0.0492818 0.0431464 0.464023 0.0414748 0.0417061 0.449694 
0.0335969 0.0403844 0.435082 0.0257115 0.0392274 0.42016 0.0178689 0.0382733 0.40491 
0.010103 0.0375516 0.389321 0.00243011 0.0370823 0.373383 -0.00514972 0.0368771 0.357087 
-0.012649 0.0369413 0.340419 -0.0200869 0.0372754 0.323354 -0.0274823 0.0378775 0.305858 
-0.0348456 0.038745 0.287883 -0.0421714 0.0398763 0.269373 -0.049432 0.0412702 0.250262 
-0.0565741 0.042926 0.230484 -0.0635172 0.0448415 0.209981 -0.0701563 0.0470111 0.188706 
-0.0763671 0.0494232 0.166635 -0.0820141 0.0520576 0.143773 -0.0869607 0.0548845 0.120155 
-0.0910797 0.0578629 0.0958489 -0.0942645 0.0609413 0.0709544 -0.0964374 0.0640597 0.0455966 
-0.0975567 0.0671519 0.0199183 -0.0976198 0.0701498 -0.00592978 -0.096663 0.0729875 -0.0317996 
-0.0947574 0.0756052 -0.057556 -0.0920025 0.0779534 -0.0830859 -0.0885162 0.0799951 -0.108304 
-0.0844249 0.0817064 -0.133156 -0.0798519 0.0830765 -0.157618 -0.0749089 0.0841049 -0.181692 
-0.069687 0.084798 -0.205397 -0.0642531 0.0851643 -0.228765 -0.0586472 0.08521 -0.251824 
-0.0528845 0.0849344 -0.274593 -0.04696 0.0843268 -0.297073 -0.0408544 0.0833655 -0.319244 
-0.0345427 0.0820178 -0.341059 -0.0280023 0.0802432 -0.36245 -0.0212206 0.077998 -0.383335 
-0.0142009 0.0752416 -0.403622 -0.00696675 0.0719431 -0.423222 0.000437054 0.0680887 -0.442058 
0.00794545 0.0636869 -0.460076 0.0154767 0.0587729 -0.477248 0.0229375 0.0534101 -0.493577 
0.03023 0.0476886 -0.509096 0.0372578 0.0417213 -0.523861 0.0439332 0.0356369 -0.537945 
0.0501823 0.0295718 -0.551424 0.0559491 0.0236597 -0.564367 0.0611976 0.0180226 -0.576823 
0.0659123 0.0127618 -0.588815 0.0700968 0.00795129 -0.600331 0.0737712 0.00363411 -0.611322 
0.0769685 -0.000178805 -0.621711 0.0797305 -0.00350605 -0.631394 0.0821038 -0.00639064 -0.640258 
0.084136 -0.00889256 -0.648192 0.0858726 -0.0110802 -0.655103 0.0873549 -0.0130216 -0.660929 
0.0886188 -0.0147762 -0.665652 0.0896938 -0.0163887 -0.669301 0.0906035 -0.0178855 -0.671954 
0.0913659 -0.0192731 -0.673736 0.0919942 -0.0205403 -0.674803 0.092498 -0.021662 -0.675334 
0.0928838 -0.022605 -0.675508 0.0931561 -0.0233346 -0.675489 0.0933176 -0.0238209 -0.675408 
0.0933701 -0.0240443 -0.675352 
LINES 2 100
OFFSETS vtktypeint64
0 100 
CONNECTIVITY vtktypeint64
0 1 2 3 4 5 6 7 8 
9 10 11 12 13 14 15 16 17 
18 19 20 21 22 23 24 25 26 
27 28 29 30 31 32 33 34 35 
36 37 38 39 40 41 42 43 44 
45 46 47 48 49 50 51 52 53 
54 55 56 57 58 59 60 61 62 
63 64 65 66 67 68 69 70 71 
72 73 74 75 76 77 78 79 80 
81 82 83 84 85 86 87 88 89 
90 91 92 93 94 95 96 97 98 
99 
POINT_DATA 100
FIELD FieldData 3
_theta 1 100 double
0 0.031733259127 0.063466518254 0.095199777382 0.12693303651 0.15866629564 0.19039955476 0.22213281389 0.25386607302 
0.28559933214 0.31733259127 0.3490658504 0.38079910953 0.41253236865 0.44426562778 0.47599888691 0.50773214603 0.53946540516 
0.57119866429 0.60293192342 0.63466518254 0.66639844167 0.6981317008 0.72986495992 0.76159821905 0.79333147818 0.82506473731 
0.85679799643 0.88853125556 0.92026451469 0.95199777382 0.98373103294 1.0154642921 1.0471975512 1.0789308103 1.1106640695 
1.1423973286 1.1741305877 1.2058638468 1.237597106 1.2693303651 1.3010636242 1.3327968833 1.3645301425 1.3962634016 
1.4279966607 1.4597299198 1.491463179 1.5231964381 1.5549296972 1.5866629564 1.6183962155 1.6501294746 1.6818627337 
1.7135959929 1.745329252 1.7770625111 1.8087957702 1.8405290294 1.8722622885 1.9039955476 1.9357288068 1.9674620659 
1.999195325 2.0309285841 2.0626618433 2.0943951024 2.1261283615 2.1578616206 2.1895948798 2.2213281389 2.253061398 
2.2847946572 2.3165279163 2.3482611754 2.3799944345 2.4117276937 2.4434609528 2.4751942119 2.506927471 2.5386607302 
2.5703939893 2.6021272484 2.6338605076 2.6655937667 2.6973270258 2.7290602849 2.7607935441 2.7925268032 2.8242600623 
2.8559933214 2.8877265806 2.9194598397 2.9511930988 2.982926358 3.0146596171 3.0463928762 3.0781261353 3.1098593945 
3.1415926536 
_radius 1 100 double
5.7122734601e-16 0.015089731736 0.0300385689 0.044707784062 0.058976595159 0.072747667498 0.085949015738 0.098532497769 0.1104698516 
0.12174767854 0.1323627664 0.14231869099 0.15162393775 0.16029115301 0.16833681971 0.17578074335 0.18264513244 0.18895354204 
0.19473027507 0.20000082671 0.20479357311 0.20914226035 0.21308818385 0.21668056003 0.219973735 0.22302066266 0.22586338339 
0.22852260783 0.23098930711 0.23322092307 0.23514351073 0.23665946843 0.23765923971 0.23803482054 0.23769298732 0.23656661801 
0.23462308122 0.23186925377 0.2283531849 0.22416268475 0.21942116829 0.21428101547 0.20891467496 0.20350390001 0.19822789208 
0.19325159449 0.18871568461 0.18472976216 0.18136971642 0.17867927537 0.17667449972 0.17534899072 0.17467743024 0.17461603079 
0.17510025572 0.17604203698 0.17732971963 0.17883334452 0.18041570241 0.18194699536 0.18331940217 0.18445801762 0.18532604729 
0.18592387616 0.18628303459 0.18645691554 0.18651035182 0.18650992037 0.1865162223 0.1865785718 0.18673175705 0.1869940589 
0.1873656739 0.18782705012 0.18833719112 0.18883243293 0.18922635776 0.18941137215 0.18926218966 0.18864117509 0.18740528569 
0.18541416392 0.18253878029 0.17866990818 0.17372565034 0.1676572368 0.16045239375 0.15213577197 0.14276623576 0.13243122827 
0.12123887652 0.10930888158 0.096763452825 0.083719517932 0.070283156717 0.056546722385 0.042588550425 0.028474670835 0.01426168283 
1.4699265197e-15 
_area 1 100 double
0 0.00060390852696 0.0023895397117 0.0052827982525 0.0091728577167 0.013927092265 0.019405336855 0.025469775326 0.031988750816 
0.038835524356 0.045885485132 0.053016198591 0.060112893724 0.067078173175 0.073841438178 0.08036304911 0.086630685076 0.092649056209 
0.09842719047 0.10396880096 0.10927028266 0.11432782505 0.11915088817 0.12377545166 0.12826863882 0.13271793842 0.1372041444 
0.14176597806 0.14637088073 0.15090445455 0.15518114436 0.15896939917 0.16202201 0.16410513836 0.16502321577 0.16463895926 
0.16288820186 0.15978886288 0.15544283175 0.15002946783 0.14379061607 0.13700950054 0.12998760184 0.12302246294 0.11638640644 
0.11030428965 0.10492998983 0.10032788393 0.096471053312 0.093265733622 0.090597790231 0.08837639546 0.086554466324 0.085124706832 
0.08409740733 0.083469340573 0.083198873169 0.083201307174 0.08336528126 0.083578237766 0.083747320473 0.08380913647 0.083730238663 
0.083503326459 0.083142446424 0.082677979126 0.082151437525 0.081610891522 0.081108056167 0.080697257857 0.08043595195 0.080386035623 
0.080638318738 0.081283914122 0.08240370363 0.084072600655 0.08608528557 0.088225242573 0.090241854805 0.091854552621 0.092776032211 
0.092742701416 0.091543989977 0.089045260676 0.08520160696 0.080061934519 0.073764062884 0.066522167496 0.058608111087 0.050328513961 
0.041999897169 0.033924660169 0.026370696619 0.019556967543 0.01364644384 0.0087467137676 0.0049174055757 0.0021825220111 0.00054495181091 
3.2559839779e-17 
