# vtk DataFile Version 5.1
vtk output
ASCII
DATASET POLYDATA
POINTS 100 float
0.0828917 0.0444369 0.681082 0.0830522 0.0445393 0.680495 0.0834609 0.0449814 0.678924 
0.0840662 0.0457129 0.676425 0.0847879 0.0466557 0.673082 0.085525 0.0477138 0.668996 
0.0861658 0.0487841 0.664279 0.0865979 0.0497684 0.659039 0.0867189 0.0505838 0.65337 
0.0864457 0.051171 0.647344 0.0857204 0.0514991 0.641006 0.0845155 0.0515666 0.63437 
0.0828336 0.0513982 0.627424 0.0807054 0.0510385 0.620132 0.078185 0.0505433 0.612447 
0.0753417 0.0499696 0.604312 0.0722526 0.0493667 0.595678 0.0689932 0.0487682 0.586507 
0.0656298 0.0481873 0.576782 0.0622129 0.0476158 0.566505 0.0587735 0.0470262 0.555703 
0.055321 0.0463769 0.544422 0.0518447 0.0456206 0.532721 0.0483167 0.0447128 0.520665 
0.0446973 0.0436204 0.50832 0.0409408 0.0423294 0.495739 0.0370023 0.040849 0.482962 
0.0328429 0.0392129 0.470008 0.0284347 0.0374778 0.456874 0.023763 0.035717 0.443538 
0.0188275 0.0340135 0.429961 0.0136409 0.0324508 0.416093 0.00822624 0.0311037 0.401879 
0.00261307 0.0300308 0.387264 -0.00316675 0.0292694 0.372201 -0.00908281 0.0288334 0.356653 
-0.0151089 0.0287147 0.340595 -0.0212243 0.0288875 0.324014 -0.0274131 0.029316 0.306906 
-0.0336618 0.0299618 0.289276 -0.0399551 0.0307932 0.271128 -0.0462713 0.0317914 0.252468 
-0.0525768 0.0329559 0.233294 -0.0588212 0.0343052 0.213602 -0.0649341 0.0358744 0.193382 
-0.0708238 0.0377103 0.172619 -0.0763788 0.0398619 0.151304 -0.0814715 0.0423714 0.129432 
-0.0859651 0.0452634 0.107009 -0.0897222 0.0485367 0.0840606 -0.0926151 0.0521581 0.0606311 
-0.0945363 0.05606 0.0367863 -0.0954076 0.0601424 0.0126127 -0.0951886 0.0642791 -0.0117863 
-0.0938806 0.0683269 -0.0362957 -0.0915288 0.0721384 -0.0607961 -0.0882193 0.0755747 -0.0851712 
-0.0840729 0.0785177 -0.109316 -0.0792357 0.0808809 -0.133141 -0.0738673 0.0826155 -0.156581 
-0.0681276 0.0837133 -0.179592 -0.0621643 0.0842038 -0.202152 -0.0561014 0.0841478 -0.224261 
-0.0500305 0.0836268 -0.24593 -0.0440059 0.082731 -0.26718 -0.0380437 0.081546 -0.28803 
-0.0321253 0.0801409 -0.308495 -0.0262047 0.0785593 -0.328578 -0.0202189 0.0768139 -0.348268 
-0.0140998 0.0748855 -0.367539 -0.00778775 0.0727272 -0.38635 -0.00124272 0.0702714 -0.404652 
0.00554567 0.0674417 -0.422391 0.0125519 0.0641646 -0.439512 0.0197126 0.0603825 -0.455967 
0.0269282 0.0560645 -0.471718 0.0340699 0.0512146 -0.486741 0.0409888 0.0458755 -0.501027 
0.0475286 0.0401288 -0.514578 0.0535386 0.0340901 -0.527407 0.0588867 0.0279008 -0.539534 
0.0634712 0.0217172 -0.55098 0.0672283 0.0156982 -0.561762 0.0701377 0.00999289 -0.571892 
0.0722228 0.00472964 -0.581372 0.0735473 7.92083e-06 -0.590193 0.0742079 -0.00410704 -0.598342 
0.0743251 -0.00758587 -0.605798 0.0740316 -0.0104333 -0.612542 0.0734607 -0.0126838 -0.618559 
0.0727358 -0.0143945 -0.623842 0.0719624 -0.0156382 -0.628398 0.0712216 -0.016495 -0.632248 
0.0705689 -0.0170456 -0.635426 0.0700342 -0.0173654 -0.637979 0.0696262 -0.0175205 -0.63996 
0.0693381 -0.0175654 -0.641426 0.0691542 -0.0175417 -0.64243 0.0690575 -0.0174784 -0.643014 
0.069035 -0.0173925 -0.643205 
LINES 2 100
OFFSETS vtktypeint64
0 100 
CONNECTIVITY vtktypeint64
0 1 2 3 4 5 6 7 8 
9 10 11 12 13 14 15 16 17 
18 19 20 21 22 23 24 25 26 
27 28 29 30 31 32 33 34 35 
36 37 38 39 40 41 42 43 44 
45 46 47 48 49 50 51 52 53 
54 55 56 57 58 59 60 61 62 
63 64 65 66 67 68 69 70 71 
72 73 74 75 76 77 78 79 80 
81 82 83 84 85 86 87 88 89 
90 91 92 93 94 95 96 97 98 
99 
POINT_DATA 100
FIELD FieldData 3
_theta 1 100 double
0 0.031733259127 0.063466518254 0.095199777382 0.12693303651 0.15866629564 0.19039955476 0.22213281389 0.25386607302 
0.28559933214 0.31733259127 0.3490658504 0.38079910953 0.41253236865 0.44426562778 0.47599888691 0.50773214603 0.53946540516 
0.57119866429 0.60293192342 0.63466518254 0.66639844167 0.6981317008 0.72986495992 0.76159821905 0.79333147818 0.82506473731 
0.85679799643 0.88853125556 0.92026451469 0.95199777382 0.98373103294 1.0154642921 1.0471975512 1.0789308103 1.1106640695 
1.1423973286 1.1741305877 1.2058638468 1.237597106 1.2693303651 1.3010636242 1.3327968833 1.3645301425 1.3962634016 
1.4279966607 1.4597299198 1.491463179 1.5231964381 1.5549296972 1.5866629564 1.6183962155 1.6501294746 1.6818627337 
1.7135959929 1.745329252 1.7770625111 1.8087957702 1.8405290294 1.8722622885 1.9039955476 1.9357288068 1.9674620659 
1.999195325 2.0309285841 2.0626618433 2.0943951024 2.1261283615 2.1578616206 2.1895948798 2.2213281389 2.253061398 
2.2847946572 2.3165279163 2.3482611754 2.3799944345 2.4117276937 2.4434609528 2.4751942119 2.506927471 2.5386607302 
2.5703939893 2.6021272484 2.6338605076 2.6655937667 2.6973270258 2.7290602849 2.7607935441 2.7925268032 2.8242600623 
2.8559933214 2.8877265806 2.9194598397 2.9511930988 2.982926358 3.0146596171 3.0463928762 3.0781261353 3.1098593945 
3.1415926536 
_radius 1 100 double
1.0011263372e-15 0.013920361741 0.027769954196 0.041487538185 0.055020531202 0.068324860353 0.081362112917 0.094095585063 0.10648706799 
0.11849561278 0.13007853976 0.141194139 0.15180516974 0.16188239477 0.1714077013 0.18037652905 0.18879922078 0.19670068907 
0.20411776459 0.21109395271 0.21767202694 0.22388565802 0.22975177814 0.23526537873 0.24039794337 0.24509994592 0.24930706481 
0.25294911792 0.25596024377 0.25828860602 0.259903994 0.26080217424 0.2610055756 0.26056059969 0.25953231775 0.25799748226 
0.25603673584 0.25372679281 0.25113332646 0.24830536263 0.24527209387 0.24204303126 0.23861211973 0.23496576308 0.23109373882 
0.22700101989 0.22271793119 0.21830614811 0.21385889333 0.20949513806 0.2053491926 0.20155812977 0.19824956678 0.19553154081 
0.19348512124 0.19215953808 0.19156916339 0.1916916847 0.19246729698 0.19379958922 0.19555949061 0.19759348713 0.19973613175 
0.20182524648 0.20371707387 0.20529852768 0.20649453817 0.20726979535 0.20762541785 0.20759186387 0.20721966019 0.20656935731 
0.20570169603 0.20466848317 0.20350433131 0.20221942109 0.20079383702 0.19917453542 0.19727616022 0.19498643918 0.19217589326 
0.18871050415 0.18446525487 0.17933633157 0.17325023678 0.16616889734 0.15809075639 0.14904855857 0.13910491719 0.12834674954 
0.11687934865 0.10482037709 0.092293635076 0.079422277846 0.066321364803 0.053090181429 0.039805470283 0.026517193938 0.013248397821 
1.5870476651e-15 
_area 1 100 double
0 0.00053572511824 0.002128377995 0.0047354917239 0.0082899393717 0.012705388665 0.017883851193 0.023724761872 0.030133980452 
0.037030200513 0.044346605728 0.052027235843 0.060019024267 0.068261289687 0.076675744855 0.085162000203 0.093603626663 0.10188578308 
0.10991879091 0.11765741038 0.125106079 0.13230585837 0.13930705321 0.14613887301 0.15278970476 0.1592058685 0.16530566196 
0.17099640863 0.17618219286 0.18076013037 0.18461556067 0.18762890546 0.18969527203 0.19074615094 0.19076348472 0.18978351383 
0.18789154955 0.18520893076 0.1818732837 0.17801473888 0.173733579 0.16908686242 0.16409054387 0.15873844254 0.15303220297 
0.14701172239 0.14077586855 0.13448653803 0.12835168959 0.12258673725 0.11736714677 0.11280023624 0.10892867088 0.10575025621 
0.10324405666 0.10139909854 0.10019565518 0.099530666604 0.099258518513 0.099262521318 0.099469911272 0.099840951166 0.10032371256 
0.10080085475 0.10110581267 0.10109243966 0.10068036935 0.099862076457 0.098690389509 0.097261421881 0.09570081434 0.094153482889 
0.092770524456 0.091691944889 0.091035900522 0.090866525515 0.09110215944 0.091534456049 0.091925314102 0.092033298794 0.091616365438 
0.090444947425 0.088325531614 0.085126292329 0.080796793011 0.075377083086 0.068994766847 0.061851094746 0.054199046835 0.046317699596 
0.038487427611 0.030969380044 0.023990651975 0.017734840956 0.012337265494 0.0078848717495 0.0044214788634 0.0019583522804 0.00048831850614 
3.7079916478e-17 
