# vtk DataFile Version 5.1
vtk output
ASCII
DATASET POLYDATA
POINTS 100 float
0.0741644 0.0632727 0.742438 0.0743219 0.0634586 0.741879 0.0748218 0.0638271 0.739994 
0.0756055 0.0643335 0.736836 0.0765816 0.0649108 0.732488 0.077637 0.0654783 0.727056 
0.0786479 0.0659517 0.72066 0.0794933 0.0662531 0.713425 0.0800669 0.0663209 0.705467 
0.080286 0.0661161 0.69689 0.0800983 0.0656268 0.687778 0.0794833 0.0648683 0.678197 
0.0784503 0.0638794 0.668188 0.0770326 0.0627163 0.657777 0.0752788 0.0614438 0.646981 
0.0732428 0.0601259 0.635809 0.070974 0.0588163 0.624271 0.0685088 0.0575513 0.612382 
0.0658649 0.056345 0.600165 0.0630387 0.0551882 0.587653 0.0600067 0.0540502 0.57488 
0.05673 0.0528851 0.561885 0.0531613 0.0516399 0.548701 0.0492538 0.0502639 0.535352 
0.04497 0.0487184 0.521848 0.0402886 0.0469855 0.508182 0.0352102 0.045074 0.494325 
0.0297591 0.0430221 0.480237 0.0239812 0.0408962 0.465864 0.0179395 0.0387863 0.451146 
0.0117065 0.036798 0.436028 0.00535455 0.0350422 0.420463 -0.0010531 0.033624 0.404423 
-0.00747053 0.032632 0.387898 -0.0138749 0.0321292 0.370902 -0.0202684 0.0321468 0.353469 
-0.0266769 0.0326817 0.335646 -0.0331436 0.0336979 0.317487 -0.0397208 0.0351313 0.299045 
-0.0464578 0.0368977 0.28036 -0.0533891 0.0389029 0.261453 -0.0605232 0.0410532 0.242318 
-0.0678327 0.0432657 0.222921 -0.0752489 0.0454765 0.203204 -0.0826605 0.0476458 0.183086 
-0.0899168 0.0497607 0.162476 -0.0968357 0.0518332 0.141283 -0.103215 0.0538956 0.119431 
-0.108848 0.0559937 0.0968656 -0.113536 0.0581778 0.0735698 -0.117106 0.0604933 0.0495666 
-0.119421 0.0629729 0.0249223 -0.120392 0.0656296 -0.000257006 -0.119978 0.0684525 -0.0258318 
-0.118192 0.0714063 -0.0516407 -0.115094 0.0744322 -0.0775131 -0.110783 0.0774529 -0.103283 
-0.105386 0.0803789 -0.128801 -0.0990513 0.0831154 -0.153947 -0.0919285 0.0855706 -0.178633 
-0.0841642 0.0876616 -0.202807 -0.0758903 0.0893201 -0.226452 -0.0672193 0.0904955 -0.249576 
-0.0582416 0.0911559 -0.272207 -0.0490257 0.0912868 -0.294377 -0.0396209 0.0908882 -0.316117 
-0.0300621 0.0899712 -0.337441 -0.0203747 0.088553 -0.358347 -0.0105804 0.0866531 -0.378808 
-0.000701326 0.0842902 -0.398774 0.00923641 0.0814802 -0.418182 0.019201 0.0782359 -0.436957 
0.0291545 0.0745685 -0.455023 0.0390542 0.0704893 -0.472315 0.0488537 0.0660136 -0.488785 
0.0585057 0.0611634 -0.504407 0.0679634 0.0559708 -0.519179 0.0771819 0.0504802 -0.533125 
0.086119 0.0447486 -0.546284 0.0947345 0.0388455 -0.558708 0.10299 0.0328507 -0.57045 
0.110848 0.0268507 -0.581555 0.118269 0.020935 -0.59205 0.125214 0.015191 -0.601943 
0.131644 0.00969972 -0.611218 0.137519 0.00453137 -0.619837 0.142806 -0.000257424 -0.627747 
0.147477 -0.00462575 -0.634888 0.151515 -0.00854905 -0.641204 0.154918 -0.0120186 -0.646654 
0.157703 -0.0150397 -0.651219 0.159901 -0.0176296 -0.654914 0.161566 -0.019814 -0.657786 
0.162765 -0.0216244 -0.659915 0.163576 -0.0230947 -0.661407 0.164085 -0.0242585 -0.662385 
0.164375 -0.0251467 -0.662976 0.164519 -0.0257855 -0.663297 0.164578 -0.0261948 -0.663444 
0.164587 -0.0263873 -0.663478 
LINES 2 100
OFFSETS vtktypeint64
0 100 
CONNECTIVITY vtktypeint64
0 1 2 3 4 5 6 7 8 
9 10 11 12 13 14 15 16 17 
18 19 20 21 22 23 24 25 26 
27 28 29 30 31 32 33 34 35 
36 37 38 39 40 41 42 43 44 
45 46 47 48 49 50 51 52 53 
54 55 56 57 58 59 60 61 62 
63 64 65 66 67 68 69 70 71 
72 73 74 75 76 77 78 79 80 
81 82 83 84 85 86 87 88 89 
90 91 92 93 94 95 96 97 98 
99 
POINT_DATA 100
FIELD FieldData 3
_theta 1 100 double
0 0.031733259127 0.063466518254 0.095199777382 0.12693303651 0.15866629564 0.19039955476 0.22213281389 0.25386607302 
0.28559933214 0.31733259127 0.3490658504 0.38079910953 0.41253236865 0.44426562778 0.47599888691 0.50773214603 0.53946540516 
0.57119866429 0.60293192342 0.63466518254 0.66639844167 0.6981317008 0.72986495992 0.76159821905 0.79333147818 0.82506473731 
0.85679799643 0.88853125556 0.92026451469 0.95199777382 0.98373103294 1.0154642921 1.0471975512 1.0789308103 1.1106640695 
1.1423973286 1.1741305877 1.2058638468 1.237597106 1.2693303651 1.3010636242 1.3327968833 1.3645301425 1.3962634016 
1.4279966607 1.4597299198 1.491463179 1.5231964381 1.5549296972 1.5866629564 1.6183962155 1.6501294746 1.6818627337 
1.7135959929 1.745329252 1.7770625111 1.8087957702 1.8405290294 1.8722622885 1.9039955476 1.9357288068 1.9674620659 
1.999195325 2.0309285841 2.0626618433 2.0943951024 2.1261283615 2.1578616206 2.1895948798 2.2213281389 2.253061398 
2.2847946572 2.3165279163 2.3482611754 2.3799944345 2.4117276937 2.4434609528 2.4751942119 2.506927471 2.5386607302 
2.5703939893 2.6021272484 2.6338605076 2.6655937667 2.6973270258 2.7290602849 2.7607935441 2.7925268032 2.8242600623 
2.8559933214 2.8877265806 2.9194598397 2.9511930988 2.982926358 3.0146596171 3.0463928762 3.0781261353 3.1098593945 
3.1415926536 
_radius 1 100 double
1.1243577791e-15 0.014654470176 0.029142529566 0.04330101576 0.056991407085 0.070110178106 0.082596100909 0.094433477439 0.1056505312 
0.11631269147 0.12651125677 0.13634878175 0.14592325423 0.15531348346 0.16456797592 0.17369894267 0.18268209353 0.19146174871 
0.1999598302 0.20808676998 0.21575242882 0.22287564863 0.22939175549 0.23525786584 0.24045604719 0.24499428128 0.24890496887 
0.25224065657 0.25506693876 0.25745308968 0.25946170122 0.26113910077 0.26250832659 0.26356590319 0.26428280343 0.26460913881 
0.26448153672 0.2638319301 0.26259655986 0.2607242761 0.25818359631 0.25496830515 0.25110154693 0.24663832625 0.241666151 
0.23630336672 0.23069470121 0.22500376366 0.21940272933 0.21406011942 0.20912833306 0.20473316899 0.20096757566 0.19789085957 
0.19553260265 0.19389842266 0.19297371018 0.1927224689 0.19308140126 0.19395334329 0.19520653411 0.19668417189 0.1982228173 
0.19967331372 0.20091764278 0.2018782312 0.20251952954 0.20284361168 0.20288210069 0.20268647607 0.20231828396 0.20184023229 
0.20130867679 0.20076761428 0.20024400743 0.19974406497 0.1992500408 0.1987173356 0.19807223631 0.19721124109 0.19600313773 
0.1942946154 0.19191939668 0.18871006656 0.18451120868 0.17919220575 0.17265808489 0.1648570473 0.15578377817 0.14547823467 
0.13402026606 0.12152101059 0.10811242245 0.093936433082 0.079135139862 0.063843100392 0.048182389336 0.032260642509 0.016171930714 
1.0093959148e-15 
_area 1 100 double
0 0.00064575224486 0.0025508197881 0.0056212949835 0.0097094862056 0.014626916468 0.020161813068 0.026099916206 0.032246690629 
0.038448346002 0.044608688394 0.050698832956 0.056757113815 0.062877117982 0.069183267283 0.075796842844 0.082800148701 0.090209053785 
0.097961893818 0.10592720909 0.11392669462 0.12176570282 0.12926376587 0.1362804983 0.14273450504 0.14861304707 0.15396922673 
0.15890354445 0.1635301583 0.16793589828 0.1721478677 0.17612379545 0.17976549559 0.1829428729 0.18551558867 0.1873473776 
0.18831458434 0.1883123493 0.18726051658 0.1851094737 0.18184546882 0.17749531726 0.17213072556 0.16587213984 0.15889114167 
0.15140932014 0.14369080076 0.13602561799 0.12870135384 0.12196062517 0.1159505473 0.1106960408 0.10612243035 0.10210414837 
0.09851635129 0.095281673839 0.092394270743 0.089907140839 0.087896300646 0.086427430756 0.085533518281 0.085193840303 0.085295246355 
0.085616702891 0.085907061836 0.085973067642 0.085715375578 0.085125322464 0.084257041559 0.083197320779 0.08205260206 0.080941686464 
0.079982217949 0.079278688715 0.078928677155 0.079032702557 0.079799085934 0.081243249101 0.082888957606 0.084524106137 0.085911803451 
0.086791196348 0.08689589861 0.08598034952 0.083848916305 0.080383047962 0.075562069234 0.069473819095 0.062312597027 0.054363817963 
0.045977075244 0.037531430955 0.029398201388 0.02190702617 0.015320564597 0.0098217996738 0.0055157108771 0.0024441416105 0.00060946009129 
2.9370377119e-17 
