# vtk DataFile Version 5.1
vtk output
ASCII
DATASET POLYDATA
POINTS 100 float
0.0844701 0.0408833 0.650646 0.0846505 0.0409339 0.650424 0.0852457 0.0409592 0.649559 
0.086173 0.0409856 0.648066 0.0873059 0.0410521 0.645968 0.0884896 0.0412035 0.643292 
0.0895591 0.0414837 0.64006 0.0903588 0.0419272 0.636286 0.0907598 0.0425534 0.631973 
0.0906733 0.0433603 0.627105 0.0900578 0.0443233 0.621658 0.08892 0.0453948 0.615592 
0.0873088 0.0465075 0.608866 0.0853037 0.0475809 0.60144 0.0829992 0.0485282 0.593285 
0.080488 0.0492652 0.58439 0.0778443 0.049719 0.574768 0.0751114 0.0498344 0.56446 
0.0722936 0.0495803 0.553532 0.0693546 0.0489516 0.542073 0.0662224 0.0479694 0.530188 
0.0628001 0.0466784 0.517989 0.0589806 0.045142 0.505583 0.0546639 0.0434355 0.493062 
0.0497729 0.0416396 0.480495 0.0442682 0.0398329 0.467923 0.0381558 0.0380868 0.455353 
0.0314906 0.0364608 0.44276 0.0243717 0.0350009 0.430096 0.0169318 0.0337393 0.417291 
0.00932235 0.0326964 0.404269 0.00169462 0.0318835 0.39095 -0.0058184 0.031307 0.377269 
-0.0131185 0.0309713 0.363174 -0.0201536 0.0308823 0.348634 -0.0269231 0.0310486 0.333638 
-0.0334758 0.0314818 0.318193 -0.0398996 0.0321951 0.302315 -0.0463068 0.0332005 0.286025 
-0.0528135 0.0345058 0.269338 -0.0595176 0.0361108 0.252257 -0.0664791 0.0380045 0.234768 
-0.0737024 0.0401632 0.216841 -0.0811264 0.0425501 0.198427 -0.0886215 0.0451166 0.17947 
-0.0959955 0.0478054 0.15991 -0.103007 0.050555 0.139698 -0.109386 0.0533045 0.118805 
-0.114857 0.0559989 0.0972327 -0.119167 0.0585939 0.0750161 -0.122109 0.0610588 0.0522309 
-0.123542 0.0633783 0.0289885 -0.123402 0.0655518 0.00543029 -0.121713 0.0675911 -0.0182836 
-0.11858 0.0695161 -0.0419872 -0.114178 0.0713496 -0.0655234 -0.108735 0.0731116 -0.0887578 
-0.102508 0.0748137 -0.111589 -0.0957618 0.0764555 -0.133958 -0.0887435 0.0780213 -0.155846 
-0.0816625 0.0794804 -0.177277 -0.0746763 0.0807879 -0.198303 -0.0678831 0.0818892 -0.218999 
-0.0613202 0.082724 -0.239442 -0.054971 0.0832327 -0.259703 -0.0487758 0.0833617 -0.27983 
-0.0426473 0.0830687 -0.29984 -0.036488 0.082326 -0.319713 -0.0302063 0.0811225 -0.339394 
-0.0237311 0.0794637 -0.358799 -0.0170217 0.0773696 -0.377822 -0.0100739 0.0748713 -0.396352 
-0.00292038 0.0720075 -0.41428 0.00437315 0.0688194 -0.43152 0.0117153 0.0653478 -0.448011 
0.0189991 0.06163 -0.463728 0.0261123 0.0576991 -0.478677 0.0329482 0.0535843 -0.492896 
0.0394134 0.0493135 -0.506441 0.0454347 0.0449156 -0.519374 0.0509613 0.0404247 -0.531754 
0.0559659 0.035883 -0.543615 0.0604421 0.0313431 -0.554966 0.0644004 0.0268686 -0.565777 
0.0678642 0.0225327 -0.575985 0.0708643 0.0184151 -0.585495 0.0734352 0.0145964 -0.594195 
0.0756121 0.0111518 -0.601969 0.077429 0.00814434 -0.608714 0.0789185 0.005618 -0.614356 
0.0801122 0.00359269 -0.618866 0.0810417 0.00206108 -0.622268 0.0817394 0.000988235 -0.624641 
0.0822394 0.000314157 -0.626117 0.0825772 -4.07718e-05 -0.626872 0.0827885 -0.000168012 -0.627102 
0.0829073 -0.000161532 -0.627013 0.0829639 -0.000107929 -0.626793 0.0829824 -7.71415e-05 -0.626593 
0.0829783 -0.000114832 -0.626512 
LINES 2 100
OFFSETS vtktypeint64
0 100 
CONNECTIVITY vtktypeint64
0 1 2 3 4 5 6 7 8 
9 10 11 12 13 14 15 16 17 
18 19 20 21 22 23 24 25 26 
27 28 29 30 31 32 33 34 35 
36 37 38 39 40 41 42 43 44 
45 46 47 48 49 50 51 52 53 
54 55 56 57 58 59 60 61 62 
63 64 65 66 67 68 69 70 71 
72 73 74 75 76 77 78 79 80 
81 82 83 84 85 86 87 88 89 
90 91 92 93 94 95 96 97 98 
99 
POINT_DATA 100
FIELD FieldData 3
_theta 1 100 double
0 0.031733259127 0.063466518254 0.095199777382 0.12693303651 0.15866629564 0.19039955476 0.22213281389 0.25386607302 
0.28559933214 0.31733259127 0.3490658504 0.38079910953 0.41253236865 0.44426562778 0.47599888691 0.50773214603 0.53946540516 
0.57119866429 0.60293192342 0.63466518254 0.66639844167 0.6981317008 0.72986495992 0.76159821905 0.79333147818 0.82506473731 
0.85679799643 0.88853125556 0.92026451469 0.95199777382 0.98373103294 1.0154642921 1.0471975512 1.0789308103 1.1106640695 
1.1423973286 1.1741305877 1.2058638468 1.237597106 1.2693303651 1.3010636242 1.3327968833 1.3645301425 1.3962634016 
1.4279966607 1.4597299198 1.491463179 1.5231964381 1.5549296972 1.5866629564 1.6183962155 1.6501294746 1.6818627337 
1.7135959929 1.745329252 1.7770625111 1.8087957702 1.8405290294 1.8722622885 1.9039955476 1.9357288068 1.9674620659 
1.999195325 2.0309285841 2.0626618433 2.0943951024 2.1261283615 2.1578616206 2.1895948798 2.2213281389 2.253061398 
2.2847946572 2.3165279163 2.3482611754 2.3799944345 2.4117276937 2.4434609528 2.4751942119 2.506927471 2.5386607302 
2.5703939893 2.6021272484 2.6338605076 2.6655937667 2.6973270258 2.7290602849 2.7607935441 2.7925268032 2.8242600623 
2.8559933214 2.8877265806 2.9194598397 2.9511930988 2.982926358 3.0146596171 3.0463928762 3.0781261353 3.1098593945 
3.1415926536 
_radius 1 100 double
9.7392017004e-17 0.014606715926 0.029076663701 0.043276818709 0.05709289727 0.070435167538 0.083240585698 0.095471332157 0.10711055347 
0.1181566038 0.12861719539 0.13850460293 0.14783254199 0.15661475233 0.16486485822 0.17259686872 0.17982573758 0.18656764967 
0.19284001744 0.19866143467 0.20405194096 0.20903382556 0.21363283992 0.21787921094 0.22180749233 0.22545432919 0.22885376775 
0.2320306753 0.23499375621 0.23773010328 0.24020295436 0.24235343083 0.24410591818 0.24537587732 0.2460785344 0.24613709345 
0.24548964941 0.24409458824 0.24193472348 0.23902060621 0.23539331702 0.23112666084 0.22632817728 0.22113795457 0.21572410046 
0.21027402798 0.20498149653 0.20003051954 0.1955785513 0.19174234395 0.18858993396 0.18614091811 0.18437458867 0.18324250104 
0.18268014808 0.1826129992 0.18295554952 0.18360676845 0.18444841685 0.18535144016 0.1861905868 0.18686246305 0.18730077778 
0.18748436546 0.1874364652 0.18721609579 0.1869038798 0.18658548939 0.18633607565 0.18620853737 0.18622730197 0.18638768357 
0.18665934549 0.18699151537 0.18731776887 0.18755926761 0.18762664246 0.18742153785 0.18683889582 0.18577056452 0.18411014529 
0.18175844681 0.17862864935 0.17465033741 0.16977187182 0.1639609966 0.15720395777 0.14950364363 0.14087731929 0.13135445379 
0.12097498759 0.10978820822 0.097852226196 0.085233887833 0.072008849565 0.05826149645 0.044084443668 0.029577506827 0.014846207378 
1.3308022502e-15 
_area 1 100 double
0 0.00057233827178 0.0022688565515 0.0050311883032 0.0087714912059 0.013383523207 0.018753066923 0.024764822451 0.031304478133 
0.038256808746 0.045502384413 0.052916001595 0.060369170754 0.067737443444 0.074911619134 0.08181028147 0.088389996216 0.094649404671 
0.10062492131 0.10637869137 0.11198263947 0.11750394725 0.1229959199 0.12849440956 0.13401596164 0.13955296158 0.14506553801 
0.1504764049 0.15567493645 0.16052962319 0.16490289807 0.16866361442 0.17169574471 0.17390338664 0.1752121732 0.17556706278 
0.17492738746 0.17326241995 0.17055248143 0.16679865621 0.16203929983 0.15636760913 0.14994366691 0.14299592459 0.13580957258 
0.12870155841 0.12198375768 0.11591812134 0.11067272755 0.10629424044 0.10271339919 0.099791011393 0.097379081491 0.095324004586 
0.093486124157 0.091831021326 0.090418904385 0.089315243846 0.088520801155 0.087956544769 0.087489482639 0.08697857268 0.086320315892 
0.085475111224 0.084463357132 0.083333052491 0.082136814332 0.080945314281 0.079858667014 0.078996362804 0.078475256602 0.07838212947 
0.078744500669 0.079515745251 0.080596074395 0.081868398555 0.083212383794 0.084497112315 0.085571194934 0.086262224493 0.086387062754 
0.085769003116 0.08425686087 0.081742166473 0.078172202901 0.073557821697 0.067975692641 0.061565121918 0.054519946868 0.047076256893 
0.039496787184 0.032052892876 0.025005241032 0.01858492586 0.012977557582 0.008313560098 0.004667646375 0.0020684607681 0.00051585374329 
3.4711423413e-17 
