# vtk DataFile Version 5.1
vtk output
ASCII
DATASET POLYDATA
POINTS 100 float
0.112294 0.042922 0.63669 0.112318 0.0430266 0.636627 0.112466 0.0432044 0.636292 
0.112703 0.0434707 0.635651 0.112972 0.0438473 0.634652 0.113206 0.0443578 0.633228 
0.113329 0.0450213 0.6313 0.113266 0.0458466 0.628784 0.112952 0.0468268 0.625598 
0.112333 0.0479361 0.621667 0.111373 0.0491287 0.61693 0.110053 0.0503405 0.611344 
0.10837 0.0514931 0.604888 0.106331 0.0525004 0.597566 0.103952 0.0532766 0.589407 
0.101249 0.0537442 0.580462 0.0982359 0.0538424 0.570805 0.0949166 0.0535334 0.560522 
0.0912862 0.0528069 0.549712 0.0873299 0.0516817 0.538474 0.0830254 0.0502044 0.526906 
0.0783475 0.0484454 0.515093 0.0732732 0.0464921 0.503105 0.067788 0.0444419 0.490994 
0.0618907 0.0423931 0.478789 0.0555975 0.040437 0.466495 0.0489433 0.0386519 0.4541 
0.0419813 0.0370976 0.441572 0.0347788 0.0358135 0.428867 0.0274117 0.0348187 0.415934 
0.0199576 0.0341147 0.402716 0.0124873 0.0336892 0.389163 0.00505762 0.0335214 0.375226 
-0.00229387 0.0335876 0.360868 -0.00955257 0.0338658 0.346061 -0.0167266 0.0343394 0.330785 
-0.0238437 0.0349993 0.315027 -0.0309443 0.0358439 0.298783 -0.0380733 0.0368776 0.282048 
-0.0452691 0.0381077 0.264817 -0.052553 0.0395409 0.247083 -0.0599199 0.0411793 0.228838 
-0.0673309 0.0430172 0.210068 -0.0747097 0.0450385 0.190759 -0.0819424 0.0472164 0.170898 
-0.0888825 0.049514 0.150477 -0.0953587 0.0518865 0.129499 -0.101187 0.0542854 0.107978 
-0.106182 0.0566622 0.0859479 -0.110176 0.0589731 0.0634579 -0.113027 0.0611826 0.0405781 
-0.114631 0.0632663 0.0173955 -0.114935 0.0652122 -0.00598836 -0.113932 0.0670195 -0.0294629 
-0.111668 0.0686972 -0.0529138 -0.108234 0.0702599 -0.0762299 -0.103759 0.0717234 -0.0993094 
-0.0983958 0.0731002 -0.122065 -0.0923132 0.0743951 -0.144429 -0.0856802 0.0756016 -0.166354 
-0.0786555 0.0766999 -0.187815 -0.0713777 0.077657 -0.208804 -0.0639589 0.0784274 -0.229333 
-0.0564808 0.0789566 -0.249421 -0.0489949 0.079185 -0.269096 -0.0415246 0.0790524 -0.288381 
-0.0340706 0.0785029 -0.307298 -0.026617 0.0774891 -0.325857 -0.0191387 0.0759758 -0.344055 
-0.0116083 0.0739414 -0.361878 -0.00400222 0.0713795 -0.379298 0.00369436 0.068298 -0.396277 
0.0114841 0.0647179 -0.412774 0.0193559 0.0606711 -0.42874 0.0272848 0.0561987 -0.444133 
0.0352327 0.0513483 -0.458914 0.0431507 0.0461729 -0.473052 0.050981 0.0407297 -0.486529 
0.0586597 0.0350803 -0.499334 0.0661196 0.0292905 -0.511467 0.0732919 0.0234308 -0.522937 
0.0801091 0.0175764 -0.533756 0.086507 0.0118073 -0.543939 0.0924263 0.00620672 -0.553501 
0.0978156 0.000858686 -0.562454 0.102633 -0.00415507 -0.570808 0.106848 -0.00875949 -0.578567 
0.110446 -0.0128909 -0.585732 0.113427 -0.0165015 -0.5923 0.115809 -0.0195639 -0.598269 
0.117626 -0.0220733 -0.603636 0.118933 -0.024049 -0.608401 0.119796 -0.0255333 -0.612567 
0.120294 -0.0265884 -0.61614 0.120513 -0.0272907 -0.619132 0.120541 -0.0277246 -0.621554 
0.12046 -0.0279745 -0.623421 0.120341 -0.0281162 -0.624747 0.120242 -0.0282102 -0.625541 
0.120198 -0.0282953 -0.62581 
LINES 2 100
OFFSETS vtktypeint64
0 100 
CONNECTIVITY vtktypeint64
0 1 2 3 4 5 6 7 8 
9 10 11 12 13 14 15 16 17 
18 19 20 21 22 23 24 25 26 
27 28 29 30 31 32 33 34 35 
36 37 38 39 40 41 42 43 44 
45 46 47 48 49 50 51 52 53 
54 55 56 57 58 59 60 61 62 
63 64 65 66 67 68 69 70 71 
72 73 74 75 76 77 78 79 80 
81 82 83 84 85 86 87 88 89 
90 91 92 93 94 95 96 97 98 
99 
POINT_DATA 100
FIELD FieldData 3
_theta 1 100 double
0 0.031733259127 0.063466518254 0.095199777382 0.12693303651 0.15866629564 0.19039955476 0.22213281389 0.25386607302 
0.28559933214 0.31733259127 0.3490658504 0.38079910953 0.41253236865 0.44426562778 0.47599888691 0.50773214603 0.53946540516 
0.57119866429 0.60293192342 0.63466518254 0.66639844167 0.6981317008 0.72986495992 0.76159821905 0.79333147818 0.82506473731 
0.85679799643 0.88853125556 0.92026451469 0.95199777382 0.98373103294 1.0154642921 1.0471975512 1.0789308103 1.1106640695 
1.1423973286 1.1741305877 1.2058638468 1.237597106 1.2693303651 1.3010636242 1.3327968833 1.3645301425 1.3962634016 
1.4279966607 1.4597299198 1.491463179 1.5231964381 1.5549296972 1.5866629564 1.6183962155 1.6501294746 1.6818627337 
1.7135959929 1.745329252 1.7770625111 1.8087957702 1.8405290294 1.8722622885 1.9039955476 1.9357288068 1.9674620659 
1.999195325 2.0309285841 2.0626618433 2.0943951024 2.1261283615 2.1578616206 2.1895948798 2.2213281389 2.253061398 
2.2847946572 2.3165279163 2.3482611754 2.3799944345 2.4117276937 2.4434609528 2.4751942119 2.506927471 2.5386607302 
2.5703939893 2.6021272484 2.6338605076 2.6655937667 2.6973270258 2.7290602849 2.7607935441 2.7925268032 2.8242600623 
2.8559933214 2.8877265806 2.9194598397 2.9511930988 2.982926358 3.0146596171 3.0463928762 3.0781261353 3.1098593945 
3.1415926536 
_radius 1 100 double
1.1116965617e-15 0.013719248067 0.027384180586 0.040933068597 0.054303436919 0.067431705387 0.08025287994 0.092700720729 0.10470883536 
0.11621297099 0.12715448159 0.13748463262 0.14716914875 0.1561922367 0.16455923107 0.17229705536 0.17945192893 0.18608422066 
0.19226099046 0.19804739991 0.20349858851 0.20865361337 0.2135325723 0.21813719851 0.22245432585 0.22646101224 0.2301299628 
0.23343414945 0.23634995686 0.2388586135 0.24094604019 0.24260155327 0.24381602975 0.24458012314 0.24488295904 0.24471156716 
0.2440512162 0.2428868174 0.24120557401 0.23900097913 0.23627803934 0.23305923179 0.22939027016 0.22534439809 0.221023811 
0.21655707521 0.21209213212 0.20778553659 0.20378965182 0.20024016511 0.19724619468 0.19488444468 0.19319761701 0.19219598203 
0.19186006652 0.19214230146 0.19296649904 0.19422600528 0.19578340162 0.19747535332 0.19912470054 0.20055872055 0.20162962064 
0.20223242599 0.20231653266 0.20188918419 0.201010999 0.19978501816 0.19834148607 0.19682074379 0.19535631033 0.19405967481 
0.19300780465 0.19223408706 0.19172333416 0.19141135904 0.19118924087 0.19091175065 0.19040876771 0.18949818417 0.18799888292 
0.18574274153 0.18258499336 0.17841249052 0.17314948109 0.16676057817 0.15925076115 0.15066250076 0.14107036756 0.13057371115 
0.11928816235 0.10733680982 0.094841924323 0.081918025499 0.06866689047 0.05517480834 0.041512048448 0.027734221259 0.013885043519 
1.2302451156e-15 
_area 1 100 double
0 0.0004968425548 0.0019756596417 0.0044024270628 0.0077237373402 0.011870683161 0.016762917409 0.022312385756 0.02842605138 
0.035006339945 0.041948243161 0.049134324824 0.056432088589 0.06369867492 0.070794297649 0.077601184928 0.084042195645 0.090093183471 
0.095784687115 0.10119102885 0.10640846326 0.1115286659 0.11661756256 0.12170803136 0.12680713566 0.13190943143 0.13700393039 
0.14206657857 0.14704224711 0.15183222356 0.15630092464 0.16029928241 0.16369057725 0.16636654542 0.16824995253 0.16928693282 
0.16943606449 0.16866130583 0.16693327123 0.16423935383 0.16059951754 0.15608230772 0.15081524854 0.14498521294 0.13882698748 
0.13260125578 0.12656580963 0.12094556104 0.11590789296 0.11154972241 0.1078991882 0.10492779717 0.1025660991 0.10072142918 
0.099298861599 0.098219883165 0.097428004968 0.096876776211 0.096509708667 0.096251351895 0.096019778613 0.095746406228 0.095379224141 
0.094855144486 0.094084130895 0.093045218374 0.091693823042 0.090067009384 0.088264425197 0.086397592061 0.084574289668 0.082892537981 
0.081439448686 0.080374197097 0.079682454316 0.079549527359 0.079907723742 0.080342740178 0.080630586256 0.080639839785 0.080241767542 
0.079301361024 0.077681831283 0.075259317452 0.071944273138 0.06770374637 0.062577533649 0.056682550459 0.050203538247 0.043372530131 
0.0364425101 0.029661605719 0.023253018732 0.017403390065 0.012259472064 0.0079309047314 0.0044961317006 0.0020089004437 0.00050377044094 
5.6859596304e-17 
