# vtk DataFile Version 5.1
vtk output
ASCII
DATASET POLYDATA
POINTS 100 float
0.0976025 0.0361792 0.69586 0.0978637 0.0363891 0.6956 0.0986857 0.0368615 0.694702 
0.0999717 0.0375832 0.693191 0.101573 0.0385335 0.691104 0.103307 0.0396857 0.688487 
0.104977 0.0410076 0.685384 0.106394 0.042463 0.681832 0.107399 0.044013 0.677853 
0.107879 0.0456173 0.673453 0.107777 0.0472352 0.668617 0.107095 0.0488265 0.663309 
0.105889 0.0503528 0.657479 0.10426 0.0517776 0.651066 0.102334 0.0530677 0.644009 
0.100245 0.0541938 0.636249 0.0981151 0.0551307 0.627744 0.0960339 0.0558586 0.618471 
0.0940465 0.0563632 0.608434 0.0921455 0.0566365 0.59766 0.0902705 0.0566767 0.586206 
0.0883143 0.0564885 0.574148 0.0861358 0.0560822 0.561577 0.0835768 0.0554732 0.548594 
0.0804811 0.0546807 0.535299 0.0767136 0.0537262 0.521781 0.0721768 0.0526316 0.508117 
0.0668221 0.0514183 0.494363 0.0606555 0.0501051 0.480552 0.0537367 0.0487081 0.466695 
0.0461715 0.0472405 0.45278 0.038099 0.0457127 0.438779 0.0296758 0.0441348 0.42465 
0.0210578 0.0425178 0.410342 0.0123844 0.0408768 0.395802 0.00376444 0.0392335 0.380973 
-0.00473203 0.0376187 0.365801 -0.0130764 0.0360743 0.350234 -0.0212779 0.0346533 0.334222 
-0.0293749 0.0334198 0.317716 -0.0374206 0.0324464 0.300668 -0.0454677 0.03181 0.28303 
-0.053552 0.0315869 0.264755 -0.0616771 0.0318465 0.245799 -0.0698045 0.0326446 0.22612 
-0.0778477 0.0340171 0.20569 -0.0856725 0.0359744 0.184492 -0.0931041 0.038498 0.16253 
-0.099939 0.0415389 0.139831 -0.105961 0.0450183 0.116449 -0.11096 0.0488318 0.0924624 
-0.11475 0.0528551 0.0679786 -0.117188 0.0569525 0.0431245 -0.118184 0.0609862 0.0180415 
-0.117709 0.0648261 -0.00712256 -0.115803 0.0683593 -0.0322236 -0.112563 0.0714978 -0.0571309 
-0.108139 0.0741841 -0.0817356 -0.102718 0.0763936 -0.105958 -0.0965116 0.0781341 -0.129751 
-0.0897333 0.0794421 -0.153101 -0.082587 0.0803756 -0.176028 -0.075251 0.0810055 -0.198574 
-0.0678681 0.0814059 -0.220801 -0.0605399 0.081643 -0.242778 -0.0533256 0.0817665 -0.264571 
-0.0462447 0.0818019 -0.286234 -0.0392843 0.0817456 -0.307799 -0.0324078 0.081564 -0.329271 
-0.0255658 0.0811951 -0.350627 -0.0187067 0.0805537 -0.371812 -0.0117862 0.0795399 -0.392748 
-0.00477481 0.0780483 -0.413334 0.00233651 0.0759796 -0.433458 0.00953445 0.0732508 -0.453004 
0.0167835 0.0698045 -0.471857 0.0240285 0.0656169 -0.489918 0.0311994 0.0607018 -0.5071 
0.0382164 0.0551123 -0.523338 0.0449964 0.0489386 -0.538591 0.0514584 0.0423031 -0.552834 
0.0575286 0.0353532 -0.566064 0.0631448 0.0282515 -0.578291 0.068259 0.0211662 -0.589536 
0.0728389 0.0142603 -0.599827 0.0768686 0.00768275 -0.609196 0.0803479 0.00156002 -0.617674 
0.083291 -0.00400932 -0.625295 0.0857251 -0.00895824 -0.632091 0.0876879 -0.0132522 -0.638096 
0.0892254 -0.0168877 -0.643344 0.0903894 -0.019889 -0.647872 0.0912353 -0.0223031 -0.651719 
0.0918196 -0.0241934 -0.654929 0.0921975 -0.025633 -0.657546 0.0924204 -0.0266979 -0.659612 
0.0925344 -0.0274602 -0.661171 0.0925774 -0.0279824 -0.662256 0.0925784 -0.0283125 -0.662897 
0.0925556 -0.0284806 -0.663109 
LINES 2 100
OFFSETS vtktypeint64
0 100 
CONNECTIVITY vtktypeint64
0 1 2 3 4 5 6 7 8 
9 10 11 12 13 14 15 16 17 
18 19 20 21 22 23 24 25 26 
27 28 29 30 31 32 33 34 35 
36 37 38 39 40 41 42 43 44 
45 46 47 48 49 50 51 52 53 
54 55 56 57 58 59 60 61 62 
63 64 65 66 67 68 69 70 71 
72 73 74 75 76 77 78 79 80 
81 82 83 84 85 86 87 88 89 
90 91 92 93 94 95 96 97 98 
99 
POINT_DATA 100
FIELD FieldData 3
_theta 1 100 double
0 0.031733259127 0.063466518254 0.095199777382 0.12693303651 0.15866629564 0.19039955476 0.22213281389 0.25386607302 
0.28559933214 0.31733259127 0.3490658504 0.38079910953 0.41253236865 0.44426562778 0.47599888691 0.50773214603 0.53946540516 
0.57119866429 0.60293192342 0.63466518254 0.66639844167 0.6981317008 0.72986495992 0.76159821905 0.79333147818 0.82506473731 
0.85679799643 0.88853125556 0.92026451469 0.95199777382 0.98373103294 1.0154642921 1.0471975512 1.0789308103 1.1106640695 
1.1423973286 1.1741305877 1.2058638468 1.237597106 1.2693303651 1.3010636242 1.3327968833 1.3645301425 1.3962634016 
1.4279966607 1.4597299198 1.491463179 1.5231964381 1.5549296972 1.5866629564 1.6183962155 1.6501294746 1.6818627337 
1.7135959929 1.745329252 1.7770625111 1.8087957702 1.8405290294 1.8722622885 1.9039955476 1.9357288068 1.9674620659 
1.999195325 2.0309285841 2.0626618433 2.0943951024 2.1261283615 2.1578616206 2.1895948798 2.2213281389 2.253061398 
2.2847946572 2.3165279163 2.3482611754 2.3799944345 2.4117276937 2.4434609528 2.4751942119 2.506927471 2.5386607302 
2.5703939893 2.6021272484 2.6338605076 2.6655937667 2.6973270258 2.7290602849 2.7607935441 2.7925268032 2.8242600623 
2.8559933214 2.8877265806 2.9194598397 2.9511930988 2.982926358 3.0146596171 3.0463928762 3.0781261353 3.1098593945 
3.1415926536 
_radius 1 100 double
1.2229197644e-15 0.014697445068 0.029341221746 0.043874199858 0.058238861555 0.072376747068 0.086227793707 0.09972995005 0.11281948303 
0.1254321999 0.13750546205 0.1489805692 0.15980501763 0.1699343209 0.17933339475 0.18797774384 0.19585470182 0.20296476359 
0.20932273512 0.21495818789 0.21991469324 0.22424758613 0.22802048652 0.23130127019 0.23415837827 0.23665814871 0.23886331025 
0.24083212589 0.24261719134 0.24426282603 0.24580045868 0.24724233314 0.24857493009 0.24975423979 0.25070500474 0.25132517592 
0.25149542191 0.25109219386 0.25000210359 0.24813541582 0.24543712196 0.24189496432 0.23754450557 0.23247161067 0.22681245921 
0.22075058433 0.2145097856 0.20834155615 0.20250629925 0.19724915873 0.19277337128 0.18921605919 0.18663270205 0.18499615383 
0.18421247406 0.18414898508 0.18466365711 0.1856241876 0.18691085808 0.18840577682 0.18997800486 0.19147597541 0.19273414367 
0.19359248987 0.19392108953 0.19364105259 0.19273628533 0.19125440385 0.18929790589 0.18700827647 0.18454644312 0.18207307328 
0.17973155316 0.17763514832 0.1758583162 0.17443123208 0.17333678901 0.17251025102 0.17184235658 0.17118629869 0.17036797361 
0.16919809098 0.16748467885 0.16504498354 0.16171625222 0.15736507971 0.15189491252 0.14525116336 0.13742342618 0.12844454777 
0.11838667885 0.10735472131 0.095477733134 0.082898908756 0.069764853752 0.056215111381 0.042373236714 0.028340956384 0.014196816154 
1.6831733496e-15 
_area 1 100 double
0 0.00052084341035 0.0020735546863 0.0046292972034 0.0081421150279 0.012552012405 0.017788535555 0.023773475362 0.030421156677 
0.037635576298 0.045305204315 0.053297951796 0.061459881002 0.069621001808 0.077609539685 0.085272635914 0.092497874914 0.099228358923 
0.10546564345 0.11125916467 0.11668538677 0.1218222263 0.12672513212 0.13141396998 0.13587991228 0.14010956102 0.14411052525 
0.14792405787 0.15162014014 0.15527749848 0.1589534414 0.16265117398 0.16629673346 0.16973690242 0.17276056516 0.17513648037 
0.17665611525 0.17716911479 0.17659932377 0.17493508124 0.17220314025 0.16844828663 0.16373077053 0.15813587652 0.15178731015 
0.14486026046 0.13759041779 0.13027362235 0.12325061241 0.11687323227 0.1114509227 0.10718099696 0.10408482099 0.10199963038 
0.10065307878 0.099774212023 0.099175138125 0.098776812268 0.098578262728 0.098578962744 0.098697642562 0.098751037838 0.09850167582 
0.097729705166 0.096288246978 0.094129017434 0.091304060042 0.087953660442 0.084285939589 0.08054871468 0.076994451235 0.07384410737 
0.071260339152 0.069336691444 0.068097205638 0.067497830125 0.067431180054 0.067740566796 0.068242613168 0.068752040891 0.069100114663 
0.069139364847 0.068735325791 0.067755178979 0.066065261759 0.063543568775 0.060104231963 0.055724554919 0.050464682255 0.044473938048 
0.037982425877 0.03127930145 0.024680896109 0.018494007083 0.012981720647 0.0083394739194 0.004686918364 0.0020769231159 0.00051776994305 
2.0664678001e-17 
