# vtk DataFile Version 5.1
vtk output
ASCII
DATASET POLYDATA
POINTS 100 float
0.099078 0.0300502 0.602759 0.0993125 0.0301953 0.602698 0.100064 0.0304892 0.602349 
0.101253 0.0309269 0.601673 0.102756 0.0315005 0.600609 0.104419 0.0322006 0.599082 
0.106072 0.0330171 0.597008 0.107545 0.0339395 0.594303 0.108684 0.0349579 0.590893 
0.109367 0.0360623 0.586719 0.109509 0.0372418 0.581741 0.109066 0.0384833 0.575945 
0.108039 0.0397698 0.569341 0.106463 0.0410787 0.56196 0.1044 0.0423803 0.553856 
0.101923 0.0436375 0.545098 0.0991096 0.0448058 0.535762 0.0960239 0.0458352 0.525931 
0.0927105 0.0466731 0.515682 0.0891877 0.0472683 0.50509 0.0854462 0.0475755 0.494216 
0.0814518 0.0475603 0.483113 0.0771523 0.0472039 0.471818 0.0724869 0.0465066 0.46036 
0.0673969 0.0454901 0.448758 0.0618361 0.0441977 0.437021 0.0557803 0.0426927 0.425154 
0.0492325 0.0410545 0.413158 0.0422262 0.0393736 0.40103 0.0348231 0.0377447 0.388765 
0.0271081 0.0362603 0.376354 0.0191812 0.0350035 0.363783 0.0111471 0.0340429 0.351031 
0.00310539 0.0334285 0.33807 -0.00485894 0.0331897 0.324865 -0.0126822 0.0333356 0.31137 
-0.0203254 0.0338575 0.297533 -0.0277742 0.0347325 0.283297 -0.035034 0.0359291 0.268601 
-0.0421233 0.0374118 0.253389 -0.0490637 0.0391467 0.237607 -0.0558693 0.0411047 0.221215 
-0.0625367 0.0432638 0.204186 -0.0690374 0.0456094 0.186511 -0.0753121 0.0481323 0.168199 
-0.0812709 0.050826 0.14928 -0.0867957 0.0536817 0.129802 -0.0917477 0.056684 0.10983 
-0.0959782 0.0598072 0.0894394 -0.0993408 0.0630116 0.068714 -0.101704 0.0662428 0.0477403 
-0.102966 0.0694325 0.0266024 -0.103059 0.0725018 0.0053779 -0.101963 0.0753657 -0.0158654 
-0.0997022 0.0779399 -0.0370718 -0.096345 0.0801474 -0.0581985 -0.091998 0.0819247 -0.0792154 
-0.0867961 0.0832279 -0.100103 -0.0808899 0.0840356 -0.120852 -0.0744342 0.0843502 -0.141458 
-0.0675744 0.0841964 -0.161918 -0.0604377 0.0836172 -0.182229 -0.0531244 0.0826676 -0.202385 
-0.0457055 0.081408 -0.222375 -0.0382219 0.0798961 -0.242176 -0.030689 0.0781798 -0.261761 
-0.0231032 0.0762921 -0.28109 -0.0154507 0.0742474 -0.300116 -0.00771768 0.0720409 -0.318784 
0.000101084 0.0696503 -0.337034 0.00799403 0.0670404 -0.354798 0.0159277 0.0641691 -0.37201 
0.0238447 0.0609947 -0.388603 0.0316647 0.0574829 -0.404513 0.0392885 0.0536136 -0.419683 
0.0466054 0.0493851 -0.434065 0.0535014 0.0448168 -0.447623 0.0598683 0.0399493 -0.460336 
0.0656137 0.0348415 -0.472196 0.070668 0.0295658 -0.483214 0.0749905 0.0242024 -0.493418 
0.0785728 0.0188325 -0.502851 0.0814388 0.0135315 -0.511568 0.0836421 0.00836416 -0.519637 
0.0852611 0.00338063 -0.52713 0.0863921 -0.00138466 -0.534119 0.0871405 -0.00591236 -0.540673 
0.0876132 -0.0101954 -0.54685 0.0879098 -0.0142346 -0.552695 0.0881162 -0.018034 -0.558233 
0.0882995 -0.0215951 -0.56347 0.0885052 -0.0249136 -0.56839 0.0887566 -0.0279755 -0.572958 
0.0890564 -0.030757 -0.577122 0.0893903 -0.0332249 -0.580819 0.0897319 -0.0353394 -0.583978 
0.0900485 -0.0370584 -0.586529 0.0903067 -0.0383421 -0.58841 0.0904783 -0.0391578 -0.589568 
0.0905441 -0.0394839 -0.589971 
LINES 2 100
OFFSETS vtktypeint64
0 100 
CONNECTIVITY vtktypeint64
0 1 2 3 4 5 6 7 8 
9 10 11 12 13 14 15 16 17 
18 19 20 21 22 23 24 25 26 
27 28 29 30 31 32 33 34 35 
36 37 38 39 40 41 42 43 44 
45 46 47 48 49 50 51 52 53 
54 55 56 57 58 59 60 61 62 
63 64 65 66 67 68 69 70 71 
72 73 74 75 76 77 78 79 80 
81 82 83 84 85 86 87 88 89 
90 91 92 93 94 95 96 97 98 
99 
POINT_DATA 100
FIELD FieldData 3
_theta 1 100 double
0 0.031733259127 0.063466518254 0.095199777382 0.12693303651 0.15866629564 0.19039955476 0.22213281389 0.25386607302 
0.28559933214 0.31733259127 0.3490658504 0.38079910953 0.41253236865 0.44426562778 0.47599888691 0.50773214603 0.53946540516 
0.57119866429 0.60293192342 0.63466518254 0.66639844167 0.6981317008 0.72986495992 0.76159821905 0.79333147818 0.82506473731 
0.85679799643 0.88853125556 0.92026451469 0.95199777382 0.98373103294 1.0154642921 1.0471975512 1.0789308103 1.1106640695 
1.1423973286 1.1741305877 1.2058638468 1.237597106 1.2693303651 1.3010636242 1.3327968833 1.3645301425 1.3962634016 
1.4279966607 1.4597299198 1.491463179 1.5231964381 1.5549296972 1.5866629564 1.6183962155 1.6501294746 1.6818627337 
1.7135959929 1.745329252 1.7770625111 1.8087957702 1.8405290294 1.8722622885 1.9039955476 1.9357288068 1.9674620659 
1.999195325 2.0309285841 2.0626618433 2.0943951024 2.1261283615 2.1578616206 2.1895948798 2.2213281389 2.253061398 
2.2847946572 2.3165279163 2.3482611754 2.3799944345 2.4117276937 2.4434609528 2.4751942119 2.506927471 2.5386607302 
2.5703939893 2.6021272484 2.6338605076 2.6655937667 2.6973270258 2.7290602849 2.7607935441 2.7925268032 2.8242600623 
2.8559933214 2.8877265806 2.9194598397 2.9511930988 2.982926358 3.0146596171 3.0463928762 3.0781261353 3.1098593945 
3.1415926536 
_radius 1 100 double
1.3484504473e-15 0.013738591084 0.027401867982 0.040912164018 0.054196980681 0.067190775289 0.079835865711 0.092082599037 0.10388904115 
0.11522042126 0.12604847931 0.13635080048 0.14611021533 0.15531435934 0.16395546385 0.17203037003 0.17954066441 0.18649280338 
0.19289815893 0.19877302905 0.20413870923 0.20902164608 0.21345352732 0.21747102662 0.22111491819 0.2244283916 0.22745454502 
0.23023315876 0.23279697072 0.23516782072 0.23735316609 0.23934351994 0.24111127539 0.24261117859 0.24378248432 0.24455266054 
0.24484245584 0.24457218476 0.24366913671 0.2420759625 0.23975966731 0.23672045344 0.23299921213 0.22868211649 0.22390068912 
0.21882606377 0.21365703206 0.20860283525 0.20386324845 0.19960972265 0.1959714765 0.19302908435 0.19081568002 0.1893234504 
0.18851173664 0.18831337536 0.18863775574 0.18937161898 0.19038062733 0.19151503879 0.19262107919 0.19355669488 0.19420806197 
0.19450278635 0.19441695675 0.19397502896 0.19324307841 0.19231699503 0.19130774552 0.19032595112 0.18946774415 0.1888032349 
0.18836813967 0.18815850486 0.18812825438 0.18818945867 0.18821550704 0.18804749555 0.18750398122 0.18639377428 0.1845307716 
0.18174925354 0.17791782836 0.17295036537 0.16681268529 0.15952430781 0.15115509595 0.1418171592 0.1316528873 0.12082047107 
0.10947867581 0.097772877105 0.085824336249 0.073724277817 0.061533493259 0.049287021372 0.037002225182 0.024687726196 0.012350586833 
1.0197303631e-15 
_area 1 100 double
0 0.00051182033559 0.0020340847561 0.0045274151841 0.0079271700358 0.012145729423 0.017076722477 0.022601214337 0.028595102038 
0.034936382082 0.041510893819 0.048215746831 0.054960705532 0.061668771505 0.068277396304 0.074740892516 0.081033190214 0.087149121896 
0.093102621583 0.098921422131 0.10463918224 0.11028672798 0.11588423101 0.12143609288 0.12692996083 0.1323399019 0.13763151195 
0.14276584207 0.14770109229 0.15239349258 0.15679793673 0.16086650166 0.16454347396 0.16775864373 0.17042266298 0.17242743588 
0.17365207582 0.17397305941 0.17327693742 0.17147482569 0.16851838078 0.1644159403 0.15924538843 0.15315888751 0.14637567365 
0.13916279723 0.13180794955 0.12459065866 0.11775772126 0.11150853068 0.10600089508 0.10140768654 0.097917343156 0.095368061594 
0.093542785203 0.092229196892 0.091278444277 0.09055420999 0.089931933883 0.089364021246 0.088664439772 0.087750765165 0.086544770081 
0.084965101928 0.083021768859 0.080749667618 0.078304821057 0.075905623217 0.073802054405 0.072222691471 0.07131569284 0.071138475267 
0.071681715323 0.072883833382 0.074635227692 0.076780453178 0.079119966224 0.081411156069 0.083374148134 0.084709478173 0.085129072915 
0.084394351489 0.082351085949 0.078952178407 0.074264086441 0.068456884438 0.0617809949 0.054535640118 0.047034954881 0.039577292563 
0.032421752482 0.025773955352 0.019781258551 0.014536302035 0.010086967376 0.0064502072185 0.0036265438087 0.0016117238991 0.00040299367067 
3.3796547238e-17 
