# vtk DataFile Version 5.1
vtk output
ASCII
DATASET POLYDATA
POINTS 100 float
0.08282 0.0309633 -0.498843 0.0826484 0.0309727 -0.498648 0.0821605 0.031126 -0.498051 
0.0813725 0.0314166 -0.497026 0.0803072 0.031835 -0.495533 0.0789904 0.032371 -0.493522 
0.0774462 0.0330155 -0.490939 0.0756914 0.0337625 -0.487733 0.0737316 0.0346101 -0.48386 
0.0715576 0.0355618 -0.479284 0.0691441 0.0366255 -0.473989 0.0664503 0.0378131 -0.46797 
0.0634229 0.0391375 -0.461238 0.0600007 0.0406107 -0.453818 0.0561213 0.0422406 -0.445743 
0.0517286 0.0440284 -0.437052 0.0467801 0.0459659 -0.427787 0.0412541 0.0480348 -0.417986 
0.0351548 0.0502061 -0.407684 0.0285153 0.0524412 -0.396906 0.0213981 0.0546941 -0.385673 
0.0138919 0.0569144 -0.373999 0.0061066 0.0590511 -0.36189 -0.00183507 0.0610568 -0.349353 
-0.00980671 0.0628907 -0.336388 -0.0176884 0.064522 -0.322999 -0.0253765 0.0659317 -0.309186 
-0.0327912 0.0671129 -0.294954 -0.0398822 0.0680708 -0.280305 -0.0466307 0.0688198 -0.265242 
-0.0530478 0.0693819 -0.249764 -0.059169 0.0697821 -0.233868 -0.0650462 0.0700456 -0.217549 
-0.0707363 0.0701942 -0.200796 -0.07629 0.0702435 -0.183601 -0.0817394 0.0702015 -0.165955 
-0.0870884 0.0700672 -0.147856 -0.0923054 0.0698316 -0.129308 -0.0973197 0.0694787 -0.110333 
-0.102023 0.0689876 -0.0909644 -0.106277 0.068335 -0.0712578 -0.109919 0.0674981 -0.0512854 
-0.112781 0.0664568 -0.0311371 -0.114702 0.0651962 -0.0109164 -0.115544 0.0637077 0.00926436 
-0.115206 0.0619906 0.0292907 -0.113639 0.0600522 0.0490525 -0.11085 0.0579079 0.0684506 
-0.106904 0.0555808 0.0874028 -0.101924 0.0531014 0.105848 -0.0960781 0.0505068 0.123746 
-0.0895669 0.0478405 0.141083 -0.0826091 0.0451512 0.157862 -0.0754215 0.0424924 0.174103 
-0.068202 0.0399215 0.189837 -0.0611139 0.037498 0.205101 -0.0542745 0.035282 0.21993 
-0.0477488 0.0333313 0.234354 -0.0415485 0.0316985 0.248397 -0.035637 0.0304276 0.262074 
-0.0299392 0.0295505 0.275393 -0.0243554 0.0290832 0.28836 -0.0187768 0.0290238 0.30098 
-0.0131018 0.0293501 0.313262 -0.00725065 0.03002 0.325224 -0.00117686 0.0309728 0.336897 
0.00512585 0.0321323 0.348323 0.0116216 0.0334116 0.359554 0.0182359 0.0347195 0.370651 
0.0248632 0.0359672 0.381676 0.0313788 0.0370753 0.392686 0.0376525 0.0379801 0.403726 
0.0435625 0.0386385 0.414824 0.049008 0.0390312 0.425984 0.0539194 0.0391634 0.437184 
0.058264 0.0390626 0.448375 0.0620479 0.0387747 0.45949 0.0653122 0.0383578 0.470443 
0.0681267 0.0378746 0.481138 0.0705792 0.0373845 0.491485 0.0727644 0.0369362 0.501402 
0.0747718 0.036562 0.510826 0.0766755 0.0362735 0.519719 0.0785266 0.0360607 0.528071 
0.0803494 0.0358937 0.535898 0.0821409 0.0357267 0.54324 0.0838743 0.035505 0.550152 
0.0855062 0.0351726 0.556695 0.0869852 0.0346808 0.562926 0.0882611 0.0339961 0.568886 
0.0892946 0.0331061 0.574596 0.0900637 0.0320237 0.580045 0.0905682 0.0307877 0.585195 
0.090831 0.0294607 0.589976 0.0908952 0.0281236 0.594297 0.0908182 0.0268681 0.598052 
0.0906647 0.0257873 0.601131 0.0904974 0.0249665 0.603435 0.0903679 0.0244735 0.604882 
0.0903105 0.0243521 0.60542 
LINES 2 100
OFFSETS vtktypeint64
0 100 
CONNECTIVITY vtktypeint64
0 1 2 3 4 5 6 7 8 
9 10 11 12 13 14 15 16 17 
18 19 20 21 22 23 24 25 26 
27 28 29 30 31 32 33 34 35 
36 37 38 39 40 41 42 43 44 
45 46 47 48 49 50 51 52 53 
54 55 56 57 58 59 60 61 62 
63 64 65 66 67 68 69 70 71 
72 73 74 75 76 77 78 79 80 
81 82 83 84 85 86 87 88 89 
90 91 92 93 94 95 96 97 98 
99 
POINT_DATA 100
FIELD FieldData 3
_theta 1 100 double
0 0.031733259127 0.063466518254 0.095199777382 0.12693303651 0.15866629564 0.19039955476 0.22213281389 0.25386607302 
0.28559933214 0.31733259127 0.3490658504 0.38079910953 0.41253236865 0.44426562778 0.47599888691 0.50773214603 0.53946540516 
0.57119866429 0.60293192342 0.63466518254 0.66639844167 0.6981317008 0.72986495992 0.76159821905 0.79333147818 0.82506473731 
0.85679799643 0.88853125556 0.92026451469 0.95199777382 0.98373103294 1.0154642921 1.0471975512 1.0789308103 1.1106640695 
1.1423973286 1.1741305877 1.2058638468 1.237597106 1.2693303651 1.3010636242 1.3327968833 1.3645301425 1.3962634016 
1.4279966607 1.4597299198 1.491463179 1.5231964381 1.5549296972 1.5866629564 1.6183962155 1.6501294746 1.6818627337 
1.7135959929 1.745329252 1.7770625111 1.8087957702 1.8405290294 1.8722622885 1.9039955476 1.9357288068 1.9674620659 
1.999195325 2.0309285841 2.0626618433 2.0943951024 2.1261283615 2.1578616206 2.1895948798 2.2213281389 2.253061398 
2.2847946572 2.3165279163 2.3482611754 2.3799944345 2.4117276937 2.4434609528 2.4751942119 2.506927471 2.5386607302 
2.5703939893 2.6021272484 2.6338605076 2.6655937667 2.6973270258 2.7290602849 2.7607935441 2.7925268032 2.8242600623 
2.8559933214 2.8877265806 2.9194598397 2.9511930988 2.982926358 3.0146596171 3.0463928762 3.0781261353 3.1098593945 
3.1415926536 
_radius 1 100 double
6.1620542484e-16 0.012330965095 0.024588896089 0.036706007999 0.048624107787 0.060294149327 0.07167187193 0.082710947252 0.09335586156 
0.1035368574 0.11316873041 0.12215429646 0.13039216734 0.13778744266 0.14426336731 0.14977203921 0.1543027083 0.15788674069 
0.16059866053 0.16255280285 0.16389524098 0.16479110071 0.16540828702 0.16589981424 0.16638779004 0.16695208473 0.16762563981 
0.16839659913 0.16921574485 0.17000693152 0.1706786645 0.17113605788 0.17129311704 0.17108513045 0.17048015725 0.16948767697 
0.16816192292 0.1665978265 0.16491950921 0.16326467463 0.16177068844 0.16056670687 0.1597718484 0.1594960613 0.1598396819 
0.16088863978 0.16270421658 0.16530924128 0.16867554509 0.17271827227 0.17730026991 0.18224582944 0.18736008699 0.19244955347 
0.19734002041 0.20188955002 0.20599573772 0.20959748993 0.21267206049 0.21522828561 0.21729714459 0.21892097743 0.22014275935 
0.2209967079 0.22150126954 0.22165529599 0.22143795142 0.22081248318 0.21973338953 0.21815582242 0.2160454902 0.21338709899 
0.21018960564 0.20648719659 0.20233577019 0.19780555695 0.19297117714 0.18790079522 0.18264605984 0.17723426807 0.17166378843 
0.16590335871 0.15989550757 0.15356397276 0.14682448312 0.13959762095 0.13182186383 0.12346460345 0.11452914219 0.10505635845 
0.095120720266 0.084821362649 0.074269801218 0.063576374359 0.052837612829 0.042126439501 0.031486494862 0.020931117067 0.010446753864 
8.2983586868e-16 
_area 1 100 double
0 0.00034644571946 0.0013876515826 0.0031297876565 0.0055829911595 0.0087571691915 0.012654109222 0.017257272365 0.022518903247 
0.028346063283 0.034591913018 0.041057475624 0.047503340363 0.053667642996 0.059287334734 0.064121499665 0.06797651538 0.070732316017 
0.072366411442 0.072968495845 0.072736511578 0.071949404952 0.070923897313 0.069971978706 0.069365752744 0.069291285995 0.06978639771 
0.0707310318 0.071917512126 0.073119597529 0.074129821195 0.074785422876 0.074989389521 0.074727490127 0.074216891478 0.073528456425 
0.072773340853 0.072190515923 0.071952009717 0.071935192872 0.072130659983 0.072559408664 0.073245694654 0.074222648437 0.075530133457 
0.077226622444 0.079406841658 0.082184158188 0.085645135357 0.089814323577 0.094645435594 0.10003137498 0.10581866894 0.11181738806 
0.11780733231 0.12354652483 0.12879027034 0.13332359978 0.13699737068 0.13975253976 0.14162291777 0.14271620995 0.1431799137 
0.14316170198 0.14277437877 0.1420741593 0.14105786838 0.13967912356 0.13787618131 0.13559894444 0.13282468908 0.12956024013 
0.12583579334 0.12169703067 0.11719856403 0.11239853693 0.1073541399 0.1021185739 0.096739482766 0.09125778498 0.085705647148 
0.080103347289 0.074456265787 0.068754371448 0.062976662372 0.057101603925 0.05112187955 0.045059049933 0.038972765822 0.032960762582 
0.027149138899 0.021675724415 0.016671321167 0.012243765782 0.0084683807319 0.0053861826704 0.0030090163644 0.0013292337858 0.00033093235596 
4.8238781136e-18 
