# vtk DataFile Version 5.1
vtk output
ASCII
DATASET POLYDATA
POINTS 100 float
0.0982568 0.0279789 0.697761 0.098226 0.0282254 0.697408 0.098223 0.0288331 0.696225 
0.0982067 0.0297589 0.694251 0.0981146 0.030937 0.691545 0.0978717 0.0322865 0.688177 
0.0974004 0.0337199 0.684218 0.0966319 0.035153 0.67973 0.095515 0.0365135 0.674753 
0.0940227 0.0377472 0.669304 0.0921559 0.0388222 0.663371 0.0899416 0.0397296 0.656915 
0.0874285 0.040481 0.649878 0.0846785 0.0411032 0.64219 0.0817569 0.0416312 0.63378 
0.0787208 0.0421004 0.62459 0.0756101 0.0425385 0.614585 0.0724394 0.04296 0.603759 
0.0691945 0.0433613 0.592145 0.0658324 0.0437207 0.579812 0.0622863 0.0439996 0.566861 
0.0584735 0.0441475 0.553416 0.0543066 0.0441086 0.539618 0.0497049 0.0438303 0.525605 
0.0446066 0.0432706 0.511506 0.0389773 0.0424057 0.497426 0.0328163 0.0412348 0.483437 
0.0261579 0.0397831 0.469577 0.0190681 0.038101 0.455844 0.0116372 0.0362609 0.442205 
0.00396897 0.0343521 0.428597 -0.00383189 0.0324729 0.41494 -0.0116723 0.0307232 0.401143 
-0.0194818 0.0291965 0.387115 -0.0272201 0.0279734 0.372776 -0.0348801 0.027117 0.358054 
-0.0424857 0.0266703 0.342897 -0.0500849 0.0266564 0.327265 -0.0577384 0.0270801 0.311135 
-0.0655052 0.0279317 0.294487 -0.0734276 0.0291912 0.277311 -0.0815174 0.0308326 0.259593 
-0.0897444 0.0328281 0.241319 -0.0980301 0.0351501 0.222469 -0.106248 0.0377732 0.203023 
-0.114227 0.0406731 0.182964 -0.121768 0.0438255 0.162279 -0.128654 0.0472039 0.14097 
-0.134673 0.0507766 0.119054 -0.139639 0.0545054 0.0965714 -0.143409 0.0583441 0.0735839 
-0.145898 0.0622386 0.0501749 -0.147092 0.0661293 0.0264455 -0.147043 0.0699535 0.00250807 
-0.145873 0.0736495 -0.0215213 -0.143759 0.0771608 -0.0455307 -0.140915 0.0804397 -0.0694205 
-0.13757 0.08345 -0.0931084 -0.133951 0.086168 -0.116532 -0.130255 0.0885821 -0.139652 
-0.126631 0.09069 -0.162442 -0.123172 0.0924945 -0.184891 -0.119899 0.0939989 -0.20699 
-0.11677 0.0952019 -0.228729 -0.113681 0.0960932 -0.250085 -0.110483 0.0966509 -0.271022 
-0.107002 0.0968412 -0.291486 -0.103053 0.0966204 -0.311412 -0.0984721 0.0959396 -0.330723 
-0.093127 0.0947514 -0.349344 -0.0869394 0.0930177 -0.367212 -0.0798934 0.0907178 -0.384284 
-0.0720407 0.0878561 -0.400547 -0.063499 0.0844663 -0.416024 -0.0544439 0.0806141 -0.430775 
-0.0450958 0.0763956 -0.444894 -0.0357035 0.0719314 -0.458497 -0.0265252 0.0673586 -0.471715 
-0.0178096 0.0628193 -0.48467 -0.00977927 0.0584481 -0.49746 -0.00261595 0.0543601 -0.510148 
0.0035493 0.05064 -0.522742 0.00864146 0.0473349 -0.535192 0.0126422 0.0444509 -0.547389 
0.0155859 0.0419541 -0.559173 0.0175524 0.0397769 -0.570344 0.0186568 0.037828 -0.580687 
0.0190377 0.0360046 -0.58999 0.0188454 0.0342073 -0.598072 0.0182312 0.0323533 -0.604803 
0.0173373 0.0303883 -0.610124 0.01629 0.0282946 -0.614052 0.0151955 0.0260942 -0.616689 
0.0141374 0.0238475 -0.618208 0.0131774 0.0216466 -0.61884 0.0123579 0.0196045 -0.61885 
0.0117053 0.0178417 -0.61851 0.0112342 0.0164714 -0.618069 0.010952 0.015586 -0.617726 
0.0108618 0.0152457 -0.617612 
LINES 2 100
OFFSETS vtktypeint64
0 100 
CONNECTIVITY vtktypeint64
0 1 2 3 4 5 6 7 8 
9 10 11 12 13 14 15 16 17 
18 19 20 21 22 23 24 25 26 
27 28 29 30 31 32 33 34 35 
36 37 38 39 40 41 42 43 44 
45 46 47 48 49 50 51 52 53 
54 55 56 57 58 59 60 61 62 
63 64 65 66 67 68 69 70 71 
72 73 74 75 76 77 78 79 80 
81 82 83 84 85 86 87 88 89 
90 91 92 93 94 95 96 97 98 
99 
POINT_DATA 100
FIELD FieldData 3
_theta 1 100 double
0 0.031733259127 0.063466518254 0.095199777382 0.12693303651 0.15866629564 0.19039955476 0.22213281389 0.25386607302 
0.28559933214 0.31733259127 0.3490658504 0.38079910953 0.41253236865 0.44426562778 0.47599888691 0.50773214603 0.53946540516 
0.57119866429 0.60293192342 0.63466518254 0.66639844167 0.6981317008 0.72986495992 0.76159821905 0.79333147818 0.82506473731 
0.85679799643 0.88853125556 0.92026451469 0.95199777382 0.98373103294 1.0154642921 1.0471975512 1.0789308103 1.1106640695 
1.1423973286 1.1741305877 1.2058638468 1.237597106 1.2693303651 1.3010636242 1.3327968833 1.3645301425 1.3962634016 
1.4279966607 1.4597299198 1.491463179 1.5231964381 1.5549296972 1.5866629564 1.6183962155 1.6501294746 1.6818627337 
1.7135959929 1.745329252 1.7770625111 1.8087957702 1.8405290294 1.8722622885 1.9039955476 1.9357288068 1.9674620659 
1.999195325 2.0309285841 2.0626618433 2.0943951024 2.1261283615 2.1578616206 2.1895948798 2.2213281389 2.253061398 
2.2847946572 2.3165279163 2.3482611754 2.3799944345 2.4117276937 2.4434609528 2.4751942119 2.506927471 2.5386607302 
2.5703939893 2.6021272484 2.6338605076 2.6655937667 2.6973270258 2.7290602849 2.7607935441 2.7925268032 2.8242600623 
2.8559933214 2.8877265806 2.9194598397 2.9511930988 2.982926358 3.0146596171 3.0463928762 3.0781261353 3.1098593945 
3.1415926536 
_radius 1 100 double
8.8928903255e-17 0.014577408539 0.029053759236 0.043324401927 0.057286511985 0.070840525358 0.083892120902 0.096355027453 0.10815474151 
0.11923285291 0.12955122691 0.13909500939 0.14787350771 0.15591848587 0.16328009692 0.17002121567 0.17621108566 0.18191899006 
0.18720835748 0.19213156862 0.19672581896 0.20101060896 0.20498756929 0.2086431862 0.21195450187 0.21489713531 0.21745423008 
0.21962442628 0.22142685956 0.22290160048 0.22410483143 0.22509925268 0.22594145797 0.22666901729 0.22729038652 0.22778020607 
0.22808107973 0.22811115321 0.22777559213 0.22697980464 0.22564270594 0.22370892206 0.22115918043 0.21801814692 0.21435877531 
0.21030206023 0.20601116634 0.20167944652 0.19751295068 0.19370951006 0.19043786522 0.18782087118 0.185926037 0.18476464986 
0.18429827416 0.18444952392 0.18511344436 0.18616686318 0.18747526992 0.18889896678 0.19030083754 0.19155648446 0.19256502185 
0.19325760866 0.19360159665 0.1935999916 0.19328739834 0.19272403001 0.19198884762 0.19117205763 0.19036657177 0.18965791197 
0.18911254409 0.18876567178 0.18861074292 0.18859366311 0.18861428809 0.18853594942 0.18820121568 0.18745009825 0.18613643532 
0.18413920297 0.1813672692 0.17775786457 0.1732703633 0.16787772964 0.16155822244 0.15428975169 0.14604868009 0.13681379541 
0.12657462042 0.11534155067 0.10315434916 0.090085944438 0.076240115919 0.061743691932 0.046735532592 0.031355426466 0.015736018682 
1.253310886e-15 
_area 1 100 double
0 0.00050454656646 0.0020066025744 0.0044717057215 0.0078433095768 0.012043931535 0.01697659985 0.02252682372 0.028565557952 
0.034953537167 0.041546805307 0.048202642553 0.05478518343 0.061171158163 0.067257139591 0.07296871879 0.078269789629 0.083168916497 
0.087720206244 0.09201709846 0.096178430708 0.10032722615 0.10456439435 0.1089431383 0.11345362954 0.11802401045 0.12253419543 
0.12683623217 0.13077949345 0.13423902826 0.13713900327 0.13946418385 0.14125562479 0.14258991347 0.14355221711 0.14420971127 
0.14458930003 0.14466275731 0.14433910324 0.14347280309 0.14190205221 0.1395052807 0.13624388906 0.13217946388 0.12747186539 
0.12236232106 0.11714098302 0.11210065868 0.10748478811 0.10344360369 0.10001512807 0.097141197086 0.09470949347 0.092597653256 
0.09070162895 0.088945944562 0.087283653917 0.085697201294 0.084204774667 0.082874021997 0.081857391471 0.081233346946 0.08106407673 
0.081295145089 0.081697608377 0.082010752786 0.082032694663 0.081657628142 0.080883166745 0.079759589468 0.078436716055 0.077118501153 
0.075997653453 0.075198670684 0.07474358991 0.074555475028 0.074487070603 0.074357185566 0.073987415358 0.073235750661 0.072019681139 
0.070319525896 0.068160192851 0.065579770331 0.06259713819 0.059190473131 0.055300520867 0.050864179064 0.045859864588 0.040339008906 
0.034434696365 0.028352071452 0.022346598753 0.016693305942 0.011649811535 0.0074195736173 0.0041261171702 0.0018092071491 0.00044746086121 
1.4929075657e-17 
