# vtk DataFile Version 5.1
vtk output
ASCII
DATASET POLYDATA
POINTS 100 float
-0.0393167 0.0241467 -0.718949 -0.0391058 0.0243185 -0.718591 -0.0384921 0.0249398 -0.717591 
-0.037551 0.0259552 -0.715924 -0.0363984 0.0272799 -0.713555 -0.0351795 0.0288089 -0.710438 
-0.0340529 0.0304288 -0.706525 -0.0331758 0.0320305 -0.701769 -0.0326887 0.0335205 -0.696131 
-0.032703 0.0348315 -0.689579 -0.0332926 0.0359286 -0.682096 -0.0344901 0.0368125 -0.673675 
-0.0362875 0.0375185 -0.664319 -0.0386421 0.0381117 -0.654039 -0.0414845 0.0386787 -0.642848 
-0.04473 0.0393178 -0.630759 -0.0482896 0.0401273 -0.617782 -0.052081 0.041195 -0.60392 
-0.0560359 0.042589 -0.589173 -0.0601059 0.0443503 -0.573537 -0.0642636 0.04649 -0.557011 
-0.0685011 0.0489881 -0.539594 -0.0728253 0.0517967 -0.521298 -0.077251 0.0548451 -0.502148 
-0.0817946 0.0580475 -0.482184 -0.0864667 0.0613103 -0.461465 -0.0912669 0.0645407 -0.440063 
-0.096181 0.0676528 -0.418066 -0.10118 0.0705733 -0.395566 -0.106221 0.073244 -0.372655 
-0.111253 0.0756225 -0.349421 -0.116216 0.0776812 -0.325935 -0.121054 0.0794038 -0.30225 
-0.125707 0.0807824 -0.278398 -0.130125 0.0818123 -0.254392 -0.134259 0.0824895 -0.230223 
-0.138065 0.0828071 -0.205874 -0.141496 0.0827547 -0.181323 -0.144503 0.082318 -0.15655 
-0.147026 0.0814807 -0.13155 -0.148995 0.0802268 -0.106337 -0.150328 0.078544 -0.0809478 
-0.150932 0.0764268 -0.0554454 -0.15071 0.0738798 -0.0299157 -0.149566 0.0709198 -0.00446182 
-0.147414 0.0675773 0.0208031 -0.144193 0.0638961 0.0457659 -0.139869 0.0599332 0.0703228 
-0.134447 0.0557562 0.0943888 -0.127978 0.0514414 0.117904 -0.120553 0.0470708 0.140835 
-0.112304 0.0427293 0.163181 -0.103391 0.0385024 0.18496 -0.0939974 0.0344738 0.206212 
-0.0843068 0.0307235 0.226985 -0.0744944 0.0273262 0.247323 -0.0647108 0.0243499 0.267264 
-0.0550715 0.0218542 0.286826 -0.04565 0.0198886 0.306005 -0.0364761 0.0184907 0.324776 
-0.0275396 0.0176836 0.343096 -0.0187985 0.0174744 0.360908 -0.0101912 0.0178515 0.378154 
-0.00165066 0.0187841 0.394786 0.00688086 0.0202211 0.410772 0.0154394 0.0220929 0.42611 
0.0240299 0.0243132 0.440829 0.0326213 0.0267835 0.454993 0.0411473 0.0293986 0.468698 
0.0495124 0.0320525 0.482062 0.0576019 0.0346459 0.495216 0.0652955 0.0370927 0.508288 
0.0724813 0.0393258 0.521392 0.0790697 0.0413012 0.534613 0.0850047 0.0430002 0.547996 
0.0902701 0.0444289 0.561541 0.0948911 0.0456149 0.575203 0.098931 0.0466028 0.588891 
0.102482 0.0474468 0.602483 0.105653 0.0482032 0.615833 0.108555 0.0489223 0.628787 
0.111287 0.0496421 0.6412 0.113923 0.0503827 0.652945 0.116504 0.0511442 0.663927 
0.119035 0.0519065 0.67409 0.121482 0.0526328 0.683413 0.123785 0.0532748 0.691914 
0.125865 0.05378 0.699638 0.127639 0.0540996 0.706649 0.129034 0.0541969 0.713017 
0.13 0.0540535 0.718806 0.130521 0.0536738 0.724067 0.13062 0.0530871 0.728828 
0.130357 0.0523455 0.733092 0.129827 0.0515202 0.736838 0.129147 0.0506941 0.740029 
0.128441 0.0499534 0.742611 0.127831 0.049378 0.744533 0.127413 0.049033 0.745748 
0.127252 0.0489609 0.746224 
LINES 2 100
OFFSETS vtktypeint64
0 100 
CONNECTIVITY vtktypeint64
0 1 2 3 4 5 6 7 8 
9 10 11 12 13 14 15 16 17 
18 19 20 21 22 23 24 25 26 
27 28 29 30 31 32 33 34 35 
36 37 38 39 40 41 42 43 44 
45 46 47 48 49 50 51 52 53 
54 55 56 57 58 59 60 61 62 
63 64 65 66 67 68 69 70 71 
72 73 74 75 76 77 78 79 80 
81 82 83 84 85 86 87 88 89 
90 91 92 93 94 95 96 97 98 
99 
POINT_DATA 100
FIELD FieldData 3
_theta 1 100 double
0 0.031733259127 0.063466518254 0.095199777382 0.12693303651 0.15866629564 0.19039955476 0.22213281389 0.25386607302 
0.28559933214 0.31733259127 0.3490658504 0.38079910953 0.41253236865 0.44426562778 0.47599888691 0.50773214603 0.53946540516 
0.57119866429 0.60293192342 0.63466518254 0.66639844167 0.6981317008 0.72986495992 0.76159821905 0.79333147818 0.82506473731 
0.85679799643 0.88853125556 0.92026451469 0.95199777382 0.98373103294 1.0154642921 1.0471975512 1.0789308103 1.1106640695 
1.1423973286 1.1741305877 1.2058638468 1.237597106 1.2693303651 1.3010636242 1.3327968833 1.3645301425 1.3962634016 
1.4279966607 1.4597299198 1.491463179 1.5231964381 1.5549296972 1.5866629564 1.6183962155 1.6501294746 1.6818627337 
1.7135959929 1.745329252 1.7770625111 1.8087957702 1.8405290294 1.8722622885 1.9039955476 1.9357288068 1.9674620659 
1.999195325 2.0309285841 2.0626618433 2.0943951024 2.1261283615 2.1578616206 2.1895948798 2.2213281389 2.253061398 
2.2847946572 2.3165279163 2.3482611754 2.3799944345 2.4117276937 2.4434609528 2.4751942119 2.506927471 2.5386607302 
2.5703939893 2.6021272484 2.6338605076 2.6655937667 2.6973270258 2.7290602849 2.7607935441 2.7925268032 2.8242600623 
2.8559933214 2.8877265806 2.9194598397 2.9511930988 2.982926358 3.0146596171 3.0463928762 3.0781261353 3.1098593945 
3.1415926536 
_radius 1 100 double
7.7799978813e-16 0.013166460857 0.026387349214 0.039700978841 0.053119419144 0.066617350246 0.080124254981 0.093521608948 0.10664619452 
0.11929971623 0.13126385186 0.14231900235 0.15226444977 0.16093745363 0.1682290127 0.17409454034 0.17855843486 0.18171231938 
0.18370743593 0.18474221005 0.18504633342 0.18486287369 0.18442997024 0.1839636563 0.18364327413 0.18360079449 0.18391505102 
0.18461136469 0.18566623133 0.18701584817 0.18856668571 0.19020646375 0.19181470927 0.1932729767 0.1944751528 0.1953378593 
0.19581013922 0.19588090226 0.19558240667 0.19498849941 0.19420732336 0.19336945322 0.19261354423 0.19207219199 0.19186063051 
0.19207016222 0.1927668744 0.19399445544 0.19577847012 0.19812921034 0.20104149842 0.20449182757 0.20843476598 0.2128008466 
0.21749728449 0.22241154254 0.22741682041 0.23237832984 0.23715954697 0.24162809138 0.24566118285 0.24915069372 0.25200770114 
0.25416625415 0.2555859326 0.25625280813 0.25617867576 0.25539882256 0.2539689003 0.25196140321 0.24946176169 0.24656344195 
0.24336119756 0.23994208865 0.23637495489 0.23270016327 0.22892200655 0.22500573368 0.22088001048 0.21644422864 0.21157911901 
0.20615884185 0.20006297673 0.19318730614 0.18545273078 0.17681196711 0.16725384627 0.15680508398 0.14552936867 0.13352359866 
0.12091118669 0.10783261149 0.094433828421 0.080853652884 0.067211639926 0.053598145219 0.040068085406 0.026639441058 0.013296864863 
1.5019776265e-15 
_area 1 100 double
0 0.00041346056352 0.0016747817226 0.003839974088 0.0069818135763 0.011164826768 0.016418388445 0.022711883516 0.029935484671 
0.037890009556 0.046289119959 0.054776422912 0.062957839984 0.070445263066 0.07690281715 0.082085403977 0.085861986379 0.088221413111 
0.089263309514 0.089178642719 0.088224278743 0.086694826885 0.084894246562 0.083108959746 0.081583977142 0.080504471853 0.079986315003 
0.080077931087 0.080771526775 0.082017538896 0.083735781737 0.085819097535 0.088131178285 0.090506876677 0.09276293848 0.094722239288 
0.096248296789 0.097279275592 0.097846472196 0.098071428465 0.098178858995 0.098507780695 0.099124814058 0.10007569058 0.10141321156 
0.10313609489 0.10522368976 0.10765264101 0.11040396478 0.11348548194 0.11697017465 0.12107857749 0.12600323121 0.13169340669 
0.13808584226 0.14503667988 0.15234679304 0.15978422301 0.16709806512 0.17403115924 0.18033569826 0.18579168954 0.1902246814 
0.19351695525 0.19560742259 0.1964804699 0.19615038149 0.19465091049 0.19203613748 0.18839122137 0.183845502 0.1785793273 
0.17281911253 0.16681838941 0.16082289783 0.15501939157 0.14948253912 0.14415451567 0.13887598781 0.13344385654 0.12766314325 
0.12138112656 0.11450419619 0.10700034669 0.098891443886 0.090241477669 0.081147824621 0.071739449784 0.062179748717 0.05266710668 
0.043426962235 0.034694060263 0.026688817342 0.019594485064 0.013541450998 0.0086024497576 0.004799098219 0.0021172309282 0.00052662430271 
1.3931787797e-17 
