# vtk DataFile Version 5.1
vtk output
ASCII
DATASET POLYDATA
POINTS 100 float
0.0719249 0.0567977 0.639422 0.0720782 0.0568946 0.63903 0.0725692 0.0570546 0.637704 
0.0733485 0.0572552 0.635488 0.0743393 0.057461 0.63245 0.0754448 0.0576285 0.628673 
0.0765578 0.0577112 0.624247 0.0775706 0.0576659 0.619257 0.0783842 0.0574583 0.613772 
0.0789169 0.0570678 0.607839 0.0791098 0.0564907 0.601479 0.07893 0.0557415 0.594689 
0.0783703 0.0548525 0.587441 0.0774465 0.0538701 0.579692 0.0761915 0.0528511 0.571393 
0.0746484 0.0518562 0.562501 0.0728629 0.0509438 0.552985 0.0708751 0.0501633 0.54284 
0.0687138 0.0495504 0.532085 0.066392 0.0491221 0.520773 0.0639054 0.0488756 0.508981 
0.0612333 0.0487879 0.49681 0.0583419 0.0488185 0.484373 0.0551904 0.0489137 0.471784 
0.0517371 0.0490126 0.459151 0.0479469 0.0490536 0.446562 0.0437976 0.0489813 0.434075 
0.0392845 0.0487527 0.421722 0.0344235 0.0483418 0.409497 0.0292508 0.0477425 0.397367 
0.0238203 0.0469694 0.385271 0.018199 0.0460563 0.373135 0.0124596 0.0450524 0.360874 
0.00667356 0.0440173 0.348406 0.000903359 0.0430147 0.335657 -0.00480397 0.042106 0.322571 
-0.0104211 0.0413445 0.309109 -0.0159421 0.0407706 0.29525 -0.0213812 0.0404088 0.280991 
-0.0267683 0.0402666 0.266339 -0.0321422 0.0403355 0.251307 -0.0375416 0.0405945 0.235908 
-0.0429956 0.041014 0.220149 -0.0485139 0.0415611 0.204027 -0.054079 0.0422056 0.187526 
-0.0596402 0.0429242 0.170622 -0.0651115 0.0437047 0.153281 -0.0703727 0.0445474 0.135467 
-0.0752741 0.0454657 0.117147 -0.0796454 0.0464834 0.0982945 -0.0833066 0.0476313 0.0788994 
-0.0860809 0.0489422 0.0589678 -0.0878075 0.050445 0.038525 -0.0883549 0.0521594 0.0176149 
-0.0876303 0.0540911 -0.00370268 -0.0855878 0.0562289 -0.0253564 -0.0822311 0.0585426 -0.0472685 
-0.0776135 0.0609848 -0.06936 -0.071833 0.0634925 -0.0915559 -0.0650244 0.0659927 -0.113788 
-0.0573481 0.0684071 -0.135998 -0.0489782 0.0706584 -0.158134 -0.0400892 0.0726758 -0.180153 
-0.0308445 0.0743999 -0.202014 -0.021386 0.0757851 -0.223675 -0.0118277 0.0768012 -0.245089 
-0.00225114 0.0774317 -0.266204 0.00729417 0.0776714 -0.286958 0.0167877 0.0775217 -0.307279 
0.0262316 0.0769862 -0.327093 0.035643 0.0760654 -0.346323 0.0450442 0.074753 -0.364895 
0.0544541 0.0730339 -0.382748 0.0638796 0.0708842 -0.399833 0.0733091 0.0682732 -0.416123 
0.0827093 0.0651688 -0.43161 0.0920234 0.0615432 -0.446307 0.101174 0.0573811 -0.460246 
0.110065 0.0526869 -0.47347 0.118591 0.0474918 -0.486025 0.126643 0.0418584 -0.497959 
0.134118 0.0358823 -0.509307 0.140923 0.029691 -0.520091 0.146986 0.0234384 -0.530311 
0.152261 0.0172962 -0.539951 0.156725 0.0114424 -0.548976 0.160386 0.00604827 -0.557336 
0.163279 0.00126469 -0.564979 0.16546 -0.00279069 -0.571856 0.167007 -0.00604368 -0.577926 
0.168008 -0.00847041 -0.58317 0.168561 -0.0100996 -0.587591 0.168767 -0.0110103 -0.591219 
0.168722 -0.0113239 -0.594108 0.168516 -0.0111934 -0.596334 0.16823 -0.0107879 -0.597984 
0.167929 -0.0102768 -0.59915 0.167667 -0.00981254 -0.599916 0.167483 -0.00951581 -0.600352 
0.167399 -0.00946356 -0.600501 
LINES 2 100
OFFSETS vtktypeint64
0 100 
CONNECTIVITY vtktypeint64
0 1 2 3 4 5 6 7 8 
9 10 11 12 13 14 15 16 17 
18 19 20 21 22 23 24 25 26 
27 28 29 30 31 32 33 34 35 
36 37 38 39 40 41 42 43 44 
45 46 47 48 49 50 51 52 53 
54 55 56 57 58 59 60 61 62 
63 64 65 66 67 68 69 70 71 
72 73 74 75 76 77 78 79 80 
81 82 83 84 85 86 87 88 89 
90 91 92 93 94 95 96 97 98 
99 
POINT_DATA 100
FIELD FieldData 3
_theta 1 100 double
0 0.031733259127 0.063466518254 0.095199777382 0.12693303651 0.15866629564 0.19039955476 0.22213281389 0.25386607302 
0.28559933214 0.31733259127 0.3490658504 0.38079910953 0.41253236865 0.44426562778 0.47599888691 0.50773214603 0.53946540516 
0.57119866429 0.60293192342 0.63466518254 0.66639844167 0.6981317008 0.72986495992 0.76159821905 0.79333147818 0.82506473731 
0.85679799643 0.88853125556 0.92026451469 0.95199777382 0.98373103294 1.0154642921 1.0471975512 1.0789308103 1.1106640695 
1.1423973286 1.1741305877 1.2058638468 1.237597106 1.2693303651 1.3010636242 1.3327968833 1.3645301425 1.3962634016 
1.4279966607 1.4597299198 1.491463179 1.5231964381 1.5549296972 1.5866629564 1.6183962155 1.6501294746 1.6818627337 
1.7135959929 1.745329252 1.7770625111 1.8087957702 1.8405290294 1.8722622885 1.9039955476 1.9357288068 1.9674620659 
1.999195325 2.0309285841 2.0626618433 2.0943951024 2.1261283615 2.1578616206 2.1895948798 2.2213281389 2.253061398 
2.2847946572 2.3165279163 2.3482611754 2.3799944345 2.4117276937 2.4434609528 2.4751942119 2.506927471 2.5386607302 
2.5703939893 2.6021272484 2.6338605076 2.6655937667 2.6973270258 2.7290602849 2.7607935441 2.7925268032 2.8242600623 
2.8559933214 2.8877265806 2.9194598397 2.9511930988 2.982926358 3.0146596171 3.0463928762 3.0781261353 3.1098593945 
3.1415926536 
_radius 1 100 double
1.1248073296e-15 0.013726393894 0.027416795056 0.041029159689 0.054518180622 0.067832535953 0.080911777402 0.093684157773 0.10606692753 
0.11797018278 0.1293043428 0.13999016772 0.14996935283 0.15921345427 0.16772924206 0.17555935634 0.18277808649 0.18948295616 
0.19578342779 0.20178838504 0.20759412674 0.21327445214 0.21887407342 0.2244060878 0.22985363503 0.23517525143 0.24031292764 
0.24520155952 0.24977835255 0.25399075533 0.25780164154 0.26119079502 0.26415234642 0.26668861849 0.26880165561 0.27048427871 
0.27171264061 0.27244194168 0.27260632529 0.27212320541 0.27090157917 0.2688533721 0.2659065759 0.26201880392 0.2571898202 
0.25147154617 0.24497403235 0.23786597198 0.23036863567 0.22274273575 0.21526875814 0.20822265467 0.20185015633 0.1963438483 
0.19182707639 0.18834753092 0.18588111564 0.18434400368 0.1836086556 0.18351922711 0.18390368612 0.184583122 0.18538110788 
0.1861357425 0.18671417729 0.18702631167 0.18703342718 0.18674913615 0.18623252257 0.18557521816 0.1848849145 0.1842677248 
0.18381136054 0.18357069276 0.18355708915 0.18373280527 0.18401133724 0.18426382495 0.18433049407 0.18403517434 0.18320051032 
0.18166168119 0.17927708567 0.17593524029 0.17155785493 0.16609958986 0.15954535629 0.15190620728 0.14321485775 0.1335216545 
0.12289142132 0.11140113992 0.099138052949 0.086197631912 0.072680997671 0.058691751525 0.04433261584 0.029702603414 0.014895480231 
1.3545768772e-15 
_area 1 100 double
0 0.00053001921302 0.0021136932621 0.0047309119352 0.008345155052 0.012899642796 0.018313211611 0.024477174044 0.031254790356 
0.03848505869 0.045991872377 0.05359806525 0.061142017857 0.068493319799 0.075564197178 0.082314910186 0.088753201576 0.094929047041 
0.10092590719 0.10684882109 0.11280910623 0.11890617695 0.12520911563 0.13174273253 0.13848294743 0.14536366717 0.15229314958 
0.15917420937 0.16592110176 0.17246731343 0.17876263566 0.18476274643 0.19041678808 0.19565726352 0.200394535 0.20451693892 
0.20789547921 0.21038695243 0.21182925989 0.2120413616 0.21084757122 0.20811186329 0.20376317785 0.19781302659 0.19036786662 
0.1816340958 0.17191250096 0.16158018928 0.1510597589 0.14077729646 0.1311136964 0.12235951058 0.11468960593 0.10816675005 
0.10275969967 0.098355939059 0.094777984845 0.091825910375 0.089332703784 0.087197936998 0.085381557659 0.084014152129 0.083052849195 
0.08210200473 0.081005656974 0.079684781447 0.078127676383 0.076382296092 0.074537489849 0.072702644266 0.070992911331 0.069520326549 
0.068388734602 0.06767983189 0.067432432993 0.067728157248 0.068421835931 0.069275872223 0.070097199473 0.070709670923 0.070955060943 
0.070700287161 0.069840026087 0.068294756732 0.066008030776 0.062946653207 0.059104888151 0.054511550473 0.049238080261 0.043405371018 
0.037186187109 0.030799505556 0.024494975128 0.018529554942 0.013141729799 0.0085297055632 0.0048387512687 0.0021601953626 0.00054110983435 
4.4102844379e-17 
