# vtk DataFile Version 5.1
vtk output
ASCII
DATASET POLYDATA
POINTS 100 float
0.179695 0.0592234 0.708708 0.179412 0.0592849 0.708773 0.178615 0.0593685 0.708814 
0.177338 0.0594825 0.708759 0.175635 0.0596391 0.708497 0.173571 0.0598515 0.707888 
0.171218 0.060131 0.706774 0.168644 0.0604839 0.704993 0.165907 0.0609085 0.702394 
0.163045 0.0613931 0.698847 0.160074 0.061915 0.694256 0.156985 0.0624403 0.688566 
0.153744 0.0629258 0.681764 0.150293 0.0633217 0.673883 0.146561 0.0635742 0.664993 
0.142468 0.0636308 0.655199 0.137936 0.0634435 0.644624 0.132896 0.0629735 0.633407 
0.127301 0.0621941 0.621681 0.121125 0.0610932 0.609571 0.114374 0.059675 0.597179 
0.107086 0.0579591 0.584579 0.0993249 0.0559805 0.571815 0.0911774 0.0537869 0.558897 
0.0827455 0.051436 0.545809 0.0741361 0.0489928 0.532507 0.0654501 0.0465257 0.518932 
0.0567732 0.0441034 0.505015 0.0481668 0.0417926 0.490684 0.0396626 0.039655 0.475872 
0.0312603 0.0377457 0.460524 0.0229288 0.0361122 0.444596 0.0146115 0.034793 0.428059 
0.0062351 0.0338176 0.410898 -0.00227935 0.0332057 0.393108 -0.0110039 0.0329677 0.374689 
-0.0199907 0.0331046 0.355646 -0.029261 0.0336079 0.335979 -0.0387958 0.0344604 0.315689 
-0.048531 0.0356367 0.294766 -0.0583561 0.037104 0.273199 -0.0681185 0.0388239 0.250975 
-0.0776313 0.0407536 0.228084 -0.0866853 0.0428485 0.204524 -0.0950637 0.0450642 0.180305 
-0.102558 0.0473593 0.155459 -0.108984 0.0496971 0.13004 -0.114194 0.052048 0.104126 
-0.118092 0.0543905 0.0778198 -0.120633 0.0567116 0.0512451 -0.121834 0.0590063 0.0245402 
-0.121764 0.0612762 -0.00214969 -0.120537 0.0635269 -0.0286811 -0.118304 0.0657652 -0.0549225 
-0.115239 0.0679957 -0.0807622 -0.111519 0.0702172 -0.106116 -0.107316 0.0724203 -0.130931 
-0.102779 0.0745848 -0.155187 -0.0980258 0.0766785 -0.178896 -0.0931401 0.078658 -0.202093 
-0.0881659 0.0804695 -0.224833 -0.083112 0.0820518 -0.24718 -0.0779581 0.0833399 -0.269193 
-0.0726641 0.084269 -0.290925 -0.0671809 0.0847797 -0.312404 -0.061462 0.0848213 -0.333637 
-0.0554733 0.0843559 -0.354602 -0.0492027 0.0833609 -0.375254 -0.0426649 0.0818302 -0.395521 
-0.035904 0.0797741 -0.415322 -0.0289927 0.0772183 -0.434567 -0.022028 0.0742011 -0.453169 
-0.0151242 0.0707707 -0.471058 -0.00840452 0.0669819 -0.488182 -0.001992 0.0628921 -0.504514 
0.00399982 0.0585586 -0.520057 0.00947466 0.0540364 -0.534841 0.0143595 0.0493765 -0.548916 
0.0186084 0.0446251 -0.562349 0.0222036 0.0398241 -0.575215 0.0251542 0.0350116 -0.587583 
0.0274934 0.0302236 -0.599514 0.0292731 0.0254945 -0.611049 0.0305587 0.0208589 -0.622204 
0.0314234 0.0163516 -0.632972 0.031942 0.0120081 -0.643319 0.032187 0.00786373 -0.653193 
0.0322248 0.00395274 -0.662526 0.0321134 0.000306613 -0.671244 0.0319014 -0.00304741 -0.679276 
0.0316283 -0.00608788 -0.686559 0.0313251 -0.00880022 -0.693045 0.0310156 -0.0111772 -0.698708 
0.0307181 -0.0132187 -0.703538 0.0304463 -0.0149308 -0.707546 0.0302109 -0.0163241 -0.710756 
0.03002 -0.0174116 -0.713201 0.0298798 -0.0182064 -0.714916 0.0297944 -0.0187194 -0.715931 
0.0297663 -0.0189577 -0.716267 
LINES 2 100
OFFSETS vtktypeint64
0 100 
CONNECTIVITY vtktypeint64
0 1 2 3 4 5 6 7 8 
9 10 11 12 13 14 15 16 17 
18 19 20 21 22 23 24 25 26 
27 28 29 30 31 32 33 34 35 
36 37 38 39 40 41 42 43 44 
45 46 47 48 49 50 51 52 53 
54 55 56 57 58 59 60 61 62 
63 64 65 66 67 68 69 70 71 
72 73 74 75 76 77 78 79 80 
81 82 83 84 85 86 87 88 89 
90 91 92 93 94 95 96 97 98 
99 
POINT_DATA 100
FIELD FieldData 3
_theta 1 100 double
0 0.031733259127 0.063466518254 0.095199777382 0.12693303651 0.15866629564 0.19039955476 0.22213281389 0.25386607302 
0.28559933214 0.31733259127 0.3490658504 0.38079910953 0.41253236865 0.44426562778 0.47599888691 0.50773214603 0.53946540516 
0.57119866429 0.60293192342 0.63466518254 0.66639844167 0.6981317008 0.72986495992 0.76159821905 0.79333147818 0.82506473731 
0.85679799643 0.88853125556 0.92026451469 0.95199777382 0.98373103294 1.0154642921 1.0471975512 1.0789308103 1.1106640695 
1.1423973286 1.1741305877 1.2058638468 1.237597106 1.2693303651 1.3010636242 1.3327968833 1.3645301425 1.3962634016 
1.4279966607 1.4597299198 1.491463179 1.5231964381 1.5549296972 1.5866629564 1.6183962155 1.6501294746 1.6818627337 
1.7135959929 1.745329252 1.7770625111 1.8087957702 1.8405290294 1.8722622885 1.9039955476 1.9357288068 1.9674620659 
1.999195325 2.0309285841 2.0626618433 2.0943951024 2.1261283615 2.1578616206 2.1895948798 2.2213281389 2.253061398 
2.2847946572 2.3165279163 2.3482611754 2.3799944345 2.4117276937 2.4434609528 2.4751942119 2.506927471 2.5386607302 
2.5703939893 2.6021272484 2.6338605076 2.6655937667 2.6973270258 2.7290602849 2.7607935441 2.7925268032 2.8242600623 
2.8559933214 2.8877265806 2.9194598397 2.9511930988 2.982926358 3.0146596171 3.0463928762 3.0781261353 3.1098593945 
3.1415926536 
_radius 1 100 double
1.804112415e-16 0.017043511984 0.033859967297 0.050240055104 0.066003314687 0.081007868952 0.095155526642 0.10839194588 0.12070239349 
0.13210435731 0.14263864531 0.15236051444 0.16133188544 0.16961504953 0.1772677301 0.18433913047 0.190866749 0.19687417376 
0.20237051109 0.20735222175 0.21180774417 0.21572448112 0.21909684979 0.22193348736 0.22426157689 0.22612671222 0.22758775994 
0.22870763111 0.22954229492 0.23013110139 0.23049104615 0.23061613904 0.23048130312 0.2300490882 0.22927727713 0.22812597714 
0.22656358202 0.22457168956 0.22214942858 0.21931759647 0.21612258207 0.21263944158 0.2089729743 0.2052554622 0.20164003646 
0.19828943355 0.195361091 0.19299085165 0.19127853186 0.19027865208 0.18999832154 0.19040193996 0.19142015735 0.19295963175 
0.1949109342 0.1971538163 0.19956084055 0.20200120847 0.20434631082 0.20647744048 0.20829483876 0.20972631512 0.21073341607 
0.21131356708 0.21149754132 0.2113426609 0.21092298732 0.21031819986 0.20960283484 0.20883717818 0.20806060136 0.20728768853 
0.20650712428 0.20568292815 0.20475732699 0.20365455969 0.2022852205 0.20055109921 0.19835060157 0.19558468865 0.19216299327 
0.18800953296 0.18306736764 0.17730167143 0.17070092358 0.16327615827 0.15505838226 0.14609439681 0.13644141567 0.12616110004 
0.11531389588 0.10395473096 0.092131042574 0.079883660898 0.067250327623 0.054270831254 0.040992213177 0.027472469827 0.013781647853 
1.2310511513e-15 
_area 1 100 double
0 0.00060865787506 0.0024092743417 0.0053295348533 0.0092600465305 0.01406689038 0.019603151151 0.025717452294 0.032259763455 
0.039085742366 0.046060573784 0.053062799728 0.059988461181 0.06675557281 0.073308159078 0.07961798299 0.08568138539 0.091509326007 
0.097111683176 0.1024816035 0.1075887402 0.11238735663 0.11683729781 0.1209283853 0.12469487314 0.12820655919 0.13153345398 
0.13470464078 0.13769170982 0.14042222042 0.1428049073 0.14475035567 0.14618123146 0.1470329885 0.14724975631 0.14678160881 
0.14558833717 0.1436508971 0.14098622398 0.13765794988 0.13377737319 0.12949413751 0.12498064102 0.1204157329 0.11597156845 
0.11180425282 0.10804704664 0.10480565142 0.10215518973 0.10013606734 0.098746723513 0.097939150694 0.09762776638 0.097712028419 
0.098097204856 0.098697339826 0.099421629948 0.10016189961 0.10079635183 0.10120582232 0.10128720672 0.10095405996 0.10013309381 
0.098781309025 0.096919706824 0.094652016543 0.092169308901 0.089815943941 0.088203319941 0.087372357606 0.087057637214 0.086923722671 
0.08688633102 0.086937700825 0.087166161506 0.087814016282 0.088585052025 0.089195213042 0.089442092162 0.089142416927 0.088142285511 
0.08632840999 0.083634767045 0.080044565219 0.075588550579 0.070341000113 0.064414581089 0.057954376381 0.051130505998 0.044128857832 
0.037140436455 0.030350920345 0.023932408656 0.01803874661 0.01280448936 0.0083461467346 0.0047635879303 0.0021398020757 0.00053843864204 
1.8278065132e-17 
