# vtk DataFile Version 5.1
vtk output
ASCII
DATASET POLYDATA
POINTS 100 float
0.0270137 0.0214674 -0.615231 0.0267986 0.0212908 -0.615107 0.0262172 0.0209403 -0.614812 
0.025308 0.0204609 -0.614288 0.0241291 0.0199222 -0.613445 0.0227502 0.019412 -0.612166 
0.0212426 0.019028 -0.610318 0.0196685 0.0188693 -0.607762 0.0180717 0.019027 -0.604365 
0.0164702 0.0195763 -0.600007 0.0148514 0.0205704 -0.594591 0.0131725 0.0220364 -0.588046 
0.0113629 0.0239737 -0.580332 0.00933214 0.0263551 -0.571438 0.00697908 0.0291297 -0.561382 
0.00420381 0.0322285 -0.550203 0.000919439 0.03557 -0.537961 -0.00293715 0.039067 -0.524725 
-0.0073969 0.0426331 -0.510577 -0.0124536 0.0461875 -0.495598 -0.0180629 0.0496599 -0.479871 
-0.0241458 0.052992 -0.463477 -0.0305954 0.056139 -0.446493 -0.0372869 0.0590682 -0.428989 
-0.0440897 0.0617579 -0.411031 -0.0508795 0.0641938 -0.392677 -0.0575491 0.0663671 -0.373978 
-0.0640173 0.0682712 -0.354977 -0.0702335 0.0698994 -0.335702 -0.0761793 0.0712445 -0.316173 
-0.0818647 0.0722974 -0.296394 -0.087321 0.0730483 -0.276356 -0.0925904 0.0734871 -0.25604 
-0.0977145 0.0736058 -0.235416 -0.102721 0.073399 -0.21445 -0.107615 0.072866 -0.19311 
-0.112366 0.0720113 -0.171369 -0.11691 0.0708448 -0.149219 -0.121143 0.0693815 -0.12667 
-0.124932 0.0676405 -0.103758 -0.128118 0.065644 -0.0805483 -0.130534 0.0634158 -0.0571334 
-0.132016 0.0609804 -0.0336304 -0.132422 0.0583628 -0.0101744 -0.131644 0.0555882 0.0130899 
-0.129619 0.0526835 0.0360187 -0.126341 0.0496785 0.0584799 -0.121862 0.0466078 0.080363 
-0.116287 0.043513 0.101588 -0.109774 0.0404443 0.122109 -0.102515 0.0374614 0.141919 
-0.0947261 0.0346333 0.161045 -0.0866303 0.0320364 0.179544 -0.0784395 0.0297522 0.197496 
-0.0703407 0.0278621 0.21499 -0.0624833 0.0264424 0.232115 -0.0549713 0.025558 0.248951 
-0.0478599 0.0252563 0.265559 -0.041157 0.0255619 0.281977 -0.0348287 0.0264722 0.298217 
-0.0288098 0.0279553 0.314269 -0.0230151 0.0299499 0.330104 -0.0173535 0.0323676 0.345683 
-0.0117401 0.0350984 0.360966 -0.00610809 0.038017 0.375921 -0.000416931 0.040992 0.390534 
0.00534258 0.0438949 0.40481 0.0111473 0.0466098 0.418776 0.0169442 0.0490418 0.432481 
0.0226569 0.0511238 0.445989 0.0281932 0.0528205 0.459372 0.0334554 0.0541308 0.472697 
0.03835 0.0550856 0.486018 0.0427968 0.0557436 0.499367 0.0467359 0.0561847 0.512744 
0.0501327 0.0565014 0.526117 0.0529793 0.0567888 0.539419 0.0552936 0.0571354 0.552557 
0.0571161 0.057614 0.565413 0.0585035 0.0582749 0.577864 0.0595229 0.0591413 0.589785 
0.0602444 0.0602071 0.601068 0.0607346 0.0614386 0.611627 0.0610517 0.0627781 0.62141 
0.0612416 0.0641504 0.630398 0.0613372 0.0654709 0.638607 0.0613581 0.0666544 0.646082 
0.0613134 0.0676245 0.652887 0.0612048 0.0683211 0.659098 0.0610306 0.0687073 0.66479 
0.0607901 0.0687731 0.670024 0.0604864 0.0685367 0.674841 0.0601291 0.0680435 0.679259 
0.0597346 0.0673614 0.683265 0.0593264 0.0665745 0.686823 0.0589321 0.0657753 0.689879 
0.0585815 0.0650556 0.692369 0.0583023 0.064498 0.694227 0.0581174 0.0641676 0.695399 
0.0580415 0.064106 0.695847 
LINES 2 100
OFFSETS vtktypeint64
0 100 
CONNECTIVITY vtktypeint64
0 1 2 3 4 5 6 7 8 
9 10 11 12 13 14 15 16 17 
18 19 20 21 22 23 24 25 26 
27 28 29 30 31 32 33 34 35 
36 37 38 39 40 41 42 43 44 
45 46 47 48 49 50 51 52 53 
54 55 56 57 58 59 60 61 62 
63 64 65 66 67 68 69 70 71 
72 73 74 75 76 77 78 79 80 
81 82 83 84 85 86 87 88 89 
90 91 92 93 94 95 96 97 98 
99 
POINT_DATA 100
FIELD FieldData 3
_theta 1 100 double
0 0.031733259127 0.063466518254 0.095199777382 0.12693303651 0.15866629564 0.19039955476 0.22213281389 0.25386607302 
0.28559933214 0.31733259127 0.3490658504 0.38079910953 0.41253236865 0.44426562778 0.47599888691 0.50773214603 0.53946540516 
0.57119866429 0.60293192342 0.63466518254 0.66639844167 0.6981317008 0.72986495992 0.76159821905 0.79333147818 0.82506473731 
0.85679799643 0.88853125556 0.92026451469 0.95199777382 0.98373103294 1.0154642921 1.0471975512 1.0789308103 1.1106640695 
1.1423973286 1.1741305877 1.2058638468 1.237597106 1.2693303651 1.3010636242 1.3327968833 1.3645301425 1.3962634016 
1.4279966607 1.4597299198 1.491463179 1.5231964381 1.5549296972 1.5866629564 1.6183962155 1.6501294746 1.6818627337 
1.7135959929 1.745329252 1.7770625111 1.8087957702 1.8405290294 1.8722622885 1.9039955476 1.9357288068 1.9674620659 
1.999195325 2.0309285841 2.0626618433 2.0943951024 2.1261283615 2.1578616206 2.1895948798 2.2213281389 2.253061398 
2.2847946572 2.3165279163 2.3482611754 2.3799944345 2.4117276937 2.4434609528 2.4751942119 2.506927471 2.5386607302 
2.5703939893 2.6021272484 2.6338605076 2.6655937667 2.6973270258 2.7290602849 2.7607935441 2.7925268032 2.8242600623 
2.8559933214 2.8877265806 2.9194598397 2.9511930988 2.982926358 3.0146596171 3.0463928762 3.0781261353 3.1098593945 
3.1415926536 
_radius 1 100 double
9.992609538e-16 0.013808564369 0.027475499728 0.040866114924 0.053858408081 0.066346685451 0.078242818759 0.089475375158 0.099987360977 
0.10973360139 0.11867874326 0.12679653912 0.13407057251 0.14049609711 0.14608234173 0.15085456403 0.15485530058 0.1581445432 
0.16079880343 0.16290907345 0.16457756633 0.16591300965 0.16702441885 0.1680137455 0.1689683146 0.16995414699 0.17101102296 
0.17214979127 0.17335223871 0.17457375462 0.17574891522 0.17680000367 0.17764831488 0.17822749506 0.17849704723 0.17845324539 
0.17813486138 0.17762228674 0.17703025817 0.17649596938 0.17616544294 0.1761811583 0.17667275686 0.17775048182 0.17949906003 
0.18196952059 0.18516854139 0.18904812866 0.19350048127 0.19836214749 0.20342843862 0.20847554035 0.21328571071 0.21767078944 
0.2214902988 0.22466192906 0.22716373053 0.22902864254 0.23033293645 0.23118068907 0.23168658189 0.23195923461 0.23208700677 
0.23212778118 0.23210370058 0.23200120536 0.23177607774 0.2313626009 0.23068543542 0.22967242994 0.22826636668 0.22643367952 
0.22416857326 0.22149174384 0.21844392705 0.21507552212 0.21143426229 0.20755316306 0.20344077727 0.19907526583 0.19440314242 
0.18934290028 0.18379312204 0.17764410135 0.17079149321 0.16315015066 0.15466621338 0.14532574741 0.13515874678 0.12423797008 
0.11267275746 0.10059856656 0.08816345715 0.075513147188 0.062776531034 0.050053620141 0.037407654567 0.024862603627 0.012406481655 
5.4390816881e-16 
_area 1 100 double
0 0.00048515582598 0.0019390555123 0.0043508798067 0.0076849152116 0.011862953611 0.01675365597 0.022173671272 0.027899509157 
0.033685988811 0.039286863027 0.04447435291 0.049055610565 0.052885115815 0.055872694734 0.057987298623 0.059256967284 0.059765610693 
0.059647402913 0.059079755719 0.058278888635 0.057537018373 0.057289659231 0.05762018426 0.0584417089 0.059674029062 0.061235782723 
0.063035345362 0.064978661849 0.066979791643 0.068970056842 0.070901534532 0.07274720302 0.074502996855 0.076190553898 0.077852174165 
0.079534845523 0.08127266586 0.083079071514 0.084948342061 0.086858980851 0.08878048082 0.090689634056 0.092593603604 0.09455315611 
0.096701938523 0.099249914293 0.10244585647 0.10649062478 0.11144672313 0.11720360734 0.12350142044 0.12998277618 0.13625776761 
0.14197151351 0.14685786694 0.15076690573 0.15366357486 0.15560347605 0.15669723531 0.15707648804 0.15687130543 0.15620187509 
0.15518056904 0.15391626282 0.15250958906 0.15102929343 0.14947696084 0.14777176351 0.1457773544 0.14335377233 0.14040505261 
0.13690755692 0.1329144437 0.12853682347 0.12390861769 0.11914840537 0.11433186348 0.10948107162 0.10456821096 0.099527819684 
0.094273459243 0.088716925844 0.082788246239 0.07645331853 0.069725397074 0.062667870921 0.055388371467 0.04802673859 0.040740664007 
0.03369250559 0.027038986277 0.020923246589 0.015467824768 0.010768423624 0.0068901969433 0.0038686088202 0.0017153948814 0.00042806339998 
2.4124546544e-17 
