# vtk DataFile Version 5.1
vtk output
ASCII
DATASET POLYDATA
POINTS 100 float
0.0752158 0.0451545 0.660245 0.0754092 0.0451823 0.659782 0.075911 0.0454005 0.65854 
0.0766654 0.0457936 0.656548 0.0775867 0.0463379 0.65385 0.078569 0.047003 0.650497 
0.0794981 0.0477539 0.646538 0.0802643 0.048553 0.642018 0.0807738 0.0493621 0.636964 
0.0809578 0.050144 0.631386 0.080778 0.0508631 0.625276 0.0802282 0.0514864 0.618609 
0.0793315 0.0519837 0.611348 0.078134 0.052327 0.603453 0.0766954 0.0524912 0.594889 
0.0750787 0.0524532 0.585636 0.0733396 0.052193 0.575693 0.0715175 0.0516944 0.565087 
0.0696298 0.0509459 0.553869 0.0676686 0.0499429 0.542115 0.0656018 0.0486896 0.529918 
0.0633783 0.0472006 0.517377 0.0609347 0.0455024 0.504594 0.0582047 0.0436345 0.491656 
0.0551285 0.0416484 0.478629 0.0516609 0.0396072 0.465552 0.0477774 0.0375818 0.452437 
0.0434769 0.035648 0.439263 0.0387815 0.0338814 0.425987 0.0337321 0.0323526 0.412552 
0.0283817 0.0311219 0.398891 0.0227871 0.0302352 0.384944 0.0170001 0.0297209 0.370661 
0.0110597 0.0295875 0.356014 0.00498654 0.0298245 0.340993 -0.00121887 0.0304034 0.325613 
-0.00757471 0.0312821 0.309903 -0.0141122 0.0324089 0.293903 -0.0208668 0.033729 0.277651 
-0.0278676 0.0351896 0.261177 -0.0351254 0.0367461 0.244492 -0.0426221 0.0383656 0.227581 
-0.0503027 0.04003 0.210407 -0.0580707 0.0417366 0.192907 -0.0657886 0.043497 0.175003 
-0.0732828 0.0453336 0.156611 -0.0803541 0.0472754 0.137652 -0.0867916 0.049352 0.118066 
-0.0923888 0.051588 0.0978215 -0.0969606 0.0539973 0.0769276 -0.10036 0.0565792 0.0554342 
-0.10249 0.059315 0.0334324 -0.103313 0.0621678 0.011048 -0.102852 0.0650832 -0.0115693 
-0.101192 0.0679928 -0.0342601 -0.0984673 0.0708188 -0.0568704 -0.0948496 0.0734796 -0.0792668 
-0.0905329 0.0758958 -0.101348 -0.0857148 0.0779964 -0.123055 -0.080579 0.0797229 -0.14437 
-0.0752804 0.0810333 -0.165317 -0.0699335 0.0819035 -0.18595 -0.0646059 0.0823271 -0.206345 
-0.0593171 0.0823132 -0.226579 -0.0540433 0.0818836 -0.24672 -0.0487258 0.0810678 -0.266809 
-0.0432839 0.0798991 -0.286852 -0.037629 0.0784093 -0.306813 -0.0316799 0.076626 -0.326618 
-0.0253762 0.0745693 -0.346157 -0.0186889 0.0722513 -0.365297 -0.0116277 0.0696763 -0.383898 
-0.0042433 0.0668427 -0.401826 0.00337462 0.063746 -0.418967 0.0111034 0.0603822 -0.435243 
0.0187969 0.0567519 -0.450615 0.0262975 0.0528634 -0.465085 0.0334483 0.0487356 -0.478692 
0.0401057 0.0443994 -0.491505 0.0461499 0.0398985 -0.503603 0.0514928 0.0352879 -0.515066 
0.0560832 0.0306317 -0.525958 0.0599082 0.0260004 -0.536314 0.0629913 0.0214663 -0.546133 
0.0653876 0.0171001 -0.555376 0.0671767 0.0129667 -0.563971 0.0684547 0.00912177 -0.571822 
0.0693251 0.00560906 -0.578825 0.0698902 0.00245901 -0.584881 0.0702441 -0.000311985 -0.589921 
0.0704668 -0.00270107 -0.593911 0.0706209 -0.00471752 -0.59687 0.0707497 -0.00638063 -0.598871 
0.0708782 -0.00771703 -0.600039 0.0710153 -0.00875776 -0.60054 0.0711574 -0.00953529 -0.600567 
0.071293 -0.0100807 -0.60032 0.0714066 -0.010421 -0.599983 0.0714841 -0.0105773 -0.599707 
0.0715152 -0.0105632 -0.59959 
LINES 2 100
OFFSETS vtktypeint64
0 100 
CONNECTIVITY vtktypeint64
0 1 2 3 4 5 6 7 8 
9 10 11 12 13 14 15 16 17 
18 19 20 21 22 23 24 25 26 
27 28 29 30 31 32 33 34 35 
36 37 38 39 40 41 42 43 44 
45 46 47 48 49 50 51 52 53 
54 55 56 57 58 59 60 61 62 
63 64 65 66 67 68 69 70 71 
72 73 74 75 76 77 78 79 80 
81 82 83 84 85 86 87 88 89 
90 91 92 93 94 95 96 97 98 
99 
POINT_DATA 100
FIELD FieldData 3
_theta 1 100 double
0 0.031733259127 0.063466518254 0.095199777382 0.12693303651 0.15866629564 0.19039955476 0.22213281389 0.25386607302 
0.28559933214 0.31733259127 0.3490658504 0.38079910953 0.41253236865 0.44426562778 0.47599888691 0.50773214603 0.53946540516 
0.57119866429 0.60293192342 0.63466518254 0.66639844167 0.6981317008 0.72986495992 0.76159821905 0.79333147818 0.82506473731 
0.85679799643 0.88853125556 0.92026451469 0.95199777382 0.98373103294 1.0154642921 1.0471975512 1.0789308103 1.1106640695 
1.1423973286 1.1741305877 1.2058638468 1.237597106 1.2693303651 1.3010636242 1.3327968833 1.3645301425 1.3962634016 
1.4279966607 1.4597299198 1.491463179 1.5231964381 1.5549296972 1.5866629564 1.6183962155 1.6501294746 1.6818627337 
1.7135959929 1.745329252 1.7770625111 1.8087957702 1.8405290294 1.8722622885 1.9039955476 1.9357288068 1.9674620659 
1.999195325 2.0309285841 2.0626618433 2.0943951024 2.1261283615 2.1578616206 2.1895948798 2.2213281389 2.253061398 
2.2847946572 2.3165279163 2.3482611754 2.3799944345 2.4117276937 2.4434609528 2.4751942119 2.506927471 2.5386607302 
2.5703939893 2.6021272484 2.6338605076 2.6655937667 2.6973270258 2.7290602849 2.7607935441 2.7925268032 2.8242600623 
2.8559933214 2.8877265806 2.9194598397 2.9511930988 2.982926358 3.0146596171 3.0463928762 3.0781261353 3.1098593945 
3.1415926536 
_radius 1 100 double
1.2329381595e-15 0.013508318507 0.02698855402 0.040412644338 0.053742124147 0.066924096472 0.079889330882 0.092553273563 0.10482027539 
0.11659065739 0.12776958136 0.13827627271 0.1480520391 0.15706573076 0.16531573379 0.17282818346 0.17965172731 0.18584975448 
0.19149144499 0.19664320122 0.20136194089 0.20569132863 0.2096613543 0.21329089535 0.21659227292 0.21957653392 0.22225829158 
0.22465926555 0.22680995 0.22874902337 0.23052029724 0.23216730926 0.23372608866 0.23521703728 0.23663715219 0.2379539254 
0.23910221054 0.23998517146 0.24048010455 0.24044940565 0.23975620984 0.2382833372 0.23595330291 0.23274650598 0.22871447314 
0.22398529079 0.21875913113 0.21329306245 0.20787611258 0.20279772746 0.19831495363 0.19462501846 0.19184929772 0.19003121479 
0.18914530238 0.18911032312 0.18979914226 0.19104272235 0.19263230103 0.19432762663 0.19587678689 0.19704625813 0.19765369944 
0.19759460779 0.19685661743 0.19551911592 0.19373906133 0.19172606776 0.18971121284 0.18791469643 0.18651727488 0.18563916898 
0.18532813512 0.18555632559 0.18622431298 0.18717059345 0.18818554336 0.18902921446 0.18945193454 0.18921574422 0.18811403183 
0.18598681585 0.18272989646 0.17829718535 0.17269658132 0.16598059053 0.15823342801 0.14955659824 0.14005498586 0.12982532679 
0.11894856636 0.10748700822 0.095486327411 0.082981600147 0.070005740722 0.056598354409 0.042813077565 0.028721892778 0.014415550042 
3.6134966478e-16 
_area 1 100 double
0 0.00049605202982 0.0019818242503 0.0044487352927 0.0078778200652 0.012233329717 0.017455501349 0.02345473306 0.030109615838 
0.037270493634 0.04476865055 0.052429475924 0.060086726335 0.067594778442 0.074836649509 0.081727172598 0.088212301333 0.094266354276 
0.099888826907 0.10510153169 0.1099458933 0.1144796847 0.11877242244 0.12289887809 0.12693065448 0.13092672625 0.13492498706 
0.13893689926 0.14294600295 0.14691063708 0.15077210705 0.15446742858 0.15794094045 0.16114821604 0.16405009313 0.16659935505 
0.16872503189 0.17032011503 0.17123822349 0.17130315053 0.17033222794 0.16817056315 0.16472932923 0.1600186817 0.15416577786 
0.14741137487 0.14008400481 0.1325569677 0.12519795156 0.11832214047 0.1121570893 0.10682348829 0.10233362209 0.098613312964 
0.09555867991 0.09312601289 0.091422457302 0.090578184252 0.090499179894 0.09098806122 0.091637602348 0.092090090979 0.09201332676 
0.091192983267 0.089562582612 0.087205367199 0.084329823858 0.081228423659 0.078230734051 0.0756567364 0.073773196163 0.072781270852 
0.072790091105 0.073887850332 0.075779353096 0.078189598383 0.080886835368 0.083593260866 0.085995938124 0.087775281874 0.088640433483 
0.08836257021 0.086799687524 0.083909059886 0.079746276193 0.074452258921 0.068231673418 0.061327323679 0.053995333824 0.04648506432 
0.039025943815 0.031821228236 0.025047002764 0.018854238485 0.013372275203 0.0087126978529 0.0049723479132 0.0022337646975 0.00056214900284 
1.5999362364e-17 
