# vtk DataFile Version 5.1
vtk output
ASCII
DATASET POLYDATA
POINTS 100 float
0.177108 0.00169659 -0.575482 0.176643 0.00162859 -0.575483 0.175324 0.00158245 -0.57552 
0.173234 0.00155921 -0.575532 0.170498 0.00156316 -0.575424 0.167268 0.00160421 -0.575077 
0.163701 0.00170047 -0.574357 0.15994 0.00188025 -0.573129 0.156093 0.00218311 -0.571266 
0.152222 0.0026593 -0.568663 0.148331 0.00336753 -0.565238 0.144368 0.00437092 -0.560942 
0.140232 0.00573159 -0.555754 0.135784 0.00750426 -0.549678 0.13087 0.00972979 -0.542742 
0.125335 0.0124293 -0.534984 0.119051 0.0155997 -0.526448 0.111928 0.0192114 -0.517177 
0.103933 0.0232086 -0.507203 0.0950888 0.0275119 -0.496547 0.0854792 0.0320237 -0.485217 
0.075236 0.0366356 -0.473209 0.0645268 0.0412362 -0.46051 0.0535363 0.0457199 -0.447102 
0.0424472 0.0499946 -0.432969 0.0314216 0.053988 -0.418101 0.020586 0.0576509 -0.402495 
0.0100223 0.0609587 -0.386161 -0.00023543 0.0639096 -0.369122 -0.0101971 0.0665209 -0.351406 
-0.0199066 0.0688223 -0.333054 -0.0294273 0.0708501 -0.314104 -0.0388248 0.0726394 -0.294598 
-0.0481495 0.0742182 -0.274572 -0.0574213 0.0756027 -0.254056 -0.0666185 0.076795 -0.233076 
-0.0756718 0.0777826 -0.211656 -0.0844652 0.0785406 -0.189818 -0.0928428 0.0790353 -0.167591 
-0.100621 0.0792296 -0.145015 -0.107603 0.079088 -0.122145 -0.113599 0.0785823 -0.0990525 
-0.118442 0.0776957 -0.075831 -0.122002 0.076425 -0.0525908 -0.124197 0.0747822 -0.0294561 
-0.125001 0.0727931 -0.00655804 -0.124443 0.0704955 0.0159734 -0.122599 0.0679354 0.038019 
-0.119589 0.0651636 0.0594793 -0.115559 0.062232 0.0802824 -0.110672 0.059191 0.100389 
-0.105091 0.0560875 0.119796 -0.0989716 0.0529648 0.138533 -0.0924525 0.0498631 0.156659 
-0.0856494 0.0468209 0.174257 -0.0786548 0.0438772 0.191421 -0.0715399 0.0410728 0.208247 
-0.0643586 0.0384513 0.224824 -0.0571524 0.0360587 0.241224 -0.0499564 0.0339417 0.257493 
-0.0428034 0.0321449 0.273656 -0.0357268 0.0307061 0.289709 -0.028762 0.0296522 0.305628 
-0.021945 0.0289947 0.321371 -0.0153107 0.0287262 0.336893 -0.00888934 0.0288185 0.352147 
-0.00270388 0.0292229 0.367098 0.0032324 0.0298735 0.381728 0.00891663 0.0306915 0.396038 
0.0143553 0.0315928 0.410053 0.0195615 0.0324958 0.423813 0.024551 0.0333298 0.437377 
0.029337 0.0340423 0.450805 0.0339258 0.0346046 0.464158 0.0383127 0.0350146 0.477485 
0.0424803 0.0352961 0.490816 0.0463985 0.0354954 0.504153 0.0500273 0.0356743 0.517473 
0.0533221 0.0359011 0.530723 0.0562398 0.0362406 0.543824 0.0587466 0.0367438 0.556677 
0.060825 0.0374397 0.569169 0.062479 0.0383292 0.581184 0.0637375 0.0393828 0.592612 
0.0646543 0.0405423 0.603352 0.0653046 0.0417266 0.613324 0.0657788 0.0428399 0.622472 
0.0661734 0.0437839 0.630761 0.0665805 0.0444696 0.638184 0.0670781 0.0448289 0.644754 
0.0677206 0.0448244 0.6505 0.0685322 0.0444556 0.655466 0.0695046 0.0437605 0.659701 
0.0705972 0.0428136 0.663258 0.0717429 0.0417183 0.666187 0.0728558 0.0405962 0.668535 
0.0738427 0.0395738 0.67034 0.0746144 0.0387688 0.671632 0.0750974 0.0382764 0.672434 
0.0752433 0.0381585 0.672757 
LINES 2 100
OFFSETS vtktypeint64
0 100 
CONNECTIVITY vtktypeint64
0 1 2 3 4 5 6 7 8 
9 10 11 12 13 14 15 16 17 
18 19 20 21 22 23 24 25 26 
27 28 29 30 31 32 33 34 35 
36 37 38 39 40 41 42 43 44 
45 46 47 48 49 50 51 52 53 
54 55 56 57 58 59 60 61 62 
63 64 65 66 67 68 69 70 71 
72 73 74 75 76 77 78 79 80 
81 82 83 84 85 86 87 88 89 
90 91 92 93 94 95 96 97 98 
99 
POINT_DATA 100
FIELD FieldData 3
_theta 1 100 double
0 0.031733259127 0.063466518254 0.095199777382 0.12693303651 0.15866629564 0.19039955476 0.22213281389 0.25386607302 
0.28559933214 0.31733259127 0.3490658504 0.38079910953 0.41253236865 0.44426562778 0.47599888691 0.50773214603 0.53946540516 
0.57119866429 0.60293192342 0.63466518254 0.66639844167 0.6981317008 0.72986495992 0.76159821905 0.79333147818 0.82506473731 
0.85679799643 0.88853125556 0.92026451469 0.95199777382 0.98373103294 1.0154642921 1.0471975512 1.0789308103 1.1106640695 
1.1423973286 1.1741305877 1.2058638468 1.237597106 1.2693303651 1.3010636242 1.3327968833 1.3645301425 1.3962634016 
1.4279966607 1.4597299198 1.491463179 1.5231964381 1.5549296972 1.5866629564 1.6183962155 1.6501294746 1.6818627337 
1.7135959929 1.745329252 1.7770625111 1.8087957702 1.8405290294 1.8722622885 1.9039955476 1.9357288068 1.9674620659 
1.999195325 2.0309285841 2.0626618433 2.0943951024 2.1261283615 2.1578616206 2.1895948798 2.2213281389 2.253061398 
2.2847946572 2.3165279163 2.3482611754 2.3799944345 2.4117276937 2.4434609528 2.4751942119 2.506927471 2.5386607302 
2.5703939893 2.6021272484 2.6338605076 2.6655937667 2.6973270258 2.7290602849 2.7607935441 2.7925268032 2.8242600623 
2.8559933214 2.8877265806 2.9194598397 2.9511930988 2.982926358 3.0146596171 3.0463928762 3.0781261353 3.1098593945 
3.1415926536 
_radius 1 100 double
3.3766456236e-16 0.017205141396 0.034255844861 0.051005388942 0.067325741197 0.083111426312 0.098278287721 0.1127577624 0.12648859433 
0.1394086386 0.1514492713 0.16253401552 0.17258173212 0.18151358931 0.18926232627 0.19578211963 0.20105750816 0.20511013777 
0.20800241194 0.20983742879 0.21075489684 0.21092310873 0.21052753414 0.20975711081 0.20878974258 0.20777871292 0.2068416025 
0.20605290086 0.20544100053 0.20498984501 0.20464521844 0.20432541484 0.20393567946 0.20338532205 0.20260578166 0.20156726457 
0.20029107503 0.19885475481 0.19738804804 0.19605973992 0.19505819176 0.19457060555 0.19476597552 0.19578380695 0.19772687206 
0.20065448779 0.20457430772 0.20943394688 0.21511625871 0.22144213683 0.22818260311 0.23507910078 0.24186865523 0.24830949441 
0.25420284577 0.25940766158 0.26384656455 0.26750294646 0.27041057335 0.27263804107 0.27427087729 0.27539400716 0.27607681889 
0.27636240214 0.27626189708 0.27575437162 0.27479217027 0.27331111016 0.27124417713 0.26853661654 0.26515978573 0.26112111471 
0.25646811676 0.25128546893 0.24568544705 0.23979316516 0.23372895868 0.22759074964 0.22143922257 0.21528807713 0.20910065689 
0.20279319615 0.19624405824 0.18930774477 0.18183205116 0.17367643689 0.16472948006 0.15492328253 0.1442429579 0.13272987281 
0.12047805786 0.10762406027 0.094331371003 0.080771328119 0.06710298859 0.053454793793 0.039910851568 0.026504243158 0.013218871602 
6.1734729827e-16 
_area 1 100 double
0 0.00061029401626 0.0024400308972 0.0054823876109 0.0097154072891 0.015088797847 0.021510903632 0.028840172678 0.036883952043 
0.045404918585 0.054133284546 0.062781785489 0.071060518535 0.078690026356 0.085413285974 0.091009252503 0.095310657011 0.098226081686 
0.099761998204 0.1000368724 0.099279003046 0.097803659597 0.095972381428 0.094143862665 0.09262310885 0.09160370974 0.091132806629 
0.091149029176 0.091552624307 0.092237559121 0.093102899566 0.094060877928 0.095040301723 0.095987314359 0.096867212246 0.097669341944 
0.098411944764 0.099143686029 0.099944384272 0.10091857767 0.1021782954 0.10383212262 0.10599066921 0.10877681947 0.11232458802 
0.11676121922 0.12217738484 0.12859480457 0.13594598489 0.1440775504 0.15276939545 0.16175396809 0.17073174754 0.17938938035 
0.18742615504 0.19458699258 0.20069303111 0.20565873731 0.20948824099 0.21225151065 0.21404914365 0.21497828876 0.21510960016 
0.21447873303 0.21309032424 0.21093011078 0.20798084396 0.20423787287 0.19972021461 0.19447405265 0.18856937671 0.18209555572 
0.17516246005 0.16790610405 0.16048839332 0.15308137168 0.14583722699 0.13885547846 0.13216113097 0.12570226362 0.11936637849 
0.11300740814 0.10647391661 0.099632970416 0.092388543607 0.084694840848 0.07656434501 0.068069995487 0.059341459417 0.050556117409 
0.041925420368 0.033677092587 0.02603418116 0.019193432603 0.013307073176 0.0084725091636 0.0047330223007 0.0020895130029 0.00051987119818 
2.6067055028e-17 
