# vtk DataFile Version 5.1
vtk output
ASCII
DATASET POLYDATA
POINTS 100 float
0.0684462 0.0224427 -0.699804 0.0684659 0.0223087 -0.699532 0.0685528 0.0221234 -0.698739 
0.0686837 0.0219121 -0.6974 0.0688224 0.021714 -0.695472 0.0689232 0.0215793 -0.692902 
0.0689351 0.021565 -0.689631 0.0688068 0.0217305 -0.685604 0.06849 0.022133 -0.680769 
0.0679434 0.022824 -0.675087 0.067134 0.0238459 -0.668534 0.066038 0.0252302 -0.661101 
0.0646399 0.0269959 -0.652795 0.0629309 0.0291492 -0.643638 0.0609061 0.0316842 -0.633662 
0.0585627 0.0345827 -0.622903 0.0558974 0.0378157 -0.611402 0.0529056 0.0413435 -0.599195 
0.0495807 0.0451163 -0.586316 0.0459157 0.0490744 -0.572789 0.0419045 0.0531483 -0.55863 
0.0375446 0.0572595 -0.543849 0.0328397 0.0613212 -0.528452 0.0278014 0.0652401 -0.51244 
0.022451 0.0689197 -0.495817 0.016819 0.072264 -0.478589 0.0109437 0.0751827 -0.460771 
0.00486892 0.077597 -0.442381 -0.00135984 0.0794455 -0.423447 -0.00769934 0.0806899 -0.404001 
-0.0141122 0.0813193 -0.384081 -0.0205695 0.0813533 -0.363726 -0.027052 0.0808418 -0.342973 
-0.0335494 0.0798632 -0.321854 -0.0400567 0.0785189 -0.300395 -0.0465704 0.076926 -0.278617 
-0.0530811 0.0752076 -0.256529 -0.0595675 0.0734826 -0.234136 -0.0659895 0.0718548 -0.211438 
-0.0722833 0.0704036 -0.188432 -0.0783584 0.0691769 -0.165117 -0.0840984 0.0681866 -0.141497 
-0.089364 0.0674077 -0.117581 -0.0940006 0.0667822 -0.0933875 -0.0978481 0.0662251 -0.0689444 
-0.100752 0.0656343 -0.0442901 -0.102579 0.0649023 -0.0194721 -0.103222 0.0639282 0.00545399 
-0.10262 0.06263 0.0304263 -0.100757 0.060954 0.0553783 -0.0976671 0.058882 0.0802405 
-0.0934345 0.0564348 0.104942 -0.0881857 0.0536711 0.129411 -0.0820802 0.0506833 0.153576 
-0.0752978 0.0475895 0.177364 -0.0680248 0.0445231 0.200707 -0.06044 0.0416212 0.223535 
-0.0527028 0.0390129 0.245781 -0.0449436 0.0368088 0.267384 -0.0372588 0.0350933 0.288289 
-0.029709 0.0339185 0.308451 -0.0223222 0.0333031 0.327838 -0.0151 0.0332337 0.346435 
-0.00802616 0.033669 0.364243 -0.00107659 0.0345461 0.381285 0.00577128 0.0357887 0.397601 
0.0125305 0.037315 0.413253 0.0191991 0.0390444 0.428314 0.0257582 0.0409038 0.442867 
0.0321731 0.042831 0.457001 0.0383976 0.0447762 0.470797 0.0443802 0.0467017 0.484329 
0.050072 0.0485794 0.497653 0.0554343 0.0503879 0.510804 0.0604442 0.0521085 0.523792 
0.0650994 0.0537224 0.536606 0.0694183 0.0552082 0.54921 0.0734382 0.0565411 0.561551 
0.0772103 0.0576937 0.573565 0.080792 0.0586378 0.585184 0.0842387 0.0593474 0.596343 
0.0875954 0.0598024 0.606987 0.0908896 0.0599919 0.617076 0.0941267 0.0599171 0.626588 
0.0972881 0.0595928 0.635522 0.100334 0.0590473 0.643892 0.103206 0.058321 0.651725 
0.10584 0.0574633 0.659057 0.10817 0.0565286 0.665922 0.11014 0.0555716 0.672347 
0.111712 0.0546428 0.67835 0.112876 0.0537845 0.683927 0.113646 0.0530284 0.689058 
0.114066 0.0523938 0.693704 0.114202 0.0518886 0.697811 0.114137 0.0515105 0.701315 
0.113959 0.0512506 0.704147 0.113751 0.0510967 0.706245 0.113582 0.0510368 0.707557 
0.113498 0.0510624 0.708048 
LINES 2 100
OFFSETS vtktypeint64
0 100 
CONNECTIVITY vtktypeint64
0 1 2 3 4 5 6 7 8 
9 10 11 12 13 14 15 16 17 
18 19 20 21 22 23 24 25 26 
27 28 29 30 31 32 33 34 35 
36 37 38 39 40 41 42 43 44 
45 46 47 48 49 50 51 52 53 
54 55 56 57 58 59 60 61 62 
63 64 65 66 67 68 69 70 71 
72 73 74 75 76 77 78 79 80 
81 82 83 84 85 86 87 88 89 
90 91 92 93 94 95 96 97 98 
99 
POINT_DATA 100
FIELD FieldData 3
_theta 1 100 double
0 0.031733259127 0.063466518254 0.095199777382 0.12693303651 0.15866629564 0.19039955476 0.22213281389 0.25386607302 
0.28559933214 0.31733259127 0.3490658504 0.38079910953 0.41253236865 0.44426562778 0.47599888691 0.50773214603 0.53946540516 
0.57119866429 0.60293192342 0.63466518254 0.66639844167 0.6981317008 0.72986495992 0.76159821905 0.79333147818 0.82506473731 
0.85679799643 0.88853125556 0.92026451469 0.95199777382 0.98373103294 1.0154642921 1.0471975512 1.0789308103 1.1106640695 
1.1423973286 1.1741305877 1.2058638468 1.237597106 1.2693303651 1.3010636242 1.3327968833 1.3645301425 1.3962634016 
1.4279966607 1.4597299198 1.491463179 1.5231964381 1.5549296972 1.5866629564 1.6183962155 1.6501294746 1.6818627337 
1.7135959929 1.745329252 1.7770625111 1.8087957702 1.8405290294 1.8722622885 1.9039955476 1.9357288068 1.9674620659 
1.999195325 2.0309285841 2.0626618433 2.0943951024 2.1261283615 2.1578616206 2.1895948798 2.2213281389 2.253061398 
2.2847946572 2.3165279163 2.3482611754 2.3799944345 2.4117276937 2.4434609528 2.4751942119 2.506927471 2.5386607302 
2.5703939893 2.6021272484 2.6338605076 2.6655937667 2.6973270258 2.7290602849 2.7607935441 2.7925268032 2.8242600623 
2.8559933214 2.8877265806 2.9194598397 2.9511930988 2.982926358 3.0146596171 3.0463928762 3.0781261353 3.1098593945 
3.1415926536 
_radius 1 100 double
1.6700153261e-15 0.014099026592 0.028132873857 0.042031999968 0.055724801224 0.069137329311 0.082193554263 0.09481610921 0.10692744294 
0.11845135547 0.12931494028 0.13945097209 0.14880075784 0.15731739916 0.16496927274 0.17174332393 0.17764755734 0.1827120205 
0.18698772477 0.19054335546 0.19346017924 0.19582604897 0.19772961311 0.19925565631 0.2004819934 0.2014777065 0.20230198999 
0.20300267375 0.20361380744 0.20415250002 0.20461616134 0.20498177742 0.20520850448 0.20524391552 0.20503321699 0.20453002231 
0.20370688425 0.20256373438 0.20113267816 0.19947824271 0.19769301963 0.19588942912 0.19418891322 0.19271037603 0.19156017411 
0.19082588443 0.19057474845 0.19085548985 0.19170071742 0.1931275231 0.19513568851 0.19770468391 0.20079137246 0.20432996516 
0.2082348385 0.212405899 0.21673556741 0.22111621346 0.22544691465 0.22963863796 0.23361727507 0.23732435127 0.24071562125 
0.24375809704 0.24642625227 0.24869816723 0.25055222979 0.25196475548 0.25290864155 0.25335301033 0.25326375231 0.25260489923 
0.25134075627 0.24943864279 0.24687194374 0.24362302365 0.23968547819 0.23506523915 0.22978021455 0.2238584049 0.21733473017 
0.21024705279 0.20263201804 0.19452131725 0.18593882703 0.17689886182 0.16740558429 0.1574535158 0.14702907995 0.13611314693 
0.12468455013 0.11272446779 0.10022140075 0.087176282756 0.073607104376 0.059552376456 0.045072830474 0.030250944677 0.015188163756 
1.2099404892e-15 
_area 1 100 double
0 0.00056891876179 0.0022613071237 0.0050358577941 0.0088287312764 0.013558063648 0.019125802019 0.02541548909 0.032287057209 
0.039571703009 0.0470703477 0.054558131445 0.061795733483 0.06854677897 0.074599294196 0.079787856216 0.084011907606 0.087245581245 
0.089536119091 0.09099121503 0.091759020802 0.092006974493 0.091906616429 0.091629889197 0.091352241677 0.09123359012 0.091365008609 
0.091760401972 0.092399885381 0.093251624808 0.094270638352 0.095392044041 0.096525606492 0.097556705361 0.098358805582 0.098818252043 
0.098865188209 0.09849993741 0.097805888715 0.09694480864 0.096127224684 0.095541685382 0.095293782428 0.095424665867 0.095950546827 
0.096905183946 0.098338432169 0.10031526102 0.10288786228 0.10605231131 0.10977115333 0.11399926501 0.11869158133 0.12379694995 
0.12924749875 0.13494959815 0.14078247143 0.14660734216 0.15228441741 0.15769084068 0.16273232297 0.16734421366 0.17148243286 
0.17510878408 0.17817715672 0.18062629413 0.18238145177 0.18336314694 0.1834986537 0.18273198411 0.1810300559 0.17838508079 
0.17481463368 0.17036077661 0.16508846829 0.15908257235 0.15244295384 0.14527794249 0.13769682996 0.1298020351 0.12168193473 
0.11340617969 0.10502549808 0.096576675744 0.088091139296 0.079603911045 0.071159821572 0.062815544794 0.054638065627 0.046701505765 
0.039084411179 0.031868836516 0.025141339196 0.018994856319 0.013529776072 0.0088525164964 0.0050705806677 0.0022841859964 0.00057581824472 
1.1329702583e-17 
