# vtk DataFile Version 5.1
vtk output
ASCII
DATASET POLYDATA
POINTS 100 float
0.0865535 0.0485645 0.686199 0.0865734 0.0487156 0.685954 0.0867013 0.0490146 0.68506 
0.0868984 0.0494508 0.683523 0.0871046 0.0500074 0.681352 0.0872455 0.050663 0.678556 
0.0872412 0.0513921 0.675144 0.0870147 0.0521669 0.671124 0.0865011 0.0529582 0.666496 
0.0856531 0.053736 0.661258 0.0844454 0.0544701 0.655403 0.0828748 0.0551303 0.648924 
0.0809586 0.0556862 0.641812 0.0787292 0.0561073 0.634065 0.0762274 0.0563628 0.625685 
0.0734949 0.0564225 0.616686 0.0705669 0.056257 0.607092 0.0674659 0.0558401 0.596936 
0.0641979 0.0551502 0.586263 0.0607513 0.054173 0.575122 0.0570982 0.0529045 0.563563 
0.0531986 0.0513531 0.551635 0.0490064 0.0495421 0.539375 0.0444759 0.0475107 0.52681 
0.0395692 0.0453141 0.51395 0.034262 0.0430225 0.500789 0.0285472 0.0407185 0.487304 
0.0224373 0.0384926 0.473461 0.0159629 0.0364391 0.459216 0.00917011 0.0346501 0.444525 
0.00211506 0.0332097 0.429343 -0.00514155 0.0321891 0.413638 -0.0125405 0.0316418 0.397386 
-0.0200291 0.0316008 0.38058 -0.0275639 0.0320768 0.363224 -0.0351121 0.0330588 0.345336 
-0.0426498 0.0345153 0.32694 -0.0501583 0.036398 0.30806 -0.0576188 0.0386455 0.288718 
-0.0650063 0.0411884 0.268926 -0.072284 0.0439536 0.248684 -0.0793991 0.0468687 0.227976 
-0.0862799 0.0498658 0.206776 -0.0928374 0.0528833 0.185049 -0.098968 0.0558678 0.162756 
-0.104561 0.0587744 0.139867 -0.109504 0.061566 0.116364 -0.113699 0.0642126 0.0922528 
-0.117065 0.0666905 0.0675679 -0.11955 0.0689808 0.0423746 -0.121136 0.0710691 0.0167705 
-0.121843 0.0729456 -0.00911931 -0.121726 0.0746049 -0.0351489 -0.12087 0.076047 -0.0611617 
-0.119386 0.0772777 -0.0870021 -0.117394 0.0783089 -0.112527 -0.115015 0.0791584 -0.137618 
-0.11236 0.0798484 -0.162186 -0.109517 0.0804043 -0.18618 -0.106548 0.0808508 -0.209586 
-0.103479 0.0812093 -0.232422 -0.100305 0.0814933 -0.254734 -0.0969944 0.0817053 -0.276581 
-0.0934922 0.0818339 -0.298028 -0.0897335 0.0818519 -0.319132 -0.0856533 0.0817168 -0.33993 
-0.0811974 0.0813725 -0.360434 -0.0763319 0.0807535 -0.380628 -0.0710503 0.0797902 -0.400463 
-0.0653767 0.0784156 -0.419869 -0.0593666 0.0765731 -0.438757 -0.0531028 0.0742228 -0.457031 
-0.04669 0.0713478 -0.474603 -0.0402457 0.0679576 -0.491397 -0.0338915 0.0640905 -0.507363 
-0.0277441 0.0598116 -0.522482 -0.0219067 0.055209 -0.536766 -0.0164636 0.0503878 -0.550254 
-0.0114764 0.0454615 -0.563012 -0.00698326 0.0405432 -0.575116 -0.00299983 0.0357365 -0.586646 
0.000476937 0.0311278 -0.597675 0.00346453 0.0267802 -0.608258 0.00598998 0.0227303 -0.618423 
0.00808526 0.0189879 -0.628172 0.00978374 0.015539 -0.637479 0.0111179 0.0123507 -0.646291 
0.0121185 0.00937904 -0.654544 0.012815 0.00657724 -0.662163 0.0132372 0.00390383 -0.669079 
0.0134171 0.0013301 -0.675236 0.0133903 -0.00115463 -0.680599 0.0131976 -0.00354038 -0.685158 
0.0128847 -0.00579668 -0.688932 0.0125013 -0.00787578 -0.691962 0.0120984 -0.00971809 -0.694306 
0.0117257 -0.0112594 -0.696032 0.011427 -0.0124389 -0.697205 0.0112369 -0.0132066 -0.697881 
0.0111778 -0.0135297 -0.698097 
LINES 2 100
OFFSETS vtktypeint64
0 100 
CONNECTIVITY vtktypeint64
0 1 2 3 4 5 6 7 8 
9 10 11 12 13 14 15 16 17 
18 19 20 21 22 23 24 25 26 
27 28 29 30 31 32 33 34 35 
36 37 38 39 40 41 42 43 44 
45 46 47 48 49 50 51 52 53 
54 55 56 57 58 59 60 61 62 
63 64 65 66 67 68 69 70 71 
72 73 74 75 76 77 78 79 80 
81 82 83 84 85 86 87 88 89 
90 91 92 93 94 95 96 97 98 
99 
POINT_DATA 100
FIELD FieldData 3
_theta 1 100 double
0 0.031733259127 0.063466518254 0.095199777382 0.12693303651 0.15866629564 0.19039955476 0.22213281389 0.25386607302 
0.28559933214 0.31733259127 0.3490658504 0.38079910953 0.41253236865 0.44426562778 0.47599888691 0.50773214603 0.53946540516 
0.57119866429 0.60293192342 0.63466518254 0.66639844167 0.6981317008 0.72986495992 0.76159821905 0.79333147818 0.82506473731 
0.85679799643 0.88853125556 0.92026451469 0.95199777382 0.98373103294 1.0154642921 1.0471975512 1.0789308103 1.1106640695 
1.1423973286 1.1741305877 1.2058638468 1.237597106 1.2693303651 1.3010636242 1.3327968833 1.3645301425 1.3962634016 
1.4279966607 1.4597299198 1.491463179 1.5231964381 1.5549296972 1.5866629564 1.6183962155 1.6501294746 1.6818627337 
1.7135959929 1.745329252 1.7770625111 1.8087957702 1.8405290294 1.8722622885 1.9039955476 1.9357288068 1.9674620659 
1.999195325 2.0309285841 2.0626618433 2.0943951024 2.1261283615 2.1578616206 2.1895948798 2.2213281389 2.253061398 
2.2847946572 2.3165279163 2.3482611754 2.3799944345 2.4117276937 2.4434609528 2.4751942119 2.506927471 2.5386607302 
2.5703939893 2.6021272484 2.6338605076 2.6655937667 2.6973270258 2.7290602849 2.7607935441 2.7925268032 2.8242600623 
2.8559933214 2.8877265806 2.9194598397 2.9511930988 2.982926358 3.0146596171 3.0463928762 3.0781261353 3.1098593945 
3.1415926536 
_radius 1 100 double
3.4756863461e-16 0.013774123665 0.0275191118 0.041200024502 0.054778454229 0.068210626434 0.081445518805 0.09442353152 0.10707630101 
0.11932806917 0.13109867259 0.14230784033 0.15288021163 0.16275037219 0.17186725135 0.1801973665 0.18772658262 0.19446023847 
0.20042167527 0.20564939463 0.21019324738 0.21411015246 0.21745981069 0.22030072124 0.22268663031 0.22466347565 0.22626699349 
0.22752131638 0.22843889563 0.22902182425 0.22926426021 0.22915543834 0.22868285374 0.22783546482 0.22660693741 0.22499887955 
0.22302377337 0.22070709651 0.2180881032 0.21521893645 0.21216208896 0.20898660225 0.20576368768 0.20256260839 0.19944765308 
0.1964768432 0.19370261211 0.19117407585 0.18893980881 0.18704955548 0.18555339542 0.18449765624 0.18391809907 0.18383207407 
0.18423190763 0.18508145899 0.18631677088 0.18785059645 0.18957981128 0.19139443968 0.19318706426 0.19486154629 0.19634017885 
0.19756863077 0.19851832285 0.19918618614 0.19959204339 0.19977408043 0.1997829953 0.19967541105 0.19950703314 0.19932587883 
0.19916578012 0.19904032496 0.19893747474 0.1988152611 0.19859922101 0.19818255648 0.19743014815 0.19618701714 0.19429052992 
0.19158434105 0.1879316576 0.18322597713 0.17739840822 0.17042144091 0.16230939598 0.15311587547 0.14292858739 0.13186204466 
0.12004880887 0.10763006053 0.094746268653 0.081528630076 0.068091830885 0.054528613883 0.040906622732 0.027267968157 0.013631820731 
7.4837844345e-16 
_area 1 100 double
0 0.00050036382687 0.0019992655697 0.0044891629254 0.0079543853539 0.012366958475 0.017681591453 0.023830602936 0.030719943232 
0.038227807379 0.046207173673 0.054492667727 0.062910721253 0.071290846655 0.079475736413 0.087328943258 0.094740388015 0.10163077997 
0.10795564025 0.11370841903 0.11892105877 0.1236596419 0.12801240162 0.13206824847 0.13588843761 0.13948178739 0.14279717194 
0.14573872875 0.14819613046 0.15007634826 0.15132568785 0.15193588955 0.15193344552 0.15135765858 0.15023879633 0.14858804783 
0.14640346876 0.1436863175 0.14045793965 0.13676973592 0.13270361229 0.12836428678 0.12386686936 0.11932343305 0.11483172259 
0.11046883983 0.10629268568 0.10235220234 0.098702800066 0.095418198248 0.092588515397 0.090300452272 0.088609805142 0.087525855413 
0.087014527007 0.087010735087 0.087431041817 0.08818349313 0.08917178273 0.090286502659 0.091401174535 0.092399728317 0.09314232588 
0.093533670819 0.093549151803 0.093214208993 0.092596300564 0.091799566258 0.090963383886 0.09024935804 0.089772068305 0.08957352478 
0.089694720653 0.090176569024 0.091031238197 0.092222454177 0.093638223095 0.095083669962 0.096299094874 0.096992720679 0.096879338366 
0.095718241575 0.093343535722 0.089681894299 0.084756872584 0.078682431138 0.071649428236 0.063907531528 0.055743307993 0.047455288446 
0.039328606289 0.031613531224 0.024512068807 0.018174489918 0.012704463752 0.0081691766676 0.0046103986045 0.0020536121661 0.00051406171245 
8.9067490823e-18 
