# vtk DataFile Version 5.1
vtk output
ASCII
DATASET POLYDATA
POINTS 100 float
0.103322 0.05395 0.676595 0.103423 0.0540533 0.676483 0.103791 0.0541918 0.675943 
0.104377 0.0543484 0.674964 0.105105 0.0544982 0.673523 0.105881 0.0546136 0.671593 
0.106606 0.0546692 0.669135 0.107182 0.0546479 0.666101 0.107525 0.0545445 0.662438 
0.107572 0.0543686 0.658086 0.107286 0.0541445 0.652987 0.106653 0.0539089 0.647089 
0.105686 0.0537062 0.640352 0.104411 0.0535815 0.632755 0.102863 0.0535739 0.624299 
0.101074 0.053709 0.615013 0.0990698 0.053993 0.604953 0.0968554 0.0544088 0.594199 
0.0944174 0.0549152 0.582851 0.0917208 0.0554494 0.571022 0.0887133 0.0559316 0.558823 
0.0853315 0.0562736 0.54636 0.0815101 0.0563877 0.533718 0.0771921 0.0561969 0.520959 
0.0723383 0.055644 0.50811 0.0669354 0.0546986 0.495169 0.0610012 0.053362 0.482104 
0.0545859 0.0516682 0.46886 0.0477696 0.0496808 0.455366 0.0406557 0.0474879 0.441553 
0.033362 0.045193 0.427356 0.0260095 0.0429058 0.412731 0.0187104 0.0407314 0.397656 
0.0115581 0.0387611 0.382139 0.00461929 0.0370653 0.366212 -0.00207072 0.0356889 0.34993 
-0.00850826 0.0346506 0.333357 -0.0147176 0.0339443 0.316559 -0.0207435 0.033545 0.299589 
-0.0266412 0.0334152 0.282475 -0.0324654 0.0335137 0.265218 -0.0382584 0.0338027 0.247779 
-0.044041 0.0342553 0.23009 -0.0498056 0.0348597 0.212051 -0.0555129 0.0356208 0.193551 
-0.0610929 0.0365598 0.174471 -0.0664494 0.0377098 0.154712 -0.071468 0.0391099 0.1342 
-0.0760264 0.0407986 0.112906 -0.0800051 0.0428062 0.0908482 -0.0832979 0.0451478 0.0681014 
-0.0858205 0.0478191 0.0447881 -0.087517 0.0507935 0.0210715 -0.088362 0.0540222 -0.00286027 
-0.08836 0.0574368 -0.0268109 -0.0875419 0.0609541 -0.0505953 -0.0859583 0.0644823 -0.0740571 
-0.083672 0.0679277 -0.0970824 -0.08075 0.0712012 -0.119608 -0.0772563 0.0742239 -0.141626 
-0.0732465 0.07693 -0.163175 -0.068765 0.0792693 -0.184334 -0.063844 0.0812056 -0.205205 
-0.0585058 0.0827155 -0.225897 -0.0527669 0.0837839 -0.246506 -0.0466429 0.0844011 -0.267099 
-0.0401538 0.0845584 -0.287707 -0.0333293 0.0842461 -0.308312 -0.0262123 0.0834523 -0.328854 
-0.0188599 0.0821636 -0.349234 -0.0113435 0.0803677 -0.369327 -0.00374615 0.0780571 -0.388996 
0.00384187 0.0752336 -0.408111 0.011328 0.0719131 -0.426561 0.0186228 0.0681288 -0.444268 
0.0256448 0.0639341 -0.461193 0.0323244 0.0594019 -0.477338 0.0386056 0.0546229 -0.492737 
0.0444465 0.0497013 -0.50745 0.0498184 0.0447483 -0.521544 0.0547025 0.0398748 -0.53508 
0.0590875 0.0351839 -0.548098 0.062966 0.030764 -0.560602 0.0663325 0.0266825 -0.572557 
0.0691816 0.0229832 -0.583888 0.0715087 0.0196843 -0.594484 0.0733118 0.016781 -0.604214 
0.0745941 0.0142482 -0.612939 0.0753684 0.0120473 -0.620538 0.0756606 0.0101318 -0.626923 
0.0755131 0.00845467 -0.632053 0.0749862 0.00697391 -0.635949 0.0741585 0.00565729 -0.638695 
0.0731237 0.00448483 -0.640437 0.0719867 0.00344924 -0.641363 0.0708564 0.00255433 -0.641696 
0.0698382 0.00181192 -0.641662 0.0690255 0.00123769 -0.641469 0.0684918 0.000846913 -0.641286 
0.0682848 0.000650747 -0.641221 
LINES 2 100
OFFSETS vtktypeint64
0 100 
CONNECTIVITY vtktypeint64
0 1 2 3 4 5 6 7 8 
9 10 11 12 13 14 15 16 17 
18 19 20 21 22 23 24 25 26 
27 28 29 30 31 32 33 34 35 
36 37 38 39 40 41 42 43 44 
45 46 47 48 49 50 51 52 53 
54 55 56 57 58 59 60 61 62 
63 64 65 66 67 68 69 70 71 
72 73 74 75 76 77 78 79 80 
81 82 83 84 85 86 87 88 89 
90 91 92 93 94 95 96 97 98 
99 
POINT_DATA 100
FIELD FieldData 3
_theta 1 100 double
0 0.031733259127 0.063466518254 0.095199777382 0.12693303651 0.15866629564 0.19039955476 0.22213281389 0.25386607302 
0.28559933214 0.31733259127 0.3490658504 0.38079910953 0.41253236865 0.44426562778 0.47599888691 0.50773214603 0.53946540516 
0.57119866429 0.60293192342 0.63466518254 0.66639844167 0.6981317008 0.72986495992 0.76159821905 0.79333147818 0.82506473731 
0.85679799643 0.88853125556 0.92026451469 0.95199777382 0.98373103294 1.0154642921 1.0471975512 1.0789308103 1.1106640695 
1.1423973286 1.1741305877 1.2058638468 1.237597106 1.2693303651 1.3010636242 1.3327968833 1.3645301425 1.3962634016 
1.4279966607 1.4597299198 1.491463179 1.5231964381 1.5549296972 1.5866629564 1.6183962155 1.6501294746 1.6818627337 
1.7135959929 1.745329252 1.7770625111 1.8087957702 1.8405290294 1.8722622885 1.9039955476 1.9357288068 1.9674620659 
1.999195325 2.0309285841 2.0626618433 2.0943951024 2.1261283615 2.1578616206 2.1895948798 2.2213281389 2.253061398 
2.2847946572 2.3165279163 2.3482611754 2.3799944345 2.4117276937 2.4434609528 2.4751942119 2.506927471 2.5386607302 
2.5703939893 2.6021272484 2.6338605076 2.6655937667 2.6973270258 2.7290602849 2.7607935441 2.7925268032 2.8242600623 
2.8559933214 2.8877265806 2.9194598397 2.9511930988 2.982926358 3.0146596171 3.0463928762 3.0781261353 3.1098593945 
3.1415926536 
_radius 1 100 double
7.8286592502e-16 0.015445999456 0.030741568853 0.045739194478 0.060309572722 0.074348712664 0.08778260719 0.10056916272 0.11269737697 
0.12418400838 0.13506817235 0.14540442822 0.15525499075 0.16468172058 0.17373854049 0.18246492478 0.19088112406 0.19898574993 
0.20675614741 0.2141515992 0.22111895422 0.2275999285 0.23353917222 0.23889216747 0.2436320098 0.24775410442 0.25127785923 
0.25424470613 0.25671229733 0.25874545655 0.26040523759 0.26173799787 0.26276651245 0.26348477807 0.26385743084 0.2638238739 
0.26330649003 0.26222181351 0.26049328032 0.25806413707 0.25490919304 0.25104425551 0.24653223523 0.24148504007 0.23606055603 
0.23045434697 0.2248862745 0.21958304296 0.21475857867 0.21059490837 0.20722652116 0.20473083453 0.20312622821 0.20237728574 
0.20240491132 0.20309777129 0.20432189354 0.20592728062 0.20775296722 0.20963343129 0.21140854497 0.21293673076 0.21410848775 
0.21485666366 0.2151609134 0.21504560873 0.21457199312 0.21382623555 0.2129053362 0.21190279586 0.21089572555 0.20993471123 
0.20903731043 0.2081856041 0.20732778237 0.20638327945 0.20525050538 0.20381588351 0.20196283858 0.19957961284 0.19656522563 
0.19283340523 0.1883147754 0.18295784964 0.17672940153 0.16961456017 0.16161664524 0.15275648414 0.14307088622 0.13261012116 
0.12143456446 0.10961097114 0.097208987624 0.084298480899 0.07094810696 0.057225307694 0.043197596168 0.028934546754 0.014509503866 
8.8135688274e-16 
_area 1 100 double
0 0.00066033813244 0.0026095661964 0.0057566985915 0.0099636484378 0.01506236156 0.020873594001 0.027224333666 0.033961958576 
0.040964265762 0.048144923396 0.055454015538 0.062874155641 0.070413796604 0.078098776723 0.085961036603 0.094023367505 0.1022822326 
0.11069384971 0.11916838216 0.12757371903 0.13574765804 0.14351760819 0.15072804524 0.157273983 0.16313285777 0.16838113414 
0.17318127174 0.17773381956 0.18220734853 0.18667483805 0.19108389086 0.19526855192 0.1989894706 0.20198144903 0.20399271396 
0.20481153903 0.20428565818 0.20233879881 0.19897914332 0.19429301175 0.18842543078 0.18155651308 0.17388382313 0.16561676443 
0.15698180031 0.14823124364 0.13964738537 0.13153714201 0.12421551728 0.11797672994 0.11305359064 0.10957357483 0.10752546347 
0.10673933949 0.1069021523 0.10765114482 0.10867151519 0.10972451792 0.11063497873 0.11127342807 0.11154404555 0.11137338115 
0.11069426544 0.10946008348 0.10767593828 0.10541570063 0.10282428351 0.10010538279 0.097495944657 0.09522960875 0.093496276516 
0.09241051141 0.091995860472 0.092183167599 0.09282121119 0.093699899379 0.094581118424 0.095226332088 0.095413377889 0.094943873753 
0.093647711617 0.091390030315 0.088081938909 0.083692517891 0.078258028204 0.071884766649 0.064743754291 0.057057637991 0.049082122086 
0.041085224629 0.033327395416 0.026044594585 0.019435753142 0.013655950327 0.0088164584187 0.004991468565 0.0022286692383 0.00055873903173 
7.2169357742e-18 
