# vtk DataFile Version 5.1
vtk output
ASCII
DATASET POLYDATA
POINTS 100 float
0.0893389 0.0617161 0.732291 0.0894669 0.0616865 0.731748 0.0898266 0.0617516 0.730299 
0.090385 0.0618975 0.72796 0.0910911 0.0621013 0.724755 0.0918823 0.0623338 0.720716 
0.0926909 0.0625621 0.715877 0.0934517 0.0627521 0.710277 0.0941074 0.0628719 0.703955 
0.0946129 0.0628938 0.696949 0.0949365 0.0627965 0.689297 0.0950578 0.0625659 0.681035 
0.0949645 0.0621957 0.672197 0.094646 0.0616869 0.662818 0.0940874 0.0610469 0.652932 
0.0932636 0.0602873 0.642573 0.0921348 0.0594231 0.631773 0.0906454 0.05847 0.620565 
0.0887254 0.0574437 0.608979 0.0862955 0.056358 0.59704 0.0832751 0.0552246 0.584769 
0.0795922 0.0540526 0.572179 0.0751934 0.0528486 0.559276 0.0700541 0.0516177 0.54606 
0.0641858 0.0503635 0.532523 0.0576396 0.0490895 0.518657 0.0505055 0.0477992 0.504456 
0.0429078 0.0464969 0.489915 0.0349947 0.0451878 0.475042 0.0269261 0.043878 0.459859 
0.0188581 0.0425747 0.444399 0.0109287 0.0412857 0.428712 0.00324387 0.0400199 0.412863 
-0.0041316 0.0387868 0.396921 -0.0111796 0.0375974 0.380961 -0.017928 0.0364645 0.365048 
-0.0244446 0.0354036 0.349232 -0.0308261 0.0344338 0.333541 -0.0371833 0.0335781 0.317968 
-0.0436243 0.0328642 0.302471 -0.0502378 0.0323242 0.286973 -0.0570785 0.0319941 0.271359 
-0.0641563 0.0319121 0.25549 -0.0714304 0.0321167 0.239205 -0.0788098 0.0326438 0.222344 
-0.0861589 0.0335238 0.204752 -0.0933087 0.0347785 0.186303 -0.100071 0.0364178 0.166906 
-0.106255 0.0384377 0.146518 -0.111685 0.0408184 0.12515 -0.116212 0.0435243 0.102866 
-0.119728 0.0465045 0.0797817 -0.122171 0.0496951 0.056051 -0.123524 0.0530224 0.0318569 
-0.123817 0.0564069 0.00739454 -0.123113 0.0597677 -0.0171441 -0.1215 0.0630276 -0.0415856 
-0.11908 0.0661165 -0.0657872 -0.115956 0.0689756 -0.0896448 -0.11222 0.0715588 -0.113097 
-0.10795 0.0738344 -0.136124 -0.1032 0.075784 -0.15874 -0.0980068 0.0774008 -0.180984 
-0.0923877 0.0786871 -0.202909 -0.086348 0.0796501 -0.224568 -0.0798874 0.080299 -0.246 
-0.0730068 0.0806404 -0.267224 -0.0657141 0.0806764 -0.288228 -0.0580286 0.080402 -0.308973 
-0.0499822 0.079805 -0.329389 -0.0416193 0.078866 -0.349386 -0.0329942 0.0775612 -0.368859 
-0.0241674 0.0758648 -0.387704 -0.0152012 0.0737528 -0.40582 -0.00615659 0.071207 -0.423126 
0.00290918 0.0682189 -0.439567 0.0119429 0.0647925 -0.455111 0.0208936 0.0609472 -0.469756 
0.0297093 0.0567182 -0.483521 0.0383327 0.0521566 -0.496444 0.0466964 0.0473277 -0.508568 
0.0547197 0.0423084 -0.519937 0.0623072 0.0371833 -0.530586 0.06935 0.0320407 -0.540536 
0.0757307 0.0269682 -0.549788 0.0813309 0.0220487 -0.558329 0.086042 0.0173564 -0.566132 
0.0897772 0.0129544 -0.573163 0.0924831 0.00889228 -0.579388 0.0941509 0.00520592 -0.584785 
0.0948231 0.00191722 -0.589349 0.094597 -0.00096456 -0.593098 0.0936223 -0.00344105 -0.596077 
0.0920927 -0.00552231 -0.598355 0.0902335 -0.00722424 -0.600023 0.0882841 -0.00856574 -0.601183 
0.0864784 -0.0095662 -0.60194 0.0850244 -0.0102431 -0.602393 0.0840863 -0.0106102 -0.602621 
0.0837689 -0.0106763 -0.602675 
LINES 2 100
OFFSETS vtktypeint64
0 100 
CONNECTIVITY vtktypeint64
0 1 2 3 4 5 6 7 8 
9 10 11 12 13 14 15 16 17 
18 19 20 21 22 23 24 25 26 
27 28 29 30 31 32 33 34 35 
36 37 38 39 40 41 42 43 44 
45 46 47 48 49 50 51 52 53 
54 55 56 57 58 59 60 61 62 
63 64 65 66 67 68 69 70 71 
72 73 74 75 76 77 78 79 80 
81 82 83 84 85 86 87 88 89 
90 91 92 93 94 95 96 97 98 
99 
POINT_DATA 100
FIELD FieldData 3
_theta 1 100 double
0 0.031733259127 0.063466518254 0.095199777382 0.12693303651 0.15866629564 0.19039955476 0.22213281389 0.25386607302 
0.28559933214 0.31733259127 0.3490658504 0.38079910953 0.41253236865 0.44426562778 0.47599888691 0.50773214603 0.53946540516 
0.57119866429 0.60293192342 0.63466518254 0.66639844167 0.6981317008 0.72986495992 0.76159821905 0.79333147818 0.82506473731 
0.85679799643 0.88853125556 0.92026451469 0.95199777382 0.98373103294 1.0154642921 1.0471975512 1.0789308103 1.1106640695 
1.1423973286 1.1741305877 1.2058638468 1.237597106 1.2693303651 1.3010636242 1.3327968833 1.3645301425 1.3962634016 
1.4279966607 1.4597299198 1.491463179 1.5231964381 1.5549296972 1.5866629564 1.6183962155 1.6501294746 1.6818627337 
1.7135959929 1.745329252 1.7770625111 1.8087957702 1.8405290294 1.8722622885 1.9039955476 1.9357288068 1.9674620659 
1.999195325 2.0309285841 2.0626618433 2.0943951024 2.1261283615 2.1578616206 2.1895948798 2.2213281389 2.253061398 
2.2847946572 2.3165279163 2.3482611754 2.3799944345 2.4117276937 2.4434609528 2.4751942119 2.506927471 2.5386607302 
2.5703939893 2.6021272484 2.6338605076 2.6655937667 2.6973270258 2.7290602849 2.7607935441 2.7925268032 2.8242600623 
2.8559933214 2.8877265806 2.9194598397 2.9511930988 2.982926358 3.0146596171 3.0463928762 3.0781261353 3.1098593945 
3.1415926536 
_radius 1 100 double
6.7421629699e-16 0.014118134471 0.028097529468 0.041814949856 0.055165667592 0.068069524907 0.080473854914 0.092352810074 0.10370317808 
0.11453739684 0.12487505592 0.13473448343 0.14412595612 0.15304770678 0.16148536291 0.16941477356 0.17680738866 0.18363667823 
0.18988390219 0.19554204329 0.20061763732 0.205131073 0.20911627704 0.21262043705 0.21570374883 0.21843849478 0.220906444 
0.22319379485 0.22538357165 0.22754624668 0.22973004004 0.23195259426 0.2341954595 0.23640220641 0.23848031303 0.24030655182 
0.2417355299 0.24261113951 0.24278065443 0.24211086066 0.24050495673 0.23791822202 0.23436993793 0.2299490529 0.22481175512 
0.21917036998 0.21327454152 0.20738714587 0.20175854708 0.19660343618 0.19208437735 0.18830505782 0.18531388616 0.18311525236 
0.18168269053 0.18096740289 0.18089847407 0.18137674767 0.18226941201 0.1834128887 0.18462669309 0.18573453594 0.18658609723 
0.18707438245 0.18714640392 0.1868066854 0.18611366723 0.18516947142 0.18410422348 0.1830570723 0.1821567972 0.18150508837 
0.18116498244 0.18115550781 0.18145179771 0.18198863538 0.18266530703 0.18335065073 0.18388846798 0.18410416164 0.18381331142 
0.18283220056 0.18098953493 0.17813805342 0.17416450599 0.16899656563 0.16260562721 0.15500508831 0.14624450044 0.13640075485 
0.12556802953 0.11384840429 0.10134476163 0.088156878766 0.07438068465 0.060109818369 0.045438168102 0.030462113067 0.015281628933 
4.7237141963e-16 
_area 1 100 double
0 0.00056185945486 0.002219952852 0.0048957233783 0.0084701896457 0.012798648846 0.017726216456 0.023101720266 0.028788967182 
0.034675639326 0.04067984303 0.046752078149 0.052868274026 0.059013229101 0.065163309683 0.071279029834 0.077307827963 0.083190523703 
0.088867058493 0.094280413854 0.099378611458 0.1041152129 0.10845030623 0.11235561779 0.11582627204 0.11889676312 0.12165339936 
0.12423479003 0.126817658 0.12959579244 0.13276122541 0.13645741976 0.14069172522 0.14533037635 0.15017950177 0.15492154555 
0.15918440382 0.16258006143 0.16472682691 0.16529428645 0.16408523889 0.16127456707 0.1567425029 0.15103310261 0.14445032071 
0.13733995858 0.1300949654 0.1231355075 0.11680832461 0.1113268001 0.1067383058 0.10293972811 0.099744110283 0.09696240836 
0.094462850977 0.092200274691 0.090220408718 0.088634353483 0.087554065766 0.086996622119 0.086807425157 0.086688799859 0.086324075475 
0.085476839243 0.084025763769 0.081963998778 0.079382784705 0.076446821161 0.073367057397 0.070377268228 0.067718412744 0.065625602583 
0.064292477175 0.063801759418 0.064114732913 0.065120714832 0.066655916265 0.068529600773 0.070551440853 0.072518864651 0.074196958701 
0.075326292044 0.075649800814 0.074944058567 0.073049817422 0.069897117175 0.065519120362 0.060050872643 0.053713169102 0.046785551798 
0.03957472736 0.032384768399 0.025493719792 0.019138773289 0.013509991913 0.0087510185218 0.004964350991 0.0022186870554 0.00055641216095 
2.1955730854e-17 
