# vtk DataFile Version 5.1
vtk output
ASCII
DATASET POLYDATA
POINTS 100 float
0.0997853 0.0510577 0.648906 0.099912 0.0510975 0.648786 0.10035 0.0510725 0.648261 
0.101045 0.0510028 0.647321 0.101916 0.0509171 0.645946 0.10286 0.050848 0.644111 
0.103764 0.0508253 0.641786 0.104515 0.0508694 0.638935 0.105012 0.0509873 0.635517 
0.105175 0.0511683 0.631492 0.10495 0.0513848 0.626818 0.104312 0.0515938 0.621455 
0.103264 0.0517424 0.61537 0.101836 0.0517741 0.608537 0.100074 0.0516375 0.60094 
0.098034 0.051293 0.592577 0.0957708 0.0507202 0.583457 0.0933305 0.0499213 0.573608 
0.0907416 0.0489232 0.56307 0.0880109 0.0477747 0.551901 0.0851208 0.0465421 0.540166 
0.0820313 0.0453014 0.527942 0.0786839 0.0441293 0.515311 0.0750091 0.043094 0.502355 
0.0709352 0.0422466 0.489154 0.0663973 0.0416154 0.475779 0.0613464 0.0412024 0.462293 
0.0557565 0.0409839 0.448743 0.0496293 0.0409144 0.435162 0.0429956 0.0409339 0.421568 
0.0359141 0.0409767 0.407963 0.0284661 0.0409822 0.394336 0.0207486 0.0409041 0.380669 
0.0128653 0.0407189 0.366934 0.00491736 0.0404306 0.3531 -0.0030053 0.0400724 0.339136 
-0.0108313 0.0397041 0.325011 -0.018512 0.039406 0.3107 -0.0260232 0.0392697 0.29618 
-0.0333629 0.0393872 0.281431 -0.0405467 0.0398394 0.266437 -0.0476001 0.0406858 0.251178 
-0.0545494 0.0419561 0.235635 -0.0614127 0.0436462 0.219781 -0.0681901 0.0457165 0.203583 
-0.0748578 0.0480962 0.186998 -0.0813626 0.0506891 0.169976 -0.0876219 0.0533844 0.152463 
-0.0935253 0.056067 0.134397 -0.0989413 0.0586291 0.115722 -0.103726 0.0609804 0.0963837 
-0.107732 0.0630555 0.0763435 -0.110825 0.0648181 0.0555785 -0.112889 0.0662622 0.0340886 
-0.11384 0.0674085 0.0118994 -0.113634 0.0682984 -0.0109356 -0.112268 0.0689862 -0.0343355 
-0.109783 0.0695296 -0.0581945 -0.106261 0.0699803 -0.0823859 -0.101814 0.0703771 -0.106768 
-0.0965819 0.0707399 -0.131193 -0.0907157 0.0710676 -0.155511 -0.0843679 0.0713382 -0.179582 
-0.0776815 0.0715126 -0.203279 -0.0707803 0.0715393 -0.226496 -0.0637618 0.0713615 -0.249148 
-0.0566935 0.0709238 -0.271176 -0.0496123 0.0701785 -0.292544 -0.0425268 0.0690903 -0.313234 
-0.0354232 0.0676391 -0.333246 -0.0282728 0.0658206 -0.35259 -0.0210406 0.0636447 -0.37128 
-0.0136945 0.0611324 -0.389331 -0.00621377 0.0583121 -0.406752 0.00140443 0.055215 -0.423546 
0.00914024 0.0518718 -0.439705 0.0169492 0.0483101 -0.455217 0.0247632 0.0445542 -0.470062 
0.0324934 0.040625 -0.484217 0.0400364 0.0365429 -0.49766 0.0472805 0.0323309 -0.510378 
0.0541141 0.0280177 -0.522363 0.0604334 0.023641 -0.533619 0.0661496 0.0192489 -0.544163 
0.0711947 0.0149004 -0.55402 0.0755258 0.0106632 -0.563226 0.0791272 0.00661041 -0.57182 
0.0820104 0.00281516 -0.579841 0.0842126 -0.000655453 -0.587325 0.085793 -0.00374643 -0.594294 
0.0868284 -0.00642018 -0.60076 0.0874077 -0.00866021 -0.606719 0.0876267 -0.0104726 -0.612148 
0.0875822 -0.011885 -0.617011 0.0873673 -0.0129429 -0.621261 0.0870671 -0.0137038 -0.624843 
0.086755 -0.0142299 -0.6277 0.0864902 -0.0145805 -0.62978 0.0863159 -0.0148037 -0.631042 
0.0862579 -0.0149309 -0.631456 
LINES 2 100
OFFSETS vtktypeint64
0 100 
CONNECTIVITY vtktypeint64
0 1 2 3 4 5 6 7 8 
9 10 11 12 13 14 15 16 17 
18 19 20 21 22 23 24 25 26 
27 28 29 30 31 32 33 34 35 
36 37 38 39 40 41 42 43 44 
45 46 47 48 49 50 51 52 53 
54 55 56 57 58 59 60 61 62 
63 64 65 66 67 68 69 70 71 
72 73 74 75 76 77 78 79 80 
81 82 83 84 85 86 87 88 89 
90 91 92 93 94 95 96 97 98 
99 
POINT_DATA 100
FIELD FieldData 3
_theta 1 100 double
0 0.031733259127 0.063466518254 0.095199777382 0.12693303651 0.15866629564 0.19039955476 0.22213281389 0.25386607302 
0.28559933214 0.31733259127 0.3490658504 0.38079910953 0.41253236865 0.44426562778 0.47599888691 0.50773214603 0.53946540516 
0.57119866429 0.60293192342 0.63466518254 0.66639844167 0.6981317008 0.72986495992 0.76159821905 0.79333147818 0.82506473731 
0.85679799643 0.88853125556 0.92026451469 0.95199777382 0.98373103294 1.0154642921 1.0471975512 1.0789308103 1.1106640695 
1.1423973286 1.1741305877 1.2058638468 1.237597106 1.2693303651 1.3010636242 1.3327968833 1.3645301425 1.3962634016 
1.4279966607 1.4597299198 1.491463179 1.5231964381 1.5549296972 1.5866629564 1.6183962155 1.6501294746 1.6818627337 
1.7135959929 1.745329252 1.7770625111 1.8087957702 1.8405290294 1.8722622885 1.9039955476 1.9357288068 1.9674620659 
1.999195325 2.0309285841 2.0626618433 2.0943951024 2.1261283615 2.1578616206 2.1895948798 2.2213281389 2.253061398 
2.2847946572 2.3165279163 2.3482611754 2.3799944345 2.4117276937 2.4434609528 2.4751942119 2.506927471 2.5386607302 
2.5703939893 2.6021272484 2.6338605076 2.6655937667 2.6973270258 2.7290602849 2.7607935441 2.7925268032 2.8242600623 
2.8559933214 2.8877265806 2.9194598397 2.9511930988 2.982926358 3.0146596171 3.0463928762 3.0781261353 3.1098593945 
3.1415926536 
_radius 1 100 double
1.0215267946e-15 0.013573056588 0.027078342094 0.040445420689 0.053609955687 0.066514100135 0.079104795615 0.091330995333 0.10314132502 
0.11448347711 0.12530580233 0.13556056109 0.14520761792 0.15421727892 0.16257144939 0.17026305512 0.17729435826 0.18367511278 
0.18942136032 0.19455520802 0.19910542013 0.2031083209 0.20660844123 0.20965850496 0.21231862308 0.21465481431 0.21673708812 
0.21863725706 0.2204264098 0.22217170321 0.22393202152 0.22575227239 0.22765665314 0.22964191664 0.23167215666 0.23367662448 
0.23555153159 0.23716593041 0.23837101008 0.23901180923 0.23894041055 0.23802982774 0.23618772766 0.23336885711 0.22958479851 
0.22490965048 0.21948043329 0.21349138821 0.20718185256 0.20081809923 0.19467049393 0.18898848937 0.18397706344 0.17977872141 
0.17646456604 0.17403592764 0.1724351643 0.17156190566 0.17129046577 0.17148523354 0.17201234962 0.17274709503 0.17357736289 
0.17440476726 0.1751458482 0.17573516169 0.1761296604 0.17631181528 0.1762893873 0.17609190371 0.17576546207 0.17536706477 
0.17495774751 0.17459266121 0.17430793876 0.17410711957 0.17395109367 0.17375441397 0.17338887595 0.17269360683 0.17148981927 
0.16959783972 0.16685397284 0.16312512619 0.15831972594 0.15239411623 0.14535422106 0.13725271348 0.12818229712 0.11826598714 
0.10764549544 0.096468968647 0.084879374041 0.073004744981 0.060951251821 0.048799645595 0.036605079158 0.024399774102 0.012197650481 
1.0335613107e-15 
_area 1 100 double
0 0.00049669031781 0.0019789122657 0.0044231405264 0.0077901869111 0.012025078202 0.017056727618 0.022797582923 0.029143791175 
0.035976635986 0.04316585745 0.050574928957 0.05806763391 0.065514762381 0.072799892643 0.079824050128 0.086509800515 0.092805169386 
0.098686639983 0.10415916743 0.10925072746 0.1140002006 0.11844044869 0.12258219708 0.12640649894 0.12987147328 0.13293260653 
0.13556935216 0.13780825139 0.13973480563 0.14149154825 0.14326520526 0.14526370589 0.14767242878 0.15058612931 0.15395364824 
0.15757556329 0.1611426783 0.16428621082 0.16662943136 0.16783529488 0.16764078578 0.16587686448 0.16248330966 0.15752277968 
0.1511863079 0.14378149562 0.13570154886 0.12737942313 0.11923611078 0.11163561118 0.10485608949 0.099074789167 0.094359504319 
0.090672153678 0.087894716927 0.085861471315 0.084372245168 0.083207121978 0.082162892741 0.081082938793 0.079866906833 0.078471003433 
0.076907161879 0.075248106753 0.073636968064 0.072229792727 0.070990289929 0.069769239581 0.068550077239 0.067426537129 0.066536072381 
0.0660197156 0.065994351423 0.066530848747 0.067631802238 0.069202576584 0.071033367478 0.072827850482 0.074264573699 0.075046829608 
0.074932053036 0.073750364198 0.071416364919 0.067933589064 0.06339071591 0.057949966931 0.051829340727 0.045281010608 0.038568428759 
0.031944681306 0.02563448596 0.019821817353 0.014644361591 0.010194830886 0.0065278166311 0.0036697845496 0.0016295342915 0.00040708226875 
3.3637368431e-17 
