# vtk DataFile Version 5.1
vtk output
ASCII
DATASET POLYDATA
POINTS 100 float
0.124922 0.0565173 0.713065 0.125048 0.0566984 0.712746 0.125445 0.0570753 0.711626 
0.12605 0.0576183 0.709733 0.126764 0.0582817 0.70711 0.127465 0.059009 0.703807 
0.128016 0.0597386 0.699872 0.128284 0.0604104 0.695343 0.12815 0.0609713 0.690243 
0.127521 0.0613793 0.684572 0.126331 0.0616063 0.678309 0.124555 0.0616384 0.671416 
0.122198 0.0614742 0.663845 0.119294 0.0611219 0.655543 0.115899 0.0605945 0.646471 
0.112078 0.059906 0.636607 0.107898 0.0590671 0.625957 0.103415 0.0580821 0.61456 
0.0986703 0.0569482 0.602492 0.0936861 0.0556562 0.589856 0.0884636 0.0541929 0.576779 
0.082988 0.0525453 0.563401 0.0772339 0.0507052 0.549858 0.0711739 0.0486743 0.536273 
0.0647867 0.0464683 0.522741 0.0580658 0.044119 0.509322 0.0510254 0.0416752 0.496035 
0.0437029 0.0392006 0.482858 0.0361592 0.0367703 0.469736 0.0284743 0.0344645 0.456584 
0.0207399 0.0323618 0.4433 0.0130506 0.0305325 0.429779 0.00549294 0.029032 0.415925 
-0.0018639 0.0278961 0.401654 -0.00897626 0.0271385 0.386905 -0.0158306 0.0267514 0.371643 
-0.0224443 0.0267076 0.355849 -0.0288619 0.0269665 0.339523 -0.0351479 0.0274801 0.322668 
-0.0413751 0.0282006 0.305288 -0.0476122 0.0290878 0.287374 -0.0539102 0.0301147 0.268904 
-0.06029 0.0312711 0.249838 -0.0667329 0.0325647 0.230121 -0.0731757 0.0340193 0.20969 
-0.07951 0.0356702 0.188483 -0.0855875 0.0375577 0.166449 -0.0912295 0.0397194 0.143565 
-0.0962414 0.0421822 0.119839 -0.100429 0.0449557 0.0953194 -0.103615 0.048027 0.0700989 
-0.105656 0.0513586 0.044308 -0.106457 0.0548886 0.018108 -0.105978 0.0585348 -0.00832247 
-0.104238 0.0622004 -0.0348023 -0.101316 0.0657822 -0.0611648 -0.097337 0.0691789 -0.087272 
-0.0924666 0.0722993 -0.113026 -0.0868899 0.0750691 -0.138377 -0.0807966 0.0774352 -0.163318 
-0.0743631 0.0793673 -0.187884 -0.0677379 0.0808563 -0.21214 -0.0610303 0.0819102 -0.236159 
-0.0543042 0.0825477 -0.260012 -0.0475773 0.0827908 -0.283746 -0.0408255 0.0826573 -0.307372 
-0.0339929 0.082154 -0.330856 -0.0270044 0.0812723 -0.354115 -0.0197809 0.0799866 -0.377022 
-0.0122548 0.0782553 -0.399417 -0.00438431 0.0760247 -0.421123 0.00383644 0.0732364 -0.441968 
0.0123701 0.069835 -0.461797 0.0211346 0.0657773 -0.480498 0.0300068 0.0610407 -0.498008 
0.0388302 0.0556303 -0.514323 0.0474277 0.0495827 -0.529496 0.0556151 0.0429678 -0.543626 
0.0632173 0.0358867 -0.556845 0.0700827 0.0284663 -0.569297 0.0760957 0.0208518 -0.58112 
0.0811858 0.0131978 -0.592422 0.0853321 0.0056575 -0.603266 0.0885638 -0.00162611 -0.613662 
0.090955 -0.00852896 -0.623565 0.0926167 -0.0149518 -0.632881 0.0936854 -0.0208239 -0.641478 
0.0943094 -0.0261038 -0.64921 0.0946358 -0.0307773 -0.655939 0.0947982 -0.0348542 -0.661554 
0.0949063 -0.0383626 -0.665995 0.0950394 -0.0413433 -0.669267 0.0952436 -0.0438437 -0.671441 
0.0955321 -0.0459128 -0.672655 0.0958898 -0.0475967 -0.673104 0.0962809 -0.0489362 -0.673015 
0.0966574 -0.0499647 -0.672627 0.0969692 -0.0507078 -0.672161 0.0971728 -0.0511833 -0.671798 
0.0972392 -0.0514019 -0.671655 
LINES 2 100
OFFSETS vtktypeint64
0 100 
CONNECTIVITY vtktypeint64
0 1 2 3 4 5 6 7 8 
9 10 11 12 13 14 15 16 17 
18 19 20 21 22 23 24 25 26 
27 28 29 30 31 32 33 34 35 
36 37 38 39 40 41 42 43 44 
45 46 47 48 49 50 51 52 53 
54 55 56 57 58 59 60 61 62 
63 64 65 66 67 68 69 70 71 
72 73 74 75 76 77 78 79 80 
81 82 83 84 85 86 87 88 89 
90 91 92 93 94 95 96 97 98 
99 
POINT_DATA 100
FIELD FieldData 3
_theta 1 100 double
0 0.031733259127 0.063466518254 0.095199777382 0.12693303651 0.15866629564 0.19039955476 0.22213281389 0.25386607302 
0.28559933214 0.31733259127 0.3490658504 0.38079910953 0.41253236865 0.44426562778 0.47599888691 0.50773214603 0.53946540516 
0.57119866429 0.60293192342 0.63466518254 0.66639844167 0.6981317008 0.72986495992 0.76159821905 0.79333147818 0.82506473731 
0.85679799643 0.88853125556 0.92026451469 0.95199777382 0.98373103294 1.0154642921 1.0471975512 1.0789308103 1.1106640695 
1.1423973286 1.1741305877 1.2058638468 1.237597106 1.2693303651 1.3010636242 1.3327968833 1.3645301425 1.3962634016 
1.4279966607 1.4597299198 1.491463179 1.5231964381 1.5549296972 1.5866629564 1.6183962155 1.6501294746 1.6818627337 
1.7135959929 1.745329252 1.7770625111 1.8087957702 1.8405290294 1.8722622885 1.9039955476 1.9357288068 1.9674620659 
1.999195325 2.0309285841 2.0626618433 2.0943951024 2.1261283615 2.1578616206 2.1895948798 2.2213281389 2.253061398 
2.2847946572 2.3165279163 2.3482611754 2.3799944345 2.4117276937 2.4434609528 2.4751942119 2.506927471 2.5386607302 
2.5703939893 2.6021272484 2.6338605076 2.6655937667 2.6973270258 2.7290602849 2.7607935441 2.7925268032 2.8242600623 
2.8559933214 2.8877265806 2.9194598397 2.9511930988 2.982926358 3.0146596171 3.0463928762 3.0781261353 3.1098593945 
3.1415926536 
_radius 1 100 double
7.7966123329e-16 0.014102112177 0.02817947946 0.042196405339 0.056111557843 0.069874527095 0.083422543692 0.096678781327 0.10955348377 
0.12194837006 0.13376381348 0.14490758292 0.15530367529 0.1648998968 0.17367316585 0.18163182577 0.18881451276 0.19528540091 
0.20112606007 0.20642475384 0.21126466147 0.21571299531 0.21981306944 0.22358094264 0.22700737183 0.23006467083 0.23271695542 
0.23493147786 0.23668855585 0.23798804289 0.23885120263 0.2393179331 0.23944022013 0.23927326507 0.23886588794 0.23825170814 
0.23744247906 0.23642484339 0.23516143636 0.233596494 0.23166518426 0.22930528889 0.22646978636 0.22313900597 0.21933097868 
0.21510838189 0.21058038626 0.20589814463 0.20124373898 0.19681386244 0.19280084094 0.1893742566 0.18666605599 0.18476057734 
0.18368895193 0.18342600061 0.18388824906 0.18493409392 0.18636979139 0.1879652404 0.18948021114 0.19069652204 0.1914484045 
0.19164394149 0.19127385313 0.19040766003 0.18917972913 0.18776838415 0.18637095728 0.18517765941 0.18434748204 0.18398898993 
0.18414755648 0.18479927485 0.18585128859 0.18714842837 0.18848605475 0.18962846264 0.19033121004 0.19036466641 0.18953535725 
0.18770165852 0.18478120986 0.18074894966 0.17562659481 0.16946623871 0.16233203282 0.15428423485 0.14536907263 0.13561608726 
0.12504245815 0.11366200514 0.10149566755 0.088580426961 0.074974624957 0.06075898701 0.046033963921 0.030914898457 0.015526788649 
1.2957513846e-15 
_area 1 100 double
0 0.00057333068716 0.0022825329237 0.0050952282511 0.008957274834 0.01379227273 0.019501141977 0.025962886604 0.033037821386 
0.040573731358 0.048414011913 0.056405756315 0.064405875686 0.072284715019 0.079928394294 0.087242006176 0.094155084422 0.1006287002 
0.10666130279 0.11228938171 0.11758009245 0.12261601717 0.12747588564 0.13221740557 0.13686770129 0.1414225891 0.14584999194 
0.15009111465 0.15405958197 0.15764654979 0.16073783073 0.16324080185 0.16511812396 0.16641975806 0.16724301989 0.16761734133 
0.16731736374 0.16626469841 0.16432880519 0.16142842994 0.15755743127 0.15284472729 0.14742184434 0.14169583515 0.13612570327 
0.13086986934 0.12561152983 0.12038896483 0.11527763393 0.1103563393 0.10570608084 0.10141681771 0.097595670801 0.094369416858 
0.091873963166 0.090216906755 0.089409259251 0.089322500635 0.089710497947 0.090262159763 0.090671011632 0.090707340501 0.090256669978 
0.089309615155 0.087927178443 0.086209234455 0.084277163003 0.082270682686 0.080354218989 0.078719049357 0.07756568545 0.077066785831 
0.077332775865 0.078381585671 0.080292456652 0.08283467028 0.085444568087 0.087839131123 0.089762283752 0.090979805944 0.091293081725 
0.090557056306 0.088695865339 0.085708638207 0.081660415225 0.076660449358 0.07083894133 0.064334823609 0.057297540747 0.049895009603 
0.042318807308 0.03478280116 0.027515299334 0.020746011463 0.014689779967 0.0095302500565 0.0054077717104 0.0024155414434 0.00060536260862 
5.0388059428e-17 
