# vtk DataFile Version 5.1
vtk output
ASCII
DATASET POLYDATA
POINTS 100 float
0.0429952 0.0162793 -0.691931 0.0428365 0.0162039 -0.691684 0.042378 0.0161239 -0.691008 
0.0416317 0.0160517 -0.689857 0.0406155 0.0160084 -0.688163 0.0393514 0.0160229 -0.685835 
0.037863 0.0161309 -0.682778 0.0361724 0.0163732 -0.678898 0.0342979 0.0167937 -0.674112 
0.0322506 0.0174376 -0.668361 0.0300334 0.0183481 -0.66161 0.027639 0.0195649 -0.653855 
0.0250504 0.0211205 -0.64512 0.0222412 0.0230389 -0.635454 0.0191781 0.0253331 -0.624924 
0.0158238 0.028004 -0.61361 0.0121403 0.03104 -0.60159 0.00809341 0.0344164 -0.588934 
0.0036569 0.0380965 -0.575699 -0.00118373 0.0420329 -0.561921 -0.0064281 0.0461688 -0.547612 
-0.0120589 0.0504404 -0.532764 -0.0180413 0.0547788 -0.51735 -0.0243238 0.0591119 -0.501334 
-0.0308404 0.0633665 -0.484675 -0.0375148 0.0674698 -0.467336 -0.0442646 0.0713509 -0.449295 
-0.0510072 0.0749416 -0.430547 -0.0576648 0.0781782 -0.41111 -0.0641696 0.0810018 -0.391024 
-0.0704677 0.0833603 -0.37035 -0.0765217 0.0852097 -0.349166 -0.0823111 0.0865157 -0.327555 
-0.0878315 0.0872557 -0.305601 -0.0930909 0.0874211 -0.283378 -0.0981053 0.0870185 -0.260943 
-0.102893 0.0860715 -0.238332 -0.107467 0.0846209 -0.215554 -0.111832 0.0827244 -0.192596 
-0.115973 0.0804546 -0.169424 -0.119858 0.0778961 -0.145993 -0.123432 0.0751412 -0.122255 
-0.126619 0.0722843 -0.0981713 -0.129323 0.0694162 -0.0737198 -0.131435 0.0666182 -0.0489079 
-0.132842 0.0639558 -0.0237772 -0.133428 0.061475 0.00159365 -0.133093 0.0591988 0.0270901 
-0.131751 0.0571267 0.0525667 -0.129347 0.0552356 0.0778568 -0.125855 0.053484 0.102784 
-0.121285 0.051817 0.127175 -0.115684 0.0501739 0.150876 -0.109131 0.0484957 0.173761 
-0.101735 0.0467336 0.195746 -0.0936272 0.0448554 0.216792 -0.0849511 0.0428518 0.236907 
-0.0758558 0.0407391 0.256143 -0.0664862 0.0385601 0.274592 -0.0569742 0.0363818 0.292368 
-0.047433 0.0342902 0.309602 -0.0379519 0.0323837 0.326424 -0.0285939 0.0307641 0.342948 
-0.0193961 0.0295273 0.359266 -0.0103713 0.0287547 0.375435 -0.00151218 0.0285051 0.391476 
0.00720349 0.028809 0.407377 0.015807 0.0296655 0.423094 0.0243324 0.031042 0.438558 
0.0328113 0.0328766 0.453693 0.0412675 0.0350832 0.46842 0.0497142 0.0375585 0.482673 
0.0581511 0.04019 0.496406 0.0665643 0.0428646 0.5096 0.074927 0.0454765 0.522267 
0.0832008 0.0479337 0.534445 0.0913386 0.0501628 0.546196 0.099288 0.0521118 0.557597 
0.106994 0.0537501 0.568726 0.114402 0.0550672 0.579653 0.121462 0.0560696 0.590433 
0.128128 0.0567762 0.601088 0.134364 0.0572139 0.61161 0.140141 0.0574135 0.621956 
0.145439 0.0574056 0.632052 0.150248 0.0572189 0.641794 0.154567 0.0568783 0.651068 
0.158403 0.0564057 0.65975 0.161769 0.0558206 0.667727 0.164688 0.0551422 0.674905 
0.167184 0.0543911 0.681218 0.169289 0.0535913 0.686635 0.171034 0.0527709 0.691161 
0.172454 0.0519625 0.694838 0.173583 0.051202 0.697734 0.174451 0.0505268 0.699936 
0.175089 0.0499734 0.701539 0.175519 0.0495739 0.702633 0.175761 0.0493538 0.70329 
0.175825 0.0493289 0.703558 
LINES 2 100
OFFSETS vtktypeint64
0 100 
CONNECTIVITY vtktypeint64
0 1 2 3 4 5 6 7 8 
9 10 11 12 13 14 15 16 17 
18 19 20 21 22 23 24 25 26 
27 28 29 30 31 32 33 34 35 
36 37 38 39 40 41 42 43 44 
45 46 47 48 49 50 51 52 53 
54 55 56 57 58 59 60 61 62 
63 64 65 66 67 68 69 70 71 
72 73 74 75 76 77 78 79 80 
81 82 83 84 85 86 87 88 89 
90 91 92 93 94 95 96 97 98 
99 
POINT_DATA 100
FIELD FieldData 3
_theta 1 100 double
0 0.031733259127 0.063466518254 0.095199777382 0.12693303651 0.15866629564 0.19039955476 0.22213281389 0.25386607302 
0.28559933214 0.31733259127 0.3490658504 0.38079910953 0.41253236865 0.44426562778 0.47599888691 0.50773214603 0.53946540516 
0.57119866429 0.60293192342 0.63466518254 0.66639844167 0.6981317008 0.72986495992 0.76159821905 0.79333147818 0.82506473731 
0.85679799643 0.88853125556 0.92026451469 0.95199777382 0.98373103294 1.0154642921 1.0471975512 1.0789308103 1.1106640695 
1.1423973286 1.1741305877 1.2058638468 1.237597106 1.2693303651 1.3010636242 1.3327968833 1.3645301425 1.3962634016 
1.4279966607 1.4597299198 1.491463179 1.5231964381 1.5549296972 1.5866629564 1.6183962155 1.6501294746 1.6818627337 
1.7135959929 1.745329252 1.7770625111 1.8087957702 1.8405290294 1.8722622885 1.9039955476 1.9357288068 1.9674620659 
1.999195325 2.0309285841 2.0626618433 2.0943951024 2.1261283615 2.1578616206 2.1895948798 2.2213281389 2.253061398 
2.2847946572 2.3165279163 2.3482611754 2.3799944345 2.4117276937 2.4434609528 2.4751942119 2.506927471 2.5386607302 
2.5703939893 2.6021272484 2.6338605076 2.6655937667 2.6973270258 2.7290602849 2.7607935441 2.7925268032 2.8242600623 
2.8559933214 2.8877265806 2.9194598397 2.9511930988 2.982926358 3.0146596171 3.0463928762 3.0781261353 3.1098593945 
3.1415926536 
_radius 1 100 double
6.7046557412e-16 0.013130721145 0.026241375032 0.039303445841 0.052274536195 0.065092927253 0.077674293764 0.089911537382 0.10167838642 
0.11283682875 0.12324775468 0.13278354224 0.14134084378 0.14885162883 0.15529066423 0.16067808041 0.16507643995 0.16858269518 
0.17131642456 0.17340652341 0.17497880159 0.17614652676 0.17700494392 0.17762961918 0.17807761354 0.17839026995 0.17859668945 
0.17871742281 0.1787681745 0.17876327706 0.17871846585 0.17865230505 0.17858568502 0.17853921047 0.17852898488 0.17856208071 
0.17863350561 0.17872631366 0.17881548755 0.17887468838 0.17888378544 0.17883500192 0.17873650537 0.17861343594 0.17850680151 
0.17847049063 0.17856680643 0.17886176292 0.17942187521 0.18031306446 0.18160001018 0.18334288857 0.18558942988 0.18836301346 
0.19165019932 0.19539208849 0.19948284907 0.2037764489 0.20810034583 0.21227345014 0.21612523746 0.21951314909 0.22233601142 
0.22454192286 0.2261298037 0.22714454019 0.22766635988 0.22779574228 0.22763577161 0.22727430353 0.22676851817 0.22613423469 
0.22534170753 0.22431858948 0.2229595483 0.22114092927 0.21873807663 0.21564255937 0.21177661433 0.207102617 0.20162626149 
0.19539322317 0.18848015509 0.1809817055 0.17299570225 0.16460870575 0.15588385777 0.14685247771 0.13751032053 0.12781890698 
0.11771187986 0.10710587179 0.095914831881 0.084066175404 0.071516624509 0.058265386135 0.044362501975 0.029910823734 0.015061007589 
3.6712071407e-16 
_area 1 100 double
0 0.00044266837494 0.0017742118131 0.0040037010011 0.0071403076627 0.011182350886 0.016100524387 0.021818402946 0.028196205279 
0.035023847402 0.042027171008 0.048888468948 0.055279444916 0.060901587815 0.065526369773 0.069026735134 0.071392575888 0.072726111065 
0.073217680453 0.073107524627 0.072643317232 0.072044954098 0.071486962361 0.071105697404 0.071008061588 0.071208343514 0.071631602425 
0.072190873323 0.072807230565 0.073411103454 0.073948708693 0.07439286132 0.074751989925 0.075071244472 0.075420157656 0.075867125587 
0.076450917971 0.077161962767 0.077944734323 0.078724979253 0.079446106219 0.080097564981 0.080731689546 0.081470151081 0.082486560408 
0.083928673266 0.085814133635 0.088065912691 0.090540738353 0.092986007657 0.095325199844 0.097641307242 0.10012431685 0.10300094208 
0.10647741681 0.11066990622 0.11554458803 0.12091177136 0.12646595806 0.13184724555 0.13670545331 0.14075365353 0.14380122568 
0.14576282732 0.1466488314 0.14654815643 0.14560861134 0.14401310189 0.14195285987 0.13960214982 0.13709721874 0.13452021258 
0.13188964276 0.12916095309 0.12623985891 0.12300656842 0.11934478022 0.11516834374 0.11043946669 0.1051749545 0.099440853088 
0.093338601225 0.086986442831 0.080499876921 0.073975248925 0.067480268438 0.06105313412 0.05470878219 0.048448802402 0.042272147287 
0.036185782076 0.030215515414 0.024416430888 0.018880763751 0.01374030814 0.0091609886983 0.0053287574592 0.0024280682097 0.00061640110588 
9.3888621922e-17 
