# vtk DataFile Version 5.1
vtk output
ASCII
DATASET POLYDATA
POINTS 100 float
0.118883 0.0584783 0.674328 0.118771 0.0585914 0.674096 0.118498 0.058797 0.673271 
0.118054 0.059084 0.671875 0.117428 0.0594355 0.669944 0.116609 0.0598296 0.667515 
0.115584 0.0602418 0.664625 0.114351 0.0606458 0.661299 0.112911 0.061016 0.657548 
0.111274 0.0613277 0.65336 0.109457 0.0615587 0.648706 0.107483 0.0616888 0.643534 
0.105374 0.0617003 0.637781 0.103149 0.0615774 0.63138 0.100818 0.0613058 0.624266 
0.0983805 0.0608729 0.616388 0.0958187 0.0602676 0.607715 0.093101 0.0594815 0.598245 
0.0901816 0.0585099 0.588006 0.0870047 0.0573532 0.577055 0.0835102 0.0560185 0.565475 
0.0796408 0.0545212 0.553367 0.0753486 0.0528854 0.54084 0.0706026 0.0511448 0.528001 
0.0653929 0.0493413 0.514944 0.0597336 0.0475229 0.501745 0.0536627 0.0457416 0.488451 
0.0472387 0.0440491 0.475077 0.0405351 0.0424933 0.461613 0.0336324 0.0411146 0.448018 
0.0266098 0.0399424 0.434235 0.0195363 0.0389934 0.420191 0.0124639 0.0382711 0.405812 
0.005423 0.0377666 0.391024 -0.00157912 0.0374613 0.375762 -0.00855631 0.0373308 0.359973 
-0.015538 0.0373497 0.343619 -0.0225608 0.0374964 0.326673 -0.0296586 0.0377574 0.309118 
-0.0368516 0.038131 0.29094 -0.0441371 0.0386286 0.272133 -0.0514811 0.0392743 0.252684 
-0.0588148 0.0401027 0.232583 -0.0660341 0.0411543 0.211816 -0.0730039 0.0424697 0.190373 
-0.0795664 0.0440834 0.168247 -0.0855522 0.0460176 0.145447 -0.0907943 0.0482761 0.121996 
-0.0951416 0.0508416 0.0979403 -0.0984721 0.0536739 0.0733518 -0.100703 0.0567111 0.0483259 
-0.101798 0.0598738 0.0229803 -0.10177 0.0630703 -0.00255139 -0.100676 0.0662044 -0.0281279 
-0.0986129 0.0691827 -0.0536099 -0.0957082 0.0719226 -0.0788706 -0.0921042 0.0743571 -0.103804 
-0.087947 0.0764397 -0.128333 -0.0833725 0.0781442 -0.152412 -0.0784968 0.079464 -0.176026 
-0.0734078 0.080407 -0.199189 -0.068162 0.0809897 -0.221934 -0.0627851 0.0812303 -0.244307 
-0.0572756 0.0811413 -0.266349 -0.0516124 0.0807237 -0.288095 -0.0457635 0.0799636 -0.309554 
-0.0396961 0.0788311 -0.330715 -0.0333857 0.0772828 -0.351534 -0.0268233 0.0752669 -0.371946 
-0.0200212 0.0727312 -0.391864 -0.0130143 0.0696319 -0.411193 -0.00586013 0.0659433 -0.429841 
0.00136538 0.0616659 -0.44773 0.00857288 0.0568328 -0.464803 0.0156665 0.0515116 -0.481039 
0.0225505 0.0458043 -0.496449 0.0291358 0.0398408 -0.511077 0.0353449 0.0337711 -0.524996 
0.0411148 0.027753 -0.538296 0.0463987 0.0219394 -0.551072 0.0511651 0.016465 -0.563411 
0.0553965 0.011435 -0.575376 0.0590867 0.00691669 -0.587003 0.0622379 0.00293498 -0.598286 
0.0648589 -0.000527326 -0.609184 0.0669629 -0.00352467 -0.619618 0.0685678 -0.00613974 -0.629487 
0.0696963 -0.00847155 -0.638672 0.0703775 -0.0106218 -0.647059 0.070649 -0.0126816 -0.654548 
0.0705579 -0.0147196 -0.661069 0.0701621 -0.0167736 -0.666588 0.0695301 -0.0188461 -0.671116 
0.0687393 -0.0209047 -0.674706 0.0678728 -0.0228871 -0.677445 0.0670149 -0.0247099 -0.679446 
0.0662458 -0.0262801 -0.680833 0.065636 -0.0275075 -0.681721 0.0652404 -0.0283175 -0.682207 
0.0650943 -0.0286606 -0.682355 
LINES 2 100
OFFSETS vtktypeint64
0 100 
CONNECTIVITY vtktypeint64
0 1 2 3 4 5 6 7 8 
9 10 11 12 13 14 15 16 17 
18 19 20 21 22 23 24 25 26 
27 28 29 30 31 32 33 34 35 
36 37 38 39 40 41 42 43 44 
45 46 47 48 49 50 51 52 53 
54 55 56 57 58 59 60 61 62 
63 64 65 66 67 68 69 70 71 
72 73 74 75 76 77 78 79 80 
81 82 83 84 85 86 87 88 89 
90 91 92 93 94 95 96 97 98 
99 
POINT_DATA 100
FIELD FieldData 3
_theta 1 100 double
0 0.031733259127 0.063466518254 0.095199777382 0.12693303651 0.15866629564 0.19039955476 0.22213281389 0.25386607302 
0.28559933214 0.31733259127 0.3490658504 0.38079910953 0.41253236865 0.44426562778 0.47599888691 0.50773214603 0.53946540516 
0.57119866429 0.60293192342 0.63466518254 0.66639844167 0.6981317008 0.72986495992 0.76159821905 0.79333147818 0.82506473731 
0.85679799643 0.88853125556 0.92026451469 0.95199777382 0.98373103294 1.0154642921 1.0471975512 1.0789308103 1.1106640695 
1.1423973286 1.1741305877 1.2058638468 1.237597106 1.2693303651 1.3010636242 1.3327968833 1.3645301425 1.3962634016 
1.4279966607 1.4597299198 1.491463179 1.5231964381 1.5549296972 1.5866629564 1.6183962155 1.6501294746 1.6818627337 
1.7135959929 1.745329252 1.7770625111 1.8087957702 1.8405290294 1.8722622885 1.9039955476 1.9357288068 1.9674620659 
1.999195325 2.0309285841 2.0626618433 2.0943951024 2.1261283615 2.1578616206 2.1895948798 2.2213281389 2.253061398 
2.2847946572 2.3165279163 2.3482611754 2.3799944345 2.4117276937 2.4434609528 2.4751942119 2.506927471 2.5386607302 
2.5703939893 2.6021272484 2.6338605076 2.6655937667 2.6973270258 2.7290602849 2.7607935441 2.7925268032 2.8242600623 
2.8559933214 2.8877265806 2.9194598397 2.9511930988 2.982926358 3.0146596171 3.0463928762 3.0781261353 3.1098593945 
3.1415926536 
_radius 1 100 double
2.3232345274e-16 0.013739714254 0.027450136041 0.041093122058 0.054625545383 0.067997957159 0.081154149861 0.094031705692 0.10656344455 
0.11867954282 0.13031005042 0.14138762866 0.15185051755 0.16164586276 0.17073340109 0.17908909657 0.18670788575 0.19360457598 
0.19981228633 0.20537848442 0.21035937496 0.21481386629 0.21879839794 0.22236351717 0.22555238704 0.22840067707 0.23093683828 
0.23318178816 0.23514750862 0.23683477058 0.23823082548 0.23930817892 0.24002538632 0.24033028797 0.24016547119 0.23947525942 
0.23821331758 0.23635001085 0.23387883712 0.23082143353 0.22723075763 0.22319206285 0.21882127664 0.21426042034 0.20966985754 
0.20521750146 0.20106570459 0.19735733387 0.19420320801 0.19167317579 0.18979236781 0.18854282674 0.18786946321 0.18768859075 
0.18789724922 0.18838199836 0.18902664246 0.18971910754 0.19035802834 0.19085930715 0.19116218721 0.19123374681 0.19107060733 
0.19069717159 0.19016064681 0.18952400709 0.18885837945 0.18823585563 0.1877228516 0.18737363101 0.18722381742 0.18728431646 
0.18753654676 0.18792996624 0.18838257618 0.18878454484 0.18900453887 0.18889797341 0.18831626575 0.18711624342 0.18516897311 
0.18236733666 0.17863169963 0.17391311641 0.16819378639 0.1614848902 0.15382236041 0.14526143389 0.13587090949 0.12572789511 
0.11491353549 0.10350987026 0.091597686185 0.079255077014 0.066556429461 0.053571676868 0.040365824019 0.026998867142 0.013526259853 
1.1010612341e-15 
_area 1 100 double
0 0.00046978176791 0.0018693290639 0.0041704514023 0.007329874966 0.011293900179 0.016003441778 0.02139832951 0.027419274686 
0.034005092416 0.041083023 0.048553911434 0.056280512637 0.064088890506 0.071786055622 0.079188121172 0.08614908009 0.092581325545 
0.098462945795 0.10383150924 0.10876806804 0.11337741838 0.11777047721 0.12205166939 0.12630936565 0.13060389639 0.13495080959 
0.13930718456 0.14357299918 0.14760834655 0.15125591783 0.15436033125 0.15678288155 0.15841250985 0.15917244063 0.15902101422 
0.15794683022 0.15596248613 0.15310356759 0.14943461176 0.14505651412 0.14010919676 0.13476738438 0.12923030269 0.12370710675 
0.11840018152 0.11348892808 0.10911705722 0.10538539155 0.10234880865 0.10001306379 0.098330548811 0.097203004083 0.096500088564 
0.096087649404 0.095848591155 0.095688174936 0.095529119522 0.09530544775 0.094960737845 0.094451695532 0.093754316189 0.09286863908 
0.091818304279 0.090643867012 0.08939262522 0.088112570275 0.08686071475 0.085722037605 0.08481503571 0.084236640746 0.083968280528 
0.084208459613 0.084814300872 0.085666722467 0.086683091998 0.087746201942 0.088698207851 0.08934568719 0.089475177913 0.088879559554 
0.087387946871 0.084889439405 0.081346212608 0.076795589725 0.071342590913 0.065145597986 0.058398472384 0.051312465032 0.044100540126 
0.03696559147 0.030092889454 0.023646313364 0.017767599616 0.012577755812 0.0081795951808 0.0046599916668 0.0020904680021 0.00052559500402 
3.8394306126e-17 
