# vtk DataFile Version 5.1
vtk output
ASCII
DATASET POLYDATA
POINTS 100 float
0.100935 0.0659834 0.739407 0.10099 0.0661088 0.739311 0.101241 0.0663096 0.738881 
0.101659 0.0665906 0.73808 0.1022 0.0669594 0.73685 0.102807 0.0674242 0.735115 
0.103414 0.0679912 0.732791 0.10395 0.0686608 0.729793 0.104346 0.0694253 0.726041 
0.104534 0.0702656 0.721466 0.104454 0.0711496 0.716016 0.104055 0.072032 0.709663 
0.103296 0.0728546 0.702398 0.102142 0.0735488 0.694237 0.100571 0.0740396 0.685214 
0.0985632 0.0742504 0.67538 0.0961079 0.0741089 0.664799 0.0931974 0.0735539 0.653541 
0.0898286 0.0725412 0.641677 0.0860024 0.0710488 0.629273 0.0817244 0.0690814 0.61639 
0.077006 0.0666722 0.603077 0.0718654 0.0638825 0.589375 0.0663279 0.0607997 0.575309 
0.0604268 0.0575317 0.560898 0.054202 0.0542005 0.54615 0.0476987 0.0509336 0.531066 
0.040965 0.0478548 0.515642 0.0340482 0.0450756 0.499868 0.0269918 0.0426875 0.483734 
0.0198321 0.0407551 0.467223 0.0125956 0.0393135 0.450316 0.00529783 0.0383664 0.432989 
-0.00205622 0.0378889 0.415209 -0.00946997 0.0378314 0.396939 -0.0169512 0.038127 0.378133 
-0.0245067 0.0386989 0.358738 -0.0321357 0.0394695 0.338699 -0.0398237 0.0403682 0.317959 
-0.047536 0.0413383 0.296466 -0.0552141 0.0423413 0.274177 -0.062773 0.0433593 0.251064 
-0.0701018 0.0443942 0.227121 -0.077068 0.0454648 0.202369 -0.0835237 0.0466017 0.176858 
-0.0893146 0.0478407 0.150669 -0.0942911 0.0492162 0.12391 -0.0983196 0.0507549 0.0967177 
-0.101293 0.0524708 0.0692485 -0.103142 0.0543619 0.0416695 -0.103838 0.0564096 0.0141508 
-0.103399 0.05858 -0.0131449 -0.10189 0.0608276 -0.0400717 -0.0994132 0.0631 -0.0665087 
-0.0961054 0.0653437 -0.0923664 -0.0921232 0.0675092 -0.11759 -0.0876317 0.069556 -0.142159 
-0.0827907 0.0714552 -0.166085 -0.0777431 0.0731899 -0.189409 -0.072604 0.0747542 -0.212189 
-0.0674543 0.07615 -0.234494 -0.0623372 0.0773813 -0.256394 -0.0572591 0.0784498 -0.277953 
-0.0521942 0.0793489 -0.299219 -0.0470924 0.08006 -0.32022 -0.0418895 0.0805501 -0.340963 
-0.0365188 0.0807719 -0.361435 -0.0309223 0.0806671 -0.381603 -0.0250605 0.0801713 -0.401423 
-0.0189207 0.0792215 -0.420845 -0.0125217 0.077764 -0.439824 -0.00591442 0.0757629 -0.458319 
0.000819225 0.0732074 -0.476308 0.00757235 0.0701166 -0.493784 0.0142206 0.0665414 -0.510759 
0.0206315 0.0625634 -0.527262 0.0266747 0.05829 -0.543333 0.0322315 0.0538462 -0.559018 
0.037203 0.0493647 -0.574357 0.0415172 0.0449745 -0.589384 0.0451322 0.0407896 -0.60411 
0.0480379 0.0368991 -0.618526 0.0502549 0.0333607 -0.632595 0.0518303 0.0301966 -0.646254 
0.0528333 0.0273942 -0.659417 0.0533479 0.0249105 -0.671982 0.0534667 0.0226799 -0.683837 
0.053284 0.0206247 -0.694872 0.0528897 0.0186663 -0.704986 0.0523648 0.0167367 -0.714101 
0.0517779 0.0147886 -0.722164 0.0511836 0.0128017 -0.729152 0.0506218 0.0107866 -0.735076 
0.0501192 0.00878362 -0.739976 0.0496905 0.00685817 -0.743916 0.0493417 0.00509285 -0.746975 
0.0490727 0.00357708 -0.749237 0.0488803 0.00239591 -0.750783 0.0487606 0.00161936 -0.751679 
0.0487109 0.00129354 -0.751968 
LINES 2 100
OFFSETS vtktypeint64
0 100 
CONNECTIVITY vtktypeint64
0 1 2 3 4 5 6 7 8 
9 10 11 12 13 14 15 16 17 
18 19 20 21 22 23 24 25 26 
27 28 29 30 31 32 33 34 35 
36 37 38 39 40 41 42 43 44 
45 46 47 48 49 50 51 52 53 
54 55 56 57 58 59 60 61 62 
63 64 65 66 67 68 69 70 71 
72 73 74 75 76 77 78 79 80 
81 82 83 84 85 86 87 88 89 
90 91 92 93 94 95 96 97 98 
99 
POINT_DATA 100
FIELD FieldData 3
_theta 1 100 double
0 0.031733259127 0.063466518254 0.095199777382 0.12693303651 0.15866629564 0.19039955476 0.22213281389 0.25386607302 
0.28559933214 0.31733259127 0.3490658504 0.38079910953 0.41253236865 0.44426562778 0.47599888691 0.50773214603 0.53946540516 
0.57119866429 0.60293192342 0.63466518254 0.66639844167 0.6981317008 0.72986495992 0.76159821905 0.79333147818 0.82506473731 
0.85679799643 0.88853125556 0.92026451469 0.95199777382 0.98373103294 1.0154642921 1.0471975512 1.0789308103 1.1106640695 
1.1423973286 1.1741305877 1.2058638468 1.237597106 1.2693303651 1.3010636242 1.3327968833 1.3645301425 1.3962634016 
1.4279966607 1.4597299198 1.491463179 1.5231964381 1.5549296972 1.5866629564 1.6183962155 1.6501294746 1.6818627337 
1.7135959929 1.745329252 1.7770625111 1.8087957702 1.8405290294 1.8722622885 1.9039955476 1.9357288068 1.9674620659 
1.999195325 2.0309285841 2.0626618433 2.0943951024 2.1261283615 2.1578616206 2.1895948798 2.2213281389 2.253061398 
2.2847946572 2.3165279163 2.3482611754 2.3799944345 2.4117276937 2.4434609528 2.4751942119 2.506927471 2.5386607302 
2.5703939893 2.6021272484 2.6338605076 2.6655937667 2.6973270258 2.7290602849 2.7607935441 2.7925268032 2.8242600623 
2.8559933214 2.8877265806 2.9194598397 2.9511930988 2.982926358 3.0146596171 3.0463928762 3.0781261353 3.1098593945 
3.1415926536 
_radius 1 100 double
4.7428748403e-16 0.016404473798 0.032593066811 0.04836437152 0.063550843916 0.078030138694 0.091730416281 0.10462900928 0.11674485414 
0.12812621389 0.1388363158 0.14894016918 0.15849526819 0.16754690613 0.17612665941 0.18425192153 0.19192540166 0.19913503797 
0.20585559476 0.21205285899 0.21769019526 0.22273610648 0.22717103867 0.23099200295 0.23421428145 0.23687014756 0.23900499468 
0.24067155698 0.24192310134 0.2428065946 0.24335686516 0.24359264804 0.24351514551 0.2431094018 0.24234842412 0.24119961725 
0.23963277332 0.23762861987 0.23518681243 0.23233226677 0.22911884869 0.22562967573 0.22197365345 0.21827838693 0.21468023803 
0.21131290557 0.20829627092 0.20572718121 0.20367333877 0.20217075751 0.20122461426 0.20081286937 0.20089170291 0.2014015903 
0.20227282503 0.20342959249 0.20479227718 0.20627837301 0.20780291754 0.209279545 0.21062291567 0.2117525789 0.21259766808 
0.21310153598 0.21322551154 0.21295121435 0.21228118789 0.21123794935 0.20986177486 0.20820749943 0.20634033002 0.20433039572 
0.20224580794 0.2001444881 0.19806572535 0.19602292924 0.19399900527 0.19194519184 0.18978337139 0.18741120829 0.18470919077 
0.18154871865 0.17780059523 0.17334348313 0.16807198187 0.16190395743 0.15478662326 0.14670072592 0.1376621552 0.1277204811 
0.11695432528 0.10546400908 0.093362438564 0.08076554271 0.067783670946 0.054515141482 0.041042663173 0.027432763057 0.013737821394 
2.5463581574e-16 
_area 1 100 double
0 0.00065483419829 0.0025682893728 0.0056002184041 0.0095566173614 0.014237056464 0.019480495755 0.025194497881 0.031355427124 
0.037977985319 0.045069592718 0.052593589507 0.060456440726 0.068517857479 0.076612772999 0.084574853716 0.092256286891 0.099541509473 
0.10635359121 0.11265443551 0.11844362024 0.12375970981 0.12867989688 0.13330793709 0.13774564384 0.14205751626 0.14624782991 
0.1502617416 0.15400490665 0.15736822106 0.1602476061 0.1625547987 0.16421948749 0.16518570733 0.16540690637 0.16484469271 
0.16347516309 0.16130321253 0.15838032988 0.15481767452 0.15078598119 0.14649768383 0.14217385227 0.1380069816 0.13413430114 
0.1306287643 0.12750469492 0.12473390044 0.12226597111 0.12004399964 0.1180152189 0.11614194815 0.11441380049 0.11285658308 
0.11153282101 0.11053047205 0.10993559133 0.10978581433 0.11002275626 0.11048825641 0.11097223922 0.11126520938 0.11118791761 
0.1106074318 0.10945537084 0.1077668731 0.10573205378 0.10344969247 0.10100872958 0.098541372434 0.096125329882 0.093873852604 
0.091940021094 0.090417974641 0.089252499242 0.088365707057 0.087665778137 0.087022946467 0.086278404051 0.085274642087 0.083877019424 
0.081979508385 0.07950226323 0.07638705563 0.072594300004 0.0681047395 0.06292770694 0.057114301967 0.050769118178 0.044052929823 
0.037172896919 0.030362630598 0.023857824358 0.017873543363 0.012587910375 0.0081347376292 0.0046050204167 0.0020547029725 0.00051475412752 
1.4124284242e-17 
