# vtk DataFile Version 5.1
vtk output
ASCII
DATASET POLYDATA
POINTS 100 float
0.101789 0.0391668 0.626024 0.101765 0.0394527 0.625738 0.101747 0.0401364 0.624753 
0.101715 0.0411694 0.623083 0.101635 0.042477 0.620752 0.101468 0.0439656 0.617789 
0.101167 0.0455318 0.614223 0.100688 0.0470716 0.610083 0.0999854 0.0484897 0.605394 
0.0990244 0.049706 0.600178 0.0977775 0.050661 0.59445 0.0962282 0.0513172 0.588218 
0.0943712 0.0516589 0.581488 0.0922115 0.0516888 0.574265 0.0897626 0.0514232 0.566553 
0.0870439 0.0508865 0.558358 0.0840778 0.0501059 0.549693 0.0808866 0.0491067 0.540573 
0.0774896 0.0479101 0.53102 0.0739017 0.0465325 0.52106 0.0701314 0.0449867 0.510719 
0.0661812 0.0432856 0.500025 0.0620482 0.0414455 0.489001 0.0577257 0.0394912 0.477665 
0.0532049 0.0374589 0.466026 0.0484775 0.0353986 0.454088 0.0435379 0.0333741 0.441847 
0.0383842 0.0314606 0.429292 0.0330197 0.0297398 0.41641 0.0274525 0.0282946 0.40319 
0.0216944 0.027201 0.389621 0.0157596 0.0265215 0.3757 0.00966211 0.0262991 0.361429 
0.00341395 0.0265529 0.346819 -0.00297713 0.0272767 0.331885 -0.00950854 0.0284403 0.316645 
-0.0161828 0.0299935 0.301114 -0.0230061 0.0318722 0.285305 -0.0299852 0.0340064 0.269216 
-0.0371235 0.0363282 0.252837 -0.0444156 0.0387788 0.23614 -0.0518415 0.0413139 0.219083 
-0.0593613 0.043907 0.201614 -0.0669107 0.0465487 0.183672 -0.0743982 0.0492438 0.165197 
-0.0817041 0.0520054 0.146134 -0.0886829 0.0548479 0.126445 -0.0951683 0.0577789 0.106113 
-0.10098 0.0607919 0.085149 -0.105935 0.0638613 0.0635944 -0.109856 0.0669392 0.0415208 
-0.112587 0.069957 0.0190275 -0.114 0.0728288 -0.00376463 -0.114009 0.075459 -0.0267212 
-0.112575 0.0777514 -0.0497039 -0.109709 0.0796196 -0.0725809 -0.105473 0.0809967 -0.0952354 
-0.0999745 0.081843 -0.117573 -0.0933609 0.0821513 -0.139527 -0.0858065 0.081948 -0.161058 
-0.0775013 0.0812898 -0.182156 -0.0686362 0.0802574 -0.202831 -0.0593912 0.0789453 -0.223108 
-0.0499231 0.0774501 -0.24302 -0.0403577 0.0758583 -0.262596 -0.0307847 0.0742353 -0.281858 
-0.0212569 0.072617 -0.30081 -0.0117931 0.0710052 -0.319437 -0.00238499 0.0693672 -0.337707 
0.00699387 0.0676399 -0.355568 0.0163773 0.0657385 -0.37296 0.0257955 0.0635672 -0.389813 
0.0352651 0.061032 -0.406063 0.044781 0.0580538 -0.421651 0.0543121 0.0545796 -0.436534 
0.0637996 0.0505901 -0.450686 0.0731594 0.0461046 -0.464096 0.0822879 0.0411803 -0.476773 
0.0910699 0.0359076 -0.488733 0.0993887 0.0304022 -0.5 0.107137 0.0247938 -0.510598 
0.114224 0.019214 -0.520541 0.120586 0.0137848 -0.529833 0.126191 0.00860854 -0.538465 
0.131039 0.0037608 -0.546411 0.135161 -0.00071282 -0.553638 0.138616 -0.00479622 -0.560106 
0.141482 -0.00849873 -0.565777 0.143849 -0.0118482 -0.570625 0.145809 -0.0148828 -0.574642 
0.147448 -0.0176418 -0.577843 0.148841 -0.0201579 -0.580275 0.150043 -0.0224514 -0.58201 
0.151091 -0.0245269 -0.583149 0.152001 -0.0263731 -0.58381 0.152774 -0.0279658 -0.584122 
0.153399 -0.0292723 -0.58421 0.153859 -0.0302581 -0.584189 0.154138 -0.0308929 -0.584148 
0.154221 -0.0311564 -0.584142 
LINES 2 100
OFFSETS vtktypeint64
0 100 
CONNECTIVITY vtktypeint64
0 1 2 3 4 5 6 7 8 
9 10 11 12 13 14 15 16 17 
18 19 20 21 22 23 24 25 26 
27 28 29 30 31 32 33 34 35 
36 37 38 39 40 41 42 43 44 
45 46 47 48 49 50 51 52 53 
54 55 56 57 58 59 60 61 62 
63 64 65 66 67 68 69 70 71 
72 73 74 75 76 77 78 79 80 
81 82 83 84 85 86 87 88 89 
90 91 92 93 94 95 96 97 98 
99 
POINT_DATA 100
FIELD FieldData 3
_theta 1 100 double
0 0.031733259127 0.063466518254 0.095199777382 0.12693303651 0.15866629564 0.19039955476 0.22213281389 0.25386607302 
0.28559933214 0.31733259127 0.3490658504 0.38079910953 0.41253236865 0.44426562778 0.47599888691 0.50773214603 0.53946540516 
0.57119866429 0.60293192342 0.63466518254 0.66639844167 0.6981317008 0.72986495992 0.76159821905 0.79333147818 0.82506473731 
0.85679799643 0.88853125556 0.92026451469 0.95199777382 0.98373103294 1.0154642921 1.0471975512 1.0789308103 1.1106640695 
1.1423973286 1.1741305877 1.2058638468 1.237597106 1.2693303651 1.3010636242 1.3327968833 1.3645301425 1.3962634016 
1.4279966607 1.4597299198 1.491463179 1.5231964381 1.5549296972 1.5866629564 1.6183962155 1.6501294746 1.6818627337 
1.7135959929 1.745329252 1.7770625111 1.8087957702 1.8405290294 1.8722622885 1.9039955476 1.9357288068 1.9674620659 
1.999195325 2.0309285841 2.0626618433 2.0943951024 2.1261283615 2.1578616206 2.1895948798 2.2213281389 2.253061398 
2.2847946572 2.3165279163 2.3482611754 2.3799944345 2.4117276937 2.4434609528 2.4751942119 2.506927471 2.5386607302 
2.5703939893 2.6021272484 2.6338605076 2.6655937667 2.6973270258 2.7290602849 2.7607935441 2.7925268032 2.8242600623 
2.8559933214 2.8877265806 2.9194598397 2.9511930988 2.982926358 3.0146596171 3.0463928762 3.0781261353 3.1098593945 
3.1415926536 
_radius 1 100 double
1.6683386813e-15 0.013826007782 0.027614503778 0.041322141623 0.054906492775 0.068325359077 0.081535093723 0.094488529201 0.1071336594 
0.11941434905 0.13127377677 0.14266021305 0.15353363309 0.16387110469 0.17366907306 0.1829414525 0.1917135404 0.20001289124 
0.2078591596 0.21525533329 0.22218261183 0.22860043905 0.2344520189 0.23967433277 0.24421061644 0.24802273161 0.25110095393 
0.25346927667 0.25518520371 0.25633399436 0.25701827087 0.25734466157 0.25740959848 0.25728643757 0.25701573829 0.25659995326 
0.25600312975 0.25515566809 0.25396376207 0.25232279508 0.25013358046 0.24731987261 0.24384508447 0.23972575709 0.23503922964 
0.22992339412 0.22456758175 0.21919540601 0.2140421521 0.20933027167 0.20524660644 0.20192469791 0.19943504353 0.19778469687 
0.1969250056 0.19676389854 0.19717869138 0.19802708836 0.19915646432 0.20041296014 0.20165176189 0.20274861573 0.20361115275 
0.20418780848 0.20447230404 0.20450254309 0.20435388223 0.20412766404 0.20393651048 0.20388816481 0.20406968511 0.20453361396 
0.20528752609 0.20628817086 0.20744115028 0.20860647177 0.20960935602 0.21025468222 0.21034286394 0.20968498667 0.20811556258 
0.20550195339 0.20175012236 0.19680681222 0.19065852695 0.1833278604 0.17486778124 0.16535446955 0.15487926251 0.14354029631 
0.13143458737 0.11865152807 0.10526889968 0.091352314776 0.076958381552 0.062140932169 0.04695866047 0.031481847471 0.015795863418 
9.2743985219e-16 
_area 1 100 double
0 0.00053770415207 0.0021473434058 0.0048175131964 0.008526202919 0.01323711053 0.018895706462 0.025425741491 0.032727003712 
0.040675483639 0.049127296554 0.057927167558 0.066920860894 0.075969166674 0.08495989097 0.093814462205 0.10248712492 0.11095638704 
0.11921009215 0.12722767073 0.13496534849 0.14235037495 0.14928739549 0.15567520068 0.16142780773 0.16649183866 0.1708532162 
0.17453081929 0.17756157742 0.17998594997 0.18184078591 0.18315961986 0.18397482275 0.18431643798 0.18420668119 0.18365191655 
0.18263447734 0.18110701685 0.17899294763 0.17619638593 0.17262233589 0.16820376077 0.16292936537 0.15686536211 0.15016547174 
0.14306552916 0.13586267794 0.1288837193 0.12244988639 0.11684256735 0.11226833283 0.10882329865 0.106470913 0.10505078377 
0.10431389503 0.10397100379 0.10374757211 0.10342152009 0.1028352448 0.10189864371 0.10058986407 0.098948949386 0.097061695392 
0.095035751596 0.092974739558 0.090961076303 0.08905454651 0.087302347941 0.085751333051 0.0844571226 0.083489046721 0.082930821394 
0.082876668259 0.083422511207 0.084648106489 0.086561748711 0.08898398614 0.091549554254 0.093861034315 0.09555877565 0.096332218816 
0.095932846991 0.094191359229 0.091031593351 0.086476166965 0.080642308631 0.073729017084 0.065997879341 0.057749881561 0.049300291704 
0.040953884794 0.032983309154 0.02561361621 0.019015375812 0.013307168875 0.0085656537017 0.0048387693653 0.002157032729 0.0005402324876 
4.1633363423e-17 
