# vtk DataFile Version 5.1
vtk output
ASCII
DATASET POLYDATA
POINTS 100 float
0.0851403 -0.0145498 -0.651592 0.0851177 -0.0146114 -0.651685 0.0850744 -0.0146526 -0.651979 
0.085004 -0.0146493 -0.65237 0.0848964 -0.0145628 -0.652703 0.0847382 -0.0143429 -0.652777 
0.084513 -0.0139325 -0.652377 0.0842021 -0.0132716 -0.651288 0.0837843 -0.0123031 -0.649316 
0.0832346 -0.0109769 -0.646308 0.0825232 -0.00925475 -0.642162 0.0816141 -0.00711317 -0.636832 
0.0804633 -0.00454579 -0.630326 0.0790186 -0.00156415 -0.622698 0.0772194 0.00180295 -0.61404 
0.074999 0.00551121 -0.604461 0.072288 0.00950384 -0.594072 0.0690196 0.0137152 -0.582976 
0.0651364 0.0180752 -0.57125 0.0605971 0.0225128 -0.558941 0.0553838 0.0269607 -0.546064 
0.0495082 0.0313577 -0.532606 0.0430145 0.0356508 -0.518532 0.0359807 0.0397967 -0.503795 
0.0285152 0.0437611 -0.48835 0.0207508 0.047518 -0.472164 0.0128347 0.0510477 -0.455221 
0.0049165 0.0543344 -0.437535 -0.00286498 0.057364 -0.419144 -0.0103945 0.0601223 -0.400109 
-0.017591 0.0625929 -0.380508 -0.0244148 0.0647574 -0.360425 -0.0308699 0.0665951 -0.339942 
-0.0370012 0.0680848 -0.319126 -0.0428859 0.0692065 -0.298023 -0.0486207 0.0699439 -0.276652 
-0.0543058 0.0702874 -0.255008 -0.0600264 0.0702359 -0.233064 -0.0658365 0.0697991 -0.210777 
-0.071744 0.0689982 -0.1881 -0.0777017 0.0678651 -0.164995 -0.0836041 0.0664417 -0.141439 
-0.089291 0.0647772 -0.11744 -0.0945585 0.0629244 -0.0930351 -0.0991756 0.0609368 -0.0682985 
-0.102905 0.0588643 -0.0433359 -0.105525 0.0567507 -0.0182786 -0.106855 0.0546308 0.00672644 
-0.106768 0.0525301 0.0315276 -0.105212 0.0504643 0.0559811 -0.102208 0.0484415 0.0799613 
-0.0978561 0.0464645 0.103369 -0.0923191 0.0445347 0.126137 -0.0858111 0.042655 0.148229 
-0.0785746 0.0408341 0.169641 -0.0708578 0.0390885 0.19039 -0.0628914 0.0374439 0.210512 
-0.0548691 0.0359357 0.230049 -0.0469333 0.0346066 0.249042 -0.0391675 0.0335039 0.267525 
-0.0315963 0.0326751 0.285522 -0.0241929 0.0321629 0.303045 -0.0168925 0.0320004 0.320096 
-0.00961 0.0322064 0.336671 -0.00225903 0.0327827 0.352767 0.0052295 0.0337121 0.368389 
0.0128924 0.0349594 0.383552 0.0207244 0.0364728 0.398289 0.0286746 0.0381892 0.412645 
0.0366501 0.0400386 0.426683 0.044525 0.0419509 0.440473 0.0521551 0.0438616 0.454086 
0.0593939 0.0457175 0.467588 0.0661104 0.0474804 0.481027 0.0722035 0.0491294 0.494432 
0.0776135 0.0506604 0.507803 0.0823273 0.0520844 0.521112 0.0863781 0.0534232 0.534305 
0.0898387 0.0547039 0.547305 0.0928101 0.055953 0.560024 0.0954071 0.0571906 0.572369 
0.0977424 0.0584257 0.584253 0.0999124 0.059653 0.595604 0.101985 0.0608516 0.606373 
0.103994 0.061987 0.616534 0.105937 0.0630138 0.626087 0.107777 0.0638818 0.635052 
0.109459 0.0645424 0.643463 0.110911 0.0649552 0.651361 0.11207 0.0650949 0.658778 
0.112885 0.0649561 0.665735 0.113333 0.0645565 0.672232 0.113427 0.0639366 0.678244 
0.113212 0.0631583 0.683719 0.112764 0.0622993 0.688586 0.112183 0.0614462 0.692759 
0.111578 0.0606865 0.696145 0.111054 0.0600998 0.698659 0.110696 0.0597496 0.70023 
0.110563 0.0596767 0.70081 
LINES 2 100
OFFSETS vtktypeint64
0 100 
CONNECTIVITY vtktypeint64
0 1 2 3 4 5 6 7 8 
9 10 11 12 13 14 15 16 17 
18 19 20 21 22 23 24 25 26 
27 28 29 30 31 32 33 34 35 
36 37 38 39 40 41 42 43 44 
45 46 47 48 49 50 51 52 53 
54 55 56 57 58 59 60 61 62 
63 64 65 66 67 68 69 70 71 
72 73 74 75 76 77 78 79 80 
81 82 83 84 85 86 87 88 89 
90 91 92 93 94 95 96 97 98 
99 
POINT_DATA 100
FIELD FieldData 3
_theta 1 100 double
0 0.031733259127 0.063466518254 0.095199777382 0.12693303651 0.15866629564 0.19039955476 0.22213281389 0.25386607302 
0.28559933214 0.31733259127 0.3490658504 0.38079910953 0.41253236865 0.44426562778 0.47599888691 0.50773214603 0.53946540516 
0.57119866429 0.60293192342 0.63466518254 0.66639844167 0.6981317008 0.72986495992 0.76159821905 0.79333147818 0.82506473731 
0.85679799643 0.88853125556 0.92026451469 0.95199777382 0.98373103294 1.0154642921 1.0471975512 1.0789308103 1.1106640695 
1.1423973286 1.1741305877 1.2058638468 1.237597106 1.2693303651 1.3010636242 1.3327968833 1.3645301425 1.3962634016 
1.4279966607 1.4597299198 1.491463179 1.5231964381 1.5549296972 1.5866629564 1.6183962155 1.6501294746 1.6818627337 
1.7135959929 1.745329252 1.7770625111 1.8087957702 1.8405290294 1.8722622885 1.9039955476 1.9357288068 1.9674620659 
1.999195325 2.0309285841 2.0626618433 2.0943951024 2.1261283615 2.1578616206 2.1895948798 2.2213281389 2.253061398 
2.2847946572 2.3165279163 2.3482611754 2.3799944345 2.4117276937 2.4434609528 2.4751942119 2.506927471 2.5386607302 
2.5703939893 2.6021272484 2.6338605076 2.6655937667 2.6973270258 2.7290602849 2.7607935441 2.7925268032 2.8242600623 
2.8559933214 2.8877265806 2.9194598397 2.9511930988 2.982926358 3.0146596171 3.0463928762 3.0781261353 3.1098593945 
3.1415926536 
_radius 1 100 double
1.1271805465e-15 0.014540055083 0.028990652567 0.043261248624 0.057262664852 0.070908659105 0.084117541626 0.096813267245 0.10892575173 
0.12039060102 0.1311487283 0.14114634932 0.15033563808 0.15867602445 0.16613587215 0.17269419482 0.178342174 0.18308446176 
0.18694044154 0.1899456507 0.19215338657 0.19363618588 0.19448652366 0.19481587709 0.19475135127 0.19442940823 0.19398683989 
0.19354985496 0.19322280375 0.19307839783 0.19315111695 0.19343486097 0.19388506077 0.19442478297 0.19495408883 0.19536196074 
0.19554014259 0.19539796609 0.19487670939 0.19396156623 0.19268914682 0.19114867854 0.18947578708 0.18783900805 0.18642094175 
0.18539766481 0.18492060519 0.18510388866 0.18601785004 0.18768752839 0.19009437662 0.19317976647 0.19684952721 0.20097941106 
0.20542185087 0.21001443011 0.21459003782 0.21898798451 0.22306481846 0.22670345369 0.2298194777 0.23236397231 0.23432268013 
0.2357117891 0.23657096667 0.23695455409 0.23692201904 0.2365288354 0.23581889124 0.23481931269 0.23353822556 0.23196547119 
0.23007572536 0.22783301124 0.2251954498 0.22211934561 0.21856224987 0.21448519887 0.2098546188 0.20464429607 0.19883742799 
0.19242832878 0.18542312666 0.17783890363 0.16970117804 0.16104021313 0.15188707888 0.14227049958 0.13221526201 0.12174247037 
0.11087139599 0.0996222325 0.08801884666 0.076090687852 0.063873382488 0.05140805754 0.038739879448 0.025916464138 0.012986673609 
1.2856054049e-15 
_area 1 100 double
0 0.00046257280504 0.0018690215467 0.0042638571762 0.0076881361734 0.012146057378 0.017580189375 0.023862001464 0.030797799027 
0.038145939729 0.045639533627 0.053009079926 0.060001087926 0.066391075569 0.071991649099 0.076657811663 0.080291720653 0.082847897593 
0.084338121817 0.084834010437 0.084465220293 0.083411913196 0.081891242168 0.080139308139 0.078391646649 0.076865586028 0.075745598791 
0.075168325711 0.075206761078 0.075863201812 0.077073109001 0.078712735618 0.080611181251 0.082570354971 0.084390951289 0.08589936698 
0.086971452838 0.08755062536 0.087658641886 0.087398836586 0.086955503647 0.086588125942 0.086594844876 0.087210979954 0.088475687059 
0.090217419746 0.092187845801 0.094212177251 0.096265409124 0.098449084004 0.10095028198 0.10397270835 0.10767507878 0.11214224107 
0.11736382135 0.12320204283 0.12939441083 0.13561418046 0.14153521158 0.14687351821 0.15141146662 0.15500791026 0.15759529044 
0.15916704642 0.1597611893 0.15944605564 0.15831120483 0.15646215253 0.15401551406 0.15109210466 0.14780770277 0.14426267406 
0.14053230735 0.1366601141 0.13265609842 0.12850019037 0.12414890322 0.11954345728 0.11461959643 0.10931989222 0.10360738125 
0.097476980361 0.090960581231 0.084123527516 0.077053331616 0.06984459361 0.062585821804 0.055353166138 0.048212820281 0.041229600287 
0.034476593212 0.02804116224 0.022025033844 0.016538853441 0.011693392032 0.0075902622376 0.0043146517224 0.0019314711099 0.00048488660468 
8.7464347157e-17 
