# vtk DataFile Version 5.1
vtk output
ASCII
DATASET POLYDATA
POINTS 100 float
0.135645 0.0472783 0.650076 0.135722 0.047335 0.649978 0.136006 0.0473528 0.649543 
0.136433 0.0473473 0.648766 0.136901 0.0473418 0.647643 0.13729 0.0473629 0.646159 
0.13747 0.0474357 0.644294 0.137321 0.047579 0.642017 0.136743 0.0478012 0.639287 
0.135672 0.0480964 0.636052 0.134077 0.0484438 0.632256 0.131968 0.0488076 0.627837 
0.129383 0.0491397 0.622734 0.126383 0.0493836 0.616898 0.123037 0.0494799 0.61029 
0.119407 0.0493723 0.602894 0.11554 0.049013 0.594713 0.111455 0.0483686 0.585774 
0.10714 0.0474229 0.576129 0.102554 0.0461799 0.565844 0.0976331 0.0446636 0.554999 
0.0923005 0.0429163 0.543677 0.0864815 0.0409959 0.531959 0.0801168 0.0389712 0.519911 
0.0731761 0.0369172 0.507584 0.0656675 0.0349104 0.495003 0.0576414 0.0330242 0.482172 
0.0491896 0.0313255 0.46907 0.0404371 0.029872 0.45566 0.0315299 0.0287111 0.441891 
0.0226188 0.0278791 0.42771 0.0138417 0.0274024 0.413066 0.00530805 0.0272975 0.397922 
-0.00291458 0.0275727 0.382252 -0.0108072 0.0282285 0.366053 -0.0184001 0.029258 0.349337 
-0.0257662 0.0306475 0.33213 -0.0330083 0.0323755 0.314468 -0.0402406 0.0344132 0.296388 
-0.0475686 0.0367232 0.277918 -0.0550678 0.0392608 0.259074 -0.0627662 0.041974 0.239853 
-0.0706308 0.0448059 0.22023 -0.0785622 0.0476969 0.200161 -0.0863964 0.0505885 0.179584 
-0.0939152 0.0534267 0.158433 -0.100863 0.0561658 0.13664 -0.106968 0.0587722 0.114151 
-0.111971 0.0612259 0.0909367 -0.115642 0.0635221 0.0669982 -0.11781 0.06567 0.0423749 
-0.118372 0.0676906 0.0171464 -0.117306 0.0696123 -0.00856942 -0.114668 0.0714662 -0.0346233 
-0.110585 0.0732795 -0.0608435 -0.105243 0.0750707 -0.0870486 -0.0988624 0.0768442 -0.11306 
-0.0916822 0.078587 -0.138716 -0.0839337 0.0802675 -0.163881 -0.0758234 0.0818363 -0.188456 
-0.067518 0.0832293 -0.21238 -0.0591363 0.084373 -0.235631 -0.0507469 0.0851911 -0.258222 
-0.042373 0.0856115 -0.280192 -0.0340011 0.0855733 -0.301597 -0.0255942 0.0850332 -0.322498 
-0.0171055 0.0839695 -0.34295 -0.00849241 0.082384 -0.362993 0.00027301 0.0803017 -0.382646 
0.00919625 0.0777676 -0.401902 0.0182575 0.074842 -0.420729 0.0274129 0.071594 -0.439076 
0.0365995 0.0680944 -0.456877 0.045743 0.0644094 -0.474058 0.0547659 0.0605949 -0.490549 
0.0635959 0.0566929 -0.506293 0.0721721 0.05273 -0.521246 0.0804488 0.0487188 -0.535387 
0.088396 0.0446601 -0.54872 0.0959971 0.0405486 -0.561267 0.103244 0.0363779 -0.573068 
0.11013 0.0321463 -0.584175 0.116646 0.0278619 -0.594642 0.122775 0.0235461 -0.604522 
0.128487 0.0192347 -0.613861 0.133741 0.0149774 -0.62269 0.13849 0.0108343 -0.631026 
0.142683 0.00687184 -0.638871 0.146277 0.00315619 -0.646212 0.149243 -0.000252625 -0.653026 
0.151572 -0.00330646 -0.659285 0.153285 -0.00597345 -0.664958 0.154432 -0.00824034 -0.670014 
0.15509 -0.0101127 -0.674429 0.155361 -0.0116124 -0.678185 0.15536 -0.0127738 -0.681269 
0.155205 -0.0136377 -0.683674 0.155005 -0.0142449 -0.685399 0.154849 -0.0146299 -0.686443 
0.154794 -0.0148158 -0.686805 
LINES 2 100
OFFSETS vtktypeint64
0 100 
CONNECTIVITY vtktypeint64
0 1 2 3 4 5 6 7 8 
9 10 11 12 13 14 15 16 17 
18 19 20 21 22 23 24 25 26 
27 28 29 30 31 32 33 34 35 
36 37 38 39 40 41 42 43 44 
45 46 47 48 49 50 51 52 53 
54 55 56 57 58 59 60 61 62 
63 64 65 66 67 68 69 70 71 
72 73 74 75 76 77 78 79 80 
81 82 83 84 85 86 87 88 89 
90 91 92 93 94 95 96 97 98 
99 
POINT_DATA 100
FIELD FieldData 3
_theta 1 100 double
0 0.031733259127 0.063466518254 0.095199777382 0.12693303651 0.15866629564 0.19039955476 0.22213281389 0.25386607302 
0.28559933214 0.31733259127 0.3490658504 0.38079910953 0.41253236865 0.44426562778 0.47599888691 0.50773214603 0.53946540516 
0.57119866429 0.60293192342 0.63466518254 0.66639844167 0.6981317008 0.72986495992 0.76159821905 0.79333147818 0.82506473731 
0.85679799643 0.88853125556 0.92026451469 0.95199777382 0.98373103294 1.0154642921 1.0471975512 1.0789308103 1.1106640695 
1.1423973286 1.1741305877 1.2058638468 1.237597106 1.2693303651 1.3010636242 1.3327968833 1.3645301425 1.3962634016 
1.4279966607 1.4597299198 1.491463179 1.5231964381 1.5549296972 1.5866629564 1.6183962155 1.6501294746 1.6818627337 
1.7135959929 1.745329252 1.7770625111 1.8087957702 1.8405290294 1.8722622885 1.9039955476 1.9357288068 1.9674620659 
1.999195325 2.0309285841 2.0626618433 2.0943951024 2.1261283615 2.1578616206 2.1895948798 2.2213281389 2.253061398 
2.2847946572 2.3165279163 2.3482611754 2.3799944345 2.4117276937 2.4434609528 2.4751942119 2.506927471 2.5386607302 
2.5703939893 2.6021272484 2.6338605076 2.6655937667 2.6973270258 2.7290602849 2.7607935441 2.7925268032 2.8242600623 
2.8559933214 2.8877265806 2.9194598397 2.9511930988 2.982926358 3.0146596171 3.0463928762 3.0781261353 3.1098593945 
3.1415926536 
_radius 1 100 double
4.3494191427e-16 0.014227474462 0.02849408892 0.042823235638 0.057220714936 0.07166835658 0.086120395605 0.10050333425 0.11471946942 
0.12865360321 0.14218191376 0.15518167407 0.16754048118 0.17916385323 0.18998040614 0.19994426229 0.20903478556 0.21725410432 
0.22462312958 0.23117688541 0.23695994036 0.24202255754 0.24641787106 0.25020000337 0.25342268496 0.25613777772 0.25839323294 
0.26023039526 0.26168102224 0.26276470673 0.26348742158 0.26384165519 0.26380819928 0.26335926588 0.26246239143 0.26108458961 
0.25919640274 0.25677576981 0.25381184586 0.25030896376 0.24629077422 0.241804258 0.23692287804 0.23174779548 0.22640600665 
0.22104462844 0.21582140477 0.21089266368 0.20640103287 0.20246567878 0.19917719828 0.19659750888 0.19476280417 0.19368609393 
0.19335618445 0.19373241908 0.19473797193 0.19625678971 0.19813851178 0.20021205926 0.20230460302 0.20426086145 0.20595852752 
0.20731768242 0.20830391243 0.2089259591 0.20922916721 0.20928598363 0.20918451918 0.20901593712 0.20886141476 0.20877977311 
0.20879738068 0.20890204335 0.20904186103 0.20912875899 0.20904535708 0.20865350778 0.20780316001 0.20634087288 0.20411794884 
0.20099846992 0.19686737878 0.19163827734 0.185260118 0.17772170005 0.16905296507 0.15932246929 0.14863099158 0.13710189824 
0.12486951536 0.11206723021 0.098817216813 0.085223440115 0.071368905362 0.05731710455 0.043116560592 0.028806657003 0.014422856216 
6.6234796972e-16 
_area 1 100 double
0 0.00055040804903 0.002207085887 0.0049825514813 0.0088861079154 0.01391036519 0.020018634461 0.02713690378 0.03515279061 
0.043921897167 0.053279771544 0.063055846299 0.073085148396 0.083214907094 0.093306033706 0.10323204674 0.11287858329 0.12214509931 
0.13094820029 0.1392247807 0.14693338706 0.15405353607 0.16058391936 0.16654025953 0.17195196629 0.17685542298 0.18128291673 
0.18524975503 0.18874479667 0.19172862864 0.19413979565 0.19590599855 0.19695594583 0.19722829839 0.19667583719 0.19526494573 
0.19297248633 0.18978364623 0.18569428953 0.18071927555 0.17490516132 0.16834328377 0.16117820695 0.15360722029 0.1458690909 
0.13822389668 0.13092856057 0.12421237819 0.11825342785 0.11315629535 0.1089414792 0.10556323454 0.10294747913 0.10101781704 
0.099702433782 0.098932023433 0.098629921106 0.098701843922 0.099037164257 0.099519839005 0.10003567923 0.10047101206 0.1007135238 
0.10066458628 0.10025767644 0.099472247323 0.09833912318 0.09694244161 0.095418906222 0.09394460874 0.092700182176 0.091840123765 
0.091566109963 0.091787853141 0.09252231745 0.093742989876 0.095406554357 0.097060289424 0.098450272083 0.099331844357 0.0994584356 
0.0985965981 0.096552883985 0.093203215758 0.088515530776 0.082559927183 0.075504595152 0.067598867025 0.059146799128 0.050475976182 
0.04190659819 0.033725386041 0.026167731145 0.01941009461 0.013572841079 0.0087312793772 0.0049303077515 0.0021973633227 0.00055028771695 
2.0544389375e-17 
