# vtk DataFile Version 5.1
vtk output
ASCII
DATASET POLYDATA
POINTS 100 float
0.0950444 0.0313754 0.720434 0.0950796 0.0315955 0.719892 0.0952653 0.0321205 0.718076 
0.0955528 0.0329271 0.715059 0.0958672 0.0339791 0.710955 0.0961163 0.0352305 0.705905 
0.0962026 0.0366287 0.700062 0.0960347 0.0381184 0.693574 0.0955381 0.0396448 0.686569 
0.0946634 0.0411565 0.679145 0.0933911 0.0426074 0.671361 0.0917316 0.0439578 0.663242 
0.0897222 0.0451746 0.654777 0.0874194 0.04623 0.645934 0.0848893 0.0471002 0.636673 
0.082197 0.047764 0.626953 0.0793962 0.0482011 0.616749 0.0765206 0.0483913 0.606058 
0.0735787 0.0483142 0.594905 0.0705515 0.0479505 0.583338 0.0673956 0.0472835 0.571422 
0.0640483 0.0463022 0.559234 0.0604365 0.0450043 0.546841 0.0564869 0.0433999 0.534298 
0.0521354 0.0415144 0.521629 0.0473368 0.0393905 0.508826 0.04207 0.0370891 0.495846 
0.0363411 0.0346889 0.482615 0.0301823 0.0322829 0.469039 0.0236472 0.0299751 0.455018 
0.0168035 0.0278739 0.44046 0.00972345 0.0260858 0.425299 0.00247497 0.0247083 0.409507 
-0.00488689 0.0238228 0.3931 -0.0123257 0.0234889 0.376141 -0.0198262 0.0237403 0.358733 
-0.0273926 0.0245822 0.341006 -0.0350438 0.0259919 0.323104 -0.0428048 0.0279213 0.305154 
-0.0506968 0.0303011 0.287258 -0.0587258 0.0330477 0.269462 -0.0668732 0.0360703 0.251755 
-0.0750878 0.0392787 0.234056 -0.0832821 0.0425904 0.216221 -0.0913326 0.0459365 0.198056 
-0.0990843 0.0492659 0.179336 -0.10636 0.0525469 0.159832 -0.112973 0.0557671 0.139338 
-0.118739 0.0589301 0.117696 -0.123492 0.0620512 0.0948204 -0.127097 0.0651512 0.0707119 
-0.129461 0.0682497 0.0454615 -0.130536 0.0713593 0.0192469 -0.130323 0.0744793 -0.00768328 
-0.12887 0.0775927 -0.0350312 -0.126263 0.0806641 -0.0624781 -0.122617 0.0836402 -0.0897143 
-0.118063 0.0864524 -0.116466 -0.112738 0.0890218 -0.14252 -0.10677 0.0912647 -0.167735 
-0.100272 0.0930994 -0.192053 -0.0933357 0.0944525 -0.215488 -0.086028 0.095265 -0.238118 
-0.0783926 0.0954958 -0.260064 -0.0704548 0.0951246 -0.281466 -0.062227 0.0941518 -0.302455 
-0.0537171 0.0925962 -0.323139 -0.0449351 0.090492 -0.343578 -0.0358998 0.087883 -0.36378 
-0.0266431 0.0848175 -0.383698 -0.0172122 0.0813428 -0.40324 -0.00766912 0.0775004 -0.422279 
0.00191223 0.0733231 -0.440676 0.01145 0.0688338 -0.458294 0.0208596 0.064046 -0.475022 
0.0300594 0.0589671 -0.490785 0.038975 0.0536025 -0.505552 0.0475425 0.047961 -0.519341 
0.0557105 0.0420607 -0.532205 0.0634398 0.0359339 -0.544229 0.0707022 0.0296311 -0.555505 
0.0774778 0.023223 -0.56612 0.0837523 0.0167997 -0.57614 0.0895142 0.0104678 -0.585593 
0.0947532 0.00434504 -0.59447 0.0994596 -0.00144748 -0.602721 0.103625 -0.00679375 -0.610265 
0.107243 -0.0115921 -0.617005 0.110314 -0.0157635 -0.622842 0.112849 -0.019259 -0.6277 
0.114867 -0.0220637 -0.631536 0.116405 -0.0241989 -0.634359 0.11751 -0.02572 -0.636235 
0.118246 -0.0267115 -0.637283 0.118683 -0.0272796 -0.637671 0.118898 -0.0275418 -0.637594 
0.118966 -0.0276155 -0.637258 0.118953 -0.0276069 -0.636856 0.118914 -0.0276005 -0.636543 
0.118883 -0.0276509 -0.636422 
LINES 2 100
OFFSETS vtktypeint64
0 100 
CONNECTIVITY vtktypeint64
0 1 2 3 4 5 6 7 8 
9 10 11 12 13 14 15 16 17 
18 19 20 21 22 23 24 25 26 
27 28 29 30 31 32 33 34 35 
36 37 38 39 40 41 42 43 44 
45 46 47 48 49 50 51 52 53 
54 55 56 57 58 59 60 61 62 
63 64 65 66 67 68 69 70 71 
72 73 74 75 76 77 78 79 80 
81 82 83 84 85 86 87 88 89 
90 91 92 93 94 95 96 97 98 
99 
POINT_DATA 100
FIELD FieldData 3
_theta 1 100 double
0 0.031733259127 0.063466518254 0.095199777382 0.12693303651 0.15866629564 0.19039955476 0.22213281389 0.25386607302 
0.28559933214 0.31733259127 0.3490658504 0.38079910953 0.41253236865 0.44426562778 0.47599888691 0.50773214603 0.53946540516 
0.57119866429 0.60293192342 0.63466518254 0.66639844167 0.6981317008 0.72986495992 0.76159821905 0.79333147818 0.82506473731 
0.85679799643 0.88853125556 0.92026451469 0.95199777382 0.98373103294 1.0154642921 1.0471975512 1.0789308103 1.1106640695 
1.1423973286 1.1741305877 1.2058638468 1.237597106 1.2693303651 1.3010636242 1.3327968833 1.3645301425 1.3962634016 
1.4279966607 1.4597299198 1.491463179 1.5231964381 1.5549296972 1.5866629564 1.6183962155 1.6501294746 1.6818627337 
1.7135959929 1.745329252 1.7770625111 1.8087957702 1.8405290294 1.8722622885 1.9039955476 1.9357288068 1.9674620659 
1.999195325 2.0309285841 2.0626618433 2.0943951024 2.1261283615 2.1578616206 2.1895948798 2.2213281389 2.253061398 
2.2847946572 2.3165279163 2.3482611754 2.3799944345 2.4117276937 2.4434609528 2.4751942119 2.506927471 2.5386607302 
2.5703939893 2.6021272484 2.6338605076 2.6655937667 2.6973270258 2.7290602849 2.7607935441 2.7925268032 2.8242600623 
2.8559933214 2.8877265806 2.9194598397 2.9511930988 2.982926358 3.0146596171 3.0463928762 3.0781261353 3.1098593945 
3.1415926536 
_radius 1 100 double
4.4947753133e-16 0.01519354579 0.03022285562 0.044930812527 0.059181739031 0.07286976311 0.085924376448 0.098312637726 0.11003773167 
0.12113390887 0.13165825212 0.14168024402 0.15127063184 0.16049135214 0.16938802874 0.17798575817 0.18628788831 0.19427683162 
0.20191598472 0.20915242173 0.21592070542 0.22214844364 0.22776393899 0.23270558393 0.2369318547 0.24043016577 0.24322269078 
0.24536763562 0.24695529112 0.24809923792 0.24892396694 0.24955065121 0.25008284472 0.25059368241 0.25111591887 0.25163593754 
0.25209263648 0.25238177108 0.25236585693 0.25188909571 0.25079603246 0.24895191085 0.24626216211 0.24268834314 0.23825825603 
0.23306891441 0.22728226872 0.22111478388 0.21482265165 0.20868438588 0.20298198184 0.19798127023 0.19391205866 0.19094906101 
0.1891948492 0.18866589073 0.18928323517 0.19087161892 0.19317248413 0.19587331504 0.19864839277 0.20120111025 0.20329882671 
0.20479506844 0.20563738917 0.20586163162 0.20557510004 0.2049324534 0.20410874808 0.20327378212 0.20257085286 0.20210166583 
0.20191783006 0.20201837037 0.20235209473 0.2028235258 0.20330134635 0.20362864371 0.20363436215 0.2031452029 0.20199694294 
0.2000440468 0.19716664562 0.19327439776 0.18830726695 0.1822336927 0.17504688633 0.16676006887 0.1574014437 0.14700963988 
0.13563028514 0.12331422553 0.11011764166 0.096103911209 0.081346615937 0.06593273989 0.049965002704 0.033562476509 0.016859074189 
7.6992840124e-16 
_area 1 100 double
0 0.00063400473689 0.0025086131732 0.0055430292199 0.0096082316029 0.014537762852 0.020145117766 0.026246203179 0.032682581379 
0.039339735779 0.046155372274 0.053115761636 0.060242225557 0.067573139382 0.075147350196 0.082992151063 0.091114682871 0.099493137665 
0.10806572654 0.11672005668 0.12528930449 0.13356103638 0.14130032784 0.14828389285 0.1543381174 0.15937168904 0.16339346555 
0.16650923879 0.16889756892 0.1707731612 0.17235086646 0.17381874536 0.17531881532 0.17693069142 0.1786580336 0.18042151232 
0.18206135235 0.18335103014 0.18402288231 0.18380466377 0.18246284815 0.17984490118 0.17591080594 0.17074528264 0.16454640188 
0.15759168213 0.1501875706 0.14261455147 0.13508895869 0.12775965656 0.12073325256 0.11410479184 0.10798141352 0.10249971951 
0.097835369558 0.094193010322 0.091760349269 0.090622290323 0.090668921764 0.091577918611 0.09290101925 0.09418127341 0.095040555308 
0.095229093653 0.094645201432 0.093331987769 0.091455296831 0.089266447177 0.087053283266 0.085086243448 0.083574127355 0.082641870677 
0.082329271793 0.082613768419 0.083453331276 0.084813907481 0.086643814195 0.088803053442 0.091038474382 0.093033712241 0.094462439013 
0.095023751256 0.094470055277 0.092628946611 0.089416414492 0.084840448281 0.078996384893 0.0720563596 0.064255074422 0.055873378565 
0.047220447266 0.038615001903 0.030366146512 0.022754942599 0.016018605445 0.010339814203 0.0058435614022 0.0026027352545 0.00065117306589 
3.8651597329e-17 
