# vtk DataFile Version 5.1
vtk output
ASCII
DATASET POLYDATA
POINTS 100 float
0.111817 0.0290993 0.634081 0.111821 0.0292411 0.633845 0.111874 0.0294735 0.633054 
0.111945 0.0297983 0.631714 0.111982 0.0302192 0.629835 0.11192 0.0307401 0.627425 
0.11169 0.0313642 0.62449 0.11122 0.0320911 0.621025 0.110447 0.0329163 0.617018 
0.109324 0.0338287 0.612447 0.107815 0.0348107 0.607282 0.105907 0.0358371 0.601489 
0.103602 0.0368765 0.595037 0.100918 0.0378918 0.587901 0.0978822 0.0388425 0.580074 
0.094527 0.0396862 0.571565 0.0908838 0.0403817 0.56241 0.0869775 0.0408907 0.552666 
0.0828232 0.0411808 0.542411 0.078424 0.0412269 0.53174 0.0737715 0.0410134 0.520753 
0.0688485 0.0405349 0.509548 0.0636332 0.0397974 0.498212 0.0581051 0.0388181 0.486807 
0.0522515 0.0376261 0.475369 0.0460726 0.0362611 0.463904 0.039587 0.0347728 0.452384 
0.032833 0.0332198 0.440757 0.0258687 0.0316672 0.428952 0.0187689 0.030185 0.416891 
0.0116189 0.028845 0.404499 0.00450642 0.0277177 0.391716 -0.00248752 0.0268689 0.378503 
-0.00929809 0.0263563 0.364851 -0.0158849 0.0262256 0.350781 -0.0222379 0.0265076 0.336337 
-0.0283799 0.0272155 0.321582 -0.0343654 0.0283437 0.306583 -0.0402744 0.0298671 0.291401 
-0.0462034 0.0317424 0.276078 -0.0522522 0.0339109 0.260622 -0.0585095 0.036302 0.245004 
-0.0650379 0.0388384 0.229154 -0.0718598 0.0414421 0.21296 -0.0789471 0.0440402 0.196284 
-0.0862148 0.0465703 0.17897 -0.0935205 0.0489856 0.16086 -0.100669 0.0512576 0.141815 
-0.107424 0.0533774 0.121733 -0.113524 0.0553555 0.100559 -0.118701 0.0572183 0.0783003 
-0.122702 0.0590035 0.0550254 -0.125314 0.0607547 0.030865 -0.126375 0.0625143 0.00600163 
-0.125794 0.0643165 -0.0193447 -0.123556 0.0661824 -0.0449339 -0.119725 0.0681144 -0.0705259 
-0.114436 0.0700944 -0.0958992 -0.107884 0.0720836 -0.120867 -0.100303 0.0740243 -0.145289 
-0.0919486 0.0758442 -0.169077 -0.0830728 0.0774624 -0.192195 -0.073903 0.0787959 -0.214654 
-0.0646241 0.0797668 -0.236497 -0.0553658 0.0803085 -0.257793 -0.0461968 0.0803707 -0.278615 
-0.0371255 0.0799228 -0.299028 -0.0281078 0.0789544 -0.319078 -0.0190613 0.0774751 -0.338782 
-0.00988276 0.0755104 -0.358128 -0.000467531 0.0730981 -0.377075 0.00927072 0.0702825 -0.395557 
0.0193838 0.0671095 -0.413495 0.029877 0.0636223 -0.430806 0.0407034 0.0598578 -0.447415 
0.0517646 0.0558456 -0.463259 0.0629183 0.0516086 -0.4783 0.0739913 0.0471651 -0.492523 
0.0847959 0.0425324 -0.505935 0.0951494 0.0377317 -0.518563 0.104892 0.0327919 -0.530441 
0.113902 0.0277539 -0.54161 0.122109 0.022672 -0.5521 0.129496 0.0176149 -0.561934 
0.136101 0.0126629 -0.571113 0.142008 0.0079047 -0.579624 0.147333 0.00343048 -0.58744 
0.152212 -0.000674485 -0.594523 0.156776 -0.00433749 -0.600835 0.161139 -0.0075051 -0.606347 
0.16538 -0.0101484 -0.611047 0.169533 -0.012266 -0.614944 0.173584 -0.0138844 -0.618073 
0.17747 -0.0150551 -0.620497 0.181091 -0.0158493 -0.622298 0.184317 -0.0163503 -0.623573 
0.18701 -0.0166444 -0.624425 0.189038 -0.0168114 -0.624949 0.190293 -0.0169157 -0.625221 
0.190705 -0.016999 -0.625291 
LINES 2 100
OFFSETS vtktypeint64
0 100 
CONNECTIVITY vtktypeint64
0 1 2 3 4 5 6 7 8 
9 10 11 12 13 14 15 16 17 
18 19 20 21 22 23 24 25 26 
27 28 29 30 31 32 33 34 35 
36 37 38 39 40 41 42 43 44 
45 46 47 48 49 50 51 52 53 
54 55 56 57 58 59 60 61 62 
63 64 65 66 67 68 69 70 71 
72 73 74 75 76 77 78 79 80 
81 82 83 84 85 86 87 88 89 
90 91 92 93 94 95 96 97 98 
99 
POINT_DATA 100
FIELD FieldData 3
_theta 1 100 double
0 0.031733259127 0.063466518254 0.095199777382 0.12693303651 0.15866629564 0.19039955476 0.22213281389 0.25386607302 
0.28559933214 0.31733259127 0.3490658504 0.38079910953 0.41253236865 0.44426562778 0.47599888691 0.50773214603 0.53946540516 
0.57119866429 0.60293192342 0.63466518254 0.66639844167 0.6981317008 0.72986495992 0.76159821905 0.79333147818 0.82506473731 
0.85679799643 0.88853125556 0.92026451469 0.95199777382 0.98373103294 1.0154642921 1.0471975512 1.0789308103 1.1106640695 
1.1423973286 1.1741305877 1.2058638468 1.237597106 1.2693303651 1.3010636242 1.3327968833 1.3645301425 1.3962634016 
1.4279966607 1.4597299198 1.491463179 1.5231964381 1.5549296972 1.5866629564 1.6183962155 1.6501294746 1.6818627337 
1.7135959929 1.745329252 1.7770625111 1.8087957702 1.8405290294 1.8722622885 1.9039955476 1.9357288068 1.9674620659 
1.999195325 2.0309285841 2.0626618433 2.0943951024 2.1261283615 2.1578616206 2.1895948798 2.2213281389 2.253061398 
2.2847946572 2.3165279163 2.3482611754 2.3799944345 2.4117276937 2.4434609528 2.4751942119 2.506927471 2.5386607302 
2.5703939893 2.6021272484 2.6338605076 2.6655937667 2.6973270258 2.7290602849 2.7607935441 2.7925268032 2.8242600623 
2.8559933214 2.8877265806 2.9194598397 2.9511930988 2.982926358 3.0146596171 3.0463928762 3.0781261353 3.1098593945 
3.1415926536 
_radius 1 100 double
1.6691609886e-15 0.015103892807 0.03007873395 0.044800985151 0.059158061369 0.073053106954 0.086408966168 0.099171003914 0.11130841631 
0.1228137325 0.13370039714 0.14399865044 0.15375030793 0.16300329289 0.17180668045 0.18020655959 0.18824248476 0.19594406361 
0.20332748186 0.21039233042 0.21711962322 0.22347208803 0.22939756075 0.23483566893 0.23972713438 0.24402421502 0.24770030124 
0.25075665818 0.25322478635 0.25516373309 0.25665269211 0.25778011326 0.25863109023 0.25927490017 0.25975429562 0.26007769488 
0.26021500903 0.26009760572 0.2596227866 0.25866297339 0.25707940057 0.25473948609 0.25153632613 0.24740812974 0.24235503557 
0.23645072268 0.22984656243 0.22276674019 0.2154937675 0.2083450856 0.20164302192 0.1956821095 0.19069925992 0.18685248426 
0.18421178116 0.18276184957 0.18241273591 0.18301373955 0.18436790606 0.1862470973 0.18840885115 0.19061556924 0.19265492946 
0.19435898178 0.1956188028 0.19639199928 0.19670158007 0.1966263288 0.19628431263 0.1958122298 0.19534380594 0.19499036515 
0.19482603616 0.19487892349 0.19512831011 0.19550702979 0.19590782486 0.19619262097 0.19620378727 0.19577636513 0.19475004734 
0.19297963137 0.19034289092 0.18674525706 0.18212123024 0.17643292045 0.16966645528 0.16182718171 0.15293463563 0.14301819215 
0.13211414572 0.12026469048 0.10751887679 0.093935163376 0.079584780518 0.064554897567 0.048950626058 0.032895166985 0.016527821381 
7.7909623216e-16 
_area 1 100 double
0 0.00061744076713 0.0024448678295 0.0054111143178 0.0094083895155 0.014305728618 0.019963441565 0.026246158063 0.033032837077 
0.040222765227 0.047737001441 0.055515233742 0.063508953938 0.071673152507 0.079959671327 0.088314919048 0.096682486443 0.10500836102 
0.11324487503 0.1213504302 0.1292849111 0.13700359291 0.14445320475 0.1515722518 0.15829547953 0.16456132027 0.17032109829 
0.17554779814 0.1802390612 0.18440696642 0.1880559905 0.19116718699 0.19370096653 0.19560905419 0.19684470679 0.1973702732 
0.19716487937 0.19623478196 0.19462050476 0.19236427288 0.18940702512 0.18553734499 0.18054313284 0.17431947619 0.1668892028 
0.15840739355 0.1491545911 0.13951381026 0.12993143795 0.12086652793 0.1127329842 0.10583193103 0.10028197919 0.096013663112 
0.092869716091 0.090706812399 0.089388027887 0.088725110738 0.088501011185 0.088503661467 0.088545647304 0.088492388678 0.088288048251 
0.087954713651 0.087540282887 0.08702723487 0.086307780047 0.085284188085 0.083951975666 0.082399704892 0.080778105373 0.079269262987 
0.078059926402 0.077315371549 0.077149557695 0.077594472062 0.078582239191 0.079950594156 0.081466196064 0.082853932789 0.083826704636 
0.084114655975 0.083492022704 0.081798391928 0.078951583143 0.074951069956 0.069872850648 0.063858217154 0.057099511068 0.049825533072 
0.042288035631 0.034749297545 0.027469886891 0.020695853735 0.014645727215 0.0094992235271 0.0053905277371 0.0024084826654 0.00060376036156 
6.1046096202e-17 
