# vtk DataFile Version 5.1
vtk output
ASCII
DATASET POLYDATA
POINTS 100 float
0.0555455 0.0442591 0.610509 0.055688 0.0445754 0.610396 0.0561577 0.0453556 0.609896 
0.0569207 0.0465288 0.60899 0.0579236 0.0479864 0.607648 0.0590975 0.0495952 0.605833 
0.0603627 0.0512126 0.6035 0.0616349 0.0527033 0.600601 0.0628301 0.0539537 0.597089 
0.0638704 0.0548831 0.592923 0.0646876 0.0554501 0.588069 0.0652261 0.0556536 0.582507 
0.065445 0.0555278 0.576234 0.0653174 0.0551335 0.569264 0.0648292 0.0545451 0.561631 
0.0639773 0.0538378 0.553386 0.0627658 0.0530738 0.544598 0.061203 0.0522933 0.535346 
0.0592987 0.0515076 0.525715 0.0570612 0.0506989 0.515789 0.0544959 0.0498237 0.505644 
0.0516048 0.0488224 0.495343 0.0483871 0.0476297 0.484929 0.0448403 0.0461889 0.474422 
0.0409629 0.0444633 0.463817 0.0367559 0.0424466 0.453085 0.0322263 0.0401687 0.442177 
0.0273878 0.0376963 0.43103 0.0222625 0.0351288 0.419572 0.016881 0.0325892 0.407732 
0.0112809 0.0302117 0.395445 0.00550498 0.0281272 0.382663 -0.00040179 0.02645 0.369354 
-0.00639544 0.0252654 0.355511 -0.0124364 0.0246218 0.341146 -0.018492 0.0245277 0.326294 
-0.0245387 0.0249539 0.311 -0.030562 0.0258398 0.295319 -0.0365561 0.0271052 0.279305 
-0.0425207 0.028662 0.263004 -0.0484573 0.0304286 0.246451 -0.0543647 0.0323404 0.229659 
-0.0602332 0.0343584 0.212625 -0.0660397 0.0364726 0.195324 -0.0717435 0.0387003 0.177716 
-0.0772838 0.0410795 0.159751 -0.0825783 0.0436587 0.141374 -0.0875254 0.0464841 0.122537 
-0.0920078 0.0495863 0.103202 -0.0958983 0.0529691 0.0833477 -0.0990681 0.0566012 0.0629769 
-0.101395 0.060413 0.0421142 -0.102772 0.0642989 0.0208071 -0.103117 0.0681245 -0.000877723 
-0.102379 0.0717389 -0.0228599 -0.100539 0.0749896 -0.0450512 -0.0976182 0.0777387 -0.0673625 
-0.0936718 0.079877 -0.0897097 -0.0887862 0.0813365 -0.112018 -0.0830723 0.0820967 -0.134226 
-0.0766567 0.0821855 -0.156282 -0.0696718 0.0816748 -0.17815 -0.0622465 0.0806698 -0.199797 
-0.0544972 0.079295 -0.221196 -0.0465208 0.0776777 -0.242317 -0.0383902 0.0759319 -0.263124 
-0.0301532 0.0741442 -0.283573 -0.0218334 0.072364 -0.303606 -0.0134347 0.0705992 -0.323158 
-0.00494771 0.0688173 -0.342154 0.00364252 0.0669528 -0.360518 0.0123483 0.0649187 -0.378175 
0.0211715 0.0626212 -0.395059 0.0300975 0.0599756 -0.411119 0.0390907 0.05692 -0.426323 
0.0480934 0.0534269 -0.440659 0.0570272 0.0495093 -0.454137 0.0657964 0.0452215 -0.466783 
0.0742949 0.0406547 -0.478643 0.0824133 0.0359272 -0.489765 0.0900473 0.0311718 -0.500205 
0.0971058 0.0265206 -0.510011 0.103517 0.0220916 -0.51922 0.109235 0.0179761 -0.527857 
0.11424 0.0142315 -0.535931 0.118541 0.0108775 -0.543435 0.122169 0.00789866 -0.550352 
0.12518 0.00525098 -0.556655 0.127641 0.00287202 -0.562321 0.129629 0.000693236 -0.567329 
0.131221 -0.00134774 -0.571671 0.132492 -0.00329647 -0.575355 0.133505 -0.00517432 -0.578405 
0.134312 -0.00697519 -0.580864 0.134955 -0.00866684 -0.582786 0.135459 -0.0101965 -0.584237 
0.13584 -0.0114994 -0.585282 0.136108 -0.0125098 -0.585983 0.136265 -0.0131712 -0.586389 
0.136312 -0.0134455 -0.586531 
LINES 2 100
OFFSETS vtktypeint64
0 100 
CONNECTIVITY vtktypeint64
0 1 2 3 4 5 6 7 8 
9 10 11 12 13 14 15 16 17 
18 19 20 21 22 23 24 25 26 
27 28 29 30 31 32 33 34 35 
36 37 38 39 40 41 42 43 44 
45 46 47 48 49 50 51 52 53 
54 55 56 57 58 59 60 61 62 
63 64 65 66 67 68 69 70 71 
72 73 74 75 76 77 78 79 80 
81 82 83 84 85 86 87 88 89 
90 91 92 93 94 95 96 97 98 
99 
POINT_DATA 100
FIELD FieldData 3
_theta 1 100 double
0 0.031733259127 0.063466518254 0.095199777382 0.12693303651 0.15866629564 0.19039955476 0.22213281389 0.25386607302 
0.28559933214 0.31733259127 0.3490658504 0.38079910953 0.41253236865 0.44426562778 0.47599888691 0.50773214603 0.53946540516 
0.57119866429 0.60293192342 0.63466518254 0.66639844167 0.6981317008 0.72986495992 0.76159821905 0.79333147818 0.82506473731 
0.85679799643 0.88853125556 0.92026451469 0.95199777382 0.98373103294 1.0154642921 1.0471975512 1.0789308103 1.1106640695 
1.1423973286 1.1741305877 1.2058638468 1.237597106 1.2693303651 1.3010636242 1.3327968833 1.3645301425 1.3962634016 
1.4279966607 1.4597299198 1.491463179 1.5231964381 1.5549296972 1.5866629564 1.6183962155 1.6501294746 1.6818627337 
1.7135959929 1.745329252 1.7770625111 1.8087957702 1.8405290294 1.8722622885 1.9039955476 1.9357288068 1.9674620659 
1.999195325 2.0309285841 2.0626618433 2.0943951024 2.1261283615 2.1578616206 2.1895948798 2.2213281389 2.253061398 
2.2847946572 2.3165279163 2.3482611754 2.3799944345 2.4117276937 2.4434609528 2.4751942119 2.506927471 2.5386607302 
2.5703939893 2.6021272484 2.6338605076 2.6655937667 2.6973270258 2.7290602849 2.7607935441 2.7925268032 2.8242600623 
2.8559933214 2.8877265806 2.9194598397 2.9511930988 2.982926358 3.0146596171 3.0463928762 3.0781261353 3.1098593945 
3.1415926536 
_radius 1 100 double
1.3394761424e-15 0.013353601335 0.026713947725 0.040070350577 0.053394801605 0.066638257016 0.079731230004 0.092588504881 0.10511700352 
0.11722534309 0.12883347386 0.1398809295 0.15033256086 0.16018105056 0.16944593593 0.17816925663 0.18640829602 0.19422623077 
0.2016818484 0.20881977734 0.21566277496 0.22220741833 0.22842401226 0.23426077345 0.23965155654 0.24452574756 0.24881859692 
0.25248026185 0.25548216571 0.25781987009 0.25951234361 0.26059812173 0.26112924454 0.26116398375 0.26075928579 0.25996370045 
0.25881146488 0.25731841787 0.25548046749 0.25327529115 0.25066768349 0.24761843286 0.2440958764 0.24008853175 0.23561664069 
0.23074025595 0.22556174967 0.22022136478 0.21488568187 0.20973054095 0.20492164029 0.2005969539 0.19685454864 0.19374747411 
0.19128520842 0.18943969353 0.18815351235 0.18734802135 0.18693012684 0.18679773316 0.18684514994 0.18697010964 0.18708310248 
0.18711797504 0.18704126453 0.18685742169 0.18660796296 0.18636411698 0.18621404226 0.18624678954 0.18653570503 0.18712391709 
0.1880140151 0.18916314476 0.19048366814 0.19184854566 0.19310005786 0.19406053427 0.19454411458 0.19436882197 0.193368213 
0.19140170563 0.18836259458 0.18418288311 0.17883441483 0.17232630933 0.16469927478 0.15601786481 0.14636204456 0.13581944171 
0.12447935025 0.11242900074 0.099751993258 0.086528335882 0.072835382432 0.058749086563 0.044345211535 0.029700287903 0.014892159686 
3.9398973092e-16 
_area 1 100 double
0 0.00049064580846 0.0019579371342 0.0043864838692 0.0077463672335 0.011988560392 0.017041552726 0.02281089845 0.029182425763 
0.036028548587 0.04321617884 0.050614720059 0.05810356518 0.065579639642 0.072965614591 0.080217930541 0.087331682503 0.094338569053 
0.10129568169 0.108266451 0.11529870401 0.12240638912 0.12956018611 0.13668896602 0.14369075971 0.15044945417 0.15685198874 
0.16280099742 0.16821996853 0.17305065658 0.1772446905 0.18075423406 0.18352896751 0.18552353267 0.18671109513 0.18709322413 
0.18669879232 0.18557111348 0.18374809785 0.18124372606 0.17804042371 0.17409871245 0.16938214715 0.16388753046 0.15766886722 
0.15084778517 0.14360878171 0.13618197072 0.12881837812 0.12176355586 0.11523487272 0.1094063485 0.10440092783 0.10027806353 
0.0970038218 0.094458965724 0.0924889843 0.090928647282 0.089622923084 0.088441981512 0.087296165097 0.086148793575 0.085003069949 
0.083815827048 0.082576084131 0.081310605213 0.08007279048 0.078938855707 0.078001473601 0.077356436273 0.077085906914 0.077244836497 
0.077854011827 0.078897305296 0.080319283732 0.082021018983 0.083855924671 0.085630892249 0.08711647918 0.088065508734 0.088237114524 
0.087423065244 0.085472960888 0.082314406578 0.077964380036 0.072529128875 0.066192012986 0.059191360946 0.051792920334 0.044262926373 
0.036847354618 0.029760331055 0.02318092945 0.01725476456 0.01209660597 0.0077924187832 0.0044016462925 0.0019611508587 0.00049091330156 
7.3725747729e-18 
