# vtk DataFile Version 5.1
vtk output
ASCII
DATASET POLYDATA
POINTS 100 float
0.0762161 0.058719 0.75883 0.0762106 0.0589208 0.758644 0.07622 0.0593386 0.75788 
0.0762255 0.0599344 0.756509 0.0761984 0.0606505 0.754488 0.0761034 0.0614163 0.751766 
0.0759033 0.0621574 0.748291 0.0755627 0.0628045 0.744014 0.0750528 0.063301 0.738902 
0.0743546 0.0636089 0.732937 0.0734613 0.063712 0.726123 0.0723792 0.0636152 0.718486 
0.0711267 0.0633412 0.710072 0.0697323 0.0629249 0.700944 0.0682307 0.0624057 0.691177 
0.0666587 0.0618201 0.680852 0.0650493 0.0611947 0.670051 0.0634276 0.0605413 0.658845 
0.0618062 0.0598551 0.647297 0.0601821 0.0591148 0.635455 0.0585354 0.0582874 0.62335 
0.0568299 0.0573333 0.610998 0.0550147 0.0562146 0.598402 0.0530291 0.0549019 0.585555 
0.050807 0.0533815 0.572444 0.0482836 0.0516593 0.559054 0.0454014 0.0497628 0.545375 
0.0421161 0.0477387 0.531399 0.0384008 0.0456485 0.517125 0.0342492 0.0435613 0.502561 
0.0296763 0.0415451 0.487719 0.0247171 0.0396582 0.472618 0.019423 0.0379423 0.457278 
0.0138563 0.0364173 0.441719 0.00808429 0.0350803 0.425958 0.00217207 0.033908 0.410008 
-0.00382406 0.0328624 0.393874 -0.00986192 0.0318999 0.377555 -0.0159171 0.0309814 0.361041 
-0.0219839 0.0300832 0.344311 -0.0280743 0.0292054 0.32734 -0.0342135 0.0283783 0.310091 
-0.0404336 0.0276643 0.292518 -0.0467655 0.0271546 0.274571 -0.0532294 0.0269619 0.256187 
-0.0598265 0.0272087 0.2373 -0.0665304 0.0280133 0.217836 -0.0732817 0.0294738 0.19772 
-0.079985 0.0316547 0.176877 -0.0865092 0.0345747 0.155238 -0.0926919 0.0382 0.132744 
-0.098347 0.0424429 0.109354 -0.103276 0.0471663 0.085049 -0.107279 0.0521936 0.0598416 
-0.110174 0.057324 0.0337762 -0.111802 0.0623499 0.00693371 -0.112051 0.0670755 -0.0205697 
-0.110855 0.071334 -0.0485855 -0.108208 0.0750019 -0.0769391 -0.104166 0.0780073 -0.105439 
-0.0988395 0.0803334 -0.133887 -0.0923942 0.0820145 -0.162091 -0.0850354 0.0831268 -0.189878 
-0.0769974 0.0837748 -0.217103 -0.0685273 0.084074 -0.243657 -0.0598693 0.0841343 -0.269476 
-0.0512497 0.0840433 -0.294537 -0.0428635 0.0838546 -0.318859 -0.034864 0.0835799 -0.342492 
-0.027356 0.0831878 -0.365509 -0.0203938 0.0826076 -0.387996 -0.013982 0.0817398 -0.410035 
-0.00808173 0.0804689 -0.431691 -0.00261837 0.0786799 -0.453008 0.00250713 0.0762743 -0.473996 
0.00740655 0.0731841 -0.494633 0.0121922 0.0693833 -0.514861 0.016966 0.0648932 -0.534597 
0.0218097 0.0597842 -0.553742 0.0267789 0.0541705 -0.572186 0.0318984 0.0482012 -0.589826 
0.0371619 0.0420481 -0.606575 0.0425339 0.035891 -0.62237 0.0479541 0.0299033 -0.637178 
0.0533444 0.0242394 -0.650997 0.0586158 0.019024 -0.663854 0.0636768 0.0143461 -0.675797 
0.068441 0.0102562 -0.686891 0.0728336 0.00676788 -0.697197 0.0767964 0.00386245 -0.706773 
0.0802913 0.00149611 -0.715655 0.0833009 -0.000391852 -0.723854 0.085828 -0.00187077 -0.731351 
0.0878927 -0.00301104 -0.7381 0.0895284 -0.00387828 -0.744029 0.0907766 -0.00452924 -0.749052 
0.0916813 -0.00500973 -0.753076 0.0922837 -0.005354 -0.756011 0.0926173 -0.00558523 -0.757788 
0.092704 -0.00571649 -0.75836 
LINES 2 100
OFFSETS vtktypeint64
0 100 
CONNECTIVITY vtktypeint64
0 1 2 3 4 5 6 7 8 
9 10 11 12 13 14 15 16 17 
18 19 20 21 22 23 24 25 26 
27 28 29 30 31 32 33 34 35 
36 37 38 39 40 41 42 43 44 
45 46 47 48 49 50 51 52 53 
54 55 56 57 58 59 60 61 62 
63 64 65 66 67 68 69 70 71 
72 73 74 75 76 77 78 79 80 
81 82 83 84 85 86 87 88 89 
90 91 92 93 94 95 96 97 98 
99 
POINT_DATA 100
FIELD FieldData 3
_theta 1 100 double
0 0.031733259127 0.063466518254 0.095199777382 0.12693303651 0.15866629564 0.19039955476 0.22213281389 0.25386607302 
0.28559933214 0.31733259127 0.3490658504 0.38079910953 0.41253236865 0.44426562778 0.47599888691 0.50773214603 0.53946540516 
0.57119866429 0.60293192342 0.63466518254 0.66639844167 0.6981317008 0.72986495992 0.76159821905 0.79333147818 0.82506473731 
0.85679799643 0.88853125556 0.92026451469 0.95199777382 0.98373103294 1.0154642921 1.0471975512 1.0789308103 1.1106640695 
1.1423973286 1.1741305877 1.2058638468 1.237597106 1.2693303651 1.3010636242 1.3327968833 1.3645301425 1.3962634016 
1.4279966607 1.4597299198 1.491463179 1.5231964381 1.5549296972 1.5866629564 1.6183962155 1.6501294746 1.6818627337 
1.7135959929 1.745329252 1.7770625111 1.8087957702 1.8405290294 1.8722622885 1.9039955476 1.9357288068 1.9674620659 
1.999195325 2.0309285841 2.0626618433 2.0943951024 2.1261283615 2.1578616206 2.1895948798 2.2213281389 2.253061398 
2.2847946572 2.3165279163 2.3482611754 2.3799944345 2.4117276937 2.4434609528 2.4751942119 2.506927471 2.5386607302 
2.5703939893 2.6021272484 2.6338605076 2.6655937667 2.6973270258 2.7290602849 2.7607935441 2.7925268032 2.8242600623 
2.8559933214 2.8877265806 2.9194598397 2.9511930988 2.982926358 3.0146596171 3.0463928762 3.0781261353 3.1098593945 
3.1415926536 
_radius 1 100 double
1.3329179921e-16 0.014292581408 0.028535539748 0.042672106502 0.056643228889 0.070387698864 0.083843353723 0.096949368726 0.10964946589 
0.12189567768 0.13365213553 0.14489821625 0.15563031924 0.16586162813 0.17561948128 0.18494042292 0.19386353611 0.20242311036 
0.21064191335 0.21852623359 0.22606347875 0.23322259661 0.23995710625 0.24621020691 0.25192129172 0.25703317577 0.26149936336 
0.26529066691 0.26840044444 0.27084769759 0.27267734585 0.27395722685 0.27477177344 0.27521282828 0.27536857687 0.27531199436 
0.27509041461 0.27471778133 0.27417083872 0.27339002737 0.2722852672 0.27074620855 0.26865597114 0.26590692665 0.26241678832 
0.25814319747 0.25309513781 0.24733981005 0.24100398854 0.23426929288 0.22736120343 0.22053205613 0.21403881139 0.20811736663 
0.20295675201 0.19867823511 0.19532462493 0.19286241657 0.19119473007 0.19017960259 0.18964842143 0.18942211333 0.18932539244 
0.18920009273 0.18891743327 0.18838747577 0.18756360418 0.18644095518 0.18504952407 0.18344407114 0.18169333962 0.1798704973 
0.17804561956 0.17627999443 0.17462142878 0.17309979204 0.17172267984 0.17047182926 0.16930122972 0.16813763877 0.16688368146 
0.16542314277 0.16362760808 0.16136339186 0.15849780364 0.15490419666 0.15046577875 0.14507863043 0.13865459545 0.13112460136 
0.12244258725 0.11258973647 0.10157834143 0.089454507128 0.07629905139 0.062226298958 0.047380856413 0.031932767864 0.01607160266 
6.3819978734e-16 
_area 1 100 double
0 0.00060226108808 0.002396650229 0.0053465635023 0.0093926938314 0.014454908223 0.020433981658 0.027213159846 0.03466026019 
0.042631609067 0.050979128951 0.059561103061 0.068255657012 0.076974208902 0.085670635406 0.094341436286 0.1030138474 0.11172354827 
0.12048972543 0.12929767447 0.13809463005 0.14679707329 0.15530347303 0.16350654849 0.17130148918 0.17858923819 0.18527620826 
0.1912736334 0.1965009249 0.20089601378 0.20443004647 0.20711846291 0.20902337123 0.21024972499 0.21093704034 0.21124127911 
0.21130256615 0.21120498305 0.21094466786 0.21042233989 0.2094634448 0.20785465388 0.20538306613 0.20187069994 0.19720156499 
0.19134005018 0.1843400095 0.17634483225 0.16757969462 0.15833751758 0.14895999257 0.13981486593 0.13126899551 0.12365040998 
0.11718835591 0.1119532648 0.10786901477 0.10474954465 0.10229832698 0.10024070538 0.09842231371 0.096780263176 0.095272314473 
0.09380680927 0.092243078063 0.090437460846 0.08830866883 0.085864689287 0.083195651661 0.080451443723 0.077801291804 0.075397454709 
0.073355128986 0.071747291577 0.070605514764 0.069920534592 0.069641732776 0.069677376192 0.069900278194 0.070163158665 0.070315412022 
0.07024203539 0.06986241723 0.068953789682 0.067276204346 0.06472931302 0.061287961562 0.056981041367 0.051887972606 0.04613751661 
0.039904936343 0.033405540533 0.026883713549 0.02059781627 0.014802668742 0.0097322403755 0.0055853832307 0.0025168383298 0.00063427217618 
8.4189938248e-17 
