# vtk DataFile Version 5.1
vtk output
ASCII
DATASET POLYDATA
POINTS 100 float
0.0224212 0.0353242 0.664753 0.0224407 0.0355271 0.664363 0.0225334 0.0359804 0.663049 
0.0226796 0.0366447 0.660861 0.0228494 0.0374602 0.657872 0.0230075 0.0383528 0.654175 
0.0231189 0.0392426 0.649865 0.0231535 0.0400524 0.645034 0.0230917 0.0407165 0.639755 
0.022927 0.0411866 0.634076 0.0226677 0.0414371 0.628014 0.0223354 0.0414665 0.621555 
0.0219619 0.0412964 0.614657 0.0215838 0.0409674 0.607259 0.0212359 0.0405335 0.599287 
0.0209439 0.0400544 0.590669 0.0207182 0.0395878 0.581348 0.0205482 0.0391818 0.571286 
0.0204001 0.0388693 0.560477 0.0202157 0.0386637 0.54895 0.0199163 0.0385579 0.536766 
0.019408 0.0385252 0.524014 0.0185897 0.0385233 0.510807 0.0173633 0.0384994 0.497268 
0.0156435 0.0383973 0.483518 0.0133675 0.0381646 0.46967 0.0105024 0.0377589 0.455814 
0.00705003 0.0371532 0.44201 0.00304834 0.0363401 0.428289 -0.00143165 0.0353323 0.414645 
-0.00629195 0.0341626 0.401044 -0.0114171 0.0328806 0.387426 -0.0166857 0.0315486 0.373712 
-0.0219825 0.0302361 0.359815 -0.0272102 0.0290146 0.345644 -0.0322991 0.0279516 0.331115 
-0.037213 0.0271069 0.316151 -0.0419516 0.026529 0.300693 -0.0465481 0.026254 0.284694 
-0.051062 0.0263052 0.268123 -0.0555686 0.0266942 0.250962 -0.0601457 0.0274235 0.233202 
-0.0648593 0.0284887 0.214844 -0.0697494 0.0298814 0.195895 -0.0748183 0.0315915 0.176367 
-0.080023 0.0336085 0.156276 -0.085272 0.0359223 0.135644 -0.0904274 0.0385228 0.114502 
-0.0953133 0.041399 0.092886 -0.0997281 0.0445371 0.0708426 -0.103461 0.0479183 0.0484272 
-0.106309 0.0515175 0.0257034 -0.108097 0.0553011 0.0027409 -0.108695 0.0592265 -0.0203874 
-0.108025 0.0632419 -0.0436093 -0.106075 0.0672866 -0.0668568 -0.102897 0.0712932 -0.0900693 
-0.0986021 0.0751884 -0.113196 -0.093349 0.0788964 -0.136196 -0.08733 0.0823404 -0.159038 
-0.0807513 0.0854454 -0.181696 -0.0738136 0.08814 -0.204149 -0.0666935 0.0903578 -0.226372 
-0.0595288 0.0920393 -0.248334 -0.0524072 0.0931325 -0.269993 -0.0453626 0.0935937 -0.291296 
-0.0383768 0.0933885 -0.312177 -0.0313875 0.0924928 -0.33256 -0.0243021 0.0908935 -0.352365 
-0.017014 0.08859 -0.37151 -0.00942183 0.0855951 -0.389927 -0.00144675 0.0819359 -0.40756 
0.00695176 0.0776551 -0.424377 0.0157653 0.0728104 -0.440373 0.0249312 0.0674745 -0.455571 
0.0343341 0.0617327 -0.470016 0.0438129 0.0556812 -0.483775 0.0531737 0.049423 -0.496926 
0.0622066 0.0430639 -0.509543 0.0707042 0.0367079 -0.521691 0.0784802 0.0304523 -0.533412 
0.0853863 0.0243839 -0.544715 0.0913239 0.0185751 -0.555578 0.0962519 0.0130815 -0.565938 
0.100188 0.00794136 -0.575705 0.103204 0.00317581 -0.584765 0.105416 -0.00120943 -0.592996 
0.10697 -0.00522089 -0.600282 0.108026 -0.00887366 -0.606527 0.108742 -0.0121873 -0.611673 
0.10926 -0.015182 -0.615709 0.109692 -0.0178748 -0.618674 0.110114 -0.0202779 -0.620662 
0.110566 -0.0223965 -0.621816 0.111049 -0.0242293 -0.622312 0.11154 -0.0257691 -0.622349 
0.111993 -0.0270049 -0.622125 0.11236 -0.0279244 -0.621821 0.112595 -0.028516 -0.621582 
0.112665 -0.0287712 -0.621498 
LINES 2 100
OFFSETS vtktypeint64
0 100 
CONNECTIVITY vtktypeint64
0 1 2 3 4 5 6 7 8 
9 10 11 12 13 14 15 16 17 
18 19 20 21 22 23 24 25 26 
27 28 29 30 31 32 33 34 35 
36 37 38 39 40 41 42 43 44 
45 46 47 48 49 50 51 52 53 
54 55 56 57 58 59 60 61 62 
63 64 65 66 67 68 69 70 71 
72 73 74 75 76 77 78 79 80 
81 82 83 84 85 86 87 88 89 
90 91 92 93 94 95 96 97 98 
99 
POINT_DATA 100
FIELD FieldData 3
_theta 1 100 double
0 0.031733259127 0.063466518254 0.095199777382 0.12693303651 0.15866629564 0.19039955476 0.22213281389 0.25386607302 
0.28559933214 0.31733259127 0.3490658504 0.38079910953 0.41253236865 0.44426562778 0.47599888691 0.50773214603 0.53946540516 
0.57119866429 0.60293192342 0.63466518254 0.66639844167 0.6981317008 0.72986495992 0.76159821905 0.79333147818 0.82506473731 
0.85679799643 0.88853125556 0.92026451469 0.95199777382 0.98373103294 1.0154642921 1.0471975512 1.0789308103 1.1106640695 
1.1423973286 1.1741305877 1.2058638468 1.237597106 1.2693303651 1.3010636242 1.3327968833 1.3645301425 1.3962634016 
1.4279966607 1.4597299198 1.491463179 1.5231964381 1.5549296972 1.5866629564 1.6183962155 1.6501294746 1.6818627337 
1.7135959929 1.745329252 1.7770625111 1.8087957702 1.8405290294 1.8722622885 1.9039955476 1.9357288068 1.9674620659 
1.999195325 2.0309285841 2.0626618433 2.0943951024 2.1261283615 2.1578616206 2.1895948798 2.2213281389 2.253061398 
2.2847946572 2.3165279163 2.3482611754 2.3799944345 2.4117276937 2.4434609528 2.4751942119 2.506927471 2.5386607302 
2.5703939893 2.6021272484 2.6338605076 2.6655937667 2.6973270258 2.7290602849 2.7607935441 2.7925268032 2.8242600623 
2.8559933214 2.8877265806 2.9194598397 2.9511930988 2.982926358 3.0146596171 3.0463928762 3.0781261353 3.1098593945 
3.1415926536 
_radius 1 100 double
1.8892946566e-15 0.012267886208 0.024587130512 0.036987710361 0.049474929901 0.062022805667 0.074572103426 0.087032748941 0.099289832644 
0.11121223057 0.12266282504 0.13350933135 0.14363480079 0.15294698374 0.1613858861 0.16892898969 0.17559368873 0.18143652708 
0.18654889105 0.19104904764 0.19507090193 0.19875053574 0.20221228803 0.20555656053 0.20885141705 0.21212928859 0.21538885122 
0.21860083272 0.22171565744 0.22467081197 0.22739655725 0.22981970948 0.23186613373 0.23346298493 0.2345415387 0.23504088558 
0.23491213391 0.23412236027 0.23265750987 0.23052377473 0.22774751561 0.22437431239 0.22046798654 0.21611027783 0.21140125627 
0.20645968387 0.20142176293 0.19643646338 0.19165626203 0.18722368942 0.18325613608 0.17983304659 0.17698989277 0.17472153576 
0.17299413534 0.17176114893 0.17097707235 0.17060352019 0.17060573745 0.1709422405 0.17155390474 0.17235929957 0.17325969043 
0.17415195285 0.17494416182 0.17556845707 0.17598786009 0.17619624294 0.17621264119 0.17607228919 0.1758170549 0.17548739446 
0.17511680576 0.17472855554 0.17433371612 0.17392952446 0.1734976117 0.17300231329 0.17238965481 0.17158757526 0.17050764169 
0.1690481711 0.16709845427 0.16454367219 0.16127006533 0.15716997706 0.1521465869 0.1461184085 0.13902375939 0.13082524489 
0.12151387112 0.11111196289 0.099673917345 0.087284135961 0.07405216749 0.060105893185 0.045584161505 0.030630392228 0.015388279151 
1.1895100957e-15 
_area 1 100 double
0 0.00044521989431 0.0017828049852 0.0040141986034 0.0071291028282 0.011091851254 0.015831046828 0.021237010948 0.027168737047 
0.033468463798 0.039979016207 0.046557942969 0.053083908994 0.059454467495 0.065578676312 0.071370817554 0.076751116886 0.081655827733 
0.086054083195 0.089965144051 0.093468755047 0.096702773519 0.099844575999 0.10307644746 0.10654324003 0.11032051502 0.1144092064 
0.11875477934 0.12327423087 0.1278749542 0.13245800123 0.13690723794 0.14107437503 0.14477479347 0.14780328783 0.14996500327 
0.15110850888 0.15114956124 0.15007936243 0.14795596762 0.14488237033 0.1409797304 0.13636661043 0.13115257967 0.12544789381 
0.11938327616 0.11312871279 0.10689974448 0.10094331437 0.095501307384 0.090759788186 0.086805122737 0.083610490575 0.081059056875 
0.078990236047 0.077245337105 0.075696922391 0.074260890106 0.072896160331 0.071599878805 0.070406638459 0.069398330199 0.068712795635 
0.068415516567 0.068295934612 0.068079803937 0.067609612373 0.066845394006 0.065849101776 0.064806101524 0.063916572493 0.063170330447 
0.062569234153 0.062150755207 0.061954938468 0.061998122003 0.062260317598 0.062691118288 0.063221204986 0.063766680779 0.064226540255 
0.064478815405 0.064380487096 0.063775138769 0.062509259648 0.060453805842 0.057525387025 0.053702261962 0.049032862186 0.043636924261 
0.037699972222 0.031461055085 0.025193376895 0.019179195967 0.013683133122 0.0089297115136 0.0050902721841 0.0022814169639 0.00057296101791 
1.7401234749e-17 
