# vtk DataFile Version 5.1
vtk output
ASCII
DATASET POLYDATA
POINTS 100 float
0.169972 0.0625119 -0.538769 0.1693 0.062658 -0.538299 0.167355 0.063205 -0.536999 
0.16425 0.0640862 -0.534894 0.160163 0.0651992 -0.532018 0.155311 0.06642 -0.528418 
0.149923 0.0676183 -0.524143 0.144219 0.0686751 -0.519244 0.138378 0.0694977 -0.513772 
0.132524 0.0700315 -0.507766 0.126712 0.0702665 -0.501258 0.120925 0.0702386 -0.494268 
0.115084 0.0700237 -0.486802 0.10906 0.0697281 -0.478852 0.102699 0.0694743 -0.470402 
0.0958455 0.0693851 -0.461424 0.088366 0.0695685 -0.451885 0.0801733 0.0701047 -0.441751 
0.0712396 0.071037 -0.430989 0.0616047 0.0723673 -0.41957 0.0513731 0.0740581 -0.407475 
0.040704 0.0760382 -0.39469 0.0297929 0.0782128 -0.381211 0.0188495 0.0804757 -0.367043 
0.00807292 0.0827219 -0.352193 -0.00237052 0.0848589 -0.336673 -0.012365 0.0868145 -0.320496 
-0.021856 0.0885414 -0.303668 -0.0308522 0.090017 -0.286195 -0.0394185 0.0912387 -0.268074 
-0.0476612 0.092217 -0.249297 -0.0557067 0.092966 -0.229854 -0.0636775 0.0934943 -0.209735 
-0.0716672 0.0937969 -0.188936 -0.0797196 0.0938507 -0.167462 -0.0878131 0.0936135 -0.145335 
-0.0958532 0.0930268 -0.122597 -0.103675 0.0920235 -0.0993151 -0.111054 0.0905372 -0.0755814 
-0.117725 0.0885134 -0.0515125 -0.123406 0.085921 -0.0272465 -0.127828 0.0827604 -0.00293707 
-0.13076 0.0790695 0.0212546 -0.132035 0.074924 0.0451687 -0.131566 0.0704341 0.0686564 
-0.129356 0.0657354 0.0915893 -0.125499 0.0609774 0.113867 -0.120173 0.0563094 0.135423 
-0.113619 0.0518663 0.156226 -0.106127 0.0477567 0.176283 -0.0980025 0.0440535 0.19563 
-0.0895471 0.0407901 0.214332 -0.0810319 0.0379606 0.232469 -0.0726795 0.0355263 0.250129 
-0.0646515 0.033425 0.267395 -0.0570431 0.0315844 0.284342 -0.0498842 0.0299348 0.301023 
-0.0431479 0.0284219 0.317467 -0.0367622 0.0270161 0.333679 -0.0306259 0.0257177 0.34964 
-0.0246248 0.024557 0.365312 -0.0186471 0.0235894 0.380645 -0.0125958 0.0228861 0.395585 
-0.00639744 0.0225216 0.410082 -7.58379e-06 0.0225607 0.424099 0.00658918 0.0230453 0.437616 
0.0133818 0.0239845 0.450637 0.0203381 0.0253493 0.463185 0.0274116 0.0270714 0.475305 
0.0345483 0.029048 0.487056 0.0416928 0.0311516 0.498505 0.0487929 0.033243 0.509721 
0.0558026 0.035186 0.520763 0.0626824 0.0368621 0.531677 0.0693988 0.038183 0.54249 
0.0759227 0.0390987 0.553206 0.0822272 0.0396013 0.563811 0.0882857 0.0397222 0.574268 
0.094071 0.0395248 0.58453 0.0995551 0.0390935 0.594543 0.104711 0.0385191 0.604251 
0.109513 0.0378845 0.61361 0.113942 0.0372529 0.622585 0.117986 0.0366576 0.631158 
0.121642 0.0360987 0.639327 0.124918 0.0355437 0.647106 0.127832 0.0349347 0.654518 
0.130411 0.0341992 0.661589 0.132688 0.0332639 0.668343 0.134698 0.0320695 0.674792 
0.136474 0.0305839 0.680933 0.138047 0.0288121 0.686741 0.139438 0.0268012 0.69217 
0.14066 0.0246395 0.697154 0.141716 0.0224497 0.701608 0.142603 0.0203771 0.705443 
0.14331 0.0185739 0.708564 0.143825 0.0171825 0.710886 0.144136 0.0163183 0.712342 
0.144234 0.0160566 0.712887 
LINES 2 100
OFFSETS vtktypeint64
0 100 
CONNECTIVITY vtktypeint64
0 1 2 3 4 5 6 7 8 
9 10 11 12 13 14 15 16 17 
18 19 20 21 22 23 24 25 26 
27 28 29 30 31 32 33 34 35 
36 37 38 39 40 41 42 43 44 
45 46 47 48 49 50 51 52 53 
54 55 56 57 58 59 60 61 62 
63 64 65 66 67 68 69 70 71 
72 73 74 75 76 77 78 79 80 
81 82 83 84 85 86 87 88 89 
90 91 92 93 94 95 96 97 98 
99 
POINT_DATA 100
FIELD FieldData 3
_theta 1 100 double
0 0.031733259127 0.063466518254 0.095199777382 0.12693303651 0.15866629564 0.19039955476 0.22213281389 0.25386607302 
0.28559933214 0.31733259127 0.3490658504 0.38079910953 0.41253236865 0.44426562778 0.47599888691 0.50773214603 0.53946540516 
0.57119866429 0.60293192342 0.63466518254 0.66639844167 0.6981317008 0.72986495992 0.76159821905 0.79333147818 0.82506473731 
0.85679799643 0.88853125556 0.92026451469 0.95199777382 0.98373103294 1.0154642921 1.0471975512 1.0789308103 1.1106640695 
1.1423973286 1.1741305877 1.2058638468 1.237597106 1.2693303651 1.3010636242 1.3327968833 1.3645301425 1.3962634016 
1.4279966607 1.4597299198 1.491463179 1.5231964381 1.5549296972 1.5866629564 1.6183962155 1.6501294746 1.6818627337 
1.7135959929 1.745329252 1.7770625111 1.8087957702 1.8405290294 1.8722622885 1.9039955476 1.9357288068 1.9674620659 
1.999195325 2.0309285841 2.0626618433 2.0943951024 2.1261283615 2.1578616206 2.1895948798 2.2213281389 2.253061398 
2.2847946572 2.3165279163 2.3482611754 2.3799944345 2.4117276937 2.4434609528 2.4751942119 2.506927471 2.5386607302 
2.5703939893 2.6021272484 2.6338605076 2.6655937667 2.6973270258 2.7290602849 2.7607935441 2.7925268032 2.8242600623 
2.8559933214 2.8877265806 2.9194598397 2.9511930988 2.982926358 3.0146596171 3.0463928762 3.0781261353 3.1098593945 
3.1415926536 
_radius 1 100 double
6.6858682315e-16 0.015610593725 0.030951099394 0.045787532203 0.05994759867 0.07333520435 0.085928702383 0.097763135791 0.10890094449 
0.11939897149 0.12928063998 0.13852033585 0.14704310922 0.15473838104 0.16148288651 0.16716647873 0.17171480102 0.17510471311 
0.17737084195 0.17860384592 0.17894236727 0.17856104937 0.17765663697 0.17643349694 0.17508932866 0.17380160049 0.17271533344 
0.17193310974 0.17150846123 0.1714439178 0.17169475337 0.17217869107 0.17279059754 0.17341993724 0.17396809666 0.17436299317 
0.17456939293 0.17459442748 0.17448847915 0.17434194777 0.174278646 0.17444668891 0.17500748146 0.17612272499 0.17793887222 
0.18056903709 0.18407413678 0.18844692528 0.19360319547 0.19938338102 0.20556565635 0.21188907709 0.21808291206 0.22389689822 
0.22912728481 0.23363495768 0.23735382296 0.24028932336 0.24250825583 0.24412199004 0.24526578845 0.2460771743 0.24667615013 
0.24714956264 0.24754115378 0.24784799009 0.24802316641 0.24798401558 0.24762453879 0.24683038563 0.24549444577 0.24353098555 
0.24088634261 0.23754456899 0.23352713413 0.22888679697 0.22369683136 0.21803766442 0.21198341404 0.20559067499 0.19889127844 
0.19188985716 0.18456614003 0.17688114878 0.16878595975 0.16023145774 0.15117755636 0.14160064524 0.13149843087 0.12089173431 
0.10982315922 0.098352905966 0.086552415879 0.074496900266 0.062257995824 0.049897713703 0.037464544843 0.024992153045 0.012500641156 
3.7482194153e-16 
_area 1 100 double
0 0.0005344237637 0.0021072879931 0.0046313640569 0.0079745743158 0.011979401512 0.016487440057 0.021363947652 0.026514615768 
0.031886608336 0.03745018071 0.043165425149 0.048946811555 0.054640893767 0.060028007235 0.064849999258 0.068857377909 0.071863283615 
0.073789156672 0.074688192548 0.074737867342 0.074201411324 0.073368147648 0.072492278363 0.071754563499 0.071258594171 0.071049370098 
0.071136545692 0.071514591289 0.072176902934 0.07312126814 0.074345154612 0.075834615686 0.07758047684 0.079525649573 0.08153873903 
0.083519041416 0.08534017309 0.086909454572 0.088191963896 0.089209131854 0.090038322262 0.090817480096 0.091755457937 0.093131563984 
0.095253277788 0.098378097517 0.10264076055 0.10802095255 0.11437969585 0.12151399798 0.12916907384 0.13702272465 0.14468934985 
0.1517657836 0.15790010632 0.16285280517 0.1665322249 0.16899855758 0.17043796823 0.17111390906 0.17130613598 0.17124810198 
0.17107548859 0.17080744648 0.17036918411 0.16963233091 0.16845148456 0.1666929423 0.16425629246 0.16108804831 0.15718523547 
0.15258777783 0.14736281375 0.14158924102 0.13534932292 0.12872563553 0.12179788581 0.11463887326 0.1073127206 0.099876934074 
0.092386584626 0.084897608363 0.077467224579 0.070151295464 0.062999847923 0.056052606225 0.049336501989 0.042866943579 0.036653886161 
0.030712007171 0.025071887827 0.019787616008 0.014937227679 0.010615557702 0.006922310202 0.0039496414857 0.0017728639174 0.00044579456089 
8.512977413e-17 
