# vtk DataFile Version 5.1
vtk output
ASCII
DATASET POLYDATA
POINTS 100 float
0.0509894 0.0641884 0.654798 0.0512791 0.0644202 0.65465 0.0521687 0.0648896 0.654017 
0.0535687 0.0655391 0.652891 0.0553417 0.0662812 0.651257 0.0573184 0.0670105 0.649093 
0.059316 0.0676178 0.646369 0.0611577 0.0680044 0.643046 0.0626914 0.0680951 0.639079 
0.0638031 0.0678486 0.634416 0.0644264 0.0672619 0.629006 0.0645448 0.066371 0.622802 
0.0641873 0.0652452 0.615768 0.063419 0.0639769 0.607884 0.0623276 0.0626686 0.599155 
0.061007 0.0614181 0.589609 0.0595424 0.0603042 0.579304 0.0579966 0.0593752 0.568323 
0.0564019 0.0586409 0.556771 0.0547562 0.0580704 0.544766 0.0530252 0.057595 0.532431 
0.0511501 0.0571169 0.519884 0.049059 0.0565213 0.507224 0.0466801 0.0556919 0.494525 
0.0439556 0.0545265 0.481831 0.0408524 0.0529522 0.469147 0.0373702 0.0509358 0.456446 
0.0335428 0.0484912 0.443673 0.0294353 0.0456803 0.43075 0.0251348 0.0426083 0.417591 
0.0207378 0.0394141 0.404111 0.016335 0.0362568 0.390243 0.0119962 0.0333 0.375941 
0.00775695 0.0306952 0.361191 0.00361077 0.0285682 0.346015 -0.000494263 0.0270073 0.330464 
-0.00465139 0.0260577 0.314616 -0.00898484 0.0257198 0.298562 -0.0136341 0.0259536 0.282397 
-0.0187346 0.0266872 0.266207 -0.0243967 0.0278289 0.25005 -0.0306868 0.0292803 0.233957 
-0.0376116 0.0309498 0.217915 -0.0451088 0.0327639 0.201874 -0.053045 0.0346745 0.185746 
-0.0612218 0.0366636 0.169416 -0.0693891 0.038741 0.152751 -0.077265 0.04094 0.135618 
-0.0845592 0.0433078 0.117896 -0.0909984 0.0458946 0.0994894 -0.0963496 0.0487417 0.0803414 
-0.10044 0.0518706 0.060437 -0.103171 0.0552747 0.0398071 -0.104522 0.0589144 0.0185245 
-0.104548 0.0627161 -0.00330331 -0.103374 0.0665759 -0.0255451 -0.101172 0.0703669 -0.0480586 
-0.0981432 0.0739491 -0.0707037 -0.0944948 0.0771812 -0.0933537 -0.0904187 0.0799325 -0.115905 
-0.0860724 0.0820936 -0.138281 -0.0815651 0.0835839 -0.160437 -0.076952 0.0843573 -0.182352 
-0.0722336 0.0844026 -0.204026 -0.0673634 0.083741 -0.225472 -0.0622601 0.0824206 -0.246705 
-0.0568237 0.0805085 -0.267734 -0.0509537 0.0780815 -0.288553 -0.044566 0.0752174 -0.309139 
-0.0376078 0.071987 -0.32945 -0.0300679 0.0684486 -0.349423 -0.0219822 0.064645 -0.368984 
-0.0134328 0.0606032 -0.388052 -0.00454258 0.0563373 -0.406546 0.00453509 0.0518526 -0.424394 
0.0136294 0.0471519 -0.441538 0.0225664 0.0422417 -0.457935 0.0311835 0.0371384 -0.473566 
0.0393416 0.0318722 -0.488424 0.0469342 0.0264902 -0.502518 0.0538932 0.0210559 -0.515863 
0.0601898 0.015648 -0.528474 0.0658325 0.0103555 -0.540362 0.0708609 0.0052722 -0.551528 
0.0753379 0.000490274 -0.561958 0.0793401 -0.00390666 -0.571631 0.0829484 -0.0078496 -0.580514 
0.0862391 -0.0112891 -0.588571 0.089277 -0.0141986 -0.59577 0.0921103 -0.0165757 -0.602088 
0.0947677 -0.0184414 -0.60752 0.0972585 -0.0198379 -0.612084 0.0995739 -0.0208245 -0.615819 
0.10169 -0.0214722 -0.618787 0.103573 -0.0218585 -0.62107 0.105183 -0.0220612 -0.62276 
0.10648 -0.0221523 -0.62395 0.107427 -0.0221936 -0.624727 0.107996 -0.022232 -0.625161 
0.108168 -0.0222966 -0.625298 
LINES 2 100
OFFSETS vtktypeint64
0 100 
CONNECTIVITY vtktypeint64
0 1 2 3 4 5 6 7 8 
9 10 11 12 13 14 15 16 17 
18 19 20 21 22 23 24 25 26 
27 28 29 30 31 32 33 34 35 
36 37 38 39 40 41 42 43 44 
45 46 47 48 49 50 51 52 53 
54 55 56 57 58 59 60 61 62 
63 64 65 66 67 68 69 70 71 
72 73 74 75 76 77 78 79 80 
81 82 83 84 85 86 87 88 89 
90 91 92 93 94 95 96 97 98 
99 
POINT_DATA 100
FIELD FieldData 3
_theta 1 100 double
0 0.031733259127 0.063466518254 0.095199777382 0.12693303651 0.15866629564 0.19039955476 0.22213281389 0.25386607302 
0.28559933214 0.31733259127 0.3490658504 0.38079910953 0.41253236865 0.44426562778 0.47599888691 0.50773214603 0.53946540516 
0.57119866429 0.60293192342 0.63466518254 0.66639844167 0.6981317008 0.72986495992 0.76159821905 0.79333147818 0.82506473731 
0.85679799643 0.88853125556 0.92026451469 0.95199777382 0.98373103294 1.0154642921 1.0471975512 1.0789308103 1.1106640695 
1.1423973286 1.1741305877 1.2058638468 1.237597106 1.2693303651 1.3010636242 1.3327968833 1.3645301425 1.3962634016 
1.4279966607 1.4597299198 1.491463179 1.5231964381 1.5549296972 1.5866629564 1.6183962155 1.6501294746 1.6818627337 
1.7135959929 1.745329252 1.7770625111 1.8087957702 1.8405290294 1.8722622885 1.9039955476 1.9357288068 1.9674620659 
1.999195325 2.0309285841 2.0626618433 2.0943951024 2.1261283615 2.1578616206 2.1895948798 2.2213281389 2.253061398 
2.2847946572 2.3165279163 2.3482611754 2.3799944345 2.4117276937 2.4434609528 2.4751942119 2.506927471 2.5386607302 
2.5703939893 2.6021272484 2.6338605076 2.6655937667 2.6973270258 2.7290602849 2.7607935441 2.7925268032 2.8242600623 
2.8559933214 2.8877265806 2.9194598397 2.9511930988 2.982926358 3.0146596171 3.0463928762 3.0781261353 3.1098593945 
3.1415926536 
_radius 1 100 double
1.0103182026e-16 0.013199696317 0.026379142753 0.039501059146 0.052514463034 0.065351889783 0.077930331076 0.090156003589 0.10193227353 
0.11316937909 0.12379419721 0.13375829848 0.14304290744 0.15166000839 0.15964952527 0.1670730912 0.17400531802 0.18052368638 
0.18669827538 0.19258260824 0.1982069017 0.203574866 0.20866478453 0.21343490485 0.21783237004 0.22180425115 0.22530885407 
0.22832539208 0.23086031392 0.23294904023 0.2346525599 0.23604917834 0.23722252897 0.23824757688 0.23917664527 0.24002748532 
0.24077518854 0.24134941077 0.24163796169 0.24149724716 0.24076925455 0.23930375404 0.23698328742 0.23374755732 0.22961322797 
0.22468504326 0.21915463266 0.21328457909 0.20737769999 0.201735463 0.19661425577 0.19219116039 0.18854930703 0.18568666314 
0.18354317171 0.18203342136 0.18107057722 0.18057305136 0.18045434792 0.1806050763 0.18088165881 0.18111399378 0.18113250945 
0.18080258916 0.18005193891 0.17888299372 0.17736988148 0.17564353942 0.17386970117 0.17222405039 0.17086778331 0.16992582109 
0.16946959119 0.16950659798 0.16997876234 0.17076982402 0.17171982385 0.17264331823 0.17334790656 0.17365034787 0.17338850198 
0.17242831695 0.17066599092 0.16802617284 0.1644575481 0.15992731804 0.15441591706 0.14791289285 0.14041435763 0.13192198122 
0.1224432647 0.11199282949 0.10059460525 0.088284972797 0.075116955154 0.061165278824 0.046531470659 0.031347329913 0.01577469628 
1.5295683149e-15 
_area 1 100 double
0 0.00051230722118 0.0020387757401 0.0045480503258 0.0079880060409 0.012286336463 0.017352046341 0.023078274457 0.029346646415 
0.036032931982 0.043013329919 0.05017053821 0.057399066206 0.064609747132 0.071733547701 0.078724263214 0.085558920639 0.092234447812 
0.098759922021 0.10514541623 0.11139040579 0.11747569397 0.12336185595 0.1289945473 0.13431440819 0.13926831074 0.14381919887 
0.14795268892 0.15167959105 0.15503454993 0.15807143383 0.16085583837 0.16345547644 0.16593028104 0.16832224225 0.17063957873 
0.17283124389 0.17476507337 0.1762308628 0.17696735813 0.17669958903 0.17518131289 0.17224013602 0.16781906715 0.1620060427 
0.15504403971 0.14731763301 0.13931638213 0.13158002468 0.12462924283 0.11886849147 0.11444973208 0.11120840435 0.10880441933 
0.10691739573 0.10532428092 0.1038869128 0.10252163198 0.10117845914 0.099820815134 0.098396361152 0.096821832768 0.095006367726 
0.092885870626 0.090434048094 0.087655645941 0.08458541233 0.081302463818 0.077946819956 0.074722574859 0.071882705007 0.069674760218 
0.068247547066 0.067644737117 0.067838905534 0.068729222769 0.070140427596 0.071837906642 0.073555079095 0.075023600725 0.075999151516 
0.076279661429 0.075715013701 0.074209155807 0.071717592568 0.068243860401 0.063837225457 0.058591680577 0.052644744972 0.046174199105 
0.039391483451 0.032531433157 0.025838861568 0.019553210597 0.013893162543 0.0090436500774 0.0051477960771 0.0023055617817 0.00057885916815 
1.9081958236e-17 
