# vtk DataFile Version 5.1
vtk output
ASCII
DATASET POLYDATA
POINTS 100 float
0.0967623 0.0423338 -0.653199 0.0966626 0.0425116 -0.652949 0.0963654 0.0431893 -0.652198 
0.0958658 0.0443003 -0.650905 0.095155 0.0457436 -0.649005 0.0942194 0.0473965 -0.64642 
0.0930401 0.0491307 -0.643069 0.0915922 0.0508286 -0.638874 0.0898446 0.0523982 -0.633772 
0.0877609 0.0537845 -0.62772 0.085301 0.0549757 -0.620701 0.0824234 0.0560033 -0.612722 
0.0790887 0.0569371 -0.603813 0.0752628 0.0578746 -0.594019 0.0709216 0.0589262 -0.583398 
0.0660543 0.0601996 -0.572006 0.0606662 0.061784 -0.559897 0.0547811 0.0637366 -0.547112 
0.0484409 0.0660735 -0.533679 0.041705 0.0687655 -0.519612 0.0346465 0.0717398 -0.504911 
0.0273479 0.0748872 -0.489569 0.0198951 0.0780729 -0.473578 0.012371 0.0811511 -0.456934 
0.0048487 0.0839794 -0.43964 -0.00261372 0.0864331 -0.421714 -0.00997771 0.0884164 -0.403186 
-0.0172262 0.0898689 -0.384095 -0.0243632 0.0907682 -0.364489 -0.0314107 0.0911277 -0.344413 
-0.038403 0.0909891 -0.323906 -0.0453792 0.0904133 -0.30299 -0.0523738 0.0894692 -0.28167 
-0.0594076 0.0882227 -0.259926 -0.0664784 0.0867278 -0.237717 -0.0735541 0.0850205 -0.214986 
-0.080568 0.0831166 -0.191669 -0.0874177 0.0810138 -0.167704 -0.0939678 0.0786962 -0.143046 
-0.100056 0.076143 -0.117677 -0.105504 0.0733367 -0.0916185 -0.110127 0.0702719 -0.0649369 
-0.113753 0.0669625 -0.037746 -0.116232 0.0634453 -0.0102037 -0.117452 0.0597808 0.0174955 
-0.117347 0.0560499 0.045134 -0.115907 0.0523476 0.0724864 -0.113177 0.048774 0.0993369 
-0.109255 0.0454245 0.125496 -0.104288 0.0423802 0.150815 -0.0984539 0.0397002 0.175196 
-0.0919539 0.0374164 0.198596 -0.0849919 0.0355322 0.221025 -0.0777602 0.0340246 0.242544 
-0.0704252 0.0328501 0.263248 -0.0631159 0.0319525 0.283252 -0.0559172 0.0312725 0.302681 
-0.0488674 0.0307572 0.321648 -0.0419611 0.0303674 0.340244 -0.0351568 0.0300834 0.358532 
-0.028388 0.0299063 0.376538 -0.021576 0.0298569 0.394257 -0.0146445 0.0299698 0.411657 
-0.00753289 0.0302867 0.428692 -0.000206809 0.030847 0.44531 0.00733427 0.0316792 0.461467 
0.0150541 0.0327936 0.477138 0.0228811 0.0341775 0.492326 0.0307143 0.0357938 0.507062 
0.0384325 0.0375834 0.521406 0.0459058 0.0394707 0.53544 0.0530081 0.0413718 0.549262 
0.0596287 0.0432045 0.562966 0.065682 0.0448975 0.576639 0.0711139 0.046399 0.590342 
0.0759044 0.0476821 0.604105 0.0800663 0.0487473 0.617918 0.0836396 0.0496203 0.631737 
0.0866839 0.0503472 0.64548 0.089268 0.0509859 0.659041 0.0914599 0.0515963 0.672299 
0.0933174 0.0522303 0.685128 0.0948809 0.0529229 0.697414 0.0961696 0.0536858 0.70906 
0.0971813 0.0545046 0.719999 0.0978957 0.0553404 0.730191 0.0982812 0.0561348 0.739627 
0.0983035 0.0568186 0.748324 0.097936 0.0573221 0.756315 0.0971687 0.0575865 0.763641 
0.0960167 0.0575738 0.770342 0.0945246 0.0572743 0.776446 0.0927676 0.0567108 0.781966 
0.0908493 0.0559378 0.786895 0.0888942 0.0550367 0.791206 0.0870383 0.0541073 0.794859 
0.0854173 0.053256 0.797803 0.0841535 0.0525833 0.799986 0.083344 0.0521714 0.801363 
0.0830515 0.0520741 0.801903 
LINES 2 100
OFFSETS vtktypeint64
0 100 
CONNECTIVITY vtktypeint64
0 1 2 3 4 5 6 7 8 
9 10 11 12 13 14 15 16 17 
18 19 20 21 22 23 24 25 26 
27 28 29 30 31 32 33 34 35 
36 37 38 39 40 41 42 43 44 
45 46 47 48 49 50 51 52 53 
54 55 56 57 58 59 60 61 62 
63 64 65 66 67 68 69 70 71 
72 73 74 75 76 77 78 79 80 
81 82 83 84 85 86 87 88 89 
90 91 92 93 94 95 96 97 98 
99 
POINT_DATA 100
FIELD FieldData 3
_theta 1 100 double
0 0.031733259127 0.063466518254 0.095199777382 0.12693303651 0.15866629564 0.19039955476 0.22213281389 0.25386607302 
0.28559933214 0.31733259127 0.3490658504 0.38079910953 0.41253236865 0.44426562778 0.47599888691 0.50773214603 0.53946540516 
0.57119866429 0.60293192342 0.63466518254 0.66639844167 0.6981317008 0.72986495992 0.76159821905 0.79333147818 0.82506473731 
0.85679799643 0.88853125556 0.92026451469 0.95199777382 0.98373103294 1.0154642921 1.0471975512 1.0789308103 1.1106640695 
1.1423973286 1.1741305877 1.2058638468 1.237597106 1.2693303651 1.3010636242 1.3327968833 1.3645301425 1.3962634016 
1.4279966607 1.4597299198 1.491463179 1.5231964381 1.5549296972 1.5866629564 1.6183962155 1.6501294746 1.6818627337 
1.7135959929 1.745329252 1.7770625111 1.8087957702 1.8405290294 1.8722622885 1.9039955476 1.9357288068 1.9674620659 
1.999195325 2.0309285841 2.0626618433 2.0943951024 2.1261283615 2.1578616206 2.1895948798 2.2213281389 2.253061398 
2.2847946572 2.3165279163 2.3482611754 2.3799944345 2.4117276937 2.4434609528 2.4751942119 2.506927471 2.5386607302 
2.5703939893 2.6021272484 2.6338605076 2.6655937667 2.6973270258 2.7290602849 2.7607935441 2.7925268032 2.8242600623 
2.8559933214 2.8877265806 2.9194598397 2.9511930988 2.982926358 3.0146596171 3.0463928762 3.0781261353 3.1098593945 
3.1415926536 
_radius 1 100 double
1.0123177976e-15 0.01519730083 0.030311582812 0.045259622152 0.059957255131 0.074316620852 0.088242453531 0.10162890702 0.11435866057 
0.12630564195 0.13734181457 0.1473474455 0.15622340499 0.16390352673 0.17036494031 0.17563454228 0.1797903178 0.18295696742 
0.18529613585 0.18699239037 0.18823683398 0.1892106892 0.19007113733 0.19094103113 0.19190300484 0.19299750223 0.19422383787 
0.19554365015 0.19688656341 0.19815809607 0.19924973137 0.20005076569 0.20046121858 0.20040480047 0.19984074163 0.19877322615 
0.19725723563 0.19539974298 0.19335542985 0.19131657054 0.18949757607 0.18811584412 0.18737160545 0.18742982643 0.18840659661 
0.190361034 0.19329234252 0.19714105649 0.20179385299 0.2070919489 0.21284322811 0.21883764814 0.22486454774 0.2307297613 
0.23627025706 0.24136437411 0.24593647609 0.24995574825 0.2534297292 0.25639384679 0.2588986671 0.26099677928 0.26273122496 
0.26412706614 0.26518702017 0.26589122816 0.26620051431 0.26606219701 0.26541756625 0.26421026501 0.26239477822 0.25994402682 
0.25685484957 0.25315015645 0.24887691236 0.24409985924 0.23889183806 0.23332243886 0.22744718121 0.2212993134 0.21488562436 
0.20818662619 0.2011604574 0.19374921524 0.18588630173 0.17750368315 0.16853846867 0.1589386343 0.14866787396 0.13770944769 
0.12606867111 0.11377356189 0.10087327497 0.087434327351 0.073535116403 0.059259689437 0.044691960207 0.02991149528 0.014991617739 
1.6568714467e-15 
_area 1 100 double
0 0.00054812051088 0.0021931958663 0.0049354741154 0.0087681985091 0.013665427229 0.019565517095 0.026354131928 0.03385162491 
0.041809142677 0.049916389695 0.05782188734 0.065163966173 0.071608166297 0.076884916877 0.080820934201 0.083358932183 0.084562695131 
0.084607665203 0.08376023849 0.082351889576 0.080760198489 0.079452362899 0.078780035733 0.078739958133 0.079300301382 0.080382795404 
0.081876372165 0.0836541412 0.085583407327 0.087522068563 0.089322847945 0.090867086414 0.092003717665 0.092670535937 0.092884903482 
0.09271390407 0.092248463522 0.091607616459 0.090948244868 0.090464202419 0.090371078901 0.090876691016 0.092145129015 0.094272914518 
0.097292922925 0.10120013177 0.10597548889 0.11158879537 0.11798133149 0.12504488427 0.13261255673 0.14046430471 0.14834263553 
0.15597508274 0.16310169264 0.16950322814 0.17502335881 0.17957949102 0.18316006397 0.18580869542 0.1875984263 0.18860376993 
0.18888152217 0.18846771606 0.18738813913 0.18567233229 0.18336124104 0.18050323011 0.17713901915 0.17328482437 0.16893049554 
0.16406119665 0.1586891609 0.15287307675 0.14671457845 0.1403362925 0.13385280779 0.12734583105 0.12085089562 0.11435770106 
0.10782153682 0.10118064335 0.094374002938 0.087355383571 0.080101754389 0.072616681216 0.064931097587 0.057104112002 0.049224988719 
0.041414877053 0.03382505573 0.026629030072 0.020008533308 0.014136458867 0.0091613034903 0.0051972843067 0.0023222040001 0.00058220379417 
4.5183889e-17 
