# vtk DataFile Version 5.1
vtk output
ASCII
DATASET POLYDATA
POINTS 100 float
0.137893 0.041816 0.689551 0.138176 0.0419789 0.689281 0.139052 0.0423172 0.688322 
0.140404 0.0428159 0.686686 0.142051 0.0434512 0.684397 0.143766 0.0441924 0.68148 
0.145306 0.0450037 0.677963 0.146431 0.0458463 0.673874 0.146937 0.0466804 0.669231 
0.146668 0.0474677 0.664049 0.145534 0.0481725 0.658328 0.143515 0.0487636 0.652064 
0.140654 0.049215 0.64524 0.137051 0.0495068 0.637838 0.132838 0.0496249 0.629834 
0.128166 0.0495615 0.62121 0.123177 0.0493146 0.611953 0.117988 0.0488876 0.60206 
0.112677 0.0482888 0.591539 0.107273 0.0475313 0.580417 0.101756 0.0466321 0.568729 
0.0960687 0.0456116 0.556527 0.0901218 0.0444933 0.54387 0.0838165 0.0433029 0.530824 
0.0770613 0.0420673 0.517456 0.0697889 0.0408141 0.503829 0.0619704 0.03957 0.489997 
0.0536228 0.0383602 0.476006 0.0448109 0.0372071 0.461884 0.0356411 0.0361297 0.447646 
0.02625 0.0351431 0.433292 0.0167886 0.0342584 0.418807 0.00740398 0.0334831 0.404164 
-0.00177833 0.0328225 0.389325 -0.0106687 0.0322801 0.374245 -0.0192228 0.0318603 0.358877 
-0.0274449 0.0315691 0.343168 -0.0353831 0.0314165 0.327069 -0.0431188 0.0314171 0.310528 
-0.0507509 0.0315908 0.293499 -0.0583763 0.0319628 0.275937 -0.0660701 0.0325622 0.257803 
-0.0738686 0.0334203 0.23906 -0.0817553 0.0345679 0.219678 -0.0896551 0.0360321 0.199634 
-0.0974345 0.0378329 0.178914 -0.10491 0.0399801 0.157515 -0.111862 0.0424705 0.135446 
-0.118058 0.0452862 0.112731 -0.12327 0.0483936 0.0894105 -0.127301 0.0517442 0.0655417 
-0.130002 0.055276 0.041198 -0.131289 0.0589168 0.0164676 -0.131146 0.0625877 -0.00854952 
-0.129631 0.0662073 -0.0337454 -0.126862 0.0696964 -0.0590087 -0.12301 0.0729816 -0.0842302 
-0.118272 0.0759989 -0.109307 -0.112858 0.0786959 -0.134148 -0.106966 0.0810324 -0.158677 
-0.10076 0.0829809 -0.182834 -0.0943663 0.0845245 -0.206576 -0.0878563 0.0856549 -0.229876 
-0.0812518 0.0863691 -0.252721 -0.0745294 0.0866671 -0.275106 -0.0676325 0.0865483 -0.297029 
-0.0604874 0.0860096 -0.318487 -0.0530203 0.0850444 -0.339472 -0.0451753 0.0836422 -0.359967 
-0.0369283 0.0817895 -0.379939 -0.0282981 0.0794721 -0.399347 -0.0193501 0.076677 -0.418135 
-0.0101958 0.0733963 -0.436243 -0.000985651 0.0696293 -0.453606 0.0081033 0.0653855 -0.470162 
0.0168823 0.0606864 -0.485861 0.0251679 0.055566 -0.500667 0.0327985 0.0500706 -0.514567 
0.0396485 0.0442577 -0.527574 0.045639 0.0381934 -0.539725 0.0507438 0.0319493 -0.551085 
0.0549896 0.0255998 -0.561743 0.0584521 0.0192184 -0.571801 0.0612467 0.0128752 -0.581373 
0.0635166 0.00663432 -0.590572 0.0654177 0.000553116 -0.599501 0.0671046 -0.00531874 -0.608244 
0.0687164 -0.0109386 -0.616858 0.0703648 -0.0162701 -0.625366 0.072126 -0.0212813 -0.633752 
0.0740355 -0.0259434 -0.641961 0.0760882 -0.0302292 -0.649904 0.0782409 -0.0341119 -0.657456 
0.0804191 -0.0375649 -0.66447 0.0825262 -0.0405615 -0.670787 0.084454 -0.0430756 -0.676241 
0.086094 -0.0450831 -0.680678 0.0873484 -0.0465629 -0.683962 0.0881397 -0.0474984 -0.68599 
0.0884182 -0.0478787 -0.686693 
LINES 2 100
OFFSETS vtktypeint64
0 100 
CONNECTIVITY vtktypeint64
0 1 2 3 4 5 6 7 8 
9 10 11 12 13 14 15 16 17 
18 19 20 21 22 23 24 25 26 
27 28 29 30 31 32 33 34 35 
36 37 38 39 40 41 42 43 44 
45 46 47 48 49 50 51 52 53 
54 55 56 57 58 59 60 61 62 
63 64 65 66 67 68 69 70 71 
72 73 74 75 76 77 78 79 80 
81 82 83 84 85 86 87 88 89 
90 91 92 93 94 95 96 97 98 
99 
POINT_DATA 100
FIELD FieldData 3
_theta 1 100 double
0 0.031733259127 0.063466518254 0.095199777382 0.12693303651 0.15866629564 0.19039955476 0.22213281389 0.25386607302 
0.28559933214 0.31733259127 0.3490658504 0.38079910953 0.41253236865 0.44426562778 0.47599888691 0.50773214603 0.53946540516 
0.57119866429 0.60293192342 0.63466518254 0.66639844167 0.6981317008 0.72986495992 0.76159821905 0.79333147818 0.82506473731 
0.85679799643 0.88853125556 0.92026451469 0.95199777382 0.98373103294 1.0154642921 1.0471975512 1.0789308103 1.1106640695 
1.1423973286 1.1741305877 1.2058638468 1.237597106 1.2693303651 1.3010636242 1.3327968833 1.3645301425 1.3962634016 
1.4279966607 1.4597299198 1.491463179 1.5231964381 1.5549296972 1.5866629564 1.6183962155 1.6501294746 1.6818627337 
1.7135959929 1.745329252 1.7770625111 1.8087957702 1.8405290294 1.8722622885 1.9039955476 1.9357288068 1.9674620659 
1.999195325 2.0309285841 2.0626618433 2.0943951024 2.1261283615 2.1578616206 2.1895948798 2.2213281389 2.253061398 
2.2847946572 2.3165279163 2.3482611754 2.3799944345 2.4117276937 2.4434609528 2.4751942119 2.506927471 2.5386607302 
2.5703939893 2.6021272484 2.6338605076 2.6655937667 2.6973270258 2.7290602849 2.7607935441 2.7925268032 2.8242600623 
2.8559933214 2.8877265806 2.9194598397 2.9511930988 2.982926358 3.0146596171 3.0463928762 3.0781261353 3.1098593945 
3.1415926536 
_radius 1 100 double
5.7219584982e-16 0.01359365279 0.027173963852 0.040716261539 0.054187461155 0.067543009366 0.080725648162 0.093666984914 0.10629192223 
0.11852480092 0.13029535 0.1415426381 0.15221614156 0.162274353 0.17168240088 0.18041038335 0.18843345877 0.19573367287 
0.20230271382 0.20814461903 0.21327777926 0.21773602218 0.22156880454 0.22484050602 0.22762861161 0.23002039608 0.23210775384 
0.23398009783 0.23571571708 0.23737251395 0.23897950605 0.24053071127 0.24198286434 0.24325779368 0.24424941334 0.24483448363 
0.24488578995 0.24428621476 0.24294225482 0.24079577037 0.23783304661 0.23409049743 0.22965647029 0.22466862891 0.21930642419 
0.21377844278 0.20830517721 0.20309903458 0.19834483302 0.19418480092 0.1907113451 0.18796852334 0.18596025895 0.18466120759 
0.18402563041 0.18399088944 0.18447513202 0.18537245691 0.18655133495 0.18786117718 0.18914768254 0.19027281153 0.19113316684 
0.19167181791 0.1918813983 0.19179883567 0.19149368496 0.19105278388 0.1905640171 0.19010152621 0.18971397576 0.18941679936 
0.18918890052 0.18897396184 0.1886860453 0.18821847065 0.18745432035 0.18627670454 0.18457725974 0.18226208388 0.17925510937 
0.17549949322 0.17095781513 0.16561173669 0.15946141639 0.15252457951 0.14483488946 0.13643926399 0.1273940158 0.11776007559 
0.10759795025 0.096963361098 0.085904584395 0.074462285521 0.062672075278 0.050569229798 0.038194256855 0.025597570657 0.012841678276 
1.0199163556e-15 
_area 1 100 double
0 0.00051832982535 0.0020661001319 0.0046197696771 0.0081347209285 0.012540056559 0.017736210235 0.02359843955 0.029987678033 
0.036767212941 0.043820159305 0.051060696418 0.058433343494 0.065899199774 0.073414122607 0.080908497124 0.088278683566 0.095394881169 
0.10212171758 0.10834241499 0.11397821784 0.11899955488 0.12342974155 0.127343296 0.13085910852 0.13412606217 0.13729938098 
0.14051217748 0.14385224505 0.14735012135 0.15097614725 0.15464281413 0.15821079227 0.16149707255 0.16428468559 0.166336301 
0.16741451421 0.16730857655 0.1658640222 0.16301058162 0.1587839854 0.15333703132 0.14693488435 0.13993113136 0.13272612316 
0.12571525369 0.11923651679 0.11352284881 0.10866605474 0.10461346045 0.101212452 0.098279624274 0.095661952072 0.093274859499 
0.091112063805 0.089228616852 0.087704818789 0.086618098989 0.08593293328 0.085513889764 0.085233679571 0.084942654796 0.08448153103 
0.083723957228 0.082618507742 0.081208204062 0.079626546438 0.078066894456 0.076710835532 0.075667557261 0.074998638865 0.074747675673 
0.074966496659 0.075651844723 0.076595482273 0.077594799057 0.078490658035 0.079146689505 0.079442957534 0.079270277919 0.078525766228 
0.077113470228 0.07495150392 0.071983822627 0.068193106433 0.063611066945 0.058323118769 0.052465664102 0.046216036648 0.039776746734 
0.033356679341 0.027152561534 0.021334469048 0.016038839904 0.011370585748 0.0074123653726 0.0042354336409 0.0019054756268 0.00048007963023 
3.035766083e-17 
