# vtk DataFile Version 5.1
vtk output
ASCII
DATASET POLYDATA
POINTS 100 float
0.0207303 0.0121706 -0.714531 0.0206843 0.012256 -0.714409 0.0205932 0.0126384 -0.714073 
0.0204625 0.0132886 -0.713434 0.0202996 0.0141631 -0.712353 0.0201123 0.0152105 -0.710661 
0.0199051 0.0163787 -0.708176 0.0196769 0.0176225 -0.70473 0.0194179 0.0189104 -0.700184 
0.0191074 0.0202294 -0.694447 0.0187129 0.0215875 -0.687484 0.0181895 0.0230129 -0.679313 
0.0174822 0.0245509 -0.670008 0.0165281 0.0262576 -0.659677 0.0152608 0.0281929 -0.648453 
0.0136156 0.0304115 -0.636469 0.0115352 0.0329548 -0.623846 0.00897528 0.0358442 -0.610669 
0.00590989 0.0390757 -0.596988 0.002335 0.0426185 -0.582804 -0.0017292 0.0464148 -0.56808 
-0.00623827 0.0503841 -0.552748 -0.0111258 0.0544288 -0.536726 -0.0163079 0.0584413 -0.51993 
-0.0216895 0.0623125 -0.502297 -0.027172 0.0659393 -0.483796 -0.0326615 0.0692315 -0.464438 
-0.038077 0.0721164 -0.444281 -0.0433565 0.0745421 -0.423421 -0.0484624 0.0764774 -0.40199 
-0.053383 0.0779106 -0.380133 -0.0581315 0.0788466 -0.357995 -0.0627419 0.0793027 -0.3357 
-0.0672616 0.0793044 -0.313333 -0.0717426 0.0788823 -0.29093 -0.0762309 0.0780688 -0.268476 
-0.0807558 0.0768968 -0.245899 -0.085321 0.0753997 -0.223088 -0.0898972 0.0736122 -0.199903 
-0.0944184 0.0715716 -0.176199 -0.0987826 0.0693199 -0.151846 -0.102856 0.0669051 -0.126752 
-0.10648 0.064381 -0.100879 -0.109485 0.0618068 -0.0742566 -0.111704 0.0592446 -0.0469846 
-0.112984 0.0567559 -0.0192298 -0.113203 0.0543974 0.00878522 -0.112281 0.0522164 0.0368004 
-0.110187 0.0502467 0.0645397 -0.106944 0.0485055 0.0917347 -0.102628 0.0469923 0.118147 
-0.0973618 0.0456893 0.143585 -0.0913041 0.0445646 0.167922 -0.0846375 0.0435768 0.191093 
-0.077553 0.0426813 0.213103 -0.0702344 0.0418373 0.234013 -0.0628447 0.0410145 0.253929 
-0.0555144 0.040199 0.272985 -0.0483346 0.0393967 0.291326 -0.0413536 0.0386347 0.309092 
-0.0345791 0.0379597 0.326405 -0.0279837 0.037434 0.343359 -0.0215146 0.0371283 0.360018 
-0.0151046 0.0371139 0.376417 -0.00868452 0.0374534 0.392568 -0.00219458 0.0381926 0.408468 
0.00440624 0.0393533 0.424106 0.0111339 0.0409287 0.439477 0.0179763 0.0428817 0.454583 
0.0248945 0.0451468 0.469443 0.0318269 0.0476344 0.484086 0.0386965 0.0502382 0.498553 
0.0454188 0.0528448 0.512888 0.0519115 0.0553428 0.52713 0.0581022 0.0576329 0.541308 
0.0639351 0.0596359 0.55543 0.0693746 0.0612984 0.56948 0.0744064 0.0625959 0.583418 
0.0790357 0.0635332 0.597178 0.0832831 0.064141 0.610681 0.0871786 0.0644709 0.623834 
0.0907554 0.0645883 0.636546 0.0940436 0.0645647 0.648735 0.0970654 0.0644703 0.660336 
0.0998319 0.0643668 0.671304 0.102343 0.0643032 0.681619 0.104587 0.0643125 0.691285 
0.106549 0.0644111 0.70032 0.108209 0.0646003 0.708754 0.109555 0.0648689 0.716615 
0.110582 0.0651972 0.723925 0.111299 0.0655611 0.73069 0.111732 0.0659362 0.736893 
0.111921 0.0663006 0.742497 0.11192 0.0666372 0.747445 0.111792 0.0669341 0.751663 
0.1116 0.0671845 0.755074 0.111404 0.0673857 0.757602 0.111254 0.067537 0.759183 
0.111181 0.0676388 0.759774 
LINES 2 100
OFFSETS vtktypeint64
0 100 
CONNECTIVITY vtktypeint64
0 1 2 3 4 5 6 7 8 
9 10 11 12 13 14 15 16 17 
18 19 20 21 22 23 24 25 26 
27 28 29 30 31 32 33 34 35 
36 37 38 39 40 41 42 43 44 
45 46 47 48 49 50 51 52 53 
54 55 56 57 58 59 60 61 62 
63 64 65 66 67 68 69 70 71 
72 73 74 75 76 77 78 79 80 
81 82 83 84 85 86 87 88 89 
90 91 92 93 94 95 96 97 98 
99 
POINT_DATA 100
FIELD FieldData 3
_theta 1 100 double
0 0.031733259127 0.063466518254 0.095199777382 0.12693303651 0.15866629564 0.19039955476 0.22213281389 0.25386607302 
0.28559933214 0.31733259127 0.3490658504 0.38079910953 0.41253236865 0.44426562778 0.47599888691 0.50773214603 0.53946540516 
0.57119866429 0.60293192342 0.63466518254 0.66639844167 0.6981317008 0.72986495992 0.76159821905 0.79333147818 0.82506473731 
0.85679799643 0.88853125556 0.92026451469 0.95199777382 0.98373103294 1.0154642921 1.0471975512 1.0789308103 1.1106640695 
1.1423973286 1.1741305877 1.2058638468 1.237597106 1.2693303651 1.3010636242 1.3327968833 1.3645301425 1.3962634016 
1.4279966607 1.4597299198 1.491463179 1.5231964381 1.5549296972 1.5866629564 1.6183962155 1.6501294746 1.6818627337 
1.7135959929 1.745329252 1.7770625111 1.8087957702 1.8405290294 1.8722622885 1.9039955476 1.9357288068 1.9674620659 
1.999195325 2.0309285841 2.0626618433 2.0943951024 2.1261283615 2.1578616206 2.1895948798 2.2213281389 2.253061398 
2.2847946572 2.3165279163 2.3482611754 2.3799944345 2.4117276937 2.4434609528 2.4751942119 2.506927471 2.5386607302 
2.5703939893 2.6021272484 2.6338605076 2.6655937667 2.6973270258 2.7290602849 2.7607935441 2.7925268032 2.8242600623 
2.8559933214 2.8877265806 2.9194598397 2.9511930988 2.982926358 3.0146596171 3.0463928762 3.0781261353 3.1098593945 
3.1415926536 
_radius 1 100 double
5.5586181525e-16 0.01409671701 0.028121134257 0.041995449571 0.055634997574 0.068946447293 0.081827803957 0.094170537533 0.10586375089 
0.11679986226 0.12688096356 0.13602491815 0.14417039139 0.15128031915 0.15734371942 0.16237611005 0.16641898 0.16953869519 
0.17182493787 0.1733884309 0.17435748536 0.17487296965 0.17508163017 0.17512815297 0.17514673602 0.17525306704 0.17553741169 
0.17605913676 0.176842719 0.17787534714 0.17910652609 0.18045037545 0.18179141575 0.18299442149 0.18391821348 0.184432199 
0.18443362307 0.18386326465 0.18271751859 0.181055081 0.17899668565 0.17671671893 0.17442657915 0.17235193703 0.17070911601 
0.16968694071 0.16943711152 0.17007078804 0.17165672997 0.17421813267 0.17772817761 0.18210604897 0.18721568816 0.19286937314 
0.19883743863 0.20486412126 0.21068796162 0.21606400322 0.22078460774 0.22469606017 0.22770898258 0.22980159399 0.23101583938 
0.23144724866 0.23123000062 0.23051901159 0.22947096176 0.2282261009 0.22689253848 0.2255345566 0.22416623347 0.2227512339 
0.22120895315 0.21942634563 0.21727389495 0.2146234879 0.21136559748 0.2074232414 0.20276068934 0.197385802 0.19134603811 
0.18471928401 0.17760143647 0.17009290361 0.16228588159 0.15425360724 0.14604207717 0.13766425961 0.1290968157 0.12027979961 
0.1111204178 0.10150212838 0.091299646885 0.080398823842 0.068718537073 0.056230569508 0.042973418109 0.029057031196 0.014657174869 
1.5218937111e-15 
_area 1 100 double
0 0.00046548775388 0.0018758044776 0.0042626745688 0.0076510577027 0.012030347365 0.017331068789 0.023413004342 0.03006725294 
0.037031682122 0.044016289601 0.050732706872 0.056921264393 0.06237020319 0.066924655636 0.070486974582 0.073013124925 0.074510405539 
0.075039284273 0.074718397717 0.073730940605 0.072341523786 0.070935778011 0.069846210029 0.069183634067 0.069000927977 0.069321208166 
0.070124581083 0.071354493555 0.072931939304 0.074767912796 0.076766828662 0.078819191424 0.080791166441 0.082522852878 0.083841674786 
0.084589383674 0.084657477127 0.084025693815 0.082798472331 0.081229494934 0.079693577884 0.078536706746 0.077923595368 0.07790113117 
0.078546659149 0.079863808327 0.081750729729 0.084217079361 0.08734510962 0.091235638618 0.095972958859 0.10159648242 0.10807446429 
0.11527999819 0.12297558562 0.13081635584 0.13837730061 0.14521328894 0.15092217848 0.15516961774 0.15788159746 0.15896414983 
0.15852118258 0.15680631217 0.15419217767 0.15102063936 0.1474785532 0.14378703138 0.14013632809 0.13665339534 0.13338677407 
0.13030059543 0.12728048342 0.12415612814 0.12074000574 0.11687155792 0.11245121049 0.10745348736 0.1019185228 0.095929952303 
0.089590656617 0.083005281141 0.076272195532 0.069482078169 0.062718590679 0.056058088381 0.049567598608 0.043301751402 0.037299922717 
0.031585292344 0.026168181952 0.021056126181 0.016270834107 0.011867060458 0.0079441903544 0.0046427651994 0.0021244901116 0.00054090568549 
1.110493811e-16 
