# vtk DataFile Version 5.1
vtk output
ASCII
DATASET POLYDATA
POINTS 100 float
0.112236 0.0548265 0.664004 0.112285 0.0549425 0.663854 0.112462 0.0551452 0.663268 
0.112725 0.0554286 0.662228 0.113013 0.0557837 0.660703 0.113252 0.0561986 0.658659 
0.113362 0.0566587 0.656051 0.113268 0.0571474 0.652834 0.112909 0.0576462 0.648964 
0.112243 0.058136 0.644401 0.11125 0.0585975 0.639114 0.109935 0.0590119 0.633081 
0.108322 0.0593622 0.626294 0.106449 0.0596335 0.618758 0.104359 0.0598137 0.610492 
0.102091 0.0598941 0.601531 0.0996754 0.0598688 0.591918 0.0971213 0.0597355 0.581709 
0.0944174 0.059494 0.570967 0.0915297 0.0591463 0.559759 0.0884054 0.0586952 0.548151 
0.0849791 0.0581441 0.536209 0.0811819 0.0574959 0.523994 0.0769519 0.0567529 0.511559 
0.0722439 0.0559164 0.498947 0.0670384 0.0549875 0.486195 0.0613473 0.053967 0.473327 
0.0552159 0.0528573 0.460359 0.0487206 0.0516628 0.447295 0.0419628 0.0503915 0.434132 
0.0350591 0.0490562 0.420861 0.0281287 0.0476749 0.407463 0.0212809 0.0462718 0.393913 
0.0146024 0.0448768 0.38018 0.00814717 0.0435248 0.366229 0.00193092 0.0422548 0.352017 
-0.00407072 0.0411075 0.337497 -0.00991826 0.0401239 0.322618 -0.0156995 0.0393431 0.307325 
-0.0215168 0.0387995 0.29156 -0.0274713 0.0385218 0.275266 -0.0336463 0.0385311 0.258389 
-0.040092 0.0388403 0.24088 -0.0468123 0.0394536 0.222697 -0.0537569 0.0403669 0.203811 
-0.0608187 0.0415689 0.184207 -0.0678374 0.0430416 0.163886 -0.0746091 0.0447622 0.142867 
-0.0809015 0.0467037 0.121187 -0.0864718 0.0488366 0.0989002 -0.0910883 0.0511288 0.0760759 
-0.0945491 0.0535466 0.0527965 -0.0967012 0.0560544 0.0291532 -0.0974531 0.0586141 0.00524227 
-0.0967829 0.0611849 -0.0188388 -0.0947391 0.0637227 -0.0429952 -0.0914357 0.06618 -0.0671377 
-0.0870402 0.0685057 -0.091185 -0.0817576 0.0706461 -0.115065 -0.075811 0.0725458 -0.138715 
-0.0694212 0.0741496 -0.162082 -0.0627878 0.0754047 -0.185118 -0.0560729 0.0762626 -0.207782 
-0.0493902 0.0766824 -0.230038 -0.0427993 0.076632 -0.25185 -0.0363067 0.0760906 -0.273184 
-0.029872 0.0750492 -0.294005 -0.0234201 0.073511 -0.314282 -0.0168564 0.0714909 -0.333982 
-0.0100836 0.0690138 -0.353076 -0.00301849 0.0661129 -0.371541 0.00439282 0.0628268 -0.389359 
0.0121641 0.0591975 -0.406519 0.0202626 0.0552674 -0.423019 0.0286081 0.0510774 -0.438866 
0.0370774 0.0466656 -0.454072 0.0455138 0.0420666 -0.468653 0.0537403 0.0373113 -0.482628 
0.0615744 0.032428 -0.496015 0.0688443 0.0274434 -0.508826 0.0754039 0.0223843 -0.521068 
0.081144 0.0172792 -0.532737 0.0860014 0.0121597 -0.543818 0.0899619 0.00706108 -0.554289 
0.0930591 0.00202295 -0.56412 0.095369 -0.00291144 -0.573275 0.0970007 -0.0076963 -0.581717 
0.0980839 -0.0122849 -0.589414 0.0987567 -0.0166318 -0.596341 0.0991521 -0.0206946 -0.602486 
0.0993875 -0.0244364 -0.607851 0.0995562 -0.0278268 -0.612451 0.0997223 -0.0308431 -0.61632 
0.09992 -0.0334704 -0.619503 0.100156 -0.0357011 -0.622056 0.100415 -0.0375334 -0.624039 
0.100668 -0.0389701 -0.62551 0.100879 -0.0400158 -0.626523 0.101016 -0.0406758 -0.627119 
0.101057 -0.0409538 -0.627324 
LINES 2 100
OFFSETS vtktypeint64
0 100 
CONNECTIVITY vtktypeint64
0 1 2 3 4 5 6 7 8 
9 10 11 12 13 14 15 16 17 
18 19 20 21 22 23 24 25 26 
27 28 29 30 31 32 33 34 35 
36 37 38 39 40 41 42 43 44 
45 46 47 48 49 50 51 52 53 
54 55 56 57 58 59 60 61 62 
63 64 65 66 67 68 69 70 71 
72 73 74 75 76 77 78 79 80 
81 82 83 84 85 86 87 88 89 
90 91 92 93 94 95 96 97 98 
99 
POINT_DATA 100
FIELD FieldData 3
_theta 1 100 double
0 0.031733259127 0.063466518254 0.095199777382 0.12693303651 0.15866629564 0.19039955476 0.22213281389 0.25386607302 
0.28559933214 0.31733259127 0.3490658504 0.38079910953 0.41253236865 0.44426562778 0.47599888691 0.50773214603 0.53946540516 
0.57119866429 0.60293192342 0.63466518254 0.66639844167 0.6981317008 0.72986495992 0.76159821905 0.79333147818 0.82506473731 
0.85679799643 0.88853125556 0.92026451469 0.95199777382 0.98373103294 1.0154642921 1.0471975512 1.0789308103 1.1106640695 
1.1423973286 1.1741305877 1.2058638468 1.237597106 1.2693303651 1.3010636242 1.3327968833 1.3645301425 1.3962634016 
1.4279966607 1.4597299198 1.491463179 1.5231964381 1.5549296972 1.5866629564 1.6183962155 1.6501294746 1.6818627337 
1.7135959929 1.745329252 1.7770625111 1.8087957702 1.8405290294 1.8722622885 1.9039955476 1.9357288068 1.9674620659 
1.999195325 2.0309285841 2.0626618433 2.0943951024 2.1261283615 2.1578616206 2.1895948798 2.2213281389 2.253061398 
2.2847946572 2.3165279163 2.3482611754 2.3799944345 2.4117276937 2.4434609528 2.4751942119 2.506927471 2.5386607302 
2.5703939893 2.6021272484 2.6338605076 2.6655937667 2.6973270258 2.7290602849 2.7607935441 2.7925268032 2.8242600623 
2.8559933214 2.8877265806 2.9194598397 2.9511930988 2.982926358 3.0146596171 3.0463928762 3.0781261353 3.1098593945 
3.1415926536 
_radius 1 100 double
9.269074108e-16 0.014038515943 0.02801963655 0.041877578618 0.0555414563 0.068935220399 0.081979499743 0.094595027477 0.10670700415 
0.11824965987 0.12917038368 0.13943297164 0.14901970645 0.15793209545 0.16619019017 0.17383050329 0.18090260177 0.18746447329 
0.19357680282 0.19929648575 0.20467010536 0.20972857181 0.21448433258 0.21893222286 0.22305410625 0.22682628114 0.23022768149 
0.23324657133 0.23588384157 0.23815200746 0.24007024057 0.24165686162 0.24292135078 0.24385794418 0.24444233702 0.24463214648 
0.24437091888 0.24359485887 0.24224121657 0.24025732391 0.23760945241 0.23429080749 0.23032801077 0.22578538186 0.22076630693 
0.21541106142 0.20989068475 0.20439687079 0.19912830061 0.19427443307 0.18999858573 0.18642308788 0.1836197209 0.18160766284 
0.1803586368 0.17980633878 0.17985635935 0.18039423905 0.1812917383 0.18241303253 0.1836224519 0.18479405497 0.18582193447 
0.18662948135 0.18717584703 0.18745819032 0.18750888101 0.18738774269 0.18717051478 0.18693558682 0.18675132803 0.18666588546 
0.18670033799 0.18684501826 0.18705819221 0.18726643032 0.18736670375 0.18723082735 0.18671277981 0.1856587023 0.18391855261 
0.18135793575 0.17786860553 0.17337635926 0.16784538507 0.16127854421 0.15371359832 0.14521600383 0.1358695 0.12576615999 
0.11499768656 0.10364939717 0.091797581236 0.079509951079 0.066848122236 0.053870766054 0.040636323219 0.027204708792 0.013637951049 
2.7496085469e-16 
_area 1 100 double
0 0.00052513447562 0.002093256617 0.0046810440123 0.0082454150529 0.012719378314 0.018009533706 0.023996781891 0.030540851734 
0.037488314854 0.044683020864 0.05197737057 0.059242596189 0.066376430462 0.073307391678 0.079996138944 0.08643502937 0.092646082361 
0.09867530545 0.10458012025 0.11040911271 0.11617923653 0.12186063344 0.12737862167 0.13263581188 0.13754874702 0.1420862725 
0.14629133439 0.15026732153 0.15412795445 0.15794152677 0.16169950065 0.16530997021 0.16860819594 0.17138156638 0.17340474599 
0.17447621328 0.17444665275 0.17323364527 0.17082301727 0.16726174388 0.16264887122 0.1571292004 0.15088944165 0.14415131378 
0.13715657098 0.13014621982 0.12334369928 0.11694903596 0.11113616656 0.10603736578 0.10171337324 0.098138141322 0.095235827253 
0.092956663635 0.091289074867 0.090159024052 0.089447655104 0.089048028153 0.088841142997 0.088683858745 0.088435336272 0.087992105866 
0.087303884095 0.086368324983 0.085216661043 0.083900215334 0.082481868478 0.081031846765 0.079626061217 0.078348303705 0.077296363765 
0.076588919274 0.076375277538 0.076835499339 0.078007465079 0.079596534041 0.08127444908 0.082765259675 0.0838045236 0.084137097252 
0.083536676801 0.08183348495 0.07894037704 0.074868504902 0.069726795763 0.063704869617 0.057044326635 0.0500064432 0.042844336177 
0.035784912939 0.029021668087 0.022715577687 0.016999806438 0.011984807679 0.0077619440329 0.0044049149865 0.0019696128922 0.0004941247613 
4.968025192e-17 
