# vtk DataFile Version 5.1
vtk output
ASCII
DATASET POLYDATA
POINTS 100 float
0.146795 0.104762 -0.678191 0.146605 0.104878 -0.677523 0.146025 0.105353 -0.675625 
0.145049 0.106114 -0.672528 0.143672 0.107052 -0.668286 0.141888 0.108032 -0.662967 
0.139691 0.108914 -0.656655 0.137078 0.109571 -0.649441 0.134047 0.1099 -0.641418 
0.1306 0.109841 -0.632679 0.126738 0.109382 -0.623311 0.122464 0.108558 -0.613384 
0.117779 0.107449 -0.602954 0.11268 0.106166 -0.592054 0.107164 0.104839 -0.580697 
0.10122 0.103597 -0.568873 0.0948387 0.102557 -0.556552 0.0880084 0.101801 -0.543689 
0.0807216 0.101375 -0.53023 0.0729784 0.101279 -0.51612 0.0647897 0.101467 -0.501308 
0.0561811 0.101859 -0.485757 0.0471948 0.102349 -0.469447 0.0378893 0.102818 -0.452383 
0.0283377 0.103152 -0.434592 0.0186233 0.103256 -0.416125 0.00883322 0.103062 -0.397051 
-0.000948384 0.10254 -0.377452 -0.0106485 0.101696 -0.357411 -0.0202118 0.100572 -0.337009 
-0.0296056 0.099235 -0.316308 -0.038822 0.097765 -0.29535 -0.0478762 0.0962448 -0.274148 
-0.0568019 0.0947454 -0.252686 -0.065642 0.0933155 -0.230918 -0.0744381 0.0919744 -0.208775 
-0.0832178 0.0907089 -0.186174 -0.0919821 0.0894755 -0.163028 -0.100696 0.0882064 -0.139259 
-0.109279 0.0868192 -0.114809 -0.117607 0.0852281 -0.089655 -0.125513 0.0833559 -0.0638132 
-0.132794 0.0811444 -0.0373473 -0.13923 0.078562 -0.0103674 -0.144599 0.0756076 0.0169736 
-0.148695 0.07231 0.0444885 -0.151351 0.0687241 0.0719675 -0.152455 0.0649232 0.0991929 
-0.151962 0.0609891 0.125954 -0.149899 0.0570025 0.152062 -0.14637 0.0530332 0.177365 
-0.141541 0.0491337 0.201753 -0.135632 0.0453349 0.225169 -0.128894 0.0416462 0.247604 
-0.121588 0.0380592 0.269099 -0.113963 0.0345538 0.289733 -0.106233 0.0311065 0.309614 
-0.0985639 0.0276996 0.328868 -0.0910618 0.0243291 0.34762 -0.0837704 0.0210104 0.365989 
-0.0766754 0.0177811 0.384072 -0.0697155 0.0147005 0.40194 -0.0627985 0.0118447 0.419633 
-0.0558195 0.00929979 0.437159 -0.0486803 0.00715183 0.454502 -0.0413065 0.00547702 0.47162 
-0.0336599 0.00433194 0.488462 -0.0257458 0.00374602 0.504967 -0.0176134 0.00371679 0.521082 
-0.00935067 0.0042088 0.536762 -0.00107262 0.00515622 0.551974 0.00709255 0.00646867 0.566705 
0.0150197 0.0080396 0.580957 0.0226017 0.00975593 0.594744 0.0297615 0.0115078 0.608091 
0.0364596 0.0131971 0.621022 0.0426954 0.0147437 0.633559 0.0485034 0.0160891 0.645713 
0.0539433 0.0171962 0.657483 0.0590877 0.0180478 0.668848 0.0640063 0.018641 0.679771 
0.0687523 0.0189817 0.690199 0.0733507 0.0190787 0.700067 0.0777905 0.0189389 0.709302 
0.0820239 0.0185637 0.717833 0.0859706 0.0179485 0.725594 0.0895279 0.0170846 0.732532 
0.0925853 0.0159634 0.738614 0.0950412 0.0145812 0.74383 0.0968197 0.0129462 0.748193 
0.0978853 0.0110833 0.751743 0.0982523 0.00903831 0.754544 0.097989 0.00687901 0.756676 
0.0972146 0.00469372 0.758237 0.0960893 0.00258644 0.759331 0.0947991 0.000669447 0.760062 
0.0935364 -0.00094601 0.760527 0.0924789 -0.00215983 0.760811 0.0917703 -0.00289266 0.760979 
0.0915037 -0.00309384 0.761073 
LINES 2 100
OFFSETS vtktypeint64
0 100 
CONNECTIVITY vtktypeint64
0 1 2 3 4 5 6 7 8 
9 10 11 12 13 14 15 16 17 
18 19 20 21 22 23 24 25 26 
27 28 29 30 31 32 33 34 35 
36 37 38 39 40 41 42 43 44 
45 46 47 48 49 50 51 52 53 
54 55 56 57 58 59 60 61 62 
63 64 65 66 67 68 69 70 71 
72 73 74 75 76 77 78 79 80 
81 82 83 84 85 86 87 88 89 
90 91 92 93 94 95 96 97 98 
99 
POINT_DATA 100
FIELD FieldData 3
_theta 1 100 double
0 0.031733259127 0.063466518254 0.095199777382 0.12693303651 0.15866629564 0.19039955476 0.22213281389 0.25386607302 
0.28559933214 0.31733259127 0.3490658504 0.38079910953 0.41253236865 0.44426562778 0.47599888691 0.50773214603 0.53946540516 
0.57119866429 0.60293192342 0.63466518254 0.66639844167 0.6981317008 0.72986495992 0.76159821905 0.79333147818 0.82506473731 
0.85679799643 0.88853125556 0.92026451469 0.95199777382 0.98373103294 1.0154642921 1.0471975512 1.0789308103 1.1106640695 
1.1423973286 1.1741305877 1.2058638468 1.237597106 1.2693303651 1.3010636242 1.3327968833 1.3645301425 1.3962634016 
1.4279966607 1.4597299198 1.491463179 1.5231964381 1.5549296972 1.5866629564 1.6183962155 1.6501294746 1.6818627337 
1.7135959929 1.745329252 1.7770625111 1.8087957702 1.8405290294 1.8722622885 1.9039955476 1.9357288068 1.9674620659 
1.999195325 2.0309285841 2.0626618433 2.0943951024 2.1261283615 2.1578616206 2.1895948798 2.2213281389 2.253061398 
2.2847946572 2.3165279163 2.3482611754 2.3799944345 2.4117276937 2.4434609528 2.4751942119 2.506927471 2.5386607302 
2.5703939893 2.6021272484 2.6338605076 2.6655937667 2.6973270258 2.7290602849 2.7607935441 2.7925268032 2.8242600623 
2.8559933214 2.8877265806 2.9194598397 2.9511930988 2.982926358 3.0146596171 3.0463928762 3.0781261353 3.1098593945 
3.1415926536 
_radius 1 100 double
4.2841699745e-16 0.01328714317 0.026463581899 0.039430061689 0.05210172122 0.064411344635 0.076308832063 0.087756933016 0.098724204548 
0.10917694209 0.11907223344 0.12835412285 0.13695413346 0.14479629809 0.15180576386 0.15791930774 0.16309587431 0.16732544345 
0.17063495889 0.17309051522 0.1747954281 0.17588421916 0.1765129941 0.17684717598 0.17704795025 0.17725891166 0.17759421939 
0.17812920784 0.17889411046 0.17987147573 0.1809979153 0.18217077311 0.18325989325 0.18412386189 0.18462915666 0.18466991794 
0.18418577482 0.18317529195 0.18170299122 0.17989841266 0.17794633045 0.17606826023 0.1744971496 0.17344970511 0.17310302904 
0.17358154511 0.1749552313 0.17724412488 0.18042220872 0.18441735729 0.18910933023 0.19433070557 0.19987479593 0.20551139309 
0.21100796097 0.21615213663 0.22077130718 0.22474608611 0.22801609482 0.23057806953 0.23247759358 0.23379648483 0.2346380686 
0.23511242937 0.23532342664 0.2353587753 0.23528376688 0.23513836632 0.23493681794 0.23466884841 0.23430200022 0.23378514585 
0.23305340152 0.23203437153 0.23065511605 0.22884876025 0.2265594833 0.22374482792 0.22037482581 0.21642822562 0.21188693304 
0.20673036113 0.20093150549 0.19445610985 0.18726538626 0.17932168013 0.17059557651 0.16107252518 0.15075725164 0.13967493709 
0.12786913755 0.11539733799 0.10232561265 0.088723922343 0.074663133893 0.060214086081 0.045448257969 0.030439113402 0.015263148241 
2.4715664259e-16 
_area 1 100 double
0 0.00048044437976 0.001911496381 0.0042624156837 0.0074826213461 0.011503406282 0.016240835579 0.02159888479 0.027471062292 
0.033738973274 0.040267845534 0.046901429656 0.05346051582 0.059749048493 0.065569141859 0.07074260743 0.075133942706 0.078669203018 
0.081346416179 0.083235082076 0.08446417914 0.085200312246 0.085620457173 0.085885913519 0.086123698762 0.086418849149 0.086817630944 
0.087337977485 0.087979814324 0.088727737371 0.089544891931 0.090365269884 0.091093509734 0.09161631766 0.091823762375 0.091635132902 
0.091023767785 0.090037205851 0.088808946742 0.087548751965 0.08648840282 0.085807945899 0.085612019622 0.085949168811 0.086837431667 
0.088290403896 0.090338620317 0.093037736485 0.096461471523 0.10068536964 0.1057614599 0.11167294226 0.11827741976 0.12528856897 
0.13232840008 0.13901400421 0.14502856033 0.15015781982 0.1542946766 0.1574230896 0.15959578506 0.1609157782 0.16152204367 
0.161573685 0.16122910354 0.16062231519 0.15984315798 0.15893177528 0.15789258175 0.15671393798 0.15537508793 0.15384075814 
0.15205672475 0.14995524539 0.14746809951 0.14453792198 0.1411213598 0.13718650517 0.13271059957 0.12767963077 0.12208767496 
0.11593517226 0.10922811373 0.10198064963 0.09422180295 0.086004465362 0.077413272737 0.068568058187 0.059621119814 0.050748642553 
0.042138318469 0.033975924226 0.026433316797 0.019659436905 0.013775004475 0.0088709503466 0.0050102204765 0.0022322226863 0.00055876729391 
2.8744906791e-17 
