# vtk DataFile Version 5.1
vtk output
ASCII
DATASET POLYDATA
POINTS 100 float
0.103504 -0.0140657 -0.646883 0.103527 -0.01399 -0.647091 0.103532 -0.0139152 -0.647636 
0.103518 -0.0138074 -0.648404 0.103487 -0.0136145 -0.649215 0.103435 -0.0132715 -0.649848 
0.103354 -0.0127062 -0.650053 0.103223 -0.0118473 -0.649587 0.103013 -0.0106303 -0.648224 
0.102677 -0.00900405 -0.645786 0.102153 -0.00693445 -0.642147 0.101363 -0.0044074 -0.637245 
0.100216 -0.00142912 -0.631078 0.0986102 0.00197518 -0.623698 0.0964393 0.00576414 -0.6152 
0.0936009 0.00988427 -0.605701 0.0900039 0.0142743 -0.595326 0.0855775 0.0188698 -0.584188 
0.0802791 0.0236064 -0.572381 0.0741012 0.0284235 -0.559964 0.0670756 0.033265 -0.546963 
0.0592743 0.0380808 -0.533371 0.0508073 0.0428257 -0.519157 0.0418163 0.0474582 -0.504276 
0.0324652 0.0519397 -0.488679 0.0229276 0.0562323 -0.47233 0.0133738 0.060298 -0.455208 
0.00395634 0.0640984 -0.437323 -0.00520181 0.0675948 -0.418708 -0.0140166 0.0707492 -0.399425 
-0.0224481 0.0735261 -0.379552 -0.0305001 0.0758939 -0.359177 -0.0382149 0.077827 -0.338387 
-0.0456627 0.0793072 -0.317257 -0.0529271 0.0803245 -0.295839 -0.0600878 0.0808775 -0.274163 
-0.0672032 0.0809723 -0.252232 -0.0742945 0.0806222 -0.230023 -0.0813331 0.0798451 -0.207502 
-0.0882341 0.0786629 -0.184626 -0.0948562 0.0770991 -0.161359 -0.101009 0.0751787 -0.137682 
-0.106465 0.0729275 -0.113605 -0.110983 0.0703728 -0.089168 -0.114326 0.0675448 -0.0644474 
-0.116291 0.064478 -0.0395515 -0.116726 0.0612134 -0.0146137 -0.115551 0.0577997 0.0102178 
-0.11277 0.0542946 0.0347922 -0.108472 0.0507645 0.0589695 -0.102828 0.0472833 0.0826318 
-0.0960789 0.0439295 0.105692 -0.0885098 0.0407826 0.1281 -0.0804286 0.0379188 0.149841 
-0.072137 0.0354056 0.170935 -0.0639034 0.033297 0.191426 -0.0559408 0.0316302 0.211374 
-0.0483905 0.030422 0.230844 -0.0413138 0.0296688 0.249891 -0.0346935 0.0293464 0.268557 
-0.0284436 0.0294138 0.286859 -0.0224266 0.0298166 0.304791 -0.0164761 0.0304928 0.322325 
-0.0104212 0.0313784 0.339415 -0.00411113 0.0324128 0.356007 0.00256428 0.0335438 0.37205 
0.00966033 0.0347302 0.387504 0.0171704 0.0359434 0.402348 0.0250273 0.0371668 0.416589 
0.0331124 0.0383934 0.430264 0.0412712 0.039622 0.443435 0.0493324 0.0408526 0.456188 
0.0571294 0.042082 0.468625 0.0645192 0.0432999 0.480849 0.0713981 0.0444859 0.492959 
0.0777107 0.045609 0.505035 0.0834524 0.0466288 0.517131 0.0886639 0.0474981 0.529272 
0.0934205 0.0481678 0.541449 0.0978157 0.0485923 0.553618 0.101943 0.0487357 0.565713 
0.105879 0.0485765 0.577643 0.109669 0.0481121 0.589309 0.113316 0.0473602 0.600606 
0.11678 0.0463594 0.611439 0.119985 0.0451656 0.621721 0.122823 0.0438481 0.631385 
0.125179 0.0424828 0.640379 0.126944 0.041145 0.648672 0.128035 0.0399028 0.656247 
0.128416 0.0388099 0.663096 0.128104 0.037902 0.669221 0.127175 0.0371941 0.674626 
0.125766 0.0366804 0.679312 0.124055 0.0363377 0.683282 0.122252 0.0361295 0.68653 
0.120573 0.0360127 0.68905 0.119219 0.0359446 0.690836 0.118351 0.0358892 0.69188 
0.118073 0.0358226 0.692178 
LINES 2 100
OFFSETS vtktypeint64
0 100 
CONNECTIVITY vtktypeint64
0 1 2 3 4 5 6 7 8 
9 10 11 12 13 14 15 16 17 
18 19 20 21 22 23 24 25 26 
27 28 29 30 31 32 33 34 35 
36 37 38 39 40 41 42 43 44 
45 46 47 48 49 50 51 52 53 
54 55 56 57 58 59 60 61 62 
63 64 65 66 67 68 69 70 71 
72 73 74 75 76 77 78 79 80 
81 82 83 84 85 86 87 88 89 
90 91 92 93 94 95 96 97 98 
99 
POINT_DATA 100
FIELD FieldData 3
_theta 1 100 double
0 0.031733259127 0.063466518254 0.095199777382 0.12693303651 0.15866629564 0.19039955476 0.22213281389 0.25386607302 
0.28559933214 0.31733259127 0.3490658504 0.38079910953 0.41253236865 0.44426562778 0.47599888691 0.50773214603 0.53946540516 
0.57119866429 0.60293192342 0.63466518254 0.66639844167 0.6981317008 0.72986495992 0.76159821905 0.79333147818 0.82506473731 
0.85679799643 0.88853125556 0.92026451469 0.95199777382 0.98373103294 1.0154642921 1.0471975512 1.0789308103 1.1106640695 
1.1423973286 1.1741305877 1.2058638468 1.237597106 1.2693303651 1.3010636242 1.3327968833 1.3645301425 1.3962634016 
1.4279966607 1.4597299198 1.491463179 1.5231964381 1.5549296972 1.5866629564 1.6183962155 1.6501294746 1.6818627337 
1.7135959929 1.745329252 1.7770625111 1.8087957702 1.8405290294 1.8722622885 1.9039955476 1.9357288068 1.9674620659 
1.999195325 2.0309285841 2.0626618433 2.0943951024 2.1261283615 2.1578616206 2.1895948798 2.2213281389 2.253061398 
2.2847946572 2.3165279163 2.3482611754 2.3799944345 2.4117276937 2.4434609528 2.4751942119 2.506927471 2.5386607302 
2.5703939893 2.6021272484 2.6338605076 2.6655937667 2.6973270258 2.7290602849 2.7607935441 2.7925268032 2.8242600623 
2.8559933214 2.8877265806 2.9194598397 2.9511930988 2.982926358 3.0146596171 3.0463928762 3.0781261353 3.1098593945 
3.1415926536 
_radius 1 100 double
4.4421116585e-16 0.016660004217 0.033124136064 0.049208005701 0.064745639547 0.079597124346 0.093654234091 0.10684332032 0.11912504758 
0.13049099311 0.14095754855 0.15055787066 0.15933284843 0.16732225493 0.17455743503 0.18105690332 0.18682588546 0.19186004958 
0.19615263018 0.19970324875 0.20252635765 0.20465749181 0.20615621814 0.20710547716 0.20760761127 0.20777764554 0.2077344126 
0.20759010763 0.20743904702 0.20734688368 0.2073421556 0.20741241291 0.20750683053 0.20754600315 0.20743787061 0.20709710544 
0.20646437638 0.2055218158 0.20430156416 0.20288529023 0.201394237 0.19997178483 0.19876321987 0.19789872534 0.19748389792 
0.1975977962 0.19829475905 0.19960571471 0.201537014 0.20406753432 0.20714615726 0.21069160569 0.21459587034 0.21873168688 
0.2229636292 0.22716116414 0.23121099072 0.23502595503 0.2385488655 0.24175098907 0.24462622798 0.24718266781 0.24943335016 
0.25138786673 0.25304584538 0.25439279534 0.2553983081 0.25601641002 0.25618790882 0.25584469719 0.25491595208 0.25333587557 
0.25105211788 0.24803352737 0.24427565553 0.23980267554 0.2346650326 0.22893304146 0.22268751633 0.21600912605 0.20896837469 
0.20161788184 0.19398803931 0.18608630688 0.17789960219 0.16939868251 0.16054326808 0.15128692273 0.14158122875 0.13137932672 
0.12063922464 0.10932732148 0.097422378175 0.084919826032 0.071835962304 0.058211340359 0.044112574651 0.02963187534 0.014883907426 
3.43678735e-16 
_area 1 100 double
0 0.00061565598674 0.0024680322191 0.0055629012326 0.0098805569881 0.01534758045 0.021819030568 0.029077906301 0.036851544389 
0.044839405792 0.052744335571 0.060299513905 0.067285432542 0.073534850009 0.078927940563 0.083383243963 0.086850957228 0.089313048898 
0.09079063469 0.091354956063 0.091135976148 0.090323105197 0.089155697376 0.087904679164 0.086847268528 0.086234060515 0.086249864196 
0.086970187919 0.088328692726 0.090154570551 0.092246294509 0.094405780381 0.096453037024 0.09824853578 0.099721528498 0.10089032882 
0.10185113305 0.10272581426 0.10361378847 0.10458139239 0.10566647968 0.10688311833 0.10822342958 0.10965704738 0.11113961424 
0.11263837386 0.11416667489 0.11580879758 0.11772323708 0.12011259021 0.12316258567 0.12698885576 0.13161405108 0.1369706737 
0.14291354574 0.14923700715 0.15570096601 0.16206964375 0.16815692146 0.17380900046 0.1788296834 0.18308957725 0.18653431795 
0.18914356919 0.19091233411 0.19183852947 0.19191845934 0.19114789857 0.18952523063 0.18705491181 0.18374960158 0.17963017799 
0.17472572614 0.16907673972 0.16274205446 0.1558059344 0.14837991977 0.14059578727 0.13259010267 0.12448505984 0.11637233253 
0.10830552079 0.10030318037 0.092360253151 0.084463031642 0.076602706025 0.068784463965 0.061031461954 0.053384647556 0.045900219845 
0.038646686889 0.031703092127 0.025159035462 0.019115843431 0.013687168707 0.0089969380343 0.0051731232953 0.0023371252698 0.00059022461026 
6.1155556874e-17 
