# vtk DataFile Version 5.1
vtk output
ASCII
DATASET POLYDATA
POINTS 100 float
0.0452833 -0.0354682 -0.688445 0.0453179 -0.0354231 -0.688397 0.0454282 -0.035113 -0.688266 
0.0456063 -0.0345316 -0.687966 0.0458381 -0.0336689 -0.687365 0.0461021 -0.0325126 -0.686297 
0.0463681 -0.0310486 -0.684585 0.0465961 -0.0292629 -0.682054 0.0467358 -0.0271422 -0.678553 
0.0467263 -0.0246758 -0.67397 0.0464975 -0.0218563 -0.668237 0.0459723 -0.0186806 -0.661341 
0.0450694 -0.0151503 -0.653315 0.0437084 -0.0112724 -0.644234 0.0418145 -0.00705916 -0.634203 
0.0393243 -0.00252829 -0.623338 0.0361913 0.00229752 -0.611757 0.0323911 0.00739055 -0.599558 
0.0279252 0.0127182 -0.586816 0.0228238 0.0182433 -0.573569 0.0171458 0.0239234 -0.559824 
0.0109773 0.0297112 -0.545556 0.00442781 0.0355542 -0.53072 -0.00237602 0.0413943 -0.515259 
-0.00929789 0.0471682 -0.499118 -0.0162006 0.0528075 -0.482259 -0.0229553 0.0582401 -0.464666 
-0.0294497 0.0633912 -0.446353 -0.0355957 0.0681858 -0.427367 -0.0413347 0.0725513 -0.407779 
-0.0466399 0.0764208 -0.387683 -0.0515166 0.0797369 -0.367177 -0.0559983 0.0824549 -0.346356 
-0.0601414 0.0845463 -0.325296 -0.0640164 0.0860015 -0.304043 -0.0676983 0.0868311 -0.28261 
-0.0712567 0.0870665 -0.260967 -0.0747457 0.0867584 -0.239053 -0.0781959 0.0859746 -0.216777 
-0.0816083 0.0847952 -0.194034 -0.0849516 0.0833079 -0.17072 -0.0881622 0.0816017 -0.146749 
-0.091148 0.0797607 -0.122066 -0.0937947 0.0778582 -0.0966618 -0.0959746 0.075952 -0.0705803 
-0.0975567 0.0740806 -0.0439213 -0.0984167 0.0722621 -0.0168371 -0.0984473 0.0704947 0.0104766 
-0.0975657 0.0687595 0.0377938 -0.0957195 0.0670251 0.0648756 -0.0928896 0.0652537 0.0914878 
-0.0890896 0.0634083 0.117419 -0.0843635 0.0614594 0.142494 -0.0787798 0.0593913 0.166587 
-0.0724248 0.057207 0.189628 -0.0653953 0.0549306 0.2116 -0.0577911 0.0526076 0.232538 
-0.0497084 0.0503027 0.25252 -0.0412354 0.0480944 0.271651 -0.0324492 0.0460684 0.290056 
-0.0234154 0.0443094 0.30786 -0.0141892 0.0428927 0.325182 -0.0048183 0.0418758 0.34212 
0.00465372 0.0412923 0.358748 0.0141834 0.0411474 0.375117 0.0237241 0.0414162 0.39125 
0.0332244 0.0420457 0.407153 0.0426265 0.042959 0.422817 0.0518681 0.0440622 0.438227 
0.0608842 0.0452533 0.453373 0.069611 0.0464315 0.468247 0.0779897 0.0475071 0.482854 
0.085971 0.0484088 0.49721 0.0935181 0.0490901 0.511339 0.100609 0.0495325 0.525269 
0.107237 0.0497452 0.539028 0.113408 0.0497622 0.552634 0.11914 0.0496363 0.566091 
0.124456 0.0494317 0.579381 0.129382 0.0492149 0.592464 0.133939 0.0490462 0.605274 
0.138138 0.0489719 0.617723 0.141983 0.0490186 0.629704 0.145462 0.0491904 0.6411 
0.148556 0.0494688 0.651789 0.151234 0.0498159 0.661659 0.153467 0.0501798 0.670611 
0.155227 0.050502 0.678571 0.156498 0.050726 0.685497 0.157281 0.0508048 0.69138 
0.157596 0.0507085 0.696246 0.15749 0.0504284 0.700155 0.15703 0.0499795 0.703196 
0.156306 0.0493995 0.705481 0.155422 0.0487447 0.707134 0.154489 0.0480836 0.708282 
0.153616 0.0474895 0.709047 0.152901 0.047031 0.709535 0.152422 0.0467646 0.709826 
0.152227 0.0467271 0.709974 
LINES 2 100
OFFSETS vtktypeint64
0 100 
CONNECTIVITY vtktypeint64
0 1 2 3 4 5 6 7 8 
9 10 11 12 13 14 15 16 17 
18 19 20 21 22 23 24 25 26 
27 28 29 30 31 32 33 34 35 
36 37 38 39 40 41 42 43 44 
45 46 47 48 49 50 51 52 53 
54 55 56 57 58 59 60 61 62 
63 64 65 66 67 68 69 70 71 
72 73 74 75 76 77 78 79 80 
81 82 83 84 85 86 87 88 89 
90 91 92 93 94 95 96 97 98 
99 
POINT_DATA 100
FIELD FieldData 3
_theta 1 100 double
0 0.031733259127 0.063466518254 0.095199777382 0.12693303651 0.15866629564 0.19039955476 0.22213281389 0.25386607302 
0.28559933214 0.31733259127 0.3490658504 0.38079910953 0.41253236865 0.44426562778 0.47599888691 0.50773214603 0.53946540516 
0.57119866429 0.60293192342 0.63466518254 0.66639844167 0.6981317008 0.72986495992 0.76159821905 0.79333147818 0.82506473731 
0.85679799643 0.88853125556 0.92026451469 0.95199777382 0.98373103294 1.0154642921 1.0471975512 1.0789308103 1.1106640695 
1.1423973286 1.1741305877 1.2058638468 1.237597106 1.2693303651 1.3010636242 1.3327968833 1.3645301425 1.3962634016 
1.4279966607 1.4597299198 1.491463179 1.5231964381 1.5549296972 1.5866629564 1.6183962155 1.6501294746 1.6818627337 
1.7135959929 1.745329252 1.7770625111 1.8087957702 1.8405290294 1.8722622885 1.9039955476 1.9357288068 1.9674620659 
1.999195325 2.0309285841 2.0626618433 2.0943951024 2.1261283615 2.1578616206 2.1895948798 2.2213281389 2.253061398 
2.2847946572 2.3165279163 2.3482611754 2.3799944345 2.4117276937 2.4434609528 2.4751942119 2.506927471 2.5386607302 
2.5703939893 2.6021272484 2.6338605076 2.6655937667 2.6973270258 2.7290602849 2.7607935441 2.7925268032 2.8242600623 
2.8559933214 2.8877265806 2.9194598397 2.9511930988 2.982926358 3.0146596171 3.0463928762 3.0781261353 3.1098593945 
3.1415926536 
_radius 1 100 double
1.2138106967e-16 0.014060694693 0.028026366381 0.041796444331 0.055270724047 0.068349805288 0.08093556455 0.092931816952 0.10424537079 
0.11478767971 0.12447725309 0.13324289076 0.14102765941 0.14779333533 0.15352484128 0.15823405707 0.16196232787 0.16478104886 
0.1667898682 0.16811231682 0.16888903548 0.16926918107 0.16940094899 0.16942231085 0.16945296897 0.16958822953 0.16989510316 
0.17041052219 0.17114119503 0.17206451116 0.17313025854 0.17426353649 0.17536959935 0.17634108161 0.17706735605 0.17744526685 
0.17739046328 0.17684861123 0.17580534117 0.17429321163 0.17239393243 0.17023467437 0.16797815528 0.16580731041 0.16390684402 
0.16244536819 0.16156202539 0.1613597585 0.16190458533 0.16322811998 0.16533015786 0.16817914255 0.1717100684 0.1758213137 
0.1803734068 0.18519284791 0.19008239659 0.19483660522 0.19925948831 0.20318094632 0.20646953718 0.20904052131 0.21085914126 
0.2119396094 0.21234035699 0.21215601456 0.21150661327 0.2105247278 0.20934163734 0.20807388004 0.20681167853 0.20561057331 
0.20448723374 0.20341984655 0.20235274745 0.2012042 0.19987570371 0.19826116601 0.19625470515 0.19375651697 0.19067684667 
0.18693848098 0.18247828846 0.17724823622 0.17121609077 0.1643657643 0.15669709061 0.14822477715 0.13897640869 0.12898964206 
0.11830903771 0.10698319529 0.095062882278 0.082600618387 0.069651755045 0.056276604386 0.042542801237 0.028526962833 0.014314893015 
8.3513261398e-16 
_area 1 100 double
0 0.00051576382583 0.002055244773 0.004593500206 0.0080844090725 0.012455386597 0.017602545375 0.023387866251 0.029639406939 
0.036154891315 0.042708523037 0.049060768466 0.054971062547 0.060213504898 0.064595171959 0.067975520962 0.070283876089 0.071530965503 
0.071810734591 0.071290483624 0.07019013295 0.068753673293 0.067216462579 0.065772612818 0.064552914641 0.063633214666 0.063082334655 
0.062970210671 0.06327768742 0.063950901443 0.064888816307 0.066021528831 0.067247636909 0.068443256676 0.06948253498 0.070261251468 
0.070713377539 0.070814345452 0.070577731699 0.070053877806 0.069330527867 0.068532972819 0.067821019354 0.067373758354 0.067351085685 
0.067849336157 0.068926222502 0.070600700107 0.07285790362 0.07565733899 0.078946354788 0.082684631095 0.086874312118 0.091571200302 
0.096832217542 0.10260744054 0.10869848867 0.11481096644 0.12061460411 0.1257851897 0.13003836874 0.13315833925 0.13501960041 
0.13559961237 0.13498006222 0.13333455006 0.13090246376 0.12795266852 0.1247448559 0.12149814105 0.11837324417 0.11546797264 
0.11282108528 0.11041982558 0.10820937722 0.10610449947 0.10400278794 0.10179683642 0.099382134101 0.096660117188 0.093539406259 
0.089939459839 0.08579833039 0.081082358337 0.075793928776 0.06997456056 0.063702771364 0.057087689069 0.050259993506 0.043361996436 
0.036538842712 0.029932646729 0.023680294424 0.017913809451 0.012760878696 0.008343428953 0.0047736127991 0.002147953276 0.00054102471178 
7.7875144387e-17 
