# vtk DataFile Version 5.1
vtk output
ASCII
DATASET POLYDATA
POINTS 100 float
0.13732 0.0221134 0.655331 0.137149 0.0222736 0.65528 0.136723 0.0226223 0.655006 
0.136051 0.0231566 0.654463 0.13515 0.0238718 0.653581 0.134036 0.0247593 0.652269 
0.132726 0.0258048 0.650426 0.131233 0.0269869 0.647946 0.129563 0.0282756 0.64473 
0.12771 0.0296328 0.640691 0.125659 0.0310126 0.635765 0.123381 0.0323643 0.629913 
0.120839 0.033635 0.623125 0.117984 0.0347737 0.615421 0.114766 0.0357351 0.60685 
0.111132 0.0364831 0.597487 0.107034 0.0369935 0.587425 0.102436 0.0372558 0.576769 
0.0973136 0.0372731 0.565631 0.0916611 0.0370612 0.55412 0.0854918 0.0366461 0.542332 
0.0788393 0.0360616 0.530351 0.0717549 0.0353456 0.518239 0.0643049 0.0345379 0.506033 
0.0565658 0.0336777 0.493744 0.0486184 0.0328026 0.481361 0.0405422 0.0319489 0.468846 
0.0324086 0.0311526 0.456144 0.0242768 0.0304506 0.443184 0.01619 0.0298834 0.429884 
0.00817356 0.0294955 0.416159 0.000236064 0.0293361 0.401923 -0.00762837 0.0294584 0.387095 
-0.0154352 0.0299162 0.371607 -0.0232031 0.03076 0.355401 -0.0309473 0.0320316 0.338437 
-0.0386723 0.0337579 0.320692 -0.0463652 0.0359455 0.30216 -0.0539914 0.0385757 0.282856 
-0.0614915 0.0416025 0.26281 -0.0687814 0.0449527 0.242066 -0.0757548 0.0485292 0.220685 
-0.0822888 0.0522173 0.198736 -0.0882507 0.0558937 0.176296 -0.093508 0.0594375 0.153449 
-0.0979375 0.0627407 0.130281 -0.101435 0.0657196 0.106879 -0.103923 0.0683225 0.0833278 
-0.10536 0.0705353 0.0597087 -0.105737 0.0723822 0.0360977 -0.105087 0.0739229 0.012564 
-0.103475 0.0752445 -0.0108304 -0.100995 0.0764508 -0.034032 -0.0977639 0.077649 -0.0569959 
-0.0939079 0.0789359 -0.079686 -0.0895554 0.0803849 -0.102075 -0.0848258 0.0820356 -0.124144 
-0.0798222 0.0838877 -0.145883 -0.0746246 0.085899 -0.167288 -0.0692874 0.0879894 -0.188362 
-0.0638389 0.0900486 -0.209113 -0.0582843 0.0919481 -0.229553 -0.0526114 0.0935549 -0.249695 
-0.046798 0.0947464 -0.269554 -0.0408203 0.0954223 -0.28914 -0.0346616 0.0955153 -0.308462 
-0.02832 0.0949958 -0.327522 -0.0218141 0.0938723 -0.346314 -0.0151865 0.0921867 -0.364823 
-0.00850404 0.0900048 -0.383028 -0.00185559 0.0874045 -0.400894 0.00465356 0.0844619 -0.418384 
0.010909 0.0812388 -0.435449 0.0167963 0.0777722 -0.452041 0.0222106 0.0740685 -0.468108 
0.0270656 0.0701022 -0.483605 0.0313016 0.0658209 -0.498489 0.0348911 0.0611545 -0.51273 
0.037842 0.0560287 -0.52631 0.0401976 0.0503807 -0.539226 0.0420336 0.0441742 -0.551489 
0.0434527 0.0374132 -0.563125 0.0445763 0.0301502 -0.57417 0.0455355 0.0224901 -0.584671 
0.0464601 0.0145865 -0.594678 0.0474696 0.00663237 -0.60424 0.0486631 -0.0011551 -0.613398 
0.0501125 -0.00855352 -0.622181 0.0518567 -0.0153557 -0.630602 0.0538999 -0.0213894 -0.638653 
0.0562107 -0.0265334 -0.646304 0.0587257 -0.0307283 -0.653504 0.0613541 -0.0339808 -0.660183 
0.0639854 -0.0363595 -0.666253 0.0664974 -0.0379844 -0.671619 0.0687656 -0.0390105 -0.676183 
0.0706728 -0.0396064 -0.679848 0.0721171 -0.0399327 -0.682534 0.07302 -0.0401208 -0.684173 
0.0733317 -0.0402561 -0.684725 
LINES 2 100
OFFSETS vtktypeint64
0 100 
CONNECTIVITY vtktypeint64
0 1 2 3 4 5 6 7 8 
9 10 11 12 13 14 15 16 17 
18 19 20 21 22 23 24 25 26 
27 28 29 30 31 32 33 34 35 
36 37 38 39 40 41 42 43 44 
45 46 47 48 49 50 51 52 53 
54 55 56 57 58 59 60 61 62 
63 64 65 66 67 68 69 70 71 
72 73 74 75 76 77 78 79 80 
81 82 83 84 85 86 87 88 89 
90 91 92 93 94 95 96 97 98 
99 
POINT_DATA 100
FIELD FieldData 3
_theta 1 100 double
0 0.031733259127 0.063466518254 0.095199777382 0.12693303651 0.15866629564 0.19039955476 0.22213281389 0.25386607302 
0.28559933214 0.31733259127 0.3490658504 0.38079910953 0.41253236865 0.44426562778 0.47599888691 0.50773214603 0.53946540516 
0.57119866429 0.60293192342 0.63466518254 0.66639844167 0.6981317008 0.72986495992 0.76159821905 0.79333147818 0.82506473731 
0.85679799643 0.88853125556 0.92026451469 0.95199777382 0.98373103294 1.0154642921 1.0471975512 1.0789308103 1.1106640695 
1.1423973286 1.1741305877 1.2058638468 1.237597106 1.2693303651 1.3010636242 1.3327968833 1.3645301425 1.3962634016 
1.4279966607 1.4597299198 1.491463179 1.5231964381 1.5549296972 1.5866629564 1.6183962155 1.6501294746 1.6818627337 
1.7135959929 1.745329252 1.7770625111 1.8087957702 1.8405290294 1.8722622885 1.9039955476 1.9357288068 1.9674620659 
1.999195325 2.0309285841 2.0626618433 2.0943951024 2.1261283615 2.1578616206 2.1895948798 2.2213281389 2.253061398 
2.2847946572 2.3165279163 2.3482611754 2.3799944345 2.4117276937 2.4434609528 2.4751942119 2.506927471 2.5386607302 
2.5703939893 2.6021272484 2.6338605076 2.6655937667 2.6973270258 2.7290602849 2.7607935441 2.7925268032 2.8242600623 
2.8559933214 2.8877265806 2.9194598397 2.9511930988 2.982926358 3.0146596171 3.0463928762 3.0781261353 3.1098593945 
3.1415926536 
_radius 1 100 double
3.0562657329e-16 0.015232236337 0.030331561309 0.045172473102 0.059642165031 0.073644763101 0.087103351704 0.099959679581 0.11217182816 
0.12371047005 0.13455462097 0.14468796318 0.15409680036 0.16277033164 0.1707031449 0.17789888813 0.18437351208 0.19015667484 
0.19529077536 0.19982812724 0.20382736867 0.20735002202 0.21045746544 0.21320807316 0.21565426444 0.21783952235 0.2197957403 
0.22154130836 0.22308019509 0.22440208678 0.22548355268 0.22629021536 0.22677993221 0.22690696288 0.22662700175 0.22590283599 
0.22471027391 0.22304386522 0.22092179005 0.21838915223 0.21551886465 0.21240947345 0.20917968495 0.20595995794 0.20288213082 
0.20006851341 0.19762211488 0.19561960929 0.19410808428 0.1931055544 0.19260407159 0.19257368948 0.19296587615 0.19371597903 
0.19474540942 0.19596472627 0.197278498 0.19859192223 0.19981822643 0.200885361 0.20174062975 0.20235251623 0.20270968424 
0.20281764069 0.20269378258 0.20236161091 0.20184487931 0.20116238269 0.2003239923 0.1993284135 0.19816295891 0.19680535411 
0.19522722448 0.19339853285 0.19129199071 0.18888646491 0.18616866114 0.18313278915 0.17977837187 0.17610674227 0.17211701104 
0.16780234286 0.16314723573 0.15812620144 0.15270390407 0.14683654984 0.14047420384 0.13356372372 0.12605208843 0.11789000056 
0.10903571674 0.099459089123 0.089145763155 0.078101358649 0.066355273902 0.053963554576 0.04101015565 0.027605983566 0.013885365126 
6.7506479111e-16 
_area 1 100 double
0 0.00054323583422 0.0021527173438 0.0047708926377 0.0083113209184 0.012670015234 0.017736762049 0.023403874379 0.02957064393 
0.036142510303 0.043024831699 0.050113068212 0.057284474329 0.064398457223 0.071309746739 0.077891355054 0.084058738822 0.089785919438 
0.095107439891 0.10010519617 0.10488481477 0.10954959066 0.11417884026 0.11881304844 0.12344450186 0.12801376127 0.13241795682 
0.13653484218 0.14025363957 0.14349550947 0.14621184148 0.14836574612 0.14991764881 0.15082561646 0.15105261517 0.15057228309 
0.14937217855 0.1474565644 0.14485039607 0.14160424667 0.13779785062 0.13353969926 0.12896175966 0.12420955427 0.11942832198 
0.11475826732 0.11072192013 0.1072828842 0.10419924926 0.10132090871 0.098593882224 0.096018655596 0.09363665548 0.091494388277 
0.089622478198 0.088038744217 0.086780153937 0.085909410049 0.085384906177 0.085027185238 0.084694075767 0.084335320439 0.08388795789 
0.083305613955 0.082565464497 0.081666969541 0.080645421301 0.079573294658 0.07854858801 0.077839480303 0.077447567079 0.077229481339 
0.077154739002 0.077186239383 0.077265992684 0.077309901125 0.077221308234 0.076908509442 0.076297363352 0.075335886461 0.07399139701 
0.072243011797 0.070073207167 0.067461906932 0.06438529959 0.060819921453 0.056751056299 0.052183348306 0.047150854153 0.04172388923 
0.036011003449 0.030155843981 0.024329938931 0.018723113422 0.013533127778 0.0089553532508 0.0051724118647 0.0023433809045 0.00059270466323 
1.5259830398e-17 
