# vtk DataFile Version 5.1
vtk output
ASCII
DATASET POLYDATA
POINTS 100 float
0.134653 0.040576 0.676892 0.134527 0.0406218 0.676871 0.134254 0.0406394 0.676658 
0.133835 0.0406468 0.676204 0.133276 0.0406705 0.675432 0.132586 0.0407422 0.674239 
0.131775 0.0408945 0.672508 0.130855 0.0411562 0.67011 0.129837 0.0415478 0.666918 
0.128733 0.042078 0.662814 0.127547 0.042741 0.6577 0.126277 0.0435156 0.651504 
0.124908 0.0443655 0.644186 0.123412 0.0452417 0.635746 0.121742 0.0460858 0.626224 
0.119834 0.0468348 0.615698 0.117612 0.0474266 0.604282 0.114985 0.0478052 0.592114 
0.111858 0.0479261 0.579353 0.108139 0.0477606 0.566164 0.103745 0.0472988 0.552706 
0.0986166 0.0465513 0.53912 0.0927192 0.0455491 0.525525 0.0860533 0.0443418 0.512001 
0.0786563 0.0429944 0.498592 0.070602 0.0415826 0.4853 0.061997 0.040188 0.472093 
0.0529728 0.0388921 0.458903 0.0436761 0.037771 0.445641 0.0342566 0.0368901 0.432205 
0.0248548 0.0363006 0.418488 0.0155906 0.0360366 0.404388 0.00655482 0.0361134 0.389819 
-0.00219673 0.0365283 0.374712 -0.0106439 0.0372615 0.359023 -0.018799 0.0382794 0.342727 
-0.026699 0.0395378 0.325818 -0.034395 0.0409864 0.308305 -0.0419387 0.0425732 0.290204 
-0.0493689 0.0442488 0.271533 -0.0566999 0.0459699 0.252308 -0.063911 0.0477025 0.232536 
-0.0709419 0.0494237 0.21222 -0.0776919 0.0511225 0.191356 -0.0840248 0.0527995 0.169935 
-0.0897783 0.0544654 0.147955 -0.0947772 0.0561386 0.125421 -0.0988495 0.0578425 0.102351 
-0.101842 0.0596017 0.0787861 -0.103637 0.0614389 0.0547861 -0.104162 0.063371 0.0304347 
-0.103399 0.0654067 0.00583428 -0.101384 0.0675441 -0.0188988 -0.0982088 0.0697692 -0.0436419 
-0.0940069 0.0720554 -0.0682749 -0.0889432 0.0743642 -0.0926884 -0.0831971 0.0766466 -0.116792 
-0.0769464 0.0788447 -0.140519 -0.0703509 0.0808951 -0.163831 -0.0635391 0.0827312 -0.186713 
-0.056599 0.0842866 -0.209173 -0.0495742 0.0854983 -0.231236 -0.0424654 0.0863089 -0.25293 
-0.0352363 0.0866688 -0.274282 -0.0278251 0.0865378 -0.295306 -0.0201578 0.0858857 -0.315998 
-0.0121637 0.0846927 -0.33633 -0.00378911 0.0829487 -0.356251 0.00498945 0.0806525 -0.375689 
0.014157 0.077811 -0.394558 0.0236558 0.0744374 -0.41277 0.0333859 0.0705507 -0.430239 
0.0432105 0.0661745 -0.446902 0.0529658 0.0613366 -0.462717 0.0624732 0.0560686 -0.47768 
0.0715537 0.0504063 -0.491823 0.0800419 0.0443901 -0.505211 0.0877987 0.0380653 -0.517942 
0.0947221 0.031483 -0.530135 0.100753 0.0246999 -0.541915 0.105878 0.0177789 -0.553405 
0.11013 0.0107881 -0.564712 0.113578 0.00380003 -0.575911 0.116325 -0.00311028 -0.587043 
0.118493 -0.00986719 -0.598107 0.120213 -0.016397 -0.609061 0.121618 -0.0226304 -0.619826 
0.122825 -0.0285056 -0.630295 0.123934 -0.0339696 -0.640345 0.125019 -0.038981 -0.649843 
0.126126 -0.0435102 -0.658667 0.127273 -0.0475397 -0.666705 0.128451 -0.0510638 -0.673872 
0.129632 -0.0540864 -0.680107 0.130769 -0.0566191 -0.685375 0.131809 -0.0586785 -0.689665 
0.132694 -0.0602829 -0.692982 0.133373 -0.0614494 -0.695341 0.133804 -0.0621915 -0.696757 
0.133959 -0.0625169 -0.697244 
LINES 2 100
OFFSETS vtktypeint64
0 100 
CONNECTIVITY vtktypeint64
0 1 2 3 4 5 6 7 8 
9 10 11 12 13 14 15 16 17 
18 19 20 21 22 23 24 25 26 
27 28 29 30 31 32 33 34 35 
36 37 38 39 40 41 42 43 44 
45 46 47 48 49 50 51 52 53 
54 55 56 57 58 59 60 61 62 
63 64 65 66 67 68 69 70 71 
72 73 74 75 76 77 78 79 80 
81 82 83 84 85 86 87 88 89 
90 91 92 93 94 95 96 97 98 
99 
POINT_DATA 100
FIELD FieldData 3
_theta 1 100 double
0 0.031733259127 0.063466518254 0.095199777382 0.12693303651 0.15866629564 0.19039955476 0.22213281389 0.25386607302 
0.28559933214 0.31733259127 0.3490658504 0.38079910953 0.41253236865 0.44426562778 0.47599888691 0.50773214603 0.53946540516 
0.57119866429 0.60293192342 0.63466518254 0.66639844167 0.6981317008 0.72986495992 0.76159821905 0.79333147818 0.82506473731 
0.85679799643 0.88853125556 0.92026451469 0.95199777382 0.98373103294 1.0154642921 1.0471975512 1.0789308103 1.1106640695 
1.1423973286 1.1741305877 1.2058638468 1.237597106 1.2693303651 1.3010636242 1.3327968833 1.3645301425 1.3962634016 
1.4279966607 1.4597299198 1.491463179 1.5231964381 1.5549296972 1.5866629564 1.6183962155 1.6501294746 1.6818627337 
1.7135959929 1.745329252 1.7770625111 1.8087957702 1.8405290294 1.8722622885 1.9039955476 1.9357288068 1.9674620659 
1.999195325 2.0309285841 2.0626618433 2.0943951024 2.1261283615 2.1578616206 2.1895948798 2.2213281389 2.253061398 
2.2847946572 2.3165279163 2.3482611754 2.3799944345 2.4117276937 2.4434609528 2.4751942119 2.506927471 2.5386607302 
2.5703939893 2.6021272484 2.6338605076 2.6655937667 2.6973270258 2.7290602849 2.7607935441 2.7925268032 2.8242600623 
2.8559933214 2.8877265806 2.9194598397 2.9511930988 2.982926358 3.0146596171 3.0463928762 3.0781261353 3.1098593945 
3.1415926536 
_radius 1 100 double
1.33243025e-15 0.014658935088 0.029218573249 0.043582858253 0.05766473297 0.071388693844 0.084691466011 0.09752087793 0.10983361675 
0.1215931169 0.13276895823 0.14333848374 0.15329010663 0.16262671249 0.17136729486 0.17954552729 0.18720502833 0.19439223672 
0.20114873821 0.20750522524 0.21347881479 0.21907433393 0.22428886295 0.22911779976 0.23356029866 0.23762224951 0.24131590001 
0.24465645346 0.24765700355 0.25032356883 0.25265164077 0.25462482314 0.25621528831 0.25738532332 0.25808933303 0.25827615774 
0.25789211623 0.25688546477 0.25521278847 0.25284725752 0.24978791102 0.24606845336 0.24176368152 0.2369917147 0.23191068873 
0.2267094605 0.22159303724 0.21676469604 0.21240775163 0.20867023844 0.20565508365 0.20341672576 0.20196316733 0.20126105839 
0.2012413313 0.20180418533 0.20282404985 0.20415634316 0.20564756389 0.20714862349 0.20852937453 0.20969120322 0.21057483855 
0.21116179363 0.21146935584 0.21154027266 0.21142910134 0.21118761815 0.21085170263 0.21043168582 0.20990733101 0.20922763193 
0.20831480103 0.20707144114 0.2053899636 0.20316358308 0.20029830859 0.19672504426 0.19241035801 0.18736406503 0.18164179936 
0.17534122097 0.16859128171 0.1615349571 0.15430706323 0.14701022335 0.13969346716 0.13233864917 0.12485896178 0.11711096459 
0.1089177 0.10009748391 0.090492215333 0.079990414675 0.068542474691 0.056167625483 0.042953376324 0.029048764676 0.014652873822 
1.6390317662e-15 
_area 1 100 double
0 0.00053429792086 0.0021216073911 0.0047177579899 0.0082571735423 0.012662757243 0.017854900296 0.023754673582 0.030277407528 
0.037318738852 0.044742716265 0.052382336882 0.060055314234 0.067589880487 0.074852244363 0.081767800825 0.088330183869 0.094595324435 
0.10066218106 0.10664685985 0.11265903685 0.11878586013 0.12508175991 0.13156071787 0.13819248277 0.14490696 0.1516054401 
0.15817195944 0.16448090291 0.17040242244 0.17580837422 0.18057908977 0.1846090931 0.18780956421 0.19010667689 0.19143698425 
0.19174273145 0.19097059527 0.189076861 0.18604041234 0.181881464 0.17667960458 0.17058303126 0.16380396561 0.15660092349 
0.1492529721 0.1420321315 0.13517806338 0.12887706625 0.12324841095 0.11834397651 0.11416506892 0.11069050392 0.10789950798 
0.10576848903 0.10423757277 0.10318077007 0.10241462026 0.10174040357 0.10098910145 0.10004880699 0.098871871434 0.097465675918 
0.095873985945 0.094157482209 0.092380907509 0.090610401703 0.088921544025 0.08741077759 0.086196750394 0.085400736899 0.085104339184 
0.085313696668 0.085941371814 0.086780711926 0.087534599962 0.087899861615 0.087626927487 0.086544151571 0.084565977109 0.081693647402 
0.078010054691 0.073666405069 0.068857407644 0.06378629775 0.058627663428 0.053498990094 0.048449313025 0.043467215462 0.038504176931 
0.033505995736 0.028444814486 0.023345218104 0.018298943657 0.013464631165 0.0090523196788 0.0052962289674 0.0024221273082 0.00061610920008 
2.7755575616e-17 
