# vtk DataFile Version 5.1
vtk output
ASCII
DATASET POLYDATA
POINTS 100 float
0.0169841 -0.030676 -0.642139 0.0170703 -0.0303184 -0.641502 0.0173188 -0.0291196 -0.639626 
0.0177178 -0.0271889 -0.636557 0.0182493 -0.0246924 -0.632369 0.0188907 -0.0218322 -0.62716 
0.019616 -0.0188207 -0.621048 0.0203973 -0.0158536 -0.614164 0.0212049 -0.0130858 -0.606646 
0.0220069 -0.0106125 -0.598626 0.0227678 -0.00845818 -0.590231 0.023446 -0.00657492 -0.581567 
0.0239919 -0.00485034 -0.572715 0.0243455 -0.00312344 -0.563728 0.024436 -0.00120693 -0.554626 
0.0241826 0.00108742 -0.545396 0.0234975 0.0039234 -0.535992 0.0222913 0.00741834 -0.526342 
0.02048 0.0116271 -0.516355 0.0179934 0.0165341 -0.505926 0.0147836 0.0220538 -0.494948 
0.0108329 0.0280399 -0.48332 0.00615943 0.0343013 -0.470958 0.000819556 0.0406229 -0.457798 
-0.00509354 0.0467882 -0.443803 -0.0114553 0.0526007 -0.428964 -0.0181192 0.0579018 -0.4133 
-0.0249288 0.0625827 -0.396852 -0.0317322 0.0665893 -0.37968 -0.038395 0.0699202 -0.361855 
-0.0448132 0.0726176 -0.34345 -0.0509209 0.0747542 -0.324537 -0.0566943 0.0764169 -0.305179 
-0.0621495 0.077691 -0.285426 -0.067335 0.0786456 -0.265317 -0.0723194 0.0793243 -0.244877 
-0.0771754 0.0797401 -0.224121 -0.0819633 0.0798767 -0.203063 -0.0867144 0.0796944 -0.181713 
-0.0914182 0.0791402 -0.16009 -0.0960152 0.0781598 -0.138218 -0.100395 0.0767103 -0.116135 
-0.104404 0.0747704 -0.0938886 -0.107856 0.0723477 -0.0715365 -0.11055 0.0694816 -0.0491424 
-0.112297 0.0662418 -0.0267719 -0.112933 0.0627218 -0.00448765 -0.112346 0.0590304 0.0176547 
-0.110488 0.055281 0.0396094 -0.107383 0.0515813 0.061342 -0.103128 0.0480245 0.0828279 
-0.0978806 0.0446841 0.104049 -0.0918463 0.0416114 0.124991 -0.0852547 0.0388382 0.145634 
-0.0783344 0.0363809 0.165951 -0.0712882 0.0342484 0.185901 -0.0642714 0.032449 0.205429 
-0.057377 0.0309968 0.224465 -0.0506282 0.0299155 0.242926 -0.0439813 0.0292386 0.260726 
-0.0373373 0.0290057 0.277783 -0.0305611 0.0292555 0.294029 -0.0235066 0.0300158 0.309424 
-0.0160431 0.0312928 0.323957 -0.00808129 0.0330618 0.337662 0.000406719 0.03526 0.350616 
0.00937431 0.0377842 0.362933 0.0186972 0.0404938 0.374767 0.0281803 0.0432196 0.386288 
0.0375745 0.0457776 0.397678 0.0466004 0.0479864 0.409108 0.0549779 0.0496864 0.420723 
0.0624551 0.0507579 0.432624 0.0688364 0.0511357 0.444863 0.0740032 0.0508184 0.457428 
0.0779266 0.0498698 0.470249 0.080669 0.0484131 0.483202 0.0823757 0.0466171 0.496117 
0.0832568 0.0446764 0.508799 0.0835624 0.0427881 0.521046 0.0835528 0.0411273 0.532664 
0.0834702 0.039825 0.543491 0.0835118 0.0389517 0.553406 0.0838118 0.038508 0.562342 
0.0844303 0.0384247 0.57029 0.0853535 0.0385718 0.57729 0.0865031 0.0387762 0.583429 
0.0877534 0.0388455 0.588825 0.0889551 0.0385949 0.593607 0.0899597 0.0378738 0.597905 
0.090644 0.036589 0.601829 0.0909292 0.0347204 0.60546 0.0907926 0.0323283 0.608838 
0.0902716 0.0295498 0.611966 0.0894576 0.0265854 0.614809 0.0884827 0.0236775 0.617306 
0.0874996 0.0210827 0.619379 0.0866596 0.0190418 0.620946 0.0860899 0.0177509 0.621939 
0.0858754 0.0173385 0.622311 
LINES 2 100
OFFSETS vtktypeint64
0 100 
CONNECTIVITY vtktypeint64
0 1 2 3 4 5 6 7 8 
9 10 11 12 13 14 15 16 17 
18 19 20 21 22 23 24 25 26 
27 28 29 30 31 32 33 34 35 
36 37 38 39 40 41 42 43 44 
45 46 47 48 49 50 51 52 53 
54 55 56 57 58 59 60 61 62 
63 64 65 66 67 68 69 70 71 
72 73 74 75 76 77 78 79 80 
81 82 83 84 85 86 87 88 89 
90 91 92 93 94 95 96 97 98 
99 
POINT_DATA 100
FIELD FieldData 3
_theta 1 100 double
0 0.031733259127 0.063466518254 0.095199777382 0.12693303651 0.15866629564 0.19039955476 0.22213281389 0.25386607302 
0.28559933214 0.31733259127 0.3490658504 0.38079910953 0.41253236865 0.44426562778 0.47599888691 0.50773214603 0.53946540516 
0.57119866429 0.60293192342 0.63466518254 0.66639844167 0.6981317008 0.72986495992 0.76159821905 0.79333147818 0.82506473731 
0.85679799643 0.88853125556 0.92026451469 0.95199777382 0.98373103294 1.0154642921 1.0471975512 1.0789308103 1.1106640695 
1.1423973286 1.1741305877 1.2058638468 1.237597106 1.2693303651 1.3010636242 1.3327968833 1.3645301425 1.3962634016 
1.4279966607 1.4597299198 1.491463179 1.5231964381 1.5549296972 1.5866629564 1.6183962155 1.6501294746 1.6818627337 
1.7135959929 1.745329252 1.7770625111 1.8087957702 1.8405290294 1.8722622885 1.9039955476 1.9357288068 1.9674620659 
1.999195325 2.0309285841 2.0626618433 2.0943951024 2.1261283615 2.1578616206 2.1895948798 2.2213281389 2.253061398 
2.2847946572 2.3165279163 2.3482611754 2.3799944345 2.4117276937 2.4434609528 2.4751942119 2.506927471 2.5386607302 
2.5703939893 2.6021272484 2.6338605076 2.6655937667 2.6973270258 2.7290602849 2.7607935441 2.7925268032 2.8242600623 
2.8559933214 2.8877265806 2.9194598397 2.9511930988 2.982926358 3.0146596171 3.0463928762 3.0781261353 3.1098593945 
3.1415926536 
_radius 1 100 double
6.7046557412e-16 0.011030890393 0.02205503396 0.033067304864 0.044069365912 0.05507016823 0.066083640412 0.077123637251 0.088196783947 
0.099294265619 0.11038381107 0.12140314471 0.13225612777 0.14281271958 0.15291368378 0.16238050579 0.17103020274 0.17869368356 
0.18523531247 0.19057067378 0.19467948309 0.197611212 0.19948216105 0.20046417392 0.20076663197 0.20061452139 0.20022597651 
0.19979257136 0.19946469777 0.19934288735 0.19947453821 0.1998549032 0.20043161919 0.20111297614 0.20178058732 0.20230650321 
0.20257330248 0.20249412177 0.20202877761 0.20119248348 0.200055174 0.19873187679 0.19736725793 0.19611908796 0.19514461562 
0.19459092464 0.19458737707 0.1952373123 0.19660765508 0.19871779324 0.20153131745 0.20495469307 0.20884533299 0.21302854705 
0.21731980625 0.22154705916 0.22556816331 0.22928049408 0.23262240757 0.2355683519 0.23812036916 0.24029846066 0.24213128701 
0.24364766908 0.24486894016 0.24580253563 0.24643789888 0.24674612122 0.24668423956 0.2462039203 0.2452629138 0.24383669855 
0.24192740756 0.23956744204 0.2368159855 0.23374786005 0.23043591277 0.22693031096 0.22324001946 0.21932205178 0.21508202945 
0.21038585455 0.20507885166 0.19900724717 0.19203752672 0.18407105079 0.17505316814 0.16497726688 0.15388458378 0.14186038011 
0.12902673784 0.11553215807 0.10153850931 0.087206501791 0.072681407356 0.058080932089 0.043486952359 0.02894238244 0.014453842347 
7.8396004541e-16 
_area 1 100 double
0 0.00034290917487 0.0013661577542 0.0030573771977 0.00540727675 0.0084199422155 0.012117372611 0.016534521023 0.021705098995 
0.02764228417 0.034319996388 0.041658892423 0.04951898383 0.057699527985 0.065945901679 0.073962178437 0.081428788152 0.088027613214 
0.093477487017 0.097576760138 0.10024160999 0.10152732736 0.10162491942 0.10083267503 0.099509739467 0.098024233211 0.096706981586 
0.095812144623 0.095483616597 0.09574579901 0.096534889457 0.097744808702 0.099255773363 0.10094214826 0.10267730703 0.10434621225 
0.10585074263 0.10709651143 0.10798865515 0.1084598968 0.10850608885 0.10820030771 0.10768041048 0.10712095878 0.10670618383 
0.1066164123 0.10702904645 0.10812297197 0.11006710143 0.1129791575 0.11687108841 0.12162236358 0.12699812842 0.13269561361 
0.13840078306 0.14384606521 0.14886398167 0.15343152797 0.15768000253 0.16179444639 0.16582485108 0.16964316735 0.17304078675 
0.17579972718 0.17772282601 0.17865484049 0.17850086595 0.17723717688 0.17491130489 0.17163335426 0.16756624828 0.1629215658 
0.15793565486 0.15275985133 0.14735961553 0.14165024939 0.13565843743 0.12950122971 0.12329707041 0.11710448177 0.11090399883 
0.10461013982 0.098100553823 0.091255803756 0.084001083344 0.076334825447 0.068332371271 0.060127176405 0.051883774768 0.043777182143 
0.035983409592 0.028674685326 0.022011351012 0.016129051175 0.011125908913 0.0070556415303 0.0039302361019 0.0017319289949 0.00043048570746 
1.2383561728e-17 
