# vtk DataFile Version 5.1
vtk output
ASCII
DATASET POLYDATA
POINTS 100 float
0.0713169 0.0447974 0.721611 0.07136 0.045033 0.721359 0.0715353 0.0455916 0.72043 
0.0718238 0.0464397 0.718843 0.0721969 0.0475255 0.716625 0.0726197 0.0487833 0.713809 
0.0730547 0.0501401 0.710423 0.073466 0.0515222 0.706489 0.0738222 0.0528609 0.702015 
0.0740989 0.0540979 0.696996 0.0742791 0.0551887 0.69141 0.0743526 0.0561035 0.685222 
0.0743137 0.0568266 0.67839 0.0741578 0.0573541 0.670868 0.0738775 0.0576901 0.662619 
0.0734591 0.0578424 0.653618 0.0728798 0.0578184 0.64386 0.0721054 0.0576216 0.633364 
0.0710911 0.0572495 0.622176 0.069783 0.0566936 0.610363 0.0681217 0.05594 0.598013 
0.0660475 0.0549731 0.585225 0.0635055 0.0537784 0.5721 0.0604521 0.052348 0.558731 
0.0568588 0.0506836 0.545197 0.0527162 0.0488007 0.531553 0.0480352 0.0467299 0.517825 
0.0428456 0.0445173 0.504011 0.0371932 0.0422226 0.490084 0.0311344 0.039916 0.475991 
0.0247297 0.0376733 0.461668 0.0180368 0.035571 0.447044 0.0111044 0.0336805 0.43205 
0.0039671 0.0320634 0.416627 -0.00335742 0.0307683 0.400734 -0.0108681 0.0298282 0.384347 
-0.0185775 0.0292607 0.367462 -0.0265066 0.0290688 0.350092 -0.0346762 0.0292437 0.332261 
-0.0430983 0.0297685 0.313999 -0.0517666 0.0306215 0.295335 -0.0606485 0.0317799 0.276289 
-0.0696784 0.0332221 0.256871 -0.0787552 0.0349296 0.237074 -0.0877427 0.036887 0.21688 
-0.0964743 0.0390804 0.196259 -0.104761 0.0414964 0.175174 -0.112403 0.0441189 0.153592 
-0.119204 0.0469266 0.131484 -0.124981 0.0498917 0.108839 -0.129585 0.0529782 0.0856622 
-0.132906 0.0561428 0.0619823 -0.134882 0.0593357 0.0378497 -0.135509 0.0625038 0.0133349 
-0.134831 0.0655937 -0.0114767 -0.132946 0.0685551 -0.0364903 -0.129989 0.0713442 -0.0616091 
-0.126125 0.0739262 -0.0867406 -0.121534 0.0762755 -0.111802 -0.116398 0.078376 -0.136725 
-0.110885 0.0802186 -0.161454 -0.105145 0.0817977 -0.18595 -0.0992916 0.0831079 -0.210184 
-0.0934079 0.084139 -0.234133 -0.0875394 0.0848733 -0.257778 -0.0817002 0.0852826 -0.281097 
-0.0758783 0.0853286 -0.304063 -0.0700447 0.084964 -0.32664 -0.0641631 0.0841367 -0.348786 
-0.0581993 0.082795 -0.370454 -0.0521303 0.0808945 -0.391598 -0.0459509 0.0784048 -0.412172 
-0.039678 0.0753161 -0.432142 -0.033352 0.0716439 -0.451484 -0.0270347 0.0674313 -0.470191 
-0.0208056 0.0627485 -0.488267 -0.0147556 0.0576897 -0.505732 -0.00897951 0.0523668 -0.522608 
-0.00356793 0.0469009 -0.53892 0.00139973 0.0414128 -0.554684 0.00586166 0.0360134 -0.569902 
0.00977805 0.0307948 -0.584553 0.0131334 0.0258237 -0.598593 0.0159365 0.0211378 -0.611952 
0.0182184 0.0167455 -0.624539 0.0200288 0.0126292 -0.63625 0.0214304 0.00875156 -0.646974 
0.0224934 0.00506421 -0.65661 0.0232895 0.00151772 -0.665078 0.0238865 -0.00192861 -0.672329 
0.0243436 -0.00529818 -0.678353 0.0247086 -0.00859096 -0.683186 0.0250158 -0.0117806 -0.68691 
0.0252867 -0.0148152 -0.689647 0.0255304 -0.0176216 -0.691549 0.0257468 -0.0201127 -0.692784 
0.025929 -0.0221968 -0.693524 0.0260675 -0.0237882 -0.693921 0.0261524 -0.0248165 -0.694099 
0.0261771 -0.0252355 -0.694136 
LINES 2 100
OFFSETS vtktypeint64
0 100 
CONNECTIVITY vtktypeint64
0 1 2 3 4 5 6 7 8 
9 10 11 12 13 14 15 16 17 
18 19 20 21 22 23 24 25 26 
27 28 29 30 31 32 33 34 35 
36 37 38 39 40 41 42 43 44 
45 46 47 48 49 50 51 52 53 
54 55 56 57 58 59 60 61 62 
63 64 65 66 67 68 69 70 71 
72 73 74 75 76 77 78 79 80 
81 82 83 84 85 86 87 88 89 
90 91 92 93 94 95 96 97 98 
99 
POINT_DATA 100
FIELD FieldData 3
_theta 1 100 double
0 0.031733259127 0.063466518254 0.095199777382 0.12693303651 0.15866629564 0.19039955476 0.22213281389 0.25386607302 
0.28559933214 0.31733259127 0.3490658504 0.38079910953 0.41253236865 0.44426562778 0.47599888691 0.50773214603 0.53946540516 
0.57119866429 0.60293192342 0.63466518254 0.66639844167 0.6981317008 0.72986495992 0.76159821905 0.79333147818 0.82506473731 
0.85679799643 0.88853125556 0.92026451469 0.95199777382 0.98373103294 1.0154642921 1.0471975512 1.0789308103 1.1106640695 
1.1423973286 1.1741305877 1.2058638468 1.237597106 1.2693303651 1.3010636242 1.3327968833 1.3645301425 1.3962634016 
1.4279966607 1.4597299198 1.491463179 1.5231964381 1.5549296972 1.5866629564 1.6183962155 1.6501294746 1.6818627337 
1.7135959929 1.745329252 1.7770625111 1.8087957702 1.8405290294 1.8722622885 1.9039955476 1.9357288068 1.9674620659 
1.999195325 2.0309285841 2.0626618433 2.0943951024 2.1261283615 2.1578616206 2.1895948798 2.2213281389 2.253061398 
2.2847946572 2.3165279163 2.3482611754 2.3799944345 2.4117276937 2.4434609528 2.4751942119 2.506927471 2.5386607302 
2.5703939893 2.6021272484 2.6338605076 2.6655937667 2.6973270258 2.7290602849 2.7607935441 2.7925268032 2.8242600623 
2.8559933214 2.8877265806 2.9194598397 2.9511930988 2.982926358 3.0146596171 3.0463928762 3.0781261353 3.1098593945 
3.1415926536 
_radius 1 100 double
5.613217784e-16 0.013393595096 0.026834734425 0.04035468717 0.053962884331 0.067639153546 0.081329418515 0.094945627003 0.10837019633 
0.12146466952 0.13408167079 0.14607874233 0.1573323092 0.16774989583 0.17727882787 0.18591000848 0.19367595814 0.20064313085 
0.20689950108 0.21253941205 0.21764844841 0.2222913474 0.22650545425 0.23030094912 0.23366734661 0.23658416497 0.23903274336 
0.24100623002 0.24251566354 0.24359141288 0.24428050436 0.24464110864 0.24473552605 0.24462260385 0.24435011667 0.24394763569 
0.24342079602 0.24274821971 0.24188219777 0.24075352439 0.2392800317 0.23737785782 0.23497434812 0.23202140854 0.22850781401 
0.22446852231 0.21998886673 0.21520198917 0.21027911165 0.20541395347 0.2008042024 0.19663367926 0.19305811517 0.19019546508 
0.18811957117 0.18685525238 0.1863741013 0.18659244269 0.18737430818 0.1885418297 0.18989328159 0.19122620153 0.19236116992 
0.19316181209 0.19354786028 0.19349964588 0.1930537692 0.19229099166 0.19131864323 0.19025080921 0.18918987482 0.18821239841 
0.18736087532 0.18664129433 0.18602515657 0.18545423468 0.18484672745 0.18410413527 0.18311860533 0.18178044296 0.17998514076 
0.17763901383 0.17466261119 0.17099152066 0.16657481393 0.16137193833 0.15534916271 0.14847666804 0.14072710345 0.13207603092 
0.12250427904 0.11200189375 0.10057313719 0.088241835484 0.075056294539 0.061092985161 0.04645825745 0.031287507742 0.015741507526 
1.0917633733e-15 
_area 1 100 double
0 0.00050933236806 0.0020414795992 0.0046064680411 0.008213395715 0.012860524483 0.018524025251 0.025147285461 0.03263268356 
0.04083772818 0.049577408386 0.058634184459 0.06777585767 0.076779608498 0.085458634427 0.093687082855 0.10141889784 0.10869457996 
0.11562617596 0.1223520452 0.12897117133 0.13549105978 0.14181684027 0.14777915976 0.15318437443 0.15787150248 0.16176061805 
0.16487776063 0.16734631221 0.1693447527 0.17104850303 0.17258597016 0.17401958234 0.17534286689 0.17648929217 0.17734632858 
0.17776825978 0.17759257402 0.17666596637 0.17487548417 0.17217226932 0.16857762359 0.16417313913 0.15908495139 0.15346365443 
0.14745866498 0.14120710423 0.13485216596 0.12856121299 0.12251234505 0.11686344709 0.11177581718 0.10765576736 0.104429739 
0.10182125077 0.09974874668 0.098176758683 0.097073976425 0.096379260086 0.095989103703 0.095752292656 0.095477840911 0.094967829083 
0.094062632103 0.09267508404 0.090803836183 0.088527257011 0.08598279803 0.083341134105 0.08078713299 0.078514399473 0.076723079694 
0.075561379515 0.075008044072 0.074945220294 0.075286800879 0.075970314746 0.076905106326 0.077944724449 0.078895321456 0.079537013781 
0.079645018745 0.079013883971 0.077484553399 0.074965794514 0.071442245944 0.066968382579 0.061653499999 0.055644695245 0.049113465121 
0.042248225082 0.035251428773 0.028337855589 0.021730906626 0.015655679164 0.010329508297 0.0059513795288 0.0026912528683 0.00067989568764 
2.3700526725e-17 
