# vtk DataFile Version 5.1
vtk output
ASCII
DATASET POLYDATA
POINTS 100 float
0.121181 0.0437594 0.644182 0.121147 0.043845 0.644154 0.121129 0.0439532 0.643955 
0.1211 0.0441066 0.643561 0.121024 0.0443401 0.642932 0.120849 0.0446962 0.642016 
0.120523 0.0452177 0.640743 0.119989 0.0459412 0.639035 0.119199 0.0468898 0.636801 
0.118114 0.0480673 0.633949 0.116707 0.0494541 0.630384 0.114966 0.0510053 0.626019 
0.112894 0.0526514 0.620781 0.110505 0.0543017 0.614614 0.107825 0.0558501 0.60749 
0.104881 0.0571828 0.599409 0.101702 0.0581875 0.590404 0.0983118 0.0587625 0.580538 
0.0947266 0.0588259 0.569902 0.0909508 0.058323 0.558609 0.0869776 0.0572321 0.546787 
0.08279 0.0555666 0.534566 0.0783634 0.0533755 0.522071 0.0736702 0.05074 0.509411 
0.0686845 0.0477679 0.496671 0.0633876 0.0445853 0.483905 0.0577724 0.0413281 0.471134 
0.051847 0.0381321 0.458343 0.0456357 0.0351238 0.44549 0.0391787 0.0324128 0.432508 
0.0325291 0.0300862 0.419313 0.0257474 0.0282049 0.405817 0.0188957 0.0268038 0.391935 
0.0120303 0.0258929 0.377593 0.00519486 0.0254616 0.362736 -0.00158504 0.0254845 0.347331 
-0.00830518 0.025927 0.33137 -0.0149832 0.0267518 0.314865 -0.0216558 0.0279239 0.297846 
-0.0283725 0.0294143 0.280352 -0.035187 0.0312016 0.262427 -0.0421461 0.033272 0.244111 
-0.0492782 0.0356169 0.225432 -0.056582 0.0382293 0.206406 -0.0640176 0.0410993 0.18703 
-0.0715007 0.0442096 0.167287 -0.078901 0.0475315 0.147146 -0.086046 0.0510222 0.126568 
-0.0927293 0.0546238 0.105515 -0.0987238 0.0582652 0.0839543 -0.103798 0.0618647 0.0618668 
-0.107735 0.0653352 0.0392529 -0.110351 0.0685908 0.0161363 -0.11151 0.071553 -0.00743458 
-0.111141 0.0741568 -0.0313868 -0.109242 0.0763559 -0.0556262 -0.105884 0.0781257 -0.0800424 
-0.101203 0.0794636 -0.104514 -0.0953927 0.0803875 -0.128918 -0.0886855 0.080931 -0.153131 
-0.0813321 0.0811379 -0.177043 -0.0735802 0.0810546 -0.200553 -0.0656537 0.0807223 -0.22358 
-0.0577339 0.0801708 -0.246058 -0.0499466 0.0794128 -0.26794 -0.042355 0.0784415 -0.289197 
-0.0349595 0.0772305 -0.309811 -0.0277052 0.0757365 -0.329778 -0.0204944 0.0739052 -0.349103 
-0.0132049 0.0716786 -0.367797 -0.00571014 0.0690038 -0.385879 0.00210043 0.0658414 -0.403368 
0.0103027 0.062174 -0.420291 0.018924 0.0580112 -0.436673 0.0279346 0.053393 -0.452544 
0.0372466 0.0483894 -0.467931 0.0467187 0.043097 -0.482863 0.0561689 0.0376325 -0.497365 
0.06539 0.0321239 -0.511453 0.0741697 0.0267006 -0.525139 0.0823101 0.0214828 -0.538423 
0.0896468 0.0165727 -0.55129 0.0960629 0.0120469 -0.563715 0.101499 0.00795197 -0.575656 
0.105954 0.00430342 -0.587064 0.109488 0.00108748 -0.597877 0.112203 -0.00173362 -0.608032 
0.11424 -0.00421443 -0.617465 0.115753 -0.00641759 -0.626121 0.1169 -0.00840488 -0.633952 
0.11782 -0.0102292 -0.640928 0.118625 -0.0119284 -0.647037 0.11939 -0.0135213 -0.652284 
0.120152 -0.015007 -0.656691 0.120909 -0.0163669 -0.660296 0.121631 -0.0175687 -0.663144 
0.122269 -0.018573 -0.665285 0.122767 -0.0193398 -0.666767 0.123075 -0.0198356 -0.667627 
0.123159 -0.0200384 -0.667891 
LINES 2 100
OFFSETS vtktypeint64
0 100 
CONNECTIVITY vtktypeint64
0 1 2 3 4 5 6 7 8 
9 10 11 12 13 14 15 16 17 
18 19 20 21 22 23 24 25 26 
27 28 29 30 31 32 33 34 35 
36 37 38 39 40 41 42 43 44 
45 46 47 48 49 50 51 52 53 
54 55 56 57 58 59 60 61 62 
63 64 65 66 67 68 69 70 71 
72 73 74 75 76 77 78 79 80 
81 82 83 84 85 86 87 88 89 
90 91 92 93 94 95 96 97 98 
99 
POINT_DATA 100
FIELD FieldData 3
_theta 1 100 double
0 0.031733259127 0.063466518254 0.095199777382 0.12693303651 0.15866629564 0.19039955476 0.22213281389 0.25386607302 
0.28559933214 0.31733259127 0.3490658504 0.38079910953 0.41253236865 0.44426562778 0.47599888691 0.50773214603 0.53946540516 
0.57119866429 0.60293192342 0.63466518254 0.66639844167 0.6981317008 0.72986495992 0.76159821905 0.79333147818 0.82506473731 
0.85679799643 0.88853125556 0.92026451469 0.95199777382 0.98373103294 1.0154642921 1.0471975512 1.0789308103 1.1106640695 
1.1423973286 1.1741305877 1.2058638468 1.237597106 1.2693303651 1.3010636242 1.3327968833 1.3645301425 1.3962634016 
1.4279966607 1.4597299198 1.491463179 1.5231964381 1.5549296972 1.5866629564 1.6183962155 1.6501294746 1.6818627337 
1.7135959929 1.745329252 1.7770625111 1.8087957702 1.8405290294 1.8722622885 1.9039955476 1.9357288068 1.9674620659 
1.999195325 2.0309285841 2.0626618433 2.0943951024 2.1261283615 2.1578616206 2.1895948798 2.2213281389 2.253061398 
2.2847946572 2.3165279163 2.3482611754 2.3799944345 2.4117276937 2.4434609528 2.4751942119 2.506927471 2.5386607302 
2.5703939893 2.6021272484 2.6338605076 2.6655937667 2.6973270258 2.7290602849 2.7607935441 2.7925268032 2.8242600623 
2.8559933214 2.8877265806 2.9194598397 2.9511930988 2.982926358 3.0146596171 3.0463928762 3.0781261353 3.1098593945 
3.1415926536 
_radius 1 100 double
1.3427073475e-15 0.016170879223 0.032166480003 0.047819292585 0.062980876222 0.07752943631 0.091374887653 0.10446070543 0.11676218635 
0.1282812859 0.1390388927 0.14906604214 0.15839587441 0.16705790453 0.17507542544 0.18246590308 0.18924343859 0.19542204609 
0.20101865413 0.20605519569 0.21055961787 0.21456589961 0.2181131753 0.22124397842 0.224001643 0.22642710851 0.22855565449 
0.23041424006 0.23202000853 0.23338017758 0.23449313953 0.2353503173 0.23593823773 0.23624037699 0.23623853379 0.23591372294 
0.23524679735 0.23421915165 0.23281389303 0.23101775355 0.22882377044 0.22623444838 0.22326486183 0.21994507604 0.21632140467 
0.21245631051 0.20842705235 0.20432336417 0.20024448358 0.19629574823 0.19258478672 0.18921710021 0.18629069402 0.18388957207 
0.18207643247 0.180885576 0.18031741383 0.18033577357 0.18086863691 0.18181237816 0.18303918152 0.18440702115 0.18577129314 
0.18699689667 0.18796937975 0.18860382592 0.18885051898 0.18869696405 0.18816633555 0.18731272646 0.18621372158 0.18496090046 
0.18364893176 0.18236397114 0.18117214292 0.18010896738 0.17917067968 0.17830851284 0.17742717451 0.17638868092 0.17502201908 
0.17313778887 0.17054569478 0.16707225509 0.1625764515 0.15696176827 0.15018371165 0.14225235135 0.13322980595 0.12322302237 
0.11237268703 0.10083956608 0.08878988876 0.076381468692 0.063752071843 0.051011133703 0.038235425948 0.025468828182 0.012726060178 
9.532193695e-16 
_area 1 100 double
0 0.00061526742772 0.0024318391135 0.005367172686 0.0092995837707 0.014087880227 0.019591430611 0.025685457562 0.032267745348 
0.039255697608 0.046575876224 0.054150521895 0.06188616152 0.069668201148 0.077363165009 0.084827993446 0.091924226775 0.098534099011 
0.10457540279 0.1100124462 0.114861485 0.11919003625 0.12310934593 0.12675823317 0.13027706619 0.13377500033 0.13730047381 
0.14082783348 0.14426613996 0.14748491958 0.15034584299 0.15273037099 0.15455720431 0.15578739889 0.15641830048 0.15646971672 
0.15596753931 0.15493135424 0.15337105573 0.15129214102 0.14870485698 0.14563230667 0.14211499688 0.13821154618 0.13399669955 
0.12955819395 0.1249933118 0.12040481037 0.11589543362 0.11156084751 0.10748187658 0.10371766939 0.10030252855 0.097249403846 
0.094557996321 0.092219726828 0.090216144962 0.088515581339 0.087073448097 0.085836843909 0.084751187047 0.083767269446 0.082848181318 
0.081974059796 0.081139955698 0.080342097561 0.079555461782 0.078721267153 0.077765381964 0.076639694423 0.075354356406 0.073969400717 
0.072589243564 0.071349707605 0.070391070288 0.069866812903 0.069826161261 0.070163007517 0.070715849899 0.071207599807 0.071361204748 
0.070936181909 0.069743715443 0.067657366198 0.064615821836 0.060621830916 0.055742165061 0.050108054144 0.043911333875 0.037392947164 
0.030823895668 0.024480656354 0.018617984005 0.013443078134 0.0090959674844 0.0056406996481 0.0030702273201 0.0013253063552 0.0003246833749 
4.4938518016e-17 
