# vtk DataFile Version 5.1
vtk output
ASCII
DATASET POLYDATA
POINTS 100 float
0.110603 0.0284249 0.646335 0.110607 0.0288195 0.646078 0.11064 0.0298214 0.645172 
0.110681 0.0313646 0.643637 0.110694 0.0333469 0.641505 0.110637 0.0356395 0.638814 
0.110467 0.0380986 0.635598 0.110147 0.0405777 0.631885 0.109645 0.0429406 0.627692 
0.108943 0.0450718 0.623019 0.108035 0.0468852 0.61785 0.106922 0.0483289 0.612156 
0.105616 0.0493866 0.605898 0.104126 0.0500752 0.599036 0.102458 0.0504388 0.591535 
0.100606 0.0505411 0.58337 0.0985499 0.0504551 0.574539 0.0962544 0.050253 0.565058 
0.093668 0.0499977 0.554971 0.0907285 0.0497346 0.544343 0.0873688 0.049487 0.533255 
0.0835256 0.049255 0.5218 0.0791481 0.0490162 0.510072 0.0742064 0.0487305 0.498156 
0.0686979 0.0483469 0.48612 0.0626512 0.0478114 0.474011 0.0561256 0.0470758 0.461847 
0.0492074 0.046106 0.449619 0.0420019 0.044888 0.437294 0.0346232 0.0434327 0.424816 
0.0271816 0.0417771 0.412116 0.0197719 0.0399837 0.399123 0.0124623 0.0381356 0.385766 
0.00528705 0.036331 0.371985 -0.00175703 0.0346753 0.357732 -0.00870872 0.0332725 0.342977 
-0.0156358 0.0322171 0.327705 -0.0226236 0.0315869 0.31191 -0.029761 0.0314374 0.295594 
-0.0371236 0.0317987 0.278759 -0.0447579 0.0326744 0.261402 -0.052668 0.0340431 0.243508 
-0.0608051 0.0358618 0.225056 -0.0690638 0.0380709 0.206009 -0.0772835 0.0405998 0.186327 
-0.0852568 0.0433729 0.165971 -0.0927428 0.0463154 0.144908 -0.0994856 0.0493573 0.123123 
-0.105234 0.0524371 0.100628 -0.109763 0.0555034 0.0774641 -0.112893 0.0585148 0.0537093 
-0.114502 0.0614394 0.0294744 -0.114541 0.0642526 0.00489999 -0.11303 0.0669348 -0.0198521 
-0.110062 0.0694695 -0.04461 -0.105789 0.0718406 -0.0692046 -0.100407 0.0740319 -0.0934824 
-0.0941416 0.0760259 -0.117317 -0.0872247 0.0778046 -0.140619 -0.0798784 0.07935 -0.163339 
-0.0722969 0.0806454 -0.185469 -0.0646347 0.0816766 -0.207038 -0.0569987 0.0824328 -0.228104 
-0.0494467 0.0829067 -0.24874 -0.0419904 0.0830942 -0.269025 -0.0346029 0.0829925 -0.289026 
-0.0272303 0.0825986 -0.308792 -0.0198042 0.0819068 -0.328337 -0.0122553 0.0809056 -0.347645 
-0.00452519 0.0795766 -0.366661 0.00342407 0.0778926 -0.3853 0.0116034 0.0758183 -0.403455 
0.0199939 0.0733118 -0.421007 0.0285479 0.070328 -0.437835 0.0371928 0.0668238 -0.453834 
0.0458374 0.0627637 -0.468921 0.0543797 0.0581267 -0.483044 0.0627152 0.0529128 -0.496186 
0.0707446 0.0471479 -0.508367 0.0783799 0.0408887 -0.519636 0.0855497 0.0342233 -0.530068 
0.0922016 0.0272704 -0.539753 0.0983027 0.0201752 -0.548787 0.103839 0.0131021 -0.557261 
0.108813 0.00622554 -0.565251 0.113241 -0.00028137 -0.572815 0.117148 -0.00625861 -0.579989 
0.120566 -0.0115708 -0.586783 0.123533 -0.0161174 -0.593191 0.126086 -0.0198401 -0.599186 
0.128263 -0.0227274 -0.604736 0.130099 -0.0248149 -0.609799 0.131629 -0.0261815 -0.614337 
0.132884 -0.0269424 -0.618318 0.133893 -0.0272379 -0.621716 0.134682 -0.0272206 -0.624512 
0.135272 -0.0270411 -0.626697 0.135681 -0.026834 -0.628267 0.135923 -0.0267051 -0.629219 
0.136003 -0.0267216 -0.629552 
LINES 2 100
OFFSETS vtktypeint64
0 100 
CONNECTIVITY vtktypeint64
0 1 2 3 4 5 6 7 8 
9 10 11 12 13 14 15 16 17 
18 19 20 21 22 23 24 25 26 
27 28 29 30 31 32 33 34 35 
36 37 38 39 40 41 42 43 44 
45 46 47 48 49 50 51 52 53 
54 55 56 57 58 59 60 61 62 
63 64 65 66 67 68 69 70 71 
72 73 74 75 76 77 78 79 80 
81 82 83 84 85 86 87 88 89 
90 91 92 93 94 95 96 97 98 
99 
POINT_DATA 100
FIELD FieldData 3
_theta 1 100 double
0 0.031733259127 0.063466518254 0.095199777382 0.12693303651 0.15866629564 0.19039955476 0.22213281389 0.25386607302 
0.28559933214 0.31733259127 0.3490658504 0.38079910953 0.41253236865 0.44426562778 0.47599888691 0.50773214603 0.53946540516 
0.57119866429 0.60293192342 0.63466518254 0.66639844167 0.6981317008 0.72986495992 0.76159821905 0.79333147818 0.82506473731 
0.85679799643 0.88853125556 0.92026451469 0.95199777382 0.98373103294 1.0154642921 1.0471975512 1.0789308103 1.1106640695 
1.1423973286 1.1741305877 1.2058638468 1.237597106 1.2693303651 1.3010636242 1.3327968833 1.3645301425 1.3962634016 
1.4279966607 1.4597299198 1.491463179 1.5231964381 1.5549296972 1.5866629564 1.6183962155 1.6501294746 1.6818627337 
1.7135959929 1.745329252 1.7770625111 1.8087957702 1.8405290294 1.8722622885 1.9039955476 1.9357288068 1.9674620659 
1.999195325 2.0309285841 2.0626618433 2.0943951024 2.1261283615 2.1578616206 2.1895948798 2.2213281389 2.253061398 
2.2847946572 2.3165279163 2.3482611754 2.3799944345 2.4117276937 2.4434609528 2.4751942119 2.506927471 2.5386607302 
2.5703939893 2.6021272484 2.6338605076 2.6655937667 2.6973270258 2.7290602849 2.7607935441 2.7925268032 2.8242600623 
2.8559933214 2.8877265806 2.9194598397 2.9511930988 2.982926358 3.0146596171 3.0463928762 3.0781261353 3.1098593945 
3.1415926536 
_radius 1 100 double
6.6804649267e-16 0.015116132557 0.030159076441 0.045051054091 0.059715663885 0.074079561239 0.088074808166 0.10164159348 0.11473082939 
0.12730610074 0.13934457431 0.15083668954 0.16178465592 0.17219993152 0.18209995392 0.19150444656 0.20043162498 0.20889459882 
0.21689827659 0.22443717284 0.23149463461 0.23804400059 0.24405197195 0.24948400859 0.25431098192 0.25851578726 0.26209834448 
0.26507756876 0.26748952912 0.26938196413 0.27080622659 0.27180820742 0.27241973095 0.27265156829 0.27248896063 0.27189051059 
0.27079123756 0.26911017773 0.2667621403 0.26367244085 0.25979291489 0.25511727642 0.24969376364 0.2436329163 0.23710835918 
0.23034889021 0.22362129693 0.21720525003 0.21136394163 0.20631594895 0.20221419973 0.19913644464 0.19708843434 0.19601698538 
0.19582705637 0.19639644836 0.19758409542 0.19923209247 0.20116580136 0.20319824492 0.20514275403 0.20683251802 0.20814122747 
0.20899835352 0.2093951444 0.20938070417 0.20904990491 0.20852599605 0.20794088152 0.20741557219 0.20704270971 0.20687260783 
0.20690406555 0.20708110803 0.20729647091 0.20740181592 0.20722343605 0.20658099633 0.20530615174 0.20325797297 0.20033296784 
0.19646883304 0.19164248794 0.18586399482 0.17916836456 0.17160696933 0.16323960881 0.154127607 0.14432796257 0.13388862996 
0.12284535007 0.1112208094 0.099026974333 0.0862710082 0.072964252326 0.059132643342 0.04482611997 0.030124447891 0.015137583385 
8.6724311816e-16 
_area 1 100 double
0 0.0006149577893 0.0024429033471 0.0054335797494 0.0095053054224 0.014548972706 0.020434604664 0.027020058952 0.03416053611 
0.041717393567 0.049565662398 0.057600618191 0.065743212947 0.073942215108 0.082170299811 0.090414495775 0.098665278427 0.10690750777 
0.11511247521 0.12323042285 0.13118658192 0.13888556186 0.14622637167 0.15312498116 0.15953617716 0.16546466051 0.17095880854 
0.17608818155 0.18091329787 0.18545893257 0.18969940018 0.19355915446 0.19692706732 0.19967768708 0.20168985009 0.20285566203 
0.20307765722 0.20225319892 0.20025427739 0.19693201849 0.19216434879 0.18592176489 0.17831356342 0.16960191854 0.16018556956 
0.15055782958 0.14124651099 0.13274554291 0.1254420048 0.11953274753 0.11498522822 0.11160560818 0.10912955644 0.1072920379 
0.10588457767 0.10477580908 0.10389993928 0.1032275799 0.10273791706 0.10241734116 0.10215739013 0.10181842272 0.10126835481 
0.10040644837 0.099200891344 0.097702482907 0.096029752859 0.094337484654 0.092782784721 0.091498540089 0.090579272372 0.090079835348 
0.09002254888 0.090406223894 0.0911821862 0.092065595688 0.092795311613 0.093155788358 0.092975711312 0.092137983074 0.09057687264 
0.088265170029 0.085199167678 0.081389399789 0.076860421759 0.071657275598 0.065853292316 0.059554178123 0.052895606093 0.046034373535 
0.039135741319 0.032361310297 0.0258620628 0.019779255521 0.014251729232 0.0094238717208 0.00544714231 0.0024711493448 0.00062573460813 
3.2519492743e-17 
