# vtk DataFile Version 5.1
vtk output
ASCII
DATASET POLYDATA
POINTS 100 float
0.0901058 0.0368175 0.660319 0.0902244 0.036929 0.659968 0.0906279 0.0371344 0.658756 
0.0912562 0.037418 0.656725 0.0920177 0.0377561 0.653942 0.0927998 0.0381207 0.65049 
0.093483 0.0384841 0.646455 0.0939542 0.038823 0.641915 0.0941197 0.039123 0.636933 
0.0939147 0.0393805 0.631547 0.093309 0.0396039 0.625766 0.0923072 0.0398124 0.619572 
0.090945 0.0400333 0.612924 0.0892806 0.0402969 0.605765 0.0873834 0.040632 0.598035 
0.0853218 0.0410594 0.589678 0.0831511 0.0415875 0.580654 0.0809039 0.0422085 0.570951 
0.0785842 0.0428969 0.560583 0.0761657 0.0436096 0.549595 0.0735952 0.0442899 0.538061 
0.0708 0.044872 0.526072 0.0676986 0.0452887 0.513731 0.0642133 0.0454786 0.501137 
0.0602821 0.0453946 0.48838 0.0558697 0.0450102 0.475526 0.0509737 0.0443254 0.462616 
0.0456279 0.0433687 0.449658 0.0398989 0.0421974 0.43663 0.0338799 0.040894 0.42349 
0.0276788 0.0395606 0.410175 0.0214052 0.0383107 0.396618 0.0151567 0.0372599 0.382754 
0.00900595 0.0365159 0.36853 0.00299202 0.0361693 0.353912 -0.00288457 0.0362864 0.338885 
-0.00866062 0.036903 0.323457 -0.0144038 0.0380226 0.307649 -0.0202012 0.0396164 0.291492 
-0.0261437 0.0416265 0.275018 -0.0323097 0.0439719 0.258248 -0.0387477 0.0465559 0.241189 
-0.0454627 0.0492746 0.223824 -0.052406 0.0520256 0.206115 -0.0594713 0.054716 0.188 
-0.0664975 0.057269 0.169405 -0.0732775 0.0596284 0.150249 -0.0795734 0.0617609 0.130454 
-0.0851354 0.0636564 0.109962 -0.0897229 0.0653258 0.0887388 -0.0931263 0.066797 0.0667891 
-0.0951851 0.0681103 0.0441549 -0.0958026 0.0693121 0.0209187 -0.0949545 0.0704497 -0.00280203 
-0.0926902 0.0715652 -0.0268633 -0.0891274 0.0726911 -0.0511058 -0.0844406 0.073847 -0.0753683 
-0.0788449 0.0750368 -0.0995003 -0.0725756 0.0762479 -0.123374 -0.0658684 0.0774513 -0.14689 
-0.0589394 0.0786028 -0.169988 -0.051969 0.0796451 -0.192639 -0.0450903 0.0805102 -0.214844 
-0.0383829 0.0811233 -0.23663 -0.0318727 0.0814056 -0.258032 -0.0255374 0.0812786 -0.279088 
-0.0193161 0.0806678 -0.299825 -0.0131229 0.0795064 -0.320254 -0.0068615 0.0777388 -0.340359 
-0.000439993 0.0753241 -0.360099 0.00621613 0.0722388 -0.37941 0.0131537 0.0684787 -0.39821 
0.0203854 0.0640605 -0.416405 0.0278877 0.0590215 -0.433904 0.0356021 0.0534193 -0.45062 
0.0434408 0.0473292 -0.466487 0.0512943 0.0408417 -0.481458 0.059041 0.0340575 -0.495514 
0.0665571 0.0270836 -0.508659 0.073726 0.0200278 -0.520917 0.0804463 0.0129938 -0.532327 
0.0866378 0.00607649 -0.542937 0.0922448 -0.000641593 -0.55279 0.0972375 -0.00709284 -0.561928 
0.101611 -0.0132258 -0.570377 0.105382 -0.019005 -0.578151 0.108584 -0.0244093 -0.585252 
0.111267 -0.0294298 -0.591673 0.113485 -0.0340659 -0.597401 0.115297 -0.0383222 -0.602429 
0.116762 -0.0422047 -0.606757 0.117936 -0.0457184 -0.610398 0.118866 -0.0488643 -0.613384 
0.119596 -0.0516391 -0.615762 0.120161 -0.0540346 -0.617596 0.120589 -0.0560388 -0.618957 
0.1209 -0.0576377 -0.619921 0.12111 -0.0588172 -0.620557 0.12123 -0.0595653 -0.620921 
0.121265 -0.0598737 -0.621049 
LINES 2 100
OFFSETS vtktypeint64
0 100 
CONNECTIVITY vtktypeint64
0 1 2 3 4 5 6 7 8 
9 10 11 12 13 14 15 16 17 
18 19 20 21 22 23 24 25 26 
27 28 29 30 31 32 33 34 35 
36 37 38 39 40 41 42 43 44 
45 46 47 48 49 50 51 52 53 
54 55 56 57 58 59 60 61 62 
63 64 65 66 67 68 69 70 71 
72 73 74 75 76 77 78 79 80 
81 82 83 84 85 86 87 88 89 
90 91 92 93 94 95 96 97 98 
99 
POINT_DATA 100
FIELD FieldData 3
_theta 1 100 double
0 0.031733259127 0.063466518254 0.095199777382 0.12693303651 0.15866629564 0.19039955476 0.22213281389 0.25386607302 
0.28559933214 0.31733259127 0.3490658504 0.38079910953 0.41253236865 0.44426562778 0.47599888691 0.50773214603 0.53946540516 
0.57119866429 0.60293192342 0.63466518254 0.66639844167 0.6981317008 0.72986495992 0.76159821905 0.79333147818 0.82506473731 
0.85679799643 0.88853125556 0.92026451469 0.95199777382 0.98373103294 1.0154642921 1.0471975512 1.0789308103 1.1106640695 
1.1423973286 1.1741305877 1.2058638468 1.237597106 1.2693303651 1.3010636242 1.3327968833 1.3645301425 1.3962634016 
1.4279966607 1.4597299198 1.491463179 1.5231964381 1.5549296972 1.5866629564 1.6183962155 1.6501294746 1.6818627337 
1.7135959929 1.745329252 1.7770625111 1.8087957702 1.8405290294 1.8722622885 1.9039955476 1.9357288068 1.9674620659 
1.999195325 2.0309285841 2.0626618433 2.0943951024 2.1261283615 2.1578616206 2.1895948798 2.2213281389 2.253061398 
2.2847946572 2.3165279163 2.3482611754 2.3799944345 2.4117276937 2.4434609528 2.4751942119 2.506927471 2.5386607302 
2.5703939893 2.6021272484 2.6338605076 2.6655937667 2.6973270258 2.7290602849 2.7607935441 2.7925268032 2.8242600623 
2.8559933214 2.8877265806 2.9194598397 2.9511930988 2.982926358 3.0146596171 3.0463928762 3.0781261353 3.1098593945 
3.1415926536 
_radius 1 100 double
1.0009339424e-15 0.013620545537 0.027141022345 0.040464564257 0.053506485738 0.066197947351 0.078487091324 0.090337656654 0.10172562631 
0.11263489091 0.12305310385 0.13296876545 0.14237011749 0.15124579249 0.15958657352 0.16738730865 0.17464810146 0.18137431627 
0.18757550681 0.1932638648 0.19845299379 0.20315766416 0.20739476134 0.21118508791 0.21455524769 0.21753869482 0.22017521859 
0.22250857795 0.22458253608 0.22643599523 0.22809815476 0.22958456328 0.2308946597 0.23201101622 0.23290014006 0.23351446713 
0.23379515379 0.23367543828 0.23308461778 0.23195292864 0.23021768233 0.22783081509 0.2247675643 0.22103538842 0.21668166536 
0.21179833433 0.20652166959 0.201025916 0.19551060645 0.19018292353 0.18523809813 0.18084182988 0.17711825188 0.17414489122 
0.17195338163 0.17053293822 0.16983380822 0.16976977199 0.17022095811 0.17103936803 0.17205895743 0.17311023936 0.17403723485 
0.17471340175 0.17505344375 0.17501924928 0.17461983692 0.17390644216 0.17296441791 0.17190334975 0.17084592968 0.16991529464 
0.16922047898 0.16884065451 0.16881030326 0.16910824307 0.16965293631 0.17030518313 0.17087787966 0.17115141608 0.17089258303 
0.16987456383 0.16789570371 0.1647951738 0.16046423334 0.15485240164 0.14796840868 0.13987627132 0.13068722748 0.12054853504 
0.10963029425 0.098111488349 0.0861663925 0.073952420779 0.061600390726 0.049208057803 0.036837531207 0.024516769238 0.01224481986 
3.0993720971e-16 
_area 1 100 double
0 0.00051471104531 0.0020390509915 0.0045158744616 0.0078569743581 0.011952318625 0.016680714102 0.021920255685 0.027557005106 
0.03349064224 0.039636456284 0.045924030215 0.052294042976 0.058695182751 0.06508270669 0.071418778059 0.077673225815 0.083822863947 
0.089848351112 0.095729242012 0.1014394368 0.10694572941 0.11221103035 0.11720153851 0.12189516981 0.12628831115 0.13039935991 
0.13426890703 0.1379560037 0.1415275497 0.1450367483 0.14849308793 0.1518401133 0.15495922526 0.15769652066 0.15989311822 
0.1614056149 0.16211501858 0.16192809944 0.16077636175 0.15861671713 0.15543577777 0.15125767498 0.14615349599 0.14024880623 
0.13372493336 0.12681056347 0.11976283356 0.11284056649 0.1062757952 0.10025424899 0.094926643992 0.090449453871 0.086757570582 
0.083685834101 0.081105276708 0.079009183913 0.077448427448 0.076325818079 0.075598055416 0.075213691111 0.074939626918 0.074634994069 
0.07419951923 0.073561283352 0.072712744283 0.07170605961 0.070630691996 0.069599710242 0.068750444327 0.068227153092 0.068061395854 
0.06824241507 0.068808556645 0.069800802176 0.071216439683 0.07298065476 0.074938562976 0.076866078139 0.078493865179 0.079537663736 
0.07972965758 0.078847831691 0.076741536177 0.073351221625 0.068719502888 0.0629906709 0.056397193674 0.0492344111 0.041827554292 
0.034497093215 0.027528375457 0.021149893151 0.015522524111 0.010740485531 0.0068430297494 0.0038333482899 0.001698476124 0.00042384609566 
1.734723476e-17 
