# vtk DataFile Version 5.1
vtk output
ASCII
DATASET POLYDATA
POINTS 100 float
0.0324419 -0.0129799 -0.609084 0.0324833 -0.0131486 -0.609138 0.0326539 -0.0134569 -0.609295 
0.0329401 -0.013861 -0.609463 0.0333187 -0.01429 -0.609501 0.0337579 -0.0146514 -0.609235 
0.0342176 -0.0148366 -0.608479 0.0346505 -0.0147291 -0.607053 0.0350035 -0.0142128 -0.604801 
0.0352181 -0.0131804 -0.601611 0.0352327 -0.0115422 -0.597415 0.0349831 -0.00923358 -0.592197 
0.0344048 -0.00622073 -0.585986 0.0334349 -0.00250512 -0.578844 0.032015 0.00187517 -0.570855 
0.0300935 0.00684631 -0.562103 0.0276292 0.0123025 -0.552662 0.0245944 0.018112 -0.542577 
0.0209785 0.0241257 -0.531865 0.0167898 0.0301862 -0.520502 0.0120579 0.0361386 -0.508439 
0.00683376 0.0418405 -0.495602 0.00118868 0.047171 -0.481909 -0.00478872 0.0520379 -0.467288 
-0.010997 0.0563823 -0.451684 -0.017328 0.06018 -0.435079 -0.0236736 0.0634409 -0.417493 
-0.0299337 0.0662037 -0.398989 -0.0360224 0.0685301 -0.379665 -0.0418746 0.0704955 -0.359649 
-0.0474488 0.0721802 -0.33908 -0.0527294 0.0736595 -0.318092 -0.0577242 0.0749959 -0.296804 
-0.0624602 0.0762323 -0.2753 -0.066976 0.077388 -0.253628 -0.0713132 0.0784574 -0.23179 
-0.0755059 0.0794121 -0.209751 -0.0795709 0.0802045 -0.187448 -0.0834994 0.0807744 -0.164804 
-0.0872509 0.0810569 -0.141745 -0.0907505 0.0809903 -0.118215 -0.0938911 0.0805237 -0.094197 
-0.0965386 0.0796243 -0.0697179 -0.0985418 0.078281 -0.0448567 -0.0997448 0.0765079 -0.0197418 
-0.100001 0.0743437 0.00545663 -0.0991892 0.0718494 0.0305405 -0.097224 0.0691041 0.0553011 
-0.0940693 0.0661995 0.0795372 -0.0897433 0.0632326 0.103073 -0.0843202 0.0603001 0.125774 
-0.077927 0.0574913 0.147552 -0.0707344 0.0548839 0.168373 -0.0629448 0.0525402 0.188253 
-0.0547761 0.050505 0.207247 -0.0464454 0.0488055 0.225439 -0.038152 0.0474522 0.242927 
-0.0300638 0.0464412 0.259806 -0.0223059 0.0457566 0.276158 -0.0149551 0.045374 0.29204 
-0.00803859 0.0452626 0.307485 -0.00153811 0.0453885 0.3225 0.00460174 0.045716 0.337075 
0.0104618 0.0462089 0.351193 0.0161346 0.0468316 0.364839 0.0217111 0.0475491 0.378015 
0.0272676 0.0483274 0.390747 0.0328567 0.0491336 0.403091 0.0385007 0.0499365 0.415132 
0.0441898 0.0507068 0.426979 0.0498844 0.0514184 0.438753 0.0555206 0.0520489 0.450573 
0.0610187 0.0525812 0.462541 0.0662932 0.0530036 0.474728 0.0712625 0.0533107 0.487159 
0.0758581 0.053503 0.499807 0.080031 0.053586 0.512593 0.083756 0.0535688 0.525388 
0.0870325 0.0534624 0.538029 0.0898818 0.0532774 0.550331 0.0923432 0.0530222 0.562108 
0.0944672 0.0527007 0.573192 0.096309 0.0523119 0.58345 0.0979211 0.0518493 0.592795 
0.0993489 0.0513019 0.601198 0.100626 0.050656 0.608682 0.101774 0.0498976 0.615319 
0.1028 0.0490159 0.621217 0.103706 0.0480062 0.626501 0.104485 0.0468731 0.631298 
0.10513 0.0456326 0.635718 0.105636 0.0443131 0.63984 0.106004 0.0429553 0.6437 
0.106244 0.0416104 0.647293 0.106374 0.040337 0.650573 0.106418 0.0391969 0.653463 
0.106401 0.0382502 0.655868 0.106353 0.0375503 0.657691 0.106295 0.0371393 0.65885 
0.106245 0.0370439 0.659289 
LINES 2 100
OFFSETS vtktypeint64
0 100 
CONNECTIVITY vtktypeint64
0 1 2 3 4 5 6 7 8 
9 10 11 12 13 14 15 16 17 
18 19 20 21 22 23 24 25 26 
27 28 29 30 31 32 33 34 35 
36 37 38 39 40 41 42 43 44 
45 46 47 48 49 50 51 52 53 
54 55 56 57 58 59 60 61 62 
63 64 65 66 67 68 69 70 71 
72 73 74 75 76 77 78 79 80 
81 82 83 84 85 86 87 88 89 
90 91 92 93 94 95 96 97 98 
99 
POINT_DATA 100
FIELD FieldData 3
_theta 1 100 double
0 0.031733259127 0.063466518254 0.095199777382 0.12693303651 0.15866629564 0.19039955476 0.22213281389 0.25386607302 
0.28559933214 0.31733259127 0.3490658504 0.38079910953 0.41253236865 0.44426562778 0.47599888691 0.50773214603 0.53946540516 
0.57119866429 0.60293192342 0.63466518254 0.66639844167 0.6981317008 0.72986495992 0.76159821905 0.79333147818 0.82506473731 
0.85679799643 0.88853125556 0.92026451469 0.95199777382 0.98373103294 1.0154642921 1.0471975512 1.0789308103 1.1106640695 
1.1423973286 1.1741305877 1.2058638468 1.237597106 1.2693303651 1.3010636242 1.3327968833 1.3645301425 1.3962634016 
1.4279966607 1.4597299198 1.491463179 1.5231964381 1.5549296972 1.5866629564 1.6183962155 1.6501294746 1.6818627337 
1.7135959929 1.745329252 1.7770625111 1.8087957702 1.8405290294 1.8722622885 1.9039955476 1.9357288068 1.9674620659 
1.999195325 2.0309285841 2.0626618433 2.0943951024 2.1261283615 2.1578616206 2.1895948798 2.2213281389 2.253061398 
2.2847946572 2.3165279163 2.3482611754 2.3799944345 2.4117276937 2.4434609528 2.4751942119 2.506927471 2.5386607302 
2.5703939893 2.6021272484 2.6338605076 2.6655937667 2.6973270258 2.7290602849 2.7607935441 2.7925268032 2.8242600623 
2.8559933214 2.8877265806 2.9194598397 2.9511930988 2.982926358 3.0146596171 3.0463928762 3.0781261353 3.1098593945 
3.1415926536 
_radius 1 100 double
3.3490947195e-16 0.012435490569 0.02484793956 0.037204744218 0.049466704492 0.061583732215 0.073490322005 0.085102105779 0.096314920456 
0.10700727277 0.11704622166 0.12629594261 0.13462780416 0.14193067288 0.14812028928 0.15314683642 0.15700016583 0.15971245092 
0.16135822556 0.16205181716 0.16194217473 0.16120515146 0.16003351553 0.15862529675 0.15717138578 0.15584343237 0.15478298511 
0.1540925612 0.15382911506 0.15400036224 0.15456462737 0.15543508397 0.15648905312 0.15758223247 0.15856657307 0.15930951733 
0.15971181895 0.15972121182 0.15933963707 0.1586225348 0.15767004226 0.15661198636 0.15559080758 0.15474742917 0.15421321327 
0.15410737999 0.15453628356 0.15559055969 0.15733815536 0.1598142316 0.16301123649 0.16687291221 0.17129475813 0.1761316369 
0.18121149991 0.18635268725 0.19138126976 0.19614506355 0.20052221686 0.20442389608 0.20779190217 0.21059282391 0.21281066644 
0.21443987934 0.21548038199 0.21593556891 0.21581345832 0.21513027476 0.213915038 0.21221337723 0.21008892507 0.20762122568 
0.20489992051 0.20201581341 0.19905006968 0.1960631641 0.19308523959 0.19010931709 0.18708838407 0.18393686372 0.18053641069 
0.17674547583 0.17241171032 0.16738607002 0.16153739401 0.15476617369 0.14701613822 0.13828221835 0.12861358058 0.11811088252 
0.10691765781 0.095206613302 0.083162397485 0.070962929345 0.058761602255 0.046672608768 0.034761321723 0.023041167666 0.011477743096 
6.9670893513e-16 
_area 1 100 double
0 0.00041807829664 0.0016710591642 0.0037568994764 0.0066749374114 0.010421732186 0.014976612307 0.02028154022 0.026224798805 
0.03263506691 0.039287469538 0.04591992232 0.052256043067 0.058029808059 0.063007486995 0.067004238081 0.069895165627 0.071622222332 
0.072198226045 0.071707861073 0.070304102472 0.068198216237 0.065642870378 0.06291060354 0.060272629758 0.057979504313 0.056216820562 
0.055042510143 0.054426611265 0.054315367776 0.054645693499 0.055347533951 0.056347262698 0.057567383961 0.05891674759 0.060278785774 
0.061521219956 0.062534232613 0.063273381727 0.06378082291 0.064166062602 0.064547021691 0.065002262017 0.065576856557 0.066310165893 
0.067253916997 0.068483093563 0.070103109132 0.072242330552 0.075020917747 0.078513949619 0.082731663082 0.087611017727 0.093012126604 
0.098727935064 0.10451003609 0.11010147505 0.11526750105 0.11982242282 0.12365228884 0.12673023586 0.1291181181 0.13094055698 
0.13230925698 0.13322442181 0.13356904964 0.13320043801 0.13202244588 0.13001389502 0.12723656277 0.1238288061 0.11998283561 
0.11590787284 0.11178865908 0.10775369443 0.10386487147 0.10012826247 0.096513659742 0.092969468595 0.089428438243 0.085808346065 
0.082014113587 0.077944770504 0.073504676761 0.068617040993 0.06323844426 0.05737307874 0.051083714509 0.044494831978 0.037784423302 
0.0311646695 0.024855602384 0.019057916195 0.01393095912 0.0095802415462 0.0060562957025 0.0033640033789 0.0014791030925 0.00036712040533 
2.8289461163e-17 
