# vtk DataFile Version 5.1
vtk output
ASCII
DATASET POLYDATA
POINTS 100 float
0.0577294 -0.0102007 -0.711331 0.0576882 -0.010215 -0.711001 0.0575704 -0.0100906 -0.710039 
0.0573571 -0.00982142 -0.70843 0.0570205 -0.00939527 -0.706149 0.0565275 -0.00879242 -0.703169 
0.0558452 -0.00798487 -0.69946 0.0549449 -0.00693623 -0.694998 0.0538064 -0.00560247 -0.689764 
0.05242 -0.00393405 -0.683747 0.0507871 -0.0018794 -0.676946 0.0489181 0.000610481 -0.669366 
0.0468296 0.00357642 -0.661018 0.0445399 0.00704524 -0.651914 0.0420638 0.0110241 -0.642064 
0.0394085 0.0154959 -0.631472 0.0365706 0.0204163 -0.620132 0.033535 0.0257131 -0.60803 
0.030276 0.0312876 -0.595144 0.0267605 0.0370195 -0.581443 0.0229535 0.0427728 -0.566898 
0.0188241 0.0484047 -0.551482 0.0143519 0.0537747 -0.535178 0.00953263 0.0587544 -0.517986 
0.00438203 0.0632363 -0.499926 -0.00106328 0.0671406 -0.481039 -0.00674726 0.07042 -0.461389 
-0.0125991 0.0730611 -0.44106 -0.0185399 0.0750836 -0.42015 -0.0244912 0.0765352 -0.398762 
-0.0303834 0.0774853 -0.377001 -0.0361632 0.0780164 -0.354957 -0.041799 0.078215 -0.332706 
-0.047283 0.0781627 -0.3103 -0.0526298 0.0779284 -0.287761 -0.0578707 0.0775623 -0.265088 
-0.0630456 0.0770932 -0.242256 -0.0681922 0.0765279 -0.219222 -0.0733342 0.0758533 -0.195935 
-0.0784708 0.0750414 -0.172345 -0.0835681 0.074055 -0.148415 -0.0885548 0.0728554 -0.124127 
-0.0933214 0.071409 -0.099489 -0.0977257 0.0696936 -0.0745412 -0.101602 0.0677029 -0.0493537 
-0.104775 0.0654489 -0.0240249 -0.107074 0.0629624 0.00132523 -0.108351 0.0602903 0.0265637 
-0.108494 0.0574922 0.0515541 -0.107439 0.0546347 0.0761668 -0.105176 0.0517858 0.100288 
-0.101753 0.0490091 0.123826 -0.097266 0.0463587 0.146716 -0.0918558 0.0438757 0.168925 
-0.0856898 0.0415866 0.190443 -0.0789467 0.039503 0.211284 -0.0717999 0.0376237 0.231479 
-0.0644023 0.035938 0.251066 -0.0568738 0.03443 0.270088 -0.0492944 0.0330829 0.288581 
-0.0417021 0.0318835 0.30657 -0.0340963 0.0308257 0.324072 -0.0264465 0.0299125 0.341087 
-0.0187033 0.0291567 0.357609 -0.0108123 0.0285797 0.37362 -0.00272783 0.0282093 0.389105 
0.00557642 0.0280757 0.40405 0.0140986 0.0282076 0.418447 0.0228054 0.028627 0.4323 
0.031633 0.0293459 0.445627 0.0404928 0.0303623 0.458456 0.0492804 0.0316584 0.470827 
0.0578868 0.0332003 0.482784 0.06621 0.0349383 0.494373 0.0741656 0.0368099 0.505639 
0.0816946 0.0387428 0.516614 0.0887672 0.0406598 0.52732 0.0953823 0.042483 0.537765 
0.101564 0.0441392 0.547939 0.107353 0.0455638 0.557821 0.112796 0.0467046 0.567376 
0.11794 0.0475241 0.576563 0.122814 0.0480016 0.585337 0.127433 0.0481326 0.593655 
0.131784 0.0479288 0.60148 0.135836 0.0474161 0.608782 0.139537 0.0466322 0.615544 
0.142828 0.045624 0.621757 0.14565 0.0444447 0.627423 0.147956 0.0431505 0.63255 
0.149721 0.0417984 0.637153 0.150948 0.0404433 0.641246 0.151675 0.0391368 0.644846 
0.15197 0.037925 0.647965 0.151928 0.0368482 0.650612 0.151662 0.0359399 0.652791 
0.15129 0.035227 0.654504 0.150923 0.0347294 0.655749 0.150651 0.0344607 0.656524 
0.150532 0.0344281 0.656827 
LINES 2 100
OFFSETS vtktypeint64
0 100 
CONNECTIVITY vtktypeint64
0 1 2 3 4 5 6 7 8 
9 10 11 12 13 14 15 16 17 
18 19 20 21 22 23 24 25 26 
27 28 29 30 31 32 33 34 35 
36 37 38 39 40 41 42 43 44 
45 46 47 48 49 50 51 52 53 
54 55 56 57 58 59 60 61 62 
63 64 65 66 67 68 69 70 71 
72 73 74 75 76 77 78 79 80 
81 82 83 84 85 86 87 88 89 
90 91 92 93 94 95 96 97 98 
99 
POINT_DATA 100
FIELD FieldData 3
_theta 1 100 double
0 0.031733259127 0.063466518254 0.095199777382 0.12693303651 0.15866629564 0.19039955476 0.22213281389 0.25386607302 
0.28559933214 0.31733259127 0.3490658504 0.38079910953 0.41253236865 0.44426562778 0.47599888691 0.50773214603 0.53946540516 
0.57119866429 0.60293192342 0.63466518254 0.66639844167 0.6981317008 0.72986495992 0.76159821905 0.79333147818 0.82506473731 
0.85679799643 0.88853125556 0.92026451469 0.95199777382 0.98373103294 1.0154642921 1.0471975512 1.0789308103 1.1106640695 
1.1423973286 1.1741305877 1.2058638468 1.237597106 1.2693303651 1.3010636242 1.3327968833 1.3645301425 1.3962634016 
1.4279966607 1.4597299198 1.491463179 1.5231964381 1.5549296972 1.5866629564 1.6183962155 1.6501294746 1.6818627337 
1.7135959929 1.745329252 1.7770625111 1.8087957702 1.8405290294 1.8722622885 1.9039955476 1.9357288068 1.9674620659 
1.999195325 2.0309285841 2.0626618433 2.0943951024 2.1261283615 2.1578616206 2.1895948798 2.2213281389 2.253061398 
2.2847946572 2.3165279163 2.3482611754 2.3799944345 2.4117276937 2.4434609528 2.4751942119 2.506927471 2.5386607302 
2.5703939893 2.6021272484 2.6338605076 2.6655937667 2.6973270258 2.7290602849 2.7607935441 2.7925268032 2.8242600623 
2.8559933214 2.8877265806 2.9194598397 2.9511930988 2.982926358 3.0146596171 3.0463928762 3.0781261353 3.1098593945 
3.1415926536 
_radius 1 100 double
1.1114420828e-16 0.013106628186 0.026245531667 0.039434404595 0.052666644296 0.065900982318 0.079054203026 0.091998748174 0.10456660922 
0.1165599357 0.12776753875 0.13798531443 0.14703782941 0.15479802988 0.16120224999 0.1662583333 0.17004563734 0.17270685227 
0.17443280358 0.17544256367 0.17596205136 0.17620457881 0.17635626024 0.17656778484 0.1769521588 0.17758640447 0.17851461849 
0.17975046309 0.18127863723 0.18305628753 0.18501592005 0.18707092581 0.18912372881 0.19107552446 0.19283613629 0.19433272423 
0.19551659702 0.19636782225 0.19689750135 0.19714754398 0.19718773625 0.19711005677 0.19702069216 0.19703096706 0.19724902008 
0.19777390946 0.19869269267 0.20007950561 0.20199479142 0.20448306946 0.20756864807 0.21124983718 0.21549308518 0.22022887597 
0.22535111621 0.23072111918 0.23617627693 0.24154241083 0.2466479776 0.25133802563 0.25548603242 0.25900230029 0.2618382052 
0.26398612665 0.26547527732 0.2663639203 0.26672868046 0.26665191706 0.26620846894 0.26545343548 0.26441281517 0.26307856632 
0.26140890765 0.25933362635 0.25676319199 0.25359993265 0.24974951205 0.24513128898 0.23968658786 0.23338429304 0.22622346354 
0.21823289511 0.20946777746 0.20000382639 0.18992951036 0.17933722345 0.16831444453 0.15693600434 0.14525849683 0.13331760555 
0.12112870671 0.10869062328 0.095991909628 0.083018629021 0.069762346679 0.056227059875 0.042434008709 0.028423676518 0.014254717876 
9.6232961181e-16 
_area 1 100 double
0 0.00045634314142 0.0018418178864 0.0042003882602 0.0075877591566 0.012046867091 0.017578648862 0.024114264572 0.031495661269 
0.039470262585 0.047702935249 0.055804728785 0.063374043623 0.070042959473 0.075520385621 0.079624735576 0.082301399033 0.083623331896 
0.083775751035 0.083027948766 0.081696778042 0.080107454105 0.078557679153 0.077289850883 0.076471571867 0.076182861138 0.07642449909 
0.077146996304 0.078277630345 0.079751624967 0.081559330587 0.083724030008 0.086090386439 0.088403058741 0.090476021136 0.092195165483 
0.093504227236 0.094402183867 0.094947512025 0.095263571815 0.095537589852 0.096004586221 0.096907772171 0.09842400192 0.10057964278 
0.10327202997 0.10638518048 0.10985771317 0.11369126027 0.11793818882 0.12267912127 0.12799188645 0.13391965109 0.14044755109 
0.14749184324 0.15490035876 0.16246185906 0.16992333161 0.17701491457 0.18348014414 0.18910550703 0.19374100608 0.19730565579 
0.19977842233 0.2011818161 0.20156685943 0.20100376128 0.19957690189 0.19738021125 0.19451041687 0.19105860532 0.18710231622 
0.18269984039 0.1778864895 0.17267142599 0.16703488996 0.16092885006 0.15428581678 0.14703766341 0.13914047985 0.13059745028 
0.12147200536 0.11188722794 0.10201222094 0.092039625557 0.082159999148 0.07253886303 0.063301385856 0.054527807892 0.046259898634 
0.038515760775 0.031308253487 0.024661821037 0.018623482118 0.013265731714 0.0086815292213 0.0049735414989 0.0022406914562 0.00056487223956 
2.0950537457e-17 
