# vtk DataFile Version 5.1
vtk output
ASCII
DATASET POLYDATA
POINTS 100 float
0.0653191 0.0473779 0.642941 0.0653669 0.047697 0.642612 0.0655611 0.0484598 0.64147 
0.0658689 0.0496108 0.639541 0.0662389 0.0510641 0.636865 0.0666064 0.0527117 0.633489 
0.0668999 0.0544341 0.629468 0.0670479 0.056111 0.624854 0.0669861 0.0576321 0.619694 
0.0666625 0.0589052 0.614026 0.066042 0.0598628 0.607879 0.0651081 0.0604638 0.601267 
0.0638625 0.0606938 0.594196 0.0623233 0.0605612 0.586662 0.0605203 0.0600917 0.578658 
0.05849 0.0593215 0.570176 0.0562699 0.0582906 0.561212 0.0538924 0.057037 0.551767 
0.0513809 0.0555926 0.541852 0.048746 0.0539809 0.531487 0.0459846 0.0522184 0.520699 
0.0430803 0.0503161 0.509526 0.0400059 0.0482839 0.498004 0.0367276 0.0461351 0.486174 
0.0332094 0.0438902 0.474073 0.0294183 0.0415797 0.461731 0.0253288 0.0392457 0.449173 
0.0209264 0.0369403 0.436413 0.0162093 0.0347228 0.423461 0.0111885 0.032655 0.410318 
0.00588646 0.0307951 0.396982 0.000333361 0.0291926 0.383449 -0.00543686 0.0278832 0.369714 
-0.0113913 0.0268863 0.355775 -0.0175022 0.0262037 0.341631 -0.0237509 0.0258224 0.32728 
-0.0301289 0.0257185 0.312723 -0.0366377 0.0258636 0.297954 -0.0432866 0.026232 0.282964 
-0.0500884 0.0268072 0.267733 -0.0570526 0.027588 0.252232 -0.0641797 0.028591 0.236419 
-0.0714533 0.029851 0.220243 -0.0788346 0.0314179 0.203646 -0.0862577 0.0333497 0.186564 
-0.0936283 0.0357039 0.168936 -0.100824 0.038527 0.150711 -0.107699 0.0418443 0.13185 
-0.114092 0.0456509 0.112333 -0.119833 0.0499055 0.0921656 -0.124757 0.0545282 0.0713779 
-0.128716 0.0594024 0.050025 -0.131587 0.0643815 0.0281846 -0.133284 0.0692992 0.00595199 
-0.133766 0.0739826 -0.0165665 -0.133035 0.0782666 -0.0392605 -0.131141 0.0820083 -0.0620233 
-0.128177 0.0850982 -0.0847582 -0.124267 0.0874694 -0.107384 -0.119561 0.089101 -0.129836 
-0.11422 0.0900174 -0.15207 -0.108405 0.0902815 -0.174057 -0.102263 0.0899857 -0.195783 
-0.0959196 0.0892381 -0.21724 -0.0894705 0.0881492 -0.238421 -0.0829782 0.086818 -0.259318 
-0.076472 0.0853217 -0.279913 -0.0699519 0.0837073 -0.300174 -0.0633952 0.0819896 -0.320058 
-0.0567657 0.0801523 -0.339511 -0.0500235 0.0781542 -0.358466 -0.043136 0.0759386 -0.376855 
-0.0360862 0.0734446 -0.394609 -0.0288807 0.0706187 -0.411665 -0.0215532 0.0674248 -0.427973 
-0.0141663 0.0638524 -0.443497 -0.00680835 0.0599198 -0.458218 0.000410949 0.0556741 -0.472136 
0.00736882 0.0511864 -0.485265 0.0139384 0.0465448 -0.497628 0.0199988 0.0418437 -0.50926 
0.0254441 0.0371737 -0.520194 0.0301917 0.0326118 -0.530461 0.034188 0.028214 -0.540083 
0.0374118 0.024011 -0.549076 0.0398748 0.020008 -0.557444 0.0416191 0.0161888 -0.565182 
0.0427132 0.0125219 -0.572279 0.0432451 0.00897064 -0.578722 0.0433161 0.00550265 -0.584499 
0.0430324 0.00209957 -0.589607 0.0424992 -0.00123564 -0.594049 0.0418145 -0.0044745 -0.59784 
0.0410649 -0.00756271 -0.601008 0.0403236 -0.0104238 -0.603587 0.0396491 -0.0129665 -0.605619 
0.0390858 -0.0150943 -0.607149 0.0386653 -0.0167165 -0.608215 0.0384084 -0.017759 -0.608852 
0.0383265 -0.0181732 -0.609078 
LINES 2 100
OFFSETS vtktypeint64
0 100 
CONNECTIVITY vtktypeint64
0 1 2 3 4 5 6 7 8 
9 10 11 12 13 14 15 16 17 
18 19 20 21 22 23 24 25 26 
27 28 29 30 31 32 33 34 35 
36 37 38 39 40 41 42 43 44 
45 46 47 48 49 50 51 52 53 
54 55 56 57 58 59 60 61 62 
63 64 65 66 67 68 69 70 71 
72 73 74 75 76 77 78 79 80 
81 82 83 84 85 86 87 88 89 
90 91 92 93 94 95 96 97 98 
99 
POINT_DATA 100
FIELD FieldData 3
_theta 1 100 double
0 0.031733259127 0.063466518254 0.095199777382 0.12693303651 0.15866629564 0.19039955476 0.22213281389 0.25386607302 
0.28559933214 0.31733259127 0.3490658504 0.38079910953 0.41253236865 0.44426562778 0.47599888691 0.50773214603 0.53946540516 
0.57119866429 0.60293192342 0.63466518254 0.66639844167 0.6981317008 0.72986495992 0.76159821905 0.79333147818 0.82506473731 
0.85679799643 0.88853125556 0.92026451469 0.95199777382 0.98373103294 1.0154642921 1.0471975512 1.0789308103 1.1106640695 
1.1423973286 1.1741305877 1.2058638468 1.237597106 1.2693303651 1.3010636242 1.3327968833 1.3645301425 1.3962634016 
1.4279966607 1.4597299198 1.491463179 1.5231964381 1.5549296972 1.5866629564 1.6183962155 1.6501294746 1.6818627337 
1.7135959929 1.745329252 1.7770625111 1.8087957702 1.8405290294 1.8722622885 1.9039955476 1.9357288068 1.9674620659 
1.999195325 2.0309285841 2.0626618433 2.0943951024 2.1261283615 2.1578616206 2.1895948798 2.2213281389 2.253061398 
2.2847946572 2.3165279163 2.3482611754 2.3799944345 2.4117276937 2.4434609528 2.4751942119 2.506927471 2.5386607302 
2.5703939893 2.6021272484 2.6338605076 2.6655937667 2.6973270258 2.7290602849 2.7607935441 2.7925268032 2.8242600623 
2.8559933214 2.8877265806 2.9194598397 2.9511930988 2.982926358 3.0146596171 3.0463928762 3.0781261353 3.1098593945 
3.1415926536 
_radius 1 100 double
1.5328517646e-16 0.012652372755 0.025268659714 0.037803393276 0.050207631683 0.062428762131 0.074411597649 0.086100679436 0.097443403245 
0.10839336946 0.11891327463 0.12897675329 0.13856882532 0.1476849385 0.15632891987 0.16451035447 0.17224191358 0.17953697027 
0.18640759649 0.19286290272 0.19890773325 0.20454190024 0.20976027952 0.21455407169 0.21891329396 0.2228301514 0.22630249187 
0.22933629901 0.23194629456 0.23415420489 0.23598492143 0.23746140147 0.23859951043 0.2394040003 0.2398664815 0.23996571741 
0.23967005835 0.23894151634 0.23774093025 0.23603379941 0.23379649321 0.231022524 0.22772837484 0.22395811381 0.21978586382 
0.21531523875 0.21067511808 0.20601155527 0.20147614739 0.19721182527 0.19333777422 0.18993602082 0.18704288943 0.1846484938 
0.18270588213 0.18114810161 0.17990761216 0.17893071536 0.17818150509 0.17763456566 0.17726124678 0.17701812112 0.17684509865 
0.17667452385 0.17644632472 0.17612247627 0.1756960201 0.17519268017 0.17466530743 0.1741829313 0.17381713908 0.17362866826 
0.17365637914 0.17390945652 0.17436245908 0.17495240673 0.17557765197 0.17609928048 0.17634633122 0.1761256458 0.17523589203 
0.17348407637 0.17070229247 0.16676256218 0.16158807427 0.15515964431 0.14751674155 0.13875298511 0.12900660969 0.11844698348 
0.10725874731 0.095625458467 0.083714699208 0.071666402654 0.059585651317 0.047540470374 0.035564272532 0.023661785826 0.011816782361 
8.5220276652e-16 
_area 1 100 double
0 0.00046647887254 0.0018617876102 0.0041719223617 0.0073688813674 0.011405933049 0.016214572728 0.021705091457 0.027771668214 
0.034301417895 0.041185171101 0.048326497878 0.055645475261 0.063075663468 0.070556289959 0.078024560391 0.085412767955 0.092651424003 
0.099675970714 0.10643339704 0.11288609218 0.1190120852 0.12480256811 0.13025861285 0.13538846169 0.14020493954 0.14472123077 
0.14894409818 0.15286596457 0.1564588333 0.15967262588 0.16243923999 0.16468250995 0.16633267339 0.1673418307 0.1676957344 
0.16741725892 0.16655656809 0.16516441172 0.16325692172 0.16080023547 0.15773341291 0.15401018029 0.14963373529 0.14467537315 
0.13927648086 0.13363593998 0.12798581618 0.12255823503 0.11754890105 0.11308962355 0.10923975736 0.1059856477 0.1032312929 
0.10079945201 0.098484440987 0.096132901208 0.093690470774 0.091205175885 0.088797254493 0.08660156124 0.084703732263 0.083102122036 
0.081704245046 0.080364024715 0.078944727182 0.077371639344 0.075655523466 0.073890876304 0.07223737181 0.070888495245 0.070029295933 
0.069789451152 0.070209446099 0.071239242134 0.072762486986 0.074619656608 0.076616620246 0.078523977299 0.080078536907 0.080995095656 
0.080991103042 0.079822137276 0.077322011064 0.073437820975 0.068249378251 0.061965730319 0.054897849957 0.047413309645 0.039883490035 
0.032635495238 0.025919339319 0.019896431066 0.014648880788 0.010203034556 0.0065576170263 0.0037073579729 0.0016557526527 0.00041539584927 
2.012459613e-17 
