# vtk DataFile Version 5.1
vtk output
ASCII
DATASET POLYDATA
POINTS 100 float
0.185854 0.00907759 -0.631292 0.185554 0.00914204 -0.630999 0.184673 0.00947787 -0.630112 
0.183227 0.0100862 -0.628625 0.181235 0.010967 -0.626527 0.178723 0.0121183 -0.623807 
0.175717 0.0135347 -0.62045 0.172239 0.0152063 -0.616438 0.168306 0.0171181 -0.611752 
0.163924 0.0192488 -0.606368 0.159092 0.0215715 -0.600264 0.153798 0.0240533 -0.593418 
0.148023 0.0266567 -0.585806 0.141746 0.0293409 -0.577412 0.13495 0.0320635 -0.56822 
0.127621 0.0347822 -0.558224 0.119762 0.0374572 -0.547426 0.111388 0.0400525 -0.535838 
0.102534 0.0425373 -0.523484 0.0932534 0.0448877 -0.510397 0.0836156 0.047087 -0.496625 
0.0737024 0.0491258 -0.48222 0.0636024 0.0510018 -0.467244 0.0534041 0.0527196 -0.45176 
0.0431891 0.0542893 -0.435829 0.0330256 0.0557256 -0.419508 0.0229638 0.0570462 -0.402841 
0.0130331 0.0582709 -0.385858 0.00324225 0.0594197 -0.368572 -0.00641793 0.0605114 -0.350976 
-0.0159689 0.0615619 -0.333046 -0.0254367 0.0625831 -0.314738 -0.0348431 0.0635815 -0.295999 
-0.044196 0.0645564 -0.276765 -0.053481 0.0654997 -0.256975 -0.0626548 0.0663948 -0.236573 
-0.0716412 0.067217 -0.21552 -0.0803306 0.0679336 -0.193797 -0.0885835 0.0685054 -0.171415 
-0.0962379 0.0688887 -0.148416 -0.103119 0.0690384 -0.124875 -0.10905 0.0689105 -0.100896 
-0.113871 0.0684669 -0.076614 -0.117445 0.0676783 -0.0521829 -0.119673 0.0665287 -0.0277701 
-0.120505 0.0650177 -0.00354668 -0.119939 0.0631631 0.0203227 -0.118026 0.0610017 0.0436882 
-0.114866 0.0585887 0.0664233 -0.110595 0.0559953 0.0884303 -0.10538 0.0533057 0.109643 
-0.099402 0.0506119 0.130031 -0.0928414 0.0480078 0.14959 -0.085866 0.0455837 0.168349 
-0.078619 0.0434195 0.186354 -0.071211 0.0415798 0.203668 -0.0637155 0.0401096 0.220361 
-0.0561693 0.0390316 0.236504 -0.0485768 0.0383452 0.252165 -0.0409176 0.038028 0.267403 
-0.0331567 0.038038 0.282264 -0.0252557 0.0383187 0.296787 -0.0171837 0.0388036 0.310999 
-0.00892723 0.0394228 0.324918 -0.000496452 0.0401079 0.33856 0.00807133 0.0407982 0.351938 
0.0167123 0.0414434 0.365067 0.0253406 0.0420069 0.377962 0.0338553 0.0424664 0.390645 
0.0421504 0.0428132 0.403137 0.0501248 0.04305 0.415461 0.0576929 0.0431875 0.427635 
0.064792 0.0432414 0.439673 0.0713887 0.0432278 0.451577 0.0774804 0.0431603 0.463337 
0.0830941 0.0430475 0.474926 0.0882806 0.0428913 0.486303 0.0931072 0.0426868 0.497412 
0.097647 0.0424237 0.508184 0.101969 0.0420875 0.518539 0.106126 0.0416628 0.528397 
0.110153 0.0411358 0.537676 0.114052 0.0404971 0.546305 0.117802 0.0397442 0.554222 
0.121353 0.0388823 0.561382 0.124637 0.0379253 0.56776 0.127576 0.0368944 0.573351 
0.130092 0.0358175 0.578172 0.132119 0.0347259 0.582256 0.133615 0.0336524 0.585654 
0.134567 0.0326283 0.588428 0.134997 0.0316813 0.590651 0.134963 0.0308337 0.592395 
0.134556 0.0301013 0.593736 0.13389 0.0294937 0.594744 0.133095 0.0290148 0.595483 
0.1323 0.0286642 0.596006 0.131625 0.0284389 0.596359 0.131164 0.0283354 0.596573 
0.130978 0.0283505 0.596668 
LINES 2 100
OFFSETS vtktypeint64
0 100 
CONNECTIVITY vtktypeint64
0 1 2 3 4 5 6 7 8 
9 10 11 12 13 14 15 16 17 
18 19 20 21 22 23 24 25 26 
27 28 29 30 31 32 33 34 35 
36 37 38 39 40 41 42 43 44 
45 46 47 48 49 50 51 52 53 
54 55 56 57 58 59 60 61 62 
63 64 65 66 67 68 69 70 71 
72 73 74 75 76 77 78 79 80 
81 82 83 84 85 86 87 88 89 
90 91 92 93 94 95 96 97 98 
99 
POINT_DATA 100
FIELD FieldData 3
_theta 1 100 double
0 0.031733259127 0.063466518254 0.095199777382 0.12693303651 0.15866629564 0.19039955476 0.22213281389 0.25386607302 
0.28559933214 0.31733259127 0.3490658504 0.38079910953 0.41253236865 0.44426562778 0.47599888691 0.50773214603 0.53946540516 
0.57119866429 0.60293192342 0.63466518254 0.66639844167 0.6981317008 0.72986495992 0.76159821905 0.79333147818 0.82506473731 
0.85679799643 0.88853125556 0.92026451469 0.95199777382 0.98373103294 1.0154642921 1.0471975512 1.0789308103 1.1106640695 
1.1423973286 1.1741305877 1.2058638468 1.237597106 1.2693303651 1.3010636242 1.3327968833 1.3645301425 1.3962634016 
1.4279966607 1.4597299198 1.491463179 1.5231964381 1.5549296972 1.5866629564 1.6183962155 1.6501294746 1.6818627337 
1.7135959929 1.745329252 1.7770625111 1.8087957702 1.8405290294 1.8722622885 1.9039955476 1.9357288068 1.9674620659 
1.999195325 2.0309285841 2.0626618433 2.0943951024 2.1261283615 2.1578616206 2.1895948798 2.2213281389 2.253061398 
2.2847946572 2.3165279163 2.3482611754 2.3799944345 2.4117276937 2.4434609528 2.4751942119 2.506927471 2.5386607302 
2.5703939893 2.6021272484 2.6338605076 2.6655937667 2.6973270258 2.7290602849 2.7607935441 2.7925268032 2.8242600623 
2.8559933214 2.8877265806 2.9194598397 2.9511930988 2.982926358 3.0146596171 3.0463928762 3.0781261353 3.1098593945 
3.1415926536 
_radius 1 100 double
1.3348683058e-15 0.014941908445 0.029662130034 0.043956845357 0.05764720556 0.070585799964 0.082658124962 0.093780000384 0.10389318794 
0.11296189323 0.1209720589 0.12793372106 0.13388500067 0.13889525286 0.14306480992 0.14651958509 0.1494003166 0.15184804405 
0.15398896549 0.15592246061 0.15771529319 0.15940293509 0.1609964621 0.16249177236 0.1638777179 0.1651409588 0.16626715117 
0.16723963384 0.16803761497 0.16863588924 0.16900740998 0.169128711 0.16898662969 0.1685839439 0.16794213881 0.16710117363 
0.16611752908 0.16506197728 0.16401749843 0.16307656991 0.16233678469 0.16189473054 0.16183943527 0.16224720441 0.16317898415 
0.16468015872 0.16678161186 0.16950023204 0.17283711792 0.17677274762 0.1812599499 0.18621688886 0.19152287747 0.19701954067 
0.20251875511 0.207817126 0.21271499761 0.21703676124 0.22064892336 0.22347298466 0.22549131524 0.22674550744 0.22732787596 
0.22736770117 0.22701440113 0.22642001336 0.225723126 0.22503574212 0.22443369149 0.22395051162 0.22357455946 0.22324947516 
0.22287852778 0.2223332634 0.22146608587 0.22012532343 0.2181705734 0.21548602638 0.21198999208 0.20763967246 0.20243104769 
0.19639439867 0.1895864621 0.18208052805 0.17395594247 0.16528842713 0.15614234568 0.14656557943 0.13658718368 0.12621765733 
0.11545155678 0.10427223222 0.09265845548 0.08059248454 0.068068685582 0.055101410396 0.041730658882 0.028024287301 0.014076109178 
1.3076626883e-15 
_area 1 100 double
0 0.00047267673022 0.0018796675501 0.0041860136897 0.0073280455407 0.011207556031 0.015687474176 0.020591709089 0.025711417418 
0.030818679183 0.035686503956 0.040111957124 0.043937908466 0.04706894274 0.049478272247 0.051204608591 0.052340177185 0.053012681525 
0.053364815881 0.053535273666 0.053645196884 0.053792593309 0.054053893159 0.054488587857 0.055141791429 0.056041068364 0.057188658162 
0.058555104269 0.06007990222 0.0616799692 0.063262358439 0.064737673159 0.066035321349 0.067119964917 0.067997533034 0.068703010196 
0.069278020322 0.069753790239 0.070209577386 0.070614171901 0.07102474832 0.071571784313 0.072429559473 0.07378508322 0.075766726507 
0.078369818906 0.081595763484 0.085428781912 0.089833721646 0.094754739989 0.10011305342 0.1058073324 0.11171787646 0.11771134247 
0.12364170581 0.12934815949 0.1346551622 0.13937807555 0.14333418518 0.14636062734 0.14834204348 0.14924099375 0.14911515261 
0.14811165731 0.14644112764 0.14434127052 0.14204221917 0.1397418796 0.13759089917 0.1356818954 0.13404031844 0.13261966723 
0.13130618943 0.12993525865 0.12831571032 0.12625576054 0.12358583963 0.12017604089 0.11594745458 0.1108777626 0.10500193487 
0.098408508999 0.091231259037 0.083636021256 0.075803583005 0.067911257969 0.060116783799 0.052547723383 0.045297917158 0.038430608874 
0.031986447659 0.025994010075 0.02048067494 0.015482142006 0.011049093344 0.0072494296815 0.0041647704913 0.0018810635832 0.00047504104671 
6.029519001e-17 
