# vtk DataFile Version 5.1
vtk output
ASCII
DATASET POLYDATA
POINTS 100 float
0.120353 -0.0155441 -0.678221 0.120338 -0.0154679 -0.678067 0.120317 -0.0151006 -0.677659 
0.12027 -0.014479 -0.676943 0.120164 -0.0136565 -0.675832 0.119956 -0.0126945 -0.674219 
0.119599 -0.0116513 -0.671982 0.119038 -0.0105717 -0.669 0.118222 -0.00947777 -0.665157 
0.117099 -0.00836252 -0.660361 0.115623 -0.0071878 -0.654542 0.113751 -0.00588634 -0.647664 
0.111445 -0.00436821 -0.639724 0.108672 -0.00253077 -0.63075 0.105401 -0.000271026 -0.620798 
0.101605 0.00250126 -0.609944 0.0972624 0.0058513 -0.598276 0.092352 0.00980946 -0.585889 
0.0868602 0.0143651 -0.572872 0.0807809 0.0194651 -0.559304 0.0741185 0.0250165 -0.545249 
0.0668911 0.0308941 -0.530753 0.0591325 0.0369509 -0.515842 0.0508939 0.0430312 -0.500524 
0.0422438 0.048983 -0.484793 0.0332663 0.0546705 -0.468634 0.024058 0.0599833 -0.452023 
0.0147228 0.0648425 -0.434935 0.00536607 0.0692028 -0.41735 -0.00391189 0.07305 -0.39925 
-0.0130223 0.0763961 -0.380625 -0.0218928 0.0792711 -0.361472 -0.0304712 0.0817142 -0.341796 
-0.038726 0.0837649 -0.321607 -0.0466452 0.0854557 -0.300919 -0.0542317 0.0868068 -0.279749 
-0.0614973 0.0878243 -0.258117 -0.0684544 0.0885012 -0.236045 -0.0751078 0.0888206 -0.213555 
-0.0814466 0.0887615 -0.190672 -0.0874381 0.0883049 -0.167426 -0.0930244 0.0874402 -0.143852 
-0.0981214 0.0861696 -0.119993 -0.102622 0.084511 -0.0958995 -0.106404 0.0824983 -0.0716292 
-0.109337 0.0801792 -0.047249 -0.111296 0.0776104 -0.0228321 -0.112173 0.0748525 0.00154387 
-0.111888 0.0719633 0.0257998 -0.110399 0.0689928 0.0498578 -0.10771 0.065979 0.0736446 
-0.10387 0.0629467 0.0970939 -0.0989778 0.0599081 0.120149 -0.0931681 0.0568667 0.142763 
-0.0866088 0.0538227 0.164901 -0.0794854 0.0507794 0.186538 -0.0719883 0.04775 0.20766 
-0.064299 0.0447632 0.228258 -0.0565773 0.041866 0.248332 -0.0489521 0.0391245 0.267885 
-0.0415148 0.0366209 0.286923 -0.034317 0.0344472 0.305455 -0.0273726 0.0326967 0.32349 
-0.0206633 0.0314543 0.341041 -0.0141467 0.0307857 0.358123 -0.00776719 0.0307283 0.374753 
-0.00146611 0.0312849 0.390955 0.00480768 0.0324197 0.406756 0.0110896 0.03406 0.422186 
0.0173935 0.0361001 0.437284 0.023709 0.0384105 0.452087 0.0300017 0.0408493 0.466634 
0.0362171 0.0432741 0.480964 0.0422852 0.0455553 0.495107 0.0481286 0.0475867 0.509088 
0.0536692 0.0492938 0.522922 0.0588357 0.0506377 0.53661 0.0635696 0.0516155 0.55014 
0.0678295 0.0522563 0.563487 0.0715928 0.0526133 0.576614 0.0748563 0.0527546 0.58947 
0.0776342 0.0527522 0.602 0.0799548 0.0526718 0.614142 0.0818569 0.0525646 0.625831 
0.0833851 0.0524619 0.637006 0.0845864 0.052373 0.64761 0.0855064 0.0522872 0.65759 
0.0861878 0.0521786 0.666904 0.0866689 0.0520131 0.675518 0.0869833 0.051757 0.683407 
0.0871609 0.0513852 0.690556 0.0872286 0.0508877 0.696954 0.0872111 0.0502738 0.702599 
0.0871324 0.0495733 0.707492 0.0870152 0.0488341 0.711635 0.0868814 0.0481172 0.715035 
0.0867512 0.0474889 0.717695 0.0866418 0.0470125 0.71962 0.0865668 0.0467398 0.720813 
0.0865343 0.046704 0.721274 
LINES 2 100
OFFSETS vtktypeint64
0 100 
CONNECTIVITY vtktypeint64
0 1 2 3 4 5 6 7 8 
9 10 11 12 13 14 15 16 17 
18 19 20 21 22 23 24 25 26 
27 28 29 30 31 32 33 34 35 
36 37 38 39 40 41 42 43 44 
45 46 47 48 49 50 51 52 53 
54 55 56 57 58 59 60 61 62 
63 64 65 66 67 68 69 70 71 
72 73 74 75 76 77 78 79 80 
81 82 83 84 85 86 87 88 89 
90 91 92 93 94 95 96 97 98 
99 
POINT_DATA 100
FIELD FieldData 3
_theta 1 100 double
0 0.031733259127 0.063466518254 0.095199777382 0.12693303651 0.15866629564 0.19039955476 0.22213281389 0.25386607302 
0.28559933214 0.31733259127 0.3490658504 0.38079910953 0.41253236865 0.44426562778 0.47599888691 0.50773214603 0.53946540516 
0.57119866429 0.60293192342 0.63466518254 0.66639844167 0.6981317008 0.72986495992 0.76159821905 0.79333147818 0.82506473731 
0.85679799643 0.88853125556 0.92026451469 0.95199777382 0.98373103294 1.0154642921 1.0471975512 1.0789308103 1.1106640695 
1.1423973286 1.1741305877 1.2058638468 1.237597106 1.2693303651 1.3010636242 1.3327968833 1.3645301425 1.3962634016 
1.4279966607 1.4597299198 1.491463179 1.5231964381 1.5549296972 1.5866629564 1.6183962155 1.6501294746 1.6818627337 
1.7135959929 1.745329252 1.7770625111 1.8087957702 1.8405290294 1.8722622885 1.9039955476 1.9357288068 1.9674620659 
1.999195325 2.0309285841 2.0626618433 2.0943951024 2.1261283615 2.1578616206 2.1895948798 2.2213281389 2.253061398 
2.2847946572 2.3165279163 2.3482611754 2.3799944345 2.4117276937 2.4434609528 2.4751942119 2.506927471 2.5386607302 
2.5703939893 2.6021272484 2.6338605076 2.6655937667 2.6973270258 2.7290602849 2.7607935441 2.7925268032 2.8242600623 
2.8559933214 2.8877265806 2.9194598397 2.9511930988 2.982926358 3.0146596171 3.0463928762 3.0781261353 3.1098593945 
3.1415926536 
_radius 1 100 double
2.0819572717e-16 0.014635405775 0.029157733243 0.04345267823 0.057410766478 0.070927742106 0.083903529337 0.096240747239 0.1078441565 
0.11862229471 0.12849192525 0.13738497841 0.14525672667 0.15209334256 0.15791693692 0.16278665943 0.16679527728 0.17006158884 
0.17271985779 0.17490801026 0.17675649138 0.17837935831 0.17986847089 0.18129081146 0.18268836677 0.18407981016 0.18546333943 
0.18682025343 0.18811902806 0.18931969158 0.19037818202 0.1912502204 0.1918942893 0.19227373903 0.19235874768 0.19212937304 
0.19158064157 0.19072931772 0.18962034644 0.18833010496 0.18696414584 0.18564872252 0.18451734382 0.18369535318 0.18328659454 
0.18336599091 0.18397987406 0.18515261013 0.18689505791 0.18920954792 0.19208813528 0.19550482202 0.1994060053 0.20370447417 
0.20828034465 0.21298893879 0.21767303191 0.22217620739 0.22635479595 0.23008700681 0.23327874676 0.23586618483 0.23781549728 
0.23912049673 0.23979894661 0.23988818692 0.2394402669 0.23851632109 0.23717979652 0.23548858685 0.23348703998 0.2311996594 
0.2286284479 0.22575492243 0.22254624667 0.21896356643 0.21497018243 0.21053770199 0.20564932623 0.2003004144 0.19449706506 
0.18825355887 0.18158923602 0.17452499469 0.1670793775 0.15926431786 0.15108099063 0.14251661837 0.13354326484 0.12411946375 
0.11419501275 0.10371856307 0.092646951799 0.080954757035 0.06864245302 0.05574183532 0.042317960236 0.02846749032 0.014313862788 
3.5708538013e-16 
_area 1 100 double
0 0.00051535961084 0.00206340652 0.0046464938005 0.0082571238379 0.012862599834 0.018387805889 0.024700779739 0.031605856334 
0.038847639815 0.046126493674 0.053123514201 0.059530808686 0.065081900897 0.069577570647 0.072904249267 0.075044411979 0.076079909733 
0.076188619641 0.07563190476 0.074727078262 0.073800888263 0.073134494334 0.072924347057 0.073316108663 0.074441177702 0.076033704409 
0.077876869209 0.07976380089 0.081539340537 0.083111876916 0.084447063633 0.08555578809 0.08648917242 0.087330491127 0.08811735552 
0.088887246002 0.089684128712 0.090548185363 0.091521008058 0.092643430352 0.093942820376 0.095421844746 0.097059311711 0.098818432486 
0.10065608816 0.10253855452 0.10446829981 0.1065119018 0.10881017416 0.11155813739 0.11495398715 0.11912567806 0.12406824245 
0.12963210547 0.1355602365 0.1415419027 0.14726151597 0.15243688081 0.15684623114 0.16034408647 0.16286742948 0.16443548862 
0.16513933913 0.16508719016 0.16430821469 0.16276813149 0.1604696487 0.15748867113 0.15395588214 0.15002134373 0.14581871665 
0.14143849694 0.13691563717 0.13223372654 0.12734559447 0.12220467875 0.11679349498 0.11113472729 0.10528093994 0.099293094186 
0.093223877271 0.087112462697 0.080984938248 0.07485438167 0.068720547265 0.062571677002 0.056390124401 0.050161768918 0.043887617439 
0.03759505658 0.031346244846 0.025241869 0.019419376579 0.014045557969 0.009304088221 0.0053794327226 0.0024391919021 0.00061725666159 
2.1846043416e-17 
