# vtk DataFile Version 5.1
vtk output
ASCII
DATASET POLYDATA
POINTS 100 float
0.148559 0.0682912 0.694907 0.148566 0.0682578 0.695016 0.14867 0.068018 0.695189 
0.148818 0.067613 0.695336 0.148927 0.067105 0.695318 0.148894 0.0665694 0.694961 
0.148616 0.0660837 0.694067 0.147998 0.0657167 0.692441 0.146968 0.0655184 0.689901 
0.145484 0.0655122 0.686298 0.143537 0.0656894 0.681527 0.141153 0.0660092 0.675536 
0.13838 0.0664008 0.668329 0.135281 0.0667708 0.659961 0.131922 0.0670128 0.650532 
0.128355 0.0670185 0.640175 0.124609 0.0666905 0.629042 0.120684 0.0659529 0.617293 
0.116546 0.0647606 0.605075 0.112134 0.0631053 0.592518 0.107367 0.0610174 0.579721 
0.102157 0.0585639 0.566751 0.0964246 0.0558433 0.55364 0.0901165 0.0529763 0.540391 
0.0832155 0.0500953 0.526982 0.0757508 0.0473329 0.513377 0.0678 0.0448104 0.499532 
0.0594845 0.0426286 0.485405 0.0509592 0.0408604 0.470963 0.0423956 0.0395471 0.456184 
0.0339625 0.0386977 0.441062 0.025806 0.0382915 0.425602 0.0180307 0.0382839 0.409814 
0.0106868 0.0386128 0.393711 0.0037628 0.0392074 0.3773 -0.0028125 0.0399962 0.360574 
-0.0091608 0.0409141 0.343508 -0.0154372 0.0419078 0.326057 -0.0218077 0.0429396 0.308157 
-0.0284244 0.0439883 0.289724 -0.0354006 0.045048 0.270668 -0.0427901 0.0461257 0.250896 
-0.0505723 0.0472367 0.230328 -0.0586468 0.0484003 0.208903 -0.0668368 0.0496352 0.18659 
-0.074902 0.0509553 0.163399 -0.08256 0.052367 0.139378 -0.0895125 0.053868 0.11462 
-0.0954755 0.0554465 0.0892548 -0.100207 0.0570826 0.0634429 -0.10353 0.0587501 0.0373629 
-0.105354 0.0604189 0.0111998 -0.105676 0.0620577 -0.0148687 -0.104586 0.063636 -0.040685 
-0.10225 0.0651257 -0.066122 -0.0988917 0.0665024 -0.0910903 -0.0947702 0.0677452 -0.115541 
-0.0901481 0.0688369 -0.139464 -0.0852671 0.0697623 -0.162883 -0.0803242 0.0705081 -0.185848 
-0.075455 0.0710615 -0.208421 -0.0707259 0.0714098 -0.230665 -0.0661344 0.0715404 -0.252636 
-0.0616177 0.0714413 -0.274366 -0.0570688 0.0711021 -0.295863 -0.0523567 0.0705151 -0.317103 
-0.0473487 0.069677 -0.338036 -0.0419316 0.0685897 -0.358584 -0.0360296 0.0672615 -0.378655 
-0.0296162 0.0657069 -0.398151 -0.0227196 0.0639466 -0.416978 -0.0154211 0.062006 -0.435059 
-0.00784714 0.0599137 -0.45234 -0.000155803 0.0576991 -0.468795 0.00747921 0.0553906 -0.484434 
0.0148858 0.0530132 -0.499293 0.0219094 0.0505871 -0.513435 0.0284257 0.0481267 -0.526935 
0.0343489 0.0456403 -0.539875 0.0396351 0.043131 -0.552331 0.0442808 0.0405975 -0.564361 
0.0483164 0.0380365 -0.575998 0.0517981 0.0354444 -0.587244 0.0547968 0.0328199 -0.598069 
0.0573879 0.0301655 -0.608414 0.0596425 0.0274891 -0.618197 0.0616206 0.0248047 -0.627324 
0.0633677 0.0221328 -0.635697 0.064914 0.0194995 -0.643229 0.0662768 0.0169353 -0.649855 
0.0674638 0.0144739 -0.655538 0.0684782 0.0121501 -0.660277 0.0693229 0.0099984 -0.664108 
0.0700037 0.00805115 -0.6671 0.0705317 0.00633754 -0.66935 0.0709229 0.00488268 -0.670968 
0.0711966 0.00370717 -0.672072 0.0713732 0.00282697 -0.672769 0.07147 0.00225346 -0.673146 
0.071499 0.00199367 -0.673259 
LINES 2 100
OFFSETS vtktypeint64
0 100 
CONNECTIVITY vtktypeint64
0 1 2 3 4 5 6 7 8 
9 10 11 12 13 14 15 16 17 
18 19 20 21 22 23 24 25 26 
27 28 29 30 31 32 33 34 35 
36 37 38 39 40 41 42 43 44 
45 46 47 48 49 50 51 52 53 
54 55 56 57 58 59 60 61 62 
63 64 65 66 67 68 69 70 71 
72 73 74 75 76 77 78 79 80 
81 82 83 84 85 86 87 88 89 
90 91 92 93 94 95 96 97 98 
99 
POINT_DATA 100
FIELD FieldData 3
_theta 1 100 double
0 0.031733259127 0.063466518254 0.095199777382 0.12693303651 0.15866629564 0.19039955476 0.22213281389 0.25386607302 
0.28559933214 0.31733259127 0.3490658504 0.38079910953 0.41253236865 0.44426562778 0.47599888691 0.50773214603 0.53946540516 
0.57119866429 0.60293192342 0.63466518254 0.66639844167 0.6981317008 0.72986495992 0.76159821905 0.79333147818 0.82506473731 
0.85679799643 0.88853125556 0.92026451469 0.95199777382 0.98373103294 1.0154642921 1.0471975512 1.0789308103 1.1106640695 
1.1423973286 1.1741305877 1.2058638468 1.237597106 1.2693303651 1.3010636242 1.3327968833 1.3645301425 1.3962634016 
1.4279966607 1.4597299198 1.491463179 1.5231964381 1.5549296972 1.5866629564 1.6183962155 1.6501294746 1.6818627337 
1.7135959929 1.745329252 1.7770625111 1.8087957702 1.8405290294 1.8722622885 1.9039955476 1.9357288068 1.9674620659 
1.999195325 2.0309285841 2.0626618433 2.0943951024 2.1261283615 2.1578616206 2.1895948798 2.2213281389 2.253061398 
2.2847946572 2.3165279163 2.3482611754 2.3799944345 2.4117276937 2.4434609528 2.4751942119 2.506927471 2.5386607302 
2.5703939893 2.6021272484 2.6338605076 2.6655937667 2.6973270258 2.7290602849 2.7607935441 2.7925268032 2.8242600623 
2.8559933214 2.8877265806 2.9194598397 2.9511930988 2.982926358 3.0146596171 3.0463928762 3.0781261353 3.1098593945 
3.1415926536 
_radius 1 100 double
7.3066256274e-16 0.015217117761 0.030282028148 0.045050856465 0.059396425615 0.073214225015 0.086425880385 0.098979829313 0.11084930425 
0.1220281247 0.1325251294 0.14235825116 0.15154918399 0.16011930867 0.16808712446 0.17546704741 0.18226923042 0.18850008375 
0.19416335086 0.19926177971 0.2037994986 0.2077851048 0.21123522791 0.21417801717 0.21665572107 0.21872538097 0.22045674846 
0.22192693562 0.22321202466 0.22437676673 0.22546429717 0.22648812155 0.22742824392 0.228232311 0.22882146965 0.22909979031 
0.22896583979 0.22832513856 0.22710246552 0.22525306893 0.22277185325 0.21969965205 0.21612576462 0.21218596831 0.20805526751 
0.20393492795 0.20003418479 0.19654853281 0.19363825998 0.19141180443 0.18991766959 0.18914618041 0.18903944325 0.18950562068 
0.19043272798 0.19169813082 0.19317309359 0.1947259393 0.19622906201 0.19757155096 0.19867375482 0.19949825861 0.20005392492 
0.20039258471 0.20059973393 0.2007812832 0.20104848167 0.20150277032 0.20222164643 0.2032460928 0.20457041391 0.20613637748 
0.20783394835 0.20950940402 0.21097928485 0.21204737824 0.21252209698 0.21223227902 0.21103996864 0.20884909538 0.20560932111 
0.20131479907 0.19599818827 0.18972090706 0.18256115338 0.174601524 0.16591803961 0.15657202642 0.14660571878 0.13604180066 
0.1248865532 0.11313589789 0.10078339567 0.087829111323 0.074288146835 0.060197624054 0.04562103155 0.030649180486 0.015397505068 
1.3034525736e-15 
_area 1 100 double
0 0.00056176586047 0.0022338385957 0.0049771458059 0.0087287210906 0.013405266011 0.018908243483 0.025129754681 0.031957798676 
0.039279297954 0.046979904265 0.054941206711 0.063037860078 0.071137888531 0.079108061909 0.086823506653 0.094178351217 0.10109348233 
0.10751858506 0.11342802576 0.11881295208 0.12367410176 0.12801992268 0.13187178788 0.13527308431 0.13829507164 0.14103346035 
0.14359511289 0.1460788383 0.14855498905 0.15104781341 0.15352437789 0.15589382005 0.15801946446 0.1597443176 0.16093790753 
0.16151659253 0.16118000661 0.15961877794 0.15673125958 0.15260444482 0.14756768766 0.14193477036 0.13597716703 0.13001326292 
0.12437960752 0.11936071476 0.11513310306 0.1117313249 0.109051947 0.10689688361 0.10503423651 0.10325332612 0.10140900759 
0.099455529033 0.097461164525 0.095598026637 0.094181718001 0.093621709061 0.09362865088 0.093810616548 0.093777306723 0.093401942265 
0.092778881843 0.092026105719 0.091316710595 0.090764435484 0.090548985978 0.090821017318 0.091717041688 0.093378313213 0.095937235858 
0.098789187318 0.1016653326 0.10436219091 0.10683180038 0.10887803195 0.10999591822 0.1099850338 0.1087426137 0.10624705514 
0.10255365627 0.097782152152 0.092097254538 0.085685749905 0.078734852352 0.071416297338 0.063878786672 0.056248631937 0.048636294772 
0.041145770046 0.033884032972 0.026968410999 0.020530386506 0.014714905425 0.0096748812576 0.0055614259425 0.0025113201661 0.00063394374536 
3.4704631435e-17 
