# vtk DataFile Version 5.1
vtk output
ASCII
DATASET POLYDATA
POINTS 100 float
0.0688382 0.0311363 0.622475 0.0692076 0.0314649 0.622365 0.0703189 0.0322824 0.621914 
0.0720501 0.0335116 0.621088 0.074214 0.0350351 0.619836 0.0765794 0.0367106 0.618095 
0.0788979 0.0383881 0.615798 0.0809318 0.0399291 0.612881 0.0824798 0.0412235 0.609287 
0.0833976 0.0422025 0.604979 0.0836111 0.0428468 0.599938 0.0831198 0.0431872 0.594167 
0.0819915 0.0432994 0.587693 0.0803482 0.0432928 0.580558 0.0783458 0.0432946 0.57282 
0.0761501 0.0434322 0.564546 0.0739124 0.0438153 0.555801 0.0717485 0.0445205 0.546651 
0.0697225 0.0455805 0.537151 0.0678395 0.0469788 0.527344 0.0660453 0.0486507 0.51726 
0.0642356 0.0504908 0.506919 0.062272 0.0523652 0.496331 0.0600022 0.0541273 0.4855 
0.0572825 0.055635 0.47443 0.0539992 0.0567671 0.463128 0.0500852 0.0574366 0.451605 
0.0455314 0.0575997 0.439882 0.0403894 0.057259 0.427989 0.0347667 0.0564617 0.41596 
0.028814 0.0552915 0.403833 0.0227078 0.0538577 0.391641 0.0166288 0.0522809 0.379411 
0.0107409 0.0506789 0.367155 0.0051716 0.0491543 0.354864 -1.15079e-06 0.0477844 0.342509 
-0.0047567 0.046616 0.330034 -0.00913099 0.0456652 0.317361 -0.0132085 0.0449208 0.30439 
-0.0171081 0.044352 0.291008 -0.0209639 0.0439189 0.277093 -0.0249047 0.0435827 0.262523 
-0.0290342 0.0433158 0.247189 -0.033414 0.0431092 0.230997 -0.0380526 0.0429764 0.213879 
-0.0429012 0.0429528 0.195798 -0.0478562 0.0430919 0.176752 -0.052769 0.0434569 0.156773 
-0.057461 0.0441113 0.135923 -0.0617421 0.0451081 0.114298 -0.0654303 0.0464796 0.0920128 
-0.06837 0.0482303 0.0692007 -0.0704466 0.0503326 0.0460025 -0.0715963 0.0527271 0.0225596 
-0.0718099 0.0553265 -0.000992793 -0.0711295 0.058024 -0.0245318 -0.0696408 0.0607035 -0.0479516 
-0.0674603 0.0632514 -0.0711665 -0.0647202 0.0655681 -0.0941122 -0.0615534 0.0675774 -0.116746 
-0.0580789 0.0692327 -0.139042 -0.054391 0.0705194 -0.160996 -0.0505529 0.0714527 -0.182611 
-0.0465943 0.0720713 -0.203901 -0.0425144 0.0724288 -0.224883 -0.0382884 0.0725817 -0.245573 
-0.0338765 0.0725785 -0.265981 -0.0292351 0.0724491 -0.286108 -0.0243268 0.0721971 -0.305942 
-0.0191293 0.0717956 -0.325458 -0.0136418 0.0711876 -0.344614 -0.007888 0.0702902 -0.363357 
-0.00191612 0.0690032 -0.381618 0.00420449 0.0672198 -0.399321 0.0103886 0.0648389 -0.416385 
0.016542 0.061778 -0.432728 0.0225682 0.0579838 -0.448274 0.0283752 0.0534403 -0.462958 
0.0338807 0.0481732 -0.476732 0.0390149 0.0422508 -0.489568 0.0437225 0.0357795 -0.50146 
0.0479625 0.0288976 -0.512428 0.0517068 0.0217644 -0.522513 0.0549383 0.0145498 -0.531776 
0.0576492 0.007422 -0.540294 0.0598396 0.00053699 -0.548153 0.0615172 -0.00597041 -0.555439 
0.0626975 -0.0119929 -0.562232 0.0634053 -0.0174543 -0.568599 0.0636762 -0.0223097 -0.574588 
0.063558 -0.026544 -0.580222 0.0631114 -0.0301673 -0.5855 0.0624097 -0.0332095 -0.590395 
0.0615364 -0.0357142 -0.594858 0.0605821 -0.0377324 -0.598822 0.0596389 -0.0393163 -0.602213 
0.0587946 -0.0405147 -0.604953 0.0581262 -0.0413688 -0.606969 0.0576941 -0.0419093 -0.608206 
0.0575365 -0.0421541 -0.608624 
LINES 2 100
OFFSETS vtktypeint64
0 100 
CONNECTIVITY vtktypeint64
0 1 2 3 4 5 6 7 8 
9 10 11 12 13 14 15 16 17 
18 19 20 21 22 23 24 25 26 
27 28 29 30 31 32 33 34 35 
36 37 38 39 40 41 42 43 44 
45 46 47 48 49 50 51 52 53 
54 55 56 57 58 59 60 61 62 
63 64 65 66 67 68 69 70 71 
72 73 74 75 76 77 78 79 80 
81 82 83 84 85 86 87 88 89 
90 91 92 93 94 95 96 97 98 
99 
POINT_DATA 100
FIELD FieldData 3
_theta 1 100 double
0 0.031733259127 0.063466518254 0.095199777382 0.12693303651 0.15866629564 0.19039955476 0.22213281389 0.25386607302 
0.28559933214 0.31733259127 0.3490658504 0.38079910953 0.41253236865 0.44426562778 0.47599888691 0.50773214603 0.53946540516 
0.57119866429 0.60293192342 0.63466518254 0.66639844167 0.6981317008 0.72986495992 0.76159821905 0.79333147818 0.82506473731 
0.85679799643 0.88853125556 0.92026451469 0.95199777382 0.98373103294 1.0154642921 1.0471975512 1.0789308103 1.1106640695 
1.1423973286 1.1741305877 1.2058638468 1.237597106 1.2693303651 1.3010636242 1.3327968833 1.3645301425 1.3962634016 
1.4279966607 1.4597299198 1.491463179 1.5231964381 1.5549296972 1.5866629564 1.6183962155 1.6501294746 1.6818627337 
1.7135959929 1.745329252 1.7770625111 1.8087957702 1.8405290294 1.8722622885 1.9039955476 1.9357288068 1.9674620659 
1.999195325 2.0309285841 2.0626618433 2.0943951024 2.1261283615 2.1578616206 2.1895948798 2.2213281389 2.253061398 
2.2847946572 2.3165279163 2.3482611754 2.3799944345 2.4117276937 2.4434609528 2.4751942119 2.506927471 2.5386607302 
2.5703939893 2.6021272484 2.6338605076 2.6655937667 2.6973270258 2.7290602849 2.7607935441 2.7925268032 2.8242600623 
2.8559933214 2.8877265806 2.9194598397 2.9511930988 2.982926358 3.0146596171 3.0463928762 3.0781261353 3.1098593945 
3.1415926536 
_radius 1 100 double
8.9379849011e-16 0.014599913191 0.029053911902 0.043223858323 0.056991838579 0.070266322201 0.082984358805 0.095109978477 0.10662990482 
0.11754816902 0.12788096018 0.13765226035 0.14689004331 0.15562254228 0.16387438716 0.17166297549 0.17899585187 0.18586985341 
0.19227234266 0.19818424008 0.20358409138 0.2084522473 0.21277439742 0.21654407054 0.21976413462 0.22244764227 0.22461842725 
0.22631159552 0.22757357256 0.22846093925 0.22903720672 0.22936707865 0.22950851532 0.2295037608 0.22937110133 0.22909926797 
0.22864603592 0.2279418419 0.22689836067 0.2254211377 0.22342464276 0.22084753608 0.21766566066 0.21390050492 0.20962171848 
0.20494351595 0.20001600489 0.19501314782 0.19011904145 0.18551374638 0.18135956789 0.1777888271 0.17489457788 0.17272579243 
0.1712877864 0.17054729117 0.17044036182 0.17088088395 0.17176789703 0.17299094665 0.17443380794 0.17597779528 0.17750606377 
0.17890963531 0.18009473724 0.18099012945 0.18155281425 0.18177076207 0.1816617649 0.18126814004 0.18064784852 0.17986366468 
0.17897282843 0.17801931678 0.17702947308 0.17601030533 0.17494915239 0.17381353439 0.17255054681 0.17108600491 0.16932446992 
0.16715178418 0.16444132481 0.16106389512 0.15689970442 0.15185006986 0.14584662426 0.13885663603 0.13088403406 0.12196653919 
0.11216982825 0.10157992608 0.090295085038 0.078418298853 0.066051327435 0.05329072338 0.040225928812 0.026939152286 0.013506524384 
3.6591894926e-16 
_area 1 100 double
0 0.00050887274497 0.0020178743551 0.0044761151492 0.0078046458578 0.011903431278 0.016658816177 0.02195106548 0.027662115589 
0.033683358387 0.039922267403 0.046305790065 0.052778632006 0.059296214285 0.065814704244 0.072282859453 0.078640549581 0.084825630549 
0.090785908736 0.096489252924 0.10192465504 0.10709110633 0.11197852702 0.1165514472 0.12074672024 0.1244907839 0.12773369663 
0.1304889235 0.13285690452 0.1349989893 0.13705605322 0.13908063352 0.14103840935 0.14285086807 0.14443880267 0.14575037432 
0.1467670354 0.14747688897 0.14780455823 0.14754445847 0.14641240706 0.14418694085 0.14078449764 0.13627370237 0.13084811931 
0.12478367197 0.11839292557 0.11198312361 0.10582716142 0.10014822716 0.095112153056 0.090821692328 0.087312475534 0.084555386013 
0.082470099436 0.080948528389 0.079879899304 0.079168139977 0.078736271572 0.078516421795 0.078430703833 0.078377334397 0.078234285816 
0.077879861568 0.077221649581 0.076223398202 0.074915775767 0.073373510347 0.071672163752 0.069878883804 0.068067689547 0.066318725986 
0.064707679372 0.063298912974 0.062144363361 0.06127658526 0.060668753439 0.060233199307 0.059907930664 0.05967219031 0.059493806266 
0.059282096854 0.05888315491 0.058106919172 0.056764213006 0.054703857755 0.051841249939 0.048172253913 0.043772259438 0.038783826556 
0.033397416082 0.027829819834 0.022304362438 0.017035640571 0.01221972141 0.0080289331508 0.0046093000512 0.0020786444192 0.0005242319176 
1.8702355997e-17 
