# vtk DataFile Version 5.1
vtk output
ASCII
DATASET POLYDATA
POINTS 100 float
0.0925414 0.0592793 0.616412 0.0928082 0.0592415 0.616425 0.093634 0.0589438 0.616289 
0.0949268 0.0584271 0.615958 0.096545 0.0577541 0.61536 0.0983115 0.0570012 0.614405 
0.100033 0.0562486 0.612988 0.10152 0.0555696 0.611005 0.102603 0.0550213 0.608356 
0.10315 0.0546367 0.604957 0.103078 0.0544205 0.600744 0.102354 0.0543484 0.595679 
0.100992 0.05437 0.589754 0.0990511 0.054415 0.582984 0.0966172 0.0544022 0.575414 
0.0937908 0.0542495 0.567104 0.090671 0.0538842 0.558131 0.0873409 0.0532522 0.548581 
0.0838576 0.0523245 0.538541 0.0802453 0.0511009 0.528092 0.0764945 0.0496097 0.517311 
0.0725667 0.0479049 0.50626 0.0684026 0.0460593 0.494988 0.0639343 0.0441566 0.483529 
0.0590975 0.0422819 0.471904 0.0538447 0.0405131 0.460121 0.0481546 0.0389131 0.448174 
0.0420384 0.0375253 0.436049 0.035541 0.0363712 0.423721 0.028738 0.0354513 0.411161 
0.0217276 0.0347495 0.398328 0.0146202 0.0342386 0.385181 0.00752548 0.033888 0.371672 
0.000540137 0.0336711 0.357748 -0.00626233 0.0335715 0.343359 -0.0128387 0.0335883 0.328451 
-0.0191784 0.0337376 0.312977 -0.0253013 0.0340519 0.296893 -0.0312505 0.0345766 0.280169 
-0.0370816 0.0353642 0.262784 -0.0428502 0.0364668 0.244734 -0.0485979 0.037928 0.226032 
-0.0543409 0.0397758 0.206708 -0.0600607 0.0420162 0.186811 -0.0656998 0.04463 0.166404 
-0.0711622 0.0475718 0.145561 -0.0763196 0.0507722 0.124367 -0.0810216 0.0541424 0.102906 
-0.0851098 0.0575815 0.0812625 -0.0884333 0.0609842 0.0595139 -0.0908646 0.0642501 0.0377265 
-0.0923126 0.067291 0.0159535 -0.0927327 0.0700373 -0.0057668 -0.0921316 0.0724428 -0.0274104 
-0.0905664 0.0744855 -0.0489664 -0.0881384 0.0761671 -0.0704343 -0.0849828 0.0775095 -0.0918202 
-0.0812539 0.0785493 -0.113133 -0.0771095 0.0793318 -0.134381 -0.072695 0.0799041 -0.155567 
-0.0681301 0.0803089 -0.176686 -0.0634988 0.0805792 -0.197726 -0.0588437 0.0807353 -0.218662 
-0.0541668 0.0807825 -0.239461 -0.049434 0.0807116 -0.26008 -0.0445852 0.080501 -0.280471 
-0.0395467 0.0801188 -0.300578 -0.0342457 0.0795275 -0.320342 -0.0286242 0.0786872 -0.339703 
-0.0226514 0.0775595 -0.358601 -0.0163324 0.0761105 -0.376977 -0.00971258 0.0743126 -0.394774 
-0.00287766 0.0721463 -0.411941 0.00405184 0.0696001 -0.428427 0.0109296 0.0666708 -0.444192 
0.0175958 0.0633629 -0.459199 0.0238912 0.059688 -0.473423 0.029671 0.0556647 -0.486848 
0.0348177 0.0513182 -0.499472 0.0392511 0.0466809 -0.511304 0.0429342 0.0417926 -0.522371 
0.0458762 0.0367006 -0.532712 0.0481292 0.0314601 -0.542379 0.0497828 0.0261337 -0.551434 
0.0509542 0.0207902 -0.559945 0.0517767 0.0155026 -0.567982 0.0523875 0.0103457 -0.575608 
0.0529148 0.00539264 -0.582876 0.0534675 0.000711612 -0.589825 0.0541265 -0.00363756 -0.596471 
0.0549393 -0.00760633 -0.602807 0.0559186 -0.0111594 -0.608802 0.057043 -0.0142756 -0.614401 
0.0582626 -0.0169473 -0.619531 0.0595055 -0.0191788 -0.624102 0.0606876 -0.0209832 -0.628022 
0.0617215 -0.0223791 -0.631196 0.0625271 -0.0233862 -0.63354 0.0630402 -0.0240216 -0.634988 
0.0632187 -0.0242968 -0.635497 
LINES 2 100
OFFSETS vtktypeint64
0 100 
CONNECTIVITY vtktypeint64
0 1 2 3 4 5 6 7 8 
9 10 11 12 13 14 15 16 17 
18 19 20 21 22 23 24 25 26 
27 28 29 30 31 32 33 34 35 
36 37 38 39 40 41 42 43 44 
45 46 47 48 49 50 51 52 53 
54 55 56 57 58 59 60 61 62 
63 64 65 66 67 68 69 70 71 
72 73 74 75 76 77 78 79 80 
81 82 83 84 85 86 87 88 89 
90 91 92 93 94 95 96 97 98 
99 
POINT_DATA 100
FIELD FieldData 3
_theta 1 100 double
0 0.031733259127 0.063466518254 0.095199777382 0.12693303651 0.15866629564 0.19039955476 0.22213281389 0.25386607302 
0.28559933214 0.31733259127 0.3490658504 0.38079910953 0.41253236865 0.44426562778 0.47599888691 0.50773214603 0.53946540516 
0.57119866429 0.60293192342 0.63466518254 0.66639844167 0.6981317008 0.72986495992 0.76159821905 0.79333147818 0.82506473731 
0.85679799643 0.88853125556 0.92026451469 0.95199777382 0.98373103294 1.0154642921 1.0471975512 1.0789308103 1.1106640695 
1.1423973286 1.1741305877 1.2058638468 1.237597106 1.2693303651 1.3010636242 1.3327968833 1.3645301425 1.3962634016 
1.4279966607 1.4597299198 1.491463179 1.5231964381 1.5549296972 1.5866629564 1.6183962155 1.6501294746 1.6818627337 
1.7135959929 1.745329252 1.7770625111 1.8087957702 1.8405290294 1.8722622885 1.9039955476 1.9357288068 1.9674620659 
1.999195325 2.0309285841 2.0626618433 2.0943951024 2.1261283615 2.1578616206 2.1895948798 2.2213281389 2.253061398 
2.2847946572 2.3165279163 2.3482611754 2.3799944345 2.4117276937 2.4434609528 2.4751942119 2.506927471 2.5386607302 
2.5703939893 2.6021272484 2.6338605076 2.6655937667 2.6973270258 2.7290602849 2.7607935441 2.7925268032 2.8242600623 
2.8559933214 2.8877265806 2.9194598397 2.9511930988 2.982926358 3.0146596171 3.0463928762 3.0781261353 3.1098593945 
3.1415926536 
_radius 1 100 double
1.3343079813e-15 0.01368717565 0.027369362933 0.041027335524 0.054631871199 0.068140332499 0.08149505567 0.094624133732 0.10744474801 
0.11986870249 0.13180945567 0.14318976505 0.1539489718 0.16404889705 0.17347733544 0.1822483098 0.19039865062 0.19798106534 
0.20505457465 0.21167386086 0.21787949955 0.22369104252 0.22910440389 0.2340940732 0.23861960864 0.24263496873 0.2460987499 
0.24898337006 0.25128159604 0.25300940842 0.254204881 0.25492339999 0.25523007829 0.25519058905 0.25486184106 0.25428394134 
0.2534747359 0.25242789813 0.25111508632 0.24949216633 0.247508919 0.24512104697 0.2423027435 0.23905774058 0.23542678628 
0.23148999358 0.22736339256 0.22319009922 0.21912749535 0.21533242073 0.21194647983 0.20908324788 0.20681866725 0.2051854357 
0.20417168631 0.20372365865 0.20375151868 0.20413739181 0.20474517235 0.20543224588 0.20606309647 0.20652367547 0.20673417719 
0.2066575178 0.20630162556 0.20571509106 0.20497708135 0.20418329351 0.20343007812 0.20279884921 0.20234266625 0.20207648908 
0.20197206684 0.20195774563 0.20192281747 0.20172562054 0.2012045439 0.20019116744 0.19852459951 0.19606557093 0.19270838406 
0.18838888009 0.18308728356 0.1768258086 0.16966184225 0.16167808266 0.15297115824 0.14364011238 0.13377590575 0.1234529264 
0.11272345598 0.10161600874 0.090138217751 0.078284292276 0.066046033362 0.053425290668 0.040445055349 0.027156473358 0.013639959156 
3.0452994589e-16 
_area 1 100 double
0 0.00056927669525 0.0022690955358 0.0050754757221 0.0089484191216 0.013831423581 0.019650613085 0.026314043114 0.033711772732 
0.04171689228 0.050187514015 0.058970209323 0.067906065878 0.076840469101 0.085636351515 0.094188487461 0.10243466867 0.11035944477 
0.11798794488 0.12537048954 0.13256183778 0.13960044522 0.14649234878 0.15320205944 0.15965103886 0.16572415343 0.17128460477 
0.17619600595 0.18034709654 0.18367282259 0.18616635437 0.1878790948 0.18890849208 0.18937582945 0.18939810017 0.189059727 
0.18839079033 0.18735769323 0.18586965444 0.18380070646 0.18102262313 0.17744048778 0.1730212149 0.16780747154 0.16191460092 
0.15551413456 0.14881129994 0.14202342465 0.13536208012 0.12901875312 0.12315571122 0.11790532157 0.11337412638 0.10964071071 
0.1067439174 0.10467554952 0.10341436737 0.10296674576 0.10302576301 0.10330500041 0.10354694122 0.10354078216 0.10313130359 
0.1022304004 0.10082685146 0.09897973163 0.096803724552 0.0944548667 0.092118160333 0.089994367599 0.088293660216 0.087309071005 
0.087137199131 0.087587331448 0.088482210701 0.089640227363 0.090833549677 0.091799796619 0.092270145438 0.092000782322 0.090801399301 
0.088555733452 0.085231038804 0.080876132889 0.075609671029 0.069601377721 0.063049938295 0.056161890145 0.049135021993 0.042147614363 
0.035352960544 0.02887832789 0.022828392022 0.017293242601 0.012359099725 0.0081173509512 0.0046671346682 0.0021092338199 0.00053286680329 
7.6029152046e-18 
