# vtk DataFile Version 5.1
vtk output
ASCII
DATASET POLYDATA
POINTS 100 float
0.155635 0.0464156 0.685185 0.155701 0.0465055 0.684942 0.1558 0.0468848 0.684332 
0.155896 0.0475305 0.683357 0.155933 0.0484066 0.682015 0.155841 0.0494665 0.680299 
0.155545 0.0506558 0.678185 0.15497 0.0519157 0.675638 0.154052 0.0531862 0.672601 
0.15274 0.0544092 0.669002 0.151005 0.0555314 0.66475 0.14884 0.0565058 0.659752 
0.146256 0.0572935 0.653913 0.143284 0.0578642 0.647152 0.139964 0.0581958 0.639409 
0.136343 0.0582737 0.630659 0.132465 0.0580904 0.620915 0.128363 0.0576432 0.610234 
0.124057 0.0569342 0.598713 0.119546 0.0559686 0.586483 0.114812 0.0547545 0.573699 
0.109821 0.0533033 0.560525 0.104526 0.0516297 0.547122 0.0988738 0.0497532 0.533629 
0.0928169 0.0476991 0.520153 0.0863186 0.0454998 0.506759 0.079362 0.0431961 0.493466 
0.0719553 0.0408375 0.480249 0.0641352 0.0384823 0.467041 0.0559661 0.0361963 0.453748 
0.0475365 0.0340506 0.440261 0.0389521 0.0321189 0.426467 0.0303261 0.0304737 0.412266 
0.0217689 0.0291814 0.397581 0.0133767 0.0282982 0.382365 0.00522232 0.0278659 0.366599 
-0.00265226 0.0279078 0.350297 -0.0102389 0.0284271 0.333492 -0.0175626 0.0294048 0.316231 
-0.0246761 0.0308014 0.298561 -0.0316504 0.0325586 0.280519 -0.0385623 0.0346034 0.262122 
-0.0454797 0.0368533 0.243363 -0.0524472 0.0392226 0.224211 -0.0594731 0.0416286 0.204613 
-0.0665195 0.0439976 0.184501 -0.0734973 0.0462708 0.163808 -0.0802668 0.0484073 0.142474 
-0.0866441 0.0503871 0.120466 -0.0924131 0.0522106 0.0977796 -0.0973423 0.0538968 0.0744537 
-0.101204 0.0554798 0.0505669 -0.103795 0.057003 0.0262361 -0.104956 0.0585136 0.00160821 
-0.104589 0.0600556 -0.0231523 -0.102665 0.0616637 -0.0478774 -0.0992338 0.0633585 -0.0724106 
-0.0944162 0.0651421 -0.0966202 -0.0883977 0.066997 -0.120409 -0.0814122 0.0688856 -0.143721 
-0.0737216 0.0707526 -0.166539 -0.065594 0.0725289 -0.188884 -0.0572807 0.0741366 -0.210803 
-0.0489962 0.0754948 -0.232357 -0.0409028 0.0765258 -0.25361 -0.0331003 0.0771606 -0.274614 
-0.0256245 0.0773437 -0.295402 -0.0184509 0.0770363 -0.315976 -0.0115065 0.0762185 -0.336313 
-0.00468564 0.0748892 -0.356362 0.00213058 0.0730651 -0.376053 0.00905413 0.0707786 -0.39531 
0.0161717 0.0680743 -0.414057 0.0235298 0.0650057 -0.43223 0.031126 0.0616321 -0.449789 
0.0389054 0.0580153 -0.466717 0.0467653 0.0542174 -0.48302 0.0545646 0.0502995 -0.498727 
0.0621392 0.0463204 -0.513874 0.0693189 0.0423373 -0.528497 0.0759467 0.0384052 -0.542619 
0.081895 0.0345775 -0.556237 0.0870792 0.0309062 -0.569314 0.0914659 0.0274413 -0.581778 
0.0950747 0.0242301 -0.593523 0.0979747 0.0213153 -0.604418 0.100274 0.0187332 -0.614318 
0.102107 0.016511 -0.623085 0.103618 0.014665 -0.630601 0.104941 0.0131979 -0.636794 
0.106191 0.0120981 -0.641642 0.107447 0.0113396 -0.645192 0.108748 0.0108825 -0.647553 
0.110092 0.0106758 -0.648895 0.111438 0.0106607 -0.649435 0.112718 0.0107751 -0.649415 
0.11385 0.0109585 -0.649083 0.114747 0.0111571 -0.648664 0.115337 0.0113285 -0.648338 
0.11557 0.0114451 -0.648223 
LINES 2 100
OFFSETS vtktypeint64
0 100 
CONNECTIVITY vtktypeint64
0 1 2 3 4 5 6 7 8 
9 10 11 12 13 14 15 16 17 
18 19 20 21 22 23 24 25 26 
27 28 29 30 31 32 33 34 35 
36 37 38 39 40 41 42 43 44 
45 46 47 48 49 50 51 52 53 
54 55 56 57 58 59 60 61 62 
63 64 65 66 67 68 69 70 71 
72 73 74 75 76 77 78 79 80 
81 82 83 84 85 86 87 88 89 
90 91 92 93 94 95 96 97 98 
99 
POINT_DATA 100
FIELD FieldData 3
_theta 1 100 double
0 0.031733259127 0.063466518254 0.095199777382 0.12693303651 0.15866629564 0.19039955476 0.22213281389 0.25386607302 
0.28559933214 0.31733259127 0.3490658504 0.38079910953 0.41253236865 0.44426562778 0.47599888691 0.50773214603 0.53946540516 
0.57119866429 0.60293192342 0.63466518254 0.66639844167 0.6981317008 0.72986495992 0.76159821905 0.79333147818 0.82506473731 
0.85679799643 0.88853125556 0.92026451469 0.95199777382 0.98373103294 1.0154642921 1.0471975512 1.0789308103 1.1106640695 
1.1423973286 1.1741305877 1.2058638468 1.237597106 1.2693303651 1.3010636242 1.3327968833 1.3645301425 1.3962634016 
1.4279966607 1.4597299198 1.491463179 1.5231964381 1.5549296972 1.5866629564 1.6183962155 1.6501294746 1.6818627337 
1.7135959929 1.745329252 1.7770625111 1.8087957702 1.8405290294 1.8722622885 1.9039955476 1.9357288068 1.9674620659 
1.999195325 2.0309285841 2.0626618433 2.0943951024 2.1261283615 2.1578616206 2.1895948798 2.2213281389 2.253061398 
2.2847946572 2.3165279163 2.3482611754 2.3799944345 2.4117276937 2.4434609528 2.4751942119 2.506927471 2.5386607302 
2.5703939893 2.6021272484 2.6338605076 2.6655937667 2.6973270258 2.7290602849 2.7607935441 2.7925268032 2.8242600623 
2.8559933214 2.8877265806 2.9194598397 2.9511930988 2.982926358 3.0146596171 3.0463928762 3.0781261353 3.1098593945 
3.1415926536 
_radius 1 100 double
7.714664614e-16 0.014638834999 0.029255531268 0.043822609271 0.058296854282 0.072614779015 0.086691661307 0.1004244494 0.1136982548 
0.12639561662 0.13840728606 0.14964300748 0.1600407086 0.16957267449 0.17824765078 0.18610836063 0.19322457406 0.19968257751 
0.20557256743 0.21097600584 0.21595515723 0.22054673746 0.2247608407 0.2285852481 0.23199414854 0.23495948007 0.23746268731 
0.23950471456 0.24111245176 0.24234048854 0.24326777332 0.24398951876 0.24460538178 0.24520551532 0.24585644908 0.24658882673 
0.24738879776 0.24819441731 0.2488978729 0.24935382024 0.24939355946 0.24884414568 0.24755077882 0.24540006638 0.24234119813 
0.2384018828 0.23369614652 0.22842178181 0.22284635918 0.21728228724 0.21205341545 0.20745788362 0.20373367532 0.20103360578 
0.19941449524 0.19884134135 0.1992029414 0.20033262939 0.20202795042 0.20406609853 0.2062160402 0.20825083642 0.20996305419 
0.21118296663 0.21179599128 0.21175465818 0.21108159969 0.20986249157 0.20823029983 0.20634387374 0.20436465273 0.20243511359 
0.2006618116 0.19910474872 0.1977735824 0.19663007178 0.19559534025 0.19456016559 0.19339657288 0.19196927316 0.19014572797 
0.18780381391 0.18483639858 0.18115273264 0.17667726885 0.17134704003 0.16510887049 0.15791749929 0.14973532414 0.14053405869 
0.1302981597 0.11902943641 0.10675187426 0.093515514054 0.079398331465 0.064505481393 0.048965926197 0.032927176751 0.016549379158 
7.5160454434e-16 
_area 1 100 double
0 0.00050416196691 0.0020185118246 0.004546180785 0.0080847921263 0.012617004796 0.018100580769 0.024460233388 0.031583147574 
0.039319452376 0.04748823775 0.055888993223 0.064317501764 0.072584182257 0.080531887468 0.088049707177 0.095079677643 0.10161437956 
0.10768514073 0.11334311748 0.11863857673 0.12360538978 0.12825602343 0.13258782452 0.13659686379 0.14029264996 0.14370637709 
0.14688813424 0.14989428451 0.15277197015 0.1555496746 0.15823896932 0.16084478089 0.16337537584 0.16584350793 0.16825568559 
0.17059223886 0.17278423518 0.1746969657 0.17613016258 0.17683884641 0.1765698315 0.17510493378 0.17230318228 0.16813392415 
0.16269344165 0.15620135384 0.14897806211 0.14140877223 0.13390182492 0.12684870287 0.12059034514 0.11538975231 0.11140471467 
0.10865871487 0.10704099656 0.1063521785 0.1063512703 0.10678263414 0.10739150323 0.10793761247 0.10821265335 0.10806030995 
0.107389861 0.10617266364 0.10442125631 0.10217033253 0.099478018012 0.096437178559 0.093179577259 0.089868541971 0.086682348575 
0.083793268888 0.081348215942 0.079454090086 0.078139679093 0.077431024184 0.077175087619 0.07736153117 0.077899006988 0.078413190628 
0.078577151684 0.07818888175 0.077072976082 0.075072713978 0.072067863064 0.067999835413 0.062891340263 0.056852447326 0.05007256033 
0.042803195389 0.035337132755 0.027986804819 0.021061756904 0.01484433579 0.0095652418192 0.0053846393756 0.002386932148 0.00059486677075 
7.1642889164e-17 
