# vtk DataFile Version 5.1
vtk output
ASCII
DATASET POLYDATA
POINTS 100 float
0.158993 -0.0144567 -0.582393 0.158742 -0.0144723 -0.582237 0.15799 -0.014409 -0.581834 
0.156734 -0.0142581 -0.581141 0.154965 -0.0140051 -0.580094 0.15268 -0.0136298 -0.57861 
0.149882 -0.0131062 -0.5766 0.14658 -0.0124039 -0.573976 0.142798 -0.0114888 -0.570662 
0.138571 -0.0103246 -0.566596 0.133942 -0.00887531 -0.561741 0.128966 -0.00710755 -0.556082 
0.123694 -0.00499314 -0.549627 0.118181 -0.00251208 -0.542403 0.112467 0.000344823 -0.53445 
0.106582 0.00357375 -0.525815 0.100541 0.0071563 -0.516544 0.0943409 0.0110588 -0.506679 
0.0879644 0.0152329 -0.496251 0.0813853 0.0196168 -0.485281 0.0745733 0.0241379 -0.473777 
0.0675023 0.0287167 -0.461737 0.0601565 0.0332707 -0.449156 0.0525372 0.0377191 -0.436024 
0.0446655 0.0419874 -0.422336 0.0365832 0.046012 -0.408089 0.0283504 0.0497431 -0.393292 
0.0200398 0.0531477 -0.377958 0.0117287 0.0562101 -0.362106 0.00349063 0.058932 -0.345756 
-0.00461379 0.0613305 -0.328927 -0.0125435 0.063435 -0.311632 -0.0202809 0.0652832 -0.293873 
-0.0278325 0.0669165 -0.275641 -0.0352242 0.0683749 -0.256916 -0.0424937 0.0696926 -0.23767 
-0.049679 0.070894 -0.217872 -0.0568058 0.0719905 -0.197497 -0.063874 0.0729795 -0.176532 
-0.0708473 0.0738441 -0.154985 -0.0776456 0.0745547 -0.132893 -0.0841431 0.0750718 -0.110327 
-0.0901721 0.0753502 -0.0873934 -0.095533 0.075344 -0.0642297 -0.10001 0.0750114 -0.0410021 
-0.103389 0.07432 -0.0178945 -0.10548 0.0732512 0.00490348 -0.106138 0.0718039 0.0272093 
-0.105277 0.069996 0.0488613 -0.102887 0.0678654 0.0697303 -0.099035 0.065469 0.0897285 
-0.0938628 0.0628794 0.108815 -0.0875788 0.0601818 0.126997 -0.0804384 0.057468 0.144326 
-0.0727231 0.0548316 0.160888 -0.064715 0.0523612 0.176797 -0.0566726 0.0501358 0.192177 
-0.0488093 0.0482191 0.207154 -0.0412769 0.0466563 0.221838 -0.0341574 0.0454713 0.23632 
-0.0274613 0.0446664 0.250661 -0.0211349 0.0442225 0.264891 -0.0150744 0.0441018 0.27901 
-0.00914453 0.044251 0.292996 -0.00320053 0.0446059 0.30681 0.00289074 0.0450964 0.320407 
0.0092318 0.0456516 0.333748 0.0158807 0.0462049 0.346802 0.0228437 0.0466981 0.359562 
0.0300744 0.047085 0.372038 0.0374805 0.0473332 0.384266 0.0449357 0.0474255 0.396297 
0.0522954 0.0473593 0.408195 0.0594142 0.047145 0.420028 0.0661624 0.0468038 0.431857 
0.0724399 0.0463643 0.443726 0.078185 0.0458592 0.455658 0.0833781 0.0453213 0.467646 
0.0880396 0.0447809 0.479653 0.0922221 0.0442628 0.491613 0.0959996 0.0437843 0.503431 
0.0994539 0.0433545 0.514995 0.102662 0.0429742 0.526182 0.105683 0.0426367 0.536867 
0.108553 0.0423296 0.546932 0.111281 0.0420369 0.556275 0.113847 0.0417415 0.564817 
0.116211 0.0414277 0.572505 0.118324 0.0410836 0.579315 0.120133 0.0407027 0.585248 
0.121597 0.0402851 0.590333 0.122695 0.0398378 0.594618 0.123431 0.0393746 0.598165 
0.123834 0.0389145 0.601047 0.123964 0.0384806 0.603337 0.123894 0.0380972 0.605108 
0.123708 0.037788 0.606426 0.12349 0.0375739 0.607345 0.123308 0.0374705 0.607905 
0.123207 0.0374868 0.608131 
LINES 2 100
OFFSETS vtktypeint64
0 100 
CONNECTIVITY vtktypeint64
0 1 2 3 4 5 6 7 8 
9 10 11 12 13 14 15 16 17 
18 19 20 21 22 23 24 25 26 
27 28 29 30 31 32 33 34 35 
36 37 38 39 40 41 42 43 44 
45 46 47 48 49 50 51 52 53 
54 55 56 57 58 59 60 61 62 
63 64 65 66 67 68 69 70 71 
72 73 74 75 76 77 78 79 80 
81 82 83 84 85 86 87 88 89 
90 91 92 93 94 95 96 97 98 
99 
POINT_DATA 100
FIELD FieldData 3
_theta 1 100 double
0 0.031733259127 0.063466518254 0.095199777382 0.12693303651 0.15866629564 0.19039955476 0.22213281389 0.25386607302 
0.28559933214 0.31733259127 0.3490658504 0.38079910953 0.41253236865 0.44426562778 0.47599888691 0.50773214603 0.53946540516 
0.57119866429 0.60293192342 0.63466518254 0.66639844167 0.6981317008 0.72986495992 0.76159821905 0.79333147818 0.82506473731 
0.85679799643 0.88853125556 0.92026451469 0.95199777382 0.98373103294 1.0154642921 1.0471975512 1.0789308103 1.1106640695 
1.1423973286 1.1741305877 1.2058638468 1.237597106 1.2693303651 1.3010636242 1.3327968833 1.3645301425 1.3962634016 
1.4279966607 1.4597299198 1.491463179 1.5231964381 1.5549296972 1.5866629564 1.6183962155 1.6501294746 1.6818627337 
1.7135959929 1.745329252 1.7770625111 1.8087957702 1.8405290294 1.8722622885 1.9039955476 1.9357288068 1.9674620659 
1.999195325 2.0309285841 2.0626618433 2.0943951024 2.1261283615 2.1578616206 2.1895948798 2.2213281389 2.253061398 
2.2847946572 2.3165279163 2.3482611754 2.3799944345 2.4117276937 2.4434609528 2.4751942119 2.506927471 2.5386607302 
2.5703939893 2.6021272484 2.6338605076 2.6655937667 2.6973270258 2.7290602849 2.7607935441 2.7925268032 2.8242600623 
2.8559933214 2.8877265806 2.9194598397 2.9511930988 2.982926358 3.0146596171 3.0463928762 3.0781261353 3.1098593945 
3.1415926536 
_radius 1 100 double
6.0884840093e-16 0.013751788893 0.027350403875 0.040649688663 0.053518896172 0.065846760057 0.077542296791 0.088532802868 0.098760209825 
0.10817728862 0.11674507723 0.12443239608 0.13121758675 0.13709189444 0.14206342232 0.14616043298 0.1494329595 0.1519521276 
0.15380715086 0.15510049231 0.1559420338 0.15644313395 0.15671116741 0.15684467125 0.15692885385 0.15703118787 0.15719715937 
0.15744678843 0.15777293534 0.15814237188 0.15850007477 0.15877641593 0.15889625627 0.15878874916 0.15839705613 0.15768778587 
0.15665991687 0.15535188478 0.15384435459 0.15225616053 0.15073217398 0.14942424373 0.14846979628 0.14797566757 0.14801341255 
0.14862549941 0.14983529213 0.1516535078 0.15407834094 0.15709069217 0.16064752369 0.16467588977 0.16906936181 0.17368838596 
0.17836606162 0.18291982227 0.18716754585 0.19094498247 0.19412108772 0.19660873087 0.19836952519 0.19941264799 0.19978834464 
0.19957739645 0.19887824335 0.1977937261 0.19641949866 0.19483582459 0.19310350277 0.19126339722 0.18933825718 0.18733558595 
0.18525084579 0.18307069163 0.18077600973 0.17834443674 0.17575196317 0.17297331309 0.16998106116 0.16674382414 0.16322422173 
0.15937749954 0.15515164171 0.15048944774 0.1453324848 0.13962622666 0.13332526669 0.12639741533 0.11882581231 0.11060880253 
0.10175803057 0.092295746466 0.082252474426 0.071665915917 0.060581372777 0.049053335139 0.037147406521 0.024941554996 0.01252581658 
2.4105934563e-16 
_area 1 100 double
0 0.00040678687764 0.0016218509474 0.0036272603411 0.0063870308993 0.0098402017958 0.013894796135 0.018424853131 0.023271946496 
0.028251608937 0.033164215078 0.037809288475 0.042001806361 0.045588724655 0.048463610193 0.050577085978 0.051940977547 0.052624776062 
0.052744398217 0.052445115762 0.051882422176 0.051205423982 0.050545863627 0.050010571021 0.049664477736 0.049520187546 0.049577757878 
0.04983414589 0.050279294511 0.050883831704 0.051625822965 0.052482056502 0.053412673955 0.054368184408 0.05529881625 0.056163405663 
0.056932961499 0.057584491182 0.058108105735 0.058529681079 0.058916294711 0.059358368096 0.059959595758 0.060835257724 0.06209056602 
0.063789737761 0.065943570388 0.068524546695 0.071492474845 0.074812449877 0.078467994259 0.082468753934 0.086836456583 0.091568457357 
0.096599290074 0.10177429886 0.10684459169 0.11149372866 0.11539358325 0.11827152965 0.11996805062 0.12046947521 0.11990615123 
0.1185083636 0.11652192396 0.11412759396 0.11143351721 0.10851782557 0.10546277114 0.102366972 0.099335554232 0.096452234054 
0.093750840368 0.091207739694 0.088755203124 0.086300845998 0.083746891191 0.081008656248 0.078028463136 0.074780641663 0.071267256365 
0.067508066261 0.063529534942 0.059356826352 0.055010776003 0.05050969539 0.045874199707 0.041132519375 0.036324127071 0.031500737557 
0.026725205947 0.022069774856 0.017614964443 0.013449343006 0.0096692513527 0.0063769851748 0.0036761642827 0.0016639032293 0.00042067612562 
1.2143064332e-17 
