# vtk DataFile Version 5.1
vtk output
ASCII
DATASET POLYDATA
POINTS 100 float
0.118962 0.0213562 0.62179 0.118808 0.0217475 0.621816 0.118488 0.0227502 0.621751 
0.118003 0.0243006 0.621545 0.117354 0.0263006 0.621117 0.116539 0.0286276 0.620363 
0.115551 0.0311459 0.619164 0.114382 0.0337194 0.617395 0.113015 0.0362228 0.614935 
0.11143 0.0385514 0.611675 0.109599 0.0406263 0.60753 0.107492 0.0423972 0.602444 
0.105074 0.0438407 0.596392 0.102307 0.0449554 0.589388 0.0991578 0.0457552 0.581478 
0.0955939 0.0462615 0.572739 0.0915915 0.0464955 0.563272 0.0871359 0.0464729 0.553193 
0.0822244 0.0462001 0.542623 0.0768669 0.0456745 0.531677 0.0710866 0.0448875 0.520456 
0.0649192 0.043829 0.509041 0.0584104 0.0424953 0.497483 0.0516134 0.0408955 0.485804 
0.0445846 0.0390579 0.473998 0.0373794 0.0370336 0.462032 0.0300482 0.0348977 0.449856 
0.0226326 0.0327463 0.437407 0.0151624 0.0306901 0.424622 0.00765423 0.0288456 0.411441 
0.000111942 0.0273243 0.397818 -0.00747181 0.0262214 0.383723 -0.0151119 0.025606 0.369147 
-0.0228262 0.0255137 0.354096 -0.0306292 0.0259432 0.338592 -0.0385267 0.0268564 0.322661 
-0.0465099 0.0281837 0.306334 -0.0545506 0.029833 0.289631 -0.0625983 0.0317009 0.272562 
-0.0705793 0.0336858 0.255118 -0.0783982 0.0357001 0.237271 -0.0859417 0.0376811 0.21898 
-0.0930841 0.0395978 0.200189 -0.0996956 0.0414535 0.180842 -0.10565 0.0432841 0.160887 
-0.110833 0.0451516 0.140292 -0.115151 0.047134 0.119048 -0.118538 0.0493129 0.097179 
-0.120956 0.0517609 0.0747473 -0.122402 0.0545295 0.0518501 -0.122902 0.0576397 0.0286166 
-0.122511 0.0610771 0.00519906 -0.121303 0.0647901 -0.0182385 -0.119367 0.0686943 -0.0415336 
-0.116798 0.0726793 -0.0645389 -0.113687 0.0766196 -0.0871341 -0.110116 0.0803862 -0.109235 
-0.106152 0.0838588 -0.130798 -0.101845 0.0869357 -0.151821 -0.0972261 0.0895411 -0.172339 
-0.0923093 0.091629 -0.192415 -0.0870975 0.0931827 -0.212127 -0.0815864 0.0942108 -0.231556 
-0.0757712 0.0947407 -0.250773 -0.0696529 0.09481 -0.269827 -0.0632434 0.0944582 -0.288738 
-0.0565695 0.093719 -0.307492 -0.0496751 0.0926155 -0.326042 -0.0426203 0.0911581 -0.344321 
-0.03548 0.0893458 -0.362241 -0.0283396 0.0871705 -0.379714 -0.0212897 0.0846239 -0.396663 
-0.0144214 0.0817045 -0.413032 -0.00782041 0.0784255 -0.428792 -0.00156292 0.0748205 -0.443952 
0.00428737 0.070946 -0.45855 0.00968074 0.0668815 -0.472652 0.0145812 0.0627251 -0.486337 
0.0189647 0.0585859 -0.499686 0.0228167 0.0545746 -0.512762 0.0261289 0.0507923 -0.5256 
0.0288965 0.0473199 -0.538193 0.0311156 0.0442096 -0.550485 0.0327828 0.0414794 -0.562373 
0.0338956 0.0391121 -0.57371 0.034454 0.0370579 -0.584322 0.0344642 0.0352423 -0.594019 
0.0339424 0.0335763 -0.602625 0.0329188 0.0319693 -0.60999 0.0314416 0.030342 -0.616016 
0.0295791 0.0286379 -0.620672 0.0274204 0.0268316 -0.623996 0.0250734 0.0249337 -0.626103 
0.0226613 0.0229902 -0.627175 0.0203161 0.021077 -0.627442 0.0181712 0.0192912 -0.627166 
0.0163523 0.0177384 -0.626609 0.0149685 0.0165191 -0.626014 0.0141045 0.0157161 -0.625571 
0.0138136 0.0153835 -0.625405 
LINES 2 100
OFFSETS vtktypeint64
0 100 
CONNECTIVITY vtktypeint64
0 1 2 3 4 5 6 7 8 
9 10 11 12 13 14 15 16 17 
18 19 20 21 22 23 24 25 26 
27 28 29 30 31 32 33 34 35 
36 37 38 39 40 41 42 43 44 
45 46 47 48 49 50 51 52 53 
54 55 56 57 58 59 60 61 62 
63 64 65 66 67 68 69 70 71 
72 73 74 75 76 77 78 79 80 
81 82 83 84 85 86 87 88 89 
90 91 92 93 94 95 96 97 98 
99 
POINT_DATA 100
FIELD FieldData 3
_theta 1 100 double
0 0.031733259127 0.063466518254 0.095199777382 0.12693303651 0.15866629564 0.19039955476 0.22213281389 0.25386607302 
0.28559933214 0.31733259127 0.3490658504 0.38079910953 0.41253236865 0.44426562778 0.47599888691 0.50773214603 0.53946540516 
0.57119866429 0.60293192342 0.63466518254 0.66639844167 0.6981317008 0.72986495992 0.76159821905 0.79333147818 0.82506473731 
0.85679799643 0.88853125556 0.92026451469 0.95199777382 0.98373103294 1.0154642921 1.0471975512 1.0789308103 1.1106640695 
1.1423973286 1.1741305877 1.2058638468 1.237597106 1.2693303651 1.3010636242 1.3327968833 1.3645301425 1.3962634016 
1.4279966607 1.4597299198 1.491463179 1.5231964381 1.5549296972 1.5866629564 1.6183962155 1.6501294746 1.6818627337 
1.7135959929 1.745329252 1.7770625111 1.8087957702 1.8405290294 1.8722622885 1.9039955476 1.9357288068 1.9674620659 
1.999195325 2.0309285841 2.0626618433 2.0943951024 2.1261283615 2.1578616206 2.1895948798 2.2213281389 2.253061398 
2.2847946572 2.3165279163 2.3482611754 2.3799944345 2.4117276937 2.4434609528 2.4751942119 2.506927471 2.5386607302 
2.5703939893 2.6021272484 2.6338605076 2.6655937667 2.6973270258 2.7290602849 2.7607935441 2.7925268032 2.8242600623 
2.8559933214 2.8877265806 2.9194598397 2.9511930988 2.982926358 3.0146596171 3.0463928762 3.0781261353 3.1098593945 
3.1415926536 
_radius 1 100 double
1.5269508633e-16 0.015974103539 0.0317383721 0.047096798399 0.061889054012 0.076001410815 0.089370521744 0.10198010071 0.11385197991 
0.12503398704 0.13558726463 0.14557505889 0.15505399239 0.16406790479 0.17264386623 0.18079000303 0.18849511947 0.19573042803 
0.20245375662 0.20861629179 0.2141713342 0.21908389333 0.22333946829 0.22695022955 0.22995711027 0.2324269974 0.23444513772 
0.23610382317 0.23748915595 0.23866804169 0.23967747812 0.24051778466 0.24115080846 0.24150347899 0.24147645104 0.24095701176 
0.23983494674 0.23801967403 0.23545669175 0.23214128465 0.22812754561 0.22353112182 0.21852470353 0.21332612049 0.2081799371 
0.20333452148 0.19901753609 0.19541349338 0.19264725382 0.1907767585 0.18979638773 0.18964912987 0.1902425709 0.19146279678 
0.19318272144 0.1952656255 0.19756776208 0.19994368433 0.20225510947 0.20438122557 0.20622738138 0.20773007284 0.20885778502 
0.20960844361 0.21000461418 0.21008741553 0.20990981174 0.20952976755 0.2090036954 0.20838057708 0.20769702754 0.20697340614 
0.2062109673 0.20539006021 0.20446950708 0.20338739592 0.20206350796 0.20040344615 0.19830429731 0.19566142152 0.19237576445 
0.18836096123 0.18354946707 0.17789702608 0.17138496538 0.16402005062 0.15583193415 0.14686854286 0.13719005262 0.12686232967 
0.11595083786 0.10451598893 0.092610740243 0.080280894415 0.067568010371 0.054514160967 0.041167171676 0.027584721758 0.013835957033 
7.7254078568e-16 
_area 1 100 double
0 0.00061815693805 0.0024466093014 0.0054113707911 0.0094013219806 0.014282562594 0.019912920898 0.026154335099 0.03288193246 
0.039989217404 0.047389056284 0.055010553206 0.062792643682 0.070676119279 0.078596424136 0.086479538037 0.094242446066 0.10179830281 
0.10906488478 0.11597380056 0.12247763192 0.1285529554 0.13419882779 0.13943191149 0.14427999143 0.14877523745 0.15294798043 
0.15682116126 0.16040484121 0.16368993082 0.16664122783 0.16919129586 0.1712375675 0.17264497264 0.17325558754 0.17290541537 
0.17144654917 0.16877108785 0.1648321535 0.15965794877 0.15335680314 0.14611339927 0.13817784574 0.1298500321 0.1214619507 
0.11335943091 0.10588092658 0.099327818052 0.093929172385 0.089919590303 0.087292034476 0.085723376378 0.084980791529 0.084897385031 
0.085353177573 0.08626585049 0.087567929083 0.089117632248 0.090675098146 0.092006215876 0.092944069518 0.093406754606 0.093387740206 
0.092980042168 0.092281079622 0.091336021927 0.090252664737 0.089152947639 0.088154750328 0.087361695125 0.086861532367 0.086751118296 
0.087169689689 0.088315255184 0.089866109156 0.091495622222 0.093010796046 0.09421278023 0.094900216675 0.094879576556 0.09398016595 
0.092071403079 0.089078647058 0.084993884128 0.079878757417 0.073859177581 0.067112590326 0.059850507844 0.052299761308 0.044685823222 
0.037220472882 0.030094419422 0.023473950954 0.0174999114 0.012287551113 0.0079267166285 0.0044827727544 0.0019989880313 0.00050063293408 
1.2861822068e-17 
