# vtk DataFile Version 5.1
vtk output
ASCII
DATASET POLYDATA
POINTS 100 float
0.0253665 -0.0080438 -0.664419 0.0253617 -0.00804996 -0.664365 0.0253743 -0.00787204 -0.664168 
0.0254054 -0.00751095 -0.663766 0.0254558 -0.00696659 -0.663061 0.0255241 -0.00623585 -0.661932 
0.0256047 -0.00531045 -0.660245 0.0256848 -0.00417529 -0.657861 0.0257426 -0.0028077 -0.654656 
0.0257456 -0.00117804 -0.650524 0.0256494 0.000748224 -0.645387 0.025398 0.00300704 -0.639198 
0.0249257 0.00563119 -0.631943 0.0241598 0.00864509 -0.623638 0.0230248 0.0120598 -0.614323 
0.0214474 0.0158686 -0.604052 0.0193628 0.0200444 -0.59289 0.0167198 0.0245387 -0.5809 
0.0134865 0.0292831 -0.568141 0.00965444 0.034193 -0.554658 0.00524093 0.0391726 -0.540486 
0.000289361 0.0441219 -0.525645 -0.00513262 0.0489439 -0.510144 -0.0109374 0.053551 -0.493986 
-0.0170237 0.0578706 -0.47717 -0.0232838 0.061849 -0.4597 -0.0296124 0.0654523 -0.441581 
-0.0359145 0.0686655 -0.422832 -0.0421118 0.0714892 -0.403477 -0.0481485 0.0739348 -0.38355 
-0.0539926 0.0760184 -0.363089 -0.0596357 0.0777552 -0.342137 -0.0650884 0.0791548 -0.320732 
-0.0703737 0.0802176 -0.298909 -0.0755183 0.0809339 -0.276697 -0.0805422 0.0812848 -0.254115 
-0.085449 0.0812458 -0.231177 -0.0902175 0.0807916 -0.207891 -0.0947962 0.0799015 -0.184267 
-0.0991004 0.0785654 -0.160316 -0.103015 0.0767886 -0.136062 -0.106398 0.0745945 -0.111539 
-0.109096 0.0720253 -0.0867971 -0.11095 0.0691404 -0.0619047 -0.111815 0.0660119 -0.0369438 
-0.111572 0.0627189 -0.0120084 -0.110142 0.0593404 0.0128006 -0.107493 0.055948 0.0373822 
-0.103652 0.0526005 0.0616414 -0.0986965 0.0493396 0.0854959 -0.0927579 0.046188 0.108881 
-0.0860062 0.0431515 0.13175 -0.078638 0.0402224 0.154081 -0.0708603 0.037386 0.175869 
-0.0628735 0.0346283 0.197124 -0.054855 0.0319436 0.217868 -0.0469465 0.029341 0.238128 
-0.0392454 0.0268495 0.257928 -0.0318006 0.0245193 0.277285 -0.0246148 0.0224205 0.296206 
-0.0176512 0.0206377 0.314688 -0.0108448 0.0192624 0.332714 -0.00411576 0.0183828 0.35026 
0.00261534 0.0180736 0.367299 0.00941413 0.0183857 0.383805 0.0163211 0.0193384 0.399758 
0.0233444 0.0209141 0.415152 0.0304571 0.0230581 0.429996 0.0376 0.025681 0.444317 
0.0446881 0.0286658 0.458158 0.0516211 0.0318787 0.471576 0.0582955 0.0351799 0.484636 
0.0646169 0.0384373 0.497407 0.0705113 0.0415371 0.50995 0.075933 0.0443927 0.522317 
0.0808682 0.0469506 0.534542 0.0853349 0.0491912 0.546638 0.0893777 0.0511262 0.558597 
0.0930589 0.0527914 0.570386 0.0964479 0.0542379 0.581957 0.099609 0.0555213 0.593245 
0.102591 0.0566906 0.60418 0.105416 0.05778 0.61469 0.108082 0.0588026 0.624706 
0.110552 0.0597481 0.634171 0.112769 0.0605844 0.643041 0.114658 0.0612636 0.651286 
0.116141 0.0617302 0.658892 0.117149 0.0619315 0.665856 0.117636 0.0618281 0.672186 
0.117587 0.0614031 0.677896 0.117029 0.0606689 0.683 0.116032 0.0596694 0.687513 
0.114704 0.0584795 0.691443 0.113185 0.0571984 0.694796 0.111633 0.0559411 0.697571 
0.110209 0.0548263 0.699762 0.109061 0.0539635 0.701363 0.108307 0.053441 0.702366 
0.108026 0.0533159 0.702765 
LINES 2 100
OFFSETS vtktypeint64
0 100 
CONNECTIVITY vtktypeint64
0 1 2 3 4 5 6 7 8 
9 10 11 12 13 14 15 16 17 
18 19 20 21 22 23 24 25 26 
27 28 29 30 31 32 33 34 35 
36 37 38 39 40 41 42 43 44 
45 46 47 48 49 50 51 52 53 
54 55 56 57 58 59 60 61 62 
63 64 65 66 67 68 69 70 71 
72 73 74 75 76 77 78 79 80 
81 82 83 84 85 86 87 88 89 
90 91 92 93 94 95 96 97 98 
99 
POINT_DATA 100
FIELD FieldData 3
_theta 1 100 double
0 0.031733259127 0.063466518254 0.095199777382 0.12693303651 0.15866629564 0.19039955476 0.22213281389 0.25386607302 
0.28559933214 0.31733259127 0.3490658504 0.38079910953 0.41253236865 0.44426562778 0.47599888691 0.50773214603 0.53946540516 
0.57119866429 0.60293192342 0.63466518254 0.66639844167 0.6981317008 0.72986495992 0.76159821905 0.79333147818 0.82506473731 
0.85679799643 0.88853125556 0.92026451469 0.95199777382 0.98373103294 1.0154642921 1.0471975512 1.0789308103 1.1106640695 
1.1423973286 1.1741305877 1.2058638468 1.237597106 1.2693303651 1.3010636242 1.3327968833 1.3645301425 1.3962634016 
1.4279966607 1.4597299198 1.491463179 1.5231964381 1.5549296972 1.5866629564 1.6183962155 1.6501294746 1.6818627337 
1.7135959929 1.745329252 1.7770625111 1.8087957702 1.8405290294 1.8722622885 1.9039955476 1.9357288068 1.9674620659 
1.999195325 2.0309285841 2.0626618433 2.0943951024 2.1261283615 2.1578616206 2.1895948798 2.2213281389 2.253061398 
2.2847946572 2.3165279163 2.3482611754 2.3799944345 2.4117276937 2.4434609528 2.4751942119 2.506927471 2.5386607302 
2.5703939893 2.6021272484 2.6338605076 2.6655937667 2.6973270258 2.7290602849 2.7607935441 2.7925268032 2.8242600623 
2.8559933214 2.8877265806 2.9194598397 2.9511930988 2.982926358 3.0146596171 3.0463928762 3.0781261353 3.1098593945 
3.1415926536 
_radius 1 100 double
1.2213291035e-15 0.014472468572 0.028884272765 0.043165701873 0.05724162161 0.071029828083 0.084440560487 0.097377590404 0.10974099157 
0.1214312776 0.13235428806 0.14242614175 0.15157774281 0.15975858809 0.16693982817 0.17311658722 0.17830944219 0.18256477547 
0.18595356969 0.18856823788 0.19051736039 0.19191870969 0.19289152181 0.19354933149 0.19399453905 0.19431514166 0.19458306027 
0.19485283647 0.19515963726 0.19551646292 0.19591172188 0.19630928144 0.19665313943 0.19687765998 0.19692216234 0.19674654015 
0.19634361272 0.19574452106 0.19501546068 0.19424681846 0.19353842731 0.19298598072 0.19267283223 0.19266860502 0.19303252564 
0.1938171293 0.19506832877 0.19682040531 0.19908754474 0.20185544345 0.20507654101 0.20867090993 0.21253270524 0.21654035175 
0.22056790549 0.2244952918 0.22821603653 0.23164217436 0.23470680848 0.23736508313 0.23959414218 0.24139220847 0.24277651713 
0.2437796964 0.24444439225 0.24481639748 0.24493706987 0.2448361771 0.24452633539 0.24399991073 0.24322875787 0.24216666225 
0.24075395297 0.23892351622 0.23660735041 0.23374283847 0.2302780373 0.226175463 0.22141405199 0.21598918368 0.20991086128 
0.20320037671 0.19588602649 0.18799864882 0.17956781809 0.17061936788 0.16117450683 0.15125027204 0.14086066331 0.13001772816 
0.11873217422 0.10701362712 0.094871159922 0.082314927515 0.06935948161 0.056028627378 0.042360752433 0.028412865927 0.014261573373 
1.60529049e-15 
_area 1 100 double
0 0.00057611282443 0.0023003404953 0.0051592682531 0.0091256439892 0.014148900266 0.020142773183 0.026975298087 0.034465719818 
0.042389513294 0.050490030925 0.05849446037 0.0661321401 0.073153844024 0.079350760123 0.084571454947 0.08873453984 0.09183460884 
0.093939666874 0.095179713178 0.095728053083 0.095778655449 0.095523740644 0.095135393966 0.094753398591 0.094478905808 0.094371533609 
0.094449658852 0.094698018074 0.095082163785 0.095558939949 0.09607520904 0.09656535985 0.096962330871 0.09721690609 0.097314573841 
0.097291676071 0.097249273564 0.097342370499 0.097715297928 0.098416298346 0.099399855977 0.10060108438 0.10198121343 0.10353536739 
0.10529417134 0.10733076604 0.10975885343 0.11271203217 0.11630771724 0.12060637075 0.12558365932 0.13112757253 0.13705760646 
0.14315554138 0.14919762024 0.15497999733 0.16033302926 0.1651253011 0.16926221372 0.17268394562 0.17536471815 0.17731254818 
0.17856755189 0.17919700746 0.17928618081 0.17892515117 0.17819334528 0.1771447255 0.17579699655 0.17412744923 0.17207628453 
0.16955620931 0.1664659138 0.1627055016 0.15819323008 0.1528826108 0.1467762274 0.13993087269 0.13245088822 0.12447124335 
0.11613540954 0.10757422666 0.098891502929 0.090160414575 0.081431166218 0.072745569691 0.06415152518 0.05571197908 0.047506928846 
0.03963023889 0.03218411095 0.025273612738 0.019002682659 0.013471960131 0.0087777322929 0.0050104765869 0.0022514346053 0.00056669844602 
3.7377633358e-17 
