# vtk DataFile Version 5.1
vtk output
ASCII
DATASET POLYDATA
POINTS 100 float
0.0838378 -0.0185715 -0.658114 0.0837591 -0.0187584 -0.658417 0.0836415 -0.0191049 -0.659303 
0.0835102 -0.0195557 -0.660601 0.0833993 -0.0200241 -0.662049 0.0833443 -0.0204004 -0.66332 
0.0833715 -0.0205605 -0.664052 0.0834882 -0.0203775 -0.663885 0.0836742 -0.0197318 -0.662501 
0.0838757 -0.0185217 -0.659646 0.0840037 -0.0166709 -0.655157 0.0839358 -0.0141352 -0.64897 
0.0835233 -0.0109045 -0.641118 0.0826024 -0.00700321 -0.631724 0.0810081 -0.00248761 -0.620978 
0.0785894 0.00255971 -0.609111 0.075225 0.00803653 -0.596366 0.0708367 0.0138288 -0.582975 
0.0653997 0.0198187 -0.569127 0.0589475 0.0258914 -0.554958 0.0515722 0.0319412 -0.540541 
0.0434187 0.0378753 -0.525885 0.0346734 0.0436161 -0.510941 0.0255497 0.0491007 -0.495624 
0.0162697 0.0542797 -0.479822 0.00704672 0.0591139 -0.463424 -0.00193257 0.063571 -0.446333 
-0.0105218 0.0676221 -0.428483 -0.0186247 0.0712386 -0.409846 -0.0261986 0.0743905 -0.390437 
-0.0332531 0.0770459 -0.370305 -0.0398417 0.0791726 -0.349528 -0.0460499 0.0807399 -0.3282 
-0.0519789 0.0817228 -0.306415 -0.0577286 0.0821058 -0.284256 -0.0633806 0.0818869 -0.261784 
-0.0689834 0.0810816 -0.23903 -0.0745421 0.0797245 -0.216 -0.0800132 0.0778701 -0.192675 
-0.0853047 0.0755916 -0.169021 -0.0902826 0.0729775 -0.145003 -0.0947819 0.0701267 -0.120596 
-0.0986219 0.0671422 -0.0957984 -0.101623 0.0641245 -0.0706398 -0.103626 0.0611642 -0.0451878 
-0.104504 0.0583368 -0.0195468 -0.104177 0.055697 0.00614665 -0.102622 0.0532767 0.0317336 
-0.0998696 0.0510842 0.0570456 -0.0960063 0.0491062 0.0819191 -0.0911619 0.0473114 0.106209 
-0.0854995 0.0456565 0.129802 -0.0791992 0.0440932 0.15262 -0.072443 0.0425748 0.174633 
-0.0653992 0.0410632 0.195845 -0.0582103 0.0395351 0.2163 -0.0509842 0.0379848 0.236064 
-0.0437901 0.0364272 0.255218 -0.0366589 0.0348962 0.273844 -0.0295886 0.0334427 0.292015 
-0.0225527 0.0321293 0.309786 -0.0155116 0.0310245 0.32719 -0.00842386 0.0301961 0.344234 
-0.00125812 0.0297037 0.360908 0.00599828 0.0295935 0.377187 0.0133332 0.029893 0.393039 
0.0207074 0.0306084 0.408435 0.0280567 0.0317236 0.423355 0.0352973 0.0332017 0.437798 
0.0423339 0.0349877 0.451778 0.0490699 0.0370135 0.465329 0.0554172 0.0392026 0.478497 
0.061306 0.0414768 0.491338 0.0666911 0.0437606 0.503904 0.071556 0.0459863 0.516243 
0.0759129 0.0480969 0.528381 0.0797991 0.050048 0.540328 0.0832706 0.051808 0.552068 
0.0863932 0.0533571 0.563563 0.0892326 0.0546851 0.574758 0.0918446 0.0557886 0.585583 
0.0942674 0.0566687 0.595968 0.0965163 0.0573279 0.605845 0.0985813 0.0577687 0.615159 
0.10043 0.0579931 0.623874 0.102011 0.0580023 0.631972 0.103264 0.0577986 0.639457 
0.104132 0.0573867 0.646348 0.104565 0.0567766 0.652677 0.10454 0.0559853 0.658481 
0.104058 0.0550393 0.663794 0.103158 0.0539747 0.668638 0.101912 0.0528375 0.673025 
0.100424 0.0516821 0.676948 0.0988208 0.0505682 0.680385 0.0972417 0.0495576 0.683301 
0.0958267 0.0487098 0.685654 0.0947027 0.048077 0.6874 0.0939706 0.0477007 0.688502 
0.0936957 0.0476074 0.688934 
LINES 2 100
OFFSETS vtktypeint64
0 100 
CONNECTIVITY vtktypeint64
0 1 2 3 4 5 6 7 8 
9 10 11 12 13 14 15 16 17 
18 19 20 21 22 23 24 25 26 
27 28 29 30 31 32 33 34 35 
36 37 38 39 40 41 42 43 44 
45 46 47 48 49 50 51 52 53 
54 55 56 57 58 59 60 61 62 
63 64 65 66 67 68 69 70 71 
72 73 74 75 76 77 78 79 80 
81 82 83 84 85 86 87 88 89 
90 91 92 93 94 95 96 97 98 
99 
POINT_DATA 100
FIELD FieldData 3
_theta 1 100 double
0 0.031733259127 0.063466518254 0.095199777382 0.12693303651 0.15866629564 0.19039955476 0.22213281389 0.25386607302 
0.28559933214 0.31733259127 0.3490658504 0.38079910953 0.41253236865 0.44426562778 0.47599888691 0.50773214603 0.53946540516 
0.57119866429 0.60293192342 0.63466518254 0.66639844167 0.6981317008 0.72986495992 0.76159821905 0.79333147818 0.82506473731 
0.85679799643 0.88853125556 0.92026451469 0.95199777382 0.98373103294 1.0154642921 1.0471975512 1.0789308103 1.1106640695 
1.1423973286 1.1741305877 1.2058638468 1.237597106 1.2693303651 1.3010636242 1.3327968833 1.3645301425 1.3962634016 
1.4279966607 1.4597299198 1.491463179 1.5231964381 1.5549296972 1.5866629564 1.6183962155 1.6501294746 1.6818627337 
1.7135959929 1.745329252 1.7770625111 1.8087957702 1.8405290294 1.8722622885 1.9039955476 1.9357288068 1.9674620659 
1.999195325 2.0309285841 2.0626618433 2.0943951024 2.1261283615 2.1578616206 2.1895948798 2.2213281389 2.253061398 
2.2847946572 2.3165279163 2.3482611754 2.3799944345 2.4117276937 2.4434609528 2.4751942119 2.506927471 2.5386607302 
2.5703939893 2.6021272484 2.6338605076 2.6655937667 2.6973270258 2.7290602849 2.7607935441 2.7925268032 2.8242600623 
2.8559933214 2.8877265806 2.9194598397 2.9511930988 2.982926358 3.0146596171 3.0463928762 3.0781261353 3.1098593945 
3.1415926536 
_radius 1 100 double
1.2309889184e-15 0.016692983427 0.033155825153 0.049165505319 0.06452126174 0.079053897443 0.092633282488 0.10517375858 0.11663676809 
0.12702969276 0.13640006118 0.14482509073 0.15239771005 0.15921132033 0.16534617804 0.17086014342 0.17578560351 0.18013290153 
0.18389904961 0.187079332 0.1896789003 0.19172166699 0.19325461002 0.19434682197 0.19508399942 0.19556017339 0.19586887841 
0.19609540546 0.19631055322 0.19656518272 0.1968847306 0.19726388477 0.19766336561 0.19801212284 0.1982177788 0.19818510744 
0.19783844356 0.19714195803 0.19611257483 0.19482295171 0.19339523327 0.19198906006 0.19078815372 0.18998800579 0.1897840792 
0.19035793348 0.19185924114 0.19438446138 0.19795645229 0.20251131043 0.20789757657 0.21388916814 0.22020933319 0.22656056956 
0.23265516297 0.23824198743 0.24312663486 0.24718336378 0.25035862933 0.25266699651 0.25418094861 0.25501642473 0.25531591061 
0.25523072562 0.254903968 0.25445546719 0.25396998145 0.25348965038 0.25301130207 0.25248867195 0.25183903691 0.25095332487 
0.24970847619 0.24798067598 0.245657991 0.24265094218 0.23889972457 0.2343772463 0.22908786046 0.22306241261 0.21635078598 
0.20901335206 0.20111263774 0.1927062185 0.18384147206 0.17455246113 0.16485888645 0.15476679011 0.14427054762 0.13335571442 
0.12200246824 0.11018960421 0.097899157257 0.085121655305 0.071861737396 0.058143477653 0.044014405393 0.029547106395 0.014837562222 
1.3864295326e-15 
_area 1 100 double
0 0.0006746174534 0.0026788703876 0.0059536059736 0.010395720095 0.015847950221 0.022091941838 0.028856606296 0.035843930981 
0.042764222816 0.049369368934 0.055474512643 0.060962979516 0.065774806069 0.069884651875 0.073278583635 0.075939216093 0.077844741664 
0.078982105379 0.079370590257 0.079089622262 0.078304478228 0.077287374888 0.076387218781 0.075851282369 0.075789463082 0.076256103636 
0.077254873455 0.078739478325 0.080630420665 0.082835255586 0.08525689778 0.087784260534 0.090275277318 0.092555837019 0.094449580704 
0.095828185153 0.096657847946 0.097017695841 0.097073104709 0.097015678938 0.097015967387 0.097214940233 0.097741938441 0.098740543866 
0.10038297777 0.10285797155 0.10633503102 0.11092512189 0.1166555316 0.12345907351 0.13116912934 0.13951897202 0.14815240189 
0.15665326071 0.16459457622 0.1715984175 0.17739010713 0.18183006752 0.1849143774 0.18674676848 0.18749446368 0.1873445159 
0.18647439249 0.18504063939 0.18317919843 0.18100852362 0.17863032558 0.17612574574 0.17354547433 0.17089359375 0.16810973441 
0.1650624664 0.16157005687 0.1574503365 0.15257736697 0.14691581814 0.14052059165 0.13350905242 0.12602189064 0.11818788204 
0.11010341047 0.1018314194 0.093416348578 0.084904668552 0.076359960106 0.067867089988 0.059526338719 0.051441571649 0.043707478894 
0.03640098794 0.029580695437 0.023294773669 0.017593516457 0.012540264678 0.0082155005359 0.0047123734334 0.002125423571 0.00053623196017 
9.2724966912e-17 
