# vtk DataFile Version 5.1
vtk output
ASCII
DATASET POLYDATA
POINTS 100 float
0.173223 0.03178 0.722724 0.173324 0.0318432 0.722541 0.173674 0.0318801 0.721869 
0.174192 0.0319094 0.72072 0.174754 0.0319609 0.719111 0.175207 0.0320728 0.717056 
0.17539 0.0322881 0.71456 0.175151 0.03265 0.711605 0.174368 0.0331973 0.708152 
0.172958 0.0339599 0.704135 0.170887 0.0349541 0.699468 0.168172 0.0361795 0.694048 
0.164873 0.0376166 0.687767 0.161082 0.0392256 0.68053 0.156911 0.0409474 0.672264 
0.152467 0.0427066 0.662936 0.147841 0.044415 0.652557 0.143094 0.0459777 0.641194 
0.138243 0.0473001 0.628961 0.133265 0.0482948 0.616017 0.128095 0.0488888 0.602551 
0.122641 0.0490302 0.588764 0.116796 0.0486929 0.574851 0.110457 0.0478799 0.560981 
0.103542 0.0466239 0.547282 0.0960055 0.0449858 0.533824 0.0878516 0.0430507 0.520622 
0.0791353 0.0409216 0.507632 0.0699614 0.0387122 0.494759 0.060475 0.0365384 0.481876 
0.0508458 0.0345099 0.468835 0.0412488 0.032723 0.455491 0.0318429 0.0312539 0.441719 
0.0227517 0.0301555 0.427427 0.0140476 0.029455 0.412563 0.00574189 0.0291554 0.397122 
-0.00221667 0.0292377 0.381138 -0.00993602 0.0296664 0.364675 -0.0175667 0.030395 0.34781 
-0.025282 0.0313725 0.330622 -0.0332537 0.0325496 0.31317 -0.0416274 0.0338833 0.295486 
-0.0504992 0.035341 0.277563 -0.0598976 0.0369019 0.259354 -0.0697723 0.0385567 0.24078 
-0.0799912 0.0403061 0.221736 -0.0903472 0.0421573 0.202112 -0.100573 0.0441202 0.181806 
-0.110361 0.0462029 0.160746 -0.119394 0.0484084 0.1389 -0.127366 0.0507313 0.11629 
-0.134017 0.0531567 0.0929938 -0.139149 0.0556597 0.0691408 -0.142641 0.0582072 0.0449023 
-0.144465 0.0607599 0.0204756 -0.144675 0.0632757 -0.00393509 -0.143402 0.0657131 -0.0281387 
-0.140841 0.0680344 -0.0519752 -0.137222 0.070208 -0.0753294 -0.132792 0.0722098 -0.0981388 
-0.127792 0.0740234 -0.120394 -0.122429 0.0756393 -0.142133 -0.116871 0.0770526 -0.163428 
-0.111228 0.078261 -0.184371 -0.105554 0.079262 -0.205051 -0.0998524 0.080051 -0.225545 
-0.0940836 0.0806196 -0.245894 -0.088182 0.0809557 -0.266103 -0.0820719 0.0810442 -0.286134 
-0.0756857 0.0808691 -0.305909 -0.0689788 0.0804163 -0.325324 -0.0619415 0.0796766 -0.34426 
-0.0546065 0.078649 -0.3626 -0.0470498 0.0773431 -0.380243 -0.0393875 0.0757801 -0.397117 
-0.0317668 0.0739931 -0.413186 -0.0243542 0.0720252 -0.428452 -0.0173211 0.0699263 -0.442944 
-0.0108294 0.0677489 -0.456715 -0.00501755 0.0655434 -0.469822 9.88908e-06 0.0633534 -0.482308 
0.00419011 0.061211 -0.494194 0.00750518 0.0591346 -0.505459 0.00998128 0.0571274 -0.51604 
0.011684 0.0551784 -0.525834 0.0127103 0.0532653 -0.534702 0.0131788 0.051359 -0.542493 
0.013219 0.049429 -0.549059 0.0129596 0.0474501 -0.554281 0.0125201 0.0454079 -0.558093 
0.0120022 0.0433032 -0.560493 0.0114853 0.0411557 -0.561563 0.011024 0.039004 -0.561467 
0.0106491 0.0369041 -0.560442 0.0103698 0.0349256 -0.558782 0.0101793 0.0331454 -0.556813 
0.0100602 0.0316409 -0.554865 0.00999076 0.0304823 -0.553236 0.00995096 0.0297256 -0.552163 
0.00992698 0.0294069 -0.551799 
LINES 2 100
OFFSETS vtktypeint64
0 100 
CONNECTIVITY vtktypeint64
0 1 2 3 4 5 6 7 8 
9 10 11 12 13 14 15 16 17 
18 19 20 21 22 23 24 25 26 
27 28 29 30 31 32 33 34 35 
36 37 38 39 40 41 42 43 44 
45 46 47 48 49 50 51 52 53 
54 55 56 57 58 59 60 61 62 
63 64 65 66 67 68 69 70 71 
72 73 74 75 76 77 78 79 80 
81 82 83 84 85 86 87 88 89 
90 91 92 93 94 95 96 97 98 
99 
POINT_DATA 100
FIELD FieldData 3
_theta 1 100 double
0 0.031733259127 0.063466518254 0.095199777382 0.12693303651 0.15866629564 0.19039955476 0.22213281389 0.25386607302 
0.28559933214 0.31733259127 0.3490658504 0.38079910953 0.41253236865 0.44426562778 0.47599888691 0.50773214603 0.53946540516 
0.57119866429 0.60293192342 0.63466518254 0.66639844167 0.6981317008 0.72986495992 0.76159821905 0.79333147818 0.82506473731 
0.85679799643 0.88853125556 0.92026451469 0.95199777382 0.98373103294 1.0154642921 1.0471975512 1.0789308103 1.1106640695 
1.1423973286 1.1741305877 1.2058638468 1.237597106 1.2693303651 1.3010636242 1.3327968833 1.3645301425 1.3962634016 
1.4279966607 1.4597299198 1.491463179 1.5231964381 1.5549296972 1.5866629564 1.6183962155 1.6501294746 1.6818627337 
1.7135959929 1.745329252 1.7770625111 1.8087957702 1.8405290294 1.8722622885 1.9039955476 1.9357288068 1.9674620659 
1.999195325 2.0309285841 2.0626618433 2.0943951024 2.1261283615 2.1578616206 2.1895948798 2.2213281389 2.253061398 
2.2847946572 2.3165279163 2.3482611754 2.3799944345 2.4117276937 2.4434609528 2.4751942119 2.506927471 2.5386607302 
2.5703939893 2.6021272484 2.6338605076 2.6655937667 2.6973270258 2.7290602849 2.7607935441 2.7925268032 2.8242600623 
2.8559933214 2.8877265806 2.9194598397 2.9511930988 2.982926358 3.0146596171 3.0463928762 3.0781261353 3.1098593945 
3.1415926536 
_radius 1 100 double
1.3877961279e-15 0.015445296007 0.030816514941 0.046032862049 0.061006501853 0.075640798926 0.089830551108 0.10346491788 0.116433318 
0.1286338775 0.1399832859 0.15042642462 0.1599440246 0.16855689643 0.17632581615 0.18334672895 0.18974136894 0.19564369027 
0.20118298364 0.20646568731 0.21155956117 0.21648464659 0.22121386956 0.22568310325 0.22980807725 0.23350444495 0.2367071257 
0.23938538134 0.24155094942 0.24325790067 0.24459450219 0.2456688884 0.24659136611 0.24745643287 0.24832708864 0.2492231223 
0.25011426831 0.25091881277 0.25150833308 0.25171930839 0.25137177106 0.25029384244 0.24834939688 0.24546493728 0.24165140352 
0.23701699134 0.23176791083 0.22619525702 0.22064788037 0.21549352969 0.21107364385 0.20766032648 0.20542539934 0.20442875086 
0.2046262771 0.20589013523 0.20803098571 0.21081544289 0.21397909385 0.21724090792 0.22032487507 0.22298921429 0.22505661331 
0.22643620491 0.22713089199 0.22722884936 0.22688202195 0.22627637035 0.22559918398 0.22500859756 0.22460963394 0.22443961752 
0.22446386305 0.22458072939 0.22463409948 0.22443129634 0.22376481503 0.222436189 0.22027951316 0.21718121491 0.21309251115 
0.20803200042 0.20207767252 0.19534960834 0.18798623793 0.18011796069 0.17184220713 0.16320378359 0.1541837185 0.1446988182 
0.13461266008 0.12375687424 0.1119596558 0.099077035715 0.085021909713 0.069786269391 0.053453316704 0.036197852977 0.018275141924 
1.3039442295e-15 
_area 1 100 double
0 0.00057859307933 0.0023051126584 0.0051511843703 0.0090674663993 0.013980555594 0.019789167843 0.026360934994 0.033531916687 
0.041111053673 0.048890911546 0.056664293975 0.064244326556 0.071484401002 0.078294620202 0.084652884505 0.090610058236 0.096287723862 
0.10186357126 0.10753741054 0.11347577515 0.11974694293 0.1262821152 0.13289830575 0.13936263083 0.14545750545 0.15103053922 
0.15602052449 0.16045341317 0.16441516943 0.168018308 0.17137290701 0.17456359043 0.17763332348 0.18057657138 0.18334179443 
0.18583672758 0.18792070528 0.18938130101 0.18994536921 0.1893449779 0.18739364916 0.1840590283 0.17954162055 0.17369495624 
0.16674653154 0.15905762694 0.15106562447 0.14323218013 0.13599328965 0.12971208032 0.12462874832 0.1208083058 0.11813208335 
0.11638546153 0.11537667845 0.11498103319 0.11510223298 0.11561646953 0.11635224245 0.11710056811 0.11763698435 0.11774790114 
0.11726187686 0.11608612687 0.11423826607 0.11185258913 0.10915512924 0.10643511631 0.10402625837 0.10227425378 0.10146992933 
0.10175513592 0.10306177438 0.10514126814 0.1076443577 0.11018352646 0.11237033603 0.11384665436 0.11431372366 0.11355037758 
0.11142089423 0.10788554754 0.1030102237 0.09695586898 0.089945425673 0.082222507076 0.07401654861 0.065523580965 0.056905491059 
0.048304466245 0.039864354398 0.031748625871 0.024146682632 0.017266004147 0.011314357917 0.0064800011973 0.0029164839044 0.00073454691948 
1.4042583346e-17 
