# vtk DataFile Version 5.1
vtk output
ASCII
DATASET POLYDATA
POINTS 100 float
0.182221 0.0305185 0.674776 0.182248 0.0306916 0.674508 0.182363 0.031105 0.673619 
0.1825 0.0317511 0.672129 0.182561 0.0326166 0.670065 0.18242 0.0336833 0.66746 
0.181947 0.0349274 0.664344 0.181018 0.0363206 0.660739 0.179527 0.0378301 0.656654 
0.177406 0.0394197 0.652084 0.174622 0.0410507 0.647006 0.171187 0.0426832 0.641387 
0.167149 0.0442769 0.635183 0.16259 0.0457934 0.62835 0.157608 0.0471964 0.620852 
0.152309 0.0484537 0.612665 0.146793 0.0495374 0.603787 0.141138 0.0504253 0.594243 
0.135399 0.0511003 0.584082 0.129595 0.0515514 0.573377 0.123715 0.0517728 0.562222 
0.11772 0.0517644 0.55072 0.111551 0.0515308 0.538974 0.10514 0.0510818 0.527076 
0.0984244 0.050432 0.515101 0.0913519 0.0496007 0.503094 0.083894 0.0486129 0.491067 
0.0760497 0.0474989 0.478998 0.0678472 0.0462948 0.466833 0.0593412 0.0450427 0.454491 
0.0506075 0.0437903 0.441872 0.0417338 0.0425901 0.428871 0.0328102 0.0414978 0.415381 
0.0239198 0.0405708 0.401313 0.0151309 0.0398649 0.386594 0.0064912 0.0394318 0.371178 
-0.00197332 0.0393152 0.355047 -0.0102568 0.039548 0.338208 -0.0183683 0.040149 0.320692 
-0.0263239 0.0411207 0.302543 -0.0341381 0.0424481 0.283816 -0.0418141 0.0440986 0.264566 
-0.0493371 0.0460233 0.244843 -0.0566683 0.0481595 0.224688 -0.063744 0.0504348 0.204129 
-0.070477 0.0527713 0.183186 -0.0767626 0.0550916 0.161865 -0.0824864 0.0573237 0.140173 
-0.0875349 0.0594062 0.118113 -0.091806 0.0612925 0.0956972 -0.0952186 0.0629533 0.0729445 
-0.0977205 0.0643788 0.049888 -0.0992927 0.0655772 0.026573 -0.0999508 0.0665737 0.00305679 
-0.0997416 0.0674063 -0.0205954 -0.0987379 0.0681215 -0.0443145 -0.0970296 0.0687683 -0.0680325 
-0.0947143 0.0693937 -0.0916876 -0.0918879 0.0700362 -0.115227 -0.0886358 0.0707224 -0.138611 
-0.0850273 0.0714632 -0.161809 -0.0811119 0.0722528 -0.184803 -0.0769198 0.0730679 -0.207577 
-0.0724648 0.0738705 -0.230119 -0.0677501 0.0746101 -0.252411 -0.0627747 0.0752283 -0.274427 
-0.057542 0.0756635 -0.296129 -0.0520657 0.0758565 -0.317466 -0.0463758 0.0757543 -0.338375 
-0.0405211 0.0753151 -0.358784 -0.0345698 0.0745106 -0.37862 -0.0286068 0.0733284 -0.39781 
-0.0227286 0.0717717 -0.416295 -0.0170376 0.0698586 -0.434029 -0.0116341 0.0676203 -0.450989 
-0.0066095 0.0650979 -0.467173 -0.00204052 0.062339 -0.482599 0.0020155 0.0593942 -0.497306 
0.00552256 0.0563137 -0.511341 0.00846604 0.0531444 -0.524757 0.0108506 0.0499277 -0.537602 
0.0126969 0.0466985 -0.549909 0.0140368 0.0434845 -0.561694 0.0149092 0.0403067 -0.572951 
0.0153563 0.0371805 -0.583649 0.0154202 0.0341178 -0.593739 0.0151418 0.031128 -0.603154 
0.0145608 0.0282209 -0.611825 0.0137167 0.0254077 -0.619685 0.0126506 0.0227027 -0.626678 
0.0114078 0.020124 -0.632771 0.0100389 0.0176935 -0.637959 0.00860112 0.0154372 -0.642264 
0.00715774 0.0133836 -0.645737 0.00577614 0.0115626 -0.648452 0.00452472 0.0100039 -0.650499 
0.0034687 0.0087353 -0.651971 0.00266546 0.00778081 -0.652956 0.00215999 0.00715913 -0.653524 
0.00198111 0.00688249 -0.653722 
LINES 2 100
OFFSETS vtktypeint64
0 100 
CONNECTIVITY vtktypeint64
0 1 2 3 4 5 6 7 8 
9 10 11 12 13 14 15 16 17 
18 19 20 21 22 23 24 25 26 
27 28 29 30 31 32 33 34 35 
36 37 38 39 40 41 42 43 44 
45 46 47 48 49 50 51 52 53 
54 55 56 57 58 59 60 61 62 
63 64 65 66 67 68 69 70 71 
72 73 74 75 76 77 78 79 80 
81 82 83 84 85 86 87 88 89 
90 91 92 93 94 95 96 97 98 
99 
POINT_DATA 100
FIELD FieldData 3
_theta 1 100 double
0 0.031733259127 0.063466518254 0.095199777382 0.12693303651 0.15866629564 0.19039955476 0.22213281389 0.25386607302 
0.28559933214 0.31733259127 0.3490658504 0.38079910953 0.41253236865 0.44426562778 0.47599888691 0.50773214603 0.53946540516 
0.57119866429 0.60293192342 0.63466518254 0.66639844167 0.6981317008 0.72986495992 0.76159821905 0.79333147818 0.82506473731 
0.85679799643 0.88853125556 0.92026451469 0.95199777382 0.98373103294 1.0154642921 1.0471975512 1.0789308103 1.1106640695 
1.1423973286 1.1741305877 1.2058638468 1.237597106 1.2693303651 1.3010636242 1.3327968833 1.3645301425 1.3962634016 
1.4279966607 1.4597299198 1.491463179 1.5231964381 1.5549296972 1.5866629564 1.6183962155 1.6501294746 1.6818627337 
1.7135959929 1.745329252 1.7770625111 1.8087957702 1.8405290294 1.8722622885 1.9039955476 1.9357288068 1.9674620659 
1.999195325 2.0309285841 2.0626618433 2.0943951024 2.1261283615 2.1578616206 2.1895948798 2.2213281389 2.253061398 
2.2847946572 2.3165279163 2.3482611754 2.3799944345 2.4117276937 2.4434609528 2.4751942119 2.506927471 2.5386607302 
2.5703939893 2.6021272484 2.6338605076 2.6655937667 2.6973270258 2.7290602849 2.7607935441 2.7925268032 2.8242600623 
2.8559933214 2.8877265806 2.9194598397 2.9511930988 2.982926358 3.0146596171 3.0463928762 3.0781261353 3.1098593945 
3.1415926536 
_radius 1 100 double
6.8835086589e-16 0.013995143721 0.027933743603 0.041758506711 0.055411647842 0.068834478428 0.081967020998 0.094748025793 0.10711579513 
0.11901004918 0.13037473511 0.14116131001 0.15133176669 0.16086063348 0.16973539406 0.17795517623 0.18552801728 0.19246738295 
0.19878878977 0.20450732173 0.20963657538 0.2141891955 0.21817877284 0.22162255138 0.22454419473 0.22697581743 0.2289585995 
0.23054155273 0.23177835299 0.23272253789 0.23342172148 0.23391173002 0.23421165807 0.23432075345 0.23421776804 0.23386301521 
0.23320295176 0.23217676394 0.23072425969 0.22879434963 0.22635346531 0.22339331104 0.21993730851 0.21604498174 0.21181342258 
0.20737498087 0.20289053004 0.19853813807 0.19449777473 0.1909337736 0.18797787865 0.18571626632 0.18418329843 0.18336282218 
0.18319543394 0.18358862267 0.18442692917 0.18558085235 0.18691500442 0.1882968002 0.18960638882 0.19074714266 0.1916547725 
0.19230275376 0.19270237104 0.19289700562 0.19295180311 0.19294098822 0.19293531004 0.1929913407 0.1931432679 0.19339717806 
0.19372776055 0.19407753967 0.19435886035 0.19445878623 0.19424677428 0.19358451302 0.19233682511 0.19038226074 0.18762206081 
0.18398649389 0.1794380251 0.17397122758 0.16760971758 0.16040064846 0.15240744349 0.14370153029 0.13435392311 0.124427622 
0.11397192948 0.10301981174 0.091589191114 0.079688430844 0.067325305654 0.054517697245 0.041303506664 0.027747181365 0.013940932692 
2.724154397e-16 
_area 1 100 double
0 0.00040862232181 0.0016342684789 0.00367562009 0.0065282725944 0.010181411225 0.014613253328 0.019785604427 0.025638304171 
0.032084866571 0.039010994202 0.046277543147 0.053728772189 0.061205492325 0.068561427214 0.075680016474 0.082488123089 0.088962694919 
0.095126894986 0.10103466968 0.10674744642 0.11231088989 0.11773956528 0.12301335286 0.12808490782 0.13289394385 0.13738235015 
0.14150506249 0.14523461085 0.14856024414 0.15148366575 0.15401257995 0.15615204943 0.15789394807 0.15920692867 0.16003158949 
0.16028504816 0.15987490319 0.15871776445 0.15675623006 0.15397053652 0.15038433243 0.14606575696 0.14112480367 0.13570714799 
0.12998457084 0.12414271132 0.11836740998 0.11283133865 0.10768317936 0.10304198206 0.099000484224 0.095665292435 0.093248093464 
0.091505162075 0.090166567873 0.089096935022 0.088201365084 0.087398148042 0.086604294723 0.085756028703 0.084758900582 0.083527995924 
0.082033141361 0.080315525421 0.078487351707 0.076713750522 0.075180279199 0.074051485966 0.073435680738 0.073372641609 0.073841346006 
0.074773589579 0.07607042217 0.077624754552 0.079331314417 0.081049768834 0.082574175661 0.083674285572 0.084150804022 0.0838433809 
0.082627935802 0.08042134026 0.077192580069 0.072974358435 0.067867717169 0.062034862481 0.055680587954 0.049027121674 0.042288919306 
0.035653290747 0.029271085735 0.023259324172 0.017714025324 0.012727348238 0.0084012571581 0.0048515660694 0.0022000726561 0.00055702081466 
1.7448895257e-18 
