# vtk DataFile Version 5.1
vtk output
ASCII
DATASET POLYDATA
POINTS 100 float
0.130611 0.0539639 0.690105 0.130493 0.0542266 0.689968 0.130226 0.0548782 0.689439 
0.129798 0.0558675 0.688481 0.129194 0.0571155 0.687032 0.128393 0.0585235 0.685019 
0.127371 0.059983 0.68236 0.126102 0.0613864 0.678975 0.124561 0.0626369 0.674793 
0.122725 0.0636565 0.66976 0.120574 0.064391 0.663846 0.118088 0.0648121 0.657043 
0.115255 0.0649159 0.649371 0.112062 0.0647186 0.640874 0.108502 0.0642501 0.631613 
0.104569 0.0635464 0.621668 0.100262 0.0626422 0.61112 0.0955826 0.0615654 0.600055 
0.0905373 0.0603329 0.58855 0.085137 0.0589497 0.576672 0.0793984 0.0574111 0.564474 
0.073344 0.0557071 0.551992 0.0670011 0.0538287 0.539245 0.0604016 0.0517752 0.52624 
0.0535792 0.0495612 0.51297 0.0465674 0.0472215 0.499421 0.0393961 0.0448143 0.485577 
0.0320886 0.0424204 0.471416 0.0246594 0.0401394 0.45692 0.0171118 0.0380823 0.442071 
0.00943841 0.0363625 0.426853 0.0016222 0.0350841 0.411246 -0.00635968 0.0343318 0.395232 
-0.0145307 0.0341603 0.378784 -0.0229083 0.0345882 0.361871 -0.031496 0.035594 0.344454 
-0.0402764 0.0371177 0.326485 -0.0492047 0.0390649 0.307913 -0.0582039 0.0413166 0.288686 
-0.0671636 0.0437406 0.268753 -0.0759419 0.0462046 0.248076 -0.084371 0.0485898 0.226632 
-0.0922659 0.0508026 0.204417 -0.0994371 0.0527835 0.181458 -0.105704 0.0545124 0.157808 
-0.110908 0.0560092 0.133551 -0.11493 0.0573298 0.1088 -0.117696 0.0585589 0.0836874 
-0.11919 0.0597984 0.0583642 -0.119453 0.0611554 0.0329868 -0.118583 0.0627292 0.00770867 
-0.116724 0.064599 -0.0173301 -0.114062 0.0668146 -0.0420118 -0.110798 0.0693907 -0.0662479 
-0.107142 0.0723036 -0.0899845 -0.103289 0.075494 -0.113203 -0.0994042 0.0788713 -0.135921 
-0.0956129 0.0823219 -0.158182 -0.0919894 0.0857189 -0.180057 -0.0885559 0.0889327 -0.201627 
-0.0852841 0.0918401 -0.222977 -0.0821034 0.0943331 -0.244187 -0.0789116 0.0963244 -0.26532 
-0.0755896 0.0977508 -0.286417 -0.0720166 0.0985734 -0.307494 -0.0680837 0.0987761 -0.328535 
-0.0637074 0.0983614 -0.3495 -0.0588373 0.0973459 -0.370324 -0.0534613 0.0957549 -0.390925 
-0.0476056 0.0936181 -0.411211 -0.0413312 0.0909656 -0.43109 -0.0347265 0.0878262 -0.450472 
-0.0278981 0.0842264 -0.469282 -0.0209611 0.0801917 -0.48746 -0.0140294 0.075748 -0.504963 
-0.0072082 0.0709247 -0.521768 -0.000588222 0.0657568 -0.537867 0.00575617 0.0602875 -0.553264 
0.0117668 0.0545689 -0.567968 0.0173989 0.0486626 -0.581991 0.0226168 0.0426382 -0.595339 
0.0273894 0.036571 -0.608013 0.0316859 0.0305392 -0.619999 0.0354731 0.0246201 -0.631276 
0.0387154 0.0188864 -0.641811 0.0413764 0.0134032 -0.651567 0.0434233 0.00822535 -0.660503 
0.0448331 0.00339579 -0.668587 0.0455993 -0.00105458 -0.675792 0.0457382 -0.00510658 -0.682108 
0.0452944 -0.0087513 -0.687546 0.044343 -0.0119882 -0.692132 0.0429893 -0.0148225 -0.695916 
0.0413643 -0.0172636 -0.698961 0.0396176 -0.0193222 -0.701345 0.0379065 -0.0210089 -0.70315 
0.036384 -0.0223335 -0.704456 0.0351864 -0.0233031 -0.705334 0.0344209 -0.0239229 -0.705842 
0.0341563 -0.024195 -0.706014 
LINES 2 100
OFFSETS vtktypeint64
0 100 
CONNECTIVITY vtktypeint64
0 1 2 3 4 5 6 7 8 
9 10 11 12 13 14 15 16 17 
18 19 20 21 22 23 24 25 26 
27 28 29 30 31 32 33 34 35 
36 37 38 39 40 41 42 43 44 
45 46 47 48 49 50 51 52 53 
54 55 56 57 58 59 60 61 62 
63 64 65 66 67 68 69 70 71 
72 73 74 75 76 77 78 79 80 
81 82 83 84 85 86 87 88 89 
90 91 92 93 94 95 96 97 98 
99 
POINT_DATA 100
FIELD FieldData 3
_theta 1 100 double
0 0.031733259127 0.063466518254 0.095199777382 0.12693303651 0.15866629564 0.19039955476 0.22213281389 0.25386607302 
0.28559933214 0.31733259127 0.3490658504 0.38079910953 0.41253236865 0.44426562778 0.47599888691 0.50773214603 0.53946540516 
0.57119866429 0.60293192342 0.63466518254 0.66639844167 0.6981317008 0.72986495992 0.76159821905 0.79333147818 0.82506473731 
0.85679799643 0.88853125556 0.92026451469 0.95199777382 0.98373103294 1.0154642921 1.0471975512 1.0789308103 1.1106640695 
1.1423973286 1.1741305877 1.2058638468 1.237597106 1.2693303651 1.3010636242 1.3327968833 1.3645301425 1.3962634016 
1.4279966607 1.4597299198 1.491463179 1.5231964381 1.5549296972 1.5866629564 1.6183962155 1.6501294746 1.6818627337 
1.7135959929 1.745329252 1.7770625111 1.8087957702 1.8405290294 1.8722622885 1.9039955476 1.9357288068 1.9674620659 
1.999195325 2.0309285841 2.0626618433 2.0943951024 2.1261283615 2.1578616206 2.1895948798 2.2213281389 2.253061398 
2.2847946572 2.3165279163 2.3482611754 2.3799944345 2.4117276937 2.4434609528 2.4751942119 2.506927471 2.5386607302 
2.5703939893 2.6021272484 2.6338605076 2.6655937667 2.6973270258 2.7290602849 2.7607935441 2.7925268032 2.8242600623 
2.8559933214 2.8877265806 2.9194598397 2.9511930988 2.982926358 3.0146596171 3.0463928762 3.0781261353 3.1098593945 
3.1415926536 
_radius 1 100 double
1.1247859265e-15 0.015007889006 0.029832122799 0.044301604027 0.058273559544 0.071642247102 0.084342101945 0.096345223436 0.1076541389 
0.11829153769 0.12828895334 0.13767616597 0.14647258058 0.15468129406 0.16228621124 0.16925243404 0.17553007602 0.18106145471 
0.18579118406 0.18967808057 0.19270717975 0.19489974453 0.19631911036 0.19707064989 0.19729504843 0.19715533458 0.19681943942 
0.1964410775 0.19614209948 0.19599906203 0.19603582977 0.19622294817 0.19648357332 0.19670500153 0.19675430686 0.19649624988 
0.19581144457 0.19461275244 0.19285803848 0.19055781872 0.18777696205 0.18463039615 0.18127354186 0.17788878638 0.17466959853 
0.17180388981 0.16945802123 0.16776259088 0.16680098104 0.16660167427 0.16713539607 0.16831783614 0.17001785839 0.17207008116 
0.17429011705 0.17649082125 0.17849818072 0.18016551144 0.18138449376 0.18209169758 0.1822698221 0.18194371935 0.18117210068 
0.18003645723 0.17862906738 0.17704198672 0.17535862705 0.17364895554 0.1719685296 0.17036064682 0.16886008442 0.16749652792 
0.16629598546 0.16527914143 0.16445652292 0.163821377 0.16334204079 0.16295597178 0.16256728371 0.16204875512 0.16124826724 
0.15999887332 0.15813131051 0.15548758901 0.15193415415 0.14737299981 0.14174916209 0.1350533965 0.12731957533 0.11861730458 
0.10904121021 0.098699006682 0.087700625149 0.076150265249 0.064142349927 0.051761271387 0.039083859093 0.026182974149 0.013130681057 
1.4026264689e-15 
_area 1 100 double
0 0.00049379092578 0.0019604276754 0.0043567306499 0.0076139746418 0.011642189515 0.016335314971 0.021576743273 0.027244885293 
0.033218366198 0.039380280801 0.04562080159 0.051837660663 0.057934835961 0.063820897569 0.069409054834 0.074620195212 0.07938840822 
0.083666982656 0.087432691363 0.090687068092 0.093454384076 0.095776842897 0.097708602879 0.099311461827 0.10065455909 0.10181691264 
0.10288780007 0.10396004407 0.1051147259 0.10639957834 0.10780643229 0.10925603207 0.11059931575 0.1116394796 0.11217013342 
0.11201833889 0.11108085883 0.10934510058 0.10689042671 0.10387015991 0.10047918996 0.096915675422 0.093347224233 0.089891071797 
0.086612942199 0.083541745327 0.080691972683 0.078087279206 0.075798420213 0.074272785454 0.07341699666 0.073007801757 0.072990357727 
0.073278726591 0.073735031644 0.07418310149 0.074445210535 0.074379376024 0.07390255849 0.072997899112 0.071709300426 0.07012689394 
0.068365569992 0.066539398496 0.064739791146 0.063082917516 0.061638371932 0.060328892324 0.059113933811 0.058011487089 0.057139758026 
0.056516632162 0.056226879868 0.056353076117 0.056935536299 0.057952156025 0.059305613171 0.060826152245 0.062294621384 0.063475904964 
0.064147727847 0.064120426656 0.06325093526 0.061453142238 0.058703885504 0.055043109348 0.050568167612 0.045424232167 0.039793310656 
0.033883075356 0.027915178552 0.022112567958 0.016686272557 0.011823081442 0.0076759808096 0.0043591579384 0.0019487041709 0.00048865781958 
1.0628568595e-17 
