# vtk DataFile Version 5.1
vtk output
ASCII
DATASET POLYDATA
POINTS 100 float
0.15539 0.044857 0.66198 0.155348 0.0450713 0.66206 0.155307 0.0455578 0.662135 
0.155257 0.0462718 0.662152 0.155178 0.0471453 0.662031 0.155046 0.0480962 0.661667 
0.154832 0.0490384 0.660933 0.154505 0.0498933 0.659698 0.154031 0.0505988 0.657826 
0.153374 0.0511168 0.655189 0.152498 0.0514366 0.651676 0.151365 0.0515751 0.647201 
0.149933 0.0515719 0.641705 0.14816 0.051482 0.635165 0.145999 0.0513658 0.627591 
0.143402 0.0512782 0.61903 0.140319 0.0512589 0.609554 0.136702 0.0513238 0.599264 
0.13251 0.051461 0.588273 0.127708 0.0516301 0.576705 0.122275 0.0517661 0.56468 
0.116207 0.0517874 0.55231 0.109517 0.0516069 0.539687 0.102239 0.0511444 0.526884 
0.0944248 0.0503394 0.513946 0.0861423 0.0491624 0.500894 0.0774697 0.0476226 0.487725 
0.0684898 0.0457712 0.474418 0.059283 0.0437005 0.460936 0.0499203 0.0415367 0.447235 
0.0404574 0.0394292 0.43327 0.0309313 0.0375365 0.418996 0.0213585 0.0360098 0.404375 
0.0117371 0.0349775 0.389378 0.00205178 0.0345315 0.373981 -0.00771915 0.0347167 0.358164 
-0.0175941 0.035526 0.34191 -0.0275782 0.0369005 0.325199 -0.0376538 0.0387359 0.308008 
-0.0477725 0.0408926 0.290304 -0.0578506 0.0432114 0.272047 -0.0677678 0.0455293 0.253193 
-0.0773708 0.0476974 0.233694 -0.0864811 0.0495961 0.213507 -0.0949059 0.0511471 0.192599 
-0.102452 0.052321 0.170955 -0.108942 0.0531392 0.148583 -0.114228 0.0536706 0.12552 
-0.118202 0.0540228 0.101837 -0.120812 0.0543293 0.0776293 -0.122057 0.0547344 0.0530226 
-0.121995 0.0553765 0.0281592 -0.120731 0.0563729 0.00319073 -0.11841 0.0578065 -0.0217332 
-0.115202 0.0597165 -0.0464759 -0.111287 0.0620934 -0.0709239 -0.106836 0.0648796 -0.094994 
-0.102001 0.0679734 -0.118638 -0.0969028 0.0712381 -0.141843 -0.091621 0.0745138 -0.164627 
-0.0861948 0.0776305 -0.187033 -0.080625 0.0804216 -0.209118 -0.0748807 0.0827366 -0.230941 
-0.0689104 0.0844512 -0.252555 -0.0626536 0.0854744 -0.273993 -0.056054 0.0857529 -0.295262 
-0.0490705 0.0852709 -0.31634 -0.0416863 0.0840475 -0.337178 -0.0339138 0.0821317 -0.357702 
-0.0257966 0.0795952 -0.377819 -0.0174065 0.0765241 -0.397434 -0.00883791 0.0730119 -0.416456 
-0.000199853 0.0691516 -0.434808 0.00839333 0.0650302 -0.452439 0.0168309 0.0607248 -0.469324 
0.0250136 0.0563001 -0.485469 0.0328587 0.0518075 -0.500906 0.0403031 0.0472867 -0.515685 
0.0473026 0.0427669 -0.529864 0.0538297 0.0382694 -0.543495 0.059869 0.0338108 -0.556618 
0.0654116 0.0294052 -0.569244 0.0704505 0.0250663 -0.581355 0.0749762 0.0208092 -0.592896 
0.0789754 0.0166511 -0.603783 0.0824308 0.0126117 -0.61391 0.0853241 0.00871263 -0.623158 
0.0876404 0.00497742 -0.631412 0.0893742 0.00143012 -0.638578 0.0905351 -0.00190526 -0.644593 
0.091153 -0.00500566 -0.649441 0.0912812 -0.00784957 -0.653156 0.0909969 -0.0104175 -0.655826 
0.0903986 -0.0126923 -0.657587 0.0896006 -0.014659 -0.658609 0.0887252 -0.0163053 -0.659084 
0.0878923 -0.0176207 -0.659207 0.0872092 -0.0185969 -0.659154 0.0867607 -0.0192277 -0.659067 
0.0866011 -0.0195086 -0.659036 
LINES 2 100
OFFSETS vtktypeint64
0 100 
CONNECTIVITY vtktypeint64
0 1 2 3 4 5 6 7 8 
9 10 11 12 13 14 15 16 17 
18 19 20 21 22 23 24 25 26 
27 28 29 30 31 32 33 34 35 
36 37 38 39 40 41 42 43 44 
45 46 47 48 49 50 51 52 53 
54 55 56 57 58 59 60 61 62 
63 64 65 66 67 68 69 70 71 
72 73 74 75 76 77 78 79 80 
81 82 83 84 85 86 87 88 89 
90 91 92 93 94 95 96 97 98 
99 
POINT_DATA 100
FIELD FieldData 3
_theta 1 100 double
0 0.031733259127 0.063466518254 0.095199777382 0.12693303651 0.15866629564 0.19039955476 0.22213281389 0.25386607302 
0.28559933214 0.31733259127 0.3490658504 0.38079910953 0.41253236865 0.44426562778 0.47599888691 0.50773214603 0.53946540516 
0.57119866429 0.60293192342 0.63466518254 0.66639844167 0.6981317008 0.72986495992 0.76159821905 0.79333147818 0.82506473731 
0.85679799643 0.88853125556 0.92026451469 0.95199777382 0.98373103294 1.0154642921 1.0471975512 1.0789308103 1.1106640695 
1.1423973286 1.1741305877 1.2058638468 1.237597106 1.2693303651 1.3010636242 1.3327968833 1.3645301425 1.3962634016 
1.4279966607 1.4597299198 1.491463179 1.5231964381 1.5549296972 1.5866629564 1.6183962155 1.6501294746 1.6818627337 
1.7135959929 1.745329252 1.7770625111 1.8087957702 1.8405290294 1.8722622885 1.9039955476 1.9357288068 1.9674620659 
1.999195325 2.0309285841 2.0626618433 2.0943951024 2.1261283615 2.1578616206 2.1895948798 2.2213281389 2.253061398 
2.2847946572 2.3165279163 2.3482611754 2.3799944345 2.4117276937 2.4434609528 2.4751942119 2.506927471 2.5386607302 
2.5703939893 2.6021272484 2.6338605076 2.6655937667 2.6973270258 2.7290602849 2.7607935441 2.7925268032 2.8242600623 
2.8559933214 2.8877265806 2.9194598397 2.9511930988 2.982926358 3.0146596171 3.0463928762 3.0781261353 3.1098593945 
3.1415926536 
_radius 1 100 double
2.272951182e-16 0.015393071366 0.030613896674 0.045499780188 0.059913871872 0.07375380636 0.086955682709 0.099492966434 0.11137066963 
0.12261588958 0.13326634642 0.14335885161 0.1529195695 0.1619574731 0.17046165477 0.17840239341 0.1857353575 0.19240811141 
0.19836808059 0.20357115937 0.20799012282 0.21162193874 0.21449304244 0.21666172063 0.21821699414 0.21927376278 0.21996440347 
0.2204274164 0.22079405839 0.2211742063 0.22164299097 0.22223001155 0.22291305182 0.22361796641 0.22422565451 0.22458587925 
0.22453642562 0.22392507009 0.22263129801 0.22058470973 0.21777753052 0.21426945198 0.21018406166 0.20569725942 0.20101920918 
0.19637240878 0.19196922828 0.18799257474 0.18458291485 0.18183345702 0.17979294467 0.17847304619 0.17785603645 0.17789920537 
0.17853491677 0.17966825022 0.1811761937 0.18291226601 0.18471808083 0.18643997609 0.18794642212 0.18914171991 0.18997317222 
0.19043115926 0.1905432823 0.19036460506 0.18996619694 0.18942393297 0.1888089955 0.18818084296 0.18758269348 0.18703901932 
0.18655433915 0.18611275661 0.1856780718 0.18519465112 0.18458937922 0.18377487326 0.18265382903 0.18112411165 0.17908414068 
0.17643819659 0.17310133503 0.16900355752 0.1640928121 0.15833640835 0.15172059751 0.14424837296 0.1359359123 0.12680841236 
0.11689627567 0.10623261746 0.094852831644 0.08279648388 0.070111168573 0.056857337145 0.043112682434 0.028974615042 0.014559745271 
6.1131103111e-16 
_area 1 100 double
0 0.00055922666011 0.0022101111508 0.0048770604995 0.008448750466 0.012796010509 0.017790055454 0.023316801849 0.029284215411 
0.035621573851 0.042271912043 0.049181086437 0.056287706455 0.063516951038 0.070778928108 0.077970508988 0.084979237872 0.091688378886 
0.097982652154 0.10375458388 0.10891179103 0.11338572586 0.11714194818 0.12019075882 0.12259549447 0.12447477464 0.12599533992 
0.12735427283 0.12875278501 0.13036654684 0.13231786556 0.13465308787 0.13732673652 0.14019440902 0.14301869477 0.14549240046 
0.1472792326 0.14806623383 0.14761778758 0.1458192863 0.14270023898 0.13843145916 0.13329719205 0.12764814647 0.12184440524 
0.11619980498 0.11094272112 0.10620539831 0.10203883088 0.098436853789 0.095356496528 0.092733744967 0.090500897112 0.088608157704 
0.087042513169 0.085833302563 0.085044694584 0.084732313303 0.084789907557 0.085028750622 0.085236735703 0.085239699726 0.084927260536 
0.084249879698 0.083210687453 0.081856609166 0.080267502483 0.078542704939 0.076787136227 0.07510066507 0.073574725245 0.072298462328 
0.071384816216 0.071132408391 0.071422051909 0.072037201369 0.072863847576 0.073787826147 0.074662963038 0.075311352032 0.075537771298 
0.075153797442 0.074004406498 0.071989196561 0.069073166681 0.065285989264 0.060712087022 0.055475835678 0.049726550058 0.043626543362 
0.037343336662 0.03104554107 0.024901549726 0.01908004916 0.013750757428 0.0090831565085 0.0052412146764 0.0023735147126 0.00060022965774 
2.0179660405e-17 
