# vtk DataFile Version 5.1
vtk output
ASCII
DATASET POLYDATA
POINTS 100 float
0.0988819 0.0536241 0.686903 0.0992132 0.0537766 0.686496 0.100079 0.0544008 0.685418 
0.101389 0.055432 0.683686 0.103009 0.0567697 0.681328 0.104769 0.0582882 0.678373 
0.10649 0.059849 0.674847 0.107998 0.0613149 0.670769 0.109144 0.0625626 0.666143 
0.109821 0.0634932 0.660957 0.109967 0.0640401 0.655186 0.10957 0.0641714 0.648792 
0.108662 0.0638896 0.641734 0.107307 0.0632266 0.633972 0.105591 0.062236 0.625476 
0.103596 0.0609838 0.616238 0.101395 0.0595388 0.60627 0.0990306 0.0579637 0.595613 
0.0965091 0.0563087 0.584335 0.0937995 0.0546079 0.572524 0.0908357 0.0528792 0.560286 
0.0875261 0.0511267 0.547729 0.0837674 0.0493466 0.534956 0.07946 0.0475337 0.522057 
0.0745238 0.0456886 0.509094 0.0689115 0.0438243 0.496102 0.0626173 0.0419703 0.483084 
0.0556804 0.0401743 0.470011 0.0481821 0.0385002 0.456832 0.0402372 0.0370239 0.443479 
0.0319812 0.0358258 0.429876 0.0235543 0.0349823 0.415951 0.0150857 0.0345563 0.40164 
0.00667914 0.0345892 0.386896 -0.00159712 0.0350942 0.37169 -0.00971467 0.0360538 0.356008 
-0.0176834 0.0374193 0.339848 -0.0255436 0.0391151 0.323213 -0.0333531 0.0410458 0.3061 
-0.041171 0.0431054 0.288499 -0.0490404 0.0451883 0.270381 -0.0569722 0.0472 0.2517 
-0.0649337 0.049066 0.232396 -0.0728409 0.0507394 0.212397 -0.0805596 0.0522035 0.191631 
-0.0879121 0.0534722 0.170041 -0.0946902 0.0545861 0.147592 -0.100674 0.0556052 0.124287 
-0.105653 0.0566002 0.100173 -0.109445 0.0576422 0.075348 -0.111916 0.0587927 0.0499563 
-0.112996 0.0600955 0.0241824 -0.11268 0.0615702 -0.00176174 -0.111036 0.0632097 -0.0276539 
-0.10819 0.0649803 -0.0532805 -0.10432 0.0668255 -0.0784557 -0.0996291 0.0686713 -0.103037 
-0.0943342 0.0704346 -0.126939 -0.0886386 0.0720313 -0.150134 -0.0827172 0.0733835 -0.172656 
-0.0767022 0.0744269 -0.194587 -0.0706755 0.0751143 -0.216044 -0.0646675 0.0754178 -0.237161 
-0.0586625 0.075328 -0.258064 -0.0526089 0.0748513 -0.278858 -0.0464333 0.0740049 -0.299602 
-0.0400566 0.0728124 -0.320307 -0.0334092 0.0712976 -0.340926 -0.0264443 0.069481 -0.361361 
-0.0191471 0.0673767 -0.381476 -0.01154 0.0649915 -0.401111 -0.00368133 0.0623259 -0.4201 
0.0043386 0.059377 -0.438299 0.0124067 0.0561428 -0.455595 0.0203977 0.0526264 -0.471926 
0.0281856 0.0488412 -0.487284 0.0356541 0.0448139 -0.501713 0.0427055 0.0405874 -0.515305 
0.049266 0.0362204 -0.528179 0.0552876 0.0317866 -0.540461 0.0607478 0.0273706 -0.552271 
0.0656449 0.023063 -0.563692 0.0699934 0.0189548 -0.574764 0.0738176 0.0151308 -0.585468 
0.0771461 0.0116639 -0.595732 0.0800073 0.0086106 -0.605433 0.0824269 0.00600723 -0.614414 
0.0844278 0.00386877 -0.622509 0.0860309 0.00218888 -0.629559 0.0872585 0.000941859 -0.635442 
0.088137 8.57625e-05 -0.640091 0.0887 -0.000433437 -0.643509 0.0889904 -0.000677337 -0.645773 
0.0890602 -0.000710571 -0.647028 0.0889696 -0.000596645 -0.647481 0.0887828 -0.000394394 -0.647372 
0.0885633 -0.000155193 -0.646953 0.0883686 7.90938e-05 -0.646457 0.0882441 0.000277481 -0.646076 
0.0882188 0.000420696 -0.645931 
LINES 2 100
OFFSETS vtktypeint64
0 100 
CONNECTIVITY vtktypeint64
0 1 2 3 4 5 6 7 8 
9 10 11 12 13 14 15 16 17 
18 19 20 21 22 23 24 25 26 
27 28 29 30 31 32 33 34 35 
36 37 38 39 40 41 42 43 44 
45 46 47 48 49 50 51 52 53 
54 55 56 57 58 59 60 61 62 
63 64 65 66 67 68 69 70 71 
72 73 74 75 76 77 78 79 80 
81 82 83 84 85 86 87 88 89 
90 91 92 93 94 95 96 97 98 
99 
POINT_DATA 100
FIELD FieldData 3
_theta 1 100 double
0 0.031733259127 0.063466518254 0.095199777382 0.12693303651 0.15866629564 0.19039955476 0.22213281389 0.25386607302 
0.28559933214 0.31733259127 0.3490658504 0.38079910953 0.41253236865 0.44426562778 0.47599888691 0.50773214603 0.53946540516 
0.57119866429 0.60293192342 0.63466518254 0.66639844167 0.6981317008 0.72986495992 0.76159821905 0.79333147818 0.82506473731 
0.85679799643 0.88853125556 0.92026451469 0.95199777382 0.98373103294 1.0154642921 1.0471975512 1.0789308103 1.1106640695 
1.1423973286 1.1741305877 1.2058638468 1.237597106 1.2693303651 1.3010636242 1.3327968833 1.3645301425 1.3962634016 
1.4279966607 1.4597299198 1.491463179 1.5231964381 1.5549296972 1.5866629564 1.6183962155 1.6501294746 1.6818627337 
1.7135959929 1.745329252 1.7770625111 1.8087957702 1.8405290294 1.8722622885 1.9039955476 1.9357288068 1.9674620659 
1.999195325 2.0309285841 2.0626618433 2.0943951024 2.1261283615 2.1578616206 2.1895948798 2.2213281389 2.253061398 
2.2847946572 2.3165279163 2.3482611754 2.3799944345 2.4117276937 2.4434609528 2.4751942119 2.506927471 2.5386607302 
2.5703939893 2.6021272484 2.6338605076 2.6655937667 2.6973270258 2.7290602849 2.7607935441 2.7925268032 2.8242600623 
2.8559933214 2.8877265806 2.9194598397 2.9511930988 2.982926358 3.0146596171 3.0463928762 3.0781261353 3.1098593945 
3.1415926536 
_radius 1 100 double
3.427560745e-16 0.014685001029 0.02931055529 0.043821867245 0.058158681927 0.072252916257 0.086027571447 0.099397751742 0.11227424034 
0.12456937111 0.13620422994 0.14711585935 0.15726323882 0.16663122932 0.17523214148 0.18310489882 0.1903118733 0.19693348994 
0.20306080587 0.20878655836 0.21419557778 0.21935581352 0.22431137989 0.22907893817 0.23364833748 0.23798765854 0.24205168783 
0.24579178842 0.24916467858 0.25213803314 0.25469186487 0.25681587719 0.25850400406 0.25974791279 0.2605312604 0.2608260704 
0.26059198888 0.25977864689 0.25833102817 0.25619756012 0.2533404642 0.24974759822 0.24544458556 0.24050553413 0.23506022402 
0.22929542717 0.22344819914 0.21778983145 0.2126009755 0.20814120593 0.20461903174 0.20216924191 0.2008421491 0.20060472073 
0.20134970074 0.20290801365 0.20506193133 0.20755958883 0.21013307096 0.21252130918 0.21449620431 0.21588773578 0.21660293673 
0.21663469971 0.21605860958 0.21501843907 0.21370296359 0.21231802756 0.21105820294 0.21008194814 0.209493051 0.2093296343 
0.20956062439 0.21008883423 0.21075979912 0.21137577001 0.21171415439 0.2115489316 0.21067252676 0.20891498387 0.2061574841 
0.2023382892 0.19745068156 0.19153395826 0.18465963848 0.17691555663 0.16839042723 0.15916094782 0.14928281076 0.13878635328 
0.12767708609 0.11594094686 0.10355369159 0.090493280805 0.07675350206 0.062356590172 0.047362491166 0.031872801597 0.016028280077 
1.6893304e-15 
_area 1 100 double
0 0.00055447798554 0.0022095732287 0.0049395932086 0.0086996646484 0.013423403419 0.019021195895 0.025380398062 0.032368190863 
0.039836362986 0.047625887742 0.055569793807 0.063496184189 0.071236203036 0.078640208543 0.085600064707 0.092070578191 0.098081415934 
0.10373287275 0.10917434979 0.11457170319 0.1200747795 0.12579528382 0.13179735895 0.13809409092 0.14464074456 0.15132566922 
0.15797492779 0.16438324551 0.17035910816 0.17575911199 0.18049787307 0.18453515891 0.18785024066 0.19041540431 0.19217780239 
0.19305385612 0.19293606351 0.19170957904 0.18927520603 0.18557547539 0.18062000946 0.17450531003 0.1674236715 0.15965717787 
0.15155564573 0.14350094273 0.13586318306 0.12895617587 0.12300080884 0.11810960269 0.11431358054 0.11160817108 0.10990516904 
0.10904969453 0.10889671191 0.10930328518 0.11011297086 0.11113548534 0.11212539362 0.11277938638 0.11277819419 0.11186844475 
0.10993809413 0.10704954737 0.1034270139 0.099410305478 0.09539140962 0.09175074471 0.088806846335 0.086785326445 0.085806605887 
0.08589117805 0.087001379808 0.089109722738 0.091901558651 0.094839747378 0.097527564834 0.099596518901 0.10072941035 0.10069368719 
0.099360841155 0.096706499469 0.092794078101 0.087750008564 0.081739341894 0.074947392386 0.06756851355 0.059799902289 0.051837713518 
0.04387395176 0.036093984613 0.028675098266 0.021786329787 0.015589311705 0.010239151668 0.0058834114327 0.0026568229871 0.00067080357654 
1.3891340335e-17 
