# vtk DataFile Version 5.1
vtk output
ASCII
DATASET POLYDATA
POINTS 100 float
0.0867808 0.0506423 0.701064 0.0868207 0.0507699 0.700767 0.0869903 0.0509752 0.699697 
0.0872557 0.0512561 0.697888 0.0875633 0.0516085 0.695388 0.0878452 0.0520251 0.692255 
0.0880257 0.0524939 0.68854 0.0880278 0.0529962 0.68428 0.0877804 0.0535063 0.679492 
0.0872232 0.0539907 0.674162 0.0863107 0.0544093 0.668253 0.0850141 0.0547167 0.661704 
0.0833204 0.0548653 0.654441 0.0812305 0.0548083 0.646391 0.078755 0.0545042 0.637495 
0.07591 0.0539201 0.62772 0.0727123 0.0530353 0.617068 0.0691749 0.0518441 0.605587 
0.0653051 0.0503575 0.593365 0.0611027 0.0486025 0.580528 0.0565605 0.0466218 0.567229 
0.0516675 0.0444706 0.553629 0.0464113 0.0422131 0.539885 0.0407832 0.0399183 0.526132 
0.0347819 0.0376551 0.512464 0.0284176 0.0354882 0.498928 0.0217132 0.0334743 0.48552 
0.0147057 0.0316593 0.472185 0.00744386 0.0300771 0.458827 -1.5018e-05 0.028749 0.445321 
-0.00760995 0.0276851 0.431531 -0.0152821 0.0268862 0.417328 -0.0229804 0.0263468 0.402604 
-0.0306668 0.0260579 0.387283 -0.0383194 0.0260101 0.371333 -0.0459337 0.0261959 0.35476 
-0.053521 0.0266118 0.337604 -0.061105 0.0272584 0.319931 -0.068715 0.0281408 0.301813 
-0.0763785 0.0292667 0.283316 -0.0841125 0.0306451 0.264484 -0.0919156 0.0322834 0.24533 
-0.0997608 0.0341851 0.225827 -0.107591 0.0363475 0.205912 -0.115319 0.0387599 0.185493 
-0.122826 0.0414026 0.164462 -0.129972 0.0442465 0.142711 -0.1366 0.0472541 0.120152 
-0.14255 0.0503806 0.0967352 -0.147667 0.0535763 0.0724576 -0.151818 0.0567884 0.0473756 
-0.1549 0.0599643 0.0216028 -0.156849 0.0630532 -0.00469684 -0.157643 0.066008 -0.0313225 
-0.157308 0.0687871 -0.0580556 -0.155911 0.0713546 -0.0846814 -0.153555 0.0736806 -0.11101 
-0.150369 0.0757408 -0.136893 -0.1465 0.0775152 -0.16224 -0.142092 0.0789875 -0.187018 
-0.137284 0.0801438 -0.211252 -0.132193 0.0809715 -0.235017 -0.126909 0.0814588 -0.258414 
-0.121489 0.0815942 -0.281559 -0.115959 0.0813667 -0.304553 -0.110315 0.0807662 -0.327471 
-0.104533 0.079784 -0.350341 -0.0985723 0.0784143 -0.37314 -0.0923896 0.0766544 -0.395795 
-0.0859484 0.0745064 -0.418187 -0.0792279 0.0719777 -0.44017 -0.0722301 0.0690818 -0.461587 
-0.0649842 0.0658388 -0.482289 -0.0575473 0.0622755 -0.502159 -0.0500026 0.0584255 -0.521122 
-0.0424533 0.0543289 -0.539153 -0.0350153 0.050032 -0.556281 -0.0278079 0.0455866 -0.572577 
-0.0209435 0.041049 -0.58814 -0.0145193 0.0364792 -0.603079 -0.00860866 0.0319397 -0.617489 
-0.00325673 0.0274936 -0.631433 0.00152248 0.0232031 -0.644925 0.00574527 0.0191276 -0.657918 
0.00945463 0.0153213 -0.670311 0.0127142 0.011831 -0.68195 0.0156003 0.00869414 -0.69265 
0.0181933 0.00593691 -0.702218 0.0205691 0.00357264 -0.710479 0.0227907 0.0016011 -0.717301 
0.024903 8.3961e-06 -0.722621 0.0269287 -0.00123222 -0.726456 0.0288672 -0.00215868 -0.728912 
0.0306967 -0.00281752 -0.730176 0.0323777 -0.0032607 -0.7305 0.0338591 -0.00354176 -0.730181 
0.0350856 -0.00371191 -0.729522 0.0360042 -0.00381612 -0.728808 0.0365721 -0.0038896 -0.728266 
0.036761 -0.00395506 -0.728045 
LINES 2 100
OFFSETS vtktypeint64
0 100 
CONNECTIVITY vtktypeint64
0 1 2 3 4 5 6 7 8 
9 10 11 12 13 14 15 16 17 
18 19 20 21 22 23 24 25 26 
27 28 29 30 31 32 33 34 35 
36 37 38 39 40 41 42 43 44 
45 46 47 48 49 50 51 52 53 
54 55 56 57 58 59 60 61 62 
63 64 65 66 67 68 69 70 71 
72 73 74 75 76 77 78 79 80 
81 82 83 84 85 86 87 88 89 
90 91 92 93 94 95 96 97 98 
99 
POINT_DATA 100
FIELD FieldData 3
_theta 1 100 double
0 0.031733259127 0.063466518254 0.095199777382 0.12693303651 0.15866629564 0.19039955476 0.22213281389 0.25386607302 
0.28559933214 0.31733259127 0.3490658504 0.38079910953 0.41253236865 0.44426562778 0.47599888691 0.50773214603 0.53946540516 
0.57119866429 0.60293192342 0.63466518254 0.66639844167 0.6981317008 0.72986495992 0.76159821905 0.79333147818 0.82506473731 
0.85679799643 0.88853125556 0.92026451469 0.95199777382 0.98373103294 1.0154642921 1.0471975512 1.0789308103 1.1106640695 
1.1423973286 1.1741305877 1.2058638468 1.237597106 1.2693303651 1.3010636242 1.3327968833 1.3645301425 1.3962634016 
1.4279966607 1.4597299198 1.491463179 1.5231964381 1.5549296972 1.5866629564 1.6183962155 1.6501294746 1.6818627337 
1.7135959929 1.745329252 1.7770625111 1.8087957702 1.8405290294 1.8722622885 1.9039955476 1.9357288068 1.9674620659 
1.999195325 2.0309285841 2.0626618433 2.0943951024 2.1261283615 2.1578616206 2.1895948798 2.2213281389 2.253061398 
2.2847946572 2.3165279163 2.3482611754 2.3799944345 2.4117276937 2.4434609528 2.4751942119 2.506927471 2.5386607302 
2.5703939893 2.6021272484 2.6338605076 2.6655937667 2.6973270258 2.7290602849 2.7607935441 2.7925268032 2.8242600623 
2.8559933214 2.8877265806 2.9194598397 2.9511930988 2.982926358 3.0146596171 3.0463928762 3.0781261353 3.1098593945 
3.1415926536 
_radius 1 100 double
3.9252311467e-17 0.013788371929 0.027524808269 0.041144492908 0.054581544194 0.067770684936 0.080649969624 0.093163854 0.10526562 
0.11691828674 0.12809361763 0.13876949287 0.14892649313 0.15854480839 0.16760245259 0.17607530551 0.18393890959 0.19117144444 
0.19775704567 0.20368867966 0.20897007069 0.21361655769 0.21765505693 0.2211233804 0.22406897056 0.22654678951 0.22861589962 
0.23033442951 0.23175316827 0.23290874035 0.23381780207 0.23447367317 0.23484626445 0.23488536625 0.23452670021 0.23369984174 
0.23233717094 0.23038319791 0.22780370294 0.22459402449 0.22078557954 0.21644948555 0.21169615612 0.20667008789 0.20153979072 
0.19648389074 0.19167565298 0.18726907588 0.18338964822 0.18013135005 0.17755882552 0.1757111409 0.17460271411 0.17421862407 
0.17450517446 0.17536092018 0.17663590348 0.17814445381 0.17968941785 0.18108913838 0.18219872421 0.1829220026 0.18321464687 
0.18308060511 0.18256415408 0.18173965322 0.18070066823 0.17954955826 0.17838794337 0.1773079868 0.17638444746 0.17566795858 
0.17518051629 0.17491413963 0.17483286911 0.17487710693 0.17496853518 0.17501398948 0.17490759425 0.17453163875 0.17375754998 
0.1724485834 0.17046541281 0.16767477224 0.16396002502 0.15923149726 0.15343406908 0.14655006003 0.13859671101 0.12961911152 
0.11968071186 0.10885414897 0.097214793043 0.084838307822 0.071802044513 0.05818883129 0.044091134573 0.029613778838 0.0148741853 
1.5573539291e-15 
_area 1 100 double
0 0.00057621581847 0.002286375518 0.0050772270454 0.0088668841126 0.013553501548 0.019024618712 0.025165255287 0.031863252506 
0.039011131126 0.046504740344 0.054239923589 0.062108957298 0.069998402137 0.077789397443 0.085360759732 0.09259480979 0.099385561974 
0.10564850621 0.11133062783 0.1164187373 0.12094398993 0.12498100676 0.12864086689 0.13205723141 0.13536476193 0.13867214998 
0.14203697023 0.14544946259 0.14882803715 0.15202713006 0.15485727916 0.15711433488 0.15861123626 0.15920579512 0.1588202096 
0.15742921181 0.15504532086 0.15179855494 0.14756626322 0.14238415274 0.13641452042 0.12990723907 0.12315949358 0.11647502936 
0.11012256298 0.10430094962 0.099120842494 0.094607898829 0.090724592874 0.087405977393 0.084580746457 0.082184053366 0.080268434656 
0.078913888088 0.078158263162 0.077898639477 0.077892742126 0.077855445492 0.077561499618 0.076895585256 0.075852660665 0.074507950426 
0.072970909866 0.071340401117 0.069683783063 0.068048001259 0.066482010066 0.065044829309 0.063801252938 0.062821221442 0.062184134846 
0.062003346115 0.062446439008 0.063481939467 0.064918408518 0.06660803872 0.068400618358 0.070130908714 0.071620052766 0.072684634138 
0.073145633926 0.072836211276 0.071611754106 0.069365396975 0.06604763634 0.061683491211 0.056379482218 0.050316691774 0.043732108733 
0.036894360164 0.03008003731 0.023553980567 0.017553540895 0.012275431761 0.0078651609124 0.0044117858735 0.001952114566 0.00048617557548 
8.2670415652e-18 
