# vtk DataFile Version 5.1
vtk output
ASCII
DATASET POLYDATA
POINTS 100 float
0.113708 0.0449513 0.703043 0.113886 0.044971 0.702456 0.114354 0.0451691 0.700848 
0.11506 0.0455369 0.698283 0.115919 0.0460589 0.694861 0.116825 0.0467127 0.690699 
0.117659 0.047469 0.685921 0.118305 0.0482924 0.680641 0.118655 0.049142 0.674951 
0.118619 0.0499735 0.668908 0.118135 0.0507405 0.662533 0.117165 0.0513979 0.655811 
0.115703 0.0519039 0.648693 0.113764 0.0522233 0.641114 0.111383 0.0523299 0.633 
0.108606 0.0522086 0.624284 0.105482 0.0518569 0.614918 0.102054 0.051285 0.604885 
0.0983572 0.0505151 0.5942 0.0944139 0.0495797 0.582911 0.0902315 0.0485189 0.571096 
0.0858055 0.0473769 0.558848 0.0811236 0.0461982 0.546266 0.0761708 0.045024 0.533441 
0.0709354 0.0438887 0.520443 0.0654145 0.0428175 0.507315 0.0596178 0.0418249 0.494061 
0.0535698 0.0409148 0.480654 0.0473094 0.0400812 0.467039 0.0408861 0.0393109 0.453137 
0.0343553 0.0385862 0.438865 0.0277717 0.0378895 0.424142 0.0211816 0.0372067 0.408907 
0.0146171 0.0365307 0.393119 0.00809052 0.035865 0.376767 0.00159275 0.0352251 0.359868 
-0.00490622 0.0346391 0.342458 -0.0114529 0.0341466 0.324586 -0.018103 0.0337971 0.3063 
-0.0249116 0.0336456 0.287632 -0.0319222 0.0337494 0.268594 -0.0391552 0.0341624 0.249164 
-0.0465981 0.0349309 0.22929 -0.0541982 0.0360896 0.208894 -0.0618588 0.0376573 0.187879 
-0.0694398 0.0396356 0.166145 -0.0767632 0.0420074 0.14361 -0.0836226 0.0447377 0.120223 
-0.0897967 0.047775 0.0959805 -0.0950644 0.0510549 0.0709377 -0.0992218 0.0545029 0.045212 
-0.102098 0.0580395 0.0189791 -0.103569 0.0615839 -0.00753878 -0.103567 0.0650581 -0.0340902 
-0.102086 0.0683908 -0.0604175 -0.0991824 0.0715193 -0.0862805 -0.0949707 0.0743916 -0.11148 
-0.0896121 0.0769669 -0.135878 -0.083302 0.0792154 -0.159407 -0.0762548 0.0811166 -0.182076 
-0.0686864 0.0826579 -0.203964 -0.0607992 0.0838323 -0.22521 -0.0527682 0.0846354 -0.245987 
-0.0447306 0.0850636 -0.266482 -0.0367805 0.0851119 -0.286866 -0.0289672 0.0847718 -0.307274 
-0.0212987 0.0840314 -0.327785 -0.0137486 0.0828741 -0.348411 -0.00626658 0.0812804 -0.369095 
0.00120967 0.0792282 -0.389716 0.0087422 0.0766961 -0.410108 0.016381 0.0736651 -0.430076 
0.0241545 0.0701221 -0.449423 0.0320627 0.0660631 -0.467972 0.040074 0.0614963 -0.485585 
0.0481252 0.0564445 -0.502182 0.0561258 0.0509479 -0.51774 0.0639639 0.0450643 -0.532295 
0.0715154 0.0388702 -0.545933 0.0786535 0.032459 -0.558771 0.0852585 0.0259386 -0.570934 
0.0912271 0.0194279 -0.58254 0.0964797 0.0130517 -0.593676 0.100966 0.00693502 -0.604385 
0.104665 0.00119697 -0.614658 0.107591 -0.00405601 -0.624439 0.109782 -0.00873592 -0.633626 
0.111306 -0.0127785 -0.642096 0.112246 -0.016147 -0.649716 0.112697 -0.0188345 -0.65637 
0.112761 -0.020864 -0.661976 0.11254 -0.0222866 -0.666502 0.112128 -0.0231777 -0.669974 
0.111611 -0.0236311 -0.672478 0.111061 -0.0237518 -0.674147 0.11054 -0.0236483 -0.675153 
0.110093 -0.023424 -0.67568 0.109756 -0.0231688 -0.675905 0.10955 -0.0229529 -0.675972 
0.10949 -0.0228208 -0.675979 
LINES 2 100
OFFSETS vtktypeint64
0 100 
CONNECTIVITY vtktypeint64
0 1 2 3 4 5 6 7 8 
9 10 11 12 13 14 15 16 17 
18 19 20 21 22 23 24 25 26 
27 28 29 30 31 32 33 34 35 
36 37 38 39 40 41 42 43 44 
45 46 47 48 49 50 51 52 53 
54 55 56 57 58 59 60 61 62 
63 64 65 66 67 68 69 70 71 
72 73 74 75 76 77 78 79 80 
81 82 83 84 85 86 87 88 89 
90 91 92 93 94 95 96 97 98 
99 
POINT_DATA 100
FIELD FieldData 3
_theta 1 100 double
0 0.031733259127 0.063466518254 0.095199777382 0.12693303651 0.15866629564 0.19039955476 0.22213281389 0.25386607302 
0.28559933214 0.31733259127 0.3490658504 0.38079910953 0.41253236865 0.44426562778 0.47599888691 0.50773214603 0.53946540516 
0.57119866429 0.60293192342 0.63466518254 0.66639844167 0.6981317008 0.72986495992 0.76159821905 0.79333147818 0.82506473731 
0.85679799643 0.88853125556 0.92026451469 0.95199777382 0.98373103294 1.0154642921 1.0471975512 1.0789308103 1.1106640695 
1.1423973286 1.1741305877 1.2058638468 1.237597106 1.2693303651 1.3010636242 1.3327968833 1.3645301425 1.3962634016 
1.4279966607 1.4597299198 1.491463179 1.5231964381 1.5549296972 1.5866629564 1.6183962155 1.6501294746 1.6818627337 
1.7135959929 1.745329252 1.7770625111 1.8087957702 1.8405290294 1.8722622885 1.9039955476 1.9357288068 1.9674620659 
1.999195325 2.0309285841 2.0626618433 2.0943951024 2.1261283615 2.1578616206 2.1895948798 2.2213281389 2.253061398 
2.2847946572 2.3165279163 2.3482611754 2.3799944345 2.4117276937 2.4434609528 2.4751942119 2.506927471 2.5386607302 
2.5703939893 2.6021272484 2.6338605076 2.6655937667 2.6973270258 2.7290602849 2.7607935441 2.7925268032 2.8242600623 
2.8559933214 2.8877265806 2.9194598397 2.9511930988 2.982926358 3.0146596171 3.0463928762 3.0781261353 3.1098593945 
3.1415926536 
_radius 1 100 double
1.5593379053e-15 0.014320074227 0.028528506945 0.042525474766 0.056229905273 0.069582755242 0.082545214517 0.095093055162 0.10720952737 
0.11887945481 0.13008640147 0.14081334121 0.15104579471 0.16077545522 0.17000217505 0.1787328181 0.18697667541 0.19473849496 
0.20201121901 0.20877086863 0.21497554449 0.22056941418 0.2254912188 0.22968566317 0.23311534316 0.23577073207 0.23767617276 
0.23889067985 0.23950343958 0.23962492995 0.2393752691 0.23887155177 0.23821563607 0.2374834448 0.23671668284 0.23591796252 
0.23505034102 0.23404188229 0.23279510632 0.23120043967 0.22915229949 0.22656618672 0.22339498118 0.21964249188 0.21537232313 
0.210710378 0.2058398516 0.20098832626 0.19640757274 0.19234795831 0.18903092795 0.1866243658 0.18522571622 0.18485566922 
0.18546157095 0.18692676828 0.18908188975 0.19171635595 0.19459097154 0.19745331957 0.20005667209 0.20218136583 0.20365614113 
0.20437616657 0.2043143812 0.20352350668 0.20212764841 0.20030440411 0.19826018787 0.19620260733 0.19431406016 0.19273030664 
0.19152676524 0.19071382753 0.19024082551 0.19000680064 0.18987536164 0.18969086021 0.18929362848 0.18853268859 0.18727491125 
0.18541007054 0.1828517262 0.17953441002 0.17540814199 0.17043173252 0.16456650456 0.15777192642 0.15000422839 0.14121849664 
0.13137408688 0.12044253421 0.10841656022 0.095318457839 0.081206213444 0.066176212229 0.050362126439 0.033930375869 0.017073129787 
6.489357491e-16 
_area 1 100 double
0 0.0005200269931 0.0020612165012 0.0045709190747 0.0079732467607 0.012182105081 0.017112135506 0.022684507699 0.028827372489 
0.03547321363 0.042555855417 0.05000862165 0.057763599037 0.065751460531 0.073901803594 0.082144277016 0.090409986696 0.09863130775 
0.10673800047 0.11464987815 0.12227060937 0.12948985857 0.13619770051 0.14230692622 0.14777157832 0.15258986693 0.15678850674 
0.16039789117 0.163432391 0.16588378194 0.16772694112 0.16893302981 0.1694848904 0.16938954329 0.16868354578 0.16742879731 
0.16569848371 0.16355422263 0.16101712369 0.15804435628 0.15453582529 0.15038135934 0.14552140184 0.1399892286 0.13392536423 
0.12756765214 0.12122289456 0.11523249924 0.10997421963 0.10572641784 0.10239975366 0.099849268873 0.097945402047 0.096577020575 
0.095657475946 0.09513506963 0.094920413672 0.094932170045 0.095114376117 0.095435386261 0.095808448211 0.095966253828 0.095742063537 
0.095013617274 0.093705570451 0.091810659058 0.089400932753 0.086618353723 0.08365414466 0.080728420312 0.078069065071 0.075884632566 
0.074355083202 0.073645524702 0.073775834168 0.074373007308 0.075235921896 0.076147323657 0.076922746678 0.077419171498 0.077520730541 
0.077125216182 0.076138087512 0.074474298174 0.072063796945 0.068857594039 0.064834851278 0.060011403564 0.054448064992 0.048256529142 
0.041601368787 0.03469692589 0.027797646211 0.021180811077 0.015122544367 0.0098711187166 0.0056244000621 0.0025186150564 0.00063200406154 
3.3074468342e-17 
