# vtk DataFile Version 5.1
vtk output
ASCII
DATASET POLYDATA
POINTS 100 float
0.0649427 0.0416864 0.665132 0.0651632 0.0417909 0.664827 0.0658215 0.0419567 0.663751 
0.0668407 0.0421632 0.661934 0.068104 0.0423813 0.659429 0.0694685 0.0425779 0.656294 
0.0707834 0.0427229 0.652593 0.0719075 0.0427945 0.648377 0.0727254 0.0427847 0.643683 
0.0731606 0.0427021 0.638528 0.0731818 0.0425718 0.632903 0.0728042 0.0424331 0.626776 
0.0720833 0.0423347 0.620101 0.0711042 0.0423269 0.612817 0.0699664 0.0424542 0.604868 
0.0687672 0.0427467 0.596205 0.0675852 0.0432141 0.586799 0.0664674 0.0438403 0.576648 
0.0654199 0.0445831 0.56578 0.0644054 0.0453759 0.554257 0.0633467 0.0461333 0.542167 
0.0621353 0.0467595 0.529616 0.0606456 0.047159 0.516726 0.0587512 0.0472472 0.503616 
0.0563411 0.0469611 0.490395 0.053335 0.046268 0.477153 0.0496937 0.0451702 0.463949 
0.0454247 0.0437075 0.450814 0.0405812 0.0419548 0.437746 0.035255 0.0400158 0.424712 
0.0295647 0.0380141 0.411659 0.0236398 0.0360824 0.398517 0.0176038 0.0343502 0.385212 
0.0115587 0.0329333 0.371668 0.00557176 0.031924 0.35782 -0.000331527 0.0313855 0.343615 
-0.00616893 0.0313485 0.329012 -0.0119962 0.0318121 0.313983 -0.017896 0.0327483 0.29851 
-0.0239616 0.0341079 0.282578 -0.0302793 0.0358292 0.266172 -0.036909 0.0378462 0.249268 
-0.0438689 0.0400962 0.231838 -0.0511228 0.0425258 0.213842 -0.0585754 0.0450936 0.195234 
-0.0660732 0.0477717 0.175966 -0.0734137 0.0505424 0.155996 -0.0803599 0.053395 0.135293 
-0.08666 0.0563196 0.113849 -0.0920693 0.0593016 0.0916808 -0.0963721 0.0623164 0.068838 
-0.0994006 0.0653265 0.0454032 -0.101049 0.06828 0.0214888 -0.101283 0.0711127 -0.00276779 
-0.100137 0.0737517 -0.0272135 -0.097711 0.0761218 -0.0516899 -0.0941566 0.0781528 -0.0760451 
-0.0896588 0.0797867 -0.100144 -0.0844166 0.0809844 -0.123878 -0.0786228 0.0817298 -0.14717 
-0.0724456 0.0820323 -0.169977 -0.066015 0.0819248 -0.19229 -0.0594144 0.0814595 -0.214127 
-0.0526788 0.0807012 -0.235525 -0.0457988 0.0797176 -0.256531 -0.0387308 0.0785704 -0.277191 
-0.0314104 0.0773054 -0.297539 -0.0237685 0.0759453 -0.317594 -0.0157474 0.074485 -0.337349 
-0.0073151 0.0728897 -0.356772 0.00152434 0.0710975 -0.375811 0.0107248 0.0690258 -0.394394 
0.0201977 0.0665799 -0.412437 0.0298167 0.0636645 -0.429854 0.0394274 0.0601959 -0.446563 
0.0488597 0.0561135 -0.462493 0.0579431 0.0513903 -0.477589 0.0665211 0.0460398 -0.491812 
0.0744646 0.0401194 -0.505143 0.0816825 0.0337302 -0.517576 0.0881282 0.0270123 -0.529116 
0.0938013 0.0201361 -0.539773 0.0987452 0.0132915 -0.549556 0.10304 0.00667439 -0.558474 
0.106794 0.000473406 -0.566527 0.11013 -0.00514355 -0.573712 0.113172 -0.0100406 -0.580026 
0.116034 -0.0141227 -0.585466 0.11881 -0.0173411 -0.590036 0.121565 -0.0196955 -0.593758 
0.12433 -0.0212318 -0.59667 0.1271 -0.0220378 -0.598833 0.129837 -0.0222348 -0.600329 
0.132477 -0.021968 -0.601263 0.134935 -0.021395 -0.601752 0.137117 -0.0206744 -0.601921 
0.138925 -0.0199542 -0.601892 0.140276 -0.0193616 -0.601774 0.141099 -0.0189942 -0.601653 
0.141352 -0.0189132 -0.601584 
LINES 2 100
OFFSETS vtktypeint64
0 100 
CONNECTIVITY vtktypeint64
0 1 2 3 4 5 6 7 8 
9 10 11 12 13 14 15 16 17 
18 19 20 21 22 23 24 25 26 
27 28 29 30 31 32 33 34 35 
36 37 38 39 40 41 42 43 44 
45 46 47 48 49 50 51 52 53 
54 55 56 57 58 59 60 61 62 
63 64 65 66 67 68 69 70 71 
72 73 74 75 76 77 78 79 80 
81 82 83 84 85 86 87 88 89 
90 91 92 93 94 95 96 97 98 
99 
POINT_DATA 100
FIELD FieldData 3
_theta 1 100 double
0 0.031733259127 0.063466518254 0.095199777382 0.12693303651 0.15866629564 0.19039955476 0.22213281389 0.25386607302 
0.28559933214 0.31733259127 0.3490658504 0.38079910953 0.41253236865 0.44426562778 0.47599888691 0.50773214603 0.53946540516 
0.57119866429 0.60293192342 0.63466518254 0.66639844167 0.6981317008 0.72986495992 0.76159821905 0.79333147818 0.82506473731 
0.85679799643 0.88853125556 0.92026451469 0.95199777382 0.98373103294 1.0154642921 1.0471975512 1.0789308103 1.1106640695 
1.1423973286 1.1741305877 1.2058638468 1.237597106 1.2693303651 1.3010636242 1.3327968833 1.3645301425 1.3962634016 
1.4279966607 1.4597299198 1.491463179 1.5231964381 1.5549296972 1.5866629564 1.6183962155 1.6501294746 1.6818627337 
1.7135959929 1.745329252 1.7770625111 1.8087957702 1.8405290294 1.8722622885 1.9039955476 1.9357288068 1.9674620659 
1.999195325 2.0309285841 2.0626618433 2.0943951024 2.1261283615 2.1578616206 2.1895948798 2.2213281389 2.253061398 
2.2847946572 2.3165279163 2.3482611754 2.3799944345 2.4117276937 2.4434609528 2.4751942119 2.506927471 2.5386607302 
2.5703939893 2.6021272484 2.6338605076 2.6655937667 2.6973270258 2.7290602849 2.7607935441 2.7925268032 2.8242600623 
2.8559933214 2.8877265806 2.9194598397 2.9511930988 2.982926358 3.0146596171 3.0463928762 3.0781261353 3.1098593945 
3.1415926536 
_radius 1 100 double
1.1131681482e-15 0.013744722723 0.027470982736 0.041148253871 0.054734117887 0.068171490409 0.081388794451 0.094303166472 0.10682613773 
0.11887071419 0.13035857052 0.14122625548 0.15142978355 0.16094751974 0.16978156561 0.1779577682 0.18552410134 0.19254683473 
0.19910395463 0.20527586611 0.21113434205 0.21673161987 0.22209205314 0.22720848605 0.23204450175 0.23654220865 0.24063378892 
0.24425413406 0.24735179241 0.24989610363 0.25187949726 0.253315079 0.25423049046 0.25465948855 0.25463283586 0.2541700696 
0.25327358736 0.25192621882 0.25009301078 0.24772738436 0.24478122609 0.24121791873 0.23702679717 0.23223700303 0.22692824673 
0.22123574137 0.2153468815 0.20948849646 0.20390578587 0.19883658755 0.19448604794 0.19100634117 0.18848446596 0.18693927222 
0.18632690068 0.18655177288 0.18747892196 0.18894397095 0.19075974823 0.19272208142 0.19461929294 0.19624840317 0.1974366992 
0.19806341007 0.19807542513 0.19749304202 0.19640470657 0.19495220159 0.19330934533 0.19165801876 0.19016533541 0.18896505871 
0.18814508919 0.18774131495 0.18773685205 0.18806512164 0.18861535608 0.18923966591 0.18976134065 0.18998437153 0.18970424142 
0.18871988349 0.18684637126 0.18392737401 0.17984586966 0.1745313678 0.16796217379 0.16016200183 0.15119133001 0.14113503223 
0.13008875557 0.11814696356 0.10539530598 0.091908923875 0.077756649499 0.063009302362 0.04774905018 0.032076573559 0.01611361158 
7.4771964029e-16 
_area 1 100 double
0 0.00054434958848 0.0021655241225 0.0048278745215 0.0084722044973 0.013017009848 0.018361522161 0.024390922687 0.030983345535 
0.03801746702 0.045378885484 0.052963485409 0.060676866295 0.068430807017 0.076140087973 0.083723983323 0.09111424077 0.098266275295 
0.1051669758 0.11183392757 0.11830558332 0.12462648668 0.13083343563 0.13694672914 0.14296653597 0.14887073874 0.15461066565 
0.16010594171 0.16524487365 0.16989580268 0.17392809524 0.17723584761 0.1797565053 0.18147826437 0.18243199639 0.18266652332 
0.18221373845 0.18106043124 0.17914352322 0.17636951238 0.17264570515 0.16791229238 0.16217033263 0.15550253248 0.14808297415 
0.14017207998 0.13209516985 0.12420597335 0.11683970611 0.11026765605 0.10467140063 0.1001375247 0.096658914076 0.094139088943 
0.09240128041 0.091219522197 0.090383184745 0.089755024211 0.089281396317 0.088950773073 0.088716132796 0.08843145306 0.08787075007 
0.086814078959 0.085125076599 0.082788173643 0.07991007654 0.07669444306 0.073399431113 0.07029142377 0.067608455817 0.065539755069 
0.064219661178 0.063729841759 0.064098471228 0.065285001784 0.067169771802 0.069568961101 0.072248940591 0.074931723256 0.077303301717 
0.079033079376 0.079806620552 0.079365630388 0.077543398808 0.07428585368 0.06965499305 0.063817225808 0.057021713286 0.049573831986 
0.041807682664 0.034060086563 0.026647336837 0.019845501802 0.013875362775 0.0088937297397 0.0049932175178 0.0022118273123 0.00055135358595 
4.798778103e-17 
