# vtk DataFile Version 5.1
vtk output
ASCII
DATASET POLYDATA
POINTS 100 float
0.104549 0.0564469 0.717308 0.104551 0.0566986 0.717125 0.104584 0.0573007 0.716374 
0.104636 0.0581935 0.715062 0.104687 0.0592848 0.713193 0.104712 0.0604613 0.710771 
0.104682 0.0616023 0.707791 0.104565 0.0625933 0.704239 0.104325 0.0633393 0.700087 
0.103928 0.0637756 0.695292 0.103339 0.0638735 0.689802 0.102524 0.0636426 0.68356 
0.101448 0.0631271 0.676512 0.100079 0.0623989 0.668612 0.0983829 0.0615457 0.659837 
0.0963288 0.0606594 0.650191 0.0938855 0.0598223 0.639709 0.0910238 0.059096 0.628462 
0.0877181 0.0585127 0.616555 0.0839476 0.0580707 0.604115 0.0796988 0.0577345 0.59129 
0.0749675 0.0574388 0.578228 0.0697611 0.0570971 0.565068 0.0641001 0.0566124 0.551925 
0.0580189 0.0558891 0.538879 0.0515659 0.0548455 0.52597 0.0448014 0.0534237 0.513189 
0.0377952 0.051597 0.500486 0.0306226 0.0493735 0.487773 0.0233587 0.0467963 0.474937 
0.0160735 0.0439387 0.461854 0.00882548 0.0408982 0.448402 0.00165708 0.0377865 0.434477 
-0.00540956 0.0347205 0.420006 -0.0123747 0.0318129 0.404947 -0.0192608 0.029164 0.389302 
-0.0261101 0.0268568 0.373105 -0.0329796 0.0249542 0.356418 -0.0399336 0.0234991 0.33932 
-0.0470353 0.0225167 0.321891 -0.0543364 0.0220186 0.304197 -0.0618677 0.0220072 0.286283 
-0.06963 0.0224804 0.268155 -0.0775876 0.023434 0.249784 -0.0856642 0.0248641 0.2311 
-0.0937426 0.0267659 0.212003 -0.101668 0.0291317 0.192373 -0.109256 0.0319469 0.172083 
-0.1163 0.0351859 0.15102 -0.122589 0.0388076 0.129096 -0.12792 0.0427529 0.106262 
-0.13211 0.0469429 0.0825235 -0.135014 0.0512808 0.0579376 -0.136533 0.0556555 0.0326159 
-0.136623 0.0599478 0.0067159 -0.135299 0.0640385 -0.0195709 -0.132629 0.0678169 -0.0460344 
-0.128733 0.0711897 -0.0724636 -0.123771 0.0740884 -0.0986625 -0.117929 0.0764738 -0.124466 
-0.111405 0.0783384 -0.149748 -0.104391 0.0797047 -0.174432 -0.0970625 0.0806207 -0.198485 
-0.0895644 0.0811523 -0.221921 -0.0820033 0.0813737 -0.244784 -0.0744438 0.0813575 -0.26714 
-0.0669089 0.081164 -0.289064 -0.0593859 0.0808338 -0.310626 -0.0518342 0.0803817 -0.331877 
-0.0441971 0.0797944 -0.352845 -0.0364142 0.0790319 -0.373527 -0.028433 0.0780326 -0.393889 
-0.0202202 0.0767208 -0.413872 -0.0117689 0.0750163 -0.433393 -0.00310279 0.0728454 -0.452358 
0.00572393 0.0701512 -0.470672 0.0146301 0.0669016 -0.488242 0.023515 0.0630965 -0.504991 
0.0322677 0.0587702 -0.52086 0.0407783 0.0539909 -0.53581 0.0489479 0.0488576 -0.549825 
0.0566981 0.0434926 -0.562907 0.0639773 0.0380336 -0.575071 0.0707641 0.0326233 -0.586344 
0.0770667 0.0273997 -0.596756 0.0829186 0.0224868 -0.60634 0.0883718 0.0179871 -0.615123 
0.093487 0.0139764 -0.62313 0.0983237 0.0105008 -0.630382 0.10293 0.00757695 -0.636896 
0.107334 0.00519337 -0.642685 0.11154 0.0033149 -0.647765 0.115522 0.00188775 -0.652155 
0.119229 0.000845562 -0.655876 0.122589 0.000115678 -0.65895 0.125515 -0.000374848 -0.661406 
0.127915 -0.000693792 -0.66327 0.129703 -0.000899127 -0.664568 0.130811 -0.00103532 -0.665318 
0.131193 -0.00113062 -0.665536 
LINES 2 100
OFFSETS vtktypeint64
0 100 
CONNECTIVITY vtktypeint64
0 1 2 3 4 5 6 7 8 
9 10 11 12 13 14 15 16 17 
18 19 20 21 22 23 24 25 26 
27 28 29 30 31 32 33 34 35 
36 37 38 39 40 41 42 43 44 
45 46 47 48 49 50 51 52 53 
54 55 56 57 58 59 60 61 62 
63 64 65 66 67 68 69 70 71 
72 73 74 75 76 77 78 79 80 
81 82 83 84 85 86 87 88 89 
90 91 92 93 94 95 96 97 98 
99 
POINT_DATA 100
FIELD FieldData 3
_theta 1 100 double
0 0.031733259127 0.063466518254 0.095199777382 0.12693303651 0.15866629564 0.19039955476 0.22213281389 0.25386607302 
0.28559933214 0.31733259127 0.3490658504 0.38079910953 0.41253236865 0.44426562778 0.47599888691 0.50773214603 0.53946540516 
0.57119866429 0.60293192342 0.63466518254 0.66639844167 0.6981317008 0.72986495992 0.76159821905 0.79333147818 0.82506473731 
0.85679799643 0.88853125556 0.92026451469 0.95199777382 0.98373103294 1.0154642921 1.0471975512 1.0789308103 1.1106640695 
1.1423973286 1.1741305877 1.2058638468 1.237597106 1.2693303651 1.3010636242 1.3327968833 1.3645301425 1.3962634016 
1.4279966607 1.4597299198 1.491463179 1.5231964381 1.5549296972 1.5866629564 1.6183962155 1.6501294746 1.6818627337 
1.7135959929 1.745329252 1.7770625111 1.8087957702 1.8405290294 1.8722622885 1.9039955476 1.9357288068 1.9674620659 
1.999195325 2.0309285841 2.0626618433 2.0943951024 2.1261283615 2.1578616206 2.1895948798 2.2213281389 2.253061398 
2.2847946572 2.3165279163 2.3482611754 2.3799944345 2.4117276937 2.4434609528 2.4751942119 2.506927471 2.5386607302 
2.5703939893 2.6021272484 2.6338605076 2.6655937667 2.6973270258 2.7290602849 2.7607935441 2.7925268032 2.8242600623 
2.8559933214 2.8877265806 2.9194598397 2.9511930988 2.982926358 3.0146596171 3.0463928762 3.0781261353 3.1098593945 
3.1415926536 
_radius 1 100 double
3.427560745e-16 0.014133178306 0.028260291374 0.042360587063 0.056397372624 0.070313938347 0.084033178296 0.097461122291 0.11049392295 
0.12302723688 0.13496652138 0.14623662465 0.15678920739 0.16660695422 0.17570410977 0.18412346262 0.19193036888 0.19920467731 
0.20603149646 0.21249171014 0.21865310169 0.22456294994 0.23024297684 0.23568744174 0.24086486454 0.24572329202 0.25019832592 
0.25422253602 0.25773459606 0.26068658621 0.2630483464 0.26480839741 0.26597160808 0.26655433673 0.26657811808 0.26606308147 
0.26502223059 0.26345758503 0.26135903676 0.25870657038 0.25547612089 0.25164871971 0.24722176643 0.24222047557 0.23670706604 
0.2307853158 0.22459878153 0.21832218984 0.21214698306 0.20626338529 0.20084228898 0.19602050205 0.19189230899 0.18850882432 
0.18588434891 0.18400645358 0.18284499085 0.18235583716 0.18247798639 0.18312641052 0.18418612467 0.18551348824 0.18694777824 
0.18833054703 0.18952621861 0.19043776735 0.19101471675 0.19125379633 0.19119388585 0.1909067628 0.19048461251 0.19002500547 
0.1896144372 0.18931242863 0.18913898841 0.1890681368 0.18902879444 0.18891215935 0.18858290135 0.1878910309 0.18668219639 
0.18480571566 0.1821209733 0.17850335931 0.17385060897 0.16808953431 0.1611821956 0.15312998527 0.14397413446 0.13379180615 
0.12268799255 0.11078453835 0.098208395796 0.085081412159 0.071513476122 0.05759985098 0.043422320537 0.029052772692 0.014557402378 
8.5821627584e-16 
_area 1 100 double
0 0.00059145981044 0.0023591763521 0.0052814304288 0.0093168125505 0.014398265915 0.020428113298 0.027276564116 0.03478564482 
0.042779164996 0.051077477528 0.05951398529 0.067949356329 0.076279891616 0.084438541185 0.092389874926 0.10012237706 0.10764151728 
0.11496522507 0.12212098543 0.12914226297 0.1360620609 0.14290308298 0.14966656895 0.15632399558 0.16281562182 0.16905684369 
0.17494949902 0.18039332041 0.18529376608 0.18956553312 0.19313410746 0.19593865625 0.19793756447 0.19911404244 0.19947612404 
0.19904605766 0.19784005974 0.19584756511 0.1930223699 0.18929340198 0.18459451259 0.17890500506 0.17228739939 0.16490798959 
0.15703043583 0.14898199437 0.14110235674 0.13369119524 0.12696884965 0.12105653296 0.11597355263 0.1116461566 0.10792774311 
0.10463735995 0.101618783 0.098799393708 0.096218663291 0.094013593811 0.092361854419 0.091395223006 0.091124396409 0.091418641452 
0.092044421451 0.092727358066 0.093209386469 0.093287417408 0.092837404465 0.091825164382 0.090304773153 0.088407097196 0.086321673706 
0.084274884762 0.082505891301 0.081240527324 0.080662087594 0.080867020818 0.081787229095 0.083158345065 0.084617785139 0.085797576462 
0.086357462679 0.086002277447 0.084500175096 0.081701802724 0.077557150438 0.072125379304 0.065573033767 0.058158391781 0.050203486359 
0.042058793262 0.034067302029 0.026534307272 0.019707309053 0.013767758923 0.0088337924633 0.004971104703 0.0022081182537 0.000551641451 
4.1324938402e-19 
