# vtk DataFile Version 5.1
vtk output
ASCII
DATASET POLYDATA
POINTS 100 float
0.0428352 0.00754599 -0.607307 0.0428144 0.00777745 -0.607555 0.0427345 0.00830347 -0.60822 
0.0425874 0.00908288 -0.609182 0.0423607 0.0100543 -0.610249 0.0420395 0.011146 -0.611184 
0.0416078 0.0122881 -0.611725 0.0410498 0.0134243 -0.611608 0.0403507 0.0145223 -0.610595 
0.0394965 0.0155806 -0.608495 0.0384734 0.0166311 -0.605178 0.0372662 0.0177364 -0.60058 
0.0358564 0.0189825 -0.594709 0.0342204 0.0204674 -0.587631 0.0323288 0.0222878 -0.579463 
0.030146 0.0245247 -0.570349 0.0276317 0.0272306 -0.560445 0.0247441 0.0304198 -0.549897 
0.0214439 0.0340636 -0.538827 0.0176998 0.0380903 -0.527318 0.0134945 0.0423908 -0.515411 
0.0088294 0.0468291 -0.503105 0.00372903 0.0512559 -0.490363 -0.00175734 0.0555238 -0.477118 
-0.00755646 0.0595021 -0.463295 -0.0135748 0.0630895 -0.448816 -0.0197051 0.0662228 -0.43362 
-0.0258353 0.0688798 -0.41767 -0.0318584 0.0710786 -0.400958 -0.037683 0.0728699 -0.383512 
-0.0432423 0.0743268 -0.365386 -0.0485011 0.0755316 -0.34666 -0.0534587 0.0765621 -0.327424 
-0.0581482 0.0774793 -0.307771 -0.062631 0.0783185 -0.287784 -0.0669878 0.0790846 -0.26753 
-0.0713058 0.0797515 -0.247049 -0.075665 0.0802679 -0.226359 -0.0801236 0.0805657 -0.20545 
-0.0847058 0.0805714 -0.184298 -0.0893924 0.0802194 -0.162865 -0.0941163 0.0794628 -0.141115 
-0.0987632 0.078283 -0.119021 -0.103178 0.0766945 -0.0965756 -0.107177 0.0747457 -0.0737938 
-0.110561 0.0725144 -0.0507202 -0.113136 0.0700996 -0.0274267 -0.114728 0.0676101 -0.00400935 
-0.115199 0.0651521 0.0194179 -0.114464 0.0628168 0.0427314 -0.112493 0.0606702 0.0658066 
-0.109312 0.0587472 0.0885267 -0.105006 0.0570492 0.110789 -0.0997 0.0555469 0.132512 
-0.0935523 0.0541873 0.153634 -0.0867343 0.052904 0.174117 -0.0794153 0.0516289 0.193941 
-0.0717476 0.0503048 0.213105 -0.0638545 0.0488956 0.231615 -0.0558236 0.0473936 0.249489 
-0.0477048 0.0458223 0.266746 -0.039514 0.0442353 0.283405 -0.0312407 0.0427105 0.299491 
-0.0228591 0.0413401 0.315027 -0.0143406 0.0402194 0.330041 -0.005666 0.0394341 0.344568 
0.00316444 0.0390495 0.358653 0.0121244 0.0391016 0.37235 0.0211592 0.0395922 0.385724 
0.0301876 0.0404887 0.398846 0.0391088 0.0417278 0.411793 0.0478109 0.0432228 0.42464 
0.0561828 0.0448743 0.437452 0.0641249 0.0465813 0.45028 0.0715586 0.0482521 0.46315 
0.0784333 0.0498133 0.476062 0.0847287 0.0512157 0.488987 0.0904542 0.0524365 0.501862 
0.0956427 0.0534773 0.514598 0.100343 0.0543593 0.527085 0.104609 0.055115 0.539195 
0.108491 0.0557795 0.550797 0.112025 0.0563822 0.561764 0.115227 0.0569393 0.571982 
0.118092 0.0574497 0.581359 0.120593 0.0578945 0.589829 0.12269 0.0582392 0.597358 
0.124338 0.05844 0.603941 0.125495 0.0584519 0.609604 0.126137 0.0582375 0.614396 
0.126266 0.0577755 0.618383 0.125916 0.0570679 0.621647 0.125155 0.056143 0.624271 
0.124086 0.0550557 0.626342 0.122837 0.0538837 0.627939 0.121553 0.0527199 0.629133 
0.120377 0.0516629 0.629981 0.119444 0.0508054 0.630533 0.11886 0.0502238 0.630819 
0.118692 0.049969 0.630862 
LINES 2 100
OFFSETS vtktypeint64
0 100 
CONNECTIVITY vtktypeint64
0 1 2 3 4 5 6 7 8 
9 10 11 12 13 14 15 16 17 
18 19 20 21 22 23 24 25 26 
27 28 29 30 31 32 33 34 35 
36 37 38 39 40 41 42 43 44 
45 46 47 48 49 50 51 52 53 
54 55 56 57 58 59 60 61 62 
63 64 65 66 67 68 69 70 71 
72 73 74 75 76 77 78 79 80 
81 82 83 84 85 86 87 88 89 
90 91 92 93 94 95 96 97 98 
99 
POINT_DATA 100
FIELD FieldData 3
_theta 1 100 double
0 0.031733259127 0.063466518254 0.095199777382 0.12693303651 0.15866629564 0.19039955476 0.22213281389 0.25386607302 
0.28559933214 0.31733259127 0.3490658504 0.38079910953 0.41253236865 0.44426562778 0.47599888691 0.50773214603 0.53946540516 
0.57119866429 0.60293192342 0.63466518254 0.66639844167 0.6981317008 0.72986495992 0.76159821905 0.79333147818 0.82506473731 
0.85679799643 0.88853125556 0.92026451469 0.95199777382 0.98373103294 1.0154642921 1.0471975512 1.0789308103 1.1106640695 
1.1423973286 1.1741305877 1.2058638468 1.237597106 1.2693303651 1.3010636242 1.3327968833 1.3645301425 1.3962634016 
1.4279966607 1.4597299198 1.491463179 1.5231964381 1.5549296972 1.5866629564 1.6183962155 1.6501294746 1.6818627337 
1.7135959929 1.745329252 1.7770625111 1.8087957702 1.8405290294 1.8722622885 1.9039955476 1.9357288068 1.9674620659 
1.999195325 2.0309285841 2.0626618433 2.0943951024 2.1261283615 2.1578616206 2.1895948798 2.2213281389 2.253061398 
2.2847946572 2.3165279163 2.3482611754 2.3799944345 2.4117276937 2.4434609528 2.4751942119 2.506927471 2.5386607302 
2.5703939893 2.6021272484 2.6338605076 2.6655937667 2.6973270258 2.7290602849 2.7607935441 2.7925268032 2.8242600623 
2.8559933214 2.8877265806 2.9194598397 2.9511930988 2.982926358 3.0146596171 3.0463928762 3.0781261353 3.1098593945 
3.1415926536 
_radius 1 100 double
8.9513244188e-16 0.012604639959 0.025207447689 0.037798022648 0.050342528724 0.062775896325 0.074998506716 0.086878159668 0.098257494991 
0.10896628728 0.11883726785 0.12772349092 0.13551488703 0.14215161741 0.14763217282 0.15201480124 0.15541171517 0.15797652063 
0.1598863259 0.16132092886 0.16244222973 0.1633773852 0.16420892248 0.16497377969 0.1656710729 0.16627600067 0.1667557796 
0.16708355559 0.16724760231 0.16725492323 0.16712984626 0.16690903429 0.16663458048 0.1663466539 0.166076669 0.16584145428 
0.16563876035 0.16544479756 0.16521498128 0.16488910934 0.16440144936 0.16369479469 0.16273599479 0.1615294688 0.16012531248 
0.15861993858 0.15714926575 0.15587629581 0.15497566246 0.15461743758 0.15495178323 0.15609528583 0.1581189578 0.16103728128 
0.16479822531 0.1692761898 0.174271771 0.17952196197 0.18472172025 0.18955455064 0.1937274265 0.19700441679 0.19923365496 
0.2003634983 0.20044551211 0.1996239009 0.19811295745 0.19616587745 0.19403973569 0.19196220636 0.19010526213 0.18856936391 
0.18737899746 0.18648792139 0.18579118308 0.18514104372 0.18436480075 0.18328322866 0.18172848548 0.17955996652 0.17667623602 
0.17302129444 0.16858417385 0.16339199807 0.15749786591 0.15096589495 0.14385624644 0.13621281286 0.12805555617 0.11937848966 
0.11015329259 0.1003377088 0.089887254438 0.078768354264 0.066970882046 0.054518228963 0.041473422098 0.0279403473 0.014059709273 
8.0816742965e-16 
_area 1 100 double
0 0.00040945503019 0.0016481548429 0.0037423482998 0.0067207414761 0.010594706137 0.015335877612 0.020855867275 0.026993204343 
0.033512023927 0.040115152155 0.046471238125 0.052252124727 0.057173753431 0.061032510608 0.063729558571 0.065278268512 0.065793783093 
0.065468088921 0.064537770331 0.063253875795 0.061862522097 0.060591294891 0.059599119513 0.058913894432 0.058481200657 0.058233544298 
0.058144288602 0.058198997758 0.058365251284 0.058711685555 0.059158305241 0.059663178208 0.060186889972 0.060710744214 0.061244411933 
0.061821127219 0.06248449938 0.063270257464 0.064184001752 0.065185596391 0.066290989496 0.067279070264 0.068048880234 0.068575198364 
0.068859818272 0.068912675115 0.06876134421 0.068487913275 0.068255423319 0.068422086002 0.069254768422 0.071306925453 0.074581349377 
0.078933490341 0.084229551203 0.090248067279 0.096668672841 0.10308609093 0.10905054352 0.11412802965 0.11796499576 0.12034104558 
0.12119772927 0.12063835704 0.11890093937 0.11631184847 0.11323062528 0.10999653832 0.10688576065 0.10408513543 0.1016846953 
0.099686738362 0.098025582037 0.096590473354 0.095245190278 0.093841512273 0.092228319982 0.090260671354 0.0878120921 0.084789604755 
0.081147443701 0.076894231604 0.072090132381 0.066834014732 0.061244237887 0.055438885818 0.049521331502 0.043574907806 0.037667078534 
0.03186025967 0.026224521817 0.020847234416 0.015836088113 0.011314346257 0.0074098909944 0.0042417324015 0.0019082866631 0.00048047542679 
9.6197740862e-17 
