# vtk DataFile Version 5.1
vtk output
ASCII
DATASET POLYDATA
POINTS 100 float
0.17786 0.0502195 0.671184 0.177563 0.0501698 0.671104 0.176608 0.0501659 0.670945 
0.17504 0.0502233 0.670611 0.172921 0.0503645 0.669953 0.170334 0.0506153 0.66879 
0.16737 0.0510011 0.666926 0.16412 0.0515417 0.664176 0.160668 0.0522468 0.660383 
0.157082 0.0531124 0.655442 0.153409 0.054118 0.649304 0.149669 0.0552256 0.641985 
0.145857 0.0563799 0.633561 0.141942 0.0575109 0.624157 0.137873 0.0585374 0.613935 
0.133582 0.0593722 0.603071 0.128998 0.059928 0.591739 0.124048 0.0601237 0.580092 
0.118669 0.0598905 0.568245 0.112818 0.0591774 0.556271 0.106469 0.0579552 0.544198 
0.0996252 0.0562199 0.532009 0.0923121 0.0539933 0.519652 0.0845786 0.051323 0.507057 
0.0764904 0.0482802 0.494144 0.0681244 0.0449559 0.48084 0.0595598 0.0414565 0.467092 
0.0508704 0.0378982 0.452872 0.042118 0.0344013 0.438182 0.0333459 0.0310843 0.423047 
0.0245766 0.0280585 0.407514 0.0158111 0.0254232 0.391637 0.00703201 0.0232619 0.375467 
-0.00179161 0.0216393 0.35904 -0.0106961 0.0205997 0.342363 -0.0197143 0.0201662 0.325415 
-0.0288662 0.0203411 0.308139 -0.0381503 0.0211071 0.290452 -0.0475362 0.0224299 0.272246 
-0.0569609 0.0242604 0.253408 -0.0663275 0.0265383 0.233832 -0.0755075 0.0291955 0.213431 
-0.0843474 0.03216 0.192154 -0.0926772 0.0353591 0.169996 -0.100322 0.0387234 0.147001 
-0.107115 0.0421886 0.123262 -0.112907 0.0456989 0.098915 -0.117583 0.0492076 0.0741302 
-0.121063 0.0526786 0.0490947 -0.123314 0.0560852 0.0239978 -0.124348 0.0594097 -0.000985043 
-0.12422 0.0626412 -0.0257068 -0.12302 0.0657729 -0.0500588 -0.120868 0.0687989 -0.0739761 
-0.117895 0.0717113 -0.0974381 -0.11424 0.0744966 -0.120463 -0.11003 0.0771334 -0.1431 
-0.105373 0.0795903 -0.165415 -0.100354 0.0818247 -0.187477 -0.0950233 0.0837834 -0.209347 
-0.0894039 0.0854041 -0.231065 -0.0834909 0.0866178 -0.252641 -0.0772593 0.0873528 -0.274054 
-0.0706739 0.0875392 -0.295249 -0.0636992 0.0871138 -0.316146 -0.0563105 0.0860255 -0.336642 
-0.0485037 0.0842393 -0.356629 -0.0403026 0.0817404 -0.375997 -0.0317633 0.0785366 -0.394652 
-0.0229752 0.0746592 -0.412517 -0.014058 0.0701623 -0.429544 -0.00515566 0.0651205 -0.445715 
0.00357265 0.0596252 -0.46104 0.0119636 0.0537793 -0.475552 0.0198615 0.0476915 -0.489307 
0.0271296 0.04147 -0.502369 0.0336601 0.0352165 -0.514809 0.0393821 0.0290209 -0.526695 
0.0442657 0.022957 -0.538085 0.0483239 0.0170794 -0.549026 0.0516099 0.0114229 -0.559552 
0.0542116 0.00600268 -0.56968 0.0562442 0.000816633 -0.579419 0.0578397 -0.00415097 -0.588764 
0.0591366 -0.00892478 -0.597708 0.0602691 -0.0135331 -0.606235 0.0613569 -0.0180024 -0.61433 
0.0624975 -0.0223523 -0.621976 0.0637599 -0.0265912 -0.629157 0.0651812 -0.0307135 -0.635855 
0.0667664 -0.0346976 -0.642049 0.0684894 -0.0385064 -0.647716 0.0702981 -0.0420887 -0.652829 
0.0721201 -0.0453819 -0.657359 0.0738698 -0.0483169 -0.661271 0.075457 -0.0508223 -0.664532 
0.0767944 -0.0528306 -0.667108 0.0778053 -0.0542825 -0.668969 0.0784303 -0.0551322 -0.670092 
0.0786317 -0.0553508 -0.670462 
LINES 2 100
OFFSETS vtktypeint64
0 100 
CONNECTIVITY vtktypeint64
0 1 2 3 4 5 6 7 8 
9 10 11 12 13 14 15 16 17 
18 19 20 21 22 23 24 25 26 
27 28 29 30 31 32 33 34 35 
36 37 38 39 40 41 42 43 44 
45 46 47 48 49 50 51 52 53 
54 55 56 57 58 59 60 61 62 
63 64 65 66 67 68 69 70 71 
72 73 74 75 76 77 78 79 80 
81 82 83 84 85 86 87 88 89 
90 91 92 93 94 95 96 97 98 
99 
POINT_DATA 100
FIELD FieldData 3
_theta 1 100 double
0 0.031733259127 0.063466518254 0.095199777382 0.12693303651 0.15866629564 0.19039955476 0.22213281389 0.25386607302 
0.28559933214 0.31733259127 0.3490658504 0.38079910953 0.41253236865 0.44426562778 0.47599888691 0.50773214603 0.53946540516 
0.57119866429 0.60293192342 0.63466518254 0.66639844167 0.6981317008 0.72986495992 0.76159821905 0.79333147818 0.82506473731 
0.85679799643 0.88853125556 0.92026451469 0.95199777382 0.98373103294 1.0154642921 1.0471975512 1.0789308103 1.1106640695 
1.1423973286 1.1741305877 1.2058638468 1.237597106 1.2693303651 1.3010636242 1.3327968833 1.3645301425 1.3962634016 
1.4279966607 1.4597299198 1.491463179 1.5231964381 1.5549296972 1.5866629564 1.6183962155 1.6501294746 1.6818627337 
1.7135959929 1.745329252 1.7770625111 1.8087957702 1.8405290294 1.8722622885 1.9039955476 1.9357288068 1.9674620659 
1.999195325 2.0309285841 2.0626618433 2.0943951024 2.1261283615 2.1578616206 2.1895948798 2.2213281389 2.253061398 
2.2847946572 2.3165279163 2.3482611754 2.3799944345 2.4117276937 2.4434609528 2.4751942119 2.506927471 2.5386607302 
2.5703939893 2.6021272484 2.6338605076 2.6655937667 2.6973270258 2.7290602849 2.7607935441 2.7925268032 2.8242600623 
2.8559933214 2.8877265806 2.9194598397 2.9511930988 2.982926358 3.0146596171 3.0463928762 3.0781261353 3.1098593945 
3.1415926536 
_radius 1 100 double
8.4691467075e-16 0.017031053514 0.033764573488 0.049925679875 0.065285643857 0.079678298691 0.093009261311 0.10525702295 0.11646600138 
0.12673267183 0.13618676124 0.14497007073 0.15321570498 0.16103032946 0.16848161434 0.17559234683 0.18234185337 0.18867439325 
0.19451314681 0.1997775152 0.20440090326 0.20834609558 0.21161572804 0.2142560866 0.2163534145 0.2180229966 0.21939243267 
0.22058158859 0.22168254144 0.22274317068 0.2237576636 0.22466601735 0.2253628517 0.22571400453 0.22557802347 0.22482909869 
0.22337816441 0.22118958477 0.21829174652 0.21478073949 0.21081690422 0.20661430852 0.20242340063 0.19850759607 0.19511571694 
0.19245389354 0.19066198378 0.18979955993 0.18984427257 0.19070162893 0.19222205516 0.19422042369 0.19649491283 0.19884430141 
0.20108388863 0.20305993561 0.20466174412 0.20583001077 0.20656003527 0.20689861767 0.20693418485 0.2067809658 0.20655960506 
0.20637780411 0.20631477077 0.2064122183 0.20667278236 0.20706480531 0.20753117947 0.20799959858 0.2083919426 0.20863124277 
0.20864549333 0.20836844033 0.20773833564 0.20669621707 0.20518516732 0.20315116499 0.20054509984 0.19732494499 0.19345717974 
0.18891708706 0.18368812335 0.17776090232 0.17113233393 0.16380516637 0.15578778876 0.14709390653 0.13774175361 0.1277528283 
0.11715055455 0.10595954415 0.094206103156 0.081920272274 0.069139151057 0.055910742219 0.042297249066 0.028376763107 0.014242590183 
1.0346599293e-15 
_area 1 100 double
0 0.00066507484828 0.0026172154064 0.0057337051899 0.0098306671673 0.01469021076 0.020091355707 0.025839055997 0.031786026182 
0.037843663457 0.043980804355 0.050211618421 0.05657583519 0.063115389006 0.069851739052 0.076767971349 0.083799221236 0.090833649225 
0.097724248797 0.10430951073 0.11043863906 0.11599528698 0.12091406045 0.12518690109 0.12886032341 0.13202679766 0.13481316385 
0.13736621919 0.139830868 0.14231276562 0.14482866214 0.14727378754 0.14943133458 0.151013464 0.15171593284 0.15127863773 
0.14954280204 0.14649194067 0.14226637021 0.13714719627 0.13151305961 0.12578024628 0.12034094677 0.11551258438 0.11150567931 
0.10841312252 0.10622011028 0.10483049121 0.10410119144 0.1038730331 0.1039900148 0.10430769782 0.1046957783 0.10503948058 
0.10524234479 0.10523044544 0.10495658152 0.1044018137 0.10357278201 0.1025006816 0.10124079891 0.099863003257 0.098434854097 
0.097007650839 0.095619978663 0.094322330709 0.093209479088 0.092505284726 0.092429978216 0.092926392538 0.093856323964 0.095077819863 
0.096429144129 0.097742583469 0.098856636834 0.099620523734 0.099895825941 0.099560795804 0.098518484425 0.096705110718 0.09409335075 
0.090688342383 0.086520540713 0.081642017474 0.076126915611 0.070070864075 0.063586602743 0.056798443808 0.049838766053 0.042846330877 
0.035964108574 0.029335573343 0.023100446571 0.017391112965 0.012329862562 0.0080263826678 0.0045751423056 0.0020528352358 0.00051615736964 
3.7049906011e-17 
