# vtk DataFile Version 5.1
vtk output
ASCII
DATASET POLYDATA
POINTS 100 float
0.0824078 0.0625476 0.659298 0.0825384 0.0627683 0.659015 0.0829288 0.0632546 0.658028 
0.0835 0.0639635 0.656397 0.0841326 0.0648284 0.654206 0.0846829 0.0657668 0.651557 
0.0850022 0.066689 0.648553 0.0849562 0.0675079 0.645281 0.0844426 0.0681472 0.641798 
0.0834037 0.0685495 0.638124 0.0818326 0.0686801 0.634235 0.0797724 0.0685295 0.630065 
0.0773076 0.0681114 0.625513 0.0745503 0.067459 0.620457 0.0716218 0.0666179 0.61477 
0.0686335 0.0656386 0.608335 0.0656688 0.0645682 0.601063 0.0627697 0.0634435 0.592906 
0.0599283 0.062285 0.583863 0.0570874 0.0610941 0.573985 0.0541471 0.0598527 0.563367 
0.0509788 0.0585267 0.552142 0.0474434 0.0570702 0.540461 0.0434124 0.0554336 0.52848 
0.0387873 0.0535712 0.516341 0.0335165 0.0514496 0.504156 0.0276046 0.049054 0.491995 
0.0211158 0.0463935 0.479882 0.0141677 0.0435033 0.467792 0.00691773 0.0404438 0.455661 
-0.000456353 0.037297 0.443394 -0.0077799 0.0341608 0.43088 -0.0149052 0.0311408 0.418011 
-0.0217326 0.0283419 0.404691 -0.0282264 0.0258598 0.390856 -0.0344218 0.0237736 0.376476 
-0.0404239 0.0221403 0.361559 -0.0463963 0.0209918 0.346148 -0.0525413 0.0203345 0.330312 
-0.0590747 0.0201517 0.314131 -0.0661965 0.0204079 0.297686 -0.0740622 0.021055 0.281039 
-0.0827582 0.0220389 0.264225 -0.0922834 0.0233065 0.247241 -0.10254 0.0248109 0.230044 
-0.113337 0.026516 0.212553 -0.1244 0.0283988 0.194656 -0.135393 0.0304491 0.176227 
-0.145947 0.0326677 0.157137 -0.155693 0.035063 0.137274 -0.164293 0.0376457 0.116557 
-0.171471 0.0404247 0.0949503 -0.177032 0.0434014 0.0724678 -0.18088 0.0465664 0.0491792 
-0.183022 0.0498972 0.0252032 -0.183558 0.053357 0.000699433 -0.18267 0.0568964 -0.0241458 
-0.180599 0.0604555 -0.0491354 -0.177617 0.063968 -0.0740783 -0.173999 0.0673655 -0.098805 
-0.170001 0.0705822 -0.123179 -0.165833 0.0735588 -0.147107 -0.161647 0.0762461 -0.170539 
-0.157531 0.0786065 -0.193465 -0.153506 0.0806146 -0.215911 -0.149539 0.0822567 -0.237929 
-0.145554 0.0835285 -0.259578 -0.141452 0.0844326 -0.28092 -0.137127 0.0849754 -0.302001 
-0.132486 0.0851645 -0.322848 -0.127465 0.0850065 -0.343461 -0.122038 0.0845058 -0.363811 
-0.116221 0.0836641 -0.383845 -0.110073 0.0824823 -0.40349 -0.103692 0.0809621 -0.422659 
-0.0972004 0.0791085 -0.441266 -0.0907367 0.0769338 -0.459225 -0.0844412 0.0744594 -0.476464 
-0.0784435 0.0717192 -0.492928 -0.0728522 0.0687601 -0.50858 -0.0677474 0.0656424 -0.523399 
-0.0631767 0.0624382 -0.537381 -0.0591553 0.0592287 -0.550534 -0.0556688 0.0560997 -0.562872 
-0.0526782 0.0531371 -0.574409 -0.0501275 0.0504212 -0.585158 -0.0479513 0.0480209 -0.595127 
-0.0460819 0.0459895 -0.60432 -0.0444563 0.04436 -0.612732 -0.0430206 0.0431432 -0.620361 
-0.0417334 0.0423269 -0.627201 -0.0405673 0.0418762 -0.63325 -0.0395081 0.0417372 -0.638513 
-0.0385533 0.0418405 -0.643 -0.0377098 0.0421071 -0.646728 -0.0369904 0.0424547 -0.649718 
-0.0364109 0.0428043 -0.651998 -0.0359869 0.0430863 -0.653592 -0.0357316 0.0432465 -0.654521 
-0.0356533 0.0432503 -0.654801 
LINES 2 100
OFFSETS vtktypeint64
0 100 
CONNECTIVITY vtktypeint64
0 1 2 3 4 5 6 7 8 
9 10 11 12 13 14 15 16 17 
18 19 20 21 22 23 24 25 26 
27 28 29 30 31 32 33 34 35 
36 37 38 39 40 41 42 43 44 
45 46 47 48 49 50 51 52 53 
54 55 56 57 58 59 60 61 62 
63 64 65 66 67 68 69 70 71 
72 73 74 75 76 77 78 79 80 
81 82 83 84 85 86 87 88 89 
90 91 92 93 94 95 96 97 98 
99 
POINT_DATA 100
FIELD FieldData 3
_theta 1 100 double
0 0.031733259127 0.063466518254 0.095199777382 0.12693303651 0.15866629564 0.19039955476 0.22213281389 0.25386607302 
0.28559933214 0.31733259127 0.3490658504 0.38079910953 0.41253236865 0.44426562778 0.47599888691 0.50773214603 0.53946540516 
0.57119866429 0.60293192342 0.63466518254 0.66639844167 0.6981317008 0.72986495992 0.76159821905 0.79333147818 0.82506473731 
0.85679799643 0.88853125556 0.92026451469 0.95199777382 0.98373103294 1.0154642921 1.0471975512 1.0789308103 1.1106640695 
1.1423973286 1.1741305877 1.2058638468 1.237597106 1.2693303651 1.3010636242 1.3327968833 1.3645301425 1.3962634016 
1.4279966607 1.4597299198 1.491463179 1.5231964381 1.5549296972 1.5866629564 1.6183962155 1.6501294746 1.6818627337 
1.7135959929 1.745329252 1.7770625111 1.8087957702 1.8405290294 1.8722622885 1.9039955476 1.9357288068 1.9674620659 
1.999195325 2.0309285841 2.0626618433 2.0943951024 2.1261283615 2.1578616206 2.1895948798 2.2213281389 2.253061398 
2.2847946572 2.3165279163 2.3482611754 2.3799944345 2.4117276937 2.4434609528 2.4751942119 2.506927471 2.5386607302 
2.5703939893 2.6021272484 2.6338605076 2.6655937667 2.6973270258 2.7290602849 2.7607935441 2.7925268032 2.8242600623 
2.8559933214 2.8877265806 2.9194598397 2.9511930988 2.982926358 3.0146596171 3.0463928762 3.0781261353 3.1098593945 
3.1415926536 
_radius 1 100 double
4.793364605e-16 0.011905053243 0.023888296432 0.036008258559 0.048299995143 0.060765994205 0.073370548486 0.086038889896 0.098661521264 
0.11110313461 0.12321471776 0.13484708614 0.1458640671 0.15615379937 0.16563701906 0.17427171284 0.18205400233 0.18901545768 
0.19521721364 0.20074140361 0.2056806872 0.2101270464 0.21416139925 0.21784567526 0.22121863799 0.22429596164 0.22707412262 
0.2295368891 0.23166282033 0.23343225136 0.23483258576 0.2358611566 0.23652533614 0.23683997368 0.23682264523 0.23648758919 
0.23583951606 0.23486865763 0.23354840696 0.23183662761 0.22968113848 0.22702907205 0.22383893418 0.22009346691 0.21581098973 
0.21105287762 0.20592529355 0.20057423086 0.19517421959 0.18991246985 0.18497142227 0.1805132432 0.1766693166 0.17353603342 
0.17117553238 0.16961761784 0.16885828088 0.16885210587 0.16950063151 0.17064486079 0.17207237191 0.17354270628 0.17482322736 
0.17572262065 0.17611336989 0.17594105828 0.17522217962 0.17403344356 0.17249585551 0.17075674307 0.16897223128 0.16729142508 
0.16584235632 0.16471938226 0.16397231698 0.16359848072 0.16353923874 0.16368210311 0.16386837941 0.16390529108 0.16358095621 
0.16268053928 0.16100212256 0.15837111984 0.15465228666 0.14975855374 0.14365606166 0.1363649577 0.12795577963 0.11854162389 
0.10826676564 0.09729290149 0.085784608096 0.073895820446 0.061759034974 0.049478506223 0.037127991422 0.024752753955 0.01237480273 
1.2044926904e-15 
_area 1 100 double
0 0.00042533249781 0.0017105946424 0.0038804530226 0.0069661818682 0.010992987679 0.015966291796 0.021860225653 0.028610961395 
0.036115991014 0.044238784963 0.052817060326 0.061672405174 0.070619340872 0.079473217848 0.088058200995 0.096217516058 0.10382678015 
0.11080824036 0.11714130081 0.12286458817 0.12806703015 0.13286855566 0.13739332999 0.14173996912 0.14595647184 0.15003105208 
0.15390396131 0.15749128681 0.16070685299 0.16347580533 0.16574158655 0.16747069084 0.16865726891 0.16932442917 0.16951418464 
0.16925904358 0.16854283738 0.1672790099 0.16532751931 0.1625383992 0.15879908924 0.15407394812 0.14843040405 0.14204629302 
0.13519401364 0.12820097079 0.12139232244 0.11503077935 0.10927491358 0.10417216344 0.099683379488 0.095720564076 0.092184992069 
0.089010090834 0.086211273339 0.083893740988 0.082165632964 0.081090220301 0.080675169979 0.080812886777 0.081257867871 0.081691918628 
0.081828898833 0.081488621983 0.080617114071 0.07926550459 0.077546431164 0.075590978567 0.073526677597 0.071476511512 0.069566022059 
0.067928920549 0.066703993736 0.066017281082 0.065949185265 0.066497031341 0.067553630758 0.068915772954 0.070315110048 0.071454850147 
0.072043083139 0.071821236468 0.070588324841 0.068220766686 0.06468604741 0.06004776396 0.054460258202 0.04815291568 0.041406279652 
0.034523507668 0.027801200535 0.021503539278 0.015843118834 0.010970784627 0.0069752253207 0.0038914655744 0.0017161630468 0.00042668722655 
2.94244542e-17 
