# vtk DataFile Version 5.1
vtk output
ASCII
DATASET POLYDATA
POINTS 100 float
0.174763 0.0183367 -0.691161 0.174375 0.0183514 -0.690901 0.173301 0.0185269 -0.690193 
0.171607 0.0188279 -0.689005 0.169394 0.0192028 -0.687285 0.166784 0.0195916 -0.68497 
0.1639 0.0199361 -0.681985 0.160852 0.0201897 -0.678256 0.157723 0.020326 -0.673712 
0.154551 0.0203452 -0.668295 0.151328 0.0202763 -0.66196 0.147997 0.0201764 -0.654679 
0.144461 0.0201248 -0.646445 0.14059 0.0202155 -0.637268 0.136244 0.0205457 -0.627173 
0.131284 0.0212047 -0.616199 0.125596 0.0222633 -0.604392 0.119101 0.0237643 -0.591803 
0.11177 0.0257171 -0.578483 0.103628 0.0280956 -0.564483 0.0947484 0.0308405 -0.549845 
0.085252 0.0338651 -0.53461 0.0752884 0.0370642 -0.518808 0.0650218 0.0403247 -0.502467 
0.0546125 0.0435368 -0.485606 0.0442 0.046604 -0.468242 0.0338891 0.0494512 -0.450386 
0.0237414 0.0520296 -0.432046 0.0137728 0.0543178 -0.413227 0.00395733 0.0563195 -0.39393 
-0.00576295 0.0580584 -0.374153 -0.0154629 0.0595706 -0.353888 -0.025217 0.0608958 -0.333128 
-0.0350805 0.0620694 -0.31186 -0.0450738 0.0631154 -0.290073 -0.0551688 0.0640421 -0.267757 
-0.0652824 0.0648399 -0.24491 -0.0752756 0.0654835 -0.221539 -0.0849598 0.0659352 -0.197661 
-0.0941091 0.0661516 -0.173313 -0.102478 0.0660908 -0.148547 -0.109819 0.0657191 -0.123436 
-0.11591 0.0650179 -0.098068 -0.120564 0.0639872 -0.0725484 -0.123654 0.0626474 -0.0469914 
-0.125118 0.0610385 -0.0215165 -0.124967 0.0592158 0.00375875 -0.123278 0.0572446 0.0287248 
-0.120192 0.0551937 0.0532867 -0.115894 0.0531278 0.0773682 -0.110604 0.0511023 0.100916 
-0.104551 0.0491581 0.123898 -0.097959 0.0473202 0.146306 -0.0910303 0.0455979 0.168148 
-0.083933 0.0439874 0.189447 -0.0767929 0.0424765 0.21023 -0.0696905 0.0410503 0.230526 
-0.0626621 0.039697 0.250358 -0.0557061 0.0384126 0.269736 -0.0487914 0.0372047 0.288658 
-0.0418682 0.036094 0.307104 -0.0348787 0.0351123 0.325045 -0.0277682 0.0343002 0.342437 
-0.0204931 0.0337015 0.359235 -0.0130281 0.033357 0.375395 -0.00536944 0.0332988 0.390882 
0.00246384 0.0335442 0.405674 0.0104311 0.0340926 0.419773 0.0184732 0.0349234 0.433201 
0.0265174 0.0359971 0.446003 0.0344817 0.0372586 0.458246 0.0422806 0.0386422 0.470014 
0.0498296 0.0400782 0.481398 0.0570493 0.0414997 0.492493 0.0638686 0.0428483 0.503388 
0.0702276 0.0440797 0.514156 0.0760786 0.0451657 0.524848 0.0813879 0.0460949 0.535489 
0.0861361 0.0468705 0.546076 0.0903183 0.0475068 0.556575 0.0939442 0.0480237 0.566927 
0.097037 0.0484413 0.577048 0.099633 0.0487746 0.586843 0.101779 0.0490299 0.596206 
0.103532 0.0492026 0.605036 0.104954 0.0492781 0.613236 0.106108 0.0492338 0.620729 
0.107059 0.0490443 0.627456 0.107864 0.0486864 0.633386 0.108573 0.0481453 0.638512 
0.109225 0.0474201 0.642852 0.109845 0.0465276 0.646448 0.110444 0.0455035 0.64936 
0.111022 0.0444021 0.651662 0.111567 0.0432919 0.653434 0.112057 0.0422506 0.654758 
0.11247 0.0413568 0.655712 0.112779 0.0406826 0.65636 0.112964 0.0402854 0.656754 
0.113012 0.0402022 0.656924 
LINES 2 100
OFFSETS vtktypeint64
0 100 
CONNECTIVITY vtktypeint64
0 1 2 3 4 5 6 7 8 
9 10 11 12 13 14 15 16 17 
18 19 20 21 22 23 24 25 26 
27 28 29 30 31 32 33 34 35 
36 37 38 39 40 41 42 43 44 
45 46 47 48 49 50 51 52 53 
54 55 56 57 58 59 60 61 62 
63 64 65 66 67 68 69 70 71 
72 73 74 75 76 77 78 79 80 
81 82 83 84 85 86 87 88 89 
90 91 92 93 94 95 96 97 98 
99 
POINT_DATA 100
FIELD FieldData 3
_theta 1 100 double
0 0.031733259127 0.063466518254 0.095199777382 0.12693303651 0.15866629564 0.19039955476 0.22213281389 0.25386607302 
0.28559933214 0.31733259127 0.3490658504 0.38079910953 0.41253236865 0.44426562778 0.47599888691 0.50773214603 0.53946540516 
0.57119866429 0.60293192342 0.63466518254 0.66639844167 0.6981317008 0.72986495992 0.76159821905 0.79333147818 0.82506473731 
0.85679799643 0.88853125556 0.92026451469 0.95199777382 0.98373103294 1.0154642921 1.0471975512 1.0789308103 1.1106640695 
1.1423973286 1.1741305877 1.2058638468 1.237597106 1.2693303651 1.3010636242 1.3327968833 1.3645301425 1.3962634016 
1.4279966607 1.4597299198 1.491463179 1.5231964381 1.5549296972 1.5866629564 1.6183962155 1.6501294746 1.6818627337 
1.7135959929 1.745329252 1.7770625111 1.8087957702 1.8405290294 1.8722622885 1.9039955476 1.9357288068 1.9674620659 
1.999195325 2.0309285841 2.0626618433 2.0943951024 2.1261283615 2.1578616206 2.1895948798 2.2213281389 2.253061398 
2.2847946572 2.3165279163 2.3482611754 2.3799944345 2.4117276937 2.4434609528 2.4751942119 2.506927471 2.5386607302 
2.5703939893 2.6021272484 2.6338605076 2.6655937667 2.6973270258 2.7290602849 2.7607935441 2.7925268032 2.8242600623 
2.8559933214 2.8877265806 2.9194598397 2.9511930988 2.982926358 3.0146596171 3.0463928762 3.0781261353 3.1098593945 
3.1415926536 
_radius 1 100 double
4.3444347682e-16 0.014487145774 0.028902992254 0.043182435841 0.057271964701 0.071128083632 0.084709894815 0.097967913438 0.11083282273 
0.12320819652 0.13497009088 0.1459743221 0.15607006574 0.16511689763 0.17300190665 0.17965395404 0.18505317012 0.18923492715 
0.19228845439 0.19435079993 0.19559702115 0.19622746206 0.19645292888 0.19647862045 0.19648784579 0.19662685451 0.19699243972 
0.19762416154 0.19850283155 0.19955615202 0.20067124772 0.20171260505 0.20254297397 0.20304428431 0.20313569572 0.20278661811 
0.20202373276 0.20093209025 0.19965061781 0.19836202507 0.19727711552 0.19661450623 0.19657828104 0.19733707646 0.19900775545 
0.20164536462 0.20523946422 0.20971600717 0.21494384263 0.22074522169 0.22690990845 0.23321234065 0.23943070831 0.24536607293 
0.25085911433 0.25580206285 0.26014393556 0.2638882244 0.26708344287 0.26980814076 0.27215287845 0.27420201565 0.27601796472 
0.27762990968 0.27902814338 0.28016434707 0.28095742351 0.28130389033 0.28109133941 0.28021312989 0.27858237521 0.27614341983 
0.27287932017 0.26881428583 0.26401058927 0.25856013226 0.25257164066 0.24615522939 0.2394066493 0.23239371936 0.22514716734 
0.21765738207 0.20987755388 0.20173254214 0.19313179083 0.18398395285 0.17421075641 0.16375806764 0.15260288067 0.1407557968 
0.12825921286 0.11518189682 0.101610964 0.087642503603 0.0733721935 0.058887154994 0.044260081322 0.029546365502 0.014784558109 
1.5669077657e-15 
_area 1 100 double
0 0.00047287274594 0.0019028210196 0.0043185361351 0.0077519961722 0.012220016117 0.017706170655 0.024146452682 0.03142020897 
0.03934666935 0.047687148457 0.056153500504 0.064423852828 0.072166118014 0.079067987744 0.084869722568 0.08939427364 0.092569002404 
0.094434618014 0.095139413423 0.094919793726 0.094070970151 0.092914162708 0.091768381087 0.090945200682 0.090768709473 0.091157533905 
0.092014408276 0.093224486296 0.094649924866 0.096143749265 0.097567242971 0.09882377083 0.099925302546 0.10083483466 0.10162323617 
0.10238787715 0.10319384291 0.10407785845 0.10507796769 0.10625110387 0.10767335309 0.10944533649 0.11169720574 0.11457986036 
0.118242122 0.12280086297 0.12831267909 0.13475367841 0.14200921518 0.14987571186 0.15807894086 0.16630839852 0.17426007022 
0.18167728765 0.18838120957 0.19428566534 0.19939423685 0.20378052214 0.20755591981 0.2108326013 0.21369072134 0.2161566444 
0.21819433826 0.21970858325 0.220557733 0.22057394204 0.21958852725 0.21745943696 0.21409721454 0.20948569085 0.20369383777 
0.19687494242 0.18924828282 0.18106074937 0.1725373901 0.16384425789 0.15508206576 0.14630337047 0.1375318639 0.12877261673 
0.12001578096 0.11124017301 0.10242087913 0.093541325798 0.084606546139 0.075651973494 0.066743351207 0.057968476579 0.049426578509 
0.041221473793 0.033459978807 0.026252351262 0.019711173446 0.013947770438 0.0090672889205 0.0051637349848 0.0023155811799 0.0005820329419 
4.3422244172e-17 
