# vtk DataFile Version 5.1
vtk output
ASCII
DATASET POLYDATA
POINTS 100 float
0.0384979 -0.0163772 -0.621273 0.0385533 -0.016447 -0.621127 0.0387007 -0.0165239 -0.620704 
0.0388776 -0.016575 -0.619948 0.0389884 -0.0165478 -0.618778 0.0389165 -0.0163743 -0.617091 
0.0385389 -0.0159771 -0.614779 0.0377406 -0.0152758 -0.611736 0.036429 -0.0141941 -0.607872 
0.0345434 -0.0126662 -0.603119 0.032061 -0.0106432 -0.597442 0.028998 -0.00809686 -0.590832 
0.0254042 -0.00502322 -0.583312 0.0213557 -0.00144303 -0.574927 0.0169426 0.00259896 -0.565736 
0.012257 0.00703683 -0.555804 0.0073819 0.0117878 -0.545194 0.00238149 0.0167576 -0.533956 
-0.00270349 0.0218467 -0.522124 -0.00785686 0.026956 -0.509714 -0.0130834 0.0319932 -0.496724 
-0.0184017 0.0368768 -0.483137 -0.0238348 0.0415403 -0.468928 -0.0293999 0.0459338 -0.454073 
-0.0350995 0.0500247 -0.438551 -0.0409146 0.0537964 -0.422354 -0.0468021 0.0572461 -0.40549 
-0.0526961 0.0603816 -0.387984 -0.0585138 0.0632174 -0.369875 -0.0641636 0.0657705 -0.351213 
-0.0695564 0.0680571 -0.332055 -0.0746161 0.0700895 -0.312454 -0.0792887 0.0718736 -0.292457 
-0.0835482 0.073408 -0.272098 -0.0873981 0.0746839 -0.251394 -0.090868 0.0756856 -0.230349 
-0.0940058 0.0763927 -0.208954 -0.0968663 0.0767814 -0.187196 -0.0994977 0.0768276 -0.16506 
-0.101929 0.076509 -0.142545 -0.104157 0.0758072 -0.119666 -0.106143 0.0747094 -0.096461 
-0.107809 0.0732103 -0.0729983 -0.10904 0.0713125 -0.0493724 -0.1097 0.0690273 -0.0257025 
-0.109641 0.066375 -0.00212538 -0.108728 0.063385 0.0212137 -0.106849 0.0600958 0.0441721 
-0.10394 0.0565551 0.0666204 -0.0999911 0.0528194 0.088452 -0.0950554 0.0489541 0.10959 
-0.0892471 0.0450327 0.129993 -0.0827329 0.0411361 0.149652 -0.0757163 0.0373506 0.168589 
-0.0684175 0.0337662 0.186851 -0.061051 0.030473 0.204498 -0.053803 0.0275578 0.221598 
-0.0468131 0.0250994 0.238214 -0.0401607 0.0231642 0.254399 -0.0338594 0.0218013 0.270189 
-0.0278593 0.0210386 0.285602 -0.0220579 0.02088 0.300641 -0.0163165 0.0213033 0.315296 
-0.0104816 0.0222607 0.329554 -0.00440815 0.0236808 0.343402 0.00201959 0.0254726 0.356837 
0.00887031 0.0275315 0.369869 0.0161551 0.0297461 0.382528 0.0238244 0.0320067 0.394858 
0.031773 0.0342124 0.406919 0.0398523 0.036279 0.418776 0.0478885 0.0381444 0.430495 
0.0557029 0.0397721 0.442131 0.0631337 0.0411526 0.453721 0.0700539 0.042302 0.465277 
0.0763848 0.0432576 0.476782 0.0821023 0.044072 0.488192 0.0872362 0.0448055 0.499435 
0.0918612 0.0455173 0.510423 0.0960832 0.0462581 0.521058 0.100021 0.0470627 0.531245 
0.103788 0.0479453 0.540901 0.107472 0.0488973 0.549965 0.111125 0.0498871 0.558403 
0.114754 0.0508646 0.566214 0.118322 0.0517659 0.573422 0.121751 0.052522 0.580079 
0.12494 0.0530669 0.586249 0.127777 0.0533467 0.592 0.130159 0.053327 0.597395 
0.13201 0.0529986 0.602479 0.133293 0.0523808 0.607271 0.134019 0.051521 0.611762 
0.134249 0.0504915 0.615914 0.134084 0.0493833 0.61966 0.133659 0.0482978 0.622919 
0.133119 0.047337 0.625599 0.132606 0.0465933 0.627615 0.132238 0.0461402 0.628892 
0.132093 0.046025 0.629385 
LINES 2 100
OFFSETS vtktypeint64
0 100 
CONNECTIVITY vtktypeint64
0 1 2 3 4 5 6 7 8 
9 10 11 12 13 14 15 16 17 
18 19 20 21 22 23 24 25 26 
27 28 29 30 31 32 33 34 35 
36 37 38 39 40 41 42 43 44 
45 46 47 48 49 50 51 52 53 
54 55 56 57 58 59 60 61 62 
63 64 65 66 67 68 69 70 71 
72 73 74 75 76 77 78 79 80 
81 82 83 84 85 86 87 88 89 
90 91 92 93 94 95 96 97 98 
99 
POINT_DATA 100
FIELD FieldData 3
_theta 1 100 double
0 0.031733259127 0.063466518254 0.095199777382 0.12693303651 0.15866629564 0.19039955476 0.22213281389 0.25386607302 
0.28559933214 0.31733259127 0.3490658504 0.38079910953 0.41253236865 0.44426562778 0.47599888691 0.50773214603 0.53946540516 
0.57119866429 0.60293192342 0.63466518254 0.66639844167 0.6981317008 0.72986495992 0.76159821905 0.79333147818 0.82506473731 
0.85679799643 0.88853125556 0.92026451469 0.95199777382 0.98373103294 1.0154642921 1.0471975512 1.0789308103 1.1106640695 
1.1423973286 1.1741305877 1.2058638468 1.237597106 1.2693303651 1.3010636242 1.3327968833 1.3645301425 1.3962634016 
1.4279966607 1.4597299198 1.491463179 1.5231964381 1.5549296972 1.5866629564 1.6183962155 1.6501294746 1.6818627337 
1.7135959929 1.745329252 1.7770625111 1.8087957702 1.8405290294 1.8722622885 1.9039955476 1.9357288068 1.9674620659 
1.999195325 2.0309285841 2.0626618433 2.0943951024 2.1261283615 2.1578616206 2.1895948798 2.2213281389 2.253061398 
2.2847946572 2.3165279163 2.3482611754 2.3799944345 2.4117276937 2.4434609528 2.4751942119 2.506927471 2.5386607302 
2.5703939893 2.6021272484 2.6338605076 2.6655937667 2.6973270258 2.7290602849 2.7607935441 2.7925268032 2.8242600623 
2.8559933214 2.8877265806 2.9194598397 2.9511930988 2.982926358 3.0146596171 3.0463928762 3.0781261353 3.1098593945 
3.1415926536 
_radius 1 100 double
4.4788127977e-16 0.013311100167 0.026506926933 0.039477232913 0.052118966414 0.064338392245 0.076051997304 0.08718626289 0.097676695002 
0.10746674058 0.11650725633 0.12475697816 0.1321840272 0.13876806069 0.14450242935 0.14939574199 0.15347251142 0.15677289869 
0.15935181031 0.1612776396 0.1626307925 0.16350189758 0.16398939506 0.16419613629 0.16422476209 0.16417196715 0.16412221872 
0.16414189451 0.16427489996 0.16454051173 0.16493364592 0.16542729715 0.16597675559 0.16652534275 0.16701157912 0.16737764498 
0.16757859342 0.16759111954 0.16742009021 0.16710090286 0.16669642725 0.16628885256 0.16596868462 0.1658243602 0.16593564949 
0.16637233557 0.16719736612 0.16847151691 0.17025531339 0.172604394 0.17555718308 0.17911790298 0.18324133202 0.18782595091 
0.19271886614 0.19773126658 0.20265984368 0.20730881098 0.21150837064 0.21512743872 0.21808017472 0.22032696542 0.22187101663 
0.22275178996 0.22303637195 0.22280962493 0.22216377626 0.22118805469 0.21995910432 0.21853310321 0.21694060573 0.21518492433 
0.21324429002 0.21107720935 0.20862970096 0.20584280291 0.20265903192 0.19902715984 0.19490536396 0.19026316342 0.18508248182 
0.1793578469 0.17309545346 0.16631081039 0.15902501738 0.15126023148 0.14303534243 0.13436303926 0.12524919129 0.11569483151 
0.10570023793 0.095269956455 0.084417345949 0.073167443152 0.061557547022 0.049635673644 0.037457654479 0.025083933749 0.012577004332 
2.8404526103e-16 
_area 1 100 double
0 0.00037409905725 0.0015098529826 0.0034393740723 0.006192154402 0.0097693311579 0.014122818778 0.019145689309 0.024675707119 
0.030509889991 0.036425468214 0.042201950374 0.047639914651 0.052574020717 0.056879874159 0.060476138399 0.063324171878 0.065427169128 
0.066829414675 0.067614496706 0.067900185917 0.067827979251 0.067547304531 0.067197546596 0.066893465316 0.066718516214 0.066726107743 
0.066945168658 0.067386621389 0.068049653822 0.068926942356 0.070005879024 0.071263974923 0.072661953164 0.074141884645 0.075635818909 
0.077082825547 0.078442009198 0.079686748599 0.080792299779 0.081744934787 0.082558481156 0.083274496441 0.083950109415 0.084646300752 
0.085425790767 0.086362140609 0.087552209052 0.08912087298 0.091213213023 0.093975671855 0.097527073025 0.10192278234 0.10712451329 
0.11298917915 0.11927998683 0.12569436753 0.13190103804 0.13757925679 0.14245499499 0.14633050113 0.14910434879 0.15077508756 
0.15141454855 0.15112268373 0.150015458 0.14824348306 0.14598695327 0.14342898535 0.14072376872 0.13796904943 0.13519326213 
0.13236083272 0.12939040206 0.12617832917 0.12262187141 0.11863844587 0.11417862469 0.10923155385 0.10382276403 0.098005999708 
0.091852093459 0.085438183998 0.07883957544 0.072125013797 0.065355025986 0.058582546326 0.051855201893 0.045219132434 0.038724517249 
0.032432211219 0.026419211355 0.020779845677 0.015621032279 0.011052809506 0.0071774390532 0.004080580973 0.0018266587274 0.00045854337713 
1.2356618551e-17 
