# vtk DataFile Version 5.1
vtk output
ASCII
DATASET POLYDATA
POINTS 100 float
0.0931873 0.0421462 0.68969 0.0934168 0.0420942 0.689328 0.0940119 0.0420823 0.688409 
0.0948957 0.042108 0.686918 0.0959512 0.0421678 0.684831 0.0970349 0.0422582 0.682116 
0.0979937 0.0423772 0.678739 0.0986826 0.042525 0.674663 0.0989799 0.0427046 0.669856 
0.0987994 0.0429207 0.664295 0.0980969 0.0431792 0.657969 0.0968713 0.0434837 0.650882 
0.0951588 0.0438337 0.643054 0.0930234 0.044221 0.634528 0.0905436 0.0446279 0.62536 
0.0877979 0.0450252 0.615623 0.0848511 0.045373 0.605403 0.0817442 0.0456218 0.594789 
0.0784876 0.0457168 0.583869 0.0750612 0.0456029 0.572725 0.071418 0.0452308 0.561424 
0.0674937 0.044564 0.550014 0.0632185 0.0435848 0.538521 0.0585302 0.0422991 0.526945 
0.0533864 0.0407396 0.515263 0.0477743 0.0389658 0.503431 0.0417148 0.0370615 0.49139 
0.0352633 0.0351292 0.479074 0.0285035 0.0332827 0.466414 0.0215383 0.0316376 0.453349 
0.0144764 0.0303017 0.439829 0.00741897 0.0293656 0.425824 0.000446904 0.028895 0.411323 
-0.00638879 0.0289258 0.396335 -0.0130717 0.029462 0.380882 -0.0196192 0.0304766 0.365 
-0.0260761 0.031917 0.348726 -0.0325032 0.0337112 0.332094 -0.0389626 0.035777 0.315126 
-0.0455018 0.0380316 0.297824 -0.0521387 0.0403999 0.280171 -0.0588501 0.0428221 0.262124 
-0.065565 0.0452579 0.243622 -0.0721651 0.0476885 0.224588 -0.0784908 0.0501146 0.20494 
-0.084354 0.0525521 0.184596 -0.0895554 0.0550258 0.163488 -0.093904 0.0575613 0.141572 
-0.0972366 0.0601775 0.118832 -0.099435 0.0628798 0.0952884 -0.100438 0.0656555 0.0709992 
-0.100246 0.0684718 0.0460561 -0.0989218 0.0712768 0.0205806 -0.0965802 0.0740035 -0.00528448 
-0.0933739 0.0765755 -0.0313852 -0.0894757 0.0789152 -0.0575669 -0.0850579 0.080951 -0.0836846 
-0.0802742 0.0826249 -0.109611 -0.075244 0.083898 -0.135243 -0.0700424 0.0847531 -0.160501 
-0.064697 0.0851949 -0.185334 -0.0591916 0.0852472 -0.209711 -0.053475 0.0849471 -0.233618 
-0.0474758 0.0843382 -0.257047 -0.0411185 0.0834628 -0.279995 -0.0343397 0.0823538 -0.302453 
-0.0271028 0.0810296 -0.324402 -0.0194069 0.0794898 -0.345816 -0.0112914 0.077715 -0.366654 
-0.00283338 0.0756689 -0.386872 0.00585952 0.0733034 -0.406421 0.0146617 0.0705663 -0.425259 
0.0234439 0.0674096 -0.443352 0.0320879 0.063798 -0.46068 0.0404993 0.0597163 -0.47724 
0.0486155 0.055175 -0.493046 0.05641 0.0502125 -0.508124 0.0638887 0.0448947 -0.52251 
0.0710828 0.039311 -0.536239 0.0780365 0.0335678 -0.549338 0.0847925 0.0277803 -0.56182 
0.0913779 0.0220631 -0.573675 0.0977925 0.0165217 -0.584869 0.104001 0.0112446 -0.595342 
0.109933 0.00629841 -0.605015 0.115484 0.00172506 -0.613796 0.12053 -0.00245752 -0.621592 
0.124941 -0.00625239 -0.628321 0.1286 -0.00967832 -0.633925 0.13142 -0.0127633 -0.638381 
0.13336 -0.0155375 -0.641713 0.134436 -0.0180276 -0.64399 0.134725 -0.0202513 -0.645331 
0.134363 -0.0222155 -0.645897 0.133529 -0.023915 -0.645879 0.132436 -0.0253351 -0.645482 
0.1313 -0.0264543 -0.644909 0.130323 -0.0272492 -0.644343 0.129668 -0.0276991 -0.643929 
0.129441 -0.02779 -0.643761 
LINES 2 100
OFFSETS vtktypeint64
0 100 
CONNECTIVITY vtktypeint64
0 1 2 3 4 5 6 7 8 
9 10 11 12 13 14 15 16 17 
18 19 20 21 22 23 24 25 26 
27 28 29 30 31 32 33 34 35 
36 37 38 39 40 41 42 43 44 
45 46 47 48 49 50 51 52 53 
54 55 56 57 58 59 60 61 62 
63 64 65 66 67 68 69 70 71 
72 73 74 75 76 77 78 79 80 
81 82 83 84 85 86 87 88 89 
90 91 92 93 94 95 96 97 98 
99 
POINT_DATA 100
FIELD FieldData 3
_theta 1 100 double
0 0.031733259127 0.063466518254 0.095199777382 0.12693303651 0.15866629564 0.19039955476 0.22213281389 0.25386607302 
0.28559933214 0.31733259127 0.3490658504 0.38079910953 0.41253236865 0.44426562778 0.47599888691 0.50773214603 0.53946540516 
0.57119866429 0.60293192342 0.63466518254 0.66639844167 0.6981317008 0.72986495992 0.76159821905 0.79333147818 0.82506473731 
0.85679799643 0.88853125556 0.92026451469 0.95199777382 0.98373103294 1.0154642921 1.0471975512 1.0789308103 1.1106640695 
1.1423973286 1.1741305877 1.2058638468 1.237597106 1.2693303651 1.3010636242 1.3327968833 1.3645301425 1.3962634016 
1.4279966607 1.4597299198 1.491463179 1.5231964381 1.5549296972 1.5866629564 1.6183962155 1.6501294746 1.6818627337 
1.7135959929 1.745329252 1.7770625111 1.8087957702 1.8405290294 1.8722622885 1.9039955476 1.9357288068 1.9674620659 
1.999195325 2.0309285841 2.0626618433 2.0943951024 2.1261283615 2.1578616206 2.1895948798 2.2213281389 2.253061398 
2.2847946572 2.3165279163 2.3482611754 2.3799944345 2.4117276937 2.4434609528 2.4751942119 2.506927471 2.5386607302 
2.5703939893 2.6021272484 2.6338605076 2.6655937667 2.6973270258 2.7290602849 2.7607935441 2.7925268032 2.8242600623 
2.8559933214 2.8877265806 2.9194598397 2.9511930988 2.982926358 3.0146596171 3.0463928762 3.0781261353 3.1098593945 
3.1415926536 
_radius 1 100 double
3.3594567231e-16 0.015530171042 0.030862265023 0.045818662921 0.060249964133 0.074045023123 0.087137005098 0.099504909909 0.11117050354 
0.12219107434 0.13264885926 0.14263833397 0.1522527961 0.16157174632 0.17065045031 0.17951274852 0.1881477356 0.19651046854 
0.20452648554 0.21209966482 0.21912276856 0.22548979693 0.23110896057 0.23591473095 0.23987722309 0.24300728592 0.24535619799 
0.24700971876 0.24807724869 0.24867777131 0.2489248579 0.2489131267 0.24870810546 0.24834058084 0.24780555661 0.24706525946 
0.24605542093 0.24469419403 0.24289318354 0.24056992564 0.23766077833 0.23413280118 0.22999301443 0.22529354326 0.22013159432 
0.21464391105 0.20899616974 0.20336858409 0.19793973995 0.19287132796 0.18829668406 0.18431534166 0.18099381563 0.17837014172 
0.17645783942 0.17524556575 0.17469211219 0.17472086297 0.17522012387 0.1760533758 0.1770778261 0.17816512514 0.17921773387 
0.1801771582 0.18102357052 0.18176873978 0.1824453144 0.1830953882 0.18376031982 0.18447266875 0.18525036295 0.18609289012 
0.18697925919 0.1878675671 0.18869610389 0.18938592126 0.18984463587 0.18997102013 0.18965980398 0.18880616873 0.18730964045 
0.18507737062 0.1820269934 0.1780892794 0.17321065477 0.16735540449 0.16050716838 0.15266928988 0.14386373171 0.13412858562 
0.12351457591 0.11208127399 0.099893896459 0.087021476955 0.073536861431 0.059518419714 0.045052728156 0.030236990354 0.015179886833 
1.0472291615e-15 
_area 1 100 double
0 0.00062392263266 0.0024623778488 0.005420170567 0.0093533635874 0.014087941681 0.01944034261 0.025236552376 0.031327553686 
0.03760005171 0.043982035866 0.050442859476 0.056987672756 0.063646831341 0.070462236172 0.077473455737 0.084705967345 0.092162168621 
0.099814364122 0.10759904618 0.11541356531 0.12311840501 0.13054865266 0.13753526874 0.14393097702 0.14963118031 0.15458263407 
0.15878162337 0.1622715751 0.16515232611 0.16759181033 0.16971000932 0.17151350231 0.1729242 0.1738227933 0.17412953349 
0.17374601698 0.17258611838 0.17059250337 0.16773747165 0.16407832906 0.15985418384 0.15498016996 0.14935547704 0.14309211751 
0.13639028636 0.129495935 0.12267294695 0.11617837858 0.11026418294 0.10513462197 0.10069251456 0.096710547097 0.093053722637 
0.089688952314 0.086676877515 0.084133283308 0.082163650699 0.080792136317 0.079926345607 0.07939379182 0.07901769307 0.078676415189 
0.078317488608 0.077934080126 0.077554857345 0.077229519571 0.077010344688 0.076933566266 0.077009011474 0.077225372158 0.077567617302 
0.078035152255 0.078657580385 0.079558597607 0.080831397605 0.082348267022 0.083913197368 0.085327317149 0.086387156384 0.086892489041 
0.086658272023 0.085525866643 0.083373895996 0.080129620577 0.075779872509 0.070378923776 0.064050899437 0.056985911517 0.049429711928 
0.041666044311 0.033991805069 0.026688615479 0.019997639637 0.014104849933 0.0091409372101 0.0051939935737 0.0023262442993 0.00058441191031 
8.3700407716e-17 
