# vtk DataFile Version 5.1
vtk output
ASCII
DATASET POLYDATA
POINTS 100 float
0.115706 0.0429721 0.667494 0.116029 0.0430828 0.667224 0.116866 0.0435791 0.666542 
0.11813 0.0444328 0.665424 0.11969 0.0455977 0.663834 0.121378 0.0470119 0.661726 
0.123012 0.0486005 0.659044 0.124406 0.05028 0.655734 0.125395 0.0519615 0.651739 
0.12584 0.0535554 0.647012 0.125644 0.0549755 0.641513 0.124755 0.0561425 0.63522 
0.123165 0.0569878 0.628125 0.120904 0.0574561 0.62024 0.118033 0.0575083 0.611595 
0.11463 0.057123 0.602238 0.110781 0.0562974 0.592232 0.106562 0.0550479 0.581649 
0.102036 0.0534098 0.570569 0.0972435 0.0514355 0.55907 0.0922002 0.0491931 0.547228 
0.0869004 0.0467629 0.535106 0.0813214 0.0442338 0.522757 0.0754309 0.041699 0.510215 
0.0691956 0.0392511 0.497498 0.0625902 0.036977 0.484611 0.0556033 0.0349531 0.471542 
0.0482425 0.0332407 0.458271 0.0405346 0.0318831 0.444771 0.032524 0.0309029 0.431013 
0.0242677 0.0303021 0.41697 0.0158286 0.0300624 0.40262 0.00726762 0.0301489 0.387944 
-0.00136249 0.0305137 0.37293 -0.0100227 0.0311018 0.357568 -0.0186897 0.0318566 0.341847 
-0.027355 0.0327263 0.325754 -0.03602 0.0336693 0.309269 -0.0446893 0.0346577 0.29236 
-0.0533607 0.0356801 0.274988 -0.0620157 0.0367419 0.257099 -0.0706099 0.037863 0.238635 
-0.0790669 0.0390743 0.219532 -0.087274 0.0404122 0.199731 -0.0950841 0.0419123 0.179182 
-0.102321 0.0436033 0.157857 -0.10879 0.0455006 0.13575 -0.114291 0.0476025 0.112889 
-0.118634 0.0498873 0.089335 -0.121658 0.0523142 0.0651825 -0.123241 0.0548247 0.040557 
-0.123317 0.0573483 0.0156074 -0.121883 0.0598084 -0.00950291 -0.118997 0.0621298 -0.0346074 
-0.114781 0.0642463 -0.0595479 -0.109407 0.0661075 -0.0841857 -0.103084 0.067683 -0.108411 
-0.0960462 0.0689654 -0.132148 -0.0885276 0.0699695 -0.155359 -0.0807496 0.0707294 -0.178043 
-0.0729032 0.0712927 -0.200228 -0.065137 0.0717125 -0.221968 -0.0575502 0.0720395 -0.243324 
-0.0501905 0.0723129 -0.264362 -0.0430574 0.0725535 -0.285133 -0.0361099 0.0727583 -0.305669 
-0.0292781 0.0728987 -0.325974 -0.022477 0.0729205 -0.346023 -0.0156205 0.0727492 -0.365759 
-0.00863488 0.0722959 -0.3851 -0.00147021 0.0714674 -0.403947 0.00589212 0.0701752 -0.422192 
0.0134352 0.0683465 -0.439732 0.0211069 0.0659322 -0.456477 0.0288234 0.0629136 -0.472358 
0.0364763 0.0593057 -0.487337 0.0439417 0.055157 -0.501406 0.0510903 0.0505462 -0.514587 
0.057798 0.0455755 -0.526928 0.0639547 0.0403621 -0.538497 0.0694719 0.0350285 -0.549371 
0.0742881 0.0296924 -0.559629 0.0783711 0.0244579 -0.569339 0.0817183 0.0194093 -0.578554 
0.0843544 0.0146068 -0.587309 0.0863276 0.0100862 -0.595612 0.0877045 0.00586033 -0.603453 
0.0885646 0.00192439 -0.610805 0.0889941 -0.00173781 -0.617629 0.0890811 -0.00514658 -0.623881 
0.088911 -0.00831926 -0.629521 0.0885628 -0.0112644 -0.634519 0.088107 -0.0139779 -0.638857 
0.0876044 -0.0164414 -0.642535 0.0871052 -0.0186236 -0.645565 0.0866494 -0.0204834 -0.647974 
0.0862678 -0.021975 -0.649794 0.0859827 -0.023054 -0.651059 0.085809 -0.0236836 -0.651801 
0.0857549 -0.023839 -0.65204 
LINES 2 100
OFFSETS vtktypeint64
0 100 
CONNECTIVITY vtktypeint64
0 1 2 3 4 5 6 7 8 
9 10 11 12 13 14 15 16 17 
18 19 20 21 22 23 24 25 26 
27 28 29 30 31 32 33 34 35 
36 37 38 39 40 41 42 43 44 
45 46 47 48 49 50 51 52 53 
54 55 56 57 58 59 60 61 62 
63 64 65 66 67 68 69 70 71 
72 73 74 75 76 77 78 79 80 
81 82 83 84 85 86 87 88 89 
90 91 92 93 94 95 96 97 98 
99 
POINT_DATA 100
FIELD FieldData 3
_theta 1 100 double
0 0.031733259127 0.063466518254 0.095199777382 0.12693303651 0.15866629564 0.19039955476 0.22213281389 0.25386607302 
0.28559933214 0.31733259127 0.3490658504 0.38079910953 0.41253236865 0.44426562778 0.47599888691 0.50773214603 0.53946540516 
0.57119866429 0.60293192342 0.63466518254 0.66639844167 0.6981317008 0.72986495992 0.76159821905 0.79333147818 0.82506473731 
0.85679799643 0.88853125556 0.92026451469 0.95199777382 0.98373103294 1.0154642921 1.0471975512 1.0789308103 1.1106640695 
1.1423973286 1.1741305877 1.2058638468 1.237597106 1.2693303651 1.3010636242 1.3327968833 1.3645301425 1.3962634016 
1.4279966607 1.4597299198 1.491463179 1.5231964381 1.5549296972 1.5866629564 1.6183962155 1.6501294746 1.6818627337 
1.7135959929 1.745329252 1.7770625111 1.8087957702 1.8405290294 1.8722622885 1.9039955476 1.9357288068 1.9674620659 
1.999195325 2.0309285841 2.0626618433 2.0943951024 2.1261283615 2.1578616206 2.1895948798 2.2213281389 2.253061398 
2.2847946572 2.3165279163 2.3482611754 2.3799944345 2.4117276937 2.4434609528 2.4751942119 2.506927471 2.5386607302 
2.5703939893 2.6021272484 2.6338605076 2.6655937667 2.6973270258 2.7290602849 2.7607935441 2.7925268032 2.8242600623 
2.8559933214 2.8877265806 2.9194598397 2.9511930988 2.982926358 3.0146596171 3.0463928762 3.0781261353 3.1098593945 
3.1415926536 
_radius 1 100 double
3.1286640827e-16 0.01504593942 0.029944632793 0.044568575638 0.058812510626 0.072598232744 0.085874090121 0.098610180292 0.1107914796 
0.12241146484 0.13346805268 0.143962331 0.15389929564 0.16328915224 0.17214779512 0.18049563358 0.18835469828 0.19574466364 
0.20267887479 0.20916156596 0.21518719176 0.22074225399 0.22580935784 0.23037264891 0.2344233978 0.23796437982 0.24101187136 
0.24359455038 0.24574928614 0.24751457363 0.24892297336 0.24999414563 0.2507298556 0.25111180107 0.25110252078 0.25064919352 
0.24968991138 0.24816193873 0.24601142088 0.24320388149 0.2397346254 0.23563788817 0.23099333166 0.22592837422 0.22061497764 
0.21526001347 0.21008929851 0.20532681187 0.20117222027 0.19778101853 0.19525147533 0.19362063914 0.19286851248 0.19292689719 
0.19368897778 0.19501753661 0.19675229558 0.19871843081 0.20073795208 0.20264390436 0.20429549947 0.20559132232 0.20647792749 
0.20695212733 0.20705658819 0.20686960396 0.20649087713 0.20602567822 0.20556979259 0.20519719675 0.20495157933 0.2048419273 
0.20484174797 0.20489124701 0.20490185173 0.20476261053 0.2043480025 0.20352653112 0.20216930279 0.20015777641 0.19739006173 
0.19378544617 0.18928709939 0.18386305373 0.17750559193 0.17022915635 0.16206690573 0.15306614554 0.14328305523 0.13277737603 
0.12160789458 0.10982954098 0.097492657863 0.084644536729 0.071332789936 0.057609679411 0.04353626579 0.029185228452 0.014641455488 
1.2236882319e-15 
_area 1 100 double
0 0.00057433759798 0.0022778429154 0.0050546783117 0.0088195847115 0.013466396596 0.01887579219 0.024921294486 0.031473829477 
0.038405593413 0.045593604331 0.052922677194 0.060287418791 0.067593457659 0.07475883771 0.081716384332 0.088416856627 0.094831787669 
0.10095500569 0.10680272608 0.11241253524 0.11784050793 0.12315362992 0.12841401586 0.13365528514 0.13886003342 0.1439527033 
0.14881432513 0.15331022468 0.15731579447 0.16073158804 0.16348685157 0.16553432111 0.16684006919 0.16737263082 0.167095715 
0.16596759771 0.16394793669 0.16101049638 0.15715880902 0.15244099298 0.14695998474 0.14087666292 0.13440487917 0.12779782438 
0.12132527576 0.11524346064 0.10976323139 0.10502486044 0.10108685494 0.097932912013 0.095498206853 0.093708441885 0.092508636099 
0.091857678135 0.091696454839 0.091930359902 0.092437677892 0.093075104469 0.093679189852 0.094083951816 0.094151126499 0.093793054853 
0.092981389588 0.091744632087 0.090158470575 0.088332717472 0.086398446432 0.084497537924 0.082774675829 0.081369898133 0.080408635509 
0.079992677428 0.080238700876 0.081210045256 0.082520441875 0.083903395737 0.085171205984 0.086147205108 0.086648926745 0.08648848674 
0.085486894419 0.083499125364 0.080441574964 0.07631135176 0.071190486934 0.065234382585 0.058648881642 0.051663013178 0.04450483546 
0.037385803359 0.030495032808 0.024000502656 0.018052237831 0.012783819112 0.00831146013 0.0047319635095 0.0021211004647 0.00053297482898 
2.4712248134e-17 
