# vtk DataFile Version 5.1
vtk output
ASCII
DATASET POLYDATA
POINTS 100 float
0.0790901 0.0612359 0.664604 0.0792366 0.0613041 0.66441 0.0795829 0.0616449 0.663963 
0.0800939 0.0622421 0.663211 0.0807153 0.0630686 0.662074 0.0813798 0.0640882 0.660446 
0.0820135 0.0652562 0.658213 0.0825433 0.0665209 0.655257 0.082903 0.0678257 0.651469 
0.0830383 0.0691107 0.646761 0.0829089 0.0703142 0.64107 0.0824893 0.0713754 0.634365 
0.0817668 0.0722358 0.626649 0.0807373 0.0728414 0.617959 0.079401 0.0731449 0.60836 
0.0777572 0.0731077 0.59794 0.0757999 0.0727015 0.586804 0.0735152 0.0719107 0.575062 
0.0708804 0.070733 0.562827 0.0678654 0.0691807 0.550201 0.0644359 0.0672809 0.537273 
0.0605587 0.0650744 0.524116 0.0562071 0.0626149 0.510783 0.0513669 0.0599656 0.49731 
0.04604 0.0571968 0.483717 0.040248 0.0543812 0.470011 0.0340316 0.0515901 0.456192 
0.0274487 0.0488892 0.442252 0.0205695 0.0463343 0.428182 0.0134701 0.0439685 0.413972 
0.00622505 0.0418206 0.399612 -0.00109935 0.0399046 0.38509 -0.00845115 0.0382205 0.37039 
-0.0157961 0.0367576 0.355492 -0.0231182 0.0354983 0.340364 -0.0304172 0.0344224 0.324966 
-0.0377035 0.0335133 0.309245 -0.0449896 0.032762 0.293137 -0.0522821 0.0321714 0.276568 
-0.0595719 0.0317593 0.25946 -0.0668274 0.0315587 0.241738 -0.073989 0.0316162 0.223334 
-0.0809679 0.0319895 0.204194 -0.0876484 0.0327412 0.184289 -0.0938947 0.0339328 0.163617 
-0.0995608 0.0356174 0.142208 -0.104502 0.0378324 0.120126 -0.108591 0.0405934 0.0974646 
-0.111724 0.0438898 0.0743453 -0.113841 0.0476821 0.0509086 -0.114922 0.0519019 0.0273051 
-0.114998 0.0564549 0.00368569 -0.114144 0.0612259 -0.0198097 -0.11247 0.0660853 -0.0430612 
-0.110117 0.0708978 -0.0659769 -0.107237 0.0755302 -0.0884977 -0.103977 0.0798601 -0.110599 
-0.100472 0.0837819 -0.132291 -0.0968269 0.0872122 -0.153609 -0.0931084 0.090092 -0.174613 
-0.0893443 0.0923869 -0.195371 -0.0855226 0.0940849 -0.215952 -0.0815976 0.0951926 -0.236418 
-0.0774993 0.0957299 -0.256811 -0.0731458 0.0957242 -0.277146 -0.0684565 0.0952053 -0.297411 
-0.063364 0.0942008 -0.317563 -0.0578257 0.0927331 -0.337532 -0.05183 0.0908181 -0.357225 
-0.0454006 0.0884657 -0.376538 -0.0385953 0.0856818 -0.395359 -0.0315016 0.0824717 -0.413582 
-0.0242292 0.0788437 -0.431114 -0.0169007 0.0748126 -0.447882 -0.00964134 0.0704028 -0.46384 
-0.00257008 0.0656499 -0.478968 0.00420842 0.0606009 -0.493272 0.0106087 0.0553131 -0.50678 
0.016567 0.0498508 -0.519538 0.0220404 0.0442818 -0.531601 0.0270045 0.0386728 -0.543025 
0.0314491 0.0330855 -0.55386 0.035373 0.0275722 -0.564147 0.0387801 0.0221742 -0.573909 
0.0416757 0.0169207 -0.583152 0.0440651 0.0118296 -0.591868 0.045954 0.00691023 -0.600031 
0.0473505 0.00216696 -0.607611 0.0482688 -0.00239633 -0.61457 0.0487328 -0.00677163 -0.620876 
0.0487798 -0.0109429 -0.626502 0.0484632 -0.0148831 -0.631437 0.047853 -0.0185534 -0.63568 
0.047034 -0.0219036 -0.639247 0.046102 -0.0248747 -0.642166 0.0451573 -0.0274032 -0.644475 
0.0442979 -0.0294264 -0.646215 0.0436109 -0.0308877 -0.647426 0.0431648 -0.0317428 -0.648142 
0.0430034 -0.0319633 -0.648386 
LINES 2 100
OFFSETS vtktypeint64
0 100 
CONNECTIVITY vtktypeint64
0 1 2 3 4 5 6 7 8 
9 10 11 12 13 14 15 16 17 
18 19 20 21 22 23 24 25 26 
27 28 29 30 31 32 33 34 35 
36 37 38 39 40 41 42 43 44 
45 46 47 48 49 50 51 52 53 
54 55 56 57 58 59 60 61 62 
63 64 65 66 67 68 69 70 71 
72 73 74 75 76 77 78 79 80 
81 82 83 84 85 86 87 88 89 
90 91 92 93 94 95 96 97 98 
99 
POINT_DATA 100
FIELD FieldData 3
_theta 1 100 double
0 0.031733259127 0.063466518254 0.095199777382 0.12693303651 0.15866629564 0.19039955476 0.22213281389 0.25386607302 
0.28559933214 0.31733259127 0.3490658504 0.38079910953 0.41253236865 0.44426562778 0.47599888691 0.50773214603 0.53946540516 
0.57119866429 0.60293192342 0.63466518254 0.66639844167 0.6981317008 0.72986495992 0.76159821905 0.79333147818 0.82506473731 
0.85679799643 0.88853125556 0.92026451469 0.95199777382 0.98373103294 1.0154642921 1.0471975512 1.0789308103 1.1106640695 
1.1423973286 1.1741305877 1.2058638468 1.237597106 1.2693303651 1.3010636242 1.3327968833 1.3645301425 1.3962634016 
1.4279966607 1.4597299198 1.491463179 1.5231964381 1.5549296972 1.5866629564 1.6183962155 1.6501294746 1.6818627337 
1.7135959929 1.745329252 1.7770625111 1.8087957702 1.8405290294 1.8722622885 1.9039955476 1.9357288068 1.9674620659 
1.999195325 2.0309285841 2.0626618433 2.0943951024 2.1261283615 2.1578616206 2.1895948798 2.2213281389 2.253061398 
2.2847946572 2.3165279163 2.3482611754 2.3799944345 2.4117276937 2.4434609528 2.4751942119 2.506927471 2.5386607302 
2.5703939893 2.6021272484 2.6338605076 2.6655937667 2.6973270258 2.7290602849 2.7607935441 2.7925268032 2.8242600623 
2.8559933214 2.8877265806 2.9194598397 2.9511930988 2.982926358 3.0146596171 3.0463928762 3.0781261353 3.1098593945 
3.1415926536 
_radius 1 100 double
1.22488676e-15 0.014013241384 0.027972277065 0.041825743071 0.055517318064 0.068983897469 0.082154858973 0.09495274553 0.10729551443 
0.11910023515 0.13028783364 0.1407882618 0.15054538418 0.1595209381 0.1676971126 0.175077551 0.1816868438 0.18756878988 
0.19278382162 0.19740599415 0.2015198234 0.20521703523 0.20859300236 0.21174238959 0.21475346089 0.21770080823 0.22063700925 
0.22358465445 0.22653073264 0.22942504897 0.23218328979 0.23469419427 0.23682961913 0.23845616655 0.23944720554 0.23969429335 
0.23911713766 0.23767141557 0.23535405064 0.23220590509 0.22831212419 0.22380041271 0.21883726428 0.2136217234 0.20837593316 
0.203331857 0.19871435875 0.19472215322 0.19150950202 0.18917220921 0.18774089637 0.18718269036 0.18741007279 0.18829387114 
0.18967705792 0.19138712109 0.19324647646 0.19508177874 0.19673346651 0.1980662906 0.19898022837 0.19941983521 0.1993795623 
0.19890315209 0.19807653025 0.19701505485 0.19584713018 0.19469681135 0.19366803652 0.19283259659 0.19222307862 0.19183105388 
0.19160996333 0.19148161668 0.19134495789 0.19108568012 0.19058536349 0.18972909913 0.18841106061 0.18653805986 0.18403154646 
0.18082860512 0.1768823057 0.17216146645 0.1666497154 0.16034374767 0.15325080824 0.14538558929 0.13676689458 0.12741460638 
0.11734766006 0.10658376949 0.095141415828 0.083044088352 0.070326087273 0.057038615048 0.04325461457 0.029070955959 0.014607086044 
1.1341938826e-15 
_area 1 100 double
0 0.00054389637899 0.0021650129467 0.0048310908472 0.0084869370188 0.01305339667 0.018427562489 0.024484854148 0.031082976415 
0.038067238295 0.045276571561 0.052549875473 0.059732757388 0.066684893892 0.073287900028 0.079452994587 0.08512726496 0.090297127377 
0.094987648253 0.099257004905 0.10318710772 0.10687395935 0.11042218657 0.1139449257 0.11756441394 0.12140457523 0.12556812133 
0.13009985295 0.1349531039 0.13998115463 0.14495659817 0.14960245297 0.15362168204 0.15672306377 0.15864617273 0.15918689089 
0.15822195003 0.1557291895 0.15179987202 0.14663995782 0.14055863032 0.13394302487 0.12720399485 0.12066005394 0.11447876878 
0.1087873107 0.10373337657 0.099456003879 0.096042781998 0.093499966723 0.091748480233 0.090652851011 0.090093034987 0.089993792162 
0.090141603853 0.090393732361 0.090647935471 0.090824925756 0.090852182171 0.090650698104 0.090135850109 0.08923831641 0.087928262726 
0.086227493026 0.084208501489 0.081985812934 0.079705527116 0.077549527181 0.07569536701 0.074210073591 0.073175941093 0.072661597008 
0.072712269991 0.073322654296 0.074321797001 0.075508905225 0.076732188819 0.077868571894 0.078799556477 0.079392317195 0.07949314218 
0.078938381309 0.077578514224 0.075305026129 0.072070750431 0.067898678171 0.062878709442 0.05715508752 0.050908838676 0.044339577411 
0.037650097528 0.031035804195 0.024679525589 0.018750704298 0.013406715867 0.0087936376317 0.0050444899776 0.0022744048937 0.00057360221762 
1.5314879789e-17 
