# vtk DataFile Version 5.1
vtk output
ASCII
DATASET POLYDATA
POINTS 100 float
0.0477753 0.0158722 -0.58254 0.0476432 0.0157579 -0.58243 0.0472867 0.015617 -0.582136 
0.0467037 0.015486 -0.581635 0.0458908 0.0154203 -0.580888 0.0448433 0.0154892 -0.57984 
0.0435558 0.015769 -0.57842 0.0420216 0.0163357 -0.576544 0.0402329 0.0172575 -0.574117 
0.0381811 0.0185884 -0.571032 0.0358559 0.0203624 -0.567182 0.0332463 0.0225903 -0.562458 
0.03034 0.0252584 -0.556762 0.0271246 0.0283288 -0.550008 0.0235884 0.0317427 -0.542135 
0.0197218 0.0354246 -0.533104 0.0155189 0.0392881 -0.522908 0.0109797 0.0432422 -0.511568 
0.00611225 0.0471976 -0.499137 0.000933819 0.0510726 -0.485693 -0.00452752 0.0547974 -0.471334 
-0.0102328 0.0583171 -0.456169 -0.016133 0.0615936 -0.440312 -0.022171 0.0646046 -0.423873 
-0.0282847 0.0673423 -0.406951 -0.0344108 0.0698097 -0.389625 -0.0404899 0.0720171 -0.371954 
-0.0464705 0.0739776 -0.353971 -0.0523133 0.0757031 -0.335689 -0.0579941 0.0772006 -0.317101 
-0.0635045 0.07847 -0.298186 -0.0688516 0.0795022 -0.278915 -0.0740544 0.0802797 -0.259258 
-0.079139 0.0807776 -0.239186 -0.0841318 0.0809659 -0.218685 -0.0890513 0.0808128 -0.197748 
-0.0939009 0.080288 -0.176386 -0.0986614 0.079367 -0.154623 -0.103286 0.0780341 -0.132495 
-0.107698 0.0762851 -0.110048 -0.111791 0.0741297 -0.0873364 -0.115433 0.0715922 -0.0644174 
-0.118476 0.0687113 -0.0413502 -0.120764 0.0655388 -0.0181943 -0.122145 0.0621379 0.00499161 
-0.122488 0.05858 0.0281488 -0.12169 0.0549416 0.0512175 -0.11969 0.0513008 0.0741362 
-0.116475 0.0477339 0.0968398 -0.112083 0.0443122 0.11926 -0.106602 0.0410997 0.141326 
-0.100163 0.0381505 0.162965 -0.0929308 0.0355082 0.184108 -0.0850902 0.0332047 0.204691 
-0.0768323 0.0312607 0.224661 -0.0683391 0.0296861 0.24398 -0.0597698 0.0284811 0.262629 
-0.0512503 0.0276381 0.280609 -0.0428666 0.0271429 0.297944 -0.0346627 0.0269768 0.314676 
-0.0266424 0.0271182 0.330866 -0.0187769 0.0275439 0.346584 -0.0110142 0.0282308 0.361904 
-0.00329163 0.0291562 0.376902 0.00445161 0.0302987 0.391641 0.0122627 0.0316381 0.406174 
0.0201654 0.0331555 0.420535 0.0281545 0.0348322 0.434738 0.0361933 0.0366495 0.448781 
0.0442154 0.0385877 0.462646 0.0521314 0.0406249 0.476306 0.0598364 0.0427364 0.489728 
0.0672216 0.0448941 0.502881 0.0741845 0.0470662 0.515739 0.0806393 0.0492174 0.528288 
0.0865246 0.0513089 0.540521 0.0918084 0.0533 0.552445 0.0964898 0.0551487 0.564069 
0.100597 0.0568138 0.575409 0.104182 0.0582567 0.586473 0.107313 0.059443 0.59726 
0.110068 0.0603446 0.607757 0.112522 0.0609417 0.617928 0.114745 0.0612236 0.627721 
0.11679 0.0611903 0.637065 0.118695 0.0608523 0.645878 0.120477 0.0602312 0.654069 
0.122139 0.0593587 0.661553 0.123672 0.0582753 0.668256 0.125059 0.0570291 0.674126 
0.126282 0.0556739 0.679136 0.127324 0.0542665 0.683293 0.128181 0.0528651 0.686637 
0.128853 0.0515267 0.689235 0.129355 0.0503052 0.691181 0.129706 0.0492493 0.692582 
0.129933 0.0484008 0.693546 0.130062 0.0477937 0.694174 0.130116 0.0474526 0.694549 
0.130111 0.0473923 0.694722 
LINES 2 100
OFFSETS vtktypeint64
0 100 
CONNECTIVITY vtktypeint64
0 1 2 3 4 5 6 7 8 
9 10 11 12 13 14 15 16 17 
18 19 20 21 22 23 24 25 26 
27 28 29 30 31 32 33 34 35 
36 37 38 39 40 41 42 43 44 
45 46 47 48 49 50 51 52 53 
54 55 56 57 58 59 60 61 62 
63 64 65 66 67 68 69 70 71 
72 73 74 75 76 77 78 79 80 
81 82 83 84 85 86 87 88 89 
90 91 92 93 94 95 96 97 98 
99 
POINT_DATA 100
FIELD FieldData 3
_theta 1 100 double
0 0.031733259127 0.063466518254 0.095199777382 0.12693303651 0.15866629564 0.19039955476 0.22213281389 0.25386607302 
0.28559933214 0.31733259127 0.3490658504 0.38079910953 0.41253236865 0.44426562778 0.47599888691 0.50773214603 0.53946540516 
0.57119866429 0.60293192342 0.63466518254 0.66639844167 0.6981317008 0.72986495992 0.76159821905 0.79333147818 0.82506473731 
0.85679799643 0.88853125556 0.92026451469 0.95199777382 0.98373103294 1.0154642921 1.0471975512 1.0789308103 1.1106640695 
1.1423973286 1.1741305877 1.2058638468 1.237597106 1.2693303651 1.3010636242 1.3327968833 1.3645301425 1.3962634016 
1.4279966607 1.4597299198 1.491463179 1.5231964381 1.5549296972 1.5866629564 1.6183962155 1.6501294746 1.6818627337 
1.7135959929 1.745329252 1.7770625111 1.8087957702 1.8405290294 1.8722622885 1.9039955476 1.9357288068 1.9674620659 
1.999195325 2.0309285841 2.0626618433 2.0943951024 2.1261283615 2.1578616206 2.1895948798 2.2213281389 2.253061398 
2.2847946572 2.3165279163 2.3482611754 2.3799944345 2.4117276937 2.4434609528 2.4751942119 2.506927471 2.5386607302 
2.5703939893 2.6021272484 2.6338605076 2.6655937667 2.6973270258 2.7290602849 2.7607935441 2.7925268032 2.8242600623 
2.8559933214 2.8877265806 2.9194598397 2.9511930988 2.982926358 3.0146596171 3.0463928762 3.0781261353 3.1098593945 
3.1415926536 
_radius 1 100 double
5.5516571977e-16 0.016331453732 0.032503806519 0.048363871875 0.063772993089 0.078610795339 0.092775960114 0.10618466721 0.11876796344 
0.13046945021 0.14124431928 0.15106007681 0.15989855193 0.16775825675 0.17465601725 0.1806270506 0.18572320374 0.19000967738 
0.193561014 0.19645726928 0.19878108573 0.20061594148 0.20204533426 0.20315224984 0.20401806734 0.20472012319 0.20532752732 
0.20589551955 0.20645953754 0.20703080312 0.20759509429 0.20811542245 0.20853820805 0.20880188178 0.20884670958 0.2086247424 
0.20810886585 0.20729989764 0.20623062439 0.20496575773 0.20359728992 0.20223589483 0.20100065572 0.20001038279 0.19937871771 
0.19921236882 0.19960945362 0.20065490722 0.20241191009 0.20491072189 0.20813794736 0.21202964708 0.21647089569 0.22130274195 
0.22633561842 0.23136674848 0.23619847266 0.24065471225 0.24459366026 0.24791577238 0.25056690623 0.25253694786 0.25385454309 
0.25457871707 0.2547882766 0.25456997606 0.25400651624 0.25316555756 0.25209103141 0.25079800095 0.249271982 0.24747290453 
0.24534291766 0.24281636678 0.2398298567 0.23633050377 0.23228114068 0.22766208281 0.2224698129 0.2167134272 0.21040988065 
0.20357903638 0.19623935832 0.18840484339 0.18008349659 0.17127733607 0.16198364184 0.15219700545 0.14191173236 0.13112426126 
0.11983541829 0.10805244158 0.095790749223 0.083075392816 0.069942082951 0.056437643917 0.042619775302 0.0285560631 0.014322268046 
1.4752040061e-15 
_area 1 100 double
0 0.0006486262075 0.0025775526401 0.0057354721201 0.010035722223 0.015355554891 0.021536475123 0.028386152053 0.035682259054 
0.043178795487 0.05061574059 0.057732698902 0.064286064099 0.070067533954 0.074920695006 0.078752700907 0.081539546561 0.083325095529 
0.084214982065 0.08436659313 0.083975940812 0.083261806242 0.082447278987 0.081739610563 0.08131241558 0.081295729706 0.081773887 
0.082786164302 0.084327215489 0.086347831525 0.088758125061 0.091434885394 0.094232036487 0.096993618783 0.099573451785 0.10185958926 
0.10379250177 0.10536810184 0.10662410938 0.10761923132 0.10841913986 0.10909267215 0.10971342134 0.1103643839 0.11114513857 
0.11217812393 0.11361006312 0.11560784826 0.11834773707 0.12199217586 0.12665283215 0.13235171541 0.13899872866 0.14639549523 
0.15425800306 0.1622454772 0.16999102589 0.17713475871 0.18335830933 0.18841596233 0.19215585299 0.19452635319 0.19556703351 
0.19538839607 0.19414747585 0.19202589605 0.18921337504 0.18589513984 0.18223890161 0.17837797862 0.17439219256 0.17029482134 
0.16603615696 0.16152719106 0.15667475992 0.15141294524 0.1457193392 0.13961371672 0.13314398216 0.12636738384 0.1193343394 
0.1120792205 0.10461898965 0.096958355706 0.089099419482 0.081053567025 0.072852839191 0.064557655406 0.056258578948 0.048071839855 
0.040130488719 0.032574149455 0.025540030769 0.019156639367 0.013540267955 0.0087933650848 0.0050035631962 0.0022424050697 0.00056343711366 
7.5369731999e-17 
