# vtk DataFile Version 5.1
vtk output
ASCII
DATASET POLYDATA
POINTS 100 float
0.119117 0.0402473 0.658506 0.119015 0.0403526 0.658004 0.118659 0.0407945 0.656641 
0.118067 0.0415276 0.654456 0.117267 0.0424814 0.651508 0.116296 0.0435692 0.647869 
0.115196 0.0446977 0.643611 0.114004 0.0457778 0.638802 0.112758 0.0467345 0.633495 
0.111482 0.0475143 0.627721 0.110191 0.0480894 0.62149 0.108885 0.0484587 0.614791 
0.107548 0.048645 0.607599 0.106147 0.0486888 0.59988 0.104639 0.0486403 0.5916 
0.102966 0.0485499 0.582738 0.101065 0.0484594 0.573291 0.0988718 0.0483948 0.56328 
0.0963223 0.0483613 0.552755 0.0933613 0.0483419 0.541787 0.0899453 0.0482994 0.530468 
0.0860465 0.0481817 0.518898 0.0816549 0.0479294 0.507177 0.0767795 0.047485 0.495392 
0.0714478 0.0468021 0.483606 0.0657037 0.0458538 0.47185 0.059604 0.0446382 0.460119 
0.0532145 0.0431821 0.448374 0.0466044 0.0415401 0.436539 0.0398415 0.0397909 0.424518 
0.032987 0.0380311 0.412198 0.0260914 0.0363659 0.399464 0.0191913 0.0349002 0.386211 
0.0123084 0.0337291 0.372355 0.00544885 0.03293 0.357837 -0.00139381 0.0325568 0.34263 
-0.00823565 0.0326372 0.326736 -0.015097 0.0331725 0.310183 -0.0219967 0.0341402 0.293018 
-0.0289454 0.0354989 0.275294 -0.0359398 0.0371938 0.257069 -0.0429569 0.0391638 0.238389 
-0.0499506 0.0413462 0.219288 -0.0568494 0.0436821 0.19978 -0.0635569 0.0461185 0.179867 
-0.0699548 0.0486094 0.159536 -0.0759075 0.0511148 0.138771 -0.0812697 0.0535986 0.117557 
-0.0858948 0.056026 0.0958929 -0.0896443 0.0583611 0.0737948 -0.0923976 0.0605648 0.0513029 
-0.0940604 0.0625949 0.0284822 -0.0945717 0.064407 0.00542053 -0.093909 0.0659573 -0.0177778 
-0.0920898 0.0672066 -0.0409999 -0.0891708 0.0681243 -0.0641344 -0.0852439 0.0686929 -0.0870817 
-0.0804295 0.0689106 -0.109763 -0.0748674 0.0687932 -0.132124 -0.0687069 0.0683731 -0.154144 
-0.0620963 0.0676961 -0.175824 -0.0551727 0.0668166 -0.197193 -0.0480535 0.0657905 -0.21829 
-0.0408307 0.064668 -0.239158 -0.0335668 0.0634868 -0.259833 -0.0262949 0.062266 -0.280334 
-0.0190217 0.0610029 -0.300654 -0.0117324 0.059672 -0.320759 -0.00439882 0.0582282 -0.340586 
0.00301196 0.0566116 -0.360052 0.0105287 0.0547561 -0.379058 0.0181673 0.0525983 -0.397502 
0.0259245 0.0500875 -0.415291 0.0337732 0.0471943 -0.432353 0.0416609 0.0439173 -0.448641 
0.0495113 0.0402866 -0.464144 0.0572282 0.0363635 -0.478883 0.0647026 0.0322367 -0.492906 
0.0718205 0.028015 -0.506283 0.0784721 0.0238177 -0.519091 0.0845603 0.0197633 -0.531404 
0.0900089 0.0159584 -0.543279 0.094768 0.012488 -0.554744 0.0988173 0.00940862 -0.565795 
0.102167 0.00674416 -0.576392 0.104855 0.00448642 -0.586464 0.106944 0.00259887 -0.595915 
0.108514 0.00102373 -0.604637 0.109653 -0.000308766 -0.612526 0.110454 -0.00147018 -0.619494 
0.111004 -0.00252415 -0.625483 0.111379 -0.00351836 -0.630474 0.11164 -0.00447927 -0.634491 
0.111835 -0.00541011 -0.637602 0.111991 -0.00629251 -0.639907 0.112123 -0.00709109 -0.641533 
0.112235 -0.00776052 -0.642616 0.112323 -0.00825375 -0.643282 0.112383 -0.00853023 -0.643636 
0.112409 -0.00856289 -0.643747 
LINES 2 100
OFFSETS vtktypeint64
0 100 
CONNECTIVITY vtktypeint64
0 1 2 3 4 5 6 7 8 
9 10 11 12 13 14 15 16 17 
18 19 20 21 22 23 24 25 26 
27 28 29 30 31 32 33 34 35 
36 37 38 39 40 41 42 43 44 
45 46 47 48 49 50 51 52 53 
54 55 56 57 58 59 60 61 62 
63 64 65 66 67 68 69 70 71 
72 73 74 75 76 77 78 79 80 
81 82 83 84 85 86 87 88 89 
90 91 92 93 94 95 96 97 98 
99 
POINT_DATA 100
FIELD FieldData 3
_theta 1 100 double
0 0.031733259127 0.063466518254 0.095199777382 0.12693303651 0.15866629564 0.19039955476 0.22213281389 0.25386607302 
0.28559933214 0.31733259127 0.3490658504 0.38079910953 0.41253236865 0.44426562778 0.47599888691 0.50773214603 0.53946540516 
0.57119866429 0.60293192342 0.63466518254 0.66639844167 0.6981317008 0.72986495992 0.76159821905 0.79333147818 0.82506473731 
0.85679799643 0.88853125556 0.92026451469 0.95199777382 0.98373103294 1.0154642921 1.0471975512 1.0789308103 1.1106640695 
1.1423973286 1.1741305877 1.2058638468 1.237597106 1.2693303651 1.3010636242 1.3327968833 1.3645301425 1.3962634016 
1.4279966607 1.4597299198 1.491463179 1.5231964381 1.5549296972 1.5866629564 1.6183962155 1.6501294746 1.6818627337 
1.7135959929 1.745329252 1.7770625111 1.8087957702 1.8405290294 1.8722622885 1.9039955476 1.9357288068 1.9674620659 
1.999195325 2.0309285841 2.0626618433 2.0943951024 2.1261283615 2.1578616206 2.1895948798 2.2213281389 2.253061398 
2.2847946572 2.3165279163 2.3482611754 2.3799944345 2.4117276937 2.4434609528 2.4751942119 2.506927471 2.5386607302 
2.5703939893 2.6021272484 2.6338605076 2.6655937667 2.6973270258 2.7290602849 2.7607935441 2.7925268032 2.8242600623 
2.8559933214 2.8877265806 2.9194598397 2.9511930988 2.982926358 3.0146596171 3.0463928762 3.0781261353 3.1098593945 
3.1415926536 
_radius 1 100 double
1.5804235334e-15 0.013798824274 0.027571851927 0.041292452149 0.054924863466 0.068420849538 0.081718103195 0.094740930687 0.1074034852 
0.11961541899 0.13128937178 0.14234931635 0.15273853315 0.16242593227 0.17140958698 0.1797166702 0.18739947254 0.19452780175 
0.2011787463 0.20742539174 0.21332641631 0.21891840417 0.22421216324 0.22919346384 0.23382769463 0.23806724139 0.24186007907 
0.24515810775 0.24792402821 0.25013591531 0.25178905361 0.2528950484 0.2534786766 0.25357326936 0.25321549579 0.25244028335 
0.25127646807 0.24974377027 0.24785177056 0.24560148822 0.24298977282 0.24001605096 0.23669026443 0.23304039126 0.22911793179 
0.22500013283 0.22078831909 0.21660230531 0.21257139486 0.20882296901 0.20547016688 0.2026005451 0.20026763451 0.19848674889 
0.1972353257 0.19645700021 0.19606816359 0.19596610857 0.19603848747 0.19617390654 0.19627284293 0.19625736104 0.19607817986 
0.19571856319 0.19519535596 0.19455731333 0.19387986204 0.19325494016 0.19277559322 0.19251717423 0.19251903452 0.19277131815 
0.19321034203 0.19372352186 0.19416219226 0.19435913101 0.19414736846 0.19337746287 0.19193126783 0.18973095974 0.18674263651 
0.18297421893 0.17846783182 0.17328743031 0.16750317344 0.16117480199 0.15433682104 0.1469883543 0.13908993239 0.13056820495 
0.12132791739 0.11126896986 0.10030544866 0.088383396677 0.075494658671 0.061685108118 0.047056628024 0.031763152443 0.016001741071 
7.642022799e-16 
_area 1 100 double
0 0.00050861732755 0.0020227436043 0.0045070245636 0.0079020660986 0.012124247511 0.017066706533 0.022602740863 0.028592529652 
0.034893069415 0.04137004097 0.047909563028 0.054427673416 0.06087581827 0.067241486252 0.073544176792 0.079827607806 0.086149036669 
0.092566352427 0.099124355335 0.1058433034 0.11271354368 0.11969843499 0.12674429974 0.13379188672 0.14078010675 0.14763415266 
0.15424339602 0.16045168195 0.1660763186 0.17094574723 0.17493525869 0.17798784554 0.18011597613 0.18138546215 0.18188679034 
0.18170314114 0.18088606301 0.17944665349 0.17736333887 0.17460155939 0.17113815433 0.16698354407 0.16219698255 0.15689280393 
0.15123729186 0.14543632897 0.13971384211 0.1342808927 0.12929815035 0.12484565401 0.12092321106 0.11748421766 0.11447265739 
0.11183792701 0.10952914014 0.1074833846 0.1056202011 0.10384637936 0.10206769075 0.10020254628 0.098195963056 0.096033447673 
0.093751000043 0.091435363493 0.089209670531 0.087204289944 0.085529924883 0.084275140003 0.083513262543 0.083292905468 0.083612671759 
0.084385315344 0.085441805055 0.086571287111 0.08755489459 0.088188650152 0.088300628494 0.08776457367 0.086508798968 0.084518488804 
0.081830030265 0.078517551205 0.074674041051 0.070391271908 0.06574342774 0.060778711758 0.055521339555 0.049983552179 0.04418436344 
0.038169724245 0.03202835181 0.025898669425 0.019964668604 0.014441393314 0.0095534517372 0.0055117249905 0.0024935646741 0.00062996154185 
9.8988821556e-17 
