# vtk DataFile Version 5.1
vtk output
ASCII
DATASET POLYDATA
POINTS 100 float
0.100387 0.049275 0.681172 0.100454 0.0495441 0.680982 0.10072 0.0501917 0.680317 
0.101128 0.0511686 0.679172 0.101598 0.0523995 0.677541 0.102026 0.053791 0.67541 
0.102304 0.0552412 0.672763 0.10233 0.0566507 0.669574 0.102018 0.0579321 0.66581 
0.101308 0.0590177 0.661436 0.100174 0.059865 0.656409 0.0986206 0.0604579 0.65069 
0.096682 0.0608058 0.644245 0.0944149 0.0609384 0.637047 0.0918885 0.0608985 0.629088 
0.0891738 0.0607342 0.620376 0.0863334 0.0604901 0.610939 0.0834124 0.0601998 0.600824 
0.080433 0.0598807 0.590099 0.077392 0.0595313 0.578839 0.074263 0.0591321 0.567129 
0.0710015 0.0586484 0.555052 0.0675528 0.058037 0.542682 0.0638612 0.0572537 0.530079 
0.0598792 0.0562615 0.51728 0.0555751 0.0550385 0.504301 0.0509382 0.0535835 0.491135 
0.0459806 0.0519206 0.477754 0.0407346 0.0500987 0.464113 0.0352481 0.0481897 0.450159 
0.0295764 0.0462825 0.435837 0.0237734 0.0444755 0.421097 0.0178826 0.0428676 0.405897 
0.0119301 0.0415484 0.390212 0.00592046 0.0405901 0.374031 -0.000163574 0.0400405 0.357358 
-0.00635735 0.0399192 0.340206 -0.0127066 0.0402166 0.322595 -0.0192566 0.0408955 0.304544 
-0.0260403 0.0418967 0.286066 -0.0330655 0.0431452 0.267164 -0.0403045 0.0445591 0.247828 
-0.0476873 0.0460579 0.228036 -0.0550986 0.04757 0.20776 -0.062381 0.0490396 0.186967 
-0.0693432 0.0504305 0.165631 -0.0757729 0.0517274 0.143737 -0.0814535 0.0529354 0.121293 
-0.086182 0.0540763 0.0983324 -0.0897873 0.055184 0.0749192 -0.0921457 0.0562982 0.0511463 
-0.0931924 0.0574583 0.0271317 -0.0929281 0.0586975 0.00301092 -0.091418 0.060038 -0.0210736 
-0.0887866 0.0614879 -0.0449843 -0.0852049 0.0630398 -0.0686004 -0.0808748 0.0646712 -0.0918287 
-0.0760107 0.0663459 -0.114611 -0.0708199 0.0680177 -0.136928 -0.065486 0.0696332 -0.1588 
-0.0601547 0.0711363 -0.180278 -0.0549248 0.0724719 -0.201438 -0.0498449 0.0735885 -0.222368 
-0.0449156 0.0744413 -0.243153 -0.0400974 0.0749933 -0.263864 -0.0353216 0.0752167 -0.284545 
-0.0305054 0.0750927 -0.305206 -0.0255663 0.074612 -0.32582 -0.0204364 0.0737739 -0.346321 
-0.0150739 0.0725865 -0.366616 -0.0094713 0.0710661 -0.386588 -0.0036587 0.0692369 -0.406113 
0.00229711 0.0671305 -0.425072 0.00829775 0.0647853 -0.443361 0.0142217 0.0622456 -0.460903 
0.0199351 0.0595597 -0.477653 0.0253031 0.0567782 -0.4936 0.0302011 0.0539517 -0.508763 
0.0345245 0.0511274 -0.523184 0.0381959 0.0483469 -0.536916 0.0411691 0.0456432 -0.550015 
0.0434307 0.0430388 -0.562527 0.0449984 0.0405446 -0.574475 0.0459168 0.03816 -0.585857 
0.0462521 0.0358743 -0.596642 0.0460854 0.033669 -0.606775 0.0455065 0.0315215 -0.61618 
0.0446072 0.0294095 -0.624772 0.0434773 0.0273149 -0.632473 0.0421997 0.0252282 -0.63922 
0.0408491 0.0231516 -0.644975 0.0394902 0.0211006 -0.649741 0.0381777 0.0191043 -0.653554 
0.0369571 0.0172042 -0.656492 0.0358653 0.0154507 -0.658659 0.0349319 0.0138993 -0.660183 
0.0341801 0.0126048 -0.661196 0.0336275 0.0116163 -0.661821 0.0332865 0.0109724 -0.662157 
0.0331648 0.010697 -0.66227 
LINES 2 100
OFFSETS vtktypeint64
0 100 
CONNECTIVITY vtktypeint64
0 1 2 3 4 5 6 7 8 
9 10 11 12 13 14 15 16 17 
18 19 20 21 22 23 24 25 26 
27 28 29 30 31 32 33 34 35 
36 37 38 39 40 41 42 43 44 
45 46 47 48 49 50 51 52 53 
54 55 56 57 58 59 60 61 62 
63 64 65 66 67 68 69 70 71 
72 73 74 75 76 77 78 79 80 
81 82 83 84 85 86 87 88 89 
90 91 92 93 94 95 96 97 98 
99 
POINT_DATA 100
FIELD FieldData 3
_theta 1 100 double
0 0.031733259127 0.063466518254 0.095199777382 0.12693303651 0.15866629564 0.19039955476 0.22213281389 0.25386607302 
0.28559933214 0.31733259127 0.3490658504 0.38079910953 0.41253236865 0.44426562778 0.47599888691 0.50773214603 0.53946540516 
0.57119866429 0.60293192342 0.63466518254 0.66639844167 0.6981317008 0.72986495992 0.76159821905 0.79333147818 0.82506473731 
0.85679799643 0.88853125556 0.92026451469 0.95199777382 0.98373103294 1.0154642921 1.0471975512 1.0789308103 1.1106640695 
1.1423973286 1.1741305877 1.2058638468 1.237597106 1.2693303651 1.3010636242 1.3327968833 1.3645301425 1.3962634016 
1.4279966607 1.4597299198 1.491463179 1.5231964381 1.5549296972 1.5866629564 1.6183962155 1.6501294746 1.6818627337 
1.7135959929 1.745329252 1.7770625111 1.8087957702 1.8405290294 1.8722622885 1.9039955476 1.9357288068 1.9674620659 
1.999195325 2.0309285841 2.0626618433 2.0943951024 2.1261283615 2.1578616206 2.1895948798 2.2213281389 2.253061398 
2.2847946572 2.3165279163 2.3482611754 2.3799944345 2.4117276937 2.4434609528 2.4751942119 2.506927471 2.5386607302 
2.5703939893 2.6021272484 2.6338605076 2.6655937667 2.6973270258 2.7290602849 2.7607935441 2.7925268032 2.8242600623 
2.8559933214 2.8877265806 2.9194598397 2.9511930988 2.982926358 3.0146596171 3.0463928762 3.0781261353 3.1098593945 
3.1415926536 
_radius 1 100 double
5.7240617728e-16 0.014160944657 0.028299354776 0.04238154926 0.056360890344 0.070174062031 0.083739969747 0.096961635473 0.10973107209 
0.12193671695 0.13347265553 0.14424860253 0.15419942675 0.1632929068 0.17153441719 0.17896743341 0.1856691867 0.19174153538 
0.19729807599 0.20244945293 0.20728940064 0.21188401512 0.2162660848 0.22043520891 0.22436319288 0.22800315986 0.23130024679 
0.23420180662 0.23666559929 0.23866519233 0.24019238162 0.24125676779 0.24188279022 0.24210468974 0.2419601078 0.24148329047 
0.24069904982 0.23961865714 0.23823865493 0.23654317918 0.23450982131 0.2321184019 0.22936137539 0.22625406257 0.22284264811 
0.21920800854 0.21546404782 0.2117503317 0.20822025297 0.20502724426 0.20231199882 0.20019281594 0.198759326 0.19806794122 
0.19813656437 0.19893711769 0.20038728229 0.20234614887 0.20461968451 0.20697895146 0.20918819908 0.21103559569 0.21235918199 
0.21306338994 0.21312461489 0.21258657397 0.21154751772 0.2101420957 0.20852097486 0.20683115412 0.20519925546 0.20371898554 
0.20244279634 0.20137706284 0.20048024713 0.199664364 0.19880071864 0.19773042599 0.19627875249 0.19427100948 0.19154749463 
0.18797567798 0.18345875633 0.17794036878 0.17140560031 0.16387854729 0.15541684806 0.14610378751 0.13603886587 0.12532799653 
0.11407463279 0.10237299499 0.090304140811 0.077935003437 0.065319929296 0.052503860951 0.039526168244 0.026424179152 0.013235675792 
1.9440847321e-16 
_area 1 100 double
0 0.00047574139902 0.0018942799553 0.0042308004507 0.0074472707754 0.011495126353 0.016315950319 0.021839706364 0.027981813376 
0.034641285608 0.041701580392 0.049034076656 0.056502770851 0.063969582199 0.071302251801 0.078387506257 0.085148395231 0.091559696345 
0.097653608262 0.10351041887 0.10923399319 0.11491834038 0.12061703626 0.12632822607 0.13200162554 0.13756246254 0.14293712528 
0.14806358095 0.15288041445 0.15730673811 0.16123488273 0.16454635905 0.16714101908 0.16896091203 0.16999680939 0.17027656993 
0.1698432173 0.16873407872 0.16697001116 0.16455768391 0.16150195899 0.15782234527 0.15356741187 0.14882248943 0.14370754991 
0.13836369943 0.1329300225 0.12751917745 0.12220587539 0.11703762709 0.11206268809 0.10736086422 0.10306612559 0.099380170185 
0.09659944105 0.095110737007 0.094930769251 0.095826457175 0.097483419145 0.099511129463 0.10149703245 0.10306523467 0.10392387597 
0.1038958282 0.10292912351 0.10108942571 0.09854171449 0.095527553178 0.092341287105 0.089303790425 0.086727119963 0.084870610381 
0.083907014045 0.083894267036 0.08473667291 0.086211740585 0.08804427707 0.089933942602 0.091564233224 0.092619149609 0.092805617594 
0.091877421985 0.089659389204 0.086070255649 0.081138642842 0.07500486166 0.067905572194 0.060144454071 0.052055483727 0.043965934685 
0.036165271046 0.028884542827 0.022288634264 0.016480660689 0.011515245264 0.0074168336069 0.0041987661707 0.0018766930751 0.00047101255905 
1.9600063238e-18 
