# vtk DataFile Version 5.1
vtk output
ASCII
DATASET POLYDATA
POINTS 100 float
0.130816 -0.0256729 -0.759486 0.130659 -0.0257303 -0.758971 0.130163 -0.0257392 -0.757474 
0.129318 -0.0256693 -0.75502 0.128108 -0.0254731 -0.751651 0.12651 -0.0250891 -0.747417 
0.124493 -0.0244477 -0.742373 0.122021 -0.0234762 -0.736573 0.119049 -0.0221046 -0.730063 
0.11553 -0.0202712 -0.722879 0.111417 -0.0179264 -0.715039 0.106666 -0.0150364 -0.706544 
0.10124 -0.0115848 -0.697376 0.0951207 -0.00757384 -0.687503 0.088306 -0.00302346 -0.67688 
0.0808205 0.00202983 -0.665455 0.0727165 0.00753489 -0.653177 0.0640755 0.0134282 -0.640003 
0.0550076 0.019636 -0.625903 0.0456474 0.0260765 -0.610867 0.0361481 0.0326612 -0.59491 
0.026673 0.039297 -0.578069 0.017385 0.0458866 -0.560409 0.00843624 0.0523306 -0.542012 
-4.3145e-05 0.0585286 -0.522976 -0.00795445 0.0643811 -0.503404 -0.0152379 0.0697923 -0.483396 
-0.0218772 0.0746724 -0.463039 -0.0279002 0.0789419 -0.4424 -0.0333762 0.0825348 -0.421516 
-0.0384089 0.0854024 -0.400394 -0.0431265 0.0875164 -0.379008 -0.0476692 0.0888712 -0.357301 
-0.052175 0.089485 -0.335192 -0.0567657 0.0893992 -0.312585 -0.0615341 0.0886765 -0.289381 
-0.0665329 0.0873966 -0.265487 -0.0717682 0.0856516 -0.240835 -0.0771956 0.0835393 -0.215385 
-0.0827224 0.0811571 -0.189137 -0.088213 0.0785951 -0.162139 -0.0934987 0.0759311 -0.134482 
-0.0983907 0.0732258 -0.106301 -0.102694 0.0705211 -0.0777671 -0.106224 0.0678394 -0.0490772 
-0.108818 0.065186 -0.0204405 -0.110351 0.0625526 0.00793419 -0.11074 0.0599228 0.0358517 
-0.109955 0.0572783 0.0631428 -0.108012 0.0546052 0.089673 -0.104976 0.0519 0.115348 
-0.100949 0.0491735 0.140117 -0.0960628 0.0464543 0.16397 -0.0904644 0.0437881 0.186931 
-0.0843046 0.0412366 0.209054 -0.077726 0.0388731 0.23041 -0.0708525 0.0367764 0.25108 
-0.0637822 0.0350245 0.271144 -0.0565831 0.0336863 0.290675 -0.0492934 0.0328154 0.309732 
-0.0419239 0.0324437 0.328359 -0.034464 0.032578 0.346585 -0.0268901 0.0331976 0.364426 
-0.0191745 0.0342556 0.381888 -0.0112949 0.0356816 0.398975 -0.00324197 0.0373876 0.415693 
0.00497343 0.0392744 0.43205 0.013317 0.0412397 0.448067 0.02173 0.043186 0.46377 
0.0301307 0.0450279 0.479195 0.0384196 0.0466981 0.494384 0.0464856 0.0481515 0.509377 
0.0542141 0.0493672 0.524208 0.0614956 0.0503478 0.538904 0.0682333 0.0511169 0.553474 
0.0743504 0.0517146 0.567911 0.0797948 0.0521916 0.582187 0.0845421 0.0526028 0.596258 
0.0885962 0.0530012 0.610063 0.091987 0.0534313 0.623531 0.0947672 0.0539254 0.636588 
0.0970067 0.0545004 0.649159 0.0987863 0.0551566 0.661179 0.100192 0.0558789 0.672591 
0.101307 0.0566392 0.683357 0.10221 0.0574003 0.693452 0.102969 0.0581207 0.702867 
0.103635 0.0587598 0.711605 0.10425 0.0592828 0.719677 0.104839 0.0596646 0.727097 
0.105413 0.059893 0.733878 0.105975 0.05997 0.740029 0.106518 0.059912 0.745548 
0.10703 0.0597474 0.750424 0.107495 0.0595144 0.754639 0.107897 0.0592564 0.758165 
0.10822 0.0590175 0.760973 0.108452 0.058838 0.763033 0.108582 0.05875 0.764318 
0.108606 0.0587739 0.764811 
LINES 2 100
OFFSETS vtktypeint64
0 100 
CONNECTIVITY vtktypeint64
0 1 2 3 4 5 6 7 8 
9 10 11 12 13 14 15 16 17 
18 19 20 21 22 23 24 25 26 
27 28 29 30 31 32 33 34 35 
36 37 38 39 40 41 42 43 44 
45 46 47 48 49 50 51 52 53 
54 55 56 57 58 59 60 61 62 
63 64 65 66 67 68 69 70 71 
72 73 74 75 76 77 78 79 80 
81 82 83 84 85 86 87 88 89 
90 91 92 93 94 95 96 97 98 
99 
POINT_DATA 100
FIELD FieldData 3
_theta 1 100 double
0 0.031733259127 0.063466518254 0.095199777382 0.12693303651 0.15866629564 0.19039955476 0.22213281389 0.25386607302 
0.28559933214 0.31733259127 0.3490658504 0.38079910953 0.41253236865 0.44426562778 0.47599888691 0.50773214603 0.53946540516 
0.57119866429 0.60293192342 0.63466518254 0.66639844167 0.6981317008 0.72986495992 0.76159821905 0.79333147818 0.82506473731 
0.85679799643 0.88853125556 0.92026451469 0.95199777382 0.98373103294 1.0154642921 1.0471975512 1.0789308103 1.1106640695 
1.1423973286 1.1741305877 1.2058638468 1.237597106 1.2693303651 1.3010636242 1.3327968833 1.3645301425 1.3962634016 
1.4279966607 1.4597299198 1.491463179 1.5231964381 1.5549296972 1.5866629564 1.6183962155 1.6501294746 1.6818627337 
1.7135959929 1.745329252 1.7770625111 1.8087957702 1.8405290294 1.8722622885 1.9039955476 1.9357288068 1.9674620659 
1.999195325 2.0309285841 2.0626618433 2.0943951024 2.1261283615 2.1578616206 2.1895948798 2.2213281389 2.253061398 
2.2847946572 2.3165279163 2.3482611754 2.3799944345 2.4117276937 2.4434609528 2.4751942119 2.506927471 2.5386607302 
2.5703939893 2.6021272484 2.6338605076 2.6655937667 2.6973270258 2.7290602849 2.7607935441 2.7925268032 2.8242600623 
2.8559933214 2.8877265806 2.9194598397 2.9511930988 2.982926358 3.0146596171 3.0463928762 3.0781261353 3.1098593945 
3.1415926536 
_radius 1 100 double
9.2263808474e-16 0.015090211467 0.030047576063 0.044744068191 0.059062138925 0.072894637977 0.086140744937 0.098699728325 0.11046548965 
0.12132492944 0.13116211593 0.1398684204 0.14735687389 0.15357765169 0.15853117402 0.16227581643 0.16492837419 0.16665686603 
0.16766669571 0.1681823917 0.1684278965 0.16860844998 0.1688964079 0.16942207935 0.170269381 0.17147532141 0.17303224062 
0.17489211787 0.17697269223 0.17916526559 0.18134382051 0.18337476102 0.18512657376 0.18647919512 0.18733367122 0.18762323099 
0.1873261923 0.18647878447 0.18518363 0.18360941347 0.18197897564 0.18054563618 0.17956114667 0.17924286347 0.17974942648 
0.18117062204 0.18353024642 0.18679593387 0.19088971826 0.19569607481 0.2010675392 0.20682993417 0.21278940242 0.21874243425 
0.22448869772 0.22984530687 0.23466048856 0.23882450238 0.2422760568 0.24500320625 0.24703866188 0.24845043702 0.24932954039 
0.24977676408 0.24989038349 0.24975597273 0.24943888996 0.24897954097 0.24839130717 0.24766093493 0.24675115206 0.24560524167 
0.24415320332 0.24231894079 0.24002769105 0.2372127711 0.23382077846 0.2298146617 0.22517450083 0.21989625946 0.21398905545 
0.20747157156 0.20036811645 0.19270465858 0.18450502783 0.17578749567 0.16656208102 0.15682907614 0.14657932172 0.13579659599 
0.12446209431 0.1125604309 0.10008609401 0.08704908377 0.073478680546 0.059424822679 0.044957172402 0.0301623974 0.01514038152 
2.8505545632e-16 
_area 1 100 double
0 0.00050671334471 0.0020238698942 0.0045400427958 0.0080284160771 0.01243668474 0.017675712713 0.023609382923 0.030048629034 
0.036752920571 0.043441844782 0.049817480208 0.055595330077 0.060538719582 0.064489860778 0.067390770819 0.069288792886 0.070324367504 
0.070702800388 0.070656939328 0.070419530058 0.070322344148 0.070556185048 0.071001334486 0.071664947676 0.072519466271 0.073506401743 
0.074605985839 0.075836192211 0.07710725289 0.078360620727 0.079553611741 0.080676417657 0.081739784669 0.082761114318 0.083761338032 
0.084719601581 0.085596246578 0.086400002824 0.087205762559 0.088090837567 0.089172293917 0.090618957818 0.092514952756 0.094955248464 
0.097949256337 0.10153227028 0.1057665837 0.11072622737 0.11645756985 0.12292002164 0.12996999686 0.13739102332 0.14493004566 
0.15232308686 0.15931211755 0.16565930841 0.17116503998 0.17569787993 0.17927134742 0.18232038645 0.18438857011 0.18540561615 
0.18555590306 0.18493133656 0.18353492988 0.18148490972 0.17890168536 0.17590767776 0.1726145959 0.16910154663 0.16540410452 
0.16152592934 0.15745237542 0.15314913955 0.14855654676 0.14359545908 0.13818637505 0.13227132426 0.12582882614 0.11887895076 
0.11148013358 0.10372057899 0.095706842563 0.087551712811 0.079362961011 0.071233981401 0.063237254826 0.05542233639 0.047820914124 
0.040459965234 0.033379229126 0.026645581552 0.020358995902 0.01464979333 0.0096695498162 0.0055777759259 0.0025257033953 0.00063871795082 
1.563958992e-17 
