# vtk DataFile Version 5.1
vtk output
ASCII
DATASET POLYDATA
POINTS 100 float
0.125813 -0.0316915 -0.676564 0.1259 -0.0319757 -0.676416 0.126221 -0.0325994 -0.675996 
0.126719 -0.0334857 -0.675259 0.127305 -0.0345148 -0.674137 0.127862 -0.0355338 -0.672544 
0.128255 -0.0363691 -0.670391 0.128348 -0.0368399 -0.667594 0.128005 -0.0367721 -0.664084 
0.12711 -0.0360113 -0.659816 0.125566 -0.0344329 -0.65477 0.123312 -0.0319506 -0.648955 
0.120319 -0.0285206 -0.6424 0.116593 -0.0241428 -0.635154 0.112176 -0.0188594 -0.627268 
0.10714 -0.0127505 -0.618793 0.10158 -0.00592784 -0.609766 0.0956059 0.00147226 -0.600204 
0.0893373 0.00929622 -0.5901 0.0828923 0.0173805 -0.579424 0.0763803 0.025558 -0.568123 
0.0698948 0.0336635 -0.556134 0.0635084 0.0415382 -0.543386 0.057268 0.0490337 -0.529815 
0.0511938 0.0560151 -0.515374 0.045278 0.0623639 -0.500037 0.0394876 0.0679809 -0.483809 
0.0337669 0.0727895 -0.466722 0.028043 0.0767383 -0.448837 0.0222318 0.0798039 -0.430232 
0.0162451 0.081993 -0.410999 0.00999879 0.0833433 -0.391229 0.00342077 0.083923 -0.371002 
-0.00354139 0.0838283 -0.35038 -0.0109133 0.0831787 -0.3294 -0.0186882 0.0821104 -0.30807 
-0.026823 0.0807675 -0.286373 -0.035237 0.0792927 -0.26427 -0.0438126 0.0778168 -0.241713 
-0.0523996 0.0764489 -0.218652 -0.0608214 0.0752681 -0.195049 -0.068884 0.0743178 -0.170886 
-0.0763867 0.0736028 -0.146178 -0.0831341 0.0730897 -0.120971 -0.0889478 0.0727117 -0.0953479 
-0.0936778 0.0723759 -0.0694239 -0.0972114 0.0719735 -0.0433379 -0.0994801 0.0713917 -0.0172436 
-0.100463 0.0705262 0.00870241 -0.100185 0.0692927 0.0343514 -0.0987165 0.067636 0.059573 
-0.0961602 0.0655373 0.0842624 -0.0926464 0.063017 0.108345 -0.0883196 0.0601334 0.131774 
-0.0833264 0.0569788 0.154534 -0.0778053 0.0536712 0.176627 -0.0718776 0.0503444 0.198072 
-0.0656411 0.0471363 0.218893 -0.0591674 0.0441779 0.239116 -0.052503 0.0415825 0.25876 
-0.0456731 0.0394376 0.277838 -0.0386883 0.0377992 0.296356 -0.0315531 0.0366897 0.314315 
-0.0242745 0.0360983 0.331718 -0.0168702 0.0359852 0.348576 -0.0093748 0.036287 0.364911 
-0.00184321 0.0369242 0.380763 0.00564891 0.037809 0.396189 0.0130083 0.0388533 0.411267 
0.0201301 0.0399748 0.426083 0.0269062 0.041102 0.440733 0.0332343 0.0421778 0.455306 
0.0390282 0.0431602 0.469879 0.0442251 0.0440224 0.484503 0.0487926 0.0447504 0.499197 
0.0527309 0.0453413 0.513942 0.0560727 0.0457996 0.528679 0.0588794 0.0461349 0.543314 
0.0612336 0.0463595 0.55772 0.0632307 0.0464869 0.571754 0.0649685 0.0465308 0.58526 
0.0665371 0.0465051 0.598093 0.0680108 0.0464241 0.610121 0.0694415 0.0463029 0.621244 
0.0708558 0.0461574 0.631395 0.0722551 0.0460046 0.640547 0.073619 0.0458621 0.648709 
0.0749116 0.0457469 0.655925 0.0760886 0.045674 0.662262 0.0771064 0.0456552 0.667802 
0.0779295 0.0456974 0.672633 0.078537 0.0458017 0.676837 0.0789265 0.0459628 0.680484 
0.0791148 0.0461691 0.683627 0.0791364 0.0464043 0.6863 0.0790386 0.0466484 0.688519 
0.0788751 0.0468805 0.690284 0.0786984 0.0470812 0.691587 0.0785527 0.0472347 0.692418 
0.0784675 0.0473309 0.692765 
LINES 2 100
OFFSETS vtktypeint64
0 100 
CONNECTIVITY vtktypeint64
0 1 2 3 4 5 6 7 8 
9 10 11 12 13 14 15 16 17 
18 19 20 21 22 23 24 25 26 
27 28 29 30 31 32 33 34 35 
36 37 38 39 40 41 42 43 44 
45 46 47 48 49 50 51 52 53 
54 55 56 57 58 59 60 61 62 
63 64 65 66 67 68 69 70 71 
72 73 74 75 76 77 78 79 80 
81 82 83 84 85 86 87 88 89 
90 91 92 93 94 95 96 97 98 
99 
POINT_DATA 100
FIELD FieldData 3
_theta 1 100 double
0 0.031733259127 0.063466518254 0.095199777382 0.12693303651 0.15866629564 0.19039955476 0.22213281389 0.25386607302 
0.28559933214 0.31733259127 0.3490658504 0.38079910953 0.41253236865 0.44426562778 0.47599888691 0.50773214603 0.53946540516 
0.57119866429 0.60293192342 0.63466518254 0.66639844167 0.6981317008 0.72986495992 0.76159821905 0.79333147818 0.82506473731 
0.85679799643 0.88853125556 0.92026451469 0.95199777382 0.98373103294 1.0154642921 1.0471975512 1.0789308103 1.1106640695 
1.1423973286 1.1741305877 1.2058638468 1.237597106 1.2693303651 1.3010636242 1.3327968833 1.3645301425 1.3962634016 
1.4279966607 1.4597299198 1.491463179 1.5231964381 1.5549296972 1.5866629564 1.6183962155 1.6501294746 1.6818627337 
1.7135959929 1.745329252 1.7770625111 1.8087957702 1.8405290294 1.8722622885 1.9039955476 1.9357288068 1.9674620659 
1.999195325 2.0309285841 2.0626618433 2.0943951024 2.1261283615 2.1578616206 2.1895948798 2.2213281389 2.253061398 
2.2847946572 2.3165279163 2.3482611754 2.3799944345 2.4117276937 2.4434609528 2.4751942119 2.506927471 2.5386607302 
2.5703939893 2.6021272484 2.6338605076 2.6655937667 2.6973270258 2.7290602849 2.7607935441 2.7925268032 2.8242600623 
2.8559933214 2.8877265806 2.9194598397 2.9511930988 2.982926358 3.0146596171 3.0463928762 3.0781261353 3.1098593945 
3.1415926536 
_radius 1 100 double
2.0595777971e-16 0.015924279091 0.031684542326 0.047120942003 0.062088375112 0.07646115776 0.090135219019 0.10302805714 0.11507704999 
0.12623681989 0.13647627786 0.14577579434 0.15412473678 0.16151946533 0.16796188829 0.17345889391 0.17802326383 0.18167671634 
0.18445521868 0.18641568644 0.18764212973 0.18824880924 0.18837834233 0.18819385637 0.18786585236 0.18755592009 0.18740032839 
0.18749648282 0.18789437032 0.18859384308 0.1895474634 0.1906679347 0.1918388829 0.19292780147 0.19380025367 0.19433486024 
0.19443882826 0.19406313625 0.19321492587 0.19196343803 0.19043640996 0.18880630564 0.18726897665 0.18601981002 0.18523274084 
0.18504546012 0.18555119523 0.18679554186 0.18877667807 0.19144813197 0.19472402472 0.1984868151 0.20259711136 0.20690453348 
0.21125833045 0.21551660408 0.21955341565 0.22326353275 0.22656495004 0.22939952214 0.23173209924 0.23354853496 0.23485291881 
0.23566439794 0.236013958 0.23594146963 0.23549314022 0.2347192645 0.23367192321 0.23240214625 0.23095613744 0.22937050754 
0.22766702552 0.22584794739 0.22389316369 0.22175999306 0.21938562758 0.21669151099 0.21358868214 0.20998331798 0.20578210038 
0.20089736571 0.19525215109 0.18878519135 0.18145568814 0.17324737012 0.16417112677 0.15426544909 0.14359412048 0.13224106229 
0.12030285772 0.10788008022 0.095068934359 0.081954721002 0.068608223568 0.055085375768 0.041429718746 0.027676452451 0.013856591357 
1.1485760533e-15 
_area 1 100 double
0 0.00062867751672 0.0024930189312 0.0055280668491 0.0096265279633 0.014642023184 0.020395968783 0.026687905676 0.033307423548 
0.040045315889 0.046702540244 0.053097059994 0.059069428386 0.064487316763 0.069247633412 0.073274529527 0.076514468164 0.078933450821 
0.080521146684 0.081302218803 0.081351284139 0.080805593623 0.079867502758 0.078788369202 0.077833451031 0.077249105575 0.077251649907 
0.077837020933 0.078745576966 0.079823219102 0.080933189044 0.081950559976 0.08277686626 0.083348287229 0.083635658275 0.08365178249 
0.083474248961 0.083168330958 0.082896818572 0.082754335511 0.082928790718 0.083530295446 0.084506712823 0.085811495912 0.087442055184 
0.089433629006 0.091842991318 0.094732234395 0.098158670444 0.10216041425 0.10674222558 0.11186780227 0.11745691552 0.12338804172 
0.12950592348 0.13563001526 0.14156209786 0.1470945782 0.15202233391 0.1561594425 0.15935849146 0.16152733196 0.16263816214 
0.16272640154 0.16188037249 0.16022570145 0.1579092638 0.15508588993 0.15190816722 0.14851808913 0.14504011603 0.14157592033 
0.13819936115 0.13494994807 0.13182675065 0.1287865722 0.12574763625 0.12259755449 0.11920451767 0.11543133359 0.11115126098 
0.10626353079 0.10070617649 0.094464244596 0.087572436859 0.080112554174 0.072207095921 0.064010441865 0.055698415705 0.047456542244 
0.039467702669 0.031901027174 0.024904527307 0.018602885189 0.013099367589 0.0084791510112 0.0048117878811 0.0021521222455 0.00054007763848 
5.7264162398e-17 
