# vtk DataFile Version 5.1
vtk output
ASCII
DATASET POLYDATA
POINTS 100 float
0.0887077 0.0378728 0.614221 0.0887066 0.0381499 0.614034 0.0887954 0.038809 0.613342 
0.0889641 0.039798 0.612163 0.0891962 0.0410363 0.610526 0.0894689 0.042424 0.60846 
0.0897535 0.0438524 0.605991 0.0900164 0.0452147 0.603135 0.0902201 0.0464171 0.599894 
0.0903246 0.0473868 0.59625 0.0902883 0.048077 0.59217 0.0900703 0.0484689 0.587605 
0.0896311 0.0485703 0.582495 0.0889341 0.0484097 0.576779 0.0879472 0.04803 0.570405 
0.0866426 0.04748 0.563332 0.0849977 0.0468061 0.555542 0.082995 0.0460455 0.547043 
0.0806217 0.045222 0.537873 0.0778693 0.044344 0.528095 0.0747331 0.0434059 0.51779 
0.0712119 0.0423922 0.507056 0.0673079 0.0412836 0.495993 0.0630271 0.0400637 0.484692 
0.0583798 0.0387264 0.473231 0.0533812 0.0372808 0.46166 0.0480525 0.035755 0.450004 
0.0424217 0.0341968 0.438254 0.0365237 0.032671 0.426378 0.0304 0.0312543 0.41432 
0.0240977 0.0300286 0.402009 0.0176675 0.0290722 0.389374 0.0111609 0.0284523 0.376349 
0.00462679 0.0282173 0.36288 -0.00189194 0.0283929 0.348935 -0.00836183 0.0289796 0.334507 
-0.0147614 0.0299543 0.31961 -0.0210827 0.0312741 0.304278 -0.0273307 0.0328829 0.288556 
-0.0335214 0.0347195 0.272495 -0.0396781 0.0367252 0.25614 -0.0458255 0.0388515 0.239524 
-0.0519826 0.0410647 0.222659 -0.0581564 0.043349 0.205538 -0.064334 0.0457051 0.188128 
-0.0704774 0.0481474 0.17038 -0.0765202 0.050697 0.152234 -0.0823663 0.053375 0.133625 
-0.0878927 0.0561933 0.114497 -0.092955 0.0591484 0.0948095 -0.0973961 0.0622154 0.0745497 
-0.101057 0.0653457 0.0537339 -0.103789 0.0684681 0.0324125 -0.105466 0.0714929 0.0106679 
-0.105994 0.0743192 -0.0113902 -0.105323 0.0768441 -0.0336326 -0.103448 0.078973 -0.0559206 
-0.100413 0.0806295 -0.0781161 -0.0963028 0.0817633 -0.100092 -0.0912422 0.0823557 -0.121742 
-0.0853789 0.0824212 -0.142985 -0.0788729 0.0820053 -0.163767 -0.0718818 0.081179 -0.184065 
-0.0645474 0.0800301 -0.203882 -0.0569845 0.0786523 -0.223238 -0.0492733 0.0771344 -0.242169 
-0.0414561 0.0755498 -0.260715 -0.0335382 0.0739481 -0.278915 -0.0254942 0.0723503 -0.296801 
-0.0172773 0.0707469 -0.314392 -0.0088315 0.0691008 -0.331696 -0.000104647 0.0673528 -0.348706 
0.00893856 0.0654304 -0.365405 0.0183062 0.0632582 -0.381768 0.0279717 0.0607682 -0.397765 
0.0378712 0.0579097 -0.413363 0.0479049 0.0546568 -0.428532 0.0579435 0.0510131 -0.443242 
0.067838 0.0470131 -0.457465 0.0774319 0.0427196 -0.471173 0.0865748 0.0382192 -0.484336 
0.0951353 0.0336144 -0.496921 0.103012 0.0290151 -0.508889 0.110139 0.0245293 -0.520195 
0.116494 0.0202553 -0.530787 0.122091 0.0162744 -0.540613 0.126979 0.0126475 -0.549621 
0.131234 0.00941193 -0.557763 0.134945 0.00658296 -0.565006 0.138205 0.00415566 -0.571332 
0.141098 0.00210914 -0.576746 0.143692 0.000411262 -0.581273 0.146031 -0.000976423 -0.584965 
0.148136 -0.00209422 -0.587892 0.150001 -0.00298073 -0.590141 0.151602 -0.00367031 -0.591806 
0.152904 -0.00419167 -0.592981 0.153865 -0.0045673 -0.59375 0.15445 -0.00481346 -0.594181 
0.154635 -0.00494045 -0.594315 
LINES 2 100
OFFSETS vtktypeint64
0 100 
CONNECTIVITY vtktypeint64
0 1 2 3 4 5 6 7 8 
9 10 11 12 13 14 15 16 17 
18 19 20 21 22 23 24 25 26 
27 28 29 30 31 32 33 34 35 
36 37 38 39 40 41 42 43 44 
45 46 47 48 49 50 51 52 53 
54 55 56 57 58 59 60 61 62 
63 64 65 66 67 68 69 70 71 
72 73 74 75 76 77 78 79 80 
81 82 83 84 85 86 87 88 89 
90 91 92 93 94 95 96 97 98 
99 
POINT_DATA 100
FIELD FieldData 3
_theta 1 100 double
0 0.031733259127 0.063466518254 0.095199777382 0.12693303651 0.15866629564 0.19039955476 0.22213281389 0.25386607302 
0.28559933214 0.31733259127 0.3490658504 0.38079910953 0.41253236865 0.44426562778 0.47599888691 0.50773214603 0.53946540516 
0.57119866429 0.60293192342 0.63466518254 0.66639844167 0.6981317008 0.72986495992 0.76159821905 0.79333147818 0.82506473731 
0.85679799643 0.88853125556 0.92026451469 0.95199777382 0.98373103294 1.0154642921 1.0471975512 1.0789308103 1.1106640695 
1.1423973286 1.1741305877 1.2058638468 1.237597106 1.2693303651 1.3010636242 1.3327968833 1.3645301425 1.3962634016 
1.4279966607 1.4597299198 1.491463179 1.5231964381 1.5549296972 1.5866629564 1.6183962155 1.6501294746 1.6818627337 
1.7135959929 1.745329252 1.7770625111 1.8087957702 1.8405290294 1.8722622885 1.9039955476 1.9357288068 1.9674620659 
1.999195325 2.0309285841 2.0626618433 2.0943951024 2.1261283615 2.1578616206 2.1895948798 2.2213281389 2.253061398 
2.2847946572 2.3165279163 2.3482611754 2.3799944345 2.4117276937 2.4434609528 2.4751942119 2.506927471 2.5386607302 
2.5703939893 2.6021272484 2.6338605076 2.6655937667 2.6973270258 2.7290602849 2.7607935441 2.7925268032 2.8242600623 
2.8559933214 2.8877265806 2.9194598397 2.9511930988 2.982926358 3.0146596171 3.0463928762 3.0781261353 3.1098593945 
3.1415926536 
_radius 1 100 double
6.6901877334e-16 0.01222072385 0.024534770307 0.037010092666 0.049683060307 0.062548577642 0.075555811165 0.088609930908 0.10157954968 
0.11430888428 0.12663306783 0.13839459495 0.14945870603 0.15972568886 0.16913857384 0.17768542134 0.18539620726 0.19233506328 
0.19858921074 0.20425627999 0.20943181824 0.21419866764 0.21861954942 0.22273362689 0.22655710026 0.23008715135 0.23330800423 
0.23619765485 0.23873397359 0.24089928311 0.24268297869 0.24408214885 0.24510042147 0.24574542894 0.24602539428 0.24594541531 
0.2455040729 0.24469100911 0.24348609092 0.24186066988 0.23978123516 0.23721542664 0.23413993973 0.23054937313 0.22646464881 
0.22193940786 0.21706288402 0.21195823805 0.20677613731 0.20168429231 0.1968544573 0.1924488575 0.18860802023 0.18544154637 
0.18302251738 0.18138522755 0.18052518958 0.18040023688 0.18093203179 0.18200810793 0.18348545123 0.18519727199 0.18696445432 
0.18861158576 0.18998499154 0.19096865729 0.1914945245 0.19154561774 0.19115230642 0.19038304127 0.18933132188 0.18810080858 
0.18679054506 0.18548215388 0.18423046578 0.18305826149 0.18195476261 0.18087661418 0.17974989711 0.17847243688 0.17691692045 
0.17493620853 0.17237205934 0.16906732605 0.16488022857 0.15969826624 0.15344912427 0.14610651738 0.13769002737 0.12825925548 
0.11790370213 0.10673049955 0.094852374142 0.082378007367 0.069406349237 0.056025497445 0.042315602864 0.028354096447 0.014220727296 
1.3265863272e-15 
_area 1 100 double
0 0.00042143660499 0.001697957029 0.0038623928995 0.0069577530531 0.011022584285 0.016075117221 0.0220989016 0.029032144786 
0.036762661239 0.045130018205 0.053935595525 0.062959687216 0.071982949813 0.080808246797 0.089278804164 0.097289643123 0.10479109839 
0.11178509491 0.11831580427 0.1244558956 0.13028887065 0.1358892661 0.14130633863 0.14655853522 0.15164028685 0.15653324574 
0.16121080531 0.16563061756 0.16972029154 0.17337055205 0.17644862988 0.17882835869 0.18042010211 0.18118732448 0.18114671944 
0.18035472324 0.17888548954 0.17680673901 0.17416058589 0.17095517471 0.16716956541 0.16277051237 0.15773692916 0.15208557645 
0.14588997675 0.13928584222 0.13246139266 0.12563679612 0.1190388581 0.11287443454 0.10730468303 0.10242580846 0.098264905577 
0.094794847268 0.091959683003 0.089695954614 0.087946939303 0.086706115573 0.086033733955 0.085879337501 0.086177220715 0.086753418272 
0.087435331776 0.088055898625 0.088442213368 0.088434807766 0.087919607577 0.086853656775 0.085276711509 0.083308372437 0.081133745519 
0.0789803673 0.077086056481 0.075656845481 0.074824747697 0.074624528731 0.074992782198 0.075776415258 0.076744877974 0.077609378931 
0.078051593619 0.077760130482 0.076469794417 0.073996997678 0.07026457609 0.065311525992 0.059287172537 0.05243271801 0.045054458242 
0.037492558564 0.030088442484 0.023153568935 0.016942797011 0.011636052667 0.0073318070417 0.0040544258648 0.0017746756573 0.00043901579915 
4.2615919989e-17 
