# vtk DataFile Version 5.1
vtk output
ASCII
DATASET POLYDATA
POINTS 100 float
0.0482123 -0.00604402 0.654624 0.0482243 -0.00579711 0.654443 0.0483546 -0.00519391 0.653805 
0.0485634 -0.00425362 0.65275 0.0487908 -0.00300574 0.651335 0.0489655 -0.00148767 0.64962 
0.0490152 0.00025803 0.64766 0.0488774 0.00218653 0.645484 0.0485079 0.00425324 0.643089 
0.0478863 0.00641571 0.640429 0.0470171 0.00863464 0.637415 0.045927 0.010874 0.633916 
0.0446575 0.0131003 0.629773 0.0432552 0.015281 0.624812 0.0417604 0.017383 0.618864 
0.0401961 0.0193708 0.611783 0.0385594 0.0212056 0.603466 0.036817 0.0228446 0.593865 
0.0349041 0.0242421 0.582998 0.0327301 0.0253513 0.570951 0.0301873 0.0261276 0.557873 
0.0271637 0.026532 0.543962 0.0235571 0.0265363 0.529451 0.0192888 0.0261267 0.514584 
0.0143153 0.0253079 0.499598 0.00863478 0.0241059 0.484699 0.00228952 0.0225687 0.470045 
-0.00463843 0.0207654 0.455738 -0.0120365 0.0187845 0.441814 -0.019775 0.0167283 0.428247 
-0.027723 0.0147078 0.414954 -0.0357643 0.0128357 0.401807 -0.0438104 0.0112193 0.388652 
-0.0518105 0.00995358 0.375319 -0.0597545 0.00911559 0.361642 -0.0676702 0.00876003 0.347472 
-0.0756136 0.00891688 0.332682 -0.0836549 0.00959102 0.317178 -0.0918604 0.0107639 0.300895 
-0.100274 0.012397 0.283798 -0.108901 0.0144364 0.265876 -0.117696 0.0168188 0.247134 
-0.126554 0.0194768 0.227589 -0.135315 0.0223448 0.207265 -0.143773 0.0253631 0.186188 
-0.151689 0.0284816 0.16439 -0.158812 0.0316615 0.141909 -0.164907 0.0348754 0.118794 
-0.169771 0.0381066 0.0951052 -0.173259 0.041347 0.0709246 -0.175297 0.0445941 0.0463532 
-0.175884 0.0478483 0.0215126 -0.175098 0.0511095 -0.00345886 -0.173084 0.0543752 -0.0284123 
-0.170034 0.0576384 -0.0531977 -0.166173 0.0608869 -0.0776742 -0.161728 0.0641032 -0.101721 
-0.156914 0.0672652 -0.125247 -0.151906 0.0703476 -0.1482 -0.146836 0.0733229 -0.170565 
-0.141776 0.076163 -0.192371 -0.136747 0.0788407 -0.213679 -0.131722 0.0813302 -0.234578 
-0.126643 0.0836072 -0.25517 -0.121434 0.0856492 -0.275559 -0.116019 0.0874347 -0.295835 
-0.110338 0.0889425 -0.316066 -0.104356 0.0901513 -0.336287 -0.0980743 0.0910388 -0.356496 
-0.0915234 0.0915822 -0.376653 -0.0847633 0.0917586 -0.39669 -0.0778713 0.0915458 -0.416511 
-0.07093 0.0909248 -0.436009 -0.0640148 0.0898808 -0.455073 -0.0571832 0.0884064 -0.473601 
-0.0504671 0.0865034 -0.491508 -0.0438714 0.0841845 -0.508729 -0.0373763 0.0814749 -0.525225 
-0.0309464 0.0784125 -0.540978 -0.0245422 0.0750479 -0.555985 -0.0181338 0.0714424 -0.570253 
-0.0117142 0.0676663 -0.583789 -0.00530995 0.063796 -0.596593 0.00101317 0.0599098 -0.608653 
0.00715041 0.0560853 -0.619941 0.0129648 0.0523948 -0.630415 0.0182997 0.0489025 -0.640022 
0.0229963 0.0456617 -0.648707 0.0269131 0.0427127 -0.656421 0.029945 0.040082 -0.66313 
0.0320404 0.0377821 -0.668824 0.0332112 0.0358123 -0.673523 0.0335372 0.0341605 -0.67728 
0.0331614 0.0328053 -0.680176 0.0322777 0.0317194 -0.68232 0.0311118 0.0308721 -0.683835 
0.0298974 0.0302327 -0.684847 0.0288512 0.0297738 -0.685471 0.0281481 0.0294734 -0.685801 
0.0279021 0.0293176 -0.685898 
LINES 2 100
OFFSETS vtktypeint64
0 100 
CONNECTIVITY vtktypeint64
0 1 2 3 4 5 6 7 8 
9 10 11 12 13 14 15 16 17 
18 19 20 21 22 23 24 25 26 
27 28 29 30 31 32 33 34 35 
36 37 38 39 40 41 42 43 44 
45 46 47 48 49 50 51 52 53 
54 55 56 57 58 59 60 61 62 
63 64 65 66 67 68 69 70 71 
72 73 74 75 76 77 78 79 80 
81 82 83 84 85 86 87 88 89 
90 91 92 93 94 95 96 97 98 
99 
POINT_DATA 100
FIELD FieldData 3
_theta 1 100 double
0 0.031733259127 0.063466518254 0.095199777382 0.12693303651 0.15866629564 0.19039955476 0.22213281389 0.25386607302 
0.28559933214 0.31733259127 0.3490658504 0.38079910953 0.41253236865 0.44426562778 0.47599888691 0.50773214603 0.53946540516 
0.57119866429 0.60293192342 0.63466518254 0.66639844167 0.6981317008 0.72986495992 0.76159821905 0.79333147818 0.82506473731 
0.85679799643 0.88853125556 0.92026451469 0.95199777382 0.98373103294 1.0154642921 1.0471975512 1.0789308103 1.1106640695 
1.1423973286 1.1741305877 1.2058638468 1.237597106 1.2693303651 1.3010636242 1.3327968833 1.3645301425 1.3962634016 
1.4279966607 1.4597299198 1.491463179 1.5231964381 1.5549296972 1.5866629564 1.6183962155 1.6501294746 1.6818627337 
1.7135959929 1.745329252 1.7770625111 1.8087957702 1.8405290294 1.8722622885 1.9039955476 1.9357288068 1.9674620659 
1.999195325 2.0309285841 2.0626618433 2.0943951024 2.1261283615 2.1578616206 2.1895948798 2.2213281389 2.253061398 
2.2847946572 2.3165279163 2.3482611754 2.3799944345 2.4117276937 2.4434609528 2.4751942119 2.506927471 2.5386607302 
2.5703939893 2.6021272484 2.6338605076 2.6655937667 2.6973270258 2.7290602849 2.7607935441 2.7925268032 2.8242600623 
2.8559933214 2.8877265806 2.9194598397 2.9511930988 2.982926358 3.0146596171 3.0463928762 3.0781261353 3.1098593945 
3.1415926536 
_radius 1 100 double
6.6630602255e-16 0.015336659522 0.030571038187 0.045598596346 0.060319741801 0.07464068036 0.088472995465 0.10173273022 0.11433999073 
0.12621988596 0.13730509267 0.14753973427 0.1568838205 0.16531732984 0.17284312134 0.17948814436 0.18530273801 0.19035803858 
0.19474156646 0.1985510262 0.20188645548 0.20484128981 0.2074935814 0.20989915712 0.21208848269 0.21406815524 0.21582648696 
0.21734127511 0.21858727011 0.21954123445 0.2201835277 0.22049638784 0.22046012771 0.22004911526 0.21922957106 0.21796083713 
0.21620083602 0.21391513178 0.21108774962 0.20773119895 0.20389324212 0.19965877047 0.19514633257 0.1904999779 0.18587783052 
0.18143914382 0.17733167912 0.17368121131 0.17058461572 0.16810715105 0.16628350474 0.16512138406 0.16460595705 0.16470309943 
0.16535959141 0.16650003859 0.16802323222 0.16980255088 0.17169334049 0.17354605977 0.17522104644 0.17660083589 0.1775978884 
0.17815760717 0.17825779036 0.17790604375 0.17713637404 0.17600548267 0.17458859036 0.17297431319 0.17125829042 0.16953574989 
0.16789368457 0.16640353872 0.16511516524 0.16405243303 0.1632104828 0.1625544202 0.16201920085 0.16151056088 0.16090710479 
0.16006403424 0.15881922452 0.1570021053 0.15444502308 0.1509957873 0.14652942501 0.14095711737 0.13423087632 0.1263435017 
0.11732441432 0.1072327946 0.096149859733 0.084171997058 0.071405894972 0.057965979883 0.043973665176 0.02955741225 0.014852533362 
3.9333343011e-16 
_area 1 100 double
0 0.00048793012905 0.0019440356068 0.0043468336258 0.0076639775175 0.011852839491 0.016856439455 0.022595806966 0.028962327633 
0.035813792106 0.042976549651 0.050254625986 0.057445312883 0.064359303119 0.070841909846 0.076791025329 0.082168050511 0.086999835403 
0.091371300156 0.095408234839 0.09924814828 0.10300072178 0.1067164163 0.11038848926 0.11398336511 0.1174719251 0.12084126377 
0.1240839479 0.12719429727 0.13020562493 0.13323509494 0.13642545672 0.13977087103 0.14304397318 0.1458652137 0.14780661115 
0.14850567448 0.1477315974 0.14540101553 0.14157269067 0.13643653917 0.13029608381 0.12353371195 0.11655961808 0.10975623351 
0.10343255396 0.097801470171 0.092984138495 0.089026449956 0.085901659977 0.083506131201 0.081693518164 0.080336955202 0.079366906951 
0.078769538111 0.078547453049 0.078659119751 0.078982946847 0.079339131247 0.079546012761 0.079472411598 0.07906470027 0.078340510618 
0.077356064388 0.076166293048 0.074799268202 0.073256829639 0.071536844695 0.069660987781 0.067692175315 0.065733917019 0.063912416851 
0.062345586439 0.06116445835 0.06035071367 0.059893098918 0.059773233178 0.059980365503 0.06050297078 0.061224473282 0.062005691885 
0.062664421021 0.062979917384 0.062722129602 0.061685483287 0.059719201167 0.056749616869 0.052791679141 0.047948612249 0.042400537623 
0.0363844677 0.030169232992 0.024029471203 0.018222714808 0.012972788379 0.0084611544179 0.0048257728739 0.0021651357321 0.00054426520985 
3.0629759578e-17 
