# vtk DataFile Version 5.1
vtk output
ASCII
DATASET POLYDATA
POINTS 100 float
0.101729 -0.0192716 -0.600966 0.102005 -0.0192478 -0.601089 0.102827 -0.019019 -0.601448 
0.104085 -0.018599 -0.601942 0.105615 -0.0180069 -0.602412 0.10721 -0.0172626 -0.602662 
0.108648 -0.0163823 -0.602474 0.109715 -0.0153731 -0.601632 0.110227 -0.01423 -0.599946 
0.110046 -0.0129338 -0.597261 0.109094 -0.0114522 -0.593478 0.107351 -0.00974209 -0.588555 
0.104856 -0.00775538 -0.582505 0.101687 -0.00544507 -0.575393 0.0979517 -0.00277259 -0.567323 
0.0937649 0.000285491 -0.558418 0.0892301 0.00373208 -0.548809 0.0844263 0.00754648 -0.538617 
0.0793981 0.011684 -0.527936 0.0741534 0.0160785 -0.516831 0.0686681 0.0206475 -0.505326 
0.0628966 0.0252992 -0.493415 0.0567863 0.0299408 -0.481059 0.0502943 0.0344866 -0.4682 
0.043403 0.038865 -0.454773 0.036132 0.0430233 -0.440717 0.0285443 0.04693 -0.425985 
0.0207461 0.0505739 -0.410554 0.0128791 0.0539607 -0.394424 0.00510667 0.0571071 -0.377625 
-0.00240354 0.0600336 -0.360206 -0.00949983 0.0627574 -0.342231 -0.0160648 0.065286 -0.323769 
-0.0220299 0.0676128 -0.304888 -0.0273839 0.0697154 -0.285639 -0.0321735 0.0715567 -0.266058 
-0.0364958 0.0730892 -0.246156 -0.0404834 0.0742608 -0.225926 -0.0442838 0.0750233 -0.205342 
-0.0480361 0.0753392 -0.184372 -0.0518477 0.0751893 -0.162981 -0.0557743 0.0745771 -0.141145 
-0.0598068 0.0735305 -0.11886 -0.0638651 0.0721006 -0.096148 -0.0678025 0.0703571 -0.07306 
-0.0714182 0.0683809 -0.0496788 -0.0744774 0.0662559 -0.0261142 -0.0767368 0.0640591 -0.00249701 
-0.0779719 0.0618533 0.0210303 -0.0780021 0.0596807 0.0443235 -0.0767128 0.0575603 0.0672472 
-0.0740678 0.0554885 0.0896838 -0.0701149 0.0534439 0.11154 -0.0649807 0.0513942 0.132753 
-0.058857 0.0493059 0.153287 -0.05198 0.0471543 0.173136 -0.0446058 0.0449326 0.192316 
-0.0369846 0.042659 0.210858 -0.0293367 0.0403797 0.228805 -0.0218342 0.0381685 0.246202 
-0.0145899 0.0361221 0.263092 -0.00765374 0.0343505 0.27951 -0.00101868 0.0329663 0.295487 
0.00536722 0.0320713 0.311046 0.0115832 0.0317438 0.326207 0.0177158 0.0320286 0.34099 
0.0238394 0.0329295 0.355415 0.0300003 0.034407 0.369513 0.0362056 0.0363808 0.38332 
0.0424191 0.0387371 0.396879 0.0485643 0.0413401 0.410241 0.0545341 0.0440459 0.423456 
0.0602042 0.046717 0.436571 0.0654504 0.0492365 0.449624 0.0701648 0.0515191 0.462636 
0.0742707 0.0535176 0.475608 0.0777318 0.0552256 0.48852 0.0805568 0.0566736 0.501325 
0.0827969 0.0579216 0.513957 0.084538 0.0590473 0.526332 0.0858885 0.0601332 0.538352 
0.0869639 0.0612527 0.549917 0.0878722 0.0624589 0.560932 0.0887 0.0637756 0.57131 
0.0895036 0.0651942 0.580981 0.0903044 0.0666743 0.589898 0.09109 0.0681495 0.598033 
0.0918214 0.0695377 0.605384 0.0924425 0.0707526 0.611964 0.0928939 0.0717175 0.617802 
0.0931256 0.0723767 0.62294 0.0931085 0.0727048 0.627421 0.0928418 0.0727115 0.631289 
0.0923565 0.0724421 0.634585 0.0917128 0.071972 0.637341 0.0909931 0.071398 0.639583 
0.0902911 0.070826 0.64133 0.0896993 0.0703571 0.642594 0.0892952 0.0700744 0.64338 
0.0891311 0.0700323 0.643692 
LINES 2 100
OFFSETS vtktypeint64
0 100 
CONNECTIVITY vtktypeint64
0 1 2 3 4 5 6 7 8 
9 10 11 12 13 14 15 16 17 
18 19 20 21 22 23 24 25 26 
27 28 29 30 31 32 33 34 35 
36 37 38 39 40 41 42 43 44 
45 46 47 48 49 50 51 52 53 
54 55 56 57 58 59 60 61 62 
63 64 65 66 67 68 69 70 71 
72 73 74 75 76 77 78 79 80 
81 82 83 84 85 86 87 88 89 
90 91 92 93 94 95 96 97 98 
99 
POINT_DATA 100
FIELD FieldData 3
_theta 1 100 double
0 0.031733259127 0.063466518254 0.095199777382 0.12693303651 0.15866629564 0.19039955476 0.22213281389 0.25386607302 
0.28559933214 0.31733259127 0.3490658504 0.38079910953 0.41253236865 0.44426562778 0.47599888691 0.50773214603 0.53946540516 
0.57119866429 0.60293192342 0.63466518254 0.66639844167 0.6981317008 0.72986495992 0.76159821905 0.79333147818 0.82506473731 
0.85679799643 0.88853125556 0.92026451469 0.95199777382 0.98373103294 1.0154642921 1.0471975512 1.0789308103 1.1106640695 
1.1423973286 1.1741305877 1.2058638468 1.237597106 1.2693303651 1.3010636242 1.3327968833 1.3645301425 1.3962634016 
1.4279966607 1.4597299198 1.491463179 1.5231964381 1.5549296972 1.5866629564 1.6183962155 1.6501294746 1.6818627337 
1.7135959929 1.745329252 1.7770625111 1.8087957702 1.8405290294 1.8722622885 1.9039955476 1.9357288068 1.9674620659 
1.999195325 2.0309285841 2.0626618433 2.0943951024 2.1261283615 2.1578616206 2.1895948798 2.2213281389 2.253061398 
2.2847946572 2.3165279163 2.3482611754 2.3799944345 2.4117276937 2.4434609528 2.4751942119 2.506927471 2.5386607302 
2.5703939893 2.6021272484 2.6338605076 2.6655937667 2.6973270258 2.7290602849 2.7607935441 2.7925268032 2.8242600623 
2.8559933214 2.8877265806 2.9194598397 2.9511930988 2.982926358 3.0146596171 3.0463928762 3.0781261353 3.1098593945 
3.1415926536 
_radius 1 100 double
6.6844277773e-16 0.01418525908 0.02829608751 0.042249337173 0.055956325068 0.069323753484 0.082256936522 0.094664321725 0.1064620187 
0.11757730998 0.12795068773 0.13753653422 0.14630292547 0.15423110865 0.16131503099 0.16756100553 0.17298733184 0.17762356121 
0.18150915748 0.1846915219 0.18722361946 0.18916163532 0.19056311439 0.19148588986 0.19198785311 0.19212734746 0.19196375035 
0.19155769873 0.19097045449 0.19026212531 0.18948882191 0.18869923581 0.18793138868 0.187210278 0.18654682123 0.18593809258 
0.18536866264 0.18481304441 0.18423967039 0.18361707051 0.18292248557 0.18215183299 0.18132842276 0.18050736459 0.17977372754 
0.17923454366 0.17900665243 0.17920338415 0.17992283237 0.18123920198 0.18319717835 0.185808267 0.18904803931 0.19285401822 
0.19712494417 0.20172274587 0.20647840061 0.21120211066 0.2156971897 0.21977611677 0.22327664009 0.22607569406 0.22809917188 
0.22932614883 0.22978687509 0.22955468879 0.22873289462 0.22743852723 0.22578558552 0.2238705011 0.2217620717 0.21949693558 
0.21708032522 0.21449083741 0.21168754786 0.20861791257 0.20522530686 0.20145552997 0.19726197589 0.19260934071 0.18747572374 
0.1818529188 0.1757447519 0.1691635756 0.16212541228 0.15464458832 0.14672887924 0.13837613728 0.12957313056 0.12029695209 
0.11051891834 0.10021043165 0.089349910292 0.07792969019 0.065961834149 0.053482028134 0.040551097788 0.0272540218 0.013696583715 
8.9730542148e-16 
_area 1 100 double
0 0.00048690188106 0.0019518679179 0.0044020598626 0.0078332400572 0.012213016593 0.017468209413 0.023480307684 0.030089414656 
0.037104439337 0.044316356269 0.051511785605 0.058485131017 0.065048389203 0.071038353434 0.076321469856 0.08079713884 0.084400503284 
0.087105393348 0.088927124755 0.089923740417 0.090193688391 0.089868282295 0.089098586395 0.088038322888 0.086826686291 0.085576598429 
0.084372773496 0.083278798057 0.082346429868 0.081619108765 0.081126981456 0.080878196984 0.080854707427 0.08101780006 0.08132151088 
0.081726474778 0.082206592 0.082745918091 0.083330638023 0.083945173577 0.08457929524 0.085244260787 0.08598488341 0.086873688042 
0.08798571765 0.089369600201 0.091037442973 0.092982751802 0.095215689931 0.097795143643 0.10083440014 0.10445135236 0.1087052246 
0.11358605949 0.11902042219 0.12486796109 0.13091751461 0.13689086823 0.14246064433 0.14728543355 0.15105835531 0.15355838 
0.15469039153 0.15450068005 0.15315948626 0.15091487606 0.14803907436 0.14478648189 0.1413640984 0.13791144777 0.13449264981 
0.13110252318 0.12768444815 0.12415417264 0.12042243945 0.11641125653 0.11206265604 0.10734231554 0.10224123565 0.096776636867 
0.090990710997 0.084945331953 0.078712602456 0.072363571092 0.065958745188 0.059543396381 0.053148785718 0.046798603536 0.040518780497 
0.0343482019 0.028347582139 0.02260407552 0.017230252743 0.012357534021 0.008125504422 0.0046693239047 0.0021075089434 0.00053180388495 
2.168404345e-17 
