# vtk DataFile Version 5.1
vtk output
ASCII
DATASET POLYDATA
POINTS 100 float
-0.0026962 0.00638172 -0.653973 -0.00266854 0.00675988 -0.6539 -0.00260092 0.00765447 -0.653669 
-0.00247472 0.00902824 -0.653203 -0.00226323 0.0108244 -0.652387 -0.00193803 0.0129727 -0.651076 
-0.00147672 0.0153974 -0.649116 -0.000871037 0.0180248 -0.646361 -0.000134018 0.0207907 -0.642687 
0.00069459 0.0236455 -0.638006 0.00154572 0.0265578 -0.632276 0.00232171 0.0295146 -0.625497 
0.00290044 0.0325188 -0.617711 0.00314291 0.0355849 -0.608993 0.00290334 0.0387328 -0.599434 
0.00204113 0.041981 -0.589128 0.000433268 0.0453395 -0.57816 -0.00201398 0.0488053 -0.566589 
-0.00535535 0.0523585 -0.554446 -0.0096001 0.0559617 -0.541724 -0.0147092 0.0595617 -0.52839 
-0.0205973 0.0630929 -0.514387 -0.0271379 0.0664839 -0.499644 -0.034174 0.0696629 -0.484094 
-0.0415294 0.0725651 -0.467688 -0.0490235 0.0751376 -0.4504 -0.0564855 0.0773437 -0.432242 
-0.0637667 0.0791647 -0.41326 -0.0707518 0.080599 -0.393538 -0.0773647 0.08166 -0.373182 
-0.0835715 0.0823717 -0.352316 -0.089378 0.0827634 -0.331062 -0.0948233 0.0828648 -0.309529 
-0.0999693 0.0827012 -0.287797 -0.104888 0.0822905 -0.265912 -0.109649 0.0816421 -0.243877 
-0.114305 0.0807573 -0.221658 -0.118878 0.0796321 -0.19919 -0.123356 0.0782608 -0.176389 
-0.127684 0.0766407 -0.153168 -0.131768 0.0747761 -0.129452 -0.135477 0.072682 -0.105197 
-0.138654 0.0703856 -0.0803995 -0.141127 0.0679266 -0.0551044 -0.142724 0.0653545 -0.0294088 
-0.14329 0.0627249 -0.00345614 -0.142699 0.0600942 0.0225744 -0.140866 0.0575141 0.0484822 
-0.137757 0.0550256 0.0740633 -0.133389 0.0526557 0.0991282 -0.127838 0.0504151 0.123519 
-0.121222 0.0482981 0.147121 -0.113704 0.0462859 0.169874 -0.105469 0.0443515 0.191769 
-0.0967191 0.0424661 0.212849 -0.0876527 0.0406066 0.233194 -0.0784544 0.0387627 0.252916 
-0.0692819 0.0369422 0.272133 -0.0602588 0.0351745 0.290962 -0.0514687 0.0335109 0.309501 
-0.0429554 0.0320219 0.327817 -0.0347249 0.0307914 0.345946 -0.0267517 0.0299084 0.363886 
-0.0189872 0.0294578 0.381606 -0.0113688 0.0295099 0.399052 -0.00383002 0.0301119 0.416157 
0.00369064 0.0312807 0.432853 0.0112422 0.0329991 0.449085 0.0188561 0.0352156 0.464815 
0.0265432 0.0378474 0.480031 0.0342937 0.0407874 0.494748 0.0420789 0.0439131 0.509001 
0.0498552 0.0470976 0.522845 0.0575686 0.0502204 0.536341 0.0651601 0.0531769 0.549548 
0.0725704 0.0558866 0.562514 0.0797448 0.0582976 0.575267 0.0866357 0.0603875 0.587808 
0.0932047 0.0621618 0.600113 0.099423 0.0636484 0.612131 0.105271 0.0648907 0.62379 
0.110736 0.0659391 0.635004 0.115812 0.0668428 0.645682 0.120498 0.067643 0.65574 
0.124792 0.0683681 0.665102 0.128696 0.0690309 0.673714 0.132213 0.0696294 0.681543 
0.135347 0.0701498 0.688579 0.138104 0.0705713 0.694834 0.140495 0.0708717 0.70034 
0.142533 0.0710341 0.705138 0.144237 0.0710511 0.709277 0.145632 0.0709286 0.712809 
0.146747 0.070687 0.715779 0.147615 0.0703594 0.718228 0.14827 0.0699886 0.720185 
0.148744 0.0696213 0.721674 0.149066 0.0693025 0.722709 0.149259 0.0690693 0.723301 
0.149338 0.0689459 0.723453 
LINES 2 100
OFFSETS vtktypeint64
0 100 
CONNECTIVITY vtktypeint64
0 1 2 3 4 5 6 7 8 
9 10 11 12 13 14 15 16 17 
18 19 20 21 22 23 24 25 26 
27 28 29 30 31 32 33 34 35 
36 37 38 39 40 41 42 43 44 
45 46 47 48 49 50 51 52 53 
54 55 56 57 58 59 60 61 62 
63 64 65 66 67 68 69 70 71 
72 73 74 75 76 77 78 79 80 
81 82 83 84 85 86 87 88 89 
90 91 92 93 94 95 96 97 98 
99 
POINT_DATA 100
FIELD FieldData 3
_theta 1 100 double
0 0.031733259127 0.063466518254 0.095199777382 0.12693303651 0.15866629564 0.19039955476 0.22213281389 0.25386607302 
0.28559933214 0.31733259127 0.3490658504 0.38079910953 0.41253236865 0.44426562778 0.47599888691 0.50773214603 0.53946540516 
0.57119866429 0.60293192342 0.63466518254 0.66639844167 0.6981317008 0.72986495992 0.76159821905 0.79333147818 0.82506473731 
0.85679799643 0.88853125556 0.92026451469 0.95199777382 0.98373103294 1.0154642921 1.0471975512 1.0789308103 1.1106640695 
1.1423973286 1.1741305877 1.2058638468 1.237597106 1.2693303651 1.3010636242 1.3327968833 1.3645301425 1.3962634016 
1.4279966607 1.4597299198 1.491463179 1.5231964381 1.5549296972 1.5866629564 1.6183962155 1.6501294746 1.6818627337 
1.7135959929 1.745329252 1.7770625111 1.8087957702 1.8405290294 1.8722622885 1.9039955476 1.9357288068 1.9674620659 
1.999195325 2.0309285841 2.0626618433 2.0943951024 2.1261283615 2.1578616206 2.1895948798 2.2213281389 2.253061398 
2.2847946572 2.3165279163 2.3482611754 2.3799944345 2.4117276937 2.4434609528 2.4751942119 2.506927471 2.5386607302 
2.5703939893 2.6021272484 2.6338605076 2.6655937667 2.6973270258 2.7290602849 2.7607935441 2.7925268032 2.8242600623 
2.8559933214 2.8877265806 2.9194598397 2.9511930988 2.982926358 3.0146596171 3.0463928762 3.0781261353 3.1098593945 
3.1415926536 
_radius 1 100 double
6.6613889695e-16 0.014980777663 0.029824651601 0.044410321465 0.058632816505 0.072407345439 0.085669429456 0.098371724643 0.11047865849 
0.12196028771 0.13278665115 0.1429235567 0.1523304103 0.16096042724 0.16876331579 0.17569024461 0.18170059937 0.18676972726 
0.19089660331 0.19411018932 0.19647327507 0.19808285518 0.19906659209 0.19957551863 0.19977364851 0.19982546007 0.19988233203 
0.20006908455 0.20047190409 0.20112907222 0.20202597895 0.20309577428 0.20422657951 0.20527535379 0.20608735754 0.20651894376 
0.20646048852 0.20585589623 0.20471537659 0.20311908317 0.20121068451 0.19918187859 0.19725086532 0.1956391133 0.19455060062 
0.19415589314 0.19458084839 0.19589805449 0.19811957604 0.20119183386 0.20499554995 0.20935365711 0.21404767762 0.21884005156 
0.22349821402 0.22781643366 0.23163272137 0.2348394803 0.23738754542 0.23928392195 0.24058405027 0.24137984436 0.24178501264 
0.24191925024 0.24189285849 0.24179329785 0.24167512499 0.24155457113 0.24140949385 0.24118452896 0.24080022248 0.24016416694 
0.23918203756 0.2377669042 0.23584594535 0.23336431008 0.23028620838 0.22659348704 0.22228215636 0.21735758748 0.211829275 
0.20570605384 0.19899249072 0.19168692977 0.18378142897 0.17526358666 0.16611998573 0.15634066539 0.14592373605 0.13487912716 
0.12323062808 0.11101584572 0.09828429545 0.085094324614 0.071509760493 0.057597045217 0.043423278037 0.029055204796 0.014558925492 
3.1549497465e-16 
_area 1 100 double
0 0.00064454782568 0.0025478244702 0.0056253663199 0.0097561803886 0.01480460904 0.020637528373 0.027130101434 0.034160101964 
0.041596641705 0.049289226336 0.057060319797 0.064703206404 0.071986720207 0.078667772763 0.084511174768 0.089314430779 0.092933481513 
0.095304186352 0.096454039367 0.096499526828 0.095627331685 0.094063675882 0.092043944761 0.089794801759 0.087529744137 0.085450849141 
0.083752692017 0.082647148451 0.082576255751 0.083673257703 0.08567067676 0.088057794552 0.09050960253 0.09272981447 0.094467516125 
0.095546896142 0.095895456531 0.09556014294 0.094704438202 0.093583548096 0.092498887312 0.091739061772 0.091526114295 0.091992612052 
0.093196577871 0.095154318329 0.097871700021 0.10135902239 0.1056155858 0.11059471718 0.11617700975 0.12216649243 0.12830642857 
0.13430700236 0.13988077127 0.14478189179 0.14884066861 0.15198319628 0.15423001981 0.15567536405 0.15645551713 0.1567176064 
0.15659674151 0.15620295192 0.15561496767 0.15487878182 0.15401134819 0.15300828133 0.15185141771 0.15051262478 0.1489528341 
0.14711774807 0.14493546042 0.14232344828 0.13920582061 0.13553090412 0.13127840674 0.12645479553 0.12108345902 0.11519694428 
0.10883432137 0.10204194536 0.094873854662 0.087389502119 0.079649818793 0.071715331178 0.06365017219 0.055532373339 0.047465396998 
0.039583123572 0.032043746162 0.02501454339 0.018653842696 0.013096471667 0.0084461735357 0.0047751933534 0.0021289833836 0.00053314146649 
1.5612511284e-17 
