# vtk DataFile Version 5.1
vtk output
ASCII
DATASET POLYDATA
POINTS 100 float
0.101724 0.048847 0.650564 0.101932 0.0490161 0.650455 0.102586 0.0493871 0.649953 
0.103602 0.049938 0.64904 0.104852 0.0506347 0.647688 0.106178 0.0514333 0.645856 
0.10741 0.0522839 0.643493 0.108385 0.0531337 0.640543 0.108964 0.0539307 0.636942 
0.109047 0.0546262 0.632626 0.108579 0.0551776 0.627536 0.107553 0.0555491 0.621619 
0.106006 0.0557125 0.614838 0.10401 0.0556468 0.607172 0.101656 0.0553375 0.598625 
0.0990386 0.0547751 0.589225 0.0962411 0.0539543 0.579025 0.0933218 0.052873 0.568103 
0.0903045 0.051532 0.556557 0.087175 0.0499356 0.5445 0.083883 0.0480923 0.532051 
0.0803495 0.0460161 0.519329 0.0764784 0.0437287 0.506443 0.0721707 0.0412603 0.493487 
0.0673392 0.0386515 0.480528 0.0619218 0.0359532 0.467609 0.0558908 0.0332261 0.454744 
0.0492579 0.0305394 0.441917 0.0420741 0.027968 0.429088 0.0344241 0.0255891 0.416198 
0.0264161 0.0234776 0.403176 0.0181694 0.0217025 0.389943 0.00980065 0.0203222 0.376425 
0.00141139 0.0193813 0.362553 -0.00692179 0.0189081 0.34827 -0.0151525 0.0189132 0.333535 
-0.0232648 0.0193896 0.318319 -0.0312683 0.0203146 0.302608 -0.039189 0.0216517 0.286397 
-0.0470571 0.0233545 0.269687 -0.0548927 0.0253705 0.252482 -0.0626938 0.027645 0.234785 
-0.0704258 0.0301246 0.216596 -0.0780154 0.0327602 0.197912 -0.0853504 0.0355091 0.178729 
-0.0922844 0.0383355 0.159042 -0.0986475 0.0412111 0.138852 -0.10426 0.0441138 0.118167 
-0.108948 0.0470266 0.0970098 -0.112562 0.0499356 0.0754181 -0.114992 0.0528288 0.0534472 
-0.116174 0.0556943 0.0311699 -0.116101 0.0585194 0.0086741 -0.114822 0.0612901 -0.0139415 
-0.112435 0.0639914 -0.0365733 -0.109078 0.066607 -0.059119 -0.104913 0.0691207 -0.0814848 
-0.100109 0.0715164 -0.103591 -0.0948303 0.0737784 -0.125378 -0.0892158 0.0758919 -0.146806 
-0.0833734 0.0778421 -0.167857 -0.0773717 0.0796137 -0.188535 -0.0712401 0.0811895 -0.208857 
-0.0649731 0.0825494 -0.228848 -0.0585387 0.0836696 -0.248539 -0.0518905 0.0845214 -0.267954 
-0.0449794 0.085072 -0.287107 -0.0377667 0.0852851 -0.305998 -0.0302338 0.0851227 -0.324609 
-0.0223896 0.0845474 -0.342904 -0.0142733 0.0835259 -0.360834 -0.00595359 0.0820325 -0.378335 
0.002476 0.0800517 -0.395341 0.0109045 0.0775819 -0.411783 0.0192128 0.0746369 -0.427599 
0.0272827 0.0712465 -0.44274 0.0350059 0.0674565 -0.457168 0.0422906 0.0633268 -0.470865 
0.0490655 0.058928 -0.483827 0.0552817 0.0543379 -0.496064 0.0609107 0.0496367 -0.5076 
0.0659423 0.0449029 -0.518462 0.0703795 0.0402088 -0.528679 0.0742342 0.0356176 -0.53828 
0.0775233 0.0311808 -0.547287 0.0802657 0.0269377 -0.555714 0.0824814 0.0229156 -0.563566 
0.084192 0.0191315 -0.570841 0.0854226 0.0155943 -0.577534 0.086205 0.0123084 -0.583633 
0.0865798 0.00927577 -0.589129 0.0865994 0.00649957 -0.594015 0.0863285 0.00398554 -0.598289 
0.0858428 0.00174337 -0.601955 0.0852263 -0.000213285 -0.605023 0.0845664 -0.00186761 -0.607506 
0.0839478 -0.00320122 -0.609421 0.0834455 -0.00419622 -0.610783 0.0831186 -0.0048373 -0.611605 
0.0830044 -0.00511365 -0.611894 
LINES 2 100
OFFSETS vtktypeint64
0 100 
CONNECTIVITY vtktypeint64
0 1 2 3 4 5 6 7 8 
9 10 11 12 13 14 15 16 17 
18 19 20 21 22 23 24 25 26 
27 28 29 30 31 32 33 34 35 
36 37 38 39 40 41 42 43 44 
45 46 47 48 49 50 51 52 53 
54 55 56 57 58 59 60 61 62 
63 64 65 66 67 68 69 70 71 
72 73 74 75 76 77 78 79 80 
81 82 83 84 85 86 87 88 89 
90 91 92 93 94 95 96 97 98 
99 
POINT_DATA 100
FIELD FieldData 3
_theta 1 100 double
0 0.031733259127 0.063466518254 0.095199777382 0.12693303651 0.15866629564 0.19039955476 0.22213281389 0.25386607302 
0.28559933214 0.31733259127 0.3490658504 0.38079910953 0.41253236865 0.44426562778 0.47599888691 0.50773214603 0.53946540516 
0.57119866429 0.60293192342 0.63466518254 0.66639844167 0.6981317008 0.72986495992 0.76159821905 0.79333147818 0.82506473731 
0.85679799643 0.88853125556 0.92026451469 0.95199777382 0.98373103294 1.0154642921 1.0471975512 1.0789308103 1.1106640695 
1.1423973286 1.1741305877 1.2058638468 1.237597106 1.2693303651 1.3010636242 1.3327968833 1.3645301425 1.3962634016 
1.4279966607 1.4597299198 1.491463179 1.5231964381 1.5549296972 1.5866629564 1.6183962155 1.6501294746 1.6818627337 
1.7135959929 1.745329252 1.7770625111 1.8087957702 1.8405290294 1.8722622885 1.9039955476 1.9357288068 1.9674620659 
1.999195325 2.0309285841 2.0626618433 2.0943951024 2.1261283615 2.1578616206 2.1895948798 2.2213281389 2.253061398 
2.2847946572 2.3165279163 2.3482611754 2.3799944345 2.4117276937 2.4434609528 2.4751942119 2.506927471 2.5386607302 
2.5703939893 2.6021272484 2.6338605076 2.6655937667 2.6973270258 2.7290602849 2.7607935441 2.7925268032 2.8242600623 
2.8559933214 2.8877265806 2.9194598397 2.9511930988 2.982926358 3.0146596171 3.0463928762 3.0781261353 3.1098593945 
3.1415926536 
_radius 1 100 double
8.951173136e-16 0.014242439491 0.028415556411 0.042442388647 0.056246599462 0.069753741616 0.082892951013 0.09559894194 0.10781403556 
0.11948987347 0.13058849664 0.14108260736 0.15095502471 0.16019751447 0.16880927306 0.17679536879 0.18416541978 0.19093272687 
0.19711396352 0.20272934487 0.2078030282 0.21236346822 0.21644360907 0.2200809901 0.22331784676 0.22620102832 0.22878120937 
0.23111073509 0.23323970259 0.23521050706 0.23705178588 0.23877309454 0.24036152783 0.24178099384 0.24297431032 0.24386794615 
0.24437901457 0.24442389399 0.24392762843 0.24283318836 0.24110978882 0.23875963473 0.23582254517 0.23237786186 0.22854294479 
0.22446755134 0.22032369047 0.21629131882 0.2125414542 0.2092194973 0.2064321004 0.20424031065 0.20266000806 0.20166846753 
0.20121410431 0.20122595684 0.20162054278 0.20230581027 0.2031837231 0.20415351452 0.20511677376 0.20598411509 0.20668211275 
0.20715887025 0.20738694671 0.20736307383 0.20710484497 0.20664511911 0.20602515816 0.2052875105 0.20446944529 0.20359744629 
0.20268301476 0.20171989658 0.20068281588 0.19952772118 0.19819334946 0.19660374004 0.1946713831 0.19230093051 0.1893936129 
0.18585253104 0.18158878796 0.1765280563 0.17061676144 0.16382677477 0.15615751191 0.14763469276 0.13830570224 0.12823233545 
0.11748247259 0.10612263124 0.094213181615 0.081807278761 0.068953486309 0.055700998353 0.042105640286 0.028234648761 0.014168634723 
3.8201116479e-16 
_area 1 100 double
0 0.00055956356285 0.0022240570581 0.0049525271226 0.0086813676387 0.013328939234 0.018798771273 0.024980573384 0.031749898899 
0.038968442833 0.046487033004 0.054152394996 0.061817199252 0.069351357331 0.076651646581 0.083647038686 0.090298802826 0.096596950782 
0.10255611575 0.10821246951 0.11361916186 0.11883553403 0.12390964016 0.12886142783 0.13367649479 0.13831577497 0.14274064004 
0.14694525516 0.15096944265 0.15485288632 0.15856052249 0.16197866609 0.16497182611 0.16742538321 0.16925878112 0.17042375932 
0.17089901329 0.17068609284 0.16980115759 0.16824392882 0.16595779677 0.16286053138 0.15892351704 0.15420476465 0.14883802474 
0.1430098477 0.13693566851 0.13083583714 0.12491181047 0.1193259136 0.11419150036 0.10958083385 0.105562851 0.1022769535 
0.099655741156 0.097679549472 0.096327841621 0.095603499339 0.095452280501 0.095696406817 0.096124634427 0.09654854025 0.096797076831 
0.096673189232 0.096021213182 0.094761606793 0.092892358896 0.090493492507 0.087725764753 0.084818687349 0.082037211191 0.079621561214 
0.077761952567 0.076604906182 0.076415168888 0.076902360013 0.077710780902 0.078597737444 0.079340482019 0.079726220221 0.079559711058 
0.078673353148 0.076938529449 0.074277678593 0.070674793496 0.066180625365 0.060909308168 0.055025545433 0.04872479939 0.042211507557 
0.035680993536 0.029309081103 0.0232501983 0.017641577867 0.012609567021 0.0082743692109 0.0047508086392 0.002144091308 0.00054113984522 
1.5250166596e-17 
