# vtk DataFile Version 5.1
vtk output
ASCII
DATASET POLYDATA
POINTS 100 float
0.077286 0.0334485 0.633563 0.0773304 0.0337651 0.633363 0.0775252 0.0345582 0.632605 
0.0778381 0.0357729 0.631303 0.0782195 0.0373232 0.629482 0.0786081 0.0391005 0.627164 
0.0789378 0.0409839 0.624372 0.0791449 0.0428507 0.621118 0.0791745 0.0445873 0.6174 
0.0789855 0.0460978 0.613201 0.0785527 0.0473107 0.608488 0.0778672 0.0481819 0.603218 
0.0769338 0.0486954 0.597338 0.0757665 0.0488598 0.5908 0.0743829 0.0487035 0.583562 
0.0727979 0.0482677 0.575599 0.071018 0.0475995 0.566909 0.0690376 0.0467448 0.557514 
0.0668363 0.0457434 0.547464 0.0643798 0.0446253 0.536827 0.0616224 0.0434103 0.525688 
0.058512 0.0421092 0.51414 0.0549962 0.0407272 0.502272 0.0510291 0.0392689 0.490161 
0.0465774 0.0377427 0.477865 0.0416253 0.0361658 0.465419 0.0361771 0.0345677 0.452831 
0.0302578 0.0329908 0.440085 0.0239102 0.0314904 0.427148 0.0171912 0.030131 0.413976 
0.0101652 0.0289817 0.400522 0.00289795 0.0281102 0.386748 -0.00454983 0.0275757 0.372626 
-0.0121271 0.0274231 0.35815 -0.0197952 0.0276784 0.34333 -0.0275279 0.0283456 0.32819 
-0.0353087 0.0294064 0.312766 -0.043126 0.0308223 0.297091 -0.0509663 0.032539 0.28119 
-0.0588066 0.0344928 0.265068 -0.0666082 0.0366171 0.248705 -0.0743105 0.03885 0.23205 
-0.081829 0.0411401 0.215025 -0.0890553 0.0434514 0.197526 -0.095861 0.0457657 0.179438 
-0.102105 0.0480819 0.160645 -0.107642 0.0504139 0.141043 -0.112337 0.0527857 0.120561 
-0.116072 0.0552251 0.0991661 -0.118759 0.0577571 0.0768764 -0.120347 0.0603972 0.0537631 
-0.120829 0.0631458 0.0299479 -0.120237 0.0659848 0.00559484 -0.118643 0.0688758 -0.0191028 
-0.11615 0.0717611 -0.043939 -0.112879 0.0745669 -0.0687129 -0.108959 0.077208 -0.0932452 
-0.104514 0.0795947 -0.117393 -0.0996499 0.0816387 -0.141056 -0.0944466 0.0832599 -0.164185 
-0.0889506 0.0843923 -0.186775 -0.0831745 0.0849871 -0.208855 -0.0770988 0.0850157 -0.230481 
-0.0706787 0.08447 -0.251714 -0.0638535 0.0833606 -0.272609 -0.0565576 0.0817148 -0.2932 
-0.0487329 0.0795725 -0.313488 -0.0403394 0.076983 -0.333437 -0.0313645 0.0740013 -0.35298 
-0.0218286 0.0706848 -0.372019 -0.0117878 0.0670915 -0.390441 -0.0013317 0.0632786 -0.408134 
0.00942057 0.0593024 -0.424997 0.0203288 0.055218 -0.440961 0.0312408 0.0510803 -0.455995 
0.042003 0.046944 -0.470111 0.0524697 0.0428635 -0.483365 0.0625122 0.0388928 -0.495849 
0.0720247 0.0350835 -0.507677 0.0809281 0.0314831 -0.518968 0.0891714 0.028133 -0.529834 
0.09673 0.0250656 -0.540355 0.103603 0.0223027 -0.550571 0.109808 0.0198535 -0.560474 
0.115375 0.0177146 -0.570007 0.120344 0.0158704 -0.579067 0.124758 0.0142949 -0.587521 
0.12866 0.0129547 -0.595224 0.13209 0.0118119 -0.602037 0.135086 0.0108285 -0.607848 
0.13768 0.00996954 -0.612588 0.139904 0.00920647 -0.616249 0.141784 0.00851888 -0.61888 
0.143347 0.00789553 -0.620593 0.144616 0.00733397 -0.621549 0.145615 0.00683895 -0.621939 
0.146365 0.00642011 -0.621967 0.146882 0.00608907 -0.621822 0.147182 0.00585657 -0.621659 
0.147274 0.00573005 -0.621579 
LINES 2 100
OFFSETS vtktypeint64
0 100 
CONNECTIVITY vtktypeint64
0 1 2 3 4 5 6 7 8 
9 10 11 12 13 14 15 16 17 
18 19 20 21 22 23 24 25 26 
27 28 29 30 31 32 33 34 35 
36 37 38 39 40 41 42 43 44 
45 46 47 48 49 50 51 52 53 
54 55 56 57 58 59 60 61 62 
63 64 65 66 67 68 69 70 71 
72 73 74 75 76 77 78 79 80 
81 82 83 84 85 86 87 88 89 
90 91 92 93 94 95 96 97 98 
99 
POINT_DATA 100
FIELD FieldData 3
_theta 1 100 double
0 0.031733259127 0.063466518254 0.095199777382 0.12693303651 0.15866629564 0.19039955476 0.22213281389 0.25386607302 
0.28559933214 0.31733259127 0.3490658504 0.38079910953 0.41253236865 0.44426562778 0.47599888691 0.50773214603 0.53946540516 
0.57119866429 0.60293192342 0.63466518254 0.66639844167 0.6981317008 0.72986495992 0.76159821905 0.79333147818 0.82506473731 
0.85679799643 0.88853125556 0.92026451469 0.95199777382 0.98373103294 1.0154642921 1.0471975512 1.0789308103 1.1106640695 
1.1423973286 1.1741305877 1.2058638468 1.237597106 1.2693303651 1.3010636242 1.3327968833 1.3645301425 1.3962634016 
1.4279966607 1.4597299198 1.491463179 1.5231964381 1.5549296972 1.5866629564 1.6183962155 1.6501294746 1.6818627337 
1.7135959929 1.745329252 1.7770625111 1.8087957702 1.8405290294 1.8722622885 1.9039955476 1.9357288068 1.9674620659 
1.999195325 2.0309285841 2.0626618433 2.0943951024 2.1261283615 2.1578616206 2.1895948798 2.2213281389 2.253061398 
2.2847946572 2.3165279163 2.3482611754 2.3799944345 2.4117276937 2.4434609528 2.4751942119 2.506927471 2.5386607302 
2.5703939893 2.6021272484 2.6338605076 2.6655937667 2.6973270258 2.7290602849 2.7607935441 2.7925268032 2.8242600623 
2.8559933214 2.8877265806 2.9194598397 2.9511930988 2.982926358 3.0146596171 3.0463928762 3.0781261353 3.1098593945 
3.1415926536 
_radius 1 100 double
4.5315811845e-16 0.013661185083 0.027276118524 0.040791317236 0.054152484855 0.067304092998 0.080188931974 0.09274807561 0.10492169491 
0.11665092147 0.12788061632 0.13856259386 0.14865869253 0.15814309801 0.16700347552 0.17524069849 0.18286722991 0.18990448252 
0.19637970801 0.20232307696 0.20776555321 0.21273792093 0.21727093337 0.22139613112 0.22514658581 0.2285568161 0.23166143649 
0.23449258834 0.2370765922 0.23943036325 0.24155799174 0.24344771695 0.245069487 0.24637342045 0.24728968602 0.24773047396 
0.24759473566 0.24677613134 0.24517412845 0.2427075049 0.23932878556 0.23503757111 0.22989047635 0.22400559074 0.21756002892 
0.21078017647 0.20392546881 0.19726771249 0.1910688316 0.18556031371 0.18092731491 0.1772990859 0.17474517109 0.17327467394 
0.17283541802 0.17331209511 0.17452652258 0.17624589518 0.17820330967 0.18012909109 0.1817858696 0.18299894358 0.18367594248 
0.18381336893 0.1834904022 0.18285215628 0.18208572057 0.18139289079 0.1809634303 0.18095192299 0.18145999412 0.18252442669 
0.18411110604 0.1861149514 0.18836644096 0.19064510411 0.19269915298 0.19426888351 0.19511049431 0.1950169599 0.19383336204 
0.19146520216 0.18787933992 0.18309815107 0.17718821444 0.17024532853 0.1623779393 0.1536911483 0.14427336621 0.13418737399 
0.12346703734 0.11212018259 0.10013721582 0.087504062368 0.074217122882 0.060297430216 0.04580123719 0.030824901211 0.015503014411 
5.0594798723e-16 
_area 1 100 double
0 0.00050936038319 0.0020322706057 0.0045514582828 0.0080330204346 0.012421113145 0.017634393552 0.023566368693 0.030090583321 
0.037069944776 0.044368082758 0.051860021926 0.059439766451 0.067023408999 0.074547641037 0.081964638824 0.089234967247 0.096320397607 
0.10317860264 0.10976162918 0.11601955094 0.12190945515 0.127407945 0.13252303282 0.13729963124 0.14181355113 0.14615321681 
0.15039471979 0.15458004776 0.15870666554 0.16272983621 0.16657219324 0.17013283763 0.17329101461 0.17590439496 0.17780634586 
0.17880855421 0.17871417968 0.17734285547 0.17456396869 0.17033071856 0.1647058302 0.15787083883 0.15011420253 0.14179863036 
0.13331429468 0.12503030656 0.11725795707 0.11023243587 0.10410893793 0.098964265635 0.094803657124 0.09158668868 0.089283021996 
0.087921586568 0.087365020272 0.087507914292 0.088168205333 0.089130083792 0.090136770452 0.090914549248 0.091212334471 0.090848704123 
0.089750952289 0.087974638782 0.085699821763 0.083204099812 0.080817386244 0.078868712733 0.077636441546 0.077309009035 0.077961465018 
0.079552444729 0.081938254096 0.084892802982 0.088125909825 0.091301676218 0.094062160024 0.096058682965 0.096987989801 0.096626344117 
0.094853570522 0.091661548234 0.087146201697 0.081486354182 0.074915369786 0.067691916731 0.060074909724 0.052305563197 0.044597299691 
0.037132555848 0.030064562427 0.02352191304 0.017613958754 0.012435518931 0.0080699196533 0.0045899089527 0.0020565469627 0.00051668338361 
5.6623096576e-17 
