# vtk DataFile Version 5.1
vtk output
ASCII
DATASET POLYDATA
POINTS 100 float
0.0553573 0.0658325 0.718602 0.0555374 0.0660376 0.718319 0.0560977 0.0664581 0.717283 
0.056991 0.0670431 0.715521 0.058143 0.067715 0.713075 0.0594581 0.0683784 0.709995 
0.0608276 0.0689319 0.706334 0.0621383 0.0692792 0.702138 0.0632817 0.0693408 0.697442 
0.0641626 0.069062 0.692263 0.064706 0.0684178 0.686602 0.064862 0.0674147 0.680441 
0.0646085 0.0660874 0.673746 0.0639508 0.0644926 0.666477 0.0629182 0.0627004 0.65859 
0.0615587 0.0607846 0.650047 0.0599315 0.0588125 0.640821 0.0580984 0.0568375 0.630907 
0.0561151 0.0548934 0.620317 0.0540234 0.0529921 0.609088 0.0518453 0.0511254 0.597277 
0.0495793 0.0492693 0.584955 0.0471996 0.0473908 0.572203 0.0446592 0.0454564 0.559103 
0.041895 0.0434396 0.545733 0.038836 0.041328 0.532157 0.0354125 0.0391277 0.518422 
0.0315656 0.036865 0.504553 0.0272564 0.0345841 0.49056 0.0224726 0.0323435 0.476429 
0.0172321 0.0302085 0.462138 0.0115836 0.0282438 0.447652 0.00560261 0.0265061 0.432937 
-0.000615532 0.0250374 0.417961 -0.00696588 0.0238614 0.402697 -0.0133455 0.0229821 0.387129 
-0.0196655 0.0223866 0.371251 -0.0258615 0.0220496 0.355062 -0.031902 0.0219408 0.338566 
-0.037792 0.022033 0.321767 -0.0435724 0.0223096 0.304663 -0.0493142 0.0227714 0.287244 
-0.0551085 0.0234394 0.269489 -0.0610521 0.0243555 0.251363 -0.0672321 0.0255785 0.232823 
-0.073709 0.0271777 0.21382 -0.0805027 0.0292231 0.194302 -0.0875806 0.0317746 0.174222 
-0.0948526 0.0348715 0.153548 -0.10217 0.038523 0.132263 -0.109334 0.0427021 0.110371 
-0.116106 0.047343 0.0879025 -0.122226 0.0523432 0.0649082 -0.127437 0.0575695 0.0414602 
-0.131499 0.0628678 0.0176455 -0.134219 0.0680758 -0.00644103 -0.135461 0.0730357 -0.0307034 
-0.135162 0.0776077 -0.0550515 -0.133335 0.0816802 -0.0794072 -0.130066 0.085177 -0.103707 
-0.125508 0.0880603 -0.127906 -0.119861 0.0903293 -0.151972 -0.113358 0.092014 -0.175887 
-0.106235 0.0931664 -0.199638 -0.0987193 0.0938488 -0.223214 -0.0910014 0.0941225 -0.246596 
-0.0832272 0.0940366 -0.269754 -0.0754873 0.0936201 -0.292645 -0.0678165 0.0928768 -0.315205 
-0.0602 0.0917847 -0.337357 -0.0525842 0.0902996 -0.35901 -0.0448937 0.0883619 -0.380065 
-0.0370487 0.0859064 -0.400422 -0.0289838 0.0828727 -0.419987 -0.0206637 0.0792157 -0.43868 
-0.0120954 0.0749149 -0.456433 -0.00333421 0.0699798 -0.473204 0.00551595 0.0644524 -0.488969 
0.0143083 0.0584064 -0.503722 0.0228645 0.0519413 -0.517478 0.0309897 0.0451757 -0.530258 
0.0384895 0.0382369 -0.542094 0.0451874 0.0312517 -0.553014 0.0509399 0.0243369 -0.563048 
0.0556488 0.0175925 -0.572216 0.0592681 0.0110969 -0.580534 0.0618065 0.00490589 -0.588012 
0.0633246 -0.000945569 -0.594658 0.0639276 -0.00643938 -0.600482 0.0637551 -0.0115682 -0.605501 
0.062969 -0.0163289 -0.609743 0.0617405 -0.0207165 -0.613249 0.0602389 -0.0247194 -0.616073 
0.0586217 -0.0283165 -0.618284 0.0570277 -0.0314771 -0.619963 0.0555732 -0.034163 -0.62119 
0.0543501 -0.0363319 -0.62205 0.0534267 -0.0379428 -0.622613 0.0528497 -0.038961 -0.622938 
0.0526458 -0.0393631 -0.62306 
LINES 2 100
OFFSETS vtktypeint64
0 100 
CONNECTIVITY vtktypeint64
0 1 2 3 4 5 6 7 8 
9 10 11 12 13 14 15 16 17 
18 19 20 21 22 23 24 25 26 
27 28 29 30 31 32 33 34 35 
36 37 38 39 40 41 42 43 44 
45 46 47 48 49 50 51 52 53 
54 55 56 57 58 59 60 61 62 
63 64 65 66 67 68 69 70 71 
72 73 74 75 76 77 78 79 80 
81 82 83 84 85 86 87 88 89 
90 91 92 93 94 95 96 97 98 
99 
POINT_DATA 100
FIELD FieldData 3
_theta 1 100 double
0 0.031733259127 0.063466518254 0.095199777382 0.12693303651 0.15866629564 0.19039955476 0.22213281389 0.25386607302 
0.28559933214 0.31733259127 0.3490658504 0.38079910953 0.41253236865 0.44426562778 0.47599888691 0.50773214603 0.53946540516 
0.57119866429 0.60293192342 0.63466518254 0.66639844167 0.6981317008 0.72986495992 0.76159821905 0.79333147818 0.82506473731 
0.85679799643 0.88853125556 0.92026451469 0.95199777382 0.98373103294 1.0154642921 1.0471975512 1.0789308103 1.1106640695 
1.1423973286 1.1741305877 1.2058638468 1.237597106 1.2693303651 1.3010636242 1.3327968833 1.3645301425 1.3962634016 
1.4279966607 1.4597299198 1.491463179 1.5231964381 1.5549296972 1.5866629564 1.6183962155 1.6501294746 1.6818627337 
1.7135959929 1.745329252 1.7770625111 1.8087957702 1.8405290294 1.8722622885 1.9039955476 1.9357288068 1.9674620659 
1.999195325 2.0309285841 2.0626618433 2.0943951024 2.1261283615 2.1578616206 2.1895948798 2.2213281389 2.253061398 
2.2847946572 2.3165279163 2.3482611754 2.3799944345 2.4117276937 2.4434609528 2.4751942119 2.506927471 2.5386607302 
2.5703939893 2.6021272484 2.6338605076 2.6655937667 2.6973270258 2.7290602849 2.7607935441 2.7925268032 2.8242600623 
2.8559933214 2.8877265806 2.9194598397 2.9511930988 2.982926358 3.0146596171 3.0463928762 3.0781261353 3.1098593945 
3.1415926536 
_radius 1 100 double
1.2358440816e-15 0.013614386219 0.027313133745 0.041143912423 0.055112578117 0.069174993113 0.083238758705 0.097173183196 0.11082457467 
0.12403372091 0.13665281955 0.14855980404 0.15966874997 0.16993571473 0.17935990507 0.18798047144 0.19586951904 0.20312213927 
0.20984443891 0.21614069432 0.22210088564 0.22778994445 0.23324004279 0.23844711821 0.24337251851 0.24795008965 0.25209816606 
0.25573483773 0.25879388163 0.2612382887 0.2630686448 0.26432464426 0.26507940424 0.26542764999 0.26546996437 0.26529593806 
0.2649691309 0.26451630496 0.26392256176 0.26313298748 0.26206037712 0.26059778659 0.25863421714 0.25607166488 0.25284186937 
0.2489211345 0.24434148888 0.23919632514 0.23363876645 0.22787161551 0.22212898639 0.21665150064 0.21165881185 0.20732449257 
0.20375826747 0.20099891029 0.19901822518 0.19773346098 0.19702359346 0.19674500619 0.19674398104 0.1968660289 0.19696424158 
0.19690938556 0.19660271086 0.19598928306 0.19506738688 0.19388985006 0.1925555662 0.19119253679 0.18993615701 0.18890750861 
0.18819576957 0.18784682365 0.18785781481 0.18817598843 0.18870026248 0.18928512017 0.18974754757 0.1898779889 0.18945549661 
0.18826587887 0.1861203423 0.18287141098 0.17842307801 0.17273328308 0.16580868699 0.15769379163 0.1484579705 0.13818421978 
0.1269621908 0.11488587496 0.10205426955 0.088572398885 0.074550454468 0.060100150889 0.04532901346 0.030334597726 0.015201082534 
7.0280716388e-16 
_area 1 100 double
0 0.00053633081387 0.002156973025 0.0048890919575 0.00875516749 0.013748312921 0.019812189509 0.026832032834 0.034638888227 
0.043025059929 0.051766192372 0.060644492371 0.069468209605 0.078084323532 0.086383759187 0.094300451264 0.10180662354 0.10890671151 
0.11563147125 0.12203215124 0.12817308063 0.13412083229 0.13992946578 0.1456235839 0.15118333457 0.1565372331 0.16156852532 
0.16613770172 0.17011790624 0.1734331797 0.17608458968 0.17814976001 0.1797514928 0.1810114968 0.18201869965 0.18282628241 
0.18346342376 0.18393254665 0.18415624896 0.18399220656 0.18328347069 0.18173228072 0.17921700549 0.17570870068 0.17135188032 
0.166331192 0.16035250933 0.15352556721 0.14608079921 0.1383438182 0.1307034723 0.12356657593 0.11730074546 0.11216696195 
0.10825494193 0.10546105115 0.10353999789 0.10219540904 0.10114748085 0.1001580567 0.099029580019 0.097603277024 0.095775241543 
0.093521617661 0.090904064454 0.088046800795 0.085099056809 0.082182316984 0.07932504661 0.076540780433 0.073965315171 0.071845710941 
0.070328810451 0.069453327902 0.069340269302 0.06995856283 0.071101150733 0.072538618164 0.074075790651 0.075504745911 0.076599843233 
0.077133402049 0.076899652624 0.075738900675 0.073555979296 0.070327544634 0.066094874583 0.060946134438 0.055001309537 0.048412775726 
0.041378553937 0.03415038819 0.027023057387 0.020305637097 0.014284186771 0.0091872625606 0.005164809689 0.002287946493 0.00057011771784 
1.9569639094e-17 
