# vtk DataFile Version 5.1
vtk output
ASCII
DATASET POLYDATA
POINTS 100 float
0.15646 0.0237126 0.655068 0.156448 0.0239388 0.655028 0.156488 0.0244744 0.654758 
0.156537 0.0252989 0.654234 0.156527 0.0263799 0.653417 0.156376 0.027676 0.652253 
0.155994 0.02914 0.650677 0.155291 0.0307221 0.648613 0.154189 0.0323731 0.645982 
0.152626 0.0340471 0.6427 0.150559 0.0357027 0.638692 0.147968 0.0373044 0.633891 
0.144851 0.038822 0.628246 0.14122 0.0402296 0.621729 0.137098 0.0415047 0.614338 
0.132509 0.0426262 0.606098 0.127474 0.0435735 0.597063 0.122006 0.0443258 0.587309 
0.116108 0.0448624 0.576932 0.109777 0.0451635 0.566039 0.103002 0.0452126 0.554738 
0.0957736 0.0449989 0.543129 0.0880892 0.0445202 0.531296 0.079958 0.0437857 0.519298 
0.0714073 0.0428183 0.507166 0.0624855 0.0416556 0.494899 0.0532621 0.0403501 0.48247 
0.0438245 0.0389671 0.469825 0.0342727 0.0375823 0.456893 0.0247106 0.036277 0.443597 
0.015237 0.0351333 0.42986 0.0059359 0.0342283 0.415617 -0.00313103 0.0336288 0.400817 
-0.01193 0.0333867 0.385434 -0.0204567 0.0335355 0.36946 -0.0287342 0.0340886 0.352909 
-0.0368066 0.0350392 0.33581 -0.04473 0.0363622 0.318199 -0.0525603 0.0380174 0.300114 
-0.0603417 0.039954 0.281585 -0.0680949 0.0421156 0.262628 -0.0758083 0.0444459 0.243247 
-0.0834332 0.0468929 0.223427 -0.0908834 0.0494127 0.203142 -0.0980393 0.0519722 0.182358 
-0.104757 0.0545496 0.161047 -0.110881 0.0571334 0.139186 -0.116259 0.0597209 0.116776 
-0.120755 0.0623142 0.0938423 -0.124265 0.0649171 0.0704387 -0.126729 0.0675308 0.04665 
-0.128132 0.0701505 0.0225862 -0.12851 0.0727629 -0.00162415 -0.127942 0.0753441 -0.0258449 
-0.126546 0.0778597 -0.0499435 -0.12446 0.0802658 -0.0738029 -0.121835 0.0825102 -0.0973316 
-0.118812 0.0845361 -0.120471 -0.115516 0.0862846 -0.143196 -0.112043 0.0876982 -0.16552 
-0.108449 0.088724 -0.187479 -0.104757 0.0893158 -0.209132 -0.100952 0.0894363 -0.230541 
-0.0969949 0.0890574 -0.251762 -0.0928259 0.0881611 -0.272835 -0.0883813 0.0867387 -0.293768 
-0.0836025 0.08479 -0.31454 -0.0784473 0.0823225 -0.335093 -0.0728963 0.0793505 -0.355342 
-0.0669578 0.0758941 -0.375181 -0.0606677 0.0719792 -0.394496 -0.0540861 0.067637 -0.413178 
-0.0472917 0.0629046 -0.431136 -0.0403736 0.0578251 -0.448311 -0.0334229 0.0524477 -0.464677 
-0.0265254 0.0468282 -0.48025 -0.0197552 0.0410279 -0.49508 -0.0131711 0.0351133 -0.509244 
-0.00681569 0.0291544 -0.522832 -0.000716899 0.0232226 -0.535935 0.00510835 0.0173887 -0.548628 
0.0106493 0.0117198 -0.560952 0.0158963 0.00627751 -0.572913 0.0208364 0.0011151 -0.584469 
0.0254505 -0.00372399 -0.595535 0.0297129 -0.00820732 -0.605992 0.0335924 -0.0123139 -0.615698 
0.037056 -0.0160336 -0.624506 0.0400742 -0.0193668 -0.632284 0.0426261 -0.0223217 -0.638932 
0.0447049 -0.0249138 -0.644395 0.0463219 -0.0271624 -0.648679 0.0475079 -0.0290899 -0.651848 
0.0483133 -0.0307189 -0.654024 0.0488039 -0.0320712 -0.655372 0.0490554 -0.0331666 -0.656088 
0.0491461 -0.034022 -0.656374 0.0491487 -0.0346507 -0.656417 0.0491218 -0.0350623 -0.65637 
0.0491038 -0.0352626 -0.656331 
LINES 2 100
OFFSETS vtktypeint64
0 100 
CONNECTIVITY vtktypeint64
0 1 2 3 4 5 6 7 8 
9 10 11 12 13 14 15 16 17 
18 19 20 21 22 23 24 25 26 
27 28 29 30 31 32 33 34 35 
36 37 38 39 40 41 42 43 44 
45 46 47 48 49 50 51 52 53 
54 55 56 57 58 59 60 61 62 
63 64 65 66 67 68 69 70 71 
72 73 74 75 76 77 78 79 80 
81 82 83 84 85 86 87 88 89 
90 91 92 93 94 95 96 97 98 
99 
POINT_DATA 100
FIELD FieldData 3
_theta 1 100 double
0 0.031733259127 0.063466518254 0.095199777382 0.12693303651 0.15866629564 0.19039955476 0.22213281389 0.25386607302 
0.28559933214 0.31733259127 0.3490658504 0.38079910953 0.41253236865 0.44426562778 0.47599888691 0.50773214603 0.53946540516 
0.57119866429 0.60293192342 0.63466518254 0.66639844167 0.6981317008 0.72986495992 0.76159821905 0.79333147818 0.82506473731 
0.85679799643 0.88853125556 0.92026451469 0.95199777382 0.98373103294 1.0154642921 1.0471975512 1.0789308103 1.1106640695 
1.1423973286 1.1741305877 1.2058638468 1.237597106 1.2693303651 1.3010636242 1.3327968833 1.3645301425 1.3962634016 
1.4279966607 1.4597299198 1.491463179 1.5231964381 1.5549296972 1.5866629564 1.6183962155 1.6501294746 1.6818627337 
1.7135959929 1.745329252 1.7770625111 1.8087957702 1.8405290294 1.8722622885 1.9039955476 1.9357288068 1.9674620659 
1.999195325 2.0309285841 2.0626618433 2.0943951024 2.1261283615 2.1578616206 2.1895948798 2.2213281389 2.253061398 
2.2847946572 2.3165279163 2.3482611754 2.3799944345 2.4117276937 2.4434609528 2.4751942119 2.506927471 2.5386607302 
2.5703939893 2.6021272484 2.6338605076 2.6655937667 2.6973270258 2.7290602849 2.7607935441 2.7925268032 2.8242600623 
2.8559933214 2.8877265806 2.9194598397 2.9511930988 2.982926358 3.0146596171 3.0463928762 3.0781261353 3.1098593945 
3.1415926536 
_radius 1 100 double
1.2225112163e-15 0.015804101474 0.03144593826 0.046771985289 0.061650692136 0.075978962996 0.089684259592 0.10272251015 0.11507292021 
0.12673130419 0.13770350885 0.14799997078 0.15763176386 0.16660799639 0.17493428403 0.18261219659 0.18963984254 0.19601387565 
0.2017330301 0.20680283234 0.2112405917 0.21507938973 0.21836975229 0.22117803818 0.22358124421 0.22565877148 0.22748252412 
0.22910726086 0.23056314365 0.2318518483 0.2329466495 0.23379601366 0.23432979484 0.23446717564 0.23412576898 0.23323147294 
0.23172857768 0.22958931343 0.22682169992 0.22347442175 0.2196376262 0.21543901949 0.21103533671 0.20660004727 0.20230885669 
0.19832497749 0.19478613113 0.19179483733 0.18941294541 0.18766076871 0.18652061662 0.18594384597 0.18585977871 0.1861843296 
0.18682650317 0.18769221999 0.18868657032 0.18971636643 0.19069413893 0.19154325373 0.19220293434 0.19263207434 0.19281124444 
0.19274265239 0.19244793666 0.19196383473 0.19133618196 0.19061326694 0.18983991359 0.18905345623 0.18828206516 0.18754502796 
0.18685397383 0.18621383256 0.18562253518 0.18506895462 0.18452917358 0.18396171692 0.18330283478 0.18246322474 0.18132761698 
0.17975825955 0.1776025259 0.17470387519 0.17091459912 0.16610842858 0.1601911654 0.15310793087 0.14484623734 0.13543476935 
0.12493840117 0.1134504868 0.10108376139 0.087961247278 0.074208365136 0.059947068404 0.045292347724 0.030351010496 0.015222327617 
1.5856518796e-15 
_area 1 100 double
0 0.00059727380491 0.0023715860054 0.0052717905891 0.0092169365672 0.014101741545 0.019802723112 0.026184157963 0.033103363556 
0.040415098947 0.047975097639 0.055642988187 0.063285204974 0.070778725876 0.078016240795 0.084912635754 0.09141183728 0.097492381822 
0.10316959962 0.10849227697 0.11353266174 0.11837086223 0.12307712139 0.12769657591 0.13223998141 0.13668120948 0.14096045709 
0.14499251908 0.14868002627 0.15192948315 0.15466497142 0.15683423816 0.15840488815 0.15935243427 0.15964543197 0.15923482046 
0.15805388877 0.15603155755 0.15311618934 0.14930266611 0.14465420878 0.13931234916 0.13349192386 0.12746142729 0.12151220565 
0.11592276538 0.1109254349 0.10668008037 0.10325760919 0.10063781799 0.098715970131 0.097316505997 0.096248653079 0.09536296591 
0.094555375669 0.093750018309 0.092894334117 0.091965958824 0.090972400645 0.089933064423 0.088857794063 0.087741968676 0.086573832375 
0.085340089568 0.08402892418 0.08263649158 0.081178380151 0.079698637119 0.078264052362 0.076944227309 0.075817019649 0.074968695188 
0.074406068074 0.074165159013 0.074265504208 0.07470566847 0.075473362694 0.076507577331 0.077652845856 0.078735790125 0.079574253954 
0.079965532663 0.079696542179 0.078566004191 0.076411298719 0.07313375144 0.06871723675 0.063236489135 0.056853531967 0.049802919405 
0.042368560143 0.034856293914 0.02756685434 0.020773334785 0.014705952835 0.0095451353789 0.0054221693468 0.0024253034313 0.00060849593511 
2.1477359979e-17 
