# vtk DataFile Version 5.1
vtk output
ASCII
DATASET POLYDATA
POINTS 100 float
0.109525 0.0351215 0.639618 0.109646 0.0353167 0.639445 0.110067 0.0357524 0.6388 
0.110729 0.0364232 0.637684 0.111542 0.0373199 0.636093 0.112394 0.0384284 0.634019 
0.113161 0.039728 0.631447 0.113723 0.0411903 0.628349 0.113971 0.0427779 0.62469 
0.113821 0.044444 0.620422 0.113215 0.046133 0.615492 0.112125 0.0477818 0.609846 
0.110551 0.0493222 0.603437 0.108517 0.0506845 0.596231 0.10606 0.051801 0.588216 
0.103221 0.0526107 0.579408 0.100039 0.0530636 0.569853 0.0965411 0.0531246 0.559625 
0.0927409 0.0527761 0.548825 0.0886341 0.0520207 0.537573 0.0842025 0.050881 0.525996 
0.0794187 0.0493994 0.514217 0.0742538 0.047635 0.502342 0.0686849 0.0456606 0.49045 
0.0627035 0.0435578 0.478582 0.056321 0.0414121 0.466743 0.0495718 0.0393076 0.454894 
0.0425133 0.0373223 0.442963 0.0352215 0.0355237 0.430851 0.0277839 0.0339663 0.418447 
0.0202902 0.0326894 0.405638 0.0128216 0.0317173 0.392324 0.00544143 0.0310597 0.378431 
-0.00181337 0.0307141 0.363915 -0.00893613 0.0306687 0.348769 -0.015951 0.030905 0.33302 
-0.0229085 0.0314017 0.316722 -0.0298771 0.0321372 0.299948 -0.0369315 0.0330915 0.282776 
-0.0441382 0.0342481 0.265278 -0.0515421 0.0355936 0.247508 -0.0591534 0.0371179 0.229492 
-0.0669386 0.0388124 0.211227 -0.0748156 0.0406687 0.192679 -0.0826547 0.0426766 0.173791 
-0.0902848 0.0448224 0.15449 -0.0975047 0.0470881 0.134702 -0.104099 0.0494505 0.114367 
-0.109855 0.051882 0.0934466 -0.114583 0.0543512 0.0719383 -0.118128 0.0568249 0.0498801 
-0.120391 0.0592702 0.0273513 -0.121327 0.0616564 0.004468 -0.120956 0.0639571 -0.0186263 
-0.119357 0.0661515 -0.0417734 -0.116656 0.0682249 -0.0648153 -0.113018 0.0701681 -0.0876084 
-0.108627 0.0719767 -0.110036 -0.10367 0.073648 -0.132019 -0.0983231 0.0751795 -0.153516 
-0.0927353 0.0765651 -0.174525 -0.0870206 0.0777932 -0.195075 -0.0812531 0.0788446 -0.215219 
-0.0754674 0.0796918 -0.235016 -0.0696638 0.0802993 -0.25452 -0.0638167 0.0806255 -0.273768 
-0.0578862 0.0806257 -0.292772 -0.05183 0.0802562 -0.311513 -0.0456151 0.0794791 -0.329941 
-0.039227 0.078267 -0.347983 -0.0326763 0.0766077 -0.36555 -0.0260019 0.0745067 -0.382554 
-0.0192693 0.0719901 -0.398914 -0.0125669 0.0691036 -0.414574 -0.00599832 0.0659112 -0.429507 
0.000326155 0.0624909 -0.443724 0.0062993 0.0589298 -0.457264 0.0118258 0.0553172 -0.470194 
0.0168297 0.0517382 -0.482597 0.0212597 0.0482666 -0.494551 0.0250918 0.04496 -0.506123 
0.0283288 0.0418557 -0.517349 0.0309983 0.0389686 -0.528224 0.0331481 0.0362924 -0.538701 
0.0348401 0.0338016 -0.548687 0.0361446 0.0314571 -0.558059 0.037134 0.0292122 -0.566669 
0.0378775 0.0270196 -0.574366 0.0384371 0.0248388 -0.58102 0.0388651 0.0226423 -0.586534 
0.0392023 0.0204203 -0.590865 0.0394786 0.0181839 -0.594031 0.0397134 0.0159649 -0.596118 
0.0399179 0.013814 -0.597274 0.0400964 0.0117961 -0.597692 0.0402488 0.00998467 -0.597598 
0.0403725 0.00845407 -0.597224 0.0404638 0.00727223 -0.596782 0.0405192 0.0064937 -0.596446 
0.0405364 0.00615403 -0.596326 
LINES 2 100
OFFSETS vtktypeint64
0 100 
CONNECTIVITY vtktypeint64
0 1 2 3 4 5 6 7 8 
9 10 11 12 13 14 15 16 17 
18 19 20 21 22 23 24 25 26 
27 28 29 30 31 32 33 34 35 
36 37 38 39 40 41 42 43 44 
45 46 47 48 49 50 51 52 53 
54 55 56 57 58 59 60 61 62 
63 64 65 66 67 68 69 70 71 
72 73 74 75 76 77 78 79 80 
81 82 83 84 85 86 87 88 89 
90 91 92 93 94 95 96 97 98 
99 
POINT_DATA 100
FIELD FieldData 3
_theta 1 100 double
0 0.031733259127 0.063466518254 0.095199777382 0.12693303651 0.15866629564 0.19039955476 0.22213281389 0.25386607302 
0.28559933214 0.31733259127 0.3490658504 0.38079910953 0.41253236865 0.44426562778 0.47599888691 0.50773214603 0.53946540516 
0.57119866429 0.60293192342 0.63466518254 0.66639844167 0.6981317008 0.72986495992 0.76159821905 0.79333147818 0.82506473731 
0.85679799643 0.88853125556 0.92026451469 0.95199777382 0.98373103294 1.0154642921 1.0471975512 1.0789308103 1.1106640695 
1.1423973286 1.1741305877 1.2058638468 1.237597106 1.2693303651 1.3010636242 1.3327968833 1.3645301425 1.3962634016 
1.4279966607 1.4597299198 1.491463179 1.5231964381 1.5549296972 1.5866629564 1.6183962155 1.6501294746 1.6818627337 
1.7135959929 1.745329252 1.7770625111 1.8087957702 1.8405290294 1.8722622885 1.9039955476 1.9357288068 1.9674620659 
1.999195325 2.0309285841 2.0626618433 2.0943951024 2.1261283615 2.1578616206 2.1895948798 2.2213281389 2.253061398 
2.2847946572 2.3165279163 2.3482611754 2.3799944345 2.4117276937 2.4434609528 2.4751942119 2.506927471 2.5386607302 
2.5703939893 2.6021272484 2.6338605076 2.6655937667 2.6973270258 2.7290602849 2.7607935441 2.7925268032 2.8242600623 
2.8559933214 2.8877265806 2.9194598397 2.9511930988 2.982926358 3.0146596171 3.0463928762 3.0781261353 3.1098593945 
3.1415926536 
_radius 1 100 double
6.8946911354e-16 0.014294888034 0.028474744743 0.042428302001 0.056057677765 0.069281834819 0.082037071143 0.094275148746 0.10596030145 
0.11706651178 0.12757608753 0.1374798754 0.14677869756 0.15548503629 0.16362376798 0.17123090469 0.17834980533 0.18502507233 
0.19129516814 0.19718540306 0.20270309603 0.20783627349 0.21255638078 0.21682446259 0.22059947139 0.22384698835 0.22654670933 
0.22869745127 0.23031902093 0.23145090044 0.23214820043 0.23247562451 0.23250027386 0.23228408067 0.23187660019 0.23130888823 
0.23058924602 0.22970166374 0.22860771952 0.22725237911 0.22557355744 0.22351453776 0.22103758116 0.21813650345 0.21484582295 
0.21124441056 0.20745244248 0.20362175451 0.19992111576 0.19651903745 0.19356714529 0.19118677223 0.18946038719 0.18842800569 
0.18808730567 0.18839556058 0.18927222078 0.19060259206 0.19224430926 0.19403810988 0.19582279872 0.19745229587 0.1988114639 
0.19982753745 0.20047513668 0.20077437378 0.20078290252 0.20058363656 0.20027021159 0.19993214856 0.19964124569 0.19944023241 
0.19933442174 0.19928708992 0.19921938723 0.19901536185 0.1985319686 0.19761294247 0.19610457353 0.19387102947 0.19080698129 
0.18684579056 0.18196228037 0.17617000248 0.16951378434 0.16205904892 0.15387983161 0.14504750999 0.13562201319 0.12564674719 
0.11514776883 0.10413699707 0.092618597328 0.080597212355 0.068086498563 0.055116468564 0.041738410936 0.028026598505 0.014076530732 
3.8267756746e-16 
_area 1 100 double
0 0.00050470472142 0.0020032680934 0.0044510291577 0.0077795551254 0.011903678672 0.016728177236 0.022152375861 0.0280719537 
0.034378570187 0.040959105292 0.047696808164 0.05447616724 0.061191961863 0.06776119312 0.074134959446 0.080306273502 0.086309738691 
0.092210464579 0.098082887755 0.10398426997 0.10993009618 0.11587820261 0.12172703074 0.12733107253 0.13253058097 0.13718527587 
0.14119996676 0.1445352752 0.1472040848 0.14925865212 0.15077300968 0.15182343941 0.15246976653 0.15274176691 0.15263522868 
0.15211900579 0.15114932536 0.14968500539 0.14769866755 0.14518213023 0.1421467841 0.13862138801 0.13465028587 0.13029433473 
0.12563487686 0.1207786261 0.11585991927 0.11103745926 0.10648423767 0.10236937912 0.098832074097 0.095959589836 0.093786098583 
0.092296927438 0.091419739446 0.091031078789 0.090986122069 0.091142295643 0.091382663805 0.091645326303 0.091951006356 0.092370616359 
0.092862361026 0.093257822443 0.093423053305 0.09330717071 0.092930886222 0.092372453387 0.091756549967 0.091242984502 0.091011163839 
0.091231779077 0.092004573809 0.093279371936 0.09485124198 0.096429847377 0.097698549158 0.098352218985 0.098130439595 0.096845716769 
0.094400616617 0.090790958074 0.086096400114 0.080462401826 0.074078155721 0.067154344579 0.059903412402 0.05252401819 0.045190633326 
0.038048909815 0.031217290172 0.024794738885 0.018872918826 0.0135490318 0.0089342504014 0.0051534024857 0.0023344913923 0.0005906183903 
1.2614713905e-17 
