# vtk DataFile Version 5.1
vtk output
ASCII
DATASET POLYDATA
POINTS 100 float
0.106946 0.0566841 0.686345 0.107104 0.0569125 0.686136 0.107597 0.0574303 0.685352 
0.108366 0.0582033 0.684001 0.109315 0.059177 0.682096 0.110325 0.0602814 0.67965 
0.111265 0.0614363 0.67667 0.112003 0.0625572 0.673161 0.112419 0.0635614 0.669115 
0.112417 0.0643731 0.664514 0.111933 0.0649287 0.659331 0.110934 0.0651796 0.65353 
0.109426 0.0650943 0.647074 0.107442 0.0646588 0.639927 0.105042 0.063876 0.63206 
0.102299 0.0627638 0.62346 0.0992906 0.0613527 0.614132 0.0960865 0.0596827 0.604102 
0.0927421 0.0578008 0.593419 0.0892905 0.0557579 0.582152 0.0857396 0.0536067 0.570387 
0.0820723 0.0513995 0.558219 0.0782501 0.0491868 0.545746 0.0742198 0.047016 0.533058 
0.0699218 0.0449301 0.520234 0.0652993 0.0429669 0.507332 0.060307 0.0411579 0.494384 
0.0549185 0.0395275 0.481398 0.0491309 0.0380918 0.468354 0.042966 0.0368586 0.45521 
0.0364691 0.0358269 0.441906 0.0297035 0.0349874 0.42837 0.0227439 0.0343236 0.414525 
0.0156671 0.0338142 0.400295 0.00854347 0.0334352 0.385614 0.00142916 0.0331635 0.370421 
-0.00563985 0.0329803 0.354673 -0.0126503 0.0328748 0.338337 -0.0196108 0.0328463 0.32139 
-0.0265475 0.0329067 0.30382 -0.0334965 0.0330807 0.285621 -0.0404938 0.0334047 0.266788 
-0.047565 0.033924 0.247319 -0.0547139 0.0346888 0.227215 -0.0619144 0.0357486 0.206477 
-0.0691036 0.0371464 0.18511 -0.0761809 0.0389125 0.163129 -0.0830093 0.0410592 0.14056 
-0.089423 0.0435772 0.117442 -0.0952379 0.046433 0.0938342 -0.100266 0.0495692 0.0698111 
-0.104328 0.0529071 0.0454654 -0.107275 0.0563511 0.0209036 -0.108992 0.0597951 -0.00375945 
-0.109419 0.0631298 -0.0284069 -0.108549 0.0662507 -0.0529271 -0.106432 0.0690652 -0.0772206 
-0.103171 0.0714985 -0.101207 -0.0989123 0.0734982 -0.124828 -0.0938301 0.0750353 -0.148051 
-0.0881135 0.0761043 -0.170867 -0.0819488 0.0767197 -0.193288 -0.0755038 0.0769114 -0.215342 
-0.0689147 0.0767183 -0.237064 -0.0622775 0.0761822 -0.258488 -0.0556435 0.0753411 -0.279642 
-0.0490208 0.0742242 -0.300538 -0.0423804 0.0728489 -0.321169 -0.0356669 0.0712189 -0.341507 
-0.0288119 0.0693254 -0.361503 -0.021749 0.0671498 -0.381091 -0.0144281 0.0646684 -0.400193 
-0.00682819 0.061857 -0.418728 0.00103387 0.0586971 -0.436617 0.00909914 0.0551802 -0.453792 
0.0172671 0.0513119 -0.470199 0.0254016 0.0471139 -0.485808 0.0333404 0.0426236 -0.500607 
0.0409089 0.0378931 -0.514606 0.0479345 0.0329849 -0.527831 0.0542622 0.0279683 -0.540321 
0.0597674 0.0229136 -0.55212 0.0643667 0.0178876 -0.563271 0.0680241 0.0129493 -0.573811 
0.0707525 0.00814731 -0.583766 0.0726111 0.00351821 -0.59315 0.073698 -0.000912705 -0.601961 
0.07414 -0.00512975 -0.610188 0.0740801 -0.00912376 -0.61781 0.0736644 -0.0128885 -0.6248 
0.073031 -0.016417 -0.631133 0.0722992 -0.0196983 -0.636788 0.0715637 -0.0227158 -0.641748 
0.0708912 -0.0254458 -0.646011 0.070321 -0.0278587 -0.649578 0.0698688 -0.0299206 -0.652462 
0.0695331 -0.0315966 -0.65468 0.069302 -0.0328538 -0.656248 0.0691611 -0.0336654 -0.657185 
0.0690994 -0.0340129 -0.6575 
LINES 2 100
OFFSETS vtktypeint64
0 100 
CONNECTIVITY vtktypeint64
0 1 2 3 4 5 6 7 8 
9 10 11 12 13 14 15 16 17 
18 19 20 21 22 23 24 25 26 
27 28 29 30 31 32 33 34 35 
36 37 38 39 40 41 42 43 44 
45 46 47 48 49 50 51 52 53 
54 55 56 57 58 59 60 61 62 
63 64 65 66 67 68 69 70 71 
72 73 74 75 76 77 78 79 80 
81 82 83 84 85 86 87 88 89 
90 91 92 93 94 95 96 97 98 
99 
POINT_DATA 100
FIELD FieldData 3
_theta 1 100 double
0 0.031733259127 0.063466518254 0.095199777382 0.12693303651 0.15866629564 0.19039955476 0.22213281389 0.25386607302 
0.28559933214 0.31733259127 0.3490658504 0.38079910953 0.41253236865 0.44426562778 0.47599888691 0.50773214603 0.53946540516 
0.57119866429 0.60293192342 0.63466518254 0.66639844167 0.6981317008 0.72986495992 0.76159821905 0.79333147818 0.82506473731 
0.85679799643 0.88853125556 0.92026451469 0.95199777382 0.98373103294 1.0154642921 1.0471975512 1.0789308103 1.1106640695 
1.1423973286 1.1741305877 1.2058638468 1.237597106 1.2693303651 1.3010636242 1.3327968833 1.3645301425 1.3962634016 
1.4279966607 1.4597299198 1.491463179 1.5231964381 1.5549296972 1.5866629564 1.6183962155 1.6501294746 1.6818627337 
1.7135959929 1.745329252 1.7770625111 1.8087957702 1.8405290294 1.8722622885 1.9039955476 1.9357288068 1.9674620659 
1.999195325 2.0309285841 2.0626618433 2.0943951024 2.1261283615 2.1578616206 2.1895948798 2.2213281389 2.253061398 
2.2847946572 2.3165279163 2.3482611754 2.3799944345 2.4117276937 2.4434609528 2.4751942119 2.506927471 2.5386607302 
2.5703939893 2.6021272484 2.6338605076 2.6655937667 2.6973270258 2.7290602849 2.7607935441 2.7925268032 2.8242600623 
2.8559933214 2.8877265806 2.9194598397 2.9511930988 2.982926358 3.0146596171 3.0463928762 3.0781261353 3.1098593945 
3.1415926536 
_radius 1 100 double
8.8831393463e-16 0.013047089479 0.026143585435 0.039321675085 0.052593985974 0.065946962213 0.079337466357 0.092693109159 0.10591626199 
0.1188911748 0.1314932432 0.14359928913 0.15509770958 0.16589744748 0.17593489982 0.18517808012 0.19362759638 0.20131430231 
0.20829383636 0.21463866336 0.22042862618 0.22574130854 0.23064359895 0.23518565454 0.23939799107 0.24329177173 0.24686170583 
0.2500904919 0.25295358404 0.255423252 0.25747135424 0.25907078477 0.26019600785 0.26082332121 0.26093143185 0.2605026413 
0.25952457166 0.2579921042 0.25590916452 0.25329016576 0.25016119853 0.24656127682 0.24254398372 0.23817965418 0.23355782571 
0.22878919139 0.22400584943 0.21935842162 0.21500879608 0.21111803228 0.20783039987 0.20525627535 0.20345788037 0.20244168439 
0.20215941217 0.20251677032 0.20338668242 0.20462316253 0.20607312505 0.20758555169 0.20901916958 0.21025015937 0.21118040343 
0.21174529299 0.21191917803 0.21171663661 0.21118866032 0.21041410281 0.20948784247 0.20850771423 0.20756219209 0.20672013434 
0.20602297975 0.20547907461 0.20505968677 0.20469676353 0.2042832408 0.20367710988 0.20271007458 0.20120055561 0.19896952063 
0.19585671626 0.19173468129 0.18651842921 0.18016967347 0.1726956107 0.16414326159 0.1545909779 0.14413887686 0.1328997189 
0.12099123529 0.10853029595 0.095628723482 0.08239015043 0.068907225397 0.055258794277 0.041507325598 0.027697479839 0.013856917684 
1.6323991433e-15 
_area 1 100 double
0 0.00049148522714 0.0019712409005 0.0044529490015 0.0079522933114 0.01247724278 0.018016369909 0.024527086138 0.031926080294 
0.040084379853 0.048829068844 0.057952612109 0.067229084261 0.076434908454 0.085370652747 0.093880372321 0.10186566872 0.10929244046 
0.11618892615 0.12263449569 0.12874029903 0.13462514842 0.14039180386 0.14610908266 0.15180361992 0.1574619193 0.16303924436 
0.16846876681 0.17366511297 0.1785222116 0.18291189771 0.18668990562 0.18970970748 0.19183973666 0.192979139 0.19306874601 
0.19209574805 0.19009205182 0.18712709023 0.18329661227 0.17871062911 0.17348493161 0.16773909703 0.16160013698 0.15520778311 
0.14871689761 0.14229482232 0.13611476409 0.13034762409 0.12515312137 0.12066880079 0.1169953717 0.11417890004 0.11219320649 
0.11094185104 0.11029530519 0.11012008625 0.11027020888 0.11056540039 0.11079041155 0.11072404531 0.11018541544 0.10907841217 
0.10741542166 0.10530537863 0.10290415924 0.10035829154 0.097790146391 0.095313838818 0.093036453633 0.091044214293 0.089399847891 
0.088172669531 0.087408565523 0.087137941591 0.087560090834 0.088624031339 0.08994920283 0.091206186991 0.092097266311 0.092338968458 
0.091677121125 0.089909094177 0.086907602443 0.082640306385 0.077178620863 0.070691545016 0.063424676141 0.055668596779 0.047723548203 
0.039868386862 0.032340586082 0.02533000803 0.018983736545 0.013415985908 0.0087181725399 0.0049670474614 0.0022293390524 0.0005608135113 
8.2399365109e-18 
