# vtk DataFile Version 5.1
vtk output
ASCII
DATASET POLYDATA
POINTS 100 float
0.0348695 0.0286999 -0.677492 0.0346556 0.0285114 -0.67724 0.0340386 0.0281185 -0.676521 
0.0330694 0.027549 -0.675298 0.0318261 0.0268465 -0.673514 0.0304041 0.0260681 -0.671097 
0.0289037 0.0252806 -0.667972 0.0274171 0.0245562 -0.664067 0.026016 0.0239685 -0.659323 
0.0247411 0.0235889 -0.653698 0.0235953 0.0234831 -0.647178 0.0225406 0.0237084 -0.639771 
0.0215005 0.0243122 -0.631512 0.020366 0.0253303 -0.622455 0.0190054 0.0267861 -0.612671 
0.0172778 0.0286901 -0.602234 0.0150469 0.0310393 -0.591221 0.012195 0.033817 -0.579697 
0.00863526 0.0369916 -0.567714 0.00432104 0.0405172 -0.555302 -0.000749143 0.0443323 -0.542473 
-0.00653091 0.0483616 -0.529218 -0.012938 0.052516 -0.515511 -0.0198502 0.0566958 -0.501316 
-0.0271248 0.0607942 -0.486589 -0.0346095 0.0647014 -0.471287 -0.0421556 0.0683112 -0.455373 
-0.0496309 0.0715267 -0.438821 -0.0569297 0.0742666 -0.421615 -0.0639787 0.0764717 -0.403756 
-0.0707403 0.0781086 -0.385253 -0.0772104 0.0791725 -0.366126 -0.0834126 0.0796879 -0.3464 
-0.0893896 0.0797055 -0.326099 -0.0951919 0.0792981 -0.305247 -0.100866 0.078553 -0.28386 
-0.106445 0.0775639 -0.261946 -0.111934 0.0764212 -0.239509 -0.117311 0.0752035 -0.216547 
-0.122519 0.0739701 -0.193055 -0.127469 0.0727555 -0.169035 -0.132043 0.071567 -0.144495 
-0.136105 0.0703862 -0.119456 -0.139509 0.0691724 -0.0939582 -0.142111 0.06787 -0.0680591 
-0.143781 0.0664174 -0.0418379 -0.144412 0.0647565 -0.0153928 -0.143929 0.062843 0.0111616 
-0.142294 0.0606539 0.0376988 -0.139506 0.0581938 0.0640858 -0.135603 0.0554972 0.0901891 
-0.130654 0.0526271 0.115881 -0.124751 0.0496709 0.141045 -0.118007 0.0467324 0.16558 
-0.11054 0.0439221 0.189404 -0.10247 0.0413465 0.212455 -0.0939101 0.0390974 0.234696 
-0.0849597 0.0372435 0.256109 -0.0757046 0.0358237 0.276694 -0.0662147 0.0348444 0.296473 
-0.0565458 0.0342802 0.315482 -0.0467427 0.0340785 0.33377 -0.036843 0.0341668 0.351398 
-0.0268813 0.0344617 0.368435 -0.0168928 0.0348798 0.384958 -0.00691599 0.035347 0.401044 
0.00300566 0.0358065 0.416775 0.0128242 0.036225 0.432229 0.0224886 0.0365941 0.447477 
0.0319474 0.0369297 0.462584 0.041152 0.0372667 0.4776 0.0500602 0.0376527 0.49256 
0.0586391 0.0381388 0.507479 0.0668667 0.0387702 0.522351 0.0747334 0.0395782 0.537149 
0.0822405 0.0405733 0.551823 0.0893982 0.0417415 0.566307 0.0962221 0.0430433 0.580516 
0.102729 0.0444164 0.594356 0.108934 0.045781 0.60773 0.114844 0.0470474 0.62054 
0.120455 0.0481252 0.632698 0.125755 0.0489316 0.644127 0.130719 0.0494005 0.654769 
0.135313 0.049488 0.664587 0.139498 0.0491768 0.673562 0.143234 0.0484772 0.681698 
0.146487 0.0474253 0.689015 0.149233 0.0460788 0.695547 0.151463 0.0445118 0.701337 
0.153187 0.0428077 0.706435 0.154434 0.0410524 0.710887 0.155256 0.0393285 0.714739 
0.155718 0.03771 0.718029 0.1559 0.03626 0.720788 0.155887 0.0350283 0.723038 
0.155762 0.0340524 0.724793 0.1556 0.0333581 0.726062 0.155461 0.0329617 0.726849 
0.155381 0.0328716 0.727155 
LINES 2 100
OFFSETS vtktypeint64
0 100 
CONNECTIVITY vtktypeint64
0 1 2 3 4 5 6 7 8 
9 10 11 12 13 14 15 16 17 
18 19 20 21 22 23 24 25 26 
27 28 29 30 31 32 33 34 35 
36 37 38 39 40 41 42 43 44 
45 46 47 48 49 50 51 52 53 
54 55 56 57 58 59 60 61 62 
63 64 65 66 67 68 69 70 71 
72 73 74 75 76 77 78 79 80 
81 82 83 84 85 86 87 88 89 
90 91 92 93 94 95 96 97 98 
99 
POINT_DATA 100
FIELD FieldData 3
_theta 1 100 double
0 0.031733259127 0.063466518254 0.095199777382 0.12693303651 0.15866629564 0.19039955476 0.22213281389 0.25386607302 
0.28559933214 0.31733259127 0.3490658504 0.38079910953 0.41253236865 0.44426562778 0.47599888691 0.50773214603 0.53946540516 
0.57119866429 0.60293192342 0.63466518254 0.66639844167 0.6981317008 0.72986495992 0.76159821905 0.79333147818 0.82506473731 
0.85679799643 0.88853125556 0.92026451469 0.95199777382 0.98373103294 1.0154642921 1.0471975512 1.0789308103 1.1106640695 
1.1423973286 1.1741305877 1.2058638468 1.237597106 1.2693303651 1.3010636242 1.3327968833 1.3645301425 1.3962634016 
1.4279966607 1.4597299198 1.491463179 1.5231964381 1.5549296972 1.5866629564 1.6183962155 1.6501294746 1.6818627337 
1.7135959929 1.745329252 1.7770625111 1.8087957702 1.8405290294 1.8722622885 1.9039955476 1.9357288068 1.9674620659 
1.999195325 2.0309285841 2.0626618433 2.0943951024 2.1261283615 2.1578616206 2.1895948798 2.2213281389 2.253061398 
2.2847946572 2.3165279163 2.3482611754 2.3799944345 2.4117276937 2.4434609528 2.4751942119 2.506927471 2.5386607302 
2.5703939893 2.6021272484 2.6338605076 2.6655937667 2.6973270258 2.7290602849 2.7607935441 2.7925268032 2.8242600623 
2.8559933214 2.8877265806 2.9194598397 2.9511930988 2.982926358 3.0146596171 3.0463928762 3.0781261353 3.1098593945 
3.1415926536 
_radius 1 100 double
1.1121512301e-15 0.013953363859 0.02790982855 0.041866828669 0.055813688444 0.069726345424 0.083561878988 0.097254232289 0.11071268268 
0.12382415994 0.13645961849 0.14848368467 0.15976604702 0.17019272087 0.17967541984 0.18815772016 0.19561737334 0.20206485962 
0.2075389314 0.21210033459 0.21582501558 0.21879788987 0.22110774087 0.22284322075 0.22408949326 0.22492499212 0.22541808406 
0.22562390713 0.22558198145 0.22531516793 0.22483024883 0.22412006752 0.22316699405 0.22194750038 0.22043771449 0.21861981636 
0.21648895185 0.21406000683 0.21137325593 0.20849774814 0.20553141092 0.20259724968 0.19983568138 0.19739398402 0.19541491167 
0.19402702547 0.1933382648 0.19343189089 0.19436214941 0.19614768178 0.19876337551 0.2021337874 0.20613180807 0.21058475207 
0.21528762763 0.22002127594 0.22457212608 0.2287504681 0.23240494295 0.23543192915 0.23777942769 0.23944581919 0.24047442692 
0.24094507257 0.2409636963 0.24065071562 0.24012839942 0.23950749743 0.23887388244 0.23827684457 0.23772135119 0.23716641599 
0.23653049287 0.23570300133 0.23455955005 0.23297775803 0.23085083056 0.22809691103 0.22466331133 0.22052573474 0.21568339404 
0.21015146259 0.20395257952 0.19710911883 0.18963755292 0.18154552507 0.17283141599 0.16348558782 0.15349236283 0.14283215838 
0.13148382431 0.11942774585 0.10665036059 0.093150291642 0.078945524917 0.064080330868 0.048630279651 0.032703856498 0.016439782968 
6.7378636268e-16 
_area 1 100 double
0 0.0004962701442 0.001983767146 0.0044579781977 0.0079091072511 0.012317680227 0.017647373899 0.023835746096 0.030784958031 
0.038355383376 0.046364647229 0.054593385508 0.06279756794 0.070726041228 0.078141017998 0.084838457433 0.090664868688 0.09552758195 
0.099397384451 0.10230500066 0.10433429817 0.10561364299 0.10630337871 0.10657626648 0.10659505933 0.10650179167 0.10642194488 
0.10646449508 0.10670776496 0.10718150368 0.10785747603 0.10865297911 0.10944544909 0.11009294838 0.11045603596 0.11041972401 
0.10991513672 0.10893911778 0.10756826353 0.1059609731 0.10434327843 0.10297361698 0.10192702857 0.10115644596 0.10065337266 
0.10046487433 0.10075521954 0.10180431158 0.1037712185 0.1067444364 0.11078623149 0.11586492776 0.12182569184 0.12841175496 
0.13531481408 0.1422239573 0.14885687021 0.15497212281 0.16036865826 0.1648798274 0.16836760773 0.17072150294 0.17186538731 
0.17177219317 0.17048202468 0.16811656456 0.16488239698 0.16105764561 0.15695969191 0.15289635558 0.14910855839 0.14571901003 
0.14270651069 0.13992251343 0.13714929097 0.13417345618 0.13083854104 0.12705886799 0.12280280566 0.11806417794 0.11283835663 
0.10711310941 0.10087572485 0.094129326812 0.08690775532 0.07928201385 0.071357688599 0.063266549541 0.055155486434 0.047174414753 
0.039464701098 0.032151312566 0.025342238168 0.019135134555 0.013626330067 0.0089162842034 0.0051084692657 0.0023020102532 0.00058046224652 
5.0921295263e-17 
