# vtk DataFile Version 5.1
vtk output
ASCII
DATASET POLYDATA
POINTS 100 float
0.108139 0.0303838 0.647042 0.10809 0.0303913 0.646846 0.108 0.030264 0.646077 
0.107868 0.0300324 0.644698 0.107692 0.0297439 0.642655 0.107468 0.0294578 0.639885 
0.107193 0.0292395 0.636325 0.106861 0.0291536 0.631921 0.106469 0.0292573 0.626639 
0.10601 0.0295955 0.62047 0.105474 0.0301965 0.613433 0.104849 0.03107 0.60558 
0.104113 0.0322072 0.59699 0.103239 0.0335823 0.587764 0.102192 0.0351559 0.578018 
0.100927 0.0368785 0.567869 0.0993951 0.0386959 0.557431 0.097541 0.0405525 0.546798 
0.0953114 0.0423956 0.536043 0.0926578 0.0441777 0.525209 0.0895418 0.045858 0.51431 
0.0859402 0.0474028 0.503329 0.0818482 0.0487851 0.492227 0.0772821 0.0499836 0.48095 
0.0722791 0.0509814 0.469437 0.0668948 0.0517659 0.457629 0.0611988 0.0523279 0.44548 
0.0552681 0.0526623 0.432961 0.0491794 0.0527697 0.420067 0.0430009 0.0526576 0.406816 
0.0367848 0.0523426 0.393248 0.0305619 0.0518524 0.379415 0.024338 0.0512258 0.365381 
0.0180942 0.0505137 0.351205 0.0117902 0.0497765 0.336937 0.00537115 0.0490821 0.322606 
-0.00122324 0.0485007 0.308214 -0.00804749 0.0481002 0.293735 -0.0151389 0.0479405 0.279112 
-0.0225073 0.0480673 0.264264 -0.0301264 0.0485085 0.249087 -0.0379294 0.0492703 0.233471 
-0.0458082 0.0503361 0.217305 -0.0536176 0.0516681 0.200489 -0.0611836 0.0532097 0.182948 
-0.0683153 0.0548915 0.164637 -0.0748194 0.056637 0.145546 -0.0805158 0.0583705 0.125706 
-0.0852527 0.0600236 0.105183 -0.088919 0.0615415 0.084075 -0.0914536 0.0628875 0.0625029 
-0.0928504 0.0640449 0.0406018 -0.0931577 0.0650172 0.0185091 -0.092473 0.0658249 -0.00364539 
-0.0909336 0.0665016 -0.0257485 -0.0887037 0.0670871 -0.0477103 -0.0859598 0.0676213 -0.0694675 
-0.0828762 0.0681369 -0.090984 -0.0796107 0.0686542 -0.112248 -0.0762943 0.0691768 -0.133266 
-0.0730232 0.0696894 -0.154057 -0.0698562 0.0701586 -0.174643 -0.0668152 0.0705348 -0.195043 
-0.0638897 0.070757 -0.215263 -0.0610448 0.0707583 -0.235296 -0.0582301 0.0704719 -0.255116 
-0.0553899 0.0698377 -0.274681 -0.052472 0.0688072 -0.293935 -0.0494355 0.0673475 -0.312813 
-0.0462561 0.065444 -0.331247 -0.0429285 0.0631006 -0.349177 -0.039466 0.060339 -0.36655 
-0.0358984 0.0571967 -0.383332 -0.032268 0.0537233 -0.399506 -0.0286245 0.0499779 -0.415073 
-0.0250202 0.0460255 -0.430051 -0.0215059 0.0419348 -0.44447 -0.0181279 0.0377762 -0.458364 
-0.0149266 0.0336207 -0.471765 -0.0119362 0.0295395 -0.484696 -0.00918602 0.0256041 -0.497162 
-0.00670182 0.0218857 -0.509151 -0.00450774 0.018455 -0.520625 -0.00262738 0.0153804 -0.531528 
-0.00108396 0.0127256 -0.541786 0.000100691 0.0105464 -0.551318 0.000908521 0.00888617 -0.560036 
0.00132853 0.00777184 -0.567867 0.00136062 0.00720914 -0.57475 0.00101934 0.0071794 -0.580653 
0.000336814 0.00763747 -0.585574 -0.000635785 0.00851182 -0.589548 -0.00182867 0.00970682 -0.592638 
-0.00315607 0.0111074 -0.594942 -0.00452096 0.0125862 -0.596575 -0.0058216 0.0140119 -0.597666 
-0.00695927 0.0152587 -0.598341 -0.00784631 0.0162165 -0.598717 -0.00841366 0.0167991 -0.598886 
-0.00861704 0.016952 -0.598907 
LINES 2 100
OFFSETS vtktypeint64
0 100 
CONNECTIVITY vtktypeint64
0 1 2 3 4 5 6 7 8 
9 10 11 12 13 14 15 16 17 
18 19 20 21 22 23 24 25 26 
27 28 29 30 31 32 33 34 35 
36 37 38 39 40 41 42 43 44 
45 46 47 48 49 50 51 52 53 
54 55 56 57 58 59 60 61 62 
63 64 65 66 67 68 69 70 71 
72 73 74 75 76 77 78 79 80 
81 82 83 84 85 86 87 88 89 
90 91 92 93 94 95 96 97 98 
99 
POINT_DATA 100
FIELD FieldData 3
_theta 1 100 double
0 0.031733259127 0.063466518254 0.095199777382 0.12693303651 0.15866629564 0.19039955476 0.22213281389 0.25386607302 
0.28559933214 0.31733259127 0.3490658504 0.38079910953 0.41253236865 0.44426562778 0.47599888691 0.50773214603 0.53946540516 
0.57119866429 0.60293192342 0.63466518254 0.66639844167 0.6981317008 0.72986495992 0.76159821905 0.79333147818 0.82506473731 
0.85679799643 0.88853125556 0.92026451469 0.95199777382 0.98373103294 1.0154642921 1.0471975512 1.0789308103 1.1106640695 
1.1423973286 1.1741305877 1.2058638468 1.237597106 1.2693303651 1.3010636242 1.3327968833 1.3645301425 1.3962634016 
1.4279966607 1.4597299198 1.491463179 1.5231964381 1.5549296972 1.5866629564 1.6183962155 1.6501294746 1.6818627337 
1.7135959929 1.745329252 1.7770625111 1.8087957702 1.8405290294 1.8722622885 1.9039955476 1.9357288068 1.9674620659 
1.999195325 2.0309285841 2.0626618433 2.0943951024 2.1261283615 2.1578616206 2.1895948798 2.2213281389 2.253061398 
2.2847946572 2.3165279163 2.3482611754 2.3799944345 2.4117276937 2.4434609528 2.4751942119 2.506927471 2.5386607302 
2.5703939893 2.6021272484 2.6338605076 2.6655937667 2.6973270258 2.7290602849 2.7607935441 2.7925268032 2.8242600623 
2.8559933214 2.8877265806 2.9194598397 2.9511930988 2.982926358 3.0146596171 3.0463928762 3.0781261353 3.1098593945 
3.1415926536 
_radius 1 100 double
8.0971272765e-16 0.01253522258 0.024880955434 0.036865158364 0.048351870811 0.059251978751 0.06952688665 0.079185096301 0.088272937962 
0.096861564707 0.10503266824 0.11286517802 0.12042455887 0.12775545728 0.1348777006 0.14178531238 0.14844830996 0.15481731662 
0.16083102883 0.16642608428 0.17154802139 0.17616126455 0.18025588991 0.18384953028 0.18698398956 0.18971750238 0.19211458306 
0.19423570697 0.19612860495 0.1978220077 0.19932178299 0.20060909808 0.20164069601 0.20235219289 0.20266566203 0.20250203499 
0.2017971439 0.20051839232 0.19867799057 0.1963388805 0.19361087973 0.19063693067 0.18757218624 0.18456116139 0.18171913939 
0.17912261174 0.1768101845 0.17479177543 0.17306174686 0.17161143636 0.17043779499 0.16954654849 0.16894977191 0.16865887808 
0.16867499013 0.16897956349 0.16952853714 0.17025259584 0.17106416157 0.1718692875 0.17258098838 0.17313046626 0.17347388445 
0.1735939229 0.17349664181 0.1732050261 0.17275107206 0.1721683847 0.17148678948 0.17072941973 0.16991161319 0.16904044231 
0.16811405052 0.16712073974 0.1660383228 0.16483429495 0.16346697773 0.16188726914 0.16004033859 0.15786674717 0.15530303617 
0.15228253295 0.14873752244 0.14460364388 0.13982638373 0.13436829522 0.12821474038 0.12137597518 0.11388432431 0.10578671222 
0.097134447882 0.08797335468 0.078337579596 0.068249422545 0.057725486616 0.04678712455 0.03547156817 0.023839954186 0.011979631945 
6.3788779851e-16 
_area 1 100 double
0 0.00045775598298 0.0018027026854 0.0039548809825 0.0067963918329 0.010190304574 0.014000308872 0.018107032779 0.022418367455 
0.026872928476 0.03143728187 0.036098430093 0.040853404283 0.04569796709 0.050616538131 0.055575392496 0.060520886994 0.065384143161 
0.070093280356 0.074593182795 0.078869601142 0.082967649671 0.086984485498 0.091019293896 0.095111899797 0.099229475086 0.1032963277 
0.10722842112 0.11095914843 0.11445275394 0.11770091499 0.12070333708 0.12343637929 0.12581741277 0.12768632075 0.1288255501 
0.12901605495 0.12810561553 0.1260650361 0.12301794713 0.11923832641 0.11511146814 0.1110537536 0.10740429286 0.10434222168 
0.1018818035 0.099926835635 0.098329623434 0.09692620082 0.095550477686 0.094044838302 0.092281819299 0.090193454652 0.087794093304 
0.085187571265 0.082556272344 0.080128882704 0.078123208899 0.07667501553 0.075784958264 0.075322160874 0.075086551927 0.074877038026 
0.074531565397 0.07394552543 0.073077923145 0.071948487269 0.070628149614 0.069224599313 0.067862520381 0.066659013749 0.0657006962 
0.065032114898 0.064656550516 0.064540867409 0.064619094134 0.064796473657 0.064956844585 0.064973123559 0.064717572626 0.064068020207 
0.062910234348 0.061142874974 0.058690930773 0.05552440587 0.051672752465 0.047227585937 0.042331717362 0.037157771001 0.0318835123 
0.026672215878 0.021663682386 0.016975638681 0.012709881304 0.0089565259818 0.0057933366369 0.0032819048987 0.0014648562177 0.00036701698359 
1.1024047207e-17 
