# vtk DataFile Version 5.1
vtk output
ASCII
DATASET POLYDATA
POINTS 100 float
0.107538 0.0486173 0.604818 0.107524 0.0487248 0.604813 0.107548 0.0488995 0.604629 
0.107594 0.0491282 0.60421 0.107632 0.0493908 0.60347 0.107626 0.0496631 0.602301 
0.107538 0.0499199 0.60058 0.107327 0.0501381 0.598186 0.106957 0.0502998 0.595003 
0.106398 0.0503942 0.590937 0.105625 0.0504187 0.585918 0.104624 0.0503785 0.57991 
0.103385 0.0502858 0.572907 0.101903 0.0501563 0.56494 0.100177 0.0500071 0.556066 
0.0982035 0.0498525 0.546363 0.0959787 0.0497014 0.535928 0.0934937 0.0495546 0.524864 
0.0907352 0.0494039 0.51327 0.0876851 0.0492318 0.501244 0.0843224 0.0490136 0.488865 
0.080625 0.04872 0.476202 0.0765719 0.0483216 0.463304 0.0721461 0.0477929 0.450206 
0.0673363 0.0471175 0.436931 0.0621391 0.0462921 0.42349 0.0565588 0.0453293 0.40989 
0.0506076 0.0442591 0.396136 0.0443046 0.043129 0.382233 0.037674 0.0420011 0.36819 
0.0307437 0.0409484 0.354016 0.0235434 0.0400494 0.339726 0.0161042 0.0393818 0.325331 
0.00845838 0.0390156 0.31084 0.000640569 0.0390075 0.296256 -0.00731059 0.039395 0.281574 
-0.0153498 0.0401932 0.266776 -0.0234226 0.0413932 0.251833 -0.031463 0.0429623 0.236706 
-0.0393918 0.0448464 0.221343 -0.0471172 0.0469745 0.205689 -0.054536 0.0492639 0.189688 
-0.0615371 0.0516272 0.173286 -0.0680069 0.0539784 0.156438 -0.0738356 0.0562393 0.139115 
-0.0789241 0.0583445 0.121303 -0.0831913 0.0602452 0.103012 -0.0865795 0.0619116 0.084269 
-0.089059 0.0633323 0.0651258 -0.0906298 0.0645137 0.04565 -0.0913211 0.0654769 0.0259241 
-0.0911875 0.0662535 0.00603957 -0.0903038 0.0668814 -0.0139088 -0.088757 0.0674 -0.0338286 
-0.0866384 0.067846 -0.0536355 -0.084035 0.0682493 -0.0732581 -0.0810231 0.0686309 -0.0926412 
-0.0776629 0.0690008 -0.111748 -0.073996 0.0693575 -0.130559 -0.0700462 0.0696889 -0.149076 
-0.0658224 0.0699737 -0.167311 -0.0613244 0.070183 -0.185291 -0.0565497 0.0702833 -0.203048 
-0.0515008 0.0702387 -0.220615 -0.0461924 0.0700139 -0.238023 -0.0406556 0.069576 -0.255293 
-0.0349415 0.0688965 -0.272436 -0.0291199 0.0679532 -0.289445 -0.0232764 0.0667308 -0.306298 
-0.017506 0.065222 -0.322957 -0.0119048 0.0634275 -0.339365 -0.00656132 0.0613567 -0.355454 
-0.00154767 0.0590275 -0.371146 0.00308797 0.0564658 -0.386359 0.00732592 0.0537054 -0.401011 
0.0111766 0.0507874 -0.415025 0.0146786 0.0477593 -0.428336 0.0178931 0.0446741 -0.440895 
0.0208959 0.0415885 -0.45267 0.0237673 0.0385619 -0.463654 0.0265815 0.0356537 -0.473857 
0.0293971 0.0329213 -0.483314 0.0322493 0.030418 -0.492074 0.0351451 0.0281901 -0.500201 
0.0380625 0.0262751 -0.507768 0.0409534 0.0246993 -0.514848 0.0437499 0.0234764 -0.521509 
0.0463733 0.0226066 -0.52781 0.0487447 0.0220761 -0.533794 0.0507952 0.0218579 -0.539481 
0.0524757 0.0219124 -0.544874 0.0537636 0.02219 -0.549949 0.0546656 0.0226332 -0.554665 
0.0552178 0.0231796 -0.558962 0.055481 0.0237659 -0.56277 0.0555329 0.0243304 -0.566013 
0.0554582 0.0248174 -0.568615 0.055338 0.0251797 -0.570513 0.0552385 0.0253816 -0.571654 
0.0552034 0.0254009 -0.572006 
LINES 2 100
OFFSETS vtktypeint64
0 100 
CONNECTIVITY vtktypeint64
0 1 2 3 4 5 6 7 8 
9 10 11 12 13 14 15 16 17 
18 19 20 21 22 23 24 25 26 
27 28 29 30 31 32 33 34 35 
36 37 38 39 40 41 42 43 44 
45 46 47 48 49 50 51 52 53 
54 55 56 57 58 59 60 61 62 
63 64 65 66 67 68 69 70 71 
72 73 74 75 76 77 78 79 80 
81 82 83 84 85 86 87 88 89 
90 91 92 93 94 95 96 97 98 
99 
POINT_DATA 100
FIELD FieldData 3
_theta 1 100 double
0 0.031733259127 0.063466518254 0.095199777382 0.12693303651 0.15866629564 0.19039955476 0.22213281389 0.25386607302 
0.28559933214 0.31733259127 0.3490658504 0.38079910953 0.41253236865 0.44426562778 0.47599888691 0.50773214603 0.53946540516 
0.57119866429 0.60293192342 0.63466518254 0.66639844167 0.6981317008 0.72986495992 0.76159821905 0.79333147818 0.82506473731 
0.85679799643 0.88853125556 0.92026451469 0.95199777382 0.98373103294 1.0154642921 1.0471975512 1.0789308103 1.1106640695 
1.1423973286 1.1741305877 1.2058638468 1.237597106 1.2693303651 1.3010636242 1.3327968833 1.3645301425 1.3962634016 
1.4279966607 1.4597299198 1.491463179 1.5231964381 1.5549296972 1.5866629564 1.6183962155 1.6501294746 1.6818627337 
1.7135959929 1.745329252 1.7770625111 1.8087957702 1.8405290294 1.8722622885 1.9039955476 1.9357288068 1.9674620659 
1.999195325 2.0309285841 2.0626618433 2.0943951024 2.1261283615 2.1578616206 2.1895948798 2.2213281389 2.253061398 
2.2847946572 2.3165279163 2.3482611754 2.3799944345 2.4117276937 2.4434609528 2.4751942119 2.506927471 2.5386607302 
2.5703939893 2.6021272484 2.6338605076 2.6655937667 2.6973270258 2.7290602849 2.7607935441 2.7925268032 2.8242600623 
2.8559933214 2.8877265806 2.9194598397 2.9511930988 2.982926358 3.0146596171 3.0463928762 3.0781261353 3.1098593945 
3.1415926536 
_radius 1 100 double
1.3386851061e-15 0.012510004634 0.02495529771 0.037271997365 0.049403155305 0.061299750374 0.072919521685 0.084224134128 0.095175659976 
0.10573351244 0.11585275787 0.12548427527 0.1345767111 0.14307976665 0.15094815749 0.15814561193 0.16464846473 0.17044863876 
0.17555596723 0.17999980738 0.18382973754 0.18711490798 0.18994148532 0.1924077246 0.19461657567 0.19666631915 0.19864036477 
0.20059780843 0.20256643604 0.20453949819 0.20647684883 0.20831017971 0.20995137308 0.21130263422 0.21226709183 0.21275885203 
0.21271187581 0.21208735507 0.21087940531 0.20911887549 0.20687494636 0.20425401402 0.20139521443 0.19846195763 0.19562919149 
0.19306700805 0.19092267098 0.189304697 0.18827315673 0.18783882625 0.18797048342 0.18860638425 0.18966483668 0.19105044113 
0.19265599837 0.19436340148 0.19604791804 0.19758807574 0.19887941445 0.19984778688 0.20045817276 0.20071700491 0.20066809204 
0.20038361513 0.19995235663 0.19946741176 0.19901520792 0.19866685837 0.19847197216 0.19845437609 0.19860905384 0.19890002466 
0.19925959814 0.19958994498 0.1997678028 0.19965240999 0.19909584723 0.19795431244 0.19609865855 0.19342277133 0.18984895161 
0.18533021276 0.17985004932 0.17342052562 0.16607939143 0.15788653131 0.14891971612 0.13926958035 0.12903397825 0.11831217279 
0.10719947225 0.095782866012 0.084137982521 0.072327443485 0.060400540834 0.048394126727 0.036334561945 0.024240395989 0.012125211448 
1.0494368738e-15 
_area 1 100 double
0 0.00043894000311 0.0017466292866 0.0038963714362 0.006845780571 0.010539292636 0.01491064201 0.019884748919 0.025378753424 
0.031302295372 0.037557490587 0.044039285124 0.050636813605 0.05723596224 0.063722790664 0.069987291327 0.075927406821 0.081453957729 
0.086497481969 0.091017423543 0.095012595888 0.098529881414 0.10166659181 0.10456187211 0.10737510836 0.11025490075 0.11330827722 
0.11658081659 0.12005210899 0.12364345645 0.12723204898 0.13066723233 0.13378620857 0.13642733696 0.13844026824 0.13969409582 
0.14008607815 0.13955238768 0.13807939128 0.13571199473 0.13255625817 0.12877569144 0.12458216856 0.12022226509 0.1159584856 
0.11204254002 0.10867512275 0.10595417121 0.10384809884 0.10224082797 0.10101531068 0.10009993201 0.099462472486 0.099080078274 
0.098912138572 0.098887060324 0.098902299786 0.098837378165 0.098577698448 0.098039032769 0.097179679117 0.095993184732 0.094492472573 
0.092710484255 0.090712568442 0.088597108116 0.08648412014 0.084502758687 0.082782878296 0.081448309543 0.080605538597 0.080323564768 
0.080610507697 0.081400143779 0.082550103543 0.083811932728 0.084860673671 0.085428181999 0.0853276014 0.084436828989 0.082689491232 
0.080070074862 0.07660717838 0.07236363632 0.067427191619 0.061905872044 0.055927791957 0.049640734328 0.043207515314 0.036796894062 
0.030572262586 0.024680914955 0.019246581409 0.01436708084 0.010117084704 0.0065540527876 0.0037245736182 0.0016685187034 0.00041924430081 
1.9342685967e-17 
