# vtk DataFile Version 5.1
vtk output
ASCII
DATASET POLYDATA
POINTS 100 float
0.108355 -0.0359339 -0.682096 0.108443 -0.035831 -0.682052 0.108679 -0.0356988 -0.681874 
0.109013 -0.035493 -0.681504 0.109368 -0.0351449 -0.680852 0.109649 -0.034571 -0.679806 
0.109754 -0.0336825 -0.678244 0.109585 -0.032397 -0.676041 0.109058 -0.0306482 -0.673088 
0.108109 -0.0283933 -0.669293 0.106699 -0.0256175 -0.664595 0.104816 -0.0223349 -0.658961 
0.102471 -0.0185855 -0.652387 0.0996893 -0.0144295 -0.644897 0.0965077 -0.00993913 -0.636529 
0.0929626 -0.00519018 -0.627336 0.0890837 -0.000253647 -0.617369 0.0848881 0.00481074 -0.606676 
0.0803782 0.00995833 -0.595289 0.0755418 0.0151604 -0.583229 0.0703564 0.0204016 -0.570501 
0.0647951 0.0256754 -0.557095 0.0588348 0.0309771 -0.542995 0.0524641 0.0362968 -0.528181 
0.0456899 0.0416132 -0.512637 0.0385419 0.0468888 -0.49636 0.0310736 0.0520682 -0.479358 
0.0233602 0.0570796 -0.461655 0.0154921 0.0618393 -0.443294 0.00756689 0.0662589 -0.424328 
-0.000321298 0.0702539 -0.404817 -0.00809137 0.0737534 -0.384824 -0.015684 0.0767073 -0.364407 
-0.0230672 0.0790936 -0.343609 -0.0302378 0.0809201 -0.32246 -0.0372185 0.0822242 -0.300971 
-0.0440508 0.0830684 -0.279136 -0.0507839 0.0835321 -0.256933 -0.0574618 0.0837025 -0.234332 
-0.0641097 0.0836633 -0.211301 -0.0707218 0.0834848 -0.187815 -0.0772523 0.0832154 -0.16386 
-0.0836107 0.0828773 -0.139443 -0.0896629 0.0824644 -0.114595 -0.0952381 0.0819455 -0.0893716 
-0.10014 0.0812703 -0.0638501 -0.104165 0.0803786 -0.0381282 -0.107115 0.0792106 -0.0123162 
-0.108823 0.0777173 0.0134703 -0.109164 0.0758692 0.0391183 -0.108068 0.0736628 0.064524 
-0.105532 0.0711228 0.0895989 -0.101612 0.0683012 0.114273 -0.0964286 0.0652722 0.138496 
-0.0901465 0.0621244 0.162234 -0.0829657 0.0589518 0.185471 -0.0751014 0.0558434 0.208198 
-0.0667666 0.0528753 0.230411 -0.0581563 0.0501042 0.252107 -0.0494339 0.0475647 0.273276 
-0.0407237 0.0452696 0.293904 -0.0321077 0.0432146 0.313968 -0.0236274 0.0413844 0.333442 
-0.0152911 0.0397612 0.352299 -0.00708308 0.038333 0.370514 0.00102493 0.0371 0.388072 
0.0090625 0.0360795 0.404971 0.0170512 0.0353058 0.421226 0.0249978 0.0348274 0.436869 
0.0328919 0.0347001 0.451952 0.0407058 0.0349775 0.466538 0.0483992 0.0357003 0.480703 
0.0559254 0.0368856 0.494522 0.0632383 0.0385186 0.50807 0.0702999 0.0405473 0.521406 
0.0770856 0.0428824 0.534574 0.083587 0.0454014 0.547597 0.0898119 0.0479586 0.560473 
0.0957812 0.050398 0.573175 0.101523 0.0525693 0.585658 0.107065 0.0543439 0.597858 
0.112428 0.0556295 0.609702 0.117618 0.0563811 0.621114 0.12262 0.0566066 0.632019 
0.127401 0.0563665 0.642351 0.131908 0.0557672 0.652056 0.136074 0.0549488 0.661095 
0.139827 0.0540683 0.669443 0.143101 0.0532812 0.677089 0.145843 0.0527225 0.684032 
0.148025 0.0524908 0.690279 0.149646 0.0526361 0.69584 0.150743 0.0531547 0.700727 
0.151379 0.0539903 0.704949 0.151647 0.0550415 0.708512 0.151655 0.0561759 0.711417 
0.151516 0.0572475 0.713665 0.151335 0.058116 0.715252 0.151198 0.0586651 0.716175 
0.15116 0.0588182 0.716434 
LINES 2 100
OFFSETS vtktypeint64
0 100 
CONNECTIVITY vtktypeint64
0 1 2 3 4 5 6 7 8 
9 10 11 12 13 14 15 16 17 
18 19 20 21 22 23 24 25 26 
27 28 29 30 31 32 33 34 35 
36 37 38 39 40 41 42 43 44 
45 46 47 48 49 50 51 52 53 
54 55 56 57 58 59 60 61 62 
63 64 65 66 67 68 69 70 71 
72 73 74 75 76 77 78 79 80 
81 82 83 84 85 86 87 88 89 
90 91 92 93 94 95 96 97 98 
99 
POINT_DATA 100
FIELD FieldData 3
_theta 1 100 double
0 0.031733259127 0.063466518254 0.095199777382 0.12693303651 0.15866629564 0.19039955476 0.22213281389 0.25386607302 
0.28559933214 0.31733259127 0.3490658504 0.38079910953 0.41253236865 0.44426562778 0.47599888691 0.50773214603 0.53946540516 
0.57119866429 0.60293192342 0.63466518254 0.66639844167 0.6981317008 0.72986495992 0.76159821905 0.79333147818 0.82506473731 
0.85679799643 0.88853125556 0.92026451469 0.95199777382 0.98373103294 1.0154642921 1.0471975512 1.0789308103 1.1106640695 
1.1423973286 1.1741305877 1.2058638468 1.237597106 1.2693303651 1.3010636242 1.3327968833 1.3645301425 1.3962634016 
1.4279966607 1.4597299198 1.491463179 1.5231964381 1.5549296972 1.5866629564 1.6183962155 1.6501294746 1.6818627337 
1.7135959929 1.745329252 1.7770625111 1.8087957702 1.8405290294 1.8722622885 1.9039955476 1.9357288068 1.9674620659 
1.999195325 2.0309285841 2.0626618433 2.0943951024 2.1261283615 2.1578616206 2.1895948798 2.2213281389 2.253061398 
2.2847946572 2.3165279163 2.3482611754 2.3799944345 2.4117276937 2.4434609528 2.4751942119 2.506927471 2.5386607302 
2.5703939893 2.6021272484 2.6338605076 2.6655937667 2.6973270258 2.7290602849 2.7607935441 2.7925268032 2.8242600623 
2.8559933214 2.8877265806 2.9194598397 2.9511930988 2.982926358 3.0146596171 3.0463928762 3.0781261353 3.1098593945 
3.1415926536 
_radius 1 100 double
4.6526822989e-16 0.014347019585 0.02860110387 0.042676009946 0.056486138286 0.069946107851 0.082970044965 0.095470950099 0.10736063778 
0.11855071746 0.12895490106 0.13849264262 0.14709382099 0.15470394313 0.16128921994 0.16684085784 0.17137799891 0.17494889941 
0.17763012622 0.17952374313 0.18075263175 0.18145423433 0.18177311764 0.18185284517 0.18182771063 0.18181492556 0.1819078659 
0.18217095775 0.18263669616 0.18330510279 0.18414564537 0.18510135111 0.18609466694 0.18703461443 0.18782492884 0.18837304017 
0.18859978216 0.18844947112 0.18789950081 0.18696803163 0.18571795134 0.18425526778 0.18272070034 0.18127469091 0.18007823036 
0.17927386736 0.1789715745 0.17924210733 0.18011725197 0.18159406347 0.18364003919 0.18619760896 0.18918795132 0.19251492368 
0.19606975054 0.19973665263 0.20339930776 0.20694786095 0.2102859135 0.21333656991 0.21604650193 0.21838726372 0.22035364679 
0.22195945496 0.22323151513 0.22420293125 0.22490653925 0.22536928627 0.22560794055 0.22562625611 0.22541355438 0.22494465246 
0.22418109895 0.22307367939 0.2215660635 0.21959929344 0.2171166153 0.21406801738 0.21041382487 0.20612684327 0.20119282451 
0.19560937308 0.18938370368 0.18252980838 0.17506555761 0.16701009275 0.15838167198 0.14919600553 0.13946511241 0.12919683272 
0.11839526013 0.10706241474 0.095201368431 0.082820734729 0.069940007469 0.056594816282 0.042840931623 0.028755916459 0.014437704926 
2.4737694352e-16 
_area 1 100 double
0 0.00055035955622 0.0021971762112 0.0049251450175 0.0087010135701 0.013464082204 0.019116594907 0.025516589055 0.032475300455 
0.039760445974 0.047105858325 0.054227094255 0.060841738372 0.066692202969 0.071568076096 0.075324801963 0.077895913359 0.079297142639 
0.079622185555 0.079031190684 0.07773381715 0.075968892399 0.073982587496 0.072007071031 0.070242128724 0.068843083028 0.067922000187 
0.067617230235 0.068159472484 0.06946819821 0.071199239818 0.073169772216 0.075196019595 0.077115495687 0.078808292977 0.080210860465 
0.081311719427 0.082115790304 0.082611309067 0.082802548278 0.082761262025 0.082636535823 0.082632766364 0.082971057603 0.083843574865 
0.085358801559 0.087500518442 0.090159160402 0.093170392957 0.096381696549 0.099689191419 0.10303981437 0.10642145835 0.10985542422 
0.11341189801 0.11725489437 0.12130616781 0.12534264855 0.12923398875 0.13287176042 0.13616224804 0.13902947468 0.14141826556 
0.14329482971 0.14464365346 0.14546120558 0.14574901366 0.14550951794 0.14474651682 0.14346892842 0.14169459271 0.13945135921 
0.13677482986 0.13370402742 0.13027671296 0.12652510606 0.12247180694 0.11812653128 0.1134860258 0.10853858164 0.10327070278 
0.097672272183 0.091739867311 0.085480363254 0.078915486006 0.072085616386 0.065050976957 0.057889753231 0.050694022571 0.043565001363 
0.036609107011 0.029935725776 0.023656587065 0.01788573028 0.012738674433 0.0083297018432 0.0047669129972 0.0021455284133 0.00054052737021 
5.2041704279e-18 
