# vtk DataFile Version 5.1
vtk output
ASCII
DATASET POLYDATA
POINTS 100 float
-0.000918701 0.0159849 -0.67373 -0.000968868 0.0161403 -0.67363 -0.00112686 0.0168042 -0.673332 
-0.00138922 0.0179289 -0.67277 -0.00175233 0.019441 -0.671841 -0.00221474 0.0212507 -0.670419 
-0.0027799 0.0232626 -0.668365 -0.00345894 0.0253872 -0.665542 -0.00427287 0.0275516 -0.661829 
-0.005254 0.029707 -0.657132 -0.00644615 0.031834 -0.651389 -0.00790336 0.0339428 -0.644577 
-0.00968724 0.0360699 -0.636708 -0.011863 0.0382715 -0.627823 -0.0144943 0.0406134 -0.617985 
-0.0176379 0.0431602 -0.607271 -0.0213375 0.0459648 -0.595758 -0.0256191 0.049058 -0.583515 
-0.0304866 0.0524429 -0.570598 -0.0359197 0.0560904 -0.557044 -0.0418729 0.0599405 -0.54287 
-0.0482775 0.0639069 -0.528078 -0.0550452 0.0678836 -0.51266 -0.0620734 0.0717556 -0.496604 
-0.0692525 0.075409 -0.4799 -0.0764729 0.0787414 -0.462551 -0.0836332 0.0816706 -0.444575 
-0.0906467 0.0841401 -0.426004 -0.0974468 0.0861224 -0.406889 -0.103991 0.0876178 -0.38729 
-0.11026 0.0886503 -0.367274 -0.11626 0.0892615 -0.346905 -0.122012 0.0895022 -0.326237 
-0.127553 0.0894241 -0.305308 -0.132922 0.0890724 -0.284132 -0.138153 0.088479 -0.262704 
-0.143271 0.0876597 -0.240995 -0.148275 0.0866132 -0.218959 -0.153142 0.0853227 -0.196544 
-0.157817 0.0837609 -0.173697 -0.162217 0.0818952 -0.150377 -0.166231 0.0796948 -0.126563 
-0.169728 0.077137 -0.102258 -0.172563 0.0742125 -0.0775018 -0.17459 0.0709291 -0.0523616 
-0.175672 0.0673127 -0.0269351 -0.175692 0.0634071 -0.00134239 -0.174559 0.0592706 0.0242834 
-0.172226 0.0549721 0.0498058 -0.168682 0.0505859 0.0750959 -0.163966 0.0461867 0.100041 
-0.158157 0.041845 0.124554 -0.151374 0.0376246 0.148571 -0.143765 0.0335806 0.172059 
-0.135502 0.0297597 0.195009 -0.126766 0.0262018 0.217431 -0.117737 0.0229424 0.239347 
-0.108586 0.0200154 0.26078 -0.0994636 0.0174558 0.281752 -0.090493 0.015301 0.302272 
-0.0817689 0.0135912 0.322339 -0.0733547 0.0123684 0.341934 -0.0652844 0.0116728 0.361031 
-0.0575668 0.0115394 0.379595 -0.050191 0.0119932 0.397596 -0.0431337 0.0130443 0.415011 
-0.0363659 0.0146838 0.431834 -0.0298598 0.0168817 0.448082 -0.0235943 0.0195857 0.463796 
-0.0175594 0.0227229 0.479046 -0.0117581 0.0262032 0.49392 -0.00620703 0.0299245 0.508524 
-0.000935146 0.0337797 0.52297 0.0040191 0.0376635 0.537365 0.00861153 0.0414796 0.551804 
0.0127966 0.045146 0.566354 0.0165316 0.0486 0.581054 0.0197808 0.0518 0.595904 
0.0225188 0.0547254 0.610865 0.0247322 0.0573744 0.625865 0.0264214 0.0597605 0.640799 
0.0276 0.0619076 0.655541 0.0282944 0.0638441 0.669951 0.028542 0.0655989 0.683888 
0.0283889 0.0671963 0.697214 0.0278879 0.0686542 0.709811 0.0270957 0.0699825 0.721579 
0.0260714 0.071184 0.732444 0.0248737 0.0722559 0.742357 0.0235603 0.0731931 0.751296 
0.0221864 0.0739908 0.759258 0.0208037 0.0746478 0.766261 0.0194602 0.0751684 0.772333 
0.0181991 0.0755636 0.77751 0.0170594 0.0758505 0.78183 0.0160746 0.0760514 0.785331 
0.0152728 0.0761905 0.788046 0.0146762 0.0762916 0.790003 0.0143009 0.0763743 0.79122 
0.0141566 0.0764516 0.791709 
LINES 2 100
OFFSETS vtktypeint64
0 100 
CONNECTIVITY vtktypeint64
0 1 2 3 4 5 6 7 8 
9 10 11 12 13 14 15 16 17 
18 19 20 21 22 23 24 25 26 
27 28 29 30 31 32 33 34 35 
36 37 38 39 40 41 42 43 44 
45 46 47 48 49 50 51 52 53 
54 55 56 57 58 59 60 61 62 
63 64 65 66 67 68 69 70 71 
72 73 74 75 76 77 78 79 80 
81 82 83 84 85 86 87 88 89 
90 91 92 93 94 95 96 97 98 
99 
POINT_DATA 100
FIELD FieldData 3
_theta 1 100 double
0 0.031733259127 0.063466518254 0.095199777382 0.12693303651 0.15866629564 0.19039955476 0.22213281389 0.25386607302 
0.28559933214 0.31733259127 0.3490658504 0.38079910953 0.41253236865 0.44426562778 0.47599888691 0.50773214603 0.53946540516 
0.57119866429 0.60293192342 0.63466518254 0.66639844167 0.6981317008 0.72986495992 0.76159821905 0.79333147818 0.82506473731 
0.85679799643 0.88853125556 0.92026451469 0.95199777382 0.98373103294 1.0154642921 1.0471975512 1.0789308103 1.1106640695 
1.1423973286 1.1741305877 1.2058638468 1.237597106 1.2693303651 1.3010636242 1.3327968833 1.3645301425 1.3962634016 
1.4279966607 1.4597299198 1.491463179 1.5231964381 1.5549296972 1.5866629564 1.6183962155 1.6501294746 1.6818627337 
1.7135959929 1.745329252 1.7770625111 1.8087957702 1.8405290294 1.8722622885 1.9039955476 1.9357288068 1.9674620659 
1.999195325 2.0309285841 2.0626618433 2.0943951024 2.1261283615 2.1578616206 2.1895948798 2.2213281389 2.253061398 
2.2847946572 2.3165279163 2.3482611754 2.3799944345 2.4117276937 2.4434609528 2.4751942119 2.506927471 2.5386607302 
2.5703939893 2.6021272484 2.6338605076 2.6655937667 2.6973270258 2.7290602849 2.7607935441 2.7925268032 2.8242600623 
2.8559933214 2.8877265806 2.9194598397 2.9511930988 2.982926358 3.0146596171 3.0463928762 3.0781261353 3.1098593945 
3.1415926536 
_radius 1 100 double
6.6645931354e-16 0.014864503107 0.029649341411 0.044266541121 0.05862592213 0.072634409664 0.08619582968 0.099211716033 0.11158361527 
0.12321707853 0.13402706143 0.14394398518 0.15291942335 0.16093036464 0.16798124904 0.17410339052 0.17935187172 0.18380043572 
0.18753523739 0.19064848382 0.19323291593 0.19537772413 0.19716593077 0.19867273819 0.19996411433 0.20109509994 0.20210783377 
0.20302976599 0.20387268402 0.20463297708 0.20529321352 0.20582483265 0.20619167018 0.20635409955 0.20627366653 0.20591813293 
0.20526679991 0.20431585032 0.20308319801 0.20161193885 0.19997111063 0.1982524764 0.19656286355 0.1950132478 0.19370754985 
0.19273465941 0.19216559751 0.19205481786 0.19244262154 0.19335585955 0.1948059067 0.19678479781 0.19926142294 0.20217961899 
0.20545918855 0.20899982459 0.21268710948 0.21639946638 0.22001512306 0.22341854304 0.2265061222 0.22919110002 0.23140757561 
0.23311332917 0.23429096641 0.23494686814 0.23510762628 0.23481407346 0.23411357198 0.23305175911 0.23166525622 0.22997676259 
0.22799340717 0.22570835629 0.22310479122 0.22016081802 0.21685383806 0.21316332946 0.20907163645 0.20456297949 0.19962131937 
0.19422789154 0.18835921391 0.18198622131 0.17507492701 0.16758867153 0.15949162599 0.15075286588 0.1413501621 0.13127275593 
0.12052277655 0.10911545447 0.097078647709 0.084452265988 0.07128795338 0.057649026201 0.043610359751 0.029257802899 0.014686785787 
4.3888014197e-16 
_area 1 100 double
0 0.00062568595659 0.0024844842898 0.0055234756127 0.0096595149007 0.0147835 0.020761883426 0.027434838097 0.034613171353 
0.042077672898 0.049584090774 0.056874850146 0.063696286394 0.069818605239 0.075055300969 0.079279120622 0.082432499286 0.084531426442 
0.08566267794 0.08597498066 0.085664831973 0.084957681055 0.084085755011 0.083265856219 0.082686511286 0.082675941258 0.083500338447 
0.084855323436 0.086555276123 0.088427138368 0.090356781452 0.092262265091 0.094082847955 0.095751244718 0.097183185206 0.098297814137 
0.099037383977 0.099379066559 0.099343917503 0.099003183638 0.098478215128 0.097928449913 0.097523640906 0.097403799337 0.097642046459 
0.09823186361 0.099110298781 0.10022984569 0.10156825169 0.10309223729 0.10495068165 0.10730909947 0.11027556962 0.11387633945 
0.11806405809 0.12273087275 0.12771341739 0.13280066976 0.13775443535 0.14233929714 0.14635294791 0.14965009884 0.15215484684 
0.15385520974 0.15477945838 0.15497201977 0.15448998748 0.15341509767 0.15185927797 0.1499495761 0.14779353271 0.1454386585 
0.14285091828 0.13993380842 0.13657995016 0.13272219633 0.12835804495 0.12354430905 0.11837285635 0.11294029545 0.107321584 
0.10155378451 0.095632816105 0.089522953039 0.083175788206 0.076552806939 0.069644739768 0.062482470939 0.055137910476 0.047716935008 
0.040348580748 0.033174674557 0.026342503676 0.020000876665 0.014298043052 0.0093791652235 0.0053815168413 0.0024268886708 0.00061215344158 
3.385082156e-17 
