# vtk DataFile Version 5.1
vtk output
ASCII
DATASET POLYDATA
POINTS 100 float
0.0555706 0.0504263 0.677313 0.0556844 0.0506402 0.676955 0.0560367 0.0511205 0.675726 
0.0565743 0.0518229 0.673641 0.0572167 0.0526803 0.670723 0.0578679 0.0536107 0.667005 
0.0584303 0.0545273 0.662526 0.0588182 0.0553488 0.657329 0.0589704 0.0560087 0.65146 
0.0588585 0.0564636 0.644961 0.0584906 0.0566974 0.637873 0.0579095 0.0567235 0.63023 
0.0571856 0.056582 0.622058 0.056405 0.0563344 0.613374 0.0556557 0.0560551 0.604185 
0.0550116 0.0558221 0.594492 0.0545193 0.0557058 0.584286 0.054187 0.0557604 0.573558 
0.053979 0.0560153 0.562295 0.0538157 0.056471 0.550492 0.0535798 0.0570973 0.538149 
0.0531275 0.057836 0.52528 0.0523035 0.0586058 0.511914 0.050959 0.059311 0.498096 
0.0489678 0.0598512 0.483891 0.0462417 0.0601319 0.469377 0.0427401 0.0600745 0.454648 
0.0384752 0.0596242 0.439803 0.0335101 0.0587563 0.424943 0.0279517 0.0574788 0.410163 
0.0219377 0.0558315 0.395541 0.0156215 0.0538829 0.381134 0.00915455 0.0517237 0.366973 
0.00267115 0.0494589 0.353051 -0.00372486 0.047199 0.339329 -0.00996799 0.0450509 0.325731 
-0.0160336 0.0431105 0.312151 -0.0219343 0.0414564 0.298456 -0.0277114 0.0401454 0.284499 
-0.0334216 0.0392117 0.270123 -0.0391227 0.0386666 0.25518 -0.044858 0.0385015 0.239536 
-0.0506434 0.0386915 0.223086 -0.0564581 0.0392003 0.205759 -0.062241 0.0399851 0.187524 
-0.0678914 0.0410006 0.168395 -0.073277 0.0422031 0.148429 -0.0782449 0.0435529 0.12772 
-0.0826369 0.0450159 0.106393 -0.0863055 0.0465634 0.0845947 -0.0891287 0.0481724 0.0624827 
-0.0910229 0.0498241 0.040212 -0.0919511 0.0515029 0.0179261 -0.0919256 0.0531957 -0.00425312 
-0.0910059 0.0548907 -0.0262321 -0.089291 0.0565776 -0.0479495 -0.0869082 0.0582474 -0.0693769 
-0.0839987 0.0598929 -0.0905164 -0.0807036 0.0615092 -0.111395 -0.07715 0.0630935 -0.132058 
-0.0734404 0.0646449 -0.152559 -0.0696459 0.0661632 -0.172952 -0.0658037 0.0676478 -0.19328 
-0.0619191 0.0690948 -0.213572 -0.0579719 0.0704945 -0.233835 -0.0539246 0.0718289 -0.254049 
-0.0497334 0.0730693 -0.274173 -0.0453581 0.0741745 -0.294143 -0.0407716 0.0750905 -0.313876 
-0.0359659 0.0757517 -0.33328 -0.0309564 0.0760833 -0.352258 -0.0257812 0.0760054 -0.370716 
-0.0204984 0.0754385 -0.388568 -0.0151809 0.07431 -0.405743 -0.0099091 0.0725605 -0.422189 
-0.00476397 0.0701507 -0.437869 0.00017999 0.0670667 -0.452767 0.00485967 0.0633242 -0.46688 
0.00922654 0.0589702 -0.480217 0.0132475 0.0540831 -0.492794 0.0169037 0.04877 -0.50463 
0.0201876 0.0431613 -0.515739 0.0230997 0.0374043 -0.526134 0.0256443 0.0316547 -0.535819 
0.0278271 0.0260671 -0.544791 0.0296526 0.0207859 -0.553043 0.0311247 0.0159369 -0.560565 
0.0322475 0.0116198 -0.567348 0.0330279 0.00790308 -0.573387 0.0334788 0.00482071 -0.578687 
0.0336225 0.00237197 -0.583261 0.0334929 0.000523392 -0.587138 0.0331368 -0.000786774 -0.590358 
0.032613 -0.00164213 -0.59297 0.0319899 -0.00214021 -0.595035 0.0313405 -0.0023838 -0.596615 
0.0307376 -0.00247195 -0.597769 0.0302466 -0.00249156 -0.598553 0.0299199 -0.00251016 -0.599007 
0.0297914 -0.00257019 -0.599158 
LINES 2 100
OFFSETS vtktypeint64
0 100 
CONNECTIVITY vtktypeint64
0 1 2 3 4 5 6 7 8 
9 10 11 12 13 14 15 16 17 
18 19 20 21 22 23 24 25 26 
27 28 29 30 31 32 33 34 35 
36 37 38 39 40 41 42 43 44 
45 46 47 48 49 50 51 52 53 
54 55 56 57 58 59 60 61 62 
63 64 65 66 67 68 69 70 71 
72 73 74 75 76 77 78 79 80 
81 82 83 84 85 86 87 88 89 
90 91 92 93 94 95 96 97 98 
99 
POINT_DATA 100
FIELD FieldData 3
_theta 1 100 double
0 0.031733259127 0.063466518254 0.095199777382 0.12693303651 0.15866629564 0.19039955476 0.22213281389 0.25386607302 
0.28559933214 0.31733259127 0.3490658504 0.38079910953 0.41253236865 0.44426562778 0.47599888691 0.50773214603 0.53946540516 
0.57119866429 0.60293192342 0.63466518254 0.66639844167 0.6981317008 0.72986495992 0.76159821905 0.79333147818 0.82506473731 
0.85679799643 0.88853125556 0.92026451469 0.95199777382 0.98373103294 1.0154642921 1.0471975512 1.0789308103 1.1106640695 
1.1423973286 1.1741305877 1.2058638468 1.237597106 1.2693303651 1.3010636242 1.3327968833 1.3645301425 1.3962634016 
1.4279966607 1.4597299198 1.491463179 1.5231964381 1.5549296972 1.5866629564 1.6183962155 1.6501294746 1.6818627337 
1.7135959929 1.745329252 1.7770625111 1.8087957702 1.8405290294 1.8722622885 1.9039955476 1.9357288068 1.9674620659 
1.999195325 2.0309285841 2.0626618433 2.0943951024 2.1261283615 2.1578616206 2.1895948798 2.2213281389 2.253061398 
2.2847946572 2.3165279163 2.3482611754 2.3799944345 2.4117276937 2.4434609528 2.4751942119 2.506927471 2.5386607302 
2.5703939893 2.6021272484 2.6338605076 2.6655937667 2.6973270258 2.7290602849 2.7607935441 2.7925268032 2.8242600623 
2.8559933214 2.8877265806 2.9194598397 2.9511930988 2.982926358 3.0146596171 3.0463928762 3.0781261353 3.1098593945 
3.1415926536 
_radius 1 100 double
2.2633986949e-16 0.012472721648 0.024877729245 0.037146096259 0.04921622282 0.06103496943 0.072556952436 0.083742867566 0.094557741305 
0.10496957243 0.11494831848 0.12446493436 0.13349026854 0.14199396081 0.149943876 0.15730684703 0.16405141966 0.17015282443 
0.17559964745 0.18040088936 0.18459160905 0.18823537692 0.1914223479 0.19426275264 0.19687672231 0.19938229718 0.20188391603 
0.20446340419 0.20717444553 0.21004010375 0.2130518877 0.21616882545 0.21931609958 0.22238430899 0.2252313914 0.22768909969 
0.22957481041 0.23070795404 0.23092912312 0.23011928633 0.22821654152 0.22522829144 0.22123737778 0.2164013686 0.21094476014 
0.20514432167 0.19930825045 0.19375035634 0.18876132983 0.18458031194 0.1813711403 0.17920795909 0.17807347434 0.17786999315 
0.17843978174 0.17958901999 0.18110977157 0.18279665173 0.18445805908 0.18592444119 0.18705669731 0.18775603086 0.18797367778 
0.18771715751 0.18704998061 0.18608337926 0.18496054361 0.18383553432 0.1828503375 0.1821141952 0.18168901751 0.18158317969 
0.18175369783 0.18211459255 0.18254820103 0.18291671817 0.18307283318 0.18286977363 0.1821713218 0.18086142525 0.17885189542 
0.17608635887 0.17253928134 0.1682100906 0.1631136601 0.157269326 0.15069100007 0.14338071977 0.13532716448 0.12650942183 
0.11690492893 0.10649945029 0.095296537363 0.083324267954 0.070638028552 0.057319310576 0.043471526199 0.029214390539 0.014678351162 
7.8096036818e-16 
_area 1 100 double
0 0.00044933637792 0.0017887701862 0.0039913708053 0.0070088605167 0.010768519006 0.015172186478 0.020099272466 0.02541459659 
0.030980398061 0.036670459402 0.042383404 0.048052069215 0.053646379323 0.05916799572 0.064636002614 0.070064782373 0.075439645931 
0.080701652758 0.085753012382 0.090483555171 0.094806756208 0.098691602845 0.10218048448 0.10538684119 0.10847244124 0.11161608574 
0.11499011186 0.11874530263 0.1229895028 0.12775500564 0.1329700053 0.13845156836 0.14392267786 0.14904503662 0.15345855559 
0.15682073264 0.15884105626 0.15930773794 0.1581063713 0.15523127582 0.15078965033 0.14499724525 0.13816382891 0.13066813654 
0.12292447317 0.11534480289 0.10830020599 0.10208666235 0.09690769568 0.092925027305 0.090246014285 0.088613018479 0.08783867926 
0.087622819544 0.087738595992 0.08798362399 0.088188894924 0.088244688764 0.088072282403 0.087593827212 0.08673222911 0.085432832255 
0.083687677072 0.081554975832 0.079161079218 0.076680134477 0.07429839612 0.07218286901 0.070470363106 0.069234837018 0.068471015751 
0.068153117499 0.068255919681 0.068807519336 0.069637398368 0.070540142189 0.071347618244 0.071902929148 0.072063363634 0.071711849593 
0.070767742921 0.069190102013 0.066971769349 0.064126915368 0.060677803134 0.056647450686 0.052062420105 0.046964980717 0.041429222888 
0.035573882301 0.029566020703 0.023612971631 0.017943707819 0.012784130399 0.0083329229881 0.0047446673627 0.0021243803983 0.00053314171326 
1.7564128134e-17 
