# vtk DataFile Version 5.1
vtk output
ASCII
DATASET POLYDATA
POINTS 100 float
0.136724 0.0512642 0.680057 0.136924 0.0514467 0.679912 0.137562 0.0518267 0.679309 
0.138545 0.0523767 0.678248 0.139734 0.0530552 0.676731 0.140954 0.0538123 0.674751 
0.142017 0.0545967 0.672291 0.142738 0.0553614 0.669322 0.142956 0.0560693 0.665798 
0.14255 0.0566963 0.66166 0.141441 0.0572319 0.656839 0.139604 0.0576771 0.651262 
0.137054 0.0580404 0.644864 0.133844 0.0583315 0.637594 0.13005 0.0585548 0.629429 
0.125754 0.0587039 0.620378 0.121033 0.0587569 0.610487 0.115944 0.0586751 0.599842 
0.110522 0.0584047 0.58856 0.104775 0.0578817 0.576779 0.0986901 0.0570392 0.56465 
0.0922418 0.0558173 0.552317 0.0854023 0.0541731 0.539903 0.078155 0.0520899 0.527497 
0.0705054 0.0495842 0.515143 0.0624886 0.0467096 0.502839 0.0541724 0.0435558 0.490532 
0.045654 0.0402441 0.47813 0.0370515 0.036918 0.465513 0.0284908 0.033731 0.452546 
0.0200891 0.0308331 0.439099 0.0119385 0.0283564 0.425062 0.00409153 0.0264033 0.410358 
-0.00344956 0.025037 0.39495 -0.0107363 0.0242771 0.378843 -0.0178708 0.0240998 0.36208 
-0.0249943 0.0244436 0.344731 -0.0322703 0.0252181 0.32688 -0.0398614 0.0263173 0.308605 
-0.0479057 0.0276335 0.289964 -0.0564931 0.0290706 0.270982 -0.0656455 0.0305557 0.251642 
-0.0753045 0.0320467 0.231882 -0.0853264 0.0335354 0.211603 -0.0954878 0.0350456 0.190679 
-0.105499 0.0366266 0.168978 -0.115026 0.0383431 0.146377 -0.123719 0.040263 0.122791 
-0.131239 0.0424444 0.0981846 -0.137292 0.0449247 0.0725883 -0.141648 0.0477121 0.046105 
-0.144163 0.0507817 0.0189066 -0.144788 0.0540756 -0.00877603 -0.143571 0.0575088 -0.0366718 
-0.140646 0.0609778 -0.0644923 -0.136217 0.0643725 -0.0919574 -0.130541 0.0675887 -0.118821 
-0.123897 0.0705402 -0.14489 -0.116568 0.0731676 -0.170041 -0.108816 0.0754437 -0.194226 
-0.100864 0.0773743 -0.21747 -0.0928899 0.0789937 -0.239858 -0.0850192 0.0803568 -0.261519 
-0.077328 0.0815275 -0.282601 -0.0698503 0.0825657 -0.303252 -0.0625886 0.0835149 -0.323593 
-0.0555257 0.0843919 -0.343706 -0.0486352 0.0851802 -0.36362 -0.0418907 0.0858277 -0.383312 
-0.035271 0.0862506 -0.402711 -0.0287624 0.0863404 -0.421714 -0.0223565 0.0859767 -0.440203 
-0.0160474 0.0850408 -0.458063 -0.00982645 0.0834309 -0.475205 -0.00367807 0.0810753 -0.491576 
0.00242248 0.0779434 -0.507172 0.00850879 0.0740515 -0.522035 0.0146198 0.0694641 -0.536247 
0.020793 0.0642894 -0.549917 0.0270562 0.0586709 -0.56316 0.0334177 0.052775 -0.576076 
0.039858 0.0467762 -0.588729 0.0463239 0.0408431 -0.601135 0.0527264 0.0351248 -0.613247 
0.0589438 0.0297415 -0.624957 0.0648295 0.0247773 -0.636109 0.0702253 0.0202796 -0.646508 
0.0749767 0.0162606 -0.655948 0.0789509 0.0127042 -0.664237 0.0820533 0.0095743 -0.671227 
0.084241 0.00682443 -0.676828 0.0855319 0.00440714 -0.681034 0.0860064 0.00228181 -0.68392 
0.0858023 0.000419852 -0.685643 0.085103 -0.00119301 -0.686426 0.0841195 -0.00255743 -0.686534 
0.083069 -0.00366357 -0.686246 0.0821512 -0.00449583 -0.685822 0.0815274 -0.00503816 -0.685472 
0.0813021 -0.0052787 -0.685334 
LINES 2 100
OFFSETS vtktypeint64
0 100 
CONNECTIVITY vtktypeint64
0 1 2 3 4 5 6 7 8 
9 10 11 12 13 14 15 16 17 
18 19 20 21 22 23 24 25 26 
27 28 29 30 31 32 33 34 35 
36 37 38 39 40 41 42 43 44 
45 46 47 48 49 50 51 52 53 
54 55 56 57 58 59 60 61 62 
63 64 65 66 67 68 69 70 71 
72 73 74 75 76 77 78 79 80 
81 82 83 84 85 86 87 88 89 
90 91 92 93 94 95 96 97 98 
99 
POINT_DATA 100
FIELD FieldData 3
_theta 1 100 double
0 0.031733259127 0.063466518254 0.095199777382 0.12693303651 0.15866629564 0.19039955476 0.22213281389 0.25386607302 
0.28559933214 0.31733259127 0.3490658504 0.38079910953 0.41253236865 0.44426562778 0.47599888691 0.50773214603 0.53946540516 
0.57119866429 0.60293192342 0.63466518254 0.66639844167 0.6981317008 0.72986495992 0.76159821905 0.79333147818 0.82506473731 
0.85679799643 0.88853125556 0.92026451469 0.95199777382 0.98373103294 1.0154642921 1.0471975512 1.0789308103 1.1106640695 
1.1423973286 1.1741305877 1.2058638468 1.237597106 1.2693303651 1.3010636242 1.3327968833 1.3645301425 1.3962634016 
1.4279966607 1.4597299198 1.491463179 1.5231964381 1.5549296972 1.5866629564 1.6183962155 1.6501294746 1.6818627337 
1.7135959929 1.745329252 1.7770625111 1.8087957702 1.8405290294 1.8722622885 1.9039955476 1.9357288068 1.9674620659 
1.999195325 2.0309285841 2.0626618433 2.0943951024 2.1261283615 2.1578616206 2.1895948798 2.2213281389 2.253061398 
2.2847946572 2.3165279163 2.3482611754 2.3799944345 2.4117276937 2.4434609528 2.4751942119 2.506927471 2.5386607302 
2.5703939893 2.6021272484 2.6338605076 2.6655937667 2.6973270258 2.7290602849 2.7607935441 2.7925268032 2.8242600623 
2.8559933214 2.8877265806 2.9194598397 2.9511930988 2.982926358 3.0146596171 3.0463928762 3.0781261353 3.1098593945 
3.1415926536 
_radius 1 100 double
4.3907355583e-16 0.015396852818 0.030630852487 0.045543721808 0.059998485743 0.073887452983 0.08713707071 0.099709309208 0.11159962979 
0.12283192679 0.13345110515 0.1435141555 0.15308071054 0.16220410389 0.17092390202 0.17926071252 0.18721375082 0.19476121042 
0.20186308308 0.20846589138 0.21450884984 0.21993109959 0.2246796471 0.22871738654 0.23203019615 0.23463180449 0.23656515908 
0.23789951129 0.23872327476 0.23913365493 0.23922474893 0.23907603983 0.23874293573 0.23825042635 0.23759033697 0.23672228408 
0.23557833179 0.23407136677 0.23210709365 0.2295991028 0.22648569276 0.2227462829 0.21841466184 0.21358623325 0.20841693095 
0.20311257148 0.19790906463 0.19304603979 0.18873873147 0.18515452546 0.18240009938 0.18052180794 0.17951682579 0.17934828201 
0.17995669939 0.1812628351 0.18316199593 0.18551517132 0.18814564114 0.19084811278 0.19341034912 0.19563982583 0.19738631094 
0.19855514348 0.19911071388 0.19907225052 0.19850453848 0.19750571047 0.19619355886 0.1946912998 0.19311353914 0.19155339196 
0.19007215211 0.18869318827 0.18740138228 0.18614831944 0.18486200814 0.18345873762 0.18185418554 0.17997122141 0.17774293623 
0.17511093958 0.17202040706 0.16841420525 0.16422835102 0.15939023181 0.15381998043 0.14743465576 0.14015452545 0.13191059767 
0.1226524481 0.11235532194 0.1010255339 0.088703402645 0.075463336138 0.061411164721 0.0466792971 0.031420633767 0.015802293105 
5.6132998029e-16 
_area 1 100 double
0 0.00061221881764 0.0024277749161 0.0053843814779 0.0093819913101 0.014289435273 0.019954708696 0.026218289173 0.032927608607 
0.039949873398 0.047180203028 0.054542730597 0.06198399366 0.06946060392 0.076926048656 0.084322595217 0.091581921421 0.098633299658 
0.10541422156 0.11187753515 0.11799142419 0.12373262834 0.1290772539 0.13399503667 0.13845085223 0.14241296427 0.14586372991 
0.14880739284 0.15127153907 0.15330216948 0.15495479668 0.15628426643 0.15733466879 0.15812898393 0.15865711362 0.15886215769 
0.15862968834 0.15779068857 0.15614694761 0.15351575341 0.14978067007 0.1449344094 0.13910328683 0.13254628302 0.1256260726 
0.11875587473 0.11233292302 0.10667290232 0.1019643382 0.098314093702 0.095777619667 0.094010832784 0.092672345426 0.091581961018 
0.090664350418 0.089913852535 0.089370431517 0.089094988509 0.089140615424 0.089510318516 0.090111825539 0.090765004122 0.091227280255 
0.09130194116 0.090910789043 0.090035834508 0.088712013276 0.087042349013 0.085180668494 0.083302749616 0.08157821313 0.080150967715 
0.079175274661 0.078662252864 0.078484725439 0.078538220987 0.078726336029 0.078834320564 0.078715105868 0.078373330019 0.077738916104 
0.077027457196 0.07582334526 0.073957891585 0.071378263759 0.068049038863 0.063952348292 0.059096344715 0.05352801109 0.047346226498 
0.040710189577 0.033838598752 0.026996759094 0.020472065763 0.014542453042 0.009445756394 0.0053587000832 0.0023915471887 0.00059884155243 
1.5304164949e-17 
