# vtk DataFile Version 5.1
vtk output
ASCII
DATASET POLYDATA
POINTS 100 float
0.0926587 0.0413792 0.642012 0.0927663 0.0414165 0.641764 0.0929862 0.041684 0.641173 
0.0932864 0.0421695 0.64018 0.0936176 0.042851 0.638696 0.0939184 0.0436965 0.636609 
0.0941218 0.0446637 0.633804 0.0941611 0.0457009 0.630173 0.0939761 0.0467479 0.625633 
0.0935176 0.047739 0.620132 0.0927496 0.0486062 0.61366 0.0916508 0.0492837 0.60625 
0.0902125 0.0497124 0.597973 0.0884358 0.0498454 0.588936 0.0863277 0.0496517 0.579264 
0.0838963 0.0491199 0.569093 0.0811467 0.0482598 0.558555 0.078078 0.047102 0.547767 
0.0746819 0.0456961 0.536819 0.0709429 0.0441058 0.525773 0.0668407 0.0424039 0.514659 
0.0623539 0.0406652 0.50348 0.0574646 0.0389596 0.492215 0.0521638 0.0373459 0.480828 
0.046455 0.0358666 0.469278 0.0403578 0.0345452 0.457527 0.033909 0.0333854 0.445547 
0.0271612 0.0323729 0.433323 0.0201796 0.03148 0.420854 0.013037 0.030671 0.40815 
0.00580713 0.02991 0.395229 -0.00144186 0.0291679 0.382106 -0.00865395 0.028429 0.368789 
-0.0157898 0.0276959 0.355272 -0.0228295 0.0269925 0.341526 -0.0297719 0.0263639 0.327501 
-0.0366317 0.0258734 0.313128 -0.0434338 0.0255975 0.29832 -0.0502046 0.0256186 0.282982 
-0.0569638 0.0260164 0.267018 -0.0637148 0.0268598 0.250347 -0.0704368 0.0281984 0.232905 
-0.0770794 0.030057 0.214659 -0.0835603 0.0324315 0.195612 -0.0897662 0.0352885 0.175801 
-0.0955585 0.0385664 0.155297 -0.100782 0.0421809 0.134202 -0.105274 0.0460308 0.112635 
-0.108883 0.0500065 0.0907281 -0.111474 0.0539979 0.0686097 -0.112946 0.0579023 0.0463995 
-0.113241 0.0616309 0.0241976 -0.112345 0.0651135 0.00208013 -0.110297 0.0683003 -0.0199032 
-0.107178 0.0711624 -0.0417277 -0.103111 0.0736894 -0.0633902 -0.0982444 0.0758857 -0.0849025 
-0.0927434 0.0777655 -0.106284 -0.0867731 0.0793481 -0.127554 -0.0804865 0.0806531 -0.148727 
-0.0740122 0.0816963 -0.169804 -0.0674467 0.0824872 -0.190773 -0.0608493 0.0830284 -0.211609 
-0.0542422 0.0833153 -0.232272 -0.0476144 0.0833381 -0.252714 -0.0409295 0.0830836 -0.272879 
-0.0341361 0.0825379 -0.292713 -0.0271794 0.081689 -0.312163 -0.0200136 0.0805282 -0.331179 
-0.012612 0.0790511 -0.34972 -0.00497592 0.0772581 -0.36775 0.00286082 0.0751535 -0.385235 
0.0108305 0.0727442 -0.402144 0.0188342 0.0700381 -0.418447 0.0267482 0.0670434 -0.434109 
0.034433 0.0637672 -0.449094 0.0417445 0.0602156 -0.463362 0.0485453 0.0563948 -0.476875 
0.0547162 0.0523125 -0.489601 0.0601655 0.04798 -0.501515 0.0648362 0.0434153 -0.512607 
0.0687095 0.038645 -0.522885 0.0718055 0.0337063 -0.532378 0.0741799 0.0286478 -0.541135 
0.0759184 0.0235294 -0.549225 0.0771278 0.0184203 -0.556729 0.0779269 0.013396 -0.563735 
0.0784361 0.0085346 -0.570328 0.0787678 0.00391227 -0.576582 0.0790182 -0.000401437 -0.582549 
0.0792614 -0.00434753 -0.588253 0.079546 -0.00788059 -0.593688 0.0798941 -0.0109704 -0.598814 
0.0803035 -0.0136022 -0.603561 0.080752 -0.0157746 -0.607836 0.0812034 -0.0174973 -0.611531 
0.0816146 -0.0187869 -0.614538 0.0819429 -0.0196623 -0.616756 0.0821523 -0.0201411 -0.618106 
0.0822193 -0.0202357 -0.618536 
LINES 2 100
OFFSETS vtktypeint64
0 100 
CONNECTIVITY vtktypeint64
0 1 2 3 4 5 6 7 8 
9 10 11 12 13 14 15 16 17 
18 19 20 21 22 23 24 25 26 
27 28 29 30 31 32 33 34 35 
36 37 38 39 40 41 42 43 44 
45 46 47 48 49 50 51 52 53 
54 55 56 57 58 59 60 61 62 
63 64 65 66 67 68 69 70 71 
72 73 74 75 76 77 78 79 80 
81 82 83 84 85 86 87 88 89 
90 91 92 93 94 95 96 97 98 
99 
POINT_DATA 100
FIELD FieldData 3
_theta 1 100 double
0 0.031733259127 0.063466518254 0.095199777382 0.12693303651 0.15866629564 0.19039955476 0.22213281389 0.25386607302 
0.28559933214 0.31733259127 0.3490658504 0.38079910953 0.41253236865 0.44426562778 0.47599888691 0.50773214603 0.53946540516 
0.57119866429 0.60293192342 0.63466518254 0.66639844167 0.6981317008 0.72986495992 0.76159821905 0.79333147818 0.82506473731 
0.85679799643 0.88853125556 0.92026451469 0.95199777382 0.98373103294 1.0154642921 1.0471975512 1.0789308103 1.1106640695 
1.1423973286 1.1741305877 1.2058638468 1.237597106 1.2693303651 1.3010636242 1.3327968833 1.3645301425 1.3962634016 
1.4279966607 1.4597299198 1.491463179 1.5231964381 1.5549296972 1.5866629564 1.6183962155 1.6501294746 1.6818627337 
1.7135959929 1.745329252 1.7770625111 1.8087957702 1.8405290294 1.8722622885 1.9039955476 1.9357288068 1.9674620659 
1.999195325 2.0309285841 2.0626618433 2.0943951024 2.1261283615 2.1578616206 2.1895948798 2.2213281389 2.253061398 
2.2847946572 2.3165279163 2.3482611754 2.3799944345 2.4117276937 2.4434609528 2.4751942119 2.506927471 2.5386607302 
2.5703939893 2.6021272484 2.6338605076 2.6655937667 2.6973270258 2.7290602849 2.7607935441 2.7925268032 2.8242600623 
2.8559933214 2.8877265806 2.9194598397 2.9511930988 2.982926358 3.0146596171 3.0463928762 3.0781261353 3.1098593945 
3.1415926536 
_radius 1 100 double
3.2583260761e-16 0.014182711384 0.028218662649 0.041977524117 0.055347637975 0.068241963859 0.080600917511 0.092392112364 0.10360758388 
0.11425942005 0.12437472471 0.13399053332 0.14314886571 0.15189178732 0.16025633595 0.16826946732 0.17594362543 0.18327391195 
0.19023788766 0.19679866215 0.20291116755 0.2085306149 0.21362145602 0.21816498831 0.22216407629 0.22564412769 0.22865019671 
0.23124070815 0.23347874466 0.23542213302 0.23711371744 0.23857320859 0.23979185474 0.2407309439 0.24132481306 0.24148851885 
0.24112956378 0.24016225825 0.23852274672 0.23618259287 0.23315901421 0.22952021872 0.22538475367 0.22091436436 0.21630065095 
0.21174684245 0.20744716666 0.20356721592 0.20022886108 0.19750234716 0.19540648976 0.19391601665 0.19297356844 0.19250295738 
0.19242027401 0.19264060096 0.19308024936 0.19365660255 0.19428850527 0.19489912456 0.19542121629 0.19580322582 0.19601430813 
0.19604683462 0.19591567979 0.19565425688 0.19530784631 0.19492522149 0.19454986849 0.1942121481 0.19392351367 0.19367339571 
0.19342872005 0.19313546024 0.19272137115 0.1920992181 0.1911702957 0.18982851518 0.18796550715 0.18547692372 0.18226960238 
0.17826877801 0.17342431062 0.16771494295 0.16114980993 0.1537667192 0.14562713745 0.13680839552 0.12739429365 0.11746578886 
0.10709348824 0.096333199018 0.085225076681 0.073796296437 0.062066703901 0.050056403618 0.037793666518 0.025321129153 0.01269839447 
1.2090110878e-15 
_area 1 100 double
0 0.00058171430641 0.0023050449472 0.0051062581911 0.0088845885563 0.013509757665 0.018831461795 0.024690236929 0.03092913742 
0.03740546185 0.044001346229 0.050631681137 0.057247838654 0.063836315644 0.070412527798 0.077011199341 0.083675365041 0.090445226892 
0.097346093714 0.10437371012 0.11147955889 0.11856639464 0.12550315539 0.13215486715 0.13841218454 0.14420661851 0.14950741094 
0.15430745021 0.15861012464 0.16242272228 0.16575313489 0.16860378486 0.17095937068 0.17277062456 0.17394294685 0.17434149518 
0.17381799014 0.17225209228 0.16958804615 0.16583947931 0.16106926975 0.15539917852 0.14903354099 0.14224706104 0.13534530695 
0.12862390319 0.12233968273 0.11669467627 0.11182837587 0.10791883239 0.10529469756 0.10344993556 0.10215248363 0.10110070936 
0.10005607281 0.098896349891 0.097581992383 0.096140467868 0.094631947719 0.093106519603 0.091576791209 0.090018777256 0.088400232965 
0.086708504287 0.084964700796 0.083229942088 0.081605591534 0.080225430948 0.079236618786 0.07876834369 0.078896130782 0.079618924096 
0.080861342147 0.082496391011 0.084371013186 0.086319106666 0.088160608948 0.089693848002 0.090691324967 0.090911871916 0.090131547251 
0.088182365728 0.084985402084 0.080568803584 0.075066480242 0.068698291287 0.06173687199 0.054469010088 0.047160127743 0.040029157656 
0.033238422399 0.026898958667 0.021086223324 0.015857546987 0.011265309707 0.0073654076218 0.0042216873207 0.0019043737432 0.00048066314618 
3.187574605e-17 
