# vtk DataFile Version 5.1
vtk output
ASCII
DATASET POLYDATA
POINTS 100 float
0.143552 0.0429544 0.64239 0.143545 0.04291 0.642225 0.143418 0.0429401 0.641862 
0.143144 0.0430493 0.641251 0.142679 0.0432438 0.640315 0.141974 0.0435293 0.638954 
0.140977 0.0439098 0.637055 0.139644 0.0443845 0.6345 0.137943 0.0449469 0.63118 
0.13586 0.0455821 0.627 0.133398 0.0462667 0.621889 0.130577 0.0469682 0.615802 
0.127432 0.0476457 0.60873 0.124003 0.0482519 0.600692 0.120333 0.0487359 0.591738 
0.116456 0.0490461 0.581941 0.112397 0.0491346 0.571394 0.108165 0.048961 0.560199 
0.10375 0.0484966 0.548462 0.0991315 0.0477271 0.536287 0.0942756 0.0466555 0.523766 
0.0891456 0.0453027 0.510979 0.083707 0.0437076 0.497989 0.0779351 0.041925 0.484845 
0.0718193 0.0400222 0.471577 0.0653667 0.0380754 0.458206 0.0586017 0.0361639 0.444739 
0.0515637 0.034365 0.431179 0.0443009 0.032749 0.41752 0.0368639 0.0313742 0.403755 
0.029298 0.0302836 0.389871 0.021636 0.0295031 0.375852 0.013894 0.0290412 0.361673 
0.00606903 0.0288901 0.3473 -0.00185828 0.0290285 0.332688 -0.0099186 0.0294261 0.317776 
-0.0181449 0.0300477 0.302491 -0.0265614 0.0308584 0.286748 -0.0351723 0.0318283 0.27045 
-0.0439508 0.0329358 0.253502 -0.052832 0.0341699 0.235809 -0.0617082 0.0355312 0.217292 
-0.070431 0.037031 0.197894 -0.0788179 0.0386882 0.177589 -0.0866635 0.0405266 0.156387 
-0.0937555 0.0425693 0.13434 -0.0998921 0.0448347 0.111542 -0.1049 0.0473317 0.088123 
-0.108651 0.0500562 0.0642452 -0.111072 0.0529885 0.0400902 -0.112154 0.0560929 0.0158468 
-0.111951 0.0593182 -0.00830356 -0.110574 0.0626005 -0.0322001 -0.108176 0.0658667 -0.0557153 
-0.104942 0.0690391 -0.0787633 -0.101062 0.0720403 -0.101305 -0.0967144 0.0747981 -0.123347 
-0.0920525 0.077249 -0.144939 -0.0871862 0.0793414 -0.166159 -0.0821772 0.0810367 -0.187105 
-0.0770383 0.0823098 -0.207877 -0.071738 0.0831468 -0.228562 -0.0662129 0.0835435 -0.249219 
-0.0603822 0.0835016 -0.26987 -0.054165 0.083026 -0.290488 -0.0474972 0.0821216 -0.311004 
-0.040346 0.080791 -0.331302 -0.0327194 0.0790341 -0.351238 -0.0246708 0.0768474 -0.370644 
-0.0162972 0.0742264 -0.389354 -0.00773221 0.0711674 -0.407216 0.000866538 0.0676708 -0.424108 
0.00933159 0.0637448 -0.439953 0.0175017 0.0594083 -0.454725 0.0252362 0.0546931 -0.468455 
0.0324266 0.049646 -0.481223 0.0390034 0.0443278 -0.493149 0.0449381 0.0388124 -0.504382 
0.0502399 0.0331839 -0.515081 0.0549479 0.0275323 -0.525392 0.0591204 0.0219492 -0.535439 
0.0628223 0.0165226 -0.545303 0.066114 0.011332 -0.555015 0.0690413 0.0064452 -0.564555 
0.0716298 0.00191451 -0.573851 0.0738831 -0.00222419 -0.582791 0.0757857 -0.0059518 -0.591235 
0.0773099 -0.0092648 -0.599035 0.0784251 -0.0121729 -0.606052 0.0791085 -0.0146961 -0.612174 
0.0793553 -0.0168609 -0.617329 0.0791864 -0.0186974 -0.621497 0.0786524 -0.0202358 -0.624712 
0.077834 -0.0215042 -0.627056 0.0768364 -0.022527 -0.628653 0.0757809 -0.0233239 -0.629656 
0.074793 -0.0239099 -0.630224 0.073989 -0.0242958 -0.630505 0.0734631 -0.0244886 -0.630623 
0.0732769 -0.0244926 -0.630655 
LINES 2 100
OFFSETS vtktypeint64
0 100 
CONNECTIVITY vtktypeint64
0 1 2 3 4 5 6 7 8 
9 10 11 12 13 14 15 16 17 
18 19 20 21 22 23 24 25 26 
27 28 29 30 31 32 33 34 35 
36 37 38 39 40 41 42 43 44 
45 46 47 48 49 50 51 52 53 
54 55 56 57 58 59 60 61 62 
63 64 65 66 67 68 69 70 71 
72 73 74 75 76 77 78 79 80 
81 82 83 84 85 86 87 88 89 
90 91 92 93 94 95 96 97 98 
99 
POINT_DATA 100
FIELD FieldData 3
_theta 1 100 double
0 0.031733259127 0.063466518254 0.095199777382 0.12693303651 0.15866629564 0.19039955476 0.22213281389 0.25386607302 
0.28559933214 0.31733259127 0.3490658504 0.38079910953 0.41253236865 0.44426562778 0.47599888691 0.50773214603 0.53946540516 
0.57119866429 0.60293192342 0.63466518254 0.66639844167 0.6981317008 0.72986495992 0.76159821905 0.79333147818 0.82506473731 
0.85679799643 0.88853125556 0.92026451469 0.95199777382 0.98373103294 1.0154642921 1.0471975512 1.0789308103 1.1106640695 
1.1423973286 1.1741305877 1.2058638468 1.237597106 1.2693303651 1.3010636242 1.3327968833 1.3645301425 1.3962634016 
1.4279966607 1.4597299198 1.491463179 1.5231964381 1.5549296972 1.5866629564 1.6183962155 1.6501294746 1.6818627337 
1.7135959929 1.745329252 1.7770625111 1.8087957702 1.8405290294 1.8722622885 1.9039955476 1.9357288068 1.9674620659 
1.999195325 2.0309285841 2.0626618433 2.0943951024 2.1261283615 2.1578616206 2.1895948798 2.2213281389 2.253061398 
2.2847946572 2.3165279163 2.3482611754 2.3799944345 2.4117276937 2.4434609528 2.4751942119 2.506927471 2.5386607302 
2.5703939893 2.6021272484 2.6338605076 2.6655937667 2.6973270258 2.7290602849 2.7607935441 2.7925268032 2.8242600623 
2.8559933214 2.8877265806 2.9194598397 2.9511930988 2.982926358 3.0146596171 3.0463928762 3.0781261353 3.1098593945 
3.1415926536 
_radius 1 100 double
4.9728201743e-16 0.014932748472 0.029669194567 0.044032187507 0.057875281288 0.071092664927 0.083623692426 0.095451674771 0.10659745972 
0.11710905058 0.12704900369 0.13648153744 0.14546115914 0.1540241977 0.16218402566 0.16993014507 0.17723087318 0.18403914133 
0.19030078646 0.19596448385 0.2009920866 0.20536775428 0.20910412602 0.2122441073 0.21485759051 0.21703342589 0.21886790494 
0.22045164314 0.22185693269 0.22312743438 0.2242716389 0.22526096954 0.22603277926 0.22649787011 0.22655162551 0.22608750172 
0.22501152617 0.22325654237 0.22079508273 0.21764979368 0.21390020558 0.20968437826 0.20519375056 0.20065975399 0.19633191576 
0.19244956394 0.18921229796 0.18675641391 0.18514359896 0.18436410016 0.18435109428 0.18499904371 0.186178605 0.18774440725 
0.18953771007 0.19139000023 0.19313297729 0.19461552865 0.19572322208 0.1963941669 0.19662682012 0.19647822846 0.19605364601 
0.19549005135 0.19493690427 0.19453755034 0.19441394241 0.19465591856 0.19531464255 0.19639874382 0.19787180652 0.19965106569 
0.20160856889 0.20357654697 0.20535791155 0.20674121782 0.20751803149 0.20750000951 0.20653320568 0.2045078715 0.20136299043 
0.19708567147 0.19170616936 0.18528964421 0.17792586684 0.16971800587 0.16077150187 0.15118392799 0.14103669439 0.13038944969 
0.11927796988 0.10771608553 0.095701702107 0.083226247192 0.070286088668 0.056893856246 0.043087401694 0.02893447377 0.014532005122 
2.4134939363e-16 
_area 1 100 double
0 0.00060713081405 0.0023954744911 0.0052722055399 0.0091018525153 0.0137293836 0.019003052232 0.024791499601 0.030991916663 
0.037529050239 0.044347399589 0.051400242756 0.058638919937 0.066004557244 0.073422999621 0.080802913889 0.088037210155 0.095008846797 
0.10160257301 0.10772267141 0.11331289643 0.11837061177 0.12294644068 0.12712629419 0.13100237594 0.13464631134 0.13809498484 
0.14135076059 0.14439042236 0.14717549227 0.14965887895 0.15178568541 0.15348776446 0.15467319078 0.15521616347 0.15496125476 
0.15375172266 0.1514705076 0.14807802163 0.14363679815 0.13831734821 0.13238403814 0.12616412333 0.12000608551 0.11423388666 
0.10910255897 0.10476197629 0.1012391782 0.098453819371 0.096277215785 0.094611863632 0.093450792354 0.092911631723 0.093146667237 
0.093993153458 0.095125997146 0.096207011955 0.096912029791 0.096990761925 0.096319106223 0.094916836081 0.09292908926 0.090588672685 
0.088176135258 0.085982842983 0.084276293915 0.083268284762 0.083079769013 0.083700116563 0.085018169644 0.086903720301 0.089228480977 
0.091855283956 0.094619638507 0.097320439885 0.09972625264 0.10159526202 0.10270035503 0.10285140934 0.10191119323 0.099804745198 
0.096523387732 0.092124039192 0.086723470576 0.080486945719 0.07361181802 0.066308488165 0.058782375496 0.051220353315 0.043783603382 
0.036606951131 0.029803299324 0.023471056456 0.017702219344 0.012588730297 0.0082249969818 0.0047054530613 0.0021177268783 0.00053353812399 
3.5135026088e-17 
