# vtk DataFile Version 5.1
vtk output
ASCII
DATASET POLYDATA
POINTS 100 float
0.107374 0.0462298 0.627816 0.107407 0.046404 0.627657 0.107521 0.0467844 0.627018 
0.107693 0.0473479 0.625893 0.107887 0.0480577 0.62427 0.10806 0.0488661 0.622133 
0.108159 0.0497176 0.619465 0.108132 0.0505527 0.616247 0.107926 0.0513126 0.612458 
0.107496 0.0519421 0.608079 0.106803 0.0523943 0.603093 0.10582 0.0526321 0.597489 
0.104528 0.052631 0.59126 0.102919 0.0523794 0.584408 0.100994 0.0518784 0.576944 
0.0987581 0.0511403 0.568888 0.0962201 0.0501868 0.56027 0.0933889 0.0490462 0.551127 
0.0902707 0.0477502 0.541504 0.0868669 0.0463317 0.531453 0.0831736 0.044822 0.521028 
0.0791809 0.0432489 0.51028 0.0748745 0.0416368 0.49926 0.0702375 0.0400056 0.488012 
0.0652528 0.0383726 0.476571 0.0599065 0.0367538 0.464961 0.0541908 0.0351663 0.453195 
0.0481063 0.0336303 0.441273 0.0416644 0.0321715 0.429185 0.034888 0.0308221 0.416907 
0.0278112 0.029622 0.404412 0.0204787 0.0286178 0.391662 0.0129433 0.0278615 0.378618 
0.00526345 0.0274076 0.365238 -0.00249937 0.0273096 0.351484 -0.0102837 0.0276164 0.337318 
-0.0180302 0.0283676 0.322706 -0.0256828 0.0295897 0.30762 -0.0331896 0.0312933 0.292036 
-0.0405018 0.0334711 0.275935 -0.0475729 0.0360967 0.2593 -0.054356 0.0391257 0.242121 
-0.0608022 0.0424977 0.224391 -0.0668586 0.0461394 0.206105 -0.0724666 0.0499685 0.187267 
-0.0775626 0.0538982 0.167885 -0.0820783 0.0578417 0.147976 -0.0859441 0.0617158 0.127568 
-0.0890926 0.0654444 0.106701 -0.0914637 0.0689606 0.0854264 -0.0930101 0.0722083 0.0638118 
-0.0937022 0.0751421 0.0419367 -0.0935329 0.077727 0.0198924 -0.0925205 0.0799378 -0.00222142 
-0.0907093 0.0817577 -0.0243008 -0.0881689 0.0831777 -0.0462427 -0.08499 0.084196 -0.0679501 
-0.0812789 0.084818 -0.0893381 -0.0771494 0.0850566 -0.110339 -0.0727151 0.0849329 -0.130904 
-0.0680802 0.0844771 -0.15101 -0.0633323 0.0837289 -0.170655 -0.0585362 0.0827368 -0.189857 
-0.0537309 0.0815573 -0.208652 -0.0489291 0.0802518 -0.227086 -0.0441201 0.0788835 -0.24521 
-0.0392754 0.0775123 -0.263066 -0.0343568 0.0761894 -0.280686 -0.0293259 0.0749518 -0.298082 
-0.0241536 0.0738176 -0.315241 -0.0188291 0.0727822 -0.332122 -0.0133663 0.0718168 -0.348656 
-0.00780798 0.0708689 -0.364752 -0.0022252 0.0698661 -0.380299 0.00328595 0.0687221 -0.395182 
0.00861204 0.0673452 -0.409283 0.0136326 0.0656485 -0.4225 0.0182322 0.0635602 -0.434756 
0.0223133 0.0610344 -0.446007 0.0258076 0.0580592 -0.456247 0.0286858 0.0546629 -0.465517 
0.0309623 0.0509154 -0.473898 0.032697 0.0469271 -0.481511 0.0339913 0.0428417 -0.488504 
0.0349792 0.0388263 -0.495043 0.0358154 0.035058 -0.501295 0.0366598 0.031708 -0.507417 
0.0376609 0.0289267 -0.513535 0.0389402 0.026828 -0.519738 0.0405788 0.0254786 -0.526063 
0.0426073 0.0248893 -0.532493 0.0450015 0.0250133 -0.538955 0.0476833 0.0257482 -0.545323 
0.0505272 0.026945 -0.551432 0.0533724 0.028421 -0.557088 0.0560382 0.0299764 -0.562085 
0.058342 0.0314133 -0.56622 0.0601181 0.032554 -0.569316 0.0612341 0.0332584 -0.571234 
0.0616048 0.0334373 -0.571885 
LINES 2 100
OFFSETS vtktypeint64
0 100 
CONNECTIVITY vtktypeint64
0 1 2 3 4 5 6 7 8 
9 10 11 12 13 14 15 16 17 
18 19 20 21 22 23 24 25 26 
27 28 29 30 31 32 33 34 35 
36 37 38 39 40 41 42 43 44 
45 46 47 48 49 50 51 52 53 
54 55 56 57 58 59 60 61 62 
63 64 65 66 67 68 69 70 71 
72 73 74 75 76 77 78 79 80 
81 82 83 84 85 86 87 88 89 
90 91 92 93 94 95 96 97 98 
99 
POINT_DATA 100
FIELD FieldData 3
_theta 1 100 double
0 0.031733259127 0.063466518254 0.095199777382 0.12693303651 0.15866629564 0.19039955476 0.22213281389 0.25386607302 
0.28559933214 0.31733259127 0.3490658504 0.38079910953 0.41253236865 0.44426562778 0.47599888691 0.50773214603 0.53946540516 
0.57119866429 0.60293192342 0.63466518254 0.66639844167 0.6981317008 0.72986495992 0.76159821905 0.79333147818 0.82506473731 
0.85679799643 0.88853125556 0.92026451469 0.95199777382 0.98373103294 1.0154642921 1.0471975512 1.0789308103 1.1106640695 
1.1423973286 1.1741305877 1.2058638468 1.237597106 1.2693303651 1.3010636242 1.3327968833 1.3645301425 1.3962634016 
1.4279966607 1.4597299198 1.491463179 1.5231964381 1.5549296972 1.5866629564 1.6183962155 1.6501294746 1.6818627337 
1.7135959929 1.745329252 1.7770625111 1.8087957702 1.8405290294 1.8722622885 1.9039955476 1.9357288068 1.9674620659 
1.999195325 2.0309285841 2.0626618433 2.0943951024 2.1261283615 2.1578616206 2.1895948798 2.2213281389 2.253061398 
2.2847946572 2.3165279163 2.3482611754 2.3799944345 2.4117276937 2.4434609528 2.4751942119 2.506927471 2.5386607302 
2.5703939893 2.6021272484 2.6338605076 2.6655937667 2.6973270258 2.7290602849 2.7607935441 2.7925268032 2.8242600623 
2.8559933214 2.8877265806 2.9194598397 2.9511930988 2.982926358 3.0146596171 3.0463928762 3.0781261353 3.1098593945 
3.1415926536 
_radius 1 100 double
3.6142246538e-16 0.01287096567 0.025797515798 0.038814688037 0.051932209186 0.065126892286 0.0783398822 0.091479116458 0.10442662004 
0.11704959184 0.12921374295 0.14079706167 0.15170213366 0.16186534634 0.17126173889 0.17990488207 0.1878419143 0.19514462218 
0.20189810137 0.20818891031 0.21409458727 0.21967589609 0.22497235382 0.23000081327 0.23475645091 0.23921551646 0.24333943035 
0.24707998319 0.25038535161 0.25320643654 0.25550278965 0.25724726431 0.25842860662 0.25905152124 0.25913425767 0.25870434014 
0.25779353854 0.25643338581 0.25465240863 0.25247579754 0.24992764611 0.24703530497 0.24383494101 0.24037711401 0.23673108852 
0.23298667736 0.22925267153 0.22565138329 0.22230954636 0.21934672972 0.21686329305 0.21493031925 0.21358350576 0.21282170305 
0.21260928175 0.21288065189 0.21354548283 0.21449417114 0.21560410073 0.21674755167 0.21780157902 0.21865918443 0.21924021144 
0.21949999104 0.21943391731 0.21907672279 0.21849607666 0.21778108625 0.21702719401 0.21631965702 0.21571808786 0.21524430131 
0.21487501418 0.21454006391 0.21412606503 0.21348493087 0.21244634997 0.21083298594 0.20847684167 0.20523496425 0.20100258048 
0.19572195728 0.18938581811 0.1820349505 0.17375055283 0.16464269816 0.15483684301 0.14446043822 0.1336313998 0.12244963011 
0.1109921825 0.099312177334 0.087441194215 0.075394511611 0.063178228363 0.05079703829 0.038261301722 0.025592107605 0.012823298579 
2.337624181e-16 
_area 1 100 double
0 0.00048498514124 0.0019414168469 0.0043711685007 0.0077693144183 0.012113707318 0.017353640463 0.02340056492 0.030123952373 
0.037354705663 0.04489698192 0.05254721428 0.060117098363 0.067456005368 0.07446811614 0.081120556601 0.087440589531 0.093501917914 
0.099401980921 0.10523410828 0.11106155417 0.11690381441 0.12274375467 0.12855359307 0.13432589842 0.14009060297 0.14590035939 
0.15177907823 0.15766197676 0.16337891075 0.16869534676 0.17337482962 0.17722882061 0.18014377329 0.18208707083 0.18309610999 
0.18325577218 0.18267040672 0.18143696722 0.17962571104 0.17727326703 0.17438950977 0.17097558101 0.16704739135 0.16265771236 
0.15791001471 0.15295829919 0.14799010405 0.14319581471 0.13873579427 0.13472232293 0.13122815761 0.12829993095 0.12593282548 
0.12410848903 0.12277181483 0.12182180319 0.12115805071 0.12067239072 0.12023548773 0.11969790883 0.11890916344 0.11776148697 
0.11630316178 0.11466098716 0.11275365946 0.11067860228 0.10859136568 0.10666046336 0.10503232681 0.10381128394 0.10304898731 
0.10273653952 0.10279618758 0.10307618475 0.10335663064 0.10336983272 0.10283122396 0.10147514123 0.099092526969 0.095567802343 
0.090906485423 0.085241245999 0.078809919059 0.07190925368 0.0648356445 0.057828481226 0.05103419351 0.044505385454 0.038234082171 
0.03219999618 0.026410887509 0.020921741168 0.015831399238 0.011264088137 0.0073466521774 0.0041901441422 0.0018797149707 0.00047243502987 
1.734723476e-18 
