# vtk DataFile Version 5.1
vtk output
ASCII
DATASET POLYDATA
POINTS 100 float
0.122204 0.0298521 0.614773 0.122305 0.0299963 0.614423 0.12268 0.0303123 0.613278 
0.123251 0.0307899 0.611422 0.123897 0.0314124 0.608981 0.124471 0.0321579 0.606105 
0.124815 0.0330005 0.602945 0.124779 0.0339122 0.599625 0.12424 0.034864 0.596229 
0.123114 0.0358279 0.592777 0.121367 0.0367779 0.589228 0.119014 0.0376911 0.585475 
0.116115 0.0385482 0.58136 0.112769 0.0393336 0.576694 0.109093 0.0400353 0.571279 
0.105212 0.0406442 0.564937 0.101239 0.0411534 0.557533 0.0972568 0.0415574 0.548994 
0.0933133 0.0418512 0.539322 0.089411 0.04203 0.528597 0.0855094 0.0420884 0.516968 
0.081531 0.0420211 0.50464 0.0773728 0.0418228 0.491848 0.0729216 0.0414898 0.478834 
0.0680698 0.0410205 0.465818 0.0627322 0.0404173 0.452974 0.0568578 0.0396877 0.440415 
0.0504394 0.0388456 0.428181 0.0435155 0.0379122 0.41624 0.0361674 0.036916 0.404496 
0.0285103 0.0358931 0.392808 0.0206799 0.0348857 0.381006 0.0128163 0.0339404 0.368921 
0.00504753 0.0331067 0.356404 -0.00252539 0.0324333 0.343342 -0.00983997 0.0319661 0.329674 
-0.0168782 0.031745 0.315391 -0.0236666 0.0318015 0.300532 -0.0302699 0.0321564 0.285172 
-0.0367791 0.0328189 0.269403 -0.0432957 0.033786 0.253319 -0.049913 0.0350429 0.236987 
-0.0566977 0.0365644 0.220442 -0.0636741 0.0383167 0.203667 -0.0708118 0.0402606 0.186597 
-0.0780197 0.0423536 0.169123 -0.0851469 0.0445537 0.151101 -0.0919898 0.0468214 0.132377 
-0.0983062 0.0491223 0.112804 -0.103834 0.0514284 0.0922686 -0.108311 0.0537194 0.0707057 
-0.1115 0.0559819 0.0481172 -0.113206 0.0582095 0.0245768 -0.113299 0.0604004 0.000228884 
-0.111716 0.0625561 -0.0247213 -0.108475 0.0646793 -0.0500244 -0.10367 0.0667708 -0.0754088 
-0.097463 0.0688283 -0.100605 -0.0900686 0.0708441 -0.125368 -0.0817387 0.0728037 -0.149499 
-0.0727412 0.074685 -0.172857 -0.0633393 0.0764576 -0.195366 -0.0537729 0.0780834 -0.217017 
-0.0442432 0.0795167 -0.237855 -0.0349009 0.0807052 -0.257966 -0.0258407 0.0815914 -0.277462 
-0.0171002 0.0821136 -0.296455 -0.00866433 0.0822085 -0.315048 -0.000474141 0.0818125 -0.333311 
0.00756194 0.0808642 -0.351281 0.0155544 0.0793073 -0.368952 0.0236187 0.0770933 -0.386281 
0.031862 0.0741845 -0.403194 0.0403718 0.0705577 -0.419599 0.0492069 0.0662069 -0.435401 
0.0583919 0.061147 -0.45051 0.0679144 0.0554155 -0.464855 0.0777256 0.0490749 -0.47839 
0.0877438 0.0422127 -0.491098 0.0978601 0.0349404 -0.502985 0.107945 0.0273915 -0.514079 
0.117858 0.0197164 -0.52442 0.127455 0.0120773 -0.534049 0.136596 0.00464045 -0.543003 
0.145155 -0.002432 -0.551304 0.153025 -0.00899065 -0.558961 0.160125 -0.0149075 -0.565964 
0.166398 -0.0200835 -0.572295 0.17182 -0.0244546 -0.577928 0.176396 -0.027996 -0.582841 
0.180158 -0.0307228 -0.587023 0.183163 -0.0326888 -0.590484 0.185488 -0.0339821 -0.593255 
0.187223 -0.0347175 -0.595389 0.188467 -0.0350274 -0.596965 0.189318 -0.0350508 -0.598072 
0.189868 -0.034922 -0.598806 0.190197 -0.0347591 -0.599256 0.190365 -0.0346547 -0.599497 
0.190411 -0.0346675 -0.599575 
LINES 2 100
OFFSETS vtktypeint64
0 100 
CONNECTIVITY vtktypeint64
0 1 2 3 4 5 6 7 8 
9 10 11 12 13 14 15 16 17 
18 19 20 21 22 23 24 25 26 
27 28 29 30 31 32 33 34 35 
36 37 38 39 40 41 42 43 44 
45 46 47 48 49 50 51 52 53 
54 55 56 57 58 59 60 61 62 
63 64 65 66 67 68 69 70 71 
72 73 74 75 76 77 78 79 80 
81 82 83 84 85 86 87 88 89 
90 91 92 93 94 95 96 97 98 
99 
POINT_DATA 100
FIELD FieldData 3
_theta 1 100 double
0 0.031733259127 0.063466518254 0.095199777382 0.12693303651 0.15866629564 0.19039955476 0.22213281389 0.25386607302 
0.28559933214 0.31733259127 0.3490658504 0.38079910953 0.41253236865 0.44426562778 0.47599888691 0.50773214603 0.53946540516 
0.57119866429 0.60293192342 0.63466518254 0.66639844167 0.6981317008 0.72986495992 0.76159821905 0.79333147818 0.82506473731 
0.85679799643 0.88853125556 0.92026451469 0.95199777382 0.98373103294 1.0154642921 1.0471975512 1.0789308103 1.1106640695 
1.1423973286 1.1741305877 1.2058638468 1.237597106 1.2693303651 1.3010636242 1.3327968833 1.3645301425 1.3962634016 
1.4279966607 1.4597299198 1.491463179 1.5231964381 1.5549296972 1.5866629564 1.6183962155 1.6501294746 1.6818627337 
1.7135959929 1.745329252 1.7770625111 1.8087957702 1.8405290294 1.8722622885 1.9039955476 1.9357288068 1.9674620659 
1.999195325 2.0309285841 2.0626618433 2.0943951024 2.1261283615 2.1578616206 2.1895948798 2.2213281389 2.253061398 
2.2847946572 2.3165279163 2.3482611754 2.3799944345 2.4117276937 2.4434609528 2.4751942119 2.506927471 2.5386607302 
2.5703939893 2.6021272484 2.6338605076 2.6655937667 2.6973270258 2.7290602849 2.7607935441 2.7925268032 2.8242600623 
2.8559933214 2.8877265806 2.9194598397 2.9511930988 2.982926358 3.0146596171 3.0463928762 3.0781261353 3.1098593945 
3.1415926536 
_radius 1 100 double
1.1222199551e-15 0.014837963279 0.029606080194 0.04423162888 0.058646206154 0.072785535534 0.086587823889 0.099992073308 0.11293789818 
0.12536770326 0.13723091038 0.1484888483 0.15911840988 0.16911283516 0.17847889976 0.18723103567 0.1953840014 0.20294621797 
0.20991561597 0.21627896505 0.22201458585 0.22709749678 0.23150567867 0.23522627615 0.23826102392 0.24063069406 0.24237860943 
0.24357309239 0.24430817691 0.24470128593 0.24488627896 0.24500073915 0.24516786353 0.24547564507 0.24595821571 0.24658476785 
0.24725955302 0.24783296279 0.24812067705 0.24792669731 0.24706657665 0.2453882904 0.24278919695 0.23922823225 0.23473297188 
0.22940154673 0.22339953631 0.21695179678 0.21032880172 0.20382690135 0.1977426313 0.19234338022 0.18783986503 0.18436764848 
0.18198256777 0.18066875846 0.18035247308 0.18091428153 0.18219619838 0.18400540138 0.18611936233 0.18829699787 0.19029724491 
0.19190228195 0.19293998555 0.19330036346 0.19294303246 0.19189584912 0.190246989 0.18813296786 0.18572380637 0.18320566347 
0.18076168624 0.1785527115 0.17669991964 0.17527143174 0.17427430565 0.17365257989 0.17329115486 0.17302464193 0.17264997898 
0.17194153677 0.17066747052 0.16860611221 0.16556124318 0.1613751608 0.15593857953 0.14919661155 0.14115037103 0.1318541249 
0.12140832578 0.10994924784 0.097636261504 0.084638012372 0.071118916371 0.057227444634 0.043087614589 0.028794861816 0.014416972243 
1.1449454061e-15 
_area 1 100 double
0 0.00050906645436 0.0020354914026 0.0045748500188 0.0081136390617 0.012622596512 0.018050982829 0.024323527338 0.03134109066 
0.038985310092 0.047126365534 0.055631699251 0.064372793691 0.073227825884 0.082080276105 0.090816108718 0.099323015713 0.10749358784 
0.1152314116 0.12245723323 0.12911279443 0.1351619548 0.14058963709 0.14539695478 0.14958961994 0.15316550292 0.15611817893 
0.15846273125 0.16027020155 0.16169477785 0.16298139423 0.16443452235 0.16633242026 0.16882137742 0.17186193815 0.1752426887 
0.17862500995 0.18159516344 0.18371862845 0.18459478731 0.18390894443 0.18147723357 0.17727796894 0.17146148678 0.16433141562 
0.15629546091 0.14779542104 0.13924225032 0.13098519437 0.12331547743 0.11646810296 0.11058887714 0.10569197879 0.10168143855 
0.098431977334 0.095839900832 0.093822647991 0.092313469953 0.091259553055 0.090608645319 0.090288852947 0.090192618252 0.090177662358 
0.090085496465 0.08976517618 0.089100108129 0.088035265564 0.086590468722 0.08485531513 0.082971747393 0.081106680796 0.07941860667 
0.078028971482 0.077008333476 0.076376732112 0.076110424079 0.076150087983 0.07640922989 0.076780585385 0.077137747012 0.077332491553 
0.077192623249 0.076526212766 0.075135717591 0.07284187965 0.069513717533 0.065098051147 0.059640744084 0.05329296973 0.046299436337 
0.038970522917 0.031644546601 0.024648250863 0.018263011346 0.01270224146 0.0081029479261 0.0045316330121 0.0020018610608 0.00049822328053 
2.2685260933e-17 
