# vtk DataFile Version 5.1
vtk output
ASCII
DATASET POLYDATA
POINTS 100 float
0.106831 0.0490264 0.636701 0.106992 0.0491809 0.636345 0.107491 0.0494924 0.63512 
0.108253 0.0499303 0.63306 0.109161 0.0504493 0.630214 0.110071 0.0509961 0.626643 
0.110825 0.0515173 0.622417 0.111271 0.0519681 0.6176 0.111277 0.0523181 0.612249 
0.110747 0.0525563 0.606407 0.109625 0.0526919 0.600104 0.107905 0.0527524 0.59335 
0.105625 0.052778 0.586145 0.102859 0.0528139 0.578482 0.0997101 0.0529016 0.57035 
0.0962918 0.0530696 0.561745 0.0927172 0.0533259 0.552671 0.0890837 0.0536536 0.543146 
0.0854625 0.0540093 0.533205 0.0818921 0.054326 0.522894 0.0783756 0.0545195 0.512273 
0.0748836 0.0544984 0.501403 0.071361 0.0541754 0.490345 0.0677364 0.0534794 0.479148 
0.0639341 0.0523667 0.467846 0.0598849 0.0508292 0.456455 0.0555366 0.0488987 0.444964 
0.0508609 0.0466472 0.433347 0.0458566 0.0441822 0.421556 0.0405491 0.0416375 0.409533 
0.034986 0.0391614 0.397219 0.0292296 0.0369027 0.384556 0.0233473 0.0349964 0.371498 
0.0174022 0.0335519 0.358016 0.0114442 0.0326431 0.344099 0.00550394 0.0323034 0.329754 
-0.000410509 0.0325252 0.315002 -0.00631259 0.0332639 0.299871 -0.0122326 0.0344459 0.284392 
-0.01821 0.0359799 0.268586 -0.0242829 0.0377689 0.252458 -0.0304775 0.0397223 0.235995 
-0.0367975 0.0417658 0.219161 -0.0432157 0.0438491 0.201896 -0.0496692 0.0459483 0.184128 
-0.0560579 0.0480652 0.165772 -0.0622479 0.0502227 0.146749 -0.0680787 0.0524559 0.126991 
-0.0733737 0.0548032 0.106454 -0.0779535 0.0572953 0.0851258 -0.0816487 0.0599464 0.0630343 
-0.0843139 0.0627476 0.0402458 -0.0858378 0.0656627 0.0168644 -0.0861517 0.0686293 -0.00697549 
-0.085233 0.0715622 -0.0311188 -0.0831051 0.0743604 -0.0554021 -0.0798334 0.076917 -0.0796663 
-0.0755173 0.0791285 -0.103769 -0.0702808 0.0809046 -0.127592 -0.0642612 0.0821763 -0.151051 
-0.0575982 0.0829003 -0.174095 -0.0504238 0.0830614 -0.196704 -0.0428548 0.0826701 -0.218884 
-0.0349878 0.0817583 -0.240658 -0.0268974 0.0803717 -0.262056 -0.0186368 0.0785619 -0.283104 
-0.010241 0.076378 -0.303813 -0.00173231 0.0738592 -0.324177 0.00687443 0.0710306 -0.344167 
0.0155655 0.0679006 -0.363731 0.024323 0.0644624 -0.382801 0.0331215 0.0606978 -0.401297 
0.0419252 0.0565835 -0.419139 0.0506876 0.0520984 -0.436253 0.059353 0.0472315 -0.452582 
0.0678587 0.0419888 -0.46809 0.0761384 0.0363978 -0.482766 0.084126 0.0305098 -0.496626 
0.0917595 0.0243993 -0.509704 0.0989837 0.0181603 -0.52205 0.105753 0.0119003 -0.533721 
0.112032 0.00573249 -0.54477 0.117797 -0.000232625 -0.555239 0.123036 -0.00589522 -0.565154 
0.127746 -0.0111729 -0.574519 0.131934 -0.0160055 -0.583318 0.135615 -0.0203571 -0.591516 
0.13881 -0.024216 -0.599069 0.141546 -0.0275917 -0.605928 0.143853 -0.0305107 -0.61205 
0.145768 -0.0330107 -0.617405 0.147327 -0.0351352 -0.621985 0.148571 -0.0369276 -0.625804 
0.149541 -0.0384277 -0.628899 0.150277 -0.039668 -0.631329 0.150818 -0.0406735 -0.633169 
0.151198 -0.0414611 -0.634496 0.151448 -0.0420415 -0.635384 0.151589 -0.0424202 -0.635895 
0.151635 -0.0426 -0.636068 
LINES 2 100
OFFSETS vtktypeint64
0 100 
CONNECTIVITY vtktypeint64
0 1 2 3 4 5 6 7 8 
9 10 11 12 13 14 15 16 17 
18 19 20 21 22 23 24 25 26 
27 28 29 30 31 32 33 34 35 
36 37 38 39 40 41 42 43 44 
45 46 47 48 49 50 51 52 53 
54 55 56 57 58 59 60 61 62 
63 64 65 66 67 68 69 70 71 
72 73 74 75 76 77 78 79 80 
81 82 83 84 85 86 87 88 89 
90 91 92 93 94 95 96 97 98 
99 
POINT_DATA 100
FIELD FieldData 3
_theta 1 100 double
0 0.031733259127 0.063466518254 0.095199777382 0.12693303651 0.15866629564 0.19039955476 0.22213281389 0.25386607302 
0.28559933214 0.31733259127 0.3490658504 0.38079910953 0.41253236865 0.44426562778 0.47599888691 0.50773214603 0.53946540516 
0.57119866429 0.60293192342 0.63466518254 0.66639844167 0.6981317008 0.72986495992 0.76159821905 0.79333147818 0.82506473731 
0.85679799643 0.88853125556 0.92026451469 0.95199777382 0.98373103294 1.0154642921 1.0471975512 1.0789308103 1.1106640695 
1.1423973286 1.1741305877 1.2058638468 1.237597106 1.2693303651 1.3010636242 1.3327968833 1.3645301425 1.3962634016 
1.4279966607 1.4597299198 1.491463179 1.5231964381 1.5549296972 1.5866629564 1.6183962155 1.6501294746 1.6818627337 
1.7135959929 1.745329252 1.7770625111 1.8087957702 1.8405290294 1.8722622885 1.9039955476 1.9357288068 1.9674620659 
1.999195325 2.0309285841 2.0626618433 2.0943951024 2.1261283615 2.1578616206 2.1895948798 2.2213281389 2.253061398 
2.2847946572 2.3165279163 2.3482611754 2.3799944345 2.4117276937 2.4434609528 2.4751942119 2.506927471 2.5386607302 
2.5703939893 2.6021272484 2.6338605076 2.6655937667 2.6973270258 2.7290602849 2.7607935441 2.7925268032 2.8242600623 
2.8559933214 2.8877265806 2.9194598397 2.9511930988 2.982926358 3.0146596171 3.0463928762 3.0781261353 3.1098593945 
3.1415926536 
_radius 1 100 double
1.009173798e-15 0.012941672739 0.02587171961 0.038764331147 0.051585297136 0.064291207902 0.076831300722 0.08915169672 0.10120097611 
0.11293549275 0.12432279926 0.13534213621 0.14598198685 0.15623580945 0.16609769794 0.17555951525 0.18461007286 0.19323575122 
0.2014212631 0.20914942869 0.21639969645 0.2231461716 0.22935653709 0.23499316739 0.24001700107 0.24439369129 0.24810063128 
0.2511330142 0.25350728626 0.2552610758 0.25644960403 0.257139333 0.25739997394 0.25729599601 0.25687863009 0.25617922543 
0.25520475236 0.2539362092 0.25233059407 0.25032684625 0.24785569024 0.24485264496 0.24127270538 0.23710456326 0.23238192911 
0.22718972268 0.22166366838 0.21598304068 0.21035757213 0.20501031194 0.20015821956 0.19599194835 0.19265643276 0.19023463255 
0.18873722684 0.18810041358 0.18819248531 0.18882835589 0.18979020904 0.19085183899 0.19180380982 0.19247628816 0.19275653781 
0.19259875187 0.19202503314 0.19111766563 0.19000408832 0.18883696676 0.18777226745 0.18694820201 0.1864674349 0.18638425501 
0.18669764357 0.18735041011 0.18823392749 0.18919756527 0.19006163579 0.19063241779 0.19071762145 0.19014064055 0.18875217931 
0.18643828505 0.18312432772 0.17877493845 0.17339030946 0.16699956575 0.1596521577 0.15140840109 0.14233040816 0.13247468114 
0.12188751826 0.11060404051 0.098651067356 0.086053331931 0.072841801129 0.059062343316 0.044782805496 0.0300967845 0.015122989552 
8.9138017246e-16 
_area 1 100 double
0 0.0004937435018 0.0019692525203 0.0044068013915 0.0077663689344 0.011981236738 0.016955880054 0.022571495689 0.028699791385 
0.035222080385 0.042047674909 0.049124641723 0.056438112715 0.063996046757 0.071807641589 0.07986284852 0.088120723152 0.096509824317 
0.10493809965 0.11330599335 0.12151664514 0.12948038891 0.13711517753 0.14434726527 0.15111469951 0.15737014034 0.16307607289 
0.16819261412 0.17266934873 0.1764507752 0.17949249449 0.18177930699 0.18333785256 0.18423766737 0.18457581002 0.18444622629 
0.18390476083 0.18294481557 0.18149190137 0.17941694119 0.17656497804 0.1727945291 0.16802052809 0.16225142215 0.15561016004 
0.14833091332 0.14072939869 0.13315410463 0.12593403793 0.11933780174 0.11354830311 0.10865136633 0.10464267327 0.10145674081 
0.099003779698 0.097193262172 0.095938091884 0.095147986172 0.094719429249 0.094499447765 0.094258882008 0.093777266418 0.092911896681 
0.091612811775 0.089922291307 0.087961827557 0.085903827027 0.083933271437 0.082213515185 0.080869218321 0.079985901357 0.079615254841 
0.079777144054 0.080455868507 0.08159283637 0.083079142632 0.084751388661 0.086395187548 0.087760486641 0.088586899928 0.088632720335 
0.087702268373 0.085667351573 0.082479512013 0.078171848294 0.072851387088 0.066684485941 0.059878482566 0.052662724672 0.045271430497 
0.037929927647 0.030844941456 0.024198846242 0.018147271816 0.012819297458 0.0083195389178 0.004731319365 0.0021196419172 0.00053249822083 
7.1217218206e-17 
