# vtk DataFile Version 5.1
vtk output
ASCII
DATASET POLYDATA
POINTS 100 float
0.0670986 -0.0153715 -0.68749 0.0670788 -0.0153355 -0.68736 0.0670112 -0.0150548 -0.686966 
0.0668732 -0.0145304 -0.686231 0.0666304 -0.0137641 -0.68504 0.0662401 -0.0127564 -0.683249 
0.0656549 -0.0115061 -0.680704 0.0648274 -0.0100088 -0.677258 0.0637138 -0.00825707 -0.672786 
0.0622761 -0.00624044 -0.6672 0.0604839 -0.00394718 -0.660456 0.0583141 -0.00136632 -0.65256 
0.0557501 0.00150946 -0.643563 0.0527799 0.00468071 -0.633558 0.0493938 0.00813828 -0.622664 
0.0455827 0.011861 -0.611017 0.0413371 0.0158143 -0.598751 0.0366474 0.0199505 -0.585986 
0.0315056 0.0242102 -0.572819 0.0259076 0.0285251 -0.559313 0.0198572 0.0328224 -0.545497 
0.0133697 0.0370294 -0.531365 0.00647536 0.0410786 -0.516883 -0.00077814 0.0449122 -0.501998 
-0.00832549 0.0484858 -0.486648 -0.0160851 0.0517705 -0.470768 -0.0239629 0.0547536 -0.454307 
-0.0318578 0.0574371 -0.437226 -0.0396688 0.0598356 -0.419507 -0.0473024 0.0619716 -0.401153 
-0.0546791 0.0638717 -0.382182 -0.0617395 0.0655618 -0.362624 -0.0684462 0.0670632 -0.342515 
-0.074785 0.0683896 -0.321889 -0.080761 0.0695456 -0.300774 -0.0863927 0.0705268 -0.279186 
-0.0917042 0.071321 -0.257129 -0.0967152 0.0719108 -0.234596 -0.101432 0.0722763 -0.211575 
-0.10584 0.0723989 -0.188051 -0.109896 0.0722638 -0.164014 -0.113531 0.0718617 -0.139471 
-0.116647 0.0711902 -0.114443 -0.119129 0.0702535 -0.0889769 -0.12085 0.0690605 -0.0631435 
-0.121686 0.0676239 -0.0370367 -0.121529 0.0659574 -0.0107709 -0.120296 0.0640744 0.0155251 
-0.117947 0.061987 0.0417147 -0.114482 0.0597061 0.0676607 -0.109952 0.0572433 0.0932325 
-0.10445 0.0546132 0.118311 -0.0981051 0.0518372 0.142793 -0.0910731 0.0489473 0.166594 
-0.0835202 0.0459888 0.189647 -0.0756093 0.043023 0.211901 -0.0674863 0.0401268 0.233321 
-0.059269 0.0373907 0.253884 -0.05104 0.0349143 0.273579 -0.0428447 0.0327993 0.292404 
-0.0346943 0.0311407 0.310367 -0.0265728 0.0300181 0.327491 -0.0184482 0.0294857 0.343807 
-0.0102846 0.0295656 0.359369 -0.00205538 0.0302418 0.374242 0.00624649 0.031459 0.388514 
0.0146005 0.033125 0.402287 0.0229556 0.0351163 0.415675 0.031232 0.0372882 0.428799 
0.0393276 0.0394873 0.441777 0.0471282 0.041565 0.454715 0.0545203 0.043391 0.467699 
0.0614041 0.0448653 0.480783 0.067706 0.0459264 0.493985 0.0733872 0.0465565 0.507281 
0.078449 0.04678 0.520608 0.082932 0.0466592 0.533866 0.0869112 0.046284 0.546928 
0.0904862 0.0457594 0.55965 0.0937676 0.0451913 0.571883 0.0968633 0.044672 0.583492 
0.099864 0.0442683 0.59436 0.102832 0.0440127 0.604408 0.105792 0.043899 0.613591 
0.108733 0.0438841 0.621911 0.111604 0.043894 0.629405 0.114329 0.0438344 0.636141 
0.116815 0.0436051 0.642211 0.118967 0.0431145 0.647713 0.120705 0.0422944 0.652741 
0.121971 0.041112 0.657373 0.122749 0.0395779 0.661661 0.123059 0.0377481 0.665625 
0.122966 0.0357219 0.669256 0.122566 0.0336323 0.672513 0.121981 0.0316336 0.675336 
0.12134 0.0298851 0.677652 0.120767 0.0285337 0.67939 0.120364 0.0276981 0.680489 
0.120197 0.0274555 0.680907 
LINES 2 100
OFFSETS vtktypeint64
0 100 
CONNECTIVITY vtktypeint64
0 1 2 3 4 5 6 7 8 
9 10 11 12 13 14 15 16 17 
18 19 20 21 22 23 24 25 26 
27 28 29 30 31 32 33 34 35 
36 37 38 39 40 41 42 43 44 
45 46 47 48 49 50 51 52 53 
54 55 56 57 58 59 60 61 62 
63 64 65 66 67 68 69 70 71 
72 73 74 75 76 77 78 79 80 
81 82 83 84 85 86 87 88 89 
90 91 92 93 94 95 96 97 98 
99 
POINT_DATA 100
FIELD FieldData 3
_theta 1 100 double
0 0.031733259127 0.063466518254 0.095199777382 0.12693303651 0.15866629564 0.19039955476 0.22213281389 0.25386607302 
0.28559933214 0.31733259127 0.3490658504 0.38079910953 0.41253236865 0.44426562778 0.47599888691 0.50773214603 0.53946540516 
0.57119866429 0.60293192342 0.63466518254 0.66639844167 0.6981317008 0.72986495992 0.76159821905 0.79333147818 0.82506473731 
0.85679799643 0.88853125556 0.92026451469 0.95199777382 0.98373103294 1.0154642921 1.0471975512 1.0789308103 1.1106640695 
1.1423973286 1.1741305877 1.2058638468 1.237597106 1.2693303651 1.3010636242 1.3327968833 1.3645301425 1.3962634016 
1.4279966607 1.4597299198 1.491463179 1.5231964381 1.5549296972 1.5866629564 1.6183962155 1.6501294746 1.6818627337 
1.7135959929 1.745329252 1.7770625111 1.8087957702 1.8405290294 1.8722622885 1.9039955476 1.9357288068 1.9674620659 
1.999195325 2.0309285841 2.0626618433 2.0943951024 2.1261283615 2.1578616206 2.1895948798 2.2213281389 2.253061398 
2.2847946572 2.3165279163 2.3482611754 2.3799944345 2.4117276937 2.4434609528 2.4751942119 2.506927471 2.5386607302 
2.5703939893 2.6021272484 2.6338605076 2.6655937667 2.6973270258 2.7290602849 2.7607935441 2.7925268032 2.8242600623 
2.8559933214 2.8877265806 2.9194598397 2.9511930988 2.982926358 3.0146596171 3.0463928762 3.0781261353 3.1098593945 
3.1415926536 
_radius 1 100 double
8.9715900041e-16 0.014146690331 0.028188719059 0.042021980931 0.0555441211 0.068653832616 0.081249371309 0.093227381043 0.104483452 
0.11491560289 0.12443110889 0.13295602519 0.14044573163 0.14689417613 0.1523394217 0.15686363639 0.16058669584 0.16365389048 
0.16621956793 0.16842957655 0.17040578643 0.17223554239 0.17396769218 0.17561519166 0.17716277317 0.17857727175 0.17981812474 
0.18084611427 0.1816292359 0.18214536709 0.18238217362 0.18233548726 0.18200783717 0.1814082207 0.18055277666 0.17946517991 
0.17817604248 0.17672159093 0.17514243178 0.17348312927 0.17179287862 0.17012708074 0.16854932918 0.16713325656 0.16596369769 
0.16513651631 0.16475627467 0.16493102679 0.16576409636 0.16734356366 0.16973088848 0.17295033152 0.17698062942 0.18174996495 
0.18713490161 0.19296376057 0.19902485527 0.20507977584 0.21088122816 0.21619382716 0.22081518541 0.22459414813 0.22744332207 
0.22934398747 0.23034276297 0.23054071078 0.2300767041 0.2291076795 0.22778875876 0.2262560626 0.22461431561 0.22293015191 
0.22123069045 0.21950594189 0.21771334725 0.21578326438 0.21362508574 0.21113427055 0.20820052949 0.20471682995 0.20058824795 
0.19573939224 0.19011929035 0.18370312387 0.17649081624 0.16850303371 0.15977555592 0.15035315944 0.14028412431 0.12961623412 
0.11839473856 0.10666226592 0.094460233061 0.081831028349 0.06882021578 0.055478196463 0.041861050846 0.02803053852 0.014053380671 
6.3695288472e-16 
_area 1 100 double
0 0.00051042862053 0.0020375802868 0.0045677759231 0.0080732654697 0.01250335975 0.017771778721 0.023743594563 0.030227155764 
0.036976133033 0.04370430011 0.050111922259 0.055919079031 0.060899076719 0.064904969702 0.067884077471 0.069878513781 0.071012924587 
0.071472640026 0.071475605109 0.071240364367 0.070952504183 0.07073582059 0.070639128349 0.070646243367 0.070704458075 0.070758330401 
0.070777064393 0.070768899261 0.07077874349 0.070865240586 0.071059396336 0.07132680667 0.071564690909 0.071636222474 0.071416024154 
0.070826756046 0.069862593396 0.068600788568 0.067200764297 0.065885286899 0.064892639723 0.064398964653 0.064456503792 0.065009648078 
0.065970149371 0.067285084446 0.068968915465 0.071102728731 0.07381133768 0.077237371089 0.08151053757 0.086691486293 0.092744540031 
0.099569593812 0.10701722619 0.11487203678 0.12284110017 0.13056422568 0.13765020736 0.1437303021 0.14851259045 0.15182328136 
0.15362718304 0.1540246152 0.15322574425 0.15150666342 0.14915576161 0.14642408599 0.14349477067 0.14047804605 0.13742492317 
0.1343475839 0.13123867333 0.12808471378 0.12486834873 0.12155705553 0.11808584836 0.11435074451 0.11022403688 0.10558400307 
0.10034330595 0.094467076707 0.087979206281 0.080958362706 0.073526507195 0.065833413019 0.058040547385 0.050306796551 0.042777639847 
0.035578978236 0.028816405547 0.022579415441 0.016948172942 0.011999556041 0.007809952728 0.004453992521 0.0019999112565 0.00050314151948 
4.9087140358e-17 
