# vtk DataFile Version 5.1
vtk output
ASCII
DATASET POLYDATA
POINTS 100 float
0.129843 0.0388621 0.637416 0.129629 0.0389625 0.637103 0.12904 0.0391273 0.636009 
0.1281 0.0393616 0.634158 0.126848 0.0396735 0.631592 0.125331 0.0400716 0.628358 
0.123609 0.0405641 0.624509 0.121742 0.0411556 0.620091 0.119789 0.0418457 0.615146 
0.117803 0.0426267 0.609699 0.115829 0.043482 0.603764 0.113891 0.0443855 0.597342 
0.111998 0.045301 0.590424 0.110135 0.0461838 0.582995 0.108267 0.0469819 0.575044 
0.106338 0.0476393 0.566564 0.104272 0.0480994 0.557558 0.101984 0.048309 0.548047 
0.0993813 0.0482233 0.53806 0.0963745 0.0478095 0.527644 0.0928827 0.0470513 0.51685 
0.0888421 0.0459511 0.505732 0.0842118 0.0445324 0.494339 0.0789777 0.0428392 0.482711 
0.0731539 0.0409351 0.470873 0.0667822 0.0388996 0.45883 0.0599274 0.0368241 0.446574 
0.0526723 0.0348057 0.434077 0.0451091 0.0329411 0.421306 0.0373314 0.0313201 0.408222 
0.0294262 0.0300191 0.394789 0.0214662 0.0290968 0.380982 0.0135052 0.0285898 0.366789 
0.00557558 0.0285113 0.352216 -0.00231086 0.028851 0.337283 -0.0101593 0.0295776 0.322022 
-0.0179855 0.0306421 0.306469 -0.0258078 0.0319841 0.290657 -0.033638 0.0335368 0.274606 
-0.041473 0.0352345 0.258318 -0.0492871 0.0370175 0.241767 -0.0570273 0.0388382 0.224905 
-0.0646121 0.0406636 0.207654 -0.0719324 0.0424777 0.189922 -0.0788579 0.0442809 0.171605 
-0.0852444 0.046088 0.152605 -0.0909447 0.0479247 0.132838 -0.0958202 0.0498226 0.11225 
-0.0997515 0.0518138 0.0908268 -0.102649 0.0539251 0.0685993 -0.104458 0.0561739 0.0456442 
-0.105166 0.0585634 0.0220816 -0.104799 0.0610809 -0.00193497 -0.103418 0.0636967 -0.0262308 
-0.101116 0.066365 -0.0506254 -0.0980029 0.0690269 -0.0749483 -0.094196 0.0716133 -0.0990532 
-0.0898109 0.0740501 -0.122829 -0.0849493 0.0762624 -0.146207 -0.0796923 0.0781797 -0.16916 
-0.0740948 0.0797397 -0.191698 -0.0681849 0.0808913 -0.213858 -0.0619657 0.081597 -0.235692 
-0.055421 0.0818329 -0.257253 -0.0485222 0.0815888 -0.278575 -0.0412381 0.0808668 -0.299667 
-0.0335434 0.0796791 -0.320502 -0.0254276 0.0780454 -0.341017 -0.016901 0.0759909 -0.361112 
-0.00799858 0.0735438 -0.380665 0.00121866 0.0707343 -0.399541 0.010666 0.0675929 -0.417606 
0.0202396 0.0641508 -0.434749 0.0298229 0.0604399 -0.450888 0.0392946 0.056494 -0.465988 
0.0485367 0.0523494 -0.480056 0.0574416 0.0480459 -0.493149 0.0659187 0.043628 -0.505357 
0.0738982 0.0391446 -0.516797 0.0813333 0.034649 -0.52759 0.0881998 0.030198 -0.53785 
0.0944944 0.0258498 -0.547662 0.100231 0.0216627 -0.557073 0.105435 0.0176918 -0.566083 
0.110141 0.0139872 -0.574645 0.114387 0.010591 -0.58267 0.11821 0.00753579 -0.590043 
0.121644 0.00484241 -0.596637 0.124719 0.00251955 -0.602332 0.127459 0.000563397 -0.60704 
0.129884 -0.00104176 -0.610713 0.132009 -0.00232214 -0.613362 0.133846 -0.00331252 -0.615058 
0.135408 -0.00405378 -0.61593 0.136704 -0.00459004 -0.616151 0.137745 -0.00496574 -0.615927 
0.138539 -0.00522264 -0.615467 0.139096 -0.00539706 -0.61497 0.139422 -0.0055175 -0.614594 
0.139523 -0.00560267 -0.614442 
LINES 2 100
OFFSETS vtktypeint64
0 100 
CONNECTIVITY vtktypeint64
0 1 2 3 4 5 6 7 8 
9 10 11 12 13 14 15 16 17 
18 19 20 21 22 23 24 25 26 
27 28 29 30 31 32 33 34 35 
36 37 38 39 40 41 42 43 44 
45 46 47 48 49 50 51 52 53 
54 55 56 57 58 59 60 61 62 
63 64 65 66 67 68 69 70 71 
72 73 74 75 76 77 78 79 80 
81 82 83 84 85 86 87 88 89 
90 91 92 93 94 95 96 97 98 
99 
POINT_DATA 100
FIELD FieldData 3
_theta 1 100 double
0 0.031733259127 0.063466518254 0.095199777382 0.12693303651 0.15866629564 0.19039955476 0.22213281389 0.25386607302 
0.28559933214 0.31733259127 0.3490658504 0.38079910953 0.41253236865 0.44426562778 0.47599888691 0.50773214603 0.53946540516 
0.57119866429 0.60293192342 0.63466518254 0.66639844167 0.6981317008 0.72986495992 0.76159821905 0.79333147818 0.82506473731 
0.85679799643 0.88853125556 0.92026451469 0.95199777382 0.98373103294 1.0154642921 1.0471975512 1.0789308103 1.1106640695 
1.1423973286 1.1741305877 1.2058638468 1.237597106 1.2693303651 1.3010636242 1.3327968833 1.3645301425 1.3962634016 
1.4279966607 1.4597299198 1.491463179 1.5231964381 1.5549296972 1.5866629564 1.6183962155 1.6501294746 1.6818627337 
1.7135959929 1.745329252 1.7770625111 1.8087957702 1.8405290294 1.8722622885 1.9039955476 1.9357288068 1.9674620659 
1.999195325 2.0309285841 2.0626618433 2.0943951024 2.1261283615 2.1578616206 2.1895948798 2.2213281389 2.253061398 
2.2847946572 2.3165279163 2.3482611754 2.3799944345 2.4117276937 2.4434609528 2.4751942119 2.506927471 2.5386607302 
2.5703939893 2.6021272484 2.6338605076 2.6655937667 2.6973270258 2.7290602849 2.7607935441 2.7925268032 2.8242600623 
2.8559933214 2.8877265806 2.9194598397 2.9511930988 2.982926358 3.0146596171 3.0463928762 3.0781261353 3.1098593945 
3.1415926536 
_radius 1 100 double
5.7559369236e-16 0.014259951046 0.028409371017 0.042341677482 0.055965058819 0.069207792919 0.082021103499 0.094379204805 0.10627654094 
0.1177225956 0.12873498719 0.13933182095 0.1495244018 0.15931140991 0.16867551687 0.17758317166 0.18598787912 0.19383670649 
0.20107905545 0.20767611339 0.21360907262 0.21888431437 0.22353428692 0.22761365087 0.23119125775 0.23433945706 0.23712281589 
0.23958835611 0.24175886259 0.24362996445 0.24517092373 0.2463286204 0.24703409439 0.24721102563 0.24678551965 0.2456964406 
0.2439053338 0.24140481711 0.23822430237 0.23443209315 0.23013329098 0.22546348344 0.2205788126 0.21564363269 0.21081744606 
0.20624303185 0.20203754586 0.19828781281 0.19505009714 0.19235354029 0.19020554245 0.18859698358 0.18750549527 0.18689597759 
0.18671893732 0.18690851357 0.18738266464 0.18804746906 0.18880587513 0.18956923197 0.19026864525 0.19086323613 0.1913434433 
0.19172888929 0.19206156801 0.19239604074 0.19278884827 0.19328932249 0.19393335989 0.19474065174 0.19571468279 0.19684391934 
0.19810234575 0.19944804598 0.20081974934 0.20213267142 0.2032758091 0.2041125647 0.20448540962 0.20422404818 0.20315583827 
0.20111713513 0.19796446103 0.19358466176 0.18790334201 0.18089088342 0.17256534525 0.16299165095 0.15227675625 0.14056098045 
0.12800628432 0.1147828533 0.10105572931 0.086973292276 0.072659065004 0.058207658453 0.043684852193 0.029131054111 0.014566932642 
3.6690617388e-16 
_area 1 100 double
0 0.00055618350553 0.0022062858063 0.0048958170269 0.0085372012412 0.013015732189 0.018199171946 0.0239504996 0.030141820258 
0.03666645214 0.043446305239 0.050432772557 0.057600881038 0.064937819215 0.07242804057 0.080038082505 0.087704960124 0.095332013428 
0.10279488626 0.10995786331 0.11669773683 0.1229296622 0.12862778063 0.13383312921 0.13864314096 0.14318193633 0.14755881247 
0.15183019729 0.15598037828 0.15992566512 0.1635339726 0.16664764501 0.16910188347 0.17073780033 0.17141303804 0.17101312946 
0.16946472847 0.16674939463 0.16291510484 0.15808245132 0.15244313952 0.14624927125 0.13979268879 0.13337491729 0.12727134753 
0.1216978471 0.11678877355 0.11258969202 0.10906404831 0.1061135471 0.10360875156 0.10142163896 0.099453114864 0.097651040421 
0.096011192505 0.094555289931 0.093296278679 0.09221152963 0.091244882834 0.090384578388 0.089492993144 0.088514604807 0.087426618155 
0.086249336997 0.085040216636 0.083879077791 0.082853004296 0.082038882394 0.081490144946 0.081237873677 0.081304116827 0.081714342077 
0.08249970011 0.0836873818 0.08528077378 0.087235245843 0.089440304806 0.091716129862 0.093823297371 0.095481200023 0.096394092428 
0.09628354683 0.094921545766 0.092157505867 0.087936111466 0.082305734436 0.075417740765 0.06751663309 0.058921026365 0.049996323743 
0.041121506363 0.032654115625 0.024898571514 0.018082913954 0.012347783519 0.0077492911713 0.0042748787239 0.001868822476 0.00046206631771 
2.9734257313e-17 
