# vtk DataFile Version 5.1
vtk output
ASCII
DATASET POLYDATA
POINTS 100 float
0.0951118 0.0398613 0.63191 0.0952993 0.0399428 0.631652 0.0959044 0.0400576 0.630751 
0.0968499 0.0401963 0.629236 0.0980167 0.0403447 0.627144 0.0992565 0.0404867 0.624523 
0.100407 0.0406076 0.621414 0.101309 0.0406971 0.617848 0.10182 0.0407521 0.61384 
0.10183 0.0407781 0.609379 0.101267 0.0407895 0.60443 0.100104 0.0408076 0.59894 
0.0983516 0.0408582 0.59284 0.0960588 0.0409674 0.586057 0.0932973 0.041157 0.578521 
0.0901519 0.04144 0.570185 0.0867074 0.0418168 0.561025 0.0830369 0.0422731 0.551052 
0.0791934 0.0427792 0.540316 0.0752049 0.0432914 0.528902 0.0710735 0.0437557 0.516925 
0.0667787 0.0441134 0.504519 0.0622844 0.0443072 0.491828 0.0575473 0.0442884 0.478988 
0.052527 0.0440236 0.466118 0.0471952 0.0435 0.453302 0.041542 0.0427289 0.440587 
0.0355804 0.041747 0.42798 0.0293467 0.0406151 0.415441 0.0228968 0.0394135 0.402898 
0.0163006 0.0382362 0.39025 0.00963347 0.0371831 0.377381 0.0029673 0.036351 0.364174 
-0.00363757 0.0358259 0.350521 -0.0101388 0.0356751 0.336333 -0.0165151 0.0359419 0.321549 
-0.0227665 0.0366428 0.306139 -0.0289099 0.0377664 0.290102 -0.0349726 0.0392764 0.273461 
-0.040983 0.0411155 0.256261 -0.0469607 0.0432123 0.238554 -0.052907 0.0454879 0.220395 
-0.0587973 0.0478642 0.201835 -0.0645771 0.0502699 0.182911 -0.070161 0.0526469 0.163651 
-0.0754367 0.0549527 0.144065 -0.0802719 0.0571629 0.124156 -0.0845244 0.0592698 0.103923 
-0.0880548 0.0612797 0.0833641 -0.0907381 0.0632089 0.062487 -0.0924751 0.0650783 0.0413108 
-0.0932007 0.0669084 0.0198706 -0.0928891 0.0687141 -0.00178273 -0.0915544 0.0705008 -0.0235844 
-0.0892475 0.0722619 -0.0454602 -0.0860495 0.073978 -0.0673329 -0.0820615 0.0756168 -0.0891285 
-0.0773941 0.0771359 -0.110783 -0.0721564 0.0784849 -0.132247 -0.0664467 0.0796099 -0.153489 
-0.0603448 0.0804565 -0.174495 -0.053909 0.0809735 -0.195262 -0.0471757 0.081116 -0.215802 
-0.0401627 0.0808468 -0.236122 -0.0328752 0.0801383 -0.25623 -0.0253141 0.0789718 -0.276117 
-0.0174843 0.0773377 -0.295758 -0.0094026 0.0752342 -0.315107 -0.00110388 0.0726662 -0.334099 
0.00735517 0.0696442 -0.352651 0.0158957 0.0661833 -0.370672 0.0244192 0.0623033 -0.388068 
0.0328129 0.058028 -0.404756 0.0409575 0.0533862 -0.420668 0.0487351 0.0484115 -0.43576 
0.0560383 0.0431437 -0.450018 0.0627773 0.0376282 -0.463459 0.0688861 0.0319169 -0.476125 
0.0743252 0.0260668 -0.488082 0.0790828 0.0201395 -0.499407 0.0831725 0.0141991 -0.51018 
0.0866295 0.0083107 -0.520473 0.0895053 0.00253739 -0.53034 0.0918612 -0.00306151 -0.539811 
0.0937628 -0.00843272 -0.54889 0.0952744 -0.0135306 -0.557552 0.0964557 -0.0183185 -0.565749 
0.0973591 -0.0227686 -0.573419 0.0980291 -0.0268625 -0.580492 0.0985034 -0.0305896 -0.586901 
0.0988137 -0.0339465 -0.592595 0.0989884 -0.0369349 -0.597541 0.099054 -0.0395601 -0.601734 
0.0990366 -0.0418297 -0.605192 0.0989625 -0.0437515 -0.607958 0.0988578 -0.0453333 -0.610092 
0.0987474 -0.0465812 -0.611662 0.0986531 -0.0474997 -0.612734 0.0985921 -0.0480914 -0.613364 
0.0985749 -0.0483568 -0.613587 
LINES 2 100
OFFSETS vtktypeint64
0 100 
CONNECTIVITY vtktypeint64
0 1 2 3 4 5 6 7 8 
9 10 11 12 13 14 15 16 17 
18 19 20 21 22 23 24 25 26 
27 28 29 30 31 32 33 34 35 
36 37 38 39 40 41 42 43 44 
45 46 47 48 49 50 51 52 53 
54 55 56 57 58 59 60 61 62 
63 64 65 66 67 68 69 70 71 
72 73 74 75 76 77 78 79 80 
81 82 83 84 85 86 87 88 89 
90 91 92 93 94 95 96 97 98 
99 
POINT_DATA 100
FIELD FieldData 3
_theta 1 100 double
0 0.031733259127 0.063466518254 0.095199777382 0.12693303651 0.15866629564 0.19039955476 0.22213281389 0.25386607302 
0.28559933214 0.31733259127 0.3490658504 0.38079910953 0.41253236865 0.44426562778 0.47599888691 0.50773214603 0.53946540516 
0.57119866429 0.60293192342 0.63466518254 0.66639844167 0.6981317008 0.72986495992 0.76159821905 0.79333147818 0.82506473731 
0.85679799643 0.88853125556 0.92026451469 0.95199777382 0.98373103294 1.0154642921 1.0471975512 1.0789308103 1.1106640695 
1.1423973286 1.1741305877 1.2058638468 1.237597106 1.2693303651 1.3010636242 1.3327968833 1.3645301425 1.3962634016 
1.4279966607 1.4597299198 1.491463179 1.5231964381 1.5549296972 1.5866629564 1.6183962155 1.6501294746 1.6818627337 
1.7135959929 1.745329252 1.7770625111 1.8087957702 1.8405290294 1.8722622885 1.9039955476 1.9357288068 1.9674620659 
1.999195325 2.0309285841 2.0626618433 2.0943951024 2.1261283615 2.1578616206 2.1895948798 2.2213281389 2.253061398 
2.2847946572 2.3165279163 2.3482611754 2.3799944345 2.4117276937 2.4434609528 2.4751942119 2.506927471 2.5386607302 
2.5703939893 2.6021272484 2.6338605076 2.6655937667 2.6973270258 2.7290602849 2.7607935441 2.7925268032 2.8242600623 
2.8559933214 2.8877265806 2.9194598397 2.9511930988 2.982926358 3.0146596171 3.0463928762 3.0781261353 3.1098593945 
3.1415926536 
_radius 1 100 double
1.3357505938e-15 0.013262792631 0.026473909396 0.039579836553 0.052530641922 0.065279697889 0.077781823786 0.089990650882 0.10185625847 
0.11332392676 0.12433441587 0.13482579274 0.14473663054 0.15401032433 0.16260012891 0.17047425634 0.17762009893 0.18404659245 
0.1897840336 0.19488125026 0.19940067495 0.20341234535 0.20698797868 0.21019601992 0.21309808059 0.21574668719 0.21818392804 
0.22044048188 0.22253460374 0.2244708907 0.22623900811 0.22781291485 0.22915130168 0.23019981324 0.23089520421 0.23117110463 
0.23096477889 0.23022424042 0.22891521118 0.22702749088 0.22458021123 0.22162524919 0.21824792362 0.21456415525 0.2107135947 
0.20684880265 0.20312135225 0.19966663702 0.19659001421 0.19395730086 0.1917920733 0.19008050156 0.18878208381 0.18784270961 
0.18720589359 0.18681899969 0.18663345816 0.18660068713 0.18666758712 0.18677572976 0.18686616259 0.18688839442 0.18680989813 
0.18662252173 0.1863438231 0.18601318249 0.18568382338 0.18541250323 0.18524878621 0.18522558965 0.18535217596 0.18561010002 
0.18595206943 0.18630340143 0.18656572106 0.18662256918 0.18634656387 0.18560767419 0.18428204403 0.18226066838 0.17945711146 
0.17581341779 0.17130344518 0.165933056 0.159736928 0.15277216257 0.14510934085 0.13682215321 0.12797712722 0.118625197 
0.10879677969 0.098501570898 0.087733442147 0.076479749969 0.064733309816 0.052504563768 0.039831313803 0.026783854675 0.013464288903 
3.2693783879e-16 
_area 1 100 double
0 0.00047651402936 0.0018947749661 0.0042216274577 0.0074040049351 0.011371979366 0.016042832179 0.02132618248 0.027129869374 
0.033365369807 0.039950619816 0.046808307124 0.053859718391 0.061017258516 0.06818057362 0.0752400124 0.082087552175 0.088631712566 
0.094811291121 0.10060325137 0.10602206513 0.11111054221 0.11592515028 0.12052101189 0.12494142858 0.12921350523 0.13334782837 
0.13733912959 0.14116635702 0.14479250551 0.14816550248 0.15122120708 0.15388839372 0.15609397475 0.15776575442 0.15883095223 
0.15921185149 0.15882357021 0.1575801174 0.15541174631 0.15229075808 0.14825811689 0.14344180182 0.13805938698 0.13240083971 
0.1267923676 0.12154623811 0.11690049518 0.11295558357 0.10964367948 0.10677097747 0.10411798141 0.10153434273 0.098990198313 
0.096576331735 0.094451395185 0.09273359021 0.091408314151 0.090333704316 0.089315156589 0.088175225684 0.086794620355 0.085129338836 
0.083208371477 0.081119974943 0.078996540532 0.077000353897 0.075302634491 0.07404799619 0.07331044769 0.07307431822 0.073268629476 
0.073811709955 0.074621694202 0.075613229013 0.076696192297 0.077760152426 0.078653583814 0.079189596491 0.079175915997 0.078446041047 
0.076882453123 0.074431139143 0.071106194189 0.0669838224 0.062187535058 0.056868571623 0.051186323259 0.045292818446 0.039323754145 
0.033396777291 0.02761609645 0.022081129495 0.016895920424 0.01217582642 0.008048706973 0.0046493509912 0.0021077252097 0.00053341876681 
5.2041704279e-18 
