# vtk DataFile Version 5.1
vtk output
ASCII
DATASET POLYDATA
POINTS 100 float
0.139943 0.0591571 0.706956 0.140011 0.0594681 0.706842 0.140257 0.0601996 0.706357 
0.140635 0.0613034 0.705476 0.141073 0.0627045 0.70416 0.141475 0.0643076 0.702357 
0.141738 0.0660052 0.700005 0.14175 0.0676867 0.697037 0.141407 0.0692463 0.693383 
0.140615 0.0705902 0.68898 0.1393 0.0716421 0.683771 0.137408 0.072346 0.677716 
0.134908 0.0726664 0.670791 0.131791 0.0725867 0.662996 0.128067 0.0721062 0.654353 
0.123757 0.0712351 0.644907 0.118897 0.0699909 0.634723 0.113521 0.068394 0.623885 
0.107668 0.0664652 0.612483 0.101372 0.0642249 0.600614 0.0946636 0.0616935 0.588366 
0.087568 0.0588937 0.57582 0.0801087 0.0558537 0.563035 0.0723084 0.0526104 0.550052 
0.0641922 0.0492124 0.536886 0.0557896 0.045722 0.523529 0.0471365 0.0422152 0.509956 
0.0382756 0.0387798 0.496125 0.0292558 0.0355111 0.48199 0.0201293 0.0325066 0.467501 
0.010949 0.0298584 0.452617 0.00176398 0.0276461 0.437305 -0.00738414 0.0259294 0.421548 
-0.0164648 0.0247427 0.405341 -0.0254607 0.0240917 0.388691 -0.0343675 0.0239525 0.371611 
-0.0431929 0.0242736 0.354112 -0.0519521 0.0249808 0.3362 -0.0606622 0.0259847 0.317863 
-0.0693359 0.0271891 0.299074 -0.0779731 0.0285007 0.279781 -0.0865546 0.0298376 0.259915 
-0.095036 0.0311372 0.23939 -0.103345 0.032361 0.218114 -0.111378 0.0334975 0.196 
-0.119007 0.0345613 0.172976 -0.126081 0.03559 0.149 -0.132439 0.0366384 0.124071 
-0.137914 0.0377709 0.0982347 -0.142354 0.0390539 0.0715874 -0.145626 0.0405471 0.0442768 
-0.147633 0.0422975 0.0164933 -0.148318 0.0443334 -0.0115404 -0.147676 0.046662 -0.039585 
-0.14575 0.0492686 -0.067401 -0.142632 0.0521182 -0.0947672 -0.138457 0.0551585 -0.121496 
-0.133395 0.0583248 -0.147448 -0.127634 0.0615449 -0.172538 -0.121374 0.0647444 -0.19674 
-0.114809 0.0678505 -0.220082 -0.108113 0.0707957 -0.242639 -0.101434 0.0735197 -0.264522 
-0.0948815 0.0759702 -0.285858 -0.0885277 0.0781028 -0.306777 -0.0824025 0.0798799 -0.327398 
-0.0764995 0.0812703 -0.347809 -0.0707821 0.0822473 -0.368067 -0.0651923 0.0827894 -0.388187 
-0.0596612 0.0828795 -0.408149 -0.05412 0.0825064 -0.427896 -0.0485098 0.081666 -0.44735 
-0.04279 0.0803627 -0.466421 -0.036945 0.0786107 -0.485017 -0.0309869 0.0764353 -0.503058 
-0.0249562 0.0738719 -0.520481 -0.0189193 0.0709657 -0.53725 -0.0129635 0.0677689 -0.55335 
-0.00719009 0.0643376 -0.56879 -0.00170655 0.0607279 -0.583596 0.00338182 0.0569923 -0.597799 
0.00797982 0.0531756 -0.611431 0.0120092 0.0493128 -0.624511 0.0154137 0.0454278 -0.637044 
0.0181628 0.0415338 -0.649014 0.0202525 0.0376354 -0.660384 0.0217047 0.0337323 -0.6711 
0.0225652 0.0298237 -0.681095 0.0228992 0.0259139 -0.690301 0.0227871 0.0220167 -0.698654 
0.0223192 0.0181595 -0.706103 0.0215902 0.0143854 -0.712621 0.0206948 0.0107541 -0.718203 
0.0197232 0.00733939 -0.722868 0.018758 0.00422532 -0.726659 0.0178714 0.00150066 -0.729634 
0.0171236 -0.000748173 -0.731859 0.0165619 -0.00244427 -0.733398 0.01622 -0.00352704 -0.734303 
0.0161179 -0.00395764 -0.734609 
LINES 2 100
OFFSETS vtktypeint64
0 100 
CONNECTIVITY vtktypeint64
0 1 2 3 4 5 6 7 8 
9 10 11 12 13 14 15 16 17 
18 19 20 21 22 23 24 25 26 
27 28 29 30 31 32 33 34 35 
36 37 38 39 40 41 42 43 44 
45 46 47 48 49 50 51 52 53 
54 55 56 57 58 59 60 61 62 
63 64 65 66 67 68 69 70 71 
72 73 74 75 76 77 78 79 80 
81 82 83 84 85 86 87 88 89 
90 91 92 93 94 95 96 97 98 
99 
POINT_DATA 100
FIELD FieldData 3
_theta 1 100 double
0 0.031733259127 0.063466518254 0.095199777382 0.12693303651 0.15866629564 0.19039955476 0.22213281389 0.25386607302 
0.28559933214 0.31733259127 0.3490658504 0.38079910953 0.41253236865 0.44426562778 0.47599888691 0.50773214603 0.53946540516 
0.57119866429 0.60293192342 0.63466518254 0.66639844167 0.6981317008 0.72986495992 0.76159821905 0.79333147818 0.82506473731 
0.85679799643 0.88853125556 0.92026451469 0.95199777382 0.98373103294 1.0154642921 1.0471975512 1.0789308103 1.1106640695 
1.1423973286 1.1741305877 1.2058638468 1.237597106 1.2693303651 1.3010636242 1.3327968833 1.3645301425 1.3962634016 
1.4279966607 1.4597299198 1.491463179 1.5231964381 1.5549296972 1.5866629564 1.6183962155 1.6501294746 1.6818627337 
1.7135959929 1.745329252 1.7770625111 1.8087957702 1.8405290294 1.8722622885 1.9039955476 1.9357288068 1.9674620659 
1.999195325 2.0309285841 2.0626618433 2.0943951024 2.1261283615 2.1578616206 2.1895948798 2.2213281389 2.253061398 
2.2847946572 2.3165279163 2.3482611754 2.3799944345 2.4117276937 2.4434609528 2.4751942119 2.506927471 2.5386607302 
2.5703939893 2.6021272484 2.6338605076 2.6655937667 2.6973270258 2.7290602849 2.7607935441 2.7925268032 2.8242600623 
2.8559933214 2.8877265806 2.9194598397 2.9511930988 2.982926358 3.0146596171 3.0463928762 3.0781261353 3.1098593945 
3.1415926536 
_radius 1 100 double
3.755345792e-16 0.015498971135 0.030842918058 0.045883603668 0.060495120638 0.074581375656 0.088079544573 0.1009591763 0.11321742749 
0.12487158044 0.13595027307 0.1464847085 0.15650074797 0.16601254793 0.17501838843 0.18349936458 0.19142138485 0.19874035105 
0.20540968963 0.21138888016 0.21665148109 0.22119137632 0.22502640495 0.22819900437 0.23077385663 0.23283274701 0.23446699722 
0.23576804378 0.23681706167 0.23767491357 0.23837395558 0.23891316913 0.23925765536 0.23934282885 0.23908288497 0.23838248545 
0.23715021772 0.23531224898 0.23282467311 0.22968326591 0.22592964301 0.22165308695 0.21698756235 0.21210373534 0.20719627492 
0.20246742513 0.19810875938 0.19428391917 0.19111555079 0.18867905137 0.18700386915 0.18608048918 0.18586925072 0.1863072133 
0.18731156863 0.18878096618 0.19059742349 0.19263055321 0.19474399995 0.19680292465 0.19868144479 0.20026941064 0.20147819839 
0.20224530454 0.20253754811 0.20235265374 0.2017189449 0.20069289947 0.19935443242 0.19779995256 0.19613350316 0.19445664259 
0.19285805271 0.19140399847 0.19013058478 0.18903834653 0.18808930062 0.18720639929 0.18627539136 0.1851492998 0.18365586502 
0.18160819952 0.17881843809 0.17511340639 0.17035053242 0.16443174092 0.15731312031 0.14900872121 0.13958775868 0.12916553954 
0.11788944548 0.10592212854 0.093424578682 0.08054177314 0.067393113886 0.054068799437 0.040631837588 0.027123998444 0.013573196065 
2.7517146564e-16 
_area 1 100 double
0 0.00063912178576 0.0025323023466 0.0056093958642 0.009761177353 0.014849733158 0.020721000151 0.027218015489 0.034193538858 
0.041520521745 0.049098076751 0.05684985422 0.064712997403 0.072620258825 0.080483043316 0.088184548885 0.095588209031 0.10255992317 
0.10899636753 0.11484811356 0.12012710545 0.12489434356 0.12923335421 0.13322211207 0.13691511528 0.14033970352 0.14350290472 
0.14640158972 0.14902956417 0.15137835789 0.15343186915 0.15515757298 0.15649842616 0.15736981249 0.15766467539 0.15726754374 
0.15607498855 0.15401670481 0.15106988171 0.14726297402 0.14267236079 0.13741964768 0.13167373961 0.12565545054 0.11964154681 
0.11396401016 0.10893181119 0.10466894295 0.1011661312 0.098346194791 0.096095379499 0.09434496758 0.093262714925 0.092562000839 
0.09198439924 0.091493495266 0.091141433023 0.091024000158 0.091177212504 0.091510323392 0.092014890623 0.092447392927 0.09279183252 
0.092817546845 0.092490228815 0.091775670044 0.090683294265 0.089286047359 0.087695334067 0.086044602127 0.084476205109 0.083135351737 
0.082186984648 0.081731581896 0.081589418947 0.081632763824 0.081833821456 0.082173698594 0.08267009247 0.083144265851 0.083359344037 
0.083055180046 0.081972714219 0.079892583526 0.076672199944 0.07227204513 0.066764564777 0.060324775689 0.05320620379 0.045708411186 
0.038142961026 0.030803494148 0.023943483423 0.017763206496 0.012406068528 0.0079633458001 0.0044851740388 0.001994291791 0.00049862185388 
3.4965520063e-18 
