# vtk DataFile Version 5.1
vtk output
ASCII
DATASET POLYDATA
POINTS 100 float
0.0865655 3.31487e-05 -0.616261 0.0865611 0.000212881 -0.616252 0.0865221 0.000595176 -0.61622 
0.0864302 0.00116634 -0.616084 0.0862579 0.00190512 -0.615724 0.0859708 0.00278606 -0.614987 
0.0855322 0.00378363 -0.613708 0.0849059 0.0048765 -0.611728 0.0840599 0.00605147 -0.608909 
0.0829678 0.00730638 -0.605149 0.0816092 0.00865163 -0.600389 0.0799685 0.01011 -0.594619 
0.0780331 0.011715 -0.587872 0.0757904 0.013507 -0.580219 0.0732251 0.0155294 -0.571755 
0.0703173 0.0178227 -0.562584 0.0670421 0.0204195 -0.552807 0.0633706 0.0233398 -0.542506 
0.0592727 0.0265871 -0.531736 0.0547216 0.0301458 -0.520519 0.0496995 0.0339813 -0.508842 
0.0442026 0.0380402 -0.496666 0.0382466 0.0422536 -0.483928 0.0318695 0.0465404 -0.470557 
0.0251325 0.0508125 -0.456486 0.0181179 0.0549795 -0.44166 0.0109241 0.0589535 -0.426047 
0.00365817 0.0626541 -0.409644 -0.00357361 0.0660111 -0.392477 -0.0106752 0.0689676 -0.3746 
-0.0175699 0.0714812 -0.356084 -0.0242074 0.0735249 -0.337011 -0.0305672 0.0750864 -0.317464 
-0.0366587 0.0761673 -0.297515 -0.0425166 0.076782 -0.277218 -0.0481923 0.0769561 -0.256602 
-0.053743 0.0767251 -0.235677 -0.0592189 0.0761322 -0.214426 -0.0646495 0.0752276 -0.192825 
-0.0700335 0.074066 -0.170842 -0.0753308 0.0727049 -0.148452 -0.0804596 0.0712024 -0.125647 
-0.0852991 0.0696147 -0.102447 -0.0896972 0.0679936 -0.0789005 -0.0934834 0.0663831 -0.055089 
-0.0964846 0.0648177 -0.0311238 -0.0985426 0.0633195 -0.00713871 -0.099531 0.0618974 0.01672 
-0.0993692 0.0605464 0.0403054 -0.0980319 0.059249 0.0634819 -0.095553 0.0579772 0.0861367 
-0.0920229 0.0566964 0.108187 -0.0875793 0.0553695 0.129587 -0.0823933 0.0539627 0.150323 
-0.0766516 0.0524502 0.170415 -0.070538 0.0508194 0.189907 -0.0642149 0.0490744 0.208856 
-0.0578087 0.0472379 0.22732 -0.0514001 0.0453515 0.245352 -0.0450205 0.0434739 0.262986 
-0.0386549 0.0416766 0.280237 -0.0322506 0.0400385 0.297095 -0.0257315 0.0386391 0.313528 
-0.019014 0.0375512 0.329491 -0.0120243 0.0368343 0.344933 -0.00471432 0.0365284 0.359807 
0.00292746 0.03665 0.374083 0.0108691 0.0371903 0.387753 0.0190351 0.0381156 0.400839 
0.0273126 0.0393699 0.413395 0.0355622 0.04088 0.425506 0.0436329 0.0425615 0.43728 
0.051378 0.0443261 0.448836 0.0586715 0.0460884 0.4603 0.0654203 0.0477726 0.471783 
0.0715728 0.0493167 0.483373 0.0771215 0.0506762 0.495124 0.0820994 0.0518245 0.507049 
0.0865719 0.0527523 0.519116 0.0906237 0.0534644 0.53125 0.0943437 0.053976 0.543337 
0.0978105 0.0543084 0.555234 0.101079 0.0544839 0.566782 0.104173 0.0545227 0.577816 
0.10708 0.05444 0.588179 0.109754 0.0542452 0.597735 0.112125 0.0539422 0.606376 
0.11411 0.0535312 0.614031 0.115629 0.0530116 0.620666 0.116619 0.0523851 0.626287 
0.117051 0.0516589 0.630935 0.116934 0.0508481 0.634679 0.116328 0.0499769 0.637612 
0.115334 0.0490787 0.639839 0.11409 0.0481941 0.641472 0.11276 0.0473684 0.642619 
0.111512 0.0466474 0.643379 0.110502 0.0460733 0.643836 0.109855 0.0456802 0.644052 
0.109655 0.0454908 0.644068 
LINES 2 100
OFFSETS vtktypeint64
0 100 
CONNECTIVITY vtktypeint64
0 1 2 3 4 5 6 7 8 
9 10 11 12 13 14 15 16 17 
18 19 20 21 22 23 24 25 26 
27 28 29 30 31 32 33 34 35 
36 37 38 39 40 41 42 43 44 
45 46 47 48 49 50 51 52 53 
54 55 56 57 58 59 60 61 62 
63 64 65 66 67 68 69 70 71 
72 73 74 75 76 77 78 79 80 
81 82 83 84 85 86 87 88 89 
90 91 92 93 94 95 96 97 98 
99 
POINT_DATA 100
FIELD FieldData 3
_theta 1 100 double
0 0.031733259127 0.063466518254 0.095199777382 0.12693303651 0.15866629564 0.19039955476 0.22213281389 0.25386607302 
0.28559933214 0.31733259127 0.3490658504 0.38079910953 0.41253236865 0.44426562778 0.47599888691 0.50773214603 0.53946540516 
0.57119866429 0.60293192342 0.63466518254 0.66639844167 0.6981317008 0.72986495992 0.76159821905 0.79333147818 0.82506473731 
0.85679799643 0.88853125556 0.92026451469 0.95199777382 0.98373103294 1.0154642921 1.0471975512 1.0789308103 1.1106640695 
1.1423973286 1.1741305877 1.2058638468 1.237597106 1.2693303651 1.3010636242 1.3327968833 1.3645301425 1.3962634016 
1.4279966607 1.4597299198 1.491463179 1.5231964381 1.5549296972 1.5866629564 1.6183962155 1.6501294746 1.6818627337 
1.7135959929 1.745329252 1.7770625111 1.8087957702 1.8405290294 1.8722622885 1.9039955476 1.9357288068 1.9674620659 
1.999195325 2.0309285841 2.0626618433 2.0943951024 2.1261283615 2.1578616206 2.1895948798 2.2213281389 2.253061398 
2.2847946572 2.3165279163 2.3482611754 2.3799944345 2.4117276937 2.4434609528 2.4751942119 2.506927471 2.5386607302 
2.5703939893 2.6021272484 2.6338605076 2.6655937667 2.6973270258 2.7290602849 2.7607935441 2.7925268032 2.8242600623 
2.8559933214 2.8877265806 2.9194598397 2.9511930988 2.982926358 3.0146596171 3.0463928762 3.0781261353 3.1098593945 
3.1415926536 
_radius 1 100 double
1.0026641674e-15 0.013914833468 0.027811549053 0.041670689236 0.055465856264 0.069159212039 0.082696733353 0.09600441794 0.10898681962 
0.12152896913 0.13350202678 0.14477214767 0.15521128487 0.1647082191 0.17317807569 0.18056894299 0.18686482592 0.19208489791 
0.19627968781 0.19952529984 0.2019169008 0.20356248297 0.20457740704 0.20507965207 0.20518530667 0.20500381259 0.20463281961 
0.20415304119 0.20362393648 0.20308118478 0.20253672592 0.20198171083 0.20139216047 0.20073658043 0.19998437513 0.19911380059 
0.19811839913 0.19701118847 0.19582612359 0.19461651119 0.19345041282 0.1924039133 0.19155423087 0.19097508154 0.19073569491 
0.19090285534 0.19154364916 0.19272611102 0.19451567099 0.19696685171 0.2001115986 0.20394724237 0.20842758496 0.21345962398 
0.21890653038 0.22459579492 0.23033076322 0.23590400396 0.24111144266 0.24576641156 0.24971262834 0.25283486337 0.25506597646 
0.2563892599 0.25683559444 0.2564756718 0.25540828692 0.25374630659 0.25160227768 0.24907569807 0.24624371599 0.24315643628 
0.23983711514 0.23628646509 0.23248940015 0.22842220654 0.2240584638 0.21937283116 0.2143426332 0.20894772429 0.2031693237 
0.19698849328 0.19038480101 0.1833355469 0.17581575446 0.16779896381 0.15925871678 0.15017051248 0.14051395504 0.13027482597 
0.1194468905 0.1080333675 0.096048119799 0.083516710712 0.07047747401 0.056982613704 0.043099090555 0.028908760392 0.014507093455 
1.1977347582e-15 
_area 1 100 double
0 0.00046238489254 0.0018643733898 0.0042456019487 0.0076570078363 0.012141386448 0.01771124035 0.024327264591 0.031881213316 
0.040187279381 0.048985482457 0.057958408415 0.066759569196 0.075048795358 0.082528331253 0.088973031034 0.094249171802 0.098318624247 
0.10122817194 0.10308736903 0.10404174864 0.10424979094 0.10387007139 0.10305977645 0.10198034633 0.10080315948 0.099707168318 
0.09885912821 0.098372112826 0.098262457105 0.098442494617 0.098755956282 0.099032220009 0.099136650413 0.09900327577 0.09865089325 
0.098199988285 0.097905893044 0.09805483175 0.098607960908 0.099346143283 0.10012273602 0.10088009232 0.10162723104 0.10242151945 
0.10336061666 0.1045890018 0.10630927595 0.10876999688 0.11220176187 0.1167260316 0.1223252697 0.12888951012 0.13625888637 
0.14423018814 0.1525493236 0.16091172243 0.16897830769 0.17640458528 0.18287541341 0.18813678074 0.1920178002 0.19443974823 
0.19541241206 0.19502016282 0.1934013667 0.19072560728 0.18717309166 0.18291833711 0.17811713975 0.17289566887 0.16734385124 
0.16151737625 0.15544974838 0.14916970448 0.14271526981 0.13613701294 0.12948915059 0.12281458917 0.11613349859 0.10944199208 
0.10272065356 0.095946423698 0.08910063754 0.082171182394 0.075151655118 0.068041492026 0.06084950478 0.053600811676 0.046344937832 
0.039161827189 0.032163072785 0.025487298771 0.019290392428 0.013732607827 0.0089652441639 0.005119518871 0.0022993618213 0.00057840281764 
3.0411818102e-17 
