# vtk DataFile Version 5.1
vtk output
ASCII
DATASET POLYDATA
POINTS 100 float
0.0969763 0.0434094 0.671723 0.097119 0.0436029 0.671716 0.0976222 0.0440416 0.671522 
0.0984214 0.0447002 0.671086 0.0994163 0.0455392 0.670322 0.100481 0.0465083 0.669124 
0.10148 0.0475506 0.667369 0.102276 0.0486073 0.664931 0.10275 0.0496218 0.661691 
0.102808 0.0505438 0.657546 0.102387 0.0513323 0.652414 0.101459 0.0519571 0.646244 
0.100028 0.0523995 0.639017 0.0981248 0.0526512 0.630747 0.0957955 0.0527127 0.621478 
0.0930933 0.052591 0.611279 0.0900671 0.0522966 0.600243 0.0867527 0.0518413 0.588472 
0.0831669 0.0512363 0.576079 0.0793053 0.0504905 0.563174 0.0751433 0.0496111 0.549862 
0.0706413 0.0486038 0.536238 0.0657519 0.0474745 0.522382 0.0604291 0.0462319 0.508359 
0.0546373 0.0448895 0.494217 0.0483588 0.0434677 0.47999 0.0415989 0.0419961 0.465695 
0.0343879 0.0405135 0.451337 0.0267799 0.039068 0.436908 0.0188476 0.0377154 0.422388 
0.0106753 0.0365166 0.40775 0.00235099 0.0355342 0.392953 -0.00604263 0.0348281 0.37795 
-0.0144346 0.0344518 0.362682 -0.0227704 0.0344484 0.347085 -0.031013 0.0348468 0.331085 
-0.0391405 0.0356604 0.314606 -0.0471413 0.0368856 0.29757 -0.0550058 0.038502 0.279902 
-0.062718 0.0404747 0.261536 -0.0702467 0.0427565 0.242417 -0.0775394 0.0452914 0.222509 
-0.0845178 0.048019 0.201796 -0.0910785 0.0508777 0.180292 -0.0970968 0.0538087 0.158035 
-0.102435 0.0567589 0.135092 -0.106954 0.0596822 0.111555 -0.110525 0.0625412 0.0875385 
-0.113043 0.0653065 0.0631722 -0.11444 0.0679559 0.0385952 -0.11469 0.0704729 0.0139474 
-0.113815 0.0728445 -0.0106377 -0.111887 0.0750591 -0.0350411 -0.109016 0.0771046 -0.0591637 
-0.105345 0.0789672 -0.0829312 -0.101036 0.08063 -0.106296 -0.0962505 0.0820733 -0.129237 
-0.0911423 0.0832749 -0.151757 -0.0858379 0.0842111 -0.17388 -0.0804298 0.084858 -0.195643 
-0.0749703 0.0851932 -0.21709 -0.0694716 0.0851976 -0.238264 -0.0639098 0.0848564 -0.259203 
-0.0582336 0.0841605 -0.279934 -0.0523758 0.0831069 -0.300463 -0.0462653 0.0816989 -0.320783 
-0.0398404 0.0799459 -0.340863 -0.0330588 0.077862 -0.36066 -0.025905 0.0754658 -0.380114 
-0.0183946 0.0727789 -0.399158 -0.0105737 0.0698243 -0.417721 -0.00251479 0.0666262 -0.435735 
0.00568973 0.0632084 -0.453138 0.0139365 0.0595942 -0.46988 0.0221199 0.0558057 -0.485927 
0.0301409 0.0518642 -0.501257 0.0379126 0.0477902 -0.515867 0.0453647 0.0436036 -0.529765 
0.0524442 0.0393242 -0.542972 0.0591137 0.0349725 -0.555516 0.0653477 0.0305696 -0.567428 
0.0711278 0.0261377 -0.578738 0.076438 0.0217005 -0.589473 0.0812606 0.0172829 -0.599653 
0.0855741 0.0129116 -0.60929 0.0893537 0.00861432 -0.618388 0.0925736 0.00442006 -0.626942 
0.0952116 0.000358744 -0.634939 0.0972551 -0.00353905 -0.642363 0.0987074 -0.00724243 -0.649196 
0.0995926 -0.0107206 -0.655418 0.0999596 -0.0139431 -0.66101 0.0998823 -0.0168806 -0.665959 
0.0994581 -0.0195052 -0.670253 0.0988011 -0.0217909 -0.673887 0.0980349 -0.0237143 -0.676857 
0.0972817 -0.0252554 -0.679164 0.0966517 -0.0263975 -0.68081 0.0962324 -0.0271281 -0.681796 
0.0960802 -0.0274392 -0.682124 
LINES 2 100
OFFSETS vtktypeint64
0 100 
CONNECTIVITY vtktypeint64
0 1 2 3 4 5 6 7 8 
9 10 11 12 13 14 15 16 17 
18 19 20 21 22 23 24 25 26 
27 28 29 30 31 32 33 34 35 
36 37 38 39 40 41 42 43 44 
45 46 47 48 49 50 51 52 53 
54 55 56 57 58 59 60 61 62 
63 64 65 66 67 68 69 70 71 
72 73 74 75 76 77 78 79 80 
81 82 83 84 85 86 87 88 89 
90 91 92 93 94 95 96 97 98 
99 
POINT_DATA 100
FIELD FieldData 3
_theta 1 100 double
0 0.031733259127 0.063466518254 0.095199777382 0.12693303651 0.15866629564 0.19039955476 0.22213281389 0.25386607302 
0.28559933214 0.31733259127 0.3490658504 0.38079910953 0.41253236865 0.44426562778 0.47599888691 0.50773214603 0.53946540516 
0.57119866429 0.60293192342 0.63466518254 0.66639844167 0.6981317008 0.72986495992 0.76159821905 0.79333147818 0.82506473731 
0.85679799643 0.88853125556 0.92026451469 0.95199777382 0.98373103294 1.0154642921 1.0471975512 1.0789308103 1.1106640695 
1.1423973286 1.1741305877 1.2058638468 1.237597106 1.2693303651 1.3010636242 1.3327968833 1.3645301425 1.3962634016 
1.4279966607 1.4597299198 1.491463179 1.5231964381 1.5549296972 1.5866629564 1.6183962155 1.6501294746 1.6818627337 
1.7135959929 1.745329252 1.7770625111 1.8087957702 1.8405290294 1.8722622885 1.9039955476 1.9357288068 1.9674620659 
1.999195325 2.0309285841 2.0626618433 2.0943951024 2.1261283615 2.1578616206 2.1895948798 2.2213281389 2.253061398 
2.2847946572 2.3165279163 2.3482611754 2.3799944345 2.4117276937 2.4434609528 2.4751942119 2.506927471 2.5386607302 
2.5703939893 2.6021272484 2.6338605076 2.6655937667 2.6973270258 2.7290602849 2.7607935441 2.7925268032 2.8242600623 
2.8559933214 2.8877265806 2.9194598397 2.9511930988 2.982926358 3.0146596171 3.0463928762 3.0781261353 3.1098593945 
3.1415926536 
_radius 1 100 double
1.1240151438e-15 0.014786519181 0.029377305145 0.043590748493 0.057276684062 0.070325804729 0.082672800147 0.094293253725 0.1051956146 
0.11541046864 0.12497956655 0.13394657328 0.14235053449 0.15022205076 0.15758151036 0.16443863559 0.17079296354 0.17663542614 
0.18195155815 0.18672676475 0.19095346215 0.19463898619 0.19781235985 0.20052771938 0.20286263026 0.20491062418 0.20676877005 
0.20852251315 0.21023090412 0.21191536541 0.21355428118 0.21508427055 0.21640754182 0.21740370748 0.2179440776 0.21790664033 
0.21719038535 0.21572802656 0.21349636767 0.21052353722 0.20689222514 0.20273804149 0.19824232001 0.19361918666 0.18909753706 
0.18489966684 0.18121948369 0.17820408857 0.17594244112 0.17446330543 0.17374188795 0.17371177117 0.17427758365 0.17532506474 
0.1767278693 0.17835276353 0.18006545107 0.18173821779 0.18325900164 0.18454038587 0.18552667158 0.1861974399 0.18656665581 
0.18667725074 0.18659208965 0.18638304639 0.18612030922 0.18586382394 0.18565798217 0.18552957421 0.18548808725 0.18552698047 
0.18562469844 0.18574474122 0.18583483656 0.18582589624 0.18563177385 0.18515075891 0.1842692867 0.18286772891 0.18082762195 
0.17803943923 0.1744100079 0.16986880513 0.16437254271 0.15790761365 0.15049013754 0.14216353883 0.13299385433 0.12306328721 
0.11246284751 0.10128514644 0.089618440822 0.077542792542 0.06512873566 0.0524382456 0.039527264652 0.026448738361 0.013255161887 
1.5222975057e-15 
_area 1 100 double
0 0.00052893404085 0.0020939448232 0.0046328375018 0.0080516455674 0.012236280857 0.017063879774 0.022410676577 0.028154785842 
0.034174929846 0.040348379012 0.046551462685 0.052664082897 0.058577464674 0.064203098378 0.069480445712 0.074381141448 0.078908133014 
0.083089774493 0.086971260287 0.090607491279 0.094060171414 0.097397608632 0.10069224572 0.10401226622 0.10740897623 0.11090566335 
0.11449205237 0.11812412787 0.12172703188 0.12519929276 0.12841764521 0.13124239405 0.13352386222 0.13511088064 0.13586224965 
0.1356614526 0.13443359324 0.13216187341 0.12889976378 0.12477521078 0.11998485882 0.1147786005 0.10943685396 0.10424423146 
0.099463823433 0.095317156461 0.091965930329 0.089436523601 0.087587556133 0.086238494546 0.085238636665 0.08448865627 0.083938285541 
0.083561148053 0.083319614216 0.083140092129 0.082912187482 0.08250897891 0.081815688102 0.080755333701 0.079305557309 0.077504909927 
0.075449047356 0.073278375666 0.071158999432 0.069260205523 0.067734650597 0.066671804726 0.066137061232 0.066071006816 0.066413688846 
0.067125799588 0.068174419591 0.069514765888 0.071057086464 0.072676498451 0.074224395718 0.075535445214 0.076437047672 0.076760575348 
0.07635301121 0.075088990766 0.072883373519 0.069703115102 0.065575644342 0.060590718226 0.054894276428 0.048675222174 0.042148008943 
0.035534666233 0.029049441408 0.022887978845 0.017221425203 0.012194548845 0.0079263028571 0.0045113608677 0.0020217088913 0.00050791584382 
2.8223031089e-17 
