# vtk DataFile Version 5.1
vtk output
ASCII
DATASET POLYDATA
POINTS 100 float
0.101959 0.059965 0.678297 0.102093 0.0601833 0.678229 0.10252 0.0606635 0.677849 
0.103189 0.0613719 0.677111 0.104025 0.0622562 0.675946 0.104932 0.06325 0.674263 
0.105804 0.0642788 0.671961 0.106535 0.0652661 0.668935 0.107028 0.0661391 0.665087 
0.107203 0.0668348 0.66033 0.106999 0.0673031 0.654599 0.10638 0.0675099 0.647857 
0.105328 0.0674373 0.640097 0.103845 0.0670828 0.631344 0.101942 0.0664568 0.621651 
0.0996363 0.0655791 0.6111 0.0969417 0.0644752 0.599793 0.0938669 0.0631726 0.587843 
0.0904114 0.0616977 0.57537 0.0865652 0.0600742 0.562488 0.0823115 0.058322 0.549298 
0.0776308 0.0564581 0.535887 0.0725061 0.0544986 0.522315 0.0669292 0.0524608 0.50862 
0.0609049 0.0503666 0.494817 0.054455 0.0482447 0.480899 0.0476185 0.0461329 0.466843 
0.04045 0.0440787 0.452618 0.0330158 0.0421384 0.438187 0.0253874 0.0403747 0.423514 
0.0176349 0.0388532 0.408573 0.00981978 0.0376369 0.393341 0.00198994 0.0367811 0.377808 
-0.00582366 0.0363279 0.36197 -0.0136069 0.0363007 0.345824 -0.021359 0.0367015 0.32937 
-0.0290866 0.0375082 0.312598 -0.0367945 0.0386761 0.295489 -0.0444763 0.0401397 0.27801 
-0.0521046 0.041818 0.260113 -0.0596238 0.0436207 0.241738 -0.066945 0.0454559 0.222818 
-0.0739463 0.0472381 0.203284 -0.0804766 0.0488955 0.183074 -0.0863653 0.0503764 0.162147 
-0.0914347 0.0516534 0.140484 -0.0955156 0.0527255 0.118104 -0.0984636 0.0536174 0.0950613 
-0.100174 0.0543766 0.07145 -0.100596 0.0550677 0.0473994 -0.0997363 0.0557652 0.0230669 
-0.0976667 0.0565457 -0.0013734 -0.0945157 0.0574796 -0.0257434 -0.0904607 0.0586231 -0.0498753 
-0.0857126 0.0600121 -0.0736256 -0.0804975 0.0616578 -0.0968857 -0.0750371 0.0635451 -0.11959 
-0.0695298 0.0656324 -0.14172 -0.0641345 0.0678553 -0.1633 -0.0589589 0.0701309 -0.18439 
-0.0540537 0.0723642 -0.205079 -0.049413 0.0744558 -0.225466 -0.0449806 0.0763084 -0.245646 
-0.0406614 0.0778338 -0.265695 -0.036337 0.0789581 -0.285661 -0.0318818 0.0796257 -0.305551 
-0.0271805 0.0798012 -0.325331 -0.022142 0.0794691 -0.344925 -0.0167109 0.0786326 -0.364226 
-0.0108732 0.0773105 -0.383106 -0.00465776 0.0755334 -0.40143 0.00186757 0.0733394 -0.41907 
0.00860365 0.0707704 -0.435925 0.0154307 0.0678686 -0.451924 0.0222203 0.0646741 -0.467041 
0.0288469 0.0612237 -0.48129 0.0351979 0.0575507 -0.494727 0.0411811 0.0536858 -0.507437 
0.0467288 0.0496586 -0.519521 0.0517982 0.0455 -0.531082 0.0563697 0.0412434 -0.542212 
0.0604416 0.0369269 -0.552971 0.064025 0.0325937 -0.563385 0.0671378 0.0282922 -0.573434 
0.0697996 0.0240749 -0.58306 0.0720285 0.0199964 -0.592168 0.0738401 0.0161107 -0.60064 
0.0752478 0.0124682 -0.608351 0.0762662 0.00911225 -0.615184 0.0769138 0.00607682 -0.62105 
0.0772176 0.00338414 -0.6259 0.0772155 0.00104377 -0.629732 0.0769587 -0.000947333 -0.632597 
0.0765106 -0.00260348 -0.634597 0.0759449 -0.00394786 -0.635872 0.0753406 -0.0050093 -0.636586 
0.0747759 -0.00581849 -0.636914 0.0743214 -0.00640407 -0.637015 0.0740333 -0.00678913 -0.637019 
0.0739477 -0.00698828 -0.637011 
LINES 2 100
OFFSETS vtktypeint64
0 100 
CONNECTIVITY vtktypeint64
0 1 2 3 4 5 6 7 8 
9 10 11 12 13 14 15 16 17 
18 19 20 21 22 23 24 25 26 
27 28 29 30 31 32 33 34 35 
36 37 38 39 40 41 42 43 44 
45 46 47 48 49 50 51 52 53 
54 55 56 57 58 59 60 61 62 
63 64 65 66 67 68 69 70 71 
72 73 74 75 76 77 78 79 80 
81 82 83 84 85 86 87 88 89 
90 91 92 93 94 95 96 97 98 
99 
POINT_DATA 100
FIELD FieldData 3
_theta 1 100 double
0 0.031733259127 0.063466518254 0.095199777382 0.12693303651 0.15866629564 0.19039955476 0.22213281389 0.25386607302 
0.28559933214 0.31733259127 0.3490658504 0.38079910953 0.41253236865 0.44426562778 0.47599888691 0.50773214603 0.53946540516 
0.57119866429 0.60293192342 0.63466518254 0.66639844167 0.6981317008 0.72986495992 0.76159821905 0.79333147818 0.82506473731 
0.85679799643 0.88853125556 0.92026451469 0.95199777382 0.98373103294 1.0154642921 1.0471975512 1.0789308103 1.1106640695 
1.1423973286 1.1741305877 1.2058638468 1.237597106 1.2693303651 1.3010636242 1.3327968833 1.3645301425 1.3962634016 
1.4279966607 1.4597299198 1.491463179 1.5231964381 1.5549296972 1.5866629564 1.6183962155 1.6501294746 1.6818627337 
1.7135959929 1.745329252 1.7770625111 1.8087957702 1.8405290294 1.8722622885 1.9039955476 1.9357288068 1.9674620659 
1.999195325 2.0309285841 2.0626618433 2.0943951024 2.1261283615 2.1578616206 2.1895948798 2.2213281389 2.253061398 
2.2847946572 2.3165279163 2.3482611754 2.3799944345 2.4117276937 2.4434609528 2.4751942119 2.506927471 2.5386607302 
2.5703939893 2.6021272484 2.6338605076 2.6655937667 2.6973270258 2.7290602849 2.7607935441 2.7925268032 2.8242600623 
2.8559933214 2.8877265806 2.9194598397 2.9511930988 2.982926358 3.0146596171 3.0463928762 3.0781261353 3.1098593945 
3.1415926536 
_radius 1 100 double
5.8882555841e-16 0.015458906785 0.030762287996 0.04576098583 0.060325480491 0.074351823971 0.087763788732 0.10051157305 0.11256810691 
0.12392427817 0.1345842217 0.14456134679 0.15387526277 0.1625493933 0.17060893336 0.17807889131 0.18498220504 0.19133821005 
0.19716192434 0.20246458234 0.20725557273 0.2115455073 0.21534974255 0.21869145804 0.22160345104 0.22412810535 0.22631540337 
0.22821921151 0.22989228097 0.23138048864 0.23271689882 0.23391633001 0.23497123164 0.23584971127 0.23649641782 0.23683667333 
0.23678380721 0.23624916706 0.23515384844 0.23344087567 0.23108641381 0.2281085945 0.22457268547 0.22059162914 0.21632144185 
0.2119516065 0.20769134869 0.20375340358 0.20033730724 0.19761411525 0.19571368048 0.19471454967 0.19463591309 0.19543153637 
0.19698710904 0.19912383574 0.2016109798 0.20418795218 0.20659330735 0.20859538794 0.21001882636 0.21076270316 0.21080848808 
0.21021765527 0.20911993134 0.20769401273 0.20614352552 0.20467172798 0.20345847175 0.20264193626 0.20230593094 0.20247209033 
0.20309605108 0.20406772608 0.20521698358 0.20632607716 0.20714869056 0.20743337159 0.20694773799 0.20549972666 0.20295301037 
0.19923492748 0.19433647689 0.18830498372 0.18123090077 0.17323083401 0.16442923056 0.15494122906 0.14485895955 0.134243113 
0.12312089301 0.11149053771 0.099331547476 0.086618757188 0.073337681681 0.059498331568 0.045145009849 0.03036038267 0.015263181104 
1.5021814706e-15 
_area 1 100 double
0 0.00064955080551 0.0025671998997 0.005664533728 0.0098081352429 0.014836232303 0.020575297718 0.026853256732 0.033507973232 
0.040391695564 0.047373237359 0.054339626402 0.061198180154 0.06787894904 0.074336485252 0.080549289333 0.086515604967 0.092245697398 
0.097752751548 0.10304584162 0.10812802479 0.11300037123 0.11766952333 0.12215368205 0.12648159756 0.1306825874 0.13477173719 
0.13873882569 0.14254800779 0.14614846799 0.1494890937 0.15252823968 0.15523362396 0.1575730033 0.15949995969 0.1609405756 
0.16178754702 0.16190858935 0.16117031976 0.15946774577 0.1567481276 0.15302586442 0.14838894267 0.14299694445 0.13707027137 
0.13087109711 0.12467795162 0.11875712289 0.11333528239 0.10858054504 0.10460415564 0.10149596281 0.0993566146 0.098200645302 
0.097966158882 0.098552298787 0.099743511865 0.10122046129 0.10263647544 0.10367955224 0.10411121627 0.10378821281 0.10267334044 
0.10084241972 0.098481648674 0.095866168522 0.093321464143 0.091180966627 0.089813445185 0.08950347631 0.090169809504 0.091694049079 
0.093952936902 0.096801009095 0.10004030382 0.10340226955 0.10655202148 0.10911611604 0.11072705699 0.11107339405 0.10994346438 
0.10725299515 0.10305087469 0.097502500117 0.090855414401 0.083396180837 0.075409137309 0.067146170557 0.0588125626 0.050568752196 
0.042543277669 0.034849811621 0.027601783283 0.020920827312 0.014938365716 0.0097915338396 0.0056151668643 0.0025313996562 0.00063839397654 
1.1336452581e-17 
