# vtk DataFile Version 5.1
vtk output
ASCII
DATASET POLYDATA
POINTS 100 float
0.106359 0.0211454 0.662659 0.106632 0.0213121 0.662402 0.107465 0.0216617 0.661503 
0.108734 0.0221885 0.659977 0.110252 0.0228836 0.65785 0.111787 0.0237348 0.655149 
0.113091 0.0247266 0.651901 0.113934 0.0258404 0.648121 0.114124 0.0270544 0.643818 
0.113532 0.0283441 0.638982 0.112101 0.0296827 0.633595 0.109853 0.0310415 0.627628 
0.106877 0.0323907 0.621048 0.103317 0.0337 0.613827 0.0993471 0.0349394 0.605948 
0.0951469 0.0360799 0.597412 0.0908771 0.0370941 0.58824 0.0866583 0.037957 0.578478 
0.0825565 0.0386467 0.568191 0.0785777 0.0391444 0.557459 0.0746704 0.0394356 0.546372 
0.0707374 0.0395099 0.535016 0.0666539 0.0393619 0.523464 0.0622886 0.0389916 0.51177 
0.0575262 0.0384049 0.499958 0.0522864 0.0376141 0.488025 0.0465376 0.0366381 0.475939 
0.040303 0.0355028 0.463644 0.0336578 0.0342407 0.451071 0.0267188 0.032891 0.438149 
0.0196275 0.0314982 0.424815 0.0125285 0.0301113 0.411022 0.00554835 0.0287818 0.396754 
-0.00122473 0.0275619 0.382022 -0.00775432 0.0265021 0.366865 -0.0140624 0.0256493 0.351345 
-0.0202268 0.0250442 0.335538 -0.0263699 0.0247197 0.319518 -0.0326402 0.0246999 0.303347 
-0.039188 0.024999 0.287058 -0.0461398 0.025622 0.270653 -0.0535743 0.026565 0.254091 
-0.0615025 0.0278168 0.237292 -0.0698564 0.0293611 0.220147 -0.0784866 0.0311781 0.202524 
-0.0871699 0.0332468 0.184287 -0.0956263 0.0355468 0.165317 -0.103544 0.0380592 0.145521 
-0.110607 0.0407669 0.124854 -0.116528 0.0436548 0.103325 -0.121072 0.0467081 0.0810008 
-0.124081 0.0499105 0.058002 -0.125489 0.0532425 0.0344937 -0.125319 0.0566789 0.0106699 
-0.123683 0.0601869 -0.0132659 -0.120765 0.063725 -0.0371197 -0.116797 0.0672422 -0.0607252 
-0.112033 0.0706792 -0.0839577 -0.106722 0.07397 -0.106742 -0.101085 0.0770445 -0.129054 
-0.0952897 0.0798326 -0.150914 -0.0894453 0.0822679 -0.172376 -0.0835934 0.0842919 -0.193507 
-0.077715 0.0858579 -0.214378 -0.0717418 0.0869336 -0.235035 -0.0655732 0.0875033 -0.255496 
-0.059097 0.0875677 -0.275734 -0.0522091 0.0871434 -0.295683 -0.0448316 0.0862599 -0.315237 
-0.0369263 0.0849569 -0.334267 -0.0285021 0.0832799 -0.352634 -0.0196163 0.0812761 -0.37021 
-0.0103699 0.0789907 -0.386898 -0.000898203 0.0764638 -0.402644 0.00864222 0.0737286 -0.417444 
0.0180872 0.0708109 -0.431353 0.0272786 0.06773 -0.444469 0.036075 0.064501 -0.456923 
0.0443594 0.0611371 -0.46886 0.0520431 0.057654 -0.480411 0.0590653 0.0540722 -0.491675 
0.0653901 0.0504202 -0.502694 0.0710011 0.0467361 -0.513445 0.0758955 0.0430672 -0.52383 
0.0800791 0.0394694 -0.533688 0.0835622 0.0360038 -0.542806 0.0863585 0.0327331 -0.550947 
0.0884856 0.0297165 -0.557877 0.0899682 0.0270048 -0.563399 0.0908419 0.0246359 -0.567383 
0.0911577 0.0226312 -0.569789 0.0909845 0.0209938 -0.570682 0.0904112 0.019708 -0.570235 
0.0895444 0.018741 -0.568717 0.0885044 0.0180469 -0.566476 0.0874178 0.0175712 -0.563902 
0.0864085 0.0172572 -0.56139 0.0855876 0.0170519 -0.559303 0.0850435 0.0169126 -0.557928 
0.0848335 0.0168108 -0.557455 
LINES 2 100
OFFSETS vtktypeint64
0 100 
CONNECTIVITY vtktypeint64
0 1 2 3 4 5 6 7 8 
9 10 11 12 13 14 15 16 17 
18 19 20 21 22 23 24 25 26 
27 28 29 30 31 32 33 34 35 
36 37 38 39 40 41 42 43 44 
45 46 47 48 49 50 51 52 53 
54 55 56 57 58 59 60 61 62 
63 64 65 66 67 68 69 70 71 
72 73 74 75 76 77 78 79 80 
81 82 83 84 85 86 87 88 89 
90 91 92 93 94 95 96 97 98 
99 
POINT_DATA 100
FIELD FieldData 3
_theta 1 100 double
0 0.031733259127 0.063466518254 0.095199777382 0.12693303651 0.15866629564 0.19039955476 0.22213281389 0.25386607302 
0.28559933214 0.31733259127 0.3490658504 0.38079910953 0.41253236865 0.44426562778 0.47599888691 0.50773214603 0.53946540516 
0.57119866429 0.60293192342 0.63466518254 0.66639844167 0.6981317008 0.72986495992 0.76159821905 0.79333147818 0.82506473731 
0.85679799643 0.88853125556 0.92026451469 0.95199777382 0.98373103294 1.0154642921 1.0471975512 1.0789308103 1.1106640695 
1.1423973286 1.1741305877 1.2058638468 1.237597106 1.2693303651 1.3010636242 1.3327968833 1.3645301425 1.3962634016 
1.4279966607 1.4597299198 1.491463179 1.5231964381 1.5549296972 1.5866629564 1.6183962155 1.6501294746 1.6818627337 
1.7135959929 1.745329252 1.7770625111 1.8087957702 1.8405290294 1.8722622885 1.9039955476 1.9357288068 1.9674620659 
1.999195325 2.0309285841 2.0626618433 2.0943951024 2.1261283615 2.1578616206 2.1895948798 2.2213281389 2.253061398 
2.2847946572 2.3165279163 2.3482611754 2.3799944345 2.4117276937 2.4434609528 2.4751942119 2.506927471 2.5386607302 
2.5703939893 2.6021272484 2.6338605076 2.6655937667 2.6973270258 2.7290602849 2.7607935441 2.7925268032 2.8242600623 
2.8559933214 2.8877265806 2.9194598397 2.9511930988 2.982926358 3.0146596171 3.0463928762 3.0781261353 3.1098593945 
3.1415926536 
_radius 1 100 double
1.8916218945e-15 0.013598099473 0.027209300445 0.040831589756 0.054447708928 0.068019731387 0.081486564477 0.094765509987 0.10775805543 
0.12035888454 0.13246627216 0.14399185067 0.15486812492 0.1650527906 0.17452960147 0.18330608366 0.1914087895 0.19887704344 
0.20575625916 0.21209187035 0.2179246991 0.22328821587 0.22820771112 0.23270102803 0.23678030334 0.24045415333 0.24372984033 
0.24661504371 0.24911888709 0.25125190296 0.25302474598 0.25444573525 0.25551764919 0.25623449048 0.25657905878 0.25652206393 
0.25602324094 0.25503461835 0.25350584494 0.25139130369 0.24865856919 0.24529753419 0.24132923981 0.2368131528 0.231851434 
0.22658872006 0.2212061642 0.21590903402 0.21090819972 0.2063975483 0.20253155671 0.19940881006 0.19706628593 0.19548510035 
0.19460342339 0.19432998819 0.19455335187 0.19514611324 0.19596705525 0.19686585964 0.19769386303 0.19832077231 0.19865338163 
0.1986505569 0.19832986851 0.19776403608 0.19706802747 0.19637937578 0.19583522402 0.19555007129 0.19559796638 0.19600167579 
0.19672942855 0.19769809939 0.1987809292 0.19981815338 0.20062960498 0.20102878653 0.20083775552 0.19990158337 0.19810052124 
0.19535774914 0.19164095644 0.18695702744 0.18134057542 0.17483860333 0.16749470927 0.15933658493 0.15036985058 0.14057964469 
0.12993931094 0.11842367231 0.10602334018 0.092756532687 0.078675833701 0.063868825036 0.048453150431 0.0325679862 0.016364774785 
5.8680882395e-16 
_area 1 100 double
0 0.00050681725189 0.0020270031085 0.0045564814495 0.008078659586 0.012553454681 0.017908453973 0.024036353221 0.030800757064 
0.038049213019 0.045629481347 0.053404020336 0.061258993366 0.069106758448 0.076882878512 0.084539239364 0.092035136133 0.099329649996 
0.10637936673 0.1131424817 0.11958592085 0.1256912981 0.13145838484 0.13690735324 0.14208055004 0.14704112626 0.15186276325 
0.15660722071 0.16129654185 0.16589674577 0.17032593914 0.17448059884 0.17825601088 0.18153500667 0.18416448506 0.18597566594 
0.18681926654 0.1865807802 0.18518744313 0.18261555455 0.17889750544 0.17412552103 0.16844974558 0.16207044674 0.15522658166 
0.14818387089 0.14122296191 0.13462178716 0.12862087871 0.12337188613 0.11890362611 0.11514395819 0.11197828345 0.10929684491 
0.10701481547 0.10506761064 0.10340151945 0.1019260667 0.100560261 0.09927531566 0.098056214403 0.096866940932 0.095637882864 
0.094291894871 0.092783418348 0.091118644737 0.089367446727 0.08766655917 0.0862109652 0.085221908088 0.084878554359 0.085250456399 
0.086435225633 0.088143740557 0.09015910783 0.092234622489 0.094124613871 0.095611630961 0.096513317496 0.096685637335 0.096023687908 
0.094463168865 0.091982616828 0.088599302445 0.08435538559 0.079301628629 0.073489610113 0.066978021959 0.059850216128 0.052234249368 
0.044315840874 0.036338050127 0.028586208575 0.021360413449 0.014940516397 0.009550947586 0.0053350391984 0.0023491353993 0.0005827463022 
1.9536066668e-17 
