# vtk DataFile Version 5.1
vtk output
ASCII
DATASET POLYDATA
POINTS 100 float
0.147779 0.0353414 0.650376 0.147622 0.0355027 0.650354 0.147299 0.0358545 0.650155 
0.1468 0.0363922 0.649744 0.146116 0.0371077 0.649066 0.145231 0.0379887 0.648047 
0.144131 0.0390188 0.646604 0.1428 0.0401767 0.644645 0.14123 0.0414369 0.642076 
0.139411 0.04277 0.638813 0.137341 0.0441435 0.634783 0.13502 0.0455231 0.629931 
0.13245 0.0468743 0.624229 0.129632 0.0481637 0.617673 0.126562 0.0493603 0.61029 
0.123236 0.050437 0.602132 0.119641 0.0513709 0.593276 0.115762 0.0521436 0.583815 
0.111578 0.0527409 0.573853 0.107069 0.053152 0.563496 0.102219 0.0533686 0.552841 
0.0970177 0.0533841 0.541968 0.0914651 0.0531933 0.530934 0.0855763 0.0527918 0.519769 
0.0793811 0.0521771 0.508468 0.0729244 0.0513498 0.496999 0.0662631 0.0503156 0.485302 
0.0594619 0.0490878 0.4733 0.0525874 0.0476895 0.460902 0.0457008 0.0461558 0.448015 
0.0388513 0.0445352 0.434558 0.0320694 0.0428899 0.420462 0.0253634 0.0412939 0.405685 
0.0187173 0.0398305 0.39021 0.0120927 0.0385876 0.374049 0.00543337 0.037652 0.357239 
-0.00132651 0.0371024 0.339838 -0.00825257 0.0370031 0.321917 -0.0153986 0.0373973 0.303551 
-0.0227954 0.0383026 0.284812 -0.0304405 0.0397074 0.26576 -0.0382908 0.0415707 0.246437 
-0.0462594 0.0438244 0.226866 -0.0542162 0.0463773 0.207046 -0.0619935 0.0491227 0.186963 
-0.0693962 0.0519468 0.166586 -0.0762154 0.0547382 0.14588 -0.0822442 0.0573972 0.124812 
-0.0872948 0.059844 0.103359 -0.0912144 0.062025 0.0815124 -0.093898 0.0639162 0.0592858 
-0.0952985 0.0655231 0.0367138 -0.0954302 0.0668786 0.0138522 -0.0943682 0.0680364 -0.00922606 
-0.0922412 0.0690633 -0.0324362 -0.0892198 0.0700296 -0.055689 -0.0855014 0.0709991 -0.0788979 
-0.0812926 0.0720201 -0.101986 -0.0767912 0.0731178 -0.124891 -0.0721694 0.0742898 -0.147567 
-0.0675606 0.075504 -0.169989 -0.0630502 0.0767005 -0.192145 -0.0586709 0.0777964 -0.214038 
-0.054405 0.078693 -0.235675 -0.0501899 0.0792853 -0.257065 -0.0459298 0.0794719 -0.278211 
-0.0415092 0.0791645 -0.299106 -0.0368087 0.0782971 -0.319728 -0.0317208 0.0768316 -0.340043 
-0.0261639 0.074762 -0.360004 -0.0200934 0.0721148 -0.379554 -0.0135093 0.0689466 -0.398632 
-0.00645926 0.065339 -0.417179 0.000963615 0.0613917 -0.435143 0.00862612 0.0572141 -0.452484 
0.0163645 0.0529168 -0.469174 0.0239963 0.0486036 -0.485204 0.0313332 0.0443645 -0.500575 
0.0381942 0.040271 -0.515301 0.0444177 0.0363734 -0.529398 0.0498712 0.0327005 -0.542884 
0.0544585 0.0292609 -0.55577 0.058124 0.0260466 -0.568056 0.0608533 0.0230375 -0.579728 
0.0626711 0.0202066 -0.590759 0.0636373 0.0175247 -0.601108 0.0638399 0.0149656 -0.610727 
0.0633884 0.0125089 -0.619565 0.0624056 0.0101431 -0.627574 0.06102 0.00786654 -0.63472 
0.0593596 0.00568722 -0.640983 0.0575459 0.00362188 -0.646364 0.0556902 0.00169405 -0.650887 
0.0538905 -6.81767e-05 -0.654598 0.0522303 -0.00163475 -0.657557 0.0507784 -0.00297603 -0.659838 
0.0495891 -0.00406501 -0.661516 0.0487036 -0.0048791 -0.66266 0.0481505 -0.00540149 -0.663326 
0.0479473 -0.00562205 -0.66355 
LINES 2 100
OFFSETS vtktypeint64
0 100 
CONNECTIVITY vtktypeint64
0 1 2 3 4 5 6 7 8 
9 10 11 12 13 14 15 16 17 
18 19 20 21 22 23 24 25 26 
27 28 29 30 31 32 33 34 35 
36 37 38 39 40 41 42 43 44 
45 46 47 48 49 50 51 52 53 
54 55 56 57 58 59 60 61 62 
63 64 65 66 67 68 69 70 71 
72 73 74 75 76 77 78 79 80 
81 82 83 84 85 86 87 88 89 
90 91 92 93 94 95 96 97 98 
99 
POINT_DATA 100
FIELD FieldData 3
_theta 1 100 double
0 0.031733259127 0.063466518254 0.095199777382 0.12693303651 0.15866629564 0.19039955476 0.22213281389 0.25386607302 
0.28559933214 0.31733259127 0.3490658504 0.38079910953 0.41253236865 0.44426562778 0.47599888691 0.50773214603 0.53946540516 
0.57119866429 0.60293192342 0.63466518254 0.66639844167 0.6981317008 0.72986495992 0.76159821905 0.79333147818 0.82506473731 
0.85679799643 0.88853125556 0.92026451469 0.95199777382 0.98373103294 1.0154642921 1.0471975512 1.0789308103 1.1106640695 
1.1423973286 1.1741305877 1.2058638468 1.237597106 1.2693303651 1.3010636242 1.3327968833 1.3645301425 1.3962634016 
1.4279966607 1.4597299198 1.491463179 1.5231964381 1.5549296972 1.5866629564 1.6183962155 1.6501294746 1.6818627337 
1.7135959929 1.745329252 1.7770625111 1.8087957702 1.8405290294 1.8722622885 1.9039955476 1.9357288068 1.9674620659 
1.999195325 2.0309285841 2.0626618433 2.0943951024 2.1261283615 2.1578616206 2.1895948798 2.2213281389 2.253061398 
2.2847946572 2.3165279163 2.3482611754 2.3799944345 2.4117276937 2.4434609528 2.4751942119 2.506927471 2.5386607302 
2.5703939893 2.6021272484 2.6338605076 2.6655937667 2.6973270258 2.7290602849 2.7607935441 2.7925268032 2.8242600623 
2.8559933214 2.8877265806 2.9194598397 2.9511930988 2.982926358 3.0146596171 3.0463928762 3.0781261353 3.1098593945 
3.1415926536 
_radius 1 100 double
8.702435305e-16 0.015376101987 0.030540313135 0.045297916242 0.05948861667 0.072997777031 0.085761679975 0.097766669604 0.10904304086 
0.11965515139 0.12968930514 0.13924069698 0.14840044188 0.15724362432 0.1658193537 0.17414384388 0.1821974185 0.18992602346 
0.19724732537 0.20406086115 0.21026107785 0.21575157472 0.22045854595 0.22434140961 0.22739893727 0.2296698504 0.2312277449 
0.23217119833 0.23261079153 0.23265530792 0.23239940555 0.23191459197 0.23124452916 0.23040480057 0.22938653342 0.22816284967 
0.22669703893 0.22495148649 0.22289657697 0.22051890594 0.217828139 0.21486179791 0.21168718227 0.20839962932 0.20511649197 
0.20196672604 0.19907690825 0.19655572206 0.19447998649 0.19288551611 0.19176508295 0.19107375309 0.19073974379 0.19067762178 
0.1908005833 0.19102952661 0.19129806244 0.19155392135 0.19175805347 0.19188295178 0.19191140259 0.19183614415 0.19166008713 
0.19139617959 0.19106597152 0.19069647722 0.19031574353 0.18994816307 0.18961071321 0.18931091213 0.18904655754 0.18880658443 
0.18857198525 0.18831587204 0.18800234359 0.1875845052 0.18700238926 0.18618152983 0.18503277895 0.18345387479 0.18133323983 
0.17855622898 0.17501344146 0.17060998086 0.16527408111 0.15896355505 0.15166904439 0.14341382417 0.13425063529 0.12425643059 
0.11352594251 0.10216475181 0.090282300927 0.077985220806 0.065371434109 0.052525674557 0.039517174361 0.02640006727 0.013216314717 
2.075698663e-16 
_area 1 100 double
0 0.00050640951898 0.0020113366489 0.0044739847879 0.0078326917726 0.012011904613 0.01692748417 0.022488905062 0.028600113206 
0.035162062304 0.042078023915 0.049260206038 0.056635322265 0.064147405274 0.071757220944 0.079438320631 0.087169826535 0.094925863766 
0.10266213573 0.11030228779 0.11772964676 0.12479095372 0.13131526961 0.13714415442 0.14216296191 0.14632184802 0.14963942415 
0.15218935389 0.15407697866 0.15541565297 0.15630917977 0.15684056258 0.15706396456 0.15699811756 0.15662230735 0.15587780425 
0.15467768545 0.15292601696 0.15054374168 0.14749532632 0.14380904375 0.1395850498 0.13498842896 0.13022814707 0.12552656138 
0.12108709889 0.11706877067 0.11357344795 0.11064475684 0.10827159334 0.10639331216 0.10491258973 0.10371781597 0.10270390376 
0.10178093731 0.10087339887 0.099920971594 0.098885110161 0.097753452114 0.096532734097 0.095231477996 0.093844934907 0.092354401333 
0.09074158447 0.089006448146 0.087174666927 0.085290963696 0.08340632211 0.081570745934 0.079837970675 0.078278915612 0.07699177496 
0.076088228174 0.075645082265 0.075662004461 0.076061812101 0.076708401602 0.077422216855 0.077993067926 0.07819535042 0.077809398376 
0.076647146457 0.074576222239 0.071536552328 0.067546051174 0.062694874846 0.057130168533 0.051035235134 0.044608680661 0.038049626545 
0.03155246488 0.02530795386 0.019501693589 0.014303295656 0.009848173337 0.0062206650929 0.0034482974752 0.0015128421377 0.00037491491808 
9.1615083575e-18 
