# vtk DataFile Version 5.1
vtk output
ASCII
DATASET POLYDATA
POINTS 100 float
-0.0131804 0.0177953 -0.685877 -0.0131012 0.0178072 -0.685431 -0.012881 0.0180174 -0.684114 
-0.0125408 0.018401 -0.681899 -0.012115 0.0189216 -0.678746 -0.0116514 0.0195376 -0.674612 
-0.0112101 0.02021 -0.66946 -0.0108621 0.02091 -0.66327 -0.0106874 0.021625 -0.656047 
-0.0107728 0.0223627 -0.647826 -0.0112081 0.0231515 -0.638673 -0.0120825 0.0240383 -0.628679 
-0.0134798 0.0250825 -0.617957 -0.015473 0.0263479 -0.60663 -0.0181193 0.0278935 -0.594813 
-0.0214543 0.0297637 -0.58261 -0.0254874 0.0319805 -0.570096 -0.0301984 0.034537 -0.55731 
-0.0355349 0.0373958 -0.544255 -0.0414127 0.0404901 -0.530898 -0.0477178 0.0437285 -0.517174 
-0.0543116 0.047004 -0.503 -0.0610379 0.0502037 -0.488285 -0.067733 0.0532207 -0.47294 
-0.0742361 0.0559643 -0.456898 -0.0804016 0.058369 -0.440115 -0.0861101 0.0604004 -0.422578 
-0.0912787 0.0620565 -0.404307 -0.095868 0.0633667 -0.385349 -0.0998859 0.0643852 -0.365769 
-0.103387 0.0651835 -0.345642 -0.106469 0.0658397 -0.325039 -0.109259 0.0664282 -0.304016 
-0.111904 0.0670104 -0.282608 -0.114556 0.067627 -0.260825 -0.117348 0.0682942 -0.238651 
-0.120385 0.0690024 -0.216052 -0.123724 0.0697192 -0.192985 -0.127362 0.0703944 -0.169412 
-0.131238 0.0709673 -0.14531 -0.135222 0.0713754 -0.12069 -0.139132 0.0715618 -0.0956016 
-0.142738 0.0714817 -0.0701396 -0.145787 0.0711068 -0.0444449 -0.148018 0.0704268 -0.0186963 
-0.149186 0.0694482 0.00690038 -0.149085 0.0681914 0.0321284 -0.147564 0.0666851 0.0567784 
-0.144541 0.0649615 0.0806661 -0.140013 0.063051 0.103649 -0.134051 0.0609786 0.125636 
-0.126799 0.0587621 0.146597 -0.118456 0.0564125 0.166558 -0.109261 0.0539373 0.1856 
-0.099474 0.0513442 0.20384 -0.0893483 0.0486465 0.221421 -0.0791167 0.0458685 0.238491 
-0.0689713 0.0430492 0.255187 -0.0590537 0.0402438 0.271621 -0.0494487 0.0375236 0.287871 
-0.0401857 0.0349716 0.303974 -0.0312456 0.0326767 0.319928 -0.0225726 0.0307252 0.335704 
-0.0140884 0.0291917 0.351249 -0.00570887 0.0281298 0.366505 0.00264112 0.0275656 0.381421 
0.0110149 0.0274919 0.395966 0.0194354 0.0278681 0.410135 0.0278911 0.0286218 0.423952 
0.0363372 0.029656 0.437473 0.0447012 0.0308577 0.450772 0.0528922 0.03211 0.463936 
0.0608116 0.0333034 0.477048 0.0683657 0.0343471 0.490174 0.0754754 0.0351773 0.503352 
0.0820849 0.0357628 0.51658 0.0881661 0.0361061 0.529816 0.0937191 0.0362399 0.542977 
0.0987695 0.0362204 0.555946 0.103362 0.0361175 0.568581 0.10755 0.0360035 0.580736 
0.111391 0.0359421 0.592267 0.114933 0.0359781 0.603056 0.11821 0.0361316 0.613014 
0.121237 0.0363942 0.622095 0.124012 0.036731 0.630296 0.126514 0.0370859 0.637652 
0.128713 0.0373901 0.644231 0.130577 0.0375729 0.650121 0.132077 0.0375734 0.655416 
0.133198 0.0373499 0.660204 0.133946 0.0368885 0.664554 0.134347 0.0362066 0.668507 
0.13445 0.0353524 0.672077 0.134325 0.0344011 0.675246 0.134053 0.0334457 0.677973 
0.13372 0.0325862 0.680203 0.133407 0.0319176 0.681875 0.133179 0.0315175 0.682937 
0.133079 0.0314367 0.683353 
LINES 2 100
OFFSETS vtktypeint64
0 100 
CONNECTIVITY vtktypeint64
0 1 2 3 4 5 6 7 8 
9 10 11 12 13 14 15 16 17 
18 19 20 21 22 23 24 25 26 
27 28 29 30 31 32 33 34 35 
36 37 38 39 40 41 42 43 44 
45 46 47 48 49 50 51 52 53 
54 55 56 57 58 59 60 61 62 
63 64 65 66 67 68 69 70 71 
72 73 74 75 76 77 78 79 80 
81 82 83 84 85 86 87 88 89 
90 91 92 93 94 95 96 97 98 
99 
POINT_DATA 100
FIELD FieldData 3
_theta 1 100 double
0 0.031733259127 0.063466518254 0.095199777382 0.12693303651 0.15866629564 0.19039955476 0.22213281389 0.25386607302 
0.28559933214 0.31733259127 0.3490658504 0.38079910953 0.41253236865 0.44426562778 0.47599888691 0.50773214603 0.53946540516 
0.57119866429 0.60293192342 0.63466518254 0.66639844167 0.6981317008 0.72986495992 0.76159821905 0.79333147818 0.82506473731 
0.85679799643 0.88853125556 0.92026451469 0.95199777382 0.98373103294 1.0154642921 1.0471975512 1.0789308103 1.1106640695 
1.1423973286 1.1741305877 1.2058638468 1.237597106 1.2693303651 1.3010636242 1.3327968833 1.3645301425 1.3962634016 
1.4279966607 1.4597299198 1.491463179 1.5231964381 1.5549296972 1.5866629564 1.6183962155 1.6501294746 1.6818627337 
1.7135959929 1.745329252 1.7770625111 1.8087957702 1.8405290294 1.8722622885 1.9039955476 1.9357288068 1.9674620659 
1.999195325 2.0309285841 2.0626618433 2.0943951024 2.1261283615 2.1578616206 2.1895948798 2.2213281389 2.253061398 
2.2847946572 2.3165279163 2.3482611754 2.3799944345 2.4117276937 2.4434609528 2.4751942119 2.506927471 2.5386607302 
2.5703939893 2.6021272484 2.6338605076 2.6655937667 2.6973270258 2.7290602849 2.7607935441 2.7925268032 2.8242600623 
2.8559933214 2.8877265806 2.9194598397 2.9511930988 2.982926358 3.0146596171 3.0463928762 3.0781261353 3.1098593945 
3.1415926536 
_radius 1 100 double
7.7755291138e-16 0.014213397925 0.028295828294 0.042125930161 0.055601908868 0.068646483676 0.081207374278 0.093253845825 0.1047707927 
0.11575222257 0.12619566211 0.13609816648 0.14545375389 0.15425164406 0.16247479338 0.17009869864 0.17709093131 0.18341208764 
0.18901871855 0.19386843165 0.19792687645 0.20117582707 0.20362111835 0.20529884711 0.20627815684 0.20665924955 0.20656610222 
0.20613458136 0.20549785481 0.20477171651 0.20404242602 0.20335906367 0.202731567 0.20213480465 0.20151829643 0.20082042871 
0.19998523189 0.19897909958 0.19780441424 0.1965070659 0.19517551252 0.19393062139 0.19290819207 0.19223911725 0.19203363945 
0.19237413016 0.19331588065 0.19489117619 0.19711151574 0.19996584869 0.20341632662 0.20739486068 0.2118031731 0.21651718767 
0.22139506378 0.22628759499 0.23104960063 0.2355506714 0.23968331958 0.24336701017 0.2465479415 0.24919593134 0.25130027582 
0.25286580598 0.25390932141 0.25445597587 0.25453529153 0.25417699737 0.25340737438 0.25224692318 0.25070985202 0.24880523907 
0.2465390389 0.24391570974 0.24093835584 0.23760690191 0.23391469741 0.22984470855 0.2253667738 0.220437162 0.2150010126 
0.20899742364 0.20236625289 0.19505529318 0.18702646041 0.17825997019 0.16875605078 0.15853434186 0.14763155752 0.13609813302 
0.1239944523 0.11138701124 0.098344697039 0.0849353718 0.071223103777 0.057266510658 0.043118554458 0.028827698789 0.014439817285 
5.9161720252e-16 
_area 1 100 double
0 0.00053936387532 0.0021434767619 0.0047734068956 0.0083722668782 0.012871449105 0.018191762576 0.024238469295 0.030893043543 
0.038006283825 0.045396718798 0.052856312637 0.060163591735 0.067102865042 0.07348673628 0.079177191969 0.084099119099 0.088241281918 
0.091643971755 0.094377166199 0.096516017249 0.098121370003 0.099231535973 0.099868312289 0.10005597515 0.099846855609 0.099342115752 
0.098693677749 0.098075264026 0.097626875921 0.097413692047 0.097432391129 0.097638825031 0.097971311889 0.098370590811 0.098797402211 
0.099234603092 0.099663368656 0.10006081098 0.10044034068 0.10086375976 0.10141505589 0.10217277182 0.10320279388 0.10456899929 
0.1063488708 0.10864795233 0.11160670728 0.11538708859 0.12013066119 0.12590131689 0.13263851362 0.14014362457 0.14810503187 
0.15614985861 0.16389922547 0.17101533099 0.17724078843 0.1824285507 0.186553198 0.18969201023 0.19197356879 0.19351362221 
0.19437550205 0.19457344302 0.19409966859 0.1929490426 0.19113082472 0.18866870528 0.18559541203 0.18194907813 0.17777537039 
0.17313353483 0.16809865953 0.16275170187 0.15715867896 0.15135394835 0.14533949224 0.13909452132 0.13258469085 0.1257692149 
0.11860880481 0.11107507924 0.10315974152 0.094881701517 0.086290938677 0.077468311839 0.068521288623 0.0595769852 0.050774919369 
0.042261321002 0.034184993044 0.026693166089 0.019925879519 0.01400897345 0.0090474183579 0.0051212126572 0.0022852034347 0.00057254618298 
0 
